<?xml version="1.0" encoding="utf-8" standalone="no"?>
<!DOCTYPE svg PUBLIC "-//W3C//DTD SVG 1.1//EN"
  "http://www.w3.org/Graphics/SVG/1.1/DTD/svg11.dtd">
<!-- Created with matplotlib (https://matplotlib.org/) -->
<svg height="345.6pt" version="1.1" viewBox="0 0 460.8 345.6" width="460.8pt" xmlns="http://www.w3.org/2000/svg" xmlns:xlink="http://www.w3.org/1999/xlink">
 <defs>
  <style type="text/css">
*{stroke-linecap:butt;stroke-linejoin:round;}
  </style>
 </defs>
 <g id="figure_1">
  <g id="patch_1">
   <path d="M 0 345.6 
L 460.8 345.6 
L 460.8 0 
L 0 0 
z
" style="fill:#ffffff;"/>
  </g>
  <g id="axes_1">
   <g id="patch_2">
    <path d="M 57.6 298.944 
L 338.688 298.944 
L 338.688 27.648 
L 57.6 27.648 
z
" style="fill:#ffffff;"/>
   </g>
   <g id="line2d_1">
    <path d="M 162.191157 298.944 
L 162.191157 293.677139 
L 164.458662 293.677139 
L 164.458662 288.410278 
L 166.671499 288.410278 
L 166.671499 283.143418 
L 167.932076 283.143418 
L 167.932076 277.876557 
L 169.217337 277.876557 
L 169.217337 272.609696 
L 170.239707 272.609696 
L 170.239707 267.342835 
L 170.711322 267.342835 
L 170.711322 262.075974 
L 171.463278 262.075974 
L 171.463278 256.809114 
L 172.100254 256.809114 
L 172.100254 251.542253 
L 172.55106 251.542253 
L 172.55106 246.275392 
L 172.910414 246.275392 
L 172.910414 241.008531 
L 173.512801 241.008531 
L 173.512801 235.74167 
L 174.085216 235.74167 
L 174.085216 230.47481 
L 174.388233 230.47481 
L 174.388233 225.207949 
L 174.633601 225.207949 
L 174.633601 219.941088 
L 176.07121 219.941088 
L 176.07121 214.674227 
L 176.538086 214.674227 
L 176.538086 209.407366 
L 177.977994 209.407366 
L 177.977994 204.140506 
L 181.883999 204.140506 
L 181.883999 198.873645 
L 182.246237 198.873645 
L 182.246237 193.606784 
L 182.499964 193.606784 
L 182.499964 188.339923 
L 182.827538 188.339923 
L 182.827538 183.073062 
L 183.152655 183.073062 
L 183.152655 177.806202 
L 183.414166 177.806202 
L 183.414166 172.539341 
L 183.7075 172.539341 
L 183.7075 167.27248 
L 183.936299 167.27248 
L 183.936299 162.005619 
L 184.225952 162.005619 
L 184.225952 156.738758 
L 184.495198 156.738758 
L 184.495198 151.471897 
L 184.793584 151.471897 
L 184.793584 146.205037 
L 185.032355 146.205037 
L 185.032355 140.938176 
L 185.327803 140.938176 
L 185.327803 135.671315 
L 185.569061 135.671315 
L 185.569061 130.404454 
L 185.81346 130.404454 
L 185.81346 125.137593 
L 186.074324 125.137593 
L 186.074324 119.870733 
L 186.357651 119.870733 
L 186.357651 114.603872 
L 186.567501 114.603872 
L 186.567501 109.337011 
L 186.815557 109.337011 
L 186.815557 104.07015 
L 187.053365 104.07015 
L 187.053365 98.803289 
L 187.316727 98.803289 
L 187.316727 93.536429 
L 187.52175 93.536429 
L 187.52175 88.269568 
L 187.760938 88.269568 
L 187.760938 83.002707 
L 187.942284 83.002707 
L 187.942284 77.735846 
L 187.962812 77.735846 
L 187.962812 72.468985 
L 187.987265 72.468985 
L 187.987265 67.202125 
L 188.009466 67.202125 
L 188.009466 61.935264 
L 188.029669 61.935264 
L 188.029669 56.668403 
L 188.050341 56.668403 
L 188.050341 51.401542 
L 188.073935 51.401542 
L 188.073935 46.134681 
L 188.095781 46.134681 
L 188.095781 40.867821 
L 188.116864 40.867821 
L 188.116864 35.60096 
L 188.142081 35.60096 
L 188.142081 30.334099 
L 338.688 30.334099 
" style="fill:none;stroke:#f5deb3;stroke-linecap:square;stroke-width:4;"/>
   </g>
   <g id="line2d_2">
    <defs>
     <path d="M -0 7.778175 
L 7.778175 0 
L 0 -7.778175 
L -7.778175 -0 
z
" id="m9ccb0e6e2e" style="stroke:#f5deb3;stroke-linejoin:miter;stroke-width:1.5;"/>
    </defs>
    <g>
     <use style="fill:#f5deb3;stroke:#f5deb3;stroke-linejoin:miter;stroke-width:1.5;" x="184.225952" xlink:href="#m9ccb0e6e2e" y="156.738758"/>
     <use style="fill:#f5deb3;stroke:#f5deb3;stroke-linejoin:miter;stroke-width:1.5;" x="188.142081" xlink:href="#m9ccb0e6e2e" y="30.334099"/>
     <use style="fill:#f5deb3;stroke:#f5deb3;stroke-linejoin:miter;stroke-width:1.5;" x="188.142081" xlink:href="#m9ccb0e6e2e" y="30.334099"/>
     <use style="fill:#f5deb3;stroke:#f5deb3;stroke-linejoin:miter;stroke-width:1.5;" x="338.688" xlink:href="#m9ccb0e6e2e" y="30.334099"/>
    </g>
   </g>
   <g id="line2d_3">
    <path style="fill:none;stroke:#f5deb3;stroke-linecap:square;stroke-width:4;"/>
    <g/>
   </g>
   <g id="line2d_4">
    <path d="M 338.688 30.334099 
L 369.60768 250.594218 
" style="fill:none;stroke:#f5deb3;stroke-linecap:square;stroke-width:4;"/>
    <g>
     <use style="fill:#f5deb3;stroke:#f5deb3;stroke-linejoin:miter;stroke-width:1.5;" x="338.688" xlink:href="#m9ccb0e6e2e" y="30.334099"/>
     <use style="fill:#f5deb3;stroke:#f5deb3;stroke-linejoin:miter;stroke-width:1.5;" x="369.60768" xlink:href="#m9ccb0e6e2e" y="250.594218"/>
    </g>
   </g>
   <g id="matplotlib.axis_1">
    <g id="xtick_1">
     <g id="line2d_5">
      <path clip-path="url(#pa8bddddcab)" d="M 57.6 298.944 
L 57.6 27.648 
" style="fill:none;stroke:#b0b0b0;stroke-linecap:square;stroke-width:0.8;"/>
     </g>
     <g id="line2d_6">
      <defs>
       <path d="M 0 0 
L 0 3.5 
" id="mff6e96b73f" style="stroke:#000000;stroke-width:0.8;"/>
      </defs>
      <g>
       <use style="stroke:#000000;stroke-width:0.8;" x="57.6" xlink:href="#mff6e96b73f" y="298.944"/>
      </g>
     </g>
     <g id="text_1">
      <!-- 0 -->
      <defs>
       <path d="M 31.78125 66.40625 
Q 24.171875 66.40625 20.328125 58.90625 
Q 16.5 51.421875 16.5 36.375 
Q 16.5 21.390625 20.328125 13.890625 
Q 24.171875 6.390625 31.78125 6.390625 
Q 39.453125 6.390625 43.28125 13.890625 
Q 47.125 21.390625 47.125 36.375 
Q 47.125 51.421875 43.28125 58.90625 
Q 39.453125 66.40625 31.78125 66.40625 
z
M 31.78125 74.21875 
Q 44.046875 74.21875 50.515625 64.515625 
Q 56.984375 54.828125 56.984375 36.375 
Q 56.984375 17.96875 50.515625 8.265625 
Q 44.046875 -1.421875 31.78125 -1.421875 
Q 19.53125 -1.421875 13.0625 8.265625 
Q 6.59375 17.96875 6.59375 36.375 
Q 6.59375 54.828125 13.0625 64.515625 
Q 19.53125 74.21875 31.78125 74.21875 
z
" id="DejaVuSans-48"/>
      </defs>
      <g transform="translate(51.2375 321.140875)scale(0.2 -0.2)">
       <use xlink:href="#DejaVuSans-48"/>
      </g>
     </g>
    </g>
    <g id="xtick_2">
     <g id="line2d_7">
      <path clip-path="url(#pa8bddddcab)" d="M 137.910857 298.944 
L 137.910857 27.648 
" style="fill:none;stroke:#b0b0b0;stroke-linecap:square;stroke-width:0.8;"/>
     </g>
     <g id="line2d_8">
      <g>
       <use style="stroke:#000000;stroke-width:0.8;" x="137.910857" xlink:href="#mff6e96b73f" y="298.944"/>
      </g>
     </g>
     <g id="text_2">
      <!-- 2 -->
      <defs>
       <path d="M 19.1875 8.296875 
L 53.609375 8.296875 
L 53.609375 0 
L 7.328125 0 
L 7.328125 8.296875 
Q 12.9375 14.109375 22.625 23.890625 
Q 32.328125 33.6875 34.8125 36.53125 
Q 39.546875 41.84375 41.421875 45.53125 
Q 43.3125 49.21875 43.3125 52.78125 
Q 43.3125 58.59375 39.234375 62.25 
Q 35.15625 65.921875 28.609375 65.921875 
Q 23.96875 65.921875 18.8125 64.3125 
Q 13.671875 62.703125 7.8125 59.421875 
L 7.8125 69.390625 
Q 13.765625 71.78125 18.9375 73 
Q 24.125 74.21875 28.421875 74.21875 
Q 39.75 74.21875 46.484375 68.546875 
Q 53.21875 62.890625 53.21875 53.421875 
Q 53.21875 48.921875 51.53125 44.890625 
Q 49.859375 40.875 45.40625 35.40625 
Q 44.1875 33.984375 37.640625 27.21875 
Q 31.109375 20.453125 19.1875 8.296875 
z
" id="DejaVuSans-50"/>
      </defs>
      <g transform="translate(131.548357 321.140875)scale(0.2 -0.2)">
       <use xlink:href="#DejaVuSans-50"/>
      </g>
     </g>
    </g>
    <g id="xtick_3">
     <g id="line2d_9">
      <path clip-path="url(#pa8bddddcab)" d="M 218.221714 298.944 
L 218.221714 27.648 
" style="fill:none;stroke:#b0b0b0;stroke-linecap:square;stroke-width:0.8;"/>
     </g>
     <g id="line2d_10">
      <g>
       <use style="stroke:#000000;stroke-width:0.8;" x="218.221714" xlink:href="#mff6e96b73f" y="298.944"/>
      </g>
     </g>
     <g id="text_3">
      <!-- 4 -->
      <defs>
       <path d="M 37.796875 64.3125 
L 12.890625 25.390625 
L 37.796875 25.390625 
z
M 35.203125 72.90625 
L 47.609375 72.90625 
L 47.609375 25.390625 
L 58.015625 25.390625 
L 58.015625 17.1875 
L 47.609375 17.1875 
L 47.609375 0 
L 37.796875 0 
L 37.796875 17.1875 
L 4.890625 17.1875 
L 4.890625 26.703125 
z
" id="DejaVuSans-52"/>
      </defs>
      <g transform="translate(211.859214 321.140875)scale(0.2 -0.2)">
       <use xlink:href="#DejaVuSans-52"/>
      </g>
     </g>
    </g>
    <g id="xtick_4">
     <g id="line2d_11">
      <path clip-path="url(#pa8bddddcab)" d="M 298.532571 298.944 
L 298.532571 27.648 
" style="fill:none;stroke:#b0b0b0;stroke-linecap:square;stroke-width:0.8;"/>
     </g>
     <g id="line2d_12">
      <g>
       <use style="stroke:#000000;stroke-width:0.8;" x="298.532571" xlink:href="#mff6e96b73f" y="298.944"/>
      </g>
     </g>
     <g id="text_4">
      <!-- 6 -->
      <defs>
       <path d="M 33.015625 40.375 
Q 26.375 40.375 22.484375 35.828125 
Q 18.609375 31.296875 18.609375 23.390625 
Q 18.609375 15.53125 22.484375 10.953125 
Q 26.375 6.390625 33.015625 6.390625 
Q 39.65625 6.390625 43.53125 10.953125 
Q 47.40625 15.53125 47.40625 23.390625 
Q 47.40625 31.296875 43.53125 35.828125 
Q 39.65625 40.375 33.015625 40.375 
z
M 52.59375 71.296875 
L 52.59375 62.3125 
Q 48.875 64.0625 45.09375 64.984375 
Q 41.3125 65.921875 37.59375 65.921875 
Q 27.828125 65.921875 22.671875 59.328125 
Q 17.53125 52.734375 16.796875 39.40625 
Q 19.671875 43.65625 24.015625 45.921875 
Q 28.375 48.1875 33.59375 48.1875 
Q 44.578125 48.1875 50.953125 41.515625 
Q 57.328125 34.859375 57.328125 23.390625 
Q 57.328125 12.15625 50.6875 5.359375 
Q 44.046875 -1.421875 33.015625 -1.421875 
Q 20.359375 -1.421875 13.671875 8.265625 
Q 6.984375 17.96875 6.984375 36.375 
Q 6.984375 53.65625 15.1875 63.9375 
Q 23.390625 74.21875 37.203125 74.21875 
Q 40.921875 74.21875 44.703125 73.484375 
Q 48.484375 72.75 52.59375 71.296875 
z
" id="DejaVuSans-54"/>
      </defs>
      <g transform="translate(292.170071 321.140875)scale(0.2 -0.2)">
       <use xlink:href="#DejaVuSans-54"/>
      </g>
     </g>
    </g>
    <g id="xtick_5">
     <g id="line2d_13">
      <path clip-path="url(#pa8bddddcab)" d="M 97.755429 298.944 
L 97.755429 27.648 
" style="fill:none;stroke:#b0b0b0;stroke-linecap:square;stroke-width:0.8;"/>
     </g>
     <g id="line2d_14">
      <defs>
       <path d="M 0 0 
L 0 2 
" id="md8ba33d618" style="stroke:#000000;stroke-width:0.6;"/>
      </defs>
      <g>
       <use style="stroke:#000000;stroke-width:0.6;" x="97.755429" xlink:href="#md8ba33d618" y="298.944"/>
      </g>
     </g>
    </g>
    <g id="xtick_6">
     <g id="line2d_15">
      <path clip-path="url(#pa8bddddcab)" d="M 178.066286 298.944 
L 178.066286 27.648 
" style="fill:none;stroke:#b0b0b0;stroke-linecap:square;stroke-width:0.8;"/>
     </g>
     <g id="line2d_16">
      <g>
       <use style="stroke:#000000;stroke-width:0.6;" x="178.066286" xlink:href="#md8ba33d618" y="298.944"/>
      </g>
     </g>
    </g>
    <g id="xtick_7">
     <g id="line2d_17">
      <path clip-path="url(#pa8bddddcab)" d="M 258.377143 298.944 
L 258.377143 27.648 
" style="fill:none;stroke:#b0b0b0;stroke-linecap:square;stroke-width:0.8;"/>
     </g>
     <g id="line2d_18">
      <g>
       <use style="stroke:#000000;stroke-width:0.6;" x="258.377143" xlink:href="#md8ba33d618" y="298.944"/>
      </g>
     </g>
    </g>
    <g id="xtick_8">
     <g id="line2d_19">
      <path clip-path="url(#pa8bddddcab)" d="M 338.688 298.944 
L 338.688 27.648 
" style="fill:none;stroke:#b0b0b0;stroke-linecap:square;stroke-width:0.8;"/>
     </g>
     <g id="line2d_20">
      <g>
       <use style="stroke:#000000;stroke-width:0.6;" x="338.688" xlink:href="#md8ba33d618" y="298.944"/>
      </g>
     </g>
    </g>
    <g id="text_5">
     <!-- log10(# f-evals / dimension) -->
     <defs>
      <path d="M 9.421875 75.984375 
L 18.40625 75.984375 
L 18.40625 0 
L 9.421875 0 
z
" id="DejaVuSans-108"/>
      <path d="M 30.609375 48.390625 
Q 23.390625 48.390625 19.1875 42.75 
Q 14.984375 37.109375 14.984375 27.296875 
Q 14.984375 17.484375 19.15625 11.84375 
Q 23.34375 6.203125 30.609375 6.203125 
Q 37.796875 6.203125 41.984375 11.859375 
Q 46.1875 17.53125 46.1875 27.296875 
Q 46.1875 37.015625 41.984375 42.703125 
Q 37.796875 48.390625 30.609375 48.390625 
z
M 30.609375 56 
Q 42.328125 56 49.015625 48.375 
Q 55.71875 40.765625 55.71875 27.296875 
Q 55.71875 13.875 49.015625 6.21875 
Q 42.328125 -1.421875 30.609375 -1.421875 
Q 18.84375 -1.421875 12.171875 6.21875 
Q 5.515625 13.875 5.515625 27.296875 
Q 5.515625 40.765625 12.171875 48.375 
Q 18.84375 56 30.609375 56 
z
" id="DejaVuSans-111"/>
      <path d="M 45.40625 27.984375 
Q 45.40625 37.75 41.375 43.109375 
Q 37.359375 48.484375 30.078125 48.484375 
Q 22.859375 48.484375 18.828125 43.109375 
Q 14.796875 37.75 14.796875 27.984375 
Q 14.796875 18.265625 18.828125 12.890625 
Q 22.859375 7.515625 30.078125 7.515625 
Q 37.359375 7.515625 41.375 12.890625 
Q 45.40625 18.265625 45.40625 27.984375 
z
M 54.390625 6.78125 
Q 54.390625 -7.171875 48.1875 -13.984375 
Q 42 -20.796875 29.203125 -20.796875 
Q 24.46875 -20.796875 20.265625 -20.09375 
Q 16.0625 -19.390625 12.109375 -17.921875 
L 12.109375 -9.1875 
Q 16.0625 -11.328125 19.921875 -12.34375 
Q 23.78125 -13.375 27.78125 -13.375 
Q 36.625 -13.375 41.015625 -8.765625 
Q 45.40625 -4.15625 45.40625 5.171875 
L 45.40625 9.625 
Q 42.625 4.78125 38.28125 2.390625 
Q 33.9375 0 27.875 0 
Q 17.828125 0 11.671875 7.65625 
Q 5.515625 15.328125 5.515625 27.984375 
Q 5.515625 40.671875 11.671875 48.328125 
Q 17.828125 56 27.875 56 
Q 33.9375 56 38.28125 53.609375 
Q 42.625 51.21875 45.40625 46.390625 
L 45.40625 54.6875 
L 54.390625 54.6875 
z
" id="DejaVuSans-103"/>
      <path d="M 12.40625 8.296875 
L 28.515625 8.296875 
L 28.515625 63.921875 
L 10.984375 60.40625 
L 10.984375 69.390625 
L 28.421875 72.90625 
L 38.28125 72.90625 
L 38.28125 8.296875 
L 54.390625 8.296875 
L 54.390625 0 
L 12.40625 0 
z
" id="DejaVuSans-49"/>
      <path d="M 31 75.875 
Q 24.46875 64.65625 21.28125 53.65625 
Q 18.109375 42.671875 18.109375 31.390625 
Q 18.109375 20.125 21.3125 9.0625 
Q 24.515625 -2 31 -13.1875 
L 23.1875 -13.1875 
Q 15.875 -1.703125 12.234375 9.375 
Q 8.59375 20.453125 8.59375 31.390625 
Q 8.59375 42.28125 12.203125 53.3125 
Q 15.828125 64.359375 23.1875 75.875 
z
" id="DejaVuSans-40"/>
      <path d="M 51.125 44 
L 36.921875 44 
L 32.8125 27.6875 
L 47.125 27.6875 
z
M 43.796875 71.78125 
L 38.71875 51.515625 
L 52.984375 51.515625 
L 58.109375 71.78125 
L 65.921875 71.78125 
L 60.890625 51.515625 
L 76.125 51.515625 
L 76.125 44 
L 58.984375 44 
L 54.984375 27.6875 
L 70.515625 27.6875 
L 70.515625 20.21875 
L 53.078125 20.21875 
L 48 0 
L 40.1875 0 
L 45.21875 20.21875 
L 30.90625 20.21875 
L 25.875 0 
L 18.015625 0 
L 23.09375 20.21875 
L 7.71875 20.21875 
L 7.71875 27.6875 
L 24.90625 27.6875 
L 29 44 
L 13.28125 44 
L 13.28125 51.515625 
L 30.90625 51.515625 
L 35.890625 71.78125 
z
" id="DejaVuSans-35"/>
      <path id="DejaVuSans-32"/>
      <path d="M 37.109375 75.984375 
L 37.109375 68.5 
L 28.515625 68.5 
Q 23.6875 68.5 21.796875 66.546875 
Q 19.921875 64.59375 19.921875 59.515625 
L 19.921875 54.6875 
L 34.71875 54.6875 
L 34.71875 47.703125 
L 19.921875 47.703125 
L 19.921875 0 
L 10.890625 0 
L 10.890625 47.703125 
L 2.296875 47.703125 
L 2.296875 54.6875 
L 10.890625 54.6875 
L 10.890625 58.5 
Q 10.890625 67.625 15.140625 71.796875 
Q 19.390625 75.984375 28.609375 75.984375 
z
" id="DejaVuSans-102"/>
      <path d="M 4.890625 31.390625 
L 31.203125 31.390625 
L 31.203125 23.390625 
L 4.890625 23.390625 
z
" id="DejaVuSans-45"/>
      <path d="M 56.203125 29.59375 
L 56.203125 25.203125 
L 14.890625 25.203125 
Q 15.484375 15.921875 20.484375 11.0625 
Q 25.484375 6.203125 34.421875 6.203125 
Q 39.59375 6.203125 44.453125 7.46875 
Q 49.3125 8.734375 54.109375 11.28125 
L 54.109375 2.78125 
Q 49.265625 0.734375 44.1875 -0.34375 
Q 39.109375 -1.421875 33.890625 -1.421875 
Q 20.796875 -1.421875 13.15625 6.1875 
Q 5.515625 13.8125 5.515625 26.8125 
Q 5.515625 40.234375 12.765625 48.109375 
Q 20.015625 56 32.328125 56 
Q 43.359375 56 49.78125 48.890625 
Q 56.203125 41.796875 56.203125 29.59375 
z
M 47.21875 32.234375 
Q 47.125 39.59375 43.09375 43.984375 
Q 39.0625 48.390625 32.421875 48.390625 
Q 24.90625 48.390625 20.390625 44.140625 
Q 15.875 39.890625 15.1875 32.171875 
z
" id="DejaVuSans-101"/>
      <path d="M 2.984375 54.6875 
L 12.5 54.6875 
L 29.59375 8.796875 
L 46.6875 54.6875 
L 56.203125 54.6875 
L 35.6875 0 
L 23.484375 0 
z
" id="DejaVuSans-118"/>
      <path d="M 34.28125 27.484375 
Q 23.390625 27.484375 19.1875 25 
Q 14.984375 22.515625 14.984375 16.5 
Q 14.984375 11.71875 18.140625 8.90625 
Q 21.296875 6.109375 26.703125 6.109375 
Q 34.1875 6.109375 38.703125 11.40625 
Q 43.21875 16.703125 43.21875 25.484375 
L 43.21875 27.484375 
z
M 52.203125 31.203125 
L 52.203125 0 
L 43.21875 0 
L 43.21875 8.296875 
Q 40.140625 3.328125 35.546875 0.953125 
Q 30.953125 -1.421875 24.3125 -1.421875 
Q 15.921875 -1.421875 10.953125 3.296875 
Q 6 8.015625 6 15.921875 
Q 6 25.140625 12.171875 29.828125 
Q 18.359375 34.515625 30.609375 34.515625 
L 43.21875 34.515625 
L 43.21875 35.40625 
Q 43.21875 41.609375 39.140625 45 
Q 35.0625 48.390625 27.6875 48.390625 
Q 23 48.390625 18.546875 47.265625 
Q 14.109375 46.140625 10.015625 43.890625 
L 10.015625 52.203125 
Q 14.9375 54.109375 19.578125 55.046875 
Q 24.21875 56 28.609375 56 
Q 40.484375 56 46.34375 49.84375 
Q 52.203125 43.703125 52.203125 31.203125 
z
" id="DejaVuSans-97"/>
      <path d="M 44.28125 53.078125 
L 44.28125 44.578125 
Q 40.484375 46.53125 36.375 47.5 
Q 32.28125 48.484375 27.875 48.484375 
Q 21.1875 48.484375 17.84375 46.4375 
Q 14.5 44.390625 14.5 40.28125 
Q 14.5 37.15625 16.890625 35.375 
Q 19.28125 33.59375 26.515625 31.984375 
L 29.59375 31.296875 
Q 39.15625 29.25 43.1875 25.515625 
Q 47.21875 21.78125 47.21875 15.09375 
Q 47.21875 7.46875 41.1875 3.015625 
Q 35.15625 -1.421875 24.609375 -1.421875 
Q 20.21875 -1.421875 15.453125 -0.5625 
Q 10.6875 0.296875 5.421875 2 
L 5.421875 11.28125 
Q 10.40625 8.6875 15.234375 7.390625 
Q 20.0625 6.109375 24.8125 6.109375 
Q 31.15625 6.109375 34.5625 8.28125 
Q 37.984375 10.453125 37.984375 14.40625 
Q 37.984375 18.0625 35.515625 20.015625 
Q 33.0625 21.96875 24.703125 23.78125 
L 21.578125 24.515625 
Q 13.234375 26.265625 9.515625 29.90625 
Q 5.8125 33.546875 5.8125 39.890625 
Q 5.8125 47.609375 11.28125 51.796875 
Q 16.75 56 26.8125 56 
Q 31.78125 56 36.171875 55.265625 
Q 40.578125 54.546875 44.28125 53.078125 
z
" id="DejaVuSans-115"/>
      <path d="M 25.390625 72.90625 
L 33.6875 72.90625 
L 8.296875 -9.28125 
L 0 -9.28125 
z
" id="DejaVuSans-47"/>
      <path d="M 45.40625 46.390625 
L 45.40625 75.984375 
L 54.390625 75.984375 
L 54.390625 0 
L 45.40625 0 
L 45.40625 8.203125 
Q 42.578125 3.328125 38.25 0.953125 
Q 33.9375 -1.421875 27.875 -1.421875 
Q 17.96875 -1.421875 11.734375 6.484375 
Q 5.515625 14.40625 5.515625 27.296875 
Q 5.515625 40.1875 11.734375 48.09375 
Q 17.96875 56 27.875 56 
Q 33.9375 56 38.25 53.625 
Q 42.578125 51.265625 45.40625 46.390625 
z
M 14.796875 27.296875 
Q 14.796875 17.390625 18.875 11.75 
Q 22.953125 6.109375 30.078125 6.109375 
Q 37.203125 6.109375 41.296875 11.75 
Q 45.40625 17.390625 45.40625 27.296875 
Q 45.40625 37.203125 41.296875 42.84375 
Q 37.203125 48.484375 30.078125 48.484375 
Q 22.953125 48.484375 18.875 42.84375 
Q 14.796875 37.203125 14.796875 27.296875 
z
" id="DejaVuSans-100"/>
      <path d="M 9.421875 54.6875 
L 18.40625 54.6875 
L 18.40625 0 
L 9.421875 0 
z
M 9.421875 75.984375 
L 18.40625 75.984375 
L 18.40625 64.59375 
L 9.421875 64.59375 
z
" id="DejaVuSans-105"/>
      <path d="M 52 44.1875 
Q 55.375 50.25 60.0625 53.125 
Q 64.75 56 71.09375 56 
Q 79.640625 56 84.28125 50.015625 
Q 88.921875 44.046875 88.921875 33.015625 
L 88.921875 0 
L 79.890625 0 
L 79.890625 32.71875 
Q 79.890625 40.578125 77.09375 44.375 
Q 74.3125 48.1875 68.609375 48.1875 
Q 61.625 48.1875 57.5625 43.546875 
Q 53.515625 38.921875 53.515625 30.90625 
L 53.515625 0 
L 44.484375 0 
L 44.484375 32.71875 
Q 44.484375 40.625 41.703125 44.40625 
Q 38.921875 48.1875 33.109375 48.1875 
Q 26.21875 48.1875 22.15625 43.53125 
Q 18.109375 38.875 18.109375 30.90625 
L 18.109375 0 
L 9.078125 0 
L 9.078125 54.6875 
L 18.109375 54.6875 
L 18.109375 46.1875 
Q 21.1875 51.21875 25.484375 53.609375 
Q 29.78125 56 35.6875 56 
Q 41.65625 56 45.828125 52.96875 
Q 50 49.953125 52 44.1875 
z
" id="DejaVuSans-109"/>
      <path d="M 54.890625 33.015625 
L 54.890625 0 
L 45.90625 0 
L 45.90625 32.71875 
Q 45.90625 40.484375 42.875 44.328125 
Q 39.84375 48.1875 33.796875 48.1875 
Q 26.515625 48.1875 22.3125 43.546875 
Q 18.109375 38.921875 18.109375 30.90625 
L 18.109375 0 
L 9.078125 0 
L 9.078125 54.6875 
L 18.109375 54.6875 
L 18.109375 46.1875 
Q 21.34375 51.125 25.703125 53.5625 
Q 30.078125 56 35.796875 56 
Q 45.21875 56 50.046875 50.171875 
Q 54.890625 44.34375 54.890625 33.015625 
z
" id="DejaVuSans-110"/>
      <path d="M 8.015625 75.875 
L 15.828125 75.875 
Q 23.140625 64.359375 26.78125 53.3125 
Q 30.421875 42.28125 30.421875 31.390625 
Q 30.421875 20.453125 26.78125 9.375 
Q 23.140625 -1.703125 15.828125 -13.1875 
L 8.015625 -13.1875 
Q 14.5 -2 17.703125 9.0625 
Q 20.90625 20.125 20.90625 31.390625 
Q 20.90625 42.671875 17.703125 53.65625 
Q 14.5 64.65625 8.015625 75.875 
z
" id="DejaVuSans-41"/>
     </defs>
     <g transform="translate(77.303219 342.217594)scale(0.17 -0.17)">
      <use xlink:href="#DejaVuSans-108"/>
      <use x="27.783203" xlink:href="#DejaVuSans-111"/>
      <use x="88.964844" xlink:href="#DejaVuSans-103"/>
      <use x="152.441406" xlink:href="#DejaVuSans-49"/>
      <use x="216.064453" xlink:href="#DejaVuSans-48"/>
      <use x="279.6875" xlink:href="#DejaVuSans-40"/>
      <use x="318.701172" xlink:href="#DejaVuSans-35"/>
      <use x="402.490234" xlink:href="#DejaVuSans-32"/>
      <use x="434.277344" xlink:href="#DejaVuSans-102"/>
      <use x="469.404297" xlink:href="#DejaVuSans-45"/>
      <use x="505.488281" xlink:href="#DejaVuSans-101"/>
      <use x="567.011719" xlink:href="#DejaVuSans-118"/>
      <use x="626.191406" xlink:href="#DejaVuSans-97"/>
      <use x="687.470703" xlink:href="#DejaVuSans-108"/>
      <use x="715.253906" xlink:href="#DejaVuSans-115"/>
      <use x="767.353516" xlink:href="#DejaVuSans-32"/>
      <use x="799.140625" xlink:href="#DejaVuSans-47"/>
      <use x="832.832031" xlink:href="#DejaVuSans-32"/>
      <use x="864.619141" xlink:href="#DejaVuSans-100"/>
      <use x="928.095703" xlink:href="#DejaVuSans-105"/>
      <use x="955.878906" xlink:href="#DejaVuSans-109"/>
      <use x="1053.291016" xlink:href="#DejaVuSans-101"/>
      <use x="1114.814453" xlink:href="#DejaVuSans-110"/>
      <use x="1178.193359" xlink:href="#DejaVuSans-115"/>
      <use x="1230.292969" xlink:href="#DejaVuSans-105"/>
      <use x="1258.076172" xlink:href="#DejaVuSans-111"/>
      <use x="1319.257812" xlink:href="#DejaVuSans-110"/>
      <use x="1382.636719" xlink:href="#DejaVuSans-41"/>
     </g>
    </g>
   </g>
   <g id="matplotlib.axis_2">
    <g id="ytick_1">
     <g id="line2d_21">
      <path clip-path="url(#pa8bddddcab)" d="M 57.6 298.944 
L 338.688 298.944 
" style="fill:none;stroke:#b0b0b0;stroke-linecap:square;stroke-width:0.8;"/>
     </g>
     <g id="line2d_22">
      <defs>
       <path d="M 0 0 
L -3.5 0 
" id="m40f50bfc9a" style="stroke:#000000;stroke-width:0.8;"/>
      </defs>
      <g>
       <use style="stroke:#000000;stroke-width:0.8;" x="57.6" xlink:href="#m40f50bfc9a" y="298.944"/>
      </g>
     </g>
     <g id="text_6">
      <!-- 0.0 -->
      <defs>
       <path d="M 10.6875 12.40625 
L 21 12.40625 
L 21 0 
L 10.6875 0 
z
" id="DejaVuSans-46"/>
      </defs>
      <g transform="translate(25.155 305.02275)scale(0.16 -0.16)">
       <use xlink:href="#DejaVuSans-48"/>
       <use x="63.623047" xlink:href="#DejaVuSans-46"/>
       <use x="95.410156" xlink:href="#DejaVuSans-48"/>
      </g>
     </g>
    </g>
    <g id="ytick_2">
     <g id="line2d_23">
      <path clip-path="url(#pa8bddddcab)" d="M 57.6 245.22202 
L 338.688 245.22202 
" style="fill:none;stroke:#b0b0b0;stroke-linecap:square;stroke-width:0.8;"/>
     </g>
     <g id="line2d_24">
      <g>
       <use style="stroke:#000000;stroke-width:0.8;" x="57.6" xlink:href="#m40f50bfc9a" y="245.22202"/>
      </g>
     </g>
     <g id="text_7">
      <!-- 0.2 -->
      <g transform="translate(25.155 251.30077)scale(0.16 -0.16)">
       <use xlink:href="#DejaVuSans-48"/>
       <use x="63.623047" xlink:href="#DejaVuSans-46"/>
       <use x="95.410156" xlink:href="#DejaVuSans-50"/>
      </g>
     </g>
    </g>
    <g id="ytick_3">
     <g id="line2d_25">
      <path clip-path="url(#pa8bddddcab)" d="M 57.6 191.50004 
L 338.688 191.50004 
" style="fill:none;stroke:#b0b0b0;stroke-linecap:square;stroke-width:0.8;"/>
     </g>
     <g id="line2d_26">
      <g>
       <use style="stroke:#000000;stroke-width:0.8;" x="57.6" xlink:href="#m40f50bfc9a" y="191.50004"/>
      </g>
     </g>
     <g id="text_8">
      <!-- 0.4 -->
      <g transform="translate(25.155 197.57879)scale(0.16 -0.16)">
       <use xlink:href="#DejaVuSans-48"/>
       <use x="63.623047" xlink:href="#DejaVuSans-46"/>
       <use x="95.410156" xlink:href="#DejaVuSans-52"/>
      </g>
     </g>
    </g>
    <g id="ytick_4">
     <g id="line2d_27">
      <path clip-path="url(#pa8bddddcab)" d="M 57.6 137.778059 
L 338.688 137.778059 
" style="fill:none;stroke:#b0b0b0;stroke-linecap:square;stroke-width:0.8;"/>
     </g>
     <g id="line2d_28">
      <g>
       <use style="stroke:#000000;stroke-width:0.8;" x="57.6" xlink:href="#m40f50bfc9a" y="137.778059"/>
      </g>
     </g>
     <g id="text_9">
      <!-- 0.6 -->
      <g transform="translate(25.155 143.856809)scale(0.16 -0.16)">
       <use xlink:href="#DejaVuSans-48"/>
       <use x="63.623047" xlink:href="#DejaVuSans-46"/>
       <use x="95.410156" xlink:href="#DejaVuSans-54"/>
      </g>
     </g>
    </g>
    <g id="ytick_5">
     <g id="line2d_29">
      <path clip-path="url(#pa8bddddcab)" d="M 57.6 84.056079 
L 338.688 84.056079 
" style="fill:none;stroke:#b0b0b0;stroke-linecap:square;stroke-width:0.8;"/>
     </g>
     <g id="line2d_30">
      <g>
       <use style="stroke:#000000;stroke-width:0.8;" x="57.6" xlink:href="#m40f50bfc9a" y="84.056079"/>
      </g>
     </g>
     <g id="text_10">
      <!-- 0.8 -->
      <defs>
       <path d="M 31.78125 34.625 
Q 24.75 34.625 20.71875 30.859375 
Q 16.703125 27.09375 16.703125 20.515625 
Q 16.703125 13.921875 20.71875 10.15625 
Q 24.75 6.390625 31.78125 6.390625 
Q 38.8125 6.390625 42.859375 10.171875 
Q 46.921875 13.96875 46.921875 20.515625 
Q 46.921875 27.09375 42.890625 30.859375 
Q 38.875 34.625 31.78125 34.625 
z
M 21.921875 38.8125 
Q 15.578125 40.375 12.03125 44.71875 
Q 8.5 49.078125 8.5 55.328125 
Q 8.5 64.0625 14.71875 69.140625 
Q 20.953125 74.21875 31.78125 74.21875 
Q 42.671875 74.21875 48.875 69.140625 
Q 55.078125 64.0625 55.078125 55.328125 
Q 55.078125 49.078125 51.53125 44.71875 
Q 48 40.375 41.703125 38.8125 
Q 48.828125 37.15625 52.796875 32.3125 
Q 56.78125 27.484375 56.78125 20.515625 
Q 56.78125 9.90625 50.3125 4.234375 
Q 43.84375 -1.421875 31.78125 -1.421875 
Q 19.734375 -1.421875 13.25 4.234375 
Q 6.78125 9.90625 6.78125 20.515625 
Q 6.78125 27.484375 10.78125 32.3125 
Q 14.796875 37.15625 21.921875 38.8125 
z
M 18.3125 54.390625 
Q 18.3125 48.734375 21.84375 45.5625 
Q 25.390625 42.390625 31.78125 42.390625 
Q 38.140625 42.390625 41.71875 45.5625 
Q 45.3125 48.734375 45.3125 54.390625 
Q 45.3125 60.0625 41.71875 63.234375 
Q 38.140625 66.40625 31.78125 66.40625 
Q 25.390625 66.40625 21.84375 63.234375 
Q 18.3125 60.0625 18.3125 54.390625 
z
" id="DejaVuSans-56"/>
      </defs>
      <g transform="translate(25.155 90.134829)scale(0.16 -0.16)">
       <use xlink:href="#DejaVuSans-48"/>
       <use x="63.623047" xlink:href="#DejaVuSans-46"/>
       <use x="95.410156" xlink:href="#DejaVuSans-56"/>
      </g>
     </g>
    </g>
    <g id="ytick_6">
     <g id="line2d_31">
      <path clip-path="url(#pa8bddddcab)" d="M 57.6 30.334099 
L 338.688 30.334099 
" style="fill:none;stroke:#b0b0b0;stroke-linecap:square;stroke-width:0.8;"/>
     </g>
     <g id="line2d_32">
      <g>
       <use style="stroke:#000000;stroke-width:0.8;" x="57.6" xlink:href="#m40f50bfc9a" y="30.334099"/>
      </g>
     </g>
     <g id="text_11">
      <!-- 1.0 -->
      <g transform="translate(25.155 36.412849)scale(0.16 -0.16)">
       <use xlink:href="#DejaVuSans-49"/>
       <use x="63.623047" xlink:href="#DejaVuSans-46"/>
       <use x="95.410156" xlink:href="#DejaVuSans-48"/>
      </g>
     </g>
    </g>
    <g id="text_12">
     <!-- Fraction of function,target pairs -->
     <defs>
      <path d="M 9.8125 72.90625 
L 51.703125 72.90625 
L 51.703125 64.59375 
L 19.671875 64.59375 
L 19.671875 43.109375 
L 48.578125 43.109375 
L 48.578125 34.8125 
L 19.671875 34.8125 
L 19.671875 0 
L 9.8125 0 
z
" id="DejaVuSans-70"/>
      <path d="M 41.109375 46.296875 
Q 39.59375 47.171875 37.8125 47.578125 
Q 36.03125 48 33.890625 48 
Q 26.265625 48 22.1875 43.046875 
Q 18.109375 38.09375 18.109375 28.8125 
L 18.109375 0 
L 9.078125 0 
L 9.078125 54.6875 
L 18.109375 54.6875 
L 18.109375 46.1875 
Q 20.953125 51.171875 25.484375 53.578125 
Q 30.03125 56 36.53125 56 
Q 37.453125 56 38.578125 55.875 
Q 39.703125 55.765625 41.0625 55.515625 
z
" id="DejaVuSans-114"/>
      <path d="M 48.78125 52.59375 
L 48.78125 44.1875 
Q 44.96875 46.296875 41.140625 47.34375 
Q 37.3125 48.390625 33.40625 48.390625 
Q 24.65625 48.390625 19.8125 42.84375 
Q 14.984375 37.3125 14.984375 27.296875 
Q 14.984375 17.28125 19.8125 11.734375 
Q 24.65625 6.203125 33.40625 6.203125 
Q 37.3125 6.203125 41.140625 7.25 
Q 44.96875 8.296875 48.78125 10.40625 
L 48.78125 2.09375 
Q 45.015625 0.34375 40.984375 -0.53125 
Q 36.96875 -1.421875 32.421875 -1.421875 
Q 20.0625 -1.421875 12.78125 6.34375 
Q 5.515625 14.109375 5.515625 27.296875 
Q 5.515625 40.671875 12.859375 48.328125 
Q 20.21875 56 33.015625 56 
Q 37.15625 56 41.109375 55.140625 
Q 45.0625 54.296875 48.78125 52.59375 
z
" id="DejaVuSans-99"/>
      <path d="M 18.3125 70.21875 
L 18.3125 54.6875 
L 36.8125 54.6875 
L 36.8125 47.703125 
L 18.3125 47.703125 
L 18.3125 18.015625 
Q 18.3125 11.328125 20.140625 9.421875 
Q 21.96875 7.515625 27.59375 7.515625 
L 36.8125 7.515625 
L 36.8125 0 
L 27.59375 0 
Q 17.1875 0 13.234375 3.875 
Q 9.28125 7.765625 9.28125 18.015625 
L 9.28125 47.703125 
L 2.6875 47.703125 
L 2.6875 54.6875 
L 9.28125 54.6875 
L 9.28125 70.21875 
z
" id="DejaVuSans-116"/>
      <path d="M 8.5 21.578125 
L 8.5 54.6875 
L 17.484375 54.6875 
L 17.484375 21.921875 
Q 17.484375 14.15625 20.5 10.265625 
Q 23.53125 6.390625 29.59375 6.390625 
Q 36.859375 6.390625 41.078125 11.03125 
Q 45.3125 15.671875 45.3125 23.6875 
L 45.3125 54.6875 
L 54.296875 54.6875 
L 54.296875 0 
L 45.3125 0 
L 45.3125 8.40625 
Q 42.046875 3.421875 37.71875 1 
Q 33.40625 -1.421875 27.6875 -1.421875 
Q 18.265625 -1.421875 13.375 4.4375 
Q 8.5 10.296875 8.5 21.578125 
z
M 31.109375 56 
z
" id="DejaVuSans-117"/>
      <path d="M 11.71875 12.40625 
L 22.015625 12.40625 
L 22.015625 4 
L 14.015625 -11.625 
L 7.71875 -11.625 
L 11.71875 4 
z
" id="DejaVuSans-44"/>
      <path d="M 18.109375 8.203125 
L 18.109375 -20.796875 
L 9.078125 -20.796875 
L 9.078125 54.6875 
L 18.109375 54.6875 
L 18.109375 46.390625 
Q 20.953125 51.265625 25.265625 53.625 
Q 29.59375 56 35.59375 56 
Q 45.5625 56 51.78125 48.09375 
Q 58.015625 40.1875 58.015625 27.296875 
Q 58.015625 14.40625 51.78125 6.484375 
Q 45.5625 -1.421875 35.59375 -1.421875 
Q 29.59375 -1.421875 25.265625 0.953125 
Q 20.953125 3.328125 18.109375 8.203125 
z
M 48.6875 27.296875 
Q 48.6875 37.203125 44.609375 42.84375 
Q 40.53125 48.484375 33.40625 48.484375 
Q 26.265625 48.484375 22.1875 42.84375 
Q 18.109375 37.203125 18.109375 27.296875 
Q 18.109375 17.390625 22.1875 11.75 
Q 26.265625 6.109375 33.40625 6.109375 
Q 40.53125 6.109375 44.609375 11.75 
Q 48.6875 17.390625 48.6875 27.296875 
z
" id="DejaVuSans-112"/>
     </defs>
     <g transform="translate(17.619531 298.435375)rotate(-90)scale(0.17 -0.17)">
      <use xlink:href="#DejaVuSans-70"/>
      <use x="57.410156" xlink:href="#DejaVuSans-114"/>
      <use x="98.523438" xlink:href="#DejaVuSans-97"/>
      <use x="159.802734" xlink:href="#DejaVuSans-99"/>
      <use x="214.783203" xlink:href="#DejaVuSans-116"/>
      <use x="253.992188" xlink:href="#DejaVuSans-105"/>
      <use x="281.775391" xlink:href="#DejaVuSans-111"/>
      <use x="342.957031" xlink:href="#DejaVuSans-110"/>
      <use x="406.335938" xlink:href="#DejaVuSans-32"/>
      <use x="438.123047" xlink:href="#DejaVuSans-111"/>
      <use x="499.304688" xlink:href="#DejaVuSans-102"/>
      <use x="534.509766" xlink:href="#DejaVuSans-32"/>
      <use x="566.296875" xlink:href="#DejaVuSans-102"/>
      <use x="601.501953" xlink:href="#DejaVuSans-117"/>
      <use x="664.880859" xlink:href="#DejaVuSans-110"/>
      <use x="728.259766" xlink:href="#DejaVuSans-99"/>
      <use x="783.240234" xlink:href="#DejaVuSans-116"/>
      <use x="822.449219" xlink:href="#DejaVuSans-105"/>
      <use x="850.232422" xlink:href="#DejaVuSans-111"/>
      <use x="911.414062" xlink:href="#DejaVuSans-110"/>
      <use x="974.792969" xlink:href="#DejaVuSans-44"/>
      <use x="1006.580078" xlink:href="#DejaVuSans-116"/>
      <use x="1045.789062" xlink:href="#DejaVuSans-97"/>
      <use x="1107.068359" xlink:href="#DejaVuSans-114"/>
      <use x="1148.166016" xlink:href="#DejaVuSans-103"/>
      <use x="1211.642578" xlink:href="#DejaVuSans-101"/>
      <use x="1273.166016" xlink:href="#DejaVuSans-116"/>
      <use x="1312.375" xlink:href="#DejaVuSans-32"/>
      <use x="1344.162109" xlink:href="#DejaVuSans-112"/>
      <use x="1407.638672" xlink:href="#DejaVuSans-97"/>
      <use x="1468.917969" xlink:href="#DejaVuSans-105"/>
      <use x="1496.701172" xlink:href="#DejaVuSans-114"/>
      <use x="1537.814453" xlink:href="#DejaVuSans-115"/>
     </g>
    </g>
   </g>
   <g id="line2d_33">
    <defs>
     <path d="M 0 1.5 
C 0.397805 1.5 0.77937 1.341951 1.06066 1.06066 
C 1.341951 0.77937 1.5 0.397805 1.5 0 
C 1.5 -0.397805 1.341951 -0.77937 1.06066 -1.06066 
C 0.77937 -1.341951 0.397805 -1.5 0 -1.5 
C -0.397805 -1.5 -0.77937 -1.341951 -1.06066 -1.06066 
C -1.341951 -0.77937 -1.5 -0.397805 -1.5 0 
C -1.5 0.397805 -1.341951 0.77937 -1.06066 1.06066 
C -0.77937 1.341951 -0.397805 1.5 0 1.5 
z
" id="m38f61fec95" style="stroke:#f5deb3;"/>
    </defs>
    <g>
     <use style="fill:#f5deb3;stroke:#f5deb3;" x="188.142081" xlink:href="#m38f61fec95" y="30.334099"/>
     <use style="fill:#f5deb3;stroke:#f5deb3;" x="188.142081" xlink:href="#m38f61fec95" y="30.334099"/>
    </g>
   </g>
   <g id="line2d_34">
    <defs>
     <path d="M 0 1.5 
C 0.397805 1.5 0.77937 1.341951 1.06066 1.06066 
C 1.341951 0.77937 1.5 0.397805 1.5 0 
C 1.5 -0.397805 1.341951 -0.77937 1.06066 -1.06066 
C 0.77937 -1.341951 0.397805 -1.5 0 -1.5 
C -0.397805 -1.5 -0.77937 -1.341951 -1.06066 -1.06066 
C -1.341951 -0.77937 -1.5 -0.397805 -1.5 0 
C -1.5 0.397805 -1.341951 0.77937 -1.06066 1.06066 
C -0.77937 1.341951 -0.397805 1.5 0 1.5 
z
" id="m7d224ae8d6" style="stroke:#000080;"/>
    </defs>
    <g>
     <use style="fill:#000080;stroke:#000080;" x="182.782685" xlink:href="#m7d224ae8d6" y="30.334099"/>
     <use style="fill:#000080;stroke:#000080;" x="182.782685" xlink:href="#m7d224ae8d6" y="30.334099"/>
    </g>
   </g>
   <g id="line2d_35">
    <path d="M 165.41562 298.944 
L 165.41562 298.417314 
L 165.589458 298.417314 
L 165.589458 297.890628 
L 166.086087 297.890628 
L 166.086087 297.363942 
L 167.50276 297.363942 
L 167.50276 296.837256 
L 167.719528 296.837256 
L 167.719528 296.31057 
L 167.872729 296.31057 
L 167.872729 295.783884 
L 168.075699 295.783884 
L 168.152074 294.730511 
L 168.772135 294.730511 
L 168.772135 294.203825 
L 169.228196 294.203825 
L 169.311945 293.150453 
L 169.51744 293.150453 
L 169.533804 292.097081 
L 169.685327 292.097081 
L 169.794259 291.043709 
L 169.86069 291.043709 
L 169.881615 289.990337 
L 170.155503 289.990337 
L 170.155503 289.463651 
L 170.485191 289.463651 
L 170.566481 287.356906 
L 170.775018 287.356906 
L 170.866174 286.303534 
L 171.101106 286.303534 
L 171.101106 285.776848 
L 171.237077 285.776848 
L 171.271871 284.723476 
L 171.378396 284.723476 
L 171.378396 284.19679 
L 171.667085 284.19679 
L 171.709195 283.143418 
L 171.807473 283.143418 
L 171.807473 282.616732 
L 172.033219 282.616732 
L 172.117433 281.563359 
L 172.147455 281.563359 
L 172.219541 279.983301 
L 172.388202 279.983301 
L 172.470121 278.403243 
L 172.53131 278.403243 
L 172.60004 277.349871 
L 172.747935 277.349871 
L 172.853483 275.243126 
L 172.933251 275.243126 
L 172.992256 274.189754 
L 173.223419 274.189754 
L 173.303236 272.609696 
L 173.339292 272.609696 
L 173.339292 272.08301 
L 173.515065 272.08301 
L 173.60933 270.502952 
L 173.642512 270.502952 
L 173.642512 269.976266 
L 173.795789 269.976266 
L 173.882457 267.869521 
L 173.936131 267.869521 
L 174.003405 266.289463 
L 174.185174 266.289463 
L 174.185174 265.762777 
L 174.348889 265.762777 
L 174.348889 265.236091 
L 174.461295 265.236091 
L 174.537789 263.129347 
L 174.598531 263.129347 
L 174.697184 261.549288 
L 174.731 261.549288 
L 174.781603 259.442544 
L 174.859328 259.442544 
L 174.859852 258.389172 
L 175.021016 258.389172 
L 175.021016 257.862486 
L 175.231047 257.862486 
L 175.296581 254.702369 
L 175.349647 254.702369 
L 175.380188 253.122311 
L 175.633145 253.122311 
L 175.698686 252.068939 
L 175.78089 252.068939 
L 175.820607 250.488881 
L 175.893352 250.488881 
L 176.001168 248.908822 
L 176.017356 248.908822 
L 176.09417 247.328764 
L 176.186678 247.328764 
L 176.262267 245.748706 
L 176.344269 245.748706 
L 176.36543 243.641962 
L 176.504263 243.641962 
L 176.610749 241.535217 
L 176.656187 241.535217 
L 176.734479 240.481845 
L 176.796016 240.481845 
L 176.870883 237.848415 
L 176.946825 237.848415 
L 177.054808 236.795043 
L 177.091731 236.795043 
L 177.091731 236.268356 
L 177.279284 236.268356 
L 177.383874 233.634926 
L 177.400641 233.634926 
L 177.503608 232.581554 
L 177.618947 232.581554 
L 177.70373 229.948123 
L 177.740193 229.948123 
L 177.801387 227.841379 
L 177.87295 227.841379 
L 177.983252 225.734635 
L 178.009516 225.734635 
L 178.077618 224.681263 
L 178.157602 224.681263 
L 178.247581 223.627891 
L 178.285939 223.627891 
L 178.363262 222.047832 
L 178.417185 222.047832 
L 178.513913 218.887716 
L 178.53642 218.887716 
L 178.636288 216.254285 
L 178.655688 216.254285 
L 178.717537 213.620855 
L 178.794229 213.620855 
L 178.869335 211.514111 
L 178.927944 211.514111 
L 179.017759 208.353994 
L 179.041687 208.353994 
L 179.041687 207.827308 
L 179.165749 207.827308 
L 179.240091 205.720564 
L 179.301124 205.720564 
L 179.41166 202.560447 
L 179.420941 202.560447 
L 179.531123 198.346959 
L 179.554357 198.346959 
L 179.655346 195.713528 
L 179.674042 195.713528 
L 179.782247 192.026726 
L 179.8087 192.026726 
L 179.896066 190.446667 
L 179.929793 190.446667 
L 180.037206 186.233179 
L 180.079598 186.233179 
L 180.168326 183.599748 
L 180.209244 183.599748 
L 180.302687 178.332888 
L 180.329512 178.332888 
L 180.418504 174.119399 
L 180.44325 174.119399 
L 180.535829 168.852538 
L 180.575517 168.852538 
L 180.674157 163.058991 
L 180.707163 163.058991 
L 180.806181 157.79213 
L 180.822568 157.79213 
L 180.901676 156.212072 
L 180.939432 156.212072 
L 181.046701 151.471897 
L 181.066902 151.471897 
L 181.160983 147.258409 
L 181.201461 147.258409 
L 181.309308 139.884804 
L 181.322696 139.884804 
L 181.426203 131.984513 
L 181.437346 131.984513 
L 181.542319 124.084221 
L 181.553032 124.084221 
L 181.660151 115.657244 
L 181.668664 115.657244 
L 181.768028 104.596836 
L 181.784592 104.596836 
L 181.890653 90.902998 
L 181.896254 90.902998 
L 182.001293 78.789218 
L 182.016594 78.789218 
L 182.113309 68.782183 
L 182.13093 68.782183 
L 182.238688 59.82852 
L 182.243149 59.82852 
L 182.347148 51.401542 
L 182.367601 51.401542 
L 182.467814 41.394507 
L 182.490495 41.394507 
L 182.591352 33.494215 
L 182.62831 33.494215 
L 182.731045 31.387471 
L 182.767709 31.387471 
L 182.782685 30.334099 
L 338.688 30.334099 
L 338.688 30.334099 
" style="fill:none;stroke:#000080;stroke-linecap:square;stroke-width:1.5;"/>
   </g>
   <g id="line2d_36">
    <defs>
     <path d="M 0 6 
C 1.591219 6 3.117479 5.367802 4.242641 4.242641 
C 5.367802 3.117479 6 1.591219 6 0 
C 6 -1.591219 5.367802 -3.117479 4.242641 -4.242641 
C 3.117479 -5.367802 1.591219 -6 0 -6 
C -1.591219 -6 -3.117479 -5.367802 -4.242641 -4.242641 
C -5.367802 -3.117479 -6 -1.591219 -6 0 
C -6 1.591219 -5.367802 3.117479 -4.242641 4.242641 
C -3.117479 5.367802 -1.591219 6 0 6 
z
" id="m2f5ad33e8c" style="stroke:#000080;stroke-width:1.5;"/>
    </defs>
    <g>
     <use style="fill-opacity:0;stroke:#000080;stroke-width:1.5;" x="181.851043" xlink:href="#m2f5ad33e8c" y="98.276603"/>
     <use style="fill-opacity:0;stroke:#000080;stroke-width:1.5;" x="182.782685" xlink:href="#m2f5ad33e8c" y="30.334099"/>
     <use style="fill-opacity:0;stroke:#000080;stroke-width:1.5;" x="182.782685" xlink:href="#m2f5ad33e8c" y="30.334099"/>
     <use style="fill-opacity:0;stroke:#000080;stroke-width:1.5;" x="338.688" xlink:href="#m2f5ad33e8c" y="30.334099"/>
    </g>
   </g>
   <g id="line2d_37">
    <path style="fill:none;stroke:#000080;stroke-linecap:square;stroke-width:1.5;"/>
    <g/>
   </g>
   <g id="line2d_38">
    <g>
     <use style="fill:#000080;stroke:#000080;" x="183.213128" xlink:href="#m7d224ae8d6" y="30.334099"/>
     <use style="fill:#000080;stroke:#000080;" x="183.213128" xlink:href="#m7d224ae8d6" y="30.334099"/>
    </g>
   </g>
   <g id="line2d_39">
    <path d="M 166.842445 298.944 
L 166.881402 297.890628 
L 167.432308 297.890628 
L 167.432308 297.363942 
L 168.264866 297.363942 
L 168.264866 296.837256 
L 168.501115 296.837256 
L 168.501115 296.31057 
L 168.633408 296.31057 
L 168.633408 295.783884 
L 169.006055 295.783884 
L 169.061673 294.730511 
L 169.143315 294.730511 
L 169.143315 294.203825 
L 169.50391 294.203825 
L 169.562226 293.150453 
L 169.951186 293.150453 
L 170.02532 291.570395 
L 170.192521 291.570395 
L 170.192521 291.043709 
L 170.389985 291.043709 
L 170.464978 289.990337 
L 170.517484 289.990337 
L 170.628035 288.936964 
L 170.733908 288.936964 
L 170.811405 287.356906 
L 170.857608 287.356906 
L 170.923399 286.303534 
L 171.023582 286.303534 
L 171.023582 285.776848 
L 171.202214 285.776848 
L 171.302098 284.19679 
L 171.352146 284.19679 
L 171.392465 283.143418 
L 171.564213 283.143418 
L 171.607834 282.090045 
L 171.692238 282.090045 
L 171.747445 279.983301 
L 171.976438 279.983301 
L 171.976438 279.456615 
L 172.278575 279.456615 
L 172.278575 278.929929 
L 172.420172 278.929929 
L 172.473727 277.876557 
L 172.567203 277.876557 
L 172.654236 276.296499 
L 172.683942 276.296499 
L 172.694624 275.243126 
L 172.799904 275.243126 
L 172.861124 274.189754 
L 172.932081 274.189754 
L 172.97942 273.136382 
L 173.052805 273.136382 
L 173.121251 271.556324 
L 173.17443 271.556324 
L 173.225146 270.502952 
L 173.366142 270.502952 
L 173.420857 269.449579 
L 173.591307 269.449579 
L 173.626773 267.869521 
L 173.808037 267.869521 
L 173.855281 266.816149 
L 173.943312 266.816149 
L 173.943312 266.289463 
L 174.113678 266.289463 
L 174.144277 265.236091 
L 174.253123 265.236091 
L 174.294307 264.182719 
L 174.405989 264.182719 
L 174.45486 263.129347 
L 174.536188 263.129347 
L 174.629884 262.075974 
L 174.673367 262.075974 
L 174.752102 260.495916 
L 174.848844 260.495916 
L 174.93149 257.862486 
L 175.037103 257.862486 
L 175.134344 256.282427 
L 175.151357 256.282427 
L 175.212571 255.229055 
L 175.274081 255.229055 
L 175.274081 254.702369 
L 175.399504 254.702369 
L 175.477058 252.068939 
L 175.707174 252.068939 
L 175.759504 249.435508 
L 175.824573 249.435508 
L 175.900758 248.382136 
L 175.960384 248.382136 
L 176.03304 247.328764 
L 176.075609 247.328764 
L 176.178421 245.22202 
L 176.224514 245.22202 
L 176.297045 243.641962 
L 176.368794 243.641962 
L 176.474197 241.535217 
L 176.600319 241.535217 
L 176.651932 239.955159 
L 176.739184 239.955159 
L 176.820383 238.375101 
L 176.852664 238.375101 
L 176.913787 236.795043 
L 177.069125 236.795043 
L 177.152941 234.688298 
L 177.215769 234.688298 
L 177.25966 233.634926 
L 177.367545 233.634926 
L 177.457168 230.47481 
L 177.48108 230.47481 
L 177.569225 228.368065 
L 177.652017 228.368065 
L 177.652017 227.841379 
L 177.804043 227.841379 
L 177.896739 225.207949 
L 177.917858 225.207949 
L 177.993324 223.627891 
L 178.068901 223.627891 
L 178.170609 220.99446 
L 178.186204 220.99446 
L 178.279911 218.36103 
L 178.322496 218.36103 
L 178.412057 216.254285 
L 178.434695 216.254285 
L 178.518586 212.567483 
L 178.62658 212.567483 
L 178.730553 209.407366 
L 178.757811 209.407366 
L 178.842251 207.827308 
L 178.885982 207.827308 
L 178.899703 206.773936 
L 179.0223 206.773936 
L 179.09972 203.087133 
L 179.14363 203.087133 
L 179.246204 197.820273 
L 179.287715 197.820273 
L 179.349393 194.660156 
L 179.410046 194.660156 
L 179.481748 192.026726 
L 179.542343 192.026726 
L 179.627861 188.866609 
L 179.668873 188.866609 
L 179.768016 187.286551 
L 179.84614 187.286551 
L 179.952894 185.179807 
L 179.984559 185.179807 
L 180.048495 183.599748 
L 180.131572 183.599748 
L 180.222349 180.439632 
L 180.25199 180.439632 
L 180.345587 176.226143 
L 180.375402 176.226143 
L 180.466441 173.066027 
L 180.498325 173.066027 
L 180.578915 165.692422 
L 180.614362 165.692422 
L 180.678662 160.952247 
L 180.732625 160.952247 
L 180.836707 155.1587 
L 180.868665 155.1587 
L 180.971572 150.418525 
L 180.98264 150.418525 
L 181.090745 146.205037 
L 181.102104 146.205037 
L 181.186521 141.991548 
L 181.215297 141.991548 
L 181.316908 135.671315 
L 181.360997 135.671315 
L 181.460329 130.404454 
L 181.483999 130.404454 
L 181.585486 126.190966 
L 181.59724 126.190966 
L 181.687803 121.450791 
L 181.71824 121.450791 
L 181.822244 113.023814 
L 181.852798 113.023814 
L 181.957749 104.596836 
L 181.967163 104.596836 
L 182.07732 95.116487 
L 182.086324 95.116487 
L 182.192637 83.002707 
L 182.20674 83.002707 
L 182.316765 75.102416 
L 182.318132 75.102416 
L 182.423723 64.568694 
L 182.437302 64.568694 
L 182.541165 55.615031 
L 182.551618 55.615031 
L 182.658155 48.241426 
L 182.667199 48.241426 
L 182.774699 41.394507 
L 182.784348 41.394507 
L 182.891131 37.181018 
L 182.91987 37.181018 
L 183.020578 34.020902 
L 183.03829 34.020902 
L 183.143208 30.860785 
L 183.213128 30.860785 
L 183.213128 30.334099 
L 338.688 30.334099 
L 338.688 30.334099 
" style="fill:none;stroke:#000080;stroke-linecap:square;stroke-width:1.5;"/>
   </g>
   <g id="line2d_40">
    <g>
     <use style="fill-opacity:0;stroke:#000080;stroke-width:1.5;" x="180.828523" xlink:href="#m2f5ad33e8c" y="156.212072"/>
     <use style="fill-opacity:0;stroke:#000080;stroke-width:1.5;" x="183.213128" xlink:href="#m2f5ad33e8c" y="30.860785"/>
     <use style="fill-opacity:0;stroke:#000080;stroke-width:1.5;" x="183.213128" xlink:href="#m2f5ad33e8c" y="30.334099"/>
     <use style="fill-opacity:0;stroke:#000080;stroke-width:1.5;" x="338.688" xlink:href="#m2f5ad33e8c" y="30.334099"/>
    </g>
   </g>
   <g id="line2d_41">
    <path style="fill:none;stroke:#000080;stroke-linecap:square;stroke-width:1.5;"/>
    <g/>
   </g>
   <g id="line2d_42">
    <defs>
     <path d="M 0 1.5 
C 0.397805 1.5 0.77937 1.341951 1.06066 1.06066 
C 1.341951 0.77937 1.5 0.397805 1.5 0 
C 1.5 -0.397805 1.341951 -0.77937 1.06066 -1.06066 
C 0.77937 -1.341951 0.397805 -1.5 0 -1.5 
C -0.397805 -1.5 -0.77937 -1.341951 -1.06066 -1.06066 
C -1.341951 -0.77937 -1.5 -0.397805 -1.5 0 
C -1.5 0.397805 -1.341951 0.77937 -1.06066 1.06066 
C -0.77937 1.341951 -0.397805 1.5 0 1.5 
z
" id="m70c513603c" style="stroke:#ff00ff;"/>
    </defs>
    <g>
     <use style="fill:#ff00ff;stroke:#ff00ff;" x="188.602977" xlink:href="#m70c513603c" y="30.334099"/>
     <use style="fill:#ff00ff;stroke:#ff00ff;" x="188.602977" xlink:href="#m70c513603c" y="30.334099"/>
    </g>
   </g>
   <g id="line2d_43">
    <path d="M 168.633408 298.944 
L 168.633408 298.417314 
L 171.483639 298.417314 
L 171.483639 297.890628 
L 171.645677 297.890628 
L 171.645677 297.363942 
L 172.512736 297.363942 
L 172.512736 296.837256 
L 173.05048 296.837256 
L 173.13861 295.783884 
L 173.421426 295.783884 
L 173.421426 295.257197 
L 173.707568 295.257197 
L 173.707568 294.730511 
L 174.114772 294.730511 
L 174.114772 294.203825 
L 174.304047 294.203825 
L 174.304047 293.677139 
L 174.463439 293.677139 
L 174.550594 292.623767 
L 174.66807 292.623767 
L 174.66807 292.097081 
L 174.787918 292.097081 
L 174.870328 291.043709 
L 175.137439 291.043709 
L 175.174531 289.990337 
L 175.457828 289.990337 
L 175.526048 288.936964 
L 175.6762 288.936964 
L 175.692193 287.883592 
L 175.797284 287.883592 
L 175.838945 286.83022 
L 176.138538 286.83022 
L 176.138538 286.303534 
L 176.411991 286.303534 
L 176.456993 285.250162 
L 176.667528 285.250162 
L 176.684526 284.19679 
L 177.118911 284.19679 
L 177.118911 283.670104 
L 177.485588 283.670104 
L 177.592984 281.563359 
L 177.781456 281.563359 
L 177.781456 281.036673 
L 178.01695 281.036673 
L 178.10287 279.456615 
L 178.137206 279.456615 
L 178.187502 278.403243 
L 178.37526 278.403243 
L 178.37526 277.876557 
L 178.7423 277.876557 
L 178.82431 276.823185 
L 178.940803 276.823185 
L 179.026426 274.71644 
L 179.079163 274.71644 
L 179.079163 274.189754 
L 179.248241 274.189754 
L 179.355063 273.136382 
L 179.40399 273.136382 
L 179.40399 272.609696 
L 179.530722 272.609696 
L 179.530722 272.08301 
L 179.717325 272.08301 
L 179.770389 271.029638 
L 179.848502 271.029638 
L 179.901953 268.396207 
L 179.975573 268.396207 
L 180.067163 266.816149 
L 180.17953 266.816149 
L 180.225431 265.236091 
L 180.321085 265.236091 
L 180.369672 263.656033 
L 180.448575 263.656033 
L 180.464541 262.60266 
L 180.574762 262.60266 
L 180.574762 262.075974 
L 180.855666 262.075974 
L 180.924636 260.495916 
L 181.029421 260.495916 
L 181.041188 259.442544 
L 181.142719 259.442544 
L 181.142719 258.915858 
L 181.437346 258.915858 
L 181.491524 257.3358 
L 181.557315 257.3358 
L 181.656603 255.755741 
L 181.683552 255.755741 
L 181.788819 253.648997 
L 181.821541 253.648997 
L 181.83138 252.595625 
L 181.939603 252.595625 
L 182.045422 251.015567 
L 182.154397 251.015567 
L 182.161293 249.435508 
L 182.283248 249.435508 
L 182.283248 248.908822 
L 182.395855 248.908822 
L 182.433229 247.85545 
L 182.539478 247.85545 
L 182.614544 246.802078 
L 182.706002 246.802078 
L 182.706002 246.275392 
L 182.824883 246.275392 
L 182.888816 244.695334 
L 182.961738 244.695334 
L 183.067443 241.535217 
L 183.126581 241.535217 
L 183.208259 239.955159 
L 183.242638 239.955159 
L 183.322163 236.795043 
L 183.374015 236.795043 
L 183.470223 234.688298 
L 183.493234 234.688298 
L 183.59514 232.581554 
L 183.632251 232.581554 
L 183.734296 231.001496 
L 183.752557 231.001496 
L 183.826349 229.948123 
L 183.924775 229.948123 
L 183.924775 229.421437 
L 184.103021 229.421437 
L 184.123672 227.841379 
L 184.317585 227.841379 
L 184.424491 224.681263 
L 184.458067 224.681263 
L 184.566821 221.521146 
L 184.588731 221.521146 
L 184.65549 218.36103 
L 184.706212 218.36103 
L 184.816691 214.147541 
L 184.82557 214.147541 
L 184.914997 210.460738 
L 184.975828 210.460738 
L 185.081119 207.300622 
L 185.143989 207.300622 
L 185.21416 205.193878 
L 185.297014 205.193878 
L 185.405827 202.560447 
L 185.458126 202.560447 
L 185.560553 200.453703 
L 185.580683 200.453703 
L 185.691407 197.293586 
L 185.713074 197.293586 
L 185.817933 192.026726 
L 185.83693 192.026726 
L 185.942159 187.286551 
L 185.961854 187.286551 
L 186.042894 180.439632 
L 186.088917 180.439632 
L 186.176491 176.226143 
L 186.216426 176.226143 
L 186.314507 171.485969 
L 186.348163 171.485969 
L 186.432021 169.379224 
L 186.495591 169.379224 
L 186.580349 166.745794 
L 186.725835 166.745794 
L 186.820836 164.63905 
L 186.841145 164.63905 
L 186.942337 160.952247 
L 186.96172 160.952247 
L 187.063518 154.105328 
L 187.084847 154.105328 
L 187.195749 144.624978 
L 187.204787 144.624978 
L 187.308003 136.198001 
L 187.319292 136.198001 
L 187.428462 120.924105 
L 187.431011 120.924105 
L 187.541259 105.123522 
L 187.544804 105.123522 
L 187.65157 92.483056 
L 187.658615 92.483056 
L 187.767938 77.20916 
L 187.770687 77.20916 
L 187.879561 61.935264 
L 187.887755 61.935264 
L 187.983562 52.454914 
L 188.017107 52.454914 
L 188.123723 41.921193 
L 188.12862 41.921193 
L 188.233585 36.127646 
L 188.284861 36.127646 
L 188.368136 34.020902 
L 188.419982 34.020902 
L 188.507408 31.387471 
L 188.568155 31.387471 
L 188.602977 30.334099 
L 338.688 30.334099 
L 338.688 30.334099 
" style="fill:none;stroke:#ff00ff;stroke-linecap:square;stroke-width:1.5;"/>
   </g>
   <g id="line2d_44">
    <defs>
     <path d="M -0 8.485281 
L 5.091169 0 
L 0 -8.485281 
L -5.091169 -0 
z
" id="m1501ba7cc2" style="stroke:#ff00ff;stroke-linejoin:miter;stroke-width:1.5;"/>
    </defs>
    <g>
     <use style="fill-opacity:0;stroke:#ff00ff;stroke-linejoin:miter;stroke-width:1.5;" x="185.745103" xlink:href="#m1501ba7cc2" y="195.713528"/>
     <use style="fill-opacity:0;stroke:#ff00ff;stroke-linejoin:miter;stroke-width:1.5;" x="188.602977" xlink:href="#m1501ba7cc2" y="30.860785"/>
     <use style="fill-opacity:0;stroke:#ff00ff;stroke-linejoin:miter;stroke-width:1.5;" x="188.602977" xlink:href="#m1501ba7cc2" y="30.334099"/>
     <use style="fill-opacity:0;stroke:#ff00ff;stroke-linejoin:miter;stroke-width:1.5;" x="338.688" xlink:href="#m1501ba7cc2" y="30.334099"/>
    </g>
   </g>
   <g id="line2d_45">
    <path style="fill:none;stroke:#ff00ff;stroke-linecap:square;stroke-width:1.5;"/>
    <g/>
   </g>
   <g id="line2d_46">
    <defs>
     <path d="M 0 1.5 
C 0.397805 1.5 0.77937 1.341951 1.06066 1.06066 
C 1.341951 0.77937 1.5 0.397805 1.5 0 
C 1.5 -0.397805 1.341951 -0.77937 1.06066 -1.06066 
C 0.77937 -1.341951 0.397805 -1.5 0 -1.5 
C -0.397805 -1.5 -0.77937 -1.341951 -1.06066 -1.06066 
C -1.341951 -0.77937 -1.5 -0.397805 -1.5 0 
C -1.5 0.397805 -1.341951 0.77937 -1.06066 1.06066 
C -0.77937 1.341951 -0.397805 1.5 0 1.5 
z
" id="m56b54ac774" style="stroke:#ff0000;"/>
    </defs>
    <g>
     <use style="fill:#ff0000;stroke:#ff0000;" x="184.648019" xlink:href="#m56b54ac774" y="30.334099"/>
     <use style="fill:#ff0000;stroke:#ff0000;" x="184.648019" xlink:href="#m56b54ac774" y="30.334099"/>
    </g>
   </g>
   <g id="line2d_47">
    <path d="M 166.818364 298.944 
L 166.818364 298.417314 
L 167.719528 298.417314 
L 167.719528 297.890628 
L 168.185911 297.890628 
L 168.185911 297.363942 
L 168.67305 297.363942 
L 168.67305 296.837256 
L 168.797375 296.837256 
L 168.797375 296.31057 
L 169.34145 296.31057 
L 169.34145 295.783884 
L 169.734607 295.783884 
L 169.734607 295.257197 
L 170.106024 295.257197 
L 170.155503 293.677139 
L 170.420426 293.677139 
L 170.485865 292.097081 
L 170.644724 292.097081 
L 170.709328 291.043709 
L 171.036635 291.043709 
L 171.036635 290.517023 
L 171.449266 290.517023 
L 171.470916 289.463651 
L 171.613516 289.463651 
L 171.613516 288.936964 
L 171.956025 288.936964 
L 171.956025 288.410278 
L 172.294972 288.410278 
L 172.301041 287.356906 
L 172.446669 287.356906 
L 172.446669 286.83022 
L 172.603619 286.83022 
L 172.681567 285.776848 
L 172.796366 285.776848 
L 172.796366 285.250162 
L 173.08242 285.250162 
L 173.190583 283.670104 
L 173.279157 283.670104 
L 173.370708 281.563359 
L 173.517329 281.563359 
L 173.517329 281.036673 
L 173.666095 281.036673 
L 173.666095 280.509987 
L 173.857501 280.509987 
L 173.880795 279.456615 
L 174.324591 279.456615 
L 174.359677 278.403243 
L 174.517495 278.403243 
L 174.524974 277.349871 
L 174.731528 277.349871 
L 174.823134 276.296499 
L 175.039177 276.296499 
L 175.067161 275.243126 
L 175.227969 275.243126 
L 175.318031 274.189754 
L 175.367469 274.189754 
L 175.380697 273.136382 
L 175.534116 273.136382 
L 175.622615 271.556324 
L 175.696689 271.556324 
L 175.696689 271.029638 
L 175.821103 271.029638 
L 175.821103 270.502952 
L 175.939218 270.502952 
L 176.049199 268.396207 
L 176.053114 268.396207 
L 176.106858 266.816149 
L 176.260817 266.816149 
L 176.310068 265.236091 
L 176.449819 265.236091 
L 176.520468 263.656033 
L 176.572318 263.656033 
L 176.572318 263.129347 
L 176.686885 263.129347 
L 176.77631 261.022602 
L 176.83349 261.022602 
L 176.845652 259.96923 
L 177.131795 259.96923 
L 177.204779 257.862486 
L 177.275178 257.862486 
L 177.293873 256.809114 
L 177.411508 256.809114 
L 177.505859 255.229055 
L 177.585815 255.229055 
L 177.65291 254.175683 
L 177.709071 254.175683 
L 177.792531 252.068939 
L 177.912141 252.068939 
L 177.966597 249.962195 
L 178.078053 249.962195 
L 178.168008 248.908822 
L 178.294548 248.908822 
L 178.394524 246.275392 
L 178.481588 246.275392 
L 178.547874 244.168648 
L 178.658216 244.168648 
L 178.763258 242.061903 
L 178.781261 242.061903 
L 178.85309 240.481845 
L 178.923793 240.481845 
L 178.930433 239.428473 
L 179.05611 239.428473 
L 179.095199 238.375101 
L 179.177616 238.375101 
L 179.288528 235.74167 
L 179.294218 235.74167 
L 179.362755 234.688298 
L 179.471293 234.688298 
L 179.55796 232.054868 
L 179.63902 232.054868 
L 179.63902 231.528182 
L 179.769203 231.528182 
L 179.852438 228.894751 
L 179.898421 228.894751 
L 179.99393 227.841379 
L 180.095905 227.841379 
L 180.100949 226.261321 
L 180.243141 226.261321 
L 180.302687 225.207949 
L 180.364705 225.207949 
L 180.434878 223.101204 
L 180.504392 223.101204 
L 180.614739 219.941088 
L 180.688042 219.941088 
L 180.783438 216.254285 
L 180.85195 216.254285 
L 180.948674 212.040797 
L 180.983747 212.040797 
L 181.09441 209.934052 
L 181.118215 209.934052 
L 181.205103 206.24725 
L 181.243299 206.24725 
L 181.338966 199.927017 
L 181.360997 199.927017 
L 181.45315 195.713528 
L 181.482565 195.713528 
L 181.583704 189.393295 
L 181.605072 189.393295 
L 181.71435 186.233179 
L 181.721068 186.233179 
L 181.806067 182.01969 
L 181.859464 182.01969 
L 181.965072 177.806202 
L 182.024587 177.806202 
L 182.112963 173.592713 
L 182.165775 173.592713 
L 182.263039 169.90591 
L 182.27777 169.90591 
L 182.387349 164.63905 
L 182.401976 164.63905 
L 182.48305 160.425561 
L 182.515172 160.425561 
L 182.616223 156.212072 
L 182.633008 156.212072 
L 182.734715 150.945211 
L 182.746386 150.945211 
L 182.855057 145.151665 
L 182.859695 145.151665 
L 182.965689 132.511199 
L 182.975233 132.511199 
L 183.086088 122.504163 
L 183.093606 122.504163 
L 183.201765 109.863697 
L 183.210207 109.863697 
L 183.315389 98.803289 
L 183.334415 98.803289 
L 183.43661 88.269568 
L 183.4459 88.269568 
L 183.543625 78.789218 
L 183.560495 78.789218 
L 183.665173 73.522358 
L 183.680031 73.522358 
L 183.782425 66.148752 
L 183.794986 66.148752 
L 183.89983 57.721775 
L 183.906693 57.721775 
L 184.0118 48.768112 
L 184.026366 48.768112 
L 184.13014 45.081309 
L 184.167053 45.081309 
L 184.275799 40.341135 
L 184.300517 40.341135 
L 184.404799 37.181018 
L 184.421463 37.181018 
L 184.519306 33.494215 
L 184.540373 33.494215 
L 184.648019 30.334099 
L 338.688 30.334099 
L 338.688 30.334099 
" style="fill:none;stroke:#ff0000;stroke-linecap:square;stroke-width:1.5;"/>
   </g>
   <g id="line2d_48">
    <defs>
     <path d="M 0 -6 
L -5.196152 -3 
L -5.196152 3 
L -0 6 
L 5.196152 3 
L 5.196152 -3 
z
" id="mc2bd7a9f32" style="stroke:#ff0000;stroke-linejoin:miter;stroke-width:1.5;"/>
    </defs>
    <g>
     <use style="fill-opacity:0;stroke:#ff0000;stroke-linejoin:miter;stroke-width:1.5;" x="183.560495" xlink:href="#mc2bd7a9f32" y="78.789218"/>
     <use style="fill-opacity:0;stroke:#ff0000;stroke-linejoin:miter;stroke-width:1.5;" x="184.648019" xlink:href="#mc2bd7a9f32" y="30.334099"/>
     <use style="fill-opacity:0;stroke:#ff0000;stroke-linejoin:miter;stroke-width:1.5;" x="184.648019" xlink:href="#mc2bd7a9f32" y="30.334099"/>
     <use style="fill-opacity:0;stroke:#ff0000;stroke-linejoin:miter;stroke-width:1.5;" x="338.688" xlink:href="#mc2bd7a9f32" y="30.334099"/>
    </g>
   </g>
   <g id="line2d_49">
    <path style="fill:none;stroke:#ff0000;stroke-linecap:square;stroke-width:1.5;"/>
    <g/>
   </g>
   <g id="line2d_50">
    <defs>
     <path d="M 0 1.5 
C 0.397805 1.5 0.77937 1.341951 1.06066 1.06066 
C 1.341951 0.77937 1.5 0.397805 1.5 0 
C 1.5 -0.397805 1.341951 -0.77937 1.06066 -1.06066 
C 0.77937 -1.341951 0.397805 -1.5 0 -1.5 
C -0.397805 -1.5 -0.77937 -1.341951 -1.06066 -1.06066 
C -1.341951 -0.77937 -1.5 -0.397805 -1.5 0 
C -1.5 0.397805 -1.341951 0.77937 -1.06066 1.06066 
C -0.77937 1.341951 -0.397805 1.5 0 1.5 
z
" id="m97584d2d1b" style="stroke:#ff7500;"/>
    </defs>
    <g>
     <use style="fill:#ff7500;stroke:#ff7500;" x="183.746577" xlink:href="#m97584d2d1b" y="30.334099"/>
     <use style="fill:#ff7500;stroke:#ff7500;" x="183.746577" xlink:href="#m97584d2d1b" y="30.334099"/>
    </g>
   </g>
   <g id="line2d_51">
    <path d="M 166.984591 298.944 
L 166.984591 298.417314 
L 167.517934 298.417314 
L 167.517934 297.890628 
L 167.953111 297.890628 
L 168.001318 296.837256 
L 168.173614 296.837256 
L 168.173614 296.31057 
L 168.379212 296.31057 
L 168.452002 294.730511 
L 168.753553 294.730511 
L 168.799601 293.677139 
L 169.025834 293.677139 
L 169.025834 293.150453 
L 169.499635 293.150453 
L 169.499635 292.623767 
L 169.647216 292.623767 
L 169.747959 291.043709 
L 170.394724 291.043709 
L 170.408932 289.990337 
L 170.514795 289.990337 
L 170.5638 288.936964 
L 170.771706 288.936964 
L 170.793552 287.883592 
L 171.041854 287.883592 
L 171.041854 287.356906 
L 171.214489 287.356906 
L 171.214489 286.83022 
L 171.353428 286.83022 
L 171.380955 285.776848 
L 171.509057 285.776848 
L 171.599624 284.19679 
L 171.890917 284.19679 
L 171.890917 283.670104 
L 172.011022 283.670104 
L 172.115593 282.616732 
L 172.149291 282.616732 
L 172.149291 282.090045 
L 172.426198 282.090045 
L 172.426198 281.563359 
L 172.564215 281.563359 
L 172.564215 281.036673 
L 172.71893 281.036673 
L 172.825242 279.456615 
L 172.998087 279.456615 
L 173.085321 278.403243 
L 173.276862 278.403243 
L 173.363858 276.823185 
L 173.475968 276.823185 
L 173.475968 276.296499 
L 173.709247 276.296499 
L 173.781859 274.189754 
L 173.850285 274.189754 
L 173.861386 272.609696 
L 173.961527 272.609696 
L 174.003405 271.556324 
L 174.077546 271.556324 
L 174.144823 269.976266 
L 174.211298 269.976266 
L 174.230865 268.922893 
L 174.367224 268.922893 
L 174.462367 267.342835 
L 174.498781 267.342835 
L 174.593743 265.236091 
L 174.655881 265.236091 
L 174.655881 264.709405 
L 174.805272 264.709405 
L 174.869805 263.129347 
L 175.002316 263.129347 
L 175.006993 262.075974 
L 175.262308 262.075974 
L 175.365942 260.495916 
L 175.375611 260.495916 
L 175.440605 257.862486 
L 175.594505 257.862486 
L 175.64467 256.809114 
L 175.775421 256.809114 
L 175.867159 255.229055 
L 175.919505 255.229055 
L 175.968254 253.648997 
L 176.043325 253.648997 
L 176.055071 252.595625 
L 176.251627 252.595625 
L 176.357738 249.962195 
L 176.363507 249.962195 
L 176.456993 248.382136 
L 176.495678 248.382136 
L 176.568043 246.275392 
L 176.633009 246.275392 
L 176.691603 244.168648 
L 176.767858 244.168648 
L 176.869949 241.535217 
L 176.958908 241.535217 
L 177.069587 239.955159 
L 177.156157 239.955159 
L 177.214396 237.321729 
L 177.349837 237.321729 
L 177.355288 236.268356 
L 177.468451 236.268356 
L 177.488292 235.214984 
L 177.600598 235.214984 
L 177.684133 233.634926 
L 177.773921 233.634926 
L 177.773921 233.10824 
L 177.888813 233.10824 
L 177.989384 231.001496 
L 178.029625 231.001496 
L 178.137641 229.421437 
L 178.20957 229.421437 
L 178.249306 227.841379 
L 178.329798 227.841379 
L 178.403934 225.207949 
L 178.456026 225.207949 
L 178.563983 222.047832 
L 178.591926 222.047832 
L 178.665801 219.941088 
L 178.709556 219.941088 
L 178.812618 215.727599 
L 178.836412 215.727599 
L 178.886814 213.094169 
L 178.95158 213.094169 
L 179.028902 210.987425 
L 179.091911 210.987425 
L 179.184569 207.827308 
L 179.214801 207.827308 
L 179.286089 206.773936 
L 179.39874 206.773936 
L 179.501836 203.613819 
L 179.527916 203.613819 
L 179.575561 202.560447 
L 179.690733 202.560447 
L 179.779481 201.507075 
L 179.80436 201.507075 
L 179.911761 197.820273 
L 179.921171 197.820273 
L 180.010707 195.186842 
L 180.115298 195.186842 
L 180.222349 193.080098 
L 180.242372 193.080098 
L 180.334872 188.339923 
L 180.423075 188.339923 
L 180.532801 184.126434 
L 180.574007 184.126434 
L 180.67716 178.332888 
L 180.693668 178.332888 
L 180.799473 176.226143 
L 180.818473 176.226143 
L 180.928336 170.959282 
L 180.945347 170.959282 
L 181.05405 166.219108 
L 181.064699 166.219108 
L 181.159523 161.478933 
L 181.183604 161.478933 
L 181.273796 157.79213 
L 181.321611 157.79213 
L 181.420808 151.998584 
L 181.450637 151.998584 
L 181.549819 147.785095 
L 181.562311 147.785095 
L 181.670437 145.151665 
L 181.684615 145.151665 
L 181.789171 140.41149 
L 181.805011 140.41149 
L 181.9099 133.564571 
L 181.928077 133.564571 
L 182.036744 124.084221 
L 182.044728 124.084221 
L 182.153363 115.657244 
L 182.162328 115.657244 
L 182.272975 101.43672 
L 182.275373 101.43672 
L 182.382244 90.376312 
L 182.391773 90.376312 
L 182.488803 80.369277 
L 182.503007 80.369277 
L 182.606144 67.728811 
L 182.614208 67.728811 
L 182.724704 60.355206 
L 182.741052 60.355206 
L 182.849756 55.088345 
L 182.884187 55.088345 
L 182.994963 50.874856 
L 182.996277 50.874856 
L 183.103733 46.134681 
L 183.134081 46.134681 
L 183.244582 41.394507 
L 183.256889 41.394507 
L 183.335382 36.654332 
L 183.398759 36.654332 
L 183.498344 33.494215 
L 183.55795 33.494215 
L 183.63035 31.387471 
L 183.703083 31.387471 
L 183.746577 30.334099 
L 338.688 30.334099 
L 338.688 30.334099 
" style="fill:none;stroke:#ff7500;stroke-linecap:square;stroke-width:1.5;"/>
   </g>
   <g id="line2d_52">
    <defs>
     <path d="M 0 -6 
L -1.347084 -1.854102 
L -5.706339 -1.854102 
L -2.179628 0.708204 
L -3.526712 4.854102 
L -0 2.291796 
L 3.526712 4.854102 
L 2.179628 0.708204 
L 5.706339 -1.854102 
L 1.347084 -1.854102 
z
" id="m0c2f40ba8a" style="stroke:#ff7500;stroke-linejoin:bevel;stroke-width:1.5;"/>
    </defs>
    <g>
     <use style="fill-opacity:0;stroke:#ff7500;stroke-linejoin:bevel;stroke-width:1.5;" x="182.360104" xlink:href="#m0c2f40ba8a" y="93.536429"/>
     <use style="fill-opacity:0;stroke:#ff7500;stroke-linejoin:bevel;stroke-width:1.5;" x="183.746577" xlink:href="#m0c2f40ba8a" y="30.334099"/>
     <use style="fill-opacity:0;stroke:#ff7500;stroke-linejoin:bevel;stroke-width:1.5;" x="183.746577" xlink:href="#m0c2f40ba8a" y="30.334099"/>
     <use style="fill-opacity:0;stroke:#ff7500;stroke-linejoin:bevel;stroke-width:1.5;" x="338.688" xlink:href="#m0c2f40ba8a" y="30.334099"/>
    </g>
   </g>
   <g id="line2d_53">
    <path style="fill:none;stroke:#ff7500;stroke-linecap:square;stroke-width:1.5;"/>
    <g/>
   </g>
   <g id="line2d_54">
    <defs>
     <path d="M 0 1.5 
C 0.397805 1.5 0.77937 1.341951 1.06066 1.06066 
C 1.341951 0.77937 1.5 0.397805 1.5 0 
C 1.5 -0.397805 1.341951 -0.77937 1.06066 -1.06066 
C 0.77937 -1.341951 0.397805 -1.5 0 -1.5 
C -0.397805 -1.5 -0.77937 -1.341951 -1.06066 -1.06066 
C -1.341951 -0.77937 -1.5 -0.397805 -1.5 0 
C -1.5 0.397805 -1.341951 0.77937 -1.06066 1.06066 
C -0.77937 1.341951 -0.397805 1.5 0 1.5 
z
" id="md910341b3f" style="stroke:#9acd32;"/>
    </defs>
    <g>
     <use style="fill:#9acd32;stroke:#9acd32;" x="183.156889" xlink:href="#md910341b3f" y="30.334099"/>
     <use style="fill:#9acd32;stroke:#9acd32;" x="183.156889" xlink:href="#md910341b3f" y="30.334099"/>
    </g>
   </g>
   <g id="line2d_55">
    <path d="M 164.738949 298.944 
L 164.738949 298.417314 
L 165.622417 298.417314 
L 165.622417 297.890628 
L 165.913652 297.890628 
L 165.913652 297.363942 
L 166.875605 297.363942 
L 166.875605 296.837256 
L 167.04047 296.837256 
L 167.062608 295.783884 
L 168.019943 295.783884 
L 168.019943 295.257197 
L 168.282447 295.257197 
L 168.282447 294.730511 
L 168.666325 294.730511 
L 168.775107 293.150453 
L 169.311945 293.150453 
L 169.390992 292.097081 
L 169.524556 292.097081 
L 169.524556 291.570395 
L 169.728982 291.570395 
L 169.728982 291.043709 
L 170.042596 291.043709 
L 170.090189 289.990337 
L 170.254042 289.990337 
L 170.337772 288.410278 
L 170.491924 288.410278 
L 170.587246 287.356906 
L 170.627367 287.356906 
L 170.627367 286.83022 
L 170.845079 286.83022 
L 170.845079 286.303534 
L 170.979127 286.303534 
L 170.979127 285.776848 
L 171.145899 285.776848 
L 171.232562 284.723476 
L 171.414825 284.723476 
L 171.524924 282.090045 
L 171.646307 282.090045 
L 171.646307 281.563359 
L 171.764974 281.563359 
L 171.764974 281.036673 
L 171.924432 281.036673 
L 172.023357 279.983301 
L 172.071381 279.983301 
L 172.136432 277.876557 
L 172.243909 277.876557 
L 172.243909 277.349871 
L 172.370683 277.349871 
L 172.370683 276.823185 
L 172.491142 276.823185 
L 172.582734 275.769812 
L 172.689284 275.769812 
L 172.711227 274.71644 
L 172.801084 274.71644 
L 172.801084 274.189754 
L 172.965407 274.189754 
L 173.009743 273.136382 
L 173.147283 273.136382 
L 173.241827 272.08301 
L 173.37242 272.08301 
L 173.47767 270.502952 
L 173.600321 270.502952 
L 173.664411 268.922893 
L 173.801914 268.922893 
L 173.808037 267.869521 
L 173.943312 267.869521 
L 174.034198 266.289463 
L 174.116959 266.289463 
L 174.227062 265.236091 
L 174.272644 265.236091 
L 174.369919 264.182719 
L 174.388233 264.182719 
L 174.388233 263.656033 
L 174.571916 263.656033 
L 174.571916 263.129347 
L 174.776865 263.129347 
L 174.776865 262.60266 
L 174.893877 262.60266 
L 174.900675 261.549288 
L 175.015824 261.549288 
L 175.015824 261.022602 
L 175.262308 261.022602 
L 175.355759 259.96923 
L 175.394423 259.96923 
L 175.429451 258.389172 
L 175.5321 258.389172 
L 175.5321 257.862486 
L 175.833 257.862486 
L 175.938726 255.229055 
L 175.972679 255.229055 
L 176.071699 253.122311 
L 176.168216 253.122311 
L 176.272418 251.015567 
L 176.299457 251.015567 
L 176.326936 249.962195 
L 176.413908 249.962195 
L 176.480883 248.382136 
L 176.625434 248.382136 
L 176.625434 247.85545 
L 176.769737 247.85545 
L 176.864345 245.22202 
L 176.935199 245.22202 
L 176.983976 244.168648 
L 177.068202 244.168648 
L 177.16626 241.008531 
L 177.181402 241.008531 
L 177.279284 238.901787 
L 177.375711 238.901787 
L 177.425083 237.848415 
L 177.543188 237.848415 
L 177.643085 235.214984 
L 177.680121 235.214984 
L 177.718858 233.10824 
L 177.837205 233.10824 
L 177.917858 232.054868 
L 178.013889 232.054868 
L 178.062798 231.001496 
L 178.133732 231.001496 
L 178.210867 229.421437 
L 178.263107 229.421437 
L 178.373118 227.314693 
L 178.527505 227.314693 
L 178.607994 224.681263 
L 178.694001 224.681263 
L 178.800918 220.467774 
L 178.811783 220.467774 
L 178.903028 217.834344 
L 178.944534 217.834344 
L 179.037564 214.147541 
L 179.077929 214.147541 
L 179.17598 211.514111 
L 179.193154 211.514111 
L 179.301937 208.353994 
L 179.363969 208.353994 
L 179.466465 204.667192 
L 179.499426 204.667192 
L 179.552355 202.560447 
L 179.631847 202.560447 
L 179.734371 198.873645 
L 179.747045 198.873645 
L 179.855586 196.240214 
L 179.895281 196.240214 
L 180.001735 193.606784 
L 180.017725 193.606784 
L 180.120725 189.919981 
L 180.133896 189.919981 
L 180.233903 186.759865 
L 180.262756 186.759865 
L 180.359354 183.599748 
L 180.382656 183.599748 
L 180.463401 179.38626 
L 180.50894 179.38626 
L 180.618882 174.119399 
L 180.621518 174.119399 
L 180.732251 171.485969 
L 180.736741 171.485969 
L 180.828151 167.799166 
L 180.853808 167.799166 
L 180.96345 159.898875 
L 180.994439 159.898875 
L 181.096975 154.105328 
L 181.138699 154.105328 
L 181.248022 148.838467 
L 181.271619 148.838467 
L 181.367853 143.571606 
L 181.38372 143.571606 
L 181.47432 138.831432 
L 181.503341 138.831432 
L 181.614323 128.29771 
L 181.619303 128.29771 
L 181.729552 123.030849 
L 181.730965 123.030849 
L 181.838405 110.390383 
L 181.846481 110.390383 
L 181.957051 97.223231 
L 181.958795 97.223231 
L 182.068658 86.68951 
L 182.07732 86.68951 
L 182.171633 75.629102 
L 182.198142 75.629102 
L 182.283933 66.675439 
L 182.310272 66.675439 
L 182.407415 57.195089 
L 182.424403 57.195089 
L 182.531042 51.928228 
L 182.537116 51.928228 
L 182.647765 46.661368 
L 182.654804 46.661368 
L 182.750386 42.447879 
L 182.769373 42.447879 
L 182.873931 36.654332 
L 182.882202 36.654332 
L 182.979181 33.494215 
L 183.011387 33.494215 
L 183.120056 30.860785 
L 183.156889 30.860785 
L 183.156889 30.334099 
L 338.688 30.334099 
L 338.688 30.334099 
" style="fill:none;stroke:#9acd32;stroke-linecap:square;stroke-width:1.5;"/>
   </g>
   <g id="line2d_56">
    <defs>
     <path d="M 0 -6 
L -6 6 
L 6 6 
z
" id="mc6064037df" style="stroke:#9acd32;stroke-linejoin:miter;stroke-width:1.5;"/>
    </defs>
    <g>
     <use style="fill-opacity:0;stroke:#9acd32;stroke-linejoin:miter;stroke-width:1.5;" x="180.387237" xlink:href="#mc6064037df" y="183.073062"/>
     <use style="fill-opacity:0;stroke:#9acd32;stroke-linejoin:miter;stroke-width:1.5;" x="183.156889" xlink:href="#mc6064037df" y="30.860785"/>
     <use style="fill-opacity:0;stroke:#9acd32;stroke-linejoin:miter;stroke-width:1.5;" x="183.156889" xlink:href="#mc6064037df" y="30.334099"/>
     <use style="fill-opacity:0;stroke:#9acd32;stroke-linejoin:miter;stroke-width:1.5;" x="338.688" xlink:href="#mc6064037df" y="30.334099"/>
    </g>
   </g>
   <g id="line2d_57">
    <path style="fill:none;stroke:#9acd32;stroke-linecap:square;stroke-width:1.5;"/>
    <g/>
   </g>
   <g id="line2d_58">
    <path d="M 338.688 30.334099 
L 369.60768 293.571802 
" style="fill:none;stroke:#ff00ff;stroke-linecap:square;stroke-width:1.5;"/>
    <g>
     <use style="fill-opacity:0;stroke:#ff00ff;stroke-linejoin:miter;stroke-width:1.5;" x="338.688" xlink:href="#m1501ba7cc2" y="30.334099"/>
     <use style="fill-opacity:0;stroke:#ff00ff;stroke-linejoin:miter;stroke-width:1.5;" x="369.60768" xlink:href="#m1501ba7cc2" y="293.571802"/>
    </g>
   </g>
   <g id="line2d_59">
    <path d="M 338.688 30.334099 
L 369.60768 207.616634 
" style="fill:none;stroke:#ff0000;stroke-linecap:square;stroke-width:1.5;"/>
    <g>
     <use style="fill-opacity:0;stroke:#ff0000;stroke-linejoin:miter;stroke-width:1.5;" x="338.688" xlink:href="#mc2bd7a9f32" y="30.334099"/>
     <use style="fill-opacity:0;stroke:#ff0000;stroke-linejoin:miter;stroke-width:1.5;" x="369.60768" xlink:href="#mc2bd7a9f32" y="207.616634"/>
    </g>
   </g>
   <g id="line2d_60">
    <path d="M 338.688 30.334099 
L 369.60768 164.63905 
" style="fill:none;stroke:#ff7500;stroke-linecap:square;stroke-width:1.5;"/>
    <g>
     <use style="fill-opacity:0;stroke:#ff7500;stroke-linejoin:bevel;stroke-width:1.5;" x="338.688" xlink:href="#m0c2f40ba8a" y="30.334099"/>
     <use style="fill-opacity:0;stroke:#ff7500;stroke-linejoin:bevel;stroke-width:1.5;" x="369.60768" xlink:href="#m0c2f40ba8a" y="164.63905"/>
    </g>
   </g>
   <g id="line2d_61">
    <path d="M 338.688 30.334099 
L 369.60768 121.661465 
" style="fill:none;stroke:#000080;stroke-linecap:square;stroke-width:1.5;"/>
    <g>
     <use style="fill-opacity:0;stroke:#000080;stroke-width:1.5;" x="338.688" xlink:href="#m2f5ad33e8c" y="30.334099"/>
     <use style="fill-opacity:0;stroke:#000080;stroke-width:1.5;" x="369.60768" xlink:href="#m2f5ad33e8c" y="121.661465"/>
    </g>
   </g>
   <g id="line2d_62">
    <path d="M 338.688 30.334099 
L 369.60768 78.683881 
" style="fill:none;stroke:#9acd32;stroke-linecap:square;stroke-width:1.5;"/>
    <g>
     <use style="fill-opacity:0;stroke:#9acd32;stroke-linejoin:miter;stroke-width:1.5;" x="338.688" xlink:href="#mc6064037df" y="30.334099"/>
     <use style="fill-opacity:0;stroke:#9acd32;stroke-linejoin:miter;stroke-width:1.5;" x="369.60768" xlink:href="#mc6064037df" y="78.683881"/>
    </g>
   </g>
   <g id="line2d_63">
    <path d="M 338.688 30.334099 
L 369.60768 35.706297 
" style="fill:none;stroke:#000080;stroke-linecap:square;stroke-width:1.5;"/>
    <g>
     <use style="fill-opacity:0;stroke:#000080;stroke-width:1.5;" x="338.688" xlink:href="#m2f5ad33e8c" y="30.334099"/>
     <use style="fill-opacity:0;stroke:#000080;stroke-width:1.5;" x="369.60768" xlink:href="#m2f5ad33e8c" y="35.706297"/>
    </g>
   </g>
   <g id="line2d_64">
    <path d="M 338.688 298.944 
L 338.688 30.334099 
" style="fill:none;stroke:#000000;stroke-linecap:square;stroke-width:1.5;"/>
   </g>
   <g id="patch_3">
    <path d="M 57.6 298.944 
L 57.6 27.648 
" style="fill:none;stroke:#000000;stroke-linecap:square;stroke-linejoin:miter;stroke-width:0.8;"/>
   </g>
   <g id="patch_4">
    <path d="M 338.688 298.944 
L 338.688 27.648 
" style="fill:none;stroke:#000000;stroke-linecap:square;stroke-linejoin:miter;stroke-width:0.8;"/>
   </g>
   <g id="patch_5">
    <path d="M 57.6 298.944 
L 338.688 298.944 
" style="fill:none;stroke:#000000;stroke-linecap:square;stroke-linejoin:miter;stroke-width:0.8;"/>
   </g>
   <g id="patch_6">
    <path d="M 57.6 27.648 
L 338.688 27.648 
" style="fill:none;stroke:#000000;stroke-linecap:square;stroke-linejoin:miter;stroke-width:0.8;"/>
   </g>
   <g id="text_13">
    <!-- 400-2e4 -->
    <g transform="translate(375.22944 298.262739)scale(0.17 -0.17)">
     <use xlink:href="#DejaVuSans-52"/>
     <use x="63.623047" xlink:href="#DejaVuSans-48"/>
     <use x="127.246094" xlink:href="#DejaVuSans-48"/>
     <use x="190.869141" xlink:href="#DejaVuSans-45"/>
     <use x="226.953125" xlink:href="#DejaVuSans-50"/>
     <use x="290.576172" xlink:href="#DejaVuSans-101"/>
     <use x="352.099609" xlink:href="#DejaVuSans-52"/>
    </g>
   </g>
   <g id="text_14">
    <!-- best 2009 -->
    <defs>
     <path d="M 48.6875 27.296875 
Q 48.6875 37.203125 44.609375 42.84375 
Q 40.53125 48.484375 33.40625 48.484375 
Q 26.265625 48.484375 22.1875 42.84375 
Q 18.109375 37.203125 18.109375 27.296875 
Q 18.109375 17.390625 22.1875 11.75 
Q 26.265625 6.109375 33.40625 6.109375 
Q 40.53125 6.109375 44.609375 11.75 
Q 48.6875 17.390625 48.6875 27.296875 
z
M 18.109375 46.390625 
Q 20.953125 51.265625 25.265625 53.625 
Q 29.59375 56 35.59375 56 
Q 45.5625 56 51.78125 48.09375 
Q 58.015625 40.1875 58.015625 27.296875 
Q 58.015625 14.40625 51.78125 6.484375 
Q 45.5625 -1.421875 35.59375 -1.421875 
Q 29.59375 -1.421875 25.265625 0.953125 
Q 20.953125 3.328125 18.109375 8.203125 
L 18.109375 0 
L 9.078125 0 
L 9.078125 75.984375 
L 18.109375 75.984375 
z
" id="DejaVuSans-98"/>
     <path d="M 10.984375 1.515625 
L 10.984375 10.5 
Q 14.703125 8.734375 18.5 7.8125 
Q 22.3125 6.890625 25.984375 6.890625 
Q 35.75 6.890625 40.890625 13.453125 
Q 46.046875 20.015625 46.78125 33.40625 
Q 43.953125 29.203125 39.59375 26.953125 
Q 35.25 24.703125 29.984375 24.703125 
Q 19.046875 24.703125 12.671875 31.3125 
Q 6.296875 37.9375 6.296875 49.421875 
Q 6.296875 60.640625 12.9375 67.421875 
Q 19.578125 74.21875 30.609375 74.21875 
Q 43.265625 74.21875 49.921875 64.515625 
Q 56.59375 54.828125 56.59375 36.375 
Q 56.59375 19.140625 48.40625 8.859375 
Q 40.234375 -1.421875 26.421875 -1.421875 
Q 22.703125 -1.421875 18.890625 -0.6875 
Q 15.09375 0.046875 10.984375 1.515625 
z
M 30.609375 32.421875 
Q 37.25 32.421875 41.125 36.953125 
Q 45.015625 41.5 45.015625 49.421875 
Q 45.015625 57.28125 41.125 61.84375 
Q 37.25 66.40625 30.609375 66.40625 
Q 23.96875 66.40625 20.09375 61.84375 
Q 16.21875 57.28125 16.21875 49.421875 
Q 16.21875 41.5 20.09375 36.953125 
Q 23.96875 32.421875 30.609375 32.421875 
z
" id="DejaVuSans-57"/>
    </defs>
    <g transform="translate(375.22944 255.285155)scale(0.17 -0.17)">
     <use xlink:href="#DejaVuSans-98"/>
     <use x="63.476562" xlink:href="#DejaVuSans-101"/>
     <use x="125" xlink:href="#DejaVuSans-115"/>
     <use x="177.099609" xlink:href="#DejaVuSans-116"/>
     <use x="216.308594" xlink:href="#DejaVuSans-32"/>
     <use x="248.095703" xlink:href="#DejaVuSans-50"/>
     <use x="311.71875" xlink:href="#DejaVuSans-48"/>
     <use x="375.341797" xlink:href="#DejaVuSans-48"/>
     <use x="438.964844" xlink:href="#DejaVuSans-57"/>
    </g>
   </g>
   <g id="text_15">
    <!-- 200-2e4 -->
    <g transform="translate(375.22944 212.307571)scale(0.17 -0.17)">
     <use xlink:href="#DejaVuSans-50"/>
     <use x="63.623047" xlink:href="#DejaVuSans-48"/>
     <use x="127.246094" xlink:href="#DejaVuSans-48"/>
     <use x="190.869141" xlink:href="#DejaVuSans-45"/>
     <use x="226.953125" xlink:href="#DejaVuSans-50"/>
     <use x="290.576172" xlink:href="#DejaVuSans-101"/>
     <use x="352.099609" xlink:href="#DejaVuSans-52"/>
    </g>
   </g>
   <g id="text_16">
    <!-- 140-2e4 -->
    <g transform="translate(375.22944 169.329987)scale(0.17 -0.17)">
     <use xlink:href="#DejaVuSans-49"/>
     <use x="63.623047" xlink:href="#DejaVuSans-52"/>
     <use x="127.246094" xlink:href="#DejaVuSans-48"/>
     <use x="190.869141" xlink:href="#DejaVuSans-45"/>
     <use x="226.953125" xlink:href="#DejaVuSans-50"/>
     <use x="290.576172" xlink:href="#DejaVuSans-101"/>
     <use x="352.099609" xlink:href="#DejaVuSans-52"/>
    </g>
   </g>
   <g id="text_17">
    <!-- 100-1e5 -->
    <defs>
     <path d="M 10.796875 72.90625 
L 49.515625 72.90625 
L 49.515625 64.59375 
L 19.828125 64.59375 
L 19.828125 46.734375 
Q 21.96875 47.46875 24.109375 47.828125 
Q 26.265625 48.1875 28.421875 48.1875 
Q 40.625 48.1875 47.75 41.5 
Q 54.890625 34.8125 54.890625 23.390625 
Q 54.890625 11.625 47.5625 5.09375 
Q 40.234375 -1.421875 26.90625 -1.421875 
Q 22.3125 -1.421875 17.546875 -0.640625 
Q 12.796875 0.140625 7.71875 1.703125 
L 7.71875 11.625 
Q 12.109375 9.234375 16.796875 8.0625 
Q 21.484375 6.890625 26.703125 6.890625 
Q 35.15625 6.890625 40.078125 11.328125 
Q 45.015625 15.765625 45.015625 23.390625 
Q 45.015625 31 40.078125 35.4375 
Q 35.15625 39.890625 26.703125 39.890625 
Q 22.75 39.890625 18.8125 39.015625 
Q 14.890625 38.140625 10.796875 36.28125 
z
" id="DejaVuSans-53"/>
    </defs>
    <g transform="translate(375.22944 126.352403)scale(0.17 -0.17)">
     <use xlink:href="#DejaVuSans-49"/>
     <use x="63.623047" xlink:href="#DejaVuSans-48"/>
     <use x="127.246094" xlink:href="#DejaVuSans-48"/>
     <use x="190.869141" xlink:href="#DejaVuSans-45"/>
     <use x="226.953125" xlink:href="#DejaVuSans-49"/>
     <use x="290.576172" xlink:href="#DejaVuSans-101"/>
     <use x="352.099609" xlink:href="#DejaVuSans-53"/>
    </g>
   </g>
   <g id="text_18">
    <!-- 120-1e5 -->
    <g transform="translate(375.22944 83.374819)scale(0.17 -0.17)">
     <use xlink:href="#DejaVuSans-49"/>
     <use x="63.623047" xlink:href="#DejaVuSans-50"/>
     <use x="127.246094" xlink:href="#DejaVuSans-48"/>
     <use x="190.869141" xlink:href="#DejaVuSans-45"/>
     <use x="226.953125" xlink:href="#DejaVuSans-49"/>
     <use x="290.576172" xlink:href="#DejaVuSans-101"/>
     <use x="352.099609" xlink:href="#DejaVuSans-53"/>
    </g>
   </g>
   <g id="text_19">
    <!-- 100-2e4 -->
    <g transform="translate(375.22944 40.397235)scale(0.17 -0.17)">
     <use xlink:href="#DejaVuSans-49"/>
     <use x="63.623047" xlink:href="#DejaVuSans-48"/>
     <use x="127.246094" xlink:href="#DejaVuSans-48"/>
     <use x="190.869141" xlink:href="#DejaVuSans-45"/>
     <use x="226.953125" xlink:href="#DejaVuSans-50"/>
     <use x="290.576172" xlink:href="#DejaVuSans-101"/>
     <use x="352.099609" xlink:href="#DejaVuSans-52"/>
    </g>
   </g>
   <g id="text_20">
    <!-- bbob f10, 40-D -->
    <defs>
     <path d="M 19.671875 64.796875 
L 19.671875 8.109375 
L 31.59375 8.109375 
Q 46.6875 8.109375 53.6875 14.9375 
Q 60.6875 21.78125 60.6875 36.53125 
Q 60.6875 51.171875 53.6875 57.984375 
Q 46.6875 64.796875 31.59375 64.796875 
z
M 9.8125 72.90625 
L 30.078125 72.90625 
Q 51.265625 72.90625 61.171875 64.09375 
Q 71.09375 55.28125 71.09375 36.53125 
Q 71.09375 17.671875 61.125 8.828125 
Q 51.171875 0 30.078125 0 
L 9.8125 0 
z
" id="DejaVuSans-68"/>
    </defs>
    <g transform="translate(60.41088 38.111366)scale(0.102 -0.102)">
     <use xlink:href="#DejaVuSans-98"/>
     <use x="63.476562" xlink:href="#DejaVuSans-98"/>
     <use x="126.953125" xlink:href="#DejaVuSans-111"/>
     <use x="188.134766" xlink:href="#DejaVuSans-98"/>
     <use x="251.611328" xlink:href="#DejaVuSans-32"/>
     <use x="283.398438" xlink:href="#DejaVuSans-102"/>
     <use x="318.603516" xlink:href="#DejaVuSans-49"/>
     <use x="382.226562" xlink:href="#DejaVuSans-48"/>
     <use x="445.849609" xlink:href="#DejaVuSans-44"/>
     <use x="477.636719" xlink:href="#DejaVuSans-32"/>
     <use x="509.423828" xlink:href="#DejaVuSans-52"/>
     <use x="573.046875" xlink:href="#DejaVuSans-48"/>
     <use x="636.669922" xlink:href="#DejaVuSans-45"/>
     <use x="672.753906" xlink:href="#DejaVuSans-68"/>
    </g>
    <!-- 51 targets: 100..1e-08 -->
    <defs>
     <path d="M 11.71875 12.40625 
L 22.015625 12.40625 
L 22.015625 0 
L 11.71875 0 
z
M 11.71875 51.703125 
L 22.015625 51.703125 
L 22.015625 39.3125 
L 11.71875 39.3125 
z
" id="DejaVuSans-58"/>
    </defs>
    <g transform="translate(60.41088 49.533135)scale(0.102 -0.102)">
     <use xlink:href="#DejaVuSans-53"/>
     <use x="63.623047" xlink:href="#DejaVuSans-49"/>
     <use x="127.246094" xlink:href="#DejaVuSans-32"/>
     <use x="159.033203" xlink:href="#DejaVuSans-116"/>
     <use x="198.242188" xlink:href="#DejaVuSans-97"/>
     <use x="259.521484" xlink:href="#DejaVuSans-114"/>
     <use x="300.619141" xlink:href="#DejaVuSans-103"/>
     <use x="364.095703" xlink:href="#DejaVuSans-101"/>
     <use x="425.619141" xlink:href="#DejaVuSans-116"/>
     <use x="464.828125" xlink:href="#DejaVuSans-115"/>
     <use x="516.927734" xlink:href="#DejaVuSans-58"/>
     <use x="550.619141" xlink:href="#DejaVuSans-32"/>
     <use x="582.40625" xlink:href="#DejaVuSans-49"/>
     <use x="646.029297" xlink:href="#DejaVuSans-48"/>
     <use x="709.652344" xlink:href="#DejaVuSans-48"/>
     <use x="773.275391" xlink:href="#DejaVuSans-46"/>
     <use x="805.0625" xlink:href="#DejaVuSans-46"/>
     <use x="836.849609" xlink:href="#DejaVuSans-49"/>
     <use x="900.472656" xlink:href="#DejaVuSans-101"/>
     <use x="961.996094" xlink:href="#DejaVuSans-45"/>
     <use x="998.080078" xlink:href="#DejaVuSans-48"/>
     <use x="1061.703125" xlink:href="#DejaVuSans-56"/>
    </g>
    <!-- 15 instances -->
    <g transform="translate(60.41088 60.954904)scale(0.102 -0.102)">
     <use xlink:href="#DejaVuSans-49"/>
     <use x="63.623047" xlink:href="#DejaVuSans-53"/>
     <use x="127.246094" xlink:href="#DejaVuSans-32"/>
     <use x="159.033203" xlink:href="#DejaVuSans-105"/>
     <use x="186.816406" xlink:href="#DejaVuSans-110"/>
     <use x="250.195312" xlink:href="#DejaVuSans-115"/>
     <use x="302.294922" xlink:href="#DejaVuSans-116"/>
     <use x="341.503906" xlink:href="#DejaVuSans-97"/>
     <use x="402.783203" xlink:href="#DejaVuSans-110"/>
     <use x="466.162109" xlink:href="#DejaVuSans-99"/>
     <use x="521.142578" xlink:href="#DejaVuSans-101"/>
     <use x="582.666016" xlink:href="#DejaVuSans-115"/>
    </g>
   </g>
   <g id="text_21">
    <!-- v2.3.3.18.73 -->
    <defs>
     <path d="M 40.578125 39.3125 
Q 47.65625 37.796875 51.625 33 
Q 55.609375 28.21875 55.609375 21.1875 
Q 55.609375 10.40625 48.1875 4.484375 
Q 40.765625 -1.421875 27.09375 -1.421875 
Q 22.515625 -1.421875 17.65625 -0.515625 
Q 12.796875 0.390625 7.625 2.203125 
L 7.625 11.71875 
Q 11.71875 9.328125 16.59375 8.109375 
Q 21.484375 6.890625 26.8125 6.890625 
Q 36.078125 6.890625 40.9375 10.546875 
Q 45.796875 14.203125 45.796875 21.1875 
Q 45.796875 27.640625 41.28125 31.265625 
Q 36.765625 34.90625 28.71875 34.90625 
L 20.21875 34.90625 
L 20.21875 43.015625 
L 29.109375 43.015625 
Q 36.375 43.015625 40.234375 45.921875 
Q 44.09375 48.828125 44.09375 54.296875 
Q 44.09375 59.90625 40.109375 62.90625 
Q 36.140625 65.921875 28.71875 65.921875 
Q 24.65625 65.921875 20.015625 65.03125 
Q 15.375 64.15625 9.8125 62.3125 
L 9.8125 71.09375 
Q 15.4375 72.65625 20.34375 73.4375 
Q 25.25 74.21875 29.59375 74.21875 
Q 40.828125 74.21875 47.359375 69.109375 
Q 53.90625 64.015625 53.90625 55.328125 
Q 53.90625 49.265625 50.4375 45.09375 
Q 46.96875 40.921875 40.578125 39.3125 
z
" id="DejaVuSans-51"/>
     <path d="M 8.203125 72.90625 
L 55.078125 72.90625 
L 55.078125 68.703125 
L 28.609375 0 
L 18.3125 0 
L 43.21875 64.59375 
L 8.203125 64.59375 
z
" id="DejaVuSans-55"/>
    </defs>
    <g style="fill:#808080;" transform="translate(166.559625 294.151352)scale(0.1 -0.1)">
     <use xlink:href="#DejaVuSans-118"/>
     <use x="59.179688" xlink:href="#DejaVuSans-50"/>
     <use x="122.802734" xlink:href="#DejaVuSans-46"/>
     <use x="154.589844" xlink:href="#DejaVuSans-51"/>
     <use x="218.212891" xlink:href="#DejaVuSans-46"/>
     <use x="250" xlink:href="#DejaVuSans-51"/>
     <use x="313.623047" xlink:href="#DejaVuSans-46"/>
     <use x="345.410156" xlink:href="#DejaVuSans-49"/>
     <use x="409.033203" xlink:href="#DejaVuSans-56"/>
     <use x="472.65625" xlink:href="#DejaVuSans-46"/>
     <use x="504.443359" xlink:href="#DejaVuSans-55"/>
     <use x="568.066406" xlink:href="#DejaVuSans-51"/>
    </g>
   </g>
   <g id="text_22">
    <!-- 10 Ellipsoid -->
    <defs>
     <path d="M 9.8125 72.90625 
L 55.90625 72.90625 
L 55.90625 64.59375 
L 19.671875 64.59375 
L 19.671875 43.015625 
L 54.390625 43.015625 
L 54.390625 34.71875 
L 19.671875 34.71875 
L 19.671875 8.296875 
L 56.78125 8.296875 
L 56.78125 0 
L 9.8125 0 
z
" id="DejaVuSans-69"/>
    </defs>
    <g transform="translate(140.784625 21.648)scale(0.2 -0.2)">
     <use xlink:href="#DejaVuSans-49"/>
     <use x="63.623047" xlink:href="#DejaVuSans-48"/>
     <use x="127.246094" xlink:href="#DejaVuSans-32"/>
     <use x="159.033203" xlink:href="#DejaVuSans-69"/>
     <use x="222.216797" xlink:href="#DejaVuSans-108"/>
     <use x="250" xlink:href="#DejaVuSans-108"/>
     <use x="277.783203" xlink:href="#DejaVuSans-105"/>
     <use x="305.566406" xlink:href="#DejaVuSans-112"/>
     <use x="369.042969" xlink:href="#DejaVuSans-115"/>
     <use x="421.142578" xlink:href="#DejaVuSans-111"/>
     <use x="482.324219" xlink:href="#DejaVuSans-105"/>
     <use x="510.107422" xlink:href="#DejaVuSans-100"/>
    </g>
   </g>
  </g>
 </g>
 <defs>
  <clipPath id="pa8bddddcab">
   <rect height="271.296" width="281.088" x="57.6" y="27.648"/>
  </clipPath>
 </defs>
</svg>
