<?xml version="1.0" encoding="utf-8" standalone="no"?>
<!DOCTYPE svg PUBLIC "-//W3C//DTD SVG 1.1//EN"
  "http://www.w3.org/Graphics/SVG/1.1/DTD/svg11.dtd">
<!-- Created with matplotlib (https://matplotlib.org/) -->
<svg height="345.6pt" version="1.1" viewBox="0 0 460.8 345.6" width="460.8pt" xmlns="http://www.w3.org/2000/svg" xmlns:xlink="http://www.w3.org/1999/xlink">
 <defs>
  <style type="text/css">
*{stroke-linecap:butt;stroke-linejoin:round;}
  </style>
 </defs>
 <g id="figure_1">
  <g id="patch_1">
   <path d="M 0 345.6 
L 460.8 345.6 
L 460.8 0 
L 0 0 
z
" style="fill:#ffffff;"/>
  </g>
  <g id="axes_1">
   <g id="patch_2">
    <path d="M 57.6 298.944 
L 338.688 298.944 
L 338.688 27.648 
L 57.6 27.648 
z
" style="fill:#ffffff;"/>
   </g>
   <g id="line2d_1">
    <path d="M 5.356583 298.944 
L 5.356583 293.677139 
L 71.74204 293.677139 
L 71.74204 288.410278 
L 78.941764 288.410278 
L 78.941764 283.143418 
L 93.310291 283.143418 
L 93.310291 277.876557 
L 100.268435 277.876557 
L 100.268435 272.609696 
L 112.544146 272.609696 
L 112.544146 267.342835 
L 129.276384 267.342835 
L 129.276384 262.075974 
L 143.691276 262.075974 
L 143.691276 256.809114 
L 143.772462 256.809114 
L 143.772462 251.542253 
L 155.678822 251.542253 
L 155.678822 246.275392 
L 155.804285 246.275392 
L 155.804285 241.008531 
L 180.43602 241.008531 
L 180.43602 235.74167 
L 180.623777 235.74167 
L 180.623777 230.47481 
L 180.677911 230.47481 
L 180.677911 225.207949 
L 180.718401 225.207949 
L 180.718401 219.941088 
L 180.872006 219.941088 
L 180.872006 214.674227 
L 180.937214 214.674227 
L 180.937214 209.407366 
L 181.033099 209.407366 
L 181.033099 204.140506 
L 181.094776 204.140506 
L 181.094776 198.873645 
L 181.196361 198.873645 
L 181.196361 193.606784 
L 181.363884 193.606784 
L 181.363884 188.339923 
L 181.399933 188.339923 
L 181.399933 183.073062 
L 181.442376 183.073062 
L 181.442376 177.806202 
L 181.821892 177.806202 
L 181.821892 172.539341 
L 181.866127 172.539341 
L 181.866127 167.27248 
L 181.921437 167.27248 
L 181.921437 162.005619 
L 182.216021 162.005619 
L 182.216021 156.738758 
L 182.27914 156.738758 
L 182.27914 151.471897 
L 182.353627 151.471897 
L 182.353627 146.205037 
L 182.516524 146.205037 
L 182.516524 140.938176 
L 182.736049 140.938176 
L 182.736049 135.671315 
L 182.772702 135.671315 
L 182.772702 130.404454 
L 182.856382 130.404454 
L 182.856382 125.137593 
L 182.92317 125.137593 
L 182.92317 119.870733 
L 183.036323 119.870733 
L 183.036323 114.603872 
L 183.20079 114.603872 
L 183.20079 109.337011 
L 188.853028 109.337011 
L 188.853028 104.07015 
L 188.916799 104.07015 
L 188.916799 98.803289 
L 188.941587 98.803289 
L 188.941587 93.536429 
L 189.095607 93.536429 
L 189.095607 88.269568 
L 203.361568 88.269568 
L 203.361568 83.002707 
L 203.393635 83.002707 
L 203.393635 77.735846 
L 211.314419 77.735846 
L 211.314419 72.468985 
L 211.32271 72.468985 
L 211.32271 67.202125 
L 211.333715 67.202125 
L 211.333715 61.935264 
L 211.341091 61.935264 
L 211.341091 56.668403 
L 211.3473 56.668403 
L 211.3473 51.401542 
L 211.361779 51.401542 
L 211.361779 46.134681 
L 211.367334 46.134681 
L 211.367334 40.867821 
L 211.372242 40.867821 
L 211.372242 35.60096 
L 211.384894 35.60096 
L 211.384894 30.334099 
L 338.688 30.334099 
" style="fill:none;stroke:#f5deb3;stroke-linecap:square;stroke-width:4;"/>
   </g>
   <g id="line2d_2">
    <defs>
     <path d="M -0 7.778175 
L 7.778175 0 
L 0 -7.778175 
L -7.778175 -0 
z
" id="mefa37e5245" style="stroke:#f5deb3;stroke-linejoin:miter;stroke-width:1.5;"/>
    </defs>
    <g>
     <use style="fill:#f5deb3;stroke:#f5deb3;stroke-linejoin:miter;stroke-width:1.5;" x="100.268435" xlink:href="#mefa37e5245" y="272.609696"/>
     <use style="fill:#f5deb3;stroke:#f5deb3;stroke-linejoin:miter;stroke-width:1.5;" x="181.821892" xlink:href="#mefa37e5245" y="172.539341"/>
     <use style="fill:#f5deb3;stroke:#f5deb3;stroke-linejoin:miter;stroke-width:1.5;" x="189.095607" xlink:href="#mefa37e5245" y="93.536429"/>
     <use style="fill:#f5deb3;stroke:#f5deb3;stroke-linejoin:miter;stroke-width:1.5;" x="211.384894" xlink:href="#mefa37e5245" y="35.60096"/>
     <use style="fill:#f5deb3;stroke:#f5deb3;stroke-linejoin:miter;stroke-width:1.5;" x="211.384894" xlink:href="#mefa37e5245" y="30.334099"/>
     <use style="fill:#f5deb3;stroke:#f5deb3;stroke-linejoin:miter;stroke-width:1.5;" x="338.688" xlink:href="#mefa37e5245" y="30.334099"/>
    </g>
   </g>
   <g id="line2d_3">
    <path style="fill:none;stroke:#f5deb3;stroke-linecap:square;stroke-width:4;"/>
    <g/>
   </g>
   <g id="line2d_4">
    <path d="M 338.688 30.334099 
L 369.60768 35.706297 
" style="fill:none;stroke:#f5deb3;stroke-linecap:square;stroke-width:4;"/>
    <g>
     <use style="fill:#f5deb3;stroke:#f5deb3;stroke-linejoin:miter;stroke-width:1.5;" x="338.688" xlink:href="#mefa37e5245" y="30.334099"/>
     <use style="fill:#f5deb3;stroke:#f5deb3;stroke-linejoin:miter;stroke-width:1.5;" x="369.60768" xlink:href="#mefa37e5245" y="35.706297"/>
    </g>
   </g>
   <g id="matplotlib.axis_1">
    <g id="xtick_1">
     <g id="line2d_5">
      <path clip-path="url(#pe8d30ecc59)" d="M 57.6 298.944 
L 57.6 27.648 
" style="fill:none;stroke:#b0b0b0;stroke-linecap:square;stroke-width:0.8;"/>
     </g>
     <g id="line2d_6">
      <defs>
       <path d="M 0 0 
L 0 3.5 
" id="m39a6236222" style="stroke:#000000;stroke-width:0.8;"/>
      </defs>
      <g>
       <use style="stroke:#000000;stroke-width:0.8;" x="57.6" xlink:href="#m39a6236222" y="298.944"/>
      </g>
     </g>
     <g id="text_1">
      <!-- 0 -->
      <defs>
       <path d="M 31.78125 66.40625 
Q 24.171875 66.40625 20.328125 58.90625 
Q 16.5 51.421875 16.5 36.375 
Q 16.5 21.390625 20.328125 13.890625 
Q 24.171875 6.390625 31.78125 6.390625 
Q 39.453125 6.390625 43.28125 13.890625 
Q 47.125 21.390625 47.125 36.375 
Q 47.125 51.421875 43.28125 58.90625 
Q 39.453125 66.40625 31.78125 66.40625 
z
M 31.78125 74.21875 
Q 44.046875 74.21875 50.515625 64.515625 
Q 56.984375 54.828125 56.984375 36.375 
Q 56.984375 17.96875 50.515625 8.265625 
Q 44.046875 -1.421875 31.78125 -1.421875 
Q 19.53125 -1.421875 13.0625 8.265625 
Q 6.59375 17.96875 6.59375 36.375 
Q 6.59375 54.828125 13.0625 64.515625 
Q 19.53125 74.21875 31.78125 74.21875 
z
" id="DejaVuSans-48"/>
      </defs>
      <g transform="translate(51.2375 321.140875)scale(0.2 -0.2)">
       <use xlink:href="#DejaVuSans-48"/>
      </g>
     </g>
    </g>
    <g id="xtick_2">
     <g id="line2d_7">
      <path clip-path="url(#pe8d30ecc59)" d="M 137.910857 298.944 
L 137.910857 27.648 
" style="fill:none;stroke:#b0b0b0;stroke-linecap:square;stroke-width:0.8;"/>
     </g>
     <g id="line2d_8">
      <g>
       <use style="stroke:#000000;stroke-width:0.8;" x="137.910857" xlink:href="#m39a6236222" y="298.944"/>
      </g>
     </g>
     <g id="text_2">
      <!-- 2 -->
      <defs>
       <path d="M 19.1875 8.296875 
L 53.609375 8.296875 
L 53.609375 0 
L 7.328125 0 
L 7.328125 8.296875 
Q 12.9375 14.109375 22.625 23.890625 
Q 32.328125 33.6875 34.8125 36.53125 
Q 39.546875 41.84375 41.421875 45.53125 
Q 43.3125 49.21875 43.3125 52.78125 
Q 43.3125 58.59375 39.234375 62.25 
Q 35.15625 65.921875 28.609375 65.921875 
Q 23.96875 65.921875 18.8125 64.3125 
Q 13.671875 62.703125 7.8125 59.421875 
L 7.8125 69.390625 
Q 13.765625 71.78125 18.9375 73 
Q 24.125 74.21875 28.421875 74.21875 
Q 39.75 74.21875 46.484375 68.546875 
Q 53.21875 62.890625 53.21875 53.421875 
Q 53.21875 48.921875 51.53125 44.890625 
Q 49.859375 40.875 45.40625 35.40625 
Q 44.1875 33.984375 37.640625 27.21875 
Q 31.109375 20.453125 19.1875 8.296875 
z
" id="DejaVuSans-50"/>
      </defs>
      <g transform="translate(131.548357 321.140875)scale(0.2 -0.2)">
       <use xlink:href="#DejaVuSans-50"/>
      </g>
     </g>
    </g>
    <g id="xtick_3">
     <g id="line2d_9">
      <path clip-path="url(#pe8d30ecc59)" d="M 218.221714 298.944 
L 218.221714 27.648 
" style="fill:none;stroke:#b0b0b0;stroke-linecap:square;stroke-width:0.8;"/>
     </g>
     <g id="line2d_10">
      <g>
       <use style="stroke:#000000;stroke-width:0.8;" x="218.221714" xlink:href="#m39a6236222" y="298.944"/>
      </g>
     </g>
     <g id="text_3">
      <!-- 4 -->
      <defs>
       <path d="M 37.796875 64.3125 
L 12.890625 25.390625 
L 37.796875 25.390625 
z
M 35.203125 72.90625 
L 47.609375 72.90625 
L 47.609375 25.390625 
L 58.015625 25.390625 
L 58.015625 17.1875 
L 47.609375 17.1875 
L 47.609375 0 
L 37.796875 0 
L 37.796875 17.1875 
L 4.890625 17.1875 
L 4.890625 26.703125 
z
" id="DejaVuSans-52"/>
      </defs>
      <g transform="translate(211.859214 321.140875)scale(0.2 -0.2)">
       <use xlink:href="#DejaVuSans-52"/>
      </g>
     </g>
    </g>
    <g id="xtick_4">
     <g id="line2d_11">
      <path clip-path="url(#pe8d30ecc59)" d="M 298.532571 298.944 
L 298.532571 27.648 
" style="fill:none;stroke:#b0b0b0;stroke-linecap:square;stroke-width:0.8;"/>
     </g>
     <g id="line2d_12">
      <g>
       <use style="stroke:#000000;stroke-width:0.8;" x="298.532571" xlink:href="#m39a6236222" y="298.944"/>
      </g>
     </g>
     <g id="text_4">
      <!-- 6 -->
      <defs>
       <path d="M 33.015625 40.375 
Q 26.375 40.375 22.484375 35.828125 
Q 18.609375 31.296875 18.609375 23.390625 
Q 18.609375 15.53125 22.484375 10.953125 
Q 26.375 6.390625 33.015625 6.390625 
Q 39.65625 6.390625 43.53125 10.953125 
Q 47.40625 15.53125 47.40625 23.390625 
Q 47.40625 31.296875 43.53125 35.828125 
Q 39.65625 40.375 33.015625 40.375 
z
M 52.59375 71.296875 
L 52.59375 62.3125 
Q 48.875 64.0625 45.09375 64.984375 
Q 41.3125 65.921875 37.59375 65.921875 
Q 27.828125 65.921875 22.671875 59.328125 
Q 17.53125 52.734375 16.796875 39.40625 
Q 19.671875 43.65625 24.015625 45.921875 
Q 28.375 48.1875 33.59375 48.1875 
Q 44.578125 48.1875 50.953125 41.515625 
Q 57.328125 34.859375 57.328125 23.390625 
Q 57.328125 12.15625 50.6875 5.359375 
Q 44.046875 -1.421875 33.015625 -1.421875 
Q 20.359375 -1.421875 13.671875 8.265625 
Q 6.984375 17.96875 6.984375 36.375 
Q 6.984375 53.65625 15.1875 63.9375 
Q 23.390625 74.21875 37.203125 74.21875 
Q 40.921875 74.21875 44.703125 73.484375 
Q 48.484375 72.75 52.59375 71.296875 
z
" id="DejaVuSans-54"/>
      </defs>
      <g transform="translate(292.170071 321.140875)scale(0.2 -0.2)">
       <use xlink:href="#DejaVuSans-54"/>
      </g>
     </g>
    </g>
    <g id="xtick_5">
     <g id="line2d_13">
      <path clip-path="url(#pe8d30ecc59)" d="M 97.755429 298.944 
L 97.755429 27.648 
" style="fill:none;stroke:#b0b0b0;stroke-linecap:square;stroke-width:0.8;"/>
     </g>
     <g id="line2d_14">
      <defs>
       <path d="M 0 0 
L 0 2 
" id="m8245c0fbd2" style="stroke:#000000;stroke-width:0.6;"/>
      </defs>
      <g>
       <use style="stroke:#000000;stroke-width:0.6;" x="97.755429" xlink:href="#m8245c0fbd2" y="298.944"/>
      </g>
     </g>
    </g>
    <g id="xtick_6">
     <g id="line2d_15">
      <path clip-path="url(#pe8d30ecc59)" d="M 178.066286 298.944 
L 178.066286 27.648 
" style="fill:none;stroke:#b0b0b0;stroke-linecap:square;stroke-width:0.8;"/>
     </g>
     <g id="line2d_16">
      <g>
       <use style="stroke:#000000;stroke-width:0.6;" x="178.066286" xlink:href="#m8245c0fbd2" y="298.944"/>
      </g>
     </g>
    </g>
    <g id="xtick_7">
     <g id="line2d_17">
      <path clip-path="url(#pe8d30ecc59)" d="M 258.377143 298.944 
L 258.377143 27.648 
" style="fill:none;stroke:#b0b0b0;stroke-linecap:square;stroke-width:0.8;"/>
     </g>
     <g id="line2d_18">
      <g>
       <use style="stroke:#000000;stroke-width:0.6;" x="258.377143" xlink:href="#m8245c0fbd2" y="298.944"/>
      </g>
     </g>
    </g>
    <g id="xtick_8">
     <g id="line2d_19">
      <path clip-path="url(#pe8d30ecc59)" d="M 338.688 298.944 
L 338.688 27.648 
" style="fill:none;stroke:#b0b0b0;stroke-linecap:square;stroke-width:0.8;"/>
     </g>
     <g id="line2d_20">
      <g>
       <use style="stroke:#000000;stroke-width:0.6;" x="338.688" xlink:href="#m8245c0fbd2" y="298.944"/>
      </g>
     </g>
    </g>
    <g id="text_5">
     <!-- log10(# f-evals / dimension) -->
     <defs>
      <path d="M 9.421875 75.984375 
L 18.40625 75.984375 
L 18.40625 0 
L 9.421875 0 
z
" id="DejaVuSans-108"/>
      <path d="M 30.609375 48.390625 
Q 23.390625 48.390625 19.1875 42.75 
Q 14.984375 37.109375 14.984375 27.296875 
Q 14.984375 17.484375 19.15625 11.84375 
Q 23.34375 6.203125 30.609375 6.203125 
Q 37.796875 6.203125 41.984375 11.859375 
Q 46.1875 17.53125 46.1875 27.296875 
Q 46.1875 37.015625 41.984375 42.703125 
Q 37.796875 48.390625 30.609375 48.390625 
z
M 30.609375 56 
Q 42.328125 56 49.015625 48.375 
Q 55.71875 40.765625 55.71875 27.296875 
Q 55.71875 13.875 49.015625 6.21875 
Q 42.328125 -1.421875 30.609375 -1.421875 
Q 18.84375 -1.421875 12.171875 6.21875 
Q 5.515625 13.875 5.515625 27.296875 
Q 5.515625 40.765625 12.171875 48.375 
Q 18.84375 56 30.609375 56 
z
" id="DejaVuSans-111"/>
      <path d="M 45.40625 27.984375 
Q 45.40625 37.75 41.375 43.109375 
Q 37.359375 48.484375 30.078125 48.484375 
Q 22.859375 48.484375 18.828125 43.109375 
Q 14.796875 37.75 14.796875 27.984375 
Q 14.796875 18.265625 18.828125 12.890625 
Q 22.859375 7.515625 30.078125 7.515625 
Q 37.359375 7.515625 41.375 12.890625 
Q 45.40625 18.265625 45.40625 27.984375 
z
M 54.390625 6.78125 
Q 54.390625 -7.171875 48.1875 -13.984375 
Q 42 -20.796875 29.203125 -20.796875 
Q 24.46875 -20.796875 20.265625 -20.09375 
Q 16.0625 -19.390625 12.109375 -17.921875 
L 12.109375 -9.1875 
Q 16.0625 -11.328125 19.921875 -12.34375 
Q 23.78125 -13.375 27.78125 -13.375 
Q 36.625 -13.375 41.015625 -8.765625 
Q 45.40625 -4.15625 45.40625 5.171875 
L 45.40625 9.625 
Q 42.625 4.78125 38.28125 2.390625 
Q 33.9375 0 27.875 0 
Q 17.828125 0 11.671875 7.65625 
Q 5.515625 15.328125 5.515625 27.984375 
Q 5.515625 40.671875 11.671875 48.328125 
Q 17.828125 56 27.875 56 
Q 33.9375 56 38.28125 53.609375 
Q 42.625 51.21875 45.40625 46.390625 
L 45.40625 54.6875 
L 54.390625 54.6875 
z
" id="DejaVuSans-103"/>
      <path d="M 12.40625 8.296875 
L 28.515625 8.296875 
L 28.515625 63.921875 
L 10.984375 60.40625 
L 10.984375 69.390625 
L 28.421875 72.90625 
L 38.28125 72.90625 
L 38.28125 8.296875 
L 54.390625 8.296875 
L 54.390625 0 
L 12.40625 0 
z
" id="DejaVuSans-49"/>
      <path d="M 31 75.875 
Q 24.46875 64.65625 21.28125 53.65625 
Q 18.109375 42.671875 18.109375 31.390625 
Q 18.109375 20.125 21.3125 9.0625 
Q 24.515625 -2 31 -13.1875 
L 23.1875 -13.1875 
Q 15.875 -1.703125 12.234375 9.375 
Q 8.59375 20.453125 8.59375 31.390625 
Q 8.59375 42.28125 12.203125 53.3125 
Q 15.828125 64.359375 23.1875 75.875 
z
" id="DejaVuSans-40"/>
      <path d="M 51.125 44 
L 36.921875 44 
L 32.8125 27.6875 
L 47.125 27.6875 
z
M 43.796875 71.78125 
L 38.71875 51.515625 
L 52.984375 51.515625 
L 58.109375 71.78125 
L 65.921875 71.78125 
L 60.890625 51.515625 
L 76.125 51.515625 
L 76.125 44 
L 58.984375 44 
L 54.984375 27.6875 
L 70.515625 27.6875 
L 70.515625 20.21875 
L 53.078125 20.21875 
L 48 0 
L 40.1875 0 
L 45.21875 20.21875 
L 30.90625 20.21875 
L 25.875 0 
L 18.015625 0 
L 23.09375 20.21875 
L 7.71875 20.21875 
L 7.71875 27.6875 
L 24.90625 27.6875 
L 29 44 
L 13.28125 44 
L 13.28125 51.515625 
L 30.90625 51.515625 
L 35.890625 71.78125 
z
" id="DejaVuSans-35"/>
      <path id="DejaVuSans-32"/>
      <path d="M 37.109375 75.984375 
L 37.109375 68.5 
L 28.515625 68.5 
Q 23.6875 68.5 21.796875 66.546875 
Q 19.921875 64.59375 19.921875 59.515625 
L 19.921875 54.6875 
L 34.71875 54.6875 
L 34.71875 47.703125 
L 19.921875 47.703125 
L 19.921875 0 
L 10.890625 0 
L 10.890625 47.703125 
L 2.296875 47.703125 
L 2.296875 54.6875 
L 10.890625 54.6875 
L 10.890625 58.5 
Q 10.890625 67.625 15.140625 71.796875 
Q 19.390625 75.984375 28.609375 75.984375 
z
" id="DejaVuSans-102"/>
      <path d="M 4.890625 31.390625 
L 31.203125 31.390625 
L 31.203125 23.390625 
L 4.890625 23.390625 
z
" id="DejaVuSans-45"/>
      <path d="M 56.203125 29.59375 
L 56.203125 25.203125 
L 14.890625 25.203125 
Q 15.484375 15.921875 20.484375 11.0625 
Q 25.484375 6.203125 34.421875 6.203125 
Q 39.59375 6.203125 44.453125 7.46875 
Q 49.3125 8.734375 54.109375 11.28125 
L 54.109375 2.78125 
Q 49.265625 0.734375 44.1875 -0.34375 
Q 39.109375 -1.421875 33.890625 -1.421875 
Q 20.796875 -1.421875 13.15625 6.1875 
Q 5.515625 13.8125 5.515625 26.8125 
Q 5.515625 40.234375 12.765625 48.109375 
Q 20.015625 56 32.328125 56 
Q 43.359375 56 49.78125 48.890625 
Q 56.203125 41.796875 56.203125 29.59375 
z
M 47.21875 32.234375 
Q 47.125 39.59375 43.09375 43.984375 
Q 39.0625 48.390625 32.421875 48.390625 
Q 24.90625 48.390625 20.390625 44.140625 
Q 15.875 39.890625 15.1875 32.171875 
z
" id="DejaVuSans-101"/>
      <path d="M 2.984375 54.6875 
L 12.5 54.6875 
L 29.59375 8.796875 
L 46.6875 54.6875 
L 56.203125 54.6875 
L 35.6875 0 
L 23.484375 0 
z
" id="DejaVuSans-118"/>
      <path d="M 34.28125 27.484375 
Q 23.390625 27.484375 19.1875 25 
Q 14.984375 22.515625 14.984375 16.5 
Q 14.984375 11.71875 18.140625 8.90625 
Q 21.296875 6.109375 26.703125 6.109375 
Q 34.1875 6.109375 38.703125 11.40625 
Q 43.21875 16.703125 43.21875 25.484375 
L 43.21875 27.484375 
z
M 52.203125 31.203125 
L 52.203125 0 
L 43.21875 0 
L 43.21875 8.296875 
Q 40.140625 3.328125 35.546875 0.953125 
Q 30.953125 -1.421875 24.3125 -1.421875 
Q 15.921875 -1.421875 10.953125 3.296875 
Q 6 8.015625 6 15.921875 
Q 6 25.140625 12.171875 29.828125 
Q 18.359375 34.515625 30.609375 34.515625 
L 43.21875 34.515625 
L 43.21875 35.40625 
Q 43.21875 41.609375 39.140625 45 
Q 35.0625 48.390625 27.6875 48.390625 
Q 23 48.390625 18.546875 47.265625 
Q 14.109375 46.140625 10.015625 43.890625 
L 10.015625 52.203125 
Q 14.9375 54.109375 19.578125 55.046875 
Q 24.21875 56 28.609375 56 
Q 40.484375 56 46.34375 49.84375 
Q 52.203125 43.703125 52.203125 31.203125 
z
" id="DejaVuSans-97"/>
      <path d="M 44.28125 53.078125 
L 44.28125 44.578125 
Q 40.484375 46.53125 36.375 47.5 
Q 32.28125 48.484375 27.875 48.484375 
Q 21.1875 48.484375 17.84375 46.4375 
Q 14.5 44.390625 14.5 40.28125 
Q 14.5 37.15625 16.890625 35.375 
Q 19.28125 33.59375 26.515625 31.984375 
L 29.59375 31.296875 
Q 39.15625 29.25 43.1875 25.515625 
Q 47.21875 21.78125 47.21875 15.09375 
Q 47.21875 7.46875 41.1875 3.015625 
Q 35.15625 -1.421875 24.609375 -1.421875 
Q 20.21875 -1.421875 15.453125 -0.5625 
Q 10.6875 0.296875 5.421875 2 
L 5.421875 11.28125 
Q 10.40625 8.6875 15.234375 7.390625 
Q 20.0625 6.109375 24.8125 6.109375 
Q 31.15625 6.109375 34.5625 8.28125 
Q 37.984375 10.453125 37.984375 14.40625 
Q 37.984375 18.0625 35.515625 20.015625 
Q 33.0625 21.96875 24.703125 23.78125 
L 21.578125 24.515625 
Q 13.234375 26.265625 9.515625 29.90625 
Q 5.8125 33.546875 5.8125 39.890625 
Q 5.8125 47.609375 11.28125 51.796875 
Q 16.75 56 26.8125 56 
Q 31.78125 56 36.171875 55.265625 
Q 40.578125 54.546875 44.28125 53.078125 
z
" id="DejaVuSans-115"/>
      <path d="M 25.390625 72.90625 
L 33.6875 72.90625 
L 8.296875 -9.28125 
L 0 -9.28125 
z
" id="DejaVuSans-47"/>
      <path d="M 45.40625 46.390625 
L 45.40625 75.984375 
L 54.390625 75.984375 
L 54.390625 0 
L 45.40625 0 
L 45.40625 8.203125 
Q 42.578125 3.328125 38.25 0.953125 
Q 33.9375 -1.421875 27.875 -1.421875 
Q 17.96875 -1.421875 11.734375 6.484375 
Q 5.515625 14.40625 5.515625 27.296875 
Q 5.515625 40.1875 11.734375 48.09375 
Q 17.96875 56 27.875 56 
Q 33.9375 56 38.25 53.625 
Q 42.578125 51.265625 45.40625 46.390625 
z
M 14.796875 27.296875 
Q 14.796875 17.390625 18.875 11.75 
Q 22.953125 6.109375 30.078125 6.109375 
Q 37.203125 6.109375 41.296875 11.75 
Q 45.40625 17.390625 45.40625 27.296875 
Q 45.40625 37.203125 41.296875 42.84375 
Q 37.203125 48.484375 30.078125 48.484375 
Q 22.953125 48.484375 18.875 42.84375 
Q 14.796875 37.203125 14.796875 27.296875 
z
" id="DejaVuSans-100"/>
      <path d="M 9.421875 54.6875 
L 18.40625 54.6875 
L 18.40625 0 
L 9.421875 0 
z
M 9.421875 75.984375 
L 18.40625 75.984375 
L 18.40625 64.59375 
L 9.421875 64.59375 
z
" id="DejaVuSans-105"/>
      <path d="M 52 44.1875 
Q 55.375 50.25 60.0625 53.125 
Q 64.75 56 71.09375 56 
Q 79.640625 56 84.28125 50.015625 
Q 88.921875 44.046875 88.921875 33.015625 
L 88.921875 0 
L 79.890625 0 
L 79.890625 32.71875 
Q 79.890625 40.578125 77.09375 44.375 
Q 74.3125 48.1875 68.609375 48.1875 
Q 61.625 48.1875 57.5625 43.546875 
Q 53.515625 38.921875 53.515625 30.90625 
L 53.515625 0 
L 44.484375 0 
L 44.484375 32.71875 
Q 44.484375 40.625 41.703125 44.40625 
Q 38.921875 48.1875 33.109375 48.1875 
Q 26.21875 48.1875 22.15625 43.53125 
Q 18.109375 38.875 18.109375 30.90625 
L 18.109375 0 
L 9.078125 0 
L 9.078125 54.6875 
L 18.109375 54.6875 
L 18.109375 46.1875 
Q 21.1875 51.21875 25.484375 53.609375 
Q 29.78125 56 35.6875 56 
Q 41.65625 56 45.828125 52.96875 
Q 50 49.953125 52 44.1875 
z
" id="DejaVuSans-109"/>
      <path d="M 54.890625 33.015625 
L 54.890625 0 
L 45.90625 0 
L 45.90625 32.71875 
Q 45.90625 40.484375 42.875 44.328125 
Q 39.84375 48.1875 33.796875 48.1875 
Q 26.515625 48.1875 22.3125 43.546875 
Q 18.109375 38.921875 18.109375 30.90625 
L 18.109375 0 
L 9.078125 0 
L 9.078125 54.6875 
L 18.109375 54.6875 
L 18.109375 46.1875 
Q 21.34375 51.125 25.703125 53.5625 
Q 30.078125 56 35.796875 56 
Q 45.21875 56 50.046875 50.171875 
Q 54.890625 44.34375 54.890625 33.015625 
z
" id="DejaVuSans-110"/>
      <path d="M 8.015625 75.875 
L 15.828125 75.875 
Q 23.140625 64.359375 26.78125 53.3125 
Q 30.421875 42.28125 30.421875 31.390625 
Q 30.421875 20.453125 26.78125 9.375 
Q 23.140625 -1.703125 15.828125 -13.1875 
L 8.015625 -13.1875 
Q 14.5 -2 17.703125 9.0625 
Q 20.90625 20.125 20.90625 31.390625 
Q 20.90625 42.671875 17.703125 53.65625 
Q 14.5 64.65625 8.015625 75.875 
z
" id="DejaVuSans-41"/>
     </defs>
     <g transform="translate(77.303219 342.217594)scale(0.17 -0.17)">
      <use xlink:href="#DejaVuSans-108"/>
      <use x="27.783203" xlink:href="#DejaVuSans-111"/>
      <use x="88.964844" xlink:href="#DejaVuSans-103"/>
      <use x="152.441406" xlink:href="#DejaVuSans-49"/>
      <use x="216.064453" xlink:href="#DejaVuSans-48"/>
      <use x="279.6875" xlink:href="#DejaVuSans-40"/>
      <use x="318.701172" xlink:href="#DejaVuSans-35"/>
      <use x="402.490234" xlink:href="#DejaVuSans-32"/>
      <use x="434.277344" xlink:href="#DejaVuSans-102"/>
      <use x="469.404297" xlink:href="#DejaVuSans-45"/>
      <use x="505.488281" xlink:href="#DejaVuSans-101"/>
      <use x="567.011719" xlink:href="#DejaVuSans-118"/>
      <use x="626.191406" xlink:href="#DejaVuSans-97"/>
      <use x="687.470703" xlink:href="#DejaVuSans-108"/>
      <use x="715.253906" xlink:href="#DejaVuSans-115"/>
      <use x="767.353516" xlink:href="#DejaVuSans-32"/>
      <use x="799.140625" xlink:href="#DejaVuSans-47"/>
      <use x="832.832031" xlink:href="#DejaVuSans-32"/>
      <use x="864.619141" xlink:href="#DejaVuSans-100"/>
      <use x="928.095703" xlink:href="#DejaVuSans-105"/>
      <use x="955.878906" xlink:href="#DejaVuSans-109"/>
      <use x="1053.291016" xlink:href="#DejaVuSans-101"/>
      <use x="1114.814453" xlink:href="#DejaVuSans-110"/>
      <use x="1178.193359" xlink:href="#DejaVuSans-115"/>
      <use x="1230.292969" xlink:href="#DejaVuSans-105"/>
      <use x="1258.076172" xlink:href="#DejaVuSans-111"/>
      <use x="1319.257812" xlink:href="#DejaVuSans-110"/>
      <use x="1382.636719" xlink:href="#DejaVuSans-41"/>
     </g>
    </g>
   </g>
   <g id="matplotlib.axis_2">
    <g id="ytick_1">
     <g id="line2d_21">
      <path clip-path="url(#pe8d30ecc59)" d="M 57.6 298.944 
L 338.688 298.944 
" style="fill:none;stroke:#b0b0b0;stroke-linecap:square;stroke-width:0.8;"/>
     </g>
     <g id="line2d_22">
      <defs>
       <path d="M 0 0 
L -3.5 0 
" id="mf064da87c2" style="stroke:#000000;stroke-width:0.8;"/>
      </defs>
      <g>
       <use style="stroke:#000000;stroke-width:0.8;" x="57.6" xlink:href="#mf064da87c2" y="298.944"/>
      </g>
     </g>
     <g id="text_6">
      <!-- 0.0 -->
      <defs>
       <path d="M 10.6875 12.40625 
L 21 12.40625 
L 21 0 
L 10.6875 0 
z
" id="DejaVuSans-46"/>
      </defs>
      <g transform="translate(25.155 305.02275)scale(0.16 -0.16)">
       <use xlink:href="#DejaVuSans-48"/>
       <use x="63.623047" xlink:href="#DejaVuSans-46"/>
       <use x="95.410156" xlink:href="#DejaVuSans-48"/>
      </g>
     </g>
    </g>
    <g id="ytick_2">
     <g id="line2d_23">
      <path clip-path="url(#pe8d30ecc59)" d="M 57.6 245.22202 
L 338.688 245.22202 
" style="fill:none;stroke:#b0b0b0;stroke-linecap:square;stroke-width:0.8;"/>
     </g>
     <g id="line2d_24">
      <g>
       <use style="stroke:#000000;stroke-width:0.8;" x="57.6" xlink:href="#mf064da87c2" y="245.22202"/>
      </g>
     </g>
     <g id="text_7">
      <!-- 0.2 -->
      <g transform="translate(25.155 251.30077)scale(0.16 -0.16)">
       <use xlink:href="#DejaVuSans-48"/>
       <use x="63.623047" xlink:href="#DejaVuSans-46"/>
       <use x="95.410156" xlink:href="#DejaVuSans-50"/>
      </g>
     </g>
    </g>
    <g id="ytick_3">
     <g id="line2d_25">
      <path clip-path="url(#pe8d30ecc59)" d="M 57.6 191.50004 
L 338.688 191.50004 
" style="fill:none;stroke:#b0b0b0;stroke-linecap:square;stroke-width:0.8;"/>
     </g>
     <g id="line2d_26">
      <g>
       <use style="stroke:#000000;stroke-width:0.8;" x="57.6" xlink:href="#mf064da87c2" y="191.50004"/>
      </g>
     </g>
     <g id="text_8">
      <!-- 0.4 -->
      <g transform="translate(25.155 197.57879)scale(0.16 -0.16)">
       <use xlink:href="#DejaVuSans-48"/>
       <use x="63.623047" xlink:href="#DejaVuSans-46"/>
       <use x="95.410156" xlink:href="#DejaVuSans-52"/>
      </g>
     </g>
    </g>
    <g id="ytick_4">
     <g id="line2d_27">
      <path clip-path="url(#pe8d30ecc59)" d="M 57.6 137.778059 
L 338.688 137.778059 
" style="fill:none;stroke:#b0b0b0;stroke-linecap:square;stroke-width:0.8;"/>
     </g>
     <g id="line2d_28">
      <g>
       <use style="stroke:#000000;stroke-width:0.8;" x="57.6" xlink:href="#mf064da87c2" y="137.778059"/>
      </g>
     </g>
     <g id="text_9">
      <!-- 0.6 -->
      <g transform="translate(25.155 143.856809)scale(0.16 -0.16)">
       <use xlink:href="#DejaVuSans-48"/>
       <use x="63.623047" xlink:href="#DejaVuSans-46"/>
       <use x="95.410156" xlink:href="#DejaVuSans-54"/>
      </g>
     </g>
    </g>
    <g id="ytick_5">
     <g id="line2d_29">
      <path clip-path="url(#pe8d30ecc59)" d="M 57.6 84.056079 
L 338.688 84.056079 
" style="fill:none;stroke:#b0b0b0;stroke-linecap:square;stroke-width:0.8;"/>
     </g>
     <g id="line2d_30">
      <g>
       <use style="stroke:#000000;stroke-width:0.8;" x="57.6" xlink:href="#mf064da87c2" y="84.056079"/>
      </g>
     </g>
     <g id="text_10">
      <!-- 0.8 -->
      <defs>
       <path d="M 31.78125 34.625 
Q 24.75 34.625 20.71875 30.859375 
Q 16.703125 27.09375 16.703125 20.515625 
Q 16.703125 13.921875 20.71875 10.15625 
Q 24.75 6.390625 31.78125 6.390625 
Q 38.8125 6.390625 42.859375 10.171875 
Q 46.921875 13.96875 46.921875 20.515625 
Q 46.921875 27.09375 42.890625 30.859375 
Q 38.875 34.625 31.78125 34.625 
z
M 21.921875 38.8125 
Q 15.578125 40.375 12.03125 44.71875 
Q 8.5 49.078125 8.5 55.328125 
Q 8.5 64.0625 14.71875 69.140625 
Q 20.953125 74.21875 31.78125 74.21875 
Q 42.671875 74.21875 48.875 69.140625 
Q 55.078125 64.0625 55.078125 55.328125 
Q 55.078125 49.078125 51.53125 44.71875 
Q 48 40.375 41.703125 38.8125 
Q 48.828125 37.15625 52.796875 32.3125 
Q 56.78125 27.484375 56.78125 20.515625 
Q 56.78125 9.90625 50.3125 4.234375 
Q 43.84375 -1.421875 31.78125 -1.421875 
Q 19.734375 -1.421875 13.25 4.234375 
Q 6.78125 9.90625 6.78125 20.515625 
Q 6.78125 27.484375 10.78125 32.3125 
Q 14.796875 37.15625 21.921875 38.8125 
z
M 18.3125 54.390625 
Q 18.3125 48.734375 21.84375 45.5625 
Q 25.390625 42.390625 31.78125 42.390625 
Q 38.140625 42.390625 41.71875 45.5625 
Q 45.3125 48.734375 45.3125 54.390625 
Q 45.3125 60.0625 41.71875 63.234375 
Q 38.140625 66.40625 31.78125 66.40625 
Q 25.390625 66.40625 21.84375 63.234375 
Q 18.3125 60.0625 18.3125 54.390625 
z
" id="DejaVuSans-56"/>
      </defs>
      <g transform="translate(25.155 90.134829)scale(0.16 -0.16)">
       <use xlink:href="#DejaVuSans-48"/>
       <use x="63.623047" xlink:href="#DejaVuSans-46"/>
       <use x="95.410156" xlink:href="#DejaVuSans-56"/>
      </g>
     </g>
    </g>
    <g id="ytick_6">
     <g id="line2d_31">
      <path clip-path="url(#pe8d30ecc59)" d="M 57.6 30.334099 
L 338.688 30.334099 
" style="fill:none;stroke:#b0b0b0;stroke-linecap:square;stroke-width:0.8;"/>
     </g>
     <g id="line2d_32">
      <g>
       <use style="stroke:#000000;stroke-width:0.8;" x="57.6" xlink:href="#mf064da87c2" y="30.334099"/>
      </g>
     </g>
     <g id="text_11">
      <!-- 1.0 -->
      <g transform="translate(25.155 36.412849)scale(0.16 -0.16)">
       <use xlink:href="#DejaVuSans-49"/>
       <use x="63.623047" xlink:href="#DejaVuSans-46"/>
       <use x="95.410156" xlink:href="#DejaVuSans-48"/>
      </g>
     </g>
    </g>
    <g id="text_12">
     <!-- Fraction of function,target pairs -->
     <defs>
      <path d="M 9.8125 72.90625 
L 51.703125 72.90625 
L 51.703125 64.59375 
L 19.671875 64.59375 
L 19.671875 43.109375 
L 48.578125 43.109375 
L 48.578125 34.8125 
L 19.671875 34.8125 
L 19.671875 0 
L 9.8125 0 
z
" id="DejaVuSans-70"/>
      <path d="M 41.109375 46.296875 
Q 39.59375 47.171875 37.8125 47.578125 
Q 36.03125 48 33.890625 48 
Q 26.265625 48 22.1875 43.046875 
Q 18.109375 38.09375 18.109375 28.8125 
L 18.109375 0 
L 9.078125 0 
L 9.078125 54.6875 
L 18.109375 54.6875 
L 18.109375 46.1875 
Q 20.953125 51.171875 25.484375 53.578125 
Q 30.03125 56 36.53125 56 
Q 37.453125 56 38.578125 55.875 
Q 39.703125 55.765625 41.0625 55.515625 
z
" id="DejaVuSans-114"/>
      <path d="M 48.78125 52.59375 
L 48.78125 44.1875 
Q 44.96875 46.296875 41.140625 47.34375 
Q 37.3125 48.390625 33.40625 48.390625 
Q 24.65625 48.390625 19.8125 42.84375 
Q 14.984375 37.3125 14.984375 27.296875 
Q 14.984375 17.28125 19.8125 11.734375 
Q 24.65625 6.203125 33.40625 6.203125 
Q 37.3125 6.203125 41.140625 7.25 
Q 44.96875 8.296875 48.78125 10.40625 
L 48.78125 2.09375 
Q 45.015625 0.34375 40.984375 -0.53125 
Q 36.96875 -1.421875 32.421875 -1.421875 
Q 20.0625 -1.421875 12.78125 6.34375 
Q 5.515625 14.109375 5.515625 27.296875 
Q 5.515625 40.671875 12.859375 48.328125 
Q 20.21875 56 33.015625 56 
Q 37.15625 56 41.109375 55.140625 
Q 45.0625 54.296875 48.78125 52.59375 
z
" id="DejaVuSans-99"/>
      <path d="M 18.3125 70.21875 
L 18.3125 54.6875 
L 36.8125 54.6875 
L 36.8125 47.703125 
L 18.3125 47.703125 
L 18.3125 18.015625 
Q 18.3125 11.328125 20.140625 9.421875 
Q 21.96875 7.515625 27.59375 7.515625 
L 36.8125 7.515625 
L 36.8125 0 
L 27.59375 0 
Q 17.1875 0 13.234375 3.875 
Q 9.28125 7.765625 9.28125 18.015625 
L 9.28125 47.703125 
L 2.6875 47.703125 
L 2.6875 54.6875 
L 9.28125 54.6875 
L 9.28125 70.21875 
z
" id="DejaVuSans-116"/>
      <path d="M 8.5 21.578125 
L 8.5 54.6875 
L 17.484375 54.6875 
L 17.484375 21.921875 
Q 17.484375 14.15625 20.5 10.265625 
Q 23.53125 6.390625 29.59375 6.390625 
Q 36.859375 6.390625 41.078125 11.03125 
Q 45.3125 15.671875 45.3125 23.6875 
L 45.3125 54.6875 
L 54.296875 54.6875 
L 54.296875 0 
L 45.3125 0 
L 45.3125 8.40625 
Q 42.046875 3.421875 37.71875 1 
Q 33.40625 -1.421875 27.6875 -1.421875 
Q 18.265625 -1.421875 13.375 4.4375 
Q 8.5 10.296875 8.5 21.578125 
z
M 31.109375 56 
z
" id="DejaVuSans-117"/>
      <path d="M 11.71875 12.40625 
L 22.015625 12.40625 
L 22.015625 4 
L 14.015625 -11.625 
L 7.71875 -11.625 
L 11.71875 4 
z
" id="DejaVuSans-44"/>
      <path d="M 18.109375 8.203125 
L 18.109375 -20.796875 
L 9.078125 -20.796875 
L 9.078125 54.6875 
L 18.109375 54.6875 
L 18.109375 46.390625 
Q 20.953125 51.265625 25.265625 53.625 
Q 29.59375 56 35.59375 56 
Q 45.5625 56 51.78125 48.09375 
Q 58.015625 40.1875 58.015625 27.296875 
Q 58.015625 14.40625 51.78125 6.484375 
Q 45.5625 -1.421875 35.59375 -1.421875 
Q 29.59375 -1.421875 25.265625 0.953125 
Q 20.953125 3.328125 18.109375 8.203125 
z
M 48.6875 27.296875 
Q 48.6875 37.203125 44.609375 42.84375 
Q 40.53125 48.484375 33.40625 48.484375 
Q 26.265625 48.484375 22.1875 42.84375 
Q 18.109375 37.203125 18.109375 27.296875 
Q 18.109375 17.390625 22.1875 11.75 
Q 26.265625 6.109375 33.40625 6.109375 
Q 40.53125 6.109375 44.609375 11.75 
Q 48.6875 17.390625 48.6875 27.296875 
z
" id="DejaVuSans-112"/>
     </defs>
     <g transform="translate(17.619531 298.435375)rotate(-90)scale(0.17 -0.17)">
      <use xlink:href="#DejaVuSans-70"/>
      <use x="57.410156" xlink:href="#DejaVuSans-114"/>
      <use x="98.523438" xlink:href="#DejaVuSans-97"/>
      <use x="159.802734" xlink:href="#DejaVuSans-99"/>
      <use x="214.783203" xlink:href="#DejaVuSans-116"/>
      <use x="253.992188" xlink:href="#DejaVuSans-105"/>
      <use x="281.775391" xlink:href="#DejaVuSans-111"/>
      <use x="342.957031" xlink:href="#DejaVuSans-110"/>
      <use x="406.335938" xlink:href="#DejaVuSans-32"/>
      <use x="438.123047" xlink:href="#DejaVuSans-111"/>
      <use x="499.304688" xlink:href="#DejaVuSans-102"/>
      <use x="534.509766" xlink:href="#DejaVuSans-32"/>
      <use x="566.296875" xlink:href="#DejaVuSans-102"/>
      <use x="601.501953" xlink:href="#DejaVuSans-117"/>
      <use x="664.880859" xlink:href="#DejaVuSans-110"/>
      <use x="728.259766" xlink:href="#DejaVuSans-99"/>
      <use x="783.240234" xlink:href="#DejaVuSans-116"/>
      <use x="822.449219" xlink:href="#DejaVuSans-105"/>
      <use x="850.232422" xlink:href="#DejaVuSans-111"/>
      <use x="911.414062" xlink:href="#DejaVuSans-110"/>
      <use x="974.792969" xlink:href="#DejaVuSans-44"/>
      <use x="1006.580078" xlink:href="#DejaVuSans-116"/>
      <use x="1045.789062" xlink:href="#DejaVuSans-97"/>
      <use x="1107.068359" xlink:href="#DejaVuSans-114"/>
      <use x="1148.166016" xlink:href="#DejaVuSans-103"/>
      <use x="1211.642578" xlink:href="#DejaVuSans-101"/>
      <use x="1273.166016" xlink:href="#DejaVuSans-116"/>
      <use x="1312.375" xlink:href="#DejaVuSans-32"/>
      <use x="1344.162109" xlink:href="#DejaVuSans-112"/>
      <use x="1407.638672" xlink:href="#DejaVuSans-97"/>
      <use x="1468.917969" xlink:href="#DejaVuSans-105"/>
      <use x="1496.701172" xlink:href="#DejaVuSans-114"/>
      <use x="1537.814453" xlink:href="#DejaVuSans-115"/>
     </g>
    </g>
   </g>
   <g id="line2d_33">
    <defs>
     <path d="M 0 1.5 
C 0.397805 1.5 0.77937 1.341951 1.06066 1.06066 
C 1.341951 0.77937 1.5 0.397805 1.5 0 
C 1.5 -0.397805 1.341951 -0.77937 1.06066 -1.06066 
C 0.77937 -1.341951 0.397805 -1.5 0 -1.5 
C -0.397805 -1.5 -0.77937 -1.341951 -1.06066 -1.06066 
C -1.341951 -0.77937 -1.5 -0.397805 -1.5 0 
C -1.5 0.397805 -1.341951 0.77937 -1.06066 1.06066 
C -0.77937 1.341951 -0.397805 1.5 0 1.5 
z
" id="m8d94014edc" style="stroke:#f5deb3;"/>
    </defs>
    <g>
     <use style="fill:#f5deb3;stroke:#f5deb3;" x="211.384894" xlink:href="#m8d94014edc" y="30.334099"/>
     <use style="fill:#f5deb3;stroke:#f5deb3;" x="211.384894" xlink:href="#m8d94014edc" y="30.334099"/>
    </g>
   </g>
   <g id="line2d_34">
    <defs>
     <path d="M 0 1.5 
C 0.397805 1.5 0.77937 1.341951 1.06066 1.06066 
C 1.341951 0.77937 1.5 0.397805 1.5 0 
C 1.5 -0.397805 1.341951 -0.77937 1.06066 -1.06066 
C 0.77937 -1.341951 0.397805 -1.5 0 -1.5 
C -0.397805 -1.5 -0.77937 -1.341951 -1.06066 -1.06066 
C -1.341951 -0.77937 -1.5 -0.397805 -1.5 0 
C -1.5 0.397805 -1.341951 0.77937 -1.06066 1.06066 
C -0.77937 1.341951 -0.397805 1.5 0 1.5 
z
" id="mcf58225666" style="stroke:#000080;"/>
    </defs>
    <g>
     <use style="fill:#000080;stroke:#000080;" x="268.692652" xlink:href="#mcf58225666" y="241.008531"/>
     <use style="fill:#000080;stroke:#000080;" x="268.692652" xlink:href="#mcf58225666" y="241.008531"/>
    </g>
   </g>
   <g id="line2d_35">
    <path d="M 5.356583 298.944 
L 5.356583 293.677139 
L 71.35013 293.677139 
L 71.35013 293.150453 
L 75.86449 293.150453 
L 75.86449 292.623767 
L 81.334453 292.623767 
L 81.334453 292.097081 
L 83.037197 292.097081 
L 83.037197 291.570395 
L 83.23881 291.570395 
L 83.23881 291.043709 
L 87.329581 291.043709 
L 87.329581 290.517023 
L 88.104788 290.517023 
L 88.104788 289.463651 
L 89.697862 289.463651 
L 89.697862 288.936964 
L 90.108217 288.936964 
L 90.108217 288.410278 
L 90.640756 288.410278 
L 90.640756 287.883592 
L 91.659398 287.883592 
L 91.659398 287.356906 
L 91.905025 287.356906 
L 91.905025 286.83022 
L 92.386139 286.83022 
L 92.386139 285.250162 
L 93.422441 285.250162 
L 93.422441 284.723476 
L 93.754628 284.723476 
L 93.754628 284.19679 
L 97.928955 284.19679 
L 97.928955 283.670104 
L 98.43941 283.670104 
L 98.43941 283.143418 
L 98.771596 283.143418 
L 98.771596 282.616732 
L 99.016649 282.616732 
L 99.016649 282.090045 
L 99.258306 282.090045 
L 99.258306 281.563359 
L 100.268435 281.563359 
L 100.343767 279.983301 
L 101.785851 279.983301 
L 101.785851 278.929929 
L 101.992235 278.929929 
L 101.992235 278.403243 
L 103.685435 278.403243 
L 103.685435 277.876557 
L 104.23523 277.876557 
L 104.23523 277.349871 
L 104.474128 277.349871 
L 104.474128 276.823185 
L 104.651178 276.823185 
L 104.651178 276.296499 
L 104.826449 276.296499 
L 104.826449 275.769812 
L 105.114708 275.769812 
L 105.114708 275.243126 
L 105.454445 275.243126 
L 105.454445 274.71644 
L 106.802819 274.71644 
L 106.802819 274.189754 
L 107.314272 274.189754 
L 107.314272 273.663068 
L 108.150731 273.663068 
L 108.150731 272.609696 
L 108.341848 272.609696 
L 108.341848 272.08301 
L 108.671345 272.08301 
L 108.671345 271.556324 
L 108.902946 271.556324 
L 108.902946 271.029638 
L 109.31223 271.029638 
L 109.31223 270.502952 
L 109.446552 270.502952 
L 109.491096 269.449579 
L 109.843417 269.449579 
L 109.843417 268.922893 
L 109.973724 268.922893 
L 109.973724 268.396207 
L 110.900667 268.396207 
L 110.900667 267.869521 
L 112.242812 267.869521 
L 112.242812 267.342835 
L 112.950158 267.342835 
L 112.950158 266.816149 
L 113.73488 266.816149 
L 113.73488 266.289463 
L 116.202531 266.289463 
L 116.202531 265.762777 
L 117.087964 265.762777 
L 117.087964 265.236091 
L 117.958004 265.236091 
L 117.958004 264.709405 
L 119.020084 264.709405 
L 119.020084 264.182719 
L 120.118198 264.182719 
L 120.118198 263.656033 
L 120.944859 263.656033 
L 120.944859 263.129347 
L 121.310093 263.129347 
L 121.310093 262.60266 
L 129.616397 262.60266 
L 129.616397 262.075974 
L 152.970072 262.075974 
L 152.970072 261.549288 
L 153.290669 261.549288 
L 153.290669 261.022602 
L 153.630278 261.022602 
L 153.630278 260.495916 
L 153.907739 260.495916 
L 153.9634 259.442544 
L 154.132765 259.442544 
L 154.132765 258.915858 
L 154.426099 258.915858 
L 154.426099 258.389172 
L 154.833936 258.389172 
L 154.833936 257.862486 
L 155.370772 257.862486 
L 155.399584 256.809114 
L 155.757342 256.809114 
L 155.757342 256.282427 
L 155.928852 256.282427 
L 155.928852 255.755741 
L 156.481653 255.755741 
L 156.481653 255.229055 
L 157.1279 255.229055 
L 157.1279 254.702369 
L 168.142064 254.702369 
L 168.142064 254.175683 
L 168.854402 254.175683 
L 168.854402 253.648997 
L 169.899034 253.648997 
L 169.899034 253.122311 
L 170.243804 253.122311 
L 170.243804 252.595625 
L 170.577871 252.595625 
L 170.577871 252.068939 
L 182.032924 252.068939 
L 182.032924 251.542253 
L 230.335276 251.542253 
L 230.433127 247.85545 
L 230.557533 247.85545 
L 230.655816 246.802078 
L 230.68093 246.802078 
L 230.68093 246.275392 
L 242.483434 246.275392 
L 242.507886 244.168648 
L 249.518169 244.168648 
L 249.559016 243.115275 
L 249.633804 243.115275 
L 249.730205 242.061903 
L 258.404632 242.061903 
L 258.404632 241.535217 
L 268.692652 241.535217 
L 268.692652 241.008531 
L 338.688 241.008531 
L 338.688 241.008531 
" style="fill:none;stroke:#000080;stroke-linecap:square;stroke-width:1.5;"/>
   </g>
   <g id="line2d_36">
    <defs>
     <path d="M 0 6 
C 1.591219 6 3.117479 5.367802 4.242641 4.242641 
C 5.367802 3.117479 6 1.591219 6 0 
C 6 -1.591219 5.367802 -3.117479 4.242641 -4.242641 
C 3.117479 -5.367802 1.591219 -6 0 -6 
C -1.591219 -6 -3.117479 -5.367802 -4.242641 -4.242641 
C -5.367802 -3.117479 -6 -1.591219 -6 0 
C -6 1.591219 -5.367802 3.117479 -4.242641 4.242641 
C -3.117479 5.367802 -1.591219 6 0 6 
z
" id="mc286e495a1" style="stroke:#000080;stroke-width:1.5;"/>
    </defs>
    <g>
     <use style="fill-opacity:0;stroke:#000080;stroke-width:1.5;" x="88.104788" xlink:href="#mc286e495a1" y="289.463651"/>
     <use style="fill-opacity:0;stroke:#000080;stroke-width:1.5;" x="168.854402" xlink:href="#mc286e495a1" y="254.175683"/>
     <use style="fill-opacity:0;stroke:#000080;stroke-width:1.5;" x="230.68093" xlink:href="#mc286e495a1" y="246.802078"/>
     <use style="fill-opacity:0;stroke:#000080;stroke-width:1.5;" x="268.692652" xlink:href="#mc286e495a1" y="241.008531"/>
     <use style="fill-opacity:0;stroke:#000080;stroke-width:1.5;" x="268.692652" xlink:href="#mc286e495a1" y="241.008531"/>
     <use style="fill-opacity:0;stroke:#000080;stroke-width:1.5;" x="338.688" xlink:href="#mc286e495a1" y="241.008531"/>
    </g>
   </g>
   <g id="line2d_37">
    <path style="fill:none;stroke:#000080;stroke-linecap:square;stroke-width:1.5;"/>
    <g/>
   </g>
   <g id="line2d_38">
    <path clip-path="url(#pe8d30ecc59)" d="M 230.378887 249.962195 
" style="fill:none;stroke:#000080;stroke-linecap:square;stroke-width:1.5;"/>
    <defs>
     <path d="M -12 12 
L 12 -12 
M -12 -12 
L 12 12 
" id="m0c6e510aa5" style="stroke:#000080;"/>
    </defs>
    <g clip-path="url(#pe8d30ecc59)">
     <use style="fill:#000080;stroke:#000080;" x="230.378887" xlink:href="#m0c6e510aa5" y="249.962195"/>
    </g>
   </g>
   <g id="line2d_39">
    <g>
     <use style="fill:#000080;stroke:#000080;" x="272.120664" xlink:href="#mcf58225666" y="241.008531"/>
     <use style="fill:#000080;stroke:#000080;" x="272.120664" xlink:href="#mcf58225666" y="241.008531"/>
    </g>
   </g>
   <g id="line2d_40">
    <path d="M 5.356583 298.944 
L 5.356583 293.677139 
L 77.047268 293.677139 
L 77.047268 293.150453 
L 80.881459 293.150453 
L 80.881459 292.623767 
L 81.109427 292.623767 
L 81.109427 292.097081 
L 81.334453 292.097081 
L 81.334453 291.570395 
L 81.775977 291.570395 
L 81.775977 291.043709 
L 84.02273 291.043709 
L 84.02273 290.517023 
L 84.588378 290.517023 
L 84.588378 289.990337 
L 85.315119 289.990337 
L 85.315119 288.936964 
L 86.351421 288.936964 
L 86.351421 288.410278 
L 89.697862 288.410278 
L 89.697862 287.883592 
L 91.029752 287.883592 
L 91.029752 287.356906 
L 92.147241 287.356906 
L 92.147241 286.83022 
L 92.267099 286.83022 
L 92.267099 286.303534 
L 92.73846 286.303534 
L 92.73846 285.776848 
L 93.422441 285.776848 
L 93.422441 285.250162 
L 94.187924 285.250162 
L 94.187924 284.723476 
L 95.820862 284.723476 
L 95.820862 284.19679 
L 97.403108 284.19679 
L 97.403108 283.670104 
L 97.580158 283.670104 
L 97.580158 283.143418 
L 97.842408 283.143418 
L 97.842408 282.616732 
L 99.80948 282.616732 
L 99.80948 282.090045 
L 100.192776 282.090045 
L 100.192776 281.563359 
L 100.418775 281.563359 
L 100.418775 281.036673 
L 100.567829 281.036673 
L 100.567829 280.509987 
L 101.576995 280.509987 
L 101.576995 279.456615 
L 102.794183 279.456615 
L 102.794183 278.929929 
L 103.560868 278.929929 
L 103.560868 278.403243 
L 104.114542 278.403243 
L 104.17499 277.349871 
L 104.651178 277.349871 
L 104.651178 276.296499 
L 105.677314 276.296499 
L 105.677314 275.769812 
L 106.646412 275.769812 
L 106.646412 275.243126 
L 107.009204 275.243126 
L 107.009204 274.71644 
L 107.263796 274.71644 
L 107.263796 274.189754 
L 108.389302 274.189754 
L 108.389302 273.663068 
L 109.131511 273.663068 
L 109.131511 273.136382 
L 109.756002 273.136382 
L 109.756002 272.609696 
L 109.930396 272.609696 
L 109.930396 272.08301 
L 110.900667 272.08301 
L 110.941652 271.029638 
L 111.185562 271.029638 
L 111.185562 270.502952 
L 111.974805 270.502952 
L 111.974805 269.976266 
L 112.242812 269.976266 
L 112.242812 269.449579 
L 112.766778 269.449579 
L 112.766778 268.922893 
L 113.022974 268.922893 
L 113.022974 268.396207 
L 114.0117 268.396207 
L 114.0117 267.869521 
L 115.554844 267.869521 
L 115.586238 266.816149 
L 116.232781 266.816149 
L 116.232781 266.289463 
L 116.562116 266.289463 
L 116.562116 265.762777 
L 116.972471 265.762777 
L 116.972471 265.236091 
L 119.020084 265.236091 
L 119.020084 264.709405 
L 119.40226 264.709405 
L 119.40226 264.182719 
L 154.621179 264.182719 
L 154.621179 263.656033 
L 154.991819 263.656033 
L 154.991819 263.129347 
L 155.444309 263.129347 
L 155.444309 262.60266 
L 155.716556 262.60266 
L 155.716556 262.075974 
L 157.072772 262.075974 
L 157.072772 261.549288 
L 169.302579 261.549288 
L 169.403177 260.495916 
L 169.871155 260.495916 
L 169.871155 259.96923 
L 170.205527 259.96923 
L 170.205527 259.442544 
L 170.532264 259.442544 
L 170.532264 258.915858 
L 170.90303 258.915858 
L 170.90303 258.389172 
L 180.295399 258.389172 
L 180.295399 257.862486 
L 180.583821 257.862486 
L 180.583821 257.3358 
L 180.873491 257.3358 
L 180.873491 256.809114 
L 181.069104 256.809114 
L 181.069104 256.282427 
L 181.825407 256.282427 
L 181.934714 255.229055 
L 181.971695 255.229055 
L 181.971695 254.702369 
L 182.173355 254.702369 
L 182.173355 254.175683 
L 182.350217 254.175683 
L 182.350217 253.648997 
L 182.500978 253.648997 
L 182.500978 253.122311 
L 182.65983 253.122311 
L 182.65983 252.595625 
L 182.82256 252.595625 
L 182.82256 252.068939 
L 183.050088 252.068939 
L 183.050088 251.542253 
L 193.250797 251.542253 
L 193.250797 251.015567 
L 193.539703 251.015567 
L 193.539703 250.488881 
L 193.754525 250.488881 
L 193.754525 249.962195 
L 213.669588 249.962195 
L 213.669588 249.435508 
L 246.989343 249.435508 
L 246.991621 248.382136 
L 247.210101 248.382136 
L 247.272667 247.328764 
L 247.621204 247.328764 
L 247.621204 246.802078 
L 247.980664 246.802078 
L 248.003677 245.22202 
L 248.135697 245.22202 
L 248.219656 244.168648 
L 248.881446 244.168648 
L 248.881446 243.641962 
L 250.151854 243.641962 
L 250.151854 243.115275 
L 259.754067 243.115275 
L 259.754067 242.588589 
L 259.973963 242.588589 
L 259.973963 242.061903 
L 271.921893 242.061903 
L 271.921893 241.535217 
L 272.120664 241.535217 
L 272.120664 241.008531 
L 338.688 241.008531 
L 338.688 241.008531 
" style="fill:none;stroke:#000080;stroke-linecap:square;stroke-width:1.5;"/>
   </g>
   <g id="line2d_41">
    <g>
     <use style="fill-opacity:0;stroke:#000080;stroke-width:1.5;" x="119.40226" xlink:href="#mc286e495a1" y="264.709405"/>
     <use style="fill-opacity:0;stroke:#000080;stroke-width:1.5;" x="193.754525" xlink:href="#mc286e495a1" y="249.962195"/>
     <use style="fill-opacity:0;stroke:#000080;stroke-width:1.5;" x="272.120664" xlink:href="#mc286e495a1" y="241.535217"/>
     <use style="fill-opacity:0;stroke:#000080;stroke-width:1.5;" x="272.120664" xlink:href="#mc286e495a1" y="241.008531"/>
     <use style="fill-opacity:0;stroke:#000080;stroke-width:1.5;" x="338.688" xlink:href="#mc286e495a1" y="241.008531"/>
    </g>
   </g>
   <g id="line2d_42">
    <path style="fill:none;stroke:#000080;stroke-linecap:square;stroke-width:1.5;"/>
    <g/>
   </g>
   <g id="line2d_43">
    <path clip-path="url(#pe8d30ecc59)" d="M 247.346453 247.328764 
" style="fill:none;stroke:#000080;stroke-linecap:square;stroke-width:1.5;"/>
    <g clip-path="url(#pe8d30ecc59)">
     <use style="fill:#000080;stroke:#000080;" x="247.346453" xlink:href="#m0c6e510aa5" y="247.328764"/>
    </g>
   </g>
   <g id="line2d_44">
    <defs>
     <path d="M 0 1.5 
C 0.397805 1.5 0.77937 1.341951 1.06066 1.06066 
C 1.341951 0.77937 1.5 0.397805 1.5 0 
C 1.5 -0.397805 1.341951 -0.77937 1.06066 -1.06066 
C 0.77937 -1.341951 0.397805 -1.5 0 -1.5 
C -0.397805 -1.5 -0.77937 -1.341951 -1.06066 -1.06066 
C -1.341951 -0.77937 -1.5 -0.397805 -1.5 0 
C -1.5 0.397805 -1.341951 0.77937 -1.06066 1.06066 
C -0.77937 1.341951 -0.397805 1.5 0 1.5 
z
" id="mdf6b5740d8" style="stroke:#ff00ff;"/>
    </defs>
    <g>
     <use style="fill:#ff00ff;stroke:#ff00ff;" x="272.565966" xlink:href="#mdf6b5740d8" y="241.008531"/>
     <use style="fill:#ff00ff;stroke:#ff00ff;" x="272.565966" xlink:href="#mdf6b5740d8" y="241.008531"/>
    </g>
   </g>
   <g id="line2d_45">
    <path d="M 5.356583 298.944 
L 5.356583 293.677139 
L 63.467834 293.677139 
L 63.467834 293.150453 
L 69.687988 293.150453 
L 69.687988 292.623767 
L 73.579452 292.623767 
L 73.579452 292.097081 
L 74.263433 292.097081 
L 74.263433 291.570395 
L 75.241593 291.570395 
L 75.241593 291.043709 
L 75.555822 291.043709 
L 75.555822 290.517023 
L 77.330839 290.517023 
L 77.330839 289.463651 
L 77.609874 289.463651 
L 77.609874 288.936964 
L 80.416384 288.936964 
L 80.416384 288.410278 
L 80.881459 288.410278 
L 80.881459 287.883592 
L 81.992617 287.883592 
L 81.992617 287.356906 
L 83.438118 287.356906 
L 83.438118 286.83022 
L 83.635174 286.83022 
L 83.635174 286.303534 
L 84.213325 286.303534 
L 84.213325 285.776848 
L 85.492169 285.776848 
L 85.492169 285.250162 
L 85.66744 285.250162 
L 85.66744 284.723476 
L 85.840967 284.723476 
L 85.840967 284.19679 
L 87.329581 284.19679 
L 87.329581 283.670104 
L 87.643811 283.670104 
L 87.643811 283.143418 
L 89.135256 283.143418 
L 89.135256 282.616732 
L 89.418828 282.616732 
L 89.418828 282.090045 
L 90.901048 282.090045 
L 90.901048 281.563359 
L 91.157513 281.563359 
L 91.157513 281.036673 
L 93.644601 281.036673 
L 93.644601 280.509987 
L 95.125186 280.509987 
L 95.125186 279.983301 
L 96.110718 279.983301 
L 96.110718 279.456615 
L 96.301313 279.456615 
L 96.301313 278.929929 
L 97.224242 278.929929 
L 97.224242 278.403243 
L 98.355365 278.403243 
L 98.355365 277.876557 
L 99.41757 277.876557 
L 99.41757 277.349871 
L 99.731799 277.349871 
L 99.731799 276.823185 
L 101.079711 276.823185 
L 101.079711 276.296499 
L 102.060491 276.296499 
L 102.060491 275.769812 
L 102.263669 275.769812 
L 102.263669 275.243126 
L 103.498249 275.243126 
L 103.498249 274.71644 
L 104.23523 274.71644 
L 104.23523 274.189754 
L 104.942325 274.189754 
L 104.999975 273.136382 
L 106.006367 273.136382 
L 106.006367 272.609696 
L 108.150731 272.609696 
L 108.198707 271.556324 
L 109.756002 271.556324 
L 109.799764 270.502952 
L 110.316522 270.502952 
L 110.316522 269.976266 
L 110.735755 269.976266 
L 110.818406 268.922893 
L 111.780817 268.922893 
L 111.780817 268.396207 
L 112.204777 268.396207 
L 112.204777 267.869521 
L 112.506763 267.869521 
L 112.506763 267.342835 
L 114.216469 267.342835 
L 114.216469 266.816149 
L 114.418861 266.816149 
L 114.418861 266.289463 
L 117.40168 266.289463 
L 117.40168 265.762777 
L 118.968488 265.762777 
L 118.968488 265.236091 
L 119.552816 265.236091 
L 119.552816 264.709405 
L 151.597455 264.709405 
L 151.597455 264.182719 
L 151.971323 264.182719 
L 151.971323 263.656033 
L 152.977424 263.656033 
L 152.977424 263.129347 
L 153.584194 263.129347 
L 153.584194 262.60266 
L 154.415949 262.60266 
L 154.415949 262.075974 
L 154.797553 262.075974 
L 154.797553 261.549288 
L 155.203364 261.549288 
L 155.203364 261.022602 
L 156.791534 261.022602 
L 156.791534 260.495916 
L 157.289376 260.495916 
L 157.289376 259.96923 
L 168.473175 259.96923 
L 168.473175 259.442544 
L 169.143315 259.442544 
L 169.143315 258.915858 
L 169.725465 258.915858 
L 169.725465 258.389172 
L 170.347277 258.389172 
L 170.347277 257.862486 
L 174.253123 257.862486 
L 174.253123 257.3358 
L 174.641561 257.3358 
L 174.726249 256.282427 
L 174.953915 256.282427 
L 174.953915 255.755741 
L 182.668539 255.755741 
L 182.668539 255.229055 
L 183.815378 255.229055 
L 183.815378 254.702369 
L 219.831141 254.702369 
L 219.831141 254.175683 
L 220.495046 254.175683 
L 220.495046 253.648997 
L 221.367304 253.648997 
L 221.384478 252.595625 
L 221.926277 252.595625 
L 221.926277 252.068939 
L 222.660937 252.068939 
L 222.660937 251.542253 
L 231.569828 251.542253 
L 231.569828 251.015567 
L 231.836443 251.015567 
L 231.836443 250.488881 
L 233.127557 250.488881 
L 233.127557 249.962195 
L 233.248763 249.962195 
L 233.261615 248.908822 
L 233.373852 248.908822 
L 233.373852 248.382136 
L 233.690319 248.382136 
L 233.690319 247.85545 
L 239.713984 247.85545 
L 239.823579 246.802078 
L 241.221282 246.802078 
L 241.221282 246.275392 
L 248.510546 246.275392 
L 248.510546 245.748706 
L 249.155393 245.748706 
L 249.222954 244.695334 
L 249.339254 244.695334 
L 249.339254 244.168648 
L 252.805792 244.168648 
L 252.805792 243.641962 
L 254.617176 243.641962 
L 254.617176 243.115275 
L 255.070603 243.115275 
L 255.070603 242.588589 
L 257.537756 242.588589 
L 257.537756 242.061903 
L 259.08687 242.061903 
L 259.08687 241.535217 
L 272.565966 241.535217 
L 272.565966 241.008531 
L 338.688 241.008531 
L 338.688 241.008531 
" style="fill:none;stroke:#ff00ff;stroke-linecap:square;stroke-width:1.5;"/>
   </g>
   <g id="line2d_46">
    <defs>
     <path d="M -0 8.485281 
L 5.091169 0 
L 0 -8.485281 
L -5.091169 -0 
z
" id="m207c2e40c1" style="stroke:#ff00ff;stroke-linejoin:miter;stroke-width:1.5;"/>
    </defs>
    <g>
     <use style="fill-opacity:0;stroke:#ff00ff;stroke-linejoin:miter;stroke-width:1.5;" x="119.552816" xlink:href="#m207c2e40c1" y="264.709405"/>
     <use style="fill-opacity:0;stroke:#ff00ff;stroke-linejoin:miter;stroke-width:1.5;" x="183.815378" xlink:href="#m207c2e40c1" y="255.229055"/>
     <use style="fill-opacity:0;stroke:#ff00ff;stroke-linejoin:miter;stroke-width:1.5;" x="272.565966" xlink:href="#m207c2e40c1" y="241.535217"/>
     <use style="fill-opacity:0;stroke:#ff00ff;stroke-linejoin:miter;stroke-width:1.5;" x="272.565966" xlink:href="#m207c2e40c1" y="241.008531"/>
     <use style="fill-opacity:0;stroke:#ff00ff;stroke-linejoin:miter;stroke-width:1.5;" x="338.688" xlink:href="#m207c2e40c1" y="241.008531"/>
    </g>
   </g>
   <g id="line2d_47">
    <path style="fill:none;stroke:#ff00ff;stroke-linecap:square;stroke-width:1.5;"/>
    <g/>
   </g>
   <g id="line2d_48">
    <path clip-path="url(#pe8d30ecc59)" d="M 221.175651 253.648997 
" style="fill:none;stroke:#ff00ff;stroke-linecap:square;stroke-width:1.5;"/>
    <defs>
     <path d="M -12 12 
L 12 -12 
M -12 -12 
L 12 12 
" id="mc4c6c7fcd2" style="stroke:#ff00ff;"/>
    </defs>
    <g clip-path="url(#pe8d30ecc59)">
     <use style="fill:#ff00ff;stroke:#ff00ff;" x="221.175651" xlink:href="#mc4c6c7fcd2" y="253.648997"/>
    </g>
   </g>
   <g id="line2d_49">
    <defs>
     <path d="M 0 1.5 
C 0.397805 1.5 0.77937 1.341951 1.06066 1.06066 
C 1.341951 0.77937 1.5 0.397805 1.5 0 
C 1.5 -0.397805 1.341951 -0.77937 1.06066 -1.06066 
C 0.77937 -1.341951 0.397805 -1.5 0 -1.5 
C -0.397805 -1.5 -0.77937 -1.341951 -1.06066 -1.06066 
C -1.341951 -0.77937 -1.5 -0.397805 -1.5 0 
C -1.5 0.397805 -1.341951 0.77937 -1.06066 1.06066 
C -0.77937 1.341951 -0.397805 1.5 0 1.5 
z
" id="mec1bafc80a" style="stroke:#ff0000;"/>
    </defs>
    <g>
     <use style="fill:#ff0000;stroke:#ff0000;" x="306.366905" xlink:href="#mec1bafc80a" y="30.334099"/>
     <use style="fill:#ff0000;stroke:#ff0000;" x="306.366905" xlink:href="#mec1bafc80a" y="30.334099"/>
    </g>
   </g>
   <g id="line2d_50">
    <path d="M 5.356583 298.944 
L 5.356583 293.677139 
L 61.491463 293.677139 
L 61.491463 293.150453 
L 70.538854 293.150453 
L 70.538854 292.623767 
L 76.759008 292.623767 
L 76.759008 292.097081 
L 79.938565 292.097081 
L 79.938565 291.570395 
L 80.881459 291.570395 
L 80.881459 291.043709 
L 83.037197 291.043709 
L 83.037197 290.517023 
L 83.438118 290.517023 
L 83.438118 289.990337 
L 84.213325 289.990337 
L 84.213325 289.463651 
L 85.492169 289.463651 
L 85.492169 288.936964 
L 86.351421 288.936964 
L 86.351421 288.410278 
L 86.683608 288.410278 
L 86.683608 287.883592 
L 87.643811 287.883592 
L 87.643811 287.356906 
L 88.553893 287.356906 
L 88.553893 286.83022 
L 89.135256 286.83022 
L 89.135256 286.303534 
L 89.418828 286.303534 
L 89.418828 285.776848 
L 90.242884 285.776848 
L 90.242884 285.250162 
L 92.386139 285.250162 
L 92.386139 284.723476 
L 93.644601 284.723476 
L 93.754628 283.670104 
L 93.972622 283.670104 
L 93.972622 283.143418 
L 94.610715 283.143418 
L 94.610715 282.616732 
L 95.023499 282.616732 
L 95.023499 282.090045 
L 95.226283 282.090045 
L 95.226283 281.563359 
L 97.134116 281.563359 
L 97.134116 281.036673 
L 99.653771 281.036673 
L 99.653771 280.509987 
L 99.963811 280.509987 
L 99.963811 279.983301 
L 100.641881 279.983301 
L 100.641881 279.456615 
L 102.12848 279.456615 
L 102.12848 278.403243 
L 102.859376 278.403243 
L 102.859376 277.876557 
L 103.93193 277.876557 
L 103.93193 277.349871 
L 104.295262 277.349871 
L 104.295262 276.296499 
L 104.826449 276.296499 
L 104.826449 275.769812 
L 105.454445 275.769812 
L 105.454445 274.71644 
L 105.787689 274.71644 
L 105.787689 274.189754 
L 106.48859 274.189754 
L 106.48859 273.663068 
L 106.854645 273.663068 
L 106.957836 272.609696 
L 107.06042 272.609696 
L 107.06042 272.08301 
L 107.314272 272.08301 
L 107.314272 271.556324 
L 107.564481 271.556324 
L 107.564481 271.029638 
L 109.267226 271.029638 
L 109.267226 270.502952 
L 109.756002 270.502952 
L 109.756002 269.976266 
L 112.58145 269.976266 
L 112.58145 269.449579 
L 112.72987 269.449579 
L 112.72987 268.922893 
L 114.351658 268.922893 
L 114.351658 268.396207 
L 114.718113 268.396207 
L 114.718113 267.869521 
L 115.33349 267.869521 
L 115.33349 267.342835 
L 115.617575 267.342835 
L 115.617575 266.816149 
L 115.958621 266.816149 
L 115.958621 266.289463 
L 117.654224 266.289463 
L 117.654224 265.762777 
L 118.310324 265.762777 
L 118.310324 265.236091 
L 122.699028 265.236091 
L 122.699028 264.709405 
L 155.306575 264.709405 
L 155.306575 264.182719 
L 165.787165 264.182719 
L 165.787165 263.656033 
L 166.172531 263.656033 
L 166.172531 263.129347 
L 166.321931 263.129347 
L 166.321931 262.60266 
L 166.58834 262.60266 
L 166.58834 262.075974 
L 167.096171 262.075974 
L 167.096171 261.549288 
L 167.627751 261.549288 
L 167.627751 261.022602 
L 168.371612 261.022602 
L 168.371612 260.495916 
L 170.182246 260.495916 
L 170.182246 259.96923 
L 170.597954 259.96923 
L 170.597954 259.442544 
L 171.000061 259.442544 
L 171.000061 258.915858 
L 171.498894 258.915858 
L 171.498894 258.389172 
L 179.355063 258.389172 
L 179.355063 257.862486 
L 179.778295 257.862486 
L 179.871317 256.809114 
L 180.805063 256.809114 
L 180.834847 255.229055 
L 181.463918 255.229055 
L 181.463918 254.702369 
L 181.961236 254.702369 
L 181.961236 254.175683 
L 182.292147 254.175683 
L 182.292147 253.648997 
L 182.646424 253.648997 
L 182.646424 253.122311 
L 182.886171 253.122311 
L 182.886171 252.595625 
L 182.998906 252.595625 
L 182.998906 252.068939 
L 183.157865 252.068939 
L 183.207934 250.488881 
L 183.473421 250.488881 
L 183.473421 249.962195 
L 183.695823 249.962195 
L 183.70466 248.908822 
L 183.842948 248.908822 
L 183.916672 247.328764 
L 184.277631 247.328764 
L 184.297772 245.748706 
L 184.492484 245.748706 
L 184.492484 245.22202 
L 184.86429 245.22202 
L 184.959099 243.641962 
L 185.08316 243.641962 
L 185.187227 242.061903 
L 185.28376 242.061903 
L 185.28376 241.535217 
L 185.526477 241.535217 
L 185.526477 241.008531 
L 185.68324 241.008531 
L 185.68324 240.481845 
L 190.696828 240.481845 
L 190.696828 239.955159 
L 191.558477 239.955159 
L 191.558477 239.428473 
L 192.046359 239.428473 
L 192.046359 238.901787 
L 202.929178 238.901787 
L 202.929178 238.375101 
L 203.487253 238.375101 
L 203.487253 237.848415 
L 214.433599 237.848415 
L 214.507123 236.795043 
L 214.951131 236.795043 
L 214.951131 236.268356 
L 215.206012 236.268356 
L 215.206012 235.74167 
L 222.823834 235.74167 
L 222.823834 235.214984 
L 229.897175 235.214984 
L 229.897175 234.688298 
L 230.055646 234.688298 
L 230.055646 234.161612 
L 230.221762 234.161612 
L 230.318856 232.581554 
L 230.351246 232.581554 
L 230.427369 231.001496 
L 230.959988 231.001496 
L 230.964524 229.948123 
L 231.345479 229.948123 
L 231.452135 227.841379 
L 231.469195 227.841379 
L 231.575668 219.414402 
L 231.586652 219.414402 
L 231.695553 214.147541 
L 242.117713 214.147541 
L 242.145337 213.094169 
L 242.237189 213.094169 
L 242.276526 212.040797 
L 242.74498 212.040797 
L 242.74498 211.514111 
L 242.97708 211.514111 
L 243.08534 205.193878 
L 243.090369 205.193878 
L 243.156112 202.033761 
L 249.867118 202.033761 
L 249.977083 188.866609 
L 249.97999 188.866609 
L 250.024305 187.813237 
L 254.765954 187.813237 
L 254.872329 179.38626 
L 254.895926 179.38626 
L 254.904472 178.332888 
L 256.272422 178.332888 
L 256.272422 177.806202 
L 258.634375 177.806202 
L 258.728726 170.959282 
L 261.787759 170.959282 
L 261.850861 159.898875 
L 264.460725 159.898875 
L 264.525058 153.051956 
L 266.775581 153.051956 
L 266.799171 148.838467 
L 268.814954 148.838467 
L 268.85876 139.884804 
L 270.632773 139.884804 
L 270.668047 135.144629 
L 272.273253 135.144629 
L 272.334025 126.717652 
L 273.781733 126.717652 
L 273.832188 121.450791 
L 275.200064 121.450791 
L 275.222537 117.763988 
L 276.465961 117.763988 
L 276.49615 113.023814 
L 277.6611 113.023814 
L 277.701316 108.283639 
L 278.781623 108.283639 
L 278.823295 102.490092 
L 279.839474 102.490092 
L 279.87207 96.169859 
L 280.829549 96.169859 
L 280.849885 92.483056 
L 281.766448 92.483056 
L 281.815485 83.529393 
L 282.661668 83.529393 
L 282.698336 81.422649 
L 283.525047 81.422649 
L 283.540495 77.20916 
L 284.322627 77.20916 
L 284.357943 71.415613 
L 285.097564 71.415613 
L 285.127448 67.202125 
L 285.847732 67.202125 
L 285.863183 64.568694 
L 286.548738 64.568694 
L 286.550899 63.515322 
L 287.217774 63.515322 
L 287.2466 58.775147 
L 288.511902 58.775147 
L 288.543293 56.141717 
L 289.130895 56.141717 
L 289.132162 55.088345 
L 290.29789 55.088345 
L 290.31505 53.508287 
L 290.834344 53.508287 
L 290.869743 50.34817 
L 291.38465 50.34817 
L 291.391112 48.768112 
L 291.908641 48.768112 
L 291.91061 47.71474 
L 292.409929 47.71474 
L 292.414425 46.134681 
L 292.904309 46.134681 
L 292.904556 45.081309 
L 293.387355 45.081309 
L 293.387355 44.554623 
L 293.841731 44.554623 
L 293.846143 42.974565 
L 294.287588 42.974565 
L 294.30632 40.867821 
L 294.735112 40.867821 
L 294.735112 40.341135 
L 295.575645 40.341135 
L 295.582603 39.287762 
L 295.994284 39.287762 
L 296.007773 38.23439 
L 296.394197 38.23439 
L 296.394197 37.707704 
L 297.166776 37.707704 
L 297.182551 36.654332 
L 297.536737 36.654332 
L 297.536737 36.127646 
L 297.916424 36.127646 
L 297.916424 35.60096 
L 298.252213 35.60096 
L 298.252213 35.074274 
L 299.957783 35.074274 
L 299.971019 34.020902 
L 300.597903 34.020902 
L 300.600531 32.967529 
L 300.909377 32.967529 
L 300.909377 32.440843 
L 301.214292 32.440843 
L 301.214292 31.914157 
L 302.923441 31.914157 
L 302.923441 31.387471 
L 303.723292 31.387471 
L 303.723292 30.860785 
L 306.366905 30.860785 
L 306.366905 30.334099 
L 338.688 30.334099 
L 338.688 30.334099 
" style="fill:none;stroke:#ff0000;stroke-linecap:square;stroke-width:1.5;"/>
   </g>
   <g id="line2d_51">
    <defs>
     <path d="M 0 -6 
L -5.196152 -3 
L -5.196152 3 
L -0 6 
L 5.196152 3 
L 5.196152 -3 
z
" id="m70119a7566" style="stroke:#ff0000;stroke-linejoin:miter;stroke-width:1.5;"/>
    </defs>
    <g>
     <use style="fill-opacity:0;stroke:#ff0000;stroke-linejoin:miter;stroke-width:1.5;" x="107.564481" xlink:href="#m70119a7566" y="271.029638"/>
     <use style="fill-opacity:0;stroke:#ff0000;stroke-linejoin:miter;stroke-width:1.5;" x="185.68324" xlink:href="#m70119a7566" y="241.008531"/>
     <use style="fill-opacity:0;stroke:#ff0000;stroke-linejoin:miter;stroke-width:1.5;" x="249.925967" xlink:href="#m70119a7566" y="196.7669"/>
     <use style="fill-opacity:0;stroke:#ff0000;stroke-linejoin:miter;stroke-width:1.5;" x="298.252213" xlink:href="#m70119a7566" y="35.60096"/>
     <use style="fill-opacity:0;stroke:#ff0000;stroke-linejoin:miter;stroke-width:1.5;" x="306.366905" xlink:href="#m70119a7566" y="30.334099"/>
     <use style="fill-opacity:0;stroke:#ff0000;stroke-linejoin:miter;stroke-width:1.5;" x="338.688" xlink:href="#m70119a7566" y="30.334099"/>
    </g>
   </g>
   <g id="line2d_52">
    <path style="fill:none;stroke:#ff0000;stroke-linecap:square;stroke-width:1.5;"/>
    <g/>
   </g>
   <g id="line2d_53">
    <path clip-path="url(#pe8d30ecc59)" d="M 230.397636 231.528182 
" style="fill:none;stroke:#ff0000;stroke-linecap:square;stroke-width:1.5;"/>
    <defs>
     <path d="M -12 12 
L 12 -12 
M -12 -12 
L 12 12 
" id="m3169726edd" style="stroke:#ff0000;"/>
    </defs>
    <g clip-path="url(#pe8d30ecc59)">
     <use style="fill:#ff0000;stroke:#ff0000;" x="230.397636" xlink:href="#m3169726edd" y="231.528182"/>
    </g>
   </g>
   <g id="line2d_54">
    <defs>
     <path d="M 0 1.5 
C 0.397805 1.5 0.77937 1.341951 1.06066 1.06066 
C 1.341951 0.77937 1.5 0.397805 1.5 0 
C 1.5 -0.397805 1.341951 -0.77937 1.06066 -1.06066 
C 0.77937 -1.341951 0.397805 -1.5 0 -1.5 
C -0.397805 -1.5 -0.77937 -1.341951 -1.06066 -1.06066 
C -1.341951 -0.77937 -1.5 -0.397805 -1.5 0 
C -1.5 0.397805 -1.341951 0.77937 -1.06066 1.06066 
C -0.77937 1.341951 -0.397805 1.5 0 1.5 
z
" id="m7e458f9ba2" style="stroke:#ff7500;"/>
    </defs>
    <g>
     <use style="fill:#ff7500;stroke:#ff7500;" x="306.362193" xlink:href="#m7e458f9ba2" y="30.334099"/>
     <use style="fill:#ff7500;stroke:#ff7500;" x="306.362193" xlink:href="#m7e458f9ba2" y="30.334099"/>
    </g>
   </g>
   <g id="line2d_55">
    <path d="M 5.356583 298.944 
L 5.356583 293.677139 
L 60.037348 293.677139 
L 60.037348 293.150453 
L 65.796525 293.150453 
L 65.796525 292.623767 
L 78.421149 292.623767 
L 78.421149 292.097081 
L 80.416384 292.097081 
L 80.416384 291.570395 
L 83.23881 291.570395 
L 83.23881 291.043709 
L 84.02273 291.043709 
L 84.02273 290.517023 
L 84.955534 290.517023 
L 84.955534 289.990337 
L 86.012784 289.990337 
L 86.012784 289.463651 
L 86.182924 289.463651 
L 86.182924 288.936964 
L 87.798828 288.936964 
L 87.798828 287.883592 
L 88.701061 287.883592 
L 88.701061 287.356906 
L 90.108217 287.356906 
L 90.108217 286.83022 
L 90.376519 286.83022 
L 90.376519 286.303534 
L 91.782644 286.303534 
L 91.782644 285.776848 
L 92.147241 285.776848 
L 92.147241 285.250162 
L 92.267099 285.250162 
L 92.267099 284.723476 
L 92.504372 284.723476 
L 92.504372 284.19679 
L 93.644601 284.19679 
L 93.644601 283.670104 
L 94.921215 283.670104 
L 94.921215 282.616732 
L 96.395835 282.616732 
L 96.395835 282.090045 
L 96.583356 282.090045 
L 96.583356 281.563359 
L 97.134116 281.563359 
L 97.224242 280.509987 
L 99.338119 280.509987 
L 99.338119 279.983301 
L 100.567829 279.983301 
L 100.567829 279.456615 
L 102.330873 279.456615 
L 102.330873 278.929929 
L 102.66306 278.929929 
L 102.66306 278.403243 
L 103.245502 278.403243 
L 103.245502 277.876557 
L 104.23523 277.876557 
L 104.23523 277.349871 
L 105.398279 277.349871 
L 105.398279 276.823185 
L 106.593963 276.823185 
L 106.593963 276.296499 
L 108.810674 276.296499 
L 108.810674 275.769812 
L 109.357119 275.769812 
L 109.446552 274.71644 
L 109.624052 274.71644 
L 109.624052 273.663068 
L 110.652711 273.663068 
L 110.735755 272.609696 
L 111.386247 272.609696 
L 111.465878 271.556324 
L 112.39413 271.556324 
L 112.39413 271.029638 
L 113.203693 271.029638 
L 113.239614 269.976266 
L 114.485807 269.976266 
L 114.485807 269.449579 
L 115.460322 269.449579 
L 115.460322 268.922893 
L 115.897107 268.922893 
L 115.897107 268.396207 
L 117.116718 268.396207 
L 117.116718 267.869521 
L 118.655668 267.869521 
L 118.655668 267.342835 
L 121.489881 267.342835 
L 121.489881 266.816149 
L 125.822869 266.816149 
L 125.822869 266.289463 
L 150.957336 266.289463 
L 150.957336 265.762777 
L 151.601433 265.762777 
L 151.601433 265.236091 
L 152.325902 265.236091 
L 152.325902 264.709405 
L 153.003132 264.709405 
L 153.101938 262.60266 
L 153.686831 262.60266 
L 153.686831 262.075974 
L 153.834414 262.075974 
L 153.834414 261.549288 
L 154.711253 261.549288 
L 154.711253 261.022602 
L 154.913056 261.022602 
L 154.913056 260.495916 
L 155.187182 260.495916 
L 155.187182 259.96923 
L 155.485736 259.96923 
L 155.485736 259.442544 
L 156.095618 259.442544 
L 156.095618 258.915858 
L 156.239479 258.915858 
L 156.239479 258.389172 
L 156.385187 258.389172 
L 156.385187 257.862486 
L 157.087296 257.862486 
L 157.182854 256.282427 
L 158.241633 256.282427 
L 158.293192 255.229055 
L 158.996859 255.229055 
L 158.996859 254.175683 
L 159.758143 254.175683 
L 159.758143 253.648997 
L 160.321935 253.648997 
L 160.422949 252.595625 
L 160.760203 252.595625 
L 160.842337 251.542253 
L 161.381739 251.542253 
L 161.381739 251.015567 
L 161.512896 251.015567 
L 161.512896 250.488881 
L 161.878503 250.488881 
L 161.878503 249.962195 
L 162.206319 249.962195 
L 162.206319 249.435508 
L 162.43004 249.435508 
L 162.496175 248.382136 
L 162.728843 248.382136 
L 162.728843 247.85545 
L 162.852371 247.85545 
L 162.852371 247.328764 
L 163.045324 247.328764 
L 163.045324 246.275392 
L 163.289148 246.275392 
L 163.289148 245.22202 
L 163.449152 245.22202 
L 163.449152 244.695334 
L 168.58767 244.695334 
L 168.58767 244.168648 
L 179.791727 244.168648 
L 179.87682 243.115275 
L 180.327597 243.115275 
L 180.327597 242.588589 
L 180.825173 242.588589 
L 180.825173 242.061903 
L 181.200004 242.061903 
L 181.200004 241.535217 
L 191.261513 241.535217 
L 191.261513 241.008531 
L 191.42482 241.008531 
L 191.526267 239.955159 
L 191.78984 239.955159 
L 191.78984 239.428473 
L 192.353819 239.428473 
L 192.353819 238.901787 
L 203.127143 238.901787 
L 203.175149 237.848415 
L 204.014045 237.848415 
L 204.014045 237.321729 
L 213.893645 237.321729 
L 213.893645 236.795043 
L 214.203905 236.795043 
L 214.203905 236.268356 
L 230.331096 236.268356 
L 230.408824 234.688298 
L 230.591671 234.688298 
L 230.688952 230.47481 
L 230.70622 230.47481 
L 230.809307 222.047832 
L 231.301422 222.047832 
L 231.301422 221.521146 
L 233.750553 221.521146 
L 233.785629 220.467774 
L 242.473713 220.467774 
L 242.508297 219.414402 
L 242.590934 219.414402 
L 242.700389 206.773936 
L 249.595455 206.773936 
L 249.683514 193.080098 
L 249.821804 193.080098 
L 249.821804 192.553412 
L 251.680717 192.553412 
L 251.680717 192.026726 
L 254.59556 192.026726 
L 254.687544 178.332888 
L 255.464389 178.332888 
L 255.464389 177.806202 
L 258.480452 177.806202 
L 258.531649 170.432596 
L 261.664894 170.432596 
L 261.709624 163.585677 
L 264.342971 163.585677 
L 264.392467 153.578642 
L 266.667251 153.578642 
L 266.710448 142.518234 
L 268.705114 142.518234 
L 268.758358 132.511199 
L 270.553711 132.511199 
L 270.590305 128.824396 
L 272.216428 128.824396 
L 272.243293 120.397419 
L 273.728442 120.397419 
L 273.755843 115.130558 
L 275.119591 115.130558 
L 275.162655 109.863697 
L 276.408953 109.863697 
L 276.442367 101.963406 
L 277.625242 101.963406 
L 277.643346 97.223231 
L 278.744313 97.223231 
L 278.764189 93.009743 
L 279.806171 93.009743 
L 279.819288 88.269568 
L 280.800892 88.269568 
L 280.812908 85.636137 
L 281.743021 85.636137 
L 281.758472 82.476021 
L 282.632328 82.476021 
L 282.658541 79.315904 
L 283.490045 79.315904 
L 283.497636 77.735846 
L 284.300586 77.735846 
L 284.317557 74.57573 
L 285.07158 74.57573 
L 285.086847 69.835555 
L 285.813757 69.835555 
L 285.83519 67.202125 
L 286.528029 67.202125 
L 286.539038 63.515322 
L 287.212962 63.515322 
L 287.224229 61.408578 
L 287.86319 61.408578 
L 287.877587 59.301833 
L 288.494617 59.301833 
L 288.511265 57.721775 
L 289.124224 57.721775 
L 289.127876 56.668403 
L 289.719014 56.668403 
L 289.719014 56.141717 
L 290.278788 56.141717 
L 290.278788 55.615031 
L 290.831008 55.615031 
L 290.83646 52.454914 
L 291.360755 52.454914 
L 291.377332 50.34817 
L 291.888081 50.34817 
L 291.899134 47.188054 
L 292.884389 47.188054 
L 292.891795 45.607995 
L 293.360544 45.607995 
L 293.371899 44.554623 
L 293.828855 44.554623 
L 293.841178 42.447879 
L 294.726809 42.447879 
L 294.726809 41.921193 
L 295.147185 41.921193 
L 295.147185 41.394507 
L 295.565421 41.394507 
L 295.568125 39.287762 
L 297.157958 39.287762 
L 297.157958 38.761076 
L 297.526825 38.761076 
L 297.529764 37.707704 
L 297.900292 37.707704 
L 297.900292 37.181018 
L 298.953813 37.181018 
L 298.953813 36.654332 
L 299.633262 36.654332 
L 299.633262 36.127646 
L 300.278467 36.127646 
L 300.285543 35.074274 
L 300.590995 35.074274 
L 300.592545 34.020902 
L 301.195032 34.020902 
L 301.207065 32.967529 
L 301.503863 32.967529 
L 301.503863 32.440843 
L 304.484912 32.440843 
L 304.484912 31.914157 
L 304.723822 31.914157 
L 304.723822 31.387471 
L 306.140933 31.387471 
L 306.140933 30.860785 
L 306.362193 30.860785 
L 306.362193 30.334099 
L 338.688 30.334099 
L 338.688 30.334099 
" style="fill:none;stroke:#ff7500;stroke-linecap:square;stroke-width:1.5;"/>
   </g>
   <g id="line2d_56">
    <defs>
     <path d="M 0 -6 
L -1.347084 -1.854102 
L -5.706339 -1.854102 
L -2.179628 0.708204 
L -3.526712 4.854102 
L -0 2.291796 
L 3.526712 4.854102 
L 2.179628 0.708204 
L 5.706339 -1.854102 
L 1.347084 -1.854102 
z
" id="mdd4730fd87" style="stroke:#ff7500;stroke-linejoin:bevel;stroke-width:1.5;"/>
    </defs>
    <g>
     <use style="fill-opacity:0;stroke:#ff7500;stroke-linejoin:bevel;stroke-width:1.5;" x="118.655668" xlink:href="#mdd4730fd87" y="267.342835"/>
     <use style="fill-opacity:0;stroke:#ff7500;stroke-linejoin:bevel;stroke-width:1.5;" x="204.014045" xlink:href="#mdd4730fd87" y="237.321729"/>
     <use style="fill-opacity:0;stroke:#ff7500;stroke-linejoin:bevel;stroke-width:1.5;" x="254.687544" xlink:href="#mdd4730fd87" y="178.332888"/>
     <use style="fill-opacity:0;stroke:#ff7500;stroke-linejoin:bevel;stroke-width:1.5;" x="300.590995" xlink:href="#mdd4730fd87" y="35.074274"/>
     <use style="fill-opacity:0;stroke:#ff7500;stroke-linejoin:bevel;stroke-width:1.5;" x="306.362193" xlink:href="#mdd4730fd87" y="30.334099"/>
     <use style="fill-opacity:0;stroke:#ff7500;stroke-linejoin:bevel;stroke-width:1.5;" x="338.688" xlink:href="#mdd4730fd87" y="30.334099"/>
    </g>
   </g>
   <g id="line2d_57">
    <path style="fill:none;stroke:#ff7500;stroke-linecap:square;stroke-width:1.5;"/>
    <g/>
   </g>
   <g id="line2d_58">
    <path clip-path="url(#pe8d30ecc59)" d="M 230.377844 235.74167 
" style="fill:none;stroke:#ff7500;stroke-linecap:square;stroke-width:1.5;"/>
    <defs>
     <path d="M -12 12 
L 12 -12 
M -12 -12 
L 12 12 
" id="m2ddad620a4" style="stroke:#ff7500;"/>
    </defs>
    <g clip-path="url(#pe8d30ecc59)">
     <use style="fill:#ff7500;stroke:#ff7500;" x="230.377844" xlink:href="#m2ddad620a4" y="235.74167"/>
    </g>
   </g>
   <g id="line2d_59">
    <defs>
     <path d="M 0 1.5 
C 0.397805 1.5 0.77937 1.341951 1.06066 1.06066 
C 1.341951 0.77937 1.5 0.397805 1.5 0 
C 1.5 -0.397805 1.341951 -0.77937 1.06066 -1.06066 
C 0.77937 -1.341951 0.397805 -1.5 0 -1.5 
C -0.397805 -1.5 -0.77937 -1.341951 -1.06066 -1.06066 
C -1.341951 -0.77937 -1.5 -0.397805 -1.5 0 
C -1.5 0.397805 -1.341951 0.77937 -1.06066 1.06066 
C -0.77937 1.341951 -0.397805 1.5 0 1.5 
z
" id="m177acbe4d6" style="stroke:#9acd32;"/>
    </defs>
    <g>
     <use style="fill:#9acd32;stroke:#9acd32;" x="271.226207" xlink:href="#m177acbe4d6" y="241.008531"/>
     <use style="fill:#9acd32;stroke:#9acd32;" x="271.226207" xlink:href="#m177acbe4d6" y="241.008531"/>
    </g>
   </g>
   <g id="line2d_60">
    <path d="M 5.356583 298.944 
L 5.356583 293.677139 
L 81.992617 293.677139 
L 81.992617 292.623767 
L 83.438118 292.623767 
L 83.438118 292.097081 
L 84.213325 292.097081 
L 84.213325 291.570395 
L 85.492169 291.570395 
L 85.492169 291.043709 
L 85.66744 291.043709 
L 85.66744 290.517023 
L 87.487404 290.517023 
L 87.487404 289.990337 
L 88.846997 289.990337 
L 88.846997 289.463651 
L 90.901048 289.463651 
L 90.901048 288.936964 
L 91.659398 288.936964 
L 91.659398 288.410278 
L 92.504372 288.410278 
L 92.504372 287.883592 
L 93.863965 287.883592 
L 93.863965 287.356906 
L 94.080605 287.356906 
L 94.080605 286.83022 
L 94.921215 286.83022 
L 94.921215 286.303534 
L 97.668013 286.303534 
L 97.668013 285.776848 
L 98.853664 285.776848 
L 98.853664 285.250162 
L 99.016649 285.250162 
L 99.097574 284.19679 
L 99.178125 284.19679 
L 99.178125 283.670104 
L 99.41757 283.670104 
L 99.41757 283.143418 
L 99.653771 283.143418 
L 99.653771 282.616732 
L 101.294571 282.616732 
L 101.294571 282.090045 
L 102.397818 282.090045 
L 102.464508 280.509987 
L 103.435405 280.509987 
L 103.498249 278.929929 
L 103.993014 278.929929 
L 103.993014 278.403243 
L 104.23523 278.403243 
L 104.23523 277.876557 
L 104.355088 277.876557 
L 104.355088 277.349871 
L 104.651178 277.349871 
L 104.651178 276.823185 
L 105.842616 276.823185 
L 105.842616 276.296499 
L 106.802819 276.296499 
L 106.802819 275.769812 
L 107.111487 275.769812 
L 107.111487 275.243126 
L 107.364602 275.243126 
L 107.364602 274.71644 
L 108.764355 274.71644 
L 108.764355 273.663068 
L 109.668146 273.663068 
L 109.668146 273.136382 
L 110.401178 273.136382 
L 110.401178 272.609696 
L 110.569269 272.609696 
L 110.569269 272.08301 
L 112.128456 272.08301 
L 112.128456 271.556324 
L 113.13163 271.556324 
L 113.13163 270.502952 
L 114.284194 270.502952 
L 114.284194 269.976266 
L 115.269727 269.976266 
L 115.269727 269.449579 
L 115.742365 269.449579 
L 115.742365 268.922893 
L 116.262979 268.922893 
L 116.262979 268.396207 
L 119.65247 268.396207 
L 119.65247 267.869521 
L 154.173993 267.869521 
L 154.173993 267.342835 
L 155.966049 267.342835 
L 155.966049 266.816149 
L 167.828086 266.816149 
L 167.828086 266.289463 
L 168.619175 266.289463 
L 168.69545 265.236091 
L 168.842567 265.236091 
L 168.941432 264.182719 
L 169.173833 264.182719 
L 169.26651 262.60266 
L 169.557255 262.60266 
L 169.630959 261.549288 
L 169.78585 261.549288 
L 169.896248 260.495916 
L 170.007335 260.495916 
L 170.007335 259.96923 
L 170.223309 259.96923 
L 170.223309 259.442544 
L 170.512106 259.442544 
L 170.614004 258.389172 
L 171.45691 258.389172 
L 171.45691 257.862486 
L 180.118787 257.862486 
L 180.118787 257.3358 
L 180.304604 257.3358 
L 180.368908 256.282427 
L 180.853437 256.282427 
L 180.853437 255.755741 
L 191.698301 255.755741 
L 191.698301 255.229055 
L 191.902211 255.229055 
L 191.902211 254.175683 
L 192.108053 254.175683 
L 192.108053 253.648997 
L 192.800772 253.648997 
L 192.800772 253.122311 
L 203.959607 253.122311 
L 204.015029 252.068939 
L 213.284551 252.068939 
L 213.284551 251.542253 
L 239.529207 251.542253 
L 239.529207 251.015567 
L 239.704879 251.015567 
L 239.773202 249.962195 
L 239.9556 249.962195 
L 239.9556 249.435508 
L 240.373555 249.435508 
L 240.373555 248.908822 
L 246.97664 248.908822 
L 246.996277 247.328764 
L 247.272337 247.328764 
L 247.272337 246.802078 
L 247.497767 246.802078 
L 247.546027 244.695334 
L 247.802828 244.695334 
L 247.802828 244.168648 
L 248.222715 244.168648 
L 248.222715 243.641962 
L 249.595657 243.641962 
L 249.595657 243.115275 
L 255.959834 243.115275 
L 255.959834 242.588589 
L 256.257275 242.588589 
L 256.257275 242.061903 
L 266.382112 242.061903 
L 266.382112 241.535217 
L 271.226207 241.535217 
L 271.226207 241.008531 
L 338.688 241.008531 
L 338.688 241.008531 
" style="fill:none;stroke:#9acd32;stroke-linecap:square;stroke-width:1.5;"/>
   </g>
   <g id="line2d_61">
    <defs>
     <path d="M 0 -6 
L -6 6 
L 6 6 
z
" id="me47167d39d" style="stroke:#9acd32;stroke-linejoin:miter;stroke-width:1.5;"/>
    </defs>
    <g>
     <use style="fill-opacity:0;stroke:#9acd32;stroke-linejoin:miter;stroke-width:1.5;" x="99.178125" xlink:href="#me47167d39d" y="284.19679"/>
     <use style="fill-opacity:0;stroke:#9acd32;stroke-linejoin:miter;stroke-width:1.5;" x="119.65247" xlink:href="#me47167d39d" y="267.869521"/>
     <use style="fill-opacity:0;stroke:#9acd32;stroke-linejoin:miter;stroke-width:1.5;" x="213.284551" xlink:href="#me47167d39d" y="252.068939"/>
     <use style="fill-opacity:0;stroke:#9acd32;stroke-linejoin:miter;stroke-width:1.5;" x="271.226207" xlink:href="#me47167d39d" y="241.008531"/>
     <use style="fill-opacity:0;stroke:#9acd32;stroke-linejoin:miter;stroke-width:1.5;" x="271.226207" xlink:href="#me47167d39d" y="241.008531"/>
     <use style="fill-opacity:0;stroke:#9acd32;stroke-linejoin:miter;stroke-width:1.5;" x="338.688" xlink:href="#me47167d39d" y="241.008531"/>
    </g>
   </g>
   <g id="line2d_62">
    <path style="fill:none;stroke:#9acd32;stroke-linecap:square;stroke-width:1.5;"/>
    <g/>
   </g>
   <g id="line2d_63">
    <path clip-path="url(#pe8d30ecc59)" d="M 247.046878 247.328764 
" style="fill:none;stroke:#9acd32;stroke-linecap:square;stroke-width:1.5;"/>
    <defs>
     <path d="M -12 12 
L 12 -12 
M -12 -12 
L 12 12 
" id="mc972df1d00" style="stroke:#9acd32;"/>
    </defs>
    <g clip-path="url(#pe8d30ecc59)">
     <use style="fill:#9acd32;stroke:#9acd32;" x="247.046878" xlink:href="#mc972df1d00" y="247.328764"/>
    </g>
   </g>
   <g id="line2d_64">
    <path d="M 338.688 241.008531 
L 369.60768 293.571802 
" style="fill:none;stroke:#ff00ff;stroke-linecap:square;stroke-width:1.5;"/>
    <g>
     <use style="fill-opacity:0;stroke:#ff00ff;stroke-linejoin:miter;stroke-width:1.5;" x="338.688" xlink:href="#m207c2e40c1" y="241.008531"/>
     <use style="fill-opacity:0;stroke:#ff00ff;stroke-linejoin:miter;stroke-width:1.5;" x="369.60768" xlink:href="#m207c2e40c1" y="293.571802"/>
    </g>
   </g>
   <g id="line2d_65">
    <path d="M 338.688 241.008531 
L 369.60768 250.594218 
" style="fill:none;stroke:#000080;stroke-linecap:square;stroke-width:1.5;"/>
    <g>
     <use style="fill-opacity:0;stroke:#000080;stroke-width:1.5;" x="338.688" xlink:href="#mc286e495a1" y="241.008531"/>
     <use style="fill-opacity:0;stroke:#000080;stroke-width:1.5;" x="369.60768" xlink:href="#mc286e495a1" y="250.594218"/>
    </g>
   </g>
   <g id="line2d_66">
    <path d="M 338.688 241.008531 
L 369.60768 207.616634 
" style="fill:none;stroke:#9acd32;stroke-linecap:square;stroke-width:1.5;"/>
    <g>
     <use style="fill-opacity:0;stroke:#9acd32;stroke-linejoin:miter;stroke-width:1.5;" x="338.688" xlink:href="#me47167d39d" y="241.008531"/>
     <use style="fill-opacity:0;stroke:#9acd32;stroke-linejoin:miter;stroke-width:1.5;" x="369.60768" xlink:href="#me47167d39d" y="207.616634"/>
    </g>
   </g>
   <g id="line2d_67">
    <path d="M 338.688 241.008531 
L 369.60768 164.63905 
" style="fill:none;stroke:#000080;stroke-linecap:square;stroke-width:1.5;"/>
    <g>
     <use style="fill-opacity:0;stroke:#000080;stroke-width:1.5;" x="338.688" xlink:href="#mc286e495a1" y="241.008531"/>
     <use style="fill-opacity:0;stroke:#000080;stroke-width:1.5;" x="369.60768" xlink:href="#mc286e495a1" y="164.63905"/>
    </g>
   </g>
   <g id="line2d_68">
    <path d="M 338.688 30.334099 
L 369.60768 121.661465 
" style="fill:none;stroke:#ff0000;stroke-linecap:square;stroke-width:1.5;"/>
    <g>
     <use style="fill-opacity:0;stroke:#ff0000;stroke-linejoin:miter;stroke-width:1.5;" x="338.688" xlink:href="#m70119a7566" y="30.334099"/>
     <use style="fill-opacity:0;stroke:#ff0000;stroke-linejoin:miter;stroke-width:1.5;" x="369.60768" xlink:href="#m70119a7566" y="121.661465"/>
    </g>
   </g>
   <g id="line2d_69">
    <path d="M 338.688 30.334099 
L 369.60768 78.683881 
" style="fill:none;stroke:#ff7500;stroke-linecap:square;stroke-width:1.5;"/>
    <g>
     <use style="fill-opacity:0;stroke:#ff7500;stroke-linejoin:bevel;stroke-width:1.5;" x="338.688" xlink:href="#mdd4730fd87" y="30.334099"/>
     <use style="fill-opacity:0;stroke:#ff7500;stroke-linejoin:bevel;stroke-width:1.5;" x="369.60768" xlink:href="#mdd4730fd87" y="78.683881"/>
    </g>
   </g>
   <g id="line2d_70">
    <path d="M 338.688 298.944 
L 338.688 30.334099 
" style="fill:none;stroke:#000000;stroke-linecap:square;stroke-width:1.5;"/>
   </g>
   <g id="patch_3">
    <path d="M 57.6 298.944 
L 57.6 27.648 
" style="fill:none;stroke:#000000;stroke-linecap:square;stroke-linejoin:miter;stroke-width:0.8;"/>
   </g>
   <g id="patch_4">
    <path d="M 338.688 298.944 
L 338.688 27.648 
" style="fill:none;stroke:#000000;stroke-linecap:square;stroke-linejoin:miter;stroke-width:0.8;"/>
   </g>
   <g id="patch_5">
    <path d="M 57.6 298.944 
L 338.688 298.944 
" style="fill:none;stroke:#000000;stroke-linecap:square;stroke-linejoin:miter;stroke-width:0.8;"/>
   </g>
   <g id="patch_6">
    <path d="M 57.6 27.648 
L 338.688 27.648 
" style="fill:none;stroke:#000000;stroke-linecap:square;stroke-linejoin:miter;stroke-width:0.8;"/>
   </g>
   <g id="text_13">
    <!-- 400-2e4 -->
    <g transform="translate(375.22944 298.262739)scale(0.17 -0.17)">
     <use xlink:href="#DejaVuSans-52"/>
     <use x="63.623047" xlink:href="#DejaVuSans-48"/>
     <use x="127.246094" xlink:href="#DejaVuSans-48"/>
     <use x="190.869141" xlink:href="#DejaVuSans-45"/>
     <use x="226.953125" xlink:href="#DejaVuSans-50"/>
     <use x="290.576172" xlink:href="#DejaVuSans-101"/>
     <use x="352.099609" xlink:href="#DejaVuSans-52"/>
    </g>
   </g>
   <g id="text_14">
    <!-- 100-1e5 -->
    <defs>
     <path d="M 10.796875 72.90625 
L 49.515625 72.90625 
L 49.515625 64.59375 
L 19.828125 64.59375 
L 19.828125 46.734375 
Q 21.96875 47.46875 24.109375 47.828125 
Q 26.265625 48.1875 28.421875 48.1875 
Q 40.625 48.1875 47.75 41.5 
Q 54.890625 34.8125 54.890625 23.390625 
Q 54.890625 11.625 47.5625 5.09375 
Q 40.234375 -1.421875 26.90625 -1.421875 
Q 22.3125 -1.421875 17.546875 -0.640625 
Q 12.796875 0.140625 7.71875 1.703125 
L 7.71875 11.625 
Q 12.109375 9.234375 16.796875 8.0625 
Q 21.484375 6.890625 26.703125 6.890625 
Q 35.15625 6.890625 40.078125 11.328125 
Q 45.015625 15.765625 45.015625 23.390625 
Q 45.015625 31 40.078125 35.4375 
Q 35.15625 39.890625 26.703125 39.890625 
Q 22.75 39.890625 18.8125 39.015625 
Q 14.890625 38.140625 10.796875 36.28125 
z
" id="DejaVuSans-53"/>
    </defs>
    <g transform="translate(375.22944 255.285155)scale(0.17 -0.17)">
     <use xlink:href="#DejaVuSans-49"/>
     <use x="63.623047" xlink:href="#DejaVuSans-48"/>
     <use x="127.246094" xlink:href="#DejaVuSans-48"/>
     <use x="190.869141" xlink:href="#DejaVuSans-45"/>
     <use x="226.953125" xlink:href="#DejaVuSans-49"/>
     <use x="290.576172" xlink:href="#DejaVuSans-101"/>
     <use x="352.099609" xlink:href="#DejaVuSans-53"/>
    </g>
   </g>
   <g id="text_15">
    <!-- 120-1e5 -->
    <g transform="translate(375.22944 212.307571)scale(0.17 -0.17)">
     <use xlink:href="#DejaVuSans-49"/>
     <use x="63.623047" xlink:href="#DejaVuSans-50"/>
     <use x="127.246094" xlink:href="#DejaVuSans-48"/>
     <use x="190.869141" xlink:href="#DejaVuSans-45"/>
     <use x="226.953125" xlink:href="#DejaVuSans-49"/>
     <use x="290.576172" xlink:href="#DejaVuSans-101"/>
     <use x="352.099609" xlink:href="#DejaVuSans-53"/>
    </g>
   </g>
   <g id="text_16">
    <!-- 100-2e4 -->
    <g transform="translate(375.22944 169.329987)scale(0.17 -0.17)">
     <use xlink:href="#DejaVuSans-49"/>
     <use x="63.623047" xlink:href="#DejaVuSans-48"/>
     <use x="127.246094" xlink:href="#DejaVuSans-48"/>
     <use x="190.869141" xlink:href="#DejaVuSans-45"/>
     <use x="226.953125" xlink:href="#DejaVuSans-50"/>
     <use x="290.576172" xlink:href="#DejaVuSans-101"/>
     <use x="352.099609" xlink:href="#DejaVuSans-52"/>
    </g>
   </g>
   <g id="text_17">
    <!-- 200-2e4 -->
    <g transform="translate(375.22944 126.352403)scale(0.17 -0.17)">
     <use xlink:href="#DejaVuSans-50"/>
     <use x="63.623047" xlink:href="#DejaVuSans-48"/>
     <use x="127.246094" xlink:href="#DejaVuSans-48"/>
     <use x="190.869141" xlink:href="#DejaVuSans-45"/>
     <use x="226.953125" xlink:href="#DejaVuSans-50"/>
     <use x="290.576172" xlink:href="#DejaVuSans-101"/>
     <use x="352.099609" xlink:href="#DejaVuSans-52"/>
    </g>
   </g>
   <g id="text_18">
    <!-- 140-2e4 -->
    <g transform="translate(375.22944 83.374819)scale(0.17 -0.17)">
     <use xlink:href="#DejaVuSans-49"/>
     <use x="63.623047" xlink:href="#DejaVuSans-52"/>
     <use x="127.246094" xlink:href="#DejaVuSans-48"/>
     <use x="190.869141" xlink:href="#DejaVuSans-45"/>
     <use x="226.953125" xlink:href="#DejaVuSans-50"/>
     <use x="290.576172" xlink:href="#DejaVuSans-101"/>
     <use x="352.099609" xlink:href="#DejaVuSans-52"/>
    </g>
   </g>
   <g id="text_19">
    <!-- best 2009 -->
    <defs>
     <path d="M 48.6875 27.296875 
Q 48.6875 37.203125 44.609375 42.84375 
Q 40.53125 48.484375 33.40625 48.484375 
Q 26.265625 48.484375 22.1875 42.84375 
Q 18.109375 37.203125 18.109375 27.296875 
Q 18.109375 17.390625 22.1875 11.75 
Q 26.265625 6.109375 33.40625 6.109375 
Q 40.53125 6.109375 44.609375 11.75 
Q 48.6875 17.390625 48.6875 27.296875 
z
M 18.109375 46.390625 
Q 20.953125 51.265625 25.265625 53.625 
Q 29.59375 56 35.59375 56 
Q 45.5625 56 51.78125 48.09375 
Q 58.015625 40.1875 58.015625 27.296875 
Q 58.015625 14.40625 51.78125 6.484375 
Q 45.5625 -1.421875 35.59375 -1.421875 
Q 29.59375 -1.421875 25.265625 0.953125 
Q 20.953125 3.328125 18.109375 8.203125 
L 18.109375 0 
L 9.078125 0 
L 9.078125 75.984375 
L 18.109375 75.984375 
z
" id="DejaVuSans-98"/>
     <path d="M 10.984375 1.515625 
L 10.984375 10.5 
Q 14.703125 8.734375 18.5 7.8125 
Q 22.3125 6.890625 25.984375 6.890625 
Q 35.75 6.890625 40.890625 13.453125 
Q 46.046875 20.015625 46.78125 33.40625 
Q 43.953125 29.203125 39.59375 26.953125 
Q 35.25 24.703125 29.984375 24.703125 
Q 19.046875 24.703125 12.671875 31.3125 
Q 6.296875 37.9375 6.296875 49.421875 
Q 6.296875 60.640625 12.9375 67.421875 
Q 19.578125 74.21875 30.609375 74.21875 
Q 43.265625 74.21875 49.921875 64.515625 
Q 56.59375 54.828125 56.59375 36.375 
Q 56.59375 19.140625 48.40625 8.859375 
Q 40.234375 -1.421875 26.421875 -1.421875 
Q 22.703125 -1.421875 18.890625 -0.6875 
Q 15.09375 0.046875 10.984375 1.515625 
z
M 30.609375 32.421875 
Q 37.25 32.421875 41.125 36.953125 
Q 45.015625 41.5 45.015625 49.421875 
Q 45.015625 57.28125 41.125 61.84375 
Q 37.25 66.40625 30.609375 66.40625 
Q 23.96875 66.40625 20.09375 61.84375 
Q 16.21875 57.28125 16.21875 49.421875 
Q 16.21875 41.5 20.09375 36.953125 
Q 23.96875 32.421875 30.609375 32.421875 
z
" id="DejaVuSans-57"/>
    </defs>
    <g transform="translate(375.22944 40.397235)scale(0.17 -0.17)">
     <use xlink:href="#DejaVuSans-98"/>
     <use x="63.476562" xlink:href="#DejaVuSans-101"/>
     <use x="125" xlink:href="#DejaVuSans-115"/>
     <use x="177.099609" xlink:href="#DejaVuSans-116"/>
     <use x="216.308594" xlink:href="#DejaVuSans-32"/>
     <use x="248.095703" xlink:href="#DejaVuSans-50"/>
     <use x="311.71875" xlink:href="#DejaVuSans-48"/>
     <use x="375.341797" xlink:href="#DejaVuSans-48"/>
     <use x="438.964844" xlink:href="#DejaVuSans-57"/>
    </g>
   </g>
   <g id="text_20">
    <!-- bbob f22, 20-D -->
    <defs>
     <path d="M 19.671875 64.796875 
L 19.671875 8.109375 
L 31.59375 8.109375 
Q 46.6875 8.109375 53.6875 14.9375 
Q 60.6875 21.78125 60.6875 36.53125 
Q 60.6875 51.171875 53.6875 57.984375 
Q 46.6875 64.796875 31.59375 64.796875 
z
M 9.8125 72.90625 
L 30.078125 72.90625 
Q 51.265625 72.90625 61.171875 64.09375 
Q 71.09375 55.28125 71.09375 36.53125 
Q 71.09375 17.671875 61.125 8.828125 
Q 51.171875 0 30.078125 0 
L 9.8125 0 
z
" id="DejaVuSans-68"/>
    </defs>
    <g transform="translate(60.41088 38.111366)scale(0.102 -0.102)">
     <use xlink:href="#DejaVuSans-98"/>
     <use x="63.476562" xlink:href="#DejaVuSans-98"/>
     <use x="126.953125" xlink:href="#DejaVuSans-111"/>
     <use x="188.134766" xlink:href="#DejaVuSans-98"/>
     <use x="251.611328" xlink:href="#DejaVuSans-32"/>
     <use x="283.398438" xlink:href="#DejaVuSans-102"/>
     <use x="318.603516" xlink:href="#DejaVuSans-50"/>
     <use x="382.226562" xlink:href="#DejaVuSans-50"/>
     <use x="445.849609" xlink:href="#DejaVuSans-44"/>
     <use x="477.636719" xlink:href="#DejaVuSans-32"/>
     <use x="509.423828" xlink:href="#DejaVuSans-50"/>
     <use x="573.046875" xlink:href="#DejaVuSans-48"/>
     <use x="636.669922" xlink:href="#DejaVuSans-45"/>
     <use x="672.753906" xlink:href="#DejaVuSans-68"/>
    </g>
    <!-- 51 targets: 100..1e-08 -->
    <defs>
     <path d="M 11.71875 12.40625 
L 22.015625 12.40625 
L 22.015625 0 
L 11.71875 0 
z
M 11.71875 51.703125 
L 22.015625 51.703125 
L 22.015625 39.3125 
L 11.71875 39.3125 
z
" id="DejaVuSans-58"/>
    </defs>
    <g transform="translate(60.41088 49.533135)scale(0.102 -0.102)">
     <use xlink:href="#DejaVuSans-53"/>
     <use x="63.623047" xlink:href="#DejaVuSans-49"/>
     <use x="127.246094" xlink:href="#DejaVuSans-32"/>
     <use x="159.033203" xlink:href="#DejaVuSans-116"/>
     <use x="198.242188" xlink:href="#DejaVuSans-97"/>
     <use x="259.521484" xlink:href="#DejaVuSans-114"/>
     <use x="300.619141" xlink:href="#DejaVuSans-103"/>
     <use x="364.095703" xlink:href="#DejaVuSans-101"/>
     <use x="425.619141" xlink:href="#DejaVuSans-116"/>
     <use x="464.828125" xlink:href="#DejaVuSans-115"/>
     <use x="516.927734" xlink:href="#DejaVuSans-58"/>
     <use x="550.619141" xlink:href="#DejaVuSans-32"/>
     <use x="582.40625" xlink:href="#DejaVuSans-49"/>
     <use x="646.029297" xlink:href="#DejaVuSans-48"/>
     <use x="709.652344" xlink:href="#DejaVuSans-48"/>
     <use x="773.275391" xlink:href="#DejaVuSans-46"/>
     <use x="805.0625" xlink:href="#DejaVuSans-46"/>
     <use x="836.849609" xlink:href="#DejaVuSans-49"/>
     <use x="900.472656" xlink:href="#DejaVuSans-101"/>
     <use x="961.996094" xlink:href="#DejaVuSans-45"/>
     <use x="998.080078" xlink:href="#DejaVuSans-48"/>
     <use x="1061.703125" xlink:href="#DejaVuSans-56"/>
    </g>
    <!-- 15 instances -->
    <g transform="translate(60.41088 60.954904)scale(0.102 -0.102)">
     <use xlink:href="#DejaVuSans-49"/>
     <use x="63.623047" xlink:href="#DejaVuSans-53"/>
     <use x="127.246094" xlink:href="#DejaVuSans-32"/>
     <use x="159.033203" xlink:href="#DejaVuSans-105"/>
     <use x="186.816406" xlink:href="#DejaVuSans-110"/>
     <use x="250.195312" xlink:href="#DejaVuSans-115"/>
     <use x="302.294922" xlink:href="#DejaVuSans-116"/>
     <use x="341.503906" xlink:href="#DejaVuSans-97"/>
     <use x="402.783203" xlink:href="#DejaVuSans-110"/>
     <use x="466.162109" xlink:href="#DejaVuSans-99"/>
     <use x="521.142578" xlink:href="#DejaVuSans-101"/>
     <use x="582.666016" xlink:href="#DejaVuSans-115"/>
    </g>
   </g>
   <g id="text_21">
    <!-- v2.3.3.18.73 -->
    <defs>
     <path d="M 40.578125 39.3125 
Q 47.65625 37.796875 51.625 33 
Q 55.609375 28.21875 55.609375 21.1875 
Q 55.609375 10.40625 48.1875 4.484375 
Q 40.765625 -1.421875 27.09375 -1.421875 
Q 22.515625 -1.421875 17.65625 -0.515625 
Q 12.796875 0.390625 7.625 2.203125 
L 7.625 11.71875 
Q 11.71875 9.328125 16.59375 8.109375 
Q 21.484375 6.890625 26.8125 6.890625 
Q 36.078125 6.890625 40.9375 10.546875 
Q 45.796875 14.203125 45.796875 21.1875 
Q 45.796875 27.640625 41.28125 31.265625 
Q 36.765625 34.90625 28.71875 34.90625 
L 20.21875 34.90625 
L 20.21875 43.015625 
L 29.109375 43.015625 
Q 36.375 43.015625 40.234375 45.921875 
Q 44.09375 48.828125 44.09375 54.296875 
Q 44.09375 59.90625 40.109375 62.90625 
Q 36.140625 65.921875 28.71875 65.921875 
Q 24.65625 65.921875 20.015625 65.03125 
Q 15.375 64.15625 9.8125 62.3125 
L 9.8125 71.09375 
Q 15.4375 72.65625 20.34375 73.4375 
Q 25.25 74.21875 29.59375 74.21875 
Q 40.828125 74.21875 47.359375 69.109375 
Q 53.90625 64.015625 53.90625 55.328125 
Q 53.90625 49.265625 50.4375 45.09375 
Q 46.96875 40.921875 40.578125 39.3125 
z
" id="DejaVuSans-51"/>
     <path d="M 8.203125 72.90625 
L 55.078125 72.90625 
L 55.078125 68.703125 
L 28.609375 0 
L 18.3125 0 
L 43.21875 64.59375 
L 8.203125 64.59375 
z
" id="DejaVuSans-55"/>
    </defs>
    <g style="fill:#808080;" transform="translate(166.559625 294.151352)scale(0.1 -0.1)">
     <use xlink:href="#DejaVuSans-118"/>
     <use x="59.179688" xlink:href="#DejaVuSans-50"/>
     <use x="122.802734" xlink:href="#DejaVuSans-46"/>
     <use x="154.589844" xlink:href="#DejaVuSans-51"/>
     <use x="218.212891" xlink:href="#DejaVuSans-46"/>
     <use x="250" xlink:href="#DejaVuSans-51"/>
     <use x="313.623047" xlink:href="#DejaVuSans-46"/>
     <use x="345.410156" xlink:href="#DejaVuSans-49"/>
     <use x="409.033203" xlink:href="#DejaVuSans-56"/>
     <use x="472.65625" xlink:href="#DejaVuSans-46"/>
     <use x="504.443359" xlink:href="#DejaVuSans-55"/>
     <use x="568.066406" xlink:href="#DejaVuSans-51"/>
    </g>
   </g>
   <g id="text_22">
    <!-- 22 Gallagher 21 peaks -->
    <defs>
     <path d="M 59.515625 10.40625 
L 59.515625 29.984375 
L 43.40625 29.984375 
L 43.40625 38.09375 
L 69.28125 38.09375 
L 69.28125 6.78125 
Q 63.578125 2.734375 56.6875 0.65625 
Q 49.8125 -1.421875 42 -1.421875 
Q 24.90625 -1.421875 15.25 8.5625 
Q 5.609375 18.5625 5.609375 36.375 
Q 5.609375 54.25 15.25 64.234375 
Q 24.90625 74.21875 42 74.21875 
Q 49.125 74.21875 55.546875 72.453125 
Q 61.96875 70.703125 67.390625 67.28125 
L 67.390625 56.78125 
Q 61.921875 61.421875 55.765625 63.765625 
Q 49.609375 66.109375 42.828125 66.109375 
Q 29.4375 66.109375 22.71875 58.640625 
Q 16.015625 51.171875 16.015625 36.375 
Q 16.015625 21.625 22.71875 14.15625 
Q 29.4375 6.6875 42.828125 6.6875 
Q 48.046875 6.6875 52.140625 7.59375 
Q 56.25 8.5 59.515625 10.40625 
z
" id="DejaVuSans-71"/>
     <path d="M 54.890625 33.015625 
L 54.890625 0 
L 45.90625 0 
L 45.90625 32.71875 
Q 45.90625 40.484375 42.875 44.328125 
Q 39.84375 48.1875 33.796875 48.1875 
Q 26.515625 48.1875 22.3125 43.546875 
Q 18.109375 38.921875 18.109375 30.90625 
L 18.109375 0 
L 9.078125 0 
L 9.078125 75.984375 
L 18.109375 75.984375 
L 18.109375 46.1875 
Q 21.34375 51.125 25.703125 53.5625 
Q 30.078125 56 35.796875 56 
Q 45.21875 56 50.046875 50.171875 
Q 54.890625 44.34375 54.890625 33.015625 
z
" id="DejaVuSans-104"/>
     <path d="M 9.078125 75.984375 
L 18.109375 75.984375 
L 18.109375 31.109375 
L 44.921875 54.6875 
L 56.390625 54.6875 
L 27.390625 29.109375 
L 57.625 0 
L 45.90625 0 
L 18.109375 26.703125 
L 18.109375 0 
L 9.078125 0 
z
" id="DejaVuSans-107"/>
    </defs>
    <g transform="translate(85.019 21.648)scale(0.2 -0.2)">
     <use xlink:href="#DejaVuSans-50"/>
     <use x="63.623047" xlink:href="#DejaVuSans-50"/>
     <use x="127.246094" xlink:href="#DejaVuSans-32"/>
     <use x="159.033203" xlink:href="#DejaVuSans-71"/>
     <use x="236.523438" xlink:href="#DejaVuSans-97"/>
     <use x="297.802734" xlink:href="#DejaVuSans-108"/>
     <use x="325.585938" xlink:href="#DejaVuSans-108"/>
     <use x="353.369141" xlink:href="#DejaVuSans-97"/>
     <use x="414.648438" xlink:href="#DejaVuSans-103"/>
     <use x="478.125" xlink:href="#DejaVuSans-104"/>
     <use x="541.503906" xlink:href="#DejaVuSans-101"/>
     <use x="603.027344" xlink:href="#DejaVuSans-114"/>
     <use x="644.140625" xlink:href="#DejaVuSans-32"/>
     <use x="675.927734" xlink:href="#DejaVuSans-50"/>
     <use x="739.550781" xlink:href="#DejaVuSans-49"/>
     <use x="803.173828" xlink:href="#DejaVuSans-32"/>
     <use x="834.960938" xlink:href="#DejaVuSans-112"/>
     <use x="898.4375" xlink:href="#DejaVuSans-101"/>
     <use x="959.960938" xlink:href="#DejaVuSans-97"/>
     <use x="1021.240234" xlink:href="#DejaVuSans-107"/>
     <use x="1079.150391" xlink:href="#DejaVuSans-115"/>
    </g>
   </g>
  </g>
 </g>
 <defs>
  <clipPath id="pe8d30ecc59">
   <rect height="271.296" width="281.088" x="57.6" y="27.648"/>
  </clipPath>
 </defs>
</svg>
