<?xml version="1.0" encoding="utf-8" standalone="no"?>
<!DOCTYPE svg PUBLIC "-//W3C//DTD SVG 1.1//EN"
  "http://www.w3.org/Graphics/SVG/1.1/DTD/svg11.dtd">
<!-- Created with matplotlib (https://matplotlib.org/) -->
<svg height="345.6pt" version="1.1" viewBox="0 0 460.8 345.6" width="460.8pt" xmlns="http://www.w3.org/2000/svg" xmlns:xlink="http://www.w3.org/1999/xlink">
 <defs>
  <style type="text/css">
*{stroke-linecap:butt;stroke-linejoin:round;}
  </style>
 </defs>
 <g id="figure_1">
  <g id="patch_1">
   <path d="M 0 345.6 
L 460.8 345.6 
L 460.8 0 
L 0 0 
z
" style="fill:#ffffff;"/>
  </g>
  <g id="axes_1">
   <g id="patch_2">
    <path d="M 57.6 298.944 
L 338.688 298.944 
L 338.688 27.648 
L 57.6 27.648 
z
" style="fill:#ffffff;"/>
   </g>
   <g id="line2d_1">
    <path d="M -1 293.677139 
L 81.775977 293.677139 
L 81.775977 288.410278 
L 88.180446 288.410278 
L 88.180446 283.143418 
L 107.187808 283.143418 
L 107.187808 277.876557 
L 119.502775 277.876557 
L 119.502775 272.609696 
L 133.409373 272.609696 
L 133.409373 267.342835 
L 149.931137 267.342835 
L 149.931137 262.075974 
L 150.501627 262.075974 
L 150.501627 256.809114 
L 155.656773 256.809114 
L 155.656773 251.542253 
L 175.93577 251.542253 
L 175.93577 246.275392 
L 175.956448 246.275392 
L 175.956448 241.008531 
L 220.991057 241.008531 
L 220.991057 235.74167 
L 226.637355 235.74167 
L 226.637355 230.47481 
L 226.638458 230.47481 
L 226.638458 225.207949 
L 226.640503 225.207949 
L 226.640503 219.941088 
L 226.645587 219.941088 
L 226.645587 214.674227 
L 226.648223 214.674227 
L 226.648223 209.407366 
L 226.651665 209.407366 
L 226.651665 204.140506 
L 226.655187 204.140506 
L 226.655187 198.873645 
L 226.659863 198.873645 
L 226.659863 193.606784 
L 226.667225 193.606784 
L 226.667225 188.339923 
L 226.668864 188.339923 
L 226.668864 183.073062 
L 226.672919 183.073062 
L 226.672919 177.806202 
L 226.683067 177.806202 
L 226.683067 172.539341 
L 226.68508 172.539341 
L 226.68508 167.27248 
L 226.688997 167.27248 
L 226.688997 162.005619 
L 226.698626 162.005619 
L 226.698626 156.738758 
L 226.700744 156.738758 
L 226.700744 151.471897 
L 226.704605 151.471897 
L 226.704605 146.205037 
L 226.709268 146.205037 
L 226.709268 140.938176 
L 226.713582 140.938176 
L 226.713582 135.671315 
L 226.719422 135.671315 
L 226.719422 130.404454 
L 226.722957 130.404454 
L 226.722957 125.137593 
L 226.73254 125.137593 
L 226.73254 119.870733 
L 226.736955 119.870733 
L 226.736955 114.603872 
L 226.739256 114.603872 
L 226.739256 109.337011 
L 226.751852 109.337011 
L 226.751852 104.07015 
L 226.755968 104.07015 
L 226.755968 98.803289 
L 226.757785 98.803289 
L 226.757785 93.536429 
L 226.765694 93.536429 
L 226.765694 88.269568 
L 226.771142 88.269568 
L 226.771142 83.002707 
L 226.773465 83.002707 
L 226.773465 77.735846 
L 226.780405 77.735846 
L 226.780405 72.468985 
L 226.785235 72.468985 
L 226.785235 67.202125 
L 226.792411 67.202125 
L 226.792411 61.935264 
L 226.796171 61.935264 
L 226.796171 56.668403 
L 226.799157 56.668403 
L 226.799157 51.401542 
L 226.807394 51.401542 
L 226.807394 46.134681 
L 226.809339 46.134681 
L 226.809339 40.867821 
L 226.811417 40.867821 
L 226.811417 35.60096 
L 226.818635 35.60096 
L 226.818635 30.334099 
L 338.688 30.334099 
" style="fill:none;stroke:#f5deb3;stroke-linecap:square;stroke-width:4;"/>
   </g>
   <g id="line2d_2">
    <defs>
     <path d="M -0 7.778175 
L 7.778175 0 
L 0 -7.778175 
L -7.778175 -0 
z
" id="m525447af0d" style="stroke:#f5deb3;stroke-linejoin:miter;stroke-width:1.5;"/>
    </defs>
    <g>
     <use style="fill:#f5deb3;stroke:#f5deb3;stroke-linejoin:miter;stroke-width:1.5;" x="107.187808" xlink:href="#m525447af0d" y="277.876557"/>
     <use style="fill:#f5deb3;stroke:#f5deb3;stroke-linejoin:miter;stroke-width:1.5;" x="175.956448" xlink:href="#m525447af0d" y="241.008531"/>
     <use style="fill:#f5deb3;stroke:#f5deb3;stroke-linejoin:miter;stroke-width:1.5;" x="226.736955" xlink:href="#m525447af0d" y="114.603872"/>
     <use style="fill:#f5deb3;stroke:#f5deb3;stroke-linejoin:miter;stroke-width:1.5;" x="226.818635" xlink:href="#m525447af0d" y="30.334099"/>
     <use style="fill:#f5deb3;stroke:#f5deb3;stroke-linejoin:miter;stroke-width:1.5;" x="226.818635" xlink:href="#m525447af0d" y="30.334099"/>
     <use style="fill:#f5deb3;stroke:#f5deb3;stroke-linejoin:miter;stroke-width:1.5;" x="338.688" xlink:href="#m525447af0d" y="30.334099"/>
    </g>
   </g>
   <g id="line2d_3">
    <path style="fill:none;stroke:#f5deb3;stroke-linecap:square;stroke-width:4;"/>
    <g/>
   </g>
   <g id="line2d_4">
    <path d="M 338.688 30.334099 
L 369.60768 35.706297 
" style="fill:none;stroke:#f5deb3;stroke-linecap:square;stroke-width:4;"/>
    <g>
     <use style="fill:#f5deb3;stroke:#f5deb3;stroke-linejoin:miter;stroke-width:1.5;" x="338.688" xlink:href="#m525447af0d" y="30.334099"/>
     <use style="fill:#f5deb3;stroke:#f5deb3;stroke-linejoin:miter;stroke-width:1.5;" x="369.60768" xlink:href="#m525447af0d" y="35.706297"/>
    </g>
   </g>
   <g id="matplotlib.axis_1">
    <g id="xtick_1">
     <g id="line2d_5">
      <path clip-path="url(#p2c4b02c077)" d="M 57.6 298.944 
L 57.6 27.648 
" style="fill:none;stroke:#b0b0b0;stroke-linecap:square;stroke-width:0.8;"/>
     </g>
     <g id="line2d_6">
      <defs>
       <path d="M 0 0 
L 0 3.5 
" id="m00e404dd88" style="stroke:#000000;stroke-width:0.8;"/>
      </defs>
      <g>
       <use style="stroke:#000000;stroke-width:0.8;" x="57.6" xlink:href="#m00e404dd88" y="298.944"/>
      </g>
     </g>
     <g id="text_1">
      <!-- 0 -->
      <defs>
       <path d="M 31.78125 66.40625 
Q 24.171875 66.40625 20.328125 58.90625 
Q 16.5 51.421875 16.5 36.375 
Q 16.5 21.390625 20.328125 13.890625 
Q 24.171875 6.390625 31.78125 6.390625 
Q 39.453125 6.390625 43.28125 13.890625 
Q 47.125 21.390625 47.125 36.375 
Q 47.125 51.421875 43.28125 58.90625 
Q 39.453125 66.40625 31.78125 66.40625 
z
M 31.78125 74.21875 
Q 44.046875 74.21875 50.515625 64.515625 
Q 56.984375 54.828125 56.984375 36.375 
Q 56.984375 17.96875 50.515625 8.265625 
Q 44.046875 -1.421875 31.78125 -1.421875 
Q 19.53125 -1.421875 13.0625 8.265625 
Q 6.59375 17.96875 6.59375 36.375 
Q 6.59375 54.828125 13.0625 64.515625 
Q 19.53125 74.21875 31.78125 74.21875 
z
" id="DejaVuSans-48"/>
      </defs>
      <g transform="translate(51.2375 321.140875)scale(0.2 -0.2)">
       <use xlink:href="#DejaVuSans-48"/>
      </g>
     </g>
    </g>
    <g id="xtick_2">
     <g id="line2d_7">
      <path clip-path="url(#p2c4b02c077)" d="M 137.910857 298.944 
L 137.910857 27.648 
" style="fill:none;stroke:#b0b0b0;stroke-linecap:square;stroke-width:0.8;"/>
     </g>
     <g id="line2d_8">
      <g>
       <use style="stroke:#000000;stroke-width:0.8;" x="137.910857" xlink:href="#m00e404dd88" y="298.944"/>
      </g>
     </g>
     <g id="text_2">
      <!-- 2 -->
      <defs>
       <path d="M 19.1875 8.296875 
L 53.609375 8.296875 
L 53.609375 0 
L 7.328125 0 
L 7.328125 8.296875 
Q 12.9375 14.109375 22.625 23.890625 
Q 32.328125 33.6875 34.8125 36.53125 
Q 39.546875 41.84375 41.421875 45.53125 
Q 43.3125 49.21875 43.3125 52.78125 
Q 43.3125 58.59375 39.234375 62.25 
Q 35.15625 65.921875 28.609375 65.921875 
Q 23.96875 65.921875 18.8125 64.3125 
Q 13.671875 62.703125 7.8125 59.421875 
L 7.8125 69.390625 
Q 13.765625 71.78125 18.9375 73 
Q 24.125 74.21875 28.421875 74.21875 
Q 39.75 74.21875 46.484375 68.546875 
Q 53.21875 62.890625 53.21875 53.421875 
Q 53.21875 48.921875 51.53125 44.890625 
Q 49.859375 40.875 45.40625 35.40625 
Q 44.1875 33.984375 37.640625 27.21875 
Q 31.109375 20.453125 19.1875 8.296875 
z
" id="DejaVuSans-50"/>
      </defs>
      <g transform="translate(131.548357 321.140875)scale(0.2 -0.2)">
       <use xlink:href="#DejaVuSans-50"/>
      </g>
     </g>
    </g>
    <g id="xtick_3">
     <g id="line2d_9">
      <path clip-path="url(#p2c4b02c077)" d="M 218.221714 298.944 
L 218.221714 27.648 
" style="fill:none;stroke:#b0b0b0;stroke-linecap:square;stroke-width:0.8;"/>
     </g>
     <g id="line2d_10">
      <g>
       <use style="stroke:#000000;stroke-width:0.8;" x="218.221714" xlink:href="#m00e404dd88" y="298.944"/>
      </g>
     </g>
     <g id="text_3">
      <!-- 4 -->
      <defs>
       <path d="M 37.796875 64.3125 
L 12.890625 25.390625 
L 37.796875 25.390625 
z
M 35.203125 72.90625 
L 47.609375 72.90625 
L 47.609375 25.390625 
L 58.015625 25.390625 
L 58.015625 17.1875 
L 47.609375 17.1875 
L 47.609375 0 
L 37.796875 0 
L 37.796875 17.1875 
L 4.890625 17.1875 
L 4.890625 26.703125 
z
" id="DejaVuSans-52"/>
      </defs>
      <g transform="translate(211.859214 321.140875)scale(0.2 -0.2)">
       <use xlink:href="#DejaVuSans-52"/>
      </g>
     </g>
    </g>
    <g id="xtick_4">
     <g id="line2d_11">
      <path clip-path="url(#p2c4b02c077)" d="M 298.532571 298.944 
L 298.532571 27.648 
" style="fill:none;stroke:#b0b0b0;stroke-linecap:square;stroke-width:0.8;"/>
     </g>
     <g id="line2d_12">
      <g>
       <use style="stroke:#000000;stroke-width:0.8;" x="298.532571" xlink:href="#m00e404dd88" y="298.944"/>
      </g>
     </g>
     <g id="text_4">
      <!-- 6 -->
      <defs>
       <path d="M 33.015625 40.375 
Q 26.375 40.375 22.484375 35.828125 
Q 18.609375 31.296875 18.609375 23.390625 
Q 18.609375 15.53125 22.484375 10.953125 
Q 26.375 6.390625 33.015625 6.390625 
Q 39.65625 6.390625 43.53125 10.953125 
Q 47.40625 15.53125 47.40625 23.390625 
Q 47.40625 31.296875 43.53125 35.828125 
Q 39.65625 40.375 33.015625 40.375 
z
M 52.59375 71.296875 
L 52.59375 62.3125 
Q 48.875 64.0625 45.09375 64.984375 
Q 41.3125 65.921875 37.59375 65.921875 
Q 27.828125 65.921875 22.671875 59.328125 
Q 17.53125 52.734375 16.796875 39.40625 
Q 19.671875 43.65625 24.015625 45.921875 
Q 28.375 48.1875 33.59375 48.1875 
Q 44.578125 48.1875 50.953125 41.515625 
Q 57.328125 34.859375 57.328125 23.390625 
Q 57.328125 12.15625 50.6875 5.359375 
Q 44.046875 -1.421875 33.015625 -1.421875 
Q 20.359375 -1.421875 13.671875 8.265625 
Q 6.984375 17.96875 6.984375 36.375 
Q 6.984375 53.65625 15.1875 63.9375 
Q 23.390625 74.21875 37.203125 74.21875 
Q 40.921875 74.21875 44.703125 73.484375 
Q 48.484375 72.75 52.59375 71.296875 
z
" id="DejaVuSans-54"/>
      </defs>
      <g transform="translate(292.170071 321.140875)scale(0.2 -0.2)">
       <use xlink:href="#DejaVuSans-54"/>
      </g>
     </g>
    </g>
    <g id="xtick_5">
     <g id="line2d_13">
      <path clip-path="url(#p2c4b02c077)" d="M 97.755429 298.944 
L 97.755429 27.648 
" style="fill:none;stroke:#b0b0b0;stroke-linecap:square;stroke-width:0.8;"/>
     </g>
     <g id="line2d_14">
      <defs>
       <path d="M 0 0 
L 0 2 
" id="m77039dd8f6" style="stroke:#000000;stroke-width:0.6;"/>
      </defs>
      <g>
       <use style="stroke:#000000;stroke-width:0.6;" x="97.755429" xlink:href="#m77039dd8f6" y="298.944"/>
      </g>
     </g>
    </g>
    <g id="xtick_6">
     <g id="line2d_15">
      <path clip-path="url(#p2c4b02c077)" d="M 178.066286 298.944 
L 178.066286 27.648 
" style="fill:none;stroke:#b0b0b0;stroke-linecap:square;stroke-width:0.8;"/>
     </g>
     <g id="line2d_16">
      <g>
       <use style="stroke:#000000;stroke-width:0.6;" x="178.066286" xlink:href="#m77039dd8f6" y="298.944"/>
      </g>
     </g>
    </g>
    <g id="xtick_7">
     <g id="line2d_17">
      <path clip-path="url(#p2c4b02c077)" d="M 258.377143 298.944 
L 258.377143 27.648 
" style="fill:none;stroke:#b0b0b0;stroke-linecap:square;stroke-width:0.8;"/>
     </g>
     <g id="line2d_18">
      <g>
       <use style="stroke:#000000;stroke-width:0.6;" x="258.377143" xlink:href="#m77039dd8f6" y="298.944"/>
      </g>
     </g>
    </g>
    <g id="xtick_8">
     <g id="line2d_19">
      <path clip-path="url(#p2c4b02c077)" d="M 338.688 298.944 
L 338.688 27.648 
" style="fill:none;stroke:#b0b0b0;stroke-linecap:square;stroke-width:0.8;"/>
     </g>
     <g id="line2d_20">
      <g>
       <use style="stroke:#000000;stroke-width:0.6;" x="338.688" xlink:href="#m77039dd8f6" y="298.944"/>
      </g>
     </g>
    </g>
    <g id="text_5">
     <!-- log10(# f-evals / dimension) -->
     <defs>
      <path d="M 9.421875 75.984375 
L 18.40625 75.984375 
L 18.40625 0 
L 9.421875 0 
z
" id="DejaVuSans-108"/>
      <path d="M 30.609375 48.390625 
Q 23.390625 48.390625 19.1875 42.75 
Q 14.984375 37.109375 14.984375 27.296875 
Q 14.984375 17.484375 19.15625 11.84375 
Q 23.34375 6.203125 30.609375 6.203125 
Q 37.796875 6.203125 41.984375 11.859375 
Q 46.1875 17.53125 46.1875 27.296875 
Q 46.1875 37.015625 41.984375 42.703125 
Q 37.796875 48.390625 30.609375 48.390625 
z
M 30.609375 56 
Q 42.328125 56 49.015625 48.375 
Q 55.71875 40.765625 55.71875 27.296875 
Q 55.71875 13.875 49.015625 6.21875 
Q 42.328125 -1.421875 30.609375 -1.421875 
Q 18.84375 -1.421875 12.171875 6.21875 
Q 5.515625 13.875 5.515625 27.296875 
Q 5.515625 40.765625 12.171875 48.375 
Q 18.84375 56 30.609375 56 
z
" id="DejaVuSans-111"/>
      <path d="M 45.40625 27.984375 
Q 45.40625 37.75 41.375 43.109375 
Q 37.359375 48.484375 30.078125 48.484375 
Q 22.859375 48.484375 18.828125 43.109375 
Q 14.796875 37.75 14.796875 27.984375 
Q 14.796875 18.265625 18.828125 12.890625 
Q 22.859375 7.515625 30.078125 7.515625 
Q 37.359375 7.515625 41.375 12.890625 
Q 45.40625 18.265625 45.40625 27.984375 
z
M 54.390625 6.78125 
Q 54.390625 -7.171875 48.1875 -13.984375 
Q 42 -20.796875 29.203125 -20.796875 
Q 24.46875 -20.796875 20.265625 -20.09375 
Q 16.0625 -19.390625 12.109375 -17.921875 
L 12.109375 -9.1875 
Q 16.0625 -11.328125 19.921875 -12.34375 
Q 23.78125 -13.375 27.78125 -13.375 
Q 36.625 -13.375 41.015625 -8.765625 
Q 45.40625 -4.15625 45.40625 5.171875 
L 45.40625 9.625 
Q 42.625 4.78125 38.28125 2.390625 
Q 33.9375 0 27.875 0 
Q 17.828125 0 11.671875 7.65625 
Q 5.515625 15.328125 5.515625 27.984375 
Q 5.515625 40.671875 11.671875 48.328125 
Q 17.828125 56 27.875 56 
Q 33.9375 56 38.28125 53.609375 
Q 42.625 51.21875 45.40625 46.390625 
L 45.40625 54.6875 
L 54.390625 54.6875 
z
" id="DejaVuSans-103"/>
      <path d="M 12.40625 8.296875 
L 28.515625 8.296875 
L 28.515625 63.921875 
L 10.984375 60.40625 
L 10.984375 69.390625 
L 28.421875 72.90625 
L 38.28125 72.90625 
L 38.28125 8.296875 
L 54.390625 8.296875 
L 54.390625 0 
L 12.40625 0 
z
" id="DejaVuSans-49"/>
      <path d="M 31 75.875 
Q 24.46875 64.65625 21.28125 53.65625 
Q 18.109375 42.671875 18.109375 31.390625 
Q 18.109375 20.125 21.3125 9.0625 
Q 24.515625 -2 31 -13.1875 
L 23.1875 -13.1875 
Q 15.875 -1.703125 12.234375 9.375 
Q 8.59375 20.453125 8.59375 31.390625 
Q 8.59375 42.28125 12.203125 53.3125 
Q 15.828125 64.359375 23.1875 75.875 
z
" id="DejaVuSans-40"/>
      <path d="M 51.125 44 
L 36.921875 44 
L 32.8125 27.6875 
L 47.125 27.6875 
z
M 43.796875 71.78125 
L 38.71875 51.515625 
L 52.984375 51.515625 
L 58.109375 71.78125 
L 65.921875 71.78125 
L 60.890625 51.515625 
L 76.125 51.515625 
L 76.125 44 
L 58.984375 44 
L 54.984375 27.6875 
L 70.515625 27.6875 
L 70.515625 20.21875 
L 53.078125 20.21875 
L 48 0 
L 40.1875 0 
L 45.21875 20.21875 
L 30.90625 20.21875 
L 25.875 0 
L 18.015625 0 
L 23.09375 20.21875 
L 7.71875 20.21875 
L 7.71875 27.6875 
L 24.90625 27.6875 
L 29 44 
L 13.28125 44 
L 13.28125 51.515625 
L 30.90625 51.515625 
L 35.890625 71.78125 
z
" id="DejaVuSans-35"/>
      <path id="DejaVuSans-32"/>
      <path d="M 37.109375 75.984375 
L 37.109375 68.5 
L 28.515625 68.5 
Q 23.6875 68.5 21.796875 66.546875 
Q 19.921875 64.59375 19.921875 59.515625 
L 19.921875 54.6875 
L 34.71875 54.6875 
L 34.71875 47.703125 
L 19.921875 47.703125 
L 19.921875 0 
L 10.890625 0 
L 10.890625 47.703125 
L 2.296875 47.703125 
L 2.296875 54.6875 
L 10.890625 54.6875 
L 10.890625 58.5 
Q 10.890625 67.625 15.140625 71.796875 
Q 19.390625 75.984375 28.609375 75.984375 
z
" id="DejaVuSans-102"/>
      <path d="M 4.890625 31.390625 
L 31.203125 31.390625 
L 31.203125 23.390625 
L 4.890625 23.390625 
z
" id="DejaVuSans-45"/>
      <path d="M 56.203125 29.59375 
L 56.203125 25.203125 
L 14.890625 25.203125 
Q 15.484375 15.921875 20.484375 11.0625 
Q 25.484375 6.203125 34.421875 6.203125 
Q 39.59375 6.203125 44.453125 7.46875 
Q 49.3125 8.734375 54.109375 11.28125 
L 54.109375 2.78125 
Q 49.265625 0.734375 44.1875 -0.34375 
Q 39.109375 -1.421875 33.890625 -1.421875 
Q 20.796875 -1.421875 13.15625 6.1875 
Q 5.515625 13.8125 5.515625 26.8125 
Q 5.515625 40.234375 12.765625 48.109375 
Q 20.015625 56 32.328125 56 
Q 43.359375 56 49.78125 48.890625 
Q 56.203125 41.796875 56.203125 29.59375 
z
M 47.21875 32.234375 
Q 47.125 39.59375 43.09375 43.984375 
Q 39.0625 48.390625 32.421875 48.390625 
Q 24.90625 48.390625 20.390625 44.140625 
Q 15.875 39.890625 15.1875 32.171875 
z
" id="DejaVuSans-101"/>
      <path d="M 2.984375 54.6875 
L 12.5 54.6875 
L 29.59375 8.796875 
L 46.6875 54.6875 
L 56.203125 54.6875 
L 35.6875 0 
L 23.484375 0 
z
" id="DejaVuSans-118"/>
      <path d="M 34.28125 27.484375 
Q 23.390625 27.484375 19.1875 25 
Q 14.984375 22.515625 14.984375 16.5 
Q 14.984375 11.71875 18.140625 8.90625 
Q 21.296875 6.109375 26.703125 6.109375 
Q 34.1875 6.109375 38.703125 11.40625 
Q 43.21875 16.703125 43.21875 25.484375 
L 43.21875 27.484375 
z
M 52.203125 31.203125 
L 52.203125 0 
L 43.21875 0 
L 43.21875 8.296875 
Q 40.140625 3.328125 35.546875 0.953125 
Q 30.953125 -1.421875 24.3125 -1.421875 
Q 15.921875 -1.421875 10.953125 3.296875 
Q 6 8.015625 6 15.921875 
Q 6 25.140625 12.171875 29.828125 
Q 18.359375 34.515625 30.609375 34.515625 
L 43.21875 34.515625 
L 43.21875 35.40625 
Q 43.21875 41.609375 39.140625 45 
Q 35.0625 48.390625 27.6875 48.390625 
Q 23 48.390625 18.546875 47.265625 
Q 14.109375 46.140625 10.015625 43.890625 
L 10.015625 52.203125 
Q 14.9375 54.109375 19.578125 55.046875 
Q 24.21875 56 28.609375 56 
Q 40.484375 56 46.34375 49.84375 
Q 52.203125 43.703125 52.203125 31.203125 
z
" id="DejaVuSans-97"/>
      <path d="M 44.28125 53.078125 
L 44.28125 44.578125 
Q 40.484375 46.53125 36.375 47.5 
Q 32.28125 48.484375 27.875 48.484375 
Q 21.1875 48.484375 17.84375 46.4375 
Q 14.5 44.390625 14.5 40.28125 
Q 14.5 37.15625 16.890625 35.375 
Q 19.28125 33.59375 26.515625 31.984375 
L 29.59375 31.296875 
Q 39.15625 29.25 43.1875 25.515625 
Q 47.21875 21.78125 47.21875 15.09375 
Q 47.21875 7.46875 41.1875 3.015625 
Q 35.15625 -1.421875 24.609375 -1.421875 
Q 20.21875 -1.421875 15.453125 -0.5625 
Q 10.6875 0.296875 5.421875 2 
L 5.421875 11.28125 
Q 10.40625 8.6875 15.234375 7.390625 
Q 20.0625 6.109375 24.8125 6.109375 
Q 31.15625 6.109375 34.5625 8.28125 
Q 37.984375 10.453125 37.984375 14.40625 
Q 37.984375 18.0625 35.515625 20.015625 
Q 33.0625 21.96875 24.703125 23.78125 
L 21.578125 24.515625 
Q 13.234375 26.265625 9.515625 29.90625 
Q 5.8125 33.546875 5.8125 39.890625 
Q 5.8125 47.609375 11.28125 51.796875 
Q 16.75 56 26.8125 56 
Q 31.78125 56 36.171875 55.265625 
Q 40.578125 54.546875 44.28125 53.078125 
z
" id="DejaVuSans-115"/>
      <path d="M 25.390625 72.90625 
L 33.6875 72.90625 
L 8.296875 -9.28125 
L 0 -9.28125 
z
" id="DejaVuSans-47"/>
      <path d="M 45.40625 46.390625 
L 45.40625 75.984375 
L 54.390625 75.984375 
L 54.390625 0 
L 45.40625 0 
L 45.40625 8.203125 
Q 42.578125 3.328125 38.25 0.953125 
Q 33.9375 -1.421875 27.875 -1.421875 
Q 17.96875 -1.421875 11.734375 6.484375 
Q 5.515625 14.40625 5.515625 27.296875 
Q 5.515625 40.1875 11.734375 48.09375 
Q 17.96875 56 27.875 56 
Q 33.9375 56 38.25 53.625 
Q 42.578125 51.265625 45.40625 46.390625 
z
M 14.796875 27.296875 
Q 14.796875 17.390625 18.875 11.75 
Q 22.953125 6.109375 30.078125 6.109375 
Q 37.203125 6.109375 41.296875 11.75 
Q 45.40625 17.390625 45.40625 27.296875 
Q 45.40625 37.203125 41.296875 42.84375 
Q 37.203125 48.484375 30.078125 48.484375 
Q 22.953125 48.484375 18.875 42.84375 
Q 14.796875 37.203125 14.796875 27.296875 
z
" id="DejaVuSans-100"/>
      <path d="M 9.421875 54.6875 
L 18.40625 54.6875 
L 18.40625 0 
L 9.421875 0 
z
M 9.421875 75.984375 
L 18.40625 75.984375 
L 18.40625 64.59375 
L 9.421875 64.59375 
z
" id="DejaVuSans-105"/>
      <path d="M 52 44.1875 
Q 55.375 50.25 60.0625 53.125 
Q 64.75 56 71.09375 56 
Q 79.640625 56 84.28125 50.015625 
Q 88.921875 44.046875 88.921875 33.015625 
L 88.921875 0 
L 79.890625 0 
L 79.890625 32.71875 
Q 79.890625 40.578125 77.09375 44.375 
Q 74.3125 48.1875 68.609375 48.1875 
Q 61.625 48.1875 57.5625 43.546875 
Q 53.515625 38.921875 53.515625 30.90625 
L 53.515625 0 
L 44.484375 0 
L 44.484375 32.71875 
Q 44.484375 40.625 41.703125 44.40625 
Q 38.921875 48.1875 33.109375 48.1875 
Q 26.21875 48.1875 22.15625 43.53125 
Q 18.109375 38.875 18.109375 30.90625 
L 18.109375 0 
L 9.078125 0 
L 9.078125 54.6875 
L 18.109375 54.6875 
L 18.109375 46.1875 
Q 21.1875 51.21875 25.484375 53.609375 
Q 29.78125 56 35.6875 56 
Q 41.65625 56 45.828125 52.96875 
Q 50 49.953125 52 44.1875 
z
" id="DejaVuSans-109"/>
      <path d="M 54.890625 33.015625 
L 54.890625 0 
L 45.90625 0 
L 45.90625 32.71875 
Q 45.90625 40.484375 42.875 44.328125 
Q 39.84375 48.1875 33.796875 48.1875 
Q 26.515625 48.1875 22.3125 43.546875 
Q 18.109375 38.921875 18.109375 30.90625 
L 18.109375 0 
L 9.078125 0 
L 9.078125 54.6875 
L 18.109375 54.6875 
L 18.109375 46.1875 
Q 21.34375 51.125 25.703125 53.5625 
Q 30.078125 56 35.796875 56 
Q 45.21875 56 50.046875 50.171875 
Q 54.890625 44.34375 54.890625 33.015625 
z
" id="DejaVuSans-110"/>
      <path d="M 8.015625 75.875 
L 15.828125 75.875 
Q 23.140625 64.359375 26.78125 53.3125 
Q 30.421875 42.28125 30.421875 31.390625 
Q 30.421875 20.453125 26.78125 9.375 
Q 23.140625 -1.703125 15.828125 -13.1875 
L 8.015625 -13.1875 
Q 14.5 -2 17.703125 9.0625 
Q 20.90625 20.125 20.90625 31.390625 
Q 20.90625 42.671875 17.703125 53.65625 
Q 14.5 64.65625 8.015625 75.875 
z
" id="DejaVuSans-41"/>
     </defs>
     <g transform="translate(77.303219 342.217594)scale(0.17 -0.17)">
      <use xlink:href="#DejaVuSans-108"/>
      <use x="27.783203" xlink:href="#DejaVuSans-111"/>
      <use x="88.964844" xlink:href="#DejaVuSans-103"/>
      <use x="152.441406" xlink:href="#DejaVuSans-49"/>
      <use x="216.064453" xlink:href="#DejaVuSans-48"/>
      <use x="279.6875" xlink:href="#DejaVuSans-40"/>
      <use x="318.701172" xlink:href="#DejaVuSans-35"/>
      <use x="402.490234" xlink:href="#DejaVuSans-32"/>
      <use x="434.277344" xlink:href="#DejaVuSans-102"/>
      <use x="469.404297" xlink:href="#DejaVuSans-45"/>
      <use x="505.488281" xlink:href="#DejaVuSans-101"/>
      <use x="567.011719" xlink:href="#DejaVuSans-118"/>
      <use x="626.191406" xlink:href="#DejaVuSans-97"/>
      <use x="687.470703" xlink:href="#DejaVuSans-108"/>
      <use x="715.253906" xlink:href="#DejaVuSans-115"/>
      <use x="767.353516" xlink:href="#DejaVuSans-32"/>
      <use x="799.140625" xlink:href="#DejaVuSans-47"/>
      <use x="832.832031" xlink:href="#DejaVuSans-32"/>
      <use x="864.619141" xlink:href="#DejaVuSans-100"/>
      <use x="928.095703" xlink:href="#DejaVuSans-105"/>
      <use x="955.878906" xlink:href="#DejaVuSans-109"/>
      <use x="1053.291016" xlink:href="#DejaVuSans-101"/>
      <use x="1114.814453" xlink:href="#DejaVuSans-110"/>
      <use x="1178.193359" xlink:href="#DejaVuSans-115"/>
      <use x="1230.292969" xlink:href="#DejaVuSans-105"/>
      <use x="1258.076172" xlink:href="#DejaVuSans-111"/>
      <use x="1319.257812" xlink:href="#DejaVuSans-110"/>
      <use x="1382.636719" xlink:href="#DejaVuSans-41"/>
     </g>
    </g>
   </g>
   <g id="matplotlib.axis_2">
    <g id="ytick_1">
     <g id="line2d_21">
      <path clip-path="url(#p2c4b02c077)" d="M 57.6 298.944 
L 338.688 298.944 
" style="fill:none;stroke:#b0b0b0;stroke-linecap:square;stroke-width:0.8;"/>
     </g>
     <g id="line2d_22">
      <defs>
       <path d="M 0 0 
L -3.5 0 
" id="mbb3dd9f3cd" style="stroke:#000000;stroke-width:0.8;"/>
      </defs>
      <g>
       <use style="stroke:#000000;stroke-width:0.8;" x="57.6" xlink:href="#mbb3dd9f3cd" y="298.944"/>
      </g>
     </g>
     <g id="text_6">
      <!-- 0.0 -->
      <defs>
       <path d="M 10.6875 12.40625 
L 21 12.40625 
L 21 0 
L 10.6875 0 
z
" id="DejaVuSans-46"/>
      </defs>
      <g transform="translate(25.155 305.02275)scale(0.16 -0.16)">
       <use xlink:href="#DejaVuSans-48"/>
       <use x="63.623047" xlink:href="#DejaVuSans-46"/>
       <use x="95.410156" xlink:href="#DejaVuSans-48"/>
      </g>
     </g>
    </g>
    <g id="ytick_2">
     <g id="line2d_23">
      <path clip-path="url(#p2c4b02c077)" d="M 57.6 245.22202 
L 338.688 245.22202 
" style="fill:none;stroke:#b0b0b0;stroke-linecap:square;stroke-width:0.8;"/>
     </g>
     <g id="line2d_24">
      <g>
       <use style="stroke:#000000;stroke-width:0.8;" x="57.6" xlink:href="#mbb3dd9f3cd" y="245.22202"/>
      </g>
     </g>
     <g id="text_7">
      <!-- 0.2 -->
      <g transform="translate(25.155 251.30077)scale(0.16 -0.16)">
       <use xlink:href="#DejaVuSans-48"/>
       <use x="63.623047" xlink:href="#DejaVuSans-46"/>
       <use x="95.410156" xlink:href="#DejaVuSans-50"/>
      </g>
     </g>
    </g>
    <g id="ytick_3">
     <g id="line2d_25">
      <path clip-path="url(#p2c4b02c077)" d="M 57.6 191.50004 
L 338.688 191.50004 
" style="fill:none;stroke:#b0b0b0;stroke-linecap:square;stroke-width:0.8;"/>
     </g>
     <g id="line2d_26">
      <g>
       <use style="stroke:#000000;stroke-width:0.8;" x="57.6" xlink:href="#mbb3dd9f3cd" y="191.50004"/>
      </g>
     </g>
     <g id="text_8">
      <!-- 0.4 -->
      <g transform="translate(25.155 197.57879)scale(0.16 -0.16)">
       <use xlink:href="#DejaVuSans-48"/>
       <use x="63.623047" xlink:href="#DejaVuSans-46"/>
       <use x="95.410156" xlink:href="#DejaVuSans-52"/>
      </g>
     </g>
    </g>
    <g id="ytick_4">
     <g id="line2d_27">
      <path clip-path="url(#p2c4b02c077)" d="M 57.6 137.778059 
L 338.688 137.778059 
" style="fill:none;stroke:#b0b0b0;stroke-linecap:square;stroke-width:0.8;"/>
     </g>
     <g id="line2d_28">
      <g>
       <use style="stroke:#000000;stroke-width:0.8;" x="57.6" xlink:href="#mbb3dd9f3cd" y="137.778059"/>
      </g>
     </g>
     <g id="text_9">
      <!-- 0.6 -->
      <g transform="translate(25.155 143.856809)scale(0.16 -0.16)">
       <use xlink:href="#DejaVuSans-48"/>
       <use x="63.623047" xlink:href="#DejaVuSans-46"/>
       <use x="95.410156" xlink:href="#DejaVuSans-54"/>
      </g>
     </g>
    </g>
    <g id="ytick_5">
     <g id="line2d_29">
      <path clip-path="url(#p2c4b02c077)" d="M 57.6 84.056079 
L 338.688 84.056079 
" style="fill:none;stroke:#b0b0b0;stroke-linecap:square;stroke-width:0.8;"/>
     </g>
     <g id="line2d_30">
      <g>
       <use style="stroke:#000000;stroke-width:0.8;" x="57.6" xlink:href="#mbb3dd9f3cd" y="84.056079"/>
      </g>
     </g>
     <g id="text_10">
      <!-- 0.8 -->
      <defs>
       <path d="M 31.78125 34.625 
Q 24.75 34.625 20.71875 30.859375 
Q 16.703125 27.09375 16.703125 20.515625 
Q 16.703125 13.921875 20.71875 10.15625 
Q 24.75 6.390625 31.78125 6.390625 
Q 38.8125 6.390625 42.859375 10.171875 
Q 46.921875 13.96875 46.921875 20.515625 
Q 46.921875 27.09375 42.890625 30.859375 
Q 38.875 34.625 31.78125 34.625 
z
M 21.921875 38.8125 
Q 15.578125 40.375 12.03125 44.71875 
Q 8.5 49.078125 8.5 55.328125 
Q 8.5 64.0625 14.71875 69.140625 
Q 20.953125 74.21875 31.78125 74.21875 
Q 42.671875 74.21875 48.875 69.140625 
Q 55.078125 64.0625 55.078125 55.328125 
Q 55.078125 49.078125 51.53125 44.71875 
Q 48 40.375 41.703125 38.8125 
Q 48.828125 37.15625 52.796875 32.3125 
Q 56.78125 27.484375 56.78125 20.515625 
Q 56.78125 9.90625 50.3125 4.234375 
Q 43.84375 -1.421875 31.78125 -1.421875 
Q 19.734375 -1.421875 13.25 4.234375 
Q 6.78125 9.90625 6.78125 20.515625 
Q 6.78125 27.484375 10.78125 32.3125 
Q 14.796875 37.15625 21.921875 38.8125 
z
M 18.3125 54.390625 
Q 18.3125 48.734375 21.84375 45.5625 
Q 25.390625 42.390625 31.78125 42.390625 
Q 38.140625 42.390625 41.71875 45.5625 
Q 45.3125 48.734375 45.3125 54.390625 
Q 45.3125 60.0625 41.71875 63.234375 
Q 38.140625 66.40625 31.78125 66.40625 
Q 25.390625 66.40625 21.84375 63.234375 
Q 18.3125 60.0625 18.3125 54.390625 
z
" id="DejaVuSans-56"/>
      </defs>
      <g transform="translate(25.155 90.134829)scale(0.16 -0.16)">
       <use xlink:href="#DejaVuSans-48"/>
       <use x="63.623047" xlink:href="#DejaVuSans-46"/>
       <use x="95.410156" xlink:href="#DejaVuSans-56"/>
      </g>
     </g>
    </g>
    <g id="ytick_6">
     <g id="line2d_31">
      <path clip-path="url(#p2c4b02c077)" d="M 57.6 30.334099 
L 338.688 30.334099 
" style="fill:none;stroke:#b0b0b0;stroke-linecap:square;stroke-width:0.8;"/>
     </g>
     <g id="line2d_32">
      <g>
       <use style="stroke:#000000;stroke-width:0.8;" x="57.6" xlink:href="#mbb3dd9f3cd" y="30.334099"/>
      </g>
     </g>
     <g id="text_11">
      <!-- 1.0 -->
      <g transform="translate(25.155 36.412849)scale(0.16 -0.16)">
       <use xlink:href="#DejaVuSans-49"/>
       <use x="63.623047" xlink:href="#DejaVuSans-46"/>
       <use x="95.410156" xlink:href="#DejaVuSans-48"/>
      </g>
     </g>
    </g>
    <g id="text_12">
     <!-- Fraction of function,target pairs -->
     <defs>
      <path d="M 9.8125 72.90625 
L 51.703125 72.90625 
L 51.703125 64.59375 
L 19.671875 64.59375 
L 19.671875 43.109375 
L 48.578125 43.109375 
L 48.578125 34.8125 
L 19.671875 34.8125 
L 19.671875 0 
L 9.8125 0 
z
" id="DejaVuSans-70"/>
      <path d="M 41.109375 46.296875 
Q 39.59375 47.171875 37.8125 47.578125 
Q 36.03125 48 33.890625 48 
Q 26.265625 48 22.1875 43.046875 
Q 18.109375 38.09375 18.109375 28.8125 
L 18.109375 0 
L 9.078125 0 
L 9.078125 54.6875 
L 18.109375 54.6875 
L 18.109375 46.1875 
Q 20.953125 51.171875 25.484375 53.578125 
Q 30.03125 56 36.53125 56 
Q 37.453125 56 38.578125 55.875 
Q 39.703125 55.765625 41.0625 55.515625 
z
" id="DejaVuSans-114"/>
      <path d="M 48.78125 52.59375 
L 48.78125 44.1875 
Q 44.96875 46.296875 41.140625 47.34375 
Q 37.3125 48.390625 33.40625 48.390625 
Q 24.65625 48.390625 19.8125 42.84375 
Q 14.984375 37.3125 14.984375 27.296875 
Q 14.984375 17.28125 19.8125 11.734375 
Q 24.65625 6.203125 33.40625 6.203125 
Q 37.3125 6.203125 41.140625 7.25 
Q 44.96875 8.296875 48.78125 10.40625 
L 48.78125 2.09375 
Q 45.015625 0.34375 40.984375 -0.53125 
Q 36.96875 -1.421875 32.421875 -1.421875 
Q 20.0625 -1.421875 12.78125 6.34375 
Q 5.515625 14.109375 5.515625 27.296875 
Q 5.515625 40.671875 12.859375 48.328125 
Q 20.21875 56 33.015625 56 
Q 37.15625 56 41.109375 55.140625 
Q 45.0625 54.296875 48.78125 52.59375 
z
" id="DejaVuSans-99"/>
      <path d="M 18.3125 70.21875 
L 18.3125 54.6875 
L 36.8125 54.6875 
L 36.8125 47.703125 
L 18.3125 47.703125 
L 18.3125 18.015625 
Q 18.3125 11.328125 20.140625 9.421875 
Q 21.96875 7.515625 27.59375 7.515625 
L 36.8125 7.515625 
L 36.8125 0 
L 27.59375 0 
Q 17.1875 0 13.234375 3.875 
Q 9.28125 7.765625 9.28125 18.015625 
L 9.28125 47.703125 
L 2.6875 47.703125 
L 2.6875 54.6875 
L 9.28125 54.6875 
L 9.28125 70.21875 
z
" id="DejaVuSans-116"/>
      <path d="M 8.5 21.578125 
L 8.5 54.6875 
L 17.484375 54.6875 
L 17.484375 21.921875 
Q 17.484375 14.15625 20.5 10.265625 
Q 23.53125 6.390625 29.59375 6.390625 
Q 36.859375 6.390625 41.078125 11.03125 
Q 45.3125 15.671875 45.3125 23.6875 
L 45.3125 54.6875 
L 54.296875 54.6875 
L 54.296875 0 
L 45.3125 0 
L 45.3125 8.40625 
Q 42.046875 3.421875 37.71875 1 
Q 33.40625 -1.421875 27.6875 -1.421875 
Q 18.265625 -1.421875 13.375 4.4375 
Q 8.5 10.296875 8.5 21.578125 
z
M 31.109375 56 
z
" id="DejaVuSans-117"/>
      <path d="M 11.71875 12.40625 
L 22.015625 12.40625 
L 22.015625 4 
L 14.015625 -11.625 
L 7.71875 -11.625 
L 11.71875 4 
z
" id="DejaVuSans-44"/>
      <path d="M 18.109375 8.203125 
L 18.109375 -20.796875 
L 9.078125 -20.796875 
L 9.078125 54.6875 
L 18.109375 54.6875 
L 18.109375 46.390625 
Q 20.953125 51.265625 25.265625 53.625 
Q 29.59375 56 35.59375 56 
Q 45.5625 56 51.78125 48.09375 
Q 58.015625 40.1875 58.015625 27.296875 
Q 58.015625 14.40625 51.78125 6.484375 
Q 45.5625 -1.421875 35.59375 -1.421875 
Q 29.59375 -1.421875 25.265625 0.953125 
Q 20.953125 3.328125 18.109375 8.203125 
z
M 48.6875 27.296875 
Q 48.6875 37.203125 44.609375 42.84375 
Q 40.53125 48.484375 33.40625 48.484375 
Q 26.265625 48.484375 22.1875 42.84375 
Q 18.109375 37.203125 18.109375 27.296875 
Q 18.109375 17.390625 22.1875 11.75 
Q 26.265625 6.109375 33.40625 6.109375 
Q 40.53125 6.109375 44.609375 11.75 
Q 48.6875 17.390625 48.6875 27.296875 
z
" id="DejaVuSans-112"/>
     </defs>
     <g transform="translate(17.619531 298.435375)rotate(-90)scale(0.17 -0.17)">
      <use xlink:href="#DejaVuSans-70"/>
      <use x="57.410156" xlink:href="#DejaVuSans-114"/>
      <use x="98.523438" xlink:href="#DejaVuSans-97"/>
      <use x="159.802734" xlink:href="#DejaVuSans-99"/>
      <use x="214.783203" xlink:href="#DejaVuSans-116"/>
      <use x="253.992188" xlink:href="#DejaVuSans-105"/>
      <use x="281.775391" xlink:href="#DejaVuSans-111"/>
      <use x="342.957031" xlink:href="#DejaVuSans-110"/>
      <use x="406.335938" xlink:href="#DejaVuSans-32"/>
      <use x="438.123047" xlink:href="#DejaVuSans-111"/>
      <use x="499.304688" xlink:href="#DejaVuSans-102"/>
      <use x="534.509766" xlink:href="#DejaVuSans-32"/>
      <use x="566.296875" xlink:href="#DejaVuSans-102"/>
      <use x="601.501953" xlink:href="#DejaVuSans-117"/>
      <use x="664.880859" xlink:href="#DejaVuSans-110"/>
      <use x="728.259766" xlink:href="#DejaVuSans-99"/>
      <use x="783.240234" xlink:href="#DejaVuSans-116"/>
      <use x="822.449219" xlink:href="#DejaVuSans-105"/>
      <use x="850.232422" xlink:href="#DejaVuSans-111"/>
      <use x="911.414062" xlink:href="#DejaVuSans-110"/>
      <use x="974.792969" xlink:href="#DejaVuSans-44"/>
      <use x="1006.580078" xlink:href="#DejaVuSans-116"/>
      <use x="1045.789062" xlink:href="#DejaVuSans-97"/>
      <use x="1107.068359" xlink:href="#DejaVuSans-114"/>
      <use x="1148.166016" xlink:href="#DejaVuSans-103"/>
      <use x="1211.642578" xlink:href="#DejaVuSans-101"/>
      <use x="1273.166016" xlink:href="#DejaVuSans-116"/>
      <use x="1312.375" xlink:href="#DejaVuSans-32"/>
      <use x="1344.162109" xlink:href="#DejaVuSans-112"/>
      <use x="1407.638672" xlink:href="#DejaVuSans-97"/>
      <use x="1468.917969" xlink:href="#DejaVuSans-105"/>
      <use x="1496.701172" xlink:href="#DejaVuSans-114"/>
      <use x="1537.814453" xlink:href="#DejaVuSans-115"/>
     </g>
    </g>
   </g>
   <g id="line2d_33">
    <defs>
     <path d="M 0 1.5 
C 0.397805 1.5 0.77937 1.341951 1.06066 1.06066 
C 1.341951 0.77937 1.5 0.397805 1.5 0 
C 1.5 -0.397805 1.341951 -0.77937 1.06066 -1.06066 
C 0.77937 -1.341951 0.397805 -1.5 0 -1.5 
C -0.397805 -1.5 -0.77937 -1.341951 -1.06066 -1.06066 
C -1.341951 -0.77937 -1.5 -0.397805 -1.5 0 
C -1.5 0.397805 -1.341951 0.77937 -1.06066 1.06066 
C -0.77937 1.341951 -0.397805 1.5 0 1.5 
z
" id="m8d46e6c289" style="stroke:#f5deb3;"/>
    </defs>
    <g>
     <use style="fill:#f5deb3;stroke:#f5deb3;" x="226.818635" xlink:href="#m8d46e6c289" y="30.334099"/>
     <use style="fill:#f5deb3;stroke:#f5deb3;" x="226.818635" xlink:href="#m8d46e6c289" y="30.334099"/>
    </g>
   </g>
   <g id="line2d_34">
    <defs>
     <path d="M 0 1.5 
C 0.397805 1.5 0.77937 1.341951 1.06066 1.06066 
C 1.341951 0.77937 1.5 0.397805 1.5 0 
C 1.5 -0.397805 1.341951 -0.77937 1.06066 -1.06066 
C 0.77937 -1.341951 0.397805 -1.5 0 -1.5 
C -0.397805 -1.5 -0.77937 -1.341951 -1.06066 -1.06066 
C -1.341951 -0.77937 -1.5 -0.397805 -1.5 0 
C -1.5 0.397805 -1.341951 0.77937 -1.06066 1.06066 
C -0.77937 1.341951 -0.397805 1.5 0 1.5 
z
" id="m2b4d954506" style="stroke:#000080;"/>
    </defs>
    <g>
     <use style="fill:#000080;stroke:#000080;" x="261.892131" xlink:href="#m2b4d954506" y="241.008531"/>
     <use style="fill:#000080;stroke:#000080;" x="261.892131" xlink:href="#m2b4d954506" y="241.008531"/>
    </g>
   </g>
   <g id="line2d_35">
    <path d="M -1 293.677139 
L 78.81306 293.677139 
L 78.81306 293.150453 
L 85.403869 293.150453 
L 85.403869 292.623767 
L 87.408671 292.623767 
L 87.408671 292.097081 
L 87.952479 292.097081 
L 87.952479 291.570395 
L 89.972502 291.570395 
L 89.972502 291.043709 
L 90.706194 291.043709 
L 90.706194 289.990337 
L 92.911987 289.990337 
L 92.911987 289.463651 
L 94.558424 289.463651 
L 94.610715 288.410278 
L 95.276613 288.410278 
L 95.376839 287.356906 
L 97.043522 287.356906 
L 97.043522 286.83022 
L 97.580158 286.83022 
L 97.580158 286.303534 
L 98.523051 286.303534 
L 98.523051 285.776848 
L 99.218261 285.776848 
L 99.218261 285.250162 
L 99.925356 285.250162 
L 99.925356 284.723476 
L 100.078669 284.723476 
L 100.078669 284.19679 
L 100.306142 284.19679 
L 100.381311 282.616732 
L 102.060491 282.616732 
L 102.060491 282.090045 
L 102.297303 282.090045 
L 102.297303 281.563359 
L 102.761494 281.563359 
L 102.761494 281.036673 
L 102.989037 281.036673 
L 102.989037 280.509987 
L 103.372333 280.509987 
L 103.466855 279.456615 
L 105.028729 279.456615 
L 105.028729 278.929929 
L 105.370129 278.929929 
L 105.398279 277.876557 
L 106.168594 277.876557 
L 106.168594 277.349871 
L 106.514993 277.349871 
L 106.514993 276.823185 
L 107.464828 276.823185 
L 107.514726 275.769812 
L 107.638849 275.769812 
L 107.638849 275.243126 
L 108.436627 275.243126 
L 108.460241 274.189754 
L 108.577836 274.189754 
L 108.624653 273.136382 
L 109.131511 273.136382 
L 109.222105 272.08301 
L 109.31223 272.08301 
L 109.31223 271.556324 
L 109.995347 271.556324 
L 109.995347 271.029638 
L 110.274038 271.029638 
L 110.274038 270.502952 
L 110.818406 270.502952 
L 110.818406 269.976266 
L 111.185562 269.976266 
L 111.185562 269.449579 
L 113.329092 269.449579 
L 113.329092 268.922893 
L 113.873839 268.922893 
L 113.873839 268.396207 
L 115.365285 268.396207 
L 115.365285 267.869521 
L 115.695673 267.869521 
L 115.695673 267.342835 
L 116.126675 267.342835 
L 116.187386 266.289463 
L 118.148599 266.289463 
L 118.148599 265.762777 
L 151.797193 265.762777 
L 151.797193 265.236091 
L 152.369722 265.236091 
L 152.369722 264.709405 
L 152.622853 264.709405 
L 152.622853 264.182719 
L 152.833495 264.182719 
L 152.916676 263.129347 
L 152.951678 263.129347 
L 153.014138 261.549288 
L 153.187483 261.549288 
L 153.202002 260.495916 
L 153.344733 260.495916 
L 153.344733 259.96923 
L 153.883332 259.96923 
L 153.909481 258.915858 
L 154.192857 258.915858 
L 154.302205 257.862486 
L 154.622851 257.862486 
L 154.622851 257.3358 
L 155.819904 257.3358 
L 155.819904 256.809114 
L 167.825734 256.809114 
L 167.825734 256.282427 
L 168.218916 256.282427 
L 168.218916 255.755741 
L 179.741501 255.755741 
L 179.741501 255.229055 
L 180.020064 255.229055 
L 180.020064 254.702369 
L 180.197288 254.702369 
L 180.197288 254.175683 
L 192.403901 254.175683 
L 192.403901 253.648997 
L 216.143045 253.648997 
L 216.143045 253.122311 
L 216.535176 253.122311 
L 216.535176 252.595625 
L 216.81067 252.595625 
L 216.81067 252.068939 
L 230.348201 252.068939 
L 230.351159 250.488881 
L 230.528108 250.488881 
L 230.545386 247.328764 
L 230.812526 247.328764 
L 230.812526 246.802078 
L 232.125169 246.802078 
L 232.205875 245.748706 
L 236.842373 245.748706 
L 236.842373 245.22202 
L 246.032602 245.22202 
L 246.032602 244.695334 
L 249.498144 244.695334 
L 249.498144 244.168648 
L 254.996221 244.168648 
L 254.996221 243.641962 
L 258.40575 243.641962 
L 258.439338 242.588589 
L 258.79617 242.588589 
L 258.79617 242.061903 
L 261.609204 242.061903 
L 261.609204 241.535217 
L 261.892131 241.535217 
L 261.892131 241.008531 
L 338.688 241.008531 
L 338.688 241.008531 
" style="fill:none;stroke:#000080;stroke-linecap:square;stroke-width:1.5;"/>
   </g>
   <g id="line2d_36">
    <defs>
     <path d="M 0 6 
C 1.591219 6 3.117479 5.367802 4.242641 4.242641 
C 5.367802 3.117479 6 1.591219 6 0 
C 6 -1.591219 5.367802 -3.117479 4.242641 -4.242641 
C 3.117479 -5.367802 1.591219 -6 0 -6 
C -1.591219 -6 -3.117479 -5.367802 -4.242641 -4.242641 
C -5.367802 -3.117479 -6 -1.591219 -6 0 
C -6 1.591219 -5.367802 3.117479 -4.242641 4.242641 
C -3.117479 5.367802 -1.591219 6 0 6 
z
" id="m130507bb0e" style="stroke:#000080;stroke-width:1.5;"/>
    </defs>
    <g>
     <use style="fill-opacity:0;stroke:#000080;stroke-width:1.5;" x="90.706194" xlink:href="#m130507bb0e" y="289.990337"/>
     <use style="fill-opacity:0;stroke:#000080;stroke-width:1.5;" x="168.218916" xlink:href="#m130507bb0e" y="255.755741"/>
     <use style="fill-opacity:0;stroke:#000080;stroke-width:1.5;" x="261.609204" xlink:href="#m130507bb0e" y="242.061903"/>
     <use style="fill-opacity:0;stroke:#000080;stroke-width:1.5;" x="261.892131" xlink:href="#m130507bb0e" y="241.008531"/>
     <use style="fill-opacity:0;stroke:#000080;stroke-width:1.5;" x="261.892131" xlink:href="#m130507bb0e" y="241.008531"/>
     <use style="fill-opacity:0;stroke:#000080;stroke-width:1.5;" x="338.688" xlink:href="#m130507bb0e" y="241.008531"/>
    </g>
   </g>
   <g id="line2d_37">
    <path style="fill:none;stroke:#000080;stroke-linecap:square;stroke-width:1.5;"/>
    <g/>
   </g>
   <g id="line2d_38">
    <path clip-path="url(#p2c4b02c077)" d="M 230.328745 252.068939 
" style="fill:none;stroke:#000080;stroke-linecap:square;stroke-width:1.5;"/>
    <defs>
     <path d="M -12 12 
L 12 -12 
M -12 -12 
L 12 12 
" id="m01b643dfdc" style="stroke:#000080;"/>
    </defs>
    <g clip-path="url(#p2c4b02c077)">
     <use style="fill:#000080;stroke:#000080;" x="230.328745" xlink:href="#m01b643dfdc" y="252.068939"/>
    </g>
   </g>
   <g id="line2d_39">
    <g>
     <use style="fill:#000080;stroke:#000080;" x="278.270104" xlink:href="#m2b4d954506" y="241.008531"/>
     <use style="fill:#000080;stroke:#000080;" x="278.270104" xlink:href="#m2b4d954506" y="241.008531"/>
    </g>
   </g>
   <g id="line2d_40">
    <path d="M -1 293.677139 
L 82.833227 293.677139 
L 82.833227 293.150453 
L 84.864467 293.150453 
L 84.864467 292.623767 
L 87.329581 292.623767 
L 87.329581 292.097081 
L 87.565783 292.097081 
L 87.565783 291.570395 
L 87.798828 291.570395 
L 87.798828 291.043709 
L 89.063637 291.043709 
L 89.135256 289.463651 
L 91.965895 289.463651 
L 91.965895 288.936964 
L 92.087002 288.936964 
L 92.087002 288.410278 
L 92.326721 288.410278 
L 92.326721 287.883592 
L 93.366456 287.883592 
L 93.366456 287.356906 
L 94.347675 287.356906 
L 94.347675 286.83022 
L 95.426737 286.83022 
L 95.426737 286.303534 
L 95.918017 286.303534 
L 96.014634 285.250162 
L 96.906743 285.250162 
L 96.906743 284.19679 
L 98.100772 284.19679 
L 98.100772 283.670104 
L 99.457159 283.670104 
L 99.457159 282.616732 
L 99.80948 282.616732 
L 99.80948 282.090045 
L 100.456158 282.090045 
L 100.456158 281.563359 
L 100.567829 281.563359 
L 100.567829 281.036673 
L 100.934985 281.036673 
L 100.934985 280.509987 
L 101.958007 280.509987 
L 101.992235 279.456615 
L 102.263669 279.456615 
L 102.263669 278.929929 
L 103.466855 278.929929 
L 103.560868 277.876557 
L 103.623262 277.876557 
L 103.623262 277.349871 
L 103.901308 277.349871 
L 103.901308 276.823185 
L 104.023475 276.823185 
L 104.023475 276.296499 
L 104.384924 276.296499 
L 104.384924 275.769812 
L 105.285403 275.769812 
L 105.285403 275.243126 
L 105.649611 275.243126 
L 105.649611 274.71644 
L 105.842616 274.71644 
L 105.842616 274.189754 
L 106.409139 274.189754 
L 106.409139 273.663068 
L 106.593963 273.663068 
L 106.593963 273.136382 
L 108.03021 273.136382 
L 108.03021 272.609696 
L 108.246551 272.609696 
L 108.246551 272.08301 
L 108.365591 272.08301 
L 108.365591 271.556324 
L 108.764355 271.556324 
L 108.764355 271.029638 
L 109.424236 271.029638 
L 109.424236 270.502952 
L 109.799764 270.502952 
L 109.799764 269.976266 
L 110.337724 269.976266 
L 110.337724 269.449579 
L 110.694282 269.449579 
L 110.694282 268.922893 
L 111.663381 268.922893 
L 111.663381 268.396207 
L 111.897469 268.396207 
L 111.897469 267.869521 
L 112.147567 267.869521 
L 112.147567 267.342835 
L 112.562808 267.342835 
L 112.562808 266.816149 
L 113.524343 266.816149 
L 113.594805 265.762777 
L 114.485807 265.762777 
L 114.485807 265.236091 
L 115.648856 265.236091 
L 115.648856 264.709405 
L 116.841622 264.709405 
L 116.841622 264.182719 
L 117.15976 264.182719 
L 117.15976 263.656033 
L 118.708196 263.656033 
L 118.708196 263.129347 
L 119.45259 263.129347 
L 119.45259 262.60266 
L 119.911382 262.60266 
L 119.911382 262.075974 
L 120.118198 262.075974 
L 120.118198 261.549288 
L 152.266666 261.549288 
L 152.291531 260.495916 
L 152.508077 260.495916 
L 152.517513 259.442544 
L 152.82052 259.442544 
L 152.839053 258.389172 
L 152.960877 258.389172 
L 152.960877 257.862486 
L 153.61434 257.862486 
L 153.655043 256.809114 
L 153.980758 256.809114 
L 153.980758 256.282427 
L 154.2117 256.282427 
L 154.2117 255.755741 
L 167.388935 255.755741 
L 167.388935 255.229055 
L 167.667369 255.229055 
L 167.667369 254.702369 
L 167.895398 254.702369 
L 167.970232 253.648997 
L 168.118942 253.648997 
L 168.192057 252.595625 
L 168.420194 252.595625 
L 168.420194 252.068939 
L 168.646882 252.068939 
L 168.646882 251.542253 
L 179.79686 251.542253 
L 179.79686 251.015567 
L 180.175667 251.015567 
L 180.175667 250.488881 
L 180.611725 250.488881 
L 180.611725 249.962195 
L 191.993866 249.962195 
L 191.993866 249.435508 
L 193.118145 249.435508 
L 193.118145 248.908822 
L 249.948222 248.908822 
L 249.948222 248.382136 
L 250.26139 248.382136 
L 250.26139 247.85545 
L 250.444861 247.85545 
L 250.446318 246.802078 
L 250.60352 246.802078 
L 250.668929 244.695334 
L 250.898298 244.695334 
L 250.898298 244.168648 
L 261.875048 244.168648 
L 261.875048 243.641962 
L 262.272369 243.641962 
L 262.374919 242.588589 
L 269.165741 242.588589 
L 269.165741 242.061903 
L 274.165105 242.061903 
L 274.165105 241.535217 
L 278.270104 241.535217 
L 278.270104 241.008531 
L 338.688 241.008531 
L 338.688 241.008531 
" style="fill:none;stroke:#000080;stroke-linecap:square;stroke-width:1.5;"/>
   </g>
   <g id="line2d_41">
    <g>
     <use style="fill-opacity:0;stroke:#000080;stroke-width:1.5;" x="94.347675" xlink:href="#m130507bb0e" y="286.83022"/>
     <use style="fill-opacity:0;stroke:#000080;stroke-width:1.5;" x="154.2117" xlink:href="#m130507bb0e" y="255.755741"/>
     <use style="fill-opacity:0;stroke:#000080;stroke-width:1.5;" x="193.118145" xlink:href="#m130507bb0e" y="248.908822"/>
     <use style="fill-opacity:0;stroke:#000080;stroke-width:1.5;" x="278.270104" xlink:href="#m130507bb0e" y="241.008531"/>
     <use style="fill-opacity:0;stroke:#000080;stroke-width:1.5;" x="278.270104" xlink:href="#m130507bb0e" y="241.008531"/>
     <use style="fill-opacity:0;stroke:#000080;stroke-width:1.5;" x="338.688" xlink:href="#m130507bb0e" y="241.008531"/>
    </g>
   </g>
   <g id="line2d_42">
    <path style="fill:none;stroke:#000080;stroke-linecap:square;stroke-width:1.5;"/>
    <g/>
   </g>
   <g id="line2d_43">
    <path clip-path="url(#p2c4b02c077)" d="M 249.822573 248.908822 
" style="fill:none;stroke:#000080;stroke-linecap:square;stroke-width:1.5;"/>
    <g clip-path="url(#p2c4b02c077)">
     <use style="fill:#000080;stroke:#000080;" x="249.822573" xlink:href="#m01b643dfdc" y="248.908822"/>
    </g>
   </g>
   <g id="line2d_44">
    <defs>
     <path d="M 0 1.5 
C 0.397805 1.5 0.77937 1.341951 1.06066 1.06066 
C 1.341951 0.77937 1.5 0.397805 1.5 0 
C 1.5 -0.397805 1.341951 -0.77937 1.06066 -1.06066 
C 0.77937 -1.341951 0.397805 -1.5 0 -1.5 
C -0.397805 -1.5 -0.77937 -1.341951 -1.06066 -1.06066 
C -1.341951 -0.77937 -1.5 -0.397805 -1.5 0 
C -1.5 0.397805 -1.341951 0.77937 -1.06066 1.06066 
C -0.77937 1.341951 -0.397805 1.5 0 1.5 
z
" id="m48f4b92f0c" style="stroke:#ff00ff;"/>
    </defs>
    <g>
     <use style="fill:#ff00ff;stroke:#ff00ff;" x="261.56626" xlink:href="#m48f4b92f0c" y="241.008531"/>
     <use style="fill:#ff00ff;stroke:#ff00ff;" x="261.56626" xlink:href="#m48f4b92f0c" y="241.008531"/>
    </g>
   </g>
   <g id="line2d_45">
    <path d="M -1 293.677139 
L 69.904628 293.677139 
L 69.904628 293.150453 
L 70.745238 293.150453 
L 70.745238 292.623767 
L 72.867545 292.623767 
L 72.867545 292.097081 
L 77.330839 292.097081 
L 77.330839 291.570395 
L 78.552767 291.570395 
L 78.552767 291.043709 
L 79.069525 291.043709 
L 79.069525 290.517023 
L 80.881459 290.517023 
L 80.881459 288.936964 
L 81.222303 288.936964 
L 81.222303 288.410278 
L 81.445886 288.410278 
L 81.445886 287.883592 
L 82.522727 287.883592 
L 82.522727 286.83022 
L 82.93551 286.83022 
L 82.93551 286.303534 
L 85.66744 286.303534 
L 85.66744 285.776848 
L 85.927087 285.776848 
L 85.927087 285.250162 
L 86.182924 285.250162 
L 86.182924 284.723476 
L 86.518305 284.723476 
L 86.518305 284.19679 
L 89.063637 284.19679 
L 89.063637 283.670104 
L 89.348366 283.670104 
L 89.348366 283.143418 
L 90.040492 283.143418 
L 90.040492 282.616732 
L 90.640756 282.616732 
L 90.640756 282.090045 
L 93.310291 282.090045 
L 93.310291 281.563359 
L 93.972622 281.563359 
L 93.972622 281.036673 
L 94.558424 281.036673 
L 94.610715 279.983301 
L 95.772081 279.983301 
L 95.772081 279.456615 
L 96.014634 279.456615 
L 96.014634 278.929929 
L 97.043522 278.929929 
L 97.043522 278.403243 
L 97.403108 278.403243 
L 97.403108 277.876557 
L 97.536064 277.876557 
L 97.536064 277.349871 
L 98.18605 277.349871 
L 98.18605 276.823185 
L 98.397438 276.823185 
L 98.397438 276.296499 
L 99.886816 276.296499 
L 99.925356 275.243126 
L 100.002181 275.243126 
L 100.002181 274.71644 
L 100.230647 274.71644 
L 100.230647 274.189754 
L 100.381311 274.189754 
L 100.381311 273.663068 
L 100.604895 273.663068 
L 100.604895 273.136382 
L 101.115705 273.136382 
L 101.151625 272.08301 
L 103.149769 272.08301 
L 103.149769 271.556324 
L 103.529587 271.556324 
L 103.529587 271.029638 
L 104.023475 271.029638 
L 104.023475 270.502952 
L 104.503761 270.502952 
L 104.503761 269.976266 
L 105.566235 269.976266 
L 105.566235 269.449579 
L 105.760161 269.449579 
L 105.760161 268.922893 
L 105.924684 268.922893 
L 105.924684 268.396207 
L 106.541356 268.396207 
L 106.620207 267.342835 
L 107.162405 267.342835 
L 107.162405 266.816149 
L 107.339455 266.816149 
L 107.364602 265.762777 
L 107.860069 265.762777 
L 107.860069 264.709405 
L 108.764355 264.709405 
L 108.764355 264.182719 
L 108.925937 264.182719 
L 108.925937 263.656033 
L 109.24468 263.656033 
L 109.24468 263.129347 
L 110.103064 263.129347 
L 110.103064 262.60266 
L 111.346294 262.60266 
L 111.406189 261.549288 
L 112.931907 261.549288 
L 112.931907 261.022602 
L 113.471309 261.022602 
L 113.471309 260.495916 
L 114.165502 260.495916 
L 114.165502 259.96923 
L 114.284194 259.96923 
L 114.284194 259.442544 
L 114.97987 259.442544 
L 114.97987 258.915858 
L 116.050487 258.915858 
L 116.050487 258.389172 
L 116.472913 258.389172 
L 116.472913 257.862486 
L 116.650866 257.862486 
L 116.650866 257.3358 
L 148.344551 257.3358 
L 148.344551 256.809114 
L 149.053772 256.809114 
L 149.053772 256.282427 
L 150.529139 256.282427 
L 150.529139 255.755741 
L 150.762296 255.755741 
L 150.762296 255.229055 
L 151.142054 255.229055 
L 151.142054 254.702369 
L 163.6087 254.702369 
L 163.6087 254.175683 
L 164.859301 254.175683 
L 164.859301 253.648997 
L 165.014804 253.648997 
L 165.014804 253.122311 
L 165.318087 253.122311 
L 165.318087 252.595625 
L 165.474058 252.595625 
L 165.474058 252.068939 
L 165.716497 252.068939 
L 165.716497 251.542253 
L 176.82881 251.542253 
L 176.82881 251.015567 
L 178.651051 251.015567 
L 178.651051 250.488881 
L 190.419719 250.488881 
L 190.419719 249.962195 
L 191.149247 249.962195 
L 191.149247 249.435508 
L 211.249838 249.435508 
L 211.249838 248.908822 
L 230.325544 248.908822 
L 230.339673 246.275392 
L 242.414828 246.275392 
L 242.417125 245.22202 
L 249.481633 245.22202 
L 249.48453 243.115275 
L 254.495792 243.115275 
L 254.497426 242.061903 
L 258.388178 242.061903 
L 258.388178 241.535217 
L 261.56626 241.535217 
L 261.56626 241.008531 
L 338.688 241.008531 
L 338.688 241.008531 
" style="fill:none;stroke:#ff00ff;stroke-linecap:square;stroke-width:1.5;"/>
   </g>
   <g id="line2d_46">
    <defs>
     <path d="M -0 8.485281 
L 5.091169 0 
L 0 -8.485281 
L -5.091169 -0 
z
" id="m1f23b394d7" style="stroke:#ff00ff;stroke-linejoin:miter;stroke-width:1.5;"/>
    </defs>
    <g>
     <use style="fill-opacity:0;stroke:#ff00ff;stroke-linejoin:miter;stroke-width:1.5;" x="105.760161" xlink:href="#m1f23b394d7" y="269.449579"/>
     <use style="fill-opacity:0;stroke:#ff00ff;stroke-linejoin:miter;stroke-width:1.5;" x="191.149247" xlink:href="#m1f23b394d7" y="249.962195"/>
     <use style="fill-opacity:0;stroke:#ff00ff;stroke-linejoin:miter;stroke-width:1.5;" x="261.56626" xlink:href="#m1f23b394d7" y="241.535217"/>
     <use style="fill-opacity:0;stroke:#ff00ff;stroke-linejoin:miter;stroke-width:1.5;" x="261.56626" xlink:href="#m1f23b394d7" y="241.008531"/>
     <use style="fill-opacity:0;stroke:#ff00ff;stroke-linejoin:miter;stroke-width:1.5;" x="338.688" xlink:href="#m1f23b394d7" y="241.008531"/>
    </g>
   </g>
   <g id="line2d_47">
    <path style="fill:none;stroke:#ff00ff;stroke-linecap:square;stroke-width:1.5;"/>
    <g/>
   </g>
   <g id="line2d_48">
    <path clip-path="url(#p2c4b02c077)" d="M 230.317919 248.908822 
" style="fill:none;stroke:#ff00ff;stroke-linecap:square;stroke-width:1.5;"/>
    <defs>
     <path d="M -12 12 
L 12 -12 
M -12 -12 
L 12 12 
" id="m0a7e3da2a8" style="stroke:#ff00ff;"/>
    </defs>
    <g clip-path="url(#p2c4b02c077)">
     <use style="fill:#ff00ff;stroke:#ff00ff;" x="230.317919" xlink:href="#m0a7e3da2a8" y="248.908822"/>
    </g>
   </g>
   <g id="line2d_49">
    <defs>
     <path d="M 0 1.5 
C 0.397805 1.5 0.77937 1.341951 1.06066 1.06066 
C 1.341951 0.77937 1.5 0.397805 1.5 0 
C 1.5 -0.397805 1.341951 -0.77937 1.06066 -1.06066 
C 0.77937 -1.341951 0.397805 -1.5 0 -1.5 
C -0.397805 -1.5 -0.77937 -1.341951 -1.06066 -1.06066 
C -1.341951 -0.77937 -1.5 -0.397805 -1.5 0 
C -1.5 0.397805 -1.341951 0.77937 -1.06066 1.06066 
C -0.77937 1.341951 -0.397805 1.5 0 1.5 
z
" id="mbc6b6be44d" style="stroke:#ff0000;"/>
    </defs>
    <g>
     <use style="fill:#ff0000;stroke:#ff0000;" x="254.510856" xlink:href="#mbc6b6be44d" y="241.008531"/>
     <use style="fill:#ff0000;stroke:#ff0000;" x="254.510856" xlink:href="#mbc6b6be44d" y="241.008531"/>
    </g>
   </g>
   <g id="line2d_50">
    <path d="M -1 293.677139 
L 73.048265 293.677139 
L 73.048265 293.150453 
L 75.082329 293.150453 
L 75.082329 292.623767 
L 75.86449 292.623767 
L 75.86449 292.097081 
L 76.903734 292.097081 
L 76.903734 291.570395 
L 77.18963 291.570395 
L 77.18963 291.043709 
L 77.609874 291.043709 
L 77.609874 290.517023 
L 77.747734 290.517023 
L 77.747734 289.990337 
L 79.196356 289.990337 
L 79.196356 289.463651 
L 79.571409 289.463651 
L 79.571409 288.936964 
L 84.680894 288.936964 
L 84.772922 287.883592 
L 85.754419 287.883592 
L 85.754419 287.356906 
L 87.250131 287.356906 
L 87.250131 286.83022 
L 87.875822 286.83022 
L 87.875822 286.303534 
L 88.405473 286.303534 
L 88.405473 285.776848 
L 90.040492 285.776848 
L 90.040492 285.250162 
L 91.535274 285.250162 
L 91.535274 284.723476 
L 92.207273 284.723476 
L 92.207273 284.19679 
L 92.386139 284.19679 
L 92.386139 283.670104 
L 92.680232 283.670104 
L 92.680232 283.143418 
L 93.699701 283.143418 
L 93.699701 282.616732 
L 94.972432 282.616732 
L 94.972432 282.090045 
L 95.918017 282.090045 
L 95.918017 281.563359 
L 96.206276 281.563359 
L 96.206276 281.036673 
L 96.348638 281.036673 
L 96.395835 279.983301 
L 96.536665 279.983301 
L 96.536665 279.456615 
L 97.711776 279.456615 
L 97.711776 278.403243 
L 98.228533 278.403243 
L 98.270913 277.349871 
L 98.894553 277.349871 
L 98.894553 276.823185 
L 99.37789 276.823185 
L 99.37789 276.296499 
L 100.040467 276.296499 
L 100.040467 275.769812 
L 100.381311 275.769812 
L 100.381311 275.243126 
L 100.86217 275.243126 
L 100.86217 274.71644 
L 101.258944 274.71644 
L 101.258944 274.189754 
L 101.923711 274.189754 
L 101.958007 273.136382 
L 102.597126 273.136382 
L 102.597126 272.609696 
L 103.277296 272.609696 
L 103.277296 272.08301 
L 103.747386 272.08301 
L 103.747386 271.556324 
L 104.023475 271.556324 
L 104.023475 271.029638 
L 104.562878 271.029638 
L 104.621794 269.976266 
L 105.594071 269.976266 
L 105.594071 269.449579 
L 105.897371 269.449579 
L 105.897371 268.922893 
L 106.06061 268.922893 
L 106.06061 268.396207 
L 106.672578 268.396207 
L 106.672578 267.869521 
L 107.111487 267.869521 
L 107.111487 267.342835 
L 107.414787 267.342835 
L 107.414787 266.816149 
L 108.102622 266.816149 
L 108.102622 266.289463 
L 108.78753 266.289463 
L 108.78753 265.762777 
L 109.71213 265.762777 
L 109.71213 265.236091 
L 110.735755 265.236091 
L 110.735755 264.709405 
L 111.426108 264.709405 
L 111.426108 264.182719 
L 111.819788 264.182719 
L 111.819788 263.656033 
L 112.147567 263.656033 
L 112.223805 262.60266 
L 112.356423 262.60266 
L 112.356423 262.075974 
L 113.664983 262.075974 
L 113.664983 261.549288 
L 114.267288 261.549288 
L 114.267288 261.022602 
L 115.173642 261.022602 
L 115.173642 260.495916 
L 116.278058 260.495916 
L 116.278058 259.96923 
L 120.417953 259.96923 
L 120.417953 259.442544 
L 149.904857 259.442544 
L 149.904857 258.915858 
L 150.335638 258.915858 
L 150.335638 258.389172 
L 150.581924 258.389172 
L 150.60931 257.3358 
L 150.965587 257.3358 
L 150.965587 256.809114 
L 151.233684 256.809114 
L 151.233684 256.282427 
L 151.433593 256.282427 
L 151.433593 255.755741 
L 151.889366 255.755741 
L 151.889366 255.229055 
L 152.253262 255.229055 
L 152.276234 253.648997 
L 152.602211 253.648997 
L 152.602211 253.122311 
L 152.914832 253.122311 
L 152.914832 252.595625 
L 165.987886 252.595625 
L 165.987886 252.068939 
L 175.98349 252.068939 
L 175.98349 251.542253 
L 176.310068 251.542253 
L 176.310068 251.015567 
L 176.983048 251.015567 
L 176.983048 250.488881 
L 177.263769 250.488881 
L 177.263769 249.962195 
L 177.416487 249.962195 
L 177.416487 249.435508 
L 177.59612 249.435508 
L 177.59612 248.908822 
L 177.829694 248.908822 
L 177.829694 248.382136 
L 188.486792 248.382136 
L 188.486792 247.85545 
L 189.179258 247.85545 
L 189.179258 247.328764 
L 189.798394 247.328764 
L 189.798394 246.802078 
L 230.334144 246.802078 
L 230.368483 245.22202 
L 230.522402 245.22202 
L 230.522402 244.695334 
L 231.950289 244.695334 
L 231.950289 244.168648 
L 242.416102 244.168648 
L 242.503921 242.061903 
L 242.843395 242.061903 
L 242.843395 241.535217 
L 254.510856 241.535217 
L 254.510856 241.008531 
L 338.688 241.008531 
L 338.688 241.008531 
" style="fill:none;stroke:#ff0000;stroke-linecap:square;stroke-width:1.5;"/>
   </g>
   <g id="line2d_51">
    <defs>
     <path d="M 0 -6 
L -5.196152 -3 
L -5.196152 3 
L -0 6 
L 5.196152 3 
L 5.196152 -3 
z
" id="m5bfe337310" style="stroke:#ff0000;stroke-linejoin:miter;stroke-width:1.5;"/>
    </defs>
    <g>
     <use style="fill-opacity:0;stroke:#ff0000;stroke-linejoin:miter;stroke-width:1.5;" x="73.048265" xlink:href="#m5bfe337310" y="293.677139"/>
     <use style="fill-opacity:0;stroke:#ff0000;stroke-linejoin:miter;stroke-width:1.5;" x="152.270494" xlink:href="#m5bfe337310" y="254.702369"/>
     <use style="fill-opacity:0;stroke:#ff0000;stroke-linejoin:miter;stroke-width:1.5;" x="242.843395" xlink:href="#m5bfe337310" y="242.061903"/>
     <use style="fill-opacity:0;stroke:#ff0000;stroke-linejoin:miter;stroke-width:1.5;" x="254.510856" xlink:href="#m5bfe337310" y="241.008531"/>
     <use style="fill-opacity:0;stroke:#ff0000;stroke-linejoin:miter;stroke-width:1.5;" x="254.510856" xlink:href="#m5bfe337310" y="241.008531"/>
     <use style="fill-opacity:0;stroke:#ff0000;stroke-linejoin:miter;stroke-width:1.5;" x="338.688" xlink:href="#m5bfe337310" y="241.008531"/>
    </g>
   </g>
   <g id="line2d_52">
    <path style="fill:none;stroke:#ff0000;stroke-linecap:square;stroke-width:1.5;"/>
    <g/>
   </g>
   <g id="line2d_53">
    <path clip-path="url(#p2c4b02c077)" d="M 230.33397 246.802078 
" style="fill:none;stroke:#ff0000;stroke-linecap:square;stroke-width:1.5;"/>
    <defs>
     <path d="M -12 12 
L 12 -12 
M -12 -12 
L 12 12 
" id="m627021cc59" style="stroke:#ff0000;"/>
    </defs>
    <g clip-path="url(#p2c4b02c077)">
     <use style="fill:#ff0000;stroke:#ff0000;" x="230.33397" xlink:href="#m627021cc59" y="246.802078"/>
    </g>
   </g>
   <g id="line2d_54">
    <defs>
     <path d="M 0 1.5 
C 0.397805 1.5 0.77937 1.341951 1.06066 1.06066 
C 1.341951 0.77937 1.5 0.397805 1.5 0 
C 1.5 -0.397805 1.341951 -0.77937 1.06066 -1.06066 
C 0.77937 -1.341951 0.397805 -1.5 0 -1.5 
C -0.397805 -1.5 -0.77937 -1.341951 -1.06066 -1.06066 
C -1.341951 -0.77937 -1.5 -0.397805 -1.5 0 
C -1.5 0.397805 -1.341951 0.77937 -1.06066 1.06066 
C -0.77937 1.341951 -0.397805 1.5 0 1.5 
z
" id="m189d35baed" style="stroke:#ff7500;"/>
    </defs>
    <g>
     <use style="fill:#ff7500;stroke:#ff7500;" x="258.404518" xlink:href="#m189d35baed" y="241.008531"/>
     <use style="fill:#ff7500;stroke:#ff7500;" x="258.404518" xlink:href="#m189d35baed" y="241.008531"/>
    </g>
   </g>
   <g id="line2d_55">
    <path d="M -1 293.677139 
L 72.684933 293.677139 
L 72.684933 293.150453 
L 73.404181 293.150453 
L 73.404181 292.623767 
L 78.683399 292.623767 
L 78.683399 292.097081 
L 80.995815 292.097081 
L 80.995815 291.570395 
L 81.884633 291.570395 
L 81.884633 291.043709 
L 82.312613 291.043709 
L 82.312613 290.517023 
L 83.438118 290.517023 
L 83.438118 289.990337 
L 87.250131 289.990337 
L 87.250131 289.463651 
L 88.104788 289.463651 
L 88.104788 288.936964 
L 88.91951 288.936964 
L 88.91951 288.410278 
L 89.766929 288.410278 
L 89.766929 287.883592 
L 90.640756 287.883592 
L 90.640756 287.356906 
L 91.09375 287.356906 
L 91.09375 286.83022 
L 91.535274 286.83022 
L 91.535274 286.303534 
L 94.610715 286.303534 
L 94.610715 285.776848 
L 94.766656 285.776848 
L 94.766656 285.250162 
L 95.723163 285.250162 
L 95.820862 284.19679 
L 97.447539 284.19679 
L 97.447539 283.670104 
L 97.972068 283.670104 
L 97.972068 283.143418 
L 98.564722 283.143418 
L 98.564722 282.616732 
L 99.178125 282.616732 
L 99.178125 282.090045 
L 99.298258 282.090045 
L 99.338119 281.036673 
L 99.41757 281.036673 
L 99.41757 280.509987 
L 100.456158 280.509987 
L 100.456158 279.983301 
L 100.641881 279.983301 
L 100.641881 279.456615 
L 101.471621 279.456615 
L 101.541941 278.403243 
L 101.751215 278.403243 
L 101.751215 277.876557 
L 103.309033 277.876557 
L 103.309033 277.349871 
L 103.435405 277.349871 
L 103.498249 276.296499 
L 104.265272 276.296499 
L 104.265272 275.769812 
L 104.592361 275.769812 
L 104.592361 275.243126 
L 104.797359 275.243126 
L 104.797359 274.71644 
L 104.913428 274.71644 
L 104.913428 274.189754 
L 106.006367 274.189754 
L 106.006367 273.663068 
L 106.382575 273.663068 
L 106.382575 273.136382 
L 107.439825 273.136382 
L 107.439825 272.609696 
L 107.884477 272.609696 
L 107.884477 272.08301 
L 108.577836 272.08301 
L 108.577836 271.556324 
L 108.810674 271.556324 
L 108.810674 271.029638 
L 109.601963 271.029638 
L 109.601963 270.502952 
L 109.973724 270.502952 
L 109.973724 269.976266 
L 111.702614 269.976266 
L 111.702614 269.449579 
L 112.29971 269.449579 
L 112.29971 268.922893 
L 112.711386 268.922893 
L 112.711386 267.869521 
L 113.149674 267.869521 
L 113.149674 267.342835 
L 114.284194 267.342835 
L 114.317959 266.289463 
L 114.618932 266.289463 
L 114.618932 265.762777 
L 117.131077 265.762777 
L 117.131077 265.236091 
L 117.584439 265.236091 
L 117.584439 264.709405 
L 119.726838 264.709405 
L 119.726838 264.182719 
L 150.204717 264.182719 
L 150.204717 263.656033 
L 150.346326 263.656033 
L 150.346326 263.129347 
L 150.737239 263.129347 
L 150.737239 262.60266 
L 151.260066 262.60266 
L 151.260066 262.075974 
L 151.507721 262.075974 
L 151.507721 261.549288 
L 151.86392 261.549288 
L 151.86392 261.022602 
L 152.101272 261.022602 
L 152.137948 259.96923 
L 152.281972 259.96923 
L 152.281972 259.442544 
L 152.526944 259.442544 
L 152.585304 258.389172 
L 152.990283 258.389172 
L 152.990283 257.862486 
L 153.120174 257.862486 
L 153.120174 257.3358 
L 153.573542 257.3358 
L 153.573542 256.809114 
L 154.373594 256.809114 
L 154.373594 256.282427 
L 166.175118 256.282427 
L 166.175118 255.755741 
L 166.821687 255.755741 
L 166.821687 255.229055 
L 167.205417 255.229055 
L 167.205417 254.702369 
L 177.641298 254.702369 
L 177.641298 254.175683 
L 178.033556 254.175683 
L 178.131126 253.122311 
L 178.752363 253.122311 
L 178.752363 252.595625 
L 179.031377 252.595625 
L 179.031377 252.068939 
L 192.605833 252.068939 
L 192.605833 251.542253 
L 203.770221 251.542253 
L 203.770221 251.015567 
L 230.332882 251.015567 
L 230.376368 248.908822 
L 230.514152 248.908822 
L 230.558049 246.802078 
L 230.762747 246.802078 
L 230.762747 246.275392 
L 242.428064 246.275392 
L 242.520456 244.168648 
L 242.648337 244.168648 
L 242.648337 243.641962 
L 249.479564 243.641962 
L 249.479564 243.115275 
L 249.642259 243.115275 
L 249.642259 242.588589 
L 254.51677 242.588589 
L 254.51677 242.061903 
L 254.631444 242.061903 
L 254.631444 241.535217 
L 258.404518 241.535217 
L 258.404518 241.008531 
L 338.688 241.008531 
L 338.688 241.008531 
" style="fill:none;stroke:#ff7500;stroke-linecap:square;stroke-width:1.5;"/>
   </g>
   <g id="line2d_56">
    <defs>
     <path d="M 0 -6 
L -1.347084 -1.854102 
L -5.706339 -1.854102 
L -2.179628 0.708204 
L -3.526712 4.854102 
L -0 2.291796 
L 3.526712 4.854102 
L 2.179628 0.708204 
L 5.706339 -1.854102 
L 1.347084 -1.854102 
z
" id="m5536e443c9" style="stroke:#ff7500;stroke-linejoin:bevel;stroke-width:1.5;"/>
    </defs>
    <g>
     <use style="fill-opacity:0;stroke:#ff7500;stroke-linejoin:bevel;stroke-width:1.5;" x="119.726838" xlink:href="#m5536e443c9" y="264.709405"/>
     <use style="fill-opacity:0;stroke:#ff7500;stroke-linejoin:bevel;stroke-width:1.5;" x="203.770221" xlink:href="#m5536e443c9" y="251.542253"/>
     <use style="fill-opacity:0;stroke:#ff7500;stroke-linejoin:bevel;stroke-width:1.5;" x="258.404518" xlink:href="#m5536e443c9" y="241.535217"/>
     <use style="fill-opacity:0;stroke:#ff7500;stroke-linejoin:bevel;stroke-width:1.5;" x="258.404518" xlink:href="#m5536e443c9" y="241.008531"/>
     <use style="fill-opacity:0;stroke:#ff7500;stroke-linejoin:bevel;stroke-width:1.5;" x="338.688" xlink:href="#m5536e443c9" y="241.008531"/>
    </g>
   </g>
   <g id="line2d_57">
    <path style="fill:none;stroke:#ff7500;stroke-linecap:square;stroke-width:1.5;"/>
    <g/>
   </g>
   <g id="line2d_58">
    <path clip-path="url(#p2c4b02c077)" d="M 230.33299 250.488881 
" style="fill:none;stroke:#ff7500;stroke-linecap:square;stroke-width:1.5;"/>
    <defs>
     <path d="M -12 12 
L 12 -12 
M -12 -12 
L 12 12 
" id="mfbce13ee1a" style="stroke:#ff7500;"/>
    </defs>
    <g clip-path="url(#p2c4b02c077)">
     <use style="fill:#ff7500;stroke:#ff7500;" x="230.33299" xlink:href="#mfbce13ee1a" y="250.488881"/>
    </g>
   </g>
   <g id="line2d_59">
    <defs>
     <path d="M 0 1.5 
C 0.397805 1.5 0.77937 1.341951 1.06066 1.06066 
C 1.341951 0.77937 1.5 0.397805 1.5 0 
C 1.5 -0.397805 1.341951 -0.77937 1.06066 -1.06066 
C 0.77937 -1.341951 0.397805 -1.5 0 -1.5 
C -0.397805 -1.5 -0.77937 -1.341951 -1.06066 -1.06066 
C -1.341951 -0.77937 -1.5 -0.397805 -1.5 0 
C -1.5 0.397805 -1.341951 0.77937 -1.06066 1.06066 
C -0.77937 1.341951 -0.397805 1.5 0 1.5 
z
" id="mea3e801445" style="stroke:#9acd32;"/>
    </defs>
    <g>
     <use style="fill:#9acd32;stroke:#9acd32;" x="292.902668" xlink:href="#mea3e801445" y="241.008531"/>
     <use style="fill:#9acd32;stroke:#9acd32;" x="292.902668" xlink:href="#mea3e801445" y="241.008531"/>
    </g>
   </g>
   <g id="line2d_60">
    <path d="M -1 293.677139 
L 78.154896 293.677139 
L 78.154896 293.150453 
L 79.069525 293.150453 
L 79.069525 292.623767 
L 83.438118 292.623767 
L 83.438118 292.097081 
L 88.330786 292.097081 
L 88.330786 291.570395 
L 89.348366 291.570395 
L 89.348366 291.043709 
L 89.628521 291.043709 
L 89.628521 290.517023 
L 89.972502 290.517023 
L 89.972502 289.990337 
L 90.30983 289.990337 
L 90.30983 289.463651 
L 91.905025 289.463651 
L 91.905025 288.936964 
L 92.445356 288.936964 
L 92.445356 288.410278 
L 92.563189 288.410278 
L 92.563189 287.883592 
L 94.080605 287.883592 
L 94.080605 287.356906 
L 94.505975 287.356906 
L 94.558424 286.303534 
L 96.814957 286.303534 
L 96.814957 285.776848 
L 96.998048 285.776848 
L 96.998048 285.250162 
L 97.403108 285.250162 
L 97.491858 284.19679 
L 97.972068 284.19679 
L 97.972068 283.143418 
L 98.935347 283.143418 
L 98.976045 282.090045 
L 99.53607 282.090045 
L 99.53607 281.563359 
L 100.567829 281.563359 
L 100.604895 280.509987 
L 101.187472 280.509987 
L 101.187472 279.983301 
L 101.820418 279.983301 
L 101.820418 279.456615 
L 102.162376 279.456615 
L 102.162376 278.929929 
L 102.924327 278.929929 
L 102.924327 278.403243 
L 103.340712 278.403243 
L 103.372333 277.349871 
L 105.22869 277.349871 
L 105.22869 276.823185 
L 105.732589 276.823185 
L 105.732589 276.296499 
L 106.30264 276.296499 
L 106.30264 275.769812 
L 106.672578 275.769812 
L 106.672578 275.243126 
L 106.8805 275.243126 
L 106.8805 274.71644 
L 107.78664 274.71644 
L 107.78664 274.189754 
L 108.294265 274.189754 
L 108.294265 273.663068 
L 109.579846 273.663068 
L 109.579846 273.136382 
L 109.73408 273.136382 
L 109.777897 272.08301 
L 110.464402 272.08301 
L 110.464402 271.556324 
L 111.604364 271.556324 
L 111.604364 271.029638 
L 111.83924 271.029638 
L 111.916835 269.449579 
L 112.525465 269.449579 
L 112.525465 268.922893 
L 114.080224 268.922893 
L 114.080224 268.396207 
L 114.233425 268.396207 
L 114.233425 267.869521 
L 114.435622 267.869521 
L 114.435622 267.342835 
L 114.914798 267.342835 
L 114.914798 266.816149 
L 115.539126 266.816149 
L 115.539126 266.289463 
L 115.819907 266.289463 
L 115.819907 265.762777 
L 116.547281 265.762777 
L 116.547281 265.236091 
L 151.517715 265.236091 
L 151.517715 264.709405 
L 151.975216 264.709405 
L 152.054835 262.60266 
L 152.308725 262.60266 
L 152.369722 261.549288 
L 152.551442 261.549288 
L 152.639723 258.915858 
L 153.050775 258.915858 
L 153.050775 258.389172 
L 153.537988 258.389172 
L 153.537988 257.862486 
L 165.938141 257.862486 
L 165.938141 257.3358 
L 166.438668 257.3358 
L 166.438668 256.809114 
L 166.632909 256.809114 
L 166.675688 255.755741 
L 167.12967 255.755741 
L 167.12967 255.229055 
L 167.327707 255.229055 
L 167.327707 254.702369 
L 167.943765 254.702369 
L 168.018392 253.648997 
L 168.078019 253.648997 
L 168.078019 253.122311 
L 168.418678 253.122311 
L 168.418678 252.595625 
L 169.695194 252.595625 
L 169.695194 252.068939 
L 169.911564 252.068939 
L 169.911564 251.542253 
L 226.791451 251.542253 
L 226.806354 250.488881 
L 227.314927 250.488881 
L 227.314927 249.962195 
L 227.554837 249.962195 
L 227.554837 249.435508 
L 249.610575 249.435508 
L 249.610575 248.908822 
L 249.779591 248.908822 
L 249.779591 248.382136 
L 249.943499 248.382136 
L 250.050665 246.275392 
L 250.236974 246.275392 
L 250.294361 244.168648 
L 253.584443 244.168648 
L 253.584443 243.641962 
L 262.009478 243.641962 
L 262.049262 242.588589 
L 269.222876 242.588589 
L 269.274311 241.535217 
L 292.902668 241.535217 
L 292.902668 241.008531 
L 338.688 241.008531 
L 338.688 241.008531 
" style="fill:none;stroke:#9acd32;stroke-linecap:square;stroke-width:1.5;"/>
   </g>
   <g id="line2d_61">
    <defs>
     <path d="M 0 -6 
L -6 6 
L 6 6 
z
" id="m882fd42828" style="stroke:#9acd32;stroke-linejoin:miter;stroke-width:1.5;"/>
    </defs>
    <g>
     <use style="fill-opacity:0;stroke:#9acd32;stroke-linejoin:miter;stroke-width:1.5;" x="116.547281" xlink:href="#m882fd42828" y="265.236091"/>
     <use style="fill-opacity:0;stroke:#9acd32;stroke-linejoin:miter;stroke-width:1.5;" x="169.911564" xlink:href="#m882fd42828" y="251.542253"/>
     <use style="fill-opacity:0;stroke:#9acd32;stroke-linejoin:miter;stroke-width:1.5;" x="292.902668" xlink:href="#m882fd42828" y="241.535217"/>
     <use style="fill-opacity:0;stroke:#9acd32;stroke-linejoin:miter;stroke-width:1.5;" x="292.902668" xlink:href="#m882fd42828" y="241.008531"/>
     <use style="fill-opacity:0;stroke:#9acd32;stroke-linejoin:miter;stroke-width:1.5;" x="338.688" xlink:href="#m882fd42828" y="241.008531"/>
    </g>
   </g>
   <g id="line2d_62">
    <path style="fill:none;stroke:#9acd32;stroke-linecap:square;stroke-width:1.5;"/>
    <g/>
   </g>
   <g id="line2d_63">
    <path clip-path="url(#p2c4b02c077)" d="M 249.602018 249.435508 
" style="fill:none;stroke:#9acd32;stroke-linecap:square;stroke-width:1.5;"/>
    <defs>
     <path d="M -12 12 
L 12 -12 
M -12 -12 
L 12 12 
" id="m3af87b186f" style="stroke:#9acd32;"/>
    </defs>
    <g clip-path="url(#p2c4b02c077)">
     <use style="fill:#9acd32;stroke:#9acd32;" x="249.602018" xlink:href="#m3af87b186f" y="249.435508"/>
    </g>
   </g>
   <g id="line2d_64">
    <path d="M 338.688 241.008531 
L 369.60768 293.571802 
" style="fill:none;stroke:#9acd32;stroke-linecap:square;stroke-width:1.5;"/>
    <g>
     <use style="fill-opacity:0;stroke:#9acd32;stroke-linejoin:miter;stroke-width:1.5;" x="338.688" xlink:href="#m882fd42828" y="241.008531"/>
     <use style="fill-opacity:0;stroke:#9acd32;stroke-linejoin:miter;stroke-width:1.5;" x="369.60768" xlink:href="#m882fd42828" y="293.571802"/>
    </g>
   </g>
   <g id="line2d_65">
    <path d="M 338.688 241.008531 
L 369.60768 250.594218 
" style="fill:none;stroke:#000080;stroke-linecap:square;stroke-width:1.5;"/>
    <g>
     <use style="fill-opacity:0;stroke:#000080;stroke-width:1.5;" x="338.688" xlink:href="#m130507bb0e" y="241.008531"/>
     <use style="fill-opacity:0;stroke:#000080;stroke-width:1.5;" x="369.60768" xlink:href="#m130507bb0e" y="250.594218"/>
    </g>
   </g>
   <g id="line2d_66">
    <path d="M 338.688 241.008531 
L 369.60768 207.616634 
" style="fill:none;stroke:#000080;stroke-linecap:square;stroke-width:1.5;"/>
    <g>
     <use style="fill-opacity:0;stroke:#000080;stroke-width:1.5;" x="338.688" xlink:href="#m130507bb0e" y="241.008531"/>
     <use style="fill-opacity:0;stroke:#000080;stroke-width:1.5;" x="369.60768" xlink:href="#m130507bb0e" y="207.616634"/>
    </g>
   </g>
   <g id="line2d_67">
    <path d="M 338.688 241.008531 
L 369.60768 164.63905 
" style="fill:none;stroke:#ff00ff;stroke-linecap:square;stroke-width:1.5;"/>
    <g>
     <use style="fill-opacity:0;stroke:#ff00ff;stroke-linejoin:miter;stroke-width:1.5;" x="338.688" xlink:href="#m1f23b394d7" y="241.008531"/>
     <use style="fill-opacity:0;stroke:#ff00ff;stroke-linejoin:miter;stroke-width:1.5;" x="369.60768" xlink:href="#m1f23b394d7" y="164.63905"/>
    </g>
   </g>
   <g id="line2d_68">
    <path d="M 338.688 241.008531 
L 369.60768 121.661465 
" style="fill:none;stroke:#ff7500;stroke-linecap:square;stroke-width:1.5;"/>
    <g>
     <use style="fill-opacity:0;stroke:#ff7500;stroke-linejoin:bevel;stroke-width:1.5;" x="338.688" xlink:href="#m5536e443c9" y="241.008531"/>
     <use style="fill-opacity:0;stroke:#ff7500;stroke-linejoin:bevel;stroke-width:1.5;" x="369.60768" xlink:href="#m5536e443c9" y="121.661465"/>
    </g>
   </g>
   <g id="line2d_69">
    <path d="M 338.688 241.008531 
L 369.60768 78.683881 
" style="fill:none;stroke:#ff0000;stroke-linecap:square;stroke-width:1.5;"/>
    <g>
     <use style="fill-opacity:0;stroke:#ff0000;stroke-linejoin:miter;stroke-width:1.5;" x="338.688" xlink:href="#m5bfe337310" y="241.008531"/>
     <use style="fill-opacity:0;stroke:#ff0000;stroke-linejoin:miter;stroke-width:1.5;" x="369.60768" xlink:href="#m5bfe337310" y="78.683881"/>
    </g>
   </g>
   <g id="line2d_70">
    <path d="M 338.688 298.944 
L 338.688 30.334099 
" style="fill:none;stroke:#000000;stroke-linecap:square;stroke-width:1.5;"/>
   </g>
   <g id="patch_3">
    <path d="M 57.6 298.944 
L 57.6 27.648 
" style="fill:none;stroke:#000000;stroke-linecap:square;stroke-linejoin:miter;stroke-width:0.8;"/>
   </g>
   <g id="patch_4">
    <path d="M 338.688 298.944 
L 338.688 27.648 
" style="fill:none;stroke:#000000;stroke-linecap:square;stroke-linejoin:miter;stroke-width:0.8;"/>
   </g>
   <g id="patch_5">
    <path d="M 57.6 298.944 
L 338.688 298.944 
" style="fill:none;stroke:#000000;stroke-linecap:square;stroke-linejoin:miter;stroke-width:0.8;"/>
   </g>
   <g id="patch_6">
    <path d="M 57.6 27.648 
L 338.688 27.648 
" style="fill:none;stroke:#000000;stroke-linecap:square;stroke-linejoin:miter;stroke-width:0.8;"/>
   </g>
   <g id="text_13">
    <!-- 120-1e5 -->
    <defs>
     <path d="M 10.796875 72.90625 
L 49.515625 72.90625 
L 49.515625 64.59375 
L 19.828125 64.59375 
L 19.828125 46.734375 
Q 21.96875 47.46875 24.109375 47.828125 
Q 26.265625 48.1875 28.421875 48.1875 
Q 40.625 48.1875 47.75 41.5 
Q 54.890625 34.8125 54.890625 23.390625 
Q 54.890625 11.625 47.5625 5.09375 
Q 40.234375 -1.421875 26.90625 -1.421875 
Q 22.3125 -1.421875 17.546875 -0.640625 
Q 12.796875 0.140625 7.71875 1.703125 
L 7.71875 11.625 
Q 12.109375 9.234375 16.796875 8.0625 
Q 21.484375 6.890625 26.703125 6.890625 
Q 35.15625 6.890625 40.078125 11.328125 
Q 45.015625 15.765625 45.015625 23.390625 
Q 45.015625 31 40.078125 35.4375 
Q 35.15625 39.890625 26.703125 39.890625 
Q 22.75 39.890625 18.8125 39.015625 
Q 14.890625 38.140625 10.796875 36.28125 
z
" id="DejaVuSans-53"/>
    </defs>
    <g transform="translate(375.22944 298.262739)scale(0.17 -0.17)">
     <use xlink:href="#DejaVuSans-49"/>
     <use x="63.623047" xlink:href="#DejaVuSans-50"/>
     <use x="127.246094" xlink:href="#DejaVuSans-48"/>
     <use x="190.869141" xlink:href="#DejaVuSans-45"/>
     <use x="226.953125" xlink:href="#DejaVuSans-49"/>
     <use x="290.576172" xlink:href="#DejaVuSans-101"/>
     <use x="352.099609" xlink:href="#DejaVuSans-53"/>
    </g>
   </g>
   <g id="text_14">
    <!-- 100-1e5 -->
    <g transform="translate(375.22944 255.285155)scale(0.17 -0.17)">
     <use xlink:href="#DejaVuSans-49"/>
     <use x="63.623047" xlink:href="#DejaVuSans-48"/>
     <use x="127.246094" xlink:href="#DejaVuSans-48"/>
     <use x="190.869141" xlink:href="#DejaVuSans-45"/>
     <use x="226.953125" xlink:href="#DejaVuSans-49"/>
     <use x="290.576172" xlink:href="#DejaVuSans-101"/>
     <use x="352.099609" xlink:href="#DejaVuSans-53"/>
    </g>
   </g>
   <g id="text_15">
    <!-- 100-2e4 -->
    <g transform="translate(375.22944 212.307571)scale(0.17 -0.17)">
     <use xlink:href="#DejaVuSans-49"/>
     <use x="63.623047" xlink:href="#DejaVuSans-48"/>
     <use x="127.246094" xlink:href="#DejaVuSans-48"/>
     <use x="190.869141" xlink:href="#DejaVuSans-45"/>
     <use x="226.953125" xlink:href="#DejaVuSans-50"/>
     <use x="290.576172" xlink:href="#DejaVuSans-101"/>
     <use x="352.099609" xlink:href="#DejaVuSans-52"/>
    </g>
   </g>
   <g id="text_16">
    <!-- 400-2e4 -->
    <g transform="translate(375.22944 169.329987)scale(0.17 -0.17)">
     <use xlink:href="#DejaVuSans-52"/>
     <use x="63.623047" xlink:href="#DejaVuSans-48"/>
     <use x="127.246094" xlink:href="#DejaVuSans-48"/>
     <use x="190.869141" xlink:href="#DejaVuSans-45"/>
     <use x="226.953125" xlink:href="#DejaVuSans-50"/>
     <use x="290.576172" xlink:href="#DejaVuSans-101"/>
     <use x="352.099609" xlink:href="#DejaVuSans-52"/>
    </g>
   </g>
   <g id="text_17">
    <!-- 140-2e4 -->
    <g transform="translate(375.22944 126.352403)scale(0.17 -0.17)">
     <use xlink:href="#DejaVuSans-49"/>
     <use x="63.623047" xlink:href="#DejaVuSans-52"/>
     <use x="127.246094" xlink:href="#DejaVuSans-48"/>
     <use x="190.869141" xlink:href="#DejaVuSans-45"/>
     <use x="226.953125" xlink:href="#DejaVuSans-50"/>
     <use x="290.576172" xlink:href="#DejaVuSans-101"/>
     <use x="352.099609" xlink:href="#DejaVuSans-52"/>
    </g>
   </g>
   <g id="text_18">
    <!-- 200-2e4 -->
    <g transform="translate(375.22944 83.374819)scale(0.17 -0.17)">
     <use xlink:href="#DejaVuSans-50"/>
     <use x="63.623047" xlink:href="#DejaVuSans-48"/>
     <use x="127.246094" xlink:href="#DejaVuSans-48"/>
     <use x="190.869141" xlink:href="#DejaVuSans-45"/>
     <use x="226.953125" xlink:href="#DejaVuSans-50"/>
     <use x="290.576172" xlink:href="#DejaVuSans-101"/>
     <use x="352.099609" xlink:href="#DejaVuSans-52"/>
    </g>
   </g>
   <g id="text_19">
    <!-- best 2009 -->
    <defs>
     <path d="M 48.6875 27.296875 
Q 48.6875 37.203125 44.609375 42.84375 
Q 40.53125 48.484375 33.40625 48.484375 
Q 26.265625 48.484375 22.1875 42.84375 
Q 18.109375 37.203125 18.109375 27.296875 
Q 18.109375 17.390625 22.1875 11.75 
Q 26.265625 6.109375 33.40625 6.109375 
Q 40.53125 6.109375 44.609375 11.75 
Q 48.6875 17.390625 48.6875 27.296875 
z
M 18.109375 46.390625 
Q 20.953125 51.265625 25.265625 53.625 
Q 29.59375 56 35.59375 56 
Q 45.5625 56 51.78125 48.09375 
Q 58.015625 40.1875 58.015625 27.296875 
Q 58.015625 14.40625 51.78125 6.484375 
Q 45.5625 -1.421875 35.59375 -1.421875 
Q 29.59375 -1.421875 25.265625 0.953125 
Q 20.953125 3.328125 18.109375 8.203125 
L 18.109375 0 
L 9.078125 0 
L 9.078125 75.984375 
L 18.109375 75.984375 
z
" id="DejaVuSans-98"/>
     <path d="M 10.984375 1.515625 
L 10.984375 10.5 
Q 14.703125 8.734375 18.5 7.8125 
Q 22.3125 6.890625 25.984375 6.890625 
Q 35.75 6.890625 40.890625 13.453125 
Q 46.046875 20.015625 46.78125 33.40625 
Q 43.953125 29.203125 39.59375 26.953125 
Q 35.25 24.703125 29.984375 24.703125 
Q 19.046875 24.703125 12.671875 31.3125 
Q 6.296875 37.9375 6.296875 49.421875 
Q 6.296875 60.640625 12.9375 67.421875 
Q 19.578125 74.21875 30.609375 74.21875 
Q 43.265625 74.21875 49.921875 64.515625 
Q 56.59375 54.828125 56.59375 36.375 
Q 56.59375 19.140625 48.40625 8.859375 
Q 40.234375 -1.421875 26.421875 -1.421875 
Q 22.703125 -1.421875 18.890625 -0.6875 
Q 15.09375 0.046875 10.984375 1.515625 
z
M 30.609375 32.421875 
Q 37.25 32.421875 41.125 36.953125 
Q 45.015625 41.5 45.015625 49.421875 
Q 45.015625 57.28125 41.125 61.84375 
Q 37.25 66.40625 30.609375 66.40625 
Q 23.96875 66.40625 20.09375 61.84375 
Q 16.21875 57.28125 16.21875 49.421875 
Q 16.21875 41.5 20.09375 36.953125 
Q 23.96875 32.421875 30.609375 32.421875 
z
" id="DejaVuSans-57"/>
    </defs>
    <g transform="translate(375.22944 40.397235)scale(0.17 -0.17)">
     <use xlink:href="#DejaVuSans-98"/>
     <use x="63.476562" xlink:href="#DejaVuSans-101"/>
     <use x="125" xlink:href="#DejaVuSans-115"/>
     <use x="177.099609" xlink:href="#DejaVuSans-116"/>
     <use x="216.308594" xlink:href="#DejaVuSans-32"/>
     <use x="248.095703" xlink:href="#DejaVuSans-50"/>
     <use x="311.71875" xlink:href="#DejaVuSans-48"/>
     <use x="375.341797" xlink:href="#DejaVuSans-48"/>
     <use x="438.964844" xlink:href="#DejaVuSans-57"/>
    </g>
   </g>
   <g id="text_20">
    <!-- bbob f22, 40-D -->
    <defs>
     <path d="M 19.671875 64.796875 
L 19.671875 8.109375 
L 31.59375 8.109375 
Q 46.6875 8.109375 53.6875 14.9375 
Q 60.6875 21.78125 60.6875 36.53125 
Q 60.6875 51.171875 53.6875 57.984375 
Q 46.6875 64.796875 31.59375 64.796875 
z
M 9.8125 72.90625 
L 30.078125 72.90625 
Q 51.265625 72.90625 61.171875 64.09375 
Q 71.09375 55.28125 71.09375 36.53125 
Q 71.09375 17.671875 61.125 8.828125 
Q 51.171875 0 30.078125 0 
L 9.8125 0 
z
" id="DejaVuSans-68"/>
    </defs>
    <g transform="translate(60.41088 38.111366)scale(0.102 -0.102)">
     <use xlink:href="#DejaVuSans-98"/>
     <use x="63.476562" xlink:href="#DejaVuSans-98"/>
     <use x="126.953125" xlink:href="#DejaVuSans-111"/>
     <use x="188.134766" xlink:href="#DejaVuSans-98"/>
     <use x="251.611328" xlink:href="#DejaVuSans-32"/>
     <use x="283.398438" xlink:href="#DejaVuSans-102"/>
     <use x="318.603516" xlink:href="#DejaVuSans-50"/>
     <use x="382.226562" xlink:href="#DejaVuSans-50"/>
     <use x="445.849609" xlink:href="#DejaVuSans-44"/>
     <use x="477.636719" xlink:href="#DejaVuSans-32"/>
     <use x="509.423828" xlink:href="#DejaVuSans-52"/>
     <use x="573.046875" xlink:href="#DejaVuSans-48"/>
     <use x="636.669922" xlink:href="#DejaVuSans-45"/>
     <use x="672.753906" xlink:href="#DejaVuSans-68"/>
    </g>
    <!-- 51 targets: 100..1e-08 -->
    <defs>
     <path d="M 11.71875 12.40625 
L 22.015625 12.40625 
L 22.015625 0 
L 11.71875 0 
z
M 11.71875 51.703125 
L 22.015625 51.703125 
L 22.015625 39.3125 
L 11.71875 39.3125 
z
" id="DejaVuSans-58"/>
    </defs>
    <g transform="translate(60.41088 49.533135)scale(0.102 -0.102)">
     <use xlink:href="#DejaVuSans-53"/>
     <use x="63.623047" xlink:href="#DejaVuSans-49"/>
     <use x="127.246094" xlink:href="#DejaVuSans-32"/>
     <use x="159.033203" xlink:href="#DejaVuSans-116"/>
     <use x="198.242188" xlink:href="#DejaVuSans-97"/>
     <use x="259.521484" xlink:href="#DejaVuSans-114"/>
     <use x="300.619141" xlink:href="#DejaVuSans-103"/>
     <use x="364.095703" xlink:href="#DejaVuSans-101"/>
     <use x="425.619141" xlink:href="#DejaVuSans-116"/>
     <use x="464.828125" xlink:href="#DejaVuSans-115"/>
     <use x="516.927734" xlink:href="#DejaVuSans-58"/>
     <use x="550.619141" xlink:href="#DejaVuSans-32"/>
     <use x="582.40625" xlink:href="#DejaVuSans-49"/>
     <use x="646.029297" xlink:href="#DejaVuSans-48"/>
     <use x="709.652344" xlink:href="#DejaVuSans-48"/>
     <use x="773.275391" xlink:href="#DejaVuSans-46"/>
     <use x="805.0625" xlink:href="#DejaVuSans-46"/>
     <use x="836.849609" xlink:href="#DejaVuSans-49"/>
     <use x="900.472656" xlink:href="#DejaVuSans-101"/>
     <use x="961.996094" xlink:href="#DejaVuSans-45"/>
     <use x="998.080078" xlink:href="#DejaVuSans-48"/>
     <use x="1061.703125" xlink:href="#DejaVuSans-56"/>
    </g>
    <!-- 15 instances -->
    <g transform="translate(60.41088 60.954904)scale(0.102 -0.102)">
     <use xlink:href="#DejaVuSans-49"/>
     <use x="63.623047" xlink:href="#DejaVuSans-53"/>
     <use x="127.246094" xlink:href="#DejaVuSans-32"/>
     <use x="159.033203" xlink:href="#DejaVuSans-105"/>
     <use x="186.816406" xlink:href="#DejaVuSans-110"/>
     <use x="250.195312" xlink:href="#DejaVuSans-115"/>
     <use x="302.294922" xlink:href="#DejaVuSans-116"/>
     <use x="341.503906" xlink:href="#DejaVuSans-97"/>
     <use x="402.783203" xlink:href="#DejaVuSans-110"/>
     <use x="466.162109" xlink:href="#DejaVuSans-99"/>
     <use x="521.142578" xlink:href="#DejaVuSans-101"/>
     <use x="582.666016" xlink:href="#DejaVuSans-115"/>
    </g>
   </g>
   <g id="text_21">
    <!-- v2.3.3.18.73 -->
    <defs>
     <path d="M 40.578125 39.3125 
Q 47.65625 37.796875 51.625 33 
Q 55.609375 28.21875 55.609375 21.1875 
Q 55.609375 10.40625 48.1875 4.484375 
Q 40.765625 -1.421875 27.09375 -1.421875 
Q 22.515625 -1.421875 17.65625 -0.515625 
Q 12.796875 0.390625 7.625 2.203125 
L 7.625 11.71875 
Q 11.71875 9.328125 16.59375 8.109375 
Q 21.484375 6.890625 26.8125 6.890625 
Q 36.078125 6.890625 40.9375 10.546875 
Q 45.796875 14.203125 45.796875 21.1875 
Q 45.796875 27.640625 41.28125 31.265625 
Q 36.765625 34.90625 28.71875 34.90625 
L 20.21875 34.90625 
L 20.21875 43.015625 
L 29.109375 43.015625 
Q 36.375 43.015625 40.234375 45.921875 
Q 44.09375 48.828125 44.09375 54.296875 
Q 44.09375 59.90625 40.109375 62.90625 
Q 36.140625 65.921875 28.71875 65.921875 
Q 24.65625 65.921875 20.015625 65.03125 
Q 15.375 64.15625 9.8125 62.3125 
L 9.8125 71.09375 
Q 15.4375 72.65625 20.34375 73.4375 
Q 25.25 74.21875 29.59375 74.21875 
Q 40.828125 74.21875 47.359375 69.109375 
Q 53.90625 64.015625 53.90625 55.328125 
Q 53.90625 49.265625 50.4375 45.09375 
Q 46.96875 40.921875 40.578125 39.3125 
z
" id="DejaVuSans-51"/>
     <path d="M 8.203125 72.90625 
L 55.078125 72.90625 
L 55.078125 68.703125 
L 28.609375 0 
L 18.3125 0 
L 43.21875 64.59375 
L 8.203125 64.59375 
z
" id="DejaVuSans-55"/>
    </defs>
    <g style="fill:#808080;" transform="translate(166.559625 294.151352)scale(0.1 -0.1)">
     <use xlink:href="#DejaVuSans-118"/>
     <use x="59.179688" xlink:href="#DejaVuSans-50"/>
     <use x="122.802734" xlink:href="#DejaVuSans-46"/>
     <use x="154.589844" xlink:href="#DejaVuSans-51"/>
     <use x="218.212891" xlink:href="#DejaVuSans-46"/>
     <use x="250" xlink:href="#DejaVuSans-51"/>
     <use x="313.623047" xlink:href="#DejaVuSans-46"/>
     <use x="345.410156" xlink:href="#DejaVuSans-49"/>
     <use x="409.033203" xlink:href="#DejaVuSans-56"/>
     <use x="472.65625" xlink:href="#DejaVuSans-46"/>
     <use x="504.443359" xlink:href="#DejaVuSans-55"/>
     <use x="568.066406" xlink:href="#DejaVuSans-51"/>
    </g>
   </g>
   <g id="text_22">
    <!-- 22 Gallagher 21 peaks -->
    <defs>
     <path d="M 59.515625 10.40625 
L 59.515625 29.984375 
L 43.40625 29.984375 
L 43.40625 38.09375 
L 69.28125 38.09375 
L 69.28125 6.78125 
Q 63.578125 2.734375 56.6875 0.65625 
Q 49.8125 -1.421875 42 -1.421875 
Q 24.90625 -1.421875 15.25 8.5625 
Q 5.609375 18.5625 5.609375 36.375 
Q 5.609375 54.25 15.25 64.234375 
Q 24.90625 74.21875 42 74.21875 
Q 49.125 74.21875 55.546875 72.453125 
Q 61.96875 70.703125 67.390625 67.28125 
L 67.390625 56.78125 
Q 61.921875 61.421875 55.765625 63.765625 
Q 49.609375 66.109375 42.828125 66.109375 
Q 29.4375 66.109375 22.71875 58.640625 
Q 16.015625 51.171875 16.015625 36.375 
Q 16.015625 21.625 22.71875 14.15625 
Q 29.4375 6.6875 42.828125 6.6875 
Q 48.046875 6.6875 52.140625 7.59375 
Q 56.25 8.5 59.515625 10.40625 
z
" id="DejaVuSans-71"/>
     <path d="M 54.890625 33.015625 
L 54.890625 0 
L 45.90625 0 
L 45.90625 32.71875 
Q 45.90625 40.484375 42.875 44.328125 
Q 39.84375 48.1875 33.796875 48.1875 
Q 26.515625 48.1875 22.3125 43.546875 
Q 18.109375 38.921875 18.109375 30.90625 
L 18.109375 0 
L 9.078125 0 
L 9.078125 75.984375 
L 18.109375 75.984375 
L 18.109375 46.1875 
Q 21.34375 51.125 25.703125 53.5625 
Q 30.078125 56 35.796875 56 
Q 45.21875 56 50.046875 50.171875 
Q 54.890625 44.34375 54.890625 33.015625 
z
" id="DejaVuSans-104"/>
     <path d="M 9.078125 75.984375 
L 18.109375 75.984375 
L 18.109375 31.109375 
L 44.921875 54.6875 
L 56.390625 54.6875 
L 27.390625 29.109375 
L 57.625 0 
L 45.90625 0 
L 18.109375 26.703125 
L 18.109375 0 
L 9.078125 0 
z
" id="DejaVuSans-107"/>
    </defs>
    <g transform="translate(85.019 21.648)scale(0.2 -0.2)">
     <use xlink:href="#DejaVuSans-50"/>
     <use x="63.623047" xlink:href="#DejaVuSans-50"/>
     <use x="127.246094" xlink:href="#DejaVuSans-32"/>
     <use x="159.033203" xlink:href="#DejaVuSans-71"/>
     <use x="236.523438" xlink:href="#DejaVuSans-97"/>
     <use x="297.802734" xlink:href="#DejaVuSans-108"/>
     <use x="325.585938" xlink:href="#DejaVuSans-108"/>
     <use x="353.369141" xlink:href="#DejaVuSans-97"/>
     <use x="414.648438" xlink:href="#DejaVuSans-103"/>
     <use x="478.125" xlink:href="#DejaVuSans-104"/>
     <use x="541.503906" xlink:href="#DejaVuSans-101"/>
     <use x="603.027344" xlink:href="#DejaVuSans-114"/>
     <use x="644.140625" xlink:href="#DejaVuSans-32"/>
     <use x="675.927734" xlink:href="#DejaVuSans-50"/>
     <use x="739.550781" xlink:href="#DejaVuSans-49"/>
     <use x="803.173828" xlink:href="#DejaVuSans-32"/>
     <use x="834.960938" xlink:href="#DejaVuSans-112"/>
     <use x="898.4375" xlink:href="#DejaVuSans-101"/>
     <use x="959.960938" xlink:href="#DejaVuSans-97"/>
     <use x="1021.240234" xlink:href="#DejaVuSans-107"/>
     <use x="1079.150391" xlink:href="#DejaVuSans-115"/>
    </g>
   </g>
  </g>
 </g>
 <defs>
  <clipPath id="p2c4b02c077">
   <rect height="271.296" width="281.088" x="57.6" y="27.648"/>
  </clipPath>
 </defs>
</svg>
