<?xml version="1.0" encoding="utf-8" standalone="no"?>
<!DOCTYPE svg PUBLIC "-//W3C//DTD SVG 1.1//EN"
  "http://www.w3.org/Graphics/SVG/1.1/DTD/svg11.dtd">
<!-- Created with matplotlib (https://matplotlib.org/) -->
<svg height="345.6pt" version="1.1" viewBox="0 0 460.8 345.6" width="460.8pt" xmlns="http://www.w3.org/2000/svg" xmlns:xlink="http://www.w3.org/1999/xlink">
 <defs>
  <style type="text/css">
*{stroke-linecap:butt;stroke-linejoin:round;}
  </style>
 </defs>
 <g id="figure_1">
  <g id="patch_1">
   <path d="M 0 345.6 
L 460.8 345.6 
L 460.8 0 
L 0 0 
z
" style="fill:#ffffff;"/>
  </g>
  <g id="axes_1">
   <g id="patch_2">
    <path d="M 57.6 298.944 
L 338.688 298.944 
L 338.688 27.648 
L 57.6 27.648 
z
" style="fill:#ffffff;"/>
   </g>
   <g id="line2d_1">
    <path d="M 113.059268 298.944 
L 113.059268 293.677139 
L 113.418114 293.677139 
L 113.418114 288.410278 
L 114.148479 288.410278 
L 114.148479 283.143418 
L 119.020084 283.143418 
L 119.020084 277.876557 
L 123.374182 277.876557 
L 123.374182 272.609696 
L 125.857712 272.609696 
L 125.857712 267.342835 
L 128.871138 267.342835 
L 128.871138 262.075974 
L 132.230358 262.075974 
L 132.230358 256.809114 
L 132.975083 256.809114 
L 132.975083 251.542253 
L 134.268299 251.542253 
L 134.268299 246.275392 
L 139.793552 246.275392 
L 139.793552 241.008531 
L 143.534079 241.008531 
L 143.534079 235.74167 
L 146.188938 235.74167 
L 146.188938 230.47481 
L 148.676918 230.47481 
L 148.676918 225.207949 
L 153.232815 225.207949 
L 153.232815 219.941088 
L 157.859725 219.941088 
L 157.859725 214.674227 
L 160.938061 214.674227 
L 160.938061 209.407366 
L 161.685508 209.407366 
L 161.685508 204.140506 
L 162.126028 204.140506 
L 162.126028 198.873645 
L 162.747743 198.873645 
L 162.747743 193.606784 
L 163.319642 193.606784 
L 163.319642 188.339923 
L 163.810301 188.339923 
L 163.810301 183.073062 
L 164.260611 183.073062 
L 164.260611 177.806202 
L 164.660132 177.806202 
L 164.660132 172.539341 
L 165.153397 172.539341 
L 165.153397 167.27248 
L 165.558223 167.27248 
L 165.558223 162.005619 
L 166.046178 162.005619 
L 166.046178 156.738758 
L 166.46667 156.738758 
L 166.46667 151.471897 
L 166.964826 151.471897 
L 166.964826 146.205037 
L 167.360765 146.205037 
L 167.360765 140.938176 
L 167.769958 140.938176 
L 167.769958 135.671315 
L 168.100423 135.671315 
L 168.100423 130.404454 
L 168.530517 130.404454 
L 168.530517 125.137593 
L 168.847006 125.137593 
L 168.847006 119.870733 
L 169.319866 119.870733 
L 169.319866 114.603872 
L 169.567195 114.603872 
L 169.567195 109.337011 
L 169.946325 109.337011 
L 169.946325 104.07015 
L 170.333697 104.07015 
L 170.333697 98.803289 
L 170.684714 98.803289 
L 170.684714 93.536429 
L 170.942432 93.536429 
L 170.942432 88.269568 
L 171.309807 88.269568 
L 171.309807 83.002707 
L 171.640636 83.002707 
L 171.640636 77.735846 
L 171.967781 77.735846 
L 171.967781 72.468985 
L 172.270675 72.468985 
L 172.270675 67.202125 
L 172.563617 67.202125 
L 172.563617 61.935264 
L 172.851719 61.935264 
L 172.851719 56.668403 
L 173.176739 56.668403 
L 173.176739 51.401542 
L 173.521856 51.401542 
L 173.521856 46.134681 
L 173.6515 46.134681 
L 173.6515 40.867821 
L 173.708687 40.867821 
L 173.708687 35.60096 
L 173.806924 35.60096 
L 173.806924 30.334099 
L 338.688 30.334099 
" style="fill:none;stroke:#f5deb3;stroke-linecap:square;stroke-width:4;"/>
   </g>
   <g id="line2d_2">
    <defs>
     <path d="M -0 7.778175 
L 7.778175 0 
L 0 -7.778175 
L -7.778175 -0 
z
" id="m927a3c7801" style="stroke:#f5deb3;stroke-linejoin:miter;stroke-width:1.5;"/>
    </defs>
    <g>
     <use style="fill:#f5deb3;stroke:#f5deb3;stroke-linejoin:miter;stroke-width:1.5;" x="164.660132" xlink:href="#m927a3c7801" y="177.806202"/>
     <use style="fill:#f5deb3;stroke:#f5deb3;stroke-linejoin:miter;stroke-width:1.5;" x="172.563617" xlink:href="#m927a3c7801" y="61.935264"/>
     <use style="fill:#f5deb3;stroke:#f5deb3;stroke-linejoin:miter;stroke-width:1.5;" x="173.806924" xlink:href="#m927a3c7801" y="30.334099"/>
     <use style="fill:#f5deb3;stroke:#f5deb3;stroke-linejoin:miter;stroke-width:1.5;" x="173.806924" xlink:href="#m927a3c7801" y="30.334099"/>
     <use style="fill:#f5deb3;stroke:#f5deb3;stroke-linejoin:miter;stroke-width:1.5;" x="338.688" xlink:href="#m927a3c7801" y="30.334099"/>
    </g>
   </g>
   <g id="line2d_3">
    <path style="fill:none;stroke:#f5deb3;stroke-linecap:square;stroke-width:4;"/>
    <g/>
   </g>
   <g id="line2d_4">
    <path d="M 338.688 30.334099 
L 369.60768 250.594218 
" style="fill:none;stroke:#f5deb3;stroke-linecap:square;stroke-width:4;"/>
    <g>
     <use style="fill:#f5deb3;stroke:#f5deb3;stroke-linejoin:miter;stroke-width:1.5;" x="338.688" xlink:href="#m927a3c7801" y="30.334099"/>
     <use style="fill:#f5deb3;stroke:#f5deb3;stroke-linejoin:miter;stroke-width:1.5;" x="369.60768" xlink:href="#m927a3c7801" y="250.594218"/>
    </g>
   </g>
   <g id="matplotlib.axis_1">
    <g id="xtick_1">
     <g id="line2d_5">
      <path clip-path="url(#pc1a8b8e0c6)" d="M 57.6 298.944 
L 57.6 27.648 
" style="fill:none;stroke:#b0b0b0;stroke-linecap:square;stroke-width:0.8;"/>
     </g>
     <g id="line2d_6">
      <defs>
       <path d="M 0 0 
L 0 3.5 
" id="mcb117adcc2" style="stroke:#000000;stroke-width:0.8;"/>
      </defs>
      <g>
       <use style="stroke:#000000;stroke-width:0.8;" x="57.6" xlink:href="#mcb117adcc2" y="298.944"/>
      </g>
     </g>
     <g id="text_1">
      <!-- 0 -->
      <defs>
       <path d="M 31.78125 66.40625 
Q 24.171875 66.40625 20.328125 58.90625 
Q 16.5 51.421875 16.5 36.375 
Q 16.5 21.390625 20.328125 13.890625 
Q 24.171875 6.390625 31.78125 6.390625 
Q 39.453125 6.390625 43.28125 13.890625 
Q 47.125 21.390625 47.125 36.375 
Q 47.125 51.421875 43.28125 58.90625 
Q 39.453125 66.40625 31.78125 66.40625 
z
M 31.78125 74.21875 
Q 44.046875 74.21875 50.515625 64.515625 
Q 56.984375 54.828125 56.984375 36.375 
Q 56.984375 17.96875 50.515625 8.265625 
Q 44.046875 -1.421875 31.78125 -1.421875 
Q 19.53125 -1.421875 13.0625 8.265625 
Q 6.59375 17.96875 6.59375 36.375 
Q 6.59375 54.828125 13.0625 64.515625 
Q 19.53125 74.21875 31.78125 74.21875 
z
" id="DejaVuSans-48"/>
      </defs>
      <g transform="translate(51.2375 321.140875)scale(0.2 -0.2)">
       <use xlink:href="#DejaVuSans-48"/>
      </g>
     </g>
    </g>
    <g id="xtick_2">
     <g id="line2d_7">
      <path clip-path="url(#pc1a8b8e0c6)" d="M 137.910857 298.944 
L 137.910857 27.648 
" style="fill:none;stroke:#b0b0b0;stroke-linecap:square;stroke-width:0.8;"/>
     </g>
     <g id="line2d_8">
      <g>
       <use style="stroke:#000000;stroke-width:0.8;" x="137.910857" xlink:href="#mcb117adcc2" y="298.944"/>
      </g>
     </g>
     <g id="text_2">
      <!-- 2 -->
      <defs>
       <path d="M 19.1875 8.296875 
L 53.609375 8.296875 
L 53.609375 0 
L 7.328125 0 
L 7.328125 8.296875 
Q 12.9375 14.109375 22.625 23.890625 
Q 32.328125 33.6875 34.8125 36.53125 
Q 39.546875 41.84375 41.421875 45.53125 
Q 43.3125 49.21875 43.3125 52.78125 
Q 43.3125 58.59375 39.234375 62.25 
Q 35.15625 65.921875 28.609375 65.921875 
Q 23.96875 65.921875 18.8125 64.3125 
Q 13.671875 62.703125 7.8125 59.421875 
L 7.8125 69.390625 
Q 13.765625 71.78125 18.9375 73 
Q 24.125 74.21875 28.421875 74.21875 
Q 39.75 74.21875 46.484375 68.546875 
Q 53.21875 62.890625 53.21875 53.421875 
Q 53.21875 48.921875 51.53125 44.890625 
Q 49.859375 40.875 45.40625 35.40625 
Q 44.1875 33.984375 37.640625 27.21875 
Q 31.109375 20.453125 19.1875 8.296875 
z
" id="DejaVuSans-50"/>
      </defs>
      <g transform="translate(131.548357 321.140875)scale(0.2 -0.2)">
       <use xlink:href="#DejaVuSans-50"/>
      </g>
     </g>
    </g>
    <g id="xtick_3">
     <g id="line2d_9">
      <path clip-path="url(#pc1a8b8e0c6)" d="M 218.221714 298.944 
L 218.221714 27.648 
" style="fill:none;stroke:#b0b0b0;stroke-linecap:square;stroke-width:0.8;"/>
     </g>
     <g id="line2d_10">
      <g>
       <use style="stroke:#000000;stroke-width:0.8;" x="218.221714" xlink:href="#mcb117adcc2" y="298.944"/>
      </g>
     </g>
     <g id="text_3">
      <!-- 4 -->
      <defs>
       <path d="M 37.796875 64.3125 
L 12.890625 25.390625 
L 37.796875 25.390625 
z
M 35.203125 72.90625 
L 47.609375 72.90625 
L 47.609375 25.390625 
L 58.015625 25.390625 
L 58.015625 17.1875 
L 47.609375 17.1875 
L 47.609375 0 
L 37.796875 0 
L 37.796875 17.1875 
L 4.890625 17.1875 
L 4.890625 26.703125 
z
" id="DejaVuSans-52"/>
      </defs>
      <g transform="translate(211.859214 321.140875)scale(0.2 -0.2)">
       <use xlink:href="#DejaVuSans-52"/>
      </g>
     </g>
    </g>
    <g id="xtick_4">
     <g id="line2d_11">
      <path clip-path="url(#pc1a8b8e0c6)" d="M 298.532571 298.944 
L 298.532571 27.648 
" style="fill:none;stroke:#b0b0b0;stroke-linecap:square;stroke-width:0.8;"/>
     </g>
     <g id="line2d_12">
      <g>
       <use style="stroke:#000000;stroke-width:0.8;" x="298.532571" xlink:href="#mcb117adcc2" y="298.944"/>
      </g>
     </g>
     <g id="text_4">
      <!-- 6 -->
      <defs>
       <path d="M 33.015625 40.375 
Q 26.375 40.375 22.484375 35.828125 
Q 18.609375 31.296875 18.609375 23.390625 
Q 18.609375 15.53125 22.484375 10.953125 
Q 26.375 6.390625 33.015625 6.390625 
Q 39.65625 6.390625 43.53125 10.953125 
Q 47.40625 15.53125 47.40625 23.390625 
Q 47.40625 31.296875 43.53125 35.828125 
Q 39.65625 40.375 33.015625 40.375 
z
M 52.59375 71.296875 
L 52.59375 62.3125 
Q 48.875 64.0625 45.09375 64.984375 
Q 41.3125 65.921875 37.59375 65.921875 
Q 27.828125 65.921875 22.671875 59.328125 
Q 17.53125 52.734375 16.796875 39.40625 
Q 19.671875 43.65625 24.015625 45.921875 
Q 28.375 48.1875 33.59375 48.1875 
Q 44.578125 48.1875 50.953125 41.515625 
Q 57.328125 34.859375 57.328125 23.390625 
Q 57.328125 12.15625 50.6875 5.359375 
Q 44.046875 -1.421875 33.015625 -1.421875 
Q 20.359375 -1.421875 13.671875 8.265625 
Q 6.984375 17.96875 6.984375 36.375 
Q 6.984375 53.65625 15.1875 63.9375 
Q 23.390625 74.21875 37.203125 74.21875 
Q 40.921875 74.21875 44.703125 73.484375 
Q 48.484375 72.75 52.59375 71.296875 
z
" id="DejaVuSans-54"/>
      </defs>
      <g transform="translate(292.170071 321.140875)scale(0.2 -0.2)">
       <use xlink:href="#DejaVuSans-54"/>
      </g>
     </g>
    </g>
    <g id="xtick_5">
     <g id="line2d_13">
      <path clip-path="url(#pc1a8b8e0c6)" d="M 97.755429 298.944 
L 97.755429 27.648 
" style="fill:none;stroke:#b0b0b0;stroke-linecap:square;stroke-width:0.8;"/>
     </g>
     <g id="line2d_14">
      <defs>
       <path d="M 0 0 
L 0 2 
" id="m34ea2a2a62" style="stroke:#000000;stroke-width:0.6;"/>
      </defs>
      <g>
       <use style="stroke:#000000;stroke-width:0.6;" x="97.755429" xlink:href="#m34ea2a2a62" y="298.944"/>
      </g>
     </g>
    </g>
    <g id="xtick_6">
     <g id="line2d_15">
      <path clip-path="url(#pc1a8b8e0c6)" d="M 178.066286 298.944 
L 178.066286 27.648 
" style="fill:none;stroke:#b0b0b0;stroke-linecap:square;stroke-width:0.8;"/>
     </g>
     <g id="line2d_16">
      <g>
       <use style="stroke:#000000;stroke-width:0.6;" x="178.066286" xlink:href="#m34ea2a2a62" y="298.944"/>
      </g>
     </g>
    </g>
    <g id="xtick_7">
     <g id="line2d_17">
      <path clip-path="url(#pc1a8b8e0c6)" d="M 258.377143 298.944 
L 258.377143 27.648 
" style="fill:none;stroke:#b0b0b0;stroke-linecap:square;stroke-width:0.8;"/>
     </g>
     <g id="line2d_18">
      <g>
       <use style="stroke:#000000;stroke-width:0.6;" x="258.377143" xlink:href="#m34ea2a2a62" y="298.944"/>
      </g>
     </g>
    </g>
    <g id="xtick_8">
     <g id="line2d_19">
      <path clip-path="url(#pc1a8b8e0c6)" d="M 338.688 298.944 
L 338.688 27.648 
" style="fill:none;stroke:#b0b0b0;stroke-linecap:square;stroke-width:0.8;"/>
     </g>
     <g id="line2d_20">
      <g>
       <use style="stroke:#000000;stroke-width:0.6;" x="338.688" xlink:href="#m34ea2a2a62" y="298.944"/>
      </g>
     </g>
    </g>
    <g id="text_5">
     <!-- log10(# f-evals / dimension) -->
     <defs>
      <path d="M 9.421875 75.984375 
L 18.40625 75.984375 
L 18.40625 0 
L 9.421875 0 
z
" id="DejaVuSans-108"/>
      <path d="M 30.609375 48.390625 
Q 23.390625 48.390625 19.1875 42.75 
Q 14.984375 37.109375 14.984375 27.296875 
Q 14.984375 17.484375 19.15625 11.84375 
Q 23.34375 6.203125 30.609375 6.203125 
Q 37.796875 6.203125 41.984375 11.859375 
Q 46.1875 17.53125 46.1875 27.296875 
Q 46.1875 37.015625 41.984375 42.703125 
Q 37.796875 48.390625 30.609375 48.390625 
z
M 30.609375 56 
Q 42.328125 56 49.015625 48.375 
Q 55.71875 40.765625 55.71875 27.296875 
Q 55.71875 13.875 49.015625 6.21875 
Q 42.328125 -1.421875 30.609375 -1.421875 
Q 18.84375 -1.421875 12.171875 6.21875 
Q 5.515625 13.875 5.515625 27.296875 
Q 5.515625 40.765625 12.171875 48.375 
Q 18.84375 56 30.609375 56 
z
" id="DejaVuSans-111"/>
      <path d="M 45.40625 27.984375 
Q 45.40625 37.75 41.375 43.109375 
Q 37.359375 48.484375 30.078125 48.484375 
Q 22.859375 48.484375 18.828125 43.109375 
Q 14.796875 37.75 14.796875 27.984375 
Q 14.796875 18.265625 18.828125 12.890625 
Q 22.859375 7.515625 30.078125 7.515625 
Q 37.359375 7.515625 41.375 12.890625 
Q 45.40625 18.265625 45.40625 27.984375 
z
M 54.390625 6.78125 
Q 54.390625 -7.171875 48.1875 -13.984375 
Q 42 -20.796875 29.203125 -20.796875 
Q 24.46875 -20.796875 20.265625 -20.09375 
Q 16.0625 -19.390625 12.109375 -17.921875 
L 12.109375 -9.1875 
Q 16.0625 -11.328125 19.921875 -12.34375 
Q 23.78125 -13.375 27.78125 -13.375 
Q 36.625 -13.375 41.015625 -8.765625 
Q 45.40625 -4.15625 45.40625 5.171875 
L 45.40625 9.625 
Q 42.625 4.78125 38.28125 2.390625 
Q 33.9375 0 27.875 0 
Q 17.828125 0 11.671875 7.65625 
Q 5.515625 15.328125 5.515625 27.984375 
Q 5.515625 40.671875 11.671875 48.328125 
Q 17.828125 56 27.875 56 
Q 33.9375 56 38.28125 53.609375 
Q 42.625 51.21875 45.40625 46.390625 
L 45.40625 54.6875 
L 54.390625 54.6875 
z
" id="DejaVuSans-103"/>
      <path d="M 12.40625 8.296875 
L 28.515625 8.296875 
L 28.515625 63.921875 
L 10.984375 60.40625 
L 10.984375 69.390625 
L 28.421875 72.90625 
L 38.28125 72.90625 
L 38.28125 8.296875 
L 54.390625 8.296875 
L 54.390625 0 
L 12.40625 0 
z
" id="DejaVuSans-49"/>
      <path d="M 31 75.875 
Q 24.46875 64.65625 21.28125 53.65625 
Q 18.109375 42.671875 18.109375 31.390625 
Q 18.109375 20.125 21.3125 9.0625 
Q 24.515625 -2 31 -13.1875 
L 23.1875 -13.1875 
Q 15.875 -1.703125 12.234375 9.375 
Q 8.59375 20.453125 8.59375 31.390625 
Q 8.59375 42.28125 12.203125 53.3125 
Q 15.828125 64.359375 23.1875 75.875 
z
" id="DejaVuSans-40"/>
      <path d="M 51.125 44 
L 36.921875 44 
L 32.8125 27.6875 
L 47.125 27.6875 
z
M 43.796875 71.78125 
L 38.71875 51.515625 
L 52.984375 51.515625 
L 58.109375 71.78125 
L 65.921875 71.78125 
L 60.890625 51.515625 
L 76.125 51.515625 
L 76.125 44 
L 58.984375 44 
L 54.984375 27.6875 
L 70.515625 27.6875 
L 70.515625 20.21875 
L 53.078125 20.21875 
L 48 0 
L 40.1875 0 
L 45.21875 20.21875 
L 30.90625 20.21875 
L 25.875 0 
L 18.015625 0 
L 23.09375 20.21875 
L 7.71875 20.21875 
L 7.71875 27.6875 
L 24.90625 27.6875 
L 29 44 
L 13.28125 44 
L 13.28125 51.515625 
L 30.90625 51.515625 
L 35.890625 71.78125 
z
" id="DejaVuSans-35"/>
      <path id="DejaVuSans-32"/>
      <path d="M 37.109375 75.984375 
L 37.109375 68.5 
L 28.515625 68.5 
Q 23.6875 68.5 21.796875 66.546875 
Q 19.921875 64.59375 19.921875 59.515625 
L 19.921875 54.6875 
L 34.71875 54.6875 
L 34.71875 47.703125 
L 19.921875 47.703125 
L 19.921875 0 
L 10.890625 0 
L 10.890625 47.703125 
L 2.296875 47.703125 
L 2.296875 54.6875 
L 10.890625 54.6875 
L 10.890625 58.5 
Q 10.890625 67.625 15.140625 71.796875 
Q 19.390625 75.984375 28.609375 75.984375 
z
" id="DejaVuSans-102"/>
      <path d="M 4.890625 31.390625 
L 31.203125 31.390625 
L 31.203125 23.390625 
L 4.890625 23.390625 
z
" id="DejaVuSans-45"/>
      <path d="M 56.203125 29.59375 
L 56.203125 25.203125 
L 14.890625 25.203125 
Q 15.484375 15.921875 20.484375 11.0625 
Q 25.484375 6.203125 34.421875 6.203125 
Q 39.59375 6.203125 44.453125 7.46875 
Q 49.3125 8.734375 54.109375 11.28125 
L 54.109375 2.78125 
Q 49.265625 0.734375 44.1875 -0.34375 
Q 39.109375 -1.421875 33.890625 -1.421875 
Q 20.796875 -1.421875 13.15625 6.1875 
Q 5.515625 13.8125 5.515625 26.8125 
Q 5.515625 40.234375 12.765625 48.109375 
Q 20.015625 56 32.328125 56 
Q 43.359375 56 49.78125 48.890625 
Q 56.203125 41.796875 56.203125 29.59375 
z
M 47.21875 32.234375 
Q 47.125 39.59375 43.09375 43.984375 
Q 39.0625 48.390625 32.421875 48.390625 
Q 24.90625 48.390625 20.390625 44.140625 
Q 15.875 39.890625 15.1875 32.171875 
z
" id="DejaVuSans-101"/>
      <path d="M 2.984375 54.6875 
L 12.5 54.6875 
L 29.59375 8.796875 
L 46.6875 54.6875 
L 56.203125 54.6875 
L 35.6875 0 
L 23.484375 0 
z
" id="DejaVuSans-118"/>
      <path d="M 34.28125 27.484375 
Q 23.390625 27.484375 19.1875 25 
Q 14.984375 22.515625 14.984375 16.5 
Q 14.984375 11.71875 18.140625 8.90625 
Q 21.296875 6.109375 26.703125 6.109375 
Q 34.1875 6.109375 38.703125 11.40625 
Q 43.21875 16.703125 43.21875 25.484375 
L 43.21875 27.484375 
z
M 52.203125 31.203125 
L 52.203125 0 
L 43.21875 0 
L 43.21875 8.296875 
Q 40.140625 3.328125 35.546875 0.953125 
Q 30.953125 -1.421875 24.3125 -1.421875 
Q 15.921875 -1.421875 10.953125 3.296875 
Q 6 8.015625 6 15.921875 
Q 6 25.140625 12.171875 29.828125 
Q 18.359375 34.515625 30.609375 34.515625 
L 43.21875 34.515625 
L 43.21875 35.40625 
Q 43.21875 41.609375 39.140625 45 
Q 35.0625 48.390625 27.6875 48.390625 
Q 23 48.390625 18.546875 47.265625 
Q 14.109375 46.140625 10.015625 43.890625 
L 10.015625 52.203125 
Q 14.9375 54.109375 19.578125 55.046875 
Q 24.21875 56 28.609375 56 
Q 40.484375 56 46.34375 49.84375 
Q 52.203125 43.703125 52.203125 31.203125 
z
" id="DejaVuSans-97"/>
      <path d="M 44.28125 53.078125 
L 44.28125 44.578125 
Q 40.484375 46.53125 36.375 47.5 
Q 32.28125 48.484375 27.875 48.484375 
Q 21.1875 48.484375 17.84375 46.4375 
Q 14.5 44.390625 14.5 40.28125 
Q 14.5 37.15625 16.890625 35.375 
Q 19.28125 33.59375 26.515625 31.984375 
L 29.59375 31.296875 
Q 39.15625 29.25 43.1875 25.515625 
Q 47.21875 21.78125 47.21875 15.09375 
Q 47.21875 7.46875 41.1875 3.015625 
Q 35.15625 -1.421875 24.609375 -1.421875 
Q 20.21875 -1.421875 15.453125 -0.5625 
Q 10.6875 0.296875 5.421875 2 
L 5.421875 11.28125 
Q 10.40625 8.6875 15.234375 7.390625 
Q 20.0625 6.109375 24.8125 6.109375 
Q 31.15625 6.109375 34.5625 8.28125 
Q 37.984375 10.453125 37.984375 14.40625 
Q 37.984375 18.0625 35.515625 20.015625 
Q 33.0625 21.96875 24.703125 23.78125 
L 21.578125 24.515625 
Q 13.234375 26.265625 9.515625 29.90625 
Q 5.8125 33.546875 5.8125 39.890625 
Q 5.8125 47.609375 11.28125 51.796875 
Q 16.75 56 26.8125 56 
Q 31.78125 56 36.171875 55.265625 
Q 40.578125 54.546875 44.28125 53.078125 
z
" id="DejaVuSans-115"/>
      <path d="M 25.390625 72.90625 
L 33.6875 72.90625 
L 8.296875 -9.28125 
L 0 -9.28125 
z
" id="DejaVuSans-47"/>
      <path d="M 45.40625 46.390625 
L 45.40625 75.984375 
L 54.390625 75.984375 
L 54.390625 0 
L 45.40625 0 
L 45.40625 8.203125 
Q 42.578125 3.328125 38.25 0.953125 
Q 33.9375 -1.421875 27.875 -1.421875 
Q 17.96875 -1.421875 11.734375 6.484375 
Q 5.515625 14.40625 5.515625 27.296875 
Q 5.515625 40.1875 11.734375 48.09375 
Q 17.96875 56 27.875 56 
Q 33.9375 56 38.25 53.625 
Q 42.578125 51.265625 45.40625 46.390625 
z
M 14.796875 27.296875 
Q 14.796875 17.390625 18.875 11.75 
Q 22.953125 6.109375 30.078125 6.109375 
Q 37.203125 6.109375 41.296875 11.75 
Q 45.40625 17.390625 45.40625 27.296875 
Q 45.40625 37.203125 41.296875 42.84375 
Q 37.203125 48.484375 30.078125 48.484375 
Q 22.953125 48.484375 18.875 42.84375 
Q 14.796875 37.203125 14.796875 27.296875 
z
" id="DejaVuSans-100"/>
      <path d="M 9.421875 54.6875 
L 18.40625 54.6875 
L 18.40625 0 
L 9.421875 0 
z
M 9.421875 75.984375 
L 18.40625 75.984375 
L 18.40625 64.59375 
L 9.421875 64.59375 
z
" id="DejaVuSans-105"/>
      <path d="M 52 44.1875 
Q 55.375 50.25 60.0625 53.125 
Q 64.75 56 71.09375 56 
Q 79.640625 56 84.28125 50.015625 
Q 88.921875 44.046875 88.921875 33.015625 
L 88.921875 0 
L 79.890625 0 
L 79.890625 32.71875 
Q 79.890625 40.578125 77.09375 44.375 
Q 74.3125 48.1875 68.609375 48.1875 
Q 61.625 48.1875 57.5625 43.546875 
Q 53.515625 38.921875 53.515625 30.90625 
L 53.515625 0 
L 44.484375 0 
L 44.484375 32.71875 
Q 44.484375 40.625 41.703125 44.40625 
Q 38.921875 48.1875 33.109375 48.1875 
Q 26.21875 48.1875 22.15625 43.53125 
Q 18.109375 38.875 18.109375 30.90625 
L 18.109375 0 
L 9.078125 0 
L 9.078125 54.6875 
L 18.109375 54.6875 
L 18.109375 46.1875 
Q 21.1875 51.21875 25.484375 53.609375 
Q 29.78125 56 35.6875 56 
Q 41.65625 56 45.828125 52.96875 
Q 50 49.953125 52 44.1875 
z
" id="DejaVuSans-109"/>
      <path d="M 54.890625 33.015625 
L 54.890625 0 
L 45.90625 0 
L 45.90625 32.71875 
Q 45.90625 40.484375 42.875 44.328125 
Q 39.84375 48.1875 33.796875 48.1875 
Q 26.515625 48.1875 22.3125 43.546875 
Q 18.109375 38.921875 18.109375 30.90625 
L 18.109375 0 
L 9.078125 0 
L 9.078125 54.6875 
L 18.109375 54.6875 
L 18.109375 46.1875 
Q 21.34375 51.125 25.703125 53.5625 
Q 30.078125 56 35.796875 56 
Q 45.21875 56 50.046875 50.171875 
Q 54.890625 44.34375 54.890625 33.015625 
z
" id="DejaVuSans-110"/>
      <path d="M 8.015625 75.875 
L 15.828125 75.875 
Q 23.140625 64.359375 26.78125 53.3125 
Q 30.421875 42.28125 30.421875 31.390625 
Q 30.421875 20.453125 26.78125 9.375 
Q 23.140625 -1.703125 15.828125 -13.1875 
L 8.015625 -13.1875 
Q 14.5 -2 17.703125 9.0625 
Q 20.90625 20.125 20.90625 31.390625 
Q 20.90625 42.671875 17.703125 53.65625 
Q 14.5 64.65625 8.015625 75.875 
z
" id="DejaVuSans-41"/>
     </defs>
     <g transform="translate(77.303219 342.217594)scale(0.17 -0.17)">
      <use xlink:href="#DejaVuSans-108"/>
      <use x="27.783203" xlink:href="#DejaVuSans-111"/>
      <use x="88.964844" xlink:href="#DejaVuSans-103"/>
      <use x="152.441406" xlink:href="#DejaVuSans-49"/>
      <use x="216.064453" xlink:href="#DejaVuSans-48"/>
      <use x="279.6875" xlink:href="#DejaVuSans-40"/>
      <use x="318.701172" xlink:href="#DejaVuSans-35"/>
      <use x="402.490234" xlink:href="#DejaVuSans-32"/>
      <use x="434.277344" xlink:href="#DejaVuSans-102"/>
      <use x="469.404297" xlink:href="#DejaVuSans-45"/>
      <use x="505.488281" xlink:href="#DejaVuSans-101"/>
      <use x="567.011719" xlink:href="#DejaVuSans-118"/>
      <use x="626.191406" xlink:href="#DejaVuSans-97"/>
      <use x="687.470703" xlink:href="#DejaVuSans-108"/>
      <use x="715.253906" xlink:href="#DejaVuSans-115"/>
      <use x="767.353516" xlink:href="#DejaVuSans-32"/>
      <use x="799.140625" xlink:href="#DejaVuSans-47"/>
      <use x="832.832031" xlink:href="#DejaVuSans-32"/>
      <use x="864.619141" xlink:href="#DejaVuSans-100"/>
      <use x="928.095703" xlink:href="#DejaVuSans-105"/>
      <use x="955.878906" xlink:href="#DejaVuSans-109"/>
      <use x="1053.291016" xlink:href="#DejaVuSans-101"/>
      <use x="1114.814453" xlink:href="#DejaVuSans-110"/>
      <use x="1178.193359" xlink:href="#DejaVuSans-115"/>
      <use x="1230.292969" xlink:href="#DejaVuSans-105"/>
      <use x="1258.076172" xlink:href="#DejaVuSans-111"/>
      <use x="1319.257812" xlink:href="#DejaVuSans-110"/>
      <use x="1382.636719" xlink:href="#DejaVuSans-41"/>
     </g>
    </g>
   </g>
   <g id="matplotlib.axis_2">
    <g id="ytick_1">
     <g id="line2d_21">
      <path clip-path="url(#pc1a8b8e0c6)" d="M 57.6 298.944 
L 338.688 298.944 
" style="fill:none;stroke:#b0b0b0;stroke-linecap:square;stroke-width:0.8;"/>
     </g>
     <g id="line2d_22">
      <defs>
       <path d="M 0 0 
L -3.5 0 
" id="m614534fcf7" style="stroke:#000000;stroke-width:0.8;"/>
      </defs>
      <g>
       <use style="stroke:#000000;stroke-width:0.8;" x="57.6" xlink:href="#m614534fcf7" y="298.944"/>
      </g>
     </g>
     <g id="text_6">
      <!-- 0.0 -->
      <defs>
       <path d="M 10.6875 12.40625 
L 21 12.40625 
L 21 0 
L 10.6875 0 
z
" id="DejaVuSans-46"/>
      </defs>
      <g transform="translate(25.155 305.02275)scale(0.16 -0.16)">
       <use xlink:href="#DejaVuSans-48"/>
       <use x="63.623047" xlink:href="#DejaVuSans-46"/>
       <use x="95.410156" xlink:href="#DejaVuSans-48"/>
      </g>
     </g>
    </g>
    <g id="ytick_2">
     <g id="line2d_23">
      <path clip-path="url(#pc1a8b8e0c6)" d="M 57.6 245.22202 
L 338.688 245.22202 
" style="fill:none;stroke:#b0b0b0;stroke-linecap:square;stroke-width:0.8;"/>
     </g>
     <g id="line2d_24">
      <g>
       <use style="stroke:#000000;stroke-width:0.8;" x="57.6" xlink:href="#m614534fcf7" y="245.22202"/>
      </g>
     </g>
     <g id="text_7">
      <!-- 0.2 -->
      <g transform="translate(25.155 251.30077)scale(0.16 -0.16)">
       <use xlink:href="#DejaVuSans-48"/>
       <use x="63.623047" xlink:href="#DejaVuSans-46"/>
       <use x="95.410156" xlink:href="#DejaVuSans-50"/>
      </g>
     </g>
    </g>
    <g id="ytick_3">
     <g id="line2d_25">
      <path clip-path="url(#pc1a8b8e0c6)" d="M 57.6 191.50004 
L 338.688 191.50004 
" style="fill:none;stroke:#b0b0b0;stroke-linecap:square;stroke-width:0.8;"/>
     </g>
     <g id="line2d_26">
      <g>
       <use style="stroke:#000000;stroke-width:0.8;" x="57.6" xlink:href="#m614534fcf7" y="191.50004"/>
      </g>
     </g>
     <g id="text_8">
      <!-- 0.4 -->
      <g transform="translate(25.155 197.57879)scale(0.16 -0.16)">
       <use xlink:href="#DejaVuSans-48"/>
       <use x="63.623047" xlink:href="#DejaVuSans-46"/>
       <use x="95.410156" xlink:href="#DejaVuSans-52"/>
      </g>
     </g>
    </g>
    <g id="ytick_4">
     <g id="line2d_27">
      <path clip-path="url(#pc1a8b8e0c6)" d="M 57.6 137.778059 
L 338.688 137.778059 
" style="fill:none;stroke:#b0b0b0;stroke-linecap:square;stroke-width:0.8;"/>
     </g>
     <g id="line2d_28">
      <g>
       <use style="stroke:#000000;stroke-width:0.8;" x="57.6" xlink:href="#m614534fcf7" y="137.778059"/>
      </g>
     </g>
     <g id="text_9">
      <!-- 0.6 -->
      <g transform="translate(25.155 143.856809)scale(0.16 -0.16)">
       <use xlink:href="#DejaVuSans-48"/>
       <use x="63.623047" xlink:href="#DejaVuSans-46"/>
       <use x="95.410156" xlink:href="#DejaVuSans-54"/>
      </g>
     </g>
    </g>
    <g id="ytick_5">
     <g id="line2d_29">
      <path clip-path="url(#pc1a8b8e0c6)" d="M 57.6 84.056079 
L 338.688 84.056079 
" style="fill:none;stroke:#b0b0b0;stroke-linecap:square;stroke-width:0.8;"/>
     </g>
     <g id="line2d_30">
      <g>
       <use style="stroke:#000000;stroke-width:0.8;" x="57.6" xlink:href="#m614534fcf7" y="84.056079"/>
      </g>
     </g>
     <g id="text_10">
      <!-- 0.8 -->
      <defs>
       <path d="M 31.78125 34.625 
Q 24.75 34.625 20.71875 30.859375 
Q 16.703125 27.09375 16.703125 20.515625 
Q 16.703125 13.921875 20.71875 10.15625 
Q 24.75 6.390625 31.78125 6.390625 
Q 38.8125 6.390625 42.859375 10.171875 
Q 46.921875 13.96875 46.921875 20.515625 
Q 46.921875 27.09375 42.890625 30.859375 
Q 38.875 34.625 31.78125 34.625 
z
M 21.921875 38.8125 
Q 15.578125 40.375 12.03125 44.71875 
Q 8.5 49.078125 8.5 55.328125 
Q 8.5 64.0625 14.71875 69.140625 
Q 20.953125 74.21875 31.78125 74.21875 
Q 42.671875 74.21875 48.875 69.140625 
Q 55.078125 64.0625 55.078125 55.328125 
Q 55.078125 49.078125 51.53125 44.71875 
Q 48 40.375 41.703125 38.8125 
Q 48.828125 37.15625 52.796875 32.3125 
Q 56.78125 27.484375 56.78125 20.515625 
Q 56.78125 9.90625 50.3125 4.234375 
Q 43.84375 -1.421875 31.78125 -1.421875 
Q 19.734375 -1.421875 13.25 4.234375 
Q 6.78125 9.90625 6.78125 20.515625 
Q 6.78125 27.484375 10.78125 32.3125 
Q 14.796875 37.15625 21.921875 38.8125 
z
M 18.3125 54.390625 
Q 18.3125 48.734375 21.84375 45.5625 
Q 25.390625 42.390625 31.78125 42.390625 
Q 38.140625 42.390625 41.71875 45.5625 
Q 45.3125 48.734375 45.3125 54.390625 
Q 45.3125 60.0625 41.71875 63.234375 
Q 38.140625 66.40625 31.78125 66.40625 
Q 25.390625 66.40625 21.84375 63.234375 
Q 18.3125 60.0625 18.3125 54.390625 
z
" id="DejaVuSans-56"/>
      </defs>
      <g transform="translate(25.155 90.134829)scale(0.16 -0.16)">
       <use xlink:href="#DejaVuSans-48"/>
       <use x="63.623047" xlink:href="#DejaVuSans-46"/>
       <use x="95.410156" xlink:href="#DejaVuSans-56"/>
      </g>
     </g>
    </g>
    <g id="ytick_6">
     <g id="line2d_31">
      <path clip-path="url(#pc1a8b8e0c6)" d="M 57.6 30.334099 
L 338.688 30.334099 
" style="fill:none;stroke:#b0b0b0;stroke-linecap:square;stroke-width:0.8;"/>
     </g>
     <g id="line2d_32">
      <g>
       <use style="stroke:#000000;stroke-width:0.8;" x="57.6" xlink:href="#m614534fcf7" y="30.334099"/>
      </g>
     </g>
     <g id="text_11">
      <!-- 1.0 -->
      <g transform="translate(25.155 36.412849)scale(0.16 -0.16)">
       <use xlink:href="#DejaVuSans-49"/>
       <use x="63.623047" xlink:href="#DejaVuSans-46"/>
       <use x="95.410156" xlink:href="#DejaVuSans-48"/>
      </g>
     </g>
    </g>
    <g id="text_12">
     <!-- Fraction of function,target pairs -->
     <defs>
      <path d="M 9.8125 72.90625 
L 51.703125 72.90625 
L 51.703125 64.59375 
L 19.671875 64.59375 
L 19.671875 43.109375 
L 48.578125 43.109375 
L 48.578125 34.8125 
L 19.671875 34.8125 
L 19.671875 0 
L 9.8125 0 
z
" id="DejaVuSans-70"/>
      <path d="M 41.109375 46.296875 
Q 39.59375 47.171875 37.8125 47.578125 
Q 36.03125 48 33.890625 48 
Q 26.265625 48 22.1875 43.046875 
Q 18.109375 38.09375 18.109375 28.8125 
L 18.109375 0 
L 9.078125 0 
L 9.078125 54.6875 
L 18.109375 54.6875 
L 18.109375 46.1875 
Q 20.953125 51.171875 25.484375 53.578125 
Q 30.03125 56 36.53125 56 
Q 37.453125 56 38.578125 55.875 
Q 39.703125 55.765625 41.0625 55.515625 
z
" id="DejaVuSans-114"/>
      <path d="M 48.78125 52.59375 
L 48.78125 44.1875 
Q 44.96875 46.296875 41.140625 47.34375 
Q 37.3125 48.390625 33.40625 48.390625 
Q 24.65625 48.390625 19.8125 42.84375 
Q 14.984375 37.3125 14.984375 27.296875 
Q 14.984375 17.28125 19.8125 11.734375 
Q 24.65625 6.203125 33.40625 6.203125 
Q 37.3125 6.203125 41.140625 7.25 
Q 44.96875 8.296875 48.78125 10.40625 
L 48.78125 2.09375 
Q 45.015625 0.34375 40.984375 -0.53125 
Q 36.96875 -1.421875 32.421875 -1.421875 
Q 20.0625 -1.421875 12.78125 6.34375 
Q 5.515625 14.109375 5.515625 27.296875 
Q 5.515625 40.671875 12.859375 48.328125 
Q 20.21875 56 33.015625 56 
Q 37.15625 56 41.109375 55.140625 
Q 45.0625 54.296875 48.78125 52.59375 
z
" id="DejaVuSans-99"/>
      <path d="M 18.3125 70.21875 
L 18.3125 54.6875 
L 36.8125 54.6875 
L 36.8125 47.703125 
L 18.3125 47.703125 
L 18.3125 18.015625 
Q 18.3125 11.328125 20.140625 9.421875 
Q 21.96875 7.515625 27.59375 7.515625 
L 36.8125 7.515625 
L 36.8125 0 
L 27.59375 0 
Q 17.1875 0 13.234375 3.875 
Q 9.28125 7.765625 9.28125 18.015625 
L 9.28125 47.703125 
L 2.6875 47.703125 
L 2.6875 54.6875 
L 9.28125 54.6875 
L 9.28125 70.21875 
z
" id="DejaVuSans-116"/>
      <path d="M 8.5 21.578125 
L 8.5 54.6875 
L 17.484375 54.6875 
L 17.484375 21.921875 
Q 17.484375 14.15625 20.5 10.265625 
Q 23.53125 6.390625 29.59375 6.390625 
Q 36.859375 6.390625 41.078125 11.03125 
Q 45.3125 15.671875 45.3125 23.6875 
L 45.3125 54.6875 
L 54.296875 54.6875 
L 54.296875 0 
L 45.3125 0 
L 45.3125 8.40625 
Q 42.046875 3.421875 37.71875 1 
Q 33.40625 -1.421875 27.6875 -1.421875 
Q 18.265625 -1.421875 13.375 4.4375 
Q 8.5 10.296875 8.5 21.578125 
z
M 31.109375 56 
z
" id="DejaVuSans-117"/>
      <path d="M 11.71875 12.40625 
L 22.015625 12.40625 
L 22.015625 4 
L 14.015625 -11.625 
L 7.71875 -11.625 
L 11.71875 4 
z
" id="DejaVuSans-44"/>
      <path d="M 18.109375 8.203125 
L 18.109375 -20.796875 
L 9.078125 -20.796875 
L 9.078125 54.6875 
L 18.109375 54.6875 
L 18.109375 46.390625 
Q 20.953125 51.265625 25.265625 53.625 
Q 29.59375 56 35.59375 56 
Q 45.5625 56 51.78125 48.09375 
Q 58.015625 40.1875 58.015625 27.296875 
Q 58.015625 14.40625 51.78125 6.484375 
Q 45.5625 -1.421875 35.59375 -1.421875 
Q 29.59375 -1.421875 25.265625 0.953125 
Q 20.953125 3.328125 18.109375 8.203125 
z
M 48.6875 27.296875 
Q 48.6875 37.203125 44.609375 42.84375 
Q 40.53125 48.484375 33.40625 48.484375 
Q 26.265625 48.484375 22.1875 42.84375 
Q 18.109375 37.203125 18.109375 27.296875 
Q 18.109375 17.390625 22.1875 11.75 
Q 26.265625 6.109375 33.40625 6.109375 
Q 40.53125 6.109375 44.609375 11.75 
Q 48.6875 17.390625 48.6875 27.296875 
z
" id="DejaVuSans-112"/>
     </defs>
     <g transform="translate(17.619531 298.435375)rotate(-90)scale(0.17 -0.17)">
      <use xlink:href="#DejaVuSans-70"/>
      <use x="57.410156" xlink:href="#DejaVuSans-114"/>
      <use x="98.523438" xlink:href="#DejaVuSans-97"/>
      <use x="159.802734" xlink:href="#DejaVuSans-99"/>
      <use x="214.783203" xlink:href="#DejaVuSans-116"/>
      <use x="253.992188" xlink:href="#DejaVuSans-105"/>
      <use x="281.775391" xlink:href="#DejaVuSans-111"/>
      <use x="342.957031" xlink:href="#DejaVuSans-110"/>
      <use x="406.335938" xlink:href="#DejaVuSans-32"/>
      <use x="438.123047" xlink:href="#DejaVuSans-111"/>
      <use x="499.304688" xlink:href="#DejaVuSans-102"/>
      <use x="534.509766" xlink:href="#DejaVuSans-32"/>
      <use x="566.296875" xlink:href="#DejaVuSans-102"/>
      <use x="601.501953" xlink:href="#DejaVuSans-117"/>
      <use x="664.880859" xlink:href="#DejaVuSans-110"/>
      <use x="728.259766" xlink:href="#DejaVuSans-99"/>
      <use x="783.240234" xlink:href="#DejaVuSans-116"/>
      <use x="822.449219" xlink:href="#DejaVuSans-105"/>
      <use x="850.232422" xlink:href="#DejaVuSans-111"/>
      <use x="911.414062" xlink:href="#DejaVuSans-110"/>
      <use x="974.792969" xlink:href="#DejaVuSans-44"/>
      <use x="1006.580078" xlink:href="#DejaVuSans-116"/>
      <use x="1045.789062" xlink:href="#DejaVuSans-97"/>
      <use x="1107.068359" xlink:href="#DejaVuSans-114"/>
      <use x="1148.166016" xlink:href="#DejaVuSans-103"/>
      <use x="1211.642578" xlink:href="#DejaVuSans-101"/>
      <use x="1273.166016" xlink:href="#DejaVuSans-116"/>
      <use x="1312.375" xlink:href="#DejaVuSans-32"/>
      <use x="1344.162109" xlink:href="#DejaVuSans-112"/>
      <use x="1407.638672" xlink:href="#DejaVuSans-97"/>
      <use x="1468.917969" xlink:href="#DejaVuSans-105"/>
      <use x="1496.701172" xlink:href="#DejaVuSans-114"/>
      <use x="1537.814453" xlink:href="#DejaVuSans-115"/>
     </g>
    </g>
   </g>
   <g id="line2d_33">
    <defs>
     <path d="M 0 1.5 
C 0.397805 1.5 0.77937 1.341951 1.06066 1.06066 
C 1.341951 0.77937 1.5 0.397805 1.5 0 
C 1.5 -0.397805 1.341951 -0.77937 1.06066 -1.06066 
C 0.77937 -1.341951 0.397805 -1.5 0 -1.5 
C -0.397805 -1.5 -0.77937 -1.341951 -1.06066 -1.06066 
C -1.341951 -0.77937 -1.5 -0.397805 -1.5 0 
C -1.5 0.397805 -1.341951 0.77937 -1.06066 1.06066 
C -0.77937 1.341951 -0.397805 1.5 0 1.5 
z
" id="m7c8be22436" style="stroke:#f5deb3;"/>
    </defs>
    <g>
     <use style="fill:#f5deb3;stroke:#f5deb3;" x="173.806924" xlink:href="#m7c8be22436" y="30.334099"/>
     <use style="fill:#f5deb3;stroke:#f5deb3;" x="173.806924" xlink:href="#m7c8be22436" y="30.334099"/>
    </g>
   </g>
   <g id="line2d_34">
    <defs>
     <path d="M 0 1.5 
C 0.397805 1.5 0.77937 1.341951 1.06066 1.06066 
C 1.341951 0.77937 1.5 0.397805 1.5 0 
C 1.5 -0.397805 1.341951 -0.77937 1.06066 -1.06066 
C 0.77937 -1.341951 0.397805 -1.5 0 -1.5 
C -0.397805 -1.5 -0.77937 -1.341951 -1.06066 -1.06066 
C -1.341951 -0.77937 -1.5 -0.397805 -1.5 0 
C -1.5 0.397805 -1.341951 0.77937 -1.06066 1.06066 
C -0.77937 1.341951 -0.397805 1.5 0 1.5 
z
" id="m6430ee6811" style="stroke:#000080;"/>
    </defs>
    <g>
     <use style="fill:#000080;stroke:#000080;" x="161.84538" xlink:href="#m6430ee6811" y="30.334099"/>
     <use style="fill:#000080;stroke:#000080;" x="161.84538" xlink:href="#m6430ee6811" y="30.334099"/>
    </g>
   </g>
   <g id="line2d_35">
    <path d="M 145.338615 298.944 
L 145.338615 298.417314 
L 145.959614 298.417314 
L 145.959614 297.890628 
L 146.670421 297.890628 
L 146.78088 296.837256 
L 146.994542 296.837256 
L 146.994542 296.31057 
L 147.6552 296.31057 
L 147.70997 294.730511 
L 147.87818 294.730511 
L 147.87818 294.203825 
L 148.000837 294.203825 
L 148.025265 293.150453 
L 148.282122 293.150453 
L 148.282122 292.623767 
L 148.425853 292.623767 
L 148.425853 292.097081 
L 148.676918 292.097081 
L 148.676918 291.570395 
L 148.850072 291.570395 
L 148.94759 290.517023 
L 148.984596 290.517023 
L 149.035352 288.410278 
L 149.131841 288.410278 
L 149.159312 287.356906 
L 149.422654 287.356906 
L 149.422654 286.83022 
L 149.534949 286.83022 
L 149.570731 285.250162 
L 149.659866 285.250162 
L 149.673197 283.670104 
L 149.85877 283.670104 
L 149.9683 282.616732 
L 149.985761 282.616732 
L 150.059777 279.983301 
L 150.176688 279.983301 
L 150.176688 279.456615 
L 150.309961 279.456615 
L 150.412445 276.296499 
L 150.425213 276.296499 
L 150.429467 275.243126 
L 150.602994 275.243126 
L 150.615623 274.189754 
L 150.808139 274.189754 
L 150.874606 272.609696 
L 150.973835 272.609696 
L 151.027348 271.556324 
L 151.227591 271.556324 
L 151.320795 270.502952 
L 151.345027 270.502952 
L 151.449647 268.922893 
L 151.469695 268.922893 
L 151.525705 267.342835 
L 151.581536 267.342835 
L 151.649092 265.762777 
L 151.740076 265.762777 
L 151.783423 264.182719 
L 151.936246 264.182719 
L 151.936246 263.656033 
L 152.09934 263.656033 
L 152.203386 261.022602 
L 152.241765 261.022602 
L 152.329717 258.389172 
L 152.360205 258.389172 
L 152.409635 256.282427 
L 152.477846 256.282427 
L 152.568381 253.648997 
L 152.594699 253.648997 
L 152.677155 252.068939 
L 152.714506 252.068939 
L 152.807535 251.015567 
L 152.829789 251.015567 
L 152.914832 249.962195 
L 152.966394 249.962195 
L 153.065409 247.328764 
L 153.185667 247.328764 
L 153.287059 244.695334 
L 153.31592 244.695334 
L 153.395042 242.588589 
L 153.523746 242.588589 
L 153.545105 241.535217 
L 153.686831 241.535217 
L 153.774828 238.375101 
L 153.806399 238.375101 
L 153.911223 235.74167 
L 154.056927 235.74167 
L 154.167129 232.581554 
L 154.184285 232.581554 
L 154.293687 230.47481 
L 154.303908 230.47481 
L 154.409179 226.788007 
L 154.446381 226.788007 
L 154.550798 225.734635 
L 154.57429 225.734635 
L 154.611142 222.574518 
L 154.687945 222.574518 
L 154.794242 219.941088 
L 154.847148 219.941088 
L 154.9492 215.727599 
L 154.968883 215.727599 
L 155.047394 214.147541 
L 155.122304 214.147541 
L 155.209833 209.934052 
L 155.28405 209.934052 
L 155.354745 207.827308 
L 155.396385 207.827308 
L 155.498463 203.613819 
L 155.542935 203.613819 
L 155.647315 200.453703 
L 155.663075 200.453703 
L 155.751073 197.293586 
L 155.788651 197.293586 
L 155.885354 195.713528 
L 155.959855 195.713528 
L 156.040206 192.553412 
L 156.092544 192.553412 
L 156.163105 190.446667 
L 156.224231 190.446667 
L 156.294262 187.286551 
L 156.348874 187.286551 
L 156.445541 182.01969 
L 156.487665 182.01969 
L 156.583568 178.859574 
L 156.604476 178.859574 
L 156.687861 175.172771 
L 156.72644 175.172771 
L 156.835778 170.959282 
L 156.838723 170.959282 
L 156.944434 166.219108 
L 156.953214 166.219108 
L 157.008721 163.058991 
L 157.11051 163.058991 
L 157.217473 160.952247 
L 157.257775 160.952247 
L 157.343824 155.1587 
L 157.378126 155.1587 
L 157.474947 152.52527 
L 157.503322 152.52527 
L 157.605092 149.365153 
L 157.624812 149.365153 
L 157.709073 146.731723 
L 157.77619 146.731723 
L 157.823576 144.098292 
L 157.887482 144.098292 
L 157.995311 138.304745 
L 158.031107 138.304745 
L 158.140788 134.091257 
L 158.151718 134.091257 
L 158.260646 128.29771 
L 158.306735 128.29771 
L 158.414702 125.137593 
L 158.46307 125.137593 
L 158.522004 121.977477 
L 158.575409 121.977477 
L 158.673779 117.763988 
L 158.70027 117.763988 
L 158.800572 114.077186 
L 158.816356 114.077186 
L 158.92645 108.283639 
L 158.936899 108.283639 
L 159.017667 104.596836 
L 159.048831 104.596836 
L 159.154893 100.383348 
L 159.178088 100.383348 
L 159.280809 96.696545 
L 159.311507 96.696545 
L 159.400737 91.95637 
L 159.423608 91.95637 
L 159.532469 87.216196 
L 159.534993 87.216196 
L 159.645671 84.056079 
L 159.653192 84.056079 
L 159.755651 80.369277 
L 159.768105 80.369277 
L 159.869893 77.20916 
L 159.897102 77.20916 
L 159.993227 73.522358 
L 160.052119 73.522358 
L 160.149832 67.202125 
L 160.169309 67.202125 
L 160.263949 63.515322 
L 160.283299 63.515322 
L 160.389343 59.301833 
L 160.401352 59.301833 
L 160.499521 53.508287 
L 160.516227 53.508287 
L 160.580512 50.34817 
L 160.627979 50.34817 
L 160.720169 46.134681 
L 160.764907 46.134681 
L 160.865732 41.921193 
L 160.8961 41.921193 
L 161.000813 38.761076 
L 161.007772 38.761076 
L 161.116428 36.127646 
L 161.242725 36.127646 
L 161.352206 33.494215 
L 161.476813 33.494215 
L 161.476813 32.967529 
L 161.625176 32.967529 
L 161.689969 31.914157 
L 161.763407 31.914157 
L 161.84538 30.334099 
L 338.688 30.334099 
L 338.688 30.334099 
" style="fill:none;stroke:#000080;stroke-linecap:square;stroke-width:1.5;"/>
   </g>
   <g id="line2d_36">
    <defs>
     <path d="M 0 6 
C 1.591219 6 3.117479 5.367802 4.242641 4.242641 
C 5.367802 3.117479 6 1.591219 6 0 
C 6 -1.591219 5.367802 -3.117479 4.242641 -4.242641 
C 3.117479 -5.367802 1.591219 -6 0 -6 
C -1.591219 -6 -3.117479 -5.367802 -4.242641 -4.242641 
C -5.367802 -3.117479 -6 -1.591219 -6 0 
C -6 1.591219 -5.367802 3.117479 -4.242641 4.242641 
C -3.117479 5.367802 -1.591219 6 0 6 
z
" id="m646921a871" style="stroke:#000080;stroke-width:1.5;"/>
    </defs>
    <g>
     <use style="fill-opacity:0;stroke:#000080;stroke-width:1.5;" x="160.418152" xlink:href="#m646921a871" y="57.721775"/>
     <use style="fill-opacity:0;stroke:#000080;stroke-width:1.5;" x="161.84538" xlink:href="#m646921a871" y="30.860785"/>
     <use style="fill-opacity:0;stroke:#000080;stroke-width:1.5;" x="161.84538" xlink:href="#m646921a871" y="30.334099"/>
     <use style="fill-opacity:0;stroke:#000080;stroke-width:1.5;" x="161.84538" xlink:href="#m646921a871" y="30.334099"/>
     <use style="fill-opacity:0;stroke:#000080;stroke-width:1.5;" x="338.688" xlink:href="#m646921a871" y="30.334099"/>
    </g>
   </g>
   <g id="line2d_37">
    <path style="fill:none;stroke:#000080;stroke-linecap:square;stroke-width:1.5;"/>
    <g/>
   </g>
   <g id="line2d_38">
    <g>
     <use style="fill:#000080;stroke:#000080;" x="162.23228" xlink:href="#m6430ee6811" y="30.334099"/>
     <use style="fill:#000080;stroke:#000080;" x="162.23228" xlink:href="#m6430ee6811" y="30.334099"/>
    </g>
   </g>
   <g id="line2d_39">
    <path d="M 146.484754 298.944 
L 146.484754 298.417314 
L 147.056585 298.417314 
L 147.13383 297.363942 
L 147.297484 297.363942 
L 147.404054 296.31057 
L 147.590249 296.31057 
L 147.590249 295.783884 
L 147.71494 295.783884 
L 147.779429 294.730511 
L 147.888024 294.730511 
L 147.888024 294.203825 
L 148.325365 294.203825 
L 148.325365 293.677139 
L 148.549469 293.677139 
L 148.549469 293.150453 
L 148.733265 293.150453 
L 148.733265 292.097081 
L 148.961476 292.097081 
L 149.067574 290.517023 
L 149.377533 290.517023 
L 149.467659 287.883592 
L 149.525992 287.883592 
L 149.525992 287.356906 
L 149.730848 287.356906 
L 149.730848 286.83022 
L 150.042389 286.83022 
L 150.042389 286.303534 
L 150.279956 286.303534 
L 150.357008 285.250162 
L 150.527024 285.250162 
L 150.539708 283.670104 
L 150.758122 283.670104 
L 150.849711 281.563359 
L 150.899466 281.563359 
L 151.006785 278.929929 
L 151.0109 278.929929 
L 151.023238 277.876557 
L 151.369226 277.876557 
L 151.445635 276.296499 
L 151.505722 276.296499 
L 151.609385 273.663068 
L 151.621307 273.663068 
L 151.688709 272.08301 
L 151.740076 272.08301 
L 151.850203 268.922893 
L 151.975216 268.922893 
L 152.083873 266.816149 
L 152.130233 266.816149 
L 152.234096 263.656033 
L 152.249431 263.656033 
L 152.299175 262.60266 
L 152.451351 262.60266 
L 152.560855 260.495916 
L 152.564618 260.495916 
L 152.639723 258.915858 
L 152.684631 258.915858 
L 152.748054 256.809114 
L 152.826082 256.809114 
L 152.911143 254.702369 
L 153.021472 254.702369 
L 153.069065 253.122311 
L 153.152952 253.122311 
L 153.243677 249.962195 
L 153.265382 249.962195 
L 153.351929 247.328764 
L 153.384274 247.328764 
L 153.48809 245.748706 
L 153.577094 245.748706 
L 153.665645 242.588589 
L 153.774828 242.588589 
L 153.820412 241.535217 
L 153.893796 241.535217 
L 153.93907 239.428473 
L 154.050017 239.428473 
L 154.122443 236.795043 
L 154.218547 236.795043 
L 154.290278 235.214984 
L 154.341335 235.214984 
L 154.426099 233.10824 
L 154.463265 233.10824 
L 154.57429 230.47481 
L 154.587699 230.47481 
L 154.674612 228.368065 
L 154.701267 228.368065 
L 154.810792 225.734635 
L 154.847148 225.734635 
L 154.922921 222.047832 
L 154.995093 222.047832 
L 155.09303 220.467774 
L 155.119054 220.467774 
L 155.196893 215.727599 
L 155.245367 215.727599 
L 155.345122 214.147541 
L 155.373976 214.147541 
L 155.476185 210.460738 
L 155.549279 210.460738 
L 155.644161 206.773936 
L 155.685117 206.773936 
L 155.791779 204.140506 
L 155.801159 204.140506 
L 155.910223 199.927017 
L 155.95056 199.927017 
L 155.981524 198.346959 
L 156.077167 198.346959 
L 156.172288 193.606784 
L 156.22118 193.606784 
L 156.282103 190.973354 
L 156.339784 190.973354 
L 156.406335 188.339923 
L 156.472632 188.339923 
L 156.562634 185.706493 
L 156.619396 185.706493 
L 156.729404 183.599748 
L 156.741256 183.599748 
L 156.832832 180.966318 
L 156.871092 180.966318 
L 156.96199 177.279515 
L 156.98245 177.279515 
L 157.064052 173.066027 
L 157.104709 173.066027 
L 157.185742 169.379224 
L 157.226117 169.379224 
L 157.323784 165.165736 
L 157.346685 165.165736 
L 157.455057 163.585677 
L 157.477787 163.585677 
L 157.554281 160.425561 
L 157.590993 160.425561 
L 157.692253 157.79213 
L 157.720277 157.79213 
L 157.818008 153.578642 
L 157.84027 153.578642 
L 157.917963 150.418525 
L 157.959442 150.418525 
L 158.061338 148.311781 
L 158.110694 148.311781 
L 158.219878 141.991548 
L 158.233478 141.991548 
L 158.341898 137.251373 
L 158.347301 137.251373 
L 158.428151 131.984513 
L 158.460386 131.984513 
L 158.562073 127.771024 
L 158.580741 127.771024 
L 158.687029 124.084221 
L 158.71879 124.084221 
L 158.803204 120.397419 
L 158.834754 120.397419 
L 158.942121 117.237302 
L 158.949951 117.237302 
L 159.041045 112.497128 
L 159.08253 112.497128 
L 159.193535 107.756953 
L 159.196108 107.756953 
L 159.298723 105.123522 
L 159.32939 105.123522 
L 159.428686 99.329976 
L 159.46166 99.329976 
L 159.557689 95.643173 
L 159.572803 95.643173 
L 159.658204 93.536429 
L 159.688246 93.536429 
L 159.797958 88.269568 
L 159.802929 88.269568 
L 159.869893 86.162824 
L 159.914394 86.162824 
L 159.98831 84.056079 
L 160.030058 84.056079 
L 160.132771 76.155788 
L 160.142522 76.155788 
L 160.22761 71.942299 
L 160.295382 71.942299 
L 160.391745 66.148752 
L 160.422949 66.148752 
L 160.523381 62.46195 
L 160.537682 62.46195 
L 160.620867 59.82852 
L 160.651664 59.82852 
L 160.741375 54.034973 
L 160.769609 54.034973 
L 160.863394 50.874856 
L 160.886762 50.874856 
L 160.972951 46.661368 
L 161.005452 46.661368 
L 161.067963 42.447879 
L 161.12334 42.447879 
L 161.171652 41.394507 
L 161.23586 41.394507 
L 161.334007 38.761076 
L 161.356752 38.761076 
L 161.438393 37.181018 
L 161.542158 37.181018 
L 161.61174 34.020902 
L 161.660953 34.020902 
L 161.738962 31.914157 
L 161.893939 31.914157 
L 161.893939 31.387471 
L 162.049736 31.387471 
L 162.049736 30.860785 
L 162.23228 30.860785 
L 162.23228 30.334099 
L 338.688 30.334099 
L 338.688 30.334099 
" style="fill:none;stroke:#000080;stroke-linecap:square;stroke-width:1.5;"/>
   </g>
   <g id="line2d_40">
    <g>
     <use style="fill-opacity:0;stroke:#000080;stroke-width:1.5;" x="156.153918" xlink:href="#m646921a871" y="195.713528"/>
     <use style="fill-opacity:0;stroke:#000080;stroke-width:1.5;" x="160.348448" xlink:href="#m646921a871" y="69.308869"/>
     <use style="fill-opacity:0;stroke:#000080;stroke-width:1.5;" x="162.23228" xlink:href="#m646921a871" y="30.860785"/>
     <use style="fill-opacity:0;stroke:#000080;stroke-width:1.5;" x="162.23228" xlink:href="#m646921a871" y="30.334099"/>
     <use style="fill-opacity:0;stroke:#000080;stroke-width:1.5;" x="338.688" xlink:href="#m646921a871" y="30.334099"/>
    </g>
   </g>
   <g id="line2d_41">
    <path style="fill:none;stroke:#000080;stroke-linecap:square;stroke-width:1.5;"/>
    <g/>
   </g>
   <g id="line2d_42">
    <defs>
     <path d="M 0 1.5 
C 0.397805 1.5 0.77937 1.341951 1.06066 1.06066 
C 1.341951 0.77937 1.5 0.397805 1.5 0 
C 1.5 -0.397805 1.341951 -0.77937 1.06066 -1.06066 
C 0.77937 -1.341951 0.397805 -1.5 0 -1.5 
C -0.397805 -1.5 -0.77937 -1.341951 -1.06066 -1.06066 
C -1.341951 -0.77937 -1.5 -0.397805 -1.5 0 
C -1.5 0.397805 -1.341951 0.77937 -1.06066 1.06066 
C -0.77937 1.341951 -0.397805 1.5 0 1.5 
z
" id="mc7e995dfe2" style="stroke:#ff00ff;"/>
    </defs>
    <g>
     <use style="fill:#ff00ff;stroke:#ff00ff;" x="182.61488" xlink:href="#mc7e995dfe2" y="30.334099"/>
     <use style="fill:#ff00ff;stroke:#ff00ff;" x="182.61488" xlink:href="#mc7e995dfe2" y="30.334099"/>
    </g>
   </g>
   <g id="line2d_43">
    <path d="M 165.30631 298.944 
L 165.30631 298.417314 
L 166.368037 298.417314 
L 166.368037 297.890628 
L 167.580089 297.890628 
L 167.580089 297.363942 
L 169.380234 297.363942 
L 169.380234 296.837256 
L 169.57571 296.837256 
L 169.57571 296.31057 
L 169.944936 296.31057 
L 169.944936 295.783884 
L 170.160306 295.783884 
L 170.160306 295.257197 
L 170.40555 295.257197 
L 170.40555 294.730511 
L 170.96603 294.730511 
L 171.062712 293.150453 
L 171.171814 293.150453 
L 171.171814 292.623767 
L 171.477279 292.623767 
L 171.477279 292.097081 
L 171.597729 292.097081 
L 171.600256 291.043709 
L 171.824942 291.043709 
L 171.824942 290.517023 
L 171.973965 290.517023 
L 172.003617 289.463651 
L 172.154799 289.463651 
L 172.154799 288.936964 
L 172.301041 288.936964 
L 172.399066 287.883592 
L 172.545676 287.883592 
L 172.643529 286.83022 
L 172.728998 286.83022 
L 172.728998 286.303534 
L 172.942027 286.303534 
L 173.052805 283.670104 
L 173.056292 283.670104 
L 173.056292 283.143418 
L 173.202112 283.143418 
L 173.247 282.090045 
L 173.349008 282.090045 
L 173.436783 279.456615 
L 173.512801 279.456615 
L 173.614396 278.403243 
L 173.747825 278.403243 
L 173.758991 277.349871 
L 173.934474 277.349871 
L 174.014959 275.243126 
L 174.121333 275.243126 
L 174.148644 274.189754 
L 174.319187 274.189754 
L 174.423728 271.556324 
L 174.45057 271.556324 
L 174.545793 268.396207 
L 174.654291 268.396207 
L 174.765278 266.289463 
L 174.771599 266.289463 
L 174.865091 264.182719 
L 174.928881 264.182719 
L 174.928881 263.129347 
L 175.040215 263.129347 
L 175.150842 259.96923 
L 175.19099 259.96923 
L 175.207435 258.389172 
L 175.311905 258.389172 
L 175.409661 256.282427 
L 175.438071 256.282427 
L 175.546211 254.175683 
L 175.614588 254.175683 
L 175.723637 251.015567 
L 175.783374 251.015567 
L 175.878531 247.85545 
L 175.93774 247.85545 
L 176.03206 245.22202 
L 176.073165 245.22202 
L 176.17259 242.588589 
L 176.221122 242.588589 
L 176.281114 239.955159 
L 176.335123 239.955159 
L 176.4436 234.161612 
L 176.461773 234.161612 
L 176.509508 232.581554 
L 176.578966 232.581554 
L 176.682166 228.894751 
L 176.734008 228.894751 
L 176.816637 225.734635 
L 176.848457 225.734635 
L 176.951938 222.047832 
L 177.018734 222.047832 
L 177.11753 219.941088 
L 177.147887 219.941088 
L 177.24687 215.727599 
L 177.26879 215.727599 
L 177.356196 213.620855 
L 177.381607 213.620855 
L 177.483784 208.88068 
L 177.530604 208.88068 
L 177.632808 205.720564 
L 177.675663 205.720564 
L 177.777024 203.087133 
L 177.796517 203.087133 
L 177.904222 198.873645 
L 177.91302 198.873645 
L 178.014764 196.240214 
L 178.03312 196.240214 
L 178.127217 190.446667 
L 178.176675 190.446667 
L 178.262244 185.179807 
L 178.289814 185.179807 
L 178.38254 180.439632 
L 178.43128 180.439632 
L 178.533449 174.646085 
L 178.557202 174.646085 
L 178.651894 169.379224 
L 178.668749 169.379224 
L 178.77289 163.058991 
L 178.784608 163.058991 
L 178.891388 157.265444 
L 178.912998 157.265444 
L 179.011565 148.311781 
L 179.033852 148.311781 
L 179.14404 141.991548 
L 179.157151 141.991548 
L 179.255166 135.671315 
L 179.279584 135.671315 
L 179.39066 128.824396 
L 179.393084 128.824396 
L 179.49782 121.450791 
L 179.537135 121.450791 
L 179.64818 114.077186 
L 179.6808 114.077186 
L 179.774343 106.703581 
L 179.798834 106.703581 
L 179.905092 99.856662 
L 179.917643 99.856662 
L 180.028637 93.536429 
L 180.032533 93.536429 
L 180.134283 89.32294 
L 180.158275 89.32294 
L 180.263909 82.476021 
L 180.300002 82.476021 
L 180.399445 77.735846 
L 180.424599 77.735846 
L 180.532422 73.522358 
L 180.553605 73.522358 
L 180.649361 69.835555 
L 180.674157 69.835555 
L 180.770749 65.622066 
L 180.796864 65.622066 
L 180.906863 60.881892 
L 180.921675 60.881892 
L 181.031628 57.195089 
L 181.054417 57.195089 
L 181.117483 54.561659 
L 181.187615 54.561659 
L 181.275609 51.928228 
L 181.299531 51.928228 
L 181.360275 48.768112 
L 181.41793 48.768112 
L 181.499045 47.188054 
L 181.539819 47.188054 
L 181.589761 45.607995 
L 181.660861 45.607995 
L 181.754976 42.447879 
L 181.795157 42.447879 
L 181.865425 41.394507 
L 181.917243 41.394507 
L 182.014856 39.287762 
L 182.035008 39.287762 
L 182.131966 37.181018 
L 182.166464 37.181018 
L 182.216708 34.547588 
L 182.27914 34.547588 
L 182.372029 32.967529 
L 182.429156 32.967529 
L 182.429156 32.440843 
L 182.541502 32.440843 
L 182.61488 30.334099 
L 338.688 30.334099 
L 338.688 30.334099 
" style="fill:none;stroke:#ff00ff;stroke-linecap:square;stroke-width:1.5;"/>
   </g>
   <g id="line2d_44">
    <defs>
     <path d="M -0 8.485281 
L 5.091169 0 
L 0 -8.485281 
L -5.091169 -0 
z
" id="mcf51b04060" style="stroke:#ff00ff;stroke-linejoin:miter;stroke-width:1.5;"/>
    </defs>
    <g>
     <use style="fill-opacity:0;stroke:#ff00ff;stroke-linejoin:miter;stroke-width:1.5;" x="180.752071" xlink:href="#mcf51b04060" y="67.728811"/>
     <use style="fill-opacity:0;stroke:#ff00ff;stroke-linejoin:miter;stroke-width:1.5;" x="182.61488" xlink:href="#mcf51b04060" y="30.334099"/>
     <use style="fill-opacity:0;stroke:#ff00ff;stroke-linejoin:miter;stroke-width:1.5;" x="182.61488" xlink:href="#mcf51b04060" y="30.334099"/>
     <use style="fill-opacity:0;stroke:#ff00ff;stroke-linejoin:miter;stroke-width:1.5;" x="338.688" xlink:href="#mcf51b04060" y="30.334099"/>
    </g>
   </g>
   <g id="line2d_45">
    <path style="fill:none;stroke:#ff00ff;stroke-linecap:square;stroke-width:1.5;"/>
    <g/>
   </g>
   <g id="line2d_46">
    <defs>
     <path d="M 0 1.5 
C 0.397805 1.5 0.77937 1.341951 1.06066 1.06066 
C 1.341951 0.77937 1.5 0.397805 1.5 0 
C 1.5 -0.397805 1.341951 -0.77937 1.06066 -1.06066 
C 0.77937 -1.341951 0.397805 -1.5 0 -1.5 
C -0.397805 -1.5 -0.77937 -1.341951 -1.06066 -1.06066 
C -1.341951 -0.77937 -1.5 -0.397805 -1.5 0 
C -1.5 0.397805 -1.341951 0.77937 -1.06066 1.06066 
C -0.77937 1.341951 -0.397805 1.5 0 1.5 
z
" id="meb608c8a79" style="stroke:#ff0000;"/>
    </defs>
    <g>
     <use style="fill:#ff0000;stroke:#ff0000;" x="163.679476" xlink:href="#meb608c8a79" y="30.334099"/>
     <use style="fill:#ff0000;stroke:#ff0000;" x="163.679476" xlink:href="#meb608c8a79" y="30.334099"/>
    </g>
   </g>
   <g id="line2d_47">
    <path d="M 146.178086 298.944 
L 146.178086 298.417314 
L 147.307662 298.417314 
L 147.414169 297.363942 
L 147.932255 297.363942 
L 147.932255 296.837256 
L 148.209809 296.837256 
L 148.214639 295.783884 
L 148.516274 295.783884 
L 148.516274 295.257197 
L 148.686322 295.257197 
L 148.742638 294.203825 
L 149.214124 294.203825 
L 149.323233 292.097081 
L 149.363974 292.097081 
L 149.363974 291.570395 
L 149.849978 291.570395 
L 149.915812 290.517023 
L 149.990124 290.517023 
L 149.990124 289.990337 
L 150.133479 289.990337 
L 150.219791 287.883592 
L 150.314243 287.883592 
L 150.339914 286.83022 
L 150.607205 286.83022 
L 150.607205 286.303534 
L 150.728879 286.303534 
L 150.762296 285.250162 
L 150.907745 285.250162 
L 150.944951 283.670104 
L 151.162458 283.670104 
L 151.162458 283.143418 
L 151.308666 283.143418 
L 151.405461 281.563359 
L 151.493721 281.563359 
L 151.601433 278.929929 
L 151.60541 278.929929 
L 151.668912 276.823185 
L 151.795227 276.823185 
L 151.795227 276.296499 
L 151.920633 276.296499 
L 151.979109 274.71644 
L 152.064519 274.71644 
L 152.083873 273.136382 
L 152.214909 273.136382 
L 152.272407 272.08301 
L 152.360205 272.08301 
L 152.424816 271.029638 
L 152.534486 271.029638 
L 152.579665 269.449579 
L 152.707042 269.449579 
L 152.796398 268.396207 
L 152.829789 268.396207 
L 152.940632 267.342835 
L 152.984773 267.342835 
L 153.08003 264.709405 
L 153.149313 264.709405 
L 153.243677 262.60266 
L 153.297887 262.60266 
L 153.344733 261.549288 
L 153.455937 261.549288 
L 153.537988 260.495916 
L 153.59484 260.495916 
L 153.683301 257.862486 
L 153.718561 257.862486 
L 153.81691 255.755741 
L 153.855395 255.755741 
L 153.890309 254.175683 
L 153.991164 254.175683 
L 154.077643 251.015567 
L 154.160261 251.015567 
L 154.201424 249.962195 
L 154.273226 249.962195 
L 154.324333 248.908822 
L 154.415949 248.908822 
L 154.453136 247.85545 
L 154.530637 247.85545 
L 154.607795 245.748706 
L 154.647916 245.748706 
L 154.701267 243.641962 
L 154.771044 243.641962 
L 154.86035 241.008531 
L 154.890017 241.008531 
L 154.981993 238.375101 
L 155.017994 238.375101 
L 155.053921 237.321729 
L 155.132051 237.321729 
L 155.174226 234.688298 
L 155.296925 234.688298 
L 155.386785 230.47481 
L 155.437927 230.47481 
L 155.527065 227.841379 
L 155.549279 227.841379 
L 155.63154 225.734635 
L 155.672525 225.734635 
L 155.738529 223.627891 
L 155.80741 223.627891 
L 155.885354 222.047832 
L 155.94126 222.047832 
L 156.024783 217.834344 
L 156.098691 217.834344 
L 156.202861 215.727599 
L 156.218128 215.727599 
L 156.303376 211.514111 
L 156.373091 211.514111 
L 156.439515 210.460738 
L 156.484659 210.460738 
L 156.550661 208.353994 
L 156.604476 208.353994 
L 156.696771 205.720564 
L 156.747178 205.720564 
L 156.853444 202.560447 
L 156.891659 202.560447 
L 156.985371 199.400331 
L 157.005804 199.400331 
L 157.116308 195.186842 
L 157.145273 195.186842 
L 157.252023 190.973354 
L 157.289376 190.973354 
L 157.380981 189.393295 
L 157.423756 189.393295 
L 157.511826 183.073062 
L 157.554281 183.073062 
L 157.664184 179.38626 
L 157.697862 179.38626 
L 157.792929 175.699457 
L 157.831925 175.699457 
L 157.934566 172.012655 
L 157.970486 172.012655 
L 158.042106 168.852538 
L 158.083291 168.852538 
L 158.181741 167.27248 
L 158.198096 167.27248 
L 158.28235 162.005619 
L 158.312149 162.005619 
L 158.420083 157.79213 
L 158.428151 157.79213 
L 158.471118 154.105328 
L 158.562073 154.105328 
L 158.633966 151.998584 
L 158.687029 151.998584 
L 158.76896 147.785095 
L 158.803204 147.785095 
L 158.91338 145.678351 
L 158.918609 145.678351 
L 159.007266 141.991548 
L 159.05402 141.991548 
L 159.123917 140.41149 
L 159.167783 140.41149 
L 159.275687 136.198001 
L 159.288488 136.198001 
L 159.390562 132.511199 
L 159.400737 132.511199 
L 159.509741 129.351082 
L 159.519846 129.351082 
L 159.615556 125.137593 
L 159.640655 125.137593 
L 159.745682 120.397419 
L 159.753159 120.397419 
L 159.857512 114.603872 
L 159.874844 114.603872 
L 159.976013 110.390383 
L 159.993227 110.390383 
L 160.093714 105.123522 
L 160.10837 105.123522 
L 160.200913 100.383348 
L 160.259108 100.383348 
L 160.37011 95.116487 
L 160.398951 95.116487 
L 160.48519 91.429684 
L 160.513841 91.429684 
L 160.601888 86.68951 
L 160.661129 86.68951 
L 160.769609 83.529393 
L 160.788407 83.529393 
L 160.8961 79.842591 
L 160.910098 79.842591 
L 161.000813 74.57573 
L 161.033263 74.57573 
L 161.132553 70.888927 
L 161.167057 70.888927 
L 161.27016 65.09538 
L 161.299832 65.09538 
L 161.388547 61.408578 
L 161.418019 61.408578 
L 161.490353 56.668403 
L 161.539909 56.668403 
L 161.643074 53.508287 
L 161.663187 53.508287 
L 161.763407 50.34817 
L 161.787817 50.34817 
L 161.898347 47.71474 
L 161.907159 47.71474 
L 161.995037 44.027937 
L 162.021314 44.027937 
L 162.102087 40.867821 
L 162.178151 40.867821 
L 162.279775 38.761076 
L 162.335739 38.761076 
L 162.43004 37.181018 
L 162.466339 37.181018 
L 162.55145 34.547588 
L 162.591733 34.547588 
L 162.591733 34.020902 
L 162.749842 34.020902 
L 162.787576 32.967529 
L 163.010212 32.967529 
L 163.010212 32.440843 
L 163.17688 32.440843 
L 163.17688 31.914157 
L 163.331824 31.914157 
L 163.331824 31.387471 
L 163.629664 31.387471 
L 163.679476 30.334099 
L 338.688 30.334099 
L 338.688 30.334099 
" style="fill:none;stroke:#ff0000;stroke-linecap:square;stroke-width:1.5;"/>
   </g>
   <g id="line2d_48">
    <defs>
     <path d="M 0 -6 
L -5.196152 -3 
L -5.196152 3 
L -0 6 
L 5.196152 3 
L 5.196152 -3 
z
" id="m21aaf097be" style="stroke:#ff0000;stroke-linejoin:miter;stroke-width:1.5;"/>
    </defs>
    <g>
     <use style="fill-opacity:0;stroke:#ff0000;stroke-linejoin:miter;stroke-width:1.5;" x="160.788407" xlink:href="#m21aaf097be" y="83.529393"/>
     <use style="fill-opacity:0;stroke:#ff0000;stroke-linejoin:miter;stroke-width:1.5;" x="163.679476" xlink:href="#m21aaf097be" y="30.860785"/>
     <use style="fill-opacity:0;stroke:#ff0000;stroke-linejoin:miter;stroke-width:1.5;" x="163.679476" xlink:href="#m21aaf097be" y="30.334099"/>
     <use style="fill-opacity:0;stroke:#ff0000;stroke-linejoin:miter;stroke-width:1.5;" x="163.679476" xlink:href="#m21aaf097be" y="30.334099"/>
     <use style="fill-opacity:0;stroke:#ff0000;stroke-linejoin:miter;stroke-width:1.5;" x="338.688" xlink:href="#m21aaf097be" y="30.334099"/>
    </g>
   </g>
   <g id="line2d_49">
    <path style="fill:none;stroke:#ff0000;stroke-linecap:square;stroke-width:1.5;"/>
    <g/>
   </g>
   <g id="line2d_50">
    <defs>
     <path d="M 0 1.5 
C 0.397805 1.5 0.77937 1.341951 1.06066 1.06066 
C 1.341951 0.77937 1.5 0.397805 1.5 0 
C 1.5 -0.397805 1.341951 -0.77937 1.06066 -1.06066 
C 0.77937 -1.341951 0.397805 -1.5 0 -1.5 
C -0.397805 -1.5 -0.77937 -1.341951 -1.06066 -1.06066 
C -1.341951 -0.77937 -1.5 -0.397805 -1.5 0 
C -1.5 0.397805 -1.341951 0.77937 -1.06066 1.06066 
C -0.77937 1.341951 -0.397805 1.5 0 1.5 
z
" id="ma616096cd8" style="stroke:#ff7500;"/>
    </defs>
    <g>
     <use style="fill:#ff7500;stroke:#ff7500;" x="162.214977" xlink:href="#ma616096cd8" y="30.334099"/>
     <use style="fill:#ff7500;stroke:#ff7500;" x="162.214977" xlink:href="#ma616096cd8" y="30.334099"/>
    </g>
   </g>
   <g id="line2d_51">
    <path d="M 145.637888 298.944 
L 145.637888 298.417314 
L 146.280909 298.417314 
L 146.280909 297.890628 
L 147.010073 297.890628 
L 147.010073 297.363942 
L 147.215849 297.363942 
L 147.215849 296.837256 
L 147.47474 296.837256 
L 147.47474 296.31057 
L 147.605259 296.31057 
L 147.704998 295.257197 
L 147.971478 295.257197 
L 148.044783 293.677139 
L 148.156589 293.677139 
L 148.200145 292.097081 
L 148.473501 292.097081 
L 148.473501 291.570395 
L 148.76137 291.570395 
L 148.803443 290.517023 
L 149.081366 290.517023 
L 149.191307 288.936964 
L 149.218684 288.936964 
L 149.29602 287.883592 
L 149.512548 287.883592 
L 149.548376 286.83022 
L 149.686518 286.83022 
L 149.779481 284.723476 
L 149.84558 284.723476 
L 149.924571 283.670104 
L 149.9683 283.670104 
L 150.072806 281.563359 
L 150.107502 281.563359 
L 150.124824 280.509987 
L 150.267081 280.509987 
L 150.267081 279.983301 
L 150.43372 279.983301 
L 150.531253 277.349871 
L 150.653457 277.349871 
L 150.661853 276.296499 
L 150.808139 276.296499 
L 150.845558 274.189754 
L 150.961462 274.189754 
L 151.068401 271.556324 
L 151.097081 271.556324 
L 151.150218 269.976266 
L 151.349063 269.976266 
L 151.401439 267.869521 
L 151.477707 267.869521 
L 151.557631 264.709405 
L 151.692666 264.709405 
L 151.755852 262.60266 
L 151.826663 262.60266 
L 151.924538 259.96923 
L 151.998557 259.96923 
L 151.998557 259.442544 
L 152.222586 259.442544 
L 152.329717 256.282427 
L 152.39064 256.282427 
L 152.485409 253.648997 
L 152.545792 253.648997 
L 152.635976 251.015567 
L 152.658449 251.015567 
L 152.766663 248.908822 
L 152.803824 248.908822 
L 152.877907 246.802078 
L 152.944315 246.802078 
L 152.944315 245.748706 
L 153.087336 245.748706 
L 153.145673 243.641962 
L 153.221946 243.641962 
L 153.283448 241.535217 
L 153.341134 241.535217 
L 153.448784 238.901787 
L 153.505927 238.901787 
L 153.584194 235.74167 
L 153.637357 235.74167 
L 153.7432 233.634926 
L 153.799388 233.634926 
L 153.900769 231.528182 
L 153.949502 231.528182 
L 154.04656 229.421437 
L 154.070741 229.421437 
L 154.173993 227.314693 
L 154.225391 227.314693 
L 154.273226 225.734635 
L 154.337936 225.734635 
L 154.415949 223.101204 
L 154.473387 223.101204 
L 154.510453 220.99446 
L 154.5944 220.99446 
L 154.674612 219.414402 
L 154.741174 219.414402 
L 154.850449 216.780971 
L 154.86035 216.780971 
L 154.942634 215.200913 
L 155.021263 215.200913 
L 155.089774 212.040797 
L 155.225994 212.040797 
L 155.325859 208.353994 
L 155.364363 208.353994 
L 155.405981 206.773936 
L 155.485736 206.773936 
L 155.593621 201.507075 
L 155.603109 201.507075 
L 155.694554 198.346959 
L 155.725976 198.346959 
L 155.83239 194.13347 
L 155.904009 194.13347 
L 156.012434 192.026726 
L 156.024783 192.026726 
L 156.077167 188.866609 
L 156.14166 188.866609 
L 156.227282 186.233179 
L 156.260804 186.233179 
L 156.360987 183.073062 
L 156.385187 183.073062 
L 156.484659 181.493004 
L 156.541675 181.493004 
L 156.652174 176.752829 
L 156.658127 176.752829 
L 156.761976 172.539341 
L 156.773805 172.539341 
L 156.859328 168.852538 
L 156.885785 168.852538 
L 156.994131 165.692422 
L 157.061144 165.692422 
L 157.133693 162.532305 
L 157.188629 162.532305 
L 157.289376 157.79213 
L 157.312322 157.79213 
L 157.420907 154.105328 
L 157.429451 154.105328 
L 157.540141 151.471897 
L 157.571235 151.471897 
L 157.678224 146.205037 
L 157.695058 146.205037 
L 157.765022 142.518234 
L 157.826359 142.518234 
L 157.9318 137.778059 
L 157.940097 137.778059 
L 158.014595 134.617943 
L 158.061338 134.617943 
L 158.132586 131.984513 
L 158.20899 131.984513 
L 158.274214 129.877768 
L 158.322973 129.877768 
L 158.425462 125.66428 
L 158.438903 125.66428 
L 158.532698 119.344047 
L 158.596725 119.344047 
L 158.687029 117.237302 
L 158.70821 117.237302 
L 158.800572 110.917069 
L 158.842632 110.917069 
L 158.944731 106.176895 
L 158.955169 106.176895 
L 159.05402 101.43672 
L 159.100649 101.43672 
L 159.193535 96.169859 
L 159.219249 96.169859 
L 159.32939 93.009743 
L 159.337048 93.009743 
L 159.405822 88.796254 
L 159.466728 88.796254 
L 159.570285 83.002707 
L 159.602992 83.002707 
L 159.713241 78.262532 
L 159.738201 78.262532 
L 159.792986 74.049044 
L 159.864942 74.049044 
L 159.976013 71.942299 
L 159.983392 71.942299 
L 160.08149 68.782183 
L 160.120575 68.782183 
L 160.198484 64.568694 
L 160.232459 64.568694 
L 160.341221 59.301833 
L 160.365299 59.301833 
L 160.468454 55.615031 
L 160.4828 55.615031 
L 160.544827 52.9816 
L 160.609008 52.9816 
L 160.677681 48.768112 
L 160.748438 48.768112 
L 160.856378 42.447879 
L 160.884427 42.447879 
L 160.993852 39.814448 
L 161.033263 39.814448 
L 161.137157 36.654332 
L 161.160161 36.654332 
L 161.160161 36.127646 
L 161.279295 36.127646 
L 161.384008 33.494215 
L 161.397621 33.494215 
L 161.397621 32.967529 
L 161.573617 32.967529 
L 161.573617 32.440843 
L 161.721162 32.440843 
L 161.721162 31.914157 
L 161.84317 31.914157 
L 161.935768 30.860785 
L 162.214977 30.860785 
L 162.214977 30.334099 
L 338.688 30.334099 
L 338.688 30.334099 
" style="fill:none;stroke:#ff7500;stroke-linecap:square;stroke-width:1.5;"/>
   </g>
   <g id="line2d_52">
    <defs>
     <path d="M 0 -6 
L -1.347084 -1.854102 
L -5.706339 -1.854102 
L -2.179628 0.708204 
L -3.526712 4.854102 
L -0 2.291796 
L 3.526712 4.854102 
L 2.179628 0.708204 
L 5.706339 -1.854102 
L 1.347084 -1.854102 
z
" id="mb2580f862b" style="stroke:#ff7500;stroke-linejoin:bevel;stroke-width:1.5;"/>
    </defs>
    <g>
     <use style="fill-opacity:0;stroke:#ff7500;stroke-linejoin:bevel;stroke-width:1.5;" x="154.273226" xlink:href="#mb2580f862b" y="225.734635"/>
     <use style="fill-opacity:0;stroke:#ff7500;stroke-linejoin:bevel;stroke-width:1.5;" x="160.945044" xlink:href="#mb2580f862b" y="40.341135"/>
     <use style="fill-opacity:0;stroke:#ff7500;stroke-linejoin:bevel;stroke-width:1.5;" x="162.214977" xlink:href="#mb2580f862b" y="30.334099"/>
     <use style="fill-opacity:0;stroke:#ff7500;stroke-linejoin:bevel;stroke-width:1.5;" x="162.214977" xlink:href="#mb2580f862b" y="30.334099"/>
     <use style="fill-opacity:0;stroke:#ff7500;stroke-linejoin:bevel;stroke-width:1.5;" x="338.688" xlink:href="#mb2580f862b" y="30.334099"/>
    </g>
   </g>
   <g id="line2d_53">
    <path style="fill:none;stroke:#ff7500;stroke-linecap:square;stroke-width:1.5;"/>
    <g/>
   </g>
   <g id="line2d_54">
    <defs>
     <path d="M 0 1.5 
C 0.397805 1.5 0.77937 1.341951 1.06066 1.06066 
C 1.341951 0.77937 1.5 0.397805 1.5 0 
C 1.5 -0.397805 1.341951 -0.77937 1.06066 -1.06066 
C 0.77937 -1.341951 0.397805 -1.5 0 -1.5 
C -0.397805 -1.5 -0.77937 -1.341951 -1.06066 -1.06066 
C -1.341951 -0.77937 -1.5 -0.397805 -1.5 0 
C -1.5 0.397805 -1.341951 0.77937 -1.06066 1.06066 
C -0.77937 1.341951 -0.397805 1.5 0 1.5 
z
" id="m868fab6571" style="stroke:#9acd32;"/>
    </defs>
    <g>
     <use style="fill:#9acd32;stroke:#9acd32;" x="161.283861" xlink:href="#m868fab6571" y="30.334099"/>
     <use style="fill:#9acd32;stroke:#9acd32;" x="161.283861" xlink:href="#m868fab6571" y="30.334099"/>
    </g>
   </g>
   <g id="line2d_55">
    <path d="M 143.099194 298.944 
L 143.099194 298.417314 
L 145.838278 298.417314 
L 145.838278 297.890628 
L 145.970603 297.890628 
L 145.970603 297.363942 
L 147.307662 297.363942 
L 147.348313 296.31057 
L 147.525055 296.31057 
L 147.545141 295.257197 
L 148.000837 295.257197 
L 148.108066 292.623767 
L 148.200145 292.623767 
L 148.200145 292.097081 
L 148.48777 292.097081 
L 148.554206 291.043709 
L 148.742638 291.043709 
L 148.836097 288.410278 
L 149.168459 288.410278 
L 149.209563 287.356906 
L 149.354929 287.356906 
L 149.445171 286.303534 
L 149.467659 286.303534 
L 149.534949 283.670104 
L 149.690956 283.670104 
L 149.708697 282.090045 
L 149.911431 282.090045 
L 150.003205 281.036673 
L 150.033689 281.036673 
L 150.068464 279.456615 
L 150.241302 279.456615 
L 150.322804 277.876557 
L 150.369816 277.876557 
L 150.463462 275.769812 
L 150.552384 275.769812 
L 150.657656 274.189754 
L 150.66605 274.189754 
L 150.66605 273.663068 
L 150.77898 273.663068 
L 150.858013 271.556324 
L 150.982078 271.556324 
L 150.982078 271.029638 
L 151.109358 271.029638 
L 151.174689 268.396207 
L 151.25601 268.396207 
L 151.284383 267.342835 
L 151.381313 267.342835 
L 151.381313 266.816149 
L 151.493721 266.816149 
L 151.549655 265.236091 
L 151.625279 265.236091 
L 151.724287 261.549288 
L 151.744022 261.549288 
L 151.826663 258.915858 
L 151.858043 258.915858 
L 151.963534 256.809114 
L 151.971323 256.809114 
L 152.068392 255.755741 
L 152.087741 255.755741 
L 152.141804 254.175683 
L 152.341156 254.175683 
L 152.451351 252.068939 
L 152.474064 252.068939 
L 152.575905 249.962195 
L 152.632227 249.962195 
L 152.673415 248.382136 
L 152.744329 248.382136 
L 152.8372 245.748706 
L 152.877907 245.748706 
L 152.925894 243.641962 
L 153.025137 243.641962 
L 153.094638 241.535217 
L 153.203816 241.535217 
L 153.312315 238.375101 
L 153.387864 238.375101 
L 153.473807 237.321729 
L 153.513057 237.321729 
L 153.609024 234.688298 
L 153.651507 234.688298 
L 153.760778 232.054868 
L 153.778339 232.054868 
L 153.883332 228.894751 
L 153.900769 228.894751 
L 153.942548 227.841379 
L 154.098334 227.841379 
L 154.163695 224.154577 
L 154.221969 224.154577 
L 154.331136 219.941088 
L 154.351528 219.941088 
L 154.409179 218.887716 
L 154.520548 218.887716 
L 154.624523 215.727599 
L 154.661269 215.727599 
L 154.767728 212.040797 
L 154.78099 212.040797 
L 154.883428 208.353994 
L 154.929494 208.353994 
L 155.004911 205.193878 
L 155.073486 205.193878 
L 155.177466 202.560447 
L 155.193657 202.560447 
L 155.287269 199.400331 
L 155.316219 199.400331 
L 155.418766 196.240214 
L 155.447499 196.240214 
L 155.549279 192.553412 
L 155.622068 192.553412 
L 155.732254 189.919981 
L 155.798033 189.919981 
L 155.885354 187.286551 
L 155.916435 187.286551 
L 155.996986 184.653121 
L 156.027868 184.653121 
L 156.135528 180.966318 
L 156.144725 180.966318 
L 156.153918 179.38626 
L 156.272978 179.38626 
L 156.360987 176.752829 
L 156.394253 176.752829 
L 156.499682 174.646085 
L 156.52369 174.646085 
L 156.628341 170.432596 
L 156.652174 170.432596 
L 156.761976 164.63905 
L 156.815145 164.63905 
L 156.9034 162.005619 
L 156.938578 162.005619 
L 157.040776 157.265444 
L 157.078583 157.265444 
L 157.162628 153.578642 
L 157.194401 153.578642 
L 157.297984 150.418525 
L 157.306589 150.418525 
L 157.409509 146.731723 
L 157.44937 146.731723 
L 157.537312 144.098292 
L 157.56841 144.098292 
L 157.678224 139.358118 
L 157.695058 139.358118 
L 157.798506 134.091257 
L 157.831925 134.091257 
L 157.859725 131.457826 
L 157.962204 131.457826 
L 158.064083 127.244338 
L 158.102478 127.244338 
L 158.20899 124.084221 
L 158.228039 124.084221 
L 158.33379 119.870733 
L 158.355403 119.870733 
L 158.465753 115.130558 
L 158.484524 115.130558 
L 158.583406 109.863697 
L 158.655211 109.863697 
L 158.75841 106.176895 
L 158.766323 106.176895 
L 158.87149 101.43672 
L 158.892448 101.43672 
L 158.983842 97.749917 
L 159.004665 97.749917 
L 159.087709 93.536429 
L 159.157472 93.536429 
L 159.262876 88.269568 
L 159.291047 88.269568 
L 159.400737 83.002707 
L 159.418528 83.002707 
L 159.522371 77.20916 
L 159.565248 77.20916 
L 159.660709 74.57573 
L 159.693248 74.57573 
L 159.78055 69.308869 
L 159.832723 69.308869 
L 159.929202 65.09538 
L 160.015335 65.09538 
L 160.125455 59.301833 
L 160.142522 59.301833 
L 160.239731 54.034973 
L 160.259108 54.034973 
L 160.355672 50.874856 
L 160.382133 50.874856 
L 160.466062 48.241426 
L 160.501909 48.241426 
L 160.597141 44.027937 
L 160.627979 44.027937 
L 160.729597 40.341135 
L 160.769609 40.341135 
L 160.858717 36.127646 
L 160.952025 36.127646 
L 161.051778 32.440843 
L 161.125644 32.440843 
L 161.171652 30.860785 
L 161.283861 30.860785 
L 161.283861 30.334099 
L 338.688 30.334099 
L 338.688 30.334099 
" style="fill:none;stroke:#9acd32;stroke-linecap:square;stroke-width:1.5;"/>
   </g>
   <g id="line2d_56">
    <defs>
     <path d="M 0 -6 
L -6 6 
L 6 6 
z
" id="mbf0ebf9b02" style="stroke:#9acd32;stroke-linejoin:miter;stroke-width:1.5;"/>
    </defs>
    <g>
     <use style="fill-opacity:0;stroke:#9acd32;stroke-linejoin:miter;stroke-width:1.5;" x="157.409509" xlink:href="#mbf0ebf9b02" y="146.731723"/>
     <use style="fill-opacity:0;stroke:#9acd32;stroke-linejoin:miter;stroke-width:1.5;" x="161.283861" xlink:href="#mbf0ebf9b02" y="30.860785"/>
     <use style="fill-opacity:0;stroke:#9acd32;stroke-linejoin:miter;stroke-width:1.5;" x="161.283861" xlink:href="#mbf0ebf9b02" y="30.334099"/>
     <use style="fill-opacity:0;stroke:#9acd32;stroke-linejoin:miter;stroke-width:1.5;" x="161.283861" xlink:href="#mbf0ebf9b02" y="30.334099"/>
     <use style="fill-opacity:0;stroke:#9acd32;stroke-linejoin:miter;stroke-width:1.5;" x="338.688" xlink:href="#mbf0ebf9b02" y="30.334099"/>
    </g>
   </g>
   <g id="line2d_57">
    <path style="fill:none;stroke:#9acd32;stroke-linecap:square;stroke-width:1.5;"/>
    <g/>
   </g>
   <g id="line2d_58">
    <path d="M 338.688 30.334099 
L 369.60768 293.571802 
" style="fill:none;stroke:#ff00ff;stroke-linecap:square;stroke-width:1.5;"/>
    <g>
     <use style="fill-opacity:0;stroke:#ff00ff;stroke-linejoin:miter;stroke-width:1.5;" x="338.688" xlink:href="#mcf51b04060" y="30.334099"/>
     <use style="fill-opacity:0;stroke:#ff00ff;stroke-linejoin:miter;stroke-width:1.5;" x="369.60768" xlink:href="#mcf51b04060" y="293.571802"/>
    </g>
   </g>
   <g id="line2d_59">
    <path d="M 338.688 30.334099 
L 369.60768 207.616634 
" style="fill:none;stroke:#ff0000;stroke-linecap:square;stroke-width:1.5;"/>
    <g>
     <use style="fill-opacity:0;stroke:#ff0000;stroke-linejoin:miter;stroke-width:1.5;" x="338.688" xlink:href="#m21aaf097be" y="30.334099"/>
     <use style="fill-opacity:0;stroke:#ff0000;stroke-linejoin:miter;stroke-width:1.5;" x="369.60768" xlink:href="#m21aaf097be" y="207.616634"/>
    </g>
   </g>
   <g id="line2d_60">
    <path d="M 338.688 30.334099 
L 369.60768 164.63905 
" style="fill:none;stroke:#000080;stroke-linecap:square;stroke-width:1.5;"/>
    <g>
     <use style="fill-opacity:0;stroke:#000080;stroke-width:1.5;" x="338.688" xlink:href="#m646921a871" y="30.334099"/>
     <use style="fill-opacity:0;stroke:#000080;stroke-width:1.5;" x="369.60768" xlink:href="#m646921a871" y="164.63905"/>
    </g>
   </g>
   <g id="line2d_61">
    <path d="M 338.688 30.334099 
L 369.60768 121.661465 
" style="fill:none;stroke:#ff7500;stroke-linecap:square;stroke-width:1.5;"/>
    <g>
     <use style="fill-opacity:0;stroke:#ff7500;stroke-linejoin:bevel;stroke-width:1.5;" x="338.688" xlink:href="#mb2580f862b" y="30.334099"/>
     <use style="fill-opacity:0;stroke:#ff7500;stroke-linejoin:bevel;stroke-width:1.5;" x="369.60768" xlink:href="#mb2580f862b" y="121.661465"/>
    </g>
   </g>
   <g id="line2d_62">
    <path d="M 338.688 30.334099 
L 369.60768 78.683881 
" style="fill:none;stroke:#000080;stroke-linecap:square;stroke-width:1.5;"/>
    <g>
     <use style="fill-opacity:0;stroke:#000080;stroke-width:1.5;" x="338.688" xlink:href="#m646921a871" y="30.334099"/>
     <use style="fill-opacity:0;stroke:#000080;stroke-width:1.5;" x="369.60768" xlink:href="#m646921a871" y="78.683881"/>
    </g>
   </g>
   <g id="line2d_63">
    <path d="M 338.688 30.334099 
L 369.60768 35.706297 
" style="fill:none;stroke:#9acd32;stroke-linecap:square;stroke-width:1.5;"/>
    <g>
     <use style="fill-opacity:0;stroke:#9acd32;stroke-linejoin:miter;stroke-width:1.5;" x="338.688" xlink:href="#mbf0ebf9b02" y="30.334099"/>
     <use style="fill-opacity:0;stroke:#9acd32;stroke-linejoin:miter;stroke-width:1.5;" x="369.60768" xlink:href="#mbf0ebf9b02" y="35.706297"/>
    </g>
   </g>
   <g id="line2d_64">
    <path d="M 338.688 298.944 
L 338.688 30.334099 
" style="fill:none;stroke:#000000;stroke-linecap:square;stroke-width:1.5;"/>
   </g>
   <g id="patch_3">
    <path d="M 57.6 298.944 
L 57.6 27.648 
" style="fill:none;stroke:#000000;stroke-linecap:square;stroke-linejoin:miter;stroke-width:0.8;"/>
   </g>
   <g id="patch_4">
    <path d="M 338.688 298.944 
L 338.688 27.648 
" style="fill:none;stroke:#000000;stroke-linecap:square;stroke-linejoin:miter;stroke-width:0.8;"/>
   </g>
   <g id="patch_5">
    <path d="M 57.6 298.944 
L 338.688 298.944 
" style="fill:none;stroke:#000000;stroke-linecap:square;stroke-linejoin:miter;stroke-width:0.8;"/>
   </g>
   <g id="patch_6">
    <path d="M 57.6 27.648 
L 338.688 27.648 
" style="fill:none;stroke:#000000;stroke-linecap:square;stroke-linejoin:miter;stroke-width:0.8;"/>
   </g>
   <g id="text_13">
    <!-- 400-2e4 -->
    <g transform="translate(375.22944 298.262739)scale(0.17 -0.17)">
     <use xlink:href="#DejaVuSans-52"/>
     <use x="63.623047" xlink:href="#DejaVuSans-48"/>
     <use x="127.246094" xlink:href="#DejaVuSans-48"/>
     <use x="190.869141" xlink:href="#DejaVuSans-45"/>
     <use x="226.953125" xlink:href="#DejaVuSans-50"/>
     <use x="290.576172" xlink:href="#DejaVuSans-101"/>
     <use x="352.099609" xlink:href="#DejaVuSans-52"/>
    </g>
   </g>
   <g id="text_14">
    <!-- best 2009 -->
    <defs>
     <path d="M 48.6875 27.296875 
Q 48.6875 37.203125 44.609375 42.84375 
Q 40.53125 48.484375 33.40625 48.484375 
Q 26.265625 48.484375 22.1875 42.84375 
Q 18.109375 37.203125 18.109375 27.296875 
Q 18.109375 17.390625 22.1875 11.75 
Q 26.265625 6.109375 33.40625 6.109375 
Q 40.53125 6.109375 44.609375 11.75 
Q 48.6875 17.390625 48.6875 27.296875 
z
M 18.109375 46.390625 
Q 20.953125 51.265625 25.265625 53.625 
Q 29.59375 56 35.59375 56 
Q 45.5625 56 51.78125 48.09375 
Q 58.015625 40.1875 58.015625 27.296875 
Q 58.015625 14.40625 51.78125 6.484375 
Q 45.5625 -1.421875 35.59375 -1.421875 
Q 29.59375 -1.421875 25.265625 0.953125 
Q 20.953125 3.328125 18.109375 8.203125 
L 18.109375 0 
L 9.078125 0 
L 9.078125 75.984375 
L 18.109375 75.984375 
z
" id="DejaVuSans-98"/>
     <path d="M 10.984375 1.515625 
L 10.984375 10.5 
Q 14.703125 8.734375 18.5 7.8125 
Q 22.3125 6.890625 25.984375 6.890625 
Q 35.75 6.890625 40.890625 13.453125 
Q 46.046875 20.015625 46.78125 33.40625 
Q 43.953125 29.203125 39.59375 26.953125 
Q 35.25 24.703125 29.984375 24.703125 
Q 19.046875 24.703125 12.671875 31.3125 
Q 6.296875 37.9375 6.296875 49.421875 
Q 6.296875 60.640625 12.9375 67.421875 
Q 19.578125 74.21875 30.609375 74.21875 
Q 43.265625 74.21875 49.921875 64.515625 
Q 56.59375 54.828125 56.59375 36.375 
Q 56.59375 19.140625 48.40625 8.859375 
Q 40.234375 -1.421875 26.421875 -1.421875 
Q 22.703125 -1.421875 18.890625 -0.6875 
Q 15.09375 0.046875 10.984375 1.515625 
z
M 30.609375 32.421875 
Q 37.25 32.421875 41.125 36.953125 
Q 45.015625 41.5 45.015625 49.421875 
Q 45.015625 57.28125 41.125 61.84375 
Q 37.25 66.40625 30.609375 66.40625 
Q 23.96875 66.40625 20.09375 61.84375 
Q 16.21875 57.28125 16.21875 49.421875 
Q 16.21875 41.5 20.09375 36.953125 
Q 23.96875 32.421875 30.609375 32.421875 
z
" id="DejaVuSans-57"/>
    </defs>
    <g transform="translate(375.22944 255.285155)scale(0.17 -0.17)">
     <use xlink:href="#DejaVuSans-98"/>
     <use x="63.476562" xlink:href="#DejaVuSans-101"/>
     <use x="125" xlink:href="#DejaVuSans-115"/>
     <use x="177.099609" xlink:href="#DejaVuSans-116"/>
     <use x="216.308594" xlink:href="#DejaVuSans-32"/>
     <use x="248.095703" xlink:href="#DejaVuSans-50"/>
     <use x="311.71875" xlink:href="#DejaVuSans-48"/>
     <use x="375.341797" xlink:href="#DejaVuSans-48"/>
     <use x="438.964844" xlink:href="#DejaVuSans-57"/>
    </g>
   </g>
   <g id="text_15">
    <!-- 200-2e4 -->
    <g transform="translate(375.22944 212.307571)scale(0.17 -0.17)">
     <use xlink:href="#DejaVuSans-50"/>
     <use x="63.623047" xlink:href="#DejaVuSans-48"/>
     <use x="127.246094" xlink:href="#DejaVuSans-48"/>
     <use x="190.869141" xlink:href="#DejaVuSans-45"/>
     <use x="226.953125" xlink:href="#DejaVuSans-50"/>
     <use x="290.576172" xlink:href="#DejaVuSans-101"/>
     <use x="352.099609" xlink:href="#DejaVuSans-52"/>
    </g>
   </g>
   <g id="text_16">
    <!-- 100-1e5 -->
    <defs>
     <path d="M 10.796875 72.90625 
L 49.515625 72.90625 
L 49.515625 64.59375 
L 19.828125 64.59375 
L 19.828125 46.734375 
Q 21.96875 47.46875 24.109375 47.828125 
Q 26.265625 48.1875 28.421875 48.1875 
Q 40.625 48.1875 47.75 41.5 
Q 54.890625 34.8125 54.890625 23.390625 
Q 54.890625 11.625 47.5625 5.09375 
Q 40.234375 -1.421875 26.90625 -1.421875 
Q 22.3125 -1.421875 17.546875 -0.640625 
Q 12.796875 0.140625 7.71875 1.703125 
L 7.71875 11.625 
Q 12.109375 9.234375 16.796875 8.0625 
Q 21.484375 6.890625 26.703125 6.890625 
Q 35.15625 6.890625 40.078125 11.328125 
Q 45.015625 15.765625 45.015625 23.390625 
Q 45.015625 31 40.078125 35.4375 
Q 35.15625 39.890625 26.703125 39.890625 
Q 22.75 39.890625 18.8125 39.015625 
Q 14.890625 38.140625 10.796875 36.28125 
z
" id="DejaVuSans-53"/>
    </defs>
    <g transform="translate(375.22944 169.329987)scale(0.17 -0.17)">
     <use xlink:href="#DejaVuSans-49"/>
     <use x="63.623047" xlink:href="#DejaVuSans-48"/>
     <use x="127.246094" xlink:href="#DejaVuSans-48"/>
     <use x="190.869141" xlink:href="#DejaVuSans-45"/>
     <use x="226.953125" xlink:href="#DejaVuSans-49"/>
     <use x="290.576172" xlink:href="#DejaVuSans-101"/>
     <use x="352.099609" xlink:href="#DejaVuSans-53"/>
    </g>
   </g>
   <g id="text_17">
    <!-- 140-2e4 -->
    <g transform="translate(375.22944 126.352403)scale(0.17 -0.17)">
     <use xlink:href="#DejaVuSans-49"/>
     <use x="63.623047" xlink:href="#DejaVuSans-52"/>
     <use x="127.246094" xlink:href="#DejaVuSans-48"/>
     <use x="190.869141" xlink:href="#DejaVuSans-45"/>
     <use x="226.953125" xlink:href="#DejaVuSans-50"/>
     <use x="290.576172" xlink:href="#DejaVuSans-101"/>
     <use x="352.099609" xlink:href="#DejaVuSans-52"/>
    </g>
   </g>
   <g id="text_18">
    <!-- 100-2e4 -->
    <g transform="translate(375.22944 83.374819)scale(0.17 -0.17)">
     <use xlink:href="#DejaVuSans-49"/>
     <use x="63.623047" xlink:href="#DejaVuSans-48"/>
     <use x="127.246094" xlink:href="#DejaVuSans-48"/>
     <use x="190.869141" xlink:href="#DejaVuSans-45"/>
     <use x="226.953125" xlink:href="#DejaVuSans-50"/>
     <use x="290.576172" xlink:href="#DejaVuSans-101"/>
     <use x="352.099609" xlink:href="#DejaVuSans-52"/>
    </g>
   </g>
   <g id="text_19">
    <!-- 120-1e5 -->
    <g transform="translate(375.22944 40.397235)scale(0.17 -0.17)">
     <use xlink:href="#DejaVuSans-49"/>
     <use x="63.623047" xlink:href="#DejaVuSans-50"/>
     <use x="127.246094" xlink:href="#DejaVuSans-48"/>
     <use x="190.869141" xlink:href="#DejaVuSans-45"/>
     <use x="226.953125" xlink:href="#DejaVuSans-49"/>
     <use x="290.576172" xlink:href="#DejaVuSans-101"/>
     <use x="352.099609" xlink:href="#DejaVuSans-53"/>
    </g>
   </g>
   <g id="text_20">
    <!-- bbob f11, 20-D -->
    <defs>
     <path d="M 19.671875 64.796875 
L 19.671875 8.109375 
L 31.59375 8.109375 
Q 46.6875 8.109375 53.6875 14.9375 
Q 60.6875 21.78125 60.6875 36.53125 
Q 60.6875 51.171875 53.6875 57.984375 
Q 46.6875 64.796875 31.59375 64.796875 
z
M 9.8125 72.90625 
L 30.078125 72.90625 
Q 51.265625 72.90625 61.171875 64.09375 
Q 71.09375 55.28125 71.09375 36.53125 
Q 71.09375 17.671875 61.125 8.828125 
Q 51.171875 0 30.078125 0 
L 9.8125 0 
z
" id="DejaVuSans-68"/>
    </defs>
    <g transform="translate(60.41088 38.111366)scale(0.102 -0.102)">
     <use xlink:href="#DejaVuSans-98"/>
     <use x="63.476562" xlink:href="#DejaVuSans-98"/>
     <use x="126.953125" xlink:href="#DejaVuSans-111"/>
     <use x="188.134766" xlink:href="#DejaVuSans-98"/>
     <use x="251.611328" xlink:href="#DejaVuSans-32"/>
     <use x="283.398438" xlink:href="#DejaVuSans-102"/>
     <use x="318.603516" xlink:href="#DejaVuSans-49"/>
     <use x="382.226562" xlink:href="#DejaVuSans-49"/>
     <use x="445.849609" xlink:href="#DejaVuSans-44"/>
     <use x="477.636719" xlink:href="#DejaVuSans-32"/>
     <use x="509.423828" xlink:href="#DejaVuSans-50"/>
     <use x="573.046875" xlink:href="#DejaVuSans-48"/>
     <use x="636.669922" xlink:href="#DejaVuSans-45"/>
     <use x="672.753906" xlink:href="#DejaVuSans-68"/>
    </g>
    <!-- 51 targets: 100..1e-08 -->
    <defs>
     <path d="M 11.71875 12.40625 
L 22.015625 12.40625 
L 22.015625 0 
L 11.71875 0 
z
M 11.71875 51.703125 
L 22.015625 51.703125 
L 22.015625 39.3125 
L 11.71875 39.3125 
z
" id="DejaVuSans-58"/>
    </defs>
    <g transform="translate(60.41088 49.533135)scale(0.102 -0.102)">
     <use xlink:href="#DejaVuSans-53"/>
     <use x="63.623047" xlink:href="#DejaVuSans-49"/>
     <use x="127.246094" xlink:href="#DejaVuSans-32"/>
     <use x="159.033203" xlink:href="#DejaVuSans-116"/>
     <use x="198.242188" xlink:href="#DejaVuSans-97"/>
     <use x="259.521484" xlink:href="#DejaVuSans-114"/>
     <use x="300.619141" xlink:href="#DejaVuSans-103"/>
     <use x="364.095703" xlink:href="#DejaVuSans-101"/>
     <use x="425.619141" xlink:href="#DejaVuSans-116"/>
     <use x="464.828125" xlink:href="#DejaVuSans-115"/>
     <use x="516.927734" xlink:href="#DejaVuSans-58"/>
     <use x="550.619141" xlink:href="#DejaVuSans-32"/>
     <use x="582.40625" xlink:href="#DejaVuSans-49"/>
     <use x="646.029297" xlink:href="#DejaVuSans-48"/>
     <use x="709.652344" xlink:href="#DejaVuSans-48"/>
     <use x="773.275391" xlink:href="#DejaVuSans-46"/>
     <use x="805.0625" xlink:href="#DejaVuSans-46"/>
     <use x="836.849609" xlink:href="#DejaVuSans-49"/>
     <use x="900.472656" xlink:href="#DejaVuSans-101"/>
     <use x="961.996094" xlink:href="#DejaVuSans-45"/>
     <use x="998.080078" xlink:href="#DejaVuSans-48"/>
     <use x="1061.703125" xlink:href="#DejaVuSans-56"/>
    </g>
    <!-- 15 instances -->
    <g transform="translate(60.41088 60.954904)scale(0.102 -0.102)">
     <use xlink:href="#DejaVuSans-49"/>
     <use x="63.623047" xlink:href="#DejaVuSans-53"/>
     <use x="127.246094" xlink:href="#DejaVuSans-32"/>
     <use x="159.033203" xlink:href="#DejaVuSans-105"/>
     <use x="186.816406" xlink:href="#DejaVuSans-110"/>
     <use x="250.195312" xlink:href="#DejaVuSans-115"/>
     <use x="302.294922" xlink:href="#DejaVuSans-116"/>
     <use x="341.503906" xlink:href="#DejaVuSans-97"/>
     <use x="402.783203" xlink:href="#DejaVuSans-110"/>
     <use x="466.162109" xlink:href="#DejaVuSans-99"/>
     <use x="521.142578" xlink:href="#DejaVuSans-101"/>
     <use x="582.666016" xlink:href="#DejaVuSans-115"/>
    </g>
   </g>
   <g id="text_21">
    <!-- v2.3.3.18.73 -->
    <defs>
     <path d="M 40.578125 39.3125 
Q 47.65625 37.796875 51.625 33 
Q 55.609375 28.21875 55.609375 21.1875 
Q 55.609375 10.40625 48.1875 4.484375 
Q 40.765625 -1.421875 27.09375 -1.421875 
Q 22.515625 -1.421875 17.65625 -0.515625 
Q 12.796875 0.390625 7.625 2.203125 
L 7.625 11.71875 
Q 11.71875 9.328125 16.59375 8.109375 
Q 21.484375 6.890625 26.8125 6.890625 
Q 36.078125 6.890625 40.9375 10.546875 
Q 45.796875 14.203125 45.796875 21.1875 
Q 45.796875 27.640625 41.28125 31.265625 
Q 36.765625 34.90625 28.71875 34.90625 
L 20.21875 34.90625 
L 20.21875 43.015625 
L 29.109375 43.015625 
Q 36.375 43.015625 40.234375 45.921875 
Q 44.09375 48.828125 44.09375 54.296875 
Q 44.09375 59.90625 40.109375 62.90625 
Q 36.140625 65.921875 28.71875 65.921875 
Q 24.65625 65.921875 20.015625 65.03125 
Q 15.375 64.15625 9.8125 62.3125 
L 9.8125 71.09375 
Q 15.4375 72.65625 20.34375 73.4375 
Q 25.25 74.21875 29.59375 74.21875 
Q 40.828125 74.21875 47.359375 69.109375 
Q 53.90625 64.015625 53.90625 55.328125 
Q 53.90625 49.265625 50.4375 45.09375 
Q 46.96875 40.921875 40.578125 39.3125 
z
" id="DejaVuSans-51"/>
     <path d="M 8.203125 72.90625 
L 55.078125 72.90625 
L 55.078125 68.703125 
L 28.609375 0 
L 18.3125 0 
L 43.21875 64.59375 
L 8.203125 64.59375 
z
" id="DejaVuSans-55"/>
    </defs>
    <g style="fill:#808080;" transform="translate(166.559625 294.151352)scale(0.1 -0.1)">
     <use xlink:href="#DejaVuSans-118"/>
     <use x="59.179688" xlink:href="#DejaVuSans-50"/>
     <use x="122.802734" xlink:href="#DejaVuSans-46"/>
     <use x="154.589844" xlink:href="#DejaVuSans-51"/>
     <use x="218.212891" xlink:href="#DejaVuSans-46"/>
     <use x="250" xlink:href="#DejaVuSans-51"/>
     <use x="313.623047" xlink:href="#DejaVuSans-46"/>
     <use x="345.410156" xlink:href="#DejaVuSans-49"/>
     <use x="409.033203" xlink:href="#DejaVuSans-56"/>
     <use x="472.65625" xlink:href="#DejaVuSans-46"/>
     <use x="504.443359" xlink:href="#DejaVuSans-55"/>
     <use x="568.066406" xlink:href="#DejaVuSans-51"/>
    </g>
   </g>
   <g id="text_22">
    <!-- 11 Discus -->
    <g transform="translate(149.508062 21.648)scale(0.2 -0.2)">
     <use xlink:href="#DejaVuSans-49"/>
     <use x="63.623047" xlink:href="#DejaVuSans-49"/>
     <use x="127.246094" xlink:href="#DejaVuSans-32"/>
     <use x="159.033203" xlink:href="#DejaVuSans-68"/>
     <use x="236.035156" xlink:href="#DejaVuSans-105"/>
     <use x="263.818359" xlink:href="#DejaVuSans-115"/>
     <use x="315.917969" xlink:href="#DejaVuSans-99"/>
     <use x="370.898438" xlink:href="#DejaVuSans-117"/>
     <use x="434.277344" xlink:href="#DejaVuSans-115"/>
    </g>
   </g>
  </g>
 </g>
 <defs>
  <clipPath id="pc1a8b8e0c6">
   <rect height="271.296" width="281.088" x="57.6" y="27.648"/>
  </clipPath>
 </defs>
</svg>
