<?xml version="1.0" encoding="utf-8" standalone="no"?>
<!DOCTYPE svg PUBLIC "-//W3C//DTD SVG 1.1//EN"
  "http://www.w3.org/Graphics/SVG/1.1/DTD/svg11.dtd">
<!-- Created with matplotlib (https://matplotlib.org/) -->
<svg height="345.6pt" version="1.1" viewBox="0 0 460.8 345.6" width="460.8pt" xmlns="http://www.w3.org/2000/svg" xmlns:xlink="http://www.w3.org/1999/xlink">
 <defs>
  <style type="text/css">
*{stroke-linecap:butt;stroke-linejoin:round;}
  </style>
 </defs>
 <g id="figure_1">
  <g id="patch_1">
   <path d="M 0 345.6 
L 460.8 345.6 
L 460.8 0 
L 0 0 
z
" style="fill:#ffffff;"/>
  </g>
  <g id="axes_1">
   <g id="patch_2">
    <path d="M 57.6 298.944 
L 338.688 298.944 
L 338.688 27.648 
L 57.6 27.648 
z
" style="fill:#ffffff;"/>
   </g>
   <g id="line2d_1">
    <path d="M 109.690152 298.944 
L 109.690152 293.677139 
L 109.71213 293.677139 
L 109.71213 283.143418 
L 109.73408 283.143418 
L 109.73408 277.876557 
L 109.756002 277.876557 
L 109.756002 262.075974 
L 109.777897 262.075974 
L 109.777897 241.008531 
L 109.799764 241.008531 
L 109.799764 225.207949 
L 109.821604 225.207949 
L 109.821604 183.073062 
L 109.843417 183.073062 
L 109.843417 156.738758 
L 109.865203 156.738758 
L 109.865203 119.870733 
L 109.886961 119.870733 
L 109.886961 77.735846 
L 109.908692 77.735846 
L 109.908692 61.935264 
L 109.930396 61.935264 
L 109.930396 56.668403 
L 110.081574 56.668403 
L 110.081574 51.401542 
L 110.464402 51.401542 
L 110.464402 46.134681 
L 112.242812 46.134681 
L 112.242812 40.867821 
L 114.368483 40.867821 
L 114.368483 35.60096 
L 116.739166 35.60096 
L 116.739166 30.334099 
L 338.688 30.334099 
" style="fill:none;stroke:#f5deb3;stroke-linecap:square;stroke-width:4;"/>
   </g>
   <g id="line2d_2">
    <defs>
     <path d="M -0 7.778175 
L 7.778175 0 
L 0 -7.778175 
L -7.778175 -0 
z
" id="m7f8c0c9a62" style="stroke:#f5deb3;stroke-linejoin:miter;stroke-width:1.5;"/>
    </defs>
    <g>
     <use style="fill:#f5deb3;stroke:#f5deb3;stroke-linejoin:miter;stroke-width:1.5;" x="109.799764" xlink:href="#m7f8c0c9a62" y="225.207949"/>
     <use style="fill:#f5deb3;stroke:#f5deb3;stroke-linejoin:miter;stroke-width:1.5;" x="109.886961" xlink:href="#m7f8c0c9a62" y="119.870733"/>
     <use style="fill:#f5deb3;stroke:#f5deb3;stroke-linejoin:miter;stroke-width:1.5;" x="116.739166" xlink:href="#m7f8c0c9a62" y="35.60096"/>
     <use style="fill:#f5deb3;stroke:#f5deb3;stroke-linejoin:miter;stroke-width:1.5;" x="116.739166" xlink:href="#m7f8c0c9a62" y="30.334099"/>
     <use style="fill:#f5deb3;stroke:#f5deb3;stroke-linejoin:miter;stroke-width:1.5;" x="338.688" xlink:href="#m7f8c0c9a62" y="30.334099"/>
    </g>
   </g>
   <g id="line2d_3">
    <path style="fill:none;stroke:#f5deb3;stroke-linecap:square;stroke-width:4;"/>
    <g/>
   </g>
   <g id="line2d_4">
    <path d="M 338.688 30.334099 
L 369.60768 35.706297 
" style="fill:none;stroke:#f5deb3;stroke-linecap:square;stroke-width:4;"/>
    <g>
     <use style="fill:#f5deb3;stroke:#f5deb3;stroke-linejoin:miter;stroke-width:1.5;" x="338.688" xlink:href="#m7f8c0c9a62" y="30.334099"/>
     <use style="fill:#f5deb3;stroke:#f5deb3;stroke-linejoin:miter;stroke-width:1.5;" x="369.60768" xlink:href="#m7f8c0c9a62" y="35.706297"/>
    </g>
   </g>
   <g id="matplotlib.axis_1">
    <g id="xtick_1">
     <g id="line2d_5">
      <path clip-path="url(#pf4683a404e)" d="M 57.6 298.944 
L 57.6 27.648 
" style="fill:none;stroke:#b0b0b0;stroke-linecap:square;stroke-width:0.8;"/>
     </g>
     <g id="line2d_6">
      <defs>
       <path d="M 0 0 
L 0 3.5 
" id="mbaefd26c41" style="stroke:#000000;stroke-width:0.8;"/>
      </defs>
      <g>
       <use style="stroke:#000000;stroke-width:0.8;" x="57.6" xlink:href="#mbaefd26c41" y="298.944"/>
      </g>
     </g>
     <g id="text_1">
      <!-- 0 -->
      <defs>
       <path d="M 31.78125 66.40625 
Q 24.171875 66.40625 20.328125 58.90625 
Q 16.5 51.421875 16.5 36.375 
Q 16.5 21.390625 20.328125 13.890625 
Q 24.171875 6.390625 31.78125 6.390625 
Q 39.453125 6.390625 43.28125 13.890625 
Q 47.125 21.390625 47.125 36.375 
Q 47.125 51.421875 43.28125 58.90625 
Q 39.453125 66.40625 31.78125 66.40625 
z
M 31.78125 74.21875 
Q 44.046875 74.21875 50.515625 64.515625 
Q 56.984375 54.828125 56.984375 36.375 
Q 56.984375 17.96875 50.515625 8.265625 
Q 44.046875 -1.421875 31.78125 -1.421875 
Q 19.53125 -1.421875 13.0625 8.265625 
Q 6.59375 17.96875 6.59375 36.375 
Q 6.59375 54.828125 13.0625 64.515625 
Q 19.53125 74.21875 31.78125 74.21875 
z
" id="DejaVuSans-48"/>
      </defs>
      <g transform="translate(51.2375 321.140875)scale(0.2 -0.2)">
       <use xlink:href="#DejaVuSans-48"/>
      </g>
     </g>
    </g>
    <g id="xtick_2">
     <g id="line2d_7">
      <path clip-path="url(#pf4683a404e)" d="M 137.910857 298.944 
L 137.910857 27.648 
" style="fill:none;stroke:#b0b0b0;stroke-linecap:square;stroke-width:0.8;"/>
     </g>
     <g id="line2d_8">
      <g>
       <use style="stroke:#000000;stroke-width:0.8;" x="137.910857" xlink:href="#mbaefd26c41" y="298.944"/>
      </g>
     </g>
     <g id="text_2">
      <!-- 2 -->
      <defs>
       <path d="M 19.1875 8.296875 
L 53.609375 8.296875 
L 53.609375 0 
L 7.328125 0 
L 7.328125 8.296875 
Q 12.9375 14.109375 22.625 23.890625 
Q 32.328125 33.6875 34.8125 36.53125 
Q 39.546875 41.84375 41.421875 45.53125 
Q 43.3125 49.21875 43.3125 52.78125 
Q 43.3125 58.59375 39.234375 62.25 
Q 35.15625 65.921875 28.609375 65.921875 
Q 23.96875 65.921875 18.8125 64.3125 
Q 13.671875 62.703125 7.8125 59.421875 
L 7.8125 69.390625 
Q 13.765625 71.78125 18.9375 73 
Q 24.125 74.21875 28.421875 74.21875 
Q 39.75 74.21875 46.484375 68.546875 
Q 53.21875 62.890625 53.21875 53.421875 
Q 53.21875 48.921875 51.53125 44.890625 
Q 49.859375 40.875 45.40625 35.40625 
Q 44.1875 33.984375 37.640625 27.21875 
Q 31.109375 20.453125 19.1875 8.296875 
z
" id="DejaVuSans-50"/>
      </defs>
      <g transform="translate(131.548357 321.140875)scale(0.2 -0.2)">
       <use xlink:href="#DejaVuSans-50"/>
      </g>
     </g>
    </g>
    <g id="xtick_3">
     <g id="line2d_9">
      <path clip-path="url(#pf4683a404e)" d="M 218.221714 298.944 
L 218.221714 27.648 
" style="fill:none;stroke:#b0b0b0;stroke-linecap:square;stroke-width:0.8;"/>
     </g>
     <g id="line2d_10">
      <g>
       <use style="stroke:#000000;stroke-width:0.8;" x="218.221714" xlink:href="#mbaefd26c41" y="298.944"/>
      </g>
     </g>
     <g id="text_3">
      <!-- 4 -->
      <defs>
       <path d="M 37.796875 64.3125 
L 12.890625 25.390625 
L 37.796875 25.390625 
z
M 35.203125 72.90625 
L 47.609375 72.90625 
L 47.609375 25.390625 
L 58.015625 25.390625 
L 58.015625 17.1875 
L 47.609375 17.1875 
L 47.609375 0 
L 37.796875 0 
L 37.796875 17.1875 
L 4.890625 17.1875 
L 4.890625 26.703125 
z
" id="DejaVuSans-52"/>
      </defs>
      <g transform="translate(211.859214 321.140875)scale(0.2 -0.2)">
       <use xlink:href="#DejaVuSans-52"/>
      </g>
     </g>
    </g>
    <g id="xtick_4">
     <g id="line2d_11">
      <path clip-path="url(#pf4683a404e)" d="M 298.532571 298.944 
L 298.532571 27.648 
" style="fill:none;stroke:#b0b0b0;stroke-linecap:square;stroke-width:0.8;"/>
     </g>
     <g id="line2d_12">
      <g>
       <use style="stroke:#000000;stroke-width:0.8;" x="298.532571" xlink:href="#mbaefd26c41" y="298.944"/>
      </g>
     </g>
     <g id="text_4">
      <!-- 6 -->
      <defs>
       <path d="M 33.015625 40.375 
Q 26.375 40.375 22.484375 35.828125 
Q 18.609375 31.296875 18.609375 23.390625 
Q 18.609375 15.53125 22.484375 10.953125 
Q 26.375 6.390625 33.015625 6.390625 
Q 39.65625 6.390625 43.53125 10.953125 
Q 47.40625 15.53125 47.40625 23.390625 
Q 47.40625 31.296875 43.53125 35.828125 
Q 39.65625 40.375 33.015625 40.375 
z
M 52.59375 71.296875 
L 52.59375 62.3125 
Q 48.875 64.0625 45.09375 64.984375 
Q 41.3125 65.921875 37.59375 65.921875 
Q 27.828125 65.921875 22.671875 59.328125 
Q 17.53125 52.734375 16.796875 39.40625 
Q 19.671875 43.65625 24.015625 45.921875 
Q 28.375 48.1875 33.59375 48.1875 
Q 44.578125 48.1875 50.953125 41.515625 
Q 57.328125 34.859375 57.328125 23.390625 
Q 57.328125 12.15625 50.6875 5.359375 
Q 44.046875 -1.421875 33.015625 -1.421875 
Q 20.359375 -1.421875 13.671875 8.265625 
Q 6.984375 17.96875 6.984375 36.375 
Q 6.984375 53.65625 15.1875 63.9375 
Q 23.390625 74.21875 37.203125 74.21875 
Q 40.921875 74.21875 44.703125 73.484375 
Q 48.484375 72.75 52.59375 71.296875 
z
" id="DejaVuSans-54"/>
      </defs>
      <g transform="translate(292.170071 321.140875)scale(0.2 -0.2)">
       <use xlink:href="#DejaVuSans-54"/>
      </g>
     </g>
    </g>
    <g id="xtick_5">
     <g id="line2d_13">
      <path clip-path="url(#pf4683a404e)" d="M 97.755429 298.944 
L 97.755429 27.648 
" style="fill:none;stroke:#b0b0b0;stroke-linecap:square;stroke-width:0.8;"/>
     </g>
     <g id="line2d_14">
      <defs>
       <path d="M 0 0 
L 0 2 
" id="ma417c17189" style="stroke:#000000;stroke-width:0.6;"/>
      </defs>
      <g>
       <use style="stroke:#000000;stroke-width:0.6;" x="97.755429" xlink:href="#ma417c17189" y="298.944"/>
      </g>
     </g>
    </g>
    <g id="xtick_6">
     <g id="line2d_15">
      <path clip-path="url(#pf4683a404e)" d="M 178.066286 298.944 
L 178.066286 27.648 
" style="fill:none;stroke:#b0b0b0;stroke-linecap:square;stroke-width:0.8;"/>
     </g>
     <g id="line2d_16">
      <g>
       <use style="stroke:#000000;stroke-width:0.6;" x="178.066286" xlink:href="#ma417c17189" y="298.944"/>
      </g>
     </g>
    </g>
    <g id="xtick_7">
     <g id="line2d_17">
      <path clip-path="url(#pf4683a404e)" d="M 258.377143 298.944 
L 258.377143 27.648 
" style="fill:none;stroke:#b0b0b0;stroke-linecap:square;stroke-width:0.8;"/>
     </g>
     <g id="line2d_18">
      <g>
       <use style="stroke:#000000;stroke-width:0.6;" x="258.377143" xlink:href="#ma417c17189" y="298.944"/>
      </g>
     </g>
    </g>
    <g id="xtick_8">
     <g id="line2d_19">
      <path clip-path="url(#pf4683a404e)" d="M 338.688 298.944 
L 338.688 27.648 
" style="fill:none;stroke:#b0b0b0;stroke-linecap:square;stroke-width:0.8;"/>
     </g>
     <g id="line2d_20">
      <g>
       <use style="stroke:#000000;stroke-width:0.6;" x="338.688" xlink:href="#ma417c17189" y="298.944"/>
      </g>
     </g>
    </g>
    <g id="text_5">
     <!-- log10(# f-evals / dimension) -->
     <defs>
      <path d="M 9.421875 75.984375 
L 18.40625 75.984375 
L 18.40625 0 
L 9.421875 0 
z
" id="DejaVuSans-108"/>
      <path d="M 30.609375 48.390625 
Q 23.390625 48.390625 19.1875 42.75 
Q 14.984375 37.109375 14.984375 27.296875 
Q 14.984375 17.484375 19.15625 11.84375 
Q 23.34375 6.203125 30.609375 6.203125 
Q 37.796875 6.203125 41.984375 11.859375 
Q 46.1875 17.53125 46.1875 27.296875 
Q 46.1875 37.015625 41.984375 42.703125 
Q 37.796875 48.390625 30.609375 48.390625 
z
M 30.609375 56 
Q 42.328125 56 49.015625 48.375 
Q 55.71875 40.765625 55.71875 27.296875 
Q 55.71875 13.875 49.015625 6.21875 
Q 42.328125 -1.421875 30.609375 -1.421875 
Q 18.84375 -1.421875 12.171875 6.21875 
Q 5.515625 13.875 5.515625 27.296875 
Q 5.515625 40.765625 12.171875 48.375 
Q 18.84375 56 30.609375 56 
z
" id="DejaVuSans-111"/>
      <path d="M 45.40625 27.984375 
Q 45.40625 37.75 41.375 43.109375 
Q 37.359375 48.484375 30.078125 48.484375 
Q 22.859375 48.484375 18.828125 43.109375 
Q 14.796875 37.75 14.796875 27.984375 
Q 14.796875 18.265625 18.828125 12.890625 
Q 22.859375 7.515625 30.078125 7.515625 
Q 37.359375 7.515625 41.375 12.890625 
Q 45.40625 18.265625 45.40625 27.984375 
z
M 54.390625 6.78125 
Q 54.390625 -7.171875 48.1875 -13.984375 
Q 42 -20.796875 29.203125 -20.796875 
Q 24.46875 -20.796875 20.265625 -20.09375 
Q 16.0625 -19.390625 12.109375 -17.921875 
L 12.109375 -9.1875 
Q 16.0625 -11.328125 19.921875 -12.34375 
Q 23.78125 -13.375 27.78125 -13.375 
Q 36.625 -13.375 41.015625 -8.765625 
Q 45.40625 -4.15625 45.40625 5.171875 
L 45.40625 9.625 
Q 42.625 4.78125 38.28125 2.390625 
Q 33.9375 0 27.875 0 
Q 17.828125 0 11.671875 7.65625 
Q 5.515625 15.328125 5.515625 27.984375 
Q 5.515625 40.671875 11.671875 48.328125 
Q 17.828125 56 27.875 56 
Q 33.9375 56 38.28125 53.609375 
Q 42.625 51.21875 45.40625 46.390625 
L 45.40625 54.6875 
L 54.390625 54.6875 
z
" id="DejaVuSans-103"/>
      <path d="M 12.40625 8.296875 
L 28.515625 8.296875 
L 28.515625 63.921875 
L 10.984375 60.40625 
L 10.984375 69.390625 
L 28.421875 72.90625 
L 38.28125 72.90625 
L 38.28125 8.296875 
L 54.390625 8.296875 
L 54.390625 0 
L 12.40625 0 
z
" id="DejaVuSans-49"/>
      <path d="M 31 75.875 
Q 24.46875 64.65625 21.28125 53.65625 
Q 18.109375 42.671875 18.109375 31.390625 
Q 18.109375 20.125 21.3125 9.0625 
Q 24.515625 -2 31 -13.1875 
L 23.1875 -13.1875 
Q 15.875 -1.703125 12.234375 9.375 
Q 8.59375 20.453125 8.59375 31.390625 
Q 8.59375 42.28125 12.203125 53.3125 
Q 15.828125 64.359375 23.1875 75.875 
z
" id="DejaVuSans-40"/>
      <path d="M 51.125 44 
L 36.921875 44 
L 32.8125 27.6875 
L 47.125 27.6875 
z
M 43.796875 71.78125 
L 38.71875 51.515625 
L 52.984375 51.515625 
L 58.109375 71.78125 
L 65.921875 71.78125 
L 60.890625 51.515625 
L 76.125 51.515625 
L 76.125 44 
L 58.984375 44 
L 54.984375 27.6875 
L 70.515625 27.6875 
L 70.515625 20.21875 
L 53.078125 20.21875 
L 48 0 
L 40.1875 0 
L 45.21875 20.21875 
L 30.90625 20.21875 
L 25.875 0 
L 18.015625 0 
L 23.09375 20.21875 
L 7.71875 20.21875 
L 7.71875 27.6875 
L 24.90625 27.6875 
L 29 44 
L 13.28125 44 
L 13.28125 51.515625 
L 30.90625 51.515625 
L 35.890625 71.78125 
z
" id="DejaVuSans-35"/>
      <path id="DejaVuSans-32"/>
      <path d="M 37.109375 75.984375 
L 37.109375 68.5 
L 28.515625 68.5 
Q 23.6875 68.5 21.796875 66.546875 
Q 19.921875 64.59375 19.921875 59.515625 
L 19.921875 54.6875 
L 34.71875 54.6875 
L 34.71875 47.703125 
L 19.921875 47.703125 
L 19.921875 0 
L 10.890625 0 
L 10.890625 47.703125 
L 2.296875 47.703125 
L 2.296875 54.6875 
L 10.890625 54.6875 
L 10.890625 58.5 
Q 10.890625 67.625 15.140625 71.796875 
Q 19.390625 75.984375 28.609375 75.984375 
z
" id="DejaVuSans-102"/>
      <path d="M 4.890625 31.390625 
L 31.203125 31.390625 
L 31.203125 23.390625 
L 4.890625 23.390625 
z
" id="DejaVuSans-45"/>
      <path d="M 56.203125 29.59375 
L 56.203125 25.203125 
L 14.890625 25.203125 
Q 15.484375 15.921875 20.484375 11.0625 
Q 25.484375 6.203125 34.421875 6.203125 
Q 39.59375 6.203125 44.453125 7.46875 
Q 49.3125 8.734375 54.109375 11.28125 
L 54.109375 2.78125 
Q 49.265625 0.734375 44.1875 -0.34375 
Q 39.109375 -1.421875 33.890625 -1.421875 
Q 20.796875 -1.421875 13.15625 6.1875 
Q 5.515625 13.8125 5.515625 26.8125 
Q 5.515625 40.234375 12.765625 48.109375 
Q 20.015625 56 32.328125 56 
Q 43.359375 56 49.78125 48.890625 
Q 56.203125 41.796875 56.203125 29.59375 
z
M 47.21875 32.234375 
Q 47.125 39.59375 43.09375 43.984375 
Q 39.0625 48.390625 32.421875 48.390625 
Q 24.90625 48.390625 20.390625 44.140625 
Q 15.875 39.890625 15.1875 32.171875 
z
" id="DejaVuSans-101"/>
      <path d="M 2.984375 54.6875 
L 12.5 54.6875 
L 29.59375 8.796875 
L 46.6875 54.6875 
L 56.203125 54.6875 
L 35.6875 0 
L 23.484375 0 
z
" id="DejaVuSans-118"/>
      <path d="M 34.28125 27.484375 
Q 23.390625 27.484375 19.1875 25 
Q 14.984375 22.515625 14.984375 16.5 
Q 14.984375 11.71875 18.140625 8.90625 
Q 21.296875 6.109375 26.703125 6.109375 
Q 34.1875 6.109375 38.703125 11.40625 
Q 43.21875 16.703125 43.21875 25.484375 
L 43.21875 27.484375 
z
M 52.203125 31.203125 
L 52.203125 0 
L 43.21875 0 
L 43.21875 8.296875 
Q 40.140625 3.328125 35.546875 0.953125 
Q 30.953125 -1.421875 24.3125 -1.421875 
Q 15.921875 -1.421875 10.953125 3.296875 
Q 6 8.015625 6 15.921875 
Q 6 25.140625 12.171875 29.828125 
Q 18.359375 34.515625 30.609375 34.515625 
L 43.21875 34.515625 
L 43.21875 35.40625 
Q 43.21875 41.609375 39.140625 45 
Q 35.0625 48.390625 27.6875 48.390625 
Q 23 48.390625 18.546875 47.265625 
Q 14.109375 46.140625 10.015625 43.890625 
L 10.015625 52.203125 
Q 14.9375 54.109375 19.578125 55.046875 
Q 24.21875 56 28.609375 56 
Q 40.484375 56 46.34375 49.84375 
Q 52.203125 43.703125 52.203125 31.203125 
z
" id="DejaVuSans-97"/>
      <path d="M 44.28125 53.078125 
L 44.28125 44.578125 
Q 40.484375 46.53125 36.375 47.5 
Q 32.28125 48.484375 27.875 48.484375 
Q 21.1875 48.484375 17.84375 46.4375 
Q 14.5 44.390625 14.5 40.28125 
Q 14.5 37.15625 16.890625 35.375 
Q 19.28125 33.59375 26.515625 31.984375 
L 29.59375 31.296875 
Q 39.15625 29.25 43.1875 25.515625 
Q 47.21875 21.78125 47.21875 15.09375 
Q 47.21875 7.46875 41.1875 3.015625 
Q 35.15625 -1.421875 24.609375 -1.421875 
Q 20.21875 -1.421875 15.453125 -0.5625 
Q 10.6875 0.296875 5.421875 2 
L 5.421875 11.28125 
Q 10.40625 8.6875 15.234375 7.390625 
Q 20.0625 6.109375 24.8125 6.109375 
Q 31.15625 6.109375 34.5625 8.28125 
Q 37.984375 10.453125 37.984375 14.40625 
Q 37.984375 18.0625 35.515625 20.015625 
Q 33.0625 21.96875 24.703125 23.78125 
L 21.578125 24.515625 
Q 13.234375 26.265625 9.515625 29.90625 
Q 5.8125 33.546875 5.8125 39.890625 
Q 5.8125 47.609375 11.28125 51.796875 
Q 16.75 56 26.8125 56 
Q 31.78125 56 36.171875 55.265625 
Q 40.578125 54.546875 44.28125 53.078125 
z
" id="DejaVuSans-115"/>
      <path d="M 25.390625 72.90625 
L 33.6875 72.90625 
L 8.296875 -9.28125 
L 0 -9.28125 
z
" id="DejaVuSans-47"/>
      <path d="M 45.40625 46.390625 
L 45.40625 75.984375 
L 54.390625 75.984375 
L 54.390625 0 
L 45.40625 0 
L 45.40625 8.203125 
Q 42.578125 3.328125 38.25 0.953125 
Q 33.9375 -1.421875 27.875 -1.421875 
Q 17.96875 -1.421875 11.734375 6.484375 
Q 5.515625 14.40625 5.515625 27.296875 
Q 5.515625 40.1875 11.734375 48.09375 
Q 17.96875 56 27.875 56 
Q 33.9375 56 38.25 53.625 
Q 42.578125 51.265625 45.40625 46.390625 
z
M 14.796875 27.296875 
Q 14.796875 17.390625 18.875 11.75 
Q 22.953125 6.109375 30.078125 6.109375 
Q 37.203125 6.109375 41.296875 11.75 
Q 45.40625 17.390625 45.40625 27.296875 
Q 45.40625 37.203125 41.296875 42.84375 
Q 37.203125 48.484375 30.078125 48.484375 
Q 22.953125 48.484375 18.875 42.84375 
Q 14.796875 37.203125 14.796875 27.296875 
z
" id="DejaVuSans-100"/>
      <path d="M 9.421875 54.6875 
L 18.40625 54.6875 
L 18.40625 0 
L 9.421875 0 
z
M 9.421875 75.984375 
L 18.40625 75.984375 
L 18.40625 64.59375 
L 9.421875 64.59375 
z
" id="DejaVuSans-105"/>
      <path d="M 52 44.1875 
Q 55.375 50.25 60.0625 53.125 
Q 64.75 56 71.09375 56 
Q 79.640625 56 84.28125 50.015625 
Q 88.921875 44.046875 88.921875 33.015625 
L 88.921875 0 
L 79.890625 0 
L 79.890625 32.71875 
Q 79.890625 40.578125 77.09375 44.375 
Q 74.3125 48.1875 68.609375 48.1875 
Q 61.625 48.1875 57.5625 43.546875 
Q 53.515625 38.921875 53.515625 30.90625 
L 53.515625 0 
L 44.484375 0 
L 44.484375 32.71875 
Q 44.484375 40.625 41.703125 44.40625 
Q 38.921875 48.1875 33.109375 48.1875 
Q 26.21875 48.1875 22.15625 43.53125 
Q 18.109375 38.875 18.109375 30.90625 
L 18.109375 0 
L 9.078125 0 
L 9.078125 54.6875 
L 18.109375 54.6875 
L 18.109375 46.1875 
Q 21.1875 51.21875 25.484375 53.609375 
Q 29.78125 56 35.6875 56 
Q 41.65625 56 45.828125 52.96875 
Q 50 49.953125 52 44.1875 
z
" id="DejaVuSans-109"/>
      <path d="M 54.890625 33.015625 
L 54.890625 0 
L 45.90625 0 
L 45.90625 32.71875 
Q 45.90625 40.484375 42.875 44.328125 
Q 39.84375 48.1875 33.796875 48.1875 
Q 26.515625 48.1875 22.3125 43.546875 
Q 18.109375 38.921875 18.109375 30.90625 
L 18.109375 0 
L 9.078125 0 
L 9.078125 54.6875 
L 18.109375 54.6875 
L 18.109375 46.1875 
Q 21.34375 51.125 25.703125 53.5625 
Q 30.078125 56 35.796875 56 
Q 45.21875 56 50.046875 50.171875 
Q 54.890625 44.34375 54.890625 33.015625 
z
" id="DejaVuSans-110"/>
      <path d="M 8.015625 75.875 
L 15.828125 75.875 
Q 23.140625 64.359375 26.78125 53.3125 
Q 30.421875 42.28125 30.421875 31.390625 
Q 30.421875 20.453125 26.78125 9.375 
Q 23.140625 -1.703125 15.828125 -13.1875 
L 8.015625 -13.1875 
Q 14.5 -2 17.703125 9.0625 
Q 20.90625 20.125 20.90625 31.390625 
Q 20.90625 42.671875 17.703125 53.65625 
Q 14.5 64.65625 8.015625 75.875 
z
" id="DejaVuSans-41"/>
     </defs>
     <g transform="translate(77.303219 342.217594)scale(0.17 -0.17)">
      <use xlink:href="#DejaVuSans-108"/>
      <use x="27.783203" xlink:href="#DejaVuSans-111"/>
      <use x="88.964844" xlink:href="#DejaVuSans-103"/>
      <use x="152.441406" xlink:href="#DejaVuSans-49"/>
      <use x="216.064453" xlink:href="#DejaVuSans-48"/>
      <use x="279.6875" xlink:href="#DejaVuSans-40"/>
      <use x="318.701172" xlink:href="#DejaVuSans-35"/>
      <use x="402.490234" xlink:href="#DejaVuSans-32"/>
      <use x="434.277344" xlink:href="#DejaVuSans-102"/>
      <use x="469.404297" xlink:href="#DejaVuSans-45"/>
      <use x="505.488281" xlink:href="#DejaVuSans-101"/>
      <use x="567.011719" xlink:href="#DejaVuSans-118"/>
      <use x="626.191406" xlink:href="#DejaVuSans-97"/>
      <use x="687.470703" xlink:href="#DejaVuSans-108"/>
      <use x="715.253906" xlink:href="#DejaVuSans-115"/>
      <use x="767.353516" xlink:href="#DejaVuSans-32"/>
      <use x="799.140625" xlink:href="#DejaVuSans-47"/>
      <use x="832.832031" xlink:href="#DejaVuSans-32"/>
      <use x="864.619141" xlink:href="#DejaVuSans-100"/>
      <use x="928.095703" xlink:href="#DejaVuSans-105"/>
      <use x="955.878906" xlink:href="#DejaVuSans-109"/>
      <use x="1053.291016" xlink:href="#DejaVuSans-101"/>
      <use x="1114.814453" xlink:href="#DejaVuSans-110"/>
      <use x="1178.193359" xlink:href="#DejaVuSans-115"/>
      <use x="1230.292969" xlink:href="#DejaVuSans-105"/>
      <use x="1258.076172" xlink:href="#DejaVuSans-111"/>
      <use x="1319.257812" xlink:href="#DejaVuSans-110"/>
      <use x="1382.636719" xlink:href="#DejaVuSans-41"/>
     </g>
    </g>
   </g>
   <g id="matplotlib.axis_2">
    <g id="ytick_1">
     <g id="line2d_21">
      <path clip-path="url(#pf4683a404e)" d="M 57.6 298.944 
L 338.688 298.944 
" style="fill:none;stroke:#b0b0b0;stroke-linecap:square;stroke-width:0.8;"/>
     </g>
     <g id="line2d_22">
      <defs>
       <path d="M 0 0 
L -3.5 0 
" id="m720d6461ff" style="stroke:#000000;stroke-width:0.8;"/>
      </defs>
      <g>
       <use style="stroke:#000000;stroke-width:0.8;" x="57.6" xlink:href="#m720d6461ff" y="298.944"/>
      </g>
     </g>
     <g id="text_6">
      <!-- 0.0 -->
      <defs>
       <path d="M 10.6875 12.40625 
L 21 12.40625 
L 21 0 
L 10.6875 0 
z
" id="DejaVuSans-46"/>
      </defs>
      <g transform="translate(25.155 305.02275)scale(0.16 -0.16)">
       <use xlink:href="#DejaVuSans-48"/>
       <use x="63.623047" xlink:href="#DejaVuSans-46"/>
       <use x="95.410156" xlink:href="#DejaVuSans-48"/>
      </g>
     </g>
    </g>
    <g id="ytick_2">
     <g id="line2d_23">
      <path clip-path="url(#pf4683a404e)" d="M 57.6 245.22202 
L 338.688 245.22202 
" style="fill:none;stroke:#b0b0b0;stroke-linecap:square;stroke-width:0.8;"/>
     </g>
     <g id="line2d_24">
      <g>
       <use style="stroke:#000000;stroke-width:0.8;" x="57.6" xlink:href="#m720d6461ff" y="245.22202"/>
      </g>
     </g>
     <g id="text_7">
      <!-- 0.2 -->
      <g transform="translate(25.155 251.30077)scale(0.16 -0.16)">
       <use xlink:href="#DejaVuSans-48"/>
       <use x="63.623047" xlink:href="#DejaVuSans-46"/>
       <use x="95.410156" xlink:href="#DejaVuSans-50"/>
      </g>
     </g>
    </g>
    <g id="ytick_3">
     <g id="line2d_25">
      <path clip-path="url(#pf4683a404e)" d="M 57.6 191.50004 
L 338.688 191.50004 
" style="fill:none;stroke:#b0b0b0;stroke-linecap:square;stroke-width:0.8;"/>
     </g>
     <g id="line2d_26">
      <g>
       <use style="stroke:#000000;stroke-width:0.8;" x="57.6" xlink:href="#m720d6461ff" y="191.50004"/>
      </g>
     </g>
     <g id="text_8">
      <!-- 0.4 -->
      <g transform="translate(25.155 197.57879)scale(0.16 -0.16)">
       <use xlink:href="#DejaVuSans-48"/>
       <use x="63.623047" xlink:href="#DejaVuSans-46"/>
       <use x="95.410156" xlink:href="#DejaVuSans-52"/>
      </g>
     </g>
    </g>
    <g id="ytick_4">
     <g id="line2d_27">
      <path clip-path="url(#pf4683a404e)" d="M 57.6 137.778059 
L 338.688 137.778059 
" style="fill:none;stroke:#b0b0b0;stroke-linecap:square;stroke-width:0.8;"/>
     </g>
     <g id="line2d_28">
      <g>
       <use style="stroke:#000000;stroke-width:0.8;" x="57.6" xlink:href="#m720d6461ff" y="137.778059"/>
      </g>
     </g>
     <g id="text_9">
      <!-- 0.6 -->
      <g transform="translate(25.155 143.856809)scale(0.16 -0.16)">
       <use xlink:href="#DejaVuSans-48"/>
       <use x="63.623047" xlink:href="#DejaVuSans-46"/>
       <use x="95.410156" xlink:href="#DejaVuSans-54"/>
      </g>
     </g>
    </g>
    <g id="ytick_5">
     <g id="line2d_29">
      <path clip-path="url(#pf4683a404e)" d="M 57.6 84.056079 
L 338.688 84.056079 
" style="fill:none;stroke:#b0b0b0;stroke-linecap:square;stroke-width:0.8;"/>
     </g>
     <g id="line2d_30">
      <g>
       <use style="stroke:#000000;stroke-width:0.8;" x="57.6" xlink:href="#m720d6461ff" y="84.056079"/>
      </g>
     </g>
     <g id="text_10">
      <!-- 0.8 -->
      <defs>
       <path d="M 31.78125 34.625 
Q 24.75 34.625 20.71875 30.859375 
Q 16.703125 27.09375 16.703125 20.515625 
Q 16.703125 13.921875 20.71875 10.15625 
Q 24.75 6.390625 31.78125 6.390625 
Q 38.8125 6.390625 42.859375 10.171875 
Q 46.921875 13.96875 46.921875 20.515625 
Q 46.921875 27.09375 42.890625 30.859375 
Q 38.875 34.625 31.78125 34.625 
z
M 21.921875 38.8125 
Q 15.578125 40.375 12.03125 44.71875 
Q 8.5 49.078125 8.5 55.328125 
Q 8.5 64.0625 14.71875 69.140625 
Q 20.953125 74.21875 31.78125 74.21875 
Q 42.671875 74.21875 48.875 69.140625 
Q 55.078125 64.0625 55.078125 55.328125 
Q 55.078125 49.078125 51.53125 44.71875 
Q 48 40.375 41.703125 38.8125 
Q 48.828125 37.15625 52.796875 32.3125 
Q 56.78125 27.484375 56.78125 20.515625 
Q 56.78125 9.90625 50.3125 4.234375 
Q 43.84375 -1.421875 31.78125 -1.421875 
Q 19.734375 -1.421875 13.25 4.234375 
Q 6.78125 9.90625 6.78125 20.515625 
Q 6.78125 27.484375 10.78125 32.3125 
Q 14.796875 37.15625 21.921875 38.8125 
z
M 18.3125 54.390625 
Q 18.3125 48.734375 21.84375 45.5625 
Q 25.390625 42.390625 31.78125 42.390625 
Q 38.140625 42.390625 41.71875 45.5625 
Q 45.3125 48.734375 45.3125 54.390625 
Q 45.3125 60.0625 41.71875 63.234375 
Q 38.140625 66.40625 31.78125 66.40625 
Q 25.390625 66.40625 21.84375 63.234375 
Q 18.3125 60.0625 18.3125 54.390625 
z
" id="DejaVuSans-56"/>
      </defs>
      <g transform="translate(25.155 90.134829)scale(0.16 -0.16)">
       <use xlink:href="#DejaVuSans-48"/>
       <use x="63.623047" xlink:href="#DejaVuSans-46"/>
       <use x="95.410156" xlink:href="#DejaVuSans-56"/>
      </g>
     </g>
    </g>
    <g id="ytick_6">
     <g id="line2d_31">
      <path clip-path="url(#pf4683a404e)" d="M 57.6 30.334099 
L 338.688 30.334099 
" style="fill:none;stroke:#b0b0b0;stroke-linecap:square;stroke-width:0.8;"/>
     </g>
     <g id="line2d_32">
      <g>
       <use style="stroke:#000000;stroke-width:0.8;" x="57.6" xlink:href="#m720d6461ff" y="30.334099"/>
      </g>
     </g>
     <g id="text_11">
      <!-- 1.0 -->
      <g transform="translate(25.155 36.412849)scale(0.16 -0.16)">
       <use xlink:href="#DejaVuSans-49"/>
       <use x="63.623047" xlink:href="#DejaVuSans-46"/>
       <use x="95.410156" xlink:href="#DejaVuSans-48"/>
      </g>
     </g>
    </g>
    <g id="text_12">
     <!-- Fraction of function,target pairs -->
     <defs>
      <path d="M 9.8125 72.90625 
L 51.703125 72.90625 
L 51.703125 64.59375 
L 19.671875 64.59375 
L 19.671875 43.109375 
L 48.578125 43.109375 
L 48.578125 34.8125 
L 19.671875 34.8125 
L 19.671875 0 
L 9.8125 0 
z
" id="DejaVuSans-70"/>
      <path d="M 41.109375 46.296875 
Q 39.59375 47.171875 37.8125 47.578125 
Q 36.03125 48 33.890625 48 
Q 26.265625 48 22.1875 43.046875 
Q 18.109375 38.09375 18.109375 28.8125 
L 18.109375 0 
L 9.078125 0 
L 9.078125 54.6875 
L 18.109375 54.6875 
L 18.109375 46.1875 
Q 20.953125 51.171875 25.484375 53.578125 
Q 30.03125 56 36.53125 56 
Q 37.453125 56 38.578125 55.875 
Q 39.703125 55.765625 41.0625 55.515625 
z
" id="DejaVuSans-114"/>
      <path d="M 48.78125 52.59375 
L 48.78125 44.1875 
Q 44.96875 46.296875 41.140625 47.34375 
Q 37.3125 48.390625 33.40625 48.390625 
Q 24.65625 48.390625 19.8125 42.84375 
Q 14.984375 37.3125 14.984375 27.296875 
Q 14.984375 17.28125 19.8125 11.734375 
Q 24.65625 6.203125 33.40625 6.203125 
Q 37.3125 6.203125 41.140625 7.25 
Q 44.96875 8.296875 48.78125 10.40625 
L 48.78125 2.09375 
Q 45.015625 0.34375 40.984375 -0.53125 
Q 36.96875 -1.421875 32.421875 -1.421875 
Q 20.0625 -1.421875 12.78125 6.34375 
Q 5.515625 14.109375 5.515625 27.296875 
Q 5.515625 40.671875 12.859375 48.328125 
Q 20.21875 56 33.015625 56 
Q 37.15625 56 41.109375 55.140625 
Q 45.0625 54.296875 48.78125 52.59375 
z
" id="DejaVuSans-99"/>
      <path d="M 18.3125 70.21875 
L 18.3125 54.6875 
L 36.8125 54.6875 
L 36.8125 47.703125 
L 18.3125 47.703125 
L 18.3125 18.015625 
Q 18.3125 11.328125 20.140625 9.421875 
Q 21.96875 7.515625 27.59375 7.515625 
L 36.8125 7.515625 
L 36.8125 0 
L 27.59375 0 
Q 17.1875 0 13.234375 3.875 
Q 9.28125 7.765625 9.28125 18.015625 
L 9.28125 47.703125 
L 2.6875 47.703125 
L 2.6875 54.6875 
L 9.28125 54.6875 
L 9.28125 70.21875 
z
" id="DejaVuSans-116"/>
      <path d="M 8.5 21.578125 
L 8.5 54.6875 
L 17.484375 54.6875 
L 17.484375 21.921875 
Q 17.484375 14.15625 20.5 10.265625 
Q 23.53125 6.390625 29.59375 6.390625 
Q 36.859375 6.390625 41.078125 11.03125 
Q 45.3125 15.671875 45.3125 23.6875 
L 45.3125 54.6875 
L 54.296875 54.6875 
L 54.296875 0 
L 45.3125 0 
L 45.3125 8.40625 
Q 42.046875 3.421875 37.71875 1 
Q 33.40625 -1.421875 27.6875 -1.421875 
Q 18.265625 -1.421875 13.375 4.4375 
Q 8.5 10.296875 8.5 21.578125 
z
M 31.109375 56 
z
" id="DejaVuSans-117"/>
      <path d="M 11.71875 12.40625 
L 22.015625 12.40625 
L 22.015625 4 
L 14.015625 -11.625 
L 7.71875 -11.625 
L 11.71875 4 
z
" id="DejaVuSans-44"/>
      <path d="M 18.109375 8.203125 
L 18.109375 -20.796875 
L 9.078125 -20.796875 
L 9.078125 54.6875 
L 18.109375 54.6875 
L 18.109375 46.390625 
Q 20.953125 51.265625 25.265625 53.625 
Q 29.59375 56 35.59375 56 
Q 45.5625 56 51.78125 48.09375 
Q 58.015625 40.1875 58.015625 27.296875 
Q 58.015625 14.40625 51.78125 6.484375 
Q 45.5625 -1.421875 35.59375 -1.421875 
Q 29.59375 -1.421875 25.265625 0.953125 
Q 20.953125 3.328125 18.109375 8.203125 
z
M 48.6875 27.296875 
Q 48.6875 37.203125 44.609375 42.84375 
Q 40.53125 48.484375 33.40625 48.484375 
Q 26.265625 48.484375 22.1875 42.84375 
Q 18.109375 37.203125 18.109375 27.296875 
Q 18.109375 17.390625 22.1875 11.75 
Q 26.265625 6.109375 33.40625 6.109375 
Q 40.53125 6.109375 44.609375 11.75 
Q 48.6875 17.390625 48.6875 27.296875 
z
" id="DejaVuSans-112"/>
     </defs>
     <g transform="translate(17.619531 298.435375)rotate(-90)scale(0.17 -0.17)">
      <use xlink:href="#DejaVuSans-70"/>
      <use x="57.410156" xlink:href="#DejaVuSans-114"/>
      <use x="98.523438" xlink:href="#DejaVuSans-97"/>
      <use x="159.802734" xlink:href="#DejaVuSans-99"/>
      <use x="214.783203" xlink:href="#DejaVuSans-116"/>
      <use x="253.992188" xlink:href="#DejaVuSans-105"/>
      <use x="281.775391" xlink:href="#DejaVuSans-111"/>
      <use x="342.957031" xlink:href="#DejaVuSans-110"/>
      <use x="406.335938" xlink:href="#DejaVuSans-32"/>
      <use x="438.123047" xlink:href="#DejaVuSans-111"/>
      <use x="499.304688" xlink:href="#DejaVuSans-102"/>
      <use x="534.509766" xlink:href="#DejaVuSans-32"/>
      <use x="566.296875" xlink:href="#DejaVuSans-102"/>
      <use x="601.501953" xlink:href="#DejaVuSans-117"/>
      <use x="664.880859" xlink:href="#DejaVuSans-110"/>
      <use x="728.259766" xlink:href="#DejaVuSans-99"/>
      <use x="783.240234" xlink:href="#DejaVuSans-116"/>
      <use x="822.449219" xlink:href="#DejaVuSans-105"/>
      <use x="850.232422" xlink:href="#DejaVuSans-111"/>
      <use x="911.414062" xlink:href="#DejaVuSans-110"/>
      <use x="974.792969" xlink:href="#DejaVuSans-44"/>
      <use x="1006.580078" xlink:href="#DejaVuSans-116"/>
      <use x="1045.789062" xlink:href="#DejaVuSans-97"/>
      <use x="1107.068359" xlink:href="#DejaVuSans-114"/>
      <use x="1148.166016" xlink:href="#DejaVuSans-103"/>
      <use x="1211.642578" xlink:href="#DejaVuSans-101"/>
      <use x="1273.166016" xlink:href="#DejaVuSans-116"/>
      <use x="1312.375" xlink:href="#DejaVuSans-32"/>
      <use x="1344.162109" xlink:href="#DejaVuSans-112"/>
      <use x="1407.638672" xlink:href="#DejaVuSans-97"/>
      <use x="1468.917969" xlink:href="#DejaVuSans-105"/>
      <use x="1496.701172" xlink:href="#DejaVuSans-114"/>
      <use x="1537.814453" xlink:href="#DejaVuSans-115"/>
     </g>
    </g>
   </g>
   <g id="line2d_33">
    <defs>
     <path d="M 0 1.5 
C 0.397805 1.5 0.77937 1.341951 1.06066 1.06066 
C 1.341951 0.77937 1.5 0.397805 1.5 0 
C 1.5 -0.397805 1.341951 -0.77937 1.06066 -1.06066 
C 0.77937 -1.341951 0.397805 -1.5 0 -1.5 
C -0.397805 -1.5 -0.77937 -1.341951 -1.06066 -1.06066 
C -1.341951 -0.77937 -1.5 -0.397805 -1.5 0 
C -1.5 0.397805 -1.341951 0.77937 -1.06066 1.06066 
C -0.77937 1.341951 -0.397805 1.5 0 1.5 
z
" id="m378bef870a" style="stroke:#f5deb3;"/>
    </defs>
    <g>
     <use style="fill:#f5deb3;stroke:#f5deb3;" x="116.739166" xlink:href="#m378bef870a" y="30.334099"/>
     <use style="fill:#f5deb3;stroke:#f5deb3;" x="116.739166" xlink:href="#m378bef870a" y="30.334099"/>
    </g>
   </g>
   <g id="line2d_34">
    <defs>
     <path d="M 0 1.5 
C 0.397805 1.5 0.77937 1.341951 1.06066 1.06066 
C 1.341951 0.77937 1.5 0.397805 1.5 0 
C 1.5 -0.397805 1.341951 -0.77937 1.06066 -1.06066 
C 0.77937 -1.341951 0.397805 -1.5 0 -1.5 
C -0.397805 -1.5 -0.77937 -1.341951 -1.06066 -1.06066 
C -1.341951 -0.77937 -1.5 -0.397805 -1.5 0 
C -1.5 0.397805 -1.341951 0.77937 -1.06066 1.06066 
C -0.77937 1.341951 -0.397805 1.5 0 1.5 
z
" id="m5325adc957" style="stroke:#000080;"/>
    </defs>
    <g>
     <use style="fill:#000080;stroke:#000080;" x="182.970955" xlink:href="#m5325adc957" y="30.334099"/>
     <use style="fill:#000080;stroke:#000080;" x="182.970955" xlink:href="#m5325adc957" y="30.334099"/>
    </g>
   </g>
   <g id="line2d_35">
    <path d="M 165.82855 298.944 
L 165.82855 298.417314 
L 166.734234 298.417314 
L 166.827502 297.363942 
L 166.907877 297.363942 
L 166.929358 296.31057 
L 167.369623 296.31057 
L 167.428296 295.257197 
L 167.506754 295.257197 
L 167.538677 293.677139 
L 168.101967 293.677139 
L 168.101967 293.150453 
L 168.360206 293.150453 
L 168.360206 292.623767 
L 168.498851 292.623767 
L 168.596677 291.570395 
L 168.913453 291.570395 
L 169.019244 290.517023 
L 169.07482 290.517023 
L 169.07482 289.990337 
L 169.207196 289.990337 
L 169.207196 289.463651 
L 169.380234 289.463651 
L 169.396727 288.410278 
L 169.683212 288.410278 
L 169.710688 287.356906 
L 170.04674 287.356906 
L 170.112905 286.303534 
L 170.17128 286.303534 
L 170.17128 285.776848 
L 170.287446 285.776848 
L 170.35542 284.19679 
L 170.431913 284.19679 
L 170.477109 283.143418 
L 170.832542 283.143418 
L 170.940464 282.090045 
L 171.009865 282.090045 
L 171.009865 281.563359 
L 171.197044 281.563359 
L 171.197044 281.036673 
L 171.325215 281.036673 
L 171.325215 280.509987 
L 171.481731 280.509987 
L 171.481731 279.983301 
L 171.766226 279.983301 
L 171.837409 278.929929 
L 171.944262 278.929929 
L 172.039996 275.769812 
L 172.082444 275.769812 
L 172.082444 275.243126 
L 172.284043 275.243126 
L 172.387598 273.136382 
L 172.676223 273.136382 
L 172.772758 271.556324 
L 172.831718 271.556324 
L 172.928569 269.976266 
L 173.166926 269.976266 
L 173.247 268.396207 
L 173.369567 268.396207 
L 173.474834 267.342835 
L 173.516763 267.342835 
L 173.584544 265.762777 
L 173.865824 265.762777 
L 173.919549 264.182719 
L 174.083573 264.182719 
L 174.091241 263.129347 
L 174.268308 263.129347 
L 174.366685 262.075974 
L 174.382848 262.075974 
L 174.402762 260.495916 
L 174.5207 260.495916 
L 174.625636 259.442544 
L 174.635724 259.442544 
L 174.739972 258.389172 
L 174.762644 258.389172 
L 174.762644 257.862486 
L 174.957042 257.862486 
L 175.027764 254.702369 
L 175.068714 254.702369 
L 175.068714 254.175683 
L 175.229508 254.175683 
L 175.322624 252.595625 
L 175.368996 252.595625 
L 175.459854 251.542253 
L 175.484137 251.542253 
L 175.5935 249.962195 
L 175.60957 249.962195 
L 175.708671 247.85545 
L 175.879519 247.85545 
L 175.959892 246.802078 
L 176.139511 246.802078 
L 176.20124 245.22202 
L 176.372638 245.22202 
L 176.474675 243.641962 
L 176.520945 243.641962 
L 176.618804 241.008531 
L 176.720827 241.008531 
L 176.746239 239.955159 
L 176.914718 239.955159 
L 177.018734 236.795043 
L 177.032617 236.795043 
L 177.05296 235.74167 
L 177.157994 235.74167 
L 177.157994 235.214984 
L 177.307539 235.214984 
L 177.383421 234.161612 
L 177.431414 234.161612 
L 177.449491 233.10824 
L 177.595672 233.10824 
L 177.684133 231.001496 
L 177.71174 231.001496 
L 177.81245 226.788007 
L 177.843388 226.788007 
L 177.932802 224.681263 
L 177.987632 224.681263 
L 178.093296 221.521146 
L 178.108525 221.521146 
L 178.21519 219.941088 
L 178.343106 219.941088 
L 178.351257 218.887716 
L 178.497758 218.887716 
L 178.59827 216.780971 
L 178.623203 216.780971 
L 178.704933 215.200913 
L 178.795901 215.200913 
L 178.90095 212.567483 
L 178.926284 212.567483 
L 179.036739 210.987425 
L 179.042511 210.987425 
L 179.142401 206.773936 
L 179.154284 206.773936 
L 179.251093 203.087133 
L 179.29625 203.087133 
L 179.40399 199.400331 
L 179.445933 199.400331 
L 179.501836 197.293586 
L 179.55876 197.293586 
L 179.65654 193.606784 
L 179.670464 193.606784 
L 179.779481 190.973354 
L 179.813434 190.973354 
L 179.921955 187.813237 
L 179.952503 187.813237 
L 180.026689 186.233179 
L 180.115686 186.233179 
L 180.221578 182.01969 
L 180.250451 182.01969 
L 180.354384 177.279515 
L 180.394868 177.279515 
L 180.493394 172.539341 
L 180.515003 172.539341 
L 180.592876 169.90591 
L 180.627165 169.90591 
L 180.724017 165.165736 
L 180.749829 165.165736 
L 180.832987 160.425561 
L 180.874604 160.425561 
L 180.96825 156.738758 
L 180.994808 156.738758 
L 181.10357 149.365153 
L 181.114921 149.365153 
L 181.225121 141.991548 
L 181.232031 141.991548 
L 181.317993 136.724687 
L 181.366771 136.724687 
L 181.472527 129.351082 
L 181.487224 129.351082 
L 181.59083 120.397419 
L 181.598665 120.397419 
L 181.703028 113.5505 
L 181.710105 113.5505 
L 181.818377 101.963406 
L 181.830678 101.963406 
L 181.934714 90.376312 
L 181.942745 90.376312 
L 182.053055 79.842591 
L 182.056524 79.842591 
L 182.166464 68.782183 
L 182.179899 68.782183 
L 182.266808 59.82852 
L 182.292489 59.82852 
L 182.385988 51.401542 
L 182.405036 51.401542 
L 182.514497 44.027937 
L 182.53003 44.027937 
L 182.614208 39.287762 
L 182.65648 39.287762 
L 182.76671 35.074274 
L 182.788672 35.074274 
L 182.876909 32.440843 
L 182.906993 32.440843 
L 182.970955 30.334099 
L 338.688 30.334099 
L 338.688 30.334099 
" style="fill:none;stroke:#000080;stroke-linecap:square;stroke-width:1.5;"/>
   </g>
   <g id="line2d_36">
    <defs>
     <path d="M 0 6 
C 1.591219 6 3.117479 5.367802 4.242641 4.242641 
C 5.367802 3.117479 6 1.591219 6 0 
C 6 -1.591219 5.367802 -3.117479 4.242641 -4.242641 
C 3.117479 -5.367802 1.591219 -6 0 -6 
C -1.591219 -6 -3.117479 -5.367802 -4.242641 -4.242641 
C -5.367802 -3.117479 -6 -1.591219 -6 0 
C -6 1.591219 -5.367802 3.117479 -4.242641 4.242641 
C -3.117479 5.367802 -1.591219 6 0 6 
z
" id="m67623e92c3" style="stroke:#000080;stroke-width:1.5;"/>
    </defs>
    <g>
     <use style="fill-opacity:0;stroke:#000080;stroke-width:1.5;" x="179.501836" xlink:href="#m67623e92c3" y="197.293586"/>
     <use style="fill-opacity:0;stroke:#000080;stroke-width:1.5;" x="182.970955" xlink:href="#m67623e92c3" y="30.860785"/>
     <use style="fill-opacity:0;stroke:#000080;stroke-width:1.5;" x="182.970955" xlink:href="#m67623e92c3" y="30.334099"/>
     <use style="fill-opacity:0;stroke:#000080;stroke-width:1.5;" x="338.688" xlink:href="#m67623e92c3" y="30.334099"/>
    </g>
   </g>
   <g id="line2d_37">
    <path style="fill:none;stroke:#000080;stroke-linecap:square;stroke-width:1.5;"/>
    <g/>
   </g>
   <g id="line2d_38">
    <g>
     <use style="fill:#000080;stroke:#000080;" x="182.812268" xlink:href="#m5325adc957" y="30.334099"/>
     <use style="fill:#000080;stroke:#000080;" x="182.812268" xlink:href="#m5325adc957" y="30.334099"/>
    </g>
   </g>
   <g id="line2d_39">
    <path d="M 166.216454 298.944 
L 166.216454 298.417314 
L 166.632069 298.417314 
L 166.67485 297.363942 
L 167.220852 297.363942 
L 167.220852 296.837256 
L 167.396171 296.837256 
L 167.396171 296.31057 
L 168.125882 296.31057 
L 168.125882 295.783884 
L 168.346509 295.783884 
L 168.346509 295.257197 
L 168.527503 295.257197 
L 168.527503 294.730511 
L 169.155674 294.730511 
L 169.241218 292.623767 
L 169.537359 292.623767 
L 169.568615 291.570395 
L 169.676865 291.570395 
L 169.733904 289.990337 
L 169.794259 289.990337 
L 169.794259 289.463651 
L 170.090189 289.463651 
L 170.128032 288.410278 
L 170.284041 288.410278 
L 170.385922 287.356906 
L 170.47913 287.356906 
L 170.47913 286.83022 
L 170.640053 286.83022 
L 170.640053 286.303534 
L 170.810745 286.303534 
L 170.902373 284.723476 
L 171.048375 284.723476 
L 171.048375 284.19679 
L 171.220946 284.19679 
L 171.220946 283.670104 
L 171.491904 283.670104 
L 171.562947 281.036673 
L 171.728644 281.036673 
L 171.789986 279.983301 
L 171.885947 279.983301 
L 171.885947 279.456615 
L 172.041228 279.456615 
L 172.091045 277.876557 
L 172.221979 277.876557 
L 172.32772 276.823185 
L 172.357987 276.823185 
L 172.400273 275.769812 
L 172.698776 275.769812 
L 172.76626 274.189754 
L 172.868174 274.189754 
L 172.892826 272.609696 
L 173.111986 272.609696 
L 173.111986 272.08301 
L 173.228598 272.08301 
L 173.269975 270.502952 
L 173.356435 270.502952 
L 173.445878 268.922893 
L 173.559157 268.922893 
L 173.574393 267.869521 
L 173.817496 267.869521 
L 173.910698 265.762777 
L 173.931711 265.762777 
L 173.931711 265.236091 
L 174.166646 265.236091 
L 174.241183 263.656033 
L 174.28727 263.656033 
L 174.364529 261.549288 
L 174.611823 261.549288 
L 174.611823 261.022602 
L 174.746829 261.022602 
L 174.8079 259.96923 
L 174.926793 259.96923 
L 175.026726 257.862486 
L 175.125573 257.862486 
L 175.212057 255.755741 
L 175.366451 255.755741 
L 175.366451 255.229055 
L 175.482115 255.229055 
L 175.510407 253.122311 
L 175.610071 253.122311 
L 175.717652 251.542253 
L 175.76647 251.542253 
L 175.80622 250.488881 
L 175.941188 250.488881 
L 176.045773 247.85545 
L 176.142433 247.85545 
L 176.232265 245.22202 
L 176.273867 245.22202 
L 176.371677 242.588589 
L 176.411991 242.588589 
L 176.502833 239.955159 
L 176.531422 239.955159 
L 176.640581 237.848415 
L 176.653823 237.848415 
L 176.706221 235.74167 
L 176.77678 235.74167 
L 176.790388 234.161612 
L 176.89468 234.161612 
L 176.962159 232.581554 
L 177.027065 232.581554 
L 177.034005 231.001496 
L 177.185071 231.001496 
L 177.288403 229.421437 
L 177.314824 229.421437 
L 177.406981 226.788007 
L 177.435483 226.788007 
L 177.545434 223.627891 
L 177.578643 223.627891 
L 177.68235 220.99446 
L 177.710851 220.99446 
L 177.791646 217.834344 
L 177.827926 217.834344 
L 177.923573 215.727599 
L 177.96572 215.727599 
L 178.071517 213.620855 
L 178.094166 213.620855 
L 178.129823 212.567483 
L 178.228153 212.567483 
L 178.323785 209.407366 
L 178.400512 209.407366 
L 178.484993 206.24725 
L 178.544057 206.24725 
L 178.635444 204.140506 
L 178.68643 204.140506 
L 178.793811 200.980389 
L 178.80468 200.980389 
L 178.886814 198.346959 
L 178.924208 198.346959 
L 178.956138 195.713528 
L 179.061464 195.713528 
L 179.148548 192.553412 
L 179.218066 192.553412 
L 179.282024 190.973354 
L 179.331561 190.973354 
L 179.378532 188.866609 
L 179.466063 188.866609 
L 179.543545 186.759865 
L 179.594344 186.759865 
L 179.663304 182.546376 
L 179.713359 182.546376 
L 179.811067 178.859574 
L 179.831962 178.859574 
L 179.939585 175.699457 
L 179.95172 175.699457 
L 180.059387 171.485969 
L 180.065608 171.485969 
L 180.164847 167.27248 
L 180.180689 167.27248 
L 180.278509 164.112363 
L 180.31802 164.112363 
L 180.426884 160.425561 
L 180.452758 160.425561 
L 180.554739 155.685386 
L 180.564942 155.685386 
L 180.666647 150.945211 
L 180.681289 150.945211 
L 180.781946 146.731723 
L 180.807299 146.731723 
L 180.917603 143.04492 
L 180.939063 143.04492 
L 181.045966 139.884804 
L 181.081211 139.884804 
L 181.187615 136.198001 
L 181.19964 136.198001 
L 181.298444 130.93114 
L 181.350527 130.93114 
L 181.453868 125.66428 
L 181.481132 125.66428 
L 181.577289 120.924105 
L 181.592255 120.924105 
L 181.699488 113.023814 
L 181.711166 113.023814 
L 181.813806 103.543464 
L 181.840512 103.543464 
L 181.942046 92.483056 
L 181.966466 92.483056 
L 182.072816 83.529393 
L 182.085632 83.529393 
L 182.190916 72.468985 
L 182.196765 72.468985 
L 182.305486 59.301833 
L 182.312664 59.301833 
L 182.416251 51.401542 
L 182.427798 51.401542 
L 182.533742 41.921193 
L 182.539478 41.921193 
L 182.621596 36.654332 
L 182.661506 36.654332 
L 182.770705 32.440843 
L 182.775698 32.440843 
L 182.812268 30.334099 
L 338.688 30.334099 
L 338.688 30.334099 
" style="fill:none;stroke:#000080;stroke-linecap:square;stroke-width:1.5;"/>
   </g>
   <g id="line2d_40">
    <g>
     <use style="fill-opacity:0;stroke:#000080;stroke-width:1.5;" x="181.699488" xlink:href="#m67623e92c3" y="113.5505"/>
     <use style="fill-opacity:0;stroke:#000080;stroke-width:1.5;" x="182.812268" xlink:href="#m67623e92c3" y="30.334099"/>
     <use style="fill-opacity:0;stroke:#000080;stroke-width:1.5;" x="182.812268" xlink:href="#m67623e92c3" y="30.334099"/>
     <use style="fill-opacity:0;stroke:#000080;stroke-width:1.5;" x="338.688" xlink:href="#m67623e92c3" y="30.334099"/>
    </g>
   </g>
   <g id="line2d_41">
    <path style="fill:none;stroke:#000080;stroke-linecap:square;stroke-width:1.5;"/>
    <g/>
   </g>
   <g id="line2d_42">
    <defs>
     <path d="M 0 1.5 
C 0.397805 1.5 0.77937 1.341951 1.06066 1.06066 
C 1.341951 0.77937 1.5 0.397805 1.5 0 
C 1.5 -0.397805 1.341951 -0.77937 1.06066 -1.06066 
C 0.77937 -1.341951 0.397805 -1.5 0 -1.5 
C -0.397805 -1.5 -0.77937 -1.341951 -1.06066 -1.06066 
C -1.341951 -0.77937 -1.5 -0.397805 -1.5 0 
C -1.5 0.397805 -1.341951 0.77937 -1.06066 1.06066 
C -0.77937 1.341951 -0.397805 1.5 0 1.5 
z
" id="m7da8c882c8" style="stroke:#ff00ff;"/>
    </defs>
    <g>
     <use style="fill:#ff00ff;stroke:#ff00ff;" x="188.325822" xlink:href="#m7da8c882c8" y="30.334099"/>
     <use style="fill:#ff00ff;stroke:#ff00ff;" x="188.325822" xlink:href="#m7da8c882c8" y="30.334099"/>
    </g>
   </g>
   <g id="line2d_43">
    <path d="M 169.125853 298.944 
L 169.125853 298.417314 
L 170.440691 298.417314 
L 170.460933 297.363942 
L 170.676723 297.363942 
L 170.676723 296.837256 
L 171.03272 296.837256 
L 171.03272 296.31057 
L 172.064001 296.31057 
L 172.064001 295.783884 
L 172.492342 295.783884 
L 172.492342 295.257197 
L 172.653641 295.257197 
L 172.653641 294.730511 
L 172.792237 294.730511 
L 172.792237 294.203825 
L 173.161151 294.203825 
L 173.243551 293.150453 
L 173.609893 293.150453 
L 173.639141 292.097081 
L 173.734416 292.097081 
L 173.759549 291.043709 
L 174.166101 291.043709 
L 174.166101 290.517023 
L 174.450033 290.517023 
L 174.450033 289.990337 
L 174.799489 289.990337 
L 174.83888 288.410278 
L 174.925227 288.410278 
L 174.925227 287.883592 
L 175.121444 287.883592 
L 175.136923 286.83022 
L 175.335376 286.83022 
L 175.351175 285.776848 
L 175.594003 285.776848 
L 175.594003 285.250162 
L 175.872104 285.250162 
L 175.872104 284.723476 
L 176.047241 284.723476 
L 176.131719 283.670104 
L 176.325491 283.670104 
L 176.35341 282.616732 
L 176.614066 282.616732 
L 176.614066 282.090045 
L 176.829746 282.090045 
L 176.851262 281.036673 
L 176.955655 281.036673 
L 176.955655 280.509987 
L 177.2391 280.509987 
L 177.302074 279.456615 
L 177.420107 279.456615 
L 177.497753 278.403243 
L 177.559802 278.403243 
L 177.619395 276.823185 
L 177.687252 276.823185 
L 177.73264 275.769812 
L 177.808025 275.769812 
L 177.860602 274.189754 
L 178.176242 274.189754 
L 178.245855 272.609696 
L 178.386821 272.609696 
L 178.386821 272.08301 
L 178.674645 272.08301 
L 178.681801 271.029638 
L 178.836829 271.029638 
L 178.900119 269.449579 
L 178.983047 269.449579 
L 178.983047 268.922893 
L 179.19111 268.922893 
L 179.19111 268.396207 
L 179.39268 268.396207 
L 179.39268 267.869521 
L 179.680005 267.869521 
L 179.743085 266.289463 
L 179.828415 266.289463 
L 179.828415 265.762777 
L 179.961891 265.762777 
L 180.040321 263.656033 
L 180.085812 263.656033 
L 180.174895 262.075974 
L 180.506287 262.075974 
L 180.506287 261.549288 
L 180.715405 261.549288 
L 180.715405 261.022602 
L 180.929076 261.022602 
L 180.929076 260.495916 
L 181.055152 260.495916 
L 181.154776 258.389172 
L 181.215661 258.389172 
L 181.304601 256.282427 
L 181.329206 256.282427 
L 181.329206 255.755741 
L 181.448841 255.755741 
L 181.448841 255.229055 
L 181.562667 255.229055 
L 181.609698 254.175683 
L 181.713642 254.175683 
L 181.747918 252.595625 
L 181.825758 252.595625 
L 181.905003 250.488881 
L 182.02007 250.488881 
L 182.073856 248.908822 
L 182.232165 248.908822 
L 182.301041 247.328764 
L 182.346807 247.328764 
L 182.419648 245.748706 
L 182.483727 245.748706 
L 182.593706 243.115275 
L 182.613872 243.115275 
L 182.674231 241.008531 
L 182.809279 241.008531 
L 182.888816 239.428473 
L 182.933397 239.428473 
L 183.01664 237.848415 
L 183.047795 237.848415 
L 183.047795 237.321729 
L 183.163725 237.321729 
L 183.263039 234.161612 
L 183.306352 234.161612 
L 183.416732 233.10824 
L 183.570355 233.10824 
L 183.570355 232.581554 
L 183.689824 232.581554 
L 183.797183 228.894751 
L 183.838565 228.894751 
L 183.891716 227.314693 
L 183.969585 227.314693 
L 184.07833 223.627891 
L 184.182411 223.627891 
L 184.284958 221.521146 
L 184.368083 221.521146 
L 184.454138 219.414402 
L 184.537365 219.414402 
L 184.616004 216.780971 
L 184.703232 216.780971 
L 184.785578 215.200913 
L 184.832966 215.200913 
L 184.937356 212.567483 
L 185.033524 212.567483 
L 185.105013 210.460738 
L 185.166347 210.460738 
L 185.265016 208.353994 
L 185.294133 208.353994 
L 185.359399 206.773936 
L 185.435854 206.773936 
L 185.534718 204.667192 
L 185.566793 204.667192 
L 185.667458 199.400331 
L 185.699852 199.400331 
L 185.805629 196.240214 
L 185.813739 196.240214 
L 185.921609 192.553412 
L 185.963794 192.553412 
L 186.051171 189.919981 
L 186.084788 189.919981 
L 186.185252 185.179807 
L 186.207955 185.179807 
L 186.314507 182.01969 
L 186.339213 182.01969 
L 186.442811 176.226143 
L 186.45656 176.226143 
L 186.533193 169.90591 
L 186.572588 169.90591 
L 186.674814 159.898875 
L 186.688647 159.898875 
L 186.792575 149.891839 
L 186.803938 149.891839 
L 186.913485 139.358118 
L 186.922408 139.358118 
L 187.03252 127.244338 
L 187.03617 127.244338 
L 187.146085 113.5505 
L 187.153596 113.5505 
L 187.258402 101.43672 
L 187.27538 101.43672 
L 187.384825 90.902998 
L 187.387635 90.902998 
L 187.496634 79.315904 
L 187.506786 79.315904 
L 187.611011 68.255497 
L 187.628153 68.255497 
L 187.73366 60.355206 
L 187.73992 60.355206 
L 187.850478 50.34817 
L 187.861421 50.34817 
L 187.965036 44.027937 
L 187.980106 44.027937 
L 188.061159 38.23439 
L 188.114414 38.23439 
L 188.215566 34.020902 
L 188.233098 34.020902 
L 188.325822 30.334099 
L 338.688 30.334099 
L 338.688 30.334099 
" style="fill:none;stroke:#ff00ff;stroke-linecap:square;stroke-width:1.5;"/>
   </g>
   <g id="line2d_44">
    <defs>
     <path d="M -0 8.485281 
L 5.091169 0 
L 0 -8.485281 
L -5.091169 -0 
z
" id="m22642d0ecd" style="stroke:#ff00ff;stroke-linejoin:miter;stroke-width:1.5;"/>
    </defs>
    <g>
     <use style="fill-opacity:0;stroke:#ff00ff;stroke-linejoin:miter;stroke-width:1.5;" x="186.803938" xlink:href="#m22642d0ecd" y="149.891839"/>
     <use style="fill-opacity:0;stroke:#ff00ff;stroke-linejoin:miter;stroke-width:1.5;" x="188.325822" xlink:href="#m22642d0ecd" y="30.860785"/>
     <use style="fill-opacity:0;stroke:#ff00ff;stroke-linejoin:miter;stroke-width:1.5;" x="188.325822" xlink:href="#m22642d0ecd" y="30.334099"/>
     <use style="fill-opacity:0;stroke:#ff00ff;stroke-linejoin:miter;stroke-width:1.5;" x="338.688" xlink:href="#m22642d0ecd" y="30.334099"/>
    </g>
   </g>
   <g id="line2d_45">
    <path style="fill:none;stroke:#ff00ff;stroke-linecap:square;stroke-width:1.5;"/>
    <g/>
   </g>
   <g id="line2d_46">
    <defs>
     <path d="M 0 1.5 
C 0.397805 1.5 0.77937 1.341951 1.06066 1.06066 
C 1.341951 0.77937 1.5 0.397805 1.5 0 
C 1.5 -0.397805 1.341951 -0.77937 1.06066 -1.06066 
C 0.77937 -1.341951 0.397805 -1.5 0 -1.5 
C -0.397805 -1.5 -0.77937 -1.341951 -1.06066 -1.06066 
C -1.341951 -0.77937 -1.5 -0.397805 -1.5 0 
C -1.5 0.397805 -1.341951 0.77937 -1.06066 1.06066 
C -0.77937 1.341951 -0.397805 1.5 0 1.5 
z
" id="mc45c651de9" style="stroke:#ff0000;"/>
    </defs>
    <g>
     <use style="fill:#ff0000;stroke:#ff0000;" x="184.33068" xlink:href="#mc45c651de9" y="30.334099"/>
     <use style="fill:#ff0000;stroke:#ff0000;" x="184.33068" xlink:href="#mc45c651de9" y="30.334099"/>
    </g>
   </g>
   <g id="line2d_47">
    <path d="M 163.918577 298.944 
L 163.918577 298.417314 
L 164.903872 298.417314 
L 164.903872 297.890628 
L 166.92688 297.890628 
L 166.92688 297.363942 
L 167.693468 297.363942 
L 167.705318 296.31057 
L 168.293904 296.31057 
L 168.293904 295.783884 
L 169.3033 295.783884 
L 169.336416 294.203825 
L 169.584222 294.203825 
L 169.584222 293.677139 
L 169.748661 293.677139 
L 169.748661 292.623767 
L 170.023938 292.623767 
L 170.023938 292.097081 
L 170.165794 292.097081 
L 170.236975 290.517023 
L 170.334376 290.517023 
L 170.334376 289.990337 
L 170.472392 289.990337 
L 170.577202 288.936964 
L 170.634713 288.936964 
L 170.634713 288.410278 
L 170.84376 288.410278 
L 170.84376 287.883592 
L 171.038592 287.883592 
L 171.038592 287.356906 
L 171.744939 287.356906 
L 171.844263 284.723476 
L 171.91699 284.723476 
L 171.91699 284.19679 
L 172.269459 284.19679 
L 172.350728 281.563359 
L 172.47613 281.563359 
L 172.533705 279.983301 
L 172.779844 279.983301 
L 172.779844 279.456615 
L 172.946705 279.456615 
L 172.946705 278.929929 
L 173.100398 278.929929 
L 173.148439 277.876557 
L 173.225146 277.876557 
L 173.225146 277.349871 
L 173.350722 277.349871 
L 173.461781 275.769812 
L 173.494111 275.769812 
L 173.494111 275.243126 
L 173.631833 275.243126 
L 173.634644 274.189754 
L 173.868043 274.189754 
L 173.886336 273.136382 
L 174.115319 273.136382 
L 174.179727 272.08301 
L 174.254751 272.08301 
L 174.254751 271.556324 
L 174.548461 271.556324 
L 174.62723 270.502952 
L 174.764225 270.502952 
L 174.802644 268.396207 
L 174.987758 268.396207 
L 175.064054 266.289463 
L 175.118347 266.289463 
L 175.118347 265.762777 
L 175.293514 265.762777 
L 175.374084 264.182719 
L 175.42793 264.182719 
L 175.524535 262.60266 
L 175.565343 262.60266 
L 175.608566 261.022602 
L 175.893352 261.022602 
L 175.976119 259.442544 
L 176.132693 259.442544 
L 176.132693 258.915858 
L 176.317299 258.915858 
L 176.331752 257.862486 
L 176.471808 257.862486 
L 176.573268 255.755741 
L 176.691603 255.755741 
L 176.691603 255.229055 
L 176.817105 255.229055 
L 176.910992 253.122311 
L 176.957049 253.122311 
L 177.030767 252.068939 
L 177.120292 252.068939 
L 177.179109 248.908822 
L 177.236357 248.908822 
L 177.344385 247.328764 
L 177.357104 247.328764 
L 177.407887 246.275392 
L 177.639065 246.275392 
L 177.748187 244.168648 
L 177.786773 244.168648 
L 177.857514 243.115275 
L 177.94466 243.115275 
L 178.05102 241.535217 
L 178.130692 241.535217 
L 178.186637 239.955159 
L 178.288953 239.955159 
L 178.288953 239.428473 
L 178.411629 239.428473 
L 178.516887 238.375101 
L 178.52793 238.375101 
L 178.535995 236.795043 
L 178.650207 236.795043 
L 178.725096 235.74167 
L 178.803008 235.74167 
L 178.913829 233.10824 
L 178.918812 233.10824 
L 179.025188 231.001496 
L 179.061053 231.001496 
L 179.149777 228.368065 
L 179.173934 228.368065 
L 179.269414 225.734635 
L 179.290967 225.734635 
L 179.393488 223.627891 
L 179.464453 223.627891 
L 179.569163 222.047832 
L 179.580359 222.047832 
L 179.65256 219.941088 
L 179.712962 219.941088 
L 179.712962 219.414402 
L 179.911761 219.414402 
L 180.020454 216.254285 
L 180.04071 216.254285 
L 180.144735 214.147541 
L 180.162141 214.147541 
L 180.240832 212.040797 
L 180.277741 212.040797 
L 180.381893 209.934052 
L 180.410502 209.934052 
L 180.494912 207.300622 
L 180.532044 207.300622 
L 180.626413 205.720564 
L 180.658382 205.720564 
L 180.749455 203.613819 
L 180.785304 203.613819 
L 180.87312 201.507075 
L 180.950152 201.507075 
L 180.983747 198.873645 
L 181.092211 198.873645 
L 181.201097 196.240214 
L 181.214569 196.240214 
L 181.306411 193.606784 
L 181.333545 193.606784 
L 181.437346 190.973354 
L 181.449919 190.973354 
L 181.533387 186.759865 
L 181.565521 186.759865 
L 181.658022 182.546376 
L 181.686386 182.546376 
L 181.789875 175.172771 
L 181.802548 175.172771 
L 181.905352 168.325852 
L 181.939603 168.325852 
L 182.049933 160.952247 
L 182.061032 160.952247 
L 182.165085 154.632014 
L 182.187818 154.632014 
L 182.278455 150.945211 
L 182.304802 150.945211 
L 182.391773 149.365153 
L 182.436623 149.365153 
L 182.519226 145.151665 
L 182.553304 145.151665 
L 182.656815 139.884804 
L 182.669209 139.884804 
L 182.773701 135.671315 
L 182.821232 135.671315 
L 182.92416 128.824396 
L 182.932408 128.824396 
L 183.042551 121.450791 
L 183.044846 121.450791 
L 183.133103 115.657244 
L 183.16763 115.657244 
L 183.272422 105.650209 
L 183.287618 105.650209 
L 183.391371 92.483056 
L 183.406785 92.483056 
L 183.517172 80.369277 
L 183.519404 80.369277 
L 183.624011 67.202125 
L 183.633519 67.202125 
L 183.742169 57.195089 
L 183.750039 57.195089 
L 183.860157 48.768112 
L 183.870787 48.768112 
L 183.981701 40.341135 
L 183.986049 40.341135 
L 184.089136 34.547588 
L 184.119667 34.547588 
L 184.222277 31.914157 
L 184.243399 31.914157 
L 184.33068 30.334099 
L 338.688 30.334099 
L 338.688 30.334099 
" style="fill:none;stroke:#ff0000;stroke-linecap:square;stroke-width:1.5;"/>
   </g>
   <g id="line2d_48">
    <defs>
     <path d="M 0 -6 
L -5.196152 -3 
L -5.196152 3 
L -0 6 
L 5.196152 3 
L 5.196152 -3 
z
" id="m067fdc248e" style="stroke:#ff0000;stroke-linejoin:miter;stroke-width:1.5;"/>
    </defs>
    <g>
     <use style="fill-opacity:0;stroke:#ff0000;stroke-linejoin:miter;stroke-width:1.5;" x="184.33068" xlink:href="#m067fdc248e" y="30.860785"/>
     <use style="fill-opacity:0;stroke:#ff0000;stroke-linejoin:miter;stroke-width:1.5;" x="184.33068" xlink:href="#m067fdc248e" y="30.334099"/>
     <use style="fill-opacity:0;stroke:#ff0000;stroke-linejoin:miter;stroke-width:1.5;" x="184.33068" xlink:href="#m067fdc248e" y="30.334099"/>
     <use style="fill-opacity:0;stroke:#ff0000;stroke-linejoin:miter;stroke-width:1.5;" x="338.688" xlink:href="#m067fdc248e" y="30.334099"/>
    </g>
   </g>
   <g id="line2d_49">
    <path style="fill:none;stroke:#ff0000;stroke-linecap:square;stroke-width:1.5;"/>
    <g/>
   </g>
   <g id="line2d_50">
    <defs>
     <path d="M 0 1.5 
C 0.397805 1.5 0.77937 1.341951 1.06066 1.06066 
C 1.341951 0.77937 1.5 0.397805 1.5 0 
C 1.5 -0.397805 1.341951 -0.77937 1.06066 -1.06066 
C 0.77937 -1.341951 0.397805 -1.5 0 -1.5 
C -0.397805 -1.5 -0.77937 -1.341951 -1.06066 -1.06066 
C -1.341951 -0.77937 -1.5 -0.397805 -1.5 0 
C -1.5 0.397805 -1.341951 0.77937 -1.06066 1.06066 
C -0.77937 1.341951 -0.397805 1.5 0 1.5 
z
" id="mde9854daad" style="stroke:#ff7500;"/>
    </defs>
    <g>
     <use style="fill:#ff7500;stroke:#ff7500;" x="183.222862" xlink:href="#mde9854daad" y="30.334099"/>
     <use style="fill:#ff7500;stroke:#ff7500;" x="183.222862" xlink:href="#mde9854daad" y="30.334099"/>
    </g>
   </g>
   <g id="line2d_51">
    <path d="M 165.001898 298.944 
L 165.001898 298.417314 
L 165.509027 298.417314 
L 165.509027 297.890628 
L 166.054862 297.890628 
L 166.054862 297.363942 
L 166.261982 297.363942 
L 166.261982 296.837256 
L 166.525921 296.837256 
L 166.525921 296.31057 
L 166.68825 296.31057 
L 166.68825 295.783884 
L 167.324479 295.783884 
L 167.324479 295.257197 
L 167.669743 295.257197 
L 167.677655 294.203825 
L 167.874294 294.203825 
L 167.907112 293.150453 
L 168.140524 293.150453 
L 168.140524 292.623767 
L 168.481487 292.623767 
L 168.584667 291.570395 
L 168.718565 291.570395 
L 168.731229 290.517023 
L 168.869183 290.517023 
L 168.869183 289.990337 
L 169.259288 289.990337 
L 169.365162 288.936964 
L 169.67616 288.936964 
L 169.752173 286.83022 
L 169.806166 286.83022 
L 169.837642 285.776848 
L 169.942157 285.776848 
L 170.052954 284.723476 
L 170.12597 284.723476 
L 170.179505 283.670104 
L 170.337093 283.670104 
L 170.415694 282.616732 
L 170.475088 282.616732 
L 170.475088 282.090045 
L 170.627367 282.090045 
L 170.627367 281.563359 
L 170.856948 281.563359 
L 170.96603 279.983301 
L 171.090052 279.983301 
L 171.197044 278.929929 
L 171.398218 278.929929 
L 171.400135 277.876557 
L 171.553449 277.876557 
L 171.642527 276.823185 
L 171.75809 276.823185 
L 171.809969 275.769812 
L 171.962832 275.769812 
L 172.07261 273.663068 
L 172.298614 273.663068 
L 172.298614 273.136382 
L 172.423788 273.136382 
L 172.480935 272.08301 
L 172.566008 272.08301 
L 172.60004 271.029638 
L 172.760942 271.029638 
L 172.835249 269.976266 
L 172.893413 269.976266 
L 172.994005 267.869521 
L 173.025467 267.869521 
L 173.025467 267.342835 
L 173.229749 267.342835 
L 173.250449 266.289463 
L 173.44815 266.289463 
L 173.44815 265.762777 
L 173.672827 265.762777 
L 173.693567 264.182719 
L 173.814715 264.182719 
L 173.814715 263.656033 
L 173.984683 263.656033 
L 174.079738 260.495916 
L 174.156829 260.495916 
L 174.156829 259.96923 
L 174.311619 259.96923 
L 174.314322 258.915858 
L 174.459686 258.915858 
L 174.538323 256.282427 
L 174.750521 256.282427 
L 174.750521 255.755741 
L 174.893877 255.755741 
L 174.938794 254.175683 
L 175.089929 254.175683 
L 175.194589 251.015567 
L 175.283289 251.015567 
L 175.349647 249.435508 
L 175.40306 249.435508 
L 175.51293 248.382136 
L 175.518986 248.382136 
L 175.602541 246.802078 
L 175.731614 246.802078 
L 175.840927 245.748706 
L 175.962352 245.748706 
L 176.041366 244.695334 
L 176.268552 244.695334 
L 176.371677 243.115275 
L 176.430676 243.115275 
L 176.531898 241.535217 
L 176.633009 241.535217 
L 176.732596 237.848415 
L 176.842846 237.848415 
L 176.949149 234.161612 
L 177.032617 234.161612 
L 177.127195 232.054868 
L 177.169014 232.054868 
L 177.186447 231.001496 
L 177.316189 231.001496 
L 177.377526 228.894751 
L 177.435031 228.894751 
L 177.458522 227.841379 
L 177.580884 227.841379 
L 177.674772 226.261321 
L 177.840739 226.261321 
L 177.937194 222.574518 
L 178.049711 222.574518 
L 178.049711 222.047832 
L 178.273019 222.047832 
L 178.321207 220.467774 
L 178.403934 220.467774 
L 178.484568 218.36103 
L 178.518162 218.36103 
L 178.627003 215.727599 
L 178.663273 215.727599 
L 178.699048 214.147541 
L 178.788374 214.147541 
L 178.881405 211.514111 
L 178.917982 211.514111 
L 178.959452 209.934052 
L 179.07834 209.934052 
L 179.174343 207.827308 
L 179.209086 207.827308 
L 179.31777 204.140506 
L 179.39066 204.140506 
L 179.467672 202.560447 
L 179.519494 202.560447 
L 179.606721 200.453703 
L 179.654948 200.453703 
L 179.761293 197.820273 
L 179.773947 197.820273 
L 179.86424 194.13347 
L 179.885857 194.13347 
L 179.975573 190.973354 
L 180.000174 190.973354 
L 180.07377 188.339923 
L 180.122275 188.339923 
L 180.215798 183.073062 
L 180.243526 183.073062 
L 180.339465 178.859574 
L 180.358207 178.859574 
L 180.423837 176.226143 
L 180.475556 176.226143 
L 180.557007 172.539341 
L 180.60268 172.539341 
L 180.697793 166.745794 
L 180.72514 166.745794 
L 180.835591 161.478933 
L 180.888702 161.478933 
L 180.960865 157.79213 
L 181.014332 157.79213 
L 181.111626 153.578642 
L 181.125533 153.578642 
L 181.198547 149.365153 
L 181.247659 149.365153 
L 181.347637 144.098292 
L 181.396332 144.098292 
L 181.484357 139.358118 
L 181.520517 139.358118 
L 181.628547 133.037885 
L 181.634588 133.037885 
L 181.735558 128.29771 
L 181.756035 128.29771 
L 181.855956 121.450791 
L 181.869633 121.450791 
L 181.967861 111.970441 
L 181.982495 111.970441 
L 182.08944 103.016778 
L 182.108814 103.016778 
L 182.215334 91.429684 
L 182.231822 91.429684 
L 182.341348 79.315904 
L 182.351922 79.315904 
L 182.459005 70.362241 
L 182.464765 70.362241 
L 182.575536 61.935264 
L 182.578229 61.935264 
L 182.686612 55.615031 
L 182.692966 55.615031 
L 182.795322 48.241426 
L 182.80795 48.241426 
L 182.916239 41.921193 
L 182.92482 41.921193 
L 183.020906 37.707704 
L 183.036323 37.707704 
L 183.136689 31.914157 
L 183.168281 31.914157 
L 183.222862 30.334099 
L 338.688 30.334099 
L 338.688 30.334099 
" style="fill:none;stroke:#ff7500;stroke-linecap:square;stroke-width:1.5;"/>
   </g>
   <g id="line2d_52">
    <defs>
     <path d="M 0 -6 
L -1.347084 -1.854102 
L -5.706339 -1.854102 
L -2.179628 0.708204 
L -3.526712 4.854102 
L -0 2.291796 
L 3.526712 4.854102 
L 2.179628 0.708204 
L 5.706339 -1.854102 
L 1.347084 -1.854102 
z
" id="m2f91819e9b" style="stroke:#ff7500;stroke-linejoin:bevel;stroke-width:1.5;"/>
    </defs>
    <g>
     <use style="fill-opacity:0;stroke:#ff7500;stroke-linejoin:bevel;stroke-width:1.5;" x="182.591015" xlink:href="#m2f91819e9b" y="60.881892"/>
     <use style="fill-opacity:0;stroke:#ff7500;stroke-linejoin:bevel;stroke-width:1.5;" x="183.222862" xlink:href="#m2f91819e9b" y="30.334099"/>
     <use style="fill-opacity:0;stroke:#ff7500;stroke-linejoin:bevel;stroke-width:1.5;" x="183.222862" xlink:href="#m2f91819e9b" y="30.334099"/>
     <use style="fill-opacity:0;stroke:#ff7500;stroke-linejoin:bevel;stroke-width:1.5;" x="338.688" xlink:href="#m2f91819e9b" y="30.334099"/>
    </g>
   </g>
   <g id="line2d_53">
    <path style="fill:none;stroke:#ff7500;stroke-linecap:square;stroke-width:1.5;"/>
    <g/>
   </g>
   <g id="line2d_54">
    <defs>
     <path d="M 0 1.5 
C 0.397805 1.5 0.77937 1.341951 1.06066 1.06066 
C 1.341951 0.77937 1.5 0.397805 1.5 0 
C 1.5 -0.397805 1.341951 -0.77937 1.06066 -1.06066 
C 0.77937 -1.341951 0.397805 -1.5 0 -1.5 
C -0.397805 -1.5 -0.77937 -1.341951 -1.06066 -1.06066 
C -1.341951 -0.77937 -1.5 -0.397805 -1.5 0 
C -1.5 0.397805 -1.341951 0.77937 -1.06066 1.06066 
C -0.77937 1.341951 -0.397805 1.5 0 1.5 
z
" id="m945fee4c5d" style="stroke:#9acd32;"/>
    </defs>
    <g>
     <use style="fill:#9acd32;stroke:#9acd32;" x="183.217022" xlink:href="#m945fee4c5d" y="30.334099"/>
     <use style="fill:#9acd32;stroke:#9acd32;" x="183.217022" xlink:href="#m945fee4c5d" y="30.334099"/>
    </g>
   </g>
   <g id="line2d_55">
    <path d="M 163.063884 298.944 
L 163.063884 298.417314 
L 164.103059 298.417314 
L 164.103059 297.890628 
L 164.912217 297.890628 
L 164.912217 297.363942 
L 165.617077 297.363942 
L 165.617077 296.837256 
L 166.57402 296.837256 
L 166.57402 296.31057 
L 166.800905 296.31057 
L 166.895472 295.257197 
L 167.991998 295.257197 
L 167.991998 294.730511 
L 168.185143 294.730511 
L 168.185143 294.203825 
L 168.33661 294.203825 
L 168.438377 292.097081 
L 168.486773 292.097081 
L 168.56438 290.517023 
L 168.843307 290.517023 
L 168.843307 289.990337 
L 169.184719 289.990337 
L 169.184719 289.463651 
L 169.302579 289.463651 
L 169.302579 288.936964 
L 169.594146 288.936964 
L 169.594146 288.410278 
L 169.736716 288.410278 
L 169.736716 287.883592 
L 169.948408 287.883592 
L 170.033615 286.303534 
L 170.597285 286.303534 
L 170.694031 285.250162 
L 170.752486 285.250162 
L 170.856948 284.19679 
L 170.872103 284.19679 
L 170.9621 282.090045 
L 170.985017 282.090045 
L 170.985017 281.563359 
L 171.439068 281.563359 
L 171.478551 279.983301 
L 171.668344 279.983301 
L 171.668344 279.456615 
L 171.89216 279.456615 
L 171.95912 277.876557 
L 172.294365 277.876557 
L 172.294365 277.349871 
L 172.50734 277.349871 
L 172.613754 275.243126 
L 172.745569 275.243126 
L 172.815819 274.189754 
L 172.924471 274.189754 
L 172.971831 273.136382 
L 173.185969 273.136382 
L 173.228598 272.08301 
L 173.374702 272.08301 
L 173.462916 269.976266 
L 173.486176 269.976266 
L 173.486176 269.449579 
L 173.627335 269.449579 
L 173.705328 267.869521 
L 173.785761 267.869521 
L 173.835288 266.289463 
L 173.960976 266.289463 
L 173.979172 265.236091 
L 174.086312 265.236091 
L 174.142093 264.182719 
L 174.197697 264.182719 
L 174.27752 262.60266 
L 174.370997 262.60266 
L 174.458614 260.495916 
L 174.683427 260.495916 
L 174.787918 257.862486 
L 174.873994 257.862486 
L 174.900675 255.229055 
L 175.131249 255.229055 
L 175.131249 254.702369 
L 175.336905 254.702369 
L 175.367469 253.122311 
L 175.548729 253.122311 
L 175.607562 252.068939 
L 175.743074 252.068939 
L 175.786853 249.962195 
L 175.865675 249.962195 
L 175.963336 248.908822 
L 176.006075 248.908822 
L 176.051157 247.328764 
L 176.122461 247.328764 
L 176.200755 245.748706 
L 176.251143 245.748706 
L 176.319227 243.641962 
L 176.382245 243.641962 
L 176.491384 242.061903 
L 176.532374 242.061903 
L 176.639161 238.901787 
L 176.675557 238.901787 
L 176.786166 237.321729 
L 176.834426 237.321729 
L 176.929616 234.688298 
L 176.963553 234.688298 
L 177.023363 232.581554 
L 177.082046 232.581554 
L 177.184154 230.47481 
L 177.25966 230.47481 
L 177.353925 228.894751 
L 177.377979 228.894751 
L 177.465292 227.841379 
L 177.500906 227.841379 
L 177.581781 225.207949 
L 177.65782 225.207949 
L 177.767713 221.521146 
L 177.873832 221.521146 
L 177.982376 218.887716 
L 177.996826 218.887716 
L 178.050147 216.780971 
L 178.154132 216.780971 
L 178.227722 214.674227 
L 178.279911 214.674227 
L 178.36412 212.567483 
L 178.433842 212.567483 
L 178.478182 210.460738 
L 178.566949 210.460738 
L 178.648099 207.827308 
L 178.687271 207.827308 
L 178.722157 206.24725 
L 178.803008 206.24725 
L 178.854756 204.140506 
L 178.939144 204.140506 
L 179.027664 199.927017 
L 179.069698 199.927017 
L 179.178843 196.240214 
L 179.256795 196.240214 
L 179.325478 193.080098 
L 179.429813 193.080098 
L 179.537135 190.446667 
L 179.565963 190.446667 
L 179.661713 188.339923 
L 179.708598 188.339923 
L 179.802781 185.179807 
L 179.889391 185.179807 
L 179.932927 184.126434 
L 180.016946 184.126434 
L 180.118012 179.38626 
L 180.161755 179.38626 
L 180.2666 175.172771 
L 180.28542 175.172771 
L 180.393724 172.539341 
L 180.399827 172.539341 
L 180.502117 168.852538 
L 180.546043 168.852538 
L 180.656127 164.63905 
L 180.674908 164.63905 
L 180.78008 159.898875 
L 180.788288 159.898875 
L 180.872377 157.265444 
L 180.909456 157.265444 
L 181.012859 152.52527 
L 181.027213 152.52527 
L 181.127728 147.785095 
L 181.178864 147.785095 
L 181.285399 144.098292 
L 181.299893 144.098292 
L 181.400654 139.884804 
L 181.415772 139.884804 
L 181.517655 133.037885 
L 181.532672 133.037885 
L 181.630324 127.771024 
L 181.649504 127.771024 
L 181.7518 117.763988 
L 181.768028 117.763988 
L 181.862269 108.283639 
L 181.887151 108.283639 
L 181.997117 96.696545 
L 182.001293 96.696545 
L 182.091517 88.796254 
L 182.11642 88.796254 
L 182.227015 78.262532 
L 182.228045 78.262532 
L 182.308905 70.362241 
L 182.342713 70.362241 
L 182.447139 60.881892 
L 182.469846 60.881892 
L 182.571833 52.9816 
L 182.585969 52.9816 
L 182.694304 42.974565 
L 182.725372 42.974565 
L 182.834836 35.60096 
L 182.845778 35.60096 
L 182.951857 33.494215 
L 182.983785 33.494215 
L 183.073333 31.387471 
L 183.120708 31.387471 
L 183.217022 30.334099 
L 338.688 30.334099 
L 338.688 30.334099 
" style="fill:none;stroke:#9acd32;stroke-linecap:square;stroke-width:1.5;"/>
   </g>
   <g id="line2d_56">
    <defs>
     <path d="M 0 -6 
L -6 6 
L 6 6 
z
" id="m4e63d6e213" style="stroke:#9acd32;stroke-linejoin:miter;stroke-width:1.5;"/>
    </defs>
    <g>
     <use style="fill-opacity:0;stroke:#9acd32;stroke-linejoin:miter;stroke-width:1.5;" x="182.308905" xlink:href="#m4e63d6e213" y="70.362241"/>
     <use style="fill-opacity:0;stroke:#9acd32;stroke-linejoin:miter;stroke-width:1.5;" x="183.217022" xlink:href="#m4e63d6e213" y="30.860785"/>
     <use style="fill-opacity:0;stroke:#9acd32;stroke-linejoin:miter;stroke-width:1.5;" x="183.217022" xlink:href="#m4e63d6e213" y="30.334099"/>
     <use style="fill-opacity:0;stroke:#9acd32;stroke-linejoin:miter;stroke-width:1.5;" x="338.688" xlink:href="#m4e63d6e213" y="30.334099"/>
    </g>
   </g>
   <g id="line2d_57">
    <path style="fill:none;stroke:#9acd32;stroke-linecap:square;stroke-width:1.5;"/>
    <g/>
   </g>
   <g id="line2d_58">
    <path d="M 338.688 30.334099 
L 369.60768 293.571802 
" style="fill:none;stroke:#ff00ff;stroke-linecap:square;stroke-width:1.5;"/>
    <g>
     <use style="fill-opacity:0;stroke:#ff00ff;stroke-linejoin:miter;stroke-width:1.5;" x="338.688" xlink:href="#m22642d0ecd" y="30.334099"/>
     <use style="fill-opacity:0;stroke:#ff00ff;stroke-linejoin:miter;stroke-width:1.5;" x="369.60768" xlink:href="#m22642d0ecd" y="293.571802"/>
    </g>
   </g>
   <g id="line2d_59">
    <path d="M 338.688 30.334099 
L 369.60768 250.594218 
" style="fill:none;stroke:#ff0000;stroke-linecap:square;stroke-width:1.5;"/>
    <g>
     <use style="fill-opacity:0;stroke:#ff0000;stroke-linejoin:miter;stroke-width:1.5;" x="338.688" xlink:href="#m067fdc248e" y="30.334099"/>
     <use style="fill-opacity:0;stroke:#ff0000;stroke-linejoin:miter;stroke-width:1.5;" x="369.60768" xlink:href="#m067fdc248e" y="250.594218"/>
    </g>
   </g>
   <g id="line2d_60">
    <path d="M 338.688 30.334099 
L 369.60768 207.616634 
" style="fill:none;stroke:#ff7500;stroke-linecap:square;stroke-width:1.5;"/>
    <g>
     <use style="fill-opacity:0;stroke:#ff7500;stroke-linejoin:bevel;stroke-width:1.5;" x="338.688" xlink:href="#m2f91819e9b" y="30.334099"/>
     <use style="fill-opacity:0;stroke:#ff7500;stroke-linejoin:bevel;stroke-width:1.5;" x="369.60768" xlink:href="#m2f91819e9b" y="207.616634"/>
    </g>
   </g>
   <g id="line2d_61">
    <path d="M 338.688 30.334099 
L 369.60768 164.63905 
" style="fill:none;stroke:#9acd32;stroke-linecap:square;stroke-width:1.5;"/>
    <g>
     <use style="fill-opacity:0;stroke:#9acd32;stroke-linejoin:miter;stroke-width:1.5;" x="338.688" xlink:href="#m4e63d6e213" y="30.334099"/>
     <use style="fill-opacity:0;stroke:#9acd32;stroke-linejoin:miter;stroke-width:1.5;" x="369.60768" xlink:href="#m4e63d6e213" y="164.63905"/>
    </g>
   </g>
   <g id="line2d_62">
    <path d="M 338.688 30.334099 
L 369.60768 121.661465 
" style="fill:none;stroke:#000080;stroke-linecap:square;stroke-width:1.5;"/>
    <g>
     <use style="fill-opacity:0;stroke:#000080;stroke-width:1.5;" x="338.688" xlink:href="#m67623e92c3" y="30.334099"/>
     <use style="fill-opacity:0;stroke:#000080;stroke-width:1.5;" x="369.60768" xlink:href="#m67623e92c3" y="121.661465"/>
    </g>
   </g>
   <g id="line2d_63">
    <path d="M 338.688 30.334099 
L 369.60768 78.683881 
" style="fill:none;stroke:#000080;stroke-linecap:square;stroke-width:1.5;"/>
    <g>
     <use style="fill-opacity:0;stroke:#000080;stroke-width:1.5;" x="338.688" xlink:href="#m67623e92c3" y="30.334099"/>
     <use style="fill-opacity:0;stroke:#000080;stroke-width:1.5;" x="369.60768" xlink:href="#m67623e92c3" y="78.683881"/>
    </g>
   </g>
   <g id="line2d_64">
    <path d="M 338.688 298.944 
L 338.688 30.334099 
" style="fill:none;stroke:#000000;stroke-linecap:square;stroke-width:1.5;"/>
   </g>
   <g id="patch_3">
    <path d="M 57.6 298.944 
L 57.6 27.648 
" style="fill:none;stroke:#000000;stroke-linecap:square;stroke-linejoin:miter;stroke-width:0.8;"/>
   </g>
   <g id="patch_4">
    <path d="M 338.688 298.944 
L 338.688 27.648 
" style="fill:none;stroke:#000000;stroke-linecap:square;stroke-linejoin:miter;stroke-width:0.8;"/>
   </g>
   <g id="patch_5">
    <path d="M 57.6 298.944 
L 338.688 298.944 
" style="fill:none;stroke:#000000;stroke-linecap:square;stroke-linejoin:miter;stroke-width:0.8;"/>
   </g>
   <g id="patch_6">
    <path d="M 57.6 27.648 
L 338.688 27.648 
" style="fill:none;stroke:#000000;stroke-linecap:square;stroke-linejoin:miter;stroke-width:0.8;"/>
   </g>
   <g id="text_13">
    <!-- 400-2e4 -->
    <g transform="translate(375.22944 298.262739)scale(0.17 -0.17)">
     <use xlink:href="#DejaVuSans-52"/>
     <use x="63.623047" xlink:href="#DejaVuSans-48"/>
     <use x="127.246094" xlink:href="#DejaVuSans-48"/>
     <use x="190.869141" xlink:href="#DejaVuSans-45"/>
     <use x="226.953125" xlink:href="#DejaVuSans-50"/>
     <use x="290.576172" xlink:href="#DejaVuSans-101"/>
     <use x="352.099609" xlink:href="#DejaVuSans-52"/>
    </g>
   </g>
   <g id="text_14">
    <!-- 200-2e4 -->
    <g transform="translate(375.22944 255.285155)scale(0.17 -0.17)">
     <use xlink:href="#DejaVuSans-50"/>
     <use x="63.623047" xlink:href="#DejaVuSans-48"/>
     <use x="127.246094" xlink:href="#DejaVuSans-48"/>
     <use x="190.869141" xlink:href="#DejaVuSans-45"/>
     <use x="226.953125" xlink:href="#DejaVuSans-50"/>
     <use x="290.576172" xlink:href="#DejaVuSans-101"/>
     <use x="352.099609" xlink:href="#DejaVuSans-52"/>
    </g>
   </g>
   <g id="text_15">
    <!-- 140-2e4 -->
    <g transform="translate(375.22944 212.307571)scale(0.17 -0.17)">
     <use xlink:href="#DejaVuSans-49"/>
     <use x="63.623047" xlink:href="#DejaVuSans-52"/>
     <use x="127.246094" xlink:href="#DejaVuSans-48"/>
     <use x="190.869141" xlink:href="#DejaVuSans-45"/>
     <use x="226.953125" xlink:href="#DejaVuSans-50"/>
     <use x="290.576172" xlink:href="#DejaVuSans-101"/>
     <use x="352.099609" xlink:href="#DejaVuSans-52"/>
    </g>
   </g>
   <g id="text_16">
    <!-- 120-1e5 -->
    <defs>
     <path d="M 10.796875 72.90625 
L 49.515625 72.90625 
L 49.515625 64.59375 
L 19.828125 64.59375 
L 19.828125 46.734375 
Q 21.96875 47.46875 24.109375 47.828125 
Q 26.265625 48.1875 28.421875 48.1875 
Q 40.625 48.1875 47.75 41.5 
Q 54.890625 34.8125 54.890625 23.390625 
Q 54.890625 11.625 47.5625 5.09375 
Q 40.234375 -1.421875 26.90625 -1.421875 
Q 22.3125 -1.421875 17.546875 -0.640625 
Q 12.796875 0.140625 7.71875 1.703125 
L 7.71875 11.625 
Q 12.109375 9.234375 16.796875 8.0625 
Q 21.484375 6.890625 26.703125 6.890625 
Q 35.15625 6.890625 40.078125 11.328125 
Q 45.015625 15.765625 45.015625 23.390625 
Q 45.015625 31 40.078125 35.4375 
Q 35.15625 39.890625 26.703125 39.890625 
Q 22.75 39.890625 18.8125 39.015625 
Q 14.890625 38.140625 10.796875 36.28125 
z
" id="DejaVuSans-53"/>
    </defs>
    <g transform="translate(375.22944 169.329987)scale(0.17 -0.17)">
     <use xlink:href="#DejaVuSans-49"/>
     <use x="63.623047" xlink:href="#DejaVuSans-50"/>
     <use x="127.246094" xlink:href="#DejaVuSans-48"/>
     <use x="190.869141" xlink:href="#DejaVuSans-45"/>
     <use x="226.953125" xlink:href="#DejaVuSans-49"/>
     <use x="290.576172" xlink:href="#DejaVuSans-101"/>
     <use x="352.099609" xlink:href="#DejaVuSans-53"/>
    </g>
   </g>
   <g id="text_17">
    <!-- 100-2e4 -->
    <g transform="translate(375.22944 126.352403)scale(0.17 -0.17)">
     <use xlink:href="#DejaVuSans-49"/>
     <use x="63.623047" xlink:href="#DejaVuSans-48"/>
     <use x="127.246094" xlink:href="#DejaVuSans-48"/>
     <use x="190.869141" xlink:href="#DejaVuSans-45"/>
     <use x="226.953125" xlink:href="#DejaVuSans-50"/>
     <use x="290.576172" xlink:href="#DejaVuSans-101"/>
     <use x="352.099609" xlink:href="#DejaVuSans-52"/>
    </g>
   </g>
   <g id="text_18">
    <!-- 100-1e5 -->
    <g transform="translate(375.22944 83.374819)scale(0.17 -0.17)">
     <use xlink:href="#DejaVuSans-49"/>
     <use x="63.623047" xlink:href="#DejaVuSans-48"/>
     <use x="127.246094" xlink:href="#DejaVuSans-48"/>
     <use x="190.869141" xlink:href="#DejaVuSans-45"/>
     <use x="226.953125" xlink:href="#DejaVuSans-49"/>
     <use x="290.576172" xlink:href="#DejaVuSans-101"/>
     <use x="352.099609" xlink:href="#DejaVuSans-53"/>
    </g>
   </g>
   <g id="text_19">
    <!-- best 2009 -->
    <defs>
     <path d="M 48.6875 27.296875 
Q 48.6875 37.203125 44.609375 42.84375 
Q 40.53125 48.484375 33.40625 48.484375 
Q 26.265625 48.484375 22.1875 42.84375 
Q 18.109375 37.203125 18.109375 27.296875 
Q 18.109375 17.390625 22.1875 11.75 
Q 26.265625 6.109375 33.40625 6.109375 
Q 40.53125 6.109375 44.609375 11.75 
Q 48.6875 17.390625 48.6875 27.296875 
z
M 18.109375 46.390625 
Q 20.953125 51.265625 25.265625 53.625 
Q 29.59375 56 35.59375 56 
Q 45.5625 56 51.78125 48.09375 
Q 58.015625 40.1875 58.015625 27.296875 
Q 58.015625 14.40625 51.78125 6.484375 
Q 45.5625 -1.421875 35.59375 -1.421875 
Q 29.59375 -1.421875 25.265625 0.953125 
Q 20.953125 3.328125 18.109375 8.203125 
L 18.109375 0 
L 9.078125 0 
L 9.078125 75.984375 
L 18.109375 75.984375 
z
" id="DejaVuSans-98"/>
     <path d="M 10.984375 1.515625 
L 10.984375 10.5 
Q 14.703125 8.734375 18.5 7.8125 
Q 22.3125 6.890625 25.984375 6.890625 
Q 35.75 6.890625 40.890625 13.453125 
Q 46.046875 20.015625 46.78125 33.40625 
Q 43.953125 29.203125 39.59375 26.953125 
Q 35.25 24.703125 29.984375 24.703125 
Q 19.046875 24.703125 12.671875 31.3125 
Q 6.296875 37.9375 6.296875 49.421875 
Q 6.296875 60.640625 12.9375 67.421875 
Q 19.578125 74.21875 30.609375 74.21875 
Q 43.265625 74.21875 49.921875 64.515625 
Q 56.59375 54.828125 56.59375 36.375 
Q 56.59375 19.140625 48.40625 8.859375 
Q 40.234375 -1.421875 26.421875 -1.421875 
Q 22.703125 -1.421875 18.890625 -0.6875 
Q 15.09375 0.046875 10.984375 1.515625 
z
M 30.609375 32.421875 
Q 37.25 32.421875 41.125 36.953125 
Q 45.015625 41.5 45.015625 49.421875 
Q 45.015625 57.28125 41.125 61.84375 
Q 37.25 66.40625 30.609375 66.40625 
Q 23.96875 66.40625 20.09375 61.84375 
Q 16.21875 57.28125 16.21875 49.421875 
Q 16.21875 41.5 20.09375 36.953125 
Q 23.96875 32.421875 30.609375 32.421875 
z
" id="DejaVuSans-57"/>
    </defs>
    <g transform="translate(375.22944 40.397235)scale(0.17 -0.17)">
     <use xlink:href="#DejaVuSans-98"/>
     <use x="63.476562" xlink:href="#DejaVuSans-101"/>
     <use x="125" xlink:href="#DejaVuSans-115"/>
     <use x="177.099609" xlink:href="#DejaVuSans-116"/>
     <use x="216.308594" xlink:href="#DejaVuSans-32"/>
     <use x="248.095703" xlink:href="#DejaVuSans-50"/>
     <use x="311.71875" xlink:href="#DejaVuSans-48"/>
     <use x="375.341797" xlink:href="#DejaVuSans-48"/>
     <use x="438.964844" xlink:href="#DejaVuSans-57"/>
    </g>
   </g>
   <g id="text_20">
    <!-- bbob f2, 40-D -->
    <defs>
     <path d="M 19.671875 64.796875 
L 19.671875 8.109375 
L 31.59375 8.109375 
Q 46.6875 8.109375 53.6875 14.9375 
Q 60.6875 21.78125 60.6875 36.53125 
Q 60.6875 51.171875 53.6875 57.984375 
Q 46.6875 64.796875 31.59375 64.796875 
z
M 9.8125 72.90625 
L 30.078125 72.90625 
Q 51.265625 72.90625 61.171875 64.09375 
Q 71.09375 55.28125 71.09375 36.53125 
Q 71.09375 17.671875 61.125 8.828125 
Q 51.171875 0 30.078125 0 
L 9.8125 0 
z
" id="DejaVuSans-68"/>
    </defs>
    <g transform="translate(60.41088 38.111366)scale(0.102 -0.102)">
     <use xlink:href="#DejaVuSans-98"/>
     <use x="63.476562" xlink:href="#DejaVuSans-98"/>
     <use x="126.953125" xlink:href="#DejaVuSans-111"/>
     <use x="188.134766" xlink:href="#DejaVuSans-98"/>
     <use x="251.611328" xlink:href="#DejaVuSans-32"/>
     <use x="283.398438" xlink:href="#DejaVuSans-102"/>
     <use x="318.603516" xlink:href="#DejaVuSans-50"/>
     <use x="382.226562" xlink:href="#DejaVuSans-44"/>
     <use x="414.013672" xlink:href="#DejaVuSans-32"/>
     <use x="445.800781" xlink:href="#DejaVuSans-52"/>
     <use x="509.423828" xlink:href="#DejaVuSans-48"/>
     <use x="573.046875" xlink:href="#DejaVuSans-45"/>
     <use x="609.130859" xlink:href="#DejaVuSans-68"/>
    </g>
    <!-- 51 targets: 100..1e-08 -->
    <defs>
     <path d="M 11.71875 12.40625 
L 22.015625 12.40625 
L 22.015625 0 
L 11.71875 0 
z
M 11.71875 51.703125 
L 22.015625 51.703125 
L 22.015625 39.3125 
L 11.71875 39.3125 
z
" id="DejaVuSans-58"/>
    </defs>
    <g transform="translate(60.41088 49.533135)scale(0.102 -0.102)">
     <use xlink:href="#DejaVuSans-53"/>
     <use x="63.623047" xlink:href="#DejaVuSans-49"/>
     <use x="127.246094" xlink:href="#DejaVuSans-32"/>
     <use x="159.033203" xlink:href="#DejaVuSans-116"/>
     <use x="198.242188" xlink:href="#DejaVuSans-97"/>
     <use x="259.521484" xlink:href="#DejaVuSans-114"/>
     <use x="300.619141" xlink:href="#DejaVuSans-103"/>
     <use x="364.095703" xlink:href="#DejaVuSans-101"/>
     <use x="425.619141" xlink:href="#DejaVuSans-116"/>
     <use x="464.828125" xlink:href="#DejaVuSans-115"/>
     <use x="516.927734" xlink:href="#DejaVuSans-58"/>
     <use x="550.619141" xlink:href="#DejaVuSans-32"/>
     <use x="582.40625" xlink:href="#DejaVuSans-49"/>
     <use x="646.029297" xlink:href="#DejaVuSans-48"/>
     <use x="709.652344" xlink:href="#DejaVuSans-48"/>
     <use x="773.275391" xlink:href="#DejaVuSans-46"/>
     <use x="805.0625" xlink:href="#DejaVuSans-46"/>
     <use x="836.849609" xlink:href="#DejaVuSans-49"/>
     <use x="900.472656" xlink:href="#DejaVuSans-101"/>
     <use x="961.996094" xlink:href="#DejaVuSans-45"/>
     <use x="998.080078" xlink:href="#DejaVuSans-48"/>
     <use x="1061.703125" xlink:href="#DejaVuSans-56"/>
    </g>
    <!-- 15 instances -->
    <g transform="translate(60.41088 60.954904)scale(0.102 -0.102)">
     <use xlink:href="#DejaVuSans-49"/>
     <use x="63.623047" xlink:href="#DejaVuSans-53"/>
     <use x="127.246094" xlink:href="#DejaVuSans-32"/>
     <use x="159.033203" xlink:href="#DejaVuSans-105"/>
     <use x="186.816406" xlink:href="#DejaVuSans-110"/>
     <use x="250.195312" xlink:href="#DejaVuSans-115"/>
     <use x="302.294922" xlink:href="#DejaVuSans-116"/>
     <use x="341.503906" xlink:href="#DejaVuSans-97"/>
     <use x="402.783203" xlink:href="#DejaVuSans-110"/>
     <use x="466.162109" xlink:href="#DejaVuSans-99"/>
     <use x="521.142578" xlink:href="#DejaVuSans-101"/>
     <use x="582.666016" xlink:href="#DejaVuSans-115"/>
    </g>
   </g>
   <g id="text_21">
    <!-- v2.3.3.18.73 -->
    <defs>
     <path d="M 40.578125 39.3125 
Q 47.65625 37.796875 51.625 33 
Q 55.609375 28.21875 55.609375 21.1875 
Q 55.609375 10.40625 48.1875 4.484375 
Q 40.765625 -1.421875 27.09375 -1.421875 
Q 22.515625 -1.421875 17.65625 -0.515625 
Q 12.796875 0.390625 7.625 2.203125 
L 7.625 11.71875 
Q 11.71875 9.328125 16.59375 8.109375 
Q 21.484375 6.890625 26.8125 6.890625 
Q 36.078125 6.890625 40.9375 10.546875 
Q 45.796875 14.203125 45.796875 21.1875 
Q 45.796875 27.640625 41.28125 31.265625 
Q 36.765625 34.90625 28.71875 34.90625 
L 20.21875 34.90625 
L 20.21875 43.015625 
L 29.109375 43.015625 
Q 36.375 43.015625 40.234375 45.921875 
Q 44.09375 48.828125 44.09375 54.296875 
Q 44.09375 59.90625 40.109375 62.90625 
Q 36.140625 65.921875 28.71875 65.921875 
Q 24.65625 65.921875 20.015625 65.03125 
Q 15.375 64.15625 9.8125 62.3125 
L 9.8125 71.09375 
Q 15.4375 72.65625 20.34375 73.4375 
Q 25.25 74.21875 29.59375 74.21875 
Q 40.828125 74.21875 47.359375 69.109375 
Q 53.90625 64.015625 53.90625 55.328125 
Q 53.90625 49.265625 50.4375 45.09375 
Q 46.96875 40.921875 40.578125 39.3125 
z
" id="DejaVuSans-51"/>
     <path d="M 8.203125 72.90625 
L 55.078125 72.90625 
L 55.078125 68.703125 
L 28.609375 0 
L 18.3125 0 
L 43.21875 64.59375 
L 8.203125 64.59375 
z
" id="DejaVuSans-55"/>
    </defs>
    <g style="fill:#808080;" transform="translate(166.559625 294.151352)scale(0.1 -0.1)">
     <use xlink:href="#DejaVuSans-118"/>
     <use x="59.179688" xlink:href="#DejaVuSans-50"/>
     <use x="122.802734" xlink:href="#DejaVuSans-46"/>
     <use x="154.589844" xlink:href="#DejaVuSans-51"/>
     <use x="218.212891" xlink:href="#DejaVuSans-46"/>
     <use x="250" xlink:href="#DejaVuSans-51"/>
     <use x="313.623047" xlink:href="#DejaVuSans-46"/>
     <use x="345.410156" xlink:href="#DejaVuSans-49"/>
     <use x="409.033203" xlink:href="#DejaVuSans-56"/>
     <use x="472.65625" xlink:href="#DejaVuSans-46"/>
     <use x="504.443359" xlink:href="#DejaVuSans-55"/>
     <use x="568.066406" xlink:href="#DejaVuSans-51"/>
    </g>
   </g>
   <g id="text_22">
    <!-- 2 Ellipsoid separable -->
    <defs>
     <path d="M 9.8125 72.90625 
L 55.90625 72.90625 
L 55.90625 64.59375 
L 19.671875 64.59375 
L 19.671875 43.015625 
L 54.390625 43.015625 
L 54.390625 34.71875 
L 19.671875 34.71875 
L 19.671875 8.296875 
L 56.78125 8.296875 
L 56.78125 0 
L 9.8125 0 
z
" id="DejaVuSans-69"/>
    </defs>
    <g transform="translate(94.611187 21.648)scale(0.2 -0.2)">
     <use xlink:href="#DejaVuSans-50"/>
     <use x="63.623047" xlink:href="#DejaVuSans-32"/>
     <use x="95.410156" xlink:href="#DejaVuSans-69"/>
     <use x="158.59375" xlink:href="#DejaVuSans-108"/>
     <use x="186.376953" xlink:href="#DejaVuSans-108"/>
     <use x="214.160156" xlink:href="#DejaVuSans-105"/>
     <use x="241.943359" xlink:href="#DejaVuSans-112"/>
     <use x="305.419922" xlink:href="#DejaVuSans-115"/>
     <use x="357.519531" xlink:href="#DejaVuSans-111"/>
     <use x="418.701172" xlink:href="#DejaVuSans-105"/>
     <use x="446.484375" xlink:href="#DejaVuSans-100"/>
     <use x="509.960938" xlink:href="#DejaVuSans-32"/>
     <use x="541.748047" xlink:href="#DejaVuSans-115"/>
     <use x="593.847656" xlink:href="#DejaVuSans-101"/>
     <use x="655.371094" xlink:href="#DejaVuSans-112"/>
     <use x="718.847656" xlink:href="#DejaVuSans-97"/>
     <use x="780.126953" xlink:href="#DejaVuSans-114"/>
     <use x="821.240234" xlink:href="#DejaVuSans-97"/>
     <use x="882.519531" xlink:href="#DejaVuSans-98"/>
     <use x="945.996094" xlink:href="#DejaVuSans-108"/>
     <use x="973.779297" xlink:href="#DejaVuSans-101"/>
    </g>
   </g>
  </g>
 </g>
 <defs>
  <clipPath id="pf4683a404e">
   <rect height="271.296" width="281.088" x="57.6" y="27.648"/>
  </clipPath>
 </defs>
</svg>
