<?xml version="1.0" encoding="utf-8" standalone="no"?>
<!DOCTYPE svg PUBLIC "-//W3C//DTD SVG 1.1//EN"
  "http://www.w3.org/Graphics/SVG/1.1/DTD/svg11.dtd">
<!-- Created with matplotlib (https://matplotlib.org/) -->
<svg height="345.6pt" version="1.1" viewBox="0 0 460.8 345.6" width="460.8pt" xmlns="http://www.w3.org/2000/svg" xmlns:xlink="http://www.w3.org/1999/xlink">
 <defs>
  <style type="text/css">
*{stroke-linecap:butt;stroke-linejoin:round;}
  </style>
 </defs>
 <g id="figure_1">
  <g id="patch_1">
   <path d="M 0 345.6 
L 460.8 345.6 
L 460.8 0 
L 0 0 
z
" style="fill:#ffffff;"/>
  </g>
  <g id="axes_1">
   <g id="patch_2">
    <path d="M 57.6 298.944 
L 338.688 298.944 
L 338.688 27.648 
L 57.6 27.648 
z
" style="fill:#ffffff;"/>
   </g>
   <g id="line2d_1">
    <path d="M 138.561269 298.944 
L 138.561269 293.677139 
L 144.062866 293.677139 
L 144.062866 288.410278 
L 144.958609 288.410278 
L 144.958609 283.143418 
L 146.947864 283.143418 
L 146.947864 277.876557 
L 147.409112 277.876557 
L 147.409112 272.609696 
L 148.497276 272.609696 
L 148.497276 267.342835 
L 148.966103 267.342835 
L 148.966103 262.075974 
L 149.25057 262.075974 
L 149.25057 256.809114 
L 150.249899 256.809114 
L 150.249899 251.542253 
L 150.899466 251.542253 
L 150.899466 246.275392 
L 151.437608 246.275392 
L 151.437608 241.008531 
L 151.708484 241.008531 
L 151.708484 235.74167 
L 152.283884 235.74167 
L 152.283884 230.47481 
L 152.981099 230.47481 
L 152.981099 225.207949 
L 153.090987 225.207949 
L 153.090987 219.941088 
L 153.573542 219.941088 
L 153.573542 214.674227 
L 153.658577 214.674227 
L 153.658577 209.407366 
L 153.736164 209.407366 
L 153.736164 204.140506 
L 153.799388 204.140506 
L 153.799388 198.873645 
L 155.329071 198.873645 
L 155.329071 193.606784 
L 155.412374 193.606784 
L 155.412374 188.339923 
L 155.533415 188.339923 
L 155.533415 183.073062 
L 155.678822 183.073062 
L 155.678822 177.806202 
L 155.716556 177.806202 
L 155.716556 172.539341 
L 155.810534 172.539341 
L 155.810534 167.27248 
L 155.879132 167.27248 
L 155.879132 162.005619 
L 155.94746 162.005619 
L 155.94746 156.738758 
L 156.034038 156.738758 
L 156.034038 151.471897 
L 156.101764 151.471897 
L 156.101764 146.205037 
L 156.181465 146.205037 
L 156.181465 140.938176 
L 157.540141 140.938176 
L 157.540141 135.671315 
L 157.652944 135.671315 
L 157.652944 130.404454 
L 157.748256 130.404454 
L 157.748256 125.137593 
L 160.914762 125.137593 
L 160.914762 119.870733 
L 164.117618 119.870733 
L 164.117618 114.603872 
L 164.306736 114.603872 
L 164.306736 109.337011 
L 164.394804 109.337011 
L 164.394804 104.07015 
L 164.467222 104.07015 
L 164.467222 98.803289 
L 164.531763 98.803289 
L 164.531763 93.536429 
L 164.577177 93.536429 
L 164.577177 88.269568 
L 164.671413 88.269568 
L 164.671413 83.002707 
L 164.738949 83.002707 
L 164.738949 77.735846 
L 164.824867 77.735846 
L 164.824867 72.468985 
L 164.891812 72.468985 
L 164.891812 67.202125 
L 164.962199 67.202125 
L 164.962199 61.935264 
L 165.043347 61.935264 
L 165.043347 56.668403 
L 165.113126 56.668403 
L 165.113126 51.401542 
L 165.168018 51.401542 
L 165.168018 46.134681 
L 165.219096 46.134681 
L 165.219096 40.867821 
L 165.291805 40.867821 
L 165.291805 35.60096 
L 165.364212 35.60096 
L 165.364212 30.334099 
L 338.688 30.334099 
" style="fill:none;stroke:#f5deb3;stroke-linecap:square;stroke-width:4;"/>
   </g>
   <g id="line2d_2">
    <defs>
     <path d="M -0 7.778175 
L 7.778175 0 
L 0 -7.778175 
L -7.778175 -0 
z
" id="m057ac734f1" style="stroke:#f5deb3;stroke-linejoin:miter;stroke-width:1.5;"/>
    </defs>
    <g>
     <use style="fill:#f5deb3;stroke:#f5deb3;stroke-linejoin:miter;stroke-width:1.5;" x="155.716556" xlink:href="#m057ac734f1" y="177.806202"/>
     <use style="fill:#f5deb3;stroke:#f5deb3;stroke-linejoin:miter;stroke-width:1.5;" x="165.219096" xlink:href="#m057ac734f1" y="46.134681"/>
     <use style="fill:#f5deb3;stroke:#f5deb3;stroke-linejoin:miter;stroke-width:1.5;" x="165.364212" xlink:href="#m057ac734f1" y="30.334099"/>
     <use style="fill:#f5deb3;stroke:#f5deb3;stroke-linejoin:miter;stroke-width:1.5;" x="165.364212" xlink:href="#m057ac734f1" y="30.334099"/>
     <use style="fill:#f5deb3;stroke:#f5deb3;stroke-linejoin:miter;stroke-width:1.5;" x="338.688" xlink:href="#m057ac734f1" y="30.334099"/>
    </g>
   </g>
   <g id="line2d_3">
    <path style="fill:none;stroke:#f5deb3;stroke-linecap:square;stroke-width:4;"/>
    <g/>
   </g>
   <g id="line2d_4">
    <path d="M 338.688 30.334099 
L 369.60768 164.63905 
" style="fill:none;stroke:#f5deb3;stroke-linecap:square;stroke-width:4;"/>
    <g>
     <use style="fill:#f5deb3;stroke:#f5deb3;stroke-linejoin:miter;stroke-width:1.5;" x="338.688" xlink:href="#m057ac734f1" y="30.334099"/>
     <use style="fill:#f5deb3;stroke:#f5deb3;stroke-linejoin:miter;stroke-width:1.5;" x="369.60768" xlink:href="#m057ac734f1" y="164.63905"/>
    </g>
   </g>
   <g id="matplotlib.axis_1">
    <g id="xtick_1">
     <g id="line2d_5">
      <path clip-path="url(#p430c1166bb)" d="M 57.6 298.944 
L 57.6 27.648 
" style="fill:none;stroke:#b0b0b0;stroke-linecap:square;stroke-width:0.8;"/>
     </g>
     <g id="line2d_6">
      <defs>
       <path d="M 0 0 
L 0 3.5 
" id="m8daad6fff5" style="stroke:#000000;stroke-width:0.8;"/>
      </defs>
      <g>
       <use style="stroke:#000000;stroke-width:0.8;" x="57.6" xlink:href="#m8daad6fff5" y="298.944"/>
      </g>
     </g>
     <g id="text_1">
      <!-- 0 -->
      <defs>
       <path d="M 31.78125 66.40625 
Q 24.171875 66.40625 20.328125 58.90625 
Q 16.5 51.421875 16.5 36.375 
Q 16.5 21.390625 20.328125 13.890625 
Q 24.171875 6.390625 31.78125 6.390625 
Q 39.453125 6.390625 43.28125 13.890625 
Q 47.125 21.390625 47.125 36.375 
Q 47.125 51.421875 43.28125 58.90625 
Q 39.453125 66.40625 31.78125 66.40625 
z
M 31.78125 74.21875 
Q 44.046875 74.21875 50.515625 64.515625 
Q 56.984375 54.828125 56.984375 36.375 
Q 56.984375 17.96875 50.515625 8.265625 
Q 44.046875 -1.421875 31.78125 -1.421875 
Q 19.53125 -1.421875 13.0625 8.265625 
Q 6.59375 17.96875 6.59375 36.375 
Q 6.59375 54.828125 13.0625 64.515625 
Q 19.53125 74.21875 31.78125 74.21875 
z
" id="DejaVuSans-48"/>
      </defs>
      <g transform="translate(51.2375 321.140875)scale(0.2 -0.2)">
       <use xlink:href="#DejaVuSans-48"/>
      </g>
     </g>
    </g>
    <g id="xtick_2">
     <g id="line2d_7">
      <path clip-path="url(#p430c1166bb)" d="M 137.910857 298.944 
L 137.910857 27.648 
" style="fill:none;stroke:#b0b0b0;stroke-linecap:square;stroke-width:0.8;"/>
     </g>
     <g id="line2d_8">
      <g>
       <use style="stroke:#000000;stroke-width:0.8;" x="137.910857" xlink:href="#m8daad6fff5" y="298.944"/>
      </g>
     </g>
     <g id="text_2">
      <!-- 2 -->
      <defs>
       <path d="M 19.1875 8.296875 
L 53.609375 8.296875 
L 53.609375 0 
L 7.328125 0 
L 7.328125 8.296875 
Q 12.9375 14.109375 22.625 23.890625 
Q 32.328125 33.6875 34.8125 36.53125 
Q 39.546875 41.84375 41.421875 45.53125 
Q 43.3125 49.21875 43.3125 52.78125 
Q 43.3125 58.59375 39.234375 62.25 
Q 35.15625 65.921875 28.609375 65.921875 
Q 23.96875 65.921875 18.8125 64.3125 
Q 13.671875 62.703125 7.8125 59.421875 
L 7.8125 69.390625 
Q 13.765625 71.78125 18.9375 73 
Q 24.125 74.21875 28.421875 74.21875 
Q 39.75 74.21875 46.484375 68.546875 
Q 53.21875 62.890625 53.21875 53.421875 
Q 53.21875 48.921875 51.53125 44.890625 
Q 49.859375 40.875 45.40625 35.40625 
Q 44.1875 33.984375 37.640625 27.21875 
Q 31.109375 20.453125 19.1875 8.296875 
z
" id="DejaVuSans-50"/>
      </defs>
      <g transform="translate(131.548357 321.140875)scale(0.2 -0.2)">
       <use xlink:href="#DejaVuSans-50"/>
      </g>
     </g>
    </g>
    <g id="xtick_3">
     <g id="line2d_9">
      <path clip-path="url(#p430c1166bb)" d="M 218.221714 298.944 
L 218.221714 27.648 
" style="fill:none;stroke:#b0b0b0;stroke-linecap:square;stroke-width:0.8;"/>
     </g>
     <g id="line2d_10">
      <g>
       <use style="stroke:#000000;stroke-width:0.8;" x="218.221714" xlink:href="#m8daad6fff5" y="298.944"/>
      </g>
     </g>
     <g id="text_3">
      <!-- 4 -->
      <defs>
       <path d="M 37.796875 64.3125 
L 12.890625 25.390625 
L 37.796875 25.390625 
z
M 35.203125 72.90625 
L 47.609375 72.90625 
L 47.609375 25.390625 
L 58.015625 25.390625 
L 58.015625 17.1875 
L 47.609375 17.1875 
L 47.609375 0 
L 37.796875 0 
L 37.796875 17.1875 
L 4.890625 17.1875 
L 4.890625 26.703125 
z
" id="DejaVuSans-52"/>
      </defs>
      <g transform="translate(211.859214 321.140875)scale(0.2 -0.2)">
       <use xlink:href="#DejaVuSans-52"/>
      </g>
     </g>
    </g>
    <g id="xtick_4">
     <g id="line2d_11">
      <path clip-path="url(#p430c1166bb)" d="M 298.532571 298.944 
L 298.532571 27.648 
" style="fill:none;stroke:#b0b0b0;stroke-linecap:square;stroke-width:0.8;"/>
     </g>
     <g id="line2d_12">
      <g>
       <use style="stroke:#000000;stroke-width:0.8;" x="298.532571" xlink:href="#m8daad6fff5" y="298.944"/>
      </g>
     </g>
     <g id="text_4">
      <!-- 6 -->
      <defs>
       <path d="M 33.015625 40.375 
Q 26.375 40.375 22.484375 35.828125 
Q 18.609375 31.296875 18.609375 23.390625 
Q 18.609375 15.53125 22.484375 10.953125 
Q 26.375 6.390625 33.015625 6.390625 
Q 39.65625 6.390625 43.53125 10.953125 
Q 47.40625 15.53125 47.40625 23.390625 
Q 47.40625 31.296875 43.53125 35.828125 
Q 39.65625 40.375 33.015625 40.375 
z
M 52.59375 71.296875 
L 52.59375 62.3125 
Q 48.875 64.0625 45.09375 64.984375 
Q 41.3125 65.921875 37.59375 65.921875 
Q 27.828125 65.921875 22.671875 59.328125 
Q 17.53125 52.734375 16.796875 39.40625 
Q 19.671875 43.65625 24.015625 45.921875 
Q 28.375 48.1875 33.59375 48.1875 
Q 44.578125 48.1875 50.953125 41.515625 
Q 57.328125 34.859375 57.328125 23.390625 
Q 57.328125 12.15625 50.6875 5.359375 
Q 44.046875 -1.421875 33.015625 -1.421875 
Q 20.359375 -1.421875 13.671875 8.265625 
Q 6.984375 17.96875 6.984375 36.375 
Q 6.984375 53.65625 15.1875 63.9375 
Q 23.390625 74.21875 37.203125 74.21875 
Q 40.921875 74.21875 44.703125 73.484375 
Q 48.484375 72.75 52.59375 71.296875 
z
" id="DejaVuSans-54"/>
      </defs>
      <g transform="translate(292.170071 321.140875)scale(0.2 -0.2)">
       <use xlink:href="#DejaVuSans-54"/>
      </g>
     </g>
    </g>
    <g id="xtick_5">
     <g id="line2d_13">
      <path clip-path="url(#p430c1166bb)" d="M 97.755429 298.944 
L 97.755429 27.648 
" style="fill:none;stroke:#b0b0b0;stroke-linecap:square;stroke-width:0.8;"/>
     </g>
     <g id="line2d_14">
      <defs>
       <path d="M 0 0 
L 0 2 
" id="mcc2c66ab4c" style="stroke:#000000;stroke-width:0.6;"/>
      </defs>
      <g>
       <use style="stroke:#000000;stroke-width:0.6;" x="97.755429" xlink:href="#mcc2c66ab4c" y="298.944"/>
      </g>
     </g>
    </g>
    <g id="xtick_6">
     <g id="line2d_15">
      <path clip-path="url(#p430c1166bb)" d="M 178.066286 298.944 
L 178.066286 27.648 
" style="fill:none;stroke:#b0b0b0;stroke-linecap:square;stroke-width:0.8;"/>
     </g>
     <g id="line2d_16">
      <g>
       <use style="stroke:#000000;stroke-width:0.6;" x="178.066286" xlink:href="#mcc2c66ab4c" y="298.944"/>
      </g>
     </g>
    </g>
    <g id="xtick_7">
     <g id="line2d_17">
      <path clip-path="url(#p430c1166bb)" d="M 258.377143 298.944 
L 258.377143 27.648 
" style="fill:none;stroke:#b0b0b0;stroke-linecap:square;stroke-width:0.8;"/>
     </g>
     <g id="line2d_18">
      <g>
       <use style="stroke:#000000;stroke-width:0.6;" x="258.377143" xlink:href="#mcc2c66ab4c" y="298.944"/>
      </g>
     </g>
    </g>
    <g id="xtick_8">
     <g id="line2d_19">
      <path clip-path="url(#p430c1166bb)" d="M 338.688 298.944 
L 338.688 27.648 
" style="fill:none;stroke:#b0b0b0;stroke-linecap:square;stroke-width:0.8;"/>
     </g>
     <g id="line2d_20">
      <g>
       <use style="stroke:#000000;stroke-width:0.6;" x="338.688" xlink:href="#mcc2c66ab4c" y="298.944"/>
      </g>
     </g>
    </g>
    <g id="text_5">
     <!-- log10(# f-evals / dimension) -->
     <defs>
      <path d="M 9.421875 75.984375 
L 18.40625 75.984375 
L 18.40625 0 
L 9.421875 0 
z
" id="DejaVuSans-108"/>
      <path d="M 30.609375 48.390625 
Q 23.390625 48.390625 19.1875 42.75 
Q 14.984375 37.109375 14.984375 27.296875 
Q 14.984375 17.484375 19.15625 11.84375 
Q 23.34375 6.203125 30.609375 6.203125 
Q 37.796875 6.203125 41.984375 11.859375 
Q 46.1875 17.53125 46.1875 27.296875 
Q 46.1875 37.015625 41.984375 42.703125 
Q 37.796875 48.390625 30.609375 48.390625 
z
M 30.609375 56 
Q 42.328125 56 49.015625 48.375 
Q 55.71875 40.765625 55.71875 27.296875 
Q 55.71875 13.875 49.015625 6.21875 
Q 42.328125 -1.421875 30.609375 -1.421875 
Q 18.84375 -1.421875 12.171875 6.21875 
Q 5.515625 13.875 5.515625 27.296875 
Q 5.515625 40.765625 12.171875 48.375 
Q 18.84375 56 30.609375 56 
z
" id="DejaVuSans-111"/>
      <path d="M 45.40625 27.984375 
Q 45.40625 37.75 41.375 43.109375 
Q 37.359375 48.484375 30.078125 48.484375 
Q 22.859375 48.484375 18.828125 43.109375 
Q 14.796875 37.75 14.796875 27.984375 
Q 14.796875 18.265625 18.828125 12.890625 
Q 22.859375 7.515625 30.078125 7.515625 
Q 37.359375 7.515625 41.375 12.890625 
Q 45.40625 18.265625 45.40625 27.984375 
z
M 54.390625 6.78125 
Q 54.390625 -7.171875 48.1875 -13.984375 
Q 42 -20.796875 29.203125 -20.796875 
Q 24.46875 -20.796875 20.265625 -20.09375 
Q 16.0625 -19.390625 12.109375 -17.921875 
L 12.109375 -9.1875 
Q 16.0625 -11.328125 19.921875 -12.34375 
Q 23.78125 -13.375 27.78125 -13.375 
Q 36.625 -13.375 41.015625 -8.765625 
Q 45.40625 -4.15625 45.40625 5.171875 
L 45.40625 9.625 
Q 42.625 4.78125 38.28125 2.390625 
Q 33.9375 0 27.875 0 
Q 17.828125 0 11.671875 7.65625 
Q 5.515625 15.328125 5.515625 27.984375 
Q 5.515625 40.671875 11.671875 48.328125 
Q 17.828125 56 27.875 56 
Q 33.9375 56 38.28125 53.609375 
Q 42.625 51.21875 45.40625 46.390625 
L 45.40625 54.6875 
L 54.390625 54.6875 
z
" id="DejaVuSans-103"/>
      <path d="M 12.40625 8.296875 
L 28.515625 8.296875 
L 28.515625 63.921875 
L 10.984375 60.40625 
L 10.984375 69.390625 
L 28.421875 72.90625 
L 38.28125 72.90625 
L 38.28125 8.296875 
L 54.390625 8.296875 
L 54.390625 0 
L 12.40625 0 
z
" id="DejaVuSans-49"/>
      <path d="M 31 75.875 
Q 24.46875 64.65625 21.28125 53.65625 
Q 18.109375 42.671875 18.109375 31.390625 
Q 18.109375 20.125 21.3125 9.0625 
Q 24.515625 -2 31 -13.1875 
L 23.1875 -13.1875 
Q 15.875 -1.703125 12.234375 9.375 
Q 8.59375 20.453125 8.59375 31.390625 
Q 8.59375 42.28125 12.203125 53.3125 
Q 15.828125 64.359375 23.1875 75.875 
z
" id="DejaVuSans-40"/>
      <path d="M 51.125 44 
L 36.921875 44 
L 32.8125 27.6875 
L 47.125 27.6875 
z
M 43.796875 71.78125 
L 38.71875 51.515625 
L 52.984375 51.515625 
L 58.109375 71.78125 
L 65.921875 71.78125 
L 60.890625 51.515625 
L 76.125 51.515625 
L 76.125 44 
L 58.984375 44 
L 54.984375 27.6875 
L 70.515625 27.6875 
L 70.515625 20.21875 
L 53.078125 20.21875 
L 48 0 
L 40.1875 0 
L 45.21875 20.21875 
L 30.90625 20.21875 
L 25.875 0 
L 18.015625 0 
L 23.09375 20.21875 
L 7.71875 20.21875 
L 7.71875 27.6875 
L 24.90625 27.6875 
L 29 44 
L 13.28125 44 
L 13.28125 51.515625 
L 30.90625 51.515625 
L 35.890625 71.78125 
z
" id="DejaVuSans-35"/>
      <path id="DejaVuSans-32"/>
      <path d="M 37.109375 75.984375 
L 37.109375 68.5 
L 28.515625 68.5 
Q 23.6875 68.5 21.796875 66.546875 
Q 19.921875 64.59375 19.921875 59.515625 
L 19.921875 54.6875 
L 34.71875 54.6875 
L 34.71875 47.703125 
L 19.921875 47.703125 
L 19.921875 0 
L 10.890625 0 
L 10.890625 47.703125 
L 2.296875 47.703125 
L 2.296875 54.6875 
L 10.890625 54.6875 
L 10.890625 58.5 
Q 10.890625 67.625 15.140625 71.796875 
Q 19.390625 75.984375 28.609375 75.984375 
z
" id="DejaVuSans-102"/>
      <path d="M 4.890625 31.390625 
L 31.203125 31.390625 
L 31.203125 23.390625 
L 4.890625 23.390625 
z
" id="DejaVuSans-45"/>
      <path d="M 56.203125 29.59375 
L 56.203125 25.203125 
L 14.890625 25.203125 
Q 15.484375 15.921875 20.484375 11.0625 
Q 25.484375 6.203125 34.421875 6.203125 
Q 39.59375 6.203125 44.453125 7.46875 
Q 49.3125 8.734375 54.109375 11.28125 
L 54.109375 2.78125 
Q 49.265625 0.734375 44.1875 -0.34375 
Q 39.109375 -1.421875 33.890625 -1.421875 
Q 20.796875 -1.421875 13.15625 6.1875 
Q 5.515625 13.8125 5.515625 26.8125 
Q 5.515625 40.234375 12.765625 48.109375 
Q 20.015625 56 32.328125 56 
Q 43.359375 56 49.78125 48.890625 
Q 56.203125 41.796875 56.203125 29.59375 
z
M 47.21875 32.234375 
Q 47.125 39.59375 43.09375 43.984375 
Q 39.0625 48.390625 32.421875 48.390625 
Q 24.90625 48.390625 20.390625 44.140625 
Q 15.875 39.890625 15.1875 32.171875 
z
" id="DejaVuSans-101"/>
      <path d="M 2.984375 54.6875 
L 12.5 54.6875 
L 29.59375 8.796875 
L 46.6875 54.6875 
L 56.203125 54.6875 
L 35.6875 0 
L 23.484375 0 
z
" id="DejaVuSans-118"/>
      <path d="M 34.28125 27.484375 
Q 23.390625 27.484375 19.1875 25 
Q 14.984375 22.515625 14.984375 16.5 
Q 14.984375 11.71875 18.140625 8.90625 
Q 21.296875 6.109375 26.703125 6.109375 
Q 34.1875 6.109375 38.703125 11.40625 
Q 43.21875 16.703125 43.21875 25.484375 
L 43.21875 27.484375 
z
M 52.203125 31.203125 
L 52.203125 0 
L 43.21875 0 
L 43.21875 8.296875 
Q 40.140625 3.328125 35.546875 0.953125 
Q 30.953125 -1.421875 24.3125 -1.421875 
Q 15.921875 -1.421875 10.953125 3.296875 
Q 6 8.015625 6 15.921875 
Q 6 25.140625 12.171875 29.828125 
Q 18.359375 34.515625 30.609375 34.515625 
L 43.21875 34.515625 
L 43.21875 35.40625 
Q 43.21875 41.609375 39.140625 45 
Q 35.0625 48.390625 27.6875 48.390625 
Q 23 48.390625 18.546875 47.265625 
Q 14.109375 46.140625 10.015625 43.890625 
L 10.015625 52.203125 
Q 14.9375 54.109375 19.578125 55.046875 
Q 24.21875 56 28.609375 56 
Q 40.484375 56 46.34375 49.84375 
Q 52.203125 43.703125 52.203125 31.203125 
z
" id="DejaVuSans-97"/>
      <path d="M 44.28125 53.078125 
L 44.28125 44.578125 
Q 40.484375 46.53125 36.375 47.5 
Q 32.28125 48.484375 27.875 48.484375 
Q 21.1875 48.484375 17.84375 46.4375 
Q 14.5 44.390625 14.5 40.28125 
Q 14.5 37.15625 16.890625 35.375 
Q 19.28125 33.59375 26.515625 31.984375 
L 29.59375 31.296875 
Q 39.15625 29.25 43.1875 25.515625 
Q 47.21875 21.78125 47.21875 15.09375 
Q 47.21875 7.46875 41.1875 3.015625 
Q 35.15625 -1.421875 24.609375 -1.421875 
Q 20.21875 -1.421875 15.453125 -0.5625 
Q 10.6875 0.296875 5.421875 2 
L 5.421875 11.28125 
Q 10.40625 8.6875 15.234375 7.390625 
Q 20.0625 6.109375 24.8125 6.109375 
Q 31.15625 6.109375 34.5625 8.28125 
Q 37.984375 10.453125 37.984375 14.40625 
Q 37.984375 18.0625 35.515625 20.015625 
Q 33.0625 21.96875 24.703125 23.78125 
L 21.578125 24.515625 
Q 13.234375 26.265625 9.515625 29.90625 
Q 5.8125 33.546875 5.8125 39.890625 
Q 5.8125 47.609375 11.28125 51.796875 
Q 16.75 56 26.8125 56 
Q 31.78125 56 36.171875 55.265625 
Q 40.578125 54.546875 44.28125 53.078125 
z
" id="DejaVuSans-115"/>
      <path d="M 25.390625 72.90625 
L 33.6875 72.90625 
L 8.296875 -9.28125 
L 0 -9.28125 
z
" id="DejaVuSans-47"/>
      <path d="M 45.40625 46.390625 
L 45.40625 75.984375 
L 54.390625 75.984375 
L 54.390625 0 
L 45.40625 0 
L 45.40625 8.203125 
Q 42.578125 3.328125 38.25 0.953125 
Q 33.9375 -1.421875 27.875 -1.421875 
Q 17.96875 -1.421875 11.734375 6.484375 
Q 5.515625 14.40625 5.515625 27.296875 
Q 5.515625 40.1875 11.734375 48.09375 
Q 17.96875 56 27.875 56 
Q 33.9375 56 38.25 53.625 
Q 42.578125 51.265625 45.40625 46.390625 
z
M 14.796875 27.296875 
Q 14.796875 17.390625 18.875 11.75 
Q 22.953125 6.109375 30.078125 6.109375 
Q 37.203125 6.109375 41.296875 11.75 
Q 45.40625 17.390625 45.40625 27.296875 
Q 45.40625 37.203125 41.296875 42.84375 
Q 37.203125 48.484375 30.078125 48.484375 
Q 22.953125 48.484375 18.875 42.84375 
Q 14.796875 37.203125 14.796875 27.296875 
z
" id="DejaVuSans-100"/>
      <path d="M 9.421875 54.6875 
L 18.40625 54.6875 
L 18.40625 0 
L 9.421875 0 
z
M 9.421875 75.984375 
L 18.40625 75.984375 
L 18.40625 64.59375 
L 9.421875 64.59375 
z
" id="DejaVuSans-105"/>
      <path d="M 52 44.1875 
Q 55.375 50.25 60.0625 53.125 
Q 64.75 56 71.09375 56 
Q 79.640625 56 84.28125 50.015625 
Q 88.921875 44.046875 88.921875 33.015625 
L 88.921875 0 
L 79.890625 0 
L 79.890625 32.71875 
Q 79.890625 40.578125 77.09375 44.375 
Q 74.3125 48.1875 68.609375 48.1875 
Q 61.625 48.1875 57.5625 43.546875 
Q 53.515625 38.921875 53.515625 30.90625 
L 53.515625 0 
L 44.484375 0 
L 44.484375 32.71875 
Q 44.484375 40.625 41.703125 44.40625 
Q 38.921875 48.1875 33.109375 48.1875 
Q 26.21875 48.1875 22.15625 43.53125 
Q 18.109375 38.875 18.109375 30.90625 
L 18.109375 0 
L 9.078125 0 
L 9.078125 54.6875 
L 18.109375 54.6875 
L 18.109375 46.1875 
Q 21.1875 51.21875 25.484375 53.609375 
Q 29.78125 56 35.6875 56 
Q 41.65625 56 45.828125 52.96875 
Q 50 49.953125 52 44.1875 
z
" id="DejaVuSans-109"/>
      <path d="M 54.890625 33.015625 
L 54.890625 0 
L 45.90625 0 
L 45.90625 32.71875 
Q 45.90625 40.484375 42.875 44.328125 
Q 39.84375 48.1875 33.796875 48.1875 
Q 26.515625 48.1875 22.3125 43.546875 
Q 18.109375 38.921875 18.109375 30.90625 
L 18.109375 0 
L 9.078125 0 
L 9.078125 54.6875 
L 18.109375 54.6875 
L 18.109375 46.1875 
Q 21.34375 51.125 25.703125 53.5625 
Q 30.078125 56 35.796875 56 
Q 45.21875 56 50.046875 50.171875 
Q 54.890625 44.34375 54.890625 33.015625 
z
" id="DejaVuSans-110"/>
      <path d="M 8.015625 75.875 
L 15.828125 75.875 
Q 23.140625 64.359375 26.78125 53.3125 
Q 30.421875 42.28125 30.421875 31.390625 
Q 30.421875 20.453125 26.78125 9.375 
Q 23.140625 -1.703125 15.828125 -13.1875 
L 8.015625 -13.1875 
Q 14.5 -2 17.703125 9.0625 
Q 20.90625 20.125 20.90625 31.390625 
Q 20.90625 42.671875 17.703125 53.65625 
Q 14.5 64.65625 8.015625 75.875 
z
" id="DejaVuSans-41"/>
     </defs>
     <g transform="translate(77.303219 342.217594)scale(0.17 -0.17)">
      <use xlink:href="#DejaVuSans-108"/>
      <use x="27.783203" xlink:href="#DejaVuSans-111"/>
      <use x="88.964844" xlink:href="#DejaVuSans-103"/>
      <use x="152.441406" xlink:href="#DejaVuSans-49"/>
      <use x="216.064453" xlink:href="#DejaVuSans-48"/>
      <use x="279.6875" xlink:href="#DejaVuSans-40"/>
      <use x="318.701172" xlink:href="#DejaVuSans-35"/>
      <use x="402.490234" xlink:href="#DejaVuSans-32"/>
      <use x="434.277344" xlink:href="#DejaVuSans-102"/>
      <use x="469.404297" xlink:href="#DejaVuSans-45"/>
      <use x="505.488281" xlink:href="#DejaVuSans-101"/>
      <use x="567.011719" xlink:href="#DejaVuSans-118"/>
      <use x="626.191406" xlink:href="#DejaVuSans-97"/>
      <use x="687.470703" xlink:href="#DejaVuSans-108"/>
      <use x="715.253906" xlink:href="#DejaVuSans-115"/>
      <use x="767.353516" xlink:href="#DejaVuSans-32"/>
      <use x="799.140625" xlink:href="#DejaVuSans-47"/>
      <use x="832.832031" xlink:href="#DejaVuSans-32"/>
      <use x="864.619141" xlink:href="#DejaVuSans-100"/>
      <use x="928.095703" xlink:href="#DejaVuSans-105"/>
      <use x="955.878906" xlink:href="#DejaVuSans-109"/>
      <use x="1053.291016" xlink:href="#DejaVuSans-101"/>
      <use x="1114.814453" xlink:href="#DejaVuSans-110"/>
      <use x="1178.193359" xlink:href="#DejaVuSans-115"/>
      <use x="1230.292969" xlink:href="#DejaVuSans-105"/>
      <use x="1258.076172" xlink:href="#DejaVuSans-111"/>
      <use x="1319.257812" xlink:href="#DejaVuSans-110"/>
      <use x="1382.636719" xlink:href="#DejaVuSans-41"/>
     </g>
    </g>
   </g>
   <g id="matplotlib.axis_2">
    <g id="ytick_1">
     <g id="line2d_21">
      <path clip-path="url(#p430c1166bb)" d="M 57.6 298.944 
L 338.688 298.944 
" style="fill:none;stroke:#b0b0b0;stroke-linecap:square;stroke-width:0.8;"/>
     </g>
     <g id="line2d_22">
      <defs>
       <path d="M 0 0 
L -3.5 0 
" id="m93a1f335c6" style="stroke:#000000;stroke-width:0.8;"/>
      </defs>
      <g>
       <use style="stroke:#000000;stroke-width:0.8;" x="57.6" xlink:href="#m93a1f335c6" y="298.944"/>
      </g>
     </g>
     <g id="text_6">
      <!-- 0.0 -->
      <defs>
       <path d="M 10.6875 12.40625 
L 21 12.40625 
L 21 0 
L 10.6875 0 
z
" id="DejaVuSans-46"/>
      </defs>
      <g transform="translate(25.155 305.02275)scale(0.16 -0.16)">
       <use xlink:href="#DejaVuSans-48"/>
       <use x="63.623047" xlink:href="#DejaVuSans-46"/>
       <use x="95.410156" xlink:href="#DejaVuSans-48"/>
      </g>
     </g>
    </g>
    <g id="ytick_2">
     <g id="line2d_23">
      <path clip-path="url(#p430c1166bb)" d="M 57.6 245.22202 
L 338.688 245.22202 
" style="fill:none;stroke:#b0b0b0;stroke-linecap:square;stroke-width:0.8;"/>
     </g>
     <g id="line2d_24">
      <g>
       <use style="stroke:#000000;stroke-width:0.8;" x="57.6" xlink:href="#m93a1f335c6" y="245.22202"/>
      </g>
     </g>
     <g id="text_7">
      <!-- 0.2 -->
      <g transform="translate(25.155 251.30077)scale(0.16 -0.16)">
       <use xlink:href="#DejaVuSans-48"/>
       <use x="63.623047" xlink:href="#DejaVuSans-46"/>
       <use x="95.410156" xlink:href="#DejaVuSans-50"/>
      </g>
     </g>
    </g>
    <g id="ytick_3">
     <g id="line2d_25">
      <path clip-path="url(#p430c1166bb)" d="M 57.6 191.50004 
L 338.688 191.50004 
" style="fill:none;stroke:#b0b0b0;stroke-linecap:square;stroke-width:0.8;"/>
     </g>
     <g id="line2d_26">
      <g>
       <use style="stroke:#000000;stroke-width:0.8;" x="57.6" xlink:href="#m93a1f335c6" y="191.50004"/>
      </g>
     </g>
     <g id="text_8">
      <!-- 0.4 -->
      <g transform="translate(25.155 197.57879)scale(0.16 -0.16)">
       <use xlink:href="#DejaVuSans-48"/>
       <use x="63.623047" xlink:href="#DejaVuSans-46"/>
       <use x="95.410156" xlink:href="#DejaVuSans-52"/>
      </g>
     </g>
    </g>
    <g id="ytick_4">
     <g id="line2d_27">
      <path clip-path="url(#p430c1166bb)" d="M 57.6 137.778059 
L 338.688 137.778059 
" style="fill:none;stroke:#b0b0b0;stroke-linecap:square;stroke-width:0.8;"/>
     </g>
     <g id="line2d_28">
      <g>
       <use style="stroke:#000000;stroke-width:0.8;" x="57.6" xlink:href="#m93a1f335c6" y="137.778059"/>
      </g>
     </g>
     <g id="text_9">
      <!-- 0.6 -->
      <g transform="translate(25.155 143.856809)scale(0.16 -0.16)">
       <use xlink:href="#DejaVuSans-48"/>
       <use x="63.623047" xlink:href="#DejaVuSans-46"/>
       <use x="95.410156" xlink:href="#DejaVuSans-54"/>
      </g>
     </g>
    </g>
    <g id="ytick_5">
     <g id="line2d_29">
      <path clip-path="url(#p430c1166bb)" d="M 57.6 84.056079 
L 338.688 84.056079 
" style="fill:none;stroke:#b0b0b0;stroke-linecap:square;stroke-width:0.8;"/>
     </g>
     <g id="line2d_30">
      <g>
       <use style="stroke:#000000;stroke-width:0.8;" x="57.6" xlink:href="#m93a1f335c6" y="84.056079"/>
      </g>
     </g>
     <g id="text_10">
      <!-- 0.8 -->
      <defs>
       <path d="M 31.78125 34.625 
Q 24.75 34.625 20.71875 30.859375 
Q 16.703125 27.09375 16.703125 20.515625 
Q 16.703125 13.921875 20.71875 10.15625 
Q 24.75 6.390625 31.78125 6.390625 
Q 38.8125 6.390625 42.859375 10.171875 
Q 46.921875 13.96875 46.921875 20.515625 
Q 46.921875 27.09375 42.890625 30.859375 
Q 38.875 34.625 31.78125 34.625 
z
M 21.921875 38.8125 
Q 15.578125 40.375 12.03125 44.71875 
Q 8.5 49.078125 8.5 55.328125 
Q 8.5 64.0625 14.71875 69.140625 
Q 20.953125 74.21875 31.78125 74.21875 
Q 42.671875 74.21875 48.875 69.140625 
Q 55.078125 64.0625 55.078125 55.328125 
Q 55.078125 49.078125 51.53125 44.71875 
Q 48 40.375 41.703125 38.8125 
Q 48.828125 37.15625 52.796875 32.3125 
Q 56.78125 27.484375 56.78125 20.515625 
Q 56.78125 9.90625 50.3125 4.234375 
Q 43.84375 -1.421875 31.78125 -1.421875 
Q 19.734375 -1.421875 13.25 4.234375 
Q 6.78125 9.90625 6.78125 20.515625 
Q 6.78125 27.484375 10.78125 32.3125 
Q 14.796875 37.15625 21.921875 38.8125 
z
M 18.3125 54.390625 
Q 18.3125 48.734375 21.84375 45.5625 
Q 25.390625 42.390625 31.78125 42.390625 
Q 38.140625 42.390625 41.71875 45.5625 
Q 45.3125 48.734375 45.3125 54.390625 
Q 45.3125 60.0625 41.71875 63.234375 
Q 38.140625 66.40625 31.78125 66.40625 
Q 25.390625 66.40625 21.84375 63.234375 
Q 18.3125 60.0625 18.3125 54.390625 
z
" id="DejaVuSans-56"/>
      </defs>
      <g transform="translate(25.155 90.134829)scale(0.16 -0.16)">
       <use xlink:href="#DejaVuSans-48"/>
       <use x="63.623047" xlink:href="#DejaVuSans-46"/>
       <use x="95.410156" xlink:href="#DejaVuSans-56"/>
      </g>
     </g>
    </g>
    <g id="ytick_6">
     <g id="line2d_31">
      <path clip-path="url(#p430c1166bb)" d="M 57.6 30.334099 
L 338.688 30.334099 
" style="fill:none;stroke:#b0b0b0;stroke-linecap:square;stroke-width:0.8;"/>
     </g>
     <g id="line2d_32">
      <g>
       <use style="stroke:#000000;stroke-width:0.8;" x="57.6" xlink:href="#m93a1f335c6" y="30.334099"/>
      </g>
     </g>
     <g id="text_11">
      <!-- 1.0 -->
      <g transform="translate(25.155 36.412849)scale(0.16 -0.16)">
       <use xlink:href="#DejaVuSans-49"/>
       <use x="63.623047" xlink:href="#DejaVuSans-46"/>
       <use x="95.410156" xlink:href="#DejaVuSans-48"/>
      </g>
     </g>
    </g>
    <g id="text_12">
     <!-- Fraction of function,target pairs -->
     <defs>
      <path d="M 9.8125 72.90625 
L 51.703125 72.90625 
L 51.703125 64.59375 
L 19.671875 64.59375 
L 19.671875 43.109375 
L 48.578125 43.109375 
L 48.578125 34.8125 
L 19.671875 34.8125 
L 19.671875 0 
L 9.8125 0 
z
" id="DejaVuSans-70"/>
      <path d="M 41.109375 46.296875 
Q 39.59375 47.171875 37.8125 47.578125 
Q 36.03125 48 33.890625 48 
Q 26.265625 48 22.1875 43.046875 
Q 18.109375 38.09375 18.109375 28.8125 
L 18.109375 0 
L 9.078125 0 
L 9.078125 54.6875 
L 18.109375 54.6875 
L 18.109375 46.1875 
Q 20.953125 51.171875 25.484375 53.578125 
Q 30.03125 56 36.53125 56 
Q 37.453125 56 38.578125 55.875 
Q 39.703125 55.765625 41.0625 55.515625 
z
" id="DejaVuSans-114"/>
      <path d="M 48.78125 52.59375 
L 48.78125 44.1875 
Q 44.96875 46.296875 41.140625 47.34375 
Q 37.3125 48.390625 33.40625 48.390625 
Q 24.65625 48.390625 19.8125 42.84375 
Q 14.984375 37.3125 14.984375 27.296875 
Q 14.984375 17.28125 19.8125 11.734375 
Q 24.65625 6.203125 33.40625 6.203125 
Q 37.3125 6.203125 41.140625 7.25 
Q 44.96875 8.296875 48.78125 10.40625 
L 48.78125 2.09375 
Q 45.015625 0.34375 40.984375 -0.53125 
Q 36.96875 -1.421875 32.421875 -1.421875 
Q 20.0625 -1.421875 12.78125 6.34375 
Q 5.515625 14.109375 5.515625 27.296875 
Q 5.515625 40.671875 12.859375 48.328125 
Q 20.21875 56 33.015625 56 
Q 37.15625 56 41.109375 55.140625 
Q 45.0625 54.296875 48.78125 52.59375 
z
" id="DejaVuSans-99"/>
      <path d="M 18.3125 70.21875 
L 18.3125 54.6875 
L 36.8125 54.6875 
L 36.8125 47.703125 
L 18.3125 47.703125 
L 18.3125 18.015625 
Q 18.3125 11.328125 20.140625 9.421875 
Q 21.96875 7.515625 27.59375 7.515625 
L 36.8125 7.515625 
L 36.8125 0 
L 27.59375 0 
Q 17.1875 0 13.234375 3.875 
Q 9.28125 7.765625 9.28125 18.015625 
L 9.28125 47.703125 
L 2.6875 47.703125 
L 2.6875 54.6875 
L 9.28125 54.6875 
L 9.28125 70.21875 
z
" id="DejaVuSans-116"/>
      <path d="M 8.5 21.578125 
L 8.5 54.6875 
L 17.484375 54.6875 
L 17.484375 21.921875 
Q 17.484375 14.15625 20.5 10.265625 
Q 23.53125 6.390625 29.59375 6.390625 
Q 36.859375 6.390625 41.078125 11.03125 
Q 45.3125 15.671875 45.3125 23.6875 
L 45.3125 54.6875 
L 54.296875 54.6875 
L 54.296875 0 
L 45.3125 0 
L 45.3125 8.40625 
Q 42.046875 3.421875 37.71875 1 
Q 33.40625 -1.421875 27.6875 -1.421875 
Q 18.265625 -1.421875 13.375 4.4375 
Q 8.5 10.296875 8.5 21.578125 
z
M 31.109375 56 
z
" id="DejaVuSans-117"/>
      <path d="M 11.71875 12.40625 
L 22.015625 12.40625 
L 22.015625 4 
L 14.015625 -11.625 
L 7.71875 -11.625 
L 11.71875 4 
z
" id="DejaVuSans-44"/>
      <path d="M 18.109375 8.203125 
L 18.109375 -20.796875 
L 9.078125 -20.796875 
L 9.078125 54.6875 
L 18.109375 54.6875 
L 18.109375 46.390625 
Q 20.953125 51.265625 25.265625 53.625 
Q 29.59375 56 35.59375 56 
Q 45.5625 56 51.78125 48.09375 
Q 58.015625 40.1875 58.015625 27.296875 
Q 58.015625 14.40625 51.78125 6.484375 
Q 45.5625 -1.421875 35.59375 -1.421875 
Q 29.59375 -1.421875 25.265625 0.953125 
Q 20.953125 3.328125 18.109375 8.203125 
z
M 48.6875 27.296875 
Q 48.6875 37.203125 44.609375 42.84375 
Q 40.53125 48.484375 33.40625 48.484375 
Q 26.265625 48.484375 22.1875 42.84375 
Q 18.109375 37.203125 18.109375 27.296875 
Q 18.109375 17.390625 22.1875 11.75 
Q 26.265625 6.109375 33.40625 6.109375 
Q 40.53125 6.109375 44.609375 11.75 
Q 48.6875 17.390625 48.6875 27.296875 
z
" id="DejaVuSans-112"/>
     </defs>
     <g transform="translate(17.619531 298.435375)rotate(-90)scale(0.17 -0.17)">
      <use xlink:href="#DejaVuSans-70"/>
      <use x="57.410156" xlink:href="#DejaVuSans-114"/>
      <use x="98.523438" xlink:href="#DejaVuSans-97"/>
      <use x="159.802734" xlink:href="#DejaVuSans-99"/>
      <use x="214.783203" xlink:href="#DejaVuSans-116"/>
      <use x="253.992188" xlink:href="#DejaVuSans-105"/>
      <use x="281.775391" xlink:href="#DejaVuSans-111"/>
      <use x="342.957031" xlink:href="#DejaVuSans-110"/>
      <use x="406.335938" xlink:href="#DejaVuSans-32"/>
      <use x="438.123047" xlink:href="#DejaVuSans-111"/>
      <use x="499.304688" xlink:href="#DejaVuSans-102"/>
      <use x="534.509766" xlink:href="#DejaVuSans-32"/>
      <use x="566.296875" xlink:href="#DejaVuSans-102"/>
      <use x="601.501953" xlink:href="#DejaVuSans-117"/>
      <use x="664.880859" xlink:href="#DejaVuSans-110"/>
      <use x="728.259766" xlink:href="#DejaVuSans-99"/>
      <use x="783.240234" xlink:href="#DejaVuSans-116"/>
      <use x="822.449219" xlink:href="#DejaVuSans-105"/>
      <use x="850.232422" xlink:href="#DejaVuSans-111"/>
      <use x="911.414062" xlink:href="#DejaVuSans-110"/>
      <use x="974.792969" xlink:href="#DejaVuSans-44"/>
      <use x="1006.580078" xlink:href="#DejaVuSans-116"/>
      <use x="1045.789062" xlink:href="#DejaVuSans-97"/>
      <use x="1107.068359" xlink:href="#DejaVuSans-114"/>
      <use x="1148.166016" xlink:href="#DejaVuSans-103"/>
      <use x="1211.642578" xlink:href="#DejaVuSans-101"/>
      <use x="1273.166016" xlink:href="#DejaVuSans-116"/>
      <use x="1312.375" xlink:href="#DejaVuSans-32"/>
      <use x="1344.162109" xlink:href="#DejaVuSans-112"/>
      <use x="1407.638672" xlink:href="#DejaVuSans-97"/>
      <use x="1468.917969" xlink:href="#DejaVuSans-105"/>
      <use x="1496.701172" xlink:href="#DejaVuSans-114"/>
      <use x="1537.814453" xlink:href="#DejaVuSans-115"/>
     </g>
    </g>
   </g>
   <g id="line2d_33">
    <defs>
     <path d="M 0 1.5 
C 0.397805 1.5 0.77937 1.341951 1.06066 1.06066 
C 1.341951 0.77937 1.5 0.397805 1.5 0 
C 1.5 -0.397805 1.341951 -0.77937 1.06066 -1.06066 
C 0.77937 -1.341951 0.397805 -1.5 0 -1.5 
C -0.397805 -1.5 -0.77937 -1.341951 -1.06066 -1.06066 
C -1.341951 -0.77937 -1.5 -0.397805 -1.5 0 
C -1.5 0.397805 -1.341951 0.77937 -1.06066 1.06066 
C -0.77937 1.341951 -0.397805 1.5 0 1.5 
z
" id="me29972d048" style="stroke:#f5deb3;"/>
    </defs>
    <g>
     <use style="fill:#f5deb3;stroke:#f5deb3;" x="165.364212" xlink:href="#me29972d048" y="30.334099"/>
     <use style="fill:#f5deb3;stroke:#f5deb3;" x="165.364212" xlink:href="#me29972d048" y="30.334099"/>
    </g>
   </g>
   <g id="line2d_34">
    <defs>
     <path d="M 0 1.5 
C 0.397805 1.5 0.77937 1.341951 1.06066 1.06066 
C 1.341951 0.77937 1.5 0.397805 1.5 0 
C 1.5 -0.397805 1.341951 -0.77937 1.06066 -1.06066 
C 0.77937 -1.341951 0.397805 -1.5 0 -1.5 
C -0.397805 -1.5 -0.77937 -1.341951 -1.06066 -1.06066 
C -1.341951 -0.77937 -1.5 -0.397805 -1.5 0 
C -1.5 0.397805 -1.341951 0.77937 -1.06066 1.06066 
C -0.77937 1.341951 -0.397805 1.5 0 1.5 
z
" id="mc29ca8de1c" style="stroke:#000080;"/>
    </defs>
    <g>
     <use style="fill:#000080;stroke:#000080;" x="163.883215" xlink:href="#mc29ca8de1c" y="30.334099"/>
     <use style="fill:#000080;stroke:#000080;" x="163.883215" xlink:href="#mc29ca8de1c" y="30.334099"/>
    </g>
   </g>
   <g id="line2d_35">
    <path d="M 140.604116 298.944 
L 140.604116 298.417314 
L 140.841591 298.417314 
L 140.841591 297.363942 
L 141.478449 297.363942 
L 141.478449 296.837256 
L 142.065403 296.837256 
L 142.065403 296.31057 
L 142.659828 296.31057 
L 142.659828 295.783884 
L 143.678752 295.783884 
L 143.678752 295.257197 
L 143.964547 295.257197 
L 144.038338 294.203825 
L 145.016721 294.203825 
L 145.016721 293.677139 
L 145.201387 293.677139 
L 145.201387 293.150453 
L 145.821666 293.150453 
L 145.821666 292.623767 
L 146.030918 292.623767 
L 146.030918 292.097081 
L 146.484754 292.097081 
L 146.484754 291.570395 
L 146.612281 291.570395 
L 146.633446 290.517023 
L 146.78088 290.517023 
L 146.833235 289.463651 
L 147.02042 289.463651 
L 147.082371 288.410278 
L 147.174888 288.410278 
L 147.236294 286.83022 
L 147.338159 286.83022 
L 147.338159 286.303534 
L 147.4697 286.303534 
L 147.4697 285.776848 
L 147.61026 285.776848 
L 147.61026 284.723476 
L 147.848613 284.723476 
L 147.848613 284.19679 
L 148.093482 284.19679 
L 148.093482 283.670104 
L 148.27731 283.670104 
L 148.27731 283.143418 
L 148.676918 283.143418 
L 148.714503 281.036673 
L 148.882639 281.036673 
L 148.919783 279.983301 
L 149.15016 279.983301 
L 149.15016 279.456615 
L 149.575199 279.456615 
L 149.575199 278.929929 
L 149.85877 278.929929 
L 149.928949 277.876557 
L 150.301393 277.876557 
L 150.301393 277.349871 
L 150.707961 277.349871 
L 150.707961 276.823185 
L 150.874606 276.823185 
L 150.874606 276.296499 
L 151.047887 276.296499 
L 151.047887 275.769812 
L 151.260066 275.769812 
L 151.357131 274.71644 
L 151.541675 274.71644 
L 151.60541 273.663068 
L 151.865879 273.663068 
L 151.920633 272.609696 
L 152.076134 272.609696 
L 152.122515 270.502952 
L 152.572143 270.502952 
L 152.572143 269.976266 
L 152.729424 269.976266 
L 152.826082 267.869521 
L 152.988446 267.869521 
L 153.054435 266.816149 
L 153.15659 266.816149 
L 153.243677 265.236091 
L 153.27261 265.236091 
L 153.344733 263.656033 
L 153.423725 263.656033 
L 153.423725 263.129347 
L 153.559329 263.129347 
L 153.601933 261.549288 
L 153.813407 261.549288 
L 153.890309 259.96923 
L 153.946025 259.96923 
L 153.980758 258.915858 
L 154.070741 258.915858 
L 154.180855 257.862486 
L 154.24249 257.862486 
L 154.351528 254.175683 
L 154.371897 254.175683 
L 154.46664 252.068939 
L 154.71458 252.068939 
L 154.754456 251.015567 
L 154.86035 251.015567 
L 154.926208 249.435508 
L 154.991819 249.435508 
L 155.024532 247.85545 
L 155.115803 247.85545 
L 155.206599 245.748706 
L 155.264719 245.748706 
L 155.373976 241.008531 
L 155.399584 241.008531 
L 155.508002 239.428473 
L 155.520713 239.428473 
L 155.628383 237.321729 
L 155.634696 237.321729 
L 155.735392 234.161612 
L 155.779264 234.161612 
L 155.885354 231.001496 
L 155.897793 231.001496 
L 155.953659 228.894751 
L 156.015522 228.894751 
L 156.077167 227.841379 
L 156.144725 227.841379 
L 156.242527 222.047832 
L 156.303376 222.047832 
L 156.38821 220.99446 
L 156.436501 220.99446 
L 156.454576 219.941088 
L 156.550661 219.941088 
L 156.634302 215.727599 
L 156.711612 215.727599 
L 156.818094 212.567483 
L 156.829885 212.567483 
L 156.92979 207.300622 
L 156.976607 207.300622 
L 157.075678 204.140506 
L 157.122105 204.140506 
L 157.214591 201.507075 
L 157.272146 201.507075 
L 157.380981 197.820273 
L 157.392398 197.820273 
L 157.44937 194.660156 
L 157.506157 194.660156 
L 157.60791 192.553412 
L 157.630442 192.553412 
L 157.731474 187.813237 
L 157.759435 187.813237 
L 157.854169 185.179807 
L 157.876384 185.179807 
L 157.937332 182.01969 
L 158.009087 182.01969 
L 158.080549 179.912946 
L 158.168101 179.912946 
L 158.271501 174.646085 
L 158.304027 174.646085 
L 158.385078 169.90591 
L 158.433528 169.90591 
L 158.51398 166.219108 
L 158.546057 166.219108 
L 158.636623 162.005619 
L 158.657864 162.005619 
L 158.76896 157.265444 
L 158.811096 157.265444 
L 158.884591 153.578642 
L 158.931675 153.578642 
L 158.994256 151.471897 
L 159.098062 151.471897 
L 159.206397 147.258409 
L 159.211539 147.258409 
L 159.283369 141.464862 
L 159.32939 141.464862 
L 159.410906 137.778059 
L 159.466728 137.778059 
L 159.577838 133.037885 
L 159.592935 133.037885 
L 159.703247 127.771024 
L 159.718236 127.771024 
L 159.817832 125.66428 
L 159.842643 125.66428 
L 159.906985 121.450791 
L 159.980933 121.450791 
L 160.088825 117.763988 
L 160.118135 117.763988 
L 160.21548 115.657244 
L 160.234884 115.657244 
L 160.341221 110.917069 
L 160.408554 110.917069 
L 160.504296 104.596836 
L 160.532916 104.596836 
L 160.642194 100.910034 
L 160.64693 100.910034 
L 160.741375 96.169859 
L 160.788407 96.169859 
L 160.886762 90.376312 
L 160.900768 90.376312 
L 161.003133 86.162824 
L 161.012409 86.162824 
L 161.12334 81.949335 
L 161.160161 81.949335 
L 161.27016 78.262532 
L 161.297551 78.262532 
L 161.402155 70.362241 
L 161.415753 70.362241 
L 161.519653 66.675439 
L 161.546656 66.675439 
L 161.627414 64.042008 
L 161.7078 64.042008 
L 161.787817 61.408578 
L 161.840959 61.408578 
L 161.946759 56.141717 
L 161.973109 56.141717 
L 162.065021 52.454914 
L 162.099909 52.454914 
L 162.19549 47.188054 
L 162.238764 47.188054 
L 162.316387 45.081309 
L 162.402232 45.081309 
L 162.508946 40.867821 
L 162.55145 40.867821 
L 162.661478 38.23439 
L 162.690982 38.23439 
L 162.79595 35.60096 
L 162.841936 35.60096 
L 162.841936 35.074274 
L 162.9543 35.074274 
L 162.983314 33.494215 
L 163.086542 33.494215 
L 163.086542 32.967529 
L 163.238207 32.967529 
L 163.343998 31.387471 
L 163.372371 31.387471 
L 163.372371 30.860785 
L 163.883215 30.860785 
L 163.883215 30.334099 
L 338.688 30.334099 
L 338.688 30.334099 
" style="fill:none;stroke:#000080;stroke-linecap:square;stroke-width:1.5;"/>
   </g>
   <g id="line2d_36">
    <defs>
     <path d="M 0 6 
C 1.591219 6 3.117479 5.367802 4.242641 4.242641 
C 5.367802 3.117479 6 1.591219 6 0 
C 6 -1.591219 5.367802 -3.117479 4.242641 -4.242641 
C 3.117479 -5.367802 1.591219 -6 0 -6 
C -1.591219 -6 -3.117479 -5.367802 -4.242641 -4.242641 
C -5.367802 -3.117479 -6 -1.591219 -6 0 
C -6 1.591219 -5.367802 3.117479 -4.242641 4.242641 
C -3.117479 5.367802 -1.591219 6 0 6 
z
" id="mf9a39c2da3" style="stroke:#000080;stroke-width:1.5;"/>
    </defs>
    <g>
     <use style="fill-opacity:0;stroke:#000080;stroke-width:1.5;" x="160.408554" xlink:href="#mf9a39c2da3" y="109.863697"/>
     <use style="fill-opacity:0;stroke:#000080;stroke-width:1.5;" x="163.883215" xlink:href="#mf9a39c2da3" y="30.860785"/>
     <use style="fill-opacity:0;stroke:#000080;stroke-width:1.5;" x="163.883215" xlink:href="#mf9a39c2da3" y="30.334099"/>
     <use style="fill-opacity:0;stroke:#000080;stroke-width:1.5;" x="163.883215" xlink:href="#mf9a39c2da3" y="30.334099"/>
     <use style="fill-opacity:0;stroke:#000080;stroke-width:1.5;" x="338.688" xlink:href="#mf9a39c2da3" y="30.334099"/>
    </g>
   </g>
   <g id="line2d_37">
    <path style="fill:none;stroke:#000080;stroke-linecap:square;stroke-width:1.5;"/>
    <g/>
   </g>
   <g id="line2d_38">
    <g>
     <use style="fill:#000080;stroke:#000080;" x="163.938192" xlink:href="#mc29ca8de1c" y="30.334099"/>
     <use style="fill:#000080;stroke:#000080;" x="163.938192" xlink:href="#mc29ca8de1c" y="30.334099"/>
    </g>
   </g>
   <g id="line2d_39">
    <path d="M 139.793552 298.944 
L 139.887228 297.890628 
L 141.002999 297.890628 
L 141.002999 297.363942 
L 141.220721 297.363942 
L 141.220721 296.837256 
L 141.350061 296.837256 
L 141.350061 296.31057 
L 141.605898 296.31057 
L 141.605898 295.783884 
L 142.037896 295.783884 
L 142.037896 295.257197 
L 142.566605 295.257197 
L 142.593291 294.203825 
L 143.273169 294.203825 
L 143.273169 293.677139 
L 144.111818 293.677139 
L 144.111818 293.150453 
L 144.233601 293.150453 
L 144.233601 292.623767 
L 144.378627 292.623767 
L 144.378627 292.097081 
L 144.688773 292.097081 
L 144.688773 291.570395 
L 144.818346 291.570395 
L 144.853518 290.517023 
L 145.120836 290.517023 
L 145.120836 289.990337 
L 145.258697 289.990337 
L 145.258697 289.463651 
L 145.677034 289.463651 
L 145.777292 287.883592 
L 145.832743 287.883592 
L 145.832743 287.356906 
L 146.052799 287.356906 
L 146.052799 286.83022 
L 146.377764 286.83022 
L 146.420639 285.776848 
L 146.717846 285.776848 
L 146.77039 284.723476 
L 146.885432 284.723476 
L 146.906268 283.670104 
L 147.164632 283.670104 
L 147.164632 283.143418 
L 147.398994 283.143418 
L 147.449528 281.563359 
L 147.838747 281.563359 
L 147.838747 281.036673 
L 148.190475 281.036673 
L 148.190475 280.509987 
L 148.411533 280.509987 
L 148.411533 279.983301 
L 148.61095 279.983301 
L 148.695721 278.403243 
L 148.733265 278.403243 
L 148.733265 277.876557 
L 148.845415 277.876557 
L 148.845415 277.349871 
L 149.259669 277.349871 
L 149.259669 276.823185 
L 149.40462 276.823185 
L 149.40462 276.296499 
L 150.007563 276.296499 
L 150.042389 274.71644 
L 150.284246 274.71644 
L 150.301393 273.663068 
L 150.403927 273.663068 
L 150.437972 272.609696 
L 150.539708 272.609696 
L 150.54816 271.556324 
L 150.816462 271.556324 
L 150.91602 270.502952 
L 150.940821 270.502952 
L 150.957336 268.922893 
L 151.243836 268.922893 
L 151.349063 267.869521 
L 151.405461 267.869521 
L 151.445635 266.816149 
L 151.525705 266.816149 
L 151.557631 265.762777 
L 151.645126 265.762777 
L 151.700576 264.709405 
L 151.787359 264.709405 
L 151.858043 263.129347 
L 151.99078 263.129347 
L 152.045145 262.075974 
L 152.161072 262.075974 
L 152.23026 261.022602 
L 152.291531 261.022602 
L 152.398241 258.915858 
L 152.443774 258.915858 
L 152.511852 256.282427 
L 152.729424 256.282427 
L 152.729424 255.755741 
L 152.900071 255.755741 
L 152.995791 254.175683 
L 153.13475 254.175683 
L 153.207444 252.068939 
L 153.366312 252.068939 
L 153.423725 251.015567 
L 153.545105 251.015567 
L 153.59484 249.435508 
L 153.693887 249.435508 
L 153.771317 247.85545 
L 153.84141 247.85545 
L 153.84141 247.328764 
L 153.952977 247.328764 
L 154.050017 245.22202 
L 154.077643 245.22202 
L 154.077643 244.695334 
L 154.486875 244.695334 
L 154.5944 243.115275 
L 154.601099 243.115275 
L 154.68128 241.535217 
L 154.747816 241.535217 
L 154.847148 239.955159 
L 154.959044 239.955159 
L 155.017994 238.901787 
L 155.070227 238.901787 
L 155.109299 237.321729 
L 155.200129 237.321729 
L 155.200129 236.795043 
L 155.405981 236.795043 
L 155.469814 235.74167 
L 155.55245 235.74167 
L 155.609431 234.161612 
L 155.678822 234.161612 
L 155.773004 232.054868 
L 155.910223 232.054868 
L 156.009346 229.421437 
L 156.064855 229.421437 
L 156.144725 226.788007 
L 156.199806 226.788007 
L 156.230332 225.734635 
L 156.382164 225.734635 
L 156.478647 222.574518 
L 156.532685 222.574518 
L 156.634302 220.467774 
L 156.664077 220.467774 
L 156.717545 218.36103 
L 156.829885 218.36103 
L 156.92979 215.200913 
L 156.959066 215.200913 
L 157.046598 212.567483 
L 157.075678 212.567483 
L 157.162628 208.353994 
L 157.226117 208.353994 
L 157.312322 206.24725 
L 157.398103 206.24725 
L 157.409509 205.193878 
L 157.557108 205.193878 
L 157.658565 202.560447 
L 157.675417 202.560447 
L 157.748256 199.400331 
L 157.798506 199.400331 
L 157.898572 196.240214 
L 157.9318 196.240214 
L 158.042106 192.026726 
L 158.058592 192.026726 
L 158.168101 188.866609 
L 158.20082 188.866609 
L 158.309442 183.073062 
L 158.314856 183.073062 
L 158.422772 180.966318 
L 158.428151 180.966318 
L 158.51933 175.172771 
L 158.562073 175.172771 
L 158.668475 171.485969 
L 158.710855 171.485969 
L 158.800572 168.325852 
L 158.832127 168.325852 
L 158.92645 163.058991 
L 158.947342 163.058991 
L 159.056614 157.265444 
L 159.0618 157.265444 
L 159.17036 152.52527 
L 159.190962 152.52527 
L 159.252621 148.838467 
L 159.324282 148.838467 
L 159.431225 146.205037 
L 159.436301 146.205037 
L 159.542562 144.098292 
L 159.547605 144.098292 
L 159.643163 138.304745 
L 159.683242 138.304745 
L 159.773084 133.564571 
L 159.797958 133.564571 
L 159.906985 123.030849 
L 159.9218 123.030849 
L 160.000599 120.397419 
L 160.059466 120.397419 
L 160.157138 115.657244 
L 160.196054 115.657244 
L 160.278464 112.497128 
L 160.350856 112.497128 
L 160.461277 106.703581 
L 160.475629 106.703581 
L 160.571004 104.596836 
L 160.590016 104.596836 
L 160.698938 98.276603 
L 160.713095 98.276603 
L 160.821253 95.116487 
L 160.835312 95.116487 
L 160.942717 91.429684 
L 160.998493 91.429684 
L 161.06334 88.269568 
L 161.118732 88.269568 
L 161.228992 85.109451 
L 161.26102 85.109451 
L 161.370386 81.949335 
L 161.393084 81.949335 
L 161.492608 78.789218 
L 161.528659 78.789218 
L 161.627414 74.57573 
L 161.64531 74.57573 
L 161.7523 71.415613 
L 161.792252 71.415613 
L 161.863054 65.622066 
L 161.911563 65.622066 
L 162.021314 62.46195 
L 162.03881 62.46195 
L 162.147765 60.355206 
L 162.152109 60.355206 
L 162.230118 57.195089 
L 162.320689 57.195089 
L 162.406513 52.9816 
L 162.487656 52.9816 
L 162.598085 49.294798 
L 162.615012 49.294798 
L 162.695193 48.241426 
L 162.745644 48.241426 
L 162.841936 44.554623 
L 162.862799 44.554623 
L 162.90029 42.974565 
L 162.999872 42.974565 
L 163.070067 40.341135 
L 163.144084 40.341135 
L 163.164589 38.761076 
L 163.287113 38.761076 
L 163.396654 36.654332 
L 163.445119 36.654332 
L 163.49345 35.60096 
L 163.629664 35.60096 
L 163.717238 32.967529 
L 163.77274 32.967529 
L 163.800424 31.387471 
L 163.930348 31.387471 
L 163.938192 30.334099 
L 338.688 30.334099 
L 338.688 30.334099 
" style="fill:none;stroke:#000080;stroke-linecap:square;stroke-width:1.5;"/>
   </g>
   <g id="line2d_40">
    <g>
     <use style="fill-opacity:0;stroke:#000080;stroke-width:1.5;" x="158.444276" xlink:href="#mf9a39c2da3" y="179.38626"/>
     <use style="fill-opacity:0;stroke:#000080;stroke-width:1.5;" x="163.144084" xlink:href="#mf9a39c2da3" y="39.287762"/>
     <use style="fill-opacity:0;stroke:#000080;stroke-width:1.5;" x="163.938192" xlink:href="#mf9a39c2da3" y="30.860785"/>
     <use style="fill-opacity:0;stroke:#000080;stroke-width:1.5;" x="163.938192" xlink:href="#mf9a39c2da3" y="30.334099"/>
     <use style="fill-opacity:0;stroke:#000080;stroke-width:1.5;" x="338.688" xlink:href="#mf9a39c2da3" y="30.334099"/>
    </g>
   </g>
   <g id="line2d_41">
    <path style="fill:none;stroke:#000080;stroke-linecap:square;stroke-width:1.5;"/>
    <g/>
   </g>
   <g id="line2d_42">
    <defs>
     <path d="M 0 1.5 
C 0.397805 1.5 0.77937 1.341951 1.06066 1.06066 
C 1.341951 0.77937 1.5 0.397805 1.5 0 
C 1.5 -0.397805 1.341951 -0.77937 1.06066 -1.06066 
C 0.77937 -1.341951 0.397805 -1.5 0 -1.5 
C -0.397805 -1.5 -0.77937 -1.341951 -1.06066 -1.06066 
C -1.341951 -0.77937 -1.5 -0.397805 -1.5 0 
C -1.5 0.397805 -1.341951 0.77937 -1.06066 1.06066 
C -0.77937 1.341951 -0.397805 1.5 0 1.5 
z
" id="m6759139b38" style="stroke:#ff00ff;"/>
    </defs>
    <g>
     <use style="fill:#ff00ff;stroke:#ff00ff;" x="175.791324" xlink:href="#m6759139b38" y="30.334099"/>
     <use style="fill:#ff00ff;stroke:#ff00ff;" x="175.791324" xlink:href="#m6759139b38" y="30.334099"/>
    </g>
   </g>
   <g id="line2d_43">
    <path d="M 152.496747 298.944 
L 152.496747 298.417314 
L 156.628341 298.417314 
L 156.729404 297.363942 
L 156.794487 297.363942 
L 156.794487 296.837256 
L 157.098907 296.837256 
L 157.098907 296.31057 
L 157.483465 296.31057 
L 157.483465 295.783884 
L 157.652944 295.783884 
L 157.652944 295.257197 
L 157.765022 295.257197 
L 157.765022 294.730511 
L 158.168101 294.730511 
L 158.168101 294.203825 
L 158.476481 294.203825 
L 158.540715 293.150453 
L 158.952561 293.150453 
L 158.952561 292.623767 
L 159.123917 292.623767 
L 159.123917 292.097081 
L 159.597964 292.097081 
L 159.597964 291.570395 
L 159.733212 291.570395 
L 159.733212 291.043709 
L 160.21548 291.043709 
L 160.259108 289.990337 
L 160.360486 289.990337 
L 160.446914 288.936964 
L 160.575759 288.936964 
L 160.575759 288.410278 
L 160.886762 288.410278 
L 160.993852 286.83022 
L 161.044837 286.83022 
L 161.146363 285.776848 
L 161.569126 285.776848 
L 161.672119 284.723476 
L 161.823263 284.723476 
L 161.823263 284.19679 
L 161.951153 284.19679 
L 161.96433 283.143418 
L 162.186823 283.143418 
L 162.186823 282.616732 
L 162.312084 282.616732 
L 162.402232 281.563359 
L 162.657259 281.563359 
L 162.737246 280.509987 
L 162.829407 280.509987 
L 162.829407 279.983301 
L 162.950152 279.983301 
L 162.950152 279.456615 
L 163.323704 279.456615 
L 163.396654 278.403243 
L 163.49345 278.403243 
L 163.557683 276.823185 
L 163.613694 276.823185 
L 163.625673 275.769812 
L 164.264459 275.769812 
L 164.264459 275.243126 
L 164.682688 275.243126 
L 164.693955 274.189754 
L 164.902945 274.189754 
L 164.902945 273.663068 
L 165.024937 273.663068 
L 165.05806 272.609696 
L 165.324425 272.609696 
L 165.324425 272.08301 
L 165.561796 272.08301 
L 165.633093 271.029638 
L 165.679281 271.029638 
L 165.679281 270.502952 
L 165.950372 270.502952 
L 165.950372 269.976266 
L 166.061806 269.976266 
L 166.127634 267.342835 
L 166.296264 267.342835 
L 166.330478 266.289463 
L 166.408919 266.289463 
L 166.442913 265.236091 
L 166.581603 265.236091 
L 166.672336 263.656033 
L 166.702476 263.656033 
L 166.775933 261.549288 
L 166.935137 261.549288 
L 167.033906 259.442544 
L 167.174506 259.442544 
L 167.275171 257.862486 
L 167.3269 257.862486 
L 167.43311 256.282427 
L 167.458761 256.282427 
L 167.51953 255.229055 
L 167.68161 255.229055 
L 167.760513 251.542253 
L 167.804544 251.542253 
L 167.860992 249.962195 
L 167.932855 249.962195 
L 168.023045 248.382136 
L 168.125111 248.382136 
L 168.235778 246.275392 
L 168.238843 246.275392 
L 168.345748 243.641962 
L 168.364009 243.641962 
L 168.455028 239.955159 
L 168.482242 239.955159 
L 168.58767 237.848415 
L 168.772878 237.848415 
L 168.870661 236.795043 
L 168.929657 236.795043 
L 169.023638 234.161612 
L 169.055827 234.161612 
L 169.134586 232.581554 
L 169.169476 232.581554 
L 169.253507 231.001496 
L 169.337135 231.001496 
L 169.440395 226.788007 
L 169.45183 226.788007 
L 169.551573 222.574518 
L 169.650749 222.574518 
L 169.738121 219.941088 
L 169.763406 219.941088 
L 169.808266 218.36103 
L 169.878129 218.36103 
L 169.98656 213.620855 
L 169.994873 213.620855 
L 170.069512 212.040797 
L 170.110841 212.040797 
L 170.217839 207.827308 
L 170.264275 207.827308 
L 170.37305 203.613819 
L 170.378471 203.613819 
L 170.489231 198.873645 
L 170.494616 198.873645 
L 170.599292 194.13347 
L 170.615341 194.13347 
L 170.721954 188.866609 
L 170.745853 188.866609 
L 170.856948 184.126434 
L 170.862221 184.126434 
L 170.97258 178.332888 
L 170.983054 178.332888 
L 171.090052 172.539341 
L 171.100456 172.539341 
L 171.191225 166.745794 
L 171.219655 166.745794 
L 171.327782 159.372189 
L 171.348301 159.372189 
L 171.435242 154.632014 
L 171.470916 154.632014 
L 171.567378 148.311781 
L 171.587618 148.311781 
L 171.693494 143.571606 
L 171.706056 143.571606 
L 171.806224 138.831432 
L 171.853604 138.831432 
L 171.957882 135.144629 
L 171.975201 135.144629 
L 172.078757 131.457826 
L 172.093501 131.457826 
L 172.201242 124.084221 
L 172.22076 124.084221 
L 172.32772 120.397419 
L 172.344676 120.397419 
L 172.448474 115.657244 
L 172.501342 115.657244 
L 172.60183 109.337011 
L 172.618521 109.337011 
L 172.715968 105.123522 
L 172.734918 105.123522 
L 172.836426 100.910034 
L 172.848191 100.910034 
L 172.951383 97.749917 
L 172.991089 97.749917 
L 173.088802 90.902998 
L 173.111986 90.902998 
L 173.204416 87.216196 
L 173.268827 87.216196 
L 173.376414 83.529393 
L 173.383259 83.529393 
L 173.492411 77.20916 
L 173.512801 77.20916 
L 173.623398 72.468985 
L 173.630147 72.468985 
L 173.740004 69.835555 
L 173.775727 69.835555 
L 173.873588 66.148752 
L 173.902397 66.148752 
L 174.006157 59.301833 
L 174.036945 59.301833 
L 174.13554 56.668403 
L 174.159557 56.668403 
L 174.253123 52.9816 
L 174.274811 52.9816 
L 174.37423 51.928228 
L 174.415129 51.928228 
L 174.464511 47.188054 
L 174.609697 47.188054 
L 174.719912 46.134681 
L 174.753684 46.134681 
L 174.852514 40.867821 
L 174.869281 40.867821 
L 174.934099 39.287762 
L 174.988278 39.287762 
L 175.056802 37.707704 
L 175.242328 37.707704 
L 175.338435 36.654332 
L 175.385274 36.654332 
L 175.440098 34.020902 
L 175.500813 34.020902 
L 175.567356 32.440843 
L 175.669698 32.440843 
L 175.701682 31.387471 
L 175.785362 31.387471 
L 175.791324 30.334099 
L 338.688 30.334099 
L 338.688 30.334099 
" style="fill:none;stroke:#ff00ff;stroke-linecap:square;stroke-width:1.5;"/>
   </g>
   <g id="line2d_44">
    <defs>
     <path d="M -0 8.485281 
L 5.091169 0 
L 0 -8.485281 
L -5.091169 -0 
z
" id="mcf42b87ceb" style="stroke:#ff00ff;stroke-linejoin:miter;stroke-width:1.5;"/>
    </defs>
    <g>
     <use style="fill-opacity:0;stroke:#ff00ff;stroke-linejoin:miter;stroke-width:1.5;" x="170.906974" xlink:href="#mcf42b87ceb" y="181.493004"/>
     <use style="fill-opacity:0;stroke:#ff00ff;stroke-linejoin:miter;stroke-width:1.5;" x="175.791324" xlink:href="#mcf42b87ceb" y="30.860785"/>
     <use style="fill-opacity:0;stroke:#ff00ff;stroke-linejoin:miter;stroke-width:1.5;" x="175.791324" xlink:href="#mcf42b87ceb" y="30.334099"/>
     <use style="fill-opacity:0;stroke:#ff00ff;stroke-linejoin:miter;stroke-width:1.5;" x="338.688" xlink:href="#mcf42b87ceb" y="30.334099"/>
    </g>
   </g>
   <g id="line2d_45">
    <path style="fill:none;stroke:#ff00ff;stroke-linecap:square;stroke-width:1.5;"/>
    <g/>
   </g>
   <g id="line2d_46">
    <defs>
     <path d="M 0 1.5 
C 0.397805 1.5 0.77937 1.341951 1.06066 1.06066 
C 1.341951 0.77937 1.5 0.397805 1.5 0 
C 1.5 -0.397805 1.341951 -0.77937 1.06066 -1.06066 
C 0.77937 -1.341951 0.397805 -1.5 0 -1.5 
C -0.397805 -1.5 -0.77937 -1.341951 -1.06066 -1.06066 
C -1.341951 -0.77937 -1.5 -0.397805 -1.5 0 
C -1.5 0.397805 -1.341951 0.77937 -1.06066 1.06066 
C -0.77937 1.341951 -0.397805 1.5 0 1.5 
z
" id="m8ad4b88550" style="stroke:#ff0000;"/>
    </defs>
    <g>
     <use style="fill:#ff0000;stroke:#ff0000;" x="166.902089" xlink:href="#m8ad4b88550" y="30.334099"/>
     <use style="fill:#ff0000;stroke:#ff0000;" x="166.902089" xlink:href="#m8ad4b88550" y="30.334099"/>
    </g>
   </g>
   <g id="line2d_47">
    <path d="M 144.050606 298.944 
L 144.050606 298.417314 
L 145.063071 298.417314 
L 145.063071 297.890628 
L 145.372754 297.890628 
L 145.372754 297.363942 
L 145.519922 297.363942 
L 145.519922 296.837256 
L 145.755062 296.837256 
L 145.755062 296.31057 
L 146.08557 296.31057 
L 146.08557 295.783884 
L 147.082371 295.783884 
L 147.082371 295.257197 
L 147.700024 295.257197 
L 147.700024 294.730511 
L 147.995947 294.730511 
L 148.074019 293.150453 
L 148.27731 293.150453 
L 148.373289 292.097081 
L 148.648676 292.097081 
L 148.705114 291.043709 
L 148.919783 291.043709 
L 148.956849 289.990337 
L 149.286939 289.990337 
L 149.332295 288.936964 
L 149.797132 288.936964 
L 149.876341 287.883592 
L 150.791483 287.883592 
L 150.791483 287.356906 
L 150.957336 287.356906 
L 151.056095 285.776848 
L 151.413504 285.776848 
L 151.413504 285.250162 
L 151.533692 285.250162 
L 151.61336 283.670104 
L 151.676833 283.670104 
L 151.787359 282.616732 
L 151.944047 282.616732 
L 151.944047 282.090045 
L 152.060646 282.090045 
L 152.083873 280.509987 
L 152.260923 280.509987 
L 152.260923 279.983301 
L 152.466496 279.983301 
L 152.489189 278.403243 
L 152.803824 278.403243 
L 152.818666 277.349871 
L 153.047115 277.349871 
L 153.13475 275.769812 
L 153.294279 275.769812 
L 153.373499 274.189754 
L 153.523746 274.189754 
L 153.601933 271.029638 
L 153.771317 271.029638 
L 153.792374 269.449579 
L 153.973817 269.449579 
L 154.015422 267.869521 
L 154.09144 267.869521 
L 154.112115 266.816149 
L 154.269814 266.816149 
L 154.269814 266.289463 
L 154.520548 266.289463 
L 154.54072 265.236091 
L 154.959044 265.236091 
L 155.011454 264.182719 
L 155.076745 264.182719 
L 155.154773 262.60266 
L 155.245367 262.60266 
L 155.316219 260.495916 
L 155.373976 260.495916 
L 155.482553 257.862486 
L 155.514359 257.862486 
L 155.596784 256.282427 
L 155.804285 256.282427 
L 155.847985 254.702369 
L 155.953659 254.702369 
L 155.966049 253.648997 
L 156.101764 253.648997 
L 156.101764 253.122311 
L 156.266892 253.122311 
L 156.333721 252.068939 
L 156.484659 252.068939 
L 156.544671 249.435508 
L 156.604476 249.435508 
L 156.658127 248.382136 
L 156.759018 248.382136 
L 156.812195 247.328764 
L 156.964915 247.328764 
L 157.064052 244.695334 
L 157.139484 244.695334 
L 157.208825 243.641962 
L 157.318054 243.641962 
L 157.420907 240.481845 
L 157.528821 240.481845 
L 157.56276 239.428473 
L 157.765022 239.428473 
L 157.854169 236.795043 
L 157.887482 236.795043 
L 157.998067 235.214984 
L 158.025604 235.214984 
L 158.13532 232.581554 
L 158.151718 232.581554 
L 158.24435 228.368065 
L 158.28235 228.368065 
L 158.358103 227.314693 
L 158.524678 227.314693 
L 158.625992 225.734635 
L 158.636623 225.734635 
L 158.668475 224.681263 
L 158.753132 224.681263 
L 158.816356 222.574518 
L 158.915995 222.574518 
L 158.98905 220.467774 
L 159.030659 220.467774 
L 159.139412 217.307658 
L 159.211539 217.307658 
L 159.319173 215.200913 
L 159.380382 215.200913 
L 159.486982 212.567483 
L 159.532469 212.567483 
L 159.633129 210.460738 
L 159.673231 210.460738 
L 159.773084 206.24725 
L 159.812866 206.24725 
L 159.882266 203.613819 
L 159.926735 203.613819 
L 160.010424 202.033761 
L 160.054568 202.033761 
L 160.123015 198.346959 
L 160.186333 198.346959 
L 160.268789 195.186842 
L 160.336402 195.186842 
L 160.418152 190.973354 
L 160.461277 190.973354 
L 160.556731 187.813237 
L 160.599515 187.813237 
L 160.703658 184.653121 
L 160.736665 184.653121 
L 160.830627 180.966318 
L 160.86807 180.966318 
L 160.961329 175.699457 
L 160.979921 175.699457 
L 161.077205 174.119399 
L 161.146363 174.119399 
L 161.251875 170.432596 
L 161.26102 170.432596 
L 161.361298 166.745794 
L 161.374928 166.745794 
L 161.474555 162.005619 
L 161.497119 162.005619 
L 161.596053 156.212072 
L 161.61398 156.212072 
L 161.716709 150.418525 
L 161.7523 150.418525 
L 161.827689 147.258409 
L 161.867469 147.258409 
L 161.977497 143.571606 
L 162.0038 143.571606 
L 162.10862 139.358118 
L 162.182487 139.358118 
L 162.268992 135.144629 
L 162.29486 135.144629 
L 162.402232 132.511199 
L 162.406513 132.511199 
L 162.513202 125.137593 
L 162.530211 125.137593 
L 162.610782 120.397419 
L 162.657259 120.397419 
L 162.762429 113.5505 
L 162.779197 113.5505 
L 162.883637 109.863697 
L 162.896128 109.863697 
L 162.995734 106.176895 
L 163.01228 106.176895 
L 163.107115 102.490092 
L 163.13998 102.490092 
L 163.246367 97.749917 
L 163.266752 97.749917 
L 163.287113 94.063115 
L 163.380469 94.063115 
L 163.485404 89.849626 
L 163.521581 89.849626 
L 163.629664 84.582765 
L 163.665543 84.582765 
L 163.768781 81.949335 
L 163.776697 81.949335 
L 163.887148 77.20916 
L 163.914652 77.20916 
L 164.024234 70.362241 
L 164.035935 70.362241 
L 164.121498 64.042008 
L 164.148635 64.042008 
L 164.24906 62.46195 
L 164.268307 62.46195 
L 164.356568 59.301833 
L 164.383342 59.301833 
L 164.474827 57.195089 
L 164.516598 57.195089 
L 164.618704 54.034973 
L 164.630012 54.034973 
L 164.686444 51.928228 
L 164.761403 51.928228 
L 164.869525 49.821484 
L 164.917777 49.821484 
L 165.017568 45.607995 
L 165.039666 45.607995 
L 165.142423 42.447879 
L 165.171671 42.447879 
L 165.280918 40.867821 
L 165.288176 40.867821 
L 165.364212 38.761076 
L 165.475853 38.761076 
L 165.543926 36.654332 
L 165.728884 36.654332 
L 165.834706 35.60096 
L 165.918903 35.60096 
L 165.985272 34.547588 
L 166.237944 34.547588 
L 166.268843 32.967529 
L 166.442913 32.967529 
L 166.442913 31.914157 
L 166.749257 31.914157 
L 166.749257 31.387471 
L 166.872292 31.387471 
L 166.902089 30.334099 
L 338.688 30.334099 
L 338.688 30.334099 
" style="fill:none;stroke:#ff0000;stroke-linecap:square;stroke-width:1.5;"/>
   </g>
   <g id="line2d_48">
    <defs>
     <path d="M 0 -6 
L -5.196152 -3 
L -5.196152 3 
L -0 6 
L 5.196152 3 
L 5.196152 -3 
z
" id="ma97848a4c1" style="stroke:#ff0000;stroke-linejoin:miter;stroke-width:1.5;"/>
    </defs>
    <g>
     <use style="fill-opacity:0;stroke:#ff0000;stroke-linejoin:miter;stroke-width:1.5;" x="162.251725" xlink:href="#ma97848a4c1" y="136.198001"/>
     <use style="fill-opacity:0;stroke:#ff0000;stroke-linejoin:miter;stroke-width:1.5;" x="166.902089" xlink:href="#ma97848a4c1" y="30.860785"/>
     <use style="fill-opacity:0;stroke:#ff0000;stroke-linejoin:miter;stroke-width:1.5;" x="166.902089" xlink:href="#ma97848a4c1" y="30.334099"/>
     <use style="fill-opacity:0;stroke:#ff0000;stroke-linejoin:miter;stroke-width:1.5;" x="166.902089" xlink:href="#ma97848a4c1" y="30.334099"/>
     <use style="fill-opacity:0;stroke:#ff0000;stroke-linejoin:miter;stroke-width:1.5;" x="338.688" xlink:href="#ma97848a4c1" y="30.334099"/>
    </g>
   </g>
   <g id="line2d_49">
    <path style="fill:none;stroke:#ff0000;stroke-linecap:square;stroke-width:1.5;"/>
    <g/>
   </g>
   <g id="line2d_50">
    <defs>
     <path d="M 0 1.5 
C 0.397805 1.5 0.77937 1.341951 1.06066 1.06066 
C 1.341951 0.77937 1.5 0.397805 1.5 0 
C 1.5 -0.397805 1.341951 -0.77937 1.06066 -1.06066 
C 0.77937 -1.341951 0.397805 -1.5 0 -1.5 
C -0.397805 -1.5 -0.77937 -1.341951 -1.06066 -1.06066 
C -1.341951 -0.77937 -1.5 -0.397805 -1.5 0 
C -1.5 0.397805 -1.341951 0.77937 -1.06066 1.06066 
C -0.77937 1.341951 -0.397805 1.5 0 1.5 
z
" id="m248362d30e" style="stroke:#ff7500;"/>
    </defs>
    <g>
     <use style="fill:#ff7500;stroke:#ff7500;" x="163.788565" xlink:href="#m248362d30e" y="30.334099"/>
     <use style="fill:#ff7500;stroke:#ff7500;" x="163.788565" xlink:href="#m248362d30e" y="30.334099"/>
    </g>
   </g>
   <g id="line2d_51">
    <path d="M 143.816021 298.944 
L 143.816021 298.417314 
L 145.832743 298.417314 
L 145.832743 297.890628 
L 145.998045 297.890628 
L 145.998045 297.363942 
L 146.118279 297.363942 
L 146.118279 296.837256 
L 146.591092 296.837256 
L 146.654584 295.257197 
L 146.791364 295.257197 
L 146.875005 293.677139 
L 147.010073 293.677139 
L 147.010073 293.150453 
L 147.266916 293.150453 
L 147.297484 292.097081 
L 147.439433 292.097081 
L 147.439433 291.570395 
L 147.640233 291.570395 
L 147.660186 290.517023 
L 147.818997 290.517023 
L 147.927346 289.463651 
L 147.976374 289.463651 
L 148.015498 288.410278 
L 148.161434 288.410278 
L 148.190475 287.356906 
L 148.411533 287.356906 
L 148.411533 286.83022 
L 148.891932 286.83022 
L 148.891932 286.303534 
L 149.122675 286.303534 
L 149.214124 285.250162 
L 149.305096 285.250162 
L 149.305096 284.723476 
L 149.610898 284.723476 
L 149.708697 283.143418 
L 149.937701 283.143418 
L 149.937701 282.616732 
L 150.258492 282.616732 
L 150.258492 281.563359 
L 150.446473 281.563359 
L 150.522794 280.509987 
L 150.624038 280.509987 
L 150.624038 279.983301 
L 150.791483 279.983301 
L 150.82478 278.403243 
L 151.121626 278.403243 
L 151.227591 277.349871 
L 151.565603 277.349871 
L 151.565603 276.823185 
L 151.795227 276.823185 
L 151.881541 275.243126 
L 151.928441 275.243126 
L 152.00633 273.663068 
L 152.168773 273.663068 
L 152.176471 272.609696 
L 152.375429 272.609696 
L 152.436193 271.556324 
L 152.699575 271.556324 
L 152.774102 270.502952 
L 152.892686 270.502952 
L 152.929579 269.449579 
L 153.098289 269.449579 
L 153.185667 268.396207 
L 153.265382 268.396207 
L 153.265382 267.342835 
L 153.715038 267.342835 
L 153.715038 266.816149 
L 153.834414 266.816149 
L 153.855395 265.762777 
L 154.022346 265.762777 
L 154.043103 264.709405 
L 154.324333 264.709405 
L 154.419333 262.075974 
L 154.46664 262.075974 
L 154.46664 261.549288 
L 154.587699 261.549288 
L 154.627867 260.495916 
L 155.024532 260.495916 
L 155.128803 259.442544 
L 155.148284 259.442544 
L 155.245367 258.389172 
L 155.28405 258.389172 
L 155.367568 257.3358 
L 155.399584 257.3358 
L 155.508002 255.229055 
L 155.577798 255.229055 
L 155.647315 253.122311 
L 155.691409 253.122311 
L 155.785523 249.962195 
L 155.841748 249.962195 
L 155.910223 248.908822 
L 155.972241 248.908822 
L 156.077167 244.695334 
L 156.163105 244.695334 
L 156.230332 241.008531 
L 156.30945 241.008531 
L 156.400295 238.901787 
L 156.472632 238.901787 
L 156.538679 236.795043 
L 156.646219 236.795043 
L 156.711612 233.634926 
L 156.759018 233.634926 
L 156.853444 230.47481 
L 156.994131 230.47481 
L 157.104709 226.261321 
L 157.168409 226.261321 
L 157.266399 225.207949 
L 157.283635 225.207949 
L 157.392398 220.99446 
L 157.432298 220.99446 
L 157.483465 218.887716 
L 157.545799 218.887716 
L 157.60791 215.200913 
L 157.669802 215.200913 
L 157.753847 212.567483 
L 157.781772 212.567483 
L 157.881934 208.88068 
L 157.9318 208.88068 
L 158.042106 203.087133 
L 158.107956 203.087133 
L 158.211713 198.873645 
L 158.222599 198.873645 
L 158.314856 193.606784 
L 158.336493 193.606784 
L 158.412011 189.393295 
L 158.460386 189.393295 
L 158.546057 186.759865 
L 158.588735 186.759865 
L 158.68438 182.546376 
L 158.710855 182.546376 
L 158.821615 178.332888 
L 158.832127 178.332888 
L 158.92645 173.592713 
L 158.957778 173.592713 
L 159.066985 170.959282 
L 159.087709 170.959282 
L 159.180664 166.219108 
L 159.206397 166.219108 
L 159.303838 162.005619 
L 159.324282 162.005619 
L 159.415988 158.318817 
L 159.441376 158.318817 
L 159.497101 155.1587 
L 159.623089 155.1587 
L 159.733212 150.945211 
L 159.753159 150.945211 
L 159.852557 146.205037 
L 159.867418 146.205037 
L 159.961244 143.571606 
L 159.980933 143.571606 
L 160.039866 139.884804 
L 160.132771 139.884804 
L 160.234884 130.404454 
L 160.259108 130.404454 
L 160.365299 127.244338 
L 160.384537 127.244338 
L 160.489968 123.557535 
L 160.499521 123.557535 
L 160.604262 118.817361 
L 160.618496 118.817361 
L 160.708377 113.023814 
L 160.755498 113.023814 
L 160.835312 109.337011 
L 160.905434 109.337011 
L 161.007772 102.490092 
L 161.017045 102.490092 
L 161.118732 96.696545 
L 161.141761 96.696545 
L 161.238149 93.009743 
L 161.26102 93.009743 
L 161.365843 87.216196 
L 161.388547 87.216196 
L 161.47907 81.422649 
L 161.564634 81.422649 
L 161.672119 79.315904 
L 161.676583 79.315904 
L 161.778945 76.155788 
L 161.792252 76.155788 
L 161.902754 70.362241 
L 161.92917 70.362241 
L 161.995037 65.622066 
L 162.043181 65.622066 
L 162.134726 61.935264 
L 162.156452 61.935264 
L 162.251725 58.248461 
L 162.286241 58.248461 
L 162.385097 53.508287 
L 162.406513 53.508287 
L 162.483394 48.768112 
L 162.52596 48.768112 
L 162.62347 44.554623 
L 162.644595 44.554623 
L 162.669913 42.447879 
L 162.779197 42.447879 
L 162.862799 39.814448 
L 162.912768 39.814448 
L 163.008145 38.23439 
L 163.03294 38.23439 
L 163.070067 37.181018 
L 163.209614 37.181018 
L 163.307451 35.60096 
L 163.348054 35.60096 
L 163.441086 33.494215 
L 163.489428 33.494215 
L 163.517565 32.440843 
L 163.665543 32.440843 
L 163.77274 30.860785 
L 163.788565 30.860785 
L 163.788565 30.334099 
L 338.688 30.334099 
L 338.688 30.334099 
" style="fill:none;stroke:#ff7500;stroke-linecap:square;stroke-width:1.5;"/>
   </g>
   <g id="line2d_52">
    <defs>
     <path d="M 0 -6 
L -1.347084 -1.854102 
L -5.706339 -1.854102 
L -2.179628 0.708204 
L -3.526712 4.854102 
L -0 2.291796 
L 3.526712 4.854102 
L 2.179628 0.708204 
L 5.706339 -1.854102 
L 1.347084 -1.854102 
z
" id="m80b63607f3" style="stroke:#ff7500;stroke-linejoin:bevel;stroke-width:1.5;"/>
    </defs>
    <g>
     <use style="fill-opacity:0;stroke:#ff7500;stroke-linejoin:bevel;stroke-width:1.5;" x="158.68438" xlink:href="#m80b63607f3" y="184.126434"/>
     <use style="fill-opacity:0;stroke:#ff7500;stroke-linejoin:bevel;stroke-width:1.5;" x="163.788565" xlink:href="#m80b63607f3" y="30.860785"/>
     <use style="fill-opacity:0;stroke:#ff7500;stroke-linejoin:bevel;stroke-width:1.5;" x="163.788565" xlink:href="#m80b63607f3" y="30.334099"/>
     <use style="fill-opacity:0;stroke:#ff7500;stroke-linejoin:bevel;stroke-width:1.5;" x="163.788565" xlink:href="#m80b63607f3" y="30.334099"/>
     <use style="fill-opacity:0;stroke:#ff7500;stroke-linejoin:bevel;stroke-width:1.5;" x="338.688" xlink:href="#m80b63607f3" y="30.334099"/>
    </g>
   </g>
   <g id="line2d_53">
    <path style="fill:none;stroke:#ff7500;stroke-linecap:square;stroke-width:1.5;"/>
    <g/>
   </g>
   <g id="line2d_54">
    <defs>
     <path d="M 0 1.5 
C 0.397805 1.5 0.77937 1.341951 1.06066 1.06066 
C 1.341951 0.77937 1.5 0.397805 1.5 0 
C 1.5 -0.397805 1.341951 -0.77937 1.06066 -1.06066 
C 0.77937 -1.341951 0.397805 -1.5 0 -1.5 
C -0.397805 -1.5 -0.77937 -1.341951 -1.06066 -1.06066 
C -1.341951 -0.77937 -1.5 -0.397805 -1.5 0 
C -1.5 0.397805 -1.341951 0.77937 -1.06066 1.06066 
C -0.77937 1.341951 -0.397805 1.5 0 1.5 
z
" id="m8fc1e3a047" style="stroke:#9acd32;"/>
    </defs>
    <g>
     <use style="fill:#9acd32;stroke:#9acd32;" x="165.593916" xlink:href="#m8fc1e3a047" y="30.334099"/>
     <use style="fill:#9acd32;stroke:#9acd32;" x="165.593916" xlink:href="#m8fc1e3a047" y="30.334099"/>
    </g>
   </g>
   <g id="line2d_55">
    <path d="M 142.593291 298.944 
L 142.593291 298.417314 
L 143.298796 298.417314 
L 143.298796 297.890628 
L 144.830078 297.890628 
L 144.830078 297.363942 
L 145.039911 297.363942 
L 145.039911 296.837256 
L 145.155404 296.837256 
L 145.155404 296.31057 
L 145.677034 296.31057 
L 145.721664 295.257197 
L 146.516724 295.257197 
L 146.580487 294.203825 
L 146.686244 294.203825 
L 146.717846 293.150453 
L 146.833235 293.150453 
L 146.833235 292.097081 
L 147.61026 292.097081 
L 147.61026 291.570395 
L 147.749695 291.570395 
L 147.848613 290.517023 
L 148.044783 290.517023 
L 148.103206 288.936964 
L 148.430623 288.936964 
L 148.516274 287.883592 
L 148.808112 287.883592 
L 148.808112 287.356906 
L 149.259669 287.356906 
L 149.259669 286.83022 
L 149.788308 286.83022 
L 149.841182 285.776848 
L 150.120495 285.776848 
L 150.120495 285.250162 
L 150.335638 285.250162 
L 150.403927 284.19679 
L 150.49739 284.19679 
L 150.49739 283.670104 
L 150.716332 283.670104 
L 150.816462 282.090045 
L 150.891184 282.090045 
L 150.891184 281.563359 
L 151.162458 281.563359 
L 151.178764 280.509987 
L 151.381313 280.509987 
L 151.461678 279.456615 
L 151.549655 279.456615 
L 151.61336 277.876557 
L 151.684751 277.876557 
L 151.763734 276.823185 
L 151.951845 276.823185 
L 151.951845 276.296499 
L 152.083873 276.296499 
L 152.145659 275.243126 
L 152.260923 275.243126 
L 152.337344 273.663068 
L 152.383036 273.663068 
L 152.451351 272.08301 
L 152.564618 272.08301 
L 152.669675 270.502952 
L 152.699575 270.502952 
L 152.774102 269.449579 
L 152.848312 269.449579 
L 152.959038 268.396207 
L 152.981099 268.396207 
L 152.981099 267.869521 
L 153.142033 267.869521 
L 153.163864 266.816149 
L 153.279836 266.816149 
L 153.380683 265.762777 
L 153.423725 265.762777 
L 153.423725 265.236091 
L 153.580644 265.236091 
L 153.644434 264.182719 
L 153.750233 264.182719 
L 153.848404 262.075974 
L 153.904255 262.075974 
L 153.980758 260.495916 
L 154.063835 260.495916 
L 154.132765 257.3358 
L 154.19457 257.3358 
L 154.269814 255.755741 
L 154.337936 255.755741 
L 154.419333 252.595625 
L 154.46664 252.595625 
L 154.567581 251.015567 
L 154.807483 251.015567 
L 154.866947 249.962195 
L 154.919633 249.962195 
L 154.998366 247.328764 
L 155.063706 247.328764 
L 155.174226 246.275392 
L 155.200129 246.275392 
L 155.225994 244.695334 
L 155.316219 244.695334 
L 155.418766 243.115275 
L 155.450689 243.115275 
L 155.450689 242.588589 
L 155.590458 242.588589 
L 155.609431 240.481845 
L 155.798033 240.481845 
L 155.885354 238.375101 
L 155.910223 238.375101 
L 155.966049 236.268356 
L 156.058696 236.268356 
L 156.126326 233.634926 
L 156.193695 233.634926 
L 156.297301 232.581554 
L 156.339784 232.581554 
L 156.406335 230.47481 
L 156.454576 230.47481 
L 156.532685 228.368065 
L 156.598505 228.368065 
L 156.687861 226.261321 
L 156.711612 226.261321 
L 156.759018 225.207949 
L 156.841668 225.207949 
L 156.947361 222.574518 
L 156.970762 222.574518 
L 157.005804 219.414402 
L 157.087296 219.414402 
L 157.197287 215.200913 
L 157.214591 215.200913 
L 157.283635 212.567483 
L 157.37527 212.567483 
L 157.44937 210.987425 
L 157.523158 210.987425 
L 157.624812 208.88068 
L 157.681031 208.88068 
L 157.781772 205.193878 
L 157.820792 205.193878 
L 157.904114 203.613819 
L 157.992555 203.613819 
L 158.096998 199.400331 
L 158.107956 199.400331 
L 158.217157 195.186842 
L 158.24435 195.186842 
L 158.347301 191.50004 
L 158.385078 191.50004 
L 158.481843 187.813237 
L 158.546057 187.813237 
L 158.620675 186.233179 
L 158.673779 186.233179 
L 158.75841 181.493004 
L 158.800572 181.493004 
L 158.868869 179.38626 
L 158.915995 179.38626 
L 159.025463 174.119399 
L 159.030659 174.119399 
L 159.139412 169.90591 
L 159.165206 169.90591 
L 159.262876 164.63905 
L 159.278248 164.63905 
L 159.385473 162.532305 
L 159.421068 162.532305 
L 159.471793 161.478933 
L 159.537516 161.478933 
L 159.602992 159.372189 
L 159.658204 159.372189 
L 159.723229 156.212072 
L 159.778062 156.212072 
L 159.887213 150.945211 
L 159.946463 150.945211 
L 160.044768 144.098292 
L 160.059466 144.098292 
L 160.166875 138.831432 
L 160.196054 138.831432 
L 160.283299 136.198001 
L 160.326759 136.198001 
L 160.418152 131.984513 
L 160.451703 131.984513 
L 160.56149 126.717652 
L 160.580512 126.717652 
L 160.66586 123.030849 
L 160.703658 123.030849 
L 160.793103 117.237302 
L 160.825941 117.237302 
L 160.933404 111.970441 
L 161.003133 111.970441 
L 161.109513 106.703581 
L 161.12334 106.703581 
L 161.206078 99.856662 
L 161.283861 99.856662 
L 161.352206 96.169859 
L 161.420284 96.169859 
L 161.519653 91.429684 
L 161.551152 91.429684 
L 161.622937 89.849626 
L 161.667653 89.849626 
L 161.743409 83.529393 
L 161.787817 83.529393 
L 161.876297 79.842591 
L 161.902754 79.842591 
L 161.986269 78.262532 
L 162.030064 78.262532 
L 162.130378 74.049044 
L 162.14342 74.049044 
L 162.251725 70.888927 
L 162.316387 70.888927 
L 162.410793 66.675439 
L 162.427903 66.675439 
L 162.53871 60.355206 
L 162.555695 60.355206 
L 162.665696 55.088345 
L 162.720437 55.088345 
L 162.812686 50.874856 
L 162.833584 50.874856 
L 162.933547 48.241426 
L 162.950152 48.241426 
L 163.016414 47.188054 
L 163.127663 47.188054 
L 163.238207 45.607995 
L 163.270826 45.607995 
L 163.360217 42.974565 
L 163.412824 42.974565 
L 163.420904 41.394507 
L 163.733114 41.394507 
L 163.792519 39.287762 
L 163.863539 39.287762 
L 163.914652 38.23439 
L 164.105972 38.23439 
L 164.148635 36.654332 
L 164.482429 36.654332 
L 164.52039 35.074274 
L 164.607388 35.074274 
L 164.607388 34.547588 
L 165.069087 34.547588 
L 165.069087 34.020902 
L 165.200871 34.020902 
L 165.24094 32.967529 
L 165.367825 32.967529 
L 165.432722 31.914157 
L 165.536773 31.914157 
L 165.593916 30.334099 
L 338.688 30.334099 
L 338.688 30.334099 
" style="fill:none;stroke:#9acd32;stroke-linecap:square;stroke-width:1.5;"/>
   </g>
   <g id="line2d_56">
    <defs>
     <path d="M 0 -6 
L -6 6 
L 6 6 
z
" id="m09b6054d18" style="stroke:#9acd32;stroke-linejoin:miter;stroke-width:1.5;"/>
    </defs>
    <g>
     <use style="fill-opacity:0;stroke:#9acd32;stroke-linejoin:miter;stroke-width:1.5;" x="162.812686" xlink:href="#m09b6054d18" y="51.401542"/>
     <use style="fill-opacity:0;stroke:#9acd32;stroke-linejoin:miter;stroke-width:1.5;" x="165.593916" xlink:href="#m09b6054d18" y="30.334099"/>
     <use style="fill-opacity:0;stroke:#9acd32;stroke-linejoin:miter;stroke-width:1.5;" x="165.593916" xlink:href="#m09b6054d18" y="30.334099"/>
     <use style="fill-opacity:0;stroke:#9acd32;stroke-linejoin:miter;stroke-width:1.5;" x="165.593916" xlink:href="#m09b6054d18" y="30.334099"/>
     <use style="fill-opacity:0;stroke:#9acd32;stroke-linejoin:miter;stroke-width:1.5;" x="338.688" xlink:href="#m09b6054d18" y="30.334099"/>
    </g>
   </g>
   <g id="line2d_57">
    <path style="fill:none;stroke:#9acd32;stroke-linecap:square;stroke-width:1.5;"/>
    <g/>
   </g>
   <g id="line2d_58">
    <path d="M 338.688 30.334099 
L 369.60768 293.571802 
" style="fill:none;stroke:#ff00ff;stroke-linecap:square;stroke-width:1.5;"/>
    <g>
     <use style="fill-opacity:0;stroke:#ff00ff;stroke-linejoin:miter;stroke-width:1.5;" x="338.688" xlink:href="#mcf42b87ceb" y="30.334099"/>
     <use style="fill-opacity:0;stroke:#ff00ff;stroke-linejoin:miter;stroke-width:1.5;" x="369.60768" xlink:href="#mcf42b87ceb" y="293.571802"/>
    </g>
   </g>
   <g id="line2d_59">
    <path d="M 338.688 30.334099 
L 369.60768 250.594218 
" style="fill:none;stroke:#ff0000;stroke-linecap:square;stroke-width:1.5;"/>
    <g>
     <use style="fill-opacity:0;stroke:#ff0000;stroke-linejoin:miter;stroke-width:1.5;" x="338.688" xlink:href="#ma97848a4c1" y="30.334099"/>
     <use style="fill-opacity:0;stroke:#ff0000;stroke-linejoin:miter;stroke-width:1.5;" x="369.60768" xlink:href="#ma97848a4c1" y="250.594218"/>
    </g>
   </g>
   <g id="line2d_60">
    <path d="M 338.688 30.334099 
L 369.60768 207.616634 
" style="fill:none;stroke:#9acd32;stroke-linecap:square;stroke-width:1.5;"/>
    <g>
     <use style="fill-opacity:0;stroke:#9acd32;stroke-linejoin:miter;stroke-width:1.5;" x="338.688" xlink:href="#m09b6054d18" y="30.334099"/>
     <use style="fill-opacity:0;stroke:#9acd32;stroke-linejoin:miter;stroke-width:1.5;" x="369.60768" xlink:href="#m09b6054d18" y="207.616634"/>
    </g>
   </g>
   <g id="line2d_61">
    <path d="M 338.688 30.334099 
L 369.60768 121.661465 
" style="fill:none;stroke:#000080;stroke-linecap:square;stroke-width:1.5;"/>
    <g>
     <use style="fill-opacity:0;stroke:#000080;stroke-width:1.5;" x="338.688" xlink:href="#mf9a39c2da3" y="30.334099"/>
     <use style="fill-opacity:0;stroke:#000080;stroke-width:1.5;" x="369.60768" xlink:href="#mf9a39c2da3" y="121.661465"/>
    </g>
   </g>
   <g id="line2d_62">
    <path d="M 338.688 30.334099 
L 369.60768 78.683881 
" style="fill:none;stroke:#000080;stroke-linecap:square;stroke-width:1.5;"/>
    <g>
     <use style="fill-opacity:0;stroke:#000080;stroke-width:1.5;" x="338.688" xlink:href="#mf9a39c2da3" y="30.334099"/>
     <use style="fill-opacity:0;stroke:#000080;stroke-width:1.5;" x="369.60768" xlink:href="#mf9a39c2da3" y="78.683881"/>
    </g>
   </g>
   <g id="line2d_63">
    <path d="M 338.688 30.334099 
L 369.60768 35.706297 
" style="fill:none;stroke:#ff7500;stroke-linecap:square;stroke-width:1.5;"/>
    <g>
     <use style="fill-opacity:0;stroke:#ff7500;stroke-linejoin:bevel;stroke-width:1.5;" x="338.688" xlink:href="#m80b63607f3" y="30.334099"/>
     <use style="fill-opacity:0;stroke:#ff7500;stroke-linejoin:bevel;stroke-width:1.5;" x="369.60768" xlink:href="#m80b63607f3" y="35.706297"/>
    </g>
   </g>
   <g id="line2d_64">
    <path d="M 338.688 298.944 
L 338.688 30.334099 
" style="fill:none;stroke:#000000;stroke-linecap:square;stroke-width:1.5;"/>
   </g>
   <g id="patch_3">
    <path d="M 57.6 298.944 
L 57.6 27.648 
" style="fill:none;stroke:#000000;stroke-linecap:square;stroke-linejoin:miter;stroke-width:0.8;"/>
   </g>
   <g id="patch_4">
    <path d="M 338.688 298.944 
L 338.688 27.648 
" style="fill:none;stroke:#000000;stroke-linecap:square;stroke-linejoin:miter;stroke-width:0.8;"/>
   </g>
   <g id="patch_5">
    <path d="M 57.6 298.944 
L 338.688 298.944 
" style="fill:none;stroke:#000000;stroke-linecap:square;stroke-linejoin:miter;stroke-width:0.8;"/>
   </g>
   <g id="patch_6">
    <path d="M 57.6 27.648 
L 338.688 27.648 
" style="fill:none;stroke:#000000;stroke-linecap:square;stroke-linejoin:miter;stroke-width:0.8;"/>
   </g>
   <g id="text_13">
    <!-- 400-2e4 -->
    <g transform="translate(375.22944 298.262739)scale(0.17 -0.17)">
     <use xlink:href="#DejaVuSans-52"/>
     <use x="63.623047" xlink:href="#DejaVuSans-48"/>
     <use x="127.246094" xlink:href="#DejaVuSans-48"/>
     <use x="190.869141" xlink:href="#DejaVuSans-45"/>
     <use x="226.953125" xlink:href="#DejaVuSans-50"/>
     <use x="290.576172" xlink:href="#DejaVuSans-101"/>
     <use x="352.099609" xlink:href="#DejaVuSans-52"/>
    </g>
   </g>
   <g id="text_14">
    <!-- 200-2e4 -->
    <g transform="translate(375.22944 255.285155)scale(0.17 -0.17)">
     <use xlink:href="#DejaVuSans-50"/>
     <use x="63.623047" xlink:href="#DejaVuSans-48"/>
     <use x="127.246094" xlink:href="#DejaVuSans-48"/>
     <use x="190.869141" xlink:href="#DejaVuSans-45"/>
     <use x="226.953125" xlink:href="#DejaVuSans-50"/>
     <use x="290.576172" xlink:href="#DejaVuSans-101"/>
     <use x="352.099609" xlink:href="#DejaVuSans-52"/>
    </g>
   </g>
   <g id="text_15">
    <!-- 120-1e5 -->
    <defs>
     <path d="M 10.796875 72.90625 
L 49.515625 72.90625 
L 49.515625 64.59375 
L 19.828125 64.59375 
L 19.828125 46.734375 
Q 21.96875 47.46875 24.109375 47.828125 
Q 26.265625 48.1875 28.421875 48.1875 
Q 40.625 48.1875 47.75 41.5 
Q 54.890625 34.8125 54.890625 23.390625 
Q 54.890625 11.625 47.5625 5.09375 
Q 40.234375 -1.421875 26.90625 -1.421875 
Q 22.3125 -1.421875 17.546875 -0.640625 
Q 12.796875 0.140625 7.71875 1.703125 
L 7.71875 11.625 
Q 12.109375 9.234375 16.796875 8.0625 
Q 21.484375 6.890625 26.703125 6.890625 
Q 35.15625 6.890625 40.078125 11.328125 
Q 45.015625 15.765625 45.015625 23.390625 
Q 45.015625 31 40.078125 35.4375 
Q 35.15625 39.890625 26.703125 39.890625 
Q 22.75 39.890625 18.8125 39.015625 
Q 14.890625 38.140625 10.796875 36.28125 
z
" id="DejaVuSans-53"/>
    </defs>
    <g transform="translate(375.22944 212.307571)scale(0.17 -0.17)">
     <use xlink:href="#DejaVuSans-49"/>
     <use x="63.623047" xlink:href="#DejaVuSans-50"/>
     <use x="127.246094" xlink:href="#DejaVuSans-48"/>
     <use x="190.869141" xlink:href="#DejaVuSans-45"/>
     <use x="226.953125" xlink:href="#DejaVuSans-49"/>
     <use x="290.576172" xlink:href="#DejaVuSans-101"/>
     <use x="352.099609" xlink:href="#DejaVuSans-53"/>
    </g>
   </g>
   <g id="text_16">
    <!-- best 2009 -->
    <defs>
     <path d="M 48.6875 27.296875 
Q 48.6875 37.203125 44.609375 42.84375 
Q 40.53125 48.484375 33.40625 48.484375 
Q 26.265625 48.484375 22.1875 42.84375 
Q 18.109375 37.203125 18.109375 27.296875 
Q 18.109375 17.390625 22.1875 11.75 
Q 26.265625 6.109375 33.40625 6.109375 
Q 40.53125 6.109375 44.609375 11.75 
Q 48.6875 17.390625 48.6875 27.296875 
z
M 18.109375 46.390625 
Q 20.953125 51.265625 25.265625 53.625 
Q 29.59375 56 35.59375 56 
Q 45.5625 56 51.78125 48.09375 
Q 58.015625 40.1875 58.015625 27.296875 
Q 58.015625 14.40625 51.78125 6.484375 
Q 45.5625 -1.421875 35.59375 -1.421875 
Q 29.59375 -1.421875 25.265625 0.953125 
Q 20.953125 3.328125 18.109375 8.203125 
L 18.109375 0 
L 9.078125 0 
L 9.078125 75.984375 
L 18.109375 75.984375 
z
" id="DejaVuSans-98"/>
     <path d="M 10.984375 1.515625 
L 10.984375 10.5 
Q 14.703125 8.734375 18.5 7.8125 
Q 22.3125 6.890625 25.984375 6.890625 
Q 35.75 6.890625 40.890625 13.453125 
Q 46.046875 20.015625 46.78125 33.40625 
Q 43.953125 29.203125 39.59375 26.953125 
Q 35.25 24.703125 29.984375 24.703125 
Q 19.046875 24.703125 12.671875 31.3125 
Q 6.296875 37.9375 6.296875 49.421875 
Q 6.296875 60.640625 12.9375 67.421875 
Q 19.578125 74.21875 30.609375 74.21875 
Q 43.265625 74.21875 49.921875 64.515625 
Q 56.59375 54.828125 56.59375 36.375 
Q 56.59375 19.140625 48.40625 8.859375 
Q 40.234375 -1.421875 26.421875 -1.421875 
Q 22.703125 -1.421875 18.890625 -0.6875 
Q 15.09375 0.046875 10.984375 1.515625 
z
M 30.609375 32.421875 
Q 37.25 32.421875 41.125 36.953125 
Q 45.015625 41.5 45.015625 49.421875 
Q 45.015625 57.28125 41.125 61.84375 
Q 37.25 66.40625 30.609375 66.40625 
Q 23.96875 66.40625 20.09375 61.84375 
Q 16.21875 57.28125 16.21875 49.421875 
Q 16.21875 41.5 20.09375 36.953125 
Q 23.96875 32.421875 30.609375 32.421875 
z
" id="DejaVuSans-57"/>
    </defs>
    <g transform="translate(375.22944 169.329987)scale(0.17 -0.17)">
     <use xlink:href="#DejaVuSans-98"/>
     <use x="63.476562" xlink:href="#DejaVuSans-101"/>
     <use x="125" xlink:href="#DejaVuSans-115"/>
     <use x="177.099609" xlink:href="#DejaVuSans-116"/>
     <use x="216.308594" xlink:href="#DejaVuSans-32"/>
     <use x="248.095703" xlink:href="#DejaVuSans-50"/>
     <use x="311.71875" xlink:href="#DejaVuSans-48"/>
     <use x="375.341797" xlink:href="#DejaVuSans-48"/>
     <use x="438.964844" xlink:href="#DejaVuSans-57"/>
    </g>
   </g>
   <g id="text_17">
    <!-- 100-1e5 -->
    <g transform="translate(375.22944 126.352403)scale(0.17 -0.17)">
     <use xlink:href="#DejaVuSans-49"/>
     <use x="63.623047" xlink:href="#DejaVuSans-48"/>
     <use x="127.246094" xlink:href="#DejaVuSans-48"/>
     <use x="190.869141" xlink:href="#DejaVuSans-45"/>
     <use x="226.953125" xlink:href="#DejaVuSans-49"/>
     <use x="290.576172" xlink:href="#DejaVuSans-101"/>
     <use x="352.099609" xlink:href="#DejaVuSans-53"/>
    </g>
   </g>
   <g id="text_18">
    <!-- 100-2e4 -->
    <g transform="translate(375.22944 83.374819)scale(0.17 -0.17)">
     <use xlink:href="#DejaVuSans-49"/>
     <use x="63.623047" xlink:href="#DejaVuSans-48"/>
     <use x="127.246094" xlink:href="#DejaVuSans-48"/>
     <use x="190.869141" xlink:href="#DejaVuSans-45"/>
     <use x="226.953125" xlink:href="#DejaVuSans-50"/>
     <use x="290.576172" xlink:href="#DejaVuSans-101"/>
     <use x="352.099609" xlink:href="#DejaVuSans-52"/>
    </g>
   </g>
   <g id="text_19">
    <!-- 140-2e4 -->
    <g transform="translate(375.22944 40.397235)scale(0.17 -0.17)">
     <use xlink:href="#DejaVuSans-49"/>
     <use x="63.623047" xlink:href="#DejaVuSans-52"/>
     <use x="127.246094" xlink:href="#DejaVuSans-48"/>
     <use x="190.869141" xlink:href="#DejaVuSans-45"/>
     <use x="226.953125" xlink:href="#DejaVuSans-50"/>
     <use x="290.576172" xlink:href="#DejaVuSans-101"/>
     <use x="352.099609" xlink:href="#DejaVuSans-52"/>
    </g>
   </g>
   <g id="text_20">
    <!-- bbob f10, 10-D -->
    <defs>
     <path d="M 19.671875 64.796875 
L 19.671875 8.109375 
L 31.59375 8.109375 
Q 46.6875 8.109375 53.6875 14.9375 
Q 60.6875 21.78125 60.6875 36.53125 
Q 60.6875 51.171875 53.6875 57.984375 
Q 46.6875 64.796875 31.59375 64.796875 
z
M 9.8125 72.90625 
L 30.078125 72.90625 
Q 51.265625 72.90625 61.171875 64.09375 
Q 71.09375 55.28125 71.09375 36.53125 
Q 71.09375 17.671875 61.125 8.828125 
Q 51.171875 0 30.078125 0 
L 9.8125 0 
z
" id="DejaVuSans-68"/>
    </defs>
    <g transform="translate(60.41088 38.111366)scale(0.102 -0.102)">
     <use xlink:href="#DejaVuSans-98"/>
     <use x="63.476562" xlink:href="#DejaVuSans-98"/>
     <use x="126.953125" xlink:href="#DejaVuSans-111"/>
     <use x="188.134766" xlink:href="#DejaVuSans-98"/>
     <use x="251.611328" xlink:href="#DejaVuSans-32"/>
     <use x="283.398438" xlink:href="#DejaVuSans-102"/>
     <use x="318.603516" xlink:href="#DejaVuSans-49"/>
     <use x="382.226562" xlink:href="#DejaVuSans-48"/>
     <use x="445.849609" xlink:href="#DejaVuSans-44"/>
     <use x="477.636719" xlink:href="#DejaVuSans-32"/>
     <use x="509.423828" xlink:href="#DejaVuSans-49"/>
     <use x="573.046875" xlink:href="#DejaVuSans-48"/>
     <use x="636.669922" xlink:href="#DejaVuSans-45"/>
     <use x="672.753906" xlink:href="#DejaVuSans-68"/>
    </g>
    <!-- 51 targets: 100..1e-08 -->
    <defs>
     <path d="M 11.71875 12.40625 
L 22.015625 12.40625 
L 22.015625 0 
L 11.71875 0 
z
M 11.71875 51.703125 
L 22.015625 51.703125 
L 22.015625 39.3125 
L 11.71875 39.3125 
z
" id="DejaVuSans-58"/>
    </defs>
    <g transform="translate(60.41088 49.533135)scale(0.102 -0.102)">
     <use xlink:href="#DejaVuSans-53"/>
     <use x="63.623047" xlink:href="#DejaVuSans-49"/>
     <use x="127.246094" xlink:href="#DejaVuSans-32"/>
     <use x="159.033203" xlink:href="#DejaVuSans-116"/>
     <use x="198.242188" xlink:href="#DejaVuSans-97"/>
     <use x="259.521484" xlink:href="#DejaVuSans-114"/>
     <use x="300.619141" xlink:href="#DejaVuSans-103"/>
     <use x="364.095703" xlink:href="#DejaVuSans-101"/>
     <use x="425.619141" xlink:href="#DejaVuSans-116"/>
     <use x="464.828125" xlink:href="#DejaVuSans-115"/>
     <use x="516.927734" xlink:href="#DejaVuSans-58"/>
     <use x="550.619141" xlink:href="#DejaVuSans-32"/>
     <use x="582.40625" xlink:href="#DejaVuSans-49"/>
     <use x="646.029297" xlink:href="#DejaVuSans-48"/>
     <use x="709.652344" xlink:href="#DejaVuSans-48"/>
     <use x="773.275391" xlink:href="#DejaVuSans-46"/>
     <use x="805.0625" xlink:href="#DejaVuSans-46"/>
     <use x="836.849609" xlink:href="#DejaVuSans-49"/>
     <use x="900.472656" xlink:href="#DejaVuSans-101"/>
     <use x="961.996094" xlink:href="#DejaVuSans-45"/>
     <use x="998.080078" xlink:href="#DejaVuSans-48"/>
     <use x="1061.703125" xlink:href="#DejaVuSans-56"/>
    </g>
    <!-- 15 instances -->
    <g transform="translate(60.41088 60.954904)scale(0.102 -0.102)">
     <use xlink:href="#DejaVuSans-49"/>
     <use x="63.623047" xlink:href="#DejaVuSans-53"/>
     <use x="127.246094" xlink:href="#DejaVuSans-32"/>
     <use x="159.033203" xlink:href="#DejaVuSans-105"/>
     <use x="186.816406" xlink:href="#DejaVuSans-110"/>
     <use x="250.195312" xlink:href="#DejaVuSans-115"/>
     <use x="302.294922" xlink:href="#DejaVuSans-116"/>
     <use x="341.503906" xlink:href="#DejaVuSans-97"/>
     <use x="402.783203" xlink:href="#DejaVuSans-110"/>
     <use x="466.162109" xlink:href="#DejaVuSans-99"/>
     <use x="521.142578" xlink:href="#DejaVuSans-101"/>
     <use x="582.666016" xlink:href="#DejaVuSans-115"/>
    </g>
   </g>
   <g id="text_21">
    <!-- v2.3.3.18.73 -->
    <defs>
     <path d="M 40.578125 39.3125 
Q 47.65625 37.796875 51.625 33 
Q 55.609375 28.21875 55.609375 21.1875 
Q 55.609375 10.40625 48.1875 4.484375 
Q 40.765625 -1.421875 27.09375 -1.421875 
Q 22.515625 -1.421875 17.65625 -0.515625 
Q 12.796875 0.390625 7.625 2.203125 
L 7.625 11.71875 
Q 11.71875 9.328125 16.59375 8.109375 
Q 21.484375 6.890625 26.8125 6.890625 
Q 36.078125 6.890625 40.9375 10.546875 
Q 45.796875 14.203125 45.796875 21.1875 
Q 45.796875 27.640625 41.28125 31.265625 
Q 36.765625 34.90625 28.71875 34.90625 
L 20.21875 34.90625 
L 20.21875 43.015625 
L 29.109375 43.015625 
Q 36.375 43.015625 40.234375 45.921875 
Q 44.09375 48.828125 44.09375 54.296875 
Q 44.09375 59.90625 40.109375 62.90625 
Q 36.140625 65.921875 28.71875 65.921875 
Q 24.65625 65.921875 20.015625 65.03125 
Q 15.375 64.15625 9.8125 62.3125 
L 9.8125 71.09375 
Q 15.4375 72.65625 20.34375 73.4375 
Q 25.25 74.21875 29.59375 74.21875 
Q 40.828125 74.21875 47.359375 69.109375 
Q 53.90625 64.015625 53.90625 55.328125 
Q 53.90625 49.265625 50.4375 45.09375 
Q 46.96875 40.921875 40.578125 39.3125 
z
" id="DejaVuSans-51"/>
     <path d="M 8.203125 72.90625 
L 55.078125 72.90625 
L 55.078125 68.703125 
L 28.609375 0 
L 18.3125 0 
L 43.21875 64.59375 
L 8.203125 64.59375 
z
" id="DejaVuSans-55"/>
    </defs>
    <g style="fill:#808080;" transform="translate(166.559625 294.151352)scale(0.1 -0.1)">
     <use xlink:href="#DejaVuSans-118"/>
     <use x="59.179688" xlink:href="#DejaVuSans-50"/>
     <use x="122.802734" xlink:href="#DejaVuSans-46"/>
     <use x="154.589844" xlink:href="#DejaVuSans-51"/>
     <use x="218.212891" xlink:href="#DejaVuSans-46"/>
     <use x="250" xlink:href="#DejaVuSans-51"/>
     <use x="313.623047" xlink:href="#DejaVuSans-46"/>
     <use x="345.410156" xlink:href="#DejaVuSans-49"/>
     <use x="409.033203" xlink:href="#DejaVuSans-56"/>
     <use x="472.65625" xlink:href="#DejaVuSans-46"/>
     <use x="504.443359" xlink:href="#DejaVuSans-55"/>
     <use x="568.066406" xlink:href="#DejaVuSans-51"/>
    </g>
   </g>
   <g id="text_22">
    <!-- 10 Ellipsoid -->
    <defs>
     <path d="M 9.8125 72.90625 
L 55.90625 72.90625 
L 55.90625 64.59375 
L 19.671875 64.59375 
L 19.671875 43.015625 
L 54.390625 43.015625 
L 54.390625 34.71875 
L 19.671875 34.71875 
L 19.671875 8.296875 
L 56.78125 8.296875 
L 56.78125 0 
L 9.8125 0 
z
" id="DejaVuSans-69"/>
    </defs>
    <g transform="translate(140.784625 21.648)scale(0.2 -0.2)">
     <use xlink:href="#DejaVuSans-49"/>
     <use x="63.623047" xlink:href="#DejaVuSans-48"/>
     <use x="127.246094" xlink:href="#DejaVuSans-32"/>
     <use x="159.033203" xlink:href="#DejaVuSans-69"/>
     <use x="222.216797" xlink:href="#DejaVuSans-108"/>
     <use x="250" xlink:href="#DejaVuSans-108"/>
     <use x="277.783203" xlink:href="#DejaVuSans-105"/>
     <use x="305.566406" xlink:href="#DejaVuSans-112"/>
     <use x="369.042969" xlink:href="#DejaVuSans-115"/>
     <use x="421.142578" xlink:href="#DejaVuSans-111"/>
     <use x="482.324219" xlink:href="#DejaVuSans-105"/>
     <use x="510.107422" xlink:href="#DejaVuSans-100"/>
    </g>
   </g>
  </g>
 </g>
 <defs>
  <clipPath id="p430c1166bb">
   <rect height="271.296" width="281.088" x="57.6" y="27.648"/>
  </clipPath>
 </defs>
</svg>
