<?xml version="1.0" encoding="utf-8" standalone="no"?>
<!DOCTYPE svg PUBLIC "-//W3C//DTD SVG 1.1//EN"
  "http://www.w3.org/Graphics/SVG/1.1/DTD/svg11.dtd">
<!-- Created with matplotlib (https://matplotlib.org/) -->
<svg height="345.6pt" version="1.1" viewBox="0 0 460.8 345.6" width="460.8pt" xmlns="http://www.w3.org/2000/svg" xmlns:xlink="http://www.w3.org/1999/xlink">
 <defs>
  <style type="text/css">
*{stroke-linecap:butt;stroke-linejoin:round;}
  </style>
 </defs>
 <g id="figure_1">
  <g id="patch_1">
   <path d="M 0 345.6 
L 460.8 345.6 
L 460.8 0 
L 0 0 
z
" style="fill:#ffffff;"/>
  </g>
  <g id="axes_1">
   <g id="patch_2">
    <path d="M 57.6 298.944 
L 338.688 298.944 
L 338.688 27.648 
L 57.6 27.648 
z
" style="fill:#ffffff;"/>
   </g>
   <g id="line2d_1">
    <path d="M 108.948899 298.944 
L 108.948899 293.677139 
L 109.040444 293.677139 
L 109.040444 288.410278 
L 109.086037 288.410278 
L 109.086037 277.876557 
L 109.131511 277.876557 
L 109.131511 272.609696 
L 109.176867 272.609696 
L 109.176867 246.275392 
L 109.222105 246.275392 
L 109.222105 219.941088 
L 109.267226 219.941088 
L 109.267226 193.606784 
L 109.31223 193.606784 
L 109.31223 188.339923 
L 109.357119 188.339923 
L 109.357119 172.539341 
L 109.401893 172.539341 
L 109.401893 135.671315 
L 109.446552 135.671315 
L 109.446552 104.07015 
L 109.491096 104.07015 
L 109.491096 77.735846 
L 109.535528 77.735846 
L 109.535528 46.134681 
L 109.624052 46.134681 
L 109.624052 40.867821 
L 110.016944 40.867821 
L 110.016944 35.60096 
L 110.358901 35.60096 
L 110.358901 30.334099 
L 338.688 30.334099 
" style="fill:none;stroke:#f5deb3;stroke-linecap:square;stroke-width:4;"/>
   </g>
   <g id="line2d_2">
    <defs>
     <path d="M -0 7.778175 
L 7.778175 0 
L 0 -7.778175 
L -7.778175 -0 
z
" id="m9ebd4ba771" style="stroke:#f5deb3;stroke-linejoin:miter;stroke-width:1.5;"/>
    </defs>
    <g>
     <use style="fill:#f5deb3;stroke:#f5deb3;stroke-linejoin:miter;stroke-width:1.5;" x="109.267226" xlink:href="#m9ebd4ba771" y="219.941088"/>
     <use style="fill:#f5deb3;stroke:#f5deb3;stroke-linejoin:miter;stroke-width:1.5;" x="109.535528" xlink:href="#m9ebd4ba771" y="77.735846"/>
     <use style="fill:#f5deb3;stroke:#f5deb3;stroke-linejoin:miter;stroke-width:1.5;" x="110.358901" xlink:href="#m9ebd4ba771" y="30.334099"/>
     <use style="fill:#f5deb3;stroke:#f5deb3;stroke-linejoin:miter;stroke-width:1.5;" x="110.358901" xlink:href="#m9ebd4ba771" y="30.334099"/>
     <use style="fill:#f5deb3;stroke:#f5deb3;stroke-linejoin:miter;stroke-width:1.5;" x="338.688" xlink:href="#m9ebd4ba771" y="30.334099"/>
    </g>
   </g>
   <g id="line2d_3">
    <path style="fill:none;stroke:#f5deb3;stroke-linecap:square;stroke-width:4;"/>
    <g/>
   </g>
   <g id="line2d_4">
    <path d="M 338.688 30.334099 
L 369.60768 35.706297 
" style="fill:none;stroke:#f5deb3;stroke-linecap:square;stroke-width:4;"/>
    <g>
     <use style="fill:#f5deb3;stroke:#f5deb3;stroke-linejoin:miter;stroke-width:1.5;" x="338.688" xlink:href="#m9ebd4ba771" y="30.334099"/>
     <use style="fill:#f5deb3;stroke:#f5deb3;stroke-linejoin:miter;stroke-width:1.5;" x="369.60768" xlink:href="#m9ebd4ba771" y="35.706297"/>
    </g>
   </g>
   <g id="matplotlib.axis_1">
    <g id="xtick_1">
     <g id="line2d_5">
      <path clip-path="url(#p8599829bda)" d="M 57.6 298.944 
L 57.6 27.648 
" style="fill:none;stroke:#b0b0b0;stroke-linecap:square;stroke-width:0.8;"/>
     </g>
     <g id="line2d_6">
      <defs>
       <path d="M 0 0 
L 0 3.5 
" id="m1b6c3bbcd9" style="stroke:#000000;stroke-width:0.8;"/>
      </defs>
      <g>
       <use style="stroke:#000000;stroke-width:0.8;" x="57.6" xlink:href="#m1b6c3bbcd9" y="298.944"/>
      </g>
     </g>
     <g id="text_1">
      <!-- 0 -->
      <defs>
       <path d="M 31.78125 66.40625 
Q 24.171875 66.40625 20.328125 58.90625 
Q 16.5 51.421875 16.5 36.375 
Q 16.5 21.390625 20.328125 13.890625 
Q 24.171875 6.390625 31.78125 6.390625 
Q 39.453125 6.390625 43.28125 13.890625 
Q 47.125 21.390625 47.125 36.375 
Q 47.125 51.421875 43.28125 58.90625 
Q 39.453125 66.40625 31.78125 66.40625 
z
M 31.78125 74.21875 
Q 44.046875 74.21875 50.515625 64.515625 
Q 56.984375 54.828125 56.984375 36.375 
Q 56.984375 17.96875 50.515625 8.265625 
Q 44.046875 -1.421875 31.78125 -1.421875 
Q 19.53125 -1.421875 13.0625 8.265625 
Q 6.59375 17.96875 6.59375 36.375 
Q 6.59375 54.828125 13.0625 64.515625 
Q 19.53125 74.21875 31.78125 74.21875 
z
" id="DejaVuSans-48"/>
      </defs>
      <g transform="translate(51.2375 321.140875)scale(0.2 -0.2)">
       <use xlink:href="#DejaVuSans-48"/>
      </g>
     </g>
    </g>
    <g id="xtick_2">
     <g id="line2d_7">
      <path clip-path="url(#p8599829bda)" d="M 137.910857 298.944 
L 137.910857 27.648 
" style="fill:none;stroke:#b0b0b0;stroke-linecap:square;stroke-width:0.8;"/>
     </g>
     <g id="line2d_8">
      <g>
       <use style="stroke:#000000;stroke-width:0.8;" x="137.910857" xlink:href="#m1b6c3bbcd9" y="298.944"/>
      </g>
     </g>
     <g id="text_2">
      <!-- 2 -->
      <defs>
       <path d="M 19.1875 8.296875 
L 53.609375 8.296875 
L 53.609375 0 
L 7.328125 0 
L 7.328125 8.296875 
Q 12.9375 14.109375 22.625 23.890625 
Q 32.328125 33.6875 34.8125 36.53125 
Q 39.546875 41.84375 41.421875 45.53125 
Q 43.3125 49.21875 43.3125 52.78125 
Q 43.3125 58.59375 39.234375 62.25 
Q 35.15625 65.921875 28.609375 65.921875 
Q 23.96875 65.921875 18.8125 64.3125 
Q 13.671875 62.703125 7.8125 59.421875 
L 7.8125 69.390625 
Q 13.765625 71.78125 18.9375 73 
Q 24.125 74.21875 28.421875 74.21875 
Q 39.75 74.21875 46.484375 68.546875 
Q 53.21875 62.890625 53.21875 53.421875 
Q 53.21875 48.921875 51.53125 44.890625 
Q 49.859375 40.875 45.40625 35.40625 
Q 44.1875 33.984375 37.640625 27.21875 
Q 31.109375 20.453125 19.1875 8.296875 
z
" id="DejaVuSans-50"/>
      </defs>
      <g transform="translate(131.548357 321.140875)scale(0.2 -0.2)">
       <use xlink:href="#DejaVuSans-50"/>
      </g>
     </g>
    </g>
    <g id="xtick_3">
     <g id="line2d_9">
      <path clip-path="url(#p8599829bda)" d="M 218.221714 298.944 
L 218.221714 27.648 
" style="fill:none;stroke:#b0b0b0;stroke-linecap:square;stroke-width:0.8;"/>
     </g>
     <g id="line2d_10">
      <g>
       <use style="stroke:#000000;stroke-width:0.8;" x="218.221714" xlink:href="#m1b6c3bbcd9" y="298.944"/>
      </g>
     </g>
     <g id="text_3">
      <!-- 4 -->
      <defs>
       <path d="M 37.796875 64.3125 
L 12.890625 25.390625 
L 37.796875 25.390625 
z
M 35.203125 72.90625 
L 47.609375 72.90625 
L 47.609375 25.390625 
L 58.015625 25.390625 
L 58.015625 17.1875 
L 47.609375 17.1875 
L 47.609375 0 
L 37.796875 0 
L 37.796875 17.1875 
L 4.890625 17.1875 
L 4.890625 26.703125 
z
" id="DejaVuSans-52"/>
      </defs>
      <g transform="translate(211.859214 321.140875)scale(0.2 -0.2)">
       <use xlink:href="#DejaVuSans-52"/>
      </g>
     </g>
    </g>
    <g id="xtick_4">
     <g id="line2d_11">
      <path clip-path="url(#p8599829bda)" d="M 298.532571 298.944 
L 298.532571 27.648 
" style="fill:none;stroke:#b0b0b0;stroke-linecap:square;stroke-width:0.8;"/>
     </g>
     <g id="line2d_12">
      <g>
       <use style="stroke:#000000;stroke-width:0.8;" x="298.532571" xlink:href="#m1b6c3bbcd9" y="298.944"/>
      </g>
     </g>
     <g id="text_4">
      <!-- 6 -->
      <defs>
       <path d="M 33.015625 40.375 
Q 26.375 40.375 22.484375 35.828125 
Q 18.609375 31.296875 18.609375 23.390625 
Q 18.609375 15.53125 22.484375 10.953125 
Q 26.375 6.390625 33.015625 6.390625 
Q 39.65625 6.390625 43.53125 10.953125 
Q 47.40625 15.53125 47.40625 23.390625 
Q 47.40625 31.296875 43.53125 35.828125 
Q 39.65625 40.375 33.015625 40.375 
z
M 52.59375 71.296875 
L 52.59375 62.3125 
Q 48.875 64.0625 45.09375 64.984375 
Q 41.3125 65.921875 37.59375 65.921875 
Q 27.828125 65.921875 22.671875 59.328125 
Q 17.53125 52.734375 16.796875 39.40625 
Q 19.671875 43.65625 24.015625 45.921875 
Q 28.375 48.1875 33.59375 48.1875 
Q 44.578125 48.1875 50.953125 41.515625 
Q 57.328125 34.859375 57.328125 23.390625 
Q 57.328125 12.15625 50.6875 5.359375 
Q 44.046875 -1.421875 33.015625 -1.421875 
Q 20.359375 -1.421875 13.671875 8.265625 
Q 6.984375 17.96875 6.984375 36.375 
Q 6.984375 53.65625 15.1875 63.9375 
Q 23.390625 74.21875 37.203125 74.21875 
Q 40.921875 74.21875 44.703125 73.484375 
Q 48.484375 72.75 52.59375 71.296875 
z
" id="DejaVuSans-54"/>
      </defs>
      <g transform="translate(292.170071 321.140875)scale(0.2 -0.2)">
       <use xlink:href="#DejaVuSans-54"/>
      </g>
     </g>
    </g>
    <g id="xtick_5">
     <g id="line2d_13">
      <path clip-path="url(#p8599829bda)" d="M 97.755429 298.944 
L 97.755429 27.648 
" style="fill:none;stroke:#b0b0b0;stroke-linecap:square;stroke-width:0.8;"/>
     </g>
     <g id="line2d_14">
      <defs>
       <path d="M 0 0 
L 0 2 
" id="m585a199337" style="stroke:#000000;stroke-width:0.6;"/>
      </defs>
      <g>
       <use style="stroke:#000000;stroke-width:0.6;" x="97.755429" xlink:href="#m585a199337" y="298.944"/>
      </g>
     </g>
    </g>
    <g id="xtick_6">
     <g id="line2d_15">
      <path clip-path="url(#p8599829bda)" d="M 178.066286 298.944 
L 178.066286 27.648 
" style="fill:none;stroke:#b0b0b0;stroke-linecap:square;stroke-width:0.8;"/>
     </g>
     <g id="line2d_16">
      <g>
       <use style="stroke:#000000;stroke-width:0.6;" x="178.066286" xlink:href="#m585a199337" y="298.944"/>
      </g>
     </g>
    </g>
    <g id="xtick_7">
     <g id="line2d_17">
      <path clip-path="url(#p8599829bda)" d="M 258.377143 298.944 
L 258.377143 27.648 
" style="fill:none;stroke:#b0b0b0;stroke-linecap:square;stroke-width:0.8;"/>
     </g>
     <g id="line2d_18">
      <g>
       <use style="stroke:#000000;stroke-width:0.6;" x="258.377143" xlink:href="#m585a199337" y="298.944"/>
      </g>
     </g>
    </g>
    <g id="xtick_8">
     <g id="line2d_19">
      <path clip-path="url(#p8599829bda)" d="M 338.688 298.944 
L 338.688 27.648 
" style="fill:none;stroke:#b0b0b0;stroke-linecap:square;stroke-width:0.8;"/>
     </g>
     <g id="line2d_20">
      <g>
       <use style="stroke:#000000;stroke-width:0.6;" x="338.688" xlink:href="#m585a199337" y="298.944"/>
      </g>
     </g>
    </g>
    <g id="text_5">
     <!-- log10(# f-evals / dimension) -->
     <defs>
      <path d="M 9.421875 75.984375 
L 18.40625 75.984375 
L 18.40625 0 
L 9.421875 0 
z
" id="DejaVuSans-108"/>
      <path d="M 30.609375 48.390625 
Q 23.390625 48.390625 19.1875 42.75 
Q 14.984375 37.109375 14.984375 27.296875 
Q 14.984375 17.484375 19.15625 11.84375 
Q 23.34375 6.203125 30.609375 6.203125 
Q 37.796875 6.203125 41.984375 11.859375 
Q 46.1875 17.53125 46.1875 27.296875 
Q 46.1875 37.015625 41.984375 42.703125 
Q 37.796875 48.390625 30.609375 48.390625 
z
M 30.609375 56 
Q 42.328125 56 49.015625 48.375 
Q 55.71875 40.765625 55.71875 27.296875 
Q 55.71875 13.875 49.015625 6.21875 
Q 42.328125 -1.421875 30.609375 -1.421875 
Q 18.84375 -1.421875 12.171875 6.21875 
Q 5.515625 13.875 5.515625 27.296875 
Q 5.515625 40.765625 12.171875 48.375 
Q 18.84375 56 30.609375 56 
z
" id="DejaVuSans-111"/>
      <path d="M 45.40625 27.984375 
Q 45.40625 37.75 41.375 43.109375 
Q 37.359375 48.484375 30.078125 48.484375 
Q 22.859375 48.484375 18.828125 43.109375 
Q 14.796875 37.75 14.796875 27.984375 
Q 14.796875 18.265625 18.828125 12.890625 
Q 22.859375 7.515625 30.078125 7.515625 
Q 37.359375 7.515625 41.375 12.890625 
Q 45.40625 18.265625 45.40625 27.984375 
z
M 54.390625 6.78125 
Q 54.390625 -7.171875 48.1875 -13.984375 
Q 42 -20.796875 29.203125 -20.796875 
Q 24.46875 -20.796875 20.265625 -20.09375 
Q 16.0625 -19.390625 12.109375 -17.921875 
L 12.109375 -9.1875 
Q 16.0625 -11.328125 19.921875 -12.34375 
Q 23.78125 -13.375 27.78125 -13.375 
Q 36.625 -13.375 41.015625 -8.765625 
Q 45.40625 -4.15625 45.40625 5.171875 
L 45.40625 9.625 
Q 42.625 4.78125 38.28125 2.390625 
Q 33.9375 0 27.875 0 
Q 17.828125 0 11.671875 7.65625 
Q 5.515625 15.328125 5.515625 27.984375 
Q 5.515625 40.671875 11.671875 48.328125 
Q 17.828125 56 27.875 56 
Q 33.9375 56 38.28125 53.609375 
Q 42.625 51.21875 45.40625 46.390625 
L 45.40625 54.6875 
L 54.390625 54.6875 
z
" id="DejaVuSans-103"/>
      <path d="M 12.40625 8.296875 
L 28.515625 8.296875 
L 28.515625 63.921875 
L 10.984375 60.40625 
L 10.984375 69.390625 
L 28.421875 72.90625 
L 38.28125 72.90625 
L 38.28125 8.296875 
L 54.390625 8.296875 
L 54.390625 0 
L 12.40625 0 
z
" id="DejaVuSans-49"/>
      <path d="M 31 75.875 
Q 24.46875 64.65625 21.28125 53.65625 
Q 18.109375 42.671875 18.109375 31.390625 
Q 18.109375 20.125 21.3125 9.0625 
Q 24.515625 -2 31 -13.1875 
L 23.1875 -13.1875 
Q 15.875 -1.703125 12.234375 9.375 
Q 8.59375 20.453125 8.59375 31.390625 
Q 8.59375 42.28125 12.203125 53.3125 
Q 15.828125 64.359375 23.1875 75.875 
z
" id="DejaVuSans-40"/>
      <path d="M 51.125 44 
L 36.921875 44 
L 32.8125 27.6875 
L 47.125 27.6875 
z
M 43.796875 71.78125 
L 38.71875 51.515625 
L 52.984375 51.515625 
L 58.109375 71.78125 
L 65.921875 71.78125 
L 60.890625 51.515625 
L 76.125 51.515625 
L 76.125 44 
L 58.984375 44 
L 54.984375 27.6875 
L 70.515625 27.6875 
L 70.515625 20.21875 
L 53.078125 20.21875 
L 48 0 
L 40.1875 0 
L 45.21875 20.21875 
L 30.90625 20.21875 
L 25.875 0 
L 18.015625 0 
L 23.09375 20.21875 
L 7.71875 20.21875 
L 7.71875 27.6875 
L 24.90625 27.6875 
L 29 44 
L 13.28125 44 
L 13.28125 51.515625 
L 30.90625 51.515625 
L 35.890625 71.78125 
z
" id="DejaVuSans-35"/>
      <path id="DejaVuSans-32"/>
      <path d="M 37.109375 75.984375 
L 37.109375 68.5 
L 28.515625 68.5 
Q 23.6875 68.5 21.796875 66.546875 
Q 19.921875 64.59375 19.921875 59.515625 
L 19.921875 54.6875 
L 34.71875 54.6875 
L 34.71875 47.703125 
L 19.921875 47.703125 
L 19.921875 0 
L 10.890625 0 
L 10.890625 47.703125 
L 2.296875 47.703125 
L 2.296875 54.6875 
L 10.890625 54.6875 
L 10.890625 58.5 
Q 10.890625 67.625 15.140625 71.796875 
Q 19.390625 75.984375 28.609375 75.984375 
z
" id="DejaVuSans-102"/>
      <path d="M 4.890625 31.390625 
L 31.203125 31.390625 
L 31.203125 23.390625 
L 4.890625 23.390625 
z
" id="DejaVuSans-45"/>
      <path d="M 56.203125 29.59375 
L 56.203125 25.203125 
L 14.890625 25.203125 
Q 15.484375 15.921875 20.484375 11.0625 
Q 25.484375 6.203125 34.421875 6.203125 
Q 39.59375 6.203125 44.453125 7.46875 
Q 49.3125 8.734375 54.109375 11.28125 
L 54.109375 2.78125 
Q 49.265625 0.734375 44.1875 -0.34375 
Q 39.109375 -1.421875 33.890625 -1.421875 
Q 20.796875 -1.421875 13.15625 6.1875 
Q 5.515625 13.8125 5.515625 26.8125 
Q 5.515625 40.234375 12.765625 48.109375 
Q 20.015625 56 32.328125 56 
Q 43.359375 56 49.78125 48.890625 
Q 56.203125 41.796875 56.203125 29.59375 
z
M 47.21875 32.234375 
Q 47.125 39.59375 43.09375 43.984375 
Q 39.0625 48.390625 32.421875 48.390625 
Q 24.90625 48.390625 20.390625 44.140625 
Q 15.875 39.890625 15.1875 32.171875 
z
" id="DejaVuSans-101"/>
      <path d="M 2.984375 54.6875 
L 12.5 54.6875 
L 29.59375 8.796875 
L 46.6875 54.6875 
L 56.203125 54.6875 
L 35.6875 0 
L 23.484375 0 
z
" id="DejaVuSans-118"/>
      <path d="M 34.28125 27.484375 
Q 23.390625 27.484375 19.1875 25 
Q 14.984375 22.515625 14.984375 16.5 
Q 14.984375 11.71875 18.140625 8.90625 
Q 21.296875 6.109375 26.703125 6.109375 
Q 34.1875 6.109375 38.703125 11.40625 
Q 43.21875 16.703125 43.21875 25.484375 
L 43.21875 27.484375 
z
M 52.203125 31.203125 
L 52.203125 0 
L 43.21875 0 
L 43.21875 8.296875 
Q 40.140625 3.328125 35.546875 0.953125 
Q 30.953125 -1.421875 24.3125 -1.421875 
Q 15.921875 -1.421875 10.953125 3.296875 
Q 6 8.015625 6 15.921875 
Q 6 25.140625 12.171875 29.828125 
Q 18.359375 34.515625 30.609375 34.515625 
L 43.21875 34.515625 
L 43.21875 35.40625 
Q 43.21875 41.609375 39.140625 45 
Q 35.0625 48.390625 27.6875 48.390625 
Q 23 48.390625 18.546875 47.265625 
Q 14.109375 46.140625 10.015625 43.890625 
L 10.015625 52.203125 
Q 14.9375 54.109375 19.578125 55.046875 
Q 24.21875 56 28.609375 56 
Q 40.484375 56 46.34375 49.84375 
Q 52.203125 43.703125 52.203125 31.203125 
z
" id="DejaVuSans-97"/>
      <path d="M 44.28125 53.078125 
L 44.28125 44.578125 
Q 40.484375 46.53125 36.375 47.5 
Q 32.28125 48.484375 27.875 48.484375 
Q 21.1875 48.484375 17.84375 46.4375 
Q 14.5 44.390625 14.5 40.28125 
Q 14.5 37.15625 16.890625 35.375 
Q 19.28125 33.59375 26.515625 31.984375 
L 29.59375 31.296875 
Q 39.15625 29.25 43.1875 25.515625 
Q 47.21875 21.78125 47.21875 15.09375 
Q 47.21875 7.46875 41.1875 3.015625 
Q 35.15625 -1.421875 24.609375 -1.421875 
Q 20.21875 -1.421875 15.453125 -0.5625 
Q 10.6875 0.296875 5.421875 2 
L 5.421875 11.28125 
Q 10.40625 8.6875 15.234375 7.390625 
Q 20.0625 6.109375 24.8125 6.109375 
Q 31.15625 6.109375 34.5625 8.28125 
Q 37.984375 10.453125 37.984375 14.40625 
Q 37.984375 18.0625 35.515625 20.015625 
Q 33.0625 21.96875 24.703125 23.78125 
L 21.578125 24.515625 
Q 13.234375 26.265625 9.515625 29.90625 
Q 5.8125 33.546875 5.8125 39.890625 
Q 5.8125 47.609375 11.28125 51.796875 
Q 16.75 56 26.8125 56 
Q 31.78125 56 36.171875 55.265625 
Q 40.578125 54.546875 44.28125 53.078125 
z
" id="DejaVuSans-115"/>
      <path d="M 25.390625 72.90625 
L 33.6875 72.90625 
L 8.296875 -9.28125 
L 0 -9.28125 
z
" id="DejaVuSans-47"/>
      <path d="M 45.40625 46.390625 
L 45.40625 75.984375 
L 54.390625 75.984375 
L 54.390625 0 
L 45.40625 0 
L 45.40625 8.203125 
Q 42.578125 3.328125 38.25 0.953125 
Q 33.9375 -1.421875 27.875 -1.421875 
Q 17.96875 -1.421875 11.734375 6.484375 
Q 5.515625 14.40625 5.515625 27.296875 
Q 5.515625 40.1875 11.734375 48.09375 
Q 17.96875 56 27.875 56 
Q 33.9375 56 38.25 53.625 
Q 42.578125 51.265625 45.40625 46.390625 
z
M 14.796875 27.296875 
Q 14.796875 17.390625 18.875 11.75 
Q 22.953125 6.109375 30.078125 6.109375 
Q 37.203125 6.109375 41.296875 11.75 
Q 45.40625 17.390625 45.40625 27.296875 
Q 45.40625 37.203125 41.296875 42.84375 
Q 37.203125 48.484375 30.078125 48.484375 
Q 22.953125 48.484375 18.875 42.84375 
Q 14.796875 37.203125 14.796875 27.296875 
z
" id="DejaVuSans-100"/>
      <path d="M 9.421875 54.6875 
L 18.40625 54.6875 
L 18.40625 0 
L 9.421875 0 
z
M 9.421875 75.984375 
L 18.40625 75.984375 
L 18.40625 64.59375 
L 9.421875 64.59375 
z
" id="DejaVuSans-105"/>
      <path d="M 52 44.1875 
Q 55.375 50.25 60.0625 53.125 
Q 64.75 56 71.09375 56 
Q 79.640625 56 84.28125 50.015625 
Q 88.921875 44.046875 88.921875 33.015625 
L 88.921875 0 
L 79.890625 0 
L 79.890625 32.71875 
Q 79.890625 40.578125 77.09375 44.375 
Q 74.3125 48.1875 68.609375 48.1875 
Q 61.625 48.1875 57.5625 43.546875 
Q 53.515625 38.921875 53.515625 30.90625 
L 53.515625 0 
L 44.484375 0 
L 44.484375 32.71875 
Q 44.484375 40.625 41.703125 44.40625 
Q 38.921875 48.1875 33.109375 48.1875 
Q 26.21875 48.1875 22.15625 43.53125 
Q 18.109375 38.875 18.109375 30.90625 
L 18.109375 0 
L 9.078125 0 
L 9.078125 54.6875 
L 18.109375 54.6875 
L 18.109375 46.1875 
Q 21.1875 51.21875 25.484375 53.609375 
Q 29.78125 56 35.6875 56 
Q 41.65625 56 45.828125 52.96875 
Q 50 49.953125 52 44.1875 
z
" id="DejaVuSans-109"/>
      <path d="M 54.890625 33.015625 
L 54.890625 0 
L 45.90625 0 
L 45.90625 32.71875 
Q 45.90625 40.484375 42.875 44.328125 
Q 39.84375 48.1875 33.796875 48.1875 
Q 26.515625 48.1875 22.3125 43.546875 
Q 18.109375 38.921875 18.109375 30.90625 
L 18.109375 0 
L 9.078125 0 
L 9.078125 54.6875 
L 18.109375 54.6875 
L 18.109375 46.1875 
Q 21.34375 51.125 25.703125 53.5625 
Q 30.078125 56 35.796875 56 
Q 45.21875 56 50.046875 50.171875 
Q 54.890625 44.34375 54.890625 33.015625 
z
" id="DejaVuSans-110"/>
      <path d="M 8.015625 75.875 
L 15.828125 75.875 
Q 23.140625 64.359375 26.78125 53.3125 
Q 30.421875 42.28125 30.421875 31.390625 
Q 30.421875 20.453125 26.78125 9.375 
Q 23.140625 -1.703125 15.828125 -13.1875 
L 8.015625 -13.1875 
Q 14.5 -2 17.703125 9.0625 
Q 20.90625 20.125 20.90625 31.390625 
Q 20.90625 42.671875 17.703125 53.65625 
Q 14.5 64.65625 8.015625 75.875 
z
" id="DejaVuSans-41"/>
     </defs>
     <g transform="translate(77.303219 342.217594)scale(0.17 -0.17)">
      <use xlink:href="#DejaVuSans-108"/>
      <use x="27.783203" xlink:href="#DejaVuSans-111"/>
      <use x="88.964844" xlink:href="#DejaVuSans-103"/>
      <use x="152.441406" xlink:href="#DejaVuSans-49"/>
      <use x="216.064453" xlink:href="#DejaVuSans-48"/>
      <use x="279.6875" xlink:href="#DejaVuSans-40"/>
      <use x="318.701172" xlink:href="#DejaVuSans-35"/>
      <use x="402.490234" xlink:href="#DejaVuSans-32"/>
      <use x="434.277344" xlink:href="#DejaVuSans-102"/>
      <use x="469.404297" xlink:href="#DejaVuSans-45"/>
      <use x="505.488281" xlink:href="#DejaVuSans-101"/>
      <use x="567.011719" xlink:href="#DejaVuSans-118"/>
      <use x="626.191406" xlink:href="#DejaVuSans-97"/>
      <use x="687.470703" xlink:href="#DejaVuSans-108"/>
      <use x="715.253906" xlink:href="#DejaVuSans-115"/>
      <use x="767.353516" xlink:href="#DejaVuSans-32"/>
      <use x="799.140625" xlink:href="#DejaVuSans-47"/>
      <use x="832.832031" xlink:href="#DejaVuSans-32"/>
      <use x="864.619141" xlink:href="#DejaVuSans-100"/>
      <use x="928.095703" xlink:href="#DejaVuSans-105"/>
      <use x="955.878906" xlink:href="#DejaVuSans-109"/>
      <use x="1053.291016" xlink:href="#DejaVuSans-101"/>
      <use x="1114.814453" xlink:href="#DejaVuSans-110"/>
      <use x="1178.193359" xlink:href="#DejaVuSans-115"/>
      <use x="1230.292969" xlink:href="#DejaVuSans-105"/>
      <use x="1258.076172" xlink:href="#DejaVuSans-111"/>
      <use x="1319.257812" xlink:href="#DejaVuSans-110"/>
      <use x="1382.636719" xlink:href="#DejaVuSans-41"/>
     </g>
    </g>
   </g>
   <g id="matplotlib.axis_2">
    <g id="ytick_1">
     <g id="line2d_21">
      <path clip-path="url(#p8599829bda)" d="M 57.6 298.944 
L 338.688 298.944 
" style="fill:none;stroke:#b0b0b0;stroke-linecap:square;stroke-width:0.8;"/>
     </g>
     <g id="line2d_22">
      <defs>
       <path d="M 0 0 
L -3.5 0 
" id="m7a12a6ebd2" style="stroke:#000000;stroke-width:0.8;"/>
      </defs>
      <g>
       <use style="stroke:#000000;stroke-width:0.8;" x="57.6" xlink:href="#m7a12a6ebd2" y="298.944"/>
      </g>
     </g>
     <g id="text_6">
      <!-- 0.0 -->
      <defs>
       <path d="M 10.6875 12.40625 
L 21 12.40625 
L 21 0 
L 10.6875 0 
z
" id="DejaVuSans-46"/>
      </defs>
      <g transform="translate(25.155 305.02275)scale(0.16 -0.16)">
       <use xlink:href="#DejaVuSans-48"/>
       <use x="63.623047" xlink:href="#DejaVuSans-46"/>
       <use x="95.410156" xlink:href="#DejaVuSans-48"/>
      </g>
     </g>
    </g>
    <g id="ytick_2">
     <g id="line2d_23">
      <path clip-path="url(#p8599829bda)" d="M 57.6 245.22202 
L 338.688 245.22202 
" style="fill:none;stroke:#b0b0b0;stroke-linecap:square;stroke-width:0.8;"/>
     </g>
     <g id="line2d_24">
      <g>
       <use style="stroke:#000000;stroke-width:0.8;" x="57.6" xlink:href="#m7a12a6ebd2" y="245.22202"/>
      </g>
     </g>
     <g id="text_7">
      <!-- 0.2 -->
      <g transform="translate(25.155 251.30077)scale(0.16 -0.16)">
       <use xlink:href="#DejaVuSans-48"/>
       <use x="63.623047" xlink:href="#DejaVuSans-46"/>
       <use x="95.410156" xlink:href="#DejaVuSans-50"/>
      </g>
     </g>
    </g>
    <g id="ytick_3">
     <g id="line2d_25">
      <path clip-path="url(#p8599829bda)" d="M 57.6 191.50004 
L 338.688 191.50004 
" style="fill:none;stroke:#b0b0b0;stroke-linecap:square;stroke-width:0.8;"/>
     </g>
     <g id="line2d_26">
      <g>
       <use style="stroke:#000000;stroke-width:0.8;" x="57.6" xlink:href="#m7a12a6ebd2" y="191.50004"/>
      </g>
     </g>
     <g id="text_8">
      <!-- 0.4 -->
      <g transform="translate(25.155 197.57879)scale(0.16 -0.16)">
       <use xlink:href="#DejaVuSans-48"/>
       <use x="63.623047" xlink:href="#DejaVuSans-46"/>
       <use x="95.410156" xlink:href="#DejaVuSans-52"/>
      </g>
     </g>
    </g>
    <g id="ytick_4">
     <g id="line2d_27">
      <path clip-path="url(#p8599829bda)" d="M 57.6 137.778059 
L 338.688 137.778059 
" style="fill:none;stroke:#b0b0b0;stroke-linecap:square;stroke-width:0.8;"/>
     </g>
     <g id="line2d_28">
      <g>
       <use style="stroke:#000000;stroke-width:0.8;" x="57.6" xlink:href="#m7a12a6ebd2" y="137.778059"/>
      </g>
     </g>
     <g id="text_9">
      <!-- 0.6 -->
      <g transform="translate(25.155 143.856809)scale(0.16 -0.16)">
       <use xlink:href="#DejaVuSans-48"/>
       <use x="63.623047" xlink:href="#DejaVuSans-46"/>
       <use x="95.410156" xlink:href="#DejaVuSans-54"/>
      </g>
     </g>
    </g>
    <g id="ytick_5">
     <g id="line2d_29">
      <path clip-path="url(#p8599829bda)" d="M 57.6 84.056079 
L 338.688 84.056079 
" style="fill:none;stroke:#b0b0b0;stroke-linecap:square;stroke-width:0.8;"/>
     </g>
     <g id="line2d_30">
      <g>
       <use style="stroke:#000000;stroke-width:0.8;" x="57.6" xlink:href="#m7a12a6ebd2" y="84.056079"/>
      </g>
     </g>
     <g id="text_10">
      <!-- 0.8 -->
      <defs>
       <path d="M 31.78125 34.625 
Q 24.75 34.625 20.71875 30.859375 
Q 16.703125 27.09375 16.703125 20.515625 
Q 16.703125 13.921875 20.71875 10.15625 
Q 24.75 6.390625 31.78125 6.390625 
Q 38.8125 6.390625 42.859375 10.171875 
Q 46.921875 13.96875 46.921875 20.515625 
Q 46.921875 27.09375 42.890625 30.859375 
Q 38.875 34.625 31.78125 34.625 
z
M 21.921875 38.8125 
Q 15.578125 40.375 12.03125 44.71875 
Q 8.5 49.078125 8.5 55.328125 
Q 8.5 64.0625 14.71875 69.140625 
Q 20.953125 74.21875 31.78125 74.21875 
Q 42.671875 74.21875 48.875 69.140625 
Q 55.078125 64.0625 55.078125 55.328125 
Q 55.078125 49.078125 51.53125 44.71875 
Q 48 40.375 41.703125 38.8125 
Q 48.828125 37.15625 52.796875 32.3125 
Q 56.78125 27.484375 56.78125 20.515625 
Q 56.78125 9.90625 50.3125 4.234375 
Q 43.84375 -1.421875 31.78125 -1.421875 
Q 19.734375 -1.421875 13.25 4.234375 
Q 6.78125 9.90625 6.78125 20.515625 
Q 6.78125 27.484375 10.78125 32.3125 
Q 14.796875 37.15625 21.921875 38.8125 
z
M 18.3125 54.390625 
Q 18.3125 48.734375 21.84375 45.5625 
Q 25.390625 42.390625 31.78125 42.390625 
Q 38.140625 42.390625 41.71875 45.5625 
Q 45.3125 48.734375 45.3125 54.390625 
Q 45.3125 60.0625 41.71875 63.234375 
Q 38.140625 66.40625 31.78125 66.40625 
Q 25.390625 66.40625 21.84375 63.234375 
Q 18.3125 60.0625 18.3125 54.390625 
z
" id="DejaVuSans-56"/>
      </defs>
      <g transform="translate(25.155 90.134829)scale(0.16 -0.16)">
       <use xlink:href="#DejaVuSans-48"/>
       <use x="63.623047" xlink:href="#DejaVuSans-46"/>
       <use x="95.410156" xlink:href="#DejaVuSans-56"/>
      </g>
     </g>
    </g>
    <g id="ytick_6">
     <g id="line2d_31">
      <path clip-path="url(#p8599829bda)" d="M 57.6 30.334099 
L 338.688 30.334099 
" style="fill:none;stroke:#b0b0b0;stroke-linecap:square;stroke-width:0.8;"/>
     </g>
     <g id="line2d_32">
      <g>
       <use style="stroke:#000000;stroke-width:0.8;" x="57.6" xlink:href="#m7a12a6ebd2" y="30.334099"/>
      </g>
     </g>
     <g id="text_11">
      <!-- 1.0 -->
      <g transform="translate(25.155 36.412849)scale(0.16 -0.16)">
       <use xlink:href="#DejaVuSans-49"/>
       <use x="63.623047" xlink:href="#DejaVuSans-46"/>
       <use x="95.410156" xlink:href="#DejaVuSans-48"/>
      </g>
     </g>
    </g>
    <g id="text_12">
     <!-- Fraction of function,target pairs -->
     <defs>
      <path d="M 9.8125 72.90625 
L 51.703125 72.90625 
L 51.703125 64.59375 
L 19.671875 64.59375 
L 19.671875 43.109375 
L 48.578125 43.109375 
L 48.578125 34.8125 
L 19.671875 34.8125 
L 19.671875 0 
L 9.8125 0 
z
" id="DejaVuSans-70"/>
      <path d="M 41.109375 46.296875 
Q 39.59375 47.171875 37.8125 47.578125 
Q 36.03125 48 33.890625 48 
Q 26.265625 48 22.1875 43.046875 
Q 18.109375 38.09375 18.109375 28.8125 
L 18.109375 0 
L 9.078125 0 
L 9.078125 54.6875 
L 18.109375 54.6875 
L 18.109375 46.1875 
Q 20.953125 51.171875 25.484375 53.578125 
Q 30.03125 56 36.53125 56 
Q 37.453125 56 38.578125 55.875 
Q 39.703125 55.765625 41.0625 55.515625 
z
" id="DejaVuSans-114"/>
      <path d="M 48.78125 52.59375 
L 48.78125 44.1875 
Q 44.96875 46.296875 41.140625 47.34375 
Q 37.3125 48.390625 33.40625 48.390625 
Q 24.65625 48.390625 19.8125 42.84375 
Q 14.984375 37.3125 14.984375 27.296875 
Q 14.984375 17.28125 19.8125 11.734375 
Q 24.65625 6.203125 33.40625 6.203125 
Q 37.3125 6.203125 41.140625 7.25 
Q 44.96875 8.296875 48.78125 10.40625 
L 48.78125 2.09375 
Q 45.015625 0.34375 40.984375 -0.53125 
Q 36.96875 -1.421875 32.421875 -1.421875 
Q 20.0625 -1.421875 12.78125 6.34375 
Q 5.515625 14.109375 5.515625 27.296875 
Q 5.515625 40.671875 12.859375 48.328125 
Q 20.21875 56 33.015625 56 
Q 37.15625 56 41.109375 55.140625 
Q 45.0625 54.296875 48.78125 52.59375 
z
" id="DejaVuSans-99"/>
      <path d="M 18.3125 70.21875 
L 18.3125 54.6875 
L 36.8125 54.6875 
L 36.8125 47.703125 
L 18.3125 47.703125 
L 18.3125 18.015625 
Q 18.3125 11.328125 20.140625 9.421875 
Q 21.96875 7.515625 27.59375 7.515625 
L 36.8125 7.515625 
L 36.8125 0 
L 27.59375 0 
Q 17.1875 0 13.234375 3.875 
Q 9.28125 7.765625 9.28125 18.015625 
L 9.28125 47.703125 
L 2.6875 47.703125 
L 2.6875 54.6875 
L 9.28125 54.6875 
L 9.28125 70.21875 
z
" id="DejaVuSans-116"/>
      <path d="M 8.5 21.578125 
L 8.5 54.6875 
L 17.484375 54.6875 
L 17.484375 21.921875 
Q 17.484375 14.15625 20.5 10.265625 
Q 23.53125 6.390625 29.59375 6.390625 
Q 36.859375 6.390625 41.078125 11.03125 
Q 45.3125 15.671875 45.3125 23.6875 
L 45.3125 54.6875 
L 54.296875 54.6875 
L 54.296875 0 
L 45.3125 0 
L 45.3125 8.40625 
Q 42.046875 3.421875 37.71875 1 
Q 33.40625 -1.421875 27.6875 -1.421875 
Q 18.265625 -1.421875 13.375 4.4375 
Q 8.5 10.296875 8.5 21.578125 
z
M 31.109375 56 
z
" id="DejaVuSans-117"/>
      <path d="M 11.71875 12.40625 
L 22.015625 12.40625 
L 22.015625 4 
L 14.015625 -11.625 
L 7.71875 -11.625 
L 11.71875 4 
z
" id="DejaVuSans-44"/>
      <path d="M 18.109375 8.203125 
L 18.109375 -20.796875 
L 9.078125 -20.796875 
L 9.078125 54.6875 
L 18.109375 54.6875 
L 18.109375 46.390625 
Q 20.953125 51.265625 25.265625 53.625 
Q 29.59375 56 35.59375 56 
Q 45.5625 56 51.78125 48.09375 
Q 58.015625 40.1875 58.015625 27.296875 
Q 58.015625 14.40625 51.78125 6.484375 
Q 45.5625 -1.421875 35.59375 -1.421875 
Q 29.59375 -1.421875 25.265625 0.953125 
Q 20.953125 3.328125 18.109375 8.203125 
z
M 48.6875 27.296875 
Q 48.6875 37.203125 44.609375 42.84375 
Q 40.53125 48.484375 33.40625 48.484375 
Q 26.265625 48.484375 22.1875 42.84375 
Q 18.109375 37.203125 18.109375 27.296875 
Q 18.109375 17.390625 22.1875 11.75 
Q 26.265625 6.109375 33.40625 6.109375 
Q 40.53125 6.109375 44.609375 11.75 
Q 48.6875 17.390625 48.6875 27.296875 
z
" id="DejaVuSans-112"/>
     </defs>
     <g transform="translate(17.619531 298.435375)rotate(-90)scale(0.17 -0.17)">
      <use xlink:href="#DejaVuSans-70"/>
      <use x="57.410156" xlink:href="#DejaVuSans-114"/>
      <use x="98.523438" xlink:href="#DejaVuSans-97"/>
      <use x="159.802734" xlink:href="#DejaVuSans-99"/>
      <use x="214.783203" xlink:href="#DejaVuSans-116"/>
      <use x="253.992188" xlink:href="#DejaVuSans-105"/>
      <use x="281.775391" xlink:href="#DejaVuSans-111"/>
      <use x="342.957031" xlink:href="#DejaVuSans-110"/>
      <use x="406.335938" xlink:href="#DejaVuSans-32"/>
      <use x="438.123047" xlink:href="#DejaVuSans-111"/>
      <use x="499.304688" xlink:href="#DejaVuSans-102"/>
      <use x="534.509766" xlink:href="#DejaVuSans-32"/>
      <use x="566.296875" xlink:href="#DejaVuSans-102"/>
      <use x="601.501953" xlink:href="#DejaVuSans-117"/>
      <use x="664.880859" xlink:href="#DejaVuSans-110"/>
      <use x="728.259766" xlink:href="#DejaVuSans-99"/>
      <use x="783.240234" xlink:href="#DejaVuSans-116"/>
      <use x="822.449219" xlink:href="#DejaVuSans-105"/>
      <use x="850.232422" xlink:href="#DejaVuSans-111"/>
      <use x="911.414062" xlink:href="#DejaVuSans-110"/>
      <use x="974.792969" xlink:href="#DejaVuSans-44"/>
      <use x="1006.580078" xlink:href="#DejaVuSans-116"/>
      <use x="1045.789062" xlink:href="#DejaVuSans-97"/>
      <use x="1107.068359" xlink:href="#DejaVuSans-114"/>
      <use x="1148.166016" xlink:href="#DejaVuSans-103"/>
      <use x="1211.642578" xlink:href="#DejaVuSans-101"/>
      <use x="1273.166016" xlink:href="#DejaVuSans-116"/>
      <use x="1312.375" xlink:href="#DejaVuSans-32"/>
      <use x="1344.162109" xlink:href="#DejaVuSans-112"/>
      <use x="1407.638672" xlink:href="#DejaVuSans-97"/>
      <use x="1468.917969" xlink:href="#DejaVuSans-105"/>
      <use x="1496.701172" xlink:href="#DejaVuSans-114"/>
      <use x="1537.814453" xlink:href="#DejaVuSans-115"/>
     </g>
    </g>
   </g>
   <g id="line2d_33">
    <defs>
     <path d="M 0 1.5 
C 0.397805 1.5 0.77937 1.341951 1.06066 1.06066 
C 1.341951 0.77937 1.5 0.397805 1.5 0 
C 1.5 -0.397805 1.341951 -0.77937 1.06066 -1.06066 
C 0.77937 -1.341951 0.397805 -1.5 0 -1.5 
C -0.397805 -1.5 -0.77937 -1.341951 -1.06066 -1.06066 
C -1.341951 -0.77937 -1.5 -0.397805 -1.5 0 
C -1.5 0.397805 -1.341951 0.77937 -1.06066 1.06066 
C -0.77937 1.341951 -0.397805 1.5 0 1.5 
z
" id="m189fdeaea8" style="stroke:#f5deb3;"/>
    </defs>
    <g>
     <use style="fill:#f5deb3;stroke:#f5deb3;" x="110.358901" xlink:href="#m189fdeaea8" y="30.334099"/>
     <use style="fill:#f5deb3;stroke:#f5deb3;" x="110.358901" xlink:href="#m189fdeaea8" y="30.334099"/>
    </g>
   </g>
   <g id="line2d_34">
    <defs>
     <path d="M 0 1.5 
C 0.397805 1.5 0.77937 1.341951 1.06066 1.06066 
C 1.341951 0.77937 1.5 0.397805 1.5 0 
C 1.5 -0.397805 1.341951 -0.77937 1.06066 -1.06066 
C 0.77937 -1.341951 0.397805 -1.5 0 -1.5 
C -0.397805 -1.5 -0.77937 -1.341951 -1.06066 -1.06066 
C -1.341951 -0.77937 -1.5 -0.397805 -1.5 0 
C -1.5 0.397805 -1.341951 0.77937 -1.06066 1.06066 
C -0.77937 1.341951 -0.397805 1.5 0 1.5 
z
" id="mca17d938ae" style="stroke:#000080;"/>
    </defs>
    <g>
     <use style="fill:#000080;stroke:#000080;" x="171.880975" xlink:href="#mca17d938ae" y="30.334099"/>
     <use style="fill:#000080;stroke:#000080;" x="171.880975" xlink:href="#mca17d938ae" y="30.334099"/>
    </g>
   </g>
   <g id="line2d_35">
    <path d="M 152.617226 298.944 
L 152.617226 298.417314 
L 153.182035 298.417314 
L 153.182035 297.890628 
L 154.480132 297.890628 
L 154.480132 297.363942 
L 154.863648 297.363942 
L 154.863648 296.837256 
L 154.995093 296.837256 
L 154.995093 296.31057 
L 155.729115 296.31057 
L 155.729115 295.783884 
L 156.196751 295.783884 
L 156.196751 295.257197 
L 156.571609 295.257197 
L 156.571609 294.203825 
L 156.72644 294.203825 
L 156.72644 293.677139 
L 156.897531 293.677139 
L 156.915134 292.623767 
L 157.249147 292.623767 
L 157.249147 292.097081 
L 157.372413 292.097081 
L 157.37527 291.043709 
L 157.942862 291.043709 
L 157.942862 290.517023 
L 158.064083 290.517023 
L 158.064083 289.990337 
L 158.241633 289.990337 
L 158.241633 289.463651 
L 158.826871 289.463651 
L 158.826871 288.936964 
L 159.025463 288.936964 
L 159.131666 287.356906 
L 159.3651 287.356906 
L 159.426147 285.776848 
L 159.635638 285.776848 
L 159.635638 285.250162 
L 159.748174 285.250162 
L 159.748174 284.723476 
L 159.929202 284.723476 
L 159.929202 284.19679 
L 160.101044 284.19679 
L 160.101044 283.670104 
L 160.234884 283.670104 
L 160.244578 282.616732 
L 160.434936 282.616732 
L 160.434936 282.090045 
L 160.554351 282.090045 
L 160.606635 280.509987 
L 160.828284 280.509987 
L 160.828284 279.983301 
L 160.949699 279.983301 
L 161.037893 278.403243 
L 161.208371 278.403243 
L 161.208371 277.876557 
L 161.447441 277.876557 
L 161.449702 276.823185 
L 162.095552 276.823185 
L 162.204154 275.243126 
L 162.221468 275.243126 
L 162.320689 273.663068 
L 162.374379 273.663068 
L 162.425765 272.609696 
L 162.615012 272.609696 
L 162.684664 271.556324 
L 162.777102 271.556324 
L 162.791763 270.502952 
L 162.894047 270.502952 
L 162.916926 269.449579 
L 163.016414 269.449579 
L 163.04945 268.396207 
L 163.189163 268.396207 
L 163.238207 266.816149 
L 163.412824 266.816149 
L 163.414845 265.762777 
L 163.579709 265.762777 
L 163.579709 265.236091 
L 163.705322 265.236091 
L 163.800424 264.182719 
L 163.87338 264.182719 
L 163.924464 263.129347 
L 163.992995 263.129347 
L 164.10403 261.549288 
L 164.107914 261.549288 
L 164.177663 259.96923 
L 164.425332 259.96923 
L 164.52039 257.862486 
L 164.575287 257.862486 
L 164.607388 256.809114 
L 164.72209 256.809114 
L 164.824867 255.229055 
L 164.910363 255.229055 
L 165.010195 254.175683 
L 165.039666 254.175683 
L 165.131442 253.122311 
L 165.158881 253.122311 
L 165.255488 249.962195 
L 165.297246 249.962195 
L 165.337095 248.908822 
L 165.425523 248.908822 
L 165.457894 247.85545 
L 165.54035 247.85545 
L 165.54035 247.328764 
L 165.665082 247.328764 
L 165.730653 245.22202 
L 165.788929 245.22202 
L 165.880363 244.168648 
L 165.948625 244.168648 
L 166.053125 239.955159 
L 166.084354 239.955159 
L 166.193215 237.848415 
L 166.31509 237.848415 
L 166.385083 235.74167 
L 166.461582 235.74167 
L 166.566435 233.634926 
L 166.722541 233.634926 
L 166.764268 232.054868 
L 166.862349 232.054868 
L 166.958233 228.894751 
L 166.987883 228.894751 
L 167.0929 226.788007 
L 167.109252 226.788007 
L 167.216791 222.574518 
L 167.231404 222.574518 
L 167.301055 219.414402 
L 167.38813 219.414402 
L 167.461965 216.254285 
L 167.505157 216.254285 
L 167.591222 214.674227 
L 167.621403 214.674227 
L 167.728995 211.514111 
L 167.733726 211.514111 
L 167.834359 208.353994 
L 167.859427 208.353994 
L 167.957782 203.613819 
L 167.973343 203.613819 
L 168.072606 198.873645 
L 168.109685 198.873645 
L 168.215849 195.713528 
L 168.244969 195.713528 
L 168.325944 192.026726 
L 168.370092 192.026726 
L 168.455028 187.813237 
L 168.492813 187.813237 
L 168.586168 183.073062 
L 168.623671 183.073062 
L 168.720801 179.38626 
L 168.777335 179.38626 
L 168.888381 173.592713 
L 168.900184 173.592713 
L 169.008987 170.432596 
L 169.041203 170.432596 
L 169.146224 164.63905 
L 169.159307 164.63905 
L 169.256398 159.898875 
L 169.270843 159.898875 
L 169.380234 152.52527 
L 169.383104 152.52527 
L 169.488944 145.678351 
L 169.514592 145.678351 
L 169.616809 139.358118 
L 169.62813 139.358118 
L 169.733904 132.511199 
L 169.75779 132.511199 
L 169.862783 124.084221 
L 169.899034 124.084221 
L 170.004567 116.18393 
L 170.012871 116.18393 
L 170.11772 108.810325 
L 170.130094 108.810325 
L 170.235609 98.276603 
L 170.242438 98.276603 
L 170.341846 88.796254 
L 170.358133 88.796254 
L 170.467674 84.056079 
L 170.47037 84.056079 
L 170.569832 76.155788 
L 170.597954 76.155788 
L 170.707334 66.675439 
L 170.717968 66.675439 
L 170.822637 59.82852 
L 170.829241 59.82852 
L 170.934559 55.088345 
L 170.950302 55.088345 
L 171.054893 50.34817 
L 171.064015 50.34817 
L 171.169224 45.607995 
L 171.188638 45.607995 
L 171.291814 40.341135 
L 171.317513 40.341135 
L 171.422484 37.181018 
L 171.43014 37.181018 
L 171.534438 34.547588 
L 171.59141 34.547588 
L 171.683438 31.387471 
L 171.714844 31.387471 
L 171.714844 30.860785 
L 171.880975 30.860785 
L 171.880975 30.334099 
L 338.688 30.334099 
L 338.688 30.334099 
" style="fill:none;stroke:#000080;stroke-linecap:square;stroke-width:1.5;"/>
   </g>
   <g id="line2d_36">
    <defs>
     <path d="M 0 6 
C 1.591219 6 3.117479 5.367802 4.242641 4.242641 
C 5.367802 3.117479 6 1.591219 6 0 
C 6 -1.591219 5.367802 -3.117479 4.242641 -4.242641 
C 3.117479 -5.367802 1.591219 -6 0 -6 
C -1.591219 -6 -3.117479 -5.367802 -4.242641 -4.242641 
C -5.367802 -3.117479 -6 -1.591219 -6 0 
C -6 1.591219 -5.367802 3.117479 -4.242641 4.242641 
C -3.117479 5.367802 -1.591219 6 0 6 
z
" id="mdef66ad83f" style="stroke:#000080;stroke-width:1.5;"/>
    </defs>
    <g>
     <use style="fill-opacity:0;stroke:#000080;stroke-width:1.5;" x="171.880975" xlink:href="#mdef66ad83f" y="30.860785"/>
     <use style="fill-opacity:0;stroke:#000080;stroke-width:1.5;" x="171.880975" xlink:href="#mdef66ad83f" y="30.334099"/>
     <use style="fill-opacity:0;stroke:#000080;stroke-width:1.5;" x="171.880975" xlink:href="#mdef66ad83f" y="30.334099"/>
     <use style="fill-opacity:0;stroke:#000080;stroke-width:1.5;" x="338.688" xlink:href="#mdef66ad83f" y="30.334099"/>
    </g>
   </g>
   <g id="line2d_37">
    <path style="fill:none;stroke:#000080;stroke-linecap:square;stroke-width:1.5;"/>
    <g/>
   </g>
   <g id="line2d_38">
    <g>
     <use style="fill:#000080;stroke:#000080;" x="171.994974" xlink:href="#mca17d938ae" y="30.334099"/>
     <use style="fill:#000080;stroke:#000080;" x="171.994974" xlink:href="#mca17d938ae" y="30.334099"/>
    </g>
   </g>
   <g id="line2d_39">
    <path d="M 155.25182 298.944 
L 155.25182 298.417314 
L 156.595519 298.417314 
L 156.595519 297.890628 
L 156.871092 297.890628 
L 156.871092 297.363942 
L 157.058236 297.363942 
L 157.058236 296.837256 
L 157.358125 296.837256 
L 157.358125 296.31057 
L 157.669802 296.31057 
L 157.739867 294.730511 
L 158.341898 294.730511 
L 158.420083 293.677139 
L 158.543386 293.677139 
L 158.588735 292.623767 
L 158.655211 292.623767 
L 158.655211 292.097081 
L 158.879352 292.097081 
L 158.955169 290.517023 
L 159.028061 290.517023 
L 159.0618 289.463651 
L 159.206397 289.463651 
L 159.311507 287.883592 
L 159.703247 287.883592 
L 159.7905 286.83022 
L 159.889686 286.83022 
L 159.931669 285.250162 
L 160.130333 285.250162 
L 160.234884 284.19679 
L 160.312284 284.19679 
L 160.333991 283.143418 
L 160.461277 283.143418 
L 160.504296 281.563359 
L 160.590016 281.563359 
L 160.632719 280.509987 
L 160.783709 280.509987 
L 160.872745 278.929929 
L 160.993852 278.929929 
L 161.026314 277.876557 
L 161.224411 277.876557 
L 161.329454 275.769812 
L 161.395353 275.769812 
L 161.395353 275.243126 
L 161.580351 275.243126 
L 161.660953 273.663068 
L 161.761186 273.663068 
L 161.774507 272.609696 
L 161.986269 272.609696 
L 161.997228 271.556324 
L 162.126028 271.556324 
L 162.227956 270.502952 
L 162.513202 270.502952 
L 162.610782 268.396207 
L 162.741445 268.396207 
L 162.741445 267.869521 
L 162.856543 267.869521 
L 162.891965 266.816149 
L 162.970886 266.816149 
L 163.068006 265.762777 
L 163.150238 265.762777 
L 163.174832 264.709405 
L 163.264715 264.709405 
L 163.264715 264.182719 
L 163.424942 264.182719 
L 163.433016 263.129347 
L 163.573705 263.129347 
L 163.671516 261.022602 
L 163.776697 261.022602 
L 163.776697 260.495916 
L 163.906798 260.495916 
L 163.996903 259.442544 
L 164.076824 259.442544 
L 164.115677 257.862486 
L 164.218222 257.862486 
L 164.318249 254.702369 
L 164.383342 254.702369 
L 164.463418 253.648997 
L 164.531763 253.648997 
L 164.618704 251.015567 
L 164.663893 251.015567 
L 164.767012 249.435508 
L 164.81182 249.435508 
L 164.832318 248.382136 
L 164.923336 248.382136 
L 165.010195 246.802078 
L 165.06725 246.802078 
L 165.153397 245.22202 
L 165.1954 245.22202 
L 165.293619 243.115275 
L 165.335285 243.115275 
L 165.421922 241.535217 
L 165.461488 241.535217 
L 165.570724 238.901787 
L 165.633093 238.901787 
L 165.743031 236.795043 
L 165.758932 236.795043 
L 165.758932 236.268356 
L 165.871592 236.268356 
L 165.980041 234.688298 
L 166.018362 234.688298 
L 166.10341 233.10824 
L 166.20699 233.10824 
L 166.306535 228.894751 
L 166.408919 228.894751 
L 166.51916 227.314693 
L 166.554628 227.314693 
L 166.556315 226.261321 
L 166.685738 226.261321 
L 166.787591 224.154577 
L 166.810883 224.154577 
L 166.90705 223.101204 
L 167.035547 223.101204 
L 167.132118 220.99446 
L 167.172878 220.99446 
L 167.24114 217.834344 
L 167.312367 217.834344 
L 167.373648 215.727599 
L 167.431506 215.727599 
L 167.540272 211.514111 
L 167.648363 211.514111 
L 167.755789 209.407366 
L 167.768384 209.407366 
L 167.84533 206.773936 
L 167.879768 206.773936 
L 167.970232 204.140506 
L 168.010633 204.140506 
L 168.054037 202.033761 
L 168.125111 202.033761 
L 168.235778 198.873645 
L 168.263336 198.873645 
L 168.354881 194.660156 
L 168.386808 194.660156 
L 168.477709 190.973354 
L 168.506396 190.973354 
L 168.616177 185.706493 
L 168.617676 185.706493 
L 168.690972 183.599748 
L 168.732718 183.599748 
L 168.827763 177.806202 
L 168.872138 177.806202 
L 168.973774 172.012655 
L 168.986987 172.012655 
L 169.093793 168.325852 
L 169.101084 168.325852 
L 169.199948 162.005619 
L 169.21444 162.005619 
L 169.311225 155.685386 
L 169.328503 155.685386 
L 169.436104 150.418525 
L 169.463258 150.418525 
L 169.574291 143.04492 
L 169.591311 143.04492 
L 169.686032 135.671315 
L 169.702943 135.671315 
L 169.812465 127.771024 
L 169.819463 127.771024 
L 169.921304 121.450791 
L 169.936599 121.450791 
L 170.037761 115.657244 
L 170.051573 115.657244 
L 170.157562 106.176895 
L 170.175393 106.176895 
L 170.286084 99.329976 
L 170.294256 99.329976 
L 170.396077 93.009743 
L 170.409609 93.009743 
L 170.510761 86.162824 
L 170.52286 86.162824 
L 170.624695 78.789218 
L 170.634045 78.789218 
L 170.73789 69.308869 
L 170.75779 69.308869 
L 170.860903 62.46195 
L 170.872762 62.46195 
L 170.983054 55.615031 
L 170.988289 55.615031 
L 171.097855 48.768112 
L 171.126438 48.768112 
L 171.223528 44.027937 
L 171.244171 44.027937 
L 171.335479 39.814448 
L 171.358552 39.814448 
L 171.449266 36.127646 
L 171.477279 36.127646 
L 171.557249 33.494215 
L 171.693494 33.494215 
L 171.782486 31.914157 
L 171.912027 31.914157 
L 171.994974 30.334099 
L 338.688 30.334099 
L 338.688 30.334099 
" style="fill:none;stroke:#000080;stroke-linecap:square;stroke-width:1.5;"/>
   </g>
   <g id="line2d_40">
    <g>
     <use style="fill-opacity:0;stroke:#000080;stroke-width:1.5;" x="171.994974" xlink:href="#mdef66ad83f" y="30.860785"/>
     <use style="fill-opacity:0;stroke:#000080;stroke-width:1.5;" x="171.994974" xlink:href="#mdef66ad83f" y="30.334099"/>
     <use style="fill-opacity:0;stroke:#000080;stroke-width:1.5;" x="171.994974" xlink:href="#mdef66ad83f" y="30.334099"/>
     <use style="fill-opacity:0;stroke:#000080;stroke-width:1.5;" x="338.688" xlink:href="#mdef66ad83f" y="30.334099"/>
    </g>
   </g>
   <g id="line2d_41">
    <path style="fill:none;stroke:#000080;stroke-linecap:square;stroke-width:1.5;"/>
    <g/>
   </g>
   <g id="line2d_42">
    <defs>
     <path d="M 0 1.5 
C 0.397805 1.5 0.77937 1.341951 1.06066 1.06066 
C 1.341951 0.77937 1.5 0.397805 1.5 0 
C 1.5 -0.397805 1.341951 -0.77937 1.06066 -1.06066 
C 0.77937 -1.341951 0.397805 -1.5 0 -1.5 
C -0.397805 -1.5 -0.77937 -1.341951 -1.06066 -1.06066 
C -1.341951 -0.77937 -1.5 -0.397805 -1.5 0 
C -1.5 0.397805 -1.341951 0.77937 -1.06066 1.06066 
C -0.77937 1.341951 -0.397805 1.5 0 1.5 
z
" id="m6dea5698ef" style="stroke:#ff00ff;"/>
    </defs>
    <g>
     <use style="fill:#ff00ff;stroke:#ff00ff;" x="175.047473" xlink:href="#m6dea5698ef" y="30.334099"/>
     <use style="fill:#ff00ff;stroke:#ff00ff;" x="175.047473" xlink:href="#m6dea5698ef" y="30.334099"/>
    </g>
   </g>
   <g id="line2d_43">
    <path d="M 157.15106 298.944 
L 157.214591 297.363942 
L 157.531651 297.363942 
L 157.531651 296.837256 
L 157.906885 296.837256 
L 157.906885 296.31057 
L 158.58607 296.31057 
L 158.639279 294.730511 
L 159.390562 294.730511 
L 159.390562 294.203825 
L 159.710743 294.203825 
L 159.710743 293.677139 
L 159.998142 293.677139 
L 159.998142 293.150453 
L 160.367704 293.150453 
L 160.449309 292.097081 
L 161.564634 292.097081 
L 161.573617 291.043709 
L 161.765627 291.043709 
L 161.765627 290.517023 
L 161.96872 290.517023 
L 162.060656 288.936964 
L 162.262519 288.936964 
L 162.284086 287.883592 
L 162.600202 287.883592 
L 162.655149 286.83022 
L 162.979172 286.83022 
L 162.979172 286.303534 
L 163.103002 286.303534 
L 163.103002 285.776848 
L 163.238207 285.776848 
L 163.313547 283.143418 
L 163.424942 283.143418 
L 163.523589 282.090045 
L 163.551671 282.090045 
L 163.551671 281.563359 
L 163.77274 281.563359 
L 163.808326 279.983301 
L 163.89108 279.983301 
L 163.973442 278.403243 
L 164.012526 278.403243 
L 164.037884 277.349871 
L 164.19892 277.349871 
L 164.19892 276.823185 
L 164.499522 276.823185 
L 164.546914 275.243126 
L 164.65637 275.243126 
L 164.662013 274.189754 
L 164.787563 274.189754 
L 164.854652 272.609696 
L 164.949254 272.609696 
L 165.006508 271.556324 
L 165.144253 271.556324 
L 165.235482 269.449579 
L 165.522458 269.449579 
L 165.633093 267.342835 
L 165.832947 267.342835 
L 165.910151 266.289463 
L 165.987015 266.289463 
L 165.987015 265.762777 
L 166.189769 265.762777 
L 166.189769 265.236091 
L 166.378267 265.236091 
L 166.378267 264.709405 
L 166.650536 264.709405 
L 166.719198 263.129347 
L 166.78093 263.129347 
L 166.865664 261.022602 
L 166.908703 261.022602 
L 166.946688 259.96923 
L 167.025696 259.96923 
L 167.125588 258.915858 
L 167.159845 258.915858 
L 167.23465 256.282427 
L 167.289735 256.282427 
L 167.360765 254.175683 
L 167.409028 254.175683 
L 167.495568 253.122311 
L 167.562581 253.122311 
L 167.616641 252.068939 
L 167.683191 252.068939 
L 167.785687 249.962195 
L 167.795118 249.962195 
L 167.900085 247.85545 
L 167.915698 247.85545 
L 167.974898 245.748706 
L 168.032349 245.748706 
L 168.123569 244.168648 
L 168.155922 244.168648 
L 168.208177 241.535217 
L 168.281683 241.535217 
L 168.38377 240.481845 
L 168.438377 240.481845 
L 168.54708 237.848415 
L 168.611679 237.848415 
L 168.713348 235.214984 
L 168.836647 235.214984 
L 168.878046 232.581554 
L 169.011918 232.581554 
L 169.09671 229.948123 
L 169.15204 229.948123 
L 169.259288 227.841379 
L 169.279504 227.841379 
L 169.348639 225.207949 
L 169.45183 225.207949 
L 169.544467 222.574518 
L 169.591311 222.574518 
L 169.650749 220.99446 
L 169.815265 220.99446 
L 169.919913 219.414402 
L 169.95188 219.414402 
L 170.046049 218.36103 
L 170.077786 218.36103 
L 170.077786 217.834344 
L 170.317387 217.834344 
L 170.419074 215.200913 
L 170.458235 215.200913 
L 170.532264 213.094169 
L 170.575192 213.094169 
L 170.642055 208.353994 
L 170.702014 208.353994 
L 170.785611 206.773936 
L 170.825279 206.773936 
L 170.90303 203.613819 
L 170.956857 203.613819 
L 171.067923 197.293586 
L 171.073132 197.293586 
L 171.176992 194.13347 
L 171.229981 194.13347 
L 171.334197 188.339923 
L 171.358552 188.339923 
L 171.465824 184.653121 
L 171.470916 184.653121 
L 171.568644 180.966318 
L 171.588882 180.966318 
L 171.699776 177.279515 
L 171.708567 177.279515 
L 171.813714 170.959282 
L 171.823695 170.959282 
L 171.903338 166.219108 
L 171.945501 166.219108 
L 172.043075 159.898875 
L 172.06031 159.898875 
L 172.136432 156.738758 
L 172.185367 156.738758 
L 172.270675 149.891839 
L 172.310747 149.891839 
L 172.418364 144.098292 
L 172.441252 144.098292 
L 172.548069 136.724687 
L 172.552855 136.724687 
L 172.658992 127.771024 
L 172.664936 127.771024 
L 172.770395 123.557535 
L 172.777482 123.557535 
L 172.883439 116.710616 
L 172.939687 116.710616 
L 173.048155 111.970441 
L 173.06094 111.970441 
L 173.164038 105.650209 
L 173.175584 105.650209 
L 173.274567 98.803289 
L 173.288334 98.803289 
L 173.390101 93.009743 
L 173.415166 93.009743 
L 173.515065 88.269568 
L 173.534298 88.269568 
L 173.640265 81.949335 
L 173.655992 81.949335 
L 173.756758 75.102416 
L 173.782417 75.102416 
L 173.829174 69.835555 
L 173.896861 69.835555 
L 174.006157 64.568694 
L 174.021557 64.568694 
L 174.126799 58.775147 
L 174.137725 58.775147 
L 174.246612 51.928228 
L 174.252038 51.928228 
L 174.338634 48.241426 
L 174.364529 48.241426 
L 174.45915 43.501251 
L 174.487009 43.501251 
L 174.591615 39.287762 
L 174.61076 39.287762 
L 174.704058 35.60096 
L 174.731528 35.60096 
L 174.842027 31.914157 
L 174.953915 31.914157 
L 175.047473 30.334099 
L 338.688 30.334099 
L 338.688 30.334099 
" style="fill:none;stroke:#ff00ff;stroke-linecap:square;stroke-width:1.5;"/>
   </g>
   <g id="line2d_44">
    <defs>
     <path d="M -0 8.485281 
L 5.091169 0 
L 0 -8.485281 
L -5.091169 -0 
z
" id="m0a0ff288ad" style="stroke:#ff00ff;stroke-linejoin:miter;stroke-width:1.5;"/>
    </defs>
    <g>
     <use style="fill-opacity:0;stroke:#ff00ff;stroke-linejoin:miter;stroke-width:1.5;" x="172.620905" xlink:href="#m0a0ff288ad" y="130.93114"/>
     <use style="fill-opacity:0;stroke:#ff00ff;stroke-linejoin:miter;stroke-width:1.5;" x="175.047473" xlink:href="#m0a0ff288ad" y="30.860785"/>
     <use style="fill-opacity:0;stroke:#ff00ff;stroke-linejoin:miter;stroke-width:1.5;" x="175.047473" xlink:href="#m0a0ff288ad" y="30.334099"/>
     <use style="fill-opacity:0;stroke:#ff00ff;stroke-linejoin:miter;stroke-width:1.5;" x="338.688" xlink:href="#m0a0ff288ad" y="30.334099"/>
    </g>
   </g>
   <g id="line2d_45">
    <path style="fill:none;stroke:#ff00ff;stroke-linecap:square;stroke-width:1.5;"/>
    <g/>
   </g>
   <g id="line2d_46">
    <defs>
     <path d="M 0 1.5 
C 0.397805 1.5 0.77937 1.341951 1.06066 1.06066 
C 1.341951 0.77937 1.5 0.397805 1.5 0 
C 1.5 -0.397805 1.341951 -0.77937 1.06066 -1.06066 
C 0.77937 -1.341951 0.397805 -1.5 0 -1.5 
C -0.397805 -1.5 -0.77937 -1.341951 -1.06066 -1.06066 
C -1.341951 -0.77937 -1.5 -0.397805 -1.5 0 
C -1.5 0.397805 -1.341951 0.77937 -1.06066 1.06066 
C -0.77937 1.341951 -0.397805 1.5 0 1.5 
z
" id="mc5f5efc747" style="stroke:#ff0000;"/>
    </defs>
    <g>
     <use style="fill:#ff0000;stroke:#ff0000;" x="172.859949" xlink:href="#mc5f5efc747" y="30.334099"/>
     <use style="fill:#ff0000;stroke:#ff0000;" x="172.859949" xlink:href="#mc5f5efc747" y="30.334099"/>
    </g>
   </g>
   <g id="line2d_47">
    <path d="M 154.617834 298.944 
L 154.617834 298.417314 
L 157.826359 298.417314 
L 157.826359 297.890628 
L 158.352703 297.890628 
L 158.438903 296.837256 
L 158.692327 296.837256 
L 158.692327 296.31057 
L 158.947342 296.31057 
L 158.996859 294.730511 
L 159.352355 294.730511 
L 159.352355 294.203825 
L 159.484452 294.203825 
L 159.484452 293.677139 
L 159.783038 293.677139 
L 159.887213 292.623767 
L 160.057017 292.623767 
L 160.113253 291.570395 
L 160.341221 291.570395 
L 160.439728 290.517023 
L 160.489968 290.517023 
L 160.489968 289.990337 
L 160.618496 289.990337 
L 160.618496 289.463651 
L 160.746084 289.463651 
L 160.746084 288.936964 
L 160.884427 288.936964 
L 160.942717 287.883592 
L 161.12334 287.883592 
L 161.12334 287.356906 
L 161.322623 287.356906 
L 161.404423 285.776848 
L 161.515149 285.776848 
L 161.546656 284.723476 
L 161.898347 284.723476 
L 161.959939 283.670104 
L 162.106442 283.670104 
L 162.106442 283.143418 
L 162.417211 283.143418 
L 162.417211 282.616732 
L 162.530211 282.616732 
L 162.617127 281.563359 
L 162.739346 281.563359 
L 162.814777 279.456615 
L 162.921083 279.456615 
L 162.921083 278.929929 
L 163.080366 278.929929 
L 163.17688 277.349871 
L 163.272863 277.349871 
L 163.272863 276.823185 
L 163.559687 276.823185 
L 163.625673 275.243126 
L 163.737081 275.243126 
L 163.762842 274.189754 
L 163.89501 274.189754 
L 163.965615 272.609696 
L 164.05347 272.609696 
L 164.065151 271.556324 
L 164.243282 271.556324 
L 164.243282 271.029638 
L 164.410075 271.029638 
L 164.516598 268.396207 
L 164.693955 268.396207 
L 164.753922 266.289463 
L 164.941853 266.289463 
L 164.941853 265.762777 
L 165.10396 265.762777 
L 165.10396 265.236091 
L 165.270024 265.236091 
L 165.369631 262.60266 
L 165.515296 262.60266 
L 165.602827 261.549288 
L 165.657978 261.549288 
L 165.657978 261.022602 
L 165.810071 261.022602 
L 165.913652 258.915858 
L 166.051389 258.915858 
L 166.122446 256.809114 
L 166.220754 256.809114 
L 166.306535 254.702369 
L 166.427624 254.702369 
L 166.49886 252.595625 
L 166.663955 252.595625 
L 166.772601 251.015567 
L 166.825841 251.015567 
L 166.930183 249.435508 
L 166.997755 249.435508 
L 167.096171 247.328764 
L 167.197288 247.328764 
L 167.301055 243.641962 
L 167.396171 243.641962 
L 167.479574 240.481845 
L 167.51953 240.481845 
L 167.626164 238.375101 
L 167.667369 238.375101 
L 167.769958 235.214984 
L 167.818673 235.214984 
L 167.909454 233.634926 
L 167.945323 233.634926 
L 168.032349 231.001496 
L 168.066419 231.001496 
L 168.168232 228.368065 
L 168.195896 228.368065 
L 168.301538 223.101204 
L 168.351837 223.101204 
L 168.455028 220.99446 
L 168.492813 220.99446 
L 168.58767 217.307658 
L 168.60568 217.307658 
L 168.70291 212.567483 
L 168.71782 212.567483 
L 168.812946 209.407366 
L 168.836647 209.407366 
L 168.947317 205.720564 
L 168.95614 205.720564 
L 168.988454 203.087133 
L 169.07482 203.087133 
L 169.182542 196.7669 
L 169.189797 196.7669 
L 169.295371 189.919981 
L 169.314106 189.919981 
L 169.413205 185.706493 
L 169.426089 185.706493 
L 169.535937 182.01969 
L 169.537359 182.01969 
L 169.64651 173.592713 
L 169.650749 173.592713 
L 169.75779 167.799166 
L 169.781644 167.799166 
L 169.887888 164.112363 
L 169.912956 164.112363 
L 170.011487 157.265444 
L 170.030851 157.265444 
L 170.138339 152.52527 
L 170.152072 152.52527 
L 170.25063 141.991548 
L 170.275183 141.991548 
L 170.37305 135.144629 
L 170.392016 135.144629 
L 170.49327 130.404454 
L 170.508071 130.404454 
L 170.618014 123.030849 
L 170.61935 123.030849 
L 170.71531 116.710616 
L 170.745853 116.710616 
L 170.85563 107.756953 
L 170.859585 107.756953 
L 170.951613 99.856662 
L 170.97127 99.856662 
L 171.080943 90.902998 
L 171.086149 90.902998 
L 171.193811 85.109451 
L 171.201568 85.109451 
L 171.311091 78.789218 
L 171.322648 78.789218 
L 171.410994 74.049044 
L 171.433967 74.049044 
L 171.535706 67.202125 
L 171.547114 67.202125 
L 171.649457 62.46195 
L 171.677151 62.46195 
L 171.782486 56.141717 
L 171.788736 56.141717 
L 171.897129 48.241426 
L 171.91699 48.241426 
L 172.008554 42.974565 
L 172.036916 42.974565 
L 172.12908 38.23439 
L 172.200021 38.23439 
L 172.288901 36.127646 
L 172.357987 36.127646 
L 172.447271 34.020902 
L 172.489341 34.020902 
L 172.566008 32.440843 
L 172.629243 32.440843 
L 172.687503 30.860785 
L 172.859949 30.860785 
L 172.859949 30.334099 
L 338.688 30.334099 
L 338.688 30.334099 
" style="fill:none;stroke:#ff0000;stroke-linecap:square;stroke-width:1.5;"/>
   </g>
   <g id="line2d_48">
    <defs>
     <path d="M 0 -6 
L -5.196152 -3 
L -5.196152 3 
L -0 6 
L 5.196152 3 
L 5.196152 -3 
z
" id="m7419f94372" style="stroke:#ff0000;stroke-linejoin:miter;stroke-width:1.5;"/>
    </defs>
    <g>
     <use style="fill-opacity:0;stroke:#ff0000;stroke-linejoin:miter;stroke-width:1.5;" x="169.240495" xlink:href="#m7419f94372" y="193.606784"/>
     <use style="fill-opacity:0;stroke:#ff0000;stroke-linejoin:miter;stroke-width:1.5;" x="172.859949" xlink:href="#m7419f94372" y="30.334099"/>
     <use style="fill-opacity:0;stroke:#ff0000;stroke-linejoin:miter;stroke-width:1.5;" x="172.859949" xlink:href="#m7419f94372" y="30.334099"/>
     <use style="fill-opacity:0;stroke:#ff0000;stroke-linejoin:miter;stroke-width:1.5;" x="338.688" xlink:href="#m7419f94372" y="30.334099"/>
    </g>
   </g>
   <g id="line2d_49">
    <path style="fill:none;stroke:#ff0000;stroke-linecap:square;stroke-width:1.5;"/>
    <g/>
   </g>
   <g id="line2d_50">
    <defs>
     <path d="M 0 1.5 
C 0.397805 1.5 0.77937 1.341951 1.06066 1.06066 
C 1.341951 0.77937 1.5 0.397805 1.5 0 
C 1.5 -0.397805 1.341951 -0.77937 1.06066 -1.06066 
C 0.77937 -1.341951 0.397805 -1.5 0 -1.5 
C -0.397805 -1.5 -0.77937 -1.341951 -1.06066 -1.06066 
C -1.341951 -0.77937 -1.5 -0.397805 -1.5 0 
C -1.5 0.397805 -1.341951 0.77937 -1.06066 1.06066 
C -0.77937 1.341951 -0.397805 1.5 0 1.5 
z
" id="m63aec98ee1" style="stroke:#ff7500;"/>
    </defs>
    <g>
     <use style="fill:#ff7500;stroke:#ff7500;" x="172.211004" xlink:href="#m63aec98ee1" y="30.334099"/>
     <use style="fill:#ff7500;stroke:#ff7500;" x="172.211004" xlink:href="#m63aec98ee1" y="30.334099"/>
    </g>
   </g>
   <g id="line2d_51">
    <path d="M 153.7432 298.944 
L 153.7432 298.417314 
L 155.271165 298.417314 
L 155.271165 297.890628 
L 155.694554 297.890628 
L 155.694554 297.363942 
L 155.87602 297.363942 
L 155.87602 296.837256 
L 156.616413 296.837256 
L 156.616413 296.31057 
L 156.941506 296.31057 
L 156.941506 295.783884 
L 157.415209 295.783884 
L 157.44937 294.730511 
L 157.795718 294.730511 
L 157.795718 294.203825 
L 158.159911 294.203825 
L 158.159911 293.150453 
L 158.594062 293.150453 
L 158.689678 291.570395 
L 158.881972 291.570395 
L 158.889829 290.517023 
L 159.147154 290.517023 
L 159.147154 289.990337 
L 159.298723 289.990337 
L 159.298723 289.463651 
L 159.433763 289.463651 
L 159.433763 288.936964 
L 159.620579 288.936964 
L 159.648178 287.883592 
L 160.069258 287.883592 
L 160.069258 287.356906 
L 160.292966 287.356906 
L 160.292966 286.83022 
L 160.513841 286.83022 
L 160.513841 286.303534 
L 160.78136 286.303534 
L 160.875082 284.723476 
L 161.086442 284.723476 
L 161.12334 283.143418 
L 161.591568 283.143418 
L 161.687738 281.563359 
L 161.7523 281.563359 
L 161.772287 280.509987 
L 161.92917 280.509987 
L 161.92917 279.983301 
L 162.128203 279.983301 
L 162.238764 277.349871 
L 162.245246 277.349871 
L 162.268992 276.296499 
L 162.378667 276.296499 
L 162.378667 275.769812 
L 162.491916 275.769812 
L 162.557817 274.189754 
L 162.621356 274.189754 
L 162.621356 273.663068 
L 162.972958 273.663068 
L 163.072127 271.029638 
L 163.105058 271.029638 
L 163.183022 269.449579 
L 163.240247 269.449579 
L 163.240247 268.922893 
L 163.390587 268.922893 
L 163.390587 268.396207 
L 163.567698 268.396207 
L 163.673506 267.342835 
L 163.839898 267.342835 
L 163.851722 266.289463 
L 163.975399 266.289463 
L 163.983221 265.236091 
L 164.088489 265.236091 
L 164.193125 263.129347 
L 164.35274 263.129347 
L 164.394804 261.549288 
L 164.471025 261.549288 
L 164.575287 259.96923 
L 164.618704 259.96923 
L 164.663893 258.389172 
L 164.863949 258.389172 
L 164.863949 257.862486 
L 165.030462 257.862486 
L 165.114958 254.702369 
L 165.200871 254.702369 
L 165.284547 252.595625 
L 165.358792 252.595625 
L 165.425523 250.488881 
L 165.470467 250.488881 
L 165.579648 246.802078 
L 165.583216 246.802078 
L 165.652649 245.22202 
L 165.728884 245.22202 
L 165.787165 244.168648 
L 165.857549 244.168648 
L 165.945131 242.588589 
L 166.020101 242.588589 
L 166.091286 241.008531 
L 166.138005 241.008531 
L 166.236226 237.848415 
L 166.398707 237.848415 
L 166.475147 235.214984 
L 166.573178 235.214984 
L 166.632069 232.581554 
L 166.717527 232.581554 
L 166.767601 231.001496 
L 166.834145 231.001496 
L 166.915315 227.841379 
L 166.954935 227.841379 
L 167.02898 225.734635 
L 167.132118 225.734635 
L 167.229781 223.101204 
L 167.289735 223.101204 
L 167.375258 221.521146 
L 167.404208 221.521146 
L 167.506754 218.887716 
L 167.58168 218.887716 
L 167.672117 215.200913 
L 167.752639 215.200913 
L 167.848464 210.987425 
L 168.001318 210.987425 
L 168.043196 209.407366 
L 168.131278 209.407366 
L 168.241906 204.667192 
L 168.257216 204.667192 
L 168.281683 202.560447 
L 168.376172 202.560447 
L 168.480731 196.7669 
L 168.488284 196.7669 
L 168.598178 191.50004 
L 168.614678 191.50004 
L 168.723781 184.653121 
L 168.746115 184.653121 
L 168.852923 181.493004 
L 168.888381 181.493004 
L 168.984051 175.172771 
L 169.006055 175.172771 
L 169.117115 169.90591 
L 169.127309 169.90591 
L 169.228919 165.692422 
L 169.249171 165.692422 
L 169.358698 156.212072 
L 169.363007 156.212072 
L 169.466114 150.945211 
L 169.493221 150.945211 
L 169.588476 145.678351 
L 169.615393 145.678351 
L 169.717023 139.884804 
L 169.754982 139.884804 
L 169.854407 129.351082 
L 169.86976 129.351082 
L 169.978243 124.084221 
L 169.981016 124.084221 
L 170.090189 117.237302 
L 170.095699 117.237302 
L 170.200052 109.337011 
L 170.228776 109.337011 
L 170.324185 104.596836 
L 170.352706 104.596836 
L 170.456886 97.223231 
L 170.474414 97.223231 
L 170.583229 88.269568 
L 170.603306 88.269568 
L 170.695362 81.422649 
L 170.728596 81.422649 
L 170.830561 74.57573 
L 170.839801 74.57573 
L 170.950302 67.202125 
L 170.959479 67.202125 
L 171.066621 62.46195 
L 171.075736 62.46195 
L 171.184757 56.141717 
L 171.191225 56.141717 
L 171.302098 51.401542 
L 171.304668 51.401542 
L 171.409716 46.661368 
L 171.426312 46.661368 
L 171.535706 41.921193 
L 171.553449 41.921193 
L 171.628028 39.287762 
L 171.688467 39.287762 
L 171.789986 36.127646 
L 171.839902 36.127646 
L 171.900854 33.494215 
L 171.998679 33.494215 
L 172.089816 31.387471 
L 172.151127 31.387471 
L 172.211004 30.334099 
L 338.688 30.334099 
L 338.688 30.334099 
" style="fill:none;stroke:#ff7500;stroke-linecap:square;stroke-width:1.5;"/>
   </g>
   <g id="line2d_52">
    <defs>
     <path d="M 0 -6 
L -1.347084 -1.854102 
L -5.706339 -1.854102 
L -2.179628 0.708204 
L -3.526712 4.854102 
L -0 2.291796 
L 3.526712 4.854102 
L 2.179628 0.708204 
L 5.706339 -1.854102 
L 1.347084 -1.854102 
z
" id="md5371bae3c" style="stroke:#ff7500;stroke-linejoin:bevel;stroke-width:1.5;"/>
    </defs>
    <g>
     <use style="fill-opacity:0;stroke:#ff7500;stroke-linejoin:bevel;stroke-width:1.5;" x="172.211004" xlink:href="#md5371bae3c" y="30.860785"/>
     <use style="fill-opacity:0;stroke:#ff7500;stroke-linejoin:bevel;stroke-width:1.5;" x="172.211004" xlink:href="#md5371bae3c" y="30.334099"/>
     <use style="fill-opacity:0;stroke:#ff7500;stroke-linejoin:bevel;stroke-width:1.5;" x="172.211004" xlink:href="#md5371bae3c" y="30.334099"/>
     <use style="fill-opacity:0;stroke:#ff7500;stroke-linejoin:bevel;stroke-width:1.5;" x="338.688" xlink:href="#md5371bae3c" y="30.334099"/>
    </g>
   </g>
   <g id="line2d_53">
    <path style="fill:none;stroke:#ff7500;stroke-linecap:square;stroke-width:1.5;"/>
    <g/>
   </g>
   <g id="line2d_54">
    <defs>
     <path d="M 0 1.5 
C 0.397805 1.5 0.77937 1.341951 1.06066 1.06066 
C 1.341951 0.77937 1.5 0.397805 1.5 0 
C 1.5 -0.397805 1.341951 -0.77937 1.06066 -1.06066 
C 0.77937 -1.341951 0.397805 -1.5 0 -1.5 
C -0.397805 -1.5 -0.77937 -1.341951 -1.06066 -1.06066 
C -1.341951 -0.77937 -1.5 -0.397805 -1.5 0 
C -1.5 0.397805 -1.341951 0.77937 -1.06066 1.06066 
C -0.77937 1.341951 -0.397805 1.5 0 1.5 
z
" id="m26598189cd" style="stroke:#9acd32;"/>
    </defs>
    <g>
     <use style="fill:#9acd32;stroke:#9acd32;" x="172.474928" xlink:href="#m26598189cd" y="30.334099"/>
     <use style="fill:#9acd32;stroke:#9acd32;" x="172.474928" xlink:href="#m26598189cd" y="30.334099"/>
    </g>
   </g>
   <g id="line2d_55">
    <path d="M 156.138594 298.944 
L 156.138594 298.417314 
L 156.297301 298.417314 
L 156.297301 297.890628 
L 156.433487 297.890628 
L 156.433487 297.363942 
L 156.577589 297.363942 
L 156.577589 296.837256 
L 156.744217 296.837256 
L 156.744217 296.31057 
L 156.9034 296.31057 
L 156.9034 295.783884 
L 157.720277 295.783884 
L 157.739867 294.730511 
L 157.973246 294.730511 
L 157.973246 294.203825 
L 158.604712 294.203825 
L 158.70821 293.150453 
L 158.868869 293.150453 
L 158.868869 292.623767 
L 159.152314 292.623767 
L 159.237226 291.043709 
L 159.512268 291.043709 
L 159.512268 290.517023 
L 159.743188 290.517023 
L 159.743188 289.990337 
L 159.914394 289.990337 
L 160.003056 288.936964 
L 160.047219 288.936964 
L 160.047219 288.410278 
L 160.171742 288.410278 
L 160.247 287.356906 
L 160.444519 287.356906 
L 160.444519 286.83022 
L 160.563869 286.83022 
L 160.563869 286.303534 
L 160.687132 286.303534 
L 160.77901 284.19679 
L 160.800145 284.19679 
L 160.861056 283.143418 
L 161.08875 283.143418 
L 161.095674 282.090045 
L 161.368114 282.090045 
L 161.368114 281.563359 
L 161.488097 281.563359 
L 161.488097 281.036673 
L 161.620699 281.036673 
L 161.672119 279.456615 
L 161.756743 279.456615 
L 161.836537 278.403243 
L 161.973109 278.403243 
L 162.082474 277.349871 
L 162.149937 277.349871 
L 162.236603 275.243126 
L 162.44286 275.243126 
L 162.489786 274.189754 
L 162.841936 274.189754 
L 162.841936 273.663068 
L 162.956374 273.663068 
L 162.956374 273.136382 
L 163.076247 273.136382 
L 163.13177 271.556324 
L 163.211658 271.556324 
L 163.321673 269.976266 
L 163.327764 269.976266 
L 163.327764 269.449579 
L 163.477355 269.449579 
L 163.485404 267.869521 
L 163.597709 267.869521 
L 163.695386 265.236091 
L 163.766802 265.236091 
L 163.766802 264.709405 
L 163.89108 264.709405 
L 163.969529 263.129347 
L 164.080713 263.129347 
L 164.105972 262.075974 
L 164.239429 262.075974 
L 164.27023 260.495916 
L 164.366135 260.495916 
L 164.44629 259.442544 
L 164.567726 259.442544 
L 164.592289 257.862486 
L 164.686444 257.862486 
L 164.778225 256.282427 
L 164.815548 256.282427 
L 164.8881 254.175683 
L 165.050705 254.175683 
L 165.140594 252.068939 
L 165.246397 252.068939 
L 165.251852 251.015567 
L 165.439918 251.015567 
L 165.508131 249.435508 
L 166.108604 249.435508 
L 166.219034 247.85545 
L 166.222474 247.85545 
L 166.284273 245.748706 
L 166.386786 245.748706 
L 166.478537 244.168648 
L 166.512396 244.168648 
L 166.620306 243.115275 
L 166.658924 243.115275 
L 166.732564 241.535217 
L 166.787591 241.535217 
L 166.842445 239.428473 
L 166.958233 239.428473 
L 167.058511 236.795043 
L 167.097807 236.795043 
L 167.207042 235.74167 
L 167.22004 235.74167 
L 167.325286 230.47481 
L 167.391347 230.47481 
L 167.487573 227.841379 
L 167.509949 227.841379 
L 167.608702 225.207949 
L 167.621403 225.207949 
L 167.72584 222.047832 
L 167.757364 222.047832 
L 167.835927 220.99446 
L 167.871947 220.99446 
L 167.96712 216.780971 
L 167.987336 216.780971 
L 168.097334 214.147541 
L 168.106598 214.147541 
L 168.217383 212.567483 
L 168.232714 212.567483 
L 168.342703 207.827308 
L 168.350315 207.827308 
L 168.436863 204.140506 
L 168.476198 204.140506 
L 168.571145 199.927017 
L 168.592174 199.927017 
L 168.668567 196.240214 
L 168.713348 196.240214 
L 168.815911 191.50004 
L 168.861794 191.50004 
L 168.972305 187.813237 
L 168.975242 187.813237 
L 169.08212 180.966318 
L 169.136041 180.966318 
L 169.221681 176.752829 
L 169.262177 176.752829 
L 169.373059 169.90591 
L 169.381669 169.90591 
L 169.491796 162.532305 
L 169.507471 162.532305 
L 169.615393 155.685386 
L 169.626715 155.685386 
L 169.736716 147.258409 
L 169.742338 147.258409 
L 169.813865 140.938176 
L 169.861387 140.938176 
L 169.969922 131.457826 
L 169.974083 131.457826 
L 170.081921 126.190966 
L 170.102583 126.190966 
L 170.212368 118.290674 
L 170.228776 118.290674 
L 170.325544 110.917069 
L 170.349992 110.917069 
L 170.447441 101.963406 
L 170.464978 101.963406 
L 170.559106 95.116487 
L 170.591263 95.116487 
L 170.690039 87.742882 
L 170.708663 87.742882 
L 170.801489 80.369277 
L 170.819995 80.369277 
L 170.920115 72.995672 
L 170.931933 72.995672 
L 171.03794 67.728811 
L 171.045766 67.728811 
L 171.152381 61.935264 
L 171.157565 61.935264 
L 171.264789 55.615031 
L 171.275089 55.615031 
L 171.384153 50.34817 
L 171.38799 50.34817 
L 171.492539 45.607995 
L 171.554716 45.607995 
L 171.640636 42.974565 
L 171.682181 42.974565 
L 171.784987 40.341135 
L 171.807473 40.341135 
L 171.904579 37.707704 
L 171.935589 37.707704 
L 172.038148 34.547588 
L 172.061541 34.547588 
L 172.143781 32.440843 
L 172.181702 32.440843 
L 172.181702 31.914157 
L 172.394238 31.914157 
L 172.474928 30.334099 
L 338.688 30.334099 
L 338.688 30.334099 
" style="fill:none;stroke:#9acd32;stroke-linecap:square;stroke-width:1.5;"/>
   </g>
   <g id="line2d_56">
    <defs>
     <path d="M 0 -6 
L -6 6 
L 6 6 
z
" id="mff133a0e7d" style="stroke:#9acd32;stroke-linejoin:miter;stroke-width:1.5;"/>
    </defs>
    <g>
     <use style="fill-opacity:0;stroke:#9acd32;stroke-linejoin:miter;stroke-width:1.5;" x="172.474928" xlink:href="#mff133a0e7d" y="30.860785"/>
     <use style="fill-opacity:0;stroke:#9acd32;stroke-linejoin:miter;stroke-width:1.5;" x="172.474928" xlink:href="#mff133a0e7d" y="30.334099"/>
     <use style="fill-opacity:0;stroke:#9acd32;stroke-linejoin:miter;stroke-width:1.5;" x="172.474928" xlink:href="#mff133a0e7d" y="30.334099"/>
     <use style="fill-opacity:0;stroke:#9acd32;stroke-linejoin:miter;stroke-width:1.5;" x="338.688" xlink:href="#mff133a0e7d" y="30.334099"/>
    </g>
   </g>
   <g id="line2d_57">
    <path style="fill:none;stroke:#9acd32;stroke-linecap:square;stroke-width:1.5;"/>
    <g/>
   </g>
   <g id="line2d_58">
    <path d="M 338.688 30.334099 
L 369.60768 293.571802 
" style="fill:none;stroke:#ff00ff;stroke-linecap:square;stroke-width:1.5;"/>
    <g>
     <use style="fill-opacity:0;stroke:#ff00ff;stroke-linejoin:miter;stroke-width:1.5;" x="338.688" xlink:href="#m0a0ff288ad" y="30.334099"/>
     <use style="fill-opacity:0;stroke:#ff00ff;stroke-linejoin:miter;stroke-width:1.5;" x="369.60768" xlink:href="#m0a0ff288ad" y="293.571802"/>
    </g>
   </g>
   <g id="line2d_59">
    <path d="M 338.688 30.334099 
L 369.60768 250.594218 
" style="fill:none;stroke:#ff0000;stroke-linecap:square;stroke-width:1.5;"/>
    <g>
     <use style="fill-opacity:0;stroke:#ff0000;stroke-linejoin:miter;stroke-width:1.5;" x="338.688" xlink:href="#m7419f94372" y="30.334099"/>
     <use style="fill-opacity:0;stroke:#ff0000;stroke-linejoin:miter;stroke-width:1.5;" x="369.60768" xlink:href="#m7419f94372" y="250.594218"/>
    </g>
   </g>
   <g id="line2d_60">
    <path d="M 338.688 30.334099 
L 369.60768 207.616634 
" style="fill:none;stroke:#9acd32;stroke-linecap:square;stroke-width:1.5;"/>
    <g>
     <use style="fill-opacity:0;stroke:#9acd32;stroke-linejoin:miter;stroke-width:1.5;" x="338.688" xlink:href="#mff133a0e7d" y="30.334099"/>
     <use style="fill-opacity:0;stroke:#9acd32;stroke-linejoin:miter;stroke-width:1.5;" x="369.60768" xlink:href="#mff133a0e7d" y="207.616634"/>
    </g>
   </g>
   <g id="line2d_61">
    <path d="M 338.688 30.334099 
L 369.60768 164.63905 
" style="fill:none;stroke:#ff7500;stroke-linecap:square;stroke-width:1.5;"/>
    <g>
     <use style="fill-opacity:0;stroke:#ff7500;stroke-linejoin:bevel;stroke-width:1.5;" x="338.688" xlink:href="#md5371bae3c" y="30.334099"/>
     <use style="fill-opacity:0;stroke:#ff7500;stroke-linejoin:bevel;stroke-width:1.5;" x="369.60768" xlink:href="#md5371bae3c" y="164.63905"/>
    </g>
   </g>
   <g id="line2d_62">
    <path d="M 338.688 30.334099 
L 369.60768 121.661465 
" style="fill:none;stroke:#000080;stroke-linecap:square;stroke-width:1.5;"/>
    <g>
     <use style="fill-opacity:0;stroke:#000080;stroke-width:1.5;" x="338.688" xlink:href="#mdef66ad83f" y="30.334099"/>
     <use style="fill-opacity:0;stroke:#000080;stroke-width:1.5;" x="369.60768" xlink:href="#mdef66ad83f" y="121.661465"/>
    </g>
   </g>
   <g id="line2d_63">
    <path d="M 338.688 30.334099 
L 369.60768 78.683881 
" style="fill:none;stroke:#000080;stroke-linecap:square;stroke-width:1.5;"/>
    <g>
     <use style="fill-opacity:0;stroke:#000080;stroke-width:1.5;" x="338.688" xlink:href="#mdef66ad83f" y="30.334099"/>
     <use style="fill-opacity:0;stroke:#000080;stroke-width:1.5;" x="369.60768" xlink:href="#mdef66ad83f" y="78.683881"/>
    </g>
   </g>
   <g id="line2d_64">
    <path d="M 338.688 298.944 
L 338.688 30.334099 
" style="fill:none;stroke:#000000;stroke-linecap:square;stroke-width:1.5;"/>
   </g>
   <g id="patch_3">
    <path d="M 57.6 298.944 
L 57.6 27.648 
" style="fill:none;stroke:#000000;stroke-linecap:square;stroke-linejoin:miter;stroke-width:0.8;"/>
   </g>
   <g id="patch_4">
    <path d="M 338.688 298.944 
L 338.688 27.648 
" style="fill:none;stroke:#000000;stroke-linecap:square;stroke-linejoin:miter;stroke-width:0.8;"/>
   </g>
   <g id="patch_5">
    <path d="M 57.6 298.944 
L 338.688 298.944 
" style="fill:none;stroke:#000000;stroke-linecap:square;stroke-linejoin:miter;stroke-width:0.8;"/>
   </g>
   <g id="patch_6">
    <path d="M 57.6 27.648 
L 338.688 27.648 
" style="fill:none;stroke:#000000;stroke-linecap:square;stroke-linejoin:miter;stroke-width:0.8;"/>
   </g>
   <g id="text_13">
    <!-- 025-2e4 -->
    <defs>
     <path d="M 10.796875 72.90625 
L 49.515625 72.90625 
L 49.515625 64.59375 
L 19.828125 64.59375 
L 19.828125 46.734375 
Q 21.96875 47.46875 24.109375 47.828125 
Q 26.265625 48.1875 28.421875 48.1875 
Q 40.625 48.1875 47.75 41.5 
Q 54.890625 34.8125 54.890625 23.390625 
Q 54.890625 11.625 47.5625 5.09375 
Q 40.234375 -1.421875 26.90625 -1.421875 
Q 22.3125 -1.421875 17.546875 -0.640625 
Q 12.796875 0.140625 7.71875 1.703125 
L 7.71875 11.625 
Q 12.109375 9.234375 16.796875 8.0625 
Q 21.484375 6.890625 26.703125 6.890625 
Q 35.15625 6.890625 40.078125 11.328125 
Q 45.015625 15.765625 45.015625 23.390625 
Q 45.015625 31 40.078125 35.4375 
Q 35.15625 39.890625 26.703125 39.890625 
Q 22.75 39.890625 18.8125 39.015625 
Q 14.890625 38.140625 10.796875 36.28125 
z
" id="DejaVuSans-53"/>
    </defs>
    <g transform="translate(375.22944 298.262739)scale(0.17 -0.17)">
     <use xlink:href="#DejaVuSans-48"/>
     <use x="63.623047" xlink:href="#DejaVuSans-50"/>
     <use x="127.246094" xlink:href="#DejaVuSans-53"/>
     <use x="190.869141" xlink:href="#DejaVuSans-45"/>
     <use x="226.953125" xlink:href="#DejaVuSans-50"/>
     <use x="290.576172" xlink:href="#DejaVuSans-101"/>
     <use x="352.099609" xlink:href="#DejaVuSans-52"/>
    </g>
   </g>
   <g id="text_14">
    <!-- 050-2e4 -->
    <g transform="translate(375.22944 255.285155)scale(0.17 -0.17)">
     <use xlink:href="#DejaVuSans-48"/>
     <use x="63.623047" xlink:href="#DejaVuSans-53"/>
     <use x="127.246094" xlink:href="#DejaVuSans-48"/>
     <use x="190.869141" xlink:href="#DejaVuSans-45"/>
     <use x="226.953125" xlink:href="#DejaVuSans-50"/>
     <use x="290.576172" xlink:href="#DejaVuSans-101"/>
     <use x="352.099609" xlink:href="#DejaVuSans-52"/>
    </g>
   </g>
   <g id="text_15">
    <!-- 080-1e5 -->
    <g transform="translate(375.22944 212.307571)scale(0.17 -0.17)">
     <use xlink:href="#DejaVuSans-48"/>
     <use x="63.623047" xlink:href="#DejaVuSans-56"/>
     <use x="127.246094" xlink:href="#DejaVuSans-48"/>
     <use x="190.869141" xlink:href="#DejaVuSans-45"/>
     <use x="226.953125" xlink:href="#DejaVuSans-49"/>
     <use x="290.576172" xlink:href="#DejaVuSans-101"/>
     <use x="352.099609" xlink:href="#DejaVuSans-53"/>
    </g>
   </g>
   <g id="text_16">
    <!-- 075-2e4 -->
    <defs>
     <path d="M 8.203125 72.90625 
L 55.078125 72.90625 
L 55.078125 68.703125 
L 28.609375 0 
L 18.3125 0 
L 43.21875 64.59375 
L 8.203125 64.59375 
z
" id="DejaVuSans-55"/>
    </defs>
    <g transform="translate(375.22944 169.329987)scale(0.17 -0.17)">
     <use xlink:href="#DejaVuSans-48"/>
     <use x="63.623047" xlink:href="#DejaVuSans-55"/>
     <use x="127.246094" xlink:href="#DejaVuSans-53"/>
     <use x="190.869141" xlink:href="#DejaVuSans-45"/>
     <use x="226.953125" xlink:href="#DejaVuSans-50"/>
     <use x="290.576172" xlink:href="#DejaVuSans-101"/>
     <use x="352.099609" xlink:href="#DejaVuSans-52"/>
    </g>
   </g>
   <g id="text_17">
    <!-- 100-1e5 -->
    <g transform="translate(375.22944 126.352403)scale(0.17 -0.17)">
     <use xlink:href="#DejaVuSans-49"/>
     <use x="63.623047" xlink:href="#DejaVuSans-48"/>
     <use x="127.246094" xlink:href="#DejaVuSans-48"/>
     <use x="190.869141" xlink:href="#DejaVuSans-45"/>
     <use x="226.953125" xlink:href="#DejaVuSans-49"/>
     <use x="290.576172" xlink:href="#DejaVuSans-101"/>
     <use x="352.099609" xlink:href="#DejaVuSans-53"/>
    </g>
   </g>
   <g id="text_18">
    <!-- 100-2e4 -->
    <g transform="translate(375.22944 83.374819)scale(0.17 -0.17)">
     <use xlink:href="#DejaVuSans-49"/>
     <use x="63.623047" xlink:href="#DejaVuSans-48"/>
     <use x="127.246094" xlink:href="#DejaVuSans-48"/>
     <use x="190.869141" xlink:href="#DejaVuSans-45"/>
     <use x="226.953125" xlink:href="#DejaVuSans-50"/>
     <use x="290.576172" xlink:href="#DejaVuSans-101"/>
     <use x="352.099609" xlink:href="#DejaVuSans-52"/>
    </g>
   </g>
   <g id="text_19">
    <!-- best 2009 -->
    <defs>
     <path d="M 48.6875 27.296875 
Q 48.6875 37.203125 44.609375 42.84375 
Q 40.53125 48.484375 33.40625 48.484375 
Q 26.265625 48.484375 22.1875 42.84375 
Q 18.109375 37.203125 18.109375 27.296875 
Q 18.109375 17.390625 22.1875 11.75 
Q 26.265625 6.109375 33.40625 6.109375 
Q 40.53125 6.109375 44.609375 11.75 
Q 48.6875 17.390625 48.6875 27.296875 
z
M 18.109375 46.390625 
Q 20.953125 51.265625 25.265625 53.625 
Q 29.59375 56 35.59375 56 
Q 45.5625 56 51.78125 48.09375 
Q 58.015625 40.1875 58.015625 27.296875 
Q 58.015625 14.40625 51.78125 6.484375 
Q 45.5625 -1.421875 35.59375 -1.421875 
Q 29.59375 -1.421875 25.265625 0.953125 
Q 20.953125 3.328125 18.109375 8.203125 
L 18.109375 0 
L 9.078125 0 
L 9.078125 75.984375 
L 18.109375 75.984375 
z
" id="DejaVuSans-98"/>
     <path d="M 10.984375 1.515625 
L 10.984375 10.5 
Q 14.703125 8.734375 18.5 7.8125 
Q 22.3125 6.890625 25.984375 6.890625 
Q 35.75 6.890625 40.890625 13.453125 
Q 46.046875 20.015625 46.78125 33.40625 
Q 43.953125 29.203125 39.59375 26.953125 
Q 35.25 24.703125 29.984375 24.703125 
Q 19.046875 24.703125 12.671875 31.3125 
Q 6.296875 37.9375 6.296875 49.421875 
Q 6.296875 60.640625 12.9375 67.421875 
Q 19.578125 74.21875 30.609375 74.21875 
Q 43.265625 74.21875 49.921875 64.515625 
Q 56.59375 54.828125 56.59375 36.375 
Q 56.59375 19.140625 48.40625 8.859375 
Q 40.234375 -1.421875 26.421875 -1.421875 
Q 22.703125 -1.421875 18.890625 -0.6875 
Q 15.09375 0.046875 10.984375 1.515625 
z
M 30.609375 32.421875 
Q 37.25 32.421875 41.125 36.953125 
Q 45.015625 41.5 45.015625 49.421875 
Q 45.015625 57.28125 41.125 61.84375 
Q 37.25 66.40625 30.609375 66.40625 
Q 23.96875 66.40625 20.09375 61.84375 
Q 16.21875 57.28125 16.21875 49.421875 
Q 16.21875 41.5 20.09375 36.953125 
Q 23.96875 32.421875 30.609375 32.421875 
z
" id="DejaVuSans-57"/>
    </defs>
    <g transform="translate(375.22944 40.397235)scale(0.17 -0.17)">
     <use xlink:href="#DejaVuSans-98"/>
     <use x="63.476562" xlink:href="#DejaVuSans-101"/>
     <use x="125" xlink:href="#DejaVuSans-115"/>
     <use x="177.099609" xlink:href="#DejaVuSans-116"/>
     <use x="216.308594" xlink:href="#DejaVuSans-32"/>
     <use x="248.095703" xlink:href="#DejaVuSans-50"/>
     <use x="311.71875" xlink:href="#DejaVuSans-48"/>
     <use x="375.341797" xlink:href="#DejaVuSans-48"/>
     <use x="438.964844" xlink:href="#DejaVuSans-57"/>
    </g>
   </g>
   <g id="text_20">
    <!-- bbob f2, 20-D -->
    <defs>
     <path d="M 19.671875 64.796875 
L 19.671875 8.109375 
L 31.59375 8.109375 
Q 46.6875 8.109375 53.6875 14.9375 
Q 60.6875 21.78125 60.6875 36.53125 
Q 60.6875 51.171875 53.6875 57.984375 
Q 46.6875 64.796875 31.59375 64.796875 
z
M 9.8125 72.90625 
L 30.078125 72.90625 
Q 51.265625 72.90625 61.171875 64.09375 
Q 71.09375 55.28125 71.09375 36.53125 
Q 71.09375 17.671875 61.125 8.828125 
Q 51.171875 0 30.078125 0 
L 9.8125 0 
z
" id="DejaVuSans-68"/>
    </defs>
    <g transform="translate(60.41088 38.111366)scale(0.102 -0.102)">
     <use xlink:href="#DejaVuSans-98"/>
     <use x="63.476562" xlink:href="#DejaVuSans-98"/>
     <use x="126.953125" xlink:href="#DejaVuSans-111"/>
     <use x="188.134766" xlink:href="#DejaVuSans-98"/>
     <use x="251.611328" xlink:href="#DejaVuSans-32"/>
     <use x="283.398438" xlink:href="#DejaVuSans-102"/>
     <use x="318.603516" xlink:href="#DejaVuSans-50"/>
     <use x="382.226562" xlink:href="#DejaVuSans-44"/>
     <use x="414.013672" xlink:href="#DejaVuSans-32"/>
     <use x="445.800781" xlink:href="#DejaVuSans-50"/>
     <use x="509.423828" xlink:href="#DejaVuSans-48"/>
     <use x="573.046875" xlink:href="#DejaVuSans-45"/>
     <use x="609.130859" xlink:href="#DejaVuSans-68"/>
    </g>
    <!-- 51 targets: 100..1e-08 -->
    <defs>
     <path d="M 11.71875 12.40625 
L 22.015625 12.40625 
L 22.015625 0 
L 11.71875 0 
z
M 11.71875 51.703125 
L 22.015625 51.703125 
L 22.015625 39.3125 
L 11.71875 39.3125 
z
" id="DejaVuSans-58"/>
    </defs>
    <g transform="translate(60.41088 49.533135)scale(0.102 -0.102)">
     <use xlink:href="#DejaVuSans-53"/>
     <use x="63.623047" xlink:href="#DejaVuSans-49"/>
     <use x="127.246094" xlink:href="#DejaVuSans-32"/>
     <use x="159.033203" xlink:href="#DejaVuSans-116"/>
     <use x="198.242188" xlink:href="#DejaVuSans-97"/>
     <use x="259.521484" xlink:href="#DejaVuSans-114"/>
     <use x="300.619141" xlink:href="#DejaVuSans-103"/>
     <use x="364.095703" xlink:href="#DejaVuSans-101"/>
     <use x="425.619141" xlink:href="#DejaVuSans-116"/>
     <use x="464.828125" xlink:href="#DejaVuSans-115"/>
     <use x="516.927734" xlink:href="#DejaVuSans-58"/>
     <use x="550.619141" xlink:href="#DejaVuSans-32"/>
     <use x="582.40625" xlink:href="#DejaVuSans-49"/>
     <use x="646.029297" xlink:href="#DejaVuSans-48"/>
     <use x="709.652344" xlink:href="#DejaVuSans-48"/>
     <use x="773.275391" xlink:href="#DejaVuSans-46"/>
     <use x="805.0625" xlink:href="#DejaVuSans-46"/>
     <use x="836.849609" xlink:href="#DejaVuSans-49"/>
     <use x="900.472656" xlink:href="#DejaVuSans-101"/>
     <use x="961.996094" xlink:href="#DejaVuSans-45"/>
     <use x="998.080078" xlink:href="#DejaVuSans-48"/>
     <use x="1061.703125" xlink:href="#DejaVuSans-56"/>
    </g>
    <!-- 15 instances -->
    <g transform="translate(60.41088 60.954904)scale(0.102 -0.102)">
     <use xlink:href="#DejaVuSans-49"/>
     <use x="63.623047" xlink:href="#DejaVuSans-53"/>
     <use x="127.246094" xlink:href="#DejaVuSans-32"/>
     <use x="159.033203" xlink:href="#DejaVuSans-105"/>
     <use x="186.816406" xlink:href="#DejaVuSans-110"/>
     <use x="250.195312" xlink:href="#DejaVuSans-115"/>
     <use x="302.294922" xlink:href="#DejaVuSans-116"/>
     <use x="341.503906" xlink:href="#DejaVuSans-97"/>
     <use x="402.783203" xlink:href="#DejaVuSans-110"/>
     <use x="466.162109" xlink:href="#DejaVuSans-99"/>
     <use x="521.142578" xlink:href="#DejaVuSans-101"/>
     <use x="582.666016" xlink:href="#DejaVuSans-115"/>
    </g>
   </g>
   <g id="text_21">
    <!-- v2.3.3.18.73 -->
    <defs>
     <path d="M 40.578125 39.3125 
Q 47.65625 37.796875 51.625 33 
Q 55.609375 28.21875 55.609375 21.1875 
Q 55.609375 10.40625 48.1875 4.484375 
Q 40.765625 -1.421875 27.09375 -1.421875 
Q 22.515625 -1.421875 17.65625 -0.515625 
Q 12.796875 0.390625 7.625 2.203125 
L 7.625 11.71875 
Q 11.71875 9.328125 16.59375 8.109375 
Q 21.484375 6.890625 26.8125 6.890625 
Q 36.078125 6.890625 40.9375 10.546875 
Q 45.796875 14.203125 45.796875 21.1875 
Q 45.796875 27.640625 41.28125 31.265625 
Q 36.765625 34.90625 28.71875 34.90625 
L 20.21875 34.90625 
L 20.21875 43.015625 
L 29.109375 43.015625 
Q 36.375 43.015625 40.234375 45.921875 
Q 44.09375 48.828125 44.09375 54.296875 
Q 44.09375 59.90625 40.109375 62.90625 
Q 36.140625 65.921875 28.71875 65.921875 
Q 24.65625 65.921875 20.015625 65.03125 
Q 15.375 64.15625 9.8125 62.3125 
L 9.8125 71.09375 
Q 15.4375 72.65625 20.34375 73.4375 
Q 25.25 74.21875 29.59375 74.21875 
Q 40.828125 74.21875 47.359375 69.109375 
Q 53.90625 64.015625 53.90625 55.328125 
Q 53.90625 49.265625 50.4375 45.09375 
Q 46.96875 40.921875 40.578125 39.3125 
z
" id="DejaVuSans-51"/>
    </defs>
    <g style="fill:#808080;" transform="translate(166.559625 294.151352)scale(0.1 -0.1)">
     <use xlink:href="#DejaVuSans-118"/>
     <use x="59.179688" xlink:href="#DejaVuSans-50"/>
     <use x="122.802734" xlink:href="#DejaVuSans-46"/>
     <use x="154.589844" xlink:href="#DejaVuSans-51"/>
     <use x="218.212891" xlink:href="#DejaVuSans-46"/>
     <use x="250" xlink:href="#DejaVuSans-51"/>
     <use x="313.623047" xlink:href="#DejaVuSans-46"/>
     <use x="345.410156" xlink:href="#DejaVuSans-49"/>
     <use x="409.033203" xlink:href="#DejaVuSans-56"/>
     <use x="472.65625" xlink:href="#DejaVuSans-46"/>
     <use x="504.443359" xlink:href="#DejaVuSans-55"/>
     <use x="568.066406" xlink:href="#DejaVuSans-51"/>
    </g>
   </g>
   <g id="text_22">
    <!-- 2 Ellipsoid separable -->
    <defs>
     <path d="M 9.8125 72.90625 
L 55.90625 72.90625 
L 55.90625 64.59375 
L 19.671875 64.59375 
L 19.671875 43.015625 
L 54.390625 43.015625 
L 54.390625 34.71875 
L 19.671875 34.71875 
L 19.671875 8.296875 
L 56.78125 8.296875 
L 56.78125 0 
L 9.8125 0 
z
" id="DejaVuSans-69"/>
    </defs>
    <g transform="translate(94.611187 21.648)scale(0.2 -0.2)">
     <use xlink:href="#DejaVuSans-50"/>
     <use x="63.623047" xlink:href="#DejaVuSans-32"/>
     <use x="95.410156" xlink:href="#DejaVuSans-69"/>
     <use x="158.59375" xlink:href="#DejaVuSans-108"/>
     <use x="186.376953" xlink:href="#DejaVuSans-108"/>
     <use x="214.160156" xlink:href="#DejaVuSans-105"/>
     <use x="241.943359" xlink:href="#DejaVuSans-112"/>
     <use x="305.419922" xlink:href="#DejaVuSans-115"/>
     <use x="357.519531" xlink:href="#DejaVuSans-111"/>
     <use x="418.701172" xlink:href="#DejaVuSans-105"/>
     <use x="446.484375" xlink:href="#DejaVuSans-100"/>
     <use x="509.960938" xlink:href="#DejaVuSans-32"/>
     <use x="541.748047" xlink:href="#DejaVuSans-115"/>
     <use x="593.847656" xlink:href="#DejaVuSans-101"/>
     <use x="655.371094" xlink:href="#DejaVuSans-112"/>
     <use x="718.847656" xlink:href="#DejaVuSans-97"/>
     <use x="780.126953" xlink:href="#DejaVuSans-114"/>
     <use x="821.240234" xlink:href="#DejaVuSans-97"/>
     <use x="882.519531" xlink:href="#DejaVuSans-98"/>
     <use x="945.996094" xlink:href="#DejaVuSans-108"/>
     <use x="973.779297" xlink:href="#DejaVuSans-101"/>
    </g>
   </g>
  </g>
 </g>
 <defs>
  <clipPath id="p8599829bda">
   <rect height="271.296" width="281.088" x="57.6" y="27.648"/>
  </clipPath>
 </defs>
</svg>
