<?xml version="1.0" encoding="utf-8" standalone="no"?>
<!DOCTYPE svg PUBLIC "-//W3C//DTD SVG 1.1//EN"
  "http://www.w3.org/Graphics/SVG/1.1/DTD/svg11.dtd">
<!-- Created with matplotlib (https://matplotlib.org/) -->
<svg height="345.6pt" version="1.1" viewBox="0 0 460.8 345.6" width="460.8pt" xmlns="http://www.w3.org/2000/svg" xmlns:xlink="http://www.w3.org/1999/xlink">
 <defs>
  <style type="text/css">
*{stroke-linecap:butt;stroke-linejoin:round;}
  </style>
 </defs>
 <g id="figure_1">
  <g id="patch_1">
   <path d="M 0 345.6 
L 460.8 345.6 
L 460.8 0 
L 0 0 
z
" style="fill:#ffffff;"/>
  </g>
  <g id="axes_1">
   <g id="patch_2">
    <path d="M 57.6 298.944 
L 338.688 298.944 
L 338.688 27.648 
L 57.6 27.648 
z
" style="fill:#ffffff;"/>
   </g>
   <g id="line2d_1">
    <path d="M 122.104932 298.944 
L 122.104932 293.677139 
L 126.72349 293.677139 
L 126.72349 288.410278 
L 129.468457 288.410278 
L 129.468457 283.143418 
L 143.150923 283.143418 
L 143.150923 277.876557 
L 146.074653 277.876557 
L 146.074653 272.609696 
L 147.86833 272.609696 
L 147.86833 267.342835 
L 149.049169 267.342835 
L 149.049169 262.075974 
L 154.288574 262.075974 
L 154.288574 256.809114 
L 154.626195 256.809114 
L 154.626195 251.542253 
L 154.832284 251.542253 
L 154.832284 246.275392 
L 154.996729 246.275392 
L 154.996729 241.008531 
L 155.14017 241.008531 
L 155.14017 235.74167 
L 155.292098 235.74167 
L 155.292098 230.47481 
L 155.394786 230.47481 
L 155.394786 225.207949 
L 155.492101 225.207949 
L 155.492101 219.941088 
L 155.571464 219.941088 
L 155.571464 214.674227 
L 155.689836 214.674227 
L 155.689836 209.407366 
L 155.773004 209.407366 
L 155.773004 204.140506 
L 155.851102 204.140506 
L 155.851102 198.873645 
L 155.911776 198.873645 
L 155.911776 193.606784 
L 155.967597 193.606784 
L 155.967597 188.339923 
L 156.024783 188.339923 
L 156.024783 183.073062 
L 156.072551 183.073062 
L 156.072551 177.806202 
L 156.126326 177.806202 
L 156.126326 172.539341 
L 156.173818 172.539341 
L 156.173818 167.27248 
L 156.22118 167.27248 
L 156.22118 162.005619 
L 156.266892 162.005619 
L 156.266892 156.738758 
L 156.307931 156.738758 
L 156.307931 151.471897 
L 156.353417 151.471897 
L 156.353417 146.205037 
L 156.395764 146.205037 
L 156.395764 140.938176 
L 156.444035 140.938176 
L 156.444035 135.671315 
L 156.493674 135.671315 
L 156.493674 130.404454 
L 156.526689 130.404454 
L 156.526689 125.137593 
L 156.565626 125.137593 
L 156.565626 119.870733 
L 156.598505 119.870733 
L 156.598505 114.603872 
L 156.629832 114.603872 
L 156.629832 109.337011 
L 156.670026 109.337011 
L 156.670026 104.07015 
L 156.702709 104.07015 
L 156.702709 98.803289 
L 156.744217 98.803289 
L 156.744217 93.536429 
L 156.776762 93.536429 
L 156.776762 88.269568 
L 156.816619 88.269568 
L 156.816619 83.002707 
L 156.854915 83.002707 
L 156.854915 77.735846 
L 156.896063 77.735846 
L 156.896063 72.468985 
L 156.938578 72.468985 
L 156.938578 67.202125 
L 156.979529 67.202125 
L 156.979529 61.935264 
L 157.024756 61.935264 
L 157.024756 56.668403 
L 157.062598 56.668403 
L 157.062598 51.401542 
L 157.10616 51.401542 
L 157.10616 46.134681 
L 157.143825 46.134681 
L 157.143825 40.867821 
L 157.185742 40.867821 
L 157.185742 35.60096 
L 157.226117 35.60096 
L 157.226117 30.334099 
L 338.688 30.334099 
" style="fill:none;stroke:#f5deb3;stroke-linecap:square;stroke-width:4;"/>
   </g>
   <g id="line2d_2">
    <defs>
     <path d="M -0 7.778175 
L 7.778175 0 
L 0 -7.778175 
L -7.778175 -0 
z
" id="m518c5d397a" style="stroke:#f5deb3;stroke-linejoin:miter;stroke-width:1.5;"/>
    </defs>
    <g>
     <use style="fill:#f5deb3;stroke:#f5deb3;stroke-linejoin:miter;stroke-width:1.5;" x="156.173818" xlink:href="#m518c5d397a" y="172.539341"/>
     <use style="fill:#f5deb3;stroke:#f5deb3;stroke-linejoin:miter;stroke-width:1.5;" x="157.185742" xlink:href="#m518c5d397a" y="40.867821"/>
     <use style="fill:#f5deb3;stroke:#f5deb3;stroke-linejoin:miter;stroke-width:1.5;" x="157.226117" xlink:href="#m518c5d397a" y="30.334099"/>
     <use style="fill:#f5deb3;stroke:#f5deb3;stroke-linejoin:miter;stroke-width:1.5;" x="157.226117" xlink:href="#m518c5d397a" y="30.334099"/>
     <use style="fill:#f5deb3;stroke:#f5deb3;stroke-linejoin:miter;stroke-width:1.5;" x="338.688" xlink:href="#m518c5d397a" y="30.334099"/>
    </g>
   </g>
   <g id="line2d_3">
    <path style="fill:none;stroke:#f5deb3;stroke-linecap:square;stroke-width:4;"/>
    <g/>
   </g>
   <g id="line2d_4">
    <path d="M 338.688 30.334099 
L 369.60768 35.706297 
" style="fill:none;stroke:#f5deb3;stroke-linecap:square;stroke-width:4;"/>
    <g>
     <use style="fill:#f5deb3;stroke:#f5deb3;stroke-linejoin:miter;stroke-width:1.5;" x="338.688" xlink:href="#m518c5d397a" y="30.334099"/>
     <use style="fill:#f5deb3;stroke:#f5deb3;stroke-linejoin:miter;stroke-width:1.5;" x="369.60768" xlink:href="#m518c5d397a" y="35.706297"/>
    </g>
   </g>
   <g id="matplotlib.axis_1">
    <g id="xtick_1">
     <g id="line2d_5">
      <path clip-path="url(#p342882c82d)" d="M 57.6 298.944 
L 57.6 27.648 
" style="fill:none;stroke:#b0b0b0;stroke-linecap:square;stroke-width:0.8;"/>
     </g>
     <g id="line2d_6">
      <defs>
       <path d="M 0 0 
L 0 3.5 
" id="m5b92ef79cd" style="stroke:#000000;stroke-width:0.8;"/>
      </defs>
      <g>
       <use style="stroke:#000000;stroke-width:0.8;" x="57.6" xlink:href="#m5b92ef79cd" y="298.944"/>
      </g>
     </g>
     <g id="text_1">
      <!-- 0 -->
      <defs>
       <path d="M 31.78125 66.40625 
Q 24.171875 66.40625 20.328125 58.90625 
Q 16.5 51.421875 16.5 36.375 
Q 16.5 21.390625 20.328125 13.890625 
Q 24.171875 6.390625 31.78125 6.390625 
Q 39.453125 6.390625 43.28125 13.890625 
Q 47.125 21.390625 47.125 36.375 
Q 47.125 51.421875 43.28125 58.90625 
Q 39.453125 66.40625 31.78125 66.40625 
z
M 31.78125 74.21875 
Q 44.046875 74.21875 50.515625 64.515625 
Q 56.984375 54.828125 56.984375 36.375 
Q 56.984375 17.96875 50.515625 8.265625 
Q 44.046875 -1.421875 31.78125 -1.421875 
Q 19.53125 -1.421875 13.0625 8.265625 
Q 6.59375 17.96875 6.59375 36.375 
Q 6.59375 54.828125 13.0625 64.515625 
Q 19.53125 74.21875 31.78125 74.21875 
z
" id="DejaVuSans-48"/>
      </defs>
      <g transform="translate(51.2375 321.140875)scale(0.2 -0.2)">
       <use xlink:href="#DejaVuSans-48"/>
      </g>
     </g>
    </g>
    <g id="xtick_2">
     <g id="line2d_7">
      <path clip-path="url(#p342882c82d)" d="M 137.910857 298.944 
L 137.910857 27.648 
" style="fill:none;stroke:#b0b0b0;stroke-linecap:square;stroke-width:0.8;"/>
     </g>
     <g id="line2d_8">
      <g>
       <use style="stroke:#000000;stroke-width:0.8;" x="137.910857" xlink:href="#m5b92ef79cd" y="298.944"/>
      </g>
     </g>
     <g id="text_2">
      <!-- 2 -->
      <defs>
       <path d="M 19.1875 8.296875 
L 53.609375 8.296875 
L 53.609375 0 
L 7.328125 0 
L 7.328125 8.296875 
Q 12.9375 14.109375 22.625 23.890625 
Q 32.328125 33.6875 34.8125 36.53125 
Q 39.546875 41.84375 41.421875 45.53125 
Q 43.3125 49.21875 43.3125 52.78125 
Q 43.3125 58.59375 39.234375 62.25 
Q 35.15625 65.921875 28.609375 65.921875 
Q 23.96875 65.921875 18.8125 64.3125 
Q 13.671875 62.703125 7.8125 59.421875 
L 7.8125 69.390625 
Q 13.765625 71.78125 18.9375 73 
Q 24.125 74.21875 28.421875 74.21875 
Q 39.75 74.21875 46.484375 68.546875 
Q 53.21875 62.890625 53.21875 53.421875 
Q 53.21875 48.921875 51.53125 44.890625 
Q 49.859375 40.875 45.40625 35.40625 
Q 44.1875 33.984375 37.640625 27.21875 
Q 31.109375 20.453125 19.1875 8.296875 
z
" id="DejaVuSans-50"/>
      </defs>
      <g transform="translate(131.548357 321.140875)scale(0.2 -0.2)">
       <use xlink:href="#DejaVuSans-50"/>
      </g>
     </g>
    </g>
    <g id="xtick_3">
     <g id="line2d_9">
      <path clip-path="url(#p342882c82d)" d="M 218.221714 298.944 
L 218.221714 27.648 
" style="fill:none;stroke:#b0b0b0;stroke-linecap:square;stroke-width:0.8;"/>
     </g>
     <g id="line2d_10">
      <g>
       <use style="stroke:#000000;stroke-width:0.8;" x="218.221714" xlink:href="#m5b92ef79cd" y="298.944"/>
      </g>
     </g>
     <g id="text_3">
      <!-- 4 -->
      <defs>
       <path d="M 37.796875 64.3125 
L 12.890625 25.390625 
L 37.796875 25.390625 
z
M 35.203125 72.90625 
L 47.609375 72.90625 
L 47.609375 25.390625 
L 58.015625 25.390625 
L 58.015625 17.1875 
L 47.609375 17.1875 
L 47.609375 0 
L 37.796875 0 
L 37.796875 17.1875 
L 4.890625 17.1875 
L 4.890625 26.703125 
z
" id="DejaVuSans-52"/>
      </defs>
      <g transform="translate(211.859214 321.140875)scale(0.2 -0.2)">
       <use xlink:href="#DejaVuSans-52"/>
      </g>
     </g>
    </g>
    <g id="xtick_4">
     <g id="line2d_11">
      <path clip-path="url(#p342882c82d)" d="M 298.532571 298.944 
L 298.532571 27.648 
" style="fill:none;stroke:#b0b0b0;stroke-linecap:square;stroke-width:0.8;"/>
     </g>
     <g id="line2d_12">
      <g>
       <use style="stroke:#000000;stroke-width:0.8;" x="298.532571" xlink:href="#m5b92ef79cd" y="298.944"/>
      </g>
     </g>
     <g id="text_4">
      <!-- 6 -->
      <defs>
       <path d="M 33.015625 40.375 
Q 26.375 40.375 22.484375 35.828125 
Q 18.609375 31.296875 18.609375 23.390625 
Q 18.609375 15.53125 22.484375 10.953125 
Q 26.375 6.390625 33.015625 6.390625 
Q 39.65625 6.390625 43.53125 10.953125 
Q 47.40625 15.53125 47.40625 23.390625 
Q 47.40625 31.296875 43.53125 35.828125 
Q 39.65625 40.375 33.015625 40.375 
z
M 52.59375 71.296875 
L 52.59375 62.3125 
Q 48.875 64.0625 45.09375 64.984375 
Q 41.3125 65.921875 37.59375 65.921875 
Q 27.828125 65.921875 22.671875 59.328125 
Q 17.53125 52.734375 16.796875 39.40625 
Q 19.671875 43.65625 24.015625 45.921875 
Q 28.375 48.1875 33.59375 48.1875 
Q 44.578125 48.1875 50.953125 41.515625 
Q 57.328125 34.859375 57.328125 23.390625 
Q 57.328125 12.15625 50.6875 5.359375 
Q 44.046875 -1.421875 33.015625 -1.421875 
Q 20.359375 -1.421875 13.671875 8.265625 
Q 6.984375 17.96875 6.984375 36.375 
Q 6.984375 53.65625 15.1875 63.9375 
Q 23.390625 74.21875 37.203125 74.21875 
Q 40.921875 74.21875 44.703125 73.484375 
Q 48.484375 72.75 52.59375 71.296875 
z
" id="DejaVuSans-54"/>
      </defs>
      <g transform="translate(292.170071 321.140875)scale(0.2 -0.2)">
       <use xlink:href="#DejaVuSans-54"/>
      </g>
     </g>
    </g>
    <g id="xtick_5">
     <g id="line2d_13">
      <path clip-path="url(#p342882c82d)" d="M 97.755429 298.944 
L 97.755429 27.648 
" style="fill:none;stroke:#b0b0b0;stroke-linecap:square;stroke-width:0.8;"/>
     </g>
     <g id="line2d_14">
      <defs>
       <path d="M 0 0 
L 0 2 
" id="m8e4ffa767e" style="stroke:#000000;stroke-width:0.6;"/>
      </defs>
      <g>
       <use style="stroke:#000000;stroke-width:0.6;" x="97.755429" xlink:href="#m8e4ffa767e" y="298.944"/>
      </g>
     </g>
    </g>
    <g id="xtick_6">
     <g id="line2d_15">
      <path clip-path="url(#p342882c82d)" d="M 178.066286 298.944 
L 178.066286 27.648 
" style="fill:none;stroke:#b0b0b0;stroke-linecap:square;stroke-width:0.8;"/>
     </g>
     <g id="line2d_16">
      <g>
       <use style="stroke:#000000;stroke-width:0.6;" x="178.066286" xlink:href="#m8e4ffa767e" y="298.944"/>
      </g>
     </g>
    </g>
    <g id="xtick_7">
     <g id="line2d_17">
      <path clip-path="url(#p342882c82d)" d="M 258.377143 298.944 
L 258.377143 27.648 
" style="fill:none;stroke:#b0b0b0;stroke-linecap:square;stroke-width:0.8;"/>
     </g>
     <g id="line2d_18">
      <g>
       <use style="stroke:#000000;stroke-width:0.6;" x="258.377143" xlink:href="#m8e4ffa767e" y="298.944"/>
      </g>
     </g>
    </g>
    <g id="xtick_8">
     <g id="line2d_19">
      <path clip-path="url(#p342882c82d)" d="M 338.688 298.944 
L 338.688 27.648 
" style="fill:none;stroke:#b0b0b0;stroke-linecap:square;stroke-width:0.8;"/>
     </g>
     <g id="line2d_20">
      <g>
       <use style="stroke:#000000;stroke-width:0.6;" x="338.688" xlink:href="#m8e4ffa767e" y="298.944"/>
      </g>
     </g>
    </g>
    <g id="text_5">
     <!-- log10(# f-evals / dimension) -->
     <defs>
      <path d="M 9.421875 75.984375 
L 18.40625 75.984375 
L 18.40625 0 
L 9.421875 0 
z
" id="DejaVuSans-108"/>
      <path d="M 30.609375 48.390625 
Q 23.390625 48.390625 19.1875 42.75 
Q 14.984375 37.109375 14.984375 27.296875 
Q 14.984375 17.484375 19.15625 11.84375 
Q 23.34375 6.203125 30.609375 6.203125 
Q 37.796875 6.203125 41.984375 11.859375 
Q 46.1875 17.53125 46.1875 27.296875 
Q 46.1875 37.015625 41.984375 42.703125 
Q 37.796875 48.390625 30.609375 48.390625 
z
M 30.609375 56 
Q 42.328125 56 49.015625 48.375 
Q 55.71875 40.765625 55.71875 27.296875 
Q 55.71875 13.875 49.015625 6.21875 
Q 42.328125 -1.421875 30.609375 -1.421875 
Q 18.84375 -1.421875 12.171875 6.21875 
Q 5.515625 13.875 5.515625 27.296875 
Q 5.515625 40.765625 12.171875 48.375 
Q 18.84375 56 30.609375 56 
z
" id="DejaVuSans-111"/>
      <path d="M 45.40625 27.984375 
Q 45.40625 37.75 41.375 43.109375 
Q 37.359375 48.484375 30.078125 48.484375 
Q 22.859375 48.484375 18.828125 43.109375 
Q 14.796875 37.75 14.796875 27.984375 
Q 14.796875 18.265625 18.828125 12.890625 
Q 22.859375 7.515625 30.078125 7.515625 
Q 37.359375 7.515625 41.375 12.890625 
Q 45.40625 18.265625 45.40625 27.984375 
z
M 54.390625 6.78125 
Q 54.390625 -7.171875 48.1875 -13.984375 
Q 42 -20.796875 29.203125 -20.796875 
Q 24.46875 -20.796875 20.265625 -20.09375 
Q 16.0625 -19.390625 12.109375 -17.921875 
L 12.109375 -9.1875 
Q 16.0625 -11.328125 19.921875 -12.34375 
Q 23.78125 -13.375 27.78125 -13.375 
Q 36.625 -13.375 41.015625 -8.765625 
Q 45.40625 -4.15625 45.40625 5.171875 
L 45.40625 9.625 
Q 42.625 4.78125 38.28125 2.390625 
Q 33.9375 0 27.875 0 
Q 17.828125 0 11.671875 7.65625 
Q 5.515625 15.328125 5.515625 27.984375 
Q 5.515625 40.671875 11.671875 48.328125 
Q 17.828125 56 27.875 56 
Q 33.9375 56 38.28125 53.609375 
Q 42.625 51.21875 45.40625 46.390625 
L 45.40625 54.6875 
L 54.390625 54.6875 
z
" id="DejaVuSans-103"/>
      <path d="M 12.40625 8.296875 
L 28.515625 8.296875 
L 28.515625 63.921875 
L 10.984375 60.40625 
L 10.984375 69.390625 
L 28.421875 72.90625 
L 38.28125 72.90625 
L 38.28125 8.296875 
L 54.390625 8.296875 
L 54.390625 0 
L 12.40625 0 
z
" id="DejaVuSans-49"/>
      <path d="M 31 75.875 
Q 24.46875 64.65625 21.28125 53.65625 
Q 18.109375 42.671875 18.109375 31.390625 
Q 18.109375 20.125 21.3125 9.0625 
Q 24.515625 -2 31 -13.1875 
L 23.1875 -13.1875 
Q 15.875 -1.703125 12.234375 9.375 
Q 8.59375 20.453125 8.59375 31.390625 
Q 8.59375 42.28125 12.203125 53.3125 
Q 15.828125 64.359375 23.1875 75.875 
z
" id="DejaVuSans-40"/>
      <path d="M 51.125 44 
L 36.921875 44 
L 32.8125 27.6875 
L 47.125 27.6875 
z
M 43.796875 71.78125 
L 38.71875 51.515625 
L 52.984375 51.515625 
L 58.109375 71.78125 
L 65.921875 71.78125 
L 60.890625 51.515625 
L 76.125 51.515625 
L 76.125 44 
L 58.984375 44 
L 54.984375 27.6875 
L 70.515625 27.6875 
L 70.515625 20.21875 
L 53.078125 20.21875 
L 48 0 
L 40.1875 0 
L 45.21875 20.21875 
L 30.90625 20.21875 
L 25.875 0 
L 18.015625 0 
L 23.09375 20.21875 
L 7.71875 20.21875 
L 7.71875 27.6875 
L 24.90625 27.6875 
L 29 44 
L 13.28125 44 
L 13.28125 51.515625 
L 30.90625 51.515625 
L 35.890625 71.78125 
z
" id="DejaVuSans-35"/>
      <path id="DejaVuSans-32"/>
      <path d="M 37.109375 75.984375 
L 37.109375 68.5 
L 28.515625 68.5 
Q 23.6875 68.5 21.796875 66.546875 
Q 19.921875 64.59375 19.921875 59.515625 
L 19.921875 54.6875 
L 34.71875 54.6875 
L 34.71875 47.703125 
L 19.921875 47.703125 
L 19.921875 0 
L 10.890625 0 
L 10.890625 47.703125 
L 2.296875 47.703125 
L 2.296875 54.6875 
L 10.890625 54.6875 
L 10.890625 58.5 
Q 10.890625 67.625 15.140625 71.796875 
Q 19.390625 75.984375 28.609375 75.984375 
z
" id="DejaVuSans-102"/>
      <path d="M 4.890625 31.390625 
L 31.203125 31.390625 
L 31.203125 23.390625 
L 4.890625 23.390625 
z
" id="DejaVuSans-45"/>
      <path d="M 56.203125 29.59375 
L 56.203125 25.203125 
L 14.890625 25.203125 
Q 15.484375 15.921875 20.484375 11.0625 
Q 25.484375 6.203125 34.421875 6.203125 
Q 39.59375 6.203125 44.453125 7.46875 
Q 49.3125 8.734375 54.109375 11.28125 
L 54.109375 2.78125 
Q 49.265625 0.734375 44.1875 -0.34375 
Q 39.109375 -1.421875 33.890625 -1.421875 
Q 20.796875 -1.421875 13.15625 6.1875 
Q 5.515625 13.8125 5.515625 26.8125 
Q 5.515625 40.234375 12.765625 48.109375 
Q 20.015625 56 32.328125 56 
Q 43.359375 56 49.78125 48.890625 
Q 56.203125 41.796875 56.203125 29.59375 
z
M 47.21875 32.234375 
Q 47.125 39.59375 43.09375 43.984375 
Q 39.0625 48.390625 32.421875 48.390625 
Q 24.90625 48.390625 20.390625 44.140625 
Q 15.875 39.890625 15.1875 32.171875 
z
" id="DejaVuSans-101"/>
      <path d="M 2.984375 54.6875 
L 12.5 54.6875 
L 29.59375 8.796875 
L 46.6875 54.6875 
L 56.203125 54.6875 
L 35.6875 0 
L 23.484375 0 
z
" id="DejaVuSans-118"/>
      <path d="M 34.28125 27.484375 
Q 23.390625 27.484375 19.1875 25 
Q 14.984375 22.515625 14.984375 16.5 
Q 14.984375 11.71875 18.140625 8.90625 
Q 21.296875 6.109375 26.703125 6.109375 
Q 34.1875 6.109375 38.703125 11.40625 
Q 43.21875 16.703125 43.21875 25.484375 
L 43.21875 27.484375 
z
M 52.203125 31.203125 
L 52.203125 0 
L 43.21875 0 
L 43.21875 8.296875 
Q 40.140625 3.328125 35.546875 0.953125 
Q 30.953125 -1.421875 24.3125 -1.421875 
Q 15.921875 -1.421875 10.953125 3.296875 
Q 6 8.015625 6 15.921875 
Q 6 25.140625 12.171875 29.828125 
Q 18.359375 34.515625 30.609375 34.515625 
L 43.21875 34.515625 
L 43.21875 35.40625 
Q 43.21875 41.609375 39.140625 45 
Q 35.0625 48.390625 27.6875 48.390625 
Q 23 48.390625 18.546875 47.265625 
Q 14.109375 46.140625 10.015625 43.890625 
L 10.015625 52.203125 
Q 14.9375 54.109375 19.578125 55.046875 
Q 24.21875 56 28.609375 56 
Q 40.484375 56 46.34375 49.84375 
Q 52.203125 43.703125 52.203125 31.203125 
z
" id="DejaVuSans-97"/>
      <path d="M 44.28125 53.078125 
L 44.28125 44.578125 
Q 40.484375 46.53125 36.375 47.5 
Q 32.28125 48.484375 27.875 48.484375 
Q 21.1875 48.484375 17.84375 46.4375 
Q 14.5 44.390625 14.5 40.28125 
Q 14.5 37.15625 16.890625 35.375 
Q 19.28125 33.59375 26.515625 31.984375 
L 29.59375 31.296875 
Q 39.15625 29.25 43.1875 25.515625 
Q 47.21875 21.78125 47.21875 15.09375 
Q 47.21875 7.46875 41.1875 3.015625 
Q 35.15625 -1.421875 24.609375 -1.421875 
Q 20.21875 -1.421875 15.453125 -0.5625 
Q 10.6875 0.296875 5.421875 2 
L 5.421875 11.28125 
Q 10.40625 8.6875 15.234375 7.390625 
Q 20.0625 6.109375 24.8125 6.109375 
Q 31.15625 6.109375 34.5625 8.28125 
Q 37.984375 10.453125 37.984375 14.40625 
Q 37.984375 18.0625 35.515625 20.015625 
Q 33.0625 21.96875 24.703125 23.78125 
L 21.578125 24.515625 
Q 13.234375 26.265625 9.515625 29.90625 
Q 5.8125 33.546875 5.8125 39.890625 
Q 5.8125 47.609375 11.28125 51.796875 
Q 16.75 56 26.8125 56 
Q 31.78125 56 36.171875 55.265625 
Q 40.578125 54.546875 44.28125 53.078125 
z
" id="DejaVuSans-115"/>
      <path d="M 25.390625 72.90625 
L 33.6875 72.90625 
L 8.296875 -9.28125 
L 0 -9.28125 
z
" id="DejaVuSans-47"/>
      <path d="M 45.40625 46.390625 
L 45.40625 75.984375 
L 54.390625 75.984375 
L 54.390625 0 
L 45.40625 0 
L 45.40625 8.203125 
Q 42.578125 3.328125 38.25 0.953125 
Q 33.9375 -1.421875 27.875 -1.421875 
Q 17.96875 -1.421875 11.734375 6.484375 
Q 5.515625 14.40625 5.515625 27.296875 
Q 5.515625 40.1875 11.734375 48.09375 
Q 17.96875 56 27.875 56 
Q 33.9375 56 38.25 53.625 
Q 42.578125 51.265625 45.40625 46.390625 
z
M 14.796875 27.296875 
Q 14.796875 17.390625 18.875 11.75 
Q 22.953125 6.109375 30.078125 6.109375 
Q 37.203125 6.109375 41.296875 11.75 
Q 45.40625 17.390625 45.40625 27.296875 
Q 45.40625 37.203125 41.296875 42.84375 
Q 37.203125 48.484375 30.078125 48.484375 
Q 22.953125 48.484375 18.875 42.84375 
Q 14.796875 37.203125 14.796875 27.296875 
z
" id="DejaVuSans-100"/>
      <path d="M 9.421875 54.6875 
L 18.40625 54.6875 
L 18.40625 0 
L 9.421875 0 
z
M 9.421875 75.984375 
L 18.40625 75.984375 
L 18.40625 64.59375 
L 9.421875 64.59375 
z
" id="DejaVuSans-105"/>
      <path d="M 52 44.1875 
Q 55.375 50.25 60.0625 53.125 
Q 64.75 56 71.09375 56 
Q 79.640625 56 84.28125 50.015625 
Q 88.921875 44.046875 88.921875 33.015625 
L 88.921875 0 
L 79.890625 0 
L 79.890625 32.71875 
Q 79.890625 40.578125 77.09375 44.375 
Q 74.3125 48.1875 68.609375 48.1875 
Q 61.625 48.1875 57.5625 43.546875 
Q 53.515625 38.921875 53.515625 30.90625 
L 53.515625 0 
L 44.484375 0 
L 44.484375 32.71875 
Q 44.484375 40.625 41.703125 44.40625 
Q 38.921875 48.1875 33.109375 48.1875 
Q 26.21875 48.1875 22.15625 43.53125 
Q 18.109375 38.875 18.109375 30.90625 
L 18.109375 0 
L 9.078125 0 
L 9.078125 54.6875 
L 18.109375 54.6875 
L 18.109375 46.1875 
Q 21.1875 51.21875 25.484375 53.609375 
Q 29.78125 56 35.6875 56 
Q 41.65625 56 45.828125 52.96875 
Q 50 49.953125 52 44.1875 
z
" id="DejaVuSans-109"/>
      <path d="M 54.890625 33.015625 
L 54.890625 0 
L 45.90625 0 
L 45.90625 32.71875 
Q 45.90625 40.484375 42.875 44.328125 
Q 39.84375 48.1875 33.796875 48.1875 
Q 26.515625 48.1875 22.3125 43.546875 
Q 18.109375 38.921875 18.109375 30.90625 
L 18.109375 0 
L 9.078125 0 
L 9.078125 54.6875 
L 18.109375 54.6875 
L 18.109375 46.1875 
Q 21.34375 51.125 25.703125 53.5625 
Q 30.078125 56 35.796875 56 
Q 45.21875 56 50.046875 50.171875 
Q 54.890625 44.34375 54.890625 33.015625 
z
" id="DejaVuSans-110"/>
      <path d="M 8.015625 75.875 
L 15.828125 75.875 
Q 23.140625 64.359375 26.78125 53.3125 
Q 30.421875 42.28125 30.421875 31.390625 
Q 30.421875 20.453125 26.78125 9.375 
Q 23.140625 -1.703125 15.828125 -13.1875 
L 8.015625 -13.1875 
Q 14.5 -2 17.703125 9.0625 
Q 20.90625 20.125 20.90625 31.390625 
Q 20.90625 42.671875 17.703125 53.65625 
Q 14.5 64.65625 8.015625 75.875 
z
" id="DejaVuSans-41"/>
     </defs>
     <g transform="translate(77.303219 342.217594)scale(0.17 -0.17)">
      <use xlink:href="#DejaVuSans-108"/>
      <use x="27.783203" xlink:href="#DejaVuSans-111"/>
      <use x="88.964844" xlink:href="#DejaVuSans-103"/>
      <use x="152.441406" xlink:href="#DejaVuSans-49"/>
      <use x="216.064453" xlink:href="#DejaVuSans-48"/>
      <use x="279.6875" xlink:href="#DejaVuSans-40"/>
      <use x="318.701172" xlink:href="#DejaVuSans-35"/>
      <use x="402.490234" xlink:href="#DejaVuSans-32"/>
      <use x="434.277344" xlink:href="#DejaVuSans-102"/>
      <use x="469.404297" xlink:href="#DejaVuSans-45"/>
      <use x="505.488281" xlink:href="#DejaVuSans-101"/>
      <use x="567.011719" xlink:href="#DejaVuSans-118"/>
      <use x="626.191406" xlink:href="#DejaVuSans-97"/>
      <use x="687.470703" xlink:href="#DejaVuSans-108"/>
      <use x="715.253906" xlink:href="#DejaVuSans-115"/>
      <use x="767.353516" xlink:href="#DejaVuSans-32"/>
      <use x="799.140625" xlink:href="#DejaVuSans-47"/>
      <use x="832.832031" xlink:href="#DejaVuSans-32"/>
      <use x="864.619141" xlink:href="#DejaVuSans-100"/>
      <use x="928.095703" xlink:href="#DejaVuSans-105"/>
      <use x="955.878906" xlink:href="#DejaVuSans-109"/>
      <use x="1053.291016" xlink:href="#DejaVuSans-101"/>
      <use x="1114.814453" xlink:href="#DejaVuSans-110"/>
      <use x="1178.193359" xlink:href="#DejaVuSans-115"/>
      <use x="1230.292969" xlink:href="#DejaVuSans-105"/>
      <use x="1258.076172" xlink:href="#DejaVuSans-111"/>
      <use x="1319.257812" xlink:href="#DejaVuSans-110"/>
      <use x="1382.636719" xlink:href="#DejaVuSans-41"/>
     </g>
    </g>
   </g>
   <g id="matplotlib.axis_2">
    <g id="ytick_1">
     <g id="line2d_21">
      <path clip-path="url(#p342882c82d)" d="M 57.6 298.944 
L 338.688 298.944 
" style="fill:none;stroke:#b0b0b0;stroke-linecap:square;stroke-width:0.8;"/>
     </g>
     <g id="line2d_22">
      <defs>
       <path d="M 0 0 
L -3.5 0 
" id="ma58279f49d" style="stroke:#000000;stroke-width:0.8;"/>
      </defs>
      <g>
       <use style="stroke:#000000;stroke-width:0.8;" x="57.6" xlink:href="#ma58279f49d" y="298.944"/>
      </g>
     </g>
     <g id="text_6">
      <!-- 0.0 -->
      <defs>
       <path d="M 10.6875 12.40625 
L 21 12.40625 
L 21 0 
L 10.6875 0 
z
" id="DejaVuSans-46"/>
      </defs>
      <g transform="translate(25.155 305.02275)scale(0.16 -0.16)">
       <use xlink:href="#DejaVuSans-48"/>
       <use x="63.623047" xlink:href="#DejaVuSans-46"/>
       <use x="95.410156" xlink:href="#DejaVuSans-48"/>
      </g>
     </g>
    </g>
    <g id="ytick_2">
     <g id="line2d_23">
      <path clip-path="url(#p342882c82d)" d="M 57.6 245.22202 
L 338.688 245.22202 
" style="fill:none;stroke:#b0b0b0;stroke-linecap:square;stroke-width:0.8;"/>
     </g>
     <g id="line2d_24">
      <g>
       <use style="stroke:#000000;stroke-width:0.8;" x="57.6" xlink:href="#ma58279f49d" y="245.22202"/>
      </g>
     </g>
     <g id="text_7">
      <!-- 0.2 -->
      <g transform="translate(25.155 251.30077)scale(0.16 -0.16)">
       <use xlink:href="#DejaVuSans-48"/>
       <use x="63.623047" xlink:href="#DejaVuSans-46"/>
       <use x="95.410156" xlink:href="#DejaVuSans-50"/>
      </g>
     </g>
    </g>
    <g id="ytick_3">
     <g id="line2d_25">
      <path clip-path="url(#p342882c82d)" d="M 57.6 191.50004 
L 338.688 191.50004 
" style="fill:none;stroke:#b0b0b0;stroke-linecap:square;stroke-width:0.8;"/>
     </g>
     <g id="line2d_26">
      <g>
       <use style="stroke:#000000;stroke-width:0.8;" x="57.6" xlink:href="#ma58279f49d" y="191.50004"/>
      </g>
     </g>
     <g id="text_8">
      <!-- 0.4 -->
      <g transform="translate(25.155 197.57879)scale(0.16 -0.16)">
       <use xlink:href="#DejaVuSans-48"/>
       <use x="63.623047" xlink:href="#DejaVuSans-46"/>
       <use x="95.410156" xlink:href="#DejaVuSans-52"/>
      </g>
     </g>
    </g>
    <g id="ytick_4">
     <g id="line2d_27">
      <path clip-path="url(#p342882c82d)" d="M 57.6 137.778059 
L 338.688 137.778059 
" style="fill:none;stroke:#b0b0b0;stroke-linecap:square;stroke-width:0.8;"/>
     </g>
     <g id="line2d_28">
      <g>
       <use style="stroke:#000000;stroke-width:0.8;" x="57.6" xlink:href="#ma58279f49d" y="137.778059"/>
      </g>
     </g>
     <g id="text_9">
      <!-- 0.6 -->
      <g transform="translate(25.155 143.856809)scale(0.16 -0.16)">
       <use xlink:href="#DejaVuSans-48"/>
       <use x="63.623047" xlink:href="#DejaVuSans-46"/>
       <use x="95.410156" xlink:href="#DejaVuSans-54"/>
      </g>
     </g>
    </g>
    <g id="ytick_5">
     <g id="line2d_29">
      <path clip-path="url(#p342882c82d)" d="M 57.6 84.056079 
L 338.688 84.056079 
" style="fill:none;stroke:#b0b0b0;stroke-linecap:square;stroke-width:0.8;"/>
     </g>
     <g id="line2d_30">
      <g>
       <use style="stroke:#000000;stroke-width:0.8;" x="57.6" xlink:href="#ma58279f49d" y="84.056079"/>
      </g>
     </g>
     <g id="text_10">
      <!-- 0.8 -->
      <defs>
       <path d="M 31.78125 34.625 
Q 24.75 34.625 20.71875 30.859375 
Q 16.703125 27.09375 16.703125 20.515625 
Q 16.703125 13.921875 20.71875 10.15625 
Q 24.75 6.390625 31.78125 6.390625 
Q 38.8125 6.390625 42.859375 10.171875 
Q 46.921875 13.96875 46.921875 20.515625 
Q 46.921875 27.09375 42.890625 30.859375 
Q 38.875 34.625 31.78125 34.625 
z
M 21.921875 38.8125 
Q 15.578125 40.375 12.03125 44.71875 
Q 8.5 49.078125 8.5 55.328125 
Q 8.5 64.0625 14.71875 69.140625 
Q 20.953125 74.21875 31.78125 74.21875 
Q 42.671875 74.21875 48.875 69.140625 
Q 55.078125 64.0625 55.078125 55.328125 
Q 55.078125 49.078125 51.53125 44.71875 
Q 48 40.375 41.703125 38.8125 
Q 48.828125 37.15625 52.796875 32.3125 
Q 56.78125 27.484375 56.78125 20.515625 
Q 56.78125 9.90625 50.3125 4.234375 
Q 43.84375 -1.421875 31.78125 -1.421875 
Q 19.734375 -1.421875 13.25 4.234375 
Q 6.78125 9.90625 6.78125 20.515625 
Q 6.78125 27.484375 10.78125 32.3125 
Q 14.796875 37.15625 21.921875 38.8125 
z
M 18.3125 54.390625 
Q 18.3125 48.734375 21.84375 45.5625 
Q 25.390625 42.390625 31.78125 42.390625 
Q 38.140625 42.390625 41.71875 45.5625 
Q 45.3125 48.734375 45.3125 54.390625 
Q 45.3125 60.0625 41.71875 63.234375 
Q 38.140625 66.40625 31.78125 66.40625 
Q 25.390625 66.40625 21.84375 63.234375 
Q 18.3125 60.0625 18.3125 54.390625 
z
" id="DejaVuSans-56"/>
      </defs>
      <g transform="translate(25.155 90.134829)scale(0.16 -0.16)">
       <use xlink:href="#DejaVuSans-48"/>
       <use x="63.623047" xlink:href="#DejaVuSans-46"/>
       <use x="95.410156" xlink:href="#DejaVuSans-56"/>
      </g>
     </g>
    </g>
    <g id="ytick_6">
     <g id="line2d_31">
      <path clip-path="url(#p342882c82d)" d="M 57.6 30.334099 
L 338.688 30.334099 
" style="fill:none;stroke:#b0b0b0;stroke-linecap:square;stroke-width:0.8;"/>
     </g>
     <g id="line2d_32">
      <g>
       <use style="stroke:#000000;stroke-width:0.8;" x="57.6" xlink:href="#ma58279f49d" y="30.334099"/>
      </g>
     </g>
     <g id="text_11">
      <!-- 1.0 -->
      <g transform="translate(25.155 36.412849)scale(0.16 -0.16)">
       <use xlink:href="#DejaVuSans-49"/>
       <use x="63.623047" xlink:href="#DejaVuSans-46"/>
       <use x="95.410156" xlink:href="#DejaVuSans-48"/>
      </g>
     </g>
    </g>
    <g id="text_12">
     <!-- Fraction of function,target pairs -->
     <defs>
      <path d="M 9.8125 72.90625 
L 51.703125 72.90625 
L 51.703125 64.59375 
L 19.671875 64.59375 
L 19.671875 43.109375 
L 48.578125 43.109375 
L 48.578125 34.8125 
L 19.671875 34.8125 
L 19.671875 0 
L 9.8125 0 
z
" id="DejaVuSans-70"/>
      <path d="M 41.109375 46.296875 
Q 39.59375 47.171875 37.8125 47.578125 
Q 36.03125 48 33.890625 48 
Q 26.265625 48 22.1875 43.046875 
Q 18.109375 38.09375 18.109375 28.8125 
L 18.109375 0 
L 9.078125 0 
L 9.078125 54.6875 
L 18.109375 54.6875 
L 18.109375 46.1875 
Q 20.953125 51.171875 25.484375 53.578125 
Q 30.03125 56 36.53125 56 
Q 37.453125 56 38.578125 55.875 
Q 39.703125 55.765625 41.0625 55.515625 
z
" id="DejaVuSans-114"/>
      <path d="M 48.78125 52.59375 
L 48.78125 44.1875 
Q 44.96875 46.296875 41.140625 47.34375 
Q 37.3125 48.390625 33.40625 48.390625 
Q 24.65625 48.390625 19.8125 42.84375 
Q 14.984375 37.3125 14.984375 27.296875 
Q 14.984375 17.28125 19.8125 11.734375 
Q 24.65625 6.203125 33.40625 6.203125 
Q 37.3125 6.203125 41.140625 7.25 
Q 44.96875 8.296875 48.78125 10.40625 
L 48.78125 2.09375 
Q 45.015625 0.34375 40.984375 -0.53125 
Q 36.96875 -1.421875 32.421875 -1.421875 
Q 20.0625 -1.421875 12.78125 6.34375 
Q 5.515625 14.109375 5.515625 27.296875 
Q 5.515625 40.671875 12.859375 48.328125 
Q 20.21875 56 33.015625 56 
Q 37.15625 56 41.109375 55.140625 
Q 45.0625 54.296875 48.78125 52.59375 
z
" id="DejaVuSans-99"/>
      <path d="M 18.3125 70.21875 
L 18.3125 54.6875 
L 36.8125 54.6875 
L 36.8125 47.703125 
L 18.3125 47.703125 
L 18.3125 18.015625 
Q 18.3125 11.328125 20.140625 9.421875 
Q 21.96875 7.515625 27.59375 7.515625 
L 36.8125 7.515625 
L 36.8125 0 
L 27.59375 0 
Q 17.1875 0 13.234375 3.875 
Q 9.28125 7.765625 9.28125 18.015625 
L 9.28125 47.703125 
L 2.6875 47.703125 
L 2.6875 54.6875 
L 9.28125 54.6875 
L 9.28125 70.21875 
z
" id="DejaVuSans-116"/>
      <path d="M 8.5 21.578125 
L 8.5 54.6875 
L 17.484375 54.6875 
L 17.484375 21.921875 
Q 17.484375 14.15625 20.5 10.265625 
Q 23.53125 6.390625 29.59375 6.390625 
Q 36.859375 6.390625 41.078125 11.03125 
Q 45.3125 15.671875 45.3125 23.6875 
L 45.3125 54.6875 
L 54.296875 54.6875 
L 54.296875 0 
L 45.3125 0 
L 45.3125 8.40625 
Q 42.046875 3.421875 37.71875 1 
Q 33.40625 -1.421875 27.6875 -1.421875 
Q 18.265625 -1.421875 13.375 4.4375 
Q 8.5 10.296875 8.5 21.578125 
z
M 31.109375 56 
z
" id="DejaVuSans-117"/>
      <path d="M 11.71875 12.40625 
L 22.015625 12.40625 
L 22.015625 4 
L 14.015625 -11.625 
L 7.71875 -11.625 
L 11.71875 4 
z
" id="DejaVuSans-44"/>
      <path d="M 18.109375 8.203125 
L 18.109375 -20.796875 
L 9.078125 -20.796875 
L 9.078125 54.6875 
L 18.109375 54.6875 
L 18.109375 46.390625 
Q 20.953125 51.265625 25.265625 53.625 
Q 29.59375 56 35.59375 56 
Q 45.5625 56 51.78125 48.09375 
Q 58.015625 40.1875 58.015625 27.296875 
Q 58.015625 14.40625 51.78125 6.484375 
Q 45.5625 -1.421875 35.59375 -1.421875 
Q 29.59375 -1.421875 25.265625 0.953125 
Q 20.953125 3.328125 18.109375 8.203125 
z
M 48.6875 27.296875 
Q 48.6875 37.203125 44.609375 42.84375 
Q 40.53125 48.484375 33.40625 48.484375 
Q 26.265625 48.484375 22.1875 42.84375 
Q 18.109375 37.203125 18.109375 27.296875 
Q 18.109375 17.390625 22.1875 11.75 
Q 26.265625 6.109375 33.40625 6.109375 
Q 40.53125 6.109375 44.609375 11.75 
Q 48.6875 17.390625 48.6875 27.296875 
z
" id="DejaVuSans-112"/>
     </defs>
     <g transform="translate(17.619531 298.435375)rotate(-90)scale(0.17 -0.17)">
      <use xlink:href="#DejaVuSans-70"/>
      <use x="57.410156" xlink:href="#DejaVuSans-114"/>
      <use x="98.523438" xlink:href="#DejaVuSans-97"/>
      <use x="159.802734" xlink:href="#DejaVuSans-99"/>
      <use x="214.783203" xlink:href="#DejaVuSans-116"/>
      <use x="253.992188" xlink:href="#DejaVuSans-105"/>
      <use x="281.775391" xlink:href="#DejaVuSans-111"/>
      <use x="342.957031" xlink:href="#DejaVuSans-110"/>
      <use x="406.335938" xlink:href="#DejaVuSans-32"/>
      <use x="438.123047" xlink:href="#DejaVuSans-111"/>
      <use x="499.304688" xlink:href="#DejaVuSans-102"/>
      <use x="534.509766" xlink:href="#DejaVuSans-32"/>
      <use x="566.296875" xlink:href="#DejaVuSans-102"/>
      <use x="601.501953" xlink:href="#DejaVuSans-117"/>
      <use x="664.880859" xlink:href="#DejaVuSans-110"/>
      <use x="728.259766" xlink:href="#DejaVuSans-99"/>
      <use x="783.240234" xlink:href="#DejaVuSans-116"/>
      <use x="822.449219" xlink:href="#DejaVuSans-105"/>
      <use x="850.232422" xlink:href="#DejaVuSans-111"/>
      <use x="911.414062" xlink:href="#DejaVuSans-110"/>
      <use x="974.792969" xlink:href="#DejaVuSans-44"/>
      <use x="1006.580078" xlink:href="#DejaVuSans-116"/>
      <use x="1045.789062" xlink:href="#DejaVuSans-97"/>
      <use x="1107.068359" xlink:href="#DejaVuSans-114"/>
      <use x="1148.166016" xlink:href="#DejaVuSans-103"/>
      <use x="1211.642578" xlink:href="#DejaVuSans-101"/>
      <use x="1273.166016" xlink:href="#DejaVuSans-116"/>
      <use x="1312.375" xlink:href="#DejaVuSans-32"/>
      <use x="1344.162109" xlink:href="#DejaVuSans-112"/>
      <use x="1407.638672" xlink:href="#DejaVuSans-97"/>
      <use x="1468.917969" xlink:href="#DejaVuSans-105"/>
      <use x="1496.701172" xlink:href="#DejaVuSans-114"/>
      <use x="1537.814453" xlink:href="#DejaVuSans-115"/>
     </g>
    </g>
   </g>
   <g id="line2d_33">
    <defs>
     <path d="M 0 1.5 
C 0.397805 1.5 0.77937 1.341951 1.06066 1.06066 
C 1.341951 0.77937 1.5 0.397805 1.5 0 
C 1.5 -0.397805 1.341951 -0.77937 1.06066 -1.06066 
C 0.77937 -1.341951 0.397805 -1.5 0 -1.5 
C -0.397805 -1.5 -0.77937 -1.341951 -1.06066 -1.06066 
C -1.341951 -0.77937 -1.5 -0.397805 -1.5 0 
C -1.5 0.397805 -1.341951 0.77937 -1.06066 1.06066 
C -0.77937 1.341951 -0.397805 1.5 0 1.5 
z
" id="mc84ac30285" style="stroke:#f5deb3;"/>
    </defs>
    <g>
     <use style="fill:#f5deb3;stroke:#f5deb3;" x="157.226117" xlink:href="#mc84ac30285" y="30.334099"/>
     <use style="fill:#f5deb3;stroke:#f5deb3;" x="157.226117" xlink:href="#mc84ac30285" y="30.334099"/>
    </g>
   </g>
   <g id="line2d_34">
    <defs>
     <path d="M 0 1.5 
C 0.397805 1.5 0.77937 1.341951 1.06066 1.06066 
C 1.341951 0.77937 1.5 0.397805 1.5 0 
C 1.5 -0.397805 1.341951 -0.77937 1.06066 -1.06066 
C 0.77937 -1.341951 0.397805 -1.5 0 -1.5 
C -0.397805 -1.5 -0.77937 -1.341951 -1.06066 -1.06066 
C -1.341951 -0.77937 -1.5 -0.397805 -1.5 0 
C -1.5 0.397805 -1.341951 0.77937 -1.06066 1.06066 
C -0.77937 1.341951 -0.397805 1.5 0 1.5 
z
" id="ma76399f094" style="stroke:#000080;"/>
    </defs>
    <g>
     <use style="fill:#000080;stroke:#000080;" x="200.244743" xlink:href="#ma76399f094" y="30.334099"/>
     <use style="fill:#000080;stroke:#000080;" x="200.244743" xlink:href="#ma76399f094" y="30.334099"/>
    </g>
   </g>
   <g id="line2d_35">
    <path d="M 118.655668 298.944 
L 118.655668 298.417314 
L 120.79427 298.417314 
L 120.79427 297.890628 
L 121.219499 297.890628 
L 121.264855 296.837256 
L 121.332668 296.837256 
L 121.332668 296.31057 
L 121.612419 296.31057 
L 121.612419 295.783884 
L 122.244662 295.783884 
L 122.244662 295.257197 
L 122.594413 295.257197 
L 122.594413 294.730511 
L 123.141856 294.730511 
L 123.141856 294.203825 
L 123.45427 294.203825 
L 123.494177 293.150453 
L 123.682497 293.150453 
L 123.682497 292.623767 
L 124.024168 292.623767 
L 124.082074 291.570395 
L 124.863982 291.570395 
L 124.863982 291.043709 
L 125.506102 291.043709 
L 125.506102 290.517023 
L 126.202373 290.517023 
L 126.202373 289.990337 
L 128.130839 289.990337 
L 128.176611 288.936964 
L 128.598125 288.936964 
L 128.598125 288.410278 
L 128.871138 288.410278 
L 128.871138 287.883592 
L 129.362011 287.883592 
L 129.440135 286.83022 
L 130.378179 286.83022 
L 130.378179 286.303534 
L 133.733678 286.303534 
L 133.733678 285.776848 
L 137.455913 285.776848 
L 137.455913 285.250162 
L 143.253924 285.250162 
L 143.253924 284.723476 
L 144.80367 284.723476 
L 144.80367 284.19679 
L 145.005114 284.19679 
L 145.005114 283.670104 
L 157.720277 283.670104 
L 157.720277 283.143418 
L 162.112973 283.143418 
L 162.112973 282.616732 
L 163.309483 282.616732 
L 163.309483 282.090045 
L 163.639638 282.090045 
L 163.639638 281.563359 
L 165.515296 281.563359 
L 165.515296 281.036673 
L 166.558002 281.036673 
L 166.558002 280.509987 
L 166.718363 280.509987 
L 166.718363 279.983301 
L 167.004334 279.983301 
L 167.004334 279.456615 
L 167.987336 279.456615 
L 167.987336 278.929929 
L 170.658731 278.929929 
L 170.658731 278.403243 
L 170.863539 278.403243 
L 170.863539 277.876557 
L 171.015745 277.876557 
L 171.015745 277.349871 
L 171.35599 277.349871 
L 171.430778 276.296499 
L 171.538242 276.296499 
L 171.538242 275.769812 
L 171.731779 275.769812 
L 171.731779 275.243126 
L 171.988179 275.243126 
L 171.988179 274.71644 
L 172.184146 274.71644 
L 172.276145 273.663068 
L 172.517531 273.663068 
L 172.517531 273.136382 
L 172.667313 273.136382 
L 172.667313 272.609696 
L 172.985839 272.609696 
L 172.985839 272.08301 
L 173.412888 272.08301 
L 173.412888 271.556324 
L 173.855281 271.556324 
L 173.943864 270.502952 
L 174.288894 270.502952 
L 174.336474 268.922893 
L 174.505734 268.922893 
L 174.601722 267.342835 
L 174.711458 267.342835 
L 174.808951 266.289463 
L 174.861424 266.289463 
L 174.966939 264.709405 
L 174.974229 264.709405 
L 175.08424 263.129347 
L 175.086826 263.129347 
L 175.118347 262.075974 
L 175.285335 262.075974 
L 175.365942 259.96923 
L 175.455297 259.96923 
L 175.563833 258.915858 
L 175.617599 258.915858 
L 175.6762 257.862486 
L 175.745565 257.862486 
L 175.818623 256.282427 
L 175.857265 256.282427 
L 175.933307 254.702369 
L 175.981525 254.702369 
L 175.981525 254.175683 
L 176.14876 254.175683 
L 176.245337 252.595625 
L 176.296079 252.595625 
L 176.353891 251.542253 
L 176.4187 251.542253 
L 176.502833 250.488881 
L 177.154779 250.488881 
L 177.154779 249.962195 
L 177.463036 249.962195 
L 177.463036 249.435508 
L 177.595224 249.435508 
L 177.652463 247.85545 
L 177.74197 247.85545 
L 177.823948 246.802078 
L 177.87295 246.802078 
L 177.938951 245.748706 
L 178.005141 245.748706 
L 178.08241 244.695334 
L 178.160638 244.695334 
L 178.233768 242.588589 
L 178.513063 242.588589 
L 178.594464 241.535217 
L 178.696945 241.535217 
L 178.793392 239.955159 
L 178.837246 239.955159 
L 178.930018 238.375101 
L 179.034265 238.375101 
L 179.077517 236.795043 
L 179.155512 236.795043 
L 179.155512 236.268356 
L 179.58995 236.268356 
L 179.58995 235.74167 
L 179.782642 235.74167 
L 179.87682 234.161612 
L 180.171031 234.161612 
L 180.171031 233.634926 
L 180.494912 233.634926 
L 180.494912 233.10824 
L 180.856409 233.10824 
L 180.960865 232.054868 
L 180.99149 232.054868 
L 181.038982 231.001496 
L 181.122972 231.001496 
L 181.221483 228.894751 
L 181.253107 228.894751 
L 181.275247 227.841379 
L 181.62748 227.841379 
L 181.62748 227.314693 
L 181.757093 227.314693 
L 181.856307 226.261321 
L 181.888552 226.261321 
L 181.891003 225.207949 
L 182.045075 225.207949 
L 182.146808 223.101204 
L 182.183343 223.101204 
L 182.213615 222.047832 
L 182.312323 222.047832 
L 182.402316 220.467774 
L 182.455955 220.467774 
L 182.455955 219.941088 
L 182.571833 219.941088 
L 182.679586 218.36103 
L 182.772369 218.36103 
L 182.860688 216.780971 
L 182.936695 216.780971 
L 183.020578 213.094169 
L 183.09818 213.094169 
L 183.179016 210.460738 
L 183.233563 210.460738 
L 183.286971 208.88068 
L 183.388801 208.88068 
L 183.491956 203.613819 
L 183.506324 203.613819 
L 183.60149 200.980389 
L 183.62306 200.980389 
L 183.709077 197.820273 
L 183.747521 197.820273 
L 183.853902 193.080098 
L 183.880474 193.080098 
L 183.985117 187.813237 
L 183.995671 187.813237 
L 184.100553 183.073062 
L 184.121516 183.073062 
L 184.226258 177.806202 
L 184.245235 177.806202 
L 184.322459 173.066027 
L 184.360791 173.066027 
L 184.469547 168.325852 
L 184.478907 168.325852 
L 184.586631 160.425561 
L 184.590231 160.425561 
L 184.696378 154.632014 
L 184.70204 154.632014 
L 184.810473 150.418525 
L 184.816987 150.418525 
L 184.911759 141.991548 
L 184.933239 141.991548 
L 185.041417 133.564571 
L 185.061571 133.564571 
L 185.168378 123.557535 
L 185.17447 123.557535 
L 185.284048 115.130558 
L 185.286354 115.130558 
L 185.393516 104.596836 
L 185.402106 104.596836 
L 185.509699 95.643173 
L 185.538979 95.643173 
L 185.647428 88.796254 
L 185.655329 88.796254 
L 185.724319 83.529393 
L 185.777074 83.529393 
L 185.876814 76.682474 
L 185.894356 76.682474 
L 186.003113 72.995672 
L 186.021357 72.995672 
L 186.129327 69.308869 
L 186.144971 69.308869 
L 186.25518 63.515322 
L 186.294391 63.515322 
L 186.385273 59.301833 
L 186.414741 59.301833 
L 186.495322 57.721775 
L 197.302727 57.721775 
L 197.302727 57.195089 
L 197.905781 57.195089 
L 197.95923 56.141717 
L 198.097876 56.141717 
L 198.097876 55.615031 
L 198.300726 55.615031 
L 198.376803 54.561659 
L 198.481106 54.561659 
L 198.481106 54.034973 
L 198.598361 54.034973 
L 198.598361 53.508287 
L 198.743897 53.508287 
L 198.743897 52.9816 
L 198.861389 52.9816 
L 198.903678 51.928228 
L 198.975203 51.928228 
L 199.083446 49.821484 
L 199.134321 49.821484 
L 199.221506 47.71474 
L 199.280121 47.71474 
L 199.361697 45.081309 
L 199.402919 45.081309 
L 199.509186 42.447879 
L 199.534283 42.447879 
L 199.632793 40.341135 
L 199.645826 40.341135 
L 199.728358 37.707704 
L 199.811377 37.707704 
L 199.8443 36.127646 
L 199.941203 36.127646 
L 200.031633 34.020902 
L 200.06229 34.020902 
L 200.167326 31.387471 
L 200.216119 31.387471 
L 200.244743 30.334099 
L 338.688 30.334099 
L 338.688 30.334099 
" style="fill:none;stroke:#000080;stroke-linecap:square;stroke-width:1.5;"/>
   </g>
   <g id="line2d_36">
    <defs>
     <path d="M 0 6 
C 1.591219 6 3.117479 5.367802 4.242641 4.242641 
C 5.367802 3.117479 6 1.591219 6 0 
C 6 -1.591219 5.367802 -3.117479 4.242641 -4.242641 
C 3.117479 -5.367802 1.591219 -6 0 -6 
C -1.591219 -6 -3.117479 -5.367802 -4.242641 -4.242641 
C -5.367802 -3.117479 -6 -1.591219 -6 0 
C -6 1.591219 -5.367802 3.117479 -4.242641 4.242641 
C -3.117479 5.367802 -1.591219 6 0 6 
z
" id="m3815712578" style="stroke:#000080;stroke-width:1.5;"/>
    </defs>
    <g>
     <use style="fill-opacity:0;stroke:#000080;stroke-width:1.5;" x="183.388801" xlink:href="#m3815712578" y="208.353994"/>
     <use style="fill-opacity:0;stroke:#000080;stroke-width:1.5;" x="198.097876" xlink:href="#m3815712578" y="55.615031"/>
     <use style="fill-opacity:0;stroke:#000080;stroke-width:1.5;" x="200.244743" xlink:href="#m3815712578" y="30.860785"/>
     <use style="fill-opacity:0;stroke:#000080;stroke-width:1.5;" x="200.244743" xlink:href="#m3815712578" y="30.334099"/>
     <use style="fill-opacity:0;stroke:#000080;stroke-width:1.5;" x="338.688" xlink:href="#m3815712578" y="30.334099"/>
    </g>
   </g>
   <g id="line2d_37">
    <path style="fill:none;stroke:#000080;stroke-linecap:square;stroke-width:1.5;"/>
    <g/>
   </g>
   <g id="line2d_38">
    <g>
     <use style="fill:#000080;stroke:#000080;" x="200.225543" xlink:href="#ma76399f094" y="30.334099"/>
     <use style="fill:#000080;stroke:#000080;" x="200.225543" xlink:href="#ma76399f094" y="30.334099"/>
    </g>
   </g>
   <g id="line2d_39">
    <path d="M 117.654224 298.944 
L 117.654224 298.417314 
L 120.441712 298.417314 
L 120.453579 297.363942 
L 120.677541 297.363942 
L 120.677541 296.837256 
L 121.02541 296.837256 
L 121.02541 296.31057 
L 122.029227 296.31057 
L 122.072527 295.257197 
L 123.313873 295.257197 
L 123.313873 294.730511 
L 123.829748 294.730511 
L 123.829748 294.203825 
L 124.330801 294.203825 
L 124.330801 293.677139 
L 124.557288 293.677139 
L 124.650796 292.623767 
L 124.799375 292.623767 
L 124.799375 292.097081 
L 124.965026 292.097081 
L 124.965026 291.570395 
L 125.576994 291.570395 
L 125.665205 290.517023 
L 125.97912 290.517023 
L 125.97912 289.990337 
L 126.937471 289.990337 
L 127.043485 288.936964 
L 127.165014 288.936964 
L 127.165014 288.410278 
L 127.397595 288.410278 
L 127.397595 287.883592 
L 127.830353 287.883592 
L 127.830353 287.356906 
L 128.305651 287.356906 
L 128.305651 286.83022 
L 129.139943 286.83022 
L 129.139943 286.303534 
L 129.88095 286.303534 
L 129.88095 285.776848 
L 131.204405 285.776848 
L 131.204405 285.250162 
L 131.433454 285.250162 
L 131.433454 284.723476 
L 134.423411 284.723476 
L 134.423411 284.19679 
L 135.452133 284.19679 
L 135.452133 283.670104 
L 139.844356 283.670104 
L 139.844356 283.143418 
L 161.272444 283.143418 
L 161.272444 282.616732 
L 161.66207 282.616732 
L 161.66207 282.090045 
L 162.223631 282.090045 
L 162.223631 281.563359 
L 162.915887 281.563359 
L 162.915887 281.036673 
L 163.046356 281.036673 
L 163.046356 280.509987 
L 164.121498 280.509987 
L 164.121498 279.983301 
L 165.320804 279.983301 
L 165.320804 279.456615 
L 165.533195 279.456615 
L 165.533195 278.929929 
L 166.754262 278.929929 
L 166.754262 278.403243 
L 170.369661 278.403243 
L 170.369661 277.876557 
L 171.89775 277.876557 
L 171.89775 277.349871 
L 172.671471 277.349871 
L 172.769805 276.296499 
L 173.37242 276.296499 
L 173.37242 275.769812 
L 173.785761 275.769812 
L 173.874143 274.71644 
L 173.910698 274.71644 
L 173.910698 274.189754 
L 174.108208 274.189754 
L 174.108208 273.663068 
L 174.319187 273.663068 
L 174.319187 273.136382 
L 175.21103 273.136382 
L 175.21103 272.609696 
L 176.327899 272.609696 
L 176.417742 271.556324 
L 176.970518 271.556324 
L 176.970518 271.029638 
L 177.613131 271.029638 
L 177.72286 268.922893 
L 178.277327 268.922893 
L 178.277327 268.396207 
L 178.673381 268.396207 
L 178.699468 267.342835 
L 179.142401 267.342835 
L 179.142401 266.816149 
L 179.355468 266.816149 
L 179.418924 265.236091 
L 179.837477 265.236091 
L 179.909016 264.182719 
L 180.067552 264.182719 
L 180.067552 263.656033 
L 180.322618 263.656033 
L 180.322618 263.129347 
L 180.583821 263.129347 
L 180.601926 262.075974 
L 180.700042 262.075974 
L 180.764401 261.022602 
L 180.954586 261.022602 
L 181.038615 258.915858 
L 181.326675 258.915858 
L 181.399213 256.282427 
L 181.494031 256.282427 
L 181.550533 255.229055 
L 181.613256 255.229055 
L 181.709751 253.648997 
L 181.770143 253.648997 
L 181.770143 253.122311 
L 181.920389 253.122311 
L 182.021808 251.542253 
L 182.031882 251.542253 
L 182.125404 249.435508 
L 182.173011 249.435508 
L 182.259954 248.382136 
L 182.291462 248.382136 
L 182.369985 246.802078 
L 182.451547 246.802078 
L 182.526992 245.22202 
L 182.599086 245.22202 
L 182.647765 243.115275 
L 182.726373 243.115275 
L 182.809279 240.481845 
L 182.868966 240.481845 
L 182.964701 236.795043 
L 182.98806 236.795043 
L 183.090991 234.688298 
L 183.106999 234.688298 
L 183.213453 231.528182 
L 183.235832 231.528182 
L 183.336994 229.421437 
L 183.358894 229.421437 
L 183.466705 223.101204 
L 183.479495 223.101204 
L 183.590059 218.36103 
L 183.599268 218.36103 
L 183.709393 215.200913 
L 183.71097 215.200913 
L 183.799694 209.934052 
L 183.833241 209.934052 
L 183.936611 205.193878 
L 183.949372 205.193878 
L 184.057934 199.927017 
L 184.068753 199.927017 
L 184.178726 191.50004 
L 184.185173 191.50004 
L 184.282821 183.073062 
L 184.32185 183.073062 
L 184.410861 174.646085 
L 184.43569 174.646085 
L 184.543681 163.058991 
L 184.554203 163.058991 
L 184.655192 153.578642 
L 184.671319 153.578642 
L 184.776085 141.991548 
L 184.787061 141.991548 
L 184.891431 131.457826 
L 184.898799 131.457826 
L 185.008361 119.870733 
L 185.018606 119.870733 
L 185.129165 107.756953 
L 185.130329 107.756953 
L 185.235849 96.169859 
L 185.24654 96.169859 
L 185.355668 85.109451 
L 185.36399 85.109451 
L 185.472103 75.102416 
L 185.475809 75.102416 
L 185.564524 67.202125 
L 185.596544 67.202125 
L 185.694786 60.355206 
L 185.717854 60.355206 
L 185.826317 52.454914 
L 185.836093 52.454914 
L 185.903538 49.821484 
L 185.95409 49.821484 
L 185.993983 48.768112 
L 186.070743 48.768112 
L 186.173479 46.661368 
L 186.292487 46.661368 
L 186.351688 45.081309 
L 186.41258 45.081309 
L 186.468683 43.501251 
L 197.980953 43.501251 
L 197.980953 42.974565 
L 198.554651 42.974565 
L 198.554651 42.447879 
L 198.981906 42.447879 
L 198.981906 41.921193 
L 199.297034 41.921193 
L 199.358225 40.867821 
L 199.47473 40.867821 
L 199.47473 40.341135 
L 199.590588 40.341135 
L 199.621396 39.287762 
L 199.717905 39.287762 
L 199.771989 37.707704 
L 199.857301 37.707704 
L 199.918678 35.074274 
L 200.002905 35.074274 
L 200.104356 32.440843 
L 200.124305 32.440843 
L 200.225543 30.334099 
L 338.688 30.334099 
L 338.688 30.334099 
" style="fill:none;stroke:#000080;stroke-linecap:square;stroke-width:1.5;"/>
   </g>
   <g id="line2d_40">
    <g>
     <use style="fill-opacity:0;stroke:#000080;stroke-width:1.5;" x="184.500626" xlink:href="#m3815712578" y="166.745794"/>
     <use style="fill-opacity:0;stroke:#000080;stroke-width:1.5;" x="200.225543" xlink:href="#m3815712578" y="30.860785"/>
     <use style="fill-opacity:0;stroke:#000080;stroke-width:1.5;" x="200.225543" xlink:href="#m3815712578" y="30.334099"/>
     <use style="fill-opacity:0;stroke:#000080;stroke-width:1.5;" x="200.225543" xlink:href="#m3815712578" y="30.334099"/>
     <use style="fill-opacity:0;stroke:#000080;stroke-width:1.5;" x="338.688" xlink:href="#m3815712578" y="30.334099"/>
    </g>
   </g>
   <g id="line2d_41">
    <path style="fill:none;stroke:#000080;stroke-linecap:square;stroke-width:1.5;"/>
    <g/>
   </g>
   <g id="line2d_42">
    <defs>
     <path d="M 0 1.5 
C 0.397805 1.5 0.77937 1.341951 1.06066 1.06066 
C 1.341951 0.77937 1.5 0.397805 1.5 0 
C 1.5 -0.397805 1.341951 -0.77937 1.06066 -1.06066 
C 0.77937 -1.341951 0.397805 -1.5 0 -1.5 
C -0.397805 -1.5 -0.77937 -1.341951 -1.06066 -1.06066 
C -1.341951 -0.77937 -1.5 -0.397805 -1.5 0 
C -1.5 0.397805 -1.341951 0.77937 -1.06066 1.06066 
C -0.77937 1.341951 -0.397805 1.5 0 1.5 
z
" id="m7b31f0139e" style="stroke:#ff00ff;"/>
    </defs>
    <g>
     <use style="fill:#ff00ff;stroke:#ff00ff;" x="195.665497" xlink:href="#m7b31f0139e" y="30.334099"/>
     <use style="fill:#ff00ff;stroke:#ff00ff;" x="195.665497" xlink:href="#m7b31f0139e" y="30.334099"/>
    </g>
   </g>
   <g id="line2d_43">
    <path d="M 132.084827 298.944 
L 132.084827 298.417314 
L 133.147807 298.417314 
L 133.147807 297.890628 
L 134.300504 297.890628 
L 134.300504 297.363942 
L 135.507265 297.363942 
L 135.507265 296.837256 
L 136.227776 296.837256 
L 136.227776 296.31057 
L 137.303093 296.31057 
L 137.303093 295.783884 
L 137.664982 295.783884 
L 137.664982 295.257197 
L 138.439035 295.257197 
L 138.439035 294.730511 
L 139.253002 294.730511 
L 139.253002 294.203825 
L 140.559227 294.203825 
L 140.559227 293.677139 
L 140.715835 293.677139 
L 140.715835 293.150453 
L 141.195459 293.150453 
L 141.217114 292.097081 
L 141.321401 292.097081 
L 141.392962 291.043709 
L 141.634094 291.043709 
L 141.634094 290.517023 
L 141.837164 290.517023 
L 141.878885 289.463651 
L 141.975847 289.463651 
L 141.975847 288.936964 
L 142.317805 288.936964 
L 142.317805 288.410278 
L 142.936543 288.410278 
L 142.936543 287.883592 
L 144.004556 287.883592 
L 144.004556 287.356906 
L 145.091978 287.356906 
L 145.091978 286.83022 
L 145.307262 286.83022 
L 145.307262 286.303534 
L 147.077217 286.303534 
L 147.092675 285.250162 
L 147.71991 285.250162 
L 147.71991 284.723476 
L 149.083663 284.723476 
L 149.083663 284.19679 
L 149.852177 284.19679 
L 149.852177 283.670104 
L 150.465584 283.670104 
L 150.465584 283.143418 
L 173.853616 283.143418 
L 173.869152 282.090045 
L 175.12609 282.090045 
L 175.12609 281.563359 
L 175.540668 281.563359 
L 175.540668 281.036673 
L 175.919012 281.036673 
L 175.964811 279.456615 
L 176.521421 279.456615 
L 176.521421 278.929929 
L 177.02614 278.929929 
L 177.02614 278.403243 
L 178.797156 278.403243 
L 178.797156 277.876557 
L 182.73705 277.876557 
L 182.756051 276.823185 
L 183.136363 276.823185 
L 183.136363 276.296499 
L 183.859219 276.296499 
L 183.903886 275.243126 
L 184.059789 275.243126 
L 184.059789 274.71644 
L 184.396006 274.71644 
L 184.396006 274.189754 
L 184.525027 274.189754 
L 184.525027 273.663068 
L 184.7336 273.663068 
L 184.7336 273.136382 
L 185.680141 273.136382 
L 185.680141 272.609696 
L 186.514133 272.609696 
L 186.54124 271.556324 
L 186.744135 271.556324 
L 186.810277 270.502952 
L 187.357464 270.502952 
L 187.357464 269.976266 
L 187.629161 269.976266 
L 187.629161 269.449579 
L 187.947727 269.449579 
L 187.953416 268.396207 
L 188.120294 268.396207 
L 188.120294 267.869521 
L 188.517707 267.869521 
L 188.517707 267.342835 
L 188.653893 267.342835 
L 188.653893 266.816149 
L 188.840105 266.816149 
L 188.840105 266.289463 
L 188.985233 266.289463 
L 188.985233 265.762777 
L 189.205518 265.762777 
L 189.205518 265.236091 
L 189.491347 265.236091 
L 189.593848 263.129347 
L 189.799951 263.129347 
L 189.908399 261.022602 
L 189.962702 261.022602 
L 189.962702 260.495916 
L 190.400385 260.495916 
L 190.459393 259.442544 
L 190.628864 259.442544 
L 190.649429 258.389172 
L 190.758843 258.389172 
L 190.831547 257.3358 
L 190.937327 257.3358 
L 191.044541 254.175683 
L 191.104509 254.175683 
L 191.210293 253.122311 
L 191.274806 253.122311 
L 191.343358 252.068939 
L 191.413264 252.068939 
L 191.475213 249.962195 
L 191.558879 249.962195 
L 191.667548 247.85545 
L 191.687324 247.85545 
L 191.754674 245.22202 
L 191.801149 245.22202 
L 191.893729 242.061903 
L 191.944361 242.061903 
L 192.042839 240.481845 
L 192.072938 240.481845 
L 192.154374 237.848415 
L 192.198053 237.848415 
L 192.279488 235.74167 
L 192.324972 235.74167 
L 192.40735 233.10824 
L 192.443519 233.10824 
L 192.525721 229.421437 
L 192.586503 229.421437 
L 192.694438 225.734635 
L 192.704799 225.734635 
L 192.806764 220.99446 
L 192.839312 220.99446 
L 192.948484 215.200913 
L 192.985217 215.200913 
L 193.085745 209.407366 
L 193.098086 209.407366 
L 193.196686 202.560447 
L 193.231804 202.560447 
L 193.340733 194.660156 
L 193.347269 194.660156 
L 193.45079 184.653121 
L 193.475673 184.653121 
L 193.584169 175.699457 
L 193.588287 175.699457 
L 193.693417 163.585677 
L 193.700533 163.585677 
L 193.803399 153.051956 
L 193.816127 153.051956 
L 193.92376 137.251373 
L 193.928677 137.251373 
L 194.03178 125.137593 
L 194.049399 125.137593 
L 194.158553 112.497128 
L 194.162884 112.497128 
L 194.272881 104.596836 
L 194.27529 104.596836 
L 194.384583 90.376312 
L 194.391252 90.376312 
L 194.500502 76.155788 
L 194.505938 76.155788 
L 194.616331 64.568694 
L 194.621731 64.568694 
L 194.722506 53.508287 
L 194.752341 53.508287 
L 194.857195 47.71474 
L 194.863686 47.71474 
L 194.973663 41.394507 
L 194.996963 41.394507 
L 195.104136 36.127646 
L 195.127098 36.127646 
L 195.163284 35.074274 
L 195.269281 35.074274 
L 195.337915 32.967529 
L 195.410152 32.967529 
L 195.451066 31.914157 
L 195.55997 31.914157 
L 195.665497 30.334099 
L 338.688 30.334099 
L 338.688 30.334099 
" style="fill:none;stroke:#ff00ff;stroke-linecap:square;stroke-width:1.5;"/>
   </g>
   <g id="line2d_44">
    <defs>
     <path d="M -0 8.485281 
L 5.091169 0 
L 0 -8.485281 
L -5.091169 -0 
z
" id="m474e392483" style="stroke:#ff00ff;stroke-linejoin:miter;stroke-width:1.5;"/>
    </defs>
    <g>
     <use style="fill-opacity:0;stroke:#ff00ff;stroke-linejoin:miter;stroke-width:1.5;" x="191.963826" xlink:href="#m474e392483" y="241.535217"/>
     <use style="fill-opacity:0;stroke:#ff00ff;stroke-linejoin:miter;stroke-width:1.5;" x="195.665497" xlink:href="#m474e392483" y="30.860785"/>
     <use style="fill-opacity:0;stroke:#ff00ff;stroke-linejoin:miter;stroke-width:1.5;" x="195.665497" xlink:href="#m474e392483" y="30.334099"/>
     <use style="fill-opacity:0;stroke:#ff00ff;stroke-linejoin:miter;stroke-width:1.5;" x="195.665497" xlink:href="#m474e392483" y="30.334099"/>
     <use style="fill-opacity:0;stroke:#ff00ff;stroke-linejoin:miter;stroke-width:1.5;" x="338.688" xlink:href="#m474e392483" y="30.334099"/>
    </g>
   </g>
   <g id="line2d_45">
    <path style="fill:none;stroke:#ff00ff;stroke-linecap:square;stroke-width:1.5;"/>
    <g/>
   </g>
   <g id="line2d_46">
    <defs>
     <path d="M 0 1.5 
C 0.397805 1.5 0.77937 1.341951 1.06066 1.06066 
C 1.341951 0.77937 1.5 0.397805 1.5 0 
C 1.5 -0.397805 1.341951 -0.77937 1.06066 -1.06066 
C 0.77937 -1.341951 0.397805 -1.5 0 -1.5 
C -0.397805 -1.5 -0.77937 -1.341951 -1.06066 -1.06066 
C -1.341951 -0.77937 -1.5 -0.397805 -1.5 0 
C -1.5 0.397805 -1.341951 0.77937 -1.06066 1.06066 
C -0.77937 1.341951 -0.397805 1.5 0 1.5 
z
" id="m5bcdc92608" style="stroke:#ff0000;"/>
    </defs>
    <g>
     <use style="fill:#ff0000;stroke:#ff0000;" x="204.38339" xlink:href="#m5bcdc92608" y="30.334099"/>
     <use style="fill:#ff0000;stroke:#ff0000;" x="204.38339" xlink:href="#m5bcdc92608" y="30.334099"/>
    </g>
   </g>
   <g id="line2d_47">
    <path d="M 124.919169 298.944 
L 124.919169 298.417314 
L 125.822869 298.417314 
L 125.822869 297.890628 
L 126.312937 297.890628 
L 126.312937 297.363942 
L 126.431228 297.363942 
L 126.431228 296.837256 
L 126.657117 296.837256 
L 126.657117 296.31057 
L 126.888323 296.31057 
L 126.888323 295.783884 
L 127.237527 295.783884 
L 127.237527 295.257197 
L 127.373678 295.257197 
L 127.373678 294.730511 
L 128.951487 294.730511 
L 128.951487 294.203825 
L 129.118302 294.203825 
L 129.132732 293.150453 
L 129.887858 293.150453 
L 129.887858 292.623767 
L 130.364743 292.623767 
L 130.378179 291.570395 
L 131.452406 291.570395 
L 131.452406 291.043709 
L 132.103085 291.043709 
L 132.103085 290.517023 
L 132.398622 290.517023 
L 132.398622 289.990337 
L 133.267705 289.990337 
L 133.267705 289.463651 
L 133.403728 289.463651 
L 133.403728 288.936964 
L 133.733678 288.936964 
L 133.733678 288.410278 
L 134.418085 288.410278 
L 134.418085 287.883592 
L 134.550744 287.883592 
L 134.61933 286.83022 
L 134.698134 286.83022 
L 134.698134 286.303534 
L 136.044356 286.303534 
L 136.044356 285.776848 
L 147.993502 285.776848 
L 147.993502 285.250162 
L 149.950822 285.250162 
L 149.950822 284.723476 
L 150.891184 284.723476 
L 150.990318 283.670104 
L 152.909298 283.670104 
L 152.909298 283.143418 
L 167.711635 283.143418 
L 167.734515 282.090045 
L 168.309168 282.090045 
L 168.309168 281.563359 
L 168.730484 281.563359 
L 168.730484 281.036673 
L 168.984051 281.036673 
L 168.984051 280.509987 
L 170.007335 280.509987 
L 170.007335 279.983301 
L 170.717968 279.983301 
L 170.717968 279.456615 
L 172.092273 279.456615 
L 172.189643 278.403243 
L 173.295786 278.403243 
L 173.295786 277.876557 
L 176.47754 277.876557 
L 176.47754 277.349871 
L 176.727419 277.349871 
L 176.749061 276.296499 
L 177.191949 276.296499 
L 177.209817 275.243126 
L 177.467548 275.243126 
L 177.563392 274.189754 
L 177.690816 274.189754 
L 177.690816 273.663068 
L 178.045346 273.663068 
L 178.045346 273.136382 
L 179.474108 273.136382 
L 179.474108 272.609696 
L 180.558519 272.609696 
L 180.558519 272.08301 
L 180.84526 272.08301 
L 180.84972 271.029638 
L 181.134311 271.029638 
L 181.134311 270.502952 
L 181.30967 270.502952 
L 181.30967 269.976266 
L 181.647729 269.976266 
L 181.718593 268.922893 
L 182.092209 268.922893 
L 182.092209 268.396207 
L 182.626296 268.396207 
L 182.626296 267.869521 
L 182.813264 267.869521 
L 182.813264 267.342835 
L 183.014342 267.342835 
L 183.014342 266.816149 
L 183.185193 266.816149 
L 183.185193 266.289463 
L 183.472781 266.289463 
L 183.472781 265.762777 
L 183.701505 265.762777 
L 183.768283 264.709405 
L 183.872663 264.709405 
L 183.872663 264.182719 
L 184.035347 264.182719 
L 184.035347 263.656033 
L 184.209713 263.656033 
L 184.220439 262.60266 
L 184.35228 262.60266 
L 184.35228 262.075974 
L 184.48977 262.075974 
L 184.48977 261.549288 
L 184.717232 261.549288 
L 184.717232 261.022602 
L 184.953813 261.022602 
L 185.015387 259.96923 
L 185.11753 259.96923 
L 185.204608 258.915858 
L 185.295573 258.915858 
L 185.343608 257.862486 
L 185.421848 257.862486 
L 185.421848 257.3358 
L 185.593712 257.3358 
L 185.687746 254.702369 
L 185.708574 254.702369 
L 185.806468 253.122311 
L 185.833021 253.122311 
L 185.833021 252.595625 
L 185.962686 252.595625 
L 186.019976 251.542253 
L 186.090568 251.542253 
L 186.192367 247.85545 
L 186.204401 247.85545 
L 186.204401 247.328764 
L 186.322384 247.328764 
L 186.427432 245.22202 
L 186.436877 245.22202 
L 186.462218 244.168648 
L 186.553036 244.168648 
L 186.656441 241.008531 
L 186.718138 241.008531 
L 186.789139 239.428473 
L 186.829279 239.428473 
L 186.939454 236.268356 
L 186.962244 236.268356 
L 187.073145 233.10824 
L 187.091864 233.10824 
L 187.194457 230.47481 
L 187.209433 230.47481 
L 187.317496 226.261321 
L 187.323138 226.261321 
L 187.400404 222.574518 
L 187.441711 222.574518 
L 187.515157 217.834344 
L 187.564035 217.834344 
L 187.665656 210.987425 
L 187.694295 210.987425 
L 187.802149 202.560447 
L 187.817609 202.560447 
L 187.921731 196.7669 
L 187.944758 196.7669 
L 188.047635 187.813237 
L 188.057226 187.813237 
L 188.162131 180.439632 
L 188.168728 180.439632 
L 188.278308 171.485969 
L 188.289714 171.485969 
L 188.399744 160.952247 
L 188.401672 160.952247 
L 188.507647 149.365153 
L 188.518664 149.365153 
L 188.628216 133.564571 
L 188.631546 133.564571 
L 188.736138 124.084221 
L 188.747957 124.084221 
L 188.840105 113.5505 
L 188.862186 113.5505 
L 188.969141 104.596836 
L 188.979404 104.596836 
L 189.083326 91.95637 
L 189.096534 91.95637 
L 189.192393 83.002707 
L 189.20851 83.002707 
L 189.297577 75.629102 
L 189.324117 75.629102 
L 189.419191 69.308869 
L 189.446682 69.308869 
L 189.554183 61.935264 
L 189.566814 61.935264 
L 189.659681 57.195089 
L 189.67918 57.195089 
L 189.778582 54.034973 
L 189.794611 54.034973 
L 189.896014 51.401542 
L 189.941972 51.401542 
L 190.01288 48.768112 
L 190.062696 48.768112 
L 190.11521 46.134681 
L 202.192162 46.134681 
L 202.192162 45.607995 
L 202.539561 45.607995 
L 202.539561 45.081309 
L 202.954832 45.081309 
L 202.954832 44.554623 
L 203.071004 44.554623 
L 203.181966 43.501251 
L 203.535797 43.501251 
L 203.598229 41.921193 
L 203.715015 41.921193 
L 203.770021 40.341135 
L 203.86949 40.341135 
L 203.965137 37.707704 
L 203.99365 37.707704 
L 204.084796 36.127646 
L 204.109394 36.127646 
L 204.217466 34.020902 
L 204.228265 34.020902 
L 204.327 31.914157 
L 204.341887 31.914157 
L 204.38339 30.334099 
L 338.688 30.334099 
L 338.688 30.334099 
" style="fill:none;stroke:#ff0000;stroke-linecap:square;stroke-width:1.5;"/>
   </g>
   <g id="line2d_48">
    <defs>
     <path d="M 0 -6 
L -5.196152 -3 
L -5.196152 3 
L -0 6 
L 5.196152 3 
L 5.196152 -3 
z
" id="m8f24dc7bff" style="stroke:#ff0000;stroke-linejoin:miter;stroke-width:1.5;"/>
    </defs>
    <g>
     <use style="fill-opacity:0;stroke:#ff0000;stroke-linejoin:miter;stroke-width:1.5;" x="183.014342" xlink:href="#m8f24dc7bff" y="266.816149"/>
     <use style="fill-opacity:0;stroke:#ff0000;stroke-linejoin:miter;stroke-width:1.5;" x="189.187094" xlink:href="#m8f24dc7bff" y="84.056079"/>
     <use style="fill-opacity:0;stroke:#ff0000;stroke-linejoin:miter;stroke-width:1.5;" x="204.38339" xlink:href="#m8f24dc7bff" y="30.860785"/>
     <use style="fill-opacity:0;stroke:#ff0000;stroke-linejoin:miter;stroke-width:1.5;" x="204.38339" xlink:href="#m8f24dc7bff" y="30.334099"/>
     <use style="fill-opacity:0;stroke:#ff0000;stroke-linejoin:miter;stroke-width:1.5;" x="338.688" xlink:href="#m8f24dc7bff" y="30.334099"/>
    </g>
   </g>
   <g id="line2d_49">
    <path style="fill:none;stroke:#ff0000;stroke-linecap:square;stroke-width:1.5;"/>
    <g/>
   </g>
   <g id="line2d_50">
    <defs>
     <path d="M 0 1.5 
C 0.397805 1.5 0.77937 1.341951 1.06066 1.06066 
C 1.341951 0.77937 1.5 0.397805 1.5 0 
C 1.5 -0.397805 1.341951 -0.77937 1.06066 -1.06066 
C 0.77937 -1.341951 0.397805 -1.5 0 -1.5 
C -0.397805 -1.5 -0.77937 -1.341951 -1.06066 -1.06066 
C -1.341951 -0.77937 -1.5 -0.397805 -1.5 0 
C -1.5 0.397805 -1.341951 0.77937 -1.06066 1.06066 
C -0.77937 1.341951 -0.397805 1.5 0 1.5 
z
" id="mfc0156a034" style="stroke:#ff7500;"/>
    </defs>
    <g>
     <use style="fill:#ff7500;stroke:#ff7500;" x="202.365536" xlink:href="#mfc0156a034" y="30.334099"/>
     <use style="fill:#ff7500;stroke:#ff7500;" x="202.365536" xlink:href="#mfc0156a034" y="30.334099"/>
    </g>
   </g>
   <g id="line2d_51">
    <path d="M 121.128432 298.944 
L 121.128432 298.417314 
L 121.478699 298.417314 
L 121.478699 297.890628 
L 121.634606 297.890628 
L 121.634606 297.363942 
L 121.931406 297.363942 
L 121.931406 296.837256 
L 122.699028 296.837256 
L 122.699028 296.31057 
L 123.45427 296.31057 
L 123.45427 295.783884 
L 123.613353 295.783884 
L 123.613353 295.257197 
L 123.770997 295.257197 
L 123.770997 294.730511 
L 124.062793 294.730511 
L 124.139788 293.150453 
L 124.178158 293.150453 
L 124.178158 292.623767 
L 124.983335 292.623767 
L 124.983335 292.097081 
L 125.13819 292.097081 
L 125.13819 291.570395 
L 125.603504 291.570395 
L 125.603504 291.043709 
L 125.875108 291.043709 
L 125.875108 290.517023 
L 128.878458 290.517023 
L 128.878458 289.990337 
L 129.901666 289.990337 
L 129.901666 289.463651 
L 130.344571 289.463651 
L 130.344571 288.936964 
L 131.050017 288.936964 
L 131.050017 288.410278 
L 131.178768 288.410278 
L 131.178768 287.883592 
L 131.684473 287.883592 
L 131.684473 287.356906 
L 138.790764 287.356906 
L 138.790764 286.83022 
L 142.669787 286.83022 
L 142.742644 285.776848 
L 145.593043 285.776848 
L 145.593043 285.250162 
L 147.590249 285.250162 
L 147.590249 284.723476 
L 151.154299 284.723476 
L 151.154299 284.19679 
L 154.081093 284.19679 
L 154.081093 283.670104 
L 155.571464 283.670104 
L 155.571464 283.143418 
L 164.007646 283.143418 
L 164.007646 282.616732 
L 164.260611 282.616732 
L 164.260611 282.090045 
L 166.219894 282.090045 
L 166.219894 281.563359 
L 166.725047 281.563359 
L 166.825841 279.456615 
L 167.410635 279.456615 
L 167.410635 278.929929 
L 168.093473 278.929929 
L 168.093473 278.403243 
L 170.526219 278.403243 
L 170.526219 277.876557 
L 173.616647 277.876557 
L 173.616647 277.349871 
L 173.7774 277.349871 
L 173.885782 276.296499 
L 174.325672 276.296499 
L 174.325672 275.769812 
L 175.465928 275.769812 
L 175.537645 274.71644 
L 175.708671 274.71644 
L 175.708671 274.189754 
L 176.003131 274.189754 
L 176.003131 273.663068 
L 177.528805 273.663068 
L 177.528805 273.136382 
L 177.742858 273.136382 
L 177.742858 272.609696 
L 177.919617 272.609696 
L 177.919617 272.08301 
L 178.12852 272.08301 
L 178.12852 271.556324 
L 178.456026 271.556324 
L 178.456026 271.029638 
L 179.422958 271.029638 
L 179.422958 270.502952 
L 179.557559 270.502952 
L 179.615499 268.922893 
L 179.739125 268.922893 
L 179.739125 268.396207 
L 180.438684 268.396207 
L 180.438684 267.869521 
L 180.693293 267.869521 
L 180.693293 267.342835 
L 180.901306 267.342835 
L 180.901306 266.816149 
L 181.138699 266.816149 
L 181.138699 266.289463 
L 181.316908 266.289463 
L 181.316908 265.762777 
L 181.488299 265.762777 
L 181.593679 263.656033 
L 181.682489 263.656033 
L 181.736265 262.075974 
L 181.805715 262.075974 
L 181.812399 261.022602 
L 182.461038 261.022602 
L 182.549258 258.915858 
L 182.673561 258.915858 
L 182.722034 257.862486 
L 182.944278 257.862486 
L 183.039929 255.755741 
L 183.240694 255.755741 
L 183.348913 254.175683 
L 183.374979 254.175683 
L 183.426995 251.542253 
L 183.527056 251.542253 
L 183.527056 251.015567 
L 183.73902 251.015567 
L 183.832928 248.908822 
L 183.979217 248.908822 
L 184.090062 246.802078 
L 184.103946 246.802078 
L 184.198981 243.641962 
L 184.244011 243.641962 
L 184.277326 242.588589 
L 184.399039 242.588589 
L 184.461089 239.428473 
L 184.563818 239.428473 
L 184.64473 236.795043 
L 184.710085 236.795043 
L 184.819947 232.054868 
L 184.884354 232.054868 
L 184.978175 225.734635 
L 185.051643 225.734635 
L 185.124512 220.99446 
L 185.171859 220.99446 
L 185.269055 216.780971 
L 185.286642 216.780971 
L 185.382055 210.460738 
L 185.397811 210.460738 
L 185.507138 204.667192 
L 185.522782 204.667192 
L 185.604186 200.453703 
L 185.63698 200.453703 
L 185.739769 192.026726 
L 185.755486 192.026726 
L 185.865946 185.179807 
L 185.875978 185.179807 
L 185.98651 174.646085 
L 185.995643 174.646085 
L 186.091669 164.112363 
L 186.111195 164.112363 
L 186.215607 154.632014 
L 186.222982 154.632014 
L 186.327543 146.731723 
L 186.339484 146.731723 
L 186.445778 134.617943 
L 186.4509 134.617943 
L 186.561074 125.66428 
L 186.56402 125.66428 
L 186.667627 115.130558 
L 186.678539 115.130558 
L 186.788081 103.543464 
L 186.795218 103.543464 
L 186.897202 93.536429 
L 186.917947 93.536429 
L 187.023131 84.582765 
L 187.030173 84.582765 
L 187.134166 76.682474 
L 187.15489 76.682474 
L 187.240377 71.415613 
L 187.277179 71.415613 
L 187.36207 69.308869 
L 187.410867 69.308869 
L 187.519215 67.202125 
L 187.561506 67.202125 
L 187.649557 66.148752 
L 187.708346 66.148752 
L 187.818855 64.042008 
L 187.87658 64.042008 
L 187.939809 62.46195 
L 188.014396 62.46195 
L 188.0759 61.408578 
L 188.168972 61.408578 
L 188.168972 60.881892 
L 196.256117 60.881892 
L 196.318227 59.82852 
L 196.372489 59.82852 
L 196.476715 58.248461 
L 196.559801 58.248461 
L 196.640689 57.195089 
L 196.697853 57.195089 
L 196.697853 56.668403 
L 196.824414 56.668403 
L 196.824414 56.141717 
L 197.298096 56.141717 
L 197.38241 55.088345 
L 197.451261 55.088345 
L 197.52827 53.508287 
L 197.608496 53.508287 
L 197.704621 51.401542 
L 197.725675 51.401542 
L 197.826634 49.821484 
L 197.842773 49.821484 
L 197.948776 47.71474 
L 198.021403 47.71474 
L 198.118047 45.607995 
L 198.169197 45.607995 
L 198.225688 44.027937 
L 200.198358 44.027937 
L 200.198358 43.501251 
L 200.910809 43.501251 
L 200.910809 42.974565 
L 201.026187 42.974565 
L 201.026187 42.447879 
L 201.189849 42.447879 
L 201.278654 41.394507 
L 201.367582 41.394507 
L 201.423304 40.341135 
L 201.507521 40.341135 
L 201.507521 39.814448 
L 201.709503 39.814448 
L 201.745202 38.761076 
L 201.827659 38.761076 
L 201.859218 37.707704 
L 201.94247 37.707704 
L 202.049368 36.127646 
L 202.055428 36.127646 
L 202.1566 34.547588 
L 202.20014 34.547588 
L 202.295263 31.914157 
L 202.314269 31.914157 
L 202.365536 30.334099 
L 338.688 30.334099 
L 338.688 30.334099 
" style="fill:none;stroke:#ff7500;stroke-linecap:square;stroke-width:1.5;"/>
   </g>
   <g id="line2d_52">
    <defs>
     <path d="M 0 -6 
L -1.347084 -1.854102 
L -5.706339 -1.854102 
L -2.179628 0.708204 
L -3.526712 4.854102 
L -0 2.291796 
L 3.526712 4.854102 
L 2.179628 0.708204 
L 5.706339 -1.854102 
L 1.347084 -1.854102 
z
" id="meb266b2f67" style="stroke:#ff7500;stroke-linejoin:bevel;stroke-width:1.5;"/>
    </defs>
    <g>
     <use style="fill-opacity:0;stroke:#ff7500;stroke-linejoin:bevel;stroke-width:1.5;" x="183.527056" xlink:href="#meb266b2f67" y="251.542253"/>
     <use style="fill-opacity:0;stroke:#ff7500;stroke-linejoin:bevel;stroke-width:1.5;" x="188.168972" xlink:href="#meb266b2f67" y="61.408578"/>
     <use style="fill-opacity:0;stroke:#ff7500;stroke-linejoin:bevel;stroke-width:1.5;" x="202.365536" xlink:href="#meb266b2f67" y="30.334099"/>
     <use style="fill-opacity:0;stroke:#ff7500;stroke-linejoin:bevel;stroke-width:1.5;" x="202.365536" xlink:href="#meb266b2f67" y="30.334099"/>
     <use style="fill-opacity:0;stroke:#ff7500;stroke-linejoin:bevel;stroke-width:1.5;" x="338.688" xlink:href="#meb266b2f67" y="30.334099"/>
    </g>
   </g>
   <g id="line2d_53">
    <path style="fill:none;stroke:#ff7500;stroke-linecap:square;stroke-width:1.5;"/>
    <g/>
   </g>
   <g id="line2d_54">
    <defs>
     <path d="M 0 1.5 
C 0.397805 1.5 0.77937 1.341951 1.06066 1.06066 
C 1.341951 0.77937 1.5 0.397805 1.5 0 
C 1.5 -0.397805 1.341951 -0.77937 1.06066 -1.06066 
C 0.77937 -1.341951 0.397805 -1.5 0 -1.5 
C -0.397805 -1.5 -0.77937 -1.341951 -1.06066 -1.06066 
C -1.341951 -0.77937 -1.5 -0.397805 -1.5 0 
C -1.5 0.397805 -1.341951 0.77937 -1.06066 1.06066 
C -0.77937 1.341951 -0.397805 1.5 0 1.5 
z
" id="m6e9c207acd" style="stroke:#9acd32;"/>
    </defs>
    <g>
     <use style="fill:#9acd32;stroke:#9acd32;" x="201.837702" xlink:href="#m6e9c207acd" y="30.334099"/>
     <use style="fill:#9acd32;stroke:#9acd32;" x="201.837702" xlink:href="#m6e9c207acd" y="30.334099"/>
    </g>
   </g>
   <g id="line2d_55">
    <path d="M 120.910223 298.944 
L 120.910223 298.417314 
L 121.467509 298.417314 
L 121.467509 297.890628 
L 122.212516 297.890628 
L 122.212516 297.363942 
L 122.552391 297.363942 
L 122.552391 296.837256 
L 122.678156 296.837256 
L 122.678156 296.31057 
L 123.936947 296.31057 
L 124.043491 295.257197 
L 124.168574 295.257197 
L 124.168574 294.730511 
L 124.378229 294.730511 
L 124.378229 294.203825 
L 124.566661 294.203825 
L 124.566661 293.677139 
L 124.799375 293.677139 
L 124.799375 293.150453 
L 125.147256 293.150453 
L 125.147256 292.623767 
L 126.005026 292.623767 
L 126.005026 292.097081 
L 127.092198 292.097081 
L 127.092198 291.570395 
L 127.658536 291.570395 
L 127.658536 291.043709 
L 128.966056 291.043709 
L 128.966056 290.517023 
L 129.347769 290.517023 
L 129.347769 289.990337 
L 129.658437 289.990337 
L 129.658437 289.463651 
L 130.175551 289.463651 
L 130.175551 288.936964 
L 131.293837 288.936964 
L 131.293837 288.410278 
L 131.833369 288.410278 
L 131.833369 287.883592 
L 141.753422 287.883592 
L 141.753422 287.356906 
L 143.11861 287.356906 
L 143.11861 286.83022 
L 143.429548 286.83022 
L 143.429548 286.303534 
L 143.797366 286.303534 
L 143.797366 285.776848 
L 144.513502 285.776848 
L 144.513502 285.250162 
L 144.794859 285.250162 
L 144.794859 284.723476 
L 145.284425 284.723476 
L 145.284425 284.19679 
L 146.670421 284.19679 
L 146.670421 283.670104 
L 164.332629 283.670104 
L 164.332629 283.143418 
L 164.760468 283.143418 
L 164.760468 282.616732 
L 165.318087 282.616732 
L 165.351562 281.563359 
L 165.502755 281.563359 
L 165.601936 280.509987 
L 166.264555 280.509987 
L 166.264555 279.983301 
L 167.31802 279.983301 
L 167.31802 279.456615 
L 167.925058 279.456615 
L 167.925058 278.929929 
L 174.223258 278.929929 
L 174.223258 278.403243 
L 174.349428 278.403243 
L 174.439301 277.349871 
L 174.480584 277.349871 
L 174.480584 276.823185 
L 174.914784 276.823185 
L 174.93149 275.769812 
L 175.4122 275.769812 
L 175.4122 275.243126 
L 176.114174 275.243126 
L 176.13318 274.189754 
L 177.496853 274.189754 
L 177.496853 273.663068 
L 178.071081 273.663068 
L 178.071081 273.136382 
L 178.22513 273.136382 
L 178.22513 272.609696 
L 178.373118 272.609696 
L 178.456452 271.029638 
L 178.551691 271.029638 
L 178.574573 269.976266 
L 178.764095 269.976266 
L 178.764095 269.449579 
L 178.878909 269.449579 
L 178.878909 268.922893 
L 179.00413 268.922893 
L 179.060641 267.869521 
L 179.137481 267.869521 
L 179.230714 266.816149 
L 179.257202 266.816149 
L 179.257202 266.289463 
L 179.391872 266.289463 
L 179.459624 265.236091 
L 179.603527 265.236091 
L 179.662509 264.182719 
L 179.763666 264.182719 
L 179.763666 263.656033 
L 179.991978 263.656033 
L 179.991978 263.129347 
L 180.164074 263.129347 
L 180.164074 262.60266 
L 180.605318 262.60266 
L 180.612855 261.549288 
L 180.737115 261.549288 
L 180.795746 259.96923 
L 180.87646 259.96923 
L 180.87646 259.442544 
L 181.027581 259.442544 
L 181.121875 257.862486 
L 181.234576 257.862486 
L 181.269079 256.809114 
L 181.382639 256.809114 
L 181.424764 255.755741 
L 181.642403 255.755741 
L 181.740856 254.702369 
L 181.764854 254.702369 
L 181.862269 253.122311 
L 181.925631 253.122311 
L 182.017985 250.488881 
L 182.047851 250.488881 
L 182.141287 248.382136 
L 182.25824 248.382136 
L 182.361808 247.328764 
L 182.393814 247.328764 
L 182.482712 246.275392 
L 182.518888 246.275392 
L 182.583277 244.695334 
L 182.63435 244.695334 
L 182.744719 241.535217 
L 182.951198 241.535217 
L 183.040913 239.428473 
L 183.170559 239.428473 
L 183.262715 236.795043 
L 183.315711 236.795043 
L 183.388801 235.214984 
L 183.510792 235.214984 
L 183.572263 233.10824 
L 183.645554 233.10824 
L 183.74878 231.001496 
L 183.831988 231.001496 
L 183.897958 228.894751 
L 183.945327 228.894751 
L 184.044014 226.788007 
L 184.082036 226.788007 
L 184.165517 224.154577 
L 184.206954 224.154577 
L 184.30509 222.047832 
L 184.33068 222.047832 
L 184.399949 220.467774 
L 184.453534 220.467774 
L 184.532852 216.780971 
L 184.57943 216.780971 
L 184.674901 214.147541 
L 184.713361 214.147541 
L 184.741332 210.987425 
L 184.83474 210.987425 
L 184.940884 207.300622 
L 184.94588 207.300622 
L 185.049891 200.980389 
L 185.060987 200.980389 
L 185.171859 194.660156 
L 185.17273 194.660156 
L 185.271362 188.866609 
L 185.29759 188.866609 
L 185.397525 180.966318 
L 185.423563 180.966318 
L 185.533298 168.325852 
L 185.538127 168.325852 
L 185.636415 159.372189 
L 185.654765 159.372189 
L 185.757169 149.891839 
L 185.767825 149.891839 
L 185.876814 138.831432 
L 185.885726 138.831432 
L 185.994537 126.717652 
L 186.000623 126.717652 
L 186.109271 117.237302 
L 186.12301 117.237302 
L 186.230082 106.176895 
L 186.235268 106.176895 
L 186.343282 94.063115 
L 186.355754 94.063115 
L 186.464373 80.369277 
L 186.474337 80.369277 
L 186.581152 72.468985 
L 186.586235 72.468985 
L 186.690774 65.622066 
L 186.699812 65.622066 
L 186.806051 59.82852 
L 186.811861 59.82852 
L 186.914798 56.668403 
L 186.92372 56.668403 
L 187.031738 53.508287 
L 187.035648 53.508287 
L 187.126388 50.34817 
L 187.154114 50.34817 
L 187.240119 47.188054 
L 187.346712 47.188054 
L 187.403722 45.607995 
L 200.019999 45.607995 
L 200.019999 45.081309 
L 200.259403 45.081309 
L 200.259403 44.554623 
L 200.414295 44.554623 
L 200.414295 44.027937 
L 200.542128 44.027937 
L 200.542128 43.501251 
L 200.674756 43.501251 
L 200.674756 42.974565 
L 200.792057 42.974565 
L 200.884083 41.921193 
L 200.93902 41.921193 
L 200.93902 41.394507 
L 201.056896 41.394507 
L 201.056896 40.867821 
L 201.275313 40.867821 
L 201.348318 39.287762 
L 201.434952 39.287762 
L 201.537394 36.654332 
L 201.559058 36.654332 
L 201.664719 34.547588 
L 201.690501 34.547588 
L 201.790003 31.914157 
L 201.809679 31.914157 
L 201.837702 30.334099 
L 338.688 30.334099 
L 338.688 30.334099 
" style="fill:none;stroke:#9acd32;stroke-linecap:square;stroke-width:1.5;"/>
   </g>
   <g id="line2d_56">
    <defs>
     <path d="M 0 -6 
L -6 6 
L 6 6 
z
" id="m4909e4ee86" style="stroke:#9acd32;stroke-linejoin:miter;stroke-width:1.5;"/>
    </defs>
    <g>
     <use style="fill-opacity:0;stroke:#9acd32;stroke-linejoin:miter;stroke-width:1.5;" x="185.962963" xlink:href="#m4909e4ee86" y="130.404454"/>
     <use style="fill-opacity:0;stroke:#9acd32;stroke-linejoin:miter;stroke-width:1.5;" x="201.837702" xlink:href="#m4909e4ee86" y="30.860785"/>
     <use style="fill-opacity:0;stroke:#9acd32;stroke-linejoin:miter;stroke-width:1.5;" x="201.837702" xlink:href="#m4909e4ee86" y="30.334099"/>
     <use style="fill-opacity:0;stroke:#9acd32;stroke-linejoin:miter;stroke-width:1.5;" x="201.837702" xlink:href="#m4909e4ee86" y="30.334099"/>
     <use style="fill-opacity:0;stroke:#9acd32;stroke-linejoin:miter;stroke-width:1.5;" x="338.688" xlink:href="#m4909e4ee86" y="30.334099"/>
    </g>
   </g>
   <g id="line2d_57">
    <path style="fill:none;stroke:#9acd32;stroke-linecap:square;stroke-width:1.5;"/>
    <g/>
   </g>
   <g id="line2d_58">
    <path d="M 338.688 30.334099 
L 369.60768 293.571802 
" style="fill:none;stroke:#ff0000;stroke-linecap:square;stroke-width:1.5;"/>
    <g>
     <use style="fill-opacity:0;stroke:#ff0000;stroke-linejoin:miter;stroke-width:1.5;" x="338.688" xlink:href="#m8f24dc7bff" y="30.334099"/>
     <use style="fill-opacity:0;stroke:#ff0000;stroke-linejoin:miter;stroke-width:1.5;" x="369.60768" xlink:href="#m8f24dc7bff" y="293.571802"/>
    </g>
   </g>
   <g id="line2d_59">
    <path d="M 338.688 30.334099 
L 369.60768 250.594218 
" style="fill:none;stroke:#ff7500;stroke-linecap:square;stroke-width:1.5;"/>
    <g>
     <use style="fill-opacity:0;stroke:#ff7500;stroke-linejoin:bevel;stroke-width:1.5;" x="338.688" xlink:href="#meb266b2f67" y="30.334099"/>
     <use style="fill-opacity:0;stroke:#ff7500;stroke-linejoin:bevel;stroke-width:1.5;" x="369.60768" xlink:href="#meb266b2f67" y="250.594218"/>
    </g>
   </g>
   <g id="line2d_60">
    <path d="M 338.688 30.334099 
L 369.60768 207.616634 
" style="fill:none;stroke:#9acd32;stroke-linecap:square;stroke-width:1.5;"/>
    <g>
     <use style="fill-opacity:0;stroke:#9acd32;stroke-linejoin:miter;stroke-width:1.5;" x="338.688" xlink:href="#m4909e4ee86" y="30.334099"/>
     <use style="fill-opacity:0;stroke:#9acd32;stroke-linejoin:miter;stroke-width:1.5;" x="369.60768" xlink:href="#m4909e4ee86" y="207.616634"/>
    </g>
   </g>
   <g id="line2d_61">
    <path d="M 338.688 30.334099 
L 369.60768 164.63905 
" style="fill:none;stroke:#000080;stroke-linecap:square;stroke-width:1.5;"/>
    <g>
     <use style="fill-opacity:0;stroke:#000080;stroke-width:1.5;" x="338.688" xlink:href="#m3815712578" y="30.334099"/>
     <use style="fill-opacity:0;stroke:#000080;stroke-width:1.5;" x="369.60768" xlink:href="#m3815712578" y="164.63905"/>
    </g>
   </g>
   <g id="line2d_62">
    <path d="M 338.688 30.334099 
L 369.60768 121.661465 
" style="fill:none;stroke:#000080;stroke-linecap:square;stroke-width:1.5;"/>
    <g>
     <use style="fill-opacity:0;stroke:#000080;stroke-width:1.5;" x="338.688" xlink:href="#m3815712578" y="30.334099"/>
     <use style="fill-opacity:0;stroke:#000080;stroke-width:1.5;" x="369.60768" xlink:href="#m3815712578" y="121.661465"/>
    </g>
   </g>
   <g id="line2d_63">
    <path d="M 338.688 30.334099 
L 369.60768 78.683881 
" style="fill:none;stroke:#ff00ff;stroke-linecap:square;stroke-width:1.5;"/>
    <g>
     <use style="fill-opacity:0;stroke:#ff00ff;stroke-linejoin:miter;stroke-width:1.5;" x="338.688" xlink:href="#m474e392483" y="30.334099"/>
     <use style="fill-opacity:0;stroke:#ff00ff;stroke-linejoin:miter;stroke-width:1.5;" x="369.60768" xlink:href="#m474e392483" y="78.683881"/>
    </g>
   </g>
   <g id="line2d_64">
    <path d="M 338.688 298.944 
L 338.688 30.334099 
" style="fill:none;stroke:#000000;stroke-linecap:square;stroke-width:1.5;"/>
   </g>
   <g id="patch_3">
    <path d="M 57.6 298.944 
L 57.6 27.648 
" style="fill:none;stroke:#000000;stroke-linecap:square;stroke-linejoin:miter;stroke-width:0.8;"/>
   </g>
   <g id="patch_4">
    <path d="M 338.688 298.944 
L 338.688 27.648 
" style="fill:none;stroke:#000000;stroke-linecap:square;stroke-linejoin:miter;stroke-width:0.8;"/>
   </g>
   <g id="patch_5">
    <path d="M 57.6 298.944 
L 338.688 298.944 
" style="fill:none;stroke:#000000;stroke-linecap:square;stroke-linejoin:miter;stroke-width:0.8;"/>
   </g>
   <g id="patch_6">
    <path d="M 57.6 27.648 
L 338.688 27.648 
" style="fill:none;stroke:#000000;stroke-linecap:square;stroke-linejoin:miter;stroke-width:0.8;"/>
   </g>
   <g id="text_13">
    <!-- 050-2e4 -->
    <defs>
     <path d="M 10.796875 72.90625 
L 49.515625 72.90625 
L 49.515625 64.59375 
L 19.828125 64.59375 
L 19.828125 46.734375 
Q 21.96875 47.46875 24.109375 47.828125 
Q 26.265625 48.1875 28.421875 48.1875 
Q 40.625 48.1875 47.75 41.5 
Q 54.890625 34.8125 54.890625 23.390625 
Q 54.890625 11.625 47.5625 5.09375 
Q 40.234375 -1.421875 26.90625 -1.421875 
Q 22.3125 -1.421875 17.546875 -0.640625 
Q 12.796875 0.140625 7.71875 1.703125 
L 7.71875 11.625 
Q 12.109375 9.234375 16.796875 8.0625 
Q 21.484375 6.890625 26.703125 6.890625 
Q 35.15625 6.890625 40.078125 11.328125 
Q 45.015625 15.765625 45.015625 23.390625 
Q 45.015625 31 40.078125 35.4375 
Q 35.15625 39.890625 26.703125 39.890625 
Q 22.75 39.890625 18.8125 39.015625 
Q 14.890625 38.140625 10.796875 36.28125 
z
" id="DejaVuSans-53"/>
    </defs>
    <g transform="translate(375.22944 298.262739)scale(0.17 -0.17)">
     <use xlink:href="#DejaVuSans-48"/>
     <use x="63.623047" xlink:href="#DejaVuSans-53"/>
     <use x="127.246094" xlink:href="#DejaVuSans-48"/>
     <use x="190.869141" xlink:href="#DejaVuSans-45"/>
     <use x="226.953125" xlink:href="#DejaVuSans-50"/>
     <use x="290.576172" xlink:href="#DejaVuSans-101"/>
     <use x="352.099609" xlink:href="#DejaVuSans-52"/>
    </g>
   </g>
   <g id="text_14">
    <!-- 075-2e4 -->
    <defs>
     <path d="M 8.203125 72.90625 
L 55.078125 72.90625 
L 55.078125 68.703125 
L 28.609375 0 
L 18.3125 0 
L 43.21875 64.59375 
L 8.203125 64.59375 
z
" id="DejaVuSans-55"/>
    </defs>
    <g transform="translate(375.22944 255.285155)scale(0.17 -0.17)">
     <use xlink:href="#DejaVuSans-48"/>
     <use x="63.623047" xlink:href="#DejaVuSans-55"/>
     <use x="127.246094" xlink:href="#DejaVuSans-53"/>
     <use x="190.869141" xlink:href="#DejaVuSans-45"/>
     <use x="226.953125" xlink:href="#DejaVuSans-50"/>
     <use x="290.576172" xlink:href="#DejaVuSans-101"/>
     <use x="352.099609" xlink:href="#DejaVuSans-52"/>
    </g>
   </g>
   <g id="text_15">
    <!-- 080-1e5 -->
    <g transform="translate(375.22944 212.307571)scale(0.17 -0.17)">
     <use xlink:href="#DejaVuSans-48"/>
     <use x="63.623047" xlink:href="#DejaVuSans-56"/>
     <use x="127.246094" xlink:href="#DejaVuSans-48"/>
     <use x="190.869141" xlink:href="#DejaVuSans-45"/>
     <use x="226.953125" xlink:href="#DejaVuSans-49"/>
     <use x="290.576172" xlink:href="#DejaVuSans-101"/>
     <use x="352.099609" xlink:href="#DejaVuSans-53"/>
    </g>
   </g>
   <g id="text_16">
    <!-- 100-2e4 -->
    <g transform="translate(375.22944 169.329987)scale(0.17 -0.17)">
     <use xlink:href="#DejaVuSans-49"/>
     <use x="63.623047" xlink:href="#DejaVuSans-48"/>
     <use x="127.246094" xlink:href="#DejaVuSans-48"/>
     <use x="190.869141" xlink:href="#DejaVuSans-45"/>
     <use x="226.953125" xlink:href="#DejaVuSans-50"/>
     <use x="290.576172" xlink:href="#DejaVuSans-101"/>
     <use x="352.099609" xlink:href="#DejaVuSans-52"/>
    </g>
   </g>
   <g id="text_17">
    <!-- 100-1e5 -->
    <g transform="translate(375.22944 126.352403)scale(0.17 -0.17)">
     <use xlink:href="#DejaVuSans-49"/>
     <use x="63.623047" xlink:href="#DejaVuSans-48"/>
     <use x="127.246094" xlink:href="#DejaVuSans-48"/>
     <use x="190.869141" xlink:href="#DejaVuSans-45"/>
     <use x="226.953125" xlink:href="#DejaVuSans-49"/>
     <use x="290.576172" xlink:href="#DejaVuSans-101"/>
     <use x="352.099609" xlink:href="#DejaVuSans-53"/>
    </g>
   </g>
   <g id="text_18">
    <!-- 025-2e4 -->
    <g transform="translate(375.22944 83.374819)scale(0.17 -0.17)">
     <use xlink:href="#DejaVuSans-48"/>
     <use x="63.623047" xlink:href="#DejaVuSans-50"/>
     <use x="127.246094" xlink:href="#DejaVuSans-53"/>
     <use x="190.869141" xlink:href="#DejaVuSans-45"/>
     <use x="226.953125" xlink:href="#DejaVuSans-50"/>
     <use x="290.576172" xlink:href="#DejaVuSans-101"/>
     <use x="352.099609" xlink:href="#DejaVuSans-52"/>
    </g>
   </g>
   <g id="text_19">
    <!-- best 2009 -->
    <defs>
     <path d="M 48.6875 27.296875 
Q 48.6875 37.203125 44.609375 42.84375 
Q 40.53125 48.484375 33.40625 48.484375 
Q 26.265625 48.484375 22.1875 42.84375 
Q 18.109375 37.203125 18.109375 27.296875 
Q 18.109375 17.390625 22.1875 11.75 
Q 26.265625 6.109375 33.40625 6.109375 
Q 40.53125 6.109375 44.609375 11.75 
Q 48.6875 17.390625 48.6875 27.296875 
z
M 18.109375 46.390625 
Q 20.953125 51.265625 25.265625 53.625 
Q 29.59375 56 35.59375 56 
Q 45.5625 56 51.78125 48.09375 
Q 58.015625 40.1875 58.015625 27.296875 
Q 58.015625 14.40625 51.78125 6.484375 
Q 45.5625 -1.421875 35.59375 -1.421875 
Q 29.59375 -1.421875 25.265625 0.953125 
Q 20.953125 3.328125 18.109375 8.203125 
L 18.109375 0 
L 9.078125 0 
L 9.078125 75.984375 
L 18.109375 75.984375 
z
" id="DejaVuSans-98"/>
     <path d="M 10.984375 1.515625 
L 10.984375 10.5 
Q 14.703125 8.734375 18.5 7.8125 
Q 22.3125 6.890625 25.984375 6.890625 
Q 35.75 6.890625 40.890625 13.453125 
Q 46.046875 20.015625 46.78125 33.40625 
Q 43.953125 29.203125 39.59375 26.953125 
Q 35.25 24.703125 29.984375 24.703125 
Q 19.046875 24.703125 12.671875 31.3125 
Q 6.296875 37.9375 6.296875 49.421875 
Q 6.296875 60.640625 12.9375 67.421875 
Q 19.578125 74.21875 30.609375 74.21875 
Q 43.265625 74.21875 49.921875 64.515625 
Q 56.59375 54.828125 56.59375 36.375 
Q 56.59375 19.140625 48.40625 8.859375 
Q 40.234375 -1.421875 26.421875 -1.421875 
Q 22.703125 -1.421875 18.890625 -0.6875 
Q 15.09375 0.046875 10.984375 1.515625 
z
M 30.609375 32.421875 
Q 37.25 32.421875 41.125 36.953125 
Q 45.015625 41.5 45.015625 49.421875 
Q 45.015625 57.28125 41.125 61.84375 
Q 37.25 66.40625 30.609375 66.40625 
Q 23.96875 66.40625 20.09375 61.84375 
Q 16.21875 57.28125 16.21875 49.421875 
Q 16.21875 41.5 20.09375 36.953125 
Q 23.96875 32.421875 30.609375 32.421875 
z
" id="DejaVuSans-57"/>
    </defs>
    <g transform="translate(375.22944 40.397235)scale(0.17 -0.17)">
     <use xlink:href="#DejaVuSans-98"/>
     <use x="63.476562" xlink:href="#DejaVuSans-101"/>
     <use x="125" xlink:href="#DejaVuSans-115"/>
     <use x="177.099609" xlink:href="#DejaVuSans-116"/>
     <use x="216.308594" xlink:href="#DejaVuSans-32"/>
     <use x="248.095703" xlink:href="#DejaVuSans-50"/>
     <use x="311.71875" xlink:href="#DejaVuSans-48"/>
     <use x="375.341797" xlink:href="#DejaVuSans-48"/>
     <use x="438.964844" xlink:href="#DejaVuSans-57"/>
    </g>
   </g>
   <g id="text_20">
    <!-- bbob f8, 40-D -->
    <defs>
     <path d="M 19.671875 64.796875 
L 19.671875 8.109375 
L 31.59375 8.109375 
Q 46.6875 8.109375 53.6875 14.9375 
Q 60.6875 21.78125 60.6875 36.53125 
Q 60.6875 51.171875 53.6875 57.984375 
Q 46.6875 64.796875 31.59375 64.796875 
z
M 9.8125 72.90625 
L 30.078125 72.90625 
Q 51.265625 72.90625 61.171875 64.09375 
Q 71.09375 55.28125 71.09375 36.53125 
Q 71.09375 17.671875 61.125 8.828125 
Q 51.171875 0 30.078125 0 
L 9.8125 0 
z
" id="DejaVuSans-68"/>
    </defs>
    <g transform="translate(60.41088 38.111366)scale(0.102 -0.102)">
     <use xlink:href="#DejaVuSans-98"/>
     <use x="63.476562" xlink:href="#DejaVuSans-98"/>
     <use x="126.953125" xlink:href="#DejaVuSans-111"/>
     <use x="188.134766" xlink:href="#DejaVuSans-98"/>
     <use x="251.611328" xlink:href="#DejaVuSans-32"/>
     <use x="283.398438" xlink:href="#DejaVuSans-102"/>
     <use x="318.603516" xlink:href="#DejaVuSans-56"/>
     <use x="382.226562" xlink:href="#DejaVuSans-44"/>
     <use x="414.013672" xlink:href="#DejaVuSans-32"/>
     <use x="445.800781" xlink:href="#DejaVuSans-52"/>
     <use x="509.423828" xlink:href="#DejaVuSans-48"/>
     <use x="573.046875" xlink:href="#DejaVuSans-45"/>
     <use x="609.130859" xlink:href="#DejaVuSans-68"/>
    </g>
    <!-- 51 targets: 100..1e-08 -->
    <defs>
     <path d="M 11.71875 12.40625 
L 22.015625 12.40625 
L 22.015625 0 
L 11.71875 0 
z
M 11.71875 51.703125 
L 22.015625 51.703125 
L 22.015625 39.3125 
L 11.71875 39.3125 
z
" id="DejaVuSans-58"/>
    </defs>
    <g transform="translate(60.41088 49.533135)scale(0.102 -0.102)">
     <use xlink:href="#DejaVuSans-53"/>
     <use x="63.623047" xlink:href="#DejaVuSans-49"/>
     <use x="127.246094" xlink:href="#DejaVuSans-32"/>
     <use x="159.033203" xlink:href="#DejaVuSans-116"/>
     <use x="198.242188" xlink:href="#DejaVuSans-97"/>
     <use x="259.521484" xlink:href="#DejaVuSans-114"/>
     <use x="300.619141" xlink:href="#DejaVuSans-103"/>
     <use x="364.095703" xlink:href="#DejaVuSans-101"/>
     <use x="425.619141" xlink:href="#DejaVuSans-116"/>
     <use x="464.828125" xlink:href="#DejaVuSans-115"/>
     <use x="516.927734" xlink:href="#DejaVuSans-58"/>
     <use x="550.619141" xlink:href="#DejaVuSans-32"/>
     <use x="582.40625" xlink:href="#DejaVuSans-49"/>
     <use x="646.029297" xlink:href="#DejaVuSans-48"/>
     <use x="709.652344" xlink:href="#DejaVuSans-48"/>
     <use x="773.275391" xlink:href="#DejaVuSans-46"/>
     <use x="805.0625" xlink:href="#DejaVuSans-46"/>
     <use x="836.849609" xlink:href="#DejaVuSans-49"/>
     <use x="900.472656" xlink:href="#DejaVuSans-101"/>
     <use x="961.996094" xlink:href="#DejaVuSans-45"/>
     <use x="998.080078" xlink:href="#DejaVuSans-48"/>
     <use x="1061.703125" xlink:href="#DejaVuSans-56"/>
    </g>
    <!-- 15 instances -->
    <g transform="translate(60.41088 60.954904)scale(0.102 -0.102)">
     <use xlink:href="#DejaVuSans-49"/>
     <use x="63.623047" xlink:href="#DejaVuSans-53"/>
     <use x="127.246094" xlink:href="#DejaVuSans-32"/>
     <use x="159.033203" xlink:href="#DejaVuSans-105"/>
     <use x="186.816406" xlink:href="#DejaVuSans-110"/>
     <use x="250.195312" xlink:href="#DejaVuSans-115"/>
     <use x="302.294922" xlink:href="#DejaVuSans-116"/>
     <use x="341.503906" xlink:href="#DejaVuSans-97"/>
     <use x="402.783203" xlink:href="#DejaVuSans-110"/>
     <use x="466.162109" xlink:href="#DejaVuSans-99"/>
     <use x="521.142578" xlink:href="#DejaVuSans-101"/>
     <use x="582.666016" xlink:href="#DejaVuSans-115"/>
    </g>
   </g>
   <g id="text_21">
    <!-- v2.3.3.18.73 -->
    <defs>
     <path d="M 40.578125 39.3125 
Q 47.65625 37.796875 51.625 33 
Q 55.609375 28.21875 55.609375 21.1875 
Q 55.609375 10.40625 48.1875 4.484375 
Q 40.765625 -1.421875 27.09375 -1.421875 
Q 22.515625 -1.421875 17.65625 -0.515625 
Q 12.796875 0.390625 7.625 2.203125 
L 7.625 11.71875 
Q 11.71875 9.328125 16.59375 8.109375 
Q 21.484375 6.890625 26.8125 6.890625 
Q 36.078125 6.890625 40.9375 10.546875 
Q 45.796875 14.203125 45.796875 21.1875 
Q 45.796875 27.640625 41.28125 31.265625 
Q 36.765625 34.90625 28.71875 34.90625 
L 20.21875 34.90625 
L 20.21875 43.015625 
L 29.109375 43.015625 
Q 36.375 43.015625 40.234375 45.921875 
Q 44.09375 48.828125 44.09375 54.296875 
Q 44.09375 59.90625 40.109375 62.90625 
Q 36.140625 65.921875 28.71875 65.921875 
Q 24.65625 65.921875 20.015625 65.03125 
Q 15.375 64.15625 9.8125 62.3125 
L 9.8125 71.09375 
Q 15.4375 72.65625 20.34375 73.4375 
Q 25.25 74.21875 29.59375 74.21875 
Q 40.828125 74.21875 47.359375 69.109375 
Q 53.90625 64.015625 53.90625 55.328125 
Q 53.90625 49.265625 50.4375 45.09375 
Q 46.96875 40.921875 40.578125 39.3125 
z
" id="DejaVuSans-51"/>
    </defs>
    <g style="fill:#808080;" transform="translate(166.559625 294.151352)scale(0.1 -0.1)">
     <use xlink:href="#DejaVuSans-118"/>
     <use x="59.179688" xlink:href="#DejaVuSans-50"/>
     <use x="122.802734" xlink:href="#DejaVuSans-46"/>
     <use x="154.589844" xlink:href="#DejaVuSans-51"/>
     <use x="218.212891" xlink:href="#DejaVuSans-46"/>
     <use x="250" xlink:href="#DejaVuSans-51"/>
     <use x="313.623047" xlink:href="#DejaVuSans-46"/>
     <use x="345.410156" xlink:href="#DejaVuSans-49"/>
     <use x="409.033203" xlink:href="#DejaVuSans-56"/>
     <use x="472.65625" xlink:href="#DejaVuSans-46"/>
     <use x="504.443359" xlink:href="#DejaVuSans-55"/>
     <use x="568.066406" xlink:href="#DejaVuSans-51"/>
    </g>
   </g>
   <g id="text_22">
    <!-- 8 Rosenbrock original -->
    <defs>
     <path d="M 44.390625 34.1875 
Q 47.5625 33.109375 50.5625 29.59375 
Q 53.5625 26.078125 56.59375 19.921875 
L 66.609375 0 
L 56 0 
L 46.6875 18.703125 
Q 43.0625 26.03125 39.671875 28.421875 
Q 36.28125 30.8125 30.421875 30.8125 
L 19.671875 30.8125 
L 19.671875 0 
L 9.8125 0 
L 9.8125 72.90625 
L 32.078125 72.90625 
Q 44.578125 72.90625 50.734375 67.671875 
Q 56.890625 62.453125 56.890625 51.90625 
Q 56.890625 45.015625 53.6875 40.46875 
Q 50.484375 35.9375 44.390625 34.1875 
z
M 19.671875 64.796875 
L 19.671875 38.921875 
L 32.078125 38.921875 
Q 39.203125 38.921875 42.84375 42.21875 
Q 46.484375 45.515625 46.484375 51.90625 
Q 46.484375 58.296875 42.84375 61.546875 
Q 39.203125 64.796875 32.078125 64.796875 
z
" id="DejaVuSans-82"/>
     <path d="M 9.078125 75.984375 
L 18.109375 75.984375 
L 18.109375 31.109375 
L 44.921875 54.6875 
L 56.390625 54.6875 
L 27.390625 29.109375 
L 57.625 0 
L 45.90625 0 
L 18.109375 26.703125 
L 18.109375 0 
L 9.078125 0 
z
" id="DejaVuSans-107"/>
    </defs>
    <g transform="translate(89.422125 21.648)scale(0.2 -0.2)">
     <use xlink:href="#DejaVuSans-56"/>
     <use x="63.623047" xlink:href="#DejaVuSans-32"/>
     <use x="95.410156" xlink:href="#DejaVuSans-82"/>
     <use x="164.830078" xlink:href="#DejaVuSans-111"/>
     <use x="226.011719" xlink:href="#DejaVuSans-115"/>
     <use x="278.111328" xlink:href="#DejaVuSans-101"/>
     <use x="339.634766" xlink:href="#DejaVuSans-110"/>
     <use x="403.013672" xlink:href="#DejaVuSans-98"/>
     <use x="466.490234" xlink:href="#DejaVuSans-114"/>
     <use x="507.572266" xlink:href="#DejaVuSans-111"/>
     <use x="568.753906" xlink:href="#DejaVuSans-99"/>
     <use x="623.734375" xlink:href="#DejaVuSans-107"/>
     <use x="681.644531" xlink:href="#DejaVuSans-32"/>
     <use x="713.431641" xlink:href="#DejaVuSans-111"/>
     <use x="774.613281" xlink:href="#DejaVuSans-114"/>
     <use x="815.726562" xlink:href="#DejaVuSans-105"/>
     <use x="843.509766" xlink:href="#DejaVuSans-103"/>
     <use x="906.986328" xlink:href="#DejaVuSans-105"/>
     <use x="934.769531" xlink:href="#DejaVuSans-110"/>
     <use x="998.148438" xlink:href="#DejaVuSans-97"/>
     <use x="1059.427734" xlink:href="#DejaVuSans-108"/>
    </g>
   </g>
  </g>
 </g>
 <defs>
  <clipPath id="p342882c82d">
   <rect height="271.296" width="281.088" x="57.6" y="27.648"/>
  </clipPath>
 </defs>
</svg>
