<?xml version="1.0" encoding="utf-8" standalone="no"?>
<!DOCTYPE svg PUBLIC "-//W3C//DTD SVG 1.1//EN"
  "http://www.w3.org/Graphics/SVG/1.1/DTD/svg11.dtd">
<!-- Created with matplotlib (https://matplotlib.org/) -->
<svg height="345.6pt" version="1.1" viewBox="0 0 460.8 345.6" width="460.8pt" xmlns="http://www.w3.org/2000/svg" xmlns:xlink="http://www.w3.org/1999/xlink">
 <defs>
  <style type="text/css">
*{stroke-linecap:butt;stroke-linejoin:round;}
  </style>
 </defs>
 <g id="figure_1">
  <g id="patch_1">
   <path d="M 0 345.6 
L 460.8 345.6 
L 460.8 0 
L 0 0 
z
" style="fill:#ffffff;"/>
  </g>
  <g id="axes_1">
   <g id="patch_2">
    <path d="M 57.6 298.944 
L 338.688 298.944 
L 338.688 27.648 
L 57.6 27.648 
z
" style="fill:#ffffff;"/>
   </g>
   <g id="line2d_1">
    <path d="M 29.53256 298.944 
L 29.53256 293.677139 
L 76.759008 293.677139 
L 76.759008 288.410278 
L 92.504372 288.410278 
L 92.504372 283.143418 
L 112.72987 283.143418 
L 112.72987 277.876557 
L 143.578237 277.876557 
L 143.578237 272.609696 
L 158.433528 272.609696 
L 158.433528 267.342835 
L 179.18416 267.342835 
L 179.18416 262.075974 
L 194.00663 262.075974 
L 194.00663 256.809114 
L 209.082729 256.809114 
L 209.082729 251.542253 
L 229.671214 251.542253 
L 229.671214 246.275392 
L 243.773552 246.275392 
L 243.773552 241.008531 
L 251.641102 241.008531 
L 251.641102 235.74167 
L 251.650133 235.74167 
L 251.650133 230.47481 
L 258.915875 230.47481 
L 258.915875 225.207949 
L 258.916146 225.207949 
L 258.916146 219.941088 
L 302.721272 219.941088 
L 302.721272 214.674227 
L 302.757625 214.674227 
L 302.757625 209.407366 
L 302.769064 209.407366 
L 302.769064 204.140506 
L 305.963277 204.140506 
L 305.963277 198.873645 
L 309.858883 198.873645 
L 309.858883 193.606784 
L 309.876641 193.606784 
L 309.876641 188.339923 
L 309.889002 188.339923 
L 309.889002 183.073062 
L 309.904833 183.073062 
L 309.904833 177.806202 
L 309.908497 177.806202 
L 309.908497 172.539341 
L 309.909936 172.539341 
L 309.909936 167.27248 
L 309.942163 167.27248 
L 309.942163 162.005619 
L 309.943425 162.005619 
L 309.943425 156.738758 
L 309.947023 156.738758 
L 309.947023 151.471897 
L 309.948419 151.471897 
L 309.948419 146.205037 
L 309.948687 146.205037 
L 309.948687 140.938176 
L 309.949399 140.938176 
L 309.949399 135.671315 
L 309.949787 135.671315 
L 309.949787 130.404454 
L 314.967066 130.404454 
L 314.967066 125.137593 
L 314.967747 125.137593 
L 314.967747 119.870733 
L 314.967774 119.870733 
L 314.967774 114.603872 
L 314.968429 114.603872 
L 314.968429 109.337011 
L 314.968564 109.337011 
L 314.968564 104.07015 
L 314.968949 104.07015 
L 314.968949 98.803289 
L 314.969729 98.803289 
L 314.969729 93.536429 
L 314.969939 93.536429 
L 314.969939 88.269568 
L 314.970165 88.269568 
L 314.970165 83.002707 
L 314.970687 83.002707 
L 314.970687 77.735846 
L 314.971041 77.735846 
L 314.971041 72.468985 
L 314.971094 72.468985 
L 314.971094 67.202125 
L 314.972431 67.202125 
L 314.972431 61.935264 
L 314.972777 61.935264 
L 314.972777 56.668403 
L 314.97299 56.668403 
L 314.97299 51.401542 
L 314.973501 51.401542 
L 314.973501 46.134681 
L 314.973892 46.134681 
L 314.973892 40.867821 
L 314.97421 40.867821 
L 314.97421 35.60096 
L 314.974468 35.60096 
L 314.974468 30.334099 
L 338.688 30.334099 
" style="fill:none;stroke:#f5deb3;stroke-linecap:square;stroke-width:4;"/>
   </g>
   <g id="line2d_2">
    <defs>
     <path d="M -0 7.778175 
L 7.778175 0 
L 0 -7.778175 
L -7.778175 -0 
z
" id="m89a0f53d82" style="stroke:#f5deb3;stroke-linejoin:miter;stroke-width:1.5;"/>
    </defs>
    <g>
     <use style="fill:#f5deb3;stroke:#f5deb3;stroke-linejoin:miter;stroke-width:1.5;" x="92.504372" xlink:href="#m89a0f53d82" y="288.410278"/>
     <use style="fill:#f5deb3;stroke:#f5deb3;stroke-linejoin:miter;stroke-width:1.5;" x="194.00663" xlink:href="#m89a0f53d82" y="262.075974"/>
     <use style="fill:#f5deb3;stroke:#f5deb3;stroke-linejoin:miter;stroke-width:1.5;" x="258.916146" xlink:href="#m89a0f53d82" y="219.941088"/>
     <use style="fill:#f5deb3;stroke:#f5deb3;stroke-linejoin:miter;stroke-width:1.5;" x="314.968429" xlink:href="#m89a0f53d82" y="114.603872"/>
     <use style="fill:#f5deb3;stroke:#f5deb3;stroke-linejoin:miter;stroke-width:1.5;" x="314.974468" xlink:href="#m89a0f53d82" y="30.334099"/>
     <use style="fill:#f5deb3;stroke:#f5deb3;stroke-linejoin:miter;stroke-width:1.5;" x="338.688" xlink:href="#m89a0f53d82" y="30.334099"/>
    </g>
   </g>
   <g id="line2d_3">
    <path style="fill:none;stroke:#f5deb3;stroke-linecap:square;stroke-width:4;"/>
    <g/>
   </g>
   <g id="line2d_4">
    <path d="M 338.688 30.334099 
L 369.60768 35.706297 
" style="fill:none;stroke:#f5deb3;stroke-linecap:square;stroke-width:4;"/>
    <g>
     <use style="fill:#f5deb3;stroke:#f5deb3;stroke-linejoin:miter;stroke-width:1.5;" x="338.688" xlink:href="#m89a0f53d82" y="30.334099"/>
     <use style="fill:#f5deb3;stroke:#f5deb3;stroke-linejoin:miter;stroke-width:1.5;" x="369.60768" xlink:href="#m89a0f53d82" y="35.706297"/>
    </g>
   </g>
   <g id="matplotlib.axis_1">
    <g id="xtick_1">
     <g id="line2d_5">
      <path clip-path="url(#pce35ff8c3a)" d="M 57.6 298.944 
L 57.6 27.648 
" style="fill:none;stroke:#b0b0b0;stroke-linecap:square;stroke-width:0.8;"/>
     </g>
     <g id="line2d_6">
      <defs>
       <path d="M 0 0 
L 0 3.5 
" id="mf731f0aa6f" style="stroke:#000000;stroke-width:0.8;"/>
      </defs>
      <g>
       <use style="stroke:#000000;stroke-width:0.8;" x="57.6" xlink:href="#mf731f0aa6f" y="298.944"/>
      </g>
     </g>
     <g id="text_1">
      <!-- 0 -->
      <defs>
       <path d="M 31.78125 66.40625 
Q 24.171875 66.40625 20.328125 58.90625 
Q 16.5 51.421875 16.5 36.375 
Q 16.5 21.390625 20.328125 13.890625 
Q 24.171875 6.390625 31.78125 6.390625 
Q 39.453125 6.390625 43.28125 13.890625 
Q 47.125 21.390625 47.125 36.375 
Q 47.125 51.421875 43.28125 58.90625 
Q 39.453125 66.40625 31.78125 66.40625 
z
M 31.78125 74.21875 
Q 44.046875 74.21875 50.515625 64.515625 
Q 56.984375 54.828125 56.984375 36.375 
Q 56.984375 17.96875 50.515625 8.265625 
Q 44.046875 -1.421875 31.78125 -1.421875 
Q 19.53125 -1.421875 13.0625 8.265625 
Q 6.59375 17.96875 6.59375 36.375 
Q 6.59375 54.828125 13.0625 64.515625 
Q 19.53125 74.21875 31.78125 74.21875 
z
" id="DejaVuSans-48"/>
      </defs>
      <g transform="translate(51.2375 321.140875)scale(0.2 -0.2)">
       <use xlink:href="#DejaVuSans-48"/>
      </g>
     </g>
    </g>
    <g id="xtick_2">
     <g id="line2d_7">
      <path clip-path="url(#pce35ff8c3a)" d="M 137.910857 298.944 
L 137.910857 27.648 
" style="fill:none;stroke:#b0b0b0;stroke-linecap:square;stroke-width:0.8;"/>
     </g>
     <g id="line2d_8">
      <g>
       <use style="stroke:#000000;stroke-width:0.8;" x="137.910857" xlink:href="#mf731f0aa6f" y="298.944"/>
      </g>
     </g>
     <g id="text_2">
      <!-- 2 -->
      <defs>
       <path d="M 19.1875 8.296875 
L 53.609375 8.296875 
L 53.609375 0 
L 7.328125 0 
L 7.328125 8.296875 
Q 12.9375 14.109375 22.625 23.890625 
Q 32.328125 33.6875 34.8125 36.53125 
Q 39.546875 41.84375 41.421875 45.53125 
Q 43.3125 49.21875 43.3125 52.78125 
Q 43.3125 58.59375 39.234375 62.25 
Q 35.15625 65.921875 28.609375 65.921875 
Q 23.96875 65.921875 18.8125 64.3125 
Q 13.671875 62.703125 7.8125 59.421875 
L 7.8125 69.390625 
Q 13.765625 71.78125 18.9375 73 
Q 24.125 74.21875 28.421875 74.21875 
Q 39.75 74.21875 46.484375 68.546875 
Q 53.21875 62.890625 53.21875 53.421875 
Q 53.21875 48.921875 51.53125 44.890625 
Q 49.859375 40.875 45.40625 35.40625 
Q 44.1875 33.984375 37.640625 27.21875 
Q 31.109375 20.453125 19.1875 8.296875 
z
" id="DejaVuSans-50"/>
      </defs>
      <g transform="translate(131.548357 321.140875)scale(0.2 -0.2)">
       <use xlink:href="#DejaVuSans-50"/>
      </g>
     </g>
    </g>
    <g id="xtick_3">
     <g id="line2d_9">
      <path clip-path="url(#pce35ff8c3a)" d="M 218.221714 298.944 
L 218.221714 27.648 
" style="fill:none;stroke:#b0b0b0;stroke-linecap:square;stroke-width:0.8;"/>
     </g>
     <g id="line2d_10">
      <g>
       <use style="stroke:#000000;stroke-width:0.8;" x="218.221714" xlink:href="#mf731f0aa6f" y="298.944"/>
      </g>
     </g>
     <g id="text_3">
      <!-- 4 -->
      <defs>
       <path d="M 37.796875 64.3125 
L 12.890625 25.390625 
L 37.796875 25.390625 
z
M 35.203125 72.90625 
L 47.609375 72.90625 
L 47.609375 25.390625 
L 58.015625 25.390625 
L 58.015625 17.1875 
L 47.609375 17.1875 
L 47.609375 0 
L 37.796875 0 
L 37.796875 17.1875 
L 4.890625 17.1875 
L 4.890625 26.703125 
z
" id="DejaVuSans-52"/>
      </defs>
      <g transform="translate(211.859214 321.140875)scale(0.2 -0.2)">
       <use xlink:href="#DejaVuSans-52"/>
      </g>
     </g>
    </g>
    <g id="xtick_4">
     <g id="line2d_11">
      <path clip-path="url(#pce35ff8c3a)" d="M 298.532571 298.944 
L 298.532571 27.648 
" style="fill:none;stroke:#b0b0b0;stroke-linecap:square;stroke-width:0.8;"/>
     </g>
     <g id="line2d_12">
      <g>
       <use style="stroke:#000000;stroke-width:0.8;" x="298.532571" xlink:href="#mf731f0aa6f" y="298.944"/>
      </g>
     </g>
     <g id="text_4">
      <!-- 6 -->
      <defs>
       <path d="M 33.015625 40.375 
Q 26.375 40.375 22.484375 35.828125 
Q 18.609375 31.296875 18.609375 23.390625 
Q 18.609375 15.53125 22.484375 10.953125 
Q 26.375 6.390625 33.015625 6.390625 
Q 39.65625 6.390625 43.53125 10.953125 
Q 47.40625 15.53125 47.40625 23.390625 
Q 47.40625 31.296875 43.53125 35.828125 
Q 39.65625 40.375 33.015625 40.375 
z
M 52.59375 71.296875 
L 52.59375 62.3125 
Q 48.875 64.0625 45.09375 64.984375 
Q 41.3125 65.921875 37.59375 65.921875 
Q 27.828125 65.921875 22.671875 59.328125 
Q 17.53125 52.734375 16.796875 39.40625 
Q 19.671875 43.65625 24.015625 45.921875 
Q 28.375 48.1875 33.59375 48.1875 
Q 44.578125 48.1875 50.953125 41.515625 
Q 57.328125 34.859375 57.328125 23.390625 
Q 57.328125 12.15625 50.6875 5.359375 
Q 44.046875 -1.421875 33.015625 -1.421875 
Q 20.359375 -1.421875 13.671875 8.265625 
Q 6.984375 17.96875 6.984375 36.375 
Q 6.984375 53.65625 15.1875 63.9375 
Q 23.390625 74.21875 37.203125 74.21875 
Q 40.921875 74.21875 44.703125 73.484375 
Q 48.484375 72.75 52.59375 71.296875 
z
" id="DejaVuSans-54"/>
      </defs>
      <g transform="translate(292.170071 321.140875)scale(0.2 -0.2)">
       <use xlink:href="#DejaVuSans-54"/>
      </g>
     </g>
    </g>
    <g id="xtick_5">
     <g id="line2d_13">
      <path clip-path="url(#pce35ff8c3a)" d="M 97.755429 298.944 
L 97.755429 27.648 
" style="fill:none;stroke:#b0b0b0;stroke-linecap:square;stroke-width:0.8;"/>
     </g>
     <g id="line2d_14">
      <defs>
       <path d="M 0 0 
L 0 2 
" id="m4b5e44a5c7" style="stroke:#000000;stroke-width:0.6;"/>
      </defs>
      <g>
       <use style="stroke:#000000;stroke-width:0.6;" x="97.755429" xlink:href="#m4b5e44a5c7" y="298.944"/>
      </g>
     </g>
    </g>
    <g id="xtick_6">
     <g id="line2d_15">
      <path clip-path="url(#pce35ff8c3a)" d="M 178.066286 298.944 
L 178.066286 27.648 
" style="fill:none;stroke:#b0b0b0;stroke-linecap:square;stroke-width:0.8;"/>
     </g>
     <g id="line2d_16">
      <g>
       <use style="stroke:#000000;stroke-width:0.6;" x="178.066286" xlink:href="#m4b5e44a5c7" y="298.944"/>
      </g>
     </g>
    </g>
    <g id="xtick_7">
     <g id="line2d_17">
      <path clip-path="url(#pce35ff8c3a)" d="M 258.377143 298.944 
L 258.377143 27.648 
" style="fill:none;stroke:#b0b0b0;stroke-linecap:square;stroke-width:0.8;"/>
     </g>
     <g id="line2d_18">
      <g>
       <use style="stroke:#000000;stroke-width:0.6;" x="258.377143" xlink:href="#m4b5e44a5c7" y="298.944"/>
      </g>
     </g>
    </g>
    <g id="xtick_8">
     <g id="line2d_19">
      <path clip-path="url(#pce35ff8c3a)" d="M 338.688 298.944 
L 338.688 27.648 
" style="fill:none;stroke:#b0b0b0;stroke-linecap:square;stroke-width:0.8;"/>
     </g>
     <g id="line2d_20">
      <g>
       <use style="stroke:#000000;stroke-width:0.6;" x="338.688" xlink:href="#m4b5e44a5c7" y="298.944"/>
      </g>
     </g>
    </g>
    <g id="text_5">
     <!-- log10(# f-evals / dimension) -->
     <defs>
      <path d="M 9.421875 75.984375 
L 18.40625 75.984375 
L 18.40625 0 
L 9.421875 0 
z
" id="DejaVuSans-108"/>
      <path d="M 30.609375 48.390625 
Q 23.390625 48.390625 19.1875 42.75 
Q 14.984375 37.109375 14.984375 27.296875 
Q 14.984375 17.484375 19.15625 11.84375 
Q 23.34375 6.203125 30.609375 6.203125 
Q 37.796875 6.203125 41.984375 11.859375 
Q 46.1875 17.53125 46.1875 27.296875 
Q 46.1875 37.015625 41.984375 42.703125 
Q 37.796875 48.390625 30.609375 48.390625 
z
M 30.609375 56 
Q 42.328125 56 49.015625 48.375 
Q 55.71875 40.765625 55.71875 27.296875 
Q 55.71875 13.875 49.015625 6.21875 
Q 42.328125 -1.421875 30.609375 -1.421875 
Q 18.84375 -1.421875 12.171875 6.21875 
Q 5.515625 13.875 5.515625 27.296875 
Q 5.515625 40.765625 12.171875 48.375 
Q 18.84375 56 30.609375 56 
z
" id="DejaVuSans-111"/>
      <path d="M 45.40625 27.984375 
Q 45.40625 37.75 41.375 43.109375 
Q 37.359375 48.484375 30.078125 48.484375 
Q 22.859375 48.484375 18.828125 43.109375 
Q 14.796875 37.75 14.796875 27.984375 
Q 14.796875 18.265625 18.828125 12.890625 
Q 22.859375 7.515625 30.078125 7.515625 
Q 37.359375 7.515625 41.375 12.890625 
Q 45.40625 18.265625 45.40625 27.984375 
z
M 54.390625 6.78125 
Q 54.390625 -7.171875 48.1875 -13.984375 
Q 42 -20.796875 29.203125 -20.796875 
Q 24.46875 -20.796875 20.265625 -20.09375 
Q 16.0625 -19.390625 12.109375 -17.921875 
L 12.109375 -9.1875 
Q 16.0625 -11.328125 19.921875 -12.34375 
Q 23.78125 -13.375 27.78125 -13.375 
Q 36.625 -13.375 41.015625 -8.765625 
Q 45.40625 -4.15625 45.40625 5.171875 
L 45.40625 9.625 
Q 42.625 4.78125 38.28125 2.390625 
Q 33.9375 0 27.875 0 
Q 17.828125 0 11.671875 7.65625 
Q 5.515625 15.328125 5.515625 27.984375 
Q 5.515625 40.671875 11.671875 48.328125 
Q 17.828125 56 27.875 56 
Q 33.9375 56 38.28125 53.609375 
Q 42.625 51.21875 45.40625 46.390625 
L 45.40625 54.6875 
L 54.390625 54.6875 
z
" id="DejaVuSans-103"/>
      <path d="M 12.40625 8.296875 
L 28.515625 8.296875 
L 28.515625 63.921875 
L 10.984375 60.40625 
L 10.984375 69.390625 
L 28.421875 72.90625 
L 38.28125 72.90625 
L 38.28125 8.296875 
L 54.390625 8.296875 
L 54.390625 0 
L 12.40625 0 
z
" id="DejaVuSans-49"/>
      <path d="M 31 75.875 
Q 24.46875 64.65625 21.28125 53.65625 
Q 18.109375 42.671875 18.109375 31.390625 
Q 18.109375 20.125 21.3125 9.0625 
Q 24.515625 -2 31 -13.1875 
L 23.1875 -13.1875 
Q 15.875 -1.703125 12.234375 9.375 
Q 8.59375 20.453125 8.59375 31.390625 
Q 8.59375 42.28125 12.203125 53.3125 
Q 15.828125 64.359375 23.1875 75.875 
z
" id="DejaVuSans-40"/>
      <path d="M 51.125 44 
L 36.921875 44 
L 32.8125 27.6875 
L 47.125 27.6875 
z
M 43.796875 71.78125 
L 38.71875 51.515625 
L 52.984375 51.515625 
L 58.109375 71.78125 
L 65.921875 71.78125 
L 60.890625 51.515625 
L 76.125 51.515625 
L 76.125 44 
L 58.984375 44 
L 54.984375 27.6875 
L 70.515625 27.6875 
L 70.515625 20.21875 
L 53.078125 20.21875 
L 48 0 
L 40.1875 0 
L 45.21875 20.21875 
L 30.90625 20.21875 
L 25.875 0 
L 18.015625 0 
L 23.09375 20.21875 
L 7.71875 20.21875 
L 7.71875 27.6875 
L 24.90625 27.6875 
L 29 44 
L 13.28125 44 
L 13.28125 51.515625 
L 30.90625 51.515625 
L 35.890625 71.78125 
z
" id="DejaVuSans-35"/>
      <path id="DejaVuSans-32"/>
      <path d="M 37.109375 75.984375 
L 37.109375 68.5 
L 28.515625 68.5 
Q 23.6875 68.5 21.796875 66.546875 
Q 19.921875 64.59375 19.921875 59.515625 
L 19.921875 54.6875 
L 34.71875 54.6875 
L 34.71875 47.703125 
L 19.921875 47.703125 
L 19.921875 0 
L 10.890625 0 
L 10.890625 47.703125 
L 2.296875 47.703125 
L 2.296875 54.6875 
L 10.890625 54.6875 
L 10.890625 58.5 
Q 10.890625 67.625 15.140625 71.796875 
Q 19.390625 75.984375 28.609375 75.984375 
z
" id="DejaVuSans-102"/>
      <path d="M 4.890625 31.390625 
L 31.203125 31.390625 
L 31.203125 23.390625 
L 4.890625 23.390625 
z
" id="DejaVuSans-45"/>
      <path d="M 56.203125 29.59375 
L 56.203125 25.203125 
L 14.890625 25.203125 
Q 15.484375 15.921875 20.484375 11.0625 
Q 25.484375 6.203125 34.421875 6.203125 
Q 39.59375 6.203125 44.453125 7.46875 
Q 49.3125 8.734375 54.109375 11.28125 
L 54.109375 2.78125 
Q 49.265625 0.734375 44.1875 -0.34375 
Q 39.109375 -1.421875 33.890625 -1.421875 
Q 20.796875 -1.421875 13.15625 6.1875 
Q 5.515625 13.8125 5.515625 26.8125 
Q 5.515625 40.234375 12.765625 48.109375 
Q 20.015625 56 32.328125 56 
Q 43.359375 56 49.78125 48.890625 
Q 56.203125 41.796875 56.203125 29.59375 
z
M 47.21875 32.234375 
Q 47.125 39.59375 43.09375 43.984375 
Q 39.0625 48.390625 32.421875 48.390625 
Q 24.90625 48.390625 20.390625 44.140625 
Q 15.875 39.890625 15.1875 32.171875 
z
" id="DejaVuSans-101"/>
      <path d="M 2.984375 54.6875 
L 12.5 54.6875 
L 29.59375 8.796875 
L 46.6875 54.6875 
L 56.203125 54.6875 
L 35.6875 0 
L 23.484375 0 
z
" id="DejaVuSans-118"/>
      <path d="M 34.28125 27.484375 
Q 23.390625 27.484375 19.1875 25 
Q 14.984375 22.515625 14.984375 16.5 
Q 14.984375 11.71875 18.140625 8.90625 
Q 21.296875 6.109375 26.703125 6.109375 
Q 34.1875 6.109375 38.703125 11.40625 
Q 43.21875 16.703125 43.21875 25.484375 
L 43.21875 27.484375 
z
M 52.203125 31.203125 
L 52.203125 0 
L 43.21875 0 
L 43.21875 8.296875 
Q 40.140625 3.328125 35.546875 0.953125 
Q 30.953125 -1.421875 24.3125 -1.421875 
Q 15.921875 -1.421875 10.953125 3.296875 
Q 6 8.015625 6 15.921875 
Q 6 25.140625 12.171875 29.828125 
Q 18.359375 34.515625 30.609375 34.515625 
L 43.21875 34.515625 
L 43.21875 35.40625 
Q 43.21875 41.609375 39.140625 45 
Q 35.0625 48.390625 27.6875 48.390625 
Q 23 48.390625 18.546875 47.265625 
Q 14.109375 46.140625 10.015625 43.890625 
L 10.015625 52.203125 
Q 14.9375 54.109375 19.578125 55.046875 
Q 24.21875 56 28.609375 56 
Q 40.484375 56 46.34375 49.84375 
Q 52.203125 43.703125 52.203125 31.203125 
z
" id="DejaVuSans-97"/>
      <path d="M 44.28125 53.078125 
L 44.28125 44.578125 
Q 40.484375 46.53125 36.375 47.5 
Q 32.28125 48.484375 27.875 48.484375 
Q 21.1875 48.484375 17.84375 46.4375 
Q 14.5 44.390625 14.5 40.28125 
Q 14.5 37.15625 16.890625 35.375 
Q 19.28125 33.59375 26.515625 31.984375 
L 29.59375 31.296875 
Q 39.15625 29.25 43.1875 25.515625 
Q 47.21875 21.78125 47.21875 15.09375 
Q 47.21875 7.46875 41.1875 3.015625 
Q 35.15625 -1.421875 24.609375 -1.421875 
Q 20.21875 -1.421875 15.453125 -0.5625 
Q 10.6875 0.296875 5.421875 2 
L 5.421875 11.28125 
Q 10.40625 8.6875 15.234375 7.390625 
Q 20.0625 6.109375 24.8125 6.109375 
Q 31.15625 6.109375 34.5625 8.28125 
Q 37.984375 10.453125 37.984375 14.40625 
Q 37.984375 18.0625 35.515625 20.015625 
Q 33.0625 21.96875 24.703125 23.78125 
L 21.578125 24.515625 
Q 13.234375 26.265625 9.515625 29.90625 
Q 5.8125 33.546875 5.8125 39.890625 
Q 5.8125 47.609375 11.28125 51.796875 
Q 16.75 56 26.8125 56 
Q 31.78125 56 36.171875 55.265625 
Q 40.578125 54.546875 44.28125 53.078125 
z
" id="DejaVuSans-115"/>
      <path d="M 25.390625 72.90625 
L 33.6875 72.90625 
L 8.296875 -9.28125 
L 0 -9.28125 
z
" id="DejaVuSans-47"/>
      <path d="M 45.40625 46.390625 
L 45.40625 75.984375 
L 54.390625 75.984375 
L 54.390625 0 
L 45.40625 0 
L 45.40625 8.203125 
Q 42.578125 3.328125 38.25 0.953125 
Q 33.9375 -1.421875 27.875 -1.421875 
Q 17.96875 -1.421875 11.734375 6.484375 
Q 5.515625 14.40625 5.515625 27.296875 
Q 5.515625 40.1875 11.734375 48.09375 
Q 17.96875 56 27.875 56 
Q 33.9375 56 38.25 53.625 
Q 42.578125 51.265625 45.40625 46.390625 
z
M 14.796875 27.296875 
Q 14.796875 17.390625 18.875 11.75 
Q 22.953125 6.109375 30.078125 6.109375 
Q 37.203125 6.109375 41.296875 11.75 
Q 45.40625 17.390625 45.40625 27.296875 
Q 45.40625 37.203125 41.296875 42.84375 
Q 37.203125 48.484375 30.078125 48.484375 
Q 22.953125 48.484375 18.875 42.84375 
Q 14.796875 37.203125 14.796875 27.296875 
z
" id="DejaVuSans-100"/>
      <path d="M 9.421875 54.6875 
L 18.40625 54.6875 
L 18.40625 0 
L 9.421875 0 
z
M 9.421875 75.984375 
L 18.40625 75.984375 
L 18.40625 64.59375 
L 9.421875 64.59375 
z
" id="DejaVuSans-105"/>
      <path d="M 52 44.1875 
Q 55.375 50.25 60.0625 53.125 
Q 64.75 56 71.09375 56 
Q 79.640625 56 84.28125 50.015625 
Q 88.921875 44.046875 88.921875 33.015625 
L 88.921875 0 
L 79.890625 0 
L 79.890625 32.71875 
Q 79.890625 40.578125 77.09375 44.375 
Q 74.3125 48.1875 68.609375 48.1875 
Q 61.625 48.1875 57.5625 43.546875 
Q 53.515625 38.921875 53.515625 30.90625 
L 53.515625 0 
L 44.484375 0 
L 44.484375 32.71875 
Q 44.484375 40.625 41.703125 44.40625 
Q 38.921875 48.1875 33.109375 48.1875 
Q 26.21875 48.1875 22.15625 43.53125 
Q 18.109375 38.875 18.109375 30.90625 
L 18.109375 0 
L 9.078125 0 
L 9.078125 54.6875 
L 18.109375 54.6875 
L 18.109375 46.1875 
Q 21.1875 51.21875 25.484375 53.609375 
Q 29.78125 56 35.6875 56 
Q 41.65625 56 45.828125 52.96875 
Q 50 49.953125 52 44.1875 
z
" id="DejaVuSans-109"/>
      <path d="M 54.890625 33.015625 
L 54.890625 0 
L 45.90625 0 
L 45.90625 32.71875 
Q 45.90625 40.484375 42.875 44.328125 
Q 39.84375 48.1875 33.796875 48.1875 
Q 26.515625 48.1875 22.3125 43.546875 
Q 18.109375 38.921875 18.109375 30.90625 
L 18.109375 0 
L 9.078125 0 
L 9.078125 54.6875 
L 18.109375 54.6875 
L 18.109375 46.1875 
Q 21.34375 51.125 25.703125 53.5625 
Q 30.078125 56 35.796875 56 
Q 45.21875 56 50.046875 50.171875 
Q 54.890625 44.34375 54.890625 33.015625 
z
" id="DejaVuSans-110"/>
      <path d="M 8.015625 75.875 
L 15.828125 75.875 
Q 23.140625 64.359375 26.78125 53.3125 
Q 30.421875 42.28125 30.421875 31.390625 
Q 30.421875 20.453125 26.78125 9.375 
Q 23.140625 -1.703125 15.828125 -13.1875 
L 8.015625 -13.1875 
Q 14.5 -2 17.703125 9.0625 
Q 20.90625 20.125 20.90625 31.390625 
Q 20.90625 42.671875 17.703125 53.65625 
Q 14.5 64.65625 8.015625 75.875 
z
" id="DejaVuSans-41"/>
     </defs>
     <g transform="translate(77.303219 342.217594)scale(0.17 -0.17)">
      <use xlink:href="#DejaVuSans-108"/>
      <use x="27.783203" xlink:href="#DejaVuSans-111"/>
      <use x="88.964844" xlink:href="#DejaVuSans-103"/>
      <use x="152.441406" xlink:href="#DejaVuSans-49"/>
      <use x="216.064453" xlink:href="#DejaVuSans-48"/>
      <use x="279.6875" xlink:href="#DejaVuSans-40"/>
      <use x="318.701172" xlink:href="#DejaVuSans-35"/>
      <use x="402.490234" xlink:href="#DejaVuSans-32"/>
      <use x="434.277344" xlink:href="#DejaVuSans-102"/>
      <use x="469.404297" xlink:href="#DejaVuSans-45"/>
      <use x="505.488281" xlink:href="#DejaVuSans-101"/>
      <use x="567.011719" xlink:href="#DejaVuSans-118"/>
      <use x="626.191406" xlink:href="#DejaVuSans-97"/>
      <use x="687.470703" xlink:href="#DejaVuSans-108"/>
      <use x="715.253906" xlink:href="#DejaVuSans-115"/>
      <use x="767.353516" xlink:href="#DejaVuSans-32"/>
      <use x="799.140625" xlink:href="#DejaVuSans-47"/>
      <use x="832.832031" xlink:href="#DejaVuSans-32"/>
      <use x="864.619141" xlink:href="#DejaVuSans-100"/>
      <use x="928.095703" xlink:href="#DejaVuSans-105"/>
      <use x="955.878906" xlink:href="#DejaVuSans-109"/>
      <use x="1053.291016" xlink:href="#DejaVuSans-101"/>
      <use x="1114.814453" xlink:href="#DejaVuSans-110"/>
      <use x="1178.193359" xlink:href="#DejaVuSans-115"/>
      <use x="1230.292969" xlink:href="#DejaVuSans-105"/>
      <use x="1258.076172" xlink:href="#DejaVuSans-111"/>
      <use x="1319.257812" xlink:href="#DejaVuSans-110"/>
      <use x="1382.636719" xlink:href="#DejaVuSans-41"/>
     </g>
    </g>
   </g>
   <g id="matplotlib.axis_2">
    <g id="ytick_1">
     <g id="line2d_21">
      <path clip-path="url(#pce35ff8c3a)" d="M 57.6 298.944 
L 338.688 298.944 
" style="fill:none;stroke:#b0b0b0;stroke-linecap:square;stroke-width:0.8;"/>
     </g>
     <g id="line2d_22">
      <defs>
       <path d="M 0 0 
L -3.5 0 
" id="mf7fd61367a" style="stroke:#000000;stroke-width:0.8;"/>
      </defs>
      <g>
       <use style="stroke:#000000;stroke-width:0.8;" x="57.6" xlink:href="#mf7fd61367a" y="298.944"/>
      </g>
     </g>
     <g id="text_6">
      <!-- 0.0 -->
      <defs>
       <path d="M 10.6875 12.40625 
L 21 12.40625 
L 21 0 
L 10.6875 0 
z
" id="DejaVuSans-46"/>
      </defs>
      <g transform="translate(25.155 305.02275)scale(0.16 -0.16)">
       <use xlink:href="#DejaVuSans-48"/>
       <use x="63.623047" xlink:href="#DejaVuSans-46"/>
       <use x="95.410156" xlink:href="#DejaVuSans-48"/>
      </g>
     </g>
    </g>
    <g id="ytick_2">
     <g id="line2d_23">
      <path clip-path="url(#pce35ff8c3a)" d="M 57.6 245.22202 
L 338.688 245.22202 
" style="fill:none;stroke:#b0b0b0;stroke-linecap:square;stroke-width:0.8;"/>
     </g>
     <g id="line2d_24">
      <g>
       <use style="stroke:#000000;stroke-width:0.8;" x="57.6" xlink:href="#mf7fd61367a" y="245.22202"/>
      </g>
     </g>
     <g id="text_7">
      <!-- 0.2 -->
      <g transform="translate(25.155 251.30077)scale(0.16 -0.16)">
       <use xlink:href="#DejaVuSans-48"/>
       <use x="63.623047" xlink:href="#DejaVuSans-46"/>
       <use x="95.410156" xlink:href="#DejaVuSans-50"/>
      </g>
     </g>
    </g>
    <g id="ytick_3">
     <g id="line2d_25">
      <path clip-path="url(#pce35ff8c3a)" d="M 57.6 191.50004 
L 338.688 191.50004 
" style="fill:none;stroke:#b0b0b0;stroke-linecap:square;stroke-width:0.8;"/>
     </g>
     <g id="line2d_26">
      <g>
       <use style="stroke:#000000;stroke-width:0.8;" x="57.6" xlink:href="#mf7fd61367a" y="191.50004"/>
      </g>
     </g>
     <g id="text_8">
      <!-- 0.4 -->
      <g transform="translate(25.155 197.57879)scale(0.16 -0.16)">
       <use xlink:href="#DejaVuSans-48"/>
       <use x="63.623047" xlink:href="#DejaVuSans-46"/>
       <use x="95.410156" xlink:href="#DejaVuSans-52"/>
      </g>
     </g>
    </g>
    <g id="ytick_4">
     <g id="line2d_27">
      <path clip-path="url(#pce35ff8c3a)" d="M 57.6 137.778059 
L 338.688 137.778059 
" style="fill:none;stroke:#b0b0b0;stroke-linecap:square;stroke-width:0.8;"/>
     </g>
     <g id="line2d_28">
      <g>
       <use style="stroke:#000000;stroke-width:0.8;" x="57.6" xlink:href="#mf7fd61367a" y="137.778059"/>
      </g>
     </g>
     <g id="text_9">
      <!-- 0.6 -->
      <g transform="translate(25.155 143.856809)scale(0.16 -0.16)">
       <use xlink:href="#DejaVuSans-48"/>
       <use x="63.623047" xlink:href="#DejaVuSans-46"/>
       <use x="95.410156" xlink:href="#DejaVuSans-54"/>
      </g>
     </g>
    </g>
    <g id="ytick_5">
     <g id="line2d_29">
      <path clip-path="url(#pce35ff8c3a)" d="M 57.6 84.056079 
L 338.688 84.056079 
" style="fill:none;stroke:#b0b0b0;stroke-linecap:square;stroke-width:0.8;"/>
     </g>
     <g id="line2d_30">
      <g>
       <use style="stroke:#000000;stroke-width:0.8;" x="57.6" xlink:href="#mf7fd61367a" y="84.056079"/>
      </g>
     </g>
     <g id="text_10">
      <!-- 0.8 -->
      <defs>
       <path d="M 31.78125 34.625 
Q 24.75 34.625 20.71875 30.859375 
Q 16.703125 27.09375 16.703125 20.515625 
Q 16.703125 13.921875 20.71875 10.15625 
Q 24.75 6.390625 31.78125 6.390625 
Q 38.8125 6.390625 42.859375 10.171875 
Q 46.921875 13.96875 46.921875 20.515625 
Q 46.921875 27.09375 42.890625 30.859375 
Q 38.875 34.625 31.78125 34.625 
z
M 21.921875 38.8125 
Q 15.578125 40.375 12.03125 44.71875 
Q 8.5 49.078125 8.5 55.328125 
Q 8.5 64.0625 14.71875 69.140625 
Q 20.953125 74.21875 31.78125 74.21875 
Q 42.671875 74.21875 48.875 69.140625 
Q 55.078125 64.0625 55.078125 55.328125 
Q 55.078125 49.078125 51.53125 44.71875 
Q 48 40.375 41.703125 38.8125 
Q 48.828125 37.15625 52.796875 32.3125 
Q 56.78125 27.484375 56.78125 20.515625 
Q 56.78125 9.90625 50.3125 4.234375 
Q 43.84375 -1.421875 31.78125 -1.421875 
Q 19.734375 -1.421875 13.25 4.234375 
Q 6.78125 9.90625 6.78125 20.515625 
Q 6.78125 27.484375 10.78125 32.3125 
Q 14.796875 37.15625 21.921875 38.8125 
z
M 18.3125 54.390625 
Q 18.3125 48.734375 21.84375 45.5625 
Q 25.390625 42.390625 31.78125 42.390625 
Q 38.140625 42.390625 41.71875 45.5625 
Q 45.3125 48.734375 45.3125 54.390625 
Q 45.3125 60.0625 41.71875 63.234375 
Q 38.140625 66.40625 31.78125 66.40625 
Q 25.390625 66.40625 21.84375 63.234375 
Q 18.3125 60.0625 18.3125 54.390625 
z
" id="DejaVuSans-56"/>
      </defs>
      <g transform="translate(25.155 90.134829)scale(0.16 -0.16)">
       <use xlink:href="#DejaVuSans-48"/>
       <use x="63.623047" xlink:href="#DejaVuSans-46"/>
       <use x="95.410156" xlink:href="#DejaVuSans-56"/>
      </g>
     </g>
    </g>
    <g id="ytick_6">
     <g id="line2d_31">
      <path clip-path="url(#pce35ff8c3a)" d="M 57.6 30.334099 
L 338.688 30.334099 
" style="fill:none;stroke:#b0b0b0;stroke-linecap:square;stroke-width:0.8;"/>
     </g>
     <g id="line2d_32">
      <g>
       <use style="stroke:#000000;stroke-width:0.8;" x="57.6" xlink:href="#mf7fd61367a" y="30.334099"/>
      </g>
     </g>
     <g id="text_11">
      <!-- 1.0 -->
      <g transform="translate(25.155 36.412849)scale(0.16 -0.16)">
       <use xlink:href="#DejaVuSans-49"/>
       <use x="63.623047" xlink:href="#DejaVuSans-46"/>
       <use x="95.410156" xlink:href="#DejaVuSans-48"/>
      </g>
     </g>
    </g>
    <g id="text_12">
     <!-- Fraction of function,target pairs -->
     <defs>
      <path d="M 9.8125 72.90625 
L 51.703125 72.90625 
L 51.703125 64.59375 
L 19.671875 64.59375 
L 19.671875 43.109375 
L 48.578125 43.109375 
L 48.578125 34.8125 
L 19.671875 34.8125 
L 19.671875 0 
L 9.8125 0 
z
" id="DejaVuSans-70"/>
      <path d="M 41.109375 46.296875 
Q 39.59375 47.171875 37.8125 47.578125 
Q 36.03125 48 33.890625 48 
Q 26.265625 48 22.1875 43.046875 
Q 18.109375 38.09375 18.109375 28.8125 
L 18.109375 0 
L 9.078125 0 
L 9.078125 54.6875 
L 18.109375 54.6875 
L 18.109375 46.1875 
Q 20.953125 51.171875 25.484375 53.578125 
Q 30.03125 56 36.53125 56 
Q 37.453125 56 38.578125 55.875 
Q 39.703125 55.765625 41.0625 55.515625 
z
" id="DejaVuSans-114"/>
      <path d="M 48.78125 52.59375 
L 48.78125 44.1875 
Q 44.96875 46.296875 41.140625 47.34375 
Q 37.3125 48.390625 33.40625 48.390625 
Q 24.65625 48.390625 19.8125 42.84375 
Q 14.984375 37.3125 14.984375 27.296875 
Q 14.984375 17.28125 19.8125 11.734375 
Q 24.65625 6.203125 33.40625 6.203125 
Q 37.3125 6.203125 41.140625 7.25 
Q 44.96875 8.296875 48.78125 10.40625 
L 48.78125 2.09375 
Q 45.015625 0.34375 40.984375 -0.53125 
Q 36.96875 -1.421875 32.421875 -1.421875 
Q 20.0625 -1.421875 12.78125 6.34375 
Q 5.515625 14.109375 5.515625 27.296875 
Q 5.515625 40.671875 12.859375 48.328125 
Q 20.21875 56 33.015625 56 
Q 37.15625 56 41.109375 55.140625 
Q 45.0625 54.296875 48.78125 52.59375 
z
" id="DejaVuSans-99"/>
      <path d="M 18.3125 70.21875 
L 18.3125 54.6875 
L 36.8125 54.6875 
L 36.8125 47.703125 
L 18.3125 47.703125 
L 18.3125 18.015625 
Q 18.3125 11.328125 20.140625 9.421875 
Q 21.96875 7.515625 27.59375 7.515625 
L 36.8125 7.515625 
L 36.8125 0 
L 27.59375 0 
Q 17.1875 0 13.234375 3.875 
Q 9.28125 7.765625 9.28125 18.015625 
L 9.28125 47.703125 
L 2.6875 47.703125 
L 2.6875 54.6875 
L 9.28125 54.6875 
L 9.28125 70.21875 
z
" id="DejaVuSans-116"/>
      <path d="M 8.5 21.578125 
L 8.5 54.6875 
L 17.484375 54.6875 
L 17.484375 21.921875 
Q 17.484375 14.15625 20.5 10.265625 
Q 23.53125 6.390625 29.59375 6.390625 
Q 36.859375 6.390625 41.078125 11.03125 
Q 45.3125 15.671875 45.3125 23.6875 
L 45.3125 54.6875 
L 54.296875 54.6875 
L 54.296875 0 
L 45.3125 0 
L 45.3125 8.40625 
Q 42.046875 3.421875 37.71875 1 
Q 33.40625 -1.421875 27.6875 -1.421875 
Q 18.265625 -1.421875 13.375 4.4375 
Q 8.5 10.296875 8.5 21.578125 
z
M 31.109375 56 
z
" id="DejaVuSans-117"/>
      <path d="M 11.71875 12.40625 
L 22.015625 12.40625 
L 22.015625 4 
L 14.015625 -11.625 
L 7.71875 -11.625 
L 11.71875 4 
z
" id="DejaVuSans-44"/>
      <path d="M 18.109375 8.203125 
L 18.109375 -20.796875 
L 9.078125 -20.796875 
L 9.078125 54.6875 
L 18.109375 54.6875 
L 18.109375 46.390625 
Q 20.953125 51.265625 25.265625 53.625 
Q 29.59375 56 35.59375 56 
Q 45.5625 56 51.78125 48.09375 
Q 58.015625 40.1875 58.015625 27.296875 
Q 58.015625 14.40625 51.78125 6.484375 
Q 45.5625 -1.421875 35.59375 -1.421875 
Q 29.59375 -1.421875 25.265625 0.953125 
Q 20.953125 3.328125 18.109375 8.203125 
z
M 48.6875 27.296875 
Q 48.6875 37.203125 44.609375 42.84375 
Q 40.53125 48.484375 33.40625 48.484375 
Q 26.265625 48.484375 22.1875 42.84375 
Q 18.109375 37.203125 18.109375 27.296875 
Q 18.109375 17.390625 22.1875 11.75 
Q 26.265625 6.109375 33.40625 6.109375 
Q 40.53125 6.109375 44.609375 11.75 
Q 48.6875 17.390625 48.6875 27.296875 
z
" id="DejaVuSans-112"/>
     </defs>
     <g transform="translate(17.619531 298.435375)rotate(-90)scale(0.17 -0.17)">
      <use xlink:href="#DejaVuSans-70"/>
      <use x="57.410156" xlink:href="#DejaVuSans-114"/>
      <use x="98.523438" xlink:href="#DejaVuSans-97"/>
      <use x="159.802734" xlink:href="#DejaVuSans-99"/>
      <use x="214.783203" xlink:href="#DejaVuSans-116"/>
      <use x="253.992188" xlink:href="#DejaVuSans-105"/>
      <use x="281.775391" xlink:href="#DejaVuSans-111"/>
      <use x="342.957031" xlink:href="#DejaVuSans-110"/>
      <use x="406.335938" xlink:href="#DejaVuSans-32"/>
      <use x="438.123047" xlink:href="#DejaVuSans-111"/>
      <use x="499.304688" xlink:href="#DejaVuSans-102"/>
      <use x="534.509766" xlink:href="#DejaVuSans-32"/>
      <use x="566.296875" xlink:href="#DejaVuSans-102"/>
      <use x="601.501953" xlink:href="#DejaVuSans-117"/>
      <use x="664.880859" xlink:href="#DejaVuSans-110"/>
      <use x="728.259766" xlink:href="#DejaVuSans-99"/>
      <use x="783.240234" xlink:href="#DejaVuSans-116"/>
      <use x="822.449219" xlink:href="#DejaVuSans-105"/>
      <use x="850.232422" xlink:href="#DejaVuSans-111"/>
      <use x="911.414062" xlink:href="#DejaVuSans-110"/>
      <use x="974.792969" xlink:href="#DejaVuSans-44"/>
      <use x="1006.580078" xlink:href="#DejaVuSans-116"/>
      <use x="1045.789062" xlink:href="#DejaVuSans-97"/>
      <use x="1107.068359" xlink:href="#DejaVuSans-114"/>
      <use x="1148.166016" xlink:href="#DejaVuSans-103"/>
      <use x="1211.642578" xlink:href="#DejaVuSans-101"/>
      <use x="1273.166016" xlink:href="#DejaVuSans-116"/>
      <use x="1312.375" xlink:href="#DejaVuSans-32"/>
      <use x="1344.162109" xlink:href="#DejaVuSans-112"/>
      <use x="1407.638672" xlink:href="#DejaVuSans-97"/>
      <use x="1468.917969" xlink:href="#DejaVuSans-105"/>
      <use x="1496.701172" xlink:href="#DejaVuSans-114"/>
      <use x="1537.814453" xlink:href="#DejaVuSans-115"/>
     </g>
    </g>
   </g>
   <g id="line2d_33">
    <defs>
     <path d="M 0 1.5 
C 0.397805 1.5 0.77937 1.341951 1.06066 1.06066 
C 1.341951 0.77937 1.5 0.397805 1.5 0 
C 1.5 -0.397805 1.341951 -0.77937 1.06066 -1.06066 
C 0.77937 -1.341951 0.397805 -1.5 0 -1.5 
C -0.397805 -1.5 -0.77937 -1.341951 -1.06066 -1.06066 
C -1.341951 -0.77937 -1.5 -0.397805 -1.5 0 
C -1.5 0.397805 -1.341951 0.77937 -1.06066 1.06066 
C -0.77937 1.341951 -0.397805 1.5 0 1.5 
z
" id="m1b3a5f15ea" style="stroke:#f5deb3;"/>
    </defs>
    <g>
     <use style="fill:#f5deb3;stroke:#f5deb3;" x="314.974468" xlink:href="#m1b3a5f15ea" y="30.334099"/>
     <use style="fill:#f5deb3;stroke:#f5deb3;" x="314.974468" xlink:href="#m1b3a5f15ea" y="30.334099"/>
    </g>
   </g>
   <g id="line2d_34">
    <defs>
     <path d="M 0 1.5 
C 0.397805 1.5 0.77937 1.341951 1.06066 1.06066 
C 1.341951 0.77937 1.5 0.397805 1.5 0 
C 1.5 -0.397805 1.341951 -0.77937 1.06066 -1.06066 
C 0.77937 -1.341951 0.397805 -1.5 0 -1.5 
C -0.397805 -1.5 -0.77937 -1.341951 -1.06066 -1.06066 
C -1.341951 -0.77937 -1.5 -0.397805 -1.5 0 
C -1.5 0.397805 -1.341951 0.77937 -1.06066 1.06066 
C -0.77937 1.341951 -0.397805 1.5 0 1.5 
z
" id="m5c2b4167d7" style="stroke:#000080;"/>
    </defs>
    <g>
     <use style="fill:#000080;stroke:#000080;" x="297.896029" xlink:href="#m5c2b4167d7" y="230.47481"/>
     <use style="fill:#000080;stroke:#000080;" x="297.896029" xlink:href="#m5c2b4167d7" y="230.47481"/>
    </g>
   </g>
   <g id="line2d_35">
    <path d="M 29.53256 298.944 
L 29.53256 293.150453 
L 53.708537 293.150453 
L 53.708537 292.623767 
L 57.6 292.623767 
L 57.6 291.570395 
L 67.850577 291.570395 
L 67.850577 290.517023 
L 69.687988 290.517023 
L 69.687988 289.990337 
L 79.938565 289.990337 
L 79.938565 289.463651 
L 87.643811 289.463651 
L 87.643811 288.936964 
L 88.846997 288.936964 
L 88.846997 288.410278 
L 89.972502 288.410278 
L 89.972502 287.883592 
L 95.125186 287.883592 
L 95.125186 287.356906 
L 96.301313 287.356906 
L 96.301313 286.83022 
L 97.043522 286.83022 
L 97.043522 286.303534 
L 102.597126 286.303534 
L 102.597126 285.776848 
L 104.826449 285.776848 
L 104.826449 284.723476 
L 105.057436 284.723476 
L 105.057436 284.19679 
L 107.009204 284.19679 
L 107.009204 283.670104 
L 107.213174 283.670104 
L 107.213174 283.143418 
L 108.198707 283.143418 
L 108.198707 282.616732 
L 110.016944 282.616732 
L 110.016944 282.090045 
L 113.594805 282.090045 
L 113.594805 281.563359 
L 116.081002 281.563359 
L 116.081002 281.036673 
L 118.470564 281.036673 
L 118.470564 280.509987 
L 118.681952 280.509987 
L 118.681952 279.983301 
L 120.571812 279.983301 
L 120.571812 279.456615 
L 122.699028 279.456615 
L 122.699028 278.929929 
L 129.686407 278.929929 
L 129.686407 278.403243 
L 130.76994 278.403243 
L 130.76994 277.876557 
L 133.443203 277.876557 
L 133.443203 277.349871 
L 137.053015 277.349871 
L 137.053015 276.823185 
L 139.188293 276.823185 
L 139.188293 276.296499 
L 139.572998 276.296499 
L 139.572998 275.769812 
L 141.69035 275.769812 
L 141.69035 275.243126 
L 142.324576 275.243126 
L 142.324576 274.71644 
L 143.578237 274.71644 
L 143.578237 274.189754 
L 144.629556 274.189754 
L 144.629556 273.663068 
L 146.172658 273.663068 
L 146.172658 273.136382 
L 146.937474 273.136382 
L 146.937474 272.609696 
L 147.061745 272.609696 
L 147.061745 272.08301 
L 147.348313 272.08301 
L 147.348313 271.556324 
L 149.195872 271.556324 
L 149.195872 271.029638 
L 149.467659 271.029638 
L 149.467659 270.502952 
L 149.788308 270.502952 
L 149.788308 269.976266 
L 150.66605 269.976266 
L 150.66605 269.449579 
L 152.811246 269.449579 
L 152.811246 268.922893 
L 155.55245 268.922893 
L 155.55245 268.396207 
L 159.497101 268.396207 
L 159.497101 267.869521 
L 162.243086 267.869521 
L 162.243086 267.342835 
L 168.888381 267.342835 
L 168.888381 266.816149 
L 170.212368 266.816149 
L 170.212368 266.289463 
L 171.066621 266.289463 
L 171.066621 265.762777 
L 177.072356 265.762777 
L 177.131335 264.709405 
L 178.263969 264.709405 
L 178.263969 264.182719 
L 178.56822 264.182719 
L 178.56822 263.656033 
L 183.206636 263.656033 
L 183.206636 263.129347 
L 184.730328 263.129347 
L 184.730328 262.075974 
L 185.425565 262.075974 
L 185.425565 261.549288 
L 185.659561 261.549288 
L 185.659561 261.022602 
L 189.224843 261.022602 
L 189.224843 260.495916 
L 189.632075 260.495916 
L 189.709172 259.442544 
L 189.964906 259.442544 
L 189.964906 258.915858 
L 191.142451 258.915858 
L 191.149041 257.862486 
L 192.61284 257.862486 
L 192.61284 257.3358 
L 200.847756 257.3358 
L 200.847756 256.809114 
L 202.22656 256.809114 
L 202.22656 256.282427 
L 203.598935 256.282427 
L 203.598935 255.755741 
L 203.739539 255.755741 
L 203.739539 255.229055 
L 203.996115 255.229055 
L 203.996115 254.702369 
L 207.166338 254.702369 
L 207.166338 254.175683 
L 214.552488 254.175683 
L 214.552488 253.648997 
L 226.904493 253.648997 
L 226.904493 253.122311 
L 227.155589 253.122311 
L 227.155589 252.595625 
L 229.585258 252.595625 
L 229.585258 252.068939 
L 230.014589 252.068939 
L 230.014589 251.542253 
L 230.508765 251.542253 
L 230.508765 251.015567 
L 231.926284 251.015567 
L 232.001624 249.435508 
L 233.7605 249.435508 
L 233.7605 248.908822 
L 234.208837 248.908822 
L 234.208837 248.382136 
L 240.919201 248.382136 
L 240.919201 247.85545 
L 242.553856 247.85545 
L 242.553856 247.328764 
L 243.073622 247.328764 
L 243.073622 246.802078 
L 243.27254 246.802078 
L 243.27254 246.275392 
L 244.60277 246.275392 
L 244.60277 245.748706 
L 245.655477 245.748706 
L 245.655477 245.22202 
L 249.418064 245.22202 
L 249.418064 244.695334 
L 250.089753 244.695334 
L 250.16532 243.641962 
L 254.331667 243.641962 
L 254.331667 243.115275 
L 254.926209 243.115275 
L 254.947409 241.535217 
L 258.741215 241.535217 
L 258.774249 239.955159 
L 261.868614 239.955159 
L 261.895317 238.375101 
L 262.74919 238.375101 
L 262.74919 237.848415 
L 264.525352 237.848415 
L 264.525352 237.321729 
L 266.831167 237.321729 
L 266.831167 236.795043 
L 272.318182 236.795043 
L 272.339449 235.74167 
L 273.832195 235.74167 
L 273.832195 235.214984 
L 280.854244 235.214984 
L 280.860059 234.161612 
L 282.675774 234.161612 
L 282.677549 233.10824 
L 283.524315 233.10824 
L 283.524315 232.581554 
L 284.33436 232.581554 
L 284.345253 231.528182 
L 293.362851 231.528182 
L 293.362851 231.001496 
L 297.896029 231.001496 
L 297.896029 230.47481 
L 338.688 230.47481 
L 338.688 230.47481 
" style="fill:none;stroke:#000080;stroke-linecap:square;stroke-width:1.5;"/>
   </g>
   <g id="line2d_36">
    <defs>
     <path d="M 0 6 
C 1.591219 6 3.117479 5.367802 4.242641 4.242641 
C 5.367802 3.117479 6 1.591219 6 0 
C 6 -1.591219 5.367802 -3.117479 4.242641 -4.242641 
C 3.117479 -5.367802 1.591219 -6 0 -6 
C -1.591219 -6 -3.117479 -5.367802 -4.242641 -4.242641 
C -5.367802 -3.117479 -6 -1.591219 -6 0 
C -6 1.591219 -5.367802 3.117479 -4.242641 4.242641 
C -3.117479 5.367802 -1.591219 6 0 6 
z
" id="m9a9f7fd8be" style="stroke:#000080;stroke-width:1.5;"/>
    </defs>
    <g>
     <use style="fill-opacity:0;stroke:#000080;stroke-width:1.5;" x="97.043522" xlink:href="#m9a9f7fd8be" y="286.303534"/>
     <use style="fill-opacity:0;stroke:#000080;stroke-width:1.5;" x="178.56822" xlink:href="#m9a9f7fd8be" y="264.182719"/>
     <use style="fill-opacity:0;stroke:#000080;stroke-width:1.5;" x="243.073622" xlink:href="#m9a9f7fd8be" y="246.802078"/>
     <use style="fill-opacity:0;stroke:#000080;stroke-width:1.5;" x="297.896029" xlink:href="#m9a9f7fd8be" y="231.001496"/>
     <use style="fill-opacity:0;stroke:#000080;stroke-width:1.5;" x="297.896029" xlink:href="#m9a9f7fd8be" y="230.47481"/>
     <use style="fill-opacity:0;stroke:#000080;stroke-width:1.5;" x="338.688" xlink:href="#m9a9f7fd8be" y="230.47481"/>
    </g>
   </g>
   <g id="line2d_37">
    <path style="fill:none;stroke:#000080;stroke-linecap:square;stroke-width:1.5;"/>
    <g/>
   </g>
   <g id="line2d_38">
    <path clip-path="url(#pce35ff8c3a)" d="M 230.359856 251.542253 
" style="fill:none;stroke:#000080;stroke-linecap:square;stroke-width:1.5;"/>
    <defs>
     <path d="M -12 12 
L 12 -12 
M -12 -12 
L 12 12 
" id="meef7e06251" style="stroke:#000080;"/>
    </defs>
    <g clip-path="url(#pce35ff8c3a)">
     <use style="fill:#000080;stroke:#000080;" x="230.359856" xlink:href="#meef7e06251" y="251.542253"/>
    </g>
   </g>
   <g id="line2d_39">
    <g>
     <use style="fill:#000080;stroke:#000080;" x="314.588697" xlink:href="#m5c2b4167d7" y="225.207949"/>
     <use style="fill:#000080;stroke:#000080;" x="314.588697" xlink:href="#m5c2b4167d7" y="225.207949"/>
    </g>
   </g>
   <g id="line2d_40">
    <path d="M 29.53256 298.944 
L 29.53256 292.623767 
L 41.620548 292.623767 
L 41.620548 291.043709 
L 69.687988 291.043709 
L 69.687988 290.517023 
L 74.263433 290.517023 
L 74.263433 289.990337 
L 82.626842 289.990337 
L 82.626842 289.463651 
L 84.955534 289.463651 
L 84.955534 288.936964 
L 86.351421 288.936964 
L 86.351421 288.410278 
L 87.643811 288.410278 
L 87.643811 287.883592 
L 89.972502 287.883592 
L 89.972502 287.356906 
L 95.918017 287.356906 
L 95.918017 286.83022 
L 97.043522 286.83022 
L 97.043522 285.776848 
L 97.755429 285.776848 
L 97.755429 285.250162 
L 102.060491 285.250162 
L 102.060491 284.723476 
L 103.623262 284.723476 
L 103.623262 284.19679 
L 105.732589 284.19679 
L 105.732589 282.616732 
L 109.131511 282.616732 
L 109.131511 282.090045 
L 109.491096 282.090045 
L 109.491096 281.563359 
L 113.167699 281.563359 
L 113.167699 281.036673 
L 115.205729 281.036673 
L 115.205729 280.509987 
L 119.89914 280.509987 
L 119.89914 279.983301 
L 121.128432 279.983301 
L 121.128432 279.456615 
L 122.018385 279.456615 
L 122.018385 278.929929 
L 123.354102 278.929929 
L 123.354102 278.403243 
L 136.380754 278.403243 
L 136.418789 277.349871 
L 136.720123 277.349871 
L 136.720123 276.823185 
L 139.667863 276.823185 
L 139.667863 276.296499 
L 145.553708 276.296499 
L 145.553708 275.769812 
L 146.019967 275.769812 
L 146.019967 275.243126 
L 147.449528 275.243126 
L 147.449528 274.71644 
L 147.848613 274.71644 
L 147.927346 273.663068 
L 148.601505 273.663068 
L 148.601505 273.136382 
L 151.501723 273.136382 
L 151.501723 272.609696 
L 157.116308 272.609696 
L 157.197287 271.029638 
L 157.517493 271.029638 
L 157.517493 270.502952 
L 157.920731 270.502952 
L 157.920731 269.976266 
L 158.238915 269.976266 
L 158.238915 269.449579 
L 158.732007 269.449579 
L 158.732007 268.922893 
L 159.314063 268.922893 
L 159.314063 268.396207 
L 160.025151 268.396207 
L 160.025151 267.869521 
L 161.840959 267.869521 
L 161.8498 266.816149 
L 162.576903 266.816149 
L 162.576903 266.289463 
L 163.094774 266.289463 
L 163.094774 265.762777 
L 163.258601 265.762777 
L 163.258601 265.236091 
L 164.063205 265.236091 
L 164.063205 264.709405 
L 172.988756 264.709405 
L 172.988756 264.182719 
L 177.463036 264.182719 
L 177.463036 263.656033 
L 179.983387 263.656033 
L 179.983387 263.129347 
L 182.237315 263.129347 
L 182.237315 262.60266 
L 183.814124 262.60266 
L 183.814124 262.075974 
L 184.562917 262.075974 
L 184.562917 261.549288 
L 186.08754 261.549288 
L 186.08754 261.022602 
L 189.067789 261.022602 
L 189.067789 260.495916 
L 189.789492 260.495916 
L 189.789492 259.96923 
L 195.52556 259.96923 
L 195.52556 259.442544 
L 196.986492 259.442544 
L 196.986492 258.915858 
L 197.451692 258.915858 
L 197.451692 257.862486 
L 199.164255 257.862486 
L 199.164255 257.3358 
L 199.814635 257.3358 
L 199.814635 256.809114 
L 200.121597 256.809114 
L 200.121597 256.282427 
L 201.872138 256.282427 
L 201.872138 255.755741 
L 203.784294 255.755741 
L 203.798655 254.702369 
L 204.058298 254.702369 
L 204.058298 254.175683 
L 205.309557 254.175683 
L 205.309557 253.648997 
L 208.120059 253.648997 
L 208.120059 253.122311 
L 208.354396 253.122311 
L 208.354396 252.595625 
L 213.128311 252.595625 
L 213.128311 252.068939 
L 213.259999 252.068939 
L 213.334475 251.015567 
L 258.487082 251.015567 
L 258.503745 249.435508 
L 258.89581 249.435508 
L 258.979505 247.85545 
L 259.014781 247.85545 
L 259.014781 247.328764 
L 259.144332 247.328764 
L 259.253501 245.22202 
L 259.339594 245.22202 
L 259.388473 243.641962 
L 259.649586 243.641962 
L 259.702099 241.008531 
L 270.51937 241.008531 
L 270.51937 240.481845 
L 270.674673 240.481845 
L 270.736595 239.428473 
L 270.879122 239.428473 
L 270.967404 238.375101 
L 271.122044 238.375101 
L 271.122044 237.848415 
L 277.595669 237.848415 
L 277.611535 236.795043 
L 277.751206 236.795043 
L 277.832139 235.74167 
L 277.997246 235.74167 
L 277.997246 235.214984 
L 282.591113 235.214984 
L 282.591113 234.688298 
L 282.828455 234.688298 
L 282.916876 233.634926 
L 286.630572 233.634926 
L 286.630572 233.10824 
L 286.749455 233.10824 
L 286.749455 232.581554 
L 289.811693 232.581554 
L 289.878471 230.47481 
L 292.465177 230.47481 
L 292.527556 228.894751 
L 294.839783 228.894751 
L 294.839783 228.368065 
L 296.83789 228.368065 
L 296.83789 227.841379 
L 298.571501 227.841379 
L 298.571501 227.314693 
L 300.320675 227.314693 
L 300.320675 226.788007 
L 309.825258 226.788007 
L 309.825258 226.261321 
L 310.72149 226.261321 
L 310.72149 225.734635 
L 314.588697 225.734635 
L 314.588697 225.207949 
L 338.688 225.207949 
L 338.688 225.207949 
" style="fill:none;stroke:#000080;stroke-linecap:square;stroke-width:1.5;"/>
   </g>
   <g id="line2d_41">
    <g>
     <use style="fill-opacity:0;stroke:#000080;stroke-width:1.5;" x="109.491096" xlink:href="#m9a9f7fd8be" y="282.090045"/>
     <use style="fill-opacity:0;stroke:#000080;stroke-width:1.5;" x="164.063205" xlink:href="#m9a9f7fd8be" y="264.709405"/>
     <use style="fill-opacity:0;stroke:#000080;stroke-width:1.5;" x="213.334475" xlink:href="#m9a9f7fd8be" y="251.015567"/>
     <use style="fill-opacity:0;stroke:#000080;stroke-width:1.5;" x="314.588697" xlink:href="#m9a9f7fd8be" y="225.207949"/>
     <use style="fill-opacity:0;stroke:#000080;stroke-width:1.5;" x="314.588697" xlink:href="#m9a9f7fd8be" y="225.207949"/>
     <use style="fill-opacity:0;stroke:#000080;stroke-width:1.5;" x="338.688" xlink:href="#m9a9f7fd8be" y="225.207949"/>
    </g>
   </g>
   <g id="line2d_42">
    <path style="fill:none;stroke:#000080;stroke-linecap:square;stroke-width:1.5;"/>
    <g/>
   </g>
   <g id="line2d_43">
    <path clip-path="url(#pce35ff8c3a)" d="M 258.398406 251.015567 
" style="fill:none;stroke:#000080;stroke-linecap:square;stroke-width:1.5;"/>
    <g clip-path="url(#pce35ff8c3a)">
     <use style="fill:#000080;stroke:#000080;" x="258.398406" xlink:href="#meef7e06251" y="251.015567"/>
    </g>
   </g>
   <g id="line2d_44">
    <defs>
     <path d="M 0 1.5 
C 0.397805 1.5 0.77937 1.341951 1.06066 1.06066 
C 1.341951 0.77937 1.5 0.397805 1.5 0 
C 1.5 -0.397805 1.341951 -0.77937 1.06066 -1.06066 
C 0.77937 -1.341951 0.397805 -1.5 0 -1.5 
C -0.397805 -1.5 -0.77937 -1.341951 -1.06066 -1.06066 
C -1.341951 -0.77937 -1.5 -0.397805 -1.5 0 
C -1.5 0.397805 -1.341951 0.77937 -1.06066 1.06066 
C -0.77937 1.341951 -0.397805 1.5 0 1.5 
z
" id="m670b3104a9" style="stroke:#ff00ff;"/>
    </defs>
    <g>
     <use style="fill:#ff00ff;stroke:#ff00ff;" x="275.783508" xlink:href="#m670b3104a9" y="235.74167"/>
     <use style="fill:#ff00ff;stroke:#ff00ff;" x="275.783508" xlink:href="#m670b3104a9" y="235.74167"/>
    </g>
   </g>
   <g id="line2d_45">
    <path d="M 29.53256 298.944 
L 29.53256 292.623767 
L 77.884514 292.623767 
L 77.884514 290.517023 
L 91.029752 290.517023 
L 91.029752 289.990337 
L 99.731799 289.990337 
L 99.731799 289.463651 
L 102.597126 289.463651 
L 102.597126 288.936964 
L 103.372333 288.936964 
L 103.372333 288.410278 
L 106.168594 288.410278 
L 106.168594 287.883592 
L 106.593963 287.883592 
L 106.593963 287.356906 
L 108.389302 287.356906 
L 108.389302 286.83022 
L 109.131511 286.83022 
L 109.131511 286.303534 
L 113.594805 286.303534 
L 113.594805 285.776848 
L 113.873839 285.776848 
L 113.873839 285.250162 
L 114.148479 285.250162 
L 114.148479 284.723476 
L 114.816733 284.723476 
L 114.816733 284.19679 
L 115.077025 284.19679 
L 115.077025 283.670104 
L 116.323218 283.670104 
L 116.323218 283.143418 
L 116.443076 283.143418 
L 116.443076 282.616732 
L 117.373392 282.616732 
L 117.373392 282.090045 
L 119.40226 282.090045 
L 119.40226 281.563359 
L 123.029641 281.563359 
L 123.029641 281.036673 
L 123.829748 281.036673 
L 123.829748 280.509987 
L 125.682793 280.509987 
L 125.682793 279.983301 
L 126.236468 279.983301 
L 126.236468 279.456615 
L 130.344571 279.456615 
L 130.344571 278.929929 
L 130.926816 278.929929 
L 130.926816 278.403243 
L 131.185181 278.403243 
L 131.185181 277.876557 
L 136.073445 277.876557 
L 136.073445 277.349871 
L 138.99271 277.349871 
L 138.99271 276.823185 
L 140.589166 276.823185 
L 140.589166 276.296499 
L 143.502469 276.296499 
L 143.502469 275.769812 
L 143.927534 275.769812 
L 143.927534 275.243126 
L 145.688202 275.243126 
L 145.688202 274.71644 
L 147.907696 274.71644 
L 147.907696 274.189754 
L 148.882639 274.189754 
L 148.956849 273.136382 
L 150.94908 273.136382 
L 150.94908 272.609696 
L 152.405838 272.609696 
L 152.405838 272.08301 
L 152.826082 272.08301 
L 152.826082 271.556324 
L 155.089774 271.556324 
L 155.089774 271.029638 
L 156.670026 271.029638 
L 156.670026 270.502952 
L 159.16005 270.502952 
L 159.190962 269.449579 
L 159.334496 269.449579 
L 159.334496 268.922893 
L 162.644595 268.922893 
L 162.644595 268.396207 
L 163.16049 268.396207 
L 163.16049 267.869521 
L 174.867186 267.869521 
L 174.867186 267.342835 
L 176.263718 267.342835 
L 176.263718 266.289463 
L 178.139377 266.289463 
L 178.139377 265.762777 
L 179.51468 265.762777 
L 179.51468 265.236091 
L 180.083094 265.236091 
L 180.083094 264.709405 
L 181.650924 264.709405 
L 181.650924 264.182719 
L 182.931748 264.182719 
L 182.931748 263.656033 
L 183.510473 263.656033 
L 183.510473 263.129347 
L 187.438654 263.129347 
L 187.438654 262.60266 
L 187.665404 262.60266 
L 187.665404 262.075974 
L 189.74313 262.075974 
L 189.74313 261.549288 
L 189.920776 261.549288 
L 189.920776 261.022602 
L 190.044059 261.022602 
L 190.044059 260.495916 
L 190.630773 260.495916 
L 190.630773 259.96923 
L 192.047924 259.96923 
L 192.047924 259.442544 
L 193.6749 259.442544 
L 193.6749 258.915858 
L 193.853548 258.915858 
L 193.853548 258.389172 
L 194.134799 258.389172 
L 194.134799 257.862486 
L 195.11316 257.862486 
L 195.11316 257.3358 
L 197.02064 257.3358 
L 197.02064 256.809114 
L 197.198533 256.809114 
L 197.198533 256.282427 
L 197.399972 256.282427 
L 197.399972 255.755741 
L 198.6362 255.755741 
L 198.6362 255.229055 
L 209.25972 255.229055 
L 209.25972 254.702369 
L 209.582663 254.702369 
L 209.582663 254.175683 
L 214.226178 254.175683 
L 214.226178 253.122311 
L 219.865772 253.122311 
L 219.865772 252.595625 
L 231.22787 252.595625 
L 231.257295 250.488881 
L 231.975648 250.488881 
L 232.045883 248.908822 
L 232.387146 248.908822 
L 232.410661 247.85545 
L 232.757966 247.85545 
L 232.757966 247.328764 
L 236.158717 247.328764 
L 236.158717 246.802078 
L 243.266402 246.802078 
L 243.266402 246.275392 
L 243.461915 246.275392 
L 243.4965 245.22202 
L 243.683472 245.22202 
L 243.683472 244.695334 
L 244.889017 244.695334 
L 244.889017 244.168648 
L 246.59273 244.168648 
L 246.59273 243.641962 
L 249.737405 243.641962 
L 249.747934 242.588589 
L 250.089641 242.588589 
L 250.089641 242.061903 
L 250.213735 242.061903 
L 250.213735 241.535217 
L 251.176452 241.535217 
L 251.176452 241.008531 
L 251.664131 241.008531 
L 251.664131 240.481845 
L 252.377073 240.481845 
L 252.377073 239.955159 
L 255.157793 239.955159 
L 255.157793 239.428473 
L 255.763763 239.428473 
L 255.763763 238.901787 
L 258.742308 238.901787 
L 258.742308 238.375101 
L 260.194938 238.375101 
L 260.194938 237.848415 
L 264.583382 237.848415 
L 264.583382 237.321729 
L 265.581585 237.321729 
L 265.581585 236.795043 
L 271.010964 236.795043 
L 271.010964 236.268356 
L 275.783508 236.268356 
L 275.783508 235.74167 
L 338.688 235.74167 
L 338.688 235.74167 
" style="fill:none;stroke:#ff00ff;stroke-linecap:square;stroke-width:1.5;"/>
   </g>
   <g id="line2d_46">
    <defs>
     <path d="M -0 8.485281 
L 5.091169 0 
L 0 -8.485281 
L -5.091169 -0 
z
" id="m2e424de4e6" style="stroke:#ff00ff;stroke-linejoin:miter;stroke-width:1.5;"/>
    </defs>
    <g>
     <use style="fill-opacity:0;stroke:#ff00ff;stroke-linejoin:miter;stroke-width:1.5;" x="147.907696" xlink:href="#m2e424de4e6" y="274.71644"/>
     <use style="fill-opacity:0;stroke:#ff00ff;stroke-linejoin:miter;stroke-width:1.5;" x="198.6362" xlink:href="#m2e424de4e6" y="255.229055"/>
     <use style="fill-opacity:0;stroke:#ff00ff;stroke-linejoin:miter;stroke-width:1.5;" x="265.581585" xlink:href="#m2e424de4e6" y="237.321729"/>
     <use style="fill-opacity:0;stroke:#ff00ff;stroke-linejoin:miter;stroke-width:1.5;" x="275.783508" xlink:href="#m2e424de4e6" y="235.74167"/>
     <use style="fill-opacity:0;stroke:#ff00ff;stroke-linejoin:miter;stroke-width:1.5;" x="338.688" xlink:href="#m2e424de4e6" y="235.74167"/>
    </g>
   </g>
   <g id="line2d_47">
    <path style="fill:none;stroke:#ff00ff;stroke-linecap:square;stroke-width:1.5;"/>
    <g/>
   </g>
   <g id="line2d_48">
    <path clip-path="url(#pce35ff8c3a)" d="M 230.334623 252.595625 
" style="fill:none;stroke:#ff00ff;stroke-linecap:square;stroke-width:1.5;"/>
    <defs>
     <path d="M -12 12 
L 12 -12 
M -12 -12 
L 12 12 
" id="m3ab532b2ed" style="stroke:#ff00ff;"/>
    </defs>
    <g clip-path="url(#pce35ff8c3a)">
     <use style="fill:#ff00ff;stroke:#ff00ff;" x="230.334623" xlink:href="#m3ab532b2ed" y="252.595625"/>
    </g>
   </g>
   <g id="line2d_49">
    <defs>
     <path d="M 0 1.5 
C 0.397805 1.5 0.77937 1.341951 1.06066 1.06066 
C 1.341951 0.77937 1.5 0.397805 1.5 0 
C 1.5 -0.397805 1.341951 -0.77937 1.06066 -1.06066 
C 0.77937 -1.341951 0.397805 -1.5 0 -1.5 
C -0.397805 -1.5 -0.77937 -1.341951 -1.06066 -1.06066 
C -1.341951 -0.77937 -1.5 -0.397805 -1.5 0 
C -1.5 0.397805 -1.341951 0.77937 -1.06066 1.06066 
C -0.77937 1.341951 -0.397805 1.5 0 1.5 
z
" id="m1e37dc55ba" style="stroke:#ff0000;"/>
    </defs>
    <g>
     <use style="fill:#ff0000;stroke:#ff0000;" x="299.98042" xlink:href="#m1e37dc55ba" y="241.008531"/>
     <use style="fill:#ff0000;stroke:#ff0000;" x="299.98042" xlink:href="#m1e37dc55ba" y="241.008531"/>
    </g>
   </g>
   <g id="line2d_50">
    <path d="M 29.53256 298.944 
L 29.53256 293.677139 
L 69.687988 293.677139 
L 69.687988 293.150453 
L 71.35013 293.150453 
L 71.35013 292.623767 
L 87.009585 292.623767 
L 87.009585 292.097081 
L 89.418828 292.097081 
L 89.418828 291.570395 
L 91.535274 291.570395 
L 91.535274 291.043709 
L 93.422441 291.043709 
L 93.422441 290.517023 
L 94.294587 290.517023 
L 94.294587 289.990337 
L 95.125186 289.990337 
L 95.125186 289.463651 
L 97.043522 289.463651 
L 97.043522 288.936964 
L 102.859376 288.936964 
L 102.859376 288.410278 
L 103.623262 288.410278 
L 103.623262 287.883592 
L 105.51043 287.883592 
L 105.51043 287.356906 
L 106.168594 287.356906 
L 106.168594 286.83022 
L 110.694282 286.83022 
L 110.694282 286.303534 
L 111.819788 286.303534 
L 111.819788 285.776848 
L 112.128456 285.776848 
L 112.128456 285.250162 
L 112.58145 285.250162 
L 112.58145 284.723476 
L 113.453595 284.723476 
L 113.453595 284.19679 
L 114.284194 284.19679 
L 114.284194 283.143418 
L 116.081002 283.143418 
L 116.081002 281.563359 
L 117.373392 281.563359 
L 117.373392 281.036673 
L 120.47729 281.036673 
L 120.47729 280.509987 
L 121.310093 280.509987 
L 121.310093 279.983301 
L 123.273551 279.983301 
L 123.273551 279.456615 
L 124.062793 279.456615 
L 124.062793 278.929929 
L 131.030622 278.929929 
L 131.030622 278.403243 
L 131.439773 278.403243 
L 131.439773 277.876557 
L 134.953107 277.876557 
L 134.953107 277.349871 
L 135.199312 277.349871 
L 135.199312 276.823185 
L 139.188293 276.823185 
L 139.188293 276.296499 
L 139.413734 276.296499 
L 139.413734 275.769812 
L 140.317849 275.769812 
L 140.317849 275.243126 
L 142.646541 275.243126 
L 142.646541 274.71644 
L 143.040814 274.71644 
L 143.040814 274.189754 
L 145.02832 274.189754 
L 145.02832 273.663068 
L 147.205618 273.663068 
L 147.205618 273.136382 
L 148.161434 273.136382 
L 148.161434 272.609696 
L 151.227591 272.609696 
L 151.227591 272.08301 
L 152.00633 272.08301 
L 152.00633 271.556324 
L 152.632227 271.556324 
L 152.632227 271.029638 
L 154.331136 271.029638 
L 154.331136 270.502952 
L 155.841748 270.502952 
L 155.841748 269.976266 
L 158.921223 269.976266 
L 158.921223 269.449579 
L 159.149734 269.449579 
L 159.149734 268.922893 
L 160.528149 268.922893 
L 160.528149 268.396207 
L 160.811875 268.396207 
L 160.811875 267.869521 
L 161.555647 267.869521 
L 161.555647 267.342835 
L 162.086834 267.342835 
L 162.086834 266.816149 
L 173.494678 266.816149 
L 173.494678 266.289463 
L 173.849174 266.289463 
L 173.849174 265.762777 
L 176.417742 265.762777 
L 176.417742 265.236091 
L 179.883107 265.236091 
L 179.883107 264.709405 
L 180.642593 264.709405 
L 180.642593 264.182719 
L 184.574928 264.182719 
L 184.639647 263.129347 
L 188.93738 263.129347 
L 188.93738 262.60266 
L 198.409558 262.60266 
L 198.409558 262.075974 
L 198.817538 262.075974 
L 198.817538 261.549288 
L 202.610672 261.549288 
L 202.610672 261.022602 
L 202.88091 261.022602 
L 202.982328 259.96923 
L 203.309358 259.96923 
L 203.309358 259.442544 
L 206.089024 259.442544 
L 206.089024 258.915858 
L 231.30414 258.915858 
L 231.30414 258.389172 
L 233.597483 258.389172 
L 233.682057 257.3358 
L 242.62406 257.3358 
L 242.62406 256.809114 
L 242.931114 256.809114 
L 242.931114 256.282427 
L 244.142157 256.282427 
L 244.167543 255.229055 
L 254.769793 255.229055 
L 254.79384 253.122311 
L 255.407073 253.122311 
L 255.427449 251.542253 
L 258.61031 251.542253 
L 258.62854 250.488881 
L 259.143965 250.488881 
L 259.143965 249.962195 
L 261.761164 249.962195 
L 261.761164 249.435508 
L 262.181583 249.435508 
L 262.194646 248.382136 
L 264.435909 248.382136 
L 264.435909 247.85545 
L 264.794919 247.85545 
L 264.810385 246.802078 
L 266.735644 246.802078 
L 266.735644 246.275392 
L 267.047324 246.275392 
L 267.047324 245.748706 
L 269.079426 245.748706 
L 269.079426 245.22202 
L 270.873075 245.22202 
L 270.873075 244.695334 
L 273.767868 244.695334 
L 273.767868 244.168648 
L 278.915901 244.168648 
L 278.915901 243.641962 
L 280.812412 243.641962 
L 280.812412 243.115275 
L 282.768278 243.115275 
L 282.768278 242.588589 
L 284.422174 242.588589 
L 284.422174 242.061903 
L 285.193638 242.061903 
L 285.193638 241.535217 
L 299.98042 241.535217 
L 299.98042 241.008531 
L 338.688 241.008531 
L 338.688 241.008531 
" style="fill:none;stroke:#ff0000;stroke-linecap:square;stroke-width:1.5;"/>
   </g>
   <g id="line2d_51">
    <defs>
     <path d="M 0 -6 
L -5.196152 -3 
L -5.196152 3 
L -0 6 
L 5.196152 3 
L 5.196152 -3 
z
" id="m8b65fa8bdd" style="stroke:#ff0000;stroke-linejoin:miter;stroke-width:1.5;"/>
    </defs>
    <g>
     <use style="fill-opacity:0;stroke:#ff0000;stroke-linejoin:miter;stroke-width:1.5;" x="97.043522" xlink:href="#m8b65fa8bdd" y="289.463651"/>
     <use style="fill-opacity:0;stroke:#ff0000;stroke-linejoin:miter;stroke-width:1.5;" x="162.086834" xlink:href="#m8b65fa8bdd" y="266.816149"/>
     <use style="fill-opacity:0;stroke:#ff0000;stroke-linejoin:miter;stroke-width:1.5;" x="231.30414" xlink:href="#m8b65fa8bdd" y="258.389172"/>
     <use style="fill-opacity:0;stroke:#ff0000;stroke-linejoin:miter;stroke-width:1.5;" x="299.98042" xlink:href="#m8b65fa8bdd" y="241.535217"/>
     <use style="fill-opacity:0;stroke:#ff0000;stroke-linejoin:miter;stroke-width:1.5;" x="299.98042" xlink:href="#m8b65fa8bdd" y="241.008531"/>
     <use style="fill-opacity:0;stroke:#ff0000;stroke-linejoin:miter;stroke-width:1.5;" x="338.688" xlink:href="#m8b65fa8bdd" y="241.008531"/>
    </g>
   </g>
   <g id="line2d_52">
    <path style="fill:none;stroke:#ff0000;stroke-linecap:square;stroke-width:1.5;"/>
    <g/>
   </g>
   <g id="line2d_53">
    <path clip-path="url(#pce35ff8c3a)" d="M 230.35429 258.915858 
" style="fill:none;stroke:#ff0000;stroke-linecap:square;stroke-width:1.5;"/>
    <defs>
     <path d="M -12 12 
L 12 -12 
M -12 -12 
L 12 12 
" id="m0754f90b70" style="stroke:#ff0000;"/>
    </defs>
    <g clip-path="url(#pce35ff8c3a)">
     <use style="fill:#ff0000;stroke:#ff0000;" x="230.35429" xlink:href="#m0754f90b70" y="258.915858"/>
    </g>
   </g>
   <g id="line2d_54">
    <defs>
     <path d="M 0 1.5 
C 0.397805 1.5 0.77937 1.341951 1.06066 1.06066 
C 1.341951 0.77937 1.5 0.397805 1.5 0 
C 1.5 -0.397805 1.341951 -0.77937 1.06066 -1.06066 
C 0.77937 -1.341951 0.397805 -1.5 0 -1.5 
C -0.397805 -1.5 -0.77937 -1.341951 -1.06066 -1.06066 
C -1.341951 -0.77937 -1.5 -0.397805 -1.5 0 
C -1.5 0.397805 -1.341951 0.77937 -1.06066 1.06066 
C -0.77937 1.341951 -0.397805 1.5 0 1.5 
z
" id="m5c2862ffd8" style="stroke:#ff7500;"/>
    </defs>
    <g>
     <use style="fill:#ff7500;stroke:#ff7500;" x="280.142551" xlink:href="#m5c2862ffd8" y="241.008531"/>
     <use style="fill:#ff7500;stroke:#ff7500;" x="280.142551" xlink:href="#m5c2862ffd8" y="241.008531"/>
    </g>
   </g>
   <g id="line2d_55">
    <path d="M 29.53256 298.944 
L 29.53256 292.623767 
L 48.691568 292.623767 
L 48.691568 292.097081 
L 53.708537 292.097081 
L 53.708537 291.570395 
L 69.687988 291.570395 
L 69.687988 291.043709 
L 71.35013 291.043709 
L 71.35013 290.517023 
L 75.555822 290.517023 
L 75.555822 289.990337 
L 76.759008 289.990337 
L 76.759008 289.463651 
L 79.938565 289.463651 
L 79.938565 288.936964 
L 87.009585 288.936964 
L 87.009585 288.410278 
L 89.418828 288.410278 
L 89.418828 287.883592 
L 92.026554 287.883592 
L 92.026554 286.83022 
L 97.043522 286.83022 
L 97.043522 286.303534 
L 97.403108 286.303534 
L 97.403108 285.776848 
L 102.859376 285.776848 
L 102.859376 285.250162 
L 103.372333 285.250162 
L 103.372333 284.723476 
L 103.870632 284.723476 
L 103.870632 284.19679 
L 105.951954 284.19679 
L 105.951954 283.670104 
L 106.593963 283.670104 
L 106.593963 283.143418 
L 111.663381 283.143418 
L 111.663381 282.616732 
L 114.0117 282.616732 
L 114.0117 282.090045 
L 114.947365 282.090045 
L 114.947365 281.563359 
L 117.259781 281.563359 
L 117.259781 281.036673 
L 120.47729 281.036673 
L 120.47729 280.509987 
L 122.615387 280.509987 
L 122.615387 279.983301 
L 123.354102 279.983301 
L 123.354102 279.456615 
L 128.411207 279.456615 
L 128.411207 278.929929 
L 131.540579 278.929929 
L 131.540579 278.403243 
L 132.422528 278.403243 
L 132.517825 277.349871 
L 134.062938 277.349871 
L 134.062938 276.823185 
L 135.44209 276.823185 
L 135.482227 275.769812 
L 143.451774 275.769812 
L 143.451774 275.243126 
L 143.952218 275.243126 
L 143.952218 274.71644 
L 145.531191 274.71644 
L 145.531191 274.189754 
L 148.956849 274.189754 
L 148.956849 273.663068 
L 150.783149 273.663068 
L 150.783149 273.136382 
L 153.221946 273.136382 
L 153.221946 272.609696 
L 153.623196 272.609696 
L 153.623196 272.08301 
L 155.463441 272.08301 
L 155.463441 271.556324 
L 157.093102 271.556324 
L 157.093102 271.029638 
L 164.333587 271.029638 
L 164.333587 270.502952 
L 164.584735 270.502952 
L 164.584735 269.976266 
L 173.621148 269.976266 
L 173.621148 269.449579 
L 176.448384 269.449579 
L 176.448384 268.922893 
L 176.74812 268.922893 
L 176.74812 268.396207 
L 177.408792 268.396207 
L 177.408792 267.869521 
L 179.485767 267.869521 
L 179.485767 267.342835 
L 179.788568 267.342835 
L 179.788568 266.816149 
L 180.033312 266.816149 
L 180.033312 266.289463 
L 180.558141 266.289463 
L 180.558141 265.762777 
L 181.161348 265.762777 
L 181.161348 265.236091 
L 182.002336 265.236091 
L 182.002336 264.709405 
L 185.248561 264.709405 
L 185.248561 264.182719 
L 187.821596 264.182719 
L 187.821596 263.656033 
L 190.213467 263.656033 
L 190.213467 263.129347 
L 191.523849 263.129347 
L 191.523849 262.60266 
L 191.867074 262.60266 
L 191.950655 261.549288 
L 193.112994 261.549288 
L 193.112994 261.022602 
L 194.739106 261.022602 
L 194.739106 260.495916 
L 212.008534 260.495916 
L 212.008534 259.96923 
L 213.289642 259.96923 
L 213.365836 258.915858 
L 231.312704 258.915858 
L 231.354802 257.862486 
L 232.138462 257.862486 
L 232.197406 256.282427 
L 235.905744 256.282427 
L 235.905744 255.755741 
L 243.348009 255.755741 
L 243.384302 253.648997 
L 245.469665 253.648997 
L 245.469665 253.122311 
L 249.867772 253.122311 
L 249.867772 252.595625 
L 250.142013 252.595625 
L 250.142013 252.068939 
L 251.570648 252.068939 
L 251.591197 251.015567 
L 259.691234 251.015567 
L 259.701581 249.962195 
L 262.660256 249.962195 
L 262.674465 248.908822 
L 264.573117 248.908822 
L 264.573117 248.382136 
L 265.221144 248.382136 
L 265.221144 247.85545 
L 266.755999 247.85545 
L 266.866637 246.802078 
L 267.42144 246.802078 
L 267.42144 246.275392 
L 269.329094 246.275392 
L 269.397846 245.22202 
L 271.118332 245.22202 
L 271.158014 244.168648 
L 272.266986 244.168648 
L 272.266986 243.641962 
L 272.769862 243.641962 
L 272.769862 243.115275 
L 274.236872 243.115275 
L 274.236872 242.588589 
L 276.839159 242.588589 
L 276.839159 242.061903 
L 280.123668 242.061903 
L 280.142551 241.008531 
L 338.688 241.008531 
L 338.688 241.008531 
" style="fill:none;stroke:#ff7500;stroke-linecap:square;stroke-width:1.5;"/>
   </g>
   <g id="line2d_56">
    <defs>
     <path d="M 0 -6 
L -1.347084 -1.854102 
L -5.706339 -1.854102 
L -2.179628 0.708204 
L -3.526712 4.854102 
L -0 2.291796 
L 3.526712 4.854102 
L 2.179628 0.708204 
L 5.706339 -1.854102 
L 1.347084 -1.854102 
z
" id="m5725bdbbaa" style="stroke:#ff7500;stroke-linejoin:bevel;stroke-width:1.5;"/>
    </defs>
    <g>
     <use style="fill-opacity:0;stroke:#ff7500;stroke-linejoin:bevel;stroke-width:1.5;" x="123.354102" xlink:href="#m5725bdbbaa" y="279.456615"/>
     <use style="fill-opacity:0;stroke:#ff7500;stroke-linejoin:bevel;stroke-width:1.5;" x="176.448384" xlink:href="#m5725bdbbaa" y="268.922893"/>
     <use style="fill-opacity:0;stroke:#ff7500;stroke-linejoin:bevel;stroke-width:1.5;" x="265.221144" xlink:href="#m5725bdbbaa" y="247.85545"/>
     <use style="fill-opacity:0;stroke:#ff7500;stroke-linejoin:bevel;stroke-width:1.5;" x="280.142551" xlink:href="#m5725bdbbaa" y="241.008531"/>
     <use style="fill-opacity:0;stroke:#ff7500;stroke-linejoin:bevel;stroke-width:1.5;" x="280.142551" xlink:href="#m5725bdbbaa" y="241.008531"/>
     <use style="fill-opacity:0;stroke:#ff7500;stroke-linejoin:bevel;stroke-width:1.5;" x="338.688" xlink:href="#m5725bdbbaa" y="241.008531"/>
    </g>
   </g>
   <g id="line2d_57">
    <path style="fill:none;stroke:#ff7500;stroke-linecap:square;stroke-width:1.5;"/>
    <g/>
   </g>
   <g id="line2d_58">
    <path clip-path="url(#pce35ff8c3a)" d="M 230.365419 258.915858 
" style="fill:none;stroke:#ff7500;stroke-linecap:square;stroke-width:1.5;"/>
    <defs>
     <path d="M -12 12 
L 12 -12 
M -12 -12 
L 12 12 
" id="m54b725f915" style="stroke:#ff7500;"/>
    </defs>
    <g clip-path="url(#pce35ff8c3a)">
     <use style="fill:#ff7500;stroke:#ff7500;" x="230.365419" xlink:href="#m54b725f915" y="258.915858"/>
    </g>
   </g>
   <g id="line2d_59">
    <defs>
     <path d="M 0 1.5 
C 0.397805 1.5 0.77937 1.341951 1.06066 1.06066 
C 1.341951 0.77937 1.5 0.397805 1.5 0 
C 1.5 -0.397805 1.341951 -0.77937 1.06066 -1.06066 
C 0.77937 -1.341951 0.397805 -1.5 0 -1.5 
C -0.397805 -1.5 -0.77937 -1.341951 -1.06066 -1.06066 
C -1.341951 -0.77937 -1.5 -0.397805 -1.5 0 
C -1.5 0.397805 -1.341951 0.77937 -1.06066 1.06066 
C -0.77937 1.341951 -0.397805 1.5 0 1.5 
z
" id="m105dccec80" style="stroke:#9acd32;"/>
    </defs>
    <g>
     <use style="fill:#9acd32;stroke:#9acd32;" x="310.684923" xlink:href="#m105dccec80" y="235.74167"/>
     <use style="fill:#9acd32;stroke:#9acd32;" x="310.684923" xlink:href="#m105dccec80" y="235.74167"/>
    </g>
   </g>
   <g id="line2d_60">
    <path d="M 29.53256 298.944 
L 29.53256 293.150453 
L 53.708537 293.150453 
L 53.708537 292.097081 
L 57.6 292.097081 
L 57.6 291.570395 
L 60.779557 291.570395 
L 60.779557 291.043709 
L 71.35013 291.043709 
L 71.35013 290.517023 
L 74.263433 290.517023 
L 74.263433 289.990337 
L 75.555822 289.990337 
L 75.555822 289.463651 
L 79.938565 289.463651 
L 79.938565 288.936964 
L 86.351421 288.936964 
L 86.351421 288.410278 
L 89.972502 288.410278 
L 89.972502 287.883592 
L 93.422441 287.883592 
L 93.422441 286.83022 
L 94.294587 286.83022 
L 94.294587 286.303534 
L 95.526106 286.303534 
L 95.526106 285.776848 
L 97.403108 285.776848 
L 97.403108 285.250162 
L 102.597126 285.250162 
L 102.597126 284.723476 
L 103.870632 284.723476 
L 103.870632 283.670104 
L 105.51043 283.670104 
L 105.51043 283.143418 
L 107.614095 283.143418 
L 107.614095 282.616732 
L 108.006005 282.616732 
L 108.006005 282.090045 
L 108.198707 282.090045 
L 108.198707 281.563359 
L 108.389302 281.563359 
L 108.389302 281.036673 
L 121.128432 281.036673 
L 121.128432 280.509987 
L 123.029641 280.509987 
L 123.029641 279.983301 
L 123.907776 279.983301 
L 123.907776 279.456615 
L 125.110962 279.456615 
L 125.110962 278.929929 
L 125.327602 278.929929 
L 125.327602 278.403243 
L 126.773103 278.403243 
L 126.773103 277.876557 
L 128.168991 277.876557 
L 128.168991 277.349871 
L 128.531065 277.349871 
L 128.531065 276.823185 
L 128.709321 276.823185 
L 128.709321 276.296499 
L 139.155847 276.296499 
L 139.155847 275.769812 
L 139.636299 275.769812 
L 139.636299 275.243126 
L 143.221802 275.243126 
L 143.324386 274.189754 
L 143.527762 274.189754 
L 143.527762 273.663068 
L 144.91198 273.663068 
L 144.91198 273.136382 
L 147.327999 273.136382 
L 147.327999 272.609696 
L 148.770728 272.609696 
L 148.770728 272.08301 
L 148.901221 272.08301 
L 148.901221 271.556324 
L 152.436193 271.556324 
L 152.436193 271.029638 
L 155.476185 271.029638 
L 155.476185 270.502952 
L 155.86668 270.502952 
L 155.86668 269.976266 
L 156.32159 269.976266 
L 156.32159 269.449579 
L 158.368898 269.449579 
L 158.368898 268.922893 
L 159.946463 268.922893 
L 160.025151 267.869521 
L 161.173949 267.869521 
L 161.173949 267.342835 
L 161.911563 267.342835 
L 161.911563 266.816149 
L 170.337772 266.816149 
L 170.337772 266.289463 
L 176.394725 266.289463 
L 176.394725 265.762777 
L 176.574218 265.762777 
L 176.574218 265.236091 
L 177.563841 265.236091 
L 177.563841 264.709405 
L 181.079377 264.709405 
L 181.079377 264.182719 
L 181.367492 264.182719 
L 181.367492 263.656033 
L 182.571833 263.656033 
L 182.571833 263.129347 
L 183.4747 263.129347 
L 183.4747 262.60266 
L 184.318499 262.60266 
L 184.318499 262.075974 
L 187.936838 262.075974 
L 187.936838 261.549288 
L 189.752056 261.549288 
L 189.752056 261.022602 
L 191.332562 261.022602 
L 191.332562 259.96923 
L 192.547589 259.96923 
L 192.547589 259.442544 
L 193.30183 259.442544 
L 193.30183 258.915858 
L 194.680013 258.915858 
L 194.680013 258.389172 
L 196.446652 258.389172 
L 196.446652 257.862486 
L 199.09755 257.862486 
L 199.09755 257.3358 
L 199.300002 257.3358 
L 199.300002 256.809114 
L 199.622156 256.809114 
L 199.622156 256.282427 
L 204.901866 256.282427 
L 204.901866 255.755741 
L 205.02867 255.755741 
L 205.02867 255.229055 
L 215.085353 255.229055 
L 215.085353 254.175683 
L 216.933992 254.175683 
L 216.933992 253.648997 
L 224.972652 253.648997 
L 224.972652 253.122311 
L 225.122865 253.122311 
L 225.122865 252.595625 
L 258.638164 252.595625 
L 258.638164 252.068939 
L 258.758422 252.068939 
L 258.838702 250.488881 
L 258.9952 250.488881 
L 259.01774 249.435508 
L 259.183373 249.435508 
L 259.209762 248.382136 
L 259.819373 248.382136 
L 259.819373 247.85545 
L 260.781157 247.85545 
L 260.823557 246.275392 
L 270.70616 246.275392 
L 270.70616 245.748706 
L 270.909002 245.748706 
L 270.909002 245.22202 
L 271.224441 245.22202 
L 271.225777 244.168648 
L 271.728039 244.168648 
L 271.742696 243.115275 
L 277.713913 243.115275 
L 277.788145 241.008531 
L 282.720213 241.008531 
L 282.731627 239.955159 
L 286.567715 239.955159 
L 286.612335 238.901787 
L 290.092135 238.901787 
L 290.092135 238.375101 
L 300.457948 238.375101 
L 300.457948 237.848415 
L 303.190437 237.848415 
L 303.191001 236.795043 
L 305.822622 236.795043 
L 305.822622 236.268356 
L 310.684923 236.268356 
L 310.684923 235.74167 
L 338.688 235.74167 
L 338.688 235.74167 
" style="fill:none;stroke:#9acd32;stroke-linecap:square;stroke-width:1.5;"/>
   </g>
   <g id="line2d_61">
    <defs>
     <path d="M 0 -6 
L -6 6 
L 6 6 
z
" id="m124bcfa455" style="stroke:#9acd32;stroke-linejoin:miter;stroke-width:1.5;"/>
    </defs>
    <g>
     <use style="fill-opacity:0;stroke:#9acd32;stroke-linejoin:miter;stroke-width:1.5;" x="79.938565" xlink:href="#m124bcfa455" y="289.463651"/>
     <use style="fill-opacity:0;stroke:#9acd32;stroke-linejoin:miter;stroke-width:1.5;" x="156.32159" xlink:href="#m124bcfa455" y="269.449579"/>
     <use style="fill-opacity:0;stroke:#9acd32;stroke-linejoin:miter;stroke-width:1.5;" x="205.02867" xlink:href="#m124bcfa455" y="255.755741"/>
     <use style="fill-opacity:0;stroke:#9acd32;stroke-linejoin:miter;stroke-width:1.5;" x="271.225777" xlink:href="#m124bcfa455" y="244.695334"/>
     <use style="fill-opacity:0;stroke:#9acd32;stroke-linejoin:miter;stroke-width:1.5;" x="310.684923" xlink:href="#m124bcfa455" y="235.74167"/>
     <use style="fill-opacity:0;stroke:#9acd32;stroke-linejoin:miter;stroke-width:1.5;" x="338.688" xlink:href="#m124bcfa455" y="235.74167"/>
    </g>
   </g>
   <g id="line2d_62">
    <path style="fill:none;stroke:#9acd32;stroke-linecap:square;stroke-width:1.5;"/>
    <g/>
   </g>
   <g id="line2d_63">
    <path clip-path="url(#pce35ff8c3a)" d="M 258.419017 252.595625 
" style="fill:none;stroke:#9acd32;stroke-linecap:square;stroke-width:1.5;"/>
    <defs>
     <path d="M -12 12 
L 12 -12 
M -12 -12 
L 12 12 
" id="m2ad7e6140f" style="stroke:#9acd32;"/>
    </defs>
    <g clip-path="url(#pce35ff8c3a)">
     <use style="fill:#9acd32;stroke:#9acd32;" x="258.419017" xlink:href="#m2ad7e6140f" y="252.595625"/>
    </g>
   </g>
   <g id="line2d_64">
    <path d="M 338.688 241.008531 
L 369.60768 293.571802 
" style="fill:none;stroke:#ff0000;stroke-linecap:square;stroke-width:1.5;"/>
    <g>
     <use style="fill-opacity:0;stroke:#ff0000;stroke-linejoin:miter;stroke-width:1.5;" x="338.688" xlink:href="#m8b65fa8bdd" y="241.008531"/>
     <use style="fill-opacity:0;stroke:#ff0000;stroke-linejoin:miter;stroke-width:1.5;" x="369.60768" xlink:href="#m8b65fa8bdd" y="293.571802"/>
    </g>
   </g>
   <g id="line2d_65">
    <path d="M 338.688 241.008531 
L 369.60768 250.594218 
" style="fill:none;stroke:#ff7500;stroke-linecap:square;stroke-width:1.5;"/>
    <g>
     <use style="fill-opacity:0;stroke:#ff7500;stroke-linejoin:bevel;stroke-width:1.5;" x="338.688" xlink:href="#m5725bdbbaa" y="241.008531"/>
     <use style="fill-opacity:0;stroke:#ff7500;stroke-linejoin:bevel;stroke-width:1.5;" x="369.60768" xlink:href="#m5725bdbbaa" y="250.594218"/>
    </g>
   </g>
   <g id="line2d_66">
    <path d="M 338.688 235.74167 
L 369.60768 207.616634 
" style="fill:none;stroke:#9acd32;stroke-linecap:square;stroke-width:1.5;"/>
    <g>
     <use style="fill-opacity:0;stroke:#9acd32;stroke-linejoin:miter;stroke-width:1.5;" x="338.688" xlink:href="#m124bcfa455" y="235.74167"/>
     <use style="fill-opacity:0;stroke:#9acd32;stroke-linejoin:miter;stroke-width:1.5;" x="369.60768" xlink:href="#m124bcfa455" y="207.616634"/>
    </g>
   </g>
   <g id="line2d_67">
    <path d="M 338.688 235.74167 
L 369.60768 164.63905 
" style="fill:none;stroke:#ff00ff;stroke-linecap:square;stroke-width:1.5;"/>
    <g>
     <use style="fill-opacity:0;stroke:#ff00ff;stroke-linejoin:miter;stroke-width:1.5;" x="338.688" xlink:href="#m2e424de4e6" y="235.74167"/>
     <use style="fill-opacity:0;stroke:#ff00ff;stroke-linejoin:miter;stroke-width:1.5;" x="369.60768" xlink:href="#m2e424de4e6" y="164.63905"/>
    </g>
   </g>
   <g id="line2d_68">
    <path d="M 338.688 230.47481 
L 369.60768 121.661465 
" style="fill:none;stroke:#000080;stroke-linecap:square;stroke-width:1.5;"/>
    <g>
     <use style="fill-opacity:0;stroke:#000080;stroke-width:1.5;" x="338.688" xlink:href="#m9a9f7fd8be" y="230.47481"/>
     <use style="fill-opacity:0;stroke:#000080;stroke-width:1.5;" x="369.60768" xlink:href="#m9a9f7fd8be" y="121.661465"/>
    </g>
   </g>
   <g id="line2d_69">
    <path d="M 338.688 225.207949 
L 369.60768 78.683881 
" style="fill:none;stroke:#000080;stroke-linecap:square;stroke-width:1.5;"/>
    <g>
     <use style="fill-opacity:0;stroke:#000080;stroke-width:1.5;" x="338.688" xlink:href="#m9a9f7fd8be" y="225.207949"/>
     <use style="fill-opacity:0;stroke:#000080;stroke-width:1.5;" x="369.60768" xlink:href="#m9a9f7fd8be" y="78.683881"/>
    </g>
   </g>
   <g id="line2d_70">
    <path d="M 338.688 298.944 
L 338.688 30.334099 
" style="fill:none;stroke:#000000;stroke-linecap:square;stroke-width:1.5;"/>
   </g>
   <g id="patch_3">
    <path d="M 57.6 298.944 
L 57.6 27.648 
" style="fill:none;stroke:#000000;stroke-linecap:square;stroke-linejoin:miter;stroke-width:0.8;"/>
   </g>
   <g id="patch_4">
    <path d="M 338.688 298.944 
L 338.688 27.648 
" style="fill:none;stroke:#000000;stroke-linecap:square;stroke-linejoin:miter;stroke-width:0.8;"/>
   </g>
   <g id="patch_5">
    <path d="M 57.6 298.944 
L 338.688 298.944 
" style="fill:none;stroke:#000000;stroke-linecap:square;stroke-linejoin:miter;stroke-width:0.8;"/>
   </g>
   <g id="patch_6">
    <path d="M 57.6 27.648 
L 338.688 27.648 
" style="fill:none;stroke:#000000;stroke-linecap:square;stroke-linejoin:miter;stroke-width:0.8;"/>
   </g>
   <g id="text_13">
    <!-- 050-2e4 -->
    <defs>
     <path d="M 10.796875 72.90625 
L 49.515625 72.90625 
L 49.515625 64.59375 
L 19.828125 64.59375 
L 19.828125 46.734375 
Q 21.96875 47.46875 24.109375 47.828125 
Q 26.265625 48.1875 28.421875 48.1875 
Q 40.625 48.1875 47.75 41.5 
Q 54.890625 34.8125 54.890625 23.390625 
Q 54.890625 11.625 47.5625 5.09375 
Q 40.234375 -1.421875 26.90625 -1.421875 
Q 22.3125 -1.421875 17.546875 -0.640625 
Q 12.796875 0.140625 7.71875 1.703125 
L 7.71875 11.625 
Q 12.109375 9.234375 16.796875 8.0625 
Q 21.484375 6.890625 26.703125 6.890625 
Q 35.15625 6.890625 40.078125 11.328125 
Q 45.015625 15.765625 45.015625 23.390625 
Q 45.015625 31 40.078125 35.4375 
Q 35.15625 39.890625 26.703125 39.890625 
Q 22.75 39.890625 18.8125 39.015625 
Q 14.890625 38.140625 10.796875 36.28125 
z
" id="DejaVuSans-53"/>
    </defs>
    <g transform="translate(375.22944 298.262739)scale(0.17 -0.17)">
     <use xlink:href="#DejaVuSans-48"/>
     <use x="63.623047" xlink:href="#DejaVuSans-53"/>
     <use x="127.246094" xlink:href="#DejaVuSans-48"/>
     <use x="190.869141" xlink:href="#DejaVuSans-45"/>
     <use x="226.953125" xlink:href="#DejaVuSans-50"/>
     <use x="290.576172" xlink:href="#DejaVuSans-101"/>
     <use x="352.099609" xlink:href="#DejaVuSans-52"/>
    </g>
   </g>
   <g id="text_14">
    <!-- 075-2e4 -->
    <defs>
     <path d="M 8.203125 72.90625 
L 55.078125 72.90625 
L 55.078125 68.703125 
L 28.609375 0 
L 18.3125 0 
L 43.21875 64.59375 
L 8.203125 64.59375 
z
" id="DejaVuSans-55"/>
    </defs>
    <g transform="translate(375.22944 255.285155)scale(0.17 -0.17)">
     <use xlink:href="#DejaVuSans-48"/>
     <use x="63.623047" xlink:href="#DejaVuSans-55"/>
     <use x="127.246094" xlink:href="#DejaVuSans-53"/>
     <use x="190.869141" xlink:href="#DejaVuSans-45"/>
     <use x="226.953125" xlink:href="#DejaVuSans-50"/>
     <use x="290.576172" xlink:href="#DejaVuSans-101"/>
     <use x="352.099609" xlink:href="#DejaVuSans-52"/>
    </g>
   </g>
   <g id="text_15">
    <!-- 080-1e5 -->
    <g transform="translate(375.22944 212.307571)scale(0.17 -0.17)">
     <use xlink:href="#DejaVuSans-48"/>
     <use x="63.623047" xlink:href="#DejaVuSans-56"/>
     <use x="127.246094" xlink:href="#DejaVuSans-48"/>
     <use x="190.869141" xlink:href="#DejaVuSans-45"/>
     <use x="226.953125" xlink:href="#DejaVuSans-49"/>
     <use x="290.576172" xlink:href="#DejaVuSans-101"/>
     <use x="352.099609" xlink:href="#DejaVuSans-53"/>
    </g>
   </g>
   <g id="text_16">
    <!-- 025-2e4 -->
    <g transform="translate(375.22944 169.329987)scale(0.17 -0.17)">
     <use xlink:href="#DejaVuSans-48"/>
     <use x="63.623047" xlink:href="#DejaVuSans-50"/>
     <use x="127.246094" xlink:href="#DejaVuSans-53"/>
     <use x="190.869141" xlink:href="#DejaVuSans-45"/>
     <use x="226.953125" xlink:href="#DejaVuSans-50"/>
     <use x="290.576172" xlink:href="#DejaVuSans-101"/>
     <use x="352.099609" xlink:href="#DejaVuSans-52"/>
    </g>
   </g>
   <g id="text_17">
    <!-- 100-2e4 -->
    <g transform="translate(375.22944 126.352403)scale(0.17 -0.17)">
     <use xlink:href="#DejaVuSans-49"/>
     <use x="63.623047" xlink:href="#DejaVuSans-48"/>
     <use x="127.246094" xlink:href="#DejaVuSans-48"/>
     <use x="190.869141" xlink:href="#DejaVuSans-45"/>
     <use x="226.953125" xlink:href="#DejaVuSans-50"/>
     <use x="290.576172" xlink:href="#DejaVuSans-101"/>
     <use x="352.099609" xlink:href="#DejaVuSans-52"/>
    </g>
   </g>
   <g id="text_18">
    <!-- 100-1e5 -->
    <g transform="translate(375.22944 83.374819)scale(0.17 -0.17)">
     <use xlink:href="#DejaVuSans-49"/>
     <use x="63.623047" xlink:href="#DejaVuSans-48"/>
     <use x="127.246094" xlink:href="#DejaVuSans-48"/>
     <use x="190.869141" xlink:href="#DejaVuSans-45"/>
     <use x="226.953125" xlink:href="#DejaVuSans-49"/>
     <use x="290.576172" xlink:href="#DejaVuSans-101"/>
     <use x="352.099609" xlink:href="#DejaVuSans-53"/>
    </g>
   </g>
   <g id="text_19">
    <!-- best 2009 -->
    <defs>
     <path d="M 48.6875 27.296875 
Q 48.6875 37.203125 44.609375 42.84375 
Q 40.53125 48.484375 33.40625 48.484375 
Q 26.265625 48.484375 22.1875 42.84375 
Q 18.109375 37.203125 18.109375 27.296875 
Q 18.109375 17.390625 22.1875 11.75 
Q 26.265625 6.109375 33.40625 6.109375 
Q 40.53125 6.109375 44.609375 11.75 
Q 48.6875 17.390625 48.6875 27.296875 
z
M 18.109375 46.390625 
Q 20.953125 51.265625 25.265625 53.625 
Q 29.59375 56 35.59375 56 
Q 45.5625 56 51.78125 48.09375 
Q 58.015625 40.1875 58.015625 27.296875 
Q 58.015625 14.40625 51.78125 6.484375 
Q 45.5625 -1.421875 35.59375 -1.421875 
Q 29.59375 -1.421875 25.265625 0.953125 
Q 20.953125 3.328125 18.109375 8.203125 
L 18.109375 0 
L 9.078125 0 
L 9.078125 75.984375 
L 18.109375 75.984375 
z
" id="DejaVuSans-98"/>
     <path d="M 10.984375 1.515625 
L 10.984375 10.5 
Q 14.703125 8.734375 18.5 7.8125 
Q 22.3125 6.890625 25.984375 6.890625 
Q 35.75 6.890625 40.890625 13.453125 
Q 46.046875 20.015625 46.78125 33.40625 
Q 43.953125 29.203125 39.59375 26.953125 
Q 35.25 24.703125 29.984375 24.703125 
Q 19.046875 24.703125 12.671875 31.3125 
Q 6.296875 37.9375 6.296875 49.421875 
Q 6.296875 60.640625 12.9375 67.421875 
Q 19.578125 74.21875 30.609375 74.21875 
Q 43.265625 74.21875 49.921875 64.515625 
Q 56.59375 54.828125 56.59375 36.375 
Q 56.59375 19.140625 48.40625 8.859375 
Q 40.234375 -1.421875 26.421875 -1.421875 
Q 22.703125 -1.421875 18.890625 -0.6875 
Q 15.09375 0.046875 10.984375 1.515625 
z
M 30.609375 32.421875 
Q 37.25 32.421875 41.125 36.953125 
Q 45.015625 41.5 45.015625 49.421875 
Q 45.015625 57.28125 41.125 61.84375 
Q 37.25 66.40625 30.609375 66.40625 
Q 23.96875 66.40625 20.09375 61.84375 
Q 16.21875 57.28125 16.21875 49.421875 
Q 16.21875 41.5 20.09375 36.953125 
Q 23.96875 32.421875 30.609375 32.421875 
z
" id="DejaVuSans-57"/>
    </defs>
    <g transform="translate(375.22944 40.397235)scale(0.17 -0.17)">
     <use xlink:href="#DejaVuSans-98"/>
     <use x="63.476562" xlink:href="#DejaVuSans-101"/>
     <use x="125" xlink:href="#DejaVuSans-115"/>
     <use x="177.099609" xlink:href="#DejaVuSans-116"/>
     <use x="216.308594" xlink:href="#DejaVuSans-32"/>
     <use x="248.095703" xlink:href="#DejaVuSans-50"/>
     <use x="311.71875" xlink:href="#DejaVuSans-48"/>
     <use x="375.341797" xlink:href="#DejaVuSans-48"/>
     <use x="438.964844" xlink:href="#DejaVuSans-57"/>
    </g>
   </g>
   <g id="text_20">
    <!-- bbob f24, 5-D -->
    <defs>
     <path d="M 19.671875 64.796875 
L 19.671875 8.109375 
L 31.59375 8.109375 
Q 46.6875 8.109375 53.6875 14.9375 
Q 60.6875 21.78125 60.6875 36.53125 
Q 60.6875 51.171875 53.6875 57.984375 
Q 46.6875 64.796875 31.59375 64.796875 
z
M 9.8125 72.90625 
L 30.078125 72.90625 
Q 51.265625 72.90625 61.171875 64.09375 
Q 71.09375 55.28125 71.09375 36.53125 
Q 71.09375 17.671875 61.125 8.828125 
Q 51.171875 0 30.078125 0 
L 9.8125 0 
z
" id="DejaVuSans-68"/>
    </defs>
    <g transform="translate(60.41088 38.111366)scale(0.102 -0.102)">
     <use xlink:href="#DejaVuSans-98"/>
     <use x="63.476562" xlink:href="#DejaVuSans-98"/>
     <use x="126.953125" xlink:href="#DejaVuSans-111"/>
     <use x="188.134766" xlink:href="#DejaVuSans-98"/>
     <use x="251.611328" xlink:href="#DejaVuSans-32"/>
     <use x="283.398438" xlink:href="#DejaVuSans-102"/>
     <use x="318.603516" xlink:href="#DejaVuSans-50"/>
     <use x="382.226562" xlink:href="#DejaVuSans-52"/>
     <use x="445.849609" xlink:href="#DejaVuSans-44"/>
     <use x="477.636719" xlink:href="#DejaVuSans-32"/>
     <use x="509.423828" xlink:href="#DejaVuSans-53"/>
     <use x="573.046875" xlink:href="#DejaVuSans-45"/>
     <use x="609.130859" xlink:href="#DejaVuSans-68"/>
    </g>
    <!-- 51 targets: 100..1e-08 -->
    <defs>
     <path d="M 11.71875 12.40625 
L 22.015625 12.40625 
L 22.015625 0 
L 11.71875 0 
z
M 11.71875 51.703125 
L 22.015625 51.703125 
L 22.015625 39.3125 
L 11.71875 39.3125 
z
" id="DejaVuSans-58"/>
    </defs>
    <g transform="translate(60.41088 49.533135)scale(0.102 -0.102)">
     <use xlink:href="#DejaVuSans-53"/>
     <use x="63.623047" xlink:href="#DejaVuSans-49"/>
     <use x="127.246094" xlink:href="#DejaVuSans-32"/>
     <use x="159.033203" xlink:href="#DejaVuSans-116"/>
     <use x="198.242188" xlink:href="#DejaVuSans-97"/>
     <use x="259.521484" xlink:href="#DejaVuSans-114"/>
     <use x="300.619141" xlink:href="#DejaVuSans-103"/>
     <use x="364.095703" xlink:href="#DejaVuSans-101"/>
     <use x="425.619141" xlink:href="#DejaVuSans-116"/>
     <use x="464.828125" xlink:href="#DejaVuSans-115"/>
     <use x="516.927734" xlink:href="#DejaVuSans-58"/>
     <use x="550.619141" xlink:href="#DejaVuSans-32"/>
     <use x="582.40625" xlink:href="#DejaVuSans-49"/>
     <use x="646.029297" xlink:href="#DejaVuSans-48"/>
     <use x="709.652344" xlink:href="#DejaVuSans-48"/>
     <use x="773.275391" xlink:href="#DejaVuSans-46"/>
     <use x="805.0625" xlink:href="#DejaVuSans-46"/>
     <use x="836.849609" xlink:href="#DejaVuSans-49"/>
     <use x="900.472656" xlink:href="#DejaVuSans-101"/>
     <use x="961.996094" xlink:href="#DejaVuSans-45"/>
     <use x="998.080078" xlink:href="#DejaVuSans-48"/>
     <use x="1061.703125" xlink:href="#DejaVuSans-56"/>
    </g>
    <!-- 15 instances -->
    <g transform="translate(60.41088 60.954904)scale(0.102 -0.102)">
     <use xlink:href="#DejaVuSans-49"/>
     <use x="63.623047" xlink:href="#DejaVuSans-53"/>
     <use x="127.246094" xlink:href="#DejaVuSans-32"/>
     <use x="159.033203" xlink:href="#DejaVuSans-105"/>
     <use x="186.816406" xlink:href="#DejaVuSans-110"/>
     <use x="250.195312" xlink:href="#DejaVuSans-115"/>
     <use x="302.294922" xlink:href="#DejaVuSans-116"/>
     <use x="341.503906" xlink:href="#DejaVuSans-97"/>
     <use x="402.783203" xlink:href="#DejaVuSans-110"/>
     <use x="466.162109" xlink:href="#DejaVuSans-99"/>
     <use x="521.142578" xlink:href="#DejaVuSans-101"/>
     <use x="582.666016" xlink:href="#DejaVuSans-115"/>
    </g>
   </g>
   <g id="text_21">
    <!-- v2.3.3.18.73 -->
    <defs>
     <path d="M 40.578125 39.3125 
Q 47.65625 37.796875 51.625 33 
Q 55.609375 28.21875 55.609375 21.1875 
Q 55.609375 10.40625 48.1875 4.484375 
Q 40.765625 -1.421875 27.09375 -1.421875 
Q 22.515625 -1.421875 17.65625 -0.515625 
Q 12.796875 0.390625 7.625 2.203125 
L 7.625 11.71875 
Q 11.71875 9.328125 16.59375 8.109375 
Q 21.484375 6.890625 26.8125 6.890625 
Q 36.078125 6.890625 40.9375 10.546875 
Q 45.796875 14.203125 45.796875 21.1875 
Q 45.796875 27.640625 41.28125 31.265625 
Q 36.765625 34.90625 28.71875 34.90625 
L 20.21875 34.90625 
L 20.21875 43.015625 
L 29.109375 43.015625 
Q 36.375 43.015625 40.234375 45.921875 
Q 44.09375 48.828125 44.09375 54.296875 
Q 44.09375 59.90625 40.109375 62.90625 
Q 36.140625 65.921875 28.71875 65.921875 
Q 24.65625 65.921875 20.015625 65.03125 
Q 15.375 64.15625 9.8125 62.3125 
L 9.8125 71.09375 
Q 15.4375 72.65625 20.34375 73.4375 
Q 25.25 74.21875 29.59375 74.21875 
Q 40.828125 74.21875 47.359375 69.109375 
Q 53.90625 64.015625 53.90625 55.328125 
Q 53.90625 49.265625 50.4375 45.09375 
Q 46.96875 40.921875 40.578125 39.3125 
z
" id="DejaVuSans-51"/>
    </defs>
    <g style="fill:#808080;" transform="translate(166.559625 294.151352)scale(0.1 -0.1)">
     <use xlink:href="#DejaVuSans-118"/>
     <use x="59.179688" xlink:href="#DejaVuSans-50"/>
     <use x="122.802734" xlink:href="#DejaVuSans-46"/>
     <use x="154.589844" xlink:href="#DejaVuSans-51"/>
     <use x="218.212891" xlink:href="#DejaVuSans-46"/>
     <use x="250" xlink:href="#DejaVuSans-51"/>
     <use x="313.623047" xlink:href="#DejaVuSans-46"/>
     <use x="345.410156" xlink:href="#DejaVuSans-49"/>
     <use x="409.033203" xlink:href="#DejaVuSans-56"/>
     <use x="472.65625" xlink:href="#DejaVuSans-46"/>
     <use x="504.443359" xlink:href="#DejaVuSans-55"/>
     <use x="568.066406" xlink:href="#DejaVuSans-51"/>
    </g>
   </g>
   <g id="text_22">
    <!-- 24 Lunacek bi-Rastrigin -->
    <defs>
     <path d="M 9.8125 72.90625 
L 19.671875 72.90625 
L 19.671875 8.296875 
L 55.171875 8.296875 
L 55.171875 0 
L 9.8125 0 
z
" id="DejaVuSans-76"/>
     <path d="M 9.078125 75.984375 
L 18.109375 75.984375 
L 18.109375 31.109375 
L 44.921875 54.6875 
L 56.390625 54.6875 
L 27.390625 29.109375 
L 57.625 0 
L 45.90625 0 
L 18.109375 26.703125 
L 18.109375 0 
L 9.078125 0 
z
" id="DejaVuSans-107"/>
     <path d="M 44.390625 34.1875 
Q 47.5625 33.109375 50.5625 29.59375 
Q 53.5625 26.078125 56.59375 19.921875 
L 66.609375 0 
L 56 0 
L 46.6875 18.703125 
Q 43.0625 26.03125 39.671875 28.421875 
Q 36.28125 30.8125 30.421875 30.8125 
L 19.671875 30.8125 
L 19.671875 0 
L 9.8125 0 
L 9.8125 72.90625 
L 32.078125 72.90625 
Q 44.578125 72.90625 50.734375 67.671875 
Q 56.890625 62.453125 56.890625 51.90625 
Q 56.890625 45.015625 53.6875 40.46875 
Q 50.484375 35.9375 44.390625 34.1875 
z
M 19.671875 64.796875 
L 19.671875 38.921875 
L 32.078125 38.921875 
Q 39.203125 38.921875 42.84375 42.21875 
Q 46.484375 45.515625 46.484375 51.90625 
Q 46.484375 58.296875 42.84375 61.546875 
Q 39.203125 64.796875 32.078125 64.796875 
z
" id="DejaVuSans-82"/>
    </defs>
    <g transform="translate(79.9565 21.648)scale(0.2 -0.2)">
     <use xlink:href="#DejaVuSans-50"/>
     <use x="63.623047" xlink:href="#DejaVuSans-52"/>
     <use x="127.246094" xlink:href="#DejaVuSans-32"/>
     <use x="159.033203" xlink:href="#DejaVuSans-76"/>
     <use x="214.730469" xlink:href="#DejaVuSans-117"/>
     <use x="278.109375" xlink:href="#DejaVuSans-110"/>
     <use x="341.488281" xlink:href="#DejaVuSans-97"/>
     <use x="402.767578" xlink:href="#DejaVuSans-99"/>
     <use x="457.748047" xlink:href="#DejaVuSans-101"/>
     <use x="519.271484" xlink:href="#DejaVuSans-107"/>
     <use x="577.181641" xlink:href="#DejaVuSans-32"/>
     <use x="608.96875" xlink:href="#DejaVuSans-98"/>
     <use x="672.445312" xlink:href="#DejaVuSans-105"/>
     <use x="700.228516" xlink:href="#DejaVuSans-45"/>
     <use x="736.3125" xlink:href="#DejaVuSans-82"/>
     <use x="805.763672" xlink:href="#DejaVuSans-97"/>
     <use x="867.042969" xlink:href="#DejaVuSans-115"/>
     <use x="919.142578" xlink:href="#DejaVuSans-116"/>
     <use x="958.351562" xlink:href="#DejaVuSans-114"/>
     <use x="999.464844" xlink:href="#DejaVuSans-105"/>
     <use x="1027.248047" xlink:href="#DejaVuSans-103"/>
     <use x="1090.724609" xlink:href="#DejaVuSans-105"/>
     <use x="1118.507812" xlink:href="#DejaVuSans-110"/>
    </g>
   </g>
  </g>
 </g>
 <defs>
  <clipPath id="pce35ff8c3a">
   <rect height="271.296" width="281.088" x="57.6" y="27.648"/>
  </clipPath>
 </defs>
</svg>
