<?xml version="1.0" encoding="utf-8" standalone="no"?>
<!DOCTYPE svg PUBLIC "-//W3C//DTD SVG 1.1//EN"
  "http://www.w3.org/Graphics/SVG/1.1/DTD/svg11.dtd">
<!-- Created with matplotlib (https://matplotlib.org/) -->
<svg height="345.6pt" version="1.1" viewBox="0 0 460.8 345.6" width="460.8pt" xmlns="http://www.w3.org/2000/svg" xmlns:xlink="http://www.w3.org/1999/xlink">
 <defs>
  <style type="text/css">
*{stroke-linecap:butt;stroke-linejoin:round;}
  </style>
 </defs>
 <g id="figure_1">
  <g id="patch_1">
   <path d="M 0 345.6 
L 460.8 345.6 
L 460.8 0 
L 0 0 
z
" style="fill:#ffffff;"/>
  </g>
  <g id="axes_1">
   <g id="patch_2">
    <path d="M 57.6 298.944 
L 338.688 298.944 
L 338.688 27.648 
L 57.6 27.648 
z
" style="fill:#ffffff;"/>
   </g>
   <g id="line2d_1">
    <path d="M 17.444571 298.944 
L 17.444571 225.207949 
L 129.51791 225.207949 
L 129.51791 219.941088 
L 179.097254 219.941088 
L 179.097254 214.674227 
L 179.120253 214.674227 
L 179.120253 209.407366 
L 179.123536 209.407366 
L 179.123536 204.140506 
L 179.154693 204.140506 
L 179.154693 198.873645 
L 179.471293 198.873645 
L 179.471293 193.606784 
L 258.092136 193.606784 
L 258.092136 188.339923 
L 258.50854 188.339923 
L 258.50854 183.073062 
L 260.168095 183.073062 
L 260.168095 177.806202 
L 262.281088 177.806202 
L 262.281088 172.539341 
L 263.795581 172.539341 
L 263.795581 167.27248 
L 263.819441 167.27248 
L 263.819441 162.005619 
L 263.843128 162.005619 
L 263.843128 156.738758 
L 263.853998 156.738758 
L 263.853998 151.471897 
L 263.871556 151.471897 
L 263.871556 146.205037 
L 263.88705 146.205037 
L 263.88705 140.938176 
L 263.907496 140.938176 
L 263.907496 135.671315 
L 263.912893 135.671315 
L 263.912893 130.404454 
L 263.926409 130.404454 
L 263.926409 125.137593 
L 263.946252 125.137593 
L 263.946252 119.870733 
L 263.964413 119.870733 
L 263.964413 114.603872 
L 263.978231 114.603872 
L 263.978231 109.337011 
L 263.997219 109.337011 
L 263.997219 104.07015 
L 264.009471 104.07015 
L 264.009471 98.803289 
L 264.028374 98.803289 
L 264.028374 93.536429 
L 264.039394 93.536429 
L 264.039394 88.269568 
L 264.047937 88.269568 
L 264.047937 83.002707 
L 264.055973 83.002707 
L 264.055973 77.735846 
L 264.072789 77.735846 
L 264.072789 72.468985 
L 264.088482 72.468985 
L 264.088482 67.202125 
L 264.110087 67.202125 
L 264.110087 61.935264 
L 264.120854 61.935264 
L 264.120854 56.668403 
L 264.130462 56.668403 
L 264.130462 51.401542 
L 264.147932 51.401542 
L 264.147932 46.134681 
L 264.162494 46.134681 
L 264.162494 40.867821 
L 264.173729 40.867821 
L 264.173729 35.60096 
L 264.192843 35.60096 
L 264.192843 30.334099 
L 338.688 30.334099 
" style="fill:none;stroke:#f5deb3;stroke-linecap:square;stroke-width:4;"/>
   </g>
   <g id="line2d_2">
    <defs>
     <path d="M -0 7.778175 
L 7.778175 0 
L 0 -7.778175 
L -7.778175 -0 
z
" id="m6124305488" style="stroke:#f5deb3;stroke-linejoin:miter;stroke-width:1.5;"/>
    </defs>
    <g>
     <use style="fill:#f5deb3;stroke:#f5deb3;stroke-linejoin:miter;stroke-width:1.5;" x="129.51791" xlink:href="#m6124305488" y="225.207949"/>
     <use style="fill:#f5deb3;stroke:#f5deb3;stroke-linejoin:miter;stroke-width:1.5;" x="179.471293" xlink:href="#m6124305488" y="193.606784"/>
     <use style="fill:#f5deb3;stroke:#f5deb3;stroke-linejoin:miter;stroke-width:1.5;" x="264.072789" xlink:href="#m6124305488" y="77.735846"/>
     <use style="fill:#f5deb3;stroke:#f5deb3;stroke-linejoin:miter;stroke-width:1.5;" x="264.192843" xlink:href="#m6124305488" y="30.334099"/>
     <use style="fill:#f5deb3;stroke:#f5deb3;stroke-linejoin:miter;stroke-width:1.5;" x="338.688" xlink:href="#m6124305488" y="30.334099"/>
    </g>
   </g>
   <g id="line2d_3">
    <path style="fill:none;stroke:#f5deb3;stroke-linecap:square;stroke-width:4;"/>
    <g/>
   </g>
   <g id="line2d_4">
    <path d="M 338.688 30.334099 
L 369.60768 35.706297 
" style="fill:none;stroke:#f5deb3;stroke-linecap:square;stroke-width:4;"/>
    <g>
     <use style="fill:#f5deb3;stroke:#f5deb3;stroke-linejoin:miter;stroke-width:1.5;" x="338.688" xlink:href="#m6124305488" y="30.334099"/>
     <use style="fill:#f5deb3;stroke:#f5deb3;stroke-linejoin:miter;stroke-width:1.5;" x="369.60768" xlink:href="#m6124305488" y="35.706297"/>
    </g>
   </g>
   <g id="matplotlib.axis_1">
    <g id="xtick_1">
     <g id="line2d_5">
      <path clip-path="url(#pb4672b8e00)" d="M 57.6 298.944 
L 57.6 27.648 
" style="fill:none;stroke:#b0b0b0;stroke-linecap:square;stroke-width:0.8;"/>
     </g>
     <g id="line2d_6">
      <defs>
       <path d="M 0 0 
L 0 3.5 
" id="mf299856c4f" style="stroke:#000000;stroke-width:0.8;"/>
      </defs>
      <g>
       <use style="stroke:#000000;stroke-width:0.8;" x="57.6" xlink:href="#mf299856c4f" y="298.944"/>
      </g>
     </g>
     <g id="text_1">
      <!-- 0 -->
      <defs>
       <path d="M 31.78125 66.40625 
Q 24.171875 66.40625 20.328125 58.90625 
Q 16.5 51.421875 16.5 36.375 
Q 16.5 21.390625 20.328125 13.890625 
Q 24.171875 6.390625 31.78125 6.390625 
Q 39.453125 6.390625 43.28125 13.890625 
Q 47.125 21.390625 47.125 36.375 
Q 47.125 51.421875 43.28125 58.90625 
Q 39.453125 66.40625 31.78125 66.40625 
z
M 31.78125 74.21875 
Q 44.046875 74.21875 50.515625 64.515625 
Q 56.984375 54.828125 56.984375 36.375 
Q 56.984375 17.96875 50.515625 8.265625 
Q 44.046875 -1.421875 31.78125 -1.421875 
Q 19.53125 -1.421875 13.0625 8.265625 
Q 6.59375 17.96875 6.59375 36.375 
Q 6.59375 54.828125 13.0625 64.515625 
Q 19.53125 74.21875 31.78125 74.21875 
z
" id="DejaVuSans-48"/>
      </defs>
      <g transform="translate(51.2375 321.140875)scale(0.2 -0.2)">
       <use xlink:href="#DejaVuSans-48"/>
      </g>
     </g>
    </g>
    <g id="xtick_2">
     <g id="line2d_7">
      <path clip-path="url(#pb4672b8e00)" d="M 137.910857 298.944 
L 137.910857 27.648 
" style="fill:none;stroke:#b0b0b0;stroke-linecap:square;stroke-width:0.8;"/>
     </g>
     <g id="line2d_8">
      <g>
       <use style="stroke:#000000;stroke-width:0.8;" x="137.910857" xlink:href="#mf299856c4f" y="298.944"/>
      </g>
     </g>
     <g id="text_2">
      <!-- 2 -->
      <defs>
       <path d="M 19.1875 8.296875 
L 53.609375 8.296875 
L 53.609375 0 
L 7.328125 0 
L 7.328125 8.296875 
Q 12.9375 14.109375 22.625 23.890625 
Q 32.328125 33.6875 34.8125 36.53125 
Q 39.546875 41.84375 41.421875 45.53125 
Q 43.3125 49.21875 43.3125 52.78125 
Q 43.3125 58.59375 39.234375 62.25 
Q 35.15625 65.921875 28.609375 65.921875 
Q 23.96875 65.921875 18.8125 64.3125 
Q 13.671875 62.703125 7.8125 59.421875 
L 7.8125 69.390625 
Q 13.765625 71.78125 18.9375 73 
Q 24.125 74.21875 28.421875 74.21875 
Q 39.75 74.21875 46.484375 68.546875 
Q 53.21875 62.890625 53.21875 53.421875 
Q 53.21875 48.921875 51.53125 44.890625 
Q 49.859375 40.875 45.40625 35.40625 
Q 44.1875 33.984375 37.640625 27.21875 
Q 31.109375 20.453125 19.1875 8.296875 
z
" id="DejaVuSans-50"/>
      </defs>
      <g transform="translate(131.548357 321.140875)scale(0.2 -0.2)">
       <use xlink:href="#DejaVuSans-50"/>
      </g>
     </g>
    </g>
    <g id="xtick_3">
     <g id="line2d_9">
      <path clip-path="url(#pb4672b8e00)" d="M 218.221714 298.944 
L 218.221714 27.648 
" style="fill:none;stroke:#b0b0b0;stroke-linecap:square;stroke-width:0.8;"/>
     </g>
     <g id="line2d_10">
      <g>
       <use style="stroke:#000000;stroke-width:0.8;" x="218.221714" xlink:href="#mf299856c4f" y="298.944"/>
      </g>
     </g>
     <g id="text_3">
      <!-- 4 -->
      <defs>
       <path d="M 37.796875 64.3125 
L 12.890625 25.390625 
L 37.796875 25.390625 
z
M 35.203125 72.90625 
L 47.609375 72.90625 
L 47.609375 25.390625 
L 58.015625 25.390625 
L 58.015625 17.1875 
L 47.609375 17.1875 
L 47.609375 0 
L 37.796875 0 
L 37.796875 17.1875 
L 4.890625 17.1875 
L 4.890625 26.703125 
z
" id="DejaVuSans-52"/>
      </defs>
      <g transform="translate(211.859214 321.140875)scale(0.2 -0.2)">
       <use xlink:href="#DejaVuSans-52"/>
      </g>
     </g>
    </g>
    <g id="xtick_4">
     <g id="line2d_11">
      <path clip-path="url(#pb4672b8e00)" d="M 298.532571 298.944 
L 298.532571 27.648 
" style="fill:none;stroke:#b0b0b0;stroke-linecap:square;stroke-width:0.8;"/>
     </g>
     <g id="line2d_12">
      <g>
       <use style="stroke:#000000;stroke-width:0.8;" x="298.532571" xlink:href="#mf299856c4f" y="298.944"/>
      </g>
     </g>
     <g id="text_4">
      <!-- 6 -->
      <defs>
       <path d="M 33.015625 40.375 
Q 26.375 40.375 22.484375 35.828125 
Q 18.609375 31.296875 18.609375 23.390625 
Q 18.609375 15.53125 22.484375 10.953125 
Q 26.375 6.390625 33.015625 6.390625 
Q 39.65625 6.390625 43.53125 10.953125 
Q 47.40625 15.53125 47.40625 23.390625 
Q 47.40625 31.296875 43.53125 35.828125 
Q 39.65625 40.375 33.015625 40.375 
z
M 52.59375 71.296875 
L 52.59375 62.3125 
Q 48.875 64.0625 45.09375 64.984375 
Q 41.3125 65.921875 37.59375 65.921875 
Q 27.828125 65.921875 22.671875 59.328125 
Q 17.53125 52.734375 16.796875 39.40625 
Q 19.671875 43.65625 24.015625 45.921875 
Q 28.375 48.1875 33.59375 48.1875 
Q 44.578125 48.1875 50.953125 41.515625 
Q 57.328125 34.859375 57.328125 23.390625 
Q 57.328125 12.15625 50.6875 5.359375 
Q 44.046875 -1.421875 33.015625 -1.421875 
Q 20.359375 -1.421875 13.671875 8.265625 
Q 6.984375 17.96875 6.984375 36.375 
Q 6.984375 53.65625 15.1875 63.9375 
Q 23.390625 74.21875 37.203125 74.21875 
Q 40.921875 74.21875 44.703125 73.484375 
Q 48.484375 72.75 52.59375 71.296875 
z
" id="DejaVuSans-54"/>
      </defs>
      <g transform="translate(292.170071 321.140875)scale(0.2 -0.2)">
       <use xlink:href="#DejaVuSans-54"/>
      </g>
     </g>
    </g>
    <g id="xtick_5">
     <g id="line2d_13">
      <path clip-path="url(#pb4672b8e00)" d="M 97.755429 298.944 
L 97.755429 27.648 
" style="fill:none;stroke:#b0b0b0;stroke-linecap:square;stroke-width:0.8;"/>
     </g>
     <g id="line2d_14">
      <defs>
       <path d="M 0 0 
L 0 2 
" id="ma16040fa08" style="stroke:#000000;stroke-width:0.6;"/>
      </defs>
      <g>
       <use style="stroke:#000000;stroke-width:0.6;" x="97.755429" xlink:href="#ma16040fa08" y="298.944"/>
      </g>
     </g>
    </g>
    <g id="xtick_6">
     <g id="line2d_15">
      <path clip-path="url(#pb4672b8e00)" d="M 178.066286 298.944 
L 178.066286 27.648 
" style="fill:none;stroke:#b0b0b0;stroke-linecap:square;stroke-width:0.8;"/>
     </g>
     <g id="line2d_16">
      <g>
       <use style="stroke:#000000;stroke-width:0.6;" x="178.066286" xlink:href="#ma16040fa08" y="298.944"/>
      </g>
     </g>
    </g>
    <g id="xtick_7">
     <g id="line2d_17">
      <path clip-path="url(#pb4672b8e00)" d="M 258.377143 298.944 
L 258.377143 27.648 
" style="fill:none;stroke:#b0b0b0;stroke-linecap:square;stroke-width:0.8;"/>
     </g>
     <g id="line2d_18">
      <g>
       <use style="stroke:#000000;stroke-width:0.6;" x="258.377143" xlink:href="#ma16040fa08" y="298.944"/>
      </g>
     </g>
    </g>
    <g id="xtick_8">
     <g id="line2d_19">
      <path clip-path="url(#pb4672b8e00)" d="M 338.688 298.944 
L 338.688 27.648 
" style="fill:none;stroke:#b0b0b0;stroke-linecap:square;stroke-width:0.8;"/>
     </g>
     <g id="line2d_20">
      <g>
       <use style="stroke:#000000;stroke-width:0.6;" x="338.688" xlink:href="#ma16040fa08" y="298.944"/>
      </g>
     </g>
    </g>
    <g id="text_5">
     <!-- log10(# f-evals / dimension) -->
     <defs>
      <path d="M 9.421875 75.984375 
L 18.40625 75.984375 
L 18.40625 0 
L 9.421875 0 
z
" id="DejaVuSans-108"/>
      <path d="M 30.609375 48.390625 
Q 23.390625 48.390625 19.1875 42.75 
Q 14.984375 37.109375 14.984375 27.296875 
Q 14.984375 17.484375 19.15625 11.84375 
Q 23.34375 6.203125 30.609375 6.203125 
Q 37.796875 6.203125 41.984375 11.859375 
Q 46.1875 17.53125 46.1875 27.296875 
Q 46.1875 37.015625 41.984375 42.703125 
Q 37.796875 48.390625 30.609375 48.390625 
z
M 30.609375 56 
Q 42.328125 56 49.015625 48.375 
Q 55.71875 40.765625 55.71875 27.296875 
Q 55.71875 13.875 49.015625 6.21875 
Q 42.328125 -1.421875 30.609375 -1.421875 
Q 18.84375 -1.421875 12.171875 6.21875 
Q 5.515625 13.875 5.515625 27.296875 
Q 5.515625 40.765625 12.171875 48.375 
Q 18.84375 56 30.609375 56 
z
" id="DejaVuSans-111"/>
      <path d="M 45.40625 27.984375 
Q 45.40625 37.75 41.375 43.109375 
Q 37.359375 48.484375 30.078125 48.484375 
Q 22.859375 48.484375 18.828125 43.109375 
Q 14.796875 37.75 14.796875 27.984375 
Q 14.796875 18.265625 18.828125 12.890625 
Q 22.859375 7.515625 30.078125 7.515625 
Q 37.359375 7.515625 41.375 12.890625 
Q 45.40625 18.265625 45.40625 27.984375 
z
M 54.390625 6.78125 
Q 54.390625 -7.171875 48.1875 -13.984375 
Q 42 -20.796875 29.203125 -20.796875 
Q 24.46875 -20.796875 20.265625 -20.09375 
Q 16.0625 -19.390625 12.109375 -17.921875 
L 12.109375 -9.1875 
Q 16.0625 -11.328125 19.921875 -12.34375 
Q 23.78125 -13.375 27.78125 -13.375 
Q 36.625 -13.375 41.015625 -8.765625 
Q 45.40625 -4.15625 45.40625 5.171875 
L 45.40625 9.625 
Q 42.625 4.78125 38.28125 2.390625 
Q 33.9375 0 27.875 0 
Q 17.828125 0 11.671875 7.65625 
Q 5.515625 15.328125 5.515625 27.984375 
Q 5.515625 40.671875 11.671875 48.328125 
Q 17.828125 56 27.875 56 
Q 33.9375 56 38.28125 53.609375 
Q 42.625 51.21875 45.40625 46.390625 
L 45.40625 54.6875 
L 54.390625 54.6875 
z
" id="DejaVuSans-103"/>
      <path d="M 12.40625 8.296875 
L 28.515625 8.296875 
L 28.515625 63.921875 
L 10.984375 60.40625 
L 10.984375 69.390625 
L 28.421875 72.90625 
L 38.28125 72.90625 
L 38.28125 8.296875 
L 54.390625 8.296875 
L 54.390625 0 
L 12.40625 0 
z
" id="DejaVuSans-49"/>
      <path d="M 31 75.875 
Q 24.46875 64.65625 21.28125 53.65625 
Q 18.109375 42.671875 18.109375 31.390625 
Q 18.109375 20.125 21.3125 9.0625 
Q 24.515625 -2 31 -13.1875 
L 23.1875 -13.1875 
Q 15.875 -1.703125 12.234375 9.375 
Q 8.59375 20.453125 8.59375 31.390625 
Q 8.59375 42.28125 12.203125 53.3125 
Q 15.828125 64.359375 23.1875 75.875 
z
" id="DejaVuSans-40"/>
      <path d="M 51.125 44 
L 36.921875 44 
L 32.8125 27.6875 
L 47.125 27.6875 
z
M 43.796875 71.78125 
L 38.71875 51.515625 
L 52.984375 51.515625 
L 58.109375 71.78125 
L 65.921875 71.78125 
L 60.890625 51.515625 
L 76.125 51.515625 
L 76.125 44 
L 58.984375 44 
L 54.984375 27.6875 
L 70.515625 27.6875 
L 70.515625 20.21875 
L 53.078125 20.21875 
L 48 0 
L 40.1875 0 
L 45.21875 20.21875 
L 30.90625 20.21875 
L 25.875 0 
L 18.015625 0 
L 23.09375 20.21875 
L 7.71875 20.21875 
L 7.71875 27.6875 
L 24.90625 27.6875 
L 29 44 
L 13.28125 44 
L 13.28125 51.515625 
L 30.90625 51.515625 
L 35.890625 71.78125 
z
" id="DejaVuSans-35"/>
      <path id="DejaVuSans-32"/>
      <path d="M 37.109375 75.984375 
L 37.109375 68.5 
L 28.515625 68.5 
Q 23.6875 68.5 21.796875 66.546875 
Q 19.921875 64.59375 19.921875 59.515625 
L 19.921875 54.6875 
L 34.71875 54.6875 
L 34.71875 47.703125 
L 19.921875 47.703125 
L 19.921875 0 
L 10.890625 0 
L 10.890625 47.703125 
L 2.296875 47.703125 
L 2.296875 54.6875 
L 10.890625 54.6875 
L 10.890625 58.5 
Q 10.890625 67.625 15.140625 71.796875 
Q 19.390625 75.984375 28.609375 75.984375 
z
" id="DejaVuSans-102"/>
      <path d="M 4.890625 31.390625 
L 31.203125 31.390625 
L 31.203125 23.390625 
L 4.890625 23.390625 
z
" id="DejaVuSans-45"/>
      <path d="M 56.203125 29.59375 
L 56.203125 25.203125 
L 14.890625 25.203125 
Q 15.484375 15.921875 20.484375 11.0625 
Q 25.484375 6.203125 34.421875 6.203125 
Q 39.59375 6.203125 44.453125 7.46875 
Q 49.3125 8.734375 54.109375 11.28125 
L 54.109375 2.78125 
Q 49.265625 0.734375 44.1875 -0.34375 
Q 39.109375 -1.421875 33.890625 -1.421875 
Q 20.796875 -1.421875 13.15625 6.1875 
Q 5.515625 13.8125 5.515625 26.8125 
Q 5.515625 40.234375 12.765625 48.109375 
Q 20.015625 56 32.328125 56 
Q 43.359375 56 49.78125 48.890625 
Q 56.203125 41.796875 56.203125 29.59375 
z
M 47.21875 32.234375 
Q 47.125 39.59375 43.09375 43.984375 
Q 39.0625 48.390625 32.421875 48.390625 
Q 24.90625 48.390625 20.390625 44.140625 
Q 15.875 39.890625 15.1875 32.171875 
z
" id="DejaVuSans-101"/>
      <path d="M 2.984375 54.6875 
L 12.5 54.6875 
L 29.59375 8.796875 
L 46.6875 54.6875 
L 56.203125 54.6875 
L 35.6875 0 
L 23.484375 0 
z
" id="DejaVuSans-118"/>
      <path d="M 34.28125 27.484375 
Q 23.390625 27.484375 19.1875 25 
Q 14.984375 22.515625 14.984375 16.5 
Q 14.984375 11.71875 18.140625 8.90625 
Q 21.296875 6.109375 26.703125 6.109375 
Q 34.1875 6.109375 38.703125 11.40625 
Q 43.21875 16.703125 43.21875 25.484375 
L 43.21875 27.484375 
z
M 52.203125 31.203125 
L 52.203125 0 
L 43.21875 0 
L 43.21875 8.296875 
Q 40.140625 3.328125 35.546875 0.953125 
Q 30.953125 -1.421875 24.3125 -1.421875 
Q 15.921875 -1.421875 10.953125 3.296875 
Q 6 8.015625 6 15.921875 
Q 6 25.140625 12.171875 29.828125 
Q 18.359375 34.515625 30.609375 34.515625 
L 43.21875 34.515625 
L 43.21875 35.40625 
Q 43.21875 41.609375 39.140625 45 
Q 35.0625 48.390625 27.6875 48.390625 
Q 23 48.390625 18.546875 47.265625 
Q 14.109375 46.140625 10.015625 43.890625 
L 10.015625 52.203125 
Q 14.9375 54.109375 19.578125 55.046875 
Q 24.21875 56 28.609375 56 
Q 40.484375 56 46.34375 49.84375 
Q 52.203125 43.703125 52.203125 31.203125 
z
" id="DejaVuSans-97"/>
      <path d="M 44.28125 53.078125 
L 44.28125 44.578125 
Q 40.484375 46.53125 36.375 47.5 
Q 32.28125 48.484375 27.875 48.484375 
Q 21.1875 48.484375 17.84375 46.4375 
Q 14.5 44.390625 14.5 40.28125 
Q 14.5 37.15625 16.890625 35.375 
Q 19.28125 33.59375 26.515625 31.984375 
L 29.59375 31.296875 
Q 39.15625 29.25 43.1875 25.515625 
Q 47.21875 21.78125 47.21875 15.09375 
Q 47.21875 7.46875 41.1875 3.015625 
Q 35.15625 -1.421875 24.609375 -1.421875 
Q 20.21875 -1.421875 15.453125 -0.5625 
Q 10.6875 0.296875 5.421875 2 
L 5.421875 11.28125 
Q 10.40625 8.6875 15.234375 7.390625 
Q 20.0625 6.109375 24.8125 6.109375 
Q 31.15625 6.109375 34.5625 8.28125 
Q 37.984375 10.453125 37.984375 14.40625 
Q 37.984375 18.0625 35.515625 20.015625 
Q 33.0625 21.96875 24.703125 23.78125 
L 21.578125 24.515625 
Q 13.234375 26.265625 9.515625 29.90625 
Q 5.8125 33.546875 5.8125 39.890625 
Q 5.8125 47.609375 11.28125 51.796875 
Q 16.75 56 26.8125 56 
Q 31.78125 56 36.171875 55.265625 
Q 40.578125 54.546875 44.28125 53.078125 
z
" id="DejaVuSans-115"/>
      <path d="M 25.390625 72.90625 
L 33.6875 72.90625 
L 8.296875 -9.28125 
L 0 -9.28125 
z
" id="DejaVuSans-47"/>
      <path d="M 45.40625 46.390625 
L 45.40625 75.984375 
L 54.390625 75.984375 
L 54.390625 0 
L 45.40625 0 
L 45.40625 8.203125 
Q 42.578125 3.328125 38.25 0.953125 
Q 33.9375 -1.421875 27.875 -1.421875 
Q 17.96875 -1.421875 11.734375 6.484375 
Q 5.515625 14.40625 5.515625 27.296875 
Q 5.515625 40.1875 11.734375 48.09375 
Q 17.96875 56 27.875 56 
Q 33.9375 56 38.25 53.625 
Q 42.578125 51.265625 45.40625 46.390625 
z
M 14.796875 27.296875 
Q 14.796875 17.390625 18.875 11.75 
Q 22.953125 6.109375 30.078125 6.109375 
Q 37.203125 6.109375 41.296875 11.75 
Q 45.40625 17.390625 45.40625 27.296875 
Q 45.40625 37.203125 41.296875 42.84375 
Q 37.203125 48.484375 30.078125 48.484375 
Q 22.953125 48.484375 18.875 42.84375 
Q 14.796875 37.203125 14.796875 27.296875 
z
" id="DejaVuSans-100"/>
      <path d="M 9.421875 54.6875 
L 18.40625 54.6875 
L 18.40625 0 
L 9.421875 0 
z
M 9.421875 75.984375 
L 18.40625 75.984375 
L 18.40625 64.59375 
L 9.421875 64.59375 
z
" id="DejaVuSans-105"/>
      <path d="M 52 44.1875 
Q 55.375 50.25 60.0625 53.125 
Q 64.75 56 71.09375 56 
Q 79.640625 56 84.28125 50.015625 
Q 88.921875 44.046875 88.921875 33.015625 
L 88.921875 0 
L 79.890625 0 
L 79.890625 32.71875 
Q 79.890625 40.578125 77.09375 44.375 
Q 74.3125 48.1875 68.609375 48.1875 
Q 61.625 48.1875 57.5625 43.546875 
Q 53.515625 38.921875 53.515625 30.90625 
L 53.515625 0 
L 44.484375 0 
L 44.484375 32.71875 
Q 44.484375 40.625 41.703125 44.40625 
Q 38.921875 48.1875 33.109375 48.1875 
Q 26.21875 48.1875 22.15625 43.53125 
Q 18.109375 38.875 18.109375 30.90625 
L 18.109375 0 
L 9.078125 0 
L 9.078125 54.6875 
L 18.109375 54.6875 
L 18.109375 46.1875 
Q 21.1875 51.21875 25.484375 53.609375 
Q 29.78125 56 35.6875 56 
Q 41.65625 56 45.828125 52.96875 
Q 50 49.953125 52 44.1875 
z
" id="DejaVuSans-109"/>
      <path d="M 54.890625 33.015625 
L 54.890625 0 
L 45.90625 0 
L 45.90625 32.71875 
Q 45.90625 40.484375 42.875 44.328125 
Q 39.84375 48.1875 33.796875 48.1875 
Q 26.515625 48.1875 22.3125 43.546875 
Q 18.109375 38.921875 18.109375 30.90625 
L 18.109375 0 
L 9.078125 0 
L 9.078125 54.6875 
L 18.109375 54.6875 
L 18.109375 46.1875 
Q 21.34375 51.125 25.703125 53.5625 
Q 30.078125 56 35.796875 56 
Q 45.21875 56 50.046875 50.171875 
Q 54.890625 44.34375 54.890625 33.015625 
z
" id="DejaVuSans-110"/>
      <path d="M 8.015625 75.875 
L 15.828125 75.875 
Q 23.140625 64.359375 26.78125 53.3125 
Q 30.421875 42.28125 30.421875 31.390625 
Q 30.421875 20.453125 26.78125 9.375 
Q 23.140625 -1.703125 15.828125 -13.1875 
L 8.015625 -13.1875 
Q 14.5 -2 17.703125 9.0625 
Q 20.90625 20.125 20.90625 31.390625 
Q 20.90625 42.671875 17.703125 53.65625 
Q 14.5 64.65625 8.015625 75.875 
z
" id="DejaVuSans-41"/>
     </defs>
     <g transform="translate(77.303219 342.217594)scale(0.17 -0.17)">
      <use xlink:href="#DejaVuSans-108"/>
      <use x="27.783203" xlink:href="#DejaVuSans-111"/>
      <use x="88.964844" xlink:href="#DejaVuSans-103"/>
      <use x="152.441406" xlink:href="#DejaVuSans-49"/>
      <use x="216.064453" xlink:href="#DejaVuSans-48"/>
      <use x="279.6875" xlink:href="#DejaVuSans-40"/>
      <use x="318.701172" xlink:href="#DejaVuSans-35"/>
      <use x="402.490234" xlink:href="#DejaVuSans-32"/>
      <use x="434.277344" xlink:href="#DejaVuSans-102"/>
      <use x="469.404297" xlink:href="#DejaVuSans-45"/>
      <use x="505.488281" xlink:href="#DejaVuSans-101"/>
      <use x="567.011719" xlink:href="#DejaVuSans-118"/>
      <use x="626.191406" xlink:href="#DejaVuSans-97"/>
      <use x="687.470703" xlink:href="#DejaVuSans-108"/>
      <use x="715.253906" xlink:href="#DejaVuSans-115"/>
      <use x="767.353516" xlink:href="#DejaVuSans-32"/>
      <use x="799.140625" xlink:href="#DejaVuSans-47"/>
      <use x="832.832031" xlink:href="#DejaVuSans-32"/>
      <use x="864.619141" xlink:href="#DejaVuSans-100"/>
      <use x="928.095703" xlink:href="#DejaVuSans-105"/>
      <use x="955.878906" xlink:href="#DejaVuSans-109"/>
      <use x="1053.291016" xlink:href="#DejaVuSans-101"/>
      <use x="1114.814453" xlink:href="#DejaVuSans-110"/>
      <use x="1178.193359" xlink:href="#DejaVuSans-115"/>
      <use x="1230.292969" xlink:href="#DejaVuSans-105"/>
      <use x="1258.076172" xlink:href="#DejaVuSans-111"/>
      <use x="1319.257812" xlink:href="#DejaVuSans-110"/>
      <use x="1382.636719" xlink:href="#DejaVuSans-41"/>
     </g>
    </g>
   </g>
   <g id="matplotlib.axis_2">
    <g id="ytick_1">
     <g id="line2d_21">
      <path clip-path="url(#pb4672b8e00)" d="M 57.6 298.944 
L 338.688 298.944 
" style="fill:none;stroke:#b0b0b0;stroke-linecap:square;stroke-width:0.8;"/>
     </g>
     <g id="line2d_22">
      <defs>
       <path d="M 0 0 
L -3.5 0 
" id="mc4a3ad1ab2" style="stroke:#000000;stroke-width:0.8;"/>
      </defs>
      <g>
       <use style="stroke:#000000;stroke-width:0.8;" x="57.6" xlink:href="#mc4a3ad1ab2" y="298.944"/>
      </g>
     </g>
     <g id="text_6">
      <!-- 0.0 -->
      <defs>
       <path d="M 10.6875 12.40625 
L 21 12.40625 
L 21 0 
L 10.6875 0 
z
" id="DejaVuSans-46"/>
      </defs>
      <g transform="translate(25.155 305.02275)scale(0.16 -0.16)">
       <use xlink:href="#DejaVuSans-48"/>
       <use x="63.623047" xlink:href="#DejaVuSans-46"/>
       <use x="95.410156" xlink:href="#DejaVuSans-48"/>
      </g>
     </g>
    </g>
    <g id="ytick_2">
     <g id="line2d_23">
      <path clip-path="url(#pb4672b8e00)" d="M 57.6 245.22202 
L 338.688 245.22202 
" style="fill:none;stroke:#b0b0b0;stroke-linecap:square;stroke-width:0.8;"/>
     </g>
     <g id="line2d_24">
      <g>
       <use style="stroke:#000000;stroke-width:0.8;" x="57.6" xlink:href="#mc4a3ad1ab2" y="245.22202"/>
      </g>
     </g>
     <g id="text_7">
      <!-- 0.2 -->
      <g transform="translate(25.155 251.30077)scale(0.16 -0.16)">
       <use xlink:href="#DejaVuSans-48"/>
       <use x="63.623047" xlink:href="#DejaVuSans-46"/>
       <use x="95.410156" xlink:href="#DejaVuSans-50"/>
      </g>
     </g>
    </g>
    <g id="ytick_3">
     <g id="line2d_25">
      <path clip-path="url(#pb4672b8e00)" d="M 57.6 191.50004 
L 338.688 191.50004 
" style="fill:none;stroke:#b0b0b0;stroke-linecap:square;stroke-width:0.8;"/>
     </g>
     <g id="line2d_26">
      <g>
       <use style="stroke:#000000;stroke-width:0.8;" x="57.6" xlink:href="#mc4a3ad1ab2" y="191.50004"/>
      </g>
     </g>
     <g id="text_8">
      <!-- 0.4 -->
      <g transform="translate(25.155 197.57879)scale(0.16 -0.16)">
       <use xlink:href="#DejaVuSans-48"/>
       <use x="63.623047" xlink:href="#DejaVuSans-46"/>
       <use x="95.410156" xlink:href="#DejaVuSans-52"/>
      </g>
     </g>
    </g>
    <g id="ytick_4">
     <g id="line2d_27">
      <path clip-path="url(#pb4672b8e00)" d="M 57.6 137.778059 
L 338.688 137.778059 
" style="fill:none;stroke:#b0b0b0;stroke-linecap:square;stroke-width:0.8;"/>
     </g>
     <g id="line2d_28">
      <g>
       <use style="stroke:#000000;stroke-width:0.8;" x="57.6" xlink:href="#mc4a3ad1ab2" y="137.778059"/>
      </g>
     </g>
     <g id="text_9">
      <!-- 0.6 -->
      <g transform="translate(25.155 143.856809)scale(0.16 -0.16)">
       <use xlink:href="#DejaVuSans-48"/>
       <use x="63.623047" xlink:href="#DejaVuSans-46"/>
       <use x="95.410156" xlink:href="#DejaVuSans-54"/>
      </g>
     </g>
    </g>
    <g id="ytick_5">
     <g id="line2d_29">
      <path clip-path="url(#pb4672b8e00)" d="M 57.6 84.056079 
L 338.688 84.056079 
" style="fill:none;stroke:#b0b0b0;stroke-linecap:square;stroke-width:0.8;"/>
     </g>
     <g id="line2d_30">
      <g>
       <use style="stroke:#000000;stroke-width:0.8;" x="57.6" xlink:href="#mc4a3ad1ab2" y="84.056079"/>
      </g>
     </g>
     <g id="text_10">
      <!-- 0.8 -->
      <defs>
       <path d="M 31.78125 34.625 
Q 24.75 34.625 20.71875 30.859375 
Q 16.703125 27.09375 16.703125 20.515625 
Q 16.703125 13.921875 20.71875 10.15625 
Q 24.75 6.390625 31.78125 6.390625 
Q 38.8125 6.390625 42.859375 10.171875 
Q 46.921875 13.96875 46.921875 20.515625 
Q 46.921875 27.09375 42.890625 30.859375 
Q 38.875 34.625 31.78125 34.625 
z
M 21.921875 38.8125 
Q 15.578125 40.375 12.03125 44.71875 
Q 8.5 49.078125 8.5 55.328125 
Q 8.5 64.0625 14.71875 69.140625 
Q 20.953125 74.21875 31.78125 74.21875 
Q 42.671875 74.21875 48.875 69.140625 
Q 55.078125 64.0625 55.078125 55.328125 
Q 55.078125 49.078125 51.53125 44.71875 
Q 48 40.375 41.703125 38.8125 
Q 48.828125 37.15625 52.796875 32.3125 
Q 56.78125 27.484375 56.78125 20.515625 
Q 56.78125 9.90625 50.3125 4.234375 
Q 43.84375 -1.421875 31.78125 -1.421875 
Q 19.734375 -1.421875 13.25 4.234375 
Q 6.78125 9.90625 6.78125 20.515625 
Q 6.78125 27.484375 10.78125 32.3125 
Q 14.796875 37.15625 21.921875 38.8125 
z
M 18.3125 54.390625 
Q 18.3125 48.734375 21.84375 45.5625 
Q 25.390625 42.390625 31.78125 42.390625 
Q 38.140625 42.390625 41.71875 45.5625 
Q 45.3125 48.734375 45.3125 54.390625 
Q 45.3125 60.0625 41.71875 63.234375 
Q 38.140625 66.40625 31.78125 66.40625 
Q 25.390625 66.40625 21.84375 63.234375 
Q 18.3125 60.0625 18.3125 54.390625 
z
" id="DejaVuSans-56"/>
      </defs>
      <g transform="translate(25.155 90.134829)scale(0.16 -0.16)">
       <use xlink:href="#DejaVuSans-48"/>
       <use x="63.623047" xlink:href="#DejaVuSans-46"/>
       <use x="95.410156" xlink:href="#DejaVuSans-56"/>
      </g>
     </g>
    </g>
    <g id="ytick_6">
     <g id="line2d_31">
      <path clip-path="url(#pb4672b8e00)" d="M 57.6 30.334099 
L 338.688 30.334099 
" style="fill:none;stroke:#b0b0b0;stroke-linecap:square;stroke-width:0.8;"/>
     </g>
     <g id="line2d_32">
      <g>
       <use style="stroke:#000000;stroke-width:0.8;" x="57.6" xlink:href="#mc4a3ad1ab2" y="30.334099"/>
      </g>
     </g>
     <g id="text_11">
      <!-- 1.0 -->
      <g transform="translate(25.155 36.412849)scale(0.16 -0.16)">
       <use xlink:href="#DejaVuSans-49"/>
       <use x="63.623047" xlink:href="#DejaVuSans-46"/>
       <use x="95.410156" xlink:href="#DejaVuSans-48"/>
      </g>
     </g>
    </g>
    <g id="text_12">
     <!-- Fraction of function,target pairs -->
     <defs>
      <path d="M 9.8125 72.90625 
L 51.703125 72.90625 
L 51.703125 64.59375 
L 19.671875 64.59375 
L 19.671875 43.109375 
L 48.578125 43.109375 
L 48.578125 34.8125 
L 19.671875 34.8125 
L 19.671875 0 
L 9.8125 0 
z
" id="DejaVuSans-70"/>
      <path d="M 41.109375 46.296875 
Q 39.59375 47.171875 37.8125 47.578125 
Q 36.03125 48 33.890625 48 
Q 26.265625 48 22.1875 43.046875 
Q 18.109375 38.09375 18.109375 28.8125 
L 18.109375 0 
L 9.078125 0 
L 9.078125 54.6875 
L 18.109375 54.6875 
L 18.109375 46.1875 
Q 20.953125 51.171875 25.484375 53.578125 
Q 30.03125 56 36.53125 56 
Q 37.453125 56 38.578125 55.875 
Q 39.703125 55.765625 41.0625 55.515625 
z
" id="DejaVuSans-114"/>
      <path d="M 48.78125 52.59375 
L 48.78125 44.1875 
Q 44.96875 46.296875 41.140625 47.34375 
Q 37.3125 48.390625 33.40625 48.390625 
Q 24.65625 48.390625 19.8125 42.84375 
Q 14.984375 37.3125 14.984375 27.296875 
Q 14.984375 17.28125 19.8125 11.734375 
Q 24.65625 6.203125 33.40625 6.203125 
Q 37.3125 6.203125 41.140625 7.25 
Q 44.96875 8.296875 48.78125 10.40625 
L 48.78125 2.09375 
Q 45.015625 0.34375 40.984375 -0.53125 
Q 36.96875 -1.421875 32.421875 -1.421875 
Q 20.0625 -1.421875 12.78125 6.34375 
Q 5.515625 14.109375 5.515625 27.296875 
Q 5.515625 40.671875 12.859375 48.328125 
Q 20.21875 56 33.015625 56 
Q 37.15625 56 41.109375 55.140625 
Q 45.0625 54.296875 48.78125 52.59375 
z
" id="DejaVuSans-99"/>
      <path d="M 18.3125 70.21875 
L 18.3125 54.6875 
L 36.8125 54.6875 
L 36.8125 47.703125 
L 18.3125 47.703125 
L 18.3125 18.015625 
Q 18.3125 11.328125 20.140625 9.421875 
Q 21.96875 7.515625 27.59375 7.515625 
L 36.8125 7.515625 
L 36.8125 0 
L 27.59375 0 
Q 17.1875 0 13.234375 3.875 
Q 9.28125 7.765625 9.28125 18.015625 
L 9.28125 47.703125 
L 2.6875 47.703125 
L 2.6875 54.6875 
L 9.28125 54.6875 
L 9.28125 70.21875 
z
" id="DejaVuSans-116"/>
      <path d="M 8.5 21.578125 
L 8.5 54.6875 
L 17.484375 54.6875 
L 17.484375 21.921875 
Q 17.484375 14.15625 20.5 10.265625 
Q 23.53125 6.390625 29.59375 6.390625 
Q 36.859375 6.390625 41.078125 11.03125 
Q 45.3125 15.671875 45.3125 23.6875 
L 45.3125 54.6875 
L 54.296875 54.6875 
L 54.296875 0 
L 45.3125 0 
L 45.3125 8.40625 
Q 42.046875 3.421875 37.71875 1 
Q 33.40625 -1.421875 27.6875 -1.421875 
Q 18.265625 -1.421875 13.375 4.4375 
Q 8.5 10.296875 8.5 21.578125 
z
M 31.109375 56 
z
" id="DejaVuSans-117"/>
      <path d="M 11.71875 12.40625 
L 22.015625 12.40625 
L 22.015625 4 
L 14.015625 -11.625 
L 7.71875 -11.625 
L 11.71875 4 
z
" id="DejaVuSans-44"/>
      <path d="M 18.109375 8.203125 
L 18.109375 -20.796875 
L 9.078125 -20.796875 
L 9.078125 54.6875 
L 18.109375 54.6875 
L 18.109375 46.390625 
Q 20.953125 51.265625 25.265625 53.625 
Q 29.59375 56 35.59375 56 
Q 45.5625 56 51.78125 48.09375 
Q 58.015625 40.1875 58.015625 27.296875 
Q 58.015625 14.40625 51.78125 6.484375 
Q 45.5625 -1.421875 35.59375 -1.421875 
Q 29.59375 -1.421875 25.265625 0.953125 
Q 20.953125 3.328125 18.109375 8.203125 
z
M 48.6875 27.296875 
Q 48.6875 37.203125 44.609375 42.84375 
Q 40.53125 48.484375 33.40625 48.484375 
Q 26.265625 48.484375 22.1875 42.84375 
Q 18.109375 37.203125 18.109375 27.296875 
Q 18.109375 17.390625 22.1875 11.75 
Q 26.265625 6.109375 33.40625 6.109375 
Q 40.53125 6.109375 44.609375 11.75 
Q 48.6875 17.390625 48.6875 27.296875 
z
" id="DejaVuSans-112"/>
     </defs>
     <g transform="translate(17.619531 298.435375)rotate(-90)scale(0.17 -0.17)">
      <use xlink:href="#DejaVuSans-70"/>
      <use x="57.410156" xlink:href="#DejaVuSans-114"/>
      <use x="98.523438" xlink:href="#DejaVuSans-97"/>
      <use x="159.802734" xlink:href="#DejaVuSans-99"/>
      <use x="214.783203" xlink:href="#DejaVuSans-116"/>
      <use x="253.992188" xlink:href="#DejaVuSans-105"/>
      <use x="281.775391" xlink:href="#DejaVuSans-111"/>
      <use x="342.957031" xlink:href="#DejaVuSans-110"/>
      <use x="406.335938" xlink:href="#DejaVuSans-32"/>
      <use x="438.123047" xlink:href="#DejaVuSans-111"/>
      <use x="499.304688" xlink:href="#DejaVuSans-102"/>
      <use x="534.509766" xlink:href="#DejaVuSans-32"/>
      <use x="566.296875" xlink:href="#DejaVuSans-102"/>
      <use x="601.501953" xlink:href="#DejaVuSans-117"/>
      <use x="664.880859" xlink:href="#DejaVuSans-110"/>
      <use x="728.259766" xlink:href="#DejaVuSans-99"/>
      <use x="783.240234" xlink:href="#DejaVuSans-116"/>
      <use x="822.449219" xlink:href="#DejaVuSans-105"/>
      <use x="850.232422" xlink:href="#DejaVuSans-111"/>
      <use x="911.414062" xlink:href="#DejaVuSans-110"/>
      <use x="974.792969" xlink:href="#DejaVuSans-44"/>
      <use x="1006.580078" xlink:href="#DejaVuSans-116"/>
      <use x="1045.789062" xlink:href="#DejaVuSans-97"/>
      <use x="1107.068359" xlink:href="#DejaVuSans-114"/>
      <use x="1148.166016" xlink:href="#DejaVuSans-103"/>
      <use x="1211.642578" xlink:href="#DejaVuSans-101"/>
      <use x="1273.166016" xlink:href="#DejaVuSans-116"/>
      <use x="1312.375" xlink:href="#DejaVuSans-32"/>
      <use x="1344.162109" xlink:href="#DejaVuSans-112"/>
      <use x="1407.638672" xlink:href="#DejaVuSans-97"/>
      <use x="1468.917969" xlink:href="#DejaVuSans-105"/>
      <use x="1496.701172" xlink:href="#DejaVuSans-114"/>
      <use x="1537.814453" xlink:href="#DejaVuSans-115"/>
     </g>
    </g>
   </g>
   <g id="line2d_33">
    <defs>
     <path d="M 0 1.5 
C 0.397805 1.5 0.77937 1.341951 1.06066 1.06066 
C 1.341951 0.77937 1.5 0.397805 1.5 0 
C 1.5 -0.397805 1.341951 -0.77937 1.06066 -1.06066 
C 0.77937 -1.341951 0.397805 -1.5 0 -1.5 
C -0.397805 -1.5 -0.77937 -1.341951 -1.06066 -1.06066 
C -1.341951 -0.77937 -1.5 -0.397805 -1.5 0 
C -1.5 0.397805 -1.341951 0.77937 -1.06066 1.06066 
C -0.77937 1.341951 -0.397805 1.5 0 1.5 
z
" id="me8cc816d1e" style="stroke:#f5deb3;"/>
    </defs>
    <g>
     <use style="fill:#f5deb3;stroke:#f5deb3;" x="264.192843" xlink:href="#me8cc816d1e" y="30.334099"/>
     <use style="fill:#f5deb3;stroke:#f5deb3;" x="264.192843" xlink:href="#me8cc816d1e" y="30.334099"/>
    </g>
   </g>
   <g id="line2d_34">
    <defs>
     <path d="M 0 1.5 
C 0.397805 1.5 0.77937 1.341951 1.06066 1.06066 
C 1.341951 0.77937 1.5 0.397805 1.5 0 
C 1.5 -0.397805 1.341951 -0.77937 1.06066 -1.06066 
C 0.77937 -1.341951 0.397805 -1.5 0 -1.5 
C -0.397805 -1.5 -0.77937 -1.341951 -1.06066 -1.06066 
C -1.341951 -0.77937 -1.5 -0.397805 -1.5 0 
C -1.5 0.397805 -1.341951 0.77937 -1.06066 1.06066 
C -0.77937 1.341951 -0.397805 1.5 0 1.5 
z
" id="m3b3d0036a9" style="stroke:#000080;"/>
    </defs>
    <g>
     <use style="fill:#000080;stroke:#000080;" x="285.206546" xlink:href="#m3b3d0036a9" y="198.873645"/>
     <use style="fill:#000080;stroke:#000080;" x="285.206546" xlink:href="#m3b3d0036a9" y="198.873645"/>
    </g>
   </g>
   <g id="line2d_35">
    <path d="M 17.444571 298.944 
L 17.444571 225.207949 
L 187.042946 225.207949 
L 187.042946 224.681263 
L 189.448725 224.681263 
L 189.448725 224.154577 
L 195.215221 224.154577 
L 195.215221 223.627891 
L 202.982746 223.627891 
L 202.982746 223.101204 
L 203.297461 223.101204 
L 203.297461 222.574518 
L 204.587241 222.574518 
L 204.587241 222.047832 
L 207.413754 222.047832 
L 207.413754 221.521146 
L 212.079364 221.521146 
L 212.079364 220.99446 
L 212.397876 220.99446 
L 212.397876 220.467774 
L 212.72311 220.467774 
L 212.72311 219.941088 
L 214.957967 219.941088 
L 214.957967 219.414402 
L 218.421122 219.414402 
L 218.421122 218.887716 
L 218.608726 218.887716 
L 218.608726 218.36103 
L 219.757679 218.36103 
L 219.757679 217.834344 
L 220.154276 217.834344 
L 220.154276 217.307658 
L 220.498337 217.307658 
L 220.498337 216.780971 
L 221.003811 216.780971 
L 221.003811 216.254285 
L 221.289594 216.254285 
L 221.289594 215.727599 
L 221.337939 215.727599 
L 221.337939 215.200913 
L 221.529125 215.200913 
L 221.529125 214.674227 
L 221.768543 214.674227 
L 221.768543 214.147541 
L 222.187241 214.147541 
L 222.187241 213.620855 
L 222.44429 213.620855 
L 222.44429 213.094169 
L 222.84378 213.094169 
L 222.84378 212.567483 
L 222.906948 212.567483 
L 222.906948 212.040797 
L 223.394502 212.040797 
L 223.394502 211.514111 
L 223.42468 211.514111 
L 223.42468 210.987425 
L 224.238638 210.987425 
L 224.238638 210.460738 
L 224.957844 210.460738 
L 224.957844 209.934052 
L 226.099586 209.934052 
L 226.099586 209.407366 
L 226.368139 209.407366 
L 226.368139 208.88068 
L 228.361199 208.88068 
L 228.361199 208.353994 
L 228.676966 208.353994 
L 228.676966 207.827308 
L 230.037011 207.827308 
L 230.037011 207.300622 
L 231.91579 207.300622 
L 231.91579 206.773936 
L 231.9173 206.773936 
L 231.9173 206.24725 
L 232.511246 206.24725 
L 232.511246 205.720564 
L 234.467272 205.720564 
L 234.467272 205.193878 
L 240.71365 205.193878 
L 240.71365 204.667192 
L 250.976814 204.667192 
L 250.976814 204.140506 
L 250.978733 204.140506 
L 250.978733 203.613819 
L 257.620291 203.613819 
L 257.620291 203.087133 
L 257.622312 203.087133 
L 257.622312 202.560447 
L 257.727941 202.560447 
L 257.727941 202.033761 
L 259.168097 202.033761 
L 259.168097 201.507075 
L 261.952862 201.507075 
L 261.952862 200.980389 
L 271.84096 200.980389 
L 271.84096 200.453703 
L 273.382888 200.453703 
L 273.382888 199.927017 
L 276.676214 199.927017 
L 276.676214 199.400331 
L 285.206546 199.400331 
L 285.206546 198.873645 
L 338.688 198.873645 
" style="fill:none;stroke:#000080;stroke-linecap:square;stroke-width:1.5;"/>
   </g>
   <g id="line2d_36">
    <defs>
     <path d="M 0 6 
C 1.591219 6 3.117479 5.367802 4.242641 4.242641 
C 5.367802 3.117479 6 1.591219 6 0 
C 6 -1.591219 5.367802 -3.117479 4.242641 -4.242641 
C 3.117479 -5.367802 1.591219 -6 0 -6 
C -1.591219 -6 -3.117479 -5.367802 -4.242641 -4.242641 
C -5.367802 -3.117479 -6 -1.591219 -6 0 
C -6 1.591219 -5.367802 3.117479 -4.242641 4.242641 
C -3.117479 5.367802 -1.591219 6 0 6 
z
" id="m477902cf35" style="stroke:#000080;stroke-width:1.5;"/>
    </defs>
    <g>
     <use style="fill-opacity:0;stroke:#000080;stroke-width:1.5;" x="259.168097" xlink:href="#m477902cf35" y="201.507075"/>
     <use style="fill-opacity:0;stroke:#000080;stroke-width:1.5;" x="285.206546" xlink:href="#m477902cf35" y="198.873645"/>
     <use style="fill-opacity:0;stroke:#000080;stroke-width:1.5;" x="285.206546" xlink:href="#m477902cf35" y="198.873645"/>
     <use style="fill-opacity:0;stroke:#000080;stroke-width:1.5;" x="338.688" xlink:href="#m477902cf35" y="198.873645"/>
    </g>
   </g>
   <g id="line2d_37">
    <path style="fill:none;stroke:#000080;stroke-linecap:square;stroke-width:1.5;"/>
    <g/>
   </g>
   <g id="line2d_38">
    <path clip-path="url(#pb4672b8e00)" d="M 230.322516 207.300622 
" style="fill:none;stroke:#000080;stroke-linecap:square;stroke-width:1.5;"/>
    <defs>
     <path d="M -12 12 
L 12 -12 
M -12 -12 
L 12 12 
" id="m46654fed9c" style="stroke:#000080;"/>
    </defs>
    <g clip-path="url(#pb4672b8e00)">
     <use style="fill:#000080;stroke:#000080;" x="230.322516" xlink:href="#m46654fed9c" y="207.300622"/>
    </g>
   </g>
   <g id="line2d_39">
    <g>
     <use style="fill:#000080;stroke:#000080;" x="281.537891" xlink:href="#m3b3d0036a9" y="30.334099"/>
     <use style="fill:#000080;stroke:#000080;" x="281.537891" xlink:href="#m3b3d0036a9" y="30.334099"/>
    </g>
   </g>
   <g id="line2d_40">
    <path d="M 17.444571 298.944 
L 17.444571 225.207949 
L 206.712756 225.207949 
L 206.712756 224.681263 
L 217.009308 224.681263 
L 217.009308 224.154577 
L 217.358925 224.154577 
L 217.358925 223.627891 
L 217.579426 223.627891 
L 217.579426 223.101204 
L 217.980968 223.101204 
L 217.980968 222.574518 
L 218.12904 222.574518 
L 218.12904 222.047832 
L 218.421639 222.047832 
L 218.513289 220.99446 
L 218.814066 220.99446 
L 218.814066 220.467774 
L 219.467841 220.467774 
L 219.467841 219.941088 
L 219.909678 219.941088 
L 219.909678 219.414402 
L 220.105662 219.414402 
L 220.105662 218.887716 
L 220.614421 218.887716 
L 220.614421 218.36103 
L 220.816666 218.36103 
L 220.816666 217.834344 
L 221.418266 217.834344 
L 221.522199 216.780971 
L 221.695104 216.780971 
L 221.695104 216.254285 
L 221.90984 216.254285 
L 221.90984 215.727599 
L 222.043 215.727599 
L 222.043 215.200913 
L 222.536583 215.200913 
L 222.536583 214.674227 
L 222.924402 214.674227 
L 222.924402 214.147541 
L 224.892062 214.147541 
L 224.892062 213.620855 
L 225.115819 213.620855 
L 225.115819 213.094169 
L 225.844189 213.094169 
L 225.844189 212.567483 
L 226.411372 212.567483 
L 226.411372 212.040797 
L 227.192328 212.040797 
L 227.276889 210.987425 
L 227.370126 210.987425 
L 227.370126 210.460738 
L 227.786504 210.460738 
L 227.786504 209.934052 
L 228.984953 209.934052 
L 228.984953 209.407366 
L 229.260021 209.407366 
L 229.260021 208.88068 
L 229.733421 208.88068 
L 229.733421 208.353994 
L 232.124795 208.353994 
L 232.229304 206.773936 
L 232.264417 206.773936 
L 232.370496 204.667192 
L 232.393956 204.667192 
L 232.491945 203.087133 
L 232.515703 203.087133 
L 232.602006 200.980389 
L 232.666569 200.980389 
L 232.730665 198.346959 
L 232.786207 198.346959 
L 232.894282 195.713528 
L 232.928383 195.713528 
L 232.982626 194.660156 
L 235.545184 194.660156 
L 235.558548 193.606784 
L 237.64077 193.606784 
L 237.64077 193.080098 
L 240.090561 193.080098 
L 240.090561 192.553412 
L 242.014112 192.553412 
L 242.119198 191.50004 
L 242.226296 191.50004 
L 242.290767 190.446667 
L 242.390671 190.446667 
L 242.390671 189.919981 
L 242.638041 189.919981 
L 242.638041 189.393295 
L 242.857807 189.393295 
L 242.92938 186.759865 
L 243.039869 186.759865 
L 243.039869 186.233179 
L 243.16498 186.233179 
L 243.261216 184.126434 
L 243.2771 184.126434 
L 243.32479 180.966318 
L 243.405302 180.966318 
L 243.487778 177.279515 
L 243.537755 177.279515 
L 243.624323 175.172771 
L 243.773512 175.172771 
L 243.848212 173.592713 
L 243.893607 173.592713 
L 243.974887 170.959282 
L 244.046074 170.959282 
L 244.124239 167.799166 
L 244.159112 167.799166 
L 244.268798 164.112363 
L 244.312605 164.112363 
L 244.376553 161.478933 
L 244.823207 161.478933 
L 244.823207 160.952247 
L 246.657496 160.952247 
L 246.657496 160.425561 
L 247.319268 160.425561 
L 247.401565 159.372189 
L 247.736939 159.372189 
L 247.736939 158.845503 
L 248.161639 158.845503 
L 248.227928 157.79213 
L 248.297478 157.79213 
L 248.323321 156.738758 
L 248.456587 156.738758 
L 248.533209 155.685386 
L 248.581657 155.685386 
L 248.666955 153.051956 
L 248.726108 153.051956 
L 248.810192 149.891839 
L 248.841133 149.891839 
L 248.875267 148.838467 
L 249.050096 148.838467 
L 249.050096 147.785095 
L 249.194337 147.785095 
L 249.194337 146.731723 
L 249.351767 146.731723 
L 249.351767 146.205037 
L 249.485242 146.205037 
L 249.576559 142.518234 
L 249.597229 142.518234 
L 249.693559 138.831432 
L 249.709391 138.831432 
L 249.819069 135.671315 
L 249.822943 135.671315 
L 249.925713 133.564571 
L 249.952929 133.564571 
L 250.047798 129.877768 
L 250.071034 129.877768 
L 250.178022 127.771024 
L 250.27831 127.771024 
L 250.346352 126.190966 
L 250.566783 126.190966 
L 250.665897 124.610907 
L 250.73496 124.610907 
L 250.82748 121.977477 
L 250.868113 121.977477 
L 250.968495 119.870733 
L 251.007363 119.870733 
L 251.007363 119.344047 
L 251.122606 119.344047 
L 251.190124 117.763988 
L 251.238747 117.763988 
L 251.238747 117.237302 
L 251.765143 117.237302 
L 251.765143 116.710616 
L 252.334856 116.710616 
L 252.437339 114.077186 
L 252.459707 114.077186 
L 252.550845 111.970441 
L 252.595993 111.970441 
L 252.658632 109.337011 
L 252.71709 109.337011 
L 252.814095 106.703581 
L 252.862898 106.703581 
L 252.966258 103.543464 
L 253.205232 103.543464 
L 253.205232 103.016778 
L 253.330386 103.016778 
L 253.429422 100.910034 
L 253.442942 100.910034 
L 253.451526 99.856662 
L 253.559789 99.856662 
L 253.661762 96.696545 
L 253.6854 96.696545 
L 253.78097 93.536429 
L 253.807235 93.536429 
L 253.834252 91.95637 
L 255.422078 91.95637 
L 255.496706 90.376312 
L 255.567778 90.376312 
L 255.667187 85.109451 
L 255.705931 85.109451 
L 255.786904 81.949335 
L 255.828047 81.949335 
L 255.931626 77.20916 
L 255.944623 77.20916 
L 256.051022 72.995672 
L 256.069485 72.995672 
L 256.122754 70.888927 
L 257.889392 70.888927 
L 257.998198 69.835555 
L 258.06668 69.835555 
L 258.172783 68.782183 
L 258.179539 68.782183 
L 258.262698 66.675439 
L 258.342317 66.675439 
L 258.362331 65.622066 
L 261.960717 65.622066 
L 261.997186 64.568694 
L 264.460657 64.568694 
L 264.516377 63.515322 
L 264.593898 63.515322 
L 264.593898 62.988636 
L 264.710248 62.988636 
L 264.820271 59.82852 
L 264.822199 59.82852 
L 264.822199 59.301833 
L 266.160426 59.301833 
L 266.270293 57.721775 
L 266.296083 57.721775 
L 266.34366 56.668403 
L 266.543778 56.668403 
L 266.642591 55.615031 
L 266.66312 55.615031 
L 266.682823 54.034973 
L 266.776071 54.034973 
L 266.815835 52.454914 
L 267.129118 52.454914 
L 267.239582 49.821484 
L 267.262962 49.821484 
L 267.262962 49.294798 
L 267.810934 49.294798 
L 267.920183 47.71474 
L 267.947837 47.71474 
L 267.967922 45.607995 
L 268.237613 45.607995 
L 268.339462 43.501251 
L 268.351702 43.501251 
L 268.363441 42.447879 
L 269.21314 42.447879 
L 269.304181 39.814448 
L 269.351657 39.814448 
L 269.351657 39.287762 
L 273.990773 39.287762 
L 273.990773 38.761076 
L 274.798394 38.761076 
L 274.832727 37.707704 
L 275.119798 37.707704 
L 275.167373 36.654332 
L 275.796493 36.654332 
L 275.899143 35.074274 
L 276.139447 35.074274 
L 276.139447 34.547588 
L 276.659767 34.547588 
L 276.747221 32.967529 
L 276.797224 32.967529 
L 276.797224 32.440843 
L 279.960443 32.440843 
L 279.960443 31.914157 
L 280.637375 31.914157 
L 280.637375 31.387471 
L 280.814208 31.387471 
L 280.814208 30.860785 
L 281.537891 30.860785 
L 281.537891 30.334099 
L 338.688 30.334099 
L 338.688 30.334099 
" style="fill:none;stroke:#000080;stroke-linecap:square;stroke-width:1.5;"/>
   </g>
   <g id="line2d_41">
    <g>
     <use style="fill-opacity:0;stroke:#000080;stroke-width:1.5;" x="232.602006" xlink:href="#m477902cf35" y="201.507075"/>
     <use style="fill-opacity:0;stroke:#000080;stroke-width:1.5;" x="255.786904" xlink:href="#m477902cf35" y="81.949335"/>
     <use style="fill-opacity:0;stroke:#000080;stroke-width:1.5;" x="281.537891" xlink:href="#m477902cf35" y="30.334099"/>
     <use style="fill-opacity:0;stroke:#000080;stroke-width:1.5;" x="338.688" xlink:href="#m477902cf35" y="30.334099"/>
    </g>
   </g>
   <g id="line2d_42">
    <path style="fill:none;stroke:#000080;stroke-linecap:square;stroke-width:1.5;"/>
    <g/>
   </g>
   <g id="line2d_43">
    <path clip-path="url(#pb4672b8e00)" d="M 258.399277 65.622066 
" style="fill:none;stroke:#000080;stroke-linecap:square;stroke-width:1.5;"/>
    <g clip-path="url(#pb4672b8e00)">
     <use style="fill:#000080;stroke:#000080;" x="258.399277" xlink:href="#m46654fed9c" y="65.622066"/>
    </g>
   </g>
   <g id="line2d_44">
    <defs>
     <path d="M 0 1.5 
C 0.397805 1.5 0.77937 1.341951 1.06066 1.06066 
C 1.341951 0.77937 1.5 0.397805 1.5 0 
C 1.5 -0.397805 1.341951 -0.77937 1.06066 -1.06066 
C 0.77937 -1.341951 0.397805 -1.5 0 -1.5 
C -0.397805 -1.5 -0.77937 -1.341951 -1.06066 -1.06066 
C -1.341951 -0.77937 -1.5 -0.397805 -1.5 0 
C -1.5 0.397805 -1.341951 0.77937 -1.06066 1.06066 
C -0.77937 1.341951 -0.397805 1.5 0 1.5 
z
" id="maa0dcce5f5" style="stroke:#ff00ff;"/>
    </defs>
    <g>
     <use style="fill:#ff00ff;stroke:#ff00ff;" x="292.141293" xlink:href="#maa0dcce5f5" y="193.606784"/>
     <use style="fill:#ff00ff;stroke:#ff00ff;" x="292.141293" xlink:href="#maa0dcce5f5" y="193.606784"/>
    </g>
   </g>
   <g id="line2d_45">
    <path d="M 17.444571 298.944 
L 17.444571 225.207949 
L 169.653574 225.207949 
L 169.653574 224.681263 
L 172.149903 224.681263 
L 172.149903 224.154577 
L 172.434028 224.154577 
L 172.434028 223.627891 
L 172.768032 223.627891 
L 172.768032 223.101204 
L 174.69877 223.101204 
L 174.69877 222.574518 
L 175.79927 222.574518 
L 175.79927 222.047832 
L 177.515311 222.047832 
L 177.515311 221.521146 
L 178.986769 221.521146 
L 178.986769 220.99446 
L 180.165234 220.99446 
L 180.165234 220.467774 
L 180.211558 220.467774 
L 180.211558 219.941088 
L 180.918714 219.941088 
L 180.918714 219.414402 
L 182.220831 219.414402 
L 182.220831 218.887716 
L 183.296018 218.887716 
L 183.296018 218.36103 
L 188.191431 218.36103 
L 188.191431 217.834344 
L 193.671337 217.834344 
L 193.671337 217.307658 
L 193.867648 217.307658 
L 193.867648 216.780971 
L 195.653255 216.780971 
L 195.653255 216.254285 
L 197.010638 216.254285 
L 197.010638 215.727599 
L 197.69274 215.727599 
L 197.69274 215.200913 
L 198.031258 215.200913 
L 198.031258 214.674227 
L 198.119289 214.674227 
L 198.119289 214.147541 
L 198.653883 214.147541 
L 198.653883 213.620855 
L 199.663653 213.620855 
L 199.663653 213.094169 
L 206.262301 213.094169 
L 206.262301 212.567483 
L 210.087023 212.567483 
L 210.087023 212.040797 
L 211.838364 212.040797 
L 211.838364 211.514111 
L 214.149475 211.514111 
L 214.149475 210.987425 
L 215.03204 210.987425 
L 215.03204 210.460738 
L 217.819674 210.460738 
L 217.819674 209.934052 
L 219.224715 209.934052 
L 219.224715 209.407366 
L 219.328135 209.407366 
L 219.328135 208.88068 
L 220.52724 208.88068 
L 220.52724 208.353994 
L 222.609281 208.353994 
L 222.609281 207.827308 
L 222.660734 207.827308 
L 222.660734 207.300622 
L 223.049931 207.300622 
L 223.049931 206.773936 
L 223.186505 206.773936 
L 223.186505 206.24725 
L 223.328525 206.24725 
L 223.328525 205.720564 
L 232.552622 205.720564 
L 232.552622 205.193878 
L 232.559521 205.193878 
L 232.559521 204.667192 
L 232.812137 204.667192 
L 232.812137 204.140506 
L 236.378299 204.140506 
L 236.378299 203.613819 
L 246.518914 203.613819 
L 246.518914 203.087133 
L 246.779766 203.087133 
L 246.779766 202.560447 
L 252.990501 202.560447 
L 252.990501 202.033761 
L 256.216807 202.033761 
L 256.216807 201.507075 
L 256.818801 201.507075 
L 256.818801 200.980389 
L 257.095222 200.980389 
L 257.095222 200.453703 
L 263.343363 200.453703 
L 263.343363 199.927017 
L 267.93035 199.927017 
L 267.93035 199.400331 
L 271.439964 199.400331 
L 271.439964 198.873645 
L 271.602524 198.873645 
L 271.602524 198.346959 
L 275.92288 198.346959 
L 275.92288 197.820273 
L 278.192213 197.820273 
L 278.192213 197.293586 
L 281.335085 197.293586 
L 281.335085 196.7669 
L 281.336114 196.7669 
L 281.336114 196.240214 
L 282.247285 196.240214 
L 282.247285 195.713528 
L 283.112477 195.713528 
L 283.112477 195.186842 
L 285.496151 195.186842 
L 285.496151 194.660156 
L 291.103463 194.660156 
L 291.103463 194.13347 
L 292.141293 194.13347 
L 292.141293 193.606784 
L 338.688 193.606784 
" style="fill:none;stroke:#ff00ff;stroke-linecap:square;stroke-width:1.5;"/>
   </g>
   <g id="line2d_46">
    <defs>
     <path d="M -0 8.485281 
L 5.091169 0 
L 0 -8.485281 
L -5.091169 -0 
z
" id="meb68d1c3ae" style="stroke:#ff00ff;stroke-linejoin:miter;stroke-width:1.5;"/>
    </defs>
    <g>
     <use style="fill-opacity:0;stroke:#ff00ff;stroke-linejoin:miter;stroke-width:1.5;" x="236.378299" xlink:href="#meb68d1c3ae" y="204.140506"/>
     <use style="fill-opacity:0;stroke:#ff00ff;stroke-linejoin:miter;stroke-width:1.5;" x="292.141293" xlink:href="#meb68d1c3ae" y="194.13347"/>
     <use style="fill-opacity:0;stroke:#ff00ff;stroke-linejoin:miter;stroke-width:1.5;" x="292.141293" xlink:href="#meb68d1c3ae" y="193.606784"/>
     <use style="fill-opacity:0;stroke:#ff00ff;stroke-linejoin:miter;stroke-width:1.5;" x="338.688" xlink:href="#meb68d1c3ae" y="193.606784"/>
    </g>
   </g>
   <g id="line2d_47">
    <path style="fill:none;stroke:#ff00ff;stroke-linecap:square;stroke-width:1.5;"/>
    <g/>
   </g>
   <g id="line2d_48">
    <path clip-path="url(#pb4672b8e00)" d="M 230.314498 205.720564 
" style="fill:none;stroke:#ff00ff;stroke-linecap:square;stroke-width:1.5;"/>
    <defs>
     <path d="M -12 12 
L 12 -12 
M -12 -12 
L 12 12 
" id="m173f12adb4" style="stroke:#ff00ff;"/>
    </defs>
    <g clip-path="url(#pb4672b8e00)">
     <use style="fill:#ff00ff;stroke:#ff00ff;" x="230.314498" xlink:href="#m173f12adb4" y="205.720564"/>
    </g>
   </g>
   <g id="line2d_49">
    <defs>
     <path d="M 0 1.5 
C 0.397805 1.5 0.77937 1.341951 1.06066 1.06066 
C 1.341951 0.77937 1.5 0.397805 1.5 0 
C 1.5 -0.397805 1.341951 -0.77937 1.06066 -1.06066 
C 0.77937 -1.341951 0.397805 -1.5 0 -1.5 
C -0.397805 -1.5 -0.77937 -1.341951 -1.06066 -1.06066 
C -1.341951 -0.77937 -1.5 -0.397805 -1.5 0 
C -1.5 0.397805 -1.341951 0.77937 -1.06066 1.06066 
C -0.77937 1.341951 -0.397805 1.5 0 1.5 
z
" id="m5ec86f560d" style="stroke:#ff0000;"/>
    </defs>
    <g>
     <use style="fill:#ff0000;stroke:#ff0000;" x="298.502435" xlink:href="#m5ec86f560d" y="193.606784"/>
     <use style="fill:#ff0000;stroke:#ff0000;" x="298.502435" xlink:href="#m5ec86f560d" y="193.606784"/>
    </g>
   </g>
   <g id="line2d_50">
    <path d="M 17.444571 298.944 
L 17.444571 225.207949 
L 188.546894 225.207949 
L 188.546894 224.681263 
L 190.203036 224.681263 
L 190.203036 224.154577 
L 192.409457 224.154577 
L 192.409457 223.627891 
L 193.885257 223.627891 
L 193.885257 223.101204 
L 195.144628 223.101204 
L 195.144628 222.574518 
L 197.122098 222.574518 
L 197.122098 222.047832 
L 197.476348 222.047832 
L 197.476348 221.521146 
L 207.603292 221.521146 
L 207.603292 220.99446 
L 209.836666 220.99446 
L 209.836666 220.467774 
L 210.524683 220.467774 
L 210.524683 219.941088 
L 211.250683 219.941088 
L 211.250683 219.414402 
L 212.590901 219.414402 
L 212.590901 218.887716 
L 212.817512 218.887716 
L 212.817512 218.36103 
L 214.08946 218.36103 
L 214.08946 217.834344 
L 214.412024 217.834344 
L 214.412024 217.307658 
L 216.16945 217.307658 
L 216.16945 216.780971 
L 216.208641 216.780971 
L 216.208641 216.254285 
L 216.253406 216.254285 
L 216.253406 215.727599 
L 217.840898 215.727599 
L 217.840898 215.200913 
L 218.759872 215.200913 
L 218.759872 214.674227 
L 221.114964 214.674227 
L 221.114964 214.147541 
L 221.316339 214.147541 
L 221.316339 213.620855 
L 221.489552 213.620855 
L 221.489552 213.094169 
L 222.015243 213.094169 
L 222.015243 212.567483 
L 222.090422 212.567483 
L 222.090422 212.040797 
L 222.137018 212.040797 
L 222.137018 211.514111 
L 223.131714 211.514111 
L 223.131714 210.987425 
L 224.852283 210.987425 
L 224.852283 210.460738 
L 225.373002 210.460738 
L 225.373002 209.934052 
L 225.537025 209.934052 
L 225.537025 209.407366 
L 226.551142 209.407366 
L 226.551142 208.88068 
L 226.814267 208.88068 
L 226.814267 208.353994 
L 227.287054 208.353994 
L 227.287054 207.827308 
L 228.344713 207.827308 
L 228.344713 207.300622 
L 236.645245 207.300622 
L 236.645245 206.773936 
L 237.25857 206.773936 
L 237.25857 206.24725 
L 238.140723 206.24725 
L 238.140723 205.720564 
L 238.147956 205.720564 
L 238.147956 205.193878 
L 238.824034 205.193878 
L 238.824034 204.667192 
L 239.181508 204.667192 
L 239.181508 204.140506 
L 240.117016 204.140506 
L 240.117016 203.613819 
L 241.448199 203.613819 
L 241.448199 203.087133 
L 248.388319 203.087133 
L 248.388319 202.560447 
L 252.955267 202.560447 
L 252.955267 202.033761 
L 253.963255 202.033761 
L 253.963255 201.507075 
L 257.961463 201.507075 
L 257.961463 200.980389 
L 260.350337 200.980389 
L 260.350337 200.453703 
L 266.346785 200.453703 
L 266.346785 199.927017 
L 268.402173 199.927017 
L 268.402173 199.400331 
L 270.286522 199.400331 
L 270.286522 198.873645 
L 271.964544 198.873645 
L 271.964544 198.346959 
L 275.912477 198.346959 
L 275.912477 197.820273 
L 280.392468 197.820273 
L 280.392468 197.293586 
L 281.566541 197.293586 
L 281.566541 196.7669 
L 282.455747 196.7669 
L 282.455747 196.240214 
L 286.37665 196.240214 
L 286.37665 195.713528 
L 287.055296 195.713528 
L 287.055296 195.186842 
L 287.064562 195.186842 
L 287.064562 194.660156 
L 291.23645 194.660156 
L 291.23645 194.13347 
L 298.502435 194.13347 
L 298.502435 193.606784 
L 338.688 193.606784 
" style="fill:none;stroke:#ff0000;stroke-linecap:square;stroke-width:1.5;"/>
   </g>
   <g id="line2d_51">
    <defs>
     <path d="M 0 -6 
L -5.196152 -3 
L -5.196152 3 
L -0 6 
L 5.196152 3 
L 5.196152 -3 
z
" id="m886b7fc5f9" style="stroke:#ff0000;stroke-linejoin:miter;stroke-width:1.5;"/>
    </defs>
    <g>
     <use style="fill-opacity:0;stroke:#ff0000;stroke-linejoin:miter;stroke-width:1.5;" x="211.250683" xlink:href="#m886b7fc5f9" y="219.941088"/>
     <use style="fill-opacity:0;stroke:#ff0000;stroke-linejoin:miter;stroke-width:1.5;" x="287.064562" xlink:href="#m886b7fc5f9" y="195.186842"/>
     <use style="fill-opacity:0;stroke:#ff0000;stroke-linejoin:miter;stroke-width:1.5;" x="298.502435" xlink:href="#m886b7fc5f9" y="193.606784"/>
     <use style="fill-opacity:0;stroke:#ff0000;stroke-linejoin:miter;stroke-width:1.5;" x="338.688" xlink:href="#m886b7fc5f9" y="193.606784"/>
    </g>
   </g>
   <g id="line2d_52">
    <path style="fill:none;stroke:#ff0000;stroke-linecap:square;stroke-width:1.5;"/>
    <g/>
   </g>
   <g id="line2d_53">
    <path clip-path="url(#pb4672b8e00)" d="M 230.317287 207.300622 
" style="fill:none;stroke:#ff0000;stroke-linecap:square;stroke-width:1.5;"/>
    <defs>
     <path d="M -12 12 
L 12 -12 
M -12 -12 
L 12 12 
" id="m2640273051" style="stroke:#ff0000;"/>
    </defs>
    <g clip-path="url(#pb4672b8e00)">
     <use style="fill:#ff0000;stroke:#ff0000;" x="230.317287" xlink:href="#m2640273051" y="207.300622"/>
    </g>
   </g>
   <g id="line2d_54">
    <defs>
     <path d="M 0 1.5 
C 0.397805 1.5 0.77937 1.341951 1.06066 1.06066 
C 1.341951 0.77937 1.5 0.397805 1.5 0 
C 1.5 -0.397805 1.341951 -0.77937 1.06066 -1.06066 
C 0.77937 -1.341951 0.397805 -1.5 0 -1.5 
C -0.397805 -1.5 -0.77937 -1.341951 -1.06066 -1.06066 
C -1.341951 -0.77937 -1.5 -0.397805 -1.5 0 
C -1.5 0.397805 -1.341951 0.77937 -1.06066 1.06066 
C -0.77937 1.341951 -0.397805 1.5 0 1.5 
z
" id="m2a68964d91" style="stroke:#ff7500;"/>
    </defs>
    <g>
     <use style="fill:#ff7500;stroke:#ff7500;" x="271.235416" xlink:href="#m2a68964d91" y="193.606784"/>
     <use style="fill:#ff7500;stroke:#ff7500;" x="271.235416" xlink:href="#m2a68964d91" y="193.606784"/>
    </g>
   </g>
   <g id="line2d_55">
    <path d="M 17.444571 298.944 
L 17.444571 225.207949 
L 161.067963 225.207949 
L 161.067963 224.681263 
L 166.234507 224.681263 
L 166.234507 224.154577 
L 172.751483 224.154577 
L 172.751483 223.627891 
L 185.779875 223.627891 
L 185.779875 223.101204 
L 186.706188 223.101204 
L 186.706188 222.574518 
L 191.116065 222.574518 
L 191.116065 222.047832 
L 191.827509 222.047832 
L 191.827509 221.521146 
L 195.278382 221.521146 
L 195.278382 220.99446 
L 198.478401 220.99446 
L 198.478401 220.467774 
L 199.353595 220.467774 
L 199.353595 219.941088 
L 202.172366 219.941088 
L 202.172366 219.414402 
L 202.599143 219.414402 
L 202.599143 218.887716 
L 205.23884 218.887716 
L 205.23884 218.36103 
L 206.001735 218.36103 
L 206.001735 217.834344 
L 211.811184 217.834344 
L 211.811184 217.307658 
L 211.868264 217.307658 
L 211.868264 216.780971 
L 212.067952 216.780971 
L 212.067952 216.254285 
L 215.355876 216.254285 
L 215.355876 215.727599 
L 215.369437 215.727599 
L 215.369437 215.200913 
L 215.906172 215.200913 
L 215.906172 214.674227 
L 217.577978 214.674227 
L 217.577978 214.147541 
L 217.814677 214.147541 
L 217.814677 213.620855 
L 218.20479 213.620855 
L 218.20479 213.094169 
L 218.896806 213.094169 
L 218.896806 212.567483 
L 218.904018 212.567483 
L 218.904018 212.040797 
L 221.737779 212.040797 
L 221.737779 211.514111 
L 222.550059 211.514111 
L 222.550059 210.987425 
L 222.595173 210.987425 
L 222.595173 210.460738 
L 222.762783 210.460738 
L 222.762783 209.934052 
L 223.002931 209.934052 
L 223.002931 209.407366 
L 223.205648 209.407366 
L 223.205648 208.88068 
L 223.904335 208.88068 
L 223.904335 208.353994 
L 224.832717 208.353994 
L 224.832717 207.827308 
L 226.373385 207.827308 
L 226.373385 207.300622 
L 226.934676 207.300622 
L 226.934676 206.773936 
L 227.561958 206.773936 
L 227.561958 206.24725 
L 227.766136 206.24725 
L 227.766136 205.720564 
L 227.799499 205.720564 
L 227.799499 205.193878 
L 228.593748 205.193878 
L 228.593748 204.667192 
L 228.885133 204.667192 
L 228.885133 204.140506 
L 229.07569 204.140506 
L 229.07569 203.613819 
L 229.214864 203.613819 
L 229.214864 203.087133 
L 229.699411 203.087133 
L 229.699411 202.560447 
L 237.613775 202.560447 
L 237.613775 202.033761 
L 238.641619 202.033761 
L 238.641619 201.507075 
L 238.894103 201.507075 
L 238.894103 200.980389 
L 238.901616 200.980389 
L 238.901616 200.453703 
L 239.037631 200.453703 
L 239.037631 199.927017 
L 240.370519 199.927017 
L 240.370519 199.400331 
L 241.798638 199.400331 
L 241.798638 198.873645 
L 241.801842 198.873645 
L 241.801842 198.346959 
L 247.256358 198.346959 
L 247.256358 197.820273 
L 251.858909 197.820273 
L 251.858909 197.293586 
L 251.891546 197.293586 
L 251.891546 196.7669 
L 253.895671 196.7669 
L 253.895671 196.240214 
L 257.277029 196.240214 
L 257.277029 195.713528 
L 260.51913 195.713528 
L 260.51913 195.186842 
L 263.698823 195.186842 
L 263.698823 194.660156 
L 265.905951 194.660156 
L 265.905951 194.13347 
L 271.235416 194.13347 
L 271.235416 193.606784 
L 338.688 193.606784 
" style="fill:none;stroke:#ff7500;stroke-linecap:square;stroke-width:1.5;"/>
   </g>
   <g id="line2d_56">
    <defs>
     <path d="M 0 -6 
L -1.347084 -1.854102 
L -5.706339 -1.854102 
L -2.179628 0.708204 
L -3.526712 4.854102 
L -0 2.291796 
L 3.526712 4.854102 
L 2.179628 0.708204 
L 5.706339 -1.854102 
L 1.347084 -1.854102 
z
" id="m3d6a867b18" style="stroke:#ff7500;stroke-linejoin:bevel;stroke-width:1.5;"/>
    </defs>
    <g>
     <use style="fill-opacity:0;stroke:#ff7500;stroke-linejoin:bevel;stroke-width:1.5;" x="186.706188" xlink:href="#m3d6a867b18" y="223.101204"/>
     <use style="fill-opacity:0;stroke:#ff7500;stroke-linejoin:bevel;stroke-width:1.5;" x="257.277029" xlink:href="#m3d6a867b18" y="195.713528"/>
     <use style="fill-opacity:0;stroke:#ff7500;stroke-linejoin:bevel;stroke-width:1.5;" x="271.235416" xlink:href="#m3d6a867b18" y="193.606784"/>
     <use style="fill-opacity:0;stroke:#ff7500;stroke-linejoin:bevel;stroke-width:1.5;" x="338.688" xlink:href="#m3d6a867b18" y="193.606784"/>
    </g>
   </g>
   <g id="line2d_57">
    <path style="fill:none;stroke:#ff7500;stroke-linecap:square;stroke-width:1.5;"/>
    <g/>
   </g>
   <g id="line2d_58">
    <path clip-path="url(#pb4672b8e00)" d="M 230.322429 202.560447 
" style="fill:none;stroke:#ff7500;stroke-linecap:square;stroke-width:1.5;"/>
    <defs>
     <path d="M -12 12 
L 12 -12 
M -12 -12 
L 12 12 
" id="m2d2355da11" style="stroke:#ff7500;"/>
    </defs>
    <g clip-path="url(#pb4672b8e00)">
     <use style="fill:#ff7500;stroke:#ff7500;" x="230.322429" xlink:href="#m2d2355da11" y="202.560447"/>
    </g>
   </g>
   <g id="line2d_59">
    <defs>
     <path d="M 0 1.5 
C 0.397805 1.5 0.77937 1.341951 1.06066 1.06066 
C 1.341951 0.77937 1.5 0.397805 1.5 0 
C 1.5 -0.397805 1.341951 -0.77937 1.06066 -1.06066 
C 0.77937 -1.341951 0.397805 -1.5 0 -1.5 
C -0.397805 -1.5 -0.77937 -1.341951 -1.06066 -1.06066 
C -1.341951 -0.77937 -1.5 -0.397805 -1.5 0 
C -1.5 0.397805 -1.341951 0.77937 -1.06066 1.06066 
C -0.77937 1.341951 -0.397805 1.5 0 1.5 
z
" id="mfc98156aa3" style="stroke:#9acd32;"/>
    </defs>
    <g>
     <use style="fill:#9acd32;stroke:#9acd32;" x="291.353975" xlink:href="#mfc98156aa3" y="30.334099"/>
     <use style="fill:#9acd32;stroke:#9acd32;" x="291.353975" xlink:href="#mfc98156aa3" y="30.334099"/>
    </g>
   </g>
   <g id="line2d_60">
    <path d="M 17.444571 298.944 
L 17.444571 225.207949 
L 158.460386 225.207949 
L 158.460386 224.681263 
L 159.278248 224.681263 
L 159.278248 224.154577 
L 173.535429 224.154577 
L 173.535429 223.627891 
L 192.543788 223.627891 
L 192.543788 223.101204 
L 198.027927 223.101204 
L 198.027927 222.574518 
L 199.015906 222.574518 
L 199.015906 222.047832 
L 199.414203 222.047832 
L 199.414203 221.521146 
L 204.377508 221.521146 
L 204.377508 220.99446 
L 204.899246 220.99446 
L 204.899246 220.467774 
L 208.788986 220.467774 
L 208.788986 219.941088 
L 212.309004 219.941088 
L 212.309004 219.414402 
L 212.948727 219.414402 
L 213.022428 218.36103 
L 217.144136 218.36103 
L 217.144136 217.834344 
L 217.585938 217.834344 
L 217.585938 217.307658 
L 217.71909 217.307658 
L 217.71909 216.780971 
L 217.898376 216.780971 
L 217.898376 216.254285 
L 218.354098 216.254285 
L 218.354098 215.727599 
L 221.915344 215.727599 
L 221.950585 214.674227 
L 224.629445 214.674227 
L 224.629445 214.147541 
L 226.681537 214.147541 
L 226.681537 213.620855 
L 227.695878 213.620855 
L 227.695878 213.094169 
L 227.898803 213.094169 
L 227.898803 212.567483 
L 228.886363 212.567483 
L 228.886363 212.040797 
L 229.250109 212.040797 
L 229.250109 211.514111 
L 229.780943 211.514111 
L 229.780943 210.987425 
L 230.073199 210.987425 
L 230.073199 210.460738 
L 230.215977 210.460738 
L 230.326436 209.407366 
L 230.457137 209.407366 
L 230.457137 208.88068 
L 231.866255 208.88068 
L 231.946142 207.827308 
L 233.091056 207.827308 
L 233.091056 207.300622 
L 233.481992 207.300622 
L 233.481992 206.773936 
L 238.1073 206.773936 
L 238.1073 206.24725 
L 238.533347 206.24725 
L 238.533347 205.720564 
L 239.394372 205.720564 
L 239.503105 204.667192 
L 240.734718 204.667192 
L 240.833189 203.613819 
L 241.171165 203.613819 
L 241.171165 203.087133 
L 241.318907 203.087133 
L 241.318907 202.560447 
L 241.642633 202.560447 
L 241.642633 202.033761 
L 242.215285 202.033761 
L 242.215285 201.507075 
L 242.328101 201.507075 
L 242.421001 197.820273 
L 242.532757 197.820273 
L 242.62505 194.660156 
L 242.64535 194.660156 
L 242.753846 191.50004 
L 242.777324 191.50004 
L 242.837115 189.393295 
L 242.929803 189.393295 
L 243.034447 187.813237 
L 243.145903 187.813237 
L 243.238838 186.233179 
L 243.273452 186.233179 
L 243.354696 184.126434 
L 243.451658 184.126434 
L 243.509553 182.01969 
L 243.601023 182.01969 
L 243.701484 176.752829 
L 244.179593 176.752829 
L 244.265469 175.172771 
L 244.326233 175.172771 
L 244.378849 174.119399 
L 244.721886 174.119399 
L 244.721886 173.592713 
L 245.700052 173.592713 
L 245.787751 172.539341 
L 245.978283 172.539341 
L 245.978283 172.012655 
L 246.738209 172.012655 
L 246.738209 171.485969 
L 247.594412 171.485969 
L 247.594412 170.959282 
L 249.455074 170.959282 
L 249.549818 167.799166 
L 249.689513 167.799166 
L 249.769745 165.692422 
L 249.831628 165.692422 
L 249.867914 164.112363 
L 249.945323 164.112363 
L 250.055444 161.478933 
L 250.119879 161.478933 
L 250.119879 160.952247 
L 250.282389 160.952247 
L 250.39253 159.372189 
L 250.668502 159.372189 
L 250.668502 158.845503 
L 250.833932 158.845503 
L 250.930689 155.685386 
L 250.985289 155.685386 
L 251.086511 151.471897 
L 251.109013 151.471897 
L 251.204549 145.678351 
L 251.220697 145.678351 
L 251.321193 141.464862 
L 251.34188 141.464862 
L 251.42262 134.617943 
L 251.458468 134.617943 
L 251.542903 128.824396 
L 251.587645 128.824396 
L 251.683571 124.610907 
L 251.711017 124.610907 
L 251.814808 121.450791 
L 251.849758 121.450791 
L 251.957139 120.397419 
L 252.003673 120.397419 
L 252.104692 118.290674 
L 252.12799 118.290674 
L 252.164311 116.710616 
L 252.283264 116.710616 
L 252.283264 116.18393 
L 252.580244 116.18393 
L 252.639013 114.603872 
L 252.693431 114.603872 
L 252.790423 111.443755 
L 252.80836 111.443755 
L 252.91178 105.650209 
L 252.936837 105.650209 
L 253.034455 99.329976 
L 253.059928 99.329976 
L 253.161424 92.483056 
L 253.210252 92.483056 
L 253.315169 84.056079 
L 253.331923 84.056079 
L 253.331923 83.529393 
L 254.813832 83.529393 
L 254.813832 83.002707 
L 255.432611 83.002707 
L 255.432611 82.476021 
L 255.67682 82.476021 
L 255.67682 81.949335 
L 256.52686 81.949335 
L 256.593111 80.895963 
L 264.244341 80.895963 
L 264.354871 77.20916 
L 264.367888 77.20916 
L 264.384257 76.155788 
L 264.537275 76.155788 
L 264.641257 72.995672 
L 264.653965 72.995672 
L 264.653965 72.468985 
L 266.580534 72.468985 
L 266.665917 70.362241 
L 266.724972 70.362241 
L 266.821928 68.782183 
L 267.102988 68.782183 
L 267.203445 66.675439 
L 267.233475 66.675439 
L 267.318225 61.408578 
L 267.36994 61.408578 
L 267.45657 57.195089 
L 267.553573 57.195089 
L 267.634139 55.615031 
L 267.841346 55.615031 
L 267.948532 51.928228 
L 267.969985 51.928228 
L 268.056565 47.71474 
L 268.100039 47.71474 
L 268.110411 46.661368 
L 273.662402 46.661368 
L 273.662402 46.134681 
L 273.795422 46.134681 
L 273.869694 44.554623 
L 275.403967 44.554623 
L 275.493373 42.974565 
L 275.521257 42.974565 
L 275.624886 40.341135 
L 275.662577 40.341135 
L 275.721738 38.23439 
L 275.97226 38.23439 
L 276.031458 36.127646 
L 279.77268 36.127646 
L 279.77268 35.60096 
L 280.973193 35.60096 
L 280.973193 35.074274 
L 281.098763 35.074274 
L 281.098763 34.547588 
L 281.384493 34.547588 
L 281.384493 34.020902 
L 284.265967 34.020902 
L 284.265967 33.494215 
L 285.217072 33.494215 
L 285.265985 31.914157 
L 287.881408 31.914157 
L 287.881408 31.387471 
L 288.883966 31.387471 
L 288.883966 30.860785 
L 291.353975 30.860785 
L 291.353975 30.334099 
L 338.688 30.334099 
L 338.688 30.334099 
" style="fill:none;stroke:#9acd32;stroke-linecap:square;stroke-width:1.5;"/>
   </g>
   <g id="line2d_61">
    <defs>
     <path d="M 0 -6 
L -6 6 
L 6 6 
z
" id="m2d01b91ebe" style="stroke:#9acd32;stroke-linejoin:miter;stroke-width:1.5;"/>
    </defs>
    <g>
     <use style="fill-opacity:0;stroke:#9acd32;stroke-linejoin:miter;stroke-width:1.5;" x="231.946142" xlink:href="#m2d01b91ebe" y="207.827308"/>
     <use style="fill-opacity:0;stroke:#9acd32;stroke-linejoin:miter;stroke-width:1.5;" x="267.203445" xlink:href="#m2d01b91ebe" y="66.675439"/>
     <use style="fill-opacity:0;stroke:#9acd32;stroke-linejoin:miter;stroke-width:1.5;" x="291.353975" xlink:href="#m2d01b91ebe" y="30.334099"/>
     <use style="fill-opacity:0;stroke:#9acd32;stroke-linejoin:miter;stroke-width:1.5;" x="291.353975" xlink:href="#m2d01b91ebe" y="30.334099"/>
     <use style="fill-opacity:0;stroke:#9acd32;stroke-linejoin:miter;stroke-width:1.5;" x="338.688" xlink:href="#m2d01b91ebe" y="30.334099"/>
    </g>
   </g>
   <g id="line2d_62">
    <path style="fill:none;stroke:#9acd32;stroke-linecap:square;stroke-width:1.5;"/>
    <g/>
   </g>
   <g id="line2d_63">
    <path clip-path="url(#pb4672b8e00)" d="M 258.396298 80.895963 
" style="fill:none;stroke:#9acd32;stroke-linecap:square;stroke-width:1.5;"/>
    <defs>
     <path d="M -12 12 
L 12 -12 
M -12 -12 
L 12 12 
" id="m8f66a477e5" style="stroke:#9acd32;"/>
    </defs>
    <g clip-path="url(#pb4672b8e00)">
     <use style="fill:#9acd32;stroke:#9acd32;" x="258.396298" xlink:href="#m8f66a477e5" y="80.895963"/>
    </g>
   </g>
   <g id="line2d_64">
    <path d="M 338.688 198.873645 
L 369.60768 293.571802 
" style="fill:none;stroke:#000080;stroke-linecap:square;stroke-width:1.5;"/>
    <g>
     <use style="fill-opacity:0;stroke:#000080;stroke-width:1.5;" x="338.688" xlink:href="#m477902cf35" y="198.873645"/>
     <use style="fill-opacity:0;stroke:#000080;stroke-width:1.5;" x="369.60768" xlink:href="#m477902cf35" y="293.571802"/>
    </g>
   </g>
   <g id="line2d_65">
    <path d="M 338.688 193.606784 
L 369.60768 250.594218 
" style="fill:none;stroke:#ff0000;stroke-linecap:square;stroke-width:1.5;"/>
    <g>
     <use style="fill-opacity:0;stroke:#ff0000;stroke-linejoin:miter;stroke-width:1.5;" x="338.688" xlink:href="#m886b7fc5f9" y="193.606784"/>
     <use style="fill-opacity:0;stroke:#ff0000;stroke-linejoin:miter;stroke-width:1.5;" x="369.60768" xlink:href="#m886b7fc5f9" y="250.594218"/>
    </g>
   </g>
   <g id="line2d_66">
    <path d="M 338.688 193.606784 
L 369.60768 207.616634 
" style="fill:none;stroke:#ff00ff;stroke-linecap:square;stroke-width:1.5;"/>
    <g>
     <use style="fill-opacity:0;stroke:#ff00ff;stroke-linejoin:miter;stroke-width:1.5;" x="338.688" xlink:href="#meb68d1c3ae" y="193.606784"/>
     <use style="fill-opacity:0;stroke:#ff00ff;stroke-linejoin:miter;stroke-width:1.5;" x="369.60768" xlink:href="#meb68d1c3ae" y="207.616634"/>
    </g>
   </g>
   <g id="line2d_67">
    <path d="M 338.688 193.606784 
L 369.60768 164.63905 
" style="fill:none;stroke:#ff7500;stroke-linecap:square;stroke-width:1.5;"/>
    <g>
     <use style="fill-opacity:0;stroke:#ff7500;stroke-linejoin:bevel;stroke-width:1.5;" x="338.688" xlink:href="#m3d6a867b18" y="193.606784"/>
     <use style="fill-opacity:0;stroke:#ff7500;stroke-linejoin:bevel;stroke-width:1.5;" x="369.60768" xlink:href="#m3d6a867b18" y="164.63905"/>
    </g>
   </g>
   <g id="line2d_68">
    <path d="M 338.688 30.334099 
L 369.60768 121.661465 
" style="fill:none;stroke:#9acd32;stroke-linecap:square;stroke-width:1.5;"/>
    <g>
     <use style="fill-opacity:0;stroke:#9acd32;stroke-linejoin:miter;stroke-width:1.5;" x="338.688" xlink:href="#m2d01b91ebe" y="30.334099"/>
     <use style="fill-opacity:0;stroke:#9acd32;stroke-linejoin:miter;stroke-width:1.5;" x="369.60768" xlink:href="#m2d01b91ebe" y="121.661465"/>
    </g>
   </g>
   <g id="line2d_69">
    <path d="M 338.688 30.334099 
L 369.60768 78.683881 
" style="fill:none;stroke:#000080;stroke-linecap:square;stroke-width:1.5;"/>
    <g>
     <use style="fill-opacity:0;stroke:#000080;stroke-width:1.5;" x="338.688" xlink:href="#m477902cf35" y="30.334099"/>
     <use style="fill-opacity:0;stroke:#000080;stroke-width:1.5;" x="369.60768" xlink:href="#m477902cf35" y="78.683881"/>
    </g>
   </g>
   <g id="line2d_70">
    <path d="M 338.688 298.944 
L 338.688 30.334099 
" style="fill:none;stroke:#000000;stroke-linecap:square;stroke-width:1.5;"/>
   </g>
   <g id="patch_3">
    <path d="M 57.6 298.944 
L 57.6 27.648 
" style="fill:none;stroke:#000000;stroke-linecap:square;stroke-linejoin:miter;stroke-width:0.8;"/>
   </g>
   <g id="patch_4">
    <path d="M 338.688 298.944 
L 338.688 27.648 
" style="fill:none;stroke:#000000;stroke-linecap:square;stroke-linejoin:miter;stroke-width:0.8;"/>
   </g>
   <g id="patch_5">
    <path d="M 57.6 298.944 
L 338.688 298.944 
" style="fill:none;stroke:#000000;stroke-linecap:square;stroke-linejoin:miter;stroke-width:0.8;"/>
   </g>
   <g id="patch_6">
    <path d="M 57.6 27.648 
L 338.688 27.648 
" style="fill:none;stroke:#000000;stroke-linecap:square;stroke-linejoin:miter;stroke-width:0.8;"/>
   </g>
   <g id="text_13">
    <!-- 100-2e4 -->
    <g transform="translate(375.22944 298.262739)scale(0.17 -0.17)">
     <use xlink:href="#DejaVuSans-49"/>
     <use x="63.623047" xlink:href="#DejaVuSans-48"/>
     <use x="127.246094" xlink:href="#DejaVuSans-48"/>
     <use x="190.869141" xlink:href="#DejaVuSans-45"/>
     <use x="226.953125" xlink:href="#DejaVuSans-50"/>
     <use x="290.576172" xlink:href="#DejaVuSans-101"/>
     <use x="352.099609" xlink:href="#DejaVuSans-52"/>
    </g>
   </g>
   <g id="text_14">
    <!-- 050-2e4 -->
    <defs>
     <path d="M 10.796875 72.90625 
L 49.515625 72.90625 
L 49.515625 64.59375 
L 19.828125 64.59375 
L 19.828125 46.734375 
Q 21.96875 47.46875 24.109375 47.828125 
Q 26.265625 48.1875 28.421875 48.1875 
Q 40.625 48.1875 47.75 41.5 
Q 54.890625 34.8125 54.890625 23.390625 
Q 54.890625 11.625 47.5625 5.09375 
Q 40.234375 -1.421875 26.90625 -1.421875 
Q 22.3125 -1.421875 17.546875 -0.640625 
Q 12.796875 0.140625 7.71875 1.703125 
L 7.71875 11.625 
Q 12.109375 9.234375 16.796875 8.0625 
Q 21.484375 6.890625 26.703125 6.890625 
Q 35.15625 6.890625 40.078125 11.328125 
Q 45.015625 15.765625 45.015625 23.390625 
Q 45.015625 31 40.078125 35.4375 
Q 35.15625 39.890625 26.703125 39.890625 
Q 22.75 39.890625 18.8125 39.015625 
Q 14.890625 38.140625 10.796875 36.28125 
z
" id="DejaVuSans-53"/>
    </defs>
    <g transform="translate(375.22944 255.285155)scale(0.17 -0.17)">
     <use xlink:href="#DejaVuSans-48"/>
     <use x="63.623047" xlink:href="#DejaVuSans-53"/>
     <use x="127.246094" xlink:href="#DejaVuSans-48"/>
     <use x="190.869141" xlink:href="#DejaVuSans-45"/>
     <use x="226.953125" xlink:href="#DejaVuSans-50"/>
     <use x="290.576172" xlink:href="#DejaVuSans-101"/>
     <use x="352.099609" xlink:href="#DejaVuSans-52"/>
    </g>
   </g>
   <g id="text_15">
    <!-- 025-2e4 -->
    <g transform="translate(375.22944 212.307571)scale(0.17 -0.17)">
     <use xlink:href="#DejaVuSans-48"/>
     <use x="63.623047" xlink:href="#DejaVuSans-50"/>
     <use x="127.246094" xlink:href="#DejaVuSans-53"/>
     <use x="190.869141" xlink:href="#DejaVuSans-45"/>
     <use x="226.953125" xlink:href="#DejaVuSans-50"/>
     <use x="290.576172" xlink:href="#DejaVuSans-101"/>
     <use x="352.099609" xlink:href="#DejaVuSans-52"/>
    </g>
   </g>
   <g id="text_16">
    <!-- 075-2e4 -->
    <defs>
     <path d="M 8.203125 72.90625 
L 55.078125 72.90625 
L 55.078125 68.703125 
L 28.609375 0 
L 18.3125 0 
L 43.21875 64.59375 
L 8.203125 64.59375 
z
" id="DejaVuSans-55"/>
    </defs>
    <g transform="translate(375.22944 169.329987)scale(0.17 -0.17)">
     <use xlink:href="#DejaVuSans-48"/>
     <use x="63.623047" xlink:href="#DejaVuSans-55"/>
     <use x="127.246094" xlink:href="#DejaVuSans-53"/>
     <use x="190.869141" xlink:href="#DejaVuSans-45"/>
     <use x="226.953125" xlink:href="#DejaVuSans-50"/>
     <use x="290.576172" xlink:href="#DejaVuSans-101"/>
     <use x="352.099609" xlink:href="#DejaVuSans-52"/>
    </g>
   </g>
   <g id="text_17">
    <!-- 080-1e5 -->
    <g transform="translate(375.22944 126.352403)scale(0.17 -0.17)">
     <use xlink:href="#DejaVuSans-48"/>
     <use x="63.623047" xlink:href="#DejaVuSans-56"/>
     <use x="127.246094" xlink:href="#DejaVuSans-48"/>
     <use x="190.869141" xlink:href="#DejaVuSans-45"/>
     <use x="226.953125" xlink:href="#DejaVuSans-49"/>
     <use x="290.576172" xlink:href="#DejaVuSans-101"/>
     <use x="352.099609" xlink:href="#DejaVuSans-53"/>
    </g>
   </g>
   <g id="text_18">
    <!-- 100-1e5 -->
    <g transform="translate(375.22944 83.374819)scale(0.17 -0.17)">
     <use xlink:href="#DejaVuSans-49"/>
     <use x="63.623047" xlink:href="#DejaVuSans-48"/>
     <use x="127.246094" xlink:href="#DejaVuSans-48"/>
     <use x="190.869141" xlink:href="#DejaVuSans-45"/>
     <use x="226.953125" xlink:href="#DejaVuSans-49"/>
     <use x="290.576172" xlink:href="#DejaVuSans-101"/>
     <use x="352.099609" xlink:href="#DejaVuSans-53"/>
    </g>
   </g>
   <g id="text_19">
    <!-- best 2009 -->
    <defs>
     <path d="M 48.6875 27.296875 
Q 48.6875 37.203125 44.609375 42.84375 
Q 40.53125 48.484375 33.40625 48.484375 
Q 26.265625 48.484375 22.1875 42.84375 
Q 18.109375 37.203125 18.109375 27.296875 
Q 18.109375 17.390625 22.1875 11.75 
Q 26.265625 6.109375 33.40625 6.109375 
Q 40.53125 6.109375 44.609375 11.75 
Q 48.6875 17.390625 48.6875 27.296875 
z
M 18.109375 46.390625 
Q 20.953125 51.265625 25.265625 53.625 
Q 29.59375 56 35.59375 56 
Q 45.5625 56 51.78125 48.09375 
Q 58.015625 40.1875 58.015625 27.296875 
Q 58.015625 14.40625 51.78125 6.484375 
Q 45.5625 -1.421875 35.59375 -1.421875 
Q 29.59375 -1.421875 25.265625 0.953125 
Q 20.953125 3.328125 18.109375 8.203125 
L 18.109375 0 
L 9.078125 0 
L 9.078125 75.984375 
L 18.109375 75.984375 
z
" id="DejaVuSans-98"/>
     <path d="M 10.984375 1.515625 
L 10.984375 10.5 
Q 14.703125 8.734375 18.5 7.8125 
Q 22.3125 6.890625 25.984375 6.890625 
Q 35.75 6.890625 40.890625 13.453125 
Q 46.046875 20.015625 46.78125 33.40625 
Q 43.953125 29.203125 39.59375 26.953125 
Q 35.25 24.703125 29.984375 24.703125 
Q 19.046875 24.703125 12.671875 31.3125 
Q 6.296875 37.9375 6.296875 49.421875 
Q 6.296875 60.640625 12.9375 67.421875 
Q 19.578125 74.21875 30.609375 74.21875 
Q 43.265625 74.21875 49.921875 64.515625 
Q 56.59375 54.828125 56.59375 36.375 
Q 56.59375 19.140625 48.40625 8.859375 
Q 40.234375 -1.421875 26.421875 -1.421875 
Q 22.703125 -1.421875 18.890625 -0.6875 
Q 15.09375 0.046875 10.984375 1.515625 
z
M 30.609375 32.421875 
Q 37.25 32.421875 41.125 36.953125 
Q 45.015625 41.5 45.015625 49.421875 
Q 45.015625 57.28125 41.125 61.84375 
Q 37.25 66.40625 30.609375 66.40625 
Q 23.96875 66.40625 20.09375 61.84375 
Q 16.21875 57.28125 16.21875 49.421875 
Q 16.21875 41.5 20.09375 36.953125 
Q 23.96875 32.421875 30.609375 32.421875 
z
" id="DejaVuSans-57"/>
    </defs>
    <g transform="translate(375.22944 40.397235)scale(0.17 -0.17)">
     <use xlink:href="#DejaVuSans-98"/>
     <use x="63.476562" xlink:href="#DejaVuSans-101"/>
     <use x="125" xlink:href="#DejaVuSans-115"/>
     <use x="177.099609" xlink:href="#DejaVuSans-116"/>
     <use x="216.308594" xlink:href="#DejaVuSans-32"/>
     <use x="248.095703" xlink:href="#DejaVuSans-50"/>
     <use x="311.71875" xlink:href="#DejaVuSans-48"/>
     <use x="375.341797" xlink:href="#DejaVuSans-48"/>
     <use x="438.964844" xlink:href="#DejaVuSans-57"/>
    </g>
   </g>
   <g id="text_20">
    <!-- bbob f19, 10-D -->
    <defs>
     <path d="M 19.671875 64.796875 
L 19.671875 8.109375 
L 31.59375 8.109375 
Q 46.6875 8.109375 53.6875 14.9375 
Q 60.6875 21.78125 60.6875 36.53125 
Q 60.6875 51.171875 53.6875 57.984375 
Q 46.6875 64.796875 31.59375 64.796875 
z
M 9.8125 72.90625 
L 30.078125 72.90625 
Q 51.265625 72.90625 61.171875 64.09375 
Q 71.09375 55.28125 71.09375 36.53125 
Q 71.09375 17.671875 61.125 8.828125 
Q 51.171875 0 30.078125 0 
L 9.8125 0 
z
" id="DejaVuSans-68"/>
    </defs>
    <g transform="translate(60.41088 38.111366)scale(0.102 -0.102)">
     <use xlink:href="#DejaVuSans-98"/>
     <use x="63.476562" xlink:href="#DejaVuSans-98"/>
     <use x="126.953125" xlink:href="#DejaVuSans-111"/>
     <use x="188.134766" xlink:href="#DejaVuSans-98"/>
     <use x="251.611328" xlink:href="#DejaVuSans-32"/>
     <use x="283.398438" xlink:href="#DejaVuSans-102"/>
     <use x="318.603516" xlink:href="#DejaVuSans-49"/>
     <use x="382.226562" xlink:href="#DejaVuSans-57"/>
     <use x="445.849609" xlink:href="#DejaVuSans-44"/>
     <use x="477.636719" xlink:href="#DejaVuSans-32"/>
     <use x="509.423828" xlink:href="#DejaVuSans-49"/>
     <use x="573.046875" xlink:href="#DejaVuSans-48"/>
     <use x="636.669922" xlink:href="#DejaVuSans-45"/>
     <use x="672.753906" xlink:href="#DejaVuSans-68"/>
    </g>
    <!-- 51 targets: 100..1e-08 -->
    <defs>
     <path d="M 11.71875 12.40625 
L 22.015625 12.40625 
L 22.015625 0 
L 11.71875 0 
z
M 11.71875 51.703125 
L 22.015625 51.703125 
L 22.015625 39.3125 
L 11.71875 39.3125 
z
" id="DejaVuSans-58"/>
    </defs>
    <g transform="translate(60.41088 49.533135)scale(0.102 -0.102)">
     <use xlink:href="#DejaVuSans-53"/>
     <use x="63.623047" xlink:href="#DejaVuSans-49"/>
     <use x="127.246094" xlink:href="#DejaVuSans-32"/>
     <use x="159.033203" xlink:href="#DejaVuSans-116"/>
     <use x="198.242188" xlink:href="#DejaVuSans-97"/>
     <use x="259.521484" xlink:href="#DejaVuSans-114"/>
     <use x="300.619141" xlink:href="#DejaVuSans-103"/>
     <use x="364.095703" xlink:href="#DejaVuSans-101"/>
     <use x="425.619141" xlink:href="#DejaVuSans-116"/>
     <use x="464.828125" xlink:href="#DejaVuSans-115"/>
     <use x="516.927734" xlink:href="#DejaVuSans-58"/>
     <use x="550.619141" xlink:href="#DejaVuSans-32"/>
     <use x="582.40625" xlink:href="#DejaVuSans-49"/>
     <use x="646.029297" xlink:href="#DejaVuSans-48"/>
     <use x="709.652344" xlink:href="#DejaVuSans-48"/>
     <use x="773.275391" xlink:href="#DejaVuSans-46"/>
     <use x="805.0625" xlink:href="#DejaVuSans-46"/>
     <use x="836.849609" xlink:href="#DejaVuSans-49"/>
     <use x="900.472656" xlink:href="#DejaVuSans-101"/>
     <use x="961.996094" xlink:href="#DejaVuSans-45"/>
     <use x="998.080078" xlink:href="#DejaVuSans-48"/>
     <use x="1061.703125" xlink:href="#DejaVuSans-56"/>
    </g>
    <!-- 15 instances -->
    <g transform="translate(60.41088 60.954904)scale(0.102 -0.102)">
     <use xlink:href="#DejaVuSans-49"/>
     <use x="63.623047" xlink:href="#DejaVuSans-53"/>
     <use x="127.246094" xlink:href="#DejaVuSans-32"/>
     <use x="159.033203" xlink:href="#DejaVuSans-105"/>
     <use x="186.816406" xlink:href="#DejaVuSans-110"/>
     <use x="250.195312" xlink:href="#DejaVuSans-115"/>
     <use x="302.294922" xlink:href="#DejaVuSans-116"/>
     <use x="341.503906" xlink:href="#DejaVuSans-97"/>
     <use x="402.783203" xlink:href="#DejaVuSans-110"/>
     <use x="466.162109" xlink:href="#DejaVuSans-99"/>
     <use x="521.142578" xlink:href="#DejaVuSans-101"/>
     <use x="582.666016" xlink:href="#DejaVuSans-115"/>
    </g>
   </g>
   <g id="text_21">
    <!-- v2.3.3.18.73 -->
    <defs>
     <path d="M 40.578125 39.3125 
Q 47.65625 37.796875 51.625 33 
Q 55.609375 28.21875 55.609375 21.1875 
Q 55.609375 10.40625 48.1875 4.484375 
Q 40.765625 -1.421875 27.09375 -1.421875 
Q 22.515625 -1.421875 17.65625 -0.515625 
Q 12.796875 0.390625 7.625 2.203125 
L 7.625 11.71875 
Q 11.71875 9.328125 16.59375 8.109375 
Q 21.484375 6.890625 26.8125 6.890625 
Q 36.078125 6.890625 40.9375 10.546875 
Q 45.796875 14.203125 45.796875 21.1875 
Q 45.796875 27.640625 41.28125 31.265625 
Q 36.765625 34.90625 28.71875 34.90625 
L 20.21875 34.90625 
L 20.21875 43.015625 
L 29.109375 43.015625 
Q 36.375 43.015625 40.234375 45.921875 
Q 44.09375 48.828125 44.09375 54.296875 
Q 44.09375 59.90625 40.109375 62.90625 
Q 36.140625 65.921875 28.71875 65.921875 
Q 24.65625 65.921875 20.015625 65.03125 
Q 15.375 64.15625 9.8125 62.3125 
L 9.8125 71.09375 
Q 15.4375 72.65625 20.34375 73.4375 
Q 25.25 74.21875 29.59375 74.21875 
Q 40.828125 74.21875 47.359375 69.109375 
Q 53.90625 64.015625 53.90625 55.328125 
Q 53.90625 49.265625 50.4375 45.09375 
Q 46.96875 40.921875 40.578125 39.3125 
z
" id="DejaVuSans-51"/>
    </defs>
    <g style="fill:#808080;" transform="translate(166.559625 294.151352)scale(0.1 -0.1)">
     <use xlink:href="#DejaVuSans-118"/>
     <use x="59.179688" xlink:href="#DejaVuSans-50"/>
     <use x="122.802734" xlink:href="#DejaVuSans-46"/>
     <use x="154.589844" xlink:href="#DejaVuSans-51"/>
     <use x="218.212891" xlink:href="#DejaVuSans-46"/>
     <use x="250" xlink:href="#DejaVuSans-51"/>
     <use x="313.623047" xlink:href="#DejaVuSans-46"/>
     <use x="345.410156" xlink:href="#DejaVuSans-49"/>
     <use x="409.033203" xlink:href="#DejaVuSans-56"/>
     <use x="472.65625" xlink:href="#DejaVuSans-46"/>
     <use x="504.443359" xlink:href="#DejaVuSans-55"/>
     <use x="568.066406" xlink:href="#DejaVuSans-51"/>
    </g>
   </g>
   <g id="text_22">
    <!-- 19 Griewank-Rosenbrock F8F2 -->
    <defs>
     <path d="M 59.515625 10.40625 
L 59.515625 29.984375 
L 43.40625 29.984375 
L 43.40625 38.09375 
L 69.28125 38.09375 
L 69.28125 6.78125 
Q 63.578125 2.734375 56.6875 0.65625 
Q 49.8125 -1.421875 42 -1.421875 
Q 24.90625 -1.421875 15.25 8.5625 
Q 5.609375 18.5625 5.609375 36.375 
Q 5.609375 54.25 15.25 64.234375 
Q 24.90625 74.21875 42 74.21875 
Q 49.125 74.21875 55.546875 72.453125 
Q 61.96875 70.703125 67.390625 67.28125 
L 67.390625 56.78125 
Q 61.921875 61.421875 55.765625 63.765625 
Q 49.609375 66.109375 42.828125 66.109375 
Q 29.4375 66.109375 22.71875 58.640625 
Q 16.015625 51.171875 16.015625 36.375 
Q 16.015625 21.625 22.71875 14.15625 
Q 29.4375 6.6875 42.828125 6.6875 
Q 48.046875 6.6875 52.140625 7.59375 
Q 56.25 8.5 59.515625 10.40625 
z
" id="DejaVuSans-71"/>
     <path d="M 4.203125 54.6875 
L 13.1875 54.6875 
L 24.421875 12.015625 
L 35.59375 54.6875 
L 46.1875 54.6875 
L 57.421875 12.015625 
L 68.609375 54.6875 
L 77.59375 54.6875 
L 63.28125 0 
L 52.6875 0 
L 40.921875 44.828125 
L 29.109375 0 
L 18.5 0 
z
" id="DejaVuSans-119"/>
     <path d="M 9.078125 75.984375 
L 18.109375 75.984375 
L 18.109375 31.109375 
L 44.921875 54.6875 
L 56.390625 54.6875 
L 27.390625 29.109375 
L 57.625 0 
L 45.90625 0 
L 18.109375 26.703125 
L 18.109375 0 
L 9.078125 0 
z
" id="DejaVuSans-107"/>
     <path d="M 44.390625 34.1875 
Q 47.5625 33.109375 50.5625 29.59375 
Q 53.5625 26.078125 56.59375 19.921875 
L 66.609375 0 
L 56 0 
L 46.6875 18.703125 
Q 43.0625 26.03125 39.671875 28.421875 
Q 36.28125 30.8125 30.421875 30.8125 
L 19.671875 30.8125 
L 19.671875 0 
L 9.8125 0 
L 9.8125 72.90625 
L 32.078125 72.90625 
Q 44.578125 72.90625 50.734375 67.671875 
Q 56.890625 62.453125 56.890625 51.90625 
Q 56.890625 45.015625 53.6875 40.46875 
Q 50.484375 35.9375 44.390625 34.1875 
z
M 19.671875 64.796875 
L 19.671875 38.921875 
L 32.078125 38.921875 
Q 39.203125 38.921875 42.84375 42.21875 
Q 46.484375 45.515625 46.484375 51.90625 
Q 46.484375 58.296875 42.84375 61.546875 
Q 39.203125 64.796875 32.078125 64.796875 
z
" id="DejaVuSans-82"/>
    </defs>
    <g transform="translate(45.376812 21.648)scale(0.2 -0.2)">
     <use xlink:href="#DejaVuSans-49"/>
     <use x="63.623047" xlink:href="#DejaVuSans-57"/>
     <use x="127.246094" xlink:href="#DejaVuSans-32"/>
     <use x="159.033203" xlink:href="#DejaVuSans-71"/>
     <use x="236.523438" xlink:href="#DejaVuSans-114"/>
     <use x="277.636719" xlink:href="#DejaVuSans-105"/>
     <use x="305.419922" xlink:href="#DejaVuSans-101"/>
     <use x="366.943359" xlink:href="#DejaVuSans-119"/>
     <use x="448.730469" xlink:href="#DejaVuSans-97"/>
     <use x="510.009766" xlink:href="#DejaVuSans-110"/>
     <use x="573.388672" xlink:href="#DejaVuSans-107"/>
     <use x="631.298828" xlink:href="#DejaVuSans-45"/>
     <use x="667.382812" xlink:href="#DejaVuSans-82"/>
     <use x="736.802734" xlink:href="#DejaVuSans-111"/>
     <use x="797.984375" xlink:href="#DejaVuSans-115"/>
     <use x="850.083984" xlink:href="#DejaVuSans-101"/>
     <use x="911.607422" xlink:href="#DejaVuSans-110"/>
     <use x="974.986328" xlink:href="#DejaVuSans-98"/>
     <use x="1038.462891" xlink:href="#DejaVuSans-114"/>
     <use x="1079.544922" xlink:href="#DejaVuSans-111"/>
     <use x="1140.726562" xlink:href="#DejaVuSans-99"/>
     <use x="1195.707031" xlink:href="#DejaVuSans-107"/>
     <use x="1253.617188" xlink:href="#DejaVuSans-32"/>
     <use x="1285.404297" xlink:href="#DejaVuSans-70"/>
     <use x="1342.923828" xlink:href="#DejaVuSans-56"/>
     <use x="1406.546875" xlink:href="#DejaVuSans-70"/>
     <use x="1464.066406" xlink:href="#DejaVuSans-50"/>
    </g>
   </g>
  </g>
 </g>
 <defs>
  <clipPath id="pb4672b8e00">
   <rect height="271.296" width="281.088" x="57.6" y="27.648"/>
  </clipPath>
 </defs>
</svg>
