<?xml version="1.0" encoding="utf-8" standalone="no"?>
<!DOCTYPE svg PUBLIC "-//W3C//DTD SVG 1.1//EN"
  "http://www.w3.org/Graphics/SVG/1.1/DTD/svg11.dtd">
<!-- Created with matplotlib (https://matplotlib.org/) -->
<svg height="345.6pt" version="1.1" viewBox="0 0 460.8 345.6" width="460.8pt" xmlns="http://www.w3.org/2000/svg" xmlns:xlink="http://www.w3.org/1999/xlink">
 <defs>
  <style type="text/css">
*{stroke-linecap:butt;stroke-linejoin:round;}
  </style>
 </defs>
 <g id="figure_1">
  <g id="patch_1">
   <path d="M 0 345.6 
L 460.8 345.6 
L 460.8 0 
L 0 0 
z
" style="fill:#ffffff;"/>
  </g>
  <g id="axes_1">
   <g id="patch_2">
    <path d="M 57.6 298.944 
L 338.688 298.944 
L 338.688 27.648 
L 57.6 27.648 
z
" style="fill:#ffffff;"/>
   </g>
   <g id="line2d_1">
    <path d="M 90.509138 298.944 
L 90.509138 293.677139 
L 128.885774 293.677139 
L 128.885774 288.410278 
L 158.091517 288.410278 
L 158.091517 283.143418 
L 173.435646 283.143418 
L 173.435646 277.876557 
L 184.368386 277.876557 
L 184.368386 272.609696 
L 218.004292 272.609696 
L 218.004292 267.342835 
L 236.861578 267.342835 
L 236.861578 262.075974 
L 244.525529 262.075974 
L 244.525529 256.809114 
L 245.240862 256.809114 
L 245.240862 251.542253 
L 256.629255 251.542253 
L 256.629255 246.275392 
L 259.144098 246.275392 
L 259.144098 241.008531 
L 278.379785 241.008531 
L 278.379785 235.74167 
L 286.359201 235.74167 
L 286.359201 230.47481 
L 308.171012 230.47481 
L 308.171012 225.207949 
L 333.612443 225.207949 
L 333.612443 214.674227 
L 333.61278 214.674227 
L 333.61278 209.407366 
L 333.613037 209.407366 
L 333.613037 204.140506 
L 333.613424 204.140506 
L 333.613424 198.873645 
L 333.613605 198.873645 
L 333.613605 193.606784 
L 333.613773 193.606784 
L 333.613773 188.339923 
L 333.613991 188.339923 
L 333.613991 177.806202 
L 333.614442 177.806202 
L 333.614442 172.539341 
L 333.614555 172.539341 
L 333.614555 167.27248 
L 333.614781 167.27248 
L 333.614781 162.005619 
L 333.615162 162.005619 
L 333.615162 156.738758 
L 333.615285 156.738758 
L 333.615285 151.471897 
L 333.61555 151.471897 
L 333.61555 146.205037 
L 333.615646 146.205037 
L 333.615646 140.938176 
L 333.61587 140.938176 
L 333.61587 135.671315 
L 333.616131 135.671315 
L 333.616131 130.404454 
L 333.616151 130.404454 
L 333.616151 125.137593 
L 333.616479 125.137593 
L 333.616479 119.870733 
L 333.616818 119.870733 
L 333.616818 114.603872 
L 333.616893 114.603872 
L 333.616893 109.337011 
L 333.616903 109.337011 
L 333.616903 104.07015 
L 333.617197 104.07015 
L 333.617197 98.803289 
L 333.61731 98.803289 
L 333.61731 93.536429 
L 333.617431 93.536429 
L 333.617431 88.269568 
L 333.617885 88.269568 
L 333.617885 83.002707 
L 333.617947 83.002707 
L 333.617947 77.735846 
L 333.618438 77.735846 
L 333.618438 67.202125 
L 333.618843 67.202125 
L 333.618843 61.935264 
L 333.618943 61.935264 
L 333.618943 56.668403 
L 333.619212 56.668403 
L 333.619212 51.401542 
L 333.619277 51.401542 
L 333.619277 46.134681 
L 333.619533 46.134681 
L 333.619533 35.60096 
L 333.619938 35.60096 
L 333.619938 30.334099 
L 338.688 30.334099 
" style="fill:none;stroke:#f5deb3;stroke-linecap:square;stroke-width:4;"/>
   </g>
   <g id="line2d_2">
    <defs>
     <path d="M -0 7.778175 
L 7.778175 0 
L 0 -7.778175 
L -7.778175 -0 
z
" id="mcb1eb7992d" style="stroke:#f5deb3;stroke-linejoin:miter;stroke-width:1.5;"/>
    </defs>
    <g>
     <use style="fill:#f5deb3;stroke:#f5deb3;stroke-linejoin:miter;stroke-width:1.5;" x="218.004292" xlink:href="#mcb1eb7992d" y="267.342835"/>
     <use style="fill:#f5deb3;stroke:#f5deb3;stroke-linejoin:miter;stroke-width:1.5;" x="308.171012" xlink:href="#mcb1eb7992d" y="230.47481"/>
     <use style="fill:#f5deb3;stroke:#f5deb3;stroke-linejoin:miter;stroke-width:1.5;" x="333.617947" xlink:href="#mcb1eb7992d" y="83.002707"/>
     <use style="fill:#f5deb3;stroke:#f5deb3;stroke-linejoin:miter;stroke-width:1.5;" x="333.619938" xlink:href="#mcb1eb7992d" y="30.334099"/>
     <use style="fill:#f5deb3;stroke:#f5deb3;stroke-linejoin:miter;stroke-width:1.5;" x="338.688" xlink:href="#mcb1eb7992d" y="30.334099"/>
    </g>
   </g>
   <g id="line2d_3">
    <path style="fill:none;stroke:#f5deb3;stroke-linecap:square;stroke-width:4;"/>
    <g/>
   </g>
   <g id="line2d_4">
    <path d="M 338.688 30.334099 
L 369.60768 35.706297 
" style="fill:none;stroke:#f5deb3;stroke-linecap:square;stroke-width:4;"/>
    <g>
     <use style="fill:#f5deb3;stroke:#f5deb3;stroke-linejoin:miter;stroke-width:1.5;" x="338.688" xlink:href="#mcb1eb7992d" y="30.334099"/>
     <use style="fill:#f5deb3;stroke:#f5deb3;stroke-linejoin:miter;stroke-width:1.5;" x="369.60768" xlink:href="#mcb1eb7992d" y="35.706297"/>
    </g>
   </g>
   <g id="matplotlib.axis_1">
    <g id="xtick_1">
     <g id="line2d_5">
      <path clip-path="url(#pa9ced836a7)" d="M 57.6 298.944 
L 57.6 27.648 
" style="fill:none;stroke:#b0b0b0;stroke-linecap:square;stroke-width:0.8;"/>
     </g>
     <g id="line2d_6">
      <defs>
       <path d="M 0 0 
L 0 3.5 
" id="mb18b0494a2" style="stroke:#000000;stroke-width:0.8;"/>
      </defs>
      <g>
       <use style="stroke:#000000;stroke-width:0.8;" x="57.6" xlink:href="#mb18b0494a2" y="298.944"/>
      </g>
     </g>
     <g id="text_1">
      <!-- 0 -->
      <defs>
       <path d="M 31.78125 66.40625 
Q 24.171875 66.40625 20.328125 58.90625 
Q 16.5 51.421875 16.5 36.375 
Q 16.5 21.390625 20.328125 13.890625 
Q 24.171875 6.390625 31.78125 6.390625 
Q 39.453125 6.390625 43.28125 13.890625 
Q 47.125 21.390625 47.125 36.375 
Q 47.125 51.421875 43.28125 58.90625 
Q 39.453125 66.40625 31.78125 66.40625 
z
M 31.78125 74.21875 
Q 44.046875 74.21875 50.515625 64.515625 
Q 56.984375 54.828125 56.984375 36.375 
Q 56.984375 17.96875 50.515625 8.265625 
Q 44.046875 -1.421875 31.78125 -1.421875 
Q 19.53125 -1.421875 13.0625 8.265625 
Q 6.59375 17.96875 6.59375 36.375 
Q 6.59375 54.828125 13.0625 64.515625 
Q 19.53125 74.21875 31.78125 74.21875 
z
" id="DejaVuSans-48"/>
      </defs>
      <g transform="translate(51.2375 321.140875)scale(0.2 -0.2)">
       <use xlink:href="#DejaVuSans-48"/>
      </g>
     </g>
    </g>
    <g id="xtick_2">
     <g id="line2d_7">
      <path clip-path="url(#pa9ced836a7)" d="M 137.910857 298.944 
L 137.910857 27.648 
" style="fill:none;stroke:#b0b0b0;stroke-linecap:square;stroke-width:0.8;"/>
     </g>
     <g id="line2d_8">
      <g>
       <use style="stroke:#000000;stroke-width:0.8;" x="137.910857" xlink:href="#mb18b0494a2" y="298.944"/>
      </g>
     </g>
     <g id="text_2">
      <!-- 2 -->
      <defs>
       <path d="M 19.1875 8.296875 
L 53.609375 8.296875 
L 53.609375 0 
L 7.328125 0 
L 7.328125 8.296875 
Q 12.9375 14.109375 22.625 23.890625 
Q 32.328125 33.6875 34.8125 36.53125 
Q 39.546875 41.84375 41.421875 45.53125 
Q 43.3125 49.21875 43.3125 52.78125 
Q 43.3125 58.59375 39.234375 62.25 
Q 35.15625 65.921875 28.609375 65.921875 
Q 23.96875 65.921875 18.8125 64.3125 
Q 13.671875 62.703125 7.8125 59.421875 
L 7.8125 69.390625 
Q 13.765625 71.78125 18.9375 73 
Q 24.125 74.21875 28.421875 74.21875 
Q 39.75 74.21875 46.484375 68.546875 
Q 53.21875 62.890625 53.21875 53.421875 
Q 53.21875 48.921875 51.53125 44.890625 
Q 49.859375 40.875 45.40625 35.40625 
Q 44.1875 33.984375 37.640625 27.21875 
Q 31.109375 20.453125 19.1875 8.296875 
z
" id="DejaVuSans-50"/>
      </defs>
      <g transform="translate(131.548357 321.140875)scale(0.2 -0.2)">
       <use xlink:href="#DejaVuSans-50"/>
      </g>
     </g>
    </g>
    <g id="xtick_3">
     <g id="line2d_9">
      <path clip-path="url(#pa9ced836a7)" d="M 218.221714 298.944 
L 218.221714 27.648 
" style="fill:none;stroke:#b0b0b0;stroke-linecap:square;stroke-width:0.8;"/>
     </g>
     <g id="line2d_10">
      <g>
       <use style="stroke:#000000;stroke-width:0.8;" x="218.221714" xlink:href="#mb18b0494a2" y="298.944"/>
      </g>
     </g>
     <g id="text_3">
      <!-- 4 -->
      <defs>
       <path d="M 37.796875 64.3125 
L 12.890625 25.390625 
L 37.796875 25.390625 
z
M 35.203125 72.90625 
L 47.609375 72.90625 
L 47.609375 25.390625 
L 58.015625 25.390625 
L 58.015625 17.1875 
L 47.609375 17.1875 
L 47.609375 0 
L 37.796875 0 
L 37.796875 17.1875 
L 4.890625 17.1875 
L 4.890625 26.703125 
z
" id="DejaVuSans-52"/>
      </defs>
      <g transform="translate(211.859214 321.140875)scale(0.2 -0.2)">
       <use xlink:href="#DejaVuSans-52"/>
      </g>
     </g>
    </g>
    <g id="xtick_4">
     <g id="line2d_11">
      <path clip-path="url(#pa9ced836a7)" d="M 298.532571 298.944 
L 298.532571 27.648 
" style="fill:none;stroke:#b0b0b0;stroke-linecap:square;stroke-width:0.8;"/>
     </g>
     <g id="line2d_12">
      <g>
       <use style="stroke:#000000;stroke-width:0.8;" x="298.532571" xlink:href="#mb18b0494a2" y="298.944"/>
      </g>
     </g>
     <g id="text_4">
      <!-- 6 -->
      <defs>
       <path d="M 33.015625 40.375 
Q 26.375 40.375 22.484375 35.828125 
Q 18.609375 31.296875 18.609375 23.390625 
Q 18.609375 15.53125 22.484375 10.953125 
Q 26.375 6.390625 33.015625 6.390625 
Q 39.65625 6.390625 43.53125 10.953125 
Q 47.40625 15.53125 47.40625 23.390625 
Q 47.40625 31.296875 43.53125 35.828125 
Q 39.65625 40.375 33.015625 40.375 
z
M 52.59375 71.296875 
L 52.59375 62.3125 
Q 48.875 64.0625 45.09375 64.984375 
Q 41.3125 65.921875 37.59375 65.921875 
Q 27.828125 65.921875 22.671875 59.328125 
Q 17.53125 52.734375 16.796875 39.40625 
Q 19.671875 43.65625 24.015625 45.921875 
Q 28.375 48.1875 33.59375 48.1875 
Q 44.578125 48.1875 50.953125 41.515625 
Q 57.328125 34.859375 57.328125 23.390625 
Q 57.328125 12.15625 50.6875 5.359375 
Q 44.046875 -1.421875 33.015625 -1.421875 
Q 20.359375 -1.421875 13.671875 8.265625 
Q 6.984375 17.96875 6.984375 36.375 
Q 6.984375 53.65625 15.1875 63.9375 
Q 23.390625 74.21875 37.203125 74.21875 
Q 40.921875 74.21875 44.703125 73.484375 
Q 48.484375 72.75 52.59375 71.296875 
z
" id="DejaVuSans-54"/>
      </defs>
      <g transform="translate(292.170071 321.140875)scale(0.2 -0.2)">
       <use xlink:href="#DejaVuSans-54"/>
      </g>
     </g>
    </g>
    <g id="xtick_5">
     <g id="line2d_13">
      <path clip-path="url(#pa9ced836a7)" d="M 97.755429 298.944 
L 97.755429 27.648 
" style="fill:none;stroke:#b0b0b0;stroke-linecap:square;stroke-width:0.8;"/>
     </g>
     <g id="line2d_14">
      <defs>
       <path d="M 0 0 
L 0 2 
" id="mae17095e4f" style="stroke:#000000;stroke-width:0.6;"/>
      </defs>
      <g>
       <use style="stroke:#000000;stroke-width:0.6;" x="97.755429" xlink:href="#mae17095e4f" y="298.944"/>
      </g>
     </g>
    </g>
    <g id="xtick_6">
     <g id="line2d_15">
      <path clip-path="url(#pa9ced836a7)" d="M 178.066286 298.944 
L 178.066286 27.648 
" style="fill:none;stroke:#b0b0b0;stroke-linecap:square;stroke-width:0.8;"/>
     </g>
     <g id="line2d_16">
      <g>
       <use style="stroke:#000000;stroke-width:0.6;" x="178.066286" xlink:href="#mae17095e4f" y="298.944"/>
      </g>
     </g>
    </g>
    <g id="xtick_7">
     <g id="line2d_17">
      <path clip-path="url(#pa9ced836a7)" d="M 258.377143 298.944 
L 258.377143 27.648 
" style="fill:none;stroke:#b0b0b0;stroke-linecap:square;stroke-width:0.8;"/>
     </g>
     <g id="line2d_18">
      <g>
       <use style="stroke:#000000;stroke-width:0.6;" x="258.377143" xlink:href="#mae17095e4f" y="298.944"/>
      </g>
     </g>
    </g>
    <g id="xtick_8">
     <g id="line2d_19">
      <path clip-path="url(#pa9ced836a7)" d="M 338.688 298.944 
L 338.688 27.648 
" style="fill:none;stroke:#b0b0b0;stroke-linecap:square;stroke-width:0.8;"/>
     </g>
     <g id="line2d_20">
      <g>
       <use style="stroke:#000000;stroke-width:0.6;" x="338.688" xlink:href="#mae17095e4f" y="298.944"/>
      </g>
     </g>
    </g>
    <g id="text_5">
     <!-- log10(# f-evals / dimension) -->
     <defs>
      <path d="M 9.421875 75.984375 
L 18.40625 75.984375 
L 18.40625 0 
L 9.421875 0 
z
" id="DejaVuSans-108"/>
      <path d="M 30.609375 48.390625 
Q 23.390625 48.390625 19.1875 42.75 
Q 14.984375 37.109375 14.984375 27.296875 
Q 14.984375 17.484375 19.15625 11.84375 
Q 23.34375 6.203125 30.609375 6.203125 
Q 37.796875 6.203125 41.984375 11.859375 
Q 46.1875 17.53125 46.1875 27.296875 
Q 46.1875 37.015625 41.984375 42.703125 
Q 37.796875 48.390625 30.609375 48.390625 
z
M 30.609375 56 
Q 42.328125 56 49.015625 48.375 
Q 55.71875 40.765625 55.71875 27.296875 
Q 55.71875 13.875 49.015625 6.21875 
Q 42.328125 -1.421875 30.609375 -1.421875 
Q 18.84375 -1.421875 12.171875 6.21875 
Q 5.515625 13.875 5.515625 27.296875 
Q 5.515625 40.765625 12.171875 48.375 
Q 18.84375 56 30.609375 56 
z
" id="DejaVuSans-111"/>
      <path d="M 45.40625 27.984375 
Q 45.40625 37.75 41.375 43.109375 
Q 37.359375 48.484375 30.078125 48.484375 
Q 22.859375 48.484375 18.828125 43.109375 
Q 14.796875 37.75 14.796875 27.984375 
Q 14.796875 18.265625 18.828125 12.890625 
Q 22.859375 7.515625 30.078125 7.515625 
Q 37.359375 7.515625 41.375 12.890625 
Q 45.40625 18.265625 45.40625 27.984375 
z
M 54.390625 6.78125 
Q 54.390625 -7.171875 48.1875 -13.984375 
Q 42 -20.796875 29.203125 -20.796875 
Q 24.46875 -20.796875 20.265625 -20.09375 
Q 16.0625 -19.390625 12.109375 -17.921875 
L 12.109375 -9.1875 
Q 16.0625 -11.328125 19.921875 -12.34375 
Q 23.78125 -13.375 27.78125 -13.375 
Q 36.625 -13.375 41.015625 -8.765625 
Q 45.40625 -4.15625 45.40625 5.171875 
L 45.40625 9.625 
Q 42.625 4.78125 38.28125 2.390625 
Q 33.9375 0 27.875 0 
Q 17.828125 0 11.671875 7.65625 
Q 5.515625 15.328125 5.515625 27.984375 
Q 5.515625 40.671875 11.671875 48.328125 
Q 17.828125 56 27.875 56 
Q 33.9375 56 38.28125 53.609375 
Q 42.625 51.21875 45.40625 46.390625 
L 45.40625 54.6875 
L 54.390625 54.6875 
z
" id="DejaVuSans-103"/>
      <path d="M 12.40625 8.296875 
L 28.515625 8.296875 
L 28.515625 63.921875 
L 10.984375 60.40625 
L 10.984375 69.390625 
L 28.421875 72.90625 
L 38.28125 72.90625 
L 38.28125 8.296875 
L 54.390625 8.296875 
L 54.390625 0 
L 12.40625 0 
z
" id="DejaVuSans-49"/>
      <path d="M 31 75.875 
Q 24.46875 64.65625 21.28125 53.65625 
Q 18.109375 42.671875 18.109375 31.390625 
Q 18.109375 20.125 21.3125 9.0625 
Q 24.515625 -2 31 -13.1875 
L 23.1875 -13.1875 
Q 15.875 -1.703125 12.234375 9.375 
Q 8.59375 20.453125 8.59375 31.390625 
Q 8.59375 42.28125 12.203125 53.3125 
Q 15.828125 64.359375 23.1875 75.875 
z
" id="DejaVuSans-40"/>
      <path d="M 51.125 44 
L 36.921875 44 
L 32.8125 27.6875 
L 47.125 27.6875 
z
M 43.796875 71.78125 
L 38.71875 51.515625 
L 52.984375 51.515625 
L 58.109375 71.78125 
L 65.921875 71.78125 
L 60.890625 51.515625 
L 76.125 51.515625 
L 76.125 44 
L 58.984375 44 
L 54.984375 27.6875 
L 70.515625 27.6875 
L 70.515625 20.21875 
L 53.078125 20.21875 
L 48 0 
L 40.1875 0 
L 45.21875 20.21875 
L 30.90625 20.21875 
L 25.875 0 
L 18.015625 0 
L 23.09375 20.21875 
L 7.71875 20.21875 
L 7.71875 27.6875 
L 24.90625 27.6875 
L 29 44 
L 13.28125 44 
L 13.28125 51.515625 
L 30.90625 51.515625 
L 35.890625 71.78125 
z
" id="DejaVuSans-35"/>
      <path id="DejaVuSans-32"/>
      <path d="M 37.109375 75.984375 
L 37.109375 68.5 
L 28.515625 68.5 
Q 23.6875 68.5 21.796875 66.546875 
Q 19.921875 64.59375 19.921875 59.515625 
L 19.921875 54.6875 
L 34.71875 54.6875 
L 34.71875 47.703125 
L 19.921875 47.703125 
L 19.921875 0 
L 10.890625 0 
L 10.890625 47.703125 
L 2.296875 47.703125 
L 2.296875 54.6875 
L 10.890625 54.6875 
L 10.890625 58.5 
Q 10.890625 67.625 15.140625 71.796875 
Q 19.390625 75.984375 28.609375 75.984375 
z
" id="DejaVuSans-102"/>
      <path d="M 4.890625 31.390625 
L 31.203125 31.390625 
L 31.203125 23.390625 
L 4.890625 23.390625 
z
" id="DejaVuSans-45"/>
      <path d="M 56.203125 29.59375 
L 56.203125 25.203125 
L 14.890625 25.203125 
Q 15.484375 15.921875 20.484375 11.0625 
Q 25.484375 6.203125 34.421875 6.203125 
Q 39.59375 6.203125 44.453125 7.46875 
Q 49.3125 8.734375 54.109375 11.28125 
L 54.109375 2.78125 
Q 49.265625 0.734375 44.1875 -0.34375 
Q 39.109375 -1.421875 33.890625 -1.421875 
Q 20.796875 -1.421875 13.15625 6.1875 
Q 5.515625 13.8125 5.515625 26.8125 
Q 5.515625 40.234375 12.765625 48.109375 
Q 20.015625 56 32.328125 56 
Q 43.359375 56 49.78125 48.890625 
Q 56.203125 41.796875 56.203125 29.59375 
z
M 47.21875 32.234375 
Q 47.125 39.59375 43.09375 43.984375 
Q 39.0625 48.390625 32.421875 48.390625 
Q 24.90625 48.390625 20.390625 44.140625 
Q 15.875 39.890625 15.1875 32.171875 
z
" id="DejaVuSans-101"/>
      <path d="M 2.984375 54.6875 
L 12.5 54.6875 
L 29.59375 8.796875 
L 46.6875 54.6875 
L 56.203125 54.6875 
L 35.6875 0 
L 23.484375 0 
z
" id="DejaVuSans-118"/>
      <path d="M 34.28125 27.484375 
Q 23.390625 27.484375 19.1875 25 
Q 14.984375 22.515625 14.984375 16.5 
Q 14.984375 11.71875 18.140625 8.90625 
Q 21.296875 6.109375 26.703125 6.109375 
Q 34.1875 6.109375 38.703125 11.40625 
Q 43.21875 16.703125 43.21875 25.484375 
L 43.21875 27.484375 
z
M 52.203125 31.203125 
L 52.203125 0 
L 43.21875 0 
L 43.21875 8.296875 
Q 40.140625 3.328125 35.546875 0.953125 
Q 30.953125 -1.421875 24.3125 -1.421875 
Q 15.921875 -1.421875 10.953125 3.296875 
Q 6 8.015625 6 15.921875 
Q 6 25.140625 12.171875 29.828125 
Q 18.359375 34.515625 30.609375 34.515625 
L 43.21875 34.515625 
L 43.21875 35.40625 
Q 43.21875 41.609375 39.140625 45 
Q 35.0625 48.390625 27.6875 48.390625 
Q 23 48.390625 18.546875 47.265625 
Q 14.109375 46.140625 10.015625 43.890625 
L 10.015625 52.203125 
Q 14.9375 54.109375 19.578125 55.046875 
Q 24.21875 56 28.609375 56 
Q 40.484375 56 46.34375 49.84375 
Q 52.203125 43.703125 52.203125 31.203125 
z
" id="DejaVuSans-97"/>
      <path d="M 44.28125 53.078125 
L 44.28125 44.578125 
Q 40.484375 46.53125 36.375 47.5 
Q 32.28125 48.484375 27.875 48.484375 
Q 21.1875 48.484375 17.84375 46.4375 
Q 14.5 44.390625 14.5 40.28125 
Q 14.5 37.15625 16.890625 35.375 
Q 19.28125 33.59375 26.515625 31.984375 
L 29.59375 31.296875 
Q 39.15625 29.25 43.1875 25.515625 
Q 47.21875 21.78125 47.21875 15.09375 
Q 47.21875 7.46875 41.1875 3.015625 
Q 35.15625 -1.421875 24.609375 -1.421875 
Q 20.21875 -1.421875 15.453125 -0.5625 
Q 10.6875 0.296875 5.421875 2 
L 5.421875 11.28125 
Q 10.40625 8.6875 15.234375 7.390625 
Q 20.0625 6.109375 24.8125 6.109375 
Q 31.15625 6.109375 34.5625 8.28125 
Q 37.984375 10.453125 37.984375 14.40625 
Q 37.984375 18.0625 35.515625 20.015625 
Q 33.0625 21.96875 24.703125 23.78125 
L 21.578125 24.515625 
Q 13.234375 26.265625 9.515625 29.90625 
Q 5.8125 33.546875 5.8125 39.890625 
Q 5.8125 47.609375 11.28125 51.796875 
Q 16.75 56 26.8125 56 
Q 31.78125 56 36.171875 55.265625 
Q 40.578125 54.546875 44.28125 53.078125 
z
" id="DejaVuSans-115"/>
      <path d="M 25.390625 72.90625 
L 33.6875 72.90625 
L 8.296875 -9.28125 
L 0 -9.28125 
z
" id="DejaVuSans-47"/>
      <path d="M 45.40625 46.390625 
L 45.40625 75.984375 
L 54.390625 75.984375 
L 54.390625 0 
L 45.40625 0 
L 45.40625 8.203125 
Q 42.578125 3.328125 38.25 0.953125 
Q 33.9375 -1.421875 27.875 -1.421875 
Q 17.96875 -1.421875 11.734375 6.484375 
Q 5.515625 14.40625 5.515625 27.296875 
Q 5.515625 40.1875 11.734375 48.09375 
Q 17.96875 56 27.875 56 
Q 33.9375 56 38.25 53.625 
Q 42.578125 51.265625 45.40625 46.390625 
z
M 14.796875 27.296875 
Q 14.796875 17.390625 18.875 11.75 
Q 22.953125 6.109375 30.078125 6.109375 
Q 37.203125 6.109375 41.296875 11.75 
Q 45.40625 17.390625 45.40625 27.296875 
Q 45.40625 37.203125 41.296875 42.84375 
Q 37.203125 48.484375 30.078125 48.484375 
Q 22.953125 48.484375 18.875 42.84375 
Q 14.796875 37.203125 14.796875 27.296875 
z
" id="DejaVuSans-100"/>
      <path d="M 9.421875 54.6875 
L 18.40625 54.6875 
L 18.40625 0 
L 9.421875 0 
z
M 9.421875 75.984375 
L 18.40625 75.984375 
L 18.40625 64.59375 
L 9.421875 64.59375 
z
" id="DejaVuSans-105"/>
      <path d="M 52 44.1875 
Q 55.375 50.25 60.0625 53.125 
Q 64.75 56 71.09375 56 
Q 79.640625 56 84.28125 50.015625 
Q 88.921875 44.046875 88.921875 33.015625 
L 88.921875 0 
L 79.890625 0 
L 79.890625 32.71875 
Q 79.890625 40.578125 77.09375 44.375 
Q 74.3125 48.1875 68.609375 48.1875 
Q 61.625 48.1875 57.5625 43.546875 
Q 53.515625 38.921875 53.515625 30.90625 
L 53.515625 0 
L 44.484375 0 
L 44.484375 32.71875 
Q 44.484375 40.625 41.703125 44.40625 
Q 38.921875 48.1875 33.109375 48.1875 
Q 26.21875 48.1875 22.15625 43.53125 
Q 18.109375 38.875 18.109375 30.90625 
L 18.109375 0 
L 9.078125 0 
L 9.078125 54.6875 
L 18.109375 54.6875 
L 18.109375 46.1875 
Q 21.1875 51.21875 25.484375 53.609375 
Q 29.78125 56 35.6875 56 
Q 41.65625 56 45.828125 52.96875 
Q 50 49.953125 52 44.1875 
z
" id="DejaVuSans-109"/>
      <path d="M 54.890625 33.015625 
L 54.890625 0 
L 45.90625 0 
L 45.90625 32.71875 
Q 45.90625 40.484375 42.875 44.328125 
Q 39.84375 48.1875 33.796875 48.1875 
Q 26.515625 48.1875 22.3125 43.546875 
Q 18.109375 38.921875 18.109375 30.90625 
L 18.109375 0 
L 9.078125 0 
L 9.078125 54.6875 
L 18.109375 54.6875 
L 18.109375 46.1875 
Q 21.34375 51.125 25.703125 53.5625 
Q 30.078125 56 35.796875 56 
Q 45.21875 56 50.046875 50.171875 
Q 54.890625 44.34375 54.890625 33.015625 
z
" id="DejaVuSans-110"/>
      <path d="M 8.015625 75.875 
L 15.828125 75.875 
Q 23.140625 64.359375 26.78125 53.3125 
Q 30.421875 42.28125 30.421875 31.390625 
Q 30.421875 20.453125 26.78125 9.375 
Q 23.140625 -1.703125 15.828125 -13.1875 
L 8.015625 -13.1875 
Q 14.5 -2 17.703125 9.0625 
Q 20.90625 20.125 20.90625 31.390625 
Q 20.90625 42.671875 17.703125 53.65625 
Q 14.5 64.65625 8.015625 75.875 
z
" id="DejaVuSans-41"/>
     </defs>
     <g transform="translate(77.303219 342.217594)scale(0.17 -0.17)">
      <use xlink:href="#DejaVuSans-108"/>
      <use x="27.783203" xlink:href="#DejaVuSans-111"/>
      <use x="88.964844" xlink:href="#DejaVuSans-103"/>
      <use x="152.441406" xlink:href="#DejaVuSans-49"/>
      <use x="216.064453" xlink:href="#DejaVuSans-48"/>
      <use x="279.6875" xlink:href="#DejaVuSans-40"/>
      <use x="318.701172" xlink:href="#DejaVuSans-35"/>
      <use x="402.490234" xlink:href="#DejaVuSans-32"/>
      <use x="434.277344" xlink:href="#DejaVuSans-102"/>
      <use x="469.404297" xlink:href="#DejaVuSans-45"/>
      <use x="505.488281" xlink:href="#DejaVuSans-101"/>
      <use x="567.011719" xlink:href="#DejaVuSans-118"/>
      <use x="626.191406" xlink:href="#DejaVuSans-97"/>
      <use x="687.470703" xlink:href="#DejaVuSans-108"/>
      <use x="715.253906" xlink:href="#DejaVuSans-115"/>
      <use x="767.353516" xlink:href="#DejaVuSans-32"/>
      <use x="799.140625" xlink:href="#DejaVuSans-47"/>
      <use x="832.832031" xlink:href="#DejaVuSans-32"/>
      <use x="864.619141" xlink:href="#DejaVuSans-100"/>
      <use x="928.095703" xlink:href="#DejaVuSans-105"/>
      <use x="955.878906" xlink:href="#DejaVuSans-109"/>
      <use x="1053.291016" xlink:href="#DejaVuSans-101"/>
      <use x="1114.814453" xlink:href="#DejaVuSans-110"/>
      <use x="1178.193359" xlink:href="#DejaVuSans-115"/>
      <use x="1230.292969" xlink:href="#DejaVuSans-105"/>
      <use x="1258.076172" xlink:href="#DejaVuSans-111"/>
      <use x="1319.257812" xlink:href="#DejaVuSans-110"/>
      <use x="1382.636719" xlink:href="#DejaVuSans-41"/>
     </g>
    </g>
   </g>
   <g id="matplotlib.axis_2">
    <g id="ytick_1">
     <g id="line2d_21">
      <path clip-path="url(#pa9ced836a7)" d="M 57.6 298.944 
L 338.688 298.944 
" style="fill:none;stroke:#b0b0b0;stroke-linecap:square;stroke-width:0.8;"/>
     </g>
     <g id="line2d_22">
      <defs>
       <path d="M 0 0 
L -3.5 0 
" id="m3945b52ede" style="stroke:#000000;stroke-width:0.8;"/>
      </defs>
      <g>
       <use style="stroke:#000000;stroke-width:0.8;" x="57.6" xlink:href="#m3945b52ede" y="298.944"/>
      </g>
     </g>
     <g id="text_6">
      <!-- 0.0 -->
      <defs>
       <path d="M 10.6875 12.40625 
L 21 12.40625 
L 21 0 
L 10.6875 0 
z
" id="DejaVuSans-46"/>
      </defs>
      <g transform="translate(25.155 305.02275)scale(0.16 -0.16)">
       <use xlink:href="#DejaVuSans-48"/>
       <use x="63.623047" xlink:href="#DejaVuSans-46"/>
       <use x="95.410156" xlink:href="#DejaVuSans-48"/>
      </g>
     </g>
    </g>
    <g id="ytick_2">
     <g id="line2d_23">
      <path clip-path="url(#pa9ced836a7)" d="M 57.6 245.22202 
L 338.688 245.22202 
" style="fill:none;stroke:#b0b0b0;stroke-linecap:square;stroke-width:0.8;"/>
     </g>
     <g id="line2d_24">
      <g>
       <use style="stroke:#000000;stroke-width:0.8;" x="57.6" xlink:href="#m3945b52ede" y="245.22202"/>
      </g>
     </g>
     <g id="text_7">
      <!-- 0.2 -->
      <g transform="translate(25.155 251.30077)scale(0.16 -0.16)">
       <use xlink:href="#DejaVuSans-48"/>
       <use x="63.623047" xlink:href="#DejaVuSans-46"/>
       <use x="95.410156" xlink:href="#DejaVuSans-50"/>
      </g>
     </g>
    </g>
    <g id="ytick_3">
     <g id="line2d_25">
      <path clip-path="url(#pa9ced836a7)" d="M 57.6 191.50004 
L 338.688 191.50004 
" style="fill:none;stroke:#b0b0b0;stroke-linecap:square;stroke-width:0.8;"/>
     </g>
     <g id="line2d_26">
      <g>
       <use style="stroke:#000000;stroke-width:0.8;" x="57.6" xlink:href="#m3945b52ede" y="191.50004"/>
      </g>
     </g>
     <g id="text_8">
      <!-- 0.4 -->
      <g transform="translate(25.155 197.57879)scale(0.16 -0.16)">
       <use xlink:href="#DejaVuSans-48"/>
       <use x="63.623047" xlink:href="#DejaVuSans-46"/>
       <use x="95.410156" xlink:href="#DejaVuSans-52"/>
      </g>
     </g>
    </g>
    <g id="ytick_4">
     <g id="line2d_27">
      <path clip-path="url(#pa9ced836a7)" d="M 57.6 137.778059 
L 338.688 137.778059 
" style="fill:none;stroke:#b0b0b0;stroke-linecap:square;stroke-width:0.8;"/>
     </g>
     <g id="line2d_28">
      <g>
       <use style="stroke:#000000;stroke-width:0.8;" x="57.6" xlink:href="#m3945b52ede" y="137.778059"/>
      </g>
     </g>
     <g id="text_9">
      <!-- 0.6 -->
      <g transform="translate(25.155 143.856809)scale(0.16 -0.16)">
       <use xlink:href="#DejaVuSans-48"/>
       <use x="63.623047" xlink:href="#DejaVuSans-46"/>
       <use x="95.410156" xlink:href="#DejaVuSans-54"/>
      </g>
     </g>
    </g>
    <g id="ytick_5">
     <g id="line2d_29">
      <path clip-path="url(#pa9ced836a7)" d="M 57.6 84.056079 
L 338.688 84.056079 
" style="fill:none;stroke:#b0b0b0;stroke-linecap:square;stroke-width:0.8;"/>
     </g>
     <g id="line2d_30">
      <g>
       <use style="stroke:#000000;stroke-width:0.8;" x="57.6" xlink:href="#m3945b52ede" y="84.056079"/>
      </g>
     </g>
     <g id="text_10">
      <!-- 0.8 -->
      <defs>
       <path d="M 31.78125 34.625 
Q 24.75 34.625 20.71875 30.859375 
Q 16.703125 27.09375 16.703125 20.515625 
Q 16.703125 13.921875 20.71875 10.15625 
Q 24.75 6.390625 31.78125 6.390625 
Q 38.8125 6.390625 42.859375 10.171875 
Q 46.921875 13.96875 46.921875 20.515625 
Q 46.921875 27.09375 42.890625 30.859375 
Q 38.875 34.625 31.78125 34.625 
z
M 21.921875 38.8125 
Q 15.578125 40.375 12.03125 44.71875 
Q 8.5 49.078125 8.5 55.328125 
Q 8.5 64.0625 14.71875 69.140625 
Q 20.953125 74.21875 31.78125 74.21875 
Q 42.671875 74.21875 48.875 69.140625 
Q 55.078125 64.0625 55.078125 55.328125 
Q 55.078125 49.078125 51.53125 44.71875 
Q 48 40.375 41.703125 38.8125 
Q 48.828125 37.15625 52.796875 32.3125 
Q 56.78125 27.484375 56.78125 20.515625 
Q 56.78125 9.90625 50.3125 4.234375 
Q 43.84375 -1.421875 31.78125 -1.421875 
Q 19.734375 -1.421875 13.25 4.234375 
Q 6.78125 9.90625 6.78125 20.515625 
Q 6.78125 27.484375 10.78125 32.3125 
Q 14.796875 37.15625 21.921875 38.8125 
z
M 18.3125 54.390625 
Q 18.3125 48.734375 21.84375 45.5625 
Q 25.390625 42.390625 31.78125 42.390625 
Q 38.140625 42.390625 41.71875 45.5625 
Q 45.3125 48.734375 45.3125 54.390625 
Q 45.3125 60.0625 41.71875 63.234375 
Q 38.140625 66.40625 31.78125 66.40625 
Q 25.390625 66.40625 21.84375 63.234375 
Q 18.3125 60.0625 18.3125 54.390625 
z
" id="DejaVuSans-56"/>
      </defs>
      <g transform="translate(25.155 90.134829)scale(0.16 -0.16)">
       <use xlink:href="#DejaVuSans-48"/>
       <use x="63.623047" xlink:href="#DejaVuSans-46"/>
       <use x="95.410156" xlink:href="#DejaVuSans-56"/>
      </g>
     </g>
    </g>
    <g id="ytick_6">
     <g id="line2d_31">
      <path clip-path="url(#pa9ced836a7)" d="M 57.6 30.334099 
L 338.688 30.334099 
" style="fill:none;stroke:#b0b0b0;stroke-linecap:square;stroke-width:0.8;"/>
     </g>
     <g id="line2d_32">
      <g>
       <use style="stroke:#000000;stroke-width:0.8;" x="57.6" xlink:href="#m3945b52ede" y="30.334099"/>
      </g>
     </g>
     <g id="text_11">
      <!-- 1.0 -->
      <g transform="translate(25.155 36.412849)scale(0.16 -0.16)">
       <use xlink:href="#DejaVuSans-49"/>
       <use x="63.623047" xlink:href="#DejaVuSans-46"/>
       <use x="95.410156" xlink:href="#DejaVuSans-48"/>
      </g>
     </g>
    </g>
    <g id="text_12">
     <!-- Fraction of function,target pairs -->
     <defs>
      <path d="M 9.8125 72.90625 
L 51.703125 72.90625 
L 51.703125 64.59375 
L 19.671875 64.59375 
L 19.671875 43.109375 
L 48.578125 43.109375 
L 48.578125 34.8125 
L 19.671875 34.8125 
L 19.671875 0 
L 9.8125 0 
z
" id="DejaVuSans-70"/>
      <path d="M 41.109375 46.296875 
Q 39.59375 47.171875 37.8125 47.578125 
Q 36.03125 48 33.890625 48 
Q 26.265625 48 22.1875 43.046875 
Q 18.109375 38.09375 18.109375 28.8125 
L 18.109375 0 
L 9.078125 0 
L 9.078125 54.6875 
L 18.109375 54.6875 
L 18.109375 46.1875 
Q 20.953125 51.171875 25.484375 53.578125 
Q 30.03125 56 36.53125 56 
Q 37.453125 56 38.578125 55.875 
Q 39.703125 55.765625 41.0625 55.515625 
z
" id="DejaVuSans-114"/>
      <path d="M 48.78125 52.59375 
L 48.78125 44.1875 
Q 44.96875 46.296875 41.140625 47.34375 
Q 37.3125 48.390625 33.40625 48.390625 
Q 24.65625 48.390625 19.8125 42.84375 
Q 14.984375 37.3125 14.984375 27.296875 
Q 14.984375 17.28125 19.8125 11.734375 
Q 24.65625 6.203125 33.40625 6.203125 
Q 37.3125 6.203125 41.140625 7.25 
Q 44.96875 8.296875 48.78125 10.40625 
L 48.78125 2.09375 
Q 45.015625 0.34375 40.984375 -0.53125 
Q 36.96875 -1.421875 32.421875 -1.421875 
Q 20.0625 -1.421875 12.78125 6.34375 
Q 5.515625 14.109375 5.515625 27.296875 
Q 5.515625 40.671875 12.859375 48.328125 
Q 20.21875 56 33.015625 56 
Q 37.15625 56 41.109375 55.140625 
Q 45.0625 54.296875 48.78125 52.59375 
z
" id="DejaVuSans-99"/>
      <path d="M 18.3125 70.21875 
L 18.3125 54.6875 
L 36.8125 54.6875 
L 36.8125 47.703125 
L 18.3125 47.703125 
L 18.3125 18.015625 
Q 18.3125 11.328125 20.140625 9.421875 
Q 21.96875 7.515625 27.59375 7.515625 
L 36.8125 7.515625 
L 36.8125 0 
L 27.59375 0 
Q 17.1875 0 13.234375 3.875 
Q 9.28125 7.765625 9.28125 18.015625 
L 9.28125 47.703125 
L 2.6875 47.703125 
L 2.6875 54.6875 
L 9.28125 54.6875 
L 9.28125 70.21875 
z
" id="DejaVuSans-116"/>
      <path d="M 8.5 21.578125 
L 8.5 54.6875 
L 17.484375 54.6875 
L 17.484375 21.921875 
Q 17.484375 14.15625 20.5 10.265625 
Q 23.53125 6.390625 29.59375 6.390625 
Q 36.859375 6.390625 41.078125 11.03125 
Q 45.3125 15.671875 45.3125 23.6875 
L 45.3125 54.6875 
L 54.296875 54.6875 
L 54.296875 0 
L 45.3125 0 
L 45.3125 8.40625 
Q 42.046875 3.421875 37.71875 1 
Q 33.40625 -1.421875 27.6875 -1.421875 
Q 18.265625 -1.421875 13.375 4.4375 
Q 8.5 10.296875 8.5 21.578125 
z
M 31.109375 56 
z
" id="DejaVuSans-117"/>
      <path d="M 11.71875 12.40625 
L 22.015625 12.40625 
L 22.015625 4 
L 14.015625 -11.625 
L 7.71875 -11.625 
L 11.71875 4 
z
" id="DejaVuSans-44"/>
      <path d="M 18.109375 8.203125 
L 18.109375 -20.796875 
L 9.078125 -20.796875 
L 9.078125 54.6875 
L 18.109375 54.6875 
L 18.109375 46.390625 
Q 20.953125 51.265625 25.265625 53.625 
Q 29.59375 56 35.59375 56 
Q 45.5625 56 51.78125 48.09375 
Q 58.015625 40.1875 58.015625 27.296875 
Q 58.015625 14.40625 51.78125 6.484375 
Q 45.5625 -1.421875 35.59375 -1.421875 
Q 29.59375 -1.421875 25.265625 0.953125 
Q 20.953125 3.328125 18.109375 8.203125 
z
M 48.6875 27.296875 
Q 48.6875 37.203125 44.609375 42.84375 
Q 40.53125 48.484375 33.40625 48.484375 
Q 26.265625 48.484375 22.1875 42.84375 
Q 18.109375 37.203125 18.109375 27.296875 
Q 18.109375 17.390625 22.1875 11.75 
Q 26.265625 6.109375 33.40625 6.109375 
Q 40.53125 6.109375 44.609375 11.75 
Q 48.6875 17.390625 48.6875 27.296875 
z
" id="DejaVuSans-112"/>
     </defs>
     <g transform="translate(17.619531 298.435375)rotate(-90)scale(0.17 -0.17)">
      <use xlink:href="#DejaVuSans-70"/>
      <use x="57.410156" xlink:href="#DejaVuSans-114"/>
      <use x="98.523438" xlink:href="#DejaVuSans-97"/>
      <use x="159.802734" xlink:href="#DejaVuSans-99"/>
      <use x="214.783203" xlink:href="#DejaVuSans-116"/>
      <use x="253.992188" xlink:href="#DejaVuSans-105"/>
      <use x="281.775391" xlink:href="#DejaVuSans-111"/>
      <use x="342.957031" xlink:href="#DejaVuSans-110"/>
      <use x="406.335938" xlink:href="#DejaVuSans-32"/>
      <use x="438.123047" xlink:href="#DejaVuSans-111"/>
      <use x="499.304688" xlink:href="#DejaVuSans-102"/>
      <use x="534.509766" xlink:href="#DejaVuSans-32"/>
      <use x="566.296875" xlink:href="#DejaVuSans-102"/>
      <use x="601.501953" xlink:href="#DejaVuSans-117"/>
      <use x="664.880859" xlink:href="#DejaVuSans-110"/>
      <use x="728.259766" xlink:href="#DejaVuSans-99"/>
      <use x="783.240234" xlink:href="#DejaVuSans-116"/>
      <use x="822.449219" xlink:href="#DejaVuSans-105"/>
      <use x="850.232422" xlink:href="#DejaVuSans-111"/>
      <use x="911.414062" xlink:href="#DejaVuSans-110"/>
      <use x="974.792969" xlink:href="#DejaVuSans-44"/>
      <use x="1006.580078" xlink:href="#DejaVuSans-116"/>
      <use x="1045.789062" xlink:href="#DejaVuSans-97"/>
      <use x="1107.068359" xlink:href="#DejaVuSans-114"/>
      <use x="1148.166016" xlink:href="#DejaVuSans-103"/>
      <use x="1211.642578" xlink:href="#DejaVuSans-101"/>
      <use x="1273.166016" xlink:href="#DejaVuSans-116"/>
      <use x="1312.375" xlink:href="#DejaVuSans-32"/>
      <use x="1344.162109" xlink:href="#DejaVuSans-112"/>
      <use x="1407.638672" xlink:href="#DejaVuSans-97"/>
      <use x="1468.917969" xlink:href="#DejaVuSans-105"/>
      <use x="1496.701172" xlink:href="#DejaVuSans-114"/>
      <use x="1537.814453" xlink:href="#DejaVuSans-115"/>
     </g>
    </g>
   </g>
   <g id="line2d_33">
    <defs>
     <path d="M 0 1.5 
C 0.397805 1.5 0.77937 1.341951 1.06066 1.06066 
C 1.341951 0.77937 1.5 0.397805 1.5 0 
C 1.5 -0.397805 1.341951 -0.77937 1.06066 -1.06066 
C 0.77937 -1.341951 0.397805 -1.5 0 -1.5 
C -0.397805 -1.5 -0.77937 -1.341951 -1.06066 -1.06066 
C -1.341951 -0.77937 -1.5 -0.397805 -1.5 0 
C -1.5 0.397805 -1.341951 0.77937 -1.06066 1.06066 
C -0.77937 1.341951 -0.397805 1.5 0 1.5 
z
" id="mef3b59c352" style="stroke:#f5deb3;"/>
    </defs>
    <g>
     <use style="fill:#f5deb3;stroke:#f5deb3;" x="333.619938" xlink:href="#mef3b59c352" y="30.334099"/>
     <use style="fill:#f5deb3;stroke:#f5deb3;" x="333.619938" xlink:href="#mef3b59c352" y="30.334099"/>
    </g>
   </g>
   <g id="line2d_34">
    <defs>
     <path d="M 0 1.5 
C 0.397805 1.5 0.77937 1.341951 1.06066 1.06066 
C 1.341951 0.77937 1.5 0.397805 1.5 0 
C 1.5 -0.397805 1.341951 -0.77937 1.06066 -1.06066 
C 0.77937 -1.341951 0.397805 -1.5 0 -1.5 
C -0.397805 -1.5 -0.77937 -1.341951 -1.06066 -1.06066 
C -1.341951 -0.77937 -1.5 -0.397805 -1.5 0 
C -1.5 0.397805 -1.341951 0.77937 -1.06066 1.06066 
C -0.77937 1.341951 -0.397805 1.5 0 1.5 
z
" id="m174b4f9d6b" style="stroke:#000080;"/>
    </defs>
    <g>
     <use style="fill:#000080;stroke:#000080;" x="297.233962" xlink:href="#m174b4f9d6b" y="251.542253"/>
     <use style="fill:#000080;stroke:#000080;" x="297.233962" xlink:href="#m174b4f9d6b" y="251.542253"/>
    </g>
   </g>
   <g id="line2d_35">
    <path d="M 82.206598 298.944 
L 82.206598 298.417314 
L 89.135256 298.417314 
L 89.135256 297.890628 
L 94.294587 297.890628 
L 94.294587 297.363942 
L 95.326798 297.363942 
L 95.326798 296.837256 
L 96.489848 296.837256 
L 96.489848 296.31057 
L 98.270913 296.31057 
L 98.270913 295.783884 
L 98.935347 295.783884 
L 98.935347 295.257197 
L 101.079711 295.257197 
L 101.079711 294.730511 
L 101.785851 294.730511 
L 101.785851 294.203825 
L 103.498249 294.203825 
L 103.498249 293.677139 
L 108.198707 293.677139 
L 108.198707 293.150453 
L 111.897469 293.150453 
L 111.897469 292.623767 
L 115.897107 292.623767 
L 115.897107 292.097081 
L 116.019919 292.097081 
L 116.019919 291.570395 
L 117.145424 291.570395 
L 117.145424 291.043709 
L 117.930605 291.043709 
L 117.930605 290.517023 
L 120.093994 290.517023 
L 120.093994 289.990337 
L 123.273551 289.990337 
L 123.273551 289.463651 
L 135.721125 289.463651 
L 135.721125 288.936964 
L 137.217107 288.936964 
L 137.217107 288.410278 
L 137.664982 288.410278 
L 137.664982 287.883592 
L 140.026805 287.883592 
L 140.026805 287.356906 
L 150.808139 287.356906 
L 150.808139 286.83022 
L 151.645126 286.83022 
L 151.645126 286.303534 
L 151.818809 286.303534 
L 151.818809 285.776848 
L 153.395042 285.776848 
L 153.395042 285.250162 
L 154.439623 285.250162 
L 154.439623 284.723476 
L 156.484659 284.723476 
L 156.484659 284.19679 
L 158.742573 284.19679 
L 158.795307 283.143418 
L 160.769609 283.143418 
L 160.769609 282.616732 
L 165.929399 282.616732 
L 165.929399 282.090045 
L 167.033906 282.090045 
L 167.033906 281.563359 
L 168.503379 281.563359 
L 168.503379 281.036673 
L 172.623288 281.036673 
L 172.623288 280.509987 
L 173.900183 280.509987 
L 173.900183 279.983301 
L 176.135616 279.983301 
L 176.135616 279.456615 
L 176.317781 279.456615 
L 176.369755 278.403243 
L 176.593204 278.403243 
L 176.593204 277.876557 
L 176.907265 277.876557 
L 176.907265 277.349871 
L 177.022437 277.349871 
L 177.022437 276.823185 
L 177.142371 276.823185 
L 177.142371 276.296499 
L 178.498608 276.296499 
L 178.498608 275.769812 
L 178.750267 275.769812 
L 178.750267 275.243126 
L 179.177616 275.243126 
L 179.177616 274.71644 
L 179.492196 274.71644 
L 179.492196 274.189754 
L 179.785408 274.189754 
L 179.785408 273.663068 
L 179.963064 273.663068 
L 179.963064 273.136382 
L 180.268521 273.136382 
L 180.268521 272.609696 
L 180.471759 272.609696 
L 180.471759 272.08301 
L 180.768509 272.08301 
L 180.768509 271.556324 
L 181.063231 271.556324 
L 181.063231 271.029638 
L 187.528087 271.029638 
L 187.528087 270.502952 
L 187.894208 270.502952 
L 187.894208 269.976266 
L 196.351568 269.976266 
L 196.351568 269.449579 
L 197.641164 269.449579 
L 197.641164 268.922893 
L 206.740064 268.922893 
L 206.740064 268.396207 
L 211.548533 268.396207 
L 211.655593 267.342835 
L 231.05052 267.342835 
L 231.05052 266.816149 
L 231.291617 266.816149 
L 231.315503 265.762777 
L 235.434006 265.762777 
L 235.461932 264.709405 
L 242.825675 264.709405 
L 242.925531 262.075974 
L 242.944513 262.075974 
L 242.944513 261.549288 
L 245.164802 261.549288 
L 245.164802 261.022602 
L 249.721341 261.022602 
L 249.795865 259.442544 
L 255.937504 259.442544 
L 255.937504 258.915858 
L 258.552966 258.915858 
L 258.560043 257.862486 
L 259.55623 257.862486 
L 259.564149 256.809114 
L 267.329491 256.809114 
L 267.329491 256.282427 
L 268.762238 256.282427 
L 268.762238 255.755741 
L 269.299931 255.755741 
L 269.308505 254.702369 
L 270.567175 254.702369 
L 270.567175 254.175683 
L 277.951936 254.175683 
L 277.951936 253.648997 
L 286.005695 253.648997 
L 286.005695 253.122311 
L 292.009768 253.122311 
L 292.009768 252.595625 
L 297.230617 252.595625 
L 297.233962 251.542253 
L 338.688 251.542253 
L 338.688 251.542253 
" style="fill:none;stroke:#000080;stroke-linecap:square;stroke-width:1.5;"/>
   </g>
   <g id="line2d_36">
    <defs>
     <path d="M 0 6 
C 1.591219 6 3.117479 5.367802 4.242641 4.242641 
C 5.367802 3.117479 6 1.591219 6 0 
C 6 -1.591219 5.367802 -3.117479 4.242641 -4.242641 
C 3.117479 -5.367802 1.591219 -6 0 -6 
C -1.591219 -6 -3.117479 -5.367802 -4.242641 -4.242641 
C -5.367802 -3.117479 -6 -1.591219 -6 0 
C -6 1.591219 -5.367802 3.117479 -4.242641 4.242641 
C -3.117479 5.367802 -1.591219 6 0 6 
z
" id="m2db506e85d" style="stroke:#000080;stroke-width:1.5;"/>
    </defs>
    <g>
     <use style="fill-opacity:0;stroke:#000080;stroke-width:1.5;" x="123.273551" xlink:href="#m2db506e85d" y="289.990337"/>
     <use style="fill-opacity:0;stroke:#000080;stroke-width:1.5;" x="211.655593" xlink:href="#m2db506e85d" y="267.869521"/>
     <use style="fill-opacity:0;stroke:#000080;stroke-width:1.5;" x="277.951936" xlink:href="#m2db506e85d" y="253.648997"/>
     <use style="fill-opacity:0;stroke:#000080;stroke-width:1.5;" x="297.233962" xlink:href="#m2db506e85d" y="251.542253"/>
     <use style="fill-opacity:0;stroke:#000080;stroke-width:1.5;" x="338.688" xlink:href="#m2db506e85d" y="251.542253"/>
    </g>
   </g>
   <g id="line2d_37">
    <path style="fill:none;stroke:#000080;stroke-linecap:square;stroke-width:1.5;"/>
    <g/>
   </g>
   <g id="line2d_38">
    <path clip-path="url(#pa9ced836a7)" d="M 230.329572 267.342835 
" style="fill:none;stroke:#000080;stroke-linecap:square;stroke-width:1.5;"/>
    <defs>
     <path d="M -12 12 
L 12 -12 
M -12 -12 
L 12 12 
" id="mafe53fbcac" style="stroke:#000080;"/>
    </defs>
    <g clip-path="url(#pa9ced836a7)">
     <use style="fill:#000080;stroke:#000080;" x="230.329572" xlink:href="#mafe53fbcac" y="267.342835"/>
    </g>
   </g>
   <g id="line2d_39">
    <g>
     <use style="fill:#000080;stroke:#000080;" x="338.622574" xlink:href="#m174b4f9d6b" y="230.47481"/>
     <use style="fill:#000080;stroke:#000080;" x="338.622574" xlink:href="#m174b4f9d6b" y="230.47481"/>
    </g>
   </g>
   <g id="line2d_40">
    <path d="M 62.175444 298.944 
L 62.175444 298.417314 
L 78.421149 298.417314 
L 78.421149 297.890628 
L 93.644601 297.890628 
L 93.644601 297.363942 
L 98.771596 297.363942 
L 98.771596 296.837256 
L 98.935347 296.837256 
L 98.935347 296.31057 
L 99.097574 296.31057 
L 99.097574 295.783884 
L 100.493461 295.783884 
L 100.493461 295.257197 
L 104.592361 295.257197 
L 104.592361 294.730511 
L 107.614095 294.730511 
L 107.614095 294.203825 
L 111.584648 294.203825 
L 111.584648 293.677139 
L 114.418861 293.677139 
L 114.418861 293.150453 
L 118.734401 293.150453 
L 118.734401 292.623767 
L 120.898662 292.623767 
L 120.898662 292.097081 
L 123.313873 292.097081 
L 123.313873 291.570395 
L 124.743806 291.570395 
L 124.743806 291.043709 
L 126.065325 291.043709 
L 126.065325 290.517023 
L 133.689303 290.517023 
L 133.689303 289.990337 
L 137.034686 289.990337 
L 137.034686 289.463651 
L 141.435758 289.463651 
L 141.435758 288.936964 
L 142.51311 288.936964 
L 142.51311 288.410278 
L 144.818346 288.410278 
L 144.818346 287.883592 
L 147.327999 287.883592 
L 147.327999 287.356906 
L 149.841182 287.356906 
L 149.88512 286.303534 
L 150.361278 286.303534 
L 150.454969 285.250162 
L 152.579665 285.250162 
L 152.579665 284.723476 
L 152.707042 284.723476 
L 152.707042 284.19679 
L 152.870513 284.19679 
L 152.870513 283.670104 
L 153.31592 283.670104 
L 153.31592 283.143418 
L 153.559329 283.143418 
L 153.559329 282.616732 
L 154.607795 282.616732 
L 154.607795 282.090045 
L 156.935649 282.090045 
L 156.935649 281.563359 
L 157.380981 281.563359 
L 157.380981 281.036673 
L 159.527421 281.036673 
L 159.527421 280.509987 
L 162.564181 280.509987 
L 162.564181 279.983301 
L 164.471025 279.983301 
L 164.471025 279.456615 
L 165.450706 279.456615 
L 165.450706 278.929929 
L 173.775727 278.929929 
L 173.775727 278.403243 
L 174.83783 278.403243 
L 174.83783 277.876557 
L 177.563841 277.876557 
L 177.563841 277.349871 
L 179.355063 277.349871 
L 179.355063 276.823185 
L 179.878392 276.823185 
L 179.878392 276.296499 
L 180.523336 276.296499 
L 180.523336 275.769812 
L 181.420808 275.769812 
L 181.420808 275.243126 
L 181.886451 275.243126 
L 181.886451 274.71644 
L 182.143703 274.71644 
L 182.143703 274.189754 
L 183.026484 274.189754 
L 183.026484 273.663068 
L 189.32023 273.663068 
L 189.32023 273.136382 
L 195.024354 273.136382 
L 195.024354 272.609696 
L 195.289428 272.609696 
L 195.289428 272.08301 
L 195.566524 272.08301 
L 195.566524 271.556324 
L 197.766157 271.556324 
L 197.766157 271.029638 
L 203.926981 271.029638 
L 203.926981 270.502952 
L 204.308711 270.502952 
L 204.308711 269.976266 
L 220.041049 269.976266 
L 220.041049 269.449579 
L 220.270184 269.449579 
L 220.270184 268.922893 
L 220.468314 268.922893 
L 220.485629 267.869521 
L 220.583835 267.869521 
L 220.583835 267.342835 
L 245.228634 267.342835 
L 245.228634 266.289463 
L 245.441714 266.289463 
L 245.509357 265.236091 
L 245.558054 265.236091 
L 245.558054 264.709405 
L 245.727017 264.709405 
L 245.820816 263.656033 
L 258.855898 263.656033 
L 258.855898 263.129347 
L 259.154559 263.129347 
L 259.154559 262.60266 
L 260.259744 262.60266 
L 260.266099 261.549288 
L 265.112799 261.549288 
L 265.208359 259.442544 
L 270.872351 259.442544 
L 270.885005 257.862486 
L 271.42202 257.862486 
L 271.453267 256.282427 
L 274.194312 256.282427 
L 274.287125 254.702369 
L 277.71404 254.702369 
L 277.71404 254.175683 
L 278.211813 254.175683 
L 278.211813 253.648997 
L 280.170637 253.648997 
L 280.170637 253.122311 
L 282.767228 253.122311 
L 282.767228 252.595625 
L 284.529195 252.595625 
L 284.553535 250.488881 
L 286.628387 250.488881 
L 286.628387 249.962195 
L 286.857859 249.962195 
L 286.857859 249.435508 
L 288.061612 249.435508 
L 288.061612 248.908822 
L 289.775701 248.908822 
L 289.775701 248.382136 
L 289.972658 248.382136 
L 289.979685 247.328764 
L 290.963351 247.328764 
L 290.963351 246.802078 
L 292.61399 246.802078 
L 292.61483 245.748706 
L 293.477709 245.748706 
L 293.512512 243.641962 
L 294.909005 243.641962 
L 294.911887 242.588589 
L 295.674547 242.588589 
L 295.682378 241.008531 
L 296.805187 241.008531 
L 296.805187 240.481845 
L 298.634629 240.481845 
L 298.634629 239.955159 
L 298.754386 239.955159 
L 298.756539 238.901787 
L 300.395356 238.901787 
L 300.395356 238.375101 
L 301.803419 238.375101 
L 301.90039 236.795043 
L 302.427914 236.795043 
L 302.427914 236.268356 
L 303.282514 236.268356 
L 303.282514 235.74167 
L 305.010643 235.74167 
L 305.010643 235.214984 
L 306.878238 235.214984 
L 306.878238 234.688298 
L 307.277345 234.688298 
L 307.277345 234.161612 
L 307.931171 234.161612 
L 307.931171 233.634926 
L 308.307717 233.634926 
L 308.307717 233.10824 
L 313.165498 233.10824 
L 313.165498 232.581554 
L 319.955888 232.581554 
L 319.955888 232.054868 
L 322.509084 232.054868 
L 322.509084 231.528182 
L 329.354138 231.528182 
L 329.354138 231.001496 
L 338.622574 231.001496 
L 338.622574 230.47481 
L 338.688 230.47481 
" style="fill:none;stroke:#000080;stroke-linecap:square;stroke-width:1.5;"/>
   </g>
   <g id="line2d_41">
    <g>
     <use style="fill-opacity:0;stroke:#000080;stroke-width:1.5;" x="165.450706" xlink:href="#m2db506e85d" y="278.929929"/>
     <use style="fill-opacity:0;stroke:#000080;stroke-width:1.5;" x="260.266099" xlink:href="#m2db506e85d" y="261.549288"/>
     <use style="fill-opacity:0;stroke:#000080;stroke-width:1.5;" x="329.354138" xlink:href="#m2db506e85d" y="231.001496"/>
     <use style="fill-opacity:0;stroke:#000080;stroke-width:1.5;" x="338.622574" xlink:href="#m2db506e85d" y="230.47481"/>
     <use style="fill-opacity:0;stroke:#000080;stroke-width:1.5;" x="338.688" xlink:href="#m2db506e85d" y="230.47481"/>
    </g>
   </g>
   <g id="line2d_42">
    <path style="fill:none;stroke:#000080;stroke-linecap:square;stroke-width:1.5;"/>
    <g/>
   </g>
   <g id="line2d_43">
    <path clip-path="url(#pa9ced836a7)" d="M 258.401192 263.656033 
" style="fill:none;stroke:#000080;stroke-linecap:square;stroke-width:1.5;"/>
    <g clip-path="url(#pa9ced836a7)">
     <use style="fill:#000080;stroke:#000080;" x="258.401192" xlink:href="#mafe53fbcac" y="263.656033"/>
    </g>
   </g>
   <g id="line2d_44">
    <defs>
     <path d="M 0 1.5 
C 0.397805 1.5 0.77937 1.341951 1.06066 1.06066 
C 1.341951 0.77937 1.5 0.397805 1.5 0 
C 1.5 -0.397805 1.341951 -0.77937 1.06066 -1.06066 
C 0.77937 -1.341951 0.397805 -1.5 0 -1.5 
C -0.397805 -1.5 -0.77937 -1.341951 -1.06066 -1.06066 
C -1.341951 -0.77937 -1.5 -0.397805 -1.5 0 
C -1.5 0.397805 -1.341951 0.77937 -1.06066 1.06066 
C -0.77937 1.341951 -0.397805 1.5 0 1.5 
z
" id="m7bb8335a8b" style="stroke:#ff00ff;"/>
    </defs>
    <g>
     <use style="fill:#ff00ff;stroke:#ff00ff;" x="290.562918" xlink:href="#m7bb8335a8b" y="230.47481"/>
     <use style="fill:#ff00ff;stroke:#ff00ff;" x="290.562918" xlink:href="#m7bb8335a8b" y="230.47481"/>
    </g>
   </g>
   <g id="line2d_45">
    <path d="M 109.843417 298.944 
L 109.843417 298.417314 
L 110.016944 298.417314 
L 110.016944 297.890628 
L 112.280765 297.890628 
L 112.280765 297.363942 
L 115.460322 297.363942 
L 115.460322 296.837256 
L 117.030313 296.837256 
L 117.030313 296.31057 
L 117.875678 296.31057 
L 117.875678 295.783884 
L 118.310324 295.783884 
L 118.310324 295.257197 
L 118.523652 295.257197 
L 118.523652 294.730511 
L 120.142369 294.730511 
L 120.142369 294.203825 
L 120.665825 294.203825 
L 120.665825 293.677139 
L 123.907776 293.677139 
L 123.907776 293.150453 
L 127.54831 293.150453 
L 127.54831 292.623767 
L 127.799239 292.623767 
L 127.799239 292.097081 
L 127.923363 292.097081 
L 127.923363 291.570395 
L 128.797771 291.570395 
L 128.797771 291.043709 
L 129.347769 291.043709 
L 129.347769 290.517023 
L 132.084827 290.517023 
L 132.084827 289.990337 
L 133.46572 289.990337 
L 133.46572 289.463651 
L 133.644815 289.463651 
L 133.644815 288.936964 
L 135.117629 288.936964 
L 135.117629 288.410278 
L 143.60342 288.410278 
L 143.60342 287.883592 
L 145.755062 287.883592 
L 145.755062 287.356906 
L 150.241302 287.356906 
L 150.241302 286.83022 
L 150.463462 286.83022 
L 150.463462 286.303534 
L 153.573542 286.303534 
L 153.573542 285.776848 
L 154.507086 285.776848 
L 154.507086 285.250162 
L 155.501643 285.250162 
L 155.501643 284.723476 
L 156.442528 284.723476 
L 156.514691 283.670104 
L 157.295115 283.670104 
L 157.295115 283.143418 
L 157.579705 283.143418 
L 157.579705 282.616732 
L 158.157181 282.616732 
L 158.157181 282.090045 
L 159.527421 282.090045 
L 159.527421 281.563359 
L 160.31711 281.563359 
L 160.31711 281.036673 
L 160.914762 281.036673 
L 160.914762 280.509987 
L 161.587082 280.509987 
L 161.587082 279.983301 
L 161.995037 279.983301 
L 161.995037 279.456615 
L 162.234442 279.456615 
L 162.234442 278.929929 
L 163.197346 278.929929 
L 163.197346 278.403243 
L 163.90287 278.403243 
L 163.90287 277.876557 
L 164.070989 277.876557 
L 164.070989 277.349871 
L 164.191193 277.349871 
L 164.191193 276.823185 
L 165.02862 276.823185 
L 165.02862 276.296499 
L 165.171671 276.296499 
L 165.200871 275.243126 
L 165.349755 275.243126 
L 165.349755 274.71644 
L 165.461488 274.71644 
L 165.461488 274.189754 
L 166.658924 274.189754 
L 166.658924 273.663068 
L 169.543046 273.663068 
L 169.543046 273.136382 
L 178.688113 273.136382 
L 178.688113 272.609696 
L 181.222575 272.609696 
L 181.222575 272.08301 
L 182.456971 272.08301 
L 182.456971 271.556324 
L 183.824155 271.556324 
L 183.824155 271.029638 
L 184.764805 271.029638 
L 184.764805 270.502952 
L 185.845863 270.502952 
L 185.845863 269.976266 
L 186.152377 269.976266 
L 186.152377 269.449579 
L 186.511716 269.449579 
L 186.511716 268.922893 
L 195.534529 268.922893 
L 195.534529 268.396207 
L 195.986571 268.396207 
L 196.066894 266.816149 
L 197.047087 266.816149 
L 197.047087 266.289463 
L 199.003836 266.289463 
L 199.094416 265.236091 
L 199.208411 265.236091 
L 199.208411 264.709405 
L 200.493758 264.709405 
L 200.493758 264.182719 
L 200.66927 264.182719 
L 200.66927 263.656033 
L 200.856255 263.656033 
L 200.856255 263.129347 
L 202.315354 263.129347 
L 202.315354 262.60266 
L 202.761556 262.60266 
L 202.761556 262.075974 
L 210.482332 262.075974 
L 210.581531 261.022602 
L 210.985462 261.022602 
L 210.985462 260.495916 
L 218.234615 260.495916 
L 218.234615 259.96923 
L 221.474797 259.96923 
L 221.474797 259.442544 
L 221.850173 259.442544 
L 221.850173 258.389172 
L 222.093774 258.389172 
L 222.16806 256.809114 
L 222.264035 256.809114 
L 222.264035 256.282427 
L 222.416342 256.282427 
L 222.497869 255.229055 
L 222.824235 255.229055 
L 222.824235 254.702369 
L 223.062091 254.702369 
L 223.062091 254.175683 
L 223.340492 254.175683 
L 223.340492 253.648997 
L 223.542173 253.648997 
L 223.542173 253.122311 
L 230.682039 253.122311 
L 230.682039 252.595625 
L 232.549938 252.595625 
L 232.619888 251.542253 
L 232.996834 251.542253 
L 233.01327 250.488881 
L 233.140942 250.488881 
L 233.140942 249.962195 
L 235.138845 249.962195 
L 235.198436 248.908822 
L 238.693023 248.908822 
L 238.76566 247.328764 
L 238.835161 247.328764 
L 238.899539 246.275392 
L 239.064992 246.275392 
L 239.064992 245.748706 
L 242.631891 245.748706 
L 242.631891 245.22202 
L 243.655626 245.22202 
L 243.655626 244.695334 
L 243.885402 244.695334 
L 243.885402 244.168648 
L 245.091585 244.168648 
L 245.091585 243.641962 
L 247.148488 243.641962 
L 247.154165 241.535217 
L 247.450417 241.535217 
L 247.450417 241.008531 
L 250.52172 241.008531 
L 250.52172 240.481845 
L 251.314422 240.481845 
L 251.314422 239.955159 
L 252.812847 239.955159 
L 252.830498 238.901787 
L 252.992306 238.901787 
L 252.992306 238.375101 
L 255.25591 238.375101 
L 255.25591 237.848415 
L 256.993344 237.848415 
L 257.070447 235.74167 
L 260.436216 235.74167 
L 260.4779 234.161612 
L 262.510856 234.161612 
L 262.510856 233.634926 
L 263.304979 233.634926 
L 263.304979 233.10824 
L 269.833289 233.10824 
L 269.833289 232.581554 
L 273.113749 232.581554 
L 273.113749 232.054868 
L 278.274528 232.054868 
L 278.274528 231.528182 
L 282.245297 231.528182 
L 282.245297 231.001496 
L 290.562918 231.001496 
L 290.562918 230.47481 
L 338.688 230.47481 
L 338.688 230.47481 
" style="fill:none;stroke:#ff00ff;stroke-linecap:square;stroke-width:1.5;"/>
   </g>
   <g id="line2d_46">
    <defs>
     <path d="M -0 8.485281 
L 5.091169 0 
L 0 -8.485281 
L -5.091169 -0 
z
" id="m37d259035d" style="stroke:#ff00ff;stroke-linejoin:miter;stroke-width:1.5;"/>
    </defs>
    <g>
     <use style="fill-opacity:0;stroke:#ff00ff;stroke-linejoin:miter;stroke-width:1.5;" x="135.117629" xlink:href="#m37d259035d" y="288.936964"/>
     <use style="fill-opacity:0;stroke:#ff00ff;stroke-linejoin:miter;stroke-width:1.5;" x="202.761556" xlink:href="#m37d259035d" y="262.075974"/>
     <use style="fill-opacity:0;stroke:#ff00ff;stroke-linejoin:miter;stroke-width:1.5;" x="282.245297" xlink:href="#m37d259035d" y="231.001496"/>
     <use style="fill-opacity:0;stroke:#ff00ff;stroke-linejoin:miter;stroke-width:1.5;" x="290.562918" xlink:href="#m37d259035d" y="230.47481"/>
     <use style="fill-opacity:0;stroke:#ff00ff;stroke-linejoin:miter;stroke-width:1.5;" x="338.688" xlink:href="#m37d259035d" y="230.47481"/>
    </g>
   </g>
   <g id="line2d_47">
    <path style="fill:none;stroke:#ff00ff;stroke-linecap:square;stroke-width:1.5;"/>
    <g/>
   </g>
   <g id="line2d_48">
    <path clip-path="url(#pa9ced836a7)" d="M 230.321645 253.122311 
" style="fill:none;stroke:#ff00ff;stroke-linecap:square;stroke-width:1.5;"/>
    <defs>
     <path d="M -12 12 
L 12 -12 
M -12 -12 
L 12 12 
" id="madf08eeaf1" style="stroke:#ff00ff;"/>
    </defs>
    <g clip-path="url(#pa9ced836a7)">
     <use style="fill:#ff00ff;stroke:#ff00ff;" x="230.321645" xlink:href="#madf08eeaf1" y="253.122311"/>
    </g>
   </g>
   <g id="line2d_49">
    <defs>
     <path d="M 0 1.5 
C 0.397805 1.5 0.77937 1.341951 1.06066 1.06066 
C 1.341951 0.77937 1.5 0.397805 1.5 0 
C 1.5 -0.397805 1.341951 -0.77937 1.06066 -1.06066 
C 0.77937 -1.341951 0.397805 -1.5 0 -1.5 
C -0.397805 -1.5 -0.77937 -1.341951 -1.06066 -1.06066 
C -1.341951 -0.77937 -1.5 -0.397805 -1.5 0 
C -1.5 0.397805 -1.341951 0.77937 -1.06066 1.06066 
C -0.77937 1.341951 -0.397805 1.5 0 1.5 
z
" id="mbb8cf9d506" style="stroke:#ff0000;"/>
    </defs>
    <g>
     <use style="fill:#ff0000;stroke:#ff0000;" x="305.749229" xlink:href="#mbb8cf9d506" y="241.008531"/>
     <use style="fill:#ff0000;stroke:#ff0000;" x="305.749229" xlink:href="#mbb8cf9d506" y="241.008531"/>
    </g>
   </g>
   <g id="line2d_50">
    <path d="M 104.474128 298.944 
L 104.474128 298.417314 
L 106.802819 298.417314 
L 106.802819 297.890628 
L 107.614095 297.890628 
L 107.614095 297.363942 
L 107.90885 297.363942 
L 107.90885 296.837256 
L 109.222105 296.837256 
L 109.222105 296.31057 
L 109.579846 296.31057 
L 109.579846 295.783884 
L 110.859585 295.783884 
L 110.941652 294.730511 
L 112.803609 294.730511 
L 112.803609 294.203825 
L 114.351658 294.203825 
L 114.351658 293.677139 
L 114.685115 293.677139 
L 114.685115 293.150453 
L 117.930605 293.150453 
L 117.930605 292.623767 
L 119.850084 292.623767 
L 119.850084 292.097081 
L 121.08272 292.097081 
L 121.08272 291.570395 
L 123.633136 291.570395 
L 123.633136 291.043709 
L 125.399222 291.043709 
L 125.399222 290.517023 
L 126.640485 290.517023 
L 126.640485 289.990337 
L 128.015879 289.990337 
L 128.015879 289.463651 
L 131.665771 289.463651 
L 131.665771 288.936964 
L 132.70687 288.936964 
L 132.70687 288.410278 
L 141.941279 288.410278 
L 141.941279 287.883592 
L 144.876926 287.883592 
L 144.876926 287.356906 
L 149.195872 287.356906 
L 149.195872 286.83022 
L 149.60198 286.83022 
L 149.60198 286.303534 
L 150.37835 286.303534 
L 150.37835 285.776848 
L 153.980758 285.776848 
L 153.980758 285.250162 
L 155.571464 285.250162 
L 155.571464 284.723476 
L 156.150854 284.723476 
L 156.150854 284.19679 
L 159.308951 284.19679 
L 159.308951 283.670104 
L 160.307457 283.670104 
L 160.379729 282.616732 
L 161.26559 282.616732 
L 161.26559 282.090045 
L 162.720437 282.090045 
L 162.720437 281.563359 
L 163.48138 281.563359 
L 163.48138 281.036673 
L 165.10946 281.036673 
L 165.10946 280.509987 
L 166.621987 280.509987 
L 166.621987 279.983301 
L 167.213542 279.983301 
L 167.213542 279.456615 
L 167.400994 279.456615 
L 167.400994 278.929929 
L 168.019943 278.929929 
L 168.019943 278.403243 
L 168.78476 278.403243 
L 168.78476 277.876557 
L 169.368752 277.876557 
L 169.368752 277.349871 
L 170.494616 277.349871 
L 170.494616 276.823185 
L 171.061409 276.823185 
L 171.061409 276.296499 
L 171.353428 276.296499 
L 171.353428 275.769812 
L 172.054157 275.769812 
L 172.054157 275.243126 
L 172.718338 275.243126 
L 172.718338 274.71644 
L 179.115327 274.71644 
L 179.115327 274.189754 
L 180.334489 274.189754 
L 180.334489 273.663068 
L 181.534102 273.663068 
L 181.534102 273.136382 
L 185.014801 273.136382 
L 185.014801 272.609696 
L 185.152413 272.609696 
L 185.199974 271.556324 
L 185.740611 271.556324 
L 185.740611 271.029638 
L 185.960468 271.029638 
L 185.960468 270.502952 
L 186.68386 270.502952 
L 186.68386 269.976266 
L 188.865238 269.976266 
L 188.865238 269.449579 
L 189.786821 269.449579 
L 189.786821 268.922893 
L 218.896974 268.922893 
L 218.896974 268.396207 
L 219.210385 268.396207 
L 219.210385 267.869521 
L 219.530402 267.869521 
L 219.53202 266.816149 
L 230.691767 266.816149 
L 230.721684 265.236091 
L 231.621545 265.236091 
L 231.658064 264.182719 
L 231.903061 264.182719 
L 231.911097 263.129347 
L 237.615438 263.129347 
L 237.615438 262.60266 
L 237.77393 262.60266 
L 237.853318 260.495916 
L 242.676957 260.495916 
L 242.710777 259.442544 
L 243.127558 259.442544 
L 243.127558 258.915858 
L 243.292432 258.915858 
L 243.292432 258.389172 
L 246.448275 258.389172 
L 246.518466 256.282427 
L 246.565871 256.282427 
L 246.570333 255.229055 
L 249.66079 255.229055 
L 249.66079 254.702369 
L 250.063423 254.702369 
L 250.079175 253.648997 
L 252.367574 253.648997 
L 252.367574 253.122311 
L 254.63895 253.122311 
L 254.63895 252.595625 
L 256.673345 252.595625 
L 256.714831 251.015567 
L 258.672782 251.015567 
L 258.724282 249.435508 
L 263.072851 249.435508 
L 263.072851 248.908822 
L 265.531602 248.908822 
L 265.562711 247.328764 
L 266.773496 247.328764 
L 266.773496 246.802078 
L 268.833132 246.802078 
L 268.833132 246.275392 
L 269.660049 246.275392 
L 269.662332 244.695334 
L 270.607818 244.695334 
L 270.620277 243.641962 
L 272.977164 243.641962 
L 272.979829 242.588589 
L 281.249633 242.588589 
L 281.249633 242.061903 
L 300.693823 242.061903 
L 300.693823 241.535217 
L 305.749229 241.535217 
L 305.749229 241.008531 
L 338.688 241.008531 
L 338.688 241.008531 
" style="fill:none;stroke:#ff0000;stroke-linecap:square;stroke-width:1.5;"/>
   </g>
   <g id="line2d_51">
    <defs>
     <path d="M 0 -6 
L -5.196152 -3 
L -5.196152 3 
L -0 6 
L 5.196152 3 
L 5.196152 -3 
z
" id="m0604f680fc" style="stroke:#ff0000;stroke-linejoin:miter;stroke-width:1.5;"/>
    </defs>
    <g>
     <use style="fill-opacity:0;stroke:#ff0000;stroke-linejoin:miter;stroke-width:1.5;" x="156.150854" xlink:href="#m0604f680fc" y="284.19679"/>
     <use style="fill-opacity:0;stroke:#ff0000;stroke-linejoin:miter;stroke-width:1.5;" x="189.786821" xlink:href="#m0604f680fc" y="268.922893"/>
     <use style="fill-opacity:0;stroke:#ff0000;stroke-linejoin:miter;stroke-width:1.5;" x="281.249633" xlink:href="#m0604f680fc" y="242.061903"/>
     <use style="fill-opacity:0;stroke:#ff0000;stroke-linejoin:miter;stroke-width:1.5;" x="305.749229" xlink:href="#m0604f680fc" y="241.008531"/>
     <use style="fill-opacity:0;stroke:#ff0000;stroke-linejoin:miter;stroke-width:1.5;" x="338.688" xlink:href="#m0604f680fc" y="241.008531"/>
    </g>
   </g>
   <g id="line2d_52">
    <path style="fill:none;stroke:#ff0000;stroke-linecap:square;stroke-width:1.5;"/>
    <g/>
   </g>
   <g id="line2d_53">
    <path clip-path="url(#pa9ced836a7)" d="M 230.330356 266.816149 
" style="fill:none;stroke:#ff0000;stroke-linecap:square;stroke-width:1.5;"/>
    <defs>
     <path d="M -12 12 
L 12 -12 
M -12 -12 
L 12 12 
" id="m5108a55a92" style="stroke:#ff0000;"/>
    </defs>
    <g clip-path="url(#pa9ced836a7)">
     <use style="fill:#ff0000;stroke:#ff0000;" x="230.330356" xlink:href="#m5108a55a92" y="266.816149"/>
    </g>
   </g>
   <g id="line2d_54">
    <defs>
     <path d="M 0 1.5 
C 0.397805 1.5 0.77937 1.341951 1.06066 1.06066 
C 1.341951 0.77937 1.5 0.397805 1.5 0 
C 1.5 -0.397805 1.341951 -0.77937 1.06066 -1.06066 
C 0.77937 -1.341951 0.397805 -1.5 0 -1.5 
C -0.397805 -1.5 -0.77937 -1.341951 -1.06066 -1.06066 
C -1.341951 -0.77937 -1.5 -0.397805 -1.5 0 
C -1.5 0.397805 -1.341951 0.77937 -1.06066 1.06066 
C -0.77937 1.341951 -0.397805 1.5 0 1.5 
z
" id="m5f9f71ca63" style="stroke:#ff7500;"/>
    </defs>
    <g>
     <use style="fill:#ff7500;stroke:#ff7500;" x="308.673383" xlink:href="#m5f9f71ca63" y="246.275392"/>
     <use style="fill:#ff7500;stroke:#ff7500;" x="308.673383" xlink:href="#m5f9f71ca63" y="246.275392"/>
    </g>
   </g>
   <g id="line2d_55">
    <path d="M 97.224242 298.944 
L 97.224242 298.417314 
L 102.597126 298.417314 
L 102.597126 297.890628 
L 102.728744 297.890628 
L 102.728744 297.363942 
L 103.870632 297.363942 
L 103.870632 296.837256 
L 104.942325 296.837256 
L 104.942325 296.31057 
L 107.111487 296.31057 
L 107.111487 295.783884 
L 108.006005 295.783884 
L 108.006005 295.257197 
L 108.577836 295.257197 
L 108.577836 294.730511 
L 110.61104 294.730511 
L 110.61104 294.203825 
L 111.346294 294.203825 
L 111.346294 293.677139 
L 112.204777 293.677139 
L 112.204777 293.150453 
L 117.259781 293.150453 
L 117.259781 292.623767 
L 130.155159 292.623767 
L 130.155159 292.097081 
L 131.210808 292.097081 
L 131.210808 291.570395 
L 131.439773 291.570395 
L 131.439773 290.517023 
L 134.953107 290.517023 
L 134.953107 289.990337 
L 135.701341 289.990337 
L 135.701341 289.463651 
L 137.84096 289.463651 
L 137.84096 288.936964 
L 140.767727 288.936964 
L 140.767727 288.410278 
L 144.900303 288.410278 
L 144.900303 287.883592 
L 146.019967 287.883592 
L 146.019967 287.356906 
L 150.841405 287.356906 
L 150.841405 286.83022 
L 152.322086 286.83022 
L 152.322086 286.303534 
L 153.192929 286.303534 
L 153.192929 285.776848 
L 153.67271 285.776848 
L 153.67271 285.250162 
L 154.070741 285.250162 
L 154.070741 284.723476 
L 156.562634 284.723476 
L 156.562634 284.19679 
L 157.277891 284.19679 
L 157.277891 283.670104 
L 158.668475 283.670104 
L 158.668475 283.143418 
L 159.547605 283.143418 
L 159.547605 282.616732 
L 161.8498 282.616732 
L 161.8498 282.090045 
L 162.091193 282.090045 
L 162.091193 281.563359 
L 162.52596 281.563359 
L 162.52596 281.036673 
L 163.879282 281.036673 
L 163.879282 280.509987 
L 164.171861 280.509987 
L 164.171861 279.983301 
L 166.158729 279.983301 
L 166.158729 279.456615 
L 178.047092 279.456615 
L 178.047092 278.929929 
L 181.584061 278.929929 
L 181.584061 278.403243 
L 182.467814 278.403243 
L 182.467814 277.876557 
L 184.054532 277.876557 
L 184.054532 277.349871 
L 184.613309 277.349871 
L 184.705318 276.296499 
L 185.065074 276.296499 
L 185.065074 275.769812 
L 185.428995 275.769812 
L 185.428995 275.243126 
L 186.570714 275.243126 
L 186.570714 274.71644 
L 188.690678 274.71644 
L 188.690678 274.189754 
L 195.643074 274.189754 
L 195.643074 273.663068 
L 198.97494 273.663068 
L 199.0484 272.609696 
L 205.21165 272.609696 
L 205.21165 272.08301 
L 206.65158 272.08301 
L 206.65158 271.556324 
L 206.888995 271.556324 
L 206.888995 271.029638 
L 207.018772 271.029638 
L 207.018772 270.502952 
L 231.360632 270.502952 
L 231.360632 269.976266 
L 234.306529 269.976266 
L 234.355412 268.922893 
L 242.950005 268.922893 
L 242.950005 268.396207 
L 244.585626 268.396207 
L 244.663751 267.342835 
L 250.998739 267.342835 
L 250.998739 266.816149 
L 255.622231 266.816149 
L 255.628357 265.236091 
L 259.309004 265.236091 
L 259.309004 264.709405 
L 262.331428 264.709405 
L 262.331428 264.182719 
L 264.420119 264.182719 
L 264.420119 263.656033 
L 264.920548 263.656033 
L 264.926574 262.075974 
L 267.172204 262.075974 
L 267.202761 261.022602 
L 268.772032 261.022602 
L 268.772032 260.495916 
L 269.15587 260.495916 
L 269.15587 259.96923 
L 270.963464 259.96923 
L 270.963464 259.442544 
L 272.563778 259.442544 
L 272.572048 258.389172 
L 275.405708 258.389172 
L 275.439175 256.282427 
L 277.871838 256.282427 
L 277.879352 255.229055 
L 280.029332 255.229055 
L 280.029332 254.702369 
L 281.939879 254.702369 
L 281.939879 254.175683 
L 283.654392 254.175683 
L 283.661803 253.122311 
L 284.458456 253.122311 
L 284.458456 252.595625 
L 286.660985 252.595625 
L 286.660985 252.068939 
L 290.926031 252.068939 
L 290.926031 251.542253 
L 291.974639 251.542253 
L 291.974639 251.015567 
L 292.962898 251.015567 
L 292.970193 249.962195 
L 293.443976 249.962195 
L 293.443976 249.435508 
L 294.347151 249.435508 
L 294.347151 248.908822 
L 296.826757 248.908822 
L 296.826757 248.382136 
L 302.108909 248.382136 
L 302.108909 247.85545 
L 303.207253 247.85545 
L 303.207253 247.328764 
L 303.474481 247.328764 
L 303.474481 246.802078 
L 308.673383 246.802078 
L 308.673383 246.275392 
L 338.688 246.275392 
L 338.688 246.275392 
" style="fill:none;stroke:#ff7500;stroke-linecap:square;stroke-width:1.5;"/>
   </g>
   <g id="line2d_56">
    <defs>
     <path d="M 0 -6 
L -1.347084 -1.854102 
L -5.706339 -1.854102 
L -2.179628 0.708204 
L -3.526712 4.854102 
L -0 2.291796 
L 3.526712 4.854102 
L 2.179628 0.708204 
L 5.706339 -1.854102 
L 1.347084 -1.854102 
z
" id="m457702ba4a" style="stroke:#ff7500;stroke-linejoin:bevel;stroke-width:1.5;"/>
    </defs>
    <g>
     <use style="fill-opacity:0;stroke:#ff7500;stroke-linejoin:bevel;stroke-width:1.5;" x="131.439773" xlink:href="#m457702ba4a" y="290.517023"/>
     <use style="fill-opacity:0;stroke:#ff7500;stroke-linejoin:bevel;stroke-width:1.5;" x="206.65158" xlink:href="#m457702ba4a" y="272.08301"/>
     <use style="fill-opacity:0;stroke:#ff7500;stroke-linejoin:bevel;stroke-width:1.5;" x="280.029332" xlink:href="#m457702ba4a" y="255.229055"/>
     <use style="fill-opacity:0;stroke:#ff7500;stroke-linejoin:bevel;stroke-width:1.5;" x="308.673383" xlink:href="#m457702ba4a" y="246.275392"/>
     <use style="fill-opacity:0;stroke:#ff7500;stroke-linejoin:bevel;stroke-width:1.5;" x="338.688" xlink:href="#m457702ba4a" y="246.275392"/>
    </g>
   </g>
   <g id="line2d_57">
    <path style="fill:none;stroke:#ff7500;stroke-linecap:square;stroke-width:1.5;"/>
    <g/>
   </g>
   <g id="line2d_58">
    <path clip-path="url(#pa9ced836a7)" d="M 230.351333 270.502952 
" style="fill:none;stroke:#ff7500;stroke-linecap:square;stroke-width:1.5;"/>
    <defs>
     <path d="M -12 12 
L 12 -12 
M -12 -12 
L 12 12 
" id="m2c75077ca8" style="stroke:#ff7500;"/>
    </defs>
    <g clip-path="url(#pa9ced836a7)">
     <use style="fill:#ff7500;stroke:#ff7500;" x="230.351333" xlink:href="#m2c75077ca8" y="270.502952"/>
    </g>
   </g>
   <g id="line2d_59">
    <defs>
     <path d="M 0 1.5 
C 0.397805 1.5 0.77937 1.341951 1.06066 1.06066 
C 1.341951 0.77937 1.5 0.397805 1.5 0 
C 1.5 -0.397805 1.341951 -0.77937 1.06066 -1.06066 
C 0.77937 -1.341951 0.397805 -1.5 0 -1.5 
C -0.397805 -1.5 -0.77937 -1.341951 -1.06066 -1.06066 
C -1.341951 -0.77937 -1.5 -0.397805 -1.5 0 
C -1.5 0.397805 -1.341951 0.77937 -1.06066 1.06066 
C -0.77937 1.341951 -0.397805 1.5 0 1.5 
z
" id="m4d108fab72" style="stroke:#9acd32;"/>
    </defs>
    <g>
     <use style="fill:#9acd32;stroke:#9acd32;" x="314.598521" xlink:href="#m4d108fab72" y="241.008531"/>
     <use style="fill:#9acd32;stroke:#9acd32;" x="314.598521" xlink:href="#m4d108fab72" y="241.008531"/>
    </g>
   </g>
   <g id="line2d_60">
    <path d="M 80.416384 298.944 
L 80.416384 298.417314 
L 90.242884 298.417314 
L 90.242884 297.890628 
L 96.86091 297.890628 
L 96.86091 297.363942 
L 97.224242 297.363942 
L 97.224242 296.837256 
L 98.606294 296.837256 
L 98.606294 296.31057 
L 99.886816 296.31057 
L 99.886816 295.783884 
L 103.747386 295.783884 
L 103.747386 295.257197 
L 104.942325 295.257197 
L 104.942325 294.730511 
L 106.06061 294.730511 
L 106.06061 294.203825 
L 108.671345 294.203825 
L 108.671345 293.677139 
L 109.131511 293.677139 
L 109.131511 293.150453 
L 110.443353 293.150453 
L 110.443353 292.623767 
L 117.486268 292.623767 
L 117.486268 292.097081 
L 125.506102 292.097081 
L 125.506102 291.570395 
L 125.996395 291.570395 
L 125.996395 291.043709 
L 126.168212 291.043709 
L 126.168212 290.517023 
L 129.574256 290.517023 
L 129.574256 289.990337 
L 131.640805 289.990337 
L 131.640805 289.463651 
L 138.89409 289.463651 
L 138.89409 288.936964 
L 143.273169 288.936964 
L 143.273169 288.410278 
L 144.087359 288.410278 
L 144.087359 287.883592 
L 149.241465 287.883592 
L 149.241465 287.356906 
L 153.502361 287.356906 
L 153.502361 286.83022 
L 155.245367 286.83022 
L 155.245367 286.303534 
L 156.236431 286.303534 
L 156.236431 285.776848 
L 157.352406 285.776848 
L 157.352406 285.250162 
L 159.041045 285.250162 
L 159.041045 284.723476 
L 161.698887 284.723476 
L 161.698887 284.19679 
L 164.171861 284.19679 
L 164.171861 283.670104 
L 166.00966 283.670104 
L 166.00966 283.143418 
L 166.456493 283.143418 
L 166.456493 282.616732 
L 166.925229 282.616732 
L 166.925229 282.090045 
L 167.223287 282.090045 
L 167.223287 281.563359 
L 169.59698 281.563359 
L 169.59698 281.036673 
L 170.143834 281.036673 
L 170.143834 280.509987 
L 171.98509 280.509987 
L 171.98509 279.983301 
L 175.135376 279.983301 
L 175.135376 279.456615 
L 177.135015 279.456615 
L 177.135015 278.929929 
L 178.265693 278.929929 
L 178.265693 278.403243 
L 178.813871 278.403243 
L 178.813871 277.876557 
L 179.532325 277.876557 
L 179.532325 277.349871 
L 180.647105 277.349871 
L 180.647105 276.823185 
L 183.342471 276.823185 
L 183.342471 276.296499 
L 183.646504 276.296499 
L 183.646504 275.769812 
L 187.191357 275.769812 
L 187.191357 275.243126 
L 187.704584 275.243126 
L 187.704584 274.71644 
L 188.898067 274.71644 
L 188.898067 274.189754 
L 190.953576 274.189754 
L 190.953576 273.663068 
L 191.627527 273.663068 
L 191.627527 273.136382 
L 191.83543 273.136382 
L 191.83543 272.609696 
L 195.082951 272.609696 
L 195.082951 272.08301 
L 198.780889 272.08301 
L 198.780889 271.556324 
L 215.882257 271.556324 
L 215.882257 271.029638 
L 216.376162 271.029638 
L 216.486122 269.449579 
L 216.564543 269.449579 
L 216.647385 268.396207 
L 217.32077 268.396207 
L 217.32077 267.869521 
L 217.724654 267.869521 
L 217.724654 267.342835 
L 217.928374 267.342835 
L 217.989099 266.289463 
L 258.577378 266.289463 
L 258.604424 264.709405 
L 259.892799 264.709405 
L 260.002941 261.022602 
L 260.004259 261.022602 
L 260.041741 259.442544 
L 271.228131 259.442544 
L 271.332448 256.809114 
L 277.599376 256.809114 
L 277.637631 255.229055 
L 278.059281 255.229055 
L 278.119977 253.122311 
L 282.959079 253.122311 
L 283.007256 251.542253 
L 286.512457 251.542253 
L 286.512457 251.015567 
L 286.775302 251.015567 
L 286.812805 247.85545 
L 289.905162 247.85545 
L 289.930949 245.22202 
L 292.554299 245.22202 
L 292.576776 244.168648 
L 294.883597 244.168648 
L 294.883597 243.641962 
L 296.903919 243.641962 
L 296.903919 243.115275 
L 305.737281 243.115275 
L 305.738265 242.061903 
L 306.856201 242.061903 
L 306.856201 241.535217 
L 314.598521 241.535217 
L 314.598521 241.008531 
L 338.688 241.008531 
L 338.688 241.008531 
" style="fill:none;stroke:#9acd32;stroke-linecap:square;stroke-width:1.5;"/>
   </g>
   <g id="line2d_61">
    <defs>
     <path d="M 0 -6 
L -6 6 
L 6 6 
z
" id="mee65b899ed" style="stroke:#9acd32;stroke-linejoin:miter;stroke-width:1.5;"/>
    </defs>
    <g>
     <use style="fill-opacity:0;stroke:#9acd32;stroke-linejoin:miter;stroke-width:1.5;" x="195.082951" xlink:href="#mee65b899ed" y="272.08301"/>
     <use style="fill-opacity:0;stroke:#9acd32;stroke-linejoin:miter;stroke-width:1.5;" x="271.332448" xlink:href="#mee65b899ed" y="257.3358"/>
     <use style="fill-opacity:0;stroke:#9acd32;stroke-linejoin:miter;stroke-width:1.5;" x="314.598521" xlink:href="#mee65b899ed" y="241.008531"/>
     <use style="fill-opacity:0;stroke:#9acd32;stroke-linejoin:miter;stroke-width:1.5;" x="314.598521" xlink:href="#mee65b899ed" y="241.008531"/>
     <use style="fill-opacity:0;stroke:#9acd32;stroke-linejoin:miter;stroke-width:1.5;" x="338.688" xlink:href="#mee65b899ed" y="241.008531"/>
    </g>
   </g>
   <g id="line2d_62">
    <path style="fill:none;stroke:#9acd32;stroke-linecap:square;stroke-width:1.5;"/>
    <g/>
   </g>
   <g id="line2d_63">
    <path clip-path="url(#pa9ced836a7)" d="M 258.403282 266.289463 
" style="fill:none;stroke:#9acd32;stroke-linecap:square;stroke-width:1.5;"/>
    <defs>
     <path d="M -12 12 
L 12 -12 
M -12 -12 
L 12 12 
" id="mfe7ad6c845" style="stroke:#9acd32;"/>
    </defs>
    <g clip-path="url(#pa9ced836a7)">
     <use style="fill:#9acd32;stroke:#9acd32;" x="258.403282" xlink:href="#mfe7ad6c845" y="266.289463"/>
    </g>
   </g>
   <g id="line2d_64">
    <path d="M 338.688 251.542253 
L 369.60768 293.571802 
" style="fill:none;stroke:#000080;stroke-linecap:square;stroke-width:1.5;"/>
    <g>
     <use style="fill-opacity:0;stroke:#000080;stroke-width:1.5;" x="338.688" xlink:href="#m2db506e85d" y="251.542253"/>
     <use style="fill-opacity:0;stroke:#000080;stroke-width:1.5;" x="369.60768" xlink:href="#m2db506e85d" y="293.571802"/>
    </g>
   </g>
   <g id="line2d_65">
    <path d="M 338.688 246.275392 
L 369.60768 250.594218 
" style="fill:none;stroke:#ff7500;stroke-linecap:square;stroke-width:1.5;"/>
    <g>
     <use style="fill-opacity:0;stroke:#ff7500;stroke-linejoin:bevel;stroke-width:1.5;" x="338.688" xlink:href="#m457702ba4a" y="246.275392"/>
     <use style="fill-opacity:0;stroke:#ff7500;stroke-linejoin:bevel;stroke-width:1.5;" x="369.60768" xlink:href="#m457702ba4a" y="250.594218"/>
    </g>
   </g>
   <g id="line2d_66">
    <path d="M 338.688 241.008531 
L 369.60768 207.616634 
" style="fill:none;stroke:#9acd32;stroke-linecap:square;stroke-width:1.5;"/>
    <g>
     <use style="fill-opacity:0;stroke:#9acd32;stroke-linejoin:miter;stroke-width:1.5;" x="338.688" xlink:href="#mee65b899ed" y="241.008531"/>
     <use style="fill-opacity:0;stroke:#9acd32;stroke-linejoin:miter;stroke-width:1.5;" x="369.60768" xlink:href="#mee65b899ed" y="207.616634"/>
    </g>
   </g>
   <g id="line2d_67">
    <path d="M 338.688 241.008531 
L 369.60768 164.63905 
" style="fill:none;stroke:#ff0000;stroke-linecap:square;stroke-width:1.5;"/>
    <g>
     <use style="fill-opacity:0;stroke:#ff0000;stroke-linejoin:miter;stroke-width:1.5;" x="338.688" xlink:href="#m0604f680fc" y="241.008531"/>
     <use style="fill-opacity:0;stroke:#ff0000;stroke-linejoin:miter;stroke-width:1.5;" x="369.60768" xlink:href="#m0604f680fc" y="164.63905"/>
    </g>
   </g>
   <g id="line2d_68">
    <path d="M 338.688 230.47481 
L 369.60768 121.661465 
" style="fill:none;stroke:#000080;stroke-linecap:square;stroke-width:1.5;"/>
    <g>
     <use style="fill-opacity:0;stroke:#000080;stroke-width:1.5;" x="338.688" xlink:href="#m2db506e85d" y="230.47481"/>
     <use style="fill-opacity:0;stroke:#000080;stroke-width:1.5;" x="369.60768" xlink:href="#m2db506e85d" y="121.661465"/>
    </g>
   </g>
   <g id="line2d_69">
    <path d="M 338.688 230.47481 
L 369.60768 78.683881 
" style="fill:none;stroke:#ff00ff;stroke-linecap:square;stroke-width:1.5;"/>
    <g>
     <use style="fill-opacity:0;stroke:#ff00ff;stroke-linejoin:miter;stroke-width:1.5;" x="338.688" xlink:href="#m37d259035d" y="230.47481"/>
     <use style="fill-opacity:0;stroke:#ff00ff;stroke-linejoin:miter;stroke-width:1.5;" x="369.60768" xlink:href="#m37d259035d" y="78.683881"/>
    </g>
   </g>
   <g id="line2d_70">
    <path d="M 338.688 298.944 
L 338.688 30.334099 
" style="fill:none;stroke:#000000;stroke-linecap:square;stroke-width:1.5;"/>
   </g>
   <g id="patch_3">
    <path d="M 57.6 298.944 
L 57.6 27.648 
" style="fill:none;stroke:#000000;stroke-linecap:square;stroke-linejoin:miter;stroke-width:0.8;"/>
   </g>
   <g id="patch_4">
    <path d="M 338.688 298.944 
L 338.688 27.648 
" style="fill:none;stroke:#000000;stroke-linecap:square;stroke-linejoin:miter;stroke-width:0.8;"/>
   </g>
   <g id="patch_5">
    <path d="M 57.6 298.944 
L 338.688 298.944 
" style="fill:none;stroke:#000000;stroke-linecap:square;stroke-linejoin:miter;stroke-width:0.8;"/>
   </g>
   <g id="patch_6">
    <path d="M 57.6 27.648 
L 338.688 27.648 
" style="fill:none;stroke:#000000;stroke-linecap:square;stroke-linejoin:miter;stroke-width:0.8;"/>
   </g>
   <g id="text_13">
    <!-- 100-2e4 -->
    <g transform="translate(375.22944 298.262739)scale(0.17 -0.17)">
     <use xlink:href="#DejaVuSans-49"/>
     <use x="63.623047" xlink:href="#DejaVuSans-48"/>
     <use x="127.246094" xlink:href="#DejaVuSans-48"/>
     <use x="190.869141" xlink:href="#DejaVuSans-45"/>
     <use x="226.953125" xlink:href="#DejaVuSans-50"/>
     <use x="290.576172" xlink:href="#DejaVuSans-101"/>
     <use x="352.099609" xlink:href="#DejaVuSans-52"/>
    </g>
   </g>
   <g id="text_14">
    <!-- 075-2e4 -->
    <defs>
     <path d="M 8.203125 72.90625 
L 55.078125 72.90625 
L 55.078125 68.703125 
L 28.609375 0 
L 18.3125 0 
L 43.21875 64.59375 
L 8.203125 64.59375 
z
" id="DejaVuSans-55"/>
     <path d="M 10.796875 72.90625 
L 49.515625 72.90625 
L 49.515625 64.59375 
L 19.828125 64.59375 
L 19.828125 46.734375 
Q 21.96875 47.46875 24.109375 47.828125 
Q 26.265625 48.1875 28.421875 48.1875 
Q 40.625 48.1875 47.75 41.5 
Q 54.890625 34.8125 54.890625 23.390625 
Q 54.890625 11.625 47.5625 5.09375 
Q 40.234375 -1.421875 26.90625 -1.421875 
Q 22.3125 -1.421875 17.546875 -0.640625 
Q 12.796875 0.140625 7.71875 1.703125 
L 7.71875 11.625 
Q 12.109375 9.234375 16.796875 8.0625 
Q 21.484375 6.890625 26.703125 6.890625 
Q 35.15625 6.890625 40.078125 11.328125 
Q 45.015625 15.765625 45.015625 23.390625 
Q 45.015625 31 40.078125 35.4375 
Q 35.15625 39.890625 26.703125 39.890625 
Q 22.75 39.890625 18.8125 39.015625 
Q 14.890625 38.140625 10.796875 36.28125 
z
" id="DejaVuSans-53"/>
    </defs>
    <g transform="translate(375.22944 255.285155)scale(0.17 -0.17)">
     <use xlink:href="#DejaVuSans-48"/>
     <use x="63.623047" xlink:href="#DejaVuSans-55"/>
     <use x="127.246094" xlink:href="#DejaVuSans-53"/>
     <use x="190.869141" xlink:href="#DejaVuSans-45"/>
     <use x="226.953125" xlink:href="#DejaVuSans-50"/>
     <use x="290.576172" xlink:href="#DejaVuSans-101"/>
     <use x="352.099609" xlink:href="#DejaVuSans-52"/>
    </g>
   </g>
   <g id="text_15">
    <!-- 080-1e5 -->
    <g transform="translate(375.22944 212.307571)scale(0.17 -0.17)">
     <use xlink:href="#DejaVuSans-48"/>
     <use x="63.623047" xlink:href="#DejaVuSans-56"/>
     <use x="127.246094" xlink:href="#DejaVuSans-48"/>
     <use x="190.869141" xlink:href="#DejaVuSans-45"/>
     <use x="226.953125" xlink:href="#DejaVuSans-49"/>
     <use x="290.576172" xlink:href="#DejaVuSans-101"/>
     <use x="352.099609" xlink:href="#DejaVuSans-53"/>
    </g>
   </g>
   <g id="text_16">
    <!-- 050-2e4 -->
    <g transform="translate(375.22944 169.329987)scale(0.17 -0.17)">
     <use xlink:href="#DejaVuSans-48"/>
     <use x="63.623047" xlink:href="#DejaVuSans-53"/>
     <use x="127.246094" xlink:href="#DejaVuSans-48"/>
     <use x="190.869141" xlink:href="#DejaVuSans-45"/>
     <use x="226.953125" xlink:href="#DejaVuSans-50"/>
     <use x="290.576172" xlink:href="#DejaVuSans-101"/>
     <use x="352.099609" xlink:href="#DejaVuSans-52"/>
    </g>
   </g>
   <g id="text_17">
    <!-- 100-1e5 -->
    <g transform="translate(375.22944 126.352403)scale(0.17 -0.17)">
     <use xlink:href="#DejaVuSans-49"/>
     <use x="63.623047" xlink:href="#DejaVuSans-48"/>
     <use x="127.246094" xlink:href="#DejaVuSans-48"/>
     <use x="190.869141" xlink:href="#DejaVuSans-45"/>
     <use x="226.953125" xlink:href="#DejaVuSans-49"/>
     <use x="290.576172" xlink:href="#DejaVuSans-101"/>
     <use x="352.099609" xlink:href="#DejaVuSans-53"/>
    </g>
   </g>
   <g id="text_18">
    <!-- 025-2e4 -->
    <g transform="translate(375.22944 83.374819)scale(0.17 -0.17)">
     <use xlink:href="#DejaVuSans-48"/>
     <use x="63.623047" xlink:href="#DejaVuSans-50"/>
     <use x="127.246094" xlink:href="#DejaVuSans-53"/>
     <use x="190.869141" xlink:href="#DejaVuSans-45"/>
     <use x="226.953125" xlink:href="#DejaVuSans-50"/>
     <use x="290.576172" xlink:href="#DejaVuSans-101"/>
     <use x="352.099609" xlink:href="#DejaVuSans-52"/>
    </g>
   </g>
   <g id="text_19">
    <!-- best 2009 -->
    <defs>
     <path d="M 48.6875 27.296875 
Q 48.6875 37.203125 44.609375 42.84375 
Q 40.53125 48.484375 33.40625 48.484375 
Q 26.265625 48.484375 22.1875 42.84375 
Q 18.109375 37.203125 18.109375 27.296875 
Q 18.109375 17.390625 22.1875 11.75 
Q 26.265625 6.109375 33.40625 6.109375 
Q 40.53125 6.109375 44.609375 11.75 
Q 48.6875 17.390625 48.6875 27.296875 
z
M 18.109375 46.390625 
Q 20.953125 51.265625 25.265625 53.625 
Q 29.59375 56 35.59375 56 
Q 45.5625 56 51.78125 48.09375 
Q 58.015625 40.1875 58.015625 27.296875 
Q 58.015625 14.40625 51.78125 6.484375 
Q 45.5625 -1.421875 35.59375 -1.421875 
Q 29.59375 -1.421875 25.265625 0.953125 
Q 20.953125 3.328125 18.109375 8.203125 
L 18.109375 0 
L 9.078125 0 
L 9.078125 75.984375 
L 18.109375 75.984375 
z
" id="DejaVuSans-98"/>
     <path d="M 10.984375 1.515625 
L 10.984375 10.5 
Q 14.703125 8.734375 18.5 7.8125 
Q 22.3125 6.890625 25.984375 6.890625 
Q 35.75 6.890625 40.890625 13.453125 
Q 46.046875 20.015625 46.78125 33.40625 
Q 43.953125 29.203125 39.59375 26.953125 
Q 35.25 24.703125 29.984375 24.703125 
Q 19.046875 24.703125 12.671875 31.3125 
Q 6.296875 37.9375 6.296875 49.421875 
Q 6.296875 60.640625 12.9375 67.421875 
Q 19.578125 74.21875 30.609375 74.21875 
Q 43.265625 74.21875 49.921875 64.515625 
Q 56.59375 54.828125 56.59375 36.375 
Q 56.59375 19.140625 48.40625 8.859375 
Q 40.234375 -1.421875 26.421875 -1.421875 
Q 22.703125 -1.421875 18.890625 -0.6875 
Q 15.09375 0.046875 10.984375 1.515625 
z
M 30.609375 32.421875 
Q 37.25 32.421875 41.125 36.953125 
Q 45.015625 41.5 45.015625 49.421875 
Q 45.015625 57.28125 41.125 61.84375 
Q 37.25 66.40625 30.609375 66.40625 
Q 23.96875 66.40625 20.09375 61.84375 
Q 16.21875 57.28125 16.21875 49.421875 
Q 16.21875 41.5 20.09375 36.953125 
Q 23.96875 32.421875 30.609375 32.421875 
z
" id="DejaVuSans-57"/>
    </defs>
    <g transform="translate(375.22944 40.397235)scale(0.17 -0.17)">
     <use xlink:href="#DejaVuSans-98"/>
     <use x="63.476562" xlink:href="#DejaVuSans-101"/>
     <use x="125" xlink:href="#DejaVuSans-115"/>
     <use x="177.099609" xlink:href="#DejaVuSans-116"/>
     <use x="216.308594" xlink:href="#DejaVuSans-32"/>
     <use x="248.095703" xlink:href="#DejaVuSans-50"/>
     <use x="311.71875" xlink:href="#DejaVuSans-48"/>
     <use x="375.341797" xlink:href="#DejaVuSans-48"/>
     <use x="438.964844" xlink:href="#DejaVuSans-57"/>
    </g>
   </g>
   <g id="text_20">
    <!-- bbob f24, 10-D -->
    <defs>
     <path d="M 19.671875 64.796875 
L 19.671875 8.109375 
L 31.59375 8.109375 
Q 46.6875 8.109375 53.6875 14.9375 
Q 60.6875 21.78125 60.6875 36.53125 
Q 60.6875 51.171875 53.6875 57.984375 
Q 46.6875 64.796875 31.59375 64.796875 
z
M 9.8125 72.90625 
L 30.078125 72.90625 
Q 51.265625 72.90625 61.171875 64.09375 
Q 71.09375 55.28125 71.09375 36.53125 
Q 71.09375 17.671875 61.125 8.828125 
Q 51.171875 0 30.078125 0 
L 9.8125 0 
z
" id="DejaVuSans-68"/>
    </defs>
    <g transform="translate(60.41088 38.111366)scale(0.102 -0.102)">
     <use xlink:href="#DejaVuSans-98"/>
     <use x="63.476562" xlink:href="#DejaVuSans-98"/>
     <use x="126.953125" xlink:href="#DejaVuSans-111"/>
     <use x="188.134766" xlink:href="#DejaVuSans-98"/>
     <use x="251.611328" xlink:href="#DejaVuSans-32"/>
     <use x="283.398438" xlink:href="#DejaVuSans-102"/>
     <use x="318.603516" xlink:href="#DejaVuSans-50"/>
     <use x="382.226562" xlink:href="#DejaVuSans-52"/>
     <use x="445.849609" xlink:href="#DejaVuSans-44"/>
     <use x="477.636719" xlink:href="#DejaVuSans-32"/>
     <use x="509.423828" xlink:href="#DejaVuSans-49"/>
     <use x="573.046875" xlink:href="#DejaVuSans-48"/>
     <use x="636.669922" xlink:href="#DejaVuSans-45"/>
     <use x="672.753906" xlink:href="#DejaVuSans-68"/>
    </g>
    <!-- 51 targets: 100..1e-08 -->
    <defs>
     <path d="M 11.71875 12.40625 
L 22.015625 12.40625 
L 22.015625 0 
L 11.71875 0 
z
M 11.71875 51.703125 
L 22.015625 51.703125 
L 22.015625 39.3125 
L 11.71875 39.3125 
z
" id="DejaVuSans-58"/>
    </defs>
    <g transform="translate(60.41088 49.533135)scale(0.102 -0.102)">
     <use xlink:href="#DejaVuSans-53"/>
     <use x="63.623047" xlink:href="#DejaVuSans-49"/>
     <use x="127.246094" xlink:href="#DejaVuSans-32"/>
     <use x="159.033203" xlink:href="#DejaVuSans-116"/>
     <use x="198.242188" xlink:href="#DejaVuSans-97"/>
     <use x="259.521484" xlink:href="#DejaVuSans-114"/>
     <use x="300.619141" xlink:href="#DejaVuSans-103"/>
     <use x="364.095703" xlink:href="#DejaVuSans-101"/>
     <use x="425.619141" xlink:href="#DejaVuSans-116"/>
     <use x="464.828125" xlink:href="#DejaVuSans-115"/>
     <use x="516.927734" xlink:href="#DejaVuSans-58"/>
     <use x="550.619141" xlink:href="#DejaVuSans-32"/>
     <use x="582.40625" xlink:href="#DejaVuSans-49"/>
     <use x="646.029297" xlink:href="#DejaVuSans-48"/>
     <use x="709.652344" xlink:href="#DejaVuSans-48"/>
     <use x="773.275391" xlink:href="#DejaVuSans-46"/>
     <use x="805.0625" xlink:href="#DejaVuSans-46"/>
     <use x="836.849609" xlink:href="#DejaVuSans-49"/>
     <use x="900.472656" xlink:href="#DejaVuSans-101"/>
     <use x="961.996094" xlink:href="#DejaVuSans-45"/>
     <use x="998.080078" xlink:href="#DejaVuSans-48"/>
     <use x="1061.703125" xlink:href="#DejaVuSans-56"/>
    </g>
    <!-- 15 instances -->
    <g transform="translate(60.41088 60.954904)scale(0.102 -0.102)">
     <use xlink:href="#DejaVuSans-49"/>
     <use x="63.623047" xlink:href="#DejaVuSans-53"/>
     <use x="127.246094" xlink:href="#DejaVuSans-32"/>
     <use x="159.033203" xlink:href="#DejaVuSans-105"/>
     <use x="186.816406" xlink:href="#DejaVuSans-110"/>
     <use x="250.195312" xlink:href="#DejaVuSans-115"/>
     <use x="302.294922" xlink:href="#DejaVuSans-116"/>
     <use x="341.503906" xlink:href="#DejaVuSans-97"/>
     <use x="402.783203" xlink:href="#DejaVuSans-110"/>
     <use x="466.162109" xlink:href="#DejaVuSans-99"/>
     <use x="521.142578" xlink:href="#DejaVuSans-101"/>
     <use x="582.666016" xlink:href="#DejaVuSans-115"/>
    </g>
   </g>
   <g id="text_21">
    <!-- v2.3.3.18.73 -->
    <defs>
     <path d="M 40.578125 39.3125 
Q 47.65625 37.796875 51.625 33 
Q 55.609375 28.21875 55.609375 21.1875 
Q 55.609375 10.40625 48.1875 4.484375 
Q 40.765625 -1.421875 27.09375 -1.421875 
Q 22.515625 -1.421875 17.65625 -0.515625 
Q 12.796875 0.390625 7.625 2.203125 
L 7.625 11.71875 
Q 11.71875 9.328125 16.59375 8.109375 
Q 21.484375 6.890625 26.8125 6.890625 
Q 36.078125 6.890625 40.9375 10.546875 
Q 45.796875 14.203125 45.796875 21.1875 
Q 45.796875 27.640625 41.28125 31.265625 
Q 36.765625 34.90625 28.71875 34.90625 
L 20.21875 34.90625 
L 20.21875 43.015625 
L 29.109375 43.015625 
Q 36.375 43.015625 40.234375 45.921875 
Q 44.09375 48.828125 44.09375 54.296875 
Q 44.09375 59.90625 40.109375 62.90625 
Q 36.140625 65.921875 28.71875 65.921875 
Q 24.65625 65.921875 20.015625 65.03125 
Q 15.375 64.15625 9.8125 62.3125 
L 9.8125 71.09375 
Q 15.4375 72.65625 20.34375 73.4375 
Q 25.25 74.21875 29.59375 74.21875 
Q 40.828125 74.21875 47.359375 69.109375 
Q 53.90625 64.015625 53.90625 55.328125 
Q 53.90625 49.265625 50.4375 45.09375 
Q 46.96875 40.921875 40.578125 39.3125 
z
" id="DejaVuSans-51"/>
    </defs>
    <g style="fill:#808080;" transform="translate(166.559625 294.151352)scale(0.1 -0.1)">
     <use xlink:href="#DejaVuSans-118"/>
     <use x="59.179688" xlink:href="#DejaVuSans-50"/>
     <use x="122.802734" xlink:href="#DejaVuSans-46"/>
     <use x="154.589844" xlink:href="#DejaVuSans-51"/>
     <use x="218.212891" xlink:href="#DejaVuSans-46"/>
     <use x="250" xlink:href="#DejaVuSans-51"/>
     <use x="313.623047" xlink:href="#DejaVuSans-46"/>
     <use x="345.410156" xlink:href="#DejaVuSans-49"/>
     <use x="409.033203" xlink:href="#DejaVuSans-56"/>
     <use x="472.65625" xlink:href="#DejaVuSans-46"/>
     <use x="504.443359" xlink:href="#DejaVuSans-55"/>
     <use x="568.066406" xlink:href="#DejaVuSans-51"/>
    </g>
   </g>
   <g id="text_22">
    <!-- 24 Lunacek bi-Rastrigin -->
    <defs>
     <path d="M 9.8125 72.90625 
L 19.671875 72.90625 
L 19.671875 8.296875 
L 55.171875 8.296875 
L 55.171875 0 
L 9.8125 0 
z
" id="DejaVuSans-76"/>
     <path d="M 9.078125 75.984375 
L 18.109375 75.984375 
L 18.109375 31.109375 
L 44.921875 54.6875 
L 56.390625 54.6875 
L 27.390625 29.109375 
L 57.625 0 
L 45.90625 0 
L 18.109375 26.703125 
L 18.109375 0 
L 9.078125 0 
z
" id="DejaVuSans-107"/>
     <path d="M 44.390625 34.1875 
Q 47.5625 33.109375 50.5625 29.59375 
Q 53.5625 26.078125 56.59375 19.921875 
L 66.609375 0 
L 56 0 
L 46.6875 18.703125 
Q 43.0625 26.03125 39.671875 28.421875 
Q 36.28125 30.8125 30.421875 30.8125 
L 19.671875 30.8125 
L 19.671875 0 
L 9.8125 0 
L 9.8125 72.90625 
L 32.078125 72.90625 
Q 44.578125 72.90625 50.734375 67.671875 
Q 56.890625 62.453125 56.890625 51.90625 
Q 56.890625 45.015625 53.6875 40.46875 
Q 50.484375 35.9375 44.390625 34.1875 
z
M 19.671875 64.796875 
L 19.671875 38.921875 
L 32.078125 38.921875 
Q 39.203125 38.921875 42.84375 42.21875 
Q 46.484375 45.515625 46.484375 51.90625 
Q 46.484375 58.296875 42.84375 61.546875 
Q 39.203125 64.796875 32.078125 64.796875 
z
" id="DejaVuSans-82"/>
    </defs>
    <g transform="translate(79.9565 21.648)scale(0.2 -0.2)">
     <use xlink:href="#DejaVuSans-50"/>
     <use x="63.623047" xlink:href="#DejaVuSans-52"/>
     <use x="127.246094" xlink:href="#DejaVuSans-32"/>
     <use x="159.033203" xlink:href="#DejaVuSans-76"/>
     <use x="214.730469" xlink:href="#DejaVuSans-117"/>
     <use x="278.109375" xlink:href="#DejaVuSans-110"/>
     <use x="341.488281" xlink:href="#DejaVuSans-97"/>
     <use x="402.767578" xlink:href="#DejaVuSans-99"/>
     <use x="457.748047" xlink:href="#DejaVuSans-101"/>
     <use x="519.271484" xlink:href="#DejaVuSans-107"/>
     <use x="577.181641" xlink:href="#DejaVuSans-32"/>
     <use x="608.96875" xlink:href="#DejaVuSans-98"/>
     <use x="672.445312" xlink:href="#DejaVuSans-105"/>
     <use x="700.228516" xlink:href="#DejaVuSans-45"/>
     <use x="736.3125" xlink:href="#DejaVuSans-82"/>
     <use x="805.763672" xlink:href="#DejaVuSans-97"/>
     <use x="867.042969" xlink:href="#DejaVuSans-115"/>
     <use x="919.142578" xlink:href="#DejaVuSans-116"/>
     <use x="958.351562" xlink:href="#DejaVuSans-114"/>
     <use x="999.464844" xlink:href="#DejaVuSans-105"/>
     <use x="1027.248047" xlink:href="#DejaVuSans-103"/>
     <use x="1090.724609" xlink:href="#DejaVuSans-105"/>
     <use x="1118.507812" xlink:href="#DejaVuSans-110"/>
    </g>
   </g>
  </g>
 </g>
 <defs>
  <clipPath id="pa9ced836a7">
   <rect height="271.296" width="281.088" x="57.6" y="27.648"/>
  </clipPath>
 </defs>
</svg>
