<?xml version="1.0" encoding="utf-8" standalone="no"?>
<!DOCTYPE svg PUBLIC "-//W3C//DTD SVG 1.1//EN"
  "http://www.w3.org/Graphics/SVG/1.1/DTD/svg11.dtd">
<!-- Created with matplotlib (https://matplotlib.org/) -->
<svg height="345.6pt" version="1.1" viewBox="0 0 460.8 345.6" width="460.8pt" xmlns="http://www.w3.org/2000/svg" xmlns:xlink="http://www.w3.org/1999/xlink">
 <defs>
  <style type="text/css">
*{stroke-linecap:butt;stroke-linejoin:round;}
  </style>
 </defs>
 <g id="figure_1">
  <g id="patch_1">
   <path d="M 0 345.6 
L 460.8 345.6 
L 460.8 0 
L 0 0 
z
" style="fill:#ffffff;"/>
  </g>
  <g id="axes_1">
   <g id="patch_2">
    <path d="M 57.6 298.944 
L 338.688 298.944 
L 338.688 27.648 
L 57.6 27.648 
z
" style="fill:#ffffff;"/>
   </g>
   <g id="line2d_1">
    <path d="M 113.059268 298.944 
L 113.059268 293.677139 
L 113.418114 293.677139 
L 113.418114 288.410278 
L 114.148479 288.410278 
L 114.148479 283.143418 
L 119.020084 283.143418 
L 119.020084 277.876557 
L 123.374182 277.876557 
L 123.374182 272.609696 
L 125.857712 272.609696 
L 125.857712 267.342835 
L 128.871138 267.342835 
L 128.871138 262.075974 
L 132.230358 262.075974 
L 132.230358 256.809114 
L 132.975083 256.809114 
L 132.975083 251.542253 
L 134.268299 251.542253 
L 134.268299 246.275392 
L 139.793552 246.275392 
L 139.793552 241.008531 
L 143.534079 241.008531 
L 143.534079 235.74167 
L 146.188938 235.74167 
L 146.188938 230.47481 
L 148.676918 230.47481 
L 148.676918 225.207949 
L 153.232815 225.207949 
L 153.232815 219.941088 
L 157.859725 219.941088 
L 157.859725 214.674227 
L 160.938061 214.674227 
L 160.938061 209.407366 
L 161.685508 209.407366 
L 161.685508 204.140506 
L 162.126028 204.140506 
L 162.126028 198.873645 
L 162.747743 198.873645 
L 162.747743 193.606784 
L 163.319642 193.606784 
L 163.319642 188.339923 
L 163.810301 188.339923 
L 163.810301 183.073062 
L 164.260611 183.073062 
L 164.260611 177.806202 
L 164.660132 177.806202 
L 164.660132 172.539341 
L 165.153397 172.539341 
L 165.153397 167.27248 
L 165.558223 167.27248 
L 165.558223 162.005619 
L 166.046178 162.005619 
L 166.046178 156.738758 
L 166.46667 156.738758 
L 166.46667 151.471897 
L 166.964826 151.471897 
L 166.964826 146.205037 
L 167.360765 146.205037 
L 167.360765 140.938176 
L 167.769958 140.938176 
L 167.769958 135.671315 
L 168.100423 135.671315 
L 168.100423 130.404454 
L 168.530517 130.404454 
L 168.530517 125.137593 
L 168.847006 125.137593 
L 168.847006 119.870733 
L 169.319866 119.870733 
L 169.319866 114.603872 
L 169.567195 114.603872 
L 169.567195 109.337011 
L 169.946325 109.337011 
L 169.946325 104.07015 
L 170.333697 104.07015 
L 170.333697 98.803289 
L 170.684714 98.803289 
L 170.684714 93.536429 
L 170.942432 93.536429 
L 170.942432 88.269568 
L 171.309807 88.269568 
L 171.309807 83.002707 
L 171.640636 83.002707 
L 171.640636 77.735846 
L 171.967781 77.735846 
L 171.967781 72.468985 
L 172.270675 72.468985 
L 172.270675 67.202125 
L 172.563617 67.202125 
L 172.563617 61.935264 
L 172.851719 61.935264 
L 172.851719 56.668403 
L 173.176739 56.668403 
L 173.176739 51.401542 
L 173.521856 51.401542 
L 173.521856 46.134681 
L 173.6515 46.134681 
L 173.6515 40.867821 
L 173.708687 40.867821 
L 173.708687 35.60096 
L 173.806924 35.60096 
L 173.806924 30.334099 
L 338.688 30.334099 
" style="fill:none;stroke:#f5deb3;stroke-linecap:square;stroke-width:4;"/>
   </g>
   <g id="line2d_2">
    <defs>
     <path d="M -0 7.778175 
L 7.778175 0 
L 0 -7.778175 
L -7.778175 -0 
z
" id="ma9c8007a80" style="stroke:#f5deb3;stroke-linejoin:miter;stroke-width:1.5;"/>
    </defs>
    <g>
     <use style="fill:#f5deb3;stroke:#f5deb3;stroke-linejoin:miter;stroke-width:1.5;" x="157.859725" xlink:href="#ma9c8007a80" y="214.674227"/>
     <use style="fill:#f5deb3;stroke:#f5deb3;stroke-linejoin:miter;stroke-width:1.5;" x="171.309807" xlink:href="#ma9c8007a80" y="88.269568"/>
     <use style="fill:#f5deb3;stroke:#f5deb3;stroke-linejoin:miter;stroke-width:1.5;" x="173.806924" xlink:href="#ma9c8007a80" y="35.60096"/>
     <use style="fill:#f5deb3;stroke:#f5deb3;stroke-linejoin:miter;stroke-width:1.5;" x="173.806924" xlink:href="#ma9c8007a80" y="30.334099"/>
     <use style="fill:#f5deb3;stroke:#f5deb3;stroke-linejoin:miter;stroke-width:1.5;" x="338.688" xlink:href="#ma9c8007a80" y="30.334099"/>
    </g>
   </g>
   <g id="line2d_3">
    <path style="fill:none;stroke:#f5deb3;stroke-linecap:square;stroke-width:4;"/>
    <g/>
   </g>
   <g id="line2d_4">
    <path d="M 338.688 30.334099 
L 369.60768 293.571802 
" style="fill:none;stroke:#f5deb3;stroke-linecap:square;stroke-width:4;"/>
    <g>
     <use style="fill:#f5deb3;stroke:#f5deb3;stroke-linejoin:miter;stroke-width:1.5;" x="338.688" xlink:href="#ma9c8007a80" y="30.334099"/>
     <use style="fill:#f5deb3;stroke:#f5deb3;stroke-linejoin:miter;stroke-width:1.5;" x="369.60768" xlink:href="#ma9c8007a80" y="293.571802"/>
    </g>
   </g>
   <g id="matplotlib.axis_1">
    <g id="xtick_1">
     <g id="line2d_5">
      <path clip-path="url(#pcdeec322d9)" d="M 57.6 298.944 
L 57.6 27.648 
" style="fill:none;stroke:#b0b0b0;stroke-linecap:square;stroke-width:0.8;"/>
     </g>
     <g id="line2d_6">
      <defs>
       <path d="M 0 0 
L 0 3.5 
" id="ma60667b768" style="stroke:#000000;stroke-width:0.8;"/>
      </defs>
      <g>
       <use style="stroke:#000000;stroke-width:0.8;" x="57.6" xlink:href="#ma60667b768" y="298.944"/>
      </g>
     </g>
     <g id="text_1">
      <!-- 0 -->
      <defs>
       <path d="M 31.78125 66.40625 
Q 24.171875 66.40625 20.328125 58.90625 
Q 16.5 51.421875 16.5 36.375 
Q 16.5 21.390625 20.328125 13.890625 
Q 24.171875 6.390625 31.78125 6.390625 
Q 39.453125 6.390625 43.28125 13.890625 
Q 47.125 21.390625 47.125 36.375 
Q 47.125 51.421875 43.28125 58.90625 
Q 39.453125 66.40625 31.78125 66.40625 
z
M 31.78125 74.21875 
Q 44.046875 74.21875 50.515625 64.515625 
Q 56.984375 54.828125 56.984375 36.375 
Q 56.984375 17.96875 50.515625 8.265625 
Q 44.046875 -1.421875 31.78125 -1.421875 
Q 19.53125 -1.421875 13.0625 8.265625 
Q 6.59375 17.96875 6.59375 36.375 
Q 6.59375 54.828125 13.0625 64.515625 
Q 19.53125 74.21875 31.78125 74.21875 
z
" id="DejaVuSans-48"/>
      </defs>
      <g transform="translate(51.2375 321.140875)scale(0.2 -0.2)">
       <use xlink:href="#DejaVuSans-48"/>
      </g>
     </g>
    </g>
    <g id="xtick_2">
     <g id="line2d_7">
      <path clip-path="url(#pcdeec322d9)" d="M 137.910857 298.944 
L 137.910857 27.648 
" style="fill:none;stroke:#b0b0b0;stroke-linecap:square;stroke-width:0.8;"/>
     </g>
     <g id="line2d_8">
      <g>
       <use style="stroke:#000000;stroke-width:0.8;" x="137.910857" xlink:href="#ma60667b768" y="298.944"/>
      </g>
     </g>
     <g id="text_2">
      <!-- 2 -->
      <defs>
       <path d="M 19.1875 8.296875 
L 53.609375 8.296875 
L 53.609375 0 
L 7.328125 0 
L 7.328125 8.296875 
Q 12.9375 14.109375 22.625 23.890625 
Q 32.328125 33.6875 34.8125 36.53125 
Q 39.546875 41.84375 41.421875 45.53125 
Q 43.3125 49.21875 43.3125 52.78125 
Q 43.3125 58.59375 39.234375 62.25 
Q 35.15625 65.921875 28.609375 65.921875 
Q 23.96875 65.921875 18.8125 64.3125 
Q 13.671875 62.703125 7.8125 59.421875 
L 7.8125 69.390625 
Q 13.765625 71.78125 18.9375 73 
Q 24.125 74.21875 28.421875 74.21875 
Q 39.75 74.21875 46.484375 68.546875 
Q 53.21875 62.890625 53.21875 53.421875 
Q 53.21875 48.921875 51.53125 44.890625 
Q 49.859375 40.875 45.40625 35.40625 
Q 44.1875 33.984375 37.640625 27.21875 
Q 31.109375 20.453125 19.1875 8.296875 
z
" id="DejaVuSans-50"/>
      </defs>
      <g transform="translate(131.548357 321.140875)scale(0.2 -0.2)">
       <use xlink:href="#DejaVuSans-50"/>
      </g>
     </g>
    </g>
    <g id="xtick_3">
     <g id="line2d_9">
      <path clip-path="url(#pcdeec322d9)" d="M 218.221714 298.944 
L 218.221714 27.648 
" style="fill:none;stroke:#b0b0b0;stroke-linecap:square;stroke-width:0.8;"/>
     </g>
     <g id="line2d_10">
      <g>
       <use style="stroke:#000000;stroke-width:0.8;" x="218.221714" xlink:href="#ma60667b768" y="298.944"/>
      </g>
     </g>
     <g id="text_3">
      <!-- 4 -->
      <defs>
       <path d="M 37.796875 64.3125 
L 12.890625 25.390625 
L 37.796875 25.390625 
z
M 35.203125 72.90625 
L 47.609375 72.90625 
L 47.609375 25.390625 
L 58.015625 25.390625 
L 58.015625 17.1875 
L 47.609375 17.1875 
L 47.609375 0 
L 37.796875 0 
L 37.796875 17.1875 
L 4.890625 17.1875 
L 4.890625 26.703125 
z
" id="DejaVuSans-52"/>
      </defs>
      <g transform="translate(211.859214 321.140875)scale(0.2 -0.2)">
       <use xlink:href="#DejaVuSans-52"/>
      </g>
     </g>
    </g>
    <g id="xtick_4">
     <g id="line2d_11">
      <path clip-path="url(#pcdeec322d9)" d="M 298.532571 298.944 
L 298.532571 27.648 
" style="fill:none;stroke:#b0b0b0;stroke-linecap:square;stroke-width:0.8;"/>
     </g>
     <g id="line2d_12">
      <g>
       <use style="stroke:#000000;stroke-width:0.8;" x="298.532571" xlink:href="#ma60667b768" y="298.944"/>
      </g>
     </g>
     <g id="text_4">
      <!-- 6 -->
      <defs>
       <path d="M 33.015625 40.375 
Q 26.375 40.375 22.484375 35.828125 
Q 18.609375 31.296875 18.609375 23.390625 
Q 18.609375 15.53125 22.484375 10.953125 
Q 26.375 6.390625 33.015625 6.390625 
Q 39.65625 6.390625 43.53125 10.953125 
Q 47.40625 15.53125 47.40625 23.390625 
Q 47.40625 31.296875 43.53125 35.828125 
Q 39.65625 40.375 33.015625 40.375 
z
M 52.59375 71.296875 
L 52.59375 62.3125 
Q 48.875 64.0625 45.09375 64.984375 
Q 41.3125 65.921875 37.59375 65.921875 
Q 27.828125 65.921875 22.671875 59.328125 
Q 17.53125 52.734375 16.796875 39.40625 
Q 19.671875 43.65625 24.015625 45.921875 
Q 28.375 48.1875 33.59375 48.1875 
Q 44.578125 48.1875 50.953125 41.515625 
Q 57.328125 34.859375 57.328125 23.390625 
Q 57.328125 12.15625 50.6875 5.359375 
Q 44.046875 -1.421875 33.015625 -1.421875 
Q 20.359375 -1.421875 13.671875 8.265625 
Q 6.984375 17.96875 6.984375 36.375 
Q 6.984375 53.65625 15.1875 63.9375 
Q 23.390625 74.21875 37.203125 74.21875 
Q 40.921875 74.21875 44.703125 73.484375 
Q 48.484375 72.75 52.59375 71.296875 
z
" id="DejaVuSans-54"/>
      </defs>
      <g transform="translate(292.170071 321.140875)scale(0.2 -0.2)">
       <use xlink:href="#DejaVuSans-54"/>
      </g>
     </g>
    </g>
    <g id="xtick_5">
     <g id="line2d_13">
      <path clip-path="url(#pcdeec322d9)" d="M 97.755429 298.944 
L 97.755429 27.648 
" style="fill:none;stroke:#b0b0b0;stroke-linecap:square;stroke-width:0.8;"/>
     </g>
     <g id="line2d_14">
      <defs>
       <path d="M 0 0 
L 0 2 
" id="m6d9854b56a" style="stroke:#000000;stroke-width:0.6;"/>
      </defs>
      <g>
       <use style="stroke:#000000;stroke-width:0.6;" x="97.755429" xlink:href="#m6d9854b56a" y="298.944"/>
      </g>
     </g>
    </g>
    <g id="xtick_6">
     <g id="line2d_15">
      <path clip-path="url(#pcdeec322d9)" d="M 178.066286 298.944 
L 178.066286 27.648 
" style="fill:none;stroke:#b0b0b0;stroke-linecap:square;stroke-width:0.8;"/>
     </g>
     <g id="line2d_16">
      <g>
       <use style="stroke:#000000;stroke-width:0.6;" x="178.066286" xlink:href="#m6d9854b56a" y="298.944"/>
      </g>
     </g>
    </g>
    <g id="xtick_7">
     <g id="line2d_17">
      <path clip-path="url(#pcdeec322d9)" d="M 258.377143 298.944 
L 258.377143 27.648 
" style="fill:none;stroke:#b0b0b0;stroke-linecap:square;stroke-width:0.8;"/>
     </g>
     <g id="line2d_18">
      <g>
       <use style="stroke:#000000;stroke-width:0.6;" x="258.377143" xlink:href="#m6d9854b56a" y="298.944"/>
      </g>
     </g>
    </g>
    <g id="xtick_8">
     <g id="line2d_19">
      <path clip-path="url(#pcdeec322d9)" d="M 338.688 298.944 
L 338.688 27.648 
" style="fill:none;stroke:#b0b0b0;stroke-linecap:square;stroke-width:0.8;"/>
     </g>
     <g id="line2d_20">
      <g>
       <use style="stroke:#000000;stroke-width:0.6;" x="338.688" xlink:href="#m6d9854b56a" y="298.944"/>
      </g>
     </g>
    </g>
    <g id="text_5">
     <!-- log10(# f-evals / dimension) -->
     <defs>
      <path d="M 9.421875 75.984375 
L 18.40625 75.984375 
L 18.40625 0 
L 9.421875 0 
z
" id="DejaVuSans-108"/>
      <path d="M 30.609375 48.390625 
Q 23.390625 48.390625 19.1875 42.75 
Q 14.984375 37.109375 14.984375 27.296875 
Q 14.984375 17.484375 19.15625 11.84375 
Q 23.34375 6.203125 30.609375 6.203125 
Q 37.796875 6.203125 41.984375 11.859375 
Q 46.1875 17.53125 46.1875 27.296875 
Q 46.1875 37.015625 41.984375 42.703125 
Q 37.796875 48.390625 30.609375 48.390625 
z
M 30.609375 56 
Q 42.328125 56 49.015625 48.375 
Q 55.71875 40.765625 55.71875 27.296875 
Q 55.71875 13.875 49.015625 6.21875 
Q 42.328125 -1.421875 30.609375 -1.421875 
Q 18.84375 -1.421875 12.171875 6.21875 
Q 5.515625 13.875 5.515625 27.296875 
Q 5.515625 40.765625 12.171875 48.375 
Q 18.84375 56 30.609375 56 
z
" id="DejaVuSans-111"/>
      <path d="M 45.40625 27.984375 
Q 45.40625 37.75 41.375 43.109375 
Q 37.359375 48.484375 30.078125 48.484375 
Q 22.859375 48.484375 18.828125 43.109375 
Q 14.796875 37.75 14.796875 27.984375 
Q 14.796875 18.265625 18.828125 12.890625 
Q 22.859375 7.515625 30.078125 7.515625 
Q 37.359375 7.515625 41.375 12.890625 
Q 45.40625 18.265625 45.40625 27.984375 
z
M 54.390625 6.78125 
Q 54.390625 -7.171875 48.1875 -13.984375 
Q 42 -20.796875 29.203125 -20.796875 
Q 24.46875 -20.796875 20.265625 -20.09375 
Q 16.0625 -19.390625 12.109375 -17.921875 
L 12.109375 -9.1875 
Q 16.0625 -11.328125 19.921875 -12.34375 
Q 23.78125 -13.375 27.78125 -13.375 
Q 36.625 -13.375 41.015625 -8.765625 
Q 45.40625 -4.15625 45.40625 5.171875 
L 45.40625 9.625 
Q 42.625 4.78125 38.28125 2.390625 
Q 33.9375 0 27.875 0 
Q 17.828125 0 11.671875 7.65625 
Q 5.515625 15.328125 5.515625 27.984375 
Q 5.515625 40.671875 11.671875 48.328125 
Q 17.828125 56 27.875 56 
Q 33.9375 56 38.28125 53.609375 
Q 42.625 51.21875 45.40625 46.390625 
L 45.40625 54.6875 
L 54.390625 54.6875 
z
" id="DejaVuSans-103"/>
      <path d="M 12.40625 8.296875 
L 28.515625 8.296875 
L 28.515625 63.921875 
L 10.984375 60.40625 
L 10.984375 69.390625 
L 28.421875 72.90625 
L 38.28125 72.90625 
L 38.28125 8.296875 
L 54.390625 8.296875 
L 54.390625 0 
L 12.40625 0 
z
" id="DejaVuSans-49"/>
      <path d="M 31 75.875 
Q 24.46875 64.65625 21.28125 53.65625 
Q 18.109375 42.671875 18.109375 31.390625 
Q 18.109375 20.125 21.3125 9.0625 
Q 24.515625 -2 31 -13.1875 
L 23.1875 -13.1875 
Q 15.875 -1.703125 12.234375 9.375 
Q 8.59375 20.453125 8.59375 31.390625 
Q 8.59375 42.28125 12.203125 53.3125 
Q 15.828125 64.359375 23.1875 75.875 
z
" id="DejaVuSans-40"/>
      <path d="M 51.125 44 
L 36.921875 44 
L 32.8125 27.6875 
L 47.125 27.6875 
z
M 43.796875 71.78125 
L 38.71875 51.515625 
L 52.984375 51.515625 
L 58.109375 71.78125 
L 65.921875 71.78125 
L 60.890625 51.515625 
L 76.125 51.515625 
L 76.125 44 
L 58.984375 44 
L 54.984375 27.6875 
L 70.515625 27.6875 
L 70.515625 20.21875 
L 53.078125 20.21875 
L 48 0 
L 40.1875 0 
L 45.21875 20.21875 
L 30.90625 20.21875 
L 25.875 0 
L 18.015625 0 
L 23.09375 20.21875 
L 7.71875 20.21875 
L 7.71875 27.6875 
L 24.90625 27.6875 
L 29 44 
L 13.28125 44 
L 13.28125 51.515625 
L 30.90625 51.515625 
L 35.890625 71.78125 
z
" id="DejaVuSans-35"/>
      <path id="DejaVuSans-32"/>
      <path d="M 37.109375 75.984375 
L 37.109375 68.5 
L 28.515625 68.5 
Q 23.6875 68.5 21.796875 66.546875 
Q 19.921875 64.59375 19.921875 59.515625 
L 19.921875 54.6875 
L 34.71875 54.6875 
L 34.71875 47.703125 
L 19.921875 47.703125 
L 19.921875 0 
L 10.890625 0 
L 10.890625 47.703125 
L 2.296875 47.703125 
L 2.296875 54.6875 
L 10.890625 54.6875 
L 10.890625 58.5 
Q 10.890625 67.625 15.140625 71.796875 
Q 19.390625 75.984375 28.609375 75.984375 
z
" id="DejaVuSans-102"/>
      <path d="M 4.890625 31.390625 
L 31.203125 31.390625 
L 31.203125 23.390625 
L 4.890625 23.390625 
z
" id="DejaVuSans-45"/>
      <path d="M 56.203125 29.59375 
L 56.203125 25.203125 
L 14.890625 25.203125 
Q 15.484375 15.921875 20.484375 11.0625 
Q 25.484375 6.203125 34.421875 6.203125 
Q 39.59375 6.203125 44.453125 7.46875 
Q 49.3125 8.734375 54.109375 11.28125 
L 54.109375 2.78125 
Q 49.265625 0.734375 44.1875 -0.34375 
Q 39.109375 -1.421875 33.890625 -1.421875 
Q 20.796875 -1.421875 13.15625 6.1875 
Q 5.515625 13.8125 5.515625 26.8125 
Q 5.515625 40.234375 12.765625 48.109375 
Q 20.015625 56 32.328125 56 
Q 43.359375 56 49.78125 48.890625 
Q 56.203125 41.796875 56.203125 29.59375 
z
M 47.21875 32.234375 
Q 47.125 39.59375 43.09375 43.984375 
Q 39.0625 48.390625 32.421875 48.390625 
Q 24.90625 48.390625 20.390625 44.140625 
Q 15.875 39.890625 15.1875 32.171875 
z
" id="DejaVuSans-101"/>
      <path d="M 2.984375 54.6875 
L 12.5 54.6875 
L 29.59375 8.796875 
L 46.6875 54.6875 
L 56.203125 54.6875 
L 35.6875 0 
L 23.484375 0 
z
" id="DejaVuSans-118"/>
      <path d="M 34.28125 27.484375 
Q 23.390625 27.484375 19.1875 25 
Q 14.984375 22.515625 14.984375 16.5 
Q 14.984375 11.71875 18.140625 8.90625 
Q 21.296875 6.109375 26.703125 6.109375 
Q 34.1875 6.109375 38.703125 11.40625 
Q 43.21875 16.703125 43.21875 25.484375 
L 43.21875 27.484375 
z
M 52.203125 31.203125 
L 52.203125 0 
L 43.21875 0 
L 43.21875 8.296875 
Q 40.140625 3.328125 35.546875 0.953125 
Q 30.953125 -1.421875 24.3125 -1.421875 
Q 15.921875 -1.421875 10.953125 3.296875 
Q 6 8.015625 6 15.921875 
Q 6 25.140625 12.171875 29.828125 
Q 18.359375 34.515625 30.609375 34.515625 
L 43.21875 34.515625 
L 43.21875 35.40625 
Q 43.21875 41.609375 39.140625 45 
Q 35.0625 48.390625 27.6875 48.390625 
Q 23 48.390625 18.546875 47.265625 
Q 14.109375 46.140625 10.015625 43.890625 
L 10.015625 52.203125 
Q 14.9375 54.109375 19.578125 55.046875 
Q 24.21875 56 28.609375 56 
Q 40.484375 56 46.34375 49.84375 
Q 52.203125 43.703125 52.203125 31.203125 
z
" id="DejaVuSans-97"/>
      <path d="M 44.28125 53.078125 
L 44.28125 44.578125 
Q 40.484375 46.53125 36.375 47.5 
Q 32.28125 48.484375 27.875 48.484375 
Q 21.1875 48.484375 17.84375 46.4375 
Q 14.5 44.390625 14.5 40.28125 
Q 14.5 37.15625 16.890625 35.375 
Q 19.28125 33.59375 26.515625 31.984375 
L 29.59375 31.296875 
Q 39.15625 29.25 43.1875 25.515625 
Q 47.21875 21.78125 47.21875 15.09375 
Q 47.21875 7.46875 41.1875 3.015625 
Q 35.15625 -1.421875 24.609375 -1.421875 
Q 20.21875 -1.421875 15.453125 -0.5625 
Q 10.6875 0.296875 5.421875 2 
L 5.421875 11.28125 
Q 10.40625 8.6875 15.234375 7.390625 
Q 20.0625 6.109375 24.8125 6.109375 
Q 31.15625 6.109375 34.5625 8.28125 
Q 37.984375 10.453125 37.984375 14.40625 
Q 37.984375 18.0625 35.515625 20.015625 
Q 33.0625 21.96875 24.703125 23.78125 
L 21.578125 24.515625 
Q 13.234375 26.265625 9.515625 29.90625 
Q 5.8125 33.546875 5.8125 39.890625 
Q 5.8125 47.609375 11.28125 51.796875 
Q 16.75 56 26.8125 56 
Q 31.78125 56 36.171875 55.265625 
Q 40.578125 54.546875 44.28125 53.078125 
z
" id="DejaVuSans-115"/>
      <path d="M 25.390625 72.90625 
L 33.6875 72.90625 
L 8.296875 -9.28125 
L 0 -9.28125 
z
" id="DejaVuSans-47"/>
      <path d="M 45.40625 46.390625 
L 45.40625 75.984375 
L 54.390625 75.984375 
L 54.390625 0 
L 45.40625 0 
L 45.40625 8.203125 
Q 42.578125 3.328125 38.25 0.953125 
Q 33.9375 -1.421875 27.875 -1.421875 
Q 17.96875 -1.421875 11.734375 6.484375 
Q 5.515625 14.40625 5.515625 27.296875 
Q 5.515625 40.1875 11.734375 48.09375 
Q 17.96875 56 27.875 56 
Q 33.9375 56 38.25 53.625 
Q 42.578125 51.265625 45.40625 46.390625 
z
M 14.796875 27.296875 
Q 14.796875 17.390625 18.875 11.75 
Q 22.953125 6.109375 30.078125 6.109375 
Q 37.203125 6.109375 41.296875 11.75 
Q 45.40625 17.390625 45.40625 27.296875 
Q 45.40625 37.203125 41.296875 42.84375 
Q 37.203125 48.484375 30.078125 48.484375 
Q 22.953125 48.484375 18.875 42.84375 
Q 14.796875 37.203125 14.796875 27.296875 
z
" id="DejaVuSans-100"/>
      <path d="M 9.421875 54.6875 
L 18.40625 54.6875 
L 18.40625 0 
L 9.421875 0 
z
M 9.421875 75.984375 
L 18.40625 75.984375 
L 18.40625 64.59375 
L 9.421875 64.59375 
z
" id="DejaVuSans-105"/>
      <path d="M 52 44.1875 
Q 55.375 50.25 60.0625 53.125 
Q 64.75 56 71.09375 56 
Q 79.640625 56 84.28125 50.015625 
Q 88.921875 44.046875 88.921875 33.015625 
L 88.921875 0 
L 79.890625 0 
L 79.890625 32.71875 
Q 79.890625 40.578125 77.09375 44.375 
Q 74.3125 48.1875 68.609375 48.1875 
Q 61.625 48.1875 57.5625 43.546875 
Q 53.515625 38.921875 53.515625 30.90625 
L 53.515625 0 
L 44.484375 0 
L 44.484375 32.71875 
Q 44.484375 40.625 41.703125 44.40625 
Q 38.921875 48.1875 33.109375 48.1875 
Q 26.21875 48.1875 22.15625 43.53125 
Q 18.109375 38.875 18.109375 30.90625 
L 18.109375 0 
L 9.078125 0 
L 9.078125 54.6875 
L 18.109375 54.6875 
L 18.109375 46.1875 
Q 21.1875 51.21875 25.484375 53.609375 
Q 29.78125 56 35.6875 56 
Q 41.65625 56 45.828125 52.96875 
Q 50 49.953125 52 44.1875 
z
" id="DejaVuSans-109"/>
      <path d="M 54.890625 33.015625 
L 54.890625 0 
L 45.90625 0 
L 45.90625 32.71875 
Q 45.90625 40.484375 42.875 44.328125 
Q 39.84375 48.1875 33.796875 48.1875 
Q 26.515625 48.1875 22.3125 43.546875 
Q 18.109375 38.921875 18.109375 30.90625 
L 18.109375 0 
L 9.078125 0 
L 9.078125 54.6875 
L 18.109375 54.6875 
L 18.109375 46.1875 
Q 21.34375 51.125 25.703125 53.5625 
Q 30.078125 56 35.796875 56 
Q 45.21875 56 50.046875 50.171875 
Q 54.890625 44.34375 54.890625 33.015625 
z
" id="DejaVuSans-110"/>
      <path d="M 8.015625 75.875 
L 15.828125 75.875 
Q 23.140625 64.359375 26.78125 53.3125 
Q 30.421875 42.28125 30.421875 31.390625 
Q 30.421875 20.453125 26.78125 9.375 
Q 23.140625 -1.703125 15.828125 -13.1875 
L 8.015625 -13.1875 
Q 14.5 -2 17.703125 9.0625 
Q 20.90625 20.125 20.90625 31.390625 
Q 20.90625 42.671875 17.703125 53.65625 
Q 14.5 64.65625 8.015625 75.875 
z
" id="DejaVuSans-41"/>
     </defs>
     <g transform="translate(77.303219 342.217594)scale(0.17 -0.17)">
      <use xlink:href="#DejaVuSans-108"/>
      <use x="27.783203" xlink:href="#DejaVuSans-111"/>
      <use x="88.964844" xlink:href="#DejaVuSans-103"/>
      <use x="152.441406" xlink:href="#DejaVuSans-49"/>
      <use x="216.064453" xlink:href="#DejaVuSans-48"/>
      <use x="279.6875" xlink:href="#DejaVuSans-40"/>
      <use x="318.701172" xlink:href="#DejaVuSans-35"/>
      <use x="402.490234" xlink:href="#DejaVuSans-32"/>
      <use x="434.277344" xlink:href="#DejaVuSans-102"/>
      <use x="469.404297" xlink:href="#DejaVuSans-45"/>
      <use x="505.488281" xlink:href="#DejaVuSans-101"/>
      <use x="567.011719" xlink:href="#DejaVuSans-118"/>
      <use x="626.191406" xlink:href="#DejaVuSans-97"/>
      <use x="687.470703" xlink:href="#DejaVuSans-108"/>
      <use x="715.253906" xlink:href="#DejaVuSans-115"/>
      <use x="767.353516" xlink:href="#DejaVuSans-32"/>
      <use x="799.140625" xlink:href="#DejaVuSans-47"/>
      <use x="832.832031" xlink:href="#DejaVuSans-32"/>
      <use x="864.619141" xlink:href="#DejaVuSans-100"/>
      <use x="928.095703" xlink:href="#DejaVuSans-105"/>
      <use x="955.878906" xlink:href="#DejaVuSans-109"/>
      <use x="1053.291016" xlink:href="#DejaVuSans-101"/>
      <use x="1114.814453" xlink:href="#DejaVuSans-110"/>
      <use x="1178.193359" xlink:href="#DejaVuSans-115"/>
      <use x="1230.292969" xlink:href="#DejaVuSans-105"/>
      <use x="1258.076172" xlink:href="#DejaVuSans-111"/>
      <use x="1319.257812" xlink:href="#DejaVuSans-110"/>
      <use x="1382.636719" xlink:href="#DejaVuSans-41"/>
     </g>
    </g>
   </g>
   <g id="matplotlib.axis_2">
    <g id="ytick_1">
     <g id="line2d_21">
      <path clip-path="url(#pcdeec322d9)" d="M 57.6 298.944 
L 338.688 298.944 
" style="fill:none;stroke:#b0b0b0;stroke-linecap:square;stroke-width:0.8;"/>
     </g>
     <g id="line2d_22">
      <defs>
       <path d="M 0 0 
L -3.5 0 
" id="m3c89147399" style="stroke:#000000;stroke-width:0.8;"/>
      </defs>
      <g>
       <use style="stroke:#000000;stroke-width:0.8;" x="57.6" xlink:href="#m3c89147399" y="298.944"/>
      </g>
     </g>
     <g id="text_6">
      <!-- 0.0 -->
      <defs>
       <path d="M 10.6875 12.40625 
L 21 12.40625 
L 21 0 
L 10.6875 0 
z
" id="DejaVuSans-46"/>
      </defs>
      <g transform="translate(25.155 305.02275)scale(0.16 -0.16)">
       <use xlink:href="#DejaVuSans-48"/>
       <use x="63.623047" xlink:href="#DejaVuSans-46"/>
       <use x="95.410156" xlink:href="#DejaVuSans-48"/>
      </g>
     </g>
    </g>
    <g id="ytick_2">
     <g id="line2d_23">
      <path clip-path="url(#pcdeec322d9)" d="M 57.6 245.22202 
L 338.688 245.22202 
" style="fill:none;stroke:#b0b0b0;stroke-linecap:square;stroke-width:0.8;"/>
     </g>
     <g id="line2d_24">
      <g>
       <use style="stroke:#000000;stroke-width:0.8;" x="57.6" xlink:href="#m3c89147399" y="245.22202"/>
      </g>
     </g>
     <g id="text_7">
      <!-- 0.2 -->
      <g transform="translate(25.155 251.30077)scale(0.16 -0.16)">
       <use xlink:href="#DejaVuSans-48"/>
       <use x="63.623047" xlink:href="#DejaVuSans-46"/>
       <use x="95.410156" xlink:href="#DejaVuSans-50"/>
      </g>
     </g>
    </g>
    <g id="ytick_3">
     <g id="line2d_25">
      <path clip-path="url(#pcdeec322d9)" d="M 57.6 191.50004 
L 338.688 191.50004 
" style="fill:none;stroke:#b0b0b0;stroke-linecap:square;stroke-width:0.8;"/>
     </g>
     <g id="line2d_26">
      <g>
       <use style="stroke:#000000;stroke-width:0.8;" x="57.6" xlink:href="#m3c89147399" y="191.50004"/>
      </g>
     </g>
     <g id="text_8">
      <!-- 0.4 -->
      <g transform="translate(25.155 197.57879)scale(0.16 -0.16)">
       <use xlink:href="#DejaVuSans-48"/>
       <use x="63.623047" xlink:href="#DejaVuSans-46"/>
       <use x="95.410156" xlink:href="#DejaVuSans-52"/>
      </g>
     </g>
    </g>
    <g id="ytick_4">
     <g id="line2d_27">
      <path clip-path="url(#pcdeec322d9)" d="M 57.6 137.778059 
L 338.688 137.778059 
" style="fill:none;stroke:#b0b0b0;stroke-linecap:square;stroke-width:0.8;"/>
     </g>
     <g id="line2d_28">
      <g>
       <use style="stroke:#000000;stroke-width:0.8;" x="57.6" xlink:href="#m3c89147399" y="137.778059"/>
      </g>
     </g>
     <g id="text_9">
      <!-- 0.6 -->
      <g transform="translate(25.155 143.856809)scale(0.16 -0.16)">
       <use xlink:href="#DejaVuSans-48"/>
       <use x="63.623047" xlink:href="#DejaVuSans-46"/>
       <use x="95.410156" xlink:href="#DejaVuSans-54"/>
      </g>
     </g>
    </g>
    <g id="ytick_5">
     <g id="line2d_29">
      <path clip-path="url(#pcdeec322d9)" d="M 57.6 84.056079 
L 338.688 84.056079 
" style="fill:none;stroke:#b0b0b0;stroke-linecap:square;stroke-width:0.8;"/>
     </g>
     <g id="line2d_30">
      <g>
       <use style="stroke:#000000;stroke-width:0.8;" x="57.6" xlink:href="#m3c89147399" y="84.056079"/>
      </g>
     </g>
     <g id="text_10">
      <!-- 0.8 -->
      <defs>
       <path d="M 31.78125 34.625 
Q 24.75 34.625 20.71875 30.859375 
Q 16.703125 27.09375 16.703125 20.515625 
Q 16.703125 13.921875 20.71875 10.15625 
Q 24.75 6.390625 31.78125 6.390625 
Q 38.8125 6.390625 42.859375 10.171875 
Q 46.921875 13.96875 46.921875 20.515625 
Q 46.921875 27.09375 42.890625 30.859375 
Q 38.875 34.625 31.78125 34.625 
z
M 21.921875 38.8125 
Q 15.578125 40.375 12.03125 44.71875 
Q 8.5 49.078125 8.5 55.328125 
Q 8.5 64.0625 14.71875 69.140625 
Q 20.953125 74.21875 31.78125 74.21875 
Q 42.671875 74.21875 48.875 69.140625 
Q 55.078125 64.0625 55.078125 55.328125 
Q 55.078125 49.078125 51.53125 44.71875 
Q 48 40.375 41.703125 38.8125 
Q 48.828125 37.15625 52.796875 32.3125 
Q 56.78125 27.484375 56.78125 20.515625 
Q 56.78125 9.90625 50.3125 4.234375 
Q 43.84375 -1.421875 31.78125 -1.421875 
Q 19.734375 -1.421875 13.25 4.234375 
Q 6.78125 9.90625 6.78125 20.515625 
Q 6.78125 27.484375 10.78125 32.3125 
Q 14.796875 37.15625 21.921875 38.8125 
z
M 18.3125 54.390625 
Q 18.3125 48.734375 21.84375 45.5625 
Q 25.390625 42.390625 31.78125 42.390625 
Q 38.140625 42.390625 41.71875 45.5625 
Q 45.3125 48.734375 45.3125 54.390625 
Q 45.3125 60.0625 41.71875 63.234375 
Q 38.140625 66.40625 31.78125 66.40625 
Q 25.390625 66.40625 21.84375 63.234375 
Q 18.3125 60.0625 18.3125 54.390625 
z
" id="DejaVuSans-56"/>
      </defs>
      <g transform="translate(25.155 90.134829)scale(0.16 -0.16)">
       <use xlink:href="#DejaVuSans-48"/>
       <use x="63.623047" xlink:href="#DejaVuSans-46"/>
       <use x="95.410156" xlink:href="#DejaVuSans-56"/>
      </g>
     </g>
    </g>
    <g id="ytick_6">
     <g id="line2d_31">
      <path clip-path="url(#pcdeec322d9)" d="M 57.6 30.334099 
L 338.688 30.334099 
" style="fill:none;stroke:#b0b0b0;stroke-linecap:square;stroke-width:0.8;"/>
     </g>
     <g id="line2d_32">
      <g>
       <use style="stroke:#000000;stroke-width:0.8;" x="57.6" xlink:href="#m3c89147399" y="30.334099"/>
      </g>
     </g>
     <g id="text_11">
      <!-- 1.0 -->
      <g transform="translate(25.155 36.412849)scale(0.16 -0.16)">
       <use xlink:href="#DejaVuSans-49"/>
       <use x="63.623047" xlink:href="#DejaVuSans-46"/>
       <use x="95.410156" xlink:href="#DejaVuSans-48"/>
      </g>
     </g>
    </g>
    <g id="text_12">
     <!-- Fraction of function,target pairs -->
     <defs>
      <path d="M 9.8125 72.90625 
L 51.703125 72.90625 
L 51.703125 64.59375 
L 19.671875 64.59375 
L 19.671875 43.109375 
L 48.578125 43.109375 
L 48.578125 34.8125 
L 19.671875 34.8125 
L 19.671875 0 
L 9.8125 0 
z
" id="DejaVuSans-70"/>
      <path d="M 41.109375 46.296875 
Q 39.59375 47.171875 37.8125 47.578125 
Q 36.03125 48 33.890625 48 
Q 26.265625 48 22.1875 43.046875 
Q 18.109375 38.09375 18.109375 28.8125 
L 18.109375 0 
L 9.078125 0 
L 9.078125 54.6875 
L 18.109375 54.6875 
L 18.109375 46.1875 
Q 20.953125 51.171875 25.484375 53.578125 
Q 30.03125 56 36.53125 56 
Q 37.453125 56 38.578125 55.875 
Q 39.703125 55.765625 41.0625 55.515625 
z
" id="DejaVuSans-114"/>
      <path d="M 48.78125 52.59375 
L 48.78125 44.1875 
Q 44.96875 46.296875 41.140625 47.34375 
Q 37.3125 48.390625 33.40625 48.390625 
Q 24.65625 48.390625 19.8125 42.84375 
Q 14.984375 37.3125 14.984375 27.296875 
Q 14.984375 17.28125 19.8125 11.734375 
Q 24.65625 6.203125 33.40625 6.203125 
Q 37.3125 6.203125 41.140625 7.25 
Q 44.96875 8.296875 48.78125 10.40625 
L 48.78125 2.09375 
Q 45.015625 0.34375 40.984375 -0.53125 
Q 36.96875 -1.421875 32.421875 -1.421875 
Q 20.0625 -1.421875 12.78125 6.34375 
Q 5.515625 14.109375 5.515625 27.296875 
Q 5.515625 40.671875 12.859375 48.328125 
Q 20.21875 56 33.015625 56 
Q 37.15625 56 41.109375 55.140625 
Q 45.0625 54.296875 48.78125 52.59375 
z
" id="DejaVuSans-99"/>
      <path d="M 18.3125 70.21875 
L 18.3125 54.6875 
L 36.8125 54.6875 
L 36.8125 47.703125 
L 18.3125 47.703125 
L 18.3125 18.015625 
Q 18.3125 11.328125 20.140625 9.421875 
Q 21.96875 7.515625 27.59375 7.515625 
L 36.8125 7.515625 
L 36.8125 0 
L 27.59375 0 
Q 17.1875 0 13.234375 3.875 
Q 9.28125 7.765625 9.28125 18.015625 
L 9.28125 47.703125 
L 2.6875 47.703125 
L 2.6875 54.6875 
L 9.28125 54.6875 
L 9.28125 70.21875 
z
" id="DejaVuSans-116"/>
      <path d="M 8.5 21.578125 
L 8.5 54.6875 
L 17.484375 54.6875 
L 17.484375 21.921875 
Q 17.484375 14.15625 20.5 10.265625 
Q 23.53125 6.390625 29.59375 6.390625 
Q 36.859375 6.390625 41.078125 11.03125 
Q 45.3125 15.671875 45.3125 23.6875 
L 45.3125 54.6875 
L 54.296875 54.6875 
L 54.296875 0 
L 45.3125 0 
L 45.3125 8.40625 
Q 42.046875 3.421875 37.71875 1 
Q 33.40625 -1.421875 27.6875 -1.421875 
Q 18.265625 -1.421875 13.375 4.4375 
Q 8.5 10.296875 8.5 21.578125 
z
M 31.109375 56 
z
" id="DejaVuSans-117"/>
      <path d="M 11.71875 12.40625 
L 22.015625 12.40625 
L 22.015625 4 
L 14.015625 -11.625 
L 7.71875 -11.625 
L 11.71875 4 
z
" id="DejaVuSans-44"/>
      <path d="M 18.109375 8.203125 
L 18.109375 -20.796875 
L 9.078125 -20.796875 
L 9.078125 54.6875 
L 18.109375 54.6875 
L 18.109375 46.390625 
Q 20.953125 51.265625 25.265625 53.625 
Q 29.59375 56 35.59375 56 
Q 45.5625 56 51.78125 48.09375 
Q 58.015625 40.1875 58.015625 27.296875 
Q 58.015625 14.40625 51.78125 6.484375 
Q 45.5625 -1.421875 35.59375 -1.421875 
Q 29.59375 -1.421875 25.265625 0.953125 
Q 20.953125 3.328125 18.109375 8.203125 
z
M 48.6875 27.296875 
Q 48.6875 37.203125 44.609375 42.84375 
Q 40.53125 48.484375 33.40625 48.484375 
Q 26.265625 48.484375 22.1875 42.84375 
Q 18.109375 37.203125 18.109375 27.296875 
Q 18.109375 17.390625 22.1875 11.75 
Q 26.265625 6.109375 33.40625 6.109375 
Q 40.53125 6.109375 44.609375 11.75 
Q 48.6875 17.390625 48.6875 27.296875 
z
" id="DejaVuSans-112"/>
     </defs>
     <g transform="translate(17.619531 298.435375)rotate(-90)scale(0.17 -0.17)">
      <use xlink:href="#DejaVuSans-70"/>
      <use x="57.410156" xlink:href="#DejaVuSans-114"/>
      <use x="98.523438" xlink:href="#DejaVuSans-97"/>
      <use x="159.802734" xlink:href="#DejaVuSans-99"/>
      <use x="214.783203" xlink:href="#DejaVuSans-116"/>
      <use x="253.992188" xlink:href="#DejaVuSans-105"/>
      <use x="281.775391" xlink:href="#DejaVuSans-111"/>
      <use x="342.957031" xlink:href="#DejaVuSans-110"/>
      <use x="406.335938" xlink:href="#DejaVuSans-32"/>
      <use x="438.123047" xlink:href="#DejaVuSans-111"/>
      <use x="499.304688" xlink:href="#DejaVuSans-102"/>
      <use x="534.509766" xlink:href="#DejaVuSans-32"/>
      <use x="566.296875" xlink:href="#DejaVuSans-102"/>
      <use x="601.501953" xlink:href="#DejaVuSans-117"/>
      <use x="664.880859" xlink:href="#DejaVuSans-110"/>
      <use x="728.259766" xlink:href="#DejaVuSans-99"/>
      <use x="783.240234" xlink:href="#DejaVuSans-116"/>
      <use x="822.449219" xlink:href="#DejaVuSans-105"/>
      <use x="850.232422" xlink:href="#DejaVuSans-111"/>
      <use x="911.414062" xlink:href="#DejaVuSans-110"/>
      <use x="974.792969" xlink:href="#DejaVuSans-44"/>
      <use x="1006.580078" xlink:href="#DejaVuSans-116"/>
      <use x="1045.789062" xlink:href="#DejaVuSans-97"/>
      <use x="1107.068359" xlink:href="#DejaVuSans-114"/>
      <use x="1148.166016" xlink:href="#DejaVuSans-103"/>
      <use x="1211.642578" xlink:href="#DejaVuSans-101"/>
      <use x="1273.166016" xlink:href="#DejaVuSans-116"/>
      <use x="1312.375" xlink:href="#DejaVuSans-32"/>
      <use x="1344.162109" xlink:href="#DejaVuSans-112"/>
      <use x="1407.638672" xlink:href="#DejaVuSans-97"/>
      <use x="1468.917969" xlink:href="#DejaVuSans-105"/>
      <use x="1496.701172" xlink:href="#DejaVuSans-114"/>
      <use x="1537.814453" xlink:href="#DejaVuSans-115"/>
     </g>
    </g>
   </g>
   <g id="line2d_33">
    <defs>
     <path d="M 0 1.5 
C 0.397805 1.5 0.77937 1.341951 1.06066 1.06066 
C 1.341951 0.77937 1.5 0.397805 1.5 0 
C 1.5 -0.397805 1.341951 -0.77937 1.06066 -1.06066 
C 0.77937 -1.341951 0.397805 -1.5 0 -1.5 
C -0.397805 -1.5 -0.77937 -1.341951 -1.06066 -1.06066 
C -1.341951 -0.77937 -1.5 -0.397805 -1.5 0 
C -1.5 0.397805 -1.341951 0.77937 -1.06066 1.06066 
C -0.77937 1.341951 -0.397805 1.5 0 1.5 
z
" id="m66f2716ff8" style="stroke:#f5deb3;"/>
    </defs>
    <g>
     <use style="fill:#f5deb3;stroke:#f5deb3;" x="173.806924" xlink:href="#m66f2716ff8" y="30.334099"/>
     <use style="fill:#f5deb3;stroke:#f5deb3;" x="173.806924" xlink:href="#m66f2716ff8" y="30.334099"/>
    </g>
   </g>
   <g id="line2d_34">
    <defs>
     <path d="M 0 1.5 
C 0.397805 1.5 0.77937 1.341951 1.06066 1.06066 
C 1.341951 0.77937 1.5 0.397805 1.5 0 
C 1.5 -0.397805 1.341951 -0.77937 1.06066 -1.06066 
C 0.77937 -1.341951 0.397805 -1.5 0 -1.5 
C -0.397805 -1.5 -0.77937 -1.341951 -1.06066 -1.06066 
C -1.341951 -0.77937 -1.5 -0.397805 -1.5 0 
C -1.5 0.397805 -1.341951 0.77937 -1.06066 1.06066 
C -0.77937 1.341951 -0.397805 1.5 0 1.5 
z
" id="mb5f37156b5" style="stroke:#000080;"/>
    </defs>
    <g>
     <use style="fill:#000080;stroke:#000080;" x="161.783382" xlink:href="#mb5f37156b5" y="30.334099"/>
     <use style="fill:#000080;stroke:#000080;" x="161.783382" xlink:href="#mb5f37156b5" y="30.334099"/>
    </g>
   </g>
   <g id="line2d_35">
    <path d="M 145.338615 298.944 
L 145.338615 298.417314 
L 146.06373 298.417314 
L 146.08557 297.363942 
L 146.670421 297.363942 
L 146.78088 296.31057 
L 147.322917 296.31057 
L 147.322917 295.783884 
L 147.6552 295.783884 
L 147.70997 294.730511 
L 147.87818 294.730511 
L 147.87818 294.203825 
L 148.020382 294.203825 
L 148.020382 293.677139 
L 148.282122 293.677139 
L 148.282122 293.150453 
L 148.435393 293.150453 
L 148.435393 292.623767 
L 148.676918 292.623767 
L 148.676918 292.097081 
L 148.850072 292.097081 
L 148.94759 290.517023 
L 149.026135 290.517023 
L 149.131841 288.936964 
L 149.159312 288.936964 
L 149.195872 287.883592 
L 149.422654 287.883592 
L 149.490118 286.83022 
L 149.534949 286.83022 
L 149.610898 285.250162 
L 149.659866 285.250162 
L 149.668755 284.19679 
L 149.85877 284.19679 
L 149.85877 283.670104 
L 150.059777 283.670104 
L 150.090162 282.616732 
L 150.176688 282.616732 
L 150.176688 282.090045 
L 150.288534 282.090045 
L 150.352736 279.456615 
L 150.412445 279.456615 
L 150.522794 277.876557 
L 150.602994 277.876557 
L 150.707961 276.296499 
L 150.741418 276.296499 
L 150.849711 274.189754 
L 150.87046 274.189754 
L 150.973835 272.609696 
L 151.027348 272.609696 
L 151.027348 272.08301 
L 151.174689 272.08301 
L 151.284383 270.502952 
L 151.328876 270.502952 
L 151.401439 267.869521 
L 151.449647 267.869521 
L 151.537684 265.762777 
L 151.585518 265.762777 
L 151.692666 264.182719 
L 151.728236 264.182719 
L 151.834513 262.075974 
L 151.924538 262.075974 
L 151.967429 260.495916 
L 152.09934 260.495916 
L 152.188011 258.389172 
L 152.257093 258.389172 
L 152.367819 255.229055 
L 152.39064 255.229055 
L 152.477846 254.175683 
L 152.526944 254.175683 
L 152.624728 252.068939 
L 152.714506 252.068939 
L 152.807535 251.015567 
L 152.829789 251.015567 
L 152.922207 249.962195 
L 152.966394 249.962195 
L 153.069065 246.802078 
L 153.232815 246.802078 
L 153.31592 244.695334 
L 153.366312 244.695334 
L 153.473807 243.115275 
L 153.523746 243.115275 
L 153.555774 241.535217 
L 153.637357 241.535217 
L 153.732645 238.375101 
L 153.767805 238.375101 
L 153.876352 236.268356 
L 153.879842 236.268356 
L 153.987696 234.161612 
L 154.008494 234.161612 
L 154.077643 231.528182 
L 154.125885 231.528182 
L 154.221969 228.368065 
L 154.245908 228.368065 
L 154.351528 224.154577 
L 154.358321 224.154577 
L 154.446381 222.574518 
L 154.550798 222.574518 
L 154.611142 220.467774 
L 154.677946 220.467774 
L 154.787617 218.36103 
L 154.847148 218.36103 
L 154.9492 214.674227 
L 154.975439 214.674227 
L 155.04413 213.094169 
L 155.145039 213.094169 
L 155.206599 210.460738 
L 155.28405 210.460738 
L 155.354745 208.88068 
L 155.399584 208.88068 
L 155.504823 205.193878 
L 155.53024 205.193878 
L 155.634696 203.087133 
L 155.644161 203.087133 
L 155.751073 199.400331 
L 155.788651 199.400331 
L 155.885354 197.293586 
L 155.959855 197.293586 
L 156.040206 193.606784 
L 156.083319 193.606784 
L 156.160043 190.973354 
L 156.196751 190.973354 
L 156.294262 186.233179 
L 156.357959 186.233179 
L 156.445541 182.01969 
L 156.484659 182.01969 
L 156.583568 177.806202 
L 156.604476 177.806202 
L 156.687861 175.172771 
L 156.744217 175.172771 
L 156.838723 169.90591 
L 156.856386 169.90591 
L 156.964915 164.63905 
L 156.988292 164.63905 
L 157.008721 163.585677 
L 157.11051 163.585677 
L 157.185742 161.478933 
L 157.275019 161.478933 
L 157.343824 157.79213 
L 157.38669 157.79213 
L 157.497651 154.105328 
L 157.503322 154.105328 
L 157.610728 151.998584 
L 157.624812 151.998584 
L 157.725877 147.258409 
L 157.756641 147.258409 
L 157.823576 143.571606 
L 157.901343 143.571606 
L 158.009087 138.304745 
L 158.031107 138.304745 
L 158.140788 134.091257 
L 158.151718 134.091257 
L 158.249784 130.93114 
L 158.276927 130.93114 
L 158.3662 128.29771 
L 158.398549 128.29771 
L 158.497919 124.084221 
L 158.511304 124.084221 
L 158.618015 121.450791 
L 158.623334 121.450791 
L 158.716146 117.763988 
L 158.745213 117.763988 
L 158.847883 113.5505 
L 158.861002 113.5505 
L 158.965601 108.810325 
L 158.999461 108.810325 
L 159.108409 105.123522 
L 159.118749 105.123522 
L 159.214109 101.43672 
L 159.239793 101.43672 
L 159.342152 95.116487 
L 159.360003 95.116487 
L 159.459126 89.849626 
L 159.474326 89.849626 
L 159.550127 86.68951 
L 159.640655 86.68951 
L 159.750667 82.476021 
L 159.755651 82.476021 
L 159.845122 78.262532 
L 159.869893 78.262532 
L 159.973552 74.57573 
L 159.993227 74.57573 
L 160.088825 70.362241 
L 160.118135 70.362241 
L 160.203341 66.675439 
L 160.230035 66.675439 
L 160.326759 63.515322 
L 160.37492 63.515322 
L 160.4828 57.195089 
L 160.497133 57.195089 
L 160.580512 52.454914 
L 160.611381 52.454914 
L 160.720169 47.71474 
L 160.727241 47.71474 
L 160.830627 44.027937 
L 160.861056 44.027937 
L 160.947372 41.394507 
L 160.972951 41.394507 
L 161.079514 36.654332 
L 161.093366 36.654332 
L 161.093366 36.127646 
L 161.217539 36.127646 
L 161.274728 34.547588 
L 161.338558 34.547588 
L 161.420284 32.440843 
L 161.625176 32.440843 
L 161.689969 31.387471 
L 161.763407 31.387471 
L 161.783382 30.334099 
L 338.688 30.334099 
L 338.688 30.334099 
" style="fill:none;stroke:#000080;stroke-linecap:square;stroke-width:1.5;"/>
   </g>
   <g id="line2d_36">
    <defs>
     <path d="M 0 6 
C 1.591219 6 3.117479 5.367802 4.242641 4.242641 
C 5.367802 3.117479 6 1.591219 6 0 
C 6 -1.591219 5.367802 -3.117479 4.242641 -4.242641 
C 3.117479 -5.367802 1.591219 -6 0 -6 
C -1.591219 -6 -3.117479 -5.367802 -4.242641 -4.242641 
C -5.367802 -3.117479 -6 -1.591219 -6 0 
C -6 1.591219 -5.367802 3.117479 -4.242641 4.242641 
C -3.117479 5.367802 -1.591219 6 0 6 
z
" id="m74d393c05a" style="stroke:#000080;stroke-width:1.5;"/>
    </defs>
    <g>
     <use style="fill-opacity:0;stroke:#000080;stroke-width:1.5;" x="160.4828" xlink:href="#m74d393c05a" y="57.721775"/>
     <use style="fill-opacity:0;stroke:#000080;stroke-width:1.5;" x="161.783382" xlink:href="#m74d393c05a" y="30.860785"/>
     <use style="fill-opacity:0;stroke:#000080;stroke-width:1.5;" x="161.783382" xlink:href="#m74d393c05a" y="30.334099"/>
     <use style="fill-opacity:0;stroke:#000080;stroke-width:1.5;" x="161.783382" xlink:href="#m74d393c05a" y="30.334099"/>
     <use style="fill-opacity:0;stroke:#000080;stroke-width:1.5;" x="338.688" xlink:href="#m74d393c05a" y="30.334099"/>
    </g>
   </g>
   <g id="line2d_37">
    <path style="fill:none;stroke:#000080;stroke-linecap:square;stroke-width:1.5;"/>
    <g/>
   </g>
   <g id="line2d_38">
    <g>
     <use style="fill:#000080;stroke:#000080;" x="162.23228" xlink:href="#mb5f37156b5" y="30.334099"/>
     <use style="fill:#000080;stroke:#000080;" x="162.23228" xlink:href="#mb5f37156b5" y="30.334099"/>
    </g>
   </g>
   <g id="line2d_39">
    <path d="M 145.699363 298.944 
L 145.699363 298.417314 
L 146.393855 298.417314 
L 146.484754 297.363942 
L 147.056585 297.363942 
L 147.13383 296.31057 
L 147.297484 296.31057 
L 147.297484 295.783884 
L 147.71494 295.783884 
L 147.71494 295.257197 
L 147.888024 295.257197 
L 147.888024 294.730511 
L 148.161434 294.730511 
L 148.204978 293.677139 
L 148.334961 293.677139 
L 148.334961 293.150453 
L 148.525764 293.150453 
L 148.549469 292.097081 
L 148.733265 292.097081 
L 148.733265 291.570395 
L 148.961476 291.570395 
L 148.961476 291.043709 
L 149.377533 291.043709 
L 149.467659 288.936964 
L 149.525992 288.936964 
L 149.525992 288.410278 
L 149.730848 288.410278 
L 149.836782 287.356906 
L 149.880731 287.356906 
L 149.880731 286.83022 
L 150.042389 286.83022 
L 150.046738 285.776848 
L 150.237002 285.776848 
L 150.335638 284.19679 
L 150.357008 284.19679 
L 150.450722 282.090045 
L 150.527024 282.090045 
L 150.531253 281.036673 
L 150.661853 281.036673 
L 150.73306 279.983301 
L 150.899466 279.983301 
L 150.93669 278.403243 
L 151.0109 278.403243 
L 151.109358 277.349871 
L 151.247895 277.349871 
L 151.247895 276.823185 
L 151.38534 276.823185 
L 151.453659 274.71644 
L 151.505722 274.71644 
L 151.609385 272.08301 
L 151.676833 272.08301 
L 151.755852 270.502952 
L 151.791293 270.502952 
L 151.889366 268.922893 
L 151.986891 268.922893 
L 152.083873 267.869521 
L 152.130233 267.869521 
L 152.234096 264.709405 
L 152.249431 264.709405 
L 152.299175 263.656033 
L 152.364012 263.656033 
L 152.455139 261.549288 
L 152.560855 261.549288 
L 152.669675 258.389172 
L 152.684631 258.389172 
L 152.748054 256.282427 
L 152.814956 256.282427 
L 152.896379 254.702369 
L 153.021472 254.702369 
L 153.069065 253.122311 
L 153.138392 253.122311 
L 153.243677 248.908822 
L 153.276224 248.908822 
L 153.384274 246.802078 
L 153.441628 246.802078 
L 153.48809 245.748706 
L 153.56999 245.748706 
L 153.665645 242.588589 
L 153.746717 242.588589 
L 153.823913 239.955159 
L 153.893796 239.955159 
L 153.980758 237.321729 
L 154.029268 237.321729 
L 154.122443 233.634926 
L 154.215123 233.634926 
L 154.293687 231.528182 
L 154.341335 231.528182 
L 154.426099 228.894751 
L 154.510453 228.894751 
L 154.59105 226.261321 
L 154.634552 226.261321 
L 154.697938 224.154577 
L 154.761093 224.154577 
L 154.850449 220.99446 
L 154.886723 220.99446 
L 154.985269 218.36103 
L 155.0278 218.36103 
L 155.132051 215.727599 
L 155.174226 215.727599 
L 155.245367 213.620855 
L 155.345122 213.620855 
L 155.415571 209.934052 
L 155.511181 209.934052 
L 155.61575 205.720564 
L 155.644161 205.720564 
L 155.754208 202.560447 
L 155.782394 202.560447 
L 155.87602 200.453703 
L 155.910223 200.453703 
L 155.981524 198.346959 
L 156.034038 198.346959 
L 156.138594 194.660156 
L 156.153918 194.660156 
L 156.263849 189.393295 
L 156.32159 189.393295 
L 156.427457 185.706493 
L 156.472632 185.706493 
L 156.562634 182.546376 
L 156.592532 182.546376 
L 156.619396 181.493004 
L 156.705677 181.493004 
L 156.779717 178.332888 
L 156.876971 178.332888 
L 156.98245 175.172771 
L 157.017469 175.172771 
L 157.119207 172.012655 
L 157.148166 172.012655 
L 157.2549 168.325852 
L 157.289376 168.325852 
L 157.380981 164.63905 
L 157.400956 164.63905 
L 157.511826 162.005619 
L 157.537312 162.005619 
L 157.633256 158.318817 
L 157.683837 158.318817 
L 157.787352 154.105328 
L 157.80408 154.105328 
L 157.906885 149.891839 
L 157.917963 149.891839 
L 158.014595 146.205037 
L 158.036607 146.205037 
L 158.132586 143.571606 
L 158.162642 143.571606 
L 158.236197 137.778059 
L 158.287772 137.778059 
L 158.398549 133.564571 
L 158.409319 133.564571 
L 158.51398 129.351082 
L 158.522004 129.351082 
L 158.578075 126.717652 
L 158.660518 126.717652 
L 158.753132 121.977477 
L 158.776868 121.977477 
L 158.868869 117.763988 
L 158.915995 117.763988 
L 159.020266 113.5505 
L 159.028061 113.5505 
L 159.11358 110.390383 
L 159.157472 110.390383 
L 159.242359 106.176895 
L 159.293606 106.176895 
L 159.40328 99.856662 
L 159.421068 99.856662 
L 159.497101 95.643173 
L 159.542562 95.643173 
L 159.643163 93.536429 
L 159.658204 93.536429 
L 159.760634 89.849626 
L 159.797958 89.849626 
L 159.897102 85.636137 
L 159.914394 85.636137 
L 159.990769 82.476021 
L 160.030058 82.476021 
L 160.130333 75.629102 
L 160.144959 75.629102 
L 160.22761 71.942299 
L 160.295382 71.942299 
L 160.391745 67.202125 
L 160.422949 67.202125 
L 160.523381 63.515322 
L 160.537682 63.515322 
L 160.627979 58.775147 
L 160.651664 58.775147 
L 160.741375 53.508287 
L 160.769609 53.508287 
L 160.839995 49.821484 
L 160.886762 49.821484 
L 160.972951 47.188054 
L 161.005452 47.188054 
L 161.074895 44.027937 
L 161.118732 44.027937 
L 161.203785 40.341135 
L 161.23586 40.341135 
L 161.338558 37.181018 
L 161.388547 37.181018 
L 161.488097 34.547588 
L 161.5534 34.547588 
L 161.660953 32.967529 
L 161.683277 32.967529 
L 161.716709 31.387471 
L 162.049736 31.387471 
L 162.049736 30.860785 
L 162.23228 30.860785 
L 162.23228 30.334099 
L 338.688 30.334099 
L 338.688 30.334099 
" style="fill:none;stroke:#000080;stroke-linecap:square;stroke-width:1.5;"/>
   </g>
   <g id="line2d_40">
    <g>
     <use style="fill-opacity:0;stroke:#000080;stroke-width:1.5;" x="160.049669" xlink:href="#m74d393c05a" y="80.895963"/>
     <use style="fill-opacity:0;stroke:#000080;stroke-width:1.5;" x="162.23228" xlink:href="#m74d393c05a" y="30.860785"/>
     <use style="fill-opacity:0;stroke:#000080;stroke-width:1.5;" x="162.23228" xlink:href="#m74d393c05a" y="30.334099"/>
     <use style="fill-opacity:0;stroke:#000080;stroke-width:1.5;" x="162.23228" xlink:href="#m74d393c05a" y="30.334099"/>
     <use style="fill-opacity:0;stroke:#000080;stroke-width:1.5;" x="338.688" xlink:href="#m74d393c05a" y="30.334099"/>
    </g>
   </g>
   <g id="line2d_41">
    <path style="fill:none;stroke:#000080;stroke-linecap:square;stroke-width:1.5;"/>
    <g/>
   </g>
   <g id="line2d_42">
    <defs>
     <path d="M 0 1.5 
C 0.397805 1.5 0.77937 1.341951 1.06066 1.06066 
C 1.341951 0.77937 1.5 0.397805 1.5 0 
C 1.5 -0.397805 1.341951 -0.77937 1.06066 -1.06066 
C 0.77937 -1.341951 0.397805 -1.5 0 -1.5 
C -0.397805 -1.5 -0.77937 -1.341951 -1.06066 -1.06066 
C -1.341951 -0.77937 -1.5 -0.397805 -1.5 0 
C -1.5 0.397805 -1.341951 0.77937 -1.06066 1.06066 
C -0.77937 1.341951 -0.397805 1.5 0 1.5 
z
" id="m9d3525fc10" style="stroke:#ff00ff;"/>
    </defs>
    <g>
     <use style="fill:#ff00ff;stroke:#ff00ff;" x="166.574863" xlink:href="#m9d3525fc10" y="30.334099"/>
     <use style="fill:#ff00ff;stroke:#ff00ff;" x="166.574863" xlink:href="#m9d3525fc10" y="30.334099"/>
    </g>
   </g>
   <g id="line2d_43">
    <path d="M 146.210622 298.944 
L 146.210622 298.417314 
L 148.296548 298.417314 
L 148.296548 297.890628 
L 148.887286 297.890628 
L 148.887286 297.363942 
L 149.708697 297.363942 
L 149.708697 296.837256 
L 149.950822 296.837256 
L 149.950822 296.31057 
L 150.305678 296.31057 
L 150.305678 295.783884 
L 150.493153 295.783884 
L 150.539708 294.730511 
L 150.67444 294.730511 
L 150.67444 294.203825 
L 150.845558 294.203825 
L 150.845558 293.677139 
L 151.121626 293.677139 
L 151.121626 293.150453 
L 151.31271 293.150453 
L 151.31271 292.623767 
L 151.617334 292.623767 
L 151.692666 290.517023 
L 151.747966 290.517023 
L 151.747966 289.990337 
L 151.971323 289.990337 
L 152.041267 288.936964 
L 152.176471 288.936964 
L 152.28006 287.883592 
L 152.386839 287.883592 
L 152.455139 286.83022 
L 152.560855 286.83022 
L 152.658449 285.776848 
L 152.803824 285.776848 
L 152.881603 284.723476 
L 153.021472 284.723476 
L 153.069065 283.143418 
L 153.171135 283.143418 
L 153.236437 282.090045 
L 153.287059 282.090045 
L 153.369906 280.509987 
L 153.473807 280.509987 
L 153.48095 279.456615 
L 153.59484 279.456615 
L 153.644434 277.876557 
L 153.760778 277.876557 
L 153.827414 276.823185 
L 153.994632 276.823185 
L 154.105226 275.243126 
L 154.136205 275.243126 
L 154.143081 274.189754 
L 154.303908 274.189754 
L 154.37529 272.609696 
L 154.507086 272.609696 
L 154.587699 270.502952 
L 154.674612 270.502952 
L 154.757775 269.449579 
L 154.824021 269.449579 
L 154.873541 268.396207 
L 154.936065 268.396207 
L 155.014724 265.762777 
L 155.063706 265.762777 
L 155.125554 264.182719 
L 155.267942 264.182719 
L 155.335493 263.129347 
L 155.380382 263.129347 
L 155.437927 261.022602 
L 155.520713 261.022602 
L 155.612591 258.389172 
L 155.685117 258.389172 
L 155.779264 256.809114 
L 155.913329 256.809114 
L 156.021696 255.229055 
L 156.027868 255.229055 
L 156.110979 252.595625 
L 156.14779 252.595625 
L 156.236431 249.962195 
L 156.312485 249.962195 
L 156.312485 249.435508 
L 156.442528 249.435508 
L 156.529687 246.802078 
L 156.661102 246.802078 
L 156.693802 245.22202 
L 156.773805 245.22202 
L 156.879909 243.115275 
L 156.888722 243.115275 
L 156.964915 240.481845 
L 157.040776 240.481845 
L 157.096005 238.901787 
L 157.179966 238.901787 
L 157.263525 235.74167 
L 157.315188 235.74167 
L 157.363842 234.161612 
L 157.446526 234.161612 
L 157.446526 233.634926 
L 157.56841 233.634926 
L 157.644509 231.001496 
L 157.681031 231.001496 
L 157.784562 229.421437 
L 157.792929 229.421437 
L 157.890255 227.841379 
L 157.976006 227.841379 
L 158.047603 225.734635 
L 158.127115 225.734635 
L 158.233478 221.521146 
L 158.298611 221.521146 
L 158.352703 218.887716 
L 158.457702 218.887716 
L 158.554067 216.780971 
L 158.578075 216.780971 
L 158.68438 214.674227 
L 158.73729 214.674227 
L 158.826871 212.040797 
L 158.861002 212.040797 
L 158.968208 209.934052 
L 159.004665 209.934052 
L 159.095474 207.300622 
L 159.139412 207.300622 
L 159.206397 205.720564 
L 159.268002 205.720564 
L 159.362551 203.087133 
L 159.390562 203.087133 
L 159.441376 200.453703 
L 159.51732 200.453703 
L 159.597964 198.346959 
L 159.653192 198.346959 
L 159.740695 192.553412 
L 159.765615 192.553412 
L 159.842643 190.446667 
L 159.902044 190.446667 
L 159.966168 187.286551 
L 160.088825 187.286551 
L 160.191194 185.179807 
L 160.208198 185.179807 
L 160.31711 180.966318 
L 160.37011 180.966318 
L 160.46367 177.806202 
L 160.4828 177.806202 
L 160.582889 174.646085 
L 160.594766 174.646085 
L 160.694216 171.485969 
L 160.807184 171.485969 
L 160.882091 168.325852 
L 160.954352 168.325852 
L 161.035578 166.219108 
L 161.084133 166.219108 
L 161.19461 161.478933 
L 161.210663 161.478933 
L 161.279295 158.318817 
L 161.338558 158.318817 
L 161.408956 154.632014 
L 161.488097 154.632014 
L 161.598295 148.838467 
L 161.605019 148.838467 
L 161.681046 147.258409 
L 161.743409 147.258409 
L 161.82105 145.151665 
L 161.88953 145.151665 
L 161.992845 140.938176 
L 162.027877 140.938176 
L 162.11515 139.884804 
L 162.175982 139.884804 
L 162.273306 136.198001 
L 162.342185 136.198001 
L 162.436452 132.511199 
L 162.483394 132.511199 
L 162.53871 130.404454 
L 162.606551 130.404454 
L 162.716232 126.717652 
L 162.720437 126.717652 
L 162.821048 122.504163 
L 162.875305 122.504163 
L 162.950152 118.290674 
L 162.987455 118.290674 
L 163.094774 114.077186 
L 163.13177 114.077186 
L 163.225959 109.337011 
L 163.252485 109.337011 
L 163.360217 106.703581 
L 163.380469 106.703581 
L 163.435034 103.543464 
L 163.499482 103.543464 
L 163.607701 100.383348 
L 163.649606 100.383348 
L 163.758881 96.696545 
L 163.77274 96.696545 
L 163.859601 91.95637 
L 163.912688 91.95637 
L 164.004716 85.636137 
L 164.057365 85.636137 
L 164.154444 83.002707 
L 164.173795 83.002707 
L 164.266383 79.315904 
L 164.295217 79.315904 
L 164.354654 77.20916 
L 164.417705 77.20916 
L 164.510908 75.102416 
L 164.543127 75.102416 
L 164.611161 71.942299 
L 164.654488 71.942299 
L 164.759533 69.835555 
L 164.776357 69.835555 
L 164.876958 65.09538 
L 164.8881 65.09538 
L 164.967744 59.82852 
L 165.015725 59.82852 
L 165.116791 56.141717 
L 165.160709 56.141717 
L 165.270024 52.454914 
L 165.309935 52.454914 
L 165.398501 48.768112 
L 165.438119 48.768112 
L 165.538561 46.134681 
L 165.601045 46.134681 
L 165.707643 45.081309 
L 165.748333 45.081309 
L 165.810071 42.447879 
L 165.876855 42.447879 
L 165.978297 39.814448 
L 166.006178 39.814448 
L 166.072216 36.654332 
L 166.120716 36.654332 
L 166.203547 34.547588 
L 166.268843 34.547588 
L 166.364626 31.914157 
L 166.41062 31.914157 
L 166.478537 30.860785 
L 166.574863 30.860785 
L 166.574863 30.334099 
L 338.688 30.334099 
L 338.688 30.334099 
" style="fill:none;stroke:#ff00ff;stroke-linecap:square;stroke-width:1.5;"/>
   </g>
   <g id="line2d_44">
    <defs>
     <path d="M -0 8.485281 
L 5.091169 0 
L 0 -8.485281 
L -5.091169 -0 
z
" id="mecb5208ee5" style="stroke:#ff00ff;stroke-linejoin:miter;stroke-width:1.5;"/>
    </defs>
    <g>
     <use style="fill-opacity:0;stroke:#ff00ff;stroke-linejoin:miter;stroke-width:1.5;" x="161.915967" xlink:href="#mecb5208ee5" y="143.04492"/>
     <use style="fill-opacity:0;stroke:#ff00ff;stroke-linejoin:miter;stroke-width:1.5;" x="166.574863" xlink:href="#mecb5208ee5" y="30.860785"/>
     <use style="fill-opacity:0;stroke:#ff00ff;stroke-linejoin:miter;stroke-width:1.5;" x="166.574863" xlink:href="#mecb5208ee5" y="30.334099"/>
     <use style="fill-opacity:0;stroke:#ff00ff;stroke-linejoin:miter;stroke-width:1.5;" x="166.574863" xlink:href="#mecb5208ee5" y="30.334099"/>
     <use style="fill-opacity:0;stroke:#ff00ff;stroke-linejoin:miter;stroke-width:1.5;" x="338.688" xlink:href="#mecb5208ee5" y="30.334099"/>
    </g>
   </g>
   <g id="line2d_45">
    <path style="fill:none;stroke:#ff00ff;stroke-linecap:square;stroke-width:1.5;"/>
    <g/>
   </g>
   <g id="line2d_46">
    <defs>
     <path d="M 0 1.5 
C 0.397805 1.5 0.77937 1.341951 1.06066 1.06066 
C 1.341951 0.77937 1.5 0.397805 1.5 0 
C 1.5 -0.397805 1.341951 -0.77937 1.06066 -1.06066 
C 0.77937 -1.341951 0.397805 -1.5 0 -1.5 
C -0.397805 -1.5 -0.77937 -1.341951 -1.06066 -1.06066 
C -1.341951 -0.77937 -1.5 -0.397805 -1.5 0 
C -1.5 0.397805 -1.341951 0.77937 -1.06066 1.06066 
C -0.77937 1.341951 -0.397805 1.5 0 1.5 
z
" id="m17a34c40d9" style="stroke:#ff0000;"/>
    </defs>
    <g>
     <use style="fill:#ff0000;stroke:#ff0000;" x="164.173795" xlink:href="#m17a34c40d9" y="30.334099"/>
     <use style="fill:#ff0000;stroke:#ff0000;" x="164.173795" xlink:href="#m17a34c40d9" y="30.334099"/>
    </g>
   </g>
   <g id="line2d_47">
    <path d="M 145.954117 298.944 
L 145.954117 298.417314 
L 147.261816 298.417314 
L 147.261816 297.890628 
L 148.502028 297.890628 
L 148.61095 296.837256 
L 148.770728 296.837256 
L 148.831436 295.257197 
L 149.2278 295.257197 
L 149.282397 294.203825 
L 150.107502 294.203825 
L 150.18963 292.623767 
L 150.305678 292.623767 
L 150.391144 291.570395 
L 150.454969 291.570395 
L 150.552384 288.936964 
L 150.695399 288.936964 
L 150.795649 287.883592 
L 150.93669 287.883592 
L 151.031458 286.83022 
L 151.239776 286.83022 
L 151.349063 283.670104 
L 151.477707 283.670104 
L 151.505722 282.616732 
L 151.684751 282.616732 
L 151.795227 279.983301 
L 151.959639 279.983301 
L 152.00633 278.403243 
L 152.356397 278.403243 
L 152.447563 274.71644 
L 152.553325 274.71644 
L 152.553325 274.189754 
L 152.725696 274.189754 
L 152.814956 272.609696 
L 152.940632 272.609696 
L 153.03613 269.449579 
L 153.214697 269.449579 
L 153.301495 268.396207 
L 153.330332 268.396207 
L 153.405804 265.762777 
L 153.498795 265.762777 
L 153.584194 264.182719 
L 153.637357 264.182719 
L 153.67271 263.129347 
L 153.93907 263.129347 
L 153.987696 262.075974 
L 154.070741 262.075974 
L 154.153391 258.915858 
L 154.191142 258.915858 
L 154.262987 255.755741 
L 154.331136 255.755741 
L 154.422716 253.648997 
L 154.480132 253.648997 
L 154.56087 252.595625 
L 154.654594 252.595625 
L 154.71458 249.435508 
L 154.77436 249.435508 
L 154.840544 247.85545 
L 154.906477 247.85545 
L 154.985269 246.802078 
L 155.021263 246.802078 
L 155.09303 244.695334 
L 155.164502 244.695334 
L 155.238912 242.588589 
L 155.293707 242.588589 
L 155.389986 239.428473 
L 155.441118 239.428473 
L 155.482553 237.321729 
L 155.593621 237.321729 
L 155.663075 234.688298 
L 155.70713 234.688298 
L 155.794906 233.634926 
L 155.841748 233.634926 
L 155.922644 232.054868 
L 156.009346 232.054868 
L 156.110979 231.001496 
L 156.126326 231.001496 
L 156.236431 227.841379 
L 156.263849 227.841379 
L 156.336753 224.681263 
L 156.400295 224.681263 
L 156.499682 222.574518 
L 156.514691 222.574518 
L 156.610446 219.414402 
L 156.714579 219.414402 
L 156.823991 215.200913 
L 156.838723 215.200913 
L 156.947361 212.040797 
L 156.959066 212.040797 
L 157.066959 209.934052 
L 157.072772 209.934052 
L 157.168409 206.24725 
L 157.220355 206.24725 
L 157.326648 203.087133 
L 157.355266 203.087133 
L 157.463584 199.927017 
L 157.466426 199.927017 
L 157.531651 197.293586 
L 157.60791 197.293586 
L 157.717477 194.660156 
L 157.723077 194.660156 
L 157.820792 192.026726 
L 157.873609 192.026726 
L 157.951154 189.919981 
L 157.995311 189.919981 
L 158.064083 186.759865 
L 158.127115 186.759865 
L 158.233478 184.653121 
L 158.255216 184.653121 
L 158.3446 180.966318 
L 158.376989 180.966318 
L 158.449648 176.226143 
L 158.489883 176.226143 
L 158.575409 173.592713 
L 158.615355 173.592713 
L 158.716146 171.485969 
L 158.73729 171.485969 
L 158.845258 167.799166 
L 158.895065 167.799166 
L 158.999461 164.112363 
L 159.046236 164.112363 
L 159.141993 159.372189 
L 159.157472 159.372189 
L 159.265439 156.212072 
L 159.275687 156.212072 
L 159.360003 151.998584 
L 159.390562 151.998584 
L 159.476858 148.311781 
L 159.507213 148.311781 
L 159.585388 144.624978 
L 159.63062 144.624978 
L 159.720733 140.41149 
L 159.775573 140.41149 
L 159.837683 136.198001 
L 159.899573 136.198001 
L 159.976013 133.037885 
L 160.059466 133.037885 
L 160.166875 128.824396 
L 160.22761 128.824396 
L 160.280882 126.717652 
L 160.341221 126.717652 
L 160.425347 123.557535 
L 160.46367 123.557535 
L 160.566247 119.344047 
L 160.580512 119.344047 
L 160.689494 115.657244 
L 160.696577 115.657244 
L 160.804838 111.970441 
L 160.81422 111.970441 
L 160.917093 108.283639 
L 160.926415 108.283639 
L 161.02168 105.650209 
L 161.040208 105.650209 
L 161.150963 100.910034 
L 161.155563 100.910034 
L 161.263305 95.643173 
L 161.281578 95.643173 
L 161.359025 92.483056 
L 161.408956 92.483056 
L 161.512896 89.32294 
L 161.575862 89.32294 
L 161.658719 86.162824 
L 161.689969 86.162824 
L 161.796686 80.895963 
L 161.856428 80.895963 
L 161.948956 78.262532 
L 161.992845 78.262532 
L 162.095552 74.049044 
L 162.104265 74.049044 
L 162.208484 68.255497 
L 162.225793 68.255497 
L 162.33359 65.622066 
L 162.372234 65.622066 
L 162.470604 60.355206 
L 162.540834 60.355206 
L 162.644595 56.141717 
L 162.676236 56.141717 
L 162.772911 52.9816 
L 162.79595 52.9816 
L 162.90653 48.768112 
L 162.977101 48.768112 
L 163.051513 44.554623 
L 163.096831 44.554623 
L 163.142032 42.447879 
L 163.250446 42.447879 
L 163.350082 40.341135 
L 163.36427 40.341135 
L 163.453184 36.654332 
L 163.531617 36.654332 
L 163.603705 34.547588 
L 163.643626 34.547588 
L 163.713267 32.967529 
L 163.833982 32.967529 
L 163.867476 31.387471 
L 163.959742 31.387471 
L 163.959742 30.860785 
L 164.173795 30.860785 
L 164.173795 30.334099 
L 338.688 30.334099 
L 338.688 30.334099 
" style="fill:none;stroke:#ff0000;stroke-linecap:square;stroke-width:1.5;"/>
   </g>
   <g id="line2d_48">
    <defs>
     <path d="M 0 -6 
L -5.196152 -3 
L -5.196152 3 
L -0 6 
L 5.196152 3 
L 5.196152 -3 
z
" id="m7bf718b6d6" style="stroke:#ff0000;stroke-linejoin:miter;stroke-width:1.5;"/>
    </defs>
    <g>
     <use style="fill-opacity:0;stroke:#ff0000;stroke-linejoin:miter;stroke-width:1.5;" x="159.265439" xlink:href="#m7bf718b6d6" y="156.738758"/>
     <use style="fill-opacity:0;stroke:#ff0000;stroke-linejoin:miter;stroke-width:1.5;" x="164.173795" xlink:href="#m7bf718b6d6" y="30.860785"/>
     <use style="fill-opacity:0;stroke:#ff0000;stroke-linejoin:miter;stroke-width:1.5;" x="164.173795" xlink:href="#m7bf718b6d6" y="30.334099"/>
     <use style="fill-opacity:0;stroke:#ff0000;stroke-linejoin:miter;stroke-width:1.5;" x="164.173795" xlink:href="#m7bf718b6d6" y="30.334099"/>
     <use style="fill-opacity:0;stroke:#ff0000;stroke-linejoin:miter;stroke-width:1.5;" x="338.688" xlink:href="#m7bf718b6d6" y="30.334099"/>
    </g>
   </g>
   <g id="line2d_49">
    <path style="fill:none;stroke:#ff0000;stroke-linecap:square;stroke-width:1.5;"/>
    <g/>
   </g>
   <g id="line2d_50">
    <defs>
     <path d="M 0 1.5 
C 0.397805 1.5 0.77937 1.341951 1.06066 1.06066 
C 1.341951 0.77937 1.5 0.397805 1.5 0 
C 1.5 -0.397805 1.341951 -0.77937 1.06066 -1.06066 
C 0.77937 -1.341951 0.397805 -1.5 0 -1.5 
C -0.397805 -1.5 -0.77937 -1.341951 -1.06066 -1.06066 
C -1.341951 -0.77937 -1.5 -0.397805 -1.5 0 
C -1.5 0.397805 -1.341951 0.77937 -1.06066 1.06066 
C -0.77937 1.341951 -0.397805 1.5 0 1.5 
z
" id="m584a6ecf8b" style="stroke:#ff7500;"/>
    </defs>
    <g>
     <use style="fill:#ff7500;stroke:#ff7500;" x="162.612897" xlink:href="#m584a6ecf8b" y="30.334099"/>
     <use style="fill:#ff7500;stroke:#ff7500;" x="162.612897" xlink:href="#m584a6ecf8b" y="30.334099"/>
    </g>
   </g>
   <g id="line2d_51">
    <path d="M 146.161795 298.944 
L 146.161795 298.417314 
L 147.010073 298.417314 
L 147.10812 297.363942 
L 147.13383 297.363942 
L 147.13383 296.837256 
L 147.393932 296.837256 
L 147.393932 296.31057 
L 147.90278 296.31057 
L 147.90278 295.783884 
L 148.267683 295.783884 
L 148.286932 294.730511 
L 148.672214 294.730511 
L 148.691022 293.677139 
L 148.887286 293.677139 
L 148.956849 292.623767 
L 149.209563 292.623767 
L 149.29602 291.043709 
L 149.485628 291.043709 
L 149.543901 289.990337 
L 149.597519 289.990337 
L 149.597519 289.463651 
L 149.708697 289.463651 
L 149.788308 286.83022 
L 149.963932 286.83022 
L 149.9683 285.776848 
L 150.124824 285.776848 
L 150.198253 284.19679 
L 150.391144 284.19679 
L 150.391144 283.670104 
L 150.527024 283.670104 
L 150.527024 283.143418 
L 150.649257 283.143418 
L 150.749772 281.036673 
L 150.82478 281.036673 
L 150.932558 279.456615 
L 151.015013 279.456615 
L 151.019126 278.403243 
L 151.178764 278.403243 
L 151.264121 276.296499 
L 151.345027 276.296499 
L 151.449647 274.189754 
L 151.573572 274.189754 
L 151.668912 272.08301 
L 151.724287 272.08301 
L 151.814881 269.976266 
L 151.84236 269.976266 
L 151.901098 268.396207 
L 152.021866 268.396207 
L 152.037389 266.816149 
L 152.137948 266.816149 
L 152.234096 264.709405 
L 152.276234 264.709405 
L 152.371625 262.60266 
L 152.526944 262.60266 
L 152.526944 262.075974 
L 152.650961 262.075974 
L 152.744329 261.022602 
L 152.77782 261.022602 
L 152.881603 257.862486 
L 152.896379 257.862486 
L 152.999462 255.755741 
L 153.028802 255.755741 
L 153.076375 254.702369 
L 153.192929 254.702369 
L 153.192929 254.175683 
L 153.362717 254.175683 
L 153.441628 251.542253 
L 153.527308 251.542253 
L 153.616112 248.908822 
L 153.644434 248.908822 
L 153.729125 247.85545 
L 153.757264 247.85545 
L 153.834414 246.275392 
L 153.879842 246.275392 
L 153.890309 244.695334 
L 154.025807 244.695334 
L 154.112115 242.061903 
L 154.139643 242.061903 
L 154.249325 238.375101 
L 154.283459 238.375101 
L 154.293687 237.321729 
L 154.399019 237.321729 
L 154.507086 234.161612 
L 154.580996 234.161612 
L 154.674612 230.47481 
L 154.694607 230.47481 
L 154.78099 228.894751 
L 154.886723 228.894751 
L 154.995093 226.788007 
L 155.014724 226.788007 
L 155.099539 223.627891 
L 155.16126 223.627891 
L 155.258271 222.047832 
L 155.274387 222.047832 
L 155.341913 219.941088 
L 155.396385 219.941088 
L 155.488919 217.834344 
L 155.508002 217.834344 
L 155.596784 214.674227 
L 155.622068 214.674227 
L 155.685117 213.094169 
L 155.754208 213.094169 
L 155.863565 210.460738 
L 155.879132 210.460738 
L 155.938158 208.353994 
L 156.067934 208.353994 
L 156.156981 205.720564 
L 156.187581 205.720564 
L 156.291223 202.560447 
L 156.336753 202.560447 
L 156.442528 197.293586 
L 156.493674 197.293586 
L 156.592532 194.13347 
L 156.619396 194.13347 
L 156.640261 192.553412 
L 156.732368 192.553412 
L 156.812195 189.919981 
L 156.871092 189.919981 
L 156.976607 186.759865 
L 157.002887 186.759865 
L 157.084392 181.493004 
L 157.136588 181.493004 
L 157.237636 178.859574 
L 157.26065 178.859574 
L 157.358125 174.119399 
L 157.38669 174.119399 
L 157.497651 170.432596 
L 157.503322 170.432596 
L 157.605092 167.799166 
L 157.675417 167.799166 
L 157.773399 164.112363 
L 157.787352 164.112363 
L 157.887482 162.005619 
L 157.901343 162.005619 
L 158.009087 159.372189 
L 158.050351 159.372189 
L 158.12438 155.685386 
L 158.211713 155.685386 
L 158.320268 150.418525 
L 158.322973 150.418525 
L 158.428151 146.731723 
L 158.441589 146.731723 
L 158.524678 143.04492 
L 158.58607 143.04492 
L 158.631308 139.884804 
L 158.697623 139.884804 
L 158.800572 134.617943 
L 158.811096 134.617943 
L 158.895065 131.457826 
L 158.957778 131.457826 
L 159.059207 127.244338 
L 159.07735 127.244338 
L 159.147154 124.084221 
L 159.224387 124.084221 
L 159.324282 118.817361 
L 159.352355 118.817361 
L 159.443913 116.18393 
L 159.474326 116.18393 
L 159.560209 111.443755 
L 159.613044 111.443755 
L 159.715739 107.756953 
L 159.725725 107.756953 
L 159.832723 104.07015 
L 159.88474 104.07015 
L 159.995685 98.276603 
L 160.003056 98.276603 
L 160.113253 95.643173 
L 160.115694 95.643173 
L 160.208198 94.063115 
L 160.22761 94.063115 
L 160.324347 87.742882 
L 160.362892 87.742882 
L 160.470846 86.162824 
L 160.478019 86.162824 
L 160.582889 78.262532 
L 160.592391 78.262532 
L 160.698938 76.155788 
L 160.706018 76.155788 
L 160.811875 68.782183 
L 160.825941 68.782183 
L 160.931074 64.042008 
L 160.938061 64.042008 
L 161.047151 59.82852 
L 161.061028 59.82852 
L 161.153263 57.721775 
L 161.178543 57.721775 
L 161.272444 52.9816 
L 161.304393 52.9816 
L 161.397621 48.241426 
L 161.43613 48.241426 
L 161.506136 44.554623 
L 161.548904 44.554623 
L 161.652016 39.814448 
L 161.669886 39.814448 
L 161.754522 38.761076 
L 161.818836 38.761076 
L 161.860845 37.181018 
L 161.942363 37.181018 
L 162.03881 35.60096 
L 162.084654 35.60096 
L 162.139074 34.547588 
L 162.23228 34.547588 
L 162.32284 32.440843 
L 162.397949 32.440843 
L 162.50469 30.860785 
L 162.612897 30.860785 
L 162.612897 30.334099 
L 338.688 30.334099 
L 338.688 30.334099 
" style="fill:none;stroke:#ff7500;stroke-linecap:square;stroke-width:1.5;"/>
   </g>
   <g id="line2d_52">
    <defs>
     <path d="M 0 -6 
L -1.347084 -1.854102 
L -5.706339 -1.854102 
L -2.179628 0.708204 
L -3.526712 4.854102 
L -0 2.291796 
L 3.526712 4.854102 
L 2.179628 0.708204 
L 5.706339 -1.854102 
L 1.347084 -1.854102 
z
" id="mb5045c9137" style="stroke:#ff7500;stroke-linejoin:bevel;stroke-width:1.5;"/>
    </defs>
    <g>
     <use style="fill-opacity:0;stroke:#ff7500;stroke-linejoin:bevel;stroke-width:1.5;" x="158.705563" xlink:href="#mb5045c9137" y="139.358118"/>
     <use style="fill-opacity:0;stroke:#ff7500;stroke-linejoin:bevel;stroke-width:1.5;" x="162.612897" xlink:href="#mb5045c9137" y="30.860785"/>
     <use style="fill-opacity:0;stroke:#ff7500;stroke-linejoin:bevel;stroke-width:1.5;" x="162.612897" xlink:href="#mb5045c9137" y="30.334099"/>
     <use style="fill-opacity:0;stroke:#ff7500;stroke-linejoin:bevel;stroke-width:1.5;" x="162.612897" xlink:href="#mb5045c9137" y="30.334099"/>
     <use style="fill-opacity:0;stroke:#ff7500;stroke-linejoin:bevel;stroke-width:1.5;" x="338.688" xlink:href="#mb5045c9137" y="30.334099"/>
    </g>
   </g>
   <g id="line2d_53">
    <path style="fill:none;stroke:#ff7500;stroke-linecap:square;stroke-width:1.5;"/>
    <g/>
   </g>
   <g id="line2d_54">
    <defs>
     <path d="M 0 1.5 
C 0.397805 1.5 0.77937 1.341951 1.06066 1.06066 
C 1.341951 0.77937 1.5 0.397805 1.5 0 
C 1.5 -0.397805 1.341951 -0.77937 1.06066 -1.06066 
C 0.77937 -1.341951 0.397805 -1.5 0 -1.5 
C -0.397805 -1.5 -0.77937 -1.341951 -1.06066 -1.06066 
C -1.341951 -0.77937 -1.5 -0.397805 -1.5 0 
C -1.5 0.397805 -1.341951 0.77937 -1.06066 1.06066 
C -0.77937 1.341951 -0.397805 1.5 0 1.5 
z
" id="md000bf439d" style="stroke:#9acd32;"/>
    </defs>
    <g>
     <use style="fill:#9acd32;stroke:#9acd32;" x="162.385097" xlink:href="#md000bf439d" y="30.334099"/>
     <use style="fill:#9acd32;stroke:#9acd32;" x="162.385097" xlink:href="#md000bf439d" y="30.334099"/>
    </g>
   </g>
   <g id="line2d_55">
    <path d="M 146.199783 298.944 
L 146.199783 298.417314 
L 147.210734 298.417314 
L 147.210734 297.890628 
L 147.665171 297.890628 
L 147.734809 296.837256 
L 147.814056 296.837256 
L 147.814056 296.31057 
L 147.981269 296.31057 
L 147.981269 295.783884 
L 148.243592 295.783884 
L 148.243592 295.257197 
L 148.45922 295.257197 
L 148.45922 294.730511 
L 148.639252 294.730511 
L 148.719195 293.677139 
L 148.808112 293.677139 
L 148.808112 293.150453 
L 148.975352 293.150453 
L 149.07677 292.097081 
L 149.200437 292.097081 
L 149.223242 291.043709 
L 149.332295 291.043709 
L 149.395596 289.990337 
L 149.58413 289.990337 
L 149.646525 288.936964 
L 149.911431 288.936964 
L 149.959563 286.83022 
L 150.064121 286.83022 
L 150.064121 286.303534 
L 150.215485 286.303534 
L 150.267081 284.723476 
L 150.437972 284.723476 
L 150.543935 283.143418 
L 150.661853 283.143418 
L 150.661853 282.616732 
L 150.783149 282.616732 
L 150.849711 281.563359 
L 150.907745 281.563359 
L 150.973835 279.983301 
L 151.043781 279.983301 
L 151.051992 278.403243 
L 151.280332 278.403243 
L 151.280332 277.876557 
L 151.481712 277.876557 
L 151.485716 276.823185 
L 151.649092 276.823185 
L 151.755852 272.609696 
L 151.783423 272.609696 
L 151.783423 272.08301 
L 152.118655 272.08301 
L 152.203386 269.976266 
L 152.249431 269.976266 
L 152.360205 265.762777 
L 152.432402 265.762777 
L 152.462711 264.182719 
L 152.598456 264.182719 
L 152.707042 261.549288 
L 152.751777 261.549288 
L 152.840905 260.495916 
L 152.863116 260.495916 
L 152.951678 257.862486 
L 153.01047 257.862486 
L 153.069065 255.229055 
L 153.189299 255.229055 
L 153.290669 253.122311 
L 153.420143 253.122311 
L 153.509492 251.542253 
L 153.541547 251.542253 
L 153.612568 250.488881 
L 153.707991 250.488881 
L 153.788866 248.382136 
L 153.921671 248.382136 
L 154.008494 245.748706 
L 154.077643 245.748706 
L 154.115558 243.115275 
L 154.256157 243.115275 
L 154.337936 239.955159 
L 154.385464 239.955159 
L 154.47676 237.848415 
L 154.500352 237.848415 
L 154.587699 235.74167 
L 154.647916 235.74167 
L 154.701267 231.528182 
L 154.850449 231.528182 
L 154.952482 228.368065 
L 154.965604 228.368065 
L 155.057183 225.734635 
L 155.119054 225.734635 
L 155.187182 223.627891 
L 155.255046 223.627891 
L 155.293707 220.99446 
L 155.367568 220.99446 
L 155.473 218.36103 
L 155.488919 218.36103 
L 155.565128 214.674227 
L 155.628383 214.674227 
L 155.688263 213.094169 
L 155.804285 213.094169 
L 155.894684 209.407366 
L 155.931955 209.407366 
L 156.027868 205.720564 
L 156.052535 205.720564 
L 156.150854 204.140506 
L 156.166166 204.140506 
L 156.272978 199.400331 
L 156.288184 199.400331 
L 156.360987 196.240214 
L 156.460597 196.240214 
L 156.556648 192.026726 
L 156.610446 192.026726 
L 156.693802 189.919981 
L 156.738294 189.919981 
L 156.826938 185.706493 
L 156.876971 185.706493 
L 156.96199 182.546376 
L 157.058236 182.546376 
L 157.119207 179.38626 
L 157.188629 179.38626 
L 157.292246 175.172771 
L 157.306589 175.172771 
L 157.415209 171.485969 
L 157.420907 171.485969 
L 157.517493 169.379224 
L 157.602273 169.379224 
L 157.706271 162.532305 
L 157.714676 162.532305 
L 157.781772 159.898875 
L 157.862503 159.898875 
L 157.967726 158.318817 
L 158.025604 158.318817 
L 158.113432 153.051956 
L 158.151718 153.051956 
L 158.211713 150.945211 
L 158.266075 150.945211 
L 158.360802 146.731723 
L 158.385078 146.731723 
L 158.495241 141.464862 
L 158.532698 141.464862 
L 158.620675 138.831432 
L 158.644591 138.831432 
L 158.742573 136.724687 
L 158.76896 136.724687 
L 158.863624 133.037885 
L 158.881972 133.037885 
L 158.991653 127.771024 
L 159.028061 127.771024 
L 159.134248 123.030849 
L 159.141993 123.030849 
L 159.239793 121.450791 
L 159.260313 121.450791 
L 159.362551 116.710616 
L 159.385473 116.710616 
L 159.454056 111.970441 
L 159.502158 111.970441 
L 159.608019 109.337011 
L 159.615556 109.337011 
L 159.703247 104.596836 
L 159.738201 104.596836 
L 159.840163 98.276603 
L 159.850079 98.276603 
L 159.931669 95.643173 
L 159.990769 95.643173 
L 160.079044 90.376312 
L 160.118135 90.376312 
L 160.213053 86.68951 
L 160.242155 86.68951 
L 160.314697 83.529393 
L 160.389343 83.529393 
L 160.499521 78.789218 
L 160.520997 78.789218 
L 160.625609 74.049044 
L 160.656397 74.049044 
L 160.760203 68.255497 
L 160.774311 68.255497 
L 160.854038 61.935264 
L 160.889097 61.935264 
L 160.998493 58.775147 
L 161.012409 58.775147 
L 161.107207 54.561659 
L 161.127947 54.561659 
L 161.222121 50.874856 
L 161.245013 50.874856 
L 161.3249 47.71474 
L 161.359025 47.71474 
L 161.411222 45.607995 
L 161.474555 45.607995 
L 161.560142 41.921193 
L 161.587082 41.921193 
L 161.674351 38.761076 
L 161.741185 38.761076 
L 161.812194 35.60096 
L 161.92917 35.60096 
L 162.012559 32.967529 
L 162.054105 32.967529 
L 162.130378 31.387471 
L 162.279775 31.387471 
L 162.385097 30.334099 
L 338.688 30.334099 
L 338.688 30.334099 
" style="fill:none;stroke:#9acd32;stroke-linecap:square;stroke-width:1.5;"/>
   </g>
   <g id="line2d_56">
    <defs>
     <path d="M 0 -6 
L -6 6 
L 6 6 
z
" id="m663abb774d" style="stroke:#9acd32;stroke-linejoin:miter;stroke-width:1.5;"/>
    </defs>
    <g>
     <use style="fill-opacity:0;stroke:#9acd32;stroke-linejoin:miter;stroke-width:1.5;" x="159.773084" xlink:href="#m663abb774d" y="102.490092"/>
     <use style="fill-opacity:0;stroke:#9acd32;stroke-linejoin:miter;stroke-width:1.5;" x="162.385097" xlink:href="#m663abb774d" y="30.860785"/>
     <use style="fill-opacity:0;stroke:#9acd32;stroke-linejoin:miter;stroke-width:1.5;" x="162.385097" xlink:href="#m663abb774d" y="30.334099"/>
     <use style="fill-opacity:0;stroke:#9acd32;stroke-linejoin:miter;stroke-width:1.5;" x="162.385097" xlink:href="#m663abb774d" y="30.334099"/>
     <use style="fill-opacity:0;stroke:#9acd32;stroke-linejoin:miter;stroke-width:1.5;" x="338.688" xlink:href="#m663abb774d" y="30.334099"/>
    </g>
   </g>
   <g id="line2d_57">
    <path style="fill:none;stroke:#9acd32;stroke-linecap:square;stroke-width:1.5;"/>
    <g/>
   </g>
   <g id="line2d_58">
    <path d="M 338.688 30.334099 
L 369.60768 250.594218 
" style="fill:none;stroke:#ff00ff;stroke-linecap:square;stroke-width:1.5;"/>
    <g>
     <use style="fill-opacity:0;stroke:#ff00ff;stroke-linejoin:miter;stroke-width:1.5;" x="338.688" xlink:href="#mecb5208ee5" y="30.334099"/>
     <use style="fill-opacity:0;stroke:#ff00ff;stroke-linejoin:miter;stroke-width:1.5;" x="369.60768" xlink:href="#mecb5208ee5" y="250.594218"/>
    </g>
   </g>
   <g id="line2d_59">
    <path d="M 338.688 30.334099 
L 369.60768 207.616634 
" style="fill:none;stroke:#ff0000;stroke-linecap:square;stroke-width:1.5;"/>
    <g>
     <use style="fill-opacity:0;stroke:#ff0000;stroke-linejoin:miter;stroke-width:1.5;" x="338.688" xlink:href="#m7bf718b6d6" y="30.334099"/>
     <use style="fill-opacity:0;stroke:#ff0000;stroke-linejoin:miter;stroke-width:1.5;" x="369.60768" xlink:href="#m7bf718b6d6" y="207.616634"/>
    </g>
   </g>
   <g id="line2d_60">
    <path d="M 338.688 30.334099 
L 369.60768 164.63905 
" style="fill:none;stroke:#ff7500;stroke-linecap:square;stroke-width:1.5;"/>
    <g>
     <use style="fill-opacity:0;stroke:#ff7500;stroke-linejoin:bevel;stroke-width:1.5;" x="338.688" xlink:href="#mb5045c9137" y="30.334099"/>
     <use style="fill-opacity:0;stroke:#ff7500;stroke-linejoin:bevel;stroke-width:1.5;" x="369.60768" xlink:href="#mb5045c9137" y="164.63905"/>
    </g>
   </g>
   <g id="line2d_61">
    <path d="M 338.688 30.334099 
L 369.60768 121.661465 
" style="fill:none;stroke:#9acd32;stroke-linecap:square;stroke-width:1.5;"/>
    <g>
     <use style="fill-opacity:0;stroke:#9acd32;stroke-linejoin:miter;stroke-width:1.5;" x="338.688" xlink:href="#m663abb774d" y="30.334099"/>
     <use style="fill-opacity:0;stroke:#9acd32;stroke-linejoin:miter;stroke-width:1.5;" x="369.60768" xlink:href="#m663abb774d" y="121.661465"/>
    </g>
   </g>
   <g id="line2d_62">
    <path d="M 338.688 30.334099 
L 369.60768 78.683881 
" style="fill:none;stroke:#000080;stroke-linecap:square;stroke-width:1.5;"/>
    <g>
     <use style="fill-opacity:0;stroke:#000080;stroke-width:1.5;" x="338.688" xlink:href="#m74d393c05a" y="30.334099"/>
     <use style="fill-opacity:0;stroke:#000080;stroke-width:1.5;" x="369.60768" xlink:href="#m74d393c05a" y="78.683881"/>
    </g>
   </g>
   <g id="line2d_63">
    <path d="M 338.688 30.334099 
L 369.60768 35.706297 
" style="fill:none;stroke:#000080;stroke-linecap:square;stroke-width:1.5;"/>
    <g>
     <use style="fill-opacity:0;stroke:#000080;stroke-width:1.5;" x="338.688" xlink:href="#m74d393c05a" y="30.334099"/>
     <use style="fill-opacity:0;stroke:#000080;stroke-width:1.5;" x="369.60768" xlink:href="#m74d393c05a" y="35.706297"/>
    </g>
   </g>
   <g id="line2d_64">
    <path d="M 338.688 298.944 
L 338.688 30.334099 
" style="fill:none;stroke:#000000;stroke-linecap:square;stroke-width:1.5;"/>
   </g>
   <g id="patch_3">
    <path d="M 57.6 298.944 
L 57.6 27.648 
" style="fill:none;stroke:#000000;stroke-linecap:square;stroke-linejoin:miter;stroke-width:0.8;"/>
   </g>
   <g id="patch_4">
    <path d="M 338.688 298.944 
L 338.688 27.648 
" style="fill:none;stroke:#000000;stroke-linecap:square;stroke-linejoin:miter;stroke-width:0.8;"/>
   </g>
   <g id="patch_5">
    <path d="M 57.6 298.944 
L 338.688 298.944 
" style="fill:none;stroke:#000000;stroke-linecap:square;stroke-linejoin:miter;stroke-width:0.8;"/>
   </g>
   <g id="patch_6">
    <path d="M 57.6 27.648 
L 338.688 27.648 
" style="fill:none;stroke:#000000;stroke-linecap:square;stroke-linejoin:miter;stroke-width:0.8;"/>
   </g>
   <g id="text_13">
    <!-- best 2009 -->
    <defs>
     <path d="M 48.6875 27.296875 
Q 48.6875 37.203125 44.609375 42.84375 
Q 40.53125 48.484375 33.40625 48.484375 
Q 26.265625 48.484375 22.1875 42.84375 
Q 18.109375 37.203125 18.109375 27.296875 
Q 18.109375 17.390625 22.1875 11.75 
Q 26.265625 6.109375 33.40625 6.109375 
Q 40.53125 6.109375 44.609375 11.75 
Q 48.6875 17.390625 48.6875 27.296875 
z
M 18.109375 46.390625 
Q 20.953125 51.265625 25.265625 53.625 
Q 29.59375 56 35.59375 56 
Q 45.5625 56 51.78125 48.09375 
Q 58.015625 40.1875 58.015625 27.296875 
Q 58.015625 14.40625 51.78125 6.484375 
Q 45.5625 -1.421875 35.59375 -1.421875 
Q 29.59375 -1.421875 25.265625 0.953125 
Q 20.953125 3.328125 18.109375 8.203125 
L 18.109375 0 
L 9.078125 0 
L 9.078125 75.984375 
L 18.109375 75.984375 
z
" id="DejaVuSans-98"/>
     <path d="M 10.984375 1.515625 
L 10.984375 10.5 
Q 14.703125 8.734375 18.5 7.8125 
Q 22.3125 6.890625 25.984375 6.890625 
Q 35.75 6.890625 40.890625 13.453125 
Q 46.046875 20.015625 46.78125 33.40625 
Q 43.953125 29.203125 39.59375 26.953125 
Q 35.25 24.703125 29.984375 24.703125 
Q 19.046875 24.703125 12.671875 31.3125 
Q 6.296875 37.9375 6.296875 49.421875 
Q 6.296875 60.640625 12.9375 67.421875 
Q 19.578125 74.21875 30.609375 74.21875 
Q 43.265625 74.21875 49.921875 64.515625 
Q 56.59375 54.828125 56.59375 36.375 
Q 56.59375 19.140625 48.40625 8.859375 
Q 40.234375 -1.421875 26.421875 -1.421875 
Q 22.703125 -1.421875 18.890625 -0.6875 
Q 15.09375 0.046875 10.984375 1.515625 
z
M 30.609375 32.421875 
Q 37.25 32.421875 41.125 36.953125 
Q 45.015625 41.5 45.015625 49.421875 
Q 45.015625 57.28125 41.125 61.84375 
Q 37.25 66.40625 30.609375 66.40625 
Q 23.96875 66.40625 20.09375 61.84375 
Q 16.21875 57.28125 16.21875 49.421875 
Q 16.21875 41.5 20.09375 36.953125 
Q 23.96875 32.421875 30.609375 32.421875 
z
" id="DejaVuSans-57"/>
    </defs>
    <g transform="translate(375.22944 298.262739)scale(0.17 -0.17)">
     <use xlink:href="#DejaVuSans-98"/>
     <use x="63.476562" xlink:href="#DejaVuSans-101"/>
     <use x="125" xlink:href="#DejaVuSans-115"/>
     <use x="177.099609" xlink:href="#DejaVuSans-116"/>
     <use x="216.308594" xlink:href="#DejaVuSans-32"/>
     <use x="248.095703" xlink:href="#DejaVuSans-50"/>
     <use x="311.71875" xlink:href="#DejaVuSans-48"/>
     <use x="375.341797" xlink:href="#DejaVuSans-48"/>
     <use x="438.964844" xlink:href="#DejaVuSans-57"/>
    </g>
   </g>
   <g id="text_14">
    <!-- 025-2e4 -->
    <defs>
     <path d="M 10.796875 72.90625 
L 49.515625 72.90625 
L 49.515625 64.59375 
L 19.828125 64.59375 
L 19.828125 46.734375 
Q 21.96875 47.46875 24.109375 47.828125 
Q 26.265625 48.1875 28.421875 48.1875 
Q 40.625 48.1875 47.75 41.5 
Q 54.890625 34.8125 54.890625 23.390625 
Q 54.890625 11.625 47.5625 5.09375 
Q 40.234375 -1.421875 26.90625 -1.421875 
Q 22.3125 -1.421875 17.546875 -0.640625 
Q 12.796875 0.140625 7.71875 1.703125 
L 7.71875 11.625 
Q 12.109375 9.234375 16.796875 8.0625 
Q 21.484375 6.890625 26.703125 6.890625 
Q 35.15625 6.890625 40.078125 11.328125 
Q 45.015625 15.765625 45.015625 23.390625 
Q 45.015625 31 40.078125 35.4375 
Q 35.15625 39.890625 26.703125 39.890625 
Q 22.75 39.890625 18.8125 39.015625 
Q 14.890625 38.140625 10.796875 36.28125 
z
" id="DejaVuSans-53"/>
    </defs>
    <g transform="translate(375.22944 255.285155)scale(0.17 -0.17)">
     <use xlink:href="#DejaVuSans-48"/>
     <use x="63.623047" xlink:href="#DejaVuSans-50"/>
     <use x="127.246094" xlink:href="#DejaVuSans-53"/>
     <use x="190.869141" xlink:href="#DejaVuSans-45"/>
     <use x="226.953125" xlink:href="#DejaVuSans-50"/>
     <use x="290.576172" xlink:href="#DejaVuSans-101"/>
     <use x="352.099609" xlink:href="#DejaVuSans-52"/>
    </g>
   </g>
   <g id="text_15">
    <!-- 050-2e4 -->
    <g transform="translate(375.22944 212.307571)scale(0.17 -0.17)">
     <use xlink:href="#DejaVuSans-48"/>
     <use x="63.623047" xlink:href="#DejaVuSans-53"/>
     <use x="127.246094" xlink:href="#DejaVuSans-48"/>
     <use x="190.869141" xlink:href="#DejaVuSans-45"/>
     <use x="226.953125" xlink:href="#DejaVuSans-50"/>
     <use x="290.576172" xlink:href="#DejaVuSans-101"/>
     <use x="352.099609" xlink:href="#DejaVuSans-52"/>
    </g>
   </g>
   <g id="text_16">
    <!-- 075-2e4 -->
    <defs>
     <path d="M 8.203125 72.90625 
L 55.078125 72.90625 
L 55.078125 68.703125 
L 28.609375 0 
L 18.3125 0 
L 43.21875 64.59375 
L 8.203125 64.59375 
z
" id="DejaVuSans-55"/>
    </defs>
    <g transform="translate(375.22944 169.329987)scale(0.17 -0.17)">
     <use xlink:href="#DejaVuSans-48"/>
     <use x="63.623047" xlink:href="#DejaVuSans-55"/>
     <use x="127.246094" xlink:href="#DejaVuSans-53"/>
     <use x="190.869141" xlink:href="#DejaVuSans-45"/>
     <use x="226.953125" xlink:href="#DejaVuSans-50"/>
     <use x="290.576172" xlink:href="#DejaVuSans-101"/>
     <use x="352.099609" xlink:href="#DejaVuSans-52"/>
    </g>
   </g>
   <g id="text_17">
    <!-- 080-1e5 -->
    <g transform="translate(375.22944 126.352403)scale(0.17 -0.17)">
     <use xlink:href="#DejaVuSans-48"/>
     <use x="63.623047" xlink:href="#DejaVuSans-56"/>
     <use x="127.246094" xlink:href="#DejaVuSans-48"/>
     <use x="190.869141" xlink:href="#DejaVuSans-45"/>
     <use x="226.953125" xlink:href="#DejaVuSans-49"/>
     <use x="290.576172" xlink:href="#DejaVuSans-101"/>
     <use x="352.099609" xlink:href="#DejaVuSans-53"/>
    </g>
   </g>
   <g id="text_18">
    <!-- 100-1e5 -->
    <g transform="translate(375.22944 83.374819)scale(0.17 -0.17)">
     <use xlink:href="#DejaVuSans-49"/>
     <use x="63.623047" xlink:href="#DejaVuSans-48"/>
     <use x="127.246094" xlink:href="#DejaVuSans-48"/>
     <use x="190.869141" xlink:href="#DejaVuSans-45"/>
     <use x="226.953125" xlink:href="#DejaVuSans-49"/>
     <use x="290.576172" xlink:href="#DejaVuSans-101"/>
     <use x="352.099609" xlink:href="#DejaVuSans-53"/>
    </g>
   </g>
   <g id="text_19">
    <!-- 100-2e4 -->
    <g transform="translate(375.22944 40.397235)scale(0.17 -0.17)">
     <use xlink:href="#DejaVuSans-49"/>
     <use x="63.623047" xlink:href="#DejaVuSans-48"/>
     <use x="127.246094" xlink:href="#DejaVuSans-48"/>
     <use x="190.869141" xlink:href="#DejaVuSans-45"/>
     <use x="226.953125" xlink:href="#DejaVuSans-50"/>
     <use x="290.576172" xlink:href="#DejaVuSans-101"/>
     <use x="352.099609" xlink:href="#DejaVuSans-52"/>
    </g>
   </g>
   <g id="text_20">
    <!-- bbob f11, 20-D -->
    <defs>
     <path d="M 19.671875 64.796875 
L 19.671875 8.109375 
L 31.59375 8.109375 
Q 46.6875 8.109375 53.6875 14.9375 
Q 60.6875 21.78125 60.6875 36.53125 
Q 60.6875 51.171875 53.6875 57.984375 
Q 46.6875 64.796875 31.59375 64.796875 
z
M 9.8125 72.90625 
L 30.078125 72.90625 
Q 51.265625 72.90625 61.171875 64.09375 
Q 71.09375 55.28125 71.09375 36.53125 
Q 71.09375 17.671875 61.125 8.828125 
Q 51.171875 0 30.078125 0 
L 9.8125 0 
z
" id="DejaVuSans-68"/>
    </defs>
    <g transform="translate(60.41088 38.111366)scale(0.102 -0.102)">
     <use xlink:href="#DejaVuSans-98"/>
     <use x="63.476562" xlink:href="#DejaVuSans-98"/>
     <use x="126.953125" xlink:href="#DejaVuSans-111"/>
     <use x="188.134766" xlink:href="#DejaVuSans-98"/>
     <use x="251.611328" xlink:href="#DejaVuSans-32"/>
     <use x="283.398438" xlink:href="#DejaVuSans-102"/>
     <use x="318.603516" xlink:href="#DejaVuSans-49"/>
     <use x="382.226562" xlink:href="#DejaVuSans-49"/>
     <use x="445.849609" xlink:href="#DejaVuSans-44"/>
     <use x="477.636719" xlink:href="#DejaVuSans-32"/>
     <use x="509.423828" xlink:href="#DejaVuSans-50"/>
     <use x="573.046875" xlink:href="#DejaVuSans-48"/>
     <use x="636.669922" xlink:href="#DejaVuSans-45"/>
     <use x="672.753906" xlink:href="#DejaVuSans-68"/>
    </g>
    <!-- 51 targets: 100..1e-08 -->
    <defs>
     <path d="M 11.71875 12.40625 
L 22.015625 12.40625 
L 22.015625 0 
L 11.71875 0 
z
M 11.71875 51.703125 
L 22.015625 51.703125 
L 22.015625 39.3125 
L 11.71875 39.3125 
z
" id="DejaVuSans-58"/>
    </defs>
    <g transform="translate(60.41088 49.533135)scale(0.102 -0.102)">
     <use xlink:href="#DejaVuSans-53"/>
     <use x="63.623047" xlink:href="#DejaVuSans-49"/>
     <use x="127.246094" xlink:href="#DejaVuSans-32"/>
     <use x="159.033203" xlink:href="#DejaVuSans-116"/>
     <use x="198.242188" xlink:href="#DejaVuSans-97"/>
     <use x="259.521484" xlink:href="#DejaVuSans-114"/>
     <use x="300.619141" xlink:href="#DejaVuSans-103"/>
     <use x="364.095703" xlink:href="#DejaVuSans-101"/>
     <use x="425.619141" xlink:href="#DejaVuSans-116"/>
     <use x="464.828125" xlink:href="#DejaVuSans-115"/>
     <use x="516.927734" xlink:href="#DejaVuSans-58"/>
     <use x="550.619141" xlink:href="#DejaVuSans-32"/>
     <use x="582.40625" xlink:href="#DejaVuSans-49"/>
     <use x="646.029297" xlink:href="#DejaVuSans-48"/>
     <use x="709.652344" xlink:href="#DejaVuSans-48"/>
     <use x="773.275391" xlink:href="#DejaVuSans-46"/>
     <use x="805.0625" xlink:href="#DejaVuSans-46"/>
     <use x="836.849609" xlink:href="#DejaVuSans-49"/>
     <use x="900.472656" xlink:href="#DejaVuSans-101"/>
     <use x="961.996094" xlink:href="#DejaVuSans-45"/>
     <use x="998.080078" xlink:href="#DejaVuSans-48"/>
     <use x="1061.703125" xlink:href="#DejaVuSans-56"/>
    </g>
    <!-- 15 instances -->
    <g transform="translate(60.41088 60.954904)scale(0.102 -0.102)">
     <use xlink:href="#DejaVuSans-49"/>
     <use x="63.623047" xlink:href="#DejaVuSans-53"/>
     <use x="127.246094" xlink:href="#DejaVuSans-32"/>
     <use x="159.033203" xlink:href="#DejaVuSans-105"/>
     <use x="186.816406" xlink:href="#DejaVuSans-110"/>
     <use x="250.195312" xlink:href="#DejaVuSans-115"/>
     <use x="302.294922" xlink:href="#DejaVuSans-116"/>
     <use x="341.503906" xlink:href="#DejaVuSans-97"/>
     <use x="402.783203" xlink:href="#DejaVuSans-110"/>
     <use x="466.162109" xlink:href="#DejaVuSans-99"/>
     <use x="521.142578" xlink:href="#DejaVuSans-101"/>
     <use x="582.666016" xlink:href="#DejaVuSans-115"/>
    </g>
   </g>
   <g id="text_21">
    <!-- v2.3.3.18.73 -->
    <defs>
     <path d="M 40.578125 39.3125 
Q 47.65625 37.796875 51.625 33 
Q 55.609375 28.21875 55.609375 21.1875 
Q 55.609375 10.40625 48.1875 4.484375 
Q 40.765625 -1.421875 27.09375 -1.421875 
Q 22.515625 -1.421875 17.65625 -0.515625 
Q 12.796875 0.390625 7.625 2.203125 
L 7.625 11.71875 
Q 11.71875 9.328125 16.59375 8.109375 
Q 21.484375 6.890625 26.8125 6.890625 
Q 36.078125 6.890625 40.9375 10.546875 
Q 45.796875 14.203125 45.796875 21.1875 
Q 45.796875 27.640625 41.28125 31.265625 
Q 36.765625 34.90625 28.71875 34.90625 
L 20.21875 34.90625 
L 20.21875 43.015625 
L 29.109375 43.015625 
Q 36.375 43.015625 40.234375 45.921875 
Q 44.09375 48.828125 44.09375 54.296875 
Q 44.09375 59.90625 40.109375 62.90625 
Q 36.140625 65.921875 28.71875 65.921875 
Q 24.65625 65.921875 20.015625 65.03125 
Q 15.375 64.15625 9.8125 62.3125 
L 9.8125 71.09375 
Q 15.4375 72.65625 20.34375 73.4375 
Q 25.25 74.21875 29.59375 74.21875 
Q 40.828125 74.21875 47.359375 69.109375 
Q 53.90625 64.015625 53.90625 55.328125 
Q 53.90625 49.265625 50.4375 45.09375 
Q 46.96875 40.921875 40.578125 39.3125 
z
" id="DejaVuSans-51"/>
    </defs>
    <g style="fill:#808080;" transform="translate(166.559625 294.151352)scale(0.1 -0.1)">
     <use xlink:href="#DejaVuSans-118"/>
     <use x="59.179688" xlink:href="#DejaVuSans-50"/>
     <use x="122.802734" xlink:href="#DejaVuSans-46"/>
     <use x="154.589844" xlink:href="#DejaVuSans-51"/>
     <use x="218.212891" xlink:href="#DejaVuSans-46"/>
     <use x="250" xlink:href="#DejaVuSans-51"/>
     <use x="313.623047" xlink:href="#DejaVuSans-46"/>
     <use x="345.410156" xlink:href="#DejaVuSans-49"/>
     <use x="409.033203" xlink:href="#DejaVuSans-56"/>
     <use x="472.65625" xlink:href="#DejaVuSans-46"/>
     <use x="504.443359" xlink:href="#DejaVuSans-55"/>
     <use x="568.066406" xlink:href="#DejaVuSans-51"/>
    </g>
   </g>
   <g id="text_22">
    <!-- 11 Discus -->
    <g transform="translate(149.508062 21.648)scale(0.2 -0.2)">
     <use xlink:href="#DejaVuSans-49"/>
     <use x="63.623047" xlink:href="#DejaVuSans-49"/>
     <use x="127.246094" xlink:href="#DejaVuSans-32"/>
     <use x="159.033203" xlink:href="#DejaVuSans-68"/>
     <use x="236.035156" xlink:href="#DejaVuSans-105"/>
     <use x="263.818359" xlink:href="#DejaVuSans-115"/>
     <use x="315.917969" xlink:href="#DejaVuSans-99"/>
     <use x="370.898438" xlink:href="#DejaVuSans-117"/>
     <use x="434.277344" xlink:href="#DejaVuSans-115"/>
    </g>
   </g>
  </g>
 </g>
 <defs>
  <clipPath id="pcdeec322d9">
   <rect height="271.296" width="281.088" x="57.6" y="27.648"/>
  </clipPath>
 </defs>
</svg>
