<?xml version="1.0" encoding="utf-8" standalone="no"?>
<!DOCTYPE svg PUBLIC "-//W3C//DTD SVG 1.1//EN"
  "http://www.w3.org/Graphics/SVG/1.1/DTD/svg11.dtd">
<!-- Created with matplotlib (https://matplotlib.org/) -->
<svg height="345.6pt" version="1.1" viewBox="0 0 460.8 345.6" width="460.8pt" xmlns="http://www.w3.org/2000/svg" xmlns:xlink="http://www.w3.org/1999/xlink">
 <defs>
  <style type="text/css">
*{stroke-linecap:butt;stroke-linejoin:round;}
  </style>
 </defs>
 <g id="figure_1">
  <g id="patch_1">
   <path d="M 0 345.6 
L 460.8 345.6 
L 460.8 0 
L 0 0 
z
" style="fill:#ffffff;"/>
  </g>
  <g id="axes_1">
   <g id="patch_2">
    <path d="M 57.6 298.944 
L 338.688 298.944 
L 338.688 27.648 
L 57.6 27.648 
z
" style="fill:#ffffff;"/>
   </g>
   <g id="line2d_1">
    <path d="M 101.992235 298.944 
L 101.992235 293.677139 
L 107.364602 293.677139 
L 107.364602 288.410278 
L 107.663568 288.410278 
L 107.663568 283.143418 
L 146.522046 283.143418 
L 146.522046 277.876557 
L 150.159417 277.876557 
L 150.159417 272.609696 
L 154.119001 272.609696 
L 154.119001 267.342835 
L 158.599388 267.342835 
L 158.599388 262.075974 
L 161.093366 262.075974 
L 161.093366 256.809114 
L 161.224411 256.809114 
L 161.224411 251.542253 
L 161.233571 251.542253 
L 161.233571 246.275392 
L 161.251875 246.275392 
L 161.251875 241.008531 
L 161.267875 241.008531 
L 161.267875 235.74167 
L 161.27016 235.74167 
L 161.27016 225.207949 
L 161.272444 225.207949 
L 161.272444 209.407366 
L 161.274728 209.407366 
L 161.274728 204.140506 
L 161.277012 204.140506 
L 161.277012 183.073062 
L 161.281578 183.073062 
L 161.281578 177.806202 
L 161.283861 177.806202 
L 161.283861 172.539341 
L 161.286143 172.539341 
L 161.286143 167.27248 
L 161.290707 167.27248 
L 161.290707 156.738758 
L 161.292989 156.738758 
L 161.292989 146.205037 
L 161.29527 146.205037 
L 161.29527 119.870733 
L 161.297551 119.870733 
L 161.297551 104.07015 
L 161.299832 104.07015 
L 161.299832 93.536429 
L 161.302112 93.536429 
L 161.302112 88.269568 
L 161.304393 88.269568 
L 161.304393 72.468985 
L 161.306672 72.468985 
L 161.306672 61.935264 
L 161.308952 61.935264 
L 161.308952 56.668403 
L 161.311231 56.668403 
L 161.311231 35.60096 
L 161.31351 35.60096 
L 161.31351 30.334099 
L 338.688 30.334099 
" style="fill:none;stroke:#f5deb3;stroke-linecap:square;stroke-width:4;"/>
   </g>
   <g id="line2d_2">
    <defs>
     <path d="M -0 7.778175 
L 7.778175 0 
L 0 -7.778175 
L -7.778175 -0 
z
" id="m51dd53136d" style="stroke:#f5deb3;stroke-linejoin:miter;stroke-width:1.5;"/>
    </defs>
    <g>
     <use style="fill:#f5deb3;stroke:#f5deb3;stroke-linejoin:miter;stroke-width:1.5;" x="161.267875" xlink:href="#m51dd53136d" y="235.74167"/>
     <use style="fill:#f5deb3;stroke:#f5deb3;stroke-linejoin:miter;stroke-width:1.5;" x="161.304393" xlink:href="#m51dd53136d" y="88.269568"/>
     <use style="fill:#f5deb3;stroke:#f5deb3;stroke-linejoin:miter;stroke-width:1.5;" x="161.31351" xlink:href="#m51dd53136d" y="30.334099"/>
     <use style="fill:#f5deb3;stroke:#f5deb3;stroke-linejoin:miter;stroke-width:1.5;" x="161.31351" xlink:href="#m51dd53136d" y="30.334099"/>
     <use style="fill:#f5deb3;stroke:#f5deb3;stroke-linejoin:miter;stroke-width:1.5;" x="338.688" xlink:href="#m51dd53136d" y="30.334099"/>
    </g>
   </g>
   <g id="line2d_3">
    <path style="fill:none;stroke:#f5deb3;stroke-linecap:square;stroke-width:4;"/>
    <g/>
   </g>
   <g id="line2d_4">
    <path d="M 338.688 30.334099 
L 369.60768 35.706297 
" style="fill:none;stroke:#f5deb3;stroke-linecap:square;stroke-width:4;"/>
    <g>
     <use style="fill:#f5deb3;stroke:#f5deb3;stroke-linejoin:miter;stroke-width:1.5;" x="338.688" xlink:href="#m51dd53136d" y="30.334099"/>
     <use style="fill:#f5deb3;stroke:#f5deb3;stroke-linejoin:miter;stroke-width:1.5;" x="369.60768" xlink:href="#m51dd53136d" y="35.706297"/>
    </g>
   </g>
   <g id="matplotlib.axis_1">
    <g id="xtick_1">
     <g id="line2d_5">
      <path clip-path="url(#pf264aa4537)" d="M 57.6 298.944 
L 57.6 27.648 
" style="fill:none;stroke:#b0b0b0;stroke-linecap:square;stroke-width:0.8;"/>
     </g>
     <g id="line2d_6">
      <defs>
       <path d="M 0 0 
L 0 3.5 
" id="md7dfc7634f" style="stroke:#000000;stroke-width:0.8;"/>
      </defs>
      <g>
       <use style="stroke:#000000;stroke-width:0.8;" x="57.6" xlink:href="#md7dfc7634f" y="298.944"/>
      </g>
     </g>
     <g id="text_1">
      <!-- 0 -->
      <defs>
       <path d="M 31.78125 66.40625 
Q 24.171875 66.40625 20.328125 58.90625 
Q 16.5 51.421875 16.5 36.375 
Q 16.5 21.390625 20.328125 13.890625 
Q 24.171875 6.390625 31.78125 6.390625 
Q 39.453125 6.390625 43.28125 13.890625 
Q 47.125 21.390625 47.125 36.375 
Q 47.125 51.421875 43.28125 58.90625 
Q 39.453125 66.40625 31.78125 66.40625 
z
M 31.78125 74.21875 
Q 44.046875 74.21875 50.515625 64.515625 
Q 56.984375 54.828125 56.984375 36.375 
Q 56.984375 17.96875 50.515625 8.265625 
Q 44.046875 -1.421875 31.78125 -1.421875 
Q 19.53125 -1.421875 13.0625 8.265625 
Q 6.59375 17.96875 6.59375 36.375 
Q 6.59375 54.828125 13.0625 64.515625 
Q 19.53125 74.21875 31.78125 74.21875 
z
" id="DejaVuSans-48"/>
      </defs>
      <g transform="translate(51.2375 321.140875)scale(0.2 -0.2)">
       <use xlink:href="#DejaVuSans-48"/>
      </g>
     </g>
    </g>
    <g id="xtick_2">
     <g id="line2d_7">
      <path clip-path="url(#pf264aa4537)" d="M 137.910857 298.944 
L 137.910857 27.648 
" style="fill:none;stroke:#b0b0b0;stroke-linecap:square;stroke-width:0.8;"/>
     </g>
     <g id="line2d_8">
      <g>
       <use style="stroke:#000000;stroke-width:0.8;" x="137.910857" xlink:href="#md7dfc7634f" y="298.944"/>
      </g>
     </g>
     <g id="text_2">
      <!-- 2 -->
      <defs>
       <path d="M 19.1875 8.296875 
L 53.609375 8.296875 
L 53.609375 0 
L 7.328125 0 
L 7.328125 8.296875 
Q 12.9375 14.109375 22.625 23.890625 
Q 32.328125 33.6875 34.8125 36.53125 
Q 39.546875 41.84375 41.421875 45.53125 
Q 43.3125 49.21875 43.3125 52.78125 
Q 43.3125 58.59375 39.234375 62.25 
Q 35.15625 65.921875 28.609375 65.921875 
Q 23.96875 65.921875 18.8125 64.3125 
Q 13.671875 62.703125 7.8125 59.421875 
L 7.8125 69.390625 
Q 13.765625 71.78125 18.9375 73 
Q 24.125 74.21875 28.421875 74.21875 
Q 39.75 74.21875 46.484375 68.546875 
Q 53.21875 62.890625 53.21875 53.421875 
Q 53.21875 48.921875 51.53125 44.890625 
Q 49.859375 40.875 45.40625 35.40625 
Q 44.1875 33.984375 37.640625 27.21875 
Q 31.109375 20.453125 19.1875 8.296875 
z
" id="DejaVuSans-50"/>
      </defs>
      <g transform="translate(131.548357 321.140875)scale(0.2 -0.2)">
       <use xlink:href="#DejaVuSans-50"/>
      </g>
     </g>
    </g>
    <g id="xtick_3">
     <g id="line2d_9">
      <path clip-path="url(#pf264aa4537)" d="M 218.221714 298.944 
L 218.221714 27.648 
" style="fill:none;stroke:#b0b0b0;stroke-linecap:square;stroke-width:0.8;"/>
     </g>
     <g id="line2d_10">
      <g>
       <use style="stroke:#000000;stroke-width:0.8;" x="218.221714" xlink:href="#md7dfc7634f" y="298.944"/>
      </g>
     </g>
     <g id="text_3">
      <!-- 4 -->
      <defs>
       <path d="M 37.796875 64.3125 
L 12.890625 25.390625 
L 37.796875 25.390625 
z
M 35.203125 72.90625 
L 47.609375 72.90625 
L 47.609375 25.390625 
L 58.015625 25.390625 
L 58.015625 17.1875 
L 47.609375 17.1875 
L 47.609375 0 
L 37.796875 0 
L 37.796875 17.1875 
L 4.890625 17.1875 
L 4.890625 26.703125 
z
" id="DejaVuSans-52"/>
      </defs>
      <g transform="translate(211.859214 321.140875)scale(0.2 -0.2)">
       <use xlink:href="#DejaVuSans-52"/>
      </g>
     </g>
    </g>
    <g id="xtick_4">
     <g id="line2d_11">
      <path clip-path="url(#pf264aa4537)" d="M 298.532571 298.944 
L 298.532571 27.648 
" style="fill:none;stroke:#b0b0b0;stroke-linecap:square;stroke-width:0.8;"/>
     </g>
     <g id="line2d_12">
      <g>
       <use style="stroke:#000000;stroke-width:0.8;" x="298.532571" xlink:href="#md7dfc7634f" y="298.944"/>
      </g>
     </g>
     <g id="text_4">
      <!-- 6 -->
      <defs>
       <path d="M 33.015625 40.375 
Q 26.375 40.375 22.484375 35.828125 
Q 18.609375 31.296875 18.609375 23.390625 
Q 18.609375 15.53125 22.484375 10.953125 
Q 26.375 6.390625 33.015625 6.390625 
Q 39.65625 6.390625 43.53125 10.953125 
Q 47.40625 15.53125 47.40625 23.390625 
Q 47.40625 31.296875 43.53125 35.828125 
Q 39.65625 40.375 33.015625 40.375 
z
M 52.59375 71.296875 
L 52.59375 62.3125 
Q 48.875 64.0625 45.09375 64.984375 
Q 41.3125 65.921875 37.59375 65.921875 
Q 27.828125 65.921875 22.671875 59.328125 
Q 17.53125 52.734375 16.796875 39.40625 
Q 19.671875 43.65625 24.015625 45.921875 
Q 28.375 48.1875 33.59375 48.1875 
Q 44.578125 48.1875 50.953125 41.515625 
Q 57.328125 34.859375 57.328125 23.390625 
Q 57.328125 12.15625 50.6875 5.359375 
Q 44.046875 -1.421875 33.015625 -1.421875 
Q 20.359375 -1.421875 13.671875 8.265625 
Q 6.984375 17.96875 6.984375 36.375 
Q 6.984375 53.65625 15.1875 63.9375 
Q 23.390625 74.21875 37.203125 74.21875 
Q 40.921875 74.21875 44.703125 73.484375 
Q 48.484375 72.75 52.59375 71.296875 
z
" id="DejaVuSans-54"/>
      </defs>
      <g transform="translate(292.170071 321.140875)scale(0.2 -0.2)">
       <use xlink:href="#DejaVuSans-54"/>
      </g>
     </g>
    </g>
    <g id="xtick_5">
     <g id="line2d_13">
      <path clip-path="url(#pf264aa4537)" d="M 97.755429 298.944 
L 97.755429 27.648 
" style="fill:none;stroke:#b0b0b0;stroke-linecap:square;stroke-width:0.8;"/>
     </g>
     <g id="line2d_14">
      <defs>
       <path d="M 0 0 
L 0 2 
" id="m79c06e173d" style="stroke:#000000;stroke-width:0.6;"/>
      </defs>
      <g>
       <use style="stroke:#000000;stroke-width:0.6;" x="97.755429" xlink:href="#m79c06e173d" y="298.944"/>
      </g>
     </g>
    </g>
    <g id="xtick_6">
     <g id="line2d_15">
      <path clip-path="url(#pf264aa4537)" d="M 178.066286 298.944 
L 178.066286 27.648 
" style="fill:none;stroke:#b0b0b0;stroke-linecap:square;stroke-width:0.8;"/>
     </g>
     <g id="line2d_16">
      <g>
       <use style="stroke:#000000;stroke-width:0.6;" x="178.066286" xlink:href="#m79c06e173d" y="298.944"/>
      </g>
     </g>
    </g>
    <g id="xtick_7">
     <g id="line2d_17">
      <path clip-path="url(#pf264aa4537)" d="M 258.377143 298.944 
L 258.377143 27.648 
" style="fill:none;stroke:#b0b0b0;stroke-linecap:square;stroke-width:0.8;"/>
     </g>
     <g id="line2d_18">
      <g>
       <use style="stroke:#000000;stroke-width:0.6;" x="258.377143" xlink:href="#m79c06e173d" y="298.944"/>
      </g>
     </g>
    </g>
    <g id="xtick_8">
     <g id="line2d_19">
      <path clip-path="url(#pf264aa4537)" d="M 338.688 298.944 
L 338.688 27.648 
" style="fill:none;stroke:#b0b0b0;stroke-linecap:square;stroke-width:0.8;"/>
     </g>
     <g id="line2d_20">
      <g>
       <use style="stroke:#000000;stroke-width:0.6;" x="338.688" xlink:href="#m79c06e173d" y="298.944"/>
      </g>
     </g>
    </g>
    <g id="text_5">
     <!-- log10(# f-evals / dimension) -->
     <defs>
      <path d="M 9.421875 75.984375 
L 18.40625 75.984375 
L 18.40625 0 
L 9.421875 0 
z
" id="DejaVuSans-108"/>
      <path d="M 30.609375 48.390625 
Q 23.390625 48.390625 19.1875 42.75 
Q 14.984375 37.109375 14.984375 27.296875 
Q 14.984375 17.484375 19.15625 11.84375 
Q 23.34375 6.203125 30.609375 6.203125 
Q 37.796875 6.203125 41.984375 11.859375 
Q 46.1875 17.53125 46.1875 27.296875 
Q 46.1875 37.015625 41.984375 42.703125 
Q 37.796875 48.390625 30.609375 48.390625 
z
M 30.609375 56 
Q 42.328125 56 49.015625 48.375 
Q 55.71875 40.765625 55.71875 27.296875 
Q 55.71875 13.875 49.015625 6.21875 
Q 42.328125 -1.421875 30.609375 -1.421875 
Q 18.84375 -1.421875 12.171875 6.21875 
Q 5.515625 13.875 5.515625 27.296875 
Q 5.515625 40.765625 12.171875 48.375 
Q 18.84375 56 30.609375 56 
z
" id="DejaVuSans-111"/>
      <path d="M 45.40625 27.984375 
Q 45.40625 37.75 41.375 43.109375 
Q 37.359375 48.484375 30.078125 48.484375 
Q 22.859375 48.484375 18.828125 43.109375 
Q 14.796875 37.75 14.796875 27.984375 
Q 14.796875 18.265625 18.828125 12.890625 
Q 22.859375 7.515625 30.078125 7.515625 
Q 37.359375 7.515625 41.375 12.890625 
Q 45.40625 18.265625 45.40625 27.984375 
z
M 54.390625 6.78125 
Q 54.390625 -7.171875 48.1875 -13.984375 
Q 42 -20.796875 29.203125 -20.796875 
Q 24.46875 -20.796875 20.265625 -20.09375 
Q 16.0625 -19.390625 12.109375 -17.921875 
L 12.109375 -9.1875 
Q 16.0625 -11.328125 19.921875 -12.34375 
Q 23.78125 -13.375 27.78125 -13.375 
Q 36.625 -13.375 41.015625 -8.765625 
Q 45.40625 -4.15625 45.40625 5.171875 
L 45.40625 9.625 
Q 42.625 4.78125 38.28125 2.390625 
Q 33.9375 0 27.875 0 
Q 17.828125 0 11.671875 7.65625 
Q 5.515625 15.328125 5.515625 27.984375 
Q 5.515625 40.671875 11.671875 48.328125 
Q 17.828125 56 27.875 56 
Q 33.9375 56 38.28125 53.609375 
Q 42.625 51.21875 45.40625 46.390625 
L 45.40625 54.6875 
L 54.390625 54.6875 
z
" id="DejaVuSans-103"/>
      <path d="M 12.40625 8.296875 
L 28.515625 8.296875 
L 28.515625 63.921875 
L 10.984375 60.40625 
L 10.984375 69.390625 
L 28.421875 72.90625 
L 38.28125 72.90625 
L 38.28125 8.296875 
L 54.390625 8.296875 
L 54.390625 0 
L 12.40625 0 
z
" id="DejaVuSans-49"/>
      <path d="M 31 75.875 
Q 24.46875 64.65625 21.28125 53.65625 
Q 18.109375 42.671875 18.109375 31.390625 
Q 18.109375 20.125 21.3125 9.0625 
Q 24.515625 -2 31 -13.1875 
L 23.1875 -13.1875 
Q 15.875 -1.703125 12.234375 9.375 
Q 8.59375 20.453125 8.59375 31.390625 
Q 8.59375 42.28125 12.203125 53.3125 
Q 15.828125 64.359375 23.1875 75.875 
z
" id="DejaVuSans-40"/>
      <path d="M 51.125 44 
L 36.921875 44 
L 32.8125 27.6875 
L 47.125 27.6875 
z
M 43.796875 71.78125 
L 38.71875 51.515625 
L 52.984375 51.515625 
L 58.109375 71.78125 
L 65.921875 71.78125 
L 60.890625 51.515625 
L 76.125 51.515625 
L 76.125 44 
L 58.984375 44 
L 54.984375 27.6875 
L 70.515625 27.6875 
L 70.515625 20.21875 
L 53.078125 20.21875 
L 48 0 
L 40.1875 0 
L 45.21875 20.21875 
L 30.90625 20.21875 
L 25.875 0 
L 18.015625 0 
L 23.09375 20.21875 
L 7.71875 20.21875 
L 7.71875 27.6875 
L 24.90625 27.6875 
L 29 44 
L 13.28125 44 
L 13.28125 51.515625 
L 30.90625 51.515625 
L 35.890625 71.78125 
z
" id="DejaVuSans-35"/>
      <path id="DejaVuSans-32"/>
      <path d="M 37.109375 75.984375 
L 37.109375 68.5 
L 28.515625 68.5 
Q 23.6875 68.5 21.796875 66.546875 
Q 19.921875 64.59375 19.921875 59.515625 
L 19.921875 54.6875 
L 34.71875 54.6875 
L 34.71875 47.703125 
L 19.921875 47.703125 
L 19.921875 0 
L 10.890625 0 
L 10.890625 47.703125 
L 2.296875 47.703125 
L 2.296875 54.6875 
L 10.890625 54.6875 
L 10.890625 58.5 
Q 10.890625 67.625 15.140625 71.796875 
Q 19.390625 75.984375 28.609375 75.984375 
z
" id="DejaVuSans-102"/>
      <path d="M 4.890625 31.390625 
L 31.203125 31.390625 
L 31.203125 23.390625 
L 4.890625 23.390625 
z
" id="DejaVuSans-45"/>
      <path d="M 56.203125 29.59375 
L 56.203125 25.203125 
L 14.890625 25.203125 
Q 15.484375 15.921875 20.484375 11.0625 
Q 25.484375 6.203125 34.421875 6.203125 
Q 39.59375 6.203125 44.453125 7.46875 
Q 49.3125 8.734375 54.109375 11.28125 
L 54.109375 2.78125 
Q 49.265625 0.734375 44.1875 -0.34375 
Q 39.109375 -1.421875 33.890625 -1.421875 
Q 20.796875 -1.421875 13.15625 6.1875 
Q 5.515625 13.8125 5.515625 26.8125 
Q 5.515625 40.234375 12.765625 48.109375 
Q 20.015625 56 32.328125 56 
Q 43.359375 56 49.78125 48.890625 
Q 56.203125 41.796875 56.203125 29.59375 
z
M 47.21875 32.234375 
Q 47.125 39.59375 43.09375 43.984375 
Q 39.0625 48.390625 32.421875 48.390625 
Q 24.90625 48.390625 20.390625 44.140625 
Q 15.875 39.890625 15.1875 32.171875 
z
" id="DejaVuSans-101"/>
      <path d="M 2.984375 54.6875 
L 12.5 54.6875 
L 29.59375 8.796875 
L 46.6875 54.6875 
L 56.203125 54.6875 
L 35.6875 0 
L 23.484375 0 
z
" id="DejaVuSans-118"/>
      <path d="M 34.28125 27.484375 
Q 23.390625 27.484375 19.1875 25 
Q 14.984375 22.515625 14.984375 16.5 
Q 14.984375 11.71875 18.140625 8.90625 
Q 21.296875 6.109375 26.703125 6.109375 
Q 34.1875 6.109375 38.703125 11.40625 
Q 43.21875 16.703125 43.21875 25.484375 
L 43.21875 27.484375 
z
M 52.203125 31.203125 
L 52.203125 0 
L 43.21875 0 
L 43.21875 8.296875 
Q 40.140625 3.328125 35.546875 0.953125 
Q 30.953125 -1.421875 24.3125 -1.421875 
Q 15.921875 -1.421875 10.953125 3.296875 
Q 6 8.015625 6 15.921875 
Q 6 25.140625 12.171875 29.828125 
Q 18.359375 34.515625 30.609375 34.515625 
L 43.21875 34.515625 
L 43.21875 35.40625 
Q 43.21875 41.609375 39.140625 45 
Q 35.0625 48.390625 27.6875 48.390625 
Q 23 48.390625 18.546875 47.265625 
Q 14.109375 46.140625 10.015625 43.890625 
L 10.015625 52.203125 
Q 14.9375 54.109375 19.578125 55.046875 
Q 24.21875 56 28.609375 56 
Q 40.484375 56 46.34375 49.84375 
Q 52.203125 43.703125 52.203125 31.203125 
z
" id="DejaVuSans-97"/>
      <path d="M 44.28125 53.078125 
L 44.28125 44.578125 
Q 40.484375 46.53125 36.375 47.5 
Q 32.28125 48.484375 27.875 48.484375 
Q 21.1875 48.484375 17.84375 46.4375 
Q 14.5 44.390625 14.5 40.28125 
Q 14.5 37.15625 16.890625 35.375 
Q 19.28125 33.59375 26.515625 31.984375 
L 29.59375 31.296875 
Q 39.15625 29.25 43.1875 25.515625 
Q 47.21875 21.78125 47.21875 15.09375 
Q 47.21875 7.46875 41.1875 3.015625 
Q 35.15625 -1.421875 24.609375 -1.421875 
Q 20.21875 -1.421875 15.453125 -0.5625 
Q 10.6875 0.296875 5.421875 2 
L 5.421875 11.28125 
Q 10.40625 8.6875 15.234375 7.390625 
Q 20.0625 6.109375 24.8125 6.109375 
Q 31.15625 6.109375 34.5625 8.28125 
Q 37.984375 10.453125 37.984375 14.40625 
Q 37.984375 18.0625 35.515625 20.015625 
Q 33.0625 21.96875 24.703125 23.78125 
L 21.578125 24.515625 
Q 13.234375 26.265625 9.515625 29.90625 
Q 5.8125 33.546875 5.8125 39.890625 
Q 5.8125 47.609375 11.28125 51.796875 
Q 16.75 56 26.8125 56 
Q 31.78125 56 36.171875 55.265625 
Q 40.578125 54.546875 44.28125 53.078125 
z
" id="DejaVuSans-115"/>
      <path d="M 25.390625 72.90625 
L 33.6875 72.90625 
L 8.296875 -9.28125 
L 0 -9.28125 
z
" id="DejaVuSans-47"/>
      <path d="M 45.40625 46.390625 
L 45.40625 75.984375 
L 54.390625 75.984375 
L 54.390625 0 
L 45.40625 0 
L 45.40625 8.203125 
Q 42.578125 3.328125 38.25 0.953125 
Q 33.9375 -1.421875 27.875 -1.421875 
Q 17.96875 -1.421875 11.734375 6.484375 
Q 5.515625 14.40625 5.515625 27.296875 
Q 5.515625 40.1875 11.734375 48.09375 
Q 17.96875 56 27.875 56 
Q 33.9375 56 38.25 53.625 
Q 42.578125 51.265625 45.40625 46.390625 
z
M 14.796875 27.296875 
Q 14.796875 17.390625 18.875 11.75 
Q 22.953125 6.109375 30.078125 6.109375 
Q 37.203125 6.109375 41.296875 11.75 
Q 45.40625 17.390625 45.40625 27.296875 
Q 45.40625 37.203125 41.296875 42.84375 
Q 37.203125 48.484375 30.078125 48.484375 
Q 22.953125 48.484375 18.875 42.84375 
Q 14.796875 37.203125 14.796875 27.296875 
z
" id="DejaVuSans-100"/>
      <path d="M 9.421875 54.6875 
L 18.40625 54.6875 
L 18.40625 0 
L 9.421875 0 
z
M 9.421875 75.984375 
L 18.40625 75.984375 
L 18.40625 64.59375 
L 9.421875 64.59375 
z
" id="DejaVuSans-105"/>
      <path d="M 52 44.1875 
Q 55.375 50.25 60.0625 53.125 
Q 64.75 56 71.09375 56 
Q 79.640625 56 84.28125 50.015625 
Q 88.921875 44.046875 88.921875 33.015625 
L 88.921875 0 
L 79.890625 0 
L 79.890625 32.71875 
Q 79.890625 40.578125 77.09375 44.375 
Q 74.3125 48.1875 68.609375 48.1875 
Q 61.625 48.1875 57.5625 43.546875 
Q 53.515625 38.921875 53.515625 30.90625 
L 53.515625 0 
L 44.484375 0 
L 44.484375 32.71875 
Q 44.484375 40.625 41.703125 44.40625 
Q 38.921875 48.1875 33.109375 48.1875 
Q 26.21875 48.1875 22.15625 43.53125 
Q 18.109375 38.875 18.109375 30.90625 
L 18.109375 0 
L 9.078125 0 
L 9.078125 54.6875 
L 18.109375 54.6875 
L 18.109375 46.1875 
Q 21.1875 51.21875 25.484375 53.609375 
Q 29.78125 56 35.6875 56 
Q 41.65625 56 45.828125 52.96875 
Q 50 49.953125 52 44.1875 
z
" id="DejaVuSans-109"/>
      <path d="M 54.890625 33.015625 
L 54.890625 0 
L 45.90625 0 
L 45.90625 32.71875 
Q 45.90625 40.484375 42.875 44.328125 
Q 39.84375 48.1875 33.796875 48.1875 
Q 26.515625 48.1875 22.3125 43.546875 
Q 18.109375 38.921875 18.109375 30.90625 
L 18.109375 0 
L 9.078125 0 
L 9.078125 54.6875 
L 18.109375 54.6875 
L 18.109375 46.1875 
Q 21.34375 51.125 25.703125 53.5625 
Q 30.078125 56 35.796875 56 
Q 45.21875 56 50.046875 50.171875 
Q 54.890625 44.34375 54.890625 33.015625 
z
" id="DejaVuSans-110"/>
      <path d="M 8.015625 75.875 
L 15.828125 75.875 
Q 23.140625 64.359375 26.78125 53.3125 
Q 30.421875 42.28125 30.421875 31.390625 
Q 30.421875 20.453125 26.78125 9.375 
Q 23.140625 -1.703125 15.828125 -13.1875 
L 8.015625 -13.1875 
Q 14.5 -2 17.703125 9.0625 
Q 20.90625 20.125 20.90625 31.390625 
Q 20.90625 42.671875 17.703125 53.65625 
Q 14.5 64.65625 8.015625 75.875 
z
" id="DejaVuSans-41"/>
     </defs>
     <g transform="translate(77.303219 342.217594)scale(0.17 -0.17)">
      <use xlink:href="#DejaVuSans-108"/>
      <use x="27.783203" xlink:href="#DejaVuSans-111"/>
      <use x="88.964844" xlink:href="#DejaVuSans-103"/>
      <use x="152.441406" xlink:href="#DejaVuSans-49"/>
      <use x="216.064453" xlink:href="#DejaVuSans-48"/>
      <use x="279.6875" xlink:href="#DejaVuSans-40"/>
      <use x="318.701172" xlink:href="#DejaVuSans-35"/>
      <use x="402.490234" xlink:href="#DejaVuSans-32"/>
      <use x="434.277344" xlink:href="#DejaVuSans-102"/>
      <use x="469.404297" xlink:href="#DejaVuSans-45"/>
      <use x="505.488281" xlink:href="#DejaVuSans-101"/>
      <use x="567.011719" xlink:href="#DejaVuSans-118"/>
      <use x="626.191406" xlink:href="#DejaVuSans-97"/>
      <use x="687.470703" xlink:href="#DejaVuSans-108"/>
      <use x="715.253906" xlink:href="#DejaVuSans-115"/>
      <use x="767.353516" xlink:href="#DejaVuSans-32"/>
      <use x="799.140625" xlink:href="#DejaVuSans-47"/>
      <use x="832.832031" xlink:href="#DejaVuSans-32"/>
      <use x="864.619141" xlink:href="#DejaVuSans-100"/>
      <use x="928.095703" xlink:href="#DejaVuSans-105"/>
      <use x="955.878906" xlink:href="#DejaVuSans-109"/>
      <use x="1053.291016" xlink:href="#DejaVuSans-101"/>
      <use x="1114.814453" xlink:href="#DejaVuSans-110"/>
      <use x="1178.193359" xlink:href="#DejaVuSans-115"/>
      <use x="1230.292969" xlink:href="#DejaVuSans-105"/>
      <use x="1258.076172" xlink:href="#DejaVuSans-111"/>
      <use x="1319.257812" xlink:href="#DejaVuSans-110"/>
      <use x="1382.636719" xlink:href="#DejaVuSans-41"/>
     </g>
    </g>
   </g>
   <g id="matplotlib.axis_2">
    <g id="ytick_1">
     <g id="line2d_21">
      <path clip-path="url(#pf264aa4537)" d="M 57.6 298.944 
L 338.688 298.944 
" style="fill:none;stroke:#b0b0b0;stroke-linecap:square;stroke-width:0.8;"/>
     </g>
     <g id="line2d_22">
      <defs>
       <path d="M 0 0 
L -3.5 0 
" id="ma80fa590cd" style="stroke:#000000;stroke-width:0.8;"/>
      </defs>
      <g>
       <use style="stroke:#000000;stroke-width:0.8;" x="57.6" xlink:href="#ma80fa590cd" y="298.944"/>
      </g>
     </g>
     <g id="text_6">
      <!-- 0.0 -->
      <defs>
       <path d="M 10.6875 12.40625 
L 21 12.40625 
L 21 0 
L 10.6875 0 
z
" id="DejaVuSans-46"/>
      </defs>
      <g transform="translate(25.155 305.02275)scale(0.16 -0.16)">
       <use xlink:href="#DejaVuSans-48"/>
       <use x="63.623047" xlink:href="#DejaVuSans-46"/>
       <use x="95.410156" xlink:href="#DejaVuSans-48"/>
      </g>
     </g>
    </g>
    <g id="ytick_2">
     <g id="line2d_23">
      <path clip-path="url(#pf264aa4537)" d="M 57.6 245.22202 
L 338.688 245.22202 
" style="fill:none;stroke:#b0b0b0;stroke-linecap:square;stroke-width:0.8;"/>
     </g>
     <g id="line2d_24">
      <g>
       <use style="stroke:#000000;stroke-width:0.8;" x="57.6" xlink:href="#ma80fa590cd" y="245.22202"/>
      </g>
     </g>
     <g id="text_7">
      <!-- 0.2 -->
      <g transform="translate(25.155 251.30077)scale(0.16 -0.16)">
       <use xlink:href="#DejaVuSans-48"/>
       <use x="63.623047" xlink:href="#DejaVuSans-46"/>
       <use x="95.410156" xlink:href="#DejaVuSans-50"/>
      </g>
     </g>
    </g>
    <g id="ytick_3">
     <g id="line2d_25">
      <path clip-path="url(#pf264aa4537)" d="M 57.6 191.50004 
L 338.688 191.50004 
" style="fill:none;stroke:#b0b0b0;stroke-linecap:square;stroke-width:0.8;"/>
     </g>
     <g id="line2d_26">
      <g>
       <use style="stroke:#000000;stroke-width:0.8;" x="57.6" xlink:href="#ma80fa590cd" y="191.50004"/>
      </g>
     </g>
     <g id="text_8">
      <!-- 0.4 -->
      <g transform="translate(25.155 197.57879)scale(0.16 -0.16)">
       <use xlink:href="#DejaVuSans-48"/>
       <use x="63.623047" xlink:href="#DejaVuSans-46"/>
       <use x="95.410156" xlink:href="#DejaVuSans-52"/>
      </g>
     </g>
    </g>
    <g id="ytick_4">
     <g id="line2d_27">
      <path clip-path="url(#pf264aa4537)" d="M 57.6 137.778059 
L 338.688 137.778059 
" style="fill:none;stroke:#b0b0b0;stroke-linecap:square;stroke-width:0.8;"/>
     </g>
     <g id="line2d_28">
      <g>
       <use style="stroke:#000000;stroke-width:0.8;" x="57.6" xlink:href="#ma80fa590cd" y="137.778059"/>
      </g>
     </g>
     <g id="text_9">
      <!-- 0.6 -->
      <g transform="translate(25.155 143.856809)scale(0.16 -0.16)">
       <use xlink:href="#DejaVuSans-48"/>
       <use x="63.623047" xlink:href="#DejaVuSans-46"/>
       <use x="95.410156" xlink:href="#DejaVuSans-54"/>
      </g>
     </g>
    </g>
    <g id="ytick_5">
     <g id="line2d_29">
      <path clip-path="url(#pf264aa4537)" d="M 57.6 84.056079 
L 338.688 84.056079 
" style="fill:none;stroke:#b0b0b0;stroke-linecap:square;stroke-width:0.8;"/>
     </g>
     <g id="line2d_30">
      <g>
       <use style="stroke:#000000;stroke-width:0.8;" x="57.6" xlink:href="#ma80fa590cd" y="84.056079"/>
      </g>
     </g>
     <g id="text_10">
      <!-- 0.8 -->
      <defs>
       <path d="M 31.78125 34.625 
Q 24.75 34.625 20.71875 30.859375 
Q 16.703125 27.09375 16.703125 20.515625 
Q 16.703125 13.921875 20.71875 10.15625 
Q 24.75 6.390625 31.78125 6.390625 
Q 38.8125 6.390625 42.859375 10.171875 
Q 46.921875 13.96875 46.921875 20.515625 
Q 46.921875 27.09375 42.890625 30.859375 
Q 38.875 34.625 31.78125 34.625 
z
M 21.921875 38.8125 
Q 15.578125 40.375 12.03125 44.71875 
Q 8.5 49.078125 8.5 55.328125 
Q 8.5 64.0625 14.71875 69.140625 
Q 20.953125 74.21875 31.78125 74.21875 
Q 42.671875 74.21875 48.875 69.140625 
Q 55.078125 64.0625 55.078125 55.328125 
Q 55.078125 49.078125 51.53125 44.71875 
Q 48 40.375 41.703125 38.8125 
Q 48.828125 37.15625 52.796875 32.3125 
Q 56.78125 27.484375 56.78125 20.515625 
Q 56.78125 9.90625 50.3125 4.234375 
Q 43.84375 -1.421875 31.78125 -1.421875 
Q 19.734375 -1.421875 13.25 4.234375 
Q 6.78125 9.90625 6.78125 20.515625 
Q 6.78125 27.484375 10.78125 32.3125 
Q 14.796875 37.15625 21.921875 38.8125 
z
M 18.3125 54.390625 
Q 18.3125 48.734375 21.84375 45.5625 
Q 25.390625 42.390625 31.78125 42.390625 
Q 38.140625 42.390625 41.71875 45.5625 
Q 45.3125 48.734375 45.3125 54.390625 
Q 45.3125 60.0625 41.71875 63.234375 
Q 38.140625 66.40625 31.78125 66.40625 
Q 25.390625 66.40625 21.84375 63.234375 
Q 18.3125 60.0625 18.3125 54.390625 
z
" id="DejaVuSans-56"/>
      </defs>
      <g transform="translate(25.155 90.134829)scale(0.16 -0.16)">
       <use xlink:href="#DejaVuSans-48"/>
       <use x="63.623047" xlink:href="#DejaVuSans-46"/>
       <use x="95.410156" xlink:href="#DejaVuSans-56"/>
      </g>
     </g>
    </g>
    <g id="ytick_6">
     <g id="line2d_31">
      <path clip-path="url(#pf264aa4537)" d="M 57.6 30.334099 
L 338.688 30.334099 
" style="fill:none;stroke:#b0b0b0;stroke-linecap:square;stroke-width:0.8;"/>
     </g>
     <g id="line2d_32">
      <g>
       <use style="stroke:#000000;stroke-width:0.8;" x="57.6" xlink:href="#ma80fa590cd" y="30.334099"/>
      </g>
     </g>
     <g id="text_11">
      <!-- 1.0 -->
      <g transform="translate(25.155 36.412849)scale(0.16 -0.16)">
       <use xlink:href="#DejaVuSans-49"/>
       <use x="63.623047" xlink:href="#DejaVuSans-46"/>
       <use x="95.410156" xlink:href="#DejaVuSans-48"/>
      </g>
     </g>
    </g>
    <g id="text_12">
     <!-- Fraction of function,target pairs -->
     <defs>
      <path d="M 9.8125 72.90625 
L 51.703125 72.90625 
L 51.703125 64.59375 
L 19.671875 64.59375 
L 19.671875 43.109375 
L 48.578125 43.109375 
L 48.578125 34.8125 
L 19.671875 34.8125 
L 19.671875 0 
L 9.8125 0 
z
" id="DejaVuSans-70"/>
      <path d="M 41.109375 46.296875 
Q 39.59375 47.171875 37.8125 47.578125 
Q 36.03125 48 33.890625 48 
Q 26.265625 48 22.1875 43.046875 
Q 18.109375 38.09375 18.109375 28.8125 
L 18.109375 0 
L 9.078125 0 
L 9.078125 54.6875 
L 18.109375 54.6875 
L 18.109375 46.1875 
Q 20.953125 51.171875 25.484375 53.578125 
Q 30.03125 56 36.53125 56 
Q 37.453125 56 38.578125 55.875 
Q 39.703125 55.765625 41.0625 55.515625 
z
" id="DejaVuSans-114"/>
      <path d="M 48.78125 52.59375 
L 48.78125 44.1875 
Q 44.96875 46.296875 41.140625 47.34375 
Q 37.3125 48.390625 33.40625 48.390625 
Q 24.65625 48.390625 19.8125 42.84375 
Q 14.984375 37.3125 14.984375 27.296875 
Q 14.984375 17.28125 19.8125 11.734375 
Q 24.65625 6.203125 33.40625 6.203125 
Q 37.3125 6.203125 41.140625 7.25 
Q 44.96875 8.296875 48.78125 10.40625 
L 48.78125 2.09375 
Q 45.015625 0.34375 40.984375 -0.53125 
Q 36.96875 -1.421875 32.421875 -1.421875 
Q 20.0625 -1.421875 12.78125 6.34375 
Q 5.515625 14.109375 5.515625 27.296875 
Q 5.515625 40.671875 12.859375 48.328125 
Q 20.21875 56 33.015625 56 
Q 37.15625 56 41.109375 55.140625 
Q 45.0625 54.296875 48.78125 52.59375 
z
" id="DejaVuSans-99"/>
      <path d="M 18.3125 70.21875 
L 18.3125 54.6875 
L 36.8125 54.6875 
L 36.8125 47.703125 
L 18.3125 47.703125 
L 18.3125 18.015625 
Q 18.3125 11.328125 20.140625 9.421875 
Q 21.96875 7.515625 27.59375 7.515625 
L 36.8125 7.515625 
L 36.8125 0 
L 27.59375 0 
Q 17.1875 0 13.234375 3.875 
Q 9.28125 7.765625 9.28125 18.015625 
L 9.28125 47.703125 
L 2.6875 47.703125 
L 2.6875 54.6875 
L 9.28125 54.6875 
L 9.28125 70.21875 
z
" id="DejaVuSans-116"/>
      <path d="M 8.5 21.578125 
L 8.5 54.6875 
L 17.484375 54.6875 
L 17.484375 21.921875 
Q 17.484375 14.15625 20.5 10.265625 
Q 23.53125 6.390625 29.59375 6.390625 
Q 36.859375 6.390625 41.078125 11.03125 
Q 45.3125 15.671875 45.3125 23.6875 
L 45.3125 54.6875 
L 54.296875 54.6875 
L 54.296875 0 
L 45.3125 0 
L 45.3125 8.40625 
Q 42.046875 3.421875 37.71875 1 
Q 33.40625 -1.421875 27.6875 -1.421875 
Q 18.265625 -1.421875 13.375 4.4375 
Q 8.5 10.296875 8.5 21.578125 
z
M 31.109375 56 
z
" id="DejaVuSans-117"/>
      <path d="M 11.71875 12.40625 
L 22.015625 12.40625 
L 22.015625 4 
L 14.015625 -11.625 
L 7.71875 -11.625 
L 11.71875 4 
z
" id="DejaVuSans-44"/>
      <path d="M 18.109375 8.203125 
L 18.109375 -20.796875 
L 9.078125 -20.796875 
L 9.078125 54.6875 
L 18.109375 54.6875 
L 18.109375 46.390625 
Q 20.953125 51.265625 25.265625 53.625 
Q 29.59375 56 35.59375 56 
Q 45.5625 56 51.78125 48.09375 
Q 58.015625 40.1875 58.015625 27.296875 
Q 58.015625 14.40625 51.78125 6.484375 
Q 45.5625 -1.421875 35.59375 -1.421875 
Q 29.59375 -1.421875 25.265625 0.953125 
Q 20.953125 3.328125 18.109375 8.203125 
z
M 48.6875 27.296875 
Q 48.6875 37.203125 44.609375 42.84375 
Q 40.53125 48.484375 33.40625 48.484375 
Q 26.265625 48.484375 22.1875 42.84375 
Q 18.109375 37.203125 18.109375 27.296875 
Q 18.109375 17.390625 22.1875 11.75 
Q 26.265625 6.109375 33.40625 6.109375 
Q 40.53125 6.109375 44.609375 11.75 
Q 48.6875 17.390625 48.6875 27.296875 
z
" id="DejaVuSans-112"/>
     </defs>
     <g transform="translate(17.619531 298.435375)rotate(-90)scale(0.17 -0.17)">
      <use xlink:href="#DejaVuSans-70"/>
      <use x="57.410156" xlink:href="#DejaVuSans-114"/>
      <use x="98.523438" xlink:href="#DejaVuSans-97"/>
      <use x="159.802734" xlink:href="#DejaVuSans-99"/>
      <use x="214.783203" xlink:href="#DejaVuSans-116"/>
      <use x="253.992188" xlink:href="#DejaVuSans-105"/>
      <use x="281.775391" xlink:href="#DejaVuSans-111"/>
      <use x="342.957031" xlink:href="#DejaVuSans-110"/>
      <use x="406.335938" xlink:href="#DejaVuSans-32"/>
      <use x="438.123047" xlink:href="#DejaVuSans-111"/>
      <use x="499.304688" xlink:href="#DejaVuSans-102"/>
      <use x="534.509766" xlink:href="#DejaVuSans-32"/>
      <use x="566.296875" xlink:href="#DejaVuSans-102"/>
      <use x="601.501953" xlink:href="#DejaVuSans-117"/>
      <use x="664.880859" xlink:href="#DejaVuSans-110"/>
      <use x="728.259766" xlink:href="#DejaVuSans-99"/>
      <use x="783.240234" xlink:href="#DejaVuSans-116"/>
      <use x="822.449219" xlink:href="#DejaVuSans-105"/>
      <use x="850.232422" xlink:href="#DejaVuSans-111"/>
      <use x="911.414062" xlink:href="#DejaVuSans-110"/>
      <use x="974.792969" xlink:href="#DejaVuSans-44"/>
      <use x="1006.580078" xlink:href="#DejaVuSans-116"/>
      <use x="1045.789062" xlink:href="#DejaVuSans-97"/>
      <use x="1107.068359" xlink:href="#DejaVuSans-114"/>
      <use x="1148.166016" xlink:href="#DejaVuSans-103"/>
      <use x="1211.642578" xlink:href="#DejaVuSans-101"/>
      <use x="1273.166016" xlink:href="#DejaVuSans-116"/>
      <use x="1312.375" xlink:href="#DejaVuSans-32"/>
      <use x="1344.162109" xlink:href="#DejaVuSans-112"/>
      <use x="1407.638672" xlink:href="#DejaVuSans-97"/>
      <use x="1468.917969" xlink:href="#DejaVuSans-105"/>
      <use x="1496.701172" xlink:href="#DejaVuSans-114"/>
      <use x="1537.814453" xlink:href="#DejaVuSans-115"/>
     </g>
    </g>
   </g>
   <g id="line2d_33">
    <defs>
     <path d="M 0 1.5 
C 0.397805 1.5 0.77937 1.341951 1.06066 1.06066 
C 1.341951 0.77937 1.5 0.397805 1.5 0 
C 1.5 -0.397805 1.341951 -0.77937 1.06066 -1.06066 
C 0.77937 -1.341951 0.397805 -1.5 0 -1.5 
C -0.397805 -1.5 -0.77937 -1.341951 -1.06066 -1.06066 
C -1.341951 -0.77937 -1.5 -0.397805 -1.5 0 
C -1.5 0.397805 -1.341951 0.77937 -1.06066 1.06066 
C -0.77937 1.341951 -0.397805 1.5 0 1.5 
z
" id="mbb48f73365" style="stroke:#f5deb3;"/>
    </defs>
    <g>
     <use style="fill:#f5deb3;stroke:#f5deb3;" x="161.31351" xlink:href="#mbb48f73365" y="30.334099"/>
     <use style="fill:#f5deb3;stroke:#f5deb3;" x="161.31351" xlink:href="#mbb48f73365" y="30.334099"/>
    </g>
   </g>
   <g id="line2d_34">
    <defs>
     <path d="M 0 1.5 
C 0.397805 1.5 0.77937 1.341951 1.06066 1.06066 
C 1.341951 0.77937 1.5 0.397805 1.5 0 
C 1.5 -0.397805 1.341951 -0.77937 1.06066 -1.06066 
C 0.77937 -1.341951 0.397805 -1.5 0 -1.5 
C -0.397805 -1.5 -0.77937 -1.341951 -1.06066 -1.06066 
C -1.341951 -0.77937 -1.5 -0.397805 -1.5 0 
C -1.5 0.397805 -1.341951 0.77937 -1.06066 1.06066 
C -0.77937 1.341951 -0.397805 1.5 0 1.5 
z
" id="m2922205485" style="stroke:#000080;"/>
    </defs>
    <g>
     <use style="fill:#000080;stroke:#000080;" x="301.576951" xlink:href="#m2922205485" y="251.542253"/>
     <use style="fill:#000080;stroke:#000080;" x="301.576951" xlink:href="#m2922205485" y="251.542253"/>
    </g>
   </g>
   <g id="line2d_35">
    <path d="M 127.579875 298.944 
L 127.579875 298.417314 
L 132.565279 298.417314 
L 132.67158 297.363942 
L 133.067415 297.363942 
L 133.067415 296.837256 
L 133.77794 296.837256 
L 133.83311 295.783884 
L 134.073807 295.783884 
L 134.171324 294.730511 
L 135.219673 294.730511 
L 135.219673 294.203825 
L 135.381712 294.203825 
L 135.472201 293.150453 
L 135.927509 293.150453 
L 135.927509 292.623767 
L 136.541835 292.623767 
L 136.617126 291.570395 
L 136.65465 291.570395 
L 136.720123 290.517023 
L 137.107884 290.517023 
L 137.107884 289.990337 
L 137.298578 289.990337 
L 137.298578 289.463651 
L 137.893409 289.463651 
L 137.910857 288.410278 
L 138.023846 288.410278 
L 138.023846 287.883592 
L 138.552866 287.883592 
L 138.552866 287.356906 
L 139.36567 287.356906 
L 139.36567 286.83022 
L 139.856059 286.83022 
L 139.856059 286.303534 
L 139.995884 286.303534 
L 139.995884 285.776848 
L 140.142272 285.776848 
L 140.142272 285.250162 
L 141.314229 285.250162 
L 141.314229 284.723476 
L 142.168169 284.723476 
L 142.168169 284.19679 
L 142.506412 284.19679 
L 142.506412 283.670104 
L 164.609275 283.670104 
L 164.609275 283.143418 
L 164.824867 283.143418 
L 164.824867 282.616732 
L 165.27184 282.616732 
L 165.311747 281.563359 
L 165.434521 281.563359 
L 165.441716 280.509987 
L 165.757166 280.509987 
L 165.797741 279.456615 
L 166.227632 279.456615 
L 166.232789 278.403243 
L 166.593391 278.403243 
L 166.593391 277.876557 
L 166.805895 277.876557 
L 166.805895 277.349871 
L 167.004334 277.349871 
L 167.004334 276.823185 
L 167.713214 276.823185 
L 167.713214 276.296499 
L 168.975242 276.296499 
L 168.975242 275.769812 
L 179.746649 275.769812 
L 179.746649 275.243126 
L 180.638079 275.243126 
L 180.65312 274.189754 
L 181.042659 274.189754 
L 181.042659 273.663068 
L 181.363162 273.663068 
L 181.363162 273.136382 
L 181.704798 273.136382 
L 181.704798 272.609696 
L 182.110543 272.609696 
L 182.110543 272.08301 
L 191.249644 272.08301 
L 191.341118 271.029638 
L 192.102205 271.029638 
L 192.102205 270.502952 
L 192.644617 270.502952 
L 192.644617 269.976266 
L 193.1769 269.976266 
L 193.1769 269.449579 
L 193.358519 269.449579 
L 193.358519 268.922893 
L 193.905662 268.922893 
L 193.905662 268.396207 
L 194.344171 268.396207 
L 194.344171 267.869521 
L 203.525775 267.869521 
L 203.525775 267.342835 
L 204.292245 267.342835 
L 204.292245 266.816149 
L 205.39364 266.816149 
L 205.456301 265.236091 
L 205.530656 265.236091 
L 205.530656 264.709405 
L 215.959166 264.709405 
L 215.959166 264.182719 
L 216.108924 264.182719 
L 216.108924 263.656033 
L 216.636216 263.656033 
L 216.636216 263.129347 
L 217.299363 263.129347 
L 217.299363 262.60266 
L 232.179791 262.60266 
L 232.179791 262.075974 
L 234.45796 262.075974 
L 234.463733 260.495916 
L 236.66064 260.495916 
L 236.66064 259.96923 
L 245.915751 259.96923 
L 245.958904 258.915858 
L 246.132177 258.915858 
L 246.132177 258.389172 
L 251.863065 258.389172 
L 251.920257 257.3358 
L 255.636257 257.3358 
L 255.636257 256.809114 
L 256.34665 256.809114 
L 256.367934 255.755741 
L 262.840948 255.755741 
L 262.840948 255.229055 
L 265.354764 255.229055 
L 265.357628 254.175683 
L 272.841962 254.175683 
L 272.841962 253.648997 
L 274.317728 253.648997 
L 274.317728 253.122311 
L 276.912032 253.122311 
L 276.912032 252.595625 
L 289.327358 252.595625 
L 289.327358 252.068939 
L 301.576951 252.068939 
L 301.576951 251.542253 
L 338.688 251.542253 
L 338.688 251.542253 
" style="fill:none;stroke:#000080;stroke-linecap:square;stroke-width:1.5;"/>
   </g>
   <g id="line2d_36">
    <defs>
     <path d="M 0 6 
C 1.591219 6 3.117479 5.367802 4.242641 4.242641 
C 5.367802 3.117479 6 1.591219 6 0 
C 6 -1.591219 5.367802 -3.117479 4.242641 -4.242641 
C 3.117479 -5.367802 1.591219 -6 0 -6 
C -1.591219 -6 -3.117479 -5.367802 -4.242641 -4.242641 
C -5.367802 -3.117479 -6 -1.591219 -6 0 
C -6 1.591219 -5.367802 3.117479 -4.242641 4.242641 
C -3.117479 5.367802 -1.591219 6 0 6 
z
" id="m0b6d33776f" style="stroke:#000080;stroke-width:1.5;"/>
    </defs>
    <g>
     <use style="fill-opacity:0;stroke:#000080;stroke-width:1.5;" x="142.506412" xlink:href="#m0b6d33776f" y="283.670104"/>
     <use style="fill-opacity:0;stroke:#000080;stroke-width:1.5;" x="205.530656" xlink:href="#m0b6d33776f" y="264.709405"/>
     <use style="fill-opacity:0;stroke:#000080;stroke-width:1.5;" x="274.317728" xlink:href="#m0b6d33776f" y="253.122311"/>
     <use style="fill-opacity:0;stroke:#000080;stroke-width:1.5;" x="301.576951" xlink:href="#m0b6d33776f" y="251.542253"/>
     <use style="fill-opacity:0;stroke:#000080;stroke-width:1.5;" x="338.688" xlink:href="#m0b6d33776f" y="251.542253"/>
    </g>
   </g>
   <g id="line2d_37">
    <path style="fill:none;stroke:#000080;stroke-linecap:square;stroke-width:1.5;"/>
    <g/>
   </g>
   <g id="line2d_38">
    <path clip-path="url(#pf264aa4537)" d="M 230.33397 262.60266 
" style="fill:none;stroke:#000080;stroke-linecap:square;stroke-width:1.5;"/>
    <defs>
     <path d="M -12 12 
L 12 -12 
M -12 -12 
L 12 12 
" id="m23965cc4e5" style="stroke:#000080;"/>
    </defs>
    <g clip-path="url(#pf264aa4537)">
     <use style="fill:#000080;stroke:#000080;" x="230.33397" xlink:href="#m23965cc4e5" y="262.60266"/>
    </g>
   </g>
   <g id="line2d_39">
    <g>
     <use style="fill:#000080;stroke:#000080;" x="298.637935" xlink:href="#m2922205485" y="256.809114"/>
     <use style="fill:#000080;stroke:#000080;" x="298.637935" xlink:href="#m2922205485" y="256.809114"/>
    </g>
   </g>
   <g id="line2d_40">
    <path d="M 131.004728 298.944 
L 131.004728 298.417314 
L 131.690703 298.417314 
L 131.690703 297.890628 
L 131.974877 297.890628 
L 131.974877 297.363942 
L 132.67158 297.363942 
L 132.67158 296.837256 
L 133.398082 296.837256 
L 133.398082 296.31057 
L 133.622529 296.31057 
L 133.722595 295.257197 
L 133.788988 295.257197 
L 133.788988 294.730511 
L 133.964811 294.730511 
L 133.964811 294.203825 
L 134.503103 294.203825 
L 134.503103 293.677139 
L 135.127861 293.677139 
L 135.127861 293.150453 
L 135.39179 293.150453 
L 135.39179 292.623767 
L 135.592128 292.623767 
L 135.681535 291.570395 
L 136.044356 291.570395 
L 136.112156 289.990337 
L 136.218171 289.990337 
L 136.218171 289.463651 
L 136.701442 289.463651 
L 136.701442 288.936964 
L 137.664982 288.936964 
L 137.664982 288.410278 
L 137.997836 288.410278 
L 137.997836 287.883592 
L 138.161911 287.883592 
L 138.161911 287.356906 
L 139.301378 287.356906 
L 139.301378 286.83022 
L 139.887228 286.83022 
L 139.887228 286.303534 
L 140.057671 286.303534 
L 140.057671 285.776848 
L 140.218827 285.776848 
L 140.218827 285.250162 
L 140.611586 285.250162 
L 140.611586 284.723476 
L 141.1122 284.723476 
L 141.1122 284.19679 
L 142.249947 284.19679 
L 142.249947 283.670104 
L 165.032303 283.670104 
L 165.032303 283.143418 
L 165.843495 283.143418 
L 165.843495 282.616732 
L 166.080887 282.616732 
L 166.080887 282.090045 
L 166.227632 282.090045 
L 166.227632 281.563359 
L 166.456493 281.563359 
L 166.510705 280.509987 
L 167.150064 280.509987 
L 167.171249 279.456615 
L 167.474773 279.456615 
L 167.474773 278.929929 
L 168.067966 278.929929 
L 168.143604 277.876557 
L 169.128764 277.876557 
L 169.128764 277.349871 
L 179.051991 277.349871 
L 179.051991 276.823185 
L 179.976355 276.823185 
L 179.976355 276.296499 
L 180.870521 276.296499 
L 180.870521 275.769812 
L 181.268354 275.769812 
L 181.370378 274.71644 
L 181.597596 274.71644 
L 181.597596 274.189754 
L 182.201581 274.189754 
L 182.201581 273.663068 
L 182.565097 273.663068 
L 182.565097 273.136382 
L 183.242314 273.136382 
L 183.242314 272.609696 
L 183.635737 272.609696 
L 183.635737 272.08301 
L 192.409457 272.08301 
L 192.4175 271.029638 
L 192.747873 271.029638 
L 192.791404 269.976266 
L 193.149016 269.976266 
L 193.149016 269.449579 
L 193.531442 269.449579 
L 193.531442 268.922893 
L 194.339027 268.922893 
L 194.339027 268.396207 
L 203.700885 268.396207 
L 203.700885 267.869521 
L 203.943598 267.869521 
L 203.9902 266.816149 
L 204.654381 266.816149 
L 204.683022 265.762777 
L 204.876769 265.762777 
L 204.876769 265.236091 
L 205.738109 265.236091 
L 205.738109 264.709405 
L 216.557062 264.709405 
L 216.557062 264.182719 
L 217.559059 264.182719 
L 217.559059 263.656033 
L 226.205441 263.656033 
L 226.205441 263.129347 
L 226.89495 263.129347 
L 226.89495 262.60266 
L 237.062239 262.60266 
L 237.062239 262.075974 
L 258.799817 262.075974 
L 258.799817 261.549288 
L 271.291602 261.549288 
L 271.293298 260.495916 
L 278.078862 260.495916 
L 278.107611 258.915858 
L 282.704458 258.915858 
L 282.780353 257.862486 
L 286.62628 257.862486 
L 286.62628 257.3358 
L 298.637935 257.3358 
L 298.637935 256.809114 
L 338.688 256.809114 
L 338.688 256.809114 
" style="fill:none;stroke:#000080;stroke-linecap:square;stroke-width:1.5;"/>
   </g>
   <g id="line2d_41">
    <g>
     <use style="fill-opacity:0;stroke:#000080;stroke-width:1.5;" x="142.249947" xlink:href="#m0b6d33776f" y="283.670104"/>
     <use style="fill-opacity:0;stroke:#000080;stroke-width:1.5;" x="226.89495" xlink:href="#m0b6d33776f" y="263.129347"/>
     <use style="fill-opacity:0;stroke:#000080;stroke-width:1.5;" x="286.62628" xlink:href="#m0b6d33776f" y="257.862486"/>
     <use style="fill-opacity:0;stroke:#000080;stroke-width:1.5;" x="298.637935" xlink:href="#m0b6d33776f" y="256.809114"/>
     <use style="fill-opacity:0;stroke:#000080;stroke-width:1.5;" x="338.688" xlink:href="#m0b6d33776f" y="256.809114"/>
    </g>
   </g>
   <g id="line2d_42">
    <path style="fill:none;stroke:#000080;stroke-linecap:square;stroke-width:1.5;"/>
    <g/>
   </g>
   <g id="line2d_43">
    <path clip-path="url(#pf264aa4537)" d="M 258.415632 262.075974 
" style="fill:none;stroke:#000080;stroke-linecap:square;stroke-width:1.5;"/>
    <g clip-path="url(#pf264aa4537)">
     <use style="fill:#000080;stroke:#000080;" x="258.415632" xlink:href="#m23965cc4e5" y="262.075974"/>
    </g>
   </g>
   <g id="line2d_44">
    <defs>
     <path d="M 0 1.5 
C 0.397805 1.5 0.77937 1.341951 1.06066 1.06066 
C 1.341951 0.77937 1.5 0.397805 1.5 0 
C 1.5 -0.397805 1.341951 -0.77937 1.06066 -1.06066 
C 0.77937 -1.341951 0.397805 -1.5 0 -1.5 
C -0.397805 -1.5 -0.77937 -1.341951 -1.06066 -1.06066 
C -1.341951 -0.77937 -1.5 -0.397805 -1.5 0 
C -1.5 0.397805 -1.341951 0.77937 -1.06066 1.06066 
C -0.77937 1.341951 -0.397805 1.5 0 1.5 
z
" id="m3d89c30929" style="stroke:#ff00ff;"/>
    </defs>
    <g>
     <use style="fill:#ff00ff;stroke:#ff00ff;" x="302.923964" xlink:href="#m3d89c30929" y="251.542253"/>
     <use style="fill:#ff00ff;stroke:#ff00ff;" x="302.923964" xlink:href="#m3d89c30929" y="251.542253"/>
    </g>
   </g>
   <g id="line2d_45">
    <path d="M 142.120287 298.944 
L 142.120287 298.417314 
L 143.40093 298.417314 
L 143.40093 297.890628 
L 143.534079 297.890628 
L 143.534079 297.363942 
L 144.718306 297.363942 
L 144.718306 296.837256 
L 144.871077 296.837256 
L 144.871077 296.31057 
L 145.207127 296.31057 
L 145.207127 295.783884 
L 145.48607 295.783884 
L 145.48607 295.257197 
L 145.710517 295.257197 
L 145.710517 294.730511 
L 145.871453 294.730511 
L 145.871453 294.203825 
L 146.484754 294.203825 
L 146.484754 293.677139 
L 146.691515 293.677139 
L 146.691515 293.150453 
L 146.84891 293.150453 
L 146.84891 292.623767 
L 147.414169 292.623767 
L 147.479778 291.570395 
L 147.986163 291.570395 
L 148.054534 290.517023 
L 148.190475 290.517023 
L 148.190475 289.990337 
L 148.306159 289.990337 
L 148.306159 289.463651 
L 148.639252 289.463651 
L 148.705114 288.410278 
L 148.87334 288.410278 
L 148.87334 287.883592 
L 149.534949 287.883592 
L 149.534949 287.356906 
L 149.757392 287.356906 
L 149.757392 286.83022 
L 150.01192 286.83022 
L 150.01192 286.303534 
L 150.301393 286.303534 
L 150.301393 285.776848 
L 150.416702 285.776848 
L 150.454969 284.19679 
L 150.845558 284.19679 
L 150.845558 283.670104 
L 151.219462 283.670104 
L 151.219462 283.143418 
L 151.676833 283.143418 
L 151.708484 282.090045 
L 152.072263 282.090045 
L 152.072263 281.563359 
L 152.291531 281.563359 
L 152.291531 281.036673 
L 152.826082 281.036673 
L 152.826082 280.509987 
L 153.644434 280.509987 
L 153.746717 279.456615 
L 154.671277 279.456615 
L 154.671277 278.929929 
L 154.89331 278.929929 
L 154.89331 278.403243 
L 155.053921 278.403243 
L 155.053921 277.876557 
L 155.514359 277.876557 
L 155.514359 277.349871 
L 156.260804 277.349871 
L 156.260804 276.823185 
L 156.918066 276.823185 
L 156.918066 276.296499 
L 157.165519 276.296499 
L 157.165519 275.769812 
L 157.762229 275.769812 
L 157.792929 274.71644 
L 158.088775 274.71644 
L 158.088775 274.189754 
L 158.816356 274.189754 
L 158.816356 273.663068 
L 159.718236 273.663068 
L 159.718236 273.136382 
L 174.438764 273.136382 
L 174.438764 272.609696 
L 175.055766 272.609696 
L 175.055766 272.08301 
L 175.29147 272.08301 
L 175.29147 271.556324 
L 176.229843 271.556324 
L 176.300422 270.502952 
L 176.352448 270.502952 
L 176.352448 269.976266 
L 177.205695 269.976266 
L 177.205695 269.449579 
L 178.005141 269.449579 
L 178.031372 268.396207 
L 178.473923 268.396207 
L 178.556354 267.342835 
L 178.801336 267.342835 
L 178.86642 266.289463 
L 179.264937 266.289463 
L 179.264937 265.762777 
L 179.794886 265.762777 
L 179.794886 265.236091 
L 180.120337 265.236091 
L 180.120337 264.709405 
L 191.213165 264.709405 
L 191.213165 264.182719 
L 192.187386 264.182719 
L 192.187386 263.656033 
L 193.494763 263.656033 
L 193.494763 263.129347 
L 193.887369 263.129347 
L 193.887369 262.60266 
L 231.212849 262.60266 
L 231.243415 261.549288 
L 231.509779 261.549288 
L 231.509779 261.022602 
L 233.446044 261.022602 
L 233.446044 260.495916 
L 240.195251 260.495916 
L 240.195251 259.96923 
L 240.428431 259.96923 
L 240.428431 259.442544 
L 242.307033 259.442544 
L 242.307033 258.915858 
L 242.847528 258.915858 
L 242.847528 258.389172 
L 243.452438 258.389172 
L 243.452438 257.862486 
L 244.164057 257.862486 
L 244.164057 257.3358 
L 249.858537 257.3358 
L 249.858537 256.809114 
L 258.084317 256.809114 
L 258.084317 256.282427 
L 269.68497 256.282427 
L 269.68497 255.755741 
L 271.109582 255.755741 
L 271.109582 255.229055 
L 273.910512 255.229055 
L 273.910512 254.702369 
L 275.744103 254.702369 
L 275.744103 254.175683 
L 287.280198 254.175683 
L 287.280198 253.648997 
L 290.435065 253.648997 
L 290.435065 253.122311 
L 295.74928 253.122311 
L 295.74928 252.595625 
L 297.918758 252.595625 
L 297.918758 252.068939 
L 302.923964 252.068939 
L 302.923964 251.542253 
L 338.688 251.542253 
L 338.688 251.542253 
" style="fill:none;stroke:#ff00ff;stroke-linecap:square;stroke-width:1.5;"/>
   </g>
   <g id="line2d_46">
    <defs>
     <path d="M -0 8.485281 
L 5.091169 0 
L 0 -8.485281 
L -5.091169 -0 
z
" id="m05bd8137e9" style="stroke:#ff00ff;stroke-linejoin:miter;stroke-width:1.5;"/>
    </defs>
    <g>
     <use style="fill-opacity:0;stroke:#ff00ff;stroke-linejoin:miter;stroke-width:1.5;" x="180.120337" xlink:href="#m05bd8137e9" y="264.709405"/>
     <use style="fill-opacity:0;stroke:#ff00ff;stroke-linejoin:miter;stroke-width:1.5;" x="249.858537" xlink:href="#m05bd8137e9" y="257.3358"/>
     <use style="fill-opacity:0;stroke:#ff00ff;stroke-linejoin:miter;stroke-width:1.5;" x="302.923964" xlink:href="#m05bd8137e9" y="252.068939"/>
     <use style="fill-opacity:0;stroke:#ff00ff;stroke-linejoin:miter;stroke-width:1.5;" x="302.923964" xlink:href="#m05bd8137e9" y="251.542253"/>
     <use style="fill-opacity:0;stroke:#ff00ff;stroke-linejoin:miter;stroke-width:1.5;" x="338.688" xlink:href="#m05bd8137e9" y="251.542253"/>
    </g>
   </g>
   <g id="line2d_47">
    <path style="fill:none;stroke:#ff00ff;stroke-linecap:square;stroke-width:1.5;"/>
    <g/>
   </g>
   <g id="line2d_48">
    <path clip-path="url(#pf264aa4537)" d="M 230.315675 262.60266 
" style="fill:none;stroke:#ff00ff;stroke-linecap:square;stroke-width:1.5;"/>
    <defs>
     <path d="M -12 12 
L 12 -12 
M -12 -12 
L 12 12 
" id="m5b764be378" style="stroke:#ff00ff;"/>
    </defs>
    <g clip-path="url(#pf264aa4537)">
     <use style="fill:#ff00ff;stroke:#ff00ff;" x="230.315675" xlink:href="#m5b764be378" y="262.60266"/>
    </g>
   </g>
   <g id="line2d_49">
    <defs>
     <path d="M 0 1.5 
C 0.397805 1.5 0.77937 1.341951 1.06066 1.06066 
C 1.341951 0.77937 1.5 0.397805 1.5 0 
C 1.5 -0.397805 1.341951 -0.77937 1.06066 -1.06066 
C 0.77937 -1.341951 0.397805 -1.5 0 -1.5 
C -0.397805 -1.5 -0.77937 -1.341951 -1.06066 -1.06066 
C -1.341951 -0.77937 -1.5 -0.397805 -1.5 0 
C -1.5 0.397805 -1.341951 0.77937 -1.06066 1.06066 
C -0.77937 1.341951 -0.397805 1.5 0 1.5 
z
" id="mffc63a1a91" style="stroke:#ff0000;"/>
    </defs>
    <g>
     <use style="fill:#ff0000;stroke:#ff0000;" x="299.93626" xlink:href="#mffc63a1a91" y="241.008531"/>
     <use style="fill:#ff0000;stroke:#ff0000;" x="299.93626" xlink:href="#mffc63a1a91" y="241.008531"/>
    </g>
   </g>
   <g id="line2d_50">
    <path d="M 133.788988 298.944 
L 133.788988 298.417314 
L 134.428735 298.417314 
L 134.428735 297.890628 
L 134.942772 297.890628 
L 134.942772 297.363942 
L 136.256562 297.363942 
L 136.256562 296.837256 
L 138.628343 296.837256 
L 138.628343 296.31057 
L 138.803195 296.31057 
L 138.803195 295.783884 
L 139.082624 295.783884 
L 139.163964 294.730511 
L 139.493548 294.730511 
L 139.565069 293.677139 
L 139.770054 293.677139 
L 139.770054 293.150453 
L 140.234098 293.150453 
L 140.234098 292.623767 
L 140.438956 292.623767 
L 140.438956 292.097081 
L 141.068601 292.097081 
L 141.068601 291.570395 
L 141.704386 291.570395 
L 141.71841 290.517023 
L 141.871938 290.517023 
L 141.934358 289.463651 
L 142.249947 289.463651 
L 142.249947 288.936964 
L 142.67974 288.936964 
L 142.778958 287.883592 
L 143.131543 287.883592 
L 143.131543 287.356906 
L 143.343554 287.356906 
L 143.343554 286.83022 
L 143.47714 286.83022 
L 143.47714 286.303534 
L 143.908998 286.303534 
L 143.908998 285.776848 
L 144.245733 285.776848 
L 144.245733 285.250162 
L 144.835941 285.250162 
L 144.835941 284.723476 
L 144.993499 284.723476 
L 145.063071 283.143418 
L 145.677034 283.143418 
L 145.677034 282.616732 
L 146.074653 282.616732 
L 146.118279 281.563359 
L 147.169761 281.563359 
L 147.169761 281.036673 
L 148.195311 281.036673 
L 148.195311 280.509987 
L 148.397201 280.509987 
L 148.397201 279.983301 
L 148.929057 279.983301 
L 148.929057 279.456615 
L 150.602994 279.456615 
L 150.602994 278.929929 
L 151.936246 278.929929 
L 151.936246 278.403243 
L 153.562884 278.403243 
L 153.562884 277.876557 
L 155.086518 277.876557 
L 155.086518 277.349871 
L 170.215104 277.349871 
L 170.215104 276.823185 
L 170.646059 276.823185 
L 170.646059 276.296499 
L 170.867492 276.296499 
L 170.867492 275.769812 
L 171.007905 275.769812 
L 171.007905 275.243126 
L 171.625505 275.243126 
L 171.625505 274.71644 
L 173.668339 274.71644 
L 173.668339 274.189754 
L 184.671916 274.189754 
L 184.702338 273.136382 
L 184.988438 273.136382 
L 184.988438 272.609696 
L 185.32349 272.609696 
L 185.32349 272.08301 
L 185.602488 272.08301 
L 185.602488 271.556324 
L 185.750155 271.556324 
L 185.750155 271.029638 
L 186.063302 271.029638 
L 186.063302 270.502952 
L 186.184157 270.502952 
L 186.274796 269.449579 
L 186.296023 269.449579 
L 186.38879 268.396207 
L 186.422843 268.396207 
L 186.422843 267.869521 
L 186.58677 267.869521 
L 186.662035 266.816149 
L 186.726897 266.816149 
L 186.832708 265.762777 
L 187.536701 265.762777 
L 187.536701 265.236091 
L 196.263336 265.236091 
L 196.339952 264.182719 
L 196.583488 264.182719 
L 196.583488 263.656033 
L 196.718063 263.656033 
L 196.718063 263.129347 
L 197.066164 263.129347 
L 197.066164 262.60266 
L 197.943059 262.60266 
L 197.943059 262.075974 
L 198.229942 262.075974 
L 198.229942 261.549288 
L 206.677462 261.549288 
L 206.677462 261.022602 
L 208.216741 261.022602 
L 208.216741 260.495916 
L 208.458493 260.495916 
L 208.458493 259.96923 
L 208.887849 259.96923 
L 208.887849 259.442544 
L 209.281864 259.442544 
L 209.281864 258.915858 
L 219.453872 258.915858 
L 219.453872 258.389172 
L 232.846738 258.389172 
L 232.891951 257.3358 
L 234.662759 257.3358 
L 234.662759 256.809114 
L 242.215307 256.809114 
L 242.227726 255.229055 
L 243.619934 255.229055 
L 243.708502 251.542253 
L 250.308556 251.542253 
L 250.356147 249.962195 
L 261.986017 249.962195 
L 261.986017 249.435508 
L 264.611996 249.435508 
L 264.638547 247.85545 
L 268.915617 247.85545 
L 268.939144 246.802078 
L 272.385658 246.802078 
L 272.385658 246.275392 
L 273.863969 246.275392 
L 273.863969 245.748706 
L 275.251146 245.748706 
L 275.251146 245.22202 
L 277.714742 245.22202 
L 277.725087 243.641962 
L 278.830823 243.641962 
L 278.830823 243.115275 
L 284.344167 243.115275 
L 284.344167 242.588589 
L 289.718955 242.588589 
L 289.718955 242.061903 
L 292.886737 242.061903 
L 292.886737 241.535217 
L 299.93626 241.535217 
L 299.93626 241.008531 
L 338.688 241.008531 
L 338.688 241.008531 
" style="fill:none;stroke:#ff0000;stroke-linecap:square;stroke-width:1.5;"/>
   </g>
   <g id="line2d_51">
    <defs>
     <path d="M 0 -6 
L -5.196152 -3 
L -5.196152 3 
L -0 6 
L 5.196152 3 
L 5.196152 -3 
z
" id="maf0655672d" style="stroke:#ff0000;stroke-linejoin:miter;stroke-width:1.5;"/>
    </defs>
    <g>
     <use style="fill-opacity:0;stroke:#ff0000;stroke-linejoin:miter;stroke-width:1.5;" x="198.229942" xlink:href="#maf0655672d" y="262.075974"/>
     <use style="fill-opacity:0;stroke:#ff0000;stroke-linejoin:miter;stroke-width:1.5;" x="272.385658" xlink:href="#maf0655672d" y="246.802078"/>
     <use style="fill-opacity:0;stroke:#ff0000;stroke-linejoin:miter;stroke-width:1.5;" x="299.93626" xlink:href="#maf0655672d" y="241.008531"/>
     <use style="fill-opacity:0;stroke:#ff0000;stroke-linejoin:miter;stroke-width:1.5;" x="299.93626" xlink:href="#maf0655672d" y="241.008531"/>
     <use style="fill-opacity:0;stroke:#ff0000;stroke-linejoin:miter;stroke-width:1.5;" x="338.688" xlink:href="#maf0655672d" y="241.008531"/>
    </g>
   </g>
   <g id="line2d_52">
    <path style="fill:none;stroke:#ff0000;stroke-linecap:square;stroke-width:1.5;"/>
    <g/>
   </g>
   <g id="line2d_53">
    <path clip-path="url(#pf264aa4537)" d="M 230.321906 258.389172 
" style="fill:none;stroke:#ff0000;stroke-linecap:square;stroke-width:1.5;"/>
    <defs>
     <path d="M -12 12 
L 12 -12 
M -12 -12 
L 12 12 
" id="m71ba7808c9" style="stroke:#ff0000;"/>
    </defs>
    <g clip-path="url(#pf264aa4537)">
     <use style="fill:#ff0000;stroke:#ff0000;" x="230.321906" xlink:href="#m71ba7808c9" y="258.389172"/>
    </g>
   </g>
   <g id="line2d_54">
    <defs>
     <path d="M 0 1.5 
C 0.397805 1.5 0.77937 1.341951 1.06066 1.06066 
C 1.341951 0.77937 1.5 0.397805 1.5 0 
C 1.5 -0.397805 1.341951 -0.77937 1.06066 -1.06066 
C 0.77937 -1.341951 0.397805 -1.5 0 -1.5 
C -0.397805 -1.5 -0.77937 -1.341951 -1.06066 -1.06066 
C -1.341951 -0.77937 -1.5 -0.397805 -1.5 0 
C -1.5 0.397805 -1.341951 0.77937 -1.06066 1.06066 
C -0.77937 1.341951 -0.397805 1.5 0 1.5 
z
" id="m45022b788a" style="stroke:#ff7500;"/>
    </defs>
    <g>
     <use style="fill:#ff7500;stroke:#ff7500;" x="262.922391" xlink:href="#m45022b788a" y="256.809114"/>
     <use style="fill:#ff7500;stroke:#ff7500;" x="262.922391" xlink:href="#m45022b788a" y="256.809114"/>
    </g>
   </g>
   <g id="line2d_55">
    <path d="M 131.401821 298.944 
L 131.490249 297.890628 
L 131.962617 297.890628 
L 131.962617 297.363942 
L 132.470242 297.363942 
L 132.470242 296.837256 
L 133.386783 296.837256 
L 133.386783 296.31057 
L 133.997581 296.31057 
L 133.997581 295.783884 
L 134.149701 295.783884 
L 134.149701 295.257197 
L 134.566596 295.257197 
L 134.61933 294.203825 
L 134.703375 294.203825 
L 134.703375 293.677139 
L 134.932432 293.677139 
L 134.932432 293.150453 
L 135.138086 293.150453 
L 135.168726 292.097081 
L 135.849174 292.097081 
L 135.917737 290.517023 
L 136.607732 290.517023 
L 136.68274 289.463651 
L 137.406618 289.463651 
L 137.406618 288.936964 
L 137.656136 288.936964 
L 137.717962 287.356906 
L 138.935249 287.356906 
L 138.935249 286.83022 
L 139.188293 286.83022 
L 139.188293 286.303534 
L 139.341588 286.303534 
L 139.413734 285.250162 
L 139.652088 285.250162 
L 139.652088 284.723476 
L 140.804698 284.723476 
L 140.804698 284.19679 
L 141.075875 284.19679 
L 141.075875 283.670104 
L 141.307054 283.670104 
L 141.307054 283.143418 
L 142.726112 283.143418 
L 142.726112 282.616732 
L 148.993835 282.616732 
L 148.993835 282.090045 
L 166.623668 282.090045 
L 166.623668 281.563359 
L 166.981298 281.563359 
L 166.981298 281.036673 
L 167.177763 281.036673 
L 167.177763 280.509987 
L 167.334969 280.509987 
L 167.334969 279.983301 
L 167.817104 279.983301 
L 167.817104 279.456615 
L 167.951554 279.456615 
L 167.951554 278.929929 
L 168.1174 278.929929 
L 168.1174 278.403243 
L 168.240374 278.403243 
L 168.240374 277.876557 
L 168.560621 277.876557 
L 168.58767 276.823185 
L 168.798117 276.823185 
L 168.829244 275.769812 
L 169.329942 275.769812 
L 169.329942 275.243126 
L 170.288808 275.243126 
L 170.288808 274.71644 
L 181.850692 274.71644 
L 181.850692 274.189754 
L 181.989808 274.189754 
L 182.066925 273.136382 
L 182.379521 273.136382 
L 182.379521 272.609696 
L 182.758716 272.609696 
L 182.758716 272.08301 
L 183.548719 272.08301 
L 183.548719 271.556324 
L 183.91293 271.556324 
L 183.91293 271.029638 
L 185.649968 271.029638 
L 185.649968 270.502952 
L 193.966733 270.502952 
L 193.966733 269.976266 
L 194.081625 269.976266 
L 194.081625 269.449579 
L 194.246869 269.449579 
L 194.246869 268.922893 
L 195.563008 268.922893 
L 195.563008 268.396207 
L 195.928745 268.396207 
L 195.928745 267.869521 
L 196.077452 267.869521 
L 196.077452 267.342835 
L 196.267943 267.342835 
L 196.267943 266.816149 
L 196.459109 266.816149 
L 196.459109 266.289463 
L 205.692559 266.289463 
L 205.692559 265.762777 
L 206.007006 265.762777 
L 206.007006 265.236091 
L 206.355015 265.236091 
L 206.355015 264.709405 
L 206.8281 264.709405 
L 206.8281 264.182719 
L 206.997541 264.182719 
L 206.997541 263.656033 
L 207.220003 263.656033 
L 207.220003 263.129347 
L 207.451795 263.129347 
L 207.451795 262.60266 
L 217.689988 262.60266 
L 217.689988 262.075974 
L 227.320724 262.075974 
L 227.320724 261.549288 
L 228.439853 261.549288 
L 228.439853 261.022602 
L 234.495656 261.022602 
L 234.495656 260.495916 
L 237.183772 260.495916 
L 237.183772 259.96923 
L 244.615348 259.96923 
L 244.62502 258.915858 
L 246.47849 258.915858 
L 246.47849 258.389172 
L 252.293525 258.389172 
L 252.293525 257.862486 
L 260.130348 257.862486 
L 260.130348 257.3358 
L 262.922391 257.3358 
L 262.922391 256.809114 
L 338.688 256.809114 
L 338.688 256.809114 
" style="fill:none;stroke:#ff7500;stroke-linecap:square;stroke-width:1.5;"/>
   </g>
   <g id="line2d_56">
    <defs>
     <path d="M 0 -6 
L -1.347084 -1.854102 
L -5.706339 -1.854102 
L -2.179628 0.708204 
L -3.526712 4.854102 
L -0 2.291796 
L 3.526712 4.854102 
L 2.179628 0.708204 
L 5.706339 -1.854102 
L 1.347084 -1.854102 
z
" id="m62555afd97" style="stroke:#ff7500;stroke-linejoin:bevel;stroke-width:1.5;"/>
    </defs>
    <g>
     <use style="fill-opacity:0;stroke:#ff7500;stroke-linejoin:bevel;stroke-width:1.5;" x="148.993835" xlink:href="#m62555afd97" y="282.090045"/>
     <use style="fill-opacity:0;stroke:#ff7500;stroke-linejoin:bevel;stroke-width:1.5;" x="237.183772" xlink:href="#m62555afd97" y="260.495916"/>
     <use style="fill-opacity:0;stroke:#ff7500;stroke-linejoin:bevel;stroke-width:1.5;" x="262.922391" xlink:href="#m62555afd97" y="256.809114"/>
     <use style="fill-opacity:0;stroke:#ff7500;stroke-linejoin:bevel;stroke-width:1.5;" x="262.922391" xlink:href="#m62555afd97" y="256.809114"/>
     <use style="fill-opacity:0;stroke:#ff7500;stroke-linejoin:bevel;stroke-width:1.5;" x="338.688" xlink:href="#m62555afd97" y="256.809114"/>
    </g>
   </g>
   <g id="line2d_57">
    <path style="fill:none;stroke:#ff7500;stroke-linecap:square;stroke-width:1.5;"/>
    <g/>
   </g>
   <g id="line2d_58">
    <path clip-path="url(#pf264aa4537)" d="M 230.329224 261.022602 
" style="fill:none;stroke:#ff7500;stroke-linecap:square;stroke-width:1.5;"/>
    <defs>
     <path d="M -12 12 
L 12 -12 
M -12 -12 
L 12 12 
" id="m69ce8dcc1b" style="stroke:#ff7500;"/>
    </defs>
    <g clip-path="url(#pf264aa4537)">
     <use style="fill:#ff7500;stroke:#ff7500;" x="230.329224" xlink:href="#m69ce8dcc1b" y="261.022602"/>
    </g>
   </g>
   <g id="line2d_59">
    <defs>
     <path d="M 0 1.5 
C 0.397805 1.5 0.77937 1.341951 1.06066 1.06066 
C 1.341951 0.77937 1.5 0.397805 1.5 0 
C 1.5 -0.397805 1.341951 -0.77937 1.06066 -1.06066 
C 0.77937 -1.341951 0.397805 -1.5 0 -1.5 
C -0.397805 -1.5 -0.77937 -1.341951 -1.06066 -1.06066 
C -1.341951 -0.77937 -1.5 -0.397805 -1.5 0 
C -1.5 0.397805 -1.341951 0.77937 -1.06066 1.06066 
C -0.77937 1.341951 -0.397805 1.5 0 1.5 
z
" id="mc7eb8fcdb8" style="stroke:#9acd32;"/>
    </defs>
    <g>
     <use style="fill:#9acd32;stroke:#9acd32;" x="278.579346" xlink:href="#mc7eb8fcdb8" y="256.809114"/>
     <use style="fill:#9acd32;stroke:#9acd32;" x="278.579346" xlink:href="#mc7eb8fcdb8" y="256.809114"/>
    </g>
   </g>
   <g id="line2d_60">
    <path d="M 131.376473 298.944 
L 131.376473 298.417314 
L 131.876558 298.417314 
L 131.876558 297.890628 
L 132.905511 297.890628 
L 132.905511 297.363942 
L 133.262014 297.363942 
L 133.262014 296.837256 
L 133.800029 296.837256 
L 133.83311 295.783884 
L 134.12805 295.783884 
L 134.12805 295.257197 
L 134.671906 295.257197 
L 134.671906 294.730511 
L 135.472201 294.730511 
L 135.472201 294.203825 
L 135.966545 294.203825 
L 135.966545 293.677139 
L 136.313991 293.677139 
L 136.313991 293.150453 
L 136.456742 293.150453 
L 136.456742 292.623767 
L 136.68274 292.623767 
L 136.68274 292.097081 
L 136.859601 292.097081 
L 136.859601 291.570395 
L 137.629572 291.570395 
L 137.629572 291.043709 
L 138.084384 291.043709 
L 138.084384 290.517023 
L 138.358484 290.517023 
L 138.358484 289.990337 
L 138.910565 289.990337 
L 138.910565 289.463651 
L 140.026805 289.463651 
L 140.026805 288.936964 
L 140.619053 288.936964 
L 140.693549 287.883592 
L 140.841591 287.883592 
L 140.841591 287.356906 
L 141.299876 287.356906 
L 141.299876 286.83022 
L 141.71841 286.83022 
L 141.71841 286.303534 
L 142.432559 286.303534 
L 142.432559 285.776848 
L 143.273169 285.776848 
L 143.273169 285.250162 
L 143.432725 285.250162 
L 143.432725 284.723476 
L 143.559326 284.723476 
L 143.559326 284.19679 
L 144.093477 284.19679 
L 144.093477 283.670104 
L 144.402681 283.670104 
L 144.45069 282.090045 
L 145.531191 282.090045 
L 145.548082 281.036673 
L 165.551076 281.036673 
L 165.551076 280.509987 
L 166.539436 280.509987 
L 166.539436 279.983301 
L 167.413847 279.983301 
L 167.413847 279.456615 
L 167.648363 279.456615 
L 167.648363 278.929929 
L 168.538048 278.929929 
L 168.538048 278.403243 
L 168.758015 278.403243 
L 168.758015 277.876557 
L 169.137496 277.876557 
L 169.212991 276.823185 
L 169.753577 276.823185 
L 169.753577 276.296499 
L 170.413666 276.296499 
L 170.413666 275.769812 
L 171.950454 275.769812 
L 171.950454 275.243126 
L 179.386618 275.243126 
L 179.386618 274.71644 
L 182.333158 274.71644 
L 182.444087 273.663068 
L 183.033044 273.663068 
L 183.033044 273.136382 
L 183.795928 273.136382 
L 183.795928 272.609696 
L 184.272134 272.609696 
L 184.272134 272.08301 
L 185.356242 272.08301 
L 185.356242 271.556324 
L 192.193593 271.556324 
L 192.193593 271.029638 
L 192.321122 271.029638 
L 192.321122 270.502952 
L 193.142773 270.502952 
L 193.142773 269.976266 
L 196.744076 269.976266 
L 196.744076 269.449579 
L 197.285935 269.449579 
L 197.285935 268.922893 
L 197.521842 268.922893 
L 197.521842 268.396207 
L 197.71508 268.396207 
L 197.71508 267.869521 
L 206.199001 267.869521 
L 206.255895 266.816149 
L 206.402648 266.816149 
L 206.402648 266.289463 
L 206.828435 266.289463 
L 206.828435 265.762777 
L 207.537606 265.762777 
L 207.537606 265.236091 
L 208.657902 265.236091 
L 208.657902 264.709405 
L 217.611964 264.709405 
L 217.611964 264.182719 
L 218.306958 264.182719 
L 218.306958 263.656033 
L 218.772042 263.656033 
L 218.772042 263.129347 
L 219.400981 263.129347 
L 219.400981 262.60266 
L 226.729676 262.60266 
L 226.729676 262.075974 
L 227.903509 262.075974 
L 227.903509 261.549288 
L 228.195486 261.549288 
L 228.195486 261.022602 
L 228.485801 261.022602 
L 228.485801 260.495916 
L 237.815512 260.495916 
L 237.815512 259.96923 
L 260.007063 259.96923 
L 260.007063 259.442544 
L 261.016979 259.442544 
L 261.016979 258.915858 
L 261.214364 258.915858 
L 261.214364 258.389172 
L 277.699275 258.389172 
L 277.699275 257.862486 
L 278.574943 257.862486 
L 278.579346 256.809114 
L 338.688 256.809114 
L 338.688 256.809114 
" style="fill:none;stroke:#9acd32;stroke-linecap:square;stroke-width:1.5;"/>
   </g>
   <g id="line2d_61">
    <defs>
     <path d="M 0 -6 
L -6 6 
L 6 6 
z
" id="me24ee73aff" style="stroke:#9acd32;stroke-linejoin:miter;stroke-width:1.5;"/>
    </defs>
    <g>
     <use style="fill-opacity:0;stroke:#9acd32;stroke-linejoin:miter;stroke-width:1.5;" x="145.548082" xlink:href="#me24ee73aff" y="281.036673"/>
     <use style="fill-opacity:0;stroke:#9acd32;stroke-linejoin:miter;stroke-width:1.5;" x="228.195486" xlink:href="#me24ee73aff" y="261.549288"/>
     <use style="fill-opacity:0;stroke:#9acd32;stroke-linejoin:miter;stroke-width:1.5;" x="278.579346" xlink:href="#me24ee73aff" y="257.3358"/>
     <use style="fill-opacity:0;stroke:#9acd32;stroke-linejoin:miter;stroke-width:1.5;" x="278.579346" xlink:href="#me24ee73aff" y="256.809114"/>
     <use style="fill-opacity:0;stroke:#9acd32;stroke-linejoin:miter;stroke-width:1.5;" x="338.688" xlink:href="#me24ee73aff" y="256.809114"/>
    </g>
   </g>
   <g id="line2d_62">
    <path style="fill:none;stroke:#9acd32;stroke-linecap:square;stroke-width:1.5;"/>
    <g/>
   </g>
   <g id="line2d_63">
    <path clip-path="url(#pf264aa4537)" d="M 258.404144 259.96923 
" style="fill:none;stroke:#9acd32;stroke-linecap:square;stroke-width:1.5;"/>
    <defs>
     <path d="M -12 12 
L 12 -12 
M -12 -12 
L 12 12 
" id="mff6fe61cec" style="stroke:#9acd32;"/>
    </defs>
    <g clip-path="url(#pf264aa4537)">
     <use style="fill:#9acd32;stroke:#9acd32;" x="258.404144" xlink:href="#mff6fe61cec" y="259.96923"/>
    </g>
   </g>
   <g id="line2d_64">
    <path d="M 338.688 256.809114 
L 369.60768 293.571802 
" style="fill:none;stroke:#000080;stroke-linecap:square;stroke-width:1.5;"/>
    <g>
     <use style="fill-opacity:0;stroke:#000080;stroke-width:1.5;" x="338.688" xlink:href="#m0b6d33776f" y="256.809114"/>
     <use style="fill-opacity:0;stroke:#000080;stroke-width:1.5;" x="369.60768" xlink:href="#m0b6d33776f" y="293.571802"/>
    </g>
   </g>
   <g id="line2d_65">
    <path d="M 338.688 256.809114 
L 369.60768 250.594218 
" style="fill:none;stroke:#9acd32;stroke-linecap:square;stroke-width:1.5;"/>
    <g>
     <use style="fill-opacity:0;stroke:#9acd32;stroke-linejoin:miter;stroke-width:1.5;" x="338.688" xlink:href="#me24ee73aff" y="256.809114"/>
     <use style="fill-opacity:0;stroke:#9acd32;stroke-linejoin:miter;stroke-width:1.5;" x="369.60768" xlink:href="#me24ee73aff" y="250.594218"/>
    </g>
   </g>
   <g id="line2d_66">
    <path d="M 338.688 256.809114 
L 369.60768 207.616634 
" style="fill:none;stroke:#ff7500;stroke-linecap:square;stroke-width:1.5;"/>
    <g>
     <use style="fill-opacity:0;stroke:#ff7500;stroke-linejoin:bevel;stroke-width:1.5;" x="338.688" xlink:href="#m62555afd97" y="256.809114"/>
     <use style="fill-opacity:0;stroke:#ff7500;stroke-linejoin:bevel;stroke-width:1.5;" x="369.60768" xlink:href="#m62555afd97" y="207.616634"/>
    </g>
   </g>
   <g id="line2d_67">
    <path d="M 338.688 251.542253 
L 369.60768 164.63905 
" style="fill:none;stroke:#ff00ff;stroke-linecap:square;stroke-width:1.5;"/>
    <g>
     <use style="fill-opacity:0;stroke:#ff00ff;stroke-linejoin:miter;stroke-width:1.5;" x="338.688" xlink:href="#m05bd8137e9" y="251.542253"/>
     <use style="fill-opacity:0;stroke:#ff00ff;stroke-linejoin:miter;stroke-width:1.5;" x="369.60768" xlink:href="#m05bd8137e9" y="164.63905"/>
    </g>
   </g>
   <g id="line2d_68">
    <path d="M 338.688 251.542253 
L 369.60768 121.661465 
" style="fill:none;stroke:#000080;stroke-linecap:square;stroke-width:1.5;"/>
    <g>
     <use style="fill-opacity:0;stroke:#000080;stroke-width:1.5;" x="338.688" xlink:href="#m0b6d33776f" y="251.542253"/>
     <use style="fill-opacity:0;stroke:#000080;stroke-width:1.5;" x="369.60768" xlink:href="#m0b6d33776f" y="121.661465"/>
    </g>
   </g>
   <g id="line2d_69">
    <path d="M 338.688 241.008531 
L 369.60768 78.683881 
" style="fill:none;stroke:#ff0000;stroke-linecap:square;stroke-width:1.5;"/>
    <g>
     <use style="fill-opacity:0;stroke:#ff0000;stroke-linejoin:miter;stroke-width:1.5;" x="338.688" xlink:href="#maf0655672d" y="241.008531"/>
     <use style="fill-opacity:0;stroke:#ff0000;stroke-linejoin:miter;stroke-width:1.5;" x="369.60768" xlink:href="#maf0655672d" y="78.683881"/>
    </g>
   </g>
   <g id="line2d_70">
    <path d="M 338.688 298.944 
L 338.688 30.334099 
" style="fill:none;stroke:#000000;stroke-linecap:square;stroke-width:1.5;"/>
   </g>
   <g id="patch_3">
    <path d="M 57.6 298.944 
L 57.6 27.648 
" style="fill:none;stroke:#000000;stroke-linecap:square;stroke-linejoin:miter;stroke-width:0.8;"/>
   </g>
   <g id="patch_4">
    <path d="M 338.688 298.944 
L 338.688 27.648 
" style="fill:none;stroke:#000000;stroke-linecap:square;stroke-linejoin:miter;stroke-width:0.8;"/>
   </g>
   <g id="patch_5">
    <path d="M 57.6 298.944 
L 338.688 298.944 
" style="fill:none;stroke:#000000;stroke-linecap:square;stroke-linejoin:miter;stroke-width:0.8;"/>
   </g>
   <g id="patch_6">
    <path d="M 57.6 27.648 
L 338.688 27.648 
" style="fill:none;stroke:#000000;stroke-linecap:square;stroke-linejoin:miter;stroke-width:0.8;"/>
   </g>
   <g id="text_13">
    <!-- 100-1e5 -->
    <defs>
     <path d="M 10.796875 72.90625 
L 49.515625 72.90625 
L 49.515625 64.59375 
L 19.828125 64.59375 
L 19.828125 46.734375 
Q 21.96875 47.46875 24.109375 47.828125 
Q 26.265625 48.1875 28.421875 48.1875 
Q 40.625 48.1875 47.75 41.5 
Q 54.890625 34.8125 54.890625 23.390625 
Q 54.890625 11.625 47.5625 5.09375 
Q 40.234375 -1.421875 26.90625 -1.421875 
Q 22.3125 -1.421875 17.546875 -0.640625 
Q 12.796875 0.140625 7.71875 1.703125 
L 7.71875 11.625 
Q 12.109375 9.234375 16.796875 8.0625 
Q 21.484375 6.890625 26.703125 6.890625 
Q 35.15625 6.890625 40.078125 11.328125 
Q 45.015625 15.765625 45.015625 23.390625 
Q 45.015625 31 40.078125 35.4375 
Q 35.15625 39.890625 26.703125 39.890625 
Q 22.75 39.890625 18.8125 39.015625 
Q 14.890625 38.140625 10.796875 36.28125 
z
" id="DejaVuSans-53"/>
    </defs>
    <g transform="translate(375.22944 298.262739)scale(0.17 -0.17)">
     <use xlink:href="#DejaVuSans-49"/>
     <use x="63.623047" xlink:href="#DejaVuSans-48"/>
     <use x="127.246094" xlink:href="#DejaVuSans-48"/>
     <use x="190.869141" xlink:href="#DejaVuSans-45"/>
     <use x="226.953125" xlink:href="#DejaVuSans-49"/>
     <use x="290.576172" xlink:href="#DejaVuSans-101"/>
     <use x="352.099609" xlink:href="#DejaVuSans-53"/>
    </g>
   </g>
   <g id="text_14">
    <!-- 080-1e5 -->
    <g transform="translate(375.22944 255.285155)scale(0.17 -0.17)">
     <use xlink:href="#DejaVuSans-48"/>
     <use x="63.623047" xlink:href="#DejaVuSans-56"/>
     <use x="127.246094" xlink:href="#DejaVuSans-48"/>
     <use x="190.869141" xlink:href="#DejaVuSans-45"/>
     <use x="226.953125" xlink:href="#DejaVuSans-49"/>
     <use x="290.576172" xlink:href="#DejaVuSans-101"/>
     <use x="352.099609" xlink:href="#DejaVuSans-53"/>
    </g>
   </g>
   <g id="text_15">
    <!-- 075-2e4 -->
    <defs>
     <path d="M 8.203125 72.90625 
L 55.078125 72.90625 
L 55.078125 68.703125 
L 28.609375 0 
L 18.3125 0 
L 43.21875 64.59375 
L 8.203125 64.59375 
z
" id="DejaVuSans-55"/>
    </defs>
    <g transform="translate(375.22944 212.307571)scale(0.17 -0.17)">
     <use xlink:href="#DejaVuSans-48"/>
     <use x="63.623047" xlink:href="#DejaVuSans-55"/>
     <use x="127.246094" xlink:href="#DejaVuSans-53"/>
     <use x="190.869141" xlink:href="#DejaVuSans-45"/>
     <use x="226.953125" xlink:href="#DejaVuSans-50"/>
     <use x="290.576172" xlink:href="#DejaVuSans-101"/>
     <use x="352.099609" xlink:href="#DejaVuSans-52"/>
    </g>
   </g>
   <g id="text_16">
    <!-- 025-2e4 -->
    <g transform="translate(375.22944 169.329987)scale(0.17 -0.17)">
     <use xlink:href="#DejaVuSans-48"/>
     <use x="63.623047" xlink:href="#DejaVuSans-50"/>
     <use x="127.246094" xlink:href="#DejaVuSans-53"/>
     <use x="190.869141" xlink:href="#DejaVuSans-45"/>
     <use x="226.953125" xlink:href="#DejaVuSans-50"/>
     <use x="290.576172" xlink:href="#DejaVuSans-101"/>
     <use x="352.099609" xlink:href="#DejaVuSans-52"/>
    </g>
   </g>
   <g id="text_17">
    <!-- 100-2e4 -->
    <g transform="translate(375.22944 126.352403)scale(0.17 -0.17)">
     <use xlink:href="#DejaVuSans-49"/>
     <use x="63.623047" xlink:href="#DejaVuSans-48"/>
     <use x="127.246094" xlink:href="#DejaVuSans-48"/>
     <use x="190.869141" xlink:href="#DejaVuSans-45"/>
     <use x="226.953125" xlink:href="#DejaVuSans-50"/>
     <use x="290.576172" xlink:href="#DejaVuSans-101"/>
     <use x="352.099609" xlink:href="#DejaVuSans-52"/>
    </g>
   </g>
   <g id="text_18">
    <!-- 050-2e4 -->
    <g transform="translate(375.22944 83.374819)scale(0.17 -0.17)">
     <use xlink:href="#DejaVuSans-48"/>
     <use x="63.623047" xlink:href="#DejaVuSans-53"/>
     <use x="127.246094" xlink:href="#DejaVuSans-48"/>
     <use x="190.869141" xlink:href="#DejaVuSans-45"/>
     <use x="226.953125" xlink:href="#DejaVuSans-50"/>
     <use x="290.576172" xlink:href="#DejaVuSans-101"/>
     <use x="352.099609" xlink:href="#DejaVuSans-52"/>
    </g>
   </g>
   <g id="text_19">
    <!-- best 2009 -->
    <defs>
     <path d="M 48.6875 27.296875 
Q 48.6875 37.203125 44.609375 42.84375 
Q 40.53125 48.484375 33.40625 48.484375 
Q 26.265625 48.484375 22.1875 42.84375 
Q 18.109375 37.203125 18.109375 27.296875 
Q 18.109375 17.390625 22.1875 11.75 
Q 26.265625 6.109375 33.40625 6.109375 
Q 40.53125 6.109375 44.609375 11.75 
Q 48.6875 17.390625 48.6875 27.296875 
z
M 18.109375 46.390625 
Q 20.953125 51.265625 25.265625 53.625 
Q 29.59375 56 35.59375 56 
Q 45.5625 56 51.78125 48.09375 
Q 58.015625 40.1875 58.015625 27.296875 
Q 58.015625 14.40625 51.78125 6.484375 
Q 45.5625 -1.421875 35.59375 -1.421875 
Q 29.59375 -1.421875 25.265625 0.953125 
Q 20.953125 3.328125 18.109375 8.203125 
L 18.109375 0 
L 9.078125 0 
L 9.078125 75.984375 
L 18.109375 75.984375 
z
" id="DejaVuSans-98"/>
     <path d="M 10.984375 1.515625 
L 10.984375 10.5 
Q 14.703125 8.734375 18.5 7.8125 
Q 22.3125 6.890625 25.984375 6.890625 
Q 35.75 6.890625 40.890625 13.453125 
Q 46.046875 20.015625 46.78125 33.40625 
Q 43.953125 29.203125 39.59375 26.953125 
Q 35.25 24.703125 29.984375 24.703125 
Q 19.046875 24.703125 12.671875 31.3125 
Q 6.296875 37.9375 6.296875 49.421875 
Q 6.296875 60.640625 12.9375 67.421875 
Q 19.578125 74.21875 30.609375 74.21875 
Q 43.265625 74.21875 49.921875 64.515625 
Q 56.59375 54.828125 56.59375 36.375 
Q 56.59375 19.140625 48.40625 8.859375 
Q 40.234375 -1.421875 26.421875 -1.421875 
Q 22.703125 -1.421875 18.890625 -0.6875 
Q 15.09375 0.046875 10.984375 1.515625 
z
M 30.609375 32.421875 
Q 37.25 32.421875 41.125 36.953125 
Q 45.015625 41.5 45.015625 49.421875 
Q 45.015625 57.28125 41.125 61.84375 
Q 37.25 66.40625 30.609375 66.40625 
Q 23.96875 66.40625 20.09375 61.84375 
Q 16.21875 57.28125 16.21875 49.421875 
Q 16.21875 41.5 20.09375 36.953125 
Q 23.96875 32.421875 30.609375 32.421875 
z
" id="DejaVuSans-57"/>
    </defs>
    <g transform="translate(375.22944 40.397235)scale(0.17 -0.17)">
     <use xlink:href="#DejaVuSans-98"/>
     <use x="63.476562" xlink:href="#DejaVuSans-101"/>
     <use x="125" xlink:href="#DejaVuSans-115"/>
     <use x="177.099609" xlink:href="#DejaVuSans-116"/>
     <use x="216.308594" xlink:href="#DejaVuSans-32"/>
     <use x="248.095703" xlink:href="#DejaVuSans-50"/>
     <use x="311.71875" xlink:href="#DejaVuSans-48"/>
     <use x="375.341797" xlink:href="#DejaVuSans-48"/>
     <use x="438.964844" xlink:href="#DejaVuSans-57"/>
    </g>
   </g>
   <g id="text_20">
    <!-- bbob f3, 20-D -->
    <defs>
     <path d="M 40.578125 39.3125 
Q 47.65625 37.796875 51.625 33 
Q 55.609375 28.21875 55.609375 21.1875 
Q 55.609375 10.40625 48.1875 4.484375 
Q 40.765625 -1.421875 27.09375 -1.421875 
Q 22.515625 -1.421875 17.65625 -0.515625 
Q 12.796875 0.390625 7.625 2.203125 
L 7.625 11.71875 
Q 11.71875 9.328125 16.59375 8.109375 
Q 21.484375 6.890625 26.8125 6.890625 
Q 36.078125 6.890625 40.9375 10.546875 
Q 45.796875 14.203125 45.796875 21.1875 
Q 45.796875 27.640625 41.28125 31.265625 
Q 36.765625 34.90625 28.71875 34.90625 
L 20.21875 34.90625 
L 20.21875 43.015625 
L 29.109375 43.015625 
Q 36.375 43.015625 40.234375 45.921875 
Q 44.09375 48.828125 44.09375 54.296875 
Q 44.09375 59.90625 40.109375 62.90625 
Q 36.140625 65.921875 28.71875 65.921875 
Q 24.65625 65.921875 20.015625 65.03125 
Q 15.375 64.15625 9.8125 62.3125 
L 9.8125 71.09375 
Q 15.4375 72.65625 20.34375 73.4375 
Q 25.25 74.21875 29.59375 74.21875 
Q 40.828125 74.21875 47.359375 69.109375 
Q 53.90625 64.015625 53.90625 55.328125 
Q 53.90625 49.265625 50.4375 45.09375 
Q 46.96875 40.921875 40.578125 39.3125 
z
" id="DejaVuSans-51"/>
     <path d="M 19.671875 64.796875 
L 19.671875 8.109375 
L 31.59375 8.109375 
Q 46.6875 8.109375 53.6875 14.9375 
Q 60.6875 21.78125 60.6875 36.53125 
Q 60.6875 51.171875 53.6875 57.984375 
Q 46.6875 64.796875 31.59375 64.796875 
z
M 9.8125 72.90625 
L 30.078125 72.90625 
Q 51.265625 72.90625 61.171875 64.09375 
Q 71.09375 55.28125 71.09375 36.53125 
Q 71.09375 17.671875 61.125 8.828125 
Q 51.171875 0 30.078125 0 
L 9.8125 0 
z
" id="DejaVuSans-68"/>
    </defs>
    <g transform="translate(60.41088 38.111366)scale(0.102 -0.102)">
     <use xlink:href="#DejaVuSans-98"/>
     <use x="63.476562" xlink:href="#DejaVuSans-98"/>
     <use x="126.953125" xlink:href="#DejaVuSans-111"/>
     <use x="188.134766" xlink:href="#DejaVuSans-98"/>
     <use x="251.611328" xlink:href="#DejaVuSans-32"/>
     <use x="283.398438" xlink:href="#DejaVuSans-102"/>
     <use x="318.603516" xlink:href="#DejaVuSans-51"/>
     <use x="382.226562" xlink:href="#DejaVuSans-44"/>
     <use x="414.013672" xlink:href="#DejaVuSans-32"/>
     <use x="445.800781" xlink:href="#DejaVuSans-50"/>
     <use x="509.423828" xlink:href="#DejaVuSans-48"/>
     <use x="573.046875" xlink:href="#DejaVuSans-45"/>
     <use x="609.130859" xlink:href="#DejaVuSans-68"/>
    </g>
    <!-- 51 targets: 100..1e-08 -->
    <defs>
     <path d="M 11.71875 12.40625 
L 22.015625 12.40625 
L 22.015625 0 
L 11.71875 0 
z
M 11.71875 51.703125 
L 22.015625 51.703125 
L 22.015625 39.3125 
L 11.71875 39.3125 
z
" id="DejaVuSans-58"/>
    </defs>
    <g transform="translate(60.41088 49.533135)scale(0.102 -0.102)">
     <use xlink:href="#DejaVuSans-53"/>
     <use x="63.623047" xlink:href="#DejaVuSans-49"/>
     <use x="127.246094" xlink:href="#DejaVuSans-32"/>
     <use x="159.033203" xlink:href="#DejaVuSans-116"/>
     <use x="198.242188" xlink:href="#DejaVuSans-97"/>
     <use x="259.521484" xlink:href="#DejaVuSans-114"/>
     <use x="300.619141" xlink:href="#DejaVuSans-103"/>
     <use x="364.095703" xlink:href="#DejaVuSans-101"/>
     <use x="425.619141" xlink:href="#DejaVuSans-116"/>
     <use x="464.828125" xlink:href="#DejaVuSans-115"/>
     <use x="516.927734" xlink:href="#DejaVuSans-58"/>
     <use x="550.619141" xlink:href="#DejaVuSans-32"/>
     <use x="582.40625" xlink:href="#DejaVuSans-49"/>
     <use x="646.029297" xlink:href="#DejaVuSans-48"/>
     <use x="709.652344" xlink:href="#DejaVuSans-48"/>
     <use x="773.275391" xlink:href="#DejaVuSans-46"/>
     <use x="805.0625" xlink:href="#DejaVuSans-46"/>
     <use x="836.849609" xlink:href="#DejaVuSans-49"/>
     <use x="900.472656" xlink:href="#DejaVuSans-101"/>
     <use x="961.996094" xlink:href="#DejaVuSans-45"/>
     <use x="998.080078" xlink:href="#DejaVuSans-48"/>
     <use x="1061.703125" xlink:href="#DejaVuSans-56"/>
    </g>
    <!-- 15 instances -->
    <g transform="translate(60.41088 60.954904)scale(0.102 -0.102)">
     <use xlink:href="#DejaVuSans-49"/>
     <use x="63.623047" xlink:href="#DejaVuSans-53"/>
     <use x="127.246094" xlink:href="#DejaVuSans-32"/>
     <use x="159.033203" xlink:href="#DejaVuSans-105"/>
     <use x="186.816406" xlink:href="#DejaVuSans-110"/>
     <use x="250.195312" xlink:href="#DejaVuSans-115"/>
     <use x="302.294922" xlink:href="#DejaVuSans-116"/>
     <use x="341.503906" xlink:href="#DejaVuSans-97"/>
     <use x="402.783203" xlink:href="#DejaVuSans-110"/>
     <use x="466.162109" xlink:href="#DejaVuSans-99"/>
     <use x="521.142578" xlink:href="#DejaVuSans-101"/>
     <use x="582.666016" xlink:href="#DejaVuSans-115"/>
    </g>
   </g>
   <g id="text_21">
    <!-- v2.3.3.18.73 -->
    <g style="fill:#808080;" transform="translate(166.559625 294.151352)scale(0.1 -0.1)">
     <use xlink:href="#DejaVuSans-118"/>
     <use x="59.179688" xlink:href="#DejaVuSans-50"/>
     <use x="122.802734" xlink:href="#DejaVuSans-46"/>
     <use x="154.589844" xlink:href="#DejaVuSans-51"/>
     <use x="218.212891" xlink:href="#DejaVuSans-46"/>
     <use x="250" xlink:href="#DejaVuSans-51"/>
     <use x="313.623047" xlink:href="#DejaVuSans-46"/>
     <use x="345.410156" xlink:href="#DejaVuSans-49"/>
     <use x="409.033203" xlink:href="#DejaVuSans-56"/>
     <use x="472.65625" xlink:href="#DejaVuSans-46"/>
     <use x="504.443359" xlink:href="#DejaVuSans-55"/>
     <use x="568.066406" xlink:href="#DejaVuSans-51"/>
    </g>
   </g>
   <g id="text_22">
    <!-- 3 Rastrigin separable -->
    <defs>
     <path d="M 44.390625 34.1875 
Q 47.5625 33.109375 50.5625 29.59375 
Q 53.5625 26.078125 56.59375 19.921875 
L 66.609375 0 
L 56 0 
L 46.6875 18.703125 
Q 43.0625 26.03125 39.671875 28.421875 
Q 36.28125 30.8125 30.421875 30.8125 
L 19.671875 30.8125 
L 19.671875 0 
L 9.8125 0 
L 9.8125 72.90625 
L 32.078125 72.90625 
Q 44.578125 72.90625 50.734375 67.671875 
Q 56.890625 62.453125 56.890625 51.90625 
Q 56.890625 45.015625 53.6875 40.46875 
Q 50.484375 35.9375 44.390625 34.1875 
z
M 19.671875 64.796875 
L 19.671875 38.921875 
L 32.078125 38.921875 
Q 39.203125 38.921875 42.84375 42.21875 
Q 46.484375 45.515625 46.484375 51.90625 
Q 46.484375 58.296875 42.84375 61.546875 
Q 39.203125 64.796875 32.078125 64.796875 
z
" id="DejaVuSans-82"/>
    </defs>
    <g transform="translate(91.511187 21.648)scale(0.2 -0.2)">
     <use xlink:href="#DejaVuSans-51"/>
     <use x="63.623047" xlink:href="#DejaVuSans-32"/>
     <use x="95.410156" xlink:href="#DejaVuSans-82"/>
     <use x="164.861328" xlink:href="#DejaVuSans-97"/>
     <use x="226.140625" xlink:href="#DejaVuSans-115"/>
     <use x="278.240234" xlink:href="#DejaVuSans-116"/>
     <use x="317.449219" xlink:href="#DejaVuSans-114"/>
     <use x="358.5625" xlink:href="#DejaVuSans-105"/>
     <use x="386.345703" xlink:href="#DejaVuSans-103"/>
     <use x="449.822266" xlink:href="#DejaVuSans-105"/>
     <use x="477.605469" xlink:href="#DejaVuSans-110"/>
     <use x="540.984375" xlink:href="#DejaVuSans-32"/>
     <use x="572.771484" xlink:href="#DejaVuSans-115"/>
     <use x="624.871094" xlink:href="#DejaVuSans-101"/>
     <use x="686.394531" xlink:href="#DejaVuSans-112"/>
     <use x="749.871094" xlink:href="#DejaVuSans-97"/>
     <use x="811.150391" xlink:href="#DejaVuSans-114"/>
     <use x="852.263672" xlink:href="#DejaVuSans-97"/>
     <use x="913.542969" xlink:href="#DejaVuSans-98"/>
     <use x="977.019531" xlink:href="#DejaVuSans-108"/>
     <use x="1004.802734" xlink:href="#DejaVuSans-101"/>
    </g>
   </g>
  </g>
 </g>
 <defs>
  <clipPath id="pf264aa4537">
   <rect height="271.296" width="281.088" x="57.6" y="27.648"/>
  </clipPath>
 </defs>
</svg>
