<?xml version="1.0" encoding="utf-8" standalone="no"?>
<!DOCTYPE svg PUBLIC "-//W3C//DTD SVG 1.1//EN"
  "http://www.w3.org/Graphics/SVG/1.1/DTD/svg11.dtd">
<!-- Created with matplotlib (https://matplotlib.org/) -->
<svg height="345.6pt" version="1.1" viewBox="0 0 460.8 345.6" width="460.8pt" xmlns="http://www.w3.org/2000/svg" xmlns:xlink="http://www.w3.org/1999/xlink">
 <defs>
  <style type="text/css">
*{stroke-linecap:butt;stroke-linejoin:round;}
  </style>
 </defs>
 <g id="figure_1">
  <g id="patch_1">
   <path d="M 0 345.6 
L 460.8 345.6 
L 460.8 0 
L 0 0 
z
" style="fill:#ffffff;"/>
  </g>
  <g id="axes_1">
   <g id="patch_2">
    <path d="M 57.6 298.944 
L 338.688 298.944 
L 338.688 27.648 
L 57.6 27.648 
z
" style="fill:#ffffff;"/>
   </g>
   <g id="line2d_1">
    <path d="M 117.231262 298.944 
L 117.231262 293.677139 
L 120.689249 293.677139 
L 120.689249 288.410278 
L 124.368753 288.410278 
L 124.368753 283.143418 
L 132.818154 283.143418 
L 132.818154 277.876557 
L 146.804459 277.876557 
L 146.804459 272.609696 
L 155.066967 272.609696 
L 155.066967 267.342835 
L 157.432298 267.342835 
L 157.432298 262.075974 
L 159.476858 262.075974 
L 159.476858 256.809114 
L 160.854038 256.809114 
L 160.854038 251.542253 
L 162.030064 251.542253 
L 162.030064 246.275392 
L 163.984199 246.275392 
L 163.984199 241.008531 
L 174.596403 241.008531 
L 174.596403 235.74167 
L 176.637269 235.74167 
L 176.637269 230.47481 
L 177.173603 230.47481 
L 177.173603 225.207949 
L 177.773034 225.207949 
L 177.773034 219.941088 
L 178.512638 219.941088 
L 178.512638 214.674227 
L 179.344126 214.674227 
L 179.344126 209.407366 
L 185.891573 209.407366 
L 185.891573 204.140506 
L 186.270711 204.140506 
L 186.270711 198.873645 
L 186.605216 198.873645 
L 186.605216 193.606784 
L 186.876958 193.606784 
L 186.876958 72.468985 
L 187.137535 72.468985 
L 187.137535 67.202125 
L 187.289259 67.202125 
L 187.289259 61.935264 
L 187.357208 61.935264 
L 187.357208 56.668403 
L 187.620088 56.668403 
L 187.620088 51.401542 
L 187.762688 51.401542 
L 187.762688 46.134681 
L 187.86341 46.134681 
L 187.86341 40.867821 
L 188.001083 40.867821 
L 188.001083 35.60096 
L 188.023512 35.60096 
L 188.023512 30.334099 
L 338.688 30.334099 
" style="fill:none;stroke:#f5deb3;stroke-linecap:square;stroke-width:4;"/>
   </g>
   <g id="line2d_2">
    <defs>
     <path d="M -0 7.778175 
L 7.778175 0 
L 0 -7.778175 
L -7.778175 -0 
z
" id="mda28bbbf7d" style="stroke:#f5deb3;stroke-linejoin:miter;stroke-width:1.5;"/>
    </defs>
    <g>
     <use style="fill:#f5deb3;stroke:#f5deb3;stroke-linejoin:miter;stroke-width:1.5;" x="178.512638" xlink:href="#mda28bbbf7d" y="214.674227"/>
     <use style="fill:#f5deb3;stroke:#f5deb3;stroke-linejoin:miter;stroke-width:1.5;" x="187.137535" xlink:href="#mda28bbbf7d" y="72.468985"/>
     <use style="fill:#f5deb3;stroke:#f5deb3;stroke-linejoin:miter;stroke-width:1.5;" x="188.023512" xlink:href="#mda28bbbf7d" y="30.334099"/>
     <use style="fill:#f5deb3;stroke:#f5deb3;stroke-linejoin:miter;stroke-width:1.5;" x="188.023512" xlink:href="#mda28bbbf7d" y="30.334099"/>
     <use style="fill:#f5deb3;stroke:#f5deb3;stroke-linejoin:miter;stroke-width:1.5;" x="338.688" xlink:href="#mda28bbbf7d" y="30.334099"/>
    </g>
   </g>
   <g id="line2d_3">
    <path style="fill:none;stroke:#f5deb3;stroke-linecap:square;stroke-width:4;"/>
    <g/>
   </g>
   <g id="line2d_4">
    <path d="M 338.688 30.334099 
L 369.60768 35.706297 
" style="fill:none;stroke:#f5deb3;stroke-linecap:square;stroke-width:4;"/>
    <g>
     <use style="fill:#f5deb3;stroke:#f5deb3;stroke-linejoin:miter;stroke-width:1.5;" x="338.688" xlink:href="#mda28bbbf7d" y="30.334099"/>
     <use style="fill:#f5deb3;stroke:#f5deb3;stroke-linejoin:miter;stroke-width:1.5;" x="369.60768" xlink:href="#mda28bbbf7d" y="35.706297"/>
    </g>
   </g>
   <g id="matplotlib.axis_1">
    <g id="xtick_1">
     <g id="line2d_5">
      <path clip-path="url(#p7e51a02020)" d="M 57.6 298.944 
L 57.6 27.648 
" style="fill:none;stroke:#b0b0b0;stroke-linecap:square;stroke-width:0.8;"/>
     </g>
     <g id="line2d_6">
      <defs>
       <path d="M 0 0 
L 0 3.5 
" id="m9aaa730ffb" style="stroke:#000000;stroke-width:0.8;"/>
      </defs>
      <g>
       <use style="stroke:#000000;stroke-width:0.8;" x="57.6" xlink:href="#m9aaa730ffb" y="298.944"/>
      </g>
     </g>
     <g id="text_1">
      <!-- 0 -->
      <defs>
       <path d="M 31.78125 66.40625 
Q 24.171875 66.40625 20.328125 58.90625 
Q 16.5 51.421875 16.5 36.375 
Q 16.5 21.390625 20.328125 13.890625 
Q 24.171875 6.390625 31.78125 6.390625 
Q 39.453125 6.390625 43.28125 13.890625 
Q 47.125 21.390625 47.125 36.375 
Q 47.125 51.421875 43.28125 58.90625 
Q 39.453125 66.40625 31.78125 66.40625 
z
M 31.78125 74.21875 
Q 44.046875 74.21875 50.515625 64.515625 
Q 56.984375 54.828125 56.984375 36.375 
Q 56.984375 17.96875 50.515625 8.265625 
Q 44.046875 -1.421875 31.78125 -1.421875 
Q 19.53125 -1.421875 13.0625 8.265625 
Q 6.59375 17.96875 6.59375 36.375 
Q 6.59375 54.828125 13.0625 64.515625 
Q 19.53125 74.21875 31.78125 74.21875 
z
" id="DejaVuSans-48"/>
      </defs>
      <g transform="translate(51.2375 321.140875)scale(0.2 -0.2)">
       <use xlink:href="#DejaVuSans-48"/>
      </g>
     </g>
    </g>
    <g id="xtick_2">
     <g id="line2d_7">
      <path clip-path="url(#p7e51a02020)" d="M 137.910857 298.944 
L 137.910857 27.648 
" style="fill:none;stroke:#b0b0b0;stroke-linecap:square;stroke-width:0.8;"/>
     </g>
     <g id="line2d_8">
      <g>
       <use style="stroke:#000000;stroke-width:0.8;" x="137.910857" xlink:href="#m9aaa730ffb" y="298.944"/>
      </g>
     </g>
     <g id="text_2">
      <!-- 2 -->
      <defs>
       <path d="M 19.1875 8.296875 
L 53.609375 8.296875 
L 53.609375 0 
L 7.328125 0 
L 7.328125 8.296875 
Q 12.9375 14.109375 22.625 23.890625 
Q 32.328125 33.6875 34.8125 36.53125 
Q 39.546875 41.84375 41.421875 45.53125 
Q 43.3125 49.21875 43.3125 52.78125 
Q 43.3125 58.59375 39.234375 62.25 
Q 35.15625 65.921875 28.609375 65.921875 
Q 23.96875 65.921875 18.8125 64.3125 
Q 13.671875 62.703125 7.8125 59.421875 
L 7.8125 69.390625 
Q 13.765625 71.78125 18.9375 73 
Q 24.125 74.21875 28.421875 74.21875 
Q 39.75 74.21875 46.484375 68.546875 
Q 53.21875 62.890625 53.21875 53.421875 
Q 53.21875 48.921875 51.53125 44.890625 
Q 49.859375 40.875 45.40625 35.40625 
Q 44.1875 33.984375 37.640625 27.21875 
Q 31.109375 20.453125 19.1875 8.296875 
z
" id="DejaVuSans-50"/>
      </defs>
      <g transform="translate(131.548357 321.140875)scale(0.2 -0.2)">
       <use xlink:href="#DejaVuSans-50"/>
      </g>
     </g>
    </g>
    <g id="xtick_3">
     <g id="line2d_9">
      <path clip-path="url(#p7e51a02020)" d="M 218.221714 298.944 
L 218.221714 27.648 
" style="fill:none;stroke:#b0b0b0;stroke-linecap:square;stroke-width:0.8;"/>
     </g>
     <g id="line2d_10">
      <g>
       <use style="stroke:#000000;stroke-width:0.8;" x="218.221714" xlink:href="#m9aaa730ffb" y="298.944"/>
      </g>
     </g>
     <g id="text_3">
      <!-- 4 -->
      <defs>
       <path d="M 37.796875 64.3125 
L 12.890625 25.390625 
L 37.796875 25.390625 
z
M 35.203125 72.90625 
L 47.609375 72.90625 
L 47.609375 25.390625 
L 58.015625 25.390625 
L 58.015625 17.1875 
L 47.609375 17.1875 
L 47.609375 0 
L 37.796875 0 
L 37.796875 17.1875 
L 4.890625 17.1875 
L 4.890625 26.703125 
z
" id="DejaVuSans-52"/>
      </defs>
      <g transform="translate(211.859214 321.140875)scale(0.2 -0.2)">
       <use xlink:href="#DejaVuSans-52"/>
      </g>
     </g>
    </g>
    <g id="xtick_4">
     <g id="line2d_11">
      <path clip-path="url(#p7e51a02020)" d="M 298.532571 298.944 
L 298.532571 27.648 
" style="fill:none;stroke:#b0b0b0;stroke-linecap:square;stroke-width:0.8;"/>
     </g>
     <g id="line2d_12">
      <g>
       <use style="stroke:#000000;stroke-width:0.8;" x="298.532571" xlink:href="#m9aaa730ffb" y="298.944"/>
      </g>
     </g>
     <g id="text_4">
      <!-- 6 -->
      <defs>
       <path d="M 33.015625 40.375 
Q 26.375 40.375 22.484375 35.828125 
Q 18.609375 31.296875 18.609375 23.390625 
Q 18.609375 15.53125 22.484375 10.953125 
Q 26.375 6.390625 33.015625 6.390625 
Q 39.65625 6.390625 43.53125 10.953125 
Q 47.40625 15.53125 47.40625 23.390625 
Q 47.40625 31.296875 43.53125 35.828125 
Q 39.65625 40.375 33.015625 40.375 
z
M 52.59375 71.296875 
L 52.59375 62.3125 
Q 48.875 64.0625 45.09375 64.984375 
Q 41.3125 65.921875 37.59375 65.921875 
Q 27.828125 65.921875 22.671875 59.328125 
Q 17.53125 52.734375 16.796875 39.40625 
Q 19.671875 43.65625 24.015625 45.921875 
Q 28.375 48.1875 33.59375 48.1875 
Q 44.578125 48.1875 50.953125 41.515625 
Q 57.328125 34.859375 57.328125 23.390625 
Q 57.328125 12.15625 50.6875 5.359375 
Q 44.046875 -1.421875 33.015625 -1.421875 
Q 20.359375 -1.421875 13.671875 8.265625 
Q 6.984375 17.96875 6.984375 36.375 
Q 6.984375 53.65625 15.1875 63.9375 
Q 23.390625 74.21875 37.203125 74.21875 
Q 40.921875 74.21875 44.703125 73.484375 
Q 48.484375 72.75 52.59375 71.296875 
z
" id="DejaVuSans-54"/>
      </defs>
      <g transform="translate(292.170071 321.140875)scale(0.2 -0.2)">
       <use xlink:href="#DejaVuSans-54"/>
      </g>
     </g>
    </g>
    <g id="xtick_5">
     <g id="line2d_13">
      <path clip-path="url(#p7e51a02020)" d="M 97.755429 298.944 
L 97.755429 27.648 
" style="fill:none;stroke:#b0b0b0;stroke-linecap:square;stroke-width:0.8;"/>
     </g>
     <g id="line2d_14">
      <defs>
       <path d="M 0 0 
L 0 2 
" id="mc45b3704dc" style="stroke:#000000;stroke-width:0.6;"/>
      </defs>
      <g>
       <use style="stroke:#000000;stroke-width:0.6;" x="97.755429" xlink:href="#mc45b3704dc" y="298.944"/>
      </g>
     </g>
    </g>
    <g id="xtick_6">
     <g id="line2d_15">
      <path clip-path="url(#p7e51a02020)" d="M 178.066286 298.944 
L 178.066286 27.648 
" style="fill:none;stroke:#b0b0b0;stroke-linecap:square;stroke-width:0.8;"/>
     </g>
     <g id="line2d_16">
      <g>
       <use style="stroke:#000000;stroke-width:0.6;" x="178.066286" xlink:href="#mc45b3704dc" y="298.944"/>
      </g>
     </g>
    </g>
    <g id="xtick_7">
     <g id="line2d_17">
      <path clip-path="url(#p7e51a02020)" d="M 258.377143 298.944 
L 258.377143 27.648 
" style="fill:none;stroke:#b0b0b0;stroke-linecap:square;stroke-width:0.8;"/>
     </g>
     <g id="line2d_18">
      <g>
       <use style="stroke:#000000;stroke-width:0.6;" x="258.377143" xlink:href="#mc45b3704dc" y="298.944"/>
      </g>
     </g>
    </g>
    <g id="xtick_8">
     <g id="line2d_19">
      <path clip-path="url(#p7e51a02020)" d="M 338.688 298.944 
L 338.688 27.648 
" style="fill:none;stroke:#b0b0b0;stroke-linecap:square;stroke-width:0.8;"/>
     </g>
     <g id="line2d_20">
      <g>
       <use style="stroke:#000000;stroke-width:0.6;" x="338.688" xlink:href="#mc45b3704dc" y="298.944"/>
      </g>
     </g>
    </g>
    <g id="text_5">
     <!-- log10(# f-evals / dimension) -->
     <defs>
      <path d="M 9.421875 75.984375 
L 18.40625 75.984375 
L 18.40625 0 
L 9.421875 0 
z
" id="DejaVuSans-108"/>
      <path d="M 30.609375 48.390625 
Q 23.390625 48.390625 19.1875 42.75 
Q 14.984375 37.109375 14.984375 27.296875 
Q 14.984375 17.484375 19.15625 11.84375 
Q 23.34375 6.203125 30.609375 6.203125 
Q 37.796875 6.203125 41.984375 11.859375 
Q 46.1875 17.53125 46.1875 27.296875 
Q 46.1875 37.015625 41.984375 42.703125 
Q 37.796875 48.390625 30.609375 48.390625 
z
M 30.609375 56 
Q 42.328125 56 49.015625 48.375 
Q 55.71875 40.765625 55.71875 27.296875 
Q 55.71875 13.875 49.015625 6.21875 
Q 42.328125 -1.421875 30.609375 -1.421875 
Q 18.84375 -1.421875 12.171875 6.21875 
Q 5.515625 13.875 5.515625 27.296875 
Q 5.515625 40.765625 12.171875 48.375 
Q 18.84375 56 30.609375 56 
z
" id="DejaVuSans-111"/>
      <path d="M 45.40625 27.984375 
Q 45.40625 37.75 41.375 43.109375 
Q 37.359375 48.484375 30.078125 48.484375 
Q 22.859375 48.484375 18.828125 43.109375 
Q 14.796875 37.75 14.796875 27.984375 
Q 14.796875 18.265625 18.828125 12.890625 
Q 22.859375 7.515625 30.078125 7.515625 
Q 37.359375 7.515625 41.375 12.890625 
Q 45.40625 18.265625 45.40625 27.984375 
z
M 54.390625 6.78125 
Q 54.390625 -7.171875 48.1875 -13.984375 
Q 42 -20.796875 29.203125 -20.796875 
Q 24.46875 -20.796875 20.265625 -20.09375 
Q 16.0625 -19.390625 12.109375 -17.921875 
L 12.109375 -9.1875 
Q 16.0625 -11.328125 19.921875 -12.34375 
Q 23.78125 -13.375 27.78125 -13.375 
Q 36.625 -13.375 41.015625 -8.765625 
Q 45.40625 -4.15625 45.40625 5.171875 
L 45.40625 9.625 
Q 42.625 4.78125 38.28125 2.390625 
Q 33.9375 0 27.875 0 
Q 17.828125 0 11.671875 7.65625 
Q 5.515625 15.328125 5.515625 27.984375 
Q 5.515625 40.671875 11.671875 48.328125 
Q 17.828125 56 27.875 56 
Q 33.9375 56 38.28125 53.609375 
Q 42.625 51.21875 45.40625 46.390625 
L 45.40625 54.6875 
L 54.390625 54.6875 
z
" id="DejaVuSans-103"/>
      <path d="M 12.40625 8.296875 
L 28.515625 8.296875 
L 28.515625 63.921875 
L 10.984375 60.40625 
L 10.984375 69.390625 
L 28.421875 72.90625 
L 38.28125 72.90625 
L 38.28125 8.296875 
L 54.390625 8.296875 
L 54.390625 0 
L 12.40625 0 
z
" id="DejaVuSans-49"/>
      <path d="M 31 75.875 
Q 24.46875 64.65625 21.28125 53.65625 
Q 18.109375 42.671875 18.109375 31.390625 
Q 18.109375 20.125 21.3125 9.0625 
Q 24.515625 -2 31 -13.1875 
L 23.1875 -13.1875 
Q 15.875 -1.703125 12.234375 9.375 
Q 8.59375 20.453125 8.59375 31.390625 
Q 8.59375 42.28125 12.203125 53.3125 
Q 15.828125 64.359375 23.1875 75.875 
z
" id="DejaVuSans-40"/>
      <path d="M 51.125 44 
L 36.921875 44 
L 32.8125 27.6875 
L 47.125 27.6875 
z
M 43.796875 71.78125 
L 38.71875 51.515625 
L 52.984375 51.515625 
L 58.109375 71.78125 
L 65.921875 71.78125 
L 60.890625 51.515625 
L 76.125 51.515625 
L 76.125 44 
L 58.984375 44 
L 54.984375 27.6875 
L 70.515625 27.6875 
L 70.515625 20.21875 
L 53.078125 20.21875 
L 48 0 
L 40.1875 0 
L 45.21875 20.21875 
L 30.90625 20.21875 
L 25.875 0 
L 18.015625 0 
L 23.09375 20.21875 
L 7.71875 20.21875 
L 7.71875 27.6875 
L 24.90625 27.6875 
L 29 44 
L 13.28125 44 
L 13.28125 51.515625 
L 30.90625 51.515625 
L 35.890625 71.78125 
z
" id="DejaVuSans-35"/>
      <path id="DejaVuSans-32"/>
      <path d="M 37.109375 75.984375 
L 37.109375 68.5 
L 28.515625 68.5 
Q 23.6875 68.5 21.796875 66.546875 
Q 19.921875 64.59375 19.921875 59.515625 
L 19.921875 54.6875 
L 34.71875 54.6875 
L 34.71875 47.703125 
L 19.921875 47.703125 
L 19.921875 0 
L 10.890625 0 
L 10.890625 47.703125 
L 2.296875 47.703125 
L 2.296875 54.6875 
L 10.890625 54.6875 
L 10.890625 58.5 
Q 10.890625 67.625 15.140625 71.796875 
Q 19.390625 75.984375 28.609375 75.984375 
z
" id="DejaVuSans-102"/>
      <path d="M 4.890625 31.390625 
L 31.203125 31.390625 
L 31.203125 23.390625 
L 4.890625 23.390625 
z
" id="DejaVuSans-45"/>
      <path d="M 56.203125 29.59375 
L 56.203125 25.203125 
L 14.890625 25.203125 
Q 15.484375 15.921875 20.484375 11.0625 
Q 25.484375 6.203125 34.421875 6.203125 
Q 39.59375 6.203125 44.453125 7.46875 
Q 49.3125 8.734375 54.109375 11.28125 
L 54.109375 2.78125 
Q 49.265625 0.734375 44.1875 -0.34375 
Q 39.109375 -1.421875 33.890625 -1.421875 
Q 20.796875 -1.421875 13.15625 6.1875 
Q 5.515625 13.8125 5.515625 26.8125 
Q 5.515625 40.234375 12.765625 48.109375 
Q 20.015625 56 32.328125 56 
Q 43.359375 56 49.78125 48.890625 
Q 56.203125 41.796875 56.203125 29.59375 
z
M 47.21875 32.234375 
Q 47.125 39.59375 43.09375 43.984375 
Q 39.0625 48.390625 32.421875 48.390625 
Q 24.90625 48.390625 20.390625 44.140625 
Q 15.875 39.890625 15.1875 32.171875 
z
" id="DejaVuSans-101"/>
      <path d="M 2.984375 54.6875 
L 12.5 54.6875 
L 29.59375 8.796875 
L 46.6875 54.6875 
L 56.203125 54.6875 
L 35.6875 0 
L 23.484375 0 
z
" id="DejaVuSans-118"/>
      <path d="M 34.28125 27.484375 
Q 23.390625 27.484375 19.1875 25 
Q 14.984375 22.515625 14.984375 16.5 
Q 14.984375 11.71875 18.140625 8.90625 
Q 21.296875 6.109375 26.703125 6.109375 
Q 34.1875 6.109375 38.703125 11.40625 
Q 43.21875 16.703125 43.21875 25.484375 
L 43.21875 27.484375 
z
M 52.203125 31.203125 
L 52.203125 0 
L 43.21875 0 
L 43.21875 8.296875 
Q 40.140625 3.328125 35.546875 0.953125 
Q 30.953125 -1.421875 24.3125 -1.421875 
Q 15.921875 -1.421875 10.953125 3.296875 
Q 6 8.015625 6 15.921875 
Q 6 25.140625 12.171875 29.828125 
Q 18.359375 34.515625 30.609375 34.515625 
L 43.21875 34.515625 
L 43.21875 35.40625 
Q 43.21875 41.609375 39.140625 45 
Q 35.0625 48.390625 27.6875 48.390625 
Q 23 48.390625 18.546875 47.265625 
Q 14.109375 46.140625 10.015625 43.890625 
L 10.015625 52.203125 
Q 14.9375 54.109375 19.578125 55.046875 
Q 24.21875 56 28.609375 56 
Q 40.484375 56 46.34375 49.84375 
Q 52.203125 43.703125 52.203125 31.203125 
z
" id="DejaVuSans-97"/>
      <path d="M 44.28125 53.078125 
L 44.28125 44.578125 
Q 40.484375 46.53125 36.375 47.5 
Q 32.28125 48.484375 27.875 48.484375 
Q 21.1875 48.484375 17.84375 46.4375 
Q 14.5 44.390625 14.5 40.28125 
Q 14.5 37.15625 16.890625 35.375 
Q 19.28125 33.59375 26.515625 31.984375 
L 29.59375 31.296875 
Q 39.15625 29.25 43.1875 25.515625 
Q 47.21875 21.78125 47.21875 15.09375 
Q 47.21875 7.46875 41.1875 3.015625 
Q 35.15625 -1.421875 24.609375 -1.421875 
Q 20.21875 -1.421875 15.453125 -0.5625 
Q 10.6875 0.296875 5.421875 2 
L 5.421875 11.28125 
Q 10.40625 8.6875 15.234375 7.390625 
Q 20.0625 6.109375 24.8125 6.109375 
Q 31.15625 6.109375 34.5625 8.28125 
Q 37.984375 10.453125 37.984375 14.40625 
Q 37.984375 18.0625 35.515625 20.015625 
Q 33.0625 21.96875 24.703125 23.78125 
L 21.578125 24.515625 
Q 13.234375 26.265625 9.515625 29.90625 
Q 5.8125 33.546875 5.8125 39.890625 
Q 5.8125 47.609375 11.28125 51.796875 
Q 16.75 56 26.8125 56 
Q 31.78125 56 36.171875 55.265625 
Q 40.578125 54.546875 44.28125 53.078125 
z
" id="DejaVuSans-115"/>
      <path d="M 25.390625 72.90625 
L 33.6875 72.90625 
L 8.296875 -9.28125 
L 0 -9.28125 
z
" id="DejaVuSans-47"/>
      <path d="M 45.40625 46.390625 
L 45.40625 75.984375 
L 54.390625 75.984375 
L 54.390625 0 
L 45.40625 0 
L 45.40625 8.203125 
Q 42.578125 3.328125 38.25 0.953125 
Q 33.9375 -1.421875 27.875 -1.421875 
Q 17.96875 -1.421875 11.734375 6.484375 
Q 5.515625 14.40625 5.515625 27.296875 
Q 5.515625 40.1875 11.734375 48.09375 
Q 17.96875 56 27.875 56 
Q 33.9375 56 38.25 53.625 
Q 42.578125 51.265625 45.40625 46.390625 
z
M 14.796875 27.296875 
Q 14.796875 17.390625 18.875 11.75 
Q 22.953125 6.109375 30.078125 6.109375 
Q 37.203125 6.109375 41.296875 11.75 
Q 45.40625 17.390625 45.40625 27.296875 
Q 45.40625 37.203125 41.296875 42.84375 
Q 37.203125 48.484375 30.078125 48.484375 
Q 22.953125 48.484375 18.875 42.84375 
Q 14.796875 37.203125 14.796875 27.296875 
z
" id="DejaVuSans-100"/>
      <path d="M 9.421875 54.6875 
L 18.40625 54.6875 
L 18.40625 0 
L 9.421875 0 
z
M 9.421875 75.984375 
L 18.40625 75.984375 
L 18.40625 64.59375 
L 9.421875 64.59375 
z
" id="DejaVuSans-105"/>
      <path d="M 52 44.1875 
Q 55.375 50.25 60.0625 53.125 
Q 64.75 56 71.09375 56 
Q 79.640625 56 84.28125 50.015625 
Q 88.921875 44.046875 88.921875 33.015625 
L 88.921875 0 
L 79.890625 0 
L 79.890625 32.71875 
Q 79.890625 40.578125 77.09375 44.375 
Q 74.3125 48.1875 68.609375 48.1875 
Q 61.625 48.1875 57.5625 43.546875 
Q 53.515625 38.921875 53.515625 30.90625 
L 53.515625 0 
L 44.484375 0 
L 44.484375 32.71875 
Q 44.484375 40.625 41.703125 44.40625 
Q 38.921875 48.1875 33.109375 48.1875 
Q 26.21875 48.1875 22.15625 43.53125 
Q 18.109375 38.875 18.109375 30.90625 
L 18.109375 0 
L 9.078125 0 
L 9.078125 54.6875 
L 18.109375 54.6875 
L 18.109375 46.1875 
Q 21.1875 51.21875 25.484375 53.609375 
Q 29.78125 56 35.6875 56 
Q 41.65625 56 45.828125 52.96875 
Q 50 49.953125 52 44.1875 
z
" id="DejaVuSans-109"/>
      <path d="M 54.890625 33.015625 
L 54.890625 0 
L 45.90625 0 
L 45.90625 32.71875 
Q 45.90625 40.484375 42.875 44.328125 
Q 39.84375 48.1875 33.796875 48.1875 
Q 26.515625 48.1875 22.3125 43.546875 
Q 18.109375 38.921875 18.109375 30.90625 
L 18.109375 0 
L 9.078125 0 
L 9.078125 54.6875 
L 18.109375 54.6875 
L 18.109375 46.1875 
Q 21.34375 51.125 25.703125 53.5625 
Q 30.078125 56 35.796875 56 
Q 45.21875 56 50.046875 50.171875 
Q 54.890625 44.34375 54.890625 33.015625 
z
" id="DejaVuSans-110"/>
      <path d="M 8.015625 75.875 
L 15.828125 75.875 
Q 23.140625 64.359375 26.78125 53.3125 
Q 30.421875 42.28125 30.421875 31.390625 
Q 30.421875 20.453125 26.78125 9.375 
Q 23.140625 -1.703125 15.828125 -13.1875 
L 8.015625 -13.1875 
Q 14.5 -2 17.703125 9.0625 
Q 20.90625 20.125 20.90625 31.390625 
Q 20.90625 42.671875 17.703125 53.65625 
Q 14.5 64.65625 8.015625 75.875 
z
" id="DejaVuSans-41"/>
     </defs>
     <g transform="translate(77.303219 342.217594)scale(0.17 -0.17)">
      <use xlink:href="#DejaVuSans-108"/>
      <use x="27.783203" xlink:href="#DejaVuSans-111"/>
      <use x="88.964844" xlink:href="#DejaVuSans-103"/>
      <use x="152.441406" xlink:href="#DejaVuSans-49"/>
      <use x="216.064453" xlink:href="#DejaVuSans-48"/>
      <use x="279.6875" xlink:href="#DejaVuSans-40"/>
      <use x="318.701172" xlink:href="#DejaVuSans-35"/>
      <use x="402.490234" xlink:href="#DejaVuSans-32"/>
      <use x="434.277344" xlink:href="#DejaVuSans-102"/>
      <use x="469.404297" xlink:href="#DejaVuSans-45"/>
      <use x="505.488281" xlink:href="#DejaVuSans-101"/>
      <use x="567.011719" xlink:href="#DejaVuSans-118"/>
      <use x="626.191406" xlink:href="#DejaVuSans-97"/>
      <use x="687.470703" xlink:href="#DejaVuSans-108"/>
      <use x="715.253906" xlink:href="#DejaVuSans-115"/>
      <use x="767.353516" xlink:href="#DejaVuSans-32"/>
      <use x="799.140625" xlink:href="#DejaVuSans-47"/>
      <use x="832.832031" xlink:href="#DejaVuSans-32"/>
      <use x="864.619141" xlink:href="#DejaVuSans-100"/>
      <use x="928.095703" xlink:href="#DejaVuSans-105"/>
      <use x="955.878906" xlink:href="#DejaVuSans-109"/>
      <use x="1053.291016" xlink:href="#DejaVuSans-101"/>
      <use x="1114.814453" xlink:href="#DejaVuSans-110"/>
      <use x="1178.193359" xlink:href="#DejaVuSans-115"/>
      <use x="1230.292969" xlink:href="#DejaVuSans-105"/>
      <use x="1258.076172" xlink:href="#DejaVuSans-111"/>
      <use x="1319.257812" xlink:href="#DejaVuSans-110"/>
      <use x="1382.636719" xlink:href="#DejaVuSans-41"/>
     </g>
    </g>
   </g>
   <g id="matplotlib.axis_2">
    <g id="ytick_1">
     <g id="line2d_21">
      <path clip-path="url(#p7e51a02020)" d="M 57.6 298.944 
L 338.688 298.944 
" style="fill:none;stroke:#b0b0b0;stroke-linecap:square;stroke-width:0.8;"/>
     </g>
     <g id="line2d_22">
      <defs>
       <path d="M 0 0 
L -3.5 0 
" id="m8b723cc941" style="stroke:#000000;stroke-width:0.8;"/>
      </defs>
      <g>
       <use style="stroke:#000000;stroke-width:0.8;" x="57.6" xlink:href="#m8b723cc941" y="298.944"/>
      </g>
     </g>
     <g id="text_6">
      <!-- 0.0 -->
      <defs>
       <path d="M 10.6875 12.40625 
L 21 12.40625 
L 21 0 
L 10.6875 0 
z
" id="DejaVuSans-46"/>
      </defs>
      <g transform="translate(25.155 305.02275)scale(0.16 -0.16)">
       <use xlink:href="#DejaVuSans-48"/>
       <use x="63.623047" xlink:href="#DejaVuSans-46"/>
       <use x="95.410156" xlink:href="#DejaVuSans-48"/>
      </g>
     </g>
    </g>
    <g id="ytick_2">
     <g id="line2d_23">
      <path clip-path="url(#p7e51a02020)" d="M 57.6 245.22202 
L 338.688 245.22202 
" style="fill:none;stroke:#b0b0b0;stroke-linecap:square;stroke-width:0.8;"/>
     </g>
     <g id="line2d_24">
      <g>
       <use style="stroke:#000000;stroke-width:0.8;" x="57.6" xlink:href="#m8b723cc941" y="245.22202"/>
      </g>
     </g>
     <g id="text_7">
      <!-- 0.2 -->
      <g transform="translate(25.155 251.30077)scale(0.16 -0.16)">
       <use xlink:href="#DejaVuSans-48"/>
       <use x="63.623047" xlink:href="#DejaVuSans-46"/>
       <use x="95.410156" xlink:href="#DejaVuSans-50"/>
      </g>
     </g>
    </g>
    <g id="ytick_3">
     <g id="line2d_25">
      <path clip-path="url(#p7e51a02020)" d="M 57.6 191.50004 
L 338.688 191.50004 
" style="fill:none;stroke:#b0b0b0;stroke-linecap:square;stroke-width:0.8;"/>
     </g>
     <g id="line2d_26">
      <g>
       <use style="stroke:#000000;stroke-width:0.8;" x="57.6" xlink:href="#m8b723cc941" y="191.50004"/>
      </g>
     </g>
     <g id="text_8">
      <!-- 0.4 -->
      <g transform="translate(25.155 197.57879)scale(0.16 -0.16)">
       <use xlink:href="#DejaVuSans-48"/>
       <use x="63.623047" xlink:href="#DejaVuSans-46"/>
       <use x="95.410156" xlink:href="#DejaVuSans-52"/>
      </g>
     </g>
    </g>
    <g id="ytick_4">
     <g id="line2d_27">
      <path clip-path="url(#p7e51a02020)" d="M 57.6 137.778059 
L 338.688 137.778059 
" style="fill:none;stroke:#b0b0b0;stroke-linecap:square;stroke-width:0.8;"/>
     </g>
     <g id="line2d_28">
      <g>
       <use style="stroke:#000000;stroke-width:0.8;" x="57.6" xlink:href="#m8b723cc941" y="137.778059"/>
      </g>
     </g>
     <g id="text_9">
      <!-- 0.6 -->
      <g transform="translate(25.155 143.856809)scale(0.16 -0.16)">
       <use xlink:href="#DejaVuSans-48"/>
       <use x="63.623047" xlink:href="#DejaVuSans-46"/>
       <use x="95.410156" xlink:href="#DejaVuSans-54"/>
      </g>
     </g>
    </g>
    <g id="ytick_5">
     <g id="line2d_29">
      <path clip-path="url(#p7e51a02020)" d="M 57.6 84.056079 
L 338.688 84.056079 
" style="fill:none;stroke:#b0b0b0;stroke-linecap:square;stroke-width:0.8;"/>
     </g>
     <g id="line2d_30">
      <g>
       <use style="stroke:#000000;stroke-width:0.8;" x="57.6" xlink:href="#m8b723cc941" y="84.056079"/>
      </g>
     </g>
     <g id="text_10">
      <!-- 0.8 -->
      <defs>
       <path d="M 31.78125 34.625 
Q 24.75 34.625 20.71875 30.859375 
Q 16.703125 27.09375 16.703125 20.515625 
Q 16.703125 13.921875 20.71875 10.15625 
Q 24.75 6.390625 31.78125 6.390625 
Q 38.8125 6.390625 42.859375 10.171875 
Q 46.921875 13.96875 46.921875 20.515625 
Q 46.921875 27.09375 42.890625 30.859375 
Q 38.875 34.625 31.78125 34.625 
z
M 21.921875 38.8125 
Q 15.578125 40.375 12.03125 44.71875 
Q 8.5 49.078125 8.5 55.328125 
Q 8.5 64.0625 14.71875 69.140625 
Q 20.953125 74.21875 31.78125 74.21875 
Q 42.671875 74.21875 48.875 69.140625 
Q 55.078125 64.0625 55.078125 55.328125 
Q 55.078125 49.078125 51.53125 44.71875 
Q 48 40.375 41.703125 38.8125 
Q 48.828125 37.15625 52.796875 32.3125 
Q 56.78125 27.484375 56.78125 20.515625 
Q 56.78125 9.90625 50.3125 4.234375 
Q 43.84375 -1.421875 31.78125 -1.421875 
Q 19.734375 -1.421875 13.25 4.234375 
Q 6.78125 9.90625 6.78125 20.515625 
Q 6.78125 27.484375 10.78125 32.3125 
Q 14.796875 37.15625 21.921875 38.8125 
z
M 18.3125 54.390625 
Q 18.3125 48.734375 21.84375 45.5625 
Q 25.390625 42.390625 31.78125 42.390625 
Q 38.140625 42.390625 41.71875 45.5625 
Q 45.3125 48.734375 45.3125 54.390625 
Q 45.3125 60.0625 41.71875 63.234375 
Q 38.140625 66.40625 31.78125 66.40625 
Q 25.390625 66.40625 21.84375 63.234375 
Q 18.3125 60.0625 18.3125 54.390625 
z
" id="DejaVuSans-56"/>
      </defs>
      <g transform="translate(25.155 90.134829)scale(0.16 -0.16)">
       <use xlink:href="#DejaVuSans-48"/>
       <use x="63.623047" xlink:href="#DejaVuSans-46"/>
       <use x="95.410156" xlink:href="#DejaVuSans-56"/>
      </g>
     </g>
    </g>
    <g id="ytick_6">
     <g id="line2d_31">
      <path clip-path="url(#p7e51a02020)" d="M 57.6 30.334099 
L 338.688 30.334099 
" style="fill:none;stroke:#b0b0b0;stroke-linecap:square;stroke-width:0.8;"/>
     </g>
     <g id="line2d_32">
      <g>
       <use style="stroke:#000000;stroke-width:0.8;" x="57.6" xlink:href="#m8b723cc941" y="30.334099"/>
      </g>
     </g>
     <g id="text_11">
      <!-- 1.0 -->
      <g transform="translate(25.155 36.412849)scale(0.16 -0.16)">
       <use xlink:href="#DejaVuSans-49"/>
       <use x="63.623047" xlink:href="#DejaVuSans-46"/>
       <use x="95.410156" xlink:href="#DejaVuSans-48"/>
      </g>
     </g>
    </g>
    <g id="text_12">
     <!-- Fraction of function,target pairs -->
     <defs>
      <path d="M 9.8125 72.90625 
L 51.703125 72.90625 
L 51.703125 64.59375 
L 19.671875 64.59375 
L 19.671875 43.109375 
L 48.578125 43.109375 
L 48.578125 34.8125 
L 19.671875 34.8125 
L 19.671875 0 
L 9.8125 0 
z
" id="DejaVuSans-70"/>
      <path d="M 41.109375 46.296875 
Q 39.59375 47.171875 37.8125 47.578125 
Q 36.03125 48 33.890625 48 
Q 26.265625 48 22.1875 43.046875 
Q 18.109375 38.09375 18.109375 28.8125 
L 18.109375 0 
L 9.078125 0 
L 9.078125 54.6875 
L 18.109375 54.6875 
L 18.109375 46.1875 
Q 20.953125 51.171875 25.484375 53.578125 
Q 30.03125 56 36.53125 56 
Q 37.453125 56 38.578125 55.875 
Q 39.703125 55.765625 41.0625 55.515625 
z
" id="DejaVuSans-114"/>
      <path d="M 48.78125 52.59375 
L 48.78125 44.1875 
Q 44.96875 46.296875 41.140625 47.34375 
Q 37.3125 48.390625 33.40625 48.390625 
Q 24.65625 48.390625 19.8125 42.84375 
Q 14.984375 37.3125 14.984375 27.296875 
Q 14.984375 17.28125 19.8125 11.734375 
Q 24.65625 6.203125 33.40625 6.203125 
Q 37.3125 6.203125 41.140625 7.25 
Q 44.96875 8.296875 48.78125 10.40625 
L 48.78125 2.09375 
Q 45.015625 0.34375 40.984375 -0.53125 
Q 36.96875 -1.421875 32.421875 -1.421875 
Q 20.0625 -1.421875 12.78125 6.34375 
Q 5.515625 14.109375 5.515625 27.296875 
Q 5.515625 40.671875 12.859375 48.328125 
Q 20.21875 56 33.015625 56 
Q 37.15625 56 41.109375 55.140625 
Q 45.0625 54.296875 48.78125 52.59375 
z
" id="DejaVuSans-99"/>
      <path d="M 18.3125 70.21875 
L 18.3125 54.6875 
L 36.8125 54.6875 
L 36.8125 47.703125 
L 18.3125 47.703125 
L 18.3125 18.015625 
Q 18.3125 11.328125 20.140625 9.421875 
Q 21.96875 7.515625 27.59375 7.515625 
L 36.8125 7.515625 
L 36.8125 0 
L 27.59375 0 
Q 17.1875 0 13.234375 3.875 
Q 9.28125 7.765625 9.28125 18.015625 
L 9.28125 47.703125 
L 2.6875 47.703125 
L 2.6875 54.6875 
L 9.28125 54.6875 
L 9.28125 70.21875 
z
" id="DejaVuSans-116"/>
      <path d="M 8.5 21.578125 
L 8.5 54.6875 
L 17.484375 54.6875 
L 17.484375 21.921875 
Q 17.484375 14.15625 20.5 10.265625 
Q 23.53125 6.390625 29.59375 6.390625 
Q 36.859375 6.390625 41.078125 11.03125 
Q 45.3125 15.671875 45.3125 23.6875 
L 45.3125 54.6875 
L 54.296875 54.6875 
L 54.296875 0 
L 45.3125 0 
L 45.3125 8.40625 
Q 42.046875 3.421875 37.71875 1 
Q 33.40625 -1.421875 27.6875 -1.421875 
Q 18.265625 -1.421875 13.375 4.4375 
Q 8.5 10.296875 8.5 21.578125 
z
M 31.109375 56 
z
" id="DejaVuSans-117"/>
      <path d="M 11.71875 12.40625 
L 22.015625 12.40625 
L 22.015625 4 
L 14.015625 -11.625 
L 7.71875 -11.625 
L 11.71875 4 
z
" id="DejaVuSans-44"/>
      <path d="M 18.109375 8.203125 
L 18.109375 -20.796875 
L 9.078125 -20.796875 
L 9.078125 54.6875 
L 18.109375 54.6875 
L 18.109375 46.390625 
Q 20.953125 51.265625 25.265625 53.625 
Q 29.59375 56 35.59375 56 
Q 45.5625 56 51.78125 48.09375 
Q 58.015625 40.1875 58.015625 27.296875 
Q 58.015625 14.40625 51.78125 6.484375 
Q 45.5625 -1.421875 35.59375 -1.421875 
Q 29.59375 -1.421875 25.265625 0.953125 
Q 20.953125 3.328125 18.109375 8.203125 
z
M 48.6875 27.296875 
Q 48.6875 37.203125 44.609375 42.84375 
Q 40.53125 48.484375 33.40625 48.484375 
Q 26.265625 48.484375 22.1875 42.84375 
Q 18.109375 37.203125 18.109375 27.296875 
Q 18.109375 17.390625 22.1875 11.75 
Q 26.265625 6.109375 33.40625 6.109375 
Q 40.53125 6.109375 44.609375 11.75 
Q 48.6875 17.390625 48.6875 27.296875 
z
" id="DejaVuSans-112"/>
     </defs>
     <g transform="translate(17.619531 298.435375)rotate(-90)scale(0.17 -0.17)">
      <use xlink:href="#DejaVuSans-70"/>
      <use x="57.410156" xlink:href="#DejaVuSans-114"/>
      <use x="98.523438" xlink:href="#DejaVuSans-97"/>
      <use x="159.802734" xlink:href="#DejaVuSans-99"/>
      <use x="214.783203" xlink:href="#DejaVuSans-116"/>
      <use x="253.992188" xlink:href="#DejaVuSans-105"/>
      <use x="281.775391" xlink:href="#DejaVuSans-111"/>
      <use x="342.957031" xlink:href="#DejaVuSans-110"/>
      <use x="406.335938" xlink:href="#DejaVuSans-32"/>
      <use x="438.123047" xlink:href="#DejaVuSans-111"/>
      <use x="499.304688" xlink:href="#DejaVuSans-102"/>
      <use x="534.509766" xlink:href="#DejaVuSans-32"/>
      <use x="566.296875" xlink:href="#DejaVuSans-102"/>
      <use x="601.501953" xlink:href="#DejaVuSans-117"/>
      <use x="664.880859" xlink:href="#DejaVuSans-110"/>
      <use x="728.259766" xlink:href="#DejaVuSans-99"/>
      <use x="783.240234" xlink:href="#DejaVuSans-116"/>
      <use x="822.449219" xlink:href="#DejaVuSans-105"/>
      <use x="850.232422" xlink:href="#DejaVuSans-111"/>
      <use x="911.414062" xlink:href="#DejaVuSans-110"/>
      <use x="974.792969" xlink:href="#DejaVuSans-44"/>
      <use x="1006.580078" xlink:href="#DejaVuSans-116"/>
      <use x="1045.789062" xlink:href="#DejaVuSans-97"/>
      <use x="1107.068359" xlink:href="#DejaVuSans-114"/>
      <use x="1148.166016" xlink:href="#DejaVuSans-103"/>
      <use x="1211.642578" xlink:href="#DejaVuSans-101"/>
      <use x="1273.166016" xlink:href="#DejaVuSans-116"/>
      <use x="1312.375" xlink:href="#DejaVuSans-32"/>
      <use x="1344.162109" xlink:href="#DejaVuSans-112"/>
      <use x="1407.638672" xlink:href="#DejaVuSans-97"/>
      <use x="1468.917969" xlink:href="#DejaVuSans-105"/>
      <use x="1496.701172" xlink:href="#DejaVuSans-114"/>
      <use x="1537.814453" xlink:href="#DejaVuSans-115"/>
     </g>
    </g>
   </g>
   <g id="line2d_33">
    <defs>
     <path d="M 0 1.5 
C 0.397805 1.5 0.77937 1.341951 1.06066 1.06066 
C 1.341951 0.77937 1.5 0.397805 1.5 0 
C 1.5 -0.397805 1.341951 -0.77937 1.06066 -1.06066 
C 0.77937 -1.341951 0.397805 -1.5 0 -1.5 
C -0.397805 -1.5 -0.77937 -1.341951 -1.06066 -1.06066 
C -1.341951 -0.77937 -1.5 -0.397805 -1.5 0 
C -1.5 0.397805 -1.341951 0.77937 -1.06066 1.06066 
C -0.77937 1.341951 -0.397805 1.5 0 1.5 
z
" id="mf0cff0dc3b" style="stroke:#f5deb3;"/>
    </defs>
    <g>
     <use style="fill:#f5deb3;stroke:#f5deb3;" x="188.023512" xlink:href="#mf0cff0dc3b" y="30.334099"/>
     <use style="fill:#f5deb3;stroke:#f5deb3;" x="188.023512" xlink:href="#mf0cff0dc3b" y="30.334099"/>
    </g>
   </g>
   <g id="line2d_34">
    <defs>
     <path d="M 0 1.5 
C 0.397805 1.5 0.77937 1.341951 1.06066 1.06066 
C 1.341951 0.77937 1.5 0.397805 1.5 0 
C 1.5 -0.397805 1.341951 -0.77937 1.06066 -1.06066 
C 0.77937 -1.341951 0.397805 -1.5 0 -1.5 
C -0.397805 -1.5 -0.77937 -1.341951 -1.06066 -1.06066 
C -1.341951 -0.77937 -1.5 -0.397805 -1.5 0 
C -1.5 0.397805 -1.341951 0.77937 -1.06066 1.06066 
C -0.77937 1.341951 -0.397805 1.5 0 1.5 
z
" id="m3916bd4292" style="stroke:#000080;"/>
    </defs>
    <g>
     <use style="fill:#000080;stroke:#000080;" x="194.650391" xlink:href="#m3916bd4292" y="30.334099"/>
     <use style="fill:#000080;stroke:#000080;" x="194.650391" xlink:href="#m3916bd4292" y="30.334099"/>
    </g>
   </g>
   <g id="line2d_35">
    <path d="M 109.289743 298.944 
L 109.289743 298.417314 
L 111.104637 298.417314 
L 111.104637 297.890628 
L 111.346294 297.890628 
L 111.346294 297.363942 
L 113.524343 297.363942 
L 113.524343 296.837256 
L 113.752311 296.837256 
L 113.752311 296.31057 
L 113.873839 296.31057 
L 113.891132 295.257197 
L 114.080224 295.257197 
L 114.080224 294.730511 
L 114.452366 294.730511 
L 114.452366 294.203825 
L 115.973966 294.203825 
L 115.973966 293.677139 
L 116.724481 293.677139 
L 116.724481 293.150453 
L 117.500326 293.150453 
L 117.500326 292.623767 
L 117.695961 292.623767 
L 117.695961 292.097081 
L 118.229649 292.097081 
L 118.256582 291.043709 
L 119.045825 291.043709 
L 119.045825 290.517023 
L 119.515299 290.517023 
L 119.515299 289.463651 
L 120.453579 289.463651 
L 120.453579 288.936964 
L 120.700949 288.936964 
L 120.700949 288.410278 
L 120.829137 288.410278 
L 120.829137 287.883592 
L 121.876822 287.883592 
L 121.953191 286.83022 
L 122.061712 286.83022 
L 122.061712 286.303534 
L 122.201787 286.303534 
L 122.201787 285.776848 
L 122.393899 285.776848 
L 122.468041 284.723476 
L 122.761498 284.723476 
L 122.761498 284.19679 
L 122.978394 284.19679 
L 122.978394 283.670104 
L 124.149388 283.670104 
L 124.149388 283.143418 
L 124.808619 283.143418 
L 124.891598 282.090045 
L 126.598834 282.090045 
L 126.598834 281.563359 
L 126.731768 281.563359 
L 126.822577 280.509987 
L 127.309739 280.509987 
L 127.349728 279.456615 
L 127.54831 279.456615 
L 127.54831 278.929929 
L 128.805122 278.929929 
L 128.805122 278.403243 
L 130.337841 278.403243 
L 130.337841 277.876557 
L 132.876441 277.876557 
L 132.876441 277.349871 
L 133.717051 277.349871 
L 133.717051 276.823185 
L 134.745246 276.823185 
L 134.745246 276.296499 
L 135.132974 276.296499 
L 135.132974 275.769812 
L 141.917041 275.769812 
L 141.917041 275.243126 
L 150.416702 275.243126 
L 150.416702 274.71644 
L 151.381313 274.71644 
L 151.381313 274.189754 
L 152.264752 274.189754 
L 152.264752 273.663068 
L 152.530716 273.663068 
L 152.530716 273.136382 
L 154.309016 273.136382 
L 154.310719 272.08301 
L 154.739513 272.08301 
L 154.739513 271.556324 
L 155.169365 271.556324 
L 155.240526 270.502952 
L 155.760475 270.502952 
L 155.760475 269.976266 
L 155.899348 269.976266 
L 155.899348 269.449579 
L 156.087932 269.449579 
L 156.087932 268.922893 
L 156.436501 268.922893 
L 156.436501 268.396207 
L 156.909268 268.396207 
L 156.909268 267.869521 
L 157.158291 267.869521 
L 157.158291 267.342835 
L 157.470687 267.342835 
L 157.470687 266.816149 
L 158.191283 266.816149 
L 158.191283 266.289463 
L 166.15096 266.289463 
L 166.15096 265.762777 
L 166.475147 265.762777 
L 166.475147 265.236091 
L 167.536285 265.236091 
L 167.536285 264.709405 
L 167.901647 264.709405 
L 167.941428 263.656033 
L 168.013737 263.656033 
L 168.061777 262.60266 
L 168.634157 262.60266 
L 168.634157 262.075974 
L 168.970101 262.075974 
L 168.970101 261.549288 
L 169.20792 261.549288 
L 169.20792 261.022602 
L 169.322025 261.022602 
L 169.329222 259.96923 
L 169.493221 259.96923 
L 169.493221 259.442544 
L 169.814565 259.442544 
L 169.836245 258.389172 
L 170.17128 258.389172 
L 170.17128 257.862486 
L 170.477109 257.862486 
L 170.477109 257.3358 
L 170.988289 257.3358 
L 170.988289 256.809114 
L 171.676522 256.809114 
L 171.676522 256.282427 
L 173.04641 256.282427 
L 173.04641 255.755741 
L 178.140246 255.755741 
L 178.140246 255.229055 
L 178.507112 255.229055 
L 178.507112 254.702369 
L 178.712077 254.702369 
L 178.712077 254.175683 
L 179.204593 254.175683 
L 179.275516 253.122311 
L 179.929401 253.122311 
L 179.982215 251.542253 
L 180.056276 251.542253 
L 180.142026 250.488881 
L 180.268905 250.488881 
L 180.354766 249.435508 
L 180.440206 249.435508 
L 180.533936 247.85545 
L 180.587972 247.85545 
L 180.676409 246.275392 
L 181.151488 246.275392 
L 181.238575 245.22202 
L 181.552675 245.22202 
L 181.615035 244.168648 
L 181.781069 244.168648 
L 181.781069 243.641962 
L 181.933317 243.641962 
L 181.956354 242.588589 
L 182.183343 242.588589 
L 182.265438 241.008531 
L 182.362149 241.008531 
L 182.456294 239.428473 
L 182.555663 239.428473 
L 182.575536 238.375101 
L 182.701658 238.375101 
L 182.701658 237.848415 
L 182.812932 237.848415 
L 182.907323 226.261321 
L 183.077258 226.261321 
L 183.171535 224.154577 
L 183.202739 224.154577 
L 183.299571 223.101204 
L 183.485887 223.101204 
L 183.485887 215.727599 
L 183.693297 215.727599 
L 183.783996 213.094169 
L 183.837626 213.094169 
L 183.837626 204.140506 
L 184.020789 204.140506 
L 184.020789 201.507075 
L 189.973278 201.507075 
L 189.99771 200.453703 
L 190.119142 200.453703 
L 190.222589 199.400331 
L 190.526525 199.400331 
L 190.632045 197.293586 
L 190.756106 197.293586 
L 190.785144 196.240214 
L 190.87427 196.240214 
L 190.923149 194.660156 
L 190.988315 194.660156 
L 191.036668 193.606784 
L 191.122253 193.606784 
L 191.177638 190.973354 
L 191.268263 190.973354 
L 191.268263 190.446667 
L 191.419347 190.446667 
L 191.526871 188.866609 
L 191.564912 188.866609 
L 191.58621 187.286551 
L 191.729 187.286551 
L 191.823944 185.179807 
L 191.966381 185.179807 
L 192.073328 182.546376 
L 192.17283 182.546376 
L 192.265201 179.912946 
L 192.308989 179.912946 
L 192.4175 176.752829 
L 192.473699 176.752829 
L 192.524009 164.63905 
L 192.595981 164.63905 
L 192.704422 144.098292 
L 192.739605 144.098292 
L 192.817059 133.037885 
L 192.852202 133.037885 
L 192.96185 120.924105 
L 192.999482 120.924105 
L 193.074686 116.18393 
L 193.129912 116.18393 
L 193.229794 95.116487 
L 193.247876 95.116487 
L 193.344183 80.895963 
L 193.391684 80.895963 
L 193.501421 68.255497 
L 193.52228 68.255497 
L 193.615657 65.622066 
L 193.777031 65.622066 
L 193.876455 45.607995 
L 193.893352 45.607995 
L 193.923233 44.027937 
L 194.061774 44.027937 
L 194.087541 41.921193 
L 194.451501 41.921193 
L 194.504239 31.914157 
L 194.621562 31.914157 
L 194.650391 30.334099 
L 338.688 30.334099 
L 338.688 30.334099 
" style="fill:none;stroke:#000080;stroke-linecap:square;stroke-width:1.5;"/>
   </g>
   <g id="line2d_36">
    <defs>
     <path d="M 0 6 
C 1.591219 6 3.117479 5.367802 4.242641 4.242641 
C 5.367802 3.117479 6 1.591219 6 0 
C 6 -1.591219 5.367802 -3.117479 4.242641 -4.242641 
C 3.117479 -5.367802 1.591219 -6 0 -6 
C -1.591219 -6 -3.117479 -5.367802 -4.242641 -4.242641 
C -5.367802 -3.117479 -6 -1.591219 -6 0 
C -6 1.591219 -5.367802 3.117479 -4.242641 4.242641 
C -3.117479 5.367802 -1.591219 6 0 6 
z
" id="m05af347b3d" style="stroke:#000080;stroke-width:1.5;"/>
    </defs>
    <g>
     <use style="fill-opacity:0;stroke:#000080;stroke-width:1.5;" x="180.440206" xlink:href="#m05af347b3d" y="248.908822"/>
     <use style="fill-opacity:0;stroke:#000080;stroke-width:1.5;" x="194.650391" xlink:href="#m05af347b3d" y="30.860785"/>
     <use style="fill-opacity:0;stroke:#000080;stroke-width:1.5;" x="194.650391" xlink:href="#m05af347b3d" y="30.334099"/>
     <use style="fill-opacity:0;stroke:#000080;stroke-width:1.5;" x="194.650391" xlink:href="#m05af347b3d" y="30.334099"/>
     <use style="fill-opacity:0;stroke:#000080;stroke-width:1.5;" x="338.688" xlink:href="#m05af347b3d" y="30.334099"/>
    </g>
   </g>
   <g id="line2d_37">
    <path style="fill:none;stroke:#000080;stroke-linecap:square;stroke-width:1.5;"/>
    <g/>
   </g>
   <g id="line2d_38">
    <g>
     <use style="fill:#000080;stroke:#000080;" x="194.330623" xlink:href="#m3916bd4292" y="30.334099"/>
     <use style="fill:#000080;stroke:#000080;" x="194.330623" xlink:href="#m3916bd4292" y="30.334099"/>
    </g>
   </g>
   <g id="line2d_39">
    <path d="M 111.702614 298.944 
L 111.702614 298.417314 
L 111.819788 298.417314 
L 111.819788 297.890628 
L 112.33754 297.890628 
L 112.33754 297.363942 
L 112.600071 297.363942 
L 112.600071 296.837256 
L 112.895347 296.837256 
L 112.895347 296.31057 
L 113.78712 296.31057 
L 113.821859 295.257197 
L 114.13144 295.257197 
L 114.13144 294.730511 
L 114.652055 294.730511 
L 114.652055 294.203825 
L 115.205729 294.203825 
L 115.205729 293.677139 
L 115.491886 293.677139 
L 115.507647 292.623767 
L 116.695072 292.623767 
L 116.695072 292.097081 
L 116.81241 292.097081 
L 116.827022 291.043709 
L 117.073569 291.043709 
L 117.073569 290.517023 
L 117.930605 290.517023 
L 117.930605 289.990337 
L 118.642511 289.990337 
L 118.642511 289.463651 
L 119.590253 289.463651 
L 119.615166 288.410278 
L 119.923616 288.410278 
L 119.923616 287.883592 
L 120.747672 287.883592 
L 120.829137 286.83022 
L 121.321384 286.83022 
L 121.422678 285.776848 
L 121.811096 285.776848 
L 121.854941 284.723476 
L 123.00916 284.723476 
L 123.00916 284.19679 
L 123.131685 284.19679 
L 123.131685 283.670104 
L 123.573718 283.670104 
L 123.573718 283.143418 
L 123.741547 283.143418 
L 123.741547 282.616732 
L 123.878557 282.616732 
L 123.878557 282.090045 
L 124.226003 282.090045 
L 124.226003 281.563359 
L 125.944518 281.563359 
L 125.961828 280.509987 
L 126.673734 280.509987 
L 126.673734 279.983301 
L 126.888323 279.983301 
L 126.888323 279.456615 
L 127.084089 279.456615 
L 127.084089 278.929929 
L 127.689902 278.929929 
L 127.689902 278.403243 
L 129.139943 278.403243 
L 129.139943 277.876557 
L 129.276384 277.876557 
L 129.276384 277.349871 
L 129.908566 277.349871 
L 129.908566 276.823185 
L 131.293837 276.823185 
L 131.293837 276.296499 
L 131.502845 276.296499 
L 131.502845 275.769812 
L 132.488101 275.769812 
L 132.488101 275.243126 
L 133.788988 275.243126 
L 133.788988 274.71644 
L 134.359394 274.71644 
L 134.359394 274.189754 
L 137.500606 274.189754 
L 137.500606 273.663068 
L 139.746525 273.663068 
L 139.746525 273.136382 
L 149.935513 273.136382 
L 149.935513 272.609696 
L 150.187474 272.609696 
L 150.187474 272.08301 
L 151.025293 272.08301 
L 151.025293 271.556324 
L 152.212989 271.556324 
L 152.212989 271.029638 
L 152.652833 271.029638 
L 152.652833 270.502952 
L 154.065562 270.502952 
L 154.065562 269.976266 
L 154.510453 269.976266 
L 154.549119 268.922893 
L 154.739513 268.922893 
L 154.739513 268.396207 
L 154.986906 268.396207 
L 155.006547 267.342835 
L 155.188801 267.342835 
L 155.188801 266.816149 
L 155.324253 266.816149 
L 155.429946 265.762777 
L 155.625226 265.762777 
L 155.625226 265.236091 
L 157.565585 265.236091 
L 157.565585 264.709405 
L 159.210254 264.709405 
L 159.210254 264.182719 
L 166.281702 264.182719 
L 166.281702 263.656033 
L 166.772601 263.656033 
L 166.772601 263.129347 
L 167.10026 263.129347 
L 167.10026 262.60266 
L 167.406618 262.60266 
L 167.406618 262.075974 
L 167.51953 262.075974 
L 167.51953 261.549288 
L 168.004423 261.549288 
L 168.004423 261.022602 
L 168.119713 261.022602 
L 168.119713 260.495916 
L 168.387568 260.495916 
L 168.478465 259.442544 
L 168.964224 259.442544 
L 168.964224 258.915858 
L 169.092334 258.915858 
L 169.092334 257.862486 
L 169.317706 257.862486 
L 169.323465 256.809114 
L 169.970616 256.809114 
L 169.994873 255.755741 
L 177.503158 255.755741 
L 177.503158 255.229055 
L 178.414194 255.229055 
L 178.414194 254.702369 
L 179.468075 254.702369 
L 179.468075 254.175683 
L 179.828415 254.175683 
L 179.828415 253.648997 
L 180.440206 253.648997 
L 180.483908 252.068939 
L 180.661012 252.068939 
L 180.748333 249.962195 
L 180.808044 249.962195 
L 180.808044 249.435508 
L 181.145643 249.435508 
L 181.145643 248.908822 
L 181.336436 248.908822 
L 181.443454 247.85545 
L 181.485433 247.85545 
L 181.577646 246.275392 
L 181.747918 246.275392 
L 181.747918 245.748706 
L 181.901154 245.748706 
L 182.005119 243.641962 
L 182.141287 243.641962 
L 182.230105 242.061903 
L 182.33111 242.061903 
L 182.412173 240.481845 
L 182.475265 240.481845 
L 182.570823 238.901787 
L 182.816585 238.901787 
L 182.913267 228.368065 
L 183.046484 228.368065 
L 183.107326 225.734635 
L 183.171535 225.734635 
L 183.217671 217.307658 
L 183.378838 217.307658 
L 183.439814 204.140506 
L 183.629716 204.140506 
L 183.687613 203.087133 
L 183.813497 203.087133 
L 183.813497 202.560447 
L 183.92789 202.560447 
L 184.0149 192.553412 
L 184.070607 192.553412 
L 184.101787 191.50004 
L 190.091817 191.50004 
L 190.091817 190.973354 
L 190.261414 190.973354 
L 190.261414 190.446667 
L 190.712247 190.446667 
L 190.822947 189.393295 
L 190.937535 189.393295 
L 190.978129 187.813237 
L 191.050133 187.813237 
L 191.135446 186.759865 
L 191.189763 186.759865 
L 191.189763 186.233179 
L 191.326653 186.233179 
L 191.404135 183.073062 
L 191.548216 183.073062 
L 191.656951 181.493004 
L 191.671545 181.493004 
L 191.778324 178.332888 
L 191.786068 178.332888 
L 191.891362 176.226143 
L 191.904577 176.226143 
L 191.982288 174.646085 
L 192.022091 174.646085 
L 192.125194 171.485969 
L 192.160982 171.485969 
L 192.197859 170.432596 
L 192.272346 170.432596 
L 192.372449 169.379224 
L 192.457851 169.379224 
L 192.547779 156.738758 
L 192.613218 156.738758 
L 192.696322 154.632014 
L 192.821736 154.632014 
L 192.93046 153.051956 
L 193.007072 153.051956 
L 193.085008 141.991548 
L 193.150118 141.991548 
L 193.202177 139.884804 
L 193.271228 139.884804 
L 193.379006 107.756953 
L 193.383535 107.756953 
L 193.473331 102.490092 
L 193.520303 102.490092 
L 193.614584 89.32294 
L 193.65886 89.32294 
L 193.713336 63.515322 
L 193.787831 63.515322 
L 193.879624 59.82852 
L 193.927974 59.82852 
L 194.025496 47.71474 
L 194.067697 47.71474 
L 194.160112 33.494215 
L 194.194382 33.494215 
L 194.241696 31.387471 
L 194.330623 31.387471 
L 194.330623 30.334099 
L 338.688 30.334099 
L 338.688 30.334099 
" style="fill:none;stroke:#000080;stroke-linecap:square;stroke-width:1.5;"/>
   </g>
   <g id="line2d_40">
    <g>
     <use style="fill-opacity:0;stroke:#000080;stroke-width:1.5;" x="168.478465" xlink:href="#m05af347b3d" y="259.442544"/>
     <use style="fill-opacity:0;stroke:#000080;stroke-width:1.5;" x="193.29291" xlink:href="#m05af347b3d" y="128.824396"/>
     <use style="fill-opacity:0;stroke:#000080;stroke-width:1.5;" x="194.330623" xlink:href="#m05af347b3d" y="31.387471"/>
     <use style="fill-opacity:0;stroke:#000080;stroke-width:1.5;" x="194.330623" xlink:href="#m05af347b3d" y="30.334099"/>
     <use style="fill-opacity:0;stroke:#000080;stroke-width:1.5;" x="338.688" xlink:href="#m05af347b3d" y="30.334099"/>
    </g>
   </g>
   <g id="line2d_41">
    <path style="fill:none;stroke:#000080;stroke-linecap:square;stroke-width:1.5;"/>
    <g/>
   </g>
   <g id="line2d_42">
    <defs>
     <path d="M 0 1.5 
C 0.397805 1.5 0.77937 1.341951 1.06066 1.06066 
C 1.341951 0.77937 1.5 0.397805 1.5 0 
C 1.5 -0.397805 1.341951 -0.77937 1.06066 -1.06066 
C 0.77937 -1.341951 0.397805 -1.5 0 -1.5 
C -0.397805 -1.5 -0.77937 -1.341951 -1.06066 -1.06066 
C -1.341951 -0.77937 -1.5 -0.397805 -1.5 0 
C -1.5 0.397805 -1.341951 0.77937 -1.06066 1.06066 
C -0.77937 1.341951 -0.397805 1.5 0 1.5 
z
" id="m255fe839c7" style="stroke:#ff00ff;"/>
    </defs>
    <g>
     <use style="fill:#ff00ff;stroke:#ff00ff;" x="195.692335" xlink:href="#m255fe839c7" y="30.334099"/>
     <use style="fill:#ff00ff;stroke:#ff00ff;" x="195.692335" xlink:href="#m255fe839c7" y="30.334099"/>
    </g>
   </g>
   <g id="line2d_43">
    <path d="M 126.839037 298.944 
L 126.839037 298.417314 
L 127.961971 298.417314 
L 127.961971 297.890628 
L 128.305651 297.890628 
L 128.305651 297.363942 
L 128.486215 297.363942 
L 128.486215 296.837256 
L 129.411767 296.837256 
L 129.411767 296.31057 
L 129.998016 296.31057 
L 129.998016 295.783884 
L 130.216266 295.783884 
L 130.243356 294.203825 
L 130.384893 294.203825 
L 130.384893 293.677139 
L 130.531948 293.677139 
L 130.531948 293.150453 
L 132.011604 293.150453 
L 132.011604 292.623767 
L 132.163807 292.623767 
L 132.163807 292.097081 
L 132.565279 292.097081 
L 132.565279 291.570395 
L 133.136345 291.570395 
L 133.176429 289.990337 
L 133.672633 289.990337 
L 133.672633 289.463651 
L 133.788988 289.463651 
L 133.788988 288.936964 
L 134.10095 288.936964 
L 134.209101 287.883592 
L 134.582433 287.883592 
L 134.582433 287.356906 
L 134.849486 287.356906 
L 134.849486 286.303534 
L 135.849174 286.303534 
L 135.883489 285.250162 
L 136.304433 285.250162 
L 136.304433 284.723476 
L 136.776048 284.723476 
L 136.776048 284.19679 
L 137.130695 284.19679 
L 137.130695 283.670104 
L 137.26694 283.670104 
L 137.26694 283.143418 
L 137.889044 283.143418 
L 137.941349 282.090045 
L 138.114574 282.090045 
L 138.114574 281.563359 
L 138.409402 281.563359 
L 138.468618 279.983301 
L 138.619973 279.983301 
L 138.645071 278.929929 
L 138.93936 278.929929 
L 138.93936 278.403243 
L 139.18424 278.403243 
L 139.18424 277.876557 
L 140.130759 277.876557 
L 140.130759 277.349871 
L 140.370937 277.349871 
L 140.446497 276.296499 
L 140.54049 276.296499 
L 140.54049 275.769812 
L 141.417939 275.769812 
L 141.489105 274.71644 
L 141.658729 274.71644 
L 141.669275 273.663068 
L 141.948198 273.663068 
L 141.948198 273.136382 
L 142.215919 273.136382 
L 142.215919 272.609696 
L 143.173507 272.609696 
L 143.173507 272.08301 
L 143.343554 272.08301 
L 143.343554 271.029638 
L 143.60342 271.029638 
L 143.60342 270.502952 
L 144.001481 270.502952 
L 144.001481 269.976266 
L 144.272998 269.976266 
L 144.272998 269.449579 
L 144.932396 269.449579 
L 144.932396 268.922893 
L 145.350002 268.922893 
L 145.381278 267.869521 
L 145.553708 267.869521 
L 145.553708 267.342835 
L 146.234984 267.342835 
L 146.234984 266.816149 
L 146.712583 266.816149 
L 146.712583 266.289463 
L 148.770728 266.289463 
L 148.770728 265.762777 
L 149.152448 265.762777 
L 149.152448 265.236091 
L 150.996495 265.236091 
L 150.996495 264.709405 
L 163.858616 264.709405 
L 163.858616 264.182719 
L 164.688322 264.182719 
L 164.688322 263.656033 
L 165.199047 263.656033 
L 165.199047 263.129347 
L 165.491103 263.129347 
L 165.491103 262.60266 
L 165.801265 262.60266 
L 165.802146 261.549288 
L 166.450553 261.549288 
L 166.450553 261.022602 
L 166.831654 261.022602 
L 166.831654 260.495916 
L 166.952462 260.495916 
L 167.035547 259.442544 
L 167.651532 259.442544 
L 167.751064 258.389172 
L 167.784901 258.389172 
L 167.826518 257.3358 
L 167.997435 257.3358 
L 167.997435 256.809114 
L 168.157462 256.809114 
L 168.257981 255.755741 
L 168.303828 255.755741 
L 168.303828 255.229055 
L 168.440649 255.229055 
L 168.519214 254.175683 
L 168.601179 254.175683 
L 168.682014 253.122311 
L 168.758015 253.122311 
L 168.758015 252.595625 
L 169.112744 252.595625 
L 169.194148 251.015567 
L 169.62247 251.015567 
L 169.62247 250.488881 
L 169.751471 250.488881 
L 169.751471 249.962195 
L 169.928258 249.962195 
L 169.976857 248.908822 
L 170.226043 248.908822 
L 170.226043 248.382136 
L 170.589254 248.382136 
L 170.673393 246.802078 
L 171.243526 246.802078 
L 171.243526 246.275392 
L 171.460094 246.275392 
L 171.460094 245.748706 
L 172.05231 245.748706 
L 172.05231 245.22202 
L 172.209784 245.22202 
L 172.209784 244.695334 
L 180.94202 244.695334 
L 180.94202 244.168648 
L 181.133946 244.168648 
L 181.133946 243.641962 
L 181.284312 243.641962 
L 181.291198 242.061903 
L 181.53303 242.061903 
L 181.614323 240.481845 
L 181.715764 240.481845 
L 181.755682 239.428473 
L 181.859464 239.428473 
L 181.9099 238.375101 
L 181.998161 238.375101 
L 182.057911 236.795043 
L 182.138181 236.795043 
L 182.214646 227.314693 
L 182.309246 227.314693 
L 182.337595 225.734635 
L 182.430514 225.734635 
L 182.530705 223.627891 
L 182.6048 223.627891 
L 182.715356 220.467774 
L 182.854063 220.467774 
L 182.900716 218.887716 
L 183.058276 218.887716 
L 183.058276 218.36103 
L 183.181617 218.36103 
L 183.292142 216.780971 
L 183.298925 216.780971 
L 183.40518 208.353994 
L 183.418336 208.353994 
L 183.469263 197.293586 
L 183.605298 197.293586 
L 183.713178 186.233179 
L 183.719169 186.233179 
L 183.802205 182.01969 
L 183.841383 182.01969 
L 183.948128 177.279515 
L 184.01397 177.279515 
L 184.093149 165.165736 
L 184.171969 165.165736 
L 184.239116 150.945211 
L 184.344373 150.945211 
L 184.399342 140.938176 
L 184.469547 140.938176 
L 184.577029 137.251373 
L 184.665049 137.251373 
L 184.696676 126.717652 
L 184.787654 126.717652 
L 184.887303 117.237302 
L 184.995765 117.237302 
L 185.106178 115.657244 
L 185.270785 115.657244 
L 185.380909 114.603872 
L 185.82492 114.603872 
L 185.899643 101.43672 
L 185.937996 101.43672 
L 185.937996 93.009743 
L 186.128778 93.009743 
L 186.198658 88.796254 
L 186.301734 88.796254 
L 186.374717 86.68951 
L 192.991517 86.68951 
L 193.041466 85.636137 
L 193.2084 85.636137 
L 193.263022 84.582765 
L 193.55065 84.582765 
L 193.592941 83.529393 
L 193.687187 83.529393 
L 193.690035 82.476021 
L 193.81966 82.476021 
L 193.927096 81.422649 
L 193.942892 81.422649 
L 193.972513 80.369277 
L 194.131849 80.369277 
L 194.188502 70.362241 
L 194.274086 70.362241 
L 194.305899 68.782183 
L 194.393816 68.782183 
L 194.444173 66.675439 
L 194.543604 66.675439 
L 194.652749 56.141717 
L 194.711935 56.141717 
L 194.815363 41.921193 
L 194.927799 41.921193 
L 194.961754 40.341135 
L 195.184045 40.341135 
L 195.292189 31.914157 
L 195.37399 31.914157 
L 195.37399 31.387471 
L 195.692335 31.387471 
L 195.692335 30.334099 
L 338.688 30.334099 
L 338.688 30.334099 
" style="fill:none;stroke:#ff00ff;stroke-linecap:square;stroke-width:1.5;"/>
   </g>
   <g id="line2d_44">
    <defs>
     <path d="M -0 8.485281 
L 5.091169 0 
L 0 -8.485281 
L -5.091169 -0 
z
" id="m776db0c2dd" style="stroke:#ff00ff;stroke-linejoin:miter;stroke-width:1.5;"/>
    </defs>
    <g>
     <use style="fill-opacity:0;stroke:#ff00ff;stroke-linejoin:miter;stroke-width:1.5;" x="183.800008" xlink:href="#m776db0c2dd" y="183.073062"/>
     <use style="fill-opacity:0;stroke:#ff00ff;stroke-linejoin:miter;stroke-width:1.5;" x="195.692335" xlink:href="#m776db0c2dd" y="31.387471"/>
     <use style="fill-opacity:0;stroke:#ff00ff;stroke-linejoin:miter;stroke-width:1.5;" x="195.692335" xlink:href="#m776db0c2dd" y="30.334099"/>
     <use style="fill-opacity:0;stroke:#ff00ff;stroke-linejoin:miter;stroke-width:1.5;" x="195.692335" xlink:href="#m776db0c2dd" y="30.334099"/>
     <use style="fill-opacity:0;stroke:#ff00ff;stroke-linejoin:miter;stroke-width:1.5;" x="338.688" xlink:href="#m776db0c2dd" y="30.334099"/>
    </g>
   </g>
   <g id="line2d_45">
    <path style="fill:none;stroke:#ff00ff;stroke-linecap:square;stroke-width:1.5;"/>
    <g/>
   </g>
   <g id="line2d_46">
    <defs>
     <path d="M 0 1.5 
C 0.397805 1.5 0.77937 1.341951 1.06066 1.06066 
C 1.341951 0.77937 1.5 0.397805 1.5 0 
C 1.5 -0.397805 1.341951 -0.77937 1.06066 -1.06066 
C 0.77937 -1.341951 0.397805 -1.5 0 -1.5 
C -0.397805 -1.5 -0.77937 -1.341951 -1.06066 -1.06066 
C -1.341951 -0.77937 -1.5 -0.397805 -1.5 0 
C -1.5 0.397805 -1.341951 0.77937 -1.06066 1.06066 
C -0.77937 1.341951 -0.397805 1.5 0 1.5 
z
" id="m0c5a7dad5c" style="stroke:#ff0000;"/>
    </defs>
    <g>
     <use style="fill:#ff0000;stroke:#ff0000;" x="199.481115" xlink:href="#m0c5a7dad5c" y="30.334099"/>
     <use style="fill:#ff0000;stroke:#ff0000;" x="199.481115" xlink:href="#m0c5a7dad5c" y="30.334099"/>
    </g>
   </g>
   <g id="line2d_47">
    <path d="M 118.994305 298.944 
L 118.994305 298.417314 
L 119.326492 298.417314 
L 119.326492 297.890628 
L 119.972465 297.890628 
L 119.972465 297.363942 
L 120.190611 297.363942 
L 120.190611 296.837256 
L 120.63063 296.837256 
L 120.63063 296.31057 
L 121.931406 296.31057 
L 121.964074 295.257197 
L 122.148045 295.257197 
L 122.148045 294.730511 
L 122.362027 294.730511 
L 122.362027 294.203825 
L 122.730291 294.203825 
L 122.771887 293.150453 
L 122.978394 293.150453 
L 122.978394 292.623767 
L 123.192626 292.623767 
L 123.202762 291.570395 
L 124.033832 291.570395 
L 124.033832 291.043709 
L 125.001625 291.043709 
L 125.001625 290.517023 
L 125.147256 290.517023 
L 125.147256 289.990337 
L 125.264693 289.990337 
L 125.264693 289.463651 
L 125.390285 289.463651 
L 125.390285 288.936964 
L 125.682793 288.936964 
L 125.682793 288.410278 
L 126.329885 288.410278 
L 126.329885 287.883592 
L 126.847261 287.883592 
L 126.847261 287.356906 
L 127.035353 287.356906 
L 127.035353 286.83022 
L 127.389626 286.83022 
L 127.389626 286.303534 
L 127.658536 286.303534 
L 127.658536 285.776848 
L 128.237455 285.776848 
L 128.237455 285.250162 
L 128.411207 285.250162 
L 128.411207 284.723476 
L 128.70193 284.723476 
L 128.70193 284.19679 
L 129.447219 284.19679 
L 129.447219 283.670104 
L 130.107482 283.670104 
L 130.127931 282.616732 
L 130.505303 282.616732 
L 130.578479 281.563359 
L 130.756803 281.563359 
L 130.776505 280.509987 
L 131.146669 280.509987 
L 131.146669 279.983301 
L 131.408152 279.983301 
L 131.408152 279.456615 
L 131.578231 279.456615 
L 131.578231 278.929929 
L 131.895035 278.929929 
L 131.895035 278.403243 
L 132.06655 278.403243 
L 132.06655 277.876557 
L 132.511884 277.876557 
L 132.547499 276.823185 
L 134.529586 276.823185 
L 134.529586 276.296499 
L 135.522271 276.296499 
L 135.522271 275.769812 
L 135.819708 275.769812 
L 135.819708 275.243126 
L 136.005494 275.243126 
L 136.029793 274.189754 
L 136.428285 274.189754 
L 136.428285 273.663068 
L 137.208032 273.663068 
L 137.217107 272.609696 
L 137.339172 272.609696 
L 137.339172 272.08301 
L 138.191968 272.08301 
L 138.191968 271.556324 
L 138.753416 271.556324 
L 138.753416 271.029638 
L 140.29885 271.029638 
L 140.29885 270.502952 
L 141.837164 270.502952 
L 141.837164 269.976266 
L 145.805039 269.976266 
L 145.805039 269.449579 
L 154.464952 269.449579 
L 154.464952 268.922893 
L 156.881378 268.922893 
L 156.881378 268.396207 
L 157.944244 268.396207 
L 157.944244 267.869521 
L 159.147154 267.869521 
L 159.147154 267.342835 
L 159.484452 267.342835 
L 159.484452 266.816149 
L 159.728221 266.816149 
L 159.728221 266.289463 
L 160.330375 266.289463 
L 160.340016 265.236091 
L 160.506683 265.236091 
L 160.506683 264.709405 
L 160.92758 264.709405 
L 160.92758 264.182719 
L 161.191169 264.182719 
L 161.191169 263.656033 
L 162.021314 263.656033 
L 162.021314 263.129347 
L 162.514265 263.129347 
L 162.514265 262.60266 
L 163.011246 262.60266 
L 163.011246 262.075974 
L 163.149212 262.075974 
L 163.149212 261.549288 
L 163.40272 261.549288 
L 163.40272 261.022602 
L 163.935251 261.022602 
L 163.935251 260.495916 
L 171.743686 260.495916 
L 171.743686 259.96923 
L 172.150515 259.96923 
L 172.150515 259.442544 
L 172.394842 259.442544 
L 172.394842 258.915858 
L 173.02081 258.915858 
L 173.02081 258.389172 
L 173.29636 258.389172 
L 173.29636 257.862486 
L 173.518461 257.862486 
L 173.518461 257.3358 
L 173.714843 257.3358 
L 173.714843 256.809114 
L 174.061646 256.809114 
L 174.083025 255.755741 
L 174.409216 255.755741 
L 174.409216 255.229055 
L 174.759482 255.229055 
L 174.759482 254.702369 
L 175.017382 254.702369 
L 175.061464 253.648997 
L 175.460866 253.648997 
L 175.460866 253.122311 
L 175.63966 253.122311 
L 175.63966 252.595625 
L 175.809693 252.595625 
L 175.892858 251.015567 
L 176.1473 251.015567 
L 176.241949 249.962195 
L 176.308139 249.962195 
L 176.379844 248.908822 
L 176.685942 248.908822 
L 176.685942 248.382136 
L 176.970054 248.382136 
L 177.066817 247.328764 
L 177.1658 247.328764 
L 177.250068 246.275392 
L 177.733084 246.275392 
L 177.733084 245.748706 
L 178.53642 245.748706 
L 178.572455 244.695334 
L 179.422151 244.695334 
L 179.422151 244.168648 
L 179.735956 244.168648 
L 179.811462 235.214984 
L 180.128861 235.214984 
L 180.212714 232.054868 
L 180.304988 232.054868 
L 180.304988 231.528182 
L 185.24134 231.528182 
L 185.327803 229.948123 
L 185.518232 229.948123 
L 185.518232 229.421437 
L 185.630765 229.421437 
L 185.715605 228.368065 
L 185.753803 228.368065 
L 185.828272 226.788007 
L 185.915217 226.788007 
L 185.969615 225.734635 
L 186.08231 225.734635 
L 186.135092 223.101204 
L 186.233903 223.101204 
L 186.340298 220.99446 
L 186.442542 220.99446 
L 186.550892 218.36103 
L 186.587572 218.36103 
L 186.691572 215.727599 
L 186.737241 215.727599 
L 186.818725 213.094169 
L 186.875117 213.094169 
L 186.983435 203.087133 
L 186.993106 203.087133 
L 187.031477 193.080098 
L 187.109264 193.080098 
L 187.18774 191.50004 
L 187.236512 191.50004 
L 187.236512 190.973354 
L 187.400404 190.973354 
L 187.47377 188.866609 
L 187.515918 188.866609 
L 187.612776 185.706493 
L 187.766688 185.706493 
L 187.812374 168.325852 
L 187.897682 168.325852 
L 187.990721 163.058991 
L 188.038777 163.058991 
L 188.135964 144.098292 
L 188.161642 144.098292 
L 188.241858 139.884804 
L 188.277337 139.884804 
L 188.362339 137.251373 
L 188.391787 137.251373 
L 188.491109 113.5505 
L 188.523452 113.5505 
L 188.633449 111.970441 
L 188.650567 111.970441 
L 188.698974 110.917069 
L 188.824114 110.917069 
L 188.904391 100.383348 
L 188.99735 100.383348 
L 189.075907 98.803289 
L 189.326403 98.803289 
L 189.397577 97.749917 
L 189.44146 97.749917 
L 189.44146 86.68951 
L 189.785708 86.68951 
L 189.785708 86.162824 
L 189.909283 86.162824 
L 189.909283 85.636137 
L 190.222155 85.636137 
L 190.322404 74.049044 
L 190.388345 74.049044 
L 190.42809 72.468985 
L 195.549094 72.468985 
L 195.549094 71.942299 
L 196.064254 71.942299 
L 196.064254 71.415613 
L 196.307814 71.415613 
L 196.307814 70.888927 
L 196.679869 70.888927 
L 196.679869 70.362241 
L 197.203336 70.362241 
L 197.203336 69.835555 
L 197.368866 69.835555 
L 197.368866 69.308869 
L 197.498108 69.308869 
L 197.498108 68.782183 
L 197.617024 68.782183 
L 197.727793 57.195089 
L 197.948219 57.195089 
L 197.955049 56.141717 
L 198.304278 56.141717 
L 198.304278 55.615031 
L 198.512586 55.615031 
L 198.512586 55.088345 
L 198.700283 55.088345 
L 198.775704 54.034973 
L 198.888492 54.034973 
L 198.935064 44.027937 
L 199.034519 44.027937 
L 199.095591 42.447879 
L 199.170106 42.447879 
L 199.280379 41.394507 
L 199.430347 41.394507 
L 199.481115 30.334099 
L 338.688 30.334099 
L 338.688 30.334099 
" style="fill:none;stroke:#ff0000;stroke-linecap:square;stroke-width:1.5;"/>
   </g>
   <g id="line2d_48">
    <defs>
     <path d="M 0 -6 
L -5.196152 -3 
L -5.196152 3 
L -0 6 
L 5.196152 3 
L 5.196152 -3 
z
" id="m1f56d1b222" style="stroke:#ff0000;stroke-linejoin:miter;stroke-width:1.5;"/>
    </defs>
    <g>
     <use style="fill-opacity:0;stroke:#ff0000;stroke-linejoin:miter;stroke-width:1.5;" x="186.587572" xlink:href="#m1f56d1b222" y="217.834344"/>
     <use style="fill-opacity:0;stroke:#ff0000;stroke-linejoin:miter;stroke-width:1.5;" x="189.909283" xlink:href="#m1f56d1b222" y="85.636137"/>
     <use style="fill-opacity:0;stroke:#ff0000;stroke-linejoin:miter;stroke-width:1.5;" x="199.481115" xlink:href="#m1f56d1b222" y="30.334099"/>
     <use style="fill-opacity:0;stroke:#ff0000;stroke-linejoin:miter;stroke-width:1.5;" x="199.481115" xlink:href="#m1f56d1b222" y="30.334099"/>
     <use style="fill-opacity:0;stroke:#ff0000;stroke-linejoin:miter;stroke-width:1.5;" x="338.688" xlink:href="#m1f56d1b222" y="30.334099"/>
    </g>
   </g>
   <g id="line2d_49">
    <path style="fill:none;stroke:#ff0000;stroke-linecap:square;stroke-width:1.5;"/>
    <g/>
   </g>
   <g id="line2d_50">
    <defs>
     <path d="M 0 1.5 
C 0.397805 1.5 0.77937 1.341951 1.06066 1.06066 
C 1.341951 0.77937 1.5 0.397805 1.5 0 
C 1.5 -0.397805 1.341951 -0.77937 1.06066 -1.06066 
C 0.77937 -1.341951 0.397805 -1.5 0 -1.5 
C -0.397805 -1.5 -0.77937 -1.341951 -1.06066 -1.06066 
C -1.341951 -0.77937 -1.5 -0.397805 -1.5 0 
C -1.5 0.397805 -1.341951 0.77937 -1.06066 1.06066 
C -0.77937 1.341951 -0.397805 1.5 0 1.5 
z
" id="m8cc88866b5" style="stroke:#ff7500;"/>
    </defs>
    <g>
     <use style="fill:#ff7500;stroke:#ff7500;" x="196.449387" xlink:href="#m8cc88866b5" y="30.334099"/>
     <use style="fill:#ff7500;stroke:#ff7500;" x="196.449387" xlink:href="#m8cc88866b5" y="30.334099"/>
    </g>
   </g>
   <g id="line2d_51">
    <path d="M 113.55961 298.944 
L 113.55961 298.417314 
L 114.618932 298.417314 
L 114.618932 297.890628 
L 115.349395 297.890628 
L 115.349395 297.363942 
L 115.835374 297.363942 
L 115.881694 296.31057 
L 116.680349 296.31057 
L 116.680349 295.783884 
L 116.870784 295.783884 
L 116.870784 295.257197 
L 117.806775 295.257197 
L 117.806775 294.730511 
L 118.443959 294.730511 
L 118.443959 294.203825 
L 118.602981 294.203825 
L 118.681952 293.150453 
L 119.80089 293.150453 
L 119.80089 292.623767 
L 120.057624 292.623767 
L 120.069756 291.570395 
L 120.724326 291.570395 
L 120.724326 291.043709 
L 120.863934 291.043709 
L 120.887094 289.990337 
L 121.298795 289.990337 
L 121.298795 289.463651 
L 121.433896 289.463651 
L 121.433896 288.410278 
L 121.678897 288.410278 
L 121.678897 287.883592 
L 122.49972 287.883592 
L 122.531342 286.83022 
L 123.474235 286.83022 
L 123.563795 285.776848 
L 125.010763 285.776848 
L 125.010763 285.250162 
L 125.665205 285.250162 
L 125.665205 284.723476 
L 125.901169 284.723476 
L 125.901169 284.19679 
L 126.168212 284.19679 
L 126.168212 283.670104 
L 127.035353 283.670104 
L 127.035353 283.143418 
L 127.30173 283.143418 
L 127.30173 282.616732 
L 127.5641 282.616732 
L 127.5641 282.090045 
L 128.298087 282.090045 
L 128.298087 281.563359 
L 129.383352 281.563359 
L 129.383352 281.036673 
L 129.658437 281.036673 
L 129.658437 280.509987 
L 131.140242 280.509987 
L 131.140242 279.983301 
L 131.439773 279.983301 
L 131.439773 279.456615 
L 131.938072 279.456615 
L 131.938072 278.929929 
L 132.15168 278.929929 
L 132.15168 278.403243 
L 132.600785 278.403243 
L 132.600785 277.876557 
L 133.130612 277.876557 
L 133.130612 277.349871 
L 133.352844 277.349871 
L 133.352844 276.823185 
L 134.013943 276.823185 
L 134.095524 275.769812 
L 134.896191 275.769812 
L 134.896191 275.243126 
L 136.822516 275.243126 
L 136.822516 274.71644 
L 139.289296 274.71644 
L 139.289296 274.189754 
L 153.725604 274.189754 
L 153.725604 273.663068 
L 154.368504 273.663068 
L 154.368504 273.136382 
L 154.646246 273.136382 
L 154.646246 272.609696 
L 155.004911 272.609696 
L 155.081632 271.556324 
L 155.217915 271.556324 
L 155.217915 271.029638 
L 155.642584 271.029638 
L 155.642584 270.502952 
L 155.816782 270.502952 
L 155.816782 269.976266 
L 156.20897 269.976266 
L 156.231857 268.922893 
L 156.520691 268.922893 
L 156.520691 268.396207 
L 157.135141 268.396207 
L 157.185742 267.342835 
L 157.766419 267.342835 
L 157.766419 266.816149 
L 158.014595 266.816149 
L 158.014595 266.289463 
L 159.103236 266.289463 
L 159.103236 265.762777 
L 160.244578 265.762777 
L 160.244578 265.236091 
L 167.656285 265.236091 
L 167.656285 264.709405 
L 168.293141 264.709405 
L 168.293141 264.182719 
L 168.964959 264.182719 
L 168.964959 263.656033 
L 169.272286 263.656033 
L 169.360135 262.075974 
L 169.440395 262.075974 
L 169.440395 261.549288 
L 169.57571 261.549288 
L 169.57571 261.022602 
L 170.086745 261.022602 
L 170.160306 259.96923 
L 170.22741 259.96923 
L 170.22741 259.442544 
L 170.510089 259.442544 
L 170.527563 258.389172 
L 170.640721 258.389172 
L 170.640721 257.862486 
L 171.090702 257.862486 
L 171.166634 256.282427 
L 171.330348 256.282427 
L 171.330348 255.755741 
L 171.967781 255.755741 
L 172.042459 254.702369 
L 172.094115 254.702369 
L 172.094115 254.175683 
L 172.837603 254.175683 
L 172.837603 253.648997 
L 173.091701 253.648997 
L 173.091701 253.122311 
L 173.563673 253.122311 
L 173.563673 252.595625 
L 180.728509 252.595625 
L 180.728509 252.068939 
L 181.572298 252.068939 
L 181.572298 251.542253 
L 181.72425 251.542253 
L 181.72425 251.015567 
L 181.839108 251.015567 
L 181.844375 249.962195 
L 181.998509 249.962195 
L 182.082862 248.908822 
L 182.11642 248.908822 
L 182.11642 248.382136 
L 182.306853 248.382136 
L 182.383265 246.802078 
L 182.515172 246.802078 
L 182.568465 245.22202 
L 182.701992 245.22202 
L 182.754718 244.168648 
L 182.863669 244.168648 
L 182.933397 242.588589 
L 182.999892 242.588589 
L 183.022219 241.008531 
L 183.132777 241.008531 
L 183.217996 238.901787 
L 183.27695 238.901787 
L 183.352134 237.848415 
L 183.479175 237.848415 
L 183.486206 236.795043 
L 183.595775 236.795043 
L 183.698033 234.161612 
L 183.732721 234.161612 
L 183.842635 224.681263 
L 183.84733 224.681263 
L 183.945327 205.720564 
L 183.962435 205.720564 
L 184.038752 203.087133 
L 184.08358 203.087133 
L 184.181182 198.873645 
L 184.208181 198.873645 
L 184.208181 198.346959 
L 184.344982 198.346959 
L 184.45172 189.919981 
L 184.500023 189.919981 
L 184.55811 187.813237 
L 184.654893 187.813237 
L 184.708297 185.179807 
L 184.921472 185.179807 
L 184.945292 184.126434 
L 185.068576 184.126434 
L 185.094236 175.699457 
L 185.194181 175.699457 
L 185.259821 165.165736 
L 185.33269 165.165736 
L 185.394375 163.058991 
L 185.484929 163.058991 
L 185.484929 162.005619 
L 185.94549 162.005619 
L 185.94549 161.478933 
L 192.479041 161.478933 
L 192.479041 160.952247 
L 192.675206 160.952247 
L 192.75764 159.898875 
L 192.973167 159.898875 
L 193.017804 158.845503 
L 193.121087 158.845503 
L 193.17415 157.79213 
L 193.267581 157.79213 
L 193.341822 156.212072 
L 193.388606 156.212072 
L 193.438154 155.1587 
L 193.501781 155.1587 
L 193.501781 154.632014 
L 193.728083 154.632014 
L 193.774906 153.051956 
L 193.869586 153.051956 
L 193.949206 151.471897 
L 194.063516 151.471897 
L 194.122649 149.891839 
L 194.22755 149.891839 
L 194.308992 148.838467 
L 194.342457 148.838467 
L 194.36319 147.785095 
L 194.45593 147.785095 
L 194.551737 145.678351 
L 194.644325 145.678351 
L 194.735251 144.098292 
L 194.763893 144.098292 
L 194.857695 141.464862 
L 194.87716 141.464862 
L 194.920005 120.397419 
L 195.011159 120.397419 
L 195.114637 117.237302 
L 195.130212 117.237302 
L 195.209349 101.963406 
L 195.257408 101.963406 
L 195.3651 93.009743 
L 195.401602 93.009743 
L 195.430299 81.422649 
L 195.561409 81.422649 
L 195.660888 61.935264 
L 195.675189 61.935264 
L 195.759328 47.188054 
L 195.788073 47.188054 
L 195.829843 44.027937 
L 195.970805 44.027937 
L 195.970805 43.501251 
L 196.111256 43.501251 
L 196.193168 33.494215 
L 196.263643 33.494215 
L 196.362871 31.387471 
L 196.410143 31.387471 
L 196.449387 30.334099 
L 338.688 30.334099 
L 338.688 30.334099 
" style="fill:none;stroke:#ff7500;stroke-linecap:square;stroke-width:1.5;"/>
   </g>
   <g id="line2d_52">
    <defs>
     <path d="M 0 -6 
L -1.347084 -1.854102 
L -5.706339 -1.854102 
L -2.179628 0.708204 
L -3.526712 4.854102 
L -0 2.291796 
L 3.526712 4.854102 
L 2.179628 0.708204 
L 5.706339 -1.854102 
L 1.347084 -1.854102 
z
" id="mcf5c4d8c2e" style="stroke:#ff7500;stroke-linejoin:bevel;stroke-width:1.5;"/>
    </defs>
    <g>
     <use style="fill-opacity:0;stroke:#ff7500;stroke-linejoin:bevel;stroke-width:1.5;" x="185.068576" xlink:href="#mcf5c4d8c2e" y="184.126434"/>
     <use style="fill-opacity:0;stroke:#ff7500;stroke-linejoin:bevel;stroke-width:1.5;" x="196.449387" xlink:href="#mcf5c4d8c2e" y="30.860785"/>
     <use style="fill-opacity:0;stroke:#ff7500;stroke-linejoin:bevel;stroke-width:1.5;" x="196.449387" xlink:href="#mcf5c4d8c2e" y="30.334099"/>
     <use style="fill-opacity:0;stroke:#ff7500;stroke-linejoin:bevel;stroke-width:1.5;" x="196.449387" xlink:href="#mcf5c4d8c2e" y="30.334099"/>
     <use style="fill-opacity:0;stroke:#ff7500;stroke-linejoin:bevel;stroke-width:1.5;" x="338.688" xlink:href="#mcf5c4d8c2e" y="30.334099"/>
    </g>
   </g>
   <g id="line2d_53">
    <path style="fill:none;stroke:#ff7500;stroke-linecap:square;stroke-width:1.5;"/>
    <g/>
   </g>
   <g id="line2d_54">
    <defs>
     <path d="M 0 1.5 
C 0.397805 1.5 0.77937 1.341951 1.06066 1.06066 
C 1.341951 0.77937 1.5 0.397805 1.5 0 
C 1.5 -0.397805 1.341951 -0.77937 1.06066 -1.06066 
C 0.77937 -1.341951 0.397805 -1.5 0 -1.5 
C -0.397805 -1.5 -0.77937 -1.341951 -1.06066 -1.06066 
C -1.341951 -0.77937 -1.5 -0.397805 -1.5 0 
C -1.5 0.397805 -1.341951 0.77937 -1.06066 1.06066 
C -0.77937 1.341951 -0.397805 1.5 0 1.5 
z
" id="mea57f897d2" style="stroke:#9acd32;"/>
    </defs>
    <g>
     <use style="fill:#9acd32;stroke:#9acd32;" x="195.902896" xlink:href="#mea57f897d2" y="30.334099"/>
     <use style="fill:#9acd32;stroke:#9acd32;" x="195.902896" xlink:href="#mea57f897d2" y="30.334099"/>
    </g>
   </g>
   <g id="line2d_55">
    <path d="M 111.858671 298.944 
L 111.858671 298.417314 
L 114.13144 298.417314 
L 114.13144 297.890628 
L 114.469094 297.890628 
L 114.569129 296.837256 
L 114.734588 296.837256 
L 114.734588 296.31057 
L 115.237757 296.31057 
L 115.237757 295.783884 
L 115.757901 295.783884 
L 115.757901 295.257197 
L 116.38325 295.257197 
L 116.38325 294.730511 
L 117.626343 294.730511 
L 117.626343 294.203825 
L 117.792962 294.203825 
L 117.792962 293.677139 
L 118.760566 293.677139 
L 118.786692 292.623767 
L 119.552816 292.623767 
L 119.552816 292.097081 
L 119.89914 292.097081 
L 119.89914 291.570395 
L 120.118198 291.570395 
L 120.118198 291.043709 
L 120.358413 291.043709 
L 120.358413 290.517023 
L 121.512225 290.517023 
L 121.512225 289.990337 
L 122.362027 289.990337 
L 122.415115 288.936964 
L 122.594413 288.936964 
L 122.646799 287.356906 
L 123.313873 287.356906 
L 123.313873 286.83022 
L 123.85905 286.83022 
L 123.94666 285.776848 
L 124.594752 285.776848 
L 124.594752 285.250162 
L 124.937527 285.250162 
L 124.937527 284.19679 
L 125.857712 284.19679 
L 125.857712 283.670104 
L 126.022276 283.670104 
L 126.022276 283.143418 
L 127.043485 283.143418 
L 127.043485 282.616732 
L 127.189218 282.616732 
L 127.189218 282.090045 
L 127.571989 282.090045 
L 127.571989 281.563359 
L 127.689902 281.563359 
L 127.689902 281.036673 
L 128.373582 281.036673 
L 128.373582 280.509987 
L 128.768338 280.509987 
L 128.768338 279.983301 
L 129.333516 279.983301 
L 129.354892 278.929929 
L 129.686407 278.929929 
L 129.686407 278.403243 
L 129.887858 278.403243 
L 129.915463 277.349871 
L 130.310898 277.349871 
L 130.310898 276.823185 
L 130.887729 276.823185 
L 130.887729 276.296499 
L 132.806474 276.296499 
L 132.806474 275.769812 
L 133.711505 275.769812 
L 133.755823 274.71644 
L 139.273175 274.71644 
L 139.329535 273.663068 
L 152.314453 273.663068 
L 152.314453 273.136382 
L 153.774828 273.136382 
L 153.774828 272.609696 
L 154.160261 272.609696 
L 154.160261 272.08301 
L 155.109299 272.08301 
L 155.109299 271.556324 
L 155.535002 271.556324 
L 155.595203 270.502952 
L 156.638772 270.502952 
L 156.638772 269.976266 
L 156.773805 269.976266 
L 156.793011 268.922893 
L 157.159737 268.922893 
L 157.159737 268.396207 
L 157.360983 268.396207 
L 157.360983 267.869521 
L 157.523158 267.869521 
L 157.523158 267.342835 
L 157.735671 267.342835 
L 157.753847 266.289463 
L 157.85139 266.289463 
L 157.85139 265.762777 
L 158.109325 265.762777 
L 158.109325 265.236091 
L 159.353629 265.236091 
L 159.353629 264.709405 
L 168.467885 264.709405 
L 168.467885 264.182719 
L 168.981115 264.182719 
L 168.981115 263.656033 
L 169.636615 263.656033 
L 169.636615 263.129347 
L 169.77393 263.129347 
L 169.816664 262.075974 
L 169.886494 262.075974 
L 169.920609 261.022602 
L 170.076407 261.022602 
L 170.088122 259.96923 
L 170.279953 259.96923 
L 170.279953 259.442544 
L 170.651396 259.442544 
L 170.651396 258.915858 
L 170.852333 258.915858 
L 170.861562 257.862486 
L 170.979782 257.862486 
L 171.018357 256.809114 
L 171.139414 256.809114 
L 171.139414 256.282427 
L 171.425674 256.282427 
L 171.425674 255.755741 
L 171.58256 255.755741 
L 171.58256 255.229055 
L 171.776234 255.229055 
L 171.776234 254.702369 
L 172.48814 254.702369 
L 172.560628 253.648997 
L 172.811105 253.648997 
L 172.811105 253.122311 
L 173.247575 253.122311 
L 173.247575 252.595625 
L 173.373561 252.595625 
L 173.373561 252.068939 
L 180.479733 252.068939 
L 180.479733 251.542253 
L 180.84117 251.542253 
L 180.84117 251.015567 
L 181.207652 251.015567 
L 181.224394 249.962195 
L 181.400654 249.962195 
L 181.449201 248.908822 
L 181.522662 248.908822 
L 181.552675 247.85545 
L 181.644889 247.85545 
L 181.713642 246.275392 
L 181.939603 246.275392 
L 181.939603 245.748706 
L 182.209146 245.748706 
L 182.209146 245.22202 
L 182.353286 245.22202 
L 182.436623 243.641962 
L 182.56476 243.641962 
L 182.670213 242.588589 
L 182.755718 242.588589 
L 182.850087 240.481845 
L 182.869628 240.481845 
L 182.92218 238.375101 
L 183.029764 238.375101 
L 183.135059 236.795043 
L 183.156889 236.795043 
L 183.242638 235.214984 
L 183.311839 235.214984 
L 183.358572 233.634926 
L 183.461906 233.634926 
L 183.486206 232.054868 
L 183.597363 232.054868 
L 183.663592 220.99446 
L 183.721376 220.99446 
L 183.814124 218.887716 
L 183.85484 218.887716 
L 183.940969 207.827308 
L 184.01149 207.827308 
L 184.01149 206.773936 
L 184.177805 206.773936 
L 184.215536 203.613819 
L 184.368994 203.613819 
L 184.452627 191.50004 
L 184.559913 191.50004 
L 184.654594 188.866609 
L 184.780536 188.866609 
L 184.828825 178.332888 
L 184.898209 178.332888 
L 184.991076 166.745794 
L 185.0306 166.745794 
L 185.052519 165.692422 
L 185.299317 165.692422 
L 185.299317 165.165736 
L 185.529604 165.165736 
L 185.56736 155.685386 
L 185.747629 155.685386 
L 185.747629 155.1587 
L 185.948819 155.1587 
L 185.948819 154.632014 
L 192.116431 154.632014 
L 192.186998 153.578642 
L 192.33036 153.578642 
L 192.392784 152.52527 
L 192.53295 152.52527 
L 192.635733 151.471897 
L 192.678413 151.471897 
L 192.752757 150.418525 
L 192.909998 150.418525 
L 192.909998 149.891839 
L 193.030194 149.891839 
L 193.092193 147.258409 
L 193.245686 147.258409 
L 193.275421 146.205037 
L 193.370306 146.205037 
L 193.388425 145.151665 
L 193.508257 145.151665 
L 193.59652 143.04492 
L 193.637807 143.04492 
L 193.637807 142.518234 
L 193.755057 142.518234 
L 193.772426 140.41149 
L 193.881561 140.41149 
L 193.989492 131.984513 
L 194.002085 131.984513 
L 194.06491 129.877768 
L 194.184004 129.877768 
L 194.223753 127.771024 
L 194.307961 127.771024 
L 194.404412 117.763988 
L 194.449797 117.763988 
L 194.545129 115.130558 
L 194.589136 115.130558 
L 194.609409 114.077186 
L 194.710256 114.077186 
L 194.808019 81.422649 
L 194.851868 81.422649 
L 194.921664 60.355206 
L 194.965228 60.355206 
L 195.058944 58.248461 
L 195.163775 58.248461 
L 195.222396 56.141717 
L 195.299169 56.141717 
L 195.380453 54.561659 
L 195.417891 54.561659 
L 195.512899 46.134681 
L 195.561889 46.134681 
L 195.587609 34.020902 
L 195.732593 34.020902 
L 195.784285 31.387471 
L 195.902896 31.387471 
L 195.902896 30.334099 
L 338.688 30.334099 
L 338.688 30.334099 
" style="fill:none;stroke:#9acd32;stroke-linecap:square;stroke-width:1.5;"/>
   </g>
   <g id="line2d_56">
    <defs>
     <path d="M 0 -6 
L -6 6 
L 6 6 
z
" id="m2d6892e53f" style="stroke:#9acd32;stroke-linejoin:miter;stroke-width:1.5;"/>
    </defs>
    <g>
     <use style="fill-opacity:0;stroke:#9acd32;stroke-linejoin:miter;stroke-width:1.5;" x="185.948819" xlink:href="#m2d6892e53f" y="154.632014"/>
     <use style="fill-opacity:0;stroke:#9acd32;stroke-linejoin:miter;stroke-width:1.5;" x="195.902896" xlink:href="#m2d6892e53f" y="31.387471"/>
     <use style="fill-opacity:0;stroke:#9acd32;stroke-linejoin:miter;stroke-width:1.5;" x="195.902896" xlink:href="#m2d6892e53f" y="30.334099"/>
     <use style="fill-opacity:0;stroke:#9acd32;stroke-linejoin:miter;stroke-width:1.5;" x="195.902896" xlink:href="#m2d6892e53f" y="30.334099"/>
     <use style="fill-opacity:0;stroke:#9acd32;stroke-linejoin:miter;stroke-width:1.5;" x="338.688" xlink:href="#m2d6892e53f" y="30.334099"/>
    </g>
   </g>
   <g id="line2d_57">
    <path style="fill:none;stroke:#9acd32;stroke-linecap:square;stroke-width:1.5;"/>
    <g/>
   </g>
   <g id="line2d_58">
    <path d="M 338.688 30.334099 
L 369.60768 293.571802 
" style="fill:none;stroke:#ff0000;stroke-linecap:square;stroke-width:1.5;"/>
    <g>
     <use style="fill-opacity:0;stroke:#ff0000;stroke-linejoin:miter;stroke-width:1.5;" x="338.688" xlink:href="#m1f56d1b222" y="30.334099"/>
     <use style="fill-opacity:0;stroke:#ff0000;stroke-linejoin:miter;stroke-width:1.5;" x="369.60768" xlink:href="#m1f56d1b222" y="293.571802"/>
    </g>
   </g>
   <g id="line2d_59">
    <path d="M 338.688 30.334099 
L 369.60768 250.594218 
" style="fill:none;stroke:#ff7500;stroke-linecap:square;stroke-width:1.5;"/>
    <g>
     <use style="fill-opacity:0;stroke:#ff7500;stroke-linejoin:bevel;stroke-width:1.5;" x="338.688" xlink:href="#mcf5c4d8c2e" y="30.334099"/>
     <use style="fill-opacity:0;stroke:#ff7500;stroke-linejoin:bevel;stroke-width:1.5;" x="369.60768" xlink:href="#mcf5c4d8c2e" y="250.594218"/>
    </g>
   </g>
   <g id="line2d_60">
    <path d="M 338.688 30.334099 
L 369.60768 207.616634 
" style="fill:none;stroke:#9acd32;stroke-linecap:square;stroke-width:1.5;"/>
    <g>
     <use style="fill-opacity:0;stroke:#9acd32;stroke-linejoin:miter;stroke-width:1.5;" x="338.688" xlink:href="#m2d6892e53f" y="30.334099"/>
     <use style="fill-opacity:0;stroke:#9acd32;stroke-linejoin:miter;stroke-width:1.5;" x="369.60768" xlink:href="#m2d6892e53f" y="207.616634"/>
    </g>
   </g>
   <g id="line2d_61">
    <path d="M 338.688 30.334099 
L 369.60768 164.63905 
" style="fill:none;stroke:#ff00ff;stroke-linecap:square;stroke-width:1.5;"/>
    <g>
     <use style="fill-opacity:0;stroke:#ff00ff;stroke-linejoin:miter;stroke-width:1.5;" x="338.688" xlink:href="#m776db0c2dd" y="30.334099"/>
     <use style="fill-opacity:0;stroke:#ff00ff;stroke-linejoin:miter;stroke-width:1.5;" x="369.60768" xlink:href="#m776db0c2dd" y="164.63905"/>
    </g>
   </g>
   <g id="line2d_62">
    <path d="M 338.688 30.334099 
L 369.60768 121.661465 
" style="fill:none;stroke:#000080;stroke-linecap:square;stroke-width:1.5;"/>
    <g>
     <use style="fill-opacity:0;stroke:#000080;stroke-width:1.5;" x="338.688" xlink:href="#m05af347b3d" y="30.334099"/>
     <use style="fill-opacity:0;stroke:#000080;stroke-width:1.5;" x="369.60768" xlink:href="#m05af347b3d" y="121.661465"/>
    </g>
   </g>
   <g id="line2d_63">
    <path d="M 338.688 30.334099 
L 369.60768 78.683881 
" style="fill:none;stroke:#000080;stroke-linecap:square;stroke-width:1.5;"/>
    <g>
     <use style="fill-opacity:0;stroke:#000080;stroke-width:1.5;" x="338.688" xlink:href="#m05af347b3d" y="30.334099"/>
     <use style="fill-opacity:0;stroke:#000080;stroke-width:1.5;" x="369.60768" xlink:href="#m05af347b3d" y="78.683881"/>
    </g>
   </g>
   <g id="line2d_64">
    <path d="M 338.688 298.944 
L 338.688 30.334099 
" style="fill:none;stroke:#000000;stroke-linecap:square;stroke-width:1.5;"/>
   </g>
   <g id="patch_3">
    <path d="M 57.6 298.944 
L 57.6 27.648 
" style="fill:none;stroke:#000000;stroke-linecap:square;stroke-linejoin:miter;stroke-width:0.8;"/>
   </g>
   <g id="patch_4">
    <path d="M 338.688 298.944 
L 338.688 27.648 
" style="fill:none;stroke:#000000;stroke-linecap:square;stroke-linejoin:miter;stroke-width:0.8;"/>
   </g>
   <g id="patch_5">
    <path d="M 57.6 298.944 
L 338.688 298.944 
" style="fill:none;stroke:#000000;stroke-linecap:square;stroke-linejoin:miter;stroke-width:0.8;"/>
   </g>
   <g id="patch_6">
    <path d="M 57.6 27.648 
L 338.688 27.648 
" style="fill:none;stroke:#000000;stroke-linecap:square;stroke-linejoin:miter;stroke-width:0.8;"/>
   </g>
   <g id="text_13">
    <!-- 050-2e4 -->
    <defs>
     <path d="M 10.796875 72.90625 
L 49.515625 72.90625 
L 49.515625 64.59375 
L 19.828125 64.59375 
L 19.828125 46.734375 
Q 21.96875 47.46875 24.109375 47.828125 
Q 26.265625 48.1875 28.421875 48.1875 
Q 40.625 48.1875 47.75 41.5 
Q 54.890625 34.8125 54.890625 23.390625 
Q 54.890625 11.625 47.5625 5.09375 
Q 40.234375 -1.421875 26.90625 -1.421875 
Q 22.3125 -1.421875 17.546875 -0.640625 
Q 12.796875 0.140625 7.71875 1.703125 
L 7.71875 11.625 
Q 12.109375 9.234375 16.796875 8.0625 
Q 21.484375 6.890625 26.703125 6.890625 
Q 35.15625 6.890625 40.078125 11.328125 
Q 45.015625 15.765625 45.015625 23.390625 
Q 45.015625 31 40.078125 35.4375 
Q 35.15625 39.890625 26.703125 39.890625 
Q 22.75 39.890625 18.8125 39.015625 
Q 14.890625 38.140625 10.796875 36.28125 
z
" id="DejaVuSans-53"/>
    </defs>
    <g transform="translate(375.22944 298.262739)scale(0.17 -0.17)">
     <use xlink:href="#DejaVuSans-48"/>
     <use x="63.623047" xlink:href="#DejaVuSans-53"/>
     <use x="127.246094" xlink:href="#DejaVuSans-48"/>
     <use x="190.869141" xlink:href="#DejaVuSans-45"/>
     <use x="226.953125" xlink:href="#DejaVuSans-50"/>
     <use x="290.576172" xlink:href="#DejaVuSans-101"/>
     <use x="352.099609" xlink:href="#DejaVuSans-52"/>
    </g>
   </g>
   <g id="text_14">
    <!-- 075-2e4 -->
    <defs>
     <path d="M 8.203125 72.90625 
L 55.078125 72.90625 
L 55.078125 68.703125 
L 28.609375 0 
L 18.3125 0 
L 43.21875 64.59375 
L 8.203125 64.59375 
z
" id="DejaVuSans-55"/>
    </defs>
    <g transform="translate(375.22944 255.285155)scale(0.17 -0.17)">
     <use xlink:href="#DejaVuSans-48"/>
     <use x="63.623047" xlink:href="#DejaVuSans-55"/>
     <use x="127.246094" xlink:href="#DejaVuSans-53"/>
     <use x="190.869141" xlink:href="#DejaVuSans-45"/>
     <use x="226.953125" xlink:href="#DejaVuSans-50"/>
     <use x="290.576172" xlink:href="#DejaVuSans-101"/>
     <use x="352.099609" xlink:href="#DejaVuSans-52"/>
    </g>
   </g>
   <g id="text_15">
    <!-- 080-1e5 -->
    <g transform="translate(375.22944 212.307571)scale(0.17 -0.17)">
     <use xlink:href="#DejaVuSans-48"/>
     <use x="63.623047" xlink:href="#DejaVuSans-56"/>
     <use x="127.246094" xlink:href="#DejaVuSans-48"/>
     <use x="190.869141" xlink:href="#DejaVuSans-45"/>
     <use x="226.953125" xlink:href="#DejaVuSans-49"/>
     <use x="290.576172" xlink:href="#DejaVuSans-101"/>
     <use x="352.099609" xlink:href="#DejaVuSans-53"/>
    </g>
   </g>
   <g id="text_16">
    <!-- 025-2e4 -->
    <g transform="translate(375.22944 169.329987)scale(0.17 -0.17)">
     <use xlink:href="#DejaVuSans-48"/>
     <use x="63.623047" xlink:href="#DejaVuSans-50"/>
     <use x="127.246094" xlink:href="#DejaVuSans-53"/>
     <use x="190.869141" xlink:href="#DejaVuSans-45"/>
     <use x="226.953125" xlink:href="#DejaVuSans-50"/>
     <use x="290.576172" xlink:href="#DejaVuSans-101"/>
     <use x="352.099609" xlink:href="#DejaVuSans-52"/>
    </g>
   </g>
   <g id="text_17">
    <!-- 100-2e4 -->
    <g transform="translate(375.22944 126.352403)scale(0.17 -0.17)">
     <use xlink:href="#DejaVuSans-49"/>
     <use x="63.623047" xlink:href="#DejaVuSans-48"/>
     <use x="127.246094" xlink:href="#DejaVuSans-48"/>
     <use x="190.869141" xlink:href="#DejaVuSans-45"/>
     <use x="226.953125" xlink:href="#DejaVuSans-50"/>
     <use x="290.576172" xlink:href="#DejaVuSans-101"/>
     <use x="352.099609" xlink:href="#DejaVuSans-52"/>
    </g>
   </g>
   <g id="text_18">
    <!-- 100-1e5 -->
    <g transform="translate(375.22944 83.374819)scale(0.17 -0.17)">
     <use xlink:href="#DejaVuSans-49"/>
     <use x="63.623047" xlink:href="#DejaVuSans-48"/>
     <use x="127.246094" xlink:href="#DejaVuSans-48"/>
     <use x="190.869141" xlink:href="#DejaVuSans-45"/>
     <use x="226.953125" xlink:href="#DejaVuSans-49"/>
     <use x="290.576172" xlink:href="#DejaVuSans-101"/>
     <use x="352.099609" xlink:href="#DejaVuSans-53"/>
    </g>
   </g>
   <g id="text_19">
    <!-- best 2009 -->
    <defs>
     <path d="M 48.6875 27.296875 
Q 48.6875 37.203125 44.609375 42.84375 
Q 40.53125 48.484375 33.40625 48.484375 
Q 26.265625 48.484375 22.1875 42.84375 
Q 18.109375 37.203125 18.109375 27.296875 
Q 18.109375 17.390625 22.1875 11.75 
Q 26.265625 6.109375 33.40625 6.109375 
Q 40.53125 6.109375 44.609375 11.75 
Q 48.6875 17.390625 48.6875 27.296875 
z
M 18.109375 46.390625 
Q 20.953125 51.265625 25.265625 53.625 
Q 29.59375 56 35.59375 56 
Q 45.5625 56 51.78125 48.09375 
Q 58.015625 40.1875 58.015625 27.296875 
Q 58.015625 14.40625 51.78125 6.484375 
Q 45.5625 -1.421875 35.59375 -1.421875 
Q 29.59375 -1.421875 25.265625 0.953125 
Q 20.953125 3.328125 18.109375 8.203125 
L 18.109375 0 
L 9.078125 0 
L 9.078125 75.984375 
L 18.109375 75.984375 
z
" id="DejaVuSans-98"/>
     <path d="M 10.984375 1.515625 
L 10.984375 10.5 
Q 14.703125 8.734375 18.5 7.8125 
Q 22.3125 6.890625 25.984375 6.890625 
Q 35.75 6.890625 40.890625 13.453125 
Q 46.046875 20.015625 46.78125 33.40625 
Q 43.953125 29.203125 39.59375 26.953125 
Q 35.25 24.703125 29.984375 24.703125 
Q 19.046875 24.703125 12.671875 31.3125 
Q 6.296875 37.9375 6.296875 49.421875 
Q 6.296875 60.640625 12.9375 67.421875 
Q 19.578125 74.21875 30.609375 74.21875 
Q 43.265625 74.21875 49.921875 64.515625 
Q 56.59375 54.828125 56.59375 36.375 
Q 56.59375 19.140625 48.40625 8.859375 
Q 40.234375 -1.421875 26.421875 -1.421875 
Q 22.703125 -1.421875 18.890625 -0.6875 
Q 15.09375 0.046875 10.984375 1.515625 
z
M 30.609375 32.421875 
Q 37.25 32.421875 41.125 36.953125 
Q 45.015625 41.5 45.015625 49.421875 
Q 45.015625 57.28125 41.125 61.84375 
Q 37.25 66.40625 30.609375 66.40625 
Q 23.96875 66.40625 20.09375 61.84375 
Q 16.21875 57.28125 16.21875 49.421875 
Q 16.21875 41.5 20.09375 36.953125 
Q 23.96875 32.421875 30.609375 32.421875 
z
" id="DejaVuSans-57"/>
    </defs>
    <g transform="translate(375.22944 40.397235)scale(0.17 -0.17)">
     <use xlink:href="#DejaVuSans-98"/>
     <use x="63.476562" xlink:href="#DejaVuSans-101"/>
     <use x="125" xlink:href="#DejaVuSans-115"/>
     <use x="177.099609" xlink:href="#DejaVuSans-116"/>
     <use x="216.308594" xlink:href="#DejaVuSans-32"/>
     <use x="248.095703" xlink:href="#DejaVuSans-50"/>
     <use x="311.71875" xlink:href="#DejaVuSans-48"/>
     <use x="375.341797" xlink:href="#DejaVuSans-48"/>
     <use x="438.964844" xlink:href="#DejaVuSans-57"/>
    </g>
   </g>
   <g id="text_20">
    <!-- bbob f7, 40-D -->
    <defs>
     <path d="M 19.671875 64.796875 
L 19.671875 8.109375 
L 31.59375 8.109375 
Q 46.6875 8.109375 53.6875 14.9375 
Q 60.6875 21.78125 60.6875 36.53125 
Q 60.6875 51.171875 53.6875 57.984375 
Q 46.6875 64.796875 31.59375 64.796875 
z
M 9.8125 72.90625 
L 30.078125 72.90625 
Q 51.265625 72.90625 61.171875 64.09375 
Q 71.09375 55.28125 71.09375 36.53125 
Q 71.09375 17.671875 61.125 8.828125 
Q 51.171875 0 30.078125 0 
L 9.8125 0 
z
" id="DejaVuSans-68"/>
    </defs>
    <g transform="translate(60.41088 38.111366)scale(0.102 -0.102)">
     <use xlink:href="#DejaVuSans-98"/>
     <use x="63.476562" xlink:href="#DejaVuSans-98"/>
     <use x="126.953125" xlink:href="#DejaVuSans-111"/>
     <use x="188.134766" xlink:href="#DejaVuSans-98"/>
     <use x="251.611328" xlink:href="#DejaVuSans-32"/>
     <use x="283.398438" xlink:href="#DejaVuSans-102"/>
     <use x="318.603516" xlink:href="#DejaVuSans-55"/>
     <use x="382.226562" xlink:href="#DejaVuSans-44"/>
     <use x="414.013672" xlink:href="#DejaVuSans-32"/>
     <use x="445.800781" xlink:href="#DejaVuSans-52"/>
     <use x="509.423828" xlink:href="#DejaVuSans-48"/>
     <use x="573.046875" xlink:href="#DejaVuSans-45"/>
     <use x="609.130859" xlink:href="#DejaVuSans-68"/>
    </g>
    <!-- 51 targets: 100..1e-08 -->
    <defs>
     <path d="M 11.71875 12.40625 
L 22.015625 12.40625 
L 22.015625 0 
L 11.71875 0 
z
M 11.71875 51.703125 
L 22.015625 51.703125 
L 22.015625 39.3125 
L 11.71875 39.3125 
z
" id="DejaVuSans-58"/>
    </defs>
    <g transform="translate(60.41088 49.533135)scale(0.102 -0.102)">
     <use xlink:href="#DejaVuSans-53"/>
     <use x="63.623047" xlink:href="#DejaVuSans-49"/>
     <use x="127.246094" xlink:href="#DejaVuSans-32"/>
     <use x="159.033203" xlink:href="#DejaVuSans-116"/>
     <use x="198.242188" xlink:href="#DejaVuSans-97"/>
     <use x="259.521484" xlink:href="#DejaVuSans-114"/>
     <use x="300.619141" xlink:href="#DejaVuSans-103"/>
     <use x="364.095703" xlink:href="#DejaVuSans-101"/>
     <use x="425.619141" xlink:href="#DejaVuSans-116"/>
     <use x="464.828125" xlink:href="#DejaVuSans-115"/>
     <use x="516.927734" xlink:href="#DejaVuSans-58"/>
     <use x="550.619141" xlink:href="#DejaVuSans-32"/>
     <use x="582.40625" xlink:href="#DejaVuSans-49"/>
     <use x="646.029297" xlink:href="#DejaVuSans-48"/>
     <use x="709.652344" xlink:href="#DejaVuSans-48"/>
     <use x="773.275391" xlink:href="#DejaVuSans-46"/>
     <use x="805.0625" xlink:href="#DejaVuSans-46"/>
     <use x="836.849609" xlink:href="#DejaVuSans-49"/>
     <use x="900.472656" xlink:href="#DejaVuSans-101"/>
     <use x="961.996094" xlink:href="#DejaVuSans-45"/>
     <use x="998.080078" xlink:href="#DejaVuSans-48"/>
     <use x="1061.703125" xlink:href="#DejaVuSans-56"/>
    </g>
    <!-- 15 instances -->
    <g transform="translate(60.41088 60.954904)scale(0.102 -0.102)">
     <use xlink:href="#DejaVuSans-49"/>
     <use x="63.623047" xlink:href="#DejaVuSans-53"/>
     <use x="127.246094" xlink:href="#DejaVuSans-32"/>
     <use x="159.033203" xlink:href="#DejaVuSans-105"/>
     <use x="186.816406" xlink:href="#DejaVuSans-110"/>
     <use x="250.195312" xlink:href="#DejaVuSans-115"/>
     <use x="302.294922" xlink:href="#DejaVuSans-116"/>
     <use x="341.503906" xlink:href="#DejaVuSans-97"/>
     <use x="402.783203" xlink:href="#DejaVuSans-110"/>
     <use x="466.162109" xlink:href="#DejaVuSans-99"/>
     <use x="521.142578" xlink:href="#DejaVuSans-101"/>
     <use x="582.666016" xlink:href="#DejaVuSans-115"/>
    </g>
   </g>
   <g id="text_21">
    <!-- v2.3.3.18.73 -->
    <defs>
     <path d="M 40.578125 39.3125 
Q 47.65625 37.796875 51.625 33 
Q 55.609375 28.21875 55.609375 21.1875 
Q 55.609375 10.40625 48.1875 4.484375 
Q 40.765625 -1.421875 27.09375 -1.421875 
Q 22.515625 -1.421875 17.65625 -0.515625 
Q 12.796875 0.390625 7.625 2.203125 
L 7.625 11.71875 
Q 11.71875 9.328125 16.59375 8.109375 
Q 21.484375 6.890625 26.8125 6.890625 
Q 36.078125 6.890625 40.9375 10.546875 
Q 45.796875 14.203125 45.796875 21.1875 
Q 45.796875 27.640625 41.28125 31.265625 
Q 36.765625 34.90625 28.71875 34.90625 
L 20.21875 34.90625 
L 20.21875 43.015625 
L 29.109375 43.015625 
Q 36.375 43.015625 40.234375 45.921875 
Q 44.09375 48.828125 44.09375 54.296875 
Q 44.09375 59.90625 40.109375 62.90625 
Q 36.140625 65.921875 28.71875 65.921875 
Q 24.65625 65.921875 20.015625 65.03125 
Q 15.375 64.15625 9.8125 62.3125 
L 9.8125 71.09375 
Q 15.4375 72.65625 20.34375 73.4375 
Q 25.25 74.21875 29.59375 74.21875 
Q 40.828125 74.21875 47.359375 69.109375 
Q 53.90625 64.015625 53.90625 55.328125 
Q 53.90625 49.265625 50.4375 45.09375 
Q 46.96875 40.921875 40.578125 39.3125 
z
" id="DejaVuSans-51"/>
    </defs>
    <g style="fill:#808080;" transform="translate(166.559625 294.151352)scale(0.1 -0.1)">
     <use xlink:href="#DejaVuSans-118"/>
     <use x="59.179688" xlink:href="#DejaVuSans-50"/>
     <use x="122.802734" xlink:href="#DejaVuSans-46"/>
     <use x="154.589844" xlink:href="#DejaVuSans-51"/>
     <use x="218.212891" xlink:href="#DejaVuSans-46"/>
     <use x="250" xlink:href="#DejaVuSans-51"/>
     <use x="313.623047" xlink:href="#DejaVuSans-46"/>
     <use x="345.410156" xlink:href="#DejaVuSans-49"/>
     <use x="409.033203" xlink:href="#DejaVuSans-56"/>
     <use x="472.65625" xlink:href="#DejaVuSans-46"/>
     <use x="504.443359" xlink:href="#DejaVuSans-55"/>
     <use x="568.066406" xlink:href="#DejaVuSans-51"/>
    </g>
   </g>
   <g id="text_22">
    <!-- 7 Step-ellipsoid -->
    <defs>
     <path d="M 53.515625 70.515625 
L 53.515625 60.890625 
Q 47.90625 63.578125 42.921875 64.890625 
Q 37.9375 66.21875 33.296875 66.21875 
Q 25.25 66.21875 20.875 63.09375 
Q 16.5 59.96875 16.5 54.203125 
Q 16.5 49.359375 19.40625 46.890625 
Q 22.3125 44.4375 30.421875 42.921875 
L 36.375 41.703125 
Q 47.40625 39.59375 52.65625 34.296875 
Q 57.90625 29 57.90625 20.125 
Q 57.90625 9.515625 50.796875 4.046875 
Q 43.703125 -1.421875 29.984375 -1.421875 
Q 24.8125 -1.421875 18.96875 -0.25 
Q 13.140625 0.921875 6.890625 3.21875 
L 6.890625 13.375 
Q 12.890625 10.015625 18.65625 8.296875 
Q 24.421875 6.59375 29.984375 6.59375 
Q 38.421875 6.59375 43.015625 9.90625 
Q 47.609375 13.234375 47.609375 19.390625 
Q 47.609375 24.75 44.3125 27.78125 
Q 41.015625 30.8125 33.5 32.328125 
L 27.484375 33.5 
Q 16.453125 35.6875 11.515625 40.375 
Q 6.59375 45.0625 6.59375 53.421875 
Q 6.59375 63.09375 13.40625 68.65625 
Q 20.21875 74.21875 32.171875 74.21875 
Q 37.3125 74.21875 42.625 73.28125 
Q 47.953125 72.359375 53.515625 70.515625 
z
" id="DejaVuSans-83"/>
    </defs>
    <g transform="translate(120.934625 21.648)scale(0.2 -0.2)">
     <use xlink:href="#DejaVuSans-55"/>
     <use x="63.623047" xlink:href="#DejaVuSans-32"/>
     <use x="95.410156" xlink:href="#DejaVuSans-83"/>
     <use x="158.886719" xlink:href="#DejaVuSans-116"/>
     <use x="198.095703" xlink:href="#DejaVuSans-101"/>
     <use x="259.619141" xlink:href="#DejaVuSans-112"/>
     <use x="323.095703" xlink:href="#DejaVuSans-45"/>
     <use x="359.179688" xlink:href="#DejaVuSans-101"/>
     <use x="420.703125" xlink:href="#DejaVuSans-108"/>
     <use x="448.486328" xlink:href="#DejaVuSans-108"/>
     <use x="476.269531" xlink:href="#DejaVuSans-105"/>
     <use x="504.052734" xlink:href="#DejaVuSans-112"/>
     <use x="567.529297" xlink:href="#DejaVuSans-115"/>
     <use x="619.628906" xlink:href="#DejaVuSans-111"/>
     <use x="680.810547" xlink:href="#DejaVuSans-105"/>
     <use x="708.59375" xlink:href="#DejaVuSans-100"/>
    </g>
   </g>
  </g>
 </g>
 <defs>
  <clipPath id="p7e51a02020">
   <rect height="271.296" width="281.088" x="57.6" y="27.648"/>
  </clipPath>
 </defs>
</svg>
