<?xml version="1.0" encoding="utf-8" standalone="no"?>
<!DOCTYPE svg PUBLIC "-//W3C//DTD SVG 1.1//EN"
  "http://www.w3.org/Graphics/SVG/1.1/DTD/svg11.dtd">
<!-- Created with matplotlib (https://matplotlib.org/) -->
<svg height="345.6pt" version="1.1" viewBox="0 0 460.8 345.6" width="460.8pt" xmlns="http://www.w3.org/2000/svg" xmlns:xlink="http://www.w3.org/1999/xlink">
 <defs>
  <style type="text/css">
*{stroke-linecap:butt;stroke-linejoin:round;}
  </style>
 </defs>
 <g id="figure_1">
  <g id="patch_1">
   <path d="M 0 345.6 
L 460.8 345.6 
L 460.8 0 
L 0 0 
z
" style="fill:#ffffff;"/>
  </g>
  <g id="axes_1">
   <g id="patch_2">
    <path d="M 57.6 298.944 
L 338.688 298.944 
L 338.688 27.648 
L 57.6 27.648 
z
" style="fill:#ffffff;"/>
   </g>
   <g id="line2d_1">
    <path d="M 119.199476 298.944 
L 119.199476 293.677139 
L 121.84399 293.677139 
L 121.84399 288.410278 
L 124.444412 288.410278 
L 124.444412 283.143418 
L 128.827155 283.143418 
L 128.827155 277.876557 
L 129.79784 277.876557 
L 129.79784 272.609696 
L 131.640805 272.609696 
L 131.640805 267.342835 
L 134.492498 267.342835 
L 134.492498 262.075974 
L 135.482227 262.075974 
L 135.482227 256.809114 
L 136.79465 256.809114 
L 136.79465 251.542253 
L 137.52291 251.542253 
L 137.52291 246.275392 
L 137.910857 246.275392 
L 137.910857 241.008531 
L 138.358484 241.008531 
L 138.358484 235.74167 
L 138.628343 235.74167 
L 138.628343 230.47481 
L 139.541262 230.47481 
L 139.541262 225.207949 
L 140.165274 225.207949 
L 140.165274 219.941088 
L 140.317849 219.941088 
L 140.317849 214.674227 
L 140.408758 214.674227 
L 140.408758 209.407366 
L 140.589166 209.407366 
L 140.589166 204.140506 
L 140.678675 204.140506 
L 140.678675 198.873645 
L 141.061324 198.873645 
L 141.061324 193.606784 
L 141.292695 193.606784 
L 141.292695 188.339923 
L 141.407239 188.339923 
L 141.407239 183.073062 
L 141.521035 183.073062 
L 141.521035 177.806202 
L 141.605898 177.806202 
L 141.605898 172.539341 
L 141.69035 172.539341 
L 141.69035 167.27248 
L 141.830201 167.27248 
L 141.830201 162.005619 
L 141.941279 162.005619 
L 141.941279 156.738758 
L 142.024126 156.738758 
L 142.024126 151.471897 
L 142.133981 151.471897 
L 142.133981 146.205037 
L 142.297475 146.205037 
L 142.297475 140.938176 
L 142.378651 140.938176 
L 142.378651 135.671315 
L 142.51311 135.671315 
L 142.51311 130.404454 
L 142.619936 130.404454 
L 142.619936 125.137593 
L 144.050606 125.137593 
L 144.050606 119.870733 
L 144.099593 119.870733 
L 144.099593 114.603872 
L 146.728368 114.603872 
L 146.728368 109.337011 
L 146.854132 109.337011 
L 146.854132 104.07015 
L 146.937474 104.07015 
L 146.937474 98.803289 
L 147.041095 98.803289 
L 147.041095 93.536429 
L 147.12355 93.536429 
L 147.12355 88.269568 
L 147.226074 88.269568 
L 147.226074 83.002707 
L 147.327999 83.002707 
L 147.327999 77.735846 
L 147.449528 77.735846 
L 147.449528 72.468985 
L 147.590249 72.468985 
L 147.590249 67.202125 
L 147.690073 67.202125 
L 147.690073 61.935264 
L 147.769524 61.935264 
L 147.769524 56.668403 
L 147.86833 56.668403 
L 147.86833 51.401542 
L 147.946974 51.401542 
L 147.946974 46.134681 
L 148.064279 46.134681 
L 148.064279 40.867821 
L 148.103206 40.867821 
L 148.103206 35.60096 
L 148.200145 35.60096 
L 148.200145 30.334099 
L 338.688 30.334099 
" style="fill:none;stroke:#f5deb3;stroke-linecap:square;stroke-width:4;"/>
   </g>
   <g id="line2d_2">
    <defs>
     <path d="M -0 7.778175 
L 7.778175 0 
L 0 -7.778175 
L -7.778175 -0 
z
" id="mde5698adcc" style="stroke:#f5deb3;stroke-linejoin:miter;stroke-width:1.5;"/>
    </defs>
    <g>
     <use style="fill:#f5deb3;stroke:#f5deb3;stroke-linejoin:miter;stroke-width:1.5;" x="135.482227" xlink:href="#mde5698adcc" y="256.809114"/>
     <use style="fill:#f5deb3;stroke:#f5deb3;stroke-linejoin:miter;stroke-width:1.5;" x="144.099593" xlink:href="#mde5698adcc" y="119.870733"/>
     <use style="fill:#f5deb3;stroke:#f5deb3;stroke-linejoin:miter;stroke-width:1.5;" x="148.200145" xlink:href="#mde5698adcc" y="35.60096"/>
     <use style="fill:#f5deb3;stroke:#f5deb3;stroke-linejoin:miter;stroke-width:1.5;" x="148.200145" xlink:href="#mde5698adcc" y="30.334099"/>
     <use style="fill:#f5deb3;stroke:#f5deb3;stroke-linejoin:miter;stroke-width:1.5;" x="338.688" xlink:href="#mde5698adcc" y="30.334099"/>
    </g>
   </g>
   <g id="line2d_3">
    <path style="fill:none;stroke:#f5deb3;stroke-linecap:square;stroke-width:4;"/>
    <g/>
   </g>
   <g id="line2d_4">
    <path d="M 338.688 30.334099 
L 369.60768 35.706297 
" style="fill:none;stroke:#f5deb3;stroke-linecap:square;stroke-width:4;"/>
    <g>
     <use style="fill:#f5deb3;stroke:#f5deb3;stroke-linejoin:miter;stroke-width:1.5;" x="338.688" xlink:href="#mde5698adcc" y="30.334099"/>
     <use style="fill:#f5deb3;stroke:#f5deb3;stroke-linejoin:miter;stroke-width:1.5;" x="369.60768" xlink:href="#mde5698adcc" y="35.706297"/>
    </g>
   </g>
   <g id="matplotlib.axis_1">
    <g id="xtick_1">
     <g id="line2d_5">
      <path clip-path="url(#paf6c019207)" d="M 57.6 298.944 
L 57.6 27.648 
" style="fill:none;stroke:#b0b0b0;stroke-linecap:square;stroke-width:0.8;"/>
     </g>
     <g id="line2d_6">
      <defs>
       <path d="M 0 0 
L 0 3.5 
" id="mbbb09eff98" style="stroke:#000000;stroke-width:0.8;"/>
      </defs>
      <g>
       <use style="stroke:#000000;stroke-width:0.8;" x="57.6" xlink:href="#mbbb09eff98" y="298.944"/>
      </g>
     </g>
     <g id="text_1">
      <!-- 0 -->
      <defs>
       <path d="M 31.78125 66.40625 
Q 24.171875 66.40625 20.328125 58.90625 
Q 16.5 51.421875 16.5 36.375 
Q 16.5 21.390625 20.328125 13.890625 
Q 24.171875 6.390625 31.78125 6.390625 
Q 39.453125 6.390625 43.28125 13.890625 
Q 47.125 21.390625 47.125 36.375 
Q 47.125 51.421875 43.28125 58.90625 
Q 39.453125 66.40625 31.78125 66.40625 
z
M 31.78125 74.21875 
Q 44.046875 74.21875 50.515625 64.515625 
Q 56.984375 54.828125 56.984375 36.375 
Q 56.984375 17.96875 50.515625 8.265625 
Q 44.046875 -1.421875 31.78125 -1.421875 
Q 19.53125 -1.421875 13.0625 8.265625 
Q 6.59375 17.96875 6.59375 36.375 
Q 6.59375 54.828125 13.0625 64.515625 
Q 19.53125 74.21875 31.78125 74.21875 
z
" id="DejaVuSans-48"/>
      </defs>
      <g transform="translate(51.2375 321.140875)scale(0.2 -0.2)">
       <use xlink:href="#DejaVuSans-48"/>
      </g>
     </g>
    </g>
    <g id="xtick_2">
     <g id="line2d_7">
      <path clip-path="url(#paf6c019207)" d="M 137.910857 298.944 
L 137.910857 27.648 
" style="fill:none;stroke:#b0b0b0;stroke-linecap:square;stroke-width:0.8;"/>
     </g>
     <g id="line2d_8">
      <g>
       <use style="stroke:#000000;stroke-width:0.8;" x="137.910857" xlink:href="#mbbb09eff98" y="298.944"/>
      </g>
     </g>
     <g id="text_2">
      <!-- 2 -->
      <defs>
       <path d="M 19.1875 8.296875 
L 53.609375 8.296875 
L 53.609375 0 
L 7.328125 0 
L 7.328125 8.296875 
Q 12.9375 14.109375 22.625 23.890625 
Q 32.328125 33.6875 34.8125 36.53125 
Q 39.546875 41.84375 41.421875 45.53125 
Q 43.3125 49.21875 43.3125 52.78125 
Q 43.3125 58.59375 39.234375 62.25 
Q 35.15625 65.921875 28.609375 65.921875 
Q 23.96875 65.921875 18.8125 64.3125 
Q 13.671875 62.703125 7.8125 59.421875 
L 7.8125 69.390625 
Q 13.765625 71.78125 18.9375 73 
Q 24.125 74.21875 28.421875 74.21875 
Q 39.75 74.21875 46.484375 68.546875 
Q 53.21875 62.890625 53.21875 53.421875 
Q 53.21875 48.921875 51.53125 44.890625 
Q 49.859375 40.875 45.40625 35.40625 
Q 44.1875 33.984375 37.640625 27.21875 
Q 31.109375 20.453125 19.1875 8.296875 
z
" id="DejaVuSans-50"/>
      </defs>
      <g transform="translate(131.548357 321.140875)scale(0.2 -0.2)">
       <use xlink:href="#DejaVuSans-50"/>
      </g>
     </g>
    </g>
    <g id="xtick_3">
     <g id="line2d_9">
      <path clip-path="url(#paf6c019207)" d="M 218.221714 298.944 
L 218.221714 27.648 
" style="fill:none;stroke:#b0b0b0;stroke-linecap:square;stroke-width:0.8;"/>
     </g>
     <g id="line2d_10">
      <g>
       <use style="stroke:#000000;stroke-width:0.8;" x="218.221714" xlink:href="#mbbb09eff98" y="298.944"/>
      </g>
     </g>
     <g id="text_3">
      <!-- 4 -->
      <defs>
       <path d="M 37.796875 64.3125 
L 12.890625 25.390625 
L 37.796875 25.390625 
z
M 35.203125 72.90625 
L 47.609375 72.90625 
L 47.609375 25.390625 
L 58.015625 25.390625 
L 58.015625 17.1875 
L 47.609375 17.1875 
L 47.609375 0 
L 37.796875 0 
L 37.796875 17.1875 
L 4.890625 17.1875 
L 4.890625 26.703125 
z
" id="DejaVuSans-52"/>
      </defs>
      <g transform="translate(211.859214 321.140875)scale(0.2 -0.2)">
       <use xlink:href="#DejaVuSans-52"/>
      </g>
     </g>
    </g>
    <g id="xtick_4">
     <g id="line2d_11">
      <path clip-path="url(#paf6c019207)" d="M 298.532571 298.944 
L 298.532571 27.648 
" style="fill:none;stroke:#b0b0b0;stroke-linecap:square;stroke-width:0.8;"/>
     </g>
     <g id="line2d_12">
      <g>
       <use style="stroke:#000000;stroke-width:0.8;" x="298.532571" xlink:href="#mbbb09eff98" y="298.944"/>
      </g>
     </g>
     <g id="text_4">
      <!-- 6 -->
      <defs>
       <path d="M 33.015625 40.375 
Q 26.375 40.375 22.484375 35.828125 
Q 18.609375 31.296875 18.609375 23.390625 
Q 18.609375 15.53125 22.484375 10.953125 
Q 26.375 6.390625 33.015625 6.390625 
Q 39.65625 6.390625 43.53125 10.953125 
Q 47.40625 15.53125 47.40625 23.390625 
Q 47.40625 31.296875 43.53125 35.828125 
Q 39.65625 40.375 33.015625 40.375 
z
M 52.59375 71.296875 
L 52.59375 62.3125 
Q 48.875 64.0625 45.09375 64.984375 
Q 41.3125 65.921875 37.59375 65.921875 
Q 27.828125 65.921875 22.671875 59.328125 
Q 17.53125 52.734375 16.796875 39.40625 
Q 19.671875 43.65625 24.015625 45.921875 
Q 28.375 48.1875 33.59375 48.1875 
Q 44.578125 48.1875 50.953125 41.515625 
Q 57.328125 34.859375 57.328125 23.390625 
Q 57.328125 12.15625 50.6875 5.359375 
Q 44.046875 -1.421875 33.015625 -1.421875 
Q 20.359375 -1.421875 13.671875 8.265625 
Q 6.984375 17.96875 6.984375 36.375 
Q 6.984375 53.65625 15.1875 63.9375 
Q 23.390625 74.21875 37.203125 74.21875 
Q 40.921875 74.21875 44.703125 73.484375 
Q 48.484375 72.75 52.59375 71.296875 
z
" id="DejaVuSans-54"/>
      </defs>
      <g transform="translate(292.170071 321.140875)scale(0.2 -0.2)">
       <use xlink:href="#DejaVuSans-54"/>
      </g>
     </g>
    </g>
    <g id="xtick_5">
     <g id="line2d_13">
      <path clip-path="url(#paf6c019207)" d="M 97.755429 298.944 
L 97.755429 27.648 
" style="fill:none;stroke:#b0b0b0;stroke-linecap:square;stroke-width:0.8;"/>
     </g>
     <g id="line2d_14">
      <defs>
       <path d="M 0 0 
L 0 2 
" id="ma43a9e9b0e" style="stroke:#000000;stroke-width:0.6;"/>
      </defs>
      <g>
       <use style="stroke:#000000;stroke-width:0.6;" x="97.755429" xlink:href="#ma43a9e9b0e" y="298.944"/>
      </g>
     </g>
    </g>
    <g id="xtick_6">
     <g id="line2d_15">
      <path clip-path="url(#paf6c019207)" d="M 178.066286 298.944 
L 178.066286 27.648 
" style="fill:none;stroke:#b0b0b0;stroke-linecap:square;stroke-width:0.8;"/>
     </g>
     <g id="line2d_16">
      <g>
       <use style="stroke:#000000;stroke-width:0.6;" x="178.066286" xlink:href="#ma43a9e9b0e" y="298.944"/>
      </g>
     </g>
    </g>
    <g id="xtick_7">
     <g id="line2d_17">
      <path clip-path="url(#paf6c019207)" d="M 258.377143 298.944 
L 258.377143 27.648 
" style="fill:none;stroke:#b0b0b0;stroke-linecap:square;stroke-width:0.8;"/>
     </g>
     <g id="line2d_18">
      <g>
       <use style="stroke:#000000;stroke-width:0.6;" x="258.377143" xlink:href="#ma43a9e9b0e" y="298.944"/>
      </g>
     </g>
    </g>
    <g id="xtick_8">
     <g id="line2d_19">
      <path clip-path="url(#paf6c019207)" d="M 338.688 298.944 
L 338.688 27.648 
" style="fill:none;stroke:#b0b0b0;stroke-linecap:square;stroke-width:0.8;"/>
     </g>
     <g id="line2d_20">
      <g>
       <use style="stroke:#000000;stroke-width:0.6;" x="338.688" xlink:href="#ma43a9e9b0e" y="298.944"/>
      </g>
     </g>
    </g>
    <g id="text_5">
     <!-- log10(# f-evals / dimension) -->
     <defs>
      <path d="M 9.421875 75.984375 
L 18.40625 75.984375 
L 18.40625 0 
L 9.421875 0 
z
" id="DejaVuSans-108"/>
      <path d="M 30.609375 48.390625 
Q 23.390625 48.390625 19.1875 42.75 
Q 14.984375 37.109375 14.984375 27.296875 
Q 14.984375 17.484375 19.15625 11.84375 
Q 23.34375 6.203125 30.609375 6.203125 
Q 37.796875 6.203125 41.984375 11.859375 
Q 46.1875 17.53125 46.1875 27.296875 
Q 46.1875 37.015625 41.984375 42.703125 
Q 37.796875 48.390625 30.609375 48.390625 
z
M 30.609375 56 
Q 42.328125 56 49.015625 48.375 
Q 55.71875 40.765625 55.71875 27.296875 
Q 55.71875 13.875 49.015625 6.21875 
Q 42.328125 -1.421875 30.609375 -1.421875 
Q 18.84375 -1.421875 12.171875 6.21875 
Q 5.515625 13.875 5.515625 27.296875 
Q 5.515625 40.765625 12.171875 48.375 
Q 18.84375 56 30.609375 56 
z
" id="DejaVuSans-111"/>
      <path d="M 45.40625 27.984375 
Q 45.40625 37.75 41.375 43.109375 
Q 37.359375 48.484375 30.078125 48.484375 
Q 22.859375 48.484375 18.828125 43.109375 
Q 14.796875 37.75 14.796875 27.984375 
Q 14.796875 18.265625 18.828125 12.890625 
Q 22.859375 7.515625 30.078125 7.515625 
Q 37.359375 7.515625 41.375 12.890625 
Q 45.40625 18.265625 45.40625 27.984375 
z
M 54.390625 6.78125 
Q 54.390625 -7.171875 48.1875 -13.984375 
Q 42 -20.796875 29.203125 -20.796875 
Q 24.46875 -20.796875 20.265625 -20.09375 
Q 16.0625 -19.390625 12.109375 -17.921875 
L 12.109375 -9.1875 
Q 16.0625 -11.328125 19.921875 -12.34375 
Q 23.78125 -13.375 27.78125 -13.375 
Q 36.625 -13.375 41.015625 -8.765625 
Q 45.40625 -4.15625 45.40625 5.171875 
L 45.40625 9.625 
Q 42.625 4.78125 38.28125 2.390625 
Q 33.9375 0 27.875 0 
Q 17.828125 0 11.671875 7.65625 
Q 5.515625 15.328125 5.515625 27.984375 
Q 5.515625 40.671875 11.671875 48.328125 
Q 17.828125 56 27.875 56 
Q 33.9375 56 38.28125 53.609375 
Q 42.625 51.21875 45.40625 46.390625 
L 45.40625 54.6875 
L 54.390625 54.6875 
z
" id="DejaVuSans-103"/>
      <path d="M 12.40625 8.296875 
L 28.515625 8.296875 
L 28.515625 63.921875 
L 10.984375 60.40625 
L 10.984375 69.390625 
L 28.421875 72.90625 
L 38.28125 72.90625 
L 38.28125 8.296875 
L 54.390625 8.296875 
L 54.390625 0 
L 12.40625 0 
z
" id="DejaVuSans-49"/>
      <path d="M 31 75.875 
Q 24.46875 64.65625 21.28125 53.65625 
Q 18.109375 42.671875 18.109375 31.390625 
Q 18.109375 20.125 21.3125 9.0625 
Q 24.515625 -2 31 -13.1875 
L 23.1875 -13.1875 
Q 15.875 -1.703125 12.234375 9.375 
Q 8.59375 20.453125 8.59375 31.390625 
Q 8.59375 42.28125 12.203125 53.3125 
Q 15.828125 64.359375 23.1875 75.875 
z
" id="DejaVuSans-40"/>
      <path d="M 51.125 44 
L 36.921875 44 
L 32.8125 27.6875 
L 47.125 27.6875 
z
M 43.796875 71.78125 
L 38.71875 51.515625 
L 52.984375 51.515625 
L 58.109375 71.78125 
L 65.921875 71.78125 
L 60.890625 51.515625 
L 76.125 51.515625 
L 76.125 44 
L 58.984375 44 
L 54.984375 27.6875 
L 70.515625 27.6875 
L 70.515625 20.21875 
L 53.078125 20.21875 
L 48 0 
L 40.1875 0 
L 45.21875 20.21875 
L 30.90625 20.21875 
L 25.875 0 
L 18.015625 0 
L 23.09375 20.21875 
L 7.71875 20.21875 
L 7.71875 27.6875 
L 24.90625 27.6875 
L 29 44 
L 13.28125 44 
L 13.28125 51.515625 
L 30.90625 51.515625 
L 35.890625 71.78125 
z
" id="DejaVuSans-35"/>
      <path id="DejaVuSans-32"/>
      <path d="M 37.109375 75.984375 
L 37.109375 68.5 
L 28.515625 68.5 
Q 23.6875 68.5 21.796875 66.546875 
Q 19.921875 64.59375 19.921875 59.515625 
L 19.921875 54.6875 
L 34.71875 54.6875 
L 34.71875 47.703125 
L 19.921875 47.703125 
L 19.921875 0 
L 10.890625 0 
L 10.890625 47.703125 
L 2.296875 47.703125 
L 2.296875 54.6875 
L 10.890625 54.6875 
L 10.890625 58.5 
Q 10.890625 67.625 15.140625 71.796875 
Q 19.390625 75.984375 28.609375 75.984375 
z
" id="DejaVuSans-102"/>
      <path d="M 4.890625 31.390625 
L 31.203125 31.390625 
L 31.203125 23.390625 
L 4.890625 23.390625 
z
" id="DejaVuSans-45"/>
      <path d="M 56.203125 29.59375 
L 56.203125 25.203125 
L 14.890625 25.203125 
Q 15.484375 15.921875 20.484375 11.0625 
Q 25.484375 6.203125 34.421875 6.203125 
Q 39.59375 6.203125 44.453125 7.46875 
Q 49.3125 8.734375 54.109375 11.28125 
L 54.109375 2.78125 
Q 49.265625 0.734375 44.1875 -0.34375 
Q 39.109375 -1.421875 33.890625 -1.421875 
Q 20.796875 -1.421875 13.15625 6.1875 
Q 5.515625 13.8125 5.515625 26.8125 
Q 5.515625 40.234375 12.765625 48.109375 
Q 20.015625 56 32.328125 56 
Q 43.359375 56 49.78125 48.890625 
Q 56.203125 41.796875 56.203125 29.59375 
z
M 47.21875 32.234375 
Q 47.125 39.59375 43.09375 43.984375 
Q 39.0625 48.390625 32.421875 48.390625 
Q 24.90625 48.390625 20.390625 44.140625 
Q 15.875 39.890625 15.1875 32.171875 
z
" id="DejaVuSans-101"/>
      <path d="M 2.984375 54.6875 
L 12.5 54.6875 
L 29.59375 8.796875 
L 46.6875 54.6875 
L 56.203125 54.6875 
L 35.6875 0 
L 23.484375 0 
z
" id="DejaVuSans-118"/>
      <path d="M 34.28125 27.484375 
Q 23.390625 27.484375 19.1875 25 
Q 14.984375 22.515625 14.984375 16.5 
Q 14.984375 11.71875 18.140625 8.90625 
Q 21.296875 6.109375 26.703125 6.109375 
Q 34.1875 6.109375 38.703125 11.40625 
Q 43.21875 16.703125 43.21875 25.484375 
L 43.21875 27.484375 
z
M 52.203125 31.203125 
L 52.203125 0 
L 43.21875 0 
L 43.21875 8.296875 
Q 40.140625 3.328125 35.546875 0.953125 
Q 30.953125 -1.421875 24.3125 -1.421875 
Q 15.921875 -1.421875 10.953125 3.296875 
Q 6 8.015625 6 15.921875 
Q 6 25.140625 12.171875 29.828125 
Q 18.359375 34.515625 30.609375 34.515625 
L 43.21875 34.515625 
L 43.21875 35.40625 
Q 43.21875 41.609375 39.140625 45 
Q 35.0625 48.390625 27.6875 48.390625 
Q 23 48.390625 18.546875 47.265625 
Q 14.109375 46.140625 10.015625 43.890625 
L 10.015625 52.203125 
Q 14.9375 54.109375 19.578125 55.046875 
Q 24.21875 56 28.609375 56 
Q 40.484375 56 46.34375 49.84375 
Q 52.203125 43.703125 52.203125 31.203125 
z
" id="DejaVuSans-97"/>
      <path d="M 44.28125 53.078125 
L 44.28125 44.578125 
Q 40.484375 46.53125 36.375 47.5 
Q 32.28125 48.484375 27.875 48.484375 
Q 21.1875 48.484375 17.84375 46.4375 
Q 14.5 44.390625 14.5 40.28125 
Q 14.5 37.15625 16.890625 35.375 
Q 19.28125 33.59375 26.515625 31.984375 
L 29.59375 31.296875 
Q 39.15625 29.25 43.1875 25.515625 
Q 47.21875 21.78125 47.21875 15.09375 
Q 47.21875 7.46875 41.1875 3.015625 
Q 35.15625 -1.421875 24.609375 -1.421875 
Q 20.21875 -1.421875 15.453125 -0.5625 
Q 10.6875 0.296875 5.421875 2 
L 5.421875 11.28125 
Q 10.40625 8.6875 15.234375 7.390625 
Q 20.0625 6.109375 24.8125 6.109375 
Q 31.15625 6.109375 34.5625 8.28125 
Q 37.984375 10.453125 37.984375 14.40625 
Q 37.984375 18.0625 35.515625 20.015625 
Q 33.0625 21.96875 24.703125 23.78125 
L 21.578125 24.515625 
Q 13.234375 26.265625 9.515625 29.90625 
Q 5.8125 33.546875 5.8125 39.890625 
Q 5.8125 47.609375 11.28125 51.796875 
Q 16.75 56 26.8125 56 
Q 31.78125 56 36.171875 55.265625 
Q 40.578125 54.546875 44.28125 53.078125 
z
" id="DejaVuSans-115"/>
      <path d="M 25.390625 72.90625 
L 33.6875 72.90625 
L 8.296875 -9.28125 
L 0 -9.28125 
z
" id="DejaVuSans-47"/>
      <path d="M 45.40625 46.390625 
L 45.40625 75.984375 
L 54.390625 75.984375 
L 54.390625 0 
L 45.40625 0 
L 45.40625 8.203125 
Q 42.578125 3.328125 38.25 0.953125 
Q 33.9375 -1.421875 27.875 -1.421875 
Q 17.96875 -1.421875 11.734375 6.484375 
Q 5.515625 14.40625 5.515625 27.296875 
Q 5.515625 40.1875 11.734375 48.09375 
Q 17.96875 56 27.875 56 
Q 33.9375 56 38.25 53.625 
Q 42.578125 51.265625 45.40625 46.390625 
z
M 14.796875 27.296875 
Q 14.796875 17.390625 18.875 11.75 
Q 22.953125 6.109375 30.078125 6.109375 
Q 37.203125 6.109375 41.296875 11.75 
Q 45.40625 17.390625 45.40625 27.296875 
Q 45.40625 37.203125 41.296875 42.84375 
Q 37.203125 48.484375 30.078125 48.484375 
Q 22.953125 48.484375 18.875 42.84375 
Q 14.796875 37.203125 14.796875 27.296875 
z
" id="DejaVuSans-100"/>
      <path d="M 9.421875 54.6875 
L 18.40625 54.6875 
L 18.40625 0 
L 9.421875 0 
z
M 9.421875 75.984375 
L 18.40625 75.984375 
L 18.40625 64.59375 
L 9.421875 64.59375 
z
" id="DejaVuSans-105"/>
      <path d="M 52 44.1875 
Q 55.375 50.25 60.0625 53.125 
Q 64.75 56 71.09375 56 
Q 79.640625 56 84.28125 50.015625 
Q 88.921875 44.046875 88.921875 33.015625 
L 88.921875 0 
L 79.890625 0 
L 79.890625 32.71875 
Q 79.890625 40.578125 77.09375 44.375 
Q 74.3125 48.1875 68.609375 48.1875 
Q 61.625 48.1875 57.5625 43.546875 
Q 53.515625 38.921875 53.515625 30.90625 
L 53.515625 0 
L 44.484375 0 
L 44.484375 32.71875 
Q 44.484375 40.625 41.703125 44.40625 
Q 38.921875 48.1875 33.109375 48.1875 
Q 26.21875 48.1875 22.15625 43.53125 
Q 18.109375 38.875 18.109375 30.90625 
L 18.109375 0 
L 9.078125 0 
L 9.078125 54.6875 
L 18.109375 54.6875 
L 18.109375 46.1875 
Q 21.1875 51.21875 25.484375 53.609375 
Q 29.78125 56 35.6875 56 
Q 41.65625 56 45.828125 52.96875 
Q 50 49.953125 52 44.1875 
z
" id="DejaVuSans-109"/>
      <path d="M 54.890625 33.015625 
L 54.890625 0 
L 45.90625 0 
L 45.90625 32.71875 
Q 45.90625 40.484375 42.875 44.328125 
Q 39.84375 48.1875 33.796875 48.1875 
Q 26.515625 48.1875 22.3125 43.546875 
Q 18.109375 38.921875 18.109375 30.90625 
L 18.109375 0 
L 9.078125 0 
L 9.078125 54.6875 
L 18.109375 54.6875 
L 18.109375 46.1875 
Q 21.34375 51.125 25.703125 53.5625 
Q 30.078125 56 35.796875 56 
Q 45.21875 56 50.046875 50.171875 
Q 54.890625 44.34375 54.890625 33.015625 
z
" id="DejaVuSans-110"/>
      <path d="M 8.015625 75.875 
L 15.828125 75.875 
Q 23.140625 64.359375 26.78125 53.3125 
Q 30.421875 42.28125 30.421875 31.390625 
Q 30.421875 20.453125 26.78125 9.375 
Q 23.140625 -1.703125 15.828125 -13.1875 
L 8.015625 -13.1875 
Q 14.5 -2 17.703125 9.0625 
Q 20.90625 20.125 20.90625 31.390625 
Q 20.90625 42.671875 17.703125 53.65625 
Q 14.5 64.65625 8.015625 75.875 
z
" id="DejaVuSans-41"/>
     </defs>
     <g transform="translate(77.303219 342.217594)scale(0.17 -0.17)">
      <use xlink:href="#DejaVuSans-108"/>
      <use x="27.783203" xlink:href="#DejaVuSans-111"/>
      <use x="88.964844" xlink:href="#DejaVuSans-103"/>
      <use x="152.441406" xlink:href="#DejaVuSans-49"/>
      <use x="216.064453" xlink:href="#DejaVuSans-48"/>
      <use x="279.6875" xlink:href="#DejaVuSans-40"/>
      <use x="318.701172" xlink:href="#DejaVuSans-35"/>
      <use x="402.490234" xlink:href="#DejaVuSans-32"/>
      <use x="434.277344" xlink:href="#DejaVuSans-102"/>
      <use x="469.404297" xlink:href="#DejaVuSans-45"/>
      <use x="505.488281" xlink:href="#DejaVuSans-101"/>
      <use x="567.011719" xlink:href="#DejaVuSans-118"/>
      <use x="626.191406" xlink:href="#DejaVuSans-97"/>
      <use x="687.470703" xlink:href="#DejaVuSans-108"/>
      <use x="715.253906" xlink:href="#DejaVuSans-115"/>
      <use x="767.353516" xlink:href="#DejaVuSans-32"/>
      <use x="799.140625" xlink:href="#DejaVuSans-47"/>
      <use x="832.832031" xlink:href="#DejaVuSans-32"/>
      <use x="864.619141" xlink:href="#DejaVuSans-100"/>
      <use x="928.095703" xlink:href="#DejaVuSans-105"/>
      <use x="955.878906" xlink:href="#DejaVuSans-109"/>
      <use x="1053.291016" xlink:href="#DejaVuSans-101"/>
      <use x="1114.814453" xlink:href="#DejaVuSans-110"/>
      <use x="1178.193359" xlink:href="#DejaVuSans-115"/>
      <use x="1230.292969" xlink:href="#DejaVuSans-105"/>
      <use x="1258.076172" xlink:href="#DejaVuSans-111"/>
      <use x="1319.257812" xlink:href="#DejaVuSans-110"/>
      <use x="1382.636719" xlink:href="#DejaVuSans-41"/>
     </g>
    </g>
   </g>
   <g id="matplotlib.axis_2">
    <g id="ytick_1">
     <g id="line2d_21">
      <path clip-path="url(#paf6c019207)" d="M 57.6 298.944 
L 338.688 298.944 
" style="fill:none;stroke:#b0b0b0;stroke-linecap:square;stroke-width:0.8;"/>
     </g>
     <g id="line2d_22">
      <defs>
       <path d="M 0 0 
L -3.5 0 
" id="m70fe0d601c" style="stroke:#000000;stroke-width:0.8;"/>
      </defs>
      <g>
       <use style="stroke:#000000;stroke-width:0.8;" x="57.6" xlink:href="#m70fe0d601c" y="298.944"/>
      </g>
     </g>
     <g id="text_6">
      <!-- 0.0 -->
      <defs>
       <path d="M 10.6875 12.40625 
L 21 12.40625 
L 21 0 
L 10.6875 0 
z
" id="DejaVuSans-46"/>
      </defs>
      <g transform="translate(25.155 305.02275)scale(0.16 -0.16)">
       <use xlink:href="#DejaVuSans-48"/>
       <use x="63.623047" xlink:href="#DejaVuSans-46"/>
       <use x="95.410156" xlink:href="#DejaVuSans-48"/>
      </g>
     </g>
    </g>
    <g id="ytick_2">
     <g id="line2d_23">
      <path clip-path="url(#paf6c019207)" d="M 57.6 245.22202 
L 338.688 245.22202 
" style="fill:none;stroke:#b0b0b0;stroke-linecap:square;stroke-width:0.8;"/>
     </g>
     <g id="line2d_24">
      <g>
       <use style="stroke:#000000;stroke-width:0.8;" x="57.6" xlink:href="#m70fe0d601c" y="245.22202"/>
      </g>
     </g>
     <g id="text_7">
      <!-- 0.2 -->
      <g transform="translate(25.155 251.30077)scale(0.16 -0.16)">
       <use xlink:href="#DejaVuSans-48"/>
       <use x="63.623047" xlink:href="#DejaVuSans-46"/>
       <use x="95.410156" xlink:href="#DejaVuSans-50"/>
      </g>
     </g>
    </g>
    <g id="ytick_3">
     <g id="line2d_25">
      <path clip-path="url(#paf6c019207)" d="M 57.6 191.50004 
L 338.688 191.50004 
" style="fill:none;stroke:#b0b0b0;stroke-linecap:square;stroke-width:0.8;"/>
     </g>
     <g id="line2d_26">
      <g>
       <use style="stroke:#000000;stroke-width:0.8;" x="57.6" xlink:href="#m70fe0d601c" y="191.50004"/>
      </g>
     </g>
     <g id="text_8">
      <!-- 0.4 -->
      <g transform="translate(25.155 197.57879)scale(0.16 -0.16)">
       <use xlink:href="#DejaVuSans-48"/>
       <use x="63.623047" xlink:href="#DejaVuSans-46"/>
       <use x="95.410156" xlink:href="#DejaVuSans-52"/>
      </g>
     </g>
    </g>
    <g id="ytick_4">
     <g id="line2d_27">
      <path clip-path="url(#paf6c019207)" d="M 57.6 137.778059 
L 338.688 137.778059 
" style="fill:none;stroke:#b0b0b0;stroke-linecap:square;stroke-width:0.8;"/>
     </g>
     <g id="line2d_28">
      <g>
       <use style="stroke:#000000;stroke-width:0.8;" x="57.6" xlink:href="#m70fe0d601c" y="137.778059"/>
      </g>
     </g>
     <g id="text_9">
      <!-- 0.6 -->
      <g transform="translate(25.155 143.856809)scale(0.16 -0.16)">
       <use xlink:href="#DejaVuSans-48"/>
       <use x="63.623047" xlink:href="#DejaVuSans-46"/>
       <use x="95.410156" xlink:href="#DejaVuSans-54"/>
      </g>
     </g>
    </g>
    <g id="ytick_5">
     <g id="line2d_29">
      <path clip-path="url(#paf6c019207)" d="M 57.6 84.056079 
L 338.688 84.056079 
" style="fill:none;stroke:#b0b0b0;stroke-linecap:square;stroke-width:0.8;"/>
     </g>
     <g id="line2d_30">
      <g>
       <use style="stroke:#000000;stroke-width:0.8;" x="57.6" xlink:href="#m70fe0d601c" y="84.056079"/>
      </g>
     </g>
     <g id="text_10">
      <!-- 0.8 -->
      <defs>
       <path d="M 31.78125 34.625 
Q 24.75 34.625 20.71875 30.859375 
Q 16.703125 27.09375 16.703125 20.515625 
Q 16.703125 13.921875 20.71875 10.15625 
Q 24.75 6.390625 31.78125 6.390625 
Q 38.8125 6.390625 42.859375 10.171875 
Q 46.921875 13.96875 46.921875 20.515625 
Q 46.921875 27.09375 42.890625 30.859375 
Q 38.875 34.625 31.78125 34.625 
z
M 21.921875 38.8125 
Q 15.578125 40.375 12.03125 44.71875 
Q 8.5 49.078125 8.5 55.328125 
Q 8.5 64.0625 14.71875 69.140625 
Q 20.953125 74.21875 31.78125 74.21875 
Q 42.671875 74.21875 48.875 69.140625 
Q 55.078125 64.0625 55.078125 55.328125 
Q 55.078125 49.078125 51.53125 44.71875 
Q 48 40.375 41.703125 38.8125 
Q 48.828125 37.15625 52.796875 32.3125 
Q 56.78125 27.484375 56.78125 20.515625 
Q 56.78125 9.90625 50.3125 4.234375 
Q 43.84375 -1.421875 31.78125 -1.421875 
Q 19.734375 -1.421875 13.25 4.234375 
Q 6.78125 9.90625 6.78125 20.515625 
Q 6.78125 27.484375 10.78125 32.3125 
Q 14.796875 37.15625 21.921875 38.8125 
z
M 18.3125 54.390625 
Q 18.3125 48.734375 21.84375 45.5625 
Q 25.390625 42.390625 31.78125 42.390625 
Q 38.140625 42.390625 41.71875 45.5625 
Q 45.3125 48.734375 45.3125 54.390625 
Q 45.3125 60.0625 41.71875 63.234375 
Q 38.140625 66.40625 31.78125 66.40625 
Q 25.390625 66.40625 21.84375 63.234375 
Q 18.3125 60.0625 18.3125 54.390625 
z
" id="DejaVuSans-56"/>
      </defs>
      <g transform="translate(25.155 90.134829)scale(0.16 -0.16)">
       <use xlink:href="#DejaVuSans-48"/>
       <use x="63.623047" xlink:href="#DejaVuSans-46"/>
       <use x="95.410156" xlink:href="#DejaVuSans-56"/>
      </g>
     </g>
    </g>
    <g id="ytick_6">
     <g id="line2d_31">
      <path clip-path="url(#paf6c019207)" d="M 57.6 30.334099 
L 338.688 30.334099 
" style="fill:none;stroke:#b0b0b0;stroke-linecap:square;stroke-width:0.8;"/>
     </g>
     <g id="line2d_32">
      <g>
       <use style="stroke:#000000;stroke-width:0.8;" x="57.6" xlink:href="#m70fe0d601c" y="30.334099"/>
      </g>
     </g>
     <g id="text_11">
      <!-- 1.0 -->
      <g transform="translate(25.155 36.412849)scale(0.16 -0.16)">
       <use xlink:href="#DejaVuSans-49"/>
       <use x="63.623047" xlink:href="#DejaVuSans-46"/>
       <use x="95.410156" xlink:href="#DejaVuSans-48"/>
      </g>
     </g>
    </g>
    <g id="text_12">
     <!-- Fraction of function,target pairs -->
     <defs>
      <path d="M 9.8125 72.90625 
L 51.703125 72.90625 
L 51.703125 64.59375 
L 19.671875 64.59375 
L 19.671875 43.109375 
L 48.578125 43.109375 
L 48.578125 34.8125 
L 19.671875 34.8125 
L 19.671875 0 
L 9.8125 0 
z
" id="DejaVuSans-70"/>
      <path d="M 41.109375 46.296875 
Q 39.59375 47.171875 37.8125 47.578125 
Q 36.03125 48 33.890625 48 
Q 26.265625 48 22.1875 43.046875 
Q 18.109375 38.09375 18.109375 28.8125 
L 18.109375 0 
L 9.078125 0 
L 9.078125 54.6875 
L 18.109375 54.6875 
L 18.109375 46.1875 
Q 20.953125 51.171875 25.484375 53.578125 
Q 30.03125 56 36.53125 56 
Q 37.453125 56 38.578125 55.875 
Q 39.703125 55.765625 41.0625 55.515625 
z
" id="DejaVuSans-114"/>
      <path d="M 48.78125 52.59375 
L 48.78125 44.1875 
Q 44.96875 46.296875 41.140625 47.34375 
Q 37.3125 48.390625 33.40625 48.390625 
Q 24.65625 48.390625 19.8125 42.84375 
Q 14.984375 37.3125 14.984375 27.296875 
Q 14.984375 17.28125 19.8125 11.734375 
Q 24.65625 6.203125 33.40625 6.203125 
Q 37.3125 6.203125 41.140625 7.25 
Q 44.96875 8.296875 48.78125 10.40625 
L 48.78125 2.09375 
Q 45.015625 0.34375 40.984375 -0.53125 
Q 36.96875 -1.421875 32.421875 -1.421875 
Q 20.0625 -1.421875 12.78125 6.34375 
Q 5.515625 14.109375 5.515625 27.296875 
Q 5.515625 40.671875 12.859375 48.328125 
Q 20.21875 56 33.015625 56 
Q 37.15625 56 41.109375 55.140625 
Q 45.0625 54.296875 48.78125 52.59375 
z
" id="DejaVuSans-99"/>
      <path d="M 18.3125 70.21875 
L 18.3125 54.6875 
L 36.8125 54.6875 
L 36.8125 47.703125 
L 18.3125 47.703125 
L 18.3125 18.015625 
Q 18.3125 11.328125 20.140625 9.421875 
Q 21.96875 7.515625 27.59375 7.515625 
L 36.8125 7.515625 
L 36.8125 0 
L 27.59375 0 
Q 17.1875 0 13.234375 3.875 
Q 9.28125 7.765625 9.28125 18.015625 
L 9.28125 47.703125 
L 2.6875 47.703125 
L 2.6875 54.6875 
L 9.28125 54.6875 
L 9.28125 70.21875 
z
" id="DejaVuSans-116"/>
      <path d="M 8.5 21.578125 
L 8.5 54.6875 
L 17.484375 54.6875 
L 17.484375 21.921875 
Q 17.484375 14.15625 20.5 10.265625 
Q 23.53125 6.390625 29.59375 6.390625 
Q 36.859375 6.390625 41.078125 11.03125 
Q 45.3125 15.671875 45.3125 23.6875 
L 45.3125 54.6875 
L 54.296875 54.6875 
L 54.296875 0 
L 45.3125 0 
L 45.3125 8.40625 
Q 42.046875 3.421875 37.71875 1 
Q 33.40625 -1.421875 27.6875 -1.421875 
Q 18.265625 -1.421875 13.375 4.4375 
Q 8.5 10.296875 8.5 21.578125 
z
M 31.109375 56 
z
" id="DejaVuSans-117"/>
      <path d="M 11.71875 12.40625 
L 22.015625 12.40625 
L 22.015625 4 
L 14.015625 -11.625 
L 7.71875 -11.625 
L 11.71875 4 
z
" id="DejaVuSans-44"/>
      <path d="M 18.109375 8.203125 
L 18.109375 -20.796875 
L 9.078125 -20.796875 
L 9.078125 54.6875 
L 18.109375 54.6875 
L 18.109375 46.390625 
Q 20.953125 51.265625 25.265625 53.625 
Q 29.59375 56 35.59375 56 
Q 45.5625 56 51.78125 48.09375 
Q 58.015625 40.1875 58.015625 27.296875 
Q 58.015625 14.40625 51.78125 6.484375 
Q 45.5625 -1.421875 35.59375 -1.421875 
Q 29.59375 -1.421875 25.265625 0.953125 
Q 20.953125 3.328125 18.109375 8.203125 
z
M 48.6875 27.296875 
Q 48.6875 37.203125 44.609375 42.84375 
Q 40.53125 48.484375 33.40625 48.484375 
Q 26.265625 48.484375 22.1875 42.84375 
Q 18.109375 37.203125 18.109375 27.296875 
Q 18.109375 17.390625 22.1875 11.75 
Q 26.265625 6.109375 33.40625 6.109375 
Q 40.53125 6.109375 44.609375 11.75 
Q 48.6875 17.390625 48.6875 27.296875 
z
" id="DejaVuSans-112"/>
     </defs>
     <g transform="translate(17.619531 298.435375)rotate(-90)scale(0.17 -0.17)">
      <use xlink:href="#DejaVuSans-70"/>
      <use x="57.410156" xlink:href="#DejaVuSans-114"/>
      <use x="98.523438" xlink:href="#DejaVuSans-97"/>
      <use x="159.802734" xlink:href="#DejaVuSans-99"/>
      <use x="214.783203" xlink:href="#DejaVuSans-116"/>
      <use x="253.992188" xlink:href="#DejaVuSans-105"/>
      <use x="281.775391" xlink:href="#DejaVuSans-111"/>
      <use x="342.957031" xlink:href="#DejaVuSans-110"/>
      <use x="406.335938" xlink:href="#DejaVuSans-32"/>
      <use x="438.123047" xlink:href="#DejaVuSans-111"/>
      <use x="499.304688" xlink:href="#DejaVuSans-102"/>
      <use x="534.509766" xlink:href="#DejaVuSans-32"/>
      <use x="566.296875" xlink:href="#DejaVuSans-102"/>
      <use x="601.501953" xlink:href="#DejaVuSans-117"/>
      <use x="664.880859" xlink:href="#DejaVuSans-110"/>
      <use x="728.259766" xlink:href="#DejaVuSans-99"/>
      <use x="783.240234" xlink:href="#DejaVuSans-116"/>
      <use x="822.449219" xlink:href="#DejaVuSans-105"/>
      <use x="850.232422" xlink:href="#DejaVuSans-111"/>
      <use x="911.414062" xlink:href="#DejaVuSans-110"/>
      <use x="974.792969" xlink:href="#DejaVuSans-44"/>
      <use x="1006.580078" xlink:href="#DejaVuSans-116"/>
      <use x="1045.789062" xlink:href="#DejaVuSans-97"/>
      <use x="1107.068359" xlink:href="#DejaVuSans-114"/>
      <use x="1148.166016" xlink:href="#DejaVuSans-103"/>
      <use x="1211.642578" xlink:href="#DejaVuSans-101"/>
      <use x="1273.166016" xlink:href="#DejaVuSans-116"/>
      <use x="1312.375" xlink:href="#DejaVuSans-32"/>
      <use x="1344.162109" xlink:href="#DejaVuSans-112"/>
      <use x="1407.638672" xlink:href="#DejaVuSans-97"/>
      <use x="1468.917969" xlink:href="#DejaVuSans-105"/>
      <use x="1496.701172" xlink:href="#DejaVuSans-114"/>
      <use x="1537.814453" xlink:href="#DejaVuSans-115"/>
     </g>
    </g>
   </g>
   <g id="line2d_33">
    <defs>
     <path d="M 0 1.5 
C 0.397805 1.5 0.77937 1.341951 1.06066 1.06066 
C 1.341951 0.77937 1.5 0.397805 1.5 0 
C 1.5 -0.397805 1.341951 -0.77937 1.06066 -1.06066 
C 0.77937 -1.341951 0.397805 -1.5 0 -1.5 
C -0.397805 -1.5 -0.77937 -1.341951 -1.06066 -1.06066 
C -1.341951 -0.77937 -1.5 -0.397805 -1.5 0 
C -1.5 0.397805 -1.341951 0.77937 -1.06066 1.06066 
C -0.77937 1.341951 -0.397805 1.5 0 1.5 
z
" id="ma5de8280ce" style="stroke:#f5deb3;"/>
    </defs>
    <g>
     <use style="fill:#f5deb3;stroke:#f5deb3;" x="148.200145" xlink:href="#ma5de8280ce" y="30.334099"/>
     <use style="fill:#f5deb3;stroke:#f5deb3;" x="148.200145" xlink:href="#ma5de8280ce" y="30.334099"/>
    </g>
   </g>
   <g id="line2d_34">
    <defs>
     <path d="M 0 1.5 
C 0.397805 1.5 0.77937 1.341951 1.06066 1.06066 
C 1.341951 0.77937 1.5 0.397805 1.5 0 
C 1.5 -0.397805 1.341951 -0.77937 1.06066 -1.06066 
C 0.77937 -1.341951 0.397805 -1.5 0 -1.5 
C -0.397805 -1.5 -0.77937 -1.341951 -1.06066 -1.06066 
C -1.341951 -0.77937 -1.5 -0.397805 -1.5 0 
C -1.5 0.397805 -1.341951 0.77937 -1.06066 1.06066 
C -0.77937 1.341951 -0.397805 1.5 0 1.5 
z
" id="m04cdac5077" style="stroke:#000080;"/>
    </defs>
    <g>
     <use style="fill:#000080;stroke:#000080;" x="159.587904" xlink:href="#m04cdac5077" y="30.334099"/>
     <use style="fill:#000080;stroke:#000080;" x="159.587904" xlink:href="#m04cdac5077" y="30.334099"/>
    </g>
   </g>
   <g id="line2d_35">
    <path d="M 131.082294 298.944 
L 131.082294 298.417314 
L 131.640805 298.417314 
L 131.640805 297.890628 
L 132.036046 297.890628 
L 132.133473 296.31057 
L 134.019394 296.31057 
L 134.019394 295.783884 
L 134.577155 295.783884 
L 134.577155 295.257197 
L 134.703375 295.257197 
L 134.703375 294.203825 
L 134.994383 294.203825 
L 134.994383 293.677139 
L 135.117629 293.677139 
L 135.199312 292.623767 
L 135.44209 292.623767 
L 135.44209 291.570395 
L 135.562224 291.570395 
L 135.562224 291.043709 
L 135.681535 291.043709 
L 135.681535 290.517023 
L 135.917737 290.517023 
L 135.917737 289.990337 
L 136.150782 289.990337 
L 136.150782 289.463651 
L 136.380754 289.463651 
L 136.380754 288.410278 
L 136.494612 288.410278 
L 136.494612 287.356906 
L 136.645276 287.356906 
L 136.645276 286.303534 
L 137.451437 286.303534 
L 137.48721 284.19679 
L 137.910857 284.19679 
L 137.980475 283.143418 
L 138.049816 283.143418 
L 138.118883 282.090045 
L 138.426341 282.090045 
L 138.460171 281.036673 
L 138.794909 281.036673 
L 138.794909 280.509987 
L 138.99271 280.509987 
L 139.02546 277.876557 
L 139.220677 277.876557 
L 139.220677 276.296499 
L 139.381706 276.296499 
L 139.381706 275.769812 
L 139.69937 275.769812 
L 139.69937 275.243126 
L 139.856059 275.243126 
L 139.9494 273.663068 
L 140.165274 273.663068 
L 140.256979 272.609696 
L 140.559227 272.609696 
L 140.559227 272.08301 
L 140.738093 272.08301 
L 140.738093 271.556324 
L 140.944478 271.556324 
L 141.002999 269.449579 
L 141.521035 269.449579 
L 141.521035 268.396207 
L 141.634094 268.396207 
L 141.634094 267.869521 
L 141.830201 267.869521 
L 141.858037 265.762777 
L 142.351634 265.762777 
L 142.432559 264.709405 
L 142.726112 264.709405 
L 142.726112 264.182719 
L 143.040814 264.182719 
L 143.144465 263.129347 
L 143.40093 263.129347 
L 143.40093 262.075974 
L 143.553018 262.075974 
L 143.628567 259.96923 
L 143.728793 259.96923 
L 143.728793 258.915858 
L 143.976867 258.915858 
L 143.976867 258.389172 
L 144.221461 258.389172 
L 144.318346 254.702369 
L 144.510517 254.702369 
L 144.510517 254.175683 
L 144.700592 254.175683 
L 144.700592 253.648997 
L 144.818346 253.648997 
L 144.888619 252.068939 
L 144.93531 252.068939 
L 144.958609 250.488881 
L 145.097753 250.488881 
L 145.097753 249.962195 
L 145.350002 249.962195 
L 145.350002 249.435508 
L 145.48607 249.435508 
L 145.48607 247.328764 
L 145.598655 247.328764 
L 145.643486 246.275392 
L 145.865929 246.275392 
L 145.976095 243.115275 
L 146.06373 243.115275 
L 146.06373 242.588589 
L 146.367029 242.588589 
L 146.367029 242.061903 
L 146.538004 242.061903 
L 146.644018 238.375101 
L 146.686244 238.375101 
L 146.791364 234.161612 
L 146.812312 234.161612 
L 146.895853 231.528182 
L 146.978997 231.528182 
L 147.082371 230.47481 
L 147.266916 230.47481 
L 147.348313 227.841379 
L 147.388869 227.841379 
L 147.388869 227.314693 
L 147.749695 227.314693 
L 147.848613 224.681263 
L 147.907696 224.681263 
L 148.005725 218.36103 
L 148.142046 218.36103 
L 148.23877 215.200913 
L 148.296548 215.200913 
L 148.373289 213.094169 
L 148.525764 213.094169 
L 148.54473 212.040797 
L 148.676918 212.040797 
L 148.733265 208.88068 
L 148.78943 208.88068 
L 148.882639 207.300622 
L 148.919783 207.300622 
L 149.030744 205.193878 
L 149.049169 205.193878 
L 149.104327 203.087133 
L 149.214124 203.087133 
L 149.286939 198.873645 
L 149.377533 198.873645 
L 149.377533 197.293586 
L 149.557321 197.293586 
L 149.593058 194.660156 
L 149.788308 194.660156 
L 149.876341 193.080098 
L 150.051085 193.080098 
L 150.120495 190.973354 
L 150.172372 190.973354 
L 150.275665 184.653121 
L 150.309961 184.653121 
L 150.412445 182.01969 
L 150.429467 182.01969 
L 150.49739 179.38626 
L 150.54816 179.38626 
L 150.615623 176.226143 
L 150.66605 176.226143 
L 150.766468 174.119399 
L 150.783149 174.119399 
L 150.866312 172.012655 
L 150.91602 172.012655 
L 150.932558 169.90591 
L 151.031458 169.90591 
L 151.0643 167.799166 
L 151.162458 167.799166 
L 151.260066 164.63905 
L 151.276281 164.63905 
L 151.373256 159.898875 
L 151.469695 159.898875 
L 151.533692 158.318817 
L 151.61336 158.318817 
L 151.676833 155.685386 
L 151.755852 155.685386 
L 151.865879 150.418525 
L 151.881541 150.418525 
L 151.944047 148.838467 
L 152.037389 148.838467 
L 152.037389 146.731723 
L 152.191856 146.731723 
L 152.299175 145.151665 
L 152.314453 145.151665 
L 152.344968 143.571606 
L 152.466496 143.571606 
L 152.542024 140.41149 
L 152.662192 140.41149 
L 152.766663 138.304745 
L 152.781537 138.304745 
L 152.885298 134.617943 
L 152.973748 134.617943 
L 153.047115 130.404454 
L 153.090987 130.404454 
L 153.192929 127.771024 
L 153.207444 127.771024 
L 153.308709 124.084221 
L 153.366312 124.084221 
L 153.452361 119.344047 
L 153.523746 119.344047 
L 153.623196 115.657244 
L 153.637357 115.657244 
L 153.665645 114.603872 
L 153.750233 114.603872 
L 153.848404 111.443755 
L 153.890309 111.443755 
L 153.890309 110.917069 
L 154.043103 110.917069 
L 154.153391 108.283639 
L 154.19457 108.283639 
L 154.249325 104.596836 
L 154.331136 104.596836 
L 154.385464 102.490092 
L 154.46664 102.490092 
L 154.57429 100.910034 
L 154.614488 100.910034 
L 154.721232 94.063115 
L 154.787617 94.063115 
L 154.89331 88.796254 
L 154.919633 88.796254 
L 154.998366 85.636137 
L 155.063706 85.636137 
L 155.128803 83.002707 
L 155.28405 83.002707 
L 155.34833 77.20916 
L 155.399584 77.20916 
L 155.501643 74.57573 
L 155.55245 74.57573 
L 155.603109 73.522358 
L 155.678822 73.522358 
L 155.729115 70.888927 
L 155.804285 70.888927 
L 155.854218 67.728811 
L 155.916435 67.728811 
L 155.966049 66.675439 
L 156.040206 66.675439 
L 156.077167 64.568694 
L 156.212023 64.568694 
L 156.32159 60.881892 
L 156.370066 60.881892 
L 156.442528 58.248461 
L 156.49067 58.248461 
L 156.586556 54.561659 
L 156.610446 54.561659 
L 156.658127 52.9816 
L 156.741256 52.9816 
L 156.800392 50.34817 
L 156.871092 50.34817 
L 156.92979 48.241426 
L 156.999969 48.241426 
L 157.011638 45.607995 
L 157.1279 45.607995 
L 157.208825 43.501251 
L 157.277891 43.501251 
L 157.312322 41.921193 
L 157.483465 41.921193 
L 157.528821 37.707704 
L 157.596634 37.707704 
L 157.596634 37.181018 
L 157.720277 37.181018 
L 157.720277 36.654332 
L 157.876384 36.654332 
L 157.98704 35.074274 
L 158.28235 35.074274 
L 158.390468 32.440843 
L 158.422772 32.440843 
L 158.422772 31.387471 
L 158.583406 31.387471 
L 158.583406 30.860785 
L 159.587904 30.860785 
L 159.587904 30.334099 
L 338.688 30.334099 
L 338.688 30.334099 
" style="fill:none;stroke:#000080;stroke-linecap:square;stroke-width:1.5;"/>
   </g>
   <g id="line2d_36">
    <defs>
     <path d="M 0 6 
C 1.591219 6 3.117479 5.367802 4.242641 4.242641 
C 5.367802 3.117479 6 1.591219 6 0 
C 6 -1.591219 5.367802 -3.117479 4.242641 -4.242641 
C 3.117479 -5.367802 1.591219 -6 0 -6 
C -1.591219 -6 -3.117479 -5.367802 -4.242641 -4.242641 
C -5.367802 -3.117479 -6 -1.591219 -6 0 
C -6 1.591219 -5.367802 3.117479 -4.242641 4.242641 
C -3.117479 5.367802 -1.591219 6 0 6 
z
" id="m5dca097d0a" style="stroke:#000080;stroke-width:1.5;"/>
    </defs>
    <g>
     <use style="fill-opacity:0;stroke:#000080;stroke-width:1.5;" x="151.373256" xlink:href="#m5dca097d0a" y="162.005619"/>
     <use style="fill-opacity:0;stroke:#000080;stroke-width:1.5;" x="159.587904" xlink:href="#m5dca097d0a" y="30.860785"/>
     <use style="fill-opacity:0;stroke:#000080;stroke-width:1.5;" x="159.587904" xlink:href="#m5dca097d0a" y="30.334099"/>
     <use style="fill-opacity:0;stroke:#000080;stroke-width:1.5;" x="159.587904" xlink:href="#m5dca097d0a" y="30.334099"/>
     <use style="fill-opacity:0;stroke:#000080;stroke-width:1.5;" x="338.688" xlink:href="#m5dca097d0a" y="30.334099"/>
    </g>
   </g>
   <g id="line2d_37">
    <path style="fill:none;stroke:#000080;stroke-linecap:square;stroke-width:1.5;"/>
    <g/>
   </g>
   <g id="line2d_38">
    <g>
     <use style="fill:#000080;stroke:#000080;" x="158.28235" xlink:href="#m04cdac5077" y="30.334099"/>
     <use style="fill:#000080;stroke:#000080;" x="158.28235" xlink:href="#m04cdac5077" y="30.334099"/>
    </g>
   </g>
   <g id="line2d_39">
    <path d="M 131.888878 298.944 
L 131.888878 297.363942 
L 133.975741 297.363942 
L 133.975741 296.837256 
L 134.106373 296.837256 
L 134.106373 296.31057 
L 135.035562 296.31057 
L 135.035562 295.783884 
L 135.199312 295.783884 
L 135.240011 294.730511 
L 135.401861 294.730511 
L 135.401861 293.677139 
L 135.602085 293.677139 
L 135.602085 293.150453 
L 135.839358 293.150453 
L 135.839358 292.623767 
L 136.034648 292.623767 
L 136.034648 292.097081 
L 136.342635 292.097081 
L 136.342635 291.570395 
L 136.979586 291.570395 
L 137.089613 290.517023 
L 137.126135 290.517023 
L 137.126135 289.990337 
L 137.48721 289.990337 
L 137.48721 289.463651 
L 137.910857 289.463651 
L 137.980475 288.410278 
L 138.256201 288.410278 
L 138.324456 287.356906 
L 138.392446 287.356906 
L 138.392446 286.83022 
L 138.561269 286.83022 
L 138.561269 286.303534 
L 138.728473 286.303534 
L 138.728473 285.776848 
L 139.285267 285.776848 
L 139.317473 284.723476 
L 139.69937 284.723476 
L 139.762215 282.616732 
L 139.824833 282.616732 
L 139.824833 282.090045 
L 140.042245 282.090045 
L 140.042245 281.563359 
L 140.64889 281.563359 
L 140.708409 276.823185 
L 140.767727 276.823185 
L 140.767727 276.296499 
L 140.944478 276.296499 
L 140.973763 275.243126 
L 141.148448 275.243126 
L 141.177393 274.189754 
L 141.378673 274.189754 
L 141.407239 273.136382 
L 141.634094 273.136382 
L 141.662245 272.08301 
L 141.858037 272.08301 
L 141.968939 270.502952 
L 142.051655 270.502952 
L 142.133981 269.449579 
L 142.324576 269.449579 
L 142.432559 268.396207 
L 142.778958 268.396207 
L 142.778958 267.869521 
L 143.11861 267.869521 
L 143.11861 267.342835 
L 143.324386 267.342835 
L 143.40093 264.709405 
L 143.703791 264.709405 
L 143.703791 264.182719 
L 143.902815 264.182719 
L 144.001481 263.129347 
L 144.026061 263.129347 
L 144.124035 262.075974 
L 144.148442 262.075974 
L 144.148442 261.022602 
L 144.366588 261.022602 
L 144.366588 260.495916 
L 144.53439 260.495916 
L 144.582038 258.915858 
L 144.77134 258.915858 
L 144.818346 256.809114 
L 144.981877 256.809114 
L 145.005114 255.755741 
L 145.235796 255.755741 
L 145.235796 254.702369 
L 145.440832 254.702369 
L 145.463466 253.648997 
L 145.576196 253.648997 
L 145.621085 252.595625 
L 145.732804 252.595625 
L 145.799493 251.542253 
L 145.998045 251.542253 
L 146.019967 250.488881 
L 146.150926 250.488881 
L 146.194362 248.382136 
L 146.388493 248.382136 
L 146.431341 247.328764 
L 146.580487 247.328764 
L 146.686244 245.22202 
L 146.728368 245.22202 
L 146.749392 243.641962 
L 146.854132 243.641962 
L 146.854132 242.588589 
L 146.999721 242.588589 
L 147.082371 241.008531 
L 147.164632 241.008531 
L 147.266916 238.375101 
L 147.429332 238.375101 
L 147.48985 237.321729 
L 147.590249 237.321729 
L 147.650212 234.688298 
L 147.749695 234.688298 
L 147.848613 231.001496 
L 147.888024 231.001496 
L 147.96658 228.894751 
L 148.122637 228.894751 
L 148.219468 227.314693 
L 148.23877 227.314693 
L 148.296548 223.627891 
L 148.392421 223.627891 
L 148.449693 219.414402 
L 148.563676 219.414402 
L 148.658095 215.200913 
L 148.733265 215.200913 
L 148.770728 211.514111 
L 148.938326 211.514111 
L 149.049169 208.353994 
L 149.085961 208.353994 
L 149.159312 207.300622 
L 149.305096 207.300622 
L 149.305096 206.24725 
L 149.449671 206.24725 
L 149.503579 203.613819 
L 149.593058 203.613819 
L 149.664311 200.453703 
L 149.752971 200.453703 
L 149.823575 197.293586 
L 149.876341 197.293586 
L 149.981398 195.186842 
L 150.033689 195.186842 
L 150.137805 194.13347 
L 150.172372 194.13347 
L 150.275665 190.973354 
L 150.344189 190.973354 
L 150.37835 189.919981 
L 150.531253 189.919981 
L 150.632448 183.599748 
L 150.649257 183.599748 
L 150.73306 180.439632 
L 150.766468 180.439632 
L 150.849711 175.699457 
L 150.982078 175.699457 
L 151.0643 170.432596 
L 151.097081 170.432596 
L 151.113448 169.379224 
L 151.324836 169.379224 
L 151.324836 168.852538 
L 151.437608 168.852538 
L 151.533692 167.27248 
L 151.549655 167.27248 
L 151.597455 163.585677 
L 151.676833 163.585677 
L 151.771612 158.845503 
L 151.834513 158.845503 
L 151.881541 157.79213 
L 151.959639 157.79213 
L 152.052897 155.685386 
L 152.09934 155.685386 
L 152.161072 151.998584 
L 152.222586 151.998584 
L 152.314453 148.838467 
L 152.344968 148.838467 
L 152.451351 143.04492 
L 152.466496 143.04492 
L 152.572143 139.358118 
L 152.632227 139.358118 
L 152.736878 137.778059 
L 152.781537 137.778059 
L 152.885298 133.564571 
L 152.914832 133.564571 
L 152.988446 129.351082 
L 153.032466 129.351082 
L 153.120174 125.137593 
L 153.149313 125.137593 
L 153.192929 123.030849 
L 153.265382 123.030849 
L 153.366312 120.924105 
L 153.380683 120.924105 
L 153.48095 116.18393 
L 153.566437 116.18393 
L 153.623196 114.603872 
L 153.778339 114.603872 
L 153.876352 110.390383 
L 153.918189 110.390383 
L 153.973817 108.810325 
L 154.043103 108.810325 
L 154.153391 104.07015 
L 154.167129 104.07015 
L 154.276638 100.383348 
L 154.331136 100.383348 
L 154.439623 96.169859 
L 154.493614 96.169859 
L 154.587699 95.116487 
L 154.614488 95.116487 
L 154.707925 92.483056 
L 154.747816 92.483056 
L 154.827327 88.796254 
L 154.866947 88.796254 
L 154.93278 86.162824 
L 154.985269 86.162824 
L 155.076745 79.315904 
L 155.102793 79.315904 
L 155.206599 77.20916 
L 155.219531 77.20916 
L 155.296925 72.468985 
L 155.373976 72.468985 
L 155.399584 65.09538 
L 155.514359 65.09538 
L 155.514359 64.568694 
L 155.641006 64.568694 
L 155.741666 61.408578 
L 155.779264 61.408578 
L 155.816782 59.82852 
L 155.904009 59.82852 
L 155.966049 57.195089 
L 156.027868 57.195089 
L 156.08947 54.034973 
L 156.187581 54.034973 
L 156.187581 53.508287 
L 156.333721 53.508287 
L 156.370066 51.401542 
L 156.454576 51.401542 
L 156.550661 49.294798 
L 156.634302 49.294798 
L 156.729404 46.661368 
L 156.776762 46.661368 
L 156.823991 45.081309 
L 156.953214 45.081309 
L 156.999969 41.921193 
L 157.081488 41.921193 
L 157.174189 39.287762 
L 157.289376 39.287762 
L 157.380981 37.707704 
L 157.540141 37.707704 
L 157.596634 34.020902 
L 157.787352 34.020902 
L 157.787352 32.967529 
L 157.942862 32.967529 
L 158.009087 31.914157 
L 158.086033 31.914157 
L 158.086033 31.387471 
L 158.206267 31.387471 
L 158.28235 30.334099 
L 338.688 30.334099 
L 338.688 30.334099 
" style="fill:none;stroke:#000080;stroke-linecap:square;stroke-width:1.5;"/>
   </g>
   <g id="line2d_40">
    <g>
     <use style="fill-opacity:0;stroke:#000080;stroke-width:1.5;" x="153.778339" xlink:href="#m5dca097d0a" y="113.5505"/>
     <use style="fill-opacity:0;stroke:#000080;stroke-width:1.5;" x="158.28235" xlink:href="#m5dca097d0a" y="30.860785"/>
     <use style="fill-opacity:0;stroke:#000080;stroke-width:1.5;" x="158.28235" xlink:href="#m5dca097d0a" y="30.334099"/>
     <use style="fill-opacity:0;stroke:#000080;stroke-width:1.5;" x="158.28235" xlink:href="#m5dca097d0a" y="30.334099"/>
     <use style="fill-opacity:0;stroke:#000080;stroke-width:1.5;" x="338.688" xlink:href="#m5dca097d0a" y="30.334099"/>
    </g>
   </g>
   <g id="line2d_41">
    <path style="fill:none;stroke:#000080;stroke-linecap:square;stroke-width:1.5;"/>
    <g/>
   </g>
   <g id="line2d_42">
    <defs>
     <path d="M 0 1.5 
C 0.397805 1.5 0.77937 1.341951 1.06066 1.06066 
C 1.341951 0.77937 1.5 0.397805 1.5 0 
C 1.5 -0.397805 1.341951 -0.77937 1.06066 -1.06066 
C 0.77937 -1.341951 0.397805 -1.5 0 -1.5 
C -0.397805 -1.5 -0.77937 -1.341951 -1.06066 -1.06066 
C -1.341951 -0.77937 -1.5 -0.397805 -1.5 0 
C -1.5 0.397805 -1.341951 0.77937 -1.06066 1.06066 
C -0.77937 1.341951 -0.397805 1.5 0 1.5 
z
" id="m2bd7f4a358" style="stroke:#ff00ff;"/>
    </defs>
    <g>
     <use style="fill:#ff00ff;stroke:#ff00ff;" x="162.712026" xlink:href="#m2bd7f4a358" y="30.334099"/>
     <use style="fill:#ff00ff;stroke:#ff00ff;" x="162.712026" xlink:href="#m2bd7f4a358" y="30.334099"/>
    </g>
   </g>
   <g id="line2d_43">
    <path d="M 134.661403 298.944 
L 134.661403 298.417314 
L 135.482227 298.417314 
L 135.482227 297.890628 
L 137.343676 297.890628 
L 137.343676 297.363942 
L 137.910857 297.363942 
L 137.910857 295.783884 
L 138.118883 295.783884 
L 138.118883 295.257197 
L 138.561269 295.257197 
L 138.628343 293.677139 
L 139.02546 293.677139 
L 139.123342 292.097081 
L 139.69937 292.097081 
L 139.69937 291.570395 
L 139.980403 291.570395 
L 139.980403 289.463651 
L 140.348205 289.463651 
L 140.378508 287.883592 
L 140.589166 287.883592 
L 140.678675 286.83022 
L 140.738093 286.83022 
L 140.738093 286.303534 
L 141.46423 286.303534 
L 141.46423 285.776848 
L 141.577657 285.776848 
L 141.634094 284.19679 
L 141.746425 284.19679 
L 141.774395 281.563359 
L 141.885829 281.563359 
L 141.885829 281.036673 
L 142.051655 281.036673 
L 142.106582 278.929929 
L 142.243147 278.929929 
L 142.297475 277.876557 
L 142.486301 277.876557 
L 142.539878 276.823185 
L 142.884173 276.823185 
L 142.884173 276.296499 
L 143.324386 276.296499 
L 143.375453 274.71644 
L 143.553018 274.71644 
L 143.628567 272.08301 
L 143.75376 272.08301 
L 143.778691 269.976266 
L 143.976867 269.976266 
L 143.976867 268.396207 
L 144.318346 268.396207 
L 144.318346 266.816149 
L 144.818346 266.816149 
L 144.818346 266.289463 
L 145.074639 266.289463 
L 145.074639 265.762777 
L 145.350002 265.762777 
L 145.350002 264.709405 
L 145.48607 264.709405 
L 145.48607 264.182719 
L 145.799493 264.182719 
L 145.888018 261.549288 
L 146.172658 261.549288 
L 146.172658 261.022602 
L 146.60169 261.022602 
L 146.644018 258.389172 
L 146.749392 258.389172 
L 146.749392 257.862486 
L 146.958248 257.862486 
L 146.958248 257.3358 
L 147.082371 257.3358 
L 147.185137 255.755741 
L 147.205618 255.755741 
L 147.205618 255.229055 
L 147.368603 255.229055 
L 147.368603 254.702369 
L 147.61026 254.702369 
L 147.670154 251.542253 
L 147.828875 251.542253 
L 147.828875 251.015567 
L 148.103206 251.015567 
L 148.103206 249.962195 
L 148.23877 249.962195 
L 148.334961 246.275392 
L 148.48777 246.275392 
L 148.582601 244.168648 
L 148.639252 244.168648 
L 148.733265 243.115275 
L 148.752007 243.115275 
L 148.78943 241.535217 
L 148.919783 241.535217 
L 149.012299 239.955159 
L 149.049169 239.955159 
L 149.141003 237.321729 
L 149.305096 237.321729 
L 149.323233 236.268356 
L 149.503579 236.268356 
L 149.610898 234.688298 
L 149.664311 234.688298 
L 149.752971 233.10824 
L 150.016276 233.10824 
L 150.033689 231.528182 
L 150.172372 231.528182 
L 150.241302 229.948123 
L 150.309961 229.948123 
L 150.412445 227.841379 
L 150.581924 227.841379 
L 150.649257 224.154577 
L 150.699587 224.154577 
L 150.799813 222.047832 
L 150.816462 222.047832 
L 150.816462 221.521146 
L 150.932558 221.521146 
L 151.015013 218.887716 
L 151.113448 218.887716 
L 151.195055 216.254285 
L 151.260066 216.254285 
L 151.357131 215.200913 
L 151.389366 215.200913 
L 151.469695 210.987425 
L 151.501723 210.987425 
L 151.597455 206.773936 
L 151.740076 206.773936 
L 151.740076 206.24725 
L 151.897188 206.24725 
L 152.00633 203.613819 
L 152.037389 203.613819 
L 152.037389 203.087133 
L 152.253262 203.087133 
L 152.344968 201.507075 
L 152.405838 201.507075 
L 152.496747 199.400331 
L 152.572143 199.400331 
L 152.647216 196.7669 
L 152.736878 196.7669 
L 152.840905 195.186842 
L 152.855715 195.186842 
L 152.914832 192.553412 
L 153.017805 192.553412 
L 153.120174 189.919981 
L 153.192929 189.919981 
L 153.236437 187.813237 
L 153.351929 187.813237 
L 153.452361 184.653121 
L 153.509492 184.653121 
L 153.580644 182.546376 
L 153.623196 182.546376 
L 153.707991 180.966318 
L 153.778339 180.966318 
L 153.862384 178.859574 
L 153.890309 178.859574 
L 153.973817 177.279515 
L 154.015422 177.279515 
L 154.112115 174.119399 
L 154.153391 174.119399 
L 154.235652 169.379224 
L 154.290278 169.379224 
L 154.371897 164.63905 
L 154.46664 164.63905 
L 154.507086 162.005619 
L 154.601099 162.005619 
L 154.68128 160.952247 
L 154.734529 160.952247 
L 154.840544 156.212072 
L 154.998366 156.212072 
L 155.102793 154.632014 
L 155.128803 154.632014 
L 155.232454 153.051956 
L 155.322646 153.051956 
L 155.412374 149.365153 
L 155.488919 149.365153 
L 155.577798 146.205037 
L 155.603109 146.205037 
L 155.678822 143.571606 
L 155.716556 143.571606 
L 155.779264 139.884804 
L 155.82927 139.884804 
L 155.916435 135.671315 
L 156.040206 135.671315 
L 156.077167 133.037885 
L 156.212023 133.037885 
L 156.32159 129.877768 
L 156.382164 129.877768 
L 156.406335 127.771024 
L 156.502685 127.771024 
L 156.586556 125.66428 
L 156.622378 125.66428 
L 156.729404 121.450791 
L 156.741256 121.450791 
L 156.847557 117.763988 
L 156.941506 117.763988 
L 157.034952 114.077186 
L 157.069866 114.077186 
L 157.15106 107.756953 
L 157.300853 107.756953 
L 157.380981 104.596836 
L 157.437991 104.596836 
L 157.472107 103.016778 
L 157.697862 103.016778 
L 157.798506 99.329976 
L 157.809652 99.329976 
L 157.920731 93.009743 
L 157.953917 93.009743 
L 158.0201 89.32294 
L 158.075062 89.32294 
L 158.173558 83.529393 
L 158.325678 83.529393 
L 158.401243 81.422649 
L 158.487203 81.422649 
L 158.551397 78.789218 
L 158.625992 78.789218 
L 158.721434 74.049044 
L 158.784773 74.049044 
L 158.795307 72.995672 
L 158.9003 72.995672 
L 158.973421 70.888927 
L 159.015067 70.888927 
L 159.098062 68.255497 
L 159.129083 68.255497 
L 159.129083 67.728811 
L 159.242359 67.728811 
L 159.303838 63.515322 
L 159.3651 63.515322 
L 159.446449 61.408578 
L 159.486982 61.408578 
L 159.567767 59.301833 
L 159.608019 59.301833 
L 159.698248 57.195089 
L 159.738201 57.195089 
L 159.847601 55.088345 
L 159.877318 55.088345 
L 159.985851 51.401542 
L 160.044768 51.401542 
L 160.132771 48.768112 
L 160.48041 48.768112 
L 160.48041 48.241426 
L 160.594766 48.241426 
L 160.689494 45.081309 
L 160.708377 45.081309 
L 160.708377 44.554623 
L 160.970627 44.554623 
L 161.017045 42.447879 
L 161.21983 42.447879 
L 161.329454 40.341135 
L 161.356752 40.341135 
L 161.447441 38.23439 
L 161.501628 38.23439 
L 161.582595 36.127646 
L 161.618459 36.127646 
L 161.689969 34.020902 
L 161.770068 34.020902 
L 161.832113 32.967529 
L 161.999419 32.967529 
L 161.999419 31.914157 
L 162.355069 31.914157 
L 162.355069 31.387471 
L 162.593851 31.387471 
L 162.593851 30.860785 
L 162.712026 30.860785 
L 162.712026 30.334099 
L 338.688 30.334099 
L 338.688 30.334099 
" style="fill:none;stroke:#ff00ff;stroke-linecap:square;stroke-width:1.5;"/>
   </g>
   <g id="line2d_44">
    <defs>
     <path d="M -0 8.485281 
L 5.091169 0 
L 0 -8.485281 
L -5.091169 -0 
z
" id="m77dc6441ea" style="stroke:#ff00ff;stroke-linejoin:miter;stroke-width:1.5;"/>
    </defs>
    <g>
     <use style="fill-opacity:0;stroke:#ff00ff;stroke-linejoin:miter;stroke-width:1.5;" x="154.371897" xlink:href="#m77dc6441ea" y="167.27248"/>
     <use style="fill-opacity:0;stroke:#ff00ff;stroke-linejoin:miter;stroke-width:1.5;" x="162.712026" xlink:href="#m77dc6441ea" y="30.860785"/>
     <use style="fill-opacity:0;stroke:#ff00ff;stroke-linejoin:miter;stroke-width:1.5;" x="162.712026" xlink:href="#m77dc6441ea" y="30.334099"/>
     <use style="fill-opacity:0;stroke:#ff00ff;stroke-linejoin:miter;stroke-width:1.5;" x="162.712026" xlink:href="#m77dc6441ea" y="30.334099"/>
     <use style="fill-opacity:0;stroke:#ff00ff;stroke-linejoin:miter;stroke-width:1.5;" x="338.688" xlink:href="#m77dc6441ea" y="30.334099"/>
    </g>
   </g>
   <g id="line2d_45">
    <path style="fill:none;stroke:#ff00ff;stroke-linecap:square;stroke-width:1.5;"/>
    <g/>
   </g>
   <g id="line2d_46">
    <defs>
     <path d="M 0 1.5 
C 0.397805 1.5 0.77937 1.341951 1.06066 1.06066 
C 1.341951 0.77937 1.5 0.397805 1.5 0 
C 1.5 -0.397805 1.341951 -0.77937 1.06066 -1.06066 
C 0.77937 -1.341951 0.397805 -1.5 0 -1.5 
C -0.397805 -1.5 -0.77937 -1.341951 -1.06066 -1.06066 
C -1.341951 -0.77937 -1.5 -0.397805 -1.5 0 
C -1.5 0.397805 -1.341951 0.77937 -1.06066 1.06066 
C -0.77937 1.341951 -0.397805 1.5 0 1.5 
z
" id="m368ab0303b" style="stroke:#ff0000;"/>
    </defs>
    <g>
     <use style="fill:#ff0000;stroke:#ff0000;" x="161.173949" xlink:href="#m368ab0303b" y="30.334099"/>
     <use style="fill:#ff0000;stroke:#ff0000;" x="161.173949" xlink:href="#m368ab0303b" y="30.334099"/>
    </g>
   </g>
   <g id="line2d_47">
    <path d="M 126.372183 298.944 
L 126.372183 297.890628 
L 127.165014 297.890628 
L 127.165014 297.363942 
L 130.127931 297.363942 
L 130.127931 296.837256 
L 130.45189 296.837256 
L 130.45189 295.783884 
L 130.874681 295.783884 
L 130.926816 294.730511 
L 131.338382 294.730511 
L 131.338382 294.203825 
L 132.084827 294.203825 
L 132.084827 293.150453 
L 132.565279 293.150453 
L 132.565279 292.623767 
L 132.80063 292.623767 
L 132.80063 292.097081 
L 133.533096 292.097081 
L 133.533096 291.570395 
L 134.106373 291.570395 
L 134.106373 291.043709 
L 134.534878 291.043709 
L 134.534878 290.517023 
L 134.703375 290.517023 
L 134.703375 289.990337 
L 134.953107 289.990337 
L 134.953107 289.463651 
L 135.401861 289.463651 
L 135.401861 288.936964 
L 135.878591 288.936964 
L 135.956794 287.883592 
L 136.227776 287.883592 
L 136.227776 287.356906 
L 136.68274 287.356906 
L 136.68274 286.83022 
L 137.053015 286.83022 
L 137.053015 285.776848 
L 137.198951 285.776848 
L 137.198951 285.250162 
L 137.70032 285.250162 
L 137.805906 284.19679 
L 137.84096 284.19679 
L 137.875944 283.143418 
L 137.980475 283.143418 
L 137.980475 282.616732 
L 138.118883 282.616732 
L 138.118883 282.090045 
L 138.290362 282.090045 
L 138.358484 281.036673 
L 138.493936 281.036673 
L 138.594838 277.876557 
L 138.661784 277.876557 
L 138.69516 276.296499 
L 139.058148 276.296499 
L 139.058148 275.769812 
L 139.188293 275.769812 
L 139.285267 274.189754 
L 139.445704 274.189754 
L 139.445704 273.663068 
L 139.69937 273.663068 
L 139.69937 272.609696 
L 140.134598 272.609696 
L 140.134598 272.08301 
L 140.469102 272.08301 
L 140.529237 268.922893 
L 140.708409 268.922893 
L 140.708409 268.396207 
L 140.826843 268.396207 
L 140.826843 267.869521 
L 140.973763 267.869521 
L 141.002999 265.762777 
L 141.20629 265.762777 
L 141.20629 265.236091 
L 141.350061 265.236091 
L 141.350061 264.182719 
L 141.941279 264.182719 
L 141.941279 263.129347 
L 142.106582 263.129347 
L 142.106582 262.60266 
L 142.324576 262.60266 
L 142.324576 261.549288 
L 142.486301 261.549288 
L 142.51311 260.495916 
L 142.726112 260.495916 
L 142.752555 258.915858 
L 143.014805 258.915858 
L 143.014805 258.389172 
L 143.247504 258.389172 
L 143.298796 257.3358 
L 143.47714 257.3358 
L 143.578237 254.702369 
L 143.728793 254.702369 
L 143.828447 253.648997 
L 143.853271 253.648997 
L 143.853271 253.122311 
L 143.976867 253.122311 
L 144.001481 251.542253 
L 144.148442 251.542253 
L 144.245733 249.962195 
L 144.269971 249.962195 
L 144.269971 249.435508 
L 144.700592 249.435508 
L 144.77134 248.382136 
L 144.958609 248.382136 
L 144.958609 246.802078 
L 145.304409 246.802078 
L 145.350002 244.695334 
L 145.508645 244.695334 
L 145.553708 243.115275 
L 145.688202 243.115275 
L 145.688202 241.008531 
L 146.08557 241.008531 
L 146.172658 238.375101 
L 146.259313 238.375101 
L 146.302479 235.74167 
L 146.516724 235.74167 
L 146.60169 232.581554 
L 146.707319 232.581554 
L 146.812312 229.421437 
L 146.833235 229.421437 
L 146.833235 227.841379 
L 147.061745 227.841379 
L 147.164632 226.261321 
L 147.226074 226.261321 
L 147.327999 223.101204 
L 147.368603 223.101204 
L 147.368603 222.574518 
L 147.690073 222.574518 
L 147.690073 222.047832 
L 147.907696 222.047832 
L 147.986163 219.414402 
L 148.025265 219.414402 
L 148.122637 217.834344 
L 148.219468 217.834344 
L 148.27731 216.254285 
L 148.468742 216.254285 
L 148.54473 215.200913 
L 148.601505 215.200913 
L 148.695721 212.567483 
L 148.733265 212.567483 
L 148.733265 212.040797 
L 148.845415 212.040797 
L 148.938326 210.460738 
L 148.993835 210.460738 
L 149.067574 204.667192 
L 149.159312 204.667192 
L 149.25057 202.033761 
L 149.359452 202.033761 
L 149.449671 200.980389 
L 149.503579 200.980389 
L 149.610898 197.820273 
L 149.646525 197.820273 
L 149.646525 197.293586 
L 149.805951 197.293586 
L 149.85877 195.186842 
L 149.928949 195.186842 
L 149.998846 192.553412 
L 150.051085 192.553412 
L 150.103169 187.286551 
L 150.172372 187.286551 
L 150.206871 185.179807 
L 150.395406 185.179807 
L 150.463462 182.01969 
L 150.54816 182.01969 
L 150.615623 179.38626 
L 150.682827 179.38626 
L 150.766468 175.172771 
L 150.799813 175.172771 
L 150.799813 174.646085 
L 150.91602 174.646085 
L 150.982078 172.539341 
L 151.047887 172.539341 
L 151.113448 167.27248 
L 151.178764 167.27248 
L 151.260066 165.692422 
L 151.357131 165.692422 
L 151.437608 164.112363 
L 151.517715 164.112363 
L 151.61336 162.005619 
L 151.62925 162.005619 
L 151.740076 159.898875 
L 151.787359 159.898875 
L 151.897188 157.265444 
L 151.912822 157.265444 
L 152.00633 153.578642 
L 152.068392 153.578642 
L 152.161072 150.945211 
L 152.253262 150.945211 
L 152.344968 147.785095 
L 152.496747 147.785095 
L 152.55709 144.098292 
L 152.632227 144.098292 
L 152.677155 141.991548 
L 152.766663 141.991548 
L 152.766663 141.464862 
L 152.885298 141.464862 
L 152.988446 138.304745 
L 153.076375 138.304745 
L 153.163864 134.617943 
L 153.207444 134.617943 
L 153.308709 131.457826 
L 153.337534 131.457826 
L 153.40939 129.877768 
L 153.466662 129.877768 
L 153.552218 128.29771 
L 153.580644 128.29771 
L 153.651507 126.190966 
L 153.722083 126.190966 
L 153.806399 124.084221 
L 153.834414 124.084221 
L 153.904255 119.344047 
L 153.959927 119.344047 
L 154.070741 114.603872 
L 154.125885 114.603872 
L 154.208275 111.970441 
L 154.262987 111.970441 
L 154.371897 108.283639 
L 154.385464 108.283639 
L 154.480132 103.016778 
L 154.56087 103.016778 
L 154.56087 102.490092 
L 154.68128 102.490092 
L 154.787617 100.383348 
L 154.800864 100.383348 
L 154.89331 97.749917 
L 154.919633 97.749917 
L 155.024532 95.643173 
L 155.0376 95.643173 
L 155.128803 91.95637 
L 155.154773 91.95637 
L 155.258271 87.742882 
L 155.296925 87.742882 
L 155.399584 84.582765 
L 155.412374 84.582765 
L 155.514359 79.842591 
L 155.590458 79.842591 
L 155.678822 75.102416 
L 155.716556 75.102416 
L 155.741666 74.049044 
L 155.854218 74.049044 
L 155.928852 69.308869 
L 156.040206 69.308869 
L 156.114049 66.148752 
L 156.212023 66.148752 
L 156.30945 62.46195 
L 156.406335 62.46195 
L 156.466616 61.408578 
L 156.705677 61.408578 
L 156.788581 58.775147 
L 156.859328 58.775147 
L 156.92979 54.561659 
L 156.988292 54.561659 
L 157.093102 50.874856 
L 157.277891 50.874856 
L 157.277891 49.821484 
L 157.403807 49.821484 
L 157.44937 48.768112 
L 157.540141 48.768112 
L 157.630442 47.188054 
L 157.720277 47.188054 
L 157.787352 45.607995 
L 158.086033 45.607995 
L 158.086033 44.554623 
L 158.228039 44.554623 
L 158.238915 42.974565 
L 158.347301 42.974565 
L 158.347301 42.447879 
L 158.551397 42.447879 
L 158.647247 39.287762 
L 158.774233 39.287762 
L 158.784773 38.23439 
L 158.942121 38.23439 
L 158.942121 37.707704 
L 159.273126 37.707704 
L 159.344703 36.127646 
L 159.39565 36.127646 
L 159.39565 35.60096 
L 159.708245 35.60096 
L 159.708245 34.547588 
L 159.857512 34.547588 
L 159.966168 33.494215 
L 160.278464 33.494215 
L 160.278464 31.914157 
L 161.017045 31.914157 
L 161.017045 30.860785 
L 161.173949 30.860785 
L 161.173949 30.334099 
L 338.688 30.334099 
L 338.688 30.334099 
" style="fill:none;stroke:#ff0000;stroke-linecap:square;stroke-width:1.5;"/>
   </g>
   <g id="line2d_48">
    <defs>
     <path d="M 0 -6 
L -5.196152 -3 
L -5.196152 3 
L -0 6 
L 5.196152 3 
L 5.196152 -3 
z
" id="mbc3491e191" style="stroke:#ff0000;stroke-linejoin:miter;stroke-width:1.5;"/>
    </defs>
    <g>
     <use style="fill-opacity:0;stroke:#ff0000;stroke-linejoin:miter;stroke-width:1.5;" x="153.876352" xlink:href="#mbc3491e191" y="122.504163"/>
     <use style="fill-opacity:0;stroke:#ff0000;stroke-linejoin:miter;stroke-width:1.5;" x="161.173949" xlink:href="#mbc3491e191" y="30.860785"/>
     <use style="fill-opacity:0;stroke:#ff0000;stroke-linejoin:miter;stroke-width:1.5;" x="161.173949" xlink:href="#mbc3491e191" y="30.334099"/>
     <use style="fill-opacity:0;stroke:#ff0000;stroke-linejoin:miter;stroke-width:1.5;" x="161.173949" xlink:href="#mbc3491e191" y="30.334099"/>
     <use style="fill-opacity:0;stroke:#ff0000;stroke-linejoin:miter;stroke-width:1.5;" x="338.688" xlink:href="#mbc3491e191" y="30.334099"/>
    </g>
   </g>
   <g id="line2d_49">
    <path style="fill:none;stroke:#ff0000;stroke-linecap:square;stroke-width:1.5;"/>
    <g/>
   </g>
   <g id="line2d_50">
    <defs>
     <path d="M 0 1.5 
C 0.397805 1.5 0.77937 1.341951 1.06066 1.06066 
C 1.341951 0.77937 1.5 0.397805 1.5 0 
C 1.5 -0.397805 1.341951 -0.77937 1.06066 -1.06066 
C 0.77937 -1.341951 0.397805 -1.5 0 -1.5 
C -0.397805 -1.5 -0.77937 -1.341951 -1.06066 -1.06066 
C -1.341951 -0.77937 -1.5 -0.397805 -1.5 0 
C -1.5 0.397805 -1.341951 0.77937 -1.06066 1.06066 
C -0.77937 1.341951 -0.397805 1.5 0 1.5 
z
" id="m86ee71b8f7" style="stroke:#ff7500;"/>
    </defs>
    <g>
     <use style="fill:#ff7500;stroke:#ff7500;" x="158.983842" xlink:href="#m86ee71b8f7" y="30.334099"/>
     <use style="fill:#ff7500;stroke:#ff7500;" x="158.983842" xlink:href="#m86ee71b8f7" y="30.334099"/>
    </g>
   </g>
   <g id="line2d_51">
    <path d="M 129.404667 298.944 
L 129.404667 298.417314 
L 130.344571 298.417314 
L 130.344571 297.890628 
L 131.790072 297.890628 
L 131.790072 297.363942 
L 132.470242 297.363942 
L 132.470242 296.837256 
L 132.612604 296.837256 
L 132.612604 295.783884 
L 132.80063 295.783884 
L 132.80063 295.257197 
L 133.443203 295.257197 
L 133.443203 294.730511 
L 134.492498 294.730511 
L 134.492498 294.203825 
L 134.870259 294.203825 
L 134.870259 293.677139 
L 135.280614 293.677139 
L 135.280614 292.623767 
L 135.44209 292.623767 
L 135.44209 292.097081 
L 135.878591 292.097081 
L 135.956794 291.043709 
L 136.227776 291.043709 
L 136.227776 290.517023 
L 136.456742 290.517023 
L 136.456742 289.990337 
L 136.979586 289.990337 
L 137.089613 287.883592 
L 137.162581 287.883592 
L 137.162581 287.356906 
L 137.48721 287.356906 
L 137.48721 286.83022 
L 137.664982 286.83022 
L 137.664982 285.250162 
L 138.118883 285.250162 
L 138.118883 284.723476 
L 138.256201 284.723476 
L 138.358484 283.143418 
L 138.661784 283.143418 
L 138.661784 282.090045 
L 138.89409 282.090045 
L 138.927025 281.036673 
L 139.123342 281.036673 
L 139.220677 279.983301 
L 139.253002 279.983301 
L 139.349619 277.876557 
L 139.445704 277.876557 
L 139.445704 277.349871 
L 139.572998 277.349871 
L 139.572998 276.296499 
L 139.69937 276.296499 
L 139.69937 275.243126 
L 139.887228 275.243126 
L 139.887228 274.71644 
L 140.073083 274.71644 
L 140.073083 274.189754 
L 140.348205 274.189754 
L 140.438956 271.556324 
L 140.469102 271.556324 
L 140.529237 270.502952 
L 140.708409 270.502952 
L 140.708409 269.976266 
L 140.856326 269.976266 
L 140.856326 269.449579 
L 141.090414 269.449579 
L 141.148448 268.396207 
L 141.350061 268.396207 
L 141.378673 266.816149 
L 141.46423 266.816149 
L 141.492656 264.182719 
L 141.605898 264.182719 
L 141.662245 263.129347 
L 141.71841 263.129347 
L 141.71841 262.60266 
L 141.830201 262.60266 
L 141.941279 261.549288 
L 142.051655 261.549288 
L 142.133981 259.96923 
L 142.432559 259.96923 
L 142.432559 259.442544 
L 142.673105 259.442544 
L 142.699628 258.389172 
L 142.884173 258.389172 
L 142.884173 257.862486 
L 143.040814 257.862486 
L 143.144465 255.755741 
L 143.273169 255.755741 
L 143.375453 254.702369 
L 143.502469 254.702369 
L 143.527762 252.595625 
L 143.75376 252.595625 
L 143.803587 251.542253 
L 143.927534 251.542253 
L 143.927534 251.015567 
L 144.050606 251.015567 
L 144.099593 249.435508 
L 144.245733 249.435508 
L 144.342484 248.382136 
L 144.438701 248.382136 
L 144.510517 246.802078 
L 144.55823 246.802078 
L 144.605813 245.748706 
L 144.77134 245.748706 
L 144.77134 245.22202 
L 144.91198 245.22202 
L 145.005114 243.641962 
L 145.074639 243.641962 
L 145.166911 242.061903 
L 145.212864 242.061903 
L 145.281568 240.481845 
L 145.440832 240.481845 
L 145.463466 238.375101 
L 145.576196 238.375101 
L 145.643486 237.321729 
L 145.777292 237.321729 
L 145.865929 235.214984 
L 145.932112 235.214984 
L 145.932112 234.161612 
L 146.06373 234.161612 
L 146.172658 232.581554 
L 146.216039 232.581554 
L 146.216039 232.054868 
L 146.388493 232.054868 
L 146.388493 231.528182 
L 146.707319 231.528182 
L 146.77039 229.421437 
L 146.833235 229.421437 
L 146.895853 228.368065 
L 146.999721 228.368065 
L 146.999721 227.841379 
L 147.144103 227.841379 
L 147.226074 226.788007 
L 147.287301 226.788007 
L 147.388869 223.101204 
L 147.48985 223.101204 
L 147.530079 221.521146 
L 147.670154 221.521146 
L 147.729844 219.414402 
L 147.888024 219.414402 
L 147.986163 217.834344 
L 148.044783 217.834344 
L 148.083753 215.727599 
L 148.161434 215.727599 
L 148.258051 212.040797 
L 148.27731 212.040797 
L 148.27731 211.514111 
L 148.392421 211.514111 
L 148.48777 208.353994 
L 148.563676 208.353994 
L 148.639252 206.24725 
L 148.695721 206.24725 
L 148.770728 204.140506 
L 148.845415 204.140506 
L 148.938326 202.033761 
L 149.067574 202.033761 
L 149.159312 199.927017 
L 149.232356 199.927017 
L 149.305096 197.820273 
L 149.359452 197.820273 
L 149.395596 196.240214 
L 149.503579 196.240214 
L 149.610898 192.553412 
L 149.646525 192.553412 
L 149.735275 187.813237 
L 149.823575 187.813237 
L 149.893895 183.599748 
L 149.946449 183.599748 
L 150.033689 182.01969 
L 150.085825 182.01969 
L 150.172372 180.439632 
L 150.258492 180.439632 
L 150.292822 178.859574 
L 150.37835 178.859574 
L 150.480434 175.699457 
L 150.49739 175.699457 
L 150.51433 174.119399 
L 150.615623 174.119399 
L 150.682827 173.066027 
L 150.73306 173.066027 
L 150.799813 167.27248 
L 150.882897 167.27248 
L 150.982078 165.165736 
L 151.015013 165.165736 
L 151.113448 163.585677 
L 151.1298 163.585677 
L 151.1298 162.005619 
L 151.260066 162.005619 
L 151.357131 156.738758 
L 151.389366 156.738758 
L 151.437608 151.471897 
L 151.501723 151.471897 
L 151.549655 148.311781 
L 151.62925 148.311781 
L 151.724287 145.678351 
L 151.771612 145.678351 
L 151.818809 144.624978 
L 151.928441 144.624978 
L 151.975216 142.518234 
L 152.068392 142.518234 
L 152.145659 140.41149 
L 152.222586 140.41149 
L 152.314453 135.144629 
L 152.344968 135.144629 
L 152.451351 129.877768 
L 152.55709 129.877768 
L 152.662192 126.190966 
L 152.677155 126.190966 
L 152.707042 124.610907 
L 152.811246 124.610907 
L 152.914832 120.924105 
L 152.959038 120.924105 
L 153.032466 117.763988 
L 153.120174 117.763988 
L 153.221946 114.077186 
L 153.250915 114.077186 
L 153.337534 111.443755 
L 153.380683 111.443755 
L 153.466662 106.703581 
L 153.523746 106.703581 
L 153.623196 101.43672 
L 153.722083 101.43672 
L 153.820412 97.223231 
L 153.890309 97.223231 
L 153.987696 91.429684 
L 154.001564 91.429684 
L 154.056927 88.796254 
L 154.125885 88.796254 
L 154.235652 85.109451 
L 154.303908 85.109451 
L 154.385464 84.056079 
L 154.439623 84.056079 
L 154.520548 82.476021 
L 154.601099 82.476021 
L 154.707925 80.895963 
L 154.734529 80.895963 
L 154.840544 76.682474 
L 154.866947 76.682474 
L 154.89331 75.102416 
L 154.998366 75.102416 
L 155.102793 71.942299 
L 155.154773 71.942299 
L 155.232454 68.782183 
L 155.335493 68.782183 
L 155.34833 67.202125 
L 155.476185 67.202125 
L 155.577798 64.042008 
L 155.641006 64.042008 
L 155.716556 60.881892 
L 155.791779 60.881892 
L 155.86668 57.721775 
L 155.97843 57.721775 
L 156.003167 55.615031 
L 156.101764 55.615031 
L 156.101764 55.088345 
L 156.30945 55.088345 
L 156.394253 52.9816 
L 156.430472 52.9816 
L 156.454576 51.401542 
L 156.586556 51.401542 
L 156.646219 49.821484 
L 156.753099 49.821484 
L 156.847557 47.188054 
L 156.964915 47.188054 
L 156.999969 46.134681 
L 157.116308 46.134681 
L 157.197287 45.081309 
L 157.277891 45.081309 
L 157.358125 43.501251 
L 157.426604 43.501251 
L 157.517493 39.814448 
L 157.58535 39.814448 
L 157.686643 36.654332 
L 157.720277 36.654332 
L 157.77619 34.547588 
L 157.887482 34.547588 
L 157.887482 34.020902 
L 158.238915 34.020902 
L 158.238915 33.494215 
L 158.358103 33.494215 
L 158.412011 32.440843 
L 158.540715 32.440843 
L 158.540715 31.914157 
L 158.67908 31.914157 
L 158.67908 31.387471 
L 158.973421 31.387471 
L 158.983842 30.334099 
L 338.688 30.334099 
L 338.688 30.334099 
" style="fill:none;stroke:#ff7500;stroke-linecap:square;stroke-width:1.5;"/>
   </g>
   <g id="line2d_52">
    <defs>
     <path d="M 0 -6 
L -1.347084 -1.854102 
L -5.706339 -1.854102 
L -2.179628 0.708204 
L -3.526712 4.854102 
L -0 2.291796 
L 3.526712 4.854102 
L 2.179628 0.708204 
L 5.706339 -1.854102 
L 1.347084 -1.854102 
z
" id="m5a7a86906b" style="stroke:#ff7500;stroke-linejoin:bevel;stroke-width:1.5;"/>
    </defs>
    <g>
     <use style="fill-opacity:0;stroke:#ff7500;stroke-linejoin:bevel;stroke-width:1.5;" x="151.437608" xlink:href="#m5a7a86906b" y="151.471897"/>
     <use style="fill-opacity:0;stroke:#ff7500;stroke-linejoin:bevel;stroke-width:1.5;" x="158.983842" xlink:href="#m5a7a86906b" y="30.860785"/>
     <use style="fill-opacity:0;stroke:#ff7500;stroke-linejoin:bevel;stroke-width:1.5;" x="158.983842" xlink:href="#m5a7a86906b" y="30.334099"/>
     <use style="fill-opacity:0;stroke:#ff7500;stroke-linejoin:bevel;stroke-width:1.5;" x="158.983842" xlink:href="#m5a7a86906b" y="30.334099"/>
     <use style="fill-opacity:0;stroke:#ff7500;stroke-linejoin:bevel;stroke-width:1.5;" x="338.688" xlink:href="#m5a7a86906b" y="30.334099"/>
    </g>
   </g>
   <g id="line2d_53">
    <path style="fill:none;stroke:#ff7500;stroke-linecap:square;stroke-width:1.5;"/>
    <g/>
   </g>
   <g id="line2d_54">
    <path d="M 338.688 30.334099 
L 369.60768 293.571802 
" style="fill:none;stroke:#ff00ff;stroke-linecap:square;stroke-width:1.5;"/>
    <g>
     <use style="fill-opacity:0;stroke:#ff00ff;stroke-linejoin:miter;stroke-width:1.5;" x="338.688" xlink:href="#m77dc6441ea" y="30.334099"/>
     <use style="fill-opacity:0;stroke:#ff00ff;stroke-linejoin:miter;stroke-width:1.5;" x="369.60768" xlink:href="#m77dc6441ea" y="293.571802"/>
    </g>
   </g>
   <g id="line2d_55">
    <path d="M 338.688 30.334099 
L 369.60768 241.998701 
" style="fill:none;stroke:#ff0000;stroke-linecap:square;stroke-width:1.5;"/>
    <g>
     <use style="fill-opacity:0;stroke:#ff0000;stroke-linejoin:miter;stroke-width:1.5;" x="338.688" xlink:href="#mbc3491e191" y="30.334099"/>
     <use style="fill-opacity:0;stroke:#ff0000;stroke-linejoin:miter;stroke-width:1.5;" x="369.60768" xlink:href="#mbc3491e191" y="241.998701"/>
    </g>
   </g>
   <g id="line2d_56">
    <path d="M 338.688 30.334099 
L 369.60768 190.4256 
" style="fill:none;stroke:#000080;stroke-linecap:square;stroke-width:1.5;"/>
    <g>
     <use style="fill-opacity:0;stroke:#000080;stroke-width:1.5;" x="338.688" xlink:href="#m5dca097d0a" y="30.334099"/>
     <use style="fill-opacity:0;stroke:#000080;stroke-width:1.5;" x="369.60768" xlink:href="#m5dca097d0a" y="190.4256"/>
    </g>
   </g>
   <g id="line2d_57">
    <path d="M 338.688 30.334099 
L 369.60768 138.852499 
" style="fill:none;stroke:#ff7500;stroke-linecap:square;stroke-width:1.5;"/>
    <g>
     <use style="fill-opacity:0;stroke:#ff7500;stroke-linejoin:bevel;stroke-width:1.5;" x="338.688" xlink:href="#m5a7a86906b" y="30.334099"/>
     <use style="fill-opacity:0;stroke:#ff7500;stroke-linejoin:bevel;stroke-width:1.5;" x="369.60768" xlink:href="#m5a7a86906b" y="138.852499"/>
    </g>
   </g>
   <g id="line2d_58">
    <path d="M 338.688 30.334099 
L 369.60768 87.279398 
" style="fill:none;stroke:#000080;stroke-linecap:square;stroke-width:1.5;"/>
    <g>
     <use style="fill-opacity:0;stroke:#000080;stroke-width:1.5;" x="338.688" xlink:href="#m5dca097d0a" y="30.334099"/>
     <use style="fill-opacity:0;stroke:#000080;stroke-width:1.5;" x="369.60768" xlink:href="#m5dca097d0a" y="87.279398"/>
    </g>
   </g>
   <g id="line2d_59">
    <path d="M 338.688 298.944 
L 338.688 30.334099 
" style="fill:none;stroke:#000000;stroke-linecap:square;stroke-width:1.5;"/>
   </g>
   <g id="patch_3">
    <path d="M 57.6 298.944 
L 57.6 27.648 
" style="fill:none;stroke:#000000;stroke-linecap:square;stroke-linejoin:miter;stroke-width:0.8;"/>
   </g>
   <g id="patch_4">
    <path d="M 338.688 298.944 
L 338.688 27.648 
" style="fill:none;stroke:#000000;stroke-linecap:square;stroke-linejoin:miter;stroke-width:0.8;"/>
   </g>
   <g id="patch_5">
    <path d="M 57.6 298.944 
L 338.688 298.944 
" style="fill:none;stroke:#000000;stroke-linecap:square;stroke-linejoin:miter;stroke-width:0.8;"/>
   </g>
   <g id="patch_6">
    <path d="M 57.6 27.648 
L 338.688 27.648 
" style="fill:none;stroke:#000000;stroke-linecap:square;stroke-linejoin:miter;stroke-width:0.8;"/>
   </g>
   <g id="text_13">
    <!-- 025s-2e4 -->
    <defs>
     <path d="M 10.796875 72.90625 
L 49.515625 72.90625 
L 49.515625 64.59375 
L 19.828125 64.59375 
L 19.828125 46.734375 
Q 21.96875 47.46875 24.109375 47.828125 
Q 26.265625 48.1875 28.421875 48.1875 
Q 40.625 48.1875 47.75 41.5 
Q 54.890625 34.8125 54.890625 23.390625 
Q 54.890625 11.625 47.5625 5.09375 
Q 40.234375 -1.421875 26.90625 -1.421875 
Q 22.3125 -1.421875 17.546875 -0.640625 
Q 12.796875 0.140625 7.71875 1.703125 
L 7.71875 11.625 
Q 12.109375 9.234375 16.796875 8.0625 
Q 21.484375 6.890625 26.703125 6.890625 
Q 35.15625 6.890625 40.078125 11.328125 
Q 45.015625 15.765625 45.015625 23.390625 
Q 45.015625 31 40.078125 35.4375 
Q 35.15625 39.890625 26.703125 39.890625 
Q 22.75 39.890625 18.8125 39.015625 
Q 14.890625 38.140625 10.796875 36.28125 
z
" id="DejaVuSans-53"/>
    </defs>
    <g transform="translate(375.22944 298.262739)scale(0.17 -0.17)">
     <use xlink:href="#DejaVuSans-48"/>
     <use x="63.623047" xlink:href="#DejaVuSans-50"/>
     <use x="127.246094" xlink:href="#DejaVuSans-53"/>
     <use x="190.869141" xlink:href="#DejaVuSans-115"/>
     <use x="242.96875" xlink:href="#DejaVuSans-45"/>
     <use x="279.052734" xlink:href="#DejaVuSans-50"/>
     <use x="342.675781" xlink:href="#DejaVuSans-101"/>
     <use x="404.199219" xlink:href="#DejaVuSans-52"/>
    </g>
   </g>
   <g id="text_14">
    <!-- 050s-2e4 -->
    <g transform="translate(375.22944 246.689638)scale(0.17 -0.17)">
     <use xlink:href="#DejaVuSans-48"/>
     <use x="63.623047" xlink:href="#DejaVuSans-53"/>
     <use x="127.246094" xlink:href="#DejaVuSans-48"/>
     <use x="190.869141" xlink:href="#DejaVuSans-115"/>
     <use x="242.96875" xlink:href="#DejaVuSans-45"/>
     <use x="279.052734" xlink:href="#DejaVuSans-50"/>
     <use x="342.675781" xlink:href="#DejaVuSans-101"/>
     <use x="404.199219" xlink:href="#DejaVuSans-52"/>
    </g>
   </g>
   <g id="text_15">
    <!-- 100-2e4 -->
    <g transform="translate(375.22944 195.116537)scale(0.17 -0.17)">
     <use xlink:href="#DejaVuSans-49"/>
     <use x="63.623047" xlink:href="#DejaVuSans-48"/>
     <use x="127.246094" xlink:href="#DejaVuSans-48"/>
     <use x="190.869141" xlink:href="#DejaVuSans-45"/>
     <use x="226.953125" xlink:href="#DejaVuSans-50"/>
     <use x="290.576172" xlink:href="#DejaVuSans-101"/>
     <use x="352.099609" xlink:href="#DejaVuSans-52"/>
    </g>
   </g>
   <g id="text_16">
    <!-- 075s-2e4 -->
    <defs>
     <path d="M 8.203125 72.90625 
L 55.078125 72.90625 
L 55.078125 68.703125 
L 28.609375 0 
L 18.3125 0 
L 43.21875 64.59375 
L 8.203125 64.59375 
z
" id="DejaVuSans-55"/>
    </defs>
    <g transform="translate(375.22944 143.543437)scale(0.17 -0.17)">
     <use xlink:href="#DejaVuSans-48"/>
     <use x="63.623047" xlink:href="#DejaVuSans-55"/>
     <use x="127.246094" xlink:href="#DejaVuSans-53"/>
     <use x="190.869141" xlink:href="#DejaVuSans-115"/>
     <use x="242.96875" xlink:href="#DejaVuSans-45"/>
     <use x="279.052734" xlink:href="#DejaVuSans-50"/>
     <use x="342.675781" xlink:href="#DejaVuSans-101"/>
     <use x="404.199219" xlink:href="#DejaVuSans-52"/>
    </g>
   </g>
   <g id="text_17">
    <!-- 100-1e5 -->
    <g transform="translate(375.22944 91.970336)scale(0.17 -0.17)">
     <use xlink:href="#DejaVuSans-49"/>
     <use x="63.623047" xlink:href="#DejaVuSans-48"/>
     <use x="127.246094" xlink:href="#DejaVuSans-48"/>
     <use x="190.869141" xlink:href="#DejaVuSans-45"/>
     <use x="226.953125" xlink:href="#DejaVuSans-49"/>
     <use x="290.576172" xlink:href="#DejaVuSans-101"/>
     <use x="352.099609" xlink:href="#DejaVuSans-53"/>
    </g>
   </g>
   <g id="text_18">
    <!-- best 2009 -->
    <defs>
     <path d="M 48.6875 27.296875 
Q 48.6875 37.203125 44.609375 42.84375 
Q 40.53125 48.484375 33.40625 48.484375 
Q 26.265625 48.484375 22.1875 42.84375 
Q 18.109375 37.203125 18.109375 27.296875 
Q 18.109375 17.390625 22.1875 11.75 
Q 26.265625 6.109375 33.40625 6.109375 
Q 40.53125 6.109375 44.609375 11.75 
Q 48.6875 17.390625 48.6875 27.296875 
z
M 18.109375 46.390625 
Q 20.953125 51.265625 25.265625 53.625 
Q 29.59375 56 35.59375 56 
Q 45.5625 56 51.78125 48.09375 
Q 58.015625 40.1875 58.015625 27.296875 
Q 58.015625 14.40625 51.78125 6.484375 
Q 45.5625 -1.421875 35.59375 -1.421875 
Q 29.59375 -1.421875 25.265625 0.953125 
Q 20.953125 3.328125 18.109375 8.203125 
L 18.109375 0 
L 9.078125 0 
L 9.078125 75.984375 
L 18.109375 75.984375 
z
" id="DejaVuSans-98"/>
     <path d="M 10.984375 1.515625 
L 10.984375 10.5 
Q 14.703125 8.734375 18.5 7.8125 
Q 22.3125 6.890625 25.984375 6.890625 
Q 35.75 6.890625 40.890625 13.453125 
Q 46.046875 20.015625 46.78125 33.40625 
Q 43.953125 29.203125 39.59375 26.953125 
Q 35.25 24.703125 29.984375 24.703125 
Q 19.046875 24.703125 12.671875 31.3125 
Q 6.296875 37.9375 6.296875 49.421875 
Q 6.296875 60.640625 12.9375 67.421875 
Q 19.578125 74.21875 30.609375 74.21875 
Q 43.265625 74.21875 49.921875 64.515625 
Q 56.59375 54.828125 56.59375 36.375 
Q 56.59375 19.140625 48.40625 8.859375 
Q 40.234375 -1.421875 26.421875 -1.421875 
Q 22.703125 -1.421875 18.890625 -0.6875 
Q 15.09375 0.046875 10.984375 1.515625 
z
M 30.609375 32.421875 
Q 37.25 32.421875 41.125 36.953125 
Q 45.015625 41.5 45.015625 49.421875 
Q 45.015625 57.28125 41.125 61.84375 
Q 37.25 66.40625 30.609375 66.40625 
Q 23.96875 66.40625 20.09375 61.84375 
Q 16.21875 57.28125 16.21875 49.421875 
Q 16.21875 41.5 20.09375 36.953125 
Q 23.96875 32.421875 30.609375 32.421875 
z
" id="DejaVuSans-57"/>
    </defs>
    <g transform="translate(375.22944 40.397235)scale(0.17 -0.17)">
     <use xlink:href="#DejaVuSans-98"/>
     <use x="63.476562" xlink:href="#DejaVuSans-101"/>
     <use x="125" xlink:href="#DejaVuSans-115"/>
     <use x="177.099609" xlink:href="#DejaVuSans-116"/>
     <use x="216.308594" xlink:href="#DejaVuSans-32"/>
     <use x="248.095703" xlink:href="#DejaVuSans-50"/>
     <use x="311.71875" xlink:href="#DejaVuSans-48"/>
     <use x="375.341797" xlink:href="#DejaVuSans-48"/>
     <use x="438.964844" xlink:href="#DejaVuSans-57"/>
    </g>
   </g>
   <g id="text_19">
    <!-- bbob f10, 5-D -->
    <defs>
     <path d="M 19.671875 64.796875 
L 19.671875 8.109375 
L 31.59375 8.109375 
Q 46.6875 8.109375 53.6875 14.9375 
Q 60.6875 21.78125 60.6875 36.53125 
Q 60.6875 51.171875 53.6875 57.984375 
Q 46.6875 64.796875 31.59375 64.796875 
z
M 9.8125 72.90625 
L 30.078125 72.90625 
Q 51.265625 72.90625 61.171875 64.09375 
Q 71.09375 55.28125 71.09375 36.53125 
Q 71.09375 17.671875 61.125 8.828125 
Q 51.171875 0 30.078125 0 
L 9.8125 0 
z
" id="DejaVuSans-68"/>
    </defs>
    <g transform="translate(60.41088 38.111366)scale(0.102 -0.102)">
     <use xlink:href="#DejaVuSans-98"/>
     <use x="63.476562" xlink:href="#DejaVuSans-98"/>
     <use x="126.953125" xlink:href="#DejaVuSans-111"/>
     <use x="188.134766" xlink:href="#DejaVuSans-98"/>
     <use x="251.611328" xlink:href="#DejaVuSans-32"/>
     <use x="283.398438" xlink:href="#DejaVuSans-102"/>
     <use x="318.603516" xlink:href="#DejaVuSans-49"/>
     <use x="382.226562" xlink:href="#DejaVuSans-48"/>
     <use x="445.849609" xlink:href="#DejaVuSans-44"/>
     <use x="477.636719" xlink:href="#DejaVuSans-32"/>
     <use x="509.423828" xlink:href="#DejaVuSans-53"/>
     <use x="573.046875" xlink:href="#DejaVuSans-45"/>
     <use x="609.130859" xlink:href="#DejaVuSans-68"/>
    </g>
    <!-- 51 targets: 100..1e-08 -->
    <defs>
     <path d="M 11.71875 12.40625 
L 22.015625 12.40625 
L 22.015625 0 
L 11.71875 0 
z
M 11.71875 51.703125 
L 22.015625 51.703125 
L 22.015625 39.3125 
L 11.71875 39.3125 
z
" id="DejaVuSans-58"/>
    </defs>
    <g transform="translate(60.41088 49.533135)scale(0.102 -0.102)">
     <use xlink:href="#DejaVuSans-53"/>
     <use x="63.623047" xlink:href="#DejaVuSans-49"/>
     <use x="127.246094" xlink:href="#DejaVuSans-32"/>
     <use x="159.033203" xlink:href="#DejaVuSans-116"/>
     <use x="198.242188" xlink:href="#DejaVuSans-97"/>
     <use x="259.521484" xlink:href="#DejaVuSans-114"/>
     <use x="300.619141" xlink:href="#DejaVuSans-103"/>
     <use x="364.095703" xlink:href="#DejaVuSans-101"/>
     <use x="425.619141" xlink:href="#DejaVuSans-116"/>
     <use x="464.828125" xlink:href="#DejaVuSans-115"/>
     <use x="516.927734" xlink:href="#DejaVuSans-58"/>
     <use x="550.619141" xlink:href="#DejaVuSans-32"/>
     <use x="582.40625" xlink:href="#DejaVuSans-49"/>
     <use x="646.029297" xlink:href="#DejaVuSans-48"/>
     <use x="709.652344" xlink:href="#DejaVuSans-48"/>
     <use x="773.275391" xlink:href="#DejaVuSans-46"/>
     <use x="805.0625" xlink:href="#DejaVuSans-46"/>
     <use x="836.849609" xlink:href="#DejaVuSans-49"/>
     <use x="900.472656" xlink:href="#DejaVuSans-101"/>
     <use x="961.996094" xlink:href="#DejaVuSans-45"/>
     <use x="998.080078" xlink:href="#DejaVuSans-48"/>
     <use x="1061.703125" xlink:href="#DejaVuSans-56"/>
    </g>
    <!-- 15 instances -->
    <g transform="translate(60.41088 60.954904)scale(0.102 -0.102)">
     <use xlink:href="#DejaVuSans-49"/>
     <use x="63.623047" xlink:href="#DejaVuSans-53"/>
     <use x="127.246094" xlink:href="#DejaVuSans-32"/>
     <use x="159.033203" xlink:href="#DejaVuSans-105"/>
     <use x="186.816406" xlink:href="#DejaVuSans-110"/>
     <use x="250.195312" xlink:href="#DejaVuSans-115"/>
     <use x="302.294922" xlink:href="#DejaVuSans-116"/>
     <use x="341.503906" xlink:href="#DejaVuSans-97"/>
     <use x="402.783203" xlink:href="#DejaVuSans-110"/>
     <use x="466.162109" xlink:href="#DejaVuSans-99"/>
     <use x="521.142578" xlink:href="#DejaVuSans-101"/>
     <use x="582.666016" xlink:href="#DejaVuSans-115"/>
    </g>
   </g>
   <g id="text_20">
    <!-- v2.3.3.18.73 -->
    <defs>
     <path d="M 40.578125 39.3125 
Q 47.65625 37.796875 51.625 33 
Q 55.609375 28.21875 55.609375 21.1875 
Q 55.609375 10.40625 48.1875 4.484375 
Q 40.765625 -1.421875 27.09375 -1.421875 
Q 22.515625 -1.421875 17.65625 -0.515625 
Q 12.796875 0.390625 7.625 2.203125 
L 7.625 11.71875 
Q 11.71875 9.328125 16.59375 8.109375 
Q 21.484375 6.890625 26.8125 6.890625 
Q 36.078125 6.890625 40.9375 10.546875 
Q 45.796875 14.203125 45.796875 21.1875 
Q 45.796875 27.640625 41.28125 31.265625 
Q 36.765625 34.90625 28.71875 34.90625 
L 20.21875 34.90625 
L 20.21875 43.015625 
L 29.109375 43.015625 
Q 36.375 43.015625 40.234375 45.921875 
Q 44.09375 48.828125 44.09375 54.296875 
Q 44.09375 59.90625 40.109375 62.90625 
Q 36.140625 65.921875 28.71875 65.921875 
Q 24.65625 65.921875 20.015625 65.03125 
Q 15.375 64.15625 9.8125 62.3125 
L 9.8125 71.09375 
Q 15.4375 72.65625 20.34375 73.4375 
Q 25.25 74.21875 29.59375 74.21875 
Q 40.828125 74.21875 47.359375 69.109375 
Q 53.90625 64.015625 53.90625 55.328125 
Q 53.90625 49.265625 50.4375 45.09375 
Q 46.96875 40.921875 40.578125 39.3125 
z
" id="DejaVuSans-51"/>
    </defs>
    <g style="fill:#808080;" transform="translate(166.559625 294.151352)scale(0.1 -0.1)">
     <use xlink:href="#DejaVuSans-118"/>
     <use x="59.179688" xlink:href="#DejaVuSans-50"/>
     <use x="122.802734" xlink:href="#DejaVuSans-46"/>
     <use x="154.589844" xlink:href="#DejaVuSans-51"/>
     <use x="218.212891" xlink:href="#DejaVuSans-46"/>
     <use x="250" xlink:href="#DejaVuSans-51"/>
     <use x="313.623047" xlink:href="#DejaVuSans-46"/>
     <use x="345.410156" xlink:href="#DejaVuSans-49"/>
     <use x="409.033203" xlink:href="#DejaVuSans-56"/>
     <use x="472.65625" xlink:href="#DejaVuSans-46"/>
     <use x="504.443359" xlink:href="#DejaVuSans-55"/>
     <use x="568.066406" xlink:href="#DejaVuSans-51"/>
    </g>
   </g>
   <g id="text_21">
    <!-- 10 Ellipsoid -->
    <defs>
     <path d="M 9.8125 72.90625 
L 55.90625 72.90625 
L 55.90625 64.59375 
L 19.671875 64.59375 
L 19.671875 43.015625 
L 54.390625 43.015625 
L 54.390625 34.71875 
L 19.671875 34.71875 
L 19.671875 8.296875 
L 56.78125 8.296875 
L 56.78125 0 
L 9.8125 0 
z
" id="DejaVuSans-69"/>
    </defs>
    <g transform="translate(140.784625 21.648)scale(0.2 -0.2)">
     <use xlink:href="#DejaVuSans-49"/>
     <use x="63.623047" xlink:href="#DejaVuSans-48"/>
     <use x="127.246094" xlink:href="#DejaVuSans-32"/>
     <use x="159.033203" xlink:href="#DejaVuSans-69"/>
     <use x="222.216797" xlink:href="#DejaVuSans-108"/>
     <use x="250" xlink:href="#DejaVuSans-108"/>
     <use x="277.783203" xlink:href="#DejaVuSans-105"/>
     <use x="305.566406" xlink:href="#DejaVuSans-112"/>
     <use x="369.042969" xlink:href="#DejaVuSans-115"/>
     <use x="421.142578" xlink:href="#DejaVuSans-111"/>
     <use x="482.324219" xlink:href="#DejaVuSans-105"/>
     <use x="510.107422" xlink:href="#DejaVuSans-100"/>
    </g>
   </g>
  </g>
 </g>
 <defs>
  <clipPath id="paf6c019207">
   <rect height="271.296" width="281.088" x="57.6" y="27.648"/>
  </clipPath>
 </defs>
</svg>
