<?xml version="1.0" encoding="utf-8" standalone="no"?>
<!DOCTYPE svg PUBLIC "-//W3C//DTD SVG 1.1//EN"
  "http://www.w3.org/Graphics/SVG/1.1/DTD/svg11.dtd">
<!-- Created with matplotlib (https://matplotlib.org/) -->
<svg height="345.6pt" version="1.1" viewBox="0 0 460.8 345.6" width="460.8pt" xmlns="http://www.w3.org/2000/svg" xmlns:xlink="http://www.w3.org/1999/xlink">
 <defs>
  <style type="text/css">
*{stroke-linecap:butt;stroke-linejoin:round;}
  </style>
 </defs>
 <g id="figure_1">
  <g id="patch_1">
   <path d="M 0 345.6 
L 460.8 345.6 
L 460.8 0 
L 0 0 
z
" style="fill:#ffffff;"/>
  </g>
  <g id="axes_1">
   <g id="patch_2">
    <path d="M 57.6 298.944 
L 338.688 298.944 
L 338.688 27.648 
L 57.6 27.648 
z
" style="fill:#ffffff;"/>
   </g>
   <g id="line2d_1">
    <path d="M 17.444571 298.944 
L 17.444571 288.410278 
L 101.646892 288.410278 
L 101.646892 283.143418 
L 104.592361 283.143418 
L 104.592361 277.876557 
L 108.006005 277.876557 
L 108.006005 272.609696 
L 109.843417 272.609696 
L 109.843417 267.342835 
L 113.664983 267.342835 
L 113.664983 262.075974 
L 120.665825 262.075974 
L 120.665825 256.809114 
L 125.219619 256.809114 
L 125.219619 251.542253 
L 127.892415 251.542253 
L 127.892415 246.275392 
L 130.344571 246.275392 
L 130.344571 241.008531 
L 131.565689 241.008531 
L 131.565689 235.74167 
L 132.823992 235.74167 
L 132.823992 230.47481 
L 133.689303 230.47481 
L 133.689303 225.207949 
L 134.849486 225.207949 
L 134.849486 219.941088 
L 135.219673 219.941088 
L 135.219673 214.674227 
L 136.150782 214.674227 
L 136.150782 209.407366 
L 136.246972 209.407366 
L 136.246972 204.140506 
L 136.701442 204.140506 
L 136.701442 198.873645 
L 137.307607 198.873645 
L 137.307607 193.606784 
L 137.788353 193.606784 
L 137.788353 188.339923 
L 137.875944 188.339923 
L 137.875944 183.073062 
L 137.893409 183.073062 
L 137.893409 177.806202 
L 138.307417 177.806202 
L 138.307417 172.539341 
L 138.628343 172.539341 
L 138.628343 167.27248 
L 139.009092 167.27248 
L 139.009092 162.005619 
L 139.317473 162.005619 
L 139.317473 156.738758 
L 139.620495 156.738758 
L 139.620495 146.205037 
L 139.715103 146.205037 
L 139.715103 140.938176 
L 139.77789 140.938176 
L 139.77789 130.404454 
L 139.793552 130.404454 
L 139.793552 125.137593 
L 139.933878 125.137593 
L 139.933878 119.870733 
L 139.964909 119.870733 
L 139.964909 114.603872 
L 140.165274 114.603872 
L 140.165274 109.337011 
L 140.256979 109.337011 
L 140.256979 104.07015 
L 140.469102 104.07015 
L 140.469102 93.536429 
L 140.559227 93.536429 
L 140.559227 88.269568 
L 140.812083 88.269568 
L 140.812083 83.002707 
L 140.826843 83.002707 
L 140.826843 77.735846 
L 140.871049 77.735846 
L 140.871049 56.668403 
L 140.959126 56.668403 
L 140.959126 51.401542 
L 141.002999 51.401542 
L 141.002999 46.134681 
L 141.046761 46.134681 
L 141.046761 30.334099 
L 338.688 30.334099 
" style="fill:none;stroke:#f5deb3;stroke-linecap:square;stroke-width:4;"/>
   </g>
   <g id="line2d_2">
    <defs>
     <path d="M -0 7.778175 
L 7.778175 0 
L 0 -7.778175 
L -7.778175 -0 
z
" id="mb4ceff3201" style="stroke:#f5deb3;stroke-linejoin:miter;stroke-width:1.5;"/>
    </defs>
    <g>
     <use style="fill:#f5deb3;stroke:#f5deb3;stroke-linejoin:miter;stroke-width:1.5;" x="113.664983" xlink:href="#mb4ceff3201" y="267.342835"/>
     <use style="fill:#f5deb3;stroke:#f5deb3;stroke-linejoin:miter;stroke-width:1.5;" x="138.628343" xlink:href="#mb4ceff3201" y="167.27248"/>
     <use style="fill:#f5deb3;stroke:#f5deb3;stroke-linejoin:miter;stroke-width:1.5;" x="141.046761" xlink:href="#mb4ceff3201" y="46.134681"/>
     <use style="fill:#f5deb3;stroke:#f5deb3;stroke-linejoin:miter;stroke-width:1.5;" x="141.046761" xlink:href="#mb4ceff3201" y="30.334099"/>
     <use style="fill:#f5deb3;stroke:#f5deb3;stroke-linejoin:miter;stroke-width:1.5;" x="141.046761" xlink:href="#mb4ceff3201" y="30.334099"/>
     <use style="fill:#f5deb3;stroke:#f5deb3;stroke-linejoin:miter;stroke-width:1.5;" x="338.688" xlink:href="#mb4ceff3201" y="30.334099"/>
    </g>
   </g>
   <g id="line2d_3">
    <path style="fill:none;stroke:#f5deb3;stroke-linecap:square;stroke-width:4;"/>
    <g/>
   </g>
   <g id="line2d_4">
    <path d="M 338.688 30.334099 
L 369.60768 35.706297 
" style="fill:none;stroke:#f5deb3;stroke-linecap:square;stroke-width:4;"/>
    <g>
     <use style="fill:#f5deb3;stroke:#f5deb3;stroke-linejoin:miter;stroke-width:1.5;" x="338.688" xlink:href="#mb4ceff3201" y="30.334099"/>
     <use style="fill:#f5deb3;stroke:#f5deb3;stroke-linejoin:miter;stroke-width:1.5;" x="369.60768" xlink:href="#mb4ceff3201" y="35.706297"/>
    </g>
   </g>
   <g id="matplotlib.axis_1">
    <g id="xtick_1">
     <g id="line2d_5">
      <path clip-path="url(#pce1115cd30)" d="M 57.6 298.944 
L 57.6 27.648 
" style="fill:none;stroke:#b0b0b0;stroke-linecap:square;stroke-width:0.8;"/>
     </g>
     <g id="line2d_6">
      <defs>
       <path d="M 0 0 
L 0 3.5 
" id="m8476560989" style="stroke:#000000;stroke-width:0.8;"/>
      </defs>
      <g>
       <use style="stroke:#000000;stroke-width:0.8;" x="57.6" xlink:href="#m8476560989" y="298.944"/>
      </g>
     </g>
     <g id="text_1">
      <!-- 0 -->
      <defs>
       <path d="M 31.78125 66.40625 
Q 24.171875 66.40625 20.328125 58.90625 
Q 16.5 51.421875 16.5 36.375 
Q 16.5 21.390625 20.328125 13.890625 
Q 24.171875 6.390625 31.78125 6.390625 
Q 39.453125 6.390625 43.28125 13.890625 
Q 47.125 21.390625 47.125 36.375 
Q 47.125 51.421875 43.28125 58.90625 
Q 39.453125 66.40625 31.78125 66.40625 
z
M 31.78125 74.21875 
Q 44.046875 74.21875 50.515625 64.515625 
Q 56.984375 54.828125 56.984375 36.375 
Q 56.984375 17.96875 50.515625 8.265625 
Q 44.046875 -1.421875 31.78125 -1.421875 
Q 19.53125 -1.421875 13.0625 8.265625 
Q 6.59375 17.96875 6.59375 36.375 
Q 6.59375 54.828125 13.0625 64.515625 
Q 19.53125 74.21875 31.78125 74.21875 
z
" id="DejaVuSans-48"/>
      </defs>
      <g transform="translate(51.2375 321.140875)scale(0.2 -0.2)">
       <use xlink:href="#DejaVuSans-48"/>
      </g>
     </g>
    </g>
    <g id="xtick_2">
     <g id="line2d_7">
      <path clip-path="url(#pce1115cd30)" d="M 137.910857 298.944 
L 137.910857 27.648 
" style="fill:none;stroke:#b0b0b0;stroke-linecap:square;stroke-width:0.8;"/>
     </g>
     <g id="line2d_8">
      <g>
       <use style="stroke:#000000;stroke-width:0.8;" x="137.910857" xlink:href="#m8476560989" y="298.944"/>
      </g>
     </g>
     <g id="text_2">
      <!-- 2 -->
      <defs>
       <path d="M 19.1875 8.296875 
L 53.609375 8.296875 
L 53.609375 0 
L 7.328125 0 
L 7.328125 8.296875 
Q 12.9375 14.109375 22.625 23.890625 
Q 32.328125 33.6875 34.8125 36.53125 
Q 39.546875 41.84375 41.421875 45.53125 
Q 43.3125 49.21875 43.3125 52.78125 
Q 43.3125 58.59375 39.234375 62.25 
Q 35.15625 65.921875 28.609375 65.921875 
Q 23.96875 65.921875 18.8125 64.3125 
Q 13.671875 62.703125 7.8125 59.421875 
L 7.8125 69.390625 
Q 13.765625 71.78125 18.9375 73 
Q 24.125 74.21875 28.421875 74.21875 
Q 39.75 74.21875 46.484375 68.546875 
Q 53.21875 62.890625 53.21875 53.421875 
Q 53.21875 48.921875 51.53125 44.890625 
Q 49.859375 40.875 45.40625 35.40625 
Q 44.1875 33.984375 37.640625 27.21875 
Q 31.109375 20.453125 19.1875 8.296875 
z
" id="DejaVuSans-50"/>
      </defs>
      <g transform="translate(131.548357 321.140875)scale(0.2 -0.2)">
       <use xlink:href="#DejaVuSans-50"/>
      </g>
     </g>
    </g>
    <g id="xtick_3">
     <g id="line2d_9">
      <path clip-path="url(#pce1115cd30)" d="M 218.221714 298.944 
L 218.221714 27.648 
" style="fill:none;stroke:#b0b0b0;stroke-linecap:square;stroke-width:0.8;"/>
     </g>
     <g id="line2d_10">
      <g>
       <use style="stroke:#000000;stroke-width:0.8;" x="218.221714" xlink:href="#m8476560989" y="298.944"/>
      </g>
     </g>
     <g id="text_3">
      <!-- 4 -->
      <defs>
       <path d="M 37.796875 64.3125 
L 12.890625 25.390625 
L 37.796875 25.390625 
z
M 35.203125 72.90625 
L 47.609375 72.90625 
L 47.609375 25.390625 
L 58.015625 25.390625 
L 58.015625 17.1875 
L 47.609375 17.1875 
L 47.609375 0 
L 37.796875 0 
L 37.796875 17.1875 
L 4.890625 17.1875 
L 4.890625 26.703125 
z
" id="DejaVuSans-52"/>
      </defs>
      <g transform="translate(211.859214 321.140875)scale(0.2 -0.2)">
       <use xlink:href="#DejaVuSans-52"/>
      </g>
     </g>
    </g>
    <g id="xtick_4">
     <g id="line2d_11">
      <path clip-path="url(#pce1115cd30)" d="M 298.532571 298.944 
L 298.532571 27.648 
" style="fill:none;stroke:#b0b0b0;stroke-linecap:square;stroke-width:0.8;"/>
     </g>
     <g id="line2d_12">
      <g>
       <use style="stroke:#000000;stroke-width:0.8;" x="298.532571" xlink:href="#m8476560989" y="298.944"/>
      </g>
     </g>
     <g id="text_4">
      <!-- 6 -->
      <defs>
       <path d="M 33.015625 40.375 
Q 26.375 40.375 22.484375 35.828125 
Q 18.609375 31.296875 18.609375 23.390625 
Q 18.609375 15.53125 22.484375 10.953125 
Q 26.375 6.390625 33.015625 6.390625 
Q 39.65625 6.390625 43.53125 10.953125 
Q 47.40625 15.53125 47.40625 23.390625 
Q 47.40625 31.296875 43.53125 35.828125 
Q 39.65625 40.375 33.015625 40.375 
z
M 52.59375 71.296875 
L 52.59375 62.3125 
Q 48.875 64.0625 45.09375 64.984375 
Q 41.3125 65.921875 37.59375 65.921875 
Q 27.828125 65.921875 22.671875 59.328125 
Q 17.53125 52.734375 16.796875 39.40625 
Q 19.671875 43.65625 24.015625 45.921875 
Q 28.375 48.1875 33.59375 48.1875 
Q 44.578125 48.1875 50.953125 41.515625 
Q 57.328125 34.859375 57.328125 23.390625 
Q 57.328125 12.15625 50.6875 5.359375 
Q 44.046875 -1.421875 33.015625 -1.421875 
Q 20.359375 -1.421875 13.671875 8.265625 
Q 6.984375 17.96875 6.984375 36.375 
Q 6.984375 53.65625 15.1875 63.9375 
Q 23.390625 74.21875 37.203125 74.21875 
Q 40.921875 74.21875 44.703125 73.484375 
Q 48.484375 72.75 52.59375 71.296875 
z
" id="DejaVuSans-54"/>
      </defs>
      <g transform="translate(292.170071 321.140875)scale(0.2 -0.2)">
       <use xlink:href="#DejaVuSans-54"/>
      </g>
     </g>
    </g>
    <g id="xtick_5">
     <g id="line2d_13">
      <path clip-path="url(#pce1115cd30)" d="M 97.755429 298.944 
L 97.755429 27.648 
" style="fill:none;stroke:#b0b0b0;stroke-linecap:square;stroke-width:0.8;"/>
     </g>
     <g id="line2d_14">
      <defs>
       <path d="M 0 0 
L 0 2 
" id="m351a11380c" style="stroke:#000000;stroke-width:0.6;"/>
      </defs>
      <g>
       <use style="stroke:#000000;stroke-width:0.6;" x="97.755429" xlink:href="#m351a11380c" y="298.944"/>
      </g>
     </g>
    </g>
    <g id="xtick_6">
     <g id="line2d_15">
      <path clip-path="url(#pce1115cd30)" d="M 178.066286 298.944 
L 178.066286 27.648 
" style="fill:none;stroke:#b0b0b0;stroke-linecap:square;stroke-width:0.8;"/>
     </g>
     <g id="line2d_16">
      <g>
       <use style="stroke:#000000;stroke-width:0.6;" x="178.066286" xlink:href="#m351a11380c" y="298.944"/>
      </g>
     </g>
    </g>
    <g id="xtick_7">
     <g id="line2d_17">
      <path clip-path="url(#pce1115cd30)" d="M 258.377143 298.944 
L 258.377143 27.648 
" style="fill:none;stroke:#b0b0b0;stroke-linecap:square;stroke-width:0.8;"/>
     </g>
     <g id="line2d_18">
      <g>
       <use style="stroke:#000000;stroke-width:0.6;" x="258.377143" xlink:href="#m351a11380c" y="298.944"/>
      </g>
     </g>
    </g>
    <g id="xtick_8">
     <g id="line2d_19">
      <path clip-path="url(#pce1115cd30)" d="M 338.688 298.944 
L 338.688 27.648 
" style="fill:none;stroke:#b0b0b0;stroke-linecap:square;stroke-width:0.8;"/>
     </g>
     <g id="line2d_20">
      <g>
       <use style="stroke:#000000;stroke-width:0.6;" x="338.688" xlink:href="#m351a11380c" y="298.944"/>
      </g>
     </g>
    </g>
    <g id="text_5">
     <!-- log10(# f-evals / dimension) -->
     <defs>
      <path d="M 9.421875 75.984375 
L 18.40625 75.984375 
L 18.40625 0 
L 9.421875 0 
z
" id="DejaVuSans-108"/>
      <path d="M 30.609375 48.390625 
Q 23.390625 48.390625 19.1875 42.75 
Q 14.984375 37.109375 14.984375 27.296875 
Q 14.984375 17.484375 19.15625 11.84375 
Q 23.34375 6.203125 30.609375 6.203125 
Q 37.796875 6.203125 41.984375 11.859375 
Q 46.1875 17.53125 46.1875 27.296875 
Q 46.1875 37.015625 41.984375 42.703125 
Q 37.796875 48.390625 30.609375 48.390625 
z
M 30.609375 56 
Q 42.328125 56 49.015625 48.375 
Q 55.71875 40.765625 55.71875 27.296875 
Q 55.71875 13.875 49.015625 6.21875 
Q 42.328125 -1.421875 30.609375 -1.421875 
Q 18.84375 -1.421875 12.171875 6.21875 
Q 5.515625 13.875 5.515625 27.296875 
Q 5.515625 40.765625 12.171875 48.375 
Q 18.84375 56 30.609375 56 
z
" id="DejaVuSans-111"/>
      <path d="M 45.40625 27.984375 
Q 45.40625 37.75 41.375 43.109375 
Q 37.359375 48.484375 30.078125 48.484375 
Q 22.859375 48.484375 18.828125 43.109375 
Q 14.796875 37.75 14.796875 27.984375 
Q 14.796875 18.265625 18.828125 12.890625 
Q 22.859375 7.515625 30.078125 7.515625 
Q 37.359375 7.515625 41.375 12.890625 
Q 45.40625 18.265625 45.40625 27.984375 
z
M 54.390625 6.78125 
Q 54.390625 -7.171875 48.1875 -13.984375 
Q 42 -20.796875 29.203125 -20.796875 
Q 24.46875 -20.796875 20.265625 -20.09375 
Q 16.0625 -19.390625 12.109375 -17.921875 
L 12.109375 -9.1875 
Q 16.0625 -11.328125 19.921875 -12.34375 
Q 23.78125 -13.375 27.78125 -13.375 
Q 36.625 -13.375 41.015625 -8.765625 
Q 45.40625 -4.15625 45.40625 5.171875 
L 45.40625 9.625 
Q 42.625 4.78125 38.28125 2.390625 
Q 33.9375 0 27.875 0 
Q 17.828125 0 11.671875 7.65625 
Q 5.515625 15.328125 5.515625 27.984375 
Q 5.515625 40.671875 11.671875 48.328125 
Q 17.828125 56 27.875 56 
Q 33.9375 56 38.28125 53.609375 
Q 42.625 51.21875 45.40625 46.390625 
L 45.40625 54.6875 
L 54.390625 54.6875 
z
" id="DejaVuSans-103"/>
      <path d="M 12.40625 8.296875 
L 28.515625 8.296875 
L 28.515625 63.921875 
L 10.984375 60.40625 
L 10.984375 69.390625 
L 28.421875 72.90625 
L 38.28125 72.90625 
L 38.28125 8.296875 
L 54.390625 8.296875 
L 54.390625 0 
L 12.40625 0 
z
" id="DejaVuSans-49"/>
      <path d="M 31 75.875 
Q 24.46875 64.65625 21.28125 53.65625 
Q 18.109375 42.671875 18.109375 31.390625 
Q 18.109375 20.125 21.3125 9.0625 
Q 24.515625 -2 31 -13.1875 
L 23.1875 -13.1875 
Q 15.875 -1.703125 12.234375 9.375 
Q 8.59375 20.453125 8.59375 31.390625 
Q 8.59375 42.28125 12.203125 53.3125 
Q 15.828125 64.359375 23.1875 75.875 
z
" id="DejaVuSans-40"/>
      <path d="M 51.125 44 
L 36.921875 44 
L 32.8125 27.6875 
L 47.125 27.6875 
z
M 43.796875 71.78125 
L 38.71875 51.515625 
L 52.984375 51.515625 
L 58.109375 71.78125 
L 65.921875 71.78125 
L 60.890625 51.515625 
L 76.125 51.515625 
L 76.125 44 
L 58.984375 44 
L 54.984375 27.6875 
L 70.515625 27.6875 
L 70.515625 20.21875 
L 53.078125 20.21875 
L 48 0 
L 40.1875 0 
L 45.21875 20.21875 
L 30.90625 20.21875 
L 25.875 0 
L 18.015625 0 
L 23.09375 20.21875 
L 7.71875 20.21875 
L 7.71875 27.6875 
L 24.90625 27.6875 
L 29 44 
L 13.28125 44 
L 13.28125 51.515625 
L 30.90625 51.515625 
L 35.890625 71.78125 
z
" id="DejaVuSans-35"/>
      <path id="DejaVuSans-32"/>
      <path d="M 37.109375 75.984375 
L 37.109375 68.5 
L 28.515625 68.5 
Q 23.6875 68.5 21.796875 66.546875 
Q 19.921875 64.59375 19.921875 59.515625 
L 19.921875 54.6875 
L 34.71875 54.6875 
L 34.71875 47.703125 
L 19.921875 47.703125 
L 19.921875 0 
L 10.890625 0 
L 10.890625 47.703125 
L 2.296875 47.703125 
L 2.296875 54.6875 
L 10.890625 54.6875 
L 10.890625 58.5 
Q 10.890625 67.625 15.140625 71.796875 
Q 19.390625 75.984375 28.609375 75.984375 
z
" id="DejaVuSans-102"/>
      <path d="M 4.890625 31.390625 
L 31.203125 31.390625 
L 31.203125 23.390625 
L 4.890625 23.390625 
z
" id="DejaVuSans-45"/>
      <path d="M 56.203125 29.59375 
L 56.203125 25.203125 
L 14.890625 25.203125 
Q 15.484375 15.921875 20.484375 11.0625 
Q 25.484375 6.203125 34.421875 6.203125 
Q 39.59375 6.203125 44.453125 7.46875 
Q 49.3125 8.734375 54.109375 11.28125 
L 54.109375 2.78125 
Q 49.265625 0.734375 44.1875 -0.34375 
Q 39.109375 -1.421875 33.890625 -1.421875 
Q 20.796875 -1.421875 13.15625 6.1875 
Q 5.515625 13.8125 5.515625 26.8125 
Q 5.515625 40.234375 12.765625 48.109375 
Q 20.015625 56 32.328125 56 
Q 43.359375 56 49.78125 48.890625 
Q 56.203125 41.796875 56.203125 29.59375 
z
M 47.21875 32.234375 
Q 47.125 39.59375 43.09375 43.984375 
Q 39.0625 48.390625 32.421875 48.390625 
Q 24.90625 48.390625 20.390625 44.140625 
Q 15.875 39.890625 15.1875 32.171875 
z
" id="DejaVuSans-101"/>
      <path d="M 2.984375 54.6875 
L 12.5 54.6875 
L 29.59375 8.796875 
L 46.6875 54.6875 
L 56.203125 54.6875 
L 35.6875 0 
L 23.484375 0 
z
" id="DejaVuSans-118"/>
      <path d="M 34.28125 27.484375 
Q 23.390625 27.484375 19.1875 25 
Q 14.984375 22.515625 14.984375 16.5 
Q 14.984375 11.71875 18.140625 8.90625 
Q 21.296875 6.109375 26.703125 6.109375 
Q 34.1875 6.109375 38.703125 11.40625 
Q 43.21875 16.703125 43.21875 25.484375 
L 43.21875 27.484375 
z
M 52.203125 31.203125 
L 52.203125 0 
L 43.21875 0 
L 43.21875 8.296875 
Q 40.140625 3.328125 35.546875 0.953125 
Q 30.953125 -1.421875 24.3125 -1.421875 
Q 15.921875 -1.421875 10.953125 3.296875 
Q 6 8.015625 6 15.921875 
Q 6 25.140625 12.171875 29.828125 
Q 18.359375 34.515625 30.609375 34.515625 
L 43.21875 34.515625 
L 43.21875 35.40625 
Q 43.21875 41.609375 39.140625 45 
Q 35.0625 48.390625 27.6875 48.390625 
Q 23 48.390625 18.546875 47.265625 
Q 14.109375 46.140625 10.015625 43.890625 
L 10.015625 52.203125 
Q 14.9375 54.109375 19.578125 55.046875 
Q 24.21875 56 28.609375 56 
Q 40.484375 56 46.34375 49.84375 
Q 52.203125 43.703125 52.203125 31.203125 
z
" id="DejaVuSans-97"/>
      <path d="M 44.28125 53.078125 
L 44.28125 44.578125 
Q 40.484375 46.53125 36.375 47.5 
Q 32.28125 48.484375 27.875 48.484375 
Q 21.1875 48.484375 17.84375 46.4375 
Q 14.5 44.390625 14.5 40.28125 
Q 14.5 37.15625 16.890625 35.375 
Q 19.28125 33.59375 26.515625 31.984375 
L 29.59375 31.296875 
Q 39.15625 29.25 43.1875 25.515625 
Q 47.21875 21.78125 47.21875 15.09375 
Q 47.21875 7.46875 41.1875 3.015625 
Q 35.15625 -1.421875 24.609375 -1.421875 
Q 20.21875 -1.421875 15.453125 -0.5625 
Q 10.6875 0.296875 5.421875 2 
L 5.421875 11.28125 
Q 10.40625 8.6875 15.234375 7.390625 
Q 20.0625 6.109375 24.8125 6.109375 
Q 31.15625 6.109375 34.5625 8.28125 
Q 37.984375 10.453125 37.984375 14.40625 
Q 37.984375 18.0625 35.515625 20.015625 
Q 33.0625 21.96875 24.703125 23.78125 
L 21.578125 24.515625 
Q 13.234375 26.265625 9.515625 29.90625 
Q 5.8125 33.546875 5.8125 39.890625 
Q 5.8125 47.609375 11.28125 51.796875 
Q 16.75 56 26.8125 56 
Q 31.78125 56 36.171875 55.265625 
Q 40.578125 54.546875 44.28125 53.078125 
z
" id="DejaVuSans-115"/>
      <path d="M 25.390625 72.90625 
L 33.6875 72.90625 
L 8.296875 -9.28125 
L 0 -9.28125 
z
" id="DejaVuSans-47"/>
      <path d="M 45.40625 46.390625 
L 45.40625 75.984375 
L 54.390625 75.984375 
L 54.390625 0 
L 45.40625 0 
L 45.40625 8.203125 
Q 42.578125 3.328125 38.25 0.953125 
Q 33.9375 -1.421875 27.875 -1.421875 
Q 17.96875 -1.421875 11.734375 6.484375 
Q 5.515625 14.40625 5.515625 27.296875 
Q 5.515625 40.1875 11.734375 48.09375 
Q 17.96875 56 27.875 56 
Q 33.9375 56 38.25 53.625 
Q 42.578125 51.265625 45.40625 46.390625 
z
M 14.796875 27.296875 
Q 14.796875 17.390625 18.875 11.75 
Q 22.953125 6.109375 30.078125 6.109375 
Q 37.203125 6.109375 41.296875 11.75 
Q 45.40625 17.390625 45.40625 27.296875 
Q 45.40625 37.203125 41.296875 42.84375 
Q 37.203125 48.484375 30.078125 48.484375 
Q 22.953125 48.484375 18.875 42.84375 
Q 14.796875 37.203125 14.796875 27.296875 
z
" id="DejaVuSans-100"/>
      <path d="M 9.421875 54.6875 
L 18.40625 54.6875 
L 18.40625 0 
L 9.421875 0 
z
M 9.421875 75.984375 
L 18.40625 75.984375 
L 18.40625 64.59375 
L 9.421875 64.59375 
z
" id="DejaVuSans-105"/>
      <path d="M 52 44.1875 
Q 55.375 50.25 60.0625 53.125 
Q 64.75 56 71.09375 56 
Q 79.640625 56 84.28125 50.015625 
Q 88.921875 44.046875 88.921875 33.015625 
L 88.921875 0 
L 79.890625 0 
L 79.890625 32.71875 
Q 79.890625 40.578125 77.09375 44.375 
Q 74.3125 48.1875 68.609375 48.1875 
Q 61.625 48.1875 57.5625 43.546875 
Q 53.515625 38.921875 53.515625 30.90625 
L 53.515625 0 
L 44.484375 0 
L 44.484375 32.71875 
Q 44.484375 40.625 41.703125 44.40625 
Q 38.921875 48.1875 33.109375 48.1875 
Q 26.21875 48.1875 22.15625 43.53125 
Q 18.109375 38.875 18.109375 30.90625 
L 18.109375 0 
L 9.078125 0 
L 9.078125 54.6875 
L 18.109375 54.6875 
L 18.109375 46.1875 
Q 21.1875 51.21875 25.484375 53.609375 
Q 29.78125 56 35.6875 56 
Q 41.65625 56 45.828125 52.96875 
Q 50 49.953125 52 44.1875 
z
" id="DejaVuSans-109"/>
      <path d="M 54.890625 33.015625 
L 54.890625 0 
L 45.90625 0 
L 45.90625 32.71875 
Q 45.90625 40.484375 42.875 44.328125 
Q 39.84375 48.1875 33.796875 48.1875 
Q 26.515625 48.1875 22.3125 43.546875 
Q 18.109375 38.921875 18.109375 30.90625 
L 18.109375 0 
L 9.078125 0 
L 9.078125 54.6875 
L 18.109375 54.6875 
L 18.109375 46.1875 
Q 21.34375 51.125 25.703125 53.5625 
Q 30.078125 56 35.796875 56 
Q 45.21875 56 50.046875 50.171875 
Q 54.890625 44.34375 54.890625 33.015625 
z
" id="DejaVuSans-110"/>
      <path d="M 8.015625 75.875 
L 15.828125 75.875 
Q 23.140625 64.359375 26.78125 53.3125 
Q 30.421875 42.28125 30.421875 31.390625 
Q 30.421875 20.453125 26.78125 9.375 
Q 23.140625 -1.703125 15.828125 -13.1875 
L 8.015625 -13.1875 
Q 14.5 -2 17.703125 9.0625 
Q 20.90625 20.125 20.90625 31.390625 
Q 20.90625 42.671875 17.703125 53.65625 
Q 14.5 64.65625 8.015625 75.875 
z
" id="DejaVuSans-41"/>
     </defs>
     <g transform="translate(77.303219 342.217594)scale(0.17 -0.17)">
      <use xlink:href="#DejaVuSans-108"/>
      <use x="27.783203" xlink:href="#DejaVuSans-111"/>
      <use x="88.964844" xlink:href="#DejaVuSans-103"/>
      <use x="152.441406" xlink:href="#DejaVuSans-49"/>
      <use x="216.064453" xlink:href="#DejaVuSans-48"/>
      <use x="279.6875" xlink:href="#DejaVuSans-40"/>
      <use x="318.701172" xlink:href="#DejaVuSans-35"/>
      <use x="402.490234" xlink:href="#DejaVuSans-32"/>
      <use x="434.277344" xlink:href="#DejaVuSans-102"/>
      <use x="469.404297" xlink:href="#DejaVuSans-45"/>
      <use x="505.488281" xlink:href="#DejaVuSans-101"/>
      <use x="567.011719" xlink:href="#DejaVuSans-118"/>
      <use x="626.191406" xlink:href="#DejaVuSans-97"/>
      <use x="687.470703" xlink:href="#DejaVuSans-108"/>
      <use x="715.253906" xlink:href="#DejaVuSans-115"/>
      <use x="767.353516" xlink:href="#DejaVuSans-32"/>
      <use x="799.140625" xlink:href="#DejaVuSans-47"/>
      <use x="832.832031" xlink:href="#DejaVuSans-32"/>
      <use x="864.619141" xlink:href="#DejaVuSans-100"/>
      <use x="928.095703" xlink:href="#DejaVuSans-105"/>
      <use x="955.878906" xlink:href="#DejaVuSans-109"/>
      <use x="1053.291016" xlink:href="#DejaVuSans-101"/>
      <use x="1114.814453" xlink:href="#DejaVuSans-110"/>
      <use x="1178.193359" xlink:href="#DejaVuSans-115"/>
      <use x="1230.292969" xlink:href="#DejaVuSans-105"/>
      <use x="1258.076172" xlink:href="#DejaVuSans-111"/>
      <use x="1319.257812" xlink:href="#DejaVuSans-110"/>
      <use x="1382.636719" xlink:href="#DejaVuSans-41"/>
     </g>
    </g>
   </g>
   <g id="matplotlib.axis_2">
    <g id="ytick_1">
     <g id="line2d_21">
      <path clip-path="url(#pce1115cd30)" d="M 57.6 298.944 
L 338.688 298.944 
" style="fill:none;stroke:#b0b0b0;stroke-linecap:square;stroke-width:0.8;"/>
     </g>
     <g id="line2d_22">
      <defs>
       <path d="M 0 0 
L -3.5 0 
" id="m8e282ba1bb" style="stroke:#000000;stroke-width:0.8;"/>
      </defs>
      <g>
       <use style="stroke:#000000;stroke-width:0.8;" x="57.6" xlink:href="#m8e282ba1bb" y="298.944"/>
      </g>
     </g>
     <g id="text_6">
      <!-- 0.0 -->
      <defs>
       <path d="M 10.6875 12.40625 
L 21 12.40625 
L 21 0 
L 10.6875 0 
z
" id="DejaVuSans-46"/>
      </defs>
      <g transform="translate(25.155 305.02275)scale(0.16 -0.16)">
       <use xlink:href="#DejaVuSans-48"/>
       <use x="63.623047" xlink:href="#DejaVuSans-46"/>
       <use x="95.410156" xlink:href="#DejaVuSans-48"/>
      </g>
     </g>
    </g>
    <g id="ytick_2">
     <g id="line2d_23">
      <path clip-path="url(#pce1115cd30)" d="M 57.6 245.22202 
L 338.688 245.22202 
" style="fill:none;stroke:#b0b0b0;stroke-linecap:square;stroke-width:0.8;"/>
     </g>
     <g id="line2d_24">
      <g>
       <use style="stroke:#000000;stroke-width:0.8;" x="57.6" xlink:href="#m8e282ba1bb" y="245.22202"/>
      </g>
     </g>
     <g id="text_7">
      <!-- 0.2 -->
      <g transform="translate(25.155 251.30077)scale(0.16 -0.16)">
       <use xlink:href="#DejaVuSans-48"/>
       <use x="63.623047" xlink:href="#DejaVuSans-46"/>
       <use x="95.410156" xlink:href="#DejaVuSans-50"/>
      </g>
     </g>
    </g>
    <g id="ytick_3">
     <g id="line2d_25">
      <path clip-path="url(#pce1115cd30)" d="M 57.6 191.50004 
L 338.688 191.50004 
" style="fill:none;stroke:#b0b0b0;stroke-linecap:square;stroke-width:0.8;"/>
     </g>
     <g id="line2d_26">
      <g>
       <use style="stroke:#000000;stroke-width:0.8;" x="57.6" xlink:href="#m8e282ba1bb" y="191.50004"/>
      </g>
     </g>
     <g id="text_8">
      <!-- 0.4 -->
      <g transform="translate(25.155 197.57879)scale(0.16 -0.16)">
       <use xlink:href="#DejaVuSans-48"/>
       <use x="63.623047" xlink:href="#DejaVuSans-46"/>
       <use x="95.410156" xlink:href="#DejaVuSans-52"/>
      </g>
     </g>
    </g>
    <g id="ytick_4">
     <g id="line2d_27">
      <path clip-path="url(#pce1115cd30)" d="M 57.6 137.778059 
L 338.688 137.778059 
" style="fill:none;stroke:#b0b0b0;stroke-linecap:square;stroke-width:0.8;"/>
     </g>
     <g id="line2d_28">
      <g>
       <use style="stroke:#000000;stroke-width:0.8;" x="57.6" xlink:href="#m8e282ba1bb" y="137.778059"/>
      </g>
     </g>
     <g id="text_9">
      <!-- 0.6 -->
      <g transform="translate(25.155 143.856809)scale(0.16 -0.16)">
       <use xlink:href="#DejaVuSans-48"/>
       <use x="63.623047" xlink:href="#DejaVuSans-46"/>
       <use x="95.410156" xlink:href="#DejaVuSans-54"/>
      </g>
     </g>
    </g>
    <g id="ytick_5">
     <g id="line2d_29">
      <path clip-path="url(#pce1115cd30)" d="M 57.6 84.056079 
L 338.688 84.056079 
" style="fill:none;stroke:#b0b0b0;stroke-linecap:square;stroke-width:0.8;"/>
     </g>
     <g id="line2d_30">
      <g>
       <use style="stroke:#000000;stroke-width:0.8;" x="57.6" xlink:href="#m8e282ba1bb" y="84.056079"/>
      </g>
     </g>
     <g id="text_10">
      <!-- 0.8 -->
      <defs>
       <path d="M 31.78125 34.625 
Q 24.75 34.625 20.71875 30.859375 
Q 16.703125 27.09375 16.703125 20.515625 
Q 16.703125 13.921875 20.71875 10.15625 
Q 24.75 6.390625 31.78125 6.390625 
Q 38.8125 6.390625 42.859375 10.171875 
Q 46.921875 13.96875 46.921875 20.515625 
Q 46.921875 27.09375 42.890625 30.859375 
Q 38.875 34.625 31.78125 34.625 
z
M 21.921875 38.8125 
Q 15.578125 40.375 12.03125 44.71875 
Q 8.5 49.078125 8.5 55.328125 
Q 8.5 64.0625 14.71875 69.140625 
Q 20.953125 74.21875 31.78125 74.21875 
Q 42.671875 74.21875 48.875 69.140625 
Q 55.078125 64.0625 55.078125 55.328125 
Q 55.078125 49.078125 51.53125 44.71875 
Q 48 40.375 41.703125 38.8125 
Q 48.828125 37.15625 52.796875 32.3125 
Q 56.78125 27.484375 56.78125 20.515625 
Q 56.78125 9.90625 50.3125 4.234375 
Q 43.84375 -1.421875 31.78125 -1.421875 
Q 19.734375 -1.421875 13.25 4.234375 
Q 6.78125 9.90625 6.78125 20.515625 
Q 6.78125 27.484375 10.78125 32.3125 
Q 14.796875 37.15625 21.921875 38.8125 
z
M 18.3125 54.390625 
Q 18.3125 48.734375 21.84375 45.5625 
Q 25.390625 42.390625 31.78125 42.390625 
Q 38.140625 42.390625 41.71875 45.5625 
Q 45.3125 48.734375 45.3125 54.390625 
Q 45.3125 60.0625 41.71875 63.234375 
Q 38.140625 66.40625 31.78125 66.40625 
Q 25.390625 66.40625 21.84375 63.234375 
Q 18.3125 60.0625 18.3125 54.390625 
z
" id="DejaVuSans-56"/>
      </defs>
      <g transform="translate(25.155 90.134829)scale(0.16 -0.16)">
       <use xlink:href="#DejaVuSans-48"/>
       <use x="63.623047" xlink:href="#DejaVuSans-46"/>
       <use x="95.410156" xlink:href="#DejaVuSans-56"/>
      </g>
     </g>
    </g>
    <g id="ytick_6">
     <g id="line2d_31">
      <path clip-path="url(#pce1115cd30)" d="M 57.6 30.334099 
L 338.688 30.334099 
" style="fill:none;stroke:#b0b0b0;stroke-linecap:square;stroke-width:0.8;"/>
     </g>
     <g id="line2d_32">
      <g>
       <use style="stroke:#000000;stroke-width:0.8;" x="57.6" xlink:href="#m8e282ba1bb" y="30.334099"/>
      </g>
     </g>
     <g id="text_11">
      <!-- 1.0 -->
      <g transform="translate(25.155 36.412849)scale(0.16 -0.16)">
       <use xlink:href="#DejaVuSans-49"/>
       <use x="63.623047" xlink:href="#DejaVuSans-46"/>
       <use x="95.410156" xlink:href="#DejaVuSans-48"/>
      </g>
     </g>
    </g>
    <g id="text_12">
     <!-- Fraction of function,target pairs -->
     <defs>
      <path d="M 9.8125 72.90625 
L 51.703125 72.90625 
L 51.703125 64.59375 
L 19.671875 64.59375 
L 19.671875 43.109375 
L 48.578125 43.109375 
L 48.578125 34.8125 
L 19.671875 34.8125 
L 19.671875 0 
L 9.8125 0 
z
" id="DejaVuSans-70"/>
      <path d="M 41.109375 46.296875 
Q 39.59375 47.171875 37.8125 47.578125 
Q 36.03125 48 33.890625 48 
Q 26.265625 48 22.1875 43.046875 
Q 18.109375 38.09375 18.109375 28.8125 
L 18.109375 0 
L 9.078125 0 
L 9.078125 54.6875 
L 18.109375 54.6875 
L 18.109375 46.1875 
Q 20.953125 51.171875 25.484375 53.578125 
Q 30.03125 56 36.53125 56 
Q 37.453125 56 38.578125 55.875 
Q 39.703125 55.765625 41.0625 55.515625 
z
" id="DejaVuSans-114"/>
      <path d="M 48.78125 52.59375 
L 48.78125 44.1875 
Q 44.96875 46.296875 41.140625 47.34375 
Q 37.3125 48.390625 33.40625 48.390625 
Q 24.65625 48.390625 19.8125 42.84375 
Q 14.984375 37.3125 14.984375 27.296875 
Q 14.984375 17.28125 19.8125 11.734375 
Q 24.65625 6.203125 33.40625 6.203125 
Q 37.3125 6.203125 41.140625 7.25 
Q 44.96875 8.296875 48.78125 10.40625 
L 48.78125 2.09375 
Q 45.015625 0.34375 40.984375 -0.53125 
Q 36.96875 -1.421875 32.421875 -1.421875 
Q 20.0625 -1.421875 12.78125 6.34375 
Q 5.515625 14.109375 5.515625 27.296875 
Q 5.515625 40.671875 12.859375 48.328125 
Q 20.21875 56 33.015625 56 
Q 37.15625 56 41.109375 55.140625 
Q 45.0625 54.296875 48.78125 52.59375 
z
" id="DejaVuSans-99"/>
      <path d="M 18.3125 70.21875 
L 18.3125 54.6875 
L 36.8125 54.6875 
L 36.8125 47.703125 
L 18.3125 47.703125 
L 18.3125 18.015625 
Q 18.3125 11.328125 20.140625 9.421875 
Q 21.96875 7.515625 27.59375 7.515625 
L 36.8125 7.515625 
L 36.8125 0 
L 27.59375 0 
Q 17.1875 0 13.234375 3.875 
Q 9.28125 7.765625 9.28125 18.015625 
L 9.28125 47.703125 
L 2.6875 47.703125 
L 2.6875 54.6875 
L 9.28125 54.6875 
L 9.28125 70.21875 
z
" id="DejaVuSans-116"/>
      <path d="M 8.5 21.578125 
L 8.5 54.6875 
L 17.484375 54.6875 
L 17.484375 21.921875 
Q 17.484375 14.15625 20.5 10.265625 
Q 23.53125 6.390625 29.59375 6.390625 
Q 36.859375 6.390625 41.078125 11.03125 
Q 45.3125 15.671875 45.3125 23.6875 
L 45.3125 54.6875 
L 54.296875 54.6875 
L 54.296875 0 
L 45.3125 0 
L 45.3125 8.40625 
Q 42.046875 3.421875 37.71875 1 
Q 33.40625 -1.421875 27.6875 -1.421875 
Q 18.265625 -1.421875 13.375 4.4375 
Q 8.5 10.296875 8.5 21.578125 
z
M 31.109375 56 
z
" id="DejaVuSans-117"/>
      <path d="M 11.71875 12.40625 
L 22.015625 12.40625 
L 22.015625 4 
L 14.015625 -11.625 
L 7.71875 -11.625 
L 11.71875 4 
z
" id="DejaVuSans-44"/>
      <path d="M 18.109375 8.203125 
L 18.109375 -20.796875 
L 9.078125 -20.796875 
L 9.078125 54.6875 
L 18.109375 54.6875 
L 18.109375 46.390625 
Q 20.953125 51.265625 25.265625 53.625 
Q 29.59375 56 35.59375 56 
Q 45.5625 56 51.78125 48.09375 
Q 58.015625 40.1875 58.015625 27.296875 
Q 58.015625 14.40625 51.78125 6.484375 
Q 45.5625 -1.421875 35.59375 -1.421875 
Q 29.59375 -1.421875 25.265625 0.953125 
Q 20.953125 3.328125 18.109375 8.203125 
z
M 48.6875 27.296875 
Q 48.6875 37.203125 44.609375 42.84375 
Q 40.53125 48.484375 33.40625 48.484375 
Q 26.265625 48.484375 22.1875 42.84375 
Q 18.109375 37.203125 18.109375 27.296875 
Q 18.109375 17.390625 22.1875 11.75 
Q 26.265625 6.109375 33.40625 6.109375 
Q 40.53125 6.109375 44.609375 11.75 
Q 48.6875 17.390625 48.6875 27.296875 
z
" id="DejaVuSans-112"/>
     </defs>
     <g transform="translate(17.619531 298.435375)rotate(-90)scale(0.17 -0.17)">
      <use xlink:href="#DejaVuSans-70"/>
      <use x="57.410156" xlink:href="#DejaVuSans-114"/>
      <use x="98.523438" xlink:href="#DejaVuSans-97"/>
      <use x="159.802734" xlink:href="#DejaVuSans-99"/>
      <use x="214.783203" xlink:href="#DejaVuSans-116"/>
      <use x="253.992188" xlink:href="#DejaVuSans-105"/>
      <use x="281.775391" xlink:href="#DejaVuSans-111"/>
      <use x="342.957031" xlink:href="#DejaVuSans-110"/>
      <use x="406.335938" xlink:href="#DejaVuSans-32"/>
      <use x="438.123047" xlink:href="#DejaVuSans-111"/>
      <use x="499.304688" xlink:href="#DejaVuSans-102"/>
      <use x="534.509766" xlink:href="#DejaVuSans-32"/>
      <use x="566.296875" xlink:href="#DejaVuSans-102"/>
      <use x="601.501953" xlink:href="#DejaVuSans-117"/>
      <use x="664.880859" xlink:href="#DejaVuSans-110"/>
      <use x="728.259766" xlink:href="#DejaVuSans-99"/>
      <use x="783.240234" xlink:href="#DejaVuSans-116"/>
      <use x="822.449219" xlink:href="#DejaVuSans-105"/>
      <use x="850.232422" xlink:href="#DejaVuSans-111"/>
      <use x="911.414062" xlink:href="#DejaVuSans-110"/>
      <use x="974.792969" xlink:href="#DejaVuSans-44"/>
      <use x="1006.580078" xlink:href="#DejaVuSans-116"/>
      <use x="1045.789062" xlink:href="#DejaVuSans-97"/>
      <use x="1107.068359" xlink:href="#DejaVuSans-114"/>
      <use x="1148.166016" xlink:href="#DejaVuSans-103"/>
      <use x="1211.642578" xlink:href="#DejaVuSans-101"/>
      <use x="1273.166016" xlink:href="#DejaVuSans-116"/>
      <use x="1312.375" xlink:href="#DejaVuSans-32"/>
      <use x="1344.162109" xlink:href="#DejaVuSans-112"/>
      <use x="1407.638672" xlink:href="#DejaVuSans-97"/>
      <use x="1468.917969" xlink:href="#DejaVuSans-105"/>
      <use x="1496.701172" xlink:href="#DejaVuSans-114"/>
      <use x="1537.814453" xlink:href="#DejaVuSans-115"/>
     </g>
    </g>
   </g>
   <g id="line2d_33">
    <defs>
     <path d="M 0 1.5 
C 0.397805 1.5 0.77937 1.341951 1.06066 1.06066 
C 1.341951 0.77937 1.5 0.397805 1.5 0 
C 1.5 -0.397805 1.341951 -0.77937 1.06066 -1.06066 
C 0.77937 -1.341951 0.397805 -1.5 0 -1.5 
C -0.397805 -1.5 -0.77937 -1.341951 -1.06066 -1.06066 
C -1.341951 -0.77937 -1.5 -0.397805 -1.5 0 
C -1.5 0.397805 -1.341951 0.77937 -1.06066 1.06066 
C -0.77937 1.341951 -0.397805 1.5 0 1.5 
z
" id="m445be4b2b3" style="stroke:#f5deb3;"/>
    </defs>
    <g>
     <use style="fill:#f5deb3;stroke:#f5deb3;" x="141.046761" xlink:href="#m445be4b2b3" y="30.334099"/>
     <use style="fill:#f5deb3;stroke:#f5deb3;" x="141.046761" xlink:href="#m445be4b2b3" y="30.334099"/>
    </g>
   </g>
   <g id="line2d_34">
    <defs>
     <path d="M 0 1.5 
C 0.397805 1.5 0.77937 1.341951 1.06066 1.06066 
C 1.341951 0.77937 1.5 0.397805 1.5 0 
C 1.5 -0.397805 1.341951 -0.77937 1.06066 -1.06066 
C 0.77937 -1.341951 0.397805 -1.5 0 -1.5 
C -0.397805 -1.5 -0.77937 -1.341951 -1.06066 -1.06066 
C -1.341951 -0.77937 -1.5 -0.397805 -1.5 0 
C -1.5 0.397805 -1.341951 0.77937 -1.06066 1.06066 
C -0.77937 1.341951 -0.397805 1.5 0 1.5 
z
" id="m8877e4a4d3" style="stroke:#000080;"/>
    </defs>
    <g>
     <use style="fill:#000080;stroke:#000080;" x="180.403259" xlink:href="#m8877e4a4d3" y="30.334099"/>
     <use style="fill:#000080;stroke:#000080;" x="180.403259" xlink:href="#m8877e4a4d3" y="30.334099"/>
    </g>
   </g>
   <g id="line2d_35">
    <path d="M 17.444571 298.944 
L 17.444571 288.410278 
L 109.131511 288.410278 
L 109.131511 287.883592 
L 114.485807 287.883592 
L 114.552496 286.83022 
L 115.141496 286.83022 
L 115.141496 286.303534 
L 115.897107 286.303534 
L 115.958621 284.723476 
L 116.502698 284.723476 
L 116.502698 283.670104 
L 116.972471 283.670104 
L 116.972471 283.143418 
L 117.930605 283.143418 
L 117.930605 282.616732 
L 118.890808 282.616732 
L 118.890808 282.090045 
L 119.199476 282.090045 
L 119.199476 281.563359 
L 119.850084 281.563359 
L 119.850084 281.036673 
L 120.852343 281.036673 
L 120.852343 280.509987 
L 121.128432 280.509987 
L 121.128432 279.983301 
L 121.489881 279.983301 
L 121.489881 279.456615 
L 121.712041 279.456615 
L 121.712041 278.929929 
L 122.061712 278.929929 
L 122.148045 277.876557 
L 122.362027 277.876557 
L 122.362027 277.349871 
L 122.531342 277.349871 
L 122.531342 276.823185 
L 122.657258 276.823185 
L 122.657258 276.296499 
L 123.434283 276.296499 
L 123.434283 275.769812 
L 123.907776 275.769812 
L 123.907776 275.243126 
L 124.444412 275.243126 
L 124.444412 274.71644 
L 125.399222 274.71644 
L 125.399222 274.189754 
L 126.236468 274.189754 
L 126.304457 273.136382 
L 127.261631 273.136382 
L 127.261631 272.609696 
L 128.91501 272.609696 
L 128.91501 272.08301 
L 130.398313 272.08301 
L 130.398313 271.556324 
L 132.588957 271.556324 
L 132.588957 271.029638 
L 133.170708 271.029638 
L 133.170708 270.502952 
L 133.953874 270.502952 
L 133.953874 269.976266 
L 134.661403 269.976266 
L 134.661403 269.449579 
L 134.953107 269.449579 
L 134.953107 268.922893 
L 135.138086 268.922893 
L 135.138086 268.396207 
L 137.84096 268.396207 
L 137.84096 267.869521 
L 138.049816 267.869521 
L 138.049816 267.342835 
L 138.611599 267.342835 
L 138.611599 266.816149 
L 139.493548 266.816149 
L 139.588845 265.236091 
L 140.149942 265.236091 
L 140.149942 264.709405 
L 143.666219 264.709405 
L 143.666219 264.182719 
L 143.902815 264.182719 
L 143.902815 263.656033 
L 144.653267 263.656033 
L 144.653267 263.129347 
L 146.041862 263.129347 
L 146.041862 262.60266 
L 146.506074 262.60266 
L 146.506074 262.075974 
L 147.19538 262.075974 
L 147.19538 261.549288 
L 147.499916 261.549288 
L 147.499916 261.022602 
L 148.826773 261.022602 
L 148.864037 259.96923 
L 149.058374 259.96923 
L 149.131841 258.915858 
L 149.699829 258.915858 
L 149.699829 258.389172 
L 150.042389 258.389172 
L 150.042389 257.862486 
L 150.403927 257.862486 
L 150.403927 257.3358 
L 150.94908 257.3358 
L 151.047887 255.755741 
L 151.381313 255.755741 
L 151.381313 255.229055 
L 151.61336 255.229055 
L 151.61336 254.702369 
L 152.594699 254.702369 
L 152.594699 254.175683 
L 152.833495 254.175683 
L 152.833495 253.648997 
L 153.003132 253.648997 
L 153.003132 253.122311 
L 153.644434 253.122311 
L 153.644434 252.595625 
L 153.959927 252.595625 
L 153.959927 252.068939 
L 154.201424 252.068939 
L 154.269814 251.015567 
L 154.453136 251.015567 
L 154.453136 250.488881 
L 154.687945 250.488881 
L 154.687945 249.962195 
L 155.141793 249.962195 
L 155.16126 248.908822 
L 155.258271 248.908822 
L 155.361158 246.275392 
L 155.431542 246.275392 
L 155.431542 245.748706 
L 155.659924 245.748706 
L 155.659924 245.22202 
L 155.922644 245.22202 
L 155.984618 243.641962 
L 156.107908 243.641962 
L 156.199806 242.588589 
L 156.297301 242.588589 
L 156.345845 241.535217 
L 156.454576 241.535217 
L 156.454576 241.008531 
L 156.586556 241.008531 
L 156.616413 239.955159 
L 156.812195 239.955159 
L 156.812195 239.428473 
L 156.999969 239.428473 
L 156.999969 238.901787 
L 157.15106 238.901787 
L 157.179966 237.848415 
L 157.266399 237.848415 
L 157.266399 237.321729 
L 157.403807 237.321729 
L 157.415209 236.268356 
L 157.56841 236.268356 
L 157.658565 234.161612 
L 157.748256 234.161612 
L 157.748256 233.634926 
L 157.970486 233.634926 
L 158.064083 231.528182 
L 158.129851 231.528182 
L 158.129851 231.001496 
L 158.24435 231.001496 
L 158.24435 230.47481 
L 158.390468 230.47481 
L 158.492562 229.421437 
L 158.524678 229.421437 
L 158.524678 228.894751 
L 158.636623 228.894751 
L 158.73729 226.788007 
L 158.858379 226.788007 
L 158.858379 226.261321 
L 158.973421 226.261321 
L 158.98905 224.681263 
L 159.211539 224.681263 
L 159.262876 223.627891 
L 159.375289 223.627891 
L 159.466728 222.047832 
L 159.567767 222.047832 
L 159.673231 219.941088 
L 159.768105 219.941088 
L 159.867418 218.36103 
L 159.911925 218.36103 
L 159.911925 217.834344 
L 160.059466 217.834344 
L 160.152267 215.727599 
L 160.186333 215.727599 
L 160.186333 215.200913 
L 160.302628 215.200913 
L 160.355672 213.620855 
L 160.461277 213.620855 
L 160.504296 210.987425 
L 160.590016 210.987425 
L 160.604262 209.934052 
L 160.783709 209.934052 
L 160.849359 207.300622 
L 160.928745 207.300622 
L 161.012409 205.720564 
L 161.058716 205.720564 
L 161.104901 204.140506 
L 161.183135 204.140506 
L 161.251875 203.087133 
L 161.297551 203.087133 
L 161.374928 200.980389 
L 161.429341 200.980389 
L 161.53316 198.346959 
L 161.622937 198.346959 
L 161.725614 195.186842 
L 161.756743 195.186842 
L 161.827689 193.606784 
L 161.871884 193.606784 
L 161.977497 191.50004 
L 162.034438 191.50004 
L 162.139074 188.339923 
L 162.165135 188.339923 
L 162.264677 186.233179 
L 162.286241 186.233179 
L 162.372234 183.599748 
L 162.397949 183.599748 
L 162.457805 181.493004 
L 162.610782 181.493004 
L 162.720437 177.806202 
L 162.758234 177.806202 
L 162.854457 174.646085 
L 162.887802 174.646085 
L 162.995734 169.90591 
L 163.065945 169.90591 
L 163.168687 165.692422 
L 163.189163 165.692422 
L 163.262677 163.585677 
L 163.307451 163.585677 
L 163.412824 160.425561 
L 163.433016 160.425561 
L 163.517565 157.265444 
L 163.56169 157.265444 
L 163.649606 154.105328 
L 163.693398 154.105328 
L 163.7569 152.52527 
L 163.816224 152.52527 
L 163.926426 146.205037 
L 163.930348 146.205037 
L 163.989086 142.518234 
L 164.055418 142.518234 
L 164.160252 139.884804 
L 164.167992 139.884804 
L 164.264459 135.144629 
L 164.291375 135.144629 
L 164.394804 132.511199 
L 164.474827 132.511199 
L 164.569616 128.824396 
L 164.630012 128.824396 
L 164.708966 122.504163 
L 164.757663 122.504163 
L 164.858371 118.290674 
L 164.891812 118.290674 
L 164.999131 115.657244 
L 165.013882 115.657244 
L 165.120455 113.5505 
L 165.197224 113.5505 
L 165.302685 107.230267 
L 165.309935 107.230267 
L 165.371436 105.650209 
L 165.500963 105.650209 
L 165.593916 101.43672 
L 165.618857 101.43672 
L 165.7041 98.803289 
L 165.788929 98.803289 
L 165.887376 93.536429 
L 165.901395 93.536429 
L 165.925901 92.483056 
L 166.016622 92.483056 
L 166.106873 89.32294 
L 166.141461 89.32294 
L 166.213873 86.162824 
L 166.268843 86.162824 
L 166.368037 83.002707 
L 166.408919 83.002707 
L 166.442913 80.895963 
L 166.547878 80.895963 
L 166.625348 78.262532 
L 166.672336 78.262532 
L 166.725883 76.682474 
L 166.789256 76.682474 
L 166.898781 75.102416 
L 166.935137 75.102416 
L 167.024054 72.995672 
L 167.174506 72.995672 
L 167.249248 71.415613 
L 167.333356 71.415613 
L 167.417059 69.835555 
L 167.497166 69.835555 
L 167.605525 67.728811 
L 167.719528 67.728811 
L 167.791975 64.042008 
L 167.87664 64.042008 
L 167.945323 61.935264 
L 168.026147 61.935264 
L 168.081883 59.82852 
L 168.165155 59.82852 
L 168.229649 58.248461 
L 168.296958 58.248461 
L 168.300012 57.195089 
L 168.436863 57.195089 
L 168.506396 54.034973 
L 168.548585 54.034973 
L 168.64763 52.9816 
L 168.677533 52.9816 
L 168.787729 51.928228 
L 168.790698 51.928228 
L 168.882476 49.294798 
L 168.909031 49.294798 
L 168.95614 48.241426 
L 169.099626 48.241426 
L 169.189797 46.661368 
L 169.308343 46.661368 
L 169.340012 45.607995 
L 169.560096 45.607995 
L 169.608314 44.554623 
L 169.87534 44.554623 
L 169.87534 44.027937 
L 172.004852 44.027937 
L 172.004852 43.501251 
L 173.942208 43.501251 
L 173.942208 42.974565 
L 175.892364 42.974565 
L 175.892364 42.447879 
L 176.851262 42.447879 
L 176.851262 41.921193 
L 177.077894 41.921193 
L 177.077894 41.394507 
L 177.827484 41.394507 
L 177.839855 40.341135 
L 178.225994 40.341135 
L 178.29842 39.287762 
L 178.597002 39.287762 
L 178.645991 37.707704 
L 178.823893 37.707704 
L 178.823893 37.181018 
L 179.093966 37.181018 
L 179.113685 35.60096 
L 179.453585 35.60096 
L 179.453585 35.074274 
L 179.617095 35.074274 
L 179.712566 34.020902 
L 179.812251 34.020902 
L 179.894103 32.440843 
L 180.05822 32.440843 
L 180.05822 31.914157 
L 180.186867 31.914157 
L 180.186867 31.387471 
L 180.306905 31.387471 
L 180.403259 30.334099 
L 338.688 30.334099 
L 338.688 30.334099 
" style="fill:none;stroke:#000080;stroke-linecap:square;stroke-width:1.5;"/>
   </g>
   <g id="line2d_36">
    <defs>
     <path d="M 0 6 
C 1.591219 6 3.117479 5.367802 4.242641 4.242641 
C 5.367802 3.117479 6 1.591219 6 0 
C 6 -1.591219 5.367802 -3.117479 4.242641 -4.242641 
C 3.117479 -5.367802 1.591219 -6 0 -6 
C -1.591219 -6 -3.117479 -5.367802 -4.242641 -4.242641 
C -5.367802 -3.117479 -6 -1.591219 -6 0 
C -6 1.591219 -5.367802 3.117479 -4.242641 4.242641 
C -3.117479 5.367802 -1.591219 6 0 6 
z
" id="m5f83b28abf" style="stroke:#000080;stroke-width:1.5;"/>
    </defs>
    <g>
     <use style="fill-opacity:0;stroke:#000080;stroke-width:1.5;" x="128.91501" xlink:href="#m5f83b28abf" y="272.609696"/>
     <use style="fill-opacity:0;stroke:#000080;stroke-width:1.5;" x="163.123555" xlink:href="#m5f83b28abf" y="168.325852"/>
     <use style="fill-opacity:0;stroke:#000080;stroke-width:1.5;" x="180.403259" xlink:href="#m5f83b28abf" y="30.860785"/>
     <use style="fill-opacity:0;stroke:#000080;stroke-width:1.5;" x="180.403259" xlink:href="#m5f83b28abf" y="30.334099"/>
     <use style="fill-opacity:0;stroke:#000080;stroke-width:1.5;" x="180.403259" xlink:href="#m5f83b28abf" y="30.334099"/>
     <use style="fill-opacity:0;stroke:#000080;stroke-width:1.5;" x="338.688" xlink:href="#m5f83b28abf" y="30.334099"/>
    </g>
   </g>
   <g id="line2d_37">
    <path style="fill:none;stroke:#000080;stroke-linecap:square;stroke-width:1.5;"/>
    <g/>
   </g>
   <g id="line2d_38">
    <g>
     <use style="fill:#000080;stroke:#000080;" x="168.545575" xlink:href="#m8877e4a4d3" y="30.334099"/>
     <use style="fill:#000080;stroke:#000080;" x="168.545575" xlink:href="#m8877e4a4d3" y="30.334099"/>
    </g>
   </g>
   <g id="line2d_39">
    <path d="M 17.444571 298.944 
L 17.444571 288.410278 
L 112.506763 288.410278 
L 112.506763 287.883592 
L 112.877038 287.883592 
L 112.877038 287.356906 
L 113.594805 287.356906 
L 113.594805 286.83022 
L 113.942906 286.83022 
L 113.942906 285.250162 
L 116.739166 285.250162 
L 116.739166 284.723476 
L 117.709852 284.723476 
L 117.765302 282.616732 
L 118.094355 282.616732 
L 118.202674 281.036673 
L 119.351785 281.036673 
L 119.351785 280.509987 
L 119.65247 280.509987 
L 119.65247 279.456615 
L 119.80089 279.456615 
L 119.80089 278.929929 
L 120.045484 278.929929 
L 120.093994 277.876557 
L 120.238719 277.876557 
L 120.238719 277.349871 
L 120.990934 277.349871 
L 121.036887 276.296499 
L 122.362027 276.296499 
L 122.362027 275.769812 
L 123.07053 275.769812 
L 123.111324 274.71644 
L 123.273551 274.71644 
L 123.273551 274.189754 
L 123.593547 274.189754 
L 123.633136 273.136382 
L 124.444412 273.136382 
L 124.444412 272.609696 
L 124.557288 272.609696 
L 124.557288 272.08301 
L 124.780872 272.08301 
L 124.817858 271.029638 
L 125.434921 271.029638 
L 125.434921 270.502952 
L 126.806101 270.502952 
L 126.904721 268.922893 
L 129.714332 268.922893 
L 129.714332 268.396207 
L 130.796184 268.396207 
L 130.796184 267.869521 
L 134.953107 267.869521 
L 134.953107 267.342835 
L 135.542259 267.342835 
L 135.542259 266.816149 
L 138.67848 266.816149 
L 138.67848 266.289463 
L 139.009092 266.289463 
L 139.009092 265.762777 
L 141.45 265.762777 
L 141.45 265.236091 
L 143.952218 265.236091 
L 143.952218 264.182719 
L 144.970247 264.182719 
L 144.970247 263.656033 
L 146.019967 263.656033 
L 146.019967 263.129347 
L 147.19538 263.129347 
L 147.19538 262.60266 
L 147.509976 262.60266 
L 147.509976 262.075974 
L 147.650212 262.075974 
L 147.650212 261.549288 
L 147.986163 261.549288 
L 147.986163 261.022602 
L 148.563676 261.022602 
L 148.563676 260.495916 
L 149.797132 260.495916 
L 149.797132 259.96923 
L 150.891184 259.96923 
L 150.891184 259.442544 
L 151.162458 259.442544 
L 151.162458 258.915858 
L 151.316753 258.915858 
L 151.357131 257.862486 
L 151.747966 257.862486 
L 151.747966 257.3358 
L 152.55709 257.3358 
L 152.654705 256.282427 
L 153.207444 256.282427 
L 153.207444 255.755741 
L 153.48809 255.755741 
L 153.495227 254.702369 
L 153.651507 254.702369 
L 153.651507 254.175683 
L 153.764292 254.175683 
L 153.764292 253.648997 
L 153.925152 253.648997 
L 153.925152 253.122311 
L 154.112115 253.122311 
L 154.112115 252.595625 
L 154.71458 252.595625 
L 154.71458 252.068939 
L 155.277608 252.068939 
L 155.341913 251.015567 
L 155.501643 251.015567 
L 155.508002 249.962195 
L 155.678822 249.962195 
L 155.678822 249.435508 
L 155.897793 249.435508 
L 155.897793 248.908822 
L 156.199806 248.908822 
L 156.230332 247.85545 
L 156.49067 247.85545 
L 156.49067 247.328764 
L 156.622378 247.328764 
L 156.622378 246.802078 
L 156.847557 246.802078 
L 156.847557 246.275392 
L 156.976607 246.275392 
L 157.052418 245.22202 
L 157.139484 245.22202 
L 157.139484 244.695334 
L 157.369557 244.695334 
L 157.369557 244.168648 
L 157.551454 244.168648 
L 157.551454 243.641962 
L 157.748256 243.641962 
L 157.748256 243.115275 
L 157.959442 243.115275 
L 157.959442 242.588589 
L 158.249784 242.588589 
L 158.341898 241.008531 
L 158.444276 241.008531 
L 158.540715 239.428473 
L 158.588735 239.428473 
L 158.657864 238.375101 
L 159.035853 238.375101 
L 159.0618 237.321729 
L 159.149734 237.321729 
L 159.252621 235.214984 
L 159.385473 235.214984 
L 159.436301 233.634926 
L 159.633129 233.634926 
L 159.698248 231.528182 
L 159.812866 231.528182 
L 159.877318 230.47481 
L 159.961244 230.47481 
L 160.015335 228.894751 
L 160.079044 228.894751 
L 160.166875 227.314693 
L 160.225184 227.314693 
L 160.307457 225.734635 
L 160.379729 225.734635 
L 160.379729 225.207949 
L 160.513841 225.207949 
L 160.623238 224.154577 
L 160.627979 224.154577 
L 160.656397 223.101204 
L 160.741375 223.101204 
L 160.793103 222.047832 
L 160.86807 222.047832 
L 160.961329 219.941088 
L 161.040208 219.941088 
L 161.12334 217.834344 
L 161.192316 217.834344 
L 161.302112 215.727599 
L 161.365843 215.727599 
L 161.456484 214.147541 
L 161.555647 214.147541 
L 161.61398 212.040797 
L 161.716709 212.040797 
L 161.809979 209.407366 
L 161.92477 209.407366 
L 162.021314 205.720564 
L 162.043181 205.720564 
L 162.112973 203.613819 
L 162.277619 203.613819 
L 162.350776 202.033761 
L 162.406513 202.033761 
L 162.462072 199.400331 
L 162.534461 199.400331 
L 162.631923 196.240214 
L 162.653039 196.240214 
L 162.728843 194.13347 
L 162.821048 194.13347 
L 162.912768 190.446667 
L 162.987455 190.446667 
L 163.082425 185.179807 
L 163.115337 185.179807 
L 163.201437 181.493004 
L 163.234125 181.493004 
L 163.339941 178.332888 
L 163.36427 178.332888 
L 163.449152 173.066027 
L 163.489428 173.066027 
L 163.577708 169.90591 
L 163.609699 169.90591 
L 163.669525 167.27248 
L 163.725178 167.27248 
L 163.820172 163.585677 
L 163.855662 163.585677 
L 163.965615 159.372189 
L 164.00081 159.372189 
L 164.059312 155.685386 
L 164.117618 155.685386 
L 164.218222 151.471897 
L 164.237502 151.471897 
L 164.325919 148.838467 
L 164.371873 148.838467 
L 164.482429 145.678351 
L 164.497624 145.678351 
L 164.577177 142.518234 
L 164.622474 142.518234 
L 164.712717 139.884804 
L 164.738949 139.884804 
L 164.843488 134.091257 
L 164.869525 134.091257 
L 164.958502 130.93114 
L 164.980675 130.93114 
L 165.09112 124.610907 
L 165.127781 124.610907 
L 165.186277 122.504163 
L 165.244578 122.504163 
L 165.313559 118.817361 
L 165.356985 118.817361 
L 165.46508 110.917069 
L 165.468672 110.917069 
L 165.576079 106.703581 
L 165.604609 106.703581 
L 165.707643 101.43672 
L 165.718267 101.43672 
L 165.820633 95.116487 
L 165.834706 95.116487 
L 165.936393 93.009743 
L 165.950372 93.009743 
L 166.058334 88.269568 
L 166.086087 88.269568 
L 166.151824 84.582765 
L 166.200103 84.582765 
L 166.296264 81.949335 
L 166.330478 81.949335 
L 166.439517 76.682474 
L 166.442913 76.682474 
L 166.544502 72.995672 
L 166.554628 72.995672 
L 166.658924 68.255497 
L 166.722541 68.255497 
L 166.822518 63.515322 
L 166.859033 63.515322 
L 166.941739 59.82852 
L 166.978005 59.82852 
L 167.053592 55.615031 
L 167.096171 55.615031 
L 167.203791 51.928228 
L 167.229781 51.928228 
L 167.339809 49.294798 
L 167.352708 49.294798 
L 167.458761 45.607995 
L 167.474773 45.607995 
L 167.541866 43.501251 
L 167.640438 43.501251 
L 167.744761 40.341135 
L 167.826518 40.341135 
L 167.901647 37.181018 
L 167.964008 37.181018 
L 168.069513 35.074274 
L 168.174383 35.074274 
L 168.281683 32.967529 
L 168.330516 32.967529 
L 168.436863 31.387471 
L 168.518461 31.387471 
L 168.545575 30.334099 
L 338.688 30.334099 
L 338.688 30.334099 
" style="fill:none;stroke:#000080;stroke-linecap:square;stroke-width:1.5;"/>
   </g>
   <g id="line2d_40">
    <g>
     <use style="fill-opacity:0;stroke:#000080;stroke-width:1.5;" x="141.45" xlink:href="#m5f83b28abf" y="265.762777"/>
     <use style="fill-opacity:0;stroke:#000080;stroke-width:1.5;" x="166.601807" xlink:href="#m5f83b28abf" y="71.415613"/>
     <use style="fill-opacity:0;stroke:#000080;stroke-width:1.5;" x="168.545575" xlink:href="#m5f83b28abf" y="30.860785"/>
     <use style="fill-opacity:0;stroke:#000080;stroke-width:1.5;" x="168.545575" xlink:href="#m5f83b28abf" y="30.334099"/>
     <use style="fill-opacity:0;stroke:#000080;stroke-width:1.5;" x="168.545575" xlink:href="#m5f83b28abf" y="30.334099"/>
     <use style="fill-opacity:0;stroke:#000080;stroke-width:1.5;" x="338.688" xlink:href="#m5f83b28abf" y="30.334099"/>
    </g>
   </g>
   <g id="line2d_41">
    <path style="fill:none;stroke:#000080;stroke-linecap:square;stroke-width:1.5;"/>
    <g/>
   </g>
   <g id="line2d_42">
    <defs>
     <path d="M 0 1.5 
C 0.397805 1.5 0.77937 1.341951 1.06066 1.06066 
C 1.341951 0.77937 1.5 0.397805 1.5 0 
C 1.5 -0.397805 1.341951 -0.77937 1.06066 -1.06066 
C 0.77937 -1.341951 0.397805 -1.5 0 -1.5 
C -0.397805 -1.5 -0.77937 -1.341951 -1.06066 -1.06066 
C -1.341951 -0.77937 -1.5 -0.397805 -1.5 0 
C -1.5 0.397805 -1.341951 0.77937 -1.06066 1.06066 
C -0.77937 1.341951 -0.397805 1.5 0 1.5 
z
" id="m4929598dbf" style="stroke:#ff00ff;"/>
    </defs>
    <g>
     <use style="fill:#ff00ff;stroke:#ff00ff;" x="176.742477" xlink:href="#m4929598dbf" y="30.334099"/>
     <use style="fill:#ff00ff;stroke:#ff00ff;" x="176.742477" xlink:href="#m4929598dbf" y="30.334099"/>
    </g>
   </g>
   <g id="line2d_43">
    <path d="M 17.444571 298.944 
L 17.444571 288.410278 
L 108.483824 288.410278 
L 108.483824 287.883592 
L 111.974805 287.883592 
L 111.974805 287.356906 
L 115.141496 287.356906 
L 115.141496 286.83022 
L 115.523393 286.83022 
L 115.523393 286.303534 
L 115.773423 286.303534 
L 115.773423 285.776848 
L 117.030313 285.776848 
L 117.030313 285.250162 
L 117.709852 285.250162 
L 117.709852 284.723476 
L 118.148599 284.723476 
L 118.148599 284.19679 
L 119.45259 284.19679 
L 119.552816 283.143418 
L 119.948058 283.143418 
L 119.948058 282.616732 
L 120.238719 282.616732 
L 120.238719 282.090045 
L 120.990934 282.090045 
L 120.990934 281.563359 
L 121.756135 281.563359 
L 121.800118 280.509987 
L 121.974949 280.509987 
L 122.061712 279.456615 
L 123.394238 279.456615 
L 123.394238 278.929929 
L 123.553867 278.929929 
L 123.553867 278.403243 
L 124.062793 278.403243 
L 124.101333 277.349871 
L 125.147256 277.349871 
L 125.147256 276.823185 
L 125.327602 276.823185 
L 125.327602 276.296499 
L 125.927192 276.296499 
L 125.927192 275.243126 
L 126.405947 275.243126 
L 126.47328 274.189754 
L 126.740043 274.189754 
L 126.740043 273.663068 
L 127.197279 273.663068 
L 127.197279 273.136382 
L 127.357715 273.136382 
L 127.357715 272.609696 
L 127.736845 272.609696 
L 127.736845 272.08301 
L 127.861412 272.08301 
L 127.861412 271.556324 
L 129.433047 271.556324 
L 129.433047 271.029638 
L 129.963666 271.029638 
L 129.963666 270.502952 
L 130.76994 270.502952 
L 130.874681 269.449579 
L 130.900768 269.449579 
L 130.900768 268.922893 
L 132.326708 268.922893 
L 132.326708 268.396207 
L 134.703375 268.396207 
L 134.703375 267.869521 
L 135.300881 267.869521 
L 135.300881 267.342835 
L 145.132366 267.342835 
L 145.132366 266.816149 
L 149.095146 266.816149 
L 149.095146 266.289463 
L 149.752971 266.289463 
L 149.823575 265.236091 
L 150.085825 265.236091 
L 150.085825 264.709405 
L 150.990318 264.709405 
L 150.990318 264.182719 
L 151.429577 264.182719 
L 151.429577 263.656033 
L 151.60541 263.656033 
L 151.60541 263.129347 
L 153.911223 263.129347 
L 153.911223 262.60266 
L 154.36511 262.60266 
L 154.36511 262.075974 
L 155.096285 262.075974 
L 155.096285 261.549288 
L 155.854218 261.549288 
L 155.916435 260.495916 
L 156.941506 260.495916 
L 156.941506 259.96923 
L 157.725877 259.96923 
L 157.826359 258.915858 
L 158.168101 258.915858 
L 158.168101 258.389172 
L 158.433528 258.389172 
L 158.433528 257.862486 
L 158.551397 257.862486 
L 158.551397 257.3358 
L 158.710855 257.3358 
L 158.710855 256.809114 
L 159.847601 256.809114 
L 159.956318 255.755741 
L 160.413354 255.755741 
L 160.413354 255.229055 
L 160.585265 255.229055 
L 160.585265 254.702369 
L 161.343109 254.702369 
L 161.343109 254.175683 
L 161.519653 254.175683 
L 161.519653 253.648997 
L 161.796686 253.648997 
L 161.893939 252.595625 
L 162.139074 252.595625 
L 162.139074 252.068939 
L 162.264677 252.068939 
L 162.264677 251.542253 
L 162.449267 251.542253 
L 162.530211 250.488881 
L 163.15639 250.488881 
L 163.258601 249.435508 
L 163.477355 249.435508 
L 163.569701 248.382136 
L 163.609699 248.382136 
L 163.66156 246.802078 
L 163.89501 246.802078 
L 163.9617 245.22202 
L 164.19892 245.22202 
L 164.19892 244.695334 
L 164.429145 244.695334 
L 164.429145 244.168648 
L 164.708966 244.168648 
L 164.813684 242.588589 
L 164.906654 242.588589 
L 164.962199 241.008531 
L 165.432722 241.008531 
L 165.508131 239.428473 
L 165.640207 239.428473 
L 165.640207 238.901787 
L 165.778348 238.901787 
L 165.820633 237.848415 
L 166.058334 237.848415 
L 166.169082 236.268356 
L 166.275702 236.268356 
L 166.34073 234.161612 
L 166.541125 234.161612 
L 166.541125 233.634926 
L 166.65557 233.634926 
L 166.702476 232.054868 
L 167.11252 232.054868 
L 167.190782 230.47481 
L 167.30752 230.47481 
L 167.413847 228.368065 
L 167.573724 228.368065 
L 167.678446 226.788007 
L 167.898523 226.788007 
L 167.991998 224.681263 
L 168.075699 224.681263 
L 168.131278 223.627891 
L 168.324419 223.627891 
L 168.424741 220.99446 
L 168.455028 220.99446 
L 168.476198 219.414402 
L 168.581663 219.414402 
L 168.674545 217.307658 
L 168.814429 217.307658 
L 168.876569 216.254285 
L 168.941432 216.254285 
L 169.044129 213.620855 
L 169.061673 213.620855 
L 169.16076 212.040797 
L 169.221681 212.040797 
L 169.325624 209.407366 
L 169.368752 209.407366 
L 169.440395 207.827308 
L 169.488944 207.827308 
L 169.511744 205.193878 
L 169.608314 205.193878 
L 169.7128 202.560447 
L 169.726872 202.560447 
L 169.802665 201.507075 
L 169.894855 201.507075 
L 170.003182 198.873645 
L 170.022555 198.873645 
L 170.127345 195.186842 
L 170.143834 195.186842 
L 170.182246 192.553412 
L 170.26973 192.553412 
L 170.26973 192.026726 
L 170.386599 192.026726 
L 170.491924 188.866609 
L 170.510761 188.866609 
L 170.591263 186.233179 
L 170.623359 186.233179 
L 170.644724 184.653121 
L 170.735235 184.653121 
L 170.822637 179.38626 
L 170.854311 179.38626 
L 170.956857 175.699457 
L 170.983054 175.699457 
L 171.084848 172.539341 
L 171.095254 172.539341 
L 171.191225 168.852538 
L 171.209322 168.852538 
L 171.304668 165.165736 
L 171.338045 165.165736 
L 171.379036 163.585677 
L 171.455636 163.585677 
L 171.557249 161.478933 
L 171.585089 161.478933 
L 171.680924 158.318817 
L 171.708567 158.318817 
L 171.73366 154.632014 
L 171.831177 154.632014 
L 171.86605 150.418525 
L 171.947978 150.418525 
L 172.05908 144.624978 
L 172.066461 144.624978 
L 172.176814 140.938176 
L 172.225636 140.938176 
L 172.330143 136.724687 
L 172.344676 136.724687 
L 172.455693 130.404454 
L 172.462909 130.404454 
L 172.534903 124.610907 
L 172.58751 124.610907 
L 172.689877 120.397419 
L 172.708856 120.397419 
L 172.8058 115.657244 
L 172.822298 115.657244 
L 172.932666 108.810325 
L 172.942027 108.810325 
L 173.040014 103.016778 
L 173.063263 103.016778 
L 173.172121 98.276603 
L 173.181355 98.276603 
L 173.241252 94.589801 
L 173.298652 94.589801 
L 173.39694 90.376312 
L 173.410611 90.376312 
L 173.510537 86.68951 
L 173.567059 86.68951 
L 173.66385 78.789218 
L 173.740004 78.789218 
L 173.82695 73.522358 
L 173.858056 73.522358 
L 173.926737 70.888927 
L 173.981928 70.888927 
L 174.085216 64.042008 
L 174.124612 64.042008 
L 174.194431 60.881892 
L 174.240098 60.881892 
L 174.266139 57.721775 
L 174.352665 57.721775 
L 174.430173 51.401542 
L 174.473085 51.401542 
L 174.528713 49.821484 
L 174.607571 49.821484 
L 174.717799 47.188054 
L 174.728361 47.188054 
L 174.797912 45.607995 
L 174.84832 45.607995 
L 174.954957 42.974565 
L 174.973708 42.974565 
L 175.052656 41.394507 
L 175.094065 41.394507 
L 175.188934 38.761076 
L 175.273058 38.761076 
L 175.273058 37.707704 
L 175.523022 37.707704 
L 175.623618 36.127646 
L 175.655687 36.127646 
L 175.703679 34.547588 
L 175.805227 34.547588 
L 175.805227 34.020902 
L 175.925915 34.020902 
L 175.925915 32.967529 
L 176.311997 32.967529 
L 176.311997 32.440843 
L 176.446471 32.440843 
L 176.446471 31.914157 
L 176.583714 31.914157 
L 176.583714 31.387471 
L 176.721769 31.387471 
L 176.742477 30.334099 
L 338.688 30.334099 
L 338.688 30.334099 
" style="fill:none;stroke:#ff00ff;stroke-linecap:square;stroke-width:1.5;"/>
   </g>
   <g id="line2d_44">
    <defs>
     <path d="M -0 8.485281 
L 5.091169 0 
L 0 -8.485281 
L -5.091169 -0 
z
" id="m6d2ffbcf7f" style="stroke:#ff00ff;stroke-linejoin:miter;stroke-width:1.5;"/>
    </defs>
    <g>
     <use style="fill-opacity:0;stroke:#ff00ff;stroke-linejoin:miter;stroke-width:1.5;" x="115.773423" xlink:href="#m6d2ffbcf7f" y="286.303534"/>
     <use style="fill-opacity:0;stroke:#ff00ff;stroke-linejoin:miter;stroke-width:1.5;" x="171.180875" xlink:href="#m6d2ffbcf7f" y="170.432596"/>
     <use style="fill-opacity:0;stroke:#ff00ff;stroke-linejoin:miter;stroke-width:1.5;" x="176.742477" xlink:href="#m6d2ffbcf7f" y="30.860785"/>
     <use style="fill-opacity:0;stroke:#ff00ff;stroke-linejoin:miter;stroke-width:1.5;" x="176.742477" xlink:href="#m6d2ffbcf7f" y="30.334099"/>
     <use style="fill-opacity:0;stroke:#ff00ff;stroke-linejoin:miter;stroke-width:1.5;" x="176.742477" xlink:href="#m6d2ffbcf7f" y="30.334099"/>
     <use style="fill-opacity:0;stroke:#ff00ff;stroke-linejoin:miter;stroke-width:1.5;" x="338.688" xlink:href="#m6d2ffbcf7f" y="30.334099"/>
    </g>
   </g>
   <g id="line2d_45">
    <path style="fill:none;stroke:#ff00ff;stroke-linecap:square;stroke-width:1.5;"/>
    <g/>
   </g>
   <g id="line2d_46">
    <defs>
     <path d="M 0 1.5 
C 0.397805 1.5 0.77937 1.341951 1.06066 1.06066 
C 1.341951 0.77937 1.5 0.397805 1.5 0 
C 1.5 -0.397805 1.341951 -0.77937 1.06066 -1.06066 
C 0.77937 -1.341951 0.397805 -1.5 0 -1.5 
C -0.397805 -1.5 -0.77937 -1.341951 -1.06066 -1.06066 
C -1.341951 -0.77937 -1.5 -0.397805 -1.5 0 
C -1.5 0.397805 -1.341951 0.77937 -1.06066 1.06066 
C -0.77937 1.341951 -0.397805 1.5 0 1.5 
z
" id="m99dc23efe3" style="stroke:#ff0000;"/>
    </defs>
    <g>
     <use style="fill:#ff0000;stroke:#ff0000;" x="171.476006" xlink:href="#m99dc23efe3" y="30.334099"/>
     <use style="fill:#ff0000;stroke:#ff0000;" x="171.476006" xlink:href="#m99dc23efe3" y="30.334099"/>
    </g>
   </g>
   <g id="line2d_47">
    <path d="M 17.444571 298.944 
L 17.444571 288.410278 
L 111.266113 288.410278 
L 111.266113 287.883592 
L 111.74176 287.883592 
L 111.74176 287.356906 
L 113.239614 287.356906 
L 113.239614 286.83022 
L 113.873839 286.83022 
L 113.942906 285.776848 
L 115.397021 285.776848 
L 115.397021 285.250162 
L 115.586238 285.250162 
L 115.586238 284.723476 
L 115.897107 284.723476 
L 115.897107 284.19679 
L 116.202531 284.19679 
L 116.262979 283.143418 
L 117.145424 283.143418 
L 117.145424 282.090045 
L 117.316679 282.090045 
L 117.316679 281.563359 
L 117.765302 281.563359 
L 117.875678 280.509987 
L 118.094355 280.509987 
L 118.094355 279.983301 
L 118.576578 279.983301 
L 118.576578 279.456615 
L 118.890808 279.456615 
L 118.890808 278.929929 
L 119.40226 278.929929 
L 119.40226 278.403243 
L 119.702083 278.403243 
L 119.702083 277.349871 
L 120.238719 277.349871 
L 120.238719 276.823185 
L 120.712642 276.823185 
L 120.712642 276.296499 
L 121.264855 276.296499 
L 121.264855 275.769812 
L 121.712041 275.769812 
L 121.712041 275.243126 
L 122.148045 275.243126 
L 122.148045 274.71644 
L 122.489167 274.71644 
L 122.489167 274.189754 
L 122.865118 274.189754 
L 122.865118 273.663068 
L 123.233135 273.663068 
L 123.233135 273.136382 
L 123.394238 273.136382 
L 123.394238 272.609696 
L 124.178158 272.609696 
L 124.178158 272.08301 
L 124.444412 272.08301 
L 124.444412 271.556324 
L 124.743806 271.556324 
L 124.743806 271.029638 
L 126.338353 271.029638 
L 126.338353 270.502952 
L 126.607172 270.502952 
L 126.607172 269.976266 
L 126.740043 269.976266 
L 126.740043 269.449579 
L 127.54831 269.449579 
L 127.54831 268.922893 
L 128.381113 268.922893 
L 128.381113 268.396207 
L 128.560901 268.396207 
L 128.560901 267.869521 
L 130.425122 267.869521 
L 130.425122 267.342835 
L 138.510793 267.342835 
L 138.510793 266.816149 
L 142.459451 266.816149 
L 142.539878 265.762777 
L 143.324386 265.762777 
L 143.324386 265.236091 
L 143.666219 265.236091 
L 143.666219 264.709405 
L 145.109299 264.709405 
L 145.109299 264.182719 
L 146.140051 264.182719 
L 146.140051 263.656033 
L 147.174888 263.656033 
L 147.174888 263.129347 
L 147.630247 263.129347 
L 147.630247 262.60266 
L 147.986163 262.60266 
L 147.986163 262.075974 
L 150.335638 262.075974 
L 150.335638 261.549288 
L 150.749772 261.549288 
L 150.749772 261.022602 
L 151.509721 261.022602 
L 151.557631 259.96923 
L 151.684751 259.96923 
L 151.684751 259.442544 
L 152.526944 259.442544 
L 152.526944 258.915858 
L 152.714506 258.915858 
L 152.714506 258.389172 
L 154.344733 258.389172 
L 154.344733 257.862486 
L 154.727882 257.862486 
L 154.727882 257.3358 
L 154.945917 257.3358 
L 155.050658 256.282427 
L 155.154773 256.282427 
L 155.206599 254.702369 
L 155.495282 254.702369 
L 155.495282 254.175683 
L 155.791779 254.175683 
L 155.791779 253.648997 
L 156.345845 253.648997 
L 156.345845 253.122311 
L 156.646219 253.122311 
L 156.646219 252.595625 
L 156.988292 252.595625 
L 156.988292 252.068939 
L 157.122105 252.068939 
L 157.122105 251.542253 
L 157.630442 251.542253 
L 157.630442 251.015567 
L 157.998067 251.015567 
L 158.053098 249.435508 
L 158.146254 249.435508 
L 158.24435 247.85545 
L 158.51933 247.85545 
L 158.51933 247.328764 
L 158.636623 247.328764 
L 158.636623 246.802078 
L 158.915995 246.802078 
L 158.915995 246.275392 
L 159.319173 246.275392 
L 159.319173 245.748706 
L 159.492042 245.748706 
L 159.492042 245.22202 
L 159.733212 245.22202 
L 159.733212 244.695334 
L 159.931669 244.695334 
L 159.931669 244.168648 
L 160.098601 244.168648 
L 160.098601 243.641962 
L 160.220333 243.641962 
L 160.321935 242.061903 
L 160.764907 242.061903 
L 160.764907 241.535217 
L 160.886762 241.535217 
L 160.886762 241.008531 
L 161.02168 241.008531 
L 161.114123 239.955159 
L 161.160161 239.955159 
L 161.233571 238.375101 
L 161.424813 238.375101 
L 161.424813 237.848415 
L 161.596053 237.848415 
L 161.596053 237.321729 
L 161.747855 237.321729 
L 161.747855 236.795043 
L 161.871884 236.795043 
L 161.871884 236.268356 
L 162.021314 236.268356 
L 162.047552 235.214984 
L 162.225793 235.214984 
L 162.320689 233.634926 
L 162.337888 233.634926 
L 162.440724 231.528182 
L 162.50469 231.528182 
L 162.50469 231.001496 
L 162.682557 231.001496 
L 162.682557 230.47481 
L 162.821048 230.47481 
L 162.916926 228.368065 
L 162.970886 228.368065 
L 163.061823 226.261321 
L 163.148187 226.261321 
L 163.148187 225.734635 
L 163.262677 225.734635 
L 163.319642 224.154577 
L 163.424942 224.154577 
L 163.52961 222.047832 
L 163.545657 222.047832 
L 163.593711 220.99446 
L 163.89501 220.99446 
L 163.985177 218.887716 
L 164.059312 218.887716 
L 164.152508 216.780971 
L 164.202782 216.780971 
L 164.310575 214.147541 
L 164.368048 214.147541 
L 164.368048 213.620855 
L 164.486229 213.620855 
L 164.524182 212.567483 
L 164.663893 212.567483 
L 164.723964 208.88068 
L 164.79503 208.88068 
L 164.854652 207.300622 
L 164.921483 207.300622 
L 164.995441 205.720564 
L 165.039666 205.720564 
L 165.14974 202.033761 
L 165.153397 202.033761 
L 165.219096 200.453703 
L 165.302685 200.453703 
L 165.302685 199.927017 
L 165.454301 199.927017 
L 165.561796 195.186842 
L 165.572509 195.186842 
L 165.679281 192.553412 
L 165.7041 192.553412 
L 165.813593 186.233179 
L 165.817113 186.233179 
L 165.911902 184.126434 
L 165.950372 184.126434 
L 166.054862 180.439632 
L 166.065276 180.439632 
L 166.162181 178.332888 
L 166.182876 178.332888 
L 166.255117 174.119399 
L 166.296264 174.119399 
L 166.378267 169.379224 
L 166.432722 169.379224 
L 166.541125 167.27248 
L 166.547878 167.27248 
L 166.632069 163.058991 
L 166.682389 163.058991 
L 166.789256 158.845503 
L 166.829163 158.845503 
L 166.895472 156.212072 
L 166.941739 156.212072 
L 167.050313 150.418525 
L 167.073257 150.418525 
L 167.164734 147.785095 
L 167.197288 147.785095 
L 167.304287 144.624978 
L 167.310751 144.624978 
L 167.420271 141.464862 
L 167.426692 141.464862 
L 167.535487 137.251373 
L 167.586452 137.251373 
L 167.691097 133.564571 
L 167.710056 133.564571 
L 167.813965 128.29771 
L 167.826518 128.29771 
L 167.935973 123.557535 
L 167.945323 123.557535 
L 168.054037 117.763988 
L 168.063324 117.763988 
L 168.162078 114.077186 
L 168.180533 114.077186 
L 168.281683 107.756953 
L 168.300012 107.756953 
L 168.388327 103.016778 
L 168.433833 103.016778 
L 168.539553 96.696545 
L 168.566635 96.696545 
L 168.668567 90.902998 
L 168.737185 90.902998 
L 168.847006 85.109451 
L 168.85588 85.109451 
L 168.929657 80.369277 
L 168.967898 80.369277 
L 169.044129 76.155788 
L 169.093793 76.155788 
L 169.186895 70.888927 
L 169.210094 70.888927 
L 169.316986 68.782183 
L 169.331381 68.782183 
L 169.440395 62.988636 
L 169.443254 62.988636 
L 169.525979 60.881892 
L 169.58564 60.881892 
L 169.69308 56.141717 
L 169.698717 56.141717 
L 169.802665 52.9816 
L 169.830653 52.9816 
L 169.925477 49.294798 
L 169.953269 49.294798 
L 170.008719 46.661368 
L 170.157562 46.661368 
L 170.226043 43.501251 
L 170.28336 43.501251 
L 170.329621 41.394507 
L 170.408256 41.394507 
L 170.508071 39.814448 
L 170.529578 39.814448 
L 170.626031 36.654332 
L 170.660731 36.654332 
L 170.759116 34.547588 
L 170.796198 34.547588 
L 170.875396 33.494215 
L 171.014438 33.494215 
L 171.118647 32.440843 
L 171.224819 32.440843 
L 171.224819 31.914157 
L 171.445442 31.914157 
L 171.476006 30.334099 
L 338.688 30.334099 
L 338.688 30.334099 
" style="fill:none;stroke:#ff0000;stroke-linecap:square;stroke-width:1.5;"/>
   </g>
   <g id="line2d_48">
    <defs>
     <path d="M 0 -6 
L -5.196152 -3 
L -5.196152 3 
L -0 6 
L 5.196152 3 
L 5.196152 -3 
z
" id="md59cc51edc" style="stroke:#ff0000;stroke-linejoin:miter;stroke-width:1.5;"/>
    </defs>
    <g>
     <use style="fill-opacity:0;stroke:#ff0000;stroke-linejoin:miter;stroke-width:1.5;" x="166.845764" xlink:href="#md59cc51edc" y="157.79213"/>
     <use style="fill-opacity:0;stroke:#ff0000;stroke-linejoin:miter;stroke-width:1.5;" x="171.476006" xlink:href="#md59cc51edc" y="30.860785"/>
     <use style="fill-opacity:0;stroke:#ff0000;stroke-linejoin:miter;stroke-width:1.5;" x="171.476006" xlink:href="#md59cc51edc" y="30.334099"/>
     <use style="fill-opacity:0;stroke:#ff0000;stroke-linejoin:miter;stroke-width:1.5;" x="171.476006" xlink:href="#md59cc51edc" y="30.334099"/>
     <use style="fill-opacity:0;stroke:#ff0000;stroke-linejoin:miter;stroke-width:1.5;" x="338.688" xlink:href="#md59cc51edc" y="30.334099"/>
    </g>
   </g>
   <g id="line2d_49">
    <path style="fill:none;stroke:#ff0000;stroke-linecap:square;stroke-width:1.5;"/>
    <g/>
   </g>
   <g id="line2d_50">
    <defs>
     <path d="M 0 1.5 
C 0.397805 1.5 0.77937 1.341951 1.06066 1.06066 
C 1.341951 0.77937 1.5 0.397805 1.5 0 
C 1.5 -0.397805 1.341951 -0.77937 1.06066 -1.06066 
C 0.77937 -1.341951 0.397805 -1.5 0 -1.5 
C -0.397805 -1.5 -0.77937 -1.341951 -1.06066 -1.06066 
C -1.341951 -0.77937 -1.5 -0.397805 -1.5 0 
C -1.5 0.397805 -1.341951 0.77937 -1.06066 1.06066 
C -0.77937 1.341951 -0.397805 1.5 0 1.5 
z
" id="me2e9769a5c" style="stroke:#ff7500;"/>
    </defs>
    <g>
     <use style="fill:#ff7500;stroke:#ff7500;" x="183.03829" xlink:href="#me2e9769a5c" y="30.334099"/>
     <use style="fill:#ff7500;stroke:#ff7500;" x="183.03829" xlink:href="#me2e9769a5c" y="30.334099"/>
    </g>
   </g>
   <g id="line2d_51">
    <path d="M 17.444571 298.944 
L 17.444571 288.410278 
L 110.859585 288.410278 
L 110.859585 287.883592 
L 114.148479 287.883592 
L 114.148479 287.356906 
L 114.685115 287.356906 
L 114.685115 286.303534 
L 114.816733 286.303534 
L 114.816733 285.776848 
L 115.012316 285.776848 
L 115.012316 285.250162 
L 115.33349 285.250162 
L 115.33349 284.723476 
L 115.711251 284.723476 
L 115.711251 284.19679 
L 115.835374 284.19679 
L 115.835374 283.670104 
L 117.259781 283.670104 
L 117.259781 283.143418 
L 117.654224 283.143418 
L 117.654224 282.616732 
L 117.930605 282.616732 
L 117.930605 282.090045 
L 118.576578 282.090045 
L 118.629344 281.036673 
L 119.250393 281.036673 
L 119.250393 280.509987 
L 119.751557 280.509987 
L 119.80089 279.456615 
L 120.665825 279.456615 
L 120.712642 278.403243 
L 121.036887 278.403243 
L 121.036887 277.876557 
L 122.061712 277.876557 
L 122.061712 277.349871 
L 122.362027 277.349871 
L 122.44689 276.296499 
L 122.947573 276.296499 
L 122.947573 275.769812 
L 123.474235 275.769812 
L 123.474235 275.243126 
L 123.593547 275.243126 
L 123.593547 274.71644 
L 123.94666 274.71644 
L 123.94666 274.189754 
L 124.368753 274.189754 
L 124.368753 273.663068 
L 124.482119 273.663068 
L 124.482119 273.136382 
L 125.291682 273.136382 
L 125.291682 272.609696 
L 126.168212 272.609696 
L 126.168212 272.08301 
L 127.357715 272.08301 
L 127.357715 271.556324 
L 128.768338 271.556324 
L 128.827155 270.502952 
L 129.118302 270.502952 
L 129.118302 269.976266 
L 129.963666 269.976266 
L 129.963666 269.449579 
L 131.615802 269.449579 
L 131.615802 268.922893 
L 136.2853 268.922893 
L 136.2853 268.396207 
L 137.647286 268.396207 
L 137.647286 267.869521 
L 138.527635 267.869521 
L 138.527635 267.342835 
L 139.964909 267.342835 
L 139.964909 266.816149 
L 141.69035 266.816149 
L 141.69035 266.289463 
L 142.324576 266.289463 
L 142.324576 265.762777 
L 143.691276 265.762777 
L 143.691276 265.236091 
L 145.005114 265.236091 
L 145.005114 264.709405 
L 145.120836 264.709405 
L 145.120836 264.182719 
L 145.598655 264.182719 
L 145.598655 263.656033 
L 146.140051 263.656033 
L 146.140051 263.129347 
L 147.509976 263.129347 
L 147.509976 262.60266 
L 150.206871 262.60266 
L 150.249899 261.549288 
L 150.73306 261.549288 
L 150.82478 260.495916 
L 151.389366 260.495916 
L 151.389366 259.96923 
L 151.589498 259.96923 
L 151.589498 259.442544 
L 151.84236 259.442544 
L 151.84236 258.915858 
L 152.222586 258.915858 
L 152.222586 258.389172 
L 152.383036 258.389172 
L 152.383036 257.862486 
L 152.542024 257.862486 
L 152.542024 257.3358 
L 153.025137 257.3358 
L 153.13475 256.282427 
L 153.904255 256.282427 
L 153.904255 255.755741 
L 154.070741 255.755741 
L 154.070741 255.229055 
L 154.820715 255.229055 
L 154.820715 254.702369 
L 154.985269 254.702369 
L 155.063706 253.648997 
L 155.128803 253.648997 
L 155.128803 253.122311 
L 155.354745 253.122311 
L 155.412374 252.068939 
L 155.55879 252.068939 
L 155.634696 251.015567 
L 156.562634 251.015567 
L 156.562634 250.488881 
L 156.835778 250.488881 
L 156.853444 249.435508 
L 156.970762 249.435508 
L 157.081488 247.328764 
L 157.2549 247.328764 
L 157.2549 246.802078 
L 157.460743 246.802078 
L 157.460743 245.748706 
L 157.915194 245.748706 
L 157.998067 244.695334 
L 158.249784 244.695334 
L 158.249784 244.168648 
L 158.368898 244.168648 
L 158.444276 242.588589 
L 158.487203 242.588589 
L 158.524678 241.535217 
L 158.863624 241.535217 
L 158.962994 240.481845 
L 159.0618 240.481845 
L 159.0618 239.955159 
L 159.344703 239.955159 
L 159.415988 238.375101 
L 159.507213 238.375101 
L 159.507213 237.848415 
L 159.887213 237.848415 
L 159.897102 236.795043 
L 160.244578 236.795043 
L 160.244578 236.268356 
L 160.398951 236.268356 
L 160.451703 235.214984 
L 160.571004 235.214984 
L 160.571004 234.688298 
L 160.905434 234.688298 
L 160.942717 232.581554 
L 161.02168 232.581554 
L 161.118732 229.948123 
L 161.251875 229.948123 
L 161.356752 228.894751 
L 161.388547 228.894751 
L 161.438393 227.841379 
L 161.524156 227.841379 
L 161.618459 226.788007 
L 161.658719 226.788007 
L 161.761186 223.627891 
L 161.801118 223.627891 
L 161.8498 222.574518 
L 161.920369 222.574518 
L 161.977497 220.99446 
L 162.104265 220.99446 
L 162.212813 219.414402 
L 162.29486 219.414402 
L 162.389382 217.834344 
L 162.453536 217.834344 
L 162.547205 215.727599 
L 162.576903 215.727599 
L 162.682557 214.147541 
L 162.716232 214.147541 
L 162.79595 210.987425 
L 162.829407 210.987425 
L 162.879471 209.934052 
L 162.946002 209.934052 
L 162.999872 207.827308 
L 163.144084 207.827308 
L 163.242288 205.720564 
L 163.287113 205.720564 
L 163.39261 202.033761 
L 163.428979 202.033761 
L 163.533623 199.927017 
L 163.541647 199.927017 
L 163.645619 197.820273 
L 163.697374 197.820273 
L 163.77274 194.660156 
L 163.824119 194.660156 
L 163.930348 190.446667 
L 164.024234 190.446667 
L 164.055418 188.339923 
L 164.148635 188.339923 
L 164.256762 184.653121 
L 164.268307 184.653121 
L 164.356568 181.493004 
L 164.413891 181.493004 
L 164.512805 178.332888 
L 164.543127 178.332888 
L 164.614933 175.172771 
L 164.663893 175.172771 
L 164.757663 170.432596 
L 164.780093 170.432596 
L 164.79503 167.799166 
L 164.891812 167.799166 
L 164.98806 164.63905 
L 165.035985 164.63905 
L 165.142423 159.898875 
L 165.168018 159.898875 
L 165.237301 157.265444 
L 165.280918 157.265444 
L 165.364212 154.105328 
L 165.407513 154.105328 
L 165.508131 151.471897 
L 165.536773 151.471897 
L 165.633093 147.258409 
L 165.650872 147.258409 
L 165.7501 143.04492 
L 165.76776 143.04492 
L 165.873346 139.884804 
L 165.890882 139.884804 
L 165.985272 136.198001 
L 166.034014 136.198001 
L 166.099947 131.984513 
L 166.151824 131.984513 
L 166.255117 127.771024 
L 166.265413 127.771024 
L 166.368037 123.557535 
L 166.378267 123.557535 
L 166.408919 120.397419 
L 166.503937 120.397419 
L 166.605172 115.657244 
L 166.625348 115.657244 
L 166.719198 110.390383 
L 166.759266 110.390383 
L 166.865664 106.703581 
L 166.875605 106.703581 
L 166.981298 104.596836 
L 166.994465 104.596836 
L 167.089627 99.856662 
L 167.138646 99.856662 
L 167.236273 95.643173 
L 167.252491 95.643173 
L 167.333356 91.429684 
L 167.381695 91.429684 
L 167.484374 86.68951 
L 167.500363 86.68951 
L 167.608702 83.529393 
L 167.611878 83.529393 
L 167.716371 80.369277 
L 167.735303 80.369277 
L 167.835927 77.20916 
L 167.879768 77.20916 
L 167.982673 72.995672 
L 168.004423 72.995672 
L 168.097334 69.835555 
L 168.115857 69.835555 
L 168.208177 66.675439 
L 168.269454 66.675439 
L 168.373132 62.988636 
L 168.382251 62.988636 
L 168.436863 60.355206 
L 168.509413 60.355206 
L 168.569642 58.248461 
L 168.740162 58.248461 
L 168.838127 56.141717 
L 168.96202 56.141717 
L 168.991389 55.088345 
L 169.08212 55.088345 
L 169.143315 53.508287 
L 169.204297 53.508287 
L 169.311225 50.874856 
L 169.434674 50.874856 
L 169.528825 48.768112 
L 169.571453 48.768112 
L 169.664871 47.188054 
L 169.740933 47.188054 
L 169.740933 46.661368 
L 169.853011 46.661368 
L 169.853011 46.134681 
L 170.014255 46.134681 
L 170.014255 45.607995 
L 170.127345 45.607995 
L 170.127345 45.081309 
L 170.261547 45.081309 
L 170.261547 44.554623 
L 175.982999 44.554623 
L 175.982999 44.027937 
L 177.328929 44.027937 
L 177.328929 43.501251 
L 177.861043 43.501251 
L 177.861043 42.974565 
L 178.935411 42.974565 
L 178.935411 42.447879 
L 179.351823 42.447879 
L 179.351823 41.921193 
L 180.257758 41.921193 
L 180.257758 41.394507 
L 180.477835 41.394507 
L 180.553605 40.341135 
L 180.921675 40.341135 
L 180.921675 39.287762 
L 181.039718 39.287762 
L 181.039718 38.23439 
L 181.173027 38.23439 
L 181.173027 37.707704 
L 181.541248 37.707704 
L 181.541248 37.181018 
L 181.785296 37.181018 
L 181.785296 35.60096 
L 181.964723 35.60096 
L 181.964723 35.074274 
L 182.092555 35.074274 
L 182.1768 34.020902 
L 182.238688 34.020902 
L 182.238688 33.494215 
L 182.398576 33.494215 
L 182.398576 32.967529 
L 182.524629 32.967529 
L 182.524629 32.440843 
L 182.66452 32.440843 
L 182.66452 31.914157 
L 182.786012 31.914157 
L 182.786012 31.387471 
L 182.977865 31.387471 
L 183.03829 30.334099 
L 338.688 30.334099 
L 338.688 30.334099 
" style="fill:none;stroke:#ff7500;stroke-linecap:square;stroke-width:1.5;"/>
   </g>
   <g id="line2d_52">
    <defs>
     <path d="M 0 -6 
L -1.347084 -1.854102 
L -5.706339 -1.854102 
L -2.179628 0.708204 
L -3.526712 4.854102 
L -0 2.291796 
L 3.526712 4.854102 
L 2.179628 0.708204 
L 5.706339 -1.854102 
L 1.347084 -1.854102 
z
" id="m6f20fbab95" style="stroke:#ff7500;stroke-linejoin:bevel;stroke-width:1.5;"/>
    </defs>
    <g>
     <use style="fill-opacity:0;stroke:#ff7500;stroke-linejoin:bevel;stroke-width:1.5;" x="154.070741" xlink:href="#m6f20fbab95" y="255.755741"/>
     <use style="fill-opacity:0;stroke:#ff7500;stroke-linejoin:bevel;stroke-width:1.5;" x="166.692436" xlink:href="#m6f20fbab95" y="112.497128"/>
     <use style="fill-opacity:0;stroke:#ff7500;stroke-linejoin:bevel;stroke-width:1.5;" x="183.03829" xlink:href="#m6f20fbab95" y="30.860785"/>
     <use style="fill-opacity:0;stroke:#ff7500;stroke-linejoin:bevel;stroke-width:1.5;" x="183.03829" xlink:href="#m6f20fbab95" y="30.334099"/>
     <use style="fill-opacity:0;stroke:#ff7500;stroke-linejoin:bevel;stroke-width:1.5;" x="338.688" xlink:href="#m6f20fbab95" y="30.334099"/>
    </g>
   </g>
   <g id="line2d_53">
    <path style="fill:none;stroke:#ff7500;stroke-linecap:square;stroke-width:1.5;"/>
    <g/>
   </g>
   <g id="line2d_54">
    <path d="M 338.688 30.334099 
L 369.60768 293.571802 
" style="fill:none;stroke:#ff7500;stroke-linecap:square;stroke-width:1.5;"/>
    <g>
     <use style="fill-opacity:0;stroke:#ff7500;stroke-linejoin:bevel;stroke-width:1.5;" x="338.688" xlink:href="#m6f20fbab95" y="30.334099"/>
     <use style="fill-opacity:0;stroke:#ff7500;stroke-linejoin:bevel;stroke-width:1.5;" x="369.60768" xlink:href="#m6f20fbab95" y="293.571802"/>
    </g>
   </g>
   <g id="line2d_55">
    <path d="M 338.688 30.334099 
L 369.60768 241.998701 
" style="fill:none;stroke:#000080;stroke-linecap:square;stroke-width:1.5;"/>
    <g>
     <use style="fill-opacity:0;stroke:#000080;stroke-width:1.5;" x="338.688" xlink:href="#m5f83b28abf" y="30.334099"/>
     <use style="fill-opacity:0;stroke:#000080;stroke-width:1.5;" x="369.60768" xlink:href="#m5f83b28abf" y="241.998701"/>
    </g>
   </g>
   <g id="line2d_56">
    <path d="M 338.688 30.334099 
L 369.60768 190.4256 
" style="fill:none;stroke:#ff00ff;stroke-linecap:square;stroke-width:1.5;"/>
    <g>
     <use style="fill-opacity:0;stroke:#ff00ff;stroke-linejoin:miter;stroke-width:1.5;" x="338.688" xlink:href="#m6d2ffbcf7f" y="30.334099"/>
     <use style="fill-opacity:0;stroke:#ff00ff;stroke-linejoin:miter;stroke-width:1.5;" x="369.60768" xlink:href="#m6d2ffbcf7f" y="190.4256"/>
    </g>
   </g>
   <g id="line2d_57">
    <path d="M 338.688 30.334099 
L 369.60768 138.852499 
" style="fill:none;stroke:#ff0000;stroke-linecap:square;stroke-width:1.5;"/>
    <g>
     <use style="fill-opacity:0;stroke:#ff0000;stroke-linejoin:miter;stroke-width:1.5;" x="338.688" xlink:href="#md59cc51edc" y="30.334099"/>
     <use style="fill-opacity:0;stroke:#ff0000;stroke-linejoin:miter;stroke-width:1.5;" x="369.60768" xlink:href="#md59cc51edc" y="138.852499"/>
    </g>
   </g>
   <g id="line2d_58">
    <path d="M 338.688 30.334099 
L 369.60768 87.279398 
" style="fill:none;stroke:#000080;stroke-linecap:square;stroke-width:1.5;"/>
    <g>
     <use style="fill-opacity:0;stroke:#000080;stroke-width:1.5;" x="338.688" xlink:href="#m5f83b28abf" y="30.334099"/>
     <use style="fill-opacity:0;stroke:#000080;stroke-width:1.5;" x="369.60768" xlink:href="#m5f83b28abf" y="87.279398"/>
    </g>
   </g>
   <g id="line2d_59">
    <path d="M 338.688 298.944 
L 338.688 30.334099 
" style="fill:none;stroke:#000000;stroke-linecap:square;stroke-width:1.5;"/>
   </g>
   <g id="patch_3">
    <path d="M 57.6 298.944 
L 57.6 27.648 
" style="fill:none;stroke:#000000;stroke-linecap:square;stroke-linejoin:miter;stroke-width:0.8;"/>
   </g>
   <g id="patch_4">
    <path d="M 338.688 298.944 
L 338.688 27.648 
" style="fill:none;stroke:#000000;stroke-linecap:square;stroke-linejoin:miter;stroke-width:0.8;"/>
   </g>
   <g id="patch_5">
    <path d="M 57.6 298.944 
L 338.688 298.944 
" style="fill:none;stroke:#000000;stroke-linecap:square;stroke-linejoin:miter;stroke-width:0.8;"/>
   </g>
   <g id="patch_6">
    <path d="M 57.6 27.648 
L 338.688 27.648 
" style="fill:none;stroke:#000000;stroke-linecap:square;stroke-linejoin:miter;stroke-width:0.8;"/>
   </g>
   <g id="text_13">
    <!-- 075s-2e4 -->
    <defs>
     <path d="M 8.203125 72.90625 
L 55.078125 72.90625 
L 55.078125 68.703125 
L 28.609375 0 
L 18.3125 0 
L 43.21875 64.59375 
L 8.203125 64.59375 
z
" id="DejaVuSans-55"/>
     <path d="M 10.796875 72.90625 
L 49.515625 72.90625 
L 49.515625 64.59375 
L 19.828125 64.59375 
L 19.828125 46.734375 
Q 21.96875 47.46875 24.109375 47.828125 
Q 26.265625 48.1875 28.421875 48.1875 
Q 40.625 48.1875 47.75 41.5 
Q 54.890625 34.8125 54.890625 23.390625 
Q 54.890625 11.625 47.5625 5.09375 
Q 40.234375 -1.421875 26.90625 -1.421875 
Q 22.3125 -1.421875 17.546875 -0.640625 
Q 12.796875 0.140625 7.71875 1.703125 
L 7.71875 11.625 
Q 12.109375 9.234375 16.796875 8.0625 
Q 21.484375 6.890625 26.703125 6.890625 
Q 35.15625 6.890625 40.078125 11.328125 
Q 45.015625 15.765625 45.015625 23.390625 
Q 45.015625 31 40.078125 35.4375 
Q 35.15625 39.890625 26.703125 39.890625 
Q 22.75 39.890625 18.8125 39.015625 
Q 14.890625 38.140625 10.796875 36.28125 
z
" id="DejaVuSans-53"/>
    </defs>
    <g transform="translate(375.22944 298.262739)scale(0.17 -0.17)">
     <use xlink:href="#DejaVuSans-48"/>
     <use x="63.623047" xlink:href="#DejaVuSans-55"/>
     <use x="127.246094" xlink:href="#DejaVuSans-53"/>
     <use x="190.869141" xlink:href="#DejaVuSans-115"/>
     <use x="242.96875" xlink:href="#DejaVuSans-45"/>
     <use x="279.052734" xlink:href="#DejaVuSans-50"/>
     <use x="342.675781" xlink:href="#DejaVuSans-101"/>
     <use x="404.199219" xlink:href="#DejaVuSans-52"/>
    </g>
   </g>
   <g id="text_14">
    <!-- 100-2e4 -->
    <g transform="translate(375.22944 246.689638)scale(0.17 -0.17)">
     <use xlink:href="#DejaVuSans-49"/>
     <use x="63.623047" xlink:href="#DejaVuSans-48"/>
     <use x="127.246094" xlink:href="#DejaVuSans-48"/>
     <use x="190.869141" xlink:href="#DejaVuSans-45"/>
     <use x="226.953125" xlink:href="#DejaVuSans-50"/>
     <use x="290.576172" xlink:href="#DejaVuSans-101"/>
     <use x="352.099609" xlink:href="#DejaVuSans-52"/>
    </g>
   </g>
   <g id="text_15">
    <!-- 025s-2e4 -->
    <g transform="translate(375.22944 195.116537)scale(0.17 -0.17)">
     <use xlink:href="#DejaVuSans-48"/>
     <use x="63.623047" xlink:href="#DejaVuSans-50"/>
     <use x="127.246094" xlink:href="#DejaVuSans-53"/>
     <use x="190.869141" xlink:href="#DejaVuSans-115"/>
     <use x="242.96875" xlink:href="#DejaVuSans-45"/>
     <use x="279.052734" xlink:href="#DejaVuSans-50"/>
     <use x="342.675781" xlink:href="#DejaVuSans-101"/>
     <use x="404.199219" xlink:href="#DejaVuSans-52"/>
    </g>
   </g>
   <g id="text_16">
    <!-- 050s-2e4 -->
    <g transform="translate(375.22944 143.543437)scale(0.17 -0.17)">
     <use xlink:href="#DejaVuSans-48"/>
     <use x="63.623047" xlink:href="#DejaVuSans-53"/>
     <use x="127.246094" xlink:href="#DejaVuSans-48"/>
     <use x="190.869141" xlink:href="#DejaVuSans-115"/>
     <use x="242.96875" xlink:href="#DejaVuSans-45"/>
     <use x="279.052734" xlink:href="#DejaVuSans-50"/>
     <use x="342.675781" xlink:href="#DejaVuSans-101"/>
     <use x="404.199219" xlink:href="#DejaVuSans-52"/>
    </g>
   </g>
   <g id="text_17">
    <!-- 100-1e5 -->
    <g transform="translate(375.22944 91.970336)scale(0.17 -0.17)">
     <use xlink:href="#DejaVuSans-49"/>
     <use x="63.623047" xlink:href="#DejaVuSans-48"/>
     <use x="127.246094" xlink:href="#DejaVuSans-48"/>
     <use x="190.869141" xlink:href="#DejaVuSans-45"/>
     <use x="226.953125" xlink:href="#DejaVuSans-49"/>
     <use x="290.576172" xlink:href="#DejaVuSans-101"/>
     <use x="352.099609" xlink:href="#DejaVuSans-53"/>
    </g>
   </g>
   <g id="text_18">
    <!-- best 2009 -->
    <defs>
     <path d="M 48.6875 27.296875 
Q 48.6875 37.203125 44.609375 42.84375 
Q 40.53125 48.484375 33.40625 48.484375 
Q 26.265625 48.484375 22.1875 42.84375 
Q 18.109375 37.203125 18.109375 27.296875 
Q 18.109375 17.390625 22.1875 11.75 
Q 26.265625 6.109375 33.40625 6.109375 
Q 40.53125 6.109375 44.609375 11.75 
Q 48.6875 17.390625 48.6875 27.296875 
z
M 18.109375 46.390625 
Q 20.953125 51.265625 25.265625 53.625 
Q 29.59375 56 35.59375 56 
Q 45.5625 56 51.78125 48.09375 
Q 58.015625 40.1875 58.015625 27.296875 
Q 58.015625 14.40625 51.78125 6.484375 
Q 45.5625 -1.421875 35.59375 -1.421875 
Q 29.59375 -1.421875 25.265625 0.953125 
Q 20.953125 3.328125 18.109375 8.203125 
L 18.109375 0 
L 9.078125 0 
L 9.078125 75.984375 
L 18.109375 75.984375 
z
" id="DejaVuSans-98"/>
     <path d="M 10.984375 1.515625 
L 10.984375 10.5 
Q 14.703125 8.734375 18.5 7.8125 
Q 22.3125 6.890625 25.984375 6.890625 
Q 35.75 6.890625 40.890625 13.453125 
Q 46.046875 20.015625 46.78125 33.40625 
Q 43.953125 29.203125 39.59375 26.953125 
Q 35.25 24.703125 29.984375 24.703125 
Q 19.046875 24.703125 12.671875 31.3125 
Q 6.296875 37.9375 6.296875 49.421875 
Q 6.296875 60.640625 12.9375 67.421875 
Q 19.578125 74.21875 30.609375 74.21875 
Q 43.265625 74.21875 49.921875 64.515625 
Q 56.59375 54.828125 56.59375 36.375 
Q 56.59375 19.140625 48.40625 8.859375 
Q 40.234375 -1.421875 26.421875 -1.421875 
Q 22.703125 -1.421875 18.890625 -0.6875 
Q 15.09375 0.046875 10.984375 1.515625 
z
M 30.609375 32.421875 
Q 37.25 32.421875 41.125 36.953125 
Q 45.015625 41.5 45.015625 49.421875 
Q 45.015625 57.28125 41.125 61.84375 
Q 37.25 66.40625 30.609375 66.40625 
Q 23.96875 66.40625 20.09375 61.84375 
Q 16.21875 57.28125 16.21875 49.421875 
Q 16.21875 41.5 20.09375 36.953125 
Q 23.96875 32.421875 30.609375 32.421875 
z
" id="DejaVuSans-57"/>
    </defs>
    <g transform="translate(375.22944 40.397235)scale(0.17 -0.17)">
     <use xlink:href="#DejaVuSans-98"/>
     <use x="63.476562" xlink:href="#DejaVuSans-101"/>
     <use x="125" xlink:href="#DejaVuSans-115"/>
     <use x="177.099609" xlink:href="#DejaVuSans-116"/>
     <use x="216.308594" xlink:href="#DejaVuSans-32"/>
     <use x="248.095703" xlink:href="#DejaVuSans-50"/>
     <use x="311.71875" xlink:href="#DejaVuSans-48"/>
     <use x="375.341797" xlink:href="#DejaVuSans-48"/>
     <use x="438.964844" xlink:href="#DejaVuSans-57"/>
    </g>
   </g>
   <g id="text_19">
    <!-- bbob f9, 10-D -->
    <defs>
     <path d="M 19.671875 64.796875 
L 19.671875 8.109375 
L 31.59375 8.109375 
Q 46.6875 8.109375 53.6875 14.9375 
Q 60.6875 21.78125 60.6875 36.53125 
Q 60.6875 51.171875 53.6875 57.984375 
Q 46.6875 64.796875 31.59375 64.796875 
z
M 9.8125 72.90625 
L 30.078125 72.90625 
Q 51.265625 72.90625 61.171875 64.09375 
Q 71.09375 55.28125 71.09375 36.53125 
Q 71.09375 17.671875 61.125 8.828125 
Q 51.171875 0 30.078125 0 
L 9.8125 0 
z
" id="DejaVuSans-68"/>
    </defs>
    <g transform="translate(60.41088 38.111366)scale(0.102 -0.102)">
     <use xlink:href="#DejaVuSans-98"/>
     <use x="63.476562" xlink:href="#DejaVuSans-98"/>
     <use x="126.953125" xlink:href="#DejaVuSans-111"/>
     <use x="188.134766" xlink:href="#DejaVuSans-98"/>
     <use x="251.611328" xlink:href="#DejaVuSans-32"/>
     <use x="283.398438" xlink:href="#DejaVuSans-102"/>
     <use x="318.603516" xlink:href="#DejaVuSans-57"/>
     <use x="382.226562" xlink:href="#DejaVuSans-44"/>
     <use x="414.013672" xlink:href="#DejaVuSans-32"/>
     <use x="445.800781" xlink:href="#DejaVuSans-49"/>
     <use x="509.423828" xlink:href="#DejaVuSans-48"/>
     <use x="573.046875" xlink:href="#DejaVuSans-45"/>
     <use x="609.130859" xlink:href="#DejaVuSans-68"/>
    </g>
    <!-- 51 targets: 100..1e-08 -->
    <defs>
     <path d="M 11.71875 12.40625 
L 22.015625 12.40625 
L 22.015625 0 
L 11.71875 0 
z
M 11.71875 51.703125 
L 22.015625 51.703125 
L 22.015625 39.3125 
L 11.71875 39.3125 
z
" id="DejaVuSans-58"/>
    </defs>
    <g transform="translate(60.41088 49.533135)scale(0.102 -0.102)">
     <use xlink:href="#DejaVuSans-53"/>
     <use x="63.623047" xlink:href="#DejaVuSans-49"/>
     <use x="127.246094" xlink:href="#DejaVuSans-32"/>
     <use x="159.033203" xlink:href="#DejaVuSans-116"/>
     <use x="198.242188" xlink:href="#DejaVuSans-97"/>
     <use x="259.521484" xlink:href="#DejaVuSans-114"/>
     <use x="300.619141" xlink:href="#DejaVuSans-103"/>
     <use x="364.095703" xlink:href="#DejaVuSans-101"/>
     <use x="425.619141" xlink:href="#DejaVuSans-116"/>
     <use x="464.828125" xlink:href="#DejaVuSans-115"/>
     <use x="516.927734" xlink:href="#DejaVuSans-58"/>
     <use x="550.619141" xlink:href="#DejaVuSans-32"/>
     <use x="582.40625" xlink:href="#DejaVuSans-49"/>
     <use x="646.029297" xlink:href="#DejaVuSans-48"/>
     <use x="709.652344" xlink:href="#DejaVuSans-48"/>
     <use x="773.275391" xlink:href="#DejaVuSans-46"/>
     <use x="805.0625" xlink:href="#DejaVuSans-46"/>
     <use x="836.849609" xlink:href="#DejaVuSans-49"/>
     <use x="900.472656" xlink:href="#DejaVuSans-101"/>
     <use x="961.996094" xlink:href="#DejaVuSans-45"/>
     <use x="998.080078" xlink:href="#DejaVuSans-48"/>
     <use x="1061.703125" xlink:href="#DejaVuSans-56"/>
    </g>
    <!-- 15 instances -->
    <g transform="translate(60.41088 60.954904)scale(0.102 -0.102)">
     <use xlink:href="#DejaVuSans-49"/>
     <use x="63.623047" xlink:href="#DejaVuSans-53"/>
     <use x="127.246094" xlink:href="#DejaVuSans-32"/>
     <use x="159.033203" xlink:href="#DejaVuSans-105"/>
     <use x="186.816406" xlink:href="#DejaVuSans-110"/>
     <use x="250.195312" xlink:href="#DejaVuSans-115"/>
     <use x="302.294922" xlink:href="#DejaVuSans-116"/>
     <use x="341.503906" xlink:href="#DejaVuSans-97"/>
     <use x="402.783203" xlink:href="#DejaVuSans-110"/>
     <use x="466.162109" xlink:href="#DejaVuSans-99"/>
     <use x="521.142578" xlink:href="#DejaVuSans-101"/>
     <use x="582.666016" xlink:href="#DejaVuSans-115"/>
    </g>
   </g>
   <g id="text_20">
    <!-- v2.3.3.18.73 -->
    <defs>
     <path d="M 40.578125 39.3125 
Q 47.65625 37.796875 51.625 33 
Q 55.609375 28.21875 55.609375 21.1875 
Q 55.609375 10.40625 48.1875 4.484375 
Q 40.765625 -1.421875 27.09375 -1.421875 
Q 22.515625 -1.421875 17.65625 -0.515625 
Q 12.796875 0.390625 7.625 2.203125 
L 7.625 11.71875 
Q 11.71875 9.328125 16.59375 8.109375 
Q 21.484375 6.890625 26.8125 6.890625 
Q 36.078125 6.890625 40.9375 10.546875 
Q 45.796875 14.203125 45.796875 21.1875 
Q 45.796875 27.640625 41.28125 31.265625 
Q 36.765625 34.90625 28.71875 34.90625 
L 20.21875 34.90625 
L 20.21875 43.015625 
L 29.109375 43.015625 
Q 36.375 43.015625 40.234375 45.921875 
Q 44.09375 48.828125 44.09375 54.296875 
Q 44.09375 59.90625 40.109375 62.90625 
Q 36.140625 65.921875 28.71875 65.921875 
Q 24.65625 65.921875 20.015625 65.03125 
Q 15.375 64.15625 9.8125 62.3125 
L 9.8125 71.09375 
Q 15.4375 72.65625 20.34375 73.4375 
Q 25.25 74.21875 29.59375 74.21875 
Q 40.828125 74.21875 47.359375 69.109375 
Q 53.90625 64.015625 53.90625 55.328125 
Q 53.90625 49.265625 50.4375 45.09375 
Q 46.96875 40.921875 40.578125 39.3125 
z
" id="DejaVuSans-51"/>
    </defs>
    <g style="fill:#808080;" transform="translate(166.559625 294.151352)scale(0.1 -0.1)">
     <use xlink:href="#DejaVuSans-118"/>
     <use x="59.179688" xlink:href="#DejaVuSans-50"/>
     <use x="122.802734" xlink:href="#DejaVuSans-46"/>
     <use x="154.589844" xlink:href="#DejaVuSans-51"/>
     <use x="218.212891" xlink:href="#DejaVuSans-46"/>
     <use x="250" xlink:href="#DejaVuSans-51"/>
     <use x="313.623047" xlink:href="#DejaVuSans-46"/>
     <use x="345.410156" xlink:href="#DejaVuSans-49"/>
     <use x="409.033203" xlink:href="#DejaVuSans-56"/>
     <use x="472.65625" xlink:href="#DejaVuSans-46"/>
     <use x="504.443359" xlink:href="#DejaVuSans-55"/>
     <use x="568.066406" xlink:href="#DejaVuSans-51"/>
    </g>
   </g>
   <g id="text_21">
    <!-- 9 Rosenbrock rotated -->
    <defs>
     <path d="M 44.390625 34.1875 
Q 47.5625 33.109375 50.5625 29.59375 
Q 53.5625 26.078125 56.59375 19.921875 
L 66.609375 0 
L 56 0 
L 46.6875 18.703125 
Q 43.0625 26.03125 39.671875 28.421875 
Q 36.28125 30.8125 30.421875 30.8125 
L 19.671875 30.8125 
L 19.671875 0 
L 9.8125 0 
L 9.8125 72.90625 
L 32.078125 72.90625 
Q 44.578125 72.90625 50.734375 67.671875 
Q 56.890625 62.453125 56.890625 51.90625 
Q 56.890625 45.015625 53.6875 40.46875 
Q 50.484375 35.9375 44.390625 34.1875 
z
M 19.671875 64.796875 
L 19.671875 38.921875 
L 32.078125 38.921875 
Q 39.203125 38.921875 42.84375 42.21875 
Q 46.484375 45.515625 46.484375 51.90625 
Q 46.484375 58.296875 42.84375 61.546875 
Q 39.203125 64.796875 32.078125 64.796875 
z
" id="DejaVuSans-82"/>
     <path d="M 9.078125 75.984375 
L 18.109375 75.984375 
L 18.109375 31.109375 
L 44.921875 54.6875 
L 56.390625 54.6875 
L 27.390625 29.109375 
L 57.625 0 
L 45.90625 0 
L 18.109375 26.703125 
L 18.109375 0 
L 9.078125 0 
z
" id="DejaVuSans-107"/>
    </defs>
    <g transform="translate(90.103375 21.648)scale(0.2 -0.2)">
     <use xlink:href="#DejaVuSans-57"/>
     <use x="63.623047" xlink:href="#DejaVuSans-32"/>
     <use x="95.410156" xlink:href="#DejaVuSans-82"/>
     <use x="164.830078" xlink:href="#DejaVuSans-111"/>
     <use x="226.011719" xlink:href="#DejaVuSans-115"/>
     <use x="278.111328" xlink:href="#DejaVuSans-101"/>
     <use x="339.634766" xlink:href="#DejaVuSans-110"/>
     <use x="403.013672" xlink:href="#DejaVuSans-98"/>
     <use x="466.490234" xlink:href="#DejaVuSans-114"/>
     <use x="507.572266" xlink:href="#DejaVuSans-111"/>
     <use x="568.753906" xlink:href="#DejaVuSans-99"/>
     <use x="623.734375" xlink:href="#DejaVuSans-107"/>
     <use x="681.644531" xlink:href="#DejaVuSans-32"/>
     <use x="713.431641" xlink:href="#DejaVuSans-114"/>
     <use x="754.513672" xlink:href="#DejaVuSans-111"/>
     <use x="815.695312" xlink:href="#DejaVuSans-116"/>
     <use x="854.904297" xlink:href="#DejaVuSans-97"/>
     <use x="916.183594" xlink:href="#DejaVuSans-116"/>
     <use x="955.392578" xlink:href="#DejaVuSans-101"/>
     <use x="1016.916016" xlink:href="#DejaVuSans-100"/>
    </g>
   </g>
  </g>
 </g>
 <defs>
  <clipPath id="pce1115cd30">
   <rect height="271.296" width="281.088" x="57.6" y="27.648"/>
  </clipPath>
 </defs>
</svg>
