<?xml version="1.0" encoding="utf-8" standalone="no"?>
<!DOCTYPE svg PUBLIC "-//W3C//DTD SVG 1.1//EN"
  "http://www.w3.org/Graphics/SVG/1.1/DTD/svg11.dtd">
<!-- Created with matplotlib (https://matplotlib.org/) -->
<svg height="345.6pt" version="1.1" viewBox="0 0 460.8 345.6" width="460.8pt" xmlns="http://www.w3.org/2000/svg" xmlns:xlink="http://www.w3.org/1999/xlink">
 <defs>
  <style type="text/css">
*{stroke-linecap:butt;stroke-linejoin:round;}
  </style>
 </defs>
 <g id="figure_1">
  <g id="patch_1">
   <path d="M 0 345.6 
L 460.8 345.6 
L 460.8 0 
L 0 0 
z
" style="fill:#ffffff;"/>
  </g>
  <g id="axes_1">
   <g id="patch_2">
    <path d="M 57.6 298.944 
L 338.688 298.944 
L 338.688 27.648 
L 57.6 27.648 
z
" style="fill:#ffffff;"/>
   </g>
   <g id="line2d_1">
    <path d="M 38.440992 298.944 
L 38.440992 288.410278 
L 66.508432 288.410278 
L 66.508432 283.143418 
L 83.171864 283.143418 
L 83.171864 277.876557 
L 105.584798 277.876557 
L 105.584798 272.609696 
L 118.220662 272.609696 
L 118.220662 267.342835 
L 142.124852 267.342835 
L 142.124852 262.075974 
L 164.536814 262.075974 
L 164.536814 256.809114 
L 183.364365 256.809114 
L 183.364365 251.542253 
L 189.593097 251.542253 
L 189.593097 246.275392 
L 199.731589 246.275392 
L 199.731589 241.008531 
L 210.681424 241.008531 
L 210.681424 235.74167 
L 217.523125 235.74167 
L 217.523125 230.47481 
L 224.215733 230.47481 
L 224.215733 225.207949 
L 228.238203 225.207949 
L 228.238203 219.941088 
L 239.674938 219.941088 
L 239.674938 214.674227 
L 243.610176 214.674227 
L 243.610176 209.407366 
L 254.026036 209.407366 
L 254.026036 204.140506 
L 261.436098 204.140506 
L 261.436098 198.873645 
L 261.436147 198.873645 
L 261.436147 193.606784 
L 261.436293 193.606784 
L 261.436293 114.603872 
L 261.436488 114.603872 
L 261.436488 109.337011 
L 261.436537 109.337011 
L 261.436537 104.07015 
L 261.436586 104.07015 
L 261.436586 83.002707 
L 261.436878 83.002707 
L 261.436878 30.334099 
L 338.688 30.334099 
" style="fill:none;stroke:#f5deb3;stroke-linecap:square;stroke-width:4;"/>
   </g>
   <g id="line2d_2">
    <defs>
     <path d="M -0 7.778175 
L 7.778175 0 
L 0 -7.778175 
L -7.778175 -0 
z
" id="mf77ab24d1f" style="stroke:#f5deb3;stroke-linejoin:miter;stroke-width:1.5;"/>
    </defs>
    <g>
     <use style="fill:#f5deb3;stroke:#f5deb3;stroke-linejoin:miter;stroke-width:1.5;" x="164.536814" xlink:href="#mf77ab24d1f" y="256.809114"/>
     <use style="fill:#f5deb3;stroke:#f5deb3;stroke-linejoin:miter;stroke-width:1.5;" x="224.215733" xlink:href="#mf77ab24d1f" y="225.207949"/>
     <use style="fill:#f5deb3;stroke:#f5deb3;stroke-linejoin:miter;stroke-width:1.5;" x="261.436293" xlink:href="#mf77ab24d1f" y="193.606784"/>
     <use style="fill:#f5deb3;stroke:#f5deb3;stroke-linejoin:miter;stroke-width:1.5;" x="261.436878" xlink:href="#mf77ab24d1f" y="30.334099"/>
     <use style="fill:#f5deb3;stroke:#f5deb3;stroke-linejoin:miter;stroke-width:1.5;" x="261.436878" xlink:href="#mf77ab24d1f" y="30.334099"/>
     <use style="fill:#f5deb3;stroke:#f5deb3;stroke-linejoin:miter;stroke-width:1.5;" x="338.688" xlink:href="#mf77ab24d1f" y="30.334099"/>
    </g>
   </g>
   <g id="line2d_3">
    <path style="fill:none;stroke:#f5deb3;stroke-linecap:square;stroke-width:4;"/>
    <g/>
   </g>
   <g id="line2d_4">
    <path d="M 338.688 30.334099 
L 369.60768 35.706297 
" style="fill:none;stroke:#f5deb3;stroke-linecap:square;stroke-width:4;"/>
    <g>
     <use style="fill:#f5deb3;stroke:#f5deb3;stroke-linejoin:miter;stroke-width:1.5;" x="338.688" xlink:href="#mf77ab24d1f" y="30.334099"/>
     <use style="fill:#f5deb3;stroke:#f5deb3;stroke-linejoin:miter;stroke-width:1.5;" x="369.60768" xlink:href="#mf77ab24d1f" y="35.706297"/>
    </g>
   </g>
   <g id="matplotlib.axis_1">
    <g id="xtick_1">
     <g id="line2d_5">
      <path clip-path="url(#p83b891dfdb)" d="M 57.6 298.944 
L 57.6 27.648 
" style="fill:none;stroke:#b0b0b0;stroke-linecap:square;stroke-width:0.8;"/>
     </g>
     <g id="line2d_6">
      <defs>
       <path d="M 0 0 
L 0 3.5 
" id="m4d6a410182" style="stroke:#000000;stroke-width:0.8;"/>
      </defs>
      <g>
       <use style="stroke:#000000;stroke-width:0.8;" x="57.6" xlink:href="#m4d6a410182" y="298.944"/>
      </g>
     </g>
     <g id="text_1">
      <!-- 0 -->
      <defs>
       <path d="M 31.78125 66.40625 
Q 24.171875 66.40625 20.328125 58.90625 
Q 16.5 51.421875 16.5 36.375 
Q 16.5 21.390625 20.328125 13.890625 
Q 24.171875 6.390625 31.78125 6.390625 
Q 39.453125 6.390625 43.28125 13.890625 
Q 47.125 21.390625 47.125 36.375 
Q 47.125 51.421875 43.28125 58.90625 
Q 39.453125 66.40625 31.78125 66.40625 
z
M 31.78125 74.21875 
Q 44.046875 74.21875 50.515625 64.515625 
Q 56.984375 54.828125 56.984375 36.375 
Q 56.984375 17.96875 50.515625 8.265625 
Q 44.046875 -1.421875 31.78125 -1.421875 
Q 19.53125 -1.421875 13.0625 8.265625 
Q 6.59375 17.96875 6.59375 36.375 
Q 6.59375 54.828125 13.0625 64.515625 
Q 19.53125 74.21875 31.78125 74.21875 
z
" id="DejaVuSans-48"/>
      </defs>
      <g transform="translate(51.2375 321.140875)scale(0.2 -0.2)">
       <use xlink:href="#DejaVuSans-48"/>
      </g>
     </g>
    </g>
    <g id="xtick_2">
     <g id="line2d_7">
      <path clip-path="url(#p83b891dfdb)" d="M 137.910857 298.944 
L 137.910857 27.648 
" style="fill:none;stroke:#b0b0b0;stroke-linecap:square;stroke-width:0.8;"/>
     </g>
     <g id="line2d_8">
      <g>
       <use style="stroke:#000000;stroke-width:0.8;" x="137.910857" xlink:href="#m4d6a410182" y="298.944"/>
      </g>
     </g>
     <g id="text_2">
      <!-- 2 -->
      <defs>
       <path d="M 19.1875 8.296875 
L 53.609375 8.296875 
L 53.609375 0 
L 7.328125 0 
L 7.328125 8.296875 
Q 12.9375 14.109375 22.625 23.890625 
Q 32.328125 33.6875 34.8125 36.53125 
Q 39.546875 41.84375 41.421875 45.53125 
Q 43.3125 49.21875 43.3125 52.78125 
Q 43.3125 58.59375 39.234375 62.25 
Q 35.15625 65.921875 28.609375 65.921875 
Q 23.96875 65.921875 18.8125 64.3125 
Q 13.671875 62.703125 7.8125 59.421875 
L 7.8125 69.390625 
Q 13.765625 71.78125 18.9375 73 
Q 24.125 74.21875 28.421875 74.21875 
Q 39.75 74.21875 46.484375 68.546875 
Q 53.21875 62.890625 53.21875 53.421875 
Q 53.21875 48.921875 51.53125 44.890625 
Q 49.859375 40.875 45.40625 35.40625 
Q 44.1875 33.984375 37.640625 27.21875 
Q 31.109375 20.453125 19.1875 8.296875 
z
" id="DejaVuSans-50"/>
      </defs>
      <g transform="translate(131.548357 321.140875)scale(0.2 -0.2)">
       <use xlink:href="#DejaVuSans-50"/>
      </g>
     </g>
    </g>
    <g id="xtick_3">
     <g id="line2d_9">
      <path clip-path="url(#p83b891dfdb)" d="M 218.221714 298.944 
L 218.221714 27.648 
" style="fill:none;stroke:#b0b0b0;stroke-linecap:square;stroke-width:0.8;"/>
     </g>
     <g id="line2d_10">
      <g>
       <use style="stroke:#000000;stroke-width:0.8;" x="218.221714" xlink:href="#m4d6a410182" y="298.944"/>
      </g>
     </g>
     <g id="text_3">
      <!-- 4 -->
      <defs>
       <path d="M 37.796875 64.3125 
L 12.890625 25.390625 
L 37.796875 25.390625 
z
M 35.203125 72.90625 
L 47.609375 72.90625 
L 47.609375 25.390625 
L 58.015625 25.390625 
L 58.015625 17.1875 
L 47.609375 17.1875 
L 47.609375 0 
L 37.796875 0 
L 37.796875 17.1875 
L 4.890625 17.1875 
L 4.890625 26.703125 
z
" id="DejaVuSans-52"/>
      </defs>
      <g transform="translate(211.859214 321.140875)scale(0.2 -0.2)">
       <use xlink:href="#DejaVuSans-52"/>
      </g>
     </g>
    </g>
    <g id="xtick_4">
     <g id="line2d_11">
      <path clip-path="url(#p83b891dfdb)" d="M 298.532571 298.944 
L 298.532571 27.648 
" style="fill:none;stroke:#b0b0b0;stroke-linecap:square;stroke-width:0.8;"/>
     </g>
     <g id="line2d_12">
      <g>
       <use style="stroke:#000000;stroke-width:0.8;" x="298.532571" xlink:href="#m4d6a410182" y="298.944"/>
      </g>
     </g>
     <g id="text_4">
      <!-- 6 -->
      <defs>
       <path d="M 33.015625 40.375 
Q 26.375 40.375 22.484375 35.828125 
Q 18.609375 31.296875 18.609375 23.390625 
Q 18.609375 15.53125 22.484375 10.953125 
Q 26.375 6.390625 33.015625 6.390625 
Q 39.65625 6.390625 43.53125 10.953125 
Q 47.40625 15.53125 47.40625 23.390625 
Q 47.40625 31.296875 43.53125 35.828125 
Q 39.65625 40.375 33.015625 40.375 
z
M 52.59375 71.296875 
L 52.59375 62.3125 
Q 48.875 64.0625 45.09375 64.984375 
Q 41.3125 65.921875 37.59375 65.921875 
Q 27.828125 65.921875 22.671875 59.328125 
Q 17.53125 52.734375 16.796875 39.40625 
Q 19.671875 43.65625 24.015625 45.921875 
Q 28.375 48.1875 33.59375 48.1875 
Q 44.578125 48.1875 50.953125 41.515625 
Q 57.328125 34.859375 57.328125 23.390625 
Q 57.328125 12.15625 50.6875 5.359375 
Q 44.046875 -1.421875 33.015625 -1.421875 
Q 20.359375 -1.421875 13.671875 8.265625 
Q 6.984375 17.96875 6.984375 36.375 
Q 6.984375 53.65625 15.1875 63.9375 
Q 23.390625 74.21875 37.203125 74.21875 
Q 40.921875 74.21875 44.703125 73.484375 
Q 48.484375 72.75 52.59375 71.296875 
z
" id="DejaVuSans-54"/>
      </defs>
      <g transform="translate(292.170071 321.140875)scale(0.2 -0.2)">
       <use xlink:href="#DejaVuSans-54"/>
      </g>
     </g>
    </g>
    <g id="xtick_5">
     <g id="line2d_13">
      <path clip-path="url(#p83b891dfdb)" d="M 97.755429 298.944 
L 97.755429 27.648 
" style="fill:none;stroke:#b0b0b0;stroke-linecap:square;stroke-width:0.8;"/>
     </g>
     <g id="line2d_14">
      <defs>
       <path d="M 0 0 
L 0 2 
" id="mfcc740b0a7" style="stroke:#000000;stroke-width:0.6;"/>
      </defs>
      <g>
       <use style="stroke:#000000;stroke-width:0.6;" x="97.755429" xlink:href="#mfcc740b0a7" y="298.944"/>
      </g>
     </g>
    </g>
    <g id="xtick_6">
     <g id="line2d_15">
      <path clip-path="url(#p83b891dfdb)" d="M 178.066286 298.944 
L 178.066286 27.648 
" style="fill:none;stroke:#b0b0b0;stroke-linecap:square;stroke-width:0.8;"/>
     </g>
     <g id="line2d_16">
      <g>
       <use style="stroke:#000000;stroke-width:0.6;" x="178.066286" xlink:href="#mfcc740b0a7" y="298.944"/>
      </g>
     </g>
    </g>
    <g id="xtick_7">
     <g id="line2d_17">
      <path clip-path="url(#p83b891dfdb)" d="M 258.377143 298.944 
L 258.377143 27.648 
" style="fill:none;stroke:#b0b0b0;stroke-linecap:square;stroke-width:0.8;"/>
     </g>
     <g id="line2d_18">
      <g>
       <use style="stroke:#000000;stroke-width:0.6;" x="258.377143" xlink:href="#mfcc740b0a7" y="298.944"/>
      </g>
     </g>
    </g>
    <g id="xtick_8">
     <g id="line2d_19">
      <path clip-path="url(#p83b891dfdb)" d="M 338.688 298.944 
L 338.688 27.648 
" style="fill:none;stroke:#b0b0b0;stroke-linecap:square;stroke-width:0.8;"/>
     </g>
     <g id="line2d_20">
      <g>
       <use style="stroke:#000000;stroke-width:0.6;" x="338.688" xlink:href="#mfcc740b0a7" y="298.944"/>
      </g>
     </g>
    </g>
    <g id="text_5">
     <!-- log10(# f-evals / dimension) -->
     <defs>
      <path d="M 9.421875 75.984375 
L 18.40625 75.984375 
L 18.40625 0 
L 9.421875 0 
z
" id="DejaVuSans-108"/>
      <path d="M 30.609375 48.390625 
Q 23.390625 48.390625 19.1875 42.75 
Q 14.984375 37.109375 14.984375 27.296875 
Q 14.984375 17.484375 19.15625 11.84375 
Q 23.34375 6.203125 30.609375 6.203125 
Q 37.796875 6.203125 41.984375 11.859375 
Q 46.1875 17.53125 46.1875 27.296875 
Q 46.1875 37.015625 41.984375 42.703125 
Q 37.796875 48.390625 30.609375 48.390625 
z
M 30.609375 56 
Q 42.328125 56 49.015625 48.375 
Q 55.71875 40.765625 55.71875 27.296875 
Q 55.71875 13.875 49.015625 6.21875 
Q 42.328125 -1.421875 30.609375 -1.421875 
Q 18.84375 -1.421875 12.171875 6.21875 
Q 5.515625 13.875 5.515625 27.296875 
Q 5.515625 40.765625 12.171875 48.375 
Q 18.84375 56 30.609375 56 
z
" id="DejaVuSans-111"/>
      <path d="M 45.40625 27.984375 
Q 45.40625 37.75 41.375 43.109375 
Q 37.359375 48.484375 30.078125 48.484375 
Q 22.859375 48.484375 18.828125 43.109375 
Q 14.796875 37.75 14.796875 27.984375 
Q 14.796875 18.265625 18.828125 12.890625 
Q 22.859375 7.515625 30.078125 7.515625 
Q 37.359375 7.515625 41.375 12.890625 
Q 45.40625 18.265625 45.40625 27.984375 
z
M 54.390625 6.78125 
Q 54.390625 -7.171875 48.1875 -13.984375 
Q 42 -20.796875 29.203125 -20.796875 
Q 24.46875 -20.796875 20.265625 -20.09375 
Q 16.0625 -19.390625 12.109375 -17.921875 
L 12.109375 -9.1875 
Q 16.0625 -11.328125 19.921875 -12.34375 
Q 23.78125 -13.375 27.78125 -13.375 
Q 36.625 -13.375 41.015625 -8.765625 
Q 45.40625 -4.15625 45.40625 5.171875 
L 45.40625 9.625 
Q 42.625 4.78125 38.28125 2.390625 
Q 33.9375 0 27.875 0 
Q 17.828125 0 11.671875 7.65625 
Q 5.515625 15.328125 5.515625 27.984375 
Q 5.515625 40.671875 11.671875 48.328125 
Q 17.828125 56 27.875 56 
Q 33.9375 56 38.28125 53.609375 
Q 42.625 51.21875 45.40625 46.390625 
L 45.40625 54.6875 
L 54.390625 54.6875 
z
" id="DejaVuSans-103"/>
      <path d="M 12.40625 8.296875 
L 28.515625 8.296875 
L 28.515625 63.921875 
L 10.984375 60.40625 
L 10.984375 69.390625 
L 28.421875 72.90625 
L 38.28125 72.90625 
L 38.28125 8.296875 
L 54.390625 8.296875 
L 54.390625 0 
L 12.40625 0 
z
" id="DejaVuSans-49"/>
      <path d="M 31 75.875 
Q 24.46875 64.65625 21.28125 53.65625 
Q 18.109375 42.671875 18.109375 31.390625 
Q 18.109375 20.125 21.3125 9.0625 
Q 24.515625 -2 31 -13.1875 
L 23.1875 -13.1875 
Q 15.875 -1.703125 12.234375 9.375 
Q 8.59375 20.453125 8.59375 31.390625 
Q 8.59375 42.28125 12.203125 53.3125 
Q 15.828125 64.359375 23.1875 75.875 
z
" id="DejaVuSans-40"/>
      <path d="M 51.125 44 
L 36.921875 44 
L 32.8125 27.6875 
L 47.125 27.6875 
z
M 43.796875 71.78125 
L 38.71875 51.515625 
L 52.984375 51.515625 
L 58.109375 71.78125 
L 65.921875 71.78125 
L 60.890625 51.515625 
L 76.125 51.515625 
L 76.125 44 
L 58.984375 44 
L 54.984375 27.6875 
L 70.515625 27.6875 
L 70.515625 20.21875 
L 53.078125 20.21875 
L 48 0 
L 40.1875 0 
L 45.21875 20.21875 
L 30.90625 20.21875 
L 25.875 0 
L 18.015625 0 
L 23.09375 20.21875 
L 7.71875 20.21875 
L 7.71875 27.6875 
L 24.90625 27.6875 
L 29 44 
L 13.28125 44 
L 13.28125 51.515625 
L 30.90625 51.515625 
L 35.890625 71.78125 
z
" id="DejaVuSans-35"/>
      <path id="DejaVuSans-32"/>
      <path d="M 37.109375 75.984375 
L 37.109375 68.5 
L 28.515625 68.5 
Q 23.6875 68.5 21.796875 66.546875 
Q 19.921875 64.59375 19.921875 59.515625 
L 19.921875 54.6875 
L 34.71875 54.6875 
L 34.71875 47.703125 
L 19.921875 47.703125 
L 19.921875 0 
L 10.890625 0 
L 10.890625 47.703125 
L 2.296875 47.703125 
L 2.296875 54.6875 
L 10.890625 54.6875 
L 10.890625 58.5 
Q 10.890625 67.625 15.140625 71.796875 
Q 19.390625 75.984375 28.609375 75.984375 
z
" id="DejaVuSans-102"/>
      <path d="M 4.890625 31.390625 
L 31.203125 31.390625 
L 31.203125 23.390625 
L 4.890625 23.390625 
z
" id="DejaVuSans-45"/>
      <path d="M 56.203125 29.59375 
L 56.203125 25.203125 
L 14.890625 25.203125 
Q 15.484375 15.921875 20.484375 11.0625 
Q 25.484375 6.203125 34.421875 6.203125 
Q 39.59375 6.203125 44.453125 7.46875 
Q 49.3125 8.734375 54.109375 11.28125 
L 54.109375 2.78125 
Q 49.265625 0.734375 44.1875 -0.34375 
Q 39.109375 -1.421875 33.890625 -1.421875 
Q 20.796875 -1.421875 13.15625 6.1875 
Q 5.515625 13.8125 5.515625 26.8125 
Q 5.515625 40.234375 12.765625 48.109375 
Q 20.015625 56 32.328125 56 
Q 43.359375 56 49.78125 48.890625 
Q 56.203125 41.796875 56.203125 29.59375 
z
M 47.21875 32.234375 
Q 47.125 39.59375 43.09375 43.984375 
Q 39.0625 48.390625 32.421875 48.390625 
Q 24.90625 48.390625 20.390625 44.140625 
Q 15.875 39.890625 15.1875 32.171875 
z
" id="DejaVuSans-101"/>
      <path d="M 2.984375 54.6875 
L 12.5 54.6875 
L 29.59375 8.796875 
L 46.6875 54.6875 
L 56.203125 54.6875 
L 35.6875 0 
L 23.484375 0 
z
" id="DejaVuSans-118"/>
      <path d="M 34.28125 27.484375 
Q 23.390625 27.484375 19.1875 25 
Q 14.984375 22.515625 14.984375 16.5 
Q 14.984375 11.71875 18.140625 8.90625 
Q 21.296875 6.109375 26.703125 6.109375 
Q 34.1875 6.109375 38.703125 11.40625 
Q 43.21875 16.703125 43.21875 25.484375 
L 43.21875 27.484375 
z
M 52.203125 31.203125 
L 52.203125 0 
L 43.21875 0 
L 43.21875 8.296875 
Q 40.140625 3.328125 35.546875 0.953125 
Q 30.953125 -1.421875 24.3125 -1.421875 
Q 15.921875 -1.421875 10.953125 3.296875 
Q 6 8.015625 6 15.921875 
Q 6 25.140625 12.171875 29.828125 
Q 18.359375 34.515625 30.609375 34.515625 
L 43.21875 34.515625 
L 43.21875 35.40625 
Q 43.21875 41.609375 39.140625 45 
Q 35.0625 48.390625 27.6875 48.390625 
Q 23 48.390625 18.546875 47.265625 
Q 14.109375 46.140625 10.015625 43.890625 
L 10.015625 52.203125 
Q 14.9375 54.109375 19.578125 55.046875 
Q 24.21875 56 28.609375 56 
Q 40.484375 56 46.34375 49.84375 
Q 52.203125 43.703125 52.203125 31.203125 
z
" id="DejaVuSans-97"/>
      <path d="M 44.28125 53.078125 
L 44.28125 44.578125 
Q 40.484375 46.53125 36.375 47.5 
Q 32.28125 48.484375 27.875 48.484375 
Q 21.1875 48.484375 17.84375 46.4375 
Q 14.5 44.390625 14.5 40.28125 
Q 14.5 37.15625 16.890625 35.375 
Q 19.28125 33.59375 26.515625 31.984375 
L 29.59375 31.296875 
Q 39.15625 29.25 43.1875 25.515625 
Q 47.21875 21.78125 47.21875 15.09375 
Q 47.21875 7.46875 41.1875 3.015625 
Q 35.15625 -1.421875 24.609375 -1.421875 
Q 20.21875 -1.421875 15.453125 -0.5625 
Q 10.6875 0.296875 5.421875 2 
L 5.421875 11.28125 
Q 10.40625 8.6875 15.234375 7.390625 
Q 20.0625 6.109375 24.8125 6.109375 
Q 31.15625 6.109375 34.5625 8.28125 
Q 37.984375 10.453125 37.984375 14.40625 
Q 37.984375 18.0625 35.515625 20.015625 
Q 33.0625 21.96875 24.703125 23.78125 
L 21.578125 24.515625 
Q 13.234375 26.265625 9.515625 29.90625 
Q 5.8125 33.546875 5.8125 39.890625 
Q 5.8125 47.609375 11.28125 51.796875 
Q 16.75 56 26.8125 56 
Q 31.78125 56 36.171875 55.265625 
Q 40.578125 54.546875 44.28125 53.078125 
z
" id="DejaVuSans-115"/>
      <path d="M 25.390625 72.90625 
L 33.6875 72.90625 
L 8.296875 -9.28125 
L 0 -9.28125 
z
" id="DejaVuSans-47"/>
      <path d="M 45.40625 46.390625 
L 45.40625 75.984375 
L 54.390625 75.984375 
L 54.390625 0 
L 45.40625 0 
L 45.40625 8.203125 
Q 42.578125 3.328125 38.25 0.953125 
Q 33.9375 -1.421875 27.875 -1.421875 
Q 17.96875 -1.421875 11.734375 6.484375 
Q 5.515625 14.40625 5.515625 27.296875 
Q 5.515625 40.1875 11.734375 48.09375 
Q 17.96875 56 27.875 56 
Q 33.9375 56 38.25 53.625 
Q 42.578125 51.265625 45.40625 46.390625 
z
M 14.796875 27.296875 
Q 14.796875 17.390625 18.875 11.75 
Q 22.953125 6.109375 30.078125 6.109375 
Q 37.203125 6.109375 41.296875 11.75 
Q 45.40625 17.390625 45.40625 27.296875 
Q 45.40625 37.203125 41.296875 42.84375 
Q 37.203125 48.484375 30.078125 48.484375 
Q 22.953125 48.484375 18.875 42.84375 
Q 14.796875 37.203125 14.796875 27.296875 
z
" id="DejaVuSans-100"/>
      <path d="M 9.421875 54.6875 
L 18.40625 54.6875 
L 18.40625 0 
L 9.421875 0 
z
M 9.421875 75.984375 
L 18.40625 75.984375 
L 18.40625 64.59375 
L 9.421875 64.59375 
z
" id="DejaVuSans-105"/>
      <path d="M 52 44.1875 
Q 55.375 50.25 60.0625 53.125 
Q 64.75 56 71.09375 56 
Q 79.640625 56 84.28125 50.015625 
Q 88.921875 44.046875 88.921875 33.015625 
L 88.921875 0 
L 79.890625 0 
L 79.890625 32.71875 
Q 79.890625 40.578125 77.09375 44.375 
Q 74.3125 48.1875 68.609375 48.1875 
Q 61.625 48.1875 57.5625 43.546875 
Q 53.515625 38.921875 53.515625 30.90625 
L 53.515625 0 
L 44.484375 0 
L 44.484375 32.71875 
Q 44.484375 40.625 41.703125 44.40625 
Q 38.921875 48.1875 33.109375 48.1875 
Q 26.21875 48.1875 22.15625 43.53125 
Q 18.109375 38.875 18.109375 30.90625 
L 18.109375 0 
L 9.078125 0 
L 9.078125 54.6875 
L 18.109375 54.6875 
L 18.109375 46.1875 
Q 21.1875 51.21875 25.484375 53.609375 
Q 29.78125 56 35.6875 56 
Q 41.65625 56 45.828125 52.96875 
Q 50 49.953125 52 44.1875 
z
" id="DejaVuSans-109"/>
      <path d="M 54.890625 33.015625 
L 54.890625 0 
L 45.90625 0 
L 45.90625 32.71875 
Q 45.90625 40.484375 42.875 44.328125 
Q 39.84375 48.1875 33.796875 48.1875 
Q 26.515625 48.1875 22.3125 43.546875 
Q 18.109375 38.921875 18.109375 30.90625 
L 18.109375 0 
L 9.078125 0 
L 9.078125 54.6875 
L 18.109375 54.6875 
L 18.109375 46.1875 
Q 21.34375 51.125 25.703125 53.5625 
Q 30.078125 56 35.796875 56 
Q 45.21875 56 50.046875 50.171875 
Q 54.890625 44.34375 54.890625 33.015625 
z
" id="DejaVuSans-110"/>
      <path d="M 8.015625 75.875 
L 15.828125 75.875 
Q 23.140625 64.359375 26.78125 53.3125 
Q 30.421875 42.28125 30.421875 31.390625 
Q 30.421875 20.453125 26.78125 9.375 
Q 23.140625 -1.703125 15.828125 -13.1875 
L 8.015625 -13.1875 
Q 14.5 -2 17.703125 9.0625 
Q 20.90625 20.125 20.90625 31.390625 
Q 20.90625 42.671875 17.703125 53.65625 
Q 14.5 64.65625 8.015625 75.875 
z
" id="DejaVuSans-41"/>
     </defs>
     <g transform="translate(77.303219 342.217594)scale(0.17 -0.17)">
      <use xlink:href="#DejaVuSans-108"/>
      <use x="27.783203" xlink:href="#DejaVuSans-111"/>
      <use x="88.964844" xlink:href="#DejaVuSans-103"/>
      <use x="152.441406" xlink:href="#DejaVuSans-49"/>
      <use x="216.064453" xlink:href="#DejaVuSans-48"/>
      <use x="279.6875" xlink:href="#DejaVuSans-40"/>
      <use x="318.701172" xlink:href="#DejaVuSans-35"/>
      <use x="402.490234" xlink:href="#DejaVuSans-32"/>
      <use x="434.277344" xlink:href="#DejaVuSans-102"/>
      <use x="469.404297" xlink:href="#DejaVuSans-45"/>
      <use x="505.488281" xlink:href="#DejaVuSans-101"/>
      <use x="567.011719" xlink:href="#DejaVuSans-118"/>
      <use x="626.191406" xlink:href="#DejaVuSans-97"/>
      <use x="687.470703" xlink:href="#DejaVuSans-108"/>
      <use x="715.253906" xlink:href="#DejaVuSans-115"/>
      <use x="767.353516" xlink:href="#DejaVuSans-32"/>
      <use x="799.140625" xlink:href="#DejaVuSans-47"/>
      <use x="832.832031" xlink:href="#DejaVuSans-32"/>
      <use x="864.619141" xlink:href="#DejaVuSans-100"/>
      <use x="928.095703" xlink:href="#DejaVuSans-105"/>
      <use x="955.878906" xlink:href="#DejaVuSans-109"/>
      <use x="1053.291016" xlink:href="#DejaVuSans-101"/>
      <use x="1114.814453" xlink:href="#DejaVuSans-110"/>
      <use x="1178.193359" xlink:href="#DejaVuSans-115"/>
      <use x="1230.292969" xlink:href="#DejaVuSans-105"/>
      <use x="1258.076172" xlink:href="#DejaVuSans-111"/>
      <use x="1319.257812" xlink:href="#DejaVuSans-110"/>
      <use x="1382.636719" xlink:href="#DejaVuSans-41"/>
     </g>
    </g>
   </g>
   <g id="matplotlib.axis_2">
    <g id="ytick_1">
     <g id="line2d_21">
      <path clip-path="url(#p83b891dfdb)" d="M 57.6 298.944 
L 338.688 298.944 
" style="fill:none;stroke:#b0b0b0;stroke-linecap:square;stroke-width:0.8;"/>
     </g>
     <g id="line2d_22">
      <defs>
       <path d="M 0 0 
L -3.5 0 
" id="m7bb3f2ab89" style="stroke:#000000;stroke-width:0.8;"/>
      </defs>
      <g>
       <use style="stroke:#000000;stroke-width:0.8;" x="57.6" xlink:href="#m7bb3f2ab89" y="298.944"/>
      </g>
     </g>
     <g id="text_6">
      <!-- 0.0 -->
      <defs>
       <path d="M 10.6875 12.40625 
L 21 12.40625 
L 21 0 
L 10.6875 0 
z
" id="DejaVuSans-46"/>
      </defs>
      <g transform="translate(25.155 305.02275)scale(0.16 -0.16)">
       <use xlink:href="#DejaVuSans-48"/>
       <use x="63.623047" xlink:href="#DejaVuSans-46"/>
       <use x="95.410156" xlink:href="#DejaVuSans-48"/>
      </g>
     </g>
    </g>
    <g id="ytick_2">
     <g id="line2d_23">
      <path clip-path="url(#p83b891dfdb)" d="M 57.6 245.22202 
L 338.688 245.22202 
" style="fill:none;stroke:#b0b0b0;stroke-linecap:square;stroke-width:0.8;"/>
     </g>
     <g id="line2d_24">
      <g>
       <use style="stroke:#000000;stroke-width:0.8;" x="57.6" xlink:href="#m7bb3f2ab89" y="245.22202"/>
      </g>
     </g>
     <g id="text_7">
      <!-- 0.2 -->
      <g transform="translate(25.155 251.30077)scale(0.16 -0.16)">
       <use xlink:href="#DejaVuSans-48"/>
       <use x="63.623047" xlink:href="#DejaVuSans-46"/>
       <use x="95.410156" xlink:href="#DejaVuSans-50"/>
      </g>
     </g>
    </g>
    <g id="ytick_3">
     <g id="line2d_25">
      <path clip-path="url(#p83b891dfdb)" d="M 57.6 191.50004 
L 338.688 191.50004 
" style="fill:none;stroke:#b0b0b0;stroke-linecap:square;stroke-width:0.8;"/>
     </g>
     <g id="line2d_26">
      <g>
       <use style="stroke:#000000;stroke-width:0.8;" x="57.6" xlink:href="#m7bb3f2ab89" y="191.50004"/>
      </g>
     </g>
     <g id="text_8">
      <!-- 0.4 -->
      <g transform="translate(25.155 197.57879)scale(0.16 -0.16)">
       <use xlink:href="#DejaVuSans-48"/>
       <use x="63.623047" xlink:href="#DejaVuSans-46"/>
       <use x="95.410156" xlink:href="#DejaVuSans-52"/>
      </g>
     </g>
    </g>
    <g id="ytick_4">
     <g id="line2d_27">
      <path clip-path="url(#p83b891dfdb)" d="M 57.6 137.778059 
L 338.688 137.778059 
" style="fill:none;stroke:#b0b0b0;stroke-linecap:square;stroke-width:0.8;"/>
     </g>
     <g id="line2d_28">
      <g>
       <use style="stroke:#000000;stroke-width:0.8;" x="57.6" xlink:href="#m7bb3f2ab89" y="137.778059"/>
      </g>
     </g>
     <g id="text_9">
      <!-- 0.6 -->
      <g transform="translate(25.155 143.856809)scale(0.16 -0.16)">
       <use xlink:href="#DejaVuSans-48"/>
       <use x="63.623047" xlink:href="#DejaVuSans-46"/>
       <use x="95.410156" xlink:href="#DejaVuSans-54"/>
      </g>
     </g>
    </g>
    <g id="ytick_5">
     <g id="line2d_29">
      <path clip-path="url(#p83b891dfdb)" d="M 57.6 84.056079 
L 338.688 84.056079 
" style="fill:none;stroke:#b0b0b0;stroke-linecap:square;stroke-width:0.8;"/>
     </g>
     <g id="line2d_30">
      <g>
       <use style="stroke:#000000;stroke-width:0.8;" x="57.6" xlink:href="#m7bb3f2ab89" y="84.056079"/>
      </g>
     </g>
     <g id="text_10">
      <!-- 0.8 -->
      <defs>
       <path d="M 31.78125 34.625 
Q 24.75 34.625 20.71875 30.859375 
Q 16.703125 27.09375 16.703125 20.515625 
Q 16.703125 13.921875 20.71875 10.15625 
Q 24.75 6.390625 31.78125 6.390625 
Q 38.8125 6.390625 42.859375 10.171875 
Q 46.921875 13.96875 46.921875 20.515625 
Q 46.921875 27.09375 42.890625 30.859375 
Q 38.875 34.625 31.78125 34.625 
z
M 21.921875 38.8125 
Q 15.578125 40.375 12.03125 44.71875 
Q 8.5 49.078125 8.5 55.328125 
Q 8.5 64.0625 14.71875 69.140625 
Q 20.953125 74.21875 31.78125 74.21875 
Q 42.671875 74.21875 48.875 69.140625 
Q 55.078125 64.0625 55.078125 55.328125 
Q 55.078125 49.078125 51.53125 44.71875 
Q 48 40.375 41.703125 38.8125 
Q 48.828125 37.15625 52.796875 32.3125 
Q 56.78125 27.484375 56.78125 20.515625 
Q 56.78125 9.90625 50.3125 4.234375 
Q 43.84375 -1.421875 31.78125 -1.421875 
Q 19.734375 -1.421875 13.25 4.234375 
Q 6.78125 9.90625 6.78125 20.515625 
Q 6.78125 27.484375 10.78125 32.3125 
Q 14.796875 37.15625 21.921875 38.8125 
z
M 18.3125 54.390625 
Q 18.3125 48.734375 21.84375 45.5625 
Q 25.390625 42.390625 31.78125 42.390625 
Q 38.140625 42.390625 41.71875 45.5625 
Q 45.3125 48.734375 45.3125 54.390625 
Q 45.3125 60.0625 41.71875 63.234375 
Q 38.140625 66.40625 31.78125 66.40625 
Q 25.390625 66.40625 21.84375 63.234375 
Q 18.3125 60.0625 18.3125 54.390625 
z
" id="DejaVuSans-56"/>
      </defs>
      <g transform="translate(25.155 90.134829)scale(0.16 -0.16)">
       <use xlink:href="#DejaVuSans-48"/>
       <use x="63.623047" xlink:href="#DejaVuSans-46"/>
       <use x="95.410156" xlink:href="#DejaVuSans-56"/>
      </g>
     </g>
    </g>
    <g id="ytick_6">
     <g id="line2d_31">
      <path clip-path="url(#p83b891dfdb)" d="M 57.6 30.334099 
L 338.688 30.334099 
" style="fill:none;stroke:#b0b0b0;stroke-linecap:square;stroke-width:0.8;"/>
     </g>
     <g id="line2d_32">
      <g>
       <use style="stroke:#000000;stroke-width:0.8;" x="57.6" xlink:href="#m7bb3f2ab89" y="30.334099"/>
      </g>
     </g>
     <g id="text_11">
      <!-- 1.0 -->
      <g transform="translate(25.155 36.412849)scale(0.16 -0.16)">
       <use xlink:href="#DejaVuSans-49"/>
       <use x="63.623047" xlink:href="#DejaVuSans-46"/>
       <use x="95.410156" xlink:href="#DejaVuSans-48"/>
      </g>
     </g>
    </g>
    <g id="text_12">
     <!-- Fraction of function,target pairs -->
     <defs>
      <path d="M 9.8125 72.90625 
L 51.703125 72.90625 
L 51.703125 64.59375 
L 19.671875 64.59375 
L 19.671875 43.109375 
L 48.578125 43.109375 
L 48.578125 34.8125 
L 19.671875 34.8125 
L 19.671875 0 
L 9.8125 0 
z
" id="DejaVuSans-70"/>
      <path d="M 41.109375 46.296875 
Q 39.59375 47.171875 37.8125 47.578125 
Q 36.03125 48 33.890625 48 
Q 26.265625 48 22.1875 43.046875 
Q 18.109375 38.09375 18.109375 28.8125 
L 18.109375 0 
L 9.078125 0 
L 9.078125 54.6875 
L 18.109375 54.6875 
L 18.109375 46.1875 
Q 20.953125 51.171875 25.484375 53.578125 
Q 30.03125 56 36.53125 56 
Q 37.453125 56 38.578125 55.875 
Q 39.703125 55.765625 41.0625 55.515625 
z
" id="DejaVuSans-114"/>
      <path d="M 48.78125 52.59375 
L 48.78125 44.1875 
Q 44.96875 46.296875 41.140625 47.34375 
Q 37.3125 48.390625 33.40625 48.390625 
Q 24.65625 48.390625 19.8125 42.84375 
Q 14.984375 37.3125 14.984375 27.296875 
Q 14.984375 17.28125 19.8125 11.734375 
Q 24.65625 6.203125 33.40625 6.203125 
Q 37.3125 6.203125 41.140625 7.25 
Q 44.96875 8.296875 48.78125 10.40625 
L 48.78125 2.09375 
Q 45.015625 0.34375 40.984375 -0.53125 
Q 36.96875 -1.421875 32.421875 -1.421875 
Q 20.0625 -1.421875 12.78125 6.34375 
Q 5.515625 14.109375 5.515625 27.296875 
Q 5.515625 40.671875 12.859375 48.328125 
Q 20.21875 56 33.015625 56 
Q 37.15625 56 41.109375 55.140625 
Q 45.0625 54.296875 48.78125 52.59375 
z
" id="DejaVuSans-99"/>
      <path d="M 18.3125 70.21875 
L 18.3125 54.6875 
L 36.8125 54.6875 
L 36.8125 47.703125 
L 18.3125 47.703125 
L 18.3125 18.015625 
Q 18.3125 11.328125 20.140625 9.421875 
Q 21.96875 7.515625 27.59375 7.515625 
L 36.8125 7.515625 
L 36.8125 0 
L 27.59375 0 
Q 17.1875 0 13.234375 3.875 
Q 9.28125 7.765625 9.28125 18.015625 
L 9.28125 47.703125 
L 2.6875 47.703125 
L 2.6875 54.6875 
L 9.28125 54.6875 
L 9.28125 70.21875 
z
" id="DejaVuSans-116"/>
      <path d="M 8.5 21.578125 
L 8.5 54.6875 
L 17.484375 54.6875 
L 17.484375 21.921875 
Q 17.484375 14.15625 20.5 10.265625 
Q 23.53125 6.390625 29.59375 6.390625 
Q 36.859375 6.390625 41.078125 11.03125 
Q 45.3125 15.671875 45.3125 23.6875 
L 45.3125 54.6875 
L 54.296875 54.6875 
L 54.296875 0 
L 45.3125 0 
L 45.3125 8.40625 
Q 42.046875 3.421875 37.71875 1 
Q 33.40625 -1.421875 27.6875 -1.421875 
Q 18.265625 -1.421875 13.375 4.4375 
Q 8.5 10.296875 8.5 21.578125 
z
M 31.109375 56 
z
" id="DejaVuSans-117"/>
      <path d="M 11.71875 12.40625 
L 22.015625 12.40625 
L 22.015625 4 
L 14.015625 -11.625 
L 7.71875 -11.625 
L 11.71875 4 
z
" id="DejaVuSans-44"/>
      <path d="M 18.109375 8.203125 
L 18.109375 -20.796875 
L 9.078125 -20.796875 
L 9.078125 54.6875 
L 18.109375 54.6875 
L 18.109375 46.390625 
Q 20.953125 51.265625 25.265625 53.625 
Q 29.59375 56 35.59375 56 
Q 45.5625 56 51.78125 48.09375 
Q 58.015625 40.1875 58.015625 27.296875 
Q 58.015625 14.40625 51.78125 6.484375 
Q 45.5625 -1.421875 35.59375 -1.421875 
Q 29.59375 -1.421875 25.265625 0.953125 
Q 20.953125 3.328125 18.109375 8.203125 
z
M 48.6875 27.296875 
Q 48.6875 37.203125 44.609375 42.84375 
Q 40.53125 48.484375 33.40625 48.484375 
Q 26.265625 48.484375 22.1875 42.84375 
Q 18.109375 37.203125 18.109375 27.296875 
Q 18.109375 17.390625 22.1875 11.75 
Q 26.265625 6.109375 33.40625 6.109375 
Q 40.53125 6.109375 44.609375 11.75 
Q 48.6875 17.390625 48.6875 27.296875 
z
" id="DejaVuSans-112"/>
     </defs>
     <g transform="translate(17.619531 298.435375)rotate(-90)scale(0.17 -0.17)">
      <use xlink:href="#DejaVuSans-70"/>
      <use x="57.410156" xlink:href="#DejaVuSans-114"/>
      <use x="98.523438" xlink:href="#DejaVuSans-97"/>
      <use x="159.802734" xlink:href="#DejaVuSans-99"/>
      <use x="214.783203" xlink:href="#DejaVuSans-116"/>
      <use x="253.992188" xlink:href="#DejaVuSans-105"/>
      <use x="281.775391" xlink:href="#DejaVuSans-111"/>
      <use x="342.957031" xlink:href="#DejaVuSans-110"/>
      <use x="406.335938" xlink:href="#DejaVuSans-32"/>
      <use x="438.123047" xlink:href="#DejaVuSans-111"/>
      <use x="499.304688" xlink:href="#DejaVuSans-102"/>
      <use x="534.509766" xlink:href="#DejaVuSans-32"/>
      <use x="566.296875" xlink:href="#DejaVuSans-102"/>
      <use x="601.501953" xlink:href="#DejaVuSans-117"/>
      <use x="664.880859" xlink:href="#DejaVuSans-110"/>
      <use x="728.259766" xlink:href="#DejaVuSans-99"/>
      <use x="783.240234" xlink:href="#DejaVuSans-116"/>
      <use x="822.449219" xlink:href="#DejaVuSans-105"/>
      <use x="850.232422" xlink:href="#DejaVuSans-111"/>
      <use x="911.414062" xlink:href="#DejaVuSans-110"/>
      <use x="974.792969" xlink:href="#DejaVuSans-44"/>
      <use x="1006.580078" xlink:href="#DejaVuSans-116"/>
      <use x="1045.789062" xlink:href="#DejaVuSans-97"/>
      <use x="1107.068359" xlink:href="#DejaVuSans-114"/>
      <use x="1148.166016" xlink:href="#DejaVuSans-103"/>
      <use x="1211.642578" xlink:href="#DejaVuSans-101"/>
      <use x="1273.166016" xlink:href="#DejaVuSans-116"/>
      <use x="1312.375" xlink:href="#DejaVuSans-32"/>
      <use x="1344.162109" xlink:href="#DejaVuSans-112"/>
      <use x="1407.638672" xlink:href="#DejaVuSans-97"/>
      <use x="1468.917969" xlink:href="#DejaVuSans-105"/>
      <use x="1496.701172" xlink:href="#DejaVuSans-114"/>
      <use x="1537.814453" xlink:href="#DejaVuSans-115"/>
     </g>
    </g>
   </g>
   <g id="line2d_33">
    <defs>
     <path d="M 0 1.5 
C 0.397805 1.5 0.77937 1.341951 1.06066 1.06066 
C 1.341951 0.77937 1.5 0.397805 1.5 0 
C 1.5 -0.397805 1.341951 -0.77937 1.06066 -1.06066 
C 0.77937 -1.341951 0.397805 -1.5 0 -1.5 
C -0.397805 -1.5 -0.77937 -1.341951 -1.06066 -1.06066 
C -1.341951 -0.77937 -1.5 -0.397805 -1.5 0 
C -1.5 0.397805 -1.341951 0.77937 -1.06066 1.06066 
C -0.77937 1.341951 -0.397805 1.5 0 1.5 
z
" id="mfc0f6610c2" style="stroke:#f5deb3;"/>
    </defs>
    <g>
     <use style="fill:#f5deb3;stroke:#f5deb3;" x="261.436878" xlink:href="#mfc0f6610c2" y="30.334099"/>
     <use style="fill:#f5deb3;stroke:#f5deb3;" x="261.436878" xlink:href="#mfc0f6610c2" y="30.334099"/>
    </g>
   </g>
   <g id="line2d_34">
    <defs>
     <path d="M 0 1.5 
C 0.397805 1.5 0.77937 1.341951 1.06066 1.06066 
C 1.341951 0.77937 1.5 0.397805 1.5 0 
C 1.5 -0.397805 1.341951 -0.77937 1.06066 -1.06066 
C 0.77937 -1.341951 0.397805 -1.5 0 -1.5 
C -0.397805 -1.5 -0.77937 -1.341951 -1.06066 -1.06066 
C -1.341951 -0.77937 -1.5 -0.397805 -1.5 0 
C -1.5 0.397805 -1.341951 0.77937 -1.06066 1.06066 
C -0.77937 1.341951 -0.397805 1.5 0 1.5 
z
" id="mcbb0cf321b" style="stroke:#000080;"/>
    </defs>
    <g>
     <use style="fill:#000080;stroke:#000080;" x="306.694329" xlink:href="#mcbb0cf321b" y="30.334099"/>
     <use style="fill:#000080;stroke:#000080;" x="306.694329" xlink:href="#mcbb0cf321b" y="30.334099"/>
    </g>
   </g>
   <g id="line2d_35">
    <path d="M 38.440992 298.944 
L 38.440992 288.936964 
L 50.52898 288.936964 
L 50.52898 286.83022 
L 57.6 286.83022 
L 57.6 284.723476 
L 62.616969 284.723476 
L 62.616969 283.670104 
L 66.508432 283.670104 
L 66.508432 282.616732 
L 72.376266 282.616732 
L 72.376266 282.090045 
L 74.704957 282.090045 
L 74.704957 281.563359 
L 83.171864 281.563359 
L 83.171864 279.456615 
L 84.464254 279.456615 
L 84.464254 278.929929 
L 87.850195 278.929929 
L 87.850195 277.349871 
L 91.535274 277.349871 
L 91.535274 276.823185 
L 92.34655 276.823185 
L 92.34655 276.296499 
L 93.121756 276.296499 
L 93.121756 275.769812 
L 95.259853 275.769812 
L 95.259853 274.71644 
L 108.006005 274.71644 
L 108.006005 274.189754 
L 110.694282 274.189754 
L 110.694282 273.663068 
L 112.531694 273.663068 
L 112.531694 273.136382 
L 113.26352 273.136382 
L 113.26352 272.609696 
L 114.641021 272.609696 
L 114.641021 272.08301 
L 116.323218 272.08301 
L 116.323218 271.556324 
L 117.672786 271.556324 
L 117.672786 271.029638 
L 119.43583 271.029638 
L 119.43583 270.502952 
L 119.768017 270.502952 
L 119.768017 269.976266 
L 124.114161 269.976266 
L 124.114161 269.449579 
L 126.281824 269.449579 
L 126.281824 268.922893 
L 128.411207 268.922893 
L 128.411207 268.396207 
L 131.60746 268.396207 
L 131.60746 267.869521 
L 135.615352 267.869521 
L 135.615352 267.342835 
L 136.266147 267.342835 
L 136.266147 266.816149 
L 136.456742 266.816149 
L 136.456742 266.289463 
L 140.599134 266.289463 
L 140.64889 265.236091 
L 141.80232 265.236091 
L 141.80232 264.709405 
L 142.884173 264.709405 
L 142.884173 264.182719 
L 145.888018 264.182719 
L 145.888018 263.656033 
L 152.687123 263.656033 
L 152.687123 263.129347 
L 161.749336 263.129347 
L 161.749336 262.60266 
L 166.583849 262.60266 
L 166.583849 262.075974 
L 167.608702 262.075974 
L 167.608702 261.549288 
L 169.379278 261.549288 
L 169.379278 261.022602 
L 170.5984 261.022602 
L 170.5984 259.96923 
L 173.777957 259.96923 
L 173.777957 259.442544 
L 173.977519 259.442544 
L 173.977519 258.915858 
L 174.283479 258.915858 
L 174.283479 258.389172 
L 178.089523 258.389172 
L 178.089523 257.862486 
L 178.388818 257.862486 
L 178.388818 257.3358 
L 179.109852 257.3358 
L 179.109852 256.809114 
L 179.938541 256.809114 
L 179.938541 256.282427 
L 183.695823 256.282427 
L 183.695823 255.755741 
L 184.049996 255.755741 
L 184.049996 255.229055 
L 184.962035 255.229055 
L 184.962035 254.702369 
L 185.917903 254.702369 
L 185.917903 254.175683 
L 187.422344 254.175683 
L 187.422344 253.648997 
L 187.891892 253.648997 
L 187.891892 253.122311 
L 188.076227 253.122311 
L 188.076227 252.595625 
L 188.869931 252.595625 
L 188.919919 251.542253 
L 189.351301 251.542253 
L 189.351301 251.015567 
L 192.490231 251.015567 
L 192.490231 250.488881 
L 192.657212 250.488881 
L 192.657212 249.962195 
L 196.696105 249.962195 
L 196.696105 249.435508 
L 210.842805 249.435508 
L 210.842805 248.908822 
L 211.096549 248.908822 
L 211.096549 247.85545 
L 214.288784 247.85545 
L 214.288784 247.328764 
L 214.763708 247.328764 
L 214.763708 246.802078 
L 215.701303 246.802078 
L 215.701303 245.748706 
L 216.050426 245.748706 
L 216.050426 245.22202 
L 218.77835 245.22202 
L 218.77835 244.168648 
L 219.369549 244.168648 
L 219.369549 243.641962 
L 221.09979 243.641962 
L 221.09979 243.115275 
L 221.677614 243.115275 
L 221.677614 242.061903 
L 221.96982 242.061903 
L 221.96982 240.481845 
L 222.31201 240.481845 
L 222.328554 237.848415 
L 222.51451 237.848415 
L 222.617822 236.795043 
L 222.626404 236.795043 
L 222.626404 236.268356 
L 222.762245 236.268356 
L 222.868112 234.688298 
L 222.91259 234.688298 
L 223.010927 232.054868 
L 230.964594 232.054868 
L 230.964594 231.528182 
L 231.142843 231.528182 
L 231.142843 231.001496 
L 231.611163 231.001496 
L 231.611163 230.47481 
L 231.72838 230.47481 
L 231.823776 227.841379 
L 231.908313 227.841379 
L 231.975014 226.261321 
L 232.2653 226.261321 
L 232.293598 225.207949 
L 235.314241 225.207949 
L 235.393466 222.574518 
L 236.236399 222.574518 
L 236.236399 222.047832 
L 236.760816 222.047832 
L 236.760816 221.521146 
L 237.577065 221.521146 
L 237.577065 220.99446 
L 237.841565 220.99446 
L 237.841565 220.467774 
L 238.095233 220.467774 
L 238.108248 219.414402 
L 238.611273 219.414402 
L 238.643926 217.834344 
L 238.742413 217.834344 
L 238.819128 215.200913 
L 238.8804 215.200913 
L 238.911842 214.147541 
L 238.992411 214.147541 
L 239.1016 212.567483 
L 239.11371 212.567483 
L 239.160665 211.514111 
L 242.913317 211.514111 
L 242.913317 210.987425 
L 243.1195 210.987425 
L 243.230139 207.827308 
L 243.275111 207.827308 
L 243.275111 207.300622 
L 245.126405 207.300622 
L 245.136842 205.720564 
L 245.6782 205.720564 
L 245.6782 205.193878 
L 245.876225 205.193878 
L 245.876225 204.667192 
L 246.239207 204.667192 
L 246.239207 204.140506 
L 246.742446 204.140506 
L 246.742446 203.613819 
L 247.070901 203.613819 
L 247.16591 200.980389 
L 247.19375 200.980389 
L 247.297643 195.713528 
L 247.311463 195.713528 
L 247.418147 190.973354 
L 249.936535 190.973354 
L 249.936535 190.446667 
L 250.155021 190.446667 
L 250.155021 189.919981 
L 252.649237 189.919981 
L 252.751387 187.286551 
L 252.78923 187.286551 
L 252.851506 184.126434 
L 252.942244 184.126434 
L 252.996461 182.01969 
L 254.871014 182.01969 
L 254.940246 180.966318 
L 256.820746 180.966318 
L 256.920563 179.912946 
L 257.001769 179.912946 
L 257.110562 174.646085 
L 257.123622 174.646085 
L 257.179001 171.485969 
L 258.727615 171.485969 
L 258.748227 170.432596 
L 260.461603 170.432596 
L 260.567898 161.478933 
L 260.590544 161.478933 
L 260.590544 160.952247 
L 261.859771 160.952247 
L 261.87048 159.898875 
L 263.250212 159.898875 
L 263.356664 155.1587 
L 263.3795 155.1587 
L 263.441351 151.998584 
L 264.533563 151.998584 
L 264.533563 151.471897 
L 265.108215 151.471897 
L 265.108215 150.945211 
L 265.753034 150.945211 
L 265.863881 139.884804 
L 266.815802 139.884804 
L 266.819314 138.831432 
L 267.901746 138.831432 
L 268.004667 131.457826 
L 269.725985 131.457826 
L 269.829958 129.877768 
L 269.840144 129.877768 
L 269.908246 123.557535 
L 270.643406 123.557535 
L 270.693451 122.504163 
L 271.553184 122.504163 
L 271.634561 119.344047 
L 273.096388 119.344047 
L 273.201276 111.443755 
L 274.570317 111.443755 
L 274.616356 105.123522 
L 275.881878 105.123522 
L 275.942046 100.383348 
L 277.119194 100.383348 
L 277.189346 95.643173 
L 278.283013 95.643173 
L 278.344039 89.32294 
L 279.355696 89.32294 
L 279.405604 85.636137 
L 280.371278 85.636137 
L 280.443365 78.789218 
L 281.365389 78.789218 
L 281.396428 76.682474 
L 282.269058 76.682474 
L 282.290493 74.57573 
L 283.11599 74.57573 
L 283.169729 70.888927 
L 283.947558 70.888927 
L 284.00249 67.728811 
L 284.755432 67.728811 
L 284.785378 64.568694 
L 285.497104 64.568694 
L 285.510564 63.515322 
L 286.210318 63.515322 
L 286.267692 61.408578 
L 286.943885 61.408578 
L 286.943885 60.881892 
L 287.596989 60.881892 
L 287.604279 59.82852 
L 288.221865 59.82852 
L 288.269877 57.721775 
L 288.846592 57.721775 
L 288.883771 55.615031 
L 289.440549 55.615031 
L 289.467287 54.034973 
L 290.036083 54.034973 
L 290.036083 53.508287 
L 290.581988 53.508287 
L 290.611575 49.294798 
L 291.146303 49.294798 
L 291.150795 48.241426 
L 291.639394 48.241426 
L 291.674324 46.661368 
L 292.160844 46.661368 
L 292.194194 44.554623 
L 292.668016 44.554623 
L 292.681371 43.501251 
L 293.163891 43.501251 
L 293.163891 42.974565 
L 293.63579 42.974565 
L 293.63656 41.921193 
L 294.085656 41.921193 
L 294.107412 40.867821 
L 294.528838 40.867821 
L 294.528838 40.341135 
L 295.400448 40.341135 
L 295.400448 39.814448 
L 295.801369 39.814448 
L 295.809797 38.23439 
L 296.211067 38.23439 
L 296.211067 37.707704 
L 296.623551 37.707704 
L 296.623551 37.181018 
L 296.992768 37.181018 
L 296.992768 36.654332 
L 297.373289 36.654332 
L 297.388162 35.60096 
L 299.134496 35.60096 
L 299.153355 34.020902 
L 299.815338 34.020902 
L 299.815338 33.494215 
L 300.433713 33.494215 
L 300.433713 32.967529 
L 300.747718 32.967529 
L 300.747718 32.440843 
L 303.850031 32.440843 
L 303.853099 31.387471 
L 304.606334 31.387471 
L 304.606334 30.860785 
L 306.694329 30.860785 
L 306.694329 30.334099 
L 338.688 30.334099 
L 338.688 30.334099 
" style="fill:none;stroke:#000080;stroke-linecap:square;stroke-width:1.5;"/>
   </g>
   <g id="line2d_36">
    <defs>
     <path d="M 0 6 
C 1.591219 6 3.117479 5.367802 4.242641 4.242641 
C 5.367802 3.117479 6 1.591219 6 0 
C 6 -1.591219 5.367802 -3.117479 4.242641 -4.242641 
C 3.117479 -5.367802 1.591219 -6 0 -6 
C -1.591219 -6 -3.117479 -5.367802 -4.242641 -4.242641 
C -5.367802 -3.117479 -6 -1.591219 -6 0 
C -6 1.591219 -5.367802 3.117479 -4.242641 4.242641 
C -3.117479 5.367802 -1.591219 6 0 6 
z
" id="mfe99abaae7" style="stroke:#000080;stroke-width:1.5;"/>
    </defs>
    <g>
     <use style="fill-opacity:0;stroke:#000080;stroke-width:1.5;" x="91.535274" xlink:href="#mfe99abaae7" y="277.349871"/>
     <use style="fill-opacity:0;stroke:#000080;stroke-width:1.5;" x="152.687123" xlink:href="#mfe99abaae7" y="263.129347"/>
     <use style="fill-opacity:0;stroke:#000080;stroke-width:1.5;" x="238.742413" xlink:href="#mfe99abaae7" y="217.834344"/>
     <use style="fill-opacity:0;stroke:#000080;stroke-width:1.5;" x="288.846592" xlink:href="#mfe99abaae7" y="57.721775"/>
     <use style="fill-opacity:0;stroke:#000080;stroke-width:1.5;" x="306.694329" xlink:href="#mfe99abaae7" y="30.334099"/>
     <use style="fill-opacity:0;stroke:#000080;stroke-width:1.5;" x="338.688" xlink:href="#mfe99abaae7" y="30.334099"/>
    </g>
   </g>
   <g id="line2d_37">
    <path style="fill:none;stroke:#000080;stroke-linecap:square;stroke-width:1.5;"/>
    <g/>
   </g>
   <g id="line2d_38">
    <path clip-path="url(#p83b891dfdb)" d="M 230.363681 232.054868 
" style="fill:none;stroke:#000080;stroke-linecap:square;stroke-width:1.5;"/>
    <defs>
     <path d="M -12 12 
L 12 -12 
M -12 -12 
L 12 12 
" id="m74a7208103" style="stroke:#000080;"/>
    </defs>
    <g clip-path="url(#p83b891dfdb)">
     <use style="fill:#000080;stroke:#000080;" x="230.363681" xlink:href="#m74a7208103" y="232.054868"/>
    </g>
   </g>
   <g id="line2d_39">
    <g>
     <use style="fill:#000080;stroke:#000080;" x="305.629886" xlink:href="#mcbb0cf321b" y="219.941088"/>
     <use style="fill:#000080;stroke:#000080;" x="305.629886" xlink:href="#mcbb0cf321b" y="219.941088"/>
    </g>
   </g>
   <g id="line2d_40">
    <path d="M 38.440992 298.944 
L 38.440992 288.936964 
L 50.52898 288.936964 
L 50.52898 286.83022 
L 57.6 286.83022 
L 57.6 286.303534 
L 62.616969 286.303534 
L 62.616969 284.19679 
L 66.508432 284.19679 
L 66.508432 281.563359 
L 69.687988 281.563359 
L 69.687988 281.036673 
L 80.258561 281.036673 
L 80.258561 280.509987 
L 84.464254 280.509987 
L 84.464254 279.983301 
L 90.684409 279.983301 
L 90.684409 278.929929 
L 91.535274 278.929929 
L 91.535274 278.403243 
L 92.34655 278.403243 
L 92.34655 277.876557 
L 97.16421 277.876557 
L 97.16421 276.823185 
L 97.755429 276.823185 
L 97.755429 276.296499 
L 99.938184 276.296499 
L 99.938184 275.769812 
L 101.877879 275.769812 
L 101.877879 275.243126 
L 104.033617 275.243126 
L 104.033617 274.71644 
L 105.209745 274.71644 
L 105.209745 274.189754 
L 107.347841 274.189754 
L 107.347841 273.663068 
L 109.252198 273.663068 
L 109.252198 273.136382 
L 112.531694 273.136382 
L 112.531694 272.609696 
L 118.751849 272.609696 
L 118.751849 272.08301 
L 119.931767 272.08301 
L 119.931767 271.556324 
L 123.593547 271.556324 
L 123.593547 271.029638 
L 124.867052 271.029638 
L 124.867052 270.502952 
L 127.272333 270.502952 
L 127.272333 269.449579 
L 129.853291 269.449579 
L 129.853291 268.922893 
L 131.439773 268.922893 
L 131.439773 268.396207 
L 133.800029 268.396207 
L 133.800029 267.869521 
L 135.212889 267.869521 
L 135.212889 267.342835 
L 135.878591 267.342835 
L 135.878591 266.816149 
L 137.735587 266.816149 
L 137.735587 266.289463 
L 139.145019 266.289463 
L 139.145019 265.762777 
L 140.993259 265.762777 
L 140.993259 265.236091 
L 141.941279 265.236091 
L 141.941279 264.709405 
L 142.53096 264.709405 
L 142.53096 264.182719 
L 144.589967 264.182719 
L 144.589967 263.656033 
L 145.888018 263.656033 
L 145.888018 263.129347 
L 148.48143 263.129347 
L 148.48143 262.60266 
L 150.598782 262.60266 
L 150.598782 262.075974 
L 151.097081 262.075974 
L 151.097081 261.549288 
L 151.68739 261.549288 
L 151.68739 261.022602 
L 153.032466 261.022602 
L 153.032466 260.495916 
L 156.073064 260.495916 
L 156.073064 259.96923 
L 159.906985 259.96923 
L 159.906985 259.442544 
L 160.442124 259.442544 
L 160.442124 258.915858 
L 161.852746 258.915858 
L 161.852746 258.389172 
L 163.549667 258.389172 
L 163.549667 257.862486 
L 164.011225 257.862486 
L 164.011225 257.3358 
L 164.498889 257.3358 
L 164.498889 256.809114 
L 169.86976 256.809114 
L 169.86976 256.282427 
L 171.417378 256.282427 
L 171.417378 255.229055 
L 173.041565 255.229055 
L 173.041565 254.702369 
L 178.440102 254.702369 
L 178.440102 254.175683 
L 178.900534 254.175683 
L 178.900534 253.648997 
L 183.80074 253.648997 
L 183.80074 253.122311 
L 185.73537 253.122311 
L 185.73537 252.595625 
L 186.047125 252.595625 
L 186.047125 252.068939 
L 186.608155 252.068939 
L 186.608155 251.542253 
L 188.072953 251.542253 
L 188.072953 249.962195 
L 189.629079 249.962195 
L 189.629079 249.435508 
L 191.057655 249.435508 
L 191.057655 248.382136 
L 191.35591 248.382136 
L 191.35591 247.85545 
L 191.528685 247.85545 
L 191.528685 247.328764 
L 196.312409 247.328764 
L 196.312409 246.802078 
L 196.597957 246.802078 
L 196.597957 246.275392 
L 201.048417 246.275392 
L 201.048417 245.748706 
L 204.206951 245.748706 
L 204.206951 245.22202 
L 206.706682 245.22202 
L 206.706682 244.695334 
L 206.955779 244.695334 
L 206.955779 244.168648 
L 208.386099 244.168648 
L 208.386099 243.641962 
L 209.454164 243.641962 
L 209.454164 243.115275 
L 216.14956 243.115275 
L 216.14956 242.588589 
L 216.511724 242.588589 
L 216.511724 241.535217 
L 217.276948 241.535217 
L 217.276948 241.008531 
L 258.405256 241.008531 
L 258.458105 236.268356 
L 258.570975 236.268356 
L 258.570975 235.74167 
L 258.70521 235.74167 
L 258.7816 234.688298 
L 259.150717 234.688298 
L 259.150717 234.161612 
L 259.270475 234.161612 
L 259.270475 233.634926 
L 259.880607 233.634926 
L 259.964823 232.581554 
L 260.190664 232.581554 
L 260.190664 232.054868 
L 270.497799 232.054868 
L 270.531391 229.421437 
L 271.253102 229.421437 
L 271.253102 228.894751 
L 277.565715 228.894751 
L 277.565715 228.368065 
L 277.68981 228.368065 
L 277.68981 227.841379 
L 277.875947 227.841379 
L 277.875947 227.314693 
L 278.073576 227.314693 
L 278.171697 226.261321 
L 278.191826 226.261321 
L 278.191826 225.734635 
L 282.578824 225.734635 
L 282.578824 225.207949 
L 286.482838 225.207949 
L 286.567191 224.154577 
L 286.59672 224.154577 
L 286.670579 223.101204 
L 294.667487 223.101204 
L 294.667487 222.574518 
L 294.89358 222.574518 
L 294.899144 221.521146 
L 300.37029 221.521146 
L 300.37029 220.99446 
L 301.749205 220.99446 
L 301.749205 220.467774 
L 305.629886 220.467774 
L 305.629886 219.941088 
L 338.688 219.941088 
L 338.688 219.941088 
" style="fill:none;stroke:#000080;stroke-linecap:square;stroke-width:1.5;"/>
   </g>
   <g id="line2d_41">
    <g>
     <use style="fill-opacity:0;stroke:#000080;stroke-width:1.5;" x="69.687988" xlink:href="#mfe99abaae7" y="281.036673"/>
     <use style="fill-opacity:0;stroke:#000080;stroke-width:1.5;" x="127.272333" xlink:href="#mfe99abaae7" y="269.449579"/>
     <use style="fill-opacity:0;stroke:#000080;stroke-width:1.5;" x="209.454164" xlink:href="#mfe99abaae7" y="243.115275"/>
     <use style="fill-opacity:0;stroke:#000080;stroke-width:1.5;" x="270.50998" xlink:href="#mfe99abaae7" y="231.528182"/>
     <use style="fill-opacity:0;stroke:#000080;stroke-width:1.5;" x="305.629886" xlink:href="#mfe99abaae7" y="219.941088"/>
     <use style="fill-opacity:0;stroke:#000080;stroke-width:1.5;" x="338.688" xlink:href="#mfe99abaae7" y="219.941088"/>
    </g>
   </g>
   <g id="line2d_42">
    <path style="fill:none;stroke:#000080;stroke-linecap:square;stroke-width:1.5;"/>
    <g/>
   </g>
   <g id="line2d_43">
    <path clip-path="url(#p83b891dfdb)" d="M 258.398754 241.008531 
" style="fill:none;stroke:#000080;stroke-linecap:square;stroke-width:1.5;"/>
    <g clip-path="url(#p83b891dfdb)">
     <use style="fill:#000080;stroke:#000080;" x="258.398754" xlink:href="#m74a7208103" y="241.008531"/>
    </g>
   </g>
   <g id="line2d_44">
    <defs>
     <path d="M 0 1.5 
C 0.397805 1.5 0.77937 1.341951 1.06066 1.06066 
C 1.341951 0.77937 1.5 0.397805 1.5 0 
C 1.5 -0.397805 1.341951 -0.77937 1.06066 -1.06066 
C 0.77937 -1.341951 0.397805 -1.5 0 -1.5 
C -0.397805 -1.5 -0.77937 -1.341951 -1.06066 -1.06066 
C -1.341951 -0.77937 -1.5 -0.397805 -1.5 0 
C -1.5 0.397805 -1.341951 0.77937 -1.06066 1.06066 
C -0.77937 1.341951 -0.397805 1.5 0 1.5 
z
" id="m3201b855da" style="stroke:#ff00ff;"/>
    </defs>
    <g>
     <use style="fill:#ff00ff;stroke:#ff00ff;" x="292.884248" xlink:href="#m3201b855da" y="30.334099"/>
     <use style="fill:#ff00ff;stroke:#ff00ff;" x="292.884248" xlink:href="#m3201b855da" y="30.334099"/>
    </g>
   </g>
   <g id="line2d_45">
    <path d="M 38.440992 298.944 
L 38.440992 288.936964 
L 50.52898 288.936964 
L 50.52898 286.303534 
L 57.6 286.303534 
L 57.6 282.616732 
L 62.616969 282.616732 
L 62.616969 282.090045 
L 72.376266 282.090045 
L 72.376266 281.036673 
L 74.704957 281.036673 
L 74.704957 280.509987 
L 83.171864 280.509987 
L 83.171864 279.983301 
L 87.850195 279.983301 
L 87.850195 279.456615 
L 88.846997 279.456615 
L 88.846997 278.929929 
L 93.863965 278.929929 
L 93.863965 278.403243 
L 95.918017 278.403243 
L 95.918017 277.349871 
L 96.552242 277.349871 
L 96.552242 276.296499 
L 97.16421 276.296499 
L 97.16421 275.769812 
L 99.41757 275.769812 
L 99.41757 275.243126 
L 100.934985 275.243126 
L 100.934985 274.71644 
L 102.772397 274.71644 
L 102.772397 274.189754 
L 104.033617 274.189754 
L 104.033617 273.663068 
L 110.968922 273.663068 
L 110.968922 273.136382 
L 113.26352 273.136382 
L 113.26352 272.609696 
L 117.672786 272.609696 
L 117.672786 272.08301 
L 120.41399 272.08301 
L 120.41399 271.556324 
L 120.571812 271.556324 
L 120.571812 271.029638 
L 121.489881 271.029638 
L 121.489881 270.502952 
L 126.281824 270.502952 
L 126.281824 269.976266 
L 126.3947 269.976266 
L 126.3947 269.449579 
L 127.272333 269.449579 
L 127.272333 268.922893 
L 128.807571 268.922893 
L 128.807571 268.396207 
L 129.002426 268.396207 
L 129.002426 267.869521 
L 129.195127 267.869521 
L 129.195127 267.342835 
L 131.938072 267.342835 
L 131.938072 266.816149 
L 134.450015 266.816149 
L 134.450015 266.289463 
L 135.548916 266.289463 
L 135.548916 265.762777 
L 138.650644 265.762777 
L 138.650644 265.236091 
L 139.145019 265.236091 
L 139.145019 264.709405 
L 144.189046 264.709405 
L 144.189046 263.656033 
L 144.787023 263.656033 
L 144.787023 263.129347 
L 145.251067 263.129347 
L 145.251067 262.60266 
L 146.644018 262.60266 
L 146.644018 262.075974 
L 149.012299 262.075974 
L 149.043029 261.022602 
L 151.581536 261.022602 
L 151.581536 260.495916 
L 151.713753 260.495916 
L 151.713753 259.96923 
L 153.008024 259.96923 
L 153.008024 259.442544 
L 155.949527 259.442544 
L 155.949527 258.915858 
L 156.114049 258.915858 
L 156.114049 258.389172 
L 156.717545 258.389172 
L 156.717545 257.862486 
L 158.049435 257.862486 
L 158.049435 257.3358 
L 158.267884 257.3358 
L 158.285965 255.755741 
L 158.608261 255.755741 
L 158.608261 255.229055 
L 166.906499 255.229055 
L 166.906499 254.702369 
L 167.04922 254.702369 
L 167.147346 253.648997 
L 169.841835 253.648997 
L 169.841835 253.122311 
L 170.28336 253.122311 
L 170.28336 252.595625 
L 171.994974 252.595625 
L 172.036094 251.542253 
L 172.791647 251.542253 
L 172.870132 249.435508 
L 172.971637 249.435508 
L 172.971637 248.908822 
L 173.613646 248.908822 
L 173.613646 248.382136 
L 173.896491 248.382136 
L 173.896491 247.328764 
L 174.788794 247.328764 
L 174.788794 246.802078 
L 175.197844 246.802078 
L 175.197844 246.275392 
L 175.320753 246.275392 
L 175.320753 245.748706 
L 175.6777 245.748706 
L 175.6777 244.695334 
L 176.203019 244.695334 
L 176.267585 242.588589 
L 176.668945 242.588589 
L 176.763161 241.535217 
L 176.912855 241.535217 
L 176.912855 241.008531 
L 177.269398 241.008531 
L 177.360434 238.901787 
L 177.779092 238.901787 
L 177.861631 237.848415 
L 179.712566 237.848415 
L 179.712566 237.321729 
L 180.468214 237.321729 
L 180.468214 235.214984 
L 180.799349 235.214984 
L 180.799349 234.688298 
L 181.376149 234.688298 
L 181.376149 234.161612 
L 185.65279 234.161612 
L 185.65279 233.634926 
L 186.76065 233.634926 
L 186.76065 232.581554 
L 186.894312 232.581554 
L 186.894312 231.528182 
L 187.179296 231.528182 
L 187.179296 231.001496 
L 187.391722 231.001496 
L 187.391722 229.948123 
L 187.571283 229.948123 
L 187.675459 228.368065 
L 187.75902 228.368065 
L 187.75902 227.314693 
L 187.95795 227.314693 
L 188.050013 226.261321 
L 188.200211 226.261321 
L 188.200211 225.734635 
L 188.32332 225.734635 
L 188.419901 224.681263 
L 188.44236 224.681263 
L 188.44236 223.101204 
L 188.611474 223.101204 
L 188.636858 220.99446 
L 188.756934 220.99446 
L 188.819801 218.887716 
L 188.87306 218.887716 
L 188.87306 218.36103 
L 193.15856 218.36103 
L 193.15856 217.834344 
L 195.002577 217.834344 
L 195.002577 217.307658 
L 196.160655 217.307658 
L 196.160655 216.780971 
L 197.509741 216.780971 
L 197.595316 215.727599 
L 202.395633 215.727599 
L 202.395633 215.200913 
L 229.741921 215.200913 
L 229.741921 214.674227 
L 230.519452 214.674227 
L 230.564481 213.620855 
L 230.635088 213.620855 
L 230.635088 213.094169 
L 230.767808 213.094169 
L 230.767808 212.567483 
L 230.98334 212.567483 
L 231.089837 204.667192 
L 231.096784 204.667192 
L 231.186846 195.186842 
L 231.289638 195.186842 
L 231.339575 193.606784 
L 231.726237 193.606784 
L 231.835763 187.813237 
L 231.847743 187.813237 
L 231.891863 183.073062 
L 242.503892 183.073062 
L 242.575678 181.493004 
L 242.633841 181.493004 
L 242.740898 179.38626 
L 242.75927 179.38626 
L 242.865137 168.852538 
L 242.900049 168.852538 
L 242.918818 167.799166 
L 243.122707 167.799166 
L 243.229862 160.425561 
L 243.716811 160.425561 
L 243.734722 159.372189 
L 249.647417 159.372189 
L 249.757447 153.051956 
L 249.764116 153.051956 
L 249.787819 147.785095 
L 249.957084 147.785095 
L 250.044948 136.198001 
L 250.179036 136.198001 
L 250.179036 135.671315 
L 254.665896 135.671315 
L 254.757349 127.771024 
L 254.864474 127.771024 
L 254.922397 124.084221 
L 258.535065 124.084221 
L 258.61788 116.710616 
L 258.691513 116.710616 
L 258.741511 107.756953 
L 261.714391 107.756953 
L 261.823361 103.016778 
L 261.828894 103.016778 
L 261.869195 97.223231 
L 264.36242 97.223231 
L 264.397442 93.536429 
L 264.476538 93.536429 
L 264.529846 89.849626 
L 266.689761 89.849626 
L 266.798739 79.842591 
L 266.802468 79.842591 
L 266.816806 78.262532 
L 268.715599 78.262532 
L 268.823008 75.102416 
L 268.843658 75.102416 
L 268.850961 73.522358 
L 270.528929 73.522358 
L 270.608703 70.888927 
L 270.652063 70.888927 
L 270.65422 69.308869 
L 272.209361 69.308869 
L 272.306737 61.935264 
L 273.745448 61.935264 
L 273.809651 57.721775 
L 273.895694 57.721775 
L 273.895694 57.195089 
L 275.116539 57.195089 
L 275.197691 53.508287 
L 276.412134 53.508287 
L 276.475673 49.821484 
L 277.629492 49.821484 
L 277.677225 46.134681 
L 278.737733 46.134681 
L 278.787708 44.027937 
L 279.806787 44.027937 
L 279.853235 42.447879 
L 280.793961 42.447879 
L 280.799811 41.394507 
L 281.729972 41.394507 
L 281.780312 38.761076 
L 282.628946 38.761076 
L 282.668664 37.707704 
L 283.503561 37.707704 
L 283.503561 37.181018 
L 284.272334 37.181018 
L 284.272334 36.654332 
L 285.092592 36.654332 
L 285.092592 36.127646 
L 285.824114 36.127646 
L 285.824114 35.60096 
L 286.536651 35.60096 
L 286.536651 35.074274 
L 287.1914 35.074274 
L 287.22763 34.020902 
L 287.847734 34.020902 
L 287.875282 32.967529 
L 289.110853 32.967529 
L 289.110853 32.440843 
L 289.716594 32.440843 
L 289.716594 31.914157 
L 290.8314 31.914157 
L 290.8314 31.387471 
L 292.395528 31.387471 
L 292.395528 30.860785 
L 292.884248 30.860785 
L 292.884248 30.334099 
L 338.688 30.334099 
L 338.688 30.334099 
" style="fill:none;stroke:#ff00ff;stroke-linecap:square;stroke-width:1.5;"/>
   </g>
   <g id="line2d_46">
    <defs>
     <path d="M -0 8.485281 
L 5.091169 0 
L 0 -8.485281 
L -5.091169 -0 
z
" id="m900a43edfc" style="stroke:#ff00ff;stroke-linejoin:miter;stroke-width:1.5;"/>
    </defs>
    <g>
     <use style="fill-opacity:0;stroke:#ff00ff;stroke-linejoin:miter;stroke-width:1.5;" x="104.033617" xlink:href="#m900a43edfc" y="273.663068"/>
     <use style="fill-opacity:0;stroke:#ff00ff;stroke-linejoin:miter;stroke-width:1.5;" x="186.894312" xlink:href="#m900a43edfc" y="232.581554"/>
     <use style="fill-opacity:0;stroke:#ff00ff;stroke-linejoin:miter;stroke-width:1.5;" x="249.727308" xlink:href="#m900a43edfc" y="157.265444"/>
     <use style="fill-opacity:0;stroke:#ff00ff;stroke-linejoin:miter;stroke-width:1.5;" x="292.884248" xlink:href="#m900a43edfc" y="30.860785"/>
     <use style="fill-opacity:0;stroke:#ff00ff;stroke-linejoin:miter;stroke-width:1.5;" x="292.884248" xlink:href="#m900a43edfc" y="30.334099"/>
     <use style="fill-opacity:0;stroke:#ff00ff;stroke-linejoin:miter;stroke-width:1.5;" x="338.688" xlink:href="#m900a43edfc" y="30.334099"/>
    </g>
   </g>
   <g id="line2d_47">
    <path style="fill:none;stroke:#ff00ff;stroke-linecap:square;stroke-width:1.5;"/>
    <g/>
   </g>
   <g id="line2d_48">
    <path clip-path="url(#p83b891dfdb)" d="M 230.351507 214.674227 
" style="fill:none;stroke:#ff00ff;stroke-linecap:square;stroke-width:1.5;"/>
    <defs>
     <path d="M -12 12 
L 12 -12 
M -12 -12 
L 12 12 
" id="mec57223b73" style="stroke:#ff00ff;"/>
    </defs>
    <g clip-path="url(#p83b891dfdb)">
     <use style="fill:#ff00ff;stroke:#ff00ff;" x="230.351507" xlink:href="#mec57223b73" y="214.674227"/>
    </g>
   </g>
   <g id="line2d_49">
    <defs>
     <path d="M 0 1.5 
C 0.397805 1.5 0.77937 1.341951 1.06066 1.06066 
C 1.341951 0.77937 1.5 0.397805 1.5 0 
C 1.5 -0.397805 1.341951 -0.77937 1.06066 -1.06066 
C 0.77937 -1.341951 0.397805 -1.5 0 -1.5 
C -0.397805 -1.5 -0.77937 -1.341951 -1.06066 -1.06066 
C -1.341951 -0.77937 -1.5 -0.397805 -1.5 0 
C -1.5 0.397805 -1.341951 0.77937 -1.06066 1.06066 
C -0.77937 1.341951 -0.397805 1.5 0 1.5 
z
" id="m77e9a0ca79" style="stroke:#ff0000;"/>
    </defs>
    <g>
     <use style="fill:#ff0000;stroke:#ff0000;" x="302.452937" xlink:href="#m77e9a0ca79" y="209.407366"/>
     <use style="fill:#ff0000;stroke:#ff0000;" x="302.452937" xlink:href="#m77e9a0ca79" y="209.407366"/>
    </g>
   </g>
   <g id="line2d_50">
    <path d="M 38.440992 298.944 
L 38.440992 288.410278 
L 50.52898 288.410278 
L 50.52898 285.776848 
L 57.6 285.776848 
L 57.6 284.19679 
L 62.616969 284.19679 
L 62.616969 283.670104 
L 69.687988 283.670104 
L 69.687988 282.090045 
L 72.376266 282.090045 
L 72.376266 281.563359 
L 78.59642 281.563359 
L 78.59642 281.036673 
L 81.775977 281.036673 
L 81.775977 279.983301 
L 84.464254 279.983301 
L 84.464254 279.456615 
L 89.78989 279.456615 
L 89.78989 278.929929 
L 93.121756 278.929929 
L 93.121756 277.876557 
L 97.755429 277.876557 
L 97.755429 276.296499 
L 98.32726 276.296499 
L 98.32726 275.769812 
L 102.330873 275.769812 
L 102.330873 275.243126 
L 110.415248 275.243126 
L 110.415248 273.136382 
L 115.291007 273.136382 
L 115.291007 272.609696 
L 116.719583 272.609696 
L 116.719583 271.029638 
L 116.914437 271.029638 
L 116.914437 270.502952 
L 117.672786 270.502952 
L 117.672786 269.976266 
L 118.751849 269.976266 
L 118.751849 268.922893 
L 122.076131 268.922893 
L 122.076131 268.396207 
L 122.503236 268.396207 
L 122.503236 267.869521 
L 122.782271 267.869521 
L 122.782271 267.342835 
L 123.593547 267.342835 
L 123.593547 266.816149 
L 124.494669 266.816149 
L 124.494669 266.289463 
L 129.099042 266.289463 
L 129.099042 265.762777 
L 131.60746 265.762777 
L 131.60746 265.236091 
L 133.201197 265.236091 
L 133.201197 264.709405 
L 138.538853 264.709405 
L 138.538853 263.656033 
L 138.816998 263.656033 
L 138.816998 263.129347 
L 140.246813 263.129347 
L 140.246813 262.60266 
L 140.39868 262.60266 
L 140.39868 262.075974 
L 149.616841 262.075974 
L 149.616841 261.549288 
L 150.598782 261.549288 
L 150.598782 261.022602 
L 151.923236 261.022602 
L 151.923236 260.495916 
L 152.207228 260.495916 
L 152.207228 257.862486 
L 153.178403 257.862486 
L 153.178403 257.3358 
L 153.514245 257.3358 
L 153.514245 256.809114 
L 154.19 256.809114 
L 154.19 256.282427 
L 154.551917 256.282427 
L 154.551917 255.755741 
L 163.563025 255.755741 
L 163.563025 254.702369 
L 165.302685 254.702369 
L 165.302685 254.175683 
L 169.350555 254.175683 
L 169.350555 253.648997 
L 170.846398 253.648997 
L 170.846398 253.122311 
L 171.194673 253.122311 
L 171.194673 252.595625 
L 171.91244 252.595625 
L 171.91244 251.542253 
L 172.12622 251.542253 
L 172.12622 250.488881 
L 173.523365 250.488881 
L 173.523365 249.962195 
L 175.101646 249.962195 
L 175.101646 249.435508 
L 178.245567 249.435508 
L 178.245567 248.908822 
L 180.982272 248.908822 
L 180.982272 248.382136 
L 183.54787 248.382136 
L 183.54787 247.85545 
L 190.52809 247.85545 
L 190.52809 247.328764 
L 190.938577 247.328764 
L 190.938577 246.802078 
L 193.705276 246.802078 
L 193.705276 246.275392 
L 199.206854 246.275392 
L 199.206854 244.695334 
L 202.519082 244.695334 
L 202.519082 244.168648 
L 206.241516 244.168648 
L 206.241516 243.115275 
L 209.890738 243.115275 
L 209.890738 242.061903 
L 214.051182 242.061903 
L 214.051182 240.481845 
L 214.381766 240.481845 
L 214.381766 238.375101 
L 230.547859 238.375101 
L 230.605108 236.268356 
L 230.700296 236.268356 
L 230.700296 235.74167 
L 230.964874 235.74167 
L 230.978586 234.688298 
L 233.047735 234.688298 
L 233.047735 234.161612 
L 234.272405 234.161612 
L 234.272405 233.634926 
L 236.119517 233.634926 
L 236.139919 232.054868 
L 236.238054 232.054868 
L 236.238054 231.528182 
L 242.534055 231.528182 
L 242.556103 230.47481 
L 242.788568 230.47481 
L 242.788568 229.948123 
L 243.491696 229.948123 
L 243.503294 228.894751 
L 244.980391 228.894751 
L 244.980391 228.368065 
L 245.622362 228.368065 
L 245.622362 227.841379 
L 249.587763 227.841379 
L 249.619777 225.734635 
L 249.709066 225.734635 
L 249.716709 224.681263 
L 251.679569 224.681263 
L 251.706944 223.627891 
L 254.680848 223.627891 
L 254.680848 223.101204 
L 255.58678 223.101204 
L 255.58678 222.574518 
L 255.827623 222.574518 
L 255.827623 222.047832 
L 256.173432 222.047832 
L 256.197492 220.467774 
L 256.419829 220.467774 
L 256.419829 219.941088 
L 259.748491 219.941088 
L 259.760845 218.887716 
L 261.626559 218.887716 
L 261.626559 218.36103 
L 262.508815 218.36103 
L 262.508815 217.834344 
L 262.729509 217.834344 
L 262.729509 217.307658 
L 262.883004 217.307658 
L 262.883004 216.780971 
L 264.326501 216.780971 
L 264.326501 216.254285 
L 267.592132 216.254285 
L 267.592132 215.727599 
L 268.708464 215.727599 
L 268.708464 215.200913 
L 271.036681 215.200913 
L 271.036681 214.674227 
L 271.197255 214.674227 
L 271.197255 214.147541 
L 272.879034 214.147541 
L 272.879034 213.620855 
L 274.150364 213.620855 
L 274.150364 213.094169 
L 278.101474 213.094169 
L 278.101474 212.567483 
L 279.14192 212.567483 
L 279.14192 212.040797 
L 281.198506 212.040797 
L 281.198506 211.514111 
L 282.980678 211.514111 
L 282.988646 210.460738 
L 286.100043 210.460738 
L 286.100043 209.934052 
L 302.452937 209.934052 
L 302.452937 209.407366 
L 338.688 209.407366 
L 338.688 209.407366 
" style="fill:none;stroke:#ff0000;stroke-linecap:square;stroke-width:1.5;"/>
   </g>
   <g id="line2d_51">
    <defs>
     <path d="M 0 -6 
L -5.196152 -3 
L -5.196152 3 
L -0 6 
L 5.196152 3 
L 5.196152 -3 
z
" id="mcf1ef792b3" style="stroke:#ff0000;stroke-linejoin:miter;stroke-width:1.5;"/>
    </defs>
    <g>
     <use style="fill-opacity:0;stroke:#ff0000;stroke-linejoin:miter;stroke-width:1.5;" x="133.201197" xlink:href="#mcf1ef792b3" y="265.236091"/>
     <use style="fill-opacity:0;stroke:#ff0000;stroke-linejoin:miter;stroke-width:1.5;" x="193.705276" xlink:href="#mcf1ef792b3" y="246.802078"/>
     <use style="fill-opacity:0;stroke:#ff0000;stroke-linejoin:miter;stroke-width:1.5;" x="268.708464" xlink:href="#mcf1ef792b3" y="215.200913"/>
     <use style="fill-opacity:0;stroke:#ff0000;stroke-linejoin:miter;stroke-width:1.5;" x="302.452937" xlink:href="#mcf1ef792b3" y="209.407366"/>
     <use style="fill-opacity:0;stroke:#ff0000;stroke-linejoin:miter;stroke-width:1.5;" x="302.452937" xlink:href="#mcf1ef792b3" y="209.407366"/>
     <use style="fill-opacity:0;stroke:#ff0000;stroke-linejoin:miter;stroke-width:1.5;" x="338.688" xlink:href="#mcf1ef792b3" y="209.407366"/>
    </g>
   </g>
   <g id="line2d_52">
    <path style="fill:none;stroke:#ff0000;stroke-linecap:square;stroke-width:1.5;"/>
    <g/>
   </g>
   <g id="line2d_53">
    <path clip-path="url(#p83b891dfdb)" d="M 230.351507 238.375101 
" style="fill:none;stroke:#ff0000;stroke-linecap:square;stroke-width:1.5;"/>
    <defs>
     <path d="M -12 12 
L 12 -12 
M -12 -12 
L 12 12 
" id="m0f2ada0a16" style="stroke:#ff0000;"/>
    </defs>
    <g clip-path="url(#p83b891dfdb)">
     <use style="fill:#ff0000;stroke:#ff0000;" x="230.351507" xlink:href="#m0f2ada0a16" y="238.375101"/>
    </g>
   </g>
   <g id="line2d_54">
    <defs>
     <path d="M 0 1.5 
C 0.397805 1.5 0.77937 1.341951 1.06066 1.06066 
C 1.341951 0.77937 1.5 0.397805 1.5 0 
C 1.5 -0.397805 1.341951 -0.77937 1.06066 -1.06066 
C 0.77937 -1.341951 0.397805 -1.5 0 -1.5 
C -0.397805 -1.5 -0.77937 -1.341951 -1.06066 -1.06066 
C -1.341951 -0.77937 -1.5 -0.397805 -1.5 0 
C -1.5 0.397805 -1.341951 0.77937 -1.06066 1.06066 
C -0.77937 1.341951 -0.397805 1.5 0 1.5 
z
" id="m1675492d7c" style="stroke:#ff7500;"/>
    </defs>
    <g>
     <use style="fill:#ff7500;stroke:#ff7500;" x="301.269133" xlink:href="#m1675492d7c" y="198.873645"/>
     <use style="fill:#ff7500;stroke:#ff7500;" x="301.269133" xlink:href="#m1675492d7c" y="198.873645"/>
    </g>
   </g>
   <g id="line2d_55">
    <path d="M 38.440992 298.944 
L 38.440992 288.410278 
L 50.52898 288.410278 
L 50.52898 285.776848 
L 62.616969 285.776848 
L 62.616969 283.670104 
L 66.508432 283.670104 
L 66.508432 283.143418 
L 72.376266 283.143418 
L 72.376266 282.090045 
L 76.759008 282.090045 
L 76.759008 281.036673 
L 78.59642 281.036673 
L 78.59642 280.509987 
L 80.258561 280.509987 
L 80.258561 279.983301 
L 87.850195 279.983301 
L 87.850195 279.456615 
L 88.846997 279.456615 
L 88.846997 278.929929 
L 90.684409 278.929929 
L 90.684409 278.403243 
L 93.863965 278.403243 
L 93.863965 277.876557 
L 99.41757 277.876557 
L 99.41757 276.823185 
L 105.584798 276.823185 
L 105.584798 275.769812 
L 107.680028 275.769812 
L 107.680028 275.243126 
L 108.640231 275.243126 
L 108.640231 274.71644 
L 109.843417 274.71644 
L 109.843417 273.136382 
L 110.968922 273.136382 
L 110.968922 272.609696 
L 117.486268 272.609696 
L 117.486268 272.08301 
L 117.672786 272.08301 
L 117.672786 271.556324 
L 118.399528 271.556324 
L 118.399528 271.029638 
L 118.925375 271.029638 
L 118.925375 270.502952 
L 119.931767 270.502952 
L 119.931767 269.449579 
L 120.728219 269.449579 
L 120.728219 268.922893 
L 121.036887 268.922893 
L 121.036887 267.869521 
L 121.931406 267.869521 
L 121.931406 267.342835 
L 123.056911 267.342835 
L 123.056911 266.816149 
L 126.948374 266.816149 
L 127.05703 265.762777 
L 127.165014 265.762777 
L 127.272333 264.709405 
L 133.873458 264.709405 
L 133.873458 264.182719 
L 134.7313 264.182719 
L 134.7313 263.129347 
L 136.707671 263.129347 
L 136.707671 262.60266 
L 138.482688 262.60266 
L 138.482688 262.075974 
L 139.036363 262.075974 
L 139.036363 261.549288 
L 141.283115 261.549288 
L 141.283115 261.022602 
L 142.664255 261.022602 
L 142.752555 259.96923 
L 146.252108 259.96923 
L 146.252108 259.442544 
L 148.258051 259.442544 
L 148.258051 258.915858 
L 149.165411 258.915858 
L 149.165411 258.389172 
L 149.616841 258.389172 
L 149.616841 257.862486 
L 150.738632 257.862486 
L 150.738632 256.809114 
L 153.032466 256.809114 
L 153.032466 255.755741 
L 155.783437 255.755741 
L 155.783437 255.229055 
L 157.147202 255.229055 
L 157.147202 254.702369 
L 157.716543 254.702369 
L 157.716543 254.175683 
L 165.266391 254.175683 
L 165.266391 253.648997 
L 167.125588 253.648997 
L 167.212459 252.595625 
L 172.417962 252.595625 
L 172.417962 252.068939 
L 175.869961 252.068939 
L 175.869961 251.542253 
L 176.105719 251.542253 
L 176.125223 250.488881 
L 176.402401 250.488881 
L 176.402401 249.962195 
L 178.553528 249.962195 
L 178.553528 249.435508 
L 181.385763 249.435508 
L 181.385763 248.908822 
L 187.885272 248.908822 
L 187.885272 248.382136 
L 189.121531 248.382136 
L 189.121531 247.85545 
L 190.29035 247.85545 
L 190.29035 247.328764 
L 190.877338 247.328764 
L 190.877338 246.802078 
L 191.26615 246.802078 
L 191.26615 246.275392 
L 201.018823 246.275392 
L 201.018823 245.748706 
L 204.738904 245.748706 
L 204.738904 245.22202 
L 204.913092 245.22202 
L 204.913092 244.695334 
L 209.174184 244.695334 
L 209.174184 243.641962 
L 210.954272 243.641962 
L 210.954272 242.588589 
L 211.481499 242.588589 
L 211.481499 242.061903 
L 211.647544 242.061903 
L 211.729556 241.008531 
L 214.794867 241.008531 
L 214.794867 240.481845 
L 230.547573 240.481845 
L 230.601964 239.428473 
L 231.136469 239.428473 
L 231.142289 238.375101 
L 232.025137 238.375101 
L 232.033565 236.795043 
L 233.989687 236.795043 
L 233.989687 236.268356 
L 234.178131 236.268356 
L 234.178131 235.74167 
L 234.877767 235.74167 
L 234.877767 235.214984 
L 235.373694 235.214984 
L 235.430561 234.161612 
L 236.326791 234.161612 
L 236.326791 233.634926 
L 242.468901 233.634926 
L 242.531171 232.581554 
L 242.947991 232.581554 
L 242.947991 232.054868 
L 243.123404 232.054868 
L 243.123404 231.528182 
L 244.436105 231.528182 
L 244.450451 229.948123 
L 245.097674 229.948123 
L 245.121309 228.894751 
L 245.682053 228.894751 
L 245.702986 227.314693 
L 249.671566 227.314693 
L 249.76564 226.261321 
L 250.126588 226.261321 
L 250.126588 225.734635 
L 251.391887 225.734635 
L 251.417639 224.154577 
L 251.741848 224.154577 
L 251.741848 223.627891 
L 254.57396 223.627891 
L 254.57396 223.101204 
L 254.966349 223.101204 
L 254.966349 222.574518 
L 255.49554 222.574518 
L 255.49554 222.047832 
L 255.773444 222.047832 
L 255.773444 221.521146 
L 255.941495 221.521146 
L 255.969147 219.414402 
L 256.241043 219.414402 
L 256.241043 218.887716 
L 259.288139 218.887716 
L 259.288139 218.36103 
L 259.566783 218.36103 
L 259.566783 217.834344 
L 262.751461 217.834344 
L 262.751461 217.307658 
L 264.306363 217.307658 
L 264.306363 216.780971 
L 264.537687 216.780971 
L 264.537687 216.254285 
L 265.127489 216.254285 
L 265.127489 215.727599 
L 265.281815 215.727599 
L 265.296442 214.674227 
L 267.505521 214.674227 
L 267.505521 214.147541 
L 269.330664 214.147541 
L 269.330664 213.620855 
L 271.110474 213.620855 
L 271.110474 213.094169 
L 271.227302 213.094169 
L 271.227302 212.567483 
L 272.810517 212.567483 
L 272.820778 210.987425 
L 274.163676 210.987425 
L 274.174347 209.407366 
L 276.80904 209.407366 
L 276.810292 208.353994 
L 277.985629 208.353994 
L 278.043036 207.300622 
L 279.074777 207.300622 
L 279.081553 206.24725 
L 281.078473 206.24725 
L 281.093064 205.193878 
L 282.896682 205.193878 
L 282.963824 204.140506 
L 283.727632 204.140506 
L 283.727632 203.613819 
L 285.342413 203.613819 
L 285.342413 203.087133 
L 286.027212 203.087133 
L 286.027212 202.560447 
L 286.735038 202.560447 
L 286.735038 202.033761 
L 288.048952 202.033761 
L 288.055112 200.980389 
L 289.330405 200.980389 
L 289.330405 200.453703 
L 294.397857 200.453703 
L 294.397857 199.927017 
L 298.018396 199.927017 
L 298.018396 199.400331 
L 301.269133 199.400331 
L 301.269133 198.873645 
L 338.688 198.873645 
L 338.688 198.873645 
" style="fill:none;stroke:#ff7500;stroke-linecap:square;stroke-width:1.5;"/>
   </g>
   <g id="line2d_56">
    <defs>
     <path d="M 0 -6 
L -1.347084 -1.854102 
L -5.706339 -1.854102 
L -2.179628 0.708204 
L -3.526712 4.854102 
L -0 2.291796 
L 3.526712 4.854102 
L 2.179628 0.708204 
L 5.706339 -1.854102 
L 1.347084 -1.854102 
z
" id="m385971d5e3" style="stroke:#ff7500;stroke-linejoin:bevel;stroke-width:1.5;"/>
    </defs>
    <g>
     <use style="fill-opacity:0;stroke:#ff7500;stroke-linejoin:bevel;stroke-width:1.5;" x="80.258561" xlink:href="#m385971d5e3" y="279.983301"/>
     <use style="fill-opacity:0;stroke:#ff7500;stroke-linejoin:bevel;stroke-width:1.5;" x="165.266391" xlink:href="#m385971d5e3" y="254.175683"/>
     <use style="fill-opacity:0;stroke:#ff7500;stroke-linejoin:bevel;stroke-width:1.5;" x="236.326791" xlink:href="#m385971d5e3" y="234.161612"/>
     <use style="fill-opacity:0;stroke:#ff7500;stroke-linejoin:bevel;stroke-width:1.5;" x="288.055112" xlink:href="#m385971d5e3" y="200.980389"/>
     <use style="fill-opacity:0;stroke:#ff7500;stroke-linejoin:bevel;stroke-width:1.5;" x="301.269133" xlink:href="#m385971d5e3" y="198.873645"/>
     <use style="fill-opacity:0;stroke:#ff7500;stroke-linejoin:bevel;stroke-width:1.5;" x="338.688" xlink:href="#m385971d5e3" y="198.873645"/>
    </g>
   </g>
   <g id="line2d_57">
    <path style="fill:none;stroke:#ff7500;stroke-linecap:square;stroke-width:1.5;"/>
    <g/>
   </g>
   <g id="line2d_58">
    <path clip-path="url(#p83b891dfdb)" d="M 230.347737 240.481845 
" style="fill:none;stroke:#ff7500;stroke-linecap:square;stroke-width:1.5;"/>
    <defs>
     <path d="M -12 12 
L 12 -12 
M -12 -12 
L 12 12 
" id="m5fe67be9e1" style="stroke:#ff7500;"/>
    </defs>
    <g clip-path="url(#p83b891dfdb)">
     <use style="fill:#ff7500;stroke:#ff7500;" x="230.347737" xlink:href="#m5fe67be9e1" y="240.481845"/>
    </g>
   </g>
   <g id="line2d_59">
    <path d="M 338.688 219.941088 
L 369.60768 293.571802 
" style="fill:none;stroke:#000080;stroke-linecap:square;stroke-width:1.5;"/>
    <g>
     <use style="fill-opacity:0;stroke:#000080;stroke-width:1.5;" x="338.688" xlink:href="#mfe99abaae7" y="219.941088"/>
     <use style="fill-opacity:0;stroke:#000080;stroke-width:1.5;" x="369.60768" xlink:href="#mfe99abaae7" y="293.571802"/>
    </g>
   </g>
   <g id="line2d_60">
    <path d="M 338.688 209.407366 
L 369.60768 241.998701 
" style="fill:none;stroke:#ff0000;stroke-linecap:square;stroke-width:1.5;"/>
    <g>
     <use style="fill-opacity:0;stroke:#ff0000;stroke-linejoin:miter;stroke-width:1.5;" x="338.688" xlink:href="#mcf1ef792b3" y="209.407366"/>
     <use style="fill-opacity:0;stroke:#ff0000;stroke-linejoin:miter;stroke-width:1.5;" x="369.60768" xlink:href="#mcf1ef792b3" y="241.998701"/>
    </g>
   </g>
   <g id="line2d_61">
    <path d="M 338.688 198.873645 
L 369.60768 190.4256 
" style="fill:none;stroke:#ff7500;stroke-linecap:square;stroke-width:1.5;"/>
    <g>
     <use style="fill-opacity:0;stroke:#ff7500;stroke-linejoin:bevel;stroke-width:1.5;" x="338.688" xlink:href="#m385971d5e3" y="198.873645"/>
     <use style="fill-opacity:0;stroke:#ff7500;stroke-linejoin:bevel;stroke-width:1.5;" x="369.60768" xlink:href="#m385971d5e3" y="190.4256"/>
    </g>
   </g>
   <g id="line2d_62">
    <path d="M 338.688 30.334099 
L 369.60768 138.852499 
" style="fill:none;stroke:#000080;stroke-linecap:square;stroke-width:1.5;"/>
    <g>
     <use style="fill-opacity:0;stroke:#000080;stroke-width:1.5;" x="338.688" xlink:href="#mfe99abaae7" y="30.334099"/>
     <use style="fill-opacity:0;stroke:#000080;stroke-width:1.5;" x="369.60768" xlink:href="#mfe99abaae7" y="138.852499"/>
    </g>
   </g>
   <g id="line2d_63">
    <path d="M 338.688 30.334099 
L 369.60768 87.279398 
" style="fill:none;stroke:#ff00ff;stroke-linecap:square;stroke-width:1.5;"/>
    <g>
     <use style="fill-opacity:0;stroke:#ff00ff;stroke-linejoin:miter;stroke-width:1.5;" x="338.688" xlink:href="#m900a43edfc" y="30.334099"/>
     <use style="fill-opacity:0;stroke:#ff00ff;stroke-linejoin:miter;stroke-width:1.5;" x="369.60768" xlink:href="#m900a43edfc" y="87.279398"/>
    </g>
   </g>
   <g id="line2d_64">
    <path d="M 338.688 298.944 
L 338.688 30.334099 
" style="fill:none;stroke:#000000;stroke-linecap:square;stroke-width:1.5;"/>
   </g>
   <g id="patch_3">
    <path d="M 57.6 298.944 
L 57.6 27.648 
" style="fill:none;stroke:#000000;stroke-linecap:square;stroke-linejoin:miter;stroke-width:0.8;"/>
   </g>
   <g id="patch_4">
    <path d="M 338.688 298.944 
L 338.688 27.648 
" style="fill:none;stroke:#000000;stroke-linecap:square;stroke-linejoin:miter;stroke-width:0.8;"/>
   </g>
   <g id="patch_5">
    <path d="M 57.6 298.944 
L 338.688 298.944 
" style="fill:none;stroke:#000000;stroke-linecap:square;stroke-linejoin:miter;stroke-width:0.8;"/>
   </g>
   <g id="patch_6">
    <path d="M 57.6 27.648 
L 338.688 27.648 
" style="fill:none;stroke:#000000;stroke-linecap:square;stroke-linejoin:miter;stroke-width:0.8;"/>
   </g>
   <g id="text_13">
    <!-- 100-1e5 -->
    <defs>
     <path d="M 10.796875 72.90625 
L 49.515625 72.90625 
L 49.515625 64.59375 
L 19.828125 64.59375 
L 19.828125 46.734375 
Q 21.96875 47.46875 24.109375 47.828125 
Q 26.265625 48.1875 28.421875 48.1875 
Q 40.625 48.1875 47.75 41.5 
Q 54.890625 34.8125 54.890625 23.390625 
Q 54.890625 11.625 47.5625 5.09375 
Q 40.234375 -1.421875 26.90625 -1.421875 
Q 22.3125 -1.421875 17.546875 -0.640625 
Q 12.796875 0.140625 7.71875 1.703125 
L 7.71875 11.625 
Q 12.109375 9.234375 16.796875 8.0625 
Q 21.484375 6.890625 26.703125 6.890625 
Q 35.15625 6.890625 40.078125 11.328125 
Q 45.015625 15.765625 45.015625 23.390625 
Q 45.015625 31 40.078125 35.4375 
Q 35.15625 39.890625 26.703125 39.890625 
Q 22.75 39.890625 18.8125 39.015625 
Q 14.890625 38.140625 10.796875 36.28125 
z
" id="DejaVuSans-53"/>
    </defs>
    <g transform="translate(375.22944 298.262739)scale(0.17 -0.17)">
     <use xlink:href="#DejaVuSans-49"/>
     <use x="63.623047" xlink:href="#DejaVuSans-48"/>
     <use x="127.246094" xlink:href="#DejaVuSans-48"/>
     <use x="190.869141" xlink:href="#DejaVuSans-45"/>
     <use x="226.953125" xlink:href="#DejaVuSans-49"/>
     <use x="290.576172" xlink:href="#DejaVuSans-101"/>
     <use x="352.099609" xlink:href="#DejaVuSans-53"/>
    </g>
   </g>
   <g id="text_14">
    <!-- 050s-2e4 -->
    <g transform="translate(375.22944 246.689638)scale(0.17 -0.17)">
     <use xlink:href="#DejaVuSans-48"/>
     <use x="63.623047" xlink:href="#DejaVuSans-53"/>
     <use x="127.246094" xlink:href="#DejaVuSans-48"/>
     <use x="190.869141" xlink:href="#DejaVuSans-115"/>
     <use x="242.96875" xlink:href="#DejaVuSans-45"/>
     <use x="279.052734" xlink:href="#DejaVuSans-50"/>
     <use x="342.675781" xlink:href="#DejaVuSans-101"/>
     <use x="404.199219" xlink:href="#DejaVuSans-52"/>
    </g>
   </g>
   <g id="text_15">
    <!-- 075s-2e4 -->
    <defs>
     <path d="M 8.203125 72.90625 
L 55.078125 72.90625 
L 55.078125 68.703125 
L 28.609375 0 
L 18.3125 0 
L 43.21875 64.59375 
L 8.203125 64.59375 
z
" id="DejaVuSans-55"/>
    </defs>
    <g transform="translate(375.22944 195.116537)scale(0.17 -0.17)">
     <use xlink:href="#DejaVuSans-48"/>
     <use x="63.623047" xlink:href="#DejaVuSans-55"/>
     <use x="127.246094" xlink:href="#DejaVuSans-53"/>
     <use x="190.869141" xlink:href="#DejaVuSans-115"/>
     <use x="242.96875" xlink:href="#DejaVuSans-45"/>
     <use x="279.052734" xlink:href="#DejaVuSans-50"/>
     <use x="342.675781" xlink:href="#DejaVuSans-101"/>
     <use x="404.199219" xlink:href="#DejaVuSans-52"/>
    </g>
   </g>
   <g id="text_16">
    <!-- 100-2e4 -->
    <g transform="translate(375.22944 143.543437)scale(0.17 -0.17)">
     <use xlink:href="#DejaVuSans-49"/>
     <use x="63.623047" xlink:href="#DejaVuSans-48"/>
     <use x="127.246094" xlink:href="#DejaVuSans-48"/>
     <use x="190.869141" xlink:href="#DejaVuSans-45"/>
     <use x="226.953125" xlink:href="#DejaVuSans-50"/>
     <use x="290.576172" xlink:href="#DejaVuSans-101"/>
     <use x="352.099609" xlink:href="#DejaVuSans-52"/>
    </g>
   </g>
   <g id="text_17">
    <!-- 025s-2e4 -->
    <g transform="translate(375.22944 91.970336)scale(0.17 -0.17)">
     <use xlink:href="#DejaVuSans-48"/>
     <use x="63.623047" xlink:href="#DejaVuSans-50"/>
     <use x="127.246094" xlink:href="#DejaVuSans-53"/>
     <use x="190.869141" xlink:href="#DejaVuSans-115"/>
     <use x="242.96875" xlink:href="#DejaVuSans-45"/>
     <use x="279.052734" xlink:href="#DejaVuSans-50"/>
     <use x="342.675781" xlink:href="#DejaVuSans-101"/>
     <use x="404.199219" xlink:href="#DejaVuSans-52"/>
    </g>
   </g>
   <g id="text_18">
    <!-- best 2009 -->
    <defs>
     <path d="M 48.6875 27.296875 
Q 48.6875 37.203125 44.609375 42.84375 
Q 40.53125 48.484375 33.40625 48.484375 
Q 26.265625 48.484375 22.1875 42.84375 
Q 18.109375 37.203125 18.109375 27.296875 
Q 18.109375 17.390625 22.1875 11.75 
Q 26.265625 6.109375 33.40625 6.109375 
Q 40.53125 6.109375 44.609375 11.75 
Q 48.6875 17.390625 48.6875 27.296875 
z
M 18.109375 46.390625 
Q 20.953125 51.265625 25.265625 53.625 
Q 29.59375 56 35.59375 56 
Q 45.5625 56 51.78125 48.09375 
Q 58.015625 40.1875 58.015625 27.296875 
Q 58.015625 14.40625 51.78125 6.484375 
Q 45.5625 -1.421875 35.59375 -1.421875 
Q 29.59375 -1.421875 25.265625 0.953125 
Q 20.953125 3.328125 18.109375 8.203125 
L 18.109375 0 
L 9.078125 0 
L 9.078125 75.984375 
L 18.109375 75.984375 
z
" id="DejaVuSans-98"/>
     <path d="M 10.984375 1.515625 
L 10.984375 10.5 
Q 14.703125 8.734375 18.5 7.8125 
Q 22.3125 6.890625 25.984375 6.890625 
Q 35.75 6.890625 40.890625 13.453125 
Q 46.046875 20.015625 46.78125 33.40625 
Q 43.953125 29.203125 39.59375 26.953125 
Q 35.25 24.703125 29.984375 24.703125 
Q 19.046875 24.703125 12.671875 31.3125 
Q 6.296875 37.9375 6.296875 49.421875 
Q 6.296875 60.640625 12.9375 67.421875 
Q 19.578125 74.21875 30.609375 74.21875 
Q 43.265625 74.21875 49.921875 64.515625 
Q 56.59375 54.828125 56.59375 36.375 
Q 56.59375 19.140625 48.40625 8.859375 
Q 40.234375 -1.421875 26.421875 -1.421875 
Q 22.703125 -1.421875 18.890625 -0.6875 
Q 15.09375 0.046875 10.984375 1.515625 
z
M 30.609375 32.421875 
Q 37.25 32.421875 41.125 36.953125 
Q 45.015625 41.5 45.015625 49.421875 
Q 45.015625 57.28125 41.125 61.84375 
Q 37.25 66.40625 30.609375 66.40625 
Q 23.96875 66.40625 20.09375 61.84375 
Q 16.21875 57.28125 16.21875 49.421875 
Q 16.21875 41.5 20.09375 36.953125 
Q 23.96875 32.421875 30.609375 32.421875 
z
" id="DejaVuSans-57"/>
    </defs>
    <g transform="translate(375.22944 40.397235)scale(0.17 -0.17)">
     <use xlink:href="#DejaVuSans-98"/>
     <use x="63.476562" xlink:href="#DejaVuSans-101"/>
     <use x="125" xlink:href="#DejaVuSans-115"/>
     <use x="177.099609" xlink:href="#DejaVuSans-116"/>
     <use x="216.308594" xlink:href="#DejaVuSans-32"/>
     <use x="248.095703" xlink:href="#DejaVuSans-50"/>
     <use x="311.71875" xlink:href="#DejaVuSans-48"/>
     <use x="375.341797" xlink:href="#DejaVuSans-48"/>
     <use x="438.964844" xlink:href="#DejaVuSans-57"/>
    </g>
   </g>
   <g id="text_19">
    <!-- bbob f24, 3-D -->
    <defs>
     <path d="M 40.578125 39.3125 
Q 47.65625 37.796875 51.625 33 
Q 55.609375 28.21875 55.609375 21.1875 
Q 55.609375 10.40625 48.1875 4.484375 
Q 40.765625 -1.421875 27.09375 -1.421875 
Q 22.515625 -1.421875 17.65625 -0.515625 
Q 12.796875 0.390625 7.625 2.203125 
L 7.625 11.71875 
Q 11.71875 9.328125 16.59375 8.109375 
Q 21.484375 6.890625 26.8125 6.890625 
Q 36.078125 6.890625 40.9375 10.546875 
Q 45.796875 14.203125 45.796875 21.1875 
Q 45.796875 27.640625 41.28125 31.265625 
Q 36.765625 34.90625 28.71875 34.90625 
L 20.21875 34.90625 
L 20.21875 43.015625 
L 29.109375 43.015625 
Q 36.375 43.015625 40.234375 45.921875 
Q 44.09375 48.828125 44.09375 54.296875 
Q 44.09375 59.90625 40.109375 62.90625 
Q 36.140625 65.921875 28.71875 65.921875 
Q 24.65625 65.921875 20.015625 65.03125 
Q 15.375 64.15625 9.8125 62.3125 
L 9.8125 71.09375 
Q 15.4375 72.65625 20.34375 73.4375 
Q 25.25 74.21875 29.59375 74.21875 
Q 40.828125 74.21875 47.359375 69.109375 
Q 53.90625 64.015625 53.90625 55.328125 
Q 53.90625 49.265625 50.4375 45.09375 
Q 46.96875 40.921875 40.578125 39.3125 
z
" id="DejaVuSans-51"/>
     <path d="M 19.671875 64.796875 
L 19.671875 8.109375 
L 31.59375 8.109375 
Q 46.6875 8.109375 53.6875 14.9375 
Q 60.6875 21.78125 60.6875 36.53125 
Q 60.6875 51.171875 53.6875 57.984375 
Q 46.6875 64.796875 31.59375 64.796875 
z
M 9.8125 72.90625 
L 30.078125 72.90625 
Q 51.265625 72.90625 61.171875 64.09375 
Q 71.09375 55.28125 71.09375 36.53125 
Q 71.09375 17.671875 61.125 8.828125 
Q 51.171875 0 30.078125 0 
L 9.8125 0 
z
" id="DejaVuSans-68"/>
    </defs>
    <g transform="translate(60.41088 38.111366)scale(0.102 -0.102)">
     <use xlink:href="#DejaVuSans-98"/>
     <use x="63.476562" xlink:href="#DejaVuSans-98"/>
     <use x="126.953125" xlink:href="#DejaVuSans-111"/>
     <use x="188.134766" xlink:href="#DejaVuSans-98"/>
     <use x="251.611328" xlink:href="#DejaVuSans-32"/>
     <use x="283.398438" xlink:href="#DejaVuSans-102"/>
     <use x="318.603516" xlink:href="#DejaVuSans-50"/>
     <use x="382.226562" xlink:href="#DejaVuSans-52"/>
     <use x="445.849609" xlink:href="#DejaVuSans-44"/>
     <use x="477.636719" xlink:href="#DejaVuSans-32"/>
     <use x="509.423828" xlink:href="#DejaVuSans-51"/>
     <use x="573.046875" xlink:href="#DejaVuSans-45"/>
     <use x="609.130859" xlink:href="#DejaVuSans-68"/>
    </g>
    <!-- 51 targets: 100..1e-08 -->
    <defs>
     <path d="M 11.71875 12.40625 
L 22.015625 12.40625 
L 22.015625 0 
L 11.71875 0 
z
M 11.71875 51.703125 
L 22.015625 51.703125 
L 22.015625 39.3125 
L 11.71875 39.3125 
z
" id="DejaVuSans-58"/>
    </defs>
    <g transform="translate(60.41088 49.533135)scale(0.102 -0.102)">
     <use xlink:href="#DejaVuSans-53"/>
     <use x="63.623047" xlink:href="#DejaVuSans-49"/>
     <use x="127.246094" xlink:href="#DejaVuSans-32"/>
     <use x="159.033203" xlink:href="#DejaVuSans-116"/>
     <use x="198.242188" xlink:href="#DejaVuSans-97"/>
     <use x="259.521484" xlink:href="#DejaVuSans-114"/>
     <use x="300.619141" xlink:href="#DejaVuSans-103"/>
     <use x="364.095703" xlink:href="#DejaVuSans-101"/>
     <use x="425.619141" xlink:href="#DejaVuSans-116"/>
     <use x="464.828125" xlink:href="#DejaVuSans-115"/>
     <use x="516.927734" xlink:href="#DejaVuSans-58"/>
     <use x="550.619141" xlink:href="#DejaVuSans-32"/>
     <use x="582.40625" xlink:href="#DejaVuSans-49"/>
     <use x="646.029297" xlink:href="#DejaVuSans-48"/>
     <use x="709.652344" xlink:href="#DejaVuSans-48"/>
     <use x="773.275391" xlink:href="#DejaVuSans-46"/>
     <use x="805.0625" xlink:href="#DejaVuSans-46"/>
     <use x="836.849609" xlink:href="#DejaVuSans-49"/>
     <use x="900.472656" xlink:href="#DejaVuSans-101"/>
     <use x="961.996094" xlink:href="#DejaVuSans-45"/>
     <use x="998.080078" xlink:href="#DejaVuSans-48"/>
     <use x="1061.703125" xlink:href="#DejaVuSans-56"/>
    </g>
    <!-- 15 instances -->
    <g transform="translate(60.41088 60.954904)scale(0.102 -0.102)">
     <use xlink:href="#DejaVuSans-49"/>
     <use x="63.623047" xlink:href="#DejaVuSans-53"/>
     <use x="127.246094" xlink:href="#DejaVuSans-32"/>
     <use x="159.033203" xlink:href="#DejaVuSans-105"/>
     <use x="186.816406" xlink:href="#DejaVuSans-110"/>
     <use x="250.195312" xlink:href="#DejaVuSans-115"/>
     <use x="302.294922" xlink:href="#DejaVuSans-116"/>
     <use x="341.503906" xlink:href="#DejaVuSans-97"/>
     <use x="402.783203" xlink:href="#DejaVuSans-110"/>
     <use x="466.162109" xlink:href="#DejaVuSans-99"/>
     <use x="521.142578" xlink:href="#DejaVuSans-101"/>
     <use x="582.666016" xlink:href="#DejaVuSans-115"/>
    </g>
   </g>
   <g id="text_20">
    <!-- v2.3.3.18.73 -->
    <g style="fill:#808080;" transform="translate(166.559625 294.151352)scale(0.1 -0.1)">
     <use xlink:href="#DejaVuSans-118"/>
     <use x="59.179688" xlink:href="#DejaVuSans-50"/>
     <use x="122.802734" xlink:href="#DejaVuSans-46"/>
     <use x="154.589844" xlink:href="#DejaVuSans-51"/>
     <use x="218.212891" xlink:href="#DejaVuSans-46"/>
     <use x="250" xlink:href="#DejaVuSans-51"/>
     <use x="313.623047" xlink:href="#DejaVuSans-46"/>
     <use x="345.410156" xlink:href="#DejaVuSans-49"/>
     <use x="409.033203" xlink:href="#DejaVuSans-56"/>
     <use x="472.65625" xlink:href="#DejaVuSans-46"/>
     <use x="504.443359" xlink:href="#DejaVuSans-55"/>
     <use x="568.066406" xlink:href="#DejaVuSans-51"/>
    </g>
   </g>
   <g id="text_21">
    <!-- 24 Lunacek bi-Rastrigin -->
    <defs>
     <path d="M 9.8125 72.90625 
L 19.671875 72.90625 
L 19.671875 8.296875 
L 55.171875 8.296875 
L 55.171875 0 
L 9.8125 0 
z
" id="DejaVuSans-76"/>
     <path d="M 9.078125 75.984375 
L 18.109375 75.984375 
L 18.109375 31.109375 
L 44.921875 54.6875 
L 56.390625 54.6875 
L 27.390625 29.109375 
L 57.625 0 
L 45.90625 0 
L 18.109375 26.703125 
L 18.109375 0 
L 9.078125 0 
z
" id="DejaVuSans-107"/>
     <path d="M 44.390625 34.1875 
Q 47.5625 33.109375 50.5625 29.59375 
Q 53.5625 26.078125 56.59375 19.921875 
L 66.609375 0 
L 56 0 
L 46.6875 18.703125 
Q 43.0625 26.03125 39.671875 28.421875 
Q 36.28125 30.8125 30.421875 30.8125 
L 19.671875 30.8125 
L 19.671875 0 
L 9.8125 0 
L 9.8125 72.90625 
L 32.078125 72.90625 
Q 44.578125 72.90625 50.734375 67.671875 
Q 56.890625 62.453125 56.890625 51.90625 
Q 56.890625 45.015625 53.6875 40.46875 
Q 50.484375 35.9375 44.390625 34.1875 
z
M 19.671875 64.796875 
L 19.671875 38.921875 
L 32.078125 38.921875 
Q 39.203125 38.921875 42.84375 42.21875 
Q 46.484375 45.515625 46.484375 51.90625 
Q 46.484375 58.296875 42.84375 61.546875 
Q 39.203125 64.796875 32.078125 64.796875 
z
" id="DejaVuSans-82"/>
    </defs>
    <g transform="translate(79.9565 21.648)scale(0.2 -0.2)">
     <use xlink:href="#DejaVuSans-50"/>
     <use x="63.623047" xlink:href="#DejaVuSans-52"/>
     <use x="127.246094" xlink:href="#DejaVuSans-32"/>
     <use x="159.033203" xlink:href="#DejaVuSans-76"/>
     <use x="214.730469" xlink:href="#DejaVuSans-117"/>
     <use x="278.109375" xlink:href="#DejaVuSans-110"/>
     <use x="341.488281" xlink:href="#DejaVuSans-97"/>
     <use x="402.767578" xlink:href="#DejaVuSans-99"/>
     <use x="457.748047" xlink:href="#DejaVuSans-101"/>
     <use x="519.271484" xlink:href="#DejaVuSans-107"/>
     <use x="577.181641" xlink:href="#DejaVuSans-32"/>
     <use x="608.96875" xlink:href="#DejaVuSans-98"/>
     <use x="672.445312" xlink:href="#DejaVuSans-105"/>
     <use x="700.228516" xlink:href="#DejaVuSans-45"/>
     <use x="736.3125" xlink:href="#DejaVuSans-82"/>
     <use x="805.763672" xlink:href="#DejaVuSans-97"/>
     <use x="867.042969" xlink:href="#DejaVuSans-115"/>
     <use x="919.142578" xlink:href="#DejaVuSans-116"/>
     <use x="958.351562" xlink:href="#DejaVuSans-114"/>
     <use x="999.464844" xlink:href="#DejaVuSans-105"/>
     <use x="1027.248047" xlink:href="#DejaVuSans-103"/>
     <use x="1090.724609" xlink:href="#DejaVuSans-105"/>
     <use x="1118.507812" xlink:href="#DejaVuSans-110"/>
    </g>
   </g>
  </g>
 </g>
 <defs>
  <clipPath id="p83b891dfdb">
   <rect height="271.296" width="281.088" x="57.6" y="27.648"/>
  </clipPath>
 </defs>
</svg>
