<?xml version="1.0" encoding="utf-8" standalone="no"?>
<!DOCTYPE svg PUBLIC "-//W3C//DTD SVG 1.1//EN"
  "http://www.w3.org/Graphics/SVG/1.1/DTD/svg11.dtd">
<!-- Created with matplotlib (https://matplotlib.org/) -->
<svg height="345.6pt" version="1.1" viewBox="0 0 460.8 345.6" width="460.8pt" xmlns="http://www.w3.org/2000/svg" xmlns:xlink="http://www.w3.org/1999/xlink">
 <defs>
  <style type="text/css">
*{stroke-linecap:butt;stroke-linejoin:round;}
  </style>
 </defs>
 <g id="figure_1">
  <g id="patch_1">
   <path d="M 0 345.6 
L 460.8 345.6 
L 460.8 0 
L 0 0 
z
" style="fill:#ffffff;"/>
  </g>
  <g id="axes_1">
   <g id="patch_2">
    <path d="M 57.6 298.944 
L 338.688 298.944 
L 338.688 27.648 
L 57.6 27.648 
z
" style="fill:#ffffff;"/>
   </g>
   <g id="line2d_1">
    <path d="M 107.860069 298.944 
L 107.860069 293.677139 
L 115.711251 293.677139 
L 115.711251 288.410278 
L 119.199476 288.410278 
L 119.199476 283.143418 
L 120.944859 283.143418 
L 120.944859 277.876557 
L 125.074593 277.876557 
L 125.074593 272.609696 
L 135.240011 272.609696 
L 135.240011 267.342835 
L 138.230536 267.342835 
L 138.230536 262.075974 
L 144.263915 262.075974 
L 144.263915 256.809114 
L 144.859373 256.809114 
L 144.859373 251.542253 
L 145.264418 251.542253 
L 145.264418 246.275392 
L 145.564956 246.275392 
L 145.564956 241.008531 
L 145.805039 241.008531 
L 145.805039 235.74167 
L 146.06373 235.74167 
L 146.06373 230.47481 
L 146.243097 230.47481 
L 146.243097 225.207949 
L 146.388493 225.207949 
L 146.388493 219.941088 
L 146.522046 219.941088 
L 146.522046 214.674227 
L 146.633446 214.674227 
L 146.633446 209.407366 
L 146.733626 209.407366 
L 146.733626 204.140506 
L 146.838461 204.140506 
L 146.838461 198.873645 
L 146.937474 198.873645 
L 146.937474 193.606784 
L 147.056585 193.606784 
L 147.056585 188.339923 
L 147.159502 188.339923 
L 147.159502 183.073062 
L 147.226074 183.073062 
L 147.226074 177.806202 
L 147.292393 177.806202 
L 147.292393 172.539341 
L 147.368603 172.539341 
L 147.368603 167.27248 
L 147.444481 167.27248 
L 147.444481 162.005619 
L 147.515004 162.005619 
L 147.515004 156.738758 
L 147.580235 156.738758 
L 147.580235 151.471897 
L 147.645223 151.471897 
L 147.645223 146.205037 
L 147.724877 146.205037 
L 147.724877 140.938176 
L 147.814056 140.938176 
L 147.814056 135.671315 
L 147.883103 135.671315 
L 147.883103 130.404454 
L 147.951877 130.404454 
L 147.951877 125.137593 
L 148.035027 125.137593 
L 148.035027 119.870733 
L 148.074019 119.870733 
L 148.074019 114.603872 
L 148.132344 114.603872 
L 148.132344 109.337011 
L 148.190475 109.337011 
L 148.190475 104.07015 
L 148.243592 104.07015 
L 148.243592 98.803289 
L 148.306159 98.803289 
L 148.306159 93.536429 
L 148.378074 93.536429 
L 148.378074 88.269568 
L 148.45922 88.269568 
L 148.45922 83.002707 
L 148.52102 83.002707 
L 148.52102 77.735846 
L 148.606228 77.735846 
L 148.606228 72.468985 
L 148.658095 72.468985 
L 148.658095 67.202125 
L 148.709809 67.202125 
L 148.709809 61.935264 
L 148.76605 61.935264 
L 148.76605 56.668403 
L 148.82211 56.668403 
L 148.82211 51.401542 
L 148.864037 51.401542 
L 148.864037 46.134681 
L 148.924421 46.134681 
L 148.924421 40.867821 
L 148.970728 40.867821 
L 148.970728 35.60096 
L 149.030744 35.60096 
L 149.030744 30.334099 
L 338.688 30.334099 
" style="fill:none;stroke:#f5deb3;stroke-linecap:square;stroke-width:4;"/>
   </g>
   <g id="line2d_2">
    <defs>
     <path d="M -0 7.778175 
L 7.778175 0 
L 0 -7.778175 
L -7.778175 -0 
z
" id="mc61a7d1c88" style="stroke:#f5deb3;stroke-linejoin:miter;stroke-width:1.5;"/>
    </defs>
    <g>
     <use style="fill:#f5deb3;stroke:#f5deb3;stroke-linejoin:miter;stroke-width:1.5;" x="145.264418" xlink:href="#mc61a7d1c88" y="246.275392"/>
     <use style="fill:#f5deb3;stroke:#f5deb3;stroke-linejoin:miter;stroke-width:1.5;" x="148.76605" xlink:href="#mc61a7d1c88" y="56.668403"/>
     <use style="fill:#f5deb3;stroke:#f5deb3;stroke-linejoin:miter;stroke-width:1.5;" x="149.030744" xlink:href="#mc61a7d1c88" y="30.334099"/>
     <use style="fill:#f5deb3;stroke:#f5deb3;stroke-linejoin:miter;stroke-width:1.5;" x="149.030744" xlink:href="#mc61a7d1c88" y="30.334099"/>
     <use style="fill:#f5deb3;stroke:#f5deb3;stroke-linejoin:miter;stroke-width:1.5;" x="338.688" xlink:href="#mc61a7d1c88" y="30.334099"/>
    </g>
   </g>
   <g id="line2d_3">
    <path style="fill:none;stroke:#f5deb3;stroke-linecap:square;stroke-width:4;"/>
    <g/>
   </g>
   <g id="line2d_4">
    <path d="M 338.688 30.334099 
L 369.60768 35.706297 
" style="fill:none;stroke:#f5deb3;stroke-linecap:square;stroke-width:4;"/>
    <g>
     <use style="fill:#f5deb3;stroke:#f5deb3;stroke-linejoin:miter;stroke-width:1.5;" x="338.688" xlink:href="#mc61a7d1c88" y="30.334099"/>
     <use style="fill:#f5deb3;stroke:#f5deb3;stroke-linejoin:miter;stroke-width:1.5;" x="369.60768" xlink:href="#mc61a7d1c88" y="35.706297"/>
    </g>
   </g>
   <g id="matplotlib.axis_1">
    <g id="xtick_1">
     <g id="line2d_5">
      <path clip-path="url(#p376680ab24)" d="M 57.6 298.944 
L 57.6 27.648 
" style="fill:none;stroke:#b0b0b0;stroke-linecap:square;stroke-width:0.8;"/>
     </g>
     <g id="line2d_6">
      <defs>
       <path d="M 0 0 
L 0 3.5 
" id="meb47d9be10" style="stroke:#000000;stroke-width:0.8;"/>
      </defs>
      <g>
       <use style="stroke:#000000;stroke-width:0.8;" x="57.6" xlink:href="#meb47d9be10" y="298.944"/>
      </g>
     </g>
     <g id="text_1">
      <!-- 0 -->
      <defs>
       <path d="M 31.78125 66.40625 
Q 24.171875 66.40625 20.328125 58.90625 
Q 16.5 51.421875 16.5 36.375 
Q 16.5 21.390625 20.328125 13.890625 
Q 24.171875 6.390625 31.78125 6.390625 
Q 39.453125 6.390625 43.28125 13.890625 
Q 47.125 21.390625 47.125 36.375 
Q 47.125 51.421875 43.28125 58.90625 
Q 39.453125 66.40625 31.78125 66.40625 
z
M 31.78125 74.21875 
Q 44.046875 74.21875 50.515625 64.515625 
Q 56.984375 54.828125 56.984375 36.375 
Q 56.984375 17.96875 50.515625 8.265625 
Q 44.046875 -1.421875 31.78125 -1.421875 
Q 19.53125 -1.421875 13.0625 8.265625 
Q 6.59375 17.96875 6.59375 36.375 
Q 6.59375 54.828125 13.0625 64.515625 
Q 19.53125 74.21875 31.78125 74.21875 
z
" id="DejaVuSans-48"/>
      </defs>
      <g transform="translate(51.2375 321.140875)scale(0.2 -0.2)">
       <use xlink:href="#DejaVuSans-48"/>
      </g>
     </g>
    </g>
    <g id="xtick_2">
     <g id="line2d_7">
      <path clip-path="url(#p376680ab24)" d="M 137.910857 298.944 
L 137.910857 27.648 
" style="fill:none;stroke:#b0b0b0;stroke-linecap:square;stroke-width:0.8;"/>
     </g>
     <g id="line2d_8">
      <g>
       <use style="stroke:#000000;stroke-width:0.8;" x="137.910857" xlink:href="#meb47d9be10" y="298.944"/>
      </g>
     </g>
     <g id="text_2">
      <!-- 2 -->
      <defs>
       <path d="M 19.1875 8.296875 
L 53.609375 8.296875 
L 53.609375 0 
L 7.328125 0 
L 7.328125 8.296875 
Q 12.9375 14.109375 22.625 23.890625 
Q 32.328125 33.6875 34.8125 36.53125 
Q 39.546875 41.84375 41.421875 45.53125 
Q 43.3125 49.21875 43.3125 52.78125 
Q 43.3125 58.59375 39.234375 62.25 
Q 35.15625 65.921875 28.609375 65.921875 
Q 23.96875 65.921875 18.8125 64.3125 
Q 13.671875 62.703125 7.8125 59.421875 
L 7.8125 69.390625 
Q 13.765625 71.78125 18.9375 73 
Q 24.125 74.21875 28.421875 74.21875 
Q 39.75 74.21875 46.484375 68.546875 
Q 53.21875 62.890625 53.21875 53.421875 
Q 53.21875 48.921875 51.53125 44.890625 
Q 49.859375 40.875 45.40625 35.40625 
Q 44.1875 33.984375 37.640625 27.21875 
Q 31.109375 20.453125 19.1875 8.296875 
z
" id="DejaVuSans-50"/>
      </defs>
      <g transform="translate(131.548357 321.140875)scale(0.2 -0.2)">
       <use xlink:href="#DejaVuSans-50"/>
      </g>
     </g>
    </g>
    <g id="xtick_3">
     <g id="line2d_9">
      <path clip-path="url(#p376680ab24)" d="M 218.221714 298.944 
L 218.221714 27.648 
" style="fill:none;stroke:#b0b0b0;stroke-linecap:square;stroke-width:0.8;"/>
     </g>
     <g id="line2d_10">
      <g>
       <use style="stroke:#000000;stroke-width:0.8;" x="218.221714" xlink:href="#meb47d9be10" y="298.944"/>
      </g>
     </g>
     <g id="text_3">
      <!-- 4 -->
      <defs>
       <path d="M 37.796875 64.3125 
L 12.890625 25.390625 
L 37.796875 25.390625 
z
M 35.203125 72.90625 
L 47.609375 72.90625 
L 47.609375 25.390625 
L 58.015625 25.390625 
L 58.015625 17.1875 
L 47.609375 17.1875 
L 47.609375 0 
L 37.796875 0 
L 37.796875 17.1875 
L 4.890625 17.1875 
L 4.890625 26.703125 
z
" id="DejaVuSans-52"/>
      </defs>
      <g transform="translate(211.859214 321.140875)scale(0.2 -0.2)">
       <use xlink:href="#DejaVuSans-52"/>
      </g>
     </g>
    </g>
    <g id="xtick_4">
     <g id="line2d_11">
      <path clip-path="url(#p376680ab24)" d="M 298.532571 298.944 
L 298.532571 27.648 
" style="fill:none;stroke:#b0b0b0;stroke-linecap:square;stroke-width:0.8;"/>
     </g>
     <g id="line2d_12">
      <g>
       <use style="stroke:#000000;stroke-width:0.8;" x="298.532571" xlink:href="#meb47d9be10" y="298.944"/>
      </g>
     </g>
     <g id="text_4">
      <!-- 6 -->
      <defs>
       <path d="M 33.015625 40.375 
Q 26.375 40.375 22.484375 35.828125 
Q 18.609375 31.296875 18.609375 23.390625 
Q 18.609375 15.53125 22.484375 10.953125 
Q 26.375 6.390625 33.015625 6.390625 
Q 39.65625 6.390625 43.53125 10.953125 
Q 47.40625 15.53125 47.40625 23.390625 
Q 47.40625 31.296875 43.53125 35.828125 
Q 39.65625 40.375 33.015625 40.375 
z
M 52.59375 71.296875 
L 52.59375 62.3125 
Q 48.875 64.0625 45.09375 64.984375 
Q 41.3125 65.921875 37.59375 65.921875 
Q 27.828125 65.921875 22.671875 59.328125 
Q 17.53125 52.734375 16.796875 39.40625 
Q 19.671875 43.65625 24.015625 45.921875 
Q 28.375 48.1875 33.59375 48.1875 
Q 44.578125 48.1875 50.953125 41.515625 
Q 57.328125 34.859375 57.328125 23.390625 
Q 57.328125 12.15625 50.6875 5.359375 
Q 44.046875 -1.421875 33.015625 -1.421875 
Q 20.359375 -1.421875 13.671875 8.265625 
Q 6.984375 17.96875 6.984375 36.375 
Q 6.984375 53.65625 15.1875 63.9375 
Q 23.390625 74.21875 37.203125 74.21875 
Q 40.921875 74.21875 44.703125 73.484375 
Q 48.484375 72.75 52.59375 71.296875 
z
" id="DejaVuSans-54"/>
      </defs>
      <g transform="translate(292.170071 321.140875)scale(0.2 -0.2)">
       <use xlink:href="#DejaVuSans-54"/>
      </g>
     </g>
    </g>
    <g id="xtick_5">
     <g id="line2d_13">
      <path clip-path="url(#p376680ab24)" d="M 97.755429 298.944 
L 97.755429 27.648 
" style="fill:none;stroke:#b0b0b0;stroke-linecap:square;stroke-width:0.8;"/>
     </g>
     <g id="line2d_14">
      <defs>
       <path d="M 0 0 
L 0 2 
" id="m7bd4e06ab9" style="stroke:#000000;stroke-width:0.6;"/>
      </defs>
      <g>
       <use style="stroke:#000000;stroke-width:0.6;" x="97.755429" xlink:href="#m7bd4e06ab9" y="298.944"/>
      </g>
     </g>
    </g>
    <g id="xtick_6">
     <g id="line2d_15">
      <path clip-path="url(#p376680ab24)" d="M 178.066286 298.944 
L 178.066286 27.648 
" style="fill:none;stroke:#b0b0b0;stroke-linecap:square;stroke-width:0.8;"/>
     </g>
     <g id="line2d_16">
      <g>
       <use style="stroke:#000000;stroke-width:0.6;" x="178.066286" xlink:href="#m7bd4e06ab9" y="298.944"/>
      </g>
     </g>
    </g>
    <g id="xtick_7">
     <g id="line2d_17">
      <path clip-path="url(#p376680ab24)" d="M 258.377143 298.944 
L 258.377143 27.648 
" style="fill:none;stroke:#b0b0b0;stroke-linecap:square;stroke-width:0.8;"/>
     </g>
     <g id="line2d_18">
      <g>
       <use style="stroke:#000000;stroke-width:0.6;" x="258.377143" xlink:href="#m7bd4e06ab9" y="298.944"/>
      </g>
     </g>
    </g>
    <g id="xtick_8">
     <g id="line2d_19">
      <path clip-path="url(#p376680ab24)" d="M 338.688 298.944 
L 338.688 27.648 
" style="fill:none;stroke:#b0b0b0;stroke-linecap:square;stroke-width:0.8;"/>
     </g>
     <g id="line2d_20">
      <g>
       <use style="stroke:#000000;stroke-width:0.6;" x="338.688" xlink:href="#m7bd4e06ab9" y="298.944"/>
      </g>
     </g>
    </g>
    <g id="text_5">
     <!-- log10(# f-evals / dimension) -->
     <defs>
      <path d="M 9.421875 75.984375 
L 18.40625 75.984375 
L 18.40625 0 
L 9.421875 0 
z
" id="DejaVuSans-108"/>
      <path d="M 30.609375 48.390625 
Q 23.390625 48.390625 19.1875 42.75 
Q 14.984375 37.109375 14.984375 27.296875 
Q 14.984375 17.484375 19.15625 11.84375 
Q 23.34375 6.203125 30.609375 6.203125 
Q 37.796875 6.203125 41.984375 11.859375 
Q 46.1875 17.53125 46.1875 27.296875 
Q 46.1875 37.015625 41.984375 42.703125 
Q 37.796875 48.390625 30.609375 48.390625 
z
M 30.609375 56 
Q 42.328125 56 49.015625 48.375 
Q 55.71875 40.765625 55.71875 27.296875 
Q 55.71875 13.875 49.015625 6.21875 
Q 42.328125 -1.421875 30.609375 -1.421875 
Q 18.84375 -1.421875 12.171875 6.21875 
Q 5.515625 13.875 5.515625 27.296875 
Q 5.515625 40.765625 12.171875 48.375 
Q 18.84375 56 30.609375 56 
z
" id="DejaVuSans-111"/>
      <path d="M 45.40625 27.984375 
Q 45.40625 37.75 41.375 43.109375 
Q 37.359375 48.484375 30.078125 48.484375 
Q 22.859375 48.484375 18.828125 43.109375 
Q 14.796875 37.75 14.796875 27.984375 
Q 14.796875 18.265625 18.828125 12.890625 
Q 22.859375 7.515625 30.078125 7.515625 
Q 37.359375 7.515625 41.375 12.890625 
Q 45.40625 18.265625 45.40625 27.984375 
z
M 54.390625 6.78125 
Q 54.390625 -7.171875 48.1875 -13.984375 
Q 42 -20.796875 29.203125 -20.796875 
Q 24.46875 -20.796875 20.265625 -20.09375 
Q 16.0625 -19.390625 12.109375 -17.921875 
L 12.109375 -9.1875 
Q 16.0625 -11.328125 19.921875 -12.34375 
Q 23.78125 -13.375 27.78125 -13.375 
Q 36.625 -13.375 41.015625 -8.765625 
Q 45.40625 -4.15625 45.40625 5.171875 
L 45.40625 9.625 
Q 42.625 4.78125 38.28125 2.390625 
Q 33.9375 0 27.875 0 
Q 17.828125 0 11.671875 7.65625 
Q 5.515625 15.328125 5.515625 27.984375 
Q 5.515625 40.671875 11.671875 48.328125 
Q 17.828125 56 27.875 56 
Q 33.9375 56 38.28125 53.609375 
Q 42.625 51.21875 45.40625 46.390625 
L 45.40625 54.6875 
L 54.390625 54.6875 
z
" id="DejaVuSans-103"/>
      <path d="M 12.40625 8.296875 
L 28.515625 8.296875 
L 28.515625 63.921875 
L 10.984375 60.40625 
L 10.984375 69.390625 
L 28.421875 72.90625 
L 38.28125 72.90625 
L 38.28125 8.296875 
L 54.390625 8.296875 
L 54.390625 0 
L 12.40625 0 
z
" id="DejaVuSans-49"/>
      <path d="M 31 75.875 
Q 24.46875 64.65625 21.28125 53.65625 
Q 18.109375 42.671875 18.109375 31.390625 
Q 18.109375 20.125 21.3125 9.0625 
Q 24.515625 -2 31 -13.1875 
L 23.1875 -13.1875 
Q 15.875 -1.703125 12.234375 9.375 
Q 8.59375 20.453125 8.59375 31.390625 
Q 8.59375 42.28125 12.203125 53.3125 
Q 15.828125 64.359375 23.1875 75.875 
z
" id="DejaVuSans-40"/>
      <path d="M 51.125 44 
L 36.921875 44 
L 32.8125 27.6875 
L 47.125 27.6875 
z
M 43.796875 71.78125 
L 38.71875 51.515625 
L 52.984375 51.515625 
L 58.109375 71.78125 
L 65.921875 71.78125 
L 60.890625 51.515625 
L 76.125 51.515625 
L 76.125 44 
L 58.984375 44 
L 54.984375 27.6875 
L 70.515625 27.6875 
L 70.515625 20.21875 
L 53.078125 20.21875 
L 48 0 
L 40.1875 0 
L 45.21875 20.21875 
L 30.90625 20.21875 
L 25.875 0 
L 18.015625 0 
L 23.09375 20.21875 
L 7.71875 20.21875 
L 7.71875 27.6875 
L 24.90625 27.6875 
L 29 44 
L 13.28125 44 
L 13.28125 51.515625 
L 30.90625 51.515625 
L 35.890625 71.78125 
z
" id="DejaVuSans-35"/>
      <path id="DejaVuSans-32"/>
      <path d="M 37.109375 75.984375 
L 37.109375 68.5 
L 28.515625 68.5 
Q 23.6875 68.5 21.796875 66.546875 
Q 19.921875 64.59375 19.921875 59.515625 
L 19.921875 54.6875 
L 34.71875 54.6875 
L 34.71875 47.703125 
L 19.921875 47.703125 
L 19.921875 0 
L 10.890625 0 
L 10.890625 47.703125 
L 2.296875 47.703125 
L 2.296875 54.6875 
L 10.890625 54.6875 
L 10.890625 58.5 
Q 10.890625 67.625 15.140625 71.796875 
Q 19.390625 75.984375 28.609375 75.984375 
z
" id="DejaVuSans-102"/>
      <path d="M 4.890625 31.390625 
L 31.203125 31.390625 
L 31.203125 23.390625 
L 4.890625 23.390625 
z
" id="DejaVuSans-45"/>
      <path d="M 56.203125 29.59375 
L 56.203125 25.203125 
L 14.890625 25.203125 
Q 15.484375 15.921875 20.484375 11.0625 
Q 25.484375 6.203125 34.421875 6.203125 
Q 39.59375 6.203125 44.453125 7.46875 
Q 49.3125 8.734375 54.109375 11.28125 
L 54.109375 2.78125 
Q 49.265625 0.734375 44.1875 -0.34375 
Q 39.109375 -1.421875 33.890625 -1.421875 
Q 20.796875 -1.421875 13.15625 6.1875 
Q 5.515625 13.8125 5.515625 26.8125 
Q 5.515625 40.234375 12.765625 48.109375 
Q 20.015625 56 32.328125 56 
Q 43.359375 56 49.78125 48.890625 
Q 56.203125 41.796875 56.203125 29.59375 
z
M 47.21875 32.234375 
Q 47.125 39.59375 43.09375 43.984375 
Q 39.0625 48.390625 32.421875 48.390625 
Q 24.90625 48.390625 20.390625 44.140625 
Q 15.875 39.890625 15.1875 32.171875 
z
" id="DejaVuSans-101"/>
      <path d="M 2.984375 54.6875 
L 12.5 54.6875 
L 29.59375 8.796875 
L 46.6875 54.6875 
L 56.203125 54.6875 
L 35.6875 0 
L 23.484375 0 
z
" id="DejaVuSans-118"/>
      <path d="M 34.28125 27.484375 
Q 23.390625 27.484375 19.1875 25 
Q 14.984375 22.515625 14.984375 16.5 
Q 14.984375 11.71875 18.140625 8.90625 
Q 21.296875 6.109375 26.703125 6.109375 
Q 34.1875 6.109375 38.703125 11.40625 
Q 43.21875 16.703125 43.21875 25.484375 
L 43.21875 27.484375 
z
M 52.203125 31.203125 
L 52.203125 0 
L 43.21875 0 
L 43.21875 8.296875 
Q 40.140625 3.328125 35.546875 0.953125 
Q 30.953125 -1.421875 24.3125 -1.421875 
Q 15.921875 -1.421875 10.953125 3.296875 
Q 6 8.015625 6 15.921875 
Q 6 25.140625 12.171875 29.828125 
Q 18.359375 34.515625 30.609375 34.515625 
L 43.21875 34.515625 
L 43.21875 35.40625 
Q 43.21875 41.609375 39.140625 45 
Q 35.0625 48.390625 27.6875 48.390625 
Q 23 48.390625 18.546875 47.265625 
Q 14.109375 46.140625 10.015625 43.890625 
L 10.015625 52.203125 
Q 14.9375 54.109375 19.578125 55.046875 
Q 24.21875 56 28.609375 56 
Q 40.484375 56 46.34375 49.84375 
Q 52.203125 43.703125 52.203125 31.203125 
z
" id="DejaVuSans-97"/>
      <path d="M 44.28125 53.078125 
L 44.28125 44.578125 
Q 40.484375 46.53125 36.375 47.5 
Q 32.28125 48.484375 27.875 48.484375 
Q 21.1875 48.484375 17.84375 46.4375 
Q 14.5 44.390625 14.5 40.28125 
Q 14.5 37.15625 16.890625 35.375 
Q 19.28125 33.59375 26.515625 31.984375 
L 29.59375 31.296875 
Q 39.15625 29.25 43.1875 25.515625 
Q 47.21875 21.78125 47.21875 15.09375 
Q 47.21875 7.46875 41.1875 3.015625 
Q 35.15625 -1.421875 24.609375 -1.421875 
Q 20.21875 -1.421875 15.453125 -0.5625 
Q 10.6875 0.296875 5.421875 2 
L 5.421875 11.28125 
Q 10.40625 8.6875 15.234375 7.390625 
Q 20.0625 6.109375 24.8125 6.109375 
Q 31.15625 6.109375 34.5625 8.28125 
Q 37.984375 10.453125 37.984375 14.40625 
Q 37.984375 18.0625 35.515625 20.015625 
Q 33.0625 21.96875 24.703125 23.78125 
L 21.578125 24.515625 
Q 13.234375 26.265625 9.515625 29.90625 
Q 5.8125 33.546875 5.8125 39.890625 
Q 5.8125 47.609375 11.28125 51.796875 
Q 16.75 56 26.8125 56 
Q 31.78125 56 36.171875 55.265625 
Q 40.578125 54.546875 44.28125 53.078125 
z
" id="DejaVuSans-115"/>
      <path d="M 25.390625 72.90625 
L 33.6875 72.90625 
L 8.296875 -9.28125 
L 0 -9.28125 
z
" id="DejaVuSans-47"/>
      <path d="M 45.40625 46.390625 
L 45.40625 75.984375 
L 54.390625 75.984375 
L 54.390625 0 
L 45.40625 0 
L 45.40625 8.203125 
Q 42.578125 3.328125 38.25 0.953125 
Q 33.9375 -1.421875 27.875 -1.421875 
Q 17.96875 -1.421875 11.734375 6.484375 
Q 5.515625 14.40625 5.515625 27.296875 
Q 5.515625 40.1875 11.734375 48.09375 
Q 17.96875 56 27.875 56 
Q 33.9375 56 38.25 53.625 
Q 42.578125 51.265625 45.40625 46.390625 
z
M 14.796875 27.296875 
Q 14.796875 17.390625 18.875 11.75 
Q 22.953125 6.109375 30.078125 6.109375 
Q 37.203125 6.109375 41.296875 11.75 
Q 45.40625 17.390625 45.40625 27.296875 
Q 45.40625 37.203125 41.296875 42.84375 
Q 37.203125 48.484375 30.078125 48.484375 
Q 22.953125 48.484375 18.875 42.84375 
Q 14.796875 37.203125 14.796875 27.296875 
z
" id="DejaVuSans-100"/>
      <path d="M 9.421875 54.6875 
L 18.40625 54.6875 
L 18.40625 0 
L 9.421875 0 
z
M 9.421875 75.984375 
L 18.40625 75.984375 
L 18.40625 64.59375 
L 9.421875 64.59375 
z
" id="DejaVuSans-105"/>
      <path d="M 52 44.1875 
Q 55.375 50.25 60.0625 53.125 
Q 64.75 56 71.09375 56 
Q 79.640625 56 84.28125 50.015625 
Q 88.921875 44.046875 88.921875 33.015625 
L 88.921875 0 
L 79.890625 0 
L 79.890625 32.71875 
Q 79.890625 40.578125 77.09375 44.375 
Q 74.3125 48.1875 68.609375 48.1875 
Q 61.625 48.1875 57.5625 43.546875 
Q 53.515625 38.921875 53.515625 30.90625 
L 53.515625 0 
L 44.484375 0 
L 44.484375 32.71875 
Q 44.484375 40.625 41.703125 44.40625 
Q 38.921875 48.1875 33.109375 48.1875 
Q 26.21875 48.1875 22.15625 43.53125 
Q 18.109375 38.875 18.109375 30.90625 
L 18.109375 0 
L 9.078125 0 
L 9.078125 54.6875 
L 18.109375 54.6875 
L 18.109375 46.1875 
Q 21.1875 51.21875 25.484375 53.609375 
Q 29.78125 56 35.6875 56 
Q 41.65625 56 45.828125 52.96875 
Q 50 49.953125 52 44.1875 
z
" id="DejaVuSans-109"/>
      <path d="M 54.890625 33.015625 
L 54.890625 0 
L 45.90625 0 
L 45.90625 32.71875 
Q 45.90625 40.484375 42.875 44.328125 
Q 39.84375 48.1875 33.796875 48.1875 
Q 26.515625 48.1875 22.3125 43.546875 
Q 18.109375 38.921875 18.109375 30.90625 
L 18.109375 0 
L 9.078125 0 
L 9.078125 54.6875 
L 18.109375 54.6875 
L 18.109375 46.1875 
Q 21.34375 51.125 25.703125 53.5625 
Q 30.078125 56 35.796875 56 
Q 45.21875 56 50.046875 50.171875 
Q 54.890625 44.34375 54.890625 33.015625 
z
" id="DejaVuSans-110"/>
      <path d="M 8.015625 75.875 
L 15.828125 75.875 
Q 23.140625 64.359375 26.78125 53.3125 
Q 30.421875 42.28125 30.421875 31.390625 
Q 30.421875 20.453125 26.78125 9.375 
Q 23.140625 -1.703125 15.828125 -13.1875 
L 8.015625 -13.1875 
Q 14.5 -2 17.703125 9.0625 
Q 20.90625 20.125 20.90625 31.390625 
Q 20.90625 42.671875 17.703125 53.65625 
Q 14.5 64.65625 8.015625 75.875 
z
" id="DejaVuSans-41"/>
     </defs>
     <g transform="translate(77.303219 342.217594)scale(0.17 -0.17)">
      <use xlink:href="#DejaVuSans-108"/>
      <use x="27.783203" xlink:href="#DejaVuSans-111"/>
      <use x="88.964844" xlink:href="#DejaVuSans-103"/>
      <use x="152.441406" xlink:href="#DejaVuSans-49"/>
      <use x="216.064453" xlink:href="#DejaVuSans-48"/>
      <use x="279.6875" xlink:href="#DejaVuSans-40"/>
      <use x="318.701172" xlink:href="#DejaVuSans-35"/>
      <use x="402.490234" xlink:href="#DejaVuSans-32"/>
      <use x="434.277344" xlink:href="#DejaVuSans-102"/>
      <use x="469.404297" xlink:href="#DejaVuSans-45"/>
      <use x="505.488281" xlink:href="#DejaVuSans-101"/>
      <use x="567.011719" xlink:href="#DejaVuSans-118"/>
      <use x="626.191406" xlink:href="#DejaVuSans-97"/>
      <use x="687.470703" xlink:href="#DejaVuSans-108"/>
      <use x="715.253906" xlink:href="#DejaVuSans-115"/>
      <use x="767.353516" xlink:href="#DejaVuSans-32"/>
      <use x="799.140625" xlink:href="#DejaVuSans-47"/>
      <use x="832.832031" xlink:href="#DejaVuSans-32"/>
      <use x="864.619141" xlink:href="#DejaVuSans-100"/>
      <use x="928.095703" xlink:href="#DejaVuSans-105"/>
      <use x="955.878906" xlink:href="#DejaVuSans-109"/>
      <use x="1053.291016" xlink:href="#DejaVuSans-101"/>
      <use x="1114.814453" xlink:href="#DejaVuSans-110"/>
      <use x="1178.193359" xlink:href="#DejaVuSans-115"/>
      <use x="1230.292969" xlink:href="#DejaVuSans-105"/>
      <use x="1258.076172" xlink:href="#DejaVuSans-111"/>
      <use x="1319.257812" xlink:href="#DejaVuSans-110"/>
      <use x="1382.636719" xlink:href="#DejaVuSans-41"/>
     </g>
    </g>
   </g>
   <g id="matplotlib.axis_2">
    <g id="ytick_1">
     <g id="line2d_21">
      <path clip-path="url(#p376680ab24)" d="M 57.6 298.944 
L 338.688 298.944 
" style="fill:none;stroke:#b0b0b0;stroke-linecap:square;stroke-width:0.8;"/>
     </g>
     <g id="line2d_22">
      <defs>
       <path d="M 0 0 
L -3.5 0 
" id="m6d329c040e" style="stroke:#000000;stroke-width:0.8;"/>
      </defs>
      <g>
       <use style="stroke:#000000;stroke-width:0.8;" x="57.6" xlink:href="#m6d329c040e" y="298.944"/>
      </g>
     </g>
     <g id="text_6">
      <!-- 0.0 -->
      <defs>
       <path d="M 10.6875 12.40625 
L 21 12.40625 
L 21 0 
L 10.6875 0 
z
" id="DejaVuSans-46"/>
      </defs>
      <g transform="translate(25.155 305.02275)scale(0.16 -0.16)">
       <use xlink:href="#DejaVuSans-48"/>
       <use x="63.623047" xlink:href="#DejaVuSans-46"/>
       <use x="95.410156" xlink:href="#DejaVuSans-48"/>
      </g>
     </g>
    </g>
    <g id="ytick_2">
     <g id="line2d_23">
      <path clip-path="url(#p376680ab24)" d="M 57.6 245.22202 
L 338.688 245.22202 
" style="fill:none;stroke:#b0b0b0;stroke-linecap:square;stroke-width:0.8;"/>
     </g>
     <g id="line2d_24">
      <g>
       <use style="stroke:#000000;stroke-width:0.8;" x="57.6" xlink:href="#m6d329c040e" y="245.22202"/>
      </g>
     </g>
     <g id="text_7">
      <!-- 0.2 -->
      <g transform="translate(25.155 251.30077)scale(0.16 -0.16)">
       <use xlink:href="#DejaVuSans-48"/>
       <use x="63.623047" xlink:href="#DejaVuSans-46"/>
       <use x="95.410156" xlink:href="#DejaVuSans-50"/>
      </g>
     </g>
    </g>
    <g id="ytick_3">
     <g id="line2d_25">
      <path clip-path="url(#p376680ab24)" d="M 57.6 191.50004 
L 338.688 191.50004 
" style="fill:none;stroke:#b0b0b0;stroke-linecap:square;stroke-width:0.8;"/>
     </g>
     <g id="line2d_26">
      <g>
       <use style="stroke:#000000;stroke-width:0.8;" x="57.6" xlink:href="#m6d329c040e" y="191.50004"/>
      </g>
     </g>
     <g id="text_8">
      <!-- 0.4 -->
      <g transform="translate(25.155 197.57879)scale(0.16 -0.16)">
       <use xlink:href="#DejaVuSans-48"/>
       <use x="63.623047" xlink:href="#DejaVuSans-46"/>
       <use x="95.410156" xlink:href="#DejaVuSans-52"/>
      </g>
     </g>
    </g>
    <g id="ytick_4">
     <g id="line2d_27">
      <path clip-path="url(#p376680ab24)" d="M 57.6 137.778059 
L 338.688 137.778059 
" style="fill:none;stroke:#b0b0b0;stroke-linecap:square;stroke-width:0.8;"/>
     </g>
     <g id="line2d_28">
      <g>
       <use style="stroke:#000000;stroke-width:0.8;" x="57.6" xlink:href="#m6d329c040e" y="137.778059"/>
      </g>
     </g>
     <g id="text_9">
      <!-- 0.6 -->
      <g transform="translate(25.155 143.856809)scale(0.16 -0.16)">
       <use xlink:href="#DejaVuSans-48"/>
       <use x="63.623047" xlink:href="#DejaVuSans-46"/>
       <use x="95.410156" xlink:href="#DejaVuSans-54"/>
      </g>
     </g>
    </g>
    <g id="ytick_5">
     <g id="line2d_29">
      <path clip-path="url(#p376680ab24)" d="M 57.6 84.056079 
L 338.688 84.056079 
" style="fill:none;stroke:#b0b0b0;stroke-linecap:square;stroke-width:0.8;"/>
     </g>
     <g id="line2d_30">
      <g>
       <use style="stroke:#000000;stroke-width:0.8;" x="57.6" xlink:href="#m6d329c040e" y="84.056079"/>
      </g>
     </g>
     <g id="text_10">
      <!-- 0.8 -->
      <defs>
       <path d="M 31.78125 34.625 
Q 24.75 34.625 20.71875 30.859375 
Q 16.703125 27.09375 16.703125 20.515625 
Q 16.703125 13.921875 20.71875 10.15625 
Q 24.75 6.390625 31.78125 6.390625 
Q 38.8125 6.390625 42.859375 10.171875 
Q 46.921875 13.96875 46.921875 20.515625 
Q 46.921875 27.09375 42.890625 30.859375 
Q 38.875 34.625 31.78125 34.625 
z
M 21.921875 38.8125 
Q 15.578125 40.375 12.03125 44.71875 
Q 8.5 49.078125 8.5 55.328125 
Q 8.5 64.0625 14.71875 69.140625 
Q 20.953125 74.21875 31.78125 74.21875 
Q 42.671875 74.21875 48.875 69.140625 
Q 55.078125 64.0625 55.078125 55.328125 
Q 55.078125 49.078125 51.53125 44.71875 
Q 48 40.375 41.703125 38.8125 
Q 48.828125 37.15625 52.796875 32.3125 
Q 56.78125 27.484375 56.78125 20.515625 
Q 56.78125 9.90625 50.3125 4.234375 
Q 43.84375 -1.421875 31.78125 -1.421875 
Q 19.734375 -1.421875 13.25 4.234375 
Q 6.78125 9.90625 6.78125 20.515625 
Q 6.78125 27.484375 10.78125 32.3125 
Q 14.796875 37.15625 21.921875 38.8125 
z
M 18.3125 54.390625 
Q 18.3125 48.734375 21.84375 45.5625 
Q 25.390625 42.390625 31.78125 42.390625 
Q 38.140625 42.390625 41.71875 45.5625 
Q 45.3125 48.734375 45.3125 54.390625 
Q 45.3125 60.0625 41.71875 63.234375 
Q 38.140625 66.40625 31.78125 66.40625 
Q 25.390625 66.40625 21.84375 63.234375 
Q 18.3125 60.0625 18.3125 54.390625 
z
" id="DejaVuSans-56"/>
      </defs>
      <g transform="translate(25.155 90.134829)scale(0.16 -0.16)">
       <use xlink:href="#DejaVuSans-48"/>
       <use x="63.623047" xlink:href="#DejaVuSans-46"/>
       <use x="95.410156" xlink:href="#DejaVuSans-56"/>
      </g>
     </g>
    </g>
    <g id="ytick_6">
     <g id="line2d_31">
      <path clip-path="url(#p376680ab24)" d="M 57.6 30.334099 
L 338.688 30.334099 
" style="fill:none;stroke:#b0b0b0;stroke-linecap:square;stroke-width:0.8;"/>
     </g>
     <g id="line2d_32">
      <g>
       <use style="stroke:#000000;stroke-width:0.8;" x="57.6" xlink:href="#m6d329c040e" y="30.334099"/>
      </g>
     </g>
     <g id="text_11">
      <!-- 1.0 -->
      <g transform="translate(25.155 36.412849)scale(0.16 -0.16)">
       <use xlink:href="#DejaVuSans-49"/>
       <use x="63.623047" xlink:href="#DejaVuSans-46"/>
       <use x="95.410156" xlink:href="#DejaVuSans-48"/>
      </g>
     </g>
    </g>
    <g id="text_12">
     <!-- Fraction of function,target pairs -->
     <defs>
      <path d="M 9.8125 72.90625 
L 51.703125 72.90625 
L 51.703125 64.59375 
L 19.671875 64.59375 
L 19.671875 43.109375 
L 48.578125 43.109375 
L 48.578125 34.8125 
L 19.671875 34.8125 
L 19.671875 0 
L 9.8125 0 
z
" id="DejaVuSans-70"/>
      <path d="M 41.109375 46.296875 
Q 39.59375 47.171875 37.8125 47.578125 
Q 36.03125 48 33.890625 48 
Q 26.265625 48 22.1875 43.046875 
Q 18.109375 38.09375 18.109375 28.8125 
L 18.109375 0 
L 9.078125 0 
L 9.078125 54.6875 
L 18.109375 54.6875 
L 18.109375 46.1875 
Q 20.953125 51.171875 25.484375 53.578125 
Q 30.03125 56 36.53125 56 
Q 37.453125 56 38.578125 55.875 
Q 39.703125 55.765625 41.0625 55.515625 
z
" id="DejaVuSans-114"/>
      <path d="M 48.78125 52.59375 
L 48.78125 44.1875 
Q 44.96875 46.296875 41.140625 47.34375 
Q 37.3125 48.390625 33.40625 48.390625 
Q 24.65625 48.390625 19.8125 42.84375 
Q 14.984375 37.3125 14.984375 27.296875 
Q 14.984375 17.28125 19.8125 11.734375 
Q 24.65625 6.203125 33.40625 6.203125 
Q 37.3125 6.203125 41.140625 7.25 
Q 44.96875 8.296875 48.78125 10.40625 
L 48.78125 2.09375 
Q 45.015625 0.34375 40.984375 -0.53125 
Q 36.96875 -1.421875 32.421875 -1.421875 
Q 20.0625 -1.421875 12.78125 6.34375 
Q 5.515625 14.109375 5.515625 27.296875 
Q 5.515625 40.671875 12.859375 48.328125 
Q 20.21875 56 33.015625 56 
Q 37.15625 56 41.109375 55.140625 
Q 45.0625 54.296875 48.78125 52.59375 
z
" id="DejaVuSans-99"/>
      <path d="M 18.3125 70.21875 
L 18.3125 54.6875 
L 36.8125 54.6875 
L 36.8125 47.703125 
L 18.3125 47.703125 
L 18.3125 18.015625 
Q 18.3125 11.328125 20.140625 9.421875 
Q 21.96875 7.515625 27.59375 7.515625 
L 36.8125 7.515625 
L 36.8125 0 
L 27.59375 0 
Q 17.1875 0 13.234375 3.875 
Q 9.28125 7.765625 9.28125 18.015625 
L 9.28125 47.703125 
L 2.6875 47.703125 
L 2.6875 54.6875 
L 9.28125 54.6875 
L 9.28125 70.21875 
z
" id="DejaVuSans-116"/>
      <path d="M 8.5 21.578125 
L 8.5 54.6875 
L 17.484375 54.6875 
L 17.484375 21.921875 
Q 17.484375 14.15625 20.5 10.265625 
Q 23.53125 6.390625 29.59375 6.390625 
Q 36.859375 6.390625 41.078125 11.03125 
Q 45.3125 15.671875 45.3125 23.6875 
L 45.3125 54.6875 
L 54.296875 54.6875 
L 54.296875 0 
L 45.3125 0 
L 45.3125 8.40625 
Q 42.046875 3.421875 37.71875 1 
Q 33.40625 -1.421875 27.6875 -1.421875 
Q 18.265625 -1.421875 13.375 4.4375 
Q 8.5 10.296875 8.5 21.578125 
z
M 31.109375 56 
z
" id="DejaVuSans-117"/>
      <path d="M 11.71875 12.40625 
L 22.015625 12.40625 
L 22.015625 4 
L 14.015625 -11.625 
L 7.71875 -11.625 
L 11.71875 4 
z
" id="DejaVuSans-44"/>
      <path d="M 18.109375 8.203125 
L 18.109375 -20.796875 
L 9.078125 -20.796875 
L 9.078125 54.6875 
L 18.109375 54.6875 
L 18.109375 46.390625 
Q 20.953125 51.265625 25.265625 53.625 
Q 29.59375 56 35.59375 56 
Q 45.5625 56 51.78125 48.09375 
Q 58.015625 40.1875 58.015625 27.296875 
Q 58.015625 14.40625 51.78125 6.484375 
Q 45.5625 -1.421875 35.59375 -1.421875 
Q 29.59375 -1.421875 25.265625 0.953125 
Q 20.953125 3.328125 18.109375 8.203125 
z
M 48.6875 27.296875 
Q 48.6875 37.203125 44.609375 42.84375 
Q 40.53125 48.484375 33.40625 48.484375 
Q 26.265625 48.484375 22.1875 42.84375 
Q 18.109375 37.203125 18.109375 27.296875 
Q 18.109375 17.390625 22.1875 11.75 
Q 26.265625 6.109375 33.40625 6.109375 
Q 40.53125 6.109375 44.609375 11.75 
Q 48.6875 17.390625 48.6875 27.296875 
z
" id="DejaVuSans-112"/>
     </defs>
     <g transform="translate(17.619531 298.435375)rotate(-90)scale(0.17 -0.17)">
      <use xlink:href="#DejaVuSans-70"/>
      <use x="57.410156" xlink:href="#DejaVuSans-114"/>
      <use x="98.523438" xlink:href="#DejaVuSans-97"/>
      <use x="159.802734" xlink:href="#DejaVuSans-99"/>
      <use x="214.783203" xlink:href="#DejaVuSans-116"/>
      <use x="253.992188" xlink:href="#DejaVuSans-105"/>
      <use x="281.775391" xlink:href="#DejaVuSans-111"/>
      <use x="342.957031" xlink:href="#DejaVuSans-110"/>
      <use x="406.335938" xlink:href="#DejaVuSans-32"/>
      <use x="438.123047" xlink:href="#DejaVuSans-111"/>
      <use x="499.304688" xlink:href="#DejaVuSans-102"/>
      <use x="534.509766" xlink:href="#DejaVuSans-32"/>
      <use x="566.296875" xlink:href="#DejaVuSans-102"/>
      <use x="601.501953" xlink:href="#DejaVuSans-117"/>
      <use x="664.880859" xlink:href="#DejaVuSans-110"/>
      <use x="728.259766" xlink:href="#DejaVuSans-99"/>
      <use x="783.240234" xlink:href="#DejaVuSans-116"/>
      <use x="822.449219" xlink:href="#DejaVuSans-105"/>
      <use x="850.232422" xlink:href="#DejaVuSans-111"/>
      <use x="911.414062" xlink:href="#DejaVuSans-110"/>
      <use x="974.792969" xlink:href="#DejaVuSans-44"/>
      <use x="1006.580078" xlink:href="#DejaVuSans-116"/>
      <use x="1045.789062" xlink:href="#DejaVuSans-97"/>
      <use x="1107.068359" xlink:href="#DejaVuSans-114"/>
      <use x="1148.166016" xlink:href="#DejaVuSans-103"/>
      <use x="1211.642578" xlink:href="#DejaVuSans-101"/>
      <use x="1273.166016" xlink:href="#DejaVuSans-116"/>
      <use x="1312.375" xlink:href="#DejaVuSans-32"/>
      <use x="1344.162109" xlink:href="#DejaVuSans-112"/>
      <use x="1407.638672" xlink:href="#DejaVuSans-97"/>
      <use x="1468.917969" xlink:href="#DejaVuSans-105"/>
      <use x="1496.701172" xlink:href="#DejaVuSans-114"/>
      <use x="1537.814453" xlink:href="#DejaVuSans-115"/>
     </g>
    </g>
   </g>
   <g id="line2d_33">
    <defs>
     <path d="M 0 1.5 
C 0.397805 1.5 0.77937 1.341951 1.06066 1.06066 
C 1.341951 0.77937 1.5 0.397805 1.5 0 
C 1.5 -0.397805 1.341951 -0.77937 1.06066 -1.06066 
C 0.77937 -1.341951 0.397805 -1.5 0 -1.5 
C -0.397805 -1.5 -0.77937 -1.341951 -1.06066 -1.06066 
C -1.341951 -0.77937 -1.5 -0.397805 -1.5 0 
C -1.5 0.397805 -1.341951 0.77937 -1.06066 1.06066 
C -0.77937 1.341951 -0.397805 1.5 0 1.5 
z
" id="m2eb7b7369d" style="stroke:#f5deb3;"/>
    </defs>
    <g>
     <use style="fill:#f5deb3;stroke:#f5deb3;" x="149.030744" xlink:href="#m2eb7b7369d" y="30.334099"/>
     <use style="fill:#f5deb3;stroke:#f5deb3;" x="149.030744" xlink:href="#m2eb7b7369d" y="30.334099"/>
    </g>
   </g>
   <g id="line2d_34">
    <defs>
     <path d="M 0 1.5 
C 0.397805 1.5 0.77937 1.341951 1.06066 1.06066 
C 1.341951 0.77937 1.5 0.397805 1.5 0 
C 1.5 -0.397805 1.341951 -0.77937 1.06066 -1.06066 
C 0.77937 -1.341951 0.397805 -1.5 0 -1.5 
C -0.397805 -1.5 -0.77937 -1.341951 -1.06066 -1.06066 
C -1.341951 -0.77937 -1.5 -0.397805 -1.5 0 
C -1.5 0.397805 -1.341951 0.77937 -1.06066 1.06066 
C -0.77937 1.341951 -0.397805 1.5 0 1.5 
z
" id="m7d7a6d5225" style="stroke:#000080;"/>
    </defs>
    <g>
     <use style="fill:#000080;stroke:#000080;" x="177.57371" xlink:href="#m7d7a6d5225" y="30.334099"/>
     <use style="fill:#000080;stroke:#000080;" x="177.57371" xlink:href="#m7d7a6d5225" y="30.334099"/>
    </g>
   </g>
   <g id="line2d_35">
    <path d="M 111.702614 298.944 
L 111.702614 298.417314 
L 113.594805 298.417314 
L 113.594805 297.890628 
L 114.485807 297.890628 
L 114.485807 297.363942 
L 115.835374 297.363942 
L 115.835374 296.837256 
L 115.989297 296.837256 
L 115.989297 296.31057 
L 116.35326 296.31057 
L 116.35326 295.783884 
L 116.943478 295.783884 
L 116.943478 295.257197 
L 117.373392 295.257197 
L 117.373392 294.730511 
L 117.542433 294.730511 
L 117.570448 293.677139 
L 117.654224 293.677139 
L 117.737599 292.623767 
L 117.903163 292.623767 
L 118.012672 291.570395 
L 118.310324 291.570395 
L 118.310324 291.043709 
L 118.523652 291.043709 
L 118.523652 290.517023 
L 118.942633 290.517023 
L 118.942633 289.990337 
L 119.301163 289.990337 
L 119.301163 289.463651 
L 119.477701 289.463651 
L 119.477701 288.936964 
L 119.62761 288.936964 
L 119.62761 288.410278 
L 120.286695 288.410278 
L 120.286695 287.883592 
L 120.571812 287.883592 
L 120.571812 287.356906 
L 120.736003 287.356906 
L 120.829137 286.303534 
L 121.667835 286.303534 
L 121.667835 285.776848 
L 121.865885 285.776848 
L 121.953191 284.723476 
L 122.844443 284.723476 
L 122.844443 284.19679 
L 123.313873 284.19679 
L 123.313873 283.670104 
L 123.790603 283.670104 
L 123.790603 283.143418 
L 124.387699 283.143418 
L 124.387699 282.616732 
L 124.613453 282.616732 
L 124.632135 281.563359 
L 125.717918 281.563359 
L 125.717918 281.036673 
L 126.490073 281.036673 
L 126.490073 280.509987 
L 127.516689 280.509987 
L 127.516689 279.983301 
L 128.590686 279.983301 
L 128.590686 279.456615 
L 129.031467 279.456615 
L 129.031467 278.929929 
L 131.565689 278.929929 
L 131.565689 278.403243 
L 134.04118 278.403243 
L 134.04118 277.876557 
L 140.295048 277.876557 
L 140.295048 277.349871 
L 142.472881 277.349871 
L 142.472881 276.823185 
L 142.732726 276.823185 
L 142.732726 276.296499 
L 145.02832 276.296499 
L 145.0862 275.243126 
L 145.954117 275.243126 
L 145.954117 274.71644 
L 146.377764 274.71644 
L 146.377764 274.189754 
L 147.645223 274.189754 
L 147.71494 273.136382 
L 149.081366 273.136382 
L 149.081366 272.609696 
L 153.601933 272.609696 
L 153.612568 271.556324 
L 156.382164 271.556324 
L 156.382164 271.029638 
L 157.226117 271.029638 
L 157.226117 270.502952 
L 157.4579 270.502952 
L 157.4579 269.976266 
L 158.811096 269.976266 
L 158.811096 269.449579 
L 159.134248 269.449579 
L 159.134248 268.922893 
L 159.850079 268.922893 
L 159.850079 268.396207 
L 160.444519 268.396207 
L 160.444519 267.869521 
L 160.811875 267.869521 
L 160.811875 267.342835 
L 160.947372 267.342835 
L 160.947372 266.816149 
L 161.984076 266.816149 
L 161.984076 266.289463 
L 162.993664 266.289463 
L 162.993664 265.762777 
L 163.15639 265.762777 
L 163.15639 265.236091 
L 164.135072 265.236091 
L 164.22208 264.182719 
L 164.611161 264.182719 
L 164.611161 263.656033 
L 165.231842 263.656033 
L 165.338904 262.60266 
L 165.376853 262.60266 
L 165.376853 262.075974 
L 165.822393 262.075974 
L 165.925901 261.022602 
L 166.292838 261.022602 
L 166.292838 260.495916 
L 166.420824 260.495916 
L 166.420824 259.96923 
L 166.539436 259.96923 
L 166.539436 259.442544 
L 166.817533 259.442544 
L 166.923577 258.389172 
L 166.981298 258.389172 
L 166.981298 257.862486 
L 167.161475 257.862486 
L 167.161475 257.3358 
L 167.343034 257.3358 
L 167.425087 255.755741 
L 167.773105 255.755741 
L 167.82338 254.702369 
L 167.959339 254.702369 
L 167.959339 254.175683 
L 168.075699 254.175683 
L 168.166694 253.122311 
L 168.212781 253.122311 
L 168.212781 252.595625 
L 168.470152 252.595625 
L 168.578658 251.542253 
L 168.593675 251.542253 
L 168.70291 249.435508 
L 168.756528 249.435508 
L 168.756528 248.908822 
L 168.897234 248.908822 
L 169.006055 247.85545 
L 169.030959 247.85545 
L 169.030959 247.328764 
L 169.192698 247.328764 
L 169.263622 245.748706 
L 169.357261 245.748706 
L 169.40461 243.115275 
L 169.487518 243.115275 
L 169.51744 242.061903 
L 169.683212 242.061903 
L 169.688852 241.008531 
L 169.864179 241.008531 
L 169.907389 239.428473 
L 169.989332 239.428473 
L 169.997643 238.375101 
L 170.108089 238.375101 
L 170.184987 236.795043 
L 170.287446 236.795043 
L 170.351349 234.688298 
L 170.456886 234.688298 
L 170.487885 232.581554 
L 170.60063 232.581554 
L 170.663398 231.528182 
L 170.735235 231.528182 
L 170.834522 229.948123 
L 170.910918 229.948123 
L 171.002676 227.314693 
L 171.041854 227.314693 
L 171.13682 225.734635 
L 171.210614 225.734635 
L 171.287956 223.627891 
L 171.349583 223.627891 
L 171.425036 222.047832 
L 171.464551 222.047832 
L 171.567378 218.36103 
L 171.585089 218.36103 
L 171.693494 216.780971 
L 171.736167 216.780971 
L 171.84364 213.094169 
L 171.861073 213.094169 
L 171.964069 209.934052 
L 171.976438 209.934052 
L 172.07261 206.773936 
L 172.093501 206.773936 
L 172.19758 203.613819 
L 172.219541 203.613819 
L 172.285257 200.980389 
L 172.334989 200.980389 
L 172.431619 197.820273 
L 172.448474 197.820273 
L 172.557639 192.026726 
L 172.570788 192.026726 
L 172.679192 187.286551 
L 172.687503 187.286551 
L 172.778663 184.126434 
L 172.799904 184.126434 
L 172.90807 178.332888 
L 172.912758 178.332888 
L 173.009743 173.592713 
L 173.026049 173.592713 
L 173.124724 167.27248 
L 173.149017 167.27248 
L 173.238952 163.058991 
L 173.264235 163.058991 
L 173.355864 158.845503 
L 173.38668 158.845503 
L 173.492411 151.998584 
L 173.498077 151.998584 
L 173.589616 146.731723 
L 173.638017 146.731723 
L 173.745591 140.938176 
L 173.751176 140.938176 
L 173.853616 134.617943 
L 173.876915 134.617943 
L 173.979723 129.877768 
L 173.992945 129.877768 
L 174.099453 123.557535 
L 174.130077 123.557535 
L 174.224889 117.237302 
L 174.248782 117.237302 
L 174.325672 111.443755 
L 174.364529 111.443755 
L 174.467727 103.543464 
L 174.481655 103.543464 
L 174.585228 94.589801 
L 174.6182 94.589801 
L 174.714629 89.32294 
L 174.729417 89.32294 
L 174.802118 82.476021 
L 174.844125 82.476021 
L 174.946617 78.262532 
L 174.96746 78.262532 
L 175.076479 75.102416 
L 175.080618 75.102416 
L 175.189962 69.308869 
L 175.196131 69.308869 
L 175.304755 64.568694 
L 175.321093 64.568694 
L 175.431987 59.82852 
L 175.466434 59.82852 
L 175.575404 56.668403 
L 175.58747 56.668403 
L 175.689695 52.9816 
L 175.714659 52.9816 
L 175.817135 49.294798 
L 175.829035 49.294798 
L 175.921971 44.554623 
L 175.941681 44.554623 
L 176.0252 43.501251 
L 176.07121 43.501251 
L 176.152167 41.921193 
L 176.191048 41.921193 
L 176.273384 38.761076 
L 176.317781 38.761076 
L 176.398563 37.181018 
L 176.478973 37.181018 
L 176.577067 36.127646 
L 176.627328 36.127646 
L 176.655714 35.074274 
L 176.930546 35.074274 
L 177.02614 33.494215 
L 177.141452 33.494215 
L 177.141452 32.967529 
L 177.301619 32.967529 
L 177.388861 31.387471 
L 177.512611 31.387471 
L 177.57371 30.334099 
L 338.688 30.334099 
L 338.688 30.334099 
" style="fill:none;stroke:#000080;stroke-linecap:square;stroke-width:1.5;"/>
   </g>
   <g id="line2d_36">
    <defs>
     <path d="M 0 6 
C 1.591219 6 3.117479 5.367802 4.242641 4.242641 
C 5.367802 3.117479 6 1.591219 6 0 
C 6 -1.591219 5.367802 -3.117479 4.242641 -4.242641 
C 3.117479 -5.367802 1.591219 -6 0 -6 
C -1.591219 -6 -3.117479 -5.367802 -4.242641 -4.242641 
C -5.367802 -3.117479 -6 -1.591219 -6 0 
C -6 1.591219 -5.367802 3.117479 -4.242641 4.242641 
C -3.117479 5.367802 -1.591219 6 0 6 
z
" id="mec680c12a7" style="stroke:#000080;stroke-width:1.5;"/>
    </defs>
    <g>
     <use style="fill-opacity:0;stroke:#000080;stroke-width:1.5;" x="173.282599" xlink:href="#mec680c12a7" y="161.478933"/>
     <use style="fill-opacity:0;stroke:#000080;stroke-width:1.5;" x="177.57371" xlink:href="#mec680c12a7" y="30.860785"/>
     <use style="fill-opacity:0;stroke:#000080;stroke-width:1.5;" x="177.57371" xlink:href="#mec680c12a7" y="30.334099"/>
     <use style="fill-opacity:0;stroke:#000080;stroke-width:1.5;" x="177.57371" xlink:href="#mec680c12a7" y="30.334099"/>
     <use style="fill-opacity:0;stroke:#000080;stroke-width:1.5;" x="338.688" xlink:href="#mec680c12a7" y="30.334099"/>
    </g>
   </g>
   <g id="line2d_37">
    <path style="fill:none;stroke:#000080;stroke-linecap:square;stroke-width:1.5;"/>
    <g/>
   </g>
   <g id="line2d_38">
    <g>
     <use style="fill:#000080;stroke:#000080;" x="190.291503" xlink:href="#m7d7a6d5225" y="30.334099"/>
     <use style="fill:#000080;stroke:#000080;" x="190.291503" xlink:href="#m7d7a6d5225" y="30.334099"/>
    </g>
   </g>
   <g id="line2d_39">
    <path d="M 113.382559 298.944 
L 113.382559 298.417314 
L 114.552496 298.417314 
L 114.552496 297.890628 
L 115.205729 297.890628 
L 115.205729 297.363942 
L 115.835374 297.363942 
L 115.897107 296.31057 
L 116.081002 296.31057 
L 116.081002 295.783884 
L 116.232781 295.783884 
L 116.232781 295.257197 
L 116.680349 295.257197 
L 116.709783 294.203825 
L 117.116718 294.203825 
L 117.116718 293.150453 
L 117.259781 293.150453 
L 117.259781 292.623767 
L 117.68206 292.623767 
L 117.68206 292.097081 
L 118.012672 292.097081 
L 118.012672 291.570395 
L 119.552816 291.570395 
L 119.552816 291.043709 
L 119.726838 291.043709 
L 119.726838 290.517023 
L 120.166507 290.517023 
L 120.166507 289.990337 
L 120.759333 289.990337 
L 120.759333 289.463651 
L 121.013926 289.463651 
L 121.013926 288.936964 
L 121.264855 288.936964 
L 121.310093 287.883592 
L 121.996681 287.883592 
L 122.061712 286.303534 
L 122.362027 286.303534 
L 122.383281 285.250162 
L 123.090939 285.250162 
L 123.152022 284.19679 
L 123.494177 284.19679 
L 123.494177 283.670104 
L 123.731719 283.670104 
L 123.731719 283.143418 
L 124.082074 283.143418 
L 124.082074 282.616732 
L 124.273716 282.616732 
L 124.273716 282.090045 
L 124.706662 282.090045 
L 124.706662 281.563359 
L 125.110962 281.563359 
L 125.147256 280.509987 
L 126.456471 280.509987 
L 126.456471 279.983301 
L 126.690335 279.983301 
L 126.690335 279.456615 
L 130.531948 279.456615 
L 130.531948 278.929929 
L 132.777237 278.929929 
L 132.777237 278.403243 
L 141.982752 278.403243 
L 142.003452 277.349871 
L 142.195471 277.349871 
L 142.209106 276.296499 
L 142.726112 276.296499 
L 142.726112 275.769812 
L 143.439077 275.769812 
L 143.439077 275.243126 
L 143.697534 275.243126 
L 143.697534 274.71644 
L 143.989178 274.71644 
L 143.989178 274.189754 
L 144.730105 274.189754 
L 144.730105 273.663068 
L 146.178086 273.663068 
L 146.178086 273.136382 
L 152.583425 273.136382 
L 152.583425 272.609696 
L 152.785253 272.609696 
L 152.785253 272.08301 
L 156.607461 272.08301 
L 156.607461 271.556324 
L 156.815145 271.556324 
L 156.815145 271.029638 
L 157.873609 271.029638 
L 157.873609 270.502952 
L 157.995311 270.502952 
L 157.995311 269.976266 
L 158.146254 269.976266 
L 158.146254 269.449579 
L 159.072168 269.449579 
L 159.072168 268.922893 
L 159.768105 268.922893 
L 159.768105 268.396207 
L 162.720437 268.396207 
L 162.812686 267.342835 
L 163.010212 267.342835 
L 163.010212 266.816149 
L 163.148187 266.816149 
L 163.148187 266.289463 
L 163.437051 266.289463 
L 163.45923 265.236091 
L 164.455807 265.236091 
L 164.455807 264.709405 
L 164.697709 264.709405 
L 164.759533 263.656033 
L 165.124118 263.656033 
L 165.204517 262.60266 
L 165.743031 262.60266 
L 165.836464 261.022602 
L 166.067012 261.022602 
L 166.067012 260.495916 
L 166.313379 260.495916 
L 166.313379 259.96923 
L 166.427624 259.96923 
L 166.427624 259.442544 
L 167.114154 259.442544 
L 167.213542 257.3358 
L 167.375258 257.3358 
L 167.460363 256.282427 
L 167.592812 256.282427 
L 167.592812 255.755741 
L 167.78726 255.755741 
L 167.812395 254.702369 
L 167.90477 254.702369 
L 167.90477 254.175683 
L 168.138983 254.175683 
L 168.226583 253.122311 
L 168.328992 253.122311 
L 168.328992 252.595625 
L 168.541059 252.595625 
L 168.54407 251.542253 
L 168.689479 251.542253 
L 168.777335 250.488881 
L 168.863272 250.488881 
L 168.909031 249.435508 
L 169.020709 249.435508 
L 169.099626 248.382136 
L 169.197048 248.382136 
L 169.230367 246.802078 
L 169.458974 246.802078 
L 169.537359 244.168648 
L 169.594146 244.168648 
L 169.704352 242.061903 
L 169.715615 242.061903 
L 169.788654 240.481845 
L 170.029468 240.481845 
L 170.102583 238.901787 
L 170.246535 238.901787 
L 170.329621 237.848415 
L 170.397431 237.848415 
L 170.45014 234.688298 
L 170.512106 234.688298 
L 170.618014 233.634926 
L 170.664731 233.634926 
L 170.743199 232.581554 
L 170.776342 232.581554 
L 170.812066 231.001496 
L 170.947679 231.001496 
L 171.044462 228.894751 
L 171.092653 228.894751 
L 171.152381 227.314693 
L 171.222237 227.314693 
L 171.331631 226.261321 
L 171.343174 226.261321 
L 171.435242 223.101204 
L 171.454362 223.101204 
L 171.538242 221.521146 
L 171.569909 221.521146 
L 171.625505 219.941088 
L 171.685953 219.941088 
L 171.759968 216.254285 
L 171.824942 216.254285 
L 171.929391 212.040797 
L 171.972728 212.040797 
L 172.071381 208.353994 
L 172.097185 208.353994 
L 172.191475 205.193878 
L 172.211004 205.193878 
L 172.29133 201.507075 
L 172.341044 201.507075 
L 172.440049 198.873645 
L 172.464111 198.873645 
L 172.558835 195.186842 
L 172.58751 195.186842 
L 172.683942 190.446667 
L 172.704113 190.446667 
L 172.801084 188.339923 
L 172.834072 188.339923 
L 172.922129 184.126434 
L 172.961902 184.126434 
L 173.069071 179.38626 
L 173.078358 179.38626 
L 173.183662 174.646085 
L 173.202112 174.646085 
L 173.3124 169.90591 
L 173.320415 169.90591 
L 173.419719 165.692422 
L 173.433372 165.692422 
L 173.53769 158.845503 
L 173.548992 158.845503 
L 173.658237 153.051956 
L 173.67507 153.051956 
L 173.769034 145.151665 
L 173.82695 145.151665 
L 173.915677 138.304745 
L 173.942208 138.304745 
L 174.052318 130.93114 
L 174.066582 130.93114 
L 174.173733 124.610907 
L 174.178092 124.610907 
L 174.284562 117.763988 
L 174.314863 117.763988 
L 174.423728 109.863697 
L 174.430173 109.863697 
L 174.532984 103.016778 
L 174.547927 103.016778 
L 174.645805 97.749917 
L 174.699828 97.749917 
L 174.802118 91.95637 
L 174.819983 91.95637 
L 174.881845 87.216196 
L 174.943488 87.216196 
L 175.022574 80.369277 
L 175.058874 80.369277 
L 175.168354 72.995672 
L 175.200242 72.995672 
L 175.288403 70.362241 
L 175.324155 70.362241 
L 175.406615 68.782183 
L 175.437057 68.782183 
L 175.494751 66.675439 
L 175.589481 66.675439 
L 175.589481 66.148752 
L 175.735601 66.148752 
L 175.735601 65.622066 
L 176.046752 65.622066 
L 176.142433 64.568694 
L 176.257915 64.568694 
L 176.338975 62.988636 
L 176.563766 62.988636 
L 176.668945 61.408578 
L 176.82132 61.408578 
L 176.82132 60.881892 
L 177.073279 60.881892 
L 177.135015 59.82852 
L 177.191032 59.82852 
L 177.203863 58.775147 
L 177.426892 58.775147 
L 177.51981 57.721775 
L 185.687746 57.721775 
L 185.687746 57.195089 
L 186.308529 57.195089 
L 186.308529 56.668403 
L 186.644449 56.668403 
L 186.644449 56.141717 
L 187.354905 56.141717 
L 187.354905 55.615031 
L 187.522511 55.615031 
L 187.522511 55.088345 
L 187.65786 55.088345 
L 187.65786 54.561659 
L 187.884776 54.561659 
L 187.892223 53.508287 
L 188.096026 53.508287 
L 188.173857 52.454914 
L 188.257662 52.454914 
L 188.257662 51.928228 
L 188.480794 51.928228 
L 188.547372 50.874856 
L 188.651279 50.874856 
L 188.734246 49.821484 
L 188.772986 49.821484 
L 188.772986 49.294798 
L 188.888225 49.294798 
L 188.94112 47.188054 
L 189.035743 47.188054 
L 189.102555 46.134681 
L 189.23036 46.134681 
L 189.300553 44.554623 
L 189.432374 44.554623 
L 189.490894 41.921193 
L 189.572675 41.921193 
L 189.680076 39.287762 
L 189.713197 39.287762 
L 189.821517 36.127646 
L 189.852596 36.127646 
L 189.923426 34.020902 
L 189.978563 34.020902 
L 190.07562 31.914157 
L 190.186942 31.914157 
L 190.291503 30.334099 
L 338.688 30.334099 
L 338.688 30.334099 
" style="fill:none;stroke:#000080;stroke-linecap:square;stroke-width:1.5;"/>
   </g>
   <g id="line2d_40">
    <g>
     <use style="fill-opacity:0;stroke:#000080;stroke-width:1.5;" x="175.095099" xlink:href="#mec680c12a7" y="75.629102"/>
     <use style="fill-opacity:0;stroke:#000080;stroke-width:1.5;" x="190.291503" xlink:href="#mec680c12a7" y="30.860785"/>
     <use style="fill-opacity:0;stroke:#000080;stroke-width:1.5;" x="190.291503" xlink:href="#mec680c12a7" y="30.334099"/>
     <use style="fill-opacity:0;stroke:#000080;stroke-width:1.5;" x="190.291503" xlink:href="#mec680c12a7" y="30.334099"/>
     <use style="fill-opacity:0;stroke:#000080;stroke-width:1.5;" x="338.688" xlink:href="#mec680c12a7" y="30.334099"/>
    </g>
   </g>
   <g id="line2d_41">
    <path style="fill:none;stroke:#000080;stroke-linecap:square;stroke-width:1.5;"/>
    <g/>
   </g>
   <g id="line2d_42">
    <defs>
     <path d="M 0 1.5 
C 0.397805 1.5 0.77937 1.341951 1.06066 1.06066 
C 1.341951 0.77937 1.5 0.397805 1.5 0 
C 1.5 -0.397805 1.341951 -0.77937 1.06066 -1.06066 
C 0.77937 -1.341951 0.397805 -1.5 0 -1.5 
C -0.397805 -1.5 -0.77937 -1.341951 -1.06066 -1.06066 
C -1.341951 -0.77937 -1.5 -0.397805 -1.5 0 
C -1.5 0.397805 -1.341951 0.77937 -1.06066 1.06066 
C -0.77937 1.341951 -0.397805 1.5 0 1.5 
z
" id="m5ea30ed20f" style="stroke:#ff00ff;"/>
    </defs>
    <g>
     <use style="fill:#ff00ff;stroke:#ff00ff;" x="185.934386" xlink:href="#m5ea30ed20f" y="30.334099"/>
     <use style="fill:#ff00ff;stroke:#ff00ff;" x="185.934386" xlink:href="#m5ea30ed20f" y="30.334099"/>
    </g>
   </g>
   <g id="line2d_43">
    <path d="M 117.145424 298.944 
L 117.145424 298.417314 
L 118.655668 298.417314 
L 118.655668 297.890628 
L 119.377041 297.890628 
L 119.377041 297.363942 
L 120.045484 297.363942 
L 120.045484 296.837256 
L 121.105591 296.837256 
L 121.105591 296.31057 
L 121.53454 296.31057 
L 121.53454 295.257197 
L 122.191052 295.257197 
L 122.191052 294.730511 
L 122.699028 294.730511 
L 122.761498 293.677139 
L 122.823744 293.677139 
L 122.823744 293.150453 
L 122.988655 293.150453 
L 122.988655 292.623767 
L 123.131685 292.623767 
L 123.131685 292.097081 
L 123.374182 292.097081 
L 123.374182 291.570395 
L 123.593547 291.570395 
L 123.593547 291.043709 
L 123.790603 291.043709 
L 123.790603 290.517023 
L 124.062793 290.517023 
L 124.062793 289.990337 
L 124.406624 289.990337 
L 124.406624 289.463651 
L 124.725244 289.463651 
L 124.725244 288.936964 
L 124.965026 288.936964 
L 124.965026 288.410278 
L 125.129119 288.410278 
L 125.129119 287.883592 
L 126.013653 287.883592 
L 126.048118 286.83022 
L 126.202373 286.83022 
L 126.219429 285.776848 
L 126.72349 285.776848 
L 126.72349 285.250162 
L 126.904721 285.250162 
L 126.904721 284.723476 
L 127.245565 284.723476 
L 127.245565 284.19679 
L 127.389626 284.19679 
L 127.389626 283.670104 
L 129.247748 283.670104 
L 129.247748 283.143418 
L 129.376241 283.143418 
L 129.39046 282.090045 
L 129.489668 282.090045 
L 129.489668 281.563359 
L 130.127931 281.563359 
L 130.236587 279.983301 
L 130.69097 279.983301 
L 130.69097 279.456615 
L 131.603287 279.456615 
L 131.603287 278.929929 
L 132.612604 278.929929 
L 132.612604 278.403243 
L 133.476967 278.403243 
L 133.476967 277.876557 
L 149.87195 277.876557 
L 149.963932 276.823185 
L 152.602211 276.823185 
L 152.602211 276.296499 
L 153.434469 276.296499 
L 153.434469 275.769812 
L 153.935592 275.769812 
L 153.935592 275.243126 
L 154.46664 275.243126 
L 154.46664 274.71644 
L 155.663075 274.71644 
L 155.663075 274.189754 
L 156.184524 274.189754 
L 156.184524 273.663068 
L 156.370066 273.663068 
L 156.370066 273.136382 
L 157.040776 273.136382 
L 157.040776 272.609696 
L 165.01941 272.609696 
L 165.01941 272.08301 
L 165.565368 272.08301 
L 165.565368 271.556324 
L 166.016622 271.556324 
L 166.016622 271.029638 
L 166.48362 271.029638 
L 166.48362 270.502952 
L 167.005978 270.502952 
L 167.005978 269.976266 
L 167.453954 269.976266 
L 167.453954 269.449579 
L 167.746337 269.449579 
L 167.746337 268.922893 
L 168.31527 268.922893 
L 168.31527 268.396207 
L 168.429288 268.396207 
L 168.429288 267.869521 
L 170.749833 267.869521 
L 170.749833 267.342835 
L 170.891192 267.342835 
L 170.891192 266.816149 
L 171.425036 266.816149 
L 171.425036 266.289463 
L 171.542045 266.289463 
L 171.542045 265.762777 
L 172.147455 265.762777 
L 172.147455 265.236091 
L 172.362825 265.236091 
L 172.393031 264.182719 
L 172.667313 264.182719 
L 172.667313 263.656033 
L 173.347865 263.656033 
L 173.432234 262.60266 
L 173.761223 262.60266 
L 173.782417 261.549288 
L 173.964285 261.549288 
L 173.964285 261.022602 
L 174.154101 261.022602 
L 174.154101 260.495916 
L 174.591615 260.495916 
L 174.591615 259.96923 
L 175.011149 259.96923 
L 175.111634 258.389172 
L 175.378154 258.389172 
L 175.378154 257.862486 
L 176.015395 257.862486 
L 176.117099 256.809114 
L 176.161895 256.809114 
L 176.255013 255.755741 
L 176.379363 255.755741 
L 176.468464 254.702369 
L 176.510461 254.702369 
L 176.510461 254.175683 
L 176.664221 254.175683 
L 176.740595 253.122311 
L 176.797892 253.122311 
L 176.797892 252.595625 
L 177.135934 252.595625 
L 177.192865 251.015567 
L 177.262399 251.015567 
L 177.354379 249.962195 
L 177.471158 249.962195 
L 177.555762 247.85545 
L 177.594328 247.85545 
L 177.594328 247.328764 
L 177.791203 247.328764 
L 177.791203 246.802078 
L 177.928847 246.802078 
L 177.928847 246.275392 
L 178.084587 246.275392 
L 178.180141 243.641962 
L 178.235495 243.641962 
L 178.288953 242.061903 
L 178.515612 242.061903 
L 178.594464 239.955159 
L 178.627425 239.955159 
L 178.734329 238.375101 
L 178.743558 238.375101 
L 178.848088 237.321729 
L 178.962766 237.321729 
L 178.98346 236.268356 
L 179.122715 236.268356 
L 179.152235 235.214984 
L 179.301531 235.214984 
L 179.355873 232.581554 
L 179.505048 232.581554 
L 179.599535 229.948123 
L 179.625071 229.948123 
L 179.730012 226.788007 
L 179.737936 226.788007 
L 179.815406 224.681263 
L 179.888606 224.681263 
L 179.997443 221.521146 
L 180.030195 221.521146 
L 180.114135 217.834344 
L 180.183006 217.834344 
L 180.19613 215.727599 
L 180.309205 215.727599 
L 180.37502 213.094169 
L 180.422314 213.094169 
L 180.533179 208.353994 
L 180.546043 208.353994 
L 180.654624 204.667192 
L 180.686166 204.667192 
L 180.79239 201.507075 
L 180.857895 201.507075 
L 180.945347 195.713528 
L 180.978583 195.713528 
L 181.069838 188.866609 
L 181.113091 188.866609 
L 181.223302 182.546376 
L 181.242209 182.546376 
L 181.324143 177.279515 
L 181.366771 177.279515 
L 181.466788 172.539341 
L 181.489732 172.539341 
L 181.597596 167.27248 
L 181.604716 167.27248 
L 181.714703 159.372189 
L 181.722483 159.372189 
L 181.828921 152.52527 
L 181.865425 152.52527 
L 181.975876 144.624978 
L 181.976573 144.624978 
L 182.084939 134.617943 
L 182.10501 134.617943 
L 182.205708 129.877768 
L 182.216708 129.877768 
L 182.305828 121.450791 
L 182.33111 121.450791 
L 182.433229 114.603872 
L 182.450191 114.603872 
L 182.550944 106.703581 
L 182.567118 106.703581 
L 182.626967 100.910034 
L 182.678582 100.910034 
L 182.787342 94.589801 
L 182.793327 94.589801 
L 182.893445 87.216196 
L 182.909305 87.216196 
L 183.018609 79.315904 
L 183.021891 79.315904 
L 183.127885 72.468985 
L 183.138971 72.468985 
L 183.248793 66.675439 
L 183.26045 66.675439 
L 183.308289 63.515322 
L 183.393941 63.515322 
L 183.498982 57.721775 
L 183.521955 57.721775 
L 183.630667 52.9816 
L 183.693929 52.9816 
L 183.776456 50.874856 
L 183.809734 50.874856 
L 183.909812 47.71474 
L 183.954039 47.71474 
L 184.04587 44.554623 
L 184.095926 44.554623 
L 184.205421 41.921193 
L 184.260524 41.921193 
L 184.319718 40.867821 
L 184.429638 40.867821 
L 184.429638 40.341135 
L 184.544884 40.341135 
L 184.616304 39.287762 
L 184.707702 39.287762 
L 184.707702 38.761076 
L 184.857793 38.761076 
L 184.928534 37.181018 
L 184.973188 37.181018 
L 184.973188 36.654332 
L 185.094236 36.654332 
L 185.169829 35.074274 
L 185.291252 35.074274 
L 185.377469 34.020902 
L 185.622287 34.020902 
L 185.677041 32.440843 
L 185.736118 32.440843 
L 185.842514 31.387471 
L 185.874864 31.387471 
L 185.934386 30.334099 
L 338.688 30.334099 
L 338.688 30.334099 
" style="fill:none;stroke:#ff00ff;stroke-linecap:square;stroke-width:1.5;"/>
   </g>
   <g id="line2d_44">
    <defs>
     <path d="M -0 8.485281 
L 5.091169 0 
L 0 -8.485281 
L -5.091169 -0 
z
" id="m4942945548" style="stroke:#ff00ff;stroke-linejoin:miter;stroke-width:1.5;"/>
    </defs>
    <g>
     <use style="fill-opacity:0;stroke:#ff00ff;stroke-linejoin:miter;stroke-width:1.5;" x="177.47657" xlink:href="#m4942945548" y="249.435508"/>
     <use style="fill-opacity:0;stroke:#ff00ff;stroke-linejoin:miter;stroke-width:1.5;" x="185.934386" xlink:href="#m4942945548" y="30.860785"/>
     <use style="fill-opacity:0;stroke:#ff00ff;stroke-linejoin:miter;stroke-width:1.5;" x="185.934386" xlink:href="#m4942945548" y="30.334099"/>
     <use style="fill-opacity:0;stroke:#ff00ff;stroke-linejoin:miter;stroke-width:1.5;" x="185.934386" xlink:href="#m4942945548" y="30.334099"/>
     <use style="fill-opacity:0;stroke:#ff00ff;stroke-linejoin:miter;stroke-width:1.5;" x="338.688" xlink:href="#m4942945548" y="30.334099"/>
    </g>
   </g>
   <g id="line2d_45">
    <path style="fill:none;stroke:#ff00ff;stroke-linecap:square;stroke-width:1.5;"/>
    <g/>
   </g>
   <g id="line2d_46">
    <defs>
     <path d="M 0 1.5 
C 0.397805 1.5 0.77937 1.341951 1.06066 1.06066 
C 1.341951 0.77937 1.5 0.397805 1.5 0 
C 1.5 -0.397805 1.341951 -0.77937 1.06066 -1.06066 
C 0.77937 -1.341951 0.397805 -1.5 0 -1.5 
C -0.397805 -1.5 -0.77937 -1.341951 -1.06066 -1.06066 
C -1.341951 -0.77937 -1.5 -0.397805 -1.5 0 
C -1.5 0.397805 -1.341951 0.77937 -1.06066 1.06066 
C -0.77937 1.341951 -0.397805 1.5 0 1.5 
z
" id="m6296e88dbb" style="stroke:#ff0000;"/>
    </defs>
    <g>
     <use style="fill:#ff0000;stroke:#ff0000;" x="180.623777" xlink:href="#m6296e88dbb" y="30.334099"/>
     <use style="fill:#ff0000;stroke:#ff0000;" x="180.623777" xlink:href="#m6296e88dbb" y="30.334099"/>
    </g>
   </g>
   <g id="line2d_47">
    <path d="M 113.524343 298.944 
L 113.524343 298.417314 
L 114.182507 298.417314 
L 114.182507 297.890628 
L 115.897107 297.890628 
L 115.897107 297.363942 
L 116.739166 297.363942 
L 116.739166 296.31057 
L 116.885347 296.31057 
L 116.885347 295.783884 
L 117.654224 295.783884 
L 117.765302 294.730511 
L 118.229649 294.730511 
L 118.283474 293.150453 
L 118.655668 293.150453 
L 118.655668 292.623767 
L 119.071527 292.623767 
L 119.071527 292.097081 
L 119.377041 292.097081 
L 119.377041 291.570395 
L 119.726838 291.570395 
L 119.726838 291.043709 
L 119.972465 291.043709 
L 119.972465 290.517023 
L 120.166507 290.517023 
L 120.166507 289.990337 
L 120.286695 289.990337 
L 120.286695 289.463651 
L 120.782632 289.463651 
L 120.782632 288.936964 
L 120.990934 288.936964 
L 120.990934 288.410278 
L 121.242192 288.410278 
L 121.242192 287.883592 
L 122.061712 287.883592 
L 122.061712 287.356906 
L 122.44689 287.356906 
L 122.468041 286.303534 
L 122.926996 286.303534 
L 122.926996 285.776848 
L 123.111324 285.776848 
L 123.111324 285.250162 
L 123.533993 285.250162 
L 123.533993 284.723476 
L 123.790603 284.723476 
L 123.810186 283.670104 
L 124.158984 283.670104 
L 124.158984 283.143418 
L 124.349787 283.143418 
L 124.349787 282.616732 
L 124.706662 282.616732 
L 124.706662 282.090045 
L 124.836322 282.090045 
L 124.836322 281.563359 
L 125.056379 281.563359 
L 125.056379 281.036673 
L 126.048118 281.036673 
L 126.151107 279.983301 
L 126.439646 279.983301 
L 126.52361 278.929929 
L 126.822577 278.929929 
L 126.822577 278.403243 
L 127.40556 278.403243 
L 127.40556 277.876557 
L 143.647403 277.876557 
L 143.647403 277.349871 
L 145.178411 277.349871 
L 145.270136 276.296499 
L 147.615259 276.296499 
L 147.615259 275.769812 
L 148.653387 275.769812 
L 148.653387 275.243126 
L 148.929057 275.243126 
L 148.929057 274.71644 
L 149.090554 274.71644 
L 149.090554 274.189754 
L 153.781849 274.189754 
L 153.781849 273.663068 
L 154.611142 273.663068 
L 154.611142 273.136382 
L 157.409509 273.136382 
L 157.409509 272.609696 
L 159.502158 272.609696 
L 159.502158 272.08301 
L 160.039866 272.08301 
L 160.039866 271.556324 
L 160.797798 271.556324 
L 160.797798 271.029638 
L 161.634127 271.029638 
L 161.634127 270.502952 
L 162.225793 270.502952 
L 162.225793 269.976266 
L 162.741445 269.976266 
L 162.743545 268.922893 
L 164.206643 268.922893 
L 164.206643 268.396207 
L 164.535552 268.396207 
L 164.535552 267.869521 
L 165.568939 267.869521 
L 165.568939 267.342835 
L 165.838222 267.342835 
L 165.838222 266.816149 
L 166.675688 266.816149 
L 166.675688 266.289463 
L 166.79092 266.289463 
L 166.822518 265.236091 
L 167.164734 265.236091 
L 167.164734 264.709405 
L 168.063324 264.709405 
L 168.066419 263.656033 
L 168.832206 263.656033 
L 168.832206 263.129347 
L 169.032423 263.129347 
L 169.032423 262.60266 
L 169.421796 262.60266 
L 169.421796 262.075974 
L 169.688852 262.075974 
L 169.71843 261.022602 
L 170.054334 261.022602 
L 170.054334 260.495916 
L 170.168537 260.495916 
L 170.258818 258.915858 
L 170.349992 258.915858 
L 170.349992 258.389172 
L 170.659398 258.389172 
L 170.659398 257.862486 
L 170.955546 257.862486 
L 171.065318 256.809114 
L 171.082245 256.809114 
L 171.097855 255.229055 
L 171.249328 255.229055 
L 171.249328 254.702369 
L 171.476006 254.702369 
L 171.476006 254.175683 
L 171.678408 254.175683 
L 171.678408 253.648997 
L 171.789986 253.648997 
L 171.842394 252.595625 
L 171.935589 252.595625 
L 172.029522 251.015567 
L 172.091045 251.015567 
L 172.145006 249.962195 
L 172.239038 249.962195 
L 172.239038 249.435508 
L 172.569593 249.435508 
L 172.634007 248.382136 
L 172.778663 248.382136 
L 172.879917 247.328764 
L 172.90807 247.328764 
L 172.970079 245.748706 
L 173.024885 245.748706 
L 173.072554 244.695334 
L 173.255045 244.695334 
L 173.335289 242.588589 
L 173.420857 242.588589 
L 173.527513 240.481845 
L 173.564801 240.481845 
L 173.605389 238.901787 
L 173.678435 238.901787 
L 173.678435 238.375101 
L 173.829174 238.375101 
L 173.905718 236.795043 
L 173.979723 236.795043 
L 174.07645 234.161612 
L 174.137725 234.161612 
L 174.240098 232.581554 
L 174.256378 232.581554 
L 174.366685 229.948123 
L 174.410829 229.948123 
L 174.455933 228.894751 
L 174.522303 228.894751 
L 174.612886 227.314693 
L 174.638377 227.314693 
L 174.722024 225.207949 
L 174.755793 225.207949 
L 174.847271 222.574518 
L 174.909037 222.574518 
L 174.974749 219.941088 
L 175.025688 219.941088 
L 175.134344 217.307658 
L 175.145688 217.307658 
L 175.246428 213.620855 
L 175.292492 213.620855 
L 175.320072 212.040797 
L 175.405599 212.040797 
L 175.488687 208.88068 
L 175.5321 208.88068 
L 175.635651 207.300622 
L 175.655687 207.300622 
L 175.758509 204.140506 
L 175.778404 204.140506 
L 175.870621 199.400331 
L 175.892364 199.400331 
L 176.00264 196.7669 
L 176.008528 196.7669 
L 176.090752 193.606784 
L 176.127822 193.606784 
L 176.235655 187.286551 
L 176.244369 187.286551 
L 176.33416 183.073062 
L 176.368794 183.073062 
L 176.476107 178.332888 
L 176.486612 178.332888 
L 176.590358 170.432596 
L 176.609327 170.432596 
L 176.718001 165.692422 
L 176.741536 165.692422 
L 176.837233 159.372189 
L 176.863411 159.372189 
L 176.965875 154.632014 
L 176.977016 154.632014 
L 177.075125 149.365153 
L 177.099106 149.365153 
L 177.208443 143.04492 
L 177.215769 143.04492 
L 177.32438 136.198001 
L 177.329838 136.198001 
L 177.428701 129.351082 
L 177.444973 129.351082 
L 177.54768 120.397419 
L 177.563841 120.397419 
L 177.652463 114.077186 
L 177.678338 114.077186 
L 177.785887 106.703581 
L 177.800059 106.703581 
L 177.906862 99.329976 
L 177.929726 99.329976 
L 178.034867 91.95637 
L 178.045346 91.95637 
L 178.155 86.162824 
L 178.166274 86.162824 
L 178.258795 79.842591 
L 178.296699 79.842591 
L 178.406499 71.415613 
L 178.427864 71.415613 
L 178.525807 66.148752 
L 178.543633 66.148752 
L 178.654423 60.881892 
L 178.659481 60.881892 
L 178.751944 58.248461 
L 178.77875 58.248461 
L 178.877244 52.454914 
L 178.926284 52.454914 
L 179.029727 50.874856 
L 179.053639 50.874856 
L 179.157151 48.241426 
L 179.23316 48.241426 
L 179.300718 46.134681 
L 179.413275 46.134681 
L 179.516285 44.027937 
L 179.562762 44.027937 
L 179.621881 42.447879 
L 179.68239 42.447879 
L 179.762479 39.287762 
L 179.806727 39.287762 
L 179.887035 37.707704 
L 179.923131 37.707704 
L 180.013047 35.60096 
L 180.052775 35.60096 
L 180.083094 34.547588 
L 180.183778 34.547588 
L 180.236983 33.494215 
L 180.326065 33.494215 
L 180.426884 32.440843 
L 180.498325 32.440843 
L 180.545286 30.860785 
L 180.623777 30.860785 
L 180.623777 30.334099 
L 338.688 30.334099 
L 338.688 30.334099 
" style="fill:none;stroke:#ff0000;stroke-linecap:square;stroke-width:1.5;"/>
   </g>
   <g id="line2d_48">
    <defs>
     <path d="M 0 -6 
L -5.196152 -3 
L -5.196152 3 
L -0 6 
L 5.196152 3 
L 5.196152 -3 
z
" id="mda4bdb4caa" style="stroke:#ff0000;stroke-linejoin:miter;stroke-width:1.5;"/>
    </defs>
    <g>
     <use style="fill-opacity:0;stroke:#ff0000;stroke-linejoin:miter;stroke-width:1.5;" x="177.140532" xlink:href="#mda4bdb4caa" y="146.731723"/>
     <use style="fill-opacity:0;stroke:#ff0000;stroke-linejoin:miter;stroke-width:1.5;" x="180.623777" xlink:href="#mda4bdb4caa" y="30.860785"/>
     <use style="fill-opacity:0;stroke:#ff0000;stroke-linejoin:miter;stroke-width:1.5;" x="180.623777" xlink:href="#mda4bdb4caa" y="30.334099"/>
     <use style="fill-opacity:0;stroke:#ff0000;stroke-linejoin:miter;stroke-width:1.5;" x="180.623777" xlink:href="#mda4bdb4caa" y="30.334099"/>
     <use style="fill-opacity:0;stroke:#ff0000;stroke-linejoin:miter;stroke-width:1.5;" x="338.688" xlink:href="#mda4bdb4caa" y="30.334099"/>
    </g>
   </g>
   <g id="line2d_49">
    <path style="fill:none;stroke:#ff0000;stroke-linecap:square;stroke-width:1.5;"/>
    <g/>
   </g>
   <g id="line2d_50">
    <defs>
     <path d="M 0 1.5 
C 0.397805 1.5 0.77937 1.341951 1.06066 1.06066 
C 1.341951 0.77937 1.5 0.397805 1.5 0 
C 1.5 -0.397805 1.341951 -0.77937 1.06066 -1.06066 
C 0.77937 -1.341951 0.397805 -1.5 0 -1.5 
C -0.397805 -1.5 -0.77937 -1.341951 -1.06066 -1.06066 
C -1.341951 -0.77937 -1.5 -0.397805 -1.5 0 
C -1.5 0.397805 -1.341951 0.77937 -1.06066 1.06066 
C -0.77937 1.341951 -0.397805 1.5 0 1.5 
z
" id="m3633cb2413" style="stroke:#ff7500;"/>
    </defs>
    <g>
     <use style="fill:#ff7500;stroke:#ff7500;" x="190.801325" xlink:href="#m3633cb2413" y="30.334099"/>
     <use style="fill:#ff7500;stroke:#ff7500;" x="190.801325" xlink:href="#m3633cb2413" y="30.334099"/>
    </g>
   </g>
   <g id="line2d_51">
    <path d="M 111.780817 298.944 
L 111.780817 298.417314 
L 112.72987 298.417314 
L 112.72987 297.890628 
L 113.418114 297.890628 
L 113.418114 297.363942 
L 114.452366 297.363942 
L 114.485807 296.31057 
L 114.816733 296.31057 
L 114.849483 295.257197 
L 115.365285 295.257197 
L 115.365285 294.730511 
L 117.145424 294.730511 
L 117.174084 293.677139 
L 117.259781 293.677139 
L 117.259781 293.150453 
L 117.373392 293.150453 
L 117.373392 292.623767 
L 117.486268 292.623767 
L 117.486268 292.097081 
L 117.709852 292.097081 
L 117.709852 291.570395 
L 117.903163 291.570395 
L 117.903163 291.043709 
L 118.094355 291.043709 
L 118.094355 290.517023 
L 119.199476 290.517023 
L 119.199476 289.990337 
L 119.850084 289.990337 
L 119.923616 288.410278 
L 120.021178 288.410278 
L 120.021178 287.356906 
L 120.142369 287.356906 
L 120.142369 286.83022 
L 120.453579 286.83022 
L 120.453579 286.303534 
L 120.8059 286.303534 
L 120.8059 285.776848 
L 121.128432 285.776848 
L 121.128432 285.250162 
L 121.264855 285.250162 
L 121.264855 284.723476 
L 121.422678 284.723476 
L 121.422678 284.19679 
L 121.667835 284.19679 
L 121.667835 283.670104 
L 122.885768 283.670104 
L 122.885768 283.143418 
L 123.111324 283.143418 
L 123.172336 281.563359 
L 123.751369 281.563359 
L 123.751369 281.036673 
L 124.004823 281.036673 
L 124.062793 279.983301 
L 124.780872 279.983301 
L 124.780872 279.456615 
L 125.092787 279.456615 
L 125.092787 278.929929 
L 126.573795 278.929929 
L 126.573795 278.403243 
L 127.689902 278.403243 
L 127.689902 277.876557 
L 141.71841 277.876557 
L 141.71841 277.349871 
L 142.539878 277.349871 
L 142.539878 276.823185 
L 144.777223 276.823185 
L 144.777223 276.296499 
L 144.981877 276.296499 
L 144.981877 275.769812 
L 145.395476 275.769812 
L 145.395476 275.243126 
L 146.628157 275.243126 
L 146.628157 274.71644 
L 147.444481 274.71644 
L 147.444481 274.189754 
L 148.373289 274.189754 
L 148.373289 273.663068 
L 151.865879 273.663068 
L 151.971323 272.609696 
L 154.567581 272.609696 
L 154.567581 272.08301 
L 157.901343 272.08301 
L 157.901343 271.556324 
L 158.546057 271.556324 
L 158.623334 270.502952 
L 158.921223 270.502952 
L 158.921223 269.976266 
L 159.056614 269.976266 
L 159.056614 269.449579 
L 159.423608 269.449579 
L 159.423608 268.922893 
L 161.64531 268.922893 
L 161.64531 268.396207 
L 163.10917 268.396207 
L 163.10917 267.869521 
L 163.266752 267.869521 
L 163.266752 267.342835 
L 164.01643 267.342835 
L 164.121498 266.289463 
L 164.152508 266.289463 
L 164.152508 265.762777 
L 164.335503 265.762777 
L 164.335503 265.236091 
L 164.543127 265.236091 
L 164.543127 264.709405 
L 164.796897 264.709405 
L 164.796897 264.182719 
L 164.965896 264.182719 
L 164.965896 263.656033 
L 165.402106 263.656033 
L 165.418321 262.60266 
L 165.769525 262.60266 
L 165.769525 262.075974 
L 166.125905 262.075974 
L 166.125905 261.549288 
L 167.268694 261.549288 
L 167.344647 259.96923 
L 167.485973 259.96923 
L 167.541866 258.915858 
L 167.882895 258.915858 
L 167.882895 258.389172 
L 168.050941 258.389172 
L 168.13436 257.3358 
L 168.313745 257.3358 
L 168.313745 256.809114 
L 168.557613 256.809114 
L 168.557613 256.282427 
L 168.798117 256.282427 
L 168.909031 254.175683 
L 168.99579 254.175683 
L 169.093793 252.595625 
L 169.458974 252.595625 
L 169.538781 251.542253 
L 169.61964 251.542253 
L 169.61964 251.015567 
L 169.811066 251.015567 
L 169.873945 249.962195 
L 170.14246 249.962195 
L 170.143834 248.908822 
L 170.320107 248.908822 
L 170.351349 247.85545 
L 170.454188 247.85545 
L 170.540321 246.802078 
L 170.607318 246.802078 
L 170.609993 245.748706 
L 171.013132 245.748706 
L 171.08745 243.641962 
L 171.140712 243.641962 
L 171.140712 243.115275 
L 171.259637 243.115275 
L 171.341892 242.061903 
L 171.377756 242.061903 
L 171.470916 240.481845 
L 171.52429 240.481845 
L 171.555983 239.428473 
L 171.650717 239.428473 
L 171.743686 237.848415 
L 171.814962 237.848415 
L 171.883461 236.795043 
L 171.951692 236.795043 
L 172.056618 234.161612 
L 172.075069 234.161612 
L 172.075069 233.634926 
L 172.217102 233.634926 
L 172.309534 230.47481 
L 172.389409 230.47481 
L 172.492942 227.314693 
L 172.544479 227.314693 
L 172.636388 225.734635 
L 172.681567 225.734635 
L 172.776301 224.154577 
L 172.819942 224.154577 
L 172.911586 220.467774 
L 172.936177 220.467774 
L 172.956059 218.36103 
L 173.056292 218.36103 
L 173.139766 215.200913 
L 173.167503 215.200913 
L 173.27801 212.040797 
L 173.321559 212.040797 
L 173.414027 207.827308 
L 173.442468 207.827308 
L 173.534298 203.613819 
L 173.56593 203.613819 
L 173.642512 200.453703 
L 173.694128 200.453703 
L 173.793561 195.186842 
L 173.806924 195.186842 
L 173.91789 189.393295 
L 173.959872 189.393295 
L 174.058903 183.073062 
L 174.095074 183.073062 
L 174.200962 179.38626 
L 174.209666 179.38626 
L 174.314863 172.539341 
L 174.321349 172.539341 
L 174.431247 165.692422 
L 174.453788 165.692422 
L 174.558593 162.532305 
L 174.566055 162.532305 
L 174.674427 154.632014 
L 174.691365 154.632014 
L 174.79686 148.838467 
L 174.807374 148.838467 
L 174.918439 144.624978 
L 174.921573 144.624978 
L 175.012188 135.144629 
L 175.043326 135.144629 
L 175.149812 128.824396 
L 175.154964 128.824396 
L 175.262821 121.977477 
L 175.26794 121.977477 
L 175.376119 114.603872 
L 175.388324 114.603872 
L 175.496772 108.283639 
L 175.509902 108.283639 
L 175.620609 97.223231 
L 175.623618 97.223231 
L 175.733608 89.849626 
L 175.743572 89.849626 
L 175.829035 84.582765 
L 175.859739 84.582765 
L 175.961368 78.789218 
L 175.984964 78.789218 
L 176.087822 74.049044 
L 176.12977 74.049044 
L 176.237592 70.888927 
L 176.303316 70.888927 
L 176.373599 68.782183 
L 176.414867 68.782183 
L 176.519039 65.09538 
L 176.539038 65.09538 
L 176.639635 62.46195 
L 176.689716 62.46195 
L 176.799767 59.301833 
L 176.832554 59.301833 
L 176.933338 56.668403 
L 176.951008 56.668403 
L 177.052036 54.034973 
L 177.098184 54.034973 
L 177.184613 51.928228 
L 177.214854 51.928228 
L 177.31983 49.294798 
L 177.367091 49.294798 
L 177.455813 48.241426 
L 177.565636 48.241426 
L 177.622078 47.188054 
L 177.701504 47.188054 
L 177.777024 45.607995 
L 177.916539 45.607995 
L 177.916539 45.081309 
L 178.057564 45.081309 
L 178.10896 44.027937 
L 178.213029 44.027937 
L 178.213029 43.501251 
L 186.78623 43.501251 
L 186.78623 42.974565 
L 187.384569 42.974565 
L 187.384569 42.447879 
L 187.895697 42.447879 
L 187.895697 41.921193 
L 188.770626 41.921193 
L 188.770626 41.394507 
L 189.160345 41.394507 
L 189.160345 40.867821 
L 189.29231 40.867821 
L 189.395073 39.814448 
L 189.591146 39.814448 
L 189.591146 39.287762 
L 189.782368 39.287762 
L 189.88362 37.707704 
L 190.003208 37.707704 
L 190.044059 36.654332 
L 190.138572 36.654332 
L 190.207818 35.074274 
L 190.285879 35.074274 
L 190.36833 33.494215 
L 190.455965 33.494215 
L 190.514572 32.440843 
L 190.567873 32.440843 
L 190.62653 30.860785 
L 190.801325 30.860785 
L 190.801325 30.334099 
L 338.688 30.334099 
L 338.688 30.334099 
" style="fill:none;stroke:#ff7500;stroke-linecap:square;stroke-width:1.5;"/>
   </g>
   <g id="line2d_52">
    <defs>
     <path d="M 0 -6 
L -1.347084 -1.854102 
L -5.706339 -1.854102 
L -2.179628 0.708204 
L -3.526712 4.854102 
L -0 2.291796 
L 3.526712 4.854102 
L 2.179628 0.708204 
L 5.706339 -1.854102 
L 1.347084 -1.854102 
z
" id="mb7eef3ae88" style="stroke:#ff7500;stroke-linejoin:bevel;stroke-width:1.5;"/>
    </defs>
    <g>
     <use style="fill-opacity:0;stroke:#ff7500;stroke-linejoin:bevel;stroke-width:1.5;" x="175.94562" xlink:href="#mb7eef3ae88" y="80.895963"/>
     <use style="fill-opacity:0;stroke:#ff7500;stroke-linejoin:bevel;stroke-width:1.5;" x="190.801325" xlink:href="#mb7eef3ae88" y="30.860785"/>
     <use style="fill-opacity:0;stroke:#ff7500;stroke-linejoin:bevel;stroke-width:1.5;" x="190.801325" xlink:href="#mb7eef3ae88" y="30.334099"/>
     <use style="fill-opacity:0;stroke:#ff7500;stroke-linejoin:bevel;stroke-width:1.5;" x="190.801325" xlink:href="#mb7eef3ae88" y="30.334099"/>
     <use style="fill-opacity:0;stroke:#ff7500;stroke-linejoin:bevel;stroke-width:1.5;" x="338.688" xlink:href="#mb7eef3ae88" y="30.334099"/>
    </g>
   </g>
   <g id="line2d_53">
    <path style="fill:none;stroke:#ff7500;stroke-linecap:square;stroke-width:1.5;"/>
    <g/>
   </g>
   <g id="line2d_54">
    <path d="M 338.688 30.334099 
L 369.60768 293.571802 
" style="fill:none;stroke:#ff7500;stroke-linecap:square;stroke-width:1.5;"/>
    <g>
     <use style="fill-opacity:0;stroke:#ff7500;stroke-linejoin:bevel;stroke-width:1.5;" x="338.688" xlink:href="#mb7eef3ae88" y="30.334099"/>
     <use style="fill-opacity:0;stroke:#ff7500;stroke-linejoin:bevel;stroke-width:1.5;" x="369.60768" xlink:href="#mb7eef3ae88" y="293.571802"/>
    </g>
   </g>
   <g id="line2d_55">
    <path d="M 338.688 30.334099 
L 369.60768 241.998701 
" style="fill:none;stroke:#000080;stroke-linecap:square;stroke-width:1.5;"/>
    <g>
     <use style="fill-opacity:0;stroke:#000080;stroke-width:1.5;" x="338.688" xlink:href="#mec680c12a7" y="30.334099"/>
     <use style="fill-opacity:0;stroke:#000080;stroke-width:1.5;" x="369.60768" xlink:href="#mec680c12a7" y="241.998701"/>
    </g>
   </g>
   <g id="line2d_56">
    <path d="M 338.688 30.334099 
L 369.60768 190.4256 
" style="fill:none;stroke:#ff00ff;stroke-linecap:square;stroke-width:1.5;"/>
    <g>
     <use style="fill-opacity:0;stroke:#ff00ff;stroke-linejoin:miter;stroke-width:1.5;" x="338.688" xlink:href="#m4942945548" y="30.334099"/>
     <use style="fill-opacity:0;stroke:#ff00ff;stroke-linejoin:miter;stroke-width:1.5;" x="369.60768" xlink:href="#m4942945548" y="190.4256"/>
    </g>
   </g>
   <g id="line2d_57">
    <path d="M 338.688 30.334099 
L 369.60768 138.852499 
" style="fill:none;stroke:#ff0000;stroke-linecap:square;stroke-width:1.5;"/>
    <g>
     <use style="fill-opacity:0;stroke:#ff0000;stroke-linejoin:miter;stroke-width:1.5;" x="338.688" xlink:href="#mda4bdb4caa" y="30.334099"/>
     <use style="fill-opacity:0;stroke:#ff0000;stroke-linejoin:miter;stroke-width:1.5;" x="369.60768" xlink:href="#mda4bdb4caa" y="138.852499"/>
    </g>
   </g>
   <g id="line2d_58">
    <path d="M 338.688 30.334099 
L 369.60768 87.279398 
" style="fill:none;stroke:#000080;stroke-linecap:square;stroke-width:1.5;"/>
    <g>
     <use style="fill-opacity:0;stroke:#000080;stroke-width:1.5;" x="338.688" xlink:href="#mec680c12a7" y="30.334099"/>
     <use style="fill-opacity:0;stroke:#000080;stroke-width:1.5;" x="369.60768" xlink:href="#mec680c12a7" y="87.279398"/>
    </g>
   </g>
   <g id="line2d_59">
    <path d="M 338.688 298.944 
L 338.688 30.334099 
" style="fill:none;stroke:#000000;stroke-linecap:square;stroke-width:1.5;"/>
   </g>
   <g id="patch_3">
    <path d="M 57.6 298.944 
L 57.6 27.648 
" style="fill:none;stroke:#000000;stroke-linecap:square;stroke-linejoin:miter;stroke-width:0.8;"/>
   </g>
   <g id="patch_4">
    <path d="M 338.688 298.944 
L 338.688 27.648 
" style="fill:none;stroke:#000000;stroke-linecap:square;stroke-linejoin:miter;stroke-width:0.8;"/>
   </g>
   <g id="patch_5">
    <path d="M 57.6 298.944 
L 338.688 298.944 
" style="fill:none;stroke:#000000;stroke-linecap:square;stroke-linejoin:miter;stroke-width:0.8;"/>
   </g>
   <g id="patch_6">
    <path d="M 57.6 27.648 
L 338.688 27.648 
" style="fill:none;stroke:#000000;stroke-linecap:square;stroke-linejoin:miter;stroke-width:0.8;"/>
   </g>
   <g id="text_13">
    <!-- 075s-2e4 -->
    <defs>
     <path d="M 8.203125 72.90625 
L 55.078125 72.90625 
L 55.078125 68.703125 
L 28.609375 0 
L 18.3125 0 
L 43.21875 64.59375 
L 8.203125 64.59375 
z
" id="DejaVuSans-55"/>
     <path d="M 10.796875 72.90625 
L 49.515625 72.90625 
L 49.515625 64.59375 
L 19.828125 64.59375 
L 19.828125 46.734375 
Q 21.96875 47.46875 24.109375 47.828125 
Q 26.265625 48.1875 28.421875 48.1875 
Q 40.625 48.1875 47.75 41.5 
Q 54.890625 34.8125 54.890625 23.390625 
Q 54.890625 11.625 47.5625 5.09375 
Q 40.234375 -1.421875 26.90625 -1.421875 
Q 22.3125 -1.421875 17.546875 -0.640625 
Q 12.796875 0.140625 7.71875 1.703125 
L 7.71875 11.625 
Q 12.109375 9.234375 16.796875 8.0625 
Q 21.484375 6.890625 26.703125 6.890625 
Q 35.15625 6.890625 40.078125 11.328125 
Q 45.015625 15.765625 45.015625 23.390625 
Q 45.015625 31 40.078125 35.4375 
Q 35.15625 39.890625 26.703125 39.890625 
Q 22.75 39.890625 18.8125 39.015625 
Q 14.890625 38.140625 10.796875 36.28125 
z
" id="DejaVuSans-53"/>
    </defs>
    <g transform="translate(375.22944 298.262739)scale(0.17 -0.17)">
     <use xlink:href="#DejaVuSans-48"/>
     <use x="63.623047" xlink:href="#DejaVuSans-55"/>
     <use x="127.246094" xlink:href="#DejaVuSans-53"/>
     <use x="190.869141" xlink:href="#DejaVuSans-115"/>
     <use x="242.96875" xlink:href="#DejaVuSans-45"/>
     <use x="279.052734" xlink:href="#DejaVuSans-50"/>
     <use x="342.675781" xlink:href="#DejaVuSans-101"/>
     <use x="404.199219" xlink:href="#DejaVuSans-52"/>
    </g>
   </g>
   <g id="text_14">
    <!-- 100-1e5 -->
    <g transform="translate(375.22944 246.689638)scale(0.17 -0.17)">
     <use xlink:href="#DejaVuSans-49"/>
     <use x="63.623047" xlink:href="#DejaVuSans-48"/>
     <use x="127.246094" xlink:href="#DejaVuSans-48"/>
     <use x="190.869141" xlink:href="#DejaVuSans-45"/>
     <use x="226.953125" xlink:href="#DejaVuSans-49"/>
     <use x="290.576172" xlink:href="#DejaVuSans-101"/>
     <use x="352.099609" xlink:href="#DejaVuSans-53"/>
    </g>
   </g>
   <g id="text_15">
    <!-- 025s-2e4 -->
    <g transform="translate(375.22944 195.116537)scale(0.17 -0.17)">
     <use xlink:href="#DejaVuSans-48"/>
     <use x="63.623047" xlink:href="#DejaVuSans-50"/>
     <use x="127.246094" xlink:href="#DejaVuSans-53"/>
     <use x="190.869141" xlink:href="#DejaVuSans-115"/>
     <use x="242.96875" xlink:href="#DejaVuSans-45"/>
     <use x="279.052734" xlink:href="#DejaVuSans-50"/>
     <use x="342.675781" xlink:href="#DejaVuSans-101"/>
     <use x="404.199219" xlink:href="#DejaVuSans-52"/>
    </g>
   </g>
   <g id="text_16">
    <!-- 050s-2e4 -->
    <g transform="translate(375.22944 143.543437)scale(0.17 -0.17)">
     <use xlink:href="#DejaVuSans-48"/>
     <use x="63.623047" xlink:href="#DejaVuSans-53"/>
     <use x="127.246094" xlink:href="#DejaVuSans-48"/>
     <use x="190.869141" xlink:href="#DejaVuSans-115"/>
     <use x="242.96875" xlink:href="#DejaVuSans-45"/>
     <use x="279.052734" xlink:href="#DejaVuSans-50"/>
     <use x="342.675781" xlink:href="#DejaVuSans-101"/>
     <use x="404.199219" xlink:href="#DejaVuSans-52"/>
    </g>
   </g>
   <g id="text_17">
    <!-- 100-2e4 -->
    <g transform="translate(375.22944 91.970336)scale(0.17 -0.17)">
     <use xlink:href="#DejaVuSans-49"/>
     <use x="63.623047" xlink:href="#DejaVuSans-48"/>
     <use x="127.246094" xlink:href="#DejaVuSans-48"/>
     <use x="190.869141" xlink:href="#DejaVuSans-45"/>
     <use x="226.953125" xlink:href="#DejaVuSans-50"/>
     <use x="290.576172" xlink:href="#DejaVuSans-101"/>
     <use x="352.099609" xlink:href="#DejaVuSans-52"/>
    </g>
   </g>
   <g id="text_18">
    <!-- best 2009 -->
    <defs>
     <path d="M 48.6875 27.296875 
Q 48.6875 37.203125 44.609375 42.84375 
Q 40.53125 48.484375 33.40625 48.484375 
Q 26.265625 48.484375 22.1875 42.84375 
Q 18.109375 37.203125 18.109375 27.296875 
Q 18.109375 17.390625 22.1875 11.75 
Q 26.265625 6.109375 33.40625 6.109375 
Q 40.53125 6.109375 44.609375 11.75 
Q 48.6875 17.390625 48.6875 27.296875 
z
M 18.109375 46.390625 
Q 20.953125 51.265625 25.265625 53.625 
Q 29.59375 56 35.59375 56 
Q 45.5625 56 51.78125 48.09375 
Q 58.015625 40.1875 58.015625 27.296875 
Q 58.015625 14.40625 51.78125 6.484375 
Q 45.5625 -1.421875 35.59375 -1.421875 
Q 29.59375 -1.421875 25.265625 0.953125 
Q 20.953125 3.328125 18.109375 8.203125 
L 18.109375 0 
L 9.078125 0 
L 9.078125 75.984375 
L 18.109375 75.984375 
z
" id="DejaVuSans-98"/>
     <path d="M 10.984375 1.515625 
L 10.984375 10.5 
Q 14.703125 8.734375 18.5 7.8125 
Q 22.3125 6.890625 25.984375 6.890625 
Q 35.75 6.890625 40.890625 13.453125 
Q 46.046875 20.015625 46.78125 33.40625 
Q 43.953125 29.203125 39.59375 26.953125 
Q 35.25 24.703125 29.984375 24.703125 
Q 19.046875 24.703125 12.671875 31.3125 
Q 6.296875 37.9375 6.296875 49.421875 
Q 6.296875 60.640625 12.9375 67.421875 
Q 19.578125 74.21875 30.609375 74.21875 
Q 43.265625 74.21875 49.921875 64.515625 
Q 56.59375 54.828125 56.59375 36.375 
Q 56.59375 19.140625 48.40625 8.859375 
Q 40.234375 -1.421875 26.421875 -1.421875 
Q 22.703125 -1.421875 18.890625 -0.6875 
Q 15.09375 0.046875 10.984375 1.515625 
z
M 30.609375 32.421875 
Q 37.25 32.421875 41.125 36.953125 
Q 45.015625 41.5 45.015625 49.421875 
Q 45.015625 57.28125 41.125 61.84375 
Q 37.25 66.40625 30.609375 66.40625 
Q 23.96875 66.40625 20.09375 61.84375 
Q 16.21875 57.28125 16.21875 49.421875 
Q 16.21875 41.5 20.09375 36.953125 
Q 23.96875 32.421875 30.609375 32.421875 
z
" id="DejaVuSans-57"/>
    </defs>
    <g transform="translate(375.22944 40.397235)scale(0.17 -0.17)">
     <use xlink:href="#DejaVuSans-98"/>
     <use x="63.476562" xlink:href="#DejaVuSans-101"/>
     <use x="125" xlink:href="#DejaVuSans-115"/>
     <use x="177.099609" xlink:href="#DejaVuSans-116"/>
     <use x="216.308594" xlink:href="#DejaVuSans-32"/>
     <use x="248.095703" xlink:href="#DejaVuSans-50"/>
     <use x="311.71875" xlink:href="#DejaVuSans-48"/>
     <use x="375.341797" xlink:href="#DejaVuSans-48"/>
     <use x="438.964844" xlink:href="#DejaVuSans-57"/>
    </g>
   </g>
   <g id="text_19">
    <!-- bbob f9, 20-D -->
    <defs>
     <path d="M 19.671875 64.796875 
L 19.671875 8.109375 
L 31.59375 8.109375 
Q 46.6875 8.109375 53.6875 14.9375 
Q 60.6875 21.78125 60.6875 36.53125 
Q 60.6875 51.171875 53.6875 57.984375 
Q 46.6875 64.796875 31.59375 64.796875 
z
M 9.8125 72.90625 
L 30.078125 72.90625 
Q 51.265625 72.90625 61.171875 64.09375 
Q 71.09375 55.28125 71.09375 36.53125 
Q 71.09375 17.671875 61.125 8.828125 
Q 51.171875 0 30.078125 0 
L 9.8125 0 
z
" id="DejaVuSans-68"/>
    </defs>
    <g transform="translate(60.41088 38.111366)scale(0.102 -0.102)">
     <use xlink:href="#DejaVuSans-98"/>
     <use x="63.476562" xlink:href="#DejaVuSans-98"/>
     <use x="126.953125" xlink:href="#DejaVuSans-111"/>
     <use x="188.134766" xlink:href="#DejaVuSans-98"/>
     <use x="251.611328" xlink:href="#DejaVuSans-32"/>
     <use x="283.398438" xlink:href="#DejaVuSans-102"/>
     <use x="318.603516" xlink:href="#DejaVuSans-57"/>
     <use x="382.226562" xlink:href="#DejaVuSans-44"/>
     <use x="414.013672" xlink:href="#DejaVuSans-32"/>
     <use x="445.800781" xlink:href="#DejaVuSans-50"/>
     <use x="509.423828" xlink:href="#DejaVuSans-48"/>
     <use x="573.046875" xlink:href="#DejaVuSans-45"/>
     <use x="609.130859" xlink:href="#DejaVuSans-68"/>
    </g>
    <!-- 51 targets: 100..1e-08 -->
    <defs>
     <path d="M 11.71875 12.40625 
L 22.015625 12.40625 
L 22.015625 0 
L 11.71875 0 
z
M 11.71875 51.703125 
L 22.015625 51.703125 
L 22.015625 39.3125 
L 11.71875 39.3125 
z
" id="DejaVuSans-58"/>
    </defs>
    <g transform="translate(60.41088 49.533135)scale(0.102 -0.102)">
     <use xlink:href="#DejaVuSans-53"/>
     <use x="63.623047" xlink:href="#DejaVuSans-49"/>
     <use x="127.246094" xlink:href="#DejaVuSans-32"/>
     <use x="159.033203" xlink:href="#DejaVuSans-116"/>
     <use x="198.242188" xlink:href="#DejaVuSans-97"/>
     <use x="259.521484" xlink:href="#DejaVuSans-114"/>
     <use x="300.619141" xlink:href="#DejaVuSans-103"/>
     <use x="364.095703" xlink:href="#DejaVuSans-101"/>
     <use x="425.619141" xlink:href="#DejaVuSans-116"/>
     <use x="464.828125" xlink:href="#DejaVuSans-115"/>
     <use x="516.927734" xlink:href="#DejaVuSans-58"/>
     <use x="550.619141" xlink:href="#DejaVuSans-32"/>
     <use x="582.40625" xlink:href="#DejaVuSans-49"/>
     <use x="646.029297" xlink:href="#DejaVuSans-48"/>
     <use x="709.652344" xlink:href="#DejaVuSans-48"/>
     <use x="773.275391" xlink:href="#DejaVuSans-46"/>
     <use x="805.0625" xlink:href="#DejaVuSans-46"/>
     <use x="836.849609" xlink:href="#DejaVuSans-49"/>
     <use x="900.472656" xlink:href="#DejaVuSans-101"/>
     <use x="961.996094" xlink:href="#DejaVuSans-45"/>
     <use x="998.080078" xlink:href="#DejaVuSans-48"/>
     <use x="1061.703125" xlink:href="#DejaVuSans-56"/>
    </g>
    <!-- 15 instances -->
    <g transform="translate(60.41088 60.954904)scale(0.102 -0.102)">
     <use xlink:href="#DejaVuSans-49"/>
     <use x="63.623047" xlink:href="#DejaVuSans-53"/>
     <use x="127.246094" xlink:href="#DejaVuSans-32"/>
     <use x="159.033203" xlink:href="#DejaVuSans-105"/>
     <use x="186.816406" xlink:href="#DejaVuSans-110"/>
     <use x="250.195312" xlink:href="#DejaVuSans-115"/>
     <use x="302.294922" xlink:href="#DejaVuSans-116"/>
     <use x="341.503906" xlink:href="#DejaVuSans-97"/>
     <use x="402.783203" xlink:href="#DejaVuSans-110"/>
     <use x="466.162109" xlink:href="#DejaVuSans-99"/>
     <use x="521.142578" xlink:href="#DejaVuSans-101"/>
     <use x="582.666016" xlink:href="#DejaVuSans-115"/>
    </g>
   </g>
   <g id="text_20">
    <!-- v2.3.3.18.73 -->
    <defs>
     <path d="M 40.578125 39.3125 
Q 47.65625 37.796875 51.625 33 
Q 55.609375 28.21875 55.609375 21.1875 
Q 55.609375 10.40625 48.1875 4.484375 
Q 40.765625 -1.421875 27.09375 -1.421875 
Q 22.515625 -1.421875 17.65625 -0.515625 
Q 12.796875 0.390625 7.625 2.203125 
L 7.625 11.71875 
Q 11.71875 9.328125 16.59375 8.109375 
Q 21.484375 6.890625 26.8125 6.890625 
Q 36.078125 6.890625 40.9375 10.546875 
Q 45.796875 14.203125 45.796875 21.1875 
Q 45.796875 27.640625 41.28125 31.265625 
Q 36.765625 34.90625 28.71875 34.90625 
L 20.21875 34.90625 
L 20.21875 43.015625 
L 29.109375 43.015625 
Q 36.375 43.015625 40.234375 45.921875 
Q 44.09375 48.828125 44.09375 54.296875 
Q 44.09375 59.90625 40.109375 62.90625 
Q 36.140625 65.921875 28.71875 65.921875 
Q 24.65625 65.921875 20.015625 65.03125 
Q 15.375 64.15625 9.8125 62.3125 
L 9.8125 71.09375 
Q 15.4375 72.65625 20.34375 73.4375 
Q 25.25 74.21875 29.59375 74.21875 
Q 40.828125 74.21875 47.359375 69.109375 
Q 53.90625 64.015625 53.90625 55.328125 
Q 53.90625 49.265625 50.4375 45.09375 
Q 46.96875 40.921875 40.578125 39.3125 
z
" id="DejaVuSans-51"/>
    </defs>
    <g style="fill:#808080;" transform="translate(166.559625 294.151352)scale(0.1 -0.1)">
     <use xlink:href="#DejaVuSans-118"/>
     <use x="59.179688" xlink:href="#DejaVuSans-50"/>
     <use x="122.802734" xlink:href="#DejaVuSans-46"/>
     <use x="154.589844" xlink:href="#DejaVuSans-51"/>
     <use x="218.212891" xlink:href="#DejaVuSans-46"/>
     <use x="250" xlink:href="#DejaVuSans-51"/>
     <use x="313.623047" xlink:href="#DejaVuSans-46"/>
     <use x="345.410156" xlink:href="#DejaVuSans-49"/>
     <use x="409.033203" xlink:href="#DejaVuSans-56"/>
     <use x="472.65625" xlink:href="#DejaVuSans-46"/>
     <use x="504.443359" xlink:href="#DejaVuSans-55"/>
     <use x="568.066406" xlink:href="#DejaVuSans-51"/>
    </g>
   </g>
   <g id="text_21">
    <!-- 9 Rosenbrock rotated -->
    <defs>
     <path d="M 44.390625 34.1875 
Q 47.5625 33.109375 50.5625 29.59375 
Q 53.5625 26.078125 56.59375 19.921875 
L 66.609375 0 
L 56 0 
L 46.6875 18.703125 
Q 43.0625 26.03125 39.671875 28.421875 
Q 36.28125 30.8125 30.421875 30.8125 
L 19.671875 30.8125 
L 19.671875 0 
L 9.8125 0 
L 9.8125 72.90625 
L 32.078125 72.90625 
Q 44.578125 72.90625 50.734375 67.671875 
Q 56.890625 62.453125 56.890625 51.90625 
Q 56.890625 45.015625 53.6875 40.46875 
Q 50.484375 35.9375 44.390625 34.1875 
z
M 19.671875 64.796875 
L 19.671875 38.921875 
L 32.078125 38.921875 
Q 39.203125 38.921875 42.84375 42.21875 
Q 46.484375 45.515625 46.484375 51.90625 
Q 46.484375 58.296875 42.84375 61.546875 
Q 39.203125 64.796875 32.078125 64.796875 
z
" id="DejaVuSans-82"/>
     <path d="M 9.078125 75.984375 
L 18.109375 75.984375 
L 18.109375 31.109375 
L 44.921875 54.6875 
L 56.390625 54.6875 
L 27.390625 29.109375 
L 57.625 0 
L 45.90625 0 
L 18.109375 26.703125 
L 18.109375 0 
L 9.078125 0 
z
" id="DejaVuSans-107"/>
    </defs>
    <g transform="translate(90.103375 21.648)scale(0.2 -0.2)">
     <use xlink:href="#DejaVuSans-57"/>
     <use x="63.623047" xlink:href="#DejaVuSans-32"/>
     <use x="95.410156" xlink:href="#DejaVuSans-82"/>
     <use x="164.830078" xlink:href="#DejaVuSans-111"/>
     <use x="226.011719" xlink:href="#DejaVuSans-115"/>
     <use x="278.111328" xlink:href="#DejaVuSans-101"/>
     <use x="339.634766" xlink:href="#DejaVuSans-110"/>
     <use x="403.013672" xlink:href="#DejaVuSans-98"/>
     <use x="466.490234" xlink:href="#DejaVuSans-114"/>
     <use x="507.572266" xlink:href="#DejaVuSans-111"/>
     <use x="568.753906" xlink:href="#DejaVuSans-99"/>
     <use x="623.734375" xlink:href="#DejaVuSans-107"/>
     <use x="681.644531" xlink:href="#DejaVuSans-32"/>
     <use x="713.431641" xlink:href="#DejaVuSans-114"/>
     <use x="754.513672" xlink:href="#DejaVuSans-111"/>
     <use x="815.695312" xlink:href="#DejaVuSans-116"/>
     <use x="854.904297" xlink:href="#DejaVuSans-97"/>
     <use x="916.183594" xlink:href="#DejaVuSans-116"/>
     <use x="955.392578" xlink:href="#DejaVuSans-101"/>
     <use x="1016.916016" xlink:href="#DejaVuSans-100"/>
    </g>
   </g>
  </g>
 </g>
 <defs>
  <clipPath id="p376680ab24">
   <rect height="271.296" width="281.088" x="57.6" y="27.648"/>
  </clipPath>
 </defs>
</svg>
