<?xml version="1.0" encoding="utf-8" standalone="no"?>
<!DOCTYPE svg PUBLIC "-//W3C//DTD SVG 1.1//EN"
  "http://www.w3.org/Graphics/SVG/1.1/DTD/svg11.dtd">
<!-- Created with matplotlib (https://matplotlib.org/) -->
<svg height="345.6pt" version="1.1" viewBox="0 0 460.8 345.6" width="460.8pt" xmlns="http://www.w3.org/2000/svg" xmlns:xlink="http://www.w3.org/1999/xlink">
 <defs>
  <style type="text/css">
*{stroke-linecap:butt;stroke-linejoin:round;}
  </style>
 </defs>
 <g id="figure_1">
  <g id="patch_1">
   <path d="M 0 345.6 
L 460.8 345.6 
L 460.8 0 
L 0 0 
z
" style="fill:#ffffff;"/>
  </g>
  <g id="axes_1">
   <g id="patch_2">
    <path d="M 57.6 298.944 
L 338.688 298.944 
L 338.688 27.648 
L 57.6 27.648 
z
" style="fill:#ffffff;"/>
   </g>
   <g id="line2d_1">
    <path d="M 108.948899 298.944 
L 108.948899 293.677139 
L 109.040444 293.677139 
L 109.040444 288.410278 
L 109.086037 288.410278 
L 109.086037 277.876557 
L 109.131511 277.876557 
L 109.131511 272.609696 
L 109.176867 272.609696 
L 109.176867 246.275392 
L 109.222105 246.275392 
L 109.222105 219.941088 
L 109.267226 219.941088 
L 109.267226 193.606784 
L 109.31223 193.606784 
L 109.31223 188.339923 
L 109.357119 188.339923 
L 109.357119 172.539341 
L 109.401893 172.539341 
L 109.401893 135.671315 
L 109.446552 135.671315 
L 109.446552 104.07015 
L 109.491096 104.07015 
L 109.491096 77.735846 
L 109.535528 77.735846 
L 109.535528 46.134681 
L 109.624052 46.134681 
L 109.624052 40.867821 
L 110.016944 40.867821 
L 110.016944 35.60096 
L 110.358901 35.60096 
L 110.358901 30.334099 
L 338.688 30.334099 
" style="fill:none;stroke:#f5deb3;stroke-linecap:square;stroke-width:4;"/>
   </g>
   <g id="line2d_2">
    <defs>
     <path d="M -0 7.778175 
L 7.778175 0 
L 0 -7.778175 
L -7.778175 -0 
z
" id="m027963239d" style="stroke:#f5deb3;stroke-linejoin:miter;stroke-width:1.5;"/>
    </defs>
    <g>
     <use style="fill:#f5deb3;stroke:#f5deb3;stroke-linejoin:miter;stroke-width:1.5;" x="109.446552" xlink:href="#m027963239d" y="135.671315"/>
     <use style="fill:#f5deb3;stroke:#f5deb3;stroke-linejoin:miter;stroke-width:1.5;" x="110.358901" xlink:href="#m027963239d" y="35.60096"/>
     <use style="fill:#f5deb3;stroke:#f5deb3;stroke-linejoin:miter;stroke-width:1.5;" x="110.358901" xlink:href="#m027963239d" y="30.334099"/>
     <use style="fill:#f5deb3;stroke:#f5deb3;stroke-linejoin:miter;stroke-width:1.5;" x="110.358901" xlink:href="#m027963239d" y="30.334099"/>
     <use style="fill:#f5deb3;stroke:#f5deb3;stroke-linejoin:miter;stroke-width:1.5;" x="338.688" xlink:href="#m027963239d" y="30.334099"/>
    </g>
   </g>
   <g id="line2d_3">
    <path style="fill:none;stroke:#f5deb3;stroke-linecap:square;stroke-width:4;"/>
    <g/>
   </g>
   <g id="line2d_4">
    <path d="M 338.688 30.334099 
L 369.60768 35.706297 
" style="fill:none;stroke:#f5deb3;stroke-linecap:square;stroke-width:4;"/>
    <g>
     <use style="fill:#f5deb3;stroke:#f5deb3;stroke-linejoin:miter;stroke-width:1.5;" x="338.688" xlink:href="#m027963239d" y="30.334099"/>
     <use style="fill:#f5deb3;stroke:#f5deb3;stroke-linejoin:miter;stroke-width:1.5;" x="369.60768" xlink:href="#m027963239d" y="35.706297"/>
    </g>
   </g>
   <g id="matplotlib.axis_1">
    <g id="xtick_1">
     <g id="line2d_5">
      <path clip-path="url(#pd72117c7bf)" d="M 57.6 298.944 
L 57.6 27.648 
" style="fill:none;stroke:#b0b0b0;stroke-linecap:square;stroke-width:0.8;"/>
     </g>
     <g id="line2d_6">
      <defs>
       <path d="M 0 0 
L 0 3.5 
" id="m9612c1ed96" style="stroke:#000000;stroke-width:0.8;"/>
      </defs>
      <g>
       <use style="stroke:#000000;stroke-width:0.8;" x="57.6" xlink:href="#m9612c1ed96" y="298.944"/>
      </g>
     </g>
     <g id="text_1">
      <!-- 0 -->
      <defs>
       <path d="M 31.78125 66.40625 
Q 24.171875 66.40625 20.328125 58.90625 
Q 16.5 51.421875 16.5 36.375 
Q 16.5 21.390625 20.328125 13.890625 
Q 24.171875 6.390625 31.78125 6.390625 
Q 39.453125 6.390625 43.28125 13.890625 
Q 47.125 21.390625 47.125 36.375 
Q 47.125 51.421875 43.28125 58.90625 
Q 39.453125 66.40625 31.78125 66.40625 
z
M 31.78125 74.21875 
Q 44.046875 74.21875 50.515625 64.515625 
Q 56.984375 54.828125 56.984375 36.375 
Q 56.984375 17.96875 50.515625 8.265625 
Q 44.046875 -1.421875 31.78125 -1.421875 
Q 19.53125 -1.421875 13.0625 8.265625 
Q 6.59375 17.96875 6.59375 36.375 
Q 6.59375 54.828125 13.0625 64.515625 
Q 19.53125 74.21875 31.78125 74.21875 
z
" id="DejaVuSans-48"/>
      </defs>
      <g transform="translate(51.2375 321.140875)scale(0.2 -0.2)">
       <use xlink:href="#DejaVuSans-48"/>
      </g>
     </g>
    </g>
    <g id="xtick_2">
     <g id="line2d_7">
      <path clip-path="url(#pd72117c7bf)" d="M 137.910857 298.944 
L 137.910857 27.648 
" style="fill:none;stroke:#b0b0b0;stroke-linecap:square;stroke-width:0.8;"/>
     </g>
     <g id="line2d_8">
      <g>
       <use style="stroke:#000000;stroke-width:0.8;" x="137.910857" xlink:href="#m9612c1ed96" y="298.944"/>
      </g>
     </g>
     <g id="text_2">
      <!-- 2 -->
      <defs>
       <path d="M 19.1875 8.296875 
L 53.609375 8.296875 
L 53.609375 0 
L 7.328125 0 
L 7.328125 8.296875 
Q 12.9375 14.109375 22.625 23.890625 
Q 32.328125 33.6875 34.8125 36.53125 
Q 39.546875 41.84375 41.421875 45.53125 
Q 43.3125 49.21875 43.3125 52.78125 
Q 43.3125 58.59375 39.234375 62.25 
Q 35.15625 65.921875 28.609375 65.921875 
Q 23.96875 65.921875 18.8125 64.3125 
Q 13.671875 62.703125 7.8125 59.421875 
L 7.8125 69.390625 
Q 13.765625 71.78125 18.9375 73 
Q 24.125 74.21875 28.421875 74.21875 
Q 39.75 74.21875 46.484375 68.546875 
Q 53.21875 62.890625 53.21875 53.421875 
Q 53.21875 48.921875 51.53125 44.890625 
Q 49.859375 40.875 45.40625 35.40625 
Q 44.1875 33.984375 37.640625 27.21875 
Q 31.109375 20.453125 19.1875 8.296875 
z
" id="DejaVuSans-50"/>
      </defs>
      <g transform="translate(131.548357 321.140875)scale(0.2 -0.2)">
       <use xlink:href="#DejaVuSans-50"/>
      </g>
     </g>
    </g>
    <g id="xtick_3">
     <g id="line2d_9">
      <path clip-path="url(#pd72117c7bf)" d="M 218.221714 298.944 
L 218.221714 27.648 
" style="fill:none;stroke:#b0b0b0;stroke-linecap:square;stroke-width:0.8;"/>
     </g>
     <g id="line2d_10">
      <g>
       <use style="stroke:#000000;stroke-width:0.8;" x="218.221714" xlink:href="#m9612c1ed96" y="298.944"/>
      </g>
     </g>
     <g id="text_3">
      <!-- 4 -->
      <defs>
       <path d="M 37.796875 64.3125 
L 12.890625 25.390625 
L 37.796875 25.390625 
z
M 35.203125 72.90625 
L 47.609375 72.90625 
L 47.609375 25.390625 
L 58.015625 25.390625 
L 58.015625 17.1875 
L 47.609375 17.1875 
L 47.609375 0 
L 37.796875 0 
L 37.796875 17.1875 
L 4.890625 17.1875 
L 4.890625 26.703125 
z
" id="DejaVuSans-52"/>
      </defs>
      <g transform="translate(211.859214 321.140875)scale(0.2 -0.2)">
       <use xlink:href="#DejaVuSans-52"/>
      </g>
     </g>
    </g>
    <g id="xtick_4">
     <g id="line2d_11">
      <path clip-path="url(#pd72117c7bf)" d="M 298.532571 298.944 
L 298.532571 27.648 
" style="fill:none;stroke:#b0b0b0;stroke-linecap:square;stroke-width:0.8;"/>
     </g>
     <g id="line2d_12">
      <g>
       <use style="stroke:#000000;stroke-width:0.8;" x="298.532571" xlink:href="#m9612c1ed96" y="298.944"/>
      </g>
     </g>
     <g id="text_4">
      <!-- 6 -->
      <defs>
       <path d="M 33.015625 40.375 
Q 26.375 40.375 22.484375 35.828125 
Q 18.609375 31.296875 18.609375 23.390625 
Q 18.609375 15.53125 22.484375 10.953125 
Q 26.375 6.390625 33.015625 6.390625 
Q 39.65625 6.390625 43.53125 10.953125 
Q 47.40625 15.53125 47.40625 23.390625 
Q 47.40625 31.296875 43.53125 35.828125 
Q 39.65625 40.375 33.015625 40.375 
z
M 52.59375 71.296875 
L 52.59375 62.3125 
Q 48.875 64.0625 45.09375 64.984375 
Q 41.3125 65.921875 37.59375 65.921875 
Q 27.828125 65.921875 22.671875 59.328125 
Q 17.53125 52.734375 16.796875 39.40625 
Q 19.671875 43.65625 24.015625 45.921875 
Q 28.375 48.1875 33.59375 48.1875 
Q 44.578125 48.1875 50.953125 41.515625 
Q 57.328125 34.859375 57.328125 23.390625 
Q 57.328125 12.15625 50.6875 5.359375 
Q 44.046875 -1.421875 33.015625 -1.421875 
Q 20.359375 -1.421875 13.671875 8.265625 
Q 6.984375 17.96875 6.984375 36.375 
Q 6.984375 53.65625 15.1875 63.9375 
Q 23.390625 74.21875 37.203125 74.21875 
Q 40.921875 74.21875 44.703125 73.484375 
Q 48.484375 72.75 52.59375 71.296875 
z
" id="DejaVuSans-54"/>
      </defs>
      <g transform="translate(292.170071 321.140875)scale(0.2 -0.2)">
       <use xlink:href="#DejaVuSans-54"/>
      </g>
     </g>
    </g>
    <g id="xtick_5">
     <g id="line2d_13">
      <path clip-path="url(#pd72117c7bf)" d="M 97.755429 298.944 
L 97.755429 27.648 
" style="fill:none;stroke:#b0b0b0;stroke-linecap:square;stroke-width:0.8;"/>
     </g>
     <g id="line2d_14">
      <defs>
       <path d="M 0 0 
L 0 2 
" id="mdfd7fc12f2" style="stroke:#000000;stroke-width:0.6;"/>
      </defs>
      <g>
       <use style="stroke:#000000;stroke-width:0.6;" x="97.755429" xlink:href="#mdfd7fc12f2" y="298.944"/>
      </g>
     </g>
    </g>
    <g id="xtick_6">
     <g id="line2d_15">
      <path clip-path="url(#pd72117c7bf)" d="M 178.066286 298.944 
L 178.066286 27.648 
" style="fill:none;stroke:#b0b0b0;stroke-linecap:square;stroke-width:0.8;"/>
     </g>
     <g id="line2d_16">
      <g>
       <use style="stroke:#000000;stroke-width:0.6;" x="178.066286" xlink:href="#mdfd7fc12f2" y="298.944"/>
      </g>
     </g>
    </g>
    <g id="xtick_7">
     <g id="line2d_17">
      <path clip-path="url(#pd72117c7bf)" d="M 258.377143 298.944 
L 258.377143 27.648 
" style="fill:none;stroke:#b0b0b0;stroke-linecap:square;stroke-width:0.8;"/>
     </g>
     <g id="line2d_18">
      <g>
       <use style="stroke:#000000;stroke-width:0.6;" x="258.377143" xlink:href="#mdfd7fc12f2" y="298.944"/>
      </g>
     </g>
    </g>
    <g id="xtick_8">
     <g id="line2d_19">
      <path clip-path="url(#pd72117c7bf)" d="M 338.688 298.944 
L 338.688 27.648 
" style="fill:none;stroke:#b0b0b0;stroke-linecap:square;stroke-width:0.8;"/>
     </g>
     <g id="line2d_20">
      <g>
       <use style="stroke:#000000;stroke-width:0.6;" x="338.688" xlink:href="#mdfd7fc12f2" y="298.944"/>
      </g>
     </g>
    </g>
    <g id="text_5">
     <!-- log10(# f-evals / dimension) -->
     <defs>
      <path d="M 9.421875 75.984375 
L 18.40625 75.984375 
L 18.40625 0 
L 9.421875 0 
z
" id="DejaVuSans-108"/>
      <path d="M 30.609375 48.390625 
Q 23.390625 48.390625 19.1875 42.75 
Q 14.984375 37.109375 14.984375 27.296875 
Q 14.984375 17.484375 19.15625 11.84375 
Q 23.34375 6.203125 30.609375 6.203125 
Q 37.796875 6.203125 41.984375 11.859375 
Q 46.1875 17.53125 46.1875 27.296875 
Q 46.1875 37.015625 41.984375 42.703125 
Q 37.796875 48.390625 30.609375 48.390625 
z
M 30.609375 56 
Q 42.328125 56 49.015625 48.375 
Q 55.71875 40.765625 55.71875 27.296875 
Q 55.71875 13.875 49.015625 6.21875 
Q 42.328125 -1.421875 30.609375 -1.421875 
Q 18.84375 -1.421875 12.171875 6.21875 
Q 5.515625 13.875 5.515625 27.296875 
Q 5.515625 40.765625 12.171875 48.375 
Q 18.84375 56 30.609375 56 
z
" id="DejaVuSans-111"/>
      <path d="M 45.40625 27.984375 
Q 45.40625 37.75 41.375 43.109375 
Q 37.359375 48.484375 30.078125 48.484375 
Q 22.859375 48.484375 18.828125 43.109375 
Q 14.796875 37.75 14.796875 27.984375 
Q 14.796875 18.265625 18.828125 12.890625 
Q 22.859375 7.515625 30.078125 7.515625 
Q 37.359375 7.515625 41.375 12.890625 
Q 45.40625 18.265625 45.40625 27.984375 
z
M 54.390625 6.78125 
Q 54.390625 -7.171875 48.1875 -13.984375 
Q 42 -20.796875 29.203125 -20.796875 
Q 24.46875 -20.796875 20.265625 -20.09375 
Q 16.0625 -19.390625 12.109375 -17.921875 
L 12.109375 -9.1875 
Q 16.0625 -11.328125 19.921875 -12.34375 
Q 23.78125 -13.375 27.78125 -13.375 
Q 36.625 -13.375 41.015625 -8.765625 
Q 45.40625 -4.15625 45.40625 5.171875 
L 45.40625 9.625 
Q 42.625 4.78125 38.28125 2.390625 
Q 33.9375 0 27.875 0 
Q 17.828125 0 11.671875 7.65625 
Q 5.515625 15.328125 5.515625 27.984375 
Q 5.515625 40.671875 11.671875 48.328125 
Q 17.828125 56 27.875 56 
Q 33.9375 56 38.28125 53.609375 
Q 42.625 51.21875 45.40625 46.390625 
L 45.40625 54.6875 
L 54.390625 54.6875 
z
" id="DejaVuSans-103"/>
      <path d="M 12.40625 8.296875 
L 28.515625 8.296875 
L 28.515625 63.921875 
L 10.984375 60.40625 
L 10.984375 69.390625 
L 28.421875 72.90625 
L 38.28125 72.90625 
L 38.28125 8.296875 
L 54.390625 8.296875 
L 54.390625 0 
L 12.40625 0 
z
" id="DejaVuSans-49"/>
      <path d="M 31 75.875 
Q 24.46875 64.65625 21.28125 53.65625 
Q 18.109375 42.671875 18.109375 31.390625 
Q 18.109375 20.125 21.3125 9.0625 
Q 24.515625 -2 31 -13.1875 
L 23.1875 -13.1875 
Q 15.875 -1.703125 12.234375 9.375 
Q 8.59375 20.453125 8.59375 31.390625 
Q 8.59375 42.28125 12.203125 53.3125 
Q 15.828125 64.359375 23.1875 75.875 
z
" id="DejaVuSans-40"/>
      <path d="M 51.125 44 
L 36.921875 44 
L 32.8125 27.6875 
L 47.125 27.6875 
z
M 43.796875 71.78125 
L 38.71875 51.515625 
L 52.984375 51.515625 
L 58.109375 71.78125 
L 65.921875 71.78125 
L 60.890625 51.515625 
L 76.125 51.515625 
L 76.125 44 
L 58.984375 44 
L 54.984375 27.6875 
L 70.515625 27.6875 
L 70.515625 20.21875 
L 53.078125 20.21875 
L 48 0 
L 40.1875 0 
L 45.21875 20.21875 
L 30.90625 20.21875 
L 25.875 0 
L 18.015625 0 
L 23.09375 20.21875 
L 7.71875 20.21875 
L 7.71875 27.6875 
L 24.90625 27.6875 
L 29 44 
L 13.28125 44 
L 13.28125 51.515625 
L 30.90625 51.515625 
L 35.890625 71.78125 
z
" id="DejaVuSans-35"/>
      <path id="DejaVuSans-32"/>
      <path d="M 37.109375 75.984375 
L 37.109375 68.5 
L 28.515625 68.5 
Q 23.6875 68.5 21.796875 66.546875 
Q 19.921875 64.59375 19.921875 59.515625 
L 19.921875 54.6875 
L 34.71875 54.6875 
L 34.71875 47.703125 
L 19.921875 47.703125 
L 19.921875 0 
L 10.890625 0 
L 10.890625 47.703125 
L 2.296875 47.703125 
L 2.296875 54.6875 
L 10.890625 54.6875 
L 10.890625 58.5 
Q 10.890625 67.625 15.140625 71.796875 
Q 19.390625 75.984375 28.609375 75.984375 
z
" id="DejaVuSans-102"/>
      <path d="M 4.890625 31.390625 
L 31.203125 31.390625 
L 31.203125 23.390625 
L 4.890625 23.390625 
z
" id="DejaVuSans-45"/>
      <path d="M 56.203125 29.59375 
L 56.203125 25.203125 
L 14.890625 25.203125 
Q 15.484375 15.921875 20.484375 11.0625 
Q 25.484375 6.203125 34.421875 6.203125 
Q 39.59375 6.203125 44.453125 7.46875 
Q 49.3125 8.734375 54.109375 11.28125 
L 54.109375 2.78125 
Q 49.265625 0.734375 44.1875 -0.34375 
Q 39.109375 -1.421875 33.890625 -1.421875 
Q 20.796875 -1.421875 13.15625 6.1875 
Q 5.515625 13.8125 5.515625 26.8125 
Q 5.515625 40.234375 12.765625 48.109375 
Q 20.015625 56 32.328125 56 
Q 43.359375 56 49.78125 48.890625 
Q 56.203125 41.796875 56.203125 29.59375 
z
M 47.21875 32.234375 
Q 47.125 39.59375 43.09375 43.984375 
Q 39.0625 48.390625 32.421875 48.390625 
Q 24.90625 48.390625 20.390625 44.140625 
Q 15.875 39.890625 15.1875 32.171875 
z
" id="DejaVuSans-101"/>
      <path d="M 2.984375 54.6875 
L 12.5 54.6875 
L 29.59375 8.796875 
L 46.6875 54.6875 
L 56.203125 54.6875 
L 35.6875 0 
L 23.484375 0 
z
" id="DejaVuSans-118"/>
      <path d="M 34.28125 27.484375 
Q 23.390625 27.484375 19.1875 25 
Q 14.984375 22.515625 14.984375 16.5 
Q 14.984375 11.71875 18.140625 8.90625 
Q 21.296875 6.109375 26.703125 6.109375 
Q 34.1875 6.109375 38.703125 11.40625 
Q 43.21875 16.703125 43.21875 25.484375 
L 43.21875 27.484375 
z
M 52.203125 31.203125 
L 52.203125 0 
L 43.21875 0 
L 43.21875 8.296875 
Q 40.140625 3.328125 35.546875 0.953125 
Q 30.953125 -1.421875 24.3125 -1.421875 
Q 15.921875 -1.421875 10.953125 3.296875 
Q 6 8.015625 6 15.921875 
Q 6 25.140625 12.171875 29.828125 
Q 18.359375 34.515625 30.609375 34.515625 
L 43.21875 34.515625 
L 43.21875 35.40625 
Q 43.21875 41.609375 39.140625 45 
Q 35.0625 48.390625 27.6875 48.390625 
Q 23 48.390625 18.546875 47.265625 
Q 14.109375 46.140625 10.015625 43.890625 
L 10.015625 52.203125 
Q 14.9375 54.109375 19.578125 55.046875 
Q 24.21875 56 28.609375 56 
Q 40.484375 56 46.34375 49.84375 
Q 52.203125 43.703125 52.203125 31.203125 
z
" id="DejaVuSans-97"/>
      <path d="M 44.28125 53.078125 
L 44.28125 44.578125 
Q 40.484375 46.53125 36.375 47.5 
Q 32.28125 48.484375 27.875 48.484375 
Q 21.1875 48.484375 17.84375 46.4375 
Q 14.5 44.390625 14.5 40.28125 
Q 14.5 37.15625 16.890625 35.375 
Q 19.28125 33.59375 26.515625 31.984375 
L 29.59375 31.296875 
Q 39.15625 29.25 43.1875 25.515625 
Q 47.21875 21.78125 47.21875 15.09375 
Q 47.21875 7.46875 41.1875 3.015625 
Q 35.15625 -1.421875 24.609375 -1.421875 
Q 20.21875 -1.421875 15.453125 -0.5625 
Q 10.6875 0.296875 5.421875 2 
L 5.421875 11.28125 
Q 10.40625 8.6875 15.234375 7.390625 
Q 20.0625 6.109375 24.8125 6.109375 
Q 31.15625 6.109375 34.5625 8.28125 
Q 37.984375 10.453125 37.984375 14.40625 
Q 37.984375 18.0625 35.515625 20.015625 
Q 33.0625 21.96875 24.703125 23.78125 
L 21.578125 24.515625 
Q 13.234375 26.265625 9.515625 29.90625 
Q 5.8125 33.546875 5.8125 39.890625 
Q 5.8125 47.609375 11.28125 51.796875 
Q 16.75 56 26.8125 56 
Q 31.78125 56 36.171875 55.265625 
Q 40.578125 54.546875 44.28125 53.078125 
z
" id="DejaVuSans-115"/>
      <path d="M 25.390625 72.90625 
L 33.6875 72.90625 
L 8.296875 -9.28125 
L 0 -9.28125 
z
" id="DejaVuSans-47"/>
      <path d="M 45.40625 46.390625 
L 45.40625 75.984375 
L 54.390625 75.984375 
L 54.390625 0 
L 45.40625 0 
L 45.40625 8.203125 
Q 42.578125 3.328125 38.25 0.953125 
Q 33.9375 -1.421875 27.875 -1.421875 
Q 17.96875 -1.421875 11.734375 6.484375 
Q 5.515625 14.40625 5.515625 27.296875 
Q 5.515625 40.1875 11.734375 48.09375 
Q 17.96875 56 27.875 56 
Q 33.9375 56 38.25 53.625 
Q 42.578125 51.265625 45.40625 46.390625 
z
M 14.796875 27.296875 
Q 14.796875 17.390625 18.875 11.75 
Q 22.953125 6.109375 30.078125 6.109375 
Q 37.203125 6.109375 41.296875 11.75 
Q 45.40625 17.390625 45.40625 27.296875 
Q 45.40625 37.203125 41.296875 42.84375 
Q 37.203125 48.484375 30.078125 48.484375 
Q 22.953125 48.484375 18.875 42.84375 
Q 14.796875 37.203125 14.796875 27.296875 
z
" id="DejaVuSans-100"/>
      <path d="M 9.421875 54.6875 
L 18.40625 54.6875 
L 18.40625 0 
L 9.421875 0 
z
M 9.421875 75.984375 
L 18.40625 75.984375 
L 18.40625 64.59375 
L 9.421875 64.59375 
z
" id="DejaVuSans-105"/>
      <path d="M 52 44.1875 
Q 55.375 50.25 60.0625 53.125 
Q 64.75 56 71.09375 56 
Q 79.640625 56 84.28125 50.015625 
Q 88.921875 44.046875 88.921875 33.015625 
L 88.921875 0 
L 79.890625 0 
L 79.890625 32.71875 
Q 79.890625 40.578125 77.09375 44.375 
Q 74.3125 48.1875 68.609375 48.1875 
Q 61.625 48.1875 57.5625 43.546875 
Q 53.515625 38.921875 53.515625 30.90625 
L 53.515625 0 
L 44.484375 0 
L 44.484375 32.71875 
Q 44.484375 40.625 41.703125 44.40625 
Q 38.921875 48.1875 33.109375 48.1875 
Q 26.21875 48.1875 22.15625 43.53125 
Q 18.109375 38.875 18.109375 30.90625 
L 18.109375 0 
L 9.078125 0 
L 9.078125 54.6875 
L 18.109375 54.6875 
L 18.109375 46.1875 
Q 21.1875 51.21875 25.484375 53.609375 
Q 29.78125 56 35.6875 56 
Q 41.65625 56 45.828125 52.96875 
Q 50 49.953125 52 44.1875 
z
" id="DejaVuSans-109"/>
      <path d="M 54.890625 33.015625 
L 54.890625 0 
L 45.90625 0 
L 45.90625 32.71875 
Q 45.90625 40.484375 42.875 44.328125 
Q 39.84375 48.1875 33.796875 48.1875 
Q 26.515625 48.1875 22.3125 43.546875 
Q 18.109375 38.921875 18.109375 30.90625 
L 18.109375 0 
L 9.078125 0 
L 9.078125 54.6875 
L 18.109375 54.6875 
L 18.109375 46.1875 
Q 21.34375 51.125 25.703125 53.5625 
Q 30.078125 56 35.796875 56 
Q 45.21875 56 50.046875 50.171875 
Q 54.890625 44.34375 54.890625 33.015625 
z
" id="DejaVuSans-110"/>
      <path d="M 8.015625 75.875 
L 15.828125 75.875 
Q 23.140625 64.359375 26.78125 53.3125 
Q 30.421875 42.28125 30.421875 31.390625 
Q 30.421875 20.453125 26.78125 9.375 
Q 23.140625 -1.703125 15.828125 -13.1875 
L 8.015625 -13.1875 
Q 14.5 -2 17.703125 9.0625 
Q 20.90625 20.125 20.90625 31.390625 
Q 20.90625 42.671875 17.703125 53.65625 
Q 14.5 64.65625 8.015625 75.875 
z
" id="DejaVuSans-41"/>
     </defs>
     <g transform="translate(77.303219 342.217594)scale(0.17 -0.17)">
      <use xlink:href="#DejaVuSans-108"/>
      <use x="27.783203" xlink:href="#DejaVuSans-111"/>
      <use x="88.964844" xlink:href="#DejaVuSans-103"/>
      <use x="152.441406" xlink:href="#DejaVuSans-49"/>
      <use x="216.064453" xlink:href="#DejaVuSans-48"/>
      <use x="279.6875" xlink:href="#DejaVuSans-40"/>
      <use x="318.701172" xlink:href="#DejaVuSans-35"/>
      <use x="402.490234" xlink:href="#DejaVuSans-32"/>
      <use x="434.277344" xlink:href="#DejaVuSans-102"/>
      <use x="469.404297" xlink:href="#DejaVuSans-45"/>
      <use x="505.488281" xlink:href="#DejaVuSans-101"/>
      <use x="567.011719" xlink:href="#DejaVuSans-118"/>
      <use x="626.191406" xlink:href="#DejaVuSans-97"/>
      <use x="687.470703" xlink:href="#DejaVuSans-108"/>
      <use x="715.253906" xlink:href="#DejaVuSans-115"/>
      <use x="767.353516" xlink:href="#DejaVuSans-32"/>
      <use x="799.140625" xlink:href="#DejaVuSans-47"/>
      <use x="832.832031" xlink:href="#DejaVuSans-32"/>
      <use x="864.619141" xlink:href="#DejaVuSans-100"/>
      <use x="928.095703" xlink:href="#DejaVuSans-105"/>
      <use x="955.878906" xlink:href="#DejaVuSans-109"/>
      <use x="1053.291016" xlink:href="#DejaVuSans-101"/>
      <use x="1114.814453" xlink:href="#DejaVuSans-110"/>
      <use x="1178.193359" xlink:href="#DejaVuSans-115"/>
      <use x="1230.292969" xlink:href="#DejaVuSans-105"/>
      <use x="1258.076172" xlink:href="#DejaVuSans-111"/>
      <use x="1319.257812" xlink:href="#DejaVuSans-110"/>
      <use x="1382.636719" xlink:href="#DejaVuSans-41"/>
     </g>
    </g>
   </g>
   <g id="matplotlib.axis_2">
    <g id="ytick_1">
     <g id="line2d_21">
      <path clip-path="url(#pd72117c7bf)" d="M 57.6 298.944 
L 338.688 298.944 
" style="fill:none;stroke:#b0b0b0;stroke-linecap:square;stroke-width:0.8;"/>
     </g>
     <g id="line2d_22">
      <defs>
       <path d="M 0 0 
L -3.5 0 
" id="m125b65a4cc" style="stroke:#000000;stroke-width:0.8;"/>
      </defs>
      <g>
       <use style="stroke:#000000;stroke-width:0.8;" x="57.6" xlink:href="#m125b65a4cc" y="298.944"/>
      </g>
     </g>
     <g id="text_6">
      <!-- 0.0 -->
      <defs>
       <path d="M 10.6875 12.40625 
L 21 12.40625 
L 21 0 
L 10.6875 0 
z
" id="DejaVuSans-46"/>
      </defs>
      <g transform="translate(25.155 305.02275)scale(0.16 -0.16)">
       <use xlink:href="#DejaVuSans-48"/>
       <use x="63.623047" xlink:href="#DejaVuSans-46"/>
       <use x="95.410156" xlink:href="#DejaVuSans-48"/>
      </g>
     </g>
    </g>
    <g id="ytick_2">
     <g id="line2d_23">
      <path clip-path="url(#pd72117c7bf)" d="M 57.6 245.22202 
L 338.688 245.22202 
" style="fill:none;stroke:#b0b0b0;stroke-linecap:square;stroke-width:0.8;"/>
     </g>
     <g id="line2d_24">
      <g>
       <use style="stroke:#000000;stroke-width:0.8;" x="57.6" xlink:href="#m125b65a4cc" y="245.22202"/>
      </g>
     </g>
     <g id="text_7">
      <!-- 0.2 -->
      <g transform="translate(25.155 251.30077)scale(0.16 -0.16)">
       <use xlink:href="#DejaVuSans-48"/>
       <use x="63.623047" xlink:href="#DejaVuSans-46"/>
       <use x="95.410156" xlink:href="#DejaVuSans-50"/>
      </g>
     </g>
    </g>
    <g id="ytick_3">
     <g id="line2d_25">
      <path clip-path="url(#pd72117c7bf)" d="M 57.6 191.50004 
L 338.688 191.50004 
" style="fill:none;stroke:#b0b0b0;stroke-linecap:square;stroke-width:0.8;"/>
     </g>
     <g id="line2d_26">
      <g>
       <use style="stroke:#000000;stroke-width:0.8;" x="57.6" xlink:href="#m125b65a4cc" y="191.50004"/>
      </g>
     </g>
     <g id="text_8">
      <!-- 0.4 -->
      <g transform="translate(25.155 197.57879)scale(0.16 -0.16)">
       <use xlink:href="#DejaVuSans-48"/>
       <use x="63.623047" xlink:href="#DejaVuSans-46"/>
       <use x="95.410156" xlink:href="#DejaVuSans-52"/>
      </g>
     </g>
    </g>
    <g id="ytick_4">
     <g id="line2d_27">
      <path clip-path="url(#pd72117c7bf)" d="M 57.6 137.778059 
L 338.688 137.778059 
" style="fill:none;stroke:#b0b0b0;stroke-linecap:square;stroke-width:0.8;"/>
     </g>
     <g id="line2d_28">
      <g>
       <use style="stroke:#000000;stroke-width:0.8;" x="57.6" xlink:href="#m125b65a4cc" y="137.778059"/>
      </g>
     </g>
     <g id="text_9">
      <!-- 0.6 -->
      <g transform="translate(25.155 143.856809)scale(0.16 -0.16)">
       <use xlink:href="#DejaVuSans-48"/>
       <use x="63.623047" xlink:href="#DejaVuSans-46"/>
       <use x="95.410156" xlink:href="#DejaVuSans-54"/>
      </g>
     </g>
    </g>
    <g id="ytick_5">
     <g id="line2d_29">
      <path clip-path="url(#pd72117c7bf)" d="M 57.6 84.056079 
L 338.688 84.056079 
" style="fill:none;stroke:#b0b0b0;stroke-linecap:square;stroke-width:0.8;"/>
     </g>
     <g id="line2d_30">
      <g>
       <use style="stroke:#000000;stroke-width:0.8;" x="57.6" xlink:href="#m125b65a4cc" y="84.056079"/>
      </g>
     </g>
     <g id="text_10">
      <!-- 0.8 -->
      <defs>
       <path d="M 31.78125 34.625 
Q 24.75 34.625 20.71875 30.859375 
Q 16.703125 27.09375 16.703125 20.515625 
Q 16.703125 13.921875 20.71875 10.15625 
Q 24.75 6.390625 31.78125 6.390625 
Q 38.8125 6.390625 42.859375 10.171875 
Q 46.921875 13.96875 46.921875 20.515625 
Q 46.921875 27.09375 42.890625 30.859375 
Q 38.875 34.625 31.78125 34.625 
z
M 21.921875 38.8125 
Q 15.578125 40.375 12.03125 44.71875 
Q 8.5 49.078125 8.5 55.328125 
Q 8.5 64.0625 14.71875 69.140625 
Q 20.953125 74.21875 31.78125 74.21875 
Q 42.671875 74.21875 48.875 69.140625 
Q 55.078125 64.0625 55.078125 55.328125 
Q 55.078125 49.078125 51.53125 44.71875 
Q 48 40.375 41.703125 38.8125 
Q 48.828125 37.15625 52.796875 32.3125 
Q 56.78125 27.484375 56.78125 20.515625 
Q 56.78125 9.90625 50.3125 4.234375 
Q 43.84375 -1.421875 31.78125 -1.421875 
Q 19.734375 -1.421875 13.25 4.234375 
Q 6.78125 9.90625 6.78125 20.515625 
Q 6.78125 27.484375 10.78125 32.3125 
Q 14.796875 37.15625 21.921875 38.8125 
z
M 18.3125 54.390625 
Q 18.3125 48.734375 21.84375 45.5625 
Q 25.390625 42.390625 31.78125 42.390625 
Q 38.140625 42.390625 41.71875 45.5625 
Q 45.3125 48.734375 45.3125 54.390625 
Q 45.3125 60.0625 41.71875 63.234375 
Q 38.140625 66.40625 31.78125 66.40625 
Q 25.390625 66.40625 21.84375 63.234375 
Q 18.3125 60.0625 18.3125 54.390625 
z
" id="DejaVuSans-56"/>
      </defs>
      <g transform="translate(25.155 90.134829)scale(0.16 -0.16)">
       <use xlink:href="#DejaVuSans-48"/>
       <use x="63.623047" xlink:href="#DejaVuSans-46"/>
       <use x="95.410156" xlink:href="#DejaVuSans-56"/>
      </g>
     </g>
    </g>
    <g id="ytick_6">
     <g id="line2d_31">
      <path clip-path="url(#pd72117c7bf)" d="M 57.6 30.334099 
L 338.688 30.334099 
" style="fill:none;stroke:#b0b0b0;stroke-linecap:square;stroke-width:0.8;"/>
     </g>
     <g id="line2d_32">
      <g>
       <use style="stroke:#000000;stroke-width:0.8;" x="57.6" xlink:href="#m125b65a4cc" y="30.334099"/>
      </g>
     </g>
     <g id="text_11">
      <!-- 1.0 -->
      <g transform="translate(25.155 36.412849)scale(0.16 -0.16)">
       <use xlink:href="#DejaVuSans-49"/>
       <use x="63.623047" xlink:href="#DejaVuSans-46"/>
       <use x="95.410156" xlink:href="#DejaVuSans-48"/>
      </g>
     </g>
    </g>
    <g id="text_12">
     <!-- Fraction of function,target pairs -->
     <defs>
      <path d="M 9.8125 72.90625 
L 51.703125 72.90625 
L 51.703125 64.59375 
L 19.671875 64.59375 
L 19.671875 43.109375 
L 48.578125 43.109375 
L 48.578125 34.8125 
L 19.671875 34.8125 
L 19.671875 0 
L 9.8125 0 
z
" id="DejaVuSans-70"/>
      <path d="M 41.109375 46.296875 
Q 39.59375 47.171875 37.8125 47.578125 
Q 36.03125 48 33.890625 48 
Q 26.265625 48 22.1875 43.046875 
Q 18.109375 38.09375 18.109375 28.8125 
L 18.109375 0 
L 9.078125 0 
L 9.078125 54.6875 
L 18.109375 54.6875 
L 18.109375 46.1875 
Q 20.953125 51.171875 25.484375 53.578125 
Q 30.03125 56 36.53125 56 
Q 37.453125 56 38.578125 55.875 
Q 39.703125 55.765625 41.0625 55.515625 
z
" id="DejaVuSans-114"/>
      <path d="M 48.78125 52.59375 
L 48.78125 44.1875 
Q 44.96875 46.296875 41.140625 47.34375 
Q 37.3125 48.390625 33.40625 48.390625 
Q 24.65625 48.390625 19.8125 42.84375 
Q 14.984375 37.3125 14.984375 27.296875 
Q 14.984375 17.28125 19.8125 11.734375 
Q 24.65625 6.203125 33.40625 6.203125 
Q 37.3125 6.203125 41.140625 7.25 
Q 44.96875 8.296875 48.78125 10.40625 
L 48.78125 2.09375 
Q 45.015625 0.34375 40.984375 -0.53125 
Q 36.96875 -1.421875 32.421875 -1.421875 
Q 20.0625 -1.421875 12.78125 6.34375 
Q 5.515625 14.109375 5.515625 27.296875 
Q 5.515625 40.671875 12.859375 48.328125 
Q 20.21875 56 33.015625 56 
Q 37.15625 56 41.109375 55.140625 
Q 45.0625 54.296875 48.78125 52.59375 
z
" id="DejaVuSans-99"/>
      <path d="M 18.3125 70.21875 
L 18.3125 54.6875 
L 36.8125 54.6875 
L 36.8125 47.703125 
L 18.3125 47.703125 
L 18.3125 18.015625 
Q 18.3125 11.328125 20.140625 9.421875 
Q 21.96875 7.515625 27.59375 7.515625 
L 36.8125 7.515625 
L 36.8125 0 
L 27.59375 0 
Q 17.1875 0 13.234375 3.875 
Q 9.28125 7.765625 9.28125 18.015625 
L 9.28125 47.703125 
L 2.6875 47.703125 
L 2.6875 54.6875 
L 9.28125 54.6875 
L 9.28125 70.21875 
z
" id="DejaVuSans-116"/>
      <path d="M 8.5 21.578125 
L 8.5 54.6875 
L 17.484375 54.6875 
L 17.484375 21.921875 
Q 17.484375 14.15625 20.5 10.265625 
Q 23.53125 6.390625 29.59375 6.390625 
Q 36.859375 6.390625 41.078125 11.03125 
Q 45.3125 15.671875 45.3125 23.6875 
L 45.3125 54.6875 
L 54.296875 54.6875 
L 54.296875 0 
L 45.3125 0 
L 45.3125 8.40625 
Q 42.046875 3.421875 37.71875 1 
Q 33.40625 -1.421875 27.6875 -1.421875 
Q 18.265625 -1.421875 13.375 4.4375 
Q 8.5 10.296875 8.5 21.578125 
z
M 31.109375 56 
z
" id="DejaVuSans-117"/>
      <path d="M 11.71875 12.40625 
L 22.015625 12.40625 
L 22.015625 4 
L 14.015625 -11.625 
L 7.71875 -11.625 
L 11.71875 4 
z
" id="DejaVuSans-44"/>
      <path d="M 18.109375 8.203125 
L 18.109375 -20.796875 
L 9.078125 -20.796875 
L 9.078125 54.6875 
L 18.109375 54.6875 
L 18.109375 46.390625 
Q 20.953125 51.265625 25.265625 53.625 
Q 29.59375 56 35.59375 56 
Q 45.5625 56 51.78125 48.09375 
Q 58.015625 40.1875 58.015625 27.296875 
Q 58.015625 14.40625 51.78125 6.484375 
Q 45.5625 -1.421875 35.59375 -1.421875 
Q 29.59375 -1.421875 25.265625 0.953125 
Q 20.953125 3.328125 18.109375 8.203125 
z
M 48.6875 27.296875 
Q 48.6875 37.203125 44.609375 42.84375 
Q 40.53125 48.484375 33.40625 48.484375 
Q 26.265625 48.484375 22.1875 42.84375 
Q 18.109375 37.203125 18.109375 27.296875 
Q 18.109375 17.390625 22.1875 11.75 
Q 26.265625 6.109375 33.40625 6.109375 
Q 40.53125 6.109375 44.609375 11.75 
Q 48.6875 17.390625 48.6875 27.296875 
z
" id="DejaVuSans-112"/>
     </defs>
     <g transform="translate(17.619531 298.435375)rotate(-90)scale(0.17 -0.17)">
      <use xlink:href="#DejaVuSans-70"/>
      <use x="57.410156" xlink:href="#DejaVuSans-114"/>
      <use x="98.523438" xlink:href="#DejaVuSans-97"/>
      <use x="159.802734" xlink:href="#DejaVuSans-99"/>
      <use x="214.783203" xlink:href="#DejaVuSans-116"/>
      <use x="253.992188" xlink:href="#DejaVuSans-105"/>
      <use x="281.775391" xlink:href="#DejaVuSans-111"/>
      <use x="342.957031" xlink:href="#DejaVuSans-110"/>
      <use x="406.335938" xlink:href="#DejaVuSans-32"/>
      <use x="438.123047" xlink:href="#DejaVuSans-111"/>
      <use x="499.304688" xlink:href="#DejaVuSans-102"/>
      <use x="534.509766" xlink:href="#DejaVuSans-32"/>
      <use x="566.296875" xlink:href="#DejaVuSans-102"/>
      <use x="601.501953" xlink:href="#DejaVuSans-117"/>
      <use x="664.880859" xlink:href="#DejaVuSans-110"/>
      <use x="728.259766" xlink:href="#DejaVuSans-99"/>
      <use x="783.240234" xlink:href="#DejaVuSans-116"/>
      <use x="822.449219" xlink:href="#DejaVuSans-105"/>
      <use x="850.232422" xlink:href="#DejaVuSans-111"/>
      <use x="911.414062" xlink:href="#DejaVuSans-110"/>
      <use x="974.792969" xlink:href="#DejaVuSans-44"/>
      <use x="1006.580078" xlink:href="#DejaVuSans-116"/>
      <use x="1045.789062" xlink:href="#DejaVuSans-97"/>
      <use x="1107.068359" xlink:href="#DejaVuSans-114"/>
      <use x="1148.166016" xlink:href="#DejaVuSans-103"/>
      <use x="1211.642578" xlink:href="#DejaVuSans-101"/>
      <use x="1273.166016" xlink:href="#DejaVuSans-116"/>
      <use x="1312.375" xlink:href="#DejaVuSans-32"/>
      <use x="1344.162109" xlink:href="#DejaVuSans-112"/>
      <use x="1407.638672" xlink:href="#DejaVuSans-97"/>
      <use x="1468.917969" xlink:href="#DejaVuSans-105"/>
      <use x="1496.701172" xlink:href="#DejaVuSans-114"/>
      <use x="1537.814453" xlink:href="#DejaVuSans-115"/>
     </g>
    </g>
   </g>
   <g id="line2d_33">
    <defs>
     <path d="M 0 1.5 
C 0.397805 1.5 0.77937 1.341951 1.06066 1.06066 
C 1.341951 0.77937 1.5 0.397805 1.5 0 
C 1.5 -0.397805 1.341951 -0.77937 1.06066 -1.06066 
C 0.77937 -1.341951 0.397805 -1.5 0 -1.5 
C -0.397805 -1.5 -0.77937 -1.341951 -1.06066 -1.06066 
C -1.341951 -0.77937 -1.5 -0.397805 -1.5 0 
C -1.5 0.397805 -1.341951 0.77937 -1.06066 1.06066 
C -0.77937 1.341951 -0.397805 1.5 0 1.5 
z
" id="m2eacf17f61" style="stroke:#f5deb3;"/>
    </defs>
    <g>
     <use style="fill:#f5deb3;stroke:#f5deb3;" x="110.358901" xlink:href="#m2eacf17f61" y="30.334099"/>
     <use style="fill:#f5deb3;stroke:#f5deb3;" x="110.358901" xlink:href="#m2eacf17f61" y="30.334099"/>
    </g>
   </g>
   <g id="line2d_34">
    <defs>
     <path d="M 0 1.5 
C 0.397805 1.5 0.77937 1.341951 1.06066 1.06066 
C 1.341951 0.77937 1.5 0.397805 1.5 0 
C 1.5 -0.397805 1.341951 -0.77937 1.06066 -1.06066 
C 0.77937 -1.341951 0.397805 -1.5 0 -1.5 
C -0.397805 -1.5 -0.77937 -1.341951 -1.06066 -1.06066 
C -1.341951 -0.77937 -1.5 -0.397805 -1.5 0 
C -1.5 0.397805 -1.341951 0.77937 -1.06066 1.06066 
C -0.77937 1.341951 -0.397805 1.5 0 1.5 
z
" id="m7b8467302b" style="stroke:#000080;"/>
    </defs>
    <g>
     <use style="fill:#000080;stroke:#000080;" x="171.763723" xlink:href="#m7b8467302b" y="30.334099"/>
     <use style="fill:#000080;stroke:#000080;" x="171.763723" xlink:href="#m7b8467302b" y="30.334099"/>
    </g>
   </g>
   <g id="line2d_35">
    <path d="M 153.879842 298.944 
L 153.879842 298.417314 
L 154.480132 298.417314 
L 154.480132 297.890628 
L 154.863648 297.890628 
L 154.89331 296.837256 
L 154.995093 296.837256 
L 154.995093 296.31057 
L 155.148284 296.31057 
L 155.148284 295.783884 
L 155.729115 295.783884 
L 155.729115 295.257197 
L 156.571609 295.257197 
L 156.571609 294.203825 
L 156.72644 294.203825 
L 156.72644 293.677139 
L 156.897531 293.677139 
L 156.915134 292.623767 
L 157.249147 292.623767 
L 157.249147 292.097081 
L 157.372413 292.097081 
L 157.37527 291.043709 
L 157.942862 291.043709 
L 157.942862 290.517023 
L 158.241633 290.517023 
L 158.241633 289.990337 
L 158.874111 289.990337 
L 158.874111 289.463651 
L 159.022865 289.463651 
L 159.1265 287.356906 
L 159.3651 287.356906 
L 159.426147 285.776848 
L 159.519846 285.776848 
L 159.519846 285.250162 
L 159.748174 285.250162 
L 159.748174 284.723476 
L 159.929202 284.723476 
L 159.961244 283.670104 
L 160.101044 283.670104 
L 160.20577 282.616732 
L 160.234884 282.616732 
L 160.244578 281.563359 
L 160.582889 281.563359 
L 160.590016 280.509987 
L 160.77901 280.509987 
L 160.828284 279.456615 
L 161.033263 279.456615 
L 161.037893 278.403243 
L 161.208371 278.403243 
L 161.208371 277.876557 
L 161.447441 277.876557 
L 161.449702 276.823185 
L 161.569126 276.823185 
L 161.569126 276.296499 
L 161.896143 276.296499 
L 161.97969 275.243126 
L 162.095552 275.243126 
L 162.204154 274.189754 
L 162.221468 274.189754 
L 162.245246 273.136382 
L 162.374379 273.136382 
L 162.449267 271.029638 
L 162.615012 271.029638 
L 162.684664 269.976266 
L 162.791763 269.976266 
L 162.894047 268.922893 
L 162.921083 268.922893 
L 162.921083 268.396207 
L 163.189163 268.396207 
L 163.289148 266.816149 
L 163.34197 266.816149 
L 163.445119 264.709405 
L 163.497471 264.709405 
L 163.513548 263.656033 
L 163.629664 263.656033 
L 163.629664 263.129347 
L 163.800424 263.129347 
L 163.87338 262.075974 
L 163.924464 262.075974 
L 164.006669 261.022602 
L 164.10403 261.022602 
L 164.177663 258.915858 
L 164.220151 258.915858 
L 164.295217 257.3358 
L 164.463418 257.3358 
L 164.53934 256.282427 
L 164.607388 256.282427 
L 164.607388 255.755741 
L 164.72209 255.755741 
L 164.72209 255.229055 
L 164.865808 255.229055 
L 164.882529 254.175683 
L 165.010195 254.175683 
L 165.010195 253.648997 
L 165.131442 253.648997 
L 165.233662 252.068939 
L 165.255488 252.068939 
L 165.337095 249.962195 
L 165.391288 249.962195 
L 165.488412 247.85545 
L 165.54035 247.85545 
L 165.54035 247.328764 
L 165.661531 247.328764 
L 165.730653 244.695334 
L 165.788929 244.695334 
L 165.871592 243.641962 
L 165.955611 243.641962 
L 166.053125 241.008531 
L 166.118986 241.008531 
L 166.193215 238.901787 
L 166.232789 238.901787 
L 166.330478 236.795043 
L 166.349268 236.795043 
L 166.417424 234.688298 
L 166.461582 234.688298 
L 166.566435 233.10824 
L 166.581603 233.10824 
L 166.687413 232.054868 
L 166.722541 232.054868 
L 166.812546 229.421437 
L 166.890507 229.421437 
L 166.958233 226.788007 
L 167.002689 226.788007 
L 167.11252 224.154577 
L 167.130486 224.154577 
L 167.233027 220.467774 
L 167.296204 220.467774 
L 167.397779 217.307658 
L 167.44594 217.307658 
L 167.553023 214.147541 
L 167.591222 214.147541 
L 167.694258 210.987425 
L 167.713214 210.987425 
L 167.801403 207.827308 
L 167.834359 207.827308 
L 167.926618 205.193878 
L 167.951554 205.193878 
L 168.057134 200.453703 
L 168.066419 200.453703 
L 168.177458 195.713528 
L 168.188216 195.713528 
L 168.266395 192.553412 
L 168.306117 192.553412 
L 168.412612 187.813237 
L 168.424741 187.813237 
L 168.535036 184.126434 
L 168.536542 184.126434 
L 168.634157 180.439632 
L 168.683507 180.439632 
L 168.780305 177.279515 
L 168.799601 177.279515 
L 168.900184 172.012655 
L 168.929657 172.012655 
L 169.011918 168.852538 
L 169.041203 168.852538 
L 169.146224 162.532305 
L 169.159307 162.532305 
L 169.256398 154.632014 
L 169.270843 154.632014 
L 169.380234 147.785095 
L 169.394577 147.785095 
L 169.503198 141.464862 
L 169.514592 141.464862 
L 169.623885 135.671315 
L 169.62813 135.671315 
L 169.73531 127.771024 
L 169.750768 127.771024 
L 169.854407 120.924105 
L 169.880918 120.924105 
L 169.983788 113.5505 
L 169.996258 113.5505 
L 170.105336 106.703581 
L 170.109465 106.703581 
L 170.219207 98.276603 
L 170.239707 98.276603 
L 170.341846 90.902998 
L 170.35949 90.902998 
L 170.467674 85.109451 
L 170.474414 85.109451 
L 170.583229 78.262532 
L 170.603306 78.262532 
L 170.704674 70.362241 
L 170.717968 70.362241 
L 170.822637 63.515322 
L 170.829241 63.515322 
L 170.939808 55.615031 
L 170.950302 55.615031 
L 171.044462 48.768112 
L 171.096555 48.768112 
L 171.192518 41.921193 
L 171.244171 41.921193 
L 171.349583 37.707704 
L 171.379036 37.707704 
L 171.482367 34.020902 
L 171.510327 34.020902 
L 171.573705 32.440843 
L 171.636855 32.440843 
L 171.714844 30.860785 
L 171.763723 30.860785 
L 171.763723 30.334099 
L 338.688 30.334099 
L 338.688 30.334099 
" style="fill:none;stroke:#000080;stroke-linecap:square;stroke-width:1.5;"/>
   </g>
   <g id="line2d_36">
    <defs>
     <path d="M 0 6 
C 1.591219 6 3.117479 5.367802 4.242641 4.242641 
C 5.367802 3.117479 6 1.591219 6 0 
C 6 -1.591219 5.367802 -3.117479 4.242641 -4.242641 
C 3.117479 -5.367802 1.591219 -6 0 -6 
C -1.591219 -6 -3.117479 -5.367802 -4.242641 -4.242641 
C -5.367802 -3.117479 -6 -1.591219 -6 0 
C -6 1.591219 -5.367802 3.117479 -4.242641 4.242641 
C -3.117479 5.367802 -1.591219 6 0 6 
z
" id="m56e042b2e4" style="stroke:#000080;stroke-width:1.5;"/>
    </defs>
    <g>
     <use style="fill-opacity:0;stroke:#000080;stroke-width:1.5;" x="169.830653" xlink:href="#m56e042b2e4" y="123.030849"/>
     <use style="fill-opacity:0;stroke:#000080;stroke-width:1.5;" x="171.763723" xlink:href="#m56e042b2e4" y="30.334099"/>
     <use style="fill-opacity:0;stroke:#000080;stroke-width:1.5;" x="171.763723" xlink:href="#m56e042b2e4" y="30.334099"/>
     <use style="fill-opacity:0;stroke:#000080;stroke-width:1.5;" x="338.688" xlink:href="#m56e042b2e4" y="30.334099"/>
    </g>
   </g>
   <g id="line2d_37">
    <path style="fill:none;stroke:#000080;stroke-linecap:square;stroke-width:1.5;"/>
    <g/>
   </g>
   <g id="line2d_38">
    <g>
     <use style="fill:#000080;stroke:#000080;" x="171.931871" xlink:href="#m7b8467302b" y="30.334099"/>
     <use style="fill:#000080;stroke:#000080;" x="171.931871" xlink:href="#m7b8467302b" y="30.334099"/>
    </g>
   </g>
   <g id="line2d_39">
    <path d="M 154.197998 298.944 
L 154.197998 298.417314 
L 156.871092 298.417314 
L 156.871092 297.890628 
L 157.058236 297.890628 
L 157.058236 297.363942 
L 157.358125 297.363942 
L 157.358125 296.837256 
L 157.669802 296.837256 
L 157.725877 295.783884 
L 158.099738 295.783884 
L 158.099738 295.257197 
L 158.317562 295.257197 
L 158.341898 294.203825 
L 158.655211 294.203825 
L 158.755771 293.150453 
L 158.879352 293.150453 
L 158.955169 291.570395 
L 159.028061 291.570395 
L 159.0618 290.517023 
L 159.154893 290.517023 
L 159.154893 289.990337 
L 159.311507 289.990337 
L 159.311507 289.463651 
L 159.436301 289.463651 
L 159.436301 288.936964 
L 159.570285 288.936964 
L 159.570285 288.410278 
L 159.695748 288.410278 
L 159.7905 287.356906 
L 159.889686 287.356906 
L 159.931669 285.776848 
L 160.234884 285.776848 
L 160.312284 284.723476 
L 160.468454 284.723476 
L 160.504296 283.143418 
L 160.635088 283.143418 
L 160.635088 282.616732 
L 160.783709 282.616732 
L 160.872745 280.509987 
L 161.042523 280.509987 
L 161.042523 279.983301 
L 161.297551 279.983301 
L 161.395353 277.349871 
L 161.494864 277.349871 
L 161.580351 276.296499 
L 161.656485 276.296499 
L 161.761186 274.71644 
L 161.774507 274.71644 
L 161.774507 274.189754 
L 161.997228 274.189754 
L 162.078112 272.609696 
L 162.227956 272.609696 
L 162.309932 271.556324 
L 162.438588 271.556324 
L 162.438588 271.029638 
L 162.566302 271.029638 
L 162.610782 269.449579 
L 162.741445 269.449579 
L 162.741445 268.922893 
L 162.856543 268.922893 
L 162.912768 267.342835 
L 162.970886 267.342835 
L 163.068006 266.289463 
L 163.150238 266.289463 
L 163.223916 265.236091 
L 163.264715 265.236091 
L 163.264715 264.709405 
L 163.424942 264.709405 
L 163.424942 264.182719 
L 163.557683 264.182719 
L 163.597709 263.129347 
L 163.671516 263.129347 
L 163.776697 260.495916 
L 163.78461 260.495916 
L 163.885182 258.915858 
L 163.996903 258.915858 
L 164.107914 257.3358 
L 164.115677 257.3358 
L 164.218222 255.755741 
L 164.287532 255.755741 
L 164.383342 253.122311 
L 164.491927 253.122311 
L 164.590401 251.015567 
L 164.607388 251.015567 
L 164.697709 248.908822 
L 164.767012 248.908822 
L 164.865808 246.802078 
L 164.923336 246.802078 
L 165.010195 245.22202 
L 165.06725 245.22202 
L 165.153397 243.115275 
L 165.1954 243.115275 
L 165.293619 241.535217 
L 165.356985 241.535217 
L 165.461488 239.955159 
L 165.470467 239.955159 
L 165.470467 239.428473 
L 165.633093 239.428473 
L 165.712956 237.321729 
L 165.758932 237.321729 
L 165.758932 236.795043 
L 165.871592 236.795043 
L 165.980041 234.688298 
L 166.018362 234.688298 
L 166.110335 232.054868 
L 166.20699 232.054868 
L 166.306535 228.368065 
L 166.408919 228.368065 
L 166.51916 226.788007 
L 166.556315 226.788007 
L 166.64718 225.734635 
L 166.672336 225.734635 
L 166.754262 223.101204 
L 166.787591 223.101204 
L 166.810883 222.047832 
L 167.035547 222.047832 
L 167.132118 219.941088 
L 167.223287 219.941088 
L 167.323672 218.887716 
L 167.344647 218.887716 
L 167.452352 217.834344 
L 167.485973 217.834344 
L 167.540272 214.147541 
L 167.661036 214.147541 
L 167.755789 212.567483 
L 167.782543 212.567483 
L 167.882895 209.934052 
L 167.903209 209.934052 
L 168.013737 205.720564 
L 168.030798 205.720564 
L 168.126653 203.087133 
L 168.143604 203.087133 
L 168.235778 200.980389 
L 168.306117 200.980389 
L 168.409578 197.293586 
L 168.450489 197.293586 
L 168.560621 194.13347 
L 168.565132 194.13347 
L 168.670062 188.866609 
L 168.68052 188.866609 
L 168.77882 184.653121 
L 168.793666 184.653121 
L 168.903133 179.912946 
L 168.910505 179.912946 
L 169.003123 174.119399 
L 169.022173 174.119399 
L 169.131676 166.219108 
L 169.140406 166.219108 
L 169.223129 160.952247 
L 169.254953 160.952247 
L 169.354388 154.105328 
L 169.375929 154.105328 
L 169.477533 146.205037 
L 169.497498 146.205037 
L 169.606898 138.831432 
L 169.615393 138.831432 
L 169.725465 132.511199 
L 169.736716 132.511199 
L 169.832051 126.717652 
L 169.853011 126.717652 
L 169.95188 118.817361 
L 169.98656 118.817361 
L 170.077786 111.970441 
L 170.102583 111.970441 
L 170.204158 104.596836 
L 170.213736 104.596836 
L 170.316028 100.383348 
L 170.325544 100.383348 
L 170.432588 90.902998 
L 170.440691 90.902998 
L 170.543006 84.056079 
L 170.561788 84.056079 
L 170.662064 75.629102 
L 170.678055 75.629102 
L 170.776342 66.148752 
L 170.789582 66.148752 
L 170.887244 58.248461 
L 170.909603 58.248461 
L 170.998753 51.928228 
L 171.031415 51.928228 
L 171.13682 46.661368 
L 171.144602 46.661368 
L 171.244171 42.974565 
L 171.258348 42.974565 
L 171.367517 36.654332 
L 171.38799 36.654332 
L 171.487454 35.074274 
L 171.501435 35.074274 
L 171.557249 32.967529 
L 171.660792 32.967529 
L 171.693494 31.914157 
L 171.777485 31.914157 
L 171.777485 31.387471 
L 171.912027 31.387471 
L 171.931871 30.334099 
L 338.688 30.334099 
L 338.688 30.334099 
" style="fill:none;stroke:#000080;stroke-linecap:square;stroke-width:1.5;"/>
   </g>
   <g id="line2d_40">
    <g>
     <use style="fill-opacity:0;stroke:#000080;stroke-width:1.5;" x="171.777485" xlink:href="#m56e042b2e4" y="31.387471"/>
     <use style="fill-opacity:0;stroke:#000080;stroke-width:1.5;" x="171.931871" xlink:href="#m56e042b2e4" y="30.334099"/>
     <use style="fill-opacity:0;stroke:#000080;stroke-width:1.5;" x="171.931871" xlink:href="#m56e042b2e4" y="30.334099"/>
     <use style="fill-opacity:0;stroke:#000080;stroke-width:1.5;" x="338.688" xlink:href="#m56e042b2e4" y="30.334099"/>
    </g>
   </g>
   <g id="line2d_41">
    <path style="fill:none;stroke:#000080;stroke-linecap:square;stroke-width:1.5;"/>
    <g/>
   </g>
   <g id="line2d_42">
    <defs>
     <path d="M 0 1.5 
C 0.397805 1.5 0.77937 1.341951 1.06066 1.06066 
C 1.341951 0.77937 1.5 0.397805 1.5 0 
C 1.5 -0.397805 1.341951 -0.77937 1.06066 -1.06066 
C 0.77937 -1.341951 0.397805 -1.5 0 -1.5 
C -0.397805 -1.5 -0.77937 -1.341951 -1.06066 -1.06066 
C -1.341951 -0.77937 -1.5 -0.397805 -1.5 0 
C -1.5 0.397805 -1.341951 0.77937 -1.06066 1.06066 
C -0.77937 1.341951 -0.397805 1.5 0 1.5 
z
" id="mcdd4b49970" style="stroke:#ff00ff;"/>
    </defs>
    <g>
     <use style="fill:#ff00ff;stroke:#ff00ff;" x="175.477564" xlink:href="#mcdd4b49970" y="30.334099"/>
     <use style="fill:#ff00ff;stroke:#ff00ff;" x="175.477564" xlink:href="#mcdd4b49970" y="30.334099"/>
    </g>
   </g>
   <g id="line2d_43">
    <path d="M 155.373976 298.944 
L 155.373976 298.417314 
L 156.979529 298.417314 
L 156.979529 297.890628 
L 158.042106 297.890628 
L 158.086033 296.31057 
L 158.285061 296.31057 
L 158.285061 295.783884 
L 158.60205 295.783884 
L 158.60205 295.257197 
L 159.534993 295.257197 
L 159.577838 294.203825 
L 159.78055 294.203825 
L 159.835203 293.150453 
L 160.346039 293.150453 
L 160.444519 292.097081 
L 160.487579 292.097081 
L 160.590016 291.043709 
L 160.821253 291.043709 
L 160.858717 289.990337 
L 161.274728 289.990337 
L 161.274728 289.463651 
L 161.501628 289.463651 
L 161.539909 286.83022 
L 161.745632 286.83022 
L 161.823263 285.776848 
L 161.909361 285.776848 
L 161.95335 284.723476 
L 162.054105 284.723476 
L 162.054105 284.19679 
L 162.217141 284.19679 
L 162.217141 283.670104 
L 162.617127 283.670104 
L 162.617127 283.143418 
L 162.823138 283.143418 
L 162.823138 282.616732 
L 162.995734 282.616732 
L 163.04945 281.036673 
L 163.39261 281.036673 
L 163.39261 280.509987 
L 163.571703 280.509987 
L 163.651599 278.929929 
L 163.719224 278.929929 
L 163.816224 277.349871 
L 163.839898 277.349871 
L 163.912688 276.296499 
L 163.977355 276.296499 
L 164.008622 274.71644 
L 164.233648 274.71644 
L 164.277922 273.663068 
L 164.394804 273.663068 
L 164.394804 273.136382 
L 164.67893 273.136382 
L 164.699585 272.08301 
L 164.79503 272.08301 
L 164.836042 271.029638 
L 164.928893 271.029638 
L 164.969592 269.976266 
L 165.102127 269.976266 
L 165.118623 268.396207 
L 165.308123 268.396207 
L 165.351562 267.342835 
L 165.477647 267.342835 
L 165.570724 265.762777 
L 165.625977 265.762777 
L 165.705872 264.182719 
L 165.854037 264.182719 
L 165.952119 262.60266 
L 166.047915 262.60266 
L 166.118986 261.549288 
L 166.188046 261.549288 
L 166.291126 259.96923 
L 166.38849 259.96923 
L 166.493781 257.862486 
L 166.596758 257.862486 
L 166.596758 257.3358 
L 166.725883 257.3358 
L 166.81587 255.755741 
L 166.916968 255.755741 
L 166.971417 254.175683 
L 167.02898 254.175683 
L 167.119055 252.595625 
L 167.164734 252.595625 
L 167.275171 249.962195 
L 167.29297 249.962195 
L 167.351096 248.382136 
L 167.417059 248.382136 
L 167.417059 247.85545 
L 167.6737 247.85545 
L 167.760513 245.748706 
L 167.802974 245.748706 
L 167.835927 244.695334 
L 167.971787 244.695334 
L 168.072606 242.061903 
L 168.155922 242.061903 
L 168.266395 239.955159 
L 168.34118 239.955159 
L 168.435348 237.321729 
L 168.52449 237.321729 
L 168.589172 236.268356 
L 168.699926 236.268356 
L 168.801084 234.161612 
L 168.847006 234.161612 
L 168.95467 232.054868 
L 168.998723 232.054868 
L 169.083579 230.47481 
L 169.198498 230.47481 
L 169.289603 228.368065 
L 169.325624 228.368065 
L 169.426089 225.734635 
L 169.496072 225.734635 
L 169.587058 222.574518 
L 169.721245 222.574518 
L 169.829254 219.414402 
L 169.914348 219.414402 
L 170.011487 216.780971 
L 170.040524 216.780971 
L 170.145207 214.147541 
L 170.172651 214.147541 
L 170.280634 211.514111 
L 170.322826 211.514111 
L 170.408256 209.407366 
L 170.454188 209.407366 
L 170.521516 207.300622 
L 170.63538 207.300622 
L 170.735235 201.507075 
L 170.775018 201.507075 
L 170.819995 199.400331 
L 170.918801 199.400331 
L 171.022276 196.240214 
L 171.066621 196.240214 
L 171.176992 192.553412 
L 171.183463 192.553412 
L 171.2931 186.759865 
L 171.298242 186.759865 
L 171.390547 183.599748 
L 171.43014 183.599748 
L 171.540777 179.912946 
L 171.554716 179.912946 
L 171.625505 177.279515 
L 171.68721 177.279515 
L 171.796233 170.959282 
L 171.806224 170.959282 
L 171.909545 164.63905 
L 171.93311 164.63905 
L 172.041844 160.952247 
L 172.044307 160.952247 
L 172.151127 154.632014 
L 172.159694 154.632014 
L 172.262163 150.418525 
L 172.275537 150.418525 
L 172.371288 146.731723 
L 172.408718 146.731723 
L 172.513336 141.991548 
L 172.52532 141.991548 
L 172.616138 137.778059 
L 172.649478 137.778059 
L 172.756213 131.457826 
L 172.770395 131.457826 
L 172.850543 126.190966 
L 172.884613 126.190966 
L 172.987589 121.977477 
L 172.995755 121.977477 
L 173.099238 116.710616 
L 173.10851 116.710616 
L 173.207873 112.497128 
L 173.226297 112.497128 
L 173.333002 104.596836 
L 173.346722 104.596836 
L 173.447014 96.169859 
L 173.462916 96.169859 
L 173.53769 91.429684 
L 173.581725 91.429684 
L 173.688525 84.056079 
L 173.695248 84.056079 
L 173.804698 78.262532 
L 173.812489 78.262532 
L 173.922314 71.942299 
L 173.924525 71.942299 
L 174.028154 66.675439 
L 174.036945 66.675439 
L 174.112584 62.46195 
L 174.160647 62.46195 
L 174.244441 57.195089 
L 174.283479 57.195089 
L 174.390386 51.928228 
L 174.394692 51.928228 
L 174.497711 48.241426 
L 174.520166 48.241426 
L 174.583099 44.027937 
L 174.63307 44.027937 
L 174.696655 41.394507 
L 174.756847 41.394507 
L 174.836781 38.23439 
L 174.875564 38.23439 
L 174.932012 35.60096 
L 175.047473 35.60096 
L 175.146719 32.967529 
L 175.167324 32.967529 
L 175.277151 31.914157 
L 175.34659 31.914157 
L 175.438071 30.860785 
L 175.477564 30.860785 
L 175.477564 30.334099 
L 338.688 30.334099 
L 338.688 30.334099 
" style="fill:none;stroke:#ff00ff;stroke-linecap:square;stroke-width:1.5;"/>
   </g>
   <g id="line2d_44">
    <defs>
     <path d="M -0 8.485281 
L 5.091169 0 
L 0 -8.485281 
L -5.091169 -0 
z
" id="me7908d252d" style="stroke:#ff00ff;stroke-linejoin:miter;stroke-width:1.5;"/>
    </defs>
    <g>
     <use style="fill-opacity:0;stroke:#ff00ff;stroke-linejoin:miter;stroke-width:1.5;" x="175.477564" xlink:href="#me7908d252d" y="30.860785"/>
     <use style="fill-opacity:0;stroke:#ff00ff;stroke-linejoin:miter;stroke-width:1.5;" x="175.477564" xlink:href="#me7908d252d" y="30.334099"/>
     <use style="fill-opacity:0;stroke:#ff00ff;stroke-linejoin:miter;stroke-width:1.5;" x="175.477564" xlink:href="#me7908d252d" y="30.334099"/>
     <use style="fill-opacity:0;stroke:#ff00ff;stroke-linejoin:miter;stroke-width:1.5;" x="338.688" xlink:href="#me7908d252d" y="30.334099"/>
    </g>
   </g>
   <g id="line2d_45">
    <path style="fill:none;stroke:#ff00ff;stroke-linecap:square;stroke-width:1.5;"/>
    <g/>
   </g>
   <g id="line2d_46">
    <defs>
     <path d="M 0 1.5 
C 0.397805 1.5 0.77937 1.341951 1.06066 1.06066 
C 1.341951 0.77937 1.5 0.397805 1.5 0 
C 1.5 -0.397805 1.341951 -0.77937 1.06066 -1.06066 
C 0.77937 -1.341951 0.397805 -1.5 0 -1.5 
C -0.397805 -1.5 -0.77937 -1.341951 -1.06066 -1.06066 
C -1.341951 -0.77937 -1.5 -0.397805 -1.5 0 
C -1.5 0.397805 -1.341951 0.77937 -1.06066 1.06066 
C -0.77937 1.341951 -0.397805 1.5 0 1.5 
z
" id="mc3a37c188f" style="stroke:#ff0000;"/>
    </defs>
    <g>
     <use style="fill:#ff0000;stroke:#ff0000;" x="174.731528" xlink:href="#mc3a37c188f" y="30.334099"/>
     <use style="fill:#ff0000;stroke:#ff0000;" x="174.731528" xlink:href="#mc3a37c188f" y="30.334099"/>
    </g>
   </g>
   <g id="line2d_47">
    <path d="M 155.962952 298.944 
L 156.061776 297.890628 
L 156.568618 297.890628 
L 156.568618 297.363942 
L 156.853444 297.363942 
L 156.853444 296.837256 
L 157.477787 296.837256 
L 157.477787 296.31057 
L 157.641697 296.31057 
L 157.641697 295.783884 
L 157.773399 295.783884 
L 157.773399 295.257197 
L 157.890255 295.257197 
L 158.000823 294.203825 
L 158.003578 294.203825 
L 158.083291 293.150453 
L 158.422772 293.150453 
L 158.4738 292.097081 
L 158.881972 292.097081 
L 158.881972 291.570395 
L 159.144574 291.570395 
L 159.144574 291.043709 
L 159.311507 291.043709 
L 159.418528 289.990337 
L 160.101044 289.990337 
L 160.174175 288.410278 
L 160.408554 288.410278 
L 160.437332 287.356906 
L 160.684769 287.356906 
L 160.684769 286.83022 
L 160.970627 286.83022 
L 160.970627 286.303534 
L 161.097981 286.303534 
L 161.102594 285.250162 
L 161.292989 285.250162 
L 161.347658 284.19679 
L 161.476813 284.19679 
L 161.528659 282.616732 
L 161.718936 282.616732 
L 161.723388 281.563359 
L 161.836537 281.563359 
L 161.867469 280.509987 
L 162.227956 280.509987 
L 162.271149 279.456615 
L 162.50469 279.456615 
L 162.591733 277.876557 
L 162.728843 277.876557 
L 162.728843 277.349871 
L 162.852371 277.349871 
L 162.958448 275.769812 
L 162.995734 275.769812 
L 163.0886 274.189754 
L 163.125609 274.189754 
L 163.125609 273.663068 
L 163.331824 273.663068 
L 163.331824 273.136382 
L 163.539641 273.136382 
L 163.643626 271.029638 
L 163.709295 271.029638 
L 163.818198 269.449579 
L 164.082658 269.449579 
L 164.185396 268.396207 
L 164.250986 268.396207 
L 164.306736 267.342835 
L 164.396714 267.342835 
L 164.472926 265.762777 
L 164.509011 265.762777 
L 164.565835 264.709405 
L 164.626244 264.709405 
L 164.718341 263.656033 
L 164.738949 263.656033 
L 164.787563 262.075974 
L 164.958502 262.075974 
L 165.008352 260.495916 
L 165.113126 260.495916 
L 165.208163 257.3358 
L 165.233662 257.3358 
L 165.318993 255.229055 
L 165.457894 255.229055 
L 165.536773 253.648997 
L 165.602827 253.648997 
L 165.700557 251.015567 
L 165.827671 251.015567 
L 165.929399 248.382136 
L 165.974809 248.382136 
L 166.068747 246.802078 
L 166.170807 246.802078 
L 166.186323 245.748706 
L 166.308246 245.748706 
L 166.417424 244.168648 
L 166.493781 244.168648 
L 166.493781 243.641962 
L 166.627029 243.641962 
L 166.637107 242.588589 
L 166.769268 242.588589 
L 166.849082 239.428473 
L 166.935137 239.428473 
L 167.001045 237.848415 
L 167.047033 237.848415 
L 167.148434 235.74167 
L 167.192408 235.74167 
L 167.211917 234.688298 
L 167.30752 234.688298 
L 167.397779 233.10824 
L 167.428296 233.10824 
L 167.527511 229.421437 
L 167.619816 229.421437 
L 167.730572 227.314693 
L 167.769958 227.314693 
L 167.871947 225.734635 
L 167.920379 225.734635 
L 168.013737 222.574518 
L 168.047843 222.574518 
L 168.13436 220.99446 
L 168.19436 220.99446 
L 168.304591 217.834344 
L 168.316796 217.834344 
L 168.385289 215.727599 
L 168.46108 215.727599 
L 168.548585 213.094169 
L 168.601179 213.094169 
L 168.696942 210.987425 
L 168.74165 210.987425 
L 168.851444 207.827308 
L 168.852923 207.827308 
L 168.897234 206.773936 
L 168.989922 206.773936 
L 169.083579 204.140506 
L 169.117115 204.140506 
L 169.227472 200.980389 
L 169.256398 200.980389 
L 169.347201 198.346959 
L 169.368752 198.346959 
L 169.477533 193.606784 
L 169.507471 193.606784 
L 169.611146 189.919981 
L 169.626715 189.919981 
L 169.733904 186.759865 
L 169.764809 186.759865 
L 169.8572 182.546376 
L 169.903212 182.546376 
L 170.007335 177.279515 
L 170.032233 177.279515 
L 170.138339 173.066027 
L 170.161678 173.066027 
L 170.267003 167.799166 
L 170.281997 167.799166 
L 170.379826 163.585677 
L 170.394724 163.585677 
L 170.477109 157.265444 
L 170.51345 157.265444 
L 170.603306 151.998584 
L 170.648728 151.998584 
L 170.740545 148.311781 
L 170.761767 148.311781 
L 170.871444 140.938176 
L 170.90566 140.938176 
L 171.015745 132.511199 
L 171.019664 132.511199 
L 171.127736 127.771024 
L 171.154974 127.771024 
L 171.251905 119.344047 
L 171.276376 119.344047 
L 171.384153 113.023814 
L 171.399496 113.023814 
L 171.509057 106.176895 
L 171.52429 106.176895 
L 171.611622 100.910034 
L 171.643157 100.910034 
L 171.748698 95.116487 
L 171.759968 95.116487 
L 171.849868 90.376312 
L 171.898371 90.376312 
L 172.00732 82.476021 
L 172.017191 82.476021 
L 172.119272 77.735846 
L 172.12908 77.735846 
L 172.228073 72.468985 
L 172.243909 72.468985 
L 172.344676 64.568694 
L 172.364034 64.568694 
L 172.472525 60.355206 
L 172.48694 60.355206 
L 172.571983 54.561659 
L 172.61733 54.561659 
L 172.689877 50.34817 
L 172.755031 50.34817 
L 172.814051 47.188054 
L 172.872872 47.188054 
L 172.959565 44.554623 
L 172.986423 44.554623 
L 173.09692 40.341135 
L 173.113144 40.341135 
L 173.221693 37.707704 
L 173.369567 37.707704 
L 173.369567 37.181018 
L 173.486743 37.181018 
L 173.53769 35.60096 
L 173.655992 35.60096 
L 173.655992 35.074274 
L 173.873588 35.074274 
L 173.873588 34.547588 
L 174.022657 34.547588 
L 174.121333 33.494215 
L 174.188986 33.494215 
L 174.211842 32.440843 
L 174.345111 32.440843 
L 174.345111 31.914157 
L 174.460223 31.914157 
L 174.557527 30.860785 
L 174.731528 30.860785 
L 174.731528 30.334099 
L 338.688 30.334099 
L 338.688 30.334099 
" style="fill:none;stroke:#ff0000;stroke-linecap:square;stroke-width:1.5;"/>
   </g>
   <g id="line2d_48">
    <defs>
     <path d="M 0 -6 
L -5.196152 -3 
L -5.196152 3 
L -0 6 
L 5.196152 3 
L 5.196152 -3 
z
" id="m52bbf07aa1" style="stroke:#ff0000;stroke-linejoin:miter;stroke-width:1.5;"/>
    </defs>
    <g>
     <use style="fill-opacity:0;stroke:#ff0000;stroke-linejoin:miter;stroke-width:1.5;" x="169.903212" xlink:href="#m52bbf07aa1" y="182.546376"/>
     <use style="fill-opacity:0;stroke:#ff0000;stroke-linejoin:miter;stroke-width:1.5;" x="174.731528" xlink:href="#m52bbf07aa1" y="30.860785"/>
     <use style="fill-opacity:0;stroke:#ff0000;stroke-linejoin:miter;stroke-width:1.5;" x="174.731528" xlink:href="#m52bbf07aa1" y="30.334099"/>
     <use style="fill-opacity:0;stroke:#ff0000;stroke-linejoin:miter;stroke-width:1.5;" x="338.688" xlink:href="#m52bbf07aa1" y="30.334099"/>
    </g>
   </g>
   <g id="line2d_49">
    <path style="fill:none;stroke:#ff0000;stroke-linecap:square;stroke-width:1.5;"/>
    <g/>
   </g>
   <g id="line2d_50">
    <defs>
     <path d="M 0 1.5 
C 0.397805 1.5 0.77937 1.341951 1.06066 1.06066 
C 1.341951 0.77937 1.5 0.397805 1.5 0 
C 1.5 -0.397805 1.341951 -0.77937 1.06066 -1.06066 
C 0.77937 -1.341951 0.397805 -1.5 0 -1.5 
C -0.397805 -1.5 -0.77937 -1.341951 -1.06066 -1.06066 
C -1.341951 -0.77937 -1.5 -0.397805 -1.5 0 
C -1.5 0.397805 -1.341951 0.77937 -1.06066 1.06066 
C -0.77937 1.341951 -0.397805 1.5 0 1.5 
z
" id="m47d7cb8afa" style="stroke:#ff7500;"/>
    </defs>
    <g>
     <use style="fill:#ff7500;stroke:#ff7500;" x="173.136296" xlink:href="#m47d7cb8afa" y="30.334099"/>
     <use style="fill:#ff7500;stroke:#ff7500;" x="173.136296" xlink:href="#m47d7cb8afa" y="30.334099"/>
    </g>
   </g>
   <g id="line2d_51">
    <path d="M 153.290669 298.944 
L 153.290669 298.417314 
L 153.577094 298.417314 
L 153.577094 297.890628 
L 153.862384 297.890628 
L 153.862384 297.363942 
L 154.105226 297.363942 
L 154.105226 296.837256 
L 154.307314 296.837256 
L 154.307314 296.31057 
L 154.577643 296.31057 
L 154.577643 295.783884 
L 155.63154 295.783884 
L 155.63154 295.257197 
L 156.175347 295.257197 
L 156.175347 294.730511 
L 156.553655 294.730511 
L 156.628341 293.677139 
L 156.829885 293.677139 
L 156.853444 292.623767 
L 157.116308 292.623767 
L 157.116308 292.097081 
L 157.263525 292.097081 
L 157.263525 291.570395 
L 157.557108 291.570395 
L 157.557108 291.043709 
L 158.014595 291.043709 
L 158.014595 290.517023 
L 158.363501 290.517023 
L 158.46307 288.936964 
L 158.594062 288.936964 
L 158.615355 287.883592 
L 159.167783 287.883592 
L 159.214109 286.83022 
L 159.89463 286.83022 
L 160.003056 284.723476 
L 160.22761 284.723476 
L 160.273627 282.616732 
L 160.823597 282.616732 
L 160.931074 281.036673 
L 160.942717 281.036673 
L 160.968303 279.983301 
L 161.111818 279.983301 
L 161.111818 279.456615 
L 161.472297 279.456615 
L 161.571372 277.876557 
L 161.995037 277.876557 
L 162.054105 276.296499 
L 162.112973 276.296499 
L 162.219304 274.71644 
L 162.262519 274.71644 
L 162.262519 274.189754 
L 162.387239 274.189754 
L 162.412933 273.136382 
L 162.506819 273.136382 
L 162.559939 271.556324 
L 162.701507 271.556324 
L 162.701507 271.029638 
L 162.827317 271.029638 
L 162.910689 269.976266 
L 162.989525 269.976266 
L 163.068006 268.396207 
L 163.242288 268.396207 
L 163.333854 266.289463 
L 163.48138 266.289463 
L 163.487416 265.236091 
L 163.798448 265.236091 
L 163.867476 264.182719 
L 163.928387 264.182719 
L 164.006669 262.075974 
L 164.043731 262.075974 
L 164.125377 261.022602 
L 164.227865 261.022602 
L 164.227865 260.495916 
L 164.381431 260.495916 
L 164.459613 258.389172 
L 164.531763 258.389172 
L 164.631896 256.809114 
L 164.662013 256.809114 
L 164.740822 255.755741 
L 164.947404 255.755741 
L 165.00282 254.702369 
L 165.105794 254.702369 
L 165.173498 253.122311 
L 165.297246 253.122311 
L 165.297246 252.595625 
L 165.439918 252.595625 
L 165.439918 252.068939 
L 165.574294 252.068939 
L 165.682828 249.435508 
L 165.712956 249.435508 
L 165.792454 247.85545 
L 165.85228 247.85545 
L 165.936393 246.802078 
L 165.966085 246.802078 
L 166.040966 244.695334 
L 166.079153 244.695334 
L 166.177705 241.535217 
L 166.194937 241.535217 
L 166.203547 239.955159 
L 166.40041 239.955159 
L 166.424224 238.901787 
L 166.571492 238.901787 
L 166.571492 238.375101 
L 166.685738 238.375101 
L 166.784261 235.74167 
L 166.825841 235.74167 
L 166.895472 234.688298 
L 166.951637 234.688298 
L 167.058511 232.054868 
L 167.076532 232.054868 
L 167.153325 230.47481 
L 167.190782 230.47481 
L 167.258974 228.894751 
L 167.305904 228.894751 
L 167.402601 227.314693 
L 167.43311 227.314693 
L 167.505157 224.681263 
L 167.559395 224.681263 
L 167.643609 220.99446 
L 167.703739 220.99446 
L 167.802974 216.780971 
L 167.831223 216.780971 
L 167.934414 214.147541 
L 167.948439 214.147541 
L 168.052489 209.934052 
L 168.066419 209.934052 
L 168.131278 206.24725 
L 168.211246 206.24725 
L 168.293904 202.560447 
L 168.342703 202.560447 
L 168.439892 199.400331 
L 168.467129 199.400331 
L 168.571145 195.186842 
L 168.581663 195.186842 
L 168.692465 192.026726 
L 168.696942 192.026726 
L 168.786245 187.286551 
L 168.808499 187.286551 
L 168.911979 181.493004 
L 168.95614 181.493004 
L 169.063135 174.646085 
L 169.08212 174.646085 
L 169.181091 172.012655 
L 169.195598 172.012655 
L 169.30402 166.745794 
L 169.311225 166.745794 
L 169.406043 163.058991 
L 169.423227 163.058991 
L 169.528825 156.738758 
L 169.545889 156.738758 
L 169.64227 151.471897 
L 169.667694 151.471897 
L 169.777437 144.624978 
L 169.794259 144.624978 
L 169.87534 137.778059 
L 169.917131 137.778059 
L 170.019789 130.93114 
L 170.029468 130.93114 
L 170.121846 124.610907 
L 170.15619 124.610907 
L 170.262911 116.18393 
L 170.292894 116.18393 
L 170.397431 108.283639 
L 170.413666 108.283639 
L 170.510761 101.43672 
L 170.544348 101.43672 
L 170.651396 94.063115 
L 170.656731 94.063115 
L 170.763093 84.582765 
L 170.777667 84.582765 
L 170.881979 76.682474 
L 170.892508 76.682474 
L 170.998753 69.835555 
L 171.011825 69.835555 
L 171.122543 64.568694 
L 171.12514 64.568694 
L 171.205445 60.355206 
L 171.249328 60.355206 
L 171.357271 50.874856 
L 171.384153 50.874856 
L 171.455636 47.71474 
L 171.510327 47.71474 
L 171.620458 43.501251 
L 171.646937 43.501251 
L 171.73366 39.814448 
L 171.76998 39.814448 
L 171.858583 37.707704 
L 171.899613 37.707704 
L 171.975201 35.60096 
L 172.077528 35.60096 
L 172.077528 35.074274 
L 172.319236 35.074274 
L 172.319236 34.547588 
L 172.43764 34.547588 
L 172.544479 33.494215 
L 172.803442 33.494215 
L 172.871698 32.440843 
L 172.95489 32.440843 
L 173.021392 31.387471 
L 173.073715 31.387471 
L 173.136296 30.334099 
L 338.688 30.334099 
L 338.688 30.334099 
" style="fill:none;stroke:#ff7500;stroke-linecap:square;stroke-width:1.5;"/>
   </g>
   <g id="line2d_52">
    <defs>
     <path d="M 0 -6 
L -1.347084 -1.854102 
L -5.706339 -1.854102 
L -2.179628 0.708204 
L -3.526712 4.854102 
L -0 2.291796 
L 3.526712 4.854102 
L 2.179628 0.708204 
L 5.706339 -1.854102 
L 1.347084 -1.854102 
z
" id="m77f056795e" style="stroke:#ff7500;stroke-linejoin:bevel;stroke-width:1.5;"/>
    </defs>
    <g>
     <use style="fill-opacity:0;stroke:#ff7500;stroke-linejoin:bevel;stroke-width:1.5;" x="173.136296" xlink:href="#m77f056795e" y="30.860785"/>
     <use style="fill-opacity:0;stroke:#ff7500;stroke-linejoin:bevel;stroke-width:1.5;" x="173.136296" xlink:href="#m77f056795e" y="30.334099"/>
     <use style="fill-opacity:0;stroke:#ff7500;stroke-linejoin:bevel;stroke-width:1.5;" x="173.136296" xlink:href="#m77f056795e" y="30.334099"/>
     <use style="fill-opacity:0;stroke:#ff7500;stroke-linejoin:bevel;stroke-width:1.5;" x="338.688" xlink:href="#m77f056795e" y="30.334099"/>
    </g>
   </g>
   <g id="line2d_53">
    <path style="fill:none;stroke:#ff7500;stroke-linecap:square;stroke-width:1.5;"/>
    <g/>
   </g>
   <g id="line2d_54">
    <path d="M 338.688 30.334099 
L 369.60768 293.571802 
" style="fill:none;stroke:#ff00ff;stroke-linecap:square;stroke-width:1.5;"/>
    <g>
     <use style="fill-opacity:0;stroke:#ff00ff;stroke-linejoin:miter;stroke-width:1.5;" x="338.688" xlink:href="#me7908d252d" y="30.334099"/>
     <use style="fill-opacity:0;stroke:#ff00ff;stroke-linejoin:miter;stroke-width:1.5;" x="369.60768" xlink:href="#me7908d252d" y="293.571802"/>
    </g>
   </g>
   <g id="line2d_55">
    <path d="M 338.688 30.334099 
L 369.60768 241.998701 
" style="fill:none;stroke:#ff0000;stroke-linecap:square;stroke-width:1.5;"/>
    <g>
     <use style="fill-opacity:0;stroke:#ff0000;stroke-linejoin:miter;stroke-width:1.5;" x="338.688" xlink:href="#m52bbf07aa1" y="30.334099"/>
     <use style="fill-opacity:0;stroke:#ff0000;stroke-linejoin:miter;stroke-width:1.5;" x="369.60768" xlink:href="#m52bbf07aa1" y="241.998701"/>
    </g>
   </g>
   <g id="line2d_56">
    <path d="M 338.688 30.334099 
L 369.60768 190.4256 
" style="fill:none;stroke:#ff7500;stroke-linecap:square;stroke-width:1.5;"/>
    <g>
     <use style="fill-opacity:0;stroke:#ff7500;stroke-linejoin:bevel;stroke-width:1.5;" x="338.688" xlink:href="#m77f056795e" y="30.334099"/>
     <use style="fill-opacity:0;stroke:#ff7500;stroke-linejoin:bevel;stroke-width:1.5;" x="369.60768" xlink:href="#m77f056795e" y="190.4256"/>
    </g>
   </g>
   <g id="line2d_57">
    <path d="M 338.688 30.334099 
L 369.60768 138.852499 
" style="fill:none;stroke:#000080;stroke-linecap:square;stroke-width:1.5;"/>
    <g>
     <use style="fill-opacity:0;stroke:#000080;stroke-width:1.5;" x="338.688" xlink:href="#m56e042b2e4" y="30.334099"/>
     <use style="fill-opacity:0;stroke:#000080;stroke-width:1.5;" x="369.60768" xlink:href="#m56e042b2e4" y="138.852499"/>
    </g>
   </g>
   <g id="line2d_58">
    <path d="M 338.688 30.334099 
L 369.60768 87.279398 
" style="fill:none;stroke:#000080;stroke-linecap:square;stroke-width:1.5;"/>
    <g>
     <use style="fill-opacity:0;stroke:#000080;stroke-width:1.5;" x="338.688" xlink:href="#m56e042b2e4" y="30.334099"/>
     <use style="fill-opacity:0;stroke:#000080;stroke-width:1.5;" x="369.60768" xlink:href="#m56e042b2e4" y="87.279398"/>
    </g>
   </g>
   <g id="line2d_59">
    <path d="M 338.688 298.944 
L 338.688 30.334099 
" style="fill:none;stroke:#000000;stroke-linecap:square;stroke-width:1.5;"/>
   </g>
   <g id="patch_3">
    <path d="M 57.6 298.944 
L 57.6 27.648 
" style="fill:none;stroke:#000000;stroke-linecap:square;stroke-linejoin:miter;stroke-width:0.8;"/>
   </g>
   <g id="patch_4">
    <path d="M 338.688 298.944 
L 338.688 27.648 
" style="fill:none;stroke:#000000;stroke-linecap:square;stroke-linejoin:miter;stroke-width:0.8;"/>
   </g>
   <g id="patch_5">
    <path d="M 57.6 298.944 
L 338.688 298.944 
" style="fill:none;stroke:#000000;stroke-linecap:square;stroke-linejoin:miter;stroke-width:0.8;"/>
   </g>
   <g id="patch_6">
    <path d="M 57.6 27.648 
L 338.688 27.648 
" style="fill:none;stroke:#000000;stroke-linecap:square;stroke-linejoin:miter;stroke-width:0.8;"/>
   </g>
   <g id="text_13">
    <!-- 025s-2e4 -->
    <defs>
     <path d="M 10.796875 72.90625 
L 49.515625 72.90625 
L 49.515625 64.59375 
L 19.828125 64.59375 
L 19.828125 46.734375 
Q 21.96875 47.46875 24.109375 47.828125 
Q 26.265625 48.1875 28.421875 48.1875 
Q 40.625 48.1875 47.75 41.5 
Q 54.890625 34.8125 54.890625 23.390625 
Q 54.890625 11.625 47.5625 5.09375 
Q 40.234375 -1.421875 26.90625 -1.421875 
Q 22.3125 -1.421875 17.546875 -0.640625 
Q 12.796875 0.140625 7.71875 1.703125 
L 7.71875 11.625 
Q 12.109375 9.234375 16.796875 8.0625 
Q 21.484375 6.890625 26.703125 6.890625 
Q 35.15625 6.890625 40.078125 11.328125 
Q 45.015625 15.765625 45.015625 23.390625 
Q 45.015625 31 40.078125 35.4375 
Q 35.15625 39.890625 26.703125 39.890625 
Q 22.75 39.890625 18.8125 39.015625 
Q 14.890625 38.140625 10.796875 36.28125 
z
" id="DejaVuSans-53"/>
    </defs>
    <g transform="translate(375.22944 298.262739)scale(0.17 -0.17)">
     <use xlink:href="#DejaVuSans-48"/>
     <use x="63.623047" xlink:href="#DejaVuSans-50"/>
     <use x="127.246094" xlink:href="#DejaVuSans-53"/>
     <use x="190.869141" xlink:href="#DejaVuSans-115"/>
     <use x="242.96875" xlink:href="#DejaVuSans-45"/>
     <use x="279.052734" xlink:href="#DejaVuSans-50"/>
     <use x="342.675781" xlink:href="#DejaVuSans-101"/>
     <use x="404.199219" xlink:href="#DejaVuSans-52"/>
    </g>
   </g>
   <g id="text_14">
    <!-- 050s-2e4 -->
    <g transform="translate(375.22944 246.689638)scale(0.17 -0.17)">
     <use xlink:href="#DejaVuSans-48"/>
     <use x="63.623047" xlink:href="#DejaVuSans-53"/>
     <use x="127.246094" xlink:href="#DejaVuSans-48"/>
     <use x="190.869141" xlink:href="#DejaVuSans-115"/>
     <use x="242.96875" xlink:href="#DejaVuSans-45"/>
     <use x="279.052734" xlink:href="#DejaVuSans-50"/>
     <use x="342.675781" xlink:href="#DejaVuSans-101"/>
     <use x="404.199219" xlink:href="#DejaVuSans-52"/>
    </g>
   </g>
   <g id="text_15">
    <!-- 075s-2e4 -->
    <defs>
     <path d="M 8.203125 72.90625 
L 55.078125 72.90625 
L 55.078125 68.703125 
L 28.609375 0 
L 18.3125 0 
L 43.21875 64.59375 
L 8.203125 64.59375 
z
" id="DejaVuSans-55"/>
    </defs>
    <g transform="translate(375.22944 195.116537)scale(0.17 -0.17)">
     <use xlink:href="#DejaVuSans-48"/>
     <use x="63.623047" xlink:href="#DejaVuSans-55"/>
     <use x="127.246094" xlink:href="#DejaVuSans-53"/>
     <use x="190.869141" xlink:href="#DejaVuSans-115"/>
     <use x="242.96875" xlink:href="#DejaVuSans-45"/>
     <use x="279.052734" xlink:href="#DejaVuSans-50"/>
     <use x="342.675781" xlink:href="#DejaVuSans-101"/>
     <use x="404.199219" xlink:href="#DejaVuSans-52"/>
    </g>
   </g>
   <g id="text_16">
    <!-- 100-1e5 -->
    <g transform="translate(375.22944 143.543437)scale(0.17 -0.17)">
     <use xlink:href="#DejaVuSans-49"/>
     <use x="63.623047" xlink:href="#DejaVuSans-48"/>
     <use x="127.246094" xlink:href="#DejaVuSans-48"/>
     <use x="190.869141" xlink:href="#DejaVuSans-45"/>
     <use x="226.953125" xlink:href="#DejaVuSans-49"/>
     <use x="290.576172" xlink:href="#DejaVuSans-101"/>
     <use x="352.099609" xlink:href="#DejaVuSans-53"/>
    </g>
   </g>
   <g id="text_17">
    <!-- 100-2e4 -->
    <g transform="translate(375.22944 91.970336)scale(0.17 -0.17)">
     <use xlink:href="#DejaVuSans-49"/>
     <use x="63.623047" xlink:href="#DejaVuSans-48"/>
     <use x="127.246094" xlink:href="#DejaVuSans-48"/>
     <use x="190.869141" xlink:href="#DejaVuSans-45"/>
     <use x="226.953125" xlink:href="#DejaVuSans-50"/>
     <use x="290.576172" xlink:href="#DejaVuSans-101"/>
     <use x="352.099609" xlink:href="#DejaVuSans-52"/>
    </g>
   </g>
   <g id="text_18">
    <!-- best 2009 -->
    <defs>
     <path d="M 48.6875 27.296875 
Q 48.6875 37.203125 44.609375 42.84375 
Q 40.53125 48.484375 33.40625 48.484375 
Q 26.265625 48.484375 22.1875 42.84375 
Q 18.109375 37.203125 18.109375 27.296875 
Q 18.109375 17.390625 22.1875 11.75 
Q 26.265625 6.109375 33.40625 6.109375 
Q 40.53125 6.109375 44.609375 11.75 
Q 48.6875 17.390625 48.6875 27.296875 
z
M 18.109375 46.390625 
Q 20.953125 51.265625 25.265625 53.625 
Q 29.59375 56 35.59375 56 
Q 45.5625 56 51.78125 48.09375 
Q 58.015625 40.1875 58.015625 27.296875 
Q 58.015625 14.40625 51.78125 6.484375 
Q 45.5625 -1.421875 35.59375 -1.421875 
Q 29.59375 -1.421875 25.265625 0.953125 
Q 20.953125 3.328125 18.109375 8.203125 
L 18.109375 0 
L 9.078125 0 
L 9.078125 75.984375 
L 18.109375 75.984375 
z
" id="DejaVuSans-98"/>
     <path d="M 10.984375 1.515625 
L 10.984375 10.5 
Q 14.703125 8.734375 18.5 7.8125 
Q 22.3125 6.890625 25.984375 6.890625 
Q 35.75 6.890625 40.890625 13.453125 
Q 46.046875 20.015625 46.78125 33.40625 
Q 43.953125 29.203125 39.59375 26.953125 
Q 35.25 24.703125 29.984375 24.703125 
Q 19.046875 24.703125 12.671875 31.3125 
Q 6.296875 37.9375 6.296875 49.421875 
Q 6.296875 60.640625 12.9375 67.421875 
Q 19.578125 74.21875 30.609375 74.21875 
Q 43.265625 74.21875 49.921875 64.515625 
Q 56.59375 54.828125 56.59375 36.375 
Q 56.59375 19.140625 48.40625 8.859375 
Q 40.234375 -1.421875 26.421875 -1.421875 
Q 22.703125 -1.421875 18.890625 -0.6875 
Q 15.09375 0.046875 10.984375 1.515625 
z
M 30.609375 32.421875 
Q 37.25 32.421875 41.125 36.953125 
Q 45.015625 41.5 45.015625 49.421875 
Q 45.015625 57.28125 41.125 61.84375 
Q 37.25 66.40625 30.609375 66.40625 
Q 23.96875 66.40625 20.09375 61.84375 
Q 16.21875 57.28125 16.21875 49.421875 
Q 16.21875 41.5 20.09375 36.953125 
Q 23.96875 32.421875 30.609375 32.421875 
z
" id="DejaVuSans-57"/>
    </defs>
    <g transform="translate(375.22944 40.397235)scale(0.17 -0.17)">
     <use xlink:href="#DejaVuSans-98"/>
     <use x="63.476562" xlink:href="#DejaVuSans-101"/>
     <use x="125" xlink:href="#DejaVuSans-115"/>
     <use x="177.099609" xlink:href="#DejaVuSans-116"/>
     <use x="216.308594" xlink:href="#DejaVuSans-32"/>
     <use x="248.095703" xlink:href="#DejaVuSans-50"/>
     <use x="311.71875" xlink:href="#DejaVuSans-48"/>
     <use x="375.341797" xlink:href="#DejaVuSans-48"/>
     <use x="438.964844" xlink:href="#DejaVuSans-57"/>
    </g>
   </g>
   <g id="text_19">
    <!-- bbob f2, 20-D -->
    <defs>
     <path d="M 19.671875 64.796875 
L 19.671875 8.109375 
L 31.59375 8.109375 
Q 46.6875 8.109375 53.6875 14.9375 
Q 60.6875 21.78125 60.6875 36.53125 
Q 60.6875 51.171875 53.6875 57.984375 
Q 46.6875 64.796875 31.59375 64.796875 
z
M 9.8125 72.90625 
L 30.078125 72.90625 
Q 51.265625 72.90625 61.171875 64.09375 
Q 71.09375 55.28125 71.09375 36.53125 
Q 71.09375 17.671875 61.125 8.828125 
Q 51.171875 0 30.078125 0 
L 9.8125 0 
z
" id="DejaVuSans-68"/>
    </defs>
    <g transform="translate(60.41088 38.111366)scale(0.102 -0.102)">
     <use xlink:href="#DejaVuSans-98"/>
     <use x="63.476562" xlink:href="#DejaVuSans-98"/>
     <use x="126.953125" xlink:href="#DejaVuSans-111"/>
     <use x="188.134766" xlink:href="#DejaVuSans-98"/>
     <use x="251.611328" xlink:href="#DejaVuSans-32"/>
     <use x="283.398438" xlink:href="#DejaVuSans-102"/>
     <use x="318.603516" xlink:href="#DejaVuSans-50"/>
     <use x="382.226562" xlink:href="#DejaVuSans-44"/>
     <use x="414.013672" xlink:href="#DejaVuSans-32"/>
     <use x="445.800781" xlink:href="#DejaVuSans-50"/>
     <use x="509.423828" xlink:href="#DejaVuSans-48"/>
     <use x="573.046875" xlink:href="#DejaVuSans-45"/>
     <use x="609.130859" xlink:href="#DejaVuSans-68"/>
    </g>
    <!-- 51 targets: 100..1e-08 -->
    <defs>
     <path d="M 11.71875 12.40625 
L 22.015625 12.40625 
L 22.015625 0 
L 11.71875 0 
z
M 11.71875 51.703125 
L 22.015625 51.703125 
L 22.015625 39.3125 
L 11.71875 39.3125 
z
" id="DejaVuSans-58"/>
    </defs>
    <g transform="translate(60.41088 49.533135)scale(0.102 -0.102)">
     <use xlink:href="#DejaVuSans-53"/>
     <use x="63.623047" xlink:href="#DejaVuSans-49"/>
     <use x="127.246094" xlink:href="#DejaVuSans-32"/>
     <use x="159.033203" xlink:href="#DejaVuSans-116"/>
     <use x="198.242188" xlink:href="#DejaVuSans-97"/>
     <use x="259.521484" xlink:href="#DejaVuSans-114"/>
     <use x="300.619141" xlink:href="#DejaVuSans-103"/>
     <use x="364.095703" xlink:href="#DejaVuSans-101"/>
     <use x="425.619141" xlink:href="#DejaVuSans-116"/>
     <use x="464.828125" xlink:href="#DejaVuSans-115"/>
     <use x="516.927734" xlink:href="#DejaVuSans-58"/>
     <use x="550.619141" xlink:href="#DejaVuSans-32"/>
     <use x="582.40625" xlink:href="#DejaVuSans-49"/>
     <use x="646.029297" xlink:href="#DejaVuSans-48"/>
     <use x="709.652344" xlink:href="#DejaVuSans-48"/>
     <use x="773.275391" xlink:href="#DejaVuSans-46"/>
     <use x="805.0625" xlink:href="#DejaVuSans-46"/>
     <use x="836.849609" xlink:href="#DejaVuSans-49"/>
     <use x="900.472656" xlink:href="#DejaVuSans-101"/>
     <use x="961.996094" xlink:href="#DejaVuSans-45"/>
     <use x="998.080078" xlink:href="#DejaVuSans-48"/>
     <use x="1061.703125" xlink:href="#DejaVuSans-56"/>
    </g>
    <!-- 15 instances -->
    <g transform="translate(60.41088 60.954904)scale(0.102 -0.102)">
     <use xlink:href="#DejaVuSans-49"/>
     <use x="63.623047" xlink:href="#DejaVuSans-53"/>
     <use x="127.246094" xlink:href="#DejaVuSans-32"/>
     <use x="159.033203" xlink:href="#DejaVuSans-105"/>
     <use x="186.816406" xlink:href="#DejaVuSans-110"/>
     <use x="250.195312" xlink:href="#DejaVuSans-115"/>
     <use x="302.294922" xlink:href="#DejaVuSans-116"/>
     <use x="341.503906" xlink:href="#DejaVuSans-97"/>
     <use x="402.783203" xlink:href="#DejaVuSans-110"/>
     <use x="466.162109" xlink:href="#DejaVuSans-99"/>
     <use x="521.142578" xlink:href="#DejaVuSans-101"/>
     <use x="582.666016" xlink:href="#DejaVuSans-115"/>
    </g>
   </g>
   <g id="text_20">
    <!-- v2.3.3.18.73 -->
    <defs>
     <path d="M 40.578125 39.3125 
Q 47.65625 37.796875 51.625 33 
Q 55.609375 28.21875 55.609375 21.1875 
Q 55.609375 10.40625 48.1875 4.484375 
Q 40.765625 -1.421875 27.09375 -1.421875 
Q 22.515625 -1.421875 17.65625 -0.515625 
Q 12.796875 0.390625 7.625 2.203125 
L 7.625 11.71875 
Q 11.71875 9.328125 16.59375 8.109375 
Q 21.484375 6.890625 26.8125 6.890625 
Q 36.078125 6.890625 40.9375 10.546875 
Q 45.796875 14.203125 45.796875 21.1875 
Q 45.796875 27.640625 41.28125 31.265625 
Q 36.765625 34.90625 28.71875 34.90625 
L 20.21875 34.90625 
L 20.21875 43.015625 
L 29.109375 43.015625 
Q 36.375 43.015625 40.234375 45.921875 
Q 44.09375 48.828125 44.09375 54.296875 
Q 44.09375 59.90625 40.109375 62.90625 
Q 36.140625 65.921875 28.71875 65.921875 
Q 24.65625 65.921875 20.015625 65.03125 
Q 15.375 64.15625 9.8125 62.3125 
L 9.8125 71.09375 
Q 15.4375 72.65625 20.34375 73.4375 
Q 25.25 74.21875 29.59375 74.21875 
Q 40.828125 74.21875 47.359375 69.109375 
Q 53.90625 64.015625 53.90625 55.328125 
Q 53.90625 49.265625 50.4375 45.09375 
Q 46.96875 40.921875 40.578125 39.3125 
z
" id="DejaVuSans-51"/>
    </defs>
    <g style="fill:#808080;" transform="translate(166.559625 294.151352)scale(0.1 -0.1)">
     <use xlink:href="#DejaVuSans-118"/>
     <use x="59.179688" xlink:href="#DejaVuSans-50"/>
     <use x="122.802734" xlink:href="#DejaVuSans-46"/>
     <use x="154.589844" xlink:href="#DejaVuSans-51"/>
     <use x="218.212891" xlink:href="#DejaVuSans-46"/>
     <use x="250" xlink:href="#DejaVuSans-51"/>
     <use x="313.623047" xlink:href="#DejaVuSans-46"/>
     <use x="345.410156" xlink:href="#DejaVuSans-49"/>
     <use x="409.033203" xlink:href="#DejaVuSans-56"/>
     <use x="472.65625" xlink:href="#DejaVuSans-46"/>
     <use x="504.443359" xlink:href="#DejaVuSans-55"/>
     <use x="568.066406" xlink:href="#DejaVuSans-51"/>
    </g>
   </g>
   <g id="text_21">
    <!-- 2 Ellipsoid separable -->
    <defs>
     <path d="M 9.8125 72.90625 
L 55.90625 72.90625 
L 55.90625 64.59375 
L 19.671875 64.59375 
L 19.671875 43.015625 
L 54.390625 43.015625 
L 54.390625 34.71875 
L 19.671875 34.71875 
L 19.671875 8.296875 
L 56.78125 8.296875 
L 56.78125 0 
L 9.8125 0 
z
" id="DejaVuSans-69"/>
    </defs>
    <g transform="translate(94.611187 21.648)scale(0.2 -0.2)">
     <use xlink:href="#DejaVuSans-50"/>
     <use x="63.623047" xlink:href="#DejaVuSans-32"/>
     <use x="95.410156" xlink:href="#DejaVuSans-69"/>
     <use x="158.59375" xlink:href="#DejaVuSans-108"/>
     <use x="186.376953" xlink:href="#DejaVuSans-108"/>
     <use x="214.160156" xlink:href="#DejaVuSans-105"/>
     <use x="241.943359" xlink:href="#DejaVuSans-112"/>
     <use x="305.419922" xlink:href="#DejaVuSans-115"/>
     <use x="357.519531" xlink:href="#DejaVuSans-111"/>
     <use x="418.701172" xlink:href="#DejaVuSans-105"/>
     <use x="446.484375" xlink:href="#DejaVuSans-100"/>
     <use x="509.960938" xlink:href="#DejaVuSans-32"/>
     <use x="541.748047" xlink:href="#DejaVuSans-115"/>
     <use x="593.847656" xlink:href="#DejaVuSans-101"/>
     <use x="655.371094" xlink:href="#DejaVuSans-112"/>
     <use x="718.847656" xlink:href="#DejaVuSans-97"/>
     <use x="780.126953" xlink:href="#DejaVuSans-114"/>
     <use x="821.240234" xlink:href="#DejaVuSans-97"/>
     <use x="882.519531" xlink:href="#DejaVuSans-98"/>
     <use x="945.996094" xlink:href="#DejaVuSans-108"/>
     <use x="973.779297" xlink:href="#DejaVuSans-101"/>
    </g>
   </g>
  </g>
 </g>
 <defs>
  <clipPath id="pd72117c7bf">
   <rect height="271.296" width="281.088" x="57.6" y="27.648"/>
  </clipPath>
 </defs>
</svg>
