<?xml version="1.0" encoding="utf-8" standalone="no"?>
<!DOCTYPE svg PUBLIC "-//W3C//DTD SVG 1.1//EN"
  "http://www.w3.org/Graphics/SVG/1.1/DTD/svg11.dtd">
<!-- Created with matplotlib (https://matplotlib.org/) -->
<svg height="345.6pt" version="1.1" viewBox="0 0 460.8 345.6" width="460.8pt" xmlns="http://www.w3.org/2000/svg" xmlns:xlink="http://www.w3.org/1999/xlink">
 <defs>
  <style type="text/css">
*{stroke-linecap:butt;stroke-linejoin:round;}
  </style>
 </defs>
 <g id="figure_1">
  <g id="patch_1">
   <path d="M 0 345.6 
L 460.8 345.6 
L 460.8 0 
L 0 0 
z
" style="fill:#ffffff;"/>
  </g>
  <g id="axes_1">
   <g id="patch_2">
    <path d="M 57.6 298.944 
L 338.688 298.944 
L 338.688 27.648 
L 57.6 27.648 
z
" style="fill:#ffffff;"/>
   </g>
   <g id="line2d_1">
    <path d="M 17.444571 298.944 
L 17.444571 225.207949 
L 129.51791 225.207949 
L 129.51791 219.941088 
L 179.097254 219.941088 
L 179.097254 214.674227 
L 179.120253 214.674227 
L 179.120253 209.407366 
L 179.123536 209.407366 
L 179.123536 204.140506 
L 179.154693 204.140506 
L 179.154693 198.873645 
L 179.471293 198.873645 
L 179.471293 193.606784 
L 258.092136 193.606784 
L 258.092136 188.339923 
L 258.50854 188.339923 
L 258.50854 183.073062 
L 260.168095 183.073062 
L 260.168095 177.806202 
L 262.281088 177.806202 
L 262.281088 172.539341 
L 263.795581 172.539341 
L 263.795581 167.27248 
L 263.819441 167.27248 
L 263.819441 162.005619 
L 263.843128 162.005619 
L 263.843128 156.738758 
L 263.853998 156.738758 
L 263.853998 151.471897 
L 263.871556 151.471897 
L 263.871556 146.205037 
L 263.88705 146.205037 
L 263.88705 140.938176 
L 263.907496 140.938176 
L 263.907496 135.671315 
L 263.912893 135.671315 
L 263.912893 130.404454 
L 263.926409 130.404454 
L 263.926409 125.137593 
L 263.946252 125.137593 
L 263.946252 119.870733 
L 263.964413 119.870733 
L 263.964413 114.603872 
L 263.978231 114.603872 
L 263.978231 109.337011 
L 263.997219 109.337011 
L 263.997219 104.07015 
L 264.009471 104.07015 
L 264.009471 98.803289 
L 264.028374 98.803289 
L 264.028374 93.536429 
L 264.039394 93.536429 
L 264.039394 88.269568 
L 264.047937 88.269568 
L 264.047937 83.002707 
L 264.055973 83.002707 
L 264.055973 77.735846 
L 264.072789 77.735846 
L 264.072789 72.468985 
L 264.088482 72.468985 
L 264.088482 67.202125 
L 264.110087 67.202125 
L 264.110087 61.935264 
L 264.120854 61.935264 
L 264.120854 56.668403 
L 264.130462 56.668403 
L 264.130462 51.401542 
L 264.147932 51.401542 
L 264.147932 46.134681 
L 264.162494 46.134681 
L 264.162494 40.867821 
L 264.173729 40.867821 
L 264.173729 35.60096 
L 264.192843 35.60096 
L 264.192843 30.334099 
L 338.688 30.334099 
" style="fill:none;stroke:#f5deb3;stroke-linecap:square;stroke-width:4;"/>
   </g>
   <g id="line2d_2">
    <defs>
     <path d="M -0 7.778175 
L 7.778175 0 
L 0 -7.778175 
L -7.778175 -0 
z
" id="md9b7d8003a" style="stroke:#f5deb3;stroke-linejoin:miter;stroke-width:1.5;"/>
    </defs>
    <g>
     <use style="fill:#f5deb3;stroke:#f5deb3;stroke-linejoin:miter;stroke-width:1.5;" x="129.51791" xlink:href="#md9b7d8003a" y="219.941088"/>
     <use style="fill:#f5deb3;stroke:#f5deb3;stroke-linejoin:miter;stroke-width:1.5;" x="258.092136" xlink:href="#md9b7d8003a" y="188.339923"/>
     <use style="fill:#f5deb3;stroke:#f5deb3;stroke-linejoin:miter;stroke-width:1.5;" x="264.110087" xlink:href="#md9b7d8003a" y="61.935264"/>
     <use style="fill:#f5deb3;stroke:#f5deb3;stroke-linejoin:miter;stroke-width:1.5;" x="264.192843" xlink:href="#md9b7d8003a" y="30.334099"/>
     <use style="fill:#f5deb3;stroke:#f5deb3;stroke-linejoin:miter;stroke-width:1.5;" x="264.192843" xlink:href="#md9b7d8003a" y="30.334099"/>
     <use style="fill:#f5deb3;stroke:#f5deb3;stroke-linejoin:miter;stroke-width:1.5;" x="338.688" xlink:href="#md9b7d8003a" y="30.334099"/>
    </g>
   </g>
   <g id="line2d_3">
    <path style="fill:none;stroke:#f5deb3;stroke-linecap:square;stroke-width:4;"/>
    <g/>
   </g>
   <g id="line2d_4">
    <path d="M 338.688 30.334099 
L 369.60768 35.706297 
" style="fill:none;stroke:#f5deb3;stroke-linecap:square;stroke-width:4;"/>
    <g>
     <use style="fill:#f5deb3;stroke:#f5deb3;stroke-linejoin:miter;stroke-width:1.5;" x="338.688" xlink:href="#md9b7d8003a" y="30.334099"/>
     <use style="fill:#f5deb3;stroke:#f5deb3;stroke-linejoin:miter;stroke-width:1.5;" x="369.60768" xlink:href="#md9b7d8003a" y="35.706297"/>
    </g>
   </g>
   <g id="matplotlib.axis_1">
    <g id="xtick_1">
     <g id="line2d_5">
      <path clip-path="url(#paba77856ce)" d="M 57.6 298.944 
L 57.6 27.648 
" style="fill:none;stroke:#b0b0b0;stroke-linecap:square;stroke-width:0.8;"/>
     </g>
     <g id="line2d_6">
      <defs>
       <path d="M 0 0 
L 0 3.5 
" id="m70032dfa9e" style="stroke:#000000;stroke-width:0.8;"/>
      </defs>
      <g>
       <use style="stroke:#000000;stroke-width:0.8;" x="57.6" xlink:href="#m70032dfa9e" y="298.944"/>
      </g>
     </g>
     <g id="text_1">
      <!-- 0 -->
      <defs>
       <path d="M 31.78125 66.40625 
Q 24.171875 66.40625 20.328125 58.90625 
Q 16.5 51.421875 16.5 36.375 
Q 16.5 21.390625 20.328125 13.890625 
Q 24.171875 6.390625 31.78125 6.390625 
Q 39.453125 6.390625 43.28125 13.890625 
Q 47.125 21.390625 47.125 36.375 
Q 47.125 51.421875 43.28125 58.90625 
Q 39.453125 66.40625 31.78125 66.40625 
z
M 31.78125 74.21875 
Q 44.046875 74.21875 50.515625 64.515625 
Q 56.984375 54.828125 56.984375 36.375 
Q 56.984375 17.96875 50.515625 8.265625 
Q 44.046875 -1.421875 31.78125 -1.421875 
Q 19.53125 -1.421875 13.0625 8.265625 
Q 6.59375 17.96875 6.59375 36.375 
Q 6.59375 54.828125 13.0625 64.515625 
Q 19.53125 74.21875 31.78125 74.21875 
z
" id="DejaVuSans-48"/>
      </defs>
      <g transform="translate(51.2375 321.140875)scale(0.2 -0.2)">
       <use xlink:href="#DejaVuSans-48"/>
      </g>
     </g>
    </g>
    <g id="xtick_2">
     <g id="line2d_7">
      <path clip-path="url(#paba77856ce)" d="M 137.910857 298.944 
L 137.910857 27.648 
" style="fill:none;stroke:#b0b0b0;stroke-linecap:square;stroke-width:0.8;"/>
     </g>
     <g id="line2d_8">
      <g>
       <use style="stroke:#000000;stroke-width:0.8;" x="137.910857" xlink:href="#m70032dfa9e" y="298.944"/>
      </g>
     </g>
     <g id="text_2">
      <!-- 2 -->
      <defs>
       <path d="M 19.1875 8.296875 
L 53.609375 8.296875 
L 53.609375 0 
L 7.328125 0 
L 7.328125 8.296875 
Q 12.9375 14.109375 22.625 23.890625 
Q 32.328125 33.6875 34.8125 36.53125 
Q 39.546875 41.84375 41.421875 45.53125 
Q 43.3125 49.21875 43.3125 52.78125 
Q 43.3125 58.59375 39.234375 62.25 
Q 35.15625 65.921875 28.609375 65.921875 
Q 23.96875 65.921875 18.8125 64.3125 
Q 13.671875 62.703125 7.8125 59.421875 
L 7.8125 69.390625 
Q 13.765625 71.78125 18.9375 73 
Q 24.125 74.21875 28.421875 74.21875 
Q 39.75 74.21875 46.484375 68.546875 
Q 53.21875 62.890625 53.21875 53.421875 
Q 53.21875 48.921875 51.53125 44.890625 
Q 49.859375 40.875 45.40625 35.40625 
Q 44.1875 33.984375 37.640625 27.21875 
Q 31.109375 20.453125 19.1875 8.296875 
z
" id="DejaVuSans-50"/>
      </defs>
      <g transform="translate(131.548357 321.140875)scale(0.2 -0.2)">
       <use xlink:href="#DejaVuSans-50"/>
      </g>
     </g>
    </g>
    <g id="xtick_3">
     <g id="line2d_9">
      <path clip-path="url(#paba77856ce)" d="M 218.221714 298.944 
L 218.221714 27.648 
" style="fill:none;stroke:#b0b0b0;stroke-linecap:square;stroke-width:0.8;"/>
     </g>
     <g id="line2d_10">
      <g>
       <use style="stroke:#000000;stroke-width:0.8;" x="218.221714" xlink:href="#m70032dfa9e" y="298.944"/>
      </g>
     </g>
     <g id="text_3">
      <!-- 4 -->
      <defs>
       <path d="M 37.796875 64.3125 
L 12.890625 25.390625 
L 37.796875 25.390625 
z
M 35.203125 72.90625 
L 47.609375 72.90625 
L 47.609375 25.390625 
L 58.015625 25.390625 
L 58.015625 17.1875 
L 47.609375 17.1875 
L 47.609375 0 
L 37.796875 0 
L 37.796875 17.1875 
L 4.890625 17.1875 
L 4.890625 26.703125 
z
" id="DejaVuSans-52"/>
      </defs>
      <g transform="translate(211.859214 321.140875)scale(0.2 -0.2)">
       <use xlink:href="#DejaVuSans-52"/>
      </g>
     </g>
    </g>
    <g id="xtick_4">
     <g id="line2d_11">
      <path clip-path="url(#paba77856ce)" d="M 298.532571 298.944 
L 298.532571 27.648 
" style="fill:none;stroke:#b0b0b0;stroke-linecap:square;stroke-width:0.8;"/>
     </g>
     <g id="line2d_12">
      <g>
       <use style="stroke:#000000;stroke-width:0.8;" x="298.532571" xlink:href="#m70032dfa9e" y="298.944"/>
      </g>
     </g>
     <g id="text_4">
      <!-- 6 -->
      <defs>
       <path d="M 33.015625 40.375 
Q 26.375 40.375 22.484375 35.828125 
Q 18.609375 31.296875 18.609375 23.390625 
Q 18.609375 15.53125 22.484375 10.953125 
Q 26.375 6.390625 33.015625 6.390625 
Q 39.65625 6.390625 43.53125 10.953125 
Q 47.40625 15.53125 47.40625 23.390625 
Q 47.40625 31.296875 43.53125 35.828125 
Q 39.65625 40.375 33.015625 40.375 
z
M 52.59375 71.296875 
L 52.59375 62.3125 
Q 48.875 64.0625 45.09375 64.984375 
Q 41.3125 65.921875 37.59375 65.921875 
Q 27.828125 65.921875 22.671875 59.328125 
Q 17.53125 52.734375 16.796875 39.40625 
Q 19.671875 43.65625 24.015625 45.921875 
Q 28.375 48.1875 33.59375 48.1875 
Q 44.578125 48.1875 50.953125 41.515625 
Q 57.328125 34.859375 57.328125 23.390625 
Q 57.328125 12.15625 50.6875 5.359375 
Q 44.046875 -1.421875 33.015625 -1.421875 
Q 20.359375 -1.421875 13.671875 8.265625 
Q 6.984375 17.96875 6.984375 36.375 
Q 6.984375 53.65625 15.1875 63.9375 
Q 23.390625 74.21875 37.203125 74.21875 
Q 40.921875 74.21875 44.703125 73.484375 
Q 48.484375 72.75 52.59375 71.296875 
z
" id="DejaVuSans-54"/>
      </defs>
      <g transform="translate(292.170071 321.140875)scale(0.2 -0.2)">
       <use xlink:href="#DejaVuSans-54"/>
      </g>
     </g>
    </g>
    <g id="xtick_5">
     <g id="line2d_13">
      <path clip-path="url(#paba77856ce)" d="M 97.755429 298.944 
L 97.755429 27.648 
" style="fill:none;stroke:#b0b0b0;stroke-linecap:square;stroke-width:0.8;"/>
     </g>
     <g id="line2d_14">
      <defs>
       <path d="M 0 0 
L 0 2 
" id="m0f46a2b78e" style="stroke:#000000;stroke-width:0.6;"/>
      </defs>
      <g>
       <use style="stroke:#000000;stroke-width:0.6;" x="97.755429" xlink:href="#m0f46a2b78e" y="298.944"/>
      </g>
     </g>
    </g>
    <g id="xtick_6">
     <g id="line2d_15">
      <path clip-path="url(#paba77856ce)" d="M 178.066286 298.944 
L 178.066286 27.648 
" style="fill:none;stroke:#b0b0b0;stroke-linecap:square;stroke-width:0.8;"/>
     </g>
     <g id="line2d_16">
      <g>
       <use style="stroke:#000000;stroke-width:0.6;" x="178.066286" xlink:href="#m0f46a2b78e" y="298.944"/>
      </g>
     </g>
    </g>
    <g id="xtick_7">
     <g id="line2d_17">
      <path clip-path="url(#paba77856ce)" d="M 258.377143 298.944 
L 258.377143 27.648 
" style="fill:none;stroke:#b0b0b0;stroke-linecap:square;stroke-width:0.8;"/>
     </g>
     <g id="line2d_18">
      <g>
       <use style="stroke:#000000;stroke-width:0.6;" x="258.377143" xlink:href="#m0f46a2b78e" y="298.944"/>
      </g>
     </g>
    </g>
    <g id="xtick_8">
     <g id="line2d_19">
      <path clip-path="url(#paba77856ce)" d="M 338.688 298.944 
L 338.688 27.648 
" style="fill:none;stroke:#b0b0b0;stroke-linecap:square;stroke-width:0.8;"/>
     </g>
     <g id="line2d_20">
      <g>
       <use style="stroke:#000000;stroke-width:0.6;" x="338.688" xlink:href="#m0f46a2b78e" y="298.944"/>
      </g>
     </g>
    </g>
    <g id="text_5">
     <!-- log10(# f-evals / dimension) -->
     <defs>
      <path d="M 9.421875 75.984375 
L 18.40625 75.984375 
L 18.40625 0 
L 9.421875 0 
z
" id="DejaVuSans-108"/>
      <path d="M 30.609375 48.390625 
Q 23.390625 48.390625 19.1875 42.75 
Q 14.984375 37.109375 14.984375 27.296875 
Q 14.984375 17.484375 19.15625 11.84375 
Q 23.34375 6.203125 30.609375 6.203125 
Q 37.796875 6.203125 41.984375 11.859375 
Q 46.1875 17.53125 46.1875 27.296875 
Q 46.1875 37.015625 41.984375 42.703125 
Q 37.796875 48.390625 30.609375 48.390625 
z
M 30.609375 56 
Q 42.328125 56 49.015625 48.375 
Q 55.71875 40.765625 55.71875 27.296875 
Q 55.71875 13.875 49.015625 6.21875 
Q 42.328125 -1.421875 30.609375 -1.421875 
Q 18.84375 -1.421875 12.171875 6.21875 
Q 5.515625 13.875 5.515625 27.296875 
Q 5.515625 40.765625 12.171875 48.375 
Q 18.84375 56 30.609375 56 
z
" id="DejaVuSans-111"/>
      <path d="M 45.40625 27.984375 
Q 45.40625 37.75 41.375 43.109375 
Q 37.359375 48.484375 30.078125 48.484375 
Q 22.859375 48.484375 18.828125 43.109375 
Q 14.796875 37.75 14.796875 27.984375 
Q 14.796875 18.265625 18.828125 12.890625 
Q 22.859375 7.515625 30.078125 7.515625 
Q 37.359375 7.515625 41.375 12.890625 
Q 45.40625 18.265625 45.40625 27.984375 
z
M 54.390625 6.78125 
Q 54.390625 -7.171875 48.1875 -13.984375 
Q 42 -20.796875 29.203125 -20.796875 
Q 24.46875 -20.796875 20.265625 -20.09375 
Q 16.0625 -19.390625 12.109375 -17.921875 
L 12.109375 -9.1875 
Q 16.0625 -11.328125 19.921875 -12.34375 
Q 23.78125 -13.375 27.78125 -13.375 
Q 36.625 -13.375 41.015625 -8.765625 
Q 45.40625 -4.15625 45.40625 5.171875 
L 45.40625 9.625 
Q 42.625 4.78125 38.28125 2.390625 
Q 33.9375 0 27.875 0 
Q 17.828125 0 11.671875 7.65625 
Q 5.515625 15.328125 5.515625 27.984375 
Q 5.515625 40.671875 11.671875 48.328125 
Q 17.828125 56 27.875 56 
Q 33.9375 56 38.28125 53.609375 
Q 42.625 51.21875 45.40625 46.390625 
L 45.40625 54.6875 
L 54.390625 54.6875 
z
" id="DejaVuSans-103"/>
      <path d="M 12.40625 8.296875 
L 28.515625 8.296875 
L 28.515625 63.921875 
L 10.984375 60.40625 
L 10.984375 69.390625 
L 28.421875 72.90625 
L 38.28125 72.90625 
L 38.28125 8.296875 
L 54.390625 8.296875 
L 54.390625 0 
L 12.40625 0 
z
" id="DejaVuSans-49"/>
      <path d="M 31 75.875 
Q 24.46875 64.65625 21.28125 53.65625 
Q 18.109375 42.671875 18.109375 31.390625 
Q 18.109375 20.125 21.3125 9.0625 
Q 24.515625 -2 31 -13.1875 
L 23.1875 -13.1875 
Q 15.875 -1.703125 12.234375 9.375 
Q 8.59375 20.453125 8.59375 31.390625 
Q 8.59375 42.28125 12.203125 53.3125 
Q 15.828125 64.359375 23.1875 75.875 
z
" id="DejaVuSans-40"/>
      <path d="M 51.125 44 
L 36.921875 44 
L 32.8125 27.6875 
L 47.125 27.6875 
z
M 43.796875 71.78125 
L 38.71875 51.515625 
L 52.984375 51.515625 
L 58.109375 71.78125 
L 65.921875 71.78125 
L 60.890625 51.515625 
L 76.125 51.515625 
L 76.125 44 
L 58.984375 44 
L 54.984375 27.6875 
L 70.515625 27.6875 
L 70.515625 20.21875 
L 53.078125 20.21875 
L 48 0 
L 40.1875 0 
L 45.21875 20.21875 
L 30.90625 20.21875 
L 25.875 0 
L 18.015625 0 
L 23.09375 20.21875 
L 7.71875 20.21875 
L 7.71875 27.6875 
L 24.90625 27.6875 
L 29 44 
L 13.28125 44 
L 13.28125 51.515625 
L 30.90625 51.515625 
L 35.890625 71.78125 
z
" id="DejaVuSans-35"/>
      <path id="DejaVuSans-32"/>
      <path d="M 37.109375 75.984375 
L 37.109375 68.5 
L 28.515625 68.5 
Q 23.6875 68.5 21.796875 66.546875 
Q 19.921875 64.59375 19.921875 59.515625 
L 19.921875 54.6875 
L 34.71875 54.6875 
L 34.71875 47.703125 
L 19.921875 47.703125 
L 19.921875 0 
L 10.890625 0 
L 10.890625 47.703125 
L 2.296875 47.703125 
L 2.296875 54.6875 
L 10.890625 54.6875 
L 10.890625 58.5 
Q 10.890625 67.625 15.140625 71.796875 
Q 19.390625 75.984375 28.609375 75.984375 
z
" id="DejaVuSans-102"/>
      <path d="M 4.890625 31.390625 
L 31.203125 31.390625 
L 31.203125 23.390625 
L 4.890625 23.390625 
z
" id="DejaVuSans-45"/>
      <path d="M 56.203125 29.59375 
L 56.203125 25.203125 
L 14.890625 25.203125 
Q 15.484375 15.921875 20.484375 11.0625 
Q 25.484375 6.203125 34.421875 6.203125 
Q 39.59375 6.203125 44.453125 7.46875 
Q 49.3125 8.734375 54.109375 11.28125 
L 54.109375 2.78125 
Q 49.265625 0.734375 44.1875 -0.34375 
Q 39.109375 -1.421875 33.890625 -1.421875 
Q 20.796875 -1.421875 13.15625 6.1875 
Q 5.515625 13.8125 5.515625 26.8125 
Q 5.515625 40.234375 12.765625 48.109375 
Q 20.015625 56 32.328125 56 
Q 43.359375 56 49.78125 48.890625 
Q 56.203125 41.796875 56.203125 29.59375 
z
M 47.21875 32.234375 
Q 47.125 39.59375 43.09375 43.984375 
Q 39.0625 48.390625 32.421875 48.390625 
Q 24.90625 48.390625 20.390625 44.140625 
Q 15.875 39.890625 15.1875 32.171875 
z
" id="DejaVuSans-101"/>
      <path d="M 2.984375 54.6875 
L 12.5 54.6875 
L 29.59375 8.796875 
L 46.6875 54.6875 
L 56.203125 54.6875 
L 35.6875 0 
L 23.484375 0 
z
" id="DejaVuSans-118"/>
      <path d="M 34.28125 27.484375 
Q 23.390625 27.484375 19.1875 25 
Q 14.984375 22.515625 14.984375 16.5 
Q 14.984375 11.71875 18.140625 8.90625 
Q 21.296875 6.109375 26.703125 6.109375 
Q 34.1875 6.109375 38.703125 11.40625 
Q 43.21875 16.703125 43.21875 25.484375 
L 43.21875 27.484375 
z
M 52.203125 31.203125 
L 52.203125 0 
L 43.21875 0 
L 43.21875 8.296875 
Q 40.140625 3.328125 35.546875 0.953125 
Q 30.953125 -1.421875 24.3125 -1.421875 
Q 15.921875 -1.421875 10.953125 3.296875 
Q 6 8.015625 6 15.921875 
Q 6 25.140625 12.171875 29.828125 
Q 18.359375 34.515625 30.609375 34.515625 
L 43.21875 34.515625 
L 43.21875 35.40625 
Q 43.21875 41.609375 39.140625 45 
Q 35.0625 48.390625 27.6875 48.390625 
Q 23 48.390625 18.546875 47.265625 
Q 14.109375 46.140625 10.015625 43.890625 
L 10.015625 52.203125 
Q 14.9375 54.109375 19.578125 55.046875 
Q 24.21875 56 28.609375 56 
Q 40.484375 56 46.34375 49.84375 
Q 52.203125 43.703125 52.203125 31.203125 
z
" id="DejaVuSans-97"/>
      <path d="M 44.28125 53.078125 
L 44.28125 44.578125 
Q 40.484375 46.53125 36.375 47.5 
Q 32.28125 48.484375 27.875 48.484375 
Q 21.1875 48.484375 17.84375 46.4375 
Q 14.5 44.390625 14.5 40.28125 
Q 14.5 37.15625 16.890625 35.375 
Q 19.28125 33.59375 26.515625 31.984375 
L 29.59375 31.296875 
Q 39.15625 29.25 43.1875 25.515625 
Q 47.21875 21.78125 47.21875 15.09375 
Q 47.21875 7.46875 41.1875 3.015625 
Q 35.15625 -1.421875 24.609375 -1.421875 
Q 20.21875 -1.421875 15.453125 -0.5625 
Q 10.6875 0.296875 5.421875 2 
L 5.421875 11.28125 
Q 10.40625 8.6875 15.234375 7.390625 
Q 20.0625 6.109375 24.8125 6.109375 
Q 31.15625 6.109375 34.5625 8.28125 
Q 37.984375 10.453125 37.984375 14.40625 
Q 37.984375 18.0625 35.515625 20.015625 
Q 33.0625 21.96875 24.703125 23.78125 
L 21.578125 24.515625 
Q 13.234375 26.265625 9.515625 29.90625 
Q 5.8125 33.546875 5.8125 39.890625 
Q 5.8125 47.609375 11.28125 51.796875 
Q 16.75 56 26.8125 56 
Q 31.78125 56 36.171875 55.265625 
Q 40.578125 54.546875 44.28125 53.078125 
z
" id="DejaVuSans-115"/>
      <path d="M 25.390625 72.90625 
L 33.6875 72.90625 
L 8.296875 -9.28125 
L 0 -9.28125 
z
" id="DejaVuSans-47"/>
      <path d="M 45.40625 46.390625 
L 45.40625 75.984375 
L 54.390625 75.984375 
L 54.390625 0 
L 45.40625 0 
L 45.40625 8.203125 
Q 42.578125 3.328125 38.25 0.953125 
Q 33.9375 -1.421875 27.875 -1.421875 
Q 17.96875 -1.421875 11.734375 6.484375 
Q 5.515625 14.40625 5.515625 27.296875 
Q 5.515625 40.1875 11.734375 48.09375 
Q 17.96875 56 27.875 56 
Q 33.9375 56 38.25 53.625 
Q 42.578125 51.265625 45.40625 46.390625 
z
M 14.796875 27.296875 
Q 14.796875 17.390625 18.875 11.75 
Q 22.953125 6.109375 30.078125 6.109375 
Q 37.203125 6.109375 41.296875 11.75 
Q 45.40625 17.390625 45.40625 27.296875 
Q 45.40625 37.203125 41.296875 42.84375 
Q 37.203125 48.484375 30.078125 48.484375 
Q 22.953125 48.484375 18.875 42.84375 
Q 14.796875 37.203125 14.796875 27.296875 
z
" id="DejaVuSans-100"/>
      <path d="M 9.421875 54.6875 
L 18.40625 54.6875 
L 18.40625 0 
L 9.421875 0 
z
M 9.421875 75.984375 
L 18.40625 75.984375 
L 18.40625 64.59375 
L 9.421875 64.59375 
z
" id="DejaVuSans-105"/>
      <path d="M 52 44.1875 
Q 55.375 50.25 60.0625 53.125 
Q 64.75 56 71.09375 56 
Q 79.640625 56 84.28125 50.015625 
Q 88.921875 44.046875 88.921875 33.015625 
L 88.921875 0 
L 79.890625 0 
L 79.890625 32.71875 
Q 79.890625 40.578125 77.09375 44.375 
Q 74.3125 48.1875 68.609375 48.1875 
Q 61.625 48.1875 57.5625 43.546875 
Q 53.515625 38.921875 53.515625 30.90625 
L 53.515625 0 
L 44.484375 0 
L 44.484375 32.71875 
Q 44.484375 40.625 41.703125 44.40625 
Q 38.921875 48.1875 33.109375 48.1875 
Q 26.21875 48.1875 22.15625 43.53125 
Q 18.109375 38.875 18.109375 30.90625 
L 18.109375 0 
L 9.078125 0 
L 9.078125 54.6875 
L 18.109375 54.6875 
L 18.109375 46.1875 
Q 21.1875 51.21875 25.484375 53.609375 
Q 29.78125 56 35.6875 56 
Q 41.65625 56 45.828125 52.96875 
Q 50 49.953125 52 44.1875 
z
" id="DejaVuSans-109"/>
      <path d="M 54.890625 33.015625 
L 54.890625 0 
L 45.90625 0 
L 45.90625 32.71875 
Q 45.90625 40.484375 42.875 44.328125 
Q 39.84375 48.1875 33.796875 48.1875 
Q 26.515625 48.1875 22.3125 43.546875 
Q 18.109375 38.921875 18.109375 30.90625 
L 18.109375 0 
L 9.078125 0 
L 9.078125 54.6875 
L 18.109375 54.6875 
L 18.109375 46.1875 
Q 21.34375 51.125 25.703125 53.5625 
Q 30.078125 56 35.796875 56 
Q 45.21875 56 50.046875 50.171875 
Q 54.890625 44.34375 54.890625 33.015625 
z
" id="DejaVuSans-110"/>
      <path d="M 8.015625 75.875 
L 15.828125 75.875 
Q 23.140625 64.359375 26.78125 53.3125 
Q 30.421875 42.28125 30.421875 31.390625 
Q 30.421875 20.453125 26.78125 9.375 
Q 23.140625 -1.703125 15.828125 -13.1875 
L 8.015625 -13.1875 
Q 14.5 -2 17.703125 9.0625 
Q 20.90625 20.125 20.90625 31.390625 
Q 20.90625 42.671875 17.703125 53.65625 
Q 14.5 64.65625 8.015625 75.875 
z
" id="DejaVuSans-41"/>
     </defs>
     <g transform="translate(77.303219 342.217594)scale(0.17 -0.17)">
      <use xlink:href="#DejaVuSans-108"/>
      <use x="27.783203" xlink:href="#DejaVuSans-111"/>
      <use x="88.964844" xlink:href="#DejaVuSans-103"/>
      <use x="152.441406" xlink:href="#DejaVuSans-49"/>
      <use x="216.064453" xlink:href="#DejaVuSans-48"/>
      <use x="279.6875" xlink:href="#DejaVuSans-40"/>
      <use x="318.701172" xlink:href="#DejaVuSans-35"/>
      <use x="402.490234" xlink:href="#DejaVuSans-32"/>
      <use x="434.277344" xlink:href="#DejaVuSans-102"/>
      <use x="469.404297" xlink:href="#DejaVuSans-45"/>
      <use x="505.488281" xlink:href="#DejaVuSans-101"/>
      <use x="567.011719" xlink:href="#DejaVuSans-118"/>
      <use x="626.191406" xlink:href="#DejaVuSans-97"/>
      <use x="687.470703" xlink:href="#DejaVuSans-108"/>
      <use x="715.253906" xlink:href="#DejaVuSans-115"/>
      <use x="767.353516" xlink:href="#DejaVuSans-32"/>
      <use x="799.140625" xlink:href="#DejaVuSans-47"/>
      <use x="832.832031" xlink:href="#DejaVuSans-32"/>
      <use x="864.619141" xlink:href="#DejaVuSans-100"/>
      <use x="928.095703" xlink:href="#DejaVuSans-105"/>
      <use x="955.878906" xlink:href="#DejaVuSans-109"/>
      <use x="1053.291016" xlink:href="#DejaVuSans-101"/>
      <use x="1114.814453" xlink:href="#DejaVuSans-110"/>
      <use x="1178.193359" xlink:href="#DejaVuSans-115"/>
      <use x="1230.292969" xlink:href="#DejaVuSans-105"/>
      <use x="1258.076172" xlink:href="#DejaVuSans-111"/>
      <use x="1319.257812" xlink:href="#DejaVuSans-110"/>
      <use x="1382.636719" xlink:href="#DejaVuSans-41"/>
     </g>
    </g>
   </g>
   <g id="matplotlib.axis_2">
    <g id="ytick_1">
     <g id="line2d_21">
      <path clip-path="url(#paba77856ce)" d="M 57.6 298.944 
L 338.688 298.944 
" style="fill:none;stroke:#b0b0b0;stroke-linecap:square;stroke-width:0.8;"/>
     </g>
     <g id="line2d_22">
      <defs>
       <path d="M 0 0 
L -3.5 0 
" id="m5eafa54023" style="stroke:#000000;stroke-width:0.8;"/>
      </defs>
      <g>
       <use style="stroke:#000000;stroke-width:0.8;" x="57.6" xlink:href="#m5eafa54023" y="298.944"/>
      </g>
     </g>
     <g id="text_6">
      <!-- 0.0 -->
      <defs>
       <path d="M 10.6875 12.40625 
L 21 12.40625 
L 21 0 
L 10.6875 0 
z
" id="DejaVuSans-46"/>
      </defs>
      <g transform="translate(25.155 305.02275)scale(0.16 -0.16)">
       <use xlink:href="#DejaVuSans-48"/>
       <use x="63.623047" xlink:href="#DejaVuSans-46"/>
       <use x="95.410156" xlink:href="#DejaVuSans-48"/>
      </g>
     </g>
    </g>
    <g id="ytick_2">
     <g id="line2d_23">
      <path clip-path="url(#paba77856ce)" d="M 57.6 245.22202 
L 338.688 245.22202 
" style="fill:none;stroke:#b0b0b0;stroke-linecap:square;stroke-width:0.8;"/>
     </g>
     <g id="line2d_24">
      <g>
       <use style="stroke:#000000;stroke-width:0.8;" x="57.6" xlink:href="#m5eafa54023" y="245.22202"/>
      </g>
     </g>
     <g id="text_7">
      <!-- 0.2 -->
      <g transform="translate(25.155 251.30077)scale(0.16 -0.16)">
       <use xlink:href="#DejaVuSans-48"/>
       <use x="63.623047" xlink:href="#DejaVuSans-46"/>
       <use x="95.410156" xlink:href="#DejaVuSans-50"/>
      </g>
     </g>
    </g>
    <g id="ytick_3">
     <g id="line2d_25">
      <path clip-path="url(#paba77856ce)" d="M 57.6 191.50004 
L 338.688 191.50004 
" style="fill:none;stroke:#b0b0b0;stroke-linecap:square;stroke-width:0.8;"/>
     </g>
     <g id="line2d_26">
      <g>
       <use style="stroke:#000000;stroke-width:0.8;" x="57.6" xlink:href="#m5eafa54023" y="191.50004"/>
      </g>
     </g>
     <g id="text_8">
      <!-- 0.4 -->
      <g transform="translate(25.155 197.57879)scale(0.16 -0.16)">
       <use xlink:href="#DejaVuSans-48"/>
       <use x="63.623047" xlink:href="#DejaVuSans-46"/>
       <use x="95.410156" xlink:href="#DejaVuSans-52"/>
      </g>
     </g>
    </g>
    <g id="ytick_4">
     <g id="line2d_27">
      <path clip-path="url(#paba77856ce)" d="M 57.6 137.778059 
L 338.688 137.778059 
" style="fill:none;stroke:#b0b0b0;stroke-linecap:square;stroke-width:0.8;"/>
     </g>
     <g id="line2d_28">
      <g>
       <use style="stroke:#000000;stroke-width:0.8;" x="57.6" xlink:href="#m5eafa54023" y="137.778059"/>
      </g>
     </g>
     <g id="text_9">
      <!-- 0.6 -->
      <g transform="translate(25.155 143.856809)scale(0.16 -0.16)">
       <use xlink:href="#DejaVuSans-48"/>
       <use x="63.623047" xlink:href="#DejaVuSans-46"/>
       <use x="95.410156" xlink:href="#DejaVuSans-54"/>
      </g>
     </g>
    </g>
    <g id="ytick_5">
     <g id="line2d_29">
      <path clip-path="url(#paba77856ce)" d="M 57.6 84.056079 
L 338.688 84.056079 
" style="fill:none;stroke:#b0b0b0;stroke-linecap:square;stroke-width:0.8;"/>
     </g>
     <g id="line2d_30">
      <g>
       <use style="stroke:#000000;stroke-width:0.8;" x="57.6" xlink:href="#m5eafa54023" y="84.056079"/>
      </g>
     </g>
     <g id="text_10">
      <!-- 0.8 -->
      <defs>
       <path d="M 31.78125 34.625 
Q 24.75 34.625 20.71875 30.859375 
Q 16.703125 27.09375 16.703125 20.515625 
Q 16.703125 13.921875 20.71875 10.15625 
Q 24.75 6.390625 31.78125 6.390625 
Q 38.8125 6.390625 42.859375 10.171875 
Q 46.921875 13.96875 46.921875 20.515625 
Q 46.921875 27.09375 42.890625 30.859375 
Q 38.875 34.625 31.78125 34.625 
z
M 21.921875 38.8125 
Q 15.578125 40.375 12.03125 44.71875 
Q 8.5 49.078125 8.5 55.328125 
Q 8.5 64.0625 14.71875 69.140625 
Q 20.953125 74.21875 31.78125 74.21875 
Q 42.671875 74.21875 48.875 69.140625 
Q 55.078125 64.0625 55.078125 55.328125 
Q 55.078125 49.078125 51.53125 44.71875 
Q 48 40.375 41.703125 38.8125 
Q 48.828125 37.15625 52.796875 32.3125 
Q 56.78125 27.484375 56.78125 20.515625 
Q 56.78125 9.90625 50.3125 4.234375 
Q 43.84375 -1.421875 31.78125 -1.421875 
Q 19.734375 -1.421875 13.25 4.234375 
Q 6.78125 9.90625 6.78125 20.515625 
Q 6.78125 27.484375 10.78125 32.3125 
Q 14.796875 37.15625 21.921875 38.8125 
z
M 18.3125 54.390625 
Q 18.3125 48.734375 21.84375 45.5625 
Q 25.390625 42.390625 31.78125 42.390625 
Q 38.140625 42.390625 41.71875 45.5625 
Q 45.3125 48.734375 45.3125 54.390625 
Q 45.3125 60.0625 41.71875 63.234375 
Q 38.140625 66.40625 31.78125 66.40625 
Q 25.390625 66.40625 21.84375 63.234375 
Q 18.3125 60.0625 18.3125 54.390625 
z
" id="DejaVuSans-56"/>
      </defs>
      <g transform="translate(25.155 90.134829)scale(0.16 -0.16)">
       <use xlink:href="#DejaVuSans-48"/>
       <use x="63.623047" xlink:href="#DejaVuSans-46"/>
       <use x="95.410156" xlink:href="#DejaVuSans-56"/>
      </g>
     </g>
    </g>
    <g id="ytick_6">
     <g id="line2d_31">
      <path clip-path="url(#paba77856ce)" d="M 57.6 30.334099 
L 338.688 30.334099 
" style="fill:none;stroke:#b0b0b0;stroke-linecap:square;stroke-width:0.8;"/>
     </g>
     <g id="line2d_32">
      <g>
       <use style="stroke:#000000;stroke-width:0.8;" x="57.6" xlink:href="#m5eafa54023" y="30.334099"/>
      </g>
     </g>
     <g id="text_11">
      <!-- 1.0 -->
      <g transform="translate(25.155 36.412849)scale(0.16 -0.16)">
       <use xlink:href="#DejaVuSans-49"/>
       <use x="63.623047" xlink:href="#DejaVuSans-46"/>
       <use x="95.410156" xlink:href="#DejaVuSans-48"/>
      </g>
     </g>
    </g>
    <g id="text_12">
     <!-- Fraction of function,target pairs -->
     <defs>
      <path d="M 9.8125 72.90625 
L 51.703125 72.90625 
L 51.703125 64.59375 
L 19.671875 64.59375 
L 19.671875 43.109375 
L 48.578125 43.109375 
L 48.578125 34.8125 
L 19.671875 34.8125 
L 19.671875 0 
L 9.8125 0 
z
" id="DejaVuSans-70"/>
      <path d="M 41.109375 46.296875 
Q 39.59375 47.171875 37.8125 47.578125 
Q 36.03125 48 33.890625 48 
Q 26.265625 48 22.1875 43.046875 
Q 18.109375 38.09375 18.109375 28.8125 
L 18.109375 0 
L 9.078125 0 
L 9.078125 54.6875 
L 18.109375 54.6875 
L 18.109375 46.1875 
Q 20.953125 51.171875 25.484375 53.578125 
Q 30.03125 56 36.53125 56 
Q 37.453125 56 38.578125 55.875 
Q 39.703125 55.765625 41.0625 55.515625 
z
" id="DejaVuSans-114"/>
      <path d="M 48.78125 52.59375 
L 48.78125 44.1875 
Q 44.96875 46.296875 41.140625 47.34375 
Q 37.3125 48.390625 33.40625 48.390625 
Q 24.65625 48.390625 19.8125 42.84375 
Q 14.984375 37.3125 14.984375 27.296875 
Q 14.984375 17.28125 19.8125 11.734375 
Q 24.65625 6.203125 33.40625 6.203125 
Q 37.3125 6.203125 41.140625 7.25 
Q 44.96875 8.296875 48.78125 10.40625 
L 48.78125 2.09375 
Q 45.015625 0.34375 40.984375 -0.53125 
Q 36.96875 -1.421875 32.421875 -1.421875 
Q 20.0625 -1.421875 12.78125 6.34375 
Q 5.515625 14.109375 5.515625 27.296875 
Q 5.515625 40.671875 12.859375 48.328125 
Q 20.21875 56 33.015625 56 
Q 37.15625 56 41.109375 55.140625 
Q 45.0625 54.296875 48.78125 52.59375 
z
" id="DejaVuSans-99"/>
      <path d="M 18.3125 70.21875 
L 18.3125 54.6875 
L 36.8125 54.6875 
L 36.8125 47.703125 
L 18.3125 47.703125 
L 18.3125 18.015625 
Q 18.3125 11.328125 20.140625 9.421875 
Q 21.96875 7.515625 27.59375 7.515625 
L 36.8125 7.515625 
L 36.8125 0 
L 27.59375 0 
Q 17.1875 0 13.234375 3.875 
Q 9.28125 7.765625 9.28125 18.015625 
L 9.28125 47.703125 
L 2.6875 47.703125 
L 2.6875 54.6875 
L 9.28125 54.6875 
L 9.28125 70.21875 
z
" id="DejaVuSans-116"/>
      <path d="M 8.5 21.578125 
L 8.5 54.6875 
L 17.484375 54.6875 
L 17.484375 21.921875 
Q 17.484375 14.15625 20.5 10.265625 
Q 23.53125 6.390625 29.59375 6.390625 
Q 36.859375 6.390625 41.078125 11.03125 
Q 45.3125 15.671875 45.3125 23.6875 
L 45.3125 54.6875 
L 54.296875 54.6875 
L 54.296875 0 
L 45.3125 0 
L 45.3125 8.40625 
Q 42.046875 3.421875 37.71875 1 
Q 33.40625 -1.421875 27.6875 -1.421875 
Q 18.265625 -1.421875 13.375 4.4375 
Q 8.5 10.296875 8.5 21.578125 
z
M 31.109375 56 
z
" id="DejaVuSans-117"/>
      <path d="M 11.71875 12.40625 
L 22.015625 12.40625 
L 22.015625 4 
L 14.015625 -11.625 
L 7.71875 -11.625 
L 11.71875 4 
z
" id="DejaVuSans-44"/>
      <path d="M 18.109375 8.203125 
L 18.109375 -20.796875 
L 9.078125 -20.796875 
L 9.078125 54.6875 
L 18.109375 54.6875 
L 18.109375 46.390625 
Q 20.953125 51.265625 25.265625 53.625 
Q 29.59375 56 35.59375 56 
Q 45.5625 56 51.78125 48.09375 
Q 58.015625 40.1875 58.015625 27.296875 
Q 58.015625 14.40625 51.78125 6.484375 
Q 45.5625 -1.421875 35.59375 -1.421875 
Q 29.59375 -1.421875 25.265625 0.953125 
Q 20.953125 3.328125 18.109375 8.203125 
z
M 48.6875 27.296875 
Q 48.6875 37.203125 44.609375 42.84375 
Q 40.53125 48.484375 33.40625 48.484375 
Q 26.265625 48.484375 22.1875 42.84375 
Q 18.109375 37.203125 18.109375 27.296875 
Q 18.109375 17.390625 22.1875 11.75 
Q 26.265625 6.109375 33.40625 6.109375 
Q 40.53125 6.109375 44.609375 11.75 
Q 48.6875 17.390625 48.6875 27.296875 
z
" id="DejaVuSans-112"/>
     </defs>
     <g transform="translate(17.619531 298.435375)rotate(-90)scale(0.17 -0.17)">
      <use xlink:href="#DejaVuSans-70"/>
      <use x="57.410156" xlink:href="#DejaVuSans-114"/>
      <use x="98.523438" xlink:href="#DejaVuSans-97"/>
      <use x="159.802734" xlink:href="#DejaVuSans-99"/>
      <use x="214.783203" xlink:href="#DejaVuSans-116"/>
      <use x="253.992188" xlink:href="#DejaVuSans-105"/>
      <use x="281.775391" xlink:href="#DejaVuSans-111"/>
      <use x="342.957031" xlink:href="#DejaVuSans-110"/>
      <use x="406.335938" xlink:href="#DejaVuSans-32"/>
      <use x="438.123047" xlink:href="#DejaVuSans-111"/>
      <use x="499.304688" xlink:href="#DejaVuSans-102"/>
      <use x="534.509766" xlink:href="#DejaVuSans-32"/>
      <use x="566.296875" xlink:href="#DejaVuSans-102"/>
      <use x="601.501953" xlink:href="#DejaVuSans-117"/>
      <use x="664.880859" xlink:href="#DejaVuSans-110"/>
      <use x="728.259766" xlink:href="#DejaVuSans-99"/>
      <use x="783.240234" xlink:href="#DejaVuSans-116"/>
      <use x="822.449219" xlink:href="#DejaVuSans-105"/>
      <use x="850.232422" xlink:href="#DejaVuSans-111"/>
      <use x="911.414062" xlink:href="#DejaVuSans-110"/>
      <use x="974.792969" xlink:href="#DejaVuSans-44"/>
      <use x="1006.580078" xlink:href="#DejaVuSans-116"/>
      <use x="1045.789062" xlink:href="#DejaVuSans-97"/>
      <use x="1107.068359" xlink:href="#DejaVuSans-114"/>
      <use x="1148.166016" xlink:href="#DejaVuSans-103"/>
      <use x="1211.642578" xlink:href="#DejaVuSans-101"/>
      <use x="1273.166016" xlink:href="#DejaVuSans-116"/>
      <use x="1312.375" xlink:href="#DejaVuSans-32"/>
      <use x="1344.162109" xlink:href="#DejaVuSans-112"/>
      <use x="1407.638672" xlink:href="#DejaVuSans-97"/>
      <use x="1468.917969" xlink:href="#DejaVuSans-105"/>
      <use x="1496.701172" xlink:href="#DejaVuSans-114"/>
      <use x="1537.814453" xlink:href="#DejaVuSans-115"/>
     </g>
    </g>
   </g>
   <g id="line2d_33">
    <defs>
     <path d="M 0 1.5 
C 0.397805 1.5 0.77937 1.341951 1.06066 1.06066 
C 1.341951 0.77937 1.5 0.397805 1.5 0 
C 1.5 -0.397805 1.341951 -0.77937 1.06066 -1.06066 
C 0.77937 -1.341951 0.397805 -1.5 0 -1.5 
C -0.397805 -1.5 -0.77937 -1.341951 -1.06066 -1.06066 
C -1.341951 -0.77937 -1.5 -0.397805 -1.5 0 
C -1.5 0.397805 -1.341951 0.77937 -1.06066 1.06066 
C -0.77937 1.341951 -0.397805 1.5 0 1.5 
z
" id="m613cc3ca0b" style="stroke:#f5deb3;"/>
    </defs>
    <g>
     <use style="fill:#f5deb3;stroke:#f5deb3;" x="264.192843" xlink:href="#m613cc3ca0b" y="30.334099"/>
     <use style="fill:#f5deb3;stroke:#f5deb3;" x="264.192843" xlink:href="#m613cc3ca0b" y="30.334099"/>
    </g>
   </g>
   <g id="line2d_34">
    <defs>
     <path d="M 0 1.5 
C 0.397805 1.5 0.77937 1.341951 1.06066 1.06066 
C 1.341951 0.77937 1.5 0.397805 1.5 0 
C 1.5 -0.397805 1.341951 -0.77937 1.06066 -1.06066 
C 0.77937 -1.341951 0.397805 -1.5 0 -1.5 
C -0.397805 -1.5 -0.77937 -1.341951 -1.06066 -1.06066 
C -1.341951 -0.77937 -1.5 -0.397805 -1.5 0 
C -1.5 0.397805 -1.341951 0.77937 -1.06066 1.06066 
C -0.77937 1.341951 -0.397805 1.5 0 1.5 
z
" id="m8d47e0a2b0" style="stroke:#000080;"/>
    </defs>
    <g>
     <use style="fill:#000080;stroke:#000080;" x="274.801917" xlink:href="#m8d47e0a2b0" y="198.873645"/>
     <use style="fill:#000080;stroke:#000080;" x="274.801917" xlink:href="#m8d47e0a2b0" y="198.873645"/>
    </g>
   </g>
   <g id="line2d_35">
    <path d="M 17.444571 298.944 
L 17.444571 225.207949 
L 187.042946 225.207949 
L 187.042946 224.681263 
L 188.076882 224.681263 
L 188.076882 224.154577 
L 189.448725 224.154577 
L 189.448725 223.627891 
L 195.215221 223.627891 
L 195.215221 223.101204 
L 202.569645 223.101204 
L 202.569645 222.574518 
L 203.297461 222.574518 
L 203.297461 222.047832 
L 212.079364 222.047832 
L 212.079364 221.521146 
L 212.145461 221.521146 
L 212.145461 220.99446 
L 212.72311 220.99446 
L 212.72311 220.467774 
L 214.957967 220.467774 
L 214.957967 219.941088 
L 219.757679 219.941088 
L 219.757679 219.414402 
L 220.498337 219.414402 
L 220.498337 218.887716 
L 221.003811 218.887716 
L 221.003811 218.36103 
L 221.12545 218.36103 
L 221.12545 217.834344 
L 221.289594 217.834344 
L 221.289594 217.307658 
L 221.337939 217.307658 
L 221.337939 216.780971 
L 221.529125 216.780971 
L 221.529125 216.254285 
L 222.279105 216.254285 
L 222.279105 215.727599 
L 222.358523 215.727599 
L 222.358523 215.200913 
L 222.44429 215.200913 
L 222.44429 214.674227 
L 222.84378 214.674227 
L 222.84378 214.147541 
L 222.906948 214.147541 
L 222.906948 213.620855 
L 223.394502 213.620855 
L 223.394502 213.094169 
L 223.42468 213.094169 
L 223.42468 212.567483 
L 225.061121 212.567483 
L 225.061121 212.040797 
L 226.099586 212.040797 
L 226.099586 211.514111 
L 226.368139 211.514111 
L 226.368139 210.987425 
L 226.745729 210.987425 
L 226.745729 210.460738 
L 228.361199 210.460738 
L 228.361199 209.934052 
L 232.505789 209.934052 
L 232.505789 209.407366 
L 233.911585 209.407366 
L 233.911585 208.88068 
L 234.479016 208.88068 
L 234.479016 208.353994 
L 238.466399 208.353994 
L 238.466399 207.827308 
L 238.470222 207.827308 
L 238.470222 207.300622 
L 238.559011 207.300622 
L 238.559011 206.773936 
L 238.716892 206.773936 
L 238.716892 206.24725 
L 242.270093 206.24725 
L 242.270093 205.720564 
L 247.338622 205.720564 
L 247.338622 205.193878 
L 248.180144 205.193878 
L 248.180144 204.667192 
L 248.3657 204.667192 
L 248.3657 204.140506 
L 252.792273 204.140506 
L 252.792273 203.613819 
L 253.669051 203.613819 
L 253.669051 203.087133 
L 257.729209 203.087133 
L 257.729209 202.560447 
L 257.733027 202.560447 
L 257.733027 202.033761 
L 263.301731 202.033761 
L 263.301731 201.507075 
L 263.786593 201.507075 
L 263.786593 200.980389 
L 264.585948 200.980389 
L 264.585948 200.453703 
L 267.16424 200.453703 
L 267.16424 199.927017 
L 268.276625 199.927017 
L 268.276625 199.400331 
L 274.801917 199.400331 
L 274.801917 198.873645 
L 338.688 198.873645 
" style="fill:none;stroke:#000080;stroke-linecap:square;stroke-width:1.5;"/>
   </g>
   <g id="line2d_36">
    <defs>
     <path d="M 0 6 
C 1.591219 6 3.117479 5.367802 4.242641 4.242641 
C 5.367802 3.117479 6 1.591219 6 0 
C 6 -1.591219 5.367802 -3.117479 4.242641 -4.242641 
C 3.117479 -5.367802 1.591219 -6 0 -6 
C -1.591219 -6 -3.117479 -5.367802 -4.242641 -4.242641 
C -5.367802 -3.117479 -6 -1.591219 -6 0 
C -6 1.591219 -5.367802 3.117479 -4.242641 4.242641 
C -3.117479 5.367802 -1.591219 6 0 6 
z
" id="mcef2855d42" style="stroke:#000080;stroke-width:1.5;"/>
    </defs>
    <g>
     <use style="fill-opacity:0;stroke:#000080;stroke-width:1.5;" x="203.297461" xlink:href="#mcef2855d42" y="222.574518"/>
     <use style="fill-opacity:0;stroke:#000080;stroke-width:1.5;" x="248.3657" xlink:href="#mcef2855d42" y="204.140506"/>
     <use style="fill-opacity:0;stroke:#000080;stroke-width:1.5;" x="274.801917" xlink:href="#mcef2855d42" y="198.873645"/>
     <use style="fill-opacity:0;stroke:#000080;stroke-width:1.5;" x="338.688" xlink:href="#mcef2855d42" y="198.873645"/>
    </g>
   </g>
   <g id="line2d_37">
    <path style="fill:none;stroke:#000080;stroke-linecap:square;stroke-width:1.5;"/>
    <g/>
   </g>
   <g id="line2d_38">
    <path clip-path="url(#paba77856ce)" d="M 230.322516 209.934052 
" style="fill:none;stroke:#000080;stroke-linecap:square;stroke-width:1.5;"/>
    <defs>
     <path d="M -12 12 
L 12 -12 
M -12 -12 
L 12 12 
" id="m05cb25ffba" style="stroke:#000080;"/>
    </defs>
    <g clip-path="url(#paba77856ce)">
     <use style="fill:#000080;stroke:#000080;" x="230.322516" xlink:href="#m05cb25ffba" y="209.934052"/>
    </g>
   </g>
   <g id="line2d_39">
    <g>
     <use style="fill:#000080;stroke:#000080;" x="286.017616" xlink:href="#m8d47e0a2b0" y="30.334099"/>
     <use style="fill:#000080;stroke:#000080;" x="286.017616" xlink:href="#m8d47e0a2b0" y="30.334099"/>
    </g>
   </g>
   <g id="line2d_40">
    <path d="M 17.444571 298.944 
L 17.444571 225.207949 
L 205.945062 225.207949 
L 205.945062 224.681263 
L 206.192224 224.681263 
L 206.192224 224.154577 
L 206.712756 224.154577 
L 206.712756 223.627891 
L 217.358925 223.627891 
L 217.358925 223.101204 
L 217.579426 223.101204 
L 217.579426 222.574518 
L 218.513289 222.574518 
L 218.513289 222.047832 
L 219.467841 222.047832 
L 219.473036 220.99446 
L 219.796918 220.99446 
L 219.796918 220.467774 
L 219.909678 220.467774 
L 219.909678 219.941088 
L 220.105662 219.941088 
L 220.146782 218.887716 
L 220.614421 218.887716 
L 220.614421 218.36103 
L 220.816666 218.36103 
L 220.816666 217.834344 
L 221.418266 217.834344 
L 221.522199 216.780971 
L 221.695104 216.780971 
L 221.715955 215.727599 
L 222.043 215.727599 
L 222.043 215.200913 
L 222.226928 215.200913 
L 222.226928 214.674227 
L 222.536583 214.674227 
L 222.536583 214.147541 
L 222.924402 214.147541 
L 222.924402 213.620855 
L 224.892062 213.620855 
L 224.892062 213.094169 
L 225.551808 213.094169 
L 225.551808 212.567483 
L 225.844189 212.567483 
L 225.844189 212.040797 
L 226.411372 212.040797 
L 226.411372 211.514111 
L 227.192328 211.514111 
L 227.276889 210.460738 
L 227.496711 210.460738 
L 227.496711 209.934052 
L 227.786504 209.934052 
L 227.786504 209.407366 
L 228.984953 209.407366 
L 228.984953 208.88068 
L 229.260021 208.88068 
L 229.260021 208.353994 
L 229.733421 208.353994 
L 229.733421 207.827308 
L 232.124795 207.827308 
L 232.207498 206.773936 
L 232.328064 206.773936 
L 232.425187 205.193878 
L 232.491945 205.193878 
L 232.602006 203.087133 
L 232.628058 203.087133 
L 232.667026 202.033761 
L 232.784845 202.033761 
L 232.894282 198.346959 
L 232.900371 198.346959 
L 232.976791 196.7669 
L 233.725409 196.7669 
L 233.725409 196.240214 
L 235.545184 196.240214 
L 235.545184 195.713528 
L 237.64077 195.713528 
L 237.64077 195.186842 
L 240.302757 195.186842 
L 240.340277 194.13347 
L 242.014112 194.13347 
L 242.119198 193.080098 
L 242.226296 193.080098 
L 242.226296 192.553412 
L 242.390671 192.553412 
L 242.390671 192.026726 
L 242.798598 192.026726 
L 242.857807 190.973354 
L 242.917704 190.973354 
L 242.92938 189.393295 
L 243.039869 189.393295 
L 243.109737 187.813237 
L 243.226702 187.813237 
L 243.309653 186.233179 
L 243.432153 186.233179 
L 243.537755 183.073062 
L 243.580461 183.073062 
L 243.665278 180.439632 
L 243.773512 180.439632 
L 243.848212 178.859574 
L 243.893207 178.859574 
L 244.002744 176.752829 
L 244.044884 176.752829 
L 244.124239 172.539341 
L 244.179632 172.539341 
L 244.253165 169.90591 
L 244.30268 169.90591 
L 244.377409 166.219108 
L 246.282107 166.219108 
L 246.282107 165.692422 
L 246.657496 165.692422 
L 246.657496 165.165736 
L 247.736939 165.165736 
L 247.736939 164.63905 
L 248.158945 164.63905 
L 248.227928 163.585677 
L 248.411928 163.585677 
L 248.459883 160.952247 
L 248.533914 160.952247 
L 248.581657 159.898875 
L 248.666955 159.898875 
L 248.77115 158.318817 
L 249.050096 158.318817 
L 249.050096 157.265444 
L 249.194337 157.265444 
L 249.194337 156.738758 
L 249.351767 156.738758 
L 249.351767 155.685386 
L 249.485242 155.685386 
L 249.576559 153.051956 
L 249.597229 153.051956 
L 249.693559 147.258409 
L 249.709391 147.258409 
L 249.819069 144.098292 
L 249.822943 144.098292 
L 249.927242 140.41149 
L 249.952929 140.41149 
L 250.030272 137.251373 
L 250.071034 137.251373 
L 250.178022 135.144629 
L 250.189572 135.144629 
L 250.27831 132.511199 
L 250.322345 132.511199 
L 250.393523 130.93114 
L 250.539962 130.93114 
L 250.601817 129.351082 
L 250.665897 129.351082 
L 250.774783 126.717652 
L 250.794513 126.717652 
L 250.868113 124.610907 
L 250.936702 124.610907 
L 251.040702 121.977477 
L 251.082457 121.977477 
L 251.175108 119.870733 
L 251.238747 119.870733 
L 251.238747 119.344047 
L 251.765143 119.344047 
L 251.765143 118.817361 
L 252.334856 118.817361 
L 252.437339 116.710616 
L 252.459707 116.710616 
L 252.550845 114.603872 
L 252.595993 114.603872 
L 252.61714 112.497128 
L 252.71709 112.497128 
L 252.742476 110.390383 
L 252.862898 110.390383 
L 252.913832 108.283639 
L 253.205232 108.283639 
L 253.233103 107.230267 
L 253.330386 107.230267 
L 253.405945 106.176895 
L 253.442942 106.176895 
L 253.517624 104.07015 
L 253.557444 104.07015 
L 253.62683 100.910034 
L 253.6854 100.910034 
L 253.77895 98.803289 
L 253.807235 98.803289 
L 253.854764 96.696545 
L 255.453205 96.696545 
L 255.543853 94.589801 
L 255.584099 94.589801 
L 255.667187 89.849626 
L 255.705931 89.849626 
L 255.786904 86.162824 
L 255.828047 86.162824 
L 255.931626 80.895963 
L 255.959574 80.895963 
L 256.069485 76.682474 
L 256.107962 76.682474 
L 256.122754 75.102416 
L 257.889392 75.102416 
L 257.998198 73.522358 
L 258.06668 73.522358 
L 258.172783 72.468985 
L 258.179539 72.468985 
L 258.262698 71.415613 
L 258.324082 71.415613 
L 258.362331 69.835555 
L 261.940996 69.835555 
L 262.02249 67.202125 
L 262.053832 67.202125 
L 262.053832 66.675439 
L 264.451772 66.675439 
L 264.562393 62.988636 
L 264.576539 62.988636 
L 264.618752 61.935264 
L 264.734222 61.935264 
L 264.762855 60.355206 
L 264.849197 60.355206 
L 264.849197 59.82852 
L 266.160426 59.82852 
L 266.271369 58.248461 
L 266.317145 58.248461 
L 266.318074 57.195089 
L 266.581514 57.195089 
L 266.665343 55.615031 
L 266.724118 55.615031 
L 266.800048 52.454914 
L 266.899349 52.454914 
L 266.899349 51.928228 
L 267.032616 51.928228 
L 267.135557 50.34817 
L 267.233601 50.34817 
L 267.233601 49.821484 
L 267.838599 49.821484 
L 267.838599 49.294798 
L 268.168708 49.294798 
L 268.220464 48.241426 
L 268.29122 48.241426 
L 268.37236 46.134681 
L 269.127488 46.134681 
L 269.23402 45.081309 
L 269.292621 45.081309 
L 269.374618 40.867821 
L 270.310854 40.867821 
L 270.377743 39.814448 
L 270.495885 39.814448 
L 270.495885 39.287762 
L 272.382834 39.287762 
L 272.398552 38.23439 
L 273.990773 38.23439 
L 274.014371 37.181018 
L 274.798394 37.181018 
L 274.836867 36.127646 
L 275.180433 36.127646 
L 275.180433 35.60096 
L 275.416162 35.60096 
L 275.432001 34.547588 
L 275.906433 34.547588 
L 275.906433 34.020902 
L 276.051984 34.020902 
L 276.051984 33.494215 
L 276.167682 33.494215 
L 276.167682 32.967529 
L 276.657444 32.967529 
L 276.745573 31.914157 
L 276.799667 31.914157 
L 276.799667 31.387471 
L 284.34118 31.387471 
L 284.34118 30.860785 
L 286.017616 30.860785 
L 286.017616 30.334099 
L 338.688 30.334099 
L 338.688 30.334099 
" style="fill:none;stroke:#000080;stroke-linecap:square;stroke-width:1.5;"/>
   </g>
   <g id="line2d_41">
    <g>
     <use style="fill-opacity:0;stroke:#000080;stroke-width:1.5;" x="249.952929" xlink:href="#mcef2855d42" y="139.884804"/>
     <use style="fill-opacity:0;stroke:#000080;stroke-width:1.5;" x="286.017616" xlink:href="#mcef2855d42" y="30.860785"/>
     <use style="fill-opacity:0;stroke:#000080;stroke-width:1.5;" x="286.017616" xlink:href="#mcef2855d42" y="30.334099"/>
     <use style="fill-opacity:0;stroke:#000080;stroke-width:1.5;" x="338.688" xlink:href="#mcef2855d42" y="30.334099"/>
    </g>
   </g>
   <g id="line2d_42">
    <path style="fill:none;stroke:#000080;stroke-linecap:square;stroke-width:1.5;"/>
    <g/>
   </g>
   <g id="line2d_43">
    <path clip-path="url(#paba77856ce)" d="M 258.399277 69.835555 
" style="fill:none;stroke:#000080;stroke-linecap:square;stroke-width:1.5;"/>
    <g clip-path="url(#paba77856ce)">
     <use style="fill:#000080;stroke:#000080;" x="258.399277" xlink:href="#m05cb25ffba" y="69.835555"/>
    </g>
   </g>
   <g id="line2d_44">
    <defs>
     <path d="M 0 1.5 
C 0.397805 1.5 0.77937 1.341951 1.06066 1.06066 
C 1.341951 0.77937 1.5 0.397805 1.5 0 
C 1.5 -0.397805 1.341951 -0.77937 1.06066 -1.06066 
C 0.77937 -1.341951 0.397805 -1.5 0 -1.5 
C -0.397805 -1.5 -0.77937 -1.341951 -1.06066 -1.06066 
C -1.341951 -0.77937 -1.5 -0.397805 -1.5 0 
C -1.5 0.397805 -1.341951 0.77937 -1.06066 1.06066 
C -0.77937 1.341951 -0.397805 1.5 0 1.5 
z
" id="m95a874c5e6" style="stroke:#ff00ff;"/>
    </defs>
    <g>
     <use style="fill:#ff00ff;stroke:#ff00ff;" x="272.194553" xlink:href="#m95a874c5e6" y="198.873645"/>
     <use style="fill:#ff00ff;stroke:#ff00ff;" x="272.194553" xlink:href="#m95a874c5e6" y="198.873645"/>
    </g>
   </g>
   <g id="line2d_45">
    <path d="M 17.444571 298.944 
L 17.444571 225.207949 
L 161.973109 225.207949 
L 161.973109 224.681263 
L 162.432178 224.681263 
L 162.432178 224.154577 
L 166.364626 224.154577 
L 166.364626 223.627891 
L 167.529106 223.627891 
L 167.529106 223.101204 
L 167.653117 223.101204 
L 167.653117 222.574518 
L 169.049979 222.574518 
L 169.049979 222.047832 
L 170.086056 222.047832 
L 170.086056 221.521146 
L 170.174022 221.521146 
L 170.174022 220.99446 
L 170.329621 220.99446 
L 170.329621 220.467774 
L 170.41637 220.467774 
L 170.41637 219.941088 
L 173.209025 219.941088 
L 173.209025 219.414402 
L 175.949558 219.414402 
L 175.949558 218.887716 
L 177.509911 218.887716 
L 177.509911 218.36103 
L 180.075325 218.36103 
L 180.075325 217.834344 
L 182.933068 217.834344 
L 182.933068 217.307658 
L 184.116277 217.307658 
L 184.116277 216.780971 
L 186.298743 216.780971 
L 186.298743 216.254285 
L 195.682494 216.254285 
L 195.682494 215.727599 
L 199.789562 215.727599 
L 199.789562 215.200913 
L 200.372364 215.200913 
L 200.372364 214.674227 
L 200.404851 214.674227 
L 200.404851 214.147541 
L 201.744305 214.147541 
L 201.744305 213.620855 
L 205.672515 213.620855 
L 205.672515 213.094169 
L 206.44998 213.094169 
L 206.44998 212.567483 
L 206.653612 212.567483 
L 206.653612 212.040797 
L 209.730855 212.040797 
L 209.730855 211.514111 
L 210.779322 211.514111 
L 210.779322 210.987425 
L 216.532871 210.987425 
L 216.532871 210.460738 
L 217.237936 210.460738 
L 217.237936 209.934052 
L 217.813606 209.934052 
L 217.813606 209.407366 
L 218.482392 209.407366 
L 218.482392 208.88068 
L 220.531365 208.88068 
L 220.531365 208.353994 
L 221.537923 208.353994 
L 221.537923 207.827308 
L 221.985755 207.827308 
L 221.985755 207.300622 
L 225.205319 207.300622 
L 225.205319 206.773936 
L 230.966414 206.773936 
L 230.966414 206.24725 
L 235.236276 206.24725 
L 235.236276 205.720564 
L 235.242192 205.720564 
L 235.242192 205.193878 
L 237.247268 205.193878 
L 237.247268 204.667192 
L 240.037381 204.667192 
L 240.037381 204.140506 
L 242.680132 204.140506 
L 242.680132 203.613819 
L 247.463726 203.613819 
L 247.463726 203.087133 
L 247.932609 203.087133 
L 247.932609 202.560447 
L 249.676335 202.560447 
L 249.676335 202.033761 
L 249.692698 202.033761 
L 249.692698 201.507075 
L 254.653615 201.507075 
L 254.653615 200.980389 
L 254.656228 200.980389 
L 254.656228 200.453703 
L 264.33296 200.453703 
L 264.33296 199.927017 
L 272.181179 199.927017 
L 272.181179 199.400331 
L 272.194553 199.400331 
L 272.194553 198.873645 
L 338.688 198.873645 
" style="fill:none;stroke:#ff00ff;stroke-linecap:square;stroke-width:1.5;"/>
   </g>
   <g id="line2d_46">
    <defs>
     <path d="M -0 8.485281 
L 5.091169 0 
L 0 -8.485281 
L -5.091169 -0 
z
" id="ma29ce68b27" style="stroke:#ff00ff;stroke-linejoin:miter;stroke-width:1.5;"/>
    </defs>
    <g>
     <use style="fill-opacity:0;stroke:#ff00ff;stroke-linejoin:miter;stroke-width:1.5;" x="162.432178" xlink:href="#ma29ce68b27" y="224.154577"/>
     <use style="fill-opacity:0;stroke:#ff00ff;stroke-linejoin:miter;stroke-width:1.5;" x="237.247268" xlink:href="#ma29ce68b27" y="205.193878"/>
     <use style="fill-opacity:0;stroke:#ff00ff;stroke-linejoin:miter;stroke-width:1.5;" x="272.194553" xlink:href="#ma29ce68b27" y="199.400331"/>
     <use style="fill-opacity:0;stroke:#ff00ff;stroke-linejoin:miter;stroke-width:1.5;" x="272.194553" xlink:href="#ma29ce68b27" y="198.873645"/>
     <use style="fill-opacity:0;stroke:#ff00ff;stroke-linejoin:miter;stroke-width:1.5;" x="338.688" xlink:href="#ma29ce68b27" y="198.873645"/>
    </g>
   </g>
   <g id="line2d_47">
    <path style="fill:none;stroke:#ff00ff;stroke-linecap:square;stroke-width:1.5;"/>
    <g/>
   </g>
   <g id="line2d_48">
    <path clip-path="url(#paba77856ce)" d="M 230.318943 206.773936 
" style="fill:none;stroke:#ff00ff;stroke-linecap:square;stroke-width:1.5;"/>
    <defs>
     <path d="M -12 12 
L 12 -12 
M -12 -12 
L 12 12 
" id="mced9185733" style="stroke:#ff00ff;"/>
    </defs>
    <g clip-path="url(#paba77856ce)">
     <use style="fill:#ff00ff;stroke:#ff00ff;" x="230.318943" xlink:href="#mced9185733" y="206.773936"/>
    </g>
   </g>
   <g id="line2d_49">
    <defs>
     <path d="M 0 1.5 
C 0.397805 1.5 0.77937 1.341951 1.06066 1.06066 
C 1.341951 0.77937 1.5 0.397805 1.5 0 
C 1.5 -0.397805 1.341951 -0.77937 1.06066 -1.06066 
C 0.77937 -1.341951 0.397805 -1.5 0 -1.5 
C -0.397805 -1.5 -0.77937 -1.341951 -1.06066 -1.06066 
C -1.341951 -0.77937 -1.5 -0.397805 -1.5 0 
C -1.5 0.397805 -1.341951 0.77937 -1.06066 1.06066 
C -0.77937 1.341951 -0.397805 1.5 0 1.5 
z
" id="me03754c3e4" style="stroke:#ff0000;"/>
    </defs>
    <g>
     <use style="fill:#ff0000;stroke:#ff0000;" x="289.408874" xlink:href="#me03754c3e4" y="193.606784"/>
     <use style="fill:#ff0000;stroke:#ff0000;" x="289.408874" xlink:href="#me03754c3e4" y="193.606784"/>
    </g>
   </g>
   <g id="line2d_50">
    <path d="M 17.444571 298.944 
L 17.444571 225.207949 
L 170.378471 225.207949 
L 170.378471 224.681263 
L 170.687376 224.681263 
L 170.687376 224.154577 
L 177.529705 224.154577 
L 177.529705 223.627891 
L 193.1703 223.627891 
L 193.1703 223.101204 
L 195.912144 223.101204 
L 195.912144 222.574518 
L 206.138259 222.574518 
L 206.138259 222.047832 
L 208.645524 222.047832 
L 208.645524 221.521146 
L 210.495645 221.521146 
L 210.495645 220.99446 
L 212.091018 220.99446 
L 212.091018 220.467774 
L 212.730518 220.467774 
L 212.730518 219.941088 
L 213.132047 219.941088 
L 213.132047 219.414402 
L 213.895656 219.414402 
L 213.895656 218.887716 
L 214.395526 218.887716 
L 214.395526 218.36103 
L 214.70741 218.36103 
L 214.70741 217.834344 
L 214.885901 217.834344 
L 214.885901 217.307658 
L 215.071361 217.307658 
L 215.071361 216.780971 
L 215.339425 216.780971 
L 215.339425 216.254285 
L 215.373749 216.254285 
L 215.373749 215.727599 
L 218.769 215.727599 
L 218.769 215.200913 
L 219.036834 215.200913 
L 219.036834 214.674227 
L 219.273711 214.674227 
L 219.273711 214.147541 
L 219.294878 214.147541 
L 219.294878 213.620855 
L 219.420528 213.620855 
L 219.420528 213.094169 
L 221.951149 213.094169 
L 221.951149 212.567483 
L 222.04314 212.567483 
L 222.04314 212.040797 
L 223.050592 212.040797 
L 223.050592 211.514111 
L 225.291107 211.514111 
L 225.291107 210.987425 
L 225.5088 210.987425 
L 225.5088 210.460738 
L 225.687021 210.460738 
L 225.687021 209.934052 
L 225.721995 209.934052 
L 225.721995 209.407366 
L 226.486663 209.407366 
L 226.486663 208.88068 
L 226.726464 208.88068 
L 226.726464 208.353994 
L 227.291098 208.353994 
L 227.291098 207.827308 
L 227.303016 207.827308 
L 227.303016 207.300622 
L 227.455474 207.300622 
L 227.455474 206.773936 
L 227.65054 206.773936 
L 227.65054 206.24725 
L 229.639075 206.24725 
L 229.639075 205.720564 
L 229.668229 205.720564 
L 229.668229 205.193878 
L 229.916494 205.193878 
L 229.916494 204.667192 
L 237.738828 204.667192 
L 237.738828 204.140506 
L 248.628171 204.140506 
L 248.628171 203.613819 
L 248.715337 203.613819 
L 248.715337 203.087133 
L 260.541896 203.087133 
L 260.541896 202.560447 
L 260.546054 202.560447 
L 260.546054 202.033761 
L 263.283405 202.033761 
L 263.283405 201.507075 
L 263.380839 201.507075 
L 263.380839 200.453703 
L 265.820568 200.453703 
L 265.820568 199.927017 
L 267.885784 199.927017 
L 267.885784 199.400331 
L 267.95977 199.400331 
L 267.95977 198.873645 
L 269.799532 198.873645 
L 269.799532 198.346959 
L 273.094509 198.346959 
L 273.094509 197.820273 
L 275.862716 197.820273 
L 275.862716 197.293586 
L 280.352173 197.293586 
L 280.352173 196.7669 
L 280.388762 196.7669 
L 280.388762 196.240214 
L 283.123578 196.240214 
L 283.123578 195.713528 
L 286.184574 195.713528 
L 286.184574 195.186842 
L 286.185944 195.186842 
L 286.185944 194.660156 
L 288.21349 194.660156 
L 288.21349 194.13347 
L 289.408874 194.13347 
L 289.408874 193.606784 
L 338.688 193.606784 
" style="fill:none;stroke:#ff0000;stroke-linecap:square;stroke-width:1.5;"/>
   </g>
   <g id="line2d_51">
    <defs>
     <path d="M 0 -6 
L -5.196152 -3 
L -5.196152 3 
L -0 6 
L 5.196152 3 
L 5.196152 -3 
z
" id="m3094c88091" style="stroke:#ff0000;stroke-linejoin:miter;stroke-width:1.5;"/>
    </defs>
    <g>
     <use style="fill-opacity:0;stroke:#ff0000;stroke-linejoin:miter;stroke-width:1.5;" x="229.916494" xlink:href="#m3094c88091" y="205.193878"/>
     <use style="fill-opacity:0;stroke:#ff0000;stroke-linejoin:miter;stroke-width:1.5;" x="289.408874" xlink:href="#m3094c88091" y="193.606784"/>
     <use style="fill-opacity:0;stroke:#ff0000;stroke-linejoin:miter;stroke-width:1.5;" x="289.408874" xlink:href="#m3094c88091" y="193.606784"/>
     <use style="fill-opacity:0;stroke:#ff0000;stroke-linejoin:miter;stroke-width:1.5;" x="338.688" xlink:href="#m3094c88091" y="193.606784"/>
    </g>
   </g>
   <g id="line2d_52">
    <path style="fill:none;stroke:#ff0000;stroke-linecap:square;stroke-width:1.5;"/>
    <g/>
   </g>
   <g id="line2d_53">
    <path clip-path="url(#paba77856ce)" d="M 230.315457 204.667192 
" style="fill:none;stroke:#ff0000;stroke-linecap:square;stroke-width:1.5;"/>
    <defs>
     <path d="M -12 12 
L 12 -12 
M -12 -12 
L 12 12 
" id="m3e1a683890" style="stroke:#ff0000;"/>
    </defs>
    <g clip-path="url(#paba77856ce)">
     <use style="fill:#ff0000;stroke:#ff0000;" x="230.315457" xlink:href="#m3e1a683890" y="204.667192"/>
    </g>
   </g>
   <g id="line2d_54">
    <defs>
     <path d="M 0 1.5 
C 0.397805 1.5 0.77937 1.341951 1.06066 1.06066 
C 1.341951 0.77937 1.5 0.397805 1.5 0 
C 1.5 -0.397805 1.341951 -0.77937 1.06066 -1.06066 
C 0.77937 -1.341951 0.397805 -1.5 0 -1.5 
C -0.397805 -1.5 -0.77937 -1.341951 -1.06066 -1.06066 
C -1.341951 -0.77937 -1.5 -0.397805 -1.5 0 
C -1.5 0.397805 -1.341951 0.77937 -1.06066 1.06066 
C -0.77937 1.341951 -0.397805 1.5 0 1.5 
z
" id="m10c45aee17" style="stroke:#ff7500;"/>
    </defs>
    <g>
     <use style="fill:#ff7500;stroke:#ff7500;" x="311.267756" xlink:href="#m10c45aee17" y="30.334099"/>
     <use style="fill:#ff7500;stroke:#ff7500;" x="311.267756" xlink:href="#m10c45aee17" y="30.334099"/>
    </g>
   </g>
   <g id="line2d_55">
    <path d="M 17.444571 298.944 
L 17.444571 225.207949 
L 166.888852 225.207949 
L 166.888852 224.681263 
L 179.744273 224.681263 
L 179.744273 224.154577 
L 190.052832 224.154577 
L 190.052832 223.627891 
L 200.331063 223.627891 
L 200.331063 223.101204 
L 210.173557 223.101204 
L 210.173557 222.574518 
L 210.735443 222.574518 
L 210.735443 222.047832 
L 211.340703 222.047832 
L 211.340703 221.521146 
L 212.547735 221.521146 
L 212.547735 220.99446 
L 214.74683 220.99446 
L 214.74683 220.467774 
L 215.321105 220.467774 
L 215.321105 219.941088 
L 215.99477 219.941088 
L 215.99477 219.414402 
L 216.119945 219.414402 
L 216.119945 218.887716 
L 216.46241 218.887716 
L 216.46241 218.36103 
L 217.167865 218.36103 
L 217.167865 217.834344 
L 217.314341 217.834344 
L 217.314341 217.307658 
L 217.529053 217.307658 
L 217.529053 216.780971 
L 217.934935 216.780971 
L 218.00182 215.727599 
L 218.253077 215.727599 
L 218.253077 215.200913 
L 219.283559 215.200913 
L 219.326335 214.147541 
L 219.498988 214.147541 
L 219.498988 213.620855 
L 219.91506 213.620855 
L 219.964523 212.567483 
L 220.601493 212.567483 
L 220.601493 212.040797 
L 220.86499 212.040797 
L 220.86499 211.514111 
L 221.355141 211.514111 
L 221.355141 210.987425 
L 222.154146 210.987425 
L 222.154146 210.460738 
L 222.479026 210.460738 
L 222.479026 209.934052 
L 222.75996 209.934052 
L 222.783201 208.88068 
L 223.043054 208.88068 
L 223.043054 208.353994 
L 224.235303 208.353994 
L 224.235303 207.827308 
L 224.385729 207.827308 
L 224.441851 206.773936 
L 224.537539 206.773936 
L 224.603581 204.140506 
L 224.683104 204.140506 
L 224.75975 202.560447 
L 224.867539 202.560447 
L 224.916908 200.980389 
L 224.993836 200.980389 
L 225.087374 199.400331 
L 225.143632 199.400331 
L 225.152307 197.820273 
L 225.470174 197.820273 
L 225.470174 197.293586 
L 227.588784 197.293586 
L 227.588784 196.7669 
L 228.382539 196.7669 
L 228.382539 196.240214 
L 228.689888 196.240214 
L 228.689888 195.713528 
L 229.999861 195.713528 
L 229.999861 195.186842 
L 237.294184 195.186842 
L 237.313919 194.13347 
L 237.825233 194.13347 
L 237.825233 193.606784 
L 239.043498 193.606784 
L 239.043498 193.080098 
L 239.673867 193.080098 
L 239.673867 192.553412 
L 239.818273 192.553412 
L 239.92797 187.813237 
L 239.94484 187.813237 
L 240.013105 184.653121 
L 240.611601 184.653121 
L 240.611601 184.126434 
L 241.094754 184.126434 
L 241.094754 183.599748 
L 242.883605 183.599748 
L 242.883605 183.073062 
L 247.698022 183.073062 
L 247.803131 178.332888 
L 247.829334 178.332888 
L 247.916223 172.012655 
L 248.919357 172.012655 
L 248.919357 171.485969 
L 252.64805 171.485969 
L 252.64805 170.959282 
L 253.189741 170.959282 
L 253.29945 164.63905 
L 253.304093 164.63905 
L 253.338816 160.952247 
L 253.848683 160.952247 
L 253.848683 160.425561 
L 254.076321 160.425561 
L 254.076321 159.898875 
L 257.344918 159.898875 
L 257.448465 155.685386 
L 257.456134 155.685386 
L 257.467767 153.578642 
L 257.87258 153.578642 
L 257.87258 153.051956 
L 260.712087 153.051956 
L 260.805966 142.518234 
L 261.302716 142.518234 
L 261.302716 141.991548 
L 263.542073 141.991548 
L 263.592721 137.251373 
L 264.026697 137.251373 
L 264.026697 136.724687 
L 265.936999 136.724687 
L 266.005035 131.984513 
L 266.37696 131.984513 
L 266.37696 131.457826 
L 268.069024 131.457826 
L 268.133669 125.66428 
L 269.971865 125.66428 
L 270.02028 118.290674 
L 271.668943 118.290674 
L 271.727211 111.970441 
L 273.228499 111.970441 
L 273.273762 106.703581 
L 273.516995 106.703581 
L 273.516995 106.176895 
L 274.653177 106.176895 
L 274.702848 101.43672 
L 275.97692 101.43672 
L 276.015399 97.223231 
L 277.206967 97.223231 
L 277.237856 94.063115 
L 277.435697 94.063115 
L 277.435697 93.536429 
L 278.35593 93.536429 
L 278.378223 90.902998 
L 279.426729 90.902998 
L 279.461276 84.582765 
L 280.438509 84.582765 
L 280.468801 80.895963 
L 281.415077 80.895963 
L 281.431883 77.20916 
L 282.307789 77.20916 
L 282.335759 72.995672 
L 283.176167 72.995672 
L 283.192574 70.888927 
L 283.994551 70.888927 
L 284.011594 68.255497 
L 284.782256 68.255497 
L 284.80359 66.148752 
L 285.528449 66.148752 
L 285.55556 62.988636 
L 286.260308 62.988636 
L 286.263146 61.935264 
L 286.942782 61.935264 
L 286.947876 60.355206 
L 287.618649 60.355206 
L 287.630293 59.301833 
L 288.253643 59.301833 
L 288.259144 58.248461 
L 288.87282 58.248461 
L 288.882486 56.668403 
L 289.468271 56.668403 
L 289.481527 54.034973 
L 290.041525 54.034973 
L 290.04556 52.454914 
L 290.598843 52.454914 
L 290.598843 51.928228 
L 291.157421 51.928228 
L 291.157421 51.401542 
L 291.669353 51.401542 
L 291.675452 49.294798 
L 292.176163 49.294798 
L 292.191945 47.188054 
L 292.678133 47.188054 
L 292.682819 45.607995 
L 293.160779 45.607995 
L 293.165766 44.554623 
L 293.621738 44.554623 
L 293.624992 43.501251 
L 294.529434 43.501251 
L 294.535736 42.447879 
L 294.967594 42.447879 
L 294.967594 41.921193 
L 296.206648 41.921193 
L 296.206648 41.394507 
L 296.60159 41.394507 
L 296.60159 40.867821 
L 297.730608 40.867821 
L 297.730608 40.341135 
L 298.445097 40.341135 
L 298.445155 39.287762 
L 298.792844 39.287762 
L 298.796078 38.23439 
L 299.468426 38.23439 
L 299.468426 37.707704 
L 299.789496 37.707704 
L 299.789496 37.181018 
L 300.742014 37.181018 
L 300.745234 35.60096 
L 301.346202 35.60096 
L 301.346202 35.074274 
L 301.641508 35.074274 
L 301.641658 34.020902 
L 303.572939 34.020902 
L 303.572939 33.494215 
L 303.835648 33.494215 
L 303.835648 32.967529 
L 304.338264 32.967529 
L 304.338264 32.440843 
L 306.010032 32.440843 
L 306.010228 31.387471 
L 307.323052 31.387471 
L 307.323052 30.860785 
L 311.267756 30.860785 
L 311.267756 30.334099 
L 338.688 30.334099 
L 338.688 30.334099 
" style="fill:none;stroke:#ff7500;stroke-linecap:square;stroke-width:1.5;"/>
   </g>
   <g id="line2d_56">
    <defs>
     <path d="M 0 -6 
L -1.347084 -1.854102 
L -5.706339 -1.854102 
L -2.179628 0.708204 
L -3.526712 4.854102 
L -0 2.291796 
L 3.526712 4.854102 
L 2.179628 0.708204 
L 5.706339 -1.854102 
L 1.347084 -1.854102 
z
" id="ma000c3b833" style="stroke:#ff7500;stroke-linejoin:bevel;stroke-width:1.5;"/>
    </defs>
    <g>
     <use style="fill-opacity:0;stroke:#ff7500;stroke-linejoin:bevel;stroke-width:1.5;" x="190.052832" xlink:href="#ma000c3b833" y="224.154577"/>
     <use style="fill-opacity:0;stroke:#ff7500;stroke-linejoin:bevel;stroke-width:1.5;" x="248.919357" xlink:href="#ma000c3b833" y="172.012655"/>
     <use style="fill-opacity:0;stroke:#ff7500;stroke-linejoin:bevel;stroke-width:1.5;" x="298.445155" xlink:href="#ma000c3b833" y="39.814448"/>
     <use style="fill-opacity:0;stroke:#ff7500;stroke-linejoin:bevel;stroke-width:1.5;" x="311.267756" xlink:href="#ma000c3b833" y="30.334099"/>
     <use style="fill-opacity:0;stroke:#ff7500;stroke-linejoin:bevel;stroke-width:1.5;" x="338.688" xlink:href="#ma000c3b833" y="30.334099"/>
    </g>
   </g>
   <g id="line2d_57">
    <path style="fill:none;stroke:#ff7500;stroke-linecap:square;stroke-width:1.5;"/>
    <g/>
   </g>
   <g id="line2d_58">
    <path clip-path="url(#paba77856ce)" d="M 230.318943 195.186842 
" style="fill:none;stroke:#ff7500;stroke-linecap:square;stroke-width:1.5;"/>
    <defs>
     <path d="M -12 12 
L 12 -12 
M -12 -12 
L 12 12 
" id="mdbc948001b" style="stroke:#ff7500;"/>
    </defs>
    <g clip-path="url(#paba77856ce)">
     <use style="fill:#ff7500;stroke:#ff7500;" x="230.318943" xlink:href="#mdbc948001b" y="195.186842"/>
    </g>
   </g>
   <g id="line2d_59">
    <path d="M 338.688 198.873645 
L 369.60768 293.571802 
" style="fill:none;stroke:#000080;stroke-linecap:square;stroke-width:1.5;"/>
    <g>
     <use style="fill-opacity:0;stroke:#000080;stroke-width:1.5;" x="338.688" xlink:href="#mcef2855d42" y="198.873645"/>
     <use style="fill-opacity:0;stroke:#000080;stroke-width:1.5;" x="369.60768" xlink:href="#mcef2855d42" y="293.571802"/>
    </g>
   </g>
   <g id="line2d_60">
    <path d="M 338.688 198.873645 
L 369.60768 241.998701 
" style="fill:none;stroke:#ff00ff;stroke-linecap:square;stroke-width:1.5;"/>
    <g>
     <use style="fill-opacity:0;stroke:#ff00ff;stroke-linejoin:miter;stroke-width:1.5;" x="338.688" xlink:href="#ma29ce68b27" y="198.873645"/>
     <use style="fill-opacity:0;stroke:#ff00ff;stroke-linejoin:miter;stroke-width:1.5;" x="369.60768" xlink:href="#ma29ce68b27" y="241.998701"/>
    </g>
   </g>
   <g id="line2d_61">
    <path d="M 338.688 193.606784 
L 369.60768 190.4256 
" style="fill:none;stroke:#ff0000;stroke-linecap:square;stroke-width:1.5;"/>
    <g>
     <use style="fill-opacity:0;stroke:#ff0000;stroke-linejoin:miter;stroke-width:1.5;" x="338.688" xlink:href="#m3094c88091" y="193.606784"/>
     <use style="fill-opacity:0;stroke:#ff0000;stroke-linejoin:miter;stroke-width:1.5;" x="369.60768" xlink:href="#m3094c88091" y="190.4256"/>
    </g>
   </g>
   <g id="line2d_62">
    <path d="M 338.688 30.334099 
L 369.60768 138.852499 
" style="fill:none;stroke:#ff7500;stroke-linecap:square;stroke-width:1.5;"/>
    <g>
     <use style="fill-opacity:0;stroke:#ff7500;stroke-linejoin:bevel;stroke-width:1.5;" x="338.688" xlink:href="#ma000c3b833" y="30.334099"/>
     <use style="fill-opacity:0;stroke:#ff7500;stroke-linejoin:bevel;stroke-width:1.5;" x="369.60768" xlink:href="#ma000c3b833" y="138.852499"/>
    </g>
   </g>
   <g id="line2d_63">
    <path d="M 338.688 30.334099 
L 369.60768 87.279398 
" style="fill:none;stroke:#000080;stroke-linecap:square;stroke-width:1.5;"/>
    <g>
     <use style="fill-opacity:0;stroke:#000080;stroke-width:1.5;" x="338.688" xlink:href="#mcef2855d42" y="30.334099"/>
     <use style="fill-opacity:0;stroke:#000080;stroke-width:1.5;" x="369.60768" xlink:href="#mcef2855d42" y="87.279398"/>
    </g>
   </g>
   <g id="line2d_64">
    <path d="M 338.688 298.944 
L 338.688 30.334099 
" style="fill:none;stroke:#000000;stroke-linecap:square;stroke-width:1.5;"/>
   </g>
   <g id="patch_3">
    <path d="M 57.6 298.944 
L 57.6 27.648 
" style="fill:none;stroke:#000000;stroke-linecap:square;stroke-linejoin:miter;stroke-width:0.8;"/>
   </g>
   <g id="patch_4">
    <path d="M 338.688 298.944 
L 338.688 27.648 
" style="fill:none;stroke:#000000;stroke-linecap:square;stroke-linejoin:miter;stroke-width:0.8;"/>
   </g>
   <g id="patch_5">
    <path d="M 57.6 298.944 
L 338.688 298.944 
" style="fill:none;stroke:#000000;stroke-linecap:square;stroke-linejoin:miter;stroke-width:0.8;"/>
   </g>
   <g id="patch_6">
    <path d="M 57.6 27.648 
L 338.688 27.648 
" style="fill:none;stroke:#000000;stroke-linecap:square;stroke-linejoin:miter;stroke-width:0.8;"/>
   </g>
   <g id="text_13">
    <!-- 100-2e4 -->
    <g transform="translate(375.22944 298.262739)scale(0.17 -0.17)">
     <use xlink:href="#DejaVuSans-49"/>
     <use x="63.623047" xlink:href="#DejaVuSans-48"/>
     <use x="127.246094" xlink:href="#DejaVuSans-48"/>
     <use x="190.869141" xlink:href="#DejaVuSans-45"/>
     <use x="226.953125" xlink:href="#DejaVuSans-50"/>
     <use x="290.576172" xlink:href="#DejaVuSans-101"/>
     <use x="352.099609" xlink:href="#DejaVuSans-52"/>
    </g>
   </g>
   <g id="text_14">
    <!-- 025s-2e4 -->
    <defs>
     <path d="M 10.796875 72.90625 
L 49.515625 72.90625 
L 49.515625 64.59375 
L 19.828125 64.59375 
L 19.828125 46.734375 
Q 21.96875 47.46875 24.109375 47.828125 
Q 26.265625 48.1875 28.421875 48.1875 
Q 40.625 48.1875 47.75 41.5 
Q 54.890625 34.8125 54.890625 23.390625 
Q 54.890625 11.625 47.5625 5.09375 
Q 40.234375 -1.421875 26.90625 -1.421875 
Q 22.3125 -1.421875 17.546875 -0.640625 
Q 12.796875 0.140625 7.71875 1.703125 
L 7.71875 11.625 
Q 12.109375 9.234375 16.796875 8.0625 
Q 21.484375 6.890625 26.703125 6.890625 
Q 35.15625 6.890625 40.078125 11.328125 
Q 45.015625 15.765625 45.015625 23.390625 
Q 45.015625 31 40.078125 35.4375 
Q 35.15625 39.890625 26.703125 39.890625 
Q 22.75 39.890625 18.8125 39.015625 
Q 14.890625 38.140625 10.796875 36.28125 
z
" id="DejaVuSans-53"/>
    </defs>
    <g transform="translate(375.22944 246.689638)scale(0.17 -0.17)">
     <use xlink:href="#DejaVuSans-48"/>
     <use x="63.623047" xlink:href="#DejaVuSans-50"/>
     <use x="127.246094" xlink:href="#DejaVuSans-53"/>
     <use x="190.869141" xlink:href="#DejaVuSans-115"/>
     <use x="242.96875" xlink:href="#DejaVuSans-45"/>
     <use x="279.052734" xlink:href="#DejaVuSans-50"/>
     <use x="342.675781" xlink:href="#DejaVuSans-101"/>
     <use x="404.199219" xlink:href="#DejaVuSans-52"/>
    </g>
   </g>
   <g id="text_15">
    <!-- 050s-2e4 -->
    <g transform="translate(375.22944 195.116537)scale(0.17 -0.17)">
     <use xlink:href="#DejaVuSans-48"/>
     <use x="63.623047" xlink:href="#DejaVuSans-53"/>
     <use x="127.246094" xlink:href="#DejaVuSans-48"/>
     <use x="190.869141" xlink:href="#DejaVuSans-115"/>
     <use x="242.96875" xlink:href="#DejaVuSans-45"/>
     <use x="279.052734" xlink:href="#DejaVuSans-50"/>
     <use x="342.675781" xlink:href="#DejaVuSans-101"/>
     <use x="404.199219" xlink:href="#DejaVuSans-52"/>
    </g>
   </g>
   <g id="text_16">
    <!-- 075s-2e4 -->
    <defs>
     <path d="M 8.203125 72.90625 
L 55.078125 72.90625 
L 55.078125 68.703125 
L 28.609375 0 
L 18.3125 0 
L 43.21875 64.59375 
L 8.203125 64.59375 
z
" id="DejaVuSans-55"/>
    </defs>
    <g transform="translate(375.22944 143.543437)scale(0.17 -0.17)">
     <use xlink:href="#DejaVuSans-48"/>
     <use x="63.623047" xlink:href="#DejaVuSans-55"/>
     <use x="127.246094" xlink:href="#DejaVuSans-53"/>
     <use x="190.869141" xlink:href="#DejaVuSans-115"/>
     <use x="242.96875" xlink:href="#DejaVuSans-45"/>
     <use x="279.052734" xlink:href="#DejaVuSans-50"/>
     <use x="342.675781" xlink:href="#DejaVuSans-101"/>
     <use x="404.199219" xlink:href="#DejaVuSans-52"/>
    </g>
   </g>
   <g id="text_17">
    <!-- 100-1e5 -->
    <g transform="translate(375.22944 91.970336)scale(0.17 -0.17)">
     <use xlink:href="#DejaVuSans-49"/>
     <use x="63.623047" xlink:href="#DejaVuSans-48"/>
     <use x="127.246094" xlink:href="#DejaVuSans-48"/>
     <use x="190.869141" xlink:href="#DejaVuSans-45"/>
     <use x="226.953125" xlink:href="#DejaVuSans-49"/>
     <use x="290.576172" xlink:href="#DejaVuSans-101"/>
     <use x="352.099609" xlink:href="#DejaVuSans-53"/>
    </g>
   </g>
   <g id="text_18">
    <!-- best 2009 -->
    <defs>
     <path d="M 48.6875 27.296875 
Q 48.6875 37.203125 44.609375 42.84375 
Q 40.53125 48.484375 33.40625 48.484375 
Q 26.265625 48.484375 22.1875 42.84375 
Q 18.109375 37.203125 18.109375 27.296875 
Q 18.109375 17.390625 22.1875 11.75 
Q 26.265625 6.109375 33.40625 6.109375 
Q 40.53125 6.109375 44.609375 11.75 
Q 48.6875 17.390625 48.6875 27.296875 
z
M 18.109375 46.390625 
Q 20.953125 51.265625 25.265625 53.625 
Q 29.59375 56 35.59375 56 
Q 45.5625 56 51.78125 48.09375 
Q 58.015625 40.1875 58.015625 27.296875 
Q 58.015625 14.40625 51.78125 6.484375 
Q 45.5625 -1.421875 35.59375 -1.421875 
Q 29.59375 -1.421875 25.265625 0.953125 
Q 20.953125 3.328125 18.109375 8.203125 
L 18.109375 0 
L 9.078125 0 
L 9.078125 75.984375 
L 18.109375 75.984375 
z
" id="DejaVuSans-98"/>
     <path d="M 10.984375 1.515625 
L 10.984375 10.5 
Q 14.703125 8.734375 18.5 7.8125 
Q 22.3125 6.890625 25.984375 6.890625 
Q 35.75 6.890625 40.890625 13.453125 
Q 46.046875 20.015625 46.78125 33.40625 
Q 43.953125 29.203125 39.59375 26.953125 
Q 35.25 24.703125 29.984375 24.703125 
Q 19.046875 24.703125 12.671875 31.3125 
Q 6.296875 37.9375 6.296875 49.421875 
Q 6.296875 60.640625 12.9375 67.421875 
Q 19.578125 74.21875 30.609375 74.21875 
Q 43.265625 74.21875 49.921875 64.515625 
Q 56.59375 54.828125 56.59375 36.375 
Q 56.59375 19.140625 48.40625 8.859375 
Q 40.234375 -1.421875 26.421875 -1.421875 
Q 22.703125 -1.421875 18.890625 -0.6875 
Q 15.09375 0.046875 10.984375 1.515625 
z
M 30.609375 32.421875 
Q 37.25 32.421875 41.125 36.953125 
Q 45.015625 41.5 45.015625 49.421875 
Q 45.015625 57.28125 41.125 61.84375 
Q 37.25 66.40625 30.609375 66.40625 
Q 23.96875 66.40625 20.09375 61.84375 
Q 16.21875 57.28125 16.21875 49.421875 
Q 16.21875 41.5 20.09375 36.953125 
Q 23.96875 32.421875 30.609375 32.421875 
z
" id="DejaVuSans-57"/>
    </defs>
    <g transform="translate(375.22944 40.397235)scale(0.17 -0.17)">
     <use xlink:href="#DejaVuSans-98"/>
     <use x="63.476562" xlink:href="#DejaVuSans-101"/>
     <use x="125" xlink:href="#DejaVuSans-115"/>
     <use x="177.099609" xlink:href="#DejaVuSans-116"/>
     <use x="216.308594" xlink:href="#DejaVuSans-32"/>
     <use x="248.095703" xlink:href="#DejaVuSans-50"/>
     <use x="311.71875" xlink:href="#DejaVuSans-48"/>
     <use x="375.341797" xlink:href="#DejaVuSans-48"/>
     <use x="438.964844" xlink:href="#DejaVuSans-57"/>
    </g>
   </g>
   <g id="text_19">
    <!-- bbob f19, 10-D -->
    <defs>
     <path d="M 19.671875 64.796875 
L 19.671875 8.109375 
L 31.59375 8.109375 
Q 46.6875 8.109375 53.6875 14.9375 
Q 60.6875 21.78125 60.6875 36.53125 
Q 60.6875 51.171875 53.6875 57.984375 
Q 46.6875 64.796875 31.59375 64.796875 
z
M 9.8125 72.90625 
L 30.078125 72.90625 
Q 51.265625 72.90625 61.171875 64.09375 
Q 71.09375 55.28125 71.09375 36.53125 
Q 71.09375 17.671875 61.125 8.828125 
Q 51.171875 0 30.078125 0 
L 9.8125 0 
z
" id="DejaVuSans-68"/>
    </defs>
    <g transform="translate(60.41088 38.111366)scale(0.102 -0.102)">
     <use xlink:href="#DejaVuSans-98"/>
     <use x="63.476562" xlink:href="#DejaVuSans-98"/>
     <use x="126.953125" xlink:href="#DejaVuSans-111"/>
     <use x="188.134766" xlink:href="#DejaVuSans-98"/>
     <use x="251.611328" xlink:href="#DejaVuSans-32"/>
     <use x="283.398438" xlink:href="#DejaVuSans-102"/>
     <use x="318.603516" xlink:href="#DejaVuSans-49"/>
     <use x="382.226562" xlink:href="#DejaVuSans-57"/>
     <use x="445.849609" xlink:href="#DejaVuSans-44"/>
     <use x="477.636719" xlink:href="#DejaVuSans-32"/>
     <use x="509.423828" xlink:href="#DejaVuSans-49"/>
     <use x="573.046875" xlink:href="#DejaVuSans-48"/>
     <use x="636.669922" xlink:href="#DejaVuSans-45"/>
     <use x="672.753906" xlink:href="#DejaVuSans-68"/>
    </g>
    <!-- 51 targets: 100..1e-08 -->
    <defs>
     <path d="M 11.71875 12.40625 
L 22.015625 12.40625 
L 22.015625 0 
L 11.71875 0 
z
M 11.71875 51.703125 
L 22.015625 51.703125 
L 22.015625 39.3125 
L 11.71875 39.3125 
z
" id="DejaVuSans-58"/>
    </defs>
    <g transform="translate(60.41088 49.533135)scale(0.102 -0.102)">
     <use xlink:href="#DejaVuSans-53"/>
     <use x="63.623047" xlink:href="#DejaVuSans-49"/>
     <use x="127.246094" xlink:href="#DejaVuSans-32"/>
     <use x="159.033203" xlink:href="#DejaVuSans-116"/>
     <use x="198.242188" xlink:href="#DejaVuSans-97"/>
     <use x="259.521484" xlink:href="#DejaVuSans-114"/>
     <use x="300.619141" xlink:href="#DejaVuSans-103"/>
     <use x="364.095703" xlink:href="#DejaVuSans-101"/>
     <use x="425.619141" xlink:href="#DejaVuSans-116"/>
     <use x="464.828125" xlink:href="#DejaVuSans-115"/>
     <use x="516.927734" xlink:href="#DejaVuSans-58"/>
     <use x="550.619141" xlink:href="#DejaVuSans-32"/>
     <use x="582.40625" xlink:href="#DejaVuSans-49"/>
     <use x="646.029297" xlink:href="#DejaVuSans-48"/>
     <use x="709.652344" xlink:href="#DejaVuSans-48"/>
     <use x="773.275391" xlink:href="#DejaVuSans-46"/>
     <use x="805.0625" xlink:href="#DejaVuSans-46"/>
     <use x="836.849609" xlink:href="#DejaVuSans-49"/>
     <use x="900.472656" xlink:href="#DejaVuSans-101"/>
     <use x="961.996094" xlink:href="#DejaVuSans-45"/>
     <use x="998.080078" xlink:href="#DejaVuSans-48"/>
     <use x="1061.703125" xlink:href="#DejaVuSans-56"/>
    </g>
    <!-- 15 instances -->
    <g transform="translate(60.41088 60.954904)scale(0.102 -0.102)">
     <use xlink:href="#DejaVuSans-49"/>
     <use x="63.623047" xlink:href="#DejaVuSans-53"/>
     <use x="127.246094" xlink:href="#DejaVuSans-32"/>
     <use x="159.033203" xlink:href="#DejaVuSans-105"/>
     <use x="186.816406" xlink:href="#DejaVuSans-110"/>
     <use x="250.195312" xlink:href="#DejaVuSans-115"/>
     <use x="302.294922" xlink:href="#DejaVuSans-116"/>
     <use x="341.503906" xlink:href="#DejaVuSans-97"/>
     <use x="402.783203" xlink:href="#DejaVuSans-110"/>
     <use x="466.162109" xlink:href="#DejaVuSans-99"/>
     <use x="521.142578" xlink:href="#DejaVuSans-101"/>
     <use x="582.666016" xlink:href="#DejaVuSans-115"/>
    </g>
   </g>
   <g id="text_20">
    <!-- v2.3.3.18.73 -->
    <defs>
     <path d="M 40.578125 39.3125 
Q 47.65625 37.796875 51.625 33 
Q 55.609375 28.21875 55.609375 21.1875 
Q 55.609375 10.40625 48.1875 4.484375 
Q 40.765625 -1.421875 27.09375 -1.421875 
Q 22.515625 -1.421875 17.65625 -0.515625 
Q 12.796875 0.390625 7.625 2.203125 
L 7.625 11.71875 
Q 11.71875 9.328125 16.59375 8.109375 
Q 21.484375 6.890625 26.8125 6.890625 
Q 36.078125 6.890625 40.9375 10.546875 
Q 45.796875 14.203125 45.796875 21.1875 
Q 45.796875 27.640625 41.28125 31.265625 
Q 36.765625 34.90625 28.71875 34.90625 
L 20.21875 34.90625 
L 20.21875 43.015625 
L 29.109375 43.015625 
Q 36.375 43.015625 40.234375 45.921875 
Q 44.09375 48.828125 44.09375 54.296875 
Q 44.09375 59.90625 40.109375 62.90625 
Q 36.140625 65.921875 28.71875 65.921875 
Q 24.65625 65.921875 20.015625 65.03125 
Q 15.375 64.15625 9.8125 62.3125 
L 9.8125 71.09375 
Q 15.4375 72.65625 20.34375 73.4375 
Q 25.25 74.21875 29.59375 74.21875 
Q 40.828125 74.21875 47.359375 69.109375 
Q 53.90625 64.015625 53.90625 55.328125 
Q 53.90625 49.265625 50.4375 45.09375 
Q 46.96875 40.921875 40.578125 39.3125 
z
" id="DejaVuSans-51"/>
    </defs>
    <g style="fill:#808080;" transform="translate(166.559625 294.151352)scale(0.1 -0.1)">
     <use xlink:href="#DejaVuSans-118"/>
     <use x="59.179688" xlink:href="#DejaVuSans-50"/>
     <use x="122.802734" xlink:href="#DejaVuSans-46"/>
     <use x="154.589844" xlink:href="#DejaVuSans-51"/>
     <use x="218.212891" xlink:href="#DejaVuSans-46"/>
     <use x="250" xlink:href="#DejaVuSans-51"/>
     <use x="313.623047" xlink:href="#DejaVuSans-46"/>
     <use x="345.410156" xlink:href="#DejaVuSans-49"/>
     <use x="409.033203" xlink:href="#DejaVuSans-56"/>
     <use x="472.65625" xlink:href="#DejaVuSans-46"/>
     <use x="504.443359" xlink:href="#DejaVuSans-55"/>
     <use x="568.066406" xlink:href="#DejaVuSans-51"/>
    </g>
   </g>
   <g id="text_21">
    <!-- 19 Griewank-Rosenbrock F8F2 -->
    <defs>
     <path d="M 59.515625 10.40625 
L 59.515625 29.984375 
L 43.40625 29.984375 
L 43.40625 38.09375 
L 69.28125 38.09375 
L 69.28125 6.78125 
Q 63.578125 2.734375 56.6875 0.65625 
Q 49.8125 -1.421875 42 -1.421875 
Q 24.90625 -1.421875 15.25 8.5625 
Q 5.609375 18.5625 5.609375 36.375 
Q 5.609375 54.25 15.25 64.234375 
Q 24.90625 74.21875 42 74.21875 
Q 49.125 74.21875 55.546875 72.453125 
Q 61.96875 70.703125 67.390625 67.28125 
L 67.390625 56.78125 
Q 61.921875 61.421875 55.765625 63.765625 
Q 49.609375 66.109375 42.828125 66.109375 
Q 29.4375 66.109375 22.71875 58.640625 
Q 16.015625 51.171875 16.015625 36.375 
Q 16.015625 21.625 22.71875 14.15625 
Q 29.4375 6.6875 42.828125 6.6875 
Q 48.046875 6.6875 52.140625 7.59375 
Q 56.25 8.5 59.515625 10.40625 
z
" id="DejaVuSans-71"/>
     <path d="M 4.203125 54.6875 
L 13.1875 54.6875 
L 24.421875 12.015625 
L 35.59375 54.6875 
L 46.1875 54.6875 
L 57.421875 12.015625 
L 68.609375 54.6875 
L 77.59375 54.6875 
L 63.28125 0 
L 52.6875 0 
L 40.921875 44.828125 
L 29.109375 0 
L 18.5 0 
z
" id="DejaVuSans-119"/>
     <path d="M 9.078125 75.984375 
L 18.109375 75.984375 
L 18.109375 31.109375 
L 44.921875 54.6875 
L 56.390625 54.6875 
L 27.390625 29.109375 
L 57.625 0 
L 45.90625 0 
L 18.109375 26.703125 
L 18.109375 0 
L 9.078125 0 
z
" id="DejaVuSans-107"/>
     <path d="M 44.390625 34.1875 
Q 47.5625 33.109375 50.5625 29.59375 
Q 53.5625 26.078125 56.59375 19.921875 
L 66.609375 0 
L 56 0 
L 46.6875 18.703125 
Q 43.0625 26.03125 39.671875 28.421875 
Q 36.28125 30.8125 30.421875 30.8125 
L 19.671875 30.8125 
L 19.671875 0 
L 9.8125 0 
L 9.8125 72.90625 
L 32.078125 72.90625 
Q 44.578125 72.90625 50.734375 67.671875 
Q 56.890625 62.453125 56.890625 51.90625 
Q 56.890625 45.015625 53.6875 40.46875 
Q 50.484375 35.9375 44.390625 34.1875 
z
M 19.671875 64.796875 
L 19.671875 38.921875 
L 32.078125 38.921875 
Q 39.203125 38.921875 42.84375 42.21875 
Q 46.484375 45.515625 46.484375 51.90625 
Q 46.484375 58.296875 42.84375 61.546875 
Q 39.203125 64.796875 32.078125 64.796875 
z
" id="DejaVuSans-82"/>
    </defs>
    <g transform="translate(45.376812 21.648)scale(0.2 -0.2)">
     <use xlink:href="#DejaVuSans-49"/>
     <use x="63.623047" xlink:href="#DejaVuSans-57"/>
     <use x="127.246094" xlink:href="#DejaVuSans-32"/>
     <use x="159.033203" xlink:href="#DejaVuSans-71"/>
     <use x="236.523438" xlink:href="#DejaVuSans-114"/>
     <use x="277.636719" xlink:href="#DejaVuSans-105"/>
     <use x="305.419922" xlink:href="#DejaVuSans-101"/>
     <use x="366.943359" xlink:href="#DejaVuSans-119"/>
     <use x="448.730469" xlink:href="#DejaVuSans-97"/>
     <use x="510.009766" xlink:href="#DejaVuSans-110"/>
     <use x="573.388672" xlink:href="#DejaVuSans-107"/>
     <use x="631.298828" xlink:href="#DejaVuSans-45"/>
     <use x="667.382812" xlink:href="#DejaVuSans-82"/>
     <use x="736.802734" xlink:href="#DejaVuSans-111"/>
     <use x="797.984375" xlink:href="#DejaVuSans-115"/>
     <use x="850.083984" xlink:href="#DejaVuSans-101"/>
     <use x="911.607422" xlink:href="#DejaVuSans-110"/>
     <use x="974.986328" xlink:href="#DejaVuSans-98"/>
     <use x="1038.462891" xlink:href="#DejaVuSans-114"/>
     <use x="1079.544922" xlink:href="#DejaVuSans-111"/>
     <use x="1140.726562" xlink:href="#DejaVuSans-99"/>
     <use x="1195.707031" xlink:href="#DejaVuSans-107"/>
     <use x="1253.617188" xlink:href="#DejaVuSans-32"/>
     <use x="1285.404297" xlink:href="#DejaVuSans-70"/>
     <use x="1342.923828" xlink:href="#DejaVuSans-56"/>
     <use x="1406.546875" xlink:href="#DejaVuSans-70"/>
     <use x="1464.066406" xlink:href="#DejaVuSans-50"/>
    </g>
   </g>
  </g>
 </g>
 <defs>
  <clipPath id="paba77856ce">
   <rect height="271.296" width="281.088" x="57.6" y="27.648"/>
  </clipPath>
 </defs>
</svg>
