<?xml version="1.0" encoding="utf-8" standalone="no"?>
<!DOCTYPE svg PUBLIC "-//W3C//DTD SVG 1.1//EN"
  "http://www.w3.org/Graphics/SVG/1.1/DTD/svg11.dtd">
<!-- Created with matplotlib (https://matplotlib.org/) -->
<svg height="345.6pt" version="1.1" viewBox="0 0 460.8 345.6" width="460.8pt" xmlns="http://www.w3.org/2000/svg" xmlns:xlink="http://www.w3.org/1999/xlink">
 <defs>
  <style type="text/css">
*{stroke-linecap:butt;stroke-linejoin:round;}
  </style>
 </defs>
 <g id="figure_1">
  <g id="patch_1">
   <path d="M 0 345.6 
L 460.8 345.6 
L 460.8 0 
L 0 0 
z
" style="fill:#ffffff;"/>
  </g>
  <g id="axes_1">
   <g id="patch_2">
    <path d="M 57.6 298.944 
L 338.688 298.944 
L 338.688 27.648 
L 57.6 27.648 
z
" style="fill:#ffffff;"/>
   </g>
   <g id="line2d_1">
    <path d="M 29.53256 298.944 
L 29.53256 293.677139 
L 76.759008 293.677139 
L 76.759008 288.410278 
L 92.504372 288.410278 
L 92.504372 283.143418 
L 112.72987 283.143418 
L 112.72987 277.876557 
L 143.578237 277.876557 
L 143.578237 272.609696 
L 158.433528 272.609696 
L 158.433528 267.342835 
L 179.18416 267.342835 
L 179.18416 262.075974 
L 194.00663 262.075974 
L 194.00663 256.809114 
L 209.082729 256.809114 
L 209.082729 251.542253 
L 229.671214 251.542253 
L 229.671214 246.275392 
L 243.773552 246.275392 
L 243.773552 241.008531 
L 251.641102 241.008531 
L 251.641102 235.74167 
L 251.650133 235.74167 
L 251.650133 230.47481 
L 258.915875 230.47481 
L 258.915875 225.207949 
L 258.916146 225.207949 
L 258.916146 219.941088 
L 302.721272 219.941088 
L 302.721272 214.674227 
L 302.757625 214.674227 
L 302.757625 209.407366 
L 302.769064 209.407366 
L 302.769064 204.140506 
L 305.963277 204.140506 
L 305.963277 198.873645 
L 309.858883 198.873645 
L 309.858883 193.606784 
L 309.876641 193.606784 
L 309.876641 188.339923 
L 309.889002 188.339923 
L 309.889002 183.073062 
L 309.904833 183.073062 
L 309.904833 177.806202 
L 309.908497 177.806202 
L 309.908497 172.539341 
L 309.909936 172.539341 
L 309.909936 167.27248 
L 309.942163 167.27248 
L 309.942163 162.005619 
L 309.943425 162.005619 
L 309.943425 156.738758 
L 309.947023 156.738758 
L 309.947023 151.471897 
L 309.948419 151.471897 
L 309.948419 146.205037 
L 309.948687 146.205037 
L 309.948687 140.938176 
L 309.949399 140.938176 
L 309.949399 135.671315 
L 309.949787 135.671315 
L 309.949787 130.404454 
L 314.967066 130.404454 
L 314.967066 125.137593 
L 314.967747 125.137593 
L 314.967747 119.870733 
L 314.967774 119.870733 
L 314.967774 114.603872 
L 314.968429 114.603872 
L 314.968429 109.337011 
L 314.968564 109.337011 
L 314.968564 104.07015 
L 314.968949 104.07015 
L 314.968949 98.803289 
L 314.969729 98.803289 
L 314.969729 93.536429 
L 314.969939 93.536429 
L 314.969939 88.269568 
L 314.970165 88.269568 
L 314.970165 83.002707 
L 314.970687 83.002707 
L 314.970687 77.735846 
L 314.971041 77.735846 
L 314.971041 72.468985 
L 314.971094 72.468985 
L 314.971094 67.202125 
L 314.972431 67.202125 
L 314.972431 61.935264 
L 314.972777 61.935264 
L 314.972777 56.668403 
L 314.97299 56.668403 
L 314.97299 51.401542 
L 314.973501 51.401542 
L 314.973501 46.134681 
L 314.973892 46.134681 
L 314.973892 40.867821 
L 314.97421 40.867821 
L 314.97421 35.60096 
L 314.974468 35.60096 
L 314.974468 30.334099 
L 338.688 30.334099 
" style="fill:none;stroke:#f5deb3;stroke-linecap:square;stroke-width:4;"/>
   </g>
   <g id="line2d_2">
    <defs>
     <path d="M -0 7.778175 
L 7.778175 0 
L 0 -7.778175 
L -7.778175 -0 
z
" id="m6fa9bf35ff" style="stroke:#f5deb3;stroke-linejoin:miter;stroke-width:1.5;"/>
    </defs>
    <g>
     <use style="fill:#f5deb3;stroke:#f5deb3;stroke-linejoin:miter;stroke-width:1.5;" x="112.72987" xlink:href="#m6fa9bf35ff" y="283.143418"/>
     <use style="fill:#f5deb3;stroke:#f5deb3;stroke-linejoin:miter;stroke-width:1.5;" x="209.082729" xlink:href="#m6fa9bf35ff" y="251.542253"/>
     <use style="fill:#f5deb3;stroke:#f5deb3;stroke-linejoin:miter;stroke-width:1.5;" x="309.858883" xlink:href="#m6fa9bf35ff" y="198.873645"/>
     <use style="fill:#f5deb3;stroke:#f5deb3;stroke-linejoin:miter;stroke-width:1.5;" x="314.969939" xlink:href="#m6fa9bf35ff" y="93.536429"/>
     <use style="fill:#f5deb3;stroke:#f5deb3;stroke-linejoin:miter;stroke-width:1.5;" x="314.974468" xlink:href="#m6fa9bf35ff" y="30.334099"/>
     <use style="fill:#f5deb3;stroke:#f5deb3;stroke-linejoin:miter;stroke-width:1.5;" x="338.688" xlink:href="#m6fa9bf35ff" y="30.334099"/>
    </g>
   </g>
   <g id="line2d_3">
    <path style="fill:none;stroke:#f5deb3;stroke-linecap:square;stroke-width:4;"/>
    <g/>
   </g>
   <g id="line2d_4">
    <path d="M 338.688 30.334099 
L 369.60768 35.706297 
" style="fill:none;stroke:#f5deb3;stroke-linecap:square;stroke-width:4;"/>
    <g>
     <use style="fill:#f5deb3;stroke:#f5deb3;stroke-linejoin:miter;stroke-width:1.5;" x="338.688" xlink:href="#m6fa9bf35ff" y="30.334099"/>
     <use style="fill:#f5deb3;stroke:#f5deb3;stroke-linejoin:miter;stroke-width:1.5;" x="369.60768" xlink:href="#m6fa9bf35ff" y="35.706297"/>
    </g>
   </g>
   <g id="matplotlib.axis_1">
    <g id="xtick_1">
     <g id="line2d_5">
      <path clip-path="url(#p5be5a13a7e)" d="M 57.6 298.944 
L 57.6 27.648 
" style="fill:none;stroke:#b0b0b0;stroke-linecap:square;stroke-width:0.8;"/>
     </g>
     <g id="line2d_6">
      <defs>
       <path d="M 0 0 
L 0 3.5 
" id="mcd831a4191" style="stroke:#000000;stroke-width:0.8;"/>
      </defs>
      <g>
       <use style="stroke:#000000;stroke-width:0.8;" x="57.6" xlink:href="#mcd831a4191" y="298.944"/>
      </g>
     </g>
     <g id="text_1">
      <!-- 0 -->
      <defs>
       <path d="M 31.78125 66.40625 
Q 24.171875 66.40625 20.328125 58.90625 
Q 16.5 51.421875 16.5 36.375 
Q 16.5 21.390625 20.328125 13.890625 
Q 24.171875 6.390625 31.78125 6.390625 
Q 39.453125 6.390625 43.28125 13.890625 
Q 47.125 21.390625 47.125 36.375 
Q 47.125 51.421875 43.28125 58.90625 
Q 39.453125 66.40625 31.78125 66.40625 
z
M 31.78125 74.21875 
Q 44.046875 74.21875 50.515625 64.515625 
Q 56.984375 54.828125 56.984375 36.375 
Q 56.984375 17.96875 50.515625 8.265625 
Q 44.046875 -1.421875 31.78125 -1.421875 
Q 19.53125 -1.421875 13.0625 8.265625 
Q 6.59375 17.96875 6.59375 36.375 
Q 6.59375 54.828125 13.0625 64.515625 
Q 19.53125 74.21875 31.78125 74.21875 
z
" id="DejaVuSans-48"/>
      </defs>
      <g transform="translate(51.2375 321.140875)scale(0.2 -0.2)">
       <use xlink:href="#DejaVuSans-48"/>
      </g>
     </g>
    </g>
    <g id="xtick_2">
     <g id="line2d_7">
      <path clip-path="url(#p5be5a13a7e)" d="M 137.910857 298.944 
L 137.910857 27.648 
" style="fill:none;stroke:#b0b0b0;stroke-linecap:square;stroke-width:0.8;"/>
     </g>
     <g id="line2d_8">
      <g>
       <use style="stroke:#000000;stroke-width:0.8;" x="137.910857" xlink:href="#mcd831a4191" y="298.944"/>
      </g>
     </g>
     <g id="text_2">
      <!-- 2 -->
      <defs>
       <path d="M 19.1875 8.296875 
L 53.609375 8.296875 
L 53.609375 0 
L 7.328125 0 
L 7.328125 8.296875 
Q 12.9375 14.109375 22.625 23.890625 
Q 32.328125 33.6875 34.8125 36.53125 
Q 39.546875 41.84375 41.421875 45.53125 
Q 43.3125 49.21875 43.3125 52.78125 
Q 43.3125 58.59375 39.234375 62.25 
Q 35.15625 65.921875 28.609375 65.921875 
Q 23.96875 65.921875 18.8125 64.3125 
Q 13.671875 62.703125 7.8125 59.421875 
L 7.8125 69.390625 
Q 13.765625 71.78125 18.9375 73 
Q 24.125 74.21875 28.421875 74.21875 
Q 39.75 74.21875 46.484375 68.546875 
Q 53.21875 62.890625 53.21875 53.421875 
Q 53.21875 48.921875 51.53125 44.890625 
Q 49.859375 40.875 45.40625 35.40625 
Q 44.1875 33.984375 37.640625 27.21875 
Q 31.109375 20.453125 19.1875 8.296875 
z
" id="DejaVuSans-50"/>
      </defs>
      <g transform="translate(131.548357 321.140875)scale(0.2 -0.2)">
       <use xlink:href="#DejaVuSans-50"/>
      </g>
     </g>
    </g>
    <g id="xtick_3">
     <g id="line2d_9">
      <path clip-path="url(#p5be5a13a7e)" d="M 218.221714 298.944 
L 218.221714 27.648 
" style="fill:none;stroke:#b0b0b0;stroke-linecap:square;stroke-width:0.8;"/>
     </g>
     <g id="line2d_10">
      <g>
       <use style="stroke:#000000;stroke-width:0.8;" x="218.221714" xlink:href="#mcd831a4191" y="298.944"/>
      </g>
     </g>
     <g id="text_3">
      <!-- 4 -->
      <defs>
       <path d="M 37.796875 64.3125 
L 12.890625 25.390625 
L 37.796875 25.390625 
z
M 35.203125 72.90625 
L 47.609375 72.90625 
L 47.609375 25.390625 
L 58.015625 25.390625 
L 58.015625 17.1875 
L 47.609375 17.1875 
L 47.609375 0 
L 37.796875 0 
L 37.796875 17.1875 
L 4.890625 17.1875 
L 4.890625 26.703125 
z
" id="DejaVuSans-52"/>
      </defs>
      <g transform="translate(211.859214 321.140875)scale(0.2 -0.2)">
       <use xlink:href="#DejaVuSans-52"/>
      </g>
     </g>
    </g>
    <g id="xtick_4">
     <g id="line2d_11">
      <path clip-path="url(#p5be5a13a7e)" d="M 298.532571 298.944 
L 298.532571 27.648 
" style="fill:none;stroke:#b0b0b0;stroke-linecap:square;stroke-width:0.8;"/>
     </g>
     <g id="line2d_12">
      <g>
       <use style="stroke:#000000;stroke-width:0.8;" x="298.532571" xlink:href="#mcd831a4191" y="298.944"/>
      </g>
     </g>
     <g id="text_4">
      <!-- 6 -->
      <defs>
       <path d="M 33.015625 40.375 
Q 26.375 40.375 22.484375 35.828125 
Q 18.609375 31.296875 18.609375 23.390625 
Q 18.609375 15.53125 22.484375 10.953125 
Q 26.375 6.390625 33.015625 6.390625 
Q 39.65625 6.390625 43.53125 10.953125 
Q 47.40625 15.53125 47.40625 23.390625 
Q 47.40625 31.296875 43.53125 35.828125 
Q 39.65625 40.375 33.015625 40.375 
z
M 52.59375 71.296875 
L 52.59375 62.3125 
Q 48.875 64.0625 45.09375 64.984375 
Q 41.3125 65.921875 37.59375 65.921875 
Q 27.828125 65.921875 22.671875 59.328125 
Q 17.53125 52.734375 16.796875 39.40625 
Q 19.671875 43.65625 24.015625 45.921875 
Q 28.375 48.1875 33.59375 48.1875 
Q 44.578125 48.1875 50.953125 41.515625 
Q 57.328125 34.859375 57.328125 23.390625 
Q 57.328125 12.15625 50.6875 5.359375 
Q 44.046875 -1.421875 33.015625 -1.421875 
Q 20.359375 -1.421875 13.671875 8.265625 
Q 6.984375 17.96875 6.984375 36.375 
Q 6.984375 53.65625 15.1875 63.9375 
Q 23.390625 74.21875 37.203125 74.21875 
Q 40.921875 74.21875 44.703125 73.484375 
Q 48.484375 72.75 52.59375 71.296875 
z
" id="DejaVuSans-54"/>
      </defs>
      <g transform="translate(292.170071 321.140875)scale(0.2 -0.2)">
       <use xlink:href="#DejaVuSans-54"/>
      </g>
     </g>
    </g>
    <g id="xtick_5">
     <g id="line2d_13">
      <path clip-path="url(#p5be5a13a7e)" d="M 97.755429 298.944 
L 97.755429 27.648 
" style="fill:none;stroke:#b0b0b0;stroke-linecap:square;stroke-width:0.8;"/>
     </g>
     <g id="line2d_14">
      <defs>
       <path d="M 0 0 
L 0 2 
" id="m9e924a1189" style="stroke:#000000;stroke-width:0.6;"/>
      </defs>
      <g>
       <use style="stroke:#000000;stroke-width:0.6;" x="97.755429" xlink:href="#m9e924a1189" y="298.944"/>
      </g>
     </g>
    </g>
    <g id="xtick_6">
     <g id="line2d_15">
      <path clip-path="url(#p5be5a13a7e)" d="M 178.066286 298.944 
L 178.066286 27.648 
" style="fill:none;stroke:#b0b0b0;stroke-linecap:square;stroke-width:0.8;"/>
     </g>
     <g id="line2d_16">
      <g>
       <use style="stroke:#000000;stroke-width:0.6;" x="178.066286" xlink:href="#m9e924a1189" y="298.944"/>
      </g>
     </g>
    </g>
    <g id="xtick_7">
     <g id="line2d_17">
      <path clip-path="url(#p5be5a13a7e)" d="M 258.377143 298.944 
L 258.377143 27.648 
" style="fill:none;stroke:#b0b0b0;stroke-linecap:square;stroke-width:0.8;"/>
     </g>
     <g id="line2d_18">
      <g>
       <use style="stroke:#000000;stroke-width:0.6;" x="258.377143" xlink:href="#m9e924a1189" y="298.944"/>
      </g>
     </g>
    </g>
    <g id="xtick_8">
     <g id="line2d_19">
      <path clip-path="url(#p5be5a13a7e)" d="M 338.688 298.944 
L 338.688 27.648 
" style="fill:none;stroke:#b0b0b0;stroke-linecap:square;stroke-width:0.8;"/>
     </g>
     <g id="line2d_20">
      <g>
       <use style="stroke:#000000;stroke-width:0.6;" x="338.688" xlink:href="#m9e924a1189" y="298.944"/>
      </g>
     </g>
    </g>
    <g id="text_5">
     <!-- log10(# f-evals / dimension) -->
     <defs>
      <path d="M 9.421875 75.984375 
L 18.40625 75.984375 
L 18.40625 0 
L 9.421875 0 
z
" id="DejaVuSans-108"/>
      <path d="M 30.609375 48.390625 
Q 23.390625 48.390625 19.1875 42.75 
Q 14.984375 37.109375 14.984375 27.296875 
Q 14.984375 17.484375 19.15625 11.84375 
Q 23.34375 6.203125 30.609375 6.203125 
Q 37.796875 6.203125 41.984375 11.859375 
Q 46.1875 17.53125 46.1875 27.296875 
Q 46.1875 37.015625 41.984375 42.703125 
Q 37.796875 48.390625 30.609375 48.390625 
z
M 30.609375 56 
Q 42.328125 56 49.015625 48.375 
Q 55.71875 40.765625 55.71875 27.296875 
Q 55.71875 13.875 49.015625 6.21875 
Q 42.328125 -1.421875 30.609375 -1.421875 
Q 18.84375 -1.421875 12.171875 6.21875 
Q 5.515625 13.875 5.515625 27.296875 
Q 5.515625 40.765625 12.171875 48.375 
Q 18.84375 56 30.609375 56 
z
" id="DejaVuSans-111"/>
      <path d="M 45.40625 27.984375 
Q 45.40625 37.75 41.375 43.109375 
Q 37.359375 48.484375 30.078125 48.484375 
Q 22.859375 48.484375 18.828125 43.109375 
Q 14.796875 37.75 14.796875 27.984375 
Q 14.796875 18.265625 18.828125 12.890625 
Q 22.859375 7.515625 30.078125 7.515625 
Q 37.359375 7.515625 41.375 12.890625 
Q 45.40625 18.265625 45.40625 27.984375 
z
M 54.390625 6.78125 
Q 54.390625 -7.171875 48.1875 -13.984375 
Q 42 -20.796875 29.203125 -20.796875 
Q 24.46875 -20.796875 20.265625 -20.09375 
Q 16.0625 -19.390625 12.109375 -17.921875 
L 12.109375 -9.1875 
Q 16.0625 -11.328125 19.921875 -12.34375 
Q 23.78125 -13.375 27.78125 -13.375 
Q 36.625 -13.375 41.015625 -8.765625 
Q 45.40625 -4.15625 45.40625 5.171875 
L 45.40625 9.625 
Q 42.625 4.78125 38.28125 2.390625 
Q 33.9375 0 27.875 0 
Q 17.828125 0 11.671875 7.65625 
Q 5.515625 15.328125 5.515625 27.984375 
Q 5.515625 40.671875 11.671875 48.328125 
Q 17.828125 56 27.875 56 
Q 33.9375 56 38.28125 53.609375 
Q 42.625 51.21875 45.40625 46.390625 
L 45.40625 54.6875 
L 54.390625 54.6875 
z
" id="DejaVuSans-103"/>
      <path d="M 12.40625 8.296875 
L 28.515625 8.296875 
L 28.515625 63.921875 
L 10.984375 60.40625 
L 10.984375 69.390625 
L 28.421875 72.90625 
L 38.28125 72.90625 
L 38.28125 8.296875 
L 54.390625 8.296875 
L 54.390625 0 
L 12.40625 0 
z
" id="DejaVuSans-49"/>
      <path d="M 31 75.875 
Q 24.46875 64.65625 21.28125 53.65625 
Q 18.109375 42.671875 18.109375 31.390625 
Q 18.109375 20.125 21.3125 9.0625 
Q 24.515625 -2 31 -13.1875 
L 23.1875 -13.1875 
Q 15.875 -1.703125 12.234375 9.375 
Q 8.59375 20.453125 8.59375 31.390625 
Q 8.59375 42.28125 12.203125 53.3125 
Q 15.828125 64.359375 23.1875 75.875 
z
" id="DejaVuSans-40"/>
      <path d="M 51.125 44 
L 36.921875 44 
L 32.8125 27.6875 
L 47.125 27.6875 
z
M 43.796875 71.78125 
L 38.71875 51.515625 
L 52.984375 51.515625 
L 58.109375 71.78125 
L 65.921875 71.78125 
L 60.890625 51.515625 
L 76.125 51.515625 
L 76.125 44 
L 58.984375 44 
L 54.984375 27.6875 
L 70.515625 27.6875 
L 70.515625 20.21875 
L 53.078125 20.21875 
L 48 0 
L 40.1875 0 
L 45.21875 20.21875 
L 30.90625 20.21875 
L 25.875 0 
L 18.015625 0 
L 23.09375 20.21875 
L 7.71875 20.21875 
L 7.71875 27.6875 
L 24.90625 27.6875 
L 29 44 
L 13.28125 44 
L 13.28125 51.515625 
L 30.90625 51.515625 
L 35.890625 71.78125 
z
" id="DejaVuSans-35"/>
      <path id="DejaVuSans-32"/>
      <path d="M 37.109375 75.984375 
L 37.109375 68.5 
L 28.515625 68.5 
Q 23.6875 68.5 21.796875 66.546875 
Q 19.921875 64.59375 19.921875 59.515625 
L 19.921875 54.6875 
L 34.71875 54.6875 
L 34.71875 47.703125 
L 19.921875 47.703125 
L 19.921875 0 
L 10.890625 0 
L 10.890625 47.703125 
L 2.296875 47.703125 
L 2.296875 54.6875 
L 10.890625 54.6875 
L 10.890625 58.5 
Q 10.890625 67.625 15.140625 71.796875 
Q 19.390625 75.984375 28.609375 75.984375 
z
" id="DejaVuSans-102"/>
      <path d="M 4.890625 31.390625 
L 31.203125 31.390625 
L 31.203125 23.390625 
L 4.890625 23.390625 
z
" id="DejaVuSans-45"/>
      <path d="M 56.203125 29.59375 
L 56.203125 25.203125 
L 14.890625 25.203125 
Q 15.484375 15.921875 20.484375 11.0625 
Q 25.484375 6.203125 34.421875 6.203125 
Q 39.59375 6.203125 44.453125 7.46875 
Q 49.3125 8.734375 54.109375 11.28125 
L 54.109375 2.78125 
Q 49.265625 0.734375 44.1875 -0.34375 
Q 39.109375 -1.421875 33.890625 -1.421875 
Q 20.796875 -1.421875 13.15625 6.1875 
Q 5.515625 13.8125 5.515625 26.8125 
Q 5.515625 40.234375 12.765625 48.109375 
Q 20.015625 56 32.328125 56 
Q 43.359375 56 49.78125 48.890625 
Q 56.203125 41.796875 56.203125 29.59375 
z
M 47.21875 32.234375 
Q 47.125 39.59375 43.09375 43.984375 
Q 39.0625 48.390625 32.421875 48.390625 
Q 24.90625 48.390625 20.390625 44.140625 
Q 15.875 39.890625 15.1875 32.171875 
z
" id="DejaVuSans-101"/>
      <path d="M 2.984375 54.6875 
L 12.5 54.6875 
L 29.59375 8.796875 
L 46.6875 54.6875 
L 56.203125 54.6875 
L 35.6875 0 
L 23.484375 0 
z
" id="DejaVuSans-118"/>
      <path d="M 34.28125 27.484375 
Q 23.390625 27.484375 19.1875 25 
Q 14.984375 22.515625 14.984375 16.5 
Q 14.984375 11.71875 18.140625 8.90625 
Q 21.296875 6.109375 26.703125 6.109375 
Q 34.1875 6.109375 38.703125 11.40625 
Q 43.21875 16.703125 43.21875 25.484375 
L 43.21875 27.484375 
z
M 52.203125 31.203125 
L 52.203125 0 
L 43.21875 0 
L 43.21875 8.296875 
Q 40.140625 3.328125 35.546875 0.953125 
Q 30.953125 -1.421875 24.3125 -1.421875 
Q 15.921875 -1.421875 10.953125 3.296875 
Q 6 8.015625 6 15.921875 
Q 6 25.140625 12.171875 29.828125 
Q 18.359375 34.515625 30.609375 34.515625 
L 43.21875 34.515625 
L 43.21875 35.40625 
Q 43.21875 41.609375 39.140625 45 
Q 35.0625 48.390625 27.6875 48.390625 
Q 23 48.390625 18.546875 47.265625 
Q 14.109375 46.140625 10.015625 43.890625 
L 10.015625 52.203125 
Q 14.9375 54.109375 19.578125 55.046875 
Q 24.21875 56 28.609375 56 
Q 40.484375 56 46.34375 49.84375 
Q 52.203125 43.703125 52.203125 31.203125 
z
" id="DejaVuSans-97"/>
      <path d="M 44.28125 53.078125 
L 44.28125 44.578125 
Q 40.484375 46.53125 36.375 47.5 
Q 32.28125 48.484375 27.875 48.484375 
Q 21.1875 48.484375 17.84375 46.4375 
Q 14.5 44.390625 14.5 40.28125 
Q 14.5 37.15625 16.890625 35.375 
Q 19.28125 33.59375 26.515625 31.984375 
L 29.59375 31.296875 
Q 39.15625 29.25 43.1875 25.515625 
Q 47.21875 21.78125 47.21875 15.09375 
Q 47.21875 7.46875 41.1875 3.015625 
Q 35.15625 -1.421875 24.609375 -1.421875 
Q 20.21875 -1.421875 15.453125 -0.5625 
Q 10.6875 0.296875 5.421875 2 
L 5.421875 11.28125 
Q 10.40625 8.6875 15.234375 7.390625 
Q 20.0625 6.109375 24.8125 6.109375 
Q 31.15625 6.109375 34.5625 8.28125 
Q 37.984375 10.453125 37.984375 14.40625 
Q 37.984375 18.0625 35.515625 20.015625 
Q 33.0625 21.96875 24.703125 23.78125 
L 21.578125 24.515625 
Q 13.234375 26.265625 9.515625 29.90625 
Q 5.8125 33.546875 5.8125 39.890625 
Q 5.8125 47.609375 11.28125 51.796875 
Q 16.75 56 26.8125 56 
Q 31.78125 56 36.171875 55.265625 
Q 40.578125 54.546875 44.28125 53.078125 
z
" id="DejaVuSans-115"/>
      <path d="M 25.390625 72.90625 
L 33.6875 72.90625 
L 8.296875 -9.28125 
L 0 -9.28125 
z
" id="DejaVuSans-47"/>
      <path d="M 45.40625 46.390625 
L 45.40625 75.984375 
L 54.390625 75.984375 
L 54.390625 0 
L 45.40625 0 
L 45.40625 8.203125 
Q 42.578125 3.328125 38.25 0.953125 
Q 33.9375 -1.421875 27.875 -1.421875 
Q 17.96875 -1.421875 11.734375 6.484375 
Q 5.515625 14.40625 5.515625 27.296875 
Q 5.515625 40.1875 11.734375 48.09375 
Q 17.96875 56 27.875 56 
Q 33.9375 56 38.25 53.625 
Q 42.578125 51.265625 45.40625 46.390625 
z
M 14.796875 27.296875 
Q 14.796875 17.390625 18.875 11.75 
Q 22.953125 6.109375 30.078125 6.109375 
Q 37.203125 6.109375 41.296875 11.75 
Q 45.40625 17.390625 45.40625 27.296875 
Q 45.40625 37.203125 41.296875 42.84375 
Q 37.203125 48.484375 30.078125 48.484375 
Q 22.953125 48.484375 18.875 42.84375 
Q 14.796875 37.203125 14.796875 27.296875 
z
" id="DejaVuSans-100"/>
      <path d="M 9.421875 54.6875 
L 18.40625 54.6875 
L 18.40625 0 
L 9.421875 0 
z
M 9.421875 75.984375 
L 18.40625 75.984375 
L 18.40625 64.59375 
L 9.421875 64.59375 
z
" id="DejaVuSans-105"/>
      <path d="M 52 44.1875 
Q 55.375 50.25 60.0625 53.125 
Q 64.75 56 71.09375 56 
Q 79.640625 56 84.28125 50.015625 
Q 88.921875 44.046875 88.921875 33.015625 
L 88.921875 0 
L 79.890625 0 
L 79.890625 32.71875 
Q 79.890625 40.578125 77.09375 44.375 
Q 74.3125 48.1875 68.609375 48.1875 
Q 61.625 48.1875 57.5625 43.546875 
Q 53.515625 38.921875 53.515625 30.90625 
L 53.515625 0 
L 44.484375 0 
L 44.484375 32.71875 
Q 44.484375 40.625 41.703125 44.40625 
Q 38.921875 48.1875 33.109375 48.1875 
Q 26.21875 48.1875 22.15625 43.53125 
Q 18.109375 38.875 18.109375 30.90625 
L 18.109375 0 
L 9.078125 0 
L 9.078125 54.6875 
L 18.109375 54.6875 
L 18.109375 46.1875 
Q 21.1875 51.21875 25.484375 53.609375 
Q 29.78125 56 35.6875 56 
Q 41.65625 56 45.828125 52.96875 
Q 50 49.953125 52 44.1875 
z
" id="DejaVuSans-109"/>
      <path d="M 54.890625 33.015625 
L 54.890625 0 
L 45.90625 0 
L 45.90625 32.71875 
Q 45.90625 40.484375 42.875 44.328125 
Q 39.84375 48.1875 33.796875 48.1875 
Q 26.515625 48.1875 22.3125 43.546875 
Q 18.109375 38.921875 18.109375 30.90625 
L 18.109375 0 
L 9.078125 0 
L 9.078125 54.6875 
L 18.109375 54.6875 
L 18.109375 46.1875 
Q 21.34375 51.125 25.703125 53.5625 
Q 30.078125 56 35.796875 56 
Q 45.21875 56 50.046875 50.171875 
Q 54.890625 44.34375 54.890625 33.015625 
z
" id="DejaVuSans-110"/>
      <path d="M 8.015625 75.875 
L 15.828125 75.875 
Q 23.140625 64.359375 26.78125 53.3125 
Q 30.421875 42.28125 30.421875 31.390625 
Q 30.421875 20.453125 26.78125 9.375 
Q 23.140625 -1.703125 15.828125 -13.1875 
L 8.015625 -13.1875 
Q 14.5 -2 17.703125 9.0625 
Q 20.90625 20.125 20.90625 31.390625 
Q 20.90625 42.671875 17.703125 53.65625 
Q 14.5 64.65625 8.015625 75.875 
z
" id="DejaVuSans-41"/>
     </defs>
     <g transform="translate(77.303219 342.217594)scale(0.17 -0.17)">
      <use xlink:href="#DejaVuSans-108"/>
      <use x="27.783203" xlink:href="#DejaVuSans-111"/>
      <use x="88.964844" xlink:href="#DejaVuSans-103"/>
      <use x="152.441406" xlink:href="#DejaVuSans-49"/>
      <use x="216.064453" xlink:href="#DejaVuSans-48"/>
      <use x="279.6875" xlink:href="#DejaVuSans-40"/>
      <use x="318.701172" xlink:href="#DejaVuSans-35"/>
      <use x="402.490234" xlink:href="#DejaVuSans-32"/>
      <use x="434.277344" xlink:href="#DejaVuSans-102"/>
      <use x="469.404297" xlink:href="#DejaVuSans-45"/>
      <use x="505.488281" xlink:href="#DejaVuSans-101"/>
      <use x="567.011719" xlink:href="#DejaVuSans-118"/>
      <use x="626.191406" xlink:href="#DejaVuSans-97"/>
      <use x="687.470703" xlink:href="#DejaVuSans-108"/>
      <use x="715.253906" xlink:href="#DejaVuSans-115"/>
      <use x="767.353516" xlink:href="#DejaVuSans-32"/>
      <use x="799.140625" xlink:href="#DejaVuSans-47"/>
      <use x="832.832031" xlink:href="#DejaVuSans-32"/>
      <use x="864.619141" xlink:href="#DejaVuSans-100"/>
      <use x="928.095703" xlink:href="#DejaVuSans-105"/>
      <use x="955.878906" xlink:href="#DejaVuSans-109"/>
      <use x="1053.291016" xlink:href="#DejaVuSans-101"/>
      <use x="1114.814453" xlink:href="#DejaVuSans-110"/>
      <use x="1178.193359" xlink:href="#DejaVuSans-115"/>
      <use x="1230.292969" xlink:href="#DejaVuSans-105"/>
      <use x="1258.076172" xlink:href="#DejaVuSans-111"/>
      <use x="1319.257812" xlink:href="#DejaVuSans-110"/>
      <use x="1382.636719" xlink:href="#DejaVuSans-41"/>
     </g>
    </g>
   </g>
   <g id="matplotlib.axis_2">
    <g id="ytick_1">
     <g id="line2d_21">
      <path clip-path="url(#p5be5a13a7e)" d="M 57.6 298.944 
L 338.688 298.944 
" style="fill:none;stroke:#b0b0b0;stroke-linecap:square;stroke-width:0.8;"/>
     </g>
     <g id="line2d_22">
      <defs>
       <path d="M 0 0 
L -3.5 0 
" id="m782cf75eaf" style="stroke:#000000;stroke-width:0.8;"/>
      </defs>
      <g>
       <use style="stroke:#000000;stroke-width:0.8;" x="57.6" xlink:href="#m782cf75eaf" y="298.944"/>
      </g>
     </g>
     <g id="text_6">
      <!-- 0.0 -->
      <defs>
       <path d="M 10.6875 12.40625 
L 21 12.40625 
L 21 0 
L 10.6875 0 
z
" id="DejaVuSans-46"/>
      </defs>
      <g transform="translate(25.155 305.02275)scale(0.16 -0.16)">
       <use xlink:href="#DejaVuSans-48"/>
       <use x="63.623047" xlink:href="#DejaVuSans-46"/>
       <use x="95.410156" xlink:href="#DejaVuSans-48"/>
      </g>
     </g>
    </g>
    <g id="ytick_2">
     <g id="line2d_23">
      <path clip-path="url(#p5be5a13a7e)" d="M 57.6 245.22202 
L 338.688 245.22202 
" style="fill:none;stroke:#b0b0b0;stroke-linecap:square;stroke-width:0.8;"/>
     </g>
     <g id="line2d_24">
      <g>
       <use style="stroke:#000000;stroke-width:0.8;" x="57.6" xlink:href="#m782cf75eaf" y="245.22202"/>
      </g>
     </g>
     <g id="text_7">
      <!-- 0.2 -->
      <g transform="translate(25.155 251.30077)scale(0.16 -0.16)">
       <use xlink:href="#DejaVuSans-48"/>
       <use x="63.623047" xlink:href="#DejaVuSans-46"/>
       <use x="95.410156" xlink:href="#DejaVuSans-50"/>
      </g>
     </g>
    </g>
    <g id="ytick_3">
     <g id="line2d_25">
      <path clip-path="url(#p5be5a13a7e)" d="M 57.6 191.50004 
L 338.688 191.50004 
" style="fill:none;stroke:#b0b0b0;stroke-linecap:square;stroke-width:0.8;"/>
     </g>
     <g id="line2d_26">
      <g>
       <use style="stroke:#000000;stroke-width:0.8;" x="57.6" xlink:href="#m782cf75eaf" y="191.50004"/>
      </g>
     </g>
     <g id="text_8">
      <!-- 0.4 -->
      <g transform="translate(25.155 197.57879)scale(0.16 -0.16)">
       <use xlink:href="#DejaVuSans-48"/>
       <use x="63.623047" xlink:href="#DejaVuSans-46"/>
       <use x="95.410156" xlink:href="#DejaVuSans-52"/>
      </g>
     </g>
    </g>
    <g id="ytick_4">
     <g id="line2d_27">
      <path clip-path="url(#p5be5a13a7e)" d="M 57.6 137.778059 
L 338.688 137.778059 
" style="fill:none;stroke:#b0b0b0;stroke-linecap:square;stroke-width:0.8;"/>
     </g>
     <g id="line2d_28">
      <g>
       <use style="stroke:#000000;stroke-width:0.8;" x="57.6" xlink:href="#m782cf75eaf" y="137.778059"/>
      </g>
     </g>
     <g id="text_9">
      <!-- 0.6 -->
      <g transform="translate(25.155 143.856809)scale(0.16 -0.16)">
       <use xlink:href="#DejaVuSans-48"/>
       <use x="63.623047" xlink:href="#DejaVuSans-46"/>
       <use x="95.410156" xlink:href="#DejaVuSans-54"/>
      </g>
     </g>
    </g>
    <g id="ytick_5">
     <g id="line2d_29">
      <path clip-path="url(#p5be5a13a7e)" d="M 57.6 84.056079 
L 338.688 84.056079 
" style="fill:none;stroke:#b0b0b0;stroke-linecap:square;stroke-width:0.8;"/>
     </g>
     <g id="line2d_30">
      <g>
       <use style="stroke:#000000;stroke-width:0.8;" x="57.6" xlink:href="#m782cf75eaf" y="84.056079"/>
      </g>
     </g>
     <g id="text_10">
      <!-- 0.8 -->
      <defs>
       <path d="M 31.78125 34.625 
Q 24.75 34.625 20.71875 30.859375 
Q 16.703125 27.09375 16.703125 20.515625 
Q 16.703125 13.921875 20.71875 10.15625 
Q 24.75 6.390625 31.78125 6.390625 
Q 38.8125 6.390625 42.859375 10.171875 
Q 46.921875 13.96875 46.921875 20.515625 
Q 46.921875 27.09375 42.890625 30.859375 
Q 38.875 34.625 31.78125 34.625 
z
M 21.921875 38.8125 
Q 15.578125 40.375 12.03125 44.71875 
Q 8.5 49.078125 8.5 55.328125 
Q 8.5 64.0625 14.71875 69.140625 
Q 20.953125 74.21875 31.78125 74.21875 
Q 42.671875 74.21875 48.875 69.140625 
Q 55.078125 64.0625 55.078125 55.328125 
Q 55.078125 49.078125 51.53125 44.71875 
Q 48 40.375 41.703125 38.8125 
Q 48.828125 37.15625 52.796875 32.3125 
Q 56.78125 27.484375 56.78125 20.515625 
Q 56.78125 9.90625 50.3125 4.234375 
Q 43.84375 -1.421875 31.78125 -1.421875 
Q 19.734375 -1.421875 13.25 4.234375 
Q 6.78125 9.90625 6.78125 20.515625 
Q 6.78125 27.484375 10.78125 32.3125 
Q 14.796875 37.15625 21.921875 38.8125 
z
M 18.3125 54.390625 
Q 18.3125 48.734375 21.84375 45.5625 
Q 25.390625 42.390625 31.78125 42.390625 
Q 38.140625 42.390625 41.71875 45.5625 
Q 45.3125 48.734375 45.3125 54.390625 
Q 45.3125 60.0625 41.71875 63.234375 
Q 38.140625 66.40625 31.78125 66.40625 
Q 25.390625 66.40625 21.84375 63.234375 
Q 18.3125 60.0625 18.3125 54.390625 
z
" id="DejaVuSans-56"/>
      </defs>
      <g transform="translate(25.155 90.134829)scale(0.16 -0.16)">
       <use xlink:href="#DejaVuSans-48"/>
       <use x="63.623047" xlink:href="#DejaVuSans-46"/>
       <use x="95.410156" xlink:href="#DejaVuSans-56"/>
      </g>
     </g>
    </g>
    <g id="ytick_6">
     <g id="line2d_31">
      <path clip-path="url(#p5be5a13a7e)" d="M 57.6 30.334099 
L 338.688 30.334099 
" style="fill:none;stroke:#b0b0b0;stroke-linecap:square;stroke-width:0.8;"/>
     </g>
     <g id="line2d_32">
      <g>
       <use style="stroke:#000000;stroke-width:0.8;" x="57.6" xlink:href="#m782cf75eaf" y="30.334099"/>
      </g>
     </g>
     <g id="text_11">
      <!-- 1.0 -->
      <g transform="translate(25.155 36.412849)scale(0.16 -0.16)">
       <use xlink:href="#DejaVuSans-49"/>
       <use x="63.623047" xlink:href="#DejaVuSans-46"/>
       <use x="95.410156" xlink:href="#DejaVuSans-48"/>
      </g>
     </g>
    </g>
    <g id="text_12">
     <!-- Fraction of function,target pairs -->
     <defs>
      <path d="M 9.8125 72.90625 
L 51.703125 72.90625 
L 51.703125 64.59375 
L 19.671875 64.59375 
L 19.671875 43.109375 
L 48.578125 43.109375 
L 48.578125 34.8125 
L 19.671875 34.8125 
L 19.671875 0 
L 9.8125 0 
z
" id="DejaVuSans-70"/>
      <path d="M 41.109375 46.296875 
Q 39.59375 47.171875 37.8125 47.578125 
Q 36.03125 48 33.890625 48 
Q 26.265625 48 22.1875 43.046875 
Q 18.109375 38.09375 18.109375 28.8125 
L 18.109375 0 
L 9.078125 0 
L 9.078125 54.6875 
L 18.109375 54.6875 
L 18.109375 46.1875 
Q 20.953125 51.171875 25.484375 53.578125 
Q 30.03125 56 36.53125 56 
Q 37.453125 56 38.578125 55.875 
Q 39.703125 55.765625 41.0625 55.515625 
z
" id="DejaVuSans-114"/>
      <path d="M 48.78125 52.59375 
L 48.78125 44.1875 
Q 44.96875 46.296875 41.140625 47.34375 
Q 37.3125 48.390625 33.40625 48.390625 
Q 24.65625 48.390625 19.8125 42.84375 
Q 14.984375 37.3125 14.984375 27.296875 
Q 14.984375 17.28125 19.8125 11.734375 
Q 24.65625 6.203125 33.40625 6.203125 
Q 37.3125 6.203125 41.140625 7.25 
Q 44.96875 8.296875 48.78125 10.40625 
L 48.78125 2.09375 
Q 45.015625 0.34375 40.984375 -0.53125 
Q 36.96875 -1.421875 32.421875 -1.421875 
Q 20.0625 -1.421875 12.78125 6.34375 
Q 5.515625 14.109375 5.515625 27.296875 
Q 5.515625 40.671875 12.859375 48.328125 
Q 20.21875 56 33.015625 56 
Q 37.15625 56 41.109375 55.140625 
Q 45.0625 54.296875 48.78125 52.59375 
z
" id="DejaVuSans-99"/>
      <path d="M 18.3125 70.21875 
L 18.3125 54.6875 
L 36.8125 54.6875 
L 36.8125 47.703125 
L 18.3125 47.703125 
L 18.3125 18.015625 
Q 18.3125 11.328125 20.140625 9.421875 
Q 21.96875 7.515625 27.59375 7.515625 
L 36.8125 7.515625 
L 36.8125 0 
L 27.59375 0 
Q 17.1875 0 13.234375 3.875 
Q 9.28125 7.765625 9.28125 18.015625 
L 9.28125 47.703125 
L 2.6875 47.703125 
L 2.6875 54.6875 
L 9.28125 54.6875 
L 9.28125 70.21875 
z
" id="DejaVuSans-116"/>
      <path d="M 8.5 21.578125 
L 8.5 54.6875 
L 17.484375 54.6875 
L 17.484375 21.921875 
Q 17.484375 14.15625 20.5 10.265625 
Q 23.53125 6.390625 29.59375 6.390625 
Q 36.859375 6.390625 41.078125 11.03125 
Q 45.3125 15.671875 45.3125 23.6875 
L 45.3125 54.6875 
L 54.296875 54.6875 
L 54.296875 0 
L 45.3125 0 
L 45.3125 8.40625 
Q 42.046875 3.421875 37.71875 1 
Q 33.40625 -1.421875 27.6875 -1.421875 
Q 18.265625 -1.421875 13.375 4.4375 
Q 8.5 10.296875 8.5 21.578125 
z
M 31.109375 56 
z
" id="DejaVuSans-117"/>
      <path d="M 11.71875 12.40625 
L 22.015625 12.40625 
L 22.015625 4 
L 14.015625 -11.625 
L 7.71875 -11.625 
L 11.71875 4 
z
" id="DejaVuSans-44"/>
      <path d="M 18.109375 8.203125 
L 18.109375 -20.796875 
L 9.078125 -20.796875 
L 9.078125 54.6875 
L 18.109375 54.6875 
L 18.109375 46.390625 
Q 20.953125 51.265625 25.265625 53.625 
Q 29.59375 56 35.59375 56 
Q 45.5625 56 51.78125 48.09375 
Q 58.015625 40.1875 58.015625 27.296875 
Q 58.015625 14.40625 51.78125 6.484375 
Q 45.5625 -1.421875 35.59375 -1.421875 
Q 29.59375 -1.421875 25.265625 0.953125 
Q 20.953125 3.328125 18.109375 8.203125 
z
M 48.6875 27.296875 
Q 48.6875 37.203125 44.609375 42.84375 
Q 40.53125 48.484375 33.40625 48.484375 
Q 26.265625 48.484375 22.1875 42.84375 
Q 18.109375 37.203125 18.109375 27.296875 
Q 18.109375 17.390625 22.1875 11.75 
Q 26.265625 6.109375 33.40625 6.109375 
Q 40.53125 6.109375 44.609375 11.75 
Q 48.6875 17.390625 48.6875 27.296875 
z
" id="DejaVuSans-112"/>
     </defs>
     <g transform="translate(17.619531 298.435375)rotate(-90)scale(0.17 -0.17)">
      <use xlink:href="#DejaVuSans-70"/>
      <use x="57.410156" xlink:href="#DejaVuSans-114"/>
      <use x="98.523438" xlink:href="#DejaVuSans-97"/>
      <use x="159.802734" xlink:href="#DejaVuSans-99"/>
      <use x="214.783203" xlink:href="#DejaVuSans-116"/>
      <use x="253.992188" xlink:href="#DejaVuSans-105"/>
      <use x="281.775391" xlink:href="#DejaVuSans-111"/>
      <use x="342.957031" xlink:href="#DejaVuSans-110"/>
      <use x="406.335938" xlink:href="#DejaVuSans-32"/>
      <use x="438.123047" xlink:href="#DejaVuSans-111"/>
      <use x="499.304688" xlink:href="#DejaVuSans-102"/>
      <use x="534.509766" xlink:href="#DejaVuSans-32"/>
      <use x="566.296875" xlink:href="#DejaVuSans-102"/>
      <use x="601.501953" xlink:href="#DejaVuSans-117"/>
      <use x="664.880859" xlink:href="#DejaVuSans-110"/>
      <use x="728.259766" xlink:href="#DejaVuSans-99"/>
      <use x="783.240234" xlink:href="#DejaVuSans-116"/>
      <use x="822.449219" xlink:href="#DejaVuSans-105"/>
      <use x="850.232422" xlink:href="#DejaVuSans-111"/>
      <use x="911.414062" xlink:href="#DejaVuSans-110"/>
      <use x="974.792969" xlink:href="#DejaVuSans-44"/>
      <use x="1006.580078" xlink:href="#DejaVuSans-116"/>
      <use x="1045.789062" xlink:href="#DejaVuSans-97"/>
      <use x="1107.068359" xlink:href="#DejaVuSans-114"/>
      <use x="1148.166016" xlink:href="#DejaVuSans-103"/>
      <use x="1211.642578" xlink:href="#DejaVuSans-101"/>
      <use x="1273.166016" xlink:href="#DejaVuSans-116"/>
      <use x="1312.375" xlink:href="#DejaVuSans-32"/>
      <use x="1344.162109" xlink:href="#DejaVuSans-112"/>
      <use x="1407.638672" xlink:href="#DejaVuSans-97"/>
      <use x="1468.917969" xlink:href="#DejaVuSans-105"/>
      <use x="1496.701172" xlink:href="#DejaVuSans-114"/>
      <use x="1537.814453" xlink:href="#DejaVuSans-115"/>
     </g>
    </g>
   </g>
   <g id="line2d_33">
    <defs>
     <path d="M 0 1.5 
C 0.397805 1.5 0.77937 1.341951 1.06066 1.06066 
C 1.341951 0.77937 1.5 0.397805 1.5 0 
C 1.5 -0.397805 1.341951 -0.77937 1.06066 -1.06066 
C 0.77937 -1.341951 0.397805 -1.5 0 -1.5 
C -0.397805 -1.5 -0.77937 -1.341951 -1.06066 -1.06066 
C -1.341951 -0.77937 -1.5 -0.397805 -1.5 0 
C -1.5 0.397805 -1.341951 0.77937 -1.06066 1.06066 
C -0.77937 1.341951 -0.397805 1.5 0 1.5 
z
" id="mde22bb1dfd" style="stroke:#f5deb3;"/>
    </defs>
    <g>
     <use style="fill:#f5deb3;stroke:#f5deb3;" x="314.974468" xlink:href="#mde22bb1dfd" y="30.334099"/>
     <use style="fill:#f5deb3;stroke:#f5deb3;" x="314.974468" xlink:href="#mde22bb1dfd" y="30.334099"/>
    </g>
   </g>
   <g id="line2d_34">
    <defs>
     <path d="M 0 1.5 
C 0.397805 1.5 0.77937 1.341951 1.06066 1.06066 
C 1.341951 0.77937 1.5 0.397805 1.5 0 
C 1.5 -0.397805 1.341951 -0.77937 1.06066 -1.06066 
C 0.77937 -1.341951 0.397805 -1.5 0 -1.5 
C -0.397805 -1.5 -0.77937 -1.341951 -1.06066 -1.06066 
C -1.341951 -0.77937 -1.5 -0.397805 -1.5 0 
C -1.5 0.397805 -1.341951 0.77937 -1.06066 1.06066 
C -0.77937 1.341951 -0.397805 1.5 0 1.5 
z
" id="m8a3abef49f" style="stroke:#000080;"/>
    </defs>
    <g>
     <use style="fill:#000080;stroke:#000080;" x="303.962979" xlink:href="#m8a3abef49f" y="230.47481"/>
     <use style="fill:#000080;stroke:#000080;" x="303.962979" xlink:href="#m8a3abef49f" y="230.47481"/>
    </g>
   </g>
   <g id="line2d_35">
    <path d="M 29.53256 298.944 
L 29.53256 293.150453 
L 41.620548 293.150453 
L 41.620548 292.623767 
L 53.708537 292.623767 
L 53.708537 292.097081 
L 57.6 292.097081 
L 57.6 291.043709 
L 67.850577 291.043709 
L 67.850577 290.517023 
L 69.687988 290.517023 
L 69.687988 289.990337 
L 79.938565 289.990337 
L 79.938565 289.463651 
L 87.643811 289.463651 
L 87.643811 288.936964 
L 89.972502 288.936964 
L 89.972502 288.410278 
L 96.301313 288.410278 
L 96.301313 287.883592 
L 97.043522 287.883592 
L 97.043522 287.356906 
L 98.100772 287.356906 
L 98.100772 286.83022 
L 102.597126 286.83022 
L 102.597126 286.303534 
L 104.826449 286.303534 
L 104.826449 285.250162 
L 105.057436 285.250162 
L 105.057436 284.723476 
L 106.168594 284.723476 
L 106.168594 284.19679 
L 106.382575 284.19679 
L 106.382575 283.670104 
L 107.009204 283.670104 
L 107.009204 283.143418 
L 107.213174 283.143418 
L 107.213174 282.616732 
L 108.198707 282.616732 
L 108.198707 282.090045 
L 110.016944 282.090045 
L 110.016944 281.563359 
L 113.594805 281.563359 
L 113.594805 281.036673 
L 115.958621 281.036673 
L 115.958621 280.509987 
L 116.081002 280.509987 
L 116.081002 279.983301 
L 118.470564 279.983301 
L 118.470564 279.456615 
L 118.681952 279.456615 
L 118.681952 278.929929 
L 120.571812 278.929929 
L 120.571812 278.403243 
L 128.768338 278.403243 
L 128.768338 277.876557 
L 129.686407 277.876557 
L 129.686407 277.349871 
L 134.407429 277.349871 
L 134.492498 276.296499 
L 139.188293 276.296499 
L 139.188293 275.769812 
L 142.324576 275.769812 
L 142.324576 275.243126 
L 143.578237 275.243126 
L 143.578237 274.71644 
L 144.366588 274.71644 
L 144.366588 274.189754 
L 146.937474 274.189754 
L 146.937474 273.663068 
L 147.061745 273.663068 
L 147.102973 272.609696 
L 147.348313 272.609696 
L 147.348313 272.08301 
L 148.27731 272.08301 
L 148.27731 271.556324 
L 149.104327 271.556324 
L 149.195872 270.502952 
L 149.467659 270.502952 
L 149.467659 269.976266 
L 149.788308 269.976266 
L 149.788308 269.449579 
L 150.66605 269.449579 
L 150.66605 268.922893 
L 154.276638 268.922893 
L 154.276638 268.396207 
L 155.55245 268.396207 
L 155.55245 267.869521 
L 158.604712 267.869521 
L 158.604712 267.342835 
L 159.497101 267.342835 
L 159.497101 266.816149 
L 162.929393 266.816149 
L 162.929393 266.289463 
L 168.888381 266.289463 
L 168.888381 265.762777 
L 171.066621 265.762777 
L 171.066621 265.236091 
L 175.42793 265.236091 
L 175.42793 264.709405 
L 177.072356 264.709405 
L 177.072356 264.182719 
L 178.263969 264.182719 
L 178.263969 263.656033 
L 178.56822 263.656033 
L 178.56822 263.129347 
L 184.813434 263.129347 
L 184.813434 262.60266 
L 185.425565 262.60266 
L 185.425565 262.075974 
L 185.659561 262.075974 
L 185.659561 261.549288 
L 185.850328 261.549288 
L 185.850328 261.022602 
L 188.324612 261.022602 
L 188.324612 260.495916 
L 189.300095 260.495916 
L 189.300095 259.96923 
L 189.964906 259.96923 
L 189.964906 259.442544 
L 191.142451 259.442544 
L 191.142451 258.915858 
L 202.22656 258.915858 
L 202.22656 258.389172 
L 203.598935 258.389172 
L 203.598935 257.862486 
L 203.739539 257.862486 
L 203.739539 257.3358 
L 203.996115 257.3358 
L 203.996115 256.809114 
L 207.166338 256.809114 
L 207.166338 256.282427 
L 214.552488 256.282427 
L 214.552488 255.755741 
L 227.155589 255.755741 
L 227.155589 255.229055 
L 229.585258 255.229055 
L 229.585258 254.702369 
L 230.600077 254.702369 
L 230.699272 253.648997 
L 231.668149 253.648997 
L 231.668149 253.122311 
L 231.938995 253.122311 
L 232.034512 252.068939 
L 233.766366 252.068939 
L 233.770942 251.015567 
L 234.434677 251.015567 
L 234.481967 249.435508 
L 236.273809 249.435508 
L 236.273809 248.908822 
L 240.805602 248.908822 
L 240.900208 247.85545 
L 243.279256 247.85545 
L 243.279256 247.328764 
L 243.402833 247.328764 
L 243.402833 246.802078 
L 249.799972 246.802078 
L 249.799972 246.275392 
L 250.061906 246.275392 
L 250.065052 245.22202 
L 250.860252 245.22202 
L 250.860252 244.695334 
L 258.490998 244.695334 
L 258.490998 244.168648 
L 258.75204 244.168648 
L 258.758968 242.588589 
L 261.884282 242.588589 
L 261.884282 242.061903 
L 262.735069 242.061903 
L 262.735069 241.535217 
L 264.516328 241.535217 
L 264.536013 239.955159 
L 266.828761 239.955159 
L 266.828761 239.428473 
L 268.860103 239.428473 
L 268.860103 238.901787 
L 276.504037 238.901787 
L 276.504037 238.375101 
L 277.682813 238.375101 
L 277.682813 237.848415 
L 279.858069 237.848415 
L 279.858069 237.321729 
L 280.854091 237.321729 
L 280.854091 236.795043 
L 281.785546 236.795043 
L 281.799127 235.214984 
L 287.23572 235.214984 
L 287.23572 234.688298 
L 287.887976 234.688298 
L 287.887976 234.161612 
L 289.133777 234.161612 
L 289.133777 233.634926 
L 289.71674 233.634926 
L 289.71674 233.10824 
L 290.847531 233.10824 
L 290.847531 232.581554 
L 292.900294 232.581554 
L 292.900294 232.054868 
L 293.833697 232.054868 
L 293.833697 231.528182 
L 298.949427 231.528182 
L 298.949427 231.001496 
L 303.962979 231.001496 
L 303.962979 230.47481 
L 338.688 230.47481 
L 338.688 230.47481 
" style="fill:none;stroke:#000080;stroke-linecap:square;stroke-width:1.5;"/>
   </g>
   <g id="line2d_36">
    <defs>
     <path d="M 0 6 
C 1.591219 6 3.117479 5.367802 4.242641 4.242641 
C 5.367802 3.117479 6 1.591219 6 0 
C 6 -1.591219 5.367802 -3.117479 4.242641 -4.242641 
C 3.117479 -5.367802 1.591219 -6 0 -6 
C -1.591219 -6 -3.117479 -5.367802 -4.242641 -4.242641 
C -5.367802 -3.117479 -6 -1.591219 -6 0 
C -6 1.591219 -5.367802 3.117479 -4.242641 4.242641 
C -3.117479 5.367802 -1.591219 6 0 6 
z
" id="mb28e2bd240" style="stroke:#000080;stroke-width:1.5;"/>
    </defs>
    <g>
     <use style="fill-opacity:0;stroke:#000080;stroke-width:1.5;" x="98.100772" xlink:href="#mb28e2bd240" y="286.83022"/>
     <use style="fill-opacity:0;stroke:#000080;stroke-width:1.5;" x="178.56822" xlink:href="#mb28e2bd240" y="263.656033"/>
     <use style="fill-opacity:0;stroke:#000080;stroke-width:1.5;" x="243.402833" xlink:href="#mb28e2bd240" y="246.802078"/>
     <use style="fill-opacity:0;stroke:#000080;stroke-width:1.5;" x="298.949427" xlink:href="#mb28e2bd240" y="231.528182"/>
     <use style="fill-opacity:0;stroke:#000080;stroke-width:1.5;" x="303.962979" xlink:href="#mb28e2bd240" y="230.47481"/>
     <use style="fill-opacity:0;stroke:#000080;stroke-width:1.5;" x="338.688" xlink:href="#mb28e2bd240" y="230.47481"/>
    </g>
   </g>
   <g id="line2d_37">
    <path style="fill:none;stroke:#000080;stroke-linecap:square;stroke-width:1.5;"/>
    <g/>
   </g>
   <g id="line2d_38">
    <path clip-path="url(#p5be5a13a7e)" d="M 230.359856 254.702369 
" style="fill:none;stroke:#000080;stroke-linecap:square;stroke-width:1.5;"/>
    <defs>
     <path d="M -12 12 
L 12 -12 
M -12 -12 
L 12 12 
" id="m722484f1ac" style="stroke:#000080;"/>
    </defs>
    <g clip-path="url(#p5be5a13a7e)">
     <use style="fill:#000080;stroke:#000080;" x="230.359856" xlink:href="#m722484f1ac" y="254.702369"/>
    </g>
   </g>
   <g id="line2d_39">
    <g>
     <use style="fill:#000080;stroke:#000080;" x="316.570085" xlink:href="#m8a3abef49f" y="225.207949"/>
     <use style="fill:#000080;stroke:#000080;" x="316.570085" xlink:href="#m8a3abef49f" y="225.207949"/>
    </g>
   </g>
   <g id="line2d_40">
    <path d="M 29.53256 298.944 
L 29.53256 293.677139 
L 41.620548 293.677139 
L 41.620548 292.097081 
L 57.6 292.097081 
L 57.6 291.570395 
L 60.779557 291.570395 
L 60.779557 291.043709 
L 71.35013 291.043709 
L 71.35013 290.517023 
L 74.263433 290.517023 
L 74.263433 289.990337 
L 82.626842 289.990337 
L 82.626842 289.463651 
L 84.955534 289.463651 
L 84.955534 288.936964 
L 89.972502 288.936964 
L 89.972502 288.410278 
L 92.504372 288.410278 
L 92.504372 287.883592 
L 95.918017 287.883592 
L 95.918017 287.356906 
L 97.043522 287.356906 
L 97.043522 286.303534 
L 97.755429 286.303534 
L 97.755429 285.776848 
L 102.060491 285.776848 
L 102.060491 285.250162 
L 103.623262 285.250162 
L 103.623262 284.723476 
L 106.168594 284.723476 
L 106.168594 284.19679 
L 106.382575 284.19679 
L 106.382575 283.670104 
L 109.131511 283.670104 
L 109.131511 282.616732 
L 113.873839 282.616732 
L 113.873839 282.090045 
L 115.205729 282.090045 
L 115.205729 281.563359 
L 119.89914 281.563359 
L 119.89914 281.036673 
L 121.128432 281.036673 
L 121.128432 279.983301 
L 121.84399 279.983301 
L 121.84399 278.929929 
L 122.018385 278.929929 
L 122.018385 278.403243 
L 124.669438 278.403243 
L 124.669438 277.876557 
L 126.372183 277.876557 
L 126.372183 277.349871 
L 136.720123 277.349871 
L 136.720123 276.823185 
L 144.026061 276.823185 
L 144.026061 276.296499 
L 145.553708 276.296499 
L 145.553708 275.769812 
L 147.144103 275.769812 
L 147.144103 275.243126 
L 147.848613 275.243126 
L 147.927346 274.189754 
L 148.601505 274.189754 
L 148.601505 273.663068 
L 149.195872 273.663068 
L 149.195872 273.136382 
L 150.649257 273.136382 
L 150.682827 272.08301 
L 151.501723 272.08301 
L 151.501723 271.556324 
L 155.219531 271.556324 
L 155.219531 271.029638 
L 157.197287 271.029638 
L 157.197287 270.502952 
L 157.517493 270.502952 
L 157.517493 269.976266 
L 158.238915 269.976266 
L 158.238915 269.449579 
L 158.732007 269.449579 
L 158.732007 268.922893 
L 159.314063 268.922893 
L 159.314063 268.396207 
L 160.025151 268.396207 
L 160.025151 267.869521 
L 161.8498 267.869521 
L 161.8498 267.342835 
L 162.576903 267.342835 
L 162.576903 266.816149 
L 163.094774 266.816149 
L 163.094774 266.289463 
L 164.063205 266.289463 
L 164.063205 265.762777 
L 172.988756 265.762777 
L 172.988756 265.236091 
L 182.237315 265.236091 
L 182.237315 264.709405 
L 183.814124 264.709405 
L 183.814124 264.182719 
L 184.562917 264.182719 
L 184.562917 263.656033 
L 186.08754 263.656033 
L 186.08754 263.129347 
L 189.067789 263.129347 
L 189.067789 262.60266 
L 191.887612 262.60266 
L 191.887612 262.075974 
L 195.52556 262.075974 
L 195.52556 261.549288 
L 196.757517 261.549288 
L 196.757517 261.022602 
L 196.986492 261.022602 
L 196.986492 260.495916 
L 197.451692 260.495916 
L 197.451692 259.96923 
L 199.147603 259.96923 
L 199.164255 258.915858 
L 199.369024 258.915858 
L 199.369024 258.389172 
L 199.814635 258.389172 
L 199.814635 257.862486 
L 200.121597 257.862486 
L 200.121597 257.3358 
L 201.872138 257.3358 
L 201.872138 256.809114 
L 203.573909 256.809114 
L 203.678616 255.755741 
L 203.798655 255.755741 
L 203.798655 255.229055 
L 204.058298 255.229055 
L 204.134348 254.175683 
L 205.309557 254.175683 
L 205.309557 253.122311 
L 208.120059 253.122311 
L 208.120059 252.595625 
L 208.354396 252.595625 
L 208.354396 252.068939 
L 213.128311 252.068939 
L 213.128311 251.542253 
L 213.259999 251.542253 
L 213.259999 251.015567 
L 213.497579 251.015567 
L 213.556015 249.962195 
L 258.484413 249.962195 
L 258.487913 248.908822 
L 258.978225 248.908822 
L 258.978225 248.382136 
L 259.253501 248.382136 
L 259.253501 247.85545 
L 259.678711 247.85545 
L 259.704458 246.802078 
L 270.54154 246.802078 
L 270.54154 246.275392 
L 270.655088 246.275392 
L 270.655088 245.748706 
L 270.792513 245.748706 
L 270.8812 243.115275 
L 270.958591 243.115275 
L 270.999095 240.481845 
L 271.149917 240.481845 
L 271.158416 239.428473 
L 277.817742 239.428473 
L 277.892502 235.74167 
L 278.003643 235.74167 
L 278.035216 234.161612 
L 282.720343 234.161612 
L 282.824583 232.054868 
L 282.833123 232.054868 
L 282.835114 231.001496 
L 286.584469 231.001496 
L 286.584469 230.47481 
L 286.73327 230.47481 
L 286.73327 229.948123 
L 289.70788 229.948123 
L 289.70788 229.421437 
L 289.870265 229.421437 
L 289.870374 228.368065 
L 292.489855 228.368065 
L 292.489855 227.841379 
L 294.768831 227.841379 
L 294.832605 226.261321 
L 308.883655 226.261321 
L 308.883655 225.734635 
L 316.570085 225.734635 
L 316.570085 225.207949 
L 338.688 225.207949 
L 338.688 225.207949 
" style="fill:none;stroke:#000080;stroke-linecap:square;stroke-width:1.5;"/>
   </g>
   <g id="line2d_41">
    <g>
     <use style="fill-opacity:0;stroke:#000080;stroke-width:1.5;" x="109.131511" xlink:href="#mb28e2bd240" y="283.670104"/>
     <use style="fill-opacity:0;stroke:#000080;stroke-width:1.5;" x="172.988756" xlink:href="#mb28e2bd240" y="265.236091"/>
     <use style="fill-opacity:0;stroke:#000080;stroke-width:1.5;" x="213.556015" xlink:href="#mb28e2bd240" y="249.962195"/>
     <use style="fill-opacity:0;stroke:#000080;stroke-width:1.5;" x="316.570085" xlink:href="#mb28e2bd240" y="225.207949"/>
     <use style="fill-opacity:0;stroke:#000080;stroke-width:1.5;" x="316.570085" xlink:href="#mb28e2bd240" y="225.207949"/>
     <use style="fill-opacity:0;stroke:#000080;stroke-width:1.5;" x="338.688" xlink:href="#mb28e2bd240" y="225.207949"/>
    </g>
   </g>
   <g id="line2d_42">
    <path style="fill:none;stroke:#000080;stroke-linecap:square;stroke-width:1.5;"/>
    <g/>
   </g>
   <g id="line2d_43">
    <path clip-path="url(#p5be5a13a7e)" d="M 258.398406 249.962195 
" style="fill:none;stroke:#000080;stroke-linecap:square;stroke-width:1.5;"/>
    <g clip-path="url(#p5be5a13a7e)">
     <use style="fill:#000080;stroke:#000080;" x="258.398406" xlink:href="#m722484f1ac" y="249.962195"/>
    </g>
   </g>
   <g id="line2d_44">
    <defs>
     <path d="M 0 1.5 
C 0.397805 1.5 0.77937 1.341951 1.06066 1.06066 
C 1.341951 0.77937 1.5 0.397805 1.5 0 
C 1.5 -0.397805 1.341951 -0.77937 1.06066 -1.06066 
C 0.77937 -1.341951 0.397805 -1.5 0 -1.5 
C -0.397805 -1.5 -0.77937 -1.341951 -1.06066 -1.06066 
C -1.341951 -0.77937 -1.5 -0.397805 -1.5 0 
C -1.5 0.397805 -1.341951 0.77937 -1.06066 1.06066 
C -0.77937 1.341951 -0.397805 1.5 0 1.5 
z
" id="m3c72480242" style="stroke:#ff00ff;"/>
    </defs>
    <g>
     <use style="fill:#ff00ff;stroke:#ff00ff;" x="287.082127" xlink:href="#m3c72480242" y="225.207949"/>
     <use style="fill:#ff00ff;stroke:#ff00ff;" x="287.082127" xlink:href="#m3c72480242" y="225.207949"/>
    </g>
   </g>
   <g id="line2d_45">
    <path d="M 29.53256 298.944 
L 29.53256 293.677139 
L 48.691568 293.677139 
L 48.691568 293.150453 
L 57.6 293.150453 
L 57.6 292.097081 
L 60.779557 292.097081 
L 60.779557 289.990337 
L 69.687988 289.990337 
L 69.687988 289.463651 
L 76.759008 289.463651 
L 76.759008 288.936964 
L 84.213325 288.936964 
L 84.213325 288.410278 
L 84.955534 288.410278 
L 84.955534 287.883592 
L 88.846997 287.883592 
L 88.846997 287.356906 
L 89.418828 287.356906 
L 89.418828 286.83022 
L 90.509138 286.83022 
L 90.509138 286.303534 
L 92.026554 286.303534 
L 92.026554 285.776848 
L 93.422441 285.776848 
L 93.422441 285.250162 
L 93.863965 285.250162 
L 93.863965 284.723476 
L 100.343767 284.723476 
L 100.343767 284.19679 
L 100.641881 284.19679 
L 100.641881 283.670104 
L 104.826449 283.670104 
L 104.826449 283.143418 
L 116.202531 283.143418 
L 116.202531 282.616732 
L 118.256582 282.616732 
L 118.256582 282.090045 
L 118.681952 282.090045 
L 118.681952 281.563359 
L 121.667835 281.563359 
L 121.667835 281.036673 
L 125.327602 281.036673 
L 125.327602 280.509987 
L 127.165014 280.509987 
L 127.165014 279.983301 
L 127.611382 279.983301 
L 127.611382 278.929929 
L 128.229861 278.929929 
L 128.229861 278.403243 
L 131.590764 278.403243 
L 131.590764 277.876557 
L 132.326708 277.876557 
L 132.326708 277.349871 
L 134.577155 277.349871 
L 134.577155 276.823185 
L 136.456742 276.823185 
L 136.456742 276.296499 
L 138.084384 276.296499 
L 138.084384 275.769812 
L 138.959898 275.769812 
L 138.959898 275.243126 
L 140.738093 275.243126 
L 140.738093 274.71644 
L 140.856326 274.71644 
L 140.856326 274.189754 
L 144.342484 274.189754 
L 144.342484 273.663068 
L 146.516724 273.663068 
L 146.516724 273.136382 
L 146.728368 273.136382 
L 146.728368 272.609696 
L 148.219468 272.609696 
L 148.219468 272.08301 
L 148.430623 272.08301 
L 148.430623 271.556324 
L 149.359452 271.556324 
L 149.359452 271.029638 
L 149.593058 271.029638 
L 149.593058 270.502952 
L 150.292822 270.502952 
L 150.309961 269.449579 
L 150.849711 269.449579 
L 150.849711 268.922893 
L 152.052897 268.922893 
L 152.068392 267.869521 
L 153.120174 267.869521 
L 153.120174 267.342835 
L 153.651507 267.342835 
L 153.651507 266.816149 
L 154.694607 266.816149 
L 154.694607 266.289463 
L 155.590458 266.289463 
L 155.590458 265.762777 
L 155.791779 265.762777 
L 155.791779 265.236091 
L 157.243392 265.236091 
L 157.243392 264.709405 
L 159.324282 264.709405 
L 159.324282 264.182719 
L 162.576903 264.182719 
L 162.576903 263.656033 
L 163.533623 263.656033 
L 163.533623 263.129347 
L 165.35337 263.129347 
L 165.35337 262.60266 
L 166.729224 262.60266 
L 166.729224 262.075974 
L 178.156735 262.075974 
L 178.156735 261.549288 
L 180.092412 261.549288 
L 180.092412 261.022602 
L 181.488299 261.022602 
L 181.488299 260.495916 
L 185.923832 260.495916 
L 185.923832 259.96923 
L 187.919006 259.96923 
L 188.000096 258.389172 
L 188.425037 258.389172 
L 188.425037 257.862486 
L 189.973718 257.862486 
L 189.973718 257.3358 
L 196.530335 257.3358 
L 196.530335 256.809114 
L 196.670119 256.809114 
L 196.670119 256.282427 
L 197.184555 256.282427 
L 197.184555 255.229055 
L 197.475775 255.229055 
L 197.475775 254.702369 
L 198.036253 254.702369 
L 198.036253 254.175683 
L 199.870668 254.175683 
L 199.870668 253.648997 
L 218.596782 253.648997 
L 218.596782 253.122311 
L 218.969968 253.122311 
L 218.969968 252.595625 
L 219.287169 252.595625 
L 219.287169 252.068939 
L 226.802863 252.068939 
L 226.802863 251.015567 
L 228.173472 251.015567 
L 228.173472 250.488881 
L 229.600884 250.488881 
L 229.600884 249.962195 
L 230.523414 249.962195 
L 230.563335 247.85545 
L 232.54035 247.85545 
L 232.54035 247.328764 
L 232.764633 247.328764 
L 232.780381 245.22202 
L 241.376232 245.22202 
L 241.376232 244.695334 
L 242.263592 244.695334 
L 242.263592 244.168648 
L 242.537342 244.168648 
L 242.549794 242.061903 
L 242.861628 242.061903 
L 242.865024 241.008531 
L 243.176992 241.008531 
L 243.176992 240.481845 
L 243.560977 240.481845 
L 243.560977 239.955159 
L 243.706136 239.955159 
L 243.706136 239.428473 
L 249.189199 239.428473 
L 249.189199 238.901787 
L 249.563035 238.901787 
L 249.563035 238.375101 
L 250.269179 238.375101 
L 250.361933 236.795043 
L 252.208085 236.795043 
L 252.298172 235.74167 
L 254.334262 235.74167 
L 254.431621 234.161612 
L 254.558858 234.161612 
L 254.558858 233.634926 
L 258.921725 233.634926 
L 258.921725 233.10824 
L 262.02208 233.10824 
L 262.02208 232.581554 
L 263.979306 232.581554 
L 263.979306 231.528182 
L 264.302258 231.528182 
L 264.302258 231.001496 
L 267.726633 231.001496 
L 267.726633 230.47481 
L 268.404312 230.47481 
L 268.404312 229.948123 
L 270.270949 229.948123 
L 270.285738 228.894751 
L 270.536174 228.894751 
L 270.536174 228.368065 
L 272.128715 228.368065 
L 272.128715 227.841379 
L 279.632677 227.841379 
L 279.632677 227.314693 
L 282.481507 227.314693 
L 282.481507 226.788007 
L 283.333846 226.788007 
L 283.337715 225.734635 
L 287.082127 225.734635 
L 287.082127 225.207949 
L 338.688 225.207949 
L 338.688 225.207949 
" style="fill:none;stroke:#ff00ff;stroke-linecap:square;stroke-width:1.5;"/>
   </g>
   <g id="line2d_46">
    <defs>
     <path d="M -0 8.485281 
L 5.091169 0 
L 0 -8.485281 
L -5.091169 -0 
z
" id="m4eacb3f4a9" style="stroke:#ff00ff;stroke-linejoin:miter;stroke-width:1.5;"/>
    </defs>
    <g>
     <use style="fill-opacity:0;stroke:#ff00ff;stroke-linejoin:miter;stroke-width:1.5;" x="90.509138" xlink:href="#m4eacb3f4a9" y="286.83022"/>
     <use style="fill-opacity:0;stroke:#ff00ff;stroke-linejoin:miter;stroke-width:1.5;" x="157.243392" xlink:href="#m4eacb3f4a9" y="264.709405"/>
     <use style="fill-opacity:0;stroke:#ff00ff;stroke-linejoin:miter;stroke-width:1.5;" x="232.780381" xlink:href="#m4eacb3f4a9" y="245.748706"/>
     <use style="fill-opacity:0;stroke:#ff00ff;stroke-linejoin:miter;stroke-width:1.5;" x="287.082127" xlink:href="#m4eacb3f4a9" y="225.207949"/>
     <use style="fill-opacity:0;stroke:#ff00ff;stroke-linejoin:miter;stroke-width:1.5;" x="287.082127" xlink:href="#m4eacb3f4a9" y="225.207949"/>
     <use style="fill-opacity:0;stroke:#ff00ff;stroke-linejoin:miter;stroke-width:1.5;" x="338.688" xlink:href="#m4eacb3f4a9" y="225.207949"/>
    </g>
   </g>
   <g id="line2d_47">
    <path style="fill:none;stroke:#ff00ff;stroke-linecap:square;stroke-width:1.5;"/>
    <g/>
   </g>
   <g id="line2d_48">
    <path clip-path="url(#p5be5a13a7e)" d="M 230.336016 249.962195 
" style="fill:none;stroke:#ff00ff;stroke-linecap:square;stroke-width:1.5;"/>
    <defs>
     <path d="M -12 12 
L 12 -12 
M -12 -12 
L 12 12 
" id="m3b43f1c02a" style="stroke:#ff00ff;"/>
    </defs>
    <g clip-path="url(#p5be5a13a7e)">
     <use style="fill:#ff00ff;stroke:#ff00ff;" x="230.336016" xlink:href="#m3b43f1c02a" y="249.962195"/>
    </g>
   </g>
   <g id="line2d_49">
    <defs>
     <path d="M 0 1.5 
C 0.397805 1.5 0.77937 1.341951 1.06066 1.06066 
C 1.341951 0.77937 1.5 0.397805 1.5 0 
C 1.5 -0.397805 1.341951 -0.77937 1.06066 -1.06066 
C 0.77937 -1.341951 0.397805 -1.5 0 -1.5 
C -0.397805 -1.5 -0.77937 -1.341951 -1.06066 -1.06066 
C -1.341951 -0.77937 -1.5 -0.397805 -1.5 0 
C -1.5 0.397805 -1.341951 0.77937 -1.06066 1.06066 
C -0.77937 1.341951 -0.397805 1.5 0 1.5 
z
" id="m0411db1908" style="stroke:#ff0000;"/>
    </defs>
    <g>
     <use style="fill:#ff0000;stroke:#ff0000;" x="292.055724" xlink:href="#m0411db1908" y="230.47481"/>
     <use style="fill:#ff0000;stroke:#ff0000;" x="292.055724" xlink:href="#m0411db1908" y="230.47481"/>
    </g>
   </g>
   <g id="line2d_50">
    <path d="M 29.53256 298.944 
L 29.53256 292.097081 
L 65.796525 292.097081 
L 65.796525 291.570395 
L 69.687988 291.570395 
L 69.687988 290.517023 
L 74.263433 290.517023 
L 74.263433 289.463651 
L 78.941764 289.463651 
L 78.941764 288.936964 
L 79.938565 288.936964 
L 79.938565 288.410278 
L 84.955534 288.410278 
L 84.955534 287.883592 
L 88.846997 287.883592 
L 88.846997 287.356906 
L 96.301313 287.356906 
L 96.301313 286.83022 
L 102.330873 286.83022 
L 102.330873 286.303534 
L 105.732589 286.303534 
L 105.732589 285.776848 
L 109.131511 285.776848 
L 109.131511 285.250162 
L 109.491096 285.250162 
L 109.491096 284.723476 
L 111.023335 284.723476 
L 111.023335 283.670104 
L 111.663381 283.670104 
L 111.663381 283.143418 
L 113.453595 283.143418 
L 113.453595 282.616732 
L 115.33349 282.616732 
L 115.33349 281.563359 
L 118.363901 281.563359 
L 118.363901 280.509987 
L 118.681952 280.509987 
L 118.681952 279.983301 
L 119.602714 279.983301 
L 119.602714 279.456615 
L 122.699028 279.456615 
L 122.699028 278.929929 
L 124.292765 278.929929 
L 124.292765 278.403243 
L 129.574256 278.403243 
L 129.574256 277.876557 
L 133.262014 277.876557 
L 133.262014 277.349871 
L 140.348205 277.349871 
L 140.408758 276.296499 
L 141.148448 276.296499 
L 141.148448 275.769812 
L 143.976867 275.769812 
L 143.976867 275.243126 
L 144.099593 275.243126 
L 144.099593 274.71644 
L 149.104327 274.71644 
L 149.104327 274.189754 
L 149.841182 274.189754 
L 149.841182 273.663068 
L 150.56505 273.663068 
L 150.56505 273.136382 
L 152.161072 273.136382 
L 152.161072 272.609696 
L 153.032466 272.609696 
L 153.032466 272.08301 
L 153.59484 272.08301 
L 153.59484 271.556324 
L 154.167129 271.556324 
L 154.167129 271.029638 
L 154.507086 271.029638 
L 154.507086 270.502952 
L 155.990803 270.502952 
L 155.990803 269.976266 
L 156.272978 269.976266 
L 156.272978 269.449579 
L 157.44937 269.449579 
L 157.44937 268.922893 
L 158.336493 268.922893 
L 158.336493 268.396207 
L 158.647247 268.396207 
L 158.647247 267.869521 
L 160.518612 267.869521 
L 160.518612 267.342835 
L 161.054091 267.342835 
L 161.054091 266.816149 
L 165.468672 266.816149 
L 165.468672 266.289463 
L 165.845252 266.289463 
L 165.845252 265.762777 
L 172.918615 265.762777 
L 172.918615 265.236091 
L 175.72962 265.236091 
L 175.765475 264.182719 
L 177.135015 264.182719 
L 177.135015 263.129347 
L 182.275715 263.129347 
L 182.275715 262.60266 
L 182.931748 262.60266 
L 182.931748 262.075974 
L 190.749155 262.075974 
L 190.749155 261.549288 
L 191.263968 261.549288 
L 191.348855 260.495916 
L 192.279488 260.495916 
L 192.279488 259.96923 
L 193.279977 259.96923 
L 193.279977 259.442544 
L 195.830473 259.442544 
L 195.830473 258.915858 
L 200.335927 258.915858 
L 200.335927 258.389172 
L 207.411161 258.389172 
L 207.411161 257.862486 
L 214.737037 257.862486 
L 214.737037 257.3358 
L 214.894345 257.3358 
L 214.894345 256.282427 
L 215.601608 256.282427 
L 215.601608 255.755741 
L 216.656163 255.755741 
L 216.656163 255.229055 
L 217.66642 255.229055 
L 217.734699 253.648997 
L 226.009774 253.648997 
L 226.009774 253.122311 
L 228.693715 253.122311 
L 228.693715 252.595625 
L 230.503592 252.595625 
L 230.573816 250.488881 
L 232.053774 250.488881 
L 232.097901 248.908822 
L 232.177519 248.908822 
L 232.177519 248.382136 
L 236.346376 248.382136 
L 236.455337 246.802078 
L 236.477758 246.802078 
L 236.477758 246.275392 
L 236.591257 246.275392 
L 236.591257 245.748706 
L 236.88103 245.748706 
L 236.88103 245.22202 
L 237.187593 245.22202 
L 237.2051 244.168648 
L 241.613517 244.168648 
L 241.676154 242.061903 
L 242.539245 242.061903 
L 242.539245 241.535217 
L 243.315941 241.535217 
L 243.332478 240.481845 
L 245.77529 240.481845 
L 245.789294 239.428473 
L 248.155749 239.428473 
L 248.155749 238.901787 
L 248.981935 238.901787 
L 249.004814 237.848415 
L 250.098165 237.848415 
L 250.098165 237.321729 
L 251.817577 237.321729 
L 251.819254 236.268356 
L 252.124621 236.268356 
L 252.124621 235.74167 
L 256.498448 235.74167 
L 256.498448 235.214984 
L 258.122104 235.214984 
L 258.122104 234.688298 
L 258.467419 234.688298 
L 258.467419 234.161612 
L 261.316601 234.161612 
L 261.316601 233.634926 
L 265.433182 233.634926 
L 265.433182 233.10824 
L 269.445169 233.10824 
L 269.445169 232.581554 
L 273.710122 232.581554 
L 273.710122 232.054868 
L 278.60341 232.054868 
L 278.60341 231.528182 
L 283.362588 231.528182 
L 283.362588 231.001496 
L 292.055724 231.001496 
L 292.055724 230.47481 
L 338.688 230.47481 
L 338.688 230.47481 
" style="fill:none;stroke:#ff0000;stroke-linecap:square;stroke-width:1.5;"/>
   </g>
   <g id="line2d_51">
    <defs>
     <path d="M 0 -6 
L -5.196152 -3 
L -5.196152 3 
L -0 6 
L 5.196152 3 
L 5.196152 -3 
z
" id="m98f1d17206" style="stroke:#ff0000;stroke-linejoin:miter;stroke-width:1.5;"/>
    </defs>
    <g>
     <use style="fill-opacity:0;stroke:#ff0000;stroke-linejoin:miter;stroke-width:1.5;" x="124.292765" xlink:href="#m98f1d17206" y="278.403243"/>
     <use style="fill-opacity:0;stroke:#ff0000;stroke-linejoin:miter;stroke-width:1.5;" x="195.830473" xlink:href="#m98f1d17206" y="259.442544"/>
     <use style="fill-opacity:0;stroke:#ff0000;stroke-linejoin:miter;stroke-width:1.5;" x="250.098165" xlink:href="#m98f1d17206" y="237.848415"/>
     <use style="fill-opacity:0;stroke:#ff0000;stroke-linejoin:miter;stroke-width:1.5;" x="292.055724" xlink:href="#m98f1d17206" y="230.47481"/>
     <use style="fill-opacity:0;stroke:#ff0000;stroke-linejoin:miter;stroke-width:1.5;" x="292.055724" xlink:href="#m98f1d17206" y="230.47481"/>
     <use style="fill-opacity:0;stroke:#ff0000;stroke-linejoin:miter;stroke-width:1.5;" x="338.688" xlink:href="#m98f1d17206" y="230.47481"/>
    </g>
   </g>
   <g id="line2d_52">
    <path style="fill:none;stroke:#ff0000;stroke-linecap:square;stroke-width:1.5;"/>
    <g/>
   </g>
   <g id="line2d_53">
    <path clip-path="url(#p5be5a13a7e)" d="M 230.32086 252.595625 
" style="fill:none;stroke:#ff0000;stroke-linecap:square;stroke-width:1.5;"/>
    <defs>
     <path d="M -12 12 
L 12 -12 
M -12 -12 
L 12 12 
" id="m7856239589" style="stroke:#ff0000;"/>
    </defs>
    <g clip-path="url(#p5be5a13a7e)">
     <use style="fill:#ff0000;stroke:#ff0000;" x="230.32086" xlink:href="#m7856239589" y="252.595625"/>
    </g>
   </g>
   <g id="line2d_54">
    <defs>
     <path d="M 0 1.5 
C 0.397805 1.5 0.77937 1.341951 1.06066 1.06066 
C 1.341951 0.77937 1.5 0.397805 1.5 0 
C 1.5 -0.397805 1.341951 -0.77937 1.06066 -1.06066 
C 0.77937 -1.341951 0.397805 -1.5 0 -1.5 
C -0.397805 -1.5 -0.77937 -1.341951 -1.06066 -1.06066 
C -1.341951 -0.77937 -1.5 -0.397805 -1.5 0 
C -1.5 0.397805 -1.341951 0.77937 -1.06066 1.06066 
C -0.77937 1.341951 -0.397805 1.5 0 1.5 
z
" id="m6c3e994316" style="stroke:#ff7500;"/>
    </defs>
    <g>
     <use style="fill:#ff7500;stroke:#ff7500;" x="295.672389" xlink:href="#m6c3e994316" y="225.207949"/>
     <use style="fill:#ff7500;stroke:#ff7500;" x="295.672389" xlink:href="#m6c3e994316" y="225.207949"/>
    </g>
   </g>
   <g id="line2d_55">
    <path d="M 29.53256 298.944 
L 29.53256 293.150453 
L 41.620548 293.150453 
L 41.620548 292.097081 
L 48.691568 292.097081 
L 48.691568 291.570395 
L 53.708537 291.570395 
L 53.708537 289.463651 
L 60.779557 289.463651 
L 60.779557 288.936964 
L 67.850577 288.936964 
L 67.850577 288.410278 
L 81.775977 288.410278 
L 81.775977 287.356906 
L 93.422441 287.356906 
L 93.422441 286.83022 
L 93.863965 286.83022 
L 93.863965 286.303534 
L 99.41757 286.303534 
L 99.41757 285.776848 
L 100.343767 285.776848 
L 100.343767 285.250162 
L 100.934985 285.250162 
L 100.934985 284.723476 
L 107.009204 284.723476 
L 107.009204 284.19679 
L 109.31223 284.19679 
L 109.31223 283.670104 
L 115.835374 283.670104 
L 115.835374 283.143418 
L 116.323218 283.143418 
L 116.323218 282.616732 
L 120.852343 282.616732 
L 120.852343 282.090045 
L 121.756135 282.090045 
L 121.756135 281.563359 
L 121.931406 281.563359 
L 122.018385 280.509987 
L 122.104932 280.509987 
L 122.104932 279.983301 
L 122.947573 279.983301 
L 122.947573 279.456615 
L 123.907776 279.456615 
L 123.907776 278.929929 
L 125.110962 278.929929 
L 125.110962 278.403243 
L 126.839037 278.403243 
L 126.839037 277.876557 
L 128.590686 277.876557 
L 128.590686 277.349871 
L 131.082294 277.349871 
L 131.082294 276.823185 
L 132.847322 276.823185 
L 132.847322 276.296499 
L 136.757427 276.296499 
L 136.757427 275.769812 
L 137.126135 275.769812 
L 137.126135 275.243126 
L 137.980475 275.243126 
L 137.980475 274.71644 
L 138.392446 274.71644 
L 138.392446 274.189754 
L 140.738093 274.189754 
L 140.738093 273.663068 
L 141.858037 273.663068 
L 141.858037 273.136382 
L 142.51311 273.136382 
L 142.51311 272.609696 
L 145.120836 272.609696 
L 145.120836 272.08301 
L 145.418169 272.08301 
L 145.418169 271.556324 
L 154.533999 271.556324 
L 154.533999 271.029638 
L 156.598505 271.029638 
L 156.598505 270.502952 
L 157.709073 270.502952 
L 157.709073 269.976266 
L 158.314856 269.976266 
L 158.314856 269.449579 
L 162.00818 269.449579 
L 162.00818 268.922893 
L 162.779197 268.922893 
L 162.779197 268.396207 
L 163.078306 268.396207 
L 163.078306 267.869521 
L 173.911252 267.869521 
L 173.911252 267.342835 
L 175.182762 267.342835 
L 175.182762 266.816149 
L 175.573393 266.816149 
L 175.573393 266.289463 
L 177.943781 266.289463 
L 177.943781 265.762777 
L 179.936452 265.762777 
L 179.936452 265.236091 
L 181.9912 265.236091 
L 181.9912 264.709405 
L 187.115752 264.709405 
L 187.115752 264.182719 
L 190.234311 264.182719 
L 190.234311 263.656033 
L 190.499618 263.656033 
L 190.499618 263.129347 
L 197.17523 263.129347 
L 197.17523 262.60266 
L 199.445964 262.60266 
L 199.445964 262.075974 
L 207.822481 262.075974 
L 207.822481 261.549288 
L 208.377719 261.549288 
L 208.377719 261.022602 
L 208.943158 261.022602 
L 208.943158 260.495916 
L 210.632268 260.495916 
L 210.632268 259.96923 
L 211.415838 259.96923 
L 211.463694 257.862486 
L 211.559524 257.862486 
L 211.559524 257.3358 
L 211.752147 257.3358 
L 211.800602 256.282427 
L 212.041375 256.282427 
L 212.041375 255.755741 
L 213.310918 255.755741 
L 213.310918 255.229055 
L 214.352908 255.229055 
L 214.352908 254.702369 
L 215.388322 254.702369 
L 215.388322 254.175683 
L 220.019354 254.175683 
L 220.019354 253.648997 
L 231.171693 253.648997 
L 231.171693 253.122311 
L 232.073015 253.122311 
L 232.073015 252.595625 
L 235.42588 252.595625 
L 235.522501 249.962195 
L 236.255217 249.962195 
L 236.255217 249.435508 
L 236.538627 249.435508 
L 236.538627 248.908822 
L 242.798854 248.908822 
L 242.798854 248.382136 
L 243.271794 248.382136 
L 243.271794 247.85545 
L 245.078767 247.85545 
L 245.158216 246.275392 
L 245.199328 246.275392 
L 245.262849 245.22202 
L 245.586183 245.22202 
L 245.644188 242.588589 
L 251.308617 242.588589 
L 251.412613 241.535217 
L 251.678169 241.535217 
L 251.683187 240.481845 
L 251.819609 240.481845 
L 251.826263 239.428473 
L 254.957002 239.428473 
L 254.975748 238.375101 
L 255.983116 238.375101 
L 255.988557 237.321729 
L 256.304308 237.321729 
L 256.304308 236.795043 
L 257.588298 236.795043 
L 257.588298 236.268356 
L 258.578653 236.268356 
L 258.578653 235.74167 
L 259.839559 235.74167 
L 259.839559 235.214984 
L 260.249973 235.214984 
L 260.249973 234.688298 
L 262.586874 234.688298 
L 262.594352 233.634926 
L 264.968415 233.634926 
L 264.968415 233.10824 
L 269.308086 233.10824 
L 269.33196 232.054868 
L 271.798991 232.054868 
L 271.798991 231.528182 
L 274.764498 231.528182 
L 274.764498 231.001496 
L 276.072619 231.001496 
L 276.088593 229.948123 
L 276.802784 229.948123 
L 276.803099 228.894751 
L 277.971423 228.894751 
L 278.065694 227.841379 
L 281.080465 227.841379 
L 281.080465 227.314693 
L 283.732248 227.314693 
L 283.732248 226.788007 
L 284.070422 226.788007 
L 284.070422 226.261321 
L 288.04654 226.261321 
L 288.04654 225.734635 
L 295.672389 225.734635 
L 295.672389 225.207949 
L 338.688 225.207949 
L 338.688 225.207949 
" style="fill:none;stroke:#ff7500;stroke-linecap:square;stroke-width:1.5;"/>
   </g>
   <g id="line2d_56">
    <defs>
     <path d="M 0 -6 
L -1.347084 -1.854102 
L -5.706339 -1.854102 
L -2.179628 0.708204 
L -3.526712 4.854102 
L -0 2.291796 
L 3.526712 4.854102 
L 2.179628 0.708204 
L 5.706339 -1.854102 
L 1.347084 -1.854102 
z
" id="mfc8810983b" style="stroke:#ff7500;stroke-linejoin:bevel;stroke-width:1.5;"/>
    </defs>
    <g>
     <use style="fill-opacity:0;stroke:#ff7500;stroke-linejoin:bevel;stroke-width:1.5;" x="93.422441" xlink:href="#mfc8810983b" y="286.83022"/>
     <use style="fill-opacity:0;stroke:#ff7500;stroke-linejoin:bevel;stroke-width:1.5;" x="145.418169" xlink:href="#mfc8810983b" y="271.556324"/>
     <use style="fill-opacity:0;stroke:#ff7500;stroke-linejoin:bevel;stroke-width:1.5;" x="232.073015" xlink:href="#mfc8810983b" y="252.595625"/>
     <use style="fill-opacity:0;stroke:#ff7500;stroke-linejoin:bevel;stroke-width:1.5;" x="276.803099" xlink:href="#mfc8810983b" y="229.421437"/>
     <use style="fill-opacity:0;stroke:#ff7500;stroke-linejoin:bevel;stroke-width:1.5;" x="295.672389" xlink:href="#mfc8810983b" y="225.207949"/>
     <use style="fill-opacity:0;stroke:#ff7500;stroke-linejoin:bevel;stroke-width:1.5;" x="338.688" xlink:href="#mfc8810983b" y="225.207949"/>
    </g>
   </g>
   <g id="line2d_57">
    <path style="fill:none;stroke:#ff7500;stroke-linecap:square;stroke-width:1.5;"/>
    <g/>
   </g>
   <g id="line2d_58">
    <path clip-path="url(#p5be5a13a7e)" d="M 230.338976 253.648997 
" style="fill:none;stroke:#ff7500;stroke-linecap:square;stroke-width:1.5;"/>
    <defs>
     <path d="M -12 12 
L 12 -12 
M -12 -12 
L 12 12 
" id="m3fabeb0456" style="stroke:#ff7500;"/>
    </defs>
    <g clip-path="url(#p5be5a13a7e)">
     <use style="fill:#ff7500;stroke:#ff7500;" x="230.338976" xlink:href="#m3fabeb0456" y="253.648997"/>
    </g>
   </g>
   <g id="line2d_59">
    <path d="M 338.688 230.47481 
L 369.60768 293.571802 
" style="fill:none;stroke:#000080;stroke-linecap:square;stroke-width:1.5;"/>
    <g>
     <use style="fill-opacity:0;stroke:#000080;stroke-width:1.5;" x="338.688" xlink:href="#mb28e2bd240" y="230.47481"/>
     <use style="fill-opacity:0;stroke:#000080;stroke-width:1.5;" x="369.60768" xlink:href="#mb28e2bd240" y="293.571802"/>
    </g>
   </g>
   <g id="line2d_60">
    <path d="M 338.688 230.47481 
L 369.60768 241.998701 
" style="fill:none;stroke:#ff0000;stroke-linecap:square;stroke-width:1.5;"/>
    <g>
     <use style="fill-opacity:0;stroke:#ff0000;stroke-linejoin:miter;stroke-width:1.5;" x="338.688" xlink:href="#m98f1d17206" y="230.47481"/>
     <use style="fill-opacity:0;stroke:#ff0000;stroke-linejoin:miter;stroke-width:1.5;" x="369.60768" xlink:href="#m98f1d17206" y="241.998701"/>
    </g>
   </g>
   <g id="line2d_61">
    <path d="M 338.688 225.207949 
L 369.60768 190.4256 
" style="fill:none;stroke:#000080;stroke-linecap:square;stroke-width:1.5;"/>
    <g>
     <use style="fill-opacity:0;stroke:#000080;stroke-width:1.5;" x="338.688" xlink:href="#mb28e2bd240" y="225.207949"/>
     <use style="fill-opacity:0;stroke:#000080;stroke-width:1.5;" x="369.60768" xlink:href="#mb28e2bd240" y="190.4256"/>
    </g>
   </g>
   <g id="line2d_62">
    <path d="M 338.688 225.207949 
L 369.60768 138.852499 
" style="fill:none;stroke:#ff7500;stroke-linecap:square;stroke-width:1.5;"/>
    <g>
     <use style="fill-opacity:0;stroke:#ff7500;stroke-linejoin:bevel;stroke-width:1.5;" x="338.688" xlink:href="#mfc8810983b" y="225.207949"/>
     <use style="fill-opacity:0;stroke:#ff7500;stroke-linejoin:bevel;stroke-width:1.5;" x="369.60768" xlink:href="#mfc8810983b" y="138.852499"/>
    </g>
   </g>
   <g id="line2d_63">
    <path d="M 338.688 225.207949 
L 369.60768 87.279398 
" style="fill:none;stroke:#ff00ff;stroke-linecap:square;stroke-width:1.5;"/>
    <g>
     <use style="fill-opacity:0;stroke:#ff00ff;stroke-linejoin:miter;stroke-width:1.5;" x="338.688" xlink:href="#m4eacb3f4a9" y="225.207949"/>
     <use style="fill-opacity:0;stroke:#ff00ff;stroke-linejoin:miter;stroke-width:1.5;" x="369.60768" xlink:href="#m4eacb3f4a9" y="87.279398"/>
    </g>
   </g>
   <g id="line2d_64">
    <path d="M 338.688 298.944 
L 338.688 30.334099 
" style="fill:none;stroke:#000000;stroke-linecap:square;stroke-width:1.5;"/>
   </g>
   <g id="patch_3">
    <path d="M 57.6 298.944 
L 57.6 27.648 
" style="fill:none;stroke:#000000;stroke-linecap:square;stroke-linejoin:miter;stroke-width:0.8;"/>
   </g>
   <g id="patch_4">
    <path d="M 338.688 298.944 
L 338.688 27.648 
" style="fill:none;stroke:#000000;stroke-linecap:square;stroke-linejoin:miter;stroke-width:0.8;"/>
   </g>
   <g id="patch_5">
    <path d="M 57.6 298.944 
L 338.688 298.944 
" style="fill:none;stroke:#000000;stroke-linecap:square;stroke-linejoin:miter;stroke-width:0.8;"/>
   </g>
   <g id="patch_6">
    <path d="M 57.6 27.648 
L 338.688 27.648 
" style="fill:none;stroke:#000000;stroke-linecap:square;stroke-linejoin:miter;stroke-width:0.8;"/>
   </g>
   <g id="text_13">
    <!-- 100-2e4 -->
    <g transform="translate(375.22944 298.262739)scale(0.17 -0.17)">
     <use xlink:href="#DejaVuSans-49"/>
     <use x="63.623047" xlink:href="#DejaVuSans-48"/>
     <use x="127.246094" xlink:href="#DejaVuSans-48"/>
     <use x="190.869141" xlink:href="#DejaVuSans-45"/>
     <use x="226.953125" xlink:href="#DejaVuSans-50"/>
     <use x="290.576172" xlink:href="#DejaVuSans-101"/>
     <use x="352.099609" xlink:href="#DejaVuSans-52"/>
    </g>
   </g>
   <g id="text_14">
    <!-- 050s-2e4 -->
    <defs>
     <path d="M 10.796875 72.90625 
L 49.515625 72.90625 
L 49.515625 64.59375 
L 19.828125 64.59375 
L 19.828125 46.734375 
Q 21.96875 47.46875 24.109375 47.828125 
Q 26.265625 48.1875 28.421875 48.1875 
Q 40.625 48.1875 47.75 41.5 
Q 54.890625 34.8125 54.890625 23.390625 
Q 54.890625 11.625 47.5625 5.09375 
Q 40.234375 -1.421875 26.90625 -1.421875 
Q 22.3125 -1.421875 17.546875 -0.640625 
Q 12.796875 0.140625 7.71875 1.703125 
L 7.71875 11.625 
Q 12.109375 9.234375 16.796875 8.0625 
Q 21.484375 6.890625 26.703125 6.890625 
Q 35.15625 6.890625 40.078125 11.328125 
Q 45.015625 15.765625 45.015625 23.390625 
Q 45.015625 31 40.078125 35.4375 
Q 35.15625 39.890625 26.703125 39.890625 
Q 22.75 39.890625 18.8125 39.015625 
Q 14.890625 38.140625 10.796875 36.28125 
z
" id="DejaVuSans-53"/>
    </defs>
    <g transform="translate(375.22944 246.689638)scale(0.17 -0.17)">
     <use xlink:href="#DejaVuSans-48"/>
     <use x="63.623047" xlink:href="#DejaVuSans-53"/>
     <use x="127.246094" xlink:href="#DejaVuSans-48"/>
     <use x="190.869141" xlink:href="#DejaVuSans-115"/>
     <use x="242.96875" xlink:href="#DejaVuSans-45"/>
     <use x="279.052734" xlink:href="#DejaVuSans-50"/>
     <use x="342.675781" xlink:href="#DejaVuSans-101"/>
     <use x="404.199219" xlink:href="#DejaVuSans-52"/>
    </g>
   </g>
   <g id="text_15">
    <!-- 100-1e5 -->
    <g transform="translate(375.22944 195.116537)scale(0.17 -0.17)">
     <use xlink:href="#DejaVuSans-49"/>
     <use x="63.623047" xlink:href="#DejaVuSans-48"/>
     <use x="127.246094" xlink:href="#DejaVuSans-48"/>
     <use x="190.869141" xlink:href="#DejaVuSans-45"/>
     <use x="226.953125" xlink:href="#DejaVuSans-49"/>
     <use x="290.576172" xlink:href="#DejaVuSans-101"/>
     <use x="352.099609" xlink:href="#DejaVuSans-53"/>
    </g>
   </g>
   <g id="text_16">
    <!-- 075s-2e4 -->
    <defs>
     <path d="M 8.203125 72.90625 
L 55.078125 72.90625 
L 55.078125 68.703125 
L 28.609375 0 
L 18.3125 0 
L 43.21875 64.59375 
L 8.203125 64.59375 
z
" id="DejaVuSans-55"/>
    </defs>
    <g transform="translate(375.22944 143.543437)scale(0.17 -0.17)">
     <use xlink:href="#DejaVuSans-48"/>
     <use x="63.623047" xlink:href="#DejaVuSans-55"/>
     <use x="127.246094" xlink:href="#DejaVuSans-53"/>
     <use x="190.869141" xlink:href="#DejaVuSans-115"/>
     <use x="242.96875" xlink:href="#DejaVuSans-45"/>
     <use x="279.052734" xlink:href="#DejaVuSans-50"/>
     <use x="342.675781" xlink:href="#DejaVuSans-101"/>
     <use x="404.199219" xlink:href="#DejaVuSans-52"/>
    </g>
   </g>
   <g id="text_17">
    <!-- 025s-2e4 -->
    <g transform="translate(375.22944 91.970336)scale(0.17 -0.17)">
     <use xlink:href="#DejaVuSans-48"/>
     <use x="63.623047" xlink:href="#DejaVuSans-50"/>
     <use x="127.246094" xlink:href="#DejaVuSans-53"/>
     <use x="190.869141" xlink:href="#DejaVuSans-115"/>
     <use x="242.96875" xlink:href="#DejaVuSans-45"/>
     <use x="279.052734" xlink:href="#DejaVuSans-50"/>
     <use x="342.675781" xlink:href="#DejaVuSans-101"/>
     <use x="404.199219" xlink:href="#DejaVuSans-52"/>
    </g>
   </g>
   <g id="text_18">
    <!-- best 2009 -->
    <defs>
     <path d="M 48.6875 27.296875 
Q 48.6875 37.203125 44.609375 42.84375 
Q 40.53125 48.484375 33.40625 48.484375 
Q 26.265625 48.484375 22.1875 42.84375 
Q 18.109375 37.203125 18.109375 27.296875 
Q 18.109375 17.390625 22.1875 11.75 
Q 26.265625 6.109375 33.40625 6.109375 
Q 40.53125 6.109375 44.609375 11.75 
Q 48.6875 17.390625 48.6875 27.296875 
z
M 18.109375 46.390625 
Q 20.953125 51.265625 25.265625 53.625 
Q 29.59375 56 35.59375 56 
Q 45.5625 56 51.78125 48.09375 
Q 58.015625 40.1875 58.015625 27.296875 
Q 58.015625 14.40625 51.78125 6.484375 
Q 45.5625 -1.421875 35.59375 -1.421875 
Q 29.59375 -1.421875 25.265625 0.953125 
Q 20.953125 3.328125 18.109375 8.203125 
L 18.109375 0 
L 9.078125 0 
L 9.078125 75.984375 
L 18.109375 75.984375 
z
" id="DejaVuSans-98"/>
     <path d="M 10.984375 1.515625 
L 10.984375 10.5 
Q 14.703125 8.734375 18.5 7.8125 
Q 22.3125 6.890625 25.984375 6.890625 
Q 35.75 6.890625 40.890625 13.453125 
Q 46.046875 20.015625 46.78125 33.40625 
Q 43.953125 29.203125 39.59375 26.953125 
Q 35.25 24.703125 29.984375 24.703125 
Q 19.046875 24.703125 12.671875 31.3125 
Q 6.296875 37.9375 6.296875 49.421875 
Q 6.296875 60.640625 12.9375 67.421875 
Q 19.578125 74.21875 30.609375 74.21875 
Q 43.265625 74.21875 49.921875 64.515625 
Q 56.59375 54.828125 56.59375 36.375 
Q 56.59375 19.140625 48.40625 8.859375 
Q 40.234375 -1.421875 26.421875 -1.421875 
Q 22.703125 -1.421875 18.890625 -0.6875 
Q 15.09375 0.046875 10.984375 1.515625 
z
M 30.609375 32.421875 
Q 37.25 32.421875 41.125 36.953125 
Q 45.015625 41.5 45.015625 49.421875 
Q 45.015625 57.28125 41.125 61.84375 
Q 37.25 66.40625 30.609375 66.40625 
Q 23.96875 66.40625 20.09375 61.84375 
Q 16.21875 57.28125 16.21875 49.421875 
Q 16.21875 41.5 20.09375 36.953125 
Q 23.96875 32.421875 30.609375 32.421875 
z
" id="DejaVuSans-57"/>
    </defs>
    <g transform="translate(375.22944 40.397235)scale(0.17 -0.17)">
     <use xlink:href="#DejaVuSans-98"/>
     <use x="63.476562" xlink:href="#DejaVuSans-101"/>
     <use x="125" xlink:href="#DejaVuSans-115"/>
     <use x="177.099609" xlink:href="#DejaVuSans-116"/>
     <use x="216.308594" xlink:href="#DejaVuSans-32"/>
     <use x="248.095703" xlink:href="#DejaVuSans-50"/>
     <use x="311.71875" xlink:href="#DejaVuSans-48"/>
     <use x="375.341797" xlink:href="#DejaVuSans-48"/>
     <use x="438.964844" xlink:href="#DejaVuSans-57"/>
    </g>
   </g>
   <g id="text_19">
    <!-- bbob f24, 5-D -->
    <defs>
     <path d="M 19.671875 64.796875 
L 19.671875 8.109375 
L 31.59375 8.109375 
Q 46.6875 8.109375 53.6875 14.9375 
Q 60.6875 21.78125 60.6875 36.53125 
Q 60.6875 51.171875 53.6875 57.984375 
Q 46.6875 64.796875 31.59375 64.796875 
z
M 9.8125 72.90625 
L 30.078125 72.90625 
Q 51.265625 72.90625 61.171875 64.09375 
Q 71.09375 55.28125 71.09375 36.53125 
Q 71.09375 17.671875 61.125 8.828125 
Q 51.171875 0 30.078125 0 
L 9.8125 0 
z
" id="DejaVuSans-68"/>
    </defs>
    <g transform="translate(60.41088 38.111366)scale(0.102 -0.102)">
     <use xlink:href="#DejaVuSans-98"/>
     <use x="63.476562" xlink:href="#DejaVuSans-98"/>
     <use x="126.953125" xlink:href="#DejaVuSans-111"/>
     <use x="188.134766" xlink:href="#DejaVuSans-98"/>
     <use x="251.611328" xlink:href="#DejaVuSans-32"/>
     <use x="283.398438" xlink:href="#DejaVuSans-102"/>
     <use x="318.603516" xlink:href="#DejaVuSans-50"/>
     <use x="382.226562" xlink:href="#DejaVuSans-52"/>
     <use x="445.849609" xlink:href="#DejaVuSans-44"/>
     <use x="477.636719" xlink:href="#DejaVuSans-32"/>
     <use x="509.423828" xlink:href="#DejaVuSans-53"/>
     <use x="573.046875" xlink:href="#DejaVuSans-45"/>
     <use x="609.130859" xlink:href="#DejaVuSans-68"/>
    </g>
    <!-- 51 targets: 100..1e-08 -->
    <defs>
     <path d="M 11.71875 12.40625 
L 22.015625 12.40625 
L 22.015625 0 
L 11.71875 0 
z
M 11.71875 51.703125 
L 22.015625 51.703125 
L 22.015625 39.3125 
L 11.71875 39.3125 
z
" id="DejaVuSans-58"/>
    </defs>
    <g transform="translate(60.41088 49.533135)scale(0.102 -0.102)">
     <use xlink:href="#DejaVuSans-53"/>
     <use x="63.623047" xlink:href="#DejaVuSans-49"/>
     <use x="127.246094" xlink:href="#DejaVuSans-32"/>
     <use x="159.033203" xlink:href="#DejaVuSans-116"/>
     <use x="198.242188" xlink:href="#DejaVuSans-97"/>
     <use x="259.521484" xlink:href="#DejaVuSans-114"/>
     <use x="300.619141" xlink:href="#DejaVuSans-103"/>
     <use x="364.095703" xlink:href="#DejaVuSans-101"/>
     <use x="425.619141" xlink:href="#DejaVuSans-116"/>
     <use x="464.828125" xlink:href="#DejaVuSans-115"/>
     <use x="516.927734" xlink:href="#DejaVuSans-58"/>
     <use x="550.619141" xlink:href="#DejaVuSans-32"/>
     <use x="582.40625" xlink:href="#DejaVuSans-49"/>
     <use x="646.029297" xlink:href="#DejaVuSans-48"/>
     <use x="709.652344" xlink:href="#DejaVuSans-48"/>
     <use x="773.275391" xlink:href="#DejaVuSans-46"/>
     <use x="805.0625" xlink:href="#DejaVuSans-46"/>
     <use x="836.849609" xlink:href="#DejaVuSans-49"/>
     <use x="900.472656" xlink:href="#DejaVuSans-101"/>
     <use x="961.996094" xlink:href="#DejaVuSans-45"/>
     <use x="998.080078" xlink:href="#DejaVuSans-48"/>
     <use x="1061.703125" xlink:href="#DejaVuSans-56"/>
    </g>
    <!-- 15 instances -->
    <g transform="translate(60.41088 60.954904)scale(0.102 -0.102)">
     <use xlink:href="#DejaVuSans-49"/>
     <use x="63.623047" xlink:href="#DejaVuSans-53"/>
     <use x="127.246094" xlink:href="#DejaVuSans-32"/>
     <use x="159.033203" xlink:href="#DejaVuSans-105"/>
     <use x="186.816406" xlink:href="#DejaVuSans-110"/>
     <use x="250.195312" xlink:href="#DejaVuSans-115"/>
     <use x="302.294922" xlink:href="#DejaVuSans-116"/>
     <use x="341.503906" xlink:href="#DejaVuSans-97"/>
     <use x="402.783203" xlink:href="#DejaVuSans-110"/>
     <use x="466.162109" xlink:href="#DejaVuSans-99"/>
     <use x="521.142578" xlink:href="#DejaVuSans-101"/>
     <use x="582.666016" xlink:href="#DejaVuSans-115"/>
    </g>
   </g>
   <g id="text_20">
    <!-- v2.3.3.18.73 -->
    <defs>
     <path d="M 40.578125 39.3125 
Q 47.65625 37.796875 51.625 33 
Q 55.609375 28.21875 55.609375 21.1875 
Q 55.609375 10.40625 48.1875 4.484375 
Q 40.765625 -1.421875 27.09375 -1.421875 
Q 22.515625 -1.421875 17.65625 -0.515625 
Q 12.796875 0.390625 7.625 2.203125 
L 7.625 11.71875 
Q 11.71875 9.328125 16.59375 8.109375 
Q 21.484375 6.890625 26.8125 6.890625 
Q 36.078125 6.890625 40.9375 10.546875 
Q 45.796875 14.203125 45.796875 21.1875 
Q 45.796875 27.640625 41.28125 31.265625 
Q 36.765625 34.90625 28.71875 34.90625 
L 20.21875 34.90625 
L 20.21875 43.015625 
L 29.109375 43.015625 
Q 36.375 43.015625 40.234375 45.921875 
Q 44.09375 48.828125 44.09375 54.296875 
Q 44.09375 59.90625 40.109375 62.90625 
Q 36.140625 65.921875 28.71875 65.921875 
Q 24.65625 65.921875 20.015625 65.03125 
Q 15.375 64.15625 9.8125 62.3125 
L 9.8125 71.09375 
Q 15.4375 72.65625 20.34375 73.4375 
Q 25.25 74.21875 29.59375 74.21875 
Q 40.828125 74.21875 47.359375 69.109375 
Q 53.90625 64.015625 53.90625 55.328125 
Q 53.90625 49.265625 50.4375 45.09375 
Q 46.96875 40.921875 40.578125 39.3125 
z
" id="DejaVuSans-51"/>
    </defs>
    <g style="fill:#808080;" transform="translate(166.559625 294.151352)scale(0.1 -0.1)">
     <use xlink:href="#DejaVuSans-118"/>
     <use x="59.179688" xlink:href="#DejaVuSans-50"/>
     <use x="122.802734" xlink:href="#DejaVuSans-46"/>
     <use x="154.589844" xlink:href="#DejaVuSans-51"/>
     <use x="218.212891" xlink:href="#DejaVuSans-46"/>
     <use x="250" xlink:href="#DejaVuSans-51"/>
     <use x="313.623047" xlink:href="#DejaVuSans-46"/>
     <use x="345.410156" xlink:href="#DejaVuSans-49"/>
     <use x="409.033203" xlink:href="#DejaVuSans-56"/>
     <use x="472.65625" xlink:href="#DejaVuSans-46"/>
     <use x="504.443359" xlink:href="#DejaVuSans-55"/>
     <use x="568.066406" xlink:href="#DejaVuSans-51"/>
    </g>
   </g>
   <g id="text_21">
    <!-- 24 Lunacek bi-Rastrigin -->
    <defs>
     <path d="M 9.8125 72.90625 
L 19.671875 72.90625 
L 19.671875 8.296875 
L 55.171875 8.296875 
L 55.171875 0 
L 9.8125 0 
z
" id="DejaVuSans-76"/>
     <path d="M 9.078125 75.984375 
L 18.109375 75.984375 
L 18.109375 31.109375 
L 44.921875 54.6875 
L 56.390625 54.6875 
L 27.390625 29.109375 
L 57.625 0 
L 45.90625 0 
L 18.109375 26.703125 
L 18.109375 0 
L 9.078125 0 
z
" id="DejaVuSans-107"/>
     <path d="M 44.390625 34.1875 
Q 47.5625 33.109375 50.5625 29.59375 
Q 53.5625 26.078125 56.59375 19.921875 
L 66.609375 0 
L 56 0 
L 46.6875 18.703125 
Q 43.0625 26.03125 39.671875 28.421875 
Q 36.28125 30.8125 30.421875 30.8125 
L 19.671875 30.8125 
L 19.671875 0 
L 9.8125 0 
L 9.8125 72.90625 
L 32.078125 72.90625 
Q 44.578125 72.90625 50.734375 67.671875 
Q 56.890625 62.453125 56.890625 51.90625 
Q 56.890625 45.015625 53.6875 40.46875 
Q 50.484375 35.9375 44.390625 34.1875 
z
M 19.671875 64.796875 
L 19.671875 38.921875 
L 32.078125 38.921875 
Q 39.203125 38.921875 42.84375 42.21875 
Q 46.484375 45.515625 46.484375 51.90625 
Q 46.484375 58.296875 42.84375 61.546875 
Q 39.203125 64.796875 32.078125 64.796875 
z
" id="DejaVuSans-82"/>
    </defs>
    <g transform="translate(79.9565 21.648)scale(0.2 -0.2)">
     <use xlink:href="#DejaVuSans-50"/>
     <use x="63.623047" xlink:href="#DejaVuSans-52"/>
     <use x="127.246094" xlink:href="#DejaVuSans-32"/>
     <use x="159.033203" xlink:href="#DejaVuSans-76"/>
     <use x="214.730469" xlink:href="#DejaVuSans-117"/>
     <use x="278.109375" xlink:href="#DejaVuSans-110"/>
     <use x="341.488281" xlink:href="#DejaVuSans-97"/>
     <use x="402.767578" xlink:href="#DejaVuSans-99"/>
     <use x="457.748047" xlink:href="#DejaVuSans-101"/>
     <use x="519.271484" xlink:href="#DejaVuSans-107"/>
     <use x="577.181641" xlink:href="#DejaVuSans-32"/>
     <use x="608.96875" xlink:href="#DejaVuSans-98"/>
     <use x="672.445312" xlink:href="#DejaVuSans-105"/>
     <use x="700.228516" xlink:href="#DejaVuSans-45"/>
     <use x="736.3125" xlink:href="#DejaVuSans-82"/>
     <use x="805.763672" xlink:href="#DejaVuSans-97"/>
     <use x="867.042969" xlink:href="#DejaVuSans-115"/>
     <use x="919.142578" xlink:href="#DejaVuSans-116"/>
     <use x="958.351562" xlink:href="#DejaVuSans-114"/>
     <use x="999.464844" xlink:href="#DejaVuSans-105"/>
     <use x="1027.248047" xlink:href="#DejaVuSans-103"/>
     <use x="1090.724609" xlink:href="#DejaVuSans-105"/>
     <use x="1118.507812" xlink:href="#DejaVuSans-110"/>
    </g>
   </g>
  </g>
 </g>
 <defs>
  <clipPath id="p5be5a13a7e">
   <rect height="271.296" width="281.088" x="57.6" y="27.648"/>
  </clipPath>
 </defs>
</svg>
