<?xml version="1.0" encoding="utf-8" standalone="no"?>
<!DOCTYPE svg PUBLIC "-//W3C//DTD SVG 1.1//EN"
  "http://www.w3.org/Graphics/SVG/1.1/DTD/svg11.dtd">
<!-- Created with matplotlib (https://matplotlib.org/) -->
<svg height="345.6pt" version="1.1" viewBox="0 0 460.8 345.6" width="460.8pt" xmlns="http://www.w3.org/2000/svg" xmlns:xlink="http://www.w3.org/1999/xlink">
 <defs>
  <style type="text/css">
*{stroke-linecap:butt;stroke-linejoin:round;}
  </style>
 </defs>
 <g id="figure_1">
  <g id="patch_1">
   <path d="M 0 345.6 
L 460.8 345.6 
L 460.8 0 
L 0 0 
z
" style="fill:#ffffff;"/>
  </g>
  <g id="axes_1">
   <g id="patch_2">
    <path d="M 57.6 298.944 
L 338.688 298.944 
L 338.688 27.648 
L 57.6 27.648 
z
" style="fill:#ffffff;"/>
   </g>
   <g id="line2d_1">
    <path d="M 104.826449 298.944 
L 104.826449 293.677139 
L 105.51043 293.677139 
L 105.51043 288.410278 
L 106.382575 288.410278 
L 106.382575 283.143418 
L 106.593963 283.143418 
L 106.593963 267.342835 
L 107.009204 267.342835 
L 107.009204 262.075974 
L 107.414787 262.075974 
L 107.414787 241.008531 
L 107.614095 241.008531 
L 107.614095 209.407366 
L 107.811151 209.407366 
L 107.811151 177.806202 
L 108.006005 177.806202 
L 108.006005 151.471897 
L 108.198707 151.471897 
L 108.198707 119.870733 
L 108.389302 119.870733 
L 108.389302 104.07015 
L 108.577836 104.07015 
L 108.577836 67.202125 
L 108.764355 67.202125 
L 108.764355 46.134681 
L 108.948899 46.134681 
L 108.948899 30.334099 
L 338.688 30.334099 
" style="fill:none;stroke:#f5deb3;stroke-linecap:square;stroke-width:4;"/>
   </g>
   <g id="line2d_2">
    <defs>
     <path d="M -0 7.778175 
L 7.778175 0 
L 0 -7.778175 
L -7.778175 -0 
z
" id="m1a7f46a7ad" style="stroke:#f5deb3;stroke-linejoin:miter;stroke-width:1.5;"/>
    </defs>
    <g>
     <use style="fill:#f5deb3;stroke:#f5deb3;stroke-linejoin:miter;stroke-width:1.5;" x="108.577836" xlink:href="#m1a7f46a7ad" y="67.202125"/>
     <use style="fill:#f5deb3;stroke:#f5deb3;stroke-linejoin:miter;stroke-width:1.5;" x="108.948899" xlink:href="#m1a7f46a7ad" y="46.134681"/>
     <use style="fill:#f5deb3;stroke:#f5deb3;stroke-linejoin:miter;stroke-width:1.5;" x="108.948899" xlink:href="#m1a7f46a7ad" y="30.334099"/>
     <use style="fill:#f5deb3;stroke:#f5deb3;stroke-linejoin:miter;stroke-width:1.5;" x="108.948899" xlink:href="#m1a7f46a7ad" y="30.334099"/>
     <use style="fill:#f5deb3;stroke:#f5deb3;stroke-linejoin:miter;stroke-width:1.5;" x="338.688" xlink:href="#m1a7f46a7ad" y="30.334099"/>
    </g>
   </g>
   <g id="line2d_3">
    <path style="fill:none;stroke:#f5deb3;stroke-linecap:square;stroke-width:4;"/>
    <g/>
   </g>
   <g id="line2d_4">
    <path d="M 338.688 30.334099 
L 369.60768 35.706297 
" style="fill:none;stroke:#f5deb3;stroke-linecap:square;stroke-width:4;"/>
    <g>
     <use style="fill:#f5deb3;stroke:#f5deb3;stroke-linejoin:miter;stroke-width:1.5;" x="338.688" xlink:href="#m1a7f46a7ad" y="30.334099"/>
     <use style="fill:#f5deb3;stroke:#f5deb3;stroke-linejoin:miter;stroke-width:1.5;" x="369.60768" xlink:href="#m1a7f46a7ad" y="35.706297"/>
    </g>
   </g>
   <g id="matplotlib.axis_1">
    <g id="xtick_1">
     <g id="line2d_5">
      <path clip-path="url(#p037c453433)" d="M 57.6 298.944 
L 57.6 27.648 
" style="fill:none;stroke:#b0b0b0;stroke-linecap:square;stroke-width:0.8;"/>
     </g>
     <g id="line2d_6">
      <defs>
       <path d="M 0 0 
L 0 3.5 
" id="m32cb281a12" style="stroke:#000000;stroke-width:0.8;"/>
      </defs>
      <g>
       <use style="stroke:#000000;stroke-width:0.8;" x="57.6" xlink:href="#m32cb281a12" y="298.944"/>
      </g>
     </g>
     <g id="text_1">
      <!-- 0 -->
      <defs>
       <path d="M 31.78125 66.40625 
Q 24.171875 66.40625 20.328125 58.90625 
Q 16.5 51.421875 16.5 36.375 
Q 16.5 21.390625 20.328125 13.890625 
Q 24.171875 6.390625 31.78125 6.390625 
Q 39.453125 6.390625 43.28125 13.890625 
Q 47.125 21.390625 47.125 36.375 
Q 47.125 51.421875 43.28125 58.90625 
Q 39.453125 66.40625 31.78125 66.40625 
z
M 31.78125 74.21875 
Q 44.046875 74.21875 50.515625 64.515625 
Q 56.984375 54.828125 56.984375 36.375 
Q 56.984375 17.96875 50.515625 8.265625 
Q 44.046875 -1.421875 31.78125 -1.421875 
Q 19.53125 -1.421875 13.0625 8.265625 
Q 6.59375 17.96875 6.59375 36.375 
Q 6.59375 54.828125 13.0625 64.515625 
Q 19.53125 74.21875 31.78125 74.21875 
z
" id="DejaVuSans-48"/>
      </defs>
      <g transform="translate(51.2375 321.140875)scale(0.2 -0.2)">
       <use xlink:href="#DejaVuSans-48"/>
      </g>
     </g>
    </g>
    <g id="xtick_2">
     <g id="line2d_7">
      <path clip-path="url(#p037c453433)" d="M 137.910857 298.944 
L 137.910857 27.648 
" style="fill:none;stroke:#b0b0b0;stroke-linecap:square;stroke-width:0.8;"/>
     </g>
     <g id="line2d_8">
      <g>
       <use style="stroke:#000000;stroke-width:0.8;" x="137.910857" xlink:href="#m32cb281a12" y="298.944"/>
      </g>
     </g>
     <g id="text_2">
      <!-- 2 -->
      <defs>
       <path d="M 19.1875 8.296875 
L 53.609375 8.296875 
L 53.609375 0 
L 7.328125 0 
L 7.328125 8.296875 
Q 12.9375 14.109375 22.625 23.890625 
Q 32.328125 33.6875 34.8125 36.53125 
Q 39.546875 41.84375 41.421875 45.53125 
Q 43.3125 49.21875 43.3125 52.78125 
Q 43.3125 58.59375 39.234375 62.25 
Q 35.15625 65.921875 28.609375 65.921875 
Q 23.96875 65.921875 18.8125 64.3125 
Q 13.671875 62.703125 7.8125 59.421875 
L 7.8125 69.390625 
Q 13.765625 71.78125 18.9375 73 
Q 24.125 74.21875 28.421875 74.21875 
Q 39.75 74.21875 46.484375 68.546875 
Q 53.21875 62.890625 53.21875 53.421875 
Q 53.21875 48.921875 51.53125 44.890625 
Q 49.859375 40.875 45.40625 35.40625 
Q 44.1875 33.984375 37.640625 27.21875 
Q 31.109375 20.453125 19.1875 8.296875 
z
" id="DejaVuSans-50"/>
      </defs>
      <g transform="translate(131.548357 321.140875)scale(0.2 -0.2)">
       <use xlink:href="#DejaVuSans-50"/>
      </g>
     </g>
    </g>
    <g id="xtick_3">
     <g id="line2d_9">
      <path clip-path="url(#p037c453433)" d="M 218.221714 298.944 
L 218.221714 27.648 
" style="fill:none;stroke:#b0b0b0;stroke-linecap:square;stroke-width:0.8;"/>
     </g>
     <g id="line2d_10">
      <g>
       <use style="stroke:#000000;stroke-width:0.8;" x="218.221714" xlink:href="#m32cb281a12" y="298.944"/>
      </g>
     </g>
     <g id="text_3">
      <!-- 4 -->
      <defs>
       <path d="M 37.796875 64.3125 
L 12.890625 25.390625 
L 37.796875 25.390625 
z
M 35.203125 72.90625 
L 47.609375 72.90625 
L 47.609375 25.390625 
L 58.015625 25.390625 
L 58.015625 17.1875 
L 47.609375 17.1875 
L 47.609375 0 
L 37.796875 0 
L 37.796875 17.1875 
L 4.890625 17.1875 
L 4.890625 26.703125 
z
" id="DejaVuSans-52"/>
      </defs>
      <g transform="translate(211.859214 321.140875)scale(0.2 -0.2)">
       <use xlink:href="#DejaVuSans-52"/>
      </g>
     </g>
    </g>
    <g id="xtick_4">
     <g id="line2d_11">
      <path clip-path="url(#p037c453433)" d="M 298.532571 298.944 
L 298.532571 27.648 
" style="fill:none;stroke:#b0b0b0;stroke-linecap:square;stroke-width:0.8;"/>
     </g>
     <g id="line2d_12">
      <g>
       <use style="stroke:#000000;stroke-width:0.8;" x="298.532571" xlink:href="#m32cb281a12" y="298.944"/>
      </g>
     </g>
     <g id="text_4">
      <!-- 6 -->
      <defs>
       <path d="M 33.015625 40.375 
Q 26.375 40.375 22.484375 35.828125 
Q 18.609375 31.296875 18.609375 23.390625 
Q 18.609375 15.53125 22.484375 10.953125 
Q 26.375 6.390625 33.015625 6.390625 
Q 39.65625 6.390625 43.53125 10.953125 
Q 47.40625 15.53125 47.40625 23.390625 
Q 47.40625 31.296875 43.53125 35.828125 
Q 39.65625 40.375 33.015625 40.375 
z
M 52.59375 71.296875 
L 52.59375 62.3125 
Q 48.875 64.0625 45.09375 64.984375 
Q 41.3125 65.921875 37.59375 65.921875 
Q 27.828125 65.921875 22.671875 59.328125 
Q 17.53125 52.734375 16.796875 39.40625 
Q 19.671875 43.65625 24.015625 45.921875 
Q 28.375 48.1875 33.59375 48.1875 
Q 44.578125 48.1875 50.953125 41.515625 
Q 57.328125 34.859375 57.328125 23.390625 
Q 57.328125 12.15625 50.6875 5.359375 
Q 44.046875 -1.421875 33.015625 -1.421875 
Q 20.359375 -1.421875 13.671875 8.265625 
Q 6.984375 17.96875 6.984375 36.375 
Q 6.984375 53.65625 15.1875 63.9375 
Q 23.390625 74.21875 37.203125 74.21875 
Q 40.921875 74.21875 44.703125 73.484375 
Q 48.484375 72.75 52.59375 71.296875 
z
" id="DejaVuSans-54"/>
      </defs>
      <g transform="translate(292.170071 321.140875)scale(0.2 -0.2)">
       <use xlink:href="#DejaVuSans-54"/>
      </g>
     </g>
    </g>
    <g id="xtick_5">
     <g id="line2d_13">
      <path clip-path="url(#p037c453433)" d="M 97.755429 298.944 
L 97.755429 27.648 
" style="fill:none;stroke:#b0b0b0;stroke-linecap:square;stroke-width:0.8;"/>
     </g>
     <g id="line2d_14">
      <defs>
       <path d="M 0 0 
L 0 2 
" id="m79dd717f92" style="stroke:#000000;stroke-width:0.6;"/>
      </defs>
      <g>
       <use style="stroke:#000000;stroke-width:0.6;" x="97.755429" xlink:href="#m79dd717f92" y="298.944"/>
      </g>
     </g>
    </g>
    <g id="xtick_6">
     <g id="line2d_15">
      <path clip-path="url(#p037c453433)" d="M 178.066286 298.944 
L 178.066286 27.648 
" style="fill:none;stroke:#b0b0b0;stroke-linecap:square;stroke-width:0.8;"/>
     </g>
     <g id="line2d_16">
      <g>
       <use style="stroke:#000000;stroke-width:0.6;" x="178.066286" xlink:href="#m79dd717f92" y="298.944"/>
      </g>
     </g>
    </g>
    <g id="xtick_7">
     <g id="line2d_17">
      <path clip-path="url(#p037c453433)" d="M 258.377143 298.944 
L 258.377143 27.648 
" style="fill:none;stroke:#b0b0b0;stroke-linecap:square;stroke-width:0.8;"/>
     </g>
     <g id="line2d_18">
      <g>
       <use style="stroke:#000000;stroke-width:0.6;" x="258.377143" xlink:href="#m79dd717f92" y="298.944"/>
      </g>
     </g>
    </g>
    <g id="xtick_8">
     <g id="line2d_19">
      <path clip-path="url(#p037c453433)" d="M 338.688 298.944 
L 338.688 27.648 
" style="fill:none;stroke:#b0b0b0;stroke-linecap:square;stroke-width:0.8;"/>
     </g>
     <g id="line2d_20">
      <g>
       <use style="stroke:#000000;stroke-width:0.6;" x="338.688" xlink:href="#m79dd717f92" y="298.944"/>
      </g>
     </g>
    </g>
    <g id="text_5">
     <!-- log10(# f-evals / dimension) -->
     <defs>
      <path d="M 9.421875 75.984375 
L 18.40625 75.984375 
L 18.40625 0 
L 9.421875 0 
z
" id="DejaVuSans-108"/>
      <path d="M 30.609375 48.390625 
Q 23.390625 48.390625 19.1875 42.75 
Q 14.984375 37.109375 14.984375 27.296875 
Q 14.984375 17.484375 19.15625 11.84375 
Q 23.34375 6.203125 30.609375 6.203125 
Q 37.796875 6.203125 41.984375 11.859375 
Q 46.1875 17.53125 46.1875 27.296875 
Q 46.1875 37.015625 41.984375 42.703125 
Q 37.796875 48.390625 30.609375 48.390625 
z
M 30.609375 56 
Q 42.328125 56 49.015625 48.375 
Q 55.71875 40.765625 55.71875 27.296875 
Q 55.71875 13.875 49.015625 6.21875 
Q 42.328125 -1.421875 30.609375 -1.421875 
Q 18.84375 -1.421875 12.171875 6.21875 
Q 5.515625 13.875 5.515625 27.296875 
Q 5.515625 40.765625 12.171875 48.375 
Q 18.84375 56 30.609375 56 
z
" id="DejaVuSans-111"/>
      <path d="M 45.40625 27.984375 
Q 45.40625 37.75 41.375 43.109375 
Q 37.359375 48.484375 30.078125 48.484375 
Q 22.859375 48.484375 18.828125 43.109375 
Q 14.796875 37.75 14.796875 27.984375 
Q 14.796875 18.265625 18.828125 12.890625 
Q 22.859375 7.515625 30.078125 7.515625 
Q 37.359375 7.515625 41.375 12.890625 
Q 45.40625 18.265625 45.40625 27.984375 
z
M 54.390625 6.78125 
Q 54.390625 -7.171875 48.1875 -13.984375 
Q 42 -20.796875 29.203125 -20.796875 
Q 24.46875 -20.796875 20.265625 -20.09375 
Q 16.0625 -19.390625 12.109375 -17.921875 
L 12.109375 -9.1875 
Q 16.0625 -11.328125 19.921875 -12.34375 
Q 23.78125 -13.375 27.78125 -13.375 
Q 36.625 -13.375 41.015625 -8.765625 
Q 45.40625 -4.15625 45.40625 5.171875 
L 45.40625 9.625 
Q 42.625 4.78125 38.28125 2.390625 
Q 33.9375 0 27.875 0 
Q 17.828125 0 11.671875 7.65625 
Q 5.515625 15.328125 5.515625 27.984375 
Q 5.515625 40.671875 11.671875 48.328125 
Q 17.828125 56 27.875 56 
Q 33.9375 56 38.28125 53.609375 
Q 42.625 51.21875 45.40625 46.390625 
L 45.40625 54.6875 
L 54.390625 54.6875 
z
" id="DejaVuSans-103"/>
      <path d="M 12.40625 8.296875 
L 28.515625 8.296875 
L 28.515625 63.921875 
L 10.984375 60.40625 
L 10.984375 69.390625 
L 28.421875 72.90625 
L 38.28125 72.90625 
L 38.28125 8.296875 
L 54.390625 8.296875 
L 54.390625 0 
L 12.40625 0 
z
" id="DejaVuSans-49"/>
      <path d="M 31 75.875 
Q 24.46875 64.65625 21.28125 53.65625 
Q 18.109375 42.671875 18.109375 31.390625 
Q 18.109375 20.125 21.3125 9.0625 
Q 24.515625 -2 31 -13.1875 
L 23.1875 -13.1875 
Q 15.875 -1.703125 12.234375 9.375 
Q 8.59375 20.453125 8.59375 31.390625 
Q 8.59375 42.28125 12.203125 53.3125 
Q 15.828125 64.359375 23.1875 75.875 
z
" id="DejaVuSans-40"/>
      <path d="M 51.125 44 
L 36.921875 44 
L 32.8125 27.6875 
L 47.125 27.6875 
z
M 43.796875 71.78125 
L 38.71875 51.515625 
L 52.984375 51.515625 
L 58.109375 71.78125 
L 65.921875 71.78125 
L 60.890625 51.515625 
L 76.125 51.515625 
L 76.125 44 
L 58.984375 44 
L 54.984375 27.6875 
L 70.515625 27.6875 
L 70.515625 20.21875 
L 53.078125 20.21875 
L 48 0 
L 40.1875 0 
L 45.21875 20.21875 
L 30.90625 20.21875 
L 25.875 0 
L 18.015625 0 
L 23.09375 20.21875 
L 7.71875 20.21875 
L 7.71875 27.6875 
L 24.90625 27.6875 
L 29 44 
L 13.28125 44 
L 13.28125 51.515625 
L 30.90625 51.515625 
L 35.890625 71.78125 
z
" id="DejaVuSans-35"/>
      <path id="DejaVuSans-32"/>
      <path d="M 37.109375 75.984375 
L 37.109375 68.5 
L 28.515625 68.5 
Q 23.6875 68.5 21.796875 66.546875 
Q 19.921875 64.59375 19.921875 59.515625 
L 19.921875 54.6875 
L 34.71875 54.6875 
L 34.71875 47.703125 
L 19.921875 47.703125 
L 19.921875 0 
L 10.890625 0 
L 10.890625 47.703125 
L 2.296875 47.703125 
L 2.296875 54.6875 
L 10.890625 54.6875 
L 10.890625 58.5 
Q 10.890625 67.625 15.140625 71.796875 
Q 19.390625 75.984375 28.609375 75.984375 
z
" id="DejaVuSans-102"/>
      <path d="M 4.890625 31.390625 
L 31.203125 31.390625 
L 31.203125 23.390625 
L 4.890625 23.390625 
z
" id="DejaVuSans-45"/>
      <path d="M 56.203125 29.59375 
L 56.203125 25.203125 
L 14.890625 25.203125 
Q 15.484375 15.921875 20.484375 11.0625 
Q 25.484375 6.203125 34.421875 6.203125 
Q 39.59375 6.203125 44.453125 7.46875 
Q 49.3125 8.734375 54.109375 11.28125 
L 54.109375 2.78125 
Q 49.265625 0.734375 44.1875 -0.34375 
Q 39.109375 -1.421875 33.890625 -1.421875 
Q 20.796875 -1.421875 13.15625 6.1875 
Q 5.515625 13.8125 5.515625 26.8125 
Q 5.515625 40.234375 12.765625 48.109375 
Q 20.015625 56 32.328125 56 
Q 43.359375 56 49.78125 48.890625 
Q 56.203125 41.796875 56.203125 29.59375 
z
M 47.21875 32.234375 
Q 47.125 39.59375 43.09375 43.984375 
Q 39.0625 48.390625 32.421875 48.390625 
Q 24.90625 48.390625 20.390625 44.140625 
Q 15.875 39.890625 15.1875 32.171875 
z
" id="DejaVuSans-101"/>
      <path d="M 2.984375 54.6875 
L 12.5 54.6875 
L 29.59375 8.796875 
L 46.6875 54.6875 
L 56.203125 54.6875 
L 35.6875 0 
L 23.484375 0 
z
" id="DejaVuSans-118"/>
      <path d="M 34.28125 27.484375 
Q 23.390625 27.484375 19.1875 25 
Q 14.984375 22.515625 14.984375 16.5 
Q 14.984375 11.71875 18.140625 8.90625 
Q 21.296875 6.109375 26.703125 6.109375 
Q 34.1875 6.109375 38.703125 11.40625 
Q 43.21875 16.703125 43.21875 25.484375 
L 43.21875 27.484375 
z
M 52.203125 31.203125 
L 52.203125 0 
L 43.21875 0 
L 43.21875 8.296875 
Q 40.140625 3.328125 35.546875 0.953125 
Q 30.953125 -1.421875 24.3125 -1.421875 
Q 15.921875 -1.421875 10.953125 3.296875 
Q 6 8.015625 6 15.921875 
Q 6 25.140625 12.171875 29.828125 
Q 18.359375 34.515625 30.609375 34.515625 
L 43.21875 34.515625 
L 43.21875 35.40625 
Q 43.21875 41.609375 39.140625 45 
Q 35.0625 48.390625 27.6875 48.390625 
Q 23 48.390625 18.546875 47.265625 
Q 14.109375 46.140625 10.015625 43.890625 
L 10.015625 52.203125 
Q 14.9375 54.109375 19.578125 55.046875 
Q 24.21875 56 28.609375 56 
Q 40.484375 56 46.34375 49.84375 
Q 52.203125 43.703125 52.203125 31.203125 
z
" id="DejaVuSans-97"/>
      <path d="M 44.28125 53.078125 
L 44.28125 44.578125 
Q 40.484375 46.53125 36.375 47.5 
Q 32.28125 48.484375 27.875 48.484375 
Q 21.1875 48.484375 17.84375 46.4375 
Q 14.5 44.390625 14.5 40.28125 
Q 14.5 37.15625 16.890625 35.375 
Q 19.28125 33.59375 26.515625 31.984375 
L 29.59375 31.296875 
Q 39.15625 29.25 43.1875 25.515625 
Q 47.21875 21.78125 47.21875 15.09375 
Q 47.21875 7.46875 41.1875 3.015625 
Q 35.15625 -1.421875 24.609375 -1.421875 
Q 20.21875 -1.421875 15.453125 -0.5625 
Q 10.6875 0.296875 5.421875 2 
L 5.421875 11.28125 
Q 10.40625 8.6875 15.234375 7.390625 
Q 20.0625 6.109375 24.8125 6.109375 
Q 31.15625 6.109375 34.5625 8.28125 
Q 37.984375 10.453125 37.984375 14.40625 
Q 37.984375 18.0625 35.515625 20.015625 
Q 33.0625 21.96875 24.703125 23.78125 
L 21.578125 24.515625 
Q 13.234375 26.265625 9.515625 29.90625 
Q 5.8125 33.546875 5.8125 39.890625 
Q 5.8125 47.609375 11.28125 51.796875 
Q 16.75 56 26.8125 56 
Q 31.78125 56 36.171875 55.265625 
Q 40.578125 54.546875 44.28125 53.078125 
z
" id="DejaVuSans-115"/>
      <path d="M 25.390625 72.90625 
L 33.6875 72.90625 
L 8.296875 -9.28125 
L 0 -9.28125 
z
" id="DejaVuSans-47"/>
      <path d="M 45.40625 46.390625 
L 45.40625 75.984375 
L 54.390625 75.984375 
L 54.390625 0 
L 45.40625 0 
L 45.40625 8.203125 
Q 42.578125 3.328125 38.25 0.953125 
Q 33.9375 -1.421875 27.875 -1.421875 
Q 17.96875 -1.421875 11.734375 6.484375 
Q 5.515625 14.40625 5.515625 27.296875 
Q 5.515625 40.1875 11.734375 48.09375 
Q 17.96875 56 27.875 56 
Q 33.9375 56 38.25 53.625 
Q 42.578125 51.265625 45.40625 46.390625 
z
M 14.796875 27.296875 
Q 14.796875 17.390625 18.875 11.75 
Q 22.953125 6.109375 30.078125 6.109375 
Q 37.203125 6.109375 41.296875 11.75 
Q 45.40625 17.390625 45.40625 27.296875 
Q 45.40625 37.203125 41.296875 42.84375 
Q 37.203125 48.484375 30.078125 48.484375 
Q 22.953125 48.484375 18.875 42.84375 
Q 14.796875 37.203125 14.796875 27.296875 
z
" id="DejaVuSans-100"/>
      <path d="M 9.421875 54.6875 
L 18.40625 54.6875 
L 18.40625 0 
L 9.421875 0 
z
M 9.421875 75.984375 
L 18.40625 75.984375 
L 18.40625 64.59375 
L 9.421875 64.59375 
z
" id="DejaVuSans-105"/>
      <path d="M 52 44.1875 
Q 55.375 50.25 60.0625 53.125 
Q 64.75 56 71.09375 56 
Q 79.640625 56 84.28125 50.015625 
Q 88.921875 44.046875 88.921875 33.015625 
L 88.921875 0 
L 79.890625 0 
L 79.890625 32.71875 
Q 79.890625 40.578125 77.09375 44.375 
Q 74.3125 48.1875 68.609375 48.1875 
Q 61.625 48.1875 57.5625 43.546875 
Q 53.515625 38.921875 53.515625 30.90625 
L 53.515625 0 
L 44.484375 0 
L 44.484375 32.71875 
Q 44.484375 40.625 41.703125 44.40625 
Q 38.921875 48.1875 33.109375 48.1875 
Q 26.21875 48.1875 22.15625 43.53125 
Q 18.109375 38.875 18.109375 30.90625 
L 18.109375 0 
L 9.078125 0 
L 9.078125 54.6875 
L 18.109375 54.6875 
L 18.109375 46.1875 
Q 21.1875 51.21875 25.484375 53.609375 
Q 29.78125 56 35.6875 56 
Q 41.65625 56 45.828125 52.96875 
Q 50 49.953125 52 44.1875 
z
" id="DejaVuSans-109"/>
      <path d="M 54.890625 33.015625 
L 54.890625 0 
L 45.90625 0 
L 45.90625 32.71875 
Q 45.90625 40.484375 42.875 44.328125 
Q 39.84375 48.1875 33.796875 48.1875 
Q 26.515625 48.1875 22.3125 43.546875 
Q 18.109375 38.921875 18.109375 30.90625 
L 18.109375 0 
L 9.078125 0 
L 9.078125 54.6875 
L 18.109375 54.6875 
L 18.109375 46.1875 
Q 21.34375 51.125 25.703125 53.5625 
Q 30.078125 56 35.796875 56 
Q 45.21875 56 50.046875 50.171875 
Q 54.890625 44.34375 54.890625 33.015625 
z
" id="DejaVuSans-110"/>
      <path d="M 8.015625 75.875 
L 15.828125 75.875 
Q 23.140625 64.359375 26.78125 53.3125 
Q 30.421875 42.28125 30.421875 31.390625 
Q 30.421875 20.453125 26.78125 9.375 
Q 23.140625 -1.703125 15.828125 -13.1875 
L 8.015625 -13.1875 
Q 14.5 -2 17.703125 9.0625 
Q 20.90625 20.125 20.90625 31.390625 
Q 20.90625 42.671875 17.703125 53.65625 
Q 14.5 64.65625 8.015625 75.875 
z
" id="DejaVuSans-41"/>
     </defs>
     <g transform="translate(77.303219 342.217594)scale(0.17 -0.17)">
      <use xlink:href="#DejaVuSans-108"/>
      <use x="27.783203" xlink:href="#DejaVuSans-111"/>
      <use x="88.964844" xlink:href="#DejaVuSans-103"/>
      <use x="152.441406" xlink:href="#DejaVuSans-49"/>
      <use x="216.064453" xlink:href="#DejaVuSans-48"/>
      <use x="279.6875" xlink:href="#DejaVuSans-40"/>
      <use x="318.701172" xlink:href="#DejaVuSans-35"/>
      <use x="402.490234" xlink:href="#DejaVuSans-32"/>
      <use x="434.277344" xlink:href="#DejaVuSans-102"/>
      <use x="469.404297" xlink:href="#DejaVuSans-45"/>
      <use x="505.488281" xlink:href="#DejaVuSans-101"/>
      <use x="567.011719" xlink:href="#DejaVuSans-118"/>
      <use x="626.191406" xlink:href="#DejaVuSans-97"/>
      <use x="687.470703" xlink:href="#DejaVuSans-108"/>
      <use x="715.253906" xlink:href="#DejaVuSans-115"/>
      <use x="767.353516" xlink:href="#DejaVuSans-32"/>
      <use x="799.140625" xlink:href="#DejaVuSans-47"/>
      <use x="832.832031" xlink:href="#DejaVuSans-32"/>
      <use x="864.619141" xlink:href="#DejaVuSans-100"/>
      <use x="928.095703" xlink:href="#DejaVuSans-105"/>
      <use x="955.878906" xlink:href="#DejaVuSans-109"/>
      <use x="1053.291016" xlink:href="#DejaVuSans-101"/>
      <use x="1114.814453" xlink:href="#DejaVuSans-110"/>
      <use x="1178.193359" xlink:href="#DejaVuSans-115"/>
      <use x="1230.292969" xlink:href="#DejaVuSans-105"/>
      <use x="1258.076172" xlink:href="#DejaVuSans-111"/>
      <use x="1319.257812" xlink:href="#DejaVuSans-110"/>
      <use x="1382.636719" xlink:href="#DejaVuSans-41"/>
     </g>
    </g>
   </g>
   <g id="matplotlib.axis_2">
    <g id="ytick_1">
     <g id="line2d_21">
      <path clip-path="url(#p037c453433)" d="M 57.6 298.944 
L 338.688 298.944 
" style="fill:none;stroke:#b0b0b0;stroke-linecap:square;stroke-width:0.8;"/>
     </g>
     <g id="line2d_22">
      <defs>
       <path d="M 0 0 
L -3.5 0 
" id="mb92d719090" style="stroke:#000000;stroke-width:0.8;"/>
      </defs>
      <g>
       <use style="stroke:#000000;stroke-width:0.8;" x="57.6" xlink:href="#mb92d719090" y="298.944"/>
      </g>
     </g>
     <g id="text_6">
      <!-- 0.0 -->
      <defs>
       <path d="M 10.6875 12.40625 
L 21 12.40625 
L 21 0 
L 10.6875 0 
z
" id="DejaVuSans-46"/>
      </defs>
      <g transform="translate(25.155 305.02275)scale(0.16 -0.16)">
       <use xlink:href="#DejaVuSans-48"/>
       <use x="63.623047" xlink:href="#DejaVuSans-46"/>
       <use x="95.410156" xlink:href="#DejaVuSans-48"/>
      </g>
     </g>
    </g>
    <g id="ytick_2">
     <g id="line2d_23">
      <path clip-path="url(#p037c453433)" d="M 57.6 245.22202 
L 338.688 245.22202 
" style="fill:none;stroke:#b0b0b0;stroke-linecap:square;stroke-width:0.8;"/>
     </g>
     <g id="line2d_24">
      <g>
       <use style="stroke:#000000;stroke-width:0.8;" x="57.6" xlink:href="#mb92d719090" y="245.22202"/>
      </g>
     </g>
     <g id="text_7">
      <!-- 0.2 -->
      <g transform="translate(25.155 251.30077)scale(0.16 -0.16)">
       <use xlink:href="#DejaVuSans-48"/>
       <use x="63.623047" xlink:href="#DejaVuSans-46"/>
       <use x="95.410156" xlink:href="#DejaVuSans-50"/>
      </g>
     </g>
    </g>
    <g id="ytick_3">
     <g id="line2d_25">
      <path clip-path="url(#p037c453433)" d="M 57.6 191.50004 
L 338.688 191.50004 
" style="fill:none;stroke:#b0b0b0;stroke-linecap:square;stroke-width:0.8;"/>
     </g>
     <g id="line2d_26">
      <g>
       <use style="stroke:#000000;stroke-width:0.8;" x="57.6" xlink:href="#mb92d719090" y="191.50004"/>
      </g>
     </g>
     <g id="text_8">
      <!-- 0.4 -->
      <g transform="translate(25.155 197.57879)scale(0.16 -0.16)">
       <use xlink:href="#DejaVuSans-48"/>
       <use x="63.623047" xlink:href="#DejaVuSans-46"/>
       <use x="95.410156" xlink:href="#DejaVuSans-52"/>
      </g>
     </g>
    </g>
    <g id="ytick_4">
     <g id="line2d_27">
      <path clip-path="url(#p037c453433)" d="M 57.6 137.778059 
L 338.688 137.778059 
" style="fill:none;stroke:#b0b0b0;stroke-linecap:square;stroke-width:0.8;"/>
     </g>
     <g id="line2d_28">
      <g>
       <use style="stroke:#000000;stroke-width:0.8;" x="57.6" xlink:href="#mb92d719090" y="137.778059"/>
      </g>
     </g>
     <g id="text_9">
      <!-- 0.6 -->
      <g transform="translate(25.155 143.856809)scale(0.16 -0.16)">
       <use xlink:href="#DejaVuSans-48"/>
       <use x="63.623047" xlink:href="#DejaVuSans-46"/>
       <use x="95.410156" xlink:href="#DejaVuSans-54"/>
      </g>
     </g>
    </g>
    <g id="ytick_5">
     <g id="line2d_29">
      <path clip-path="url(#p037c453433)" d="M 57.6 84.056079 
L 338.688 84.056079 
" style="fill:none;stroke:#b0b0b0;stroke-linecap:square;stroke-width:0.8;"/>
     </g>
     <g id="line2d_30">
      <g>
       <use style="stroke:#000000;stroke-width:0.8;" x="57.6" xlink:href="#mb92d719090" y="84.056079"/>
      </g>
     </g>
     <g id="text_10">
      <!-- 0.8 -->
      <defs>
       <path d="M 31.78125 34.625 
Q 24.75 34.625 20.71875 30.859375 
Q 16.703125 27.09375 16.703125 20.515625 
Q 16.703125 13.921875 20.71875 10.15625 
Q 24.75 6.390625 31.78125 6.390625 
Q 38.8125 6.390625 42.859375 10.171875 
Q 46.921875 13.96875 46.921875 20.515625 
Q 46.921875 27.09375 42.890625 30.859375 
Q 38.875 34.625 31.78125 34.625 
z
M 21.921875 38.8125 
Q 15.578125 40.375 12.03125 44.71875 
Q 8.5 49.078125 8.5 55.328125 
Q 8.5 64.0625 14.71875 69.140625 
Q 20.953125 74.21875 31.78125 74.21875 
Q 42.671875 74.21875 48.875 69.140625 
Q 55.078125 64.0625 55.078125 55.328125 
Q 55.078125 49.078125 51.53125 44.71875 
Q 48 40.375 41.703125 38.8125 
Q 48.828125 37.15625 52.796875 32.3125 
Q 56.78125 27.484375 56.78125 20.515625 
Q 56.78125 9.90625 50.3125 4.234375 
Q 43.84375 -1.421875 31.78125 -1.421875 
Q 19.734375 -1.421875 13.25 4.234375 
Q 6.78125 9.90625 6.78125 20.515625 
Q 6.78125 27.484375 10.78125 32.3125 
Q 14.796875 37.15625 21.921875 38.8125 
z
M 18.3125 54.390625 
Q 18.3125 48.734375 21.84375 45.5625 
Q 25.390625 42.390625 31.78125 42.390625 
Q 38.140625 42.390625 41.71875 45.5625 
Q 45.3125 48.734375 45.3125 54.390625 
Q 45.3125 60.0625 41.71875 63.234375 
Q 38.140625 66.40625 31.78125 66.40625 
Q 25.390625 66.40625 21.84375 63.234375 
Q 18.3125 60.0625 18.3125 54.390625 
z
" id="DejaVuSans-56"/>
      </defs>
      <g transform="translate(25.155 90.134829)scale(0.16 -0.16)">
       <use xlink:href="#DejaVuSans-48"/>
       <use x="63.623047" xlink:href="#DejaVuSans-46"/>
       <use x="95.410156" xlink:href="#DejaVuSans-56"/>
      </g>
     </g>
    </g>
    <g id="ytick_6">
     <g id="line2d_31">
      <path clip-path="url(#p037c453433)" d="M 57.6 30.334099 
L 338.688 30.334099 
" style="fill:none;stroke:#b0b0b0;stroke-linecap:square;stroke-width:0.8;"/>
     </g>
     <g id="line2d_32">
      <g>
       <use style="stroke:#000000;stroke-width:0.8;" x="57.6" xlink:href="#mb92d719090" y="30.334099"/>
      </g>
     </g>
     <g id="text_11">
      <!-- 1.0 -->
      <g transform="translate(25.155 36.412849)scale(0.16 -0.16)">
       <use xlink:href="#DejaVuSans-49"/>
       <use x="63.623047" xlink:href="#DejaVuSans-46"/>
       <use x="95.410156" xlink:href="#DejaVuSans-48"/>
      </g>
     </g>
    </g>
    <g id="text_12">
     <!-- Fraction of function,target pairs -->
     <defs>
      <path d="M 9.8125 72.90625 
L 51.703125 72.90625 
L 51.703125 64.59375 
L 19.671875 64.59375 
L 19.671875 43.109375 
L 48.578125 43.109375 
L 48.578125 34.8125 
L 19.671875 34.8125 
L 19.671875 0 
L 9.8125 0 
z
" id="DejaVuSans-70"/>
      <path d="M 41.109375 46.296875 
Q 39.59375 47.171875 37.8125 47.578125 
Q 36.03125 48 33.890625 48 
Q 26.265625 48 22.1875 43.046875 
Q 18.109375 38.09375 18.109375 28.8125 
L 18.109375 0 
L 9.078125 0 
L 9.078125 54.6875 
L 18.109375 54.6875 
L 18.109375 46.1875 
Q 20.953125 51.171875 25.484375 53.578125 
Q 30.03125 56 36.53125 56 
Q 37.453125 56 38.578125 55.875 
Q 39.703125 55.765625 41.0625 55.515625 
z
" id="DejaVuSans-114"/>
      <path d="M 48.78125 52.59375 
L 48.78125 44.1875 
Q 44.96875 46.296875 41.140625 47.34375 
Q 37.3125 48.390625 33.40625 48.390625 
Q 24.65625 48.390625 19.8125 42.84375 
Q 14.984375 37.3125 14.984375 27.296875 
Q 14.984375 17.28125 19.8125 11.734375 
Q 24.65625 6.203125 33.40625 6.203125 
Q 37.3125 6.203125 41.140625 7.25 
Q 44.96875 8.296875 48.78125 10.40625 
L 48.78125 2.09375 
Q 45.015625 0.34375 40.984375 -0.53125 
Q 36.96875 -1.421875 32.421875 -1.421875 
Q 20.0625 -1.421875 12.78125 6.34375 
Q 5.515625 14.109375 5.515625 27.296875 
Q 5.515625 40.671875 12.859375 48.328125 
Q 20.21875 56 33.015625 56 
Q 37.15625 56 41.109375 55.140625 
Q 45.0625 54.296875 48.78125 52.59375 
z
" id="DejaVuSans-99"/>
      <path d="M 18.3125 70.21875 
L 18.3125 54.6875 
L 36.8125 54.6875 
L 36.8125 47.703125 
L 18.3125 47.703125 
L 18.3125 18.015625 
Q 18.3125 11.328125 20.140625 9.421875 
Q 21.96875 7.515625 27.59375 7.515625 
L 36.8125 7.515625 
L 36.8125 0 
L 27.59375 0 
Q 17.1875 0 13.234375 3.875 
Q 9.28125 7.765625 9.28125 18.015625 
L 9.28125 47.703125 
L 2.6875 47.703125 
L 2.6875 54.6875 
L 9.28125 54.6875 
L 9.28125 70.21875 
z
" id="DejaVuSans-116"/>
      <path d="M 8.5 21.578125 
L 8.5 54.6875 
L 17.484375 54.6875 
L 17.484375 21.921875 
Q 17.484375 14.15625 20.5 10.265625 
Q 23.53125 6.390625 29.59375 6.390625 
Q 36.859375 6.390625 41.078125 11.03125 
Q 45.3125 15.671875 45.3125 23.6875 
L 45.3125 54.6875 
L 54.296875 54.6875 
L 54.296875 0 
L 45.3125 0 
L 45.3125 8.40625 
Q 42.046875 3.421875 37.71875 1 
Q 33.40625 -1.421875 27.6875 -1.421875 
Q 18.265625 -1.421875 13.375 4.4375 
Q 8.5 10.296875 8.5 21.578125 
z
M 31.109375 56 
z
" id="DejaVuSans-117"/>
      <path d="M 11.71875 12.40625 
L 22.015625 12.40625 
L 22.015625 4 
L 14.015625 -11.625 
L 7.71875 -11.625 
L 11.71875 4 
z
" id="DejaVuSans-44"/>
      <path d="M 18.109375 8.203125 
L 18.109375 -20.796875 
L 9.078125 -20.796875 
L 9.078125 54.6875 
L 18.109375 54.6875 
L 18.109375 46.390625 
Q 20.953125 51.265625 25.265625 53.625 
Q 29.59375 56 35.59375 56 
Q 45.5625 56 51.78125 48.09375 
Q 58.015625 40.1875 58.015625 27.296875 
Q 58.015625 14.40625 51.78125 6.484375 
Q 45.5625 -1.421875 35.59375 -1.421875 
Q 29.59375 -1.421875 25.265625 0.953125 
Q 20.953125 3.328125 18.109375 8.203125 
z
M 48.6875 27.296875 
Q 48.6875 37.203125 44.609375 42.84375 
Q 40.53125 48.484375 33.40625 48.484375 
Q 26.265625 48.484375 22.1875 42.84375 
Q 18.109375 37.203125 18.109375 27.296875 
Q 18.109375 17.390625 22.1875 11.75 
Q 26.265625 6.109375 33.40625 6.109375 
Q 40.53125 6.109375 44.609375 11.75 
Q 48.6875 17.390625 48.6875 27.296875 
z
" id="DejaVuSans-112"/>
     </defs>
     <g transform="translate(17.619531 298.435375)rotate(-90)scale(0.17 -0.17)">
      <use xlink:href="#DejaVuSans-70"/>
      <use x="57.410156" xlink:href="#DejaVuSans-114"/>
      <use x="98.523438" xlink:href="#DejaVuSans-97"/>
      <use x="159.802734" xlink:href="#DejaVuSans-99"/>
      <use x="214.783203" xlink:href="#DejaVuSans-116"/>
      <use x="253.992188" xlink:href="#DejaVuSans-105"/>
      <use x="281.775391" xlink:href="#DejaVuSans-111"/>
      <use x="342.957031" xlink:href="#DejaVuSans-110"/>
      <use x="406.335938" xlink:href="#DejaVuSans-32"/>
      <use x="438.123047" xlink:href="#DejaVuSans-111"/>
      <use x="499.304688" xlink:href="#DejaVuSans-102"/>
      <use x="534.509766" xlink:href="#DejaVuSans-32"/>
      <use x="566.296875" xlink:href="#DejaVuSans-102"/>
      <use x="601.501953" xlink:href="#DejaVuSans-117"/>
      <use x="664.880859" xlink:href="#DejaVuSans-110"/>
      <use x="728.259766" xlink:href="#DejaVuSans-99"/>
      <use x="783.240234" xlink:href="#DejaVuSans-116"/>
      <use x="822.449219" xlink:href="#DejaVuSans-105"/>
      <use x="850.232422" xlink:href="#DejaVuSans-111"/>
      <use x="911.414062" xlink:href="#DejaVuSans-110"/>
      <use x="974.792969" xlink:href="#DejaVuSans-44"/>
      <use x="1006.580078" xlink:href="#DejaVuSans-116"/>
      <use x="1045.789062" xlink:href="#DejaVuSans-97"/>
      <use x="1107.068359" xlink:href="#DejaVuSans-114"/>
      <use x="1148.166016" xlink:href="#DejaVuSans-103"/>
      <use x="1211.642578" xlink:href="#DejaVuSans-101"/>
      <use x="1273.166016" xlink:href="#DejaVuSans-116"/>
      <use x="1312.375" xlink:href="#DejaVuSans-32"/>
      <use x="1344.162109" xlink:href="#DejaVuSans-112"/>
      <use x="1407.638672" xlink:href="#DejaVuSans-97"/>
      <use x="1468.917969" xlink:href="#DejaVuSans-105"/>
      <use x="1496.701172" xlink:href="#DejaVuSans-114"/>
      <use x="1537.814453" xlink:href="#DejaVuSans-115"/>
     </g>
    </g>
   </g>
   <g id="line2d_33">
    <defs>
     <path d="M 0 1.5 
C 0.397805 1.5 0.77937 1.341951 1.06066 1.06066 
C 1.341951 0.77937 1.5 0.397805 1.5 0 
C 1.5 -0.397805 1.341951 -0.77937 1.06066 -1.06066 
C 0.77937 -1.341951 0.397805 -1.5 0 -1.5 
C -0.397805 -1.5 -0.77937 -1.341951 -1.06066 -1.06066 
C -1.341951 -0.77937 -1.5 -0.397805 -1.5 0 
C -1.5 0.397805 -1.341951 0.77937 -1.06066 1.06066 
C -0.77937 1.341951 -0.397805 1.5 0 1.5 
z
" id="m1481bd1261" style="stroke:#f5deb3;"/>
    </defs>
    <g>
     <use style="fill:#f5deb3;stroke:#f5deb3;" x="108.948899" xlink:href="#m1481bd1261" y="30.334099"/>
     <use style="fill:#f5deb3;stroke:#f5deb3;" x="108.948899" xlink:href="#m1481bd1261" y="30.334099"/>
    </g>
   </g>
   <g id="line2d_34">
    <defs>
     <path d="M 0 1.5 
C 0.397805 1.5 0.77937 1.341951 1.06066 1.06066 
C 1.341951 0.77937 1.5 0.397805 1.5 0 
C 1.5 -0.397805 1.341951 -0.77937 1.06066 -1.06066 
C 0.77937 -1.341951 0.397805 -1.5 0 -1.5 
C -0.397805 -1.5 -0.77937 -1.341951 -1.06066 -1.06066 
C -1.341951 -0.77937 -1.5 -0.397805 -1.5 0 
C -1.5 0.397805 -1.341951 0.77937 -1.06066 1.06066 
C -0.77937 1.341951 -0.397805 1.5 0 1.5 
z
" id="mc0ef0444de" style="stroke:#000080;"/>
    </defs>
    <g>
     <use style="fill:#000080;stroke:#000080;" x="158.042106" xlink:href="#mc0ef0444de" y="30.334099"/>
     <use style="fill:#000080;stroke:#000080;" x="158.042106" xlink:href="#mc0ef0444de" y="30.334099"/>
    </g>
   </g>
   <g id="line2d_35">
    <path d="M 125.038147 298.944 
L 125.038147 297.363942 
L 126.904721 297.363942 
L 126.904721 296.837256 
L 129.46138 296.837256 
L 129.46138 295.783884 
L 130.398313 295.783884 
L 130.398313 294.730511 
L 131.987128 294.730511 
L 131.987128 294.203825 
L 132.612604 294.203825 
L 132.612604 293.150453 
L 132.753813 293.150453 
L 132.753813 292.097081 
L 133.216421 292.097081 
L 133.216421 291.043709 
L 133.533096 291.043709 
L 133.533096 290.517023 
L 133.931979 290.517023 
L 133.975741 288.936964 
L 134.236034 288.936964 
L 134.236034 288.410278 
L 134.492498 288.410278 
L 134.492498 287.883592 
L 134.745246 287.883592 
L 134.828688 285.776848 
L 135.681535 285.776848 
L 135.760625 284.723476 
L 135.917737 284.723476 
L 135.995765 283.670104 
L 136.720123 283.670104 
L 136.720123 283.143418 
L 137.235245 283.143418 
L 137.235245 282.090045 
L 137.37967 282.090045 
L 137.37967 281.036673 
L 137.629572 281.036673 
L 137.629572 280.509987 
L 137.805906 280.509987 
L 137.805906 279.983301 
L 138.049816 279.983301 
L 138.084384 277.876557 
L 138.594838 277.876557 
L 138.661784 276.823185 
L 138.828032 276.823185 
L 138.861092 275.769812 
L 139.220677 275.769812 
L 139.220677 275.243126 
L 139.413734 275.243126 
L 139.477614 274.189754 
L 139.541262 274.189754 
L 139.636299 272.08301 
L 139.762215 272.08301 
L 139.856059 271.029638 
L 140.103868 271.029638 
L 140.103868 269.449579 
L 140.287441 269.449579 
L 140.287441 268.922893 
L 140.738093 268.922893 
L 140.738093 268.396207 
L 141.148448 268.396207 
L 141.148448 266.289463 
L 141.605898 266.289463 
L 141.69035 265.236091 
L 141.830201 265.236091 
L 141.830201 264.709405 
L 142.106582 264.709405 
L 142.215919 263.129347 
L 142.486301 263.129347 
L 142.486301 262.075974 
L 142.805321 262.075974 
L 142.805321 261.549288 
L 142.936543 261.549288 
L 143.040814 260.495916 
L 143.196061 260.495916 
L 143.196061 259.96923 
L 143.349938 259.96923 
L 143.349938 259.442544 
L 143.47714 259.442544 
L 143.578237 258.389172 
L 143.628567 258.389172 
L 143.628567 257.3358 
L 143.75376 257.3358 
L 143.853271 255.229055 
L 143.87806 255.229055 
L 143.952218 254.175683 
L 144.026061 254.175683 
L 144.050606 252.068939 
L 144.438701 252.068939 
L 144.462672 251.015567 
L 144.582038 251.015567 
L 144.582038 249.435508 
L 144.724207 249.435508 
L 144.724207 248.908822 
L 145.166911 248.908822 
L 145.166911 247.85545 
L 145.281568 247.85545 
L 145.372754 245.748706 
L 145.463466 245.748706 
L 145.48607 243.641962 
L 145.598655 243.641962 
L 145.598655 243.115275 
L 145.910079 243.115275 
L 145.910079 242.588589 
L 146.06373 242.588589 
L 146.150926 240.481845 
L 146.237689 240.481845 
L 146.324022 239.428473 
L 146.474085 239.428473 
L 146.559258 237.848415 
L 146.77039 237.848415 
L 146.875005 235.214984 
L 147.185137 235.214984 
L 147.226074 233.10824 
L 147.429332 233.10824 
L 147.509976 231.528182 
L 147.650212 231.528182 
L 147.70997 229.421437 
L 147.769524 229.421437 
L 147.809113 227.841379 
L 147.96658 227.841379 
L 147.986163 226.261321 
L 148.122637 226.261321 
L 148.219468 222.047832 
L 148.23877 222.047832 
L 148.315765 220.467774 
L 148.354135 220.467774 
L 148.430623 218.887716 
L 148.468742 218.887716 
L 148.54473 217.307658 
L 148.582601 217.307658 
L 148.676918 215.200913 
L 148.733265 215.200913 
L 148.826773 212.040797 
L 148.882639 212.040797 
L 148.975352 207.300622 
L 149.012299 207.300622 
L 149.012299 206.773936 
L 149.177602 206.773936 
L 149.286939 203.613819 
L 149.323233 203.613819 
L 149.431665 198.873645 
L 149.467659 198.873645 
L 149.575199 194.660156 
L 149.610898 194.660156 
L 149.646525 192.026726 
L 149.735275 192.026726 
L 149.823575 187.286551 
L 149.85877 187.286551 
L 149.963932 183.073062 
L 149.981398 183.073062 
L 149.981398 182.546376 
L 150.172372 182.546376 
L 150.172372 182.01969 
L 150.292822 182.01969 
L 150.395406 177.279515 
L 150.446473 177.279515 
L 150.54816 173.592713 
L 150.56505 173.592713 
L 150.66605 169.379224 
L 150.73306 169.379224 
L 150.833094 167.27248 
L 150.866312 167.27248 
L 150.932558 163.585677 
L 150.998554 163.585677 
L 151.047887 159.898875 
L 151.113448 159.898875 
L 151.178764 158.318817 
L 151.227591 158.318817 
L 151.308666 154.632014 
L 151.357131 154.632014 
L 151.405461 153.051956 
L 151.469695 153.051956 
L 151.565603 149.891839 
L 151.581536 149.891839 
L 151.62925 147.785095 
L 151.692666 147.785095 
L 151.803091 141.464862 
L 151.818809 141.464862 
L 151.912822 139.884804 
L 151.944047 139.884804 
L 152.052897 135.144629 
L 152.068392 135.144629 
L 152.130233 131.984513 
L 152.191856 131.984513 
L 152.191856 130.93114 
L 152.39064 130.93114 
L 152.481628 129.351082 
L 152.511852 129.351082 
L 152.617226 123.557535 
L 152.662192 123.557535 
L 152.751777 119.870733 
L 152.796398 119.870733 
L 152.840905 116.710616 
L 153.076375 116.710616 
L 153.149313 113.023814 
L 153.192929 113.023814 
L 153.192929 111.970441 
L 153.308709 111.970441 
L 153.380683 108.810325 
L 153.452361 108.810325 
L 153.552218 104.07015 
L 153.580644 104.07015 
L 153.679772 101.43672 
L 153.693887 101.43672 
L 153.778339 99.329976 
L 153.834414 99.329976 
L 153.932113 95.643173 
L 153.959927 95.643173 
L 154.070741 90.376312 
L 154.125885 90.376312 
L 154.139643 89.32294 
L 154.262987 89.32294 
L 154.358321 86.162824 
L 154.399019 86.162824 
L 154.507086 82.476021 
L 154.533999 82.476021 
L 154.641235 76.682474 
L 154.68128 76.682474 
L 154.68128 76.155788 
L 154.827327 76.155788 
L 154.827327 75.629102 
L 155.011454 75.629102 
L 155.115803 69.835555 
L 155.128803 69.835555 
L 155.128803 69.308869 
L 155.271165 69.308869 
L 155.373976 66.675439 
L 155.437927 66.675439 
L 155.501643 62.46195 
L 155.565128 62.46195 
L 155.641006 59.82852 
L 155.729115 59.82852 
L 155.791779 55.088345 
L 155.854218 55.088345 
L 155.953659 52.9816 
L 156.015522 52.9816 
L 156.040206 51.928228 
L 156.224231 51.928228 
L 156.333721 49.294798 
L 156.357959 49.294798 
L 156.406335 47.188054 
L 156.514691 47.188054 
L 156.550661 44.554623 
L 156.634302 44.554623 
L 156.693802 41.394507 
L 156.753099 41.394507 
L 156.847557 39.287762 
L 156.953214 39.287762 
L 156.999969 37.181018 
L 157.081488 37.181018 
L 157.081488 36.654332 
L 157.243392 36.654332 
L 157.335239 35.074274 
L 157.380981 35.074274 
L 157.437991 31.914157 
L 157.60791 31.914157 
L 157.60791 30.860785 
L 158.042106 30.860785 
L 158.042106 30.334099 
L 338.688 30.334099 
L 338.688 30.334099 
" style="fill:none;stroke:#000080;stroke-linecap:square;stroke-width:1.5;"/>
   </g>
   <g id="line2d_36">
    <defs>
     <path d="M 0 6 
C 1.591219 6 3.117479 5.367802 4.242641 4.242641 
C 5.367802 3.117479 6 1.591219 6 0 
C 6 -1.591219 5.367802 -3.117479 4.242641 -4.242641 
C 3.117479 -5.367802 1.591219 -6 0 -6 
C -1.591219 -6 -3.117479 -5.367802 -4.242641 -4.242641 
C -5.367802 -3.117479 -6 -1.591219 -6 0 
C -6 1.591219 -5.367802 3.117479 -4.242641 4.242641 
C -3.117479 5.367802 -1.591219 6 0 6 
z
" id="m338cad7d67" style="stroke:#000080;stroke-width:1.5;"/>
    </defs>
    <g>
     <use style="fill-opacity:0;stroke:#000080;stroke-width:1.5;" x="153.149313" xlink:href="#m338cad7d67" y="113.023814"/>
     <use style="fill-opacity:0;stroke:#000080;stroke-width:1.5;" x="158.042106" xlink:href="#m338cad7d67" y="30.860785"/>
     <use style="fill-opacity:0;stroke:#000080;stroke-width:1.5;" x="158.042106" xlink:href="#m338cad7d67" y="30.334099"/>
     <use style="fill-opacity:0;stroke:#000080;stroke-width:1.5;" x="158.042106" xlink:href="#m338cad7d67" y="30.334099"/>
     <use style="fill-opacity:0;stroke:#000080;stroke-width:1.5;" x="338.688" xlink:href="#m338cad7d67" y="30.334099"/>
    </g>
   </g>
   <g id="line2d_37">
    <path style="fill:none;stroke:#000080;stroke-linecap:square;stroke-width:1.5;"/>
    <g/>
   </g>
   <g id="line2d_38">
    <g>
     <use style="fill:#000080;stroke:#000080;" x="160.132771" xlink:href="#mc0ef0444de" y="30.334099"/>
     <use style="fill:#000080;stroke:#000080;" x="160.132771" xlink:href="#mc0ef0444de" y="30.334099"/>
    </g>
   </g>
   <g id="line2d_39">
    <path d="M 126.099688 298.944 
L 126.099688 298.417314 
L 126.236468 298.417314 
L 126.236468 297.890628 
L 128.944197 297.890628 
L 128.944197 297.363942 
L 129.79784 297.363942 
L 129.79784 296.837256 
L 131.236397 296.837256 
L 131.236397 296.31057 
L 131.439773 296.31057 
L 131.439773 295.783884 
L 132.036046 295.783884 
L 132.036046 294.730511 
L 132.422528 294.730511 
L 132.470242 293.150453 
L 132.847322 293.150453 
L 132.847322 292.623767 
L 133.533096 292.623767 
L 133.533096 292.097081 
L 134.149701 292.097081 
L 134.149701 291.570395 
L 134.321942 291.570395 
L 134.321942 291.043709 
L 134.492498 291.043709 
L 134.492498 290.517023 
L 134.745246 290.517023 
L 134.745246 289.990337 
L 134.870259 289.990337 
L 134.870259 289.463651 
L 134.994383 289.463651 
L 134.994383 288.410278 
L 135.240011 288.410278 
L 135.240011 287.883592 
L 135.641855 287.883592 
L 135.641855 287.356906 
L 135.760625 287.356906 
L 135.760625 286.83022 
L 135.995765 286.83022 
L 135.995765 285.776848 
L 136.342635 285.776848 
L 136.380754 284.723476 
L 136.456742 284.723476 
L 136.5324 283.143418 
L 136.68274 283.143418 
L 136.757427 281.563359 
L 136.79465 281.563359 
L 136.79465 280.509987 
L 136.905847 280.509987 
L 136.905847 279.983301 
L 137.053015 279.983301 
L 137.053015 279.456615 
L 137.198951 279.456615 
L 137.271464 278.403243 
L 137.770782 278.403243 
L 137.875944 275.769812 
L 138.049816 275.769812 
L 138.049816 275.243126 
L 138.256201 275.243126 
L 138.256201 274.71644 
L 138.728473 274.71644 
L 138.728473 274.189754 
L 139.090775 274.189754 
L 139.090775 273.663068 
L 139.572998 273.663068 
L 139.604677 272.609696 
L 139.980403 272.609696 
L 139.980403 272.08301 
L 140.134598 272.08301 
L 140.134598 271.556324 
L 140.348205 271.556324 
L 140.378508 270.502952 
L 140.738093 270.502952 
L 140.738093 269.976266 
L 141.032186 269.976266 
L 141.090414 268.922893 
L 141.263941 268.922893 
L 141.263941 268.396207 
L 141.521035 268.396207 
L 141.605898 266.816149 
L 141.634094 266.816149 
L 141.662245 264.709405 
L 141.774395 264.709405 
L 141.858037 263.656033 
L 142.024126 263.656033 
L 142.024126 262.60266 
L 142.161336 262.60266 
L 142.161336 262.075974 
L 142.619936 262.075974 
L 142.619936 261.549288 
L 142.778958 261.549288 
L 142.778958 261.022602 
L 142.910378 261.022602 
L 142.910378 260.495916 
L 143.066785 260.495916 
L 143.066785 259.96923 
L 143.196061 259.96923 
L 143.273169 258.915858 
L 143.324386 258.915858 
L 143.349938 257.862486 
L 143.553018 257.862486 
L 143.628567 255.755741 
L 143.87806 255.755741 
L 143.902815 254.702369 
L 144.221461 254.702369 
L 144.269971 253.648997 
L 144.366588 253.648997 
L 144.366588 253.122311 
L 144.55823 253.122311 
L 144.653267 252.068939 
L 144.700592 252.068939 
L 144.77134 249.962195 
L 144.818346 249.962195 
L 144.91198 248.382136 
L 145.051495 248.382136 
L 145.051495 247.85545 
L 145.212864 247.85545 
L 145.258697 246.275392 
L 145.440832 246.275392 
L 145.48607 242.588589 
L 145.576196 242.588589 
L 145.576196 241.535217 
L 145.732804 241.535217 
L 145.821666 236.795043 
L 145.888018 236.795043 
L 145.998045 234.161612 
L 146.06373 234.161612 
L 146.06373 233.634926 
L 146.345539 233.634926 
L 146.452726 231.528182 
L 146.495417 231.528182 
L 146.538004 230.47481 
L 146.665144 230.47481 
L 146.707319 225.734635 
L 146.958248 225.734635 
L 146.958248 225.207949 
L 147.102973 225.207949 
L 147.144103 224.154577 
L 147.388869 224.154577 
L 147.429332 220.467774 
L 147.590249 220.467774 
L 147.690073 218.887716 
L 147.70997 218.887716 
L 147.809113 216.780971 
L 147.907696 216.780971 
L 147.927346 215.727599 
L 148.083753 215.727599 
L 148.161434 209.407366 
L 148.200145 209.407366 
L 148.200145 208.88068 
L 148.315765 208.88068 
L 148.373289 206.24725 
L 148.430623 206.24725 
L 148.525764 203.613819 
L 148.582601 203.613819 
L 148.676918 201.507075 
L 148.770728 201.507075 
L 148.864037 198.873645 
L 148.901221 198.873645 
L 149.012299 197.820273 
L 149.030744 197.820273 
L 149.030744 196.240214 
L 149.159312 196.240214 
L 149.268764 194.13347 
L 149.323233 194.13347 
L 149.431665 189.919981 
L 149.467659 189.919981 
L 149.575199 187.286551 
L 149.610898 187.286551 
L 149.717561 184.126434 
L 149.752971 184.126434 
L 149.841182 181.493004 
L 149.998846 181.493004 
L 150.103169 177.806202 
L 150.172372 177.806202 
L 150.275665 174.646085 
L 150.309961 174.646085 
L 150.395406 171.485969 
L 150.429467 171.485969 
L 150.446473 169.90591 
L 150.54816 169.90591 
L 150.632448 165.692422 
L 150.66605 165.692422 
L 150.766468 161.478933 
L 150.833094 161.478933 
L 150.882897 159.372189 
L 150.94908 159.372189 
L 150.982078 157.79213 
L 151.0643 157.79213 
L 151.097081 155.685386 
L 151.195055 155.685386 
L 151.260066 153.578642 
L 151.340991 153.578642 
L 151.437608 151.471897 
L 151.453659 151.471897 
L 151.453659 150.945211 
L 151.565603 150.945211 
L 151.645126 147.785095 
L 151.755852 147.785095 
L 151.865879 143.571606 
L 151.897188 143.571606 
L 152.00633 138.304745 
L 152.021866 138.304745 
L 152.114793 135.144629 
L 152.145659 135.144629 
L 152.253262 133.564571 
L 152.26858 133.564571 
L 152.360205 130.404454 
L 152.421022 130.404454 
L 152.496747 128.29771 
L 152.55709 128.29771 
L 152.617226 122.504163 
L 152.677155 122.504163 
L 152.781537 117.237302 
L 152.944315 117.237302 
L 153.047115 112.497128 
L 153.090987 112.497128 
L 153.192929 110.917069 
L 153.207444 110.917069 
L 153.308709 108.283639 
L 153.323128 108.283639 
L 153.423725 106.176895 
L 153.452361 106.176895 
L 153.552218 103.543464 
L 153.566437 103.543464 
L 153.665645 100.383348 
L 153.679772 100.383348 
L 153.778339 98.276603 
L 153.806399 98.276603 
L 153.904255 90.902998 
L 153.918189 90.902998 
L 154.015422 89.32294 
L 154.070741 89.32294 
L 154.125885 87.216196 
L 154.19457 87.216196 
L 154.303908 84.582765 
L 154.344733 84.582765 
L 154.426099 80.369277 
L 154.480132 80.369277 
L 154.57429 75.629102 
L 154.654594 75.629102 
L 154.747816 72.468985 
L 154.840544 72.468985 
L 154.945917 68.255497 
L 155.076745 68.255497 
L 155.180705 64.568694 
L 155.206599 64.568694 
L 155.258271 62.46195 
L 155.322646 62.46195 
L 155.425155 59.82852 
L 155.463441 59.82852 
L 155.527065 57.195089 
L 155.678822 57.195089 
L 155.779264 55.615031 
L 155.804285 55.615031 
L 155.841748 54.034973 
L 155.94126 54.034973 
L 156.015522 52.9816 
L 156.077167 52.9816 
L 156.163105 51.401542 
L 156.260804 51.401542 
L 156.30945 48.768112 
L 156.418408 48.768112 
L 156.454576 46.661368 
L 156.586556 46.661368 
L 156.658127 42.447879 
L 156.753099 42.447879 
L 156.753099 40.867821 
L 156.918066 40.867821 
L 156.964915 39.814448 
L 157.208825 39.814448 
L 157.300853 37.707704 
L 157.335239 37.707704 
L 157.335239 36.654332 
L 157.56276 36.654332 
L 157.652944 35.074274 
L 157.709073 35.074274 
L 157.709073 34.547588 
L 157.98704 34.547588 
L 157.98704 34.020902 
L 158.390468 34.020902 
L 158.390468 33.494215 
L 158.583406 33.494215 
L 158.583406 32.967529 
L 158.868869 32.967529 
L 158.868869 32.440843 
L 159.476858 32.440843 
L 159.476858 31.914157 
L 159.926735 31.914157 
L 159.926735 31.387471 
L 160.083935 31.387471 
L 160.132771 30.334099 
L 338.688 30.334099 
L 338.688 30.334099 
" style="fill:none;stroke:#000080;stroke-linecap:square;stroke-width:1.5;"/>
   </g>
   <g id="line2d_40">
    <g>
     <use style="fill-opacity:0;stroke:#000080;stroke-width:1.5;" x="150.882897" xlink:href="#m338cad7d67" y="159.898875"/>
     <use style="fill-opacity:0;stroke:#000080;stroke-width:1.5;" x="160.132771" xlink:href="#m338cad7d67" y="30.860785"/>
     <use style="fill-opacity:0;stroke:#000080;stroke-width:1.5;" x="160.132771" xlink:href="#m338cad7d67" y="30.334099"/>
     <use style="fill-opacity:0;stroke:#000080;stroke-width:1.5;" x="160.132771" xlink:href="#m338cad7d67" y="30.334099"/>
     <use style="fill-opacity:0;stroke:#000080;stroke-width:1.5;" x="338.688" xlink:href="#m338cad7d67" y="30.334099"/>
    </g>
   </g>
   <g id="line2d_41">
    <path style="fill:none;stroke:#000080;stroke-linecap:square;stroke-width:1.5;"/>
    <g/>
   </g>
   <g id="line2d_42">
    <defs>
     <path d="M 0 1.5 
C 0.397805 1.5 0.77937 1.341951 1.06066 1.06066 
C 1.341951 0.77937 1.5 0.397805 1.5 0 
C 1.5 -0.397805 1.341951 -0.77937 1.06066 -1.06066 
C 0.77937 -1.341951 0.397805 -1.5 0 -1.5 
C -0.397805 -1.5 -0.77937 -1.341951 -1.06066 -1.06066 
C -1.341951 -0.77937 -1.5 -0.397805 -1.5 0 
C -1.5 0.397805 -1.341951 0.77937 -1.06066 1.06066 
C -0.77937 1.341951 -0.397805 1.5 0 1.5 
z
" id="m52a67ad4ae" style="stroke:#ff00ff;"/>
    </defs>
    <g>
     <use style="fill:#ff00ff;stroke:#ff00ff;" x="162.147765" xlink:href="#m52a67ad4ae" y="30.334099"/>
     <use style="fill:#ff00ff;stroke:#ff00ff;" x="162.147765" xlink:href="#m52a67ad4ae" y="30.334099"/>
    </g>
   </g>
   <g id="line2d_43">
    <path d="M 125.612332 298.944 
L 125.612332 298.417314 
L 130.61164 298.417314 
L 130.61164 297.890628 
L 133.711505 297.890628 
L 133.711505 297.363942 
L 134.870259 297.363942 
L 134.870259 296.837256 
L 135.562224 296.837256 
L 135.562224 296.31057 
L 136.720123 296.31057 
L 136.720123 295.783884 
L 137.162581 295.783884 
L 137.162581 295.257197 
L 137.875944 295.257197 
L 137.875944 294.730511 
L 138.221972 294.730511 
L 138.290362 293.677139 
L 138.426341 293.677139 
L 138.426341 293.150453 
L 138.728473 293.150453 
L 138.728473 292.623767 
L 139.02546 292.623767 
L 139.090775 290.517023 
L 139.69937 290.517023 
L 139.793552 286.83022 
L 140.165274 286.83022 
L 140.165274 285.776848 
L 140.438956 285.776848 
L 140.529237 284.723476 
L 140.64889 284.723476 
L 140.738093 283.143418 
L 141.435758 283.143418 
L 141.435758 282.616732 
L 141.774395 282.616732 
L 141.774395 282.090045 
L 141.996555 282.090045 
L 141.996555 280.509987 
L 142.188649 280.509987 
L 142.270332 278.929929 
L 142.619936 278.929929 
L 142.619936 278.403243 
L 142.778958 278.403243 
L 142.884173 277.349871 
L 142.988757 277.349871 
L 143.066785 273.663068 
L 143.247504 273.663068 
L 143.324386 271.029638 
L 143.375453 271.029638 
L 143.47714 269.449579 
L 144.075117 269.449579 
L 144.075117 268.922893 
L 144.221461 268.922893 
L 144.221461 268.396207 
L 144.390658 268.396207 
L 144.486611 266.289463 
L 144.53439 266.289463 
L 144.53439 265.762777 
L 144.77134 265.762777 
L 144.77134 265.236091 
L 145.005114 265.236091 
L 145.005114 264.709405 
L 145.120836 264.709405 
L 145.120836 264.182719 
L 145.235796 264.182719 
L 145.258697 263.129347 
L 145.48607 263.129347 
L 145.48607 261.549288 
L 145.598655 261.549288 
L 145.598655 260.495916 
L 145.777292 260.495916 
L 145.888018 258.915858 
L 146.172658 258.915858 
L 146.280909 257.862486 
L 146.495417 257.862486 
L 146.495417 257.3358 
L 146.665144 257.3358 
L 146.665144 256.809114 
L 146.833235 256.809114 
L 146.875005 255.755741 
L 147.041095 255.755741 
L 147.041095 255.229055 
L 147.164632 255.229055 
L 147.226074 254.175683 
L 147.287301 254.175683 
L 147.287301 253.648997 
L 147.509976 253.648997 
L 147.590249 252.068939 
L 147.86833 252.068939 
L 147.96658 251.015567 
L 147.986163 251.015567 
L 147.986163 250.488881 
L 148.122637 250.488881 
L 148.122637 249.962195 
L 148.334961 249.962195 
L 148.334961 249.435508 
L 148.468742 249.435508 
L 148.525764 247.328764 
L 148.601505 247.328764 
L 148.695721 245.748706 
L 148.714503 245.748706 
L 148.78943 244.695334 
L 148.845415 244.695334 
L 148.882639 243.115275 
L 149.012299 243.115275 
L 149.104327 240.481845 
L 149.159312 240.481845 
L 149.232356 239.428473 
L 149.341352 239.428473 
L 149.341352 238.375101 
L 149.521512 238.375101 
L 149.557321 237.321729 
L 149.788308 237.321729 
L 149.85877 235.74167 
L 149.981398 235.74167 
L 149.981398 235.214984 
L 150.103169 235.214984 
L 150.206871 231.528182 
L 150.292822 231.528182 
L 150.292822 230.47481 
L 150.412445 230.47481 
L 150.446473 228.894751 
L 150.581924 228.894751 
L 150.66605 227.314693 
L 150.749772 227.314693 
L 150.849711 225.734635 
L 151.097081 225.734635 
L 151.1298 224.681263 
L 151.21133 224.681263 
L 151.21133 224.154577 
L 151.357131 224.154577 
L 151.357131 223.627891 
L 151.485716 223.627891 
L 151.485716 222.574518 
L 151.597455 222.574518 
L 151.676833 219.941088 
L 151.740076 219.941088 
L 151.850203 217.307658 
L 151.865879 217.307658 
L 151.975216 214.674227 
L 152.037389 214.674227 
L 152.130233 211.514111 
L 152.176471 211.514111 
L 152.283884 207.300622 
L 152.299175 207.300622 
L 152.299175 206.773936 
L 152.421022 206.773936 
L 152.481628 204.667192 
L 152.617226 204.667192 
L 152.707042 202.560447 
L 152.736878 202.560447 
L 152.736878 202.033761 
L 152.914832 202.033761 
L 152.988446 199.400331 
L 153.061751 199.400331 
L 153.061751 198.873645 
L 153.178403 198.873645 
L 153.265382 195.186842 
L 153.351929 195.186842 
L 153.438049 192.553412 
L 153.466662 192.553412 
L 153.566437 189.919981 
L 153.665645 189.919981 
L 153.693887 188.866609 
L 153.778339 188.866609 
L 153.820412 185.179807 
L 153.904255 185.179807 
L 154.001564 181.493004 
L 154.098334 181.493004 
L 154.19457 178.332888 
L 154.221969 178.332888 
L 154.331136 174.646085 
L 154.344733 174.646085 
L 154.426099 172.012655 
L 154.493614 172.012655 
L 154.587699 170.959282 
L 154.68128 170.959282 
L 154.761093 168.325852 
L 154.840544 168.325852 
L 154.89331 166.745794 
L 154.972161 166.745794 
L 154.998366 164.63905 
L 155.089774 164.63905 
L 155.180705 162.532305 
L 155.245367 162.532305 
L 155.30979 159.898875 
L 155.361158 159.898875 
L 155.425155 158.318817 
L 155.476185 158.318817 
L 155.55245 153.051956 
L 155.590458 153.051956 
L 155.628383 149.891839 
L 155.804285 149.891839 
L 155.879132 146.731723 
L 155.966049 146.731723 
L 156.052535 143.571606 
L 156.101764 143.571606 
L 156.212023 139.884804 
L 156.272978 139.884804 
L 156.345845 136.198001 
L 156.406335 136.198001 
L 156.49067 134.617943 
L 156.526689 134.617943 
L 156.622378 130.404454 
L 156.670026 130.404454 
L 156.776762 127.244338 
L 156.882847 127.244338 
L 156.953214 124.610907 
L 157.034952 124.610907 
L 157.139484 121.977477 
L 157.162628 121.977477 
L 157.266399 117.237302 
L 157.300853 117.237302 
L 157.369557 114.603872 
L 157.415209 114.603872 
L 157.437991 111.443755 
L 157.58535 111.443755 
L 157.675417 108.283639 
L 157.697862 108.283639 
L 157.765022 104.596836 
L 157.809652 104.596836 
L 157.831925 103.543464 
L 157.953917 103.543464 
L 158.064083 100.910034 
L 158.129851 100.910034 
L 158.129851 98.276603 
L 158.260646 98.276603 
L 158.271501 94.589801 
L 158.401243 94.589801 
L 158.508628 86.68951 
L 158.540715 86.68951 
L 158.625992 84.056079 
L 158.657864 84.056079 
L 158.763686 83.002707 
L 158.826871 83.002707 
L 158.921223 78.789218 
L 158.942121 78.789218 
L 158.942121 78.262532 
L 159.139412 78.262532 
L 159.242359 73.522358 
L 159.252621 73.522358 
L 159.344703 71.415613 
L 159.415988 71.415613 
L 159.476858 66.675439 
L 159.618067 66.675439 
L 159.728221 62.46195 
L 159.738201 62.46195 
L 159.827761 59.301833 
L 159.877318 59.301833 
L 159.976013 54.561659 
L 159.995685 54.561659 
L 160.103486 51.401542 
L 160.239731 51.401542 
L 160.326759 48.241426 
L 160.413354 48.241426 
L 160.509069 45.081309 
L 160.537682 45.081309 
L 160.575759 42.974565 
L 160.680044 42.974565 
L 160.680044 41.921193 
L 160.830627 41.921193 
L 160.933404 38.761076 
L 160.989209 38.761076 
L 160.989209 38.23439 
L 161.127947 38.23439 
L 161.238149 34.547588 
L 161.283861 34.547588 
L 161.374928 33.494215 
L 161.546656 33.494215 
L 161.546656 32.967529 
L 161.672119 32.967529 
L 161.672119 32.440843 
L 161.893939 32.440843 
L 161.893939 30.860785 
L 162.147765 30.860785 
L 162.147765 30.334099 
L 338.688 30.334099 
L 338.688 30.334099 
" style="fill:none;stroke:#ff00ff;stroke-linecap:square;stroke-width:1.5;"/>
   </g>
   <g id="line2d_44">
    <defs>
     <path d="M -0 8.485281 
L 5.091169 0 
L 0 -8.485281 
L -5.091169 -0 
z
" id="mee8875fc86" style="stroke:#ff00ff;stroke-linejoin:miter;stroke-width:1.5;"/>
    </defs>
    <g>
     <use style="fill-opacity:0;stroke:#ff00ff;stroke-linejoin:miter;stroke-width:1.5;" x="156.114049" xlink:href="#mee8875fc86" y="143.04492"/>
     <use style="fill-opacity:0;stroke:#ff00ff;stroke-linejoin:miter;stroke-width:1.5;" x="162.147765" xlink:href="#mee8875fc86" y="30.860785"/>
     <use style="fill-opacity:0;stroke:#ff00ff;stroke-linejoin:miter;stroke-width:1.5;" x="162.147765" xlink:href="#mee8875fc86" y="30.334099"/>
     <use style="fill-opacity:0;stroke:#ff00ff;stroke-linejoin:miter;stroke-width:1.5;" x="162.147765" xlink:href="#mee8875fc86" y="30.334099"/>
     <use style="fill-opacity:0;stroke:#ff00ff;stroke-linejoin:miter;stroke-width:1.5;" x="338.688" xlink:href="#mee8875fc86" y="30.334099"/>
    </g>
   </g>
   <g id="line2d_45">
    <path style="fill:none;stroke:#ff00ff;stroke-linecap:square;stroke-width:1.5;"/>
    <g/>
   </g>
   <g id="line2d_46">
    <defs>
     <path d="M 0 1.5 
C 0.397805 1.5 0.77937 1.341951 1.06066 1.06066 
C 1.341951 0.77937 1.5 0.397805 1.5 0 
C 1.5 -0.397805 1.341951 -0.77937 1.06066 -1.06066 
C 0.77937 -1.341951 0.397805 -1.5 0 -1.5 
C -0.397805 -1.5 -0.77937 -1.341951 -1.06066 -1.06066 
C -1.341951 -0.77937 -1.5 -0.397805 -1.5 0 
C -1.5 0.397805 -1.341951 0.77937 -1.06066 1.06066 
C -0.77937 1.341951 -0.397805 1.5 0 1.5 
z
" id="m31d98d7798" style="stroke:#ff0000;"/>
    </defs>
    <g>
     <use style="fill:#ff0000;stroke:#ff0000;" x="159.758143" xlink:href="#m31d98d7798" y="30.334099"/>
     <use style="fill:#ff0000;stroke:#ff0000;" x="159.758143" xlink:href="#m31d98d7798" y="30.334099"/>
    </g>
   </g>
   <g id="line2d_47">
    <path d="M 128.411207 298.944 
L 128.411207 298.417314 
L 129.118302 298.417314 
L 129.118302 297.890628 
L 129.347769 297.890628 
L 129.347769 296.837256 
L 130.236587 296.837256 
L 130.236587 295.783884 
L 131.439773 295.783884 
L 131.439773 294.730511 
L 133.352844 294.730511 
L 133.352844 294.203825 
L 133.667073 294.203825 
L 133.755823 293.150453 
L 133.975741 293.150453 
L 133.975741 292.623767 
L 134.787017 292.623767 
L 134.787017 291.570395 
L 135.035562 291.570395 
L 135.035562 291.043709 
L 135.482227 291.043709 
L 135.482227 290.517023 
L 136.418789 290.517023 
L 136.418789 289.990337 
L 136.831795 289.990337 
L 136.942755 288.936964 
L 137.271464 288.936964 
L 137.271464 287.883592 
L 137.415591 287.883592 
L 137.415591 287.356906 
L 137.558536 287.356906 
L 137.594091 285.776848 
L 137.735587 285.776848 
L 137.735587 284.723476 
L 138.153314 284.723476 
L 138.256201 283.143418 
L 138.290362 283.143418 
L 138.290362 282.616732 
L 138.527635 282.616732 
L 138.561269 281.563359 
L 138.828032 281.563359 
L 138.927025 280.509987 
L 138.99271 280.509987 
L 139.058148 279.456615 
L 139.155847 279.456615 
L 139.155847 278.929929 
L 139.477614 278.929929 
L 139.541262 277.349871 
L 139.9494 277.349871 
L 139.9494 276.823185 
L 140.073083 276.823185 
L 140.073083 276.296499 
L 140.438956 276.296499 
L 140.438956 275.769812 
L 140.88576 275.769812 
L 140.88576 275.243126 
L 141.090414 275.243126 
L 141.090414 274.71644 
L 141.20629 274.71644 
L 141.292695 273.136382 
L 141.321401 273.136382 
L 141.321401 272.609696 
L 141.435758 272.609696 
L 141.46423 270.502952 
L 141.662245 270.502952 
L 141.746425 268.922893 
L 141.830201 268.922893 
L 141.941279 266.289463 
L 142.106582 266.289463 
L 142.106582 264.709405 
L 142.324576 264.709405 
L 142.351634 263.656033 
L 142.646541 263.656033 
L 142.673105 262.60266 
L 142.884173 262.60266 
L 142.884173 262.075974 
L 143.040814 262.075974 
L 143.144465 259.96923 
L 143.628567 259.96923 
L 143.728793 258.915858 
L 143.778691 258.915858 
L 143.778691 258.389172 
L 144.124035 258.389172 
L 144.124035 257.862486 
L 144.269971 257.862486 
L 144.269971 257.3358 
L 144.462672 257.3358 
L 144.462672 256.282427 
L 144.888619 256.282427 
L 144.888619 255.755741 
L 145.120836 255.755741 
L 145.212864 254.702369 
L 145.372754 254.702369 
L 145.463466 253.648997 
L 145.553708 253.648997 
L 145.576196 252.595625 
L 145.665858 252.595625 
L 145.688202 251.015567 
L 145.932112 251.015567 
L 145.954117 249.962195 
L 146.107383 249.962195 
L 146.107383 248.382136 
L 146.367029 248.382136 
L 146.388493 247.328764 
L 146.495417 247.328764 
L 146.516724 246.275392 
L 146.686244 246.275392 
L 146.791364 244.168648 
L 146.916676 244.168648 
L 146.916676 243.115275 
L 147.061745 243.115275 
L 147.164632 242.061903 
L 147.185137 242.061903 
L 147.185137 241.535217 
L 147.327999 241.535217 
L 147.409112 239.428473 
L 147.509976 239.428473 
L 147.61026 238.375101 
L 147.670154 238.375101 
L 147.749695 237.321729 
L 147.986163 237.321729 
L 148.005725 236.268356 
L 148.103206 236.268356 
L 148.142046 233.10824 
L 148.219468 233.10824 
L 148.27731 230.47481 
L 148.334961 230.47481 
L 148.392421 228.368065 
L 148.48777 228.368065 
L 148.48777 227.841379 
L 148.601505 227.841379 
L 148.639252 225.207949 
L 148.752007 225.207949 
L 148.826773 223.627891 
L 148.901221 223.627891 
L 148.993835 218.887716 
L 149.067574 218.887716 
L 149.177602 216.780971 
L 149.341352 216.780971 
L 149.431665 214.674227 
L 149.485628 214.674227 
L 149.593058 210.460738 
L 149.628721 210.460738 
L 149.699829 208.88068 
L 149.770648 208.88068 
L 149.85877 207.300622 
L 149.893895 207.300622 
L 149.893895 206.773936 
L 150.016276 206.773936 
L 150.103169 204.140506 
L 150.172372 204.140506 
L 150.258492 203.087133 
L 150.327083 203.087133 
L 150.429467 200.453703 
L 150.480434 200.453703 
L 150.54816 197.820273 
L 150.598782 197.820273 
L 150.649257 196.7669 
L 150.716332 196.7669 
L 150.816462 190.446667 
L 150.94908 190.446667 
L 151.047887 188.339923 
L 151.080698 188.339923 
L 151.162458 184.653121 
L 151.21133 184.653121 
L 151.276281 182.01969 
L 151.340991 182.01969 
L 151.437608 178.859574 
L 151.453659 178.859574 
L 151.533692 176.752829 
L 151.62925 176.752829 
L 151.660987 175.172771 
L 151.803091 175.172771 
L 151.897188 172.012655 
L 151.944047 172.012655 
L 152.052897 167.27248 
L 152.09934 167.27248 
L 152.130233 166.219108 
L 152.222586 166.219108 
L 152.222586 165.692422 
L 152.375429 165.692422 
L 152.436193 162.532305 
L 152.496747 162.532305 
L 152.587184 160.425561 
L 152.617226 160.425561 
L 152.632227 158.845503 
L 152.781537 158.845503 
L 152.855715 155.1587 
L 152.900071 155.1587 
L 152.900071 154.632014 
L 153.017805 154.632014 
L 153.105587 152.52527 
L 153.13475 152.52527 
L 153.178403 151.471897 
L 153.250915 151.471897 
L 153.351929 147.258409 
L 153.40939 147.258409 
L 153.509492 145.151665 
L 153.523746 145.151665 
L 153.580644 141.464862 
L 153.707991 141.464862 
L 153.806399 136.724687 
L 153.820412 136.724687 
L 153.876352 132.511199 
L 153.946025 132.511199 
L 154.001564 131.457826 
L 154.070741 131.457826 
L 154.180855 128.824396 
L 154.249325 128.824396 
L 154.358321 124.610907 
L 154.412564 124.610907 
L 154.520548 121.450791 
L 154.533999 121.450791 
L 154.614488 117.763988 
L 154.654594 117.763988 
L 154.761093 111.443755 
L 154.77436 111.443755 
L 154.880133 103.543464 
L 154.919633 103.543464 
L 155.024532 101.963406 
L 155.050658 101.963406 
L 155.076745 99.329976 
L 155.219531 99.329976 
L 155.28405 97.223231 
L 155.335493 97.223231 
L 155.437927 95.643173 
L 155.476185 95.643173 
L 155.565128 89.32294 
L 155.590458 89.32294 
L 155.691409 87.742882 
L 155.703987 87.742882 
L 155.729115 85.636137 
L 155.841748 85.636137 
L 155.904009 81.949335 
L 155.97843 81.949335 
L 155.97843 81.422649 
L 156.101764 81.422649 
L 156.175347 78.262532 
L 156.248622 78.262532 
L 156.345845 75.102416 
L 156.382164 75.102416 
L 156.466616 70.888927 
L 156.526689 70.888927 
L 156.634302 67.202125 
L 156.717545 67.202125 
L 156.800392 62.988636 
L 156.835778 62.988636 
L 156.918066 54.561659 
L 156.976607 54.561659 
L 157.069866 52.9816 
L 157.104709 52.9816 
L 157.185742 50.34817 
L 157.266399 50.34817 
L 157.346685 47.71474 
L 157.380981 47.71474 
L 157.415209 46.134681 
L 157.551454 46.134681 
L 157.61918 44.027937 
L 157.765022 44.027937 
L 157.765022 42.974565 
L 157.964965 42.974565 
L 158.075062 38.23439 
L 158.118907 38.23439 
L 158.118907 37.707704 
L 158.28235 37.707704 
L 158.325678 35.60096 
L 158.487203 35.60096 
L 158.51933 34.020902 
L 158.83738 34.020902 
L 158.83738 33.494215 
L 159.118749 33.494215 
L 159.211539 32.440843 
L 159.252621 32.440843 
L 159.252621 31.914157 
L 159.405822 31.914157 
L 159.405822 30.860785 
L 159.758143 30.860785 
L 159.758143 30.334099 
L 338.688 30.334099 
L 338.688 30.334099 
" style="fill:none;stroke:#ff0000;stroke-linecap:square;stroke-width:1.5;"/>
   </g>
   <g id="line2d_48">
    <defs>
     <path d="M 0 -6 
L -5.196152 -3 
L -5.196152 3 
L -0 6 
L 5.196152 3 
L 5.196152 -3 
z
" id="m33f1e6f0d3" style="stroke:#ff0000;stroke-linejoin:miter;stroke-width:1.5;"/>
    </defs>
    <g>
     <use style="fill-opacity:0;stroke:#ff0000;stroke-linejoin:miter;stroke-width:1.5;" x="153.351929" xlink:href="#m33f1e6f0d3" y="147.785095"/>
     <use style="fill-opacity:0;stroke:#ff0000;stroke-linejoin:miter;stroke-width:1.5;" x="159.758143" xlink:href="#m33f1e6f0d3" y="30.860785"/>
     <use style="fill-opacity:0;stroke:#ff0000;stroke-linejoin:miter;stroke-width:1.5;" x="159.758143" xlink:href="#m33f1e6f0d3" y="30.334099"/>
     <use style="fill-opacity:0;stroke:#ff0000;stroke-linejoin:miter;stroke-width:1.5;" x="159.758143" xlink:href="#m33f1e6f0d3" y="30.334099"/>
     <use style="fill-opacity:0;stroke:#ff0000;stroke-linejoin:miter;stroke-width:1.5;" x="338.688" xlink:href="#m33f1e6f0d3" y="30.334099"/>
    </g>
   </g>
   <g id="line2d_49">
    <path style="fill:none;stroke:#ff0000;stroke-linecap:square;stroke-width:1.5;"/>
    <g/>
   </g>
   <g id="line2d_50">
    <defs>
     <path d="M 0 1.5 
C 0.397805 1.5 0.77937 1.341951 1.06066 1.06066 
C 1.341951 0.77937 1.5 0.397805 1.5 0 
C 1.5 -0.397805 1.341951 -0.77937 1.06066 -1.06066 
C 0.77937 -1.341951 0.397805 -1.5 0 -1.5 
C -0.397805 -1.5 -0.77937 -1.341951 -1.06066 -1.06066 
C -1.341951 -0.77937 -1.5 -0.397805 -1.5 0 
C -1.5 0.397805 -1.341951 0.77937 -1.06066 1.06066 
C -0.77937 1.341951 -0.397805 1.5 0 1.5 
z
" id="mcc0880f402" style="stroke:#ff7500;"/>
    </defs>
    <g>
     <use style="fill:#ff7500;stroke:#ff7500;" x="158.753132" xlink:href="#mcc0880f402" y="30.334099"/>
     <use style="fill:#ff7500;stroke:#ff7500;" x="158.753132" xlink:href="#mcc0880f402" y="30.334099"/>
    </g>
   </g>
   <g id="line2d_51">
    <path d="M 124.292765 298.944 
L 124.292765 297.890628 
L 125.961828 297.890628 
L 125.961828 297.363942 
L 128.046609 297.363942 
L 128.046609 296.837256 
L 128.885774 296.837256 
L 128.885774 296.31057 
L 129.686407 296.31057 
L 129.686407 295.783884 
L 131.133813 295.783884 
L 131.133813 294.730511 
L 132.084827 294.730511 
L 132.084827 294.203825 
L 132.565279 294.203825 
L 132.565279 293.677139 
L 133.755823 293.677139 
L 133.755823 293.150453 
L 134.149701 293.150453 
L 134.149701 292.623767 
L 134.279041 292.623767 
L 134.321942 291.570395 
L 135.44209 291.570395 
L 135.44209 291.043709 
L 135.602085 291.043709 
L 135.602085 289.990337 
L 136.189322 289.990337 
L 136.189322 289.463651 
L 136.304433 289.463651 
L 136.304433 288.410278 
L 136.418789 288.410278 
L 136.418789 287.883592 
L 136.68274 287.883592 
L 136.68274 287.356906 
L 136.942755 287.356906 
L 137.053015 285.250162 
L 137.271464 285.250162 
L 137.37967 283.670104 
L 137.875944 283.670104 
L 137.980475 282.090045 
L 138.118883 282.090045 
L 138.153314 280.509987 
L 138.256201 280.509987 
L 138.256201 279.456615 
L 138.493936 279.456615 
L 138.493936 278.403243 
L 138.761723 278.403243 
L 138.761723 277.876557 
L 138.927025 277.876557 
L 138.927025 276.823185 
L 139.155847 276.823185 
L 139.188293 275.769812 
L 139.285267 275.769812 
L 139.285267 275.243126 
L 139.541262 275.243126 
L 139.541262 274.71644 
L 139.762215 274.71644 
L 139.824833 268.922893 
L 139.887228 268.922893 
L 139.887228 268.396207 
L 140.195896 268.396207 
L 140.287441 267.342835 
L 140.408758 267.342835 
L 140.408758 266.816149 
L 140.589166 266.816149 
L 140.619053 261.549288 
L 140.767727 261.549288 
L 140.767727 260.495916 
L 140.944478 260.495916 
L 140.944478 259.96923 
L 141.235139 259.96923 
L 141.235139 259.442544 
L 141.378673 259.442544 
L 141.378673 258.915858 
L 141.549369 258.915858 
L 141.605898 257.3358 
L 141.662245 257.3358 
L 141.662245 256.809114 
L 141.996555 256.809114 
L 142.024126 255.229055 
L 142.699628 255.229055 
L 142.699628 254.175683 
L 142.831645 254.175683 
L 142.831645 253.648997 
L 143.066785 253.648997 
L 143.170282 252.068939 
L 143.298796 252.068939 
L 143.298796 251.542253 
L 143.653678 251.542253 
L 143.728793 249.962195 
L 143.952218 249.962195 
L 144.001481 247.85545 
L 144.148442 247.85545 
L 144.148442 247.328764 
L 144.318346 247.328764 
L 144.366588 245.748706 
L 144.605813 245.748706 
L 144.700592 244.695334 
L 144.818346 244.695334 
L 144.91198 242.588589 
L 144.93531 242.588589 
L 144.93531 242.061903 
L 145.350002 242.061903 
L 145.418169 240.481845 
L 145.508645 240.481845 
L 145.598655 238.901787 
L 145.621085 238.901787 
L 145.710517 236.795043 
L 145.732804 236.795043 
L 145.777292 235.214984 
L 145.888018 235.214984 
L 145.998045 231.528182 
L 146.172658 231.528182 
L 146.280909 230.47481 
L 146.431341 230.47481 
L 146.516724 228.368065 
L 146.60169 228.368065 
L 146.686244 226.788007 
L 146.812312 226.788007 
L 146.854132 225.207949 
L 147.246507 225.207949 
L 147.348313 223.101204 
L 147.388869 223.101204 
L 147.48985 218.887716 
L 147.530079 218.887716 
L 147.61026 215.727599 
L 147.670154 215.727599 
L 147.769524 214.147541 
L 147.946974 214.147541 
L 148.044783 212.567483 
L 148.064279 212.567483 
L 148.142046 209.934052 
L 148.1808 209.934052 
L 148.258051 208.88068 
L 148.354135 208.88068 
L 148.449693 204.667192 
L 148.48777 204.667192 
L 148.48777 204.140506 
L 148.620389 204.140506 
L 148.639252 203.087133 
L 148.733265 203.087133 
L 148.808112 200.980389 
L 148.845415 200.980389 
L 148.882639 198.873645 
L 148.956849 198.873645 
L 149.049169 196.240214 
L 149.104327 196.240214 
L 149.195872 193.606784 
L 149.323233 193.606784 
L 149.359452 190.446667 
L 149.449671 190.446667 
L 149.521512 186.233179 
L 149.610898 186.233179 
L 149.717561 182.01969 
L 149.735275 182.01969 
L 149.841182 179.38626 
L 150.051085 179.38626 
L 150.085825 178.332888 
L 150.172372 178.332888 
L 150.275665 175.172771 
L 150.292822 175.172771 
L 150.395406 173.066027 
L 150.446473 173.066027 
L 150.51433 170.959282 
L 150.598782 170.959282 
L 150.699587 167.27248 
L 150.716332 167.27248 
L 150.799813 165.165736 
L 150.94908 165.165736 
L 151.015013 163.058991 
L 151.080698 163.058991 
L 151.178764 160.952247 
L 151.195055 160.952247 
L 151.260066 157.265444 
L 151.340991 157.265444 
L 151.421542 154.632014 
L 151.453659 154.632014 
L 151.549655 151.998584 
L 151.597455 151.998584 
L 151.708484 148.311781 
L 151.740076 148.311781 
L 151.834513 144.624978 
L 151.912822 144.624978 
L 151.975216 141.991548 
L 152.09934 141.991548 
L 152.130233 139.358118 
L 152.237931 139.358118 
L 152.329717 135.144629 
L 152.421022 135.144629 
L 152.481628 131.984513 
L 152.587184 131.984513 
L 152.692105 128.824396 
L 152.751777 128.824396 
L 152.826082 126.190966 
L 152.870513 126.190966 
L 152.973748 123.030849 
L 152.988446 123.030849 
L 153.090987 118.817361 
L 153.105587 118.817361 
L 153.207444 113.5505 
L 153.265382 113.5505 
L 153.351929 111.443755 
L 153.380683 111.443755 
L 153.452361 109.337011 
L 153.537988 109.337011 
L 153.580644 107.756953 
L 153.665645 107.756953 
L 153.736164 104.596836 
L 153.778339 104.596836 
L 153.834414 102.490092 
L 153.890309 102.490092 
L 153.973817 99.856662 
L 154.029268 99.856662 
L 154.139643 96.696545 
L 154.153391 96.696545 
L 154.262987 90.376312 
L 154.331136 90.376312 
L 154.426099 84.582765 
L 154.453136 84.582765 
L 154.56087 80.895963 
L 154.587699 80.895963 
L 154.68128 78.262532 
L 154.734529 78.262532 
L 154.840544 75.102416 
L 154.880133 75.102416 
L 154.959044 72.995672 
L 155.050658 72.995672 
L 155.128803 68.255497 
L 155.219531 68.255497 
L 155.322646 62.988636 
L 155.335493 62.988636 
L 155.412374 60.355206 
L 155.488919 60.355206 
L 155.565128 58.775147 
L 155.741666 58.775147 
L 155.841748 57.195089 
L 155.94126 57.195089 
L 156.040206 51.928228 
L 156.052535 51.928228 
L 156.150854 47.188054 
L 156.199806 47.188054 
L 156.297301 45.081309 
L 156.345845 45.081309 
L 156.382164 43.501251 
L 156.466616 43.501251 
L 156.550661 41.394507 
L 156.586556 41.394507 
L 156.681918 37.707704 
L 156.859328 37.707704 
L 156.859328 36.654332 
L 157.15106 36.654332 
L 157.197287 35.60096 
L 157.369557 35.60096 
L 157.369557 34.547588 
L 157.528821 34.547588 
L 157.551454 33.494215 
L 157.820792 33.494215 
L 157.876384 31.387471 
L 158.647247 31.387471 
L 158.753132 30.334099 
L 338.688 30.334099 
L 338.688 30.334099 
" style="fill:none;stroke:#ff7500;stroke-linecap:square;stroke-width:1.5;"/>
   </g>
   <g id="line2d_52">
    <defs>
     <path d="M 0 -6 
L -1.347084 -1.854102 
L -5.706339 -1.854102 
L -2.179628 0.708204 
L -3.526712 4.854102 
L -0 2.291796 
L 3.526712 4.854102 
L 2.179628 0.708204 
L 5.706339 -1.854102 
L 1.347084 -1.854102 
z
" id="mc49783ed7e" style="stroke:#ff7500;stroke-linejoin:bevel;stroke-width:1.5;"/>
    </defs>
    <g>
     <use style="fill-opacity:0;stroke:#ff7500;stroke-linejoin:bevel;stroke-width:1.5;" x="149.485628" xlink:href="#mc49783ed7e" y="188.866609"/>
     <use style="fill-opacity:0;stroke:#ff7500;stroke-linejoin:bevel;stroke-width:1.5;" x="158.753132" xlink:href="#mc49783ed7e" y="30.860785"/>
     <use style="fill-opacity:0;stroke:#ff7500;stroke-linejoin:bevel;stroke-width:1.5;" x="158.753132" xlink:href="#mc49783ed7e" y="30.334099"/>
     <use style="fill-opacity:0;stroke:#ff7500;stroke-linejoin:bevel;stroke-width:1.5;" x="158.753132" xlink:href="#mc49783ed7e" y="30.334099"/>
     <use style="fill-opacity:0;stroke:#ff7500;stroke-linejoin:bevel;stroke-width:1.5;" x="338.688" xlink:href="#mc49783ed7e" y="30.334099"/>
    </g>
   </g>
   <g id="line2d_53">
    <path style="fill:none;stroke:#ff7500;stroke-linecap:square;stroke-width:1.5;"/>
    <g/>
   </g>
   <g id="line2d_54">
    <path d="M 338.688 30.334099 
L 369.60768 293.571802 
" style="fill:none;stroke:#ff00ff;stroke-linecap:square;stroke-width:1.5;"/>
    <g>
     <use style="fill-opacity:0;stroke:#ff00ff;stroke-linejoin:miter;stroke-width:1.5;" x="338.688" xlink:href="#mee8875fc86" y="30.334099"/>
     <use style="fill-opacity:0;stroke:#ff00ff;stroke-linejoin:miter;stroke-width:1.5;" x="369.60768" xlink:href="#mee8875fc86" y="293.571802"/>
    </g>
   </g>
   <g id="line2d_55">
    <path d="M 338.688 30.334099 
L 369.60768 241.998701 
" style="fill:none;stroke:#000080;stroke-linecap:square;stroke-width:1.5;"/>
    <g>
     <use style="fill-opacity:0;stroke:#000080;stroke-width:1.5;" x="338.688" xlink:href="#m338cad7d67" y="30.334099"/>
     <use style="fill-opacity:0;stroke:#000080;stroke-width:1.5;" x="369.60768" xlink:href="#m338cad7d67" y="241.998701"/>
    </g>
   </g>
   <g id="line2d_56">
    <path d="M 338.688 30.334099 
L 369.60768 190.4256 
" style="fill:none;stroke:#ff0000;stroke-linecap:square;stroke-width:1.5;"/>
    <g>
     <use style="fill-opacity:0;stroke:#ff0000;stroke-linejoin:miter;stroke-width:1.5;" x="338.688" xlink:href="#m33f1e6f0d3" y="30.334099"/>
     <use style="fill-opacity:0;stroke:#ff0000;stroke-linejoin:miter;stroke-width:1.5;" x="369.60768" xlink:href="#m33f1e6f0d3" y="190.4256"/>
    </g>
   </g>
   <g id="line2d_57">
    <path d="M 338.688 30.334099 
L 369.60768 138.852499 
" style="fill:none;stroke:#ff7500;stroke-linecap:square;stroke-width:1.5;"/>
    <g>
     <use style="fill-opacity:0;stroke:#ff7500;stroke-linejoin:bevel;stroke-width:1.5;" x="338.688" xlink:href="#mc49783ed7e" y="30.334099"/>
     <use style="fill-opacity:0;stroke:#ff7500;stroke-linejoin:bevel;stroke-width:1.5;" x="369.60768" xlink:href="#mc49783ed7e" y="138.852499"/>
    </g>
   </g>
   <g id="line2d_58">
    <path d="M 338.688 30.334099 
L 369.60768 87.279398 
" style="fill:none;stroke:#000080;stroke-linecap:square;stroke-width:1.5;"/>
    <g>
     <use style="fill-opacity:0;stroke:#000080;stroke-width:1.5;" x="338.688" xlink:href="#m338cad7d67" y="30.334099"/>
     <use style="fill-opacity:0;stroke:#000080;stroke-width:1.5;" x="369.60768" xlink:href="#m338cad7d67" y="87.279398"/>
    </g>
   </g>
   <g id="line2d_59">
    <path d="M 338.688 298.944 
L 338.688 30.334099 
" style="fill:none;stroke:#000000;stroke-linecap:square;stroke-width:1.5;"/>
   </g>
   <g id="patch_3">
    <path d="M 57.6 298.944 
L 57.6 27.648 
" style="fill:none;stroke:#000000;stroke-linecap:square;stroke-linejoin:miter;stroke-width:0.8;"/>
   </g>
   <g id="patch_4">
    <path d="M 338.688 298.944 
L 338.688 27.648 
" style="fill:none;stroke:#000000;stroke-linecap:square;stroke-linejoin:miter;stroke-width:0.8;"/>
   </g>
   <g id="patch_5">
    <path d="M 57.6 298.944 
L 338.688 298.944 
" style="fill:none;stroke:#000000;stroke-linecap:square;stroke-linejoin:miter;stroke-width:0.8;"/>
   </g>
   <g id="patch_6">
    <path d="M 57.6 27.648 
L 338.688 27.648 
" style="fill:none;stroke:#000000;stroke-linecap:square;stroke-linejoin:miter;stroke-width:0.8;"/>
   </g>
   <g id="text_13">
    <!-- 025s-2e4 -->
    <defs>
     <path d="M 10.796875 72.90625 
L 49.515625 72.90625 
L 49.515625 64.59375 
L 19.828125 64.59375 
L 19.828125 46.734375 
Q 21.96875 47.46875 24.109375 47.828125 
Q 26.265625 48.1875 28.421875 48.1875 
Q 40.625 48.1875 47.75 41.5 
Q 54.890625 34.8125 54.890625 23.390625 
Q 54.890625 11.625 47.5625 5.09375 
Q 40.234375 -1.421875 26.90625 -1.421875 
Q 22.3125 -1.421875 17.546875 -0.640625 
Q 12.796875 0.140625 7.71875 1.703125 
L 7.71875 11.625 
Q 12.109375 9.234375 16.796875 8.0625 
Q 21.484375 6.890625 26.703125 6.890625 
Q 35.15625 6.890625 40.078125 11.328125 
Q 45.015625 15.765625 45.015625 23.390625 
Q 45.015625 31 40.078125 35.4375 
Q 35.15625 39.890625 26.703125 39.890625 
Q 22.75 39.890625 18.8125 39.015625 
Q 14.890625 38.140625 10.796875 36.28125 
z
" id="DejaVuSans-53"/>
    </defs>
    <g transform="translate(375.22944 298.262739)scale(0.17 -0.17)">
     <use xlink:href="#DejaVuSans-48"/>
     <use x="63.623047" xlink:href="#DejaVuSans-50"/>
     <use x="127.246094" xlink:href="#DejaVuSans-53"/>
     <use x="190.869141" xlink:href="#DejaVuSans-115"/>
     <use x="242.96875" xlink:href="#DejaVuSans-45"/>
     <use x="279.052734" xlink:href="#DejaVuSans-50"/>
     <use x="342.675781" xlink:href="#DejaVuSans-101"/>
     <use x="404.199219" xlink:href="#DejaVuSans-52"/>
    </g>
   </g>
   <g id="text_14">
    <!-- 100-1e5 -->
    <g transform="translate(375.22944 246.689638)scale(0.17 -0.17)">
     <use xlink:href="#DejaVuSans-49"/>
     <use x="63.623047" xlink:href="#DejaVuSans-48"/>
     <use x="127.246094" xlink:href="#DejaVuSans-48"/>
     <use x="190.869141" xlink:href="#DejaVuSans-45"/>
     <use x="226.953125" xlink:href="#DejaVuSans-49"/>
     <use x="290.576172" xlink:href="#DejaVuSans-101"/>
     <use x="352.099609" xlink:href="#DejaVuSans-53"/>
    </g>
   </g>
   <g id="text_15">
    <!-- 050s-2e4 -->
    <g transform="translate(375.22944 195.116537)scale(0.17 -0.17)">
     <use xlink:href="#DejaVuSans-48"/>
     <use x="63.623047" xlink:href="#DejaVuSans-53"/>
     <use x="127.246094" xlink:href="#DejaVuSans-48"/>
     <use x="190.869141" xlink:href="#DejaVuSans-115"/>
     <use x="242.96875" xlink:href="#DejaVuSans-45"/>
     <use x="279.052734" xlink:href="#DejaVuSans-50"/>
     <use x="342.675781" xlink:href="#DejaVuSans-101"/>
     <use x="404.199219" xlink:href="#DejaVuSans-52"/>
    </g>
   </g>
   <g id="text_16">
    <!-- 075s-2e4 -->
    <defs>
     <path d="M 8.203125 72.90625 
L 55.078125 72.90625 
L 55.078125 68.703125 
L 28.609375 0 
L 18.3125 0 
L 43.21875 64.59375 
L 8.203125 64.59375 
z
" id="DejaVuSans-55"/>
    </defs>
    <g transform="translate(375.22944 143.543437)scale(0.17 -0.17)">
     <use xlink:href="#DejaVuSans-48"/>
     <use x="63.623047" xlink:href="#DejaVuSans-55"/>
     <use x="127.246094" xlink:href="#DejaVuSans-53"/>
     <use x="190.869141" xlink:href="#DejaVuSans-115"/>
     <use x="242.96875" xlink:href="#DejaVuSans-45"/>
     <use x="279.052734" xlink:href="#DejaVuSans-50"/>
     <use x="342.675781" xlink:href="#DejaVuSans-101"/>
     <use x="404.199219" xlink:href="#DejaVuSans-52"/>
    </g>
   </g>
   <g id="text_17">
    <!-- 100-2e4 -->
    <g transform="translate(375.22944 91.970336)scale(0.17 -0.17)">
     <use xlink:href="#DejaVuSans-49"/>
     <use x="63.623047" xlink:href="#DejaVuSans-48"/>
     <use x="127.246094" xlink:href="#DejaVuSans-48"/>
     <use x="190.869141" xlink:href="#DejaVuSans-45"/>
     <use x="226.953125" xlink:href="#DejaVuSans-50"/>
     <use x="290.576172" xlink:href="#DejaVuSans-101"/>
     <use x="352.099609" xlink:href="#DejaVuSans-52"/>
    </g>
   </g>
   <g id="text_18">
    <!-- best 2009 -->
    <defs>
     <path d="M 48.6875 27.296875 
Q 48.6875 37.203125 44.609375 42.84375 
Q 40.53125 48.484375 33.40625 48.484375 
Q 26.265625 48.484375 22.1875 42.84375 
Q 18.109375 37.203125 18.109375 27.296875 
Q 18.109375 17.390625 22.1875 11.75 
Q 26.265625 6.109375 33.40625 6.109375 
Q 40.53125 6.109375 44.609375 11.75 
Q 48.6875 17.390625 48.6875 27.296875 
z
M 18.109375 46.390625 
Q 20.953125 51.265625 25.265625 53.625 
Q 29.59375 56 35.59375 56 
Q 45.5625 56 51.78125 48.09375 
Q 58.015625 40.1875 58.015625 27.296875 
Q 58.015625 14.40625 51.78125 6.484375 
Q 45.5625 -1.421875 35.59375 -1.421875 
Q 29.59375 -1.421875 25.265625 0.953125 
Q 20.953125 3.328125 18.109375 8.203125 
L 18.109375 0 
L 9.078125 0 
L 9.078125 75.984375 
L 18.109375 75.984375 
z
" id="DejaVuSans-98"/>
     <path d="M 10.984375 1.515625 
L 10.984375 10.5 
Q 14.703125 8.734375 18.5 7.8125 
Q 22.3125 6.890625 25.984375 6.890625 
Q 35.75 6.890625 40.890625 13.453125 
Q 46.046875 20.015625 46.78125 33.40625 
Q 43.953125 29.203125 39.59375 26.953125 
Q 35.25 24.703125 29.984375 24.703125 
Q 19.046875 24.703125 12.671875 31.3125 
Q 6.296875 37.9375 6.296875 49.421875 
Q 6.296875 60.640625 12.9375 67.421875 
Q 19.578125 74.21875 30.609375 74.21875 
Q 43.265625 74.21875 49.921875 64.515625 
Q 56.59375 54.828125 56.59375 36.375 
Q 56.59375 19.140625 48.40625 8.859375 
Q 40.234375 -1.421875 26.421875 -1.421875 
Q 22.703125 -1.421875 18.890625 -0.6875 
Q 15.09375 0.046875 10.984375 1.515625 
z
M 30.609375 32.421875 
Q 37.25 32.421875 41.125 36.953125 
Q 45.015625 41.5 45.015625 49.421875 
Q 45.015625 57.28125 41.125 61.84375 
Q 37.25 66.40625 30.609375 66.40625 
Q 23.96875 66.40625 20.09375 61.84375 
Q 16.21875 57.28125 16.21875 49.421875 
Q 16.21875 41.5 20.09375 36.953125 
Q 23.96875 32.421875 30.609375 32.421875 
z
" id="DejaVuSans-57"/>
    </defs>
    <g transform="translate(375.22944 40.397235)scale(0.17 -0.17)">
     <use xlink:href="#DejaVuSans-98"/>
     <use x="63.476562" xlink:href="#DejaVuSans-101"/>
     <use x="125" xlink:href="#DejaVuSans-115"/>
     <use x="177.099609" xlink:href="#DejaVuSans-116"/>
     <use x="216.308594" xlink:href="#DejaVuSans-32"/>
     <use x="248.095703" xlink:href="#DejaVuSans-50"/>
     <use x="311.71875" xlink:href="#DejaVuSans-48"/>
     <use x="375.341797" xlink:href="#DejaVuSans-48"/>
     <use x="438.964844" xlink:href="#DejaVuSans-57"/>
    </g>
   </g>
   <g id="text_19">
    <!-- bbob f2, 5-D -->
    <defs>
     <path d="M 19.671875 64.796875 
L 19.671875 8.109375 
L 31.59375 8.109375 
Q 46.6875 8.109375 53.6875 14.9375 
Q 60.6875 21.78125 60.6875 36.53125 
Q 60.6875 51.171875 53.6875 57.984375 
Q 46.6875 64.796875 31.59375 64.796875 
z
M 9.8125 72.90625 
L 30.078125 72.90625 
Q 51.265625 72.90625 61.171875 64.09375 
Q 71.09375 55.28125 71.09375 36.53125 
Q 71.09375 17.671875 61.125 8.828125 
Q 51.171875 0 30.078125 0 
L 9.8125 0 
z
" id="DejaVuSans-68"/>
    </defs>
    <g transform="translate(60.41088 38.111366)scale(0.102 -0.102)">
     <use xlink:href="#DejaVuSans-98"/>
     <use x="63.476562" xlink:href="#DejaVuSans-98"/>
     <use x="126.953125" xlink:href="#DejaVuSans-111"/>
     <use x="188.134766" xlink:href="#DejaVuSans-98"/>
     <use x="251.611328" xlink:href="#DejaVuSans-32"/>
     <use x="283.398438" xlink:href="#DejaVuSans-102"/>
     <use x="318.603516" xlink:href="#DejaVuSans-50"/>
     <use x="382.226562" xlink:href="#DejaVuSans-44"/>
     <use x="414.013672" xlink:href="#DejaVuSans-32"/>
     <use x="445.800781" xlink:href="#DejaVuSans-53"/>
     <use x="509.423828" xlink:href="#DejaVuSans-45"/>
     <use x="545.507812" xlink:href="#DejaVuSans-68"/>
    </g>
    <!-- 51 targets: 100..1e-08 -->
    <defs>
     <path d="M 11.71875 12.40625 
L 22.015625 12.40625 
L 22.015625 0 
L 11.71875 0 
z
M 11.71875 51.703125 
L 22.015625 51.703125 
L 22.015625 39.3125 
L 11.71875 39.3125 
z
" id="DejaVuSans-58"/>
    </defs>
    <g transform="translate(60.41088 49.533135)scale(0.102 -0.102)">
     <use xlink:href="#DejaVuSans-53"/>
     <use x="63.623047" xlink:href="#DejaVuSans-49"/>
     <use x="127.246094" xlink:href="#DejaVuSans-32"/>
     <use x="159.033203" xlink:href="#DejaVuSans-116"/>
     <use x="198.242188" xlink:href="#DejaVuSans-97"/>
     <use x="259.521484" xlink:href="#DejaVuSans-114"/>
     <use x="300.619141" xlink:href="#DejaVuSans-103"/>
     <use x="364.095703" xlink:href="#DejaVuSans-101"/>
     <use x="425.619141" xlink:href="#DejaVuSans-116"/>
     <use x="464.828125" xlink:href="#DejaVuSans-115"/>
     <use x="516.927734" xlink:href="#DejaVuSans-58"/>
     <use x="550.619141" xlink:href="#DejaVuSans-32"/>
     <use x="582.40625" xlink:href="#DejaVuSans-49"/>
     <use x="646.029297" xlink:href="#DejaVuSans-48"/>
     <use x="709.652344" xlink:href="#DejaVuSans-48"/>
     <use x="773.275391" xlink:href="#DejaVuSans-46"/>
     <use x="805.0625" xlink:href="#DejaVuSans-46"/>
     <use x="836.849609" xlink:href="#DejaVuSans-49"/>
     <use x="900.472656" xlink:href="#DejaVuSans-101"/>
     <use x="961.996094" xlink:href="#DejaVuSans-45"/>
     <use x="998.080078" xlink:href="#DejaVuSans-48"/>
     <use x="1061.703125" xlink:href="#DejaVuSans-56"/>
    </g>
    <!-- 15 instances -->
    <g transform="translate(60.41088 60.954904)scale(0.102 -0.102)">
     <use xlink:href="#DejaVuSans-49"/>
     <use x="63.623047" xlink:href="#DejaVuSans-53"/>
     <use x="127.246094" xlink:href="#DejaVuSans-32"/>
     <use x="159.033203" xlink:href="#DejaVuSans-105"/>
     <use x="186.816406" xlink:href="#DejaVuSans-110"/>
     <use x="250.195312" xlink:href="#DejaVuSans-115"/>
     <use x="302.294922" xlink:href="#DejaVuSans-116"/>
     <use x="341.503906" xlink:href="#DejaVuSans-97"/>
     <use x="402.783203" xlink:href="#DejaVuSans-110"/>
     <use x="466.162109" xlink:href="#DejaVuSans-99"/>
     <use x="521.142578" xlink:href="#DejaVuSans-101"/>
     <use x="582.666016" xlink:href="#DejaVuSans-115"/>
    </g>
   </g>
   <g id="text_20">
    <!-- v2.3.3.18.73 -->
    <defs>
     <path d="M 40.578125 39.3125 
Q 47.65625 37.796875 51.625 33 
Q 55.609375 28.21875 55.609375 21.1875 
Q 55.609375 10.40625 48.1875 4.484375 
Q 40.765625 -1.421875 27.09375 -1.421875 
Q 22.515625 -1.421875 17.65625 -0.515625 
Q 12.796875 0.390625 7.625 2.203125 
L 7.625 11.71875 
Q 11.71875 9.328125 16.59375 8.109375 
Q 21.484375 6.890625 26.8125 6.890625 
Q 36.078125 6.890625 40.9375 10.546875 
Q 45.796875 14.203125 45.796875 21.1875 
Q 45.796875 27.640625 41.28125 31.265625 
Q 36.765625 34.90625 28.71875 34.90625 
L 20.21875 34.90625 
L 20.21875 43.015625 
L 29.109375 43.015625 
Q 36.375 43.015625 40.234375 45.921875 
Q 44.09375 48.828125 44.09375 54.296875 
Q 44.09375 59.90625 40.109375 62.90625 
Q 36.140625 65.921875 28.71875 65.921875 
Q 24.65625 65.921875 20.015625 65.03125 
Q 15.375 64.15625 9.8125 62.3125 
L 9.8125 71.09375 
Q 15.4375 72.65625 20.34375 73.4375 
Q 25.25 74.21875 29.59375 74.21875 
Q 40.828125 74.21875 47.359375 69.109375 
Q 53.90625 64.015625 53.90625 55.328125 
Q 53.90625 49.265625 50.4375 45.09375 
Q 46.96875 40.921875 40.578125 39.3125 
z
" id="DejaVuSans-51"/>
    </defs>
    <g style="fill:#808080;" transform="translate(166.559625 294.151352)scale(0.1 -0.1)">
     <use xlink:href="#DejaVuSans-118"/>
     <use x="59.179688" xlink:href="#DejaVuSans-50"/>
     <use x="122.802734" xlink:href="#DejaVuSans-46"/>
     <use x="154.589844" xlink:href="#DejaVuSans-51"/>
     <use x="218.212891" xlink:href="#DejaVuSans-46"/>
     <use x="250" xlink:href="#DejaVuSans-51"/>
     <use x="313.623047" xlink:href="#DejaVuSans-46"/>
     <use x="345.410156" xlink:href="#DejaVuSans-49"/>
     <use x="409.033203" xlink:href="#DejaVuSans-56"/>
     <use x="472.65625" xlink:href="#DejaVuSans-46"/>
     <use x="504.443359" xlink:href="#DejaVuSans-55"/>
     <use x="568.066406" xlink:href="#DejaVuSans-51"/>
    </g>
   </g>
   <g id="text_21">
    <!-- 2 Ellipsoid separable -->
    <defs>
     <path d="M 9.8125 72.90625 
L 55.90625 72.90625 
L 55.90625 64.59375 
L 19.671875 64.59375 
L 19.671875 43.015625 
L 54.390625 43.015625 
L 54.390625 34.71875 
L 19.671875 34.71875 
L 19.671875 8.296875 
L 56.78125 8.296875 
L 56.78125 0 
L 9.8125 0 
z
" id="DejaVuSans-69"/>
    </defs>
    <g transform="translate(94.611187 21.648)scale(0.2 -0.2)">
     <use xlink:href="#DejaVuSans-50"/>
     <use x="63.623047" xlink:href="#DejaVuSans-32"/>
     <use x="95.410156" xlink:href="#DejaVuSans-69"/>
     <use x="158.59375" xlink:href="#DejaVuSans-108"/>
     <use x="186.376953" xlink:href="#DejaVuSans-108"/>
     <use x="214.160156" xlink:href="#DejaVuSans-105"/>
     <use x="241.943359" xlink:href="#DejaVuSans-112"/>
     <use x="305.419922" xlink:href="#DejaVuSans-115"/>
     <use x="357.519531" xlink:href="#DejaVuSans-111"/>
     <use x="418.701172" xlink:href="#DejaVuSans-105"/>
     <use x="446.484375" xlink:href="#DejaVuSans-100"/>
     <use x="509.960938" xlink:href="#DejaVuSans-32"/>
     <use x="541.748047" xlink:href="#DejaVuSans-115"/>
     <use x="593.847656" xlink:href="#DejaVuSans-101"/>
     <use x="655.371094" xlink:href="#DejaVuSans-112"/>
     <use x="718.847656" xlink:href="#DejaVuSans-97"/>
     <use x="780.126953" xlink:href="#DejaVuSans-114"/>
     <use x="821.240234" xlink:href="#DejaVuSans-97"/>
     <use x="882.519531" xlink:href="#DejaVuSans-98"/>
     <use x="945.996094" xlink:href="#DejaVuSans-108"/>
     <use x="973.779297" xlink:href="#DejaVuSans-101"/>
    </g>
   </g>
  </g>
 </g>
 <defs>
  <clipPath id="p037c453433">
   <rect height="271.296" width="281.088" x="57.6" y="27.648"/>
  </clipPath>
 </defs>
</svg>
