<?xml version="1.0" encoding="utf-8" standalone="no"?>
<!DOCTYPE svg PUBLIC "-//W3C//DTD SVG 1.1//EN"
  "http://www.w3.org/Graphics/SVG/1.1/DTD/svg11.dtd">
<!-- Created with matplotlib (https://matplotlib.org/) -->
<svg height="345.6pt" version="1.1" viewBox="0 0 460.8 345.6" width="460.8pt" xmlns="http://www.w3.org/2000/svg" xmlns:xlink="http://www.w3.org/1999/xlink">
 <defs>
  <style type="text/css">
*{stroke-linecap:butt;stroke-linejoin:round;}
  </style>
 </defs>
 <g id="figure_1">
  <g id="patch_1">
   <path d="M 0 345.6 
L 460.8 345.6 
L 460.8 0 
L 0 0 
z
" style="fill:#ffffff;"/>
  </g>
  <g id="axes_1">
   <g id="patch_2">
    <path d="M 57.6 298.944 
L 338.688 298.944 
L 338.688 27.648 
L 57.6 27.648 
z
" style="fill:#ffffff;"/>
   </g>
   <g id="line2d_1">
    <path d="M 122.104932 298.944 
L 122.104932 293.677139 
L 126.72349 293.677139 
L 126.72349 288.410278 
L 129.468457 288.410278 
L 129.468457 283.143418 
L 143.150923 283.143418 
L 143.150923 277.876557 
L 146.074653 277.876557 
L 146.074653 272.609696 
L 147.86833 272.609696 
L 147.86833 267.342835 
L 149.049169 267.342835 
L 149.049169 262.075974 
L 154.288574 262.075974 
L 154.288574 256.809114 
L 154.626195 256.809114 
L 154.626195 251.542253 
L 154.832284 251.542253 
L 154.832284 246.275392 
L 154.996729 246.275392 
L 154.996729 241.008531 
L 155.14017 241.008531 
L 155.14017 235.74167 
L 155.292098 235.74167 
L 155.292098 230.47481 
L 155.394786 230.47481 
L 155.394786 225.207949 
L 155.492101 225.207949 
L 155.492101 219.941088 
L 155.571464 219.941088 
L 155.571464 214.674227 
L 155.689836 214.674227 
L 155.689836 209.407366 
L 155.773004 209.407366 
L 155.773004 204.140506 
L 155.851102 204.140506 
L 155.851102 198.873645 
L 155.911776 198.873645 
L 155.911776 193.606784 
L 155.967597 193.606784 
L 155.967597 188.339923 
L 156.024783 188.339923 
L 156.024783 183.073062 
L 156.072551 183.073062 
L 156.072551 177.806202 
L 156.126326 177.806202 
L 156.126326 172.539341 
L 156.173818 172.539341 
L 156.173818 167.27248 
L 156.22118 167.27248 
L 156.22118 162.005619 
L 156.266892 162.005619 
L 156.266892 156.738758 
L 156.307931 156.738758 
L 156.307931 151.471897 
L 156.353417 151.471897 
L 156.353417 146.205037 
L 156.395764 146.205037 
L 156.395764 140.938176 
L 156.444035 140.938176 
L 156.444035 135.671315 
L 156.493674 135.671315 
L 156.493674 130.404454 
L 156.526689 130.404454 
L 156.526689 125.137593 
L 156.565626 125.137593 
L 156.565626 119.870733 
L 156.598505 119.870733 
L 156.598505 114.603872 
L 156.629832 114.603872 
L 156.629832 109.337011 
L 156.670026 109.337011 
L 156.670026 104.07015 
L 156.702709 104.07015 
L 156.702709 98.803289 
L 156.744217 98.803289 
L 156.744217 93.536429 
L 156.776762 93.536429 
L 156.776762 88.269568 
L 156.816619 88.269568 
L 156.816619 83.002707 
L 156.854915 83.002707 
L 156.854915 77.735846 
L 156.896063 77.735846 
L 156.896063 72.468985 
L 156.938578 72.468985 
L 156.938578 67.202125 
L 156.979529 67.202125 
L 156.979529 61.935264 
L 157.024756 61.935264 
L 157.024756 56.668403 
L 157.062598 56.668403 
L 157.062598 51.401542 
L 157.10616 51.401542 
L 157.10616 46.134681 
L 157.143825 46.134681 
L 157.143825 40.867821 
L 157.185742 40.867821 
L 157.185742 35.60096 
L 157.226117 35.60096 
L 157.226117 30.334099 
L 338.688 30.334099 
" style="fill:none;stroke:#f5deb3;stroke-linecap:square;stroke-width:4;"/>
   </g>
   <g id="line2d_2">
    <defs>
     <path d="M -0 7.778175 
L 7.778175 0 
L 0 -7.778175 
L -7.778175 -0 
z
" id="m2fc1d6e7d4" style="stroke:#f5deb3;stroke-linejoin:miter;stroke-width:1.5;"/>
    </defs>
    <g>
     <use style="fill:#f5deb3;stroke:#f5deb3;stroke-linejoin:miter;stroke-width:1.5;" x="156.173818" xlink:href="#m2fc1d6e7d4" y="167.27248"/>
     <use style="fill:#f5deb3;stroke:#f5deb3;stroke-linejoin:miter;stroke-width:1.5;" x="157.185742" xlink:href="#m2fc1d6e7d4" y="35.60096"/>
     <use style="fill:#f5deb3;stroke:#f5deb3;stroke-linejoin:miter;stroke-width:1.5;" x="157.226117" xlink:href="#m2fc1d6e7d4" y="30.334099"/>
     <use style="fill:#f5deb3;stroke:#f5deb3;stroke-linejoin:miter;stroke-width:1.5;" x="157.226117" xlink:href="#m2fc1d6e7d4" y="30.334099"/>
     <use style="fill:#f5deb3;stroke:#f5deb3;stroke-linejoin:miter;stroke-width:1.5;" x="338.688" xlink:href="#m2fc1d6e7d4" y="30.334099"/>
    </g>
   </g>
   <g id="line2d_3">
    <path style="fill:none;stroke:#f5deb3;stroke-linecap:square;stroke-width:4;"/>
    <g/>
   </g>
   <g id="line2d_4">
    <path d="M 338.688 30.334099 
L 369.60768 35.706297 
" style="fill:none;stroke:#f5deb3;stroke-linecap:square;stroke-width:4;"/>
    <g>
     <use style="fill:#f5deb3;stroke:#f5deb3;stroke-linejoin:miter;stroke-width:1.5;" x="338.688" xlink:href="#m2fc1d6e7d4" y="30.334099"/>
     <use style="fill:#f5deb3;stroke:#f5deb3;stroke-linejoin:miter;stroke-width:1.5;" x="369.60768" xlink:href="#m2fc1d6e7d4" y="35.706297"/>
    </g>
   </g>
   <g id="matplotlib.axis_1">
    <g id="xtick_1">
     <g id="line2d_5">
      <path clip-path="url(#pab35779634)" d="M 57.6 298.944 
L 57.6 27.648 
" style="fill:none;stroke:#b0b0b0;stroke-linecap:square;stroke-width:0.8;"/>
     </g>
     <g id="line2d_6">
      <defs>
       <path d="M 0 0 
L 0 3.5 
" id="m730db17929" style="stroke:#000000;stroke-width:0.8;"/>
      </defs>
      <g>
       <use style="stroke:#000000;stroke-width:0.8;" x="57.6" xlink:href="#m730db17929" y="298.944"/>
      </g>
     </g>
     <g id="text_1">
      <!-- 0 -->
      <defs>
       <path d="M 31.78125 66.40625 
Q 24.171875 66.40625 20.328125 58.90625 
Q 16.5 51.421875 16.5 36.375 
Q 16.5 21.390625 20.328125 13.890625 
Q 24.171875 6.390625 31.78125 6.390625 
Q 39.453125 6.390625 43.28125 13.890625 
Q 47.125 21.390625 47.125 36.375 
Q 47.125 51.421875 43.28125 58.90625 
Q 39.453125 66.40625 31.78125 66.40625 
z
M 31.78125 74.21875 
Q 44.046875 74.21875 50.515625 64.515625 
Q 56.984375 54.828125 56.984375 36.375 
Q 56.984375 17.96875 50.515625 8.265625 
Q 44.046875 -1.421875 31.78125 -1.421875 
Q 19.53125 -1.421875 13.0625 8.265625 
Q 6.59375 17.96875 6.59375 36.375 
Q 6.59375 54.828125 13.0625 64.515625 
Q 19.53125 74.21875 31.78125 74.21875 
z
" id="DejaVuSans-48"/>
      </defs>
      <g transform="translate(51.2375 321.140875)scale(0.2 -0.2)">
       <use xlink:href="#DejaVuSans-48"/>
      </g>
     </g>
    </g>
    <g id="xtick_2">
     <g id="line2d_7">
      <path clip-path="url(#pab35779634)" d="M 137.910857 298.944 
L 137.910857 27.648 
" style="fill:none;stroke:#b0b0b0;stroke-linecap:square;stroke-width:0.8;"/>
     </g>
     <g id="line2d_8">
      <g>
       <use style="stroke:#000000;stroke-width:0.8;" x="137.910857" xlink:href="#m730db17929" y="298.944"/>
      </g>
     </g>
     <g id="text_2">
      <!-- 2 -->
      <defs>
       <path d="M 19.1875 8.296875 
L 53.609375 8.296875 
L 53.609375 0 
L 7.328125 0 
L 7.328125 8.296875 
Q 12.9375 14.109375 22.625 23.890625 
Q 32.328125 33.6875 34.8125 36.53125 
Q 39.546875 41.84375 41.421875 45.53125 
Q 43.3125 49.21875 43.3125 52.78125 
Q 43.3125 58.59375 39.234375 62.25 
Q 35.15625 65.921875 28.609375 65.921875 
Q 23.96875 65.921875 18.8125 64.3125 
Q 13.671875 62.703125 7.8125 59.421875 
L 7.8125 69.390625 
Q 13.765625 71.78125 18.9375 73 
Q 24.125 74.21875 28.421875 74.21875 
Q 39.75 74.21875 46.484375 68.546875 
Q 53.21875 62.890625 53.21875 53.421875 
Q 53.21875 48.921875 51.53125 44.890625 
Q 49.859375 40.875 45.40625 35.40625 
Q 44.1875 33.984375 37.640625 27.21875 
Q 31.109375 20.453125 19.1875 8.296875 
z
" id="DejaVuSans-50"/>
      </defs>
      <g transform="translate(131.548357 321.140875)scale(0.2 -0.2)">
       <use xlink:href="#DejaVuSans-50"/>
      </g>
     </g>
    </g>
    <g id="xtick_3">
     <g id="line2d_9">
      <path clip-path="url(#pab35779634)" d="M 218.221714 298.944 
L 218.221714 27.648 
" style="fill:none;stroke:#b0b0b0;stroke-linecap:square;stroke-width:0.8;"/>
     </g>
     <g id="line2d_10">
      <g>
       <use style="stroke:#000000;stroke-width:0.8;" x="218.221714" xlink:href="#m730db17929" y="298.944"/>
      </g>
     </g>
     <g id="text_3">
      <!-- 4 -->
      <defs>
       <path d="M 37.796875 64.3125 
L 12.890625 25.390625 
L 37.796875 25.390625 
z
M 35.203125 72.90625 
L 47.609375 72.90625 
L 47.609375 25.390625 
L 58.015625 25.390625 
L 58.015625 17.1875 
L 47.609375 17.1875 
L 47.609375 0 
L 37.796875 0 
L 37.796875 17.1875 
L 4.890625 17.1875 
L 4.890625 26.703125 
z
" id="DejaVuSans-52"/>
      </defs>
      <g transform="translate(211.859214 321.140875)scale(0.2 -0.2)">
       <use xlink:href="#DejaVuSans-52"/>
      </g>
     </g>
    </g>
    <g id="xtick_4">
     <g id="line2d_11">
      <path clip-path="url(#pab35779634)" d="M 298.532571 298.944 
L 298.532571 27.648 
" style="fill:none;stroke:#b0b0b0;stroke-linecap:square;stroke-width:0.8;"/>
     </g>
     <g id="line2d_12">
      <g>
       <use style="stroke:#000000;stroke-width:0.8;" x="298.532571" xlink:href="#m730db17929" y="298.944"/>
      </g>
     </g>
     <g id="text_4">
      <!-- 6 -->
      <defs>
       <path d="M 33.015625 40.375 
Q 26.375 40.375 22.484375 35.828125 
Q 18.609375 31.296875 18.609375 23.390625 
Q 18.609375 15.53125 22.484375 10.953125 
Q 26.375 6.390625 33.015625 6.390625 
Q 39.65625 6.390625 43.53125 10.953125 
Q 47.40625 15.53125 47.40625 23.390625 
Q 47.40625 31.296875 43.53125 35.828125 
Q 39.65625 40.375 33.015625 40.375 
z
M 52.59375 71.296875 
L 52.59375 62.3125 
Q 48.875 64.0625 45.09375 64.984375 
Q 41.3125 65.921875 37.59375 65.921875 
Q 27.828125 65.921875 22.671875 59.328125 
Q 17.53125 52.734375 16.796875 39.40625 
Q 19.671875 43.65625 24.015625 45.921875 
Q 28.375 48.1875 33.59375 48.1875 
Q 44.578125 48.1875 50.953125 41.515625 
Q 57.328125 34.859375 57.328125 23.390625 
Q 57.328125 12.15625 50.6875 5.359375 
Q 44.046875 -1.421875 33.015625 -1.421875 
Q 20.359375 -1.421875 13.671875 8.265625 
Q 6.984375 17.96875 6.984375 36.375 
Q 6.984375 53.65625 15.1875 63.9375 
Q 23.390625 74.21875 37.203125 74.21875 
Q 40.921875 74.21875 44.703125 73.484375 
Q 48.484375 72.75 52.59375 71.296875 
z
" id="DejaVuSans-54"/>
      </defs>
      <g transform="translate(292.170071 321.140875)scale(0.2 -0.2)">
       <use xlink:href="#DejaVuSans-54"/>
      </g>
     </g>
    </g>
    <g id="xtick_5">
     <g id="line2d_13">
      <path clip-path="url(#pab35779634)" d="M 97.755429 298.944 
L 97.755429 27.648 
" style="fill:none;stroke:#b0b0b0;stroke-linecap:square;stroke-width:0.8;"/>
     </g>
     <g id="line2d_14">
      <defs>
       <path d="M 0 0 
L 0 2 
" id="mc3b320ec3e" style="stroke:#000000;stroke-width:0.6;"/>
      </defs>
      <g>
       <use style="stroke:#000000;stroke-width:0.6;" x="97.755429" xlink:href="#mc3b320ec3e" y="298.944"/>
      </g>
     </g>
    </g>
    <g id="xtick_6">
     <g id="line2d_15">
      <path clip-path="url(#pab35779634)" d="M 178.066286 298.944 
L 178.066286 27.648 
" style="fill:none;stroke:#b0b0b0;stroke-linecap:square;stroke-width:0.8;"/>
     </g>
     <g id="line2d_16">
      <g>
       <use style="stroke:#000000;stroke-width:0.6;" x="178.066286" xlink:href="#mc3b320ec3e" y="298.944"/>
      </g>
     </g>
    </g>
    <g id="xtick_7">
     <g id="line2d_17">
      <path clip-path="url(#pab35779634)" d="M 258.377143 298.944 
L 258.377143 27.648 
" style="fill:none;stroke:#b0b0b0;stroke-linecap:square;stroke-width:0.8;"/>
     </g>
     <g id="line2d_18">
      <g>
       <use style="stroke:#000000;stroke-width:0.6;" x="258.377143" xlink:href="#mc3b320ec3e" y="298.944"/>
      </g>
     </g>
    </g>
    <g id="xtick_8">
     <g id="line2d_19">
      <path clip-path="url(#pab35779634)" d="M 338.688 298.944 
L 338.688 27.648 
" style="fill:none;stroke:#b0b0b0;stroke-linecap:square;stroke-width:0.8;"/>
     </g>
     <g id="line2d_20">
      <g>
       <use style="stroke:#000000;stroke-width:0.6;" x="338.688" xlink:href="#mc3b320ec3e" y="298.944"/>
      </g>
     </g>
    </g>
    <g id="text_5">
     <!-- log10(# f-evals / dimension) -->
     <defs>
      <path d="M 9.421875 75.984375 
L 18.40625 75.984375 
L 18.40625 0 
L 9.421875 0 
z
" id="DejaVuSans-108"/>
      <path d="M 30.609375 48.390625 
Q 23.390625 48.390625 19.1875 42.75 
Q 14.984375 37.109375 14.984375 27.296875 
Q 14.984375 17.484375 19.15625 11.84375 
Q 23.34375 6.203125 30.609375 6.203125 
Q 37.796875 6.203125 41.984375 11.859375 
Q 46.1875 17.53125 46.1875 27.296875 
Q 46.1875 37.015625 41.984375 42.703125 
Q 37.796875 48.390625 30.609375 48.390625 
z
M 30.609375 56 
Q 42.328125 56 49.015625 48.375 
Q 55.71875 40.765625 55.71875 27.296875 
Q 55.71875 13.875 49.015625 6.21875 
Q 42.328125 -1.421875 30.609375 -1.421875 
Q 18.84375 -1.421875 12.171875 6.21875 
Q 5.515625 13.875 5.515625 27.296875 
Q 5.515625 40.765625 12.171875 48.375 
Q 18.84375 56 30.609375 56 
z
" id="DejaVuSans-111"/>
      <path d="M 45.40625 27.984375 
Q 45.40625 37.75 41.375 43.109375 
Q 37.359375 48.484375 30.078125 48.484375 
Q 22.859375 48.484375 18.828125 43.109375 
Q 14.796875 37.75 14.796875 27.984375 
Q 14.796875 18.265625 18.828125 12.890625 
Q 22.859375 7.515625 30.078125 7.515625 
Q 37.359375 7.515625 41.375 12.890625 
Q 45.40625 18.265625 45.40625 27.984375 
z
M 54.390625 6.78125 
Q 54.390625 -7.171875 48.1875 -13.984375 
Q 42 -20.796875 29.203125 -20.796875 
Q 24.46875 -20.796875 20.265625 -20.09375 
Q 16.0625 -19.390625 12.109375 -17.921875 
L 12.109375 -9.1875 
Q 16.0625 -11.328125 19.921875 -12.34375 
Q 23.78125 -13.375 27.78125 -13.375 
Q 36.625 -13.375 41.015625 -8.765625 
Q 45.40625 -4.15625 45.40625 5.171875 
L 45.40625 9.625 
Q 42.625 4.78125 38.28125 2.390625 
Q 33.9375 0 27.875 0 
Q 17.828125 0 11.671875 7.65625 
Q 5.515625 15.328125 5.515625 27.984375 
Q 5.515625 40.671875 11.671875 48.328125 
Q 17.828125 56 27.875 56 
Q 33.9375 56 38.28125 53.609375 
Q 42.625 51.21875 45.40625 46.390625 
L 45.40625 54.6875 
L 54.390625 54.6875 
z
" id="DejaVuSans-103"/>
      <path d="M 12.40625 8.296875 
L 28.515625 8.296875 
L 28.515625 63.921875 
L 10.984375 60.40625 
L 10.984375 69.390625 
L 28.421875 72.90625 
L 38.28125 72.90625 
L 38.28125 8.296875 
L 54.390625 8.296875 
L 54.390625 0 
L 12.40625 0 
z
" id="DejaVuSans-49"/>
      <path d="M 31 75.875 
Q 24.46875 64.65625 21.28125 53.65625 
Q 18.109375 42.671875 18.109375 31.390625 
Q 18.109375 20.125 21.3125 9.0625 
Q 24.515625 -2 31 -13.1875 
L 23.1875 -13.1875 
Q 15.875 -1.703125 12.234375 9.375 
Q 8.59375 20.453125 8.59375 31.390625 
Q 8.59375 42.28125 12.203125 53.3125 
Q 15.828125 64.359375 23.1875 75.875 
z
" id="DejaVuSans-40"/>
      <path d="M 51.125 44 
L 36.921875 44 
L 32.8125 27.6875 
L 47.125 27.6875 
z
M 43.796875 71.78125 
L 38.71875 51.515625 
L 52.984375 51.515625 
L 58.109375 71.78125 
L 65.921875 71.78125 
L 60.890625 51.515625 
L 76.125 51.515625 
L 76.125 44 
L 58.984375 44 
L 54.984375 27.6875 
L 70.515625 27.6875 
L 70.515625 20.21875 
L 53.078125 20.21875 
L 48 0 
L 40.1875 0 
L 45.21875 20.21875 
L 30.90625 20.21875 
L 25.875 0 
L 18.015625 0 
L 23.09375 20.21875 
L 7.71875 20.21875 
L 7.71875 27.6875 
L 24.90625 27.6875 
L 29 44 
L 13.28125 44 
L 13.28125 51.515625 
L 30.90625 51.515625 
L 35.890625 71.78125 
z
" id="DejaVuSans-35"/>
      <path id="DejaVuSans-32"/>
      <path d="M 37.109375 75.984375 
L 37.109375 68.5 
L 28.515625 68.5 
Q 23.6875 68.5 21.796875 66.546875 
Q 19.921875 64.59375 19.921875 59.515625 
L 19.921875 54.6875 
L 34.71875 54.6875 
L 34.71875 47.703125 
L 19.921875 47.703125 
L 19.921875 0 
L 10.890625 0 
L 10.890625 47.703125 
L 2.296875 47.703125 
L 2.296875 54.6875 
L 10.890625 54.6875 
L 10.890625 58.5 
Q 10.890625 67.625 15.140625 71.796875 
Q 19.390625 75.984375 28.609375 75.984375 
z
" id="DejaVuSans-102"/>
      <path d="M 4.890625 31.390625 
L 31.203125 31.390625 
L 31.203125 23.390625 
L 4.890625 23.390625 
z
" id="DejaVuSans-45"/>
      <path d="M 56.203125 29.59375 
L 56.203125 25.203125 
L 14.890625 25.203125 
Q 15.484375 15.921875 20.484375 11.0625 
Q 25.484375 6.203125 34.421875 6.203125 
Q 39.59375 6.203125 44.453125 7.46875 
Q 49.3125 8.734375 54.109375 11.28125 
L 54.109375 2.78125 
Q 49.265625 0.734375 44.1875 -0.34375 
Q 39.109375 -1.421875 33.890625 -1.421875 
Q 20.796875 -1.421875 13.15625 6.1875 
Q 5.515625 13.8125 5.515625 26.8125 
Q 5.515625 40.234375 12.765625 48.109375 
Q 20.015625 56 32.328125 56 
Q 43.359375 56 49.78125 48.890625 
Q 56.203125 41.796875 56.203125 29.59375 
z
M 47.21875 32.234375 
Q 47.125 39.59375 43.09375 43.984375 
Q 39.0625 48.390625 32.421875 48.390625 
Q 24.90625 48.390625 20.390625 44.140625 
Q 15.875 39.890625 15.1875 32.171875 
z
" id="DejaVuSans-101"/>
      <path d="M 2.984375 54.6875 
L 12.5 54.6875 
L 29.59375 8.796875 
L 46.6875 54.6875 
L 56.203125 54.6875 
L 35.6875 0 
L 23.484375 0 
z
" id="DejaVuSans-118"/>
      <path d="M 34.28125 27.484375 
Q 23.390625 27.484375 19.1875 25 
Q 14.984375 22.515625 14.984375 16.5 
Q 14.984375 11.71875 18.140625 8.90625 
Q 21.296875 6.109375 26.703125 6.109375 
Q 34.1875 6.109375 38.703125 11.40625 
Q 43.21875 16.703125 43.21875 25.484375 
L 43.21875 27.484375 
z
M 52.203125 31.203125 
L 52.203125 0 
L 43.21875 0 
L 43.21875 8.296875 
Q 40.140625 3.328125 35.546875 0.953125 
Q 30.953125 -1.421875 24.3125 -1.421875 
Q 15.921875 -1.421875 10.953125 3.296875 
Q 6 8.015625 6 15.921875 
Q 6 25.140625 12.171875 29.828125 
Q 18.359375 34.515625 30.609375 34.515625 
L 43.21875 34.515625 
L 43.21875 35.40625 
Q 43.21875 41.609375 39.140625 45 
Q 35.0625 48.390625 27.6875 48.390625 
Q 23 48.390625 18.546875 47.265625 
Q 14.109375 46.140625 10.015625 43.890625 
L 10.015625 52.203125 
Q 14.9375 54.109375 19.578125 55.046875 
Q 24.21875 56 28.609375 56 
Q 40.484375 56 46.34375 49.84375 
Q 52.203125 43.703125 52.203125 31.203125 
z
" id="DejaVuSans-97"/>
      <path d="M 44.28125 53.078125 
L 44.28125 44.578125 
Q 40.484375 46.53125 36.375 47.5 
Q 32.28125 48.484375 27.875 48.484375 
Q 21.1875 48.484375 17.84375 46.4375 
Q 14.5 44.390625 14.5 40.28125 
Q 14.5 37.15625 16.890625 35.375 
Q 19.28125 33.59375 26.515625 31.984375 
L 29.59375 31.296875 
Q 39.15625 29.25 43.1875 25.515625 
Q 47.21875 21.78125 47.21875 15.09375 
Q 47.21875 7.46875 41.1875 3.015625 
Q 35.15625 -1.421875 24.609375 -1.421875 
Q 20.21875 -1.421875 15.453125 -0.5625 
Q 10.6875 0.296875 5.421875 2 
L 5.421875 11.28125 
Q 10.40625 8.6875 15.234375 7.390625 
Q 20.0625 6.109375 24.8125 6.109375 
Q 31.15625 6.109375 34.5625 8.28125 
Q 37.984375 10.453125 37.984375 14.40625 
Q 37.984375 18.0625 35.515625 20.015625 
Q 33.0625 21.96875 24.703125 23.78125 
L 21.578125 24.515625 
Q 13.234375 26.265625 9.515625 29.90625 
Q 5.8125 33.546875 5.8125 39.890625 
Q 5.8125 47.609375 11.28125 51.796875 
Q 16.75 56 26.8125 56 
Q 31.78125 56 36.171875 55.265625 
Q 40.578125 54.546875 44.28125 53.078125 
z
" id="DejaVuSans-115"/>
      <path d="M 25.390625 72.90625 
L 33.6875 72.90625 
L 8.296875 -9.28125 
L 0 -9.28125 
z
" id="DejaVuSans-47"/>
      <path d="M 45.40625 46.390625 
L 45.40625 75.984375 
L 54.390625 75.984375 
L 54.390625 0 
L 45.40625 0 
L 45.40625 8.203125 
Q 42.578125 3.328125 38.25 0.953125 
Q 33.9375 -1.421875 27.875 -1.421875 
Q 17.96875 -1.421875 11.734375 6.484375 
Q 5.515625 14.40625 5.515625 27.296875 
Q 5.515625 40.1875 11.734375 48.09375 
Q 17.96875 56 27.875 56 
Q 33.9375 56 38.25 53.625 
Q 42.578125 51.265625 45.40625 46.390625 
z
M 14.796875 27.296875 
Q 14.796875 17.390625 18.875 11.75 
Q 22.953125 6.109375 30.078125 6.109375 
Q 37.203125 6.109375 41.296875 11.75 
Q 45.40625 17.390625 45.40625 27.296875 
Q 45.40625 37.203125 41.296875 42.84375 
Q 37.203125 48.484375 30.078125 48.484375 
Q 22.953125 48.484375 18.875 42.84375 
Q 14.796875 37.203125 14.796875 27.296875 
z
" id="DejaVuSans-100"/>
      <path d="M 9.421875 54.6875 
L 18.40625 54.6875 
L 18.40625 0 
L 9.421875 0 
z
M 9.421875 75.984375 
L 18.40625 75.984375 
L 18.40625 64.59375 
L 9.421875 64.59375 
z
" id="DejaVuSans-105"/>
      <path d="M 52 44.1875 
Q 55.375 50.25 60.0625 53.125 
Q 64.75 56 71.09375 56 
Q 79.640625 56 84.28125 50.015625 
Q 88.921875 44.046875 88.921875 33.015625 
L 88.921875 0 
L 79.890625 0 
L 79.890625 32.71875 
Q 79.890625 40.578125 77.09375 44.375 
Q 74.3125 48.1875 68.609375 48.1875 
Q 61.625 48.1875 57.5625 43.546875 
Q 53.515625 38.921875 53.515625 30.90625 
L 53.515625 0 
L 44.484375 0 
L 44.484375 32.71875 
Q 44.484375 40.625 41.703125 44.40625 
Q 38.921875 48.1875 33.109375 48.1875 
Q 26.21875 48.1875 22.15625 43.53125 
Q 18.109375 38.875 18.109375 30.90625 
L 18.109375 0 
L 9.078125 0 
L 9.078125 54.6875 
L 18.109375 54.6875 
L 18.109375 46.1875 
Q 21.1875 51.21875 25.484375 53.609375 
Q 29.78125 56 35.6875 56 
Q 41.65625 56 45.828125 52.96875 
Q 50 49.953125 52 44.1875 
z
" id="DejaVuSans-109"/>
      <path d="M 54.890625 33.015625 
L 54.890625 0 
L 45.90625 0 
L 45.90625 32.71875 
Q 45.90625 40.484375 42.875 44.328125 
Q 39.84375 48.1875 33.796875 48.1875 
Q 26.515625 48.1875 22.3125 43.546875 
Q 18.109375 38.921875 18.109375 30.90625 
L 18.109375 0 
L 9.078125 0 
L 9.078125 54.6875 
L 18.109375 54.6875 
L 18.109375 46.1875 
Q 21.34375 51.125 25.703125 53.5625 
Q 30.078125 56 35.796875 56 
Q 45.21875 56 50.046875 50.171875 
Q 54.890625 44.34375 54.890625 33.015625 
z
" id="DejaVuSans-110"/>
      <path d="M 8.015625 75.875 
L 15.828125 75.875 
Q 23.140625 64.359375 26.78125 53.3125 
Q 30.421875 42.28125 30.421875 31.390625 
Q 30.421875 20.453125 26.78125 9.375 
Q 23.140625 -1.703125 15.828125 -13.1875 
L 8.015625 -13.1875 
Q 14.5 -2 17.703125 9.0625 
Q 20.90625 20.125 20.90625 31.390625 
Q 20.90625 42.671875 17.703125 53.65625 
Q 14.5 64.65625 8.015625 75.875 
z
" id="DejaVuSans-41"/>
     </defs>
     <g transform="translate(77.303219 342.217594)scale(0.17 -0.17)">
      <use xlink:href="#DejaVuSans-108"/>
      <use x="27.783203" xlink:href="#DejaVuSans-111"/>
      <use x="88.964844" xlink:href="#DejaVuSans-103"/>
      <use x="152.441406" xlink:href="#DejaVuSans-49"/>
      <use x="216.064453" xlink:href="#DejaVuSans-48"/>
      <use x="279.6875" xlink:href="#DejaVuSans-40"/>
      <use x="318.701172" xlink:href="#DejaVuSans-35"/>
      <use x="402.490234" xlink:href="#DejaVuSans-32"/>
      <use x="434.277344" xlink:href="#DejaVuSans-102"/>
      <use x="469.404297" xlink:href="#DejaVuSans-45"/>
      <use x="505.488281" xlink:href="#DejaVuSans-101"/>
      <use x="567.011719" xlink:href="#DejaVuSans-118"/>
      <use x="626.191406" xlink:href="#DejaVuSans-97"/>
      <use x="687.470703" xlink:href="#DejaVuSans-108"/>
      <use x="715.253906" xlink:href="#DejaVuSans-115"/>
      <use x="767.353516" xlink:href="#DejaVuSans-32"/>
      <use x="799.140625" xlink:href="#DejaVuSans-47"/>
      <use x="832.832031" xlink:href="#DejaVuSans-32"/>
      <use x="864.619141" xlink:href="#DejaVuSans-100"/>
      <use x="928.095703" xlink:href="#DejaVuSans-105"/>
      <use x="955.878906" xlink:href="#DejaVuSans-109"/>
      <use x="1053.291016" xlink:href="#DejaVuSans-101"/>
      <use x="1114.814453" xlink:href="#DejaVuSans-110"/>
      <use x="1178.193359" xlink:href="#DejaVuSans-115"/>
      <use x="1230.292969" xlink:href="#DejaVuSans-105"/>
      <use x="1258.076172" xlink:href="#DejaVuSans-111"/>
      <use x="1319.257812" xlink:href="#DejaVuSans-110"/>
      <use x="1382.636719" xlink:href="#DejaVuSans-41"/>
     </g>
    </g>
   </g>
   <g id="matplotlib.axis_2">
    <g id="ytick_1">
     <g id="line2d_21">
      <path clip-path="url(#pab35779634)" d="M 57.6 298.944 
L 338.688 298.944 
" style="fill:none;stroke:#b0b0b0;stroke-linecap:square;stroke-width:0.8;"/>
     </g>
     <g id="line2d_22">
      <defs>
       <path d="M 0 0 
L -3.5 0 
" id="m1406b77240" style="stroke:#000000;stroke-width:0.8;"/>
      </defs>
      <g>
       <use style="stroke:#000000;stroke-width:0.8;" x="57.6" xlink:href="#m1406b77240" y="298.944"/>
      </g>
     </g>
     <g id="text_6">
      <!-- 0.0 -->
      <defs>
       <path d="M 10.6875 12.40625 
L 21 12.40625 
L 21 0 
L 10.6875 0 
z
" id="DejaVuSans-46"/>
      </defs>
      <g transform="translate(25.155 305.02275)scale(0.16 -0.16)">
       <use xlink:href="#DejaVuSans-48"/>
       <use x="63.623047" xlink:href="#DejaVuSans-46"/>
       <use x="95.410156" xlink:href="#DejaVuSans-48"/>
      </g>
     </g>
    </g>
    <g id="ytick_2">
     <g id="line2d_23">
      <path clip-path="url(#pab35779634)" d="M 57.6 245.22202 
L 338.688 245.22202 
" style="fill:none;stroke:#b0b0b0;stroke-linecap:square;stroke-width:0.8;"/>
     </g>
     <g id="line2d_24">
      <g>
       <use style="stroke:#000000;stroke-width:0.8;" x="57.6" xlink:href="#m1406b77240" y="245.22202"/>
      </g>
     </g>
     <g id="text_7">
      <!-- 0.2 -->
      <g transform="translate(25.155 251.30077)scale(0.16 -0.16)">
       <use xlink:href="#DejaVuSans-48"/>
       <use x="63.623047" xlink:href="#DejaVuSans-46"/>
       <use x="95.410156" xlink:href="#DejaVuSans-50"/>
      </g>
     </g>
    </g>
    <g id="ytick_3">
     <g id="line2d_25">
      <path clip-path="url(#pab35779634)" d="M 57.6 191.50004 
L 338.688 191.50004 
" style="fill:none;stroke:#b0b0b0;stroke-linecap:square;stroke-width:0.8;"/>
     </g>
     <g id="line2d_26">
      <g>
       <use style="stroke:#000000;stroke-width:0.8;" x="57.6" xlink:href="#m1406b77240" y="191.50004"/>
      </g>
     </g>
     <g id="text_8">
      <!-- 0.4 -->
      <g transform="translate(25.155 197.57879)scale(0.16 -0.16)">
       <use xlink:href="#DejaVuSans-48"/>
       <use x="63.623047" xlink:href="#DejaVuSans-46"/>
       <use x="95.410156" xlink:href="#DejaVuSans-52"/>
      </g>
     </g>
    </g>
    <g id="ytick_4">
     <g id="line2d_27">
      <path clip-path="url(#pab35779634)" d="M 57.6 137.778059 
L 338.688 137.778059 
" style="fill:none;stroke:#b0b0b0;stroke-linecap:square;stroke-width:0.8;"/>
     </g>
     <g id="line2d_28">
      <g>
       <use style="stroke:#000000;stroke-width:0.8;" x="57.6" xlink:href="#m1406b77240" y="137.778059"/>
      </g>
     </g>
     <g id="text_9">
      <!-- 0.6 -->
      <g transform="translate(25.155 143.856809)scale(0.16 -0.16)">
       <use xlink:href="#DejaVuSans-48"/>
       <use x="63.623047" xlink:href="#DejaVuSans-46"/>
       <use x="95.410156" xlink:href="#DejaVuSans-54"/>
      </g>
     </g>
    </g>
    <g id="ytick_5">
     <g id="line2d_29">
      <path clip-path="url(#pab35779634)" d="M 57.6 84.056079 
L 338.688 84.056079 
" style="fill:none;stroke:#b0b0b0;stroke-linecap:square;stroke-width:0.8;"/>
     </g>
     <g id="line2d_30">
      <g>
       <use style="stroke:#000000;stroke-width:0.8;" x="57.6" xlink:href="#m1406b77240" y="84.056079"/>
      </g>
     </g>
     <g id="text_10">
      <!-- 0.8 -->
      <defs>
       <path d="M 31.78125 34.625 
Q 24.75 34.625 20.71875 30.859375 
Q 16.703125 27.09375 16.703125 20.515625 
Q 16.703125 13.921875 20.71875 10.15625 
Q 24.75 6.390625 31.78125 6.390625 
Q 38.8125 6.390625 42.859375 10.171875 
Q 46.921875 13.96875 46.921875 20.515625 
Q 46.921875 27.09375 42.890625 30.859375 
Q 38.875 34.625 31.78125 34.625 
z
M 21.921875 38.8125 
Q 15.578125 40.375 12.03125 44.71875 
Q 8.5 49.078125 8.5 55.328125 
Q 8.5 64.0625 14.71875 69.140625 
Q 20.953125 74.21875 31.78125 74.21875 
Q 42.671875 74.21875 48.875 69.140625 
Q 55.078125 64.0625 55.078125 55.328125 
Q 55.078125 49.078125 51.53125 44.71875 
Q 48 40.375 41.703125 38.8125 
Q 48.828125 37.15625 52.796875 32.3125 
Q 56.78125 27.484375 56.78125 20.515625 
Q 56.78125 9.90625 50.3125 4.234375 
Q 43.84375 -1.421875 31.78125 -1.421875 
Q 19.734375 -1.421875 13.25 4.234375 
Q 6.78125 9.90625 6.78125 20.515625 
Q 6.78125 27.484375 10.78125 32.3125 
Q 14.796875 37.15625 21.921875 38.8125 
z
M 18.3125 54.390625 
Q 18.3125 48.734375 21.84375 45.5625 
Q 25.390625 42.390625 31.78125 42.390625 
Q 38.140625 42.390625 41.71875 45.5625 
Q 45.3125 48.734375 45.3125 54.390625 
Q 45.3125 60.0625 41.71875 63.234375 
Q 38.140625 66.40625 31.78125 66.40625 
Q 25.390625 66.40625 21.84375 63.234375 
Q 18.3125 60.0625 18.3125 54.390625 
z
" id="DejaVuSans-56"/>
      </defs>
      <g transform="translate(25.155 90.134829)scale(0.16 -0.16)">
       <use xlink:href="#DejaVuSans-48"/>
       <use x="63.623047" xlink:href="#DejaVuSans-46"/>
       <use x="95.410156" xlink:href="#DejaVuSans-56"/>
      </g>
     </g>
    </g>
    <g id="ytick_6">
     <g id="line2d_31">
      <path clip-path="url(#pab35779634)" d="M 57.6 30.334099 
L 338.688 30.334099 
" style="fill:none;stroke:#b0b0b0;stroke-linecap:square;stroke-width:0.8;"/>
     </g>
     <g id="line2d_32">
      <g>
       <use style="stroke:#000000;stroke-width:0.8;" x="57.6" xlink:href="#m1406b77240" y="30.334099"/>
      </g>
     </g>
     <g id="text_11">
      <!-- 1.0 -->
      <g transform="translate(25.155 36.412849)scale(0.16 -0.16)">
       <use xlink:href="#DejaVuSans-49"/>
       <use x="63.623047" xlink:href="#DejaVuSans-46"/>
       <use x="95.410156" xlink:href="#DejaVuSans-48"/>
      </g>
     </g>
    </g>
    <g id="text_12">
     <!-- Fraction of function,target pairs -->
     <defs>
      <path d="M 9.8125 72.90625 
L 51.703125 72.90625 
L 51.703125 64.59375 
L 19.671875 64.59375 
L 19.671875 43.109375 
L 48.578125 43.109375 
L 48.578125 34.8125 
L 19.671875 34.8125 
L 19.671875 0 
L 9.8125 0 
z
" id="DejaVuSans-70"/>
      <path d="M 41.109375 46.296875 
Q 39.59375 47.171875 37.8125 47.578125 
Q 36.03125 48 33.890625 48 
Q 26.265625 48 22.1875 43.046875 
Q 18.109375 38.09375 18.109375 28.8125 
L 18.109375 0 
L 9.078125 0 
L 9.078125 54.6875 
L 18.109375 54.6875 
L 18.109375 46.1875 
Q 20.953125 51.171875 25.484375 53.578125 
Q 30.03125 56 36.53125 56 
Q 37.453125 56 38.578125 55.875 
Q 39.703125 55.765625 41.0625 55.515625 
z
" id="DejaVuSans-114"/>
      <path d="M 48.78125 52.59375 
L 48.78125 44.1875 
Q 44.96875 46.296875 41.140625 47.34375 
Q 37.3125 48.390625 33.40625 48.390625 
Q 24.65625 48.390625 19.8125 42.84375 
Q 14.984375 37.3125 14.984375 27.296875 
Q 14.984375 17.28125 19.8125 11.734375 
Q 24.65625 6.203125 33.40625 6.203125 
Q 37.3125 6.203125 41.140625 7.25 
Q 44.96875 8.296875 48.78125 10.40625 
L 48.78125 2.09375 
Q 45.015625 0.34375 40.984375 -0.53125 
Q 36.96875 -1.421875 32.421875 -1.421875 
Q 20.0625 -1.421875 12.78125 6.34375 
Q 5.515625 14.109375 5.515625 27.296875 
Q 5.515625 40.671875 12.859375 48.328125 
Q 20.21875 56 33.015625 56 
Q 37.15625 56 41.109375 55.140625 
Q 45.0625 54.296875 48.78125 52.59375 
z
" id="DejaVuSans-99"/>
      <path d="M 18.3125 70.21875 
L 18.3125 54.6875 
L 36.8125 54.6875 
L 36.8125 47.703125 
L 18.3125 47.703125 
L 18.3125 18.015625 
Q 18.3125 11.328125 20.140625 9.421875 
Q 21.96875 7.515625 27.59375 7.515625 
L 36.8125 7.515625 
L 36.8125 0 
L 27.59375 0 
Q 17.1875 0 13.234375 3.875 
Q 9.28125 7.765625 9.28125 18.015625 
L 9.28125 47.703125 
L 2.6875 47.703125 
L 2.6875 54.6875 
L 9.28125 54.6875 
L 9.28125 70.21875 
z
" id="DejaVuSans-116"/>
      <path d="M 8.5 21.578125 
L 8.5 54.6875 
L 17.484375 54.6875 
L 17.484375 21.921875 
Q 17.484375 14.15625 20.5 10.265625 
Q 23.53125 6.390625 29.59375 6.390625 
Q 36.859375 6.390625 41.078125 11.03125 
Q 45.3125 15.671875 45.3125 23.6875 
L 45.3125 54.6875 
L 54.296875 54.6875 
L 54.296875 0 
L 45.3125 0 
L 45.3125 8.40625 
Q 42.046875 3.421875 37.71875 1 
Q 33.40625 -1.421875 27.6875 -1.421875 
Q 18.265625 -1.421875 13.375 4.4375 
Q 8.5 10.296875 8.5 21.578125 
z
M 31.109375 56 
z
" id="DejaVuSans-117"/>
      <path d="M 11.71875 12.40625 
L 22.015625 12.40625 
L 22.015625 4 
L 14.015625 -11.625 
L 7.71875 -11.625 
L 11.71875 4 
z
" id="DejaVuSans-44"/>
      <path d="M 18.109375 8.203125 
L 18.109375 -20.796875 
L 9.078125 -20.796875 
L 9.078125 54.6875 
L 18.109375 54.6875 
L 18.109375 46.390625 
Q 20.953125 51.265625 25.265625 53.625 
Q 29.59375 56 35.59375 56 
Q 45.5625 56 51.78125 48.09375 
Q 58.015625 40.1875 58.015625 27.296875 
Q 58.015625 14.40625 51.78125 6.484375 
Q 45.5625 -1.421875 35.59375 -1.421875 
Q 29.59375 -1.421875 25.265625 0.953125 
Q 20.953125 3.328125 18.109375 8.203125 
z
M 48.6875 27.296875 
Q 48.6875 37.203125 44.609375 42.84375 
Q 40.53125 48.484375 33.40625 48.484375 
Q 26.265625 48.484375 22.1875 42.84375 
Q 18.109375 37.203125 18.109375 27.296875 
Q 18.109375 17.390625 22.1875 11.75 
Q 26.265625 6.109375 33.40625 6.109375 
Q 40.53125 6.109375 44.609375 11.75 
Q 48.6875 17.390625 48.6875 27.296875 
z
" id="DejaVuSans-112"/>
     </defs>
     <g transform="translate(17.619531 298.435375)rotate(-90)scale(0.17 -0.17)">
      <use xlink:href="#DejaVuSans-70"/>
      <use x="57.410156" xlink:href="#DejaVuSans-114"/>
      <use x="98.523438" xlink:href="#DejaVuSans-97"/>
      <use x="159.802734" xlink:href="#DejaVuSans-99"/>
      <use x="214.783203" xlink:href="#DejaVuSans-116"/>
      <use x="253.992188" xlink:href="#DejaVuSans-105"/>
      <use x="281.775391" xlink:href="#DejaVuSans-111"/>
      <use x="342.957031" xlink:href="#DejaVuSans-110"/>
      <use x="406.335938" xlink:href="#DejaVuSans-32"/>
      <use x="438.123047" xlink:href="#DejaVuSans-111"/>
      <use x="499.304688" xlink:href="#DejaVuSans-102"/>
      <use x="534.509766" xlink:href="#DejaVuSans-32"/>
      <use x="566.296875" xlink:href="#DejaVuSans-102"/>
      <use x="601.501953" xlink:href="#DejaVuSans-117"/>
      <use x="664.880859" xlink:href="#DejaVuSans-110"/>
      <use x="728.259766" xlink:href="#DejaVuSans-99"/>
      <use x="783.240234" xlink:href="#DejaVuSans-116"/>
      <use x="822.449219" xlink:href="#DejaVuSans-105"/>
      <use x="850.232422" xlink:href="#DejaVuSans-111"/>
      <use x="911.414062" xlink:href="#DejaVuSans-110"/>
      <use x="974.792969" xlink:href="#DejaVuSans-44"/>
      <use x="1006.580078" xlink:href="#DejaVuSans-116"/>
      <use x="1045.789062" xlink:href="#DejaVuSans-97"/>
      <use x="1107.068359" xlink:href="#DejaVuSans-114"/>
      <use x="1148.166016" xlink:href="#DejaVuSans-103"/>
      <use x="1211.642578" xlink:href="#DejaVuSans-101"/>
      <use x="1273.166016" xlink:href="#DejaVuSans-116"/>
      <use x="1312.375" xlink:href="#DejaVuSans-32"/>
      <use x="1344.162109" xlink:href="#DejaVuSans-112"/>
      <use x="1407.638672" xlink:href="#DejaVuSans-97"/>
      <use x="1468.917969" xlink:href="#DejaVuSans-105"/>
      <use x="1496.701172" xlink:href="#DejaVuSans-114"/>
      <use x="1537.814453" xlink:href="#DejaVuSans-115"/>
     </g>
    </g>
   </g>
   <g id="line2d_33">
    <defs>
     <path d="M 0 1.5 
C 0.397805 1.5 0.77937 1.341951 1.06066 1.06066 
C 1.341951 0.77937 1.5 0.397805 1.5 0 
C 1.5 -0.397805 1.341951 -0.77937 1.06066 -1.06066 
C 0.77937 -1.341951 0.397805 -1.5 0 -1.5 
C -0.397805 -1.5 -0.77937 -1.341951 -1.06066 -1.06066 
C -1.341951 -0.77937 -1.5 -0.397805 -1.5 0 
C -1.5 0.397805 -1.341951 0.77937 -1.06066 1.06066 
C -0.77937 1.341951 -0.397805 1.5 0 1.5 
z
" id="mce9cbdcfb9" style="stroke:#f5deb3;"/>
    </defs>
    <g>
     <use style="fill:#f5deb3;stroke:#f5deb3;" x="157.226117" xlink:href="#mce9cbdcfb9" y="30.334099"/>
     <use style="fill:#f5deb3;stroke:#f5deb3;" x="157.226117" xlink:href="#mce9cbdcfb9" y="30.334099"/>
    </g>
   </g>
   <g id="line2d_34">
    <defs>
     <path d="M 0 1.5 
C 0.397805 1.5 0.77937 1.341951 1.06066 1.06066 
C 1.341951 0.77937 1.5 0.397805 1.5 0 
C 1.5 -0.397805 1.341951 -0.77937 1.06066 -1.06066 
C 0.77937 -1.341951 0.397805 -1.5 0 -1.5 
C -0.397805 -1.5 -0.77937 -1.341951 -1.06066 -1.06066 
C -1.341951 -0.77937 -1.5 -0.397805 -1.5 0 
C -1.5 0.397805 -1.341951 0.77937 -1.06066 1.06066 
C -0.77937 1.341951 -0.397805 1.5 0 1.5 
z
" id="mc5235a753c" style="stroke:#000080;"/>
    </defs>
    <g>
     <use style="fill:#000080;stroke:#000080;" x="200.244743" xlink:href="#mc5235a753c" y="30.334099"/>
     <use style="fill:#000080;stroke:#000080;" x="200.244743" xlink:href="#mc5235a753c" y="30.334099"/>
    </g>
   </g>
   <g id="line2d_35">
    <path d="M 120.782632 298.944 
L 120.79427 297.890628 
L 121.08272 297.890628 
L 121.08272 297.363942 
L 121.219499 297.363942 
L 121.264855 296.31057 
L 122.244662 296.31057 
L 122.244662 295.783884 
L 122.594413 295.783884 
L 122.594413 295.257197 
L 123.141856 295.257197 
L 123.141856 294.730511 
L 123.682497 294.730511 
L 123.702203 293.677139 
L 124.024168 293.677139 
L 124.024168 293.150453 
L 125.506102 293.150453 
L 125.506102 292.623767 
L 126.022276 292.623767 
L 126.022276 292.097081 
L 126.202373 292.097081 
L 126.202373 291.570395 
L 128.130839 291.570395 
L 128.130839 291.043709 
L 128.388641 291.043709 
L 128.388641 290.517023 
L 128.598125 290.517023 
L 128.598125 289.990337 
L 128.871138 289.990337 
L 128.871138 289.463651 
L 129.818655 289.463651 
L 129.818655 288.936964 
L 130.631506 288.936964 
L 130.631506 288.410278 
L 133.733678 288.410278 
L 133.733678 287.883592 
L 134.348701 287.883592 
L 134.348701 287.356906 
L 141.563518 287.356906 
L 141.563518 286.83022 
L 142.772361 286.83022 
L 142.772361 286.303534 
L 143.253924 286.303534 
L 143.253924 285.776848 
L 144.80367 285.776848 
L 144.80367 285.250162 
L 145.005114 285.250162 
L 145.005114 284.723476 
L 162.112973 284.723476 
L 162.112973 284.19679 
L 164.473877 284.19679 
L 164.473877 283.670104 
L 164.663893 283.670104 
L 164.663893 283.143418 
L 165.211808 283.143418 
L 165.211808 282.616732 
L 166.558002 282.616732 
L 166.558002 282.090045 
L 166.718363 282.090045 
L 166.718363 281.563359 
L 167.004334 281.563359 
L 167.004334 281.036673 
L 167.987336 281.036673 
L 167.987336 280.509987 
L 170.277909 280.509987 
L 170.277909 279.983301 
L 170.506726 279.983301 
L 170.506726 279.456615 
L 170.658731 279.456615 
L 170.658731 278.929929 
L 170.805456 278.929929 
L 170.863539 277.876557 
L 171.35599 277.876557 
L 171.35599 277.349871 
L 171.538242 277.349871 
L 171.538242 276.823185 
L 171.667085 276.823185 
L 171.731779 275.769812 
L 172.517531 275.769812 
L 172.517531 275.243126 
L 173.412888 275.243126 
L 173.412888 274.71644 
L 173.855281 274.71644 
L 173.943864 273.663068 
L 174.048476 273.663068 
L 174.101095 272.08301 
L 174.308915 272.08301 
L 174.336474 270.502952 
L 174.458078 270.502952 
L 174.505734 269.449579 
L 174.601722 269.449579 
L 174.711987 268.396207 
L 174.808951 268.396207 
L 174.903811 266.816149 
L 174.998678 266.816149 
L 175.086826 264.182719 
L 175.118347 264.182719 
L 175.213598 262.60266 
L 175.307309 262.60266 
L 175.366451 260.495916 
L 175.505358 260.495916 
L 175.568362 259.442544 
L 175.617599 259.442544 
L 175.6762 258.389172 
L 175.752536 258.389172 
L 175.857265 257.3358 
L 175.904706 257.3358 
L 175.981525 256.282427 
L 176.14876 256.282427 
L 176.209486 255.229055 
L 176.296079 255.229055 
L 176.399523 253.648997 
L 176.4187 253.648997 
L 176.502833 252.595625 
L 176.875552 252.595625 
L 176.875552 252.068939 
L 177.154779 252.068939 
L 177.154779 251.542253 
L 177.332567 251.542253 
L 177.332567 251.015567 
L 177.463036 251.015567 
L 177.463036 250.488881 
L 177.595224 250.488881 
L 177.652463 249.435508 
L 177.823948 249.435508 
L 177.823948 248.908822 
L 178.005141 248.908822 
L 178.08241 247.85545 
L 178.229017 247.85545 
L 178.291535 245.748706 
L 178.362834 245.748706 
L 178.452188 244.168648 
L 178.594464 244.168648 
L 178.696945 242.061903 
L 178.74859 242.061903 
L 178.793392 241.008531 
L 178.893052 241.008531 
L 178.993798 239.428473 
L 179.034265 239.428473 
L 179.103828 236.795043 
L 179.28243 236.795043 
L 179.28243 236.268356 
L 179.58995 236.268356 
L 179.64141 235.214984 
L 179.782642 235.214984 
L 179.858733 234.161612 
L 180.171031 234.161612 
L 180.171031 233.634926 
L 180.324533 233.634926 
L 180.324533 233.10824 
L 180.494912 233.10824 
L 180.494912 232.581554 
L 180.856409 232.581554 
L 180.856409 232.054868 
L 180.99149 232.054868 
L 181.038982 231.001496 
L 181.122972 231.001496 
L 181.221483 229.421437 
L 181.253107 229.421437 
L 181.253107 228.894751 
L 181.372903 228.894751 
L 181.481849 227.841379 
L 181.685677 227.841379 
L 181.709397 226.788007 
L 181.88435 226.788007 
L 181.88435 226.261321 
L 182.045075 226.261321 
L 182.146808 224.154577 
L 182.213615 224.154577 
L 182.278797 222.047832 
L 182.396875 222.047832 
L 182.502669 219.941088 
L 182.538129 219.941088 
L 182.595051 218.36103 
L 182.65514 218.36103 
L 182.751386 216.254285 
L 182.772369 216.254285 
L 182.882533 213.620855 
L 182.91987 213.620855 
L 183.022875 209.407366 
L 183.037634 209.407366 
L 183.037634 208.88068 
L 183.170233 208.88068 
L 183.250089 206.24725 
L 183.286971 206.24725 
L 183.388801 203.613819 
L 183.403896 203.613819 
L 183.512387 198.873645 
L 183.561768 198.873645 
L 183.624011 196.7669 
L 183.673394 196.7669 
L 183.778969 193.606784 
L 183.801891 193.606784 
L 183.906382 189.393295 
L 183.921035 189.393295 
L 184.031012 184.653121 
L 184.03256 184.653121 
L 184.121824 180.439632 
L 184.147068 180.439632 
L 184.255633 178.859574 
L 184.259912 178.859574 
L 184.368994 173.066027 
L 184.372639 173.066027 
L 184.482227 166.219108 
L 184.494897 166.219108 
L 184.586331 161.478933 
L 184.611811 161.478933 
L 184.710085 153.051956 
L 184.735385 153.051956 
L 184.844793 144.098292 
L 184.854839 144.098292 
L 184.965851 136.724687 
L 184.972308 136.724687 
L 185.079661 128.29771 
L 185.094818 128.29771 
L 185.199685 119.870733 
L 185.208082 119.870733 
L 185.317738 109.337011 
L 185.32694 109.337011 
L 185.431567 100.383348 
L 185.442424 100.383348 
L 185.552608 91.429684 
L 185.563957 91.429684 
L 185.669431 85.109451 
L 185.680986 85.109451 
L 185.785197 80.369277 
L 185.797515 80.369277 
L 185.876814 77.20916 
L 185.915495 77.20916 
L 186.021357 73.522358 
L 186.049516 73.522358 
L 186.150731 69.835555 
L 186.17074 69.835555 
L 186.25518 67.202125 
L 186.285141 67.202125 
L 186.385273 64.568694 
L 186.402852 64.568694 
L 186.447665 62.46195 
L 186.53373 62.46195 
L 186.53373 61.935264 
L 197.302727 61.935264 
L 197.302727 61.408578 
L 197.692882 61.408578 
L 197.692882 60.881892 
L 197.905781 60.881892 
L 197.905781 60.355206 
L 198.257496 60.355206 
L 198.300726 59.301833 
L 198.376803 59.301833 
L 198.481106 58.248461 
L 198.598361 58.248461 
L 198.671682 57.195089 
L 198.74363 57.195089 
L 198.814089 55.615031 
L 198.861389 55.615031 
L 198.903678 54.561659 
L 199.012627 54.561659 
L 199.115684 52.454914 
L 199.126504 52.454914 
L 199.23524 50.34817 
L 199.256207 50.34817 
L 199.361697 47.188054 
L 199.402919 47.188054 
L 199.509186 43.501251 
L 199.534283 43.501251 
L 199.632793 41.394507 
L 199.65569 41.394507 
L 199.746729 38.761076 
L 199.776509 38.761076 
L 199.88053 36.654332 
L 199.89737 36.654332 
L 199.985546 34.020902 
L 200.031633 34.020902 
L 200.129965 31.914157 
L 200.199952 31.914157 
L 200.244743 30.334099 
L 338.688 30.334099 
L 338.688 30.334099 
" style="fill:none;stroke:#000080;stroke-linecap:square;stroke-width:1.5;"/>
   </g>
   <g id="line2d_36">
    <defs>
     <path d="M 0 6 
C 1.591219 6 3.117479 5.367802 4.242641 4.242641 
C 5.367802 3.117479 6 1.591219 6 0 
C 6 -1.591219 5.367802 -3.117479 4.242641 -4.242641 
C 3.117479 -5.367802 1.591219 -6 0 -6 
C -1.591219 -6 -3.117479 -5.367802 -4.242641 -4.242641 
C -5.367802 -3.117479 -6 -1.591219 -6 0 
C -6 1.591219 -5.367802 3.117479 -4.242641 4.242641 
C -3.117479 5.367802 -1.591219 6 0 6 
z
" id="mb8204dc1d5" style="stroke:#000080;stroke-width:1.5;"/>
    </defs>
    <g>
     <use style="fill-opacity:0;stroke:#000080;stroke-width:1.5;" x="185.260398" xlink:href="#mb8204dc1d5" y="115.130558"/>
     <use style="fill-opacity:0;stroke:#000080;stroke-width:1.5;" x="200.244743" xlink:href="#mb8204dc1d5" y="30.860785"/>
     <use style="fill-opacity:0;stroke:#000080;stroke-width:1.5;" x="200.244743" xlink:href="#mb8204dc1d5" y="30.334099"/>
     <use style="fill-opacity:0;stroke:#000080;stroke-width:1.5;" x="200.244743" xlink:href="#mb8204dc1d5" y="30.334099"/>
     <use style="fill-opacity:0;stroke:#000080;stroke-width:1.5;" x="338.688" xlink:href="#mb8204dc1d5" y="30.334099"/>
    </g>
   </g>
   <g id="line2d_37">
    <path style="fill:none;stroke:#000080;stroke-linecap:square;stroke-width:1.5;"/>
    <g/>
   </g>
   <g id="line2d_38">
    <g>
     <use style="fill:#000080;stroke:#000080;" x="200.265386" xlink:href="#mc5235a753c" y="30.334099"/>
     <use style="fill:#000080;stroke:#000080;" x="200.265386" xlink:href="#mc5235a753c" y="30.334099"/>
    </g>
   </g>
   <g id="line2d_39">
    <path d="M 117.654224 298.944 
L 117.654224 298.417314 
L 120.069756 298.417314 
L 120.069756 297.890628 
L 120.453579 297.890628 
L 120.453579 297.363942 
L 120.677541 297.363942 
L 120.677541 296.837256 
L 121.08272 296.837256 
L 121.08272 296.31057 
L 121.953191 296.31057 
L 122.029227 295.257197 
L 122.072527 295.257197 
L 122.072527 294.730511 
L 123.313873 294.730511 
L 123.313873 294.203825 
L 123.494177 294.203825 
L 123.494177 293.677139 
L 123.731719 293.677139 
L 123.731719 293.150453 
L 123.917505 293.150453 
L 123.917505 292.623767 
L 124.557288 292.623767 
L 124.650796 291.570395 
L 125.576994 291.570395 
L 125.665205 290.517023 
L 125.97912 290.517023 
L 125.97912 289.990337 
L 126.937471 289.990337 
L 126.937471 289.463651 
L 127.165014 289.463651 
L 127.165014 288.936964 
L 127.397595 288.936964 
L 127.397595 288.410278 
L 128.305651 288.410278 
L 128.305651 287.883592 
L 128.478728 287.883592 
L 128.478728 287.356906 
L 129.125518 287.356906 
L 129.139943 286.303534 
L 129.88095 286.303534 
L 129.88095 285.776848 
L 130.991767 285.776848 
L 130.991767 285.250162 
L 131.204405 285.250162 
L 131.204405 284.723476 
L 134.423411 284.723476 
L 134.423411 284.19679 
L 135.452133 284.19679 
L 135.452133 283.670104 
L 135.868791 283.670104 
L 135.868791 283.143418 
L 161.272444 283.143418 
L 161.272444 282.616732 
L 162.915887 282.616732 
L 162.915887 282.090045 
L 163.046356 282.090045 
L 163.046356 281.563359 
L 163.278972 281.563359 
L 163.278972 281.036673 
L 164.121498 281.036673 
L 164.196023 279.456615 
L 164.549753 279.456615 
L 164.549753 278.929929 
L 165.066331 278.929929 
L 165.066331 278.403243 
L 165.320804 278.403243 
L 165.320804 277.876557 
L 172.001148 277.876557 
L 172.001148 277.349871 
L 172.278575 277.349871 
L 172.278575 276.823185 
L 172.769805 276.823185 
L 172.769805 276.296499 
L 172.893999 276.296499 
L 172.893999 275.769812 
L 173.335861 275.769812 
L 173.37242 274.71644 
L 173.785761 274.71644 
L 173.874143 273.663068 
L 175.21103 273.663068 
L 175.21103 273.136382 
L 176.327899 273.136382 
L 176.327899 272.609696 
L 177.112005 272.609696 
L 177.112005 272.08301 
L 177.613131 272.08301 
L 177.72286 269.449579 
L 178.121568 269.449579 
L 178.190533 268.396207 
L 178.277327 268.396207 
L 178.277327 267.869521 
L 178.673381 267.869521 
L 178.699468 266.816149 
L 179.220515 266.816149 
L 179.220515 266.289463 
L 179.355468 266.289463 
L 179.373275 265.236091 
L 179.877999 265.236091 
L 179.877999 264.709405 
L 180.067552 264.709405 
L 180.067552 264.182719 
L 180.227357 264.182719 
L 180.322618 262.60266 
L 180.583821 262.60266 
L 180.601926 261.549288 
L 180.846003 261.549288 
L 180.954586 260.495916 
L 181.004389 260.495916 
L 181.038615 258.915858 
L 181.160253 258.915858 
L 181.160253 258.389172 
L 181.326675 258.389172 
L 181.43483 255.755741 
L 181.550533 255.755741 
L 181.613256 254.702369 
L 181.709751 254.702369 
L 181.770143 253.648997 
L 181.910599 253.648997 
L 181.923884 252.595625 
L 182.031882 252.595625 
L 182.113309 251.015567 
L 182.173011 251.015567 
L 182.259954 249.435508 
L 182.291462 249.435508 
L 182.369985 246.275392 
L 182.571159 246.275392 
L 182.647765 243.641962 
L 182.726373 243.641962 
L 182.791 241.535217 
L 182.875585 241.535217 
L 182.951527 237.321729 
L 182.98806 237.321729 
L 183.090991 234.161612 
L 183.137341 234.161612 
L 183.235832 230.47481 
L 183.26045 230.47481 
L 183.359216 226.788007 
L 183.392335 226.788007 
L 183.466705 223.101204 
L 183.503451 223.101204 
L 183.599268 217.307658 
L 183.630984 217.307658 
L 183.736501 210.987425 
L 183.752557 210.987425 
L 183.8442 205.193878 
L 183.874538 205.193878 
L 183.972071 198.873645 
L 184.003738 198.873645 
L 184.111962 193.080098 
L 184.123672 193.080098 
L 184.230239 185.179807 
L 184.251046 185.179807 
L 184.357752 176.226143 
L 184.364133 176.226143 
L 184.464715 166.745794 
L 184.477397 166.745794 
L 184.588131 153.578642 
L 184.590231 153.578642 
L 184.701146 141.464862 
L 184.724079 141.464862 
L 184.832374 130.93114 
L 184.840063 130.93114 
L 184.950287 120.397419 
L 184.959686 120.397419 
L 185.059528 109.337011 
L 185.084618 109.337011 
L 185.193602 96.696545 
L 185.199395 96.696545 
L 185.305652 87.216196 
L 185.311408 87.216196 
L 185.403537 78.789218 
L 185.424707 78.789218 
L 185.53074 71.942299 
L 185.538411 71.942299 
L 185.643758 63.515322 
L 185.653636 63.515322 
L 185.752119 57.721775 
L 185.766143 57.721775 
L 185.851444 51.928228 
L 185.886005 51.928228 
L 185.993983 50.34817 
L 186.026053 50.34817 
L 186.070743 49.294798 
L 186.143051 49.294798 
L 186.229809 47.71474 
L 186.261176 47.71474 
L 186.351688 46.134681 
L 186.41258 46.134681 
L 186.492364 44.554623 
L 198.981906 44.554623 
L 198.981906 44.027937 
L 199.127156 44.027937 
L 199.127156 43.501251 
L 199.297034 43.501251 
L 199.297034 42.974565 
L 199.557055 42.974565 
L 199.66062 41.394507 
L 199.672875 41.394507 
L 199.771989 39.814448 
L 199.832665 39.814448 
L 199.918678 37.707704 
L 199.952641 37.707704 
L 200.05253 35.074274 
L 200.074266 35.074274 
L 200.161187 32.967529 
L 200.194436 32.967529 
L 200.265386 30.334099 
L 338.688 30.334099 
L 338.688 30.334099 
" style="fill:none;stroke:#000080;stroke-linecap:square;stroke-width:1.5;"/>
   </g>
   <g id="line2d_40">
    <g>
     <use style="fill-opacity:0;stroke:#000080;stroke-width:1.5;" x="184.685643" xlink:href="#mb8204dc1d5" y="144.624978"/>
     <use style="fill-opacity:0;stroke:#000080;stroke-width:1.5;" x="200.265386" xlink:href="#mb8204dc1d5" y="30.860785"/>
     <use style="fill-opacity:0;stroke:#000080;stroke-width:1.5;" x="200.265386" xlink:href="#mb8204dc1d5" y="30.334099"/>
     <use style="fill-opacity:0;stroke:#000080;stroke-width:1.5;" x="200.265386" xlink:href="#mb8204dc1d5" y="30.334099"/>
     <use style="fill-opacity:0;stroke:#000080;stroke-width:1.5;" x="338.688" xlink:href="#mb8204dc1d5" y="30.334099"/>
    </g>
   </g>
   <g id="line2d_41">
    <path style="fill:none;stroke:#000080;stroke-linecap:square;stroke-width:1.5;"/>
    <g/>
   </g>
   <g id="line2d_42">
    <defs>
     <path d="M 0 1.5 
C 0.397805 1.5 0.77937 1.341951 1.06066 1.06066 
C 1.341951 0.77937 1.5 0.397805 1.5 0 
C 1.5 -0.397805 1.341951 -0.77937 1.06066 -1.06066 
C 0.77937 -1.341951 0.397805 -1.5 0 -1.5 
C -0.397805 -1.5 -0.77937 -1.341951 -1.06066 -1.06066 
C -1.341951 -0.77937 -1.5 -0.397805 -1.5 0 
C -1.5 0.397805 -1.341951 0.77937 -1.06066 1.06066 
C -0.77937 1.341951 -0.397805 1.5 0 1.5 
z
" id="m23aaab09b5" style="stroke:#ff00ff;"/>
    </defs>
    <g>
     <use style="fill:#ff00ff;stroke:#ff00ff;" x="195.642438" xlink:href="#m23aaab09b5" y="30.334099"/>
     <use style="fill:#ff00ff;stroke:#ff00ff;" x="195.642438" xlink:href="#m23aaab09b5" y="30.334099"/>
    </g>
   </g>
   <g id="line2d_43">
    <path d="M 131.338382 298.944 
L 131.338382 298.417314 
L 131.864229 298.417314 
L 131.870395 297.363942 
L 132.864799 297.363942 
L 132.864799 296.837256 
L 133.605795 296.837256 
L 133.605795 296.31057 
L 134.160516 296.31057 
L 134.160516 295.783884 
L 134.745246 295.783884 
L 134.745246 295.257197 
L 134.958271 295.257197 
L 134.958271 294.730511 
L 135.582166 294.730511 
L 135.582166 294.203825 
L 135.760625 294.203825 
L 135.760625 293.677139 
L 136.541835 293.677139 
L 136.541835 293.150453 
L 137.638431 293.150453 
L 137.638431 292.623767 
L 137.884679 292.623767 
L 137.884679 292.097081 
L 138.303155 292.097081 
L 138.303155 291.570395 
L 138.50658 291.570395 
L 138.50658 291.043709 
L 139.163964 291.043709 
L 139.163964 290.517023 
L 139.309427 290.517023 
L 139.309427 289.990337 
L 139.820926 289.990337 
L 139.820926 289.463651 
L 140.517978 289.463651 
L 140.517978 288.936964 
L 140.801004 288.936964 
L 140.90413 287.883592 
L 141.506851 287.883592 
L 141.506851 287.356906 
L 143.518281 287.356906 
L 143.518281 286.83022 
L 144.339468 286.83022 
L 144.339468 286.303534 
L 144.519473 286.303534 
L 144.519473 285.776848 
L 144.777223 285.776848 
L 144.777223 285.250162 
L 145.31867 285.250162 
L 145.31867 284.723476 
L 152.613473 284.723476 
L 152.613473 284.19679 
L 160.088825 284.19679 
L 160.088825 283.670104 
L 165.497378 283.670104 
L 165.497378 283.143418 
L 173.700289 283.143418 
L 173.700289 282.616732 
L 173.938894 282.616732 
L 173.938894 282.090045 
L 174.963814 282.090045 
L 174.963814 281.563359 
L 175.726629 281.563359 
L 175.726629 281.036673 
L 176.144867 281.036673 
L 176.224514 279.983301 
L 176.351486 279.983301 
L 176.410552 278.929929 
L 177.524309 278.929929 
L 177.524309 278.403243 
L 179.401163 278.403243 
L 179.401163 277.876557 
L 182.558359 277.876557 
L 182.63133 276.823185 
L 183.103407 276.823185 
L 183.103407 276.296499 
L 183.597998 276.296499 
L 183.597998 275.769812 
L 184.0403 275.769812 
L 184.085123 274.71644 
L 184.167668 274.71644 
L 184.167668 274.189754 
L 184.419343 274.189754 
L 184.419343 273.663068 
L 184.845679 273.663068 
L 184.845679 273.136382 
L 186.072396 273.136382 
L 186.072396 272.609696 
L 186.361174 272.609696 
L 186.427702 271.556324 
L 186.873538 271.556324 
L 186.873538 271.029638 
L 187.285147 271.029638 
L 187.285147 270.502952 
L 187.621348 270.502952 
L 187.696805 268.922893 
L 187.860924 268.922893 
L 187.860924 268.396207 
L 188.333083 268.396207 
L 188.333083 267.869521 
L 188.458705 267.869521 
L 188.526564 266.816149 
L 189.157114 266.816149 
L 189.261821 264.709405 
L 189.292768 264.709405 
L 189.292768 264.182719 
L 189.40486 264.182719 
L 189.40486 263.656033 
L 189.775686 263.656033 
L 189.831513 262.075974 
L 190.278521 262.075974 
L 190.325211 260.495916 
L 190.430665 260.495916 
L 190.430665 259.96923 
L 190.560634 259.96923 
L 190.575748 258.915858 
L 190.774208 258.915858 
L 190.870714 257.3358 
L 191.038533 257.3358 
L 191.11689 254.175683 
L 191.18401 254.175683 
L 191.262332 253.122311 
L 191.308299 253.122311 
L 191.411236 252.068939 
L 191.421374 252.068939 
L 191.512761 249.962195 
L 191.587816 249.962195 
L 191.660551 247.85545 
L 191.707676 247.85545 
L 191.801546 246.275392 
L 191.822161 246.275392 
L 191.930979 243.115275 
L 191.981699 243.115275 
L 192.061608 240.481845 
L 192.111755 240.481845 
L 192.217624 236.268356 
L 192.232143 236.268356 
L 192.33844 233.634926 
L 192.357854 233.634926 
L 192.415394 231.528182 
L 192.473889 231.528182 
L 192.57721 227.841379 
L 192.594276 227.841379 
L 192.701409 224.154577 
L 192.708377 224.154577 
L 192.807887 218.887716 
L 192.826225 218.887716 
L 192.925254 212.567483 
L 192.973352 212.567483 
L 193.070076 206.24725 
L 193.09293 206.24725 
L 193.204008 197.820273 
L 193.210229 197.820273 
L 193.314201 189.393295 
L 193.322746 189.393295 
L 193.429484 179.912946 
L 193.438515 179.912946 
L 193.549574 168.852538 
L 193.552444 168.852538 
L 193.660464 157.79213 
L 193.66403 157.79213 
L 193.774729 143.571606 
L 193.778094 143.571606 
L 193.889129 131.457826 
L 193.894583 131.457826 
L 194.003833 118.817361 
L 194.009775 118.817361 
L 194.109101 106.176895 
L 194.122649 106.176895 
L 194.232382 91.95637 
L 194.237384 91.95637 
L 194.3464 76.155788 
L 194.35017 76.155788 
L 194.458315 62.988636 
L 194.466658 62.988636 
L 194.574423 51.401542 
L 194.605188 51.401542 
L 194.704547 46.134681 
L 194.717305 46.134681 
L 194.799503 40.867821 
L 194.845039 40.867821 
L 194.953644 37.707704 
L 194.959106 37.707704 
L 195.065689 35.074274 
L 195.102987 35.074274 
L 195.192375 33.494215 
L 195.359763 33.494215 
L 195.428205 31.914157 
L 195.532608 31.914157 
L 195.642438 30.334099 
L 338.688 30.334099 
L 338.688 30.334099 
" style="fill:none;stroke:#ff00ff;stroke-linecap:square;stroke-width:1.5;"/>
   </g>
   <g id="line2d_44">
    <defs>
     <path d="M -0 8.485281 
L 5.091169 0 
L 0 -8.485281 
L -5.091169 -0 
z
" id="mace6d1407d" style="stroke:#ff00ff;stroke-linejoin:miter;stroke-width:1.5;"/>
    </defs>
    <g>
     <use style="fill-opacity:0;stroke:#ff00ff;stroke-linejoin:miter;stroke-width:1.5;" x="192.790842" xlink:href="#mace6d1407d" y="220.99446"/>
     <use style="fill-opacity:0;stroke:#ff00ff;stroke-linejoin:miter;stroke-width:1.5;" x="195.642438" xlink:href="#mace6d1407d" y="30.860785"/>
     <use style="fill-opacity:0;stroke:#ff00ff;stroke-linejoin:miter;stroke-width:1.5;" x="195.642438" xlink:href="#mace6d1407d" y="30.334099"/>
     <use style="fill-opacity:0;stroke:#ff00ff;stroke-linejoin:miter;stroke-width:1.5;" x="195.642438" xlink:href="#mace6d1407d" y="30.334099"/>
     <use style="fill-opacity:0;stroke:#ff00ff;stroke-linejoin:miter;stroke-width:1.5;" x="338.688" xlink:href="#mace6d1407d" y="30.334099"/>
    </g>
   </g>
   <g id="line2d_45">
    <path style="fill:none;stroke:#ff00ff;stroke-linecap:square;stroke-width:1.5;"/>
    <g/>
   </g>
   <g id="line2d_46">
    <defs>
     <path d="M 0 1.5 
C 0.397805 1.5 0.77937 1.341951 1.06066 1.06066 
C 1.341951 0.77937 1.5 0.397805 1.5 0 
C 1.5 -0.397805 1.341951 -0.77937 1.06066 -1.06066 
C 0.77937 -1.341951 0.397805 -1.5 0 -1.5 
C -0.397805 -1.5 -0.77937 -1.341951 -1.06066 -1.06066 
C -1.341951 -0.77937 -1.5 -0.397805 -1.5 0 
C -1.5 0.397805 -1.341951 0.77937 -1.06066 1.06066 
C -0.77937 1.341951 -0.397805 1.5 0 1.5 
z
" id="m6b703e2fd2" style="stroke:#ff0000;"/>
    </defs>
    <g>
     <use style="fill:#ff0000;stroke:#ff0000;" x="204.291275" xlink:href="#m6b703e2fd2" y="30.334099"/>
     <use style="fill:#ff0000;stroke:#ff0000;" x="204.291275" xlink:href="#m6b703e2fd2" y="30.334099"/>
    </g>
   </g>
   <g id="line2d_47">
    <path d="M 122.44689 298.944 
L 122.44689 298.417314 
L 124.292765 298.417314 
L 124.292765 297.890628 
L 124.425528 297.890628 
L 124.425528 297.363942 
L 125.735454 297.363942 
L 125.735454 296.837256 
L 126.022276 296.837256 
L 126.022276 296.31057 
L 126.540355 296.31057 
L 126.648803 294.730511 
L 127.333744 294.730511 
L 127.333744 294.203825 
L 128.366047 294.203825 
L 128.366047 293.677139 
L 128.598125 293.677139 
L 128.598125 293.150453 
L 129.06046 293.150453 
L 129.06046 292.623767 
L 130.585116 292.623767 
L 130.585116 292.097081 
L 130.959322 292.097081 
L 130.959322 291.570395 
L 131.127382 291.570395 
L 131.127382 291.043709 
L 131.672008 291.043709 
L 131.672008 290.517023 
L 132.005488 290.517023 
L 132.005488 289.990337 
L 132.771384 289.990337 
L 132.771384 289.463651 
L 133.318838 289.463651 
L 133.318838 288.936964 
L 133.5499 288.936964 
L 133.5499 288.410278 
L 133.683748 288.410278 
L 133.683748 287.883592 
L 134.095524 287.883592 
L 134.095524 287.356906 
L 136.318768 287.356906 
L 136.347404 286.303534 
L 138.179093 286.303534 
L 138.179093 285.776848 
L 138.910565 285.776848 
L 138.910565 285.250162 
L 140.995694 285.250162 
L 140.995694 284.723476 
L 142.065403 284.723476 
L 142.065403 284.19679 
L 146.649302 284.19679 
L 146.649302 283.670104 
L 149.115797 283.670104 
L 149.115797 283.143418 
L 167.280836 283.143418 
L 167.280836 282.616732 
L 169.059481 282.616732 
L 169.059481 282.090045 
L 169.244833 282.090045 
L 169.244833 281.563359 
L 169.8851 281.563359 
L 169.8851 281.036673 
L 170.153445 281.036673 
L 170.153445 280.509987 
L 170.680053 280.509987 
L 170.680053 279.983301 
L 171.312376 279.983301 
L 171.338045 278.929929 
L 172.105778 278.929929 
L 172.105778 278.403243 
L 173.605389 278.403243 
L 173.605389 277.876557 
L 176.532374 277.876557 
L 176.532374 277.349871 
L 177.790317 277.349871 
L 177.790317 276.823185 
L 178.02307 276.823185 
L 178.02307 276.296499 
L 178.509663 276.296499 
L 178.509663 275.769812 
L 178.683905 275.769812 
L 178.683905 275.243126 
L 178.939973 275.243126 
L 178.939973 274.71644 
L 179.147319 274.71644 
L 179.147319 274.189754 
L 179.275923 274.189754 
L 179.275923 273.663068 
L 180.341378 273.663068 
L 180.341378 273.136382 
L 180.575895 273.136382 
L 180.575895 272.609696 
L 180.765895 272.609696 
L 180.765895 271.556324 
L 181.558385 271.556324 
L 181.558385 271.029638 
L 181.793396 271.029638 
L 181.887502 269.976266 
L 182.742719 269.976266 
L 182.780689 268.922893 
L 182.977207 268.922893 
L 182.977207 268.396207 
L 183.233239 268.396207 
L 183.233239 267.869521 
L 183.697401 267.869521 
L 183.697401 267.342835 
L 183.84107 267.342835 
L 183.895773 266.289463 
L 183.956838 266.289463 
L 184.048036 264.709405 
L 184.140607 264.709405 
L 184.140607 264.182719 
L 184.617502 264.182719 
L 184.728245 262.60266 
L 184.942353 262.60266 
L 184.964384 261.022602 
L 185.13091 261.022602 
L 185.235849 259.96923 
L 185.520792 259.96923 
L 185.520792 259.442544 
L 185.687183 259.442544 
L 185.759133 257.862486 
L 185.826596 257.862486 
L 185.910212 254.702369 
L 186.075701 254.702369 
L 186.07818 253.648997 
L 186.265808 253.648997 
L 186.364967 252.595625 
L 186.39447 252.595625 
L 186.471914 251.015567 
L 186.534534 251.015567 
L 186.604681 249.435508 
L 186.656441 249.435508 
L 186.7192 247.85545 
L 186.77168 247.85545 
L 186.866433 246.275392 
L 186.926868 246.275392 
L 186.96172 243.115275 
L 187.060916 243.115275 
L 187.166796 241.008531 
L 187.214078 241.008531 
L 187.266378 238.375101 
L 187.325958 238.375101 
L 187.403212 235.214984 
L 187.440692 235.214984 
L 187.535434 232.054868 
L 187.560747 232.054868 
L 187.660124 227.841379 
L 187.672443 227.841379 
L 187.779182 223.101204 
L 187.786175 223.101204 
L 187.889493 216.780971 
L 187.911074 216.780971 
L 188.016121 212.040797 
L 188.039024 212.040797 
L 188.145017 206.773936 
L 188.153821 206.773936 
L 188.249884 198.873645 
L 188.264952 198.873645 
L 188.368136 191.50004 
L 188.379242 191.50004 
L 188.487751 181.493004 
L 188.498062 181.493004 
L 188.608219 172.012655 
L 188.615601 172.012655 
L 188.717447 160.425561 
L 188.738975 160.425561 
L 188.835639 151.471897 
L 188.852089 151.471897 
L 188.942522 144.624978 
L 188.967041 144.624978 
L 189.071733 136.724687 
L 189.088194 136.724687 
L 189.193084 123.557535 
L 189.216103 123.557535 
L 189.324345 113.5505 
L 189.329145 113.5505 
L 189.430783 103.016778 
L 189.449633 103.016778 
L 189.557567 95.116487 
L 189.570646 95.116487 
L 189.681644 86.68951 
L 189.700449 86.68951 
L 189.801509 78.789218 
L 189.81196 78.789218 
L 189.909504 74.049044 
L 189.92674 74.049044 
L 190.002548 71.415613 
L 190.045814 71.415613 
L 190.107124 70.362241 
L 190.2278 70.362241 
L 190.328664 68.255497 
L 190.361654 68.255497 
L 190.454679 66.148752 
L 190.487859 66.148752 
L 190.545506 65.09538 
L 190.602326 65.09538 
L 190.699152 62.988636 
L 190.715624 62.988636 
L 190.806996 60.881892 
L 201.966405 60.881892 
L 202.052563 59.82852 
L 202.324252 59.82852 
L 202.324252 59.301833 
L 202.443825 59.301833 
L 202.542454 58.248461 
L 202.854095 58.248461 
L 202.854095 57.721775 
L 202.984104 57.721775 
L 203.003939 56.668403 
L 203.116054 56.668403 
L 203.211273 55.615031 
L 203.288327 55.615031 
L 203.395676 52.9816 
L 203.435724 52.9816 
L 203.546015 50.34817 
L 203.580875 50.34817 
L 203.683233 48.241426 
L 203.718721 48.241426 
L 203.808323 45.607995 
L 203.85151 45.607995 
L 203.96178 41.394507 
L 203.963755 41.394507 
L 204.067822 37.707704 
L 204.078225 37.707704 
L 204.188731 34.020902 
L 204.19302 34.020902 
L 204.291275 30.334099 
L 338.688 30.334099 
L 338.688 30.334099 
" style="fill:none;stroke:#ff0000;stroke-linecap:square;stroke-width:1.5;"/>
   </g>
   <g id="line2d_48">
    <defs>
     <path d="M 0 -6 
L -5.196152 -3 
L -5.196152 3 
L -0 6 
L 5.196152 3 
L 5.196152 -3 
z
" id="m0e0e95be77" style="stroke:#ff0000;stroke-linejoin:miter;stroke-width:1.5;"/>
    </defs>
    <g>
     <use style="fill-opacity:0;stroke:#ff0000;stroke-linejoin:miter;stroke-width:1.5;" x="188.623933" xlink:href="#m0e0e95be77" y="169.90591"/>
     <use style="fill-opacity:0;stroke:#ff0000;stroke-linejoin:miter;stroke-width:1.5;" x="204.291275" xlink:href="#m0e0e95be77" y="30.860785"/>
     <use style="fill-opacity:0;stroke:#ff0000;stroke-linejoin:miter;stroke-width:1.5;" x="204.291275" xlink:href="#m0e0e95be77" y="30.334099"/>
     <use style="fill-opacity:0;stroke:#ff0000;stroke-linejoin:miter;stroke-width:1.5;" x="204.291275" xlink:href="#m0e0e95be77" y="30.334099"/>
     <use style="fill-opacity:0;stroke:#ff0000;stroke-linejoin:miter;stroke-width:1.5;" x="338.688" xlink:href="#m0e0e95be77" y="30.334099"/>
    </g>
   </g>
   <g id="line2d_49">
    <path style="fill:none;stroke:#ff0000;stroke-linecap:square;stroke-width:1.5;"/>
    <g/>
   </g>
   <g id="line2d_50">
    <defs>
     <path d="M 0 1.5 
C 0.397805 1.5 0.77937 1.341951 1.06066 1.06066 
C 1.341951 0.77937 1.5 0.397805 1.5 0 
C 1.5 -0.397805 1.341951 -0.77937 1.06066 -1.06066 
C 0.77937 -1.341951 0.397805 -1.5 0 -1.5 
C -0.397805 -1.5 -0.77937 -1.341951 -1.06066 -1.06066 
C -1.341951 -0.77937 -1.5 -0.397805 -1.5 0 
C -1.5 0.397805 -1.341951 0.77937 -1.06066 1.06066 
C -0.77937 1.341951 -0.397805 1.5 0 1.5 
z
" id="mf5ee9460b1" style="stroke:#ff7500;"/>
    </defs>
    <g>
     <use style="fill:#ff7500;stroke:#ff7500;" x="202.194239" xlink:href="#mf5ee9460b1" y="30.334099"/>
     <use style="fill:#ff7500;stroke:#ff7500;" x="202.194239" xlink:href="#mf5ee9460b1" y="30.334099"/>
    </g>
   </g>
   <g id="line2d_51">
    <path d="M 121.321384 298.944 
L 121.366476 297.363942 
L 122.415115 297.363942 
L 122.415115 296.837256 
L 122.678156 296.837256 
L 122.678156 296.31057 
L 123.050097 296.31057 
L 123.101134 295.257197 
L 123.524047 295.257197 
L 123.524047 294.730511 
L 123.780803 294.730511 
L 123.780803 294.203825 
L 124.519744 294.203825 
L 124.519744 293.677139 
L 124.863982 293.677139 
L 124.863982 293.150453 
L 125.047266 293.150453 
L 125.047266 292.623767 
L 125.576994 292.623767 
L 125.576994 292.097081 
L 126.056724 292.097081 
L 126.056724 291.570395 
L 127.5641 291.570395 
L 127.5641 291.043709 
L 129.168756 291.043709 
L 129.168756 290.517023 
L 129.602362 290.517023 
L 129.602362 289.990337 
L 129.756136 289.990337 
L 129.756136 289.463651 
L 130.093837 289.463651 
L 130.093837 288.936964 
L 130.438511 288.936964 
L 130.505303 287.883592 
L 130.763373 287.883592 
L 130.763373 287.356906 
L 132.28462 287.356906 
L 132.28462 286.83022 
L 133.672633 286.83022 
L 133.672633 286.303534 
L 135.336291 286.303534 
L 135.336291 285.776848 
L 136.979586 285.776848 
L 136.979586 285.250162 
L 138.166208 285.250162 
L 138.166208 284.723476 
L 138.69516 284.723476 
L 138.69516 284.19679 
L 149.361713 284.19679 
L 149.361713 283.670104 
L 150.645057 283.670104 
L 150.645057 283.143418 
L 162.720437 283.143418 
L 162.720437 282.616732 
L 165.488412 282.616732 
L 165.573402 281.563359 
L 165.983528 281.563359 
L 165.983528 281.036673 
L 167.643609 281.036673 
L 167.643609 280.509987 
L 167.802974 280.509987 
L 167.802974 279.983301 
L 168.116628 279.983301 
L 168.116628 279.456615 
L 170.954891 279.456615 
L 170.954891 278.929929 
L 171.494446 278.929929 
L 171.494446 278.403243 
L 174.475228 278.403243 
L 174.475228 277.876557 
L 174.665421 277.876557 
L 174.665421 277.349871 
L 174.815256 277.349871 
L 174.815256 276.823185 
L 174.97527 276.823185 
L 174.97527 276.296499 
L 175.137439 276.296499 
L 175.137439 275.769812 
L 176.262751 275.769812 
L 176.333679 274.71644 
L 177.39747 274.71644 
L 177.39747 274.189754 
L 177.746411 274.189754 
L 177.781456 273.136382 
L 178.20438 273.136382 
L 178.308742 271.556324 
L 178.397091 271.556324 
L 178.463698 270.502952 
L 178.589387 270.502952 
L 178.647678 269.449579 
L 178.705773 269.449579 
L 178.745235 268.396207 
L 178.828484 268.396207 
L 178.905521 267.342835 
L 178.995452 267.342835 
L 179.068464 266.289463 
L 179.295031 266.289463 
L 179.295031 265.762777 
L 179.459221 265.762777 
L 179.459221 265.236091 
L 180.009147 265.236091 
L 180.009147 264.709405 
L 180.265831 264.709405 
L 180.265831 264.182719 
L 180.463021 264.182719 
L 180.463021 263.656033 
L 180.638831 263.656033 
L 180.704915 262.60266 
L 180.753192 262.60266 
L 180.863095 260.495916 
L 181.043394 260.495916 
L 181.083412 258.915858 
L 181.228395 258.915858 
L 181.327037 257.3358 
L 181.394531 257.3358 
L 181.483641 255.229055 
L 181.516582 255.229055 
L 181.596172 254.175683 
L 181.646309 254.175683 
L 181.724957 252.595625 
L 181.783535 252.595625 
L 181.887151 251.015567 
L 181.938904 251.015567 
L 182.022155 248.382136 
L 182.102589 248.382136 
L 182.158535 246.275392 
L 182.344078 246.275392 
L 182.433569 244.695334 
L 182.475603 244.695334 
L 182.475603 244.168648 
L 182.638376 244.168648 
L 182.683935 242.588589 
L 182.761714 242.588589 
L 182.831851 241.535217 
L 183.092952 241.535217 
L 183.159819 239.428473 
L 183.266275 239.428473 
L 183.288587 237.848415 
L 183.402612 237.848415 
L 183.428918 236.795043 
L 183.543306 236.795043 
L 183.619256 234.161612 
L 183.747521 234.161612 
L 183.836373 233.10824 
L 183.885159 233.10824 
L 183.953417 231.528182 
L 184.022028 231.528182 
L 184.119667 229.421437 
L 184.164595 229.421437 
L 184.263274 227.841379 
L 184.285263 227.841379 
L 184.312405 225.734635 
L 184.419949 225.734635 
L 184.52593 223.101204 
L 184.554804 223.101204 
L 184.586331 221.521146 
L 184.673409 221.521146 
L 184.780536 218.887716 
L 184.819355 218.887716 
L 184.88111 215.727599 
L 184.945586 215.727599 
L 185.044632 209.934052 
L 185.06595 209.934052 
L 185.166347 206.773936 
L 185.197368 206.773936 
L 185.290676 202.033761 
L 185.330965 202.033761 
L 185.429567 196.240214 
L 185.442139 196.240214 
L 185.5404 192.553412 
L 185.556581 192.553412 
L 185.661818 184.126434 
L 185.685775 184.126434 
L 185.789397 177.279515 
L 185.800593 177.279515 
L 185.911603 166.745794 
L 185.923276 166.745794 
L 186.015001 158.845503 
L 186.061373 158.845503 
L 186.16115 146.731723 
L 186.183884 146.731723 
L 186.293303 135.144629 
L 186.298743 135.144629 
L 186.405014 126.190966 
L 186.411499 126.190966 
L 186.521115 114.603872 
L 186.524874 114.603872 
L 186.635916 105.123522 
L 186.645782 105.123522 
L 186.748375 93.009743 
L 186.765857 93.009743 
L 186.869328 83.529393 
L 186.888003 83.529393 
L 186.998332 75.629102 
L 187.029391 75.629102 
L 187.139609 70.362241 
L 187.164985 70.362241 
L 187.269979 64.568694 
L 187.313392 64.568694 
L 187.419795 60.355206 
L 187.46131 60.355206 
L 187.564541 58.248461 
L 187.616054 58.248461 
L 187.680986 56.668403 
L 187.745427 56.668403 
L 187.816113 55.615031 
L 187.888003 55.615031 
L 187.982081 54.034973 
L 188.016367 54.034973 
L 188.120784 52.454914 
L 188.165308 52.454914 
L 188.254989 50.34817 
L 188.29602 50.34817 
L 188.40119 49.294798 
L 188.427204 49.294798 
L 188.528717 47.188054 
L 188.597973 47.188054 
L 188.647002 46.134681 
L 200.034231 46.134681 
L 200.034231 45.607995 
L 200.384736 45.607995 
L 200.384736 45.081309 
L 200.595995 45.081309 
L 200.595995 44.554623 
L 200.744732 44.554623 
L 200.744732 44.027937 
L 201.009467 44.027937 
L 201.009467 43.501251 
L 201.215879 43.501251 
L 201.279115 42.447879 
L 201.531946 42.447879 
L 201.580015 40.867821 
L 201.644428 40.867821 
L 201.75518 38.761076 
L 201.774336 38.761076 
L 201.868909 36.654332 
L 201.931378 36.654332 
L 202.024774 33.494215 
L 202.060385 33.494215 
L 202.157038 31.387471 
L 202.175211 31.387471 
L 202.194239 30.334099 
L 338.688 30.334099 
L 338.688 30.334099 
" style="fill:none;stroke:#ff7500;stroke-linecap:square;stroke-width:1.5;"/>
   </g>
   <g id="line2d_52">
    <defs>
     <path d="M 0 -6 
L -1.347084 -1.854102 
L -5.706339 -1.854102 
L -2.179628 0.708204 
L -3.526712 4.854102 
L -0 2.291796 
L 3.526712 4.854102 
L 2.179628 0.708204 
L 5.706339 -1.854102 
L 1.347084 -1.854102 
z
" id="m3e486db3d2" style="stroke:#ff7500;stroke-linejoin:bevel;stroke-width:1.5;"/>
    </defs>
    <g>
     <use style="fill-opacity:0;stroke:#ff7500;stroke-linejoin:bevel;stroke-width:1.5;" x="171.494446" xlink:href="#m3e486db3d2" y="278.403243"/>
     <use style="fill-opacity:0;stroke:#ff7500;stroke-linejoin:bevel;stroke-width:1.5;" x="186.987356" xlink:href="#m3e486db3d2" y="76.682474"/>
     <use style="fill-opacity:0;stroke:#ff7500;stroke-linejoin:bevel;stroke-width:1.5;" x="202.194239" xlink:href="#m3e486db3d2" y="30.334099"/>
     <use style="fill-opacity:0;stroke:#ff7500;stroke-linejoin:bevel;stroke-width:1.5;" x="202.194239" xlink:href="#m3e486db3d2" y="30.334099"/>
     <use style="fill-opacity:0;stroke:#ff7500;stroke-linejoin:bevel;stroke-width:1.5;" x="338.688" xlink:href="#m3e486db3d2" y="30.334099"/>
    </g>
   </g>
   <g id="line2d_53">
    <path style="fill:none;stroke:#ff7500;stroke-linecap:square;stroke-width:1.5;"/>
    <g/>
   </g>
   <g id="line2d_54">
    <path d="M 338.688 30.334099 
L 369.60768 293.571802 
" style="fill:none;stroke:#ff0000;stroke-linecap:square;stroke-width:1.5;"/>
    <g>
     <use style="fill-opacity:0;stroke:#ff0000;stroke-linejoin:miter;stroke-width:1.5;" x="338.688" xlink:href="#m0e0e95be77" y="30.334099"/>
     <use style="fill-opacity:0;stroke:#ff0000;stroke-linejoin:miter;stroke-width:1.5;" x="369.60768" xlink:href="#m0e0e95be77" y="293.571802"/>
    </g>
   </g>
   <g id="line2d_55">
    <path d="M 338.688 30.334099 
L 369.60768 241.998701 
" style="fill:none;stroke:#ff7500;stroke-linecap:square;stroke-width:1.5;"/>
    <g>
     <use style="fill-opacity:0;stroke:#ff7500;stroke-linejoin:bevel;stroke-width:1.5;" x="338.688" xlink:href="#m3e486db3d2" y="30.334099"/>
     <use style="fill-opacity:0;stroke:#ff7500;stroke-linejoin:bevel;stroke-width:1.5;" x="369.60768" xlink:href="#m3e486db3d2" y="241.998701"/>
    </g>
   </g>
   <g id="line2d_56">
    <path d="M 338.688 30.334099 
L 369.60768 190.4256 
" style="fill:none;stroke:#000080;stroke-linecap:square;stroke-width:1.5;"/>
    <g>
     <use style="fill-opacity:0;stroke:#000080;stroke-width:1.5;" x="338.688" xlink:href="#mb8204dc1d5" y="30.334099"/>
     <use style="fill-opacity:0;stroke:#000080;stroke-width:1.5;" x="369.60768" xlink:href="#mb8204dc1d5" y="190.4256"/>
    </g>
   </g>
   <g id="line2d_57">
    <path d="M 338.688 30.334099 
L 369.60768 138.852499 
" style="fill:none;stroke:#000080;stroke-linecap:square;stroke-width:1.5;"/>
    <g>
     <use style="fill-opacity:0;stroke:#000080;stroke-width:1.5;" x="338.688" xlink:href="#mb8204dc1d5" y="30.334099"/>
     <use style="fill-opacity:0;stroke:#000080;stroke-width:1.5;" x="369.60768" xlink:href="#mb8204dc1d5" y="138.852499"/>
    </g>
   </g>
   <g id="line2d_58">
    <path d="M 338.688 30.334099 
L 369.60768 87.279398 
" style="fill:none;stroke:#ff00ff;stroke-linecap:square;stroke-width:1.5;"/>
    <g>
     <use style="fill-opacity:0;stroke:#ff00ff;stroke-linejoin:miter;stroke-width:1.5;" x="338.688" xlink:href="#mace6d1407d" y="30.334099"/>
     <use style="fill-opacity:0;stroke:#ff00ff;stroke-linejoin:miter;stroke-width:1.5;" x="369.60768" xlink:href="#mace6d1407d" y="87.279398"/>
    </g>
   </g>
   <g id="line2d_59">
    <path d="M 338.688 298.944 
L 338.688 30.334099 
" style="fill:none;stroke:#000000;stroke-linecap:square;stroke-width:1.5;"/>
   </g>
   <g id="patch_3">
    <path d="M 57.6 298.944 
L 57.6 27.648 
" style="fill:none;stroke:#000000;stroke-linecap:square;stroke-linejoin:miter;stroke-width:0.8;"/>
   </g>
   <g id="patch_4">
    <path d="M 338.688 298.944 
L 338.688 27.648 
" style="fill:none;stroke:#000000;stroke-linecap:square;stroke-linejoin:miter;stroke-width:0.8;"/>
   </g>
   <g id="patch_5">
    <path d="M 57.6 298.944 
L 338.688 298.944 
" style="fill:none;stroke:#000000;stroke-linecap:square;stroke-linejoin:miter;stroke-width:0.8;"/>
   </g>
   <g id="patch_6">
    <path d="M 57.6 27.648 
L 338.688 27.648 
" style="fill:none;stroke:#000000;stroke-linecap:square;stroke-linejoin:miter;stroke-width:0.8;"/>
   </g>
   <g id="text_13">
    <!-- 050s-2e4 -->
    <defs>
     <path d="M 10.796875 72.90625 
L 49.515625 72.90625 
L 49.515625 64.59375 
L 19.828125 64.59375 
L 19.828125 46.734375 
Q 21.96875 47.46875 24.109375 47.828125 
Q 26.265625 48.1875 28.421875 48.1875 
Q 40.625 48.1875 47.75 41.5 
Q 54.890625 34.8125 54.890625 23.390625 
Q 54.890625 11.625 47.5625 5.09375 
Q 40.234375 -1.421875 26.90625 -1.421875 
Q 22.3125 -1.421875 17.546875 -0.640625 
Q 12.796875 0.140625 7.71875 1.703125 
L 7.71875 11.625 
Q 12.109375 9.234375 16.796875 8.0625 
Q 21.484375 6.890625 26.703125 6.890625 
Q 35.15625 6.890625 40.078125 11.328125 
Q 45.015625 15.765625 45.015625 23.390625 
Q 45.015625 31 40.078125 35.4375 
Q 35.15625 39.890625 26.703125 39.890625 
Q 22.75 39.890625 18.8125 39.015625 
Q 14.890625 38.140625 10.796875 36.28125 
z
" id="DejaVuSans-53"/>
    </defs>
    <g transform="translate(375.22944 298.262739)scale(0.17 -0.17)">
     <use xlink:href="#DejaVuSans-48"/>
     <use x="63.623047" xlink:href="#DejaVuSans-53"/>
     <use x="127.246094" xlink:href="#DejaVuSans-48"/>
     <use x="190.869141" xlink:href="#DejaVuSans-115"/>
     <use x="242.96875" xlink:href="#DejaVuSans-45"/>
     <use x="279.052734" xlink:href="#DejaVuSans-50"/>
     <use x="342.675781" xlink:href="#DejaVuSans-101"/>
     <use x="404.199219" xlink:href="#DejaVuSans-52"/>
    </g>
   </g>
   <g id="text_14">
    <!-- 075s-2e4 -->
    <defs>
     <path d="M 8.203125 72.90625 
L 55.078125 72.90625 
L 55.078125 68.703125 
L 28.609375 0 
L 18.3125 0 
L 43.21875 64.59375 
L 8.203125 64.59375 
z
" id="DejaVuSans-55"/>
    </defs>
    <g transform="translate(375.22944 246.689638)scale(0.17 -0.17)">
     <use xlink:href="#DejaVuSans-48"/>
     <use x="63.623047" xlink:href="#DejaVuSans-55"/>
     <use x="127.246094" xlink:href="#DejaVuSans-53"/>
     <use x="190.869141" xlink:href="#DejaVuSans-115"/>
     <use x="242.96875" xlink:href="#DejaVuSans-45"/>
     <use x="279.052734" xlink:href="#DejaVuSans-50"/>
     <use x="342.675781" xlink:href="#DejaVuSans-101"/>
     <use x="404.199219" xlink:href="#DejaVuSans-52"/>
    </g>
   </g>
   <g id="text_15">
    <!-- 100-1e5 -->
    <g transform="translate(375.22944 195.116537)scale(0.17 -0.17)">
     <use xlink:href="#DejaVuSans-49"/>
     <use x="63.623047" xlink:href="#DejaVuSans-48"/>
     <use x="127.246094" xlink:href="#DejaVuSans-48"/>
     <use x="190.869141" xlink:href="#DejaVuSans-45"/>
     <use x="226.953125" xlink:href="#DejaVuSans-49"/>
     <use x="290.576172" xlink:href="#DejaVuSans-101"/>
     <use x="352.099609" xlink:href="#DejaVuSans-53"/>
    </g>
   </g>
   <g id="text_16">
    <!-- 100-2e4 -->
    <g transform="translate(375.22944 143.543437)scale(0.17 -0.17)">
     <use xlink:href="#DejaVuSans-49"/>
     <use x="63.623047" xlink:href="#DejaVuSans-48"/>
     <use x="127.246094" xlink:href="#DejaVuSans-48"/>
     <use x="190.869141" xlink:href="#DejaVuSans-45"/>
     <use x="226.953125" xlink:href="#DejaVuSans-50"/>
     <use x="290.576172" xlink:href="#DejaVuSans-101"/>
     <use x="352.099609" xlink:href="#DejaVuSans-52"/>
    </g>
   </g>
   <g id="text_17">
    <!-- 025s-2e4 -->
    <g transform="translate(375.22944 91.970336)scale(0.17 -0.17)">
     <use xlink:href="#DejaVuSans-48"/>
     <use x="63.623047" xlink:href="#DejaVuSans-50"/>
     <use x="127.246094" xlink:href="#DejaVuSans-53"/>
     <use x="190.869141" xlink:href="#DejaVuSans-115"/>
     <use x="242.96875" xlink:href="#DejaVuSans-45"/>
     <use x="279.052734" xlink:href="#DejaVuSans-50"/>
     <use x="342.675781" xlink:href="#DejaVuSans-101"/>
     <use x="404.199219" xlink:href="#DejaVuSans-52"/>
    </g>
   </g>
   <g id="text_18">
    <!-- best 2009 -->
    <defs>
     <path d="M 48.6875 27.296875 
Q 48.6875 37.203125 44.609375 42.84375 
Q 40.53125 48.484375 33.40625 48.484375 
Q 26.265625 48.484375 22.1875 42.84375 
Q 18.109375 37.203125 18.109375 27.296875 
Q 18.109375 17.390625 22.1875 11.75 
Q 26.265625 6.109375 33.40625 6.109375 
Q 40.53125 6.109375 44.609375 11.75 
Q 48.6875 17.390625 48.6875 27.296875 
z
M 18.109375 46.390625 
Q 20.953125 51.265625 25.265625 53.625 
Q 29.59375 56 35.59375 56 
Q 45.5625 56 51.78125 48.09375 
Q 58.015625 40.1875 58.015625 27.296875 
Q 58.015625 14.40625 51.78125 6.484375 
Q 45.5625 -1.421875 35.59375 -1.421875 
Q 29.59375 -1.421875 25.265625 0.953125 
Q 20.953125 3.328125 18.109375 8.203125 
L 18.109375 0 
L 9.078125 0 
L 9.078125 75.984375 
L 18.109375 75.984375 
z
" id="DejaVuSans-98"/>
     <path d="M 10.984375 1.515625 
L 10.984375 10.5 
Q 14.703125 8.734375 18.5 7.8125 
Q 22.3125 6.890625 25.984375 6.890625 
Q 35.75 6.890625 40.890625 13.453125 
Q 46.046875 20.015625 46.78125 33.40625 
Q 43.953125 29.203125 39.59375 26.953125 
Q 35.25 24.703125 29.984375 24.703125 
Q 19.046875 24.703125 12.671875 31.3125 
Q 6.296875 37.9375 6.296875 49.421875 
Q 6.296875 60.640625 12.9375 67.421875 
Q 19.578125 74.21875 30.609375 74.21875 
Q 43.265625 74.21875 49.921875 64.515625 
Q 56.59375 54.828125 56.59375 36.375 
Q 56.59375 19.140625 48.40625 8.859375 
Q 40.234375 -1.421875 26.421875 -1.421875 
Q 22.703125 -1.421875 18.890625 -0.6875 
Q 15.09375 0.046875 10.984375 1.515625 
z
M 30.609375 32.421875 
Q 37.25 32.421875 41.125 36.953125 
Q 45.015625 41.5 45.015625 49.421875 
Q 45.015625 57.28125 41.125 61.84375 
Q 37.25 66.40625 30.609375 66.40625 
Q 23.96875 66.40625 20.09375 61.84375 
Q 16.21875 57.28125 16.21875 49.421875 
Q 16.21875 41.5 20.09375 36.953125 
Q 23.96875 32.421875 30.609375 32.421875 
z
" id="DejaVuSans-57"/>
    </defs>
    <g transform="translate(375.22944 40.397235)scale(0.17 -0.17)">
     <use xlink:href="#DejaVuSans-98"/>
     <use x="63.476562" xlink:href="#DejaVuSans-101"/>
     <use x="125" xlink:href="#DejaVuSans-115"/>
     <use x="177.099609" xlink:href="#DejaVuSans-116"/>
     <use x="216.308594" xlink:href="#DejaVuSans-32"/>
     <use x="248.095703" xlink:href="#DejaVuSans-50"/>
     <use x="311.71875" xlink:href="#DejaVuSans-48"/>
     <use x="375.341797" xlink:href="#DejaVuSans-48"/>
     <use x="438.964844" xlink:href="#DejaVuSans-57"/>
    </g>
   </g>
   <g id="text_19">
    <!-- bbob f8, 40-D -->
    <defs>
     <path d="M 19.671875 64.796875 
L 19.671875 8.109375 
L 31.59375 8.109375 
Q 46.6875 8.109375 53.6875 14.9375 
Q 60.6875 21.78125 60.6875 36.53125 
Q 60.6875 51.171875 53.6875 57.984375 
Q 46.6875 64.796875 31.59375 64.796875 
z
M 9.8125 72.90625 
L 30.078125 72.90625 
Q 51.265625 72.90625 61.171875 64.09375 
Q 71.09375 55.28125 71.09375 36.53125 
Q 71.09375 17.671875 61.125 8.828125 
Q 51.171875 0 30.078125 0 
L 9.8125 0 
z
" id="DejaVuSans-68"/>
    </defs>
    <g transform="translate(60.41088 38.111366)scale(0.102 -0.102)">
     <use xlink:href="#DejaVuSans-98"/>
     <use x="63.476562" xlink:href="#DejaVuSans-98"/>
     <use x="126.953125" xlink:href="#DejaVuSans-111"/>
     <use x="188.134766" xlink:href="#DejaVuSans-98"/>
     <use x="251.611328" xlink:href="#DejaVuSans-32"/>
     <use x="283.398438" xlink:href="#DejaVuSans-102"/>
     <use x="318.603516" xlink:href="#DejaVuSans-56"/>
     <use x="382.226562" xlink:href="#DejaVuSans-44"/>
     <use x="414.013672" xlink:href="#DejaVuSans-32"/>
     <use x="445.800781" xlink:href="#DejaVuSans-52"/>
     <use x="509.423828" xlink:href="#DejaVuSans-48"/>
     <use x="573.046875" xlink:href="#DejaVuSans-45"/>
     <use x="609.130859" xlink:href="#DejaVuSans-68"/>
    </g>
    <!-- 51 targets: 100..1e-08 -->
    <defs>
     <path d="M 11.71875 12.40625 
L 22.015625 12.40625 
L 22.015625 0 
L 11.71875 0 
z
M 11.71875 51.703125 
L 22.015625 51.703125 
L 22.015625 39.3125 
L 11.71875 39.3125 
z
" id="DejaVuSans-58"/>
    </defs>
    <g transform="translate(60.41088 49.533135)scale(0.102 -0.102)">
     <use xlink:href="#DejaVuSans-53"/>
     <use x="63.623047" xlink:href="#DejaVuSans-49"/>
     <use x="127.246094" xlink:href="#DejaVuSans-32"/>
     <use x="159.033203" xlink:href="#DejaVuSans-116"/>
     <use x="198.242188" xlink:href="#DejaVuSans-97"/>
     <use x="259.521484" xlink:href="#DejaVuSans-114"/>
     <use x="300.619141" xlink:href="#DejaVuSans-103"/>
     <use x="364.095703" xlink:href="#DejaVuSans-101"/>
     <use x="425.619141" xlink:href="#DejaVuSans-116"/>
     <use x="464.828125" xlink:href="#DejaVuSans-115"/>
     <use x="516.927734" xlink:href="#DejaVuSans-58"/>
     <use x="550.619141" xlink:href="#DejaVuSans-32"/>
     <use x="582.40625" xlink:href="#DejaVuSans-49"/>
     <use x="646.029297" xlink:href="#DejaVuSans-48"/>
     <use x="709.652344" xlink:href="#DejaVuSans-48"/>
     <use x="773.275391" xlink:href="#DejaVuSans-46"/>
     <use x="805.0625" xlink:href="#DejaVuSans-46"/>
     <use x="836.849609" xlink:href="#DejaVuSans-49"/>
     <use x="900.472656" xlink:href="#DejaVuSans-101"/>
     <use x="961.996094" xlink:href="#DejaVuSans-45"/>
     <use x="998.080078" xlink:href="#DejaVuSans-48"/>
     <use x="1061.703125" xlink:href="#DejaVuSans-56"/>
    </g>
    <!-- 15 instances -->
    <g transform="translate(60.41088 60.954904)scale(0.102 -0.102)">
     <use xlink:href="#DejaVuSans-49"/>
     <use x="63.623047" xlink:href="#DejaVuSans-53"/>
     <use x="127.246094" xlink:href="#DejaVuSans-32"/>
     <use x="159.033203" xlink:href="#DejaVuSans-105"/>
     <use x="186.816406" xlink:href="#DejaVuSans-110"/>
     <use x="250.195312" xlink:href="#DejaVuSans-115"/>
     <use x="302.294922" xlink:href="#DejaVuSans-116"/>
     <use x="341.503906" xlink:href="#DejaVuSans-97"/>
     <use x="402.783203" xlink:href="#DejaVuSans-110"/>
     <use x="466.162109" xlink:href="#DejaVuSans-99"/>
     <use x="521.142578" xlink:href="#DejaVuSans-101"/>
     <use x="582.666016" xlink:href="#DejaVuSans-115"/>
    </g>
   </g>
   <g id="text_20">
    <!-- v2.3.3.18.73 -->
    <defs>
     <path d="M 40.578125 39.3125 
Q 47.65625 37.796875 51.625 33 
Q 55.609375 28.21875 55.609375 21.1875 
Q 55.609375 10.40625 48.1875 4.484375 
Q 40.765625 -1.421875 27.09375 -1.421875 
Q 22.515625 -1.421875 17.65625 -0.515625 
Q 12.796875 0.390625 7.625 2.203125 
L 7.625 11.71875 
Q 11.71875 9.328125 16.59375 8.109375 
Q 21.484375 6.890625 26.8125 6.890625 
Q 36.078125 6.890625 40.9375 10.546875 
Q 45.796875 14.203125 45.796875 21.1875 
Q 45.796875 27.640625 41.28125 31.265625 
Q 36.765625 34.90625 28.71875 34.90625 
L 20.21875 34.90625 
L 20.21875 43.015625 
L 29.109375 43.015625 
Q 36.375 43.015625 40.234375 45.921875 
Q 44.09375 48.828125 44.09375 54.296875 
Q 44.09375 59.90625 40.109375 62.90625 
Q 36.140625 65.921875 28.71875 65.921875 
Q 24.65625 65.921875 20.015625 65.03125 
Q 15.375 64.15625 9.8125 62.3125 
L 9.8125 71.09375 
Q 15.4375 72.65625 20.34375 73.4375 
Q 25.25 74.21875 29.59375 74.21875 
Q 40.828125 74.21875 47.359375 69.109375 
Q 53.90625 64.015625 53.90625 55.328125 
Q 53.90625 49.265625 50.4375 45.09375 
Q 46.96875 40.921875 40.578125 39.3125 
z
" id="DejaVuSans-51"/>
    </defs>
    <g style="fill:#808080;" transform="translate(166.559625 294.151352)scale(0.1 -0.1)">
     <use xlink:href="#DejaVuSans-118"/>
     <use x="59.179688" xlink:href="#DejaVuSans-50"/>
     <use x="122.802734" xlink:href="#DejaVuSans-46"/>
     <use x="154.589844" xlink:href="#DejaVuSans-51"/>
     <use x="218.212891" xlink:href="#DejaVuSans-46"/>
     <use x="250" xlink:href="#DejaVuSans-51"/>
     <use x="313.623047" xlink:href="#DejaVuSans-46"/>
     <use x="345.410156" xlink:href="#DejaVuSans-49"/>
     <use x="409.033203" xlink:href="#DejaVuSans-56"/>
     <use x="472.65625" xlink:href="#DejaVuSans-46"/>
     <use x="504.443359" xlink:href="#DejaVuSans-55"/>
     <use x="568.066406" xlink:href="#DejaVuSans-51"/>
    </g>
   </g>
   <g id="text_21">
    <!-- 8 Rosenbrock original -->
    <defs>
     <path d="M 44.390625 34.1875 
Q 47.5625 33.109375 50.5625 29.59375 
Q 53.5625 26.078125 56.59375 19.921875 
L 66.609375 0 
L 56 0 
L 46.6875 18.703125 
Q 43.0625 26.03125 39.671875 28.421875 
Q 36.28125 30.8125 30.421875 30.8125 
L 19.671875 30.8125 
L 19.671875 0 
L 9.8125 0 
L 9.8125 72.90625 
L 32.078125 72.90625 
Q 44.578125 72.90625 50.734375 67.671875 
Q 56.890625 62.453125 56.890625 51.90625 
Q 56.890625 45.015625 53.6875 40.46875 
Q 50.484375 35.9375 44.390625 34.1875 
z
M 19.671875 64.796875 
L 19.671875 38.921875 
L 32.078125 38.921875 
Q 39.203125 38.921875 42.84375 42.21875 
Q 46.484375 45.515625 46.484375 51.90625 
Q 46.484375 58.296875 42.84375 61.546875 
Q 39.203125 64.796875 32.078125 64.796875 
z
" id="DejaVuSans-82"/>
     <path d="M 9.078125 75.984375 
L 18.109375 75.984375 
L 18.109375 31.109375 
L 44.921875 54.6875 
L 56.390625 54.6875 
L 27.390625 29.109375 
L 57.625 0 
L 45.90625 0 
L 18.109375 26.703125 
L 18.109375 0 
L 9.078125 0 
z
" id="DejaVuSans-107"/>
    </defs>
    <g transform="translate(89.422125 21.648)scale(0.2 -0.2)">
     <use xlink:href="#DejaVuSans-56"/>
     <use x="63.623047" xlink:href="#DejaVuSans-32"/>
     <use x="95.410156" xlink:href="#DejaVuSans-82"/>
     <use x="164.830078" xlink:href="#DejaVuSans-111"/>
     <use x="226.011719" xlink:href="#DejaVuSans-115"/>
     <use x="278.111328" xlink:href="#DejaVuSans-101"/>
     <use x="339.634766" xlink:href="#DejaVuSans-110"/>
     <use x="403.013672" xlink:href="#DejaVuSans-98"/>
     <use x="466.490234" xlink:href="#DejaVuSans-114"/>
     <use x="507.572266" xlink:href="#DejaVuSans-111"/>
     <use x="568.753906" xlink:href="#DejaVuSans-99"/>
     <use x="623.734375" xlink:href="#DejaVuSans-107"/>
     <use x="681.644531" xlink:href="#DejaVuSans-32"/>
     <use x="713.431641" xlink:href="#DejaVuSans-111"/>
     <use x="774.613281" xlink:href="#DejaVuSans-114"/>
     <use x="815.726562" xlink:href="#DejaVuSans-105"/>
     <use x="843.509766" xlink:href="#DejaVuSans-103"/>
     <use x="906.986328" xlink:href="#DejaVuSans-105"/>
     <use x="934.769531" xlink:href="#DejaVuSans-110"/>
     <use x="998.148438" xlink:href="#DejaVuSans-97"/>
     <use x="1059.427734" xlink:href="#DejaVuSans-108"/>
    </g>
   </g>
  </g>
 </g>
 <defs>
  <clipPath id="pab35779634">
   <rect height="271.296" width="281.088" x="57.6" y="27.648"/>
  </clipPath>
 </defs>
</svg>
