<?xml version="1.0" encoding="utf-8" standalone="no"?>
<!DOCTYPE svg PUBLIC "-//W3C//DTD SVG 1.1//EN"
  "http://www.w3.org/Graphics/SVG/1.1/DTD/svg11.dtd">
<!-- Created with matplotlib (https://matplotlib.org/) -->
<svg height="345.6pt" version="1.1" viewBox="0 0 460.8 345.6" width="460.8pt" xmlns="http://www.w3.org/2000/svg" xmlns:xlink="http://www.w3.org/1999/xlink">
 <defs>
  <style type="text/css">
*{stroke-linecap:butt;stroke-linejoin:round;}
  </style>
 </defs>
 <g id="figure_1">
  <g id="patch_1">
   <path d="M 0 345.6 
L 460.8 345.6 
L 460.8 0 
L 0 0 
z
" style="fill:#ffffff;"/>
  </g>
  <g id="axes_1">
   <g id="patch_2">
    <path d="M 57.6 298.944 
L 338.688 298.944 
L 338.688 27.648 
L 57.6 27.648 
z
" style="fill:#ffffff;"/>
   </g>
   <g id="line2d_1">
    <path d="M 57.6 298.944 
L 57.6 293.677139 
L 62.616969 293.677139 
L 62.616969 288.410278 
L 66.508432 288.410278 
L 66.508432 283.143418 
L 74.704957 283.143418 
L 74.704957 272.609696 
L 80.258561 272.609696 
L 80.258561 267.342835 
L 89.78989 267.342835 
L 89.78989 262.075974 
L 94.575872 262.075974 
L 94.575872 256.809114 
L 101.877879 256.809114 
L 101.877879 251.542253 
L 102.330873 251.542253 
L 102.330873 246.275392 
L 111.239304 246.275392 
L 111.239304 241.008531 
L 114.641021 241.008531 
L 114.641021 235.74167 
L 128.411207 235.74167 
L 128.411207 230.47481 
L 132.181982 230.47481 
L 132.181982 225.207949 
L 134.520763 225.207949 
L 134.520763 219.941088 
L 140.195896 219.941088 
L 140.195896 214.674227 
L 140.944478 214.674227 
L 140.944478 209.407366 
L 141.33096 209.407366 
L 141.33096 204.140506 
L 141.755753 204.140506 
L 141.755753 198.873645 
L 142.215919 198.873645 
L 142.215919 193.606784 
L 145.516164 193.606784 
L 145.516164 188.339923 
L 145.740226 188.339923 
L 145.740226 183.073062 
L 146.107383 183.073062 
L 146.107383 177.806202 
L 146.179895 177.806202 
L 146.179895 77.735846 
L 146.538004 77.735846 
L 146.538004 72.468985 
L 147.164632 72.468985 
L 147.164632 67.202125 
L 147.50327 67.202125 
L 147.50327 61.935264 
L 147.999207 61.935264 
L 147.999207 56.668403 
L 148.639252 56.668403 
L 148.639252 51.401542 
L 149.043029 51.401542 
L 149.043029 46.134681 
L 149.616841 46.134681 
L 149.616841 40.867821 
L 150.05688 40.867821 
L 150.05688 35.60096 
L 150.401087 35.60096 
L 150.401087 30.334099 
L 338.688 30.334099 
" style="fill:none;stroke:#f5deb3;stroke-linecap:square;stroke-width:4;"/>
   </g>
   <g id="line2d_2">
    <defs>
     <path d="M -0 7.778175 
L 7.778175 0 
L 0 -7.778175 
L -7.778175 -0 
z
" id="mfe0bb3f6b0" style="stroke:#f5deb3;stroke-linejoin:miter;stroke-width:1.5;"/>
    </defs>
    <g>
     <use style="fill:#f5deb3;stroke:#f5deb3;stroke-linejoin:miter;stroke-width:1.5;" x="114.641021" xlink:href="#mfe0bb3f6b0" y="241.008531"/>
     <use style="fill:#f5deb3;stroke:#f5deb3;stroke-linejoin:miter;stroke-width:1.5;" x="146.179895" xlink:href="#mfe0bb3f6b0" y="177.806202"/>
     <use style="fill:#f5deb3;stroke:#f5deb3;stroke-linejoin:miter;stroke-width:1.5;" x="150.401087" xlink:href="#mfe0bb3f6b0" y="35.60096"/>
     <use style="fill:#f5deb3;stroke:#f5deb3;stroke-linejoin:miter;stroke-width:1.5;" x="150.401087" xlink:href="#mfe0bb3f6b0" y="30.334099"/>
     <use style="fill:#f5deb3;stroke:#f5deb3;stroke-linejoin:miter;stroke-width:1.5;" x="338.688" xlink:href="#mfe0bb3f6b0" y="30.334099"/>
    </g>
   </g>
   <g id="line2d_3">
    <path style="fill:none;stroke:#f5deb3;stroke-linecap:square;stroke-width:4;"/>
    <g/>
   </g>
   <g id="line2d_4">
    <path d="M 338.688 30.334099 
L 369.60768 35.706297 
" style="fill:none;stroke:#f5deb3;stroke-linecap:square;stroke-width:4;"/>
    <g>
     <use style="fill:#f5deb3;stroke:#f5deb3;stroke-linejoin:miter;stroke-width:1.5;" x="338.688" xlink:href="#mfe0bb3f6b0" y="30.334099"/>
     <use style="fill:#f5deb3;stroke:#f5deb3;stroke-linejoin:miter;stroke-width:1.5;" x="369.60768" xlink:href="#mfe0bb3f6b0" y="35.706297"/>
    </g>
   </g>
   <g id="matplotlib.axis_1">
    <g id="xtick_1">
     <g id="line2d_5">
      <path clip-path="url(#p00fbbd8676)" d="M 57.6 298.944 
L 57.6 27.648 
" style="fill:none;stroke:#b0b0b0;stroke-linecap:square;stroke-width:0.8;"/>
     </g>
     <g id="line2d_6">
      <defs>
       <path d="M 0 0 
L 0 3.5 
" id="m9d6e1f724d" style="stroke:#000000;stroke-width:0.8;"/>
      </defs>
      <g>
       <use style="stroke:#000000;stroke-width:0.8;" x="57.6" xlink:href="#m9d6e1f724d" y="298.944"/>
      </g>
     </g>
     <g id="text_1">
      <!-- 0 -->
      <defs>
       <path d="M 31.78125 66.40625 
Q 24.171875 66.40625 20.328125 58.90625 
Q 16.5 51.421875 16.5 36.375 
Q 16.5 21.390625 20.328125 13.890625 
Q 24.171875 6.390625 31.78125 6.390625 
Q 39.453125 6.390625 43.28125 13.890625 
Q 47.125 21.390625 47.125 36.375 
Q 47.125 51.421875 43.28125 58.90625 
Q 39.453125 66.40625 31.78125 66.40625 
z
M 31.78125 74.21875 
Q 44.046875 74.21875 50.515625 64.515625 
Q 56.984375 54.828125 56.984375 36.375 
Q 56.984375 17.96875 50.515625 8.265625 
Q 44.046875 -1.421875 31.78125 -1.421875 
Q 19.53125 -1.421875 13.0625 8.265625 
Q 6.59375 17.96875 6.59375 36.375 
Q 6.59375 54.828125 13.0625 64.515625 
Q 19.53125 74.21875 31.78125 74.21875 
z
" id="DejaVuSans-48"/>
      </defs>
      <g transform="translate(51.2375 321.140875)scale(0.2 -0.2)">
       <use xlink:href="#DejaVuSans-48"/>
      </g>
     </g>
    </g>
    <g id="xtick_2">
     <g id="line2d_7">
      <path clip-path="url(#p00fbbd8676)" d="M 137.910857 298.944 
L 137.910857 27.648 
" style="fill:none;stroke:#b0b0b0;stroke-linecap:square;stroke-width:0.8;"/>
     </g>
     <g id="line2d_8">
      <g>
       <use style="stroke:#000000;stroke-width:0.8;" x="137.910857" xlink:href="#m9d6e1f724d" y="298.944"/>
      </g>
     </g>
     <g id="text_2">
      <!-- 2 -->
      <defs>
       <path d="M 19.1875 8.296875 
L 53.609375 8.296875 
L 53.609375 0 
L 7.328125 0 
L 7.328125 8.296875 
Q 12.9375 14.109375 22.625 23.890625 
Q 32.328125 33.6875 34.8125 36.53125 
Q 39.546875 41.84375 41.421875 45.53125 
Q 43.3125 49.21875 43.3125 52.78125 
Q 43.3125 58.59375 39.234375 62.25 
Q 35.15625 65.921875 28.609375 65.921875 
Q 23.96875 65.921875 18.8125 64.3125 
Q 13.671875 62.703125 7.8125 59.421875 
L 7.8125 69.390625 
Q 13.765625 71.78125 18.9375 73 
Q 24.125 74.21875 28.421875 74.21875 
Q 39.75 74.21875 46.484375 68.546875 
Q 53.21875 62.890625 53.21875 53.421875 
Q 53.21875 48.921875 51.53125 44.890625 
Q 49.859375 40.875 45.40625 35.40625 
Q 44.1875 33.984375 37.640625 27.21875 
Q 31.109375 20.453125 19.1875 8.296875 
z
" id="DejaVuSans-50"/>
      </defs>
      <g transform="translate(131.548357 321.140875)scale(0.2 -0.2)">
       <use xlink:href="#DejaVuSans-50"/>
      </g>
     </g>
    </g>
    <g id="xtick_3">
     <g id="line2d_9">
      <path clip-path="url(#p00fbbd8676)" d="M 218.221714 298.944 
L 218.221714 27.648 
" style="fill:none;stroke:#b0b0b0;stroke-linecap:square;stroke-width:0.8;"/>
     </g>
     <g id="line2d_10">
      <g>
       <use style="stroke:#000000;stroke-width:0.8;" x="218.221714" xlink:href="#m9d6e1f724d" y="298.944"/>
      </g>
     </g>
     <g id="text_3">
      <!-- 4 -->
      <defs>
       <path d="M 37.796875 64.3125 
L 12.890625 25.390625 
L 37.796875 25.390625 
z
M 35.203125 72.90625 
L 47.609375 72.90625 
L 47.609375 25.390625 
L 58.015625 25.390625 
L 58.015625 17.1875 
L 47.609375 17.1875 
L 47.609375 0 
L 37.796875 0 
L 37.796875 17.1875 
L 4.890625 17.1875 
L 4.890625 26.703125 
z
" id="DejaVuSans-52"/>
      </defs>
      <g transform="translate(211.859214 321.140875)scale(0.2 -0.2)">
       <use xlink:href="#DejaVuSans-52"/>
      </g>
     </g>
    </g>
    <g id="xtick_4">
     <g id="line2d_11">
      <path clip-path="url(#p00fbbd8676)" d="M 298.532571 298.944 
L 298.532571 27.648 
" style="fill:none;stroke:#b0b0b0;stroke-linecap:square;stroke-width:0.8;"/>
     </g>
     <g id="line2d_12">
      <g>
       <use style="stroke:#000000;stroke-width:0.8;" x="298.532571" xlink:href="#m9d6e1f724d" y="298.944"/>
      </g>
     </g>
     <g id="text_4">
      <!-- 6 -->
      <defs>
       <path d="M 33.015625 40.375 
Q 26.375 40.375 22.484375 35.828125 
Q 18.609375 31.296875 18.609375 23.390625 
Q 18.609375 15.53125 22.484375 10.953125 
Q 26.375 6.390625 33.015625 6.390625 
Q 39.65625 6.390625 43.53125 10.953125 
Q 47.40625 15.53125 47.40625 23.390625 
Q 47.40625 31.296875 43.53125 35.828125 
Q 39.65625 40.375 33.015625 40.375 
z
M 52.59375 71.296875 
L 52.59375 62.3125 
Q 48.875 64.0625 45.09375 64.984375 
Q 41.3125 65.921875 37.59375 65.921875 
Q 27.828125 65.921875 22.671875 59.328125 
Q 17.53125 52.734375 16.796875 39.40625 
Q 19.671875 43.65625 24.015625 45.921875 
Q 28.375 48.1875 33.59375 48.1875 
Q 44.578125 48.1875 50.953125 41.515625 
Q 57.328125 34.859375 57.328125 23.390625 
Q 57.328125 12.15625 50.6875 5.359375 
Q 44.046875 -1.421875 33.015625 -1.421875 
Q 20.359375 -1.421875 13.671875 8.265625 
Q 6.984375 17.96875 6.984375 36.375 
Q 6.984375 53.65625 15.1875 63.9375 
Q 23.390625 74.21875 37.203125 74.21875 
Q 40.921875 74.21875 44.703125 73.484375 
Q 48.484375 72.75 52.59375 71.296875 
z
" id="DejaVuSans-54"/>
      </defs>
      <g transform="translate(292.170071 321.140875)scale(0.2 -0.2)">
       <use xlink:href="#DejaVuSans-54"/>
      </g>
     </g>
    </g>
    <g id="xtick_5">
     <g id="line2d_13">
      <path clip-path="url(#p00fbbd8676)" d="M 97.755429 298.944 
L 97.755429 27.648 
" style="fill:none;stroke:#b0b0b0;stroke-linecap:square;stroke-width:0.8;"/>
     </g>
     <g id="line2d_14">
      <defs>
       <path d="M 0 0 
L 0 2 
" id="mabdac5f054" style="stroke:#000000;stroke-width:0.6;"/>
      </defs>
      <g>
       <use style="stroke:#000000;stroke-width:0.6;" x="97.755429" xlink:href="#mabdac5f054" y="298.944"/>
      </g>
     </g>
    </g>
    <g id="xtick_6">
     <g id="line2d_15">
      <path clip-path="url(#p00fbbd8676)" d="M 178.066286 298.944 
L 178.066286 27.648 
" style="fill:none;stroke:#b0b0b0;stroke-linecap:square;stroke-width:0.8;"/>
     </g>
     <g id="line2d_16">
      <g>
       <use style="stroke:#000000;stroke-width:0.6;" x="178.066286" xlink:href="#mabdac5f054" y="298.944"/>
      </g>
     </g>
    </g>
    <g id="xtick_7">
     <g id="line2d_17">
      <path clip-path="url(#p00fbbd8676)" d="M 258.377143 298.944 
L 258.377143 27.648 
" style="fill:none;stroke:#b0b0b0;stroke-linecap:square;stroke-width:0.8;"/>
     </g>
     <g id="line2d_18">
      <g>
       <use style="stroke:#000000;stroke-width:0.6;" x="258.377143" xlink:href="#mabdac5f054" y="298.944"/>
      </g>
     </g>
    </g>
    <g id="xtick_8">
     <g id="line2d_19">
      <path clip-path="url(#p00fbbd8676)" d="M 338.688 298.944 
L 338.688 27.648 
" style="fill:none;stroke:#b0b0b0;stroke-linecap:square;stroke-width:0.8;"/>
     </g>
     <g id="line2d_20">
      <g>
       <use style="stroke:#000000;stroke-width:0.6;" x="338.688" xlink:href="#mabdac5f054" y="298.944"/>
      </g>
     </g>
    </g>
    <g id="text_5">
     <!-- log10(# f-evals / dimension) -->
     <defs>
      <path d="M 9.421875 75.984375 
L 18.40625 75.984375 
L 18.40625 0 
L 9.421875 0 
z
" id="DejaVuSans-108"/>
      <path d="M 30.609375 48.390625 
Q 23.390625 48.390625 19.1875 42.75 
Q 14.984375 37.109375 14.984375 27.296875 
Q 14.984375 17.484375 19.15625 11.84375 
Q 23.34375 6.203125 30.609375 6.203125 
Q 37.796875 6.203125 41.984375 11.859375 
Q 46.1875 17.53125 46.1875 27.296875 
Q 46.1875 37.015625 41.984375 42.703125 
Q 37.796875 48.390625 30.609375 48.390625 
z
M 30.609375 56 
Q 42.328125 56 49.015625 48.375 
Q 55.71875 40.765625 55.71875 27.296875 
Q 55.71875 13.875 49.015625 6.21875 
Q 42.328125 -1.421875 30.609375 -1.421875 
Q 18.84375 -1.421875 12.171875 6.21875 
Q 5.515625 13.875 5.515625 27.296875 
Q 5.515625 40.765625 12.171875 48.375 
Q 18.84375 56 30.609375 56 
z
" id="DejaVuSans-111"/>
      <path d="M 45.40625 27.984375 
Q 45.40625 37.75 41.375 43.109375 
Q 37.359375 48.484375 30.078125 48.484375 
Q 22.859375 48.484375 18.828125 43.109375 
Q 14.796875 37.75 14.796875 27.984375 
Q 14.796875 18.265625 18.828125 12.890625 
Q 22.859375 7.515625 30.078125 7.515625 
Q 37.359375 7.515625 41.375 12.890625 
Q 45.40625 18.265625 45.40625 27.984375 
z
M 54.390625 6.78125 
Q 54.390625 -7.171875 48.1875 -13.984375 
Q 42 -20.796875 29.203125 -20.796875 
Q 24.46875 -20.796875 20.265625 -20.09375 
Q 16.0625 -19.390625 12.109375 -17.921875 
L 12.109375 -9.1875 
Q 16.0625 -11.328125 19.921875 -12.34375 
Q 23.78125 -13.375 27.78125 -13.375 
Q 36.625 -13.375 41.015625 -8.765625 
Q 45.40625 -4.15625 45.40625 5.171875 
L 45.40625 9.625 
Q 42.625 4.78125 38.28125 2.390625 
Q 33.9375 0 27.875 0 
Q 17.828125 0 11.671875 7.65625 
Q 5.515625 15.328125 5.515625 27.984375 
Q 5.515625 40.671875 11.671875 48.328125 
Q 17.828125 56 27.875 56 
Q 33.9375 56 38.28125 53.609375 
Q 42.625 51.21875 45.40625 46.390625 
L 45.40625 54.6875 
L 54.390625 54.6875 
z
" id="DejaVuSans-103"/>
      <path d="M 12.40625 8.296875 
L 28.515625 8.296875 
L 28.515625 63.921875 
L 10.984375 60.40625 
L 10.984375 69.390625 
L 28.421875 72.90625 
L 38.28125 72.90625 
L 38.28125 8.296875 
L 54.390625 8.296875 
L 54.390625 0 
L 12.40625 0 
z
" id="DejaVuSans-49"/>
      <path d="M 31 75.875 
Q 24.46875 64.65625 21.28125 53.65625 
Q 18.109375 42.671875 18.109375 31.390625 
Q 18.109375 20.125 21.3125 9.0625 
Q 24.515625 -2 31 -13.1875 
L 23.1875 -13.1875 
Q 15.875 -1.703125 12.234375 9.375 
Q 8.59375 20.453125 8.59375 31.390625 
Q 8.59375 42.28125 12.203125 53.3125 
Q 15.828125 64.359375 23.1875 75.875 
z
" id="DejaVuSans-40"/>
      <path d="M 51.125 44 
L 36.921875 44 
L 32.8125 27.6875 
L 47.125 27.6875 
z
M 43.796875 71.78125 
L 38.71875 51.515625 
L 52.984375 51.515625 
L 58.109375 71.78125 
L 65.921875 71.78125 
L 60.890625 51.515625 
L 76.125 51.515625 
L 76.125 44 
L 58.984375 44 
L 54.984375 27.6875 
L 70.515625 27.6875 
L 70.515625 20.21875 
L 53.078125 20.21875 
L 48 0 
L 40.1875 0 
L 45.21875 20.21875 
L 30.90625 20.21875 
L 25.875 0 
L 18.015625 0 
L 23.09375 20.21875 
L 7.71875 20.21875 
L 7.71875 27.6875 
L 24.90625 27.6875 
L 29 44 
L 13.28125 44 
L 13.28125 51.515625 
L 30.90625 51.515625 
L 35.890625 71.78125 
z
" id="DejaVuSans-35"/>
      <path id="DejaVuSans-32"/>
      <path d="M 37.109375 75.984375 
L 37.109375 68.5 
L 28.515625 68.5 
Q 23.6875 68.5 21.796875 66.546875 
Q 19.921875 64.59375 19.921875 59.515625 
L 19.921875 54.6875 
L 34.71875 54.6875 
L 34.71875 47.703125 
L 19.921875 47.703125 
L 19.921875 0 
L 10.890625 0 
L 10.890625 47.703125 
L 2.296875 47.703125 
L 2.296875 54.6875 
L 10.890625 54.6875 
L 10.890625 58.5 
Q 10.890625 67.625 15.140625 71.796875 
Q 19.390625 75.984375 28.609375 75.984375 
z
" id="DejaVuSans-102"/>
      <path d="M 4.890625 31.390625 
L 31.203125 31.390625 
L 31.203125 23.390625 
L 4.890625 23.390625 
z
" id="DejaVuSans-45"/>
      <path d="M 56.203125 29.59375 
L 56.203125 25.203125 
L 14.890625 25.203125 
Q 15.484375 15.921875 20.484375 11.0625 
Q 25.484375 6.203125 34.421875 6.203125 
Q 39.59375 6.203125 44.453125 7.46875 
Q 49.3125 8.734375 54.109375 11.28125 
L 54.109375 2.78125 
Q 49.265625 0.734375 44.1875 -0.34375 
Q 39.109375 -1.421875 33.890625 -1.421875 
Q 20.796875 -1.421875 13.15625 6.1875 
Q 5.515625 13.8125 5.515625 26.8125 
Q 5.515625 40.234375 12.765625 48.109375 
Q 20.015625 56 32.328125 56 
Q 43.359375 56 49.78125 48.890625 
Q 56.203125 41.796875 56.203125 29.59375 
z
M 47.21875 32.234375 
Q 47.125 39.59375 43.09375 43.984375 
Q 39.0625 48.390625 32.421875 48.390625 
Q 24.90625 48.390625 20.390625 44.140625 
Q 15.875 39.890625 15.1875 32.171875 
z
" id="DejaVuSans-101"/>
      <path d="M 2.984375 54.6875 
L 12.5 54.6875 
L 29.59375 8.796875 
L 46.6875 54.6875 
L 56.203125 54.6875 
L 35.6875 0 
L 23.484375 0 
z
" id="DejaVuSans-118"/>
      <path d="M 34.28125 27.484375 
Q 23.390625 27.484375 19.1875 25 
Q 14.984375 22.515625 14.984375 16.5 
Q 14.984375 11.71875 18.140625 8.90625 
Q 21.296875 6.109375 26.703125 6.109375 
Q 34.1875 6.109375 38.703125 11.40625 
Q 43.21875 16.703125 43.21875 25.484375 
L 43.21875 27.484375 
z
M 52.203125 31.203125 
L 52.203125 0 
L 43.21875 0 
L 43.21875 8.296875 
Q 40.140625 3.328125 35.546875 0.953125 
Q 30.953125 -1.421875 24.3125 -1.421875 
Q 15.921875 -1.421875 10.953125 3.296875 
Q 6 8.015625 6 15.921875 
Q 6 25.140625 12.171875 29.828125 
Q 18.359375 34.515625 30.609375 34.515625 
L 43.21875 34.515625 
L 43.21875 35.40625 
Q 43.21875 41.609375 39.140625 45 
Q 35.0625 48.390625 27.6875 48.390625 
Q 23 48.390625 18.546875 47.265625 
Q 14.109375 46.140625 10.015625 43.890625 
L 10.015625 52.203125 
Q 14.9375 54.109375 19.578125 55.046875 
Q 24.21875 56 28.609375 56 
Q 40.484375 56 46.34375 49.84375 
Q 52.203125 43.703125 52.203125 31.203125 
z
" id="DejaVuSans-97"/>
      <path d="M 44.28125 53.078125 
L 44.28125 44.578125 
Q 40.484375 46.53125 36.375 47.5 
Q 32.28125 48.484375 27.875 48.484375 
Q 21.1875 48.484375 17.84375 46.4375 
Q 14.5 44.390625 14.5 40.28125 
Q 14.5 37.15625 16.890625 35.375 
Q 19.28125 33.59375 26.515625 31.984375 
L 29.59375 31.296875 
Q 39.15625 29.25 43.1875 25.515625 
Q 47.21875 21.78125 47.21875 15.09375 
Q 47.21875 7.46875 41.1875 3.015625 
Q 35.15625 -1.421875 24.609375 -1.421875 
Q 20.21875 -1.421875 15.453125 -0.5625 
Q 10.6875 0.296875 5.421875 2 
L 5.421875 11.28125 
Q 10.40625 8.6875 15.234375 7.390625 
Q 20.0625 6.109375 24.8125 6.109375 
Q 31.15625 6.109375 34.5625 8.28125 
Q 37.984375 10.453125 37.984375 14.40625 
Q 37.984375 18.0625 35.515625 20.015625 
Q 33.0625 21.96875 24.703125 23.78125 
L 21.578125 24.515625 
Q 13.234375 26.265625 9.515625 29.90625 
Q 5.8125 33.546875 5.8125 39.890625 
Q 5.8125 47.609375 11.28125 51.796875 
Q 16.75 56 26.8125 56 
Q 31.78125 56 36.171875 55.265625 
Q 40.578125 54.546875 44.28125 53.078125 
z
" id="DejaVuSans-115"/>
      <path d="M 25.390625 72.90625 
L 33.6875 72.90625 
L 8.296875 -9.28125 
L 0 -9.28125 
z
" id="DejaVuSans-47"/>
      <path d="M 45.40625 46.390625 
L 45.40625 75.984375 
L 54.390625 75.984375 
L 54.390625 0 
L 45.40625 0 
L 45.40625 8.203125 
Q 42.578125 3.328125 38.25 0.953125 
Q 33.9375 -1.421875 27.875 -1.421875 
Q 17.96875 -1.421875 11.734375 6.484375 
Q 5.515625 14.40625 5.515625 27.296875 
Q 5.515625 40.1875 11.734375 48.09375 
Q 17.96875 56 27.875 56 
Q 33.9375 56 38.25 53.625 
Q 42.578125 51.265625 45.40625 46.390625 
z
M 14.796875 27.296875 
Q 14.796875 17.390625 18.875 11.75 
Q 22.953125 6.109375 30.078125 6.109375 
Q 37.203125 6.109375 41.296875 11.75 
Q 45.40625 17.390625 45.40625 27.296875 
Q 45.40625 37.203125 41.296875 42.84375 
Q 37.203125 48.484375 30.078125 48.484375 
Q 22.953125 48.484375 18.875 42.84375 
Q 14.796875 37.203125 14.796875 27.296875 
z
" id="DejaVuSans-100"/>
      <path d="M 9.421875 54.6875 
L 18.40625 54.6875 
L 18.40625 0 
L 9.421875 0 
z
M 9.421875 75.984375 
L 18.40625 75.984375 
L 18.40625 64.59375 
L 9.421875 64.59375 
z
" id="DejaVuSans-105"/>
      <path d="M 52 44.1875 
Q 55.375 50.25 60.0625 53.125 
Q 64.75 56 71.09375 56 
Q 79.640625 56 84.28125 50.015625 
Q 88.921875 44.046875 88.921875 33.015625 
L 88.921875 0 
L 79.890625 0 
L 79.890625 32.71875 
Q 79.890625 40.578125 77.09375 44.375 
Q 74.3125 48.1875 68.609375 48.1875 
Q 61.625 48.1875 57.5625 43.546875 
Q 53.515625 38.921875 53.515625 30.90625 
L 53.515625 0 
L 44.484375 0 
L 44.484375 32.71875 
Q 44.484375 40.625 41.703125 44.40625 
Q 38.921875 48.1875 33.109375 48.1875 
Q 26.21875 48.1875 22.15625 43.53125 
Q 18.109375 38.875 18.109375 30.90625 
L 18.109375 0 
L 9.078125 0 
L 9.078125 54.6875 
L 18.109375 54.6875 
L 18.109375 46.1875 
Q 21.1875 51.21875 25.484375 53.609375 
Q 29.78125 56 35.6875 56 
Q 41.65625 56 45.828125 52.96875 
Q 50 49.953125 52 44.1875 
z
" id="DejaVuSans-109"/>
      <path d="M 54.890625 33.015625 
L 54.890625 0 
L 45.90625 0 
L 45.90625 32.71875 
Q 45.90625 40.484375 42.875 44.328125 
Q 39.84375 48.1875 33.796875 48.1875 
Q 26.515625 48.1875 22.3125 43.546875 
Q 18.109375 38.921875 18.109375 30.90625 
L 18.109375 0 
L 9.078125 0 
L 9.078125 54.6875 
L 18.109375 54.6875 
L 18.109375 46.1875 
Q 21.34375 51.125 25.703125 53.5625 
Q 30.078125 56 35.796875 56 
Q 45.21875 56 50.046875 50.171875 
Q 54.890625 44.34375 54.890625 33.015625 
z
" id="DejaVuSans-110"/>
      <path d="M 8.015625 75.875 
L 15.828125 75.875 
Q 23.140625 64.359375 26.78125 53.3125 
Q 30.421875 42.28125 30.421875 31.390625 
Q 30.421875 20.453125 26.78125 9.375 
Q 23.140625 -1.703125 15.828125 -13.1875 
L 8.015625 -13.1875 
Q 14.5 -2 17.703125 9.0625 
Q 20.90625 20.125 20.90625 31.390625 
Q 20.90625 42.671875 17.703125 53.65625 
Q 14.5 64.65625 8.015625 75.875 
z
" id="DejaVuSans-41"/>
     </defs>
     <g transform="translate(77.303219 342.217594)scale(0.17 -0.17)">
      <use xlink:href="#DejaVuSans-108"/>
      <use x="27.783203" xlink:href="#DejaVuSans-111"/>
      <use x="88.964844" xlink:href="#DejaVuSans-103"/>
      <use x="152.441406" xlink:href="#DejaVuSans-49"/>
      <use x="216.064453" xlink:href="#DejaVuSans-48"/>
      <use x="279.6875" xlink:href="#DejaVuSans-40"/>
      <use x="318.701172" xlink:href="#DejaVuSans-35"/>
      <use x="402.490234" xlink:href="#DejaVuSans-32"/>
      <use x="434.277344" xlink:href="#DejaVuSans-102"/>
      <use x="469.404297" xlink:href="#DejaVuSans-45"/>
      <use x="505.488281" xlink:href="#DejaVuSans-101"/>
      <use x="567.011719" xlink:href="#DejaVuSans-118"/>
      <use x="626.191406" xlink:href="#DejaVuSans-97"/>
      <use x="687.470703" xlink:href="#DejaVuSans-108"/>
      <use x="715.253906" xlink:href="#DejaVuSans-115"/>
      <use x="767.353516" xlink:href="#DejaVuSans-32"/>
      <use x="799.140625" xlink:href="#DejaVuSans-47"/>
      <use x="832.832031" xlink:href="#DejaVuSans-32"/>
      <use x="864.619141" xlink:href="#DejaVuSans-100"/>
      <use x="928.095703" xlink:href="#DejaVuSans-105"/>
      <use x="955.878906" xlink:href="#DejaVuSans-109"/>
      <use x="1053.291016" xlink:href="#DejaVuSans-101"/>
      <use x="1114.814453" xlink:href="#DejaVuSans-110"/>
      <use x="1178.193359" xlink:href="#DejaVuSans-115"/>
      <use x="1230.292969" xlink:href="#DejaVuSans-105"/>
      <use x="1258.076172" xlink:href="#DejaVuSans-111"/>
      <use x="1319.257812" xlink:href="#DejaVuSans-110"/>
      <use x="1382.636719" xlink:href="#DejaVuSans-41"/>
     </g>
    </g>
   </g>
   <g id="matplotlib.axis_2">
    <g id="ytick_1">
     <g id="line2d_21">
      <path clip-path="url(#p00fbbd8676)" d="M 57.6 298.944 
L 338.688 298.944 
" style="fill:none;stroke:#b0b0b0;stroke-linecap:square;stroke-width:0.8;"/>
     </g>
     <g id="line2d_22">
      <defs>
       <path d="M 0 0 
L -3.5 0 
" id="m37239df7eb" style="stroke:#000000;stroke-width:0.8;"/>
      </defs>
      <g>
       <use style="stroke:#000000;stroke-width:0.8;" x="57.6" xlink:href="#m37239df7eb" y="298.944"/>
      </g>
     </g>
     <g id="text_6">
      <!-- 0.0 -->
      <defs>
       <path d="M 10.6875 12.40625 
L 21 12.40625 
L 21 0 
L 10.6875 0 
z
" id="DejaVuSans-46"/>
      </defs>
      <g transform="translate(25.155 305.02275)scale(0.16 -0.16)">
       <use xlink:href="#DejaVuSans-48"/>
       <use x="63.623047" xlink:href="#DejaVuSans-46"/>
       <use x="95.410156" xlink:href="#DejaVuSans-48"/>
      </g>
     </g>
    </g>
    <g id="ytick_2">
     <g id="line2d_23">
      <path clip-path="url(#p00fbbd8676)" d="M 57.6 245.22202 
L 338.688 245.22202 
" style="fill:none;stroke:#b0b0b0;stroke-linecap:square;stroke-width:0.8;"/>
     </g>
     <g id="line2d_24">
      <g>
       <use style="stroke:#000000;stroke-width:0.8;" x="57.6" xlink:href="#m37239df7eb" y="245.22202"/>
      </g>
     </g>
     <g id="text_7">
      <!-- 0.2 -->
      <g transform="translate(25.155 251.30077)scale(0.16 -0.16)">
       <use xlink:href="#DejaVuSans-48"/>
       <use x="63.623047" xlink:href="#DejaVuSans-46"/>
       <use x="95.410156" xlink:href="#DejaVuSans-50"/>
      </g>
     </g>
    </g>
    <g id="ytick_3">
     <g id="line2d_25">
      <path clip-path="url(#p00fbbd8676)" d="M 57.6 191.50004 
L 338.688 191.50004 
" style="fill:none;stroke:#b0b0b0;stroke-linecap:square;stroke-width:0.8;"/>
     </g>
     <g id="line2d_26">
      <g>
       <use style="stroke:#000000;stroke-width:0.8;" x="57.6" xlink:href="#m37239df7eb" y="191.50004"/>
      </g>
     </g>
     <g id="text_8">
      <!-- 0.4 -->
      <g transform="translate(25.155 197.57879)scale(0.16 -0.16)">
       <use xlink:href="#DejaVuSans-48"/>
       <use x="63.623047" xlink:href="#DejaVuSans-46"/>
       <use x="95.410156" xlink:href="#DejaVuSans-52"/>
      </g>
     </g>
    </g>
    <g id="ytick_4">
     <g id="line2d_27">
      <path clip-path="url(#p00fbbd8676)" d="M 57.6 137.778059 
L 338.688 137.778059 
" style="fill:none;stroke:#b0b0b0;stroke-linecap:square;stroke-width:0.8;"/>
     </g>
     <g id="line2d_28">
      <g>
       <use style="stroke:#000000;stroke-width:0.8;" x="57.6" xlink:href="#m37239df7eb" y="137.778059"/>
      </g>
     </g>
     <g id="text_9">
      <!-- 0.6 -->
      <g transform="translate(25.155 143.856809)scale(0.16 -0.16)">
       <use xlink:href="#DejaVuSans-48"/>
       <use x="63.623047" xlink:href="#DejaVuSans-46"/>
       <use x="95.410156" xlink:href="#DejaVuSans-54"/>
      </g>
     </g>
    </g>
    <g id="ytick_5">
     <g id="line2d_29">
      <path clip-path="url(#p00fbbd8676)" d="M 57.6 84.056079 
L 338.688 84.056079 
" style="fill:none;stroke:#b0b0b0;stroke-linecap:square;stroke-width:0.8;"/>
     </g>
     <g id="line2d_30">
      <g>
       <use style="stroke:#000000;stroke-width:0.8;" x="57.6" xlink:href="#m37239df7eb" y="84.056079"/>
      </g>
     </g>
     <g id="text_10">
      <!-- 0.8 -->
      <defs>
       <path d="M 31.78125 34.625 
Q 24.75 34.625 20.71875 30.859375 
Q 16.703125 27.09375 16.703125 20.515625 
Q 16.703125 13.921875 20.71875 10.15625 
Q 24.75 6.390625 31.78125 6.390625 
Q 38.8125 6.390625 42.859375 10.171875 
Q 46.921875 13.96875 46.921875 20.515625 
Q 46.921875 27.09375 42.890625 30.859375 
Q 38.875 34.625 31.78125 34.625 
z
M 21.921875 38.8125 
Q 15.578125 40.375 12.03125 44.71875 
Q 8.5 49.078125 8.5 55.328125 
Q 8.5 64.0625 14.71875 69.140625 
Q 20.953125 74.21875 31.78125 74.21875 
Q 42.671875 74.21875 48.875 69.140625 
Q 55.078125 64.0625 55.078125 55.328125 
Q 55.078125 49.078125 51.53125 44.71875 
Q 48 40.375 41.703125 38.8125 
Q 48.828125 37.15625 52.796875 32.3125 
Q 56.78125 27.484375 56.78125 20.515625 
Q 56.78125 9.90625 50.3125 4.234375 
Q 43.84375 -1.421875 31.78125 -1.421875 
Q 19.734375 -1.421875 13.25 4.234375 
Q 6.78125 9.90625 6.78125 20.515625 
Q 6.78125 27.484375 10.78125 32.3125 
Q 14.796875 37.15625 21.921875 38.8125 
z
M 18.3125 54.390625 
Q 18.3125 48.734375 21.84375 45.5625 
Q 25.390625 42.390625 31.78125 42.390625 
Q 38.140625 42.390625 41.71875 45.5625 
Q 45.3125 48.734375 45.3125 54.390625 
Q 45.3125 60.0625 41.71875 63.234375 
Q 38.140625 66.40625 31.78125 66.40625 
Q 25.390625 66.40625 21.84375 63.234375 
Q 18.3125 60.0625 18.3125 54.390625 
z
" id="DejaVuSans-56"/>
      </defs>
      <g transform="translate(25.155 90.134829)scale(0.16 -0.16)">
       <use xlink:href="#DejaVuSans-48"/>
       <use x="63.623047" xlink:href="#DejaVuSans-46"/>
       <use x="95.410156" xlink:href="#DejaVuSans-56"/>
      </g>
     </g>
    </g>
    <g id="ytick_6">
     <g id="line2d_31">
      <path clip-path="url(#p00fbbd8676)" d="M 57.6 30.334099 
L 338.688 30.334099 
" style="fill:none;stroke:#b0b0b0;stroke-linecap:square;stroke-width:0.8;"/>
     </g>
     <g id="line2d_32">
      <g>
       <use style="stroke:#000000;stroke-width:0.8;" x="57.6" xlink:href="#m37239df7eb" y="30.334099"/>
      </g>
     </g>
     <g id="text_11">
      <!-- 1.0 -->
      <g transform="translate(25.155 36.412849)scale(0.16 -0.16)">
       <use xlink:href="#DejaVuSans-49"/>
       <use x="63.623047" xlink:href="#DejaVuSans-46"/>
       <use x="95.410156" xlink:href="#DejaVuSans-48"/>
      </g>
     </g>
    </g>
    <g id="text_12">
     <!-- Fraction of function,target pairs -->
     <defs>
      <path d="M 9.8125 72.90625 
L 51.703125 72.90625 
L 51.703125 64.59375 
L 19.671875 64.59375 
L 19.671875 43.109375 
L 48.578125 43.109375 
L 48.578125 34.8125 
L 19.671875 34.8125 
L 19.671875 0 
L 9.8125 0 
z
" id="DejaVuSans-70"/>
      <path d="M 41.109375 46.296875 
Q 39.59375 47.171875 37.8125 47.578125 
Q 36.03125 48 33.890625 48 
Q 26.265625 48 22.1875 43.046875 
Q 18.109375 38.09375 18.109375 28.8125 
L 18.109375 0 
L 9.078125 0 
L 9.078125 54.6875 
L 18.109375 54.6875 
L 18.109375 46.1875 
Q 20.953125 51.171875 25.484375 53.578125 
Q 30.03125 56 36.53125 56 
Q 37.453125 56 38.578125 55.875 
Q 39.703125 55.765625 41.0625 55.515625 
z
" id="DejaVuSans-114"/>
      <path d="M 48.78125 52.59375 
L 48.78125 44.1875 
Q 44.96875 46.296875 41.140625 47.34375 
Q 37.3125 48.390625 33.40625 48.390625 
Q 24.65625 48.390625 19.8125 42.84375 
Q 14.984375 37.3125 14.984375 27.296875 
Q 14.984375 17.28125 19.8125 11.734375 
Q 24.65625 6.203125 33.40625 6.203125 
Q 37.3125 6.203125 41.140625 7.25 
Q 44.96875 8.296875 48.78125 10.40625 
L 48.78125 2.09375 
Q 45.015625 0.34375 40.984375 -0.53125 
Q 36.96875 -1.421875 32.421875 -1.421875 
Q 20.0625 -1.421875 12.78125 6.34375 
Q 5.515625 14.109375 5.515625 27.296875 
Q 5.515625 40.671875 12.859375 48.328125 
Q 20.21875 56 33.015625 56 
Q 37.15625 56 41.109375 55.140625 
Q 45.0625 54.296875 48.78125 52.59375 
z
" id="DejaVuSans-99"/>
      <path d="M 18.3125 70.21875 
L 18.3125 54.6875 
L 36.8125 54.6875 
L 36.8125 47.703125 
L 18.3125 47.703125 
L 18.3125 18.015625 
Q 18.3125 11.328125 20.140625 9.421875 
Q 21.96875 7.515625 27.59375 7.515625 
L 36.8125 7.515625 
L 36.8125 0 
L 27.59375 0 
Q 17.1875 0 13.234375 3.875 
Q 9.28125 7.765625 9.28125 18.015625 
L 9.28125 47.703125 
L 2.6875 47.703125 
L 2.6875 54.6875 
L 9.28125 54.6875 
L 9.28125 70.21875 
z
" id="DejaVuSans-116"/>
      <path d="M 8.5 21.578125 
L 8.5 54.6875 
L 17.484375 54.6875 
L 17.484375 21.921875 
Q 17.484375 14.15625 20.5 10.265625 
Q 23.53125 6.390625 29.59375 6.390625 
Q 36.859375 6.390625 41.078125 11.03125 
Q 45.3125 15.671875 45.3125 23.6875 
L 45.3125 54.6875 
L 54.296875 54.6875 
L 54.296875 0 
L 45.3125 0 
L 45.3125 8.40625 
Q 42.046875 3.421875 37.71875 1 
Q 33.40625 -1.421875 27.6875 -1.421875 
Q 18.265625 -1.421875 13.375 4.4375 
Q 8.5 10.296875 8.5 21.578125 
z
M 31.109375 56 
z
" id="DejaVuSans-117"/>
      <path d="M 11.71875 12.40625 
L 22.015625 12.40625 
L 22.015625 4 
L 14.015625 -11.625 
L 7.71875 -11.625 
L 11.71875 4 
z
" id="DejaVuSans-44"/>
      <path d="M 18.109375 8.203125 
L 18.109375 -20.796875 
L 9.078125 -20.796875 
L 9.078125 54.6875 
L 18.109375 54.6875 
L 18.109375 46.390625 
Q 20.953125 51.265625 25.265625 53.625 
Q 29.59375 56 35.59375 56 
Q 45.5625 56 51.78125 48.09375 
Q 58.015625 40.1875 58.015625 27.296875 
Q 58.015625 14.40625 51.78125 6.484375 
Q 45.5625 -1.421875 35.59375 -1.421875 
Q 29.59375 -1.421875 25.265625 0.953125 
Q 20.953125 3.328125 18.109375 8.203125 
z
M 48.6875 27.296875 
Q 48.6875 37.203125 44.609375 42.84375 
Q 40.53125 48.484375 33.40625 48.484375 
Q 26.265625 48.484375 22.1875 42.84375 
Q 18.109375 37.203125 18.109375 27.296875 
Q 18.109375 17.390625 22.1875 11.75 
Q 26.265625 6.109375 33.40625 6.109375 
Q 40.53125 6.109375 44.609375 11.75 
Q 48.6875 17.390625 48.6875 27.296875 
z
" id="DejaVuSans-112"/>
     </defs>
     <g transform="translate(17.619531 298.435375)rotate(-90)scale(0.17 -0.17)">
      <use xlink:href="#DejaVuSans-70"/>
      <use x="57.410156" xlink:href="#DejaVuSans-114"/>
      <use x="98.523438" xlink:href="#DejaVuSans-97"/>
      <use x="159.802734" xlink:href="#DejaVuSans-99"/>
      <use x="214.783203" xlink:href="#DejaVuSans-116"/>
      <use x="253.992188" xlink:href="#DejaVuSans-105"/>
      <use x="281.775391" xlink:href="#DejaVuSans-111"/>
      <use x="342.957031" xlink:href="#DejaVuSans-110"/>
      <use x="406.335938" xlink:href="#DejaVuSans-32"/>
      <use x="438.123047" xlink:href="#DejaVuSans-111"/>
      <use x="499.304688" xlink:href="#DejaVuSans-102"/>
      <use x="534.509766" xlink:href="#DejaVuSans-32"/>
      <use x="566.296875" xlink:href="#DejaVuSans-102"/>
      <use x="601.501953" xlink:href="#DejaVuSans-117"/>
      <use x="664.880859" xlink:href="#DejaVuSans-110"/>
      <use x="728.259766" xlink:href="#DejaVuSans-99"/>
      <use x="783.240234" xlink:href="#DejaVuSans-116"/>
      <use x="822.449219" xlink:href="#DejaVuSans-105"/>
      <use x="850.232422" xlink:href="#DejaVuSans-111"/>
      <use x="911.414062" xlink:href="#DejaVuSans-110"/>
      <use x="974.792969" xlink:href="#DejaVuSans-44"/>
      <use x="1006.580078" xlink:href="#DejaVuSans-116"/>
      <use x="1045.789062" xlink:href="#DejaVuSans-97"/>
      <use x="1107.068359" xlink:href="#DejaVuSans-114"/>
      <use x="1148.166016" xlink:href="#DejaVuSans-103"/>
      <use x="1211.642578" xlink:href="#DejaVuSans-101"/>
      <use x="1273.166016" xlink:href="#DejaVuSans-116"/>
      <use x="1312.375" xlink:href="#DejaVuSans-32"/>
      <use x="1344.162109" xlink:href="#DejaVuSans-112"/>
      <use x="1407.638672" xlink:href="#DejaVuSans-97"/>
      <use x="1468.917969" xlink:href="#DejaVuSans-105"/>
      <use x="1496.701172" xlink:href="#DejaVuSans-114"/>
      <use x="1537.814453" xlink:href="#DejaVuSans-115"/>
     </g>
    </g>
   </g>
   <g id="line2d_33">
    <defs>
     <path d="M 0 1.5 
C 0.397805 1.5 0.77937 1.341951 1.06066 1.06066 
C 1.341951 0.77937 1.5 0.397805 1.5 0 
C 1.5 -0.397805 1.341951 -0.77937 1.06066 -1.06066 
C 0.77937 -1.341951 0.397805 -1.5 0 -1.5 
C -0.397805 -1.5 -0.77937 -1.341951 -1.06066 -1.06066 
C -1.341951 -0.77937 -1.5 -0.397805 -1.5 0 
C -1.5 0.397805 -1.341951 0.77937 -1.06066 1.06066 
C -0.77937 1.341951 -0.397805 1.5 0 1.5 
z
" id="mbfc1e40b21" style="stroke:#f5deb3;"/>
    </defs>
    <g>
     <use style="fill:#f5deb3;stroke:#f5deb3;" x="150.401087" xlink:href="#mbfc1e40b21" y="30.334099"/>
     <use style="fill:#f5deb3;stroke:#f5deb3;" x="150.401087" xlink:href="#mbfc1e40b21" y="30.334099"/>
    </g>
   </g>
   <g id="line2d_34">
    <defs>
     <path d="M 0 1.5 
C 0.397805 1.5 0.77937 1.341951 1.06066 1.06066 
C 1.341951 0.77937 1.5 0.397805 1.5 0 
C 1.5 -0.397805 1.341951 -0.77937 1.06066 -1.06066 
C 0.77937 -1.341951 0.397805 -1.5 0 -1.5 
C -0.397805 -1.5 -0.77937 -1.341951 -1.06066 -1.06066 
C -1.341951 -0.77937 -1.5 -0.397805 -1.5 0 
C -1.5 0.397805 -1.341951 0.77937 -1.06066 1.06066 
C -0.77937 1.341951 -0.397805 1.5 0 1.5 
z
" id="m3d85916a06" style="stroke:#000080;"/>
    </defs>
    <g>
     <use style="fill:#000080;stroke:#000080;" x="155.146121" xlink:href="#m3d85916a06" y="30.334099"/>
     <use style="fill:#000080;stroke:#000080;" x="155.146121" xlink:href="#m3d85916a06" y="30.334099"/>
    </g>
   </g>
   <g id="line2d_35">
    <path d="M 38.440992 298.944 
L 38.440992 290.517023 
L 50.52898 290.517023 
L 50.52898 289.990337 
L 57.6 289.990337 
L 57.6 287.356906 
L 62.616969 287.356906 
L 62.616969 286.303534 
L 72.376266 286.303534 
L 72.376266 285.250162 
L 76.759008 285.250162 
L 76.759008 284.19679 
L 78.59642 284.19679 
L 78.59642 281.563359 
L 83.171864 281.563359 
L 83.171864 280.509987 
L 84.464254 280.509987 
L 84.464254 277.349871 
L 86.792945 277.349871 
L 86.792945 275.243126 
L 87.850195 275.243126 
L 87.850195 273.136382 
L 88.846997 273.136382 
L 88.846997 271.029638 
L 89.78989 271.029638 
L 89.78989 267.342835 
L 90.684409 267.342835 
L 90.684409 266.816149 
L 91.535274 266.816149 
L 91.535274 266.289463 
L 92.34655 266.289463 
L 92.34655 265.762777 
L 93.121756 265.762777 
L 93.121756 265.236091 
L 93.863965 265.236091 
L 93.863965 263.656033 
L 95.259853 263.656033 
L 95.259853 262.075974 
L 97.755429 262.075974 
L 97.755429 261.549288 
L 98.880934 261.549288 
L 98.880934 261.022602 
L 99.41757 261.022602 
L 99.41757 259.442544 
L 99.938184 259.442544 
L 99.938184 258.915858 
L 101.412804 258.915858 
L 101.412804 257.862486 
L 102.772397 257.862486 
L 102.772397 257.3358 
L 103.203018 257.3358 
L 103.203018 255.755741 
L 103.623262 255.755741 
L 103.623262 255.229055 
L 104.033617 255.229055 
L 104.033617 254.175683 
L 105.209745 254.175683 
L 105.209745 253.648997 
L 107.347841 253.648997 
L 107.347841 252.068939 
L 107.680028 252.068939 
L 107.680028 251.542253 
L 109.252198 251.542253 
L 109.252198 251.015567 
L 110.415248 251.015567 
L 110.415248 250.488881 
L 111.767808 250.488881 
L 111.767808 249.962195 
L 112.531694 249.962195 
L 112.531694 246.802078 
L 113.500792 246.802078 
L 113.500792 246.275392 
L 113.73488 246.275392 
L 113.73488 244.168648 
L 114.860386 244.168648 
L 114.860386 243.641962 
L 115.077025 243.641962 
L 115.077025 243.115275 
L 116.522527 243.115275 
L 116.522527 240.481845 
L 116.719583 240.481845 
L 116.719583 239.955159 
L 118.399528 239.955159 
L 118.399528 238.901787 
L 118.751849 238.901787 
L 118.751849 236.795043 
L 118.925375 236.795043 
L 118.925375 235.214984 
L 119.097192 235.214984 
L 119.097192 234.161612 
L 119.267333 234.161612 
L 119.267333 233.634926 
L 119.602714 233.634926 
L 119.602714 233.10824 
L 119.768017 233.10824 
L 119.768017 231.528182 
L 120.41399 231.528182 
L 120.41399 229.948123 
L 120.883236 229.948123 
L 120.883236 228.368065 
L 121.036887 228.368065 
L 121.036887 227.841379 
L 121.489881 227.841379 
L 121.489881 226.261321 
L 121.638301 226.261321 
L 121.638301 224.681263 
L 122.076131 224.681263 
L 122.076131 223.101204 
L 122.362027 223.101204 
L 122.362027 222.574518 
L 122.503236 222.574518 
L 122.503236 222.047832 
L 123.192626 222.047832 
L 123.192626 220.99446 
L 123.460928 220.99446 
L 123.460928 213.620855 
L 123.593547 213.620855 
L 123.593547 213.094169 
L 124.241922 213.094169 
L 124.241922 212.040797 
L 124.743806 212.040797 
L 124.743806 211.514111 
L 125.23165 211.514111 
L 125.23165 210.987425 
L 125.706218 210.987425 
L 125.706218 210.460738 
L 125.822869 210.460738 
L 125.822869 208.353994 
L 126.168212 208.353994 
L 126.168212 202.033761 
L 126.729009 202.033761 
L 126.729009 200.453703 
L 127.165014 200.453703 
L 127.272333 199.400331 
L 127.48501 199.400331 
L 127.48501 198.873645 
L 127.695124 198.873645 
L 127.695124 198.346959 
L 127.902737 198.346959 
L 127.902737 197.820273 
L 128.107907 197.820273 
L 128.209594 195.713528 
L 128.709321 195.713528 
L 128.807571 194.13347 
L 128.905271 194.13347 
L 128.905271 192.553412 
L 129.385722 192.553412 
L 129.385722 190.446667 
L 129.760775 190.446667 
L 129.760775 189.919981 
L 130.036864 189.919981 
L 130.036864 182.546376 
L 130.30865 182.546376 
L 130.30865 172.012655 
L 130.839837 172.012655 
L 130.839837 163.585677 
L 131.013364 163.585677 
L 131.013364 163.058991 
L 131.60746 163.058991 
L 131.60746 162.005619 
L 132.181982 162.005619 
L 132.181982 153.578642 
L 132.342714 153.578642 
L 132.342714 152.52527 
L 132.893889 152.52527 
L 132.893889 150.418525 
L 133.124876 150.418525 
L 133.124876 149.891839 
L 134.091907 149.891839 
L 134.091907 148.838467 
L 134.236034 148.838467 
L 134.236034 140.41149 
L 134.591225 140.41149 
L 134.591225 129.351082 
L 134.7313 129.351082 
L 134.800918 127.244338 
L 135.415281 127.244338 
L 135.415281 126.190966 
L 135.813153 126.190966 
L 135.813153 125.66428 
L 137.138292 125.66428 
L 137.138292 124.610907 
L 137.319638 124.610907 
L 137.319638 122.504163 
L 137.499118 122.504163 
L 137.499118 121.977477 
L 137.676769 121.977477 
L 137.735587 115.657244 
L 137.794206 115.657244 
L 137.794206 115.130558 
L 137.968891 115.130558 
L 137.968891 114.603872 
L 138.538853 114.603872 
L 138.538853 114.077186 
L 138.650644 114.077186 
L 138.650644 111.970441 
L 138.981779 111.970441 
L 138.981779 111.443755 
L 139.466984 111.443755 
L 139.466984 110.390383 
L 140.144829 110.390383 
L 140.144829 109.863697 
L 140.348205 109.863697 
L 140.39868 108.283639 
L 140.747977 108.283639 
L 140.747977 107.756953 
L 141.615302 107.756953 
L 141.615302 107.230267 
L 142.124852 107.230267 
L 142.124852 106.703581 
L 143.014805 106.703581 
L 143.014805 105.650209 
L 143.778691 105.650209 
L 143.778691 97.223231 
L 143.985075 97.223231 
L 143.985075 96.696545 
L 144.189046 96.696545 
L 144.189046 87.742882 
L 144.787023 87.742882 
L 144.787023 86.68951 
L 144.981877 86.68951 
L 144.981877 86.162824 
L 145.851187 86.162824 
L 145.851187 84.582765 
L 145.998045 84.582765 
L 145.998045 84.056079 
L 146.502522 84.056079 
L 146.502522 82.476021 
L 147.130404 82.476021 
L 147.130404 71.942299 
L 147.736463 71.942299 
L 147.769524 70.888927 
L 148.161434 70.888927 
L 148.258051 69.835555 
L 148.670646 69.835555 
L 148.670646 69.308869 
L 148.888835 69.308869 
L 148.981515 66.675439 
L 149.467659 66.675439 
L 149.467659 59.301833 
L 149.794191 59.301833 
L 149.823575 58.248461 
L 149.911431 58.248461 
L 149.998846 56.668403 
L 150.598782 56.668403 
L 150.682827 55.615031 
L 151.501723 55.615031 
L 151.501723 54.034973 
L 151.923236 54.034973 
L 151.923236 53.508287 
L 152.155936 53.508287 
L 152.155936 52.9816 
L 152.436193 52.9816 
L 152.436193 51.401542 
L 152.587184 51.401542 
L 152.587184 44.554623 
L 153.178403 44.554623 
L 153.275019 42.974565 
L 153.29909 42.974565 
L 153.29909 33.494215 
L 153.466662 33.494215 
L 153.466662 32.967529 
L 154.928399 32.967529 
L 154.928399 32.440843 
L 155.12447 32.440843 
L 155.146121 30.334099 
L 338.688 30.334099 
L 338.688 30.334099 
" style="fill:none;stroke:#000080;stroke-linecap:square;stroke-width:1.5;"/>
   </g>
   <g id="line2d_36">
    <defs>
     <path d="M 0 6 
C 1.591219 6 3.117479 5.367802 4.242641 4.242641 
C 5.367802 3.117479 6 1.591219 6 0 
C 6 -1.591219 5.367802 -3.117479 4.242641 -4.242641 
C 3.117479 -5.367802 1.591219 -6 0 -6 
C -1.591219 -6 -3.117479 -5.367802 -4.242641 -4.242641 
C -5.367802 -3.117479 -6 -1.591219 -6 0 
C -6 1.591219 -5.367802 3.117479 -4.242641 4.242641 
C -3.117479 5.367802 -1.591219 6 0 6 
z
" id="m3e49a48441" style="stroke:#000080;stroke-width:1.5;"/>
    </defs>
    <g>
     <use style="fill-opacity:0;stroke:#000080;stroke-width:1.5;" x="101.412804" xlink:href="#m3e49a48441" y="257.862486"/>
     <use style="fill-opacity:0;stroke:#000080;stroke-width:1.5;" x="137.499118" xlink:href="#m3e49a48441" y="122.504163"/>
     <use style="fill-opacity:0;stroke:#000080;stroke-width:1.5;" x="155.146121" xlink:href="#m3e49a48441" y="31.914157"/>
     <use style="fill-opacity:0;stroke:#000080;stroke-width:1.5;" x="155.146121" xlink:href="#m3e49a48441" y="30.334099"/>
     <use style="fill-opacity:0;stroke:#000080;stroke-width:1.5;" x="155.146121" xlink:href="#m3e49a48441" y="30.334099"/>
     <use style="fill-opacity:0;stroke:#000080;stroke-width:1.5;" x="338.688" xlink:href="#m3e49a48441" y="30.334099"/>
    </g>
   </g>
   <g id="line2d_37">
    <path style="fill:none;stroke:#000080;stroke-linecap:square;stroke-width:1.5;"/>
    <g/>
   </g>
   <g id="line2d_38">
    <g>
     <use style="fill:#000080;stroke:#000080;" x="155.382516" xlink:href="#m3d85916a06" y="30.334099"/>
     <use style="fill:#000080;stroke:#000080;" x="155.382516" xlink:href="#m3d85916a06" y="30.334099"/>
    </g>
   </g>
   <g id="line2d_39">
    <path d="M 38.440992 298.944 
L 38.440992 292.623767 
L 50.52898 292.623767 
L 50.52898 291.043709 
L 57.6 291.043709 
L 57.6 285.776848 
L 62.616969 285.776848 
L 62.616969 283.143418 
L 66.508432 283.143418 
L 66.508432 282.090045 
L 69.687988 282.090045 
L 69.687988 277.876557 
L 76.759008 277.876557 
L 76.759008 276.823185 
L 80.258561 276.823185 
L 80.258561 273.663068 
L 81.775977 273.663068 
L 81.775977 272.609696 
L 83.171864 272.609696 
L 83.171864 271.029638 
L 85.66744 271.029638 
L 85.66744 269.976266 
L 86.792945 269.976266 
L 86.792945 268.396207 
L 88.846997 268.396207 
L 88.846997 265.236091 
L 89.78989 265.236091 
L 89.78989 264.709405 
L 91.535274 264.709405 
L 91.535274 264.182719 
L 92.34655 264.182719 
L 92.34655 263.129347 
L 93.863965 263.129347 
L 93.863965 262.60266 
L 94.575872 262.60266 
L 94.575872 261.549288 
L 95.259853 261.549288 
L 95.259853 261.022602 
L 97.755429 261.022602 
L 97.755429 260.495916 
L 99.938184 260.495916 
L 99.938184 259.96923 
L 100.443706 259.96923 
L 100.443706 259.442544 
L 101.412804 259.442544 
L 101.412804 258.389172 
L 101.877879 258.389172 
L 101.877879 256.809114 
L 102.772397 256.809114 
L 102.772397 255.755741 
L 104.033617 255.755741 
L 104.033617 254.702369 
L 104.434538 254.702369 
L 104.434538 253.648997 
L 105.584798 253.648997 
L 105.584798 253.122311 
L 105.951954 253.122311 
L 105.951954 252.068939 
L 106.311539 252.068939 
L 106.311539 251.542253 
L 107.009204 251.542253 
L 107.009204 251.015567 
L 108.640231 251.015567 
L 108.640231 250.488881 
L 110.131676 250.488881 
L 110.131676 249.435508 
L 110.694282 249.435508 
L 110.694282 248.382136 
L 110.968922 248.382136 
L 110.968922 246.275392 
L 111.239304 246.275392 
L 111.239304 244.695334 
L 111.505558 244.695334 
L 111.505558 244.168648 
L 111.767808 244.168648 
L 111.767808 242.588589 
L 112.280765 242.588589 
L 112.280765 242.061903 
L 113.26352 242.061903 
L 113.26352 241.008531 
L 114.193835 241.008531 
L 114.193835 240.481845 
L 114.418861 240.481845 
L 114.418861 239.428473 
L 115.711251 239.428473 
L 115.711251 238.901787 
L 116.323218 238.901787 
L 116.323218 237.321729 
L 116.914437 237.321729 
L 116.914437 236.268356 
L 117.297733 236.268356 
L 117.297733 235.74167 
L 117.672786 235.74167 
L 117.672786 235.214984 
L 117.857331 235.214984 
L 117.857331 231.001496 
L 118.220662 231.001496 
L 118.220662 228.894751 
L 118.751849 228.894751 
L 118.751849 227.841379 
L 119.267333 227.841379 
L 119.267333 225.207949 
L 119.602714 225.207949 
L 119.602714 224.154577 
L 120.254726 224.154577 
L 120.254726 223.101204 
L 121.036887 223.101204 
L 121.036887 221.521146 
L 122.219665 221.521146 
L 122.219665 219.941088 
L 122.503236 219.941088 
L 122.503236 209.407366 
L 122.920132 209.407366 
L 122.920132 208.88068 
L 123.056911 208.88068 
L 123.056911 208.353994 
L 123.327293 208.353994 
L 123.327293 206.773936 
L 123.460928 206.773936 
L 123.460928 205.193878 
L 123.725164 205.193878 
L 123.725164 204.667192 
L 123.855796 204.667192 
L 123.855796 204.140506 
L 125.23165 204.140506 
L 125.23165 202.033761 
L 125.351508 202.033761 
L 125.351508 201.507075 
L 125.588781 201.507075 
L 125.588781 200.980389 
L 126.168212 200.980389 
L 126.168212 199.400331 
L 126.50685 199.400331 
L 126.50685 196.7669 
L 127.48501 196.7669 
L 127.590383 187.813237 
L 127.799239 187.813237 
L 127.799239 186.233179 
L 128.005624 186.233179 
L 128.005624 185.179807 
L 128.310692 185.179807 
L 128.310692 184.126434 
L 128.807571 184.126434 
L 128.807571 182.546376 
L 129.099042 182.546376 
L 129.195127 169.90591 
L 129.480244 169.90591 
L 129.574256 160.425561 
L 129.945319 160.425561 
L 129.945319 154.105328 
L 130.30865 154.105328 
L 130.398313 153.051956 
L 130.664567 153.051956 
L 130.664567 152.52527 
L 130.926816 152.52527 
L 130.926816 151.998584 
L 131.856005 151.998584 
L 131.856005 149.891839 
L 132.181982 149.891839 
L 132.181982 138.831432 
L 132.659801 138.831432 
L 132.659801 137.778059 
L 133.201197 137.778059 
L 133.201197 137.251373 
L 133.428175 137.251373 
L 133.428175 135.671315 
L 133.57787 135.671315 
L 133.57787 126.190966 
L 133.72629 126.190966 
L 133.800029 116.710616 
L 133.873458 116.710616 
L 133.873458 116.18393 
L 134.164119 116.18393 
L 134.164119 107.230267 
L 135.00812 107.230267 
L 135.00812 104.596836 
L 135.878591 104.596836 
L 135.878591 104.07015 
L 136.073445 104.07015 
L 136.073445 97.223231 
L 136.456742 97.223231 
L 136.456742 96.696545 
L 136.707671 96.696545 
L 136.769843 93.009743 
L 136.831795 93.009743 
L 136.831795 92.483056 
L 137.077422 92.483056 
L 137.077422 91.429684 
L 137.558536 91.429684 
L 137.558536 88.796254 
L 137.794206 88.796254 
L 137.794206 88.269568 
L 138.369812 88.269568 
L 138.369812 79.842591 
L 138.706272 79.842591 
L 138.706272 78.789218 
L 138.927025 78.789218 
L 139.036363 76.155788 
L 139.360321 76.155788 
L 139.360321 74.57573 
L 139.520072 74.57573 
L 139.520072 73.522358 
L 140.093612 73.522358 
L 140.144829 70.888927 
L 140.297583 70.888927 
L 140.297583 70.362241 
L 140.747977 70.362241 
L 140.747977 69.835555 
L 140.89556 69.835555 
L 140.89556 69.308869 
L 141.041904 69.308869 
L 141.090414 68.255497 
L 141.426256 68.255497 
L 141.47371 66.675439 
L 141.941279 66.675439 
L 141.941279 65.622066 
L 142.170445 65.622066 
L 142.170445 64.568694 
L 144.550287 64.568694 
L 144.550287 58.775147 
L 144.708467 58.775147 
L 144.708467 57.195089 
L 146.071013 57.195089 
L 146.071013 56.141717 
L 146.714338 56.141717 
L 146.714338 55.615031 
L 147.164632 55.615031 
L 147.164632 54.034973 
L 148.79566 54.034973 
L 148.857832 51.928228 
L 149.012299 51.928228 
L 149.012299 51.401542 
L 149.256637 51.401542 
L 149.256637 50.874856 
L 149.467659 50.874856 
L 149.467659 49.294798 
L 149.764758 49.294798 
L 149.764758 48.768112 
L 150.201126 48.768112 
L 150.201126 41.394507 
L 150.457801 41.394507 
L 150.457801 35.074274 
L 150.960087 35.074274 
L 150.960087 33.494215 
L 151.581536 33.494215 
L 151.581536 32.440843 
L 152.687123 32.440843 
L 152.687123 31.914157 
L 154.994001 31.914157 
L 155.0376 30.860785 
L 155.382516 30.860785 
L 155.382516 30.334099 
L 338.688 30.334099 
L 338.688 30.334099 
" style="fill:none;stroke:#000080;stroke-linecap:square;stroke-width:1.5;"/>
   </g>
   <g id="line2d_40">
    <g>
     <use style="fill-opacity:0;stroke:#000080;stroke-width:1.5;" x="89.78989" xlink:href="#m3e49a48441" y="264.709405"/>
     <use style="fill-opacity:0;stroke:#000080;stroke-width:1.5;" x="130.926816" xlink:href="#m3e49a48441" y="151.998584"/>
     <use style="fill-opacity:0;stroke:#000080;stroke-width:1.5;" x="155.382516" xlink:href="#m3e49a48441" y="30.860785"/>
     <use style="fill-opacity:0;stroke:#000080;stroke-width:1.5;" x="155.382516" xlink:href="#m3e49a48441" y="30.334099"/>
     <use style="fill-opacity:0;stroke:#000080;stroke-width:1.5;" x="155.382516" xlink:href="#m3e49a48441" y="30.334099"/>
     <use style="fill-opacity:0;stroke:#000080;stroke-width:1.5;" x="338.688" xlink:href="#m3e49a48441" y="30.334099"/>
    </g>
   </g>
   <g id="line2d_41">
    <path style="fill:none;stroke:#000080;stroke-linecap:square;stroke-width:1.5;"/>
    <g/>
   </g>
   <g id="line2d_42">
    <defs>
     <path d="M 0 1.5 
C 0.397805 1.5 0.77937 1.341951 1.06066 1.06066 
C 1.341951 0.77937 1.5 0.397805 1.5 0 
C 1.5 -0.397805 1.341951 -0.77937 1.06066 -1.06066 
C 0.77937 -1.341951 0.397805 -1.5 0 -1.5 
C -0.397805 -1.5 -0.77937 -1.341951 -1.06066 -1.06066 
C -1.341951 -0.77937 -1.5 -0.397805 -1.5 0 
C -1.5 0.397805 -1.341951 0.77937 -1.06066 1.06066 
C -0.77937 1.341951 -0.397805 1.5 0 1.5 
z
" id="mf8eccf012f" style="stroke:#ff00ff;"/>
    </defs>
    <g>
     <use style="fill:#ff00ff;stroke:#ff00ff;" x="164.282408" xlink:href="#mf8eccf012f" y="30.334099"/>
     <use style="fill:#ff00ff;stroke:#ff00ff;" x="164.282408" xlink:href="#mf8eccf012f" y="30.334099"/>
    </g>
   </g>
   <g id="line2d_43">
    <path d="M 38.440992 298.944 
L 38.440992 293.150453 
L 50.52898 293.150453 
L 50.52898 288.410278 
L 57.6 288.410278 
L 57.6 284.19679 
L 66.508432 284.19679 
L 66.508432 281.036673 
L 69.687988 281.036673 
L 69.687988 278.929929 
L 72.376266 278.929929 
L 72.376266 276.823185 
L 76.759008 276.823185 
L 76.759008 276.296499 
L 80.258561 276.296499 
L 80.258561 273.136382 
L 81.775977 273.136382 
L 81.775977 272.609696 
L 83.171864 272.609696 
L 83.171864 271.029638 
L 85.66744 271.029638 
L 85.66744 270.502952 
L 88.846997 270.502952 
L 88.846997 269.976266 
L 89.78989 269.976266 
L 89.78989 268.922893 
L 90.684409 268.922893 
L 90.684409 268.396207 
L 91.535274 268.396207 
L 91.535274 267.342835 
L 95.259853 267.342835 
L 95.259853 265.762777 
L 95.918017 265.762777 
L 95.918017 264.709405 
L 97.755429 264.709405 
L 97.755429 262.60266 
L 98.32726 262.60266 
L 98.32726 262.075974 
L 98.880934 262.075974 
L 98.880934 260.495916 
L 101.412804 260.495916 
L 101.412804 259.96923 
L 101.877879 259.96923 
L 101.877879 259.442544 
L 105.584798 259.442544 
L 105.584798 258.915858 
L 107.680028 258.915858 
L 107.680028 258.389172 
L 108.948899 258.389172 
L 108.948899 257.862486 
L 109.252198 257.862486 
L 109.252198 255.755741 
L 109.843417 255.755741 
L 109.843417 254.702369 
L 112.531694 254.702369 
L 112.531694 254.175683 
L 112.779064 254.175683 
L 112.779064 253.648997 
L 113.500792 253.648997 
L 113.500792 253.122311 
L 114.193835 253.122311 
L 114.193835 252.068939 
L 114.418861 252.068939 
L 114.418861 250.488881 
L 114.860386 250.488881 
L 114.860386 249.962195 
L 115.711251 249.962195 
L 115.711251 248.382136 
L 116.719583 248.382136 
L 116.719583 247.328764 
L 117.672786 247.328764 
L 117.672786 245.748706 
L 118.576578 245.748706 
L 118.576578 245.22202 
L 118.925375 245.22202 
L 118.925375 244.695334 
L 119.267333 244.695334 
L 119.267333 243.115275 
L 119.768017 243.115275 
L 119.768017 242.588589 
L 120.093994 242.588589 
L 120.093994 242.061903 
L 120.254726 242.061903 
L 120.254726 241.008531 
L 120.883236 241.008531 
L 120.883236 240.481845 
L 121.340187 240.481845 
L 121.340187 239.955159 
L 121.931406 239.955159 
L 121.931406 238.901787 
L 123.056911 238.901787 
L 123.056911 236.268356 
L 123.855796 236.268356 
L 123.855796 235.214984 
L 124.114161 235.214984 
L 124.114161 234.688298 
L 124.867052 234.688298 
L 124.867052 233.634926 
L 125.23165 233.634926 
L 125.23165 229.421437 
L 126.053856 229.421437 
L 126.053856 228.894751 
L 126.3947 228.894751 
L 126.3947 227.841379 
L 126.948374 227.841379 
L 126.948374 220.467774 
L 127.590383 220.467774 
L 127.590383 219.941088 
L 127.902737 219.941088 
L 127.902737 218.887716 
L 128.107907 218.887716 
L 128.209594 215.727599 
L 129.195127 215.727599 
L 129.290685 214.147541 
L 129.385722 214.147541 
L 129.385722 212.567483 
L 129.574256 212.567483 
L 129.667765 210.987425 
L 129.760775 210.987425 
L 129.853291 200.980389 
L 130.127931 200.980389 
L 130.127931 200.453703 
L 130.30865 200.453703 
L 130.30865 198.346959 
L 131.099484 198.346959 
L 131.099484 197.293586 
L 131.60746 197.293586 
L 131.60746 196.7669 
L 132.422528 196.7669 
L 132.422528 195.713528 
L 132.816208 195.713528 
L 132.816208 194.660156 
L 133.201197 194.660156 
L 133.201197 194.13347 
L 133.428175 194.13347 
L 133.503183 192.553412 
L 134.164119 192.553412 
L 134.236034 190.446667 
L 134.450015 190.446667 
L 134.450015 188.339923 
L 134.661403 188.339923 
L 134.7313 176.752829 
L 135.076644 176.752829 
L 135.076644 175.699457 
L 135.212889 175.699457 
L 135.212889 174.119399 
L 135.348078 174.119399 
L 135.348078 173.592713 
L 135.482227 173.592713 
L 135.482227 173.066027 
L 136.393441 173.066027 
L 136.393441 163.585677 
L 136.519813 163.585677 
L 136.519813 163.058991 
L 136.893527 163.058991 
L 136.893527 154.632014 
L 137.016339 154.632014 
L 137.016339 154.105328 
L 137.138292 154.105328 
L 137.138292 153.578642 
L 137.259399 153.578642 
L 137.259399 152.52527 
L 137.439497 152.52527 
L 137.439497 151.998584 
L 137.558536 151.998584 
L 137.617753 149.365153 
L 137.794206 149.365153 
L 137.852629 138.831432 
L 137.910857 138.831432 
L 137.910857 131.457826 
L 138.026733 131.457826 
L 138.026733 130.404454 
L 138.816998 130.404454 
L 138.816998 129.877768 
L 139.036363 129.877768 
L 139.036363 121.450791 
L 139.360321 121.450791 
L 139.413734 119.870733 
L 139.572998 119.870733 
L 139.678372 96.169859 
L 139.835248 96.169859 
L 139.939053 94.589801 
L 140.144829 94.589801 
L 140.144829 93.536429 
L 140.297583 93.536429 
L 140.297583 92.483056 
L 140.599134 92.483056 
L 140.599134 91.429684 
L 140.79731 91.429684 
L 140.79731 90.902998 
L 140.944478 90.902998 
L 140.944478 89.32294 
L 141.283115 89.32294 
L 141.283115 86.162824 
L 141.47371 86.162824 
L 141.47371 85.109451 
L 141.848763 85.109451 
L 141.848763 77.20916 
L 142.124852 77.20916 
L 142.124852 68.782183 
L 143.273169 68.782183 
L 143.31586 67.202125 
L 143.40093 67.202125 
L 143.40093 66.675439 
L 143.527762 66.675439 
L 143.527762 62.988636 
L 143.778691 62.988636 
L 143.778691 61.935264 
L 143.902815 61.935264 
L 143.902815 61.408578 
L 144.107744 61.408578 
L 144.107744 60.881892 
L 144.629556 60.881892 
L 144.629556 59.82852 
L 145.097753 59.82852 
L 145.097753 59.301833 
L 145.327221 59.301833 
L 145.327221 57.721775 
L 145.440832 57.721775 
L 145.440832 57.195089 
L 145.703082 57.195089 
L 145.703082 56.141717 
L 145.851187 56.141717 
L 145.851187 55.615031 
L 146.958248 55.615031 
L 146.958248 54.034973 
L 148.639252 54.034973 
L 148.639252 53.508287 
L 151.097081 53.508287 
L 151.097081 52.454914 
L 153.773658 52.454914 
L 153.773658 51.928228 
L 153.983071 51.928228 
L 153.983071 44.554623 
L 154.394502 44.554623 
L 154.394502 43.501251 
L 155.488919 43.501251 
L 155.488919 42.974565 
L 155.61575 42.974565 
L 155.61575 41.921193 
L 157.069866 41.921193 
L 157.069866 35.074274 
L 158.031107 35.074274 
L 158.122556 32.440843 
L 163.239567 32.440843 
L 163.239567 31.387471 
L 163.722532 31.387471 
L 163.722532 30.860785 
L 164.282408 30.860785 
L 164.282408 30.334099 
L 338.688 30.334099 
L 338.688 30.334099 
" style="fill:none;stroke:#ff00ff;stroke-linecap:square;stroke-width:1.5;"/>
   </g>
   <g id="line2d_44">
    <defs>
     <path d="M -0 8.485281 
L 5.091169 0 
L 0 -8.485281 
L -5.091169 -0 
z
" id="m3d9c56f59a" style="stroke:#ff00ff;stroke-linejoin:miter;stroke-width:1.5;"/>
    </defs>
    <g>
     <use style="fill-opacity:0;stroke:#ff00ff;stroke-linejoin:miter;stroke-width:1.5;" x="109.843417" xlink:href="#m3d9c56f59a" y="255.755741"/>
     <use style="fill-opacity:0;stroke:#ff00ff;stroke-linejoin:miter;stroke-width:1.5;" x="139.572998" xlink:href="#m3d9c56f59a" y="110.917069"/>
     <use style="fill-opacity:0;stroke:#ff00ff;stroke-linejoin:miter;stroke-width:1.5;" x="164.282408" xlink:href="#m3d9c56f59a" y="30.860785"/>
     <use style="fill-opacity:0;stroke:#ff00ff;stroke-linejoin:miter;stroke-width:1.5;" x="164.282408" xlink:href="#m3d9c56f59a" y="30.334099"/>
     <use style="fill-opacity:0;stroke:#ff00ff;stroke-linejoin:miter;stroke-width:1.5;" x="164.282408" xlink:href="#m3d9c56f59a" y="30.334099"/>
     <use style="fill-opacity:0;stroke:#ff00ff;stroke-linejoin:miter;stroke-width:1.5;" x="338.688" xlink:href="#m3d9c56f59a" y="30.334099"/>
    </g>
   </g>
   <g id="line2d_45">
    <path style="fill:none;stroke:#ff00ff;stroke-linecap:square;stroke-width:1.5;"/>
    <g/>
   </g>
   <g id="line2d_46">
    <defs>
     <path d="M 0 1.5 
C 0.397805 1.5 0.77937 1.341951 1.06066 1.06066 
C 1.341951 0.77937 1.5 0.397805 1.5 0 
C 1.5 -0.397805 1.341951 -0.77937 1.06066 -1.06066 
C 0.77937 -1.341951 0.397805 -1.5 0 -1.5 
C -0.397805 -1.5 -0.77937 -1.341951 -1.06066 -1.06066 
C -1.341951 -0.77937 -1.5 -0.397805 -1.5 0 
C -1.5 0.397805 -1.341951 0.77937 -1.06066 1.06066 
C -0.77937 1.341951 -0.397805 1.5 0 1.5 
z
" id="m163c873421" style="stroke:#ff0000;"/>
    </defs>
    <g>
     <use style="fill:#ff0000;stroke:#ff0000;" x="154.57429" xlink:href="#m163c873421" y="30.334099"/>
     <use style="fill:#ff0000;stroke:#ff0000;" x="154.57429" xlink:href="#m163c873421" y="30.334099"/>
    </g>
   </g>
   <g id="line2d_47">
    <path d="M 38.440992 298.944 
L 38.440992 292.097081 
L 50.52898 292.097081 
L 50.52898 288.936964 
L 57.6 288.936964 
L 57.6 286.83022 
L 66.508432 286.83022 
L 66.508432 284.19679 
L 69.687988 284.19679 
L 69.687988 283.143418 
L 72.376266 283.143418 
L 72.376266 281.563359 
L 76.759008 281.563359 
L 76.759008 280.509987 
L 78.59642 280.509987 
L 78.59642 279.456615 
L 80.258561 279.456615 
L 80.258561 278.929929 
L 81.775977 278.929929 
L 81.775977 277.876557 
L 83.171864 277.876557 
L 83.171864 276.823185 
L 84.464254 276.823185 
L 84.464254 273.663068 
L 85.66744 273.663068 
L 85.66744 269.449579 
L 86.792945 269.449579 
L 86.792945 267.342835 
L 87.850195 267.342835 
L 87.850195 265.762777 
L 90.684409 265.762777 
L 90.684409 265.236091 
L 91.535274 265.236091 
L 91.535274 263.656033 
L 92.34655 263.656033 
L 92.34655 262.60266 
L 95.259853 262.60266 
L 95.259853 262.075974 
L 100.934985 262.075974 
L 100.934985 259.442544 
L 102.772397 259.442544 
L 102.772397 257.862486 
L 103.623262 257.862486 
L 103.623262 257.3358 
L 106.66386 257.3358 
L 106.66386 256.809114 
L 107.009204 256.809114 
L 107.009204 255.229055 
L 108.640231 255.229055 
L 108.640231 254.702369 
L 110.131676 254.702369 
L 110.131676 254.175683 
L 110.968922 254.175683 
L 110.968922 252.595625 
L 111.239304 252.595625 
L 111.239304 251.015567 
L 111.767808 251.015567 
L 111.767808 249.962195 
L 112.280765 249.962195 
L 112.280765 249.435508 
L 113.26352 249.435508 
L 113.26352 248.908822 
L 113.500792 248.908822 
L 113.500792 247.85545 
L 113.73488 247.85545 
L 113.73488 247.328764 
L 114.193835 247.328764 
L 114.193835 245.22202 
L 114.641021 245.22202 
L 114.641021 244.695334 
L 114.860386 244.695334 
L 114.860386 244.168648 
L 115.502395 244.168648 
L 115.502395 242.588589 
L 115.711251 242.588589 
L 115.711251 238.901787 
L 115.917635 238.901787 
L 115.917635 237.321729 
L 117.107138 237.321729 
L 117.107138 236.795043 
L 117.486268 236.795043 
L 117.486268 236.268356 
L 118.039942 236.268356 
L 118.039942 235.214984 
L 118.576578 235.214984 
L 118.576578 234.161612 
L 118.751849 234.161612 
L 118.751849 233.10824 
L 119.097192 233.10824 
L 119.097192 232.054868 
L 119.43583 232.054868 
L 119.43583 231.001496 
L 119.931767 231.001496 
L 119.931767 229.948123 
L 120.883236 229.948123 
L 120.883236 229.421437 
L 122.219665 229.421437 
L 122.219665 228.894751 
L 123.725164 228.894751 
L 123.725164 228.368065 
L 123.855796 228.368065 
L 123.855796 226.788007 
L 123.985457 226.788007 
L 123.985457 223.627891 
L 124.114161 223.627891 
L 124.114161 220.467774 
L 124.241922 220.467774 
L 124.241922 219.941088 
L 124.368753 219.941088 
L 124.368753 217.834344 
L 124.494669 217.834344 
L 124.494669 217.307658 
L 125.822869 217.307658 
L 125.822869 216.780971 
L 126.3947 216.780971 
L 126.3947 215.727599 
L 126.618283 215.727599 
L 126.729009 213.094169 
L 127.695124 213.094169 
L 127.799239 211.514111 
L 129.002426 211.514111 
L 129.099042 194.660156 
L 129.385722 194.660156 
L 129.480244 192.553412 
L 129.667765 192.553412 
L 129.667765 190.446667 
L 129.853291 190.446667 
L 129.853291 185.706493 
L 130.036864 185.706493 
L 130.036864 185.179807 
L 130.398313 185.179807 
L 130.398313 184.126434 
L 130.576266 184.126434 
L 130.576266 183.073062 
L 131.523818 183.073062 
L 131.523818 182.01969 
L 132.101058 182.01969 
L 132.181982 171.485969 
L 133.04822 171.485969 
L 133.04822 170.432596 
L 133.201197 170.432596 
L 133.201197 169.90591 
L 133.72629 169.90591 
L 133.72629 168.325852 
L 134.450015 168.325852 
L 134.450015 167.799166 
L 134.7313 167.799166 
L 134.800918 166.219108 
L 134.870259 166.219108 
L 134.939326 160.425561 
L 135.144899 160.425561 
L 135.144899 158.318817 
L 135.548916 158.318817 
L 135.548916 140.938176 
L 136.202149 140.938176 
L 136.202149 137.778059 
L 136.32991 137.778059 
L 136.32991 136.198001 
L 136.519813 136.198001 
L 136.519813 135.671315 
L 136.769843 135.671315 
L 136.769843 125.66428 
L 137.016339 125.66428 
L 137.016339 124.610907 
L 137.138292 124.610907 
L 137.198951 123.557535 
L 137.968891 123.557535 
L 138.026733 121.450791 
L 138.369812 121.450791 
L 138.369812 120.924105 
L 138.927025 120.924105 
L 138.927025 113.023814 
L 139.625765 113.023814 
L 139.730821 103.543464 
L 140.042245 103.543464 
L 140.042245 103.016778 
L 140.549236 103.016778 
L 140.549236 102.490092 
L 140.944478 102.490092 
L 140.944478 101.963406 
L 141.426256 101.963406 
L 141.426256 101.43672 
L 141.895083 101.43672 
L 141.895083 100.910034 
L 142.215919 100.910034 
L 142.215919 98.803289 
L 142.486301 98.803289 
L 142.575505 95.116487 
L 142.840411 95.116487 
L 142.840411 94.063115 
L 143.569835 94.063115 
L 143.569835 91.95637 
L 144.06695 91.95637 
L 144.06695 90.902998 
L 145.020588 90.902998 
L 145.097753 88.796254 
L 145.212864 88.796254 
L 145.212864 87.742882 
L 145.703082 87.742882 
L 145.703082 86.68951 
L 146.324022 86.68951 
L 146.324022 86.162824 
L 146.714338 86.162824 
L 146.819289 77.735846 
L 147.835457 77.735846 
L 147.835457 70.362241 
L 147.96658 70.362241 
L 147.96658 69.835555 
L 148.48143 69.835555 
L 148.48143 61.935264 
L 148.607802 61.935264 
L 148.670646 59.301833 
L 148.733265 59.301833 
L 148.733265 58.248461 
L 149.012299 58.248461 
L 149.012299 57.195089 
L 149.134896 57.195089 
L 149.134896 48.768112 
L 150.085825 48.768112 
L 150.085825 48.241426 
L 150.457801 48.241426 
L 150.457801 46.661368 
L 150.626842 46.661368 
L 150.626842 46.134681 
L 150.960087 46.134681 
L 150.960087 45.607995 
L 151.124351 45.607995 
L 151.124351 45.081309 
L 152.052897 45.081309 
L 152.052897 37.707704 
L 152.612222 37.707704 
L 152.612222 37.181018 
L 153.081247 37.181018 
L 153.081247 35.60096 
L 153.371104 35.60096 
L 153.371104 34.547588 
L 153.49047 34.547588 
L 153.49047 34.020902 
L 154.19 34.020902 
L 154.19 32.967529 
L 154.349264 32.967529 
L 154.349264 32.440843 
L 154.551917 32.440843 
L 154.57429 30.334099 
L 338.688 30.334099 
L 338.688 30.334099 
" style="fill:none;stroke:#ff0000;stroke-linecap:square;stroke-width:1.5;"/>
   </g>
   <g id="line2d_48">
    <defs>
     <path d="M 0 -6 
L -5.196152 -3 
L -5.196152 3 
L -0 6 
L 5.196152 3 
L 5.196152 -3 
z
" id="m804968e72e" style="stroke:#ff0000;stroke-linejoin:miter;stroke-width:1.5;"/>
    </defs>
    <g>
     <use style="fill-opacity:0;stroke:#ff0000;stroke-linejoin:miter;stroke-width:1.5;" x="103.623262" xlink:href="#m804968e72e" y="257.862486"/>
     <use style="fill-opacity:0;stroke:#ff0000;stroke-linejoin:miter;stroke-width:1.5;" x="139.625765" xlink:href="#m804968e72e" y="113.023814"/>
     <use style="fill-opacity:0;stroke:#ff0000;stroke-linejoin:miter;stroke-width:1.5;" x="154.57429" xlink:href="#m804968e72e" y="31.914157"/>
     <use style="fill-opacity:0;stroke:#ff0000;stroke-linejoin:miter;stroke-width:1.5;" x="154.57429" xlink:href="#m804968e72e" y="30.334099"/>
     <use style="fill-opacity:0;stroke:#ff0000;stroke-linejoin:miter;stroke-width:1.5;" x="154.57429" xlink:href="#m804968e72e" y="30.334099"/>
     <use style="fill-opacity:0;stroke:#ff0000;stroke-linejoin:miter;stroke-width:1.5;" x="338.688" xlink:href="#m804968e72e" y="30.334099"/>
    </g>
   </g>
   <g id="line2d_49">
    <path style="fill:none;stroke:#ff0000;stroke-linecap:square;stroke-width:1.5;"/>
    <g/>
   </g>
   <g id="line2d_50">
    <defs>
     <path d="M 0 1.5 
C 0.397805 1.5 0.77937 1.341951 1.06066 1.06066 
C 1.341951 0.77937 1.5 0.397805 1.5 0 
C 1.5 -0.397805 1.341951 -0.77937 1.06066 -1.06066 
C 0.77937 -1.341951 0.397805 -1.5 0 -1.5 
C -0.397805 -1.5 -0.77937 -1.341951 -1.06066 -1.06066 
C -1.341951 -0.77937 -1.5 -0.397805 -1.5 0 
C -1.5 0.397805 -1.341951 0.77937 -1.06066 1.06066 
C -0.77937 1.341951 -0.397805 1.5 0 1.5 
z
" id="md5917d808e" style="stroke:#ff7500;"/>
    </defs>
    <g>
     <use style="fill:#ff7500;stroke:#ff7500;" x="157.050478" xlink:href="#md5917d808e" y="30.334099"/>
     <use style="fill:#ff7500;stroke:#ff7500;" x="157.050478" xlink:href="#md5917d808e" y="30.334099"/>
    </g>
   </g>
   <g id="line2d_51">
    <path d="M 38.440992 298.944 
L 38.440992 292.097081 
L 50.52898 292.097081 
L 50.52898 288.936964 
L 57.6 288.936964 
L 57.6 286.303534 
L 62.616969 286.303534 
L 62.616969 285.776848 
L 66.508432 285.776848 
L 66.508432 283.143418 
L 69.687988 283.143418 
L 69.687988 282.090045 
L 72.376266 282.090045 
L 72.376266 277.876557 
L 74.704957 277.876557 
L 74.704957 275.769812 
L 80.258561 275.769812 
L 80.258561 273.663068 
L 81.775977 273.663068 
L 81.775977 272.08301 
L 83.171864 272.08301 
L 83.171864 271.556324 
L 84.464254 271.556324 
L 84.464254 270.502952 
L 85.66744 270.502952 
L 85.66744 269.449579 
L 87.850195 269.449579 
L 87.850195 267.869521 
L 89.78989 267.869521 
L 89.78989 264.182719 
L 90.684409 264.182719 
L 90.684409 263.129347 
L 91.535274 263.129347 
L 91.535274 261.549288 
L 93.863965 261.549288 
L 93.863965 259.96923 
L 94.575872 259.96923 
L 94.575872 258.389172 
L 96.552242 258.389172 
L 96.552242 256.809114 
L 98.880934 256.809114 
L 98.880934 256.282427 
L 101.412804 256.282427 
L 101.412804 255.229055 
L 101.877879 255.229055 
L 101.877879 251.542253 
L 102.772397 251.542253 
L 102.772397 250.488881 
L 103.203018 250.488881 
L 103.203018 249.435508 
L 104.033617 249.435508 
L 104.033617 248.908822 
L 106.311539 248.908822 
L 106.311539 246.802078 
L 106.66386 246.802078 
L 106.66386 246.275392 
L 110.131676 246.275392 
L 110.131676 245.748706 
L 110.415248 245.748706 
L 110.415248 244.695334 
L 110.968922 244.695334 
L 110.968922 244.168648 
L 111.239304 244.168648 
L 111.239304 243.115275 
L 111.505558 243.115275 
L 111.505558 242.588589 
L 112.026172 242.588589 
L 112.026172 241.008531 
L 113.500792 241.008531 
L 113.500792 238.901787 
L 114.641021 238.901787 
L 114.641021 238.375101 
L 115.077025 238.375101 
L 115.077025 237.848415 
L 115.291007 237.848415 
L 115.291007 236.795043 
L 116.121606 236.795043 
L 116.121606 236.268356 
L 116.914437 236.268356 
L 116.914437 235.74167 
L 117.107138 235.74167 
L 117.107138 235.214984 
L 118.751849 235.214984 
L 118.751849 234.688298 
L 120.093994 234.688298 
L 120.093994 234.161612 
L 120.571812 234.161612 
L 120.571812 233.10824 
L 121.189196 233.10824 
L 121.189196 232.054868 
L 121.638301 232.054868 
L 121.638301 229.948123 
L 121.785469 229.948123 
L 121.785469 228.894751 
L 121.931406 228.894751 
L 121.931406 227.841379 
L 122.643312 227.841379 
L 122.643312 227.314693 
L 122.782271 227.314693 
L 122.782271 226.261321 
L 123.192626 226.261321 
L 123.192626 225.207949 
L 124.114161 225.207949 
L 124.114161 224.681263 
L 124.368753 224.681263 
L 124.368753 224.154577 
L 124.989434 224.154577 
L 124.989434 220.467774 
L 125.110962 220.467774 
L 125.110962 219.941088 
L 125.23165 219.941088 
L 125.23165 219.414402 
L 125.470548 219.414402 
L 125.470548 209.934052 
L 125.588781 209.934052 
L 125.588781 209.407366 
L 125.706218 209.407366 
L 125.706218 208.88068 
L 126.053856 208.88068 
L 126.053856 208.353994 
L 126.3947 208.353994 
L 126.3947 206.24725 
L 126.839037 206.24725 
L 126.948374 204.140506 
L 127.05703 204.140506 
L 127.05703 202.033761 
L 127.272333 202.033761 
L 127.272333 200.980389 
L 127.799239 200.980389 
L 127.902737 198.873645 
L 128.905271 198.873645 
L 128.905271 198.346959 
L 129.099042 198.346959 
L 129.099042 187.286551 
L 129.385722 187.286551 
L 129.480244 183.599748 
L 129.574256 183.599748 
L 129.574256 176.226143 
L 129.853291 176.226143 
L 129.853291 175.699457 
L 130.218525 175.699457 
L 130.218525 160.952247 
L 130.487516 160.952247 
L 130.487516 152.52527 
L 130.664567 152.52527 
L 130.664567 140.41149 
L 130.926816 140.41149 
L 131.013364 138.831432 
L 131.355321 138.831432 
L 131.439773 134.617943 
L 132.019755 134.617943 
L 132.019755 134.091257 
L 132.262533 134.091257 
L 132.262533 131.984513 
L 132.893889 131.984513 
L 132.893889 131.457826 
L 133.201197 131.457826 
L 133.277185 110.917069 
L 133.428175 110.917069 
L 133.428175 101.43672 
L 134.091907 101.43672 
L 134.091907 100.383348 
L 134.236034 100.383348 
L 134.236034 99.329976 
L 134.37898 99.329976 
L 134.37898 91.429684 
L 134.591225 91.429684 
L 134.661403 90.376312 
L 135.212889 90.376312 
L 135.280614 88.796254 
L 136.32991 88.796254 
L 136.32991 80.895963 
L 136.645276 80.895963 
L 136.645276 78.262532 
L 136.769843 78.262532 
L 136.831795 76.155788 
L 136.955041 76.155788 
L 136.955041 75.629102 
L 137.319638 75.629102 
L 137.319638 75.102416 
L 138.816998 75.102416 
L 138.872098 74.049044 
L 139.145019 74.049044 
L 139.145019 73.522358 
L 139.360321 73.522358 
L 139.360321 71.942299 
L 139.730821 71.942299 
L 139.730821 70.362241 
L 140.144829 70.362241 
L 140.144829 69.835555 
L 140.39868 69.835555 
L 140.39868 69.308869 
L 144.269971 69.308869 
L 144.269971 67.728811 
L 150.05688 67.728811 
L 150.143571 59.82852 
L 151.660987 59.82852 
L 151.660987 58.775147 
L 151.949246 58.775147 
L 151.949246 58.248461 
L 152.511852 58.248461 
L 152.511852 57.721775 
L 153.105587 57.721775 
L 153.105587 56.668403 
L 153.395042 56.668403 
L 153.418948 54.561659 
L 153.726778 54.561659 
L 153.79705 46.134681 
L 154.029268 46.134681 
L 154.029268 37.707704 
L 154.212841 37.707704 
L 154.303908 34.547588 
L 154.371897 34.547588 
L 154.371897 32.967529 
L 154.906477 32.967529 
L 154.906477 31.914157 
L 156.45859 31.914157 
L 156.45859 31.387471 
L 157.050478 31.387471 
L 157.050478 30.334099 
L 338.688 30.334099 
L 338.688 30.334099 
" style="fill:none;stroke:#ff7500;stroke-linecap:square;stroke-width:1.5;"/>
   </g>
   <g id="line2d_52">
    <defs>
     <path d="M 0 -6 
L -1.347084 -1.854102 
L -5.706339 -1.854102 
L -2.179628 0.708204 
L -3.526712 4.854102 
L -0 2.291796 
L 3.526712 4.854102 
L 2.179628 0.708204 
L 5.706339 -1.854102 
L 1.347084 -1.854102 
z
" id="mfafe15b9d2" style="stroke:#ff7500;stroke-linejoin:bevel;stroke-width:1.5;"/>
    </defs>
    <g>
     <use style="fill-opacity:0;stroke:#ff7500;stroke-linejoin:bevel;stroke-width:1.5;" x="101.412804" xlink:href="#mfafe15b9d2" y="255.229055"/>
     <use style="fill-opacity:0;stroke:#ff7500;stroke-linejoin:bevel;stroke-width:1.5;" x="139.145019" xlink:href="#mfafe15b9d2" y="73.522358"/>
     <use style="fill-opacity:0;stroke:#ff7500;stroke-linejoin:bevel;stroke-width:1.5;" x="157.050478" xlink:href="#mfafe15b9d2" y="31.387471"/>
     <use style="fill-opacity:0;stroke:#ff7500;stroke-linejoin:bevel;stroke-width:1.5;" x="157.050478" xlink:href="#mfafe15b9d2" y="30.334099"/>
     <use style="fill-opacity:0;stroke:#ff7500;stroke-linejoin:bevel;stroke-width:1.5;" x="157.050478" xlink:href="#mfafe15b9d2" y="30.334099"/>
     <use style="fill-opacity:0;stroke:#ff7500;stroke-linejoin:bevel;stroke-width:1.5;" x="338.688" xlink:href="#mfafe15b9d2" y="30.334099"/>
    </g>
   </g>
   <g id="line2d_53">
    <path style="fill:none;stroke:#ff7500;stroke-linecap:square;stroke-width:1.5;"/>
    <g/>
   </g>
   <g id="line2d_54">
    <path d="M 338.688 30.334099 
L 369.60768 293.571802 
" style="fill:none;stroke:#ff00ff;stroke-linecap:square;stroke-width:1.5;"/>
    <g>
     <use style="fill-opacity:0;stroke:#ff00ff;stroke-linejoin:miter;stroke-width:1.5;" x="338.688" xlink:href="#m3d9c56f59a" y="30.334099"/>
     <use style="fill-opacity:0;stroke:#ff00ff;stroke-linejoin:miter;stroke-width:1.5;" x="369.60768" xlink:href="#m3d9c56f59a" y="293.571802"/>
    </g>
   </g>
   <g id="line2d_55">
    <path d="M 338.688 30.334099 
L 369.60768 241.998701 
" style="fill:none;stroke:#ff7500;stroke-linecap:square;stroke-width:1.5;"/>
    <g>
     <use style="fill-opacity:0;stroke:#ff7500;stroke-linejoin:bevel;stroke-width:1.5;" x="338.688" xlink:href="#mfafe15b9d2" y="30.334099"/>
     <use style="fill-opacity:0;stroke:#ff7500;stroke-linejoin:bevel;stroke-width:1.5;" x="369.60768" xlink:href="#mfafe15b9d2" y="241.998701"/>
    </g>
   </g>
   <g id="line2d_56">
    <path d="M 338.688 30.334099 
L 369.60768 190.4256 
" style="fill:none;stroke:#000080;stroke-linecap:square;stroke-width:1.5;"/>
    <g>
     <use style="fill-opacity:0;stroke:#000080;stroke-width:1.5;" x="338.688" xlink:href="#m3e49a48441" y="30.334099"/>
     <use style="fill-opacity:0;stroke:#000080;stroke-width:1.5;" x="369.60768" xlink:href="#m3e49a48441" y="190.4256"/>
    </g>
   </g>
   <g id="line2d_57">
    <path d="M 338.688 30.334099 
L 369.60768 138.852499 
" style="fill:none;stroke:#000080;stroke-linecap:square;stroke-width:1.5;"/>
    <g>
     <use style="fill-opacity:0;stroke:#000080;stroke-width:1.5;" x="338.688" xlink:href="#m3e49a48441" y="30.334099"/>
     <use style="fill-opacity:0;stroke:#000080;stroke-width:1.5;" x="369.60768" xlink:href="#m3e49a48441" y="138.852499"/>
    </g>
   </g>
   <g id="line2d_58">
    <path d="M 338.688 30.334099 
L 369.60768 87.279398 
" style="fill:none;stroke:#ff0000;stroke-linecap:square;stroke-width:1.5;"/>
    <g>
     <use style="fill-opacity:0;stroke:#ff0000;stroke-linejoin:miter;stroke-width:1.5;" x="338.688" xlink:href="#m804968e72e" y="30.334099"/>
     <use style="fill-opacity:0;stroke:#ff0000;stroke-linejoin:miter;stroke-width:1.5;" x="369.60768" xlink:href="#m804968e72e" y="87.279398"/>
    </g>
   </g>
   <g id="line2d_59">
    <path d="M 338.688 298.944 
L 338.688 30.334099 
" style="fill:none;stroke:#000000;stroke-linecap:square;stroke-width:1.5;"/>
   </g>
   <g id="patch_3">
    <path d="M 57.6 298.944 
L 57.6 27.648 
" style="fill:none;stroke:#000000;stroke-linecap:square;stroke-linejoin:miter;stroke-width:0.8;"/>
   </g>
   <g id="patch_4">
    <path d="M 338.688 298.944 
L 338.688 27.648 
" style="fill:none;stroke:#000000;stroke-linecap:square;stroke-linejoin:miter;stroke-width:0.8;"/>
   </g>
   <g id="patch_5">
    <path d="M 57.6 298.944 
L 338.688 298.944 
" style="fill:none;stroke:#000000;stroke-linecap:square;stroke-linejoin:miter;stroke-width:0.8;"/>
   </g>
   <g id="patch_6">
    <path d="M 57.6 27.648 
L 338.688 27.648 
" style="fill:none;stroke:#000000;stroke-linecap:square;stroke-linejoin:miter;stroke-width:0.8;"/>
   </g>
   <g id="text_13">
    <!-- 025s-2e4 -->
    <defs>
     <path d="M 10.796875 72.90625 
L 49.515625 72.90625 
L 49.515625 64.59375 
L 19.828125 64.59375 
L 19.828125 46.734375 
Q 21.96875 47.46875 24.109375 47.828125 
Q 26.265625 48.1875 28.421875 48.1875 
Q 40.625 48.1875 47.75 41.5 
Q 54.890625 34.8125 54.890625 23.390625 
Q 54.890625 11.625 47.5625 5.09375 
Q 40.234375 -1.421875 26.90625 -1.421875 
Q 22.3125 -1.421875 17.546875 -0.640625 
Q 12.796875 0.140625 7.71875 1.703125 
L 7.71875 11.625 
Q 12.109375 9.234375 16.796875 8.0625 
Q 21.484375 6.890625 26.703125 6.890625 
Q 35.15625 6.890625 40.078125 11.328125 
Q 45.015625 15.765625 45.015625 23.390625 
Q 45.015625 31 40.078125 35.4375 
Q 35.15625 39.890625 26.703125 39.890625 
Q 22.75 39.890625 18.8125 39.015625 
Q 14.890625 38.140625 10.796875 36.28125 
z
" id="DejaVuSans-53"/>
    </defs>
    <g transform="translate(375.22944 298.262739)scale(0.17 -0.17)">
     <use xlink:href="#DejaVuSans-48"/>
     <use x="63.623047" xlink:href="#DejaVuSans-50"/>
     <use x="127.246094" xlink:href="#DejaVuSans-53"/>
     <use x="190.869141" xlink:href="#DejaVuSans-115"/>
     <use x="242.96875" xlink:href="#DejaVuSans-45"/>
     <use x="279.052734" xlink:href="#DejaVuSans-50"/>
     <use x="342.675781" xlink:href="#DejaVuSans-101"/>
     <use x="404.199219" xlink:href="#DejaVuSans-52"/>
    </g>
   </g>
   <g id="text_14">
    <!-- 075s-2e4 -->
    <defs>
     <path d="M 8.203125 72.90625 
L 55.078125 72.90625 
L 55.078125 68.703125 
L 28.609375 0 
L 18.3125 0 
L 43.21875 64.59375 
L 8.203125 64.59375 
z
" id="DejaVuSans-55"/>
    </defs>
    <g transform="translate(375.22944 246.689638)scale(0.17 -0.17)">
     <use xlink:href="#DejaVuSans-48"/>
     <use x="63.623047" xlink:href="#DejaVuSans-55"/>
     <use x="127.246094" xlink:href="#DejaVuSans-53"/>
     <use x="190.869141" xlink:href="#DejaVuSans-115"/>
     <use x="242.96875" xlink:href="#DejaVuSans-45"/>
     <use x="279.052734" xlink:href="#DejaVuSans-50"/>
     <use x="342.675781" xlink:href="#DejaVuSans-101"/>
     <use x="404.199219" xlink:href="#DejaVuSans-52"/>
    </g>
   </g>
   <g id="text_15">
    <!-- 100-1e5 -->
    <g transform="translate(375.22944 195.116537)scale(0.17 -0.17)">
     <use xlink:href="#DejaVuSans-49"/>
     <use x="63.623047" xlink:href="#DejaVuSans-48"/>
     <use x="127.246094" xlink:href="#DejaVuSans-48"/>
     <use x="190.869141" xlink:href="#DejaVuSans-45"/>
     <use x="226.953125" xlink:href="#DejaVuSans-49"/>
     <use x="290.576172" xlink:href="#DejaVuSans-101"/>
     <use x="352.099609" xlink:href="#DejaVuSans-53"/>
    </g>
   </g>
   <g id="text_16">
    <!-- 100-2e4 -->
    <g transform="translate(375.22944 143.543437)scale(0.17 -0.17)">
     <use xlink:href="#DejaVuSans-49"/>
     <use x="63.623047" xlink:href="#DejaVuSans-48"/>
     <use x="127.246094" xlink:href="#DejaVuSans-48"/>
     <use x="190.869141" xlink:href="#DejaVuSans-45"/>
     <use x="226.953125" xlink:href="#DejaVuSans-50"/>
     <use x="290.576172" xlink:href="#DejaVuSans-101"/>
     <use x="352.099609" xlink:href="#DejaVuSans-52"/>
    </g>
   </g>
   <g id="text_17">
    <!-- 050s-2e4 -->
    <g transform="translate(375.22944 91.970336)scale(0.17 -0.17)">
     <use xlink:href="#DejaVuSans-48"/>
     <use x="63.623047" xlink:href="#DejaVuSans-53"/>
     <use x="127.246094" xlink:href="#DejaVuSans-48"/>
     <use x="190.869141" xlink:href="#DejaVuSans-115"/>
     <use x="242.96875" xlink:href="#DejaVuSans-45"/>
     <use x="279.052734" xlink:href="#DejaVuSans-50"/>
     <use x="342.675781" xlink:href="#DejaVuSans-101"/>
     <use x="404.199219" xlink:href="#DejaVuSans-52"/>
    </g>
   </g>
   <g id="text_18">
    <!-- best 2009 -->
    <defs>
     <path d="M 48.6875 27.296875 
Q 48.6875 37.203125 44.609375 42.84375 
Q 40.53125 48.484375 33.40625 48.484375 
Q 26.265625 48.484375 22.1875 42.84375 
Q 18.109375 37.203125 18.109375 27.296875 
Q 18.109375 17.390625 22.1875 11.75 
Q 26.265625 6.109375 33.40625 6.109375 
Q 40.53125 6.109375 44.609375 11.75 
Q 48.6875 17.390625 48.6875 27.296875 
z
M 18.109375 46.390625 
Q 20.953125 51.265625 25.265625 53.625 
Q 29.59375 56 35.59375 56 
Q 45.5625 56 51.78125 48.09375 
Q 58.015625 40.1875 58.015625 27.296875 
Q 58.015625 14.40625 51.78125 6.484375 
Q 45.5625 -1.421875 35.59375 -1.421875 
Q 29.59375 -1.421875 25.265625 0.953125 
Q 20.953125 3.328125 18.109375 8.203125 
L 18.109375 0 
L 9.078125 0 
L 9.078125 75.984375 
L 18.109375 75.984375 
z
" id="DejaVuSans-98"/>
     <path d="M 10.984375 1.515625 
L 10.984375 10.5 
Q 14.703125 8.734375 18.5 7.8125 
Q 22.3125 6.890625 25.984375 6.890625 
Q 35.75 6.890625 40.890625 13.453125 
Q 46.046875 20.015625 46.78125 33.40625 
Q 43.953125 29.203125 39.59375 26.953125 
Q 35.25 24.703125 29.984375 24.703125 
Q 19.046875 24.703125 12.671875 31.3125 
Q 6.296875 37.9375 6.296875 49.421875 
Q 6.296875 60.640625 12.9375 67.421875 
Q 19.578125 74.21875 30.609375 74.21875 
Q 43.265625 74.21875 49.921875 64.515625 
Q 56.59375 54.828125 56.59375 36.375 
Q 56.59375 19.140625 48.40625 8.859375 
Q 40.234375 -1.421875 26.421875 -1.421875 
Q 22.703125 -1.421875 18.890625 -0.6875 
Q 15.09375 0.046875 10.984375 1.515625 
z
M 30.609375 32.421875 
Q 37.25 32.421875 41.125 36.953125 
Q 45.015625 41.5 45.015625 49.421875 
Q 45.015625 57.28125 41.125 61.84375 
Q 37.25 66.40625 30.609375 66.40625 
Q 23.96875 66.40625 20.09375 61.84375 
Q 16.21875 57.28125 16.21875 49.421875 
Q 16.21875 41.5 20.09375 36.953125 
Q 23.96875 32.421875 30.609375 32.421875 
z
" id="DejaVuSans-57"/>
    </defs>
    <g transform="translate(375.22944 40.397235)scale(0.17 -0.17)">
     <use xlink:href="#DejaVuSans-98"/>
     <use x="63.476562" xlink:href="#DejaVuSans-101"/>
     <use x="125" xlink:href="#DejaVuSans-115"/>
     <use x="177.099609" xlink:href="#DejaVuSans-116"/>
     <use x="216.308594" xlink:href="#DejaVuSans-32"/>
     <use x="248.095703" xlink:href="#DejaVuSans-50"/>
     <use x="311.71875" xlink:href="#DejaVuSans-48"/>
     <use x="375.341797" xlink:href="#DejaVuSans-48"/>
     <use x="438.964844" xlink:href="#DejaVuSans-57"/>
    </g>
   </g>
   <g id="text_19">
    <!-- bbob f7, 3-D -->
    <defs>
     <path d="M 40.578125 39.3125 
Q 47.65625 37.796875 51.625 33 
Q 55.609375 28.21875 55.609375 21.1875 
Q 55.609375 10.40625 48.1875 4.484375 
Q 40.765625 -1.421875 27.09375 -1.421875 
Q 22.515625 -1.421875 17.65625 -0.515625 
Q 12.796875 0.390625 7.625 2.203125 
L 7.625 11.71875 
Q 11.71875 9.328125 16.59375 8.109375 
Q 21.484375 6.890625 26.8125 6.890625 
Q 36.078125 6.890625 40.9375 10.546875 
Q 45.796875 14.203125 45.796875 21.1875 
Q 45.796875 27.640625 41.28125 31.265625 
Q 36.765625 34.90625 28.71875 34.90625 
L 20.21875 34.90625 
L 20.21875 43.015625 
L 29.109375 43.015625 
Q 36.375 43.015625 40.234375 45.921875 
Q 44.09375 48.828125 44.09375 54.296875 
Q 44.09375 59.90625 40.109375 62.90625 
Q 36.140625 65.921875 28.71875 65.921875 
Q 24.65625 65.921875 20.015625 65.03125 
Q 15.375 64.15625 9.8125 62.3125 
L 9.8125 71.09375 
Q 15.4375 72.65625 20.34375 73.4375 
Q 25.25 74.21875 29.59375 74.21875 
Q 40.828125 74.21875 47.359375 69.109375 
Q 53.90625 64.015625 53.90625 55.328125 
Q 53.90625 49.265625 50.4375 45.09375 
Q 46.96875 40.921875 40.578125 39.3125 
z
" id="DejaVuSans-51"/>
     <path d="M 19.671875 64.796875 
L 19.671875 8.109375 
L 31.59375 8.109375 
Q 46.6875 8.109375 53.6875 14.9375 
Q 60.6875 21.78125 60.6875 36.53125 
Q 60.6875 51.171875 53.6875 57.984375 
Q 46.6875 64.796875 31.59375 64.796875 
z
M 9.8125 72.90625 
L 30.078125 72.90625 
Q 51.265625 72.90625 61.171875 64.09375 
Q 71.09375 55.28125 71.09375 36.53125 
Q 71.09375 17.671875 61.125 8.828125 
Q 51.171875 0 30.078125 0 
L 9.8125 0 
z
" id="DejaVuSans-68"/>
    </defs>
    <g transform="translate(60.41088 38.111366)scale(0.102 -0.102)">
     <use xlink:href="#DejaVuSans-98"/>
     <use x="63.476562" xlink:href="#DejaVuSans-98"/>
     <use x="126.953125" xlink:href="#DejaVuSans-111"/>
     <use x="188.134766" xlink:href="#DejaVuSans-98"/>
     <use x="251.611328" xlink:href="#DejaVuSans-32"/>
     <use x="283.398438" xlink:href="#DejaVuSans-102"/>
     <use x="318.603516" xlink:href="#DejaVuSans-55"/>
     <use x="382.226562" xlink:href="#DejaVuSans-44"/>
     <use x="414.013672" xlink:href="#DejaVuSans-32"/>
     <use x="445.800781" xlink:href="#DejaVuSans-51"/>
     <use x="509.423828" xlink:href="#DejaVuSans-45"/>
     <use x="545.507812" xlink:href="#DejaVuSans-68"/>
    </g>
    <!-- 51 targets: 100..1e-08 -->
    <defs>
     <path d="M 11.71875 12.40625 
L 22.015625 12.40625 
L 22.015625 0 
L 11.71875 0 
z
M 11.71875 51.703125 
L 22.015625 51.703125 
L 22.015625 39.3125 
L 11.71875 39.3125 
z
" id="DejaVuSans-58"/>
    </defs>
    <g transform="translate(60.41088 49.533135)scale(0.102 -0.102)">
     <use xlink:href="#DejaVuSans-53"/>
     <use x="63.623047" xlink:href="#DejaVuSans-49"/>
     <use x="127.246094" xlink:href="#DejaVuSans-32"/>
     <use x="159.033203" xlink:href="#DejaVuSans-116"/>
     <use x="198.242188" xlink:href="#DejaVuSans-97"/>
     <use x="259.521484" xlink:href="#DejaVuSans-114"/>
     <use x="300.619141" xlink:href="#DejaVuSans-103"/>
     <use x="364.095703" xlink:href="#DejaVuSans-101"/>
     <use x="425.619141" xlink:href="#DejaVuSans-116"/>
     <use x="464.828125" xlink:href="#DejaVuSans-115"/>
     <use x="516.927734" xlink:href="#DejaVuSans-58"/>
     <use x="550.619141" xlink:href="#DejaVuSans-32"/>
     <use x="582.40625" xlink:href="#DejaVuSans-49"/>
     <use x="646.029297" xlink:href="#DejaVuSans-48"/>
     <use x="709.652344" xlink:href="#DejaVuSans-48"/>
     <use x="773.275391" xlink:href="#DejaVuSans-46"/>
     <use x="805.0625" xlink:href="#DejaVuSans-46"/>
     <use x="836.849609" xlink:href="#DejaVuSans-49"/>
     <use x="900.472656" xlink:href="#DejaVuSans-101"/>
     <use x="961.996094" xlink:href="#DejaVuSans-45"/>
     <use x="998.080078" xlink:href="#DejaVuSans-48"/>
     <use x="1061.703125" xlink:href="#DejaVuSans-56"/>
    </g>
    <!-- 15 instances -->
    <g transform="translate(60.41088 60.954904)scale(0.102 -0.102)">
     <use xlink:href="#DejaVuSans-49"/>
     <use x="63.623047" xlink:href="#DejaVuSans-53"/>
     <use x="127.246094" xlink:href="#DejaVuSans-32"/>
     <use x="159.033203" xlink:href="#DejaVuSans-105"/>
     <use x="186.816406" xlink:href="#DejaVuSans-110"/>
     <use x="250.195312" xlink:href="#DejaVuSans-115"/>
     <use x="302.294922" xlink:href="#DejaVuSans-116"/>
     <use x="341.503906" xlink:href="#DejaVuSans-97"/>
     <use x="402.783203" xlink:href="#DejaVuSans-110"/>
     <use x="466.162109" xlink:href="#DejaVuSans-99"/>
     <use x="521.142578" xlink:href="#DejaVuSans-101"/>
     <use x="582.666016" xlink:href="#DejaVuSans-115"/>
    </g>
   </g>
   <g id="text_20">
    <!-- v2.3.3.18.73 -->
    <g style="fill:#808080;" transform="translate(166.559625 294.151352)scale(0.1 -0.1)">
     <use xlink:href="#DejaVuSans-118"/>
     <use x="59.179688" xlink:href="#DejaVuSans-50"/>
     <use x="122.802734" xlink:href="#DejaVuSans-46"/>
     <use x="154.589844" xlink:href="#DejaVuSans-51"/>
     <use x="218.212891" xlink:href="#DejaVuSans-46"/>
     <use x="250" xlink:href="#DejaVuSans-51"/>
     <use x="313.623047" xlink:href="#DejaVuSans-46"/>
     <use x="345.410156" xlink:href="#DejaVuSans-49"/>
     <use x="409.033203" xlink:href="#DejaVuSans-56"/>
     <use x="472.65625" xlink:href="#DejaVuSans-46"/>
     <use x="504.443359" xlink:href="#DejaVuSans-55"/>
     <use x="568.066406" xlink:href="#DejaVuSans-51"/>
    </g>
   </g>
   <g id="text_21">
    <!-- 7 Step-ellipsoid -->
    <defs>
     <path d="M 53.515625 70.515625 
L 53.515625 60.890625 
Q 47.90625 63.578125 42.921875 64.890625 
Q 37.9375 66.21875 33.296875 66.21875 
Q 25.25 66.21875 20.875 63.09375 
Q 16.5 59.96875 16.5 54.203125 
Q 16.5 49.359375 19.40625 46.890625 
Q 22.3125 44.4375 30.421875 42.921875 
L 36.375 41.703125 
Q 47.40625 39.59375 52.65625 34.296875 
Q 57.90625 29 57.90625 20.125 
Q 57.90625 9.515625 50.796875 4.046875 
Q 43.703125 -1.421875 29.984375 -1.421875 
Q 24.8125 -1.421875 18.96875 -0.25 
Q 13.140625 0.921875 6.890625 3.21875 
L 6.890625 13.375 
Q 12.890625 10.015625 18.65625 8.296875 
Q 24.421875 6.59375 29.984375 6.59375 
Q 38.421875 6.59375 43.015625 9.90625 
Q 47.609375 13.234375 47.609375 19.390625 
Q 47.609375 24.75 44.3125 27.78125 
Q 41.015625 30.8125 33.5 32.328125 
L 27.484375 33.5 
Q 16.453125 35.6875 11.515625 40.375 
Q 6.59375 45.0625 6.59375 53.421875 
Q 6.59375 63.09375 13.40625 68.65625 
Q 20.21875 74.21875 32.171875 74.21875 
Q 37.3125 74.21875 42.625 73.28125 
Q 47.953125 72.359375 53.515625 70.515625 
z
" id="DejaVuSans-83"/>
    </defs>
    <g transform="translate(120.934625 21.648)scale(0.2 -0.2)">
     <use xlink:href="#DejaVuSans-55"/>
     <use x="63.623047" xlink:href="#DejaVuSans-32"/>
     <use x="95.410156" xlink:href="#DejaVuSans-83"/>
     <use x="158.886719" xlink:href="#DejaVuSans-116"/>
     <use x="198.095703" xlink:href="#DejaVuSans-101"/>
     <use x="259.619141" xlink:href="#DejaVuSans-112"/>
     <use x="323.095703" xlink:href="#DejaVuSans-45"/>
     <use x="359.179688" xlink:href="#DejaVuSans-101"/>
     <use x="420.703125" xlink:href="#DejaVuSans-108"/>
     <use x="448.486328" xlink:href="#DejaVuSans-108"/>
     <use x="476.269531" xlink:href="#DejaVuSans-105"/>
     <use x="504.052734" xlink:href="#DejaVuSans-112"/>
     <use x="567.529297" xlink:href="#DejaVuSans-115"/>
     <use x="619.628906" xlink:href="#DejaVuSans-111"/>
     <use x="680.810547" xlink:href="#DejaVuSans-105"/>
     <use x="708.59375" xlink:href="#DejaVuSans-100"/>
    </g>
   </g>
  </g>
 </g>
 <defs>
  <clipPath id="p00fbbd8676">
   <rect height="271.296" width="281.088" x="57.6" y="27.648"/>
  </clipPath>
 </defs>
</svg>
