<?xml version="1.0" encoding="utf-8" standalone="no"?>
<!DOCTYPE svg PUBLIC "-//W3C//DTD SVG 1.1//EN"
  "http://www.w3.org/Graphics/SVG/1.1/DTD/svg11.dtd">
<!-- Created with matplotlib (https://matplotlib.org/) -->
<svg height="345.6pt" version="1.1" viewBox="0 0 460.8 345.6" width="460.8pt" xmlns="http://www.w3.org/2000/svg" xmlns:xlink="http://www.w3.org/1999/xlink">
 <defs>
  <style type="text/css">
*{stroke-linecap:butt;stroke-linejoin:round;}
  </style>
 </defs>
 <g id="figure_1">
  <g id="patch_1">
   <path d="M 0 345.6 
L 460.8 345.6 
L 460.8 0 
L 0 0 
z
" style="fill:#ffffff;"/>
  </g>
  <g id="axes_1">
   <g id="patch_2">
    <path d="M 57.6 298.944 
L 338.688 298.944 
L 338.688 27.648 
L 57.6 27.648 
z
" style="fill:#ffffff;"/>
   </g>
   <g id="line2d_1">
    <path d="M 117.231262 298.944 
L 117.231262 293.677139 
L 120.689249 293.677139 
L 120.689249 288.410278 
L 124.368753 288.410278 
L 124.368753 283.143418 
L 132.818154 283.143418 
L 132.818154 277.876557 
L 146.804459 277.876557 
L 146.804459 272.609696 
L 155.066967 272.609696 
L 155.066967 267.342835 
L 157.432298 267.342835 
L 157.432298 262.075974 
L 159.476858 262.075974 
L 159.476858 256.809114 
L 160.854038 256.809114 
L 160.854038 251.542253 
L 162.030064 251.542253 
L 162.030064 246.275392 
L 163.984199 246.275392 
L 163.984199 241.008531 
L 174.596403 241.008531 
L 174.596403 235.74167 
L 176.637269 235.74167 
L 176.637269 230.47481 
L 177.173603 230.47481 
L 177.173603 225.207949 
L 177.773034 225.207949 
L 177.773034 219.941088 
L 178.512638 219.941088 
L 178.512638 214.674227 
L 179.344126 214.674227 
L 179.344126 209.407366 
L 185.891573 209.407366 
L 185.891573 204.140506 
L 186.270711 204.140506 
L 186.270711 198.873645 
L 186.605216 198.873645 
L 186.605216 193.606784 
L 186.876958 193.606784 
L 186.876958 72.468985 
L 187.137535 72.468985 
L 187.137535 67.202125 
L 187.289259 67.202125 
L 187.289259 61.935264 
L 187.357208 61.935264 
L 187.357208 56.668403 
L 187.620088 56.668403 
L 187.620088 51.401542 
L 187.762688 51.401542 
L 187.762688 46.134681 
L 187.86341 46.134681 
L 187.86341 40.867821 
L 188.001083 40.867821 
L 188.001083 35.60096 
L 188.023512 35.60096 
L 188.023512 30.334099 
L 338.688 30.334099 
" style="fill:none;stroke:#f5deb3;stroke-linecap:square;stroke-width:4;"/>
   </g>
   <g id="line2d_2">
    <defs>
     <path d="M -0 7.778175 
L 7.778175 0 
L 0 -7.778175 
L -7.778175 -0 
z
" id="m6b542c6e7f" style="stroke:#f5deb3;stroke-linejoin:miter;stroke-width:1.5;"/>
    </defs>
    <g>
     <use style="fill:#f5deb3;stroke:#f5deb3;stroke-linejoin:miter;stroke-width:1.5;" x="186.605216" xlink:href="#m6b542c6e7f" y="198.873645"/>
     <use style="fill:#f5deb3;stroke:#f5deb3;stroke-linejoin:miter;stroke-width:1.5;" x="187.620088" xlink:href="#m6b542c6e7f" y="56.668403"/>
     <use style="fill:#f5deb3;stroke:#f5deb3;stroke-linejoin:miter;stroke-width:1.5;" x="188.023512" xlink:href="#m6b542c6e7f" y="30.334099"/>
     <use style="fill:#f5deb3;stroke:#f5deb3;stroke-linejoin:miter;stroke-width:1.5;" x="188.023512" xlink:href="#m6b542c6e7f" y="30.334099"/>
     <use style="fill:#f5deb3;stroke:#f5deb3;stroke-linejoin:miter;stroke-width:1.5;" x="338.688" xlink:href="#m6b542c6e7f" y="30.334099"/>
    </g>
   </g>
   <g id="line2d_3">
    <path style="fill:none;stroke:#f5deb3;stroke-linecap:square;stroke-width:4;"/>
    <g/>
   </g>
   <g id="line2d_4">
    <path d="M 338.688 30.334099 
L 369.60768 35.706297 
" style="fill:none;stroke:#f5deb3;stroke-linecap:square;stroke-width:4;"/>
    <g>
     <use style="fill:#f5deb3;stroke:#f5deb3;stroke-linejoin:miter;stroke-width:1.5;" x="338.688" xlink:href="#m6b542c6e7f" y="30.334099"/>
     <use style="fill:#f5deb3;stroke:#f5deb3;stroke-linejoin:miter;stroke-width:1.5;" x="369.60768" xlink:href="#m6b542c6e7f" y="35.706297"/>
    </g>
   </g>
   <g id="matplotlib.axis_1">
    <g id="xtick_1">
     <g id="line2d_5">
      <path clip-path="url(#p5ce5b0f0a8)" d="M 57.6 298.944 
L 57.6 27.648 
" style="fill:none;stroke:#b0b0b0;stroke-linecap:square;stroke-width:0.8;"/>
     </g>
     <g id="line2d_6">
      <defs>
       <path d="M 0 0 
L 0 3.5 
" id="m9b02f37cf9" style="stroke:#000000;stroke-width:0.8;"/>
      </defs>
      <g>
       <use style="stroke:#000000;stroke-width:0.8;" x="57.6" xlink:href="#m9b02f37cf9" y="298.944"/>
      </g>
     </g>
     <g id="text_1">
      <!-- 0 -->
      <defs>
       <path d="M 31.78125 66.40625 
Q 24.171875 66.40625 20.328125 58.90625 
Q 16.5 51.421875 16.5 36.375 
Q 16.5 21.390625 20.328125 13.890625 
Q 24.171875 6.390625 31.78125 6.390625 
Q 39.453125 6.390625 43.28125 13.890625 
Q 47.125 21.390625 47.125 36.375 
Q 47.125 51.421875 43.28125 58.90625 
Q 39.453125 66.40625 31.78125 66.40625 
z
M 31.78125 74.21875 
Q 44.046875 74.21875 50.515625 64.515625 
Q 56.984375 54.828125 56.984375 36.375 
Q 56.984375 17.96875 50.515625 8.265625 
Q 44.046875 -1.421875 31.78125 -1.421875 
Q 19.53125 -1.421875 13.0625 8.265625 
Q 6.59375 17.96875 6.59375 36.375 
Q 6.59375 54.828125 13.0625 64.515625 
Q 19.53125 74.21875 31.78125 74.21875 
z
" id="DejaVuSans-48"/>
      </defs>
      <g transform="translate(51.2375 321.140875)scale(0.2 -0.2)">
       <use xlink:href="#DejaVuSans-48"/>
      </g>
     </g>
    </g>
    <g id="xtick_2">
     <g id="line2d_7">
      <path clip-path="url(#p5ce5b0f0a8)" d="M 137.910857 298.944 
L 137.910857 27.648 
" style="fill:none;stroke:#b0b0b0;stroke-linecap:square;stroke-width:0.8;"/>
     </g>
     <g id="line2d_8">
      <g>
       <use style="stroke:#000000;stroke-width:0.8;" x="137.910857" xlink:href="#m9b02f37cf9" y="298.944"/>
      </g>
     </g>
     <g id="text_2">
      <!-- 2 -->
      <defs>
       <path d="M 19.1875 8.296875 
L 53.609375 8.296875 
L 53.609375 0 
L 7.328125 0 
L 7.328125 8.296875 
Q 12.9375 14.109375 22.625 23.890625 
Q 32.328125 33.6875 34.8125 36.53125 
Q 39.546875 41.84375 41.421875 45.53125 
Q 43.3125 49.21875 43.3125 52.78125 
Q 43.3125 58.59375 39.234375 62.25 
Q 35.15625 65.921875 28.609375 65.921875 
Q 23.96875 65.921875 18.8125 64.3125 
Q 13.671875 62.703125 7.8125 59.421875 
L 7.8125 69.390625 
Q 13.765625 71.78125 18.9375 73 
Q 24.125 74.21875 28.421875 74.21875 
Q 39.75 74.21875 46.484375 68.546875 
Q 53.21875 62.890625 53.21875 53.421875 
Q 53.21875 48.921875 51.53125 44.890625 
Q 49.859375 40.875 45.40625 35.40625 
Q 44.1875 33.984375 37.640625 27.21875 
Q 31.109375 20.453125 19.1875 8.296875 
z
" id="DejaVuSans-50"/>
      </defs>
      <g transform="translate(131.548357 321.140875)scale(0.2 -0.2)">
       <use xlink:href="#DejaVuSans-50"/>
      </g>
     </g>
    </g>
    <g id="xtick_3">
     <g id="line2d_9">
      <path clip-path="url(#p5ce5b0f0a8)" d="M 218.221714 298.944 
L 218.221714 27.648 
" style="fill:none;stroke:#b0b0b0;stroke-linecap:square;stroke-width:0.8;"/>
     </g>
     <g id="line2d_10">
      <g>
       <use style="stroke:#000000;stroke-width:0.8;" x="218.221714" xlink:href="#m9b02f37cf9" y="298.944"/>
      </g>
     </g>
     <g id="text_3">
      <!-- 4 -->
      <defs>
       <path d="M 37.796875 64.3125 
L 12.890625 25.390625 
L 37.796875 25.390625 
z
M 35.203125 72.90625 
L 47.609375 72.90625 
L 47.609375 25.390625 
L 58.015625 25.390625 
L 58.015625 17.1875 
L 47.609375 17.1875 
L 47.609375 0 
L 37.796875 0 
L 37.796875 17.1875 
L 4.890625 17.1875 
L 4.890625 26.703125 
z
" id="DejaVuSans-52"/>
      </defs>
      <g transform="translate(211.859214 321.140875)scale(0.2 -0.2)">
       <use xlink:href="#DejaVuSans-52"/>
      </g>
     </g>
    </g>
    <g id="xtick_4">
     <g id="line2d_11">
      <path clip-path="url(#p5ce5b0f0a8)" d="M 298.532571 298.944 
L 298.532571 27.648 
" style="fill:none;stroke:#b0b0b0;stroke-linecap:square;stroke-width:0.8;"/>
     </g>
     <g id="line2d_12">
      <g>
       <use style="stroke:#000000;stroke-width:0.8;" x="298.532571" xlink:href="#m9b02f37cf9" y="298.944"/>
      </g>
     </g>
     <g id="text_4">
      <!-- 6 -->
      <defs>
       <path d="M 33.015625 40.375 
Q 26.375 40.375 22.484375 35.828125 
Q 18.609375 31.296875 18.609375 23.390625 
Q 18.609375 15.53125 22.484375 10.953125 
Q 26.375 6.390625 33.015625 6.390625 
Q 39.65625 6.390625 43.53125 10.953125 
Q 47.40625 15.53125 47.40625 23.390625 
Q 47.40625 31.296875 43.53125 35.828125 
Q 39.65625 40.375 33.015625 40.375 
z
M 52.59375 71.296875 
L 52.59375 62.3125 
Q 48.875 64.0625 45.09375 64.984375 
Q 41.3125 65.921875 37.59375 65.921875 
Q 27.828125 65.921875 22.671875 59.328125 
Q 17.53125 52.734375 16.796875 39.40625 
Q 19.671875 43.65625 24.015625 45.921875 
Q 28.375 48.1875 33.59375 48.1875 
Q 44.578125 48.1875 50.953125 41.515625 
Q 57.328125 34.859375 57.328125 23.390625 
Q 57.328125 12.15625 50.6875 5.359375 
Q 44.046875 -1.421875 33.015625 -1.421875 
Q 20.359375 -1.421875 13.671875 8.265625 
Q 6.984375 17.96875 6.984375 36.375 
Q 6.984375 53.65625 15.1875 63.9375 
Q 23.390625 74.21875 37.203125 74.21875 
Q 40.921875 74.21875 44.703125 73.484375 
Q 48.484375 72.75 52.59375 71.296875 
z
" id="DejaVuSans-54"/>
      </defs>
      <g transform="translate(292.170071 321.140875)scale(0.2 -0.2)">
       <use xlink:href="#DejaVuSans-54"/>
      </g>
     </g>
    </g>
    <g id="xtick_5">
     <g id="line2d_13">
      <path clip-path="url(#p5ce5b0f0a8)" d="M 97.755429 298.944 
L 97.755429 27.648 
" style="fill:none;stroke:#b0b0b0;stroke-linecap:square;stroke-width:0.8;"/>
     </g>
     <g id="line2d_14">
      <defs>
       <path d="M 0 0 
L 0 2 
" id="m1d0990c02d" style="stroke:#000000;stroke-width:0.6;"/>
      </defs>
      <g>
       <use style="stroke:#000000;stroke-width:0.6;" x="97.755429" xlink:href="#m1d0990c02d" y="298.944"/>
      </g>
     </g>
    </g>
    <g id="xtick_6">
     <g id="line2d_15">
      <path clip-path="url(#p5ce5b0f0a8)" d="M 178.066286 298.944 
L 178.066286 27.648 
" style="fill:none;stroke:#b0b0b0;stroke-linecap:square;stroke-width:0.8;"/>
     </g>
     <g id="line2d_16">
      <g>
       <use style="stroke:#000000;stroke-width:0.6;" x="178.066286" xlink:href="#m1d0990c02d" y="298.944"/>
      </g>
     </g>
    </g>
    <g id="xtick_7">
     <g id="line2d_17">
      <path clip-path="url(#p5ce5b0f0a8)" d="M 258.377143 298.944 
L 258.377143 27.648 
" style="fill:none;stroke:#b0b0b0;stroke-linecap:square;stroke-width:0.8;"/>
     </g>
     <g id="line2d_18">
      <g>
       <use style="stroke:#000000;stroke-width:0.6;" x="258.377143" xlink:href="#m1d0990c02d" y="298.944"/>
      </g>
     </g>
    </g>
    <g id="xtick_8">
     <g id="line2d_19">
      <path clip-path="url(#p5ce5b0f0a8)" d="M 338.688 298.944 
L 338.688 27.648 
" style="fill:none;stroke:#b0b0b0;stroke-linecap:square;stroke-width:0.8;"/>
     </g>
     <g id="line2d_20">
      <g>
       <use style="stroke:#000000;stroke-width:0.6;" x="338.688" xlink:href="#m1d0990c02d" y="298.944"/>
      </g>
     </g>
    </g>
    <g id="text_5">
     <!-- log10(# f-evals / dimension) -->
     <defs>
      <path d="M 9.421875 75.984375 
L 18.40625 75.984375 
L 18.40625 0 
L 9.421875 0 
z
" id="DejaVuSans-108"/>
      <path d="M 30.609375 48.390625 
Q 23.390625 48.390625 19.1875 42.75 
Q 14.984375 37.109375 14.984375 27.296875 
Q 14.984375 17.484375 19.15625 11.84375 
Q 23.34375 6.203125 30.609375 6.203125 
Q 37.796875 6.203125 41.984375 11.859375 
Q 46.1875 17.53125 46.1875 27.296875 
Q 46.1875 37.015625 41.984375 42.703125 
Q 37.796875 48.390625 30.609375 48.390625 
z
M 30.609375 56 
Q 42.328125 56 49.015625 48.375 
Q 55.71875 40.765625 55.71875 27.296875 
Q 55.71875 13.875 49.015625 6.21875 
Q 42.328125 -1.421875 30.609375 -1.421875 
Q 18.84375 -1.421875 12.171875 6.21875 
Q 5.515625 13.875 5.515625 27.296875 
Q 5.515625 40.765625 12.171875 48.375 
Q 18.84375 56 30.609375 56 
z
" id="DejaVuSans-111"/>
      <path d="M 45.40625 27.984375 
Q 45.40625 37.75 41.375 43.109375 
Q 37.359375 48.484375 30.078125 48.484375 
Q 22.859375 48.484375 18.828125 43.109375 
Q 14.796875 37.75 14.796875 27.984375 
Q 14.796875 18.265625 18.828125 12.890625 
Q 22.859375 7.515625 30.078125 7.515625 
Q 37.359375 7.515625 41.375 12.890625 
Q 45.40625 18.265625 45.40625 27.984375 
z
M 54.390625 6.78125 
Q 54.390625 -7.171875 48.1875 -13.984375 
Q 42 -20.796875 29.203125 -20.796875 
Q 24.46875 -20.796875 20.265625 -20.09375 
Q 16.0625 -19.390625 12.109375 -17.921875 
L 12.109375 -9.1875 
Q 16.0625 -11.328125 19.921875 -12.34375 
Q 23.78125 -13.375 27.78125 -13.375 
Q 36.625 -13.375 41.015625 -8.765625 
Q 45.40625 -4.15625 45.40625 5.171875 
L 45.40625 9.625 
Q 42.625 4.78125 38.28125 2.390625 
Q 33.9375 0 27.875 0 
Q 17.828125 0 11.671875 7.65625 
Q 5.515625 15.328125 5.515625 27.984375 
Q 5.515625 40.671875 11.671875 48.328125 
Q 17.828125 56 27.875 56 
Q 33.9375 56 38.28125 53.609375 
Q 42.625 51.21875 45.40625 46.390625 
L 45.40625 54.6875 
L 54.390625 54.6875 
z
" id="DejaVuSans-103"/>
      <path d="M 12.40625 8.296875 
L 28.515625 8.296875 
L 28.515625 63.921875 
L 10.984375 60.40625 
L 10.984375 69.390625 
L 28.421875 72.90625 
L 38.28125 72.90625 
L 38.28125 8.296875 
L 54.390625 8.296875 
L 54.390625 0 
L 12.40625 0 
z
" id="DejaVuSans-49"/>
      <path d="M 31 75.875 
Q 24.46875 64.65625 21.28125 53.65625 
Q 18.109375 42.671875 18.109375 31.390625 
Q 18.109375 20.125 21.3125 9.0625 
Q 24.515625 -2 31 -13.1875 
L 23.1875 -13.1875 
Q 15.875 -1.703125 12.234375 9.375 
Q 8.59375 20.453125 8.59375 31.390625 
Q 8.59375 42.28125 12.203125 53.3125 
Q 15.828125 64.359375 23.1875 75.875 
z
" id="DejaVuSans-40"/>
      <path d="M 51.125 44 
L 36.921875 44 
L 32.8125 27.6875 
L 47.125 27.6875 
z
M 43.796875 71.78125 
L 38.71875 51.515625 
L 52.984375 51.515625 
L 58.109375 71.78125 
L 65.921875 71.78125 
L 60.890625 51.515625 
L 76.125 51.515625 
L 76.125 44 
L 58.984375 44 
L 54.984375 27.6875 
L 70.515625 27.6875 
L 70.515625 20.21875 
L 53.078125 20.21875 
L 48 0 
L 40.1875 0 
L 45.21875 20.21875 
L 30.90625 20.21875 
L 25.875 0 
L 18.015625 0 
L 23.09375 20.21875 
L 7.71875 20.21875 
L 7.71875 27.6875 
L 24.90625 27.6875 
L 29 44 
L 13.28125 44 
L 13.28125 51.515625 
L 30.90625 51.515625 
L 35.890625 71.78125 
z
" id="DejaVuSans-35"/>
      <path id="DejaVuSans-32"/>
      <path d="M 37.109375 75.984375 
L 37.109375 68.5 
L 28.515625 68.5 
Q 23.6875 68.5 21.796875 66.546875 
Q 19.921875 64.59375 19.921875 59.515625 
L 19.921875 54.6875 
L 34.71875 54.6875 
L 34.71875 47.703125 
L 19.921875 47.703125 
L 19.921875 0 
L 10.890625 0 
L 10.890625 47.703125 
L 2.296875 47.703125 
L 2.296875 54.6875 
L 10.890625 54.6875 
L 10.890625 58.5 
Q 10.890625 67.625 15.140625 71.796875 
Q 19.390625 75.984375 28.609375 75.984375 
z
" id="DejaVuSans-102"/>
      <path d="M 4.890625 31.390625 
L 31.203125 31.390625 
L 31.203125 23.390625 
L 4.890625 23.390625 
z
" id="DejaVuSans-45"/>
      <path d="M 56.203125 29.59375 
L 56.203125 25.203125 
L 14.890625 25.203125 
Q 15.484375 15.921875 20.484375 11.0625 
Q 25.484375 6.203125 34.421875 6.203125 
Q 39.59375 6.203125 44.453125 7.46875 
Q 49.3125 8.734375 54.109375 11.28125 
L 54.109375 2.78125 
Q 49.265625 0.734375 44.1875 -0.34375 
Q 39.109375 -1.421875 33.890625 -1.421875 
Q 20.796875 -1.421875 13.15625 6.1875 
Q 5.515625 13.8125 5.515625 26.8125 
Q 5.515625 40.234375 12.765625 48.109375 
Q 20.015625 56 32.328125 56 
Q 43.359375 56 49.78125 48.890625 
Q 56.203125 41.796875 56.203125 29.59375 
z
M 47.21875 32.234375 
Q 47.125 39.59375 43.09375 43.984375 
Q 39.0625 48.390625 32.421875 48.390625 
Q 24.90625 48.390625 20.390625 44.140625 
Q 15.875 39.890625 15.1875 32.171875 
z
" id="DejaVuSans-101"/>
      <path d="M 2.984375 54.6875 
L 12.5 54.6875 
L 29.59375 8.796875 
L 46.6875 54.6875 
L 56.203125 54.6875 
L 35.6875 0 
L 23.484375 0 
z
" id="DejaVuSans-118"/>
      <path d="M 34.28125 27.484375 
Q 23.390625 27.484375 19.1875 25 
Q 14.984375 22.515625 14.984375 16.5 
Q 14.984375 11.71875 18.140625 8.90625 
Q 21.296875 6.109375 26.703125 6.109375 
Q 34.1875 6.109375 38.703125 11.40625 
Q 43.21875 16.703125 43.21875 25.484375 
L 43.21875 27.484375 
z
M 52.203125 31.203125 
L 52.203125 0 
L 43.21875 0 
L 43.21875 8.296875 
Q 40.140625 3.328125 35.546875 0.953125 
Q 30.953125 -1.421875 24.3125 -1.421875 
Q 15.921875 -1.421875 10.953125 3.296875 
Q 6 8.015625 6 15.921875 
Q 6 25.140625 12.171875 29.828125 
Q 18.359375 34.515625 30.609375 34.515625 
L 43.21875 34.515625 
L 43.21875 35.40625 
Q 43.21875 41.609375 39.140625 45 
Q 35.0625 48.390625 27.6875 48.390625 
Q 23 48.390625 18.546875 47.265625 
Q 14.109375 46.140625 10.015625 43.890625 
L 10.015625 52.203125 
Q 14.9375 54.109375 19.578125 55.046875 
Q 24.21875 56 28.609375 56 
Q 40.484375 56 46.34375 49.84375 
Q 52.203125 43.703125 52.203125 31.203125 
z
" id="DejaVuSans-97"/>
      <path d="M 44.28125 53.078125 
L 44.28125 44.578125 
Q 40.484375 46.53125 36.375 47.5 
Q 32.28125 48.484375 27.875 48.484375 
Q 21.1875 48.484375 17.84375 46.4375 
Q 14.5 44.390625 14.5 40.28125 
Q 14.5 37.15625 16.890625 35.375 
Q 19.28125 33.59375 26.515625 31.984375 
L 29.59375 31.296875 
Q 39.15625 29.25 43.1875 25.515625 
Q 47.21875 21.78125 47.21875 15.09375 
Q 47.21875 7.46875 41.1875 3.015625 
Q 35.15625 -1.421875 24.609375 -1.421875 
Q 20.21875 -1.421875 15.453125 -0.5625 
Q 10.6875 0.296875 5.421875 2 
L 5.421875 11.28125 
Q 10.40625 8.6875 15.234375 7.390625 
Q 20.0625 6.109375 24.8125 6.109375 
Q 31.15625 6.109375 34.5625 8.28125 
Q 37.984375 10.453125 37.984375 14.40625 
Q 37.984375 18.0625 35.515625 20.015625 
Q 33.0625 21.96875 24.703125 23.78125 
L 21.578125 24.515625 
Q 13.234375 26.265625 9.515625 29.90625 
Q 5.8125 33.546875 5.8125 39.890625 
Q 5.8125 47.609375 11.28125 51.796875 
Q 16.75 56 26.8125 56 
Q 31.78125 56 36.171875 55.265625 
Q 40.578125 54.546875 44.28125 53.078125 
z
" id="DejaVuSans-115"/>
      <path d="M 25.390625 72.90625 
L 33.6875 72.90625 
L 8.296875 -9.28125 
L 0 -9.28125 
z
" id="DejaVuSans-47"/>
      <path d="M 45.40625 46.390625 
L 45.40625 75.984375 
L 54.390625 75.984375 
L 54.390625 0 
L 45.40625 0 
L 45.40625 8.203125 
Q 42.578125 3.328125 38.25 0.953125 
Q 33.9375 -1.421875 27.875 -1.421875 
Q 17.96875 -1.421875 11.734375 6.484375 
Q 5.515625 14.40625 5.515625 27.296875 
Q 5.515625 40.1875 11.734375 48.09375 
Q 17.96875 56 27.875 56 
Q 33.9375 56 38.25 53.625 
Q 42.578125 51.265625 45.40625 46.390625 
z
M 14.796875 27.296875 
Q 14.796875 17.390625 18.875 11.75 
Q 22.953125 6.109375 30.078125 6.109375 
Q 37.203125 6.109375 41.296875 11.75 
Q 45.40625 17.390625 45.40625 27.296875 
Q 45.40625 37.203125 41.296875 42.84375 
Q 37.203125 48.484375 30.078125 48.484375 
Q 22.953125 48.484375 18.875 42.84375 
Q 14.796875 37.203125 14.796875 27.296875 
z
" id="DejaVuSans-100"/>
      <path d="M 9.421875 54.6875 
L 18.40625 54.6875 
L 18.40625 0 
L 9.421875 0 
z
M 9.421875 75.984375 
L 18.40625 75.984375 
L 18.40625 64.59375 
L 9.421875 64.59375 
z
" id="DejaVuSans-105"/>
      <path d="M 52 44.1875 
Q 55.375 50.25 60.0625 53.125 
Q 64.75 56 71.09375 56 
Q 79.640625 56 84.28125 50.015625 
Q 88.921875 44.046875 88.921875 33.015625 
L 88.921875 0 
L 79.890625 0 
L 79.890625 32.71875 
Q 79.890625 40.578125 77.09375 44.375 
Q 74.3125 48.1875 68.609375 48.1875 
Q 61.625 48.1875 57.5625 43.546875 
Q 53.515625 38.921875 53.515625 30.90625 
L 53.515625 0 
L 44.484375 0 
L 44.484375 32.71875 
Q 44.484375 40.625 41.703125 44.40625 
Q 38.921875 48.1875 33.109375 48.1875 
Q 26.21875 48.1875 22.15625 43.53125 
Q 18.109375 38.875 18.109375 30.90625 
L 18.109375 0 
L 9.078125 0 
L 9.078125 54.6875 
L 18.109375 54.6875 
L 18.109375 46.1875 
Q 21.1875 51.21875 25.484375 53.609375 
Q 29.78125 56 35.6875 56 
Q 41.65625 56 45.828125 52.96875 
Q 50 49.953125 52 44.1875 
z
" id="DejaVuSans-109"/>
      <path d="M 54.890625 33.015625 
L 54.890625 0 
L 45.90625 0 
L 45.90625 32.71875 
Q 45.90625 40.484375 42.875 44.328125 
Q 39.84375 48.1875 33.796875 48.1875 
Q 26.515625 48.1875 22.3125 43.546875 
Q 18.109375 38.921875 18.109375 30.90625 
L 18.109375 0 
L 9.078125 0 
L 9.078125 54.6875 
L 18.109375 54.6875 
L 18.109375 46.1875 
Q 21.34375 51.125 25.703125 53.5625 
Q 30.078125 56 35.796875 56 
Q 45.21875 56 50.046875 50.171875 
Q 54.890625 44.34375 54.890625 33.015625 
z
" id="DejaVuSans-110"/>
      <path d="M 8.015625 75.875 
L 15.828125 75.875 
Q 23.140625 64.359375 26.78125 53.3125 
Q 30.421875 42.28125 30.421875 31.390625 
Q 30.421875 20.453125 26.78125 9.375 
Q 23.140625 -1.703125 15.828125 -13.1875 
L 8.015625 -13.1875 
Q 14.5 -2 17.703125 9.0625 
Q 20.90625 20.125 20.90625 31.390625 
Q 20.90625 42.671875 17.703125 53.65625 
Q 14.5 64.65625 8.015625 75.875 
z
" id="DejaVuSans-41"/>
     </defs>
     <g transform="translate(77.303219 342.217594)scale(0.17 -0.17)">
      <use xlink:href="#DejaVuSans-108"/>
      <use x="27.783203" xlink:href="#DejaVuSans-111"/>
      <use x="88.964844" xlink:href="#DejaVuSans-103"/>
      <use x="152.441406" xlink:href="#DejaVuSans-49"/>
      <use x="216.064453" xlink:href="#DejaVuSans-48"/>
      <use x="279.6875" xlink:href="#DejaVuSans-40"/>
      <use x="318.701172" xlink:href="#DejaVuSans-35"/>
      <use x="402.490234" xlink:href="#DejaVuSans-32"/>
      <use x="434.277344" xlink:href="#DejaVuSans-102"/>
      <use x="469.404297" xlink:href="#DejaVuSans-45"/>
      <use x="505.488281" xlink:href="#DejaVuSans-101"/>
      <use x="567.011719" xlink:href="#DejaVuSans-118"/>
      <use x="626.191406" xlink:href="#DejaVuSans-97"/>
      <use x="687.470703" xlink:href="#DejaVuSans-108"/>
      <use x="715.253906" xlink:href="#DejaVuSans-115"/>
      <use x="767.353516" xlink:href="#DejaVuSans-32"/>
      <use x="799.140625" xlink:href="#DejaVuSans-47"/>
      <use x="832.832031" xlink:href="#DejaVuSans-32"/>
      <use x="864.619141" xlink:href="#DejaVuSans-100"/>
      <use x="928.095703" xlink:href="#DejaVuSans-105"/>
      <use x="955.878906" xlink:href="#DejaVuSans-109"/>
      <use x="1053.291016" xlink:href="#DejaVuSans-101"/>
      <use x="1114.814453" xlink:href="#DejaVuSans-110"/>
      <use x="1178.193359" xlink:href="#DejaVuSans-115"/>
      <use x="1230.292969" xlink:href="#DejaVuSans-105"/>
      <use x="1258.076172" xlink:href="#DejaVuSans-111"/>
      <use x="1319.257812" xlink:href="#DejaVuSans-110"/>
      <use x="1382.636719" xlink:href="#DejaVuSans-41"/>
     </g>
    </g>
   </g>
   <g id="matplotlib.axis_2">
    <g id="ytick_1">
     <g id="line2d_21">
      <path clip-path="url(#p5ce5b0f0a8)" d="M 57.6 298.944 
L 338.688 298.944 
" style="fill:none;stroke:#b0b0b0;stroke-linecap:square;stroke-width:0.8;"/>
     </g>
     <g id="line2d_22">
      <defs>
       <path d="M 0 0 
L -3.5 0 
" id="m8882d8dff0" style="stroke:#000000;stroke-width:0.8;"/>
      </defs>
      <g>
       <use style="stroke:#000000;stroke-width:0.8;" x="57.6" xlink:href="#m8882d8dff0" y="298.944"/>
      </g>
     </g>
     <g id="text_6">
      <!-- 0.0 -->
      <defs>
       <path d="M 10.6875 12.40625 
L 21 12.40625 
L 21 0 
L 10.6875 0 
z
" id="DejaVuSans-46"/>
      </defs>
      <g transform="translate(25.155 305.02275)scale(0.16 -0.16)">
       <use xlink:href="#DejaVuSans-48"/>
       <use x="63.623047" xlink:href="#DejaVuSans-46"/>
       <use x="95.410156" xlink:href="#DejaVuSans-48"/>
      </g>
     </g>
    </g>
    <g id="ytick_2">
     <g id="line2d_23">
      <path clip-path="url(#p5ce5b0f0a8)" d="M 57.6 245.22202 
L 338.688 245.22202 
" style="fill:none;stroke:#b0b0b0;stroke-linecap:square;stroke-width:0.8;"/>
     </g>
     <g id="line2d_24">
      <g>
       <use style="stroke:#000000;stroke-width:0.8;" x="57.6" xlink:href="#m8882d8dff0" y="245.22202"/>
      </g>
     </g>
     <g id="text_7">
      <!-- 0.2 -->
      <g transform="translate(25.155 251.30077)scale(0.16 -0.16)">
       <use xlink:href="#DejaVuSans-48"/>
       <use x="63.623047" xlink:href="#DejaVuSans-46"/>
       <use x="95.410156" xlink:href="#DejaVuSans-50"/>
      </g>
     </g>
    </g>
    <g id="ytick_3">
     <g id="line2d_25">
      <path clip-path="url(#p5ce5b0f0a8)" d="M 57.6 191.50004 
L 338.688 191.50004 
" style="fill:none;stroke:#b0b0b0;stroke-linecap:square;stroke-width:0.8;"/>
     </g>
     <g id="line2d_26">
      <g>
       <use style="stroke:#000000;stroke-width:0.8;" x="57.6" xlink:href="#m8882d8dff0" y="191.50004"/>
      </g>
     </g>
     <g id="text_8">
      <!-- 0.4 -->
      <g transform="translate(25.155 197.57879)scale(0.16 -0.16)">
       <use xlink:href="#DejaVuSans-48"/>
       <use x="63.623047" xlink:href="#DejaVuSans-46"/>
       <use x="95.410156" xlink:href="#DejaVuSans-52"/>
      </g>
     </g>
    </g>
    <g id="ytick_4">
     <g id="line2d_27">
      <path clip-path="url(#p5ce5b0f0a8)" d="M 57.6 137.778059 
L 338.688 137.778059 
" style="fill:none;stroke:#b0b0b0;stroke-linecap:square;stroke-width:0.8;"/>
     </g>
     <g id="line2d_28">
      <g>
       <use style="stroke:#000000;stroke-width:0.8;" x="57.6" xlink:href="#m8882d8dff0" y="137.778059"/>
      </g>
     </g>
     <g id="text_9">
      <!-- 0.6 -->
      <g transform="translate(25.155 143.856809)scale(0.16 -0.16)">
       <use xlink:href="#DejaVuSans-48"/>
       <use x="63.623047" xlink:href="#DejaVuSans-46"/>
       <use x="95.410156" xlink:href="#DejaVuSans-54"/>
      </g>
     </g>
    </g>
    <g id="ytick_5">
     <g id="line2d_29">
      <path clip-path="url(#p5ce5b0f0a8)" d="M 57.6 84.056079 
L 338.688 84.056079 
" style="fill:none;stroke:#b0b0b0;stroke-linecap:square;stroke-width:0.8;"/>
     </g>
     <g id="line2d_30">
      <g>
       <use style="stroke:#000000;stroke-width:0.8;" x="57.6" xlink:href="#m8882d8dff0" y="84.056079"/>
      </g>
     </g>
     <g id="text_10">
      <!-- 0.8 -->
      <defs>
       <path d="M 31.78125 34.625 
Q 24.75 34.625 20.71875 30.859375 
Q 16.703125 27.09375 16.703125 20.515625 
Q 16.703125 13.921875 20.71875 10.15625 
Q 24.75 6.390625 31.78125 6.390625 
Q 38.8125 6.390625 42.859375 10.171875 
Q 46.921875 13.96875 46.921875 20.515625 
Q 46.921875 27.09375 42.890625 30.859375 
Q 38.875 34.625 31.78125 34.625 
z
M 21.921875 38.8125 
Q 15.578125 40.375 12.03125 44.71875 
Q 8.5 49.078125 8.5 55.328125 
Q 8.5 64.0625 14.71875 69.140625 
Q 20.953125 74.21875 31.78125 74.21875 
Q 42.671875 74.21875 48.875 69.140625 
Q 55.078125 64.0625 55.078125 55.328125 
Q 55.078125 49.078125 51.53125 44.71875 
Q 48 40.375 41.703125 38.8125 
Q 48.828125 37.15625 52.796875 32.3125 
Q 56.78125 27.484375 56.78125 20.515625 
Q 56.78125 9.90625 50.3125 4.234375 
Q 43.84375 -1.421875 31.78125 -1.421875 
Q 19.734375 -1.421875 13.25 4.234375 
Q 6.78125 9.90625 6.78125 20.515625 
Q 6.78125 27.484375 10.78125 32.3125 
Q 14.796875 37.15625 21.921875 38.8125 
z
M 18.3125 54.390625 
Q 18.3125 48.734375 21.84375 45.5625 
Q 25.390625 42.390625 31.78125 42.390625 
Q 38.140625 42.390625 41.71875 45.5625 
Q 45.3125 48.734375 45.3125 54.390625 
Q 45.3125 60.0625 41.71875 63.234375 
Q 38.140625 66.40625 31.78125 66.40625 
Q 25.390625 66.40625 21.84375 63.234375 
Q 18.3125 60.0625 18.3125 54.390625 
z
" id="DejaVuSans-56"/>
      </defs>
      <g transform="translate(25.155 90.134829)scale(0.16 -0.16)">
       <use xlink:href="#DejaVuSans-48"/>
       <use x="63.623047" xlink:href="#DejaVuSans-46"/>
       <use x="95.410156" xlink:href="#DejaVuSans-56"/>
      </g>
     </g>
    </g>
    <g id="ytick_6">
     <g id="line2d_31">
      <path clip-path="url(#p5ce5b0f0a8)" d="M 57.6 30.334099 
L 338.688 30.334099 
" style="fill:none;stroke:#b0b0b0;stroke-linecap:square;stroke-width:0.8;"/>
     </g>
     <g id="line2d_32">
      <g>
       <use style="stroke:#000000;stroke-width:0.8;" x="57.6" xlink:href="#m8882d8dff0" y="30.334099"/>
      </g>
     </g>
     <g id="text_11">
      <!-- 1.0 -->
      <g transform="translate(25.155 36.412849)scale(0.16 -0.16)">
       <use xlink:href="#DejaVuSans-49"/>
       <use x="63.623047" xlink:href="#DejaVuSans-46"/>
       <use x="95.410156" xlink:href="#DejaVuSans-48"/>
      </g>
     </g>
    </g>
    <g id="text_12">
     <!-- Fraction of function,target pairs -->
     <defs>
      <path d="M 9.8125 72.90625 
L 51.703125 72.90625 
L 51.703125 64.59375 
L 19.671875 64.59375 
L 19.671875 43.109375 
L 48.578125 43.109375 
L 48.578125 34.8125 
L 19.671875 34.8125 
L 19.671875 0 
L 9.8125 0 
z
" id="DejaVuSans-70"/>
      <path d="M 41.109375 46.296875 
Q 39.59375 47.171875 37.8125 47.578125 
Q 36.03125 48 33.890625 48 
Q 26.265625 48 22.1875 43.046875 
Q 18.109375 38.09375 18.109375 28.8125 
L 18.109375 0 
L 9.078125 0 
L 9.078125 54.6875 
L 18.109375 54.6875 
L 18.109375 46.1875 
Q 20.953125 51.171875 25.484375 53.578125 
Q 30.03125 56 36.53125 56 
Q 37.453125 56 38.578125 55.875 
Q 39.703125 55.765625 41.0625 55.515625 
z
" id="DejaVuSans-114"/>
      <path d="M 48.78125 52.59375 
L 48.78125 44.1875 
Q 44.96875 46.296875 41.140625 47.34375 
Q 37.3125 48.390625 33.40625 48.390625 
Q 24.65625 48.390625 19.8125 42.84375 
Q 14.984375 37.3125 14.984375 27.296875 
Q 14.984375 17.28125 19.8125 11.734375 
Q 24.65625 6.203125 33.40625 6.203125 
Q 37.3125 6.203125 41.140625 7.25 
Q 44.96875 8.296875 48.78125 10.40625 
L 48.78125 2.09375 
Q 45.015625 0.34375 40.984375 -0.53125 
Q 36.96875 -1.421875 32.421875 -1.421875 
Q 20.0625 -1.421875 12.78125 6.34375 
Q 5.515625 14.109375 5.515625 27.296875 
Q 5.515625 40.671875 12.859375 48.328125 
Q 20.21875 56 33.015625 56 
Q 37.15625 56 41.109375 55.140625 
Q 45.0625 54.296875 48.78125 52.59375 
z
" id="DejaVuSans-99"/>
      <path d="M 18.3125 70.21875 
L 18.3125 54.6875 
L 36.8125 54.6875 
L 36.8125 47.703125 
L 18.3125 47.703125 
L 18.3125 18.015625 
Q 18.3125 11.328125 20.140625 9.421875 
Q 21.96875 7.515625 27.59375 7.515625 
L 36.8125 7.515625 
L 36.8125 0 
L 27.59375 0 
Q 17.1875 0 13.234375 3.875 
Q 9.28125 7.765625 9.28125 18.015625 
L 9.28125 47.703125 
L 2.6875 47.703125 
L 2.6875 54.6875 
L 9.28125 54.6875 
L 9.28125 70.21875 
z
" id="DejaVuSans-116"/>
      <path d="M 8.5 21.578125 
L 8.5 54.6875 
L 17.484375 54.6875 
L 17.484375 21.921875 
Q 17.484375 14.15625 20.5 10.265625 
Q 23.53125 6.390625 29.59375 6.390625 
Q 36.859375 6.390625 41.078125 11.03125 
Q 45.3125 15.671875 45.3125 23.6875 
L 45.3125 54.6875 
L 54.296875 54.6875 
L 54.296875 0 
L 45.3125 0 
L 45.3125 8.40625 
Q 42.046875 3.421875 37.71875 1 
Q 33.40625 -1.421875 27.6875 -1.421875 
Q 18.265625 -1.421875 13.375 4.4375 
Q 8.5 10.296875 8.5 21.578125 
z
M 31.109375 56 
z
" id="DejaVuSans-117"/>
      <path d="M 11.71875 12.40625 
L 22.015625 12.40625 
L 22.015625 4 
L 14.015625 -11.625 
L 7.71875 -11.625 
L 11.71875 4 
z
" id="DejaVuSans-44"/>
      <path d="M 18.109375 8.203125 
L 18.109375 -20.796875 
L 9.078125 -20.796875 
L 9.078125 54.6875 
L 18.109375 54.6875 
L 18.109375 46.390625 
Q 20.953125 51.265625 25.265625 53.625 
Q 29.59375 56 35.59375 56 
Q 45.5625 56 51.78125 48.09375 
Q 58.015625 40.1875 58.015625 27.296875 
Q 58.015625 14.40625 51.78125 6.484375 
Q 45.5625 -1.421875 35.59375 -1.421875 
Q 29.59375 -1.421875 25.265625 0.953125 
Q 20.953125 3.328125 18.109375 8.203125 
z
M 48.6875 27.296875 
Q 48.6875 37.203125 44.609375 42.84375 
Q 40.53125 48.484375 33.40625 48.484375 
Q 26.265625 48.484375 22.1875 42.84375 
Q 18.109375 37.203125 18.109375 27.296875 
Q 18.109375 17.390625 22.1875 11.75 
Q 26.265625 6.109375 33.40625 6.109375 
Q 40.53125 6.109375 44.609375 11.75 
Q 48.6875 17.390625 48.6875 27.296875 
z
" id="DejaVuSans-112"/>
     </defs>
     <g transform="translate(17.619531 298.435375)rotate(-90)scale(0.17 -0.17)">
      <use xlink:href="#DejaVuSans-70"/>
      <use x="57.410156" xlink:href="#DejaVuSans-114"/>
      <use x="98.523438" xlink:href="#DejaVuSans-97"/>
      <use x="159.802734" xlink:href="#DejaVuSans-99"/>
      <use x="214.783203" xlink:href="#DejaVuSans-116"/>
      <use x="253.992188" xlink:href="#DejaVuSans-105"/>
      <use x="281.775391" xlink:href="#DejaVuSans-111"/>
      <use x="342.957031" xlink:href="#DejaVuSans-110"/>
      <use x="406.335938" xlink:href="#DejaVuSans-32"/>
      <use x="438.123047" xlink:href="#DejaVuSans-111"/>
      <use x="499.304688" xlink:href="#DejaVuSans-102"/>
      <use x="534.509766" xlink:href="#DejaVuSans-32"/>
      <use x="566.296875" xlink:href="#DejaVuSans-102"/>
      <use x="601.501953" xlink:href="#DejaVuSans-117"/>
      <use x="664.880859" xlink:href="#DejaVuSans-110"/>
      <use x="728.259766" xlink:href="#DejaVuSans-99"/>
      <use x="783.240234" xlink:href="#DejaVuSans-116"/>
      <use x="822.449219" xlink:href="#DejaVuSans-105"/>
      <use x="850.232422" xlink:href="#DejaVuSans-111"/>
      <use x="911.414062" xlink:href="#DejaVuSans-110"/>
      <use x="974.792969" xlink:href="#DejaVuSans-44"/>
      <use x="1006.580078" xlink:href="#DejaVuSans-116"/>
      <use x="1045.789062" xlink:href="#DejaVuSans-97"/>
      <use x="1107.068359" xlink:href="#DejaVuSans-114"/>
      <use x="1148.166016" xlink:href="#DejaVuSans-103"/>
      <use x="1211.642578" xlink:href="#DejaVuSans-101"/>
      <use x="1273.166016" xlink:href="#DejaVuSans-116"/>
      <use x="1312.375" xlink:href="#DejaVuSans-32"/>
      <use x="1344.162109" xlink:href="#DejaVuSans-112"/>
      <use x="1407.638672" xlink:href="#DejaVuSans-97"/>
      <use x="1468.917969" xlink:href="#DejaVuSans-105"/>
      <use x="1496.701172" xlink:href="#DejaVuSans-114"/>
      <use x="1537.814453" xlink:href="#DejaVuSans-115"/>
     </g>
    </g>
   </g>
   <g id="line2d_33">
    <defs>
     <path d="M 0 1.5 
C 0.397805 1.5 0.77937 1.341951 1.06066 1.06066 
C 1.341951 0.77937 1.5 0.397805 1.5 0 
C 1.5 -0.397805 1.341951 -0.77937 1.06066 -1.06066 
C 0.77937 -1.341951 0.397805 -1.5 0 -1.5 
C -0.397805 -1.5 -0.77937 -1.341951 -1.06066 -1.06066 
C -1.341951 -0.77937 -1.5 -0.397805 -1.5 0 
C -1.5 0.397805 -1.341951 0.77937 -1.06066 1.06066 
C -0.77937 1.341951 -0.397805 1.5 0 1.5 
z
" id="m9fba555508" style="stroke:#f5deb3;"/>
    </defs>
    <g>
     <use style="fill:#f5deb3;stroke:#f5deb3;" x="188.023512" xlink:href="#m9fba555508" y="30.334099"/>
     <use style="fill:#f5deb3;stroke:#f5deb3;" x="188.023512" xlink:href="#m9fba555508" y="30.334099"/>
    </g>
   </g>
   <g id="line2d_34">
    <defs>
     <path d="M 0 1.5 
C 0.397805 1.5 0.77937 1.341951 1.06066 1.06066 
C 1.341951 0.77937 1.5 0.397805 1.5 0 
C 1.5 -0.397805 1.341951 -0.77937 1.06066 -1.06066 
C 0.77937 -1.341951 0.397805 -1.5 0 -1.5 
C -0.397805 -1.5 -0.77937 -1.341951 -1.06066 -1.06066 
C -1.341951 -0.77937 -1.5 -0.397805 -1.5 0 
C -1.5 0.397805 -1.341951 0.77937 -1.06066 1.06066 
C -0.77937 1.341951 -0.397805 1.5 0 1.5 
z
" id="mefda542ef7" style="stroke:#000080;"/>
    </defs>
    <g>
     <use style="fill:#000080;stroke:#000080;" x="194.721668" xlink:href="#mefda542ef7" y="30.334099"/>
     <use style="fill:#000080;stroke:#000080;" x="194.721668" xlink:href="#mefda542ef7" y="30.334099"/>
    </g>
   </g>
   <g id="line2d_35">
    <path d="M 109.289743 298.944 
L 109.289743 298.417314 
L 110.016944 298.417314 
L 110.016944 297.890628 
L 111.104637 297.890628 
L 111.104637 297.363942 
L 111.346294 297.363942 
L 111.346294 296.837256 
L 111.74176 296.837256 
L 111.800314 295.783884 
L 113.752311 295.783884 
L 113.752311 295.257197 
L 113.891132 295.257197 
L 113.891132 294.730511 
L 114.452366 294.730511 
L 114.452366 294.203825 
L 115.189693 294.203825 
L 115.189693 293.677139 
L 115.973966 293.677139 
L 115.973966 293.150453 
L 116.532432 293.150453 
L 116.532432 292.623767 
L 116.81241 292.623767 
L 116.81241 292.097081 
L 118.229649 292.097081 
L 118.229649 291.570395 
L 118.563361 291.570395 
L 118.563361 291.043709 
L 119.045825 291.043709 
L 119.045825 290.517023 
L 119.212219 290.517023 
L 119.212219 289.990337 
L 119.339143 289.990337 
L 119.339143 289.463651 
L 119.515299 289.463651 
L 119.515299 288.410278 
L 120.453579 288.410278 
L 120.453579 287.883592 
L 120.700949 287.883592 
L 120.700949 287.356906 
L 120.933322 287.356906 
L 120.933322 286.83022 
L 121.242192 286.83022 
L 121.242192 286.303534 
L 121.433896 286.303534 
L 121.433896 285.776848 
L 121.876822 285.776848 
L 121.953191 284.723476 
L 122.061712 284.723476 
L 122.061712 284.19679 
L 122.201787 284.19679 
L 122.201787 283.670104 
L 122.393899 283.670104 
L 122.468041 282.616732 
L 122.761498 282.616732 
L 122.761498 282.090045 
L 123.384213 282.090045 
L 123.384213 281.563359 
L 124.149388 281.563359 
L 124.197312 280.509987 
L 124.808619 280.509987 
L 124.891598 279.456615 
L 125.665205 279.456615 
L 125.665205 278.929929 
L 127.54831 278.929929 
L 127.54831 278.403243 
L 132.876441 278.403243 
L 132.876441 277.876557 
L 133.386783 277.876557 
L 133.386783 277.349871 
L 133.717051 277.349871 
L 133.772413 276.296499 
L 138.852833 276.296499 
L 138.852833 275.769812 
L 141.917041 275.769812 
L 141.917041 275.243126 
L 151.381313 275.243126 
L 151.381313 274.71644 
L 152.264752 274.71644 
L 152.310635 273.663068 
L 152.530716 273.663068 
L 152.530716 273.136382 
L 153.56466 273.136382 
L 153.67271 272.08301 
L 154.2664 272.08301 
L 154.309016 271.029638 
L 154.739513 271.029638 
L 154.739513 270.502952 
L 155.240526 270.502952 
L 155.240526 269.976266 
L 155.899348 269.976266 
L 155.899348 269.449579 
L 156.01861 269.449579 
L 156.01861 268.922893 
L 156.212023 268.922893 
L 156.212023 268.396207 
L 156.909268 268.396207 
L 156.909268 267.869521 
L 157.158291 267.869521 
L 157.158291 267.342835 
L 157.470687 267.342835 
L 157.470687 266.816149 
L 158.191283 266.816149 
L 158.191283 266.289463 
L 166.15096 266.289463 
L 166.15096 265.762777 
L 166.475147 265.762777 
L 166.475147 265.236091 
L 166.781763 265.236091 
L 166.781763 264.709405 
L 166.926055 264.709405 
L 166.926055 264.182719 
L 167.901647 264.182719 
L 167.901647 263.656033 
L 168.07338 263.656033 
L 168.101967 262.60266 
L 168.858837 262.60266 
L 168.858837 262.075974 
L 168.970101 262.075974 
L 168.970101 261.549288 
L 169.164393 261.549288 
L 169.20792 260.495916 
L 169.278061 260.495916 
L 169.329222 259.442544 
L 169.493221 259.442544 
L 169.51744 258.389172 
L 169.814565 258.389172 
L 169.814565 257.862486 
L 170.17128 257.862486 
L 170.17128 257.3358 
L 170.477109 257.3358 
L 170.477109 256.809114 
L 170.692035 256.809114 
L 170.692035 256.282427 
L 170.988289 256.282427 
L 170.988289 255.755741 
L 173.04641 255.755741 
L 173.04641 255.229055 
L 178.140246 255.229055 
L 178.140246 254.702369 
L 178.507112 254.702369 
L 178.507112 254.175683 
L 179.121894 254.175683 
L 179.204593 253.122311 
L 179.608716 253.122311 
L 179.608716 252.595625 
L 179.982215 252.595625 
L 179.982215 252.068939 
L 180.268905 252.068939 
L 180.268905 251.542253 
L 180.440206 251.542253 
L 180.440206 251.015567 
L 180.572874 251.015567 
L 180.674157 249.435508 
L 180.952369 249.435508 
L 180.952369 248.908822 
L 181.068737 248.908822 
L 181.151488 247.328764 
L 181.238575 247.328764 
L 181.334991 245.748706 
L 181.651279 245.748706 
L 181.651279 245.22202 
L 181.933317 245.22202 
L 181.956354 244.168648 
L 182.048545 244.168648 
L 182.064152 243.115275 
L 182.183343 243.115275 
L 182.257211 242.061903 
L 182.362149 242.061903 
L 182.456294 241.008531 
L 182.555663 241.008531 
L 182.575536 239.955159 
L 182.812932 239.955159 
L 182.908314 227.314693 
L 183.077258 227.314693 
L 183.171535 225.734635 
L 183.20079 225.734635 
L 183.299571 224.681263 
L 183.379159 224.681263 
L 183.485887 213.620855 
L 183.693297 213.620855 
L 183.776456 212.040797 
L 183.823529 212.040797 
L 183.837626 199.927017 
L 184.020789 199.927017 
L 184.020789 198.346959 
L 189.495875 198.346959 
L 189.495875 197.820273 
L 189.973278 197.820273 
L 189.99771 196.7669 
L 190.119142 196.7669 
L 190.222589 195.713528 
L 190.296909 195.713528 
L 190.296909 195.186842 
L 190.526525 195.186842 
L 190.632045 193.606784 
L 190.756106 193.606784 
L 190.759054 192.553412 
L 190.87427 192.553412 
L 190.967105 190.973354 
L 190.988315 190.973354 
L 191.087573 189.919981 
L 191.122253 189.919981 
L 191.226495 187.286551 
L 191.268263 187.286551 
L 191.268263 186.759865 
L 191.419347 186.759865 
L 191.526871 184.653121 
L 191.575162 184.653121 
L 191.664749 182.546376 
L 191.688322 182.546376 
L 191.77018 180.439632 
L 191.804124 180.439632 
L 191.823944 179.38626 
L 191.966381 179.38626 
L 192.006808 177.806202 
L 192.153597 177.806202 
L 192.261917 176.226143 
L 192.265201 176.226143 
L 192.362657 173.592713 
L 192.407158 173.592713 
L 192.500968 162.005619 
L 192.523628 162.005619 
L 192.633275 143.04492 
L 192.639325 143.04492 
L 192.739605 138.831432 
L 192.753696 138.831432 
L 192.852202 127.771024 
L 192.883361 127.771024 
L 192.973909 114.603872 
L 192.999482 114.603872 
L 193.074686 110.917069 
L 193.169383 110.917069 
L 193.267581 88.796254 
L 193.313837 88.796254 
L 193.400192 71.415613 
L 193.451692 71.415613 
L 193.52228 66.675439 
L 193.615657 66.675439 
L 193.615657 66.148752 
L 193.777031 66.148752 
L 193.876455 44.027937 
L 193.893352 44.027937 
L 193.923233 42.974565 
L 194.029337 42.974565 
L 194.087541 40.341135 
L 194.445195 40.341135 
L 194.451501 31.914157 
L 194.621562 31.914157 
L 194.721668 30.334099 
L 338.688 30.334099 
L 338.688 30.334099 
" style="fill:none;stroke:#000080;stroke-linecap:square;stroke-width:1.5;"/>
   </g>
   <g id="line2d_36">
    <defs>
     <path d="M 0 6 
C 1.591219 6 3.117479 5.367802 4.242641 4.242641 
C 5.367802 3.117479 6 1.591219 6 0 
C 6 -1.591219 5.367802 -3.117479 4.242641 -4.242641 
C 3.117479 -5.367802 1.591219 -6 0 -6 
C -1.591219 -6 -3.117479 -5.367802 -4.242641 -4.242641 
C -5.367802 -3.117479 -6 -1.591219 -6 0 
C -6 1.591219 -5.367802 3.117479 -4.242641 4.242641 
C -3.117479 5.367802 -1.591219 6 0 6 
z
" id="m0bd316eee8" style="stroke:#000080;stroke-width:1.5;"/>
    </defs>
    <g>
     <use style="fill-opacity:0;stroke:#000080;stroke-width:1.5;" x="192.495822" xlink:href="#m0bd316eee8" y="170.959282"/>
     <use style="fill-opacity:0;stroke:#000080;stroke-width:1.5;" x="194.721668" xlink:href="#m0bd316eee8" y="30.860785"/>
     <use style="fill-opacity:0;stroke:#000080;stroke-width:1.5;" x="194.721668" xlink:href="#m0bd316eee8" y="30.334099"/>
     <use style="fill-opacity:0;stroke:#000080;stroke-width:1.5;" x="194.721668" xlink:href="#m0bd316eee8" y="30.334099"/>
     <use style="fill-opacity:0;stroke:#000080;stroke-width:1.5;" x="338.688" xlink:href="#m0bd316eee8" y="30.334099"/>
    </g>
   </g>
   <g id="line2d_37">
    <path style="fill:none;stroke:#000080;stroke-linecap:square;stroke-width:1.5;"/>
    <g/>
   </g>
   <g id="line2d_38">
    <g>
     <use style="fill:#000080;stroke:#000080;" x="194.330623" xlink:href="#mefda542ef7" y="30.334099"/>
     <use style="fill:#000080;stroke:#000080;" x="194.330623" xlink:href="#mefda542ef7" y="30.334099"/>
    </g>
   </g>
   <g id="line2d_39">
    <path d="M 111.702614 298.944 
L 111.702614 298.417314 
L 111.819788 298.417314 
L 111.819788 297.890628 
L 112.33754 297.890628 
L 112.33754 297.363942 
L 112.544146 297.363942 
L 112.600071 296.31057 
L 113.78712 296.31057 
L 113.821859 295.257197 
L 114.652055 295.257197 
L 114.652055 294.730511 
L 115.205729 294.730511 
L 115.205729 294.203825 
L 115.476111 294.203825 
L 115.507647 292.623767 
L 116.695072 292.623767 
L 116.695072 292.097081 
L 116.81241 292.097081 
L 116.827022 291.043709 
L 117.073569 291.043709 
L 117.073569 290.517023 
L 118.323734 290.517023 
L 118.323734 289.990337 
L 119.122819 289.990337 
L 119.122819 289.463651 
L 119.615166 289.463651 
L 119.615166 288.936964 
L 119.923616 288.936964 
L 119.923616 287.883592 
L 120.782632 287.883592 
L 120.829137 286.83022 
L 121.811096 286.83022 
L 121.909593 285.250162 
L 123.00916 285.250162 
L 123.00916 284.723476 
L 123.131685 284.723476 
L 123.131685 284.19679 
L 123.28364 284.19679 
L 123.28364 283.670104 
L 123.731719 283.670104 
L 123.741547 282.616732 
L 123.878557 282.616732 
L 123.878557 282.090045 
L 124.226003 282.090045 
L 124.226003 281.563359 
L 125.744215 281.563359 
L 125.744215 281.036673 
L 125.961828 281.036673 
L 125.961828 280.509987 
L 126.261995 280.509987 
L 126.355276 279.456615 
L 126.888323 279.456615 
L 126.888323 278.929929 
L 127.084089 278.929929 
L 127.084089 278.403243 
L 129.276384 278.403243 
L 129.276384 277.876557 
L 129.908566 277.876557 
L 129.908566 277.349871 
L 131.293837 277.349871 
L 131.293837 276.823185 
L 131.502845 276.823185 
L 131.502845 276.296499 
L 132.488101 276.296499 
L 132.488101 275.769812 
L 133.426296 275.769812 
L 133.471344 274.71644 
L 134.359394 274.71644 
L 134.359394 274.189754 
L 139.746525 274.189754 
L 139.746525 273.663068 
L 149.935513 273.663068 
L 149.935513 273.136382 
L 151.025293 273.136382 
L 151.056095 272.08301 
L 152.004387 272.08301 
L 152.004387 271.556324 
L 152.212989 271.556324 
L 152.212989 271.029638 
L 152.652833 271.029638 
L 152.652833 270.502952 
L 153.555774 270.502952 
L 153.555774 269.976266 
L 154.510453 269.976266 
L 154.549119 268.922893 
L 154.739513 268.922893 
L 154.739513 268.396207 
L 154.986906 268.396207 
L 154.986906 267.869521 
L 155.188801 267.869521 
L 155.248594 266.816149 
L 155.324253 266.816149 
L 155.324253 266.289463 
L 156.170758 266.289463 
L 156.170758 265.762777 
L 156.418408 265.762777 
L 156.418408 265.236091 
L 157.565585 265.236091 
L 157.565585 264.709405 
L 159.210254 264.709405 
L 159.210254 264.182719 
L 166.281702 264.182719 
L 166.281702 263.656033 
L 166.753428 263.656033 
L 166.753428 263.129347 
L 167.10026 263.129347 
L 167.10026 262.60266 
L 167.406618 262.60266 
L 167.406618 262.075974 
L 167.51953 262.075974 
L 167.51953 261.549288 
L 167.687145 261.549288 
L 167.687145 261.022602 
L 168.088838 261.022602 
L 168.119713 259.96923 
L 168.387568 259.96923 
L 168.478465 258.915858 
L 168.964224 258.915858 
L 168.964224 258.389172 
L 169.092334 258.389172 
L 169.092334 257.862486 
L 169.317706 257.862486 
L 169.323465 256.809114 
L 169.994873 256.809114 
L 169.994873 256.282427 
L 177.503158 256.282427 
L 177.503158 255.755741 
L 178.414194 255.755741 
L 178.414194 255.229055 
L 178.949508 255.229055 
L 178.949508 254.702369 
L 179.873676 254.702369 
L 179.873676 254.175683 
L 180.263909 254.175683 
L 180.353619 253.122311 
L 180.461881 253.122311 
L 180.461881 252.595625 
L 180.713532 252.595625 
L 180.808044 250.488881 
L 180.998862 250.488881 
L 181.00623 249.435508 
L 181.336436 249.435508 
L 181.336436 248.908822 
L 181.485433 248.908822 
L 181.577646 247.85545 
L 181.747918 247.85545 
L 181.747918 247.328764 
L 181.901154 247.328764 
L 182.005119 245.22202 
L 182.208115 245.22202 
L 182.237315 243.641962 
L 182.33111 243.641962 
L 182.381904 242.588589 
L 182.475265 242.588589 
L 182.570823 241.008531 
L 182.663515 241.008531 
L 182.675904 239.955159 
L 182.816585 239.955159 
L 182.913267 228.368065 
L 183.008432 228.368065 
L 183.107326 226.261321 
L 183.171535 226.261321 
L 183.217671 215.200913 
L 183.378838 215.200913 
L 183.382695 204.667192 
L 183.629716 204.667192 
L 183.687613 203.613819 
L 183.92789 203.613819 
L 184.0149 192.553412 
L 184.048346 192.553412 
L 184.048346 191.50004 
L 190.091817 191.50004 
L 190.091817 190.973354 
L 190.712247 190.973354 
L 190.822947 189.919981 
L 190.833014 189.919981 
L 190.882217 188.866609 
L 190.954201 188.866609 
L 191.050133 187.286551 
L 191.06938 187.286551 
L 191.135446 186.233179 
L 191.189763 186.233179 
L 191.205573 185.179807 
L 191.326653 185.179807 
L 191.42867 182.01969 
L 191.548216 182.01969 
L 191.656951 178.859574 
L 191.66275 178.859574 
L 191.729199 176.752829 
L 191.778324 176.752829 
L 191.862331 175.172771 
L 191.891362 175.172771 
L 192.000338 173.066027 
L 192.022287 173.066027 
L 192.125194 169.90591 
L 192.160982 169.90591 
L 192.218786 168.852538 
L 192.272346 168.852538 
L 192.372449 167.799166 
L 192.428984 167.799166 
L 192.508779 166.745794 
L 192.547779 166.745794 
L 192.60356 157.79213 
L 192.670489 157.79213 
L 192.764961 155.685386 
L 192.821736 155.685386 
L 192.93046 152.52527 
L 193.007072 152.52527 
L 193.093851 140.41149 
L 193.150118 140.41149 
L 193.205838 137.778059 
L 193.284532 137.778059 
L 193.383535 107.230267 
L 193.444473 107.230267 
L 193.53683 89.849626 
L 193.564101 89.849626 
L 193.65886 80.369277 
L 193.693061 80.369277 
L 193.787831 58.775147 
L 193.804991 58.775147 
L 193.879624 55.615031 
L 193.928325 55.615031 
L 194.008727 45.607995 
L 194.067697 45.607995 
L 194.160112 32.967529 
L 194.194382 32.967529 
L 194.259793 31.387471 
L 194.330623 31.387471 
L 194.330623 30.334099 
L 338.688 30.334099 
L 338.688 30.334099 
" style="fill:none;stroke:#000080;stroke-linecap:square;stroke-width:1.5;"/>
   </g>
   <g id="line2d_40">
    <g>
     <use style="fill-opacity:0;stroke:#000080;stroke-width:1.5;" x="180.263909" xlink:href="#m0bd316eee8" y="253.648997"/>
     <use style="fill-opacity:0;stroke:#000080;stroke-width:1.5;" x="193.308562" xlink:href="#m0bd316eee8" y="129.351082"/>
     <use style="fill-opacity:0;stroke:#000080;stroke-width:1.5;" x="194.330623" xlink:href="#m0bd316eee8" y="31.387471"/>
     <use style="fill-opacity:0;stroke:#000080;stroke-width:1.5;" x="194.330623" xlink:href="#m0bd316eee8" y="30.334099"/>
     <use style="fill-opacity:0;stroke:#000080;stroke-width:1.5;" x="338.688" xlink:href="#m0bd316eee8" y="30.334099"/>
    </g>
   </g>
   <g id="line2d_41">
    <path style="fill:none;stroke:#000080;stroke-linecap:square;stroke-width:1.5;"/>
    <g/>
   </g>
   <g id="line2d_42">
    <defs>
     <path d="M 0 1.5 
C 0.397805 1.5 0.77937 1.341951 1.06066 1.06066 
C 1.341951 0.77937 1.5 0.397805 1.5 0 
C 1.5 -0.397805 1.341951 -0.77937 1.06066 -1.06066 
C 0.77937 -1.341951 0.397805 -1.5 0 -1.5 
C -0.397805 -1.5 -0.77937 -1.341951 -1.06066 -1.06066 
C -1.341951 -0.77937 -1.5 -0.397805 -1.5 0 
C -1.5 0.397805 -1.341951 0.77937 -1.06066 1.06066 
C -0.77937 1.341951 -0.397805 1.5 0 1.5 
z
" id="m2d22735e31" style="stroke:#ff00ff;"/>
    </defs>
    <g>
     <use style="fill:#ff00ff;stroke:#ff00ff;" x="195.231196" xlink:href="#m2d22735e31" y="30.334099"/>
     <use style="fill:#ff00ff;stroke:#ff00ff;" x="195.231196" xlink:href="#m2d22735e31" y="30.334099"/>
    </g>
   </g>
   <g id="line2d_43">
    <path d="M 118.06717 298.944 
L 118.06717 298.417314 
L 119.664886 298.417314 
L 119.664886 297.890628 
L 122.771887 297.890628 
L 122.771887 297.363942 
L 122.885768 297.363942 
L 122.885768 296.837256 
L 123.484209 296.837256 
L 123.484209 296.31057 
L 123.682497 296.31057 
L 123.682497 295.783884 
L 124.245104 295.783884 
L 124.245104 295.257197 
L 124.632135 295.257197 
L 124.632135 294.730511 
L 125.010763 294.730511 
L 125.010763 294.203825 
L 126.013653 294.203825 
L 126.013653 293.677139 
L 126.515232 293.677139 
L 126.515232 293.150453 
L 127.237527 293.150453 
L 127.237527 292.623767 
L 127.76807 292.623767 
L 127.82258 291.570395 
L 128.229861 291.570395 
L 128.229861 291.043709 
L 128.396166 291.043709 
L 128.441249 289.990337 
L 128.598125 289.990337 
L 128.598125 289.463651 
L 128.987887 289.463651 
L 128.987887 288.936964 
L 129.707355 288.936964 
L 129.707355 288.410278 
L 130.039146 288.410278 
L 130.08701 287.356906 
L 130.344571 287.356906 
L 130.344571 286.83022 
L 130.478617 286.83022 
L 130.478617 286.303534 
L 131.165936 286.303534 
L 131.165936 285.776848 
L 131.477644 285.776848 
L 131.477644 285.250162 
L 131.925787 285.250162 
L 131.925787 284.723476 
L 132.986651 284.723476 
L 132.986651 284.19679 
L 133.347181 284.19679 
L 133.347181 283.670104 
L 133.46572 283.670104 
L 133.46572 283.143418 
L 133.811063 283.143418 
L 133.904572 282.090045 
L 134.380759 282.090045 
L 134.380759 281.563359 
L 135.009836 281.563359 
L 135.045841 280.509987 
L 135.346394 280.509987 
L 135.346394 279.983301 
L 136.184509 279.983301 
L 136.184509 279.456615 
L 136.720123 279.456615 
L 136.720123 278.929929 
L 136.845703 278.929929 
L 136.938146 277.876557 
L 137.203492 277.876557 
L 137.203492 277.349871 
L 137.884679 277.349871 
L 137.884679 276.823185 
L 138.067109 276.823185 
L 138.075748 275.769812 
L 138.221972 275.769812 
L 138.221972 275.243126 
L 138.761723 275.243126 
L 138.761723 274.71644 
L 139.078547 274.71644 
L 139.078547 274.189754 
L 139.216633 274.189754 
L 139.216633 273.663068 
L 139.517421 273.663068 
L 139.517421 273.136382 
L 139.715103 273.136382 
L 139.715103 272.609696 
L 139.844356 272.609696 
L 139.93776 271.556324 
L 140.641435 271.556324 
L 140.641435 271.029638 
L 141.303465 271.029638 
L 141.303465 270.502952 
L 141.62705 270.502952 
L 141.62705 269.976266 
L 142.099725 269.976266 
L 142.099725 269.449579 
L 142.341492 269.449579 
L 142.341492 268.922893 
L 142.472881 268.922893 
L 142.516459 267.869521 
L 143.803587 267.869521 
L 143.803587 267.342835 
L 144.108762 267.342835 
L 144.108762 266.816149 
L 145.051495 266.816149 
L 145.051495 266.289463 
L 145.827205 266.289463 
L 145.827205 265.762777 
L 146.981588 265.762777 
L 146.981588 265.236091 
L 147.597756 265.236091 
L 147.597756 264.709405 
L 148.641609 264.709405 
L 148.641609 264.182719 
L 152.301086 264.182719 
L 152.301086 263.656033 
L 157.491978 263.656033 
L 157.491978 263.129347 
L 164.664833 263.129347 
L 164.664833 262.60266 
L 165.587675 262.60266 
L 165.587675 262.075974 
L 166.411471 262.075974 
L 166.411471 261.549288 
L 166.596758 261.549288 
L 166.596758 261.022602 
L 167.086355 261.022602 
L 167.086355 260.495916 
L 167.280027 260.495916 
L 167.280027 259.96923 
L 167.450749 259.96923 
L 167.548242 258.915858 
L 167.700579 258.915858 
L 167.700579 258.389172 
L 168.323657 258.389172 
L 168.420194 257.3358 
L 168.492813 257.3358 
L 168.492813 256.809114 
L 168.626667 256.809114 
L 168.626667 256.282427 
L 168.803309 256.282427 
L 168.889118 255.229055 
L 169.098897 255.229055 
L 169.182542 253.648997 
L 169.40246 253.648997 
L 169.40246 253.122311 
L 169.722652 253.122311 
L 169.803365 252.068939 
L 171.645677 252.068939 
L 171.645677 251.542253 
L 171.983237 251.542253 
L 171.983237 251.015567 
L 172.630434 251.015567 
L 172.689284 249.962195 
L 180.936844 249.962195 
L 180.936844 249.435508 
L 181.094776 249.435508 
L 181.094776 248.908822 
L 181.29772 248.908822 
L 181.327037 247.85545 
L 181.479339 247.85545 
L 181.586199 246.275392 
L 181.625703 246.275392 
L 181.699134 245.22202 
L 181.796565 245.22202 
L 181.904303 242.588589 
L 181.978315 242.588589 
L 182.026325 241.008531 
L 182.221862 241.008531 
L 182.281536 239.428473 
L 182.392793 239.428473 
L 182.498612 237.848415 
L 182.643071 237.848415 
L 182.737383 236.268356 
L 182.764712 236.268356 
L 182.826543 235.214984 
L 182.879556 235.214984 
L 182.932738 232.581554 
L 183.068752 232.581554 
L 183.175764 229.948123 
L 183.190069 229.948123 
L 183.287941 217.834344 
L 183.314743 217.834344 
L 183.418016 207.300622 
L 183.431803 207.300622 
L 183.516853 205.193878 
L 183.553176 205.193878 
L 183.651252 203.613819 
L 183.671813 203.613819 
L 183.702451 201.507075 
L 183.801263 201.507075 
L 183.906693 188.339923 
L 183.972382 188.339923 
L 184.064117 178.332888 
L 184.136298 178.332888 
L 184.24034 173.592713 
L 184.260218 173.592713 
L 184.35532 172.012655 
L 184.375068 172.012655 
L 184.459276 153.051956 
L 184.532551 153.051956 
L 184.607018 150.945211 
L 184.67311 150.945211 
L 184.776975 148.311781 
L 184.828825 148.311781 
L 184.91382 145.678351 
L 184.995472 145.678351 
L 185.078203 121.977477 
L 185.165767 121.977477 
L 185.241918 112.497128 
L 185.327803 112.497128 
L 185.385781 110.390383 
L 185.464688 110.390383 
L 185.488063 109.337011 
L 185.669995 109.337011 
L 185.669995 108.810325 
L 185.848654 108.810325 
L 185.901312 101.43672 
L 186.020252 101.43672 
L 186.020252 100.910034 
L 186.174301 100.910034 
L 186.184978 99.329976 
L 186.38392 99.329976 
L 186.481335 87.216196 
L 186.496129 87.216196 
L 186.496129 86.162824 
L 192.60015 86.162824 
L 192.697264 85.109451 
L 193.002629 85.109451 
L 193.002629 84.582765 
L 193.234362 84.582765 
L 193.234362 84.056079 
L 193.428581 84.056079 
L 193.501961 81.949335 
L 193.58399 81.949335 
L 193.64459 72.995672 
L 193.824606 72.995672 
L 193.930608 69.835555 
L 193.984768 69.835555 
L 194.02375 59.82852 
L 194.200952 59.82852 
L 194.229448 57.195089 
L 194.439229 57.195089 
L 194.439229 56.668403 
L 194.646347 56.668403 
L 194.646347 56.141717 
L 194.860524 56.141717 
L 194.860524 55.615031 
L 194.99399 55.615031 
L 195.095928 34.020902 
L 195.114965 34.020902 
L 195.191885 31.914157 
L 195.231196 31.914157 
L 195.231196 30.334099 
L 338.688 30.334099 
L 338.688 30.334099 
" style="fill:none;stroke:#ff00ff;stroke-linecap:square;stroke-width:1.5;"/>
   </g>
   <g id="line2d_44">
    <defs>
     <path d="M -0 8.485281 
L 5.091169 0 
L 0 -8.485281 
L -5.091169 -0 
z
" id="m307d9c1fbe" style="stroke:#ff00ff;stroke-linejoin:miter;stroke-width:1.5;"/>
    </defs>
    <g>
     <use style="fill-opacity:0;stroke:#ff00ff;stroke-linejoin:miter;stroke-width:1.5;" x="183.400364" xlink:href="#m307d9c1fbe" y="215.727599"/>
     <use style="fill-opacity:0;stroke:#ff00ff;stroke-linejoin:miter;stroke-width:1.5;" x="195.231196" xlink:href="#m307d9c1fbe" y="31.914157"/>
     <use style="fill-opacity:0;stroke:#ff00ff;stroke-linejoin:miter;stroke-width:1.5;" x="195.231196" xlink:href="#m307d9c1fbe" y="30.334099"/>
     <use style="fill-opacity:0;stroke:#ff00ff;stroke-linejoin:miter;stroke-width:1.5;" x="195.231196" xlink:href="#m307d9c1fbe" y="30.334099"/>
     <use style="fill-opacity:0;stroke:#ff00ff;stroke-linejoin:miter;stroke-width:1.5;" x="338.688" xlink:href="#m307d9c1fbe" y="30.334099"/>
    </g>
   </g>
   <g id="line2d_45">
    <path style="fill:none;stroke:#ff00ff;stroke-linecap:square;stroke-width:1.5;"/>
    <g/>
   </g>
   <g id="line2d_46">
    <defs>
     <path d="M 0 1.5 
C 0.397805 1.5 0.77937 1.341951 1.06066 1.06066 
C 1.341951 0.77937 1.5 0.397805 1.5 0 
C 1.5 -0.397805 1.341951 -0.77937 1.06066 -1.06066 
C 0.77937 -1.341951 0.397805 -1.5 0 -1.5 
C -0.397805 -1.5 -0.77937 -1.341951 -1.06066 -1.06066 
C -1.341951 -0.77937 -1.5 -0.397805 -1.5 0 
C -1.5 0.397805 -1.341951 0.77937 -1.06066 1.06066 
C -0.77937 1.341951 -0.397805 1.5 0 1.5 
z
" id="m1dea68190b" style="stroke:#ff0000;"/>
    </defs>
    <g>
     <use style="fill:#ff0000;stroke:#ff0000;" x="198.548052" xlink:href="#m1dea68190b" y="30.334099"/>
     <use style="fill:#ff0000;stroke:#ff0000;" x="198.548052" xlink:href="#m1dea68190b" y="30.334099"/>
    </g>
   </g>
   <g id="line2d_47">
    <path d="M 114.233425 298.944 
L 114.233425 298.417314 
L 116.368262 298.417314 
L 116.368262 297.890628 
L 116.665614 297.890628 
L 116.665614 297.363942 
L 118.310324 297.363942 
L 118.350522 296.31057 
L 118.642511 296.31057 
L 118.642511 295.783884 
L 118.942633 295.783884 
L 118.942633 295.257197 
L 119.186723 295.257197 
L 119.237678 294.203825 
L 119.923616 294.203825 
L 119.923616 293.677139 
L 120.536427 293.677139 
L 120.642369 292.623767 
L 121.128432 292.623767 
L 121.128432 292.097081 
L 121.931406 292.097081 
L 121.931406 291.570395 
L 122.11572 291.570395 
L 122.11572 291.043709 
L 122.383281 291.043709 
L 122.383281 290.517023 
L 122.510267 290.517023 
L 122.541869 289.463651 
L 122.865118 289.463651 
L 122.865118 288.936964 
L 123.770997 288.936964 
L 123.770997 288.410278 
L 124.178158 288.410278 
L 124.178158 287.883592 
L 124.311793 287.883592 
L 124.368753 286.83022 
L 124.715955 286.83022 
L 124.715955 286.303534 
L 124.909984 286.303534 
L 124.909984 285.776848 
L 125.345535 285.776848 
L 125.345535 285.250162 
L 125.779216 285.250162 
L 125.779216 284.723476 
L 125.927192 284.723476 
L 125.927192 284.19679 
L 126.073922 284.19679 
L 126.073922 283.670104 
L 126.464878 283.670104 
L 126.464878 283.143418 
L 126.640485 283.143418 
L 126.640485 282.616732 
L 127.181154 282.616732 
L 127.181154 282.090045 
L 127.413521 282.090045 
L 127.413521 281.563359 
L 127.869168 281.563359 
L 127.869168 281.036673 
L 128.267797 281.036673 
L 128.267797 280.509987 
L 128.433743 280.509987 
L 128.433743 279.983301 
L 128.91501 279.983301 
L 128.91501 279.456615 
L 129.103859 279.456615 
L 129.103859 278.929929 
L 129.510854 278.929929 
L 129.51791 277.876557 
L 129.825588 277.876557 
L 129.825588 277.349871 
L 130.263646 277.349871 
L 130.263646 276.823185 
L 130.624887 276.823185 
L 130.624887 276.296499 
L 130.985283 276.296499 
L 130.985283 275.769812 
L 131.783878 275.769812 
L 131.783878 275.243126 
L 132.765529 275.243126 
L 132.765529 274.71644 
L 133.605795 274.71644 
L 133.605795 274.189754 
L 134.343353 274.189754 
L 134.343353 273.663068 
L 134.497802 273.663068 
L 134.497802 273.136382 
L 134.687647 273.136382 
L 134.687647 272.609696 
L 135.557235 272.609696 
L 135.557235 272.08301 
L 136.290085 272.08301 
L 136.290085 271.556324 
L 136.428285 271.556324 
L 136.475687 270.502952 
L 136.896607 270.502952 
L 136.896607 269.976266 
L 140.276024 269.976266 
L 140.276024 269.449579 
L 155.295316 269.449579 
L 155.295316 268.922893 
L 156.30945 268.922893 
L 156.30945 268.396207 
L 157.436568 268.396207 
L 157.51466 267.342835 
L 158.641936 267.342835 
L 158.641936 266.816149 
L 159.349804 266.816149 
L 159.349804 266.289463 
L 159.545084 266.289463 
L 159.545084 265.762777 
L 160.159573 265.762777 
L 160.159573 265.236091 
L 160.65758 265.236091 
L 160.65758 264.709405 
L 160.77196 264.709405 
L 160.77196 264.182719 
L 161.008931 264.182719 
L 161.051778 263.129347 
L 161.704458 263.129347 
L 161.704458 262.60266 
L 171.768103 262.60266 
L 171.768103 262.075974 
L 171.902096 262.075974 
L 171.93311 261.022602 
L 172.344071 261.022602 
L 172.344071 260.495916 
L 173.04234 260.495916 
L 173.072554 259.442544 
L 173.306673 259.442544 
L 173.402068 256.809114 
L 173.427684 256.809114 
L 173.533733 255.755741 
L 173.681799 255.755741 
L 173.747266 254.702369 
L 173.899075 254.702369 
L 174.003955 252.595625 
L 174.274269 252.595625 
L 174.341333 251.015567 
L 174.401148 251.015567 
L 174.492361 249.962195 
L 174.611292 249.962195 
L 174.722024 247.328764 
L 174.78055 247.328764 
L 174.78055 246.802078 
L 175.08424 246.802078 
L 175.08424 246.275392 
L 175.293514 246.275392 
L 175.370523 244.695334 
L 175.499298 244.695334 
L 175.594505 243.641962 
L 175.748055 243.641962 
L 175.748055 243.115275 
L 176.111735 243.115275 
L 176.111735 242.588589 
L 176.311515 242.588589 
L 176.311515 242.061903 
L 176.472764 242.061903 
L 176.511891 233.634926 
L 176.691132 233.634926 
L 176.745769 232.581554 
L 176.81851 232.581554 
L 176.871817 231.528182 
L 177.697497 231.528182 
L 177.697497 231.001496 
L 185.047846 231.001496 
L 185.155027 229.948123 
L 185.282896 229.948123 
L 185.387786 228.894751 
L 185.438425 228.894751 
L 185.488347 226.788007 
L 185.648839 226.788007 
L 185.732467 225.734635 
L 185.800313 225.734635 
L 185.882106 223.627891 
L 185.978757 223.627891 
L 186.057513 222.047832 
L 186.119989 222.047832 
L 186.227078 218.887716 
L 186.37986 218.887716 
L 186.47649 216.254285 
L 186.493171 216.254285 
L 186.598802 204.667192 
L 186.623642 204.667192 
L 186.731141 200.453703 
L 186.760826 200.453703 
L 186.856954 190.973354 
L 186.890632 190.973354 
L 186.994413 188.339923 
L 187.018957 188.339923 
L 187.090045 185.706493 
L 187.207884 185.706493 
L 187.313135 156.738758 
L 187.386869 156.738758 
L 187.475296 145.678351 
L 187.515918 145.678351 
L 187.606722 128.29771 
L 187.636466 128.29771 
L 187.73967 115.657244 
L 187.772187 115.657244 
L 187.840275 109.337011 
L 187.961576 109.337011 
L 188.047389 107.230267 
L 188.226039 107.230267 
L 188.317831 98.803289 
L 188.360165 98.803289 
L 188.412998 85.109451 
L 188.503334 85.109451 
L 188.573645 83.002707 
L 188.617982 83.002707 
L 188.617982 82.476021 
L 188.799394 82.476021 
L 188.868758 69.835555 
L 188.918203 69.835555 
L 188.918203 69.308869 
L 189.123613 69.308869 
L 189.123613 68.782183 
L 189.485685 68.782183 
L 189.485685 68.255497 
L 190.031111 68.255497 
L 190.115429 57.721775 
L 190.278089 57.721775 
L 190.278089 57.195089 
L 196.320217 57.195089 
L 196.320217 56.668403 
L 196.722251 56.668403 
L 196.722251 56.141717 
L 196.956706 56.141717 
L 197.023433 55.088345 
L 197.248386 55.088345 
L 197.357764 54.034973 
L 197.664279 54.034973 
L 197.720731 45.607995 
L 197.779396 45.607995 
L 197.779396 45.081309 
L 197.922685 45.081309 
L 197.951843 42.974565 
L 198.244341 42.974565 
L 198.244341 42.447879 
L 198.434525 42.447879 
L 198.505701 31.914157 
L 198.548052 31.914157 
L 198.548052 30.334099 
L 338.688 30.334099 
L 338.688 30.334099 
" style="fill:none;stroke:#ff0000;stroke-linecap:square;stroke-width:1.5;"/>
   </g>
   <g id="line2d_48">
    <defs>
     <path d="M 0 -6 
L -5.196152 -3 
L -5.196152 3 
L -0 6 
L 5.196152 3 
L 5.196152 -3 
z
" id="m32cd8067e4" style="stroke:#ff0000;stroke-linejoin:miter;stroke-width:1.5;"/>
    </defs>
    <g>
     <use style="fill-opacity:0;stroke:#ff0000;stroke-linejoin:miter;stroke-width:1.5;" x="175.370523" xlink:href="#m32cd8067e4" y="245.22202"/>
     <use style="fill-opacity:0;stroke:#ff0000;stroke-linejoin:miter;stroke-width:1.5;" x="188.257905" xlink:href="#m32cd8067e4" y="106.176895"/>
     <use style="fill-opacity:0;stroke:#ff0000;stroke-linejoin:miter;stroke-width:1.5;" x="198.548052" xlink:href="#m32cd8067e4" y="31.914157"/>
     <use style="fill-opacity:0;stroke:#ff0000;stroke-linejoin:miter;stroke-width:1.5;" x="198.548052" xlink:href="#m32cd8067e4" y="30.334099"/>
     <use style="fill-opacity:0;stroke:#ff0000;stroke-linejoin:miter;stroke-width:1.5;" x="338.688" xlink:href="#m32cd8067e4" y="30.334099"/>
    </g>
   </g>
   <g id="line2d_49">
    <path style="fill:none;stroke:#ff0000;stroke-linecap:square;stroke-width:1.5;"/>
    <g/>
   </g>
   <g id="line2d_50">
    <defs>
     <path d="M 0 1.5 
C 0.397805 1.5 0.77937 1.341951 1.06066 1.06066 
C 1.341951 0.77937 1.5 0.397805 1.5 0 
C 1.5 -0.397805 1.341951 -0.77937 1.06066 -1.06066 
C 0.77937 -1.341951 0.397805 -1.5 0 -1.5 
C -0.397805 -1.5 -0.77937 -1.341951 -1.06066 -1.06066 
C -1.341951 -0.77937 -1.5 -0.397805 -1.5 0 
C -1.5 0.397805 -1.341951 0.77937 -1.06066 1.06066 
C -0.77937 1.341951 -0.397805 1.5 0 1.5 
z
" id="m7173e032cf" style="stroke:#ff7500;"/>
    </defs>
    <g>
     <use style="fill:#ff7500;stroke:#ff7500;" x="196.528973" xlink:href="#m7173e032cf" y="30.334099"/>
     <use style="fill:#ff7500;stroke:#ff7500;" x="196.528973" xlink:href="#m7173e032cf" y="30.334099"/>
    </g>
   </g>
   <g id="line2d_51">
    <path d="M 110.231452 298.944 
L 110.231452 298.417314 
L 110.464402 298.417314 
L 110.506425 297.363942 
L 110.631888 297.363942 
L 110.631888 296.837256 
L 112.950158 296.837256 
L 112.950158 296.31057 
L 113.506683 296.31057 
L 113.506683 295.783884 
L 115.253749 295.783884 
L 115.253749 295.257197 
L 115.927891 295.257197 
L 115.927891 294.730511 
L 116.398226 294.730511 
L 116.398226 294.203825 
L 117.429921 294.203825 
L 117.429921 293.677139 
L 118.039942 293.677139 
L 118.039942 293.150453 
L 118.363901 293.150453 
L 118.443959 292.097081 
L 118.550135 292.097081 
L 118.655668 290.517023 
L 118.786692 290.517023 
L 118.799741 289.463651 
L 120.677541 289.463651 
L 120.677541 288.936964 
L 121.162638 288.936964 
L 121.162638 288.410278 
L 121.400219 288.410278 
L 121.400219 287.883592 
L 121.678897 287.883592 
L 121.745122 286.303534 
L 121.833033 286.303534 
L 121.833033 285.776848 
L 122.35139 285.776848 
L 122.35139 285.250162 
L 123.060317 285.250162 
L 123.060317 284.723476 
L 123.28364 284.723476 
L 123.28364 284.19679 
L 123.682497 284.19679 
L 123.741547 283.143418 
L 124.235556 283.143418 
L 124.302282 281.563359 
L 125.038147 281.563359 
L 125.038147 281.036673 
L 125.752972 281.036673 
L 125.752972 280.509987 
L 125.8838 280.509987 
L 125.8838 279.983301 
L 126.389073 279.983301 
L 126.389073 279.456615 
L 127.82258 279.456615 
L 127.82258 278.929929 
L 128.657518 278.929929 
L 128.657518 278.403243 
L 129.002426 278.403243 
L 129.002426 277.876557 
L 129.644435 277.876557 
L 129.644435 277.349871 
L 130.14155 277.349871 
L 130.14155 276.823185 
L 130.411722 276.823185 
L 130.411722 276.296499 
L 130.743656 276.296499 
L 130.743656 275.769812 
L 133.46572 275.769812 
L 133.572279 274.71644 
L 133.628103 274.71644 
L 133.628103 274.189754 
L 134.057501 274.189754 
L 134.057501 273.663068 
L 134.300504 273.663068 
L 134.300504 273.136382 
L 134.592983 273.136382 
L 134.592983 272.609696 
L 135.497254 272.609696 
L 135.497254 272.08301 
L 136.20856 272.08301 
L 136.20856 271.556324 
L 137.048434 271.556324 
L 137.048434 271.029638 
L 137.230712 271.029638 
L 137.230712 270.502952 
L 152.634101 270.502952 
L 152.634101 269.976266 
L 155.939709 269.976266 
L 155.939709 269.449579 
L 156.222706 269.449579 
L 156.222706 268.922893 
L 156.616413 268.922893 
L 156.616413 268.396207 
L 156.843141 268.396207 
L 156.843141 267.869521 
L 157.243392 267.869521 
L 157.243392 267.342835 
L 158.028356 267.342835 
L 158.028356 266.816149 
L 158.316209 266.816149 
L 158.316209 266.289463 
L 158.705563 266.289463 
L 158.733328 265.236091 
L 159.985851 265.236091 
L 159.985851 264.709405 
L 160.960166 264.709405 
L 160.960166 264.182719 
L 167.267884 264.182719 
L 167.267884 263.656033 
L 167.562581 263.656033 
L 167.562581 263.129347 
L 167.98889 263.129347 
L 167.98889 262.60266 
L 169.041934 262.60266 
L 169.041934 262.075974 
L 169.397444 262.075974 
L 169.397444 261.549288 
L 169.75779 261.549288 
L 169.776736 260.495916 
L 170.434614 260.495916 
L 170.460258 259.442544 
L 170.61133 259.442544 
L 170.61133 258.915858 
L 170.961444 258.915858 
L 170.961444 258.389172 
L 171.083546 258.389172 
L 171.083546 257.862486 
L 171.345738 257.862486 
L 171.380315 256.809114 
L 172.033219 256.809114 
L 172.033219 256.282427 
L 172.195749 256.282427 
L 172.195749 255.755741 
L 175.058356 255.755741 
L 175.058356 255.229055 
L 180.064053 255.229055 
L 180.064053 254.702369 
L 180.37502 254.702369 
L 180.37502 254.175683 
L 181.078277 254.175683 
L 181.182146 253.122311 
L 181.206924 253.122311 
L 181.261458 251.542253 
L 181.461765 251.542253 
L 181.510142 250.488881 
L 181.708336 250.488881 
L 181.735558 249.435508 
L 181.850342 249.435508 
L 181.958446 247.85545 
L 182.011379 247.85545 
L 182.11642 246.802078 
L 182.384286 246.802078 
L 182.439677 245.22202 
L 182.584623 245.22202 
L 182.650783 242.588589 
L 182.720031 242.588589 
L 182.80064 241.008531 
L 182.902368 241.008531 
L 183.005148 237.321729 
L 183.128864 237.321729 
L 183.176414 235.214984 
L 183.249441 235.214984 
L 183.249441 234.688298 
L 183.364043 234.688298 
L 183.414487 232.054868 
L 183.536298 232.054868 
L 183.63542 218.887716 
L 183.651885 218.887716 
L 183.745947 214.147541 
L 183.764825 214.147541 
L 183.864848 204.667192 
L 183.88266 204.667192 
L 183.983875 200.453703 
L 183.996912 200.453703 
L 184.094074 186.759865 
L 184.1286 186.759865 
L 184.171047 184.653121 
L 184.288315 184.653121 
L 184.39267 181.493004 
L 184.459881 181.493004 
L 184.546989 168.852538 
L 184.573127 168.852538 
L 184.659673 166.745794 
L 184.699358 166.745794 
L 184.807215 154.632014 
L 184.843019 154.632014 
L 184.942941 139.884804 
L 184.968786 139.884804 
L 185.055732 129.351082 
L 185.08316 129.351082 
L 185.157059 116.710616 
L 185.194761 116.710616 
L 185.299029 98.276603 
L 185.318601 98.276603 
L 185.380336 88.269568 
L 185.474384 88.269568 
L 185.579833 74.57573 
L 185.68831 74.57573 
L 185.68831 74.049044 
L 192.691422 74.049044 
L 192.691422 73.522358 
L 192.958324 73.522358 
L 192.958324 72.995672 
L 193.337645 72.995672 
L 193.337645 72.468985 
L 193.667773 72.468985 
L 193.667773 71.942299 
L 193.8643 71.942299 
L 193.896694 70.888927 
L 194.012746 70.888927 
L 194.109622 69.835555 
L 194.277183 69.835555 
L 194.277183 69.308869 
L 194.45116 69.308869 
L 194.45116 68.782183 
L 194.71462 68.782183 
L 194.816697 57.721775 
L 194.844539 57.721775 
L 194.929291 55.615031 
L 194.963243 55.615031 
L 195.039186 45.081309 
L 195.290403 45.081309 
L 195.304362 42.974565 
L 195.452192 42.974565 
L 195.495095 41.921193 
L 195.64387 41.921193 
L 195.64387 41.394507 
L 195.925458 41.394507 
L 195.934849 30.860785 
L 196.528973 30.860785 
L 196.528973 30.334099 
L 338.688 30.334099 
L 338.688 30.334099 
" style="fill:none;stroke:#ff7500;stroke-linecap:square;stroke-width:1.5;"/>
   </g>
   <g id="line2d_52">
    <defs>
     <path d="M 0 -6 
L -1.347084 -1.854102 
L -5.706339 -1.854102 
L -2.179628 0.708204 
L -3.526712 4.854102 
L -0 2.291796 
L 3.526712 4.854102 
L 2.179628 0.708204 
L 5.706339 -1.854102 
L 1.347084 -1.854102 
z
" id="m9dbc4bd2df" style="stroke:#ff7500;stroke-linejoin:bevel;stroke-width:1.5;"/>
    </defs>
    <g>
     <use style="fill-opacity:0;stroke:#ff7500;stroke-linejoin:bevel;stroke-width:1.5;" x="183.249441" xlink:href="#m9dbc4bd2df" y="234.688298"/>
     <use style="fill-opacity:0;stroke:#ff7500;stroke-linejoin:bevel;stroke-width:1.5;" x="195.039186" xlink:href="#m9dbc4bd2df" y="45.081309"/>
     <use style="fill-opacity:0;stroke:#ff7500;stroke-linejoin:bevel;stroke-width:1.5;" x="196.528973" xlink:href="#m9dbc4bd2df" y="30.334099"/>
     <use style="fill-opacity:0;stroke:#ff7500;stroke-linejoin:bevel;stroke-width:1.5;" x="196.528973" xlink:href="#m9dbc4bd2df" y="30.334099"/>
     <use style="fill-opacity:0;stroke:#ff7500;stroke-linejoin:bevel;stroke-width:1.5;" x="338.688" xlink:href="#m9dbc4bd2df" y="30.334099"/>
    </g>
   </g>
   <g id="line2d_53">
    <path style="fill:none;stroke:#ff7500;stroke-linecap:square;stroke-width:1.5;"/>
    <g/>
   </g>
   <g id="line2d_54">
    <path d="M 338.688 30.334099 
L 369.60768 293.571802 
" style="fill:none;stroke:#ff0000;stroke-linecap:square;stroke-width:1.5;"/>
    <g>
     <use style="fill-opacity:0;stroke:#ff0000;stroke-linejoin:miter;stroke-width:1.5;" x="338.688" xlink:href="#m32cd8067e4" y="30.334099"/>
     <use style="fill-opacity:0;stroke:#ff0000;stroke-linejoin:miter;stroke-width:1.5;" x="369.60768" xlink:href="#m32cd8067e4" y="293.571802"/>
    </g>
   </g>
   <g id="line2d_55">
    <path d="M 338.688 30.334099 
L 369.60768 241.998701 
" style="fill:none;stroke:#ff7500;stroke-linecap:square;stroke-width:1.5;"/>
    <g>
     <use style="fill-opacity:0;stroke:#ff7500;stroke-linejoin:bevel;stroke-width:1.5;" x="338.688" xlink:href="#m9dbc4bd2df" y="30.334099"/>
     <use style="fill-opacity:0;stroke:#ff7500;stroke-linejoin:bevel;stroke-width:1.5;" x="369.60768" xlink:href="#m9dbc4bd2df" y="241.998701"/>
    </g>
   </g>
   <g id="line2d_56">
    <path d="M 338.688 30.334099 
L 369.60768 190.4256 
" style="fill:none;stroke:#ff00ff;stroke-linecap:square;stroke-width:1.5;"/>
    <g>
     <use style="fill-opacity:0;stroke:#ff00ff;stroke-linejoin:miter;stroke-width:1.5;" x="338.688" xlink:href="#m307d9c1fbe" y="30.334099"/>
     <use style="fill-opacity:0;stroke:#ff00ff;stroke-linejoin:miter;stroke-width:1.5;" x="369.60768" xlink:href="#m307d9c1fbe" y="190.4256"/>
    </g>
   </g>
   <g id="line2d_57">
    <path d="M 338.688 30.334099 
L 369.60768 138.852499 
" style="fill:none;stroke:#000080;stroke-linecap:square;stroke-width:1.5;"/>
    <g>
     <use style="fill-opacity:0;stroke:#000080;stroke-width:1.5;" x="338.688" xlink:href="#m0bd316eee8" y="30.334099"/>
     <use style="fill-opacity:0;stroke:#000080;stroke-width:1.5;" x="369.60768" xlink:href="#m0bd316eee8" y="138.852499"/>
    </g>
   </g>
   <g id="line2d_58">
    <path d="M 338.688 30.334099 
L 369.60768 87.279398 
" style="fill:none;stroke:#000080;stroke-linecap:square;stroke-width:1.5;"/>
    <g>
     <use style="fill-opacity:0;stroke:#000080;stroke-width:1.5;" x="338.688" xlink:href="#m0bd316eee8" y="30.334099"/>
     <use style="fill-opacity:0;stroke:#000080;stroke-width:1.5;" x="369.60768" xlink:href="#m0bd316eee8" y="87.279398"/>
    </g>
   </g>
   <g id="line2d_59">
    <path d="M 338.688 298.944 
L 338.688 30.334099 
" style="fill:none;stroke:#000000;stroke-linecap:square;stroke-width:1.5;"/>
   </g>
   <g id="patch_3">
    <path d="M 57.6 298.944 
L 57.6 27.648 
" style="fill:none;stroke:#000000;stroke-linecap:square;stroke-linejoin:miter;stroke-width:0.8;"/>
   </g>
   <g id="patch_4">
    <path d="M 338.688 298.944 
L 338.688 27.648 
" style="fill:none;stroke:#000000;stroke-linecap:square;stroke-linejoin:miter;stroke-width:0.8;"/>
   </g>
   <g id="patch_5">
    <path d="M 57.6 298.944 
L 338.688 298.944 
" style="fill:none;stroke:#000000;stroke-linecap:square;stroke-linejoin:miter;stroke-width:0.8;"/>
   </g>
   <g id="patch_6">
    <path d="M 57.6 27.648 
L 338.688 27.648 
" style="fill:none;stroke:#000000;stroke-linecap:square;stroke-linejoin:miter;stroke-width:0.8;"/>
   </g>
   <g id="text_13">
    <!-- 050s-2e4 -->
    <defs>
     <path d="M 10.796875 72.90625 
L 49.515625 72.90625 
L 49.515625 64.59375 
L 19.828125 64.59375 
L 19.828125 46.734375 
Q 21.96875 47.46875 24.109375 47.828125 
Q 26.265625 48.1875 28.421875 48.1875 
Q 40.625 48.1875 47.75 41.5 
Q 54.890625 34.8125 54.890625 23.390625 
Q 54.890625 11.625 47.5625 5.09375 
Q 40.234375 -1.421875 26.90625 -1.421875 
Q 22.3125 -1.421875 17.546875 -0.640625 
Q 12.796875 0.140625 7.71875 1.703125 
L 7.71875 11.625 
Q 12.109375 9.234375 16.796875 8.0625 
Q 21.484375 6.890625 26.703125 6.890625 
Q 35.15625 6.890625 40.078125 11.328125 
Q 45.015625 15.765625 45.015625 23.390625 
Q 45.015625 31 40.078125 35.4375 
Q 35.15625 39.890625 26.703125 39.890625 
Q 22.75 39.890625 18.8125 39.015625 
Q 14.890625 38.140625 10.796875 36.28125 
z
" id="DejaVuSans-53"/>
    </defs>
    <g transform="translate(375.22944 298.262739)scale(0.17 -0.17)">
     <use xlink:href="#DejaVuSans-48"/>
     <use x="63.623047" xlink:href="#DejaVuSans-53"/>
     <use x="127.246094" xlink:href="#DejaVuSans-48"/>
     <use x="190.869141" xlink:href="#DejaVuSans-115"/>
     <use x="242.96875" xlink:href="#DejaVuSans-45"/>
     <use x="279.052734" xlink:href="#DejaVuSans-50"/>
     <use x="342.675781" xlink:href="#DejaVuSans-101"/>
     <use x="404.199219" xlink:href="#DejaVuSans-52"/>
    </g>
   </g>
   <g id="text_14">
    <!-- 075s-2e4 -->
    <defs>
     <path d="M 8.203125 72.90625 
L 55.078125 72.90625 
L 55.078125 68.703125 
L 28.609375 0 
L 18.3125 0 
L 43.21875 64.59375 
L 8.203125 64.59375 
z
" id="DejaVuSans-55"/>
    </defs>
    <g transform="translate(375.22944 246.689638)scale(0.17 -0.17)">
     <use xlink:href="#DejaVuSans-48"/>
     <use x="63.623047" xlink:href="#DejaVuSans-55"/>
     <use x="127.246094" xlink:href="#DejaVuSans-53"/>
     <use x="190.869141" xlink:href="#DejaVuSans-115"/>
     <use x="242.96875" xlink:href="#DejaVuSans-45"/>
     <use x="279.052734" xlink:href="#DejaVuSans-50"/>
     <use x="342.675781" xlink:href="#DejaVuSans-101"/>
     <use x="404.199219" xlink:href="#DejaVuSans-52"/>
    </g>
   </g>
   <g id="text_15">
    <!-- 025s-2e4 -->
    <g transform="translate(375.22944 195.116537)scale(0.17 -0.17)">
     <use xlink:href="#DejaVuSans-48"/>
     <use x="63.623047" xlink:href="#DejaVuSans-50"/>
     <use x="127.246094" xlink:href="#DejaVuSans-53"/>
     <use x="190.869141" xlink:href="#DejaVuSans-115"/>
     <use x="242.96875" xlink:href="#DejaVuSans-45"/>
     <use x="279.052734" xlink:href="#DejaVuSans-50"/>
     <use x="342.675781" xlink:href="#DejaVuSans-101"/>
     <use x="404.199219" xlink:href="#DejaVuSans-52"/>
    </g>
   </g>
   <g id="text_16">
    <!-- 100-2e4 -->
    <g transform="translate(375.22944 143.543437)scale(0.17 -0.17)">
     <use xlink:href="#DejaVuSans-49"/>
     <use x="63.623047" xlink:href="#DejaVuSans-48"/>
     <use x="127.246094" xlink:href="#DejaVuSans-48"/>
     <use x="190.869141" xlink:href="#DejaVuSans-45"/>
     <use x="226.953125" xlink:href="#DejaVuSans-50"/>
     <use x="290.576172" xlink:href="#DejaVuSans-101"/>
     <use x="352.099609" xlink:href="#DejaVuSans-52"/>
    </g>
   </g>
   <g id="text_17">
    <!-- 100-1e5 -->
    <g transform="translate(375.22944 91.970336)scale(0.17 -0.17)">
     <use xlink:href="#DejaVuSans-49"/>
     <use x="63.623047" xlink:href="#DejaVuSans-48"/>
     <use x="127.246094" xlink:href="#DejaVuSans-48"/>
     <use x="190.869141" xlink:href="#DejaVuSans-45"/>
     <use x="226.953125" xlink:href="#DejaVuSans-49"/>
     <use x="290.576172" xlink:href="#DejaVuSans-101"/>
     <use x="352.099609" xlink:href="#DejaVuSans-53"/>
    </g>
   </g>
   <g id="text_18">
    <!-- best 2009 -->
    <defs>
     <path d="M 48.6875 27.296875 
Q 48.6875 37.203125 44.609375 42.84375 
Q 40.53125 48.484375 33.40625 48.484375 
Q 26.265625 48.484375 22.1875 42.84375 
Q 18.109375 37.203125 18.109375 27.296875 
Q 18.109375 17.390625 22.1875 11.75 
Q 26.265625 6.109375 33.40625 6.109375 
Q 40.53125 6.109375 44.609375 11.75 
Q 48.6875 17.390625 48.6875 27.296875 
z
M 18.109375 46.390625 
Q 20.953125 51.265625 25.265625 53.625 
Q 29.59375 56 35.59375 56 
Q 45.5625 56 51.78125 48.09375 
Q 58.015625 40.1875 58.015625 27.296875 
Q 58.015625 14.40625 51.78125 6.484375 
Q 45.5625 -1.421875 35.59375 -1.421875 
Q 29.59375 -1.421875 25.265625 0.953125 
Q 20.953125 3.328125 18.109375 8.203125 
L 18.109375 0 
L 9.078125 0 
L 9.078125 75.984375 
L 18.109375 75.984375 
z
" id="DejaVuSans-98"/>
     <path d="M 10.984375 1.515625 
L 10.984375 10.5 
Q 14.703125 8.734375 18.5 7.8125 
Q 22.3125 6.890625 25.984375 6.890625 
Q 35.75 6.890625 40.890625 13.453125 
Q 46.046875 20.015625 46.78125 33.40625 
Q 43.953125 29.203125 39.59375 26.953125 
Q 35.25 24.703125 29.984375 24.703125 
Q 19.046875 24.703125 12.671875 31.3125 
Q 6.296875 37.9375 6.296875 49.421875 
Q 6.296875 60.640625 12.9375 67.421875 
Q 19.578125 74.21875 30.609375 74.21875 
Q 43.265625 74.21875 49.921875 64.515625 
Q 56.59375 54.828125 56.59375 36.375 
Q 56.59375 19.140625 48.40625 8.859375 
Q 40.234375 -1.421875 26.421875 -1.421875 
Q 22.703125 -1.421875 18.890625 -0.6875 
Q 15.09375 0.046875 10.984375 1.515625 
z
M 30.609375 32.421875 
Q 37.25 32.421875 41.125 36.953125 
Q 45.015625 41.5 45.015625 49.421875 
Q 45.015625 57.28125 41.125 61.84375 
Q 37.25 66.40625 30.609375 66.40625 
Q 23.96875 66.40625 20.09375 61.84375 
Q 16.21875 57.28125 16.21875 49.421875 
Q 16.21875 41.5 20.09375 36.953125 
Q 23.96875 32.421875 30.609375 32.421875 
z
" id="DejaVuSans-57"/>
    </defs>
    <g transform="translate(375.22944 40.397235)scale(0.17 -0.17)">
     <use xlink:href="#DejaVuSans-98"/>
     <use x="63.476562" xlink:href="#DejaVuSans-101"/>
     <use x="125" xlink:href="#DejaVuSans-115"/>
     <use x="177.099609" xlink:href="#DejaVuSans-116"/>
     <use x="216.308594" xlink:href="#DejaVuSans-32"/>
     <use x="248.095703" xlink:href="#DejaVuSans-50"/>
     <use x="311.71875" xlink:href="#DejaVuSans-48"/>
     <use x="375.341797" xlink:href="#DejaVuSans-48"/>
     <use x="438.964844" xlink:href="#DejaVuSans-57"/>
    </g>
   </g>
   <g id="text_19">
    <!-- bbob f7, 40-D -->
    <defs>
     <path d="M 19.671875 64.796875 
L 19.671875 8.109375 
L 31.59375 8.109375 
Q 46.6875 8.109375 53.6875 14.9375 
Q 60.6875 21.78125 60.6875 36.53125 
Q 60.6875 51.171875 53.6875 57.984375 
Q 46.6875 64.796875 31.59375 64.796875 
z
M 9.8125 72.90625 
L 30.078125 72.90625 
Q 51.265625 72.90625 61.171875 64.09375 
Q 71.09375 55.28125 71.09375 36.53125 
Q 71.09375 17.671875 61.125 8.828125 
Q 51.171875 0 30.078125 0 
L 9.8125 0 
z
" id="DejaVuSans-68"/>
    </defs>
    <g transform="translate(60.41088 38.111366)scale(0.102 -0.102)">
     <use xlink:href="#DejaVuSans-98"/>
     <use x="63.476562" xlink:href="#DejaVuSans-98"/>
     <use x="126.953125" xlink:href="#DejaVuSans-111"/>
     <use x="188.134766" xlink:href="#DejaVuSans-98"/>
     <use x="251.611328" xlink:href="#DejaVuSans-32"/>
     <use x="283.398438" xlink:href="#DejaVuSans-102"/>
     <use x="318.603516" xlink:href="#DejaVuSans-55"/>
     <use x="382.226562" xlink:href="#DejaVuSans-44"/>
     <use x="414.013672" xlink:href="#DejaVuSans-32"/>
     <use x="445.800781" xlink:href="#DejaVuSans-52"/>
     <use x="509.423828" xlink:href="#DejaVuSans-48"/>
     <use x="573.046875" xlink:href="#DejaVuSans-45"/>
     <use x="609.130859" xlink:href="#DejaVuSans-68"/>
    </g>
    <!-- 51 targets: 100..1e-08 -->
    <defs>
     <path d="M 11.71875 12.40625 
L 22.015625 12.40625 
L 22.015625 0 
L 11.71875 0 
z
M 11.71875 51.703125 
L 22.015625 51.703125 
L 22.015625 39.3125 
L 11.71875 39.3125 
z
" id="DejaVuSans-58"/>
    </defs>
    <g transform="translate(60.41088 49.533135)scale(0.102 -0.102)">
     <use xlink:href="#DejaVuSans-53"/>
     <use x="63.623047" xlink:href="#DejaVuSans-49"/>
     <use x="127.246094" xlink:href="#DejaVuSans-32"/>
     <use x="159.033203" xlink:href="#DejaVuSans-116"/>
     <use x="198.242188" xlink:href="#DejaVuSans-97"/>
     <use x="259.521484" xlink:href="#DejaVuSans-114"/>
     <use x="300.619141" xlink:href="#DejaVuSans-103"/>
     <use x="364.095703" xlink:href="#DejaVuSans-101"/>
     <use x="425.619141" xlink:href="#DejaVuSans-116"/>
     <use x="464.828125" xlink:href="#DejaVuSans-115"/>
     <use x="516.927734" xlink:href="#DejaVuSans-58"/>
     <use x="550.619141" xlink:href="#DejaVuSans-32"/>
     <use x="582.40625" xlink:href="#DejaVuSans-49"/>
     <use x="646.029297" xlink:href="#DejaVuSans-48"/>
     <use x="709.652344" xlink:href="#DejaVuSans-48"/>
     <use x="773.275391" xlink:href="#DejaVuSans-46"/>
     <use x="805.0625" xlink:href="#DejaVuSans-46"/>
     <use x="836.849609" xlink:href="#DejaVuSans-49"/>
     <use x="900.472656" xlink:href="#DejaVuSans-101"/>
     <use x="961.996094" xlink:href="#DejaVuSans-45"/>
     <use x="998.080078" xlink:href="#DejaVuSans-48"/>
     <use x="1061.703125" xlink:href="#DejaVuSans-56"/>
    </g>
    <!-- 15 instances -->
    <g transform="translate(60.41088 60.954904)scale(0.102 -0.102)">
     <use xlink:href="#DejaVuSans-49"/>
     <use x="63.623047" xlink:href="#DejaVuSans-53"/>
     <use x="127.246094" xlink:href="#DejaVuSans-32"/>
     <use x="159.033203" xlink:href="#DejaVuSans-105"/>
     <use x="186.816406" xlink:href="#DejaVuSans-110"/>
     <use x="250.195312" xlink:href="#DejaVuSans-115"/>
     <use x="302.294922" xlink:href="#DejaVuSans-116"/>
     <use x="341.503906" xlink:href="#DejaVuSans-97"/>
     <use x="402.783203" xlink:href="#DejaVuSans-110"/>
     <use x="466.162109" xlink:href="#DejaVuSans-99"/>
     <use x="521.142578" xlink:href="#DejaVuSans-101"/>
     <use x="582.666016" xlink:href="#DejaVuSans-115"/>
    </g>
   </g>
   <g id="text_20">
    <!-- v2.3.3.18.73 -->
    <defs>
     <path d="M 40.578125 39.3125 
Q 47.65625 37.796875 51.625 33 
Q 55.609375 28.21875 55.609375 21.1875 
Q 55.609375 10.40625 48.1875 4.484375 
Q 40.765625 -1.421875 27.09375 -1.421875 
Q 22.515625 -1.421875 17.65625 -0.515625 
Q 12.796875 0.390625 7.625 2.203125 
L 7.625 11.71875 
Q 11.71875 9.328125 16.59375 8.109375 
Q 21.484375 6.890625 26.8125 6.890625 
Q 36.078125 6.890625 40.9375 10.546875 
Q 45.796875 14.203125 45.796875 21.1875 
Q 45.796875 27.640625 41.28125 31.265625 
Q 36.765625 34.90625 28.71875 34.90625 
L 20.21875 34.90625 
L 20.21875 43.015625 
L 29.109375 43.015625 
Q 36.375 43.015625 40.234375 45.921875 
Q 44.09375 48.828125 44.09375 54.296875 
Q 44.09375 59.90625 40.109375 62.90625 
Q 36.140625 65.921875 28.71875 65.921875 
Q 24.65625 65.921875 20.015625 65.03125 
Q 15.375 64.15625 9.8125 62.3125 
L 9.8125 71.09375 
Q 15.4375 72.65625 20.34375 73.4375 
Q 25.25 74.21875 29.59375 74.21875 
Q 40.828125 74.21875 47.359375 69.109375 
Q 53.90625 64.015625 53.90625 55.328125 
Q 53.90625 49.265625 50.4375 45.09375 
Q 46.96875 40.921875 40.578125 39.3125 
z
" id="DejaVuSans-51"/>
    </defs>
    <g style="fill:#808080;" transform="translate(166.559625 294.151352)scale(0.1 -0.1)">
     <use xlink:href="#DejaVuSans-118"/>
     <use x="59.179688" xlink:href="#DejaVuSans-50"/>
     <use x="122.802734" xlink:href="#DejaVuSans-46"/>
     <use x="154.589844" xlink:href="#DejaVuSans-51"/>
     <use x="218.212891" xlink:href="#DejaVuSans-46"/>
     <use x="250" xlink:href="#DejaVuSans-51"/>
     <use x="313.623047" xlink:href="#DejaVuSans-46"/>
     <use x="345.410156" xlink:href="#DejaVuSans-49"/>
     <use x="409.033203" xlink:href="#DejaVuSans-56"/>
     <use x="472.65625" xlink:href="#DejaVuSans-46"/>
     <use x="504.443359" xlink:href="#DejaVuSans-55"/>
     <use x="568.066406" xlink:href="#DejaVuSans-51"/>
    </g>
   </g>
   <g id="text_21">
    <!-- 7 Step-ellipsoid -->
    <defs>
     <path d="M 53.515625 70.515625 
L 53.515625 60.890625 
Q 47.90625 63.578125 42.921875 64.890625 
Q 37.9375 66.21875 33.296875 66.21875 
Q 25.25 66.21875 20.875 63.09375 
Q 16.5 59.96875 16.5 54.203125 
Q 16.5 49.359375 19.40625 46.890625 
Q 22.3125 44.4375 30.421875 42.921875 
L 36.375 41.703125 
Q 47.40625 39.59375 52.65625 34.296875 
Q 57.90625 29 57.90625 20.125 
Q 57.90625 9.515625 50.796875 4.046875 
Q 43.703125 -1.421875 29.984375 -1.421875 
Q 24.8125 -1.421875 18.96875 -0.25 
Q 13.140625 0.921875 6.890625 3.21875 
L 6.890625 13.375 
Q 12.890625 10.015625 18.65625 8.296875 
Q 24.421875 6.59375 29.984375 6.59375 
Q 38.421875 6.59375 43.015625 9.90625 
Q 47.609375 13.234375 47.609375 19.390625 
Q 47.609375 24.75 44.3125 27.78125 
Q 41.015625 30.8125 33.5 32.328125 
L 27.484375 33.5 
Q 16.453125 35.6875 11.515625 40.375 
Q 6.59375 45.0625 6.59375 53.421875 
Q 6.59375 63.09375 13.40625 68.65625 
Q 20.21875 74.21875 32.171875 74.21875 
Q 37.3125 74.21875 42.625 73.28125 
Q 47.953125 72.359375 53.515625 70.515625 
z
" id="DejaVuSans-83"/>
    </defs>
    <g transform="translate(120.934625 21.648)scale(0.2 -0.2)">
     <use xlink:href="#DejaVuSans-55"/>
     <use x="63.623047" xlink:href="#DejaVuSans-32"/>
     <use x="95.410156" xlink:href="#DejaVuSans-83"/>
     <use x="158.886719" xlink:href="#DejaVuSans-116"/>
     <use x="198.095703" xlink:href="#DejaVuSans-101"/>
     <use x="259.619141" xlink:href="#DejaVuSans-112"/>
     <use x="323.095703" xlink:href="#DejaVuSans-45"/>
     <use x="359.179688" xlink:href="#DejaVuSans-101"/>
     <use x="420.703125" xlink:href="#DejaVuSans-108"/>
     <use x="448.486328" xlink:href="#DejaVuSans-108"/>
     <use x="476.269531" xlink:href="#DejaVuSans-105"/>
     <use x="504.052734" xlink:href="#DejaVuSans-112"/>
     <use x="567.529297" xlink:href="#DejaVuSans-115"/>
     <use x="619.628906" xlink:href="#DejaVuSans-111"/>
     <use x="680.810547" xlink:href="#DejaVuSans-105"/>
     <use x="708.59375" xlink:href="#DejaVuSans-100"/>
    </g>
   </g>
  </g>
 </g>
 <defs>
  <clipPath id="p5ce5b0f0a8">
   <rect height="271.296" width="281.088" x="57.6" y="27.648"/>
  </clipPath>
 </defs>
</svg>
