<?xml version="1.0" encoding="utf-8" standalone="no"?>
<!DOCTYPE svg PUBLIC "-//W3C//DTD SVG 1.1//EN"
  "http://www.w3.org/Graphics/SVG/1.1/DTD/svg11.dtd">
<!-- Created with matplotlib (https://matplotlib.org/) -->
<svg height="345.6pt" version="1.1" viewBox="0 0 460.8 345.6" width="460.8pt" xmlns="http://www.w3.org/2000/svg" xmlns:xlink="http://www.w3.org/1999/xlink">
 <defs>
  <style type="text/css">
*{stroke-linecap:butt;stroke-linejoin:round;}
  </style>
 </defs>
 <g id="figure_1">
  <g id="patch_1">
   <path d="M 0 345.6 
L 460.8 345.6 
L 460.8 0 
L 0 0 
z
" style="fill:#ffffff;"/>
  </g>
  <g id="axes_1">
   <g id="patch_2">
    <path d="M 57.6 298.944 
L 338.688 298.944 
L 338.688 27.648 
L 57.6 27.648 
z
" style="fill:#ffffff;"/>
   </g>
   <g id="line2d_1">
    <path d="M 149.11121 298.944 
L 149.11121 293.677139 
L 164.781961 293.677139 
L 164.781961 288.410278 
L 171.540143 288.410278 
L 171.540143 283.143418 
L 188.703239 283.143418 
L 188.703239 277.876557 
L 194.372948 277.876557 
L 194.372948 272.609696 
L 205.049375 272.609696 
L 205.049375 267.342835 
L 215.781805 267.342835 
L 215.781805 262.075974 
L 223.11957 262.075974 
L 223.11957 256.809114 
L 227.589523 256.809114 
L 227.589523 251.542253 
L 229.802524 251.542253 
L 229.802524 246.275392 
L 230.020773 246.275392 
L 230.020773 241.008531 
L 234.827317 241.008531 
L 234.827317 235.74167 
L 234.8777 235.74167 
L 234.8777 230.47481 
L 234.922768 230.47481 
L 234.922768 225.207949 
L 234.977831 225.207949 
L 234.977831 219.941088 
L 235.029212 219.941088 
L 235.029212 214.674227 
L 235.076844 214.674227 
L 235.076844 209.407366 
L 235.127587 209.407366 
L 235.127587 204.140506 
L 235.170844 204.140506 
L 235.170844 198.873645 
L 235.223732 198.873645 
L 235.223732 193.606784 
L 235.274428 193.606784 
L 235.274428 188.339923 
L 235.31603 188.339923 
L 235.31603 183.073062 
L 235.372623 183.073062 
L 235.372623 177.806202 
L 235.421392 177.806202 
L 235.421392 172.539341 
L 235.464511 172.539341 
L 235.464511 167.27248 
L 235.516906 167.27248 
L 235.516906 162.005619 
L 235.559871 162.005619 
L 235.559871 156.738758 
L 235.610629 156.738758 
L 235.610629 151.471897 
L 235.654695 151.471897 
L 235.654695 146.205037 
L 235.711113 146.205037 
L 235.711113 140.938176 
L 235.755357 140.938176 
L 235.755357 135.671315 
L 235.796689 135.671315 
L 235.796689 130.404454 
L 235.850397 130.404454 
L 235.850397 125.137593 
L 235.901758 125.137593 
L 235.901758 119.870733 
L 235.946058 119.870733 
L 235.946058 114.603872 
L 235.986185 114.603872 
L 235.986185 109.337011 
L 236.029768 109.337011 
L 236.029768 104.07015 
L 236.080463 104.07015 
L 236.080463 98.803289 
L 236.125093 98.803289 
L 236.125093 93.536429 
L 236.174983 93.536429 
L 236.174983 88.269568 
L 236.223674 88.269568 
L 236.223674 83.002707 
L 236.268203 83.002707 
L 236.268203 77.735846 
L 236.312525 77.735846 
L 236.312525 72.468985 
L 236.361343 72.468985 
L 236.361343 67.202125 
L 236.405353 67.202125 
L 236.405353 61.935264 
L 236.449145 61.935264 
L 236.449145 56.668403 
L 236.494494 56.668403 
L 236.494494 51.401542 
L 236.53489 51.401542 
L 236.53489 46.134681 
L 236.580915 46.134681 
L 236.580915 40.867821 
L 236.625604 40.867821 
L 236.625604 35.60096 
L 236.668135 35.60096 
L 236.668135 30.334099 
L 338.688 30.334099 
" style="fill:none;stroke:#f5deb3;stroke-linecap:square;stroke-width:4;"/>
   </g>
   <g id="line2d_2">
    <defs>
     <path d="M -0 7.778175 
L 7.778175 0 
L 0 -7.778175 
L -7.778175 -0 
z
" id="m4ad91970a8" style="stroke:#f5deb3;stroke-linejoin:miter;stroke-width:1.5;"/>
    </defs>
    <g>
     <use style="fill:#f5deb3;stroke:#f5deb3;stroke-linejoin:miter;stroke-width:1.5;" x="235.223732" xlink:href="#m4ad91970a8" y="193.606784"/>
     <use style="fill:#f5deb3;stroke:#f5deb3;stroke-linejoin:miter;stroke-width:1.5;" x="236.312525" xlink:href="#m4ad91970a8" y="72.468985"/>
     <use style="fill:#f5deb3;stroke:#f5deb3;stroke-linejoin:miter;stroke-width:1.5;" x="236.668135" xlink:href="#m4ad91970a8" y="30.334099"/>
     <use style="fill:#f5deb3;stroke:#f5deb3;stroke-linejoin:miter;stroke-width:1.5;" x="236.668135" xlink:href="#m4ad91970a8" y="30.334099"/>
     <use style="fill:#f5deb3;stroke:#f5deb3;stroke-linejoin:miter;stroke-width:1.5;" x="338.688" xlink:href="#m4ad91970a8" y="30.334099"/>
    </g>
   </g>
   <g id="line2d_3">
    <path style="fill:none;stroke:#f5deb3;stroke-linecap:square;stroke-width:4;"/>
    <g/>
   </g>
   <g id="line2d_4">
    <path d="M 338.688 30.334099 
L 369.60768 35.706297 
" style="fill:none;stroke:#f5deb3;stroke-linecap:square;stroke-width:4;"/>
    <g>
     <use style="fill:#f5deb3;stroke:#f5deb3;stroke-linejoin:miter;stroke-width:1.5;" x="338.688" xlink:href="#m4ad91970a8" y="30.334099"/>
     <use style="fill:#f5deb3;stroke:#f5deb3;stroke-linejoin:miter;stroke-width:1.5;" x="369.60768" xlink:href="#m4ad91970a8" y="35.706297"/>
    </g>
   </g>
   <g id="matplotlib.axis_1">
    <g id="xtick_1">
     <g id="line2d_5">
      <path clip-path="url(#pc0d42cc490)" d="M 57.6 298.944 
L 57.6 27.648 
" style="fill:none;stroke:#b0b0b0;stroke-linecap:square;stroke-width:0.8;"/>
     </g>
     <g id="line2d_6">
      <defs>
       <path d="M 0 0 
L 0 3.5 
" id="m2505a55a95" style="stroke:#000000;stroke-width:0.8;"/>
      </defs>
      <g>
       <use style="stroke:#000000;stroke-width:0.8;" x="57.6" xlink:href="#m2505a55a95" y="298.944"/>
      </g>
     </g>
     <g id="text_1">
      <!-- 0 -->
      <defs>
       <path d="M 31.78125 66.40625 
Q 24.171875 66.40625 20.328125 58.90625 
Q 16.5 51.421875 16.5 36.375 
Q 16.5 21.390625 20.328125 13.890625 
Q 24.171875 6.390625 31.78125 6.390625 
Q 39.453125 6.390625 43.28125 13.890625 
Q 47.125 21.390625 47.125 36.375 
Q 47.125 51.421875 43.28125 58.90625 
Q 39.453125 66.40625 31.78125 66.40625 
z
M 31.78125 74.21875 
Q 44.046875 74.21875 50.515625 64.515625 
Q 56.984375 54.828125 56.984375 36.375 
Q 56.984375 17.96875 50.515625 8.265625 
Q 44.046875 -1.421875 31.78125 -1.421875 
Q 19.53125 -1.421875 13.0625 8.265625 
Q 6.59375 17.96875 6.59375 36.375 
Q 6.59375 54.828125 13.0625 64.515625 
Q 19.53125 74.21875 31.78125 74.21875 
z
" id="DejaVuSans-48"/>
      </defs>
      <g transform="translate(51.2375 321.140875)scale(0.2 -0.2)">
       <use xlink:href="#DejaVuSans-48"/>
      </g>
     </g>
    </g>
    <g id="xtick_2">
     <g id="line2d_7">
      <path clip-path="url(#pc0d42cc490)" d="M 137.910857 298.944 
L 137.910857 27.648 
" style="fill:none;stroke:#b0b0b0;stroke-linecap:square;stroke-width:0.8;"/>
     </g>
     <g id="line2d_8">
      <g>
       <use style="stroke:#000000;stroke-width:0.8;" x="137.910857" xlink:href="#m2505a55a95" y="298.944"/>
      </g>
     </g>
     <g id="text_2">
      <!-- 2 -->
      <defs>
       <path d="M 19.1875 8.296875 
L 53.609375 8.296875 
L 53.609375 0 
L 7.328125 0 
L 7.328125 8.296875 
Q 12.9375 14.109375 22.625 23.890625 
Q 32.328125 33.6875 34.8125 36.53125 
Q 39.546875 41.84375 41.421875 45.53125 
Q 43.3125 49.21875 43.3125 52.78125 
Q 43.3125 58.59375 39.234375 62.25 
Q 35.15625 65.921875 28.609375 65.921875 
Q 23.96875 65.921875 18.8125 64.3125 
Q 13.671875 62.703125 7.8125 59.421875 
L 7.8125 69.390625 
Q 13.765625 71.78125 18.9375 73 
Q 24.125 74.21875 28.421875 74.21875 
Q 39.75 74.21875 46.484375 68.546875 
Q 53.21875 62.890625 53.21875 53.421875 
Q 53.21875 48.921875 51.53125 44.890625 
Q 49.859375 40.875 45.40625 35.40625 
Q 44.1875 33.984375 37.640625 27.21875 
Q 31.109375 20.453125 19.1875 8.296875 
z
" id="DejaVuSans-50"/>
      </defs>
      <g transform="translate(131.548357 321.140875)scale(0.2 -0.2)">
       <use xlink:href="#DejaVuSans-50"/>
      </g>
     </g>
    </g>
    <g id="xtick_3">
     <g id="line2d_9">
      <path clip-path="url(#pc0d42cc490)" d="M 218.221714 298.944 
L 218.221714 27.648 
" style="fill:none;stroke:#b0b0b0;stroke-linecap:square;stroke-width:0.8;"/>
     </g>
     <g id="line2d_10">
      <g>
       <use style="stroke:#000000;stroke-width:0.8;" x="218.221714" xlink:href="#m2505a55a95" y="298.944"/>
      </g>
     </g>
     <g id="text_3">
      <!-- 4 -->
      <defs>
       <path d="M 37.796875 64.3125 
L 12.890625 25.390625 
L 37.796875 25.390625 
z
M 35.203125 72.90625 
L 47.609375 72.90625 
L 47.609375 25.390625 
L 58.015625 25.390625 
L 58.015625 17.1875 
L 47.609375 17.1875 
L 47.609375 0 
L 37.796875 0 
L 37.796875 17.1875 
L 4.890625 17.1875 
L 4.890625 26.703125 
z
" id="DejaVuSans-52"/>
      </defs>
      <g transform="translate(211.859214 321.140875)scale(0.2 -0.2)">
       <use xlink:href="#DejaVuSans-52"/>
      </g>
     </g>
    </g>
    <g id="xtick_4">
     <g id="line2d_11">
      <path clip-path="url(#pc0d42cc490)" d="M 298.532571 298.944 
L 298.532571 27.648 
" style="fill:none;stroke:#b0b0b0;stroke-linecap:square;stroke-width:0.8;"/>
     </g>
     <g id="line2d_12">
      <g>
       <use style="stroke:#000000;stroke-width:0.8;" x="298.532571" xlink:href="#m2505a55a95" y="298.944"/>
      </g>
     </g>
     <g id="text_4">
      <!-- 6 -->
      <defs>
       <path d="M 33.015625 40.375 
Q 26.375 40.375 22.484375 35.828125 
Q 18.609375 31.296875 18.609375 23.390625 
Q 18.609375 15.53125 22.484375 10.953125 
Q 26.375 6.390625 33.015625 6.390625 
Q 39.65625 6.390625 43.53125 10.953125 
Q 47.40625 15.53125 47.40625 23.390625 
Q 47.40625 31.296875 43.53125 35.828125 
Q 39.65625 40.375 33.015625 40.375 
z
M 52.59375 71.296875 
L 52.59375 62.3125 
Q 48.875 64.0625 45.09375 64.984375 
Q 41.3125 65.921875 37.59375 65.921875 
Q 27.828125 65.921875 22.671875 59.328125 
Q 17.53125 52.734375 16.796875 39.40625 
Q 19.671875 43.65625 24.015625 45.921875 
Q 28.375 48.1875 33.59375 48.1875 
Q 44.578125 48.1875 50.953125 41.515625 
Q 57.328125 34.859375 57.328125 23.390625 
Q 57.328125 12.15625 50.6875 5.359375 
Q 44.046875 -1.421875 33.015625 -1.421875 
Q 20.359375 -1.421875 13.671875 8.265625 
Q 6.984375 17.96875 6.984375 36.375 
Q 6.984375 53.65625 15.1875 63.9375 
Q 23.390625 74.21875 37.203125 74.21875 
Q 40.921875 74.21875 44.703125 73.484375 
Q 48.484375 72.75 52.59375 71.296875 
z
" id="DejaVuSans-54"/>
      </defs>
      <g transform="translate(292.170071 321.140875)scale(0.2 -0.2)">
       <use xlink:href="#DejaVuSans-54"/>
      </g>
     </g>
    </g>
    <g id="xtick_5">
     <g id="line2d_13">
      <path clip-path="url(#pc0d42cc490)" d="M 97.755429 298.944 
L 97.755429 27.648 
" style="fill:none;stroke:#b0b0b0;stroke-linecap:square;stroke-width:0.8;"/>
     </g>
     <g id="line2d_14">
      <defs>
       <path d="M 0 0 
L 0 2 
" id="m86ae23473c" style="stroke:#000000;stroke-width:0.6;"/>
      </defs>
      <g>
       <use style="stroke:#000000;stroke-width:0.6;" x="97.755429" xlink:href="#m86ae23473c" y="298.944"/>
      </g>
     </g>
    </g>
    <g id="xtick_6">
     <g id="line2d_15">
      <path clip-path="url(#pc0d42cc490)" d="M 178.066286 298.944 
L 178.066286 27.648 
" style="fill:none;stroke:#b0b0b0;stroke-linecap:square;stroke-width:0.8;"/>
     </g>
     <g id="line2d_16">
      <g>
       <use style="stroke:#000000;stroke-width:0.6;" x="178.066286" xlink:href="#m86ae23473c" y="298.944"/>
      </g>
     </g>
    </g>
    <g id="xtick_7">
     <g id="line2d_17">
      <path clip-path="url(#pc0d42cc490)" d="M 258.377143 298.944 
L 258.377143 27.648 
" style="fill:none;stroke:#b0b0b0;stroke-linecap:square;stroke-width:0.8;"/>
     </g>
     <g id="line2d_18">
      <g>
       <use style="stroke:#000000;stroke-width:0.6;" x="258.377143" xlink:href="#m86ae23473c" y="298.944"/>
      </g>
     </g>
    </g>
    <g id="xtick_8">
     <g id="line2d_19">
      <path clip-path="url(#pc0d42cc490)" d="M 338.688 298.944 
L 338.688 27.648 
" style="fill:none;stroke:#b0b0b0;stroke-linecap:square;stroke-width:0.8;"/>
     </g>
     <g id="line2d_20">
      <g>
       <use style="stroke:#000000;stroke-width:0.6;" x="338.688" xlink:href="#m86ae23473c" y="298.944"/>
      </g>
     </g>
    </g>
    <g id="text_5">
     <!-- log10(# f-evals / dimension) -->
     <defs>
      <path d="M 9.421875 75.984375 
L 18.40625 75.984375 
L 18.40625 0 
L 9.421875 0 
z
" id="DejaVuSans-108"/>
      <path d="M 30.609375 48.390625 
Q 23.390625 48.390625 19.1875 42.75 
Q 14.984375 37.109375 14.984375 27.296875 
Q 14.984375 17.484375 19.15625 11.84375 
Q 23.34375 6.203125 30.609375 6.203125 
Q 37.796875 6.203125 41.984375 11.859375 
Q 46.1875 17.53125 46.1875 27.296875 
Q 46.1875 37.015625 41.984375 42.703125 
Q 37.796875 48.390625 30.609375 48.390625 
z
M 30.609375 56 
Q 42.328125 56 49.015625 48.375 
Q 55.71875 40.765625 55.71875 27.296875 
Q 55.71875 13.875 49.015625 6.21875 
Q 42.328125 -1.421875 30.609375 -1.421875 
Q 18.84375 -1.421875 12.171875 6.21875 
Q 5.515625 13.875 5.515625 27.296875 
Q 5.515625 40.765625 12.171875 48.375 
Q 18.84375 56 30.609375 56 
z
" id="DejaVuSans-111"/>
      <path d="M 45.40625 27.984375 
Q 45.40625 37.75 41.375 43.109375 
Q 37.359375 48.484375 30.078125 48.484375 
Q 22.859375 48.484375 18.828125 43.109375 
Q 14.796875 37.75 14.796875 27.984375 
Q 14.796875 18.265625 18.828125 12.890625 
Q 22.859375 7.515625 30.078125 7.515625 
Q 37.359375 7.515625 41.375 12.890625 
Q 45.40625 18.265625 45.40625 27.984375 
z
M 54.390625 6.78125 
Q 54.390625 -7.171875 48.1875 -13.984375 
Q 42 -20.796875 29.203125 -20.796875 
Q 24.46875 -20.796875 20.265625 -20.09375 
Q 16.0625 -19.390625 12.109375 -17.921875 
L 12.109375 -9.1875 
Q 16.0625 -11.328125 19.921875 -12.34375 
Q 23.78125 -13.375 27.78125 -13.375 
Q 36.625 -13.375 41.015625 -8.765625 
Q 45.40625 -4.15625 45.40625 5.171875 
L 45.40625 9.625 
Q 42.625 4.78125 38.28125 2.390625 
Q 33.9375 0 27.875 0 
Q 17.828125 0 11.671875 7.65625 
Q 5.515625 15.328125 5.515625 27.984375 
Q 5.515625 40.671875 11.671875 48.328125 
Q 17.828125 56 27.875 56 
Q 33.9375 56 38.28125 53.609375 
Q 42.625 51.21875 45.40625 46.390625 
L 45.40625 54.6875 
L 54.390625 54.6875 
z
" id="DejaVuSans-103"/>
      <path d="M 12.40625 8.296875 
L 28.515625 8.296875 
L 28.515625 63.921875 
L 10.984375 60.40625 
L 10.984375 69.390625 
L 28.421875 72.90625 
L 38.28125 72.90625 
L 38.28125 8.296875 
L 54.390625 8.296875 
L 54.390625 0 
L 12.40625 0 
z
" id="DejaVuSans-49"/>
      <path d="M 31 75.875 
Q 24.46875 64.65625 21.28125 53.65625 
Q 18.109375 42.671875 18.109375 31.390625 
Q 18.109375 20.125 21.3125 9.0625 
Q 24.515625 -2 31 -13.1875 
L 23.1875 -13.1875 
Q 15.875 -1.703125 12.234375 9.375 
Q 8.59375 20.453125 8.59375 31.390625 
Q 8.59375 42.28125 12.203125 53.3125 
Q 15.828125 64.359375 23.1875 75.875 
z
" id="DejaVuSans-40"/>
      <path d="M 51.125 44 
L 36.921875 44 
L 32.8125 27.6875 
L 47.125 27.6875 
z
M 43.796875 71.78125 
L 38.71875 51.515625 
L 52.984375 51.515625 
L 58.109375 71.78125 
L 65.921875 71.78125 
L 60.890625 51.515625 
L 76.125 51.515625 
L 76.125 44 
L 58.984375 44 
L 54.984375 27.6875 
L 70.515625 27.6875 
L 70.515625 20.21875 
L 53.078125 20.21875 
L 48 0 
L 40.1875 0 
L 45.21875 20.21875 
L 30.90625 20.21875 
L 25.875 0 
L 18.015625 0 
L 23.09375 20.21875 
L 7.71875 20.21875 
L 7.71875 27.6875 
L 24.90625 27.6875 
L 29 44 
L 13.28125 44 
L 13.28125 51.515625 
L 30.90625 51.515625 
L 35.890625 71.78125 
z
" id="DejaVuSans-35"/>
      <path id="DejaVuSans-32"/>
      <path d="M 37.109375 75.984375 
L 37.109375 68.5 
L 28.515625 68.5 
Q 23.6875 68.5 21.796875 66.546875 
Q 19.921875 64.59375 19.921875 59.515625 
L 19.921875 54.6875 
L 34.71875 54.6875 
L 34.71875 47.703125 
L 19.921875 47.703125 
L 19.921875 0 
L 10.890625 0 
L 10.890625 47.703125 
L 2.296875 47.703125 
L 2.296875 54.6875 
L 10.890625 54.6875 
L 10.890625 58.5 
Q 10.890625 67.625 15.140625 71.796875 
Q 19.390625 75.984375 28.609375 75.984375 
z
" id="DejaVuSans-102"/>
      <path d="M 4.890625 31.390625 
L 31.203125 31.390625 
L 31.203125 23.390625 
L 4.890625 23.390625 
z
" id="DejaVuSans-45"/>
      <path d="M 56.203125 29.59375 
L 56.203125 25.203125 
L 14.890625 25.203125 
Q 15.484375 15.921875 20.484375 11.0625 
Q 25.484375 6.203125 34.421875 6.203125 
Q 39.59375 6.203125 44.453125 7.46875 
Q 49.3125 8.734375 54.109375 11.28125 
L 54.109375 2.78125 
Q 49.265625 0.734375 44.1875 -0.34375 
Q 39.109375 -1.421875 33.890625 -1.421875 
Q 20.796875 -1.421875 13.15625 6.1875 
Q 5.515625 13.8125 5.515625 26.8125 
Q 5.515625 40.234375 12.765625 48.109375 
Q 20.015625 56 32.328125 56 
Q 43.359375 56 49.78125 48.890625 
Q 56.203125 41.796875 56.203125 29.59375 
z
M 47.21875 32.234375 
Q 47.125 39.59375 43.09375 43.984375 
Q 39.0625 48.390625 32.421875 48.390625 
Q 24.90625 48.390625 20.390625 44.140625 
Q 15.875 39.890625 15.1875 32.171875 
z
" id="DejaVuSans-101"/>
      <path d="M 2.984375 54.6875 
L 12.5 54.6875 
L 29.59375 8.796875 
L 46.6875 54.6875 
L 56.203125 54.6875 
L 35.6875 0 
L 23.484375 0 
z
" id="DejaVuSans-118"/>
      <path d="M 34.28125 27.484375 
Q 23.390625 27.484375 19.1875 25 
Q 14.984375 22.515625 14.984375 16.5 
Q 14.984375 11.71875 18.140625 8.90625 
Q 21.296875 6.109375 26.703125 6.109375 
Q 34.1875 6.109375 38.703125 11.40625 
Q 43.21875 16.703125 43.21875 25.484375 
L 43.21875 27.484375 
z
M 52.203125 31.203125 
L 52.203125 0 
L 43.21875 0 
L 43.21875 8.296875 
Q 40.140625 3.328125 35.546875 0.953125 
Q 30.953125 -1.421875 24.3125 -1.421875 
Q 15.921875 -1.421875 10.953125 3.296875 
Q 6 8.015625 6 15.921875 
Q 6 25.140625 12.171875 29.828125 
Q 18.359375 34.515625 30.609375 34.515625 
L 43.21875 34.515625 
L 43.21875 35.40625 
Q 43.21875 41.609375 39.140625 45 
Q 35.0625 48.390625 27.6875 48.390625 
Q 23 48.390625 18.546875 47.265625 
Q 14.109375 46.140625 10.015625 43.890625 
L 10.015625 52.203125 
Q 14.9375 54.109375 19.578125 55.046875 
Q 24.21875 56 28.609375 56 
Q 40.484375 56 46.34375 49.84375 
Q 52.203125 43.703125 52.203125 31.203125 
z
" id="DejaVuSans-97"/>
      <path d="M 44.28125 53.078125 
L 44.28125 44.578125 
Q 40.484375 46.53125 36.375 47.5 
Q 32.28125 48.484375 27.875 48.484375 
Q 21.1875 48.484375 17.84375 46.4375 
Q 14.5 44.390625 14.5 40.28125 
Q 14.5 37.15625 16.890625 35.375 
Q 19.28125 33.59375 26.515625 31.984375 
L 29.59375 31.296875 
Q 39.15625 29.25 43.1875 25.515625 
Q 47.21875 21.78125 47.21875 15.09375 
Q 47.21875 7.46875 41.1875 3.015625 
Q 35.15625 -1.421875 24.609375 -1.421875 
Q 20.21875 -1.421875 15.453125 -0.5625 
Q 10.6875 0.296875 5.421875 2 
L 5.421875 11.28125 
Q 10.40625 8.6875 15.234375 7.390625 
Q 20.0625 6.109375 24.8125 6.109375 
Q 31.15625 6.109375 34.5625 8.28125 
Q 37.984375 10.453125 37.984375 14.40625 
Q 37.984375 18.0625 35.515625 20.015625 
Q 33.0625 21.96875 24.703125 23.78125 
L 21.578125 24.515625 
Q 13.234375 26.265625 9.515625 29.90625 
Q 5.8125 33.546875 5.8125 39.890625 
Q 5.8125 47.609375 11.28125 51.796875 
Q 16.75 56 26.8125 56 
Q 31.78125 56 36.171875 55.265625 
Q 40.578125 54.546875 44.28125 53.078125 
z
" id="DejaVuSans-115"/>
      <path d="M 25.390625 72.90625 
L 33.6875 72.90625 
L 8.296875 -9.28125 
L 0 -9.28125 
z
" id="DejaVuSans-47"/>
      <path d="M 45.40625 46.390625 
L 45.40625 75.984375 
L 54.390625 75.984375 
L 54.390625 0 
L 45.40625 0 
L 45.40625 8.203125 
Q 42.578125 3.328125 38.25 0.953125 
Q 33.9375 -1.421875 27.875 -1.421875 
Q 17.96875 -1.421875 11.734375 6.484375 
Q 5.515625 14.40625 5.515625 27.296875 
Q 5.515625 40.1875 11.734375 48.09375 
Q 17.96875 56 27.875 56 
Q 33.9375 56 38.25 53.625 
Q 42.578125 51.265625 45.40625 46.390625 
z
M 14.796875 27.296875 
Q 14.796875 17.390625 18.875 11.75 
Q 22.953125 6.109375 30.078125 6.109375 
Q 37.203125 6.109375 41.296875 11.75 
Q 45.40625 17.390625 45.40625 27.296875 
Q 45.40625 37.203125 41.296875 42.84375 
Q 37.203125 48.484375 30.078125 48.484375 
Q 22.953125 48.484375 18.875 42.84375 
Q 14.796875 37.203125 14.796875 27.296875 
z
" id="DejaVuSans-100"/>
      <path d="M 9.421875 54.6875 
L 18.40625 54.6875 
L 18.40625 0 
L 9.421875 0 
z
M 9.421875 75.984375 
L 18.40625 75.984375 
L 18.40625 64.59375 
L 9.421875 64.59375 
z
" id="DejaVuSans-105"/>
      <path d="M 52 44.1875 
Q 55.375 50.25 60.0625 53.125 
Q 64.75 56 71.09375 56 
Q 79.640625 56 84.28125 50.015625 
Q 88.921875 44.046875 88.921875 33.015625 
L 88.921875 0 
L 79.890625 0 
L 79.890625 32.71875 
Q 79.890625 40.578125 77.09375 44.375 
Q 74.3125 48.1875 68.609375 48.1875 
Q 61.625 48.1875 57.5625 43.546875 
Q 53.515625 38.921875 53.515625 30.90625 
L 53.515625 0 
L 44.484375 0 
L 44.484375 32.71875 
Q 44.484375 40.625 41.703125 44.40625 
Q 38.921875 48.1875 33.109375 48.1875 
Q 26.21875 48.1875 22.15625 43.53125 
Q 18.109375 38.875 18.109375 30.90625 
L 18.109375 0 
L 9.078125 0 
L 9.078125 54.6875 
L 18.109375 54.6875 
L 18.109375 46.1875 
Q 21.1875 51.21875 25.484375 53.609375 
Q 29.78125 56 35.6875 56 
Q 41.65625 56 45.828125 52.96875 
Q 50 49.953125 52 44.1875 
z
" id="DejaVuSans-109"/>
      <path d="M 54.890625 33.015625 
L 54.890625 0 
L 45.90625 0 
L 45.90625 32.71875 
Q 45.90625 40.484375 42.875 44.328125 
Q 39.84375 48.1875 33.796875 48.1875 
Q 26.515625 48.1875 22.3125 43.546875 
Q 18.109375 38.921875 18.109375 30.90625 
L 18.109375 0 
L 9.078125 0 
L 9.078125 54.6875 
L 18.109375 54.6875 
L 18.109375 46.1875 
Q 21.34375 51.125 25.703125 53.5625 
Q 30.078125 56 35.796875 56 
Q 45.21875 56 50.046875 50.171875 
Q 54.890625 44.34375 54.890625 33.015625 
z
" id="DejaVuSans-110"/>
      <path d="M 8.015625 75.875 
L 15.828125 75.875 
Q 23.140625 64.359375 26.78125 53.3125 
Q 30.421875 42.28125 30.421875 31.390625 
Q 30.421875 20.453125 26.78125 9.375 
Q 23.140625 -1.703125 15.828125 -13.1875 
L 8.015625 -13.1875 
Q 14.5 -2 17.703125 9.0625 
Q 20.90625 20.125 20.90625 31.390625 
Q 20.90625 42.671875 17.703125 53.65625 
Q 14.5 64.65625 8.015625 75.875 
z
" id="DejaVuSans-41"/>
     </defs>
     <g transform="translate(77.303219 342.217594)scale(0.17 -0.17)">
      <use xlink:href="#DejaVuSans-108"/>
      <use x="27.783203" xlink:href="#DejaVuSans-111"/>
      <use x="88.964844" xlink:href="#DejaVuSans-103"/>
      <use x="152.441406" xlink:href="#DejaVuSans-49"/>
      <use x="216.064453" xlink:href="#DejaVuSans-48"/>
      <use x="279.6875" xlink:href="#DejaVuSans-40"/>
      <use x="318.701172" xlink:href="#DejaVuSans-35"/>
      <use x="402.490234" xlink:href="#DejaVuSans-32"/>
      <use x="434.277344" xlink:href="#DejaVuSans-102"/>
      <use x="469.404297" xlink:href="#DejaVuSans-45"/>
      <use x="505.488281" xlink:href="#DejaVuSans-101"/>
      <use x="567.011719" xlink:href="#DejaVuSans-118"/>
      <use x="626.191406" xlink:href="#DejaVuSans-97"/>
      <use x="687.470703" xlink:href="#DejaVuSans-108"/>
      <use x="715.253906" xlink:href="#DejaVuSans-115"/>
      <use x="767.353516" xlink:href="#DejaVuSans-32"/>
      <use x="799.140625" xlink:href="#DejaVuSans-47"/>
      <use x="832.832031" xlink:href="#DejaVuSans-32"/>
      <use x="864.619141" xlink:href="#DejaVuSans-100"/>
      <use x="928.095703" xlink:href="#DejaVuSans-105"/>
      <use x="955.878906" xlink:href="#DejaVuSans-109"/>
      <use x="1053.291016" xlink:href="#DejaVuSans-101"/>
      <use x="1114.814453" xlink:href="#DejaVuSans-110"/>
      <use x="1178.193359" xlink:href="#DejaVuSans-115"/>
      <use x="1230.292969" xlink:href="#DejaVuSans-105"/>
      <use x="1258.076172" xlink:href="#DejaVuSans-111"/>
      <use x="1319.257812" xlink:href="#DejaVuSans-110"/>
      <use x="1382.636719" xlink:href="#DejaVuSans-41"/>
     </g>
    </g>
   </g>
   <g id="matplotlib.axis_2">
    <g id="ytick_1">
     <g id="line2d_21">
      <path clip-path="url(#pc0d42cc490)" d="M 57.6 298.944 
L 338.688 298.944 
" style="fill:none;stroke:#b0b0b0;stroke-linecap:square;stroke-width:0.8;"/>
     </g>
     <g id="line2d_22">
      <defs>
       <path d="M 0 0 
L -3.5 0 
" id="m2a6f7c6894" style="stroke:#000000;stroke-width:0.8;"/>
      </defs>
      <g>
       <use style="stroke:#000000;stroke-width:0.8;" x="57.6" xlink:href="#m2a6f7c6894" y="298.944"/>
      </g>
     </g>
     <g id="text_6">
      <!-- 0.0 -->
      <defs>
       <path d="M 10.6875 12.40625 
L 21 12.40625 
L 21 0 
L 10.6875 0 
z
" id="DejaVuSans-46"/>
      </defs>
      <g transform="translate(25.155 305.02275)scale(0.16 -0.16)">
       <use xlink:href="#DejaVuSans-48"/>
       <use x="63.623047" xlink:href="#DejaVuSans-46"/>
       <use x="95.410156" xlink:href="#DejaVuSans-48"/>
      </g>
     </g>
    </g>
    <g id="ytick_2">
     <g id="line2d_23">
      <path clip-path="url(#pc0d42cc490)" d="M 57.6 245.22202 
L 338.688 245.22202 
" style="fill:none;stroke:#b0b0b0;stroke-linecap:square;stroke-width:0.8;"/>
     </g>
     <g id="line2d_24">
      <g>
       <use style="stroke:#000000;stroke-width:0.8;" x="57.6" xlink:href="#m2a6f7c6894" y="245.22202"/>
      </g>
     </g>
     <g id="text_7">
      <!-- 0.2 -->
      <g transform="translate(25.155 251.30077)scale(0.16 -0.16)">
       <use xlink:href="#DejaVuSans-48"/>
       <use x="63.623047" xlink:href="#DejaVuSans-46"/>
       <use x="95.410156" xlink:href="#DejaVuSans-50"/>
      </g>
     </g>
    </g>
    <g id="ytick_3">
     <g id="line2d_25">
      <path clip-path="url(#pc0d42cc490)" d="M 57.6 191.50004 
L 338.688 191.50004 
" style="fill:none;stroke:#b0b0b0;stroke-linecap:square;stroke-width:0.8;"/>
     </g>
     <g id="line2d_26">
      <g>
       <use style="stroke:#000000;stroke-width:0.8;" x="57.6" xlink:href="#m2a6f7c6894" y="191.50004"/>
      </g>
     </g>
     <g id="text_8">
      <!-- 0.4 -->
      <g transform="translate(25.155 197.57879)scale(0.16 -0.16)">
       <use xlink:href="#DejaVuSans-48"/>
       <use x="63.623047" xlink:href="#DejaVuSans-46"/>
       <use x="95.410156" xlink:href="#DejaVuSans-52"/>
      </g>
     </g>
    </g>
    <g id="ytick_4">
     <g id="line2d_27">
      <path clip-path="url(#pc0d42cc490)" d="M 57.6 137.778059 
L 338.688 137.778059 
" style="fill:none;stroke:#b0b0b0;stroke-linecap:square;stroke-width:0.8;"/>
     </g>
     <g id="line2d_28">
      <g>
       <use style="stroke:#000000;stroke-width:0.8;" x="57.6" xlink:href="#m2a6f7c6894" y="137.778059"/>
      </g>
     </g>
     <g id="text_9">
      <!-- 0.6 -->
      <g transform="translate(25.155 143.856809)scale(0.16 -0.16)">
       <use xlink:href="#DejaVuSans-48"/>
       <use x="63.623047" xlink:href="#DejaVuSans-46"/>
       <use x="95.410156" xlink:href="#DejaVuSans-54"/>
      </g>
     </g>
    </g>
    <g id="ytick_5">
     <g id="line2d_29">
      <path clip-path="url(#pc0d42cc490)" d="M 57.6 84.056079 
L 338.688 84.056079 
" style="fill:none;stroke:#b0b0b0;stroke-linecap:square;stroke-width:0.8;"/>
     </g>
     <g id="line2d_30">
      <g>
       <use style="stroke:#000000;stroke-width:0.8;" x="57.6" xlink:href="#m2a6f7c6894" y="84.056079"/>
      </g>
     </g>
     <g id="text_10">
      <!-- 0.8 -->
      <defs>
       <path d="M 31.78125 34.625 
Q 24.75 34.625 20.71875 30.859375 
Q 16.703125 27.09375 16.703125 20.515625 
Q 16.703125 13.921875 20.71875 10.15625 
Q 24.75 6.390625 31.78125 6.390625 
Q 38.8125 6.390625 42.859375 10.171875 
Q 46.921875 13.96875 46.921875 20.515625 
Q 46.921875 27.09375 42.890625 30.859375 
Q 38.875 34.625 31.78125 34.625 
z
M 21.921875 38.8125 
Q 15.578125 40.375 12.03125 44.71875 
Q 8.5 49.078125 8.5 55.328125 
Q 8.5 64.0625 14.71875 69.140625 
Q 20.953125 74.21875 31.78125 74.21875 
Q 42.671875 74.21875 48.875 69.140625 
Q 55.078125 64.0625 55.078125 55.328125 
Q 55.078125 49.078125 51.53125 44.71875 
Q 48 40.375 41.703125 38.8125 
Q 48.828125 37.15625 52.796875 32.3125 
Q 56.78125 27.484375 56.78125 20.515625 
Q 56.78125 9.90625 50.3125 4.234375 
Q 43.84375 -1.421875 31.78125 -1.421875 
Q 19.734375 -1.421875 13.25 4.234375 
Q 6.78125 9.90625 6.78125 20.515625 
Q 6.78125 27.484375 10.78125 32.3125 
Q 14.796875 37.15625 21.921875 38.8125 
z
M 18.3125 54.390625 
Q 18.3125 48.734375 21.84375 45.5625 
Q 25.390625 42.390625 31.78125 42.390625 
Q 38.140625 42.390625 41.71875 45.5625 
Q 45.3125 48.734375 45.3125 54.390625 
Q 45.3125 60.0625 41.71875 63.234375 
Q 38.140625 66.40625 31.78125 66.40625 
Q 25.390625 66.40625 21.84375 63.234375 
Q 18.3125 60.0625 18.3125 54.390625 
z
" id="DejaVuSans-56"/>
      </defs>
      <g transform="translate(25.155 90.134829)scale(0.16 -0.16)">
       <use xlink:href="#DejaVuSans-48"/>
       <use x="63.623047" xlink:href="#DejaVuSans-46"/>
       <use x="95.410156" xlink:href="#DejaVuSans-56"/>
      </g>
     </g>
    </g>
    <g id="ytick_6">
     <g id="line2d_31">
      <path clip-path="url(#pc0d42cc490)" d="M 57.6 30.334099 
L 338.688 30.334099 
" style="fill:none;stroke:#b0b0b0;stroke-linecap:square;stroke-width:0.8;"/>
     </g>
     <g id="line2d_32">
      <g>
       <use style="stroke:#000000;stroke-width:0.8;" x="57.6" xlink:href="#m2a6f7c6894" y="30.334099"/>
      </g>
     </g>
     <g id="text_11">
      <!-- 1.0 -->
      <g transform="translate(25.155 36.412849)scale(0.16 -0.16)">
       <use xlink:href="#DejaVuSans-49"/>
       <use x="63.623047" xlink:href="#DejaVuSans-46"/>
       <use x="95.410156" xlink:href="#DejaVuSans-48"/>
      </g>
     </g>
    </g>
    <g id="text_12">
     <!-- Fraction of function,target pairs -->
     <defs>
      <path d="M 9.8125 72.90625 
L 51.703125 72.90625 
L 51.703125 64.59375 
L 19.671875 64.59375 
L 19.671875 43.109375 
L 48.578125 43.109375 
L 48.578125 34.8125 
L 19.671875 34.8125 
L 19.671875 0 
L 9.8125 0 
z
" id="DejaVuSans-70"/>
      <path d="M 41.109375 46.296875 
Q 39.59375 47.171875 37.8125 47.578125 
Q 36.03125 48 33.890625 48 
Q 26.265625 48 22.1875 43.046875 
Q 18.109375 38.09375 18.109375 28.8125 
L 18.109375 0 
L 9.078125 0 
L 9.078125 54.6875 
L 18.109375 54.6875 
L 18.109375 46.1875 
Q 20.953125 51.171875 25.484375 53.578125 
Q 30.03125 56 36.53125 56 
Q 37.453125 56 38.578125 55.875 
Q 39.703125 55.765625 41.0625 55.515625 
z
" id="DejaVuSans-114"/>
      <path d="M 48.78125 52.59375 
L 48.78125 44.1875 
Q 44.96875 46.296875 41.140625 47.34375 
Q 37.3125 48.390625 33.40625 48.390625 
Q 24.65625 48.390625 19.8125 42.84375 
Q 14.984375 37.3125 14.984375 27.296875 
Q 14.984375 17.28125 19.8125 11.734375 
Q 24.65625 6.203125 33.40625 6.203125 
Q 37.3125 6.203125 41.140625 7.25 
Q 44.96875 8.296875 48.78125 10.40625 
L 48.78125 2.09375 
Q 45.015625 0.34375 40.984375 -0.53125 
Q 36.96875 -1.421875 32.421875 -1.421875 
Q 20.0625 -1.421875 12.78125 6.34375 
Q 5.515625 14.109375 5.515625 27.296875 
Q 5.515625 40.671875 12.859375 48.328125 
Q 20.21875 56 33.015625 56 
Q 37.15625 56 41.109375 55.140625 
Q 45.0625 54.296875 48.78125 52.59375 
z
" id="DejaVuSans-99"/>
      <path d="M 18.3125 70.21875 
L 18.3125 54.6875 
L 36.8125 54.6875 
L 36.8125 47.703125 
L 18.3125 47.703125 
L 18.3125 18.015625 
Q 18.3125 11.328125 20.140625 9.421875 
Q 21.96875 7.515625 27.59375 7.515625 
L 36.8125 7.515625 
L 36.8125 0 
L 27.59375 0 
Q 17.1875 0 13.234375 3.875 
Q 9.28125 7.765625 9.28125 18.015625 
L 9.28125 47.703125 
L 2.6875 47.703125 
L 2.6875 54.6875 
L 9.28125 54.6875 
L 9.28125 70.21875 
z
" id="DejaVuSans-116"/>
      <path d="M 8.5 21.578125 
L 8.5 54.6875 
L 17.484375 54.6875 
L 17.484375 21.921875 
Q 17.484375 14.15625 20.5 10.265625 
Q 23.53125 6.390625 29.59375 6.390625 
Q 36.859375 6.390625 41.078125 11.03125 
Q 45.3125 15.671875 45.3125 23.6875 
L 45.3125 54.6875 
L 54.296875 54.6875 
L 54.296875 0 
L 45.3125 0 
L 45.3125 8.40625 
Q 42.046875 3.421875 37.71875 1 
Q 33.40625 -1.421875 27.6875 -1.421875 
Q 18.265625 -1.421875 13.375 4.4375 
Q 8.5 10.296875 8.5 21.578125 
z
M 31.109375 56 
z
" id="DejaVuSans-117"/>
      <path d="M 11.71875 12.40625 
L 22.015625 12.40625 
L 22.015625 4 
L 14.015625 -11.625 
L 7.71875 -11.625 
L 11.71875 4 
z
" id="DejaVuSans-44"/>
      <path d="M 18.109375 8.203125 
L 18.109375 -20.796875 
L 9.078125 -20.796875 
L 9.078125 54.6875 
L 18.109375 54.6875 
L 18.109375 46.390625 
Q 20.953125 51.265625 25.265625 53.625 
Q 29.59375 56 35.59375 56 
Q 45.5625 56 51.78125 48.09375 
Q 58.015625 40.1875 58.015625 27.296875 
Q 58.015625 14.40625 51.78125 6.484375 
Q 45.5625 -1.421875 35.59375 -1.421875 
Q 29.59375 -1.421875 25.265625 0.953125 
Q 20.953125 3.328125 18.109375 8.203125 
z
M 48.6875 27.296875 
Q 48.6875 37.203125 44.609375 42.84375 
Q 40.53125 48.484375 33.40625 48.484375 
Q 26.265625 48.484375 22.1875 42.84375 
Q 18.109375 37.203125 18.109375 27.296875 
Q 18.109375 17.390625 22.1875 11.75 
Q 26.265625 6.109375 33.40625 6.109375 
Q 40.53125 6.109375 44.609375 11.75 
Q 48.6875 17.390625 48.6875 27.296875 
z
" id="DejaVuSans-112"/>
     </defs>
     <g transform="translate(17.619531 298.435375)rotate(-90)scale(0.17 -0.17)">
      <use xlink:href="#DejaVuSans-70"/>
      <use x="57.410156" xlink:href="#DejaVuSans-114"/>
      <use x="98.523438" xlink:href="#DejaVuSans-97"/>
      <use x="159.802734" xlink:href="#DejaVuSans-99"/>
      <use x="214.783203" xlink:href="#DejaVuSans-116"/>
      <use x="253.992188" xlink:href="#DejaVuSans-105"/>
      <use x="281.775391" xlink:href="#DejaVuSans-111"/>
      <use x="342.957031" xlink:href="#DejaVuSans-110"/>
      <use x="406.335938" xlink:href="#DejaVuSans-32"/>
      <use x="438.123047" xlink:href="#DejaVuSans-111"/>
      <use x="499.304688" xlink:href="#DejaVuSans-102"/>
      <use x="534.509766" xlink:href="#DejaVuSans-32"/>
      <use x="566.296875" xlink:href="#DejaVuSans-102"/>
      <use x="601.501953" xlink:href="#DejaVuSans-117"/>
      <use x="664.880859" xlink:href="#DejaVuSans-110"/>
      <use x="728.259766" xlink:href="#DejaVuSans-99"/>
      <use x="783.240234" xlink:href="#DejaVuSans-116"/>
      <use x="822.449219" xlink:href="#DejaVuSans-105"/>
      <use x="850.232422" xlink:href="#DejaVuSans-111"/>
      <use x="911.414062" xlink:href="#DejaVuSans-110"/>
      <use x="974.792969" xlink:href="#DejaVuSans-44"/>
      <use x="1006.580078" xlink:href="#DejaVuSans-116"/>
      <use x="1045.789062" xlink:href="#DejaVuSans-97"/>
      <use x="1107.068359" xlink:href="#DejaVuSans-114"/>
      <use x="1148.166016" xlink:href="#DejaVuSans-103"/>
      <use x="1211.642578" xlink:href="#DejaVuSans-101"/>
      <use x="1273.166016" xlink:href="#DejaVuSans-116"/>
      <use x="1312.375" xlink:href="#DejaVuSans-32"/>
      <use x="1344.162109" xlink:href="#DejaVuSans-112"/>
      <use x="1407.638672" xlink:href="#DejaVuSans-97"/>
      <use x="1468.917969" xlink:href="#DejaVuSans-105"/>
      <use x="1496.701172" xlink:href="#DejaVuSans-114"/>
      <use x="1537.814453" xlink:href="#DejaVuSans-115"/>
     </g>
    </g>
   </g>
   <g id="line2d_33">
    <defs>
     <path d="M 0 1.5 
C 0.397805 1.5 0.77937 1.341951 1.06066 1.06066 
C 1.341951 0.77937 1.5 0.397805 1.5 0 
C 1.5 -0.397805 1.341951 -0.77937 1.06066 -1.06066 
C 0.77937 -1.341951 0.397805 -1.5 0 -1.5 
C -0.397805 -1.5 -0.77937 -1.341951 -1.06066 -1.06066 
C -1.341951 -0.77937 -1.5 -0.397805 -1.5 0 
C -1.5 0.397805 -1.341951 0.77937 -1.06066 1.06066 
C -0.77937 1.341951 -0.397805 1.5 0 1.5 
z
" id="mf5548ec229" style="stroke:#f5deb3;"/>
    </defs>
    <g>
     <use style="fill:#f5deb3;stroke:#f5deb3;" x="236.668135" xlink:href="#mf5548ec229" y="30.334099"/>
     <use style="fill:#f5deb3;stroke:#f5deb3;" x="236.668135" xlink:href="#mf5548ec229" y="30.334099"/>
    </g>
   </g>
   <g id="line2d_34">
    <defs>
     <path d="M 0 1.5 
C 0.397805 1.5 0.77937 1.341951 1.06066 1.06066 
C 1.341951 0.77937 1.5 0.397805 1.5 0 
C 1.5 -0.397805 1.341951 -0.77937 1.06066 -1.06066 
C 0.77937 -1.341951 0.397805 -1.5 0 -1.5 
C -0.397805 -1.5 -0.77937 -1.341951 -1.06066 -1.06066 
C -1.341951 -0.77937 -1.5 -0.397805 -1.5 0 
C -1.5 0.397805 -1.341951 0.77937 -1.06066 1.06066 
C -0.77937 1.341951 -0.397805 1.5 0 1.5 
z
" id="m41fd83b017" style="stroke:#000080;"/>
    </defs>
    <g>
     <use style="fill:#000080;stroke:#000080;" x="269.743667" xlink:href="#m41fd83b017" y="30.334099"/>
     <use style="fill:#000080;stroke:#000080;" x="269.743667" xlink:href="#m41fd83b017" y="30.334099"/>
    </g>
   </g>
   <g id="line2d_35">
    <path d="M 139.497529 298.944 
L 139.497529 298.417314 
L 139.933878 298.417314 
L 139.995884 297.363942 
L 140.719547 297.363942 
L 140.719547 296.837256 
L 141.982752 296.837256 
L 142.082573 295.783884 
L 142.844792 295.783884 
L 142.844792 295.257197 
L 144.949876 295.257197 
L 144.949876 294.730511 
L 146.420639 294.730511 
L 146.420639 294.203825 
L 151.595466 294.203825 
L 151.595466 293.677139 
L 166.799241 293.677139 
L 166.799241 293.150453 
L 167.094536 293.150453 
L 167.094536 292.623767 
L 167.422679 292.623767 
L 167.422679 292.097081 
L 167.671326 292.097081 
L 167.719528 291.043709 
L 168.001318 291.043709 
L 168.001318 290.517023 
L 168.528257 290.517023 
L 168.528257 289.990337 
L 168.816652 289.990337 
L 168.85588 288.936964 
L 168.937017 288.936964 
L 168.937017 288.410278 
L 169.590602 288.410278 
L 169.590602 287.883592 
L 170.086745 287.883592 
L 170.086745 287.356906 
L 170.394724 287.356906 
L 170.394724 286.83022 
L 170.556424 286.83022 
L 170.556424 286.303534 
L 170.920115 286.303534 
L 170.920115 285.776848 
L 172.996338 285.776848 
L 172.996338 285.250162 
L 181.532315 285.250162 
L 181.532315 284.723476 
L 181.660861 284.723476 
L 181.660861 284.19679 
L 181.819431 284.19679 
L 181.819431 283.670104 
L 182.058258 283.670104 
L 182.058258 283.143418 
L 182.29112 283.143418 
L 182.300357 282.090045 
L 182.621596 282.090045 
L 182.621596 281.563359 
L 182.875916 281.563359 
L 182.984772 279.983301 
L 182.994963 279.983301 
L 182.994963 279.456615 
L 183.201765 279.456615 
L 183.201765 278.929929 
L 183.37112 278.929929 
L 183.37112 278.403243 
L 183.584023 278.403243 
L 183.584023 277.876557 
L 192.282768 277.876557 
L 192.282768 277.349871 
L 193.513652 277.349871 
L 193.602424 276.296499 
L 193.711558 276.296499 
L 193.779333 274.71644 
L 193.890537 274.71644 
L 193.890537 274.189754 
L 195.262451 274.189754 
L 195.340344 273.136382 
L 196.184223 273.136382 
L 196.184223 272.609696 
L 196.544696 272.609696 
L 196.544696 272.08301 
L 199.019184 272.08301 
L 199.019184 271.556324 
L 204.549755 271.556324 
L 204.549755 271.029638 
L 204.663491 271.029638 
L 204.663491 270.502952 
L 204.778468 270.502952 
L 204.778468 269.976266 
L 205.029785 269.976266 
L 205.029785 269.449579 
L 205.258839 269.449579 
L 205.258839 268.922893 
L 205.380898 268.922893 
L 205.380898 268.396207 
L 205.535981 268.396207 
L 205.535981 267.869521 
L 205.671172 267.869521 
L 205.707934 266.816149 
L 205.825659 266.816149 
L 205.825659 266.289463 
L 206.038422 266.289463 
L 206.038422 265.762777 
L 206.276577 265.762777 
L 206.387616 264.182719 
L 206.697651 264.182719 
L 206.706513 263.129347 
L 206.820054 263.129347 
L 206.910191 262.075974 
L 207.011228 262.075974 
L 207.036251 261.022602 
L 207.157213 261.022602 
L 207.228112 259.96923 
L 208.241099 259.96923 
L 208.294797 258.389172 
L 216.465641 258.389172 
L 216.465641 257.862486 
L 216.604674 257.862486 
L 216.674325 256.809114 
L 216.718102 256.809114 
L 216.811001 254.702369 
L 216.856323 254.702369 
L 216.932021 253.122311 
L 216.990088 253.122311 
L 217.082438 251.015567 
L 217.11285 251.015567 
L 217.220722 249.435508 
L 217.243747 249.435508 
L 217.243747 248.908822 
L 217.359246 248.908822 
L 217.45732 246.802078 
L 217.500314 246.802078 
L 217.537353 245.748706 
L 217.633532 245.748706 
L 217.730798 243.115275 
L 217.760146 243.115275 
L 217.811017 241.008531 
L 217.889668 241.008531 
L 217.980172 238.901787 
L 218.078386 238.901787 
L 218.165775 236.795043 
L 218.205139 236.795043 
L 218.308043 231.528182 
L 218.333577 231.528182 
L 218.42513 228.368065 
L 218.471479 228.368065 
L 218.581286 224.154577 
L 218.598745 224.154577 
L 218.690533 219.414402 
L 218.747439 219.414402 
L 218.838029 216.254285 
L 218.883421 216.254285 
L 218.977025 212.040797 
L 219.028344 212.040797 
L 219.135041 209.407366 
L 219.146622 209.407366 
L 219.256134 207.300622 
L 219.299141 207.300622 
L 219.40151 203.087133 
L 219.412712 203.087133 
L 219.515269 199.400331 
L 219.531494 199.400331 
L 219.600597 197.293586 
L 219.653088 197.293586 
L 219.75105 192.553412 
L 219.799268 192.553412 
L 219.866566 190.446667 
L 219.919095 190.446667 
L 220.025291 185.706493 
L 220.059697 185.706493 
L 220.165122 182.01969 
L 220.188429 182.01969 
L 220.285994 177.279515 
L 220.313587 177.279515 
L 220.377122 175.172771 
L 220.425832 175.172771 
L 220.536863 172.012655 
L 220.541673 172.012655 
L 220.647647 168.325852 
L 220.688381 168.325852 
L 220.751925 166.219108 
L 220.824967 166.219108 
L 220.875702 164.63905 
L 220.939762 164.63905 
L 221.014698 162.532305 
L 221.075438 162.532305 
L 221.181097 160.952247 
L 221.215281 160.952247 
L 221.289411 158.845503 
L 221.35485 158.845503 
L 221.462419 157.265444 
L 221.489552 157.265444 
L 221.564219 155.1587 
L 221.648708 155.1587 
L 221.684241 153.578642 
L 221.762601 153.578642 
L 221.831822 151.471897 
L 222.163748 151.471897 
L 222.228973 150.418525 
L 229.029959 150.418525 
L 229.110588 149.365153 
L 229.207063 149.365153 
L 229.312865 147.785095 
L 229.367068 147.785095 
L 229.471267 145.151665 
L 229.507871 145.151665 
L 229.599 142.518234 
L 229.652934 142.518234 
L 229.745089 138.831432 
L 229.786605 138.831432 
L 229.885721 135.671315 
L 229.911009 135.671315 
L 230.007626 132.511199 
L 230.067873 132.511199 
L 230.175955 127.771024 
L 230.204862 127.771024 
L 230.314999 116.18393 
L 230.317287 116.18393 
L 230.329376 104.596836 
L 237.220565 104.596836 
L 237.220565 104.07015 
L 237.365748 104.07015 
L 237.426281 101.43672 
L 237.534223 101.43672 
L 237.607364 99.856662 
L 237.673698 99.856662 
L 237.759488 96.169859 
L 237.785308 96.169859 
L 237.871018 93.009743 
L 237.916724 93.009743 
L 238.003279 87.742882 
L 238.04941 87.742882 
L 238.1181 84.056079 
L 238.245451 84.056079 
L 238.314132 81.949335 
L 238.364573 81.949335 
L 238.466003 79.842591 
L 238.591757 79.842591 
L 238.685446 76.682474 
L 238.744371 76.682474 
L 238.744371 76.155788 
L 241.857648 76.155788 
L 241.857648 75.629102 
L 242.160923 75.629102 
L 242.160923 75.102416 
L 242.402007 75.102416 
L 242.413772 67.728811 
L 246.215589 67.728811 
L 246.255027 66.675439 
L 246.365102 66.675439 
L 246.464218 63.515322 
L 246.479637 63.515322 
L 246.581561 58.248461 
L 246.608396 58.248461 
L 246.718695 52.9816 
L 246.74329 52.9816 
L 246.850361 50.34817 
L 246.913295 50.34817 
L 246.949425 48.768112 
L 247.03486 48.768112 
L 247.106646 47.188054 
L 247.17604 47.188054 
L 247.17604 46.661368 
L 249.281274 46.661368 
L 249.281274 46.134681 
L 249.478257 46.134681 
L 249.478257 45.607995 
L 252.174357 45.607995 
L 252.262927 44.027937 
L 252.300229 44.027937 
L 252.401011 42.974565 
L 252.446665 42.974565 
L 252.472698 41.394507 
L 252.586656 41.394507 
L 252.682387 39.287762 
L 252.735416 39.287762 
L 252.735416 38.761076 
L 256.667369 38.761076 
L 256.776435 36.127646 
L 256.797569 36.127646 
L 256.8765 34.547588 
L 258.384597 34.547588 
L 258.384597 34.020902 
L 263.043036 34.020902 
L 263.062466 32.967529 
L 264.255876 32.967529 
L 264.255876 32.440843 
L 265.542177 32.440843 
L 265.542177 31.914157 
L 267.715468 31.914157 
L 267.717594 30.860785 
L 269.743667 30.860785 
L 269.743667 30.334099 
L 338.688 30.334099 
L 338.688 30.334099 
" style="fill:none;stroke:#000080;stroke-linecap:square;stroke-width:1.5;"/>
   </g>
   <g id="line2d_36">
    <defs>
     <path d="M 0 6 
C 1.591219 6 3.117479 5.367802 4.242641 4.242641 
C 5.367802 3.117479 6 1.591219 6 0 
C 6 -1.591219 5.367802 -3.117479 4.242641 -4.242641 
C 3.117479 -5.367802 1.591219 -6 0 -6 
C -1.591219 -6 -3.117479 -5.367802 -4.242641 -4.242641 
C -5.367802 -3.117479 -6 -1.591219 -6 0 
C -6 1.591219 -5.367802 3.117479 -4.242641 4.242641 
C -3.117479 5.367802 -1.591219 6 0 6 
z
" id="m5bc6c5f5de" style="stroke:#000080;stroke-width:1.5;"/>
    </defs>
    <g>
     <use style="fill-opacity:0;stroke:#000080;stroke-width:1.5;" x="199.019184" xlink:href="#m5bc6c5f5de" y="271.556324"/>
     <use style="fill-opacity:0;stroke:#000080;stroke-width:1.5;" x="230.175955" xlink:href="#m5bc6c5f5de" y="128.29771"/>
     <use style="fill-opacity:0;stroke:#000080;stroke-width:1.5;" x="269.743667" xlink:href="#m5bc6c5f5de" y="30.860785"/>
     <use style="fill-opacity:0;stroke:#000080;stroke-width:1.5;" x="269.743667" xlink:href="#m5bc6c5f5de" y="30.334099"/>
     <use style="fill-opacity:0;stroke:#000080;stroke-width:1.5;" x="338.688" xlink:href="#m5bc6c5f5de" y="30.334099"/>
    </g>
   </g>
   <g id="line2d_37">
    <path style="fill:none;stroke:#000080;stroke-linecap:square;stroke-width:1.5;"/>
    <g/>
   </g>
   <g id="line2d_38">
    <path clip-path="url(#pc0d42cc490)" d="M 230.314999 116.18393 
" style="fill:none;stroke:#000080;stroke-linecap:square;stroke-width:1.5;"/>
    <defs>
     <path d="M -12 12 
L 12 -12 
M -12 -12 
L 12 12 
" id="m4e4c741358" style="stroke:#000080;"/>
    </defs>
    <g clip-path="url(#pc0d42cc490)">
     <use style="fill:#000080;stroke:#000080;" x="230.314999" xlink:href="#m4e4c741358" y="116.18393"/>
    </g>
   </g>
   <g id="line2d_39">
    <g>
     <use style="fill:#000080;stroke:#000080;" x="236.922422" xlink:href="#m41fd83b017" y="30.334099"/>
     <use style="fill:#000080;stroke:#000080;" x="236.922422" xlink:href="#m41fd83b017" y="30.334099"/>
    </g>
   </g>
   <g id="line2d_40">
    <path d="M 136.304433 298.944 
L 136.304433 298.417314 
L 136.65465 298.417314 
L 136.65465 297.890628 
L 139.726893 297.890628 
L 139.726893 297.363942 
L 141.335737 297.363942 
L 141.335737 296.837256 
L 141.686839 296.837256 
L 141.686839 296.31057 
L 142.772361 296.31057 
L 142.772361 295.783884 
L 143.105668 295.783884 
L 143.105668 295.257197 
L 143.556172 295.257197 
L 143.556172 294.730511 
L 144.501556 294.730511 
L 144.501556 294.203825 
L 166.622828 294.203825 
L 166.622828 293.677139 
L 166.797577 293.677139 
L 166.797577 293.150453 
L 167.667369 293.150453 
L 167.667369 292.623767 
L 168.287031 292.623767 
L 168.330516 291.570395 
L 168.50715 291.570395 
L 168.612429 289.990337 
L 168.834427 289.990337 
L 168.834427 289.463651 
L 169.143315 289.463651 
L 169.143315 288.936964 
L 169.398877 288.936964 
L 169.425374 287.883592 
L 169.791457 287.883592 
L 169.791457 287.356906 
L 169.956739 287.356906 
L 170.064684 285.776848 
L 170.441366 285.776848 
L 170.544348 284.19679 
L 170.5638 284.19679 
L 170.5638 283.670104 
L 170.91026 283.670104 
L 170.91026 283.143418 
L 171.391826 283.143418 
L 171.391826 282.616732 
L 181.042659 282.616732 
L 181.042659 282.090045 
L 182.108123 282.090045 
L 182.108123 281.563359 
L 182.301383 281.563359 
L 182.392793 279.983301 
L 182.751053 279.983301 
L 182.751053 279.456615 
L 183.312162 279.456615 
L 183.312162 278.929929 
L 183.851086 278.929929 
L 183.874225 277.876557 
L 185.96906 277.876557 
L 185.96906 277.349871 
L 193.390598 277.349871 
L 193.494583 275.769812 
L 193.571629 275.769812 
L 193.571629 275.243126 
L 193.733055 275.243126 
L 193.733055 274.71644 
L 193.846846 274.71644 
L 193.846846 274.189754 
L 194.110665 274.189754 
L 194.110665 273.663068 
L 194.698333 273.663068 
L 194.765566 272.609696 
L 195.730693 272.609696 
L 195.730693 272.08301 
L 195.941264 272.08301 
L 196.005751 271.029638 
L 196.128288 271.029638 
L 196.128288 270.502952 
L 196.374778 270.502952 
L 196.374778 269.976266 
L 196.8522 269.976266 
L 196.8522 269.449579 
L 204.522903 269.449579 
L 204.522903 268.922893 
L 204.742053 268.922893 
L 204.821014 267.342835 
L 204.969299 267.342835 
L 204.969299 266.816149 
L 205.092562 266.816149 
L 205.092562 266.289463 
L 205.600921 266.289463 
L 205.600921 265.762777 
L 205.787899 265.762777 
L 205.821576 264.709405 
L 205.93651 264.709405 
L 206.04298 263.129347 
L 206.250612 263.129347 
L 206.250612 262.60266 
L 206.386499 262.60266 
L 206.391053 261.549288 
L 206.583902 261.549288 
L 206.664865 260.495916 
L 206.768001 260.495916 
L 206.768001 259.96923 
L 206.901432 259.96923 
L 206.971382 258.915858 
L 207.106736 258.915858 
L 207.169789 257.3358 
L 207.327411 257.3358 
L 207.370758 256.282427 
L 207.446458 256.282427 
L 207.446458 255.755741 
L 207.561002 255.755741 
L 207.613629 254.702369 
L 207.706221 254.702369 
L 207.712036 253.648997 
L 207.823747 253.648997 
L 207.823747 253.122311 
L 208.008435 253.122311 
L 208.008435 252.595625 
L 208.144785 252.595625 
L 208.144785 252.068939 
L 208.459561 252.068939 
L 208.4944 251.015567 
L 208.632156 251.015567 
L 208.714846 249.962195 
L 208.802161 249.962195 
L 208.839533 248.908822 
L 208.923032 248.908822 
L 209.027788 247.85545 
L 209.040119 247.85545 
L 209.141755 246.275392 
L 209.214106 246.275392 
L 209.290233 245.22202 
L 209.557889 245.22202 
L 209.557889 244.695334 
L 216.811757 244.695334 
L 216.811757 244.168648 
L 217.156561 244.168648 
L 217.156561 243.641962 
L 217.432842 243.641962 
L 217.432842 243.115275 
L 217.545241 243.115275 
L 217.645117 242.061903 
L 217.737299 242.061903 
L 217.845175 239.428473 
L 217.937992 239.428473 
L 218.045166 237.848415 
L 218.083748 237.848415 
L 218.153962 236.268356 
L 218.224504 236.268356 
L 218.313985 234.688298 
L 218.362706 234.688298 
L 218.460774 232.054868 
L 218.567528 232.054868 
L 218.659565 229.421437 
L 218.725936 229.421437 
L 218.828305 227.314693 
L 218.85086 227.314693 
L 218.934974 224.681263 
L 218.967253 224.681263 
L 219.043324 223.101204 
L 219.086982 223.101204 
L 219.187095 219.941088 
L 219.216358 219.941088 
L 219.31606 215.200913 
L 219.339629 215.200913 
L 219.43367 210.987425 
L 219.452003 210.987425 
L 219.527368 208.88068 
L 219.590402 208.88068 
L 219.669025 204.667192 
L 219.71631 204.667192 
L 219.812327 200.980389 
L 219.837143 200.980389 
L 219.909203 198.346959 
L 219.956907 198.346959 
L 220.045919 195.713528 
L 220.069504 195.713528 
L 220.151076 192.553412 
L 220.20618 192.553412 
L 220.314477 188.339923 
L 220.328392 188.339923 
L 220.430865 183.599748 
L 220.442154 183.599748 
L 220.54049 178.332888 
L 220.560899 178.332888 
L 220.654891 174.119399 
L 220.672212 174.119399 
L 220.780712 169.90591 
L 220.831275 169.90591 
L 220.933867 166.219108 
L 220.945544 166.219108 
L 221.051508 163.585677 
L 221.070218 163.585677 
L 221.144154 162.005619 
L 221.186983 162.005619 
L 221.292811 160.425561 
L 221.298623 160.425561 
L 221.396693 156.212072 
L 221.418557 156.212072 
L 221.504294 154.105328 
L 221.530352 154.105328 
L 221.622109 150.418525 
L 221.690602 150.418525 
L 221.796517 146.731723 
L 221.843975 146.731723 
L 221.946078 143.571606 
L 221.971028 143.571606 
L 222.050073 140.938176 
L 222.096567 140.938176 
L 222.188353 138.304745 
L 222.241268 138.304745 
L 222.317963 137.251373 
L 222.420969 137.251373 
L 222.503872 136.198001 
L 222.574941 136.198001 
L 222.574941 135.671315 
L 222.856385 135.671315 
L 222.955803 134.617943 
L 223.034918 134.617943 
L 223.100959 133.564571 
L 223.234519 133.564571 
L 223.325239 132.511199 
L 228.250424 132.511199 
L 228.330067 131.457826 
L 228.419773 131.457826 
L 228.419773 130.93114 
L 228.586675 130.93114 
L 228.586675 130.404454 
L 229.023647 130.404454 
L 229.030827 129.351082 
L 229.181965 129.351082 
L 229.181965 128.824396 
L 229.450097 128.824396 
L 229.553939 127.244338 
L 229.56443 127.244338 
L 229.660085 125.66428 
L 229.729275 125.66428 
L 229.834004 124.084221 
L 229.95004 124.084221 
L 230.011595 121.977477 
L 230.080755 121.977477 
L 230.163122 120.924105 
L 230.202032 120.924105 
L 230.277694 117.763988 
L 230.329877 117.763988 
L 230.385074 115.657244 
L 230.443384 115.657244 
L 230.506545 114.077186 
L 230.567438 114.077186 
L 230.659235 110.390383 
L 230.710652 110.390383 
L 230.812907 107.756953 
L 230.828404 107.756953 
L 230.897482 105.123522 
L 230.946416 105.123522 
L 231.024176 100.383348 
L 231.066976 100.383348 
L 231.175406 96.696545 
L 231.187785 96.696545 
L 231.293698 91.95637 
L 231.342479 91.95637 
L 231.445029 86.68951 
L 231.463055 86.68951 
L 231.506848 84.056079 
L 231.580066 84.056079 
L 231.659698 82.476021 
L 231.715876 82.476021 
L 231.8145 78.789218 
L 231.839278 78.789218 
L 231.946658 74.57573 
L 231.956518 74.57573 
L 232.056042 72.995672 
L 232.072069 72.995672 
L 232.163628 70.362241 
L 232.187074 70.362241 
L 232.29662 67.202125 
L 232.300685 67.202125 
L 232.383256 64.568694 
L 232.427601 64.568694 
L 232.521292 60.355206 
L 232.545739 60.355206 
L 232.65613 57.195089 
L 232.67011 57.195089 
L 232.756905 55.088345 
L 232.810588 55.088345 
L 232.9089 51.401542 
L 233.033681 51.401542 
L 233.100309 49.821484 
L 233.15178 49.821484 
L 233.252097 47.71474 
L 233.310502 47.71474 
L 233.377344 46.134681 
L 233.458878 46.134681 
L 233.564522 45.081309 
L 233.652261 45.081309 
L 233.712841 44.027937 
L 233.770602 44.027937 
L 233.873101 42.447879 
L 233.977368 42.447879 
L 233.977368 41.921193 
L 234.183927 41.921193 
L 234.183927 41.394507 
L 234.314137 41.394507 
L 234.314137 40.867821 
L 234.532193 40.867821 
L 234.532193 40.341135 
L 234.767016 40.341135 
L 234.767016 39.814448 
L 234.936233 39.814448 
L 234.936233 39.287762 
L 235.08787 39.287762 
L 235.08787 38.761076 
L 235.212611 38.761076 
L 235.212611 38.23439 
L 235.459758 38.23439 
L 235.459758 37.707704 
L 235.656219 37.707704 
L 235.656219 37.181018 
L 235.807921 37.181018 
L 235.904921 36.127646 
L 235.979902 36.127646 
L 236.060535 35.074274 
L 236.168721 35.074274 
L 236.223845 34.020902 
L 236.317654 34.020902 
L 236.317654 33.494215 
L 236.445097 33.494215 
L 236.545062 32.440843 
L 236.609768 32.440843 
L 236.697283 31.387471 
L 236.814533 31.387471 
L 236.922422 30.334099 
L 338.688 30.334099 
L 338.688 30.334099 
" style="fill:none;stroke:#000080;stroke-linecap:square;stroke-width:1.5;"/>
   </g>
   <g id="line2d_41">
    <g>
     <use style="fill-opacity:0;stroke:#000080;stroke-width:1.5;" x="185.96906" xlink:href="#m5bc6c5f5de" y="277.876557"/>
     <use style="fill-opacity:0;stroke:#000080;stroke-width:1.5;" x="229.56443" xlink:href="#m5bc6c5f5de" y="126.717652"/>
     <use style="fill-opacity:0;stroke:#000080;stroke-width:1.5;" x="236.922422" xlink:href="#m5bc6c5f5de" y="30.860785"/>
     <use style="fill-opacity:0;stroke:#000080;stroke-width:1.5;" x="236.922422" xlink:href="#m5bc6c5f5de" y="30.334099"/>
     <use style="fill-opacity:0;stroke:#000080;stroke-width:1.5;" x="338.688" xlink:href="#m5bc6c5f5de" y="30.334099"/>
    </g>
   </g>
   <g id="line2d_42">
    <path style="fill:none;stroke:#000080;stroke-linecap:square;stroke-width:1.5;"/>
    <g/>
   </g>
   <g id="line2d_43">
    <defs>
     <path d="M 0 1.5 
C 0.397805 1.5 0.77937 1.341951 1.06066 1.06066 
C 1.341951 0.77937 1.5 0.397805 1.5 0 
C 1.5 -0.397805 1.341951 -0.77937 1.06066 -1.06066 
C 0.77937 -1.341951 0.397805 -1.5 0 -1.5 
C -0.397805 -1.5 -0.77937 -1.341951 -1.06066 -1.06066 
C -1.341951 -0.77937 -1.5 -0.397805 -1.5 0 
C -1.5 0.397805 -1.341951 0.77937 -1.06066 1.06066 
C -0.77937 1.341951 -0.397805 1.5 0 1.5 
z
" id="m2bd1219bda" style="stroke:#ff00ff;"/>
    </defs>
    <g>
     <use style="fill:#ff00ff;stroke:#ff00ff;" x="249.668959" xlink:href="#m2bd1219bda" y="267.342835"/>
     <use style="fill:#ff00ff;stroke:#ff00ff;" x="249.668959" xlink:href="#m2bd1219bda" y="267.342835"/>
    </g>
   </g>
   <g id="line2d_44">
    <path d="M 145.757842 298.944 
L 145.757842 298.417314 
L 146.121002 298.417314 
L 146.121002 297.890628 
L 146.310561 297.890628 
L 146.310561 297.363942 
L 146.575182 297.363942 
L 146.575182 296.837256 
L 147.4697 296.837256 
L 147.4697 296.31057 
L 147.657693 296.31057 
L 147.657693 295.783884 
L 147.949426 295.783884 
L 147.949426 295.257197 
L 148.112924 295.257197 
L 148.112924 294.730511 
L 148.137196 294.730511 
L 148.137196 294.203825 
L 148.506778 294.203825 
L 148.506778 293.677139 
L 149.152448 293.677139 
L 149.152448 293.150453 
L 149.223242 293.150453 
L 149.223242 292.623767 
L 149.400108 292.623767 
L 149.400108 292.097081 
L 149.40913 292.097081 
L 149.40913 291.570395 
L 149.699829 291.570395 
L 149.699829 291.043709 
L 149.834581 291.043709 
L 149.834581 290.517023 
L 150.098834 290.517023 
L 150.098834 289.990337 
L 150.215485 289.990337 
L 150.215485 289.463651 
L 150.342052 289.463651 
L 150.342052 288.936964 
L 150.820621 288.936964 
L 150.820621 288.410278 
L 151.058147 288.410278 
L 151.058147 287.883592 
L 151.251953 287.883592 
L 151.251953 287.356906 
L 151.36318 287.356906 
L 151.36318 286.83022 
L 151.369226 286.83022 
L 151.369226 286.303534 
L 151.513718 286.303534 
L 151.513718 285.776848 
L 151.757822 285.776848 
L 151.757822 285.250162 
L 151.867837 285.250162 
L 151.867837 284.723476 
L 152.538255 284.723476 
L 152.538255 284.19679 
L 152.905608 284.19679 
L 152.905608 283.670104 
L 152.914832 283.670104 
L 152.914832 283.143418 
L 153.317722 283.143418 
L 153.317722 282.616732 
L 153.430889 282.616732 
L 153.430889 282.090045 
L 153.676241 282.090045 
L 153.676241 281.563359 
L 153.944287 281.563359 
L 153.944287 281.036673 
L 153.977288 281.036673 
L 153.977288 280.509987 
L 154.79093 280.509987 
L 154.79093 279.983301 
L 155.620489 279.983301 
L 155.620489 279.456615 
L 156.764934 279.456615 
L 156.764934 278.929929 
L 157.282199 278.929929 
L 157.282199 278.403243 
L 177.235899 278.403243 
L 177.235899 277.876557 
L 178.105915 277.876557 
L 178.105915 277.349871 
L 179.142401 277.349871 
L 179.142401 276.823185 
L 179.295031 276.823185 
L 179.295031 276.296499 
L 179.346152 276.296499 
L 179.346152 275.769812 
L 180.532801 275.769812 
L 180.532801 275.243126 
L 181.011018 275.243126 
L 181.011018 274.71644 
L 181.309308 274.71644 
L 181.309308 274.189754 
L 181.390928 274.189754 
L 181.390928 273.663068 
L 181.938904 273.663068 
L 181.938904 273.136382 
L 192.862284 273.136382 
L 192.862284 272.609696 
L 193.14516 272.609696 
L 193.14516 272.08301 
L 193.242947 272.08301 
L 193.242947 271.556324 
L 196.099014 271.556324 
L 196.099014 271.029638 
L 216.748823 271.029638 
L 216.748823 270.502952 
L 218.499521 270.502952 
L 218.499521 269.976266 
L 219.874975 269.976266 
L 219.874975 269.449579 
L 228.643899 269.449579 
L 228.643899 268.922893 
L 240.241219 268.922893 
L 240.241219 268.396207 
L 246.52344 268.396207 
L 246.52344 267.869521 
L 249.668959 267.869521 
L 249.668959 267.342835 
L 338.688 267.342835 
" style="fill:none;stroke:#ff00ff;stroke-linecap:square;stroke-width:1.5;"/>
   </g>
   <g id="line2d_45">
    <defs>
     <path d="M -0 8.485281 
L 5.091169 0 
L 0 -8.485281 
L -5.091169 -0 
z
" id="m00d7af26d2" style="stroke:#ff00ff;stroke-linejoin:miter;stroke-width:1.5;"/>
    </defs>
    <g>
     <use style="fill-opacity:0;stroke:#ff00ff;stroke-linejoin:miter;stroke-width:1.5;" x="196.099014" xlink:href="#m00d7af26d2" y="271.029638"/>
     <use style="fill-opacity:0;stroke:#ff00ff;stroke-linejoin:miter;stroke-width:1.5;" x="249.668959" xlink:href="#m00d7af26d2" y="267.869521"/>
     <use style="fill-opacity:0;stroke:#ff00ff;stroke-linejoin:miter;stroke-width:1.5;" x="249.668959" xlink:href="#m00d7af26d2" y="267.342835"/>
     <use style="fill-opacity:0;stroke:#ff00ff;stroke-linejoin:miter;stroke-width:1.5;" x="249.668959" xlink:href="#m00d7af26d2" y="267.342835"/>
     <use style="fill-opacity:0;stroke:#ff00ff;stroke-linejoin:miter;stroke-width:1.5;" x="338.688" xlink:href="#m00d7af26d2" y="267.342835"/>
    </g>
   </g>
   <g id="line2d_46">
    <path style="fill:none;stroke:#ff00ff;stroke-linecap:square;stroke-width:1.5;"/>
    <g/>
   </g>
   <g id="line2d_47">
    <path clip-path="url(#pc0d42cc490)" d="M 214.722602 271.029638 
" style="fill:none;stroke:#ff00ff;stroke-linecap:square;stroke-width:1.5;"/>
    <defs>
     <path d="M -12 12 
L 12 -12 
M -12 -12 
L 12 12 
" id="m1479912c1c" style="stroke:#ff00ff;"/>
    </defs>
    <g clip-path="url(#pc0d42cc490)">
     <use style="fill:#ff00ff;stroke:#ff00ff;" x="214.722602" xlink:href="#m1479912c1c" y="271.029638"/>
    </g>
   </g>
   <g id="line2d_48">
    <defs>
     <path d="M 0 1.5 
C 0.397805 1.5 0.77937 1.341951 1.06066 1.06066 
C 1.341951 0.77937 1.5 0.397805 1.5 0 
C 1.5 -0.397805 1.341951 -0.77937 1.06066 -1.06066 
C 0.77937 -1.341951 0.397805 -1.5 0 -1.5 
C -0.397805 -1.5 -0.77937 -1.341951 -1.06066 -1.06066 
C -1.341951 -0.77937 -1.5 -0.397805 -1.5 0 
C -1.5 0.397805 -1.341951 0.77937 -1.06066 1.06066 
C -0.77937 1.341951 -0.397805 1.5 0 1.5 
z
" id="mb8fd9f8d20" style="stroke:#ff0000;"/>
    </defs>
    <g>
     <use style="fill:#ff0000;stroke:#ff0000;" x="296.27275" xlink:href="#mb8fd9f8d20" y="256.809114"/>
     <use style="fill:#ff0000;stroke:#ff0000;" x="296.27275" xlink:href="#mb8fd9f8d20" y="256.809114"/>
    </g>
   </g>
   <g id="line2d_49">
    <path d="M 139.461666 298.944 
L 139.501509 297.890628 
L 140.12692 297.890628 
L 140.12692 297.363942 
L 140.291245 297.363942 
L 140.291245 296.837256 
L 140.656341 296.837256 
L 140.656341 296.31057 
L 141.274729 296.31057 
L 141.364373 295.257197 
L 141.665761 295.257197 
L 141.665761 294.730511 
L 141.958572 294.730511 
L 141.958572 294.203825 
L 142.965932 294.203825 
L 142.965932 293.150453 
L 143.656814 293.150453 
L 143.656814 292.623767 
L 145.166911 292.623767 
L 145.166911 292.097081 
L 146.00901 292.097081 
L 146.00901 291.570395 
L 146.712583 291.570395 
L 146.723108 290.517023 
L 147.61026 290.517023 
L 147.61026 289.990337 
L 148.030146 289.990337 
L 148.030146 289.463651 
L 148.655741 289.463651 
L 148.655741 288.936964 
L 149.377533 288.936964 
L 149.377533 288.410278 
L 150.137805 288.410278 
L 150.137805 287.883592 
L 150.533367 287.883592 
L 150.533367 287.356906 
L 171.824318 287.356906 
L 171.895887 286.303534 
L 172.193306 286.303534 
L 172.193306 285.776848 
L 172.6066 285.776848 
L 172.642339 284.723476 
L 172.926813 284.723476 
L 172.926813 284.19679 
L 173.070812 284.19679 
L 173.070812 283.670104 
L 173.226297 283.670104 
L 173.268253 282.616732 
L 173.371849 282.616732 
L 173.412888 281.563359 
L 174.253123 281.563359 
L 174.358598 279.983301 
L 174.771073 279.983301 
L 174.843076 278.929929 
L 174.928359 278.929929 
L 174.928359 278.403243 
L 175.121961 278.403243 
L 175.1596 277.349871 
L 175.302712 277.349871 
L 175.302712 276.823185 
L 176.00264 276.823185 
L 176.00264 276.296499 
L 186.244545 276.296499 
L 186.244545 275.769812 
L 186.390413 275.769812 
L 186.390413 275.243126 
L 186.64898 275.243126 
L 186.750495 274.189754 
L 186.906659 274.189754 
L 186.906659 273.663068 
L 187.091864 273.663068 
L 187.091864 273.136382 
L 187.363093 273.136382 
L 187.363093 272.609696 
L 187.501711 272.609696 
L 187.501711 272.08301 
L 187.660878 272.08301 
L 187.761438 271.029638 
L 187.930649 271.029638 
L 187.930649 270.502952 
L 188.28025 270.502952 
L 188.325822 268.396207 
L 189.441914 268.396207 
L 189.441914 267.869521 
L 190.617192 267.869521 
L 190.617192 267.342835 
L 199.325273 267.342835 
L 199.325273 266.816149 
L 200.361805 266.816149 
L 200.361805 266.289463 
L 200.566383 266.289463 
L 200.566383 265.762777 
L 202.083059 265.762777 
L 202.083059 265.236091 
L 220.788955 265.236091 
L 220.788955 264.709405 
L 222.128273 264.709405 
L 222.128273 264.182719 
L 223.604883 264.182719 
L 223.604883 263.656033 
L 224.054541 263.656033 
L 224.054541 263.129347 
L 232.221726 263.129347 
L 232.221726 262.60266 
L 233.02318 262.60266 
L 233.02318 262.075974 
L 238.119534 262.075974 
L 238.119534 261.549288 
L 239.809981 261.549288 
L 239.809981 261.022602 
L 252.570058 261.022602 
L 252.570058 260.495916 
L 255.1654 260.495916 
L 255.1654 259.96923 
L 255.955417 259.96923 
L 255.955417 259.442544 
L 265.099991 259.442544 
L 265.099991 258.915858 
L 271.151933 258.915858 
L 271.151933 258.389172 
L 274.149418 258.389172 
L 274.149418 257.862486 
L 279.052508 257.862486 
L 279.052508 257.3358 
L 296.27275 257.3358 
L 296.27275 256.809114 
L 338.688 256.809114 
L 338.688 256.809114 
" style="fill:none;stroke:#ff0000;stroke-linecap:square;stroke-width:1.5;"/>
   </g>
   <g id="line2d_50">
    <defs>
     <path d="M 0 -6 
L -5.196152 -3 
L -5.196152 3 
L -0 6 
L 5.196152 3 
L 5.196152 -3 
z
" id="m6ad487391c" style="stroke:#ff0000;stroke-linejoin:miter;stroke-width:1.5;"/>
    </defs>
    <g>
     <use style="fill-opacity:0;stroke:#ff0000;stroke-linejoin:miter;stroke-width:1.5;" x="190.617192" xlink:href="#m6ad487391c" y="267.869521"/>
     <use style="fill-opacity:0;stroke:#ff0000;stroke-linejoin:miter;stroke-width:1.5;" x="252.570058" xlink:href="#m6ad487391c" y="260.495916"/>
     <use style="fill-opacity:0;stroke:#ff0000;stroke-linejoin:miter;stroke-width:1.5;" x="296.27275" xlink:href="#m6ad487391c" y="256.809114"/>
     <use style="fill-opacity:0;stroke:#ff0000;stroke-linejoin:miter;stroke-width:1.5;" x="296.27275" xlink:href="#m6ad487391c" y="256.809114"/>
     <use style="fill-opacity:0;stroke:#ff0000;stroke-linejoin:miter;stroke-width:1.5;" x="338.688" xlink:href="#m6ad487391c" y="256.809114"/>
    </g>
   </g>
   <g id="line2d_51">
    <path style="fill:none;stroke:#ff0000;stroke-linecap:square;stroke-width:1.5;"/>
    <g/>
   </g>
   <g id="line2d_52">
    <path clip-path="url(#pc0d42cc490)" d="M 218.200163 265.236091 
" style="fill:none;stroke:#ff0000;stroke-linecap:square;stroke-width:1.5;"/>
    <defs>
     <path d="M -12 12 
L 12 -12 
M -12 -12 
L 12 12 
" id="mc79c419fb8" style="stroke:#ff0000;"/>
    </defs>
    <g clip-path="url(#pc0d42cc490)">
     <use style="fill:#ff0000;stroke:#ff0000;" x="218.200163" xlink:href="#mc79c419fb8" y="265.236091"/>
    </g>
   </g>
   <g id="line2d_53">
    <defs>
     <path d="M 0 1.5 
C 0.397805 1.5 0.77937 1.341951 1.06066 1.06066 
C 1.341951 0.77937 1.5 0.397805 1.5 0 
C 1.5 -0.397805 1.341951 -0.77937 1.06066 -1.06066 
C 0.77937 -1.341951 0.397805 -1.5 0 -1.5 
C -0.397805 -1.5 -0.77937 -1.341951 -1.06066 -1.06066 
C -1.341951 -0.77937 -1.5 -0.397805 -1.5 0 
C -1.5 0.397805 -1.341951 0.77937 -1.06066 1.06066 
C -0.77937 1.341951 -0.397805 1.5 0 1.5 
z
" id="m951835cd5c" style="stroke:#ff7500;"/>
    </defs>
    <g>
     <use style="fill:#ff7500;stroke:#ff7500;" x="263.394257" xlink:href="#m951835cd5c" y="30.334099"/>
     <use style="fill:#ff7500;stroke:#ff7500;" x="263.394257" xlink:href="#m951835cd5c" y="30.334099"/>
    </g>
   </g>
   <g id="line2d_54">
    <path d="M 137.415591 298.944 
L 137.415591 298.417314 
L 137.788353 298.417314 
L 137.788353 297.890628 
L 138.510793 297.890628 
L 138.510793 297.363942 
L 142.368525 297.363942 
L 142.368525 296.837256 
L 142.782256 296.837256 
L 142.782256 296.31057 
L 144.321365 296.31057 
L 144.321365 295.783884 
L 144.549294 295.783884 
L 144.549294 295.257197 
L 144.721257 295.257197 
L 144.721257 294.730511 
L 144.859373 294.730511 
L 144.859373 294.203825 
L 145.426671 294.203825 
L 145.500183 293.150453 
L 146.548634 293.150453 
L 146.651943 292.097081 
L 146.981588 292.097081 
L 146.981588 291.570395 
L 147.33562 291.570395 
L 147.345775 290.517023 
L 148.506778 290.517023 
L 148.506778 289.990337 
L 149.397852 289.990337 
L 149.397852 289.463651 
L 149.659866 289.463651 
L 149.659866 288.936964 
L 150.271374 288.936964 
L 150.271374 288.410278 
L 150.926358 288.410278 
L 150.926358 287.883592 
L 169.788654 287.883592 
L 169.788654 287.356906 
L 170.028777 287.356906 
L 170.028777 286.83022 
L 170.150699 286.83022 
L 170.150699 286.303534 
L 170.577871 286.303534 
L 170.577871 285.776848 
L 170.812727 285.776848 
L 170.812727 285.250162 
L 170.97127 285.250162 
L 170.97127 284.723476 
L 171.185404 284.723476 
L 171.187344 283.670104 
L 171.492539 283.670104 
L 171.492539 283.143418 
L 171.768729 283.143418 
L 171.768729 282.616732 
L 172.193306 282.616732 
L 172.212223 281.563359 
L 172.664936 281.563359 
L 172.664936 281.036673 
L 173.613833 281.036673 
L 173.613833 280.509987 
L 173.734975 280.509987 
L 173.734975 279.983301 
L 182.610512 279.983301 
L 182.610512 279.456615 
L 184.540975 279.456615 
L 184.562917 278.403243 
L 184.903218 278.403243 
L 184.981401 277.349871 
L 185.442995 277.349871 
L 185.442995 276.823185 
L 185.68493 276.823185 
L 185.68493 276.296499 
L 186.330258 276.296499 
L 186.330258 275.769812 
L 186.703266 275.769812 
L 186.703266 275.243126 
L 195.118737 275.243126 
L 195.118737 274.71644 
L 195.386106 274.71644 
L 195.386106 274.189754 
L 195.526201 274.189754 
L 195.636389 273.136382 
L 195.687415 273.136382 
L 195.737025 272.08301 
L 196.050113 272.08301 
L 196.050113 271.556324 
L 196.332153 271.556324 
L 196.332153 271.029638 
L 196.941942 271.029638 
L 196.941942 270.502952 
L 197.115225 270.502952 
L 197.115225 269.976266 
L 197.229508 269.976266 
L 197.229508 269.449579 
L 197.416223 269.449579 
L 197.50054 268.396207 
L 197.633641 268.396207 
L 197.633641 267.869521 
L 197.828881 267.869521 
L 197.904523 266.816149 
L 197.984571 266.816149 
L 197.984571 266.289463 
L 198.269271 266.289463 
L 198.269271 265.762777 
L 205.697388 265.762777 
L 205.697388 265.236091 
L 205.995233 265.236091 
L 205.995233 264.709405 
L 206.118198 264.709405 
L 206.118198 264.182719 
L 206.381513 264.182719 
L 206.40033 263.129347 
L 206.546644 263.129347 
L 206.546644 262.60266 
L 206.83832 262.60266 
L 206.925947 261.022602 
L 207.079336 261.022602 
L 207.122726 259.96923 
L 207.213202 259.96923 
L 207.269174 258.389172 
L 207.350358 258.389172 
L 207.407433 257.3358 
L 207.582923 257.3358 
L 207.582923 256.809114 
L 207.859246 256.809114 
L 207.93805 255.229055 
L 208.044811 255.229055 
L 208.122471 253.648997 
L 208.160473 253.648997 
L 208.160473 253.122311 
L 208.29757 253.122311 
L 208.400091 249.962195 
L 208.437188 249.962195 
L 208.494324 248.382136 
L 208.639483 248.382136 
L 208.70424 247.328764 
L 208.999994 247.328764 
L 209.014857 246.275392 
L 209.193413 246.275392 
L 209.193413 245.748706 
L 209.30616 245.748706 
L 209.392958 244.695334 
L 209.446979 244.695334 
L 209.505792 243.641962 
L 209.615688 243.641962 
L 209.615688 243.115275 
L 209.746881 243.115275 
L 209.836102 241.535217 
L 209.978948 241.535217 
L 210.053069 240.481845 
L 210.159511 240.481845 
L 210.159511 239.955159 
L 213.113065 239.955159 
L 213.208466 238.901787 
L 213.330782 238.901787 
L 213.330782 238.375101 
L 213.475671 238.375101 
L 213.475671 237.848415 
L 213.712101 237.848415 
L 213.806985 236.268356 
L 214.02519 236.268356 
L 214.132727 235.214984 
L 214.160209 235.214984 
L 214.259971 234.161612 
L 214.393028 234.161612 
L 214.393028 233.634926 
L 214.539623 233.634926 
L 214.585924 232.581554 
L 214.655012 232.581554 
L 214.725853 231.528182 
L 214.784517 231.528182 
L 214.784517 231.001496 
L 214.901045 231.001496 
L 214.901572 229.948123 
L 215.021776 229.948123 
L 215.116847 228.368065 
L 215.144175 228.368065 
L 215.23884 227.314693 
L 215.332686 227.314693 
L 215.332686 226.788007 
L 215.492691 226.788007 
L 215.590559 225.734635 
L 215.607889 225.734635 
L 215.66316 224.681263 
L 215.752395 224.681263 
L 215.752395 224.154577 
L 215.865397 224.154577 
L 215.918714 223.101204 
L 215.997445 223.101204 
L 216.104544 222.047832 
L 216.187881 222.047832 
L 216.241737 220.99446 
L 216.361568 220.99446 
L 216.430069 219.414402 
L 216.546554 219.414402 
L 216.546554 218.887716 
L 216.763997 218.887716 
L 216.868671 217.307658 
L 216.902562 217.307658 
L 216.954071 216.254285 
L 217.080995 216.254285 
L 217.181846 214.674227 
L 217.194429 214.674227 
L 217.300834 213.094169 
L 217.396266 213.094169 
L 217.440276 212.040797 
L 217.508491 212.040797 
L 217.595522 210.460738 
L 217.639033 210.460738 
L 217.718731 208.88068 
L 217.779206 208.88068 
L 217.875843 207.300622 
L 217.904104 207.300622 
L 218.013383 205.720564 
L 218.042171 205.720564 
L 218.121938 204.667192 
L 218.234005 204.667192 
L 218.297063 203.613819 
L 218.394032 203.613819 
L 218.496903 202.560447 
L 218.557866 202.560447 
L 218.608427 200.980389 
L 218.723479 200.980389 
L 218.828557 199.927017 
L 219.010185 199.927017 
L 219.114384 198.346959 
L 219.163401 198.346959 
L 219.260037 196.240214 
L 219.303034 196.240214 
L 219.303034 195.713528 
L 219.420325 195.713528 
L 219.524739 194.13347 
L 219.536387 194.13347 
L 219.536387 193.606784 
L 219.747935 193.606784 
L 219.821239 192.026726 
L 219.863471 192.026726 
L 219.9676 190.446667 
L 220.045998 190.446667 
L 220.09795 188.339923 
L 220.173856 188.339923 
L 220.280958 185.706493 
L 220.335075 185.706493 
L 220.391834 183.599748 
L 220.451671 183.599748 
L 220.537436 180.439632 
L 220.576942 180.439632 
L 220.647192 178.859574 
L 220.704194 178.859574 
L 220.811067 176.752829 
L 220.82737 176.752829 
L 220.937636 172.012655 
L 220.993103 172.012655 
L 221.099002 167.799166 
L 221.11441 167.799166 
L 221.198308 165.692422 
L 221.26028 165.692422 
L 221.359512 162.005619 
L 221.387023 162.005619 
L 221.470889 159.372189 
L 221.526204 159.372189 
L 221.621894 156.738758 
L 221.640646 156.738758 
L 221.747541 154.105328 
L 221.764095 154.105328 
L 221.86472 151.998584 
L 221.878406 151.998584 
L 221.935898 149.365153 
L 222.003489 149.365153 
L 222.110422 146.731723 
L 222.190471 146.731723 
L 222.272505 144.098292 
L 222.342868 144.098292 
L 222.40266 141.464862 
L 222.51601 141.464862 
L 222.59497 138.831432 
L 222.651031 138.831432 
L 222.724365 136.724687 
L 222.774607 136.724687 
L 222.8804 135.144629 
L 222.906548 135.144629 
L 222.998721 132.511199 
L 223.045237 132.511199 
L 223.154039 129.351082 
L 223.172134 129.351082 
L 223.260697 127.771024 
L 223.302709 127.771024 
L 223.348942 126.190966 
L 223.428497 126.190966 
L 223.438198 125.137593 
L 223.613878 125.137593 
L 223.613878 124.610907 
L 223.778743 124.610907 
L 223.884558 123.557535 
L 223.983281 123.557535 
L 223.983281 123.030849 
L 224.121936 123.030849 
L 224.161554 121.977477 
L 224.648637 121.977477 
L 224.712667 120.924105 
L 224.802341 120.924105 
L 224.89792 119.870733 
L 225.024353 119.870733 
L 225.024353 119.344047 
L 225.169001 119.344047 
L 225.278515 118.290674 
L 225.413951 118.290674 
L 225.413951 117.763988 
L 225.620573 117.763988 
L 225.692334 116.710616 
L 226.014655 116.710616 
L 226.114316 115.657244 
L 226.153507 115.657244 
L 226.153507 115.130558 
L 226.31307 115.130558 
L 226.31307 114.603872 
L 226.830907 114.603872 
L 226.933459 113.5505 
L 226.960846 113.5505 
L 227.064844 112.497128 
L 227.257371 112.497128 
L 227.257371 111.970441 
L 229.325163 111.970441 
L 229.411536 110.917069 
L 229.448311 110.917069 
L 229.462871 109.863697 
L 229.589915 109.863697 
L 229.671915 108.283639 
L 229.753575 108.283639 
L 229.828246 107.230267 
L 229.877968 107.230267 
L 229.976324 105.123522 
L 230.055734 105.123522 
L 230.129213 103.016778 
L 230.168661 103.016778 
L 230.279441 100.910034 
L 230.309768 100.910034 
L 230.314999 93.536429 
L 232.65127 93.536429 
L 232.65127 93.009743 
L 234.752051 93.009743 
L 234.848536 91.429684 
L 234.935982 91.429684 
L 234.944708 90.376312 
L 235.156173 90.376312 
L 235.156173 89.849626 
L 236.280714 89.849626 
L 236.283593 88.796254 
L 236.460225 88.796254 
L 236.460225 88.269568 
L 236.783189 88.269568 
L 236.880312 84.056079 
L 236.908272 84.056079 
L 236.908272 83.529393 
L 237.155558 83.529393 
L 237.237351 82.476021 
L 237.299091 82.476021 
L 237.299091 81.949335 
L 237.527725 81.949335 
L 237.635114 80.369277 
L 237.726964 80.369277 
L 237.75 79.315904 
L 237.886525 79.315904 
L 237.956126 77.735846 
L 238.021317 77.735846 
L 238.071214 76.155788 
L 238.142476 76.155788 
L 238.212006 75.102416 
L 238.300241 75.102416 
L 238.340024 73.522358 
L 238.418115 73.522358 
L 238.524965 71.415613 
L 238.532408 71.415613 
L 238.560152 69.835555 
L 238.653201 69.835555 
L 238.711911 68.255497 
L 238.84131 68.255497 
L 238.94845 66.675439 
L 239.11881 66.675439 
L 239.194728 64.568694 
L 239.246894 64.568694 
L 239.330577 62.988636 
L 239.803266 62.988636 
L 239.803266 62.46195 
L 239.98932 62.46195 
L 239.98932 61.935264 
L 240.70229 61.935264 
L 240.70229 61.408578 
L 242.23116 61.408578 
L 242.303341 60.355206 
L 242.41118 60.355206 
L 242.43062 58.775147 
L 244.676084 58.775147 
L 244.676084 58.248461 
L 244.888318 58.248461 
L 244.888318 57.721775 
L 245.801153 57.721775 
L 245.863309 56.668403 
L 245.929937 56.668403 
L 246.033584 54.561659 
L 246.06948 54.561659 
L 246.168415 53.508287 
L 246.197339 53.508287 
L 246.199452 52.454914 
L 246.471442 52.454914 
L 246.575052 50.874856 
L 246.685442 50.874856 
L 246.778562 48.768112 
L 246.815023 48.768112 
L 246.815023 48.241426 
L 246.953161 48.241426 
L 247.031108 47.188054 
L 247.079134 47.188054 
L 247.183042 45.607995 
L 247.245779 45.607995 
L 247.245779 45.081309 
L 247.36513 45.081309 
L 247.424472 43.501251 
L 248.06515 43.501251 
L 248.06515 42.974565 
L 248.485632 42.974565 
L 248.485632 42.447879 
L 249.509102 42.447879 
L 249.509312 41.394507 
L 251.702076 41.394507 
L 251.702076 40.867821 
L 251.879197 40.867821 
L 251.933044 39.287762 
L 252.056266 39.287762 
L 252.121987 37.707704 
L 252.276646 37.707704 
L 252.276646 37.181018 
L 252.541618 37.181018 
L 252.541618 36.654332 
L 252.656635 36.654332 
L 252.765311 35.074274 
L 252.849555 35.074274 
L 252.912609 33.494215 
L 253.332325 33.494215 
L 253.332325 32.967529 
L 254.464844 32.967529 
L 254.464844 32.440843 
L 255.762695 32.440843 
L 255.762695 31.914157 
L 256.314027 31.914157 
L 256.314027 31.387471 
L 256.682799 31.387471 
L 256.682799 30.860785 
L 263.394257 30.860785 
L 263.394257 30.334099 
L 338.688 30.334099 
L 338.688 30.334099 
" style="fill:none;stroke:#ff7500;stroke-linecap:square;stroke-width:1.5;"/>
   </g>
   <g id="line2d_55">
    <defs>
     <path d="M 0 -6 
L -1.347084 -1.854102 
L -5.706339 -1.854102 
L -2.179628 0.708204 
L -3.526712 4.854102 
L -0 2.291796 
L 3.526712 4.854102 
L 2.179628 0.708204 
L 5.706339 -1.854102 
L 1.347084 -1.854102 
z
" id="m437d339e7a" style="stroke:#ff7500;stroke-linejoin:bevel;stroke-width:1.5;"/>
    </defs>
    <g>
     <use style="fill-opacity:0;stroke:#ff7500;stroke-linejoin:bevel;stroke-width:1.5;" x="217.718731" xlink:href="#m437d339e7a" y="208.88068"/>
     <use style="fill-opacity:0;stroke:#ff7500;stroke-linejoin:bevel;stroke-width:1.5;" x="249.509312" xlink:href="#m437d339e7a" y="41.921193"/>
     <use style="fill-opacity:0;stroke:#ff7500;stroke-linejoin:bevel;stroke-width:1.5;" x="263.394257" xlink:href="#m437d339e7a" y="30.334099"/>
     <use style="fill-opacity:0;stroke:#ff7500;stroke-linejoin:bevel;stroke-width:1.5;" x="263.394257" xlink:href="#m437d339e7a" y="30.334099"/>
     <use style="fill-opacity:0;stroke:#ff7500;stroke-linejoin:bevel;stroke-width:1.5;" x="338.688" xlink:href="#m437d339e7a" y="30.334099"/>
    </g>
   </g>
   <g id="line2d_56">
    <path style="fill:none;stroke:#ff7500;stroke-linecap:square;stroke-width:1.5;"/>
    <g/>
   </g>
   <g id="line2d_57">
    <path clip-path="url(#pc0d42cc490)" d="M 230.335603 93.536429 
" style="fill:none;stroke:#ff7500;stroke-linecap:square;stroke-width:1.5;"/>
    <defs>
     <path d="M -12 12 
L 12 -12 
M -12 -12 
L 12 12 
" id="mb494258442" style="stroke:#ff7500;"/>
    </defs>
    <g clip-path="url(#pc0d42cc490)">
     <use style="fill:#ff7500;stroke:#ff7500;" x="230.335603" xlink:href="#mb494258442" y="93.536429"/>
    </g>
   </g>
   <g id="line2d_58">
    <path d="M 338.688 267.342835 
L 369.60768 293.571802 
" style="fill:none;stroke:#ff00ff;stroke-linecap:square;stroke-width:1.5;"/>
    <g>
     <use style="fill-opacity:0;stroke:#ff00ff;stroke-linejoin:miter;stroke-width:1.5;" x="338.688" xlink:href="#m00d7af26d2" y="267.342835"/>
     <use style="fill-opacity:0;stroke:#ff00ff;stroke-linejoin:miter;stroke-width:1.5;" x="369.60768" xlink:href="#m00d7af26d2" y="293.571802"/>
    </g>
   </g>
   <g id="line2d_59">
    <path d="M 338.688 256.809114 
L 369.60768 241.998701 
" style="fill:none;stroke:#ff0000;stroke-linecap:square;stroke-width:1.5;"/>
    <g>
     <use style="fill-opacity:0;stroke:#ff0000;stroke-linejoin:miter;stroke-width:1.5;" x="338.688" xlink:href="#m6ad487391c" y="256.809114"/>
     <use style="fill-opacity:0;stroke:#ff0000;stroke-linejoin:miter;stroke-width:1.5;" x="369.60768" xlink:href="#m6ad487391c" y="241.998701"/>
    </g>
   </g>
   <g id="line2d_60">
    <path d="M 338.688 30.334099 
L 369.60768 190.4256 
" style="fill:none;stroke:#000080;stroke-linecap:square;stroke-width:1.5;"/>
    <g>
     <use style="fill-opacity:0;stroke:#000080;stroke-width:1.5;" x="338.688" xlink:href="#m5bc6c5f5de" y="30.334099"/>
     <use style="fill-opacity:0;stroke:#000080;stroke-width:1.5;" x="369.60768" xlink:href="#m5bc6c5f5de" y="190.4256"/>
    </g>
   </g>
   <g id="line2d_61">
    <path d="M 338.688 30.334099 
L 369.60768 138.852499 
" style="fill:none;stroke:#ff7500;stroke-linecap:square;stroke-width:1.5;"/>
    <g>
     <use style="fill-opacity:0;stroke:#ff7500;stroke-linejoin:bevel;stroke-width:1.5;" x="338.688" xlink:href="#m437d339e7a" y="30.334099"/>
     <use style="fill-opacity:0;stroke:#ff7500;stroke-linejoin:bevel;stroke-width:1.5;" x="369.60768" xlink:href="#m437d339e7a" y="138.852499"/>
    </g>
   </g>
   <g id="line2d_62">
    <path d="M 338.688 30.334099 
L 369.60768 87.279398 
" style="fill:none;stroke:#000080;stroke-linecap:square;stroke-width:1.5;"/>
    <g>
     <use style="fill-opacity:0;stroke:#000080;stroke-width:1.5;" x="338.688" xlink:href="#m5bc6c5f5de" y="30.334099"/>
     <use style="fill-opacity:0;stroke:#000080;stroke-width:1.5;" x="369.60768" xlink:href="#m5bc6c5f5de" y="87.279398"/>
    </g>
   </g>
   <g id="line2d_63">
    <path d="M 338.688 298.944 
L 338.688 30.334099 
" style="fill:none;stroke:#000000;stroke-linecap:square;stroke-width:1.5;"/>
   </g>
   <g id="patch_3">
    <path d="M 57.6 298.944 
L 57.6 27.648 
" style="fill:none;stroke:#000000;stroke-linecap:square;stroke-linejoin:miter;stroke-width:0.8;"/>
   </g>
   <g id="patch_4">
    <path d="M 338.688 298.944 
L 338.688 27.648 
" style="fill:none;stroke:#000000;stroke-linecap:square;stroke-linejoin:miter;stroke-width:0.8;"/>
   </g>
   <g id="patch_5">
    <path d="M 57.6 298.944 
L 338.688 298.944 
" style="fill:none;stroke:#000000;stroke-linecap:square;stroke-linejoin:miter;stroke-width:0.8;"/>
   </g>
   <g id="patch_6">
    <path d="M 57.6 27.648 
L 338.688 27.648 
" style="fill:none;stroke:#000000;stroke-linecap:square;stroke-linejoin:miter;stroke-width:0.8;"/>
   </g>
   <g id="text_13">
    <!-- 025s-2e4 -->
    <defs>
     <path d="M 10.796875 72.90625 
L 49.515625 72.90625 
L 49.515625 64.59375 
L 19.828125 64.59375 
L 19.828125 46.734375 
Q 21.96875 47.46875 24.109375 47.828125 
Q 26.265625 48.1875 28.421875 48.1875 
Q 40.625 48.1875 47.75 41.5 
Q 54.890625 34.8125 54.890625 23.390625 
Q 54.890625 11.625 47.5625 5.09375 
Q 40.234375 -1.421875 26.90625 -1.421875 
Q 22.3125 -1.421875 17.546875 -0.640625 
Q 12.796875 0.140625 7.71875 1.703125 
L 7.71875 11.625 
Q 12.109375 9.234375 16.796875 8.0625 
Q 21.484375 6.890625 26.703125 6.890625 
Q 35.15625 6.890625 40.078125 11.328125 
Q 45.015625 15.765625 45.015625 23.390625 
Q 45.015625 31 40.078125 35.4375 
Q 35.15625 39.890625 26.703125 39.890625 
Q 22.75 39.890625 18.8125 39.015625 
Q 14.890625 38.140625 10.796875 36.28125 
z
" id="DejaVuSans-53"/>
    </defs>
    <g transform="translate(375.22944 298.262739)scale(0.17 -0.17)">
     <use xlink:href="#DejaVuSans-48"/>
     <use x="63.623047" xlink:href="#DejaVuSans-50"/>
     <use x="127.246094" xlink:href="#DejaVuSans-53"/>
     <use x="190.869141" xlink:href="#DejaVuSans-115"/>
     <use x="242.96875" xlink:href="#DejaVuSans-45"/>
     <use x="279.052734" xlink:href="#DejaVuSans-50"/>
     <use x="342.675781" xlink:href="#DejaVuSans-101"/>
     <use x="404.199219" xlink:href="#DejaVuSans-52"/>
    </g>
   </g>
   <g id="text_14">
    <!-- 050s-2e4 -->
    <g transform="translate(375.22944 246.689638)scale(0.17 -0.17)">
     <use xlink:href="#DejaVuSans-48"/>
     <use x="63.623047" xlink:href="#DejaVuSans-53"/>
     <use x="127.246094" xlink:href="#DejaVuSans-48"/>
     <use x="190.869141" xlink:href="#DejaVuSans-115"/>
     <use x="242.96875" xlink:href="#DejaVuSans-45"/>
     <use x="279.052734" xlink:href="#DejaVuSans-50"/>
     <use x="342.675781" xlink:href="#DejaVuSans-101"/>
     <use x="404.199219" xlink:href="#DejaVuSans-52"/>
    </g>
   </g>
   <g id="text_15">
    <!-- 100-2e4 -->
    <g transform="translate(375.22944 195.116537)scale(0.17 -0.17)">
     <use xlink:href="#DejaVuSans-49"/>
     <use x="63.623047" xlink:href="#DejaVuSans-48"/>
     <use x="127.246094" xlink:href="#DejaVuSans-48"/>
     <use x="190.869141" xlink:href="#DejaVuSans-45"/>
     <use x="226.953125" xlink:href="#DejaVuSans-50"/>
     <use x="290.576172" xlink:href="#DejaVuSans-101"/>
     <use x="352.099609" xlink:href="#DejaVuSans-52"/>
    </g>
   </g>
   <g id="text_16">
    <!-- 075s-2e4 -->
    <defs>
     <path d="M 8.203125 72.90625 
L 55.078125 72.90625 
L 55.078125 68.703125 
L 28.609375 0 
L 18.3125 0 
L 43.21875 64.59375 
L 8.203125 64.59375 
z
" id="DejaVuSans-55"/>
    </defs>
    <g transform="translate(375.22944 143.543437)scale(0.17 -0.17)">
     <use xlink:href="#DejaVuSans-48"/>
     <use x="63.623047" xlink:href="#DejaVuSans-55"/>
     <use x="127.246094" xlink:href="#DejaVuSans-53"/>
     <use x="190.869141" xlink:href="#DejaVuSans-115"/>
     <use x="242.96875" xlink:href="#DejaVuSans-45"/>
     <use x="279.052734" xlink:href="#DejaVuSans-50"/>
     <use x="342.675781" xlink:href="#DejaVuSans-101"/>
     <use x="404.199219" xlink:href="#DejaVuSans-52"/>
    </g>
   </g>
   <g id="text_17">
    <!-- 100-1e5 -->
    <g transform="translate(375.22944 91.970336)scale(0.17 -0.17)">
     <use xlink:href="#DejaVuSans-49"/>
     <use x="63.623047" xlink:href="#DejaVuSans-48"/>
     <use x="127.246094" xlink:href="#DejaVuSans-48"/>
     <use x="190.869141" xlink:href="#DejaVuSans-45"/>
     <use x="226.953125" xlink:href="#DejaVuSans-49"/>
     <use x="290.576172" xlink:href="#DejaVuSans-101"/>
     <use x="352.099609" xlink:href="#DejaVuSans-53"/>
    </g>
   </g>
   <g id="text_18">
    <!-- best 2009 -->
    <defs>
     <path d="M 48.6875 27.296875 
Q 48.6875 37.203125 44.609375 42.84375 
Q 40.53125 48.484375 33.40625 48.484375 
Q 26.265625 48.484375 22.1875 42.84375 
Q 18.109375 37.203125 18.109375 27.296875 
Q 18.109375 17.390625 22.1875 11.75 
Q 26.265625 6.109375 33.40625 6.109375 
Q 40.53125 6.109375 44.609375 11.75 
Q 48.6875 17.390625 48.6875 27.296875 
z
M 18.109375 46.390625 
Q 20.953125 51.265625 25.265625 53.625 
Q 29.59375 56 35.59375 56 
Q 45.5625 56 51.78125 48.09375 
Q 58.015625 40.1875 58.015625 27.296875 
Q 58.015625 14.40625 51.78125 6.484375 
Q 45.5625 -1.421875 35.59375 -1.421875 
Q 29.59375 -1.421875 25.265625 0.953125 
Q 20.953125 3.328125 18.109375 8.203125 
L 18.109375 0 
L 9.078125 0 
L 9.078125 75.984375 
L 18.109375 75.984375 
z
" id="DejaVuSans-98"/>
     <path d="M 10.984375 1.515625 
L 10.984375 10.5 
Q 14.703125 8.734375 18.5 7.8125 
Q 22.3125 6.890625 25.984375 6.890625 
Q 35.75 6.890625 40.890625 13.453125 
Q 46.046875 20.015625 46.78125 33.40625 
Q 43.953125 29.203125 39.59375 26.953125 
Q 35.25 24.703125 29.984375 24.703125 
Q 19.046875 24.703125 12.671875 31.3125 
Q 6.296875 37.9375 6.296875 49.421875 
Q 6.296875 60.640625 12.9375 67.421875 
Q 19.578125 74.21875 30.609375 74.21875 
Q 43.265625 74.21875 49.921875 64.515625 
Q 56.59375 54.828125 56.59375 36.375 
Q 56.59375 19.140625 48.40625 8.859375 
Q 40.234375 -1.421875 26.421875 -1.421875 
Q 22.703125 -1.421875 18.890625 -0.6875 
Q 15.09375 0.046875 10.984375 1.515625 
z
M 30.609375 32.421875 
Q 37.25 32.421875 41.125 36.953125 
Q 45.015625 41.5 45.015625 49.421875 
Q 45.015625 57.28125 41.125 61.84375 
Q 37.25 66.40625 30.609375 66.40625 
Q 23.96875 66.40625 20.09375 61.84375 
Q 16.21875 57.28125 16.21875 49.421875 
Q 16.21875 41.5 20.09375 36.953125 
Q 23.96875 32.421875 30.609375 32.421875 
z
" id="DejaVuSans-57"/>
    </defs>
    <g transform="translate(375.22944 40.397235)scale(0.17 -0.17)">
     <use xlink:href="#DejaVuSans-98"/>
     <use x="63.476562" xlink:href="#DejaVuSans-101"/>
     <use x="125" xlink:href="#DejaVuSans-115"/>
     <use x="177.099609" xlink:href="#DejaVuSans-116"/>
     <use x="216.308594" xlink:href="#DejaVuSans-32"/>
     <use x="248.095703" xlink:href="#DejaVuSans-50"/>
     <use x="311.71875" xlink:href="#DejaVuSans-48"/>
     <use x="375.341797" xlink:href="#DejaVuSans-48"/>
     <use x="438.964844" xlink:href="#DejaVuSans-57"/>
    </g>
   </g>
   <g id="text_19">
    <!-- bbob f15, 40-D -->
    <defs>
     <path d="M 19.671875 64.796875 
L 19.671875 8.109375 
L 31.59375 8.109375 
Q 46.6875 8.109375 53.6875 14.9375 
Q 60.6875 21.78125 60.6875 36.53125 
Q 60.6875 51.171875 53.6875 57.984375 
Q 46.6875 64.796875 31.59375 64.796875 
z
M 9.8125 72.90625 
L 30.078125 72.90625 
Q 51.265625 72.90625 61.171875 64.09375 
Q 71.09375 55.28125 71.09375 36.53125 
Q 71.09375 17.671875 61.125 8.828125 
Q 51.171875 0 30.078125 0 
L 9.8125 0 
z
" id="DejaVuSans-68"/>
    </defs>
    <g transform="translate(60.41088 38.111366)scale(0.102 -0.102)">
     <use xlink:href="#DejaVuSans-98"/>
     <use x="63.476562" xlink:href="#DejaVuSans-98"/>
     <use x="126.953125" xlink:href="#DejaVuSans-111"/>
     <use x="188.134766" xlink:href="#DejaVuSans-98"/>
     <use x="251.611328" xlink:href="#DejaVuSans-32"/>
     <use x="283.398438" xlink:href="#DejaVuSans-102"/>
     <use x="318.603516" xlink:href="#DejaVuSans-49"/>
     <use x="382.226562" xlink:href="#DejaVuSans-53"/>
     <use x="445.849609" xlink:href="#DejaVuSans-44"/>
     <use x="477.636719" xlink:href="#DejaVuSans-32"/>
     <use x="509.423828" xlink:href="#DejaVuSans-52"/>
     <use x="573.046875" xlink:href="#DejaVuSans-48"/>
     <use x="636.669922" xlink:href="#DejaVuSans-45"/>
     <use x="672.753906" xlink:href="#DejaVuSans-68"/>
    </g>
    <!-- 51 targets: 100..1e-08 -->
    <defs>
     <path d="M 11.71875 12.40625 
L 22.015625 12.40625 
L 22.015625 0 
L 11.71875 0 
z
M 11.71875 51.703125 
L 22.015625 51.703125 
L 22.015625 39.3125 
L 11.71875 39.3125 
z
" id="DejaVuSans-58"/>
    </defs>
    <g transform="translate(60.41088 49.533135)scale(0.102 -0.102)">
     <use xlink:href="#DejaVuSans-53"/>
     <use x="63.623047" xlink:href="#DejaVuSans-49"/>
     <use x="127.246094" xlink:href="#DejaVuSans-32"/>
     <use x="159.033203" xlink:href="#DejaVuSans-116"/>
     <use x="198.242188" xlink:href="#DejaVuSans-97"/>
     <use x="259.521484" xlink:href="#DejaVuSans-114"/>
     <use x="300.619141" xlink:href="#DejaVuSans-103"/>
     <use x="364.095703" xlink:href="#DejaVuSans-101"/>
     <use x="425.619141" xlink:href="#DejaVuSans-116"/>
     <use x="464.828125" xlink:href="#DejaVuSans-115"/>
     <use x="516.927734" xlink:href="#DejaVuSans-58"/>
     <use x="550.619141" xlink:href="#DejaVuSans-32"/>
     <use x="582.40625" xlink:href="#DejaVuSans-49"/>
     <use x="646.029297" xlink:href="#DejaVuSans-48"/>
     <use x="709.652344" xlink:href="#DejaVuSans-48"/>
     <use x="773.275391" xlink:href="#DejaVuSans-46"/>
     <use x="805.0625" xlink:href="#DejaVuSans-46"/>
     <use x="836.849609" xlink:href="#DejaVuSans-49"/>
     <use x="900.472656" xlink:href="#DejaVuSans-101"/>
     <use x="961.996094" xlink:href="#DejaVuSans-45"/>
     <use x="998.080078" xlink:href="#DejaVuSans-48"/>
     <use x="1061.703125" xlink:href="#DejaVuSans-56"/>
    </g>
    <!-- 15 instances -->
    <g transform="translate(60.41088 60.954904)scale(0.102 -0.102)">
     <use xlink:href="#DejaVuSans-49"/>
     <use x="63.623047" xlink:href="#DejaVuSans-53"/>
     <use x="127.246094" xlink:href="#DejaVuSans-32"/>
     <use x="159.033203" xlink:href="#DejaVuSans-105"/>
     <use x="186.816406" xlink:href="#DejaVuSans-110"/>
     <use x="250.195312" xlink:href="#DejaVuSans-115"/>
     <use x="302.294922" xlink:href="#DejaVuSans-116"/>
     <use x="341.503906" xlink:href="#DejaVuSans-97"/>
     <use x="402.783203" xlink:href="#DejaVuSans-110"/>
     <use x="466.162109" xlink:href="#DejaVuSans-99"/>
     <use x="521.142578" xlink:href="#DejaVuSans-101"/>
     <use x="582.666016" xlink:href="#DejaVuSans-115"/>
    </g>
   </g>
   <g id="text_20">
    <!-- v2.3.3.18.73 -->
    <defs>
     <path d="M 40.578125 39.3125 
Q 47.65625 37.796875 51.625 33 
Q 55.609375 28.21875 55.609375 21.1875 
Q 55.609375 10.40625 48.1875 4.484375 
Q 40.765625 -1.421875 27.09375 -1.421875 
Q 22.515625 -1.421875 17.65625 -0.515625 
Q 12.796875 0.390625 7.625 2.203125 
L 7.625 11.71875 
Q 11.71875 9.328125 16.59375 8.109375 
Q 21.484375 6.890625 26.8125 6.890625 
Q 36.078125 6.890625 40.9375 10.546875 
Q 45.796875 14.203125 45.796875 21.1875 
Q 45.796875 27.640625 41.28125 31.265625 
Q 36.765625 34.90625 28.71875 34.90625 
L 20.21875 34.90625 
L 20.21875 43.015625 
L 29.109375 43.015625 
Q 36.375 43.015625 40.234375 45.921875 
Q 44.09375 48.828125 44.09375 54.296875 
Q 44.09375 59.90625 40.109375 62.90625 
Q 36.140625 65.921875 28.71875 65.921875 
Q 24.65625 65.921875 20.015625 65.03125 
Q 15.375 64.15625 9.8125 62.3125 
L 9.8125 71.09375 
Q 15.4375 72.65625 20.34375 73.4375 
Q 25.25 74.21875 29.59375 74.21875 
Q 40.828125 74.21875 47.359375 69.109375 
Q 53.90625 64.015625 53.90625 55.328125 
Q 53.90625 49.265625 50.4375 45.09375 
Q 46.96875 40.921875 40.578125 39.3125 
z
" id="DejaVuSans-51"/>
    </defs>
    <g style="fill:#808080;" transform="translate(166.559625 294.151352)scale(0.1 -0.1)">
     <use xlink:href="#DejaVuSans-118"/>
     <use x="59.179688" xlink:href="#DejaVuSans-50"/>
     <use x="122.802734" xlink:href="#DejaVuSans-46"/>
     <use x="154.589844" xlink:href="#DejaVuSans-51"/>
     <use x="218.212891" xlink:href="#DejaVuSans-46"/>
     <use x="250" xlink:href="#DejaVuSans-51"/>
     <use x="313.623047" xlink:href="#DejaVuSans-46"/>
     <use x="345.410156" xlink:href="#DejaVuSans-49"/>
     <use x="409.033203" xlink:href="#DejaVuSans-56"/>
     <use x="472.65625" xlink:href="#DejaVuSans-46"/>
     <use x="504.443359" xlink:href="#DejaVuSans-55"/>
     <use x="568.066406" xlink:href="#DejaVuSans-51"/>
    </g>
   </g>
   <g id="text_21">
    <!-- 15 Rastrigin -->
    <defs>
     <path d="M 44.390625 34.1875 
Q 47.5625 33.109375 50.5625 29.59375 
Q 53.5625 26.078125 56.59375 19.921875 
L 66.609375 0 
L 56 0 
L 46.6875 18.703125 
Q 43.0625 26.03125 39.671875 28.421875 
Q 36.28125 30.8125 30.421875 30.8125 
L 19.671875 30.8125 
L 19.671875 0 
L 9.8125 0 
L 9.8125 72.90625 
L 32.078125 72.90625 
Q 44.578125 72.90625 50.734375 67.671875 
Q 56.890625 62.453125 56.890625 51.90625 
Q 56.890625 45.015625 53.6875 40.46875 
Q 50.484375 35.9375 44.390625 34.1875 
z
M 19.671875 64.796875 
L 19.671875 38.921875 
L 32.078125 38.921875 
Q 39.203125 38.921875 42.84375 42.21875 
Q 46.484375 45.515625 46.484375 51.90625 
Q 46.484375 58.296875 42.84375 61.546875 
Q 39.203125 64.796875 32.078125 64.796875 
z
" id="DejaVuSans-82"/>
    </defs>
    <g transform="translate(137.684625 21.648)scale(0.2 -0.2)">
     <use xlink:href="#DejaVuSans-49"/>
     <use x="63.623047" xlink:href="#DejaVuSans-53"/>
     <use x="127.246094" xlink:href="#DejaVuSans-32"/>
     <use x="159.033203" xlink:href="#DejaVuSans-82"/>
     <use x="228.484375" xlink:href="#DejaVuSans-97"/>
     <use x="289.763672" xlink:href="#DejaVuSans-115"/>
     <use x="341.863281" xlink:href="#DejaVuSans-116"/>
     <use x="381.072266" xlink:href="#DejaVuSans-114"/>
     <use x="422.185547" xlink:href="#DejaVuSans-105"/>
     <use x="449.96875" xlink:href="#DejaVuSans-103"/>
     <use x="513.445312" xlink:href="#DejaVuSans-105"/>
     <use x="541.228516" xlink:href="#DejaVuSans-110"/>
    </g>
   </g>
  </g>
 </g>
 <defs>
  <clipPath id="pc0d42cc490">
   <rect height="271.296" width="281.088" x="57.6" y="27.648"/>
  </clipPath>
 </defs>
</svg>
