<?xml version="1.0" encoding="utf-8" standalone="no"?>
<!DOCTYPE svg PUBLIC "-//W3C//DTD SVG 1.1//EN"
  "http://www.w3.org/Graphics/SVG/1.1/DTD/svg11.dtd">
<!-- Created with matplotlib (https://matplotlib.org/) -->
<svg height="345.6pt" version="1.1" viewBox="0 0 460.8 345.6" width="460.8pt" xmlns="http://www.w3.org/2000/svg" xmlns:xlink="http://www.w3.org/1999/xlink">
 <defs>
  <style type="text/css">
*{stroke-linecap:butt;stroke-linejoin:round;}
  </style>
 </defs>
 <g id="figure_1">
  <g id="patch_1">
   <path d="M 0 345.6 
L 460.8 345.6 
L 460.8 0 
L 0 0 
z
" style="fill:#ffffff;"/>
  </g>
  <g id="axes_1">
   <g id="patch_2">
    <path d="M 57.6 298.944 
L 338.688 298.944 
L 338.688 27.648 
L 57.6 27.648 
z
" style="fill:#ffffff;"/>
   </g>
   <g id="line2d_1">
    <path d="M 5.356583 298.944 
L 5.356583 272.609696 
L 24.515591 272.609696 
L 24.515591 267.342835 
L 64.079801 267.342835 
L 64.079801 262.075974 
L 88.553893 262.075974 
L 88.553893 256.809114 
L 105.171792 256.809114 
L 105.171792 251.542253 
L 114.882171 251.542253 
L 114.882171 246.275392 
L 134.171324 246.275392 
L 134.171324 241.008531 
L 150.129152 241.008531 
L 150.129152 235.74167 
L 175.924929 235.74167 
L 175.924929 230.47481 
L 192.833705 230.47481 
L 192.833705 225.207949 
L 196.305363 225.207949 
L 196.305363 219.941088 
L 199.268233 219.941088 
L 199.268233 214.674227 
L 205.433079 214.674227 
L 205.433079 209.407366 
L 214.985702 209.407366 
L 214.985702 204.140506 
L 222.216668 204.140506 
L 222.216668 198.873645 
L 224.454421 198.873645 
L 224.454421 193.606784 
L 228.737521 193.606784 
L 228.737521 188.339923 
L 231.904653 188.339923 
L 231.904653 183.073062 
L 232.727212 183.073062 
L 232.727212 177.806202 
L 232.844212 177.806202 
L 232.844212 172.539341 
L 233.67814 172.539341 
L 233.67814 167.27248 
L 233.807583 167.27248 
L 233.807583 162.005619 
L 233.96901 162.005619 
L 233.96901 156.738758 
L 234.130744 156.738758 
L 234.130744 151.471897 
L 234.263904 151.471897 
L 234.263904 146.205037 
L 234.445549 146.205037 
L 234.445549 140.938176 
L 234.546954 140.938176 
L 234.546954 135.671315 
L 234.669823 135.671315 
L 234.669823 130.404454 
L 234.787685 130.404454 
L 234.787685 125.137593 
L 242.506694 125.137593 
L 242.506694 119.870733 
L 242.581251 119.870733 
L 242.581251 114.603872 
L 242.636192 114.603872 
L 242.636192 109.337011 
L 242.694325 109.337011 
L 242.694325 104.07015 
L 242.749232 104.07015 
L 242.749232 98.803289 
L 242.806266 98.803289 
L 242.806266 93.536429 
L 242.864897 93.536429 
L 242.864897 88.269568 
L 242.927434 88.269568 
L 242.927434 83.002707 
L 242.983573 83.002707 
L 242.983573 77.735846 
L 243.042159 77.735846 
L 243.042159 72.468985 
L 243.092485 72.468985 
L 243.092485 67.202125 
L 243.150518 67.202125 
L 243.150518 61.935264 
L 243.205112 61.935264 
L 243.205112 56.668403 
L 243.256548 56.668403 
L 243.256548 51.401542 
L 243.307791 51.401542 
L 243.307791 46.134681 
L 243.358389 46.134681 
L 243.358389 40.867821 
L 243.403224 40.867821 
L 243.403224 35.60096 
L 243.469194 35.60096 
L 243.469194 30.334099 
L 338.688 30.334099 
" style="fill:none;stroke:#f5deb3;stroke-linecap:square;stroke-width:4;"/>
   </g>
   <g id="line2d_2">
    <defs>
     <path d="M -0 7.778175 
L 7.778175 0 
L 0 -7.778175 
L -7.778175 -0 
z
" id="ma273885bc1" style="stroke:#f5deb3;stroke-linejoin:miter;stroke-width:1.5;"/>
    </defs>
    <g>
     <use style="fill:#f5deb3;stroke:#f5deb3;stroke-linejoin:miter;stroke-width:1.5;" x="134.171324" xlink:href="#ma273885bc1" y="246.275392"/>
     <use style="fill:#f5deb3;stroke:#f5deb3;stroke-linejoin:miter;stroke-width:1.5;" x="199.268233" xlink:href="#ma273885bc1" y="219.941088"/>
     <use style="fill:#f5deb3;stroke:#f5deb3;stroke-linejoin:miter;stroke-width:1.5;" x="242.749232" xlink:href="#ma273885bc1" y="104.07015"/>
     <use style="fill:#f5deb3;stroke:#f5deb3;stroke-linejoin:miter;stroke-width:1.5;" x="243.469194" xlink:href="#ma273885bc1" y="30.334099"/>
     <use style="fill:#f5deb3;stroke:#f5deb3;stroke-linejoin:miter;stroke-width:1.5;" x="243.469194" xlink:href="#ma273885bc1" y="30.334099"/>
     <use style="fill:#f5deb3;stroke:#f5deb3;stroke-linejoin:miter;stroke-width:1.5;" x="338.688" xlink:href="#ma273885bc1" y="30.334099"/>
    </g>
   </g>
   <g id="line2d_3">
    <path style="fill:none;stroke:#f5deb3;stroke-linecap:square;stroke-width:4;"/>
    <g/>
   </g>
   <g id="line2d_4">
    <path d="M 338.688 30.334099 
L 369.60768 35.706297 
" style="fill:none;stroke:#f5deb3;stroke-linecap:square;stroke-width:4;"/>
    <g>
     <use style="fill:#f5deb3;stroke:#f5deb3;stroke-linejoin:miter;stroke-width:1.5;" x="338.688" xlink:href="#ma273885bc1" y="30.334099"/>
     <use style="fill:#f5deb3;stroke:#f5deb3;stroke-linejoin:miter;stroke-width:1.5;" x="369.60768" xlink:href="#ma273885bc1" y="35.706297"/>
    </g>
   </g>
   <g id="matplotlib.axis_1">
    <g id="xtick_1">
     <g id="line2d_5">
      <path clip-path="url(#pa950e7dbcc)" d="M 57.6 298.944 
L 57.6 27.648 
" style="fill:none;stroke:#b0b0b0;stroke-linecap:square;stroke-width:0.8;"/>
     </g>
     <g id="line2d_6">
      <defs>
       <path d="M 0 0 
L 0 3.5 
" id="m1aea1b729b" style="stroke:#000000;stroke-width:0.8;"/>
      </defs>
      <g>
       <use style="stroke:#000000;stroke-width:0.8;" x="57.6" xlink:href="#m1aea1b729b" y="298.944"/>
      </g>
     </g>
     <g id="text_1">
      <!-- 0 -->
      <defs>
       <path d="M 31.78125 66.40625 
Q 24.171875 66.40625 20.328125 58.90625 
Q 16.5 51.421875 16.5 36.375 
Q 16.5 21.390625 20.328125 13.890625 
Q 24.171875 6.390625 31.78125 6.390625 
Q 39.453125 6.390625 43.28125 13.890625 
Q 47.125 21.390625 47.125 36.375 
Q 47.125 51.421875 43.28125 58.90625 
Q 39.453125 66.40625 31.78125 66.40625 
z
M 31.78125 74.21875 
Q 44.046875 74.21875 50.515625 64.515625 
Q 56.984375 54.828125 56.984375 36.375 
Q 56.984375 17.96875 50.515625 8.265625 
Q 44.046875 -1.421875 31.78125 -1.421875 
Q 19.53125 -1.421875 13.0625 8.265625 
Q 6.59375 17.96875 6.59375 36.375 
Q 6.59375 54.828125 13.0625 64.515625 
Q 19.53125 74.21875 31.78125 74.21875 
z
" id="DejaVuSans-48"/>
      </defs>
      <g transform="translate(51.2375 321.140875)scale(0.2 -0.2)">
       <use xlink:href="#DejaVuSans-48"/>
      </g>
     </g>
    </g>
    <g id="xtick_2">
     <g id="line2d_7">
      <path clip-path="url(#pa950e7dbcc)" d="M 137.910857 298.944 
L 137.910857 27.648 
" style="fill:none;stroke:#b0b0b0;stroke-linecap:square;stroke-width:0.8;"/>
     </g>
     <g id="line2d_8">
      <g>
       <use style="stroke:#000000;stroke-width:0.8;" x="137.910857" xlink:href="#m1aea1b729b" y="298.944"/>
      </g>
     </g>
     <g id="text_2">
      <!-- 2 -->
      <defs>
       <path d="M 19.1875 8.296875 
L 53.609375 8.296875 
L 53.609375 0 
L 7.328125 0 
L 7.328125 8.296875 
Q 12.9375 14.109375 22.625 23.890625 
Q 32.328125 33.6875 34.8125 36.53125 
Q 39.546875 41.84375 41.421875 45.53125 
Q 43.3125 49.21875 43.3125 52.78125 
Q 43.3125 58.59375 39.234375 62.25 
Q 35.15625 65.921875 28.609375 65.921875 
Q 23.96875 65.921875 18.8125 64.3125 
Q 13.671875 62.703125 7.8125 59.421875 
L 7.8125 69.390625 
Q 13.765625 71.78125 18.9375 73 
Q 24.125 74.21875 28.421875 74.21875 
Q 39.75 74.21875 46.484375 68.546875 
Q 53.21875 62.890625 53.21875 53.421875 
Q 53.21875 48.921875 51.53125 44.890625 
Q 49.859375 40.875 45.40625 35.40625 
Q 44.1875 33.984375 37.640625 27.21875 
Q 31.109375 20.453125 19.1875 8.296875 
z
" id="DejaVuSans-50"/>
      </defs>
      <g transform="translate(131.548357 321.140875)scale(0.2 -0.2)">
       <use xlink:href="#DejaVuSans-50"/>
      </g>
     </g>
    </g>
    <g id="xtick_3">
     <g id="line2d_9">
      <path clip-path="url(#pa950e7dbcc)" d="M 218.221714 298.944 
L 218.221714 27.648 
" style="fill:none;stroke:#b0b0b0;stroke-linecap:square;stroke-width:0.8;"/>
     </g>
     <g id="line2d_10">
      <g>
       <use style="stroke:#000000;stroke-width:0.8;" x="218.221714" xlink:href="#m1aea1b729b" y="298.944"/>
      </g>
     </g>
     <g id="text_3">
      <!-- 4 -->
      <defs>
       <path d="M 37.796875 64.3125 
L 12.890625 25.390625 
L 37.796875 25.390625 
z
M 35.203125 72.90625 
L 47.609375 72.90625 
L 47.609375 25.390625 
L 58.015625 25.390625 
L 58.015625 17.1875 
L 47.609375 17.1875 
L 47.609375 0 
L 37.796875 0 
L 37.796875 17.1875 
L 4.890625 17.1875 
L 4.890625 26.703125 
z
" id="DejaVuSans-52"/>
      </defs>
      <g transform="translate(211.859214 321.140875)scale(0.2 -0.2)">
       <use xlink:href="#DejaVuSans-52"/>
      </g>
     </g>
    </g>
    <g id="xtick_4">
     <g id="line2d_11">
      <path clip-path="url(#pa950e7dbcc)" d="M 298.532571 298.944 
L 298.532571 27.648 
" style="fill:none;stroke:#b0b0b0;stroke-linecap:square;stroke-width:0.8;"/>
     </g>
     <g id="line2d_12">
      <g>
       <use style="stroke:#000000;stroke-width:0.8;" x="298.532571" xlink:href="#m1aea1b729b" y="298.944"/>
      </g>
     </g>
     <g id="text_4">
      <!-- 6 -->
      <defs>
       <path d="M 33.015625 40.375 
Q 26.375 40.375 22.484375 35.828125 
Q 18.609375 31.296875 18.609375 23.390625 
Q 18.609375 15.53125 22.484375 10.953125 
Q 26.375 6.390625 33.015625 6.390625 
Q 39.65625 6.390625 43.53125 10.953125 
Q 47.40625 15.53125 47.40625 23.390625 
Q 47.40625 31.296875 43.53125 35.828125 
Q 39.65625 40.375 33.015625 40.375 
z
M 52.59375 71.296875 
L 52.59375 62.3125 
Q 48.875 64.0625 45.09375 64.984375 
Q 41.3125 65.921875 37.59375 65.921875 
Q 27.828125 65.921875 22.671875 59.328125 
Q 17.53125 52.734375 16.796875 39.40625 
Q 19.671875 43.65625 24.015625 45.921875 
Q 28.375 48.1875 33.59375 48.1875 
Q 44.578125 48.1875 50.953125 41.515625 
Q 57.328125 34.859375 57.328125 23.390625 
Q 57.328125 12.15625 50.6875 5.359375 
Q 44.046875 -1.421875 33.015625 -1.421875 
Q 20.359375 -1.421875 13.671875 8.265625 
Q 6.984375 17.96875 6.984375 36.375 
Q 6.984375 53.65625 15.1875 63.9375 
Q 23.390625 74.21875 37.203125 74.21875 
Q 40.921875 74.21875 44.703125 73.484375 
Q 48.484375 72.75 52.59375 71.296875 
z
" id="DejaVuSans-54"/>
      </defs>
      <g transform="translate(292.170071 321.140875)scale(0.2 -0.2)">
       <use xlink:href="#DejaVuSans-54"/>
      </g>
     </g>
    </g>
    <g id="xtick_5">
     <g id="line2d_13">
      <path clip-path="url(#pa950e7dbcc)" d="M 97.755429 298.944 
L 97.755429 27.648 
" style="fill:none;stroke:#b0b0b0;stroke-linecap:square;stroke-width:0.8;"/>
     </g>
     <g id="line2d_14">
      <defs>
       <path d="M 0 0 
L 0 2 
" id="m9b0994046e" style="stroke:#000000;stroke-width:0.6;"/>
      </defs>
      <g>
       <use style="stroke:#000000;stroke-width:0.6;" x="97.755429" xlink:href="#m9b0994046e" y="298.944"/>
      </g>
     </g>
    </g>
    <g id="xtick_6">
     <g id="line2d_15">
      <path clip-path="url(#pa950e7dbcc)" d="M 178.066286 298.944 
L 178.066286 27.648 
" style="fill:none;stroke:#b0b0b0;stroke-linecap:square;stroke-width:0.8;"/>
     </g>
     <g id="line2d_16">
      <g>
       <use style="stroke:#000000;stroke-width:0.6;" x="178.066286" xlink:href="#m9b0994046e" y="298.944"/>
      </g>
     </g>
    </g>
    <g id="xtick_7">
     <g id="line2d_17">
      <path clip-path="url(#pa950e7dbcc)" d="M 258.377143 298.944 
L 258.377143 27.648 
" style="fill:none;stroke:#b0b0b0;stroke-linecap:square;stroke-width:0.8;"/>
     </g>
     <g id="line2d_18">
      <g>
       <use style="stroke:#000000;stroke-width:0.6;" x="258.377143" xlink:href="#m9b0994046e" y="298.944"/>
      </g>
     </g>
    </g>
    <g id="xtick_8">
     <g id="line2d_19">
      <path clip-path="url(#pa950e7dbcc)" d="M 338.688 298.944 
L 338.688 27.648 
" style="fill:none;stroke:#b0b0b0;stroke-linecap:square;stroke-width:0.8;"/>
     </g>
     <g id="line2d_20">
      <g>
       <use style="stroke:#000000;stroke-width:0.6;" x="338.688" xlink:href="#m9b0994046e" y="298.944"/>
      </g>
     </g>
    </g>
    <g id="text_5">
     <!-- log10(# f-evals / dimension) -->
     <defs>
      <path d="M 9.421875 75.984375 
L 18.40625 75.984375 
L 18.40625 0 
L 9.421875 0 
z
" id="DejaVuSans-108"/>
      <path d="M 30.609375 48.390625 
Q 23.390625 48.390625 19.1875 42.75 
Q 14.984375 37.109375 14.984375 27.296875 
Q 14.984375 17.484375 19.15625 11.84375 
Q 23.34375 6.203125 30.609375 6.203125 
Q 37.796875 6.203125 41.984375 11.859375 
Q 46.1875 17.53125 46.1875 27.296875 
Q 46.1875 37.015625 41.984375 42.703125 
Q 37.796875 48.390625 30.609375 48.390625 
z
M 30.609375 56 
Q 42.328125 56 49.015625 48.375 
Q 55.71875 40.765625 55.71875 27.296875 
Q 55.71875 13.875 49.015625 6.21875 
Q 42.328125 -1.421875 30.609375 -1.421875 
Q 18.84375 -1.421875 12.171875 6.21875 
Q 5.515625 13.875 5.515625 27.296875 
Q 5.515625 40.765625 12.171875 48.375 
Q 18.84375 56 30.609375 56 
z
" id="DejaVuSans-111"/>
      <path d="M 45.40625 27.984375 
Q 45.40625 37.75 41.375 43.109375 
Q 37.359375 48.484375 30.078125 48.484375 
Q 22.859375 48.484375 18.828125 43.109375 
Q 14.796875 37.75 14.796875 27.984375 
Q 14.796875 18.265625 18.828125 12.890625 
Q 22.859375 7.515625 30.078125 7.515625 
Q 37.359375 7.515625 41.375 12.890625 
Q 45.40625 18.265625 45.40625 27.984375 
z
M 54.390625 6.78125 
Q 54.390625 -7.171875 48.1875 -13.984375 
Q 42 -20.796875 29.203125 -20.796875 
Q 24.46875 -20.796875 20.265625 -20.09375 
Q 16.0625 -19.390625 12.109375 -17.921875 
L 12.109375 -9.1875 
Q 16.0625 -11.328125 19.921875 -12.34375 
Q 23.78125 -13.375 27.78125 -13.375 
Q 36.625 -13.375 41.015625 -8.765625 
Q 45.40625 -4.15625 45.40625 5.171875 
L 45.40625 9.625 
Q 42.625 4.78125 38.28125 2.390625 
Q 33.9375 0 27.875 0 
Q 17.828125 0 11.671875 7.65625 
Q 5.515625 15.328125 5.515625 27.984375 
Q 5.515625 40.671875 11.671875 48.328125 
Q 17.828125 56 27.875 56 
Q 33.9375 56 38.28125 53.609375 
Q 42.625 51.21875 45.40625 46.390625 
L 45.40625 54.6875 
L 54.390625 54.6875 
z
" id="DejaVuSans-103"/>
      <path d="M 12.40625 8.296875 
L 28.515625 8.296875 
L 28.515625 63.921875 
L 10.984375 60.40625 
L 10.984375 69.390625 
L 28.421875 72.90625 
L 38.28125 72.90625 
L 38.28125 8.296875 
L 54.390625 8.296875 
L 54.390625 0 
L 12.40625 0 
z
" id="DejaVuSans-49"/>
      <path d="M 31 75.875 
Q 24.46875 64.65625 21.28125 53.65625 
Q 18.109375 42.671875 18.109375 31.390625 
Q 18.109375 20.125 21.3125 9.0625 
Q 24.515625 -2 31 -13.1875 
L 23.1875 -13.1875 
Q 15.875 -1.703125 12.234375 9.375 
Q 8.59375 20.453125 8.59375 31.390625 
Q 8.59375 42.28125 12.203125 53.3125 
Q 15.828125 64.359375 23.1875 75.875 
z
" id="DejaVuSans-40"/>
      <path d="M 51.125 44 
L 36.921875 44 
L 32.8125 27.6875 
L 47.125 27.6875 
z
M 43.796875 71.78125 
L 38.71875 51.515625 
L 52.984375 51.515625 
L 58.109375 71.78125 
L 65.921875 71.78125 
L 60.890625 51.515625 
L 76.125 51.515625 
L 76.125 44 
L 58.984375 44 
L 54.984375 27.6875 
L 70.515625 27.6875 
L 70.515625 20.21875 
L 53.078125 20.21875 
L 48 0 
L 40.1875 0 
L 45.21875 20.21875 
L 30.90625 20.21875 
L 25.875 0 
L 18.015625 0 
L 23.09375 20.21875 
L 7.71875 20.21875 
L 7.71875 27.6875 
L 24.90625 27.6875 
L 29 44 
L 13.28125 44 
L 13.28125 51.515625 
L 30.90625 51.515625 
L 35.890625 71.78125 
z
" id="DejaVuSans-35"/>
      <path id="DejaVuSans-32"/>
      <path d="M 37.109375 75.984375 
L 37.109375 68.5 
L 28.515625 68.5 
Q 23.6875 68.5 21.796875 66.546875 
Q 19.921875 64.59375 19.921875 59.515625 
L 19.921875 54.6875 
L 34.71875 54.6875 
L 34.71875 47.703125 
L 19.921875 47.703125 
L 19.921875 0 
L 10.890625 0 
L 10.890625 47.703125 
L 2.296875 47.703125 
L 2.296875 54.6875 
L 10.890625 54.6875 
L 10.890625 58.5 
Q 10.890625 67.625 15.140625 71.796875 
Q 19.390625 75.984375 28.609375 75.984375 
z
" id="DejaVuSans-102"/>
      <path d="M 4.890625 31.390625 
L 31.203125 31.390625 
L 31.203125 23.390625 
L 4.890625 23.390625 
z
" id="DejaVuSans-45"/>
      <path d="M 56.203125 29.59375 
L 56.203125 25.203125 
L 14.890625 25.203125 
Q 15.484375 15.921875 20.484375 11.0625 
Q 25.484375 6.203125 34.421875 6.203125 
Q 39.59375 6.203125 44.453125 7.46875 
Q 49.3125 8.734375 54.109375 11.28125 
L 54.109375 2.78125 
Q 49.265625 0.734375 44.1875 -0.34375 
Q 39.109375 -1.421875 33.890625 -1.421875 
Q 20.796875 -1.421875 13.15625 6.1875 
Q 5.515625 13.8125 5.515625 26.8125 
Q 5.515625 40.234375 12.765625 48.109375 
Q 20.015625 56 32.328125 56 
Q 43.359375 56 49.78125 48.890625 
Q 56.203125 41.796875 56.203125 29.59375 
z
M 47.21875 32.234375 
Q 47.125 39.59375 43.09375 43.984375 
Q 39.0625 48.390625 32.421875 48.390625 
Q 24.90625 48.390625 20.390625 44.140625 
Q 15.875 39.890625 15.1875 32.171875 
z
" id="DejaVuSans-101"/>
      <path d="M 2.984375 54.6875 
L 12.5 54.6875 
L 29.59375 8.796875 
L 46.6875 54.6875 
L 56.203125 54.6875 
L 35.6875 0 
L 23.484375 0 
z
" id="DejaVuSans-118"/>
      <path d="M 34.28125 27.484375 
Q 23.390625 27.484375 19.1875 25 
Q 14.984375 22.515625 14.984375 16.5 
Q 14.984375 11.71875 18.140625 8.90625 
Q 21.296875 6.109375 26.703125 6.109375 
Q 34.1875 6.109375 38.703125 11.40625 
Q 43.21875 16.703125 43.21875 25.484375 
L 43.21875 27.484375 
z
M 52.203125 31.203125 
L 52.203125 0 
L 43.21875 0 
L 43.21875 8.296875 
Q 40.140625 3.328125 35.546875 0.953125 
Q 30.953125 -1.421875 24.3125 -1.421875 
Q 15.921875 -1.421875 10.953125 3.296875 
Q 6 8.015625 6 15.921875 
Q 6 25.140625 12.171875 29.828125 
Q 18.359375 34.515625 30.609375 34.515625 
L 43.21875 34.515625 
L 43.21875 35.40625 
Q 43.21875 41.609375 39.140625 45 
Q 35.0625 48.390625 27.6875 48.390625 
Q 23 48.390625 18.546875 47.265625 
Q 14.109375 46.140625 10.015625 43.890625 
L 10.015625 52.203125 
Q 14.9375 54.109375 19.578125 55.046875 
Q 24.21875 56 28.609375 56 
Q 40.484375 56 46.34375 49.84375 
Q 52.203125 43.703125 52.203125 31.203125 
z
" id="DejaVuSans-97"/>
      <path d="M 44.28125 53.078125 
L 44.28125 44.578125 
Q 40.484375 46.53125 36.375 47.5 
Q 32.28125 48.484375 27.875 48.484375 
Q 21.1875 48.484375 17.84375 46.4375 
Q 14.5 44.390625 14.5 40.28125 
Q 14.5 37.15625 16.890625 35.375 
Q 19.28125 33.59375 26.515625 31.984375 
L 29.59375 31.296875 
Q 39.15625 29.25 43.1875 25.515625 
Q 47.21875 21.78125 47.21875 15.09375 
Q 47.21875 7.46875 41.1875 3.015625 
Q 35.15625 -1.421875 24.609375 -1.421875 
Q 20.21875 -1.421875 15.453125 -0.5625 
Q 10.6875 0.296875 5.421875 2 
L 5.421875 11.28125 
Q 10.40625 8.6875 15.234375 7.390625 
Q 20.0625 6.109375 24.8125 6.109375 
Q 31.15625 6.109375 34.5625 8.28125 
Q 37.984375 10.453125 37.984375 14.40625 
Q 37.984375 18.0625 35.515625 20.015625 
Q 33.0625 21.96875 24.703125 23.78125 
L 21.578125 24.515625 
Q 13.234375 26.265625 9.515625 29.90625 
Q 5.8125 33.546875 5.8125 39.890625 
Q 5.8125 47.609375 11.28125 51.796875 
Q 16.75 56 26.8125 56 
Q 31.78125 56 36.171875 55.265625 
Q 40.578125 54.546875 44.28125 53.078125 
z
" id="DejaVuSans-115"/>
      <path d="M 25.390625 72.90625 
L 33.6875 72.90625 
L 8.296875 -9.28125 
L 0 -9.28125 
z
" id="DejaVuSans-47"/>
      <path d="M 45.40625 46.390625 
L 45.40625 75.984375 
L 54.390625 75.984375 
L 54.390625 0 
L 45.40625 0 
L 45.40625 8.203125 
Q 42.578125 3.328125 38.25 0.953125 
Q 33.9375 -1.421875 27.875 -1.421875 
Q 17.96875 -1.421875 11.734375 6.484375 
Q 5.515625 14.40625 5.515625 27.296875 
Q 5.515625 40.1875 11.734375 48.09375 
Q 17.96875 56 27.875 56 
Q 33.9375 56 38.25 53.625 
Q 42.578125 51.265625 45.40625 46.390625 
z
M 14.796875 27.296875 
Q 14.796875 17.390625 18.875 11.75 
Q 22.953125 6.109375 30.078125 6.109375 
Q 37.203125 6.109375 41.296875 11.75 
Q 45.40625 17.390625 45.40625 27.296875 
Q 45.40625 37.203125 41.296875 42.84375 
Q 37.203125 48.484375 30.078125 48.484375 
Q 22.953125 48.484375 18.875 42.84375 
Q 14.796875 37.203125 14.796875 27.296875 
z
" id="DejaVuSans-100"/>
      <path d="M 9.421875 54.6875 
L 18.40625 54.6875 
L 18.40625 0 
L 9.421875 0 
z
M 9.421875 75.984375 
L 18.40625 75.984375 
L 18.40625 64.59375 
L 9.421875 64.59375 
z
" id="DejaVuSans-105"/>
      <path d="M 52 44.1875 
Q 55.375 50.25 60.0625 53.125 
Q 64.75 56 71.09375 56 
Q 79.640625 56 84.28125 50.015625 
Q 88.921875 44.046875 88.921875 33.015625 
L 88.921875 0 
L 79.890625 0 
L 79.890625 32.71875 
Q 79.890625 40.578125 77.09375 44.375 
Q 74.3125 48.1875 68.609375 48.1875 
Q 61.625 48.1875 57.5625 43.546875 
Q 53.515625 38.921875 53.515625 30.90625 
L 53.515625 0 
L 44.484375 0 
L 44.484375 32.71875 
Q 44.484375 40.625 41.703125 44.40625 
Q 38.921875 48.1875 33.109375 48.1875 
Q 26.21875 48.1875 22.15625 43.53125 
Q 18.109375 38.875 18.109375 30.90625 
L 18.109375 0 
L 9.078125 0 
L 9.078125 54.6875 
L 18.109375 54.6875 
L 18.109375 46.1875 
Q 21.1875 51.21875 25.484375 53.609375 
Q 29.78125 56 35.6875 56 
Q 41.65625 56 45.828125 52.96875 
Q 50 49.953125 52 44.1875 
z
" id="DejaVuSans-109"/>
      <path d="M 54.890625 33.015625 
L 54.890625 0 
L 45.90625 0 
L 45.90625 32.71875 
Q 45.90625 40.484375 42.875 44.328125 
Q 39.84375 48.1875 33.796875 48.1875 
Q 26.515625 48.1875 22.3125 43.546875 
Q 18.109375 38.921875 18.109375 30.90625 
L 18.109375 0 
L 9.078125 0 
L 9.078125 54.6875 
L 18.109375 54.6875 
L 18.109375 46.1875 
Q 21.34375 51.125 25.703125 53.5625 
Q 30.078125 56 35.796875 56 
Q 45.21875 56 50.046875 50.171875 
Q 54.890625 44.34375 54.890625 33.015625 
z
" id="DejaVuSans-110"/>
      <path d="M 8.015625 75.875 
L 15.828125 75.875 
Q 23.140625 64.359375 26.78125 53.3125 
Q 30.421875 42.28125 30.421875 31.390625 
Q 30.421875 20.453125 26.78125 9.375 
Q 23.140625 -1.703125 15.828125 -13.1875 
L 8.015625 -13.1875 
Q 14.5 -2 17.703125 9.0625 
Q 20.90625 20.125 20.90625 31.390625 
Q 20.90625 42.671875 17.703125 53.65625 
Q 14.5 64.65625 8.015625 75.875 
z
" id="DejaVuSans-41"/>
     </defs>
     <g transform="translate(77.303219 342.217594)scale(0.17 -0.17)">
      <use xlink:href="#DejaVuSans-108"/>
      <use x="27.783203" xlink:href="#DejaVuSans-111"/>
      <use x="88.964844" xlink:href="#DejaVuSans-103"/>
      <use x="152.441406" xlink:href="#DejaVuSans-49"/>
      <use x="216.064453" xlink:href="#DejaVuSans-48"/>
      <use x="279.6875" xlink:href="#DejaVuSans-40"/>
      <use x="318.701172" xlink:href="#DejaVuSans-35"/>
      <use x="402.490234" xlink:href="#DejaVuSans-32"/>
      <use x="434.277344" xlink:href="#DejaVuSans-102"/>
      <use x="469.404297" xlink:href="#DejaVuSans-45"/>
      <use x="505.488281" xlink:href="#DejaVuSans-101"/>
      <use x="567.011719" xlink:href="#DejaVuSans-118"/>
      <use x="626.191406" xlink:href="#DejaVuSans-97"/>
      <use x="687.470703" xlink:href="#DejaVuSans-108"/>
      <use x="715.253906" xlink:href="#DejaVuSans-115"/>
      <use x="767.353516" xlink:href="#DejaVuSans-32"/>
      <use x="799.140625" xlink:href="#DejaVuSans-47"/>
      <use x="832.832031" xlink:href="#DejaVuSans-32"/>
      <use x="864.619141" xlink:href="#DejaVuSans-100"/>
      <use x="928.095703" xlink:href="#DejaVuSans-105"/>
      <use x="955.878906" xlink:href="#DejaVuSans-109"/>
      <use x="1053.291016" xlink:href="#DejaVuSans-101"/>
      <use x="1114.814453" xlink:href="#DejaVuSans-110"/>
      <use x="1178.193359" xlink:href="#DejaVuSans-115"/>
      <use x="1230.292969" xlink:href="#DejaVuSans-105"/>
      <use x="1258.076172" xlink:href="#DejaVuSans-111"/>
      <use x="1319.257812" xlink:href="#DejaVuSans-110"/>
      <use x="1382.636719" xlink:href="#DejaVuSans-41"/>
     </g>
    </g>
   </g>
   <g id="matplotlib.axis_2">
    <g id="ytick_1">
     <g id="line2d_21">
      <path clip-path="url(#pa950e7dbcc)" d="M 57.6 298.944 
L 338.688 298.944 
" style="fill:none;stroke:#b0b0b0;stroke-linecap:square;stroke-width:0.8;"/>
     </g>
     <g id="line2d_22">
      <defs>
       <path d="M 0 0 
L -3.5 0 
" id="m3bf8cf9134" style="stroke:#000000;stroke-width:0.8;"/>
      </defs>
      <g>
       <use style="stroke:#000000;stroke-width:0.8;" x="57.6" xlink:href="#m3bf8cf9134" y="298.944"/>
      </g>
     </g>
     <g id="text_6">
      <!-- 0.0 -->
      <defs>
       <path d="M 10.6875 12.40625 
L 21 12.40625 
L 21 0 
L 10.6875 0 
z
" id="DejaVuSans-46"/>
      </defs>
      <g transform="translate(25.155 305.02275)scale(0.16 -0.16)">
       <use xlink:href="#DejaVuSans-48"/>
       <use x="63.623047" xlink:href="#DejaVuSans-46"/>
       <use x="95.410156" xlink:href="#DejaVuSans-48"/>
      </g>
     </g>
    </g>
    <g id="ytick_2">
     <g id="line2d_23">
      <path clip-path="url(#pa950e7dbcc)" d="M 57.6 245.22202 
L 338.688 245.22202 
" style="fill:none;stroke:#b0b0b0;stroke-linecap:square;stroke-width:0.8;"/>
     </g>
     <g id="line2d_24">
      <g>
       <use style="stroke:#000000;stroke-width:0.8;" x="57.6" xlink:href="#m3bf8cf9134" y="245.22202"/>
      </g>
     </g>
     <g id="text_7">
      <!-- 0.2 -->
      <g transform="translate(25.155 251.30077)scale(0.16 -0.16)">
       <use xlink:href="#DejaVuSans-48"/>
       <use x="63.623047" xlink:href="#DejaVuSans-46"/>
       <use x="95.410156" xlink:href="#DejaVuSans-50"/>
      </g>
     </g>
    </g>
    <g id="ytick_3">
     <g id="line2d_25">
      <path clip-path="url(#pa950e7dbcc)" d="M 57.6 191.50004 
L 338.688 191.50004 
" style="fill:none;stroke:#b0b0b0;stroke-linecap:square;stroke-width:0.8;"/>
     </g>
     <g id="line2d_26">
      <g>
       <use style="stroke:#000000;stroke-width:0.8;" x="57.6" xlink:href="#m3bf8cf9134" y="191.50004"/>
      </g>
     </g>
     <g id="text_8">
      <!-- 0.4 -->
      <g transform="translate(25.155 197.57879)scale(0.16 -0.16)">
       <use xlink:href="#DejaVuSans-48"/>
       <use x="63.623047" xlink:href="#DejaVuSans-46"/>
       <use x="95.410156" xlink:href="#DejaVuSans-52"/>
      </g>
     </g>
    </g>
    <g id="ytick_4">
     <g id="line2d_27">
      <path clip-path="url(#pa950e7dbcc)" d="M 57.6 137.778059 
L 338.688 137.778059 
" style="fill:none;stroke:#b0b0b0;stroke-linecap:square;stroke-width:0.8;"/>
     </g>
     <g id="line2d_28">
      <g>
       <use style="stroke:#000000;stroke-width:0.8;" x="57.6" xlink:href="#m3bf8cf9134" y="137.778059"/>
      </g>
     </g>
     <g id="text_9">
      <!-- 0.6 -->
      <g transform="translate(25.155 143.856809)scale(0.16 -0.16)">
       <use xlink:href="#DejaVuSans-48"/>
       <use x="63.623047" xlink:href="#DejaVuSans-46"/>
       <use x="95.410156" xlink:href="#DejaVuSans-54"/>
      </g>
     </g>
    </g>
    <g id="ytick_5">
     <g id="line2d_29">
      <path clip-path="url(#pa950e7dbcc)" d="M 57.6 84.056079 
L 338.688 84.056079 
" style="fill:none;stroke:#b0b0b0;stroke-linecap:square;stroke-width:0.8;"/>
     </g>
     <g id="line2d_30">
      <g>
       <use style="stroke:#000000;stroke-width:0.8;" x="57.6" xlink:href="#m3bf8cf9134" y="84.056079"/>
      </g>
     </g>
     <g id="text_10">
      <!-- 0.8 -->
      <defs>
       <path d="M 31.78125 34.625 
Q 24.75 34.625 20.71875 30.859375 
Q 16.703125 27.09375 16.703125 20.515625 
Q 16.703125 13.921875 20.71875 10.15625 
Q 24.75 6.390625 31.78125 6.390625 
Q 38.8125 6.390625 42.859375 10.171875 
Q 46.921875 13.96875 46.921875 20.515625 
Q 46.921875 27.09375 42.890625 30.859375 
Q 38.875 34.625 31.78125 34.625 
z
M 21.921875 38.8125 
Q 15.578125 40.375 12.03125 44.71875 
Q 8.5 49.078125 8.5 55.328125 
Q 8.5 64.0625 14.71875 69.140625 
Q 20.953125 74.21875 31.78125 74.21875 
Q 42.671875 74.21875 48.875 69.140625 
Q 55.078125 64.0625 55.078125 55.328125 
Q 55.078125 49.078125 51.53125 44.71875 
Q 48 40.375 41.703125 38.8125 
Q 48.828125 37.15625 52.796875 32.3125 
Q 56.78125 27.484375 56.78125 20.515625 
Q 56.78125 9.90625 50.3125 4.234375 
Q 43.84375 -1.421875 31.78125 -1.421875 
Q 19.734375 -1.421875 13.25 4.234375 
Q 6.78125 9.90625 6.78125 20.515625 
Q 6.78125 27.484375 10.78125 32.3125 
Q 14.796875 37.15625 21.921875 38.8125 
z
M 18.3125 54.390625 
Q 18.3125 48.734375 21.84375 45.5625 
Q 25.390625 42.390625 31.78125 42.390625 
Q 38.140625 42.390625 41.71875 45.5625 
Q 45.3125 48.734375 45.3125 54.390625 
Q 45.3125 60.0625 41.71875 63.234375 
Q 38.140625 66.40625 31.78125 66.40625 
Q 25.390625 66.40625 21.84375 63.234375 
Q 18.3125 60.0625 18.3125 54.390625 
z
" id="DejaVuSans-56"/>
      </defs>
      <g transform="translate(25.155 90.134829)scale(0.16 -0.16)">
       <use xlink:href="#DejaVuSans-48"/>
       <use x="63.623047" xlink:href="#DejaVuSans-46"/>
       <use x="95.410156" xlink:href="#DejaVuSans-56"/>
      </g>
     </g>
    </g>
    <g id="ytick_6">
     <g id="line2d_31">
      <path clip-path="url(#pa950e7dbcc)" d="M 57.6 30.334099 
L 338.688 30.334099 
" style="fill:none;stroke:#b0b0b0;stroke-linecap:square;stroke-width:0.8;"/>
     </g>
     <g id="line2d_32">
      <g>
       <use style="stroke:#000000;stroke-width:0.8;" x="57.6" xlink:href="#m3bf8cf9134" y="30.334099"/>
      </g>
     </g>
     <g id="text_11">
      <!-- 1.0 -->
      <g transform="translate(25.155 36.412849)scale(0.16 -0.16)">
       <use xlink:href="#DejaVuSans-49"/>
       <use x="63.623047" xlink:href="#DejaVuSans-46"/>
       <use x="95.410156" xlink:href="#DejaVuSans-48"/>
      </g>
     </g>
    </g>
    <g id="text_12">
     <!-- Fraction of function,target pairs -->
     <defs>
      <path d="M 9.8125 72.90625 
L 51.703125 72.90625 
L 51.703125 64.59375 
L 19.671875 64.59375 
L 19.671875 43.109375 
L 48.578125 43.109375 
L 48.578125 34.8125 
L 19.671875 34.8125 
L 19.671875 0 
L 9.8125 0 
z
" id="DejaVuSans-70"/>
      <path d="M 41.109375 46.296875 
Q 39.59375 47.171875 37.8125 47.578125 
Q 36.03125 48 33.890625 48 
Q 26.265625 48 22.1875 43.046875 
Q 18.109375 38.09375 18.109375 28.8125 
L 18.109375 0 
L 9.078125 0 
L 9.078125 54.6875 
L 18.109375 54.6875 
L 18.109375 46.1875 
Q 20.953125 51.171875 25.484375 53.578125 
Q 30.03125 56 36.53125 56 
Q 37.453125 56 38.578125 55.875 
Q 39.703125 55.765625 41.0625 55.515625 
z
" id="DejaVuSans-114"/>
      <path d="M 48.78125 52.59375 
L 48.78125 44.1875 
Q 44.96875 46.296875 41.140625 47.34375 
Q 37.3125 48.390625 33.40625 48.390625 
Q 24.65625 48.390625 19.8125 42.84375 
Q 14.984375 37.3125 14.984375 27.296875 
Q 14.984375 17.28125 19.8125 11.734375 
Q 24.65625 6.203125 33.40625 6.203125 
Q 37.3125 6.203125 41.140625 7.25 
Q 44.96875 8.296875 48.78125 10.40625 
L 48.78125 2.09375 
Q 45.015625 0.34375 40.984375 -0.53125 
Q 36.96875 -1.421875 32.421875 -1.421875 
Q 20.0625 -1.421875 12.78125 6.34375 
Q 5.515625 14.109375 5.515625 27.296875 
Q 5.515625 40.671875 12.859375 48.328125 
Q 20.21875 56 33.015625 56 
Q 37.15625 56 41.109375 55.140625 
Q 45.0625 54.296875 48.78125 52.59375 
z
" id="DejaVuSans-99"/>
      <path d="M 18.3125 70.21875 
L 18.3125 54.6875 
L 36.8125 54.6875 
L 36.8125 47.703125 
L 18.3125 47.703125 
L 18.3125 18.015625 
Q 18.3125 11.328125 20.140625 9.421875 
Q 21.96875 7.515625 27.59375 7.515625 
L 36.8125 7.515625 
L 36.8125 0 
L 27.59375 0 
Q 17.1875 0 13.234375 3.875 
Q 9.28125 7.765625 9.28125 18.015625 
L 9.28125 47.703125 
L 2.6875 47.703125 
L 2.6875 54.6875 
L 9.28125 54.6875 
L 9.28125 70.21875 
z
" id="DejaVuSans-116"/>
      <path d="M 8.5 21.578125 
L 8.5 54.6875 
L 17.484375 54.6875 
L 17.484375 21.921875 
Q 17.484375 14.15625 20.5 10.265625 
Q 23.53125 6.390625 29.59375 6.390625 
Q 36.859375 6.390625 41.078125 11.03125 
Q 45.3125 15.671875 45.3125 23.6875 
L 45.3125 54.6875 
L 54.296875 54.6875 
L 54.296875 0 
L 45.3125 0 
L 45.3125 8.40625 
Q 42.046875 3.421875 37.71875 1 
Q 33.40625 -1.421875 27.6875 -1.421875 
Q 18.265625 -1.421875 13.375 4.4375 
Q 8.5 10.296875 8.5 21.578125 
z
M 31.109375 56 
z
" id="DejaVuSans-117"/>
      <path d="M 11.71875 12.40625 
L 22.015625 12.40625 
L 22.015625 4 
L 14.015625 -11.625 
L 7.71875 -11.625 
L 11.71875 4 
z
" id="DejaVuSans-44"/>
      <path d="M 18.109375 8.203125 
L 18.109375 -20.796875 
L 9.078125 -20.796875 
L 9.078125 54.6875 
L 18.109375 54.6875 
L 18.109375 46.390625 
Q 20.953125 51.265625 25.265625 53.625 
Q 29.59375 56 35.59375 56 
Q 45.5625 56 51.78125 48.09375 
Q 58.015625 40.1875 58.015625 27.296875 
Q 58.015625 14.40625 51.78125 6.484375 
Q 45.5625 -1.421875 35.59375 -1.421875 
Q 29.59375 -1.421875 25.265625 0.953125 
Q 20.953125 3.328125 18.109375 8.203125 
z
M 48.6875 27.296875 
Q 48.6875 37.203125 44.609375 42.84375 
Q 40.53125 48.484375 33.40625 48.484375 
Q 26.265625 48.484375 22.1875 42.84375 
Q 18.109375 37.203125 18.109375 27.296875 
Q 18.109375 17.390625 22.1875 11.75 
Q 26.265625 6.109375 33.40625 6.109375 
Q 40.53125 6.109375 44.609375 11.75 
Q 48.6875 17.390625 48.6875 27.296875 
z
" id="DejaVuSans-112"/>
     </defs>
     <g transform="translate(17.619531 298.435375)rotate(-90)scale(0.17 -0.17)">
      <use xlink:href="#DejaVuSans-70"/>
      <use x="57.410156" xlink:href="#DejaVuSans-114"/>
      <use x="98.523438" xlink:href="#DejaVuSans-97"/>
      <use x="159.802734" xlink:href="#DejaVuSans-99"/>
      <use x="214.783203" xlink:href="#DejaVuSans-116"/>
      <use x="253.992188" xlink:href="#DejaVuSans-105"/>
      <use x="281.775391" xlink:href="#DejaVuSans-111"/>
      <use x="342.957031" xlink:href="#DejaVuSans-110"/>
      <use x="406.335938" xlink:href="#DejaVuSans-32"/>
      <use x="438.123047" xlink:href="#DejaVuSans-111"/>
      <use x="499.304688" xlink:href="#DejaVuSans-102"/>
      <use x="534.509766" xlink:href="#DejaVuSans-32"/>
      <use x="566.296875" xlink:href="#DejaVuSans-102"/>
      <use x="601.501953" xlink:href="#DejaVuSans-117"/>
      <use x="664.880859" xlink:href="#DejaVuSans-110"/>
      <use x="728.259766" xlink:href="#DejaVuSans-99"/>
      <use x="783.240234" xlink:href="#DejaVuSans-116"/>
      <use x="822.449219" xlink:href="#DejaVuSans-105"/>
      <use x="850.232422" xlink:href="#DejaVuSans-111"/>
      <use x="911.414062" xlink:href="#DejaVuSans-110"/>
      <use x="974.792969" xlink:href="#DejaVuSans-44"/>
      <use x="1006.580078" xlink:href="#DejaVuSans-116"/>
      <use x="1045.789062" xlink:href="#DejaVuSans-97"/>
      <use x="1107.068359" xlink:href="#DejaVuSans-114"/>
      <use x="1148.166016" xlink:href="#DejaVuSans-103"/>
      <use x="1211.642578" xlink:href="#DejaVuSans-101"/>
      <use x="1273.166016" xlink:href="#DejaVuSans-116"/>
      <use x="1312.375" xlink:href="#DejaVuSans-32"/>
      <use x="1344.162109" xlink:href="#DejaVuSans-112"/>
      <use x="1407.638672" xlink:href="#DejaVuSans-97"/>
      <use x="1468.917969" xlink:href="#DejaVuSans-105"/>
      <use x="1496.701172" xlink:href="#DejaVuSans-114"/>
      <use x="1537.814453" xlink:href="#DejaVuSans-115"/>
     </g>
    </g>
   </g>
   <g id="line2d_33">
    <defs>
     <path d="M 0 1.5 
C 0.397805 1.5 0.77937 1.341951 1.06066 1.06066 
C 1.341951 0.77937 1.5 0.397805 1.5 0 
C 1.5 -0.397805 1.341951 -0.77937 1.06066 -1.06066 
C 0.77937 -1.341951 0.397805 -1.5 0 -1.5 
C -0.397805 -1.5 -0.77937 -1.341951 -1.06066 -1.06066 
C -1.341951 -0.77937 -1.5 -0.397805 -1.5 0 
C -1.5 0.397805 -1.341951 0.77937 -1.06066 1.06066 
C -0.77937 1.341951 -0.397805 1.5 0 1.5 
z
" id="m92371916f8" style="stroke:#f5deb3;"/>
    </defs>
    <g>
     <use style="fill:#f5deb3;stroke:#f5deb3;" x="243.469194" xlink:href="#m92371916f8" y="30.334099"/>
     <use style="fill:#f5deb3;stroke:#f5deb3;" x="243.469194" xlink:href="#m92371916f8" y="30.334099"/>
    </g>
   </g>
   <g id="line2d_34">
    <defs>
     <path d="M 0 1.5 
C 0.397805 1.5 0.77937 1.341951 1.06066 1.06066 
C 1.341951 0.77937 1.5 0.397805 1.5 0 
C 1.5 -0.397805 1.341951 -0.77937 1.06066 -1.06066 
C 0.77937 -1.341951 0.397805 -1.5 0 -1.5 
C -0.397805 -1.5 -0.77937 -1.341951 -1.06066 -1.06066 
C -1.341951 -0.77937 -1.5 -0.397805 -1.5 0 
C -1.5 0.397805 -1.341951 0.77937 -1.06066 1.06066 
C -0.77937 1.341951 -0.397805 1.5 0 1.5 
z
" id="m208e52e4f8" style="stroke:#000080;"/>
    </defs>
    <g>
     <use style="fill:#000080;stroke:#000080;" x="283.625632" xlink:href="#m208e52e4f8" y="167.27248"/>
     <use style="fill:#000080;stroke:#000080;" x="283.625632" xlink:href="#m208e52e4f8" y="167.27248"/>
    </g>
   </g>
   <g id="line2d_35">
    <path d="M 5.356583 298.944 
L 5.356583 274.71644 
L 17.444571 274.71644 
L 17.444571 272.08301 
L 24.515591 272.08301 
L 24.515591 271.556324 
L 29.53256 271.556324 
L 29.53256 271.029638 
L 36.60358 271.029638 
L 36.60358 269.449579 
L 43.6746 269.449579 
L 43.6746 268.922893 
L 47.174153 268.922893 
L 47.174153 268.396207 
L 52.583031 268.396207 
L 52.583031 267.869521 
L 57.6 267.869521 
L 57.6 266.816149 
L 58.450865 266.816149 
L 58.450865 266.289463 
L 64.079801 266.289463 
L 64.079801 265.762777 
L 69.687988 265.762777 
L 69.687988 265.236091 
L 71.35013 265.236091 
L 71.35013 264.709405 
L 78.154896 264.709405 
L 78.154896 264.182719 
L 80.416384 264.182719 
L 80.416384 263.656033 
L 83.830028 263.656033 
L 83.830028 263.129347 
L 86.351421 263.129347 
L 86.351421 262.60266 
L 92.147241 262.60266 
L 92.147241 262.075974 
L 92.621809 262.075974 
L 92.621809 261.549288 
L 93.972622 261.549288 
L 93.972622 261.022602 
L 98.771596 261.022602 
L 98.771596 260.495916 
L 112.803609 260.495916 
L 112.803609 259.96923 
L 114.250364 259.96923 
L 114.250364 259.442544 
L 126.168212 259.442544 
L 126.168212 258.915858 
L 126.904721 258.915858 
L 126.904721 258.389172 
L 133.82209 258.389172 
L 133.82209 257.862486 
L 138.417874 257.862486 
L 138.417874 257.3358 
L 145.051495 257.3358 
L 145.051495 256.809114 
L 155.672525 256.809114 
L 155.672525 256.282427 
L 157.020384 256.282427 
L 157.020384 255.755741 
L 164.076824 255.755741 
L 164.076824 255.229055 
L 165.219096 255.229055 
L 165.219096 254.702369 
L 165.815353 254.702369 
L 165.815353 254.175683 
L 166.131092 254.175683 
L 166.131092 253.648997 
L 166.243098 253.648997 
L 166.347561 252.068939 
L 167.207042 252.068939 
L 167.207042 251.542253 
L 168.005976 251.542253 
L 168.005976 251.015567 
L 168.140524 251.015567 
L 168.140524 250.488881 
L 171.253194 250.488881 
L 171.253194 249.962195 
L 171.382874 249.962195 
L 171.382874 249.435508 
L 171.529365 249.435508 
L 171.529365 248.908822 
L 171.807473 248.908822 
L 171.807473 248.382136 
L 171.95293 248.382136 
L 171.95293 247.85545 
L 172.234166 247.85545 
L 172.234166 247.328764 
L 173.113144 247.328764 
L 173.113144 246.802078 
L 173.790218 246.802078 
L 173.790218 246.275392 
L 175.302712 246.275392 
L 175.302712 245.748706 
L 175.901251 245.748706 
L 175.901251 245.22202 
L 181.186885 245.22202 
L 181.186885 244.695334 
L 181.314737 244.695334 
L 181.406414 243.641962 
L 182.16991 243.641962 
L 182.16991 243.115275 
L 182.667199 243.115275 
L 182.667199 242.588589 
L 183.476618 242.588589 
L 183.476618 242.061903 
L 186.298199 242.061903 
L 186.298199 241.535217 
L 186.623642 241.535217 
L 186.623642 241.008531 
L 186.931589 241.008531 
L 186.931589 240.481845 
L 187.188773 240.481845 
L 187.188773 239.955159 
L 187.503234 239.955159 
L 187.503234 239.428473 
L 187.787673 239.428473 
L 187.787673 238.901787 
L 187.92941 238.901787 
L 187.92941 238.375101 
L 192.72381 238.375101 
L 192.72381 237.848415 
L 192.928787 237.848415 
L 192.928787 237.321729 
L 193.059191 237.321729 
L 193.073211 236.268356 
L 193.311655 236.268356 
L 193.311655 235.74167 
L 193.451151 235.74167 
L 193.451151 234.688298 
L 193.740688 234.688298 
L 193.740688 234.161612 
L 194.1511 234.161612 
L 194.1511 233.634926 
L 194.404753 233.634926 
L 194.404753 233.10824 
L 194.601472 233.10824 
L 194.601472 232.581554 
L 194.929789 232.581554 
L 194.929789 232.054868 
L 195.693287 232.054868 
L 195.752845 231.001496 
L 196.404964 231.001496 
L 196.404964 230.47481 
L 196.975881 230.47481 
L 196.975881 229.948123 
L 204.954191 229.948123 
L 204.954191 229.421437 
L 205.24086 229.421437 
L 205.24086 228.894751 
L 205.373249 228.894751 
L 205.373249 228.368065 
L 205.53932 228.368065 
L 205.53932 227.841379 
L 206.252258 227.841379 
L 206.252258 227.314693 
L 206.377386 227.314693 
L 206.441415 226.261321 
L 206.685406 226.261321 
L 206.685406 225.734635 
L 207.589822 225.734635 
L 207.589822 225.207949 
L 211.910764 225.207949 
L 211.910764 224.681263 
L 212.095355 224.681263 
L 212.095355 224.154577 
L 212.611362 224.154577 
L 212.611362 223.627891 
L 213.801536 223.627891 
L 213.801536 223.101204 
L 230.724494 223.101204 
L 230.724494 222.574518 
L 230.911282 222.574518 
L 230.991252 221.521146 
L 231.367158 221.521146 
L 231.38262 220.467774 
L 232.287086 220.467774 
L 232.334276 218.887716 
L 232.417114 218.887716 
L 232.437618 217.307658 
L 232.557605 217.307658 
L 232.656092 216.254285 
L 232.72854 216.254285 
L 232.72854 215.727599 
L 234.282418 215.727599 
L 234.36115 214.674227 
L 234.502377 214.674227 
L 234.502377 214.147541 
L 235.549156 214.147541 
L 235.551867 213.094169 
L 236.030836 213.094169 
L 236.030836 212.567483 
L 242.625351 212.567483 
L 242.625351 212.040797 
L 242.965499 212.040797 
L 242.965499 211.514111 
L 243.155695 211.514111 
L 243.155695 210.987425 
L 243.433981 210.987425 
L 243.444331 209.934052 
L 243.563506 209.934052 
L 243.610379 208.353994 
L 244.362847 208.353994 
L 244.362847 207.827308 
L 244.475057 207.827308 
L 244.538529 205.193878 
L 244.628991 205.193878 
L 244.628991 204.667192 
L 245.217734 204.667192 
L 245.31436 202.560447 
L 245.3995 202.560447 
L 245.3995 202.033761 
L 249.83621 202.033761 
L 249.83621 201.507075 
L 249.967778 201.507075 
L 249.967778 200.980389 
L 250.161033 200.980389 
L 250.229184 198.873645 
L 250.816278 198.873645 
L 250.926866 195.186842 
L 250.991536 195.186842 
L 250.991536 194.660156 
L 251.429335 194.660156 
L 251.528265 193.606784 
L 254.760998 193.606784 
L 254.871934 192.553412 
L 255.004444 192.553412 
L 255.004444 192.026726 
L 255.642092 192.026726 
L 255.645264 190.973354 
L 255.981736 190.973354 
L 255.981736 190.446667 
L 256.112341 190.446667 
L 256.112341 189.919981 
L 258.790844 189.919981 
L 258.812119 188.339923 
L 259.245547 188.339923 
L 259.275768 184.653121 
L 259.57292 184.653121 
L 259.604181 183.599748 
L 261.90049 183.599748 
L 261.910718 181.493004 
L 262.296786 181.493004 
L 262.296786 180.966318 
L 262.586552 180.966318 
L 262.586552 180.439632 
L 264.539565 180.439632 
L 264.55638 179.38626 
L 264.875853 179.38626 
L 264.919295 177.806202 
L 266.861936 177.806202 
L 266.861936 177.279515 
L 267.131372 177.279515 
L 267.131372 176.752829 
L 268.893994 176.752829 
L 268.893994 176.226143 
L 269.122535 176.226143 
L 269.129851 175.172771 
L 270.91162 175.172771 
L 270.943687 173.592713 
L 271.134891 173.592713 
L 271.134891 173.066027 
L 272.543329 173.066027 
L 272.560272 172.012655 
L 274.045389 172.012655 
L 274.045389 171.485969 
L 276.658049 171.485969 
L 276.658049 170.959282 
L 277.84398 170.959282 
L 277.84398 170.432596 
L 278.951211 170.432596 
L 278.951211 169.90591 
L 279.849933 169.90591 
L 279.849933 169.379224 
L 279.988288 169.379224 
L 279.99168 168.325852 
L 282.788216 168.325852 
L 282.788216 167.799166 
L 283.625632 167.799166 
L 283.625632 167.27248 
L 338.688 167.27248 
L 338.688 167.27248 
" style="fill:none;stroke:#000080;stroke-linecap:square;stroke-width:1.5;"/>
   </g>
   <g id="line2d_36">
    <defs>
     <path d="M 0 6 
C 1.591219 6 3.117479 5.367802 4.242641 4.242641 
C 5.367802 3.117479 6 1.591219 6 0 
C 6 -1.591219 5.367802 -3.117479 4.242641 -4.242641 
C 3.117479 -5.367802 1.591219 -6 0 -6 
C -1.591219 -6 -3.117479 -5.367802 -4.242641 -4.242641 
C -5.367802 -3.117479 -6 -1.591219 -6 0 
C -6 1.591219 -5.367802 3.117479 -4.242641 4.242641 
C -3.117479 5.367802 -1.591219 6 0 6 
z
" id="m4869df63b2" style="stroke:#000080;stroke-width:1.5;"/>
    </defs>
    <g>
     <use style="fill-opacity:0;stroke:#000080;stroke-width:1.5;" x="138.417874" xlink:href="#m4869df63b2" y="257.3358"/>
     <use style="fill-opacity:0;stroke:#000080;stroke-width:1.5;" x="192.72381" xlink:href="#m4869df63b2" y="237.848415"/>
     <use style="fill-opacity:0;stroke:#000080;stroke-width:1.5;" x="264.55638" xlink:href="#m4869df63b2" y="179.38626"/>
     <use style="fill-opacity:0;stroke:#000080;stroke-width:1.5;" x="283.625632" xlink:href="#m4869df63b2" y="167.27248"/>
     <use style="fill-opacity:0;stroke:#000080;stroke-width:1.5;" x="338.688" xlink:href="#m4869df63b2" y="167.27248"/>
    </g>
   </g>
   <g id="line2d_37">
    <path style="fill:none;stroke:#000080;stroke-linecap:square;stroke-width:1.5;"/>
    <g/>
   </g>
   <g id="line2d_38">
    <path clip-path="url(#pa950e7dbcc)" d="M 230.320294 223.101204 
" style="fill:none;stroke:#000080;stroke-linecap:square;stroke-width:1.5;"/>
    <defs>
     <path d="M -12 12 
L 12 -12 
M -12 -12 
L 12 12 
" id="md4d0c29e17" style="stroke:#000080;"/>
    </defs>
    <g clip-path="url(#pa950e7dbcc)">
     <use style="fill:#000080;stroke:#000080;" x="230.320294" xlink:href="#md4d0c29e17" y="223.101204"/>
    </g>
   </g>
   <g id="line2d_39">
    <g>
     <use style="fill:#000080;stroke:#000080;" x="326.62393" xlink:href="#m208e52e4f8" y="183.073062"/>
     <use style="fill:#000080;stroke:#000080;" x="326.62393" xlink:href="#m208e52e4f8" y="183.073062"/>
    </g>
   </g>
   <g id="line2d_40">
    <path d="M 5.356583 298.944 
L 5.356583 274.71644 
L 17.444571 274.71644 
L 17.444571 273.136382 
L 24.515591 273.136382 
L 24.515591 270.502952 
L 29.53256 270.502952 
L 29.53256 269.976266 
L 36.60358 269.976266 
L 36.60358 269.449579 
L 39.291857 269.449579 
L 39.291857 268.922893 
L 50.087456 268.922893 
L 50.087456 268.396207 
L 51.379845 268.396207 
L 51.379845 267.869521 
L 52.583031 267.869521 
L 52.583031 267.342835 
L 53.708537 267.342835 
L 53.708537 266.816149 
L 55.762588 266.816149 
L 55.762588 266.289463 
L 58.450865 266.289463 
L 58.450865 265.236091 
L 74.595619 265.236091 
L 74.595619 264.709405 
L 88.104788 264.709405 
L 88.104788 264.182719 
L 88.255778 264.182719 
L 88.255778 263.656033 
L 90.108217 263.656033 
L 90.108217 263.129347 
L 94.505975 263.129347 
L 94.505975 262.60266 
L 95.624913 262.60266 
L 95.624913 262.075974 
L 103.870632 262.075974 
L 103.870632 261.549288 
L 112.840362 261.549288 
L 112.840362 261.022602 
L 122.636335 261.022602 
L 122.636335 260.495916 
L 123.172336 260.495916 
L 123.172336 259.96923 
L 131.287464 259.96923 
L 131.287464 259.442544 
L 135.066382 259.442544 
L 135.066382 258.915858 
L 139.620495 258.915858 
L 139.620495 258.389172 
L 140.310252 258.389172 
L 140.310252 257.862486 
L 140.514223 257.862486 
L 140.514223 257.3358 
L 149.377533 257.3358 
L 149.377533 256.809114 
L 150.590355 256.809114 
L 150.590355 256.282427 
L 160.703658 256.282427 
L 160.703658 255.755741 
L 161.517401 255.755741 
L 161.517401 255.229055 
L 163.881249 255.229055 
L 163.881249 254.702369 
L 168.509413 254.702369 
L 168.509413 254.175683 
L 170.392016 254.175683 
L 170.392016 253.648997 
L 171.195104 253.648997 
L 171.195104 253.122311 
L 171.464551 253.122311 
L 171.464551 252.595625 
L 171.657014 252.595625 
L 171.657014 252.068939 
L 171.956644 252.068939 
L 172.067691 251.015567 
L 178.591926 251.015567 
L 178.591926 250.488881 
L 178.731812 250.488881 
L 178.731812 249.962195 
L 180.829639 249.962195 
L 180.829639 249.435508 
L 187.099138 249.435508 
L 187.099138 248.908822 
L 189.125231 248.908822 
L 189.125231 248.382136 
L 192.436253 248.382136 
L 192.436253 247.85545 
L 192.971127 247.85545 
L 193.006332 246.802078 
L 193.200713 246.802078 
L 193.24532 245.748706 
L 193.630665 245.748706 
L 193.643876 244.695334 
L 193.784645 244.695334 
L 193.876103 243.641962 
L 193.979342 243.641962 
L 194.041203 242.588589 
L 194.103192 242.588589 
L 194.198877 241.008531 
L 194.263411 241.008531 
L 194.263411 240.481845 
L 194.448774 240.481845 
L 194.527326 239.428473 
L 194.635898 239.428473 
L 194.690436 238.375101 
L 194.842374 238.375101 
L 194.842374 237.848415 
L 194.982425 237.848415 
L 195.062892 236.795043 
L 195.251713 236.795043 
L 195.270256 235.74167 
L 195.440122 235.74167 
L 195.440122 235.214984 
L 195.697412 235.214984 
L 195.697412 234.688298 
L 195.919037 234.688298 
L 195.919037 234.161612 
L 197.245918 234.161612 
L 197.329328 233.10824 
L 197.573772 233.10824 
L 197.573772 232.581554 
L 197.814556 232.581554 
L 197.814556 232.054868 
L 198.690265 232.054868 
L 198.690265 231.528182 
L 198.964158 231.528182 
L 198.964158 231.001496 
L 211.435279 231.001496 
L 211.435279 230.47481 
L 211.649747 230.47481 
L 211.649747 229.948123 
L 212.018368 229.948123 
L 212.018368 229.421437 
L 228.028332 229.421437 
L 228.028332 228.894751 
L 257.668143 228.894751 
L 257.668143 228.368065 
L 258.49467 228.368065 
L 258.497147 227.314693 
L 258.83246 227.314693 
L 258.896902 224.681263 
L 258.950166 224.681263 
L 258.950166 224.154577 
L 259.559351 224.154577 
L 259.559351 223.627891 
L 261.208093 223.627891 
L 261.208093 223.101204 
L 270.540068 223.101204 
L 270.540068 222.574518 
L 270.680596 222.574518 
L 270.767838 216.254285 
L 271.063315 216.254285 
L 271.163377 214.674227 
L 277.596303 214.674227 
L 277.703461 212.567483 
L 277.710487 212.567483 
L 277.740138 209.934052 
L 278.0114 209.934052 
L 278.0114 209.407366 
L 282.681827 209.407366 
L 282.717741 204.667192 
L 286.552669 204.667192 
L 286.577467 203.087133 
L 286.69317 203.087133 
L 286.741066 202.033761 
L 289.712188 202.033761 
L 289.736353 200.453703 
L 289.869841 200.453703 
L 289.869841 199.927017 
L 292.396747 199.927017 
L 292.401034 198.873645 
L 294.707122 198.873645 
L 294.729122 195.713528 
L 296.753555 195.713528 
L 296.76112 194.660156 
L 298.586563 194.660156 
L 298.597875 193.606784 
L 300.258613 193.606784 
L 300.258613 193.080098 
L 303.162201 193.080098 
L 303.166444 192.026726 
L 304.446213 192.026726 
L 304.510998 190.973354 
L 305.652995 190.973354 
L 305.657767 189.919981 
L 306.779483 189.919981 
L 306.779483 189.393295 
L 308.828589 189.393295 
L 308.828589 188.866609 
L 309.772699 188.866609 
L 309.772699 188.339923 
L 311.514023 188.339923 
L 311.514023 187.813237 
L 312.324889 187.813237 
L 312.324889 187.286551 
L 313.835519 187.286551 
L 313.83745 186.233179 
L 314.548855 186.233179 
L 314.548855 185.706493 
L 315.23395 185.706493 
L 315.23395 185.179807 
L 321.377349 185.179807 
L 321.377349 184.653121 
L 322.294496 184.653121 
L 322.294496 184.126434 
L 326.274303 184.126434 
L 326.274303 183.599748 
L 326.62393 183.599748 
L 326.62393 183.073062 
L 338.688 183.073062 
L 338.688 183.073062 
" style="fill:none;stroke:#000080;stroke-linecap:square;stroke-width:1.5;"/>
   </g>
   <g id="line2d_41">
    <g>
     <use style="fill-opacity:0;stroke:#000080;stroke-width:1.5;" x="112.840362" xlink:href="#m4869df63b2" y="261.022602"/>
     <use style="fill-opacity:0;stroke:#000080;stroke-width:1.5;" x="212.018368" xlink:href="#m4869df63b2" y="229.948123"/>
     <use style="fill-opacity:0;stroke:#000080;stroke-width:1.5;" x="277.715188" xlink:href="#m4869df63b2" y="211.514111"/>
     <use style="fill-opacity:0;stroke:#000080;stroke-width:1.5;" x="326.62393" xlink:href="#m4869df63b2" y="183.073062"/>
     <use style="fill-opacity:0;stroke:#000080;stroke-width:1.5;" x="338.688" xlink:href="#m4869df63b2" y="183.073062"/>
    </g>
   </g>
   <g id="line2d_42">
    <path style="fill:none;stroke:#000080;stroke-linecap:square;stroke-width:1.5;"/>
    <g/>
   </g>
   <g id="line2d_43">
    <path clip-path="url(#pa950e7dbcc)" d="M 258.389607 228.368065 
" style="fill:none;stroke:#000080;stroke-linecap:square;stroke-width:1.5;"/>
    <g clip-path="url(#pa950e7dbcc)">
     <use style="fill:#000080;stroke:#000080;" x="258.389607" xlink:href="#md4d0c29e17" y="228.368065"/>
    </g>
   </g>
   <g id="line2d_44">
    <defs>
     <path d="M 0 1.5 
C 0.397805 1.5 0.77937 1.341951 1.06066 1.06066 
C 1.341951 0.77937 1.5 0.397805 1.5 0 
C 1.5 -0.397805 1.341951 -0.77937 1.06066 -1.06066 
C 0.77937 -1.341951 0.397805 -1.5 0 -1.5 
C -0.397805 -1.5 -0.77937 -1.341951 -1.06066 -1.06066 
C -1.341951 -0.77937 -1.5 -0.397805 -1.5 0 
C -1.5 0.397805 -1.341951 0.77937 -1.06066 1.06066 
C -0.77937 1.341951 -0.397805 1.5 0 1.5 
z
" id="m83067e14c9" style="stroke:#ff00ff;"/>
    </defs>
    <g>
     <use style="fill:#ff00ff;stroke:#ff00ff;" x="311.331211" xlink:href="#m83067e14c9" y="209.407366"/>
     <use style="fill:#ff00ff;stroke:#ff00ff;" x="311.331211" xlink:href="#m83067e14c9" y="209.407366"/>
    </g>
   </g>
   <g id="line2d_45">
    <path d="M 5.356583 298.944 
L 5.356583 275.243126 
L 17.444571 275.243126 
L 17.444571 271.556324 
L 24.515591 271.556324 
L 24.515591 271.029638 
L 29.53256 271.029638 
L 29.53256 270.502952 
L 33.424023 270.502952 
L 33.424023 269.976266 
L 36.60358 269.976266 
L 36.60358 269.449579 
L 39.291857 269.449579 
L 39.291857 268.922893 
L 43.6746 268.922893 
L 43.6746 268.396207 
L 45.512012 268.396207 
L 45.512012 267.869521 
L 47.174153 267.869521 
L 47.174153 267.342835 
L 53.708537 267.342835 
L 53.708537 266.816149 
L 59.262141 266.816149 
L 59.262141 266.289463 
L 62.175444 266.289463 
L 62.175444 265.762777 
L 66.333161 265.762777 
L 66.333161 265.236091 
L 71.74204 265.236091 
L 71.74204 264.709405 
L 77.330839 264.709405 
L 77.330839 263.656033 
L 77.884514 263.656033 
L 77.884514 263.129347 
L 83.23881 263.129347 
L 83.23881 262.60266 
L 86.182924 262.60266 
L 86.182924 261.549288 
L 90.242884 261.549288 
L 90.242884 261.022602 
L 92.026554 261.022602 
L 92.026554 260.495916 
L 94.505975 260.495916 
L 94.505975 259.96923 
L 119.224953 259.96923 
L 119.224953 259.442544 
L 121.196777 259.442544 
L 121.196777 258.915858 
L 124.158984 258.915858 
L 124.158984 258.389172 
L 128.501178 258.389172 
L 128.501178 257.862486 
L 135.839358 257.862486 
L 135.839358 257.3358 
L 141.083146 257.3358 
L 141.083146 256.809114 
L 142.092866 256.809114 
L 142.092866 256.282427 
L 163.445119 256.282427 
L 163.445119 255.755741 
L 175.582444 255.755741 
L 175.582444 255.229055 
L 176.362065 255.229055 
L 176.362065 254.702369 
L 180.924636 254.702369 
L 180.924636 254.175683 
L 181.428719 254.175683 
L 181.428719 253.648997 
L 185.398098 253.648997 
L 185.444423 252.595625 
L 185.586066 252.595625 
L 185.586066 252.068939 
L 187.018435 252.068939 
L 187.018435 251.542253 
L 187.482411 251.542253 
L 187.482411 251.015567 
L 188.385033 251.015567 
L 188.385033 250.488881 
L 189.358604 250.488881 
L 189.358604 249.962195 
L 193.884553 249.962195 
L 193.884553 249.435508 
L 212.001933 249.435508 
L 212.001933 248.908822 
L 215.453134 248.908822 
L 215.453134 248.382136 
L 231.611959 248.382136 
L 231.718249 245.748706 
L 231.780832 245.748706 
L 231.780832 245.22202 
L 242.911144 245.22202 
L 242.911144 244.695334 
L 243.131571 244.695334 
L 243.160369 243.641962 
L 245.778433 243.641962 
L 245.778433 243.115275 
L 249.918874 243.115275 
L 249.994267 239.428473 
L 254.753765 239.428473 
L 254.853844 238.375101 
L 254.865888 238.375101 
L 254.883146 235.74167 
L 258.592172 235.74167 
L 258.70224 233.634926 
L 259.811858 233.634926 
L 259.811858 233.10824 
L 261.800346 233.10824 
L 261.802818 232.054868 
L 264.452122 232.054868 
L 264.45323 231.001496 
L 266.760814 231.001496 
L 266.770037 229.948123 
L 268.790571 229.948123 
L 268.802978 228.894751 
L 272.269845 228.894751 
L 272.28299 227.841379 
L 273.773963 227.841379 
L 273.773963 227.314693 
L 275.160746 227.314693 
L 275.171964 225.734635 
L 276.457982 225.734635 
L 276.457982 225.207949 
L 277.643222 225.207949 
L 277.647248 224.154577 
L 279.815399 224.154577 
L 279.820236 222.574518 
L 280.805461 222.574518 
L 280.805461 222.047832 
L 281.745133 222.047832 
L 281.745133 221.521146 
L 282.635775 221.521146 
L 282.646104 219.414402 
L 283.482553 219.414402 
L 283.492567 218.36103 
L 285.062242 218.36103 
L 285.062242 217.834344 
L 285.799827 217.834344 
L 285.808964 216.780971 
L 287.195291 216.780971 
L 287.195291 216.254285 
L 287.858794 216.254285 
L 287.858794 215.727599 
L 289.098496 215.727599 
L 289.099573 214.674227 
L 290.252453 214.674227 
L 290.262595 213.620855 
L 290.808568 213.620855 
L 290.808568 213.094169 
L 291.864189 213.094169 
L 291.864189 212.567483 
L 292.853708 212.567483 
L 292.859621 210.987425 
L 298.223681 210.987425 
L 298.223681 210.460738 
L 301.161026 210.460738 
L 301.161026 209.934052 
L 311.331211 209.934052 
L 311.331211 209.407366 
L 338.688 209.407366 
L 338.688 209.407366 
" style="fill:none;stroke:#ff00ff;stroke-linecap:square;stroke-width:1.5;"/>
   </g>
   <g id="line2d_46">
    <defs>
     <path d="M -0 8.485281 
L 5.091169 0 
L 0 -8.485281 
L -5.091169 -0 
z
" id="m822dbe22eb" style="stroke:#ff00ff;stroke-linejoin:miter;stroke-width:1.5;"/>
    </defs>
    <g>
     <use style="fill-opacity:0;stroke:#ff00ff;stroke-linejoin:miter;stroke-width:1.5;" x="94.505975" xlink:href="#m822dbe22eb" y="260.495916"/>
     <use style="fill-opacity:0;stroke:#ff00ff;stroke-linejoin:miter;stroke-width:1.5;" x="176.362065" xlink:href="#m822dbe22eb" y="254.702369"/>
     <use style="fill-opacity:0;stroke:#ff00ff;stroke-linejoin:miter;stroke-width:1.5;" x="264.45323" xlink:href="#m822dbe22eb" y="231.001496"/>
     <use style="fill-opacity:0;stroke:#ff00ff;stroke-linejoin:miter;stroke-width:1.5;" x="311.331211" xlink:href="#m822dbe22eb" y="209.407366"/>
     <use style="fill-opacity:0;stroke:#ff00ff;stroke-linejoin:miter;stroke-width:1.5;" x="311.331211" xlink:href="#m822dbe22eb" y="209.407366"/>
     <use style="fill-opacity:0;stroke:#ff00ff;stroke-linejoin:miter;stroke-width:1.5;" x="338.688" xlink:href="#m822dbe22eb" y="209.407366"/>
    </g>
   </g>
   <g id="line2d_47">
    <path style="fill:none;stroke:#ff00ff;stroke-linecap:square;stroke-width:1.5;"/>
    <g/>
   </g>
   <g id="line2d_48">
    <path clip-path="url(#pa950e7dbcc)" d="M 230.320294 248.382136 
" style="fill:none;stroke:#ff00ff;stroke-linecap:square;stroke-width:1.5;"/>
    <defs>
     <path d="M -12 12 
L 12 -12 
M -12 -12 
L 12 12 
" id="m6b10fc557e" style="stroke:#ff00ff;"/>
    </defs>
    <g clip-path="url(#pa950e7dbcc)">
     <use style="fill:#ff00ff;stroke:#ff00ff;" x="230.320294" xlink:href="#m6b10fc557e" y="248.382136"/>
    </g>
   </g>
   <g id="line2d_49">
    <defs>
     <path d="M 0 1.5 
C 0.397805 1.5 0.77937 1.341951 1.06066 1.06066 
C 1.341951 0.77937 1.5 0.397805 1.5 0 
C 1.5 -0.397805 1.341951 -0.77937 1.06066 -1.06066 
C 0.77937 -1.341951 0.397805 -1.5 0 -1.5 
C -0.397805 -1.5 -0.77937 -1.341951 -1.06066 -1.06066 
C -1.341951 -0.77937 -1.5 -0.397805 -1.5 0 
C -1.5 0.397805 -1.341951 0.77937 -1.06066 1.06066 
C -0.77937 1.341951 -0.397805 1.5 0 1.5 
z
" id="ma658354e41" style="stroke:#ff0000;"/>
    </defs>
    <g>
     <use style="fill:#ff0000;stroke:#ff0000;" x="303.988721" xlink:href="#ma658354e41" y="198.873645"/>
     <use style="fill:#ff0000;stroke:#ff0000;" x="303.988721" xlink:href="#ma658354e41" y="198.873645"/>
    </g>
   </g>
   <g id="line2d_50">
    <path d="M 5.356583 298.944 
L 5.356583 274.71644 
L 17.444571 274.71644 
L 17.444571 269.976266 
L 29.53256 269.976266 
L 29.53256 269.449579 
L 33.424023 269.449579 
L 33.424023 268.396207 
L 39.291857 268.396207 
L 39.291857 267.869521 
L 41.620548 267.869521 
L 41.620548 267.342835 
L 45.512012 267.342835 
L 45.512012 266.816149 
L 47.174153 266.816149 
L 47.174153 265.762777 
L 48.691568 265.762777 
L 48.691568 265.236091 
L 53.708537 265.236091 
L 53.708537 264.709405 
L 56.705482 264.709405 
L 56.705482 264.182719 
L 72.500389 264.182719 
L 72.500389 263.656033 
L 76.465904 263.656033 
L 76.465904 263.129347 
L 84.955534 263.129347 
L 84.955534 262.60266 
L 86.518305 262.60266 
L 86.518305 262.075974 
L 91.659398 262.075974 
L 91.659398 261.549288 
L 108.436627 261.549288 
L 108.436627 261.022602 
L 113.629929 261.022602 
L 113.629929 260.495916 
L 115.927891 260.495916 
L 115.927891 259.96923 
L 117.373392 259.96923 
L 117.373392 259.442544 
L 118.968488 259.442544 
L 118.968488 258.915858 
L 123.533993 258.915858 
L 123.533993 258.389172 
L 125.996395 258.389172 
L 125.996395 257.862486 
L 126.87191 257.862486 
L 126.87191 257.3358 
L 143.3627 257.3358 
L 143.3627 256.809114 
L 146.188938 256.809114 
L 146.188938 256.282427 
L 146.500746 256.282427 
L 146.500746 255.755741 
L 157.610728 255.755741 
L 157.610728 255.229055 
L 159.357454 255.229055 
L 159.357454 254.702369 
L 163.727162 254.702369 
L 163.727162 254.175683 
L 165.151569 254.175683 
L 165.151569 253.648997 
L 167.310751 253.648997 
L 167.310751 253.122311 
L 167.485973 253.122311 
L 167.485973 252.595625 
L 167.755789 252.595625 
L 167.755789 252.068939 
L 168.123569 252.068939 
L 168.123569 251.542253 
L 168.439892 251.542253 
L 168.480731 250.488881 
L 168.78179 250.488881 
L 168.78179 249.962195 
L 169.192698 249.962195 
L 169.192698 249.435508 
L 170.041906 249.435508 
L 170.041906 248.908822 
L 170.483844 248.908822 
L 170.483844 248.382136 
L 170.60063 248.382136 
L 170.60063 247.85545 
L 170.712652 247.85545 
L 170.712652 247.328764 
L 171.421208 247.328764 
L 171.421208 246.802078 
L 171.852358 246.802078 
L 171.852358 246.275392 
L 172.339833 246.275392 
L 172.339833 245.748706 
L 173.407194 245.748706 
L 173.407194 245.22202 
L 174.171552 245.22202 
L 174.171552 244.695334 
L 174.375307 244.695334 
L 174.375307 244.168648 
L 175.94365 244.168648 
L 175.94365 243.641962 
L 179.970102 243.641962 
L 179.970102 243.115275 
L 182.863006 243.115275 
L 182.863006 242.588589 
L 183.212479 242.588589 
L 183.266922 241.535217 
L 183.576078 241.535217 
L 183.576078 241.008531 
L 183.849834 241.008531 
L 183.849834 240.481845 
L 184.606718 240.481845 
L 184.606718 239.955159 
L 191.405758 239.955159 
L 191.405758 239.428473 
L 192.207163 239.428473 
L 192.207163 238.901787 
L 192.506112 238.901787 
L 192.506112 238.375101 
L 192.725315 238.375101 
L 192.725315 237.848415 
L 192.964819 237.848415 
L 192.964819 237.321729 
L 193.50412 237.321729 
L 193.50412 236.795043 
L 194.180544 236.795043 
L 194.180544 236.268356 
L 194.81603 236.268356 
L 194.81603 235.74167 
L 208.940634 235.74167 
L 208.940634 235.214984 
L 209.129349 235.214984 
L 209.129349 234.688298 
L 209.480477 234.688298 
L 209.480477 234.161612 
L 210.748297 234.161612 
L 210.748297 233.634926 
L 230.784886 233.634926 
L 230.878186 228.368065 
L 230.920083 228.368065 
L 230.920083 227.841379 
L 231.43048 227.841379 
L 231.488154 225.207949 
L 232.175874 225.207949 
L 232.210665 223.627891 
L 232.392834 223.627891 
L 232.392834 223.101204 
L 234.812084 223.101204 
L 234.812084 222.574518 
L 235.230195 222.574518 
L 235.230195 222.047832 
L 242.692032 222.047832 
L 242.744445 220.467774 
L 242.997901 220.467774 
L 242.997901 219.941088 
L 243.388752 219.941088 
L 243.475835 217.307658 
L 244.868199 217.307658 
L 244.868199 216.780971 
L 245.036377 216.780971 
L 245.036377 216.254285 
L 249.641576 216.254285 
L 249.719006 214.147541 
L 250.131271 214.147541 
L 250.131271 213.620855 
L 251.126241 213.620855 
L 251.126241 213.094169 
L 251.277425 213.094169 
L 251.277425 212.567483 
L 254.639112 212.567483 
L 254.642612 211.514111 
L 254.782324 211.514111 
L 254.782324 210.987425 
L 255.009152 210.987425 
L 255.009152 210.460738 
L 255.767136 210.460738 
L 255.767136 209.934052 
L 258.512901 209.934052 
L 258.527353 208.353994 
L 259.412615 208.353994 
L 259.483392 207.300622 
L 261.666656 207.300622 
L 261.666656 206.773936 
L 262.407454 206.773936 
L 262.425314 205.720564 
L 267.278702 205.720564 
L 267.278702 205.193878 
L 270.545771 205.193878 
L 270.545771 204.667192 
L 272.183613 204.667192 
L 272.183613 204.140506 
L 273.704544 204.140506 
L 273.704544 203.613819 
L 276.744867 203.613819 
L 276.744867 203.087133 
L 277.92117 203.087133 
L 277.922603 202.033761 
L 278.998597 202.033761 
L 278.998597 201.507075 
L 281.016459 201.507075 
L 281.016459 200.980389 
L 281.94553 200.980389 
L 281.94553 200.453703 
L 285.227809 200.453703 
L 285.22869 199.400331 
L 303.988721 199.400331 
L 303.988721 198.873645 
L 338.688 198.873645 
L 338.688 198.873645 
" style="fill:none;stroke:#ff0000;stroke-linecap:square;stroke-width:1.5;"/>
   </g>
   <g id="line2d_51">
    <defs>
     <path d="M 0 -6 
L -5.196152 -3 
L -5.196152 3 
L -0 6 
L 5.196152 3 
L 5.196152 -3 
z
" id="m18173cd72a" style="stroke:#ff0000;stroke-linejoin:miter;stroke-width:1.5;"/>
    </defs>
    <g>
     <use style="fill-opacity:0;stroke:#ff0000;stroke-linejoin:miter;stroke-width:1.5;" x="72.500389" xlink:href="#m18173cd72a" y="263.656033"/>
     <use style="fill-opacity:0;stroke:#ff0000;stroke-linejoin:miter;stroke-width:1.5;" x="170.041906" xlink:href="#m18173cd72a" y="248.908822"/>
     <use style="fill-opacity:0;stroke:#ff0000;stroke-linejoin:miter;stroke-width:1.5;" x="231.488154" xlink:href="#m18173cd72a" y="225.734635"/>
     <use style="fill-opacity:0;stroke:#ff0000;stroke-linejoin:miter;stroke-width:1.5;" x="303.988721" xlink:href="#m18173cd72a" y="199.400331"/>
     <use style="fill-opacity:0;stroke:#ff0000;stroke-linejoin:miter;stroke-width:1.5;" x="303.988721" xlink:href="#m18173cd72a" y="198.873645"/>
     <use style="fill-opacity:0;stroke:#ff0000;stroke-linejoin:miter;stroke-width:1.5;" x="338.688" xlink:href="#m18173cd72a" y="198.873645"/>
    </g>
   </g>
   <g id="line2d_52">
    <path style="fill:none;stroke:#ff0000;stroke-linecap:square;stroke-width:1.5;"/>
    <g/>
   </g>
   <g id="line2d_53">
    <path clip-path="url(#pa950e7dbcc)" d="M 230.320817 233.634926 
" style="fill:none;stroke:#ff0000;stroke-linecap:square;stroke-width:1.5;"/>
    <defs>
     <path d="M -12 12 
L 12 -12 
M -12 -12 
L 12 12 
" id="m7776fbea07" style="stroke:#ff0000;"/>
    </defs>
    <g clip-path="url(#pa950e7dbcc)">
     <use style="fill:#ff0000;stroke:#ff0000;" x="230.320817" xlink:href="#m7776fbea07" y="233.634926"/>
    </g>
   </g>
   <g id="line2d_54">
    <defs>
     <path d="M 0 1.5 
C 0.397805 1.5 0.77937 1.341951 1.06066 1.06066 
C 1.341951 0.77937 1.5 0.397805 1.5 0 
C 1.5 -0.397805 1.341951 -0.77937 1.06066 -1.06066 
C 0.77937 -1.341951 0.397805 -1.5 0 -1.5 
C -0.397805 -1.5 -0.77937 -1.341951 -1.06066 -1.06066 
C -1.341951 -0.77937 -1.5 -0.397805 -1.5 0 
C -1.5 0.397805 -1.341951 0.77937 -1.06066 1.06066 
C -0.77937 1.341951 -0.397805 1.5 0 1.5 
z
" id="m2addde6bd3" style="stroke:#ff7500;"/>
    </defs>
    <g>
     <use style="fill:#ff7500;stroke:#ff7500;" x="303.688383" xlink:href="#m2addde6bd3" y="193.606784"/>
     <use style="fill:#ff7500;stroke:#ff7500;" x="303.688383" xlink:href="#m2addde6bd3" y="193.606784"/>
    </g>
   </g>
   <g id="line2d_55">
    <path d="M 5.356583 298.944 
L 5.356583 274.189754 
L 17.444571 274.189754 
L 17.444571 272.08301 
L 36.60358 272.08301 
L 36.60358 271.556324 
L 39.291857 271.556324 
L 39.291857 269.449579 
L 43.6746 269.449579 
L 43.6746 268.922893 
L 47.174153 268.922893 
L 47.174153 268.396207 
L 50.087456 268.396207 
L 50.087456 267.869521 
L 53.708537 267.869521 
L 53.708537 267.342835 
L 57.6 267.342835 
L 57.6 266.816149 
L 60.037348 266.816149 
L 60.037348 266.289463 
L 60.779557 266.289463 
L 60.779557 265.762777 
L 62.833608 265.762777 
L 62.833608 265.236091 
L 65.242851 265.236091 
L 65.242851 264.709405 
L 76.16779 264.709405 
L 76.16779 263.656033 
L 82.833227 263.656033 
L 82.833227 263.129347 
L 83.037197 263.129347 
L 83.037197 262.60266 
L 83.830028 262.60266 
L 83.830028 262.075974 
L 92.147241 262.075974 
L 92.147241 261.549288 
L 96.583356 261.549288 
L 96.583356 261.022602 
L 115.365285 261.022602 
L 115.365285 260.495916 
L 121.219499 260.495916 
L 121.219499 259.96923 
L 123.494177 259.96923 
L 123.494177 258.915858 
L 126.50685 258.915858 
L 126.50685 258.389172 
L 126.72349 258.389172 
L 126.72349 257.862486 
L 127.035353 257.862486 
L 127.035353 257.3358 
L 131.338382 257.3358 
L 131.338382 256.809114 
L 142.586623 256.809114 
L 142.586623 256.282427 
L 147.398994 256.282427 
L 147.398994 255.755741 
L 147.630247 255.755741 
L 147.630247 255.229055 
L 152.203386 255.229055 
L 152.203386 254.702369 
L 164.522286 254.702369 
L 164.522286 254.175683 
L 165.529617 254.175683 
L 165.529617 253.648997 
L 166.265413 253.648997 
L 166.265413 253.122311 
L 167.042111 253.122311 
L 167.042111 252.595625 
L 167.30752 252.595625 
L 167.30752 252.068939 
L 167.672117 252.068939 
L 167.672117 251.542253 
L 167.90477 251.542253 
L 167.90477 251.015567 
L 168.535036 251.015567 
L 168.535036 250.488881 
L 168.656606 250.488881 
L 168.656606 249.962195 
L 169.378799 249.962195 
L 169.378799 249.435508 
L 169.732498 249.435508 
L 169.732498 248.908822 
L 170.141087 248.908822 
L 170.141087 248.382136 
L 171.166634 248.382136 
L 171.166634 247.85545 
L 171.364956 247.85545 
L 171.364956 247.328764 
L 172.133982 247.328764 
L 172.16214 246.275392 
L 172.843486 246.275392 
L 172.843486 245.748706 
L 173.243551 245.748706 
L 173.243551 245.22202 
L 173.487877 245.22202 
L 173.487877 244.695334 
L 177.369814 244.695334 
L 177.369814 244.168648 
L 178.600385 244.168648 
L 178.600385 243.641962 
L 181.88505 243.641962 
L 181.88505 243.115275 
L 182.494215 243.115275 
L 182.494215 242.588589 
L 184.150144 242.588589 
L 184.150144 242.061903 
L 188.595113 242.061903 
L 188.595113 241.535217 
L 190.578089 241.535217 
L 190.578089 241.008531 
L 192.013471 241.008531 
L 192.013471 239.955159 
L 192.405242 239.955159 
L 192.405242 239.428473 
L 192.860231 239.428473 
L 192.860231 238.901787 
L 193.10453 238.901787 
L 193.10453 238.375101 
L 193.638521 238.375101 
L 193.638521 237.848415 
L 194.040156 237.848415 
L 194.040156 237.321729 
L 194.677322 237.321729 
L 194.677322 236.795043 
L 194.790983 236.795043 
L 194.818366 235.74167 
L 195.187475 235.74167 
L 195.187475 235.214984 
L 195.799589 235.214984 
L 195.799589 234.688298 
L 197.898932 234.688298 
L 197.898932 234.161612 
L 198.088612 234.161612 
L 198.088612 233.634926 
L 198.92307 233.634926 
L 198.92307 233.10824 
L 206.394747 233.10824 
L 206.394747 232.581554 
L 206.508793 232.581554 
L 206.508793 232.054868 
L 206.81821 232.054868 
L 206.81821 231.528182 
L 206.969803 231.528182 
L 206.969803 231.001496 
L 207.356456 231.001496 
L 207.356456 230.47481 
L 207.815039 230.47481 
L 207.815039 229.948123 
L 230.7792 229.948123 
L 230.879537 228.894751 
L 230.891263 228.894751 
L 230.999468 227.314693 
L 231.009062 227.314693 
L 231.040614 225.734635 
L 231.333971 225.734635 
L 231.334465 224.681263 
L 231.658709 224.681263 
L 231.658709 224.154577 
L 231.841594 224.154577 
L 231.841594 223.627891 
L 232.014715 223.627891 
L 232.014715 223.101204 
L 232.331209 223.101204 
L 232.410429 221.521146 
L 232.447725 221.521146 
L 232.447725 220.99446 
L 232.869453 220.99446 
L 232.895485 219.941088 
L 232.99033 219.941088 
L 232.99033 219.414402 
L 234.257126 219.414402 
L 234.257126 218.887716 
L 234.457307 218.887716 
L 234.457307 218.36103 
L 242.605997 218.36103 
L 242.672022 216.780971 
L 242.770049 216.780971 
L 242.849057 215.727599 
L 243.501452 215.727599 
L 243.501452 215.200913 
L 243.728913 215.200913 
L 243.79608 213.620855 
L 244.654464 213.620855 
L 244.65839 212.567483 
L 249.834289 212.567483 
L 249.938492 211.514111 
L 250.184021 211.514111 
L 250.262404 209.407366 
L 250.372727 209.407366 
L 250.397009 207.827308 
L 254.680033 207.827308 
L 254.680033 207.300622 
L 254.891017 207.300622 
L 254.891017 206.773936 
L 255.074186 206.773936 
L 255.074186 206.24725 
L 261.904886 206.24725 
L 261.904886 205.720564 
L 262.023346 205.720564 
L 262.043532 204.667192 
L 264.574296 204.667192 
L 264.646255 203.087133 
L 266.848428 203.087133 
L 266.942334 200.980389 
L 268.887171 200.980389 
L 268.887171 200.453703 
L 272.392369 200.453703 
L 272.392369 199.927017 
L 275.265484 199.927017 
L 275.265484 199.400331 
L 277.736737 199.400331 
L 277.736737 198.873645 
L 278.851948 198.873645 
L 278.851948 198.346959 
L 280.886637 198.346959 
L 280.886637 197.820273 
L 281.817073 197.820273 
L 281.817073 197.293586 
L 289.141458 197.293586 
L 289.141458 196.7669 
L 291.382238 196.7669 
L 291.385268 195.713528 
L 292.406101 195.713528 
L 292.406101 195.186842 
L 293.367752 195.186842 
L 293.367752 194.660156 
L 297.150293 194.660156 
L 297.150293 194.13347 
L 303.688383 194.13347 
L 303.688383 193.606784 
L 338.688 193.606784 
L 338.688 193.606784 
" style="fill:none;stroke:#ff7500;stroke-linecap:square;stroke-width:1.5;"/>
   </g>
   <g id="line2d_56">
    <defs>
     <path d="M 0 -6 
L -1.347084 -1.854102 
L -5.706339 -1.854102 
L -2.179628 0.708204 
L -3.526712 4.854102 
L -0 2.291796 
L 3.526712 4.854102 
L 2.179628 0.708204 
L 5.706339 -1.854102 
L 1.347084 -1.854102 
z
" id="m6d73740466" style="stroke:#ff7500;stroke-linejoin:bevel;stroke-width:1.5;"/>
    </defs>
    <g>
     <use style="fill-opacity:0;stroke:#ff7500;stroke-linejoin:bevel;stroke-width:1.5;" x="96.583356" xlink:href="#m6d73740466" y="261.022602"/>
     <use style="fill-opacity:0;stroke:#ff7500;stroke-linejoin:bevel;stroke-width:1.5;" x="178.600385" xlink:href="#m6d73740466" y="243.641962"/>
     <use style="fill-opacity:0;stroke:#ff7500;stroke-linejoin:bevel;stroke-width:1.5;" x="244.65839" xlink:href="#m6d73740466" y="212.567483"/>
     <use style="fill-opacity:0;stroke:#ff7500;stroke-linejoin:bevel;stroke-width:1.5;" x="303.688383" xlink:href="#m6d73740466" y="193.606784"/>
     <use style="fill-opacity:0;stroke:#ff7500;stroke-linejoin:bevel;stroke-width:1.5;" x="303.688383" xlink:href="#m6d73740466" y="193.606784"/>
     <use style="fill-opacity:0;stroke:#ff7500;stroke-linejoin:bevel;stroke-width:1.5;" x="338.688" xlink:href="#m6d73740466" y="193.606784"/>
    </g>
   </g>
   <g id="line2d_57">
    <path style="fill:none;stroke:#ff7500;stroke-linecap:square;stroke-width:1.5;"/>
    <g/>
   </g>
   <g id="line2d_58">
    <path clip-path="url(#pa950e7dbcc)" d="M 230.320817 229.948123 
" style="fill:none;stroke:#ff7500;stroke-linecap:square;stroke-width:1.5;"/>
    <defs>
     <path d="M -12 12 
L 12 -12 
M -12 -12 
L 12 12 
" id="m8f9ff20e30" style="stroke:#ff7500;"/>
    </defs>
    <g clip-path="url(#pa950e7dbcc)">
     <use style="fill:#ff7500;stroke:#ff7500;" x="230.320817" xlink:href="#m8f9ff20e30" y="229.948123"/>
    </g>
   </g>
   <g id="line2d_59">
    <path d="M 338.688 209.407366 
L 369.60768 293.571802 
" style="fill:none;stroke:#ff00ff;stroke-linecap:square;stroke-width:1.5;"/>
    <g>
     <use style="fill-opacity:0;stroke:#ff00ff;stroke-linejoin:miter;stroke-width:1.5;" x="338.688" xlink:href="#m822dbe22eb" y="209.407366"/>
     <use style="fill-opacity:0;stroke:#ff00ff;stroke-linejoin:miter;stroke-width:1.5;" x="369.60768" xlink:href="#m822dbe22eb" y="293.571802"/>
    </g>
   </g>
   <g id="line2d_60">
    <path d="M 338.688 198.873645 
L 369.60768 241.998701 
" style="fill:none;stroke:#ff0000;stroke-linecap:square;stroke-width:1.5;"/>
    <g>
     <use style="fill-opacity:0;stroke:#ff0000;stroke-linejoin:miter;stroke-width:1.5;" x="338.688" xlink:href="#m18173cd72a" y="198.873645"/>
     <use style="fill-opacity:0;stroke:#ff0000;stroke-linejoin:miter;stroke-width:1.5;" x="369.60768" xlink:href="#m18173cd72a" y="241.998701"/>
    </g>
   </g>
   <g id="line2d_61">
    <path d="M 338.688 193.606784 
L 369.60768 190.4256 
" style="fill:none;stroke:#ff7500;stroke-linecap:square;stroke-width:1.5;"/>
    <g>
     <use style="fill-opacity:0;stroke:#ff7500;stroke-linejoin:bevel;stroke-width:1.5;" x="338.688" xlink:href="#m6d73740466" y="193.606784"/>
     <use style="fill-opacity:0;stroke:#ff7500;stroke-linejoin:bevel;stroke-width:1.5;" x="369.60768" xlink:href="#m6d73740466" y="190.4256"/>
    </g>
   </g>
   <g id="line2d_62">
    <path d="M 338.688 183.073062 
L 369.60768 138.852499 
" style="fill:none;stroke:#000080;stroke-linecap:square;stroke-width:1.5;"/>
    <g>
     <use style="fill-opacity:0;stroke:#000080;stroke-width:1.5;" x="338.688" xlink:href="#m4869df63b2" y="183.073062"/>
     <use style="fill-opacity:0;stroke:#000080;stroke-width:1.5;" x="369.60768" xlink:href="#m4869df63b2" y="138.852499"/>
    </g>
   </g>
   <g id="line2d_63">
    <path d="M 338.688 167.27248 
L 369.60768 87.279398 
" style="fill:none;stroke:#000080;stroke-linecap:square;stroke-width:1.5;"/>
    <g>
     <use style="fill-opacity:0;stroke:#000080;stroke-width:1.5;" x="338.688" xlink:href="#m4869df63b2" y="167.27248"/>
     <use style="fill-opacity:0;stroke:#000080;stroke-width:1.5;" x="369.60768" xlink:href="#m4869df63b2" y="87.279398"/>
    </g>
   </g>
   <g id="line2d_64">
    <path d="M 338.688 298.944 
L 338.688 30.334099 
" style="fill:none;stroke:#000000;stroke-linecap:square;stroke-width:1.5;"/>
   </g>
   <g id="patch_3">
    <path d="M 57.6 298.944 
L 57.6 27.648 
" style="fill:none;stroke:#000000;stroke-linecap:square;stroke-linejoin:miter;stroke-width:0.8;"/>
   </g>
   <g id="patch_4">
    <path d="M 338.688 298.944 
L 338.688 27.648 
" style="fill:none;stroke:#000000;stroke-linecap:square;stroke-linejoin:miter;stroke-width:0.8;"/>
   </g>
   <g id="patch_5">
    <path d="M 57.6 298.944 
L 338.688 298.944 
" style="fill:none;stroke:#000000;stroke-linecap:square;stroke-linejoin:miter;stroke-width:0.8;"/>
   </g>
   <g id="patch_6">
    <path d="M 57.6 27.648 
L 338.688 27.648 
" style="fill:none;stroke:#000000;stroke-linecap:square;stroke-linejoin:miter;stroke-width:0.8;"/>
   </g>
   <g id="text_13">
    <!-- 025s-2e4 -->
    <defs>
     <path d="M 10.796875 72.90625 
L 49.515625 72.90625 
L 49.515625 64.59375 
L 19.828125 64.59375 
L 19.828125 46.734375 
Q 21.96875 47.46875 24.109375 47.828125 
Q 26.265625 48.1875 28.421875 48.1875 
Q 40.625 48.1875 47.75 41.5 
Q 54.890625 34.8125 54.890625 23.390625 
Q 54.890625 11.625 47.5625 5.09375 
Q 40.234375 -1.421875 26.90625 -1.421875 
Q 22.3125 -1.421875 17.546875 -0.640625 
Q 12.796875 0.140625 7.71875 1.703125 
L 7.71875 11.625 
Q 12.109375 9.234375 16.796875 8.0625 
Q 21.484375 6.890625 26.703125 6.890625 
Q 35.15625 6.890625 40.078125 11.328125 
Q 45.015625 15.765625 45.015625 23.390625 
Q 45.015625 31 40.078125 35.4375 
Q 35.15625 39.890625 26.703125 39.890625 
Q 22.75 39.890625 18.8125 39.015625 
Q 14.890625 38.140625 10.796875 36.28125 
z
" id="DejaVuSans-53"/>
    </defs>
    <g transform="translate(375.22944 298.262739)scale(0.17 -0.17)">
     <use xlink:href="#DejaVuSans-48"/>
     <use x="63.623047" xlink:href="#DejaVuSans-50"/>
     <use x="127.246094" xlink:href="#DejaVuSans-53"/>
     <use x="190.869141" xlink:href="#DejaVuSans-115"/>
     <use x="242.96875" xlink:href="#DejaVuSans-45"/>
     <use x="279.052734" xlink:href="#DejaVuSans-50"/>
     <use x="342.675781" xlink:href="#DejaVuSans-101"/>
     <use x="404.199219" xlink:href="#DejaVuSans-52"/>
    </g>
   </g>
   <g id="text_14">
    <!-- 050s-2e4 -->
    <g transform="translate(375.22944 246.689638)scale(0.17 -0.17)">
     <use xlink:href="#DejaVuSans-48"/>
     <use x="63.623047" xlink:href="#DejaVuSans-53"/>
     <use x="127.246094" xlink:href="#DejaVuSans-48"/>
     <use x="190.869141" xlink:href="#DejaVuSans-115"/>
     <use x="242.96875" xlink:href="#DejaVuSans-45"/>
     <use x="279.052734" xlink:href="#DejaVuSans-50"/>
     <use x="342.675781" xlink:href="#DejaVuSans-101"/>
     <use x="404.199219" xlink:href="#DejaVuSans-52"/>
    </g>
   </g>
   <g id="text_15">
    <!-- 075s-2e4 -->
    <defs>
     <path d="M 8.203125 72.90625 
L 55.078125 72.90625 
L 55.078125 68.703125 
L 28.609375 0 
L 18.3125 0 
L 43.21875 64.59375 
L 8.203125 64.59375 
z
" id="DejaVuSans-55"/>
    </defs>
    <g transform="translate(375.22944 195.116537)scale(0.17 -0.17)">
     <use xlink:href="#DejaVuSans-48"/>
     <use x="63.623047" xlink:href="#DejaVuSans-55"/>
     <use x="127.246094" xlink:href="#DejaVuSans-53"/>
     <use x="190.869141" xlink:href="#DejaVuSans-115"/>
     <use x="242.96875" xlink:href="#DejaVuSans-45"/>
     <use x="279.052734" xlink:href="#DejaVuSans-50"/>
     <use x="342.675781" xlink:href="#DejaVuSans-101"/>
     <use x="404.199219" xlink:href="#DejaVuSans-52"/>
    </g>
   </g>
   <g id="text_16">
    <!-- 100-1e5 -->
    <g transform="translate(375.22944 143.543437)scale(0.17 -0.17)">
     <use xlink:href="#DejaVuSans-49"/>
     <use x="63.623047" xlink:href="#DejaVuSans-48"/>
     <use x="127.246094" xlink:href="#DejaVuSans-48"/>
     <use x="190.869141" xlink:href="#DejaVuSans-45"/>
     <use x="226.953125" xlink:href="#DejaVuSans-49"/>
     <use x="290.576172" xlink:href="#DejaVuSans-101"/>
     <use x="352.099609" xlink:href="#DejaVuSans-53"/>
    </g>
   </g>
   <g id="text_17">
    <!-- 100-2e4 -->
    <g transform="translate(375.22944 91.970336)scale(0.17 -0.17)">
     <use xlink:href="#DejaVuSans-49"/>
     <use x="63.623047" xlink:href="#DejaVuSans-48"/>
     <use x="127.246094" xlink:href="#DejaVuSans-48"/>
     <use x="190.869141" xlink:href="#DejaVuSans-45"/>
     <use x="226.953125" xlink:href="#DejaVuSans-50"/>
     <use x="290.576172" xlink:href="#DejaVuSans-101"/>
     <use x="352.099609" xlink:href="#DejaVuSans-52"/>
    </g>
   </g>
   <g id="text_18">
    <!-- best 2009 -->
    <defs>
     <path d="M 48.6875 27.296875 
Q 48.6875 37.203125 44.609375 42.84375 
Q 40.53125 48.484375 33.40625 48.484375 
Q 26.265625 48.484375 22.1875 42.84375 
Q 18.109375 37.203125 18.109375 27.296875 
Q 18.109375 17.390625 22.1875 11.75 
Q 26.265625 6.109375 33.40625 6.109375 
Q 40.53125 6.109375 44.609375 11.75 
Q 48.6875 17.390625 48.6875 27.296875 
z
M 18.109375 46.390625 
Q 20.953125 51.265625 25.265625 53.625 
Q 29.59375 56 35.59375 56 
Q 45.5625 56 51.78125 48.09375 
Q 58.015625 40.1875 58.015625 27.296875 
Q 58.015625 14.40625 51.78125 6.484375 
Q 45.5625 -1.421875 35.59375 -1.421875 
Q 29.59375 -1.421875 25.265625 0.953125 
Q 20.953125 3.328125 18.109375 8.203125 
L 18.109375 0 
L 9.078125 0 
L 9.078125 75.984375 
L 18.109375 75.984375 
z
" id="DejaVuSans-98"/>
     <path d="M 10.984375 1.515625 
L 10.984375 10.5 
Q 14.703125 8.734375 18.5 7.8125 
Q 22.3125 6.890625 25.984375 6.890625 
Q 35.75 6.890625 40.890625 13.453125 
Q 46.046875 20.015625 46.78125 33.40625 
Q 43.953125 29.203125 39.59375 26.953125 
Q 35.25 24.703125 29.984375 24.703125 
Q 19.046875 24.703125 12.671875 31.3125 
Q 6.296875 37.9375 6.296875 49.421875 
Q 6.296875 60.640625 12.9375 67.421875 
Q 19.578125 74.21875 30.609375 74.21875 
Q 43.265625 74.21875 49.921875 64.515625 
Q 56.59375 54.828125 56.59375 36.375 
Q 56.59375 19.140625 48.40625 8.859375 
Q 40.234375 -1.421875 26.421875 -1.421875 
Q 22.703125 -1.421875 18.890625 -0.6875 
Q 15.09375 0.046875 10.984375 1.515625 
z
M 30.609375 32.421875 
Q 37.25 32.421875 41.125 36.953125 
Q 45.015625 41.5 45.015625 49.421875 
Q 45.015625 57.28125 41.125 61.84375 
Q 37.25 66.40625 30.609375 66.40625 
Q 23.96875 66.40625 20.09375 61.84375 
Q 16.21875 57.28125 16.21875 49.421875 
Q 16.21875 41.5 20.09375 36.953125 
Q 23.96875 32.421875 30.609375 32.421875 
z
" id="DejaVuSans-57"/>
    </defs>
    <g transform="translate(375.22944 40.397235)scale(0.17 -0.17)">
     <use xlink:href="#DejaVuSans-98"/>
     <use x="63.476562" xlink:href="#DejaVuSans-101"/>
     <use x="125" xlink:href="#DejaVuSans-115"/>
     <use x="177.099609" xlink:href="#DejaVuSans-116"/>
     <use x="216.308594" xlink:href="#DejaVuSans-32"/>
     <use x="248.095703" xlink:href="#DejaVuSans-50"/>
     <use x="311.71875" xlink:href="#DejaVuSans-48"/>
     <use x="375.341797" xlink:href="#DejaVuSans-48"/>
     <use x="438.964844" xlink:href="#DejaVuSans-57"/>
    </g>
   </g>
   <g id="text_19">
    <!-- bbob f23, 20-D -->
    <defs>
     <path d="M 40.578125 39.3125 
Q 47.65625 37.796875 51.625 33 
Q 55.609375 28.21875 55.609375 21.1875 
Q 55.609375 10.40625 48.1875 4.484375 
Q 40.765625 -1.421875 27.09375 -1.421875 
Q 22.515625 -1.421875 17.65625 -0.515625 
Q 12.796875 0.390625 7.625 2.203125 
L 7.625 11.71875 
Q 11.71875 9.328125 16.59375 8.109375 
Q 21.484375 6.890625 26.8125 6.890625 
Q 36.078125 6.890625 40.9375 10.546875 
Q 45.796875 14.203125 45.796875 21.1875 
Q 45.796875 27.640625 41.28125 31.265625 
Q 36.765625 34.90625 28.71875 34.90625 
L 20.21875 34.90625 
L 20.21875 43.015625 
L 29.109375 43.015625 
Q 36.375 43.015625 40.234375 45.921875 
Q 44.09375 48.828125 44.09375 54.296875 
Q 44.09375 59.90625 40.109375 62.90625 
Q 36.140625 65.921875 28.71875 65.921875 
Q 24.65625 65.921875 20.015625 65.03125 
Q 15.375 64.15625 9.8125 62.3125 
L 9.8125 71.09375 
Q 15.4375 72.65625 20.34375 73.4375 
Q 25.25 74.21875 29.59375 74.21875 
Q 40.828125 74.21875 47.359375 69.109375 
Q 53.90625 64.015625 53.90625 55.328125 
Q 53.90625 49.265625 50.4375 45.09375 
Q 46.96875 40.921875 40.578125 39.3125 
z
" id="DejaVuSans-51"/>
     <path d="M 19.671875 64.796875 
L 19.671875 8.109375 
L 31.59375 8.109375 
Q 46.6875 8.109375 53.6875 14.9375 
Q 60.6875 21.78125 60.6875 36.53125 
Q 60.6875 51.171875 53.6875 57.984375 
Q 46.6875 64.796875 31.59375 64.796875 
z
M 9.8125 72.90625 
L 30.078125 72.90625 
Q 51.265625 72.90625 61.171875 64.09375 
Q 71.09375 55.28125 71.09375 36.53125 
Q 71.09375 17.671875 61.125 8.828125 
Q 51.171875 0 30.078125 0 
L 9.8125 0 
z
" id="DejaVuSans-68"/>
    </defs>
    <g transform="translate(60.41088 38.111366)scale(0.102 -0.102)">
     <use xlink:href="#DejaVuSans-98"/>
     <use x="63.476562" xlink:href="#DejaVuSans-98"/>
     <use x="126.953125" xlink:href="#DejaVuSans-111"/>
     <use x="188.134766" xlink:href="#DejaVuSans-98"/>
     <use x="251.611328" xlink:href="#DejaVuSans-32"/>
     <use x="283.398438" xlink:href="#DejaVuSans-102"/>
     <use x="318.603516" xlink:href="#DejaVuSans-50"/>
     <use x="382.226562" xlink:href="#DejaVuSans-51"/>
     <use x="445.849609" xlink:href="#DejaVuSans-44"/>
     <use x="477.636719" xlink:href="#DejaVuSans-32"/>
     <use x="509.423828" xlink:href="#DejaVuSans-50"/>
     <use x="573.046875" xlink:href="#DejaVuSans-48"/>
     <use x="636.669922" xlink:href="#DejaVuSans-45"/>
     <use x="672.753906" xlink:href="#DejaVuSans-68"/>
    </g>
    <!-- 51 targets: 100..1e-08 -->
    <defs>
     <path d="M 11.71875 12.40625 
L 22.015625 12.40625 
L 22.015625 0 
L 11.71875 0 
z
M 11.71875 51.703125 
L 22.015625 51.703125 
L 22.015625 39.3125 
L 11.71875 39.3125 
z
" id="DejaVuSans-58"/>
    </defs>
    <g transform="translate(60.41088 49.533135)scale(0.102 -0.102)">
     <use xlink:href="#DejaVuSans-53"/>
     <use x="63.623047" xlink:href="#DejaVuSans-49"/>
     <use x="127.246094" xlink:href="#DejaVuSans-32"/>
     <use x="159.033203" xlink:href="#DejaVuSans-116"/>
     <use x="198.242188" xlink:href="#DejaVuSans-97"/>
     <use x="259.521484" xlink:href="#DejaVuSans-114"/>
     <use x="300.619141" xlink:href="#DejaVuSans-103"/>
     <use x="364.095703" xlink:href="#DejaVuSans-101"/>
     <use x="425.619141" xlink:href="#DejaVuSans-116"/>
     <use x="464.828125" xlink:href="#DejaVuSans-115"/>
     <use x="516.927734" xlink:href="#DejaVuSans-58"/>
     <use x="550.619141" xlink:href="#DejaVuSans-32"/>
     <use x="582.40625" xlink:href="#DejaVuSans-49"/>
     <use x="646.029297" xlink:href="#DejaVuSans-48"/>
     <use x="709.652344" xlink:href="#DejaVuSans-48"/>
     <use x="773.275391" xlink:href="#DejaVuSans-46"/>
     <use x="805.0625" xlink:href="#DejaVuSans-46"/>
     <use x="836.849609" xlink:href="#DejaVuSans-49"/>
     <use x="900.472656" xlink:href="#DejaVuSans-101"/>
     <use x="961.996094" xlink:href="#DejaVuSans-45"/>
     <use x="998.080078" xlink:href="#DejaVuSans-48"/>
     <use x="1061.703125" xlink:href="#DejaVuSans-56"/>
    </g>
    <!-- 15 instances -->
    <g transform="translate(60.41088 60.954904)scale(0.102 -0.102)">
     <use xlink:href="#DejaVuSans-49"/>
     <use x="63.623047" xlink:href="#DejaVuSans-53"/>
     <use x="127.246094" xlink:href="#DejaVuSans-32"/>
     <use x="159.033203" xlink:href="#DejaVuSans-105"/>
     <use x="186.816406" xlink:href="#DejaVuSans-110"/>
     <use x="250.195312" xlink:href="#DejaVuSans-115"/>
     <use x="302.294922" xlink:href="#DejaVuSans-116"/>
     <use x="341.503906" xlink:href="#DejaVuSans-97"/>
     <use x="402.783203" xlink:href="#DejaVuSans-110"/>
     <use x="466.162109" xlink:href="#DejaVuSans-99"/>
     <use x="521.142578" xlink:href="#DejaVuSans-101"/>
     <use x="582.666016" xlink:href="#DejaVuSans-115"/>
    </g>
   </g>
   <g id="text_20">
    <!-- v2.3.3.18.73 -->
    <g style="fill:#808080;" transform="translate(166.559625 294.151352)scale(0.1 -0.1)">
     <use xlink:href="#DejaVuSans-118"/>
     <use x="59.179688" xlink:href="#DejaVuSans-50"/>
     <use x="122.802734" xlink:href="#DejaVuSans-46"/>
     <use x="154.589844" xlink:href="#DejaVuSans-51"/>
     <use x="218.212891" xlink:href="#DejaVuSans-46"/>
     <use x="250" xlink:href="#DejaVuSans-51"/>
     <use x="313.623047" xlink:href="#DejaVuSans-46"/>
     <use x="345.410156" xlink:href="#DejaVuSans-49"/>
     <use x="409.033203" xlink:href="#DejaVuSans-56"/>
     <use x="472.65625" xlink:href="#DejaVuSans-46"/>
     <use x="504.443359" xlink:href="#DejaVuSans-55"/>
     <use x="568.066406" xlink:href="#DejaVuSans-51"/>
    </g>
   </g>
   <g id="text_21">
    <!-- 23 Katsuuras -->
    <defs>
     <path d="M 9.8125 72.90625 
L 19.671875 72.90625 
L 19.671875 42.09375 
L 52.390625 72.90625 
L 65.09375 72.90625 
L 28.90625 38.921875 
L 67.671875 0 
L 54.6875 0 
L 19.671875 35.109375 
L 19.671875 0 
L 9.8125 0 
z
" id="DejaVuSans-75"/>
    </defs>
    <g transform="translate(132.303375 21.648)scale(0.2 -0.2)">
     <use xlink:href="#DejaVuSans-50"/>
     <use x="63.623047" xlink:href="#DejaVuSans-51"/>
     <use x="127.246094" xlink:href="#DejaVuSans-32"/>
     <use x="159.033203" xlink:href="#DejaVuSans-75"/>
     <use x="224.59375" xlink:href="#DejaVuSans-97"/>
     <use x="285.873047" xlink:href="#DejaVuSans-116"/>
     <use x="325.082031" xlink:href="#DejaVuSans-115"/>
     <use x="377.181641" xlink:href="#DejaVuSans-117"/>
     <use x="440.560547" xlink:href="#DejaVuSans-117"/>
     <use x="503.939453" xlink:href="#DejaVuSans-114"/>
     <use x="545.052734" xlink:href="#DejaVuSans-97"/>
     <use x="606.332031" xlink:href="#DejaVuSans-115"/>
    </g>
   </g>
  </g>
 </g>
 <defs>
  <clipPath id="pa950e7dbcc">
   <rect height="271.296" width="281.088" x="57.6" y="27.648"/>
  </clipPath>
 </defs>
</svg>
