<?xml version="1.0" encoding="utf-8" standalone="no"?>
<!DOCTYPE svg PUBLIC "-//W3C//DTD SVG 1.1//EN"
  "http://www.w3.org/Graphics/SVG/1.1/DTD/svg11.dtd">
<!-- Created with matplotlib (https://matplotlib.org/) -->
<svg height="345.6pt" version="1.1" viewBox="0 0 460.8 345.6" width="460.8pt" xmlns="http://www.w3.org/2000/svg" xmlns:xlink="http://www.w3.org/1999/xlink">
 <defs>
  <style type="text/css">
*{stroke-linecap:butt;stroke-linejoin:round;}
  </style>
 </defs>
 <g id="figure_1">
  <g id="patch_1">
   <path d="M 0 345.6 
L 460.8 345.6 
L 460.8 0 
L 0 0 
z
" style="fill:#ffffff;"/>
  </g>
  <g id="axes_1">
   <g id="patch_2">
    <path d="M 57.6 298.944 
L 338.688 298.944 
L 338.688 27.648 
L 57.6 27.648 
z
" style="fill:#ffffff;"/>
   </g>
   <g id="line2d_1">
    <path d="M 98.880934 298.944 
L 98.880934 293.677139 
L 99.938184 293.677139 
L 99.938184 283.143418 
L 101.877879 283.143418 
L 101.877879 267.342835 
L 102.330873 267.342835 
L 102.330873 262.075974 
L 102.772397 262.075974 
L 102.772397 251.542253 
L 103.203018 251.542253 
L 103.203018 246.275392 
L 103.623262 246.275392 
L 103.623262 241.008531 
L 104.033617 241.008531 
L 104.033617 209.407366 
L 104.434538 209.407366 
L 104.434538 172.539341 
L 104.826449 172.539341 
L 104.826449 151.471897 
L 105.209745 151.471897 
L 105.209745 125.137593 
L 105.584798 125.137593 
L 105.584798 83.002707 
L 105.951954 83.002707 
L 105.951954 46.134681 
L 106.311539 46.134681 
L 106.311539 30.334099 
L 338.688 30.334099 
" style="fill:none;stroke:#f5deb3;stroke-linecap:square;stroke-width:4;"/>
   </g>
   <g id="line2d_2">
    <defs>
     <path d="M -0 7.778175 
L 7.778175 0 
L 0 -7.778175 
L -7.778175 -0 
z
" id="m908f02e16a" style="stroke:#f5deb3;stroke-linejoin:miter;stroke-width:1.5;"/>
    </defs>
    <g>
     <use style="fill:#f5deb3;stroke:#f5deb3;stroke-linejoin:miter;stroke-width:1.5;" x="105.209745" xlink:href="#m908f02e16a" y="151.471897"/>
     <use style="fill:#f5deb3;stroke:#f5deb3;stroke-linejoin:miter;stroke-width:1.5;" x="106.311539" xlink:href="#m908f02e16a" y="46.134681"/>
     <use style="fill:#f5deb3;stroke:#f5deb3;stroke-linejoin:miter;stroke-width:1.5;" x="106.311539" xlink:href="#m908f02e16a" y="30.334099"/>
     <use style="fill:#f5deb3;stroke:#f5deb3;stroke-linejoin:miter;stroke-width:1.5;" x="106.311539" xlink:href="#m908f02e16a" y="30.334099"/>
     <use style="fill:#f5deb3;stroke:#f5deb3;stroke-linejoin:miter;stroke-width:1.5;" x="338.688" xlink:href="#m908f02e16a" y="30.334099"/>
    </g>
   </g>
   <g id="line2d_3">
    <path style="fill:none;stroke:#f5deb3;stroke-linecap:square;stroke-width:4;"/>
    <g/>
   </g>
   <g id="line2d_4">
    <path d="M 338.688 30.334099 
L 369.60768 35.706297 
" style="fill:none;stroke:#f5deb3;stroke-linecap:square;stroke-width:4;"/>
    <g>
     <use style="fill:#f5deb3;stroke:#f5deb3;stroke-linejoin:miter;stroke-width:1.5;" x="338.688" xlink:href="#m908f02e16a" y="30.334099"/>
     <use style="fill:#f5deb3;stroke:#f5deb3;stroke-linejoin:miter;stroke-width:1.5;" x="369.60768" xlink:href="#m908f02e16a" y="35.706297"/>
    </g>
   </g>
   <g id="matplotlib.axis_1">
    <g id="xtick_1">
     <g id="line2d_5">
      <path clip-path="url(#p6046589699)" d="M 57.6 298.944 
L 57.6 27.648 
" style="fill:none;stroke:#b0b0b0;stroke-linecap:square;stroke-width:0.8;"/>
     </g>
     <g id="line2d_6">
      <defs>
       <path d="M 0 0 
L 0 3.5 
" id="m00248484a8" style="stroke:#000000;stroke-width:0.8;"/>
      </defs>
      <g>
       <use style="stroke:#000000;stroke-width:0.8;" x="57.6" xlink:href="#m00248484a8" y="298.944"/>
      </g>
     </g>
     <g id="text_1">
      <!-- 0 -->
      <defs>
       <path d="M 31.78125 66.40625 
Q 24.171875 66.40625 20.328125 58.90625 
Q 16.5 51.421875 16.5 36.375 
Q 16.5 21.390625 20.328125 13.890625 
Q 24.171875 6.390625 31.78125 6.390625 
Q 39.453125 6.390625 43.28125 13.890625 
Q 47.125 21.390625 47.125 36.375 
Q 47.125 51.421875 43.28125 58.90625 
Q 39.453125 66.40625 31.78125 66.40625 
z
M 31.78125 74.21875 
Q 44.046875 74.21875 50.515625 64.515625 
Q 56.984375 54.828125 56.984375 36.375 
Q 56.984375 17.96875 50.515625 8.265625 
Q 44.046875 -1.421875 31.78125 -1.421875 
Q 19.53125 -1.421875 13.0625 8.265625 
Q 6.59375 17.96875 6.59375 36.375 
Q 6.59375 54.828125 13.0625 64.515625 
Q 19.53125 74.21875 31.78125 74.21875 
z
" id="DejaVuSans-48"/>
      </defs>
      <g transform="translate(51.2375 321.140875)scale(0.2 -0.2)">
       <use xlink:href="#DejaVuSans-48"/>
      </g>
     </g>
    </g>
    <g id="xtick_2">
     <g id="line2d_7">
      <path clip-path="url(#p6046589699)" d="M 137.910857 298.944 
L 137.910857 27.648 
" style="fill:none;stroke:#b0b0b0;stroke-linecap:square;stroke-width:0.8;"/>
     </g>
     <g id="line2d_8">
      <g>
       <use style="stroke:#000000;stroke-width:0.8;" x="137.910857" xlink:href="#m00248484a8" y="298.944"/>
      </g>
     </g>
     <g id="text_2">
      <!-- 2 -->
      <defs>
       <path d="M 19.1875 8.296875 
L 53.609375 8.296875 
L 53.609375 0 
L 7.328125 0 
L 7.328125 8.296875 
Q 12.9375 14.109375 22.625 23.890625 
Q 32.328125 33.6875 34.8125 36.53125 
Q 39.546875 41.84375 41.421875 45.53125 
Q 43.3125 49.21875 43.3125 52.78125 
Q 43.3125 58.59375 39.234375 62.25 
Q 35.15625 65.921875 28.609375 65.921875 
Q 23.96875 65.921875 18.8125 64.3125 
Q 13.671875 62.703125 7.8125 59.421875 
L 7.8125 69.390625 
Q 13.765625 71.78125 18.9375 73 
Q 24.125 74.21875 28.421875 74.21875 
Q 39.75 74.21875 46.484375 68.546875 
Q 53.21875 62.890625 53.21875 53.421875 
Q 53.21875 48.921875 51.53125 44.890625 
Q 49.859375 40.875 45.40625 35.40625 
Q 44.1875 33.984375 37.640625 27.21875 
Q 31.109375 20.453125 19.1875 8.296875 
z
" id="DejaVuSans-50"/>
      </defs>
      <g transform="translate(131.548357 321.140875)scale(0.2 -0.2)">
       <use xlink:href="#DejaVuSans-50"/>
      </g>
     </g>
    </g>
    <g id="xtick_3">
     <g id="line2d_9">
      <path clip-path="url(#p6046589699)" d="M 218.221714 298.944 
L 218.221714 27.648 
" style="fill:none;stroke:#b0b0b0;stroke-linecap:square;stroke-width:0.8;"/>
     </g>
     <g id="line2d_10">
      <g>
       <use style="stroke:#000000;stroke-width:0.8;" x="218.221714" xlink:href="#m00248484a8" y="298.944"/>
      </g>
     </g>
     <g id="text_3">
      <!-- 4 -->
      <defs>
       <path d="M 37.796875 64.3125 
L 12.890625 25.390625 
L 37.796875 25.390625 
z
M 35.203125 72.90625 
L 47.609375 72.90625 
L 47.609375 25.390625 
L 58.015625 25.390625 
L 58.015625 17.1875 
L 47.609375 17.1875 
L 47.609375 0 
L 37.796875 0 
L 37.796875 17.1875 
L 4.890625 17.1875 
L 4.890625 26.703125 
z
" id="DejaVuSans-52"/>
      </defs>
      <g transform="translate(211.859214 321.140875)scale(0.2 -0.2)">
       <use xlink:href="#DejaVuSans-52"/>
      </g>
     </g>
    </g>
    <g id="xtick_4">
     <g id="line2d_11">
      <path clip-path="url(#p6046589699)" d="M 298.532571 298.944 
L 298.532571 27.648 
" style="fill:none;stroke:#b0b0b0;stroke-linecap:square;stroke-width:0.8;"/>
     </g>
     <g id="line2d_12">
      <g>
       <use style="stroke:#000000;stroke-width:0.8;" x="298.532571" xlink:href="#m00248484a8" y="298.944"/>
      </g>
     </g>
     <g id="text_4">
      <!-- 6 -->
      <defs>
       <path d="M 33.015625 40.375 
Q 26.375 40.375 22.484375 35.828125 
Q 18.609375 31.296875 18.609375 23.390625 
Q 18.609375 15.53125 22.484375 10.953125 
Q 26.375 6.390625 33.015625 6.390625 
Q 39.65625 6.390625 43.53125 10.953125 
Q 47.40625 15.53125 47.40625 23.390625 
Q 47.40625 31.296875 43.53125 35.828125 
Q 39.65625 40.375 33.015625 40.375 
z
M 52.59375 71.296875 
L 52.59375 62.3125 
Q 48.875 64.0625 45.09375 64.984375 
Q 41.3125 65.921875 37.59375 65.921875 
Q 27.828125 65.921875 22.671875 59.328125 
Q 17.53125 52.734375 16.796875 39.40625 
Q 19.671875 43.65625 24.015625 45.921875 
Q 28.375 48.1875 33.59375 48.1875 
Q 44.578125 48.1875 50.953125 41.515625 
Q 57.328125 34.859375 57.328125 23.390625 
Q 57.328125 12.15625 50.6875 5.359375 
Q 44.046875 -1.421875 33.015625 -1.421875 
Q 20.359375 -1.421875 13.671875 8.265625 
Q 6.984375 17.96875 6.984375 36.375 
Q 6.984375 53.65625 15.1875 63.9375 
Q 23.390625 74.21875 37.203125 74.21875 
Q 40.921875 74.21875 44.703125 73.484375 
Q 48.484375 72.75 52.59375 71.296875 
z
" id="DejaVuSans-54"/>
      </defs>
      <g transform="translate(292.170071 321.140875)scale(0.2 -0.2)">
       <use xlink:href="#DejaVuSans-54"/>
      </g>
     </g>
    </g>
    <g id="xtick_5">
     <g id="line2d_13">
      <path clip-path="url(#p6046589699)" d="M 97.755429 298.944 
L 97.755429 27.648 
" style="fill:none;stroke:#b0b0b0;stroke-linecap:square;stroke-width:0.8;"/>
     </g>
     <g id="line2d_14">
      <defs>
       <path d="M 0 0 
L 0 2 
" id="ma5385beeed" style="stroke:#000000;stroke-width:0.6;"/>
      </defs>
      <g>
       <use style="stroke:#000000;stroke-width:0.6;" x="97.755429" xlink:href="#ma5385beeed" y="298.944"/>
      </g>
     </g>
    </g>
    <g id="xtick_6">
     <g id="line2d_15">
      <path clip-path="url(#p6046589699)" d="M 178.066286 298.944 
L 178.066286 27.648 
" style="fill:none;stroke:#b0b0b0;stroke-linecap:square;stroke-width:0.8;"/>
     </g>
     <g id="line2d_16">
      <g>
       <use style="stroke:#000000;stroke-width:0.6;" x="178.066286" xlink:href="#ma5385beeed" y="298.944"/>
      </g>
     </g>
    </g>
    <g id="xtick_7">
     <g id="line2d_17">
      <path clip-path="url(#p6046589699)" d="M 258.377143 298.944 
L 258.377143 27.648 
" style="fill:none;stroke:#b0b0b0;stroke-linecap:square;stroke-width:0.8;"/>
     </g>
     <g id="line2d_18">
      <g>
       <use style="stroke:#000000;stroke-width:0.6;" x="258.377143" xlink:href="#ma5385beeed" y="298.944"/>
      </g>
     </g>
    </g>
    <g id="xtick_8">
     <g id="line2d_19">
      <path clip-path="url(#p6046589699)" d="M 338.688 298.944 
L 338.688 27.648 
" style="fill:none;stroke:#b0b0b0;stroke-linecap:square;stroke-width:0.8;"/>
     </g>
     <g id="line2d_20">
      <g>
       <use style="stroke:#000000;stroke-width:0.6;" x="338.688" xlink:href="#ma5385beeed" y="298.944"/>
      </g>
     </g>
    </g>
    <g id="text_5">
     <!-- log10(# f-evals / dimension) -->
     <defs>
      <path d="M 9.421875 75.984375 
L 18.40625 75.984375 
L 18.40625 0 
L 9.421875 0 
z
" id="DejaVuSans-108"/>
      <path d="M 30.609375 48.390625 
Q 23.390625 48.390625 19.1875 42.75 
Q 14.984375 37.109375 14.984375 27.296875 
Q 14.984375 17.484375 19.15625 11.84375 
Q 23.34375 6.203125 30.609375 6.203125 
Q 37.796875 6.203125 41.984375 11.859375 
Q 46.1875 17.53125 46.1875 27.296875 
Q 46.1875 37.015625 41.984375 42.703125 
Q 37.796875 48.390625 30.609375 48.390625 
z
M 30.609375 56 
Q 42.328125 56 49.015625 48.375 
Q 55.71875 40.765625 55.71875 27.296875 
Q 55.71875 13.875 49.015625 6.21875 
Q 42.328125 -1.421875 30.609375 -1.421875 
Q 18.84375 -1.421875 12.171875 6.21875 
Q 5.515625 13.875 5.515625 27.296875 
Q 5.515625 40.765625 12.171875 48.375 
Q 18.84375 56 30.609375 56 
z
" id="DejaVuSans-111"/>
      <path d="M 45.40625 27.984375 
Q 45.40625 37.75 41.375 43.109375 
Q 37.359375 48.484375 30.078125 48.484375 
Q 22.859375 48.484375 18.828125 43.109375 
Q 14.796875 37.75 14.796875 27.984375 
Q 14.796875 18.265625 18.828125 12.890625 
Q 22.859375 7.515625 30.078125 7.515625 
Q 37.359375 7.515625 41.375 12.890625 
Q 45.40625 18.265625 45.40625 27.984375 
z
M 54.390625 6.78125 
Q 54.390625 -7.171875 48.1875 -13.984375 
Q 42 -20.796875 29.203125 -20.796875 
Q 24.46875 -20.796875 20.265625 -20.09375 
Q 16.0625 -19.390625 12.109375 -17.921875 
L 12.109375 -9.1875 
Q 16.0625 -11.328125 19.921875 -12.34375 
Q 23.78125 -13.375 27.78125 -13.375 
Q 36.625 -13.375 41.015625 -8.765625 
Q 45.40625 -4.15625 45.40625 5.171875 
L 45.40625 9.625 
Q 42.625 4.78125 38.28125 2.390625 
Q 33.9375 0 27.875 0 
Q 17.828125 0 11.671875 7.65625 
Q 5.515625 15.328125 5.515625 27.984375 
Q 5.515625 40.671875 11.671875 48.328125 
Q 17.828125 56 27.875 56 
Q 33.9375 56 38.28125 53.609375 
Q 42.625 51.21875 45.40625 46.390625 
L 45.40625 54.6875 
L 54.390625 54.6875 
z
" id="DejaVuSans-103"/>
      <path d="M 12.40625 8.296875 
L 28.515625 8.296875 
L 28.515625 63.921875 
L 10.984375 60.40625 
L 10.984375 69.390625 
L 28.421875 72.90625 
L 38.28125 72.90625 
L 38.28125 8.296875 
L 54.390625 8.296875 
L 54.390625 0 
L 12.40625 0 
z
" id="DejaVuSans-49"/>
      <path d="M 31 75.875 
Q 24.46875 64.65625 21.28125 53.65625 
Q 18.109375 42.671875 18.109375 31.390625 
Q 18.109375 20.125 21.3125 9.0625 
Q 24.515625 -2 31 -13.1875 
L 23.1875 -13.1875 
Q 15.875 -1.703125 12.234375 9.375 
Q 8.59375 20.453125 8.59375 31.390625 
Q 8.59375 42.28125 12.203125 53.3125 
Q 15.828125 64.359375 23.1875 75.875 
z
" id="DejaVuSans-40"/>
      <path d="M 51.125 44 
L 36.921875 44 
L 32.8125 27.6875 
L 47.125 27.6875 
z
M 43.796875 71.78125 
L 38.71875 51.515625 
L 52.984375 51.515625 
L 58.109375 71.78125 
L 65.921875 71.78125 
L 60.890625 51.515625 
L 76.125 51.515625 
L 76.125 44 
L 58.984375 44 
L 54.984375 27.6875 
L 70.515625 27.6875 
L 70.515625 20.21875 
L 53.078125 20.21875 
L 48 0 
L 40.1875 0 
L 45.21875 20.21875 
L 30.90625 20.21875 
L 25.875 0 
L 18.015625 0 
L 23.09375 20.21875 
L 7.71875 20.21875 
L 7.71875 27.6875 
L 24.90625 27.6875 
L 29 44 
L 13.28125 44 
L 13.28125 51.515625 
L 30.90625 51.515625 
L 35.890625 71.78125 
z
" id="DejaVuSans-35"/>
      <path id="DejaVuSans-32"/>
      <path d="M 37.109375 75.984375 
L 37.109375 68.5 
L 28.515625 68.5 
Q 23.6875 68.5 21.796875 66.546875 
Q 19.921875 64.59375 19.921875 59.515625 
L 19.921875 54.6875 
L 34.71875 54.6875 
L 34.71875 47.703125 
L 19.921875 47.703125 
L 19.921875 0 
L 10.890625 0 
L 10.890625 47.703125 
L 2.296875 47.703125 
L 2.296875 54.6875 
L 10.890625 54.6875 
L 10.890625 58.5 
Q 10.890625 67.625 15.140625 71.796875 
Q 19.390625 75.984375 28.609375 75.984375 
z
" id="DejaVuSans-102"/>
      <path d="M 4.890625 31.390625 
L 31.203125 31.390625 
L 31.203125 23.390625 
L 4.890625 23.390625 
z
" id="DejaVuSans-45"/>
      <path d="M 56.203125 29.59375 
L 56.203125 25.203125 
L 14.890625 25.203125 
Q 15.484375 15.921875 20.484375 11.0625 
Q 25.484375 6.203125 34.421875 6.203125 
Q 39.59375 6.203125 44.453125 7.46875 
Q 49.3125 8.734375 54.109375 11.28125 
L 54.109375 2.78125 
Q 49.265625 0.734375 44.1875 -0.34375 
Q 39.109375 -1.421875 33.890625 -1.421875 
Q 20.796875 -1.421875 13.15625 6.1875 
Q 5.515625 13.8125 5.515625 26.8125 
Q 5.515625 40.234375 12.765625 48.109375 
Q 20.015625 56 32.328125 56 
Q 43.359375 56 49.78125 48.890625 
Q 56.203125 41.796875 56.203125 29.59375 
z
M 47.21875 32.234375 
Q 47.125 39.59375 43.09375 43.984375 
Q 39.0625 48.390625 32.421875 48.390625 
Q 24.90625 48.390625 20.390625 44.140625 
Q 15.875 39.890625 15.1875 32.171875 
z
" id="DejaVuSans-101"/>
      <path d="M 2.984375 54.6875 
L 12.5 54.6875 
L 29.59375 8.796875 
L 46.6875 54.6875 
L 56.203125 54.6875 
L 35.6875 0 
L 23.484375 0 
z
" id="DejaVuSans-118"/>
      <path d="M 34.28125 27.484375 
Q 23.390625 27.484375 19.1875 25 
Q 14.984375 22.515625 14.984375 16.5 
Q 14.984375 11.71875 18.140625 8.90625 
Q 21.296875 6.109375 26.703125 6.109375 
Q 34.1875 6.109375 38.703125 11.40625 
Q 43.21875 16.703125 43.21875 25.484375 
L 43.21875 27.484375 
z
M 52.203125 31.203125 
L 52.203125 0 
L 43.21875 0 
L 43.21875 8.296875 
Q 40.140625 3.328125 35.546875 0.953125 
Q 30.953125 -1.421875 24.3125 -1.421875 
Q 15.921875 -1.421875 10.953125 3.296875 
Q 6 8.015625 6 15.921875 
Q 6 25.140625 12.171875 29.828125 
Q 18.359375 34.515625 30.609375 34.515625 
L 43.21875 34.515625 
L 43.21875 35.40625 
Q 43.21875 41.609375 39.140625 45 
Q 35.0625 48.390625 27.6875 48.390625 
Q 23 48.390625 18.546875 47.265625 
Q 14.109375 46.140625 10.015625 43.890625 
L 10.015625 52.203125 
Q 14.9375 54.109375 19.578125 55.046875 
Q 24.21875 56 28.609375 56 
Q 40.484375 56 46.34375 49.84375 
Q 52.203125 43.703125 52.203125 31.203125 
z
" id="DejaVuSans-97"/>
      <path d="M 44.28125 53.078125 
L 44.28125 44.578125 
Q 40.484375 46.53125 36.375 47.5 
Q 32.28125 48.484375 27.875 48.484375 
Q 21.1875 48.484375 17.84375 46.4375 
Q 14.5 44.390625 14.5 40.28125 
Q 14.5 37.15625 16.890625 35.375 
Q 19.28125 33.59375 26.515625 31.984375 
L 29.59375 31.296875 
Q 39.15625 29.25 43.1875 25.515625 
Q 47.21875 21.78125 47.21875 15.09375 
Q 47.21875 7.46875 41.1875 3.015625 
Q 35.15625 -1.421875 24.609375 -1.421875 
Q 20.21875 -1.421875 15.453125 -0.5625 
Q 10.6875 0.296875 5.421875 2 
L 5.421875 11.28125 
Q 10.40625 8.6875 15.234375 7.390625 
Q 20.0625 6.109375 24.8125 6.109375 
Q 31.15625 6.109375 34.5625 8.28125 
Q 37.984375 10.453125 37.984375 14.40625 
Q 37.984375 18.0625 35.515625 20.015625 
Q 33.0625 21.96875 24.703125 23.78125 
L 21.578125 24.515625 
Q 13.234375 26.265625 9.515625 29.90625 
Q 5.8125 33.546875 5.8125 39.890625 
Q 5.8125 47.609375 11.28125 51.796875 
Q 16.75 56 26.8125 56 
Q 31.78125 56 36.171875 55.265625 
Q 40.578125 54.546875 44.28125 53.078125 
z
" id="DejaVuSans-115"/>
      <path d="M 25.390625 72.90625 
L 33.6875 72.90625 
L 8.296875 -9.28125 
L 0 -9.28125 
z
" id="DejaVuSans-47"/>
      <path d="M 45.40625 46.390625 
L 45.40625 75.984375 
L 54.390625 75.984375 
L 54.390625 0 
L 45.40625 0 
L 45.40625 8.203125 
Q 42.578125 3.328125 38.25 0.953125 
Q 33.9375 -1.421875 27.875 -1.421875 
Q 17.96875 -1.421875 11.734375 6.484375 
Q 5.515625 14.40625 5.515625 27.296875 
Q 5.515625 40.1875 11.734375 48.09375 
Q 17.96875 56 27.875 56 
Q 33.9375 56 38.25 53.625 
Q 42.578125 51.265625 45.40625 46.390625 
z
M 14.796875 27.296875 
Q 14.796875 17.390625 18.875 11.75 
Q 22.953125 6.109375 30.078125 6.109375 
Q 37.203125 6.109375 41.296875 11.75 
Q 45.40625 17.390625 45.40625 27.296875 
Q 45.40625 37.203125 41.296875 42.84375 
Q 37.203125 48.484375 30.078125 48.484375 
Q 22.953125 48.484375 18.875 42.84375 
Q 14.796875 37.203125 14.796875 27.296875 
z
" id="DejaVuSans-100"/>
      <path d="M 9.421875 54.6875 
L 18.40625 54.6875 
L 18.40625 0 
L 9.421875 0 
z
M 9.421875 75.984375 
L 18.40625 75.984375 
L 18.40625 64.59375 
L 9.421875 64.59375 
z
" id="DejaVuSans-105"/>
      <path d="M 52 44.1875 
Q 55.375 50.25 60.0625 53.125 
Q 64.75 56 71.09375 56 
Q 79.640625 56 84.28125 50.015625 
Q 88.921875 44.046875 88.921875 33.015625 
L 88.921875 0 
L 79.890625 0 
L 79.890625 32.71875 
Q 79.890625 40.578125 77.09375 44.375 
Q 74.3125 48.1875 68.609375 48.1875 
Q 61.625 48.1875 57.5625 43.546875 
Q 53.515625 38.921875 53.515625 30.90625 
L 53.515625 0 
L 44.484375 0 
L 44.484375 32.71875 
Q 44.484375 40.625 41.703125 44.40625 
Q 38.921875 48.1875 33.109375 48.1875 
Q 26.21875 48.1875 22.15625 43.53125 
Q 18.109375 38.875 18.109375 30.90625 
L 18.109375 0 
L 9.078125 0 
L 9.078125 54.6875 
L 18.109375 54.6875 
L 18.109375 46.1875 
Q 21.1875 51.21875 25.484375 53.609375 
Q 29.78125 56 35.6875 56 
Q 41.65625 56 45.828125 52.96875 
Q 50 49.953125 52 44.1875 
z
" id="DejaVuSans-109"/>
      <path d="M 54.890625 33.015625 
L 54.890625 0 
L 45.90625 0 
L 45.90625 32.71875 
Q 45.90625 40.484375 42.875 44.328125 
Q 39.84375 48.1875 33.796875 48.1875 
Q 26.515625 48.1875 22.3125 43.546875 
Q 18.109375 38.921875 18.109375 30.90625 
L 18.109375 0 
L 9.078125 0 
L 9.078125 54.6875 
L 18.109375 54.6875 
L 18.109375 46.1875 
Q 21.34375 51.125 25.703125 53.5625 
Q 30.078125 56 35.796875 56 
Q 45.21875 56 50.046875 50.171875 
Q 54.890625 44.34375 54.890625 33.015625 
z
" id="DejaVuSans-110"/>
      <path d="M 8.015625 75.875 
L 15.828125 75.875 
Q 23.140625 64.359375 26.78125 53.3125 
Q 30.421875 42.28125 30.421875 31.390625 
Q 30.421875 20.453125 26.78125 9.375 
Q 23.140625 -1.703125 15.828125 -13.1875 
L 8.015625 -13.1875 
Q 14.5 -2 17.703125 9.0625 
Q 20.90625 20.125 20.90625 31.390625 
Q 20.90625 42.671875 17.703125 53.65625 
Q 14.5 64.65625 8.015625 75.875 
z
" id="DejaVuSans-41"/>
     </defs>
     <g transform="translate(77.303219 342.217594)scale(0.17 -0.17)">
      <use xlink:href="#DejaVuSans-108"/>
      <use x="27.783203" xlink:href="#DejaVuSans-111"/>
      <use x="88.964844" xlink:href="#DejaVuSans-103"/>
      <use x="152.441406" xlink:href="#DejaVuSans-49"/>
      <use x="216.064453" xlink:href="#DejaVuSans-48"/>
      <use x="279.6875" xlink:href="#DejaVuSans-40"/>
      <use x="318.701172" xlink:href="#DejaVuSans-35"/>
      <use x="402.490234" xlink:href="#DejaVuSans-32"/>
      <use x="434.277344" xlink:href="#DejaVuSans-102"/>
      <use x="469.404297" xlink:href="#DejaVuSans-45"/>
      <use x="505.488281" xlink:href="#DejaVuSans-101"/>
      <use x="567.011719" xlink:href="#DejaVuSans-118"/>
      <use x="626.191406" xlink:href="#DejaVuSans-97"/>
      <use x="687.470703" xlink:href="#DejaVuSans-108"/>
      <use x="715.253906" xlink:href="#DejaVuSans-115"/>
      <use x="767.353516" xlink:href="#DejaVuSans-32"/>
      <use x="799.140625" xlink:href="#DejaVuSans-47"/>
      <use x="832.832031" xlink:href="#DejaVuSans-32"/>
      <use x="864.619141" xlink:href="#DejaVuSans-100"/>
      <use x="928.095703" xlink:href="#DejaVuSans-105"/>
      <use x="955.878906" xlink:href="#DejaVuSans-109"/>
      <use x="1053.291016" xlink:href="#DejaVuSans-101"/>
      <use x="1114.814453" xlink:href="#DejaVuSans-110"/>
      <use x="1178.193359" xlink:href="#DejaVuSans-115"/>
      <use x="1230.292969" xlink:href="#DejaVuSans-105"/>
      <use x="1258.076172" xlink:href="#DejaVuSans-111"/>
      <use x="1319.257812" xlink:href="#DejaVuSans-110"/>
      <use x="1382.636719" xlink:href="#DejaVuSans-41"/>
     </g>
    </g>
   </g>
   <g id="matplotlib.axis_2">
    <g id="ytick_1">
     <g id="line2d_21">
      <path clip-path="url(#p6046589699)" d="M 57.6 298.944 
L 338.688 298.944 
" style="fill:none;stroke:#b0b0b0;stroke-linecap:square;stroke-width:0.8;"/>
     </g>
     <g id="line2d_22">
      <defs>
       <path d="M 0 0 
L -3.5 0 
" id="ma1d0c90ae3" style="stroke:#000000;stroke-width:0.8;"/>
      </defs>
      <g>
       <use style="stroke:#000000;stroke-width:0.8;" x="57.6" xlink:href="#ma1d0c90ae3" y="298.944"/>
      </g>
     </g>
     <g id="text_6">
      <!-- 0.0 -->
      <defs>
       <path d="M 10.6875 12.40625 
L 21 12.40625 
L 21 0 
L 10.6875 0 
z
" id="DejaVuSans-46"/>
      </defs>
      <g transform="translate(25.155 305.02275)scale(0.16 -0.16)">
       <use xlink:href="#DejaVuSans-48"/>
       <use x="63.623047" xlink:href="#DejaVuSans-46"/>
       <use x="95.410156" xlink:href="#DejaVuSans-48"/>
      </g>
     </g>
    </g>
    <g id="ytick_2">
     <g id="line2d_23">
      <path clip-path="url(#p6046589699)" d="M 57.6 245.22202 
L 338.688 245.22202 
" style="fill:none;stroke:#b0b0b0;stroke-linecap:square;stroke-width:0.8;"/>
     </g>
     <g id="line2d_24">
      <g>
       <use style="stroke:#000000;stroke-width:0.8;" x="57.6" xlink:href="#ma1d0c90ae3" y="245.22202"/>
      </g>
     </g>
     <g id="text_7">
      <!-- 0.2 -->
      <g transform="translate(25.155 251.30077)scale(0.16 -0.16)">
       <use xlink:href="#DejaVuSans-48"/>
       <use x="63.623047" xlink:href="#DejaVuSans-46"/>
       <use x="95.410156" xlink:href="#DejaVuSans-50"/>
      </g>
     </g>
    </g>
    <g id="ytick_3">
     <g id="line2d_25">
      <path clip-path="url(#p6046589699)" d="M 57.6 191.50004 
L 338.688 191.50004 
" style="fill:none;stroke:#b0b0b0;stroke-linecap:square;stroke-width:0.8;"/>
     </g>
     <g id="line2d_26">
      <g>
       <use style="stroke:#000000;stroke-width:0.8;" x="57.6" xlink:href="#ma1d0c90ae3" y="191.50004"/>
      </g>
     </g>
     <g id="text_8">
      <!-- 0.4 -->
      <g transform="translate(25.155 197.57879)scale(0.16 -0.16)">
       <use xlink:href="#DejaVuSans-48"/>
       <use x="63.623047" xlink:href="#DejaVuSans-46"/>
       <use x="95.410156" xlink:href="#DejaVuSans-52"/>
      </g>
     </g>
    </g>
    <g id="ytick_4">
     <g id="line2d_27">
      <path clip-path="url(#p6046589699)" d="M 57.6 137.778059 
L 338.688 137.778059 
" style="fill:none;stroke:#b0b0b0;stroke-linecap:square;stroke-width:0.8;"/>
     </g>
     <g id="line2d_28">
      <g>
       <use style="stroke:#000000;stroke-width:0.8;" x="57.6" xlink:href="#ma1d0c90ae3" y="137.778059"/>
      </g>
     </g>
     <g id="text_9">
      <!-- 0.6 -->
      <g transform="translate(25.155 143.856809)scale(0.16 -0.16)">
       <use xlink:href="#DejaVuSans-48"/>
       <use x="63.623047" xlink:href="#DejaVuSans-46"/>
       <use x="95.410156" xlink:href="#DejaVuSans-54"/>
      </g>
     </g>
    </g>
    <g id="ytick_5">
     <g id="line2d_29">
      <path clip-path="url(#p6046589699)" d="M 57.6 84.056079 
L 338.688 84.056079 
" style="fill:none;stroke:#b0b0b0;stroke-linecap:square;stroke-width:0.8;"/>
     </g>
     <g id="line2d_30">
      <g>
       <use style="stroke:#000000;stroke-width:0.8;" x="57.6" xlink:href="#ma1d0c90ae3" y="84.056079"/>
      </g>
     </g>
     <g id="text_10">
      <!-- 0.8 -->
      <defs>
       <path d="M 31.78125 34.625 
Q 24.75 34.625 20.71875 30.859375 
Q 16.703125 27.09375 16.703125 20.515625 
Q 16.703125 13.921875 20.71875 10.15625 
Q 24.75 6.390625 31.78125 6.390625 
Q 38.8125 6.390625 42.859375 10.171875 
Q 46.921875 13.96875 46.921875 20.515625 
Q 46.921875 27.09375 42.890625 30.859375 
Q 38.875 34.625 31.78125 34.625 
z
M 21.921875 38.8125 
Q 15.578125 40.375 12.03125 44.71875 
Q 8.5 49.078125 8.5 55.328125 
Q 8.5 64.0625 14.71875 69.140625 
Q 20.953125 74.21875 31.78125 74.21875 
Q 42.671875 74.21875 48.875 69.140625 
Q 55.078125 64.0625 55.078125 55.328125 
Q 55.078125 49.078125 51.53125 44.71875 
Q 48 40.375 41.703125 38.8125 
Q 48.828125 37.15625 52.796875 32.3125 
Q 56.78125 27.484375 56.78125 20.515625 
Q 56.78125 9.90625 50.3125 4.234375 
Q 43.84375 -1.421875 31.78125 -1.421875 
Q 19.734375 -1.421875 13.25 4.234375 
Q 6.78125 9.90625 6.78125 20.515625 
Q 6.78125 27.484375 10.78125 32.3125 
Q 14.796875 37.15625 21.921875 38.8125 
z
M 18.3125 54.390625 
Q 18.3125 48.734375 21.84375 45.5625 
Q 25.390625 42.390625 31.78125 42.390625 
Q 38.140625 42.390625 41.71875 45.5625 
Q 45.3125 48.734375 45.3125 54.390625 
Q 45.3125 60.0625 41.71875 63.234375 
Q 38.140625 66.40625 31.78125 66.40625 
Q 25.390625 66.40625 21.84375 63.234375 
Q 18.3125 60.0625 18.3125 54.390625 
z
" id="DejaVuSans-56"/>
      </defs>
      <g transform="translate(25.155 90.134829)scale(0.16 -0.16)">
       <use xlink:href="#DejaVuSans-48"/>
       <use x="63.623047" xlink:href="#DejaVuSans-46"/>
       <use x="95.410156" xlink:href="#DejaVuSans-56"/>
      </g>
     </g>
    </g>
    <g id="ytick_6">
     <g id="line2d_31">
      <path clip-path="url(#p6046589699)" d="M 57.6 30.334099 
L 338.688 30.334099 
" style="fill:none;stroke:#b0b0b0;stroke-linecap:square;stroke-width:0.8;"/>
     </g>
     <g id="line2d_32">
      <g>
       <use style="stroke:#000000;stroke-width:0.8;" x="57.6" xlink:href="#ma1d0c90ae3" y="30.334099"/>
      </g>
     </g>
     <g id="text_11">
      <!-- 1.0 -->
      <g transform="translate(25.155 36.412849)scale(0.16 -0.16)">
       <use xlink:href="#DejaVuSans-49"/>
       <use x="63.623047" xlink:href="#DejaVuSans-46"/>
       <use x="95.410156" xlink:href="#DejaVuSans-48"/>
      </g>
     </g>
    </g>
    <g id="text_12">
     <!-- Fraction of function,target pairs -->
     <defs>
      <path d="M 9.8125 72.90625 
L 51.703125 72.90625 
L 51.703125 64.59375 
L 19.671875 64.59375 
L 19.671875 43.109375 
L 48.578125 43.109375 
L 48.578125 34.8125 
L 19.671875 34.8125 
L 19.671875 0 
L 9.8125 0 
z
" id="DejaVuSans-70"/>
      <path d="M 41.109375 46.296875 
Q 39.59375 47.171875 37.8125 47.578125 
Q 36.03125 48 33.890625 48 
Q 26.265625 48 22.1875 43.046875 
Q 18.109375 38.09375 18.109375 28.8125 
L 18.109375 0 
L 9.078125 0 
L 9.078125 54.6875 
L 18.109375 54.6875 
L 18.109375 46.1875 
Q 20.953125 51.171875 25.484375 53.578125 
Q 30.03125 56 36.53125 56 
Q 37.453125 56 38.578125 55.875 
Q 39.703125 55.765625 41.0625 55.515625 
z
" id="DejaVuSans-114"/>
      <path d="M 48.78125 52.59375 
L 48.78125 44.1875 
Q 44.96875 46.296875 41.140625 47.34375 
Q 37.3125 48.390625 33.40625 48.390625 
Q 24.65625 48.390625 19.8125 42.84375 
Q 14.984375 37.3125 14.984375 27.296875 
Q 14.984375 17.28125 19.8125 11.734375 
Q 24.65625 6.203125 33.40625 6.203125 
Q 37.3125 6.203125 41.140625 7.25 
Q 44.96875 8.296875 48.78125 10.40625 
L 48.78125 2.09375 
Q 45.015625 0.34375 40.984375 -0.53125 
Q 36.96875 -1.421875 32.421875 -1.421875 
Q 20.0625 -1.421875 12.78125 6.34375 
Q 5.515625 14.109375 5.515625 27.296875 
Q 5.515625 40.671875 12.859375 48.328125 
Q 20.21875 56 33.015625 56 
Q 37.15625 56 41.109375 55.140625 
Q 45.0625 54.296875 48.78125 52.59375 
z
" id="DejaVuSans-99"/>
      <path d="M 18.3125 70.21875 
L 18.3125 54.6875 
L 36.8125 54.6875 
L 36.8125 47.703125 
L 18.3125 47.703125 
L 18.3125 18.015625 
Q 18.3125 11.328125 20.140625 9.421875 
Q 21.96875 7.515625 27.59375 7.515625 
L 36.8125 7.515625 
L 36.8125 0 
L 27.59375 0 
Q 17.1875 0 13.234375 3.875 
Q 9.28125 7.765625 9.28125 18.015625 
L 9.28125 47.703125 
L 2.6875 47.703125 
L 2.6875 54.6875 
L 9.28125 54.6875 
L 9.28125 70.21875 
z
" id="DejaVuSans-116"/>
      <path d="M 8.5 21.578125 
L 8.5 54.6875 
L 17.484375 54.6875 
L 17.484375 21.921875 
Q 17.484375 14.15625 20.5 10.265625 
Q 23.53125 6.390625 29.59375 6.390625 
Q 36.859375 6.390625 41.078125 11.03125 
Q 45.3125 15.671875 45.3125 23.6875 
L 45.3125 54.6875 
L 54.296875 54.6875 
L 54.296875 0 
L 45.3125 0 
L 45.3125 8.40625 
Q 42.046875 3.421875 37.71875 1 
Q 33.40625 -1.421875 27.6875 -1.421875 
Q 18.265625 -1.421875 13.375 4.4375 
Q 8.5 10.296875 8.5 21.578125 
z
M 31.109375 56 
z
" id="DejaVuSans-117"/>
      <path d="M 11.71875 12.40625 
L 22.015625 12.40625 
L 22.015625 4 
L 14.015625 -11.625 
L 7.71875 -11.625 
L 11.71875 4 
z
" id="DejaVuSans-44"/>
      <path d="M 18.109375 8.203125 
L 18.109375 -20.796875 
L 9.078125 -20.796875 
L 9.078125 54.6875 
L 18.109375 54.6875 
L 18.109375 46.390625 
Q 20.953125 51.265625 25.265625 53.625 
Q 29.59375 56 35.59375 56 
Q 45.5625 56 51.78125 48.09375 
Q 58.015625 40.1875 58.015625 27.296875 
Q 58.015625 14.40625 51.78125 6.484375 
Q 45.5625 -1.421875 35.59375 -1.421875 
Q 29.59375 -1.421875 25.265625 0.953125 
Q 20.953125 3.328125 18.109375 8.203125 
z
M 48.6875 27.296875 
Q 48.6875 37.203125 44.609375 42.84375 
Q 40.53125 48.484375 33.40625 48.484375 
Q 26.265625 48.484375 22.1875 42.84375 
Q 18.109375 37.203125 18.109375 27.296875 
Q 18.109375 17.390625 22.1875 11.75 
Q 26.265625 6.109375 33.40625 6.109375 
Q 40.53125 6.109375 44.609375 11.75 
Q 48.6875 17.390625 48.6875 27.296875 
z
" id="DejaVuSans-112"/>
     </defs>
     <g transform="translate(17.619531 298.435375)rotate(-90)scale(0.17 -0.17)">
      <use xlink:href="#DejaVuSans-70"/>
      <use x="57.410156" xlink:href="#DejaVuSans-114"/>
      <use x="98.523438" xlink:href="#DejaVuSans-97"/>
      <use x="159.802734" xlink:href="#DejaVuSans-99"/>
      <use x="214.783203" xlink:href="#DejaVuSans-116"/>
      <use x="253.992188" xlink:href="#DejaVuSans-105"/>
      <use x="281.775391" xlink:href="#DejaVuSans-111"/>
      <use x="342.957031" xlink:href="#DejaVuSans-110"/>
      <use x="406.335938" xlink:href="#DejaVuSans-32"/>
      <use x="438.123047" xlink:href="#DejaVuSans-111"/>
      <use x="499.304688" xlink:href="#DejaVuSans-102"/>
      <use x="534.509766" xlink:href="#DejaVuSans-32"/>
      <use x="566.296875" xlink:href="#DejaVuSans-102"/>
      <use x="601.501953" xlink:href="#DejaVuSans-117"/>
      <use x="664.880859" xlink:href="#DejaVuSans-110"/>
      <use x="728.259766" xlink:href="#DejaVuSans-99"/>
      <use x="783.240234" xlink:href="#DejaVuSans-116"/>
      <use x="822.449219" xlink:href="#DejaVuSans-105"/>
      <use x="850.232422" xlink:href="#DejaVuSans-111"/>
      <use x="911.414062" xlink:href="#DejaVuSans-110"/>
      <use x="974.792969" xlink:href="#DejaVuSans-44"/>
      <use x="1006.580078" xlink:href="#DejaVuSans-116"/>
      <use x="1045.789062" xlink:href="#DejaVuSans-97"/>
      <use x="1107.068359" xlink:href="#DejaVuSans-114"/>
      <use x="1148.166016" xlink:href="#DejaVuSans-103"/>
      <use x="1211.642578" xlink:href="#DejaVuSans-101"/>
      <use x="1273.166016" xlink:href="#DejaVuSans-116"/>
      <use x="1312.375" xlink:href="#DejaVuSans-32"/>
      <use x="1344.162109" xlink:href="#DejaVuSans-112"/>
      <use x="1407.638672" xlink:href="#DejaVuSans-97"/>
      <use x="1468.917969" xlink:href="#DejaVuSans-105"/>
      <use x="1496.701172" xlink:href="#DejaVuSans-114"/>
      <use x="1537.814453" xlink:href="#DejaVuSans-115"/>
     </g>
    </g>
   </g>
   <g id="line2d_33">
    <defs>
     <path d="M 0 1.5 
C 0.397805 1.5 0.77937 1.341951 1.06066 1.06066 
C 1.341951 0.77937 1.5 0.397805 1.5 0 
C 1.5 -0.397805 1.341951 -0.77937 1.06066 -1.06066 
C 0.77937 -1.341951 0.397805 -1.5 0 -1.5 
C -0.397805 -1.5 -0.77937 -1.341951 -1.06066 -1.06066 
C -1.341951 -0.77937 -1.5 -0.397805 -1.5 0 
C -1.5 0.397805 -1.341951 0.77937 -1.06066 1.06066 
C -0.77937 1.341951 -0.397805 1.5 0 1.5 
z
" id="mb72095ebb4" style="stroke:#f5deb3;"/>
    </defs>
    <g>
     <use style="fill:#f5deb3;stroke:#f5deb3;" x="106.311539" xlink:href="#mb72095ebb4" y="30.334099"/>
     <use style="fill:#f5deb3;stroke:#f5deb3;" x="106.311539" xlink:href="#mb72095ebb4" y="30.334099"/>
    </g>
   </g>
   <g id="line2d_34">
    <defs>
     <path d="M 0 1.5 
C 0.397805 1.5 0.77937 1.341951 1.06066 1.06066 
C 1.341951 0.77937 1.5 0.397805 1.5 0 
C 1.5 -0.397805 1.341951 -0.77937 1.06066 -1.06066 
C 0.77937 -1.341951 0.397805 -1.5 0 -1.5 
C -0.397805 -1.5 -0.77937 -1.341951 -1.06066 -1.06066 
C -1.341951 -0.77937 -1.5 -0.397805 -1.5 0 
C -1.5 0.397805 -1.341951 0.77937 -1.06066 1.06066 
C -0.77937 1.341951 -0.397805 1.5 0 1.5 
z
" id="maef22f809f" style="stroke:#000080;"/>
    </defs>
    <g>
     <use style="fill:#000080;stroke:#000080;" x="157.697862" xlink:href="#maef22f809f" y="30.334099"/>
     <use style="fill:#000080;stroke:#000080;" x="157.697862" xlink:href="#maef22f809f" y="30.334099"/>
    </g>
   </g>
   <g id="line2d_35">
    <path d="M 119.931767 298.944 
L 119.931767 298.417314 
L 120.41399 298.417314 
L 120.41399 297.890628 
L 121.931406 297.890628 
L 121.931406 297.363942 
L 122.920132 297.363942 
L 122.920132 295.257197 
L 123.985457 295.257197 
L 123.985457 293.150453 
L 124.989434 293.150453 
L 124.989434 292.623767 
L 125.470548 292.623767 
L 125.470548 292.097081 
L 126.3947 292.097081 
L 126.3947 289.990337 
L 127.05703 289.990337 
L 127.05703 289.463651 
L 127.272333 289.463651 
L 127.272333 288.410278 
L 128.807571 288.410278 
L 128.905271 287.356906 
L 131.439773 287.356906 
L 131.523818 285.776848 
L 131.938072 285.776848 
L 131.938072 285.250162 
L 132.181982 285.250162 
L 132.181982 284.723476 
L 132.422528 284.723476 
L 132.422528 284.19679 
L 132.893889 284.19679 
L 132.893889 283.670104 
L 133.04822 283.670104 
L 133.04822 283.143418 
L 133.277185 283.143418 
L 133.277185 282.616732 
L 133.503183 282.616732 
L 133.57787 280.509987 
L 134.091907 280.509987 
L 134.091907 279.983301 
L 134.800918 279.983301 
L 134.800918 277.876557 
L 135.00812 277.876557 
L 135.00812 277.349871 
L 135.348078 277.349871 
L 135.415281 274.189754 
L 135.482227 274.189754 
L 135.482227 273.663068 
L 135.681535 273.663068 
L 135.681535 273.136382 
L 136.519813 273.136382 
L 136.582658 269.976266 
L 137.558536 269.976266 
L 137.558536 269.449579 
L 138.313099 269.449579 
L 138.313099 268.922893 
L 138.706272 268.922893 
L 138.706272 268.396207 
L 138.927025 268.396207 
L 138.981779 266.816149 
L 139.413734 266.816149 
L 139.466984 265.236091 
L 139.625765 265.236091 
L 139.730821 263.656033 
L 140.144829 263.656033 
L 140.246813 259.96923 
L 140.39868 259.96923 
L 140.499195 257.862486 
L 140.698504 257.862486 
L 140.79731 256.282427 
L 141.041904 256.282427 
L 141.138789 254.175683 
L 141.378673 254.175683 
L 141.47371 252.068939 
L 141.568232 252.068939 
L 141.568232 251.542253 
L 141.755753 251.542253 
L 141.755753 250.488881 
L 142.033307 250.488881 
L 142.124852 246.802078 
L 142.486301 246.802078 
L 142.486301 245.748706 
L 142.664255 245.748706 
L 142.752555 242.588589 
L 142.796538 242.588589 
L 142.884173 241.008531 
L 142.927826 241.008531 
L 142.927826 237.321729 
L 143.101352 237.321729 
L 143.144465 235.74167 
L 143.230373 235.74167 
L 143.31586 232.054868 
L 143.358447 232.054868 
L 143.358447 231.528182 
L 143.485587 231.528182 
L 143.485587 231.001496 
L 143.653678 231.001496 
L 143.653678 230.47481 
L 143.861538 230.47481 
L 143.861538 229.421437 
L 143.985075 229.421437 
L 143.985075 226.788007 
L 144.107744 226.788007 
L 144.189046 224.154577 
L 144.310293 224.154577 
L 144.310293 223.627891 
L 144.470655 223.627891 
L 144.550287 218.887716 
L 144.669057 218.887716 
L 144.669057 218.36103 
L 144.826168 218.36103 
L 144.904196 214.147541 
L 144.981877 214.147541 
L 145.059213 210.987425 
L 145.136208 210.987425 
L 145.136208 209.407366 
L 145.251067 209.407366 
L 145.251067 208.88068 
L 145.516164 208.88068 
L 145.553708 206.773936 
L 145.665858 206.773936 
L 145.740226 205.193878 
L 145.777292 205.193878 
L 145.888018 199.400331 
L 145.961446 199.400331 
L 145.998045 198.346959 
L 146.143677 198.346959 
L 146.252108 196.7669 
L 146.324022 196.7669 
L 146.359869 195.186842 
L 146.502522 195.186842 
L 146.573414 194.13347 
L 146.644018 194.13347 
L 146.714338 186.759865 
L 146.784375 186.759865 
L 146.854132 180.966318 
L 147.061745 180.966318 
L 147.164632 178.332888 
L 147.198794 178.332888 
L 147.300877 176.226143 
L 147.402367 176.226143 
L 147.402367 174.646085 
L 147.736463 174.646085 
L 147.835457 170.959282 
L 147.901141 170.959282 
L 147.96658 167.27248 
L 148.129109 167.27248 
L 148.225905 164.112363 
L 148.258051 164.112363 
L 148.354135 161.478933 
L 148.386046 161.478933 
L 148.417899 158.845503 
L 148.513109 158.845503 
L 148.607802 156.212072 
L 148.670646 156.212072 
L 148.733265 154.105328 
L 148.79566 154.105328 
L 148.888835 148.311781 
L 148.950676 148.311781 
L 149.043029 146.205037 
L 149.104327 146.205037 
L 149.195872 143.571606 
L 149.226281 143.571606 
L 149.31719 139.884804 
L 149.377533 139.884804 
L 149.437669 137.251373 
L 149.616841 137.251373 
L 149.646525 135.144629 
L 149.735275 135.144629 
L 149.823575 131.457826 
L 149.911431 131.457826 
L 149.998846 127.771024 
L 150.027887 127.771024 
L 150.085825 125.66428 
L 150.143571 125.66428 
L 150.172372 124.610907 
L 150.287105 124.610907 
L 150.372662 119.870733 
L 150.486088 119.870733 
L 150.542526 117.237302 
L 150.654857 117.237302 
L 150.738632 115.130558 
L 150.766468 115.130558 
L 150.766468 114.603872 
L 150.960087 114.603872 
L 151.069768 107.230267 
L 151.097081 107.230267 
L 151.205907 104.596836 
L 151.287083 104.596836 
L 151.394733 102.490092 
L 151.421542 102.490092 
L 151.501723 100.383348 
L 151.581536 100.383348 
L 151.68739 94.063115 
L 151.713753 94.063115 
L 151.76636 89.849626 
L 151.844975 89.849626 
L 151.949246 86.162824 
L 152.130233 86.162824 
L 152.232818 81.949335 
L 152.283884 81.949335 
L 152.385571 78.789218 
L 152.410901 78.789218 
L 152.511852 75.629102 
L 152.562109 75.629102 
L 152.637225 72.995672 
L 152.687123 72.995672 
L 152.786492 68.255497 
L 152.860649 68.255497 
L 152.959038 64.042008 
L 152.983548 64.042008 
L 153.056874 59.301833 
L 153.105587 59.301833 
L 153.202607 56.141717 
L 153.250915 56.141717 
L 153.347132 52.9816 
L 153.418948 52.9816 
L 153.418948 51.401542 
L 153.537988 51.401542 
L 153.609024 48.241426 
L 153.656221 48.241426 
L 153.750233 45.607995 
L 153.79705 45.607995 
L 153.79705 45.081309 
L 153.913546 45.081309 
L 153.913546 44.554623 
L 154.303908 44.554623 
L 154.371897 43.501251 
L 154.484627 43.501251 
L 154.551917 41.394507 
L 154.707925 41.394507 
L 154.707925 40.867821 
L 154.862549 40.867821 
L 154.862549 40.341135 
L 155.189341 40.341135 
L 155.189341 39.814448 
L 155.446436 39.814448 
L 155.446436 39.287762 
L 155.678822 39.287762 
L 155.678822 38.23439 
L 155.845906 38.23439 
L 155.949527 34.547588 
L 156.114049 34.547588 
L 156.114049 34.020902 
L 156.776762 34.020902 
L 156.776762 32.440843 
L 157.697862 32.440843 
L 157.697862 30.334099 
L 338.688 30.334099 
L 338.688 30.334099 
" style="fill:none;stroke:#000080;stroke-linecap:square;stroke-width:1.5;"/>
   </g>
   <g id="line2d_36">
    <defs>
     <path d="M 0 6 
C 1.591219 6 3.117479 5.367802 4.242641 4.242641 
C 5.367802 3.117479 6 1.591219 6 0 
C 6 -1.591219 5.367802 -3.117479 4.242641 -4.242641 
C 3.117479 -5.367802 1.591219 -6 0 -6 
C -1.591219 -6 -3.117479 -5.367802 -4.242641 -4.242641 
C -5.367802 -3.117479 -6 -1.591219 -6 0 
C -6 1.591219 -5.367802 3.117479 -4.242641 4.242641 
C -3.117479 5.367802 -1.591219 6 0 6 
z
" id="mb01606bac4" style="stroke:#000080;stroke-width:1.5;"/>
    </defs>
    <g>
     <use style="fill-opacity:0;stroke:#000080;stroke-width:1.5;" x="150.027887" xlink:href="#mb01606bac4" y="127.244338"/>
     <use style="fill-opacity:0;stroke:#000080;stroke-width:1.5;" x="157.697862" xlink:href="#mb01606bac4" y="32.440843"/>
     <use style="fill-opacity:0;stroke:#000080;stroke-width:1.5;" x="157.697862" xlink:href="#mb01606bac4" y="30.334099"/>
     <use style="fill-opacity:0;stroke:#000080;stroke-width:1.5;" x="157.697862" xlink:href="#mb01606bac4" y="30.334099"/>
     <use style="fill-opacity:0;stroke:#000080;stroke-width:1.5;" x="338.688" xlink:href="#mb01606bac4" y="30.334099"/>
    </g>
   </g>
   <g id="line2d_37">
    <path style="fill:none;stroke:#000080;stroke-linecap:square;stroke-width:1.5;"/>
    <g/>
   </g>
   <g id="line2d_38">
    <g>
     <use style="fill:#000080;stroke:#000080;" x="156.558644" xlink:href="#maef22f809f" y="30.334099"/>
     <use style="fill:#000080;stroke:#000080;" x="156.558644" xlink:href="#maef22f809f" y="30.334099"/>
    </g>
   </g>
   <g id="line2d_39">
    <path d="M 101.412804 298.944 
L 101.412804 298.417314 
L 119.768017 298.417314 
L 119.768017 297.890628 
L 120.571812 297.890628 
L 120.571812 297.363942 
L 122.362027 297.363942 
L 122.362027 296.837256 
L 123.056911 296.837256 
L 123.056911 296.31057 
L 123.593547 296.31057 
L 123.593547 295.783884 
L 126.281824 295.783884 
L 126.281824 295.257197 
L 126.3947 295.257197 
L 126.3947 293.677139 
L 126.948374 293.677139 
L 126.948374 293.150453 
L 127.165014 293.150453 
L 127.165014 292.097081 
L 127.799239 292.097081 
L 127.902737 289.990337 
L 128.209594 289.990337 
L 128.209594 289.463651 
L 128.411207 289.463651 
L 128.411207 288.936964 
L 128.905271 288.936964 
L 129.002426 287.356906 
L 129.099042 287.356906 
L 129.099042 286.83022 
L 129.290685 286.83022 
L 129.385722 284.19679 
L 129.480244 284.19679 
L 129.480244 283.670104 
L 129.667765 283.670104 
L 129.667765 283.143418 
L 130.127931 283.143418 
L 130.127931 282.616732 
L 130.839837 282.616732 
L 130.839837 280.509987 
L 131.185181 280.509987 
L 131.185181 278.403243 
L 131.439773 278.403243 
L 131.439773 277.876557 
L 131.60746 277.876557 
L 131.690703 276.296499 
L 132.101058 276.296499 
L 132.181982 272.609696 
L 132.422528 272.609696 
L 132.422528 271.029638 
L 132.581068 271.029638 
L 132.581068 270.502952 
L 132.971225 270.502952 
L 133.04822 269.449579 
L 133.124876 269.449579 
L 133.124876 268.396207 
L 133.352844 268.396207 
L 133.352844 266.816149 
L 133.72629 266.816149 
L 133.72629 265.236091 
L 134.019394 265.236091 
L 134.019394 264.709405 
L 134.307653 264.709405 
L 134.37898 263.656033 
L 134.520763 263.656033 
L 134.591225 262.60266 
L 134.800918 262.60266 
L 134.800918 262.075974 
L 135.415281 262.075974 
L 135.415281 261.549288 
L 136.008736 261.549288 
L 136.008736 261.022602 
L 136.456742 261.022602 
L 136.456742 258.915858 
L 137.077422 258.915858 
L 137.077422 257.862486 
L 137.198951 257.862486 
L 137.198951 257.3358 
L 137.319638 257.3358 
L 137.37967 255.229055 
L 137.617753 255.229055 
L 137.617753 253.122311 
L 137.735587 253.122311 
L 137.735587 252.595625 
L 138.141844 252.595625 
L 138.199116 250.488881 
L 138.256201 250.488881 
L 138.256201 249.962195 
L 138.426341 249.962195 
L 138.426341 249.435508 
L 138.761723 249.435508 
L 138.761723 248.908822 
L 139.036363 248.908822 
L 139.036363 247.85545 
L 139.360321 247.85545 
L 139.413734 246.802078 
L 139.678372 246.802078 
L 139.678372 246.275392 
L 139.835248 246.275392 
L 139.887228 245.22202 
L 140.093612 245.22202 
L 140.093612 244.695334 
L 140.297583 244.695334 
L 140.39868 242.061903 
L 140.499195 242.061903 
L 140.499195 241.535217 
L 140.698504 241.535217 
L 140.698504 241.008531 
L 141.041904 241.008531 
L 141.090414 238.901787 
L 141.33096 238.901787 
L 141.378673 236.795043 
L 141.709062 236.795043 
L 141.755753 235.214984 
L 141.941279 235.214984 
L 142.033307 233.10824 
L 142.124852 233.10824 
L 142.170445 232.054868 
L 142.261275 232.054868 
L 142.261275 228.894751 
L 142.441528 228.894751 
L 142.53096 223.627891 
L 142.619936 223.627891 
L 142.708461 219.941088 
L 142.796538 219.941088 
L 142.796538 219.414402 
L 142.927826 219.414402 
L 143.014805 217.834344 
L 143.058132 217.834344 
L 143.144465 214.674227 
L 143.40093 214.674227 
L 143.40093 214.147541 
L 143.527762 214.147541 
L 143.611807 213.094169 
L 143.653678 213.094169 
L 143.653678 210.987425 
L 143.861538 210.987425 
L 143.943994 207.827308 
L 143.985075 207.827308 
L 144.06695 205.720564 
L 144.148442 205.720564 
L 144.148442 204.140506 
L 144.310293 204.140506 
L 144.390658 203.087133 
L 144.430703 203.087133 
L 144.510517 199.400331 
L 144.589967 199.400331 
L 144.629556 195.186842 
L 144.708467 195.186842 
L 144.787023 190.973354 
L 144.865226 190.973354 
L 144.865226 189.919981 
L 144.981877 189.919981 
L 145.020588 188.866609 
L 145.365173 188.866609 
L 145.365173 188.339923 
L 145.478539 188.339923 
L 145.553708 182.546376 
L 145.665858 182.546376 
L 145.665858 182.01969 
L 145.777292 182.01969 
L 145.888018 179.38626 
L 146.034567 179.38626 
L 146.071013 177.279515 
L 146.252108 177.279515 
L 146.288102 173.066027 
L 146.431341 173.066027 
L 146.538004 170.959282 
L 146.644018 170.959282 
L 146.679213 168.325852 
L 146.784375 168.325852 
L 146.819289 167.27248 
L 146.958248 167.27248 
L 146.958248 165.165736 
L 147.164632 165.165736 
L 147.266916 162.005619 
L 147.300877 162.005619 
L 147.368603 160.952247 
L 147.436066 160.952247 
L 147.536775 158.318817 
L 147.570215 158.318817 
L 147.670154 153.578642 
L 147.70334 153.578642 
L 147.769524 151.471897 
L 147.835457 151.471897 
L 147.933891 148.838467 
L 147.96658 148.838467 
L 148.031773 145.678351 
L 148.129109 145.678351 
L 148.161434 141.991548 
L 148.290138 141.991548 
L 148.386046 138.831432 
L 148.417899 138.831432 
L 148.513109 134.617943 
L 148.607802 134.617943 
L 148.701984 131.984513 
L 148.733265 131.984513 
L 148.733265 130.404454 
L 148.919783 130.404454 
L 148.919783 129.351082 
L 149.043029 129.351082 
L 149.104327 127.771024 
L 149.226281 127.771024 
L 149.31719 125.66428 
L 149.347388 125.66428 
L 149.437669 120.924105 
L 149.527485 120.924105 
L 149.616841 115.657244 
L 149.646525 115.657244 
L 149.646525 114.077186 
L 149.764758 114.077186 
L 149.764758 113.5505 
L 149.940618 113.5505 
L 149.940618 111.970441 
L 150.114722 111.970441 
L 150.172372 110.917069 
L 150.344189 110.917069 
L 150.372662 109.863697 
L 150.457801 109.863697 
L 150.51433 107.230267 
L 150.570677 107.230267 
L 150.654857 105.123522 
L 150.738632 105.123522 
L 150.79426 102.490092 
L 150.87737 102.490092 
L 150.960087 97.749917 
L 151.097081 97.749917 
L 151.205907 94.063115 
L 151.260066 94.063115 
L 151.367883 88.796254 
L 151.394733 88.796254 
L 151.475037 87.216196 
L 151.528368 87.216196 
L 151.581536 84.582765 
L 151.660987 84.582765 
L 151.76636 81.422649 
L 151.844975 81.422649 
L 151.949246 76.682474 
L 152.130233 76.682474 
L 152.207228 74.57573 
L 152.334802 74.57573 
L 152.436193 71.942299 
L 152.461449 71.942299 
L 152.562109 66.148752 
L 152.587184 66.148752 
L 152.612222 65.09538 
L 152.786492 65.09538 
L 152.885298 62.988636 
L 152.909913 62.988636 
L 152.983548 60.355206 
L 153.081247 60.355206 
L 153.178403 54.561659 
L 153.202607 54.561659 
L 153.202607 52.9816 
L 153.323128 52.9816 
L 153.418948 50.874856 
L 153.466662 50.874856 
L 153.537988 47.188054 
L 153.632638 47.188054 
L 153.632638 45.607995 
L 153.913546 45.607995 
L 154.006185 42.974565 
L 154.098334 42.974565 
L 154.167129 40.867821 
L 154.235652 40.867821 
L 154.326601 39.287762 
L 154.349264 39.287762 
L 154.417077 37.707704 
L 154.507086 37.707704 
L 154.507086 36.127646 
L 154.928399 36.127646 
L 154.972161 35.074274 
L 155.296925 35.074274 
L 155.296925 34.547588 
L 155.6368 34.547588 
L 155.720743 32.440843 
L 156.195732 32.440843 
L 156.216093 31.387471 
L 156.558644 31.387471 
L 156.558644 30.334099 
L 338.688 30.334099 
L 338.688 30.334099 
" style="fill:none;stroke:#000080;stroke-linecap:square;stroke-width:1.5;"/>
   </g>
   <g id="line2d_40">
    <g>
     <use style="fill-opacity:0;stroke:#000080;stroke-width:1.5;" x="145.020588" xlink:href="#mb01606bac4" y="188.866609"/>
     <use style="fill-opacity:0;stroke:#000080;stroke-width:1.5;" x="156.558644" xlink:href="#mb01606bac4" y="31.387471"/>
     <use style="fill-opacity:0;stroke:#000080;stroke-width:1.5;" x="156.558644" xlink:href="#mb01606bac4" y="30.334099"/>
     <use style="fill-opacity:0;stroke:#000080;stroke-width:1.5;" x="156.558644" xlink:href="#mb01606bac4" y="30.334099"/>
     <use style="fill-opacity:0;stroke:#000080;stroke-width:1.5;" x="338.688" xlink:href="#mb01606bac4" y="30.334099"/>
    </g>
   </g>
   <g id="line2d_41">
    <path style="fill:none;stroke:#000080;stroke-linecap:square;stroke-width:1.5;"/>
    <g/>
   </g>
   <g id="line2d_42">
    <defs>
     <path d="M 0 1.5 
C 0.397805 1.5 0.77937 1.341951 1.06066 1.06066 
C 1.341951 0.77937 1.5 0.397805 1.5 0 
C 1.5 -0.397805 1.341951 -0.77937 1.06066 -1.06066 
C 0.77937 -1.341951 0.397805 -1.5 0 -1.5 
C -0.397805 -1.5 -0.77937 -1.341951 -1.06066 -1.06066 
C -1.341951 -0.77937 -1.5 -0.397805 -1.5 0 
C -1.5 0.397805 -1.341951 0.77937 -1.06066 1.06066 
C -0.77937 1.341951 -0.397805 1.5 0 1.5 
z
" id="md9af538d0a" style="stroke:#ff00ff;"/>
    </defs>
    <g>
     <use style="fill:#ff00ff;stroke:#ff00ff;" x="160.410154" xlink:href="#md9af538d0a" y="30.334099"/>
     <use style="fill:#ff00ff;stroke:#ff00ff;" x="160.410154" xlink:href="#md9af538d0a" y="30.334099"/>
    </g>
   </g>
   <g id="line2d_43">
    <path d="M 119.097192 298.944 
L 119.097192 297.363942 
L 125.706218 297.363942 
L 125.706218 296.31057 
L 127.695124 296.31057 
L 127.695124 294.203825 
L 130.30865 294.203825 
L 130.30865 293.677139 
L 130.664567 293.677139 
L 130.664567 292.623767 
L 131.270459 292.623767 
L 131.270459 291.043709 
L 131.938072 291.043709 
L 131.938072 290.517023 
L 132.262533 290.517023 
L 132.262533 289.463651 
L 132.659801 289.463651 
L 132.659801 287.356906 
L 133.503183 287.356906 
L 133.503183 286.303534 
L 133.652238 286.303534 
L 133.652238 284.723476 
L 133.873458 284.723476 
L 133.873458 284.19679 
L 134.091907 284.19679 
L 134.091907 283.670104 
L 134.37898 283.670104 
L 134.37898 282.616732 
L 135.348078 282.616732 
L 135.348078 282.090045 
L 135.747468 282.090045 
L 135.813153 279.456615 
L 135.943785 279.456615 
L 136.008736 276.823185 
L 136.137916 276.823185 
L 136.137916 276.296499 
L 136.32991 276.296499 
L 136.393441 275.243126 
L 136.456742 275.243126 
L 136.456742 274.189754 
L 137.138292 274.189754 
L 137.138292 273.136382 
L 137.319638 273.136382 
L 137.319638 272.609696 
L 137.558536 272.609696 
L 137.558536 271.556324 
L 137.735587 271.556324 
L 137.735587 271.029638 
L 138.026733 271.029638 
L 138.026733 270.502952 
L 138.141844 270.502952 
L 138.199116 268.396207 
L 138.256201 268.396207 
L 138.256201 267.869521 
L 139.090775 267.869521 
L 139.145019 265.236091 
L 139.413734 265.236091 
L 139.413734 264.182719 
L 139.730821 264.182719 
L 139.730821 262.075974 
L 140.042245 262.075974 
L 140.144829 261.022602 
L 140.549236 261.022602 
L 140.549236 259.442544 
L 140.89556 259.442544 
L 140.89556 258.389172 
L 141.041904 258.389172 
L 141.138789 257.3358 
L 141.426256 257.3358 
L 141.426256 255.755741 
L 141.755753 255.755741 
L 141.80232 254.702369 
L 141.987354 254.702369 
L 141.987354 254.175683 
L 142.124852 254.175683 
L 142.124852 253.122311 
L 142.486301 253.122311 
L 142.486301 252.068939 
L 142.619936 252.068939 
L 142.708461 251.015567 
L 142.796538 251.015567 
L 142.884173 249.962195 
L 143.187472 249.962195 
L 143.273169 247.328764 
L 143.31586 247.328764 
L 143.31586 246.802078 
L 143.569835 246.802078 
L 143.569835 243.641962 
L 144.026061 243.641962 
L 144.06695 241.008531 
L 144.390658 241.008531 
L 144.390658 239.955159 
L 144.550287 239.955159 
L 144.589967 238.901787 
L 144.787023 238.901787 
L 144.787023 238.375101 
L 144.904196 238.375101 
L 144.981877 236.268356 
L 145.059213 236.268356 
L 145.059213 235.74167 
L 145.440832 235.74167 
L 145.516164 233.10824 
L 145.591172 233.10824 
L 145.591172 232.581554 
L 145.703082 232.581554 
L 145.703082 232.054868 
L 145.814278 232.054868 
L 145.888018 229.421437 
L 146.107383 229.421437 
L 146.107383 227.841379 
L 146.502522 227.841379 
L 146.608752 225.734635 
L 146.784375 225.734635 
L 146.784375 225.207949 
L 147.061745 225.207949 
L 147.164632 223.627891 
L 147.300877 223.627891 
L 147.402367 220.99446 
L 147.436066 220.99446 
L 147.536775 218.36103 
L 147.603592 218.36103 
L 147.603592 217.834344 
L 147.835457 217.834344 
L 147.933891 214.674227 
L 147.96658 214.674227 
L 147.96658 212.567483 
L 148.129109 212.567483 
L 148.129109 212.040797 
L 148.258051 212.040797 
L 148.354135 209.934052 
L 148.48143 209.934052 
L 148.54473 208.88068 
L 148.670646 208.88068 
L 148.701984 206.773936 
L 148.857832 206.773936 
L 148.857832 205.193878 
L 148.981515 205.193878 
L 149.012299 204.140506 
L 149.104327 204.140506 
L 149.104327 203.613819 
L 149.256637 203.613819 
L 149.286939 200.980389 
L 149.377533 200.980389 
L 149.377533 199.927017 
L 149.527485 199.927017 
L 149.616841 198.873645 
L 149.705742 198.873645 
L 149.735275 197.293586 
L 149.911431 197.293586 
L 149.998846 192.553412 
L 150.05688 192.553412 
L 150.143571 187.286551 
L 150.172372 187.286551 
L 150.258492 185.179807 
L 150.344189 185.179807 
L 150.401087 182.546376 
L 150.486088 182.546376 
L 150.486088 182.01969 
L 150.626842 182.01969 
L 150.710752 176.226143 
L 150.79426 176.226143 
L 150.79426 173.592713 
L 151.124351 173.592713 
L 151.233007 172.539341 
L 151.287083 172.539341 
L 151.367883 168.852538 
L 151.475037 168.852538 
L 151.554972 167.799166 
L 151.660987 167.799166 
L 151.713753 161.478933 
L 151.871101 161.478933 
L 151.975216 158.318817 
L 152.001148 158.318817 
L 152.078714 155.685386 
L 152.232818 155.685386 
L 152.25837 153.578642 
L 152.385571 153.578642 
L 152.486669 149.891839 
L 152.536999 149.891839 
L 152.612222 146.205037 
L 152.662192 146.205037 
L 152.736878 145.151665 
L 152.786492 145.151665 
L 152.835965 140.938176 
L 152.909913 140.938176 
L 153.008024 139.358118 
L 153.032466 139.358118 
L 153.081247 138.304745 
L 153.178403 138.304745 
L 153.250915 136.198001 
L 153.323128 136.198001 
L 153.395042 129.877768 
L 153.49047 129.877768 
L 153.49047 127.771024 
L 153.632638 127.771024 
L 153.703291 126.190966 
L 153.750233 126.190966 
L 153.843742 123.030849 
L 153.890309 123.030849 
L 153.959927 118.817361 
L 154.121296 118.817361 
L 154.144227 117.763988 
L 154.303908 117.763988 
L 154.371897 116.18393 
L 154.417077 116.18393 
L 154.417077 115.657244 
L 154.57429 115.657244 
L 154.618949 112.497128 
L 154.685723 112.497128 
L 154.752243 107.230267 
L 154.884527 107.230267 
L 154.994001 104.596836 
L 155.081089 104.596836 
L 155.189341 101.963406 
L 155.232454 101.963406 
L 155.318362 99.329976 
L 155.382516 99.329976 
L 155.488919 97.223231 
L 155.510121 97.223231 
L 155.594676 94.589801 
L 155.6368 94.589801 
L 155.6368 93.536429 
L 155.783437 93.536429 
L 155.845906 91.95637 
L 155.928852 91.95637 
L 155.928852 88.796254 
L 156.093569 88.796254 
L 156.195732 85.109451 
L 156.256744 85.109451 
L 156.357959 82.476021 
L 156.378132 82.476021 
L 156.378132 81.422649 
L 156.658127 81.422649 
L 156.737306 77.735846 
L 156.816128 77.735846 
L 156.894595 76.682474 
L 156.933697 76.682474 
L 157.031069 71.942299 
L 157.069866 71.942299 
L 157.166482 67.728811 
L 157.224197 67.728811 
L 157.319964 59.82852 
L 157.339055 59.82852 
L 157.339055 58.775147 
L 157.509937 58.775147 
L 157.58535 57.195089 
L 157.697862 57.195089 
L 157.79107 54.561659 
L 157.828215 54.561659 
L 157.86528 51.928228 
L 157.976006 51.928228 
L 158.086033 47.71474 
L 158.195371 47.71474 
L 158.213527 46.134681 
L 158.340096 46.134681 
L 158.447857 44.554623 
L 158.501489 44.554623 
L 158.608261 41.394507 
L 158.643706 41.394507 
L 158.749613 39.287762 
L 158.889829 39.287762 
L 158.924708 37.181018 
L 159.098062 37.181018 
L 159.098062 36.654332 
L 159.303838 36.654332 
L 159.405822 35.074274 
L 159.574482 35.074274 
L 159.574482 34.547588 
L 159.923445 34.547588 
L 159.972732 32.967529 
L 160.070889 32.967529 
L 160.119762 30.860785 
L 160.410154 30.860785 
L 160.410154 30.334099 
L 338.688 30.334099 
L 338.688 30.334099 
" style="fill:none;stroke:#ff00ff;stroke-linecap:square;stroke-width:1.5;"/>
   </g>
   <g id="line2d_44">
    <defs>
     <path d="M -0 8.485281 
L 5.091169 0 
L 0 -8.485281 
L -5.091169 -0 
z
" id="mcf530b6bd4" style="stroke:#ff00ff;stroke-linejoin:miter;stroke-width:1.5;"/>
    </defs>
    <g>
     <use style="fill-opacity:0;stroke:#ff00ff;stroke-linejoin:miter;stroke-width:1.5;" x="158.749613" xlink:href="#mcf530b6bd4" y="39.287762"/>
     <use style="fill-opacity:0;stroke:#ff00ff;stroke-linejoin:miter;stroke-width:1.5;" x="160.410154" xlink:href="#mcf530b6bd4" y="30.860785"/>
     <use style="fill-opacity:0;stroke:#ff00ff;stroke-linejoin:miter;stroke-width:1.5;" x="160.410154" xlink:href="#mcf530b6bd4" y="30.334099"/>
     <use style="fill-opacity:0;stroke:#ff00ff;stroke-linejoin:miter;stroke-width:1.5;" x="160.410154" xlink:href="#mcf530b6bd4" y="30.334099"/>
     <use style="fill-opacity:0;stroke:#ff00ff;stroke-linejoin:miter;stroke-width:1.5;" x="338.688" xlink:href="#mcf530b6bd4" y="30.334099"/>
    </g>
   </g>
   <g id="line2d_45">
    <path style="fill:none;stroke:#ff00ff;stroke-linecap:square;stroke-width:1.5;"/>
    <g/>
   </g>
   <g id="line2d_46">
    <defs>
     <path d="M 0 1.5 
C 0.397805 1.5 0.77937 1.341951 1.06066 1.06066 
C 1.341951 0.77937 1.5 0.397805 1.5 0 
C 1.5 -0.397805 1.341951 -0.77937 1.06066 -1.06066 
C 0.77937 -1.341951 0.397805 -1.5 0 -1.5 
C -0.397805 -1.5 -0.77937 -1.341951 -1.06066 -1.06066 
C -1.341951 -0.77937 -1.5 -0.397805 -1.5 0 
C -1.5 0.397805 -1.341951 0.77937 -1.06066 1.06066 
C -0.77937 1.341951 -0.397805 1.5 0 1.5 
z
" id="mcc8056612e" style="stroke:#ff0000;"/>
    </defs>
    <g>
     <use style="fill:#ff0000;stroke:#ff0000;" x="158.086033" xlink:href="#mcc8056612e" y="30.334099"/>
     <use style="fill:#ff0000;stroke:#ff0000;" x="158.086033" xlink:href="#mcc8056612e" y="30.334099"/>
    </g>
   </g>
   <g id="line2d_47">
    <path d="M 120.254726 298.944 
L 120.254726 298.417314 
L 123.056911 298.417314 
L 123.056911 297.363942 
L 124.989434 297.363942 
L 124.989434 296.31057 
L 125.822869 296.31057 
L 125.822869 295.257197 
L 126.281824 295.257197 
L 126.281824 292.623767 
L 126.50685 292.623767 
L 126.50685 292.097081 
L 127.165014 292.097081 
L 127.165014 291.570395 
L 128.005624 291.570395 
L 128.005624 291.043709 
L 128.709321 291.043709 
L 128.709321 288.936964 
L 128.905271 288.936964 
L 128.905271 287.356906 
L 129.195127 287.356906 
L 129.195127 286.83022 
L 129.667765 286.83022 
L 129.667765 286.303534 
L 129.945319 286.303534 
L 129.945319 285.776848 
L 130.576266 285.776848 
L 130.664567 284.723476 
L 131.013364 284.723476 
L 131.013364 284.19679 
L 131.270459 284.19679 
L 131.270459 283.670104 
L 131.690703 283.670104 
L 131.690703 282.090045 
L 131.856005 282.090045 
L 131.938072 279.983301 
L 132.019755 279.983301 
L 132.019755 279.456615 
L 132.501978 279.456615 
L 132.501978 278.929929 
L 132.659801 278.929929 
L 132.659801 278.403243 
L 132.893889 278.403243 
L 132.893889 277.349871 
L 133.124876 277.349871 
L 133.124876 276.296499 
L 133.277185 276.296499 
L 133.277185 275.769812 
L 133.428175 275.769812 
L 133.503183 273.136382 
L 133.57787 273.136382 
L 133.652238 272.08301 
L 133.72629 272.08301 
L 133.72629 271.556324 
L 134.520763 271.556324 
L 134.520763 269.976266 
L 134.870259 269.976266 
L 134.870259 268.396207 
L 135.00812 268.396207 
L 135.00812 267.869521 
L 135.548916 267.869521 
L 135.548916 267.342835 
L 135.878591 267.342835 
L 135.878591 266.816149 
L 136.073445 266.816149 
L 136.137916 265.236091 
L 136.707671 265.236091 
L 136.769843 264.182719 
L 136.831795 264.182719 
L 136.831795 263.656033 
L 136.955041 263.656033 
L 136.955041 263.129347 
L 137.439497 263.129347 
L 137.439497 262.60266 
L 137.852629 262.60266 
L 137.852629 262.075974 
L 138.313099 262.075974 
L 138.313099 261.549288 
L 138.538853 261.549288 
L 138.594838 259.96923 
L 138.816998 259.96923 
L 138.816998 259.442544 
L 138.981779 259.442544 
L 139.036363 258.389172 
L 139.413734 258.389172 
L 139.466984 255.229055 
L 139.572998 255.229055 
L 139.572998 254.702369 
L 139.730821 254.702369 
L 139.783113 253.122311 
L 140.144829 253.122311 
L 140.144829 252.595625 
L 140.297583 252.595625 
L 140.39868 248.908822 
L 140.599134 248.908822 
L 140.599134 248.382136 
L 140.944478 248.382136 
L 140.944478 246.802078 
L 141.235139 246.802078 
L 141.235139 246.275392 
L 141.426256 246.275392 
L 141.521035 244.168648 
L 141.662245 244.168648 
L 141.662245 243.115275 
L 141.941279 243.115275 
L 142.033307 240.481845 
L 142.124852 240.481845 
L 142.215919 239.428473 
L 142.351634 239.428473 
L 142.441528 237.848415 
L 142.486301 237.848415 
L 142.486301 236.268356 
L 142.664255 236.268356 
L 142.752555 234.688298 
L 142.796538 234.688298 
L 142.840411 233.10824 
L 142.971369 233.10824 
L 143.058132 231.528182 
L 143.187472 231.528182 
L 143.273169 229.421437 
L 143.358447 229.421437 
L 143.358447 228.894751 
L 143.485587 228.894751 
L 143.569835 226.788007 
L 143.611807 226.788007 
L 143.611807 226.261321 
L 143.737119 226.261321 
L 143.737119 225.734635 
L 143.902815 225.734635 
L 143.985075 223.627891 
L 144.026061 223.627891 
L 144.026061 223.101204 
L 144.148442 223.101204 
L 144.148442 221.521146 
L 144.350522 221.521146 
L 144.430703 218.36103 
L 144.550287 218.36103 
L 144.629556 215.727599 
L 144.865226 215.727599 
L 144.94308 214.147541 
L 144.981877 214.147541 
L 145.020588 212.567483 
L 145.097753 212.567483 
L 145.136208 211.514111 
L 145.212864 211.514111 
L 145.289185 209.407366 
L 145.327221 209.407366 
L 145.403044 208.353994 
L 145.440832 208.353994 
L 145.478539 205.720564 
L 145.553708 205.720564 
L 145.628555 198.873645 
L 145.665858 198.873645 
L 145.665858 198.346959 
L 145.814278 198.346959 
L 145.924771 193.606784 
L 145.961446 193.606784 
L 145.961446 192.026726 
L 146.107383 192.026726 
L 146.179895 190.973354 
L 146.252108 190.973354 
L 146.288102 188.866609 
L 146.431341 188.866609 
L 146.538004 187.286551 
L 146.573414 187.286551 
L 146.573414 186.759865 
L 146.749392 186.759865 
L 146.819289 184.653121 
L 146.888907 184.653121 
L 146.923612 182.546376 
L 147.061745 182.546376 
L 147.130404 179.912946 
L 147.300877 179.912946 
L 147.300877 178.859574 
L 147.50327 178.859574 
L 147.570215 176.752829 
L 147.636905 176.752829 
L 147.70334 172.012655 
L 147.901141 172.012655 
L 147.999207 166.219108 
L 148.031773 166.219108 
L 148.064279 164.112363 
L 148.193699 164.112363 
L 148.193699 163.058991 
L 148.417899 163.058991 
L 148.449693 160.425561 
L 148.54473 160.425561 
L 148.639252 157.79213 
L 148.670646 157.79213 
L 148.733265 154.632014 
L 148.857832 154.632014 
L 148.950676 151.998584 
L 148.981515 151.998584 
L 149.073705 149.365153 
L 149.134896 149.365153 
L 149.195872 143.571606 
L 149.31719 143.571606 
L 149.31719 142.518234 
L 149.497598 142.518234 
L 149.587107 140.938176 
L 149.616841 140.938176 
L 149.616841 139.884804 
L 149.735275 139.884804 
L 149.764758 137.778059 
L 149.852909 137.778059 
L 149.911431 135.671315 
L 149.998846 135.671315 
L 149.998846 134.617943 
L 150.114722 134.617943 
L 150.201126 128.824396 
L 150.229833 128.824396 
L 150.31567 127.244338 
L 150.344189 127.244338 
L 150.429467 125.137593 
L 150.570677 125.137593 
L 150.598782 123.557535 
L 150.682827 123.557535 
L 150.738632 121.450791 
L 150.79426 121.450791 
L 150.79426 119.870733 
L 150.932558 119.870733 
L 151.042412 115.130558 
L 151.069768 115.130558 
L 151.178764 113.5505 
L 151.205907 113.5505 
L 151.287083 112.497128 
L 151.340991 112.497128 
L 151.44831 108.810325 
L 151.475037 108.810325 
L 151.581536 104.596836 
L 151.60806 104.596836 
L 151.713753 100.383348 
L 151.740076 100.383348 
L 151.844975 95.643173 
L 151.897188 95.643173 
L 152.001148 93.009743 
L 152.052897 93.009743 
L 152.155936 88.269568 
L 152.207228 88.269568 
L 152.283884 86.162824 
L 152.360205 86.162824 
L 152.436193 83.002707 
L 152.486669 83.002707 
L 152.486669 81.422649 
L 152.612222 81.422649 
L 152.687123 79.842591 
L 152.736878 79.842591 
L 152.811246 77.735846 
L 152.860649 77.735846 
L 152.934492 74.049044 
L 153.081247 74.049044 
L 153.178403 71.415613 
L 153.275019 71.415613 
L 153.347132 69.308869 
L 153.418948 69.308869 
L 153.514245 64.568694 
L 153.561699 64.568694 
L 153.656221 58.775147 
L 153.679772 58.775147 
L 153.773658 55.088345 
L 153.820412 55.088345 
L 153.890309 52.454914 
L 153.936752 52.454914 
L 154.006185 51.401542 
L 154.05232 51.401542 
L 154.144227 49.294798 
L 154.258434 49.294798 
L 154.349264 46.661368 
L 154.394502 46.661368 
L 154.417077 45.081309 
L 154.551917 45.081309 
L 154.596634 42.447879 
L 154.796449 42.447879 
L 154.840544 41.394507 
L 154.950294 41.394507 
L 154.950294 40.341135 
L 155.12447 40.341135 
L 155.232454 38.23439 
L 155.339773 38.23439 
L 155.382516 37.181018 
L 155.46769 37.181018 
L 155.510121 34.547588 
L 156.031982 34.547588 
L 156.031982 34.020902 
L 156.195732 34.020902 
L 156.195732 33.494215 
L 157.089232 33.494215 
L 157.1279 32.440843 
L 158.031107 32.440843 
L 158.086033 30.334099 
L 338.688 30.334099 
L 338.688 30.334099 
" style="fill:none;stroke:#ff0000;stroke-linecap:square;stroke-width:1.5;"/>
   </g>
   <g id="line2d_48">
    <defs>
     <path d="M 0 -6 
L -5.196152 -3 
L -5.196152 3 
L -0 6 
L 5.196152 3 
L 5.196152 -3 
z
" id="m285bb6971f" style="stroke:#ff0000;stroke-linejoin:miter;stroke-width:1.5;"/>
    </defs>
    <g>
     <use style="fill-opacity:0;stroke:#ff0000;stroke-linejoin:miter;stroke-width:1.5;" x="149.31719" xlink:href="#m285bb6971f" y="142.518234"/>
     <use style="fill-opacity:0;stroke:#ff0000;stroke-linejoin:miter;stroke-width:1.5;" x="158.086033" xlink:href="#m285bb6971f" y="31.387471"/>
     <use style="fill-opacity:0;stroke:#ff0000;stroke-linejoin:miter;stroke-width:1.5;" x="158.086033" xlink:href="#m285bb6971f" y="30.334099"/>
     <use style="fill-opacity:0;stroke:#ff0000;stroke-linejoin:miter;stroke-width:1.5;" x="158.086033" xlink:href="#m285bb6971f" y="30.334099"/>
     <use style="fill-opacity:0;stroke:#ff0000;stroke-linejoin:miter;stroke-width:1.5;" x="338.688" xlink:href="#m285bb6971f" y="30.334099"/>
    </g>
   </g>
   <g id="line2d_49">
    <path style="fill:none;stroke:#ff0000;stroke-linecap:square;stroke-width:1.5;"/>
    <g/>
   </g>
   <g id="line2d_50">
    <defs>
     <path d="M 0 1.5 
C 0.397805 1.5 0.77937 1.341951 1.06066 1.06066 
C 1.341951 0.77937 1.5 0.397805 1.5 0 
C 1.5 -0.397805 1.341951 -0.77937 1.06066 -1.06066 
C 0.77937 -1.341951 0.397805 -1.5 0 -1.5 
C -0.397805 -1.5 -0.77937 -1.341951 -1.06066 -1.06066 
C -1.341951 -0.77937 -1.5 -0.397805 -1.5 0 
C -1.5 0.397805 -1.341951 0.77937 -1.06066 1.06066 
C -0.77937 1.341951 -0.397805 1.5 0 1.5 
z
" id="m25ed1941e8" style="stroke:#ff7500;"/>
    </defs>
    <g>
     <use style="fill:#ff7500;stroke:#ff7500;" x="155.804285" xlink:href="#m25ed1941e8" y="30.334099"/>
     <use style="fill:#ff7500;stroke:#ff7500;" x="155.804285" xlink:href="#m25ed1941e8" y="30.334099"/>
    </g>
   </g>
   <g id="line2d_51">
    <path d="M 104.434538 298.944 
L 104.434538 298.417314 
L 118.925375 298.417314 
L 118.925375 297.890628 
L 122.076131 297.890628 
L 122.076131 296.837256 
L 123.327293 296.837256 
L 123.327293 296.31057 
L 124.241922 296.31057 
L 124.241922 291.570395 
L 125.351508 291.570395 
L 125.351508 290.517023 
L 125.470548 290.517023 
L 125.470548 289.990337 
L 126.618283 289.990337 
L 126.618283 288.936964 
L 126.948374 288.936964 
L 126.948374 288.410278 
L 128.107907 288.410278 
L 128.209594 287.356906 
L 128.905271 287.356906 
L 128.905271 286.303534 
L 129.290685 286.303534 
L 129.290685 284.723476 
L 129.760775 284.723476 
L 129.853291 283.143418 
L 129.945319 283.143418 
L 129.945319 280.509987 
L 130.664567 280.509987 
L 130.664567 278.403243 
L 131.60746 278.403243 
L 131.690703 275.769812 
L 132.342714 275.769812 
L 132.342714 275.243126 
L 132.893889 275.243126 
L 132.971225 273.663068 
L 133.04822 273.663068 
L 133.04822 272.08301 
L 133.277185 272.08301 
L 133.277185 270.502952 
L 134.019394 270.502952 
L 134.019394 269.976266 
L 134.591225 269.976266 
L 134.591225 269.449579 
L 134.7313 269.449579 
L 134.7313 268.922893 
L 134.939326 268.922893 
L 134.939326 268.396207 
L 135.212889 268.396207 
L 135.212889 267.869521 
L 135.415281 267.869521 
L 135.415281 267.342835 
L 135.747468 267.342835 
L 135.747468 266.816149 
L 135.943785 266.816149 
L 135.943785 266.289463 
L 136.393441 266.289463 
L 136.393441 265.762777 
L 136.831795 265.762777 
L 136.893527 264.182719 
L 136.955041 264.182719 
L 137.016339 262.075974 
L 137.198951 262.075974 
L 137.198951 261.022602 
L 137.617753 261.022602 
L 137.617753 260.495916 
L 137.735587 260.495916 
L 137.735587 259.442544 
L 138.199116 259.442544 
L 138.199116 258.915858 
L 138.369812 258.915858 
L 138.426341 257.862486 
L 138.816998 257.862486 
L 138.872098 255.229055 
L 139.253002 255.229055 
L 139.253002 254.702369 
L 139.413734 254.702369 
L 139.413734 253.648997 
L 139.625765 253.648997 
L 139.730821 251.015567 
L 140.042245 251.015567 
L 140.042245 250.488881 
L 140.297583 250.488881 
L 140.39868 246.275392 
L 140.549236 246.275392 
L 140.549236 245.748706 
L 140.698504 245.748706 
L 140.79731 244.168648 
L 140.846504 244.168648 
L 140.944478 241.535217 
L 141.138789 241.535217 
L 141.187031 239.955159 
L 141.33096 239.955159 
L 141.378673 237.848415 
L 141.521035 237.848415 
L 141.568232 235.214984 
L 141.709062 235.214984 
L 141.80232 233.634926 
L 141.848763 233.634926 
L 141.941279 232.054868 
L 142.170445 232.054868 
L 142.261275 229.948123 
L 142.306513 229.948123 
L 142.351634 226.788007 
L 142.486301 226.788007 
L 142.486301 225.734635 
L 142.664255 225.734635 
L 142.708461 220.99446 
L 143.058132 220.99446 
L 143.144465 219.941088 
L 143.230373 219.941088 
L 143.31586 217.834344 
L 143.40093 217.834344 
L 143.44331 216.254285 
L 143.569835 216.254285 
L 143.653678 213.094169 
L 143.695448 213.094169 
L 143.778691 209.407366 
L 143.820164 209.407366 
L 143.902815 207.827308 
L 143.943994 207.827308 
L 143.943994 207.300622 
L 144.229555 207.300622 
L 144.310293 204.140506 
L 144.350522 204.140506 
L 144.430703 202.033761 
L 144.470655 202.033761 
L 144.510517 200.453703 
L 144.629556 200.453703 
L 144.708467 196.240214 
L 144.94308 196.240214 
L 145.020588 194.13347 
L 145.136208 194.13347 
L 145.212864 192.553412 
L 145.327221 192.553412 
L 145.327221 190.446667 
L 145.440832 190.446667 
L 145.516164 188.339923 
L 145.628555 188.339923 
L 145.628555 185.706493 
L 145.777292 185.706493 
L 145.888018 182.546376 
L 145.924771 182.546376 
L 146.034567 180.439632 
L 146.071013 180.439632 
L 146.071013 179.38626 
L 146.324022 179.38626 
L 146.431341 176.752829 
L 146.466968 176.752829 
L 146.573414 168.852538 
L 146.608752 168.852538 
L 146.644018 167.799166 
L 146.784375 167.799166 
L 146.888907 159.898875 
L 146.923612 159.898875 
L 146.923612 157.265444 
L 147.096109 157.265444 
L 147.096109 156.212072 
L 147.232888 156.212072 
L 147.334773 153.578642 
L 147.402367 153.578642 
L 147.50327 152.52527 
L 147.536775 152.52527 
L 147.603592 150.945211 
L 147.901141 150.945211 
L 147.96658 149.891839 
L 148.031773 149.891839 
L 148.096724 146.205037 
L 148.225905 146.205037 
L 148.258051 143.571606 
L 148.354135 143.571606 
L 148.417899 141.991548 
L 148.513109 141.991548 
L 148.607802 140.938176 
L 148.639252 140.938176 
L 148.639252 139.884804 
L 148.79566 139.884804 
L 148.79566 138.831432 
L 148.919783 138.831432 
L 148.981515 135.671315 
L 149.043029 135.671315 
L 149.134896 134.091257 
L 149.165411 134.091257 
L 149.256637 130.93114 
L 149.286939 130.93114 
L 149.31719 129.877768 
L 149.437669 129.877768 
L 149.467659 128.29771 
L 149.557321 128.29771 
L 149.646525 124.084221 
L 149.676158 124.084221 
L 149.764758 114.603872 
L 149.794191 114.603872 
L 149.794191 113.5505 
L 149.940618 113.5505 
L 149.969756 109.337011 
L 150.05688 109.337011 
L 150.114722 106.703581 
L 150.229833 106.703581 
L 150.31567 103.016778 
L 150.344189 103.016778 
L 150.429467 99.856662 
L 150.486088 99.856662 
L 150.570677 96.696545 
L 150.598782 96.696545 
L 150.626842 91.95637 
L 150.710752 91.95637 
L 150.79426 88.796254 
L 150.822008 88.796254 
L 150.932558 87.216196 
L 150.960087 87.216196 
L 151.069768 85.109451 
L 151.097081 85.109451 
L 151.151579 80.895963 
L 151.287083 80.895963 
L 151.367883 78.262532 
L 151.501723 78.262532 
L 151.528368 74.57573 
L 151.634543 74.57573 
L 151.713753 71.415613 
L 151.897188 71.415613 
L 151.949246 66.675439 
L 152.027042 66.675439 
L 152.104493 62.988636 
L 152.232818 62.988636 
L 152.334802 59.82852 
L 152.360205 59.82852 
L 152.461449 57.195089 
L 152.587184 57.195089 
L 152.662192 54.561659 
L 152.712018 54.561659 
L 152.811246 53.508287 
L 152.835965 53.508287 
L 152.934492 51.928228 
L 152.959038 51.928228 
L 153.008024 49.821484 
L 153.105587 49.821484 
L 153.202607 46.661368 
L 153.250915 46.661368 
L 153.347132 41.921193 
L 153.395042 41.921193 
L 153.395042 40.867821 
L 153.514245 40.867821 
L 153.609024 39.287762 
L 153.773658 39.287762 
L 153.843742 37.181018 
L 154.212841 37.181018 
L 154.212841 36.127646 
L 154.326601 36.127646 
L 154.326601 35.60096 
L 154.484627 35.60096 
L 154.57429 34.547588 
L 154.641235 34.547588 
L 154.641235 34.020902 
L 154.840544 34.020902 
L 154.906477 32.440843 
L 155.015814 32.440843 
L 155.12447 31.387471 
L 155.275461 31.387471 
L 155.275461 30.860785 
L 155.804285 30.860785 
L 155.804285 30.334099 
L 338.688 30.334099 
L 338.688 30.334099 
" style="fill:none;stroke:#ff7500;stroke-linecap:square;stroke-width:1.5;"/>
   </g>
   <g id="line2d_52">
    <defs>
     <path d="M 0 -6 
L -1.347084 -1.854102 
L -5.706339 -1.854102 
L -2.179628 0.708204 
L -3.526712 4.854102 
L -0 2.291796 
L 3.526712 4.854102 
L 2.179628 0.708204 
L 5.706339 -1.854102 
L 1.347084 -1.854102 
z
" id="m86cfd1e1e2" style="stroke:#ff7500;stroke-linejoin:bevel;stroke-width:1.5;"/>
    </defs>
    <g>
     <use style="fill-opacity:0;stroke:#ff7500;stroke-linejoin:bevel;stroke-width:1.5;" x="148.096724" xlink:href="#m86cfd1e1e2" y="147.258409"/>
     <use style="fill-opacity:0;stroke:#ff7500;stroke-linejoin:bevel;stroke-width:1.5;" x="155.804285" xlink:href="#m86cfd1e1e2" y="30.860785"/>
     <use style="fill-opacity:0;stroke:#ff7500;stroke-linejoin:bevel;stroke-width:1.5;" x="155.804285" xlink:href="#m86cfd1e1e2" y="30.334099"/>
     <use style="fill-opacity:0;stroke:#ff7500;stroke-linejoin:bevel;stroke-width:1.5;" x="155.804285" xlink:href="#m86cfd1e1e2" y="30.334099"/>
     <use style="fill-opacity:0;stroke:#ff7500;stroke-linejoin:bevel;stroke-width:1.5;" x="338.688" xlink:href="#m86cfd1e1e2" y="30.334099"/>
    </g>
   </g>
   <g id="line2d_53">
    <path style="fill:none;stroke:#ff7500;stroke-linecap:square;stroke-width:1.5;"/>
    <g/>
   </g>
   <g id="line2d_54">
    <path d="M 338.688 30.334099 
L 369.60768 293.571802 
" style="fill:none;stroke:#ff00ff;stroke-linecap:square;stroke-width:1.5;"/>
    <g>
     <use style="fill-opacity:0;stroke:#ff00ff;stroke-linejoin:miter;stroke-width:1.5;" x="338.688" xlink:href="#mcf530b6bd4" y="30.334099"/>
     <use style="fill-opacity:0;stroke:#ff00ff;stroke-linejoin:miter;stroke-width:1.5;" x="369.60768" xlink:href="#mcf530b6bd4" y="293.571802"/>
    </g>
   </g>
   <g id="line2d_55">
    <path d="M 338.688 30.334099 
L 369.60768 241.998701 
" style="fill:none;stroke:#ff0000;stroke-linecap:square;stroke-width:1.5;"/>
    <g>
     <use style="fill-opacity:0;stroke:#ff0000;stroke-linejoin:miter;stroke-width:1.5;" x="338.688" xlink:href="#m285bb6971f" y="30.334099"/>
     <use style="fill-opacity:0;stroke:#ff0000;stroke-linejoin:miter;stroke-width:1.5;" x="369.60768" xlink:href="#m285bb6971f" y="241.998701"/>
    </g>
   </g>
   <g id="line2d_56">
    <path d="M 338.688 30.334099 
L 369.60768 190.4256 
" style="fill:none;stroke:#000080;stroke-linecap:square;stroke-width:1.5;"/>
    <g>
     <use style="fill-opacity:0;stroke:#000080;stroke-width:1.5;" x="338.688" xlink:href="#mb01606bac4" y="30.334099"/>
     <use style="fill-opacity:0;stroke:#000080;stroke-width:1.5;" x="369.60768" xlink:href="#mb01606bac4" y="190.4256"/>
    </g>
   </g>
   <g id="line2d_57">
    <path d="M 338.688 30.334099 
L 369.60768 138.852499 
" style="fill:none;stroke:#000080;stroke-linecap:square;stroke-width:1.5;"/>
    <g>
     <use style="fill-opacity:0;stroke:#000080;stroke-width:1.5;" x="338.688" xlink:href="#mb01606bac4" y="30.334099"/>
     <use style="fill-opacity:0;stroke:#000080;stroke-width:1.5;" x="369.60768" xlink:href="#mb01606bac4" y="138.852499"/>
    </g>
   </g>
   <g id="line2d_58">
    <path d="M 338.688 30.334099 
L 369.60768 87.279398 
" style="fill:none;stroke:#ff7500;stroke-linecap:square;stroke-width:1.5;"/>
    <g>
     <use style="fill-opacity:0;stroke:#ff7500;stroke-linejoin:bevel;stroke-width:1.5;" x="338.688" xlink:href="#m86cfd1e1e2" y="30.334099"/>
     <use style="fill-opacity:0;stroke:#ff7500;stroke-linejoin:bevel;stroke-width:1.5;" x="369.60768" xlink:href="#m86cfd1e1e2" y="87.279398"/>
    </g>
   </g>
   <g id="line2d_59">
    <path d="M 338.688 298.944 
L 338.688 30.334099 
" style="fill:none;stroke:#000000;stroke-linecap:square;stroke-width:1.5;"/>
   </g>
   <g id="patch_3">
    <path d="M 57.6 298.944 
L 57.6 27.648 
" style="fill:none;stroke:#000000;stroke-linecap:square;stroke-linejoin:miter;stroke-width:0.8;"/>
   </g>
   <g id="patch_4">
    <path d="M 338.688 298.944 
L 338.688 27.648 
" style="fill:none;stroke:#000000;stroke-linecap:square;stroke-linejoin:miter;stroke-width:0.8;"/>
   </g>
   <g id="patch_5">
    <path d="M 57.6 298.944 
L 338.688 298.944 
" style="fill:none;stroke:#000000;stroke-linecap:square;stroke-linejoin:miter;stroke-width:0.8;"/>
   </g>
   <g id="patch_6">
    <path d="M 57.6 27.648 
L 338.688 27.648 
" style="fill:none;stroke:#000000;stroke-linecap:square;stroke-linejoin:miter;stroke-width:0.8;"/>
   </g>
   <g id="text_13">
    <!-- 025s-2e4 -->
    <defs>
     <path d="M 10.796875 72.90625 
L 49.515625 72.90625 
L 49.515625 64.59375 
L 19.828125 64.59375 
L 19.828125 46.734375 
Q 21.96875 47.46875 24.109375 47.828125 
Q 26.265625 48.1875 28.421875 48.1875 
Q 40.625 48.1875 47.75 41.5 
Q 54.890625 34.8125 54.890625 23.390625 
Q 54.890625 11.625 47.5625 5.09375 
Q 40.234375 -1.421875 26.90625 -1.421875 
Q 22.3125 -1.421875 17.546875 -0.640625 
Q 12.796875 0.140625 7.71875 1.703125 
L 7.71875 11.625 
Q 12.109375 9.234375 16.796875 8.0625 
Q 21.484375 6.890625 26.703125 6.890625 
Q 35.15625 6.890625 40.078125 11.328125 
Q 45.015625 15.765625 45.015625 23.390625 
Q 45.015625 31 40.078125 35.4375 
Q 35.15625 39.890625 26.703125 39.890625 
Q 22.75 39.890625 18.8125 39.015625 
Q 14.890625 38.140625 10.796875 36.28125 
z
" id="DejaVuSans-53"/>
    </defs>
    <g transform="translate(375.22944 298.262739)scale(0.17 -0.17)">
     <use xlink:href="#DejaVuSans-48"/>
     <use x="63.623047" xlink:href="#DejaVuSans-50"/>
     <use x="127.246094" xlink:href="#DejaVuSans-53"/>
     <use x="190.869141" xlink:href="#DejaVuSans-115"/>
     <use x="242.96875" xlink:href="#DejaVuSans-45"/>
     <use x="279.052734" xlink:href="#DejaVuSans-50"/>
     <use x="342.675781" xlink:href="#DejaVuSans-101"/>
     <use x="404.199219" xlink:href="#DejaVuSans-52"/>
    </g>
   </g>
   <g id="text_14">
    <!-- 050s-2e4 -->
    <g transform="translate(375.22944 246.689638)scale(0.17 -0.17)">
     <use xlink:href="#DejaVuSans-48"/>
     <use x="63.623047" xlink:href="#DejaVuSans-53"/>
     <use x="127.246094" xlink:href="#DejaVuSans-48"/>
     <use x="190.869141" xlink:href="#DejaVuSans-115"/>
     <use x="242.96875" xlink:href="#DejaVuSans-45"/>
     <use x="279.052734" xlink:href="#DejaVuSans-50"/>
     <use x="342.675781" xlink:href="#DejaVuSans-101"/>
     <use x="404.199219" xlink:href="#DejaVuSans-52"/>
    </g>
   </g>
   <g id="text_15">
    <!-- 100-2e4 -->
    <g transform="translate(375.22944 195.116537)scale(0.17 -0.17)">
     <use xlink:href="#DejaVuSans-49"/>
     <use x="63.623047" xlink:href="#DejaVuSans-48"/>
     <use x="127.246094" xlink:href="#DejaVuSans-48"/>
     <use x="190.869141" xlink:href="#DejaVuSans-45"/>
     <use x="226.953125" xlink:href="#DejaVuSans-50"/>
     <use x="290.576172" xlink:href="#DejaVuSans-101"/>
     <use x="352.099609" xlink:href="#DejaVuSans-52"/>
    </g>
   </g>
   <g id="text_16">
    <!-- 100-1e5 -->
    <g transform="translate(375.22944 143.543437)scale(0.17 -0.17)">
     <use xlink:href="#DejaVuSans-49"/>
     <use x="63.623047" xlink:href="#DejaVuSans-48"/>
     <use x="127.246094" xlink:href="#DejaVuSans-48"/>
     <use x="190.869141" xlink:href="#DejaVuSans-45"/>
     <use x="226.953125" xlink:href="#DejaVuSans-49"/>
     <use x="290.576172" xlink:href="#DejaVuSans-101"/>
     <use x="352.099609" xlink:href="#DejaVuSans-53"/>
    </g>
   </g>
   <g id="text_17">
    <!-- 075s-2e4 -->
    <defs>
     <path d="M 8.203125 72.90625 
L 55.078125 72.90625 
L 55.078125 68.703125 
L 28.609375 0 
L 18.3125 0 
L 43.21875 64.59375 
L 8.203125 64.59375 
z
" id="DejaVuSans-55"/>
    </defs>
    <g transform="translate(375.22944 91.970336)scale(0.17 -0.17)">
     <use xlink:href="#DejaVuSans-48"/>
     <use x="63.623047" xlink:href="#DejaVuSans-55"/>
     <use x="127.246094" xlink:href="#DejaVuSans-53"/>
     <use x="190.869141" xlink:href="#DejaVuSans-115"/>
     <use x="242.96875" xlink:href="#DejaVuSans-45"/>
     <use x="279.052734" xlink:href="#DejaVuSans-50"/>
     <use x="342.675781" xlink:href="#DejaVuSans-101"/>
     <use x="404.199219" xlink:href="#DejaVuSans-52"/>
    </g>
   </g>
   <g id="text_18">
    <!-- best 2009 -->
    <defs>
     <path d="M 48.6875 27.296875 
Q 48.6875 37.203125 44.609375 42.84375 
Q 40.53125 48.484375 33.40625 48.484375 
Q 26.265625 48.484375 22.1875 42.84375 
Q 18.109375 37.203125 18.109375 27.296875 
Q 18.109375 17.390625 22.1875 11.75 
Q 26.265625 6.109375 33.40625 6.109375 
Q 40.53125 6.109375 44.609375 11.75 
Q 48.6875 17.390625 48.6875 27.296875 
z
M 18.109375 46.390625 
Q 20.953125 51.265625 25.265625 53.625 
Q 29.59375 56 35.59375 56 
Q 45.5625 56 51.78125 48.09375 
Q 58.015625 40.1875 58.015625 27.296875 
Q 58.015625 14.40625 51.78125 6.484375 
Q 45.5625 -1.421875 35.59375 -1.421875 
Q 29.59375 -1.421875 25.265625 0.953125 
Q 20.953125 3.328125 18.109375 8.203125 
L 18.109375 0 
L 9.078125 0 
L 9.078125 75.984375 
L 18.109375 75.984375 
z
" id="DejaVuSans-98"/>
     <path d="M 10.984375 1.515625 
L 10.984375 10.5 
Q 14.703125 8.734375 18.5 7.8125 
Q 22.3125 6.890625 25.984375 6.890625 
Q 35.75 6.890625 40.890625 13.453125 
Q 46.046875 20.015625 46.78125 33.40625 
Q 43.953125 29.203125 39.59375 26.953125 
Q 35.25 24.703125 29.984375 24.703125 
Q 19.046875 24.703125 12.671875 31.3125 
Q 6.296875 37.9375 6.296875 49.421875 
Q 6.296875 60.640625 12.9375 67.421875 
Q 19.578125 74.21875 30.609375 74.21875 
Q 43.265625 74.21875 49.921875 64.515625 
Q 56.59375 54.828125 56.59375 36.375 
Q 56.59375 19.140625 48.40625 8.859375 
Q 40.234375 -1.421875 26.421875 -1.421875 
Q 22.703125 -1.421875 18.890625 -0.6875 
Q 15.09375 0.046875 10.984375 1.515625 
z
M 30.609375 32.421875 
Q 37.25 32.421875 41.125 36.953125 
Q 45.015625 41.5 45.015625 49.421875 
Q 45.015625 57.28125 41.125 61.84375 
Q 37.25 66.40625 30.609375 66.40625 
Q 23.96875 66.40625 20.09375 61.84375 
Q 16.21875 57.28125 16.21875 49.421875 
Q 16.21875 41.5 20.09375 36.953125 
Q 23.96875 32.421875 30.609375 32.421875 
z
" id="DejaVuSans-57"/>
    </defs>
    <g transform="translate(375.22944 40.397235)scale(0.17 -0.17)">
     <use xlink:href="#DejaVuSans-98"/>
     <use x="63.476562" xlink:href="#DejaVuSans-101"/>
     <use x="125" xlink:href="#DejaVuSans-115"/>
     <use x="177.099609" xlink:href="#DejaVuSans-116"/>
     <use x="216.308594" xlink:href="#DejaVuSans-32"/>
     <use x="248.095703" xlink:href="#DejaVuSans-50"/>
     <use x="311.71875" xlink:href="#DejaVuSans-48"/>
     <use x="375.341797" xlink:href="#DejaVuSans-48"/>
     <use x="438.964844" xlink:href="#DejaVuSans-57"/>
    </g>
   </g>
   <g id="text_19">
    <!-- bbob f2, 3-D -->
    <defs>
     <path d="M 40.578125 39.3125 
Q 47.65625 37.796875 51.625 33 
Q 55.609375 28.21875 55.609375 21.1875 
Q 55.609375 10.40625 48.1875 4.484375 
Q 40.765625 -1.421875 27.09375 -1.421875 
Q 22.515625 -1.421875 17.65625 -0.515625 
Q 12.796875 0.390625 7.625 2.203125 
L 7.625 11.71875 
Q 11.71875 9.328125 16.59375 8.109375 
Q 21.484375 6.890625 26.8125 6.890625 
Q 36.078125 6.890625 40.9375 10.546875 
Q 45.796875 14.203125 45.796875 21.1875 
Q 45.796875 27.640625 41.28125 31.265625 
Q 36.765625 34.90625 28.71875 34.90625 
L 20.21875 34.90625 
L 20.21875 43.015625 
L 29.109375 43.015625 
Q 36.375 43.015625 40.234375 45.921875 
Q 44.09375 48.828125 44.09375 54.296875 
Q 44.09375 59.90625 40.109375 62.90625 
Q 36.140625 65.921875 28.71875 65.921875 
Q 24.65625 65.921875 20.015625 65.03125 
Q 15.375 64.15625 9.8125 62.3125 
L 9.8125 71.09375 
Q 15.4375 72.65625 20.34375 73.4375 
Q 25.25 74.21875 29.59375 74.21875 
Q 40.828125 74.21875 47.359375 69.109375 
Q 53.90625 64.015625 53.90625 55.328125 
Q 53.90625 49.265625 50.4375 45.09375 
Q 46.96875 40.921875 40.578125 39.3125 
z
" id="DejaVuSans-51"/>
     <path d="M 19.671875 64.796875 
L 19.671875 8.109375 
L 31.59375 8.109375 
Q 46.6875 8.109375 53.6875 14.9375 
Q 60.6875 21.78125 60.6875 36.53125 
Q 60.6875 51.171875 53.6875 57.984375 
Q 46.6875 64.796875 31.59375 64.796875 
z
M 9.8125 72.90625 
L 30.078125 72.90625 
Q 51.265625 72.90625 61.171875 64.09375 
Q 71.09375 55.28125 71.09375 36.53125 
Q 71.09375 17.671875 61.125 8.828125 
Q 51.171875 0 30.078125 0 
L 9.8125 0 
z
" id="DejaVuSans-68"/>
    </defs>
    <g transform="translate(60.41088 38.111366)scale(0.102 -0.102)">
     <use xlink:href="#DejaVuSans-98"/>
     <use x="63.476562" xlink:href="#DejaVuSans-98"/>
     <use x="126.953125" xlink:href="#DejaVuSans-111"/>
     <use x="188.134766" xlink:href="#DejaVuSans-98"/>
     <use x="251.611328" xlink:href="#DejaVuSans-32"/>
     <use x="283.398438" xlink:href="#DejaVuSans-102"/>
     <use x="318.603516" xlink:href="#DejaVuSans-50"/>
     <use x="382.226562" xlink:href="#DejaVuSans-44"/>
     <use x="414.013672" xlink:href="#DejaVuSans-32"/>
     <use x="445.800781" xlink:href="#DejaVuSans-51"/>
     <use x="509.423828" xlink:href="#DejaVuSans-45"/>
     <use x="545.507812" xlink:href="#DejaVuSans-68"/>
    </g>
    <!-- 51 targets: 100..1e-08 -->
    <defs>
     <path d="M 11.71875 12.40625 
L 22.015625 12.40625 
L 22.015625 0 
L 11.71875 0 
z
M 11.71875 51.703125 
L 22.015625 51.703125 
L 22.015625 39.3125 
L 11.71875 39.3125 
z
" id="DejaVuSans-58"/>
    </defs>
    <g transform="translate(60.41088 49.533135)scale(0.102 -0.102)">
     <use xlink:href="#DejaVuSans-53"/>
     <use x="63.623047" xlink:href="#DejaVuSans-49"/>
     <use x="127.246094" xlink:href="#DejaVuSans-32"/>
     <use x="159.033203" xlink:href="#DejaVuSans-116"/>
     <use x="198.242188" xlink:href="#DejaVuSans-97"/>
     <use x="259.521484" xlink:href="#DejaVuSans-114"/>
     <use x="300.619141" xlink:href="#DejaVuSans-103"/>
     <use x="364.095703" xlink:href="#DejaVuSans-101"/>
     <use x="425.619141" xlink:href="#DejaVuSans-116"/>
     <use x="464.828125" xlink:href="#DejaVuSans-115"/>
     <use x="516.927734" xlink:href="#DejaVuSans-58"/>
     <use x="550.619141" xlink:href="#DejaVuSans-32"/>
     <use x="582.40625" xlink:href="#DejaVuSans-49"/>
     <use x="646.029297" xlink:href="#DejaVuSans-48"/>
     <use x="709.652344" xlink:href="#DejaVuSans-48"/>
     <use x="773.275391" xlink:href="#DejaVuSans-46"/>
     <use x="805.0625" xlink:href="#DejaVuSans-46"/>
     <use x="836.849609" xlink:href="#DejaVuSans-49"/>
     <use x="900.472656" xlink:href="#DejaVuSans-101"/>
     <use x="961.996094" xlink:href="#DejaVuSans-45"/>
     <use x="998.080078" xlink:href="#DejaVuSans-48"/>
     <use x="1061.703125" xlink:href="#DejaVuSans-56"/>
    </g>
    <!-- 15 instances -->
    <g transform="translate(60.41088 60.954904)scale(0.102 -0.102)">
     <use xlink:href="#DejaVuSans-49"/>
     <use x="63.623047" xlink:href="#DejaVuSans-53"/>
     <use x="127.246094" xlink:href="#DejaVuSans-32"/>
     <use x="159.033203" xlink:href="#DejaVuSans-105"/>
     <use x="186.816406" xlink:href="#DejaVuSans-110"/>
     <use x="250.195312" xlink:href="#DejaVuSans-115"/>
     <use x="302.294922" xlink:href="#DejaVuSans-116"/>
     <use x="341.503906" xlink:href="#DejaVuSans-97"/>
     <use x="402.783203" xlink:href="#DejaVuSans-110"/>
     <use x="466.162109" xlink:href="#DejaVuSans-99"/>
     <use x="521.142578" xlink:href="#DejaVuSans-101"/>
     <use x="582.666016" xlink:href="#DejaVuSans-115"/>
    </g>
   </g>
   <g id="text_20">
    <!-- v2.3.3.18.73 -->
    <g style="fill:#808080;" transform="translate(166.559625 294.151352)scale(0.1 -0.1)">
     <use xlink:href="#DejaVuSans-118"/>
     <use x="59.179688" xlink:href="#DejaVuSans-50"/>
     <use x="122.802734" xlink:href="#DejaVuSans-46"/>
     <use x="154.589844" xlink:href="#DejaVuSans-51"/>
     <use x="218.212891" xlink:href="#DejaVuSans-46"/>
     <use x="250" xlink:href="#DejaVuSans-51"/>
     <use x="313.623047" xlink:href="#DejaVuSans-46"/>
     <use x="345.410156" xlink:href="#DejaVuSans-49"/>
     <use x="409.033203" xlink:href="#DejaVuSans-56"/>
     <use x="472.65625" xlink:href="#DejaVuSans-46"/>
     <use x="504.443359" xlink:href="#DejaVuSans-55"/>
     <use x="568.066406" xlink:href="#DejaVuSans-51"/>
    </g>
   </g>
   <g id="text_21">
    <!-- 2 Ellipsoid separable -->
    <defs>
     <path d="M 9.8125 72.90625 
L 55.90625 72.90625 
L 55.90625 64.59375 
L 19.671875 64.59375 
L 19.671875 43.015625 
L 54.390625 43.015625 
L 54.390625 34.71875 
L 19.671875 34.71875 
L 19.671875 8.296875 
L 56.78125 8.296875 
L 56.78125 0 
L 9.8125 0 
z
" id="DejaVuSans-69"/>
    </defs>
    <g transform="translate(94.611187 21.648)scale(0.2 -0.2)">
     <use xlink:href="#DejaVuSans-50"/>
     <use x="63.623047" xlink:href="#DejaVuSans-32"/>
     <use x="95.410156" xlink:href="#DejaVuSans-69"/>
     <use x="158.59375" xlink:href="#DejaVuSans-108"/>
     <use x="186.376953" xlink:href="#DejaVuSans-108"/>
     <use x="214.160156" xlink:href="#DejaVuSans-105"/>
     <use x="241.943359" xlink:href="#DejaVuSans-112"/>
     <use x="305.419922" xlink:href="#DejaVuSans-115"/>
     <use x="357.519531" xlink:href="#DejaVuSans-111"/>
     <use x="418.701172" xlink:href="#DejaVuSans-105"/>
     <use x="446.484375" xlink:href="#DejaVuSans-100"/>
     <use x="509.960938" xlink:href="#DejaVuSans-32"/>
     <use x="541.748047" xlink:href="#DejaVuSans-115"/>
     <use x="593.847656" xlink:href="#DejaVuSans-101"/>
     <use x="655.371094" xlink:href="#DejaVuSans-112"/>
     <use x="718.847656" xlink:href="#DejaVuSans-97"/>
     <use x="780.126953" xlink:href="#DejaVuSans-114"/>
     <use x="821.240234" xlink:href="#DejaVuSans-97"/>
     <use x="882.519531" xlink:href="#DejaVuSans-98"/>
     <use x="945.996094" xlink:href="#DejaVuSans-108"/>
     <use x="973.779297" xlink:href="#DejaVuSans-101"/>
    </g>
   </g>
  </g>
 </g>
 <defs>
  <clipPath id="p6046589699">
   <rect height="271.296" width="281.088" x="57.6" y="27.648"/>
  </clipPath>
 </defs>
</svg>
