<?xml version="1.0" encoding="utf-8" standalone="no"?>
<!DOCTYPE svg PUBLIC "-//W3C//DTD SVG 1.1//EN"
  "http://www.w3.org/Graphics/SVG/1.1/DTD/svg11.dtd">
<!-- Created with matplotlib (https://matplotlib.org/) -->
<svg height="345.6pt" version="1.1" viewBox="0 0 460.8 345.6" width="460.8pt" xmlns="http://www.w3.org/2000/svg" xmlns:xlink="http://www.w3.org/1999/xlink">
 <defs>
  <style type="text/css">
*{stroke-linecap:butt;stroke-linejoin:round;}
  </style>
 </defs>
 <g id="figure_1">
  <g id="patch_1">
   <path d="M 0 345.6 
L 460.8 345.6 
L 460.8 0 
L 0 0 
z
" style="fill:#ffffff;"/>
  </g>
  <g id="axes_1">
   <g id="patch_2">
    <path d="M 57.6 298.944 
L 338.688 298.944 
L 338.688 27.648 
L 57.6 27.648 
z
" style="fill:#ffffff;"/>
   </g>
   <g id="line2d_1">
    <path d="M 138.561269 298.944 
L 138.561269 293.677139 
L 144.062866 293.677139 
L 144.062866 288.410278 
L 144.958609 288.410278 
L 144.958609 283.143418 
L 146.947864 283.143418 
L 146.947864 277.876557 
L 147.409112 277.876557 
L 147.409112 272.609696 
L 148.497276 272.609696 
L 148.497276 267.342835 
L 148.966103 267.342835 
L 148.966103 262.075974 
L 149.25057 262.075974 
L 149.25057 256.809114 
L 150.249899 256.809114 
L 150.249899 251.542253 
L 150.899466 251.542253 
L 150.899466 246.275392 
L 151.437608 246.275392 
L 151.437608 241.008531 
L 151.708484 241.008531 
L 151.708484 235.74167 
L 152.283884 235.74167 
L 152.283884 230.47481 
L 152.981099 230.47481 
L 152.981099 225.207949 
L 153.090987 225.207949 
L 153.090987 219.941088 
L 153.573542 219.941088 
L 153.573542 214.674227 
L 153.658577 214.674227 
L 153.658577 209.407366 
L 153.736164 209.407366 
L 153.736164 204.140506 
L 153.799388 204.140506 
L 153.799388 198.873645 
L 155.329071 198.873645 
L 155.329071 193.606784 
L 155.412374 193.606784 
L 155.412374 188.339923 
L 155.533415 188.339923 
L 155.533415 183.073062 
L 155.678822 183.073062 
L 155.678822 177.806202 
L 155.716556 177.806202 
L 155.716556 172.539341 
L 155.810534 172.539341 
L 155.810534 167.27248 
L 155.879132 167.27248 
L 155.879132 162.005619 
L 155.94746 162.005619 
L 155.94746 156.738758 
L 156.034038 156.738758 
L 156.034038 151.471897 
L 156.101764 151.471897 
L 156.101764 146.205037 
L 156.181465 146.205037 
L 156.181465 140.938176 
L 157.540141 140.938176 
L 157.540141 135.671315 
L 157.652944 135.671315 
L 157.652944 130.404454 
L 157.748256 130.404454 
L 157.748256 125.137593 
L 160.914762 125.137593 
L 160.914762 119.870733 
L 164.117618 119.870733 
L 164.117618 114.603872 
L 164.306736 114.603872 
L 164.306736 109.337011 
L 164.394804 109.337011 
L 164.394804 104.07015 
L 164.467222 104.07015 
L 164.467222 98.803289 
L 164.531763 98.803289 
L 164.531763 93.536429 
L 164.577177 93.536429 
L 164.577177 88.269568 
L 164.671413 88.269568 
L 164.671413 83.002707 
L 164.738949 83.002707 
L 164.738949 77.735846 
L 164.824867 77.735846 
L 164.824867 72.468985 
L 164.891812 72.468985 
L 164.891812 67.202125 
L 164.962199 67.202125 
L 164.962199 61.935264 
L 165.043347 61.935264 
L 165.043347 56.668403 
L 165.113126 56.668403 
L 165.113126 51.401542 
L 165.168018 51.401542 
L 165.168018 46.134681 
L 165.219096 46.134681 
L 165.219096 40.867821 
L 165.291805 40.867821 
L 165.291805 35.60096 
L 165.364212 35.60096 
L 165.364212 30.334099 
L 338.688 30.334099 
" style="fill:none;stroke:#f5deb3;stroke-linecap:square;stroke-width:4;"/>
   </g>
   <g id="line2d_2">
    <defs>
     <path d="M -0 7.778175 
L 7.778175 0 
L 0 -7.778175 
L -7.778175 -0 
z
" id="m97c5bb9667" style="stroke:#f5deb3;stroke-linejoin:miter;stroke-width:1.5;"/>
    </defs>
    <g>
     <use style="fill:#f5deb3;stroke:#f5deb3;stroke-linejoin:miter;stroke-width:1.5;" x="157.540141" xlink:href="#m97c5bb9667" y="135.671315"/>
     <use style="fill:#f5deb3;stroke:#f5deb3;stroke-linejoin:miter;stroke-width:1.5;" x="165.364212" xlink:href="#m97c5bb9667" y="35.60096"/>
     <use style="fill:#f5deb3;stroke:#f5deb3;stroke-linejoin:miter;stroke-width:1.5;" x="165.364212" xlink:href="#m97c5bb9667" y="30.334099"/>
     <use style="fill:#f5deb3;stroke:#f5deb3;stroke-linejoin:miter;stroke-width:1.5;" x="165.364212" xlink:href="#m97c5bb9667" y="30.334099"/>
     <use style="fill:#f5deb3;stroke:#f5deb3;stroke-linejoin:miter;stroke-width:1.5;" x="338.688" xlink:href="#m97c5bb9667" y="30.334099"/>
    </g>
   </g>
   <g id="line2d_3">
    <path style="fill:none;stroke:#f5deb3;stroke-linecap:square;stroke-width:4;"/>
    <g/>
   </g>
   <g id="line2d_4">
    <path d="M 338.688 30.334099 
L 369.60768 241.998701 
" style="fill:none;stroke:#f5deb3;stroke-linecap:square;stroke-width:4;"/>
    <g>
     <use style="fill:#f5deb3;stroke:#f5deb3;stroke-linejoin:miter;stroke-width:1.5;" x="338.688" xlink:href="#m97c5bb9667" y="30.334099"/>
     <use style="fill:#f5deb3;stroke:#f5deb3;stroke-linejoin:miter;stroke-width:1.5;" x="369.60768" xlink:href="#m97c5bb9667" y="241.998701"/>
    </g>
   </g>
   <g id="matplotlib.axis_1">
    <g id="xtick_1">
     <g id="line2d_5">
      <path clip-path="url(#p55b0f445d3)" d="M 57.6 298.944 
L 57.6 27.648 
" style="fill:none;stroke:#b0b0b0;stroke-linecap:square;stroke-width:0.8;"/>
     </g>
     <g id="line2d_6">
      <defs>
       <path d="M 0 0 
L 0 3.5 
" id="m1abf4644cb" style="stroke:#000000;stroke-width:0.8;"/>
      </defs>
      <g>
       <use style="stroke:#000000;stroke-width:0.8;" x="57.6" xlink:href="#m1abf4644cb" y="298.944"/>
      </g>
     </g>
     <g id="text_1">
      <!-- 0 -->
      <defs>
       <path d="M 31.78125 66.40625 
Q 24.171875 66.40625 20.328125 58.90625 
Q 16.5 51.421875 16.5 36.375 
Q 16.5 21.390625 20.328125 13.890625 
Q 24.171875 6.390625 31.78125 6.390625 
Q 39.453125 6.390625 43.28125 13.890625 
Q 47.125 21.390625 47.125 36.375 
Q 47.125 51.421875 43.28125 58.90625 
Q 39.453125 66.40625 31.78125 66.40625 
z
M 31.78125 74.21875 
Q 44.046875 74.21875 50.515625 64.515625 
Q 56.984375 54.828125 56.984375 36.375 
Q 56.984375 17.96875 50.515625 8.265625 
Q 44.046875 -1.421875 31.78125 -1.421875 
Q 19.53125 -1.421875 13.0625 8.265625 
Q 6.59375 17.96875 6.59375 36.375 
Q 6.59375 54.828125 13.0625 64.515625 
Q 19.53125 74.21875 31.78125 74.21875 
z
" id="DejaVuSans-48"/>
      </defs>
      <g transform="translate(51.2375 321.140875)scale(0.2 -0.2)">
       <use xlink:href="#DejaVuSans-48"/>
      </g>
     </g>
    </g>
    <g id="xtick_2">
     <g id="line2d_7">
      <path clip-path="url(#p55b0f445d3)" d="M 137.910857 298.944 
L 137.910857 27.648 
" style="fill:none;stroke:#b0b0b0;stroke-linecap:square;stroke-width:0.8;"/>
     </g>
     <g id="line2d_8">
      <g>
       <use style="stroke:#000000;stroke-width:0.8;" x="137.910857" xlink:href="#m1abf4644cb" y="298.944"/>
      </g>
     </g>
     <g id="text_2">
      <!-- 2 -->
      <defs>
       <path d="M 19.1875 8.296875 
L 53.609375 8.296875 
L 53.609375 0 
L 7.328125 0 
L 7.328125 8.296875 
Q 12.9375 14.109375 22.625 23.890625 
Q 32.328125 33.6875 34.8125 36.53125 
Q 39.546875 41.84375 41.421875 45.53125 
Q 43.3125 49.21875 43.3125 52.78125 
Q 43.3125 58.59375 39.234375 62.25 
Q 35.15625 65.921875 28.609375 65.921875 
Q 23.96875 65.921875 18.8125 64.3125 
Q 13.671875 62.703125 7.8125 59.421875 
L 7.8125 69.390625 
Q 13.765625 71.78125 18.9375 73 
Q 24.125 74.21875 28.421875 74.21875 
Q 39.75 74.21875 46.484375 68.546875 
Q 53.21875 62.890625 53.21875 53.421875 
Q 53.21875 48.921875 51.53125 44.890625 
Q 49.859375 40.875 45.40625 35.40625 
Q 44.1875 33.984375 37.640625 27.21875 
Q 31.109375 20.453125 19.1875 8.296875 
z
" id="DejaVuSans-50"/>
      </defs>
      <g transform="translate(131.548357 321.140875)scale(0.2 -0.2)">
       <use xlink:href="#DejaVuSans-50"/>
      </g>
     </g>
    </g>
    <g id="xtick_3">
     <g id="line2d_9">
      <path clip-path="url(#p55b0f445d3)" d="M 218.221714 298.944 
L 218.221714 27.648 
" style="fill:none;stroke:#b0b0b0;stroke-linecap:square;stroke-width:0.8;"/>
     </g>
     <g id="line2d_10">
      <g>
       <use style="stroke:#000000;stroke-width:0.8;" x="218.221714" xlink:href="#m1abf4644cb" y="298.944"/>
      </g>
     </g>
     <g id="text_3">
      <!-- 4 -->
      <defs>
       <path d="M 37.796875 64.3125 
L 12.890625 25.390625 
L 37.796875 25.390625 
z
M 35.203125 72.90625 
L 47.609375 72.90625 
L 47.609375 25.390625 
L 58.015625 25.390625 
L 58.015625 17.1875 
L 47.609375 17.1875 
L 47.609375 0 
L 37.796875 0 
L 37.796875 17.1875 
L 4.890625 17.1875 
L 4.890625 26.703125 
z
" id="DejaVuSans-52"/>
      </defs>
      <g transform="translate(211.859214 321.140875)scale(0.2 -0.2)">
       <use xlink:href="#DejaVuSans-52"/>
      </g>
     </g>
    </g>
    <g id="xtick_4">
     <g id="line2d_11">
      <path clip-path="url(#p55b0f445d3)" d="M 298.532571 298.944 
L 298.532571 27.648 
" style="fill:none;stroke:#b0b0b0;stroke-linecap:square;stroke-width:0.8;"/>
     </g>
     <g id="line2d_12">
      <g>
       <use style="stroke:#000000;stroke-width:0.8;" x="298.532571" xlink:href="#m1abf4644cb" y="298.944"/>
      </g>
     </g>
     <g id="text_4">
      <!-- 6 -->
      <defs>
       <path d="M 33.015625 40.375 
Q 26.375 40.375 22.484375 35.828125 
Q 18.609375 31.296875 18.609375 23.390625 
Q 18.609375 15.53125 22.484375 10.953125 
Q 26.375 6.390625 33.015625 6.390625 
Q 39.65625 6.390625 43.53125 10.953125 
Q 47.40625 15.53125 47.40625 23.390625 
Q 47.40625 31.296875 43.53125 35.828125 
Q 39.65625 40.375 33.015625 40.375 
z
M 52.59375 71.296875 
L 52.59375 62.3125 
Q 48.875 64.0625 45.09375 64.984375 
Q 41.3125 65.921875 37.59375 65.921875 
Q 27.828125 65.921875 22.671875 59.328125 
Q 17.53125 52.734375 16.796875 39.40625 
Q 19.671875 43.65625 24.015625 45.921875 
Q 28.375 48.1875 33.59375 48.1875 
Q 44.578125 48.1875 50.953125 41.515625 
Q 57.328125 34.859375 57.328125 23.390625 
Q 57.328125 12.15625 50.6875 5.359375 
Q 44.046875 -1.421875 33.015625 -1.421875 
Q 20.359375 -1.421875 13.671875 8.265625 
Q 6.984375 17.96875 6.984375 36.375 
Q 6.984375 53.65625 15.1875 63.9375 
Q 23.390625 74.21875 37.203125 74.21875 
Q 40.921875 74.21875 44.703125 73.484375 
Q 48.484375 72.75 52.59375 71.296875 
z
" id="DejaVuSans-54"/>
      </defs>
      <g transform="translate(292.170071 321.140875)scale(0.2 -0.2)">
       <use xlink:href="#DejaVuSans-54"/>
      </g>
     </g>
    </g>
    <g id="xtick_5">
     <g id="line2d_13">
      <path clip-path="url(#p55b0f445d3)" d="M 97.755429 298.944 
L 97.755429 27.648 
" style="fill:none;stroke:#b0b0b0;stroke-linecap:square;stroke-width:0.8;"/>
     </g>
     <g id="line2d_14">
      <defs>
       <path d="M 0 0 
L 0 2 
" id="m3533e98abe" style="stroke:#000000;stroke-width:0.6;"/>
      </defs>
      <g>
       <use style="stroke:#000000;stroke-width:0.6;" x="97.755429" xlink:href="#m3533e98abe" y="298.944"/>
      </g>
     </g>
    </g>
    <g id="xtick_6">
     <g id="line2d_15">
      <path clip-path="url(#p55b0f445d3)" d="M 178.066286 298.944 
L 178.066286 27.648 
" style="fill:none;stroke:#b0b0b0;stroke-linecap:square;stroke-width:0.8;"/>
     </g>
     <g id="line2d_16">
      <g>
       <use style="stroke:#000000;stroke-width:0.6;" x="178.066286" xlink:href="#m3533e98abe" y="298.944"/>
      </g>
     </g>
    </g>
    <g id="xtick_7">
     <g id="line2d_17">
      <path clip-path="url(#p55b0f445d3)" d="M 258.377143 298.944 
L 258.377143 27.648 
" style="fill:none;stroke:#b0b0b0;stroke-linecap:square;stroke-width:0.8;"/>
     </g>
     <g id="line2d_18">
      <g>
       <use style="stroke:#000000;stroke-width:0.6;" x="258.377143" xlink:href="#m3533e98abe" y="298.944"/>
      </g>
     </g>
    </g>
    <g id="xtick_8">
     <g id="line2d_19">
      <path clip-path="url(#p55b0f445d3)" d="M 338.688 298.944 
L 338.688 27.648 
" style="fill:none;stroke:#b0b0b0;stroke-linecap:square;stroke-width:0.8;"/>
     </g>
     <g id="line2d_20">
      <g>
       <use style="stroke:#000000;stroke-width:0.6;" x="338.688" xlink:href="#m3533e98abe" y="298.944"/>
      </g>
     </g>
    </g>
    <g id="text_5">
     <!-- log10(# f-evals / dimension) -->
     <defs>
      <path d="M 9.421875 75.984375 
L 18.40625 75.984375 
L 18.40625 0 
L 9.421875 0 
z
" id="DejaVuSans-108"/>
      <path d="M 30.609375 48.390625 
Q 23.390625 48.390625 19.1875 42.75 
Q 14.984375 37.109375 14.984375 27.296875 
Q 14.984375 17.484375 19.15625 11.84375 
Q 23.34375 6.203125 30.609375 6.203125 
Q 37.796875 6.203125 41.984375 11.859375 
Q 46.1875 17.53125 46.1875 27.296875 
Q 46.1875 37.015625 41.984375 42.703125 
Q 37.796875 48.390625 30.609375 48.390625 
z
M 30.609375 56 
Q 42.328125 56 49.015625 48.375 
Q 55.71875 40.765625 55.71875 27.296875 
Q 55.71875 13.875 49.015625 6.21875 
Q 42.328125 -1.421875 30.609375 -1.421875 
Q 18.84375 -1.421875 12.171875 6.21875 
Q 5.515625 13.875 5.515625 27.296875 
Q 5.515625 40.765625 12.171875 48.375 
Q 18.84375 56 30.609375 56 
z
" id="DejaVuSans-111"/>
      <path d="M 45.40625 27.984375 
Q 45.40625 37.75 41.375 43.109375 
Q 37.359375 48.484375 30.078125 48.484375 
Q 22.859375 48.484375 18.828125 43.109375 
Q 14.796875 37.75 14.796875 27.984375 
Q 14.796875 18.265625 18.828125 12.890625 
Q 22.859375 7.515625 30.078125 7.515625 
Q 37.359375 7.515625 41.375 12.890625 
Q 45.40625 18.265625 45.40625 27.984375 
z
M 54.390625 6.78125 
Q 54.390625 -7.171875 48.1875 -13.984375 
Q 42 -20.796875 29.203125 -20.796875 
Q 24.46875 -20.796875 20.265625 -20.09375 
Q 16.0625 -19.390625 12.109375 -17.921875 
L 12.109375 -9.1875 
Q 16.0625 -11.328125 19.921875 -12.34375 
Q 23.78125 -13.375 27.78125 -13.375 
Q 36.625 -13.375 41.015625 -8.765625 
Q 45.40625 -4.15625 45.40625 5.171875 
L 45.40625 9.625 
Q 42.625 4.78125 38.28125 2.390625 
Q 33.9375 0 27.875 0 
Q 17.828125 0 11.671875 7.65625 
Q 5.515625 15.328125 5.515625 27.984375 
Q 5.515625 40.671875 11.671875 48.328125 
Q 17.828125 56 27.875 56 
Q 33.9375 56 38.28125 53.609375 
Q 42.625 51.21875 45.40625 46.390625 
L 45.40625 54.6875 
L 54.390625 54.6875 
z
" id="DejaVuSans-103"/>
      <path d="M 12.40625 8.296875 
L 28.515625 8.296875 
L 28.515625 63.921875 
L 10.984375 60.40625 
L 10.984375 69.390625 
L 28.421875 72.90625 
L 38.28125 72.90625 
L 38.28125 8.296875 
L 54.390625 8.296875 
L 54.390625 0 
L 12.40625 0 
z
" id="DejaVuSans-49"/>
      <path d="M 31 75.875 
Q 24.46875 64.65625 21.28125 53.65625 
Q 18.109375 42.671875 18.109375 31.390625 
Q 18.109375 20.125 21.3125 9.0625 
Q 24.515625 -2 31 -13.1875 
L 23.1875 -13.1875 
Q 15.875 -1.703125 12.234375 9.375 
Q 8.59375 20.453125 8.59375 31.390625 
Q 8.59375 42.28125 12.203125 53.3125 
Q 15.828125 64.359375 23.1875 75.875 
z
" id="DejaVuSans-40"/>
      <path d="M 51.125 44 
L 36.921875 44 
L 32.8125 27.6875 
L 47.125 27.6875 
z
M 43.796875 71.78125 
L 38.71875 51.515625 
L 52.984375 51.515625 
L 58.109375 71.78125 
L 65.921875 71.78125 
L 60.890625 51.515625 
L 76.125 51.515625 
L 76.125 44 
L 58.984375 44 
L 54.984375 27.6875 
L 70.515625 27.6875 
L 70.515625 20.21875 
L 53.078125 20.21875 
L 48 0 
L 40.1875 0 
L 45.21875 20.21875 
L 30.90625 20.21875 
L 25.875 0 
L 18.015625 0 
L 23.09375 20.21875 
L 7.71875 20.21875 
L 7.71875 27.6875 
L 24.90625 27.6875 
L 29 44 
L 13.28125 44 
L 13.28125 51.515625 
L 30.90625 51.515625 
L 35.890625 71.78125 
z
" id="DejaVuSans-35"/>
      <path id="DejaVuSans-32"/>
      <path d="M 37.109375 75.984375 
L 37.109375 68.5 
L 28.515625 68.5 
Q 23.6875 68.5 21.796875 66.546875 
Q 19.921875 64.59375 19.921875 59.515625 
L 19.921875 54.6875 
L 34.71875 54.6875 
L 34.71875 47.703125 
L 19.921875 47.703125 
L 19.921875 0 
L 10.890625 0 
L 10.890625 47.703125 
L 2.296875 47.703125 
L 2.296875 54.6875 
L 10.890625 54.6875 
L 10.890625 58.5 
Q 10.890625 67.625 15.140625 71.796875 
Q 19.390625 75.984375 28.609375 75.984375 
z
" id="DejaVuSans-102"/>
      <path d="M 4.890625 31.390625 
L 31.203125 31.390625 
L 31.203125 23.390625 
L 4.890625 23.390625 
z
" id="DejaVuSans-45"/>
      <path d="M 56.203125 29.59375 
L 56.203125 25.203125 
L 14.890625 25.203125 
Q 15.484375 15.921875 20.484375 11.0625 
Q 25.484375 6.203125 34.421875 6.203125 
Q 39.59375 6.203125 44.453125 7.46875 
Q 49.3125 8.734375 54.109375 11.28125 
L 54.109375 2.78125 
Q 49.265625 0.734375 44.1875 -0.34375 
Q 39.109375 -1.421875 33.890625 -1.421875 
Q 20.796875 -1.421875 13.15625 6.1875 
Q 5.515625 13.8125 5.515625 26.8125 
Q 5.515625 40.234375 12.765625 48.109375 
Q 20.015625 56 32.328125 56 
Q 43.359375 56 49.78125 48.890625 
Q 56.203125 41.796875 56.203125 29.59375 
z
M 47.21875 32.234375 
Q 47.125 39.59375 43.09375 43.984375 
Q 39.0625 48.390625 32.421875 48.390625 
Q 24.90625 48.390625 20.390625 44.140625 
Q 15.875 39.890625 15.1875 32.171875 
z
" id="DejaVuSans-101"/>
      <path d="M 2.984375 54.6875 
L 12.5 54.6875 
L 29.59375 8.796875 
L 46.6875 54.6875 
L 56.203125 54.6875 
L 35.6875 0 
L 23.484375 0 
z
" id="DejaVuSans-118"/>
      <path d="M 34.28125 27.484375 
Q 23.390625 27.484375 19.1875 25 
Q 14.984375 22.515625 14.984375 16.5 
Q 14.984375 11.71875 18.140625 8.90625 
Q 21.296875 6.109375 26.703125 6.109375 
Q 34.1875 6.109375 38.703125 11.40625 
Q 43.21875 16.703125 43.21875 25.484375 
L 43.21875 27.484375 
z
M 52.203125 31.203125 
L 52.203125 0 
L 43.21875 0 
L 43.21875 8.296875 
Q 40.140625 3.328125 35.546875 0.953125 
Q 30.953125 -1.421875 24.3125 -1.421875 
Q 15.921875 -1.421875 10.953125 3.296875 
Q 6 8.015625 6 15.921875 
Q 6 25.140625 12.171875 29.828125 
Q 18.359375 34.515625 30.609375 34.515625 
L 43.21875 34.515625 
L 43.21875 35.40625 
Q 43.21875 41.609375 39.140625 45 
Q 35.0625 48.390625 27.6875 48.390625 
Q 23 48.390625 18.546875 47.265625 
Q 14.109375 46.140625 10.015625 43.890625 
L 10.015625 52.203125 
Q 14.9375 54.109375 19.578125 55.046875 
Q 24.21875 56 28.609375 56 
Q 40.484375 56 46.34375 49.84375 
Q 52.203125 43.703125 52.203125 31.203125 
z
" id="DejaVuSans-97"/>
      <path d="M 44.28125 53.078125 
L 44.28125 44.578125 
Q 40.484375 46.53125 36.375 47.5 
Q 32.28125 48.484375 27.875 48.484375 
Q 21.1875 48.484375 17.84375 46.4375 
Q 14.5 44.390625 14.5 40.28125 
Q 14.5 37.15625 16.890625 35.375 
Q 19.28125 33.59375 26.515625 31.984375 
L 29.59375 31.296875 
Q 39.15625 29.25 43.1875 25.515625 
Q 47.21875 21.78125 47.21875 15.09375 
Q 47.21875 7.46875 41.1875 3.015625 
Q 35.15625 -1.421875 24.609375 -1.421875 
Q 20.21875 -1.421875 15.453125 -0.5625 
Q 10.6875 0.296875 5.421875 2 
L 5.421875 11.28125 
Q 10.40625 8.6875 15.234375 7.390625 
Q 20.0625 6.109375 24.8125 6.109375 
Q 31.15625 6.109375 34.5625 8.28125 
Q 37.984375 10.453125 37.984375 14.40625 
Q 37.984375 18.0625 35.515625 20.015625 
Q 33.0625 21.96875 24.703125 23.78125 
L 21.578125 24.515625 
Q 13.234375 26.265625 9.515625 29.90625 
Q 5.8125 33.546875 5.8125 39.890625 
Q 5.8125 47.609375 11.28125 51.796875 
Q 16.75 56 26.8125 56 
Q 31.78125 56 36.171875 55.265625 
Q 40.578125 54.546875 44.28125 53.078125 
z
" id="DejaVuSans-115"/>
      <path d="M 25.390625 72.90625 
L 33.6875 72.90625 
L 8.296875 -9.28125 
L 0 -9.28125 
z
" id="DejaVuSans-47"/>
      <path d="M 45.40625 46.390625 
L 45.40625 75.984375 
L 54.390625 75.984375 
L 54.390625 0 
L 45.40625 0 
L 45.40625 8.203125 
Q 42.578125 3.328125 38.25 0.953125 
Q 33.9375 -1.421875 27.875 -1.421875 
Q 17.96875 -1.421875 11.734375 6.484375 
Q 5.515625 14.40625 5.515625 27.296875 
Q 5.515625 40.1875 11.734375 48.09375 
Q 17.96875 56 27.875 56 
Q 33.9375 56 38.25 53.625 
Q 42.578125 51.265625 45.40625 46.390625 
z
M 14.796875 27.296875 
Q 14.796875 17.390625 18.875 11.75 
Q 22.953125 6.109375 30.078125 6.109375 
Q 37.203125 6.109375 41.296875 11.75 
Q 45.40625 17.390625 45.40625 27.296875 
Q 45.40625 37.203125 41.296875 42.84375 
Q 37.203125 48.484375 30.078125 48.484375 
Q 22.953125 48.484375 18.875 42.84375 
Q 14.796875 37.203125 14.796875 27.296875 
z
" id="DejaVuSans-100"/>
      <path d="M 9.421875 54.6875 
L 18.40625 54.6875 
L 18.40625 0 
L 9.421875 0 
z
M 9.421875 75.984375 
L 18.40625 75.984375 
L 18.40625 64.59375 
L 9.421875 64.59375 
z
" id="DejaVuSans-105"/>
      <path d="M 52 44.1875 
Q 55.375 50.25 60.0625 53.125 
Q 64.75 56 71.09375 56 
Q 79.640625 56 84.28125 50.015625 
Q 88.921875 44.046875 88.921875 33.015625 
L 88.921875 0 
L 79.890625 0 
L 79.890625 32.71875 
Q 79.890625 40.578125 77.09375 44.375 
Q 74.3125 48.1875 68.609375 48.1875 
Q 61.625 48.1875 57.5625 43.546875 
Q 53.515625 38.921875 53.515625 30.90625 
L 53.515625 0 
L 44.484375 0 
L 44.484375 32.71875 
Q 44.484375 40.625 41.703125 44.40625 
Q 38.921875 48.1875 33.109375 48.1875 
Q 26.21875 48.1875 22.15625 43.53125 
Q 18.109375 38.875 18.109375 30.90625 
L 18.109375 0 
L 9.078125 0 
L 9.078125 54.6875 
L 18.109375 54.6875 
L 18.109375 46.1875 
Q 21.1875 51.21875 25.484375 53.609375 
Q 29.78125 56 35.6875 56 
Q 41.65625 56 45.828125 52.96875 
Q 50 49.953125 52 44.1875 
z
" id="DejaVuSans-109"/>
      <path d="M 54.890625 33.015625 
L 54.890625 0 
L 45.90625 0 
L 45.90625 32.71875 
Q 45.90625 40.484375 42.875 44.328125 
Q 39.84375 48.1875 33.796875 48.1875 
Q 26.515625 48.1875 22.3125 43.546875 
Q 18.109375 38.921875 18.109375 30.90625 
L 18.109375 0 
L 9.078125 0 
L 9.078125 54.6875 
L 18.109375 54.6875 
L 18.109375 46.1875 
Q 21.34375 51.125 25.703125 53.5625 
Q 30.078125 56 35.796875 56 
Q 45.21875 56 50.046875 50.171875 
Q 54.890625 44.34375 54.890625 33.015625 
z
" id="DejaVuSans-110"/>
      <path d="M 8.015625 75.875 
L 15.828125 75.875 
Q 23.140625 64.359375 26.78125 53.3125 
Q 30.421875 42.28125 30.421875 31.390625 
Q 30.421875 20.453125 26.78125 9.375 
Q 23.140625 -1.703125 15.828125 -13.1875 
L 8.015625 -13.1875 
Q 14.5 -2 17.703125 9.0625 
Q 20.90625 20.125 20.90625 31.390625 
Q 20.90625 42.671875 17.703125 53.65625 
Q 14.5 64.65625 8.015625 75.875 
z
" id="DejaVuSans-41"/>
     </defs>
     <g transform="translate(77.303219 342.217594)scale(0.17 -0.17)">
      <use xlink:href="#DejaVuSans-108"/>
      <use x="27.783203" xlink:href="#DejaVuSans-111"/>
      <use x="88.964844" xlink:href="#DejaVuSans-103"/>
      <use x="152.441406" xlink:href="#DejaVuSans-49"/>
      <use x="216.064453" xlink:href="#DejaVuSans-48"/>
      <use x="279.6875" xlink:href="#DejaVuSans-40"/>
      <use x="318.701172" xlink:href="#DejaVuSans-35"/>
      <use x="402.490234" xlink:href="#DejaVuSans-32"/>
      <use x="434.277344" xlink:href="#DejaVuSans-102"/>
      <use x="469.404297" xlink:href="#DejaVuSans-45"/>
      <use x="505.488281" xlink:href="#DejaVuSans-101"/>
      <use x="567.011719" xlink:href="#DejaVuSans-118"/>
      <use x="626.191406" xlink:href="#DejaVuSans-97"/>
      <use x="687.470703" xlink:href="#DejaVuSans-108"/>
      <use x="715.253906" xlink:href="#DejaVuSans-115"/>
      <use x="767.353516" xlink:href="#DejaVuSans-32"/>
      <use x="799.140625" xlink:href="#DejaVuSans-47"/>
      <use x="832.832031" xlink:href="#DejaVuSans-32"/>
      <use x="864.619141" xlink:href="#DejaVuSans-100"/>
      <use x="928.095703" xlink:href="#DejaVuSans-105"/>
      <use x="955.878906" xlink:href="#DejaVuSans-109"/>
      <use x="1053.291016" xlink:href="#DejaVuSans-101"/>
      <use x="1114.814453" xlink:href="#DejaVuSans-110"/>
      <use x="1178.193359" xlink:href="#DejaVuSans-115"/>
      <use x="1230.292969" xlink:href="#DejaVuSans-105"/>
      <use x="1258.076172" xlink:href="#DejaVuSans-111"/>
      <use x="1319.257812" xlink:href="#DejaVuSans-110"/>
      <use x="1382.636719" xlink:href="#DejaVuSans-41"/>
     </g>
    </g>
   </g>
   <g id="matplotlib.axis_2">
    <g id="ytick_1">
     <g id="line2d_21">
      <path clip-path="url(#p55b0f445d3)" d="M 57.6 298.944 
L 338.688 298.944 
" style="fill:none;stroke:#b0b0b0;stroke-linecap:square;stroke-width:0.8;"/>
     </g>
     <g id="line2d_22">
      <defs>
       <path d="M 0 0 
L -3.5 0 
" id="m233cf601f3" style="stroke:#000000;stroke-width:0.8;"/>
      </defs>
      <g>
       <use style="stroke:#000000;stroke-width:0.8;" x="57.6" xlink:href="#m233cf601f3" y="298.944"/>
      </g>
     </g>
     <g id="text_6">
      <!-- 0.0 -->
      <defs>
       <path d="M 10.6875 12.40625 
L 21 12.40625 
L 21 0 
L 10.6875 0 
z
" id="DejaVuSans-46"/>
      </defs>
      <g transform="translate(25.155 305.02275)scale(0.16 -0.16)">
       <use xlink:href="#DejaVuSans-48"/>
       <use x="63.623047" xlink:href="#DejaVuSans-46"/>
       <use x="95.410156" xlink:href="#DejaVuSans-48"/>
      </g>
     </g>
    </g>
    <g id="ytick_2">
     <g id="line2d_23">
      <path clip-path="url(#p55b0f445d3)" d="M 57.6 245.22202 
L 338.688 245.22202 
" style="fill:none;stroke:#b0b0b0;stroke-linecap:square;stroke-width:0.8;"/>
     </g>
     <g id="line2d_24">
      <g>
       <use style="stroke:#000000;stroke-width:0.8;" x="57.6" xlink:href="#m233cf601f3" y="245.22202"/>
      </g>
     </g>
     <g id="text_7">
      <!-- 0.2 -->
      <g transform="translate(25.155 251.30077)scale(0.16 -0.16)">
       <use xlink:href="#DejaVuSans-48"/>
       <use x="63.623047" xlink:href="#DejaVuSans-46"/>
       <use x="95.410156" xlink:href="#DejaVuSans-50"/>
      </g>
     </g>
    </g>
    <g id="ytick_3">
     <g id="line2d_25">
      <path clip-path="url(#p55b0f445d3)" d="M 57.6 191.50004 
L 338.688 191.50004 
" style="fill:none;stroke:#b0b0b0;stroke-linecap:square;stroke-width:0.8;"/>
     </g>
     <g id="line2d_26">
      <g>
       <use style="stroke:#000000;stroke-width:0.8;" x="57.6" xlink:href="#m233cf601f3" y="191.50004"/>
      </g>
     </g>
     <g id="text_8">
      <!-- 0.4 -->
      <g transform="translate(25.155 197.57879)scale(0.16 -0.16)">
       <use xlink:href="#DejaVuSans-48"/>
       <use x="63.623047" xlink:href="#DejaVuSans-46"/>
       <use x="95.410156" xlink:href="#DejaVuSans-52"/>
      </g>
     </g>
    </g>
    <g id="ytick_4">
     <g id="line2d_27">
      <path clip-path="url(#p55b0f445d3)" d="M 57.6 137.778059 
L 338.688 137.778059 
" style="fill:none;stroke:#b0b0b0;stroke-linecap:square;stroke-width:0.8;"/>
     </g>
     <g id="line2d_28">
      <g>
       <use style="stroke:#000000;stroke-width:0.8;" x="57.6" xlink:href="#m233cf601f3" y="137.778059"/>
      </g>
     </g>
     <g id="text_9">
      <!-- 0.6 -->
      <g transform="translate(25.155 143.856809)scale(0.16 -0.16)">
       <use xlink:href="#DejaVuSans-48"/>
       <use x="63.623047" xlink:href="#DejaVuSans-46"/>
       <use x="95.410156" xlink:href="#DejaVuSans-54"/>
      </g>
     </g>
    </g>
    <g id="ytick_5">
     <g id="line2d_29">
      <path clip-path="url(#p55b0f445d3)" d="M 57.6 84.056079 
L 338.688 84.056079 
" style="fill:none;stroke:#b0b0b0;stroke-linecap:square;stroke-width:0.8;"/>
     </g>
     <g id="line2d_30">
      <g>
       <use style="stroke:#000000;stroke-width:0.8;" x="57.6" xlink:href="#m233cf601f3" y="84.056079"/>
      </g>
     </g>
     <g id="text_10">
      <!-- 0.8 -->
      <defs>
       <path d="M 31.78125 34.625 
Q 24.75 34.625 20.71875 30.859375 
Q 16.703125 27.09375 16.703125 20.515625 
Q 16.703125 13.921875 20.71875 10.15625 
Q 24.75 6.390625 31.78125 6.390625 
Q 38.8125 6.390625 42.859375 10.171875 
Q 46.921875 13.96875 46.921875 20.515625 
Q 46.921875 27.09375 42.890625 30.859375 
Q 38.875 34.625 31.78125 34.625 
z
M 21.921875 38.8125 
Q 15.578125 40.375 12.03125 44.71875 
Q 8.5 49.078125 8.5 55.328125 
Q 8.5 64.0625 14.71875 69.140625 
Q 20.953125 74.21875 31.78125 74.21875 
Q 42.671875 74.21875 48.875 69.140625 
Q 55.078125 64.0625 55.078125 55.328125 
Q 55.078125 49.078125 51.53125 44.71875 
Q 48 40.375 41.703125 38.8125 
Q 48.828125 37.15625 52.796875 32.3125 
Q 56.78125 27.484375 56.78125 20.515625 
Q 56.78125 9.90625 50.3125 4.234375 
Q 43.84375 -1.421875 31.78125 -1.421875 
Q 19.734375 -1.421875 13.25 4.234375 
Q 6.78125 9.90625 6.78125 20.515625 
Q 6.78125 27.484375 10.78125 32.3125 
Q 14.796875 37.15625 21.921875 38.8125 
z
M 18.3125 54.390625 
Q 18.3125 48.734375 21.84375 45.5625 
Q 25.390625 42.390625 31.78125 42.390625 
Q 38.140625 42.390625 41.71875 45.5625 
Q 45.3125 48.734375 45.3125 54.390625 
Q 45.3125 60.0625 41.71875 63.234375 
Q 38.140625 66.40625 31.78125 66.40625 
Q 25.390625 66.40625 21.84375 63.234375 
Q 18.3125 60.0625 18.3125 54.390625 
z
" id="DejaVuSans-56"/>
      </defs>
      <g transform="translate(25.155 90.134829)scale(0.16 -0.16)">
       <use xlink:href="#DejaVuSans-48"/>
       <use x="63.623047" xlink:href="#DejaVuSans-46"/>
       <use x="95.410156" xlink:href="#DejaVuSans-56"/>
      </g>
     </g>
    </g>
    <g id="ytick_6">
     <g id="line2d_31">
      <path clip-path="url(#p55b0f445d3)" d="M 57.6 30.334099 
L 338.688 30.334099 
" style="fill:none;stroke:#b0b0b0;stroke-linecap:square;stroke-width:0.8;"/>
     </g>
     <g id="line2d_32">
      <g>
       <use style="stroke:#000000;stroke-width:0.8;" x="57.6" xlink:href="#m233cf601f3" y="30.334099"/>
      </g>
     </g>
     <g id="text_11">
      <!-- 1.0 -->
      <g transform="translate(25.155 36.412849)scale(0.16 -0.16)">
       <use xlink:href="#DejaVuSans-49"/>
       <use x="63.623047" xlink:href="#DejaVuSans-46"/>
       <use x="95.410156" xlink:href="#DejaVuSans-48"/>
      </g>
     </g>
    </g>
    <g id="text_12">
     <!-- Fraction of function,target pairs -->
     <defs>
      <path d="M 9.8125 72.90625 
L 51.703125 72.90625 
L 51.703125 64.59375 
L 19.671875 64.59375 
L 19.671875 43.109375 
L 48.578125 43.109375 
L 48.578125 34.8125 
L 19.671875 34.8125 
L 19.671875 0 
L 9.8125 0 
z
" id="DejaVuSans-70"/>
      <path d="M 41.109375 46.296875 
Q 39.59375 47.171875 37.8125 47.578125 
Q 36.03125 48 33.890625 48 
Q 26.265625 48 22.1875 43.046875 
Q 18.109375 38.09375 18.109375 28.8125 
L 18.109375 0 
L 9.078125 0 
L 9.078125 54.6875 
L 18.109375 54.6875 
L 18.109375 46.1875 
Q 20.953125 51.171875 25.484375 53.578125 
Q 30.03125 56 36.53125 56 
Q 37.453125 56 38.578125 55.875 
Q 39.703125 55.765625 41.0625 55.515625 
z
" id="DejaVuSans-114"/>
      <path d="M 48.78125 52.59375 
L 48.78125 44.1875 
Q 44.96875 46.296875 41.140625 47.34375 
Q 37.3125 48.390625 33.40625 48.390625 
Q 24.65625 48.390625 19.8125 42.84375 
Q 14.984375 37.3125 14.984375 27.296875 
Q 14.984375 17.28125 19.8125 11.734375 
Q 24.65625 6.203125 33.40625 6.203125 
Q 37.3125 6.203125 41.140625 7.25 
Q 44.96875 8.296875 48.78125 10.40625 
L 48.78125 2.09375 
Q 45.015625 0.34375 40.984375 -0.53125 
Q 36.96875 -1.421875 32.421875 -1.421875 
Q 20.0625 -1.421875 12.78125 6.34375 
Q 5.515625 14.109375 5.515625 27.296875 
Q 5.515625 40.671875 12.859375 48.328125 
Q 20.21875 56 33.015625 56 
Q 37.15625 56 41.109375 55.140625 
Q 45.0625 54.296875 48.78125 52.59375 
z
" id="DejaVuSans-99"/>
      <path d="M 18.3125 70.21875 
L 18.3125 54.6875 
L 36.8125 54.6875 
L 36.8125 47.703125 
L 18.3125 47.703125 
L 18.3125 18.015625 
Q 18.3125 11.328125 20.140625 9.421875 
Q 21.96875 7.515625 27.59375 7.515625 
L 36.8125 7.515625 
L 36.8125 0 
L 27.59375 0 
Q 17.1875 0 13.234375 3.875 
Q 9.28125 7.765625 9.28125 18.015625 
L 9.28125 47.703125 
L 2.6875 47.703125 
L 2.6875 54.6875 
L 9.28125 54.6875 
L 9.28125 70.21875 
z
" id="DejaVuSans-116"/>
      <path d="M 8.5 21.578125 
L 8.5 54.6875 
L 17.484375 54.6875 
L 17.484375 21.921875 
Q 17.484375 14.15625 20.5 10.265625 
Q 23.53125 6.390625 29.59375 6.390625 
Q 36.859375 6.390625 41.078125 11.03125 
Q 45.3125 15.671875 45.3125 23.6875 
L 45.3125 54.6875 
L 54.296875 54.6875 
L 54.296875 0 
L 45.3125 0 
L 45.3125 8.40625 
Q 42.046875 3.421875 37.71875 1 
Q 33.40625 -1.421875 27.6875 -1.421875 
Q 18.265625 -1.421875 13.375 4.4375 
Q 8.5 10.296875 8.5 21.578125 
z
M 31.109375 56 
z
" id="DejaVuSans-117"/>
      <path d="M 11.71875 12.40625 
L 22.015625 12.40625 
L 22.015625 4 
L 14.015625 -11.625 
L 7.71875 -11.625 
L 11.71875 4 
z
" id="DejaVuSans-44"/>
      <path d="M 18.109375 8.203125 
L 18.109375 -20.796875 
L 9.078125 -20.796875 
L 9.078125 54.6875 
L 18.109375 54.6875 
L 18.109375 46.390625 
Q 20.953125 51.265625 25.265625 53.625 
Q 29.59375 56 35.59375 56 
Q 45.5625 56 51.78125 48.09375 
Q 58.015625 40.1875 58.015625 27.296875 
Q 58.015625 14.40625 51.78125 6.484375 
Q 45.5625 -1.421875 35.59375 -1.421875 
Q 29.59375 -1.421875 25.265625 0.953125 
Q 20.953125 3.328125 18.109375 8.203125 
z
M 48.6875 27.296875 
Q 48.6875 37.203125 44.609375 42.84375 
Q 40.53125 48.484375 33.40625 48.484375 
Q 26.265625 48.484375 22.1875 42.84375 
Q 18.109375 37.203125 18.109375 27.296875 
Q 18.109375 17.390625 22.1875 11.75 
Q 26.265625 6.109375 33.40625 6.109375 
Q 40.53125 6.109375 44.609375 11.75 
Q 48.6875 17.390625 48.6875 27.296875 
z
" id="DejaVuSans-112"/>
     </defs>
     <g transform="translate(17.619531 298.435375)rotate(-90)scale(0.17 -0.17)">
      <use xlink:href="#DejaVuSans-70"/>
      <use x="57.410156" xlink:href="#DejaVuSans-114"/>
      <use x="98.523438" xlink:href="#DejaVuSans-97"/>
      <use x="159.802734" xlink:href="#DejaVuSans-99"/>
      <use x="214.783203" xlink:href="#DejaVuSans-116"/>
      <use x="253.992188" xlink:href="#DejaVuSans-105"/>
      <use x="281.775391" xlink:href="#DejaVuSans-111"/>
      <use x="342.957031" xlink:href="#DejaVuSans-110"/>
      <use x="406.335938" xlink:href="#DejaVuSans-32"/>
      <use x="438.123047" xlink:href="#DejaVuSans-111"/>
      <use x="499.304688" xlink:href="#DejaVuSans-102"/>
      <use x="534.509766" xlink:href="#DejaVuSans-32"/>
      <use x="566.296875" xlink:href="#DejaVuSans-102"/>
      <use x="601.501953" xlink:href="#DejaVuSans-117"/>
      <use x="664.880859" xlink:href="#DejaVuSans-110"/>
      <use x="728.259766" xlink:href="#DejaVuSans-99"/>
      <use x="783.240234" xlink:href="#DejaVuSans-116"/>
      <use x="822.449219" xlink:href="#DejaVuSans-105"/>
      <use x="850.232422" xlink:href="#DejaVuSans-111"/>
      <use x="911.414062" xlink:href="#DejaVuSans-110"/>
      <use x="974.792969" xlink:href="#DejaVuSans-44"/>
      <use x="1006.580078" xlink:href="#DejaVuSans-116"/>
      <use x="1045.789062" xlink:href="#DejaVuSans-97"/>
      <use x="1107.068359" xlink:href="#DejaVuSans-114"/>
      <use x="1148.166016" xlink:href="#DejaVuSans-103"/>
      <use x="1211.642578" xlink:href="#DejaVuSans-101"/>
      <use x="1273.166016" xlink:href="#DejaVuSans-116"/>
      <use x="1312.375" xlink:href="#DejaVuSans-32"/>
      <use x="1344.162109" xlink:href="#DejaVuSans-112"/>
      <use x="1407.638672" xlink:href="#DejaVuSans-97"/>
      <use x="1468.917969" xlink:href="#DejaVuSans-105"/>
      <use x="1496.701172" xlink:href="#DejaVuSans-114"/>
      <use x="1537.814453" xlink:href="#DejaVuSans-115"/>
     </g>
    </g>
   </g>
   <g id="line2d_33">
    <defs>
     <path d="M 0 1.5 
C 0.397805 1.5 0.77937 1.341951 1.06066 1.06066 
C 1.341951 0.77937 1.5 0.397805 1.5 0 
C 1.5 -0.397805 1.341951 -0.77937 1.06066 -1.06066 
C 0.77937 -1.341951 0.397805 -1.5 0 -1.5 
C -0.397805 -1.5 -0.77937 -1.341951 -1.06066 -1.06066 
C -1.341951 -0.77937 -1.5 -0.397805 -1.5 0 
C -1.5 0.397805 -1.341951 0.77937 -1.06066 1.06066 
C -0.77937 1.341951 -0.397805 1.5 0 1.5 
z
" id="m7a2c45c50f" style="stroke:#f5deb3;"/>
    </defs>
    <g>
     <use style="fill:#f5deb3;stroke:#f5deb3;" x="165.364212" xlink:href="#m7a2c45c50f" y="30.334099"/>
     <use style="fill:#f5deb3;stroke:#f5deb3;" x="165.364212" xlink:href="#m7a2c45c50f" y="30.334099"/>
    </g>
   </g>
   <g id="line2d_34">
    <defs>
     <path d="M 0 1.5 
C 0.397805 1.5 0.77937 1.341951 1.06066 1.06066 
C 1.341951 0.77937 1.5 0.397805 1.5 0 
C 1.5 -0.397805 1.341951 -0.77937 1.06066 -1.06066 
C 0.77937 -1.341951 0.397805 -1.5 0 -1.5 
C -0.397805 -1.5 -0.77937 -1.341951 -1.06066 -1.06066 
C -1.341951 -0.77937 -1.5 -0.397805 -1.5 0 
C -1.5 0.397805 -1.341951 0.77937 -1.06066 1.06066 
C -0.77937 1.341951 -0.397805 1.5 0 1.5 
z
" id="m0369e48c13" style="stroke:#000080;"/>
    </defs>
    <g>
     <use style="fill:#000080;stroke:#000080;" x="163.883215" xlink:href="#m0369e48c13" y="30.334099"/>
     <use style="fill:#000080;stroke:#000080;" x="163.883215" xlink:href="#m0369e48c13" y="30.334099"/>
    </g>
   </g>
   <g id="line2d_35">
    <path d="M 137.629572 298.944 
L 137.629572 298.417314 
L 139.715103 298.417314 
L 139.715103 297.890628 
L 140.841591 297.890628 
L 140.841591 297.363942 
L 141.478449 297.363942 
L 141.478449 296.837256 
L 142.065403 296.837256 
L 142.065403 296.31057 
L 142.659828 296.31057 
L 142.659828 295.783884 
L 143.678752 295.783884 
L 143.678752 295.257197 
L 144.038338 295.257197 
L 144.038338 294.730511 
L 144.665111 294.730511 
L 144.665111 294.203825 
L 145.201387 294.203825 
L 145.24725 293.150453 
L 145.463466 293.150453 
L 145.463466 292.623767 
L 145.621085 292.623767 
L 145.621085 292.097081 
L 145.810583 292.097081 
L 145.821666 291.043709 
L 146.030918 291.043709 
L 146.030918 290.517023 
L 146.484754 290.517023 
L 146.484754 289.990337 
L 146.612281 289.990337 
L 146.612281 289.463651 
L 146.78088 289.463651 
L 146.78088 288.936964 
L 147.174888 288.936964 
L 147.215849 287.883592 
L 147.4697 287.883592 
L 147.4697 287.356906 
L 147.61026 287.356906 
L 147.61026 286.303534 
L 147.769524 286.303534 
L 147.86833 284.19679 
L 148.093482 284.19679 
L 148.093482 283.670104 
L 148.286932 283.670104 
L 148.286932 283.143418 
L 148.676918 283.143418 
L 148.714503 281.036673 
L 148.798773 281.036673 
L 148.798773 280.509987 
L 149.15016 280.509987 
L 149.15016 279.983301 
L 149.350404 279.983301 
L 149.350404 279.456615 
L 149.575199 279.456615 
L 149.575199 278.929929 
L 149.85877 278.929929 
L 149.928949 277.349871 
L 150.094499 277.349871 
L 150.094499 276.823185 
L 150.707961 276.823185 
L 150.73306 275.243126 
L 150.874606 275.243126 
L 150.874606 274.71644 
L 151.047887 274.71644 
L 151.047887 274.189754 
L 151.260066 274.189754 
L 151.357131 272.609696 
L 151.397416 272.609696 
L 151.397416 272.08301 
L 151.541675 272.08301 
L 151.60541 271.029638 
L 151.865879 271.029638 
L 151.920633 269.976266 
L 152.076134 269.976266 
L 152.122515 267.869521 
L 152.451351 267.869521 
L 152.451351 267.342835 
L 152.707042 267.342835 
L 152.759222 265.762777 
L 152.988446 265.762777 
L 153.098289 264.709405 
L 153.192929 264.709405 
L 153.287059 262.075974 
L 153.308709 262.075974 
L 153.344733 261.022602 
L 153.423725 261.022602 
L 153.516621 258.915858 
L 153.566437 258.915858 
L 153.566437 258.389172 
L 153.813407 258.389172 
L 153.890309 256.809114 
L 153.946025 256.809114 
L 153.980758 255.755741 
L 154.173993 255.755741 
L 154.269814 253.122311 
L 154.297094 253.122311 
L 154.399019 251.542253 
L 154.533999 251.542253 
L 154.533999 251.015567 
L 154.674612 251.015567 
L 154.761093 248.908822 
L 154.86035 248.908822 
L 154.945917 247.85545 
L 154.991819 247.85545 
L 155.024532 246.275392 
L 155.122304 246.275392 
L 155.206599 244.695334 
L 155.296925 244.695334 
L 155.399584 239.955159 
L 155.476185 239.955159 
L 155.527065 238.901787 
L 155.596784 238.901787 
L 155.697699 236.268356 
L 155.779264 236.268356 
L 155.885354 233.634926 
L 155.897793 233.634926 
L 155.996986 231.528182 
L 156.015522 231.528182 
L 156.077167 229.948123 
L 156.144725 229.948123 
L 156.224231 225.207949 
L 156.303376 225.207949 
L 156.38821 224.154577 
L 156.454576 224.154577 
L 156.550661 221.521146 
L 156.574599 221.521146 
L 156.681918 218.36103 
L 156.699741 218.36103 
L 156.806295 214.674227 
L 156.818094 214.674227 
L 156.923929 208.88068 
L 156.92979 208.88068 
L 156.999969 205.720564 
L 157.122105 205.720564 
L 157.214591 201.507075 
L 157.272146 201.507075 
L 157.380981 197.293586 
L 157.426604 197.293586 
L 157.506157 194.660156 
L 157.602273 194.660156 
L 157.686643 189.393295 
L 157.714676 189.393295 
L 157.731474 188.339923 
L 157.831925 188.339923 
L 157.904114 184.653121 
L 157.953917 184.653121 
L 158.014595 183.073062 
L 158.069574 183.073062 
L 158.179014 179.38626 
L 158.18992 179.38626 
L 158.271501 174.119399 
L 158.320268 174.119399 
L 158.428151 170.959282 
L 158.433528 170.959282 
L 158.540715 166.745794 
L 158.546057 166.745794 
L 158.636623 162.532305 
L 158.67908 162.532305 
L 158.76896 157.265444 
L 158.795307 157.265444 
L 158.884591 151.471897 
L 158.957778 151.471897 
L 158.98905 149.891839 
L 159.098062 149.891839 
L 159.206397 145.678351 
L 159.211539 145.678351 
L 159.283369 141.464862 
L 159.354904 141.464862 
L 159.431225 138.304745 
L 159.466728 138.304745 
L 159.577838 132.511199 
L 159.582872 132.511199 
L 159.688246 126.190966 
L 159.703247 126.190966 
L 159.807898 124.610907 
L 159.817832 124.610907 
L 159.906985 120.924105 
L 159.961244 120.924105 
L 160.034962 118.290674 
L 160.074152 118.290674 
L 160.171742 115.130558 
L 160.210625 115.130558 
L 160.31711 110.917069 
L 160.336402 110.917069 
L 160.442124 107.230267 
L 160.470846 107.230267 
L 160.566247 101.963406 
L 160.594766 101.963406 
L 160.684769 97.749917 
L 160.736665 97.749917 
L 160.835312 93.536429 
L 160.849359 93.536429 
L 160.942717 87.742882 
L 160.984566 87.742882 
L 161.086442 82.476021 
L 161.118732 82.476021 
L 161.228992 79.315904 
L 161.238149 79.315904 
L 161.347658 73.522358 
L 161.352206 73.522358 
L 161.429341 69.835555 
L 161.474555 69.835555 
L 161.573617 65.09538 
L 161.600536 65.09538 
L 161.7078 61.408578 
L 161.712255 61.408578 
L 161.787817 59.82852 
L 161.840959 59.82852 
L 161.946759 56.668403 
L 161.973109 56.668403 
L 162.065021 52.9816 
L 162.099909 52.9816 
L 162.19549 49.821484 
L 162.238764 49.821484 
L 162.329291 45.607995 
L 162.385097 45.607995 
L 162.470604 43.501251 
L 162.50469 43.501251 
L 162.568423 41.921193 
L 162.636148 41.921193 
L 162.733045 39.814448 
L 162.770815 39.814448 
L 162.841936 37.707704 
L 162.962595 37.707704 
L 162.983314 36.127646 
L 163.086542 36.127646 
L 163.086542 34.547588 
L 163.238207 34.547588 
L 163.343998 32.967529 
L 163.372371 32.967529 
L 163.400698 31.914157 
L 163.637643 31.914157 
L 163.673506 30.860785 
L 163.883215 30.860785 
L 163.883215 30.334099 
L 338.688 30.334099 
L 338.688 30.334099 
" style="fill:none;stroke:#000080;stroke-linecap:square;stroke-width:1.5;"/>
   </g>
   <g id="line2d_36">
    <defs>
     <path d="M 0 6 
C 1.591219 6 3.117479 5.367802 4.242641 4.242641 
C 5.367802 3.117479 6 1.591219 6 0 
C 6 -1.591219 5.367802 -3.117479 4.242641 -4.242641 
C 3.117479 -5.367802 1.591219 -6 0 -6 
C -1.591219 -6 -3.117479 -5.367802 -4.242641 -4.242641 
C -5.367802 -3.117479 -6 -1.591219 -6 0 
C -6 1.591219 -5.367802 3.117479 -4.242641 4.242641 
C -3.117479 5.367802 -1.591219 6 0 6 
z
" id="m6242144fa9" style="stroke:#000080;stroke-width:1.5;"/>
    </defs>
    <g>
     <use style="fill-opacity:0;stroke:#000080;stroke-width:1.5;" x="159.857512" xlink:href="#m6242144fa9" y="122.504163"/>
     <use style="fill-opacity:0;stroke:#000080;stroke-width:1.5;" x="163.883215" xlink:href="#m6242144fa9" y="30.860785"/>
     <use style="fill-opacity:0;stroke:#000080;stroke-width:1.5;" x="163.883215" xlink:href="#m6242144fa9" y="30.334099"/>
     <use style="fill-opacity:0;stroke:#000080;stroke-width:1.5;" x="163.883215" xlink:href="#m6242144fa9" y="30.334099"/>
     <use style="fill-opacity:0;stroke:#000080;stroke-width:1.5;" x="338.688" xlink:href="#m6242144fa9" y="30.334099"/>
    </g>
   </g>
   <g id="line2d_37">
    <path style="fill:none;stroke:#000080;stroke-linecap:square;stroke-width:1.5;"/>
    <g/>
   </g>
   <g id="line2d_38">
    <g>
     <use style="fill:#000080;stroke:#000080;" x="163.938192" xlink:href="#m0369e48c13" y="30.334099"/>
     <use style="fill:#000080;stroke:#000080;" x="163.938192" xlink:href="#m0369e48c13" y="30.334099"/>
    </g>
   </g>
   <g id="line2d_39">
    <path d="M 139.793552 298.944 
L 139.887228 297.890628 
L 141.002999 297.890628 
L 141.002999 297.363942 
L 141.220721 297.363942 
L 141.220721 296.837256 
L 141.350061 296.837256 
L 141.350061 296.31057 
L 141.605898 296.31057 
L 141.605898 295.783884 
L 142.037896 295.783884 
L 142.133981 294.730511 
L 142.593291 294.730511 
L 142.593291 294.203825 
L 143.273169 294.203825 
L 143.285988 293.150453 
L 143.565632 293.150453 
L 143.565632 292.623767 
L 144.378627 292.623767 
L 144.378627 292.097081 
L 144.546314 292.097081 
L 144.546314 291.570395 
L 144.818346 291.570395 
L 144.853518 289.990337 
L 145.120836 289.990337 
L 145.120836 289.463651 
L 145.258697 289.463651 
L 145.338615 288.410278 
L 145.677034 288.410278 
L 145.699363 287.356906 
L 145.799493 287.356906 
L 145.832743 285.776848 
L 146.030918 285.776848 
L 146.074653 284.723476 
L 146.377764 284.723476 
L 146.420639 283.670104 
L 146.77039 283.670104 
L 146.77039 283.143418 
L 146.885432 283.143418 
L 146.906268 282.090045 
L 147.041095 282.090045 
L 147.041095 281.563359 
L 147.164632 281.563359 
L 147.215849 280.509987 
L 147.398994 280.509987 
L 147.449528 279.456615 
L 147.749695 279.456615 
L 147.749695 278.929929 
L 148.411533 278.929929 
L 148.411533 278.403243 
L 148.695721 278.403243 
L 148.780082 276.823185 
L 148.845415 276.823185 
L 148.845415 276.296499 
L 149.259669 276.296499 
L 149.259669 275.769812 
L 149.40462 275.769812 
L 149.413639 274.71644 
L 149.88512 274.71644 
L 149.88512 274.189754 
L 150.016276 274.189754 
L 150.042389 273.136382 
L 150.284246 273.136382 
L 150.301393 272.08301 
L 150.403927 272.08301 
L 150.437972 271.029638 
L 150.539708 271.029638 
L 150.632448 268.922893 
L 150.816462 268.922893 
L 150.91602 267.869521 
L 150.957336 267.869521 
L 150.957336 266.816149 
L 151.349063 266.816149 
L 151.445635 265.762777 
L 151.557631 265.762777 
L 151.645126 264.709405 
L 151.676833 264.709405 
L 151.787359 262.075974 
L 151.84236 262.075974 
L 151.858043 261.022602 
L 151.99078 261.022602 
L 152.045145 259.96923 
L 152.161072 259.96923 
L 152.23026 258.389172 
L 152.291531 258.389172 
L 152.39064 256.809114 
L 152.443774 256.809114 
L 152.481628 254.702369 
L 152.684631 254.702369 
L 152.774102 253.122311 
L 152.900071 253.122311 
L 152.959038 250.488881 
L 153.13475 250.488881 
L 153.236437 248.908822 
L 153.250915 248.908822 
L 153.250915 248.382136 
L 153.366312 248.382136 
L 153.438049 246.802078 
L 153.48809 246.802078 
L 153.573542 245.748706 
L 153.693887 245.748706 
L 153.715038 244.695334 
L 153.952977 244.695334 
L 154.050017 243.115275 
L 154.077643 243.115275 
L 154.077643 242.588589 
L 154.337936 242.588589 
L 154.337936 242.061903 
L 154.486875 242.061903 
L 154.5944 240.481845 
L 154.601099 240.481845 
L 154.634552 239.428473 
L 154.747816 239.428473 
L 154.847148 237.848415 
L 154.959044 237.848415 
L 155.017994 236.795043 
L 155.083261 236.795043 
L 155.187182 234.688298 
L 155.200129 234.688298 
L 155.200129 234.161612 
L 155.316219 234.161612 
L 155.405981 233.10824 
L 155.609431 233.10824 
L 155.691409 231.528182 
L 155.760475 231.528182 
L 155.773004 230.47481 
L 155.916435 230.47481 
L 155.990803 228.894751 
L 156.064855 228.894751 
L 156.150854 227.314693 
L 156.199806 227.314693 
L 156.230332 226.261321 
L 156.333721 226.261321 
L 156.442528 223.101204 
L 156.448553 223.101204 
L 156.550661 221.521146 
L 156.598505 221.521146 
L 156.693802 219.414402 
L 156.717545 219.414402 
L 156.729404 218.36103 
L 156.829885 218.36103 
L 156.92979 215.200913 
L 156.98245 215.200913 
L 157.093102 212.040797 
L 157.133693 212.040797 
L 157.237636 208.88068 
L 157.26065 208.88068 
L 157.335239 205.720564 
L 157.37527 205.720564 
L 157.472107 202.560447 
L 157.506157 202.560447 
L 157.557108 200.980389 
L 157.624812 200.980389 
L 157.709073 196.7669 
L 157.748256 196.7669 
L 157.84861 195.713528 
L 157.887482 195.713528 
L 157.992555 192.026726 
L 158.031107 192.026726 
L 158.140788 187.813237 
L 158.162642 187.813237 
L 158.260646 183.599748 
L 158.28235 183.599748 
L 158.314856 181.493004 
L 158.422772 181.493004 
L 158.51933 176.226143 
L 158.562073 176.226143 
L 158.604712 172.012655 
L 158.689678 172.012655 
L 158.800572 167.27248 
L 158.832127 167.27248 
L 158.915995 163.058991 
L 158.947342 163.058991 
L 159.051426 157.79213 
L 159.0618 157.79213 
L 159.123917 152.52527 
L 159.190962 152.52527 
L 159.262876 149.365153 
L 159.324282 149.365153 
L 159.421068 145.678351 
L 159.436301 145.678351 
L 159.542562 143.04492 
L 159.547605 143.04492 
L 159.643163 139.358118 
L 159.683242 139.358118 
L 159.728221 135.671315 
L 159.797958 135.671315 
L 159.906985 128.29771 
L 159.9218 128.29771 
L 160.000599 126.190966 
L 160.049669 126.190966 
L 160.157138 121.450791 
L 160.162007 121.450791 
L 160.225184 117.237302 
L 160.278464 117.237302 
L 160.379729 114.077186 
L 160.394148 114.077186 
L 160.475629 109.863697 
L 160.509069 109.863697 
L 160.618496 103.016778 
L 160.64693 103.016778 
L 160.750792 99.329976 
L 160.774311 99.329976 
L 160.835312 95.643173 
L 160.919424 95.643173 
L 161.02168 88.269568 
L 161.054091 88.269568 
L 161.150963 85.109451 
L 161.173949 85.109451 
L 161.283861 79.842591 
L 161.306672 79.842591 
L 161.402155 77.20916 
L 161.433867 77.20916 
L 161.53316 73.522358 
L 161.569126 73.522358 
L 161.654251 69.308869 
L 161.689969 69.308869 
L 161.792252 66.148752 
L 161.801118 66.148752 
L 161.911563 62.46195 
L 161.92917 62.46195 
L 162.021314 59.82852 
L 162.069386 59.82852 
L 162.152109 57.195089 
L 162.204154 57.195089 
L 162.221468 56.141717 
L 162.320689 56.141717 
L 162.406513 52.9816 
L 162.487656 52.9816 
L 162.598085 49.821484 
L 162.615012 49.821484 
L 162.695193 48.768112 
L 162.745644 48.768112 
L 162.841936 45.607995 
L 162.862799 45.607995 
L 162.941851 42.974565 
L 162.999872 42.974565 
L 163.070067 39.814448 
L 163.144084 39.814448 
L 163.164589 38.23439 
L 163.287113 38.23439 
L 163.396654 36.654332 
L 163.445119 36.654332 
L 163.49345 35.60096 
L 163.629664 35.60096 
L 163.717238 32.440843 
L 163.77274 32.440843 
L 163.800424 31.387471 
L 163.930348 31.387471 
L 163.938192 30.334099 
L 338.688 30.334099 
L 338.688 30.334099 
" style="fill:none;stroke:#000080;stroke-linecap:square;stroke-width:1.5;"/>
   </g>
   <g id="line2d_40">
    <g>
     <use style="fill-opacity:0;stroke:#000080;stroke-width:1.5;" x="155.609431" xlink:href="#m6242144fa9" y="233.10824"/>
     <use style="fill-opacity:0;stroke:#000080;stroke-width:1.5;" x="163.045324" xlink:href="#m6242144fa9" y="41.921193"/>
     <use style="fill-opacity:0;stroke:#000080;stroke-width:1.5;" x="163.938192" xlink:href="#m6242144fa9" y="30.334099"/>
     <use style="fill-opacity:0;stroke:#000080;stroke-width:1.5;" x="163.938192" xlink:href="#m6242144fa9" y="30.334099"/>
     <use style="fill-opacity:0;stroke:#000080;stroke-width:1.5;" x="338.688" xlink:href="#m6242144fa9" y="30.334099"/>
    </g>
   </g>
   <g id="line2d_41">
    <path style="fill:none;stroke:#000080;stroke-linecap:square;stroke-width:1.5;"/>
    <g/>
   </g>
   <g id="line2d_42">
    <defs>
     <path d="M 0 1.5 
C 0.397805 1.5 0.77937 1.341951 1.06066 1.06066 
C 1.341951 0.77937 1.5 0.397805 1.5 0 
C 1.5 -0.397805 1.341951 -0.77937 1.06066 -1.06066 
C 0.77937 -1.341951 0.397805 -1.5 0 -1.5 
C -0.397805 -1.5 -0.77937 -1.341951 -1.06066 -1.06066 
C -1.341951 -0.77937 -1.5 -0.397805 -1.5 0 
C -1.5 0.397805 -1.341951 0.77937 -1.06066 1.06066 
C -0.77937 1.341951 -0.397805 1.5 0 1.5 
z
" id="m87b37fe5d5" style="stroke:#ff00ff;"/>
    </defs>
    <g>
     <use style="fill:#ff00ff;stroke:#ff00ff;" x="168.867706" xlink:href="#m87b37fe5d5" y="30.334099"/>
     <use style="fill:#ff00ff;stroke:#ff00ff;" x="168.867706" xlink:href="#m87b37fe5d5" y="30.334099"/>
    </g>
   </g>
   <g id="line2d_43">
    <path d="M 144.570138 298.944 
L 144.570138 298.417314 
L 146.60169 298.417314 
L 146.60169 297.890628 
L 147.092675 297.890628 
L 147.092675 297.363942 
L 147.297484 297.363942 
L 147.297484 296.837256 
L 147.828875 296.837256 
L 147.828875 296.31057 
L 148.209809 296.31057 
L 148.267683 294.730511 
L 148.733265 294.730511 
L 148.733265 294.203825 
L 149.085961 294.203825 
L 149.122675 293.150453 
L 149.286939 293.150453 
L 149.377533 291.570395 
L 149.548376 291.570395 
L 149.548376 291.043709 
L 149.83238 291.043709 
L 149.841182 289.990337 
L 150.437972 289.990337 
L 150.488914 288.936964 
L 150.598782 288.936964 
L 150.598782 288.410278 
L 150.866312 288.410278 
L 150.940821 287.356906 
L 151.015013 287.356906 
L 151.0643 285.776848 
L 151.235715 285.776848 
L 151.235715 285.250162 
L 151.381313 285.250162 
L 151.381313 284.723476 
L 151.60541 284.723476 
L 151.660987 283.670104 
L 151.755852 283.670104 
L 151.810952 282.616732 
L 151.897188 282.616732 
L 151.897188 282.090045 
L 152.352588 282.090045 
L 152.352588 281.563359 
L 152.624728 281.563359 
L 152.714506 280.509987 
L 152.848312 280.509987 
L 152.848312 279.983301 
L 153.032466 279.983301 
L 153.105587 278.929929 
L 153.149313 278.929929 
L 153.229193 276.823185 
L 153.359122 276.823185 
L 153.359122 276.296499 
L 153.502361 276.296499 
L 153.523746 275.243126 
L 153.686831 275.243126 
L 153.686831 274.189754 
L 153.952977 274.189754 
L 154.029268 273.136382 
L 154.19457 273.136382 
L 154.290278 270.502952 
L 154.344733 270.502952 
L 154.36511 269.449579 
L 154.473387 269.449579 
L 154.473387 268.922893 
L 154.621179 268.922893 
L 154.721232 267.869521 
L 154.8141 267.869521 
L 154.880133 265.762777 
L 154.926208 265.762777 
L 154.952482 264.709405 
L 155.04413 264.709405 
L 155.083261 263.656033 
L 155.180705 263.656033 
L 155.180705 263.129347 
L 155.303359 263.129347 
L 155.399584 261.022602 
L 155.476185 261.022602 
L 155.501643 259.442544 
L 155.685117 259.442544 
L 155.747938 257.3358 
L 155.816782 257.3358 
L 155.885354 255.229055 
L 156.064855 255.229055 
L 156.156981 253.122311 
L 156.224231 253.122311 
L 156.327657 250.488881 
L 156.364014 250.488881 
L 156.472632 248.382136 
L 156.526689 248.382136 
L 156.526689 247.85545 
L 156.652174 247.85545 
L 156.729404 245.22202 
L 156.812195 245.22202 
L 156.847557 243.641962 
L 156.970762 243.641962 
L 157.058236 242.061903 
L 157.093102 242.061903 
L 157.093102 241.535217 
L 157.426604 241.535217 
L 157.432298 240.481845 
L 157.641697 240.481845 
L 157.742664 238.901787 
L 157.781772 238.901787 
L 157.831925 237.321729 
L 157.959442 237.321729 
L 157.98704 236.268356 
L 158.293192 236.268356 
L 158.374293 235.214984 
L 158.412011 235.214984 
L 158.428151 234.161612 
L 158.551397 234.161612 
L 158.604712 231.528182 
L 158.710855 231.528182 
L 158.76896 229.948123 
L 158.905533 229.948123 
L 159.015067 228.894751 
L 159.041045 228.894751 
L 159.123917 226.788007 
L 159.226956 226.788007 
L 159.293606 225.207949 
L 159.431225 225.207949 
L 159.451521 224.154577 
L 159.613044 224.154577 
L 159.723229 221.521146 
L 159.743188 221.521146 
L 159.802929 218.887716 
L 159.867418 218.887716 
L 159.951391 216.780971 
L 160.000599 216.780971 
L 160.093714 214.674227 
L 160.157138 214.674227 
L 160.157138 214.147541 
L 160.273627 214.147541 
L 160.321935 211.514111 
L 160.408554 211.514111 
L 160.518612 207.827308 
L 160.575759 207.827308 
L 160.642194 206.24725 
L 160.731954 206.24725 
L 160.830627 202.560447 
L 160.933404 202.560447 
L 161.017045 198.346959 
L 161.12334 198.346959 
L 161.224411 195.186842 
L 161.242725 195.186842 
L 161.334007 190.446667 
L 161.370386 190.446667 
L 161.470039 186.759865 
L 161.483584 186.759865 
L 161.573617 184.126434 
L 161.605019 184.126434 
L 161.694428 179.38626 
L 161.725614 179.38626 
L 161.796686 175.172771 
L 161.876297 175.172771 
L 161.981883 170.959282 
L 161.990653 170.959282 
L 162.02569 168.852538 
L 162.121678 168.852538 
L 162.178151 166.745794 
L 162.273306 166.745794 
L 162.355069 163.585677 
L 162.397949 163.585677 
L 162.500433 160.425561 
L 162.517456 160.425561 
L 162.62347 154.632014 
L 162.669913 154.632014 
L 162.779197 148.838467 
L 162.80432 148.838467 
L 162.879471 145.678351 
L 162.9543 145.678351 
L 163.04945 141.991548 
L 163.065945 141.991548 
L 163.16049 138.304745 
L 163.180975 138.304745 
L 163.250446 136.198001 
L 163.307451 136.198001 
L 163.404741 131.457826 
L 163.428979 131.457826 
L 163.537636 127.771024 
L 163.609699 127.771024 
L 163.697374 124.084221 
L 163.741046 124.084221 
L 163.851722 119.344047 
L 163.867476 119.344047 
L 163.953867 114.603872 
L 164.008622 114.603872 
L 164.098204 111.970441 
L 164.133133 111.970441 
L 164.229793 107.756953 
L 164.272154 107.756953 
L 164.295217 105.650209 
L 164.387164 105.650209 
L 164.497624 100.910034 
L 164.543127 100.910034 
L 164.652607 94.063115 
L 164.682688 94.063115 
L 164.738949 91.429684 
L 164.806225 91.429684 
L 164.910363 86.162824 
L 164.991751 86.162824 
L 165.069087 82.476021 
L 165.10946 82.476021 
L 165.193576 79.315904 
L 165.248216 79.315904 
L 165.346138 76.155788 
L 165.375047 76.155788 
L 165.407513 74.049044 
L 165.515296 74.049044 
L 165.611735 70.362241 
L 165.643763 70.362241 
L 165.735959 66.148752 
L 165.76423 66.148752 
L 165.862816 62.988636 
L 165.880363 62.988636 
L 165.960849 58.775147 
L 166.040966 58.775147 
L 166.113796 55.088345 
L 166.158729 55.088345 
L 166.200103 51.928228 
L 166.272273 51.928228 
L 166.368037 48.768112 
L 166.405516 48.768112 
L 166.507321 46.661368 
L 166.591708 46.661368 
L 166.668984 44.554623 
L 166.719198 44.554623 
L 166.772601 42.447879 
L 166.968122 42.447879 
L 167.073257 40.867821 
L 167.135383 40.867821 
L 167.167992 38.761076 
L 167.262214 38.761076 
L 167.313982 37.707704 
L 167.455557 37.707704 
L 167.487573 36.127646 
L 167.567357 36.127646 
L 167.580089 35.074274 
L 167.722684 35.074274 
L 167.795118 34.020902 
L 168.128195 34.020902 
L 168.128195 33.494215 
L 168.257216 33.494215 
L 168.360967 32.440843 
L 168.427772 32.440843 
L 168.485263 31.387471 
L 168.867706 31.387471 
L 168.867706 30.334099 
L 338.688 30.334099 
L 338.688 30.334099 
" style="fill:none;stroke:#ff00ff;stroke-linecap:square;stroke-width:1.5;"/>
   </g>
   <g id="line2d_44">
    <defs>
     <path d="M -0 8.485281 
L 5.091169 0 
L 0 -8.485281 
L -5.091169 -0 
z
" id="m2bb2757122" style="stroke:#ff00ff;stroke-linejoin:miter;stroke-width:1.5;"/>
    </defs>
    <g>
     <use style="fill-opacity:0;stroke:#ff00ff;stroke-linejoin:miter;stroke-width:1.5;" x="157.058236" xlink:href="#m2bb2757122" y="242.588589"/>
     <use style="fill-opacity:0;stroke:#ff00ff;stroke-linejoin:miter;stroke-width:1.5;" x="168.867706" xlink:href="#m2bb2757122" y="31.387471"/>
     <use style="fill-opacity:0;stroke:#ff00ff;stroke-linejoin:miter;stroke-width:1.5;" x="168.867706" xlink:href="#m2bb2757122" y="30.334099"/>
     <use style="fill-opacity:0;stroke:#ff00ff;stroke-linejoin:miter;stroke-width:1.5;" x="168.867706" xlink:href="#m2bb2757122" y="30.334099"/>
     <use style="fill-opacity:0;stroke:#ff00ff;stroke-linejoin:miter;stroke-width:1.5;" x="338.688" xlink:href="#m2bb2757122" y="30.334099"/>
    </g>
   </g>
   <g id="line2d_45">
    <path style="fill:none;stroke:#ff00ff;stroke-linecap:square;stroke-width:1.5;"/>
    <g/>
   </g>
   <g id="line2d_46">
    <defs>
     <path d="M 0 1.5 
C 0.397805 1.5 0.77937 1.341951 1.06066 1.06066 
C 1.341951 0.77937 1.5 0.397805 1.5 0 
C 1.5 -0.397805 1.341951 -0.77937 1.06066 -1.06066 
C 0.77937 -1.341951 0.397805 -1.5 0 -1.5 
C -0.397805 -1.5 -0.77937 -1.341951 -1.06066 -1.06066 
C -1.341951 -0.77937 -1.5 -0.397805 -1.5 0 
C -1.5 0.397805 -1.341951 0.77937 -1.06066 1.06066 
C -0.77937 1.341951 -0.397805 1.5 0 1.5 
z
" id="m153dab7278" style="stroke:#ff0000;"/>
    </defs>
    <g>
     <use style="fill:#ff0000;stroke:#ff0000;" x="165.054383" xlink:href="#m153dab7278" y="30.334099"/>
     <use style="fill:#ff0000;stroke:#ff0000;" x="165.054383" xlink:href="#m153dab7278" y="30.334099"/>
    </g>
   </g>
   <g id="line2d_47">
    <path d="M 139.155847 298.944 
L 139.155847 298.417314 
L 142.188649 298.417314 
L 142.188649 297.890628 
L 142.606619 297.890628 
L 142.606619 296.837256 
L 143.791143 296.837256 
L 143.890442 295.783884 
L 145.02832 295.783884 
L 145.02832 295.257197 
L 145.178411 295.257197 
L 145.178411 294.730511 
L 145.338615 294.730511 
L 145.338615 294.203825 
L 145.865929 294.203825 
L 145.865929 293.677139 
L 146.06373 293.677139 
L 146.06373 293.150453 
L 146.302479 293.150453 
L 146.302479 292.623767 
L 146.548634 292.623767 
L 146.548634 292.097081 
L 146.791364 292.097081 
L 146.843687 291.043709 
L 147.205618 291.043709 
L 147.287301 289.990337 
L 147.459617 289.990337 
L 147.499916 288.936964 
L 147.848613 288.936964 
L 147.848613 288.410278 
L 148.044783 288.410278 
L 148.103206 287.356906 
L 148.315765 287.356906 
L 148.40198 285.776848 
L 148.563676 285.776848 
L 148.563676 285.250162 
L 148.882639 285.250162 
L 148.984596 284.19679 
L 149.113504 284.19679 
L 149.168459 283.143418 
L 149.413639 283.143418 
L 149.413639 282.616732 
L 149.58413 282.616732 
L 149.58413 282.090045 
L 149.911431 282.090045 
L 149.911431 281.563359 
L 150.085825 281.563359 
L 150.085825 281.036673 
L 150.206871 281.036673 
L 150.224095 279.983301 
L 150.369816 279.983301 
L 150.446473 278.403243 
L 150.522794 278.403243 
L 150.522794 277.876557 
L 150.707961 277.876557 
L 150.707961 277.349871 
L 150.940821 277.349871 
L 150.990318 276.296499 
L 151.0643 276.296499 
L 151.154299 275.243126 
L 151.332915 275.243126 
L 151.365195 274.189754 
L 151.573572 274.189754 
L 151.61336 273.136382 
L 151.708484 273.136382 
L 151.708484 272.609696 
L 151.920633 272.609696 
L 151.959639 271.556324 
L 152.091608 271.556324 
L 152.091608 271.029638 
L 152.23026 271.029638 
L 152.23026 270.502952 
L 152.451351 270.502952 
L 152.451351 269.976266 
L 152.617226 269.976266 
L 152.662192 268.922893 
L 152.848312 268.922893 
L 152.907453 267.342835 
L 153.01047 267.342835 
L 153.01047 266.816149 
L 153.185667 266.816149 
L 153.243677 265.236091 
L 153.31592 265.236091 
L 153.359122 264.182719 
L 153.473807 264.182719 
L 153.473807 263.656033 
L 153.67271 263.656033 
L 153.67271 263.129347 
L 153.792374 263.129347 
L 153.792374 262.60266 
L 153.952977 262.60266 
L 154.056927 261.022602 
L 154.070741 261.022602 
L 154.084543 259.96923 
L 154.493614 259.96923 
L 154.493614 259.442544 
L 154.694607 259.442544 
L 154.787617 258.389172 
L 154.86035 258.389172 
L 154.906477 255.755741 
L 155.115803 255.755741 
L 155.200129 254.175683 
L 155.30979 254.175683 
L 155.367568 251.542253 
L 155.431542 251.542253 
L 155.431542 251.015567 
L 155.565128 251.015567 
L 155.565128 250.488881 
L 155.716556 250.488881 
L 155.760475 249.435508 
L 155.847985 249.435508 
L 155.94126 247.328764 
L 155.984618 247.328764 
L 155.984618 246.802078 
L 156.107908 246.802078 
L 156.175347 245.22202 
L 156.260804 245.22202 
L 156.357959 242.061903 
L 156.394253 242.061903 
L 156.502685 239.955159 
L 156.664077 239.955159 
L 156.759018 236.795043 
L 156.829885 236.795043 
L 156.923929 235.214984 
L 156.999969 235.214984 
L 157.034952 233.10824 
L 157.122105 233.10824 
L 157.203057 231.528182 
L 157.26065 231.528182 
L 157.312322 227.841379 
L 157.403807 227.841379 
L 157.403807 227.314693 
L 157.534482 227.314693 
L 157.630442 223.101204 
L 157.686643 223.101204 
L 157.770607 222.047832 
L 157.80408 222.047832 
L 157.887482 220.99446 
L 157.981524 220.99446 
L 158.064083 216.254285 
L 158.107956 216.254285 
L 158.206267 213.620855 
L 158.271501 213.620855 
L 158.314856 211.514111 
L 158.395856 211.514111 
L 158.460386 209.407366 
L 158.508628 209.407366 
L 158.615355 207.300622 
L 158.641936 207.300622 
L 158.716146 205.193878 
L 158.779504 205.193878 
L 158.868869 200.453703 
L 158.9003 200.453703 
L 158.973421 196.7669 
L 159.118749 196.7669 
L 159.226956 194.13347 
L 159.252621 194.13347 
L 159.349804 189.919981 
L 159.415988 189.919981 
L 159.497101 185.706493 
L 159.552648 185.706493 
L 159.62811 180.966318 
L 159.668223 180.966318 
L 159.763125 178.332888 
L 159.792986 178.332888 
L 159.837683 176.752829 
L 159.931669 176.752829 
L 160.025151 173.592713 
L 160.059466 173.592713 
L 160.137647 168.852538 
L 160.176607 168.852538 
L 160.259108 165.165736 
L 160.297798 165.165736 
L 160.408554 160.952247 
L 160.422949 160.952247 
L 160.518612 154.105328 
L 160.556731 154.105328 
L 160.656397 151.471897 
L 160.698938 151.471897 
L 160.802491 148.838467 
L 160.811875 148.838467 
L 160.919424 141.991548 
L 160.924085 141.991548 
L 161.026314 137.778059 
L 161.054091 137.778059 
L 161.155563 134.091257 
L 161.173949 134.091257 
L 161.274728 131.984513 
L 161.297551 131.984513 
L 161.393084 125.66428 
L 161.415753 125.66428 
L 161.519653 123.557535 
L 161.560142 123.557535 
L 161.649781 121.977477 
L 161.685508 121.977477 
L 161.787817 114.603872 
L 161.801118 114.603872 
L 161.911563 110.917069 
L 161.937967 110.917069 
L 162.02569 107.756953 
L 162.069386 107.756953 
L 162.134726 102.490092 
L 162.191157 102.490092 
L 162.29486 95.643173 
L 162.303474 95.643173 
L 162.389382 92.483056 
L 162.423627 92.483056 
L 162.513202 91.429684 
L 162.542958 91.429684 
L 162.640372 87.216196 
L 162.657259 87.216196 
L 162.766623 83.002707 
L 162.783387 83.002707 
L 162.887802 78.789218 
L 162.90029 78.789218 
L 163.004009 75.629102 
L 163.01228 75.629102 
L 163.115337 72.468985 
L 163.13998 72.468985 
L 163.238207 69.308869 
L 163.283043 69.308869 
L 163.39261 62.988636 
L 163.396654 62.988636 
L 163.505512 56.668403 
L 163.52961 56.668403 
L 163.625673 53.508287 
L 163.649606 53.508287 
L 163.717238 50.34817 
L 163.78461 50.34817 
L 163.879282 48.241426 
L 163.910725 48.241426 
L 164.012526 44.554623 
L 164.028135 44.554623 
L 164.098204 41.921193 
L 164.183463 41.921193 
L 164.245209 38.761076 
L 164.299057 38.761076 
L 164.398623 36.127646 
L 164.440577 36.127646 
L 164.478629 34.547588 
L 164.663893 34.547588 
L 164.735204 32.440843 
L 164.802494 32.440843 
L 164.910363 31.387471 
L 165.021253 31.387471 
L 165.054383 30.334099 
L 338.688 30.334099 
L 338.688 30.334099 
" style="fill:none;stroke:#ff0000;stroke-linecap:square;stroke-width:1.5;"/>
   </g>
   <g id="line2d_48">
    <defs>
     <path d="M 0 -6 
L -5.196152 -3 
L -5.196152 3 
L -0 6 
L 5.196152 3 
L 5.196152 -3 
z
" id="m8af713c05e" style="stroke:#ff0000;stroke-linejoin:miter;stroke-width:1.5;"/>
    </defs>
    <g>
     <use style="fill-opacity:0;stroke:#ff0000;stroke-linejoin:miter;stroke-width:1.5;" x="158.716146" xlink:href="#m8af713c05e" y="205.193878"/>
     <use style="fill-opacity:0;stroke:#ff0000;stroke-linejoin:miter;stroke-width:1.5;" x="165.054383" xlink:href="#m8af713c05e" y="30.860785"/>
     <use style="fill-opacity:0;stroke:#ff0000;stroke-linejoin:miter;stroke-width:1.5;" x="165.054383" xlink:href="#m8af713c05e" y="30.334099"/>
     <use style="fill-opacity:0;stroke:#ff0000;stroke-linejoin:miter;stroke-width:1.5;" x="165.054383" xlink:href="#m8af713c05e" y="30.334099"/>
     <use style="fill-opacity:0;stroke:#ff0000;stroke-linejoin:miter;stroke-width:1.5;" x="338.688" xlink:href="#m8af713c05e" y="30.334099"/>
    </g>
   </g>
   <g id="line2d_49">
    <path style="fill:none;stroke:#ff0000;stroke-linecap:square;stroke-width:1.5;"/>
    <g/>
   </g>
   <g id="line2d_50">
    <defs>
     <path d="M 0 1.5 
C 0.397805 1.5 0.77937 1.341951 1.06066 1.06066 
C 1.341951 0.77937 1.5 0.397805 1.5 0 
C 1.5 -0.397805 1.341951 -0.77937 1.06066 -1.06066 
C 0.77937 -1.341951 0.397805 -1.5 0 -1.5 
C -0.397805 -1.5 -0.77937 -1.341951 -1.06066 -1.06066 
C -1.341951 -0.77937 -1.5 -0.397805 -1.5 0 
C -1.5 0.397805 -1.341951 0.77937 -1.06066 1.06066 
C -0.77937 1.341951 -0.397805 1.5 0 1.5 
z
" id="m78c292db8f" style="stroke:#ff7500;"/>
    </defs>
    <g>
     <use style="fill:#ff7500;stroke:#ff7500;" x="164.701462" xlink:href="#m78c292db8f" y="30.334099"/>
     <use style="fill:#ff7500;stroke:#ff7500;" x="164.701462" xlink:href="#m78c292db8f" y="30.334099"/>
    </g>
   </g>
   <g id="line2d_51">
    <path d="M 141.075875 298.944 
L 141.075875 298.417314 
L 142.133981 298.417314 
L 142.133981 297.890628 
L 143.527762 297.890628 
L 143.527762 297.363942 
L 144.724207 297.363942 
L 144.724207 296.837256 
L 145.109299 296.837256 
L 145.109299 296.31057 
L 146.686244 296.31057 
L 146.686244 295.783884 
L 147.215849 295.783884 
L 147.215849 295.257197 
L 147.358461 295.257197 
L 147.358461 294.730511 
L 147.650212 294.730511 
L 147.650212 294.203825 
L 147.779429 294.203825 
L 147.779429 293.677139 
L 147.907696 293.677139 
L 147.907696 293.150453 
L 148.258051 293.150453 
L 148.325365 291.043709 
L 148.506778 291.043709 
L 148.506778 290.517023 
L 148.686322 290.517023 
L 148.686322 289.990337 
L 148.808112 289.990337 
L 148.808112 289.463651 
L 148.993835 289.463651 
L 148.993835 288.936964 
L 149.131841 288.936964 
L 149.131841 288.410278 
L 149.476646 288.410278 
L 149.575199 286.83022 
L 149.717561 286.83022 
L 149.752971 285.776848 
L 149.920192 285.776848 
L 149.937701 284.723476 
L 150.129152 284.723476 
L 150.215485 283.143418 
L 150.335638 283.143418 
L 150.38688 282.090045 
L 150.47195 282.090045 
L 150.47195 281.563359 
L 150.716332 281.563359 
L 150.758122 279.983301 
L 150.841405 279.983301 
L 150.858013 278.929929 
L 151.0643 278.929929 
L 151.121626 277.876557 
L 151.437608 277.876557 
L 151.445635 276.823185 
L 151.60541 276.823185 
L 151.684751 275.769812 
L 151.755852 275.769812 
L 151.755852 275.243126 
L 151.881541 275.243126 
L 151.959639 273.136382 
L 152.029629 273.136382 
L 152.076134 272.08301 
L 152.207228 272.08301 
L 152.207228 271.556324 
L 152.322086 271.556324 
L 152.322086 271.029638 
L 152.504301 271.029638 
L 152.564618 269.976266 
L 152.647216 269.976266 
L 152.647216 269.449579 
L 152.774102 269.449579 
L 152.796398 267.869521 
L 152.900071 267.869521 
L 152.944315 266.816149 
L 153.105587 266.816149 
L 153.214697 265.236091 
L 153.27261 265.236091 
L 153.373499 263.656033 
L 153.473807 263.656033 
L 153.495227 262.60266 
L 153.601933 262.60266 
L 153.601933 262.075974 
L 153.722083 262.075974 
L 153.827414 260.495916 
L 153.932113 260.495916 
L 153.994632 258.915858 
L 154.056927 258.915858 
L 154.167129 257.3358 
L 154.180855 257.3358 
L 154.269814 254.175683 
L 154.324333 254.175683 
L 154.324333 253.122311 
L 154.459889 253.122311 
L 154.533999 252.068939 
L 154.587699 252.068939 
L 154.68128 249.962195 
L 154.767728 249.962195 
L 154.833936 247.328764 
L 154.919633 247.328764 
L 154.998366 245.748706 
L 155.050658 245.748706 
L 155.141793 243.641962 
L 155.393186 243.641962 
L 155.393186 243.115275 
L 155.55879 243.115275 
L 155.603109 242.061903 
L 155.672525 242.061903 
L 155.779264 239.955159 
L 155.804285 239.955159 
L 155.891575 236.795043 
L 155.959855 236.795043 
L 155.984618 235.214984 
L 156.272978 235.214984 
L 156.327657 233.10824 
L 156.466616 233.10824 
L 156.532685 231.001496 
L 156.592532 231.001496 
L 156.640261 229.421437 
L 156.723476 229.421437 
L 156.806295 225.207949 
L 156.953214 225.207949 
L 157.017469 222.047832 
L 157.11051 222.047832 
L 157.208825 217.307658 
L 157.237636 217.307658 
L 157.335239 215.727599 
L 157.363842 215.727599 
L 157.472107 213.620855 
L 157.483465 213.620855 
L 157.574059 212.567483 
L 157.602273 212.567483 
L 157.669802 209.934052 
L 157.73707 209.934052 
L 157.820792 206.24725 
L 157.84861 206.24725 
L 157.915194 204.667192 
L 157.964965 204.667192 
L 158.053098 202.560447 
L 158.086033 202.560447 
L 158.162642 199.927017 
L 158.206267 199.927017 
L 158.298611 197.293586 
L 158.390468 197.293586 
L 158.487203 193.080098 
L 158.51933 193.080098 
L 158.625992 189.393295 
L 158.641936 189.393295 
L 158.747853 184.126434 
L 158.75841 184.126434 
L 158.868869 180.439632 
L 158.889829 180.439632 
L 158.973421 174.646085 
L 159.015067 174.646085 
L 159.108409 169.90591 
L 159.129083 169.90591 
L 159.201253 168.325852 
L 159.257749 168.325852 
L 159.360003 164.63905 
L 159.370195 164.63905 
L 159.456591 161.478933 
L 159.486982 161.478933 
L 159.582872 157.79213 
L 159.638147 157.79213 
L 159.743188 154.105328 
L 159.753159 154.105328 
L 159.837683 147.258409 
L 159.897102 147.258409 
L 159.990769 144.624978 
L 160.010424 144.624978 
L 160.103486 140.938176 
L 160.142522 140.938176 
L 160.21548 138.831432 
L 160.259108 138.831432 
L 160.312284 135.144629 
L 160.384537 135.144629 
L 160.466062 129.877768 
L 160.499521 129.877768 
L 160.599515 125.137593 
L 160.627979 125.137593 
L 160.703658 121.977477 
L 160.746084 121.977477 
L 160.854038 117.237302 
L 160.863394 117.237302 
L 160.947372 112.497128 
L 160.979921 112.497128 
L 161.072584 109.863697 
L 161.104901 109.863697 
L 161.206078 103.016778 
L 161.228992 103.016778 
L 161.315788 99.856662 
L 161.347658 99.856662 
L 161.433867 93.009743 
L 161.474555 93.009743 
L 161.578106 89.849626 
L 161.61398 89.849626 
L 161.694428 86.68951 
L 161.738962 86.68951 
L 161.836537 80.369277 
L 161.854219 80.369277 
L 161.911563 76.682474 
L 161.96872 76.682474 
L 162.07375 72.468985 
L 162.173813 72.468985 
L 162.234442 69.835555 
L 162.286241 69.835555 
L 162.389382 65.09538 
L 162.410793 65.09538 
L 162.491916 62.988636 
L 162.581141 62.988636 
L 162.661478 58.248461 
L 162.695193 58.248461 
L 162.741445 54.034973 
L 162.9543 54.034973 
L 163.03294 50.874856 
L 163.082425 50.874856 
L 163.172784 48.768112 
L 163.217788 48.768112 
L 163.323704 45.081309 
L 163.335883 45.081309 
L 163.36427 44.027937 
L 163.473328 44.027937 
L 163.525596 41.921193 
L 163.641632 41.921193 
L 163.737081 38.23439 
L 163.812276 38.23439 
L 163.887148 36.127646 
L 163.957784 36.127646 
L 164.059312 34.547588 
L 164.074879 34.547588 
L 164.117618 33.494215 
L 164.202782 33.494215 
L 164.272154 31.914157 
L 164.406259 31.914157 
L 164.516598 30.860785 
L 164.701462 30.860785 
L 164.701462 30.334099 
L 338.688 30.334099 
L 338.688 30.334099 
" style="fill:none;stroke:#ff7500;stroke-linecap:square;stroke-width:1.5;"/>
   </g>
   <g id="line2d_52">
    <defs>
     <path d="M 0 -6 
L -1.347084 -1.854102 
L -5.706339 -1.854102 
L -2.179628 0.708204 
L -3.526712 4.854102 
L -0 2.291796 
L 3.526712 4.854102 
L 2.179628 0.708204 
L 5.706339 -1.854102 
L 1.347084 -1.854102 
z
" id="m5c5aa832a3" style="stroke:#ff7500;stroke-linejoin:bevel;stroke-width:1.5;"/>
    </defs>
    <g>
     <use style="fill-opacity:0;stroke:#ff7500;stroke-linejoin:bevel;stroke-width:1.5;" x="158.779504" xlink:href="#m5c5aa832a3" y="183.599748"/>
     <use style="fill-opacity:0;stroke:#ff7500;stroke-linejoin:bevel;stroke-width:1.5;" x="164.701462" xlink:href="#m5c5aa832a3" y="30.860785"/>
     <use style="fill-opacity:0;stroke:#ff7500;stroke-linejoin:bevel;stroke-width:1.5;" x="164.701462" xlink:href="#m5c5aa832a3" y="30.334099"/>
     <use style="fill-opacity:0;stroke:#ff7500;stroke-linejoin:bevel;stroke-width:1.5;" x="164.701462" xlink:href="#m5c5aa832a3" y="30.334099"/>
     <use style="fill-opacity:0;stroke:#ff7500;stroke-linejoin:bevel;stroke-width:1.5;" x="338.688" xlink:href="#m5c5aa832a3" y="30.334099"/>
    </g>
   </g>
   <g id="line2d_53">
    <path style="fill:none;stroke:#ff7500;stroke-linecap:square;stroke-width:1.5;"/>
    <g/>
   </g>
   <g id="line2d_54">
    <path d="M 338.688 30.334099 
L 369.60768 293.571802 
" style="fill:none;stroke:#ff00ff;stroke-linecap:square;stroke-width:1.5;"/>
    <g>
     <use style="fill-opacity:0;stroke:#ff00ff;stroke-linejoin:miter;stroke-width:1.5;" x="338.688" xlink:href="#m2bb2757122" y="30.334099"/>
     <use style="fill-opacity:0;stroke:#ff00ff;stroke-linejoin:miter;stroke-width:1.5;" x="369.60768" xlink:href="#m2bb2757122" y="293.571802"/>
    </g>
   </g>
   <g id="line2d_55">
    <path d="M 338.688 30.334099 
L 369.60768 190.4256 
" style="fill:none;stroke:#ff0000;stroke-linecap:square;stroke-width:1.5;"/>
    <g>
     <use style="fill-opacity:0;stroke:#ff0000;stroke-linejoin:miter;stroke-width:1.5;" x="338.688" xlink:href="#m8af713c05e" y="30.334099"/>
     <use style="fill-opacity:0;stroke:#ff0000;stroke-linejoin:miter;stroke-width:1.5;" x="369.60768" xlink:href="#m8af713c05e" y="190.4256"/>
    </g>
   </g>
   <g id="line2d_56">
    <path d="M 338.688 30.334099 
L 369.60768 138.852499 
" style="fill:none;stroke:#ff7500;stroke-linecap:square;stroke-width:1.5;"/>
    <g>
     <use style="fill-opacity:0;stroke:#ff7500;stroke-linejoin:bevel;stroke-width:1.5;" x="338.688" xlink:href="#m5c5aa832a3" y="30.334099"/>
     <use style="fill-opacity:0;stroke:#ff7500;stroke-linejoin:bevel;stroke-width:1.5;" x="369.60768" xlink:href="#m5c5aa832a3" y="138.852499"/>
    </g>
   </g>
   <g id="line2d_57">
    <path d="M 338.688 30.334099 
L 369.60768 87.279398 
" style="fill:none;stroke:#000080;stroke-linecap:square;stroke-width:1.5;"/>
    <g>
     <use style="fill-opacity:0;stroke:#000080;stroke-width:1.5;" x="338.688" xlink:href="#m6242144fa9" y="30.334099"/>
     <use style="fill-opacity:0;stroke:#000080;stroke-width:1.5;" x="369.60768" xlink:href="#m6242144fa9" y="87.279398"/>
    </g>
   </g>
   <g id="line2d_58">
    <path d="M 338.688 30.334099 
L 369.60768 35.706297 
" style="fill:none;stroke:#000080;stroke-linecap:square;stroke-width:1.5;"/>
    <g>
     <use style="fill-opacity:0;stroke:#000080;stroke-width:1.5;" x="338.688" xlink:href="#m6242144fa9" y="30.334099"/>
     <use style="fill-opacity:0;stroke:#000080;stroke-width:1.5;" x="369.60768" xlink:href="#m6242144fa9" y="35.706297"/>
    </g>
   </g>
   <g id="line2d_59">
    <path d="M 338.688 298.944 
L 338.688 30.334099 
" style="fill:none;stroke:#000000;stroke-linecap:square;stroke-width:1.5;"/>
   </g>
   <g id="patch_3">
    <path d="M 57.6 298.944 
L 57.6 27.648 
" style="fill:none;stroke:#000000;stroke-linecap:square;stroke-linejoin:miter;stroke-width:0.8;"/>
   </g>
   <g id="patch_4">
    <path d="M 338.688 298.944 
L 338.688 27.648 
" style="fill:none;stroke:#000000;stroke-linecap:square;stroke-linejoin:miter;stroke-width:0.8;"/>
   </g>
   <g id="patch_5">
    <path d="M 57.6 298.944 
L 338.688 298.944 
" style="fill:none;stroke:#000000;stroke-linecap:square;stroke-linejoin:miter;stroke-width:0.8;"/>
   </g>
   <g id="patch_6">
    <path d="M 57.6 27.648 
L 338.688 27.648 
" style="fill:none;stroke:#000000;stroke-linecap:square;stroke-linejoin:miter;stroke-width:0.8;"/>
   </g>
   <g id="text_13">
    <!-- 025s-2e4 -->
    <defs>
     <path d="M 10.796875 72.90625 
L 49.515625 72.90625 
L 49.515625 64.59375 
L 19.828125 64.59375 
L 19.828125 46.734375 
Q 21.96875 47.46875 24.109375 47.828125 
Q 26.265625 48.1875 28.421875 48.1875 
Q 40.625 48.1875 47.75 41.5 
Q 54.890625 34.8125 54.890625 23.390625 
Q 54.890625 11.625 47.5625 5.09375 
Q 40.234375 -1.421875 26.90625 -1.421875 
Q 22.3125 -1.421875 17.546875 -0.640625 
Q 12.796875 0.140625 7.71875 1.703125 
L 7.71875 11.625 
Q 12.109375 9.234375 16.796875 8.0625 
Q 21.484375 6.890625 26.703125 6.890625 
Q 35.15625 6.890625 40.078125 11.328125 
Q 45.015625 15.765625 45.015625 23.390625 
Q 45.015625 31 40.078125 35.4375 
Q 35.15625 39.890625 26.703125 39.890625 
Q 22.75 39.890625 18.8125 39.015625 
Q 14.890625 38.140625 10.796875 36.28125 
z
" id="DejaVuSans-53"/>
    </defs>
    <g transform="translate(375.22944 298.262739)scale(0.17 -0.17)">
     <use xlink:href="#DejaVuSans-48"/>
     <use x="63.623047" xlink:href="#DejaVuSans-50"/>
     <use x="127.246094" xlink:href="#DejaVuSans-53"/>
     <use x="190.869141" xlink:href="#DejaVuSans-115"/>
     <use x="242.96875" xlink:href="#DejaVuSans-45"/>
     <use x="279.052734" xlink:href="#DejaVuSans-50"/>
     <use x="342.675781" xlink:href="#DejaVuSans-101"/>
     <use x="404.199219" xlink:href="#DejaVuSans-52"/>
    </g>
   </g>
   <g id="text_14">
    <!-- best 2009 -->
    <defs>
     <path d="M 48.6875 27.296875 
Q 48.6875 37.203125 44.609375 42.84375 
Q 40.53125 48.484375 33.40625 48.484375 
Q 26.265625 48.484375 22.1875 42.84375 
Q 18.109375 37.203125 18.109375 27.296875 
Q 18.109375 17.390625 22.1875 11.75 
Q 26.265625 6.109375 33.40625 6.109375 
Q 40.53125 6.109375 44.609375 11.75 
Q 48.6875 17.390625 48.6875 27.296875 
z
M 18.109375 46.390625 
Q 20.953125 51.265625 25.265625 53.625 
Q 29.59375 56 35.59375 56 
Q 45.5625 56 51.78125 48.09375 
Q 58.015625 40.1875 58.015625 27.296875 
Q 58.015625 14.40625 51.78125 6.484375 
Q 45.5625 -1.421875 35.59375 -1.421875 
Q 29.59375 -1.421875 25.265625 0.953125 
Q 20.953125 3.328125 18.109375 8.203125 
L 18.109375 0 
L 9.078125 0 
L 9.078125 75.984375 
L 18.109375 75.984375 
z
" id="DejaVuSans-98"/>
     <path d="M 10.984375 1.515625 
L 10.984375 10.5 
Q 14.703125 8.734375 18.5 7.8125 
Q 22.3125 6.890625 25.984375 6.890625 
Q 35.75 6.890625 40.890625 13.453125 
Q 46.046875 20.015625 46.78125 33.40625 
Q 43.953125 29.203125 39.59375 26.953125 
Q 35.25 24.703125 29.984375 24.703125 
Q 19.046875 24.703125 12.671875 31.3125 
Q 6.296875 37.9375 6.296875 49.421875 
Q 6.296875 60.640625 12.9375 67.421875 
Q 19.578125 74.21875 30.609375 74.21875 
Q 43.265625 74.21875 49.921875 64.515625 
Q 56.59375 54.828125 56.59375 36.375 
Q 56.59375 19.140625 48.40625 8.859375 
Q 40.234375 -1.421875 26.421875 -1.421875 
Q 22.703125 -1.421875 18.890625 -0.6875 
Q 15.09375 0.046875 10.984375 1.515625 
z
M 30.609375 32.421875 
Q 37.25 32.421875 41.125 36.953125 
Q 45.015625 41.5 45.015625 49.421875 
Q 45.015625 57.28125 41.125 61.84375 
Q 37.25 66.40625 30.609375 66.40625 
Q 23.96875 66.40625 20.09375 61.84375 
Q 16.21875 57.28125 16.21875 49.421875 
Q 16.21875 41.5 20.09375 36.953125 
Q 23.96875 32.421875 30.609375 32.421875 
z
" id="DejaVuSans-57"/>
    </defs>
    <g transform="translate(375.22944 246.689638)scale(0.17 -0.17)">
     <use xlink:href="#DejaVuSans-98"/>
     <use x="63.476562" xlink:href="#DejaVuSans-101"/>
     <use x="125" xlink:href="#DejaVuSans-115"/>
     <use x="177.099609" xlink:href="#DejaVuSans-116"/>
     <use x="216.308594" xlink:href="#DejaVuSans-32"/>
     <use x="248.095703" xlink:href="#DejaVuSans-50"/>
     <use x="311.71875" xlink:href="#DejaVuSans-48"/>
     <use x="375.341797" xlink:href="#DejaVuSans-48"/>
     <use x="438.964844" xlink:href="#DejaVuSans-57"/>
    </g>
   </g>
   <g id="text_15">
    <!-- 050s-2e4 -->
    <g transform="translate(375.22944 195.116537)scale(0.17 -0.17)">
     <use xlink:href="#DejaVuSans-48"/>
     <use x="63.623047" xlink:href="#DejaVuSans-53"/>
     <use x="127.246094" xlink:href="#DejaVuSans-48"/>
     <use x="190.869141" xlink:href="#DejaVuSans-115"/>
     <use x="242.96875" xlink:href="#DejaVuSans-45"/>
     <use x="279.052734" xlink:href="#DejaVuSans-50"/>
     <use x="342.675781" xlink:href="#DejaVuSans-101"/>
     <use x="404.199219" xlink:href="#DejaVuSans-52"/>
    </g>
   </g>
   <g id="text_16">
    <!-- 075s-2e4 -->
    <defs>
     <path d="M 8.203125 72.90625 
L 55.078125 72.90625 
L 55.078125 68.703125 
L 28.609375 0 
L 18.3125 0 
L 43.21875 64.59375 
L 8.203125 64.59375 
z
" id="DejaVuSans-55"/>
    </defs>
    <g transform="translate(375.22944 143.543437)scale(0.17 -0.17)">
     <use xlink:href="#DejaVuSans-48"/>
     <use x="63.623047" xlink:href="#DejaVuSans-55"/>
     <use x="127.246094" xlink:href="#DejaVuSans-53"/>
     <use x="190.869141" xlink:href="#DejaVuSans-115"/>
     <use x="242.96875" xlink:href="#DejaVuSans-45"/>
     <use x="279.052734" xlink:href="#DejaVuSans-50"/>
     <use x="342.675781" xlink:href="#DejaVuSans-101"/>
     <use x="404.199219" xlink:href="#DejaVuSans-52"/>
    </g>
   </g>
   <g id="text_17">
    <!-- 100-1e5 -->
    <g transform="translate(375.22944 91.970336)scale(0.17 -0.17)">
     <use xlink:href="#DejaVuSans-49"/>
     <use x="63.623047" xlink:href="#DejaVuSans-48"/>
     <use x="127.246094" xlink:href="#DejaVuSans-48"/>
     <use x="190.869141" xlink:href="#DejaVuSans-45"/>
     <use x="226.953125" xlink:href="#DejaVuSans-49"/>
     <use x="290.576172" xlink:href="#DejaVuSans-101"/>
     <use x="352.099609" xlink:href="#DejaVuSans-53"/>
    </g>
   </g>
   <g id="text_18">
    <!-- 100-2e4 -->
    <g transform="translate(375.22944 40.397235)scale(0.17 -0.17)">
     <use xlink:href="#DejaVuSans-49"/>
     <use x="63.623047" xlink:href="#DejaVuSans-48"/>
     <use x="127.246094" xlink:href="#DejaVuSans-48"/>
     <use x="190.869141" xlink:href="#DejaVuSans-45"/>
     <use x="226.953125" xlink:href="#DejaVuSans-50"/>
     <use x="290.576172" xlink:href="#DejaVuSans-101"/>
     <use x="352.099609" xlink:href="#DejaVuSans-52"/>
    </g>
   </g>
   <g id="text_19">
    <!-- bbob f10, 10-D -->
    <defs>
     <path d="M 19.671875 64.796875 
L 19.671875 8.109375 
L 31.59375 8.109375 
Q 46.6875 8.109375 53.6875 14.9375 
Q 60.6875 21.78125 60.6875 36.53125 
Q 60.6875 51.171875 53.6875 57.984375 
Q 46.6875 64.796875 31.59375 64.796875 
z
M 9.8125 72.90625 
L 30.078125 72.90625 
Q 51.265625 72.90625 61.171875 64.09375 
Q 71.09375 55.28125 71.09375 36.53125 
Q 71.09375 17.671875 61.125 8.828125 
Q 51.171875 0 30.078125 0 
L 9.8125 0 
z
" id="DejaVuSans-68"/>
    </defs>
    <g transform="translate(60.41088 38.111366)scale(0.102 -0.102)">
     <use xlink:href="#DejaVuSans-98"/>
     <use x="63.476562" xlink:href="#DejaVuSans-98"/>
     <use x="126.953125" xlink:href="#DejaVuSans-111"/>
     <use x="188.134766" xlink:href="#DejaVuSans-98"/>
     <use x="251.611328" xlink:href="#DejaVuSans-32"/>
     <use x="283.398438" xlink:href="#DejaVuSans-102"/>
     <use x="318.603516" xlink:href="#DejaVuSans-49"/>
     <use x="382.226562" xlink:href="#DejaVuSans-48"/>
     <use x="445.849609" xlink:href="#DejaVuSans-44"/>
     <use x="477.636719" xlink:href="#DejaVuSans-32"/>
     <use x="509.423828" xlink:href="#DejaVuSans-49"/>
     <use x="573.046875" xlink:href="#DejaVuSans-48"/>
     <use x="636.669922" xlink:href="#DejaVuSans-45"/>
     <use x="672.753906" xlink:href="#DejaVuSans-68"/>
    </g>
    <!-- 51 targets: 100..1e-08 -->
    <defs>
     <path d="M 11.71875 12.40625 
L 22.015625 12.40625 
L 22.015625 0 
L 11.71875 0 
z
M 11.71875 51.703125 
L 22.015625 51.703125 
L 22.015625 39.3125 
L 11.71875 39.3125 
z
" id="DejaVuSans-58"/>
    </defs>
    <g transform="translate(60.41088 49.533135)scale(0.102 -0.102)">
     <use xlink:href="#DejaVuSans-53"/>
     <use x="63.623047" xlink:href="#DejaVuSans-49"/>
     <use x="127.246094" xlink:href="#DejaVuSans-32"/>
     <use x="159.033203" xlink:href="#DejaVuSans-116"/>
     <use x="198.242188" xlink:href="#DejaVuSans-97"/>
     <use x="259.521484" xlink:href="#DejaVuSans-114"/>
     <use x="300.619141" xlink:href="#DejaVuSans-103"/>
     <use x="364.095703" xlink:href="#DejaVuSans-101"/>
     <use x="425.619141" xlink:href="#DejaVuSans-116"/>
     <use x="464.828125" xlink:href="#DejaVuSans-115"/>
     <use x="516.927734" xlink:href="#DejaVuSans-58"/>
     <use x="550.619141" xlink:href="#DejaVuSans-32"/>
     <use x="582.40625" xlink:href="#DejaVuSans-49"/>
     <use x="646.029297" xlink:href="#DejaVuSans-48"/>
     <use x="709.652344" xlink:href="#DejaVuSans-48"/>
     <use x="773.275391" xlink:href="#DejaVuSans-46"/>
     <use x="805.0625" xlink:href="#DejaVuSans-46"/>
     <use x="836.849609" xlink:href="#DejaVuSans-49"/>
     <use x="900.472656" xlink:href="#DejaVuSans-101"/>
     <use x="961.996094" xlink:href="#DejaVuSans-45"/>
     <use x="998.080078" xlink:href="#DejaVuSans-48"/>
     <use x="1061.703125" xlink:href="#DejaVuSans-56"/>
    </g>
    <!-- 15 instances -->
    <g transform="translate(60.41088 60.954904)scale(0.102 -0.102)">
     <use xlink:href="#DejaVuSans-49"/>
     <use x="63.623047" xlink:href="#DejaVuSans-53"/>
     <use x="127.246094" xlink:href="#DejaVuSans-32"/>
     <use x="159.033203" xlink:href="#DejaVuSans-105"/>
     <use x="186.816406" xlink:href="#DejaVuSans-110"/>
     <use x="250.195312" xlink:href="#DejaVuSans-115"/>
     <use x="302.294922" xlink:href="#DejaVuSans-116"/>
     <use x="341.503906" xlink:href="#DejaVuSans-97"/>
     <use x="402.783203" xlink:href="#DejaVuSans-110"/>
     <use x="466.162109" xlink:href="#DejaVuSans-99"/>
     <use x="521.142578" xlink:href="#DejaVuSans-101"/>
     <use x="582.666016" xlink:href="#DejaVuSans-115"/>
    </g>
   </g>
   <g id="text_20">
    <!-- v2.3.3.18.73 -->
    <defs>
     <path d="M 40.578125 39.3125 
Q 47.65625 37.796875 51.625 33 
Q 55.609375 28.21875 55.609375 21.1875 
Q 55.609375 10.40625 48.1875 4.484375 
Q 40.765625 -1.421875 27.09375 -1.421875 
Q 22.515625 -1.421875 17.65625 -0.515625 
Q 12.796875 0.390625 7.625 2.203125 
L 7.625 11.71875 
Q 11.71875 9.328125 16.59375 8.109375 
Q 21.484375 6.890625 26.8125 6.890625 
Q 36.078125 6.890625 40.9375 10.546875 
Q 45.796875 14.203125 45.796875 21.1875 
Q 45.796875 27.640625 41.28125 31.265625 
Q 36.765625 34.90625 28.71875 34.90625 
L 20.21875 34.90625 
L 20.21875 43.015625 
L 29.109375 43.015625 
Q 36.375 43.015625 40.234375 45.921875 
Q 44.09375 48.828125 44.09375 54.296875 
Q 44.09375 59.90625 40.109375 62.90625 
Q 36.140625 65.921875 28.71875 65.921875 
Q 24.65625 65.921875 20.015625 65.03125 
Q 15.375 64.15625 9.8125 62.3125 
L 9.8125 71.09375 
Q 15.4375 72.65625 20.34375 73.4375 
Q 25.25 74.21875 29.59375 74.21875 
Q 40.828125 74.21875 47.359375 69.109375 
Q 53.90625 64.015625 53.90625 55.328125 
Q 53.90625 49.265625 50.4375 45.09375 
Q 46.96875 40.921875 40.578125 39.3125 
z
" id="DejaVuSans-51"/>
    </defs>
    <g style="fill:#808080;" transform="translate(166.559625 294.151352)scale(0.1 -0.1)">
     <use xlink:href="#DejaVuSans-118"/>
     <use x="59.179688" xlink:href="#DejaVuSans-50"/>
     <use x="122.802734" xlink:href="#DejaVuSans-46"/>
     <use x="154.589844" xlink:href="#DejaVuSans-51"/>
     <use x="218.212891" xlink:href="#DejaVuSans-46"/>
     <use x="250" xlink:href="#DejaVuSans-51"/>
     <use x="313.623047" xlink:href="#DejaVuSans-46"/>
     <use x="345.410156" xlink:href="#DejaVuSans-49"/>
     <use x="409.033203" xlink:href="#DejaVuSans-56"/>
     <use x="472.65625" xlink:href="#DejaVuSans-46"/>
     <use x="504.443359" xlink:href="#DejaVuSans-55"/>
     <use x="568.066406" xlink:href="#DejaVuSans-51"/>
    </g>
   </g>
   <g id="text_21">
    <!-- 10 Ellipsoid -->
    <defs>
     <path d="M 9.8125 72.90625 
L 55.90625 72.90625 
L 55.90625 64.59375 
L 19.671875 64.59375 
L 19.671875 43.015625 
L 54.390625 43.015625 
L 54.390625 34.71875 
L 19.671875 34.71875 
L 19.671875 8.296875 
L 56.78125 8.296875 
L 56.78125 0 
L 9.8125 0 
z
" id="DejaVuSans-69"/>
    </defs>
    <g transform="translate(140.784625 21.648)scale(0.2 -0.2)">
     <use xlink:href="#DejaVuSans-49"/>
     <use x="63.623047" xlink:href="#DejaVuSans-48"/>
     <use x="127.246094" xlink:href="#DejaVuSans-32"/>
     <use x="159.033203" xlink:href="#DejaVuSans-69"/>
     <use x="222.216797" xlink:href="#DejaVuSans-108"/>
     <use x="250" xlink:href="#DejaVuSans-108"/>
     <use x="277.783203" xlink:href="#DejaVuSans-105"/>
     <use x="305.566406" xlink:href="#DejaVuSans-112"/>
     <use x="369.042969" xlink:href="#DejaVuSans-115"/>
     <use x="421.142578" xlink:href="#DejaVuSans-111"/>
     <use x="482.324219" xlink:href="#DejaVuSans-105"/>
     <use x="510.107422" xlink:href="#DejaVuSans-100"/>
    </g>
   </g>
  </g>
 </g>
 <defs>
  <clipPath id="p55b0f445d3">
   <rect height="271.296" width="281.088" x="57.6" y="27.648"/>
  </clipPath>
 </defs>
</svg>
