<?xml version="1.0" encoding="utf-8" standalone="no"?>
<!DOCTYPE svg PUBLIC "-//W3C//DTD SVG 1.1//EN"
  "http://www.w3.org/Graphics/SVG/1.1/DTD/svg11.dtd">
<!-- Created with matplotlib (https://matplotlib.org/) -->
<svg height="345.6pt" version="1.1" viewBox="0 0 460.8 345.6" width="460.8pt" xmlns="http://www.w3.org/2000/svg" xmlns:xlink="http://www.w3.org/1999/xlink">
 <defs>
  <style type="text/css">
*{stroke-linecap:butt;stroke-linejoin:round;}
  </style>
 </defs>
 <g id="figure_1">
  <g id="patch_1">
   <path d="M 0 345.6 
L 460.8 345.6 
L 460.8 0 
L 0 0 
z
" style="fill:#ffffff;"/>
  </g>
  <g id="axes_1">
   <g id="patch_2">
    <path d="M 57.6 298.944 
L 338.688 298.944 
L 338.688 27.648 
L 57.6 27.648 
z
" style="fill:#ffffff;"/>
   </g>
   <g id="line2d_1">
    <path d="M 83.138295 298.944 
L 83.138295 293.677139 
L 84.213325 293.677139 
L 84.213325 288.410278 
L 85.315119 288.410278 
L 85.315119 283.143418 
L 86.012784 283.143418 
L 86.012784 277.876557 
L 86.601153 277.876557 
L 86.601153 272.609696 
L 87.487404 272.609696 
L 87.487404 267.342835 
L 88.180446 267.342835 
L 88.180446 262.075974 
L 90.965519 262.075974 
L 90.965519 256.809114 
L 102.162376 256.809114 
L 102.162376 251.542253 
L 143.722546 251.542253 
L 143.722546 246.275392 
L 198.80241 246.275392 
L 198.80241 241.008531 
L 262.350854 241.008531 
L 262.350854 235.74167 
L 272.980217 235.74167 
L 272.980217 230.47481 
L 281.16681 230.47481 
L 281.16681 225.207949 
L 299.174853 225.207949 
L 299.174853 219.941088 
L 322.833938 219.941088 
L 322.833938 214.674227 
L 338.688 214.674227 
" style="fill:none;stroke:#f5deb3;stroke-linecap:square;stroke-width:4;"/>
   </g>
   <g id="line2d_2">
    <defs>
     <path d="M -0 7.778175 
L 7.778175 0 
L 0 -7.778175 
L -7.778175 -0 
z
" id="m91f6822f46" style="stroke:#f5deb3;stroke-linejoin:miter;stroke-width:1.5;"/>
    </defs>
    <g>
     <use style="fill:#f5deb3;stroke:#f5deb3;stroke-linejoin:miter;stroke-width:1.5;" x="88.180446" xlink:href="#m91f6822f46" y="267.342835"/>
     <use style="fill:#f5deb3;stroke:#f5deb3;stroke-linejoin:miter;stroke-width:1.5;" x="143.722546" xlink:href="#m91f6822f46" y="246.275392"/>
     <use style="fill:#f5deb3;stroke:#f5deb3;stroke-linejoin:miter;stroke-width:1.5;" x="281.16681" xlink:href="#m91f6822f46" y="230.47481"/>
     <use style="fill:#f5deb3;stroke:#f5deb3;stroke-linejoin:miter;stroke-width:1.5;" x="322.833938" xlink:href="#m91f6822f46" y="214.674227"/>
     <use style="fill:#f5deb3;stroke:#f5deb3;stroke-linejoin:miter;stroke-width:1.5;" x="338.688" xlink:href="#m91f6822f46" y="214.674227"/>
    </g>
   </g>
   <g id="line2d_3">
    <path style="fill:none;stroke:#f5deb3;stroke-linecap:square;stroke-width:4;"/>
    <g/>
   </g>
   <g id="line2d_4">
    <path d="M 338.688 214.674227 
L 369.60768 35.706297 
" style="fill:none;stroke:#f5deb3;stroke-linecap:square;stroke-width:4;"/>
    <g>
     <use style="fill:#f5deb3;stroke:#f5deb3;stroke-linejoin:miter;stroke-width:1.5;" x="338.688" xlink:href="#m91f6822f46" y="214.674227"/>
     <use style="fill:#f5deb3;stroke:#f5deb3;stroke-linejoin:miter;stroke-width:1.5;" x="369.60768" xlink:href="#m91f6822f46" y="35.706297"/>
    </g>
   </g>
   <g id="matplotlib.axis_1">
    <g id="xtick_1">
     <g id="line2d_5">
      <path clip-path="url(#p1bbbcfb23b)" d="M 57.6 298.944 
L 57.6 27.648 
" style="fill:none;stroke:#b0b0b0;stroke-linecap:square;stroke-width:0.8;"/>
     </g>
     <g id="line2d_6">
      <defs>
       <path d="M 0 0 
L 0 3.5 
" id="m85bb6ed487" style="stroke:#000000;stroke-width:0.8;"/>
      </defs>
      <g>
       <use style="stroke:#000000;stroke-width:0.8;" x="57.6" xlink:href="#m85bb6ed487" y="298.944"/>
      </g>
     </g>
     <g id="text_1">
      <!-- 0 -->
      <defs>
       <path d="M 31.78125 66.40625 
Q 24.171875 66.40625 20.328125 58.90625 
Q 16.5 51.421875 16.5 36.375 
Q 16.5 21.390625 20.328125 13.890625 
Q 24.171875 6.390625 31.78125 6.390625 
Q 39.453125 6.390625 43.28125 13.890625 
Q 47.125 21.390625 47.125 36.375 
Q 47.125 51.421875 43.28125 58.90625 
Q 39.453125 66.40625 31.78125 66.40625 
z
M 31.78125 74.21875 
Q 44.046875 74.21875 50.515625 64.515625 
Q 56.984375 54.828125 56.984375 36.375 
Q 56.984375 17.96875 50.515625 8.265625 
Q 44.046875 -1.421875 31.78125 -1.421875 
Q 19.53125 -1.421875 13.0625 8.265625 
Q 6.59375 17.96875 6.59375 36.375 
Q 6.59375 54.828125 13.0625 64.515625 
Q 19.53125 74.21875 31.78125 74.21875 
z
" id="DejaVuSans-48"/>
      </defs>
      <g transform="translate(51.2375 321.140875)scale(0.2 -0.2)">
       <use xlink:href="#DejaVuSans-48"/>
      </g>
     </g>
    </g>
    <g id="xtick_2">
     <g id="line2d_7">
      <path clip-path="url(#p1bbbcfb23b)" d="M 137.910857 298.944 
L 137.910857 27.648 
" style="fill:none;stroke:#b0b0b0;stroke-linecap:square;stroke-width:0.8;"/>
     </g>
     <g id="line2d_8">
      <g>
       <use style="stroke:#000000;stroke-width:0.8;" x="137.910857" xlink:href="#m85bb6ed487" y="298.944"/>
      </g>
     </g>
     <g id="text_2">
      <!-- 2 -->
      <defs>
       <path d="M 19.1875 8.296875 
L 53.609375 8.296875 
L 53.609375 0 
L 7.328125 0 
L 7.328125 8.296875 
Q 12.9375 14.109375 22.625 23.890625 
Q 32.328125 33.6875 34.8125 36.53125 
Q 39.546875 41.84375 41.421875 45.53125 
Q 43.3125 49.21875 43.3125 52.78125 
Q 43.3125 58.59375 39.234375 62.25 
Q 35.15625 65.921875 28.609375 65.921875 
Q 23.96875 65.921875 18.8125 64.3125 
Q 13.671875 62.703125 7.8125 59.421875 
L 7.8125 69.390625 
Q 13.765625 71.78125 18.9375 73 
Q 24.125 74.21875 28.421875 74.21875 
Q 39.75 74.21875 46.484375 68.546875 
Q 53.21875 62.890625 53.21875 53.421875 
Q 53.21875 48.921875 51.53125 44.890625 
Q 49.859375 40.875 45.40625 35.40625 
Q 44.1875 33.984375 37.640625 27.21875 
Q 31.109375 20.453125 19.1875 8.296875 
z
" id="DejaVuSans-50"/>
      </defs>
      <g transform="translate(131.548357 321.140875)scale(0.2 -0.2)">
       <use xlink:href="#DejaVuSans-50"/>
      </g>
     </g>
    </g>
    <g id="xtick_3">
     <g id="line2d_9">
      <path clip-path="url(#p1bbbcfb23b)" d="M 218.221714 298.944 
L 218.221714 27.648 
" style="fill:none;stroke:#b0b0b0;stroke-linecap:square;stroke-width:0.8;"/>
     </g>
     <g id="line2d_10">
      <g>
       <use style="stroke:#000000;stroke-width:0.8;" x="218.221714" xlink:href="#m85bb6ed487" y="298.944"/>
      </g>
     </g>
     <g id="text_3">
      <!-- 4 -->
      <defs>
       <path d="M 37.796875 64.3125 
L 12.890625 25.390625 
L 37.796875 25.390625 
z
M 35.203125 72.90625 
L 47.609375 72.90625 
L 47.609375 25.390625 
L 58.015625 25.390625 
L 58.015625 17.1875 
L 47.609375 17.1875 
L 47.609375 0 
L 37.796875 0 
L 37.796875 17.1875 
L 4.890625 17.1875 
L 4.890625 26.703125 
z
" id="DejaVuSans-52"/>
      </defs>
      <g transform="translate(211.859214 321.140875)scale(0.2 -0.2)">
       <use xlink:href="#DejaVuSans-52"/>
      </g>
     </g>
    </g>
    <g id="xtick_4">
     <g id="line2d_11">
      <path clip-path="url(#p1bbbcfb23b)" d="M 298.532571 298.944 
L 298.532571 27.648 
" style="fill:none;stroke:#b0b0b0;stroke-linecap:square;stroke-width:0.8;"/>
     </g>
     <g id="line2d_12">
      <g>
       <use style="stroke:#000000;stroke-width:0.8;" x="298.532571" xlink:href="#m85bb6ed487" y="298.944"/>
      </g>
     </g>
     <g id="text_4">
      <!-- 6 -->
      <defs>
       <path d="M 33.015625 40.375 
Q 26.375 40.375 22.484375 35.828125 
Q 18.609375 31.296875 18.609375 23.390625 
Q 18.609375 15.53125 22.484375 10.953125 
Q 26.375 6.390625 33.015625 6.390625 
Q 39.65625 6.390625 43.53125 10.953125 
Q 47.40625 15.53125 47.40625 23.390625 
Q 47.40625 31.296875 43.53125 35.828125 
Q 39.65625 40.375 33.015625 40.375 
z
M 52.59375 71.296875 
L 52.59375 62.3125 
Q 48.875 64.0625 45.09375 64.984375 
Q 41.3125 65.921875 37.59375 65.921875 
Q 27.828125 65.921875 22.671875 59.328125 
Q 17.53125 52.734375 16.796875 39.40625 
Q 19.671875 43.65625 24.015625 45.921875 
Q 28.375 48.1875 33.59375 48.1875 
Q 44.578125 48.1875 50.953125 41.515625 
Q 57.328125 34.859375 57.328125 23.390625 
Q 57.328125 12.15625 50.6875 5.359375 
Q 44.046875 -1.421875 33.015625 -1.421875 
Q 20.359375 -1.421875 13.671875 8.265625 
Q 6.984375 17.96875 6.984375 36.375 
Q 6.984375 53.65625 15.1875 63.9375 
Q 23.390625 74.21875 37.203125 74.21875 
Q 40.921875 74.21875 44.703125 73.484375 
Q 48.484375 72.75 52.59375 71.296875 
z
" id="DejaVuSans-54"/>
      </defs>
      <g transform="translate(292.170071 321.140875)scale(0.2 -0.2)">
       <use xlink:href="#DejaVuSans-54"/>
      </g>
     </g>
    </g>
    <g id="xtick_5">
     <g id="line2d_13">
      <path clip-path="url(#p1bbbcfb23b)" d="M 97.755429 298.944 
L 97.755429 27.648 
" style="fill:none;stroke:#b0b0b0;stroke-linecap:square;stroke-width:0.8;"/>
     </g>
     <g id="line2d_14">
      <defs>
       <path d="M 0 0 
L 0 2 
" id="m808b45172e" style="stroke:#000000;stroke-width:0.6;"/>
      </defs>
      <g>
       <use style="stroke:#000000;stroke-width:0.6;" x="97.755429" xlink:href="#m808b45172e" y="298.944"/>
      </g>
     </g>
    </g>
    <g id="xtick_6">
     <g id="line2d_15">
      <path clip-path="url(#p1bbbcfb23b)" d="M 178.066286 298.944 
L 178.066286 27.648 
" style="fill:none;stroke:#b0b0b0;stroke-linecap:square;stroke-width:0.8;"/>
     </g>
     <g id="line2d_16">
      <g>
       <use style="stroke:#000000;stroke-width:0.6;" x="178.066286" xlink:href="#m808b45172e" y="298.944"/>
      </g>
     </g>
    </g>
    <g id="xtick_7">
     <g id="line2d_17">
      <path clip-path="url(#p1bbbcfb23b)" d="M 258.377143 298.944 
L 258.377143 27.648 
" style="fill:none;stroke:#b0b0b0;stroke-linecap:square;stroke-width:0.8;"/>
     </g>
     <g id="line2d_18">
      <g>
       <use style="stroke:#000000;stroke-width:0.6;" x="258.377143" xlink:href="#m808b45172e" y="298.944"/>
      </g>
     </g>
    </g>
    <g id="xtick_8">
     <g id="line2d_19">
      <path clip-path="url(#p1bbbcfb23b)" d="M 338.688 298.944 
L 338.688 27.648 
" style="fill:none;stroke:#b0b0b0;stroke-linecap:square;stroke-width:0.8;"/>
     </g>
     <g id="line2d_20">
      <g>
       <use style="stroke:#000000;stroke-width:0.6;" x="338.688" xlink:href="#m808b45172e" y="298.944"/>
      </g>
     </g>
    </g>
    <g id="text_5">
     <!-- log10(# f-evals / dimension) -->
     <defs>
      <path d="M 9.421875 75.984375 
L 18.40625 75.984375 
L 18.40625 0 
L 9.421875 0 
z
" id="DejaVuSans-108"/>
      <path d="M 30.609375 48.390625 
Q 23.390625 48.390625 19.1875 42.75 
Q 14.984375 37.109375 14.984375 27.296875 
Q 14.984375 17.484375 19.15625 11.84375 
Q 23.34375 6.203125 30.609375 6.203125 
Q 37.796875 6.203125 41.984375 11.859375 
Q 46.1875 17.53125 46.1875 27.296875 
Q 46.1875 37.015625 41.984375 42.703125 
Q 37.796875 48.390625 30.609375 48.390625 
z
M 30.609375 56 
Q 42.328125 56 49.015625 48.375 
Q 55.71875 40.765625 55.71875 27.296875 
Q 55.71875 13.875 49.015625 6.21875 
Q 42.328125 -1.421875 30.609375 -1.421875 
Q 18.84375 -1.421875 12.171875 6.21875 
Q 5.515625 13.875 5.515625 27.296875 
Q 5.515625 40.765625 12.171875 48.375 
Q 18.84375 56 30.609375 56 
z
" id="DejaVuSans-111"/>
      <path d="M 45.40625 27.984375 
Q 45.40625 37.75 41.375 43.109375 
Q 37.359375 48.484375 30.078125 48.484375 
Q 22.859375 48.484375 18.828125 43.109375 
Q 14.796875 37.75 14.796875 27.984375 
Q 14.796875 18.265625 18.828125 12.890625 
Q 22.859375 7.515625 30.078125 7.515625 
Q 37.359375 7.515625 41.375 12.890625 
Q 45.40625 18.265625 45.40625 27.984375 
z
M 54.390625 6.78125 
Q 54.390625 -7.171875 48.1875 -13.984375 
Q 42 -20.796875 29.203125 -20.796875 
Q 24.46875 -20.796875 20.265625 -20.09375 
Q 16.0625 -19.390625 12.109375 -17.921875 
L 12.109375 -9.1875 
Q 16.0625 -11.328125 19.921875 -12.34375 
Q 23.78125 -13.375 27.78125 -13.375 
Q 36.625 -13.375 41.015625 -8.765625 
Q 45.40625 -4.15625 45.40625 5.171875 
L 45.40625 9.625 
Q 42.625 4.78125 38.28125 2.390625 
Q 33.9375 0 27.875 0 
Q 17.828125 0 11.671875 7.65625 
Q 5.515625 15.328125 5.515625 27.984375 
Q 5.515625 40.671875 11.671875 48.328125 
Q 17.828125 56 27.875 56 
Q 33.9375 56 38.28125 53.609375 
Q 42.625 51.21875 45.40625 46.390625 
L 45.40625 54.6875 
L 54.390625 54.6875 
z
" id="DejaVuSans-103"/>
      <path d="M 12.40625 8.296875 
L 28.515625 8.296875 
L 28.515625 63.921875 
L 10.984375 60.40625 
L 10.984375 69.390625 
L 28.421875 72.90625 
L 38.28125 72.90625 
L 38.28125 8.296875 
L 54.390625 8.296875 
L 54.390625 0 
L 12.40625 0 
z
" id="DejaVuSans-49"/>
      <path d="M 31 75.875 
Q 24.46875 64.65625 21.28125 53.65625 
Q 18.109375 42.671875 18.109375 31.390625 
Q 18.109375 20.125 21.3125 9.0625 
Q 24.515625 -2 31 -13.1875 
L 23.1875 -13.1875 
Q 15.875 -1.703125 12.234375 9.375 
Q 8.59375 20.453125 8.59375 31.390625 
Q 8.59375 42.28125 12.203125 53.3125 
Q 15.828125 64.359375 23.1875 75.875 
z
" id="DejaVuSans-40"/>
      <path d="M 51.125 44 
L 36.921875 44 
L 32.8125 27.6875 
L 47.125 27.6875 
z
M 43.796875 71.78125 
L 38.71875 51.515625 
L 52.984375 51.515625 
L 58.109375 71.78125 
L 65.921875 71.78125 
L 60.890625 51.515625 
L 76.125 51.515625 
L 76.125 44 
L 58.984375 44 
L 54.984375 27.6875 
L 70.515625 27.6875 
L 70.515625 20.21875 
L 53.078125 20.21875 
L 48 0 
L 40.1875 0 
L 45.21875 20.21875 
L 30.90625 20.21875 
L 25.875 0 
L 18.015625 0 
L 23.09375 20.21875 
L 7.71875 20.21875 
L 7.71875 27.6875 
L 24.90625 27.6875 
L 29 44 
L 13.28125 44 
L 13.28125 51.515625 
L 30.90625 51.515625 
L 35.890625 71.78125 
z
" id="DejaVuSans-35"/>
      <path id="DejaVuSans-32"/>
      <path d="M 37.109375 75.984375 
L 37.109375 68.5 
L 28.515625 68.5 
Q 23.6875 68.5 21.796875 66.546875 
Q 19.921875 64.59375 19.921875 59.515625 
L 19.921875 54.6875 
L 34.71875 54.6875 
L 34.71875 47.703125 
L 19.921875 47.703125 
L 19.921875 0 
L 10.890625 0 
L 10.890625 47.703125 
L 2.296875 47.703125 
L 2.296875 54.6875 
L 10.890625 54.6875 
L 10.890625 58.5 
Q 10.890625 67.625 15.140625 71.796875 
Q 19.390625 75.984375 28.609375 75.984375 
z
" id="DejaVuSans-102"/>
      <path d="M 4.890625 31.390625 
L 31.203125 31.390625 
L 31.203125 23.390625 
L 4.890625 23.390625 
z
" id="DejaVuSans-45"/>
      <path d="M 56.203125 29.59375 
L 56.203125 25.203125 
L 14.890625 25.203125 
Q 15.484375 15.921875 20.484375 11.0625 
Q 25.484375 6.203125 34.421875 6.203125 
Q 39.59375 6.203125 44.453125 7.46875 
Q 49.3125 8.734375 54.109375 11.28125 
L 54.109375 2.78125 
Q 49.265625 0.734375 44.1875 -0.34375 
Q 39.109375 -1.421875 33.890625 -1.421875 
Q 20.796875 -1.421875 13.15625 6.1875 
Q 5.515625 13.8125 5.515625 26.8125 
Q 5.515625 40.234375 12.765625 48.109375 
Q 20.015625 56 32.328125 56 
Q 43.359375 56 49.78125 48.890625 
Q 56.203125 41.796875 56.203125 29.59375 
z
M 47.21875 32.234375 
Q 47.125 39.59375 43.09375 43.984375 
Q 39.0625 48.390625 32.421875 48.390625 
Q 24.90625 48.390625 20.390625 44.140625 
Q 15.875 39.890625 15.1875 32.171875 
z
" id="DejaVuSans-101"/>
      <path d="M 2.984375 54.6875 
L 12.5 54.6875 
L 29.59375 8.796875 
L 46.6875 54.6875 
L 56.203125 54.6875 
L 35.6875 0 
L 23.484375 0 
z
" id="DejaVuSans-118"/>
      <path d="M 34.28125 27.484375 
Q 23.390625 27.484375 19.1875 25 
Q 14.984375 22.515625 14.984375 16.5 
Q 14.984375 11.71875 18.140625 8.90625 
Q 21.296875 6.109375 26.703125 6.109375 
Q 34.1875 6.109375 38.703125 11.40625 
Q 43.21875 16.703125 43.21875 25.484375 
L 43.21875 27.484375 
z
M 52.203125 31.203125 
L 52.203125 0 
L 43.21875 0 
L 43.21875 8.296875 
Q 40.140625 3.328125 35.546875 0.953125 
Q 30.953125 -1.421875 24.3125 -1.421875 
Q 15.921875 -1.421875 10.953125 3.296875 
Q 6 8.015625 6 15.921875 
Q 6 25.140625 12.171875 29.828125 
Q 18.359375 34.515625 30.609375 34.515625 
L 43.21875 34.515625 
L 43.21875 35.40625 
Q 43.21875 41.609375 39.140625 45 
Q 35.0625 48.390625 27.6875 48.390625 
Q 23 48.390625 18.546875 47.265625 
Q 14.109375 46.140625 10.015625 43.890625 
L 10.015625 52.203125 
Q 14.9375 54.109375 19.578125 55.046875 
Q 24.21875 56 28.609375 56 
Q 40.484375 56 46.34375 49.84375 
Q 52.203125 43.703125 52.203125 31.203125 
z
" id="DejaVuSans-97"/>
      <path d="M 44.28125 53.078125 
L 44.28125 44.578125 
Q 40.484375 46.53125 36.375 47.5 
Q 32.28125 48.484375 27.875 48.484375 
Q 21.1875 48.484375 17.84375 46.4375 
Q 14.5 44.390625 14.5 40.28125 
Q 14.5 37.15625 16.890625 35.375 
Q 19.28125 33.59375 26.515625 31.984375 
L 29.59375 31.296875 
Q 39.15625 29.25 43.1875 25.515625 
Q 47.21875 21.78125 47.21875 15.09375 
Q 47.21875 7.46875 41.1875 3.015625 
Q 35.15625 -1.421875 24.609375 -1.421875 
Q 20.21875 -1.421875 15.453125 -0.5625 
Q 10.6875 0.296875 5.421875 2 
L 5.421875 11.28125 
Q 10.40625 8.6875 15.234375 7.390625 
Q 20.0625 6.109375 24.8125 6.109375 
Q 31.15625 6.109375 34.5625 8.28125 
Q 37.984375 10.453125 37.984375 14.40625 
Q 37.984375 18.0625 35.515625 20.015625 
Q 33.0625 21.96875 24.703125 23.78125 
L 21.578125 24.515625 
Q 13.234375 26.265625 9.515625 29.90625 
Q 5.8125 33.546875 5.8125 39.890625 
Q 5.8125 47.609375 11.28125 51.796875 
Q 16.75 56 26.8125 56 
Q 31.78125 56 36.171875 55.265625 
Q 40.578125 54.546875 44.28125 53.078125 
z
" id="DejaVuSans-115"/>
      <path d="M 25.390625 72.90625 
L 33.6875 72.90625 
L 8.296875 -9.28125 
L 0 -9.28125 
z
" id="DejaVuSans-47"/>
      <path d="M 45.40625 46.390625 
L 45.40625 75.984375 
L 54.390625 75.984375 
L 54.390625 0 
L 45.40625 0 
L 45.40625 8.203125 
Q 42.578125 3.328125 38.25 0.953125 
Q 33.9375 -1.421875 27.875 -1.421875 
Q 17.96875 -1.421875 11.734375 6.484375 
Q 5.515625 14.40625 5.515625 27.296875 
Q 5.515625 40.1875 11.734375 48.09375 
Q 17.96875 56 27.875 56 
Q 33.9375 56 38.25 53.625 
Q 42.578125 51.265625 45.40625 46.390625 
z
M 14.796875 27.296875 
Q 14.796875 17.390625 18.875 11.75 
Q 22.953125 6.109375 30.078125 6.109375 
Q 37.203125 6.109375 41.296875 11.75 
Q 45.40625 17.390625 45.40625 27.296875 
Q 45.40625 37.203125 41.296875 42.84375 
Q 37.203125 48.484375 30.078125 48.484375 
Q 22.953125 48.484375 18.875 42.84375 
Q 14.796875 37.203125 14.796875 27.296875 
z
" id="DejaVuSans-100"/>
      <path d="M 9.421875 54.6875 
L 18.40625 54.6875 
L 18.40625 0 
L 9.421875 0 
z
M 9.421875 75.984375 
L 18.40625 75.984375 
L 18.40625 64.59375 
L 9.421875 64.59375 
z
" id="DejaVuSans-105"/>
      <path d="M 52 44.1875 
Q 55.375 50.25 60.0625 53.125 
Q 64.75 56 71.09375 56 
Q 79.640625 56 84.28125 50.015625 
Q 88.921875 44.046875 88.921875 33.015625 
L 88.921875 0 
L 79.890625 0 
L 79.890625 32.71875 
Q 79.890625 40.578125 77.09375 44.375 
Q 74.3125 48.1875 68.609375 48.1875 
Q 61.625 48.1875 57.5625 43.546875 
Q 53.515625 38.921875 53.515625 30.90625 
L 53.515625 0 
L 44.484375 0 
L 44.484375 32.71875 
Q 44.484375 40.625 41.703125 44.40625 
Q 38.921875 48.1875 33.109375 48.1875 
Q 26.21875 48.1875 22.15625 43.53125 
Q 18.109375 38.875 18.109375 30.90625 
L 18.109375 0 
L 9.078125 0 
L 9.078125 54.6875 
L 18.109375 54.6875 
L 18.109375 46.1875 
Q 21.1875 51.21875 25.484375 53.609375 
Q 29.78125 56 35.6875 56 
Q 41.65625 56 45.828125 52.96875 
Q 50 49.953125 52 44.1875 
z
" id="DejaVuSans-109"/>
      <path d="M 54.890625 33.015625 
L 54.890625 0 
L 45.90625 0 
L 45.90625 32.71875 
Q 45.90625 40.484375 42.875 44.328125 
Q 39.84375 48.1875 33.796875 48.1875 
Q 26.515625 48.1875 22.3125 43.546875 
Q 18.109375 38.921875 18.109375 30.90625 
L 18.109375 0 
L 9.078125 0 
L 9.078125 54.6875 
L 18.109375 54.6875 
L 18.109375 46.1875 
Q 21.34375 51.125 25.703125 53.5625 
Q 30.078125 56 35.796875 56 
Q 45.21875 56 50.046875 50.171875 
Q 54.890625 44.34375 54.890625 33.015625 
z
" id="DejaVuSans-110"/>
      <path d="M 8.015625 75.875 
L 15.828125 75.875 
Q 23.140625 64.359375 26.78125 53.3125 
Q 30.421875 42.28125 30.421875 31.390625 
Q 30.421875 20.453125 26.78125 9.375 
Q 23.140625 -1.703125 15.828125 -13.1875 
L 8.015625 -13.1875 
Q 14.5 -2 17.703125 9.0625 
Q 20.90625 20.125 20.90625 31.390625 
Q 20.90625 42.671875 17.703125 53.65625 
Q 14.5 64.65625 8.015625 75.875 
z
" id="DejaVuSans-41"/>
     </defs>
     <g transform="translate(77.303219 342.217594)scale(0.17 -0.17)">
      <use xlink:href="#DejaVuSans-108"/>
      <use x="27.783203" xlink:href="#DejaVuSans-111"/>
      <use x="88.964844" xlink:href="#DejaVuSans-103"/>
      <use x="152.441406" xlink:href="#DejaVuSans-49"/>
      <use x="216.064453" xlink:href="#DejaVuSans-48"/>
      <use x="279.6875" xlink:href="#DejaVuSans-40"/>
      <use x="318.701172" xlink:href="#DejaVuSans-35"/>
      <use x="402.490234" xlink:href="#DejaVuSans-32"/>
      <use x="434.277344" xlink:href="#DejaVuSans-102"/>
      <use x="469.404297" xlink:href="#DejaVuSans-45"/>
      <use x="505.488281" xlink:href="#DejaVuSans-101"/>
      <use x="567.011719" xlink:href="#DejaVuSans-118"/>
      <use x="626.191406" xlink:href="#DejaVuSans-97"/>
      <use x="687.470703" xlink:href="#DejaVuSans-108"/>
      <use x="715.253906" xlink:href="#DejaVuSans-115"/>
      <use x="767.353516" xlink:href="#DejaVuSans-32"/>
      <use x="799.140625" xlink:href="#DejaVuSans-47"/>
      <use x="832.832031" xlink:href="#DejaVuSans-32"/>
      <use x="864.619141" xlink:href="#DejaVuSans-100"/>
      <use x="928.095703" xlink:href="#DejaVuSans-105"/>
      <use x="955.878906" xlink:href="#DejaVuSans-109"/>
      <use x="1053.291016" xlink:href="#DejaVuSans-101"/>
      <use x="1114.814453" xlink:href="#DejaVuSans-110"/>
      <use x="1178.193359" xlink:href="#DejaVuSans-115"/>
      <use x="1230.292969" xlink:href="#DejaVuSans-105"/>
      <use x="1258.076172" xlink:href="#DejaVuSans-111"/>
      <use x="1319.257812" xlink:href="#DejaVuSans-110"/>
      <use x="1382.636719" xlink:href="#DejaVuSans-41"/>
     </g>
    </g>
   </g>
   <g id="matplotlib.axis_2">
    <g id="ytick_1">
     <g id="line2d_21">
      <path clip-path="url(#p1bbbcfb23b)" d="M 57.6 298.944 
L 338.688 298.944 
" style="fill:none;stroke:#b0b0b0;stroke-linecap:square;stroke-width:0.8;"/>
     </g>
     <g id="line2d_22">
      <defs>
       <path d="M 0 0 
L -3.5 0 
" id="md629f93999" style="stroke:#000000;stroke-width:0.8;"/>
      </defs>
      <g>
       <use style="stroke:#000000;stroke-width:0.8;" x="57.6" xlink:href="#md629f93999" y="298.944"/>
      </g>
     </g>
     <g id="text_6">
      <!-- 0.0 -->
      <defs>
       <path d="M 10.6875 12.40625 
L 21 12.40625 
L 21 0 
L 10.6875 0 
z
" id="DejaVuSans-46"/>
      </defs>
      <g transform="translate(25.155 305.02275)scale(0.16 -0.16)">
       <use xlink:href="#DejaVuSans-48"/>
       <use x="63.623047" xlink:href="#DejaVuSans-46"/>
       <use x="95.410156" xlink:href="#DejaVuSans-48"/>
      </g>
     </g>
    </g>
    <g id="ytick_2">
     <g id="line2d_23">
      <path clip-path="url(#p1bbbcfb23b)" d="M 57.6 245.22202 
L 338.688 245.22202 
" style="fill:none;stroke:#b0b0b0;stroke-linecap:square;stroke-width:0.8;"/>
     </g>
     <g id="line2d_24">
      <g>
       <use style="stroke:#000000;stroke-width:0.8;" x="57.6" xlink:href="#md629f93999" y="245.22202"/>
      </g>
     </g>
     <g id="text_7">
      <!-- 0.2 -->
      <g transform="translate(25.155 251.30077)scale(0.16 -0.16)">
       <use xlink:href="#DejaVuSans-48"/>
       <use x="63.623047" xlink:href="#DejaVuSans-46"/>
       <use x="95.410156" xlink:href="#DejaVuSans-50"/>
      </g>
     </g>
    </g>
    <g id="ytick_3">
     <g id="line2d_25">
      <path clip-path="url(#p1bbbcfb23b)" d="M 57.6 191.50004 
L 338.688 191.50004 
" style="fill:none;stroke:#b0b0b0;stroke-linecap:square;stroke-width:0.8;"/>
     </g>
     <g id="line2d_26">
      <g>
       <use style="stroke:#000000;stroke-width:0.8;" x="57.6" xlink:href="#md629f93999" y="191.50004"/>
      </g>
     </g>
     <g id="text_8">
      <!-- 0.4 -->
      <g transform="translate(25.155 197.57879)scale(0.16 -0.16)">
       <use xlink:href="#DejaVuSans-48"/>
       <use x="63.623047" xlink:href="#DejaVuSans-46"/>
       <use x="95.410156" xlink:href="#DejaVuSans-52"/>
      </g>
     </g>
    </g>
    <g id="ytick_4">
     <g id="line2d_27">
      <path clip-path="url(#p1bbbcfb23b)" d="M 57.6 137.778059 
L 338.688 137.778059 
" style="fill:none;stroke:#b0b0b0;stroke-linecap:square;stroke-width:0.8;"/>
     </g>
     <g id="line2d_28">
      <g>
       <use style="stroke:#000000;stroke-width:0.8;" x="57.6" xlink:href="#md629f93999" y="137.778059"/>
      </g>
     </g>
     <g id="text_9">
      <!-- 0.6 -->
      <g transform="translate(25.155 143.856809)scale(0.16 -0.16)">
       <use xlink:href="#DejaVuSans-48"/>
       <use x="63.623047" xlink:href="#DejaVuSans-46"/>
       <use x="95.410156" xlink:href="#DejaVuSans-54"/>
      </g>
     </g>
    </g>
    <g id="ytick_5">
     <g id="line2d_29">
      <path clip-path="url(#p1bbbcfb23b)" d="M 57.6 84.056079 
L 338.688 84.056079 
" style="fill:none;stroke:#b0b0b0;stroke-linecap:square;stroke-width:0.8;"/>
     </g>
     <g id="line2d_30">
      <g>
       <use style="stroke:#000000;stroke-width:0.8;" x="57.6" xlink:href="#md629f93999" y="84.056079"/>
      </g>
     </g>
     <g id="text_10">
      <!-- 0.8 -->
      <defs>
       <path d="M 31.78125 34.625 
Q 24.75 34.625 20.71875 30.859375 
Q 16.703125 27.09375 16.703125 20.515625 
Q 16.703125 13.921875 20.71875 10.15625 
Q 24.75 6.390625 31.78125 6.390625 
Q 38.8125 6.390625 42.859375 10.171875 
Q 46.921875 13.96875 46.921875 20.515625 
Q 46.921875 27.09375 42.890625 30.859375 
Q 38.875 34.625 31.78125 34.625 
z
M 21.921875 38.8125 
Q 15.578125 40.375 12.03125 44.71875 
Q 8.5 49.078125 8.5 55.328125 
Q 8.5 64.0625 14.71875 69.140625 
Q 20.953125 74.21875 31.78125 74.21875 
Q 42.671875 74.21875 48.875 69.140625 
Q 55.078125 64.0625 55.078125 55.328125 
Q 55.078125 49.078125 51.53125 44.71875 
Q 48 40.375 41.703125 38.8125 
Q 48.828125 37.15625 52.796875 32.3125 
Q 56.78125 27.484375 56.78125 20.515625 
Q 56.78125 9.90625 50.3125 4.234375 
Q 43.84375 -1.421875 31.78125 -1.421875 
Q 19.734375 -1.421875 13.25 4.234375 
Q 6.78125 9.90625 6.78125 20.515625 
Q 6.78125 27.484375 10.78125 32.3125 
Q 14.796875 37.15625 21.921875 38.8125 
z
M 18.3125 54.390625 
Q 18.3125 48.734375 21.84375 45.5625 
Q 25.390625 42.390625 31.78125 42.390625 
Q 38.140625 42.390625 41.71875 45.5625 
Q 45.3125 48.734375 45.3125 54.390625 
Q 45.3125 60.0625 41.71875 63.234375 
Q 38.140625 66.40625 31.78125 66.40625 
Q 25.390625 66.40625 21.84375 63.234375 
Q 18.3125 60.0625 18.3125 54.390625 
z
" id="DejaVuSans-56"/>
      </defs>
      <g transform="translate(25.155 90.134829)scale(0.16 -0.16)">
       <use xlink:href="#DejaVuSans-48"/>
       <use x="63.623047" xlink:href="#DejaVuSans-46"/>
       <use x="95.410156" xlink:href="#DejaVuSans-56"/>
      </g>
     </g>
    </g>
    <g id="ytick_6">
     <g id="line2d_31">
      <path clip-path="url(#p1bbbcfb23b)" d="M 57.6 30.334099 
L 338.688 30.334099 
" style="fill:none;stroke:#b0b0b0;stroke-linecap:square;stroke-width:0.8;"/>
     </g>
     <g id="line2d_32">
      <g>
       <use style="stroke:#000000;stroke-width:0.8;" x="57.6" xlink:href="#md629f93999" y="30.334099"/>
      </g>
     </g>
     <g id="text_11">
      <!-- 1.0 -->
      <g transform="translate(25.155 36.412849)scale(0.16 -0.16)">
       <use xlink:href="#DejaVuSans-49"/>
       <use x="63.623047" xlink:href="#DejaVuSans-46"/>
       <use x="95.410156" xlink:href="#DejaVuSans-48"/>
      </g>
     </g>
    </g>
    <g id="text_12">
     <!-- Fraction of function,target pairs -->
     <defs>
      <path d="M 9.8125 72.90625 
L 51.703125 72.90625 
L 51.703125 64.59375 
L 19.671875 64.59375 
L 19.671875 43.109375 
L 48.578125 43.109375 
L 48.578125 34.8125 
L 19.671875 34.8125 
L 19.671875 0 
L 9.8125 0 
z
" id="DejaVuSans-70"/>
      <path d="M 41.109375 46.296875 
Q 39.59375 47.171875 37.8125 47.578125 
Q 36.03125 48 33.890625 48 
Q 26.265625 48 22.1875 43.046875 
Q 18.109375 38.09375 18.109375 28.8125 
L 18.109375 0 
L 9.078125 0 
L 9.078125 54.6875 
L 18.109375 54.6875 
L 18.109375 46.1875 
Q 20.953125 51.171875 25.484375 53.578125 
Q 30.03125 56 36.53125 56 
Q 37.453125 56 38.578125 55.875 
Q 39.703125 55.765625 41.0625 55.515625 
z
" id="DejaVuSans-114"/>
      <path d="M 48.78125 52.59375 
L 48.78125 44.1875 
Q 44.96875 46.296875 41.140625 47.34375 
Q 37.3125 48.390625 33.40625 48.390625 
Q 24.65625 48.390625 19.8125 42.84375 
Q 14.984375 37.3125 14.984375 27.296875 
Q 14.984375 17.28125 19.8125 11.734375 
Q 24.65625 6.203125 33.40625 6.203125 
Q 37.3125 6.203125 41.140625 7.25 
Q 44.96875 8.296875 48.78125 10.40625 
L 48.78125 2.09375 
Q 45.015625 0.34375 40.984375 -0.53125 
Q 36.96875 -1.421875 32.421875 -1.421875 
Q 20.0625 -1.421875 12.78125 6.34375 
Q 5.515625 14.109375 5.515625 27.296875 
Q 5.515625 40.671875 12.859375 48.328125 
Q 20.21875 56 33.015625 56 
Q 37.15625 56 41.109375 55.140625 
Q 45.0625 54.296875 48.78125 52.59375 
z
" id="DejaVuSans-99"/>
      <path d="M 18.3125 70.21875 
L 18.3125 54.6875 
L 36.8125 54.6875 
L 36.8125 47.703125 
L 18.3125 47.703125 
L 18.3125 18.015625 
Q 18.3125 11.328125 20.140625 9.421875 
Q 21.96875 7.515625 27.59375 7.515625 
L 36.8125 7.515625 
L 36.8125 0 
L 27.59375 0 
Q 17.1875 0 13.234375 3.875 
Q 9.28125 7.765625 9.28125 18.015625 
L 9.28125 47.703125 
L 2.6875 47.703125 
L 2.6875 54.6875 
L 9.28125 54.6875 
L 9.28125 70.21875 
z
" id="DejaVuSans-116"/>
      <path d="M 8.5 21.578125 
L 8.5 54.6875 
L 17.484375 54.6875 
L 17.484375 21.921875 
Q 17.484375 14.15625 20.5 10.265625 
Q 23.53125 6.390625 29.59375 6.390625 
Q 36.859375 6.390625 41.078125 11.03125 
Q 45.3125 15.671875 45.3125 23.6875 
L 45.3125 54.6875 
L 54.296875 54.6875 
L 54.296875 0 
L 45.3125 0 
L 45.3125 8.40625 
Q 42.046875 3.421875 37.71875 1 
Q 33.40625 -1.421875 27.6875 -1.421875 
Q 18.265625 -1.421875 13.375 4.4375 
Q 8.5 10.296875 8.5 21.578125 
z
M 31.109375 56 
z
" id="DejaVuSans-117"/>
      <path d="M 11.71875 12.40625 
L 22.015625 12.40625 
L 22.015625 4 
L 14.015625 -11.625 
L 7.71875 -11.625 
L 11.71875 4 
z
" id="DejaVuSans-44"/>
      <path d="M 18.109375 8.203125 
L 18.109375 -20.796875 
L 9.078125 -20.796875 
L 9.078125 54.6875 
L 18.109375 54.6875 
L 18.109375 46.390625 
Q 20.953125 51.265625 25.265625 53.625 
Q 29.59375 56 35.59375 56 
Q 45.5625 56 51.78125 48.09375 
Q 58.015625 40.1875 58.015625 27.296875 
Q 58.015625 14.40625 51.78125 6.484375 
Q 45.5625 -1.421875 35.59375 -1.421875 
Q 29.59375 -1.421875 25.265625 0.953125 
Q 20.953125 3.328125 18.109375 8.203125 
z
M 48.6875 27.296875 
Q 48.6875 37.203125 44.609375 42.84375 
Q 40.53125 48.484375 33.40625 48.484375 
Q 26.265625 48.484375 22.1875 42.84375 
Q 18.109375 37.203125 18.109375 27.296875 
Q 18.109375 17.390625 22.1875 11.75 
Q 26.265625 6.109375 33.40625 6.109375 
Q 40.53125 6.109375 44.609375 11.75 
Q 48.6875 17.390625 48.6875 27.296875 
z
" id="DejaVuSans-112"/>
     </defs>
     <g transform="translate(17.619531 298.435375)rotate(-90)scale(0.17 -0.17)">
      <use xlink:href="#DejaVuSans-70"/>
      <use x="57.410156" xlink:href="#DejaVuSans-114"/>
      <use x="98.523438" xlink:href="#DejaVuSans-97"/>
      <use x="159.802734" xlink:href="#DejaVuSans-99"/>
      <use x="214.783203" xlink:href="#DejaVuSans-116"/>
      <use x="253.992188" xlink:href="#DejaVuSans-105"/>
      <use x="281.775391" xlink:href="#DejaVuSans-111"/>
      <use x="342.957031" xlink:href="#DejaVuSans-110"/>
      <use x="406.335938" xlink:href="#DejaVuSans-32"/>
      <use x="438.123047" xlink:href="#DejaVuSans-111"/>
      <use x="499.304688" xlink:href="#DejaVuSans-102"/>
      <use x="534.509766" xlink:href="#DejaVuSans-32"/>
      <use x="566.296875" xlink:href="#DejaVuSans-102"/>
      <use x="601.501953" xlink:href="#DejaVuSans-117"/>
      <use x="664.880859" xlink:href="#DejaVuSans-110"/>
      <use x="728.259766" xlink:href="#DejaVuSans-99"/>
      <use x="783.240234" xlink:href="#DejaVuSans-116"/>
      <use x="822.449219" xlink:href="#DejaVuSans-105"/>
      <use x="850.232422" xlink:href="#DejaVuSans-111"/>
      <use x="911.414062" xlink:href="#DejaVuSans-110"/>
      <use x="974.792969" xlink:href="#DejaVuSans-44"/>
      <use x="1006.580078" xlink:href="#DejaVuSans-116"/>
      <use x="1045.789062" xlink:href="#DejaVuSans-97"/>
      <use x="1107.068359" xlink:href="#DejaVuSans-114"/>
      <use x="1148.166016" xlink:href="#DejaVuSans-103"/>
      <use x="1211.642578" xlink:href="#DejaVuSans-101"/>
      <use x="1273.166016" xlink:href="#DejaVuSans-116"/>
      <use x="1312.375" xlink:href="#DejaVuSans-32"/>
      <use x="1344.162109" xlink:href="#DejaVuSans-112"/>
      <use x="1407.638672" xlink:href="#DejaVuSans-97"/>
      <use x="1468.917969" xlink:href="#DejaVuSans-105"/>
      <use x="1496.701172" xlink:href="#DejaVuSans-114"/>
      <use x="1537.814453" xlink:href="#DejaVuSans-115"/>
     </g>
    </g>
   </g>
   <g id="line2d_33">
    <defs>
     <path d="M 0 1.5 
C 0.397805 1.5 0.77937 1.341951 1.06066 1.06066 
C 1.341951 0.77937 1.5 0.397805 1.5 0 
C 1.5 -0.397805 1.341951 -0.77937 1.06066 -1.06066 
C 0.77937 -1.341951 0.397805 -1.5 0 -1.5 
C -0.397805 -1.5 -0.77937 -1.341951 -1.06066 -1.06066 
C -1.341951 -0.77937 -1.5 -0.397805 -1.5 0 
C -1.5 0.397805 -1.341951 0.77937 -1.06066 1.06066 
C -0.77937 1.341951 -0.397805 1.5 0 1.5 
z
" id="m712e6b3ea5" style="stroke:#f5deb3;"/>
    </defs>
    <g>
     <use style="fill:#f5deb3;stroke:#f5deb3;" x="322.833938" xlink:href="#m712e6b3ea5" y="214.674227"/>
     <use style="fill:#f5deb3;stroke:#f5deb3;" x="322.833938" xlink:href="#m712e6b3ea5" y="214.674227"/>
    </g>
   </g>
   <g id="line2d_34">
    <defs>
     <path d="M 0 1.5 
C 0.397805 1.5 0.77937 1.341951 1.06066 1.06066 
C 1.341951 0.77937 1.5 0.397805 1.5 0 
C 1.5 -0.397805 1.341951 -0.77937 1.06066 -1.06066 
C 0.77937 -1.341951 0.397805 -1.5 0 -1.5 
C -0.397805 -1.5 -0.77937 -1.341951 -1.06066 -1.06066 
C -1.341951 -0.77937 -1.5 -0.397805 -1.5 0 
C -1.5 0.397805 -1.341951 0.77937 -1.06066 1.06066 
C -0.77937 1.341951 -0.397805 1.5 0 1.5 
z
" id="mcda2fe1179" style="stroke:#000080;"/>
    </defs>
    <g>
     <use style="fill:#000080;stroke:#000080;" x="230.386875" xlink:href="#mcda2fe1179" y="246.275392"/>
     <use style="fill:#000080;stroke:#000080;" x="230.386875" xlink:href="#mcda2fe1179" y="246.275392"/>
    </g>
   </g>
   <g id="line2d_35">
    <path d="M 100.530685 298.944 
L 100.530685 298.417314 
L 101.506816 298.417314 
L 101.506816 296.837256 
L 103.839902 296.837256 
L 103.839902 296.31057 
L 103.993014 296.31057 
L 103.993014 294.203825 
L 104.23523 294.203825 
L 104.23523 293.150453 
L 104.913428 293.150453 
L 104.913428 291.570395 
L 105.22869 291.570395 
L 105.22869 289.990337 
L 106.249145 289.990337 
L 106.249145 289.463651 
L 106.409139 289.463651 
L 106.462146 286.83022 
L 106.672578 286.83022 
L 106.724791 282.616732 
L 106.957836 282.616732 
L 106.957836 282.090045 
L 107.162405 282.090045 
L 107.238504 278.403243 
L 107.314272 278.403243 
L 107.364602 276.823185 
L 107.539621 276.823185 
L 107.539621 276.296499 
L 107.860069 276.296499 
L 107.884477 275.243126 
L 108.126693 275.243126 
L 108.126693 274.71644 
L 108.294265 274.71644 
L 108.341848 270.502952 
L 108.436627 270.502952 
L 108.507375 268.922893 
L 108.717912 268.922893 
L 108.717912 268.396207 
L 109.063255 268.396207 
L 109.154203 266.816149 
L 109.31223 266.816149 
L 109.31223 265.762777 
L 109.491096 265.762777 
L 109.491096 264.709405 
L 109.995347 264.709405 
L 110.081574 263.129347 
L 110.380053 263.129347 
L 110.380053 262.075974 
L 110.569269 262.075974 
L 110.631888 260.495916 
L 110.921172 260.495916 
L 110.921172 259.96923 
L 111.064034 259.96923 
L 111.165366 258.915858 
L 111.446004 258.915858 
L 111.446004 258.389172 
L 111.722198 258.389172 
L 111.722198 257.862486 
L 111.858671 257.862486 
L 111.858671 257.3358 
L 115.586238 257.3358 
L 115.586238 256.809114 
L 128.305651 256.809114 
L 128.305651 256.282427 
L 128.92961 256.282427 
L 128.92961 255.755741 
L 129.125518 255.755741 
L 129.125518 255.229055 
L 130.073348 255.229055 
L 130.073348 254.702369 
L 130.717333 254.702369 
L 130.717333 254.175683 
L 131.483947 254.175683 
L 131.483947 253.648997 
L 133.583458 253.648997 
L 133.583458 253.122311 
L 133.82209 253.122311 
L 133.82209 252.595625 
L 136.452002 252.595625 
L 136.452002 252.068939 
L 137.984817 252.068939 
L 137.984817 251.542253 
L 205.400734 251.542253 
L 205.400734 251.015567 
L 208.004597 251.015567 
L 208.004597 250.488881 
L 220.292112 250.488881 
L 220.292112 249.962195 
L 220.656029 249.962195 
L 220.683876 248.908822 
L 221.547077 248.908822 
L 221.547077 248.382136 
L 221.973559 248.382136 
L 221.973559 247.85545 
L 223.265921 247.85545 
L 223.281944 246.802078 
L 230.386875 246.802078 
L 230.386875 246.275392 
L 338.688 246.275392 
L 338.688 246.275392 
" style="fill:none;stroke:#000080;stroke-linecap:square;stroke-width:1.5;"/>
   </g>
   <g id="line2d_36">
    <defs>
     <path d="M 0 6 
C 1.591219 6 3.117479 5.367802 4.242641 4.242641 
C 5.367802 3.117479 6 1.591219 6 0 
C 6 -1.591219 5.367802 -3.117479 4.242641 -4.242641 
C 3.117479 -5.367802 1.591219 -6 0 -6 
C -1.591219 -6 -3.117479 -5.367802 -4.242641 -4.242641 
C -5.367802 -3.117479 -6 -1.591219 -6 0 
C -6 1.591219 -5.367802 3.117479 -4.242641 4.242641 
C -3.117479 5.367802 -1.591219 6 0 6 
z
" id="md6f1c2706a" style="stroke:#000080;stroke-width:1.5;"/>
    </defs>
    <g>
     <use style="fill-opacity:0;stroke:#000080;stroke-width:1.5;" x="137.984817" xlink:href="#md6f1c2706a" y="252.068939"/>
     <use style="fill-opacity:0;stroke:#000080;stroke-width:1.5;" x="230.386875" xlink:href="#md6f1c2706a" y="246.802078"/>
     <use style="fill-opacity:0;stroke:#000080;stroke-width:1.5;" x="230.386875" xlink:href="#md6f1c2706a" y="246.275392"/>
     <use style="fill-opacity:0;stroke:#000080;stroke-width:1.5;" x="230.386875" xlink:href="#md6f1c2706a" y="246.275392"/>
     <use style="fill-opacity:0;stroke:#000080;stroke-width:1.5;" x="338.688" xlink:href="#md6f1c2706a" y="246.275392"/>
    </g>
   </g>
   <g id="line2d_37">
    <path style="fill:none;stroke:#000080;stroke-linecap:square;stroke-width:1.5;"/>
    <g/>
   </g>
   <g id="line2d_38">
    <path clip-path="url(#p1bbbcfb23b)" d="M 230.319248 246.802078 
" style="fill:none;stroke:#000080;stroke-linecap:square;stroke-width:1.5;"/>
    <defs>
     <path d="M -12 12 
L 12 -12 
M -12 -12 
L 12 12 
" id="m00374b7524" style="stroke:#000080;"/>
    </defs>
    <g clip-path="url(#p1bbbcfb23b)">
     <use style="fill:#000080;stroke:#000080;" x="230.319248" xlink:href="#m00374b7524" y="246.802078"/>
    </g>
   </g>
   <g id="line2d_39">
    <g>
     <use style="fill:#000080;stroke:#000080;" x="302.541351" xlink:href="#mcda2fe1179" y="230.47481"/>
     <use style="fill:#000080;stroke:#000080;" x="302.541351" xlink:href="#mcda2fe1179" y="230.47481"/>
    </g>
   </g>
   <g id="line2d_40">
    <path d="M 103.560868 298.944 
L 103.560868 298.417314 
L 103.839902 298.417314 
L 103.839902 297.890628 
L 104.144793 297.890628 
L 104.144793 295.257197 
L 104.414709 295.257197 
L 104.414709 293.150453 
L 105.086095 293.150453 
L 105.086095 292.623767 
L 105.22869 292.623767 
L 105.22869 292.097081 
L 105.48246 292.097081 
L 105.566235 291.043709 
L 105.594071 291.043709 
L 105.649611 289.990337 
L 105.760161 289.990337 
L 105.787689 288.410278 
L 105.951954 288.410278 
L 105.951954 286.83022 
L 106.30264 286.83022 
L 106.30264 286.303534 
L 107.111487 286.303534 
L 107.187808 283.143418 
L 107.489795 283.143418 
L 107.489795 282.616732 
L 107.737516 282.616732 
L 107.737516 282.090045 
L 107.884477 282.090045 
L 107.884477 280.509987 
L 108.03021 280.509987 
L 108.03021 279.456615 
L 108.294265 279.456615 
L 108.341848 277.876557 
L 108.41298 277.876557 
L 108.507375 274.189754 
L 108.694644 274.189754 
L 108.694644 271.556324 
L 109.176867 271.556324 
L 109.176867 269.976266 
L 109.401893 269.976266 
L 109.401893 269.449579 
L 110.081574 269.449579 
L 110.081574 268.922893 
L 110.231452 268.922893 
L 110.231452 267.869521 
L 110.464402 267.869521 
L 110.464402 266.289463 
L 110.694282 266.289463 
L 110.77713 264.709405 
L 110.880138 264.709405 
L 110.880138 263.129347 
L 111.084347 263.129347 
L 111.185562 260.495916 
L 111.286193 260.495916 
L 111.286193 259.96923 
L 111.722198 259.96923 
L 111.761299 258.915858 
L 111.83924 258.915858 
L 111.878081 257.3358 
L 115.680082 257.3358 
L 115.680082 256.809114 
L 128.426234 256.809114 
L 128.426234 256.282427 
L 129.03872 256.282427 
L 129.03872 255.755741 
L 129.168756 255.755741 
L 129.168756 255.229055 
L 129.721306 255.229055 
L 129.818655 254.175683 
L 130.059675 254.175683 
L 130.059675 253.648997 
L 130.344571 253.648997 
L 130.45189 252.595625 
L 130.907284 252.595625 
L 130.907284 252.068939 
L 131.268332 252.068939 
L 131.268332 251.542253 
L 208.723718 251.542253 
L 208.723718 251.015567 
L 220.08722 251.015567 
L 220.08722 250.488881 
L 220.283708 250.488881 
L 220.283708 249.962195 
L 221.034152 249.962195 
L 221.136003 248.908822 
L 221.364392 248.908822 
L 221.364392 248.382136 
L 221.751672 248.382136 
L 221.751672 247.85545 
L 222.117118 247.85545 
L 222.117118 247.328764 
L 233.005446 247.328764 
L 233.005446 246.802078 
L 234.67242 246.802078 
L 234.67242 246.275392 
L 234.903817 246.275392 
L 234.952543 245.22202 
L 235.762917 245.22202 
L 235.861848 243.641962 
L 236.214245 243.641962 
L 236.214245 243.115275 
L 236.335115 243.115275 
L 236.380207 242.061903 
L 246.566781 242.061903 
L 246.582564 241.008531 
L 247.007954 241.008531 
L 247.007954 240.481845 
L 247.134015 240.481845 
L 247.134015 239.955159 
L 247.339739 239.955159 
L 247.339739 239.428473 
L 247.480103 239.428473 
L 247.480103 238.901787 
L 247.737244 238.901787 
L 247.737244 238.375101 
L 248.026195 238.375101 
L 248.026195 237.848415 
L 248.17865 237.848415 
L 248.17865 237.321729 
L 248.380556 237.321729 
L 248.380556 236.795043 
L 248.538697 236.795043 
L 248.538697 236.268356 
L 248.834827 236.268356 
L 248.834827 235.74167 
L 249.181363 235.74167 
L 249.181363 235.214984 
L 249.568592 235.214984 
L 249.568592 234.688298 
L 265.858637 234.688298 
L 265.858637 234.161612 
L 266.052799 234.161612 
L 266.052799 233.634926 
L 266.31298 233.634926 
L 266.31298 233.10824 
L 284.831272 233.10824 
L 284.915023 232.054868 
L 288.227086 232.054868 
L 288.227086 231.528182 
L 299.515531 231.528182 
L 299.515531 231.001496 
L 302.541351 231.001496 
L 302.541351 230.47481 
L 338.688 230.47481 
L 338.688 230.47481 
" style="fill:none;stroke:#000080;stroke-linecap:square;stroke-width:1.5;"/>
   </g>
   <g id="line2d_41">
    <g>
     <use style="fill-opacity:0;stroke:#000080;stroke-width:1.5;" x="131.268332" xlink:href="#md6f1c2706a" y="251.542253"/>
     <use style="fill-opacity:0;stroke:#000080;stroke-width:1.5;" x="249.568592" xlink:href="#md6f1c2706a" y="235.214984"/>
     <use style="fill-opacity:0;stroke:#000080;stroke-width:1.5;" x="302.541351" xlink:href="#md6f1c2706a" y="230.47481"/>
     <use style="fill-opacity:0;stroke:#000080;stroke-width:1.5;" x="302.541351" xlink:href="#md6f1c2706a" y="230.47481"/>
     <use style="fill-opacity:0;stroke:#000080;stroke-width:1.5;" x="338.688" xlink:href="#md6f1c2706a" y="230.47481"/>
    </g>
   </g>
   <g id="line2d_42">
    <path style="fill:none;stroke:#000080;stroke-linecap:square;stroke-width:1.5;"/>
    <g/>
   </g>
   <g id="line2d_43">
    <path clip-path="url(#p1bbbcfb23b)" d="M 258.38525 234.688298 
" style="fill:none;stroke:#000080;stroke-linecap:square;stroke-width:1.5;"/>
    <g clip-path="url(#p1bbbcfb23b)">
     <use style="fill:#000080;stroke:#000080;" x="258.38525" xlink:href="#m00374b7524" y="234.688298"/>
    </g>
   </g>
   <g id="line2d_44">
    <defs>
     <path d="M 0 1.5 
C 0.397805 1.5 0.77937 1.341951 1.06066 1.06066 
C 1.341951 0.77937 1.5 0.397805 1.5 0 
C 1.5 -0.397805 1.341951 -0.77937 1.06066 -1.06066 
C 0.77937 -1.341951 0.397805 -1.5 0 -1.5 
C -0.397805 -1.5 -0.77937 -1.341951 -1.06066 -1.06066 
C -1.341951 -0.77937 -1.5 -0.397805 -1.5 0 
C -1.5 0.397805 -1.341951 0.77937 -1.06066 1.06066 
C -0.77937 1.341951 -0.397805 1.5 0 1.5 
z
" id="m73f71c357f" style="stroke:#ff00ff;"/>
    </defs>
    <g>
     <use style="fill:#ff00ff;stroke:#ff00ff;" x="299.128065" xlink:href="#m73f71c357f" y="246.275392"/>
     <use style="fill:#ff00ff;stroke:#ff00ff;" x="299.128065" xlink:href="#m73f71c357f" y="246.275392"/>
    </g>
   </g>
   <g id="line2d_45">
    <path d="M 111.663381 298.944 
L 111.722198 297.890628 
L 111.878081 297.890628 
L 111.878081 295.783884 
L 112.013345 295.783884 
L 112.013345 295.257197 
L 112.412953 295.257197 
L 112.412953 293.677139 
L 112.600071 293.677139 
L 112.618673 292.623767 
L 112.748334 292.623767 
L 112.748334 291.570395 
L 113.04113 291.570395 
L 113.04113 291.043709 
L 113.167699 291.043709 
L 113.167699 289.990337 
L 113.699967 289.990337 
L 113.699967 289.463651 
L 113.942906 289.463651 
L 113.994527 283.670104 
L 114.148479 283.670104 
L 114.199496 282.616732 
L 114.452366 282.616732 
L 114.452366 282.090045 
L 114.800335 282.090045 
L 114.816733 281.036673 
L 114.914798 281.036673 
L 114.914798 280.509987 
L 115.237757 280.509987 
L 115.285689 278.403243 
L 115.349395 278.403243 
L 115.4287 276.296499 
L 115.850828 276.296499 
L 115.912505 275.243126 
L 116.157057 275.243126 
L 116.157057 273.663068 
L 116.323218 273.663068 
L 116.368262 272.609696 
L 116.680349 272.609696 
L 116.75384 271.556324 
L 116.856209 271.556324 
L 116.856209 270.502952 
L 116.972471 270.502952 
L 116.972471 269.976266 
L 117.259781 269.976266 
L 117.259781 269.449579 
L 118.06717 269.449579 
L 118.06717 268.922893 
L 118.390628 268.922893 
L 118.390628 267.869521 
L 118.523652 267.869521 
L 118.629344 266.289463 
L 118.864837 266.289463 
L 118.864837 265.762777 
L 119.007199 265.762777 
L 119.032959 262.075974 
L 119.301163 262.075974 
L 119.339143 260.495916 
L 120.093994 260.495916 
L 120.093994 258.915858 
L 120.214681 258.915858 
L 120.214681 257.862486 
L 120.770987 257.862486 
L 120.770987 257.3358 
L 121.590203 257.3358 
L 121.590203 256.809114 
L 143.828447 256.809114 
L 143.828447 256.282427 
L 144.780163 256.282427 
L 144.780163 255.755741 
L 145.821666 255.755741 
L 145.821666 255.229055 
L 146.240393 255.229055 
L 146.240393 254.702369 
L 147.340698 254.702369 
L 147.340698 254.175683 
L 149.241465 254.175683 
L 149.241465 253.648997 
L 149.40913 253.648997 
L 149.40913 253.122311 
L 153.669178 253.122311 
L 153.669178 252.595625 
L 174.117506 252.595625 
L 174.117506 252.068939 
L 190.97605 252.068939 
L 190.97605 251.542253 
L 253.162471 251.542253 
L 253.162471 251.015567 
L 260.691902 251.015567 
L 260.691902 250.488881 
L 263.503318 250.488881 
L 263.503318 249.962195 
L 265.927359 249.962195 
L 265.930116 248.908822 
L 274.652455 248.908822 
L 274.652455 248.382136 
L 275.974434 248.382136 
L 275.974434 247.85545 
L 280.439351 247.85545 
L 280.439351 247.328764 
L 281.395522 247.328764 
L 281.395522 246.802078 
L 299.128065 246.802078 
L 299.128065 246.275392 
L 338.688 246.275392 
L 338.688 246.275392 
" style="fill:none;stroke:#ff00ff;stroke-linecap:square;stroke-width:1.5;"/>
   </g>
   <g id="line2d_46">
    <defs>
     <path d="M -0 8.485281 
L 5.091169 0 
L 0 -8.485281 
L -5.091169 -0 
z
" id="m053e18a93d" style="stroke:#ff00ff;stroke-linejoin:miter;stroke-width:1.5;"/>
    </defs>
    <g>
     <use style="fill-opacity:0;stroke:#ff00ff;stroke-linejoin:miter;stroke-width:1.5;" x="153.669178" xlink:href="#m053e18a93d" y="252.595625"/>
     <use style="fill-opacity:0;stroke:#ff00ff;stroke-linejoin:miter;stroke-width:1.5;" x="253.162471" xlink:href="#m053e18a93d" y="251.015567"/>
     <use style="fill-opacity:0;stroke:#ff00ff;stroke-linejoin:miter;stroke-width:1.5;" x="299.128065" xlink:href="#m053e18a93d" y="246.275392"/>
     <use style="fill-opacity:0;stroke:#ff00ff;stroke-linejoin:miter;stroke-width:1.5;" x="299.128065" xlink:href="#m053e18a93d" y="246.275392"/>
     <use style="fill-opacity:0;stroke:#ff00ff;stroke-linejoin:miter;stroke-width:1.5;" x="338.688" xlink:href="#m053e18a93d" y="246.275392"/>
    </g>
   </g>
   <g id="line2d_47">
    <path style="fill:none;stroke:#ff00ff;stroke-linecap:square;stroke-width:1.5;"/>
    <g/>
   </g>
   <g id="line2d_48">
    <path clip-path="url(#p1bbbcfb23b)" d="M 230.320882 251.542253 
" style="fill:none;stroke:#ff00ff;stroke-linecap:square;stroke-width:1.5;"/>
    <defs>
     <path d="M -12 12 
L 12 -12 
M -12 -12 
L 12 12 
" id="m38f7cabf74" style="stroke:#ff00ff;"/>
    </defs>
    <g clip-path="url(#p1bbbcfb23b)">
     <use style="fill:#ff00ff;stroke:#ff00ff;" x="230.320882" xlink:href="#m38f7cabf74" y="251.542253"/>
    </g>
   </g>
   <g id="line2d_49">
    <defs>
     <path d="M 0 1.5 
C 0.397805 1.5 0.77937 1.341951 1.06066 1.06066 
C 1.341951 0.77937 1.5 0.397805 1.5 0 
C 1.5 -0.397805 1.341951 -0.77937 1.06066 -1.06066 
C 0.77937 -1.341951 0.397805 -1.5 0 -1.5 
C -0.397805 -1.5 -0.77937 -1.341951 -1.06066 -1.06066 
C -1.341951 -0.77937 -1.5 -0.397805 -1.5 0 
C -1.5 0.397805 -1.341951 0.77937 -1.06066 1.06066 
C -0.77937 1.341951 -0.397805 1.5 0 1.5 
z
" id="m7357bba534" style="stroke:#ff0000;"/>
    </defs>
    <g>
     <use style="fill:#ff0000;stroke:#ff0000;" x="265.389217" xlink:href="#m7357bba534" y="246.275392"/>
     <use style="fill:#ff0000;stroke:#ff0000;" x="265.389217" xlink:href="#m7357bba534" y="246.275392"/>
    </g>
   </g>
   <g id="line2d_50">
    <path d="M 104.023475 298.944 
L 104.023475 297.890628 
L 105.979182 297.890628 
L 105.979182 297.363942 
L 106.195485 297.363942 
L 106.195485 296.837256 
L 106.355971 296.837256 
L 106.355971 296.31057 
L 106.462146 296.31057 
L 106.462146 293.150453 
L 106.776849 293.150453 
L 106.776849 292.623767 
L 107.06042 292.623767 
L 107.06042 289.990337 
L 107.136965 289.990337 
L 107.136965 289.463651 
L 107.263796 289.463651 
L 107.263796 288.410278 
L 107.514726 288.410278 
L 107.514726 286.303534 
L 108.577836 286.303534 
L 108.577836 285.250162 
L 108.694644 285.250162 
L 108.694644 282.090045 
L 108.764355 282.090045 
L 108.764355 281.563359 
L 108.97183 281.563359 
L 108.97183 279.456615 
L 109.108789 279.456615 
L 109.108789 277.349871 
L 109.131511 277.349871 
L 109.131511 274.71644 
L 109.24468 274.71644 
L 109.24468 274.189754 
L 109.468838 274.189754 
L 109.468838 273.663068 
L 109.601963 273.663068 
L 109.601963 272.609696 
L 109.71213 272.609696 
L 109.71213 272.08301 
L 110.016944 272.08301 
L 110.016944 269.976266 
L 110.060057 269.976266 
L 110.060057 269.449579 
L 110.295293 269.449579 
L 110.295293 268.922893 
L 110.485426 268.922893 
L 110.485426 268.396207 
L 110.61104 268.396207 
L 110.61104 267.869521 
L 111.023335 267.869521 
L 111.023335 267.342835 
L 111.24601 267.342835 
L 111.24601 265.762777 
L 111.83924 265.762777 
L 111.83924 265.236091 
L 111.974805 265.236091 
L 111.974805 264.709405 
L 113.04113 264.709405 
L 113.04113 263.129347 
L 113.095487 263.129347 
L 113.095487 262.60266 
L 113.149674 262.60266 
L 113.149674 262.075974 
L 113.329092 262.075974 
L 113.329092 261.549288 
L 113.594805 261.549288 
L 113.594805 261.022602 
L 114.0117 261.022602 
L 114.0117 260.495916 
L 114.635501 260.495916 
L 114.635501 257.3358 
L 115.205729 257.3358 
L 115.205729 256.809114 
L 134.629858 256.809114 
L 134.629858 256.282427 
L 135.467186 256.282427 
L 135.467186 255.755741 
L 136.242175 255.755741 
L 136.242175 255.229055 
L 136.294869 255.229055 
L 136.294869 254.702369 
L 136.799298 254.702369 
L 136.799298 254.175683 
L 137.15803 254.175683 
L 137.15803 253.122311 
L 138.455946 253.122311 
L 138.455946 252.595625 
L 139.584885 252.595625 
L 139.584885 252.068939 
L 141.67279 252.068939 
L 141.67279 251.542253 
L 216.712493 251.542253 
L 216.712493 251.015567 
L 225.352912 251.015567 
L 225.352912 250.488881 
L 226.213852 250.488881 
L 226.213852 249.962195 
L 226.484682 249.962195 
L 226.484682 249.435508 
L 228.83069 249.435508 
L 228.83069 248.908822 
L 239.756 248.908822 
L 239.756 248.382136 
L 240.596223 248.382136 
L 240.596223 247.85545 
L 241.678483 247.85545 
L 241.678483 247.328764 
L 251.95758 247.328764 
L 251.95758 246.802078 
L 265.389217 246.802078 
L 265.389217 246.275392 
L 338.688 246.275392 
" style="fill:none;stroke:#ff0000;stroke-linecap:square;stroke-width:1.5;"/>
   </g>
   <g id="line2d_51">
    <defs>
     <path d="M 0 -6 
L -5.196152 -3 
L -5.196152 3 
L -0 6 
L 5.196152 3 
L 5.196152 -3 
z
" id="m6b21b695c8" style="stroke:#ff0000;stroke-linejoin:miter;stroke-width:1.5;"/>
    </defs>
    <g>
     <use style="fill-opacity:0;stroke:#ff0000;stroke-linejoin:miter;stroke-width:1.5;" x="141.67279" xlink:href="#m6b21b695c8" y="252.068939"/>
     <use style="fill-opacity:0;stroke:#ff0000;stroke-linejoin:miter;stroke-width:1.5;" x="241.678483" xlink:href="#m6b21b695c8" y="247.328764"/>
     <use style="fill-opacity:0;stroke:#ff0000;stroke-linejoin:miter;stroke-width:1.5;" x="265.389217" xlink:href="#m6b21b695c8" y="246.275392"/>
     <use style="fill-opacity:0;stroke:#ff0000;stroke-linejoin:miter;stroke-width:1.5;" x="265.389217" xlink:href="#m6b21b695c8" y="246.275392"/>
     <use style="fill-opacity:0;stroke:#ff0000;stroke-linejoin:miter;stroke-width:1.5;" x="338.688" xlink:href="#m6b21b695c8" y="246.275392"/>
    </g>
   </g>
   <g id="line2d_52">
    <path style="fill:none;stroke:#ff0000;stroke-linecap:square;stroke-width:1.5;"/>
    <g/>
   </g>
   <g id="line2d_53">
    <path clip-path="url(#p1bbbcfb23b)" d="M 230.319226 248.908822 
" style="fill:none;stroke:#ff0000;stroke-linecap:square;stroke-width:1.5;"/>
    <defs>
     <path d="M -12 12 
L 12 -12 
M -12 -12 
L 12 12 
" id="meea55a32ac" style="stroke:#ff0000;"/>
    </defs>
    <g clip-path="url(#p1bbbcfb23b)">
     <use style="fill:#ff0000;stroke:#ff0000;" x="230.319226" xlink:href="#meea55a32ac" y="248.908822"/>
    </g>
   </g>
   <g id="line2d_54">
    <defs>
     <path d="M 0 1.5 
C 0.397805 1.5 0.77937 1.341951 1.06066 1.06066 
C 1.341951 0.77937 1.5 0.397805 1.5 0 
C 1.5 -0.397805 1.341951 -0.77937 1.06066 -1.06066 
C 0.77937 -1.341951 0.397805 -1.5 0 -1.5 
C -0.397805 -1.5 -0.77937 -1.341951 -1.06066 -1.06066 
C -1.341951 -0.77937 -1.5 -0.397805 -1.5 0 
C -1.5 0.397805 -1.341951 0.77937 -1.06066 1.06066 
C -0.77937 1.341951 -0.397805 1.5 0 1.5 
z
" id="m0c17dfd7a1" style="stroke:#ff7500;"/>
    </defs>
    <g>
     <use style="fill:#ff7500;stroke:#ff7500;" x="304.901375" xlink:href="#m0c17dfd7a1" y="241.008531"/>
     <use style="fill:#ff7500;stroke:#ff7500;" x="304.901375" xlink:href="#m0c17dfd7a1" y="241.008531"/>
    </g>
   </g>
   <g id="line2d_55">
    <path d="M 100.86217 298.944 
L 100.86217 297.890628 
L 102.060491 297.890628 
L 102.060491 296.837256 
L 102.297303 296.837256 
L 102.297303 295.257197 
L 102.66306 295.257197 
L 102.66306 293.150453 
L 102.794183 293.150453 
L 102.859376 292.097081 
L 102.924327 292.097081 
L 102.924327 291.570395 
L 103.053508 291.570395 
L 103.117741 289.990337 
L 103.466855 289.990337 
L 103.466855 288.936964 
L 103.685435 288.936964 
L 103.685435 288.410278 
L 103.993014 288.410278 
L 103.993014 287.883592 
L 104.533344 287.883592 
L 104.533344 286.83022 
L 104.680512 286.83022 
L 104.680512 286.303534 
L 105.143273 286.303534 
L 105.143273 285.776848 
L 105.370129 285.776848 
L 105.398279 284.19679 
L 105.51043 284.19679 
L 105.51043 283.143418 
L 105.732589 283.143418 
L 105.815175 278.929929 
L 105.979182 278.929929 
L 105.979182 278.403243 
L 106.355971 278.403243 
L 106.355971 276.823185 
L 106.620207 276.823185 
L 106.620207 276.296499 
L 106.802819 276.296499 
L 106.802819 274.71644 
L 107.238504 274.71644 
L 107.238504 273.663068 
L 107.835627 273.663068 
L 107.835627 273.136382 
L 108.078518 273.136382 
L 108.078518 272.609696 
L 108.341848 272.609696 
L 108.341848 271.556324 
L 108.671345 271.556324 
L 108.764355 269.449579 
L 108.97183 269.449579 
L 108.97183 267.869521 
L 109.086037 267.869521 
L 109.086037 265.762777 
L 109.24468 265.762777 
L 109.24468 264.709405 
L 109.865203 264.709405 
L 109.865203 264.182719 
L 110.145965 264.182719 
L 110.145965 263.656033 
L 110.485426 263.656033 
L 110.590167 262.60266 
L 110.61104 262.60266 
L 110.673509 261.549288 
L 111.104637 261.549288 
L 111.104637 259.96923 
L 111.386247 259.96923 
L 111.386247 259.442544 
L 112.09017 259.442544 
L 112.09017 258.389172 
L 112.655818 258.389172 
L 112.655818 257.862486 
L 114.317959 257.862486 
L 114.317959 257.3358 
L 114.485807 257.3358 
L 114.485807 256.809114 
L 128.531065 256.809114 
L 128.531065 256.282427 
L 130.644738 256.282427 
L 130.644738 255.755741 
L 131.515432 255.755741 
L 131.515432 255.229055 
L 132.036046 255.229055 
L 132.036046 254.702369 
L 132.428499 254.702369 
L 132.428499 254.175683 
L 132.905511 254.175683 
L 132.905511 253.648997 
L 133.0559 253.648997 
L 133.0559 253.122311 
L 133.431933 253.122311 
L 133.431933 252.595625 
L 134.090098 252.595625 
L 134.090098 252.068939 
L 137.089613 252.068939 
L 137.089613 251.542253 
L 209.368565 251.542253 
L 209.368565 251.015567 
L 213.111429 251.015567 
L 213.111429 250.488881 
L 213.882298 250.488881 
L 213.882298 249.962195 
L 222.806915 249.962195 
L 222.806915 249.435508 
L 223.51223 249.435508 
L 223.51223 248.908822 
L 224.949694 248.908822 
L 224.949694 248.382136 
L 225.119489 248.382136 
L 225.119489 247.85545 
L 225.282878 247.85545 
L 225.282878 247.328764 
L 227.696688 247.328764 
L 227.696688 246.802078 
L 230.291295 246.802078 
L 230.291295 246.275392 
L 239.709445 246.275392 
L 239.709445 245.748706 
L 249.465238 245.748706 
L 249.468072 244.695334 
L 254.489222 244.695334 
L 254.489222 244.168648 
L 264.250616 244.168648 
L 264.250616 243.641962 
L 283.414361 243.641962 
L 283.414361 243.115275 
L 284.222613 243.115275 
L 284.222613 242.588589 
L 287.13903 242.588589 
L 287.13903 242.061903 
L 290.757783 242.061903 
L 290.757783 241.535217 
L 304.901375 241.535217 
L 304.901375 241.008531 
L 338.688 241.008531 
L 338.688 241.008531 
" style="fill:none;stroke:#ff7500;stroke-linecap:square;stroke-width:1.5;"/>
   </g>
   <g id="line2d_56">
    <defs>
     <path d="M 0 -6 
L -1.347084 -1.854102 
L -5.706339 -1.854102 
L -2.179628 0.708204 
L -3.526712 4.854102 
L -0 2.291796 
L 3.526712 4.854102 
L 2.179628 0.708204 
L 5.706339 -1.854102 
L 1.347084 -1.854102 
z
" id="mbfb3db943f" style="stroke:#ff7500;stroke-linejoin:bevel;stroke-width:1.5;"/>
    </defs>
    <g>
     <use style="fill-opacity:0;stroke:#ff7500;stroke-linejoin:bevel;stroke-width:1.5;" x="137.089613" xlink:href="#mbfb3db943f" y="252.068939"/>
     <use style="fill-opacity:0;stroke:#ff7500;stroke-linejoin:bevel;stroke-width:1.5;" x="254.489222" xlink:href="#mbfb3db943f" y="244.695334"/>
     <use style="fill-opacity:0;stroke:#ff7500;stroke-linejoin:bevel;stroke-width:1.5;" x="304.901375" xlink:href="#mbfb3db943f" y="241.008531"/>
     <use style="fill-opacity:0;stroke:#ff7500;stroke-linejoin:bevel;stroke-width:1.5;" x="304.901375" xlink:href="#mbfb3db943f" y="241.008531"/>
     <use style="fill-opacity:0;stroke:#ff7500;stroke-linejoin:bevel;stroke-width:1.5;" x="338.688" xlink:href="#mbfb3db943f" y="241.008531"/>
    </g>
   </g>
   <g id="line2d_57">
    <path style="fill:none;stroke:#ff7500;stroke-linecap:square;stroke-width:1.5;"/>
    <g/>
   </g>
   <g id="line2d_58">
    <path clip-path="url(#p1bbbcfb23b)" d="M 230.319575 246.275392 
" style="fill:none;stroke:#ff7500;stroke-linecap:square;stroke-width:1.5;"/>
    <defs>
     <path d="M -12 12 
L 12 -12 
M -12 -12 
L 12 12 
" id="me36f512c6a" style="stroke:#ff7500;"/>
    </defs>
    <g clip-path="url(#p1bbbcfb23b)">
     <use style="fill:#ff7500;stroke:#ff7500;" x="230.319575" xlink:href="#me36f512c6a" y="246.275392"/>
    </g>
   </g>
   <g id="line2d_59">
    <path d="M 338.688 246.275392 
L 369.60768 293.571802 
" style="fill:none;stroke:#ff00ff;stroke-linecap:square;stroke-width:1.5;"/>
    <g>
     <use style="fill-opacity:0;stroke:#ff00ff;stroke-linejoin:miter;stroke-width:1.5;" x="338.688" xlink:href="#m053e18a93d" y="246.275392"/>
     <use style="fill-opacity:0;stroke:#ff00ff;stroke-linejoin:miter;stroke-width:1.5;" x="369.60768" xlink:href="#m053e18a93d" y="293.571802"/>
    </g>
   </g>
   <g id="line2d_60">
    <path d="M 338.688 246.275392 
L 369.60768 241.998701 
" style="fill:none;stroke:#ff0000;stroke-linecap:square;stroke-width:1.5;"/>
    <g>
     <use style="fill-opacity:0;stroke:#ff0000;stroke-linejoin:miter;stroke-width:1.5;" x="338.688" xlink:href="#m6b21b695c8" y="246.275392"/>
     <use style="fill-opacity:0;stroke:#ff0000;stroke-linejoin:miter;stroke-width:1.5;" x="369.60768" xlink:href="#m6b21b695c8" y="241.998701"/>
    </g>
   </g>
   <g id="line2d_61">
    <path d="M 338.688 246.275392 
L 369.60768 190.4256 
" style="fill:none;stroke:#000080;stroke-linecap:square;stroke-width:1.5;"/>
    <g>
     <use style="fill-opacity:0;stroke:#000080;stroke-width:1.5;" x="338.688" xlink:href="#md6f1c2706a" y="246.275392"/>
     <use style="fill-opacity:0;stroke:#000080;stroke-width:1.5;" x="369.60768" xlink:href="#md6f1c2706a" y="190.4256"/>
    </g>
   </g>
   <g id="line2d_62">
    <path d="M 338.688 241.008531 
L 369.60768 138.852499 
" style="fill:none;stroke:#ff7500;stroke-linecap:square;stroke-width:1.5;"/>
    <g>
     <use style="fill-opacity:0;stroke:#ff7500;stroke-linejoin:bevel;stroke-width:1.5;" x="338.688" xlink:href="#mbfb3db943f" y="241.008531"/>
     <use style="fill-opacity:0;stroke:#ff7500;stroke-linejoin:bevel;stroke-width:1.5;" x="369.60768" xlink:href="#mbfb3db943f" y="138.852499"/>
    </g>
   </g>
   <g id="line2d_63">
    <path d="M 338.688 230.47481 
L 369.60768 87.279398 
" style="fill:none;stroke:#000080;stroke-linecap:square;stroke-width:1.5;"/>
    <g>
     <use style="fill-opacity:0;stroke:#000080;stroke-width:1.5;" x="338.688" xlink:href="#md6f1c2706a" y="230.47481"/>
     <use style="fill-opacity:0;stroke:#000080;stroke-width:1.5;" x="369.60768" xlink:href="#md6f1c2706a" y="87.279398"/>
    </g>
   </g>
   <g id="line2d_64">
    <path d="M 338.688 298.944 
L 338.688 30.334099 
" style="fill:none;stroke:#000000;stroke-linecap:square;stroke-width:1.5;"/>
   </g>
   <g id="patch_3">
    <path d="M 57.6 298.944 
L 57.6 27.648 
" style="fill:none;stroke:#000000;stroke-linecap:square;stroke-linejoin:miter;stroke-width:0.8;"/>
   </g>
   <g id="patch_4">
    <path d="M 338.688 298.944 
L 338.688 27.648 
" style="fill:none;stroke:#000000;stroke-linecap:square;stroke-linejoin:miter;stroke-width:0.8;"/>
   </g>
   <g id="patch_5">
    <path d="M 57.6 298.944 
L 338.688 298.944 
" style="fill:none;stroke:#000000;stroke-linecap:square;stroke-linejoin:miter;stroke-width:0.8;"/>
   </g>
   <g id="patch_6">
    <path d="M 57.6 27.648 
L 338.688 27.648 
" style="fill:none;stroke:#000000;stroke-linecap:square;stroke-linejoin:miter;stroke-width:0.8;"/>
   </g>
   <g id="text_13">
    <!-- 025s-2e4 -->
    <defs>
     <path d="M 10.796875 72.90625 
L 49.515625 72.90625 
L 49.515625 64.59375 
L 19.828125 64.59375 
L 19.828125 46.734375 
Q 21.96875 47.46875 24.109375 47.828125 
Q 26.265625 48.1875 28.421875 48.1875 
Q 40.625 48.1875 47.75 41.5 
Q 54.890625 34.8125 54.890625 23.390625 
Q 54.890625 11.625 47.5625 5.09375 
Q 40.234375 -1.421875 26.90625 -1.421875 
Q 22.3125 -1.421875 17.546875 -0.640625 
Q 12.796875 0.140625 7.71875 1.703125 
L 7.71875 11.625 
Q 12.109375 9.234375 16.796875 8.0625 
Q 21.484375 6.890625 26.703125 6.890625 
Q 35.15625 6.890625 40.078125 11.328125 
Q 45.015625 15.765625 45.015625 23.390625 
Q 45.015625 31 40.078125 35.4375 
Q 35.15625 39.890625 26.703125 39.890625 
Q 22.75 39.890625 18.8125 39.015625 
Q 14.890625 38.140625 10.796875 36.28125 
z
" id="DejaVuSans-53"/>
    </defs>
    <g transform="translate(375.22944 298.262739)scale(0.17 -0.17)">
     <use xlink:href="#DejaVuSans-48"/>
     <use x="63.623047" xlink:href="#DejaVuSans-50"/>
     <use x="127.246094" xlink:href="#DejaVuSans-53"/>
     <use x="190.869141" xlink:href="#DejaVuSans-115"/>
     <use x="242.96875" xlink:href="#DejaVuSans-45"/>
     <use x="279.052734" xlink:href="#DejaVuSans-50"/>
     <use x="342.675781" xlink:href="#DejaVuSans-101"/>
     <use x="404.199219" xlink:href="#DejaVuSans-52"/>
    </g>
   </g>
   <g id="text_14">
    <!-- 050s-2e4 -->
    <g transform="translate(375.22944 246.689638)scale(0.17 -0.17)">
     <use xlink:href="#DejaVuSans-48"/>
     <use x="63.623047" xlink:href="#DejaVuSans-53"/>
     <use x="127.246094" xlink:href="#DejaVuSans-48"/>
     <use x="190.869141" xlink:href="#DejaVuSans-115"/>
     <use x="242.96875" xlink:href="#DejaVuSans-45"/>
     <use x="279.052734" xlink:href="#DejaVuSans-50"/>
     <use x="342.675781" xlink:href="#DejaVuSans-101"/>
     <use x="404.199219" xlink:href="#DejaVuSans-52"/>
    </g>
   </g>
   <g id="text_15">
    <!-- 100-2e4 -->
    <g transform="translate(375.22944 195.116537)scale(0.17 -0.17)">
     <use xlink:href="#DejaVuSans-49"/>
     <use x="63.623047" xlink:href="#DejaVuSans-48"/>
     <use x="127.246094" xlink:href="#DejaVuSans-48"/>
     <use x="190.869141" xlink:href="#DejaVuSans-45"/>
     <use x="226.953125" xlink:href="#DejaVuSans-50"/>
     <use x="290.576172" xlink:href="#DejaVuSans-101"/>
     <use x="352.099609" xlink:href="#DejaVuSans-52"/>
    </g>
   </g>
   <g id="text_16">
    <!-- 075s-2e4 -->
    <defs>
     <path d="M 8.203125 72.90625 
L 55.078125 72.90625 
L 55.078125 68.703125 
L 28.609375 0 
L 18.3125 0 
L 43.21875 64.59375 
L 8.203125 64.59375 
z
" id="DejaVuSans-55"/>
    </defs>
    <g transform="translate(375.22944 143.543437)scale(0.17 -0.17)">
     <use xlink:href="#DejaVuSans-48"/>
     <use x="63.623047" xlink:href="#DejaVuSans-55"/>
     <use x="127.246094" xlink:href="#DejaVuSans-53"/>
     <use x="190.869141" xlink:href="#DejaVuSans-115"/>
     <use x="242.96875" xlink:href="#DejaVuSans-45"/>
     <use x="279.052734" xlink:href="#DejaVuSans-50"/>
     <use x="342.675781" xlink:href="#DejaVuSans-101"/>
     <use x="404.199219" xlink:href="#DejaVuSans-52"/>
    </g>
   </g>
   <g id="text_17">
    <!-- 100-1e5 -->
    <g transform="translate(375.22944 91.970336)scale(0.17 -0.17)">
     <use xlink:href="#DejaVuSans-49"/>
     <use x="63.623047" xlink:href="#DejaVuSans-48"/>
     <use x="127.246094" xlink:href="#DejaVuSans-48"/>
     <use x="190.869141" xlink:href="#DejaVuSans-45"/>
     <use x="226.953125" xlink:href="#DejaVuSans-49"/>
     <use x="290.576172" xlink:href="#DejaVuSans-101"/>
     <use x="352.099609" xlink:href="#DejaVuSans-53"/>
    </g>
   </g>
   <g id="text_18">
    <!-- best 2009 -->
    <defs>
     <path d="M 48.6875 27.296875 
Q 48.6875 37.203125 44.609375 42.84375 
Q 40.53125 48.484375 33.40625 48.484375 
Q 26.265625 48.484375 22.1875 42.84375 
Q 18.109375 37.203125 18.109375 27.296875 
Q 18.109375 17.390625 22.1875 11.75 
Q 26.265625 6.109375 33.40625 6.109375 
Q 40.53125 6.109375 44.609375 11.75 
Q 48.6875 17.390625 48.6875 27.296875 
z
M 18.109375 46.390625 
Q 20.953125 51.265625 25.265625 53.625 
Q 29.59375 56 35.59375 56 
Q 45.5625 56 51.78125 48.09375 
Q 58.015625 40.1875 58.015625 27.296875 
Q 58.015625 14.40625 51.78125 6.484375 
Q 45.5625 -1.421875 35.59375 -1.421875 
Q 29.59375 -1.421875 25.265625 0.953125 
Q 20.953125 3.328125 18.109375 8.203125 
L 18.109375 0 
L 9.078125 0 
L 9.078125 75.984375 
L 18.109375 75.984375 
z
" id="DejaVuSans-98"/>
     <path d="M 10.984375 1.515625 
L 10.984375 10.5 
Q 14.703125 8.734375 18.5 7.8125 
Q 22.3125 6.890625 25.984375 6.890625 
Q 35.75 6.890625 40.890625 13.453125 
Q 46.046875 20.015625 46.78125 33.40625 
Q 43.953125 29.203125 39.59375 26.953125 
Q 35.25 24.703125 29.984375 24.703125 
Q 19.046875 24.703125 12.671875 31.3125 
Q 6.296875 37.9375 6.296875 49.421875 
Q 6.296875 60.640625 12.9375 67.421875 
Q 19.578125 74.21875 30.609375 74.21875 
Q 43.265625 74.21875 49.921875 64.515625 
Q 56.59375 54.828125 56.59375 36.375 
Q 56.59375 19.140625 48.40625 8.859375 
Q 40.234375 -1.421875 26.421875 -1.421875 
Q 22.703125 -1.421875 18.890625 -0.6875 
Q 15.09375 0.046875 10.984375 1.515625 
z
M 30.609375 32.421875 
Q 37.25 32.421875 41.125 36.953125 
Q 45.015625 41.5 45.015625 49.421875 
Q 45.015625 57.28125 41.125 61.84375 
Q 37.25 66.40625 30.609375 66.40625 
Q 23.96875 66.40625 20.09375 61.84375 
Q 16.21875 57.28125 16.21875 49.421875 
Q 16.21875 41.5 20.09375 36.953125 
Q 23.96875 32.421875 30.609375 32.421875 
z
" id="DejaVuSans-57"/>
    </defs>
    <g transform="translate(375.22944 40.397235)scale(0.17 -0.17)">
     <use xlink:href="#DejaVuSans-98"/>
     <use x="63.476562" xlink:href="#DejaVuSans-101"/>
     <use x="125" xlink:href="#DejaVuSans-115"/>
     <use x="177.099609" xlink:href="#DejaVuSans-116"/>
     <use x="216.308594" xlink:href="#DejaVuSans-32"/>
     <use x="248.095703" xlink:href="#DejaVuSans-50"/>
     <use x="311.71875" xlink:href="#DejaVuSans-48"/>
     <use x="375.341797" xlink:href="#DejaVuSans-48"/>
     <use x="438.964844" xlink:href="#DejaVuSans-57"/>
    </g>
   </g>
   <g id="text_19">
    <!-- bbob f20, 40-D -->
    <defs>
     <path d="M 19.671875 64.796875 
L 19.671875 8.109375 
L 31.59375 8.109375 
Q 46.6875 8.109375 53.6875 14.9375 
Q 60.6875 21.78125 60.6875 36.53125 
Q 60.6875 51.171875 53.6875 57.984375 
Q 46.6875 64.796875 31.59375 64.796875 
z
M 9.8125 72.90625 
L 30.078125 72.90625 
Q 51.265625 72.90625 61.171875 64.09375 
Q 71.09375 55.28125 71.09375 36.53125 
Q 71.09375 17.671875 61.125 8.828125 
Q 51.171875 0 30.078125 0 
L 9.8125 0 
z
" id="DejaVuSans-68"/>
    </defs>
    <g transform="translate(60.41088 38.111366)scale(0.102 -0.102)">
     <use xlink:href="#DejaVuSans-98"/>
     <use x="63.476562" xlink:href="#DejaVuSans-98"/>
     <use x="126.953125" xlink:href="#DejaVuSans-111"/>
     <use x="188.134766" xlink:href="#DejaVuSans-98"/>
     <use x="251.611328" xlink:href="#DejaVuSans-32"/>
     <use x="283.398438" xlink:href="#DejaVuSans-102"/>
     <use x="318.603516" xlink:href="#DejaVuSans-50"/>
     <use x="382.226562" xlink:href="#DejaVuSans-48"/>
     <use x="445.849609" xlink:href="#DejaVuSans-44"/>
     <use x="477.636719" xlink:href="#DejaVuSans-32"/>
     <use x="509.423828" xlink:href="#DejaVuSans-52"/>
     <use x="573.046875" xlink:href="#DejaVuSans-48"/>
     <use x="636.669922" xlink:href="#DejaVuSans-45"/>
     <use x="672.753906" xlink:href="#DejaVuSans-68"/>
    </g>
    <!-- 51 targets: 100..1e-08 -->
    <defs>
     <path d="M 11.71875 12.40625 
L 22.015625 12.40625 
L 22.015625 0 
L 11.71875 0 
z
M 11.71875 51.703125 
L 22.015625 51.703125 
L 22.015625 39.3125 
L 11.71875 39.3125 
z
" id="DejaVuSans-58"/>
    </defs>
    <g transform="translate(60.41088 49.533135)scale(0.102 -0.102)">
     <use xlink:href="#DejaVuSans-53"/>
     <use x="63.623047" xlink:href="#DejaVuSans-49"/>
     <use x="127.246094" xlink:href="#DejaVuSans-32"/>
     <use x="159.033203" xlink:href="#DejaVuSans-116"/>
     <use x="198.242188" xlink:href="#DejaVuSans-97"/>
     <use x="259.521484" xlink:href="#DejaVuSans-114"/>
     <use x="300.619141" xlink:href="#DejaVuSans-103"/>
     <use x="364.095703" xlink:href="#DejaVuSans-101"/>
     <use x="425.619141" xlink:href="#DejaVuSans-116"/>
     <use x="464.828125" xlink:href="#DejaVuSans-115"/>
     <use x="516.927734" xlink:href="#DejaVuSans-58"/>
     <use x="550.619141" xlink:href="#DejaVuSans-32"/>
     <use x="582.40625" xlink:href="#DejaVuSans-49"/>
     <use x="646.029297" xlink:href="#DejaVuSans-48"/>
     <use x="709.652344" xlink:href="#DejaVuSans-48"/>
     <use x="773.275391" xlink:href="#DejaVuSans-46"/>
     <use x="805.0625" xlink:href="#DejaVuSans-46"/>
     <use x="836.849609" xlink:href="#DejaVuSans-49"/>
     <use x="900.472656" xlink:href="#DejaVuSans-101"/>
     <use x="961.996094" xlink:href="#DejaVuSans-45"/>
     <use x="998.080078" xlink:href="#DejaVuSans-48"/>
     <use x="1061.703125" xlink:href="#DejaVuSans-56"/>
    </g>
    <!-- 15 instances -->
    <g transform="translate(60.41088 60.954904)scale(0.102 -0.102)">
     <use xlink:href="#DejaVuSans-49"/>
     <use x="63.623047" xlink:href="#DejaVuSans-53"/>
     <use x="127.246094" xlink:href="#DejaVuSans-32"/>
     <use x="159.033203" xlink:href="#DejaVuSans-105"/>
     <use x="186.816406" xlink:href="#DejaVuSans-110"/>
     <use x="250.195312" xlink:href="#DejaVuSans-115"/>
     <use x="302.294922" xlink:href="#DejaVuSans-116"/>
     <use x="341.503906" xlink:href="#DejaVuSans-97"/>
     <use x="402.783203" xlink:href="#DejaVuSans-110"/>
     <use x="466.162109" xlink:href="#DejaVuSans-99"/>
     <use x="521.142578" xlink:href="#DejaVuSans-101"/>
     <use x="582.666016" xlink:href="#DejaVuSans-115"/>
    </g>
   </g>
   <g id="text_20">
    <!-- v2.3.3.18.73 -->
    <defs>
     <path d="M 40.578125 39.3125 
Q 47.65625 37.796875 51.625 33 
Q 55.609375 28.21875 55.609375 21.1875 
Q 55.609375 10.40625 48.1875 4.484375 
Q 40.765625 -1.421875 27.09375 -1.421875 
Q 22.515625 -1.421875 17.65625 -0.515625 
Q 12.796875 0.390625 7.625 2.203125 
L 7.625 11.71875 
Q 11.71875 9.328125 16.59375 8.109375 
Q 21.484375 6.890625 26.8125 6.890625 
Q 36.078125 6.890625 40.9375 10.546875 
Q 45.796875 14.203125 45.796875 21.1875 
Q 45.796875 27.640625 41.28125 31.265625 
Q 36.765625 34.90625 28.71875 34.90625 
L 20.21875 34.90625 
L 20.21875 43.015625 
L 29.109375 43.015625 
Q 36.375 43.015625 40.234375 45.921875 
Q 44.09375 48.828125 44.09375 54.296875 
Q 44.09375 59.90625 40.109375 62.90625 
Q 36.140625 65.921875 28.71875 65.921875 
Q 24.65625 65.921875 20.015625 65.03125 
Q 15.375 64.15625 9.8125 62.3125 
L 9.8125 71.09375 
Q 15.4375 72.65625 20.34375 73.4375 
Q 25.25 74.21875 29.59375 74.21875 
Q 40.828125 74.21875 47.359375 69.109375 
Q 53.90625 64.015625 53.90625 55.328125 
Q 53.90625 49.265625 50.4375 45.09375 
Q 46.96875 40.921875 40.578125 39.3125 
z
" id="DejaVuSans-51"/>
    </defs>
    <g style="fill:#808080;" transform="translate(166.559625 294.151352)scale(0.1 -0.1)">
     <use xlink:href="#DejaVuSans-118"/>
     <use x="59.179688" xlink:href="#DejaVuSans-50"/>
     <use x="122.802734" xlink:href="#DejaVuSans-46"/>
     <use x="154.589844" xlink:href="#DejaVuSans-51"/>
     <use x="218.212891" xlink:href="#DejaVuSans-46"/>
     <use x="250" xlink:href="#DejaVuSans-51"/>
     <use x="313.623047" xlink:href="#DejaVuSans-46"/>
     <use x="345.410156" xlink:href="#DejaVuSans-49"/>
     <use x="409.033203" xlink:href="#DejaVuSans-56"/>
     <use x="472.65625" xlink:href="#DejaVuSans-46"/>
     <use x="504.443359" xlink:href="#DejaVuSans-55"/>
     <use x="568.066406" xlink:href="#DejaVuSans-51"/>
    </g>
   </g>
   <g id="text_21">
    <!-- 20 Schwefel x*sin(x) -->
    <defs>
     <path d="M 53.515625 70.515625 
L 53.515625 60.890625 
Q 47.90625 63.578125 42.921875 64.890625 
Q 37.9375 66.21875 33.296875 66.21875 
Q 25.25 66.21875 20.875 63.09375 
Q 16.5 59.96875 16.5 54.203125 
Q 16.5 49.359375 19.40625 46.890625 
Q 22.3125 44.4375 30.421875 42.921875 
L 36.375 41.703125 
Q 47.40625 39.59375 52.65625 34.296875 
Q 57.90625 29 57.90625 20.125 
Q 57.90625 9.515625 50.796875 4.046875 
Q 43.703125 -1.421875 29.984375 -1.421875 
Q 24.8125 -1.421875 18.96875 -0.25 
Q 13.140625 0.921875 6.890625 3.21875 
L 6.890625 13.375 
Q 12.890625 10.015625 18.65625 8.296875 
Q 24.421875 6.59375 29.984375 6.59375 
Q 38.421875 6.59375 43.015625 9.90625 
Q 47.609375 13.234375 47.609375 19.390625 
Q 47.609375 24.75 44.3125 27.78125 
Q 41.015625 30.8125 33.5 32.328125 
L 27.484375 33.5 
Q 16.453125 35.6875 11.515625 40.375 
Q 6.59375 45.0625 6.59375 53.421875 
Q 6.59375 63.09375 13.40625 68.65625 
Q 20.21875 74.21875 32.171875 74.21875 
Q 37.3125 74.21875 42.625 73.28125 
Q 47.953125 72.359375 53.515625 70.515625 
z
" id="DejaVuSans-83"/>
     <path d="M 54.890625 33.015625 
L 54.890625 0 
L 45.90625 0 
L 45.90625 32.71875 
Q 45.90625 40.484375 42.875 44.328125 
Q 39.84375 48.1875 33.796875 48.1875 
Q 26.515625 48.1875 22.3125 43.546875 
Q 18.109375 38.921875 18.109375 30.90625 
L 18.109375 0 
L 9.078125 0 
L 9.078125 75.984375 
L 18.109375 75.984375 
L 18.109375 46.1875 
Q 21.34375 51.125 25.703125 53.5625 
Q 30.078125 56 35.796875 56 
Q 45.21875 56 50.046875 50.171875 
Q 54.890625 44.34375 54.890625 33.015625 
z
" id="DejaVuSans-104"/>
     <path d="M 4.203125 54.6875 
L 13.1875 54.6875 
L 24.421875 12.015625 
L 35.59375 54.6875 
L 46.1875 54.6875 
L 57.421875 12.015625 
L 68.609375 54.6875 
L 77.59375 54.6875 
L 63.28125 0 
L 52.6875 0 
L 40.921875 44.828125 
L 29.109375 0 
L 18.5 0 
z
" id="DejaVuSans-119"/>
     <path d="M 54.890625 54.6875 
L 35.109375 28.078125 
L 55.90625 0 
L 45.3125 0 
L 29.390625 21.484375 
L 13.484375 0 
L 2.875 0 
L 24.125 28.609375 
L 4.6875 54.6875 
L 15.28125 54.6875 
L 29.78125 35.203125 
L 44.28125 54.6875 
z
" id="DejaVuSans-120"/>
     <path d="M 47.015625 60.890625 
L 29.5 51.421875 
L 47.015625 41.890625 
L 44.1875 37.109375 
L 27.78125 47.015625 
L 27.78125 28.609375 
L 22.21875 28.609375 
L 22.21875 47.015625 
L 5.8125 37.109375 
L 2.984375 41.890625 
L 20.515625 51.421875 
L 2.984375 60.890625 
L 5.8125 65.71875 
L 22.21875 55.8125 
L 22.21875 74.21875 
L 27.78125 74.21875 
L 27.78125 55.8125 
L 44.1875 65.71875 
z
" id="DejaVuSans-42"/>
    </defs>
    <g transform="translate(95.129937 21.648)scale(0.2 -0.2)">
     <use xlink:href="#DejaVuSans-50"/>
     <use x="63.623047" xlink:href="#DejaVuSans-48"/>
     <use x="127.246094" xlink:href="#DejaVuSans-32"/>
     <use x="159.033203" xlink:href="#DejaVuSans-83"/>
     <use x="222.509766" xlink:href="#DejaVuSans-99"/>
     <use x="277.490234" xlink:href="#DejaVuSans-104"/>
     <use x="340.869141" xlink:href="#DejaVuSans-119"/>
     <use x="422.65625" xlink:href="#DejaVuSans-101"/>
     <use x="484.179688" xlink:href="#DejaVuSans-102"/>
     <use x="519.384766" xlink:href="#DejaVuSans-101"/>
     <use x="580.908203" xlink:href="#DejaVuSans-108"/>
     <use x="608.691406" xlink:href="#DejaVuSans-32"/>
     <use x="640.478516" xlink:href="#DejaVuSans-120"/>
     <use x="699.658203" xlink:href="#DejaVuSans-42"/>
     <use x="749.658203" xlink:href="#DejaVuSans-115"/>
     <use x="801.757812" xlink:href="#DejaVuSans-105"/>
     <use x="829.541016" xlink:href="#DejaVuSans-110"/>
     <use x="892.919922" xlink:href="#DejaVuSans-40"/>
     <use x="931.933594" xlink:href="#DejaVuSans-120"/>
     <use x="991.113281" xlink:href="#DejaVuSans-41"/>
    </g>
   </g>
  </g>
 </g>
 <defs>
  <clipPath id="p1bbbcfb23b">
   <rect height="271.296" width="281.088" x="57.6" y="27.648"/>
  </clipPath>
 </defs>
</svg>
