<?xml version="1.0" encoding="utf-8" standalone="no"?>
<!DOCTYPE svg PUBLIC "-//W3C//DTD SVG 1.1//EN"
  "http://www.w3.org/Graphics/SVG/1.1/DTD/svg11.dtd">
<!-- Created with matplotlib (https://matplotlib.org/) -->
<svg height="345.6pt" version="1.1" viewBox="0 0 460.8 345.6" width="460.8pt" xmlns="http://www.w3.org/2000/svg" xmlns:xlink="http://www.w3.org/1999/xlink">
 <defs>
  <style type="text/css">
*{stroke-linecap:butt;stroke-linejoin:round;}
  </style>
 </defs>
 <g id="figure_1">
  <g id="patch_1">
   <path d="M 0 345.6 
L 460.8 345.6 
L 460.8 0 
L 0 0 
z
" style="fill:#ffffff;"/>
  </g>
  <g id="axes_1">
   <g id="patch_2">
    <path d="M 57.6 298.944 
L 338.688 298.944 
L 338.688 27.648 
L 57.6 27.648 
z
" style="fill:#ffffff;"/>
   </g>
   <g id="line2d_1">
    <path d="M 29.53256 298.944 
L 29.53256 225.207949 
L 119.301163 225.207949 
L 119.301163 219.941088 
L 125.255688 219.941088 
L 125.255688 214.674227 
L 143.144465 214.674227 
L 143.144465 209.407366 
L 169.605481 209.407366 
L 169.605481 204.140506 
L 177.876917 204.140506 
L 177.876917 198.873645 
L 186.971927 198.873645 
L 186.971927 193.606784 
L 231.136968 193.606784 
L 231.136968 188.339923 
L 233.471375 188.339923 
L 233.471375 183.073062 
L 233.490858 183.073062 
L 233.490858 177.806202 
L 233.509013 177.806202 
L 233.509013 172.539341 
L 233.535992 172.539341 
L 233.535992 167.27248 
L 233.552797 167.27248 
L 233.552797 162.005619 
L 233.56322 162.005619 
L 233.56322 156.738758 
L 233.578263 156.738758 
L 233.578263 151.471897 
L 233.584624 151.471897 
L 233.584624 146.205037 
L 233.593438 146.205037 
L 233.593438 140.938176 
L 233.611342 140.938176 
L 233.611342 135.671315 
L 233.623316 135.671315 
L 233.623316 130.404454 
L 233.633697 130.404454 
L 233.633697 125.137593 
L 233.638596 125.137593 
L 233.638596 119.870733 
L 233.647239 119.870733 
L 233.647239 114.603872 
L 233.655015 114.603872 
L 233.655015 109.337011 
L 233.662498 109.337011 
L 233.662498 104.07015 
L 233.683494 104.07015 
L 233.683494 98.803289 
L 233.695562 98.803289 
L 233.695562 93.536429 
L 233.701306 93.536429 
L 233.701306 88.269568 
L 233.708196 88.269568 
L 233.708196 83.002707 
L 233.719673 83.002707 
L 233.719673 77.735846 
L 233.735729 77.735846 
L 233.735729 72.468985 
L 233.752485 72.468985 
L 233.752485 67.202125 
L 233.765793 67.202125 
L 233.765793 61.935264 
L 233.780092 61.935264 
L 233.780092 56.668403 
L 233.791093 56.668403 
L 233.791093 51.401542 
L 233.800803 51.401542 
L 233.800803 46.134681 
L 233.811649 46.134681 
L 233.811649 40.867821 
L 233.824769 40.867821 
L 233.824769 35.60096 
L 233.834746 35.60096 
L 233.834746 30.334099 
L 338.688 30.334099 
" style="fill:none;stroke:#f5deb3;stroke-linecap:square;stroke-width:4;"/>
   </g>
   <g id="line2d_2">
    <defs>
     <path d="M -0 7.778175 
L 7.778175 0 
L 0 -7.778175 
L -7.778175 -0 
z
" id="m81be686965" style="stroke:#f5deb3;stroke-linejoin:miter;stroke-width:1.5;"/>
    </defs>
    <g>
     <use style="fill:#f5deb3;stroke:#f5deb3;stroke-linejoin:miter;stroke-width:1.5;" x="177.876917" xlink:href="#m81be686965" y="198.873645"/>
     <use style="fill:#f5deb3;stroke:#f5deb3;stroke-linejoin:miter;stroke-width:1.5;" x="233.719673" xlink:href="#m81be686965" y="83.002707"/>
     <use style="fill:#f5deb3;stroke:#f5deb3;stroke-linejoin:miter;stroke-width:1.5;" x="233.834746" xlink:href="#m81be686965" y="30.334099"/>
     <use style="fill:#f5deb3;stroke:#f5deb3;stroke-linejoin:miter;stroke-width:1.5;" x="233.834746" xlink:href="#m81be686965" y="30.334099"/>
     <use style="fill:#f5deb3;stroke:#f5deb3;stroke-linejoin:miter;stroke-width:1.5;" x="338.688" xlink:href="#m81be686965" y="30.334099"/>
    </g>
   </g>
   <g id="line2d_3">
    <path style="fill:none;stroke:#f5deb3;stroke-linecap:square;stroke-width:4;"/>
    <g/>
   </g>
   <g id="line2d_4">
    <path d="M 338.688 30.334099 
L 369.60768 35.706297 
" style="fill:none;stroke:#f5deb3;stroke-linecap:square;stroke-width:4;"/>
    <g>
     <use style="fill:#f5deb3;stroke:#f5deb3;stroke-linejoin:miter;stroke-width:1.5;" x="338.688" xlink:href="#m81be686965" y="30.334099"/>
     <use style="fill:#f5deb3;stroke:#f5deb3;stroke-linejoin:miter;stroke-width:1.5;" x="369.60768" xlink:href="#m81be686965" y="35.706297"/>
    </g>
   </g>
   <g id="matplotlib.axis_1">
    <g id="xtick_1">
     <g id="line2d_5">
      <path clip-path="url(#pb4473b4068)" d="M 57.6 298.944 
L 57.6 27.648 
" style="fill:none;stroke:#b0b0b0;stroke-linecap:square;stroke-width:0.8;"/>
     </g>
     <g id="line2d_6">
      <defs>
       <path d="M 0 0 
L 0 3.5 
" id="m372a34af20" style="stroke:#000000;stroke-width:0.8;"/>
      </defs>
      <g>
       <use style="stroke:#000000;stroke-width:0.8;" x="57.6" xlink:href="#m372a34af20" y="298.944"/>
      </g>
     </g>
     <g id="text_1">
      <!-- 0 -->
      <defs>
       <path d="M 31.78125 66.40625 
Q 24.171875 66.40625 20.328125 58.90625 
Q 16.5 51.421875 16.5 36.375 
Q 16.5 21.390625 20.328125 13.890625 
Q 24.171875 6.390625 31.78125 6.390625 
Q 39.453125 6.390625 43.28125 13.890625 
Q 47.125 21.390625 47.125 36.375 
Q 47.125 51.421875 43.28125 58.90625 
Q 39.453125 66.40625 31.78125 66.40625 
z
M 31.78125 74.21875 
Q 44.046875 74.21875 50.515625 64.515625 
Q 56.984375 54.828125 56.984375 36.375 
Q 56.984375 17.96875 50.515625 8.265625 
Q 44.046875 -1.421875 31.78125 -1.421875 
Q 19.53125 -1.421875 13.0625 8.265625 
Q 6.59375 17.96875 6.59375 36.375 
Q 6.59375 54.828125 13.0625 64.515625 
Q 19.53125 74.21875 31.78125 74.21875 
z
" id="DejaVuSans-48"/>
      </defs>
      <g transform="translate(51.2375 321.140875)scale(0.2 -0.2)">
       <use xlink:href="#DejaVuSans-48"/>
      </g>
     </g>
    </g>
    <g id="xtick_2">
     <g id="line2d_7">
      <path clip-path="url(#pb4473b4068)" d="M 137.910857 298.944 
L 137.910857 27.648 
" style="fill:none;stroke:#b0b0b0;stroke-linecap:square;stroke-width:0.8;"/>
     </g>
     <g id="line2d_8">
      <g>
       <use style="stroke:#000000;stroke-width:0.8;" x="137.910857" xlink:href="#m372a34af20" y="298.944"/>
      </g>
     </g>
     <g id="text_2">
      <!-- 2 -->
      <defs>
       <path d="M 19.1875 8.296875 
L 53.609375 8.296875 
L 53.609375 0 
L 7.328125 0 
L 7.328125 8.296875 
Q 12.9375 14.109375 22.625 23.890625 
Q 32.328125 33.6875 34.8125 36.53125 
Q 39.546875 41.84375 41.421875 45.53125 
Q 43.3125 49.21875 43.3125 52.78125 
Q 43.3125 58.59375 39.234375 62.25 
Q 35.15625 65.921875 28.609375 65.921875 
Q 23.96875 65.921875 18.8125 64.3125 
Q 13.671875 62.703125 7.8125 59.421875 
L 7.8125 69.390625 
Q 13.765625 71.78125 18.9375 73 
Q 24.125 74.21875 28.421875 74.21875 
Q 39.75 74.21875 46.484375 68.546875 
Q 53.21875 62.890625 53.21875 53.421875 
Q 53.21875 48.921875 51.53125 44.890625 
Q 49.859375 40.875 45.40625 35.40625 
Q 44.1875 33.984375 37.640625 27.21875 
Q 31.109375 20.453125 19.1875 8.296875 
z
" id="DejaVuSans-50"/>
      </defs>
      <g transform="translate(131.548357 321.140875)scale(0.2 -0.2)">
       <use xlink:href="#DejaVuSans-50"/>
      </g>
     </g>
    </g>
    <g id="xtick_3">
     <g id="line2d_9">
      <path clip-path="url(#pb4473b4068)" d="M 218.221714 298.944 
L 218.221714 27.648 
" style="fill:none;stroke:#b0b0b0;stroke-linecap:square;stroke-width:0.8;"/>
     </g>
     <g id="line2d_10">
      <g>
       <use style="stroke:#000000;stroke-width:0.8;" x="218.221714" xlink:href="#m372a34af20" y="298.944"/>
      </g>
     </g>
     <g id="text_3">
      <!-- 4 -->
      <defs>
       <path d="M 37.796875 64.3125 
L 12.890625 25.390625 
L 37.796875 25.390625 
z
M 35.203125 72.90625 
L 47.609375 72.90625 
L 47.609375 25.390625 
L 58.015625 25.390625 
L 58.015625 17.1875 
L 47.609375 17.1875 
L 47.609375 0 
L 37.796875 0 
L 37.796875 17.1875 
L 4.890625 17.1875 
L 4.890625 26.703125 
z
" id="DejaVuSans-52"/>
      </defs>
      <g transform="translate(211.859214 321.140875)scale(0.2 -0.2)">
       <use xlink:href="#DejaVuSans-52"/>
      </g>
     </g>
    </g>
    <g id="xtick_4">
     <g id="line2d_11">
      <path clip-path="url(#pb4473b4068)" d="M 298.532571 298.944 
L 298.532571 27.648 
" style="fill:none;stroke:#b0b0b0;stroke-linecap:square;stroke-width:0.8;"/>
     </g>
     <g id="line2d_12">
      <g>
       <use style="stroke:#000000;stroke-width:0.8;" x="298.532571" xlink:href="#m372a34af20" y="298.944"/>
      </g>
     </g>
     <g id="text_4">
      <!-- 6 -->
      <defs>
       <path d="M 33.015625 40.375 
Q 26.375 40.375 22.484375 35.828125 
Q 18.609375 31.296875 18.609375 23.390625 
Q 18.609375 15.53125 22.484375 10.953125 
Q 26.375 6.390625 33.015625 6.390625 
Q 39.65625 6.390625 43.53125 10.953125 
Q 47.40625 15.53125 47.40625 23.390625 
Q 47.40625 31.296875 43.53125 35.828125 
Q 39.65625 40.375 33.015625 40.375 
z
M 52.59375 71.296875 
L 52.59375 62.3125 
Q 48.875 64.0625 45.09375 64.984375 
Q 41.3125 65.921875 37.59375 65.921875 
Q 27.828125 65.921875 22.671875 59.328125 
Q 17.53125 52.734375 16.796875 39.40625 
Q 19.671875 43.65625 24.015625 45.921875 
Q 28.375 48.1875 33.59375 48.1875 
Q 44.578125 48.1875 50.953125 41.515625 
Q 57.328125 34.859375 57.328125 23.390625 
Q 57.328125 12.15625 50.6875 5.359375 
Q 44.046875 -1.421875 33.015625 -1.421875 
Q 20.359375 -1.421875 13.671875 8.265625 
Q 6.984375 17.96875 6.984375 36.375 
Q 6.984375 53.65625 15.1875 63.9375 
Q 23.390625 74.21875 37.203125 74.21875 
Q 40.921875 74.21875 44.703125 73.484375 
Q 48.484375 72.75 52.59375 71.296875 
z
" id="DejaVuSans-54"/>
      </defs>
      <g transform="translate(292.170071 321.140875)scale(0.2 -0.2)">
       <use xlink:href="#DejaVuSans-54"/>
      </g>
     </g>
    </g>
    <g id="xtick_5">
     <g id="line2d_13">
      <path clip-path="url(#pb4473b4068)" d="M 97.755429 298.944 
L 97.755429 27.648 
" style="fill:none;stroke:#b0b0b0;stroke-linecap:square;stroke-width:0.8;"/>
     </g>
     <g id="line2d_14">
      <defs>
       <path d="M 0 0 
L 0 2 
" id="m2f2ba014ea" style="stroke:#000000;stroke-width:0.6;"/>
      </defs>
      <g>
       <use style="stroke:#000000;stroke-width:0.6;" x="97.755429" xlink:href="#m2f2ba014ea" y="298.944"/>
      </g>
     </g>
    </g>
    <g id="xtick_6">
     <g id="line2d_15">
      <path clip-path="url(#pb4473b4068)" d="M 178.066286 298.944 
L 178.066286 27.648 
" style="fill:none;stroke:#b0b0b0;stroke-linecap:square;stroke-width:0.8;"/>
     </g>
     <g id="line2d_16">
      <g>
       <use style="stroke:#000000;stroke-width:0.6;" x="178.066286" xlink:href="#m2f2ba014ea" y="298.944"/>
      </g>
     </g>
    </g>
    <g id="xtick_7">
     <g id="line2d_17">
      <path clip-path="url(#pb4473b4068)" d="M 258.377143 298.944 
L 258.377143 27.648 
" style="fill:none;stroke:#b0b0b0;stroke-linecap:square;stroke-width:0.8;"/>
     </g>
     <g id="line2d_18">
      <g>
       <use style="stroke:#000000;stroke-width:0.6;" x="258.377143" xlink:href="#m2f2ba014ea" y="298.944"/>
      </g>
     </g>
    </g>
    <g id="xtick_8">
     <g id="line2d_19">
      <path clip-path="url(#pb4473b4068)" d="M 338.688 298.944 
L 338.688 27.648 
" style="fill:none;stroke:#b0b0b0;stroke-linecap:square;stroke-width:0.8;"/>
     </g>
     <g id="line2d_20">
      <g>
       <use style="stroke:#000000;stroke-width:0.6;" x="338.688" xlink:href="#m2f2ba014ea" y="298.944"/>
      </g>
     </g>
    </g>
    <g id="text_5">
     <!-- log10(# f-evals / dimension) -->
     <defs>
      <path d="M 9.421875 75.984375 
L 18.40625 75.984375 
L 18.40625 0 
L 9.421875 0 
z
" id="DejaVuSans-108"/>
      <path d="M 30.609375 48.390625 
Q 23.390625 48.390625 19.1875 42.75 
Q 14.984375 37.109375 14.984375 27.296875 
Q 14.984375 17.484375 19.15625 11.84375 
Q 23.34375 6.203125 30.609375 6.203125 
Q 37.796875 6.203125 41.984375 11.859375 
Q 46.1875 17.53125 46.1875 27.296875 
Q 46.1875 37.015625 41.984375 42.703125 
Q 37.796875 48.390625 30.609375 48.390625 
z
M 30.609375 56 
Q 42.328125 56 49.015625 48.375 
Q 55.71875 40.765625 55.71875 27.296875 
Q 55.71875 13.875 49.015625 6.21875 
Q 42.328125 -1.421875 30.609375 -1.421875 
Q 18.84375 -1.421875 12.171875 6.21875 
Q 5.515625 13.875 5.515625 27.296875 
Q 5.515625 40.765625 12.171875 48.375 
Q 18.84375 56 30.609375 56 
z
" id="DejaVuSans-111"/>
      <path d="M 45.40625 27.984375 
Q 45.40625 37.75 41.375 43.109375 
Q 37.359375 48.484375 30.078125 48.484375 
Q 22.859375 48.484375 18.828125 43.109375 
Q 14.796875 37.75 14.796875 27.984375 
Q 14.796875 18.265625 18.828125 12.890625 
Q 22.859375 7.515625 30.078125 7.515625 
Q 37.359375 7.515625 41.375 12.890625 
Q 45.40625 18.265625 45.40625 27.984375 
z
M 54.390625 6.78125 
Q 54.390625 -7.171875 48.1875 -13.984375 
Q 42 -20.796875 29.203125 -20.796875 
Q 24.46875 -20.796875 20.265625 -20.09375 
Q 16.0625 -19.390625 12.109375 -17.921875 
L 12.109375 -9.1875 
Q 16.0625 -11.328125 19.921875 -12.34375 
Q 23.78125 -13.375 27.78125 -13.375 
Q 36.625 -13.375 41.015625 -8.765625 
Q 45.40625 -4.15625 45.40625 5.171875 
L 45.40625 9.625 
Q 42.625 4.78125 38.28125 2.390625 
Q 33.9375 0 27.875 0 
Q 17.828125 0 11.671875 7.65625 
Q 5.515625 15.328125 5.515625 27.984375 
Q 5.515625 40.671875 11.671875 48.328125 
Q 17.828125 56 27.875 56 
Q 33.9375 56 38.28125 53.609375 
Q 42.625 51.21875 45.40625 46.390625 
L 45.40625 54.6875 
L 54.390625 54.6875 
z
" id="DejaVuSans-103"/>
      <path d="M 12.40625 8.296875 
L 28.515625 8.296875 
L 28.515625 63.921875 
L 10.984375 60.40625 
L 10.984375 69.390625 
L 28.421875 72.90625 
L 38.28125 72.90625 
L 38.28125 8.296875 
L 54.390625 8.296875 
L 54.390625 0 
L 12.40625 0 
z
" id="DejaVuSans-49"/>
      <path d="M 31 75.875 
Q 24.46875 64.65625 21.28125 53.65625 
Q 18.109375 42.671875 18.109375 31.390625 
Q 18.109375 20.125 21.3125 9.0625 
Q 24.515625 -2 31 -13.1875 
L 23.1875 -13.1875 
Q 15.875 -1.703125 12.234375 9.375 
Q 8.59375 20.453125 8.59375 31.390625 
Q 8.59375 42.28125 12.203125 53.3125 
Q 15.828125 64.359375 23.1875 75.875 
z
" id="DejaVuSans-40"/>
      <path d="M 51.125 44 
L 36.921875 44 
L 32.8125 27.6875 
L 47.125 27.6875 
z
M 43.796875 71.78125 
L 38.71875 51.515625 
L 52.984375 51.515625 
L 58.109375 71.78125 
L 65.921875 71.78125 
L 60.890625 51.515625 
L 76.125 51.515625 
L 76.125 44 
L 58.984375 44 
L 54.984375 27.6875 
L 70.515625 27.6875 
L 70.515625 20.21875 
L 53.078125 20.21875 
L 48 0 
L 40.1875 0 
L 45.21875 20.21875 
L 30.90625 20.21875 
L 25.875 0 
L 18.015625 0 
L 23.09375 20.21875 
L 7.71875 20.21875 
L 7.71875 27.6875 
L 24.90625 27.6875 
L 29 44 
L 13.28125 44 
L 13.28125 51.515625 
L 30.90625 51.515625 
L 35.890625 71.78125 
z
" id="DejaVuSans-35"/>
      <path id="DejaVuSans-32"/>
      <path d="M 37.109375 75.984375 
L 37.109375 68.5 
L 28.515625 68.5 
Q 23.6875 68.5 21.796875 66.546875 
Q 19.921875 64.59375 19.921875 59.515625 
L 19.921875 54.6875 
L 34.71875 54.6875 
L 34.71875 47.703125 
L 19.921875 47.703125 
L 19.921875 0 
L 10.890625 0 
L 10.890625 47.703125 
L 2.296875 47.703125 
L 2.296875 54.6875 
L 10.890625 54.6875 
L 10.890625 58.5 
Q 10.890625 67.625 15.140625 71.796875 
Q 19.390625 75.984375 28.609375 75.984375 
z
" id="DejaVuSans-102"/>
      <path d="M 4.890625 31.390625 
L 31.203125 31.390625 
L 31.203125 23.390625 
L 4.890625 23.390625 
z
" id="DejaVuSans-45"/>
      <path d="M 56.203125 29.59375 
L 56.203125 25.203125 
L 14.890625 25.203125 
Q 15.484375 15.921875 20.484375 11.0625 
Q 25.484375 6.203125 34.421875 6.203125 
Q 39.59375 6.203125 44.453125 7.46875 
Q 49.3125 8.734375 54.109375 11.28125 
L 54.109375 2.78125 
Q 49.265625 0.734375 44.1875 -0.34375 
Q 39.109375 -1.421875 33.890625 -1.421875 
Q 20.796875 -1.421875 13.15625 6.1875 
Q 5.515625 13.8125 5.515625 26.8125 
Q 5.515625 40.234375 12.765625 48.109375 
Q 20.015625 56 32.328125 56 
Q 43.359375 56 49.78125 48.890625 
Q 56.203125 41.796875 56.203125 29.59375 
z
M 47.21875 32.234375 
Q 47.125 39.59375 43.09375 43.984375 
Q 39.0625 48.390625 32.421875 48.390625 
Q 24.90625 48.390625 20.390625 44.140625 
Q 15.875 39.890625 15.1875 32.171875 
z
" id="DejaVuSans-101"/>
      <path d="M 2.984375 54.6875 
L 12.5 54.6875 
L 29.59375 8.796875 
L 46.6875 54.6875 
L 56.203125 54.6875 
L 35.6875 0 
L 23.484375 0 
z
" id="DejaVuSans-118"/>
      <path d="M 34.28125 27.484375 
Q 23.390625 27.484375 19.1875 25 
Q 14.984375 22.515625 14.984375 16.5 
Q 14.984375 11.71875 18.140625 8.90625 
Q 21.296875 6.109375 26.703125 6.109375 
Q 34.1875 6.109375 38.703125 11.40625 
Q 43.21875 16.703125 43.21875 25.484375 
L 43.21875 27.484375 
z
M 52.203125 31.203125 
L 52.203125 0 
L 43.21875 0 
L 43.21875 8.296875 
Q 40.140625 3.328125 35.546875 0.953125 
Q 30.953125 -1.421875 24.3125 -1.421875 
Q 15.921875 -1.421875 10.953125 3.296875 
Q 6 8.015625 6 15.921875 
Q 6 25.140625 12.171875 29.828125 
Q 18.359375 34.515625 30.609375 34.515625 
L 43.21875 34.515625 
L 43.21875 35.40625 
Q 43.21875 41.609375 39.140625 45 
Q 35.0625 48.390625 27.6875 48.390625 
Q 23 48.390625 18.546875 47.265625 
Q 14.109375 46.140625 10.015625 43.890625 
L 10.015625 52.203125 
Q 14.9375 54.109375 19.578125 55.046875 
Q 24.21875 56 28.609375 56 
Q 40.484375 56 46.34375 49.84375 
Q 52.203125 43.703125 52.203125 31.203125 
z
" id="DejaVuSans-97"/>
      <path d="M 44.28125 53.078125 
L 44.28125 44.578125 
Q 40.484375 46.53125 36.375 47.5 
Q 32.28125 48.484375 27.875 48.484375 
Q 21.1875 48.484375 17.84375 46.4375 
Q 14.5 44.390625 14.5 40.28125 
Q 14.5 37.15625 16.890625 35.375 
Q 19.28125 33.59375 26.515625 31.984375 
L 29.59375 31.296875 
Q 39.15625 29.25 43.1875 25.515625 
Q 47.21875 21.78125 47.21875 15.09375 
Q 47.21875 7.46875 41.1875 3.015625 
Q 35.15625 -1.421875 24.609375 -1.421875 
Q 20.21875 -1.421875 15.453125 -0.5625 
Q 10.6875 0.296875 5.421875 2 
L 5.421875 11.28125 
Q 10.40625 8.6875 15.234375 7.390625 
Q 20.0625 6.109375 24.8125 6.109375 
Q 31.15625 6.109375 34.5625 8.28125 
Q 37.984375 10.453125 37.984375 14.40625 
Q 37.984375 18.0625 35.515625 20.015625 
Q 33.0625 21.96875 24.703125 23.78125 
L 21.578125 24.515625 
Q 13.234375 26.265625 9.515625 29.90625 
Q 5.8125 33.546875 5.8125 39.890625 
Q 5.8125 47.609375 11.28125 51.796875 
Q 16.75 56 26.8125 56 
Q 31.78125 56 36.171875 55.265625 
Q 40.578125 54.546875 44.28125 53.078125 
z
" id="DejaVuSans-115"/>
      <path d="M 25.390625 72.90625 
L 33.6875 72.90625 
L 8.296875 -9.28125 
L 0 -9.28125 
z
" id="DejaVuSans-47"/>
      <path d="M 45.40625 46.390625 
L 45.40625 75.984375 
L 54.390625 75.984375 
L 54.390625 0 
L 45.40625 0 
L 45.40625 8.203125 
Q 42.578125 3.328125 38.25 0.953125 
Q 33.9375 -1.421875 27.875 -1.421875 
Q 17.96875 -1.421875 11.734375 6.484375 
Q 5.515625 14.40625 5.515625 27.296875 
Q 5.515625 40.1875 11.734375 48.09375 
Q 17.96875 56 27.875 56 
Q 33.9375 56 38.25 53.625 
Q 42.578125 51.265625 45.40625 46.390625 
z
M 14.796875 27.296875 
Q 14.796875 17.390625 18.875 11.75 
Q 22.953125 6.109375 30.078125 6.109375 
Q 37.203125 6.109375 41.296875 11.75 
Q 45.40625 17.390625 45.40625 27.296875 
Q 45.40625 37.203125 41.296875 42.84375 
Q 37.203125 48.484375 30.078125 48.484375 
Q 22.953125 48.484375 18.875 42.84375 
Q 14.796875 37.203125 14.796875 27.296875 
z
" id="DejaVuSans-100"/>
      <path d="M 9.421875 54.6875 
L 18.40625 54.6875 
L 18.40625 0 
L 9.421875 0 
z
M 9.421875 75.984375 
L 18.40625 75.984375 
L 18.40625 64.59375 
L 9.421875 64.59375 
z
" id="DejaVuSans-105"/>
      <path d="M 52 44.1875 
Q 55.375 50.25 60.0625 53.125 
Q 64.75 56 71.09375 56 
Q 79.640625 56 84.28125 50.015625 
Q 88.921875 44.046875 88.921875 33.015625 
L 88.921875 0 
L 79.890625 0 
L 79.890625 32.71875 
Q 79.890625 40.578125 77.09375 44.375 
Q 74.3125 48.1875 68.609375 48.1875 
Q 61.625 48.1875 57.5625 43.546875 
Q 53.515625 38.921875 53.515625 30.90625 
L 53.515625 0 
L 44.484375 0 
L 44.484375 32.71875 
Q 44.484375 40.625 41.703125 44.40625 
Q 38.921875 48.1875 33.109375 48.1875 
Q 26.21875 48.1875 22.15625 43.53125 
Q 18.109375 38.875 18.109375 30.90625 
L 18.109375 0 
L 9.078125 0 
L 9.078125 54.6875 
L 18.109375 54.6875 
L 18.109375 46.1875 
Q 21.1875 51.21875 25.484375 53.609375 
Q 29.78125 56 35.6875 56 
Q 41.65625 56 45.828125 52.96875 
Q 50 49.953125 52 44.1875 
z
" id="DejaVuSans-109"/>
      <path d="M 54.890625 33.015625 
L 54.890625 0 
L 45.90625 0 
L 45.90625 32.71875 
Q 45.90625 40.484375 42.875 44.328125 
Q 39.84375 48.1875 33.796875 48.1875 
Q 26.515625 48.1875 22.3125 43.546875 
Q 18.109375 38.921875 18.109375 30.90625 
L 18.109375 0 
L 9.078125 0 
L 9.078125 54.6875 
L 18.109375 54.6875 
L 18.109375 46.1875 
Q 21.34375 51.125 25.703125 53.5625 
Q 30.078125 56 35.796875 56 
Q 45.21875 56 50.046875 50.171875 
Q 54.890625 44.34375 54.890625 33.015625 
z
" id="DejaVuSans-110"/>
      <path d="M 8.015625 75.875 
L 15.828125 75.875 
Q 23.140625 64.359375 26.78125 53.3125 
Q 30.421875 42.28125 30.421875 31.390625 
Q 30.421875 20.453125 26.78125 9.375 
Q 23.140625 -1.703125 15.828125 -13.1875 
L 8.015625 -13.1875 
Q 14.5 -2 17.703125 9.0625 
Q 20.90625 20.125 20.90625 31.390625 
Q 20.90625 42.671875 17.703125 53.65625 
Q 14.5 64.65625 8.015625 75.875 
z
" id="DejaVuSans-41"/>
     </defs>
     <g transform="translate(77.303219 342.217594)scale(0.17 -0.17)">
      <use xlink:href="#DejaVuSans-108"/>
      <use x="27.783203" xlink:href="#DejaVuSans-111"/>
      <use x="88.964844" xlink:href="#DejaVuSans-103"/>
      <use x="152.441406" xlink:href="#DejaVuSans-49"/>
      <use x="216.064453" xlink:href="#DejaVuSans-48"/>
      <use x="279.6875" xlink:href="#DejaVuSans-40"/>
      <use x="318.701172" xlink:href="#DejaVuSans-35"/>
      <use x="402.490234" xlink:href="#DejaVuSans-32"/>
      <use x="434.277344" xlink:href="#DejaVuSans-102"/>
      <use x="469.404297" xlink:href="#DejaVuSans-45"/>
      <use x="505.488281" xlink:href="#DejaVuSans-101"/>
      <use x="567.011719" xlink:href="#DejaVuSans-118"/>
      <use x="626.191406" xlink:href="#DejaVuSans-97"/>
      <use x="687.470703" xlink:href="#DejaVuSans-108"/>
      <use x="715.253906" xlink:href="#DejaVuSans-115"/>
      <use x="767.353516" xlink:href="#DejaVuSans-32"/>
      <use x="799.140625" xlink:href="#DejaVuSans-47"/>
      <use x="832.832031" xlink:href="#DejaVuSans-32"/>
      <use x="864.619141" xlink:href="#DejaVuSans-100"/>
      <use x="928.095703" xlink:href="#DejaVuSans-105"/>
      <use x="955.878906" xlink:href="#DejaVuSans-109"/>
      <use x="1053.291016" xlink:href="#DejaVuSans-101"/>
      <use x="1114.814453" xlink:href="#DejaVuSans-110"/>
      <use x="1178.193359" xlink:href="#DejaVuSans-115"/>
      <use x="1230.292969" xlink:href="#DejaVuSans-105"/>
      <use x="1258.076172" xlink:href="#DejaVuSans-111"/>
      <use x="1319.257812" xlink:href="#DejaVuSans-110"/>
      <use x="1382.636719" xlink:href="#DejaVuSans-41"/>
     </g>
    </g>
   </g>
   <g id="matplotlib.axis_2">
    <g id="ytick_1">
     <g id="line2d_21">
      <path clip-path="url(#pb4473b4068)" d="M 57.6 298.944 
L 338.688 298.944 
" style="fill:none;stroke:#b0b0b0;stroke-linecap:square;stroke-width:0.8;"/>
     </g>
     <g id="line2d_22">
      <defs>
       <path d="M 0 0 
L -3.5 0 
" id="m0b2afcc8db" style="stroke:#000000;stroke-width:0.8;"/>
      </defs>
      <g>
       <use style="stroke:#000000;stroke-width:0.8;" x="57.6" xlink:href="#m0b2afcc8db" y="298.944"/>
      </g>
     </g>
     <g id="text_6">
      <!-- 0.0 -->
      <defs>
       <path d="M 10.6875 12.40625 
L 21 12.40625 
L 21 0 
L 10.6875 0 
z
" id="DejaVuSans-46"/>
      </defs>
      <g transform="translate(25.155 305.02275)scale(0.16 -0.16)">
       <use xlink:href="#DejaVuSans-48"/>
       <use x="63.623047" xlink:href="#DejaVuSans-46"/>
       <use x="95.410156" xlink:href="#DejaVuSans-48"/>
      </g>
     </g>
    </g>
    <g id="ytick_2">
     <g id="line2d_23">
      <path clip-path="url(#pb4473b4068)" d="M 57.6 245.22202 
L 338.688 245.22202 
" style="fill:none;stroke:#b0b0b0;stroke-linecap:square;stroke-width:0.8;"/>
     </g>
     <g id="line2d_24">
      <g>
       <use style="stroke:#000000;stroke-width:0.8;" x="57.6" xlink:href="#m0b2afcc8db" y="245.22202"/>
      </g>
     </g>
     <g id="text_7">
      <!-- 0.2 -->
      <g transform="translate(25.155 251.30077)scale(0.16 -0.16)">
       <use xlink:href="#DejaVuSans-48"/>
       <use x="63.623047" xlink:href="#DejaVuSans-46"/>
       <use x="95.410156" xlink:href="#DejaVuSans-50"/>
      </g>
     </g>
    </g>
    <g id="ytick_3">
     <g id="line2d_25">
      <path clip-path="url(#pb4473b4068)" d="M 57.6 191.50004 
L 338.688 191.50004 
" style="fill:none;stroke:#b0b0b0;stroke-linecap:square;stroke-width:0.8;"/>
     </g>
     <g id="line2d_26">
      <g>
       <use style="stroke:#000000;stroke-width:0.8;" x="57.6" xlink:href="#m0b2afcc8db" y="191.50004"/>
      </g>
     </g>
     <g id="text_8">
      <!-- 0.4 -->
      <g transform="translate(25.155 197.57879)scale(0.16 -0.16)">
       <use xlink:href="#DejaVuSans-48"/>
       <use x="63.623047" xlink:href="#DejaVuSans-46"/>
       <use x="95.410156" xlink:href="#DejaVuSans-52"/>
      </g>
     </g>
    </g>
    <g id="ytick_4">
     <g id="line2d_27">
      <path clip-path="url(#pb4473b4068)" d="M 57.6 137.778059 
L 338.688 137.778059 
" style="fill:none;stroke:#b0b0b0;stroke-linecap:square;stroke-width:0.8;"/>
     </g>
     <g id="line2d_28">
      <g>
       <use style="stroke:#000000;stroke-width:0.8;" x="57.6" xlink:href="#m0b2afcc8db" y="137.778059"/>
      </g>
     </g>
     <g id="text_9">
      <!-- 0.6 -->
      <g transform="translate(25.155 143.856809)scale(0.16 -0.16)">
       <use xlink:href="#DejaVuSans-48"/>
       <use x="63.623047" xlink:href="#DejaVuSans-46"/>
       <use x="95.410156" xlink:href="#DejaVuSans-54"/>
      </g>
     </g>
    </g>
    <g id="ytick_5">
     <g id="line2d_29">
      <path clip-path="url(#pb4473b4068)" d="M 57.6 84.056079 
L 338.688 84.056079 
" style="fill:none;stroke:#b0b0b0;stroke-linecap:square;stroke-width:0.8;"/>
     </g>
     <g id="line2d_30">
      <g>
       <use style="stroke:#000000;stroke-width:0.8;" x="57.6" xlink:href="#m0b2afcc8db" y="84.056079"/>
      </g>
     </g>
     <g id="text_10">
      <!-- 0.8 -->
      <defs>
       <path d="M 31.78125 34.625 
Q 24.75 34.625 20.71875 30.859375 
Q 16.703125 27.09375 16.703125 20.515625 
Q 16.703125 13.921875 20.71875 10.15625 
Q 24.75 6.390625 31.78125 6.390625 
Q 38.8125 6.390625 42.859375 10.171875 
Q 46.921875 13.96875 46.921875 20.515625 
Q 46.921875 27.09375 42.890625 30.859375 
Q 38.875 34.625 31.78125 34.625 
z
M 21.921875 38.8125 
Q 15.578125 40.375 12.03125 44.71875 
Q 8.5 49.078125 8.5 55.328125 
Q 8.5 64.0625 14.71875 69.140625 
Q 20.953125 74.21875 31.78125 74.21875 
Q 42.671875 74.21875 48.875 69.140625 
Q 55.078125 64.0625 55.078125 55.328125 
Q 55.078125 49.078125 51.53125 44.71875 
Q 48 40.375 41.703125 38.8125 
Q 48.828125 37.15625 52.796875 32.3125 
Q 56.78125 27.484375 56.78125 20.515625 
Q 56.78125 9.90625 50.3125 4.234375 
Q 43.84375 -1.421875 31.78125 -1.421875 
Q 19.734375 -1.421875 13.25 4.234375 
Q 6.78125 9.90625 6.78125 20.515625 
Q 6.78125 27.484375 10.78125 32.3125 
Q 14.796875 37.15625 21.921875 38.8125 
z
M 18.3125 54.390625 
Q 18.3125 48.734375 21.84375 45.5625 
Q 25.390625 42.390625 31.78125 42.390625 
Q 38.140625 42.390625 41.71875 45.5625 
Q 45.3125 48.734375 45.3125 54.390625 
Q 45.3125 60.0625 41.71875 63.234375 
Q 38.140625 66.40625 31.78125 66.40625 
Q 25.390625 66.40625 21.84375 63.234375 
Q 18.3125 60.0625 18.3125 54.390625 
z
" id="DejaVuSans-56"/>
      </defs>
      <g transform="translate(25.155 90.134829)scale(0.16 -0.16)">
       <use xlink:href="#DejaVuSans-48"/>
       <use x="63.623047" xlink:href="#DejaVuSans-46"/>
       <use x="95.410156" xlink:href="#DejaVuSans-56"/>
      </g>
     </g>
    </g>
    <g id="ytick_6">
     <g id="line2d_31">
      <path clip-path="url(#pb4473b4068)" d="M 57.6 30.334099 
L 338.688 30.334099 
" style="fill:none;stroke:#b0b0b0;stroke-linecap:square;stroke-width:0.8;"/>
     </g>
     <g id="line2d_32">
      <g>
       <use style="stroke:#000000;stroke-width:0.8;" x="57.6" xlink:href="#m0b2afcc8db" y="30.334099"/>
      </g>
     </g>
     <g id="text_11">
      <!-- 1.0 -->
      <g transform="translate(25.155 36.412849)scale(0.16 -0.16)">
       <use xlink:href="#DejaVuSans-49"/>
       <use x="63.623047" xlink:href="#DejaVuSans-46"/>
       <use x="95.410156" xlink:href="#DejaVuSans-48"/>
      </g>
     </g>
    </g>
    <g id="text_12">
     <!-- Fraction of function,target pairs -->
     <defs>
      <path d="M 9.8125 72.90625 
L 51.703125 72.90625 
L 51.703125 64.59375 
L 19.671875 64.59375 
L 19.671875 43.109375 
L 48.578125 43.109375 
L 48.578125 34.8125 
L 19.671875 34.8125 
L 19.671875 0 
L 9.8125 0 
z
" id="DejaVuSans-70"/>
      <path d="M 41.109375 46.296875 
Q 39.59375 47.171875 37.8125 47.578125 
Q 36.03125 48 33.890625 48 
Q 26.265625 48 22.1875 43.046875 
Q 18.109375 38.09375 18.109375 28.8125 
L 18.109375 0 
L 9.078125 0 
L 9.078125 54.6875 
L 18.109375 54.6875 
L 18.109375 46.1875 
Q 20.953125 51.171875 25.484375 53.578125 
Q 30.03125 56 36.53125 56 
Q 37.453125 56 38.578125 55.875 
Q 39.703125 55.765625 41.0625 55.515625 
z
" id="DejaVuSans-114"/>
      <path d="M 48.78125 52.59375 
L 48.78125 44.1875 
Q 44.96875 46.296875 41.140625 47.34375 
Q 37.3125 48.390625 33.40625 48.390625 
Q 24.65625 48.390625 19.8125 42.84375 
Q 14.984375 37.3125 14.984375 27.296875 
Q 14.984375 17.28125 19.8125 11.734375 
Q 24.65625 6.203125 33.40625 6.203125 
Q 37.3125 6.203125 41.140625 7.25 
Q 44.96875 8.296875 48.78125 10.40625 
L 48.78125 2.09375 
Q 45.015625 0.34375 40.984375 -0.53125 
Q 36.96875 -1.421875 32.421875 -1.421875 
Q 20.0625 -1.421875 12.78125 6.34375 
Q 5.515625 14.109375 5.515625 27.296875 
Q 5.515625 40.671875 12.859375 48.328125 
Q 20.21875 56 33.015625 56 
Q 37.15625 56 41.109375 55.140625 
Q 45.0625 54.296875 48.78125 52.59375 
z
" id="DejaVuSans-99"/>
      <path d="M 18.3125 70.21875 
L 18.3125 54.6875 
L 36.8125 54.6875 
L 36.8125 47.703125 
L 18.3125 47.703125 
L 18.3125 18.015625 
Q 18.3125 11.328125 20.140625 9.421875 
Q 21.96875 7.515625 27.59375 7.515625 
L 36.8125 7.515625 
L 36.8125 0 
L 27.59375 0 
Q 17.1875 0 13.234375 3.875 
Q 9.28125 7.765625 9.28125 18.015625 
L 9.28125 47.703125 
L 2.6875 47.703125 
L 2.6875 54.6875 
L 9.28125 54.6875 
L 9.28125 70.21875 
z
" id="DejaVuSans-116"/>
      <path d="M 8.5 21.578125 
L 8.5 54.6875 
L 17.484375 54.6875 
L 17.484375 21.921875 
Q 17.484375 14.15625 20.5 10.265625 
Q 23.53125 6.390625 29.59375 6.390625 
Q 36.859375 6.390625 41.078125 11.03125 
Q 45.3125 15.671875 45.3125 23.6875 
L 45.3125 54.6875 
L 54.296875 54.6875 
L 54.296875 0 
L 45.3125 0 
L 45.3125 8.40625 
Q 42.046875 3.421875 37.71875 1 
Q 33.40625 -1.421875 27.6875 -1.421875 
Q 18.265625 -1.421875 13.375 4.4375 
Q 8.5 10.296875 8.5 21.578125 
z
M 31.109375 56 
z
" id="DejaVuSans-117"/>
      <path d="M 11.71875 12.40625 
L 22.015625 12.40625 
L 22.015625 4 
L 14.015625 -11.625 
L 7.71875 -11.625 
L 11.71875 4 
z
" id="DejaVuSans-44"/>
      <path d="M 18.109375 8.203125 
L 18.109375 -20.796875 
L 9.078125 -20.796875 
L 9.078125 54.6875 
L 18.109375 54.6875 
L 18.109375 46.390625 
Q 20.953125 51.265625 25.265625 53.625 
Q 29.59375 56 35.59375 56 
Q 45.5625 56 51.78125 48.09375 
Q 58.015625 40.1875 58.015625 27.296875 
Q 58.015625 14.40625 51.78125 6.484375 
Q 45.5625 -1.421875 35.59375 -1.421875 
Q 29.59375 -1.421875 25.265625 0.953125 
Q 20.953125 3.328125 18.109375 8.203125 
z
M 48.6875 27.296875 
Q 48.6875 37.203125 44.609375 42.84375 
Q 40.53125 48.484375 33.40625 48.484375 
Q 26.265625 48.484375 22.1875 42.84375 
Q 18.109375 37.203125 18.109375 27.296875 
Q 18.109375 17.390625 22.1875 11.75 
Q 26.265625 6.109375 33.40625 6.109375 
Q 40.53125 6.109375 44.609375 11.75 
Q 48.6875 17.390625 48.6875 27.296875 
z
" id="DejaVuSans-112"/>
     </defs>
     <g transform="translate(17.619531 298.435375)rotate(-90)scale(0.17 -0.17)">
      <use xlink:href="#DejaVuSans-70"/>
      <use x="57.410156" xlink:href="#DejaVuSans-114"/>
      <use x="98.523438" xlink:href="#DejaVuSans-97"/>
      <use x="159.802734" xlink:href="#DejaVuSans-99"/>
      <use x="214.783203" xlink:href="#DejaVuSans-116"/>
      <use x="253.992188" xlink:href="#DejaVuSans-105"/>
      <use x="281.775391" xlink:href="#DejaVuSans-111"/>
      <use x="342.957031" xlink:href="#DejaVuSans-110"/>
      <use x="406.335938" xlink:href="#DejaVuSans-32"/>
      <use x="438.123047" xlink:href="#DejaVuSans-111"/>
      <use x="499.304688" xlink:href="#DejaVuSans-102"/>
      <use x="534.509766" xlink:href="#DejaVuSans-32"/>
      <use x="566.296875" xlink:href="#DejaVuSans-102"/>
      <use x="601.501953" xlink:href="#DejaVuSans-117"/>
      <use x="664.880859" xlink:href="#DejaVuSans-110"/>
      <use x="728.259766" xlink:href="#DejaVuSans-99"/>
      <use x="783.240234" xlink:href="#DejaVuSans-116"/>
      <use x="822.449219" xlink:href="#DejaVuSans-105"/>
      <use x="850.232422" xlink:href="#DejaVuSans-111"/>
      <use x="911.414062" xlink:href="#DejaVuSans-110"/>
      <use x="974.792969" xlink:href="#DejaVuSans-44"/>
      <use x="1006.580078" xlink:href="#DejaVuSans-116"/>
      <use x="1045.789062" xlink:href="#DejaVuSans-97"/>
      <use x="1107.068359" xlink:href="#DejaVuSans-114"/>
      <use x="1148.166016" xlink:href="#DejaVuSans-103"/>
      <use x="1211.642578" xlink:href="#DejaVuSans-101"/>
      <use x="1273.166016" xlink:href="#DejaVuSans-116"/>
      <use x="1312.375" xlink:href="#DejaVuSans-32"/>
      <use x="1344.162109" xlink:href="#DejaVuSans-112"/>
      <use x="1407.638672" xlink:href="#DejaVuSans-97"/>
      <use x="1468.917969" xlink:href="#DejaVuSans-105"/>
      <use x="1496.701172" xlink:href="#DejaVuSans-114"/>
      <use x="1537.814453" xlink:href="#DejaVuSans-115"/>
     </g>
    </g>
   </g>
   <g id="line2d_33">
    <defs>
     <path d="M 0 1.5 
C 0.397805 1.5 0.77937 1.341951 1.06066 1.06066 
C 1.341951 0.77937 1.5 0.397805 1.5 0 
C 1.5 -0.397805 1.341951 -0.77937 1.06066 -1.06066 
C 0.77937 -1.341951 0.397805 -1.5 0 -1.5 
C -0.397805 -1.5 -0.77937 -1.341951 -1.06066 -1.06066 
C -1.341951 -0.77937 -1.5 -0.397805 -1.5 0 
C -1.5 0.397805 -1.341951 0.77937 -1.06066 1.06066 
C -0.77937 1.341951 -0.397805 1.5 0 1.5 
z
" id="m319882580b" style="stroke:#f5deb3;"/>
    </defs>
    <g>
     <use style="fill:#f5deb3;stroke:#f5deb3;" x="233.834746" xlink:href="#m319882580b" y="30.334099"/>
     <use style="fill:#f5deb3;stroke:#f5deb3;" x="233.834746" xlink:href="#m319882580b" y="30.334099"/>
    </g>
   </g>
   <g id="line2d_34">
    <defs>
     <path d="M 0 1.5 
C 0.397805 1.5 0.77937 1.341951 1.06066 1.06066 
C 1.341951 0.77937 1.5 0.397805 1.5 0 
C 1.5 -0.397805 1.341951 -0.77937 1.06066 -1.06066 
C 0.77937 -1.341951 0.397805 -1.5 0 -1.5 
C -0.397805 -1.5 -0.77937 -1.341951 -1.06066 -1.06066 
C -1.341951 -0.77937 -1.5 -0.397805 -1.5 0 
C -1.5 0.397805 -1.341951 0.77937 -1.06066 1.06066 
C -0.77937 1.341951 -0.397805 1.5 0 1.5 
z
" id="m0b72808e1a" style="stroke:#000080;"/>
    </defs>
    <g>
     <use style="fill:#000080;stroke:#000080;" x="258.298909" xlink:href="#m0b72808e1a" y="30.334099"/>
     <use style="fill:#000080;stroke:#000080;" x="258.298909" xlink:href="#m0b72808e1a" y="30.334099"/>
    </g>
   </g>
   <g id="line2d_35">
    <path d="M 29.53256 298.944 
L 29.53256 225.207949 
L 148.714503 225.207949 
L 148.714503 224.681263 
L 156.406335 224.681263 
L 156.406335 224.154577 
L 156.788581 224.154577 
L 156.823991 223.101204 
L 158.0201 223.101204 
L 158.0201 222.574518 
L 164.546914 222.574518 
L 164.546914 222.047832 
L 170.553741 222.047832 
L 170.553741 221.521146 
L 175.46036 221.521146 
L 175.46036 220.99446 
L 197.158899 220.99446 
L 197.158899 220.467774 
L 197.442508 220.467774 
L 197.442508 219.414402 
L 199.394708 219.414402 
L 199.394708 218.887716 
L 199.818643 218.887716 
L 199.86867 217.834344 
L 199.946426 217.834344 
L 199.946426 217.307658 
L 200.090058 217.307658 
L 200.090058 214.674227 
L 200.2882 214.674227 
L 200.398068 212.567483 
L 200.469643 212.567483 
L 200.52169 210.987425 
L 200.621491 210.987425 
L 200.621491 209.934052 
L 202.894354 209.934052 
L 202.894354 209.407366 
L 203.177628 209.407366 
L 203.177628 208.88068 
L 203.805832 208.88068 
L 203.805832 208.353994 
L 204.008727 208.353994 
L 204.008727 207.827308 
L 204.124175 207.827308 
L 204.124175 207.300622 
L 204.889135 207.300622 
L 204.889135 206.773936 
L 206.654627 206.773936 
L 206.654627 206.24725 
L 208.570467 206.24725 
L 208.653374 204.140506 
L 208.719658 204.140506 
L 208.813829 202.033761 
L 208.866988 202.033761 
L 208.969264 199.400331 
L 208.979933 199.400331 
L 209.065639 197.293586 
L 209.10804 197.293586 
L 209.218855 193.606784 
L 209.268464 193.606784 
L 209.289433 192.553412 
L 210.576125 192.553412 
L 210.576125 192.026726 
L 211.305217 192.026726 
L 211.314031 190.973354 
L 211.613103 190.973354 
L 211.704064 189.393295 
L 211.727869 189.393295 
L 211.817227 184.126434 
L 211.870021 184.126434 
L 211.969642 180.439632 
L 211.986107 180.439632 
L 212.092505 174.119399 
L 212.100929 174.119399 
L 212.16028 168.852538 
L 212.232711 168.852538 
L 212.275437 165.692422 
L 213.30722 165.692422 
L 213.30722 165.165736 
L 213.502608 165.165736 
L 213.563306 163.585677 
L 213.633325 163.585677 
L 213.71436 161.478933 
L 213.744594 161.478933 
L 213.840366 158.845503 
L 213.892751 158.845503 
L 213.981934 156.212072 
L 214.029904 156.212072 
L 214.112211 151.471897 
L 214.188857 151.471897 
L 214.238892 149.365153 
L 214.305382 149.365153 
L 214.396829 145.151665 
L 214.437608 145.151665 
L 214.508957 143.04492 
L 214.58775 143.04492 
L 214.678587 138.831432 
L 214.704636 138.831432 
L 214.813112 135.671315 
L 214.858852 135.671315 
L 214.945345 132.511199 
L 214.992 132.511199 
L 215.101211 130.404454 
L 215.133717 130.404454 
L 215.198547 127.771024 
L 216.115223 127.771024 
L 216.115223 127.244338 
L 216.926105 127.244338 
L 216.926105 126.717652 
L 217.217443 126.717652 
L 217.272406 124.084221 
L 217.946454 124.084221 
L 218.024587 121.977477 
L 218.083045 121.977477 
L 218.156369 119.344047 
L 218.207408 119.344047 
L 218.262127 117.237302 
L 218.345442 117.237302 
L 218.435598 113.5505 
L 218.729747 113.5505 
L 218.729747 113.023814 
L 223.418338 113.023814 
L 223.418338 112.497128 
L 223.725784 112.497128 
L 223.725784 111.970441 
L 223.912013 111.970441 
L 223.912013 111.443755 
L 224.192633 111.443755 
L 224.192633 110.917069 
L 224.606967 110.917069 
L 224.660575 108.810325 
L 224.745479 108.810325 
L 224.855025 106.703581 
L 224.990879 106.703581 
L 225.091609 105.123522 
L 225.158987 105.123522 
L 225.251762 102.490092 
L 225.273424 102.490092 
L 225.35911 100.383348 
L 225.401448 100.383348 
L 225.484439 96.696545 
L 225.534503 96.696545 
L 225.534503 96.169859 
L 228.954445 96.169859 
L 229.056119 94.589801 
L 229.228414 94.589801 
L 229.228414 94.063115 
L 229.541027 94.063115 
L 229.541027 93.536429 
L 229.680437 93.536429 
L 229.765747 90.902998 
L 229.842761 90.902998 
L 229.887485 88.796254 
L 229.964677 88.796254 
L 230.016008 84.582765 
L 230.088042 84.582765 
L 230.088042 83.529393 
L 230.235778 83.529393 
L 230.314759 81.422649 
L 233.121213 81.422649 
L 233.222147 77.20916 
L 233.233654 77.20916 
L 233.233654 76.682474 
L 234.764939 76.682474 
L 234.833423 75.102416 
L 234.884879 75.102416 
L 234.889707 74.049044 
L 235.487157 74.049044 
L 235.580475 67.728811 
L 235.608554 67.728811 
L 235.609841 66.675439 
L 236.008556 66.675439 
L 236.116142 64.042008 
L 236.127264 64.042008 
L 236.201437 60.881892 
L 236.266375 60.881892 
L 236.318967 59.82852 
L 236.379037 59.82852 
L 236.438779 58.775147 
L 237.065732 58.775147 
L 237.065732 58.248461 
L 237.319345 58.248461 
L 237.368744 56.668403 
L 237.461685 56.668403 
L 237.461685 56.141717 
L 239.966956 56.141717 
L 240.056738 55.088345 
L 240.103048 55.088345 
L 240.162423 52.454914 
L 242.092198 52.454914 
L 242.182653 50.34817 
L 242.241963 50.34817 
L 242.268249 48.768112 
L 243.798354 48.768112 
L 243.798354 48.241426 
L 243.920316 48.241426 
L 243.920316 47.188054 
L 244.78211 47.188054 
L 244.78211 46.661368 
L 245.223519 46.661368 
L 245.26788 42.974565 
L 245.507497 42.974565 
L 245.554781 41.394507 
L 245.642378 41.394507 
L 245.732635 39.287762 
L 246.283015 39.287762 
L 246.283015 38.761076 
L 247.97506 38.761076 
L 248.036634 37.181018 
L 249.09627 37.181018 
L 249.09627 36.654332 
L 249.300779 36.654332 
L 249.38042 35.60096 
L 249.465397 35.60096 
L 249.465397 35.074274 
L 250.489869 35.074274 
L 250.489869 34.547588 
L 251.75686 34.547588 
L 251.764914 33.494215 
L 253.365615 33.494215 
L 253.365615 32.967529 
L 254.197659 32.967529 
L 254.197659 32.440843 
L 254.419459 32.440843 
L 254.419459 31.914157 
L 255.224868 31.914157 
L 255.224868 31.387471 
L 256.217439 31.387471 
L 256.217439 30.860785 
L 258.298909 30.860785 
L 258.298909 30.334099 
L 338.688 30.334099 
L 338.688 30.334099 
" style="fill:none;stroke:#000080;stroke-linecap:square;stroke-width:1.5;"/>
   </g>
   <g id="line2d_36">
    <defs>
     <path d="M 0 6 
C 1.591219 6 3.117479 5.367802 4.242641 4.242641 
C 5.367802 3.117479 6 1.591219 6 0 
C 6 -1.591219 5.367802 -3.117479 4.242641 -4.242641 
C 3.117479 -5.367802 1.591219 -6 0 -6 
C -1.591219 -6 -3.117479 -5.367802 -4.242641 -4.242641 
C -5.367802 -3.117479 -6 -1.591219 -6 0 
C -6 1.591219 -5.367802 3.117479 -4.242641 4.242641 
C -3.117479 5.367802 -1.591219 6 0 6 
z
" id="me36a758fbc" style="stroke:#000080;stroke-width:1.5;"/>
    </defs>
    <g>
     <use style="fill-opacity:0;stroke:#000080;stroke-width:1.5;" x="175.46036" xlink:href="#me36a758fbc" y="220.99446"/>
     <use style="fill-opacity:0;stroke:#000080;stroke-width:1.5;" x="217.217443" xlink:href="#me36a758fbc" y="125.66428"/>
     <use style="fill-opacity:0;stroke:#000080;stroke-width:1.5;" x="258.298909" xlink:href="#me36a758fbc" y="30.860785"/>
     <use style="fill-opacity:0;stroke:#000080;stroke-width:1.5;" x="258.298909" xlink:href="#me36a758fbc" y="30.334099"/>
     <use style="fill-opacity:0;stroke:#000080;stroke-width:1.5;" x="338.688" xlink:href="#me36a758fbc" y="30.334099"/>
    </g>
   </g>
   <g id="line2d_37">
    <path style="fill:none;stroke:#000080;stroke-linecap:square;stroke-width:1.5;"/>
    <g/>
   </g>
   <g id="line2d_38">
    <path clip-path="url(#pb4473b4068)" d="M 230.32905 81.422649 
" style="fill:none;stroke:#000080;stroke-linecap:square;stroke-width:1.5;"/>
    <defs>
     <path d="M -12 12 
L 12 -12 
M -12 -12 
L 12 12 
" id="mc4667b2c16" style="stroke:#000080;"/>
    </defs>
    <g clip-path="url(#pb4473b4068)">
     <use style="fill:#000080;stroke:#000080;" x="230.32905" xlink:href="#mc4667b2c16" y="81.422649"/>
    </g>
   </g>
   <g id="line2d_39">
    <g>
     <use style="fill:#000080;stroke:#000080;" x="249.753253" xlink:href="#m0b72808e1a" y="30.334099"/>
     <use style="fill:#000080;stroke:#000080;" x="249.753253" xlink:href="#m0b72808e1a" y="30.334099"/>
    </g>
   </g>
   <g id="line2d_40">
    <path d="M 29.53256 298.944 
L 29.53256 225.207949 
L 153.032466 225.207949 
L 153.032466 224.681263 
L 154.453136 224.681263 
L 154.453136 224.154577 
L 156.163105 224.154577 
L 156.163105 223.627891 
L 162.016937 223.627891 
L 162.016937 223.101204 
L 166.487008 223.101204 
L 166.487008 222.574518 
L 179.065994 222.574518 
L 179.065994 222.047832 
L 180.455039 222.047832 
L 180.455039 221.521146 
L 194.102845 221.521146 
L 194.102845 220.99446 
L 194.634212 220.99446 
L 194.634212 220.467774 
L 195.548614 220.467774 
L 195.548614 219.941088 
L 199.112163 219.941088 
L 199.175694 218.887716 
L 199.283479 218.887716 
L 199.283479 217.834344 
L 200.436794 217.834344 
L 200.485081 216.780971 
L 200.892094 216.780971 
L 200.892094 216.254285 
L 202.344852 216.254285 
L 202.344852 215.727599 
L 203.142884 215.727599 
L 203.142884 215.200913 
L 204.479047 215.200913 
L 204.479047 214.674227 
L 206.832457 214.674227 
L 206.832457 214.147541 
L 207.287547 214.147541 
L 207.287547 213.620855 
L 207.810446 213.620855 
L 207.810446 213.094169 
L 209.970413 213.094169 
L 209.970413 212.567483 
L 210.559355 212.567483 
L 210.559355 212.040797 
L 210.801754 212.040797 
L 210.907649 210.987425 
L 212.462294 210.987425 
L 212.462294 210.460738 
L 212.634201 210.460738 
L 212.634201 209.934052 
L 213.257681 209.934052 
L 213.257681 209.407366 
L 213.658264 209.407366 
L 213.749102 206.773936 
L 213.786025 206.773936 
L 213.855605 202.033761 
L 213.922678 202.033761 
L 214.030347 195.713528 
L 214.068008 195.713528 
L 214.151017 193.080098 
L 214.180944 193.080098 
L 214.28179 189.393295 
L 214.342019 189.393295 
L 214.342019 187.286551 
L 215.658262 187.286551 
L 215.766203 186.233179 
L 215.986049 186.233179 
L 215.986049 185.706493 
L 216.192191 185.706493 
L 216.192191 184.126434 
L 216.324519 184.126434 
L 216.371121 180.966318 
L 216.483232 180.966318 
L 216.571254 179.912946 
L 216.698463 179.912946 
L 216.797523 174.646085 
L 216.839105 174.646085 
L 216.937372 171.485969 
L 216.969255 171.485969 
L 217.065675 167.799166 
L 217.08281 167.799166 
L 217.192671 164.63905 
L 217.284555 164.63905 
L 217.363139 160.952247 
L 218.940539 160.952247 
L 219.037 158.845503 
L 219.05297 158.845503 
L 219.118691 157.265444 
L 219.210221 157.265444 
L 219.210221 155.685386 
L 219.367046 155.685386 
L 219.466055 151.998584 
L 219.558369 151.998584 
L 219.605793 149.891839 
L 219.692243 149.891839 
L 219.746656 148.311781 
L 219.805998 148.311781 
L 219.805998 147.785095 
L 221.89247 147.785095 
L 221.962129 146.731723 
L 222.088885 146.731723 
L 222.088885 146.205037 
L 224.013897 146.205037 
L 224.013897 145.678351 
L 224.201547 145.678351 
L 224.201547 145.151665 
L 224.443682 145.151665 
L 224.443682 144.624978 
L 224.748598 144.624978 
L 224.793879 143.571606 
L 226.445467 143.571606 
L 226.445467 143.04492 
L 226.741343 143.04492 
L 226.850562 141.464862 
L 226.919962 141.464862 
L 227.029967 138.831432 
L 227.053314 138.831432 
L 227.1512 137.251373 
L 227.211502 137.251373 
L 227.31327 133.564571 
L 227.378999 133.564571 
L 227.485335 131.457826 
L 229.67447 131.457826 
L 229.67447 130.93114 
L 229.995777 130.93114 
L 230.047725 128.824396 
L 230.12245 128.824396 
L 230.215275 124.084221 
L 230.240331 124.084221 
L 230.326785 118.290674 
L 230.374283 118.290674 
L 230.466646 111.970441 
L 230.521175 111.970441 
L 230.620818 109.337011 
L 230.685624 109.337011 
L 230.685624 108.810325 
L 230.838388 108.810325 
L 230.933885 107.230267 
L 230.966666 107.230267 
L 231.058458 104.596836 
L 231.091171 104.596836 
L 231.156415 103.016778 
L 231.227208 103.016778 
L 231.330477 99.329976 
L 231.352174 99.329976 
L 231.352174 98.803289 
L 233.73229 98.803289 
L 233.73229 98.276603 
L 234.40009 98.276603 
L 234.40009 97.749917 
L 236.543629 97.749917 
L 236.543629 97.223231 
L 236.943729 97.223231 
L 236.943729 96.696545 
L 237.424498 96.696545 
L 237.428557 94.063115 
L 237.549069 94.063115 
L 237.58082 91.429684 
L 237.69081 91.429684 
L 237.78376 89.849626 
L 237.84115 89.849626 
L 237.920233 88.269568 
L 237.993348 88.269568 
L 238.070851 86.162824 
L 238.131983 86.162824 
L 238.131983 85.636137 
L 238.283331 85.636137 
L 238.365933 84.582765 
L 238.408294 84.582765 
L 238.408294 83.529393 
L 238.629934 83.529393 
L 238.629934 80.895963 
L 238.847831 80.895963 
L 238.934191 78.262532 
L 238.962989 78.262532 
L 238.979651 76.155788 
L 239.241383 76.155788 
L 239.298032 74.049044 
L 239.409023 74.049044 
L 239.514785 71.942299 
L 239.595557 71.942299 
L 239.684211 68.255497 
L 239.717696 68.255497 
L 239.822316 66.675439 
L 239.869453 66.675439 
L 239.97347 63.515322 
L 240.126306 63.515322 
L 240.126306 62.988636 
L 240.250319 62.988636 
L 240.357096 61.935264 
L 240.427821 61.935264 
L 240.528084 58.775147 
L 240.578097 58.775147 
L 240.673846 56.141717 
L 240.777781 56.141717 
L 240.863018 53.508287 
L 241.229908 53.508287 
L 241.3087 51.928228 
L 241.359767 51.928228 
L 241.363838 50.34817 
L 241.488757 50.34817 
L 241.520512 46.661368 
L 241.601382 46.661368 
L 241.707026 43.501251 
L 241.826186 43.501251 
L 241.826186 41.921193 
L 243.718994 41.921193 
L 243.718994 41.394507 
L 244.144603 41.394507 
L 244.144603 40.867821 
L 249.041252 40.867821 
L 249.12985 38.761076 
L 249.233327 38.761076 
L 249.234859 35.60096 
L 249.35247 35.60096 
L 249.35247 34.547588 
L 249.46406 34.547588 
L 249.573497 32.967529 
L 249.587878 32.967529 
L 249.695568 30.860785 
L 249.753253 30.860785 
L 249.753253 30.334099 
L 338.688 30.334099 
L 338.688 30.334099 
" style="fill:none;stroke:#000080;stroke-linecap:square;stroke-width:1.5;"/>
   </g>
   <g id="line2d_41">
    <g>
     <use style="fill-opacity:0;stroke:#000080;stroke-width:1.5;" x="216.571254" xlink:href="#me36a758fbc" y="179.912946"/>
     <use style="fill-opacity:0;stroke:#000080;stroke-width:1.5;" x="249.753253" xlink:href="#me36a758fbc" y="30.860785"/>
     <use style="fill-opacity:0;stroke:#000080;stroke-width:1.5;" x="249.753253" xlink:href="#me36a758fbc" y="30.334099"/>
     <use style="fill-opacity:0;stroke:#000080;stroke-width:1.5;" x="338.688" xlink:href="#me36a758fbc" y="30.334099"/>
    </g>
   </g>
   <g id="line2d_42">
    <path style="fill:none;stroke:#000080;stroke-linecap:square;stroke-width:1.5;"/>
    <g/>
   </g>
   <g id="line2d_43">
    <defs>
     <path d="M 0 1.5 
C 0.397805 1.5 0.77937 1.341951 1.06066 1.06066 
C 1.341951 0.77937 1.5 0.397805 1.5 0 
C 1.5 -0.397805 1.341951 -0.77937 1.06066 -1.06066 
C 0.77937 -1.341951 0.397805 -1.5 0 -1.5 
C -0.397805 -1.5 -0.77937 -1.341951 -1.06066 -1.06066 
C -1.341951 -0.77937 -1.5 -0.397805 -1.5 0 
C -1.5 0.397805 -1.341951 0.77937 -1.06066 1.06066 
C -0.77937 1.341951 -0.397805 1.5 0 1.5 
z
" id="m2fc23f77c0" style="stroke:#ff00ff;"/>
    </defs>
    <g>
     <use style="fill:#ff00ff;stroke:#ff00ff;" x="291.511061" xlink:href="#m2fc23f77c0" y="188.339923"/>
     <use style="fill:#ff00ff;stroke:#ff00ff;" x="291.511061" xlink:href="#m2fc23f77c0" y="188.339923"/>
    </g>
   </g>
   <g id="line2d_44">
    <path d="M 29.53256 298.944 
L 29.53256 225.207949 
L 148.48777 225.207949 
L 148.48777 224.681263 
L 149.359452 224.681263 
L 149.359452 223.627891 
L 149.911431 223.627891 
L 149.911431 223.101204 
L 151.549655 223.101204 
L 151.549655 222.574518 
L 157.2549 222.574518 
L 157.2549 222.047832 
L 158.129851 222.047832 
L 158.129851 220.99446 
L 160.288133 220.99446 
L 160.288133 220.467774 
L 161.091058 220.467774 
L 161.091058 219.941088 
L 161.770068 219.941088 
L 161.840959 218.887716 
L 165.547501 218.887716 
L 165.547501 218.36103 
L 165.859305 218.36103 
L 165.859305 217.834344 
L 167.151695 217.834344 
L 167.151695 217.307658 
L 168.183606 217.307658 
L 168.214315 216.254285 
L 169.354388 216.254285 
L 169.354388 215.727599 
L 170.91486 215.727599 
L 170.91486 215.200913 
L 173.710926 215.200913 
L 173.710926 214.674227 
L 175.765475 214.674227 
L 175.840927 213.094169 
L 178.006891 213.094169 
L 178.006891 212.567483 
L 180.357442 212.567483 
L 180.357442 212.040797 
L 181.149662 212.040797 
L 181.149662 211.514111 
L 183.53598 211.514111 
L 183.53598 210.987425 
L 183.771427 210.987425 
L 183.771427 210.460738 
L 191.140803 210.460738 
L 191.140803 209.934052 
L 194.20268 209.934052 
L 194.20268 209.407366 
L 202.549952 209.407366 
L 202.549952 208.88068 
L 207.533262 208.88068 
L 207.533262 208.353994 
L 210.437153 208.353994 
L 210.437153 207.827308 
L 210.729549 207.827308 
L 210.729549 207.300622 
L 211.558502 207.300622 
L 211.558502 206.773936 
L 211.973135 206.773936 
L 211.973135 206.24725 
L 212.392761 206.24725 
L 212.392761 205.720564 
L 212.91968 205.720564 
L 212.91968 205.193878 
L 213.661436 205.193878 
L 213.738732 204.140506 
L 214.735333 204.140506 
L 214.735333 203.613819 
L 215.050247 203.613819 
L 215.050247 203.087133 
L 216.057272 203.087133 
L 216.057272 202.560447 
L 222.532498 202.560447 
L 222.532498 202.033761 
L 228.962548 202.033761 
L 228.962548 201.507075 
L 230.70882 201.507075 
L 230.70882 200.980389 
L 231.068145 200.980389 
L 231.068145 200.453703 
L 232.858156 200.453703 
L 232.858156 199.927017 
L 233.094773 199.927017 
L 233.094773 199.400331 
L 235.991819 199.400331 
L 235.991819 198.873645 
L 236.692295 198.873645 
L 236.692295 198.346959 
L 242.617689 198.346959 
L 242.617689 197.820273 
L 242.893016 197.820273 
L 242.893016 197.293586 
L 249.041371 197.293586 
L 249.041371 196.7669 
L 249.634639 196.7669 
L 249.634639 196.240214 
L 256.094748 196.240214 
L 256.096657 195.186842 
L 256.318051 195.186842 
L 256.318051 194.660156 
L 259.756775 194.660156 
L 259.756775 194.13347 
L 262.714438 194.13347 
L 262.714438 193.606784 
L 268.688844 193.606784 
L 268.688844 193.080098 
L 268.841182 193.080098 
L 268.841182 192.553412 
L 272.30331 192.553412 
L 272.30331 192.026726 
L 278.014731 192.026726 
L 278.014731 191.50004 
L 282.912853 191.50004 
L 282.912853 190.973354 
L 285.307347 190.973354 
L 285.307347 190.446667 
L 286.73646 190.446667 
L 286.73646 189.919981 
L 288.055905 189.919981 
L 288.057329 188.866609 
L 291.511061 188.866609 
L 291.511061 188.339923 
L 338.688 188.339923 
L 338.688 188.339923 
" style="fill:none;stroke:#ff00ff;stroke-linecap:square;stroke-width:1.5;"/>
   </g>
   <g id="line2d_45">
    <defs>
     <path d="M -0 8.485281 
L 5.091169 0 
L 0 -8.485281 
L -5.091169 -0 
z
" id="m9b32ca55d5" style="stroke:#ff00ff;stroke-linejoin:miter;stroke-width:1.5;"/>
    </defs>
    <g>
     <use style="fill-opacity:0;stroke:#ff00ff;stroke-linejoin:miter;stroke-width:1.5;" x="183.771427" xlink:href="#m9b32ca55d5" y="210.987425"/>
     <use style="fill-opacity:0;stroke:#ff00ff;stroke-linejoin:miter;stroke-width:1.5;" x="256.318051" xlink:href="#m9b32ca55d5" y="194.660156"/>
     <use style="fill-opacity:0;stroke:#ff00ff;stroke-linejoin:miter;stroke-width:1.5;" x="291.511061" xlink:href="#m9b32ca55d5" y="188.339923"/>
     <use style="fill-opacity:0;stroke:#ff00ff;stroke-linejoin:miter;stroke-width:1.5;" x="291.511061" xlink:href="#m9b32ca55d5" y="188.339923"/>
     <use style="fill-opacity:0;stroke:#ff00ff;stroke-linejoin:miter;stroke-width:1.5;" x="338.688" xlink:href="#m9b32ca55d5" y="188.339923"/>
    </g>
   </g>
   <g id="line2d_46">
    <path style="fill:none;stroke:#ff00ff;stroke-linecap:square;stroke-width:1.5;"/>
    <g/>
   </g>
   <g id="line2d_47">
    <path clip-path="url(#pb4473b4068)" d="M 230.317723 201.507075 
" style="fill:none;stroke:#ff00ff;stroke-linecap:square;stroke-width:1.5;"/>
    <defs>
     <path d="M -12 12 
L 12 -12 
M -12 -12 
L 12 12 
" id="m7258d0491e" style="stroke:#ff00ff;"/>
    </defs>
    <g clip-path="url(#pb4473b4068)">
     <use style="fill:#ff00ff;stroke:#ff00ff;" x="230.317723" xlink:href="#m7258d0491e" y="201.507075"/>
    </g>
   </g>
   <g id="line2d_48">
    <defs>
     <path d="M 0 1.5 
C 0.397805 1.5 0.77937 1.341951 1.06066 1.06066 
C 1.341951 0.77937 1.5 0.397805 1.5 0 
C 1.5 -0.397805 1.341951 -0.77937 1.06066 -1.06066 
C 0.77937 -1.341951 0.397805 -1.5 0 -1.5 
C -0.397805 -1.5 -0.77937 -1.341951 -1.06066 -1.06066 
C -1.341951 -0.77937 -1.5 -0.397805 -1.5 0 
C -1.5 0.397805 -1.341951 0.77937 -1.06066 1.06066 
C -0.77937 1.341951 -0.397805 1.5 0 1.5 
z
" id="m2783d5eb8c" style="stroke:#ff0000;"/>
    </defs>
    <g>
     <use style="fill:#ff0000;stroke:#ff0000;" x="278.515306" xlink:href="#m2783d5eb8c" y="30.334099"/>
     <use style="fill:#ff0000;stroke:#ff0000;" x="278.515306" xlink:href="#m2783d5eb8c" y="30.334099"/>
    </g>
   </g>
   <g id="line2d_49">
    <path d="M 29.53256 298.944 
L 29.53256 225.207949 
L 146.707319 225.207949 
L 146.707319 223.101204 
L 146.833235 223.101204 
L 146.833235 222.574518 
L 147.041095 222.574518 
L 147.041095 222.047832 
L 147.670154 222.047832 
L 147.670154 220.467774 
L 148.296548 220.467774 
L 148.315765 218.887716 
L 148.676918 218.887716 
L 148.733265 217.307658 
L 148.975352 217.307658 
L 148.975352 216.254285 
L 149.395596 216.254285 
L 149.395596 215.727599 
L 149.593058 215.727599 
L 149.593058 215.200913 
L 150.172372 215.200913 
L 150.172372 214.674227 
L 151.565603 214.674227 
L 151.565603 214.147541 
L 151.787359 214.147541 
L 151.787359 213.620855 
L 152.781537 213.620855 
L 152.781537 213.094169 
L 153.693887 213.094169 
L 153.693887 212.567483 
L 153.904255 212.567483 
L 153.904255 212.040797 
L 154.787617 212.040797 
L 154.787617 211.514111 
L 155.55245 211.514111 
L 155.565128 210.460738 
L 170.184987 210.460738 
L 170.184987 209.934052 
L 171.160157 209.934052 
L 171.160157 209.407366 
L 174.074257 209.407366 
L 174.074257 208.88068 
L 175.083722 208.88068 
L 175.083722 208.353994 
L 176.763161 208.353994 
L 176.763161 207.827308 
L 177.770817 207.827308 
L 177.770817 207.300622 
L 180.473278 207.300622 
L 180.473278 206.773936 
L 181.901854 206.773936 
L 181.901854 206.24725 
L 185.535002 206.24725 
L 185.535002 205.720564 
L 187.336467 205.720564 
L 187.336467 205.193878 
L 190.142062 205.193878 
L 190.142062 204.667192 
L 192.226918 204.667192 
L 192.226918 203.613819 
L 192.889325 203.613819 
L 192.889325 203.087133 
L 193.590614 203.087133 
L 193.590614 202.560447 
L 198.361696 202.560447 
L 198.361696 202.033761 
L 198.610446 202.033761 
L 198.610446 201.507075 
L 199.583607 201.507075 
L 199.583607 200.980389 
L 199.911578 200.980389 
L 199.911578 200.453703 
L 200.793833 200.453703 
L 200.793833 199.927017 
L 201.937923 199.927017 
L 201.987542 198.873645 
L 203.335585 198.873645 
L 203.335585 198.346959 
L 208.310735 198.346959 
L 208.310735 197.820273 
L 210.396228 197.820273 
L 210.440968 196.7669 
L 210.563143 196.7669 
L 210.650045 195.713528 
L 210.690916 195.713528 
L 210.79428 193.606784 
L 210.811359 193.606784 
L 210.879509 190.973354 
L 210.945805 190.973354 
L 210.995494 186.759865 
L 211.080272 186.759865 
L 211.184494 183.073062 
L 211.38541 183.073062 
L 211.450842 182.01969 
L 211.834843 182.01969 
L 211.834843 180.439632 
L 212.031927 180.439632 
L 212.031927 179.38626 
L 212.147438 179.38626 
L 212.147438 178.859574 
L 212.304842 178.859574 
L 212.348857 176.752829 
L 212.518495 176.752829 
L 212.619299 175.172771 
L 212.69512 175.172771 
L 212.736729 172.539341 
L 214.378143 172.539341 
L 214.408118 171.485969 
L 214.628514 171.485969 
L 214.703356 169.379224 
L 214.768102 169.379224 
L 214.855468 168.325852 
L 214.884634 168.325852 
L 214.978563 166.219108 
L 215.010878 166.219108 
L 215.019262 165.165736 
L 215.127471 165.165736 
L 215.12872 163.585677 
L 215.31678 163.585677 
L 215.330782 162.005619 
L 216.461253 162.005619 
L 216.527106 160.952247 
L 216.581986 160.952247 
L 216.683232 159.898875 
L 216.813034 159.898875 
L 216.923475 156.212072 
L 217.013794 156.212072 
L 217.044419 153.051956 
L 217.177866 153.051956 
L 217.223723 150.945211 
L 217.304786 150.945211 
L 217.367169 149.365153 
L 219.325516 149.365153 
L 219.325516 148.838467 
L 219.68134 148.838467 
L 219.784645 146.205037 
L 219.802494 146.205037 
L 219.830187 144.098292 
L 219.944944 144.098292 
L 219.944944 141.991548 
L 220.062404 141.991548 
L 220.148812 140.41149 
L 220.189675 140.41149 
L 220.200265 139.358118 
L 220.324682 139.358118 
L 220.374695 137.778059 
L 225.976492 137.778059 
L 225.976492 137.251373 
L 226.493068 137.251373 
L 226.568873 136.198001 
L 226.78238 136.198001 
L 226.879672 134.617943 
L 226.981067 134.617943 
L 227.064871 131.984513 
L 227.130076 131.984513 
L 227.130076 129.877768 
L 227.249994 129.877768 
L 227.356704 127.244338 
L 227.40621 127.244338 
L 227.451879 126.190966 
L 228.656558 126.190966 
L 228.731938 124.610907 
L 228.770458 124.610907 
L 228.770458 124.084221 
L 228.887972 124.084221 
L 228.968011 120.924105 
L 229.030803 120.924105 
L 229.075597 116.18393 
L 229.191451 116.18393 
L 229.296562 113.5505 
L 229.329245 113.5505 
L 229.329245 112.497128 
L 230.471657 112.497128 
L 230.564022 107.230267 
L 232.275015 107.230267 
L 232.275015 106.703581 
L 233.269895 106.703581 
L 233.269895 106.176895 
L 235.215359 106.176895 
L 235.300449 103.016778 
L 235.341924 103.016778 
L 235.347542 101.963406 
L 235.501018 101.963406 
L 235.575834 99.329976 
L 235.646992 99.329976 
L 235.742782 97.223231 
L 235.781563 97.223231 
L 235.781563 96.696545 
L 236.196958 96.696545 
L 236.285698 94.589801 
L 236.361913 94.589801 
L 236.455092 89.849626 
L 236.839465 89.849626 
L 236.930134 88.796254 
L 236.952191 88.796254 
L 237.016891 84.582765 
L 237.065495 84.582765 
L 237.065495 84.056079 
L 237.911551 84.056079 
L 237.995705 83.002707 
L 238.029342 83.002707 
L 238.128976 79.842591 
L 240.74656 79.842591 
L 240.855018 77.735846 
L 240.884619 77.735846 
L 240.964036 74.57573 
L 241.001673 74.57573 
L 241.02782 73.522358 
L 241.601473 73.522358 
L 241.65897 71.415613 
L 241.724073 71.415613 
L 241.808788 68.255497 
L 241.848067 68.255497 
L 241.848067 67.728811 
L 242.494298 67.728811 
L 242.530334 64.042008 
L 243.94874 64.042008 
L 243.94874 63.515322 
L 245.013745 63.515322 
L 245.10544 59.82852 
L 245.199477 59.82852 
L 245.282001 57.195089 
L 245.336163 57.195089 
L 245.363695 55.088345 
L 245.600412 55.088345 
L 245.701207 54.034973 
L 245.759909 54.034973 
L 245.776512 52.9816 
L 245.987015 52.9816 
L 246.079464 49.821484 
L 246.110572 49.821484 
L 246.119449 48.768112 
L 246.630463 48.768112 
L 246.714399 47.71474 
L 248.433871 47.71474 
L 248.460314 46.661368 
L 248.572112 46.661368 
L 248.572112 46.134681 
L 248.970275 46.134681 
L 249.075295 44.554623 
L 249.115026 44.554623 
L 249.157686 42.974565 
L 249.569047 42.974565 
L 249.569047 42.447879 
L 251.315206 42.447879 
L 251.419787 40.341135 
L 251.476559 40.341135 
L 251.48728 38.761076 
L 252.047174 38.761076 
L 252.047174 38.23439 
L 253.706658 38.23439 
L 253.817046 36.654332 
L 254.22472 36.654332 
L 254.22472 36.127646 
L 256.390434 36.127646 
L 256.390434 35.60096 
L 256.781462 35.60096 
L 256.781462 35.074274 
L 257.804772 35.074274 
L 257.856524 34.020902 
L 258.419782 34.020902 
L 258.419782 33.494215 
L 260.203076 33.494215 
L 260.212245 31.914157 
L 262.737732 31.914157 
L 262.737732 31.387471 
L 264.092641 31.387471 
L 264.092641 30.860785 
L 278.515306 30.860785 
L 278.515306 30.334099 
L 338.688 30.334099 
L 338.688 30.334099 
" style="fill:none;stroke:#ff0000;stroke-linecap:square;stroke-width:1.5;"/>
   </g>
   <g id="line2d_50">
    <defs>
     <path d="M 0 -6 
L -5.196152 -3 
L -5.196152 3 
L -0 6 
L 5.196152 3 
L 5.196152 -3 
z
" id="m91dd69a20c" style="stroke:#ff0000;stroke-linejoin:miter;stroke-width:1.5;"/>
    </defs>
    <g>
     <use style="fill-opacity:0;stroke:#ff0000;stroke-linejoin:miter;stroke-width:1.5;" x="187.336467" xlink:href="#m91dd69a20c" y="205.720564"/>
     <use style="fill-opacity:0;stroke:#ff0000;stroke-linejoin:miter;stroke-width:1.5;" x="229.197771" xlink:href="#m91dd69a20c" y="115.657244"/>
     <use style="fill-opacity:0;stroke:#ff0000;stroke-linejoin:miter;stroke-width:1.5;" x="278.515306" xlink:href="#m91dd69a20c" y="30.860785"/>
     <use style="fill-opacity:0;stroke:#ff0000;stroke-linejoin:miter;stroke-width:1.5;" x="278.515306" xlink:href="#m91dd69a20c" y="30.334099"/>
     <use style="fill-opacity:0;stroke:#ff0000;stroke-linejoin:miter;stroke-width:1.5;" x="338.688" xlink:href="#m91dd69a20c" y="30.334099"/>
    </g>
   </g>
   <g id="line2d_51">
    <path style="fill:none;stroke:#ff0000;stroke-linecap:square;stroke-width:1.5;"/>
    <g/>
   </g>
   <g id="line2d_52">
    <path clip-path="url(#pb4473b4068)" d="M 230.326262 112.497128 
" style="fill:none;stroke:#ff0000;stroke-linecap:square;stroke-width:1.5;"/>
    <defs>
     <path d="M -12 12 
L 12 -12 
M -12 -12 
L 12 12 
" id="me83565e1c6" style="stroke:#ff0000;"/>
    </defs>
    <g clip-path="url(#pb4473b4068)">
     <use style="fill:#ff0000;stroke:#ff0000;" x="230.326262" xlink:href="#me83565e1c6" y="112.497128"/>
    </g>
   </g>
   <g id="line2d_53">
    <defs>
     <path d="M 0 1.5 
C 0.397805 1.5 0.77937 1.341951 1.06066 1.06066 
C 1.341951 0.77937 1.5 0.397805 1.5 0 
C 1.5 -0.397805 1.341951 -0.77937 1.06066 -1.06066 
C 0.77937 -1.341951 0.397805 -1.5 0 -1.5 
C -0.397805 -1.5 -0.77937 -1.341951 -1.06066 -1.06066 
C -1.341951 -0.77937 -1.5 -0.397805 -1.5 0 
C -1.5 0.397805 -1.341951 0.77937 -1.06066 1.06066 
C -0.77937 1.341951 -0.397805 1.5 0 1.5 
z
" id="mc6645c4651" style="stroke:#ff7500;"/>
    </defs>
    <g>
     <use style="fill:#ff7500;stroke:#ff7500;" x="262.191956" xlink:href="#mc6645c4651" y="30.334099"/>
     <use style="fill:#ff7500;stroke:#ff7500;" x="262.191956" xlink:href="#mc6645c4651" y="30.334099"/>
    </g>
   </g>
   <g id="line2d_54">
    <path d="M 29.53256 298.944 
L 29.53256 225.207949 
L 149.85877 225.207949 
L 149.85877 224.681263 
L 152.632227 224.681263 
L 152.632227 224.154577 
L 161.256448 224.154577 
L 161.256448 223.627891 
L 169.71843 223.627891 
L 169.71843 223.101204 
L 170.596616 223.101204 
L 170.618014 222.047832 
L 181.038247 222.047832 
L 181.038247 221.521146 
L 184.775492 221.521146 
L 184.775492 220.99446 
L 185.315436 220.99446 
L 185.315436 220.467774 
L 185.641499 220.467774 
L 185.641499 219.941088 
L 185.774272 219.941088 
L 185.774272 219.414402 
L 191.818001 219.414402 
L 191.818001 218.887716 
L 192.631005 218.887716 
L 192.631005 218.36103 
L 196.131383 218.36103 
L 196.131383 217.834344 
L 196.807602 217.834344 
L 196.807602 215.727599 
L 197.174064 215.727599 
L 197.174064 215.200913 
L 197.34117 215.200913 
L 197.34117 214.674227 
L 197.522699 214.674227 
L 197.578615 213.094169 
L 197.797125 213.094169 
L 197.797125 211.514111 
L 197.970652 211.514111 
L 197.970652 210.987425 
L 198.164516 210.987425 
L 198.265575 208.88068 
L 198.428015 208.88068 
L 198.454039 207.827308 
L 198.559902 207.827308 
L 198.562056 206.773936 
L 200.617663 206.773936 
L 200.617663 206.24725 
L 201.306392 206.24725 
L 201.411876 205.193878 
L 201.534897 205.193878 
L 201.534897 204.667192 
L 201.657958 204.667192 
L 201.76224 203.613819 
L 201.952114 203.613819 
L 201.952114 203.087133 
L 202.069634 203.087133 
L 202.137312 201.507075 
L 202.271014 201.507075 
L 202.271014 199.400331 
L 202.402835 199.400331 
L 202.470955 196.7669 
L 202.516508 196.7669 
L 202.570501 194.660156 
L 202.638823 194.660156 
L 202.638823 193.606784 
L 202.753514 193.606784 
L 202.823654 191.50004 
L 203.134601 191.50004 
L 203.213128 190.446667 
L 203.251026 190.446667 
L 203.302795 189.393295 
L 203.371583 189.393295 
L 203.384654 188.339923 
L 203.500238 188.339923 
L 203.52456 186.759865 
L 203.685039 186.759865 
L 203.771519 184.653121 
L 203.871873 184.653121 
L 203.959014 183.073062 
L 203.98665 183.073062 
L 203.989016 182.01969 
L 204.626453 182.01969 
L 204.626453 181.493004 
L 205.373795 181.493004 
L 205.373795 180.966318 
L 205.510968 180.966318 
L 205.510968 180.439632 
L 205.689339 180.439632 
L 205.689339 179.912946 
L 205.892802 179.912946 
L 205.892802 179.38626 
L 207.076032 179.38626 
L 207.076032 178.859574 
L 207.779371 178.859574 
L 207.779371 178.332888 
L 208.681124 178.332888 
L 208.681124 177.806202 
L 209.01604 177.806202 
L 209.01604 177.279515 
L 211.17248 177.279515 
L 211.27927 176.226143 
L 211.392635 176.226143 
L 211.392635 175.699457 
L 211.512444 175.699457 
L 211.512444 174.646085 
L 211.624817 174.646085 
L 211.624817 172.539341 
L 211.776896 172.539341 
L 211.881062 169.90591 
L 211.960654 169.90591 
L 212.021977 168.325852 
L 212.102911 168.325852 
L 212.141507 167.27248 
L 212.287695 167.27248 
L 212.287695 166.745794 
L 213.498493 166.745794 
L 213.589255 165.165736 
L 213.701257 165.165736 
L 213.701257 164.63905 
L 213.861429 164.63905 
L 213.939183 163.058991 
L 214.008156 163.058991 
L 214.106471 159.898875 
L 214.190176 159.898875 
L 214.215648 158.845503 
L 214.308875 158.845503 
L 214.40942 154.632014 
L 214.464019 154.632014 
L 214.464019 154.105328 
L 214.774478 154.105328 
L 214.837691 151.998584 
L 214.944083 151.998584 
L 215.03183 149.891839 
L 215.073241 149.891839 
L 215.142874 146.731723 
L 215.189834 146.731723 
L 215.26355 145.151665 
L 215.349709 145.151665 
L 215.399397 143.04492 
L 216.239539 143.04492 
L 216.239539 141.991548 
L 218.283688 141.991548 
L 218.283688 141.464862 
L 218.502653 141.464862 
L 218.502653 140.41149 
L 218.667302 140.41149 
L 218.667302 139.358118 
L 218.802769 139.358118 
L 218.904354 137.251373 
L 219.036002 137.251373 
L 219.101455 135.144629 
L 219.177893 135.144629 
L 219.193735 133.037885 
L 219.352995 133.037885 
L 219.440705 130.93114 
L 219.569026 130.93114 
L 219.569026 130.404454 
L 220.128188 130.404454 
L 220.128188 129.877768 
L 220.537016 129.877768 
L 220.614117 128.824396 
L 220.896134 128.824396 
L 220.896134 127.771024 
L 221.238914 127.771024 
L 221.238914 127.244338 
L 221.369561 127.244338 
L 221.416088 125.66428 
L 221.526384 125.66428 
L 221.616188 124.084221 
L 221.670079 124.084221 
L 221.722947 121.977477 
L 221.795274 121.977477 
L 221.896991 118.817361 
L 221.911675 118.817361 
L 222.018049 116.18393 
L 222.032912 116.18393 
L 222.138829 114.077186 
L 222.177236 114.077186 
L 222.177236 113.5505 
L 222.613756 113.5505 
L 222.667898 112.497128 
L 225.024914 112.497128 
L 225.024914 111.970441 
L 225.171635 111.970441 
L 225.171635 111.443755 
L 226.142935 111.443755 
L 226.142935 110.917069 
L 226.497625 110.917069 
L 226.497625 110.390383 
L 227.849774 110.390383 
L 227.849774 109.863697 
L 229.594163 109.863697 
L 229.703925 107.756953 
L 229.799898 107.756953 
L 229.866211 104.07015 
L 230.021682 104.07015 
L 230.125446 101.43672 
L 232.723378 101.43672 
L 232.793544 97.749917 
L 232.853936 97.749917 
L 232.938585 95.643173 
L 233.470211 95.643173 
L 233.538601 94.063115 
L 233.581733 94.063115 
L 233.688236 93.009743 
L 233.699152 93.009743 
L 233.80323 85.636137 
L 233.821205 85.636137 
L 233.821205 85.109451 
L 234.168768 85.109451 
L 234.168768 84.582765 
L 235.401934 84.582765 
L 235.460829 81.422649 
L 235.514092 81.422649 
L 235.575318 78.789218 
L 235.994086 78.789218 
L 236.003021 77.735846 
L 236.106139 77.735846 
L 236.203054 74.049044 
L 236.325885 74.049044 
L 236.415447 69.835555 
L 236.446017 69.835555 
L 236.525078 67.728811 
L 237.607923 67.728811 
L 237.714322 65.09538 
L 237.733474 65.09538 
L 237.809189 62.46195 
L 238.340423 62.46195 
L 238.340423 61.935264 
L 238.497724 61.935264 
L 238.580731 60.355206 
L 238.663344 60.355206 
L 238.761472 57.195089 
L 238.78101 57.195089 
L 238.788947 55.615031 
L 242.097788 55.615031 
L 242.180092 54.034973 
L 242.271762 54.034973 
L 242.273167 52.9816 
L 243.74928 52.9816 
L 243.781206 51.928228 
L 244.096021 51.928228 
L 244.205396 50.34817 
L 244.233123 50.34817 
L 244.233123 49.821484 
L 244.420168 49.821484 
L 244.420168 49.294798 
L 245.121558 49.294798 
L 245.213208 47.188054 
L 245.242639 47.188054 
L 245.242639 46.661368 
L 245.466302 46.661368 
L 245.562709 45.081309 
L 245.601211 45.081309 
L 245.685832 44.027937 
L 245.737676 44.027937 
L 245.737676 43.501251 
L 246.449277 43.501251 
L 246.49063 41.394507 
L 246.861503 41.394507 
L 246.861503 40.867821 
L 247.026579 40.867821 
L 247.026579 40.341135 
L 250.627157 40.341135 
L 250.627157 39.814448 
L 251.377321 39.814448 
L 251.420931 38.761076 
L 251.609922 38.761076 
L 251.65921 37.181018 
L 252.201775 37.181018 
L 252.201775 36.654332 
L 252.331304 36.654332 
L 252.331304 36.127646 
L 252.734813 36.127646 
L 252.75678 34.547588 
L 254.378799 34.547588 
L 254.378799 34.020902 
L 255.184997 34.020902 
L 255.184997 33.494215 
L 255.426416 33.494215 
L 255.426416 32.967529 
L 255.54412 32.967529 
L 255.54412 32.440843 
L 256.259195 32.440843 
L 256.259195 31.914157 
L 258.286327 31.914157 
L 258.286327 31.387471 
L 260.435379 31.387471 
L 260.435379 30.860785 
L 262.191956 30.860785 
L 262.191956 30.334099 
L 338.688 30.334099 
L 338.688 30.334099 
" style="fill:none;stroke:#ff7500;stroke-linecap:square;stroke-width:1.5;"/>
   </g>
   <g id="line2d_55">
    <defs>
     <path d="M 0 -6 
L -1.347084 -1.854102 
L -5.706339 -1.854102 
L -2.179628 0.708204 
L -3.526712 4.854102 
L -0 2.291796 
L 3.526712 4.854102 
L 2.179628 0.708204 
L 5.706339 -1.854102 
L 1.347084 -1.854102 
z
" id="mf0fce929d8" style="stroke:#ff7500;stroke-linejoin:bevel;stroke-width:1.5;"/>
    </defs>
    <g>
     <use style="fill-opacity:0;stroke:#ff7500;stroke-linejoin:bevel;stroke-width:1.5;" x="202.552521" xlink:href="#mf0fce929d8" y="195.713528"/>
     <use style="fill-opacity:0;stroke:#ff7500;stroke-linejoin:bevel;stroke-width:1.5;" x="235.460829" xlink:href="#mf0fce929d8" y="82.476021"/>
     <use style="fill-opacity:0;stroke:#ff7500;stroke-linejoin:bevel;stroke-width:1.5;" x="262.191956" xlink:href="#mf0fce929d8" y="30.334099"/>
     <use style="fill-opacity:0;stroke:#ff7500;stroke-linejoin:bevel;stroke-width:1.5;" x="262.191956" xlink:href="#mf0fce929d8" y="30.334099"/>
     <use style="fill-opacity:0;stroke:#ff7500;stroke-linejoin:bevel;stroke-width:1.5;" x="338.688" xlink:href="#mf0fce929d8" y="30.334099"/>
    </g>
   </g>
   <g id="line2d_56">
    <path style="fill:none;stroke:#ff7500;stroke-linecap:square;stroke-width:1.5;"/>
    <g/>
   </g>
   <g id="line2d_57">
    <path clip-path="url(#pb4473b4068)" d="M 230.32905 101.43672 
" style="fill:none;stroke:#ff7500;stroke-linecap:square;stroke-width:1.5;"/>
    <defs>
     <path d="M -12 12 
L 12 -12 
M -12 -12 
L 12 12 
" id="m34eecee03c" style="stroke:#ff7500;"/>
    </defs>
    <g clip-path="url(#pb4473b4068)">
     <use style="fill:#ff7500;stroke:#ff7500;" x="230.32905" xlink:href="#m34eecee03c" y="101.43672"/>
    </g>
   </g>
   <g id="line2d_58">
    <path d="M 338.688 188.339923 
L 369.60768 293.571802 
" style="fill:none;stroke:#ff00ff;stroke-linecap:square;stroke-width:1.5;"/>
    <g>
     <use style="fill-opacity:0;stroke:#ff00ff;stroke-linejoin:miter;stroke-width:1.5;" x="338.688" xlink:href="#m9b32ca55d5" y="188.339923"/>
     <use style="fill-opacity:0;stroke:#ff00ff;stroke-linejoin:miter;stroke-width:1.5;" x="369.60768" xlink:href="#m9b32ca55d5" y="293.571802"/>
    </g>
   </g>
   <g id="line2d_59">
    <path d="M 338.688 30.334099 
L 369.60768 241.998701 
" style="fill:none;stroke:#ff0000;stroke-linecap:square;stroke-width:1.5;"/>
    <g>
     <use style="fill-opacity:0;stroke:#ff0000;stroke-linejoin:miter;stroke-width:1.5;" x="338.688" xlink:href="#m91dd69a20c" y="30.334099"/>
     <use style="fill-opacity:0;stroke:#ff0000;stroke-linejoin:miter;stroke-width:1.5;" x="369.60768" xlink:href="#m91dd69a20c" y="241.998701"/>
    </g>
   </g>
   <g id="line2d_60">
    <path d="M 338.688 30.334099 
L 369.60768 190.4256 
" style="fill:none;stroke:#ff7500;stroke-linecap:square;stroke-width:1.5;"/>
    <g>
     <use style="fill-opacity:0;stroke:#ff7500;stroke-linejoin:bevel;stroke-width:1.5;" x="338.688" xlink:href="#mf0fce929d8" y="30.334099"/>
     <use style="fill-opacity:0;stroke:#ff7500;stroke-linejoin:bevel;stroke-width:1.5;" x="369.60768" xlink:href="#mf0fce929d8" y="190.4256"/>
    </g>
   </g>
   <g id="line2d_61">
    <path d="M 338.688 30.334099 
L 369.60768 138.852499 
" style="fill:none;stroke:#000080;stroke-linecap:square;stroke-width:1.5;"/>
    <g>
     <use style="fill-opacity:0;stroke:#000080;stroke-width:1.5;" x="338.688" xlink:href="#me36a758fbc" y="30.334099"/>
     <use style="fill-opacity:0;stroke:#000080;stroke-width:1.5;" x="369.60768" xlink:href="#me36a758fbc" y="138.852499"/>
    </g>
   </g>
   <g id="line2d_62">
    <path d="M 338.688 30.334099 
L 369.60768 87.279398 
" style="fill:none;stroke:#000080;stroke-linecap:square;stroke-width:1.5;"/>
    <g>
     <use style="fill-opacity:0;stroke:#000080;stroke-width:1.5;" x="338.688" xlink:href="#me36a758fbc" y="30.334099"/>
     <use style="fill-opacity:0;stroke:#000080;stroke-width:1.5;" x="369.60768" xlink:href="#me36a758fbc" y="87.279398"/>
    </g>
   </g>
   <g id="line2d_63">
    <path d="M 338.688 298.944 
L 338.688 30.334099 
" style="fill:none;stroke:#000000;stroke-linecap:square;stroke-width:1.5;"/>
   </g>
   <g id="patch_3">
    <path d="M 57.6 298.944 
L 57.6 27.648 
" style="fill:none;stroke:#000000;stroke-linecap:square;stroke-linejoin:miter;stroke-width:0.8;"/>
   </g>
   <g id="patch_4">
    <path d="M 338.688 298.944 
L 338.688 27.648 
" style="fill:none;stroke:#000000;stroke-linecap:square;stroke-linejoin:miter;stroke-width:0.8;"/>
   </g>
   <g id="patch_5">
    <path d="M 57.6 298.944 
L 338.688 298.944 
" style="fill:none;stroke:#000000;stroke-linecap:square;stroke-linejoin:miter;stroke-width:0.8;"/>
   </g>
   <g id="patch_6">
    <path d="M 57.6 27.648 
L 338.688 27.648 
" style="fill:none;stroke:#000000;stroke-linecap:square;stroke-linejoin:miter;stroke-width:0.8;"/>
   </g>
   <g id="text_13">
    <!-- 025s-2e4 -->
    <defs>
     <path d="M 10.796875 72.90625 
L 49.515625 72.90625 
L 49.515625 64.59375 
L 19.828125 64.59375 
L 19.828125 46.734375 
Q 21.96875 47.46875 24.109375 47.828125 
Q 26.265625 48.1875 28.421875 48.1875 
Q 40.625 48.1875 47.75 41.5 
Q 54.890625 34.8125 54.890625 23.390625 
Q 54.890625 11.625 47.5625 5.09375 
Q 40.234375 -1.421875 26.90625 -1.421875 
Q 22.3125 -1.421875 17.546875 -0.640625 
Q 12.796875 0.140625 7.71875 1.703125 
L 7.71875 11.625 
Q 12.109375 9.234375 16.796875 8.0625 
Q 21.484375 6.890625 26.703125 6.890625 
Q 35.15625 6.890625 40.078125 11.328125 
Q 45.015625 15.765625 45.015625 23.390625 
Q 45.015625 31 40.078125 35.4375 
Q 35.15625 39.890625 26.703125 39.890625 
Q 22.75 39.890625 18.8125 39.015625 
Q 14.890625 38.140625 10.796875 36.28125 
z
" id="DejaVuSans-53"/>
    </defs>
    <g transform="translate(375.22944 298.262739)scale(0.17 -0.17)">
     <use xlink:href="#DejaVuSans-48"/>
     <use x="63.623047" xlink:href="#DejaVuSans-50"/>
     <use x="127.246094" xlink:href="#DejaVuSans-53"/>
     <use x="190.869141" xlink:href="#DejaVuSans-115"/>
     <use x="242.96875" xlink:href="#DejaVuSans-45"/>
     <use x="279.052734" xlink:href="#DejaVuSans-50"/>
     <use x="342.675781" xlink:href="#DejaVuSans-101"/>
     <use x="404.199219" xlink:href="#DejaVuSans-52"/>
    </g>
   </g>
   <g id="text_14">
    <!-- 050s-2e4 -->
    <g transform="translate(375.22944 246.689638)scale(0.17 -0.17)">
     <use xlink:href="#DejaVuSans-48"/>
     <use x="63.623047" xlink:href="#DejaVuSans-53"/>
     <use x="127.246094" xlink:href="#DejaVuSans-48"/>
     <use x="190.869141" xlink:href="#DejaVuSans-115"/>
     <use x="242.96875" xlink:href="#DejaVuSans-45"/>
     <use x="279.052734" xlink:href="#DejaVuSans-50"/>
     <use x="342.675781" xlink:href="#DejaVuSans-101"/>
     <use x="404.199219" xlink:href="#DejaVuSans-52"/>
    </g>
   </g>
   <g id="text_15">
    <!-- 075s-2e4 -->
    <defs>
     <path d="M 8.203125 72.90625 
L 55.078125 72.90625 
L 55.078125 68.703125 
L 28.609375 0 
L 18.3125 0 
L 43.21875 64.59375 
L 8.203125 64.59375 
z
" id="DejaVuSans-55"/>
    </defs>
    <g transform="translate(375.22944 195.116537)scale(0.17 -0.17)">
     <use xlink:href="#DejaVuSans-48"/>
     <use x="63.623047" xlink:href="#DejaVuSans-55"/>
     <use x="127.246094" xlink:href="#DejaVuSans-53"/>
     <use x="190.869141" xlink:href="#DejaVuSans-115"/>
     <use x="242.96875" xlink:href="#DejaVuSans-45"/>
     <use x="279.052734" xlink:href="#DejaVuSans-50"/>
     <use x="342.675781" xlink:href="#DejaVuSans-101"/>
     <use x="404.199219" xlink:href="#DejaVuSans-52"/>
    </g>
   </g>
   <g id="text_16">
    <!-- 100-2e4 -->
    <g transform="translate(375.22944 143.543437)scale(0.17 -0.17)">
     <use xlink:href="#DejaVuSans-49"/>
     <use x="63.623047" xlink:href="#DejaVuSans-48"/>
     <use x="127.246094" xlink:href="#DejaVuSans-48"/>
     <use x="190.869141" xlink:href="#DejaVuSans-45"/>
     <use x="226.953125" xlink:href="#DejaVuSans-50"/>
     <use x="290.576172" xlink:href="#DejaVuSans-101"/>
     <use x="352.099609" xlink:href="#DejaVuSans-52"/>
    </g>
   </g>
   <g id="text_17">
    <!-- 100-1e5 -->
    <g transform="translate(375.22944 91.970336)scale(0.17 -0.17)">
     <use xlink:href="#DejaVuSans-49"/>
     <use x="63.623047" xlink:href="#DejaVuSans-48"/>
     <use x="127.246094" xlink:href="#DejaVuSans-48"/>
     <use x="190.869141" xlink:href="#DejaVuSans-45"/>
     <use x="226.953125" xlink:href="#DejaVuSans-49"/>
     <use x="290.576172" xlink:href="#DejaVuSans-101"/>
     <use x="352.099609" xlink:href="#DejaVuSans-53"/>
    </g>
   </g>
   <g id="text_18">
    <!-- best 2009 -->
    <defs>
     <path d="M 48.6875 27.296875 
Q 48.6875 37.203125 44.609375 42.84375 
Q 40.53125 48.484375 33.40625 48.484375 
Q 26.265625 48.484375 22.1875 42.84375 
Q 18.109375 37.203125 18.109375 27.296875 
Q 18.109375 17.390625 22.1875 11.75 
Q 26.265625 6.109375 33.40625 6.109375 
Q 40.53125 6.109375 44.609375 11.75 
Q 48.6875 17.390625 48.6875 27.296875 
z
M 18.109375 46.390625 
Q 20.953125 51.265625 25.265625 53.625 
Q 29.59375 56 35.59375 56 
Q 45.5625 56 51.78125 48.09375 
Q 58.015625 40.1875 58.015625 27.296875 
Q 58.015625 14.40625 51.78125 6.484375 
Q 45.5625 -1.421875 35.59375 -1.421875 
Q 29.59375 -1.421875 25.265625 0.953125 
Q 20.953125 3.328125 18.109375 8.203125 
L 18.109375 0 
L 9.078125 0 
L 9.078125 75.984375 
L 18.109375 75.984375 
z
" id="DejaVuSans-98"/>
     <path d="M 10.984375 1.515625 
L 10.984375 10.5 
Q 14.703125 8.734375 18.5 7.8125 
Q 22.3125 6.890625 25.984375 6.890625 
Q 35.75 6.890625 40.890625 13.453125 
Q 46.046875 20.015625 46.78125 33.40625 
Q 43.953125 29.203125 39.59375 26.953125 
Q 35.25 24.703125 29.984375 24.703125 
Q 19.046875 24.703125 12.671875 31.3125 
Q 6.296875 37.9375 6.296875 49.421875 
Q 6.296875 60.640625 12.9375 67.421875 
Q 19.578125 74.21875 30.609375 74.21875 
Q 43.265625 74.21875 49.921875 64.515625 
Q 56.59375 54.828125 56.59375 36.375 
Q 56.59375 19.140625 48.40625 8.859375 
Q 40.234375 -1.421875 26.421875 -1.421875 
Q 22.703125 -1.421875 18.890625 -0.6875 
Q 15.09375 0.046875 10.984375 1.515625 
z
M 30.609375 32.421875 
Q 37.25 32.421875 41.125 36.953125 
Q 45.015625 41.5 45.015625 49.421875 
Q 45.015625 57.28125 41.125 61.84375 
Q 37.25 66.40625 30.609375 66.40625 
Q 23.96875 66.40625 20.09375 61.84375 
Q 16.21875 57.28125 16.21875 49.421875 
Q 16.21875 41.5 20.09375 36.953125 
Q 23.96875 32.421875 30.609375 32.421875 
z
" id="DejaVuSans-57"/>
    </defs>
    <g transform="translate(375.22944 40.397235)scale(0.17 -0.17)">
     <use xlink:href="#DejaVuSans-98"/>
     <use x="63.476562" xlink:href="#DejaVuSans-101"/>
     <use x="125" xlink:href="#DejaVuSans-115"/>
     <use x="177.099609" xlink:href="#DejaVuSans-116"/>
     <use x="216.308594" xlink:href="#DejaVuSans-32"/>
     <use x="248.095703" xlink:href="#DejaVuSans-50"/>
     <use x="311.71875" xlink:href="#DejaVuSans-48"/>
     <use x="375.341797" xlink:href="#DejaVuSans-48"/>
     <use x="438.964844" xlink:href="#DejaVuSans-57"/>
    </g>
   </g>
   <g id="text_19">
    <!-- bbob f19, 5-D -->
    <defs>
     <path d="M 19.671875 64.796875 
L 19.671875 8.109375 
L 31.59375 8.109375 
Q 46.6875 8.109375 53.6875 14.9375 
Q 60.6875 21.78125 60.6875 36.53125 
Q 60.6875 51.171875 53.6875 57.984375 
Q 46.6875 64.796875 31.59375 64.796875 
z
M 9.8125 72.90625 
L 30.078125 72.90625 
Q 51.265625 72.90625 61.171875 64.09375 
Q 71.09375 55.28125 71.09375 36.53125 
Q 71.09375 17.671875 61.125 8.828125 
Q 51.171875 0 30.078125 0 
L 9.8125 0 
z
" id="DejaVuSans-68"/>
    </defs>
    <g transform="translate(60.41088 38.111366)scale(0.102 -0.102)">
     <use xlink:href="#DejaVuSans-98"/>
     <use x="63.476562" xlink:href="#DejaVuSans-98"/>
     <use x="126.953125" xlink:href="#DejaVuSans-111"/>
     <use x="188.134766" xlink:href="#DejaVuSans-98"/>
     <use x="251.611328" xlink:href="#DejaVuSans-32"/>
     <use x="283.398438" xlink:href="#DejaVuSans-102"/>
     <use x="318.603516" xlink:href="#DejaVuSans-49"/>
     <use x="382.226562" xlink:href="#DejaVuSans-57"/>
     <use x="445.849609" xlink:href="#DejaVuSans-44"/>
     <use x="477.636719" xlink:href="#DejaVuSans-32"/>
     <use x="509.423828" xlink:href="#DejaVuSans-53"/>
     <use x="573.046875" xlink:href="#DejaVuSans-45"/>
     <use x="609.130859" xlink:href="#DejaVuSans-68"/>
    </g>
    <!-- 51 targets: 100..1e-08 -->
    <defs>
     <path d="M 11.71875 12.40625 
L 22.015625 12.40625 
L 22.015625 0 
L 11.71875 0 
z
M 11.71875 51.703125 
L 22.015625 51.703125 
L 22.015625 39.3125 
L 11.71875 39.3125 
z
" id="DejaVuSans-58"/>
    </defs>
    <g transform="translate(60.41088 49.533135)scale(0.102 -0.102)">
     <use xlink:href="#DejaVuSans-53"/>
     <use x="63.623047" xlink:href="#DejaVuSans-49"/>
     <use x="127.246094" xlink:href="#DejaVuSans-32"/>
     <use x="159.033203" xlink:href="#DejaVuSans-116"/>
     <use x="198.242188" xlink:href="#DejaVuSans-97"/>
     <use x="259.521484" xlink:href="#DejaVuSans-114"/>
     <use x="300.619141" xlink:href="#DejaVuSans-103"/>
     <use x="364.095703" xlink:href="#DejaVuSans-101"/>
     <use x="425.619141" xlink:href="#DejaVuSans-116"/>
     <use x="464.828125" xlink:href="#DejaVuSans-115"/>
     <use x="516.927734" xlink:href="#DejaVuSans-58"/>
     <use x="550.619141" xlink:href="#DejaVuSans-32"/>
     <use x="582.40625" xlink:href="#DejaVuSans-49"/>
     <use x="646.029297" xlink:href="#DejaVuSans-48"/>
     <use x="709.652344" xlink:href="#DejaVuSans-48"/>
     <use x="773.275391" xlink:href="#DejaVuSans-46"/>
     <use x="805.0625" xlink:href="#DejaVuSans-46"/>
     <use x="836.849609" xlink:href="#DejaVuSans-49"/>
     <use x="900.472656" xlink:href="#DejaVuSans-101"/>
     <use x="961.996094" xlink:href="#DejaVuSans-45"/>
     <use x="998.080078" xlink:href="#DejaVuSans-48"/>
     <use x="1061.703125" xlink:href="#DejaVuSans-56"/>
    </g>
    <!-- 15 instances -->
    <g transform="translate(60.41088 60.954904)scale(0.102 -0.102)">
     <use xlink:href="#DejaVuSans-49"/>
     <use x="63.623047" xlink:href="#DejaVuSans-53"/>
     <use x="127.246094" xlink:href="#DejaVuSans-32"/>
     <use x="159.033203" xlink:href="#DejaVuSans-105"/>
     <use x="186.816406" xlink:href="#DejaVuSans-110"/>
     <use x="250.195312" xlink:href="#DejaVuSans-115"/>
     <use x="302.294922" xlink:href="#DejaVuSans-116"/>
     <use x="341.503906" xlink:href="#DejaVuSans-97"/>
     <use x="402.783203" xlink:href="#DejaVuSans-110"/>
     <use x="466.162109" xlink:href="#DejaVuSans-99"/>
     <use x="521.142578" xlink:href="#DejaVuSans-101"/>
     <use x="582.666016" xlink:href="#DejaVuSans-115"/>
    </g>
   </g>
   <g id="text_20">
    <!-- v2.3.3.18.73 -->
    <defs>
     <path d="M 40.578125 39.3125 
Q 47.65625 37.796875 51.625 33 
Q 55.609375 28.21875 55.609375 21.1875 
Q 55.609375 10.40625 48.1875 4.484375 
Q 40.765625 -1.421875 27.09375 -1.421875 
Q 22.515625 -1.421875 17.65625 -0.515625 
Q 12.796875 0.390625 7.625 2.203125 
L 7.625 11.71875 
Q 11.71875 9.328125 16.59375 8.109375 
Q 21.484375 6.890625 26.8125 6.890625 
Q 36.078125 6.890625 40.9375 10.546875 
Q 45.796875 14.203125 45.796875 21.1875 
Q 45.796875 27.640625 41.28125 31.265625 
Q 36.765625 34.90625 28.71875 34.90625 
L 20.21875 34.90625 
L 20.21875 43.015625 
L 29.109375 43.015625 
Q 36.375 43.015625 40.234375 45.921875 
Q 44.09375 48.828125 44.09375 54.296875 
Q 44.09375 59.90625 40.109375 62.90625 
Q 36.140625 65.921875 28.71875 65.921875 
Q 24.65625 65.921875 20.015625 65.03125 
Q 15.375 64.15625 9.8125 62.3125 
L 9.8125 71.09375 
Q 15.4375 72.65625 20.34375 73.4375 
Q 25.25 74.21875 29.59375 74.21875 
Q 40.828125 74.21875 47.359375 69.109375 
Q 53.90625 64.015625 53.90625 55.328125 
Q 53.90625 49.265625 50.4375 45.09375 
Q 46.96875 40.921875 40.578125 39.3125 
z
" id="DejaVuSans-51"/>
    </defs>
    <g style="fill:#808080;" transform="translate(166.559625 294.151352)scale(0.1 -0.1)">
     <use xlink:href="#DejaVuSans-118"/>
     <use x="59.179688" xlink:href="#DejaVuSans-50"/>
     <use x="122.802734" xlink:href="#DejaVuSans-46"/>
     <use x="154.589844" xlink:href="#DejaVuSans-51"/>
     <use x="218.212891" xlink:href="#DejaVuSans-46"/>
     <use x="250" xlink:href="#DejaVuSans-51"/>
     <use x="313.623047" xlink:href="#DejaVuSans-46"/>
     <use x="345.410156" xlink:href="#DejaVuSans-49"/>
     <use x="409.033203" xlink:href="#DejaVuSans-56"/>
     <use x="472.65625" xlink:href="#DejaVuSans-46"/>
     <use x="504.443359" xlink:href="#DejaVuSans-55"/>
     <use x="568.066406" xlink:href="#DejaVuSans-51"/>
    </g>
   </g>
   <g id="text_21">
    <!-- 19 Griewank-Rosenbrock F8F2 -->
    <defs>
     <path d="M 59.515625 10.40625 
L 59.515625 29.984375 
L 43.40625 29.984375 
L 43.40625 38.09375 
L 69.28125 38.09375 
L 69.28125 6.78125 
Q 63.578125 2.734375 56.6875 0.65625 
Q 49.8125 -1.421875 42 -1.421875 
Q 24.90625 -1.421875 15.25 8.5625 
Q 5.609375 18.5625 5.609375 36.375 
Q 5.609375 54.25 15.25 64.234375 
Q 24.90625 74.21875 42 74.21875 
Q 49.125 74.21875 55.546875 72.453125 
Q 61.96875 70.703125 67.390625 67.28125 
L 67.390625 56.78125 
Q 61.921875 61.421875 55.765625 63.765625 
Q 49.609375 66.109375 42.828125 66.109375 
Q 29.4375 66.109375 22.71875 58.640625 
Q 16.015625 51.171875 16.015625 36.375 
Q 16.015625 21.625 22.71875 14.15625 
Q 29.4375 6.6875 42.828125 6.6875 
Q 48.046875 6.6875 52.140625 7.59375 
Q 56.25 8.5 59.515625 10.40625 
z
" id="DejaVuSans-71"/>
     <path d="M 4.203125 54.6875 
L 13.1875 54.6875 
L 24.421875 12.015625 
L 35.59375 54.6875 
L 46.1875 54.6875 
L 57.421875 12.015625 
L 68.609375 54.6875 
L 77.59375 54.6875 
L 63.28125 0 
L 52.6875 0 
L 40.921875 44.828125 
L 29.109375 0 
L 18.5 0 
z
" id="DejaVuSans-119"/>
     <path d="M 9.078125 75.984375 
L 18.109375 75.984375 
L 18.109375 31.109375 
L 44.921875 54.6875 
L 56.390625 54.6875 
L 27.390625 29.109375 
L 57.625 0 
L 45.90625 0 
L 18.109375 26.703125 
L 18.109375 0 
L 9.078125 0 
z
" id="DejaVuSans-107"/>
     <path d="M 44.390625 34.1875 
Q 47.5625 33.109375 50.5625 29.59375 
Q 53.5625 26.078125 56.59375 19.921875 
L 66.609375 0 
L 56 0 
L 46.6875 18.703125 
Q 43.0625 26.03125 39.671875 28.421875 
Q 36.28125 30.8125 30.421875 30.8125 
L 19.671875 30.8125 
L 19.671875 0 
L 9.8125 0 
L 9.8125 72.90625 
L 32.078125 72.90625 
Q 44.578125 72.90625 50.734375 67.671875 
Q 56.890625 62.453125 56.890625 51.90625 
Q 56.890625 45.015625 53.6875 40.46875 
Q 50.484375 35.9375 44.390625 34.1875 
z
M 19.671875 64.796875 
L 19.671875 38.921875 
L 32.078125 38.921875 
Q 39.203125 38.921875 42.84375 42.21875 
Q 46.484375 45.515625 46.484375 51.90625 
Q 46.484375 58.296875 42.84375 61.546875 
Q 39.203125 64.796875 32.078125 64.796875 
z
" id="DejaVuSans-82"/>
    </defs>
    <g transform="translate(45.376812 21.648)scale(0.2 -0.2)">
     <use xlink:href="#DejaVuSans-49"/>
     <use x="63.623047" xlink:href="#DejaVuSans-57"/>
     <use x="127.246094" xlink:href="#DejaVuSans-32"/>
     <use x="159.033203" xlink:href="#DejaVuSans-71"/>
     <use x="236.523438" xlink:href="#DejaVuSans-114"/>
     <use x="277.636719" xlink:href="#DejaVuSans-105"/>
     <use x="305.419922" xlink:href="#DejaVuSans-101"/>
     <use x="366.943359" xlink:href="#DejaVuSans-119"/>
     <use x="448.730469" xlink:href="#DejaVuSans-97"/>
     <use x="510.009766" xlink:href="#DejaVuSans-110"/>
     <use x="573.388672" xlink:href="#DejaVuSans-107"/>
     <use x="631.298828" xlink:href="#DejaVuSans-45"/>
     <use x="667.382812" xlink:href="#DejaVuSans-82"/>
     <use x="736.802734" xlink:href="#DejaVuSans-111"/>
     <use x="797.984375" xlink:href="#DejaVuSans-115"/>
     <use x="850.083984" xlink:href="#DejaVuSans-101"/>
     <use x="911.607422" xlink:href="#DejaVuSans-110"/>
     <use x="974.986328" xlink:href="#DejaVuSans-98"/>
     <use x="1038.462891" xlink:href="#DejaVuSans-114"/>
     <use x="1079.544922" xlink:href="#DejaVuSans-111"/>
     <use x="1140.726562" xlink:href="#DejaVuSans-99"/>
     <use x="1195.707031" xlink:href="#DejaVuSans-107"/>
     <use x="1253.617188" xlink:href="#DejaVuSans-32"/>
     <use x="1285.404297" xlink:href="#DejaVuSans-70"/>
     <use x="1342.923828" xlink:href="#DejaVuSans-56"/>
     <use x="1406.546875" xlink:href="#DejaVuSans-70"/>
     <use x="1464.066406" xlink:href="#DejaVuSans-50"/>
    </g>
   </g>
  </g>
 </g>
 <defs>
  <clipPath id="pb4473b4068">
   <rect height="271.296" width="281.088" x="57.6" y="27.648"/>
  </clipPath>
 </defs>
</svg>
