<?xml version="1.0" encoding="utf-8" standalone="no"?>
<!DOCTYPE svg PUBLIC "-//W3C//DTD SVG 1.1//EN"
  "http://www.w3.org/Graphics/SVG/1.1/DTD/svg11.dtd">
<!-- Created with matplotlib (https://matplotlib.org/) -->
<svg height="345.6pt" version="1.1" viewBox="0 0 460.8 345.6" width="460.8pt" xmlns="http://www.w3.org/2000/svg" xmlns:xlink="http://www.w3.org/1999/xlink">
 <defs>
  <style type="text/css">
*{stroke-linecap:butt;stroke-linejoin:round;}
  </style>
 </defs>
 <g id="figure_1">
  <g id="patch_1">
   <path d="M 0 345.6 
L 460.8 345.6 
L 460.8 0 
L 0 0 
z
" style="fill:#ffffff;"/>
  </g>
  <g id="axes_1">
   <g id="patch_2">
    <path d="M 57.6 298.944 
L 338.688 298.944 
L 338.688 27.648 
L 57.6 27.648 
z
" style="fill:#ffffff;"/>
   </g>
   <g id="line2d_1">
    <path d="M 72.125336 298.944 
L 72.125336 293.677139 
L 111.266113 293.677139 
L 111.266113 288.410278 
L 113.311233 288.410278 
L 113.311233 283.143418 
L 114.0117 283.143418 
L 114.0117 277.876557 
L 114.284194 277.876557 
L 114.284194 272.609696 
L 114.816733 272.609696 
L 114.816733 267.342835 
L 119.097192 267.342835 
L 119.097192 262.075974 
L 123.553867 262.075974 
L 123.553867 256.809114 
L 131.056477 256.809114 
L 131.056477 251.542253 
L 133.953874 251.542253 
L 133.953874 246.275392 
L 138.611599 246.275392 
L 138.611599 241.008531 
L 143.388196 241.008531 
L 143.388196 235.74167 
L 146.854132 235.74167 
L 146.854132 230.47481 
L 149.232356 230.47481 
L 149.232356 225.207949 
L 153.932113 225.207949 
L 153.932113 219.941088 
L 154.587699 219.941088 
L 154.587699 214.674227 
L 155.089774 214.674227 
L 155.089774 209.407366 
L 155.463441 209.407366 
L 155.463441 204.140506 
L 155.879132 204.140506 
L 155.879132 198.873645 
L 156.49067 198.873645 
L 156.49067 193.606784 
L 156.800392 193.606784 
L 156.800392 188.339923 
L 157.289376 188.339923 
L 157.289376 183.073062 
L 157.837488 183.073062 
L 157.837488 177.806202 
L 158.129851 177.806202 
L 158.129851 172.539341 
L 158.455018 172.539341 
L 158.455018 167.27248 
L 158.931675 167.27248 
L 158.931675 162.005619 
L 159.375289 162.005619 
L 159.375289 156.738758 
L 159.902044 156.738758 
L 159.902044 151.471897 
L 160.292966 151.471897 
L 160.292966 146.205037 
L 160.623238 146.205037 
L 160.623238 140.938176 
L 160.938061 140.938176 
L 160.938061 135.671315 
L 161.379469 135.671315 
L 161.379469 130.404454 
L 161.636364 130.404454 
L 161.636364 125.137593 
L 161.893939 125.137593 
L 161.893939 119.870733 
L 162.238764 119.870733 
L 162.238764 114.603872 
L 162.483394 114.603872 
L 162.483394 109.337011 
L 162.737246 109.337011 
L 162.737246 104.07015 
L 163.180975 104.07015 
L 163.180975 98.803289 
L 163.372371 98.803289 
L 163.372371 93.536429 
L 163.653591 93.536429 
L 163.653591 88.269568 
L 163.930348 88.269568 
L 163.930348 83.002707 
L 164.272154 83.002707 
L 164.272154 77.735846 
L 164.565835 77.735846 
L 164.565835 72.468985 
L 164.832318 72.468985 
L 164.832318 67.202125 
L 165.061737 67.202125 
L 165.061737 61.935264 
L 165.421922 61.935264 
L 165.421922 56.668403 
L 165.686375 56.668403 
L 165.686375 51.401542 
L 165.88387 51.401542 
L 165.88387 46.134681 
L 166.099947 46.134681 
L 166.099947 40.867821 
L 166.354389 40.867821 
L 166.354389 35.60096 
L 166.638786 35.60096 
L 166.638786 30.334099 
L 338.688 30.334099 
" style="fill:none;stroke:#f5deb3;stroke-linecap:square;stroke-width:4;"/>
   </g>
   <g id="line2d_2">
    <defs>
     <path d="M -0 7.778175 
L 7.778175 0 
L 0 -7.778175 
L -7.778175 -0 
z
" id="md2f61ebbed" style="stroke:#f5deb3;stroke-linejoin:miter;stroke-width:1.5;"/>
    </defs>
    <g>
     <use style="fill:#f5deb3;stroke:#f5deb3;stroke-linejoin:miter;stroke-width:1.5;" x="154.587699" xlink:href="#md2f61ebbed" y="219.941088"/>
     <use style="fill:#f5deb3;stroke:#f5deb3;stroke-linejoin:miter;stroke-width:1.5;" x="165.88387" xlink:href="#md2f61ebbed" y="51.401542"/>
     <use style="fill:#f5deb3;stroke:#f5deb3;stroke-linejoin:miter;stroke-width:1.5;" x="166.638786" xlink:href="#md2f61ebbed" y="30.334099"/>
     <use style="fill:#f5deb3;stroke:#f5deb3;stroke-linejoin:miter;stroke-width:1.5;" x="166.638786" xlink:href="#md2f61ebbed" y="30.334099"/>
     <use style="fill:#f5deb3;stroke:#f5deb3;stroke-linejoin:miter;stroke-width:1.5;" x="338.688" xlink:href="#md2f61ebbed" y="30.334099"/>
    </g>
   </g>
   <g id="line2d_3">
    <path style="fill:none;stroke:#f5deb3;stroke-linecap:square;stroke-width:4;"/>
    <g/>
   </g>
   <g id="line2d_4">
    <path d="M 338.688 30.334099 
L 369.60768 241.998701 
" style="fill:none;stroke:#f5deb3;stroke-linecap:square;stroke-width:4;"/>
    <g>
     <use style="fill:#f5deb3;stroke:#f5deb3;stroke-linejoin:miter;stroke-width:1.5;" x="338.688" xlink:href="#md2f61ebbed" y="30.334099"/>
     <use style="fill:#f5deb3;stroke:#f5deb3;stroke-linejoin:miter;stroke-width:1.5;" x="369.60768" xlink:href="#md2f61ebbed" y="241.998701"/>
    </g>
   </g>
   <g id="matplotlib.axis_1">
    <g id="xtick_1">
     <g id="line2d_5">
      <path clip-path="url(#p611d268a2f)" d="M 57.6 298.944 
L 57.6 27.648 
" style="fill:none;stroke:#b0b0b0;stroke-linecap:square;stroke-width:0.8;"/>
     </g>
     <g id="line2d_6">
      <defs>
       <path d="M 0 0 
L 0 3.5 
" id="m383b7adb58" style="stroke:#000000;stroke-width:0.8;"/>
      </defs>
      <g>
       <use style="stroke:#000000;stroke-width:0.8;" x="57.6" xlink:href="#m383b7adb58" y="298.944"/>
      </g>
     </g>
     <g id="text_1">
      <!-- 0 -->
      <defs>
       <path d="M 31.78125 66.40625 
Q 24.171875 66.40625 20.328125 58.90625 
Q 16.5 51.421875 16.5 36.375 
Q 16.5 21.390625 20.328125 13.890625 
Q 24.171875 6.390625 31.78125 6.390625 
Q 39.453125 6.390625 43.28125 13.890625 
Q 47.125 21.390625 47.125 36.375 
Q 47.125 51.421875 43.28125 58.90625 
Q 39.453125 66.40625 31.78125 66.40625 
z
M 31.78125 74.21875 
Q 44.046875 74.21875 50.515625 64.515625 
Q 56.984375 54.828125 56.984375 36.375 
Q 56.984375 17.96875 50.515625 8.265625 
Q 44.046875 -1.421875 31.78125 -1.421875 
Q 19.53125 -1.421875 13.0625 8.265625 
Q 6.59375 17.96875 6.59375 36.375 
Q 6.59375 54.828125 13.0625 64.515625 
Q 19.53125 74.21875 31.78125 74.21875 
z
" id="DejaVuSans-48"/>
      </defs>
      <g transform="translate(51.2375 321.140875)scale(0.2 -0.2)">
       <use xlink:href="#DejaVuSans-48"/>
      </g>
     </g>
    </g>
    <g id="xtick_2">
     <g id="line2d_7">
      <path clip-path="url(#p611d268a2f)" d="M 137.910857 298.944 
L 137.910857 27.648 
" style="fill:none;stroke:#b0b0b0;stroke-linecap:square;stroke-width:0.8;"/>
     </g>
     <g id="line2d_8">
      <g>
       <use style="stroke:#000000;stroke-width:0.8;" x="137.910857" xlink:href="#m383b7adb58" y="298.944"/>
      </g>
     </g>
     <g id="text_2">
      <!-- 2 -->
      <defs>
       <path d="M 19.1875 8.296875 
L 53.609375 8.296875 
L 53.609375 0 
L 7.328125 0 
L 7.328125 8.296875 
Q 12.9375 14.109375 22.625 23.890625 
Q 32.328125 33.6875 34.8125 36.53125 
Q 39.546875 41.84375 41.421875 45.53125 
Q 43.3125 49.21875 43.3125 52.78125 
Q 43.3125 58.59375 39.234375 62.25 
Q 35.15625 65.921875 28.609375 65.921875 
Q 23.96875 65.921875 18.8125 64.3125 
Q 13.671875 62.703125 7.8125 59.421875 
L 7.8125 69.390625 
Q 13.765625 71.78125 18.9375 73 
Q 24.125 74.21875 28.421875 74.21875 
Q 39.75 74.21875 46.484375 68.546875 
Q 53.21875 62.890625 53.21875 53.421875 
Q 53.21875 48.921875 51.53125 44.890625 
Q 49.859375 40.875 45.40625 35.40625 
Q 44.1875 33.984375 37.640625 27.21875 
Q 31.109375 20.453125 19.1875 8.296875 
z
" id="DejaVuSans-50"/>
      </defs>
      <g transform="translate(131.548357 321.140875)scale(0.2 -0.2)">
       <use xlink:href="#DejaVuSans-50"/>
      </g>
     </g>
    </g>
    <g id="xtick_3">
     <g id="line2d_9">
      <path clip-path="url(#p611d268a2f)" d="M 218.221714 298.944 
L 218.221714 27.648 
" style="fill:none;stroke:#b0b0b0;stroke-linecap:square;stroke-width:0.8;"/>
     </g>
     <g id="line2d_10">
      <g>
       <use style="stroke:#000000;stroke-width:0.8;" x="218.221714" xlink:href="#m383b7adb58" y="298.944"/>
      </g>
     </g>
     <g id="text_3">
      <!-- 4 -->
      <defs>
       <path d="M 37.796875 64.3125 
L 12.890625 25.390625 
L 37.796875 25.390625 
z
M 35.203125 72.90625 
L 47.609375 72.90625 
L 47.609375 25.390625 
L 58.015625 25.390625 
L 58.015625 17.1875 
L 47.609375 17.1875 
L 47.609375 0 
L 37.796875 0 
L 37.796875 17.1875 
L 4.890625 17.1875 
L 4.890625 26.703125 
z
" id="DejaVuSans-52"/>
      </defs>
      <g transform="translate(211.859214 321.140875)scale(0.2 -0.2)">
       <use xlink:href="#DejaVuSans-52"/>
      </g>
     </g>
    </g>
    <g id="xtick_4">
     <g id="line2d_11">
      <path clip-path="url(#p611d268a2f)" d="M 298.532571 298.944 
L 298.532571 27.648 
" style="fill:none;stroke:#b0b0b0;stroke-linecap:square;stroke-width:0.8;"/>
     </g>
     <g id="line2d_12">
      <g>
       <use style="stroke:#000000;stroke-width:0.8;" x="298.532571" xlink:href="#m383b7adb58" y="298.944"/>
      </g>
     </g>
     <g id="text_4">
      <!-- 6 -->
      <defs>
       <path d="M 33.015625 40.375 
Q 26.375 40.375 22.484375 35.828125 
Q 18.609375 31.296875 18.609375 23.390625 
Q 18.609375 15.53125 22.484375 10.953125 
Q 26.375 6.390625 33.015625 6.390625 
Q 39.65625 6.390625 43.53125 10.953125 
Q 47.40625 15.53125 47.40625 23.390625 
Q 47.40625 31.296875 43.53125 35.828125 
Q 39.65625 40.375 33.015625 40.375 
z
M 52.59375 71.296875 
L 52.59375 62.3125 
Q 48.875 64.0625 45.09375 64.984375 
Q 41.3125 65.921875 37.59375 65.921875 
Q 27.828125 65.921875 22.671875 59.328125 
Q 17.53125 52.734375 16.796875 39.40625 
Q 19.671875 43.65625 24.015625 45.921875 
Q 28.375 48.1875 33.59375 48.1875 
Q 44.578125 48.1875 50.953125 41.515625 
Q 57.328125 34.859375 57.328125 23.390625 
Q 57.328125 12.15625 50.6875 5.359375 
Q 44.046875 -1.421875 33.015625 -1.421875 
Q 20.359375 -1.421875 13.671875 8.265625 
Q 6.984375 17.96875 6.984375 36.375 
Q 6.984375 53.65625 15.1875 63.9375 
Q 23.390625 74.21875 37.203125 74.21875 
Q 40.921875 74.21875 44.703125 73.484375 
Q 48.484375 72.75 52.59375 71.296875 
z
" id="DejaVuSans-54"/>
      </defs>
      <g transform="translate(292.170071 321.140875)scale(0.2 -0.2)">
       <use xlink:href="#DejaVuSans-54"/>
      </g>
     </g>
    </g>
    <g id="xtick_5">
     <g id="line2d_13">
      <path clip-path="url(#p611d268a2f)" d="M 97.755429 298.944 
L 97.755429 27.648 
" style="fill:none;stroke:#b0b0b0;stroke-linecap:square;stroke-width:0.8;"/>
     </g>
     <g id="line2d_14">
      <defs>
       <path d="M 0 0 
L 0 2 
" id="m48eb67b43b" style="stroke:#000000;stroke-width:0.6;"/>
      </defs>
      <g>
       <use style="stroke:#000000;stroke-width:0.6;" x="97.755429" xlink:href="#m48eb67b43b" y="298.944"/>
      </g>
     </g>
    </g>
    <g id="xtick_6">
     <g id="line2d_15">
      <path clip-path="url(#p611d268a2f)" d="M 178.066286 298.944 
L 178.066286 27.648 
" style="fill:none;stroke:#b0b0b0;stroke-linecap:square;stroke-width:0.8;"/>
     </g>
     <g id="line2d_16">
      <g>
       <use style="stroke:#000000;stroke-width:0.6;" x="178.066286" xlink:href="#m48eb67b43b" y="298.944"/>
      </g>
     </g>
    </g>
    <g id="xtick_7">
     <g id="line2d_17">
      <path clip-path="url(#p611d268a2f)" d="M 258.377143 298.944 
L 258.377143 27.648 
" style="fill:none;stroke:#b0b0b0;stroke-linecap:square;stroke-width:0.8;"/>
     </g>
     <g id="line2d_18">
      <g>
       <use style="stroke:#000000;stroke-width:0.6;" x="258.377143" xlink:href="#m48eb67b43b" y="298.944"/>
      </g>
     </g>
    </g>
    <g id="xtick_8">
     <g id="line2d_19">
      <path clip-path="url(#p611d268a2f)" d="M 338.688 298.944 
L 338.688 27.648 
" style="fill:none;stroke:#b0b0b0;stroke-linecap:square;stroke-width:0.8;"/>
     </g>
     <g id="line2d_20">
      <g>
       <use style="stroke:#000000;stroke-width:0.6;" x="338.688" xlink:href="#m48eb67b43b" y="298.944"/>
      </g>
     </g>
    </g>
    <g id="text_5">
     <!-- log10(# f-evals / dimension) -->
     <defs>
      <path d="M 9.421875 75.984375 
L 18.40625 75.984375 
L 18.40625 0 
L 9.421875 0 
z
" id="DejaVuSans-108"/>
      <path d="M 30.609375 48.390625 
Q 23.390625 48.390625 19.1875 42.75 
Q 14.984375 37.109375 14.984375 27.296875 
Q 14.984375 17.484375 19.15625 11.84375 
Q 23.34375 6.203125 30.609375 6.203125 
Q 37.796875 6.203125 41.984375 11.859375 
Q 46.1875 17.53125 46.1875 27.296875 
Q 46.1875 37.015625 41.984375 42.703125 
Q 37.796875 48.390625 30.609375 48.390625 
z
M 30.609375 56 
Q 42.328125 56 49.015625 48.375 
Q 55.71875 40.765625 55.71875 27.296875 
Q 55.71875 13.875 49.015625 6.21875 
Q 42.328125 -1.421875 30.609375 -1.421875 
Q 18.84375 -1.421875 12.171875 6.21875 
Q 5.515625 13.875 5.515625 27.296875 
Q 5.515625 40.765625 12.171875 48.375 
Q 18.84375 56 30.609375 56 
z
" id="DejaVuSans-111"/>
      <path d="M 45.40625 27.984375 
Q 45.40625 37.75 41.375 43.109375 
Q 37.359375 48.484375 30.078125 48.484375 
Q 22.859375 48.484375 18.828125 43.109375 
Q 14.796875 37.75 14.796875 27.984375 
Q 14.796875 18.265625 18.828125 12.890625 
Q 22.859375 7.515625 30.078125 7.515625 
Q 37.359375 7.515625 41.375 12.890625 
Q 45.40625 18.265625 45.40625 27.984375 
z
M 54.390625 6.78125 
Q 54.390625 -7.171875 48.1875 -13.984375 
Q 42 -20.796875 29.203125 -20.796875 
Q 24.46875 -20.796875 20.265625 -20.09375 
Q 16.0625 -19.390625 12.109375 -17.921875 
L 12.109375 -9.1875 
Q 16.0625 -11.328125 19.921875 -12.34375 
Q 23.78125 -13.375 27.78125 -13.375 
Q 36.625 -13.375 41.015625 -8.765625 
Q 45.40625 -4.15625 45.40625 5.171875 
L 45.40625 9.625 
Q 42.625 4.78125 38.28125 2.390625 
Q 33.9375 0 27.875 0 
Q 17.828125 0 11.671875 7.65625 
Q 5.515625 15.328125 5.515625 27.984375 
Q 5.515625 40.671875 11.671875 48.328125 
Q 17.828125 56 27.875 56 
Q 33.9375 56 38.28125 53.609375 
Q 42.625 51.21875 45.40625 46.390625 
L 45.40625 54.6875 
L 54.390625 54.6875 
z
" id="DejaVuSans-103"/>
      <path d="M 12.40625 8.296875 
L 28.515625 8.296875 
L 28.515625 63.921875 
L 10.984375 60.40625 
L 10.984375 69.390625 
L 28.421875 72.90625 
L 38.28125 72.90625 
L 38.28125 8.296875 
L 54.390625 8.296875 
L 54.390625 0 
L 12.40625 0 
z
" id="DejaVuSans-49"/>
      <path d="M 31 75.875 
Q 24.46875 64.65625 21.28125 53.65625 
Q 18.109375 42.671875 18.109375 31.390625 
Q 18.109375 20.125 21.3125 9.0625 
Q 24.515625 -2 31 -13.1875 
L 23.1875 -13.1875 
Q 15.875 -1.703125 12.234375 9.375 
Q 8.59375 20.453125 8.59375 31.390625 
Q 8.59375 42.28125 12.203125 53.3125 
Q 15.828125 64.359375 23.1875 75.875 
z
" id="DejaVuSans-40"/>
      <path d="M 51.125 44 
L 36.921875 44 
L 32.8125 27.6875 
L 47.125 27.6875 
z
M 43.796875 71.78125 
L 38.71875 51.515625 
L 52.984375 51.515625 
L 58.109375 71.78125 
L 65.921875 71.78125 
L 60.890625 51.515625 
L 76.125 51.515625 
L 76.125 44 
L 58.984375 44 
L 54.984375 27.6875 
L 70.515625 27.6875 
L 70.515625 20.21875 
L 53.078125 20.21875 
L 48 0 
L 40.1875 0 
L 45.21875 20.21875 
L 30.90625 20.21875 
L 25.875 0 
L 18.015625 0 
L 23.09375 20.21875 
L 7.71875 20.21875 
L 7.71875 27.6875 
L 24.90625 27.6875 
L 29 44 
L 13.28125 44 
L 13.28125 51.515625 
L 30.90625 51.515625 
L 35.890625 71.78125 
z
" id="DejaVuSans-35"/>
      <path id="DejaVuSans-32"/>
      <path d="M 37.109375 75.984375 
L 37.109375 68.5 
L 28.515625 68.5 
Q 23.6875 68.5 21.796875 66.546875 
Q 19.921875 64.59375 19.921875 59.515625 
L 19.921875 54.6875 
L 34.71875 54.6875 
L 34.71875 47.703125 
L 19.921875 47.703125 
L 19.921875 0 
L 10.890625 0 
L 10.890625 47.703125 
L 2.296875 47.703125 
L 2.296875 54.6875 
L 10.890625 54.6875 
L 10.890625 58.5 
Q 10.890625 67.625 15.140625 71.796875 
Q 19.390625 75.984375 28.609375 75.984375 
z
" id="DejaVuSans-102"/>
      <path d="M 4.890625 31.390625 
L 31.203125 31.390625 
L 31.203125 23.390625 
L 4.890625 23.390625 
z
" id="DejaVuSans-45"/>
      <path d="M 56.203125 29.59375 
L 56.203125 25.203125 
L 14.890625 25.203125 
Q 15.484375 15.921875 20.484375 11.0625 
Q 25.484375 6.203125 34.421875 6.203125 
Q 39.59375 6.203125 44.453125 7.46875 
Q 49.3125 8.734375 54.109375 11.28125 
L 54.109375 2.78125 
Q 49.265625 0.734375 44.1875 -0.34375 
Q 39.109375 -1.421875 33.890625 -1.421875 
Q 20.796875 -1.421875 13.15625 6.1875 
Q 5.515625 13.8125 5.515625 26.8125 
Q 5.515625 40.234375 12.765625 48.109375 
Q 20.015625 56 32.328125 56 
Q 43.359375 56 49.78125 48.890625 
Q 56.203125 41.796875 56.203125 29.59375 
z
M 47.21875 32.234375 
Q 47.125 39.59375 43.09375 43.984375 
Q 39.0625 48.390625 32.421875 48.390625 
Q 24.90625 48.390625 20.390625 44.140625 
Q 15.875 39.890625 15.1875 32.171875 
z
" id="DejaVuSans-101"/>
      <path d="M 2.984375 54.6875 
L 12.5 54.6875 
L 29.59375 8.796875 
L 46.6875 54.6875 
L 56.203125 54.6875 
L 35.6875 0 
L 23.484375 0 
z
" id="DejaVuSans-118"/>
      <path d="M 34.28125 27.484375 
Q 23.390625 27.484375 19.1875 25 
Q 14.984375 22.515625 14.984375 16.5 
Q 14.984375 11.71875 18.140625 8.90625 
Q 21.296875 6.109375 26.703125 6.109375 
Q 34.1875 6.109375 38.703125 11.40625 
Q 43.21875 16.703125 43.21875 25.484375 
L 43.21875 27.484375 
z
M 52.203125 31.203125 
L 52.203125 0 
L 43.21875 0 
L 43.21875 8.296875 
Q 40.140625 3.328125 35.546875 0.953125 
Q 30.953125 -1.421875 24.3125 -1.421875 
Q 15.921875 -1.421875 10.953125 3.296875 
Q 6 8.015625 6 15.921875 
Q 6 25.140625 12.171875 29.828125 
Q 18.359375 34.515625 30.609375 34.515625 
L 43.21875 34.515625 
L 43.21875 35.40625 
Q 43.21875 41.609375 39.140625 45 
Q 35.0625 48.390625 27.6875 48.390625 
Q 23 48.390625 18.546875 47.265625 
Q 14.109375 46.140625 10.015625 43.890625 
L 10.015625 52.203125 
Q 14.9375 54.109375 19.578125 55.046875 
Q 24.21875 56 28.609375 56 
Q 40.484375 56 46.34375 49.84375 
Q 52.203125 43.703125 52.203125 31.203125 
z
" id="DejaVuSans-97"/>
      <path d="M 44.28125 53.078125 
L 44.28125 44.578125 
Q 40.484375 46.53125 36.375 47.5 
Q 32.28125 48.484375 27.875 48.484375 
Q 21.1875 48.484375 17.84375 46.4375 
Q 14.5 44.390625 14.5 40.28125 
Q 14.5 37.15625 16.890625 35.375 
Q 19.28125 33.59375 26.515625 31.984375 
L 29.59375 31.296875 
Q 39.15625 29.25 43.1875 25.515625 
Q 47.21875 21.78125 47.21875 15.09375 
Q 47.21875 7.46875 41.1875 3.015625 
Q 35.15625 -1.421875 24.609375 -1.421875 
Q 20.21875 -1.421875 15.453125 -0.5625 
Q 10.6875 0.296875 5.421875 2 
L 5.421875 11.28125 
Q 10.40625 8.6875 15.234375 7.390625 
Q 20.0625 6.109375 24.8125 6.109375 
Q 31.15625 6.109375 34.5625 8.28125 
Q 37.984375 10.453125 37.984375 14.40625 
Q 37.984375 18.0625 35.515625 20.015625 
Q 33.0625 21.96875 24.703125 23.78125 
L 21.578125 24.515625 
Q 13.234375 26.265625 9.515625 29.90625 
Q 5.8125 33.546875 5.8125 39.890625 
Q 5.8125 47.609375 11.28125 51.796875 
Q 16.75 56 26.8125 56 
Q 31.78125 56 36.171875 55.265625 
Q 40.578125 54.546875 44.28125 53.078125 
z
" id="DejaVuSans-115"/>
      <path d="M 25.390625 72.90625 
L 33.6875 72.90625 
L 8.296875 -9.28125 
L 0 -9.28125 
z
" id="DejaVuSans-47"/>
      <path d="M 45.40625 46.390625 
L 45.40625 75.984375 
L 54.390625 75.984375 
L 54.390625 0 
L 45.40625 0 
L 45.40625 8.203125 
Q 42.578125 3.328125 38.25 0.953125 
Q 33.9375 -1.421875 27.875 -1.421875 
Q 17.96875 -1.421875 11.734375 6.484375 
Q 5.515625 14.40625 5.515625 27.296875 
Q 5.515625 40.1875 11.734375 48.09375 
Q 17.96875 56 27.875 56 
Q 33.9375 56 38.25 53.625 
Q 42.578125 51.265625 45.40625 46.390625 
z
M 14.796875 27.296875 
Q 14.796875 17.390625 18.875 11.75 
Q 22.953125 6.109375 30.078125 6.109375 
Q 37.203125 6.109375 41.296875 11.75 
Q 45.40625 17.390625 45.40625 27.296875 
Q 45.40625 37.203125 41.296875 42.84375 
Q 37.203125 48.484375 30.078125 48.484375 
Q 22.953125 48.484375 18.875 42.84375 
Q 14.796875 37.203125 14.796875 27.296875 
z
" id="DejaVuSans-100"/>
      <path d="M 9.421875 54.6875 
L 18.40625 54.6875 
L 18.40625 0 
L 9.421875 0 
z
M 9.421875 75.984375 
L 18.40625 75.984375 
L 18.40625 64.59375 
L 9.421875 64.59375 
z
" id="DejaVuSans-105"/>
      <path d="M 52 44.1875 
Q 55.375 50.25 60.0625 53.125 
Q 64.75 56 71.09375 56 
Q 79.640625 56 84.28125 50.015625 
Q 88.921875 44.046875 88.921875 33.015625 
L 88.921875 0 
L 79.890625 0 
L 79.890625 32.71875 
Q 79.890625 40.578125 77.09375 44.375 
Q 74.3125 48.1875 68.609375 48.1875 
Q 61.625 48.1875 57.5625 43.546875 
Q 53.515625 38.921875 53.515625 30.90625 
L 53.515625 0 
L 44.484375 0 
L 44.484375 32.71875 
Q 44.484375 40.625 41.703125 44.40625 
Q 38.921875 48.1875 33.109375 48.1875 
Q 26.21875 48.1875 22.15625 43.53125 
Q 18.109375 38.875 18.109375 30.90625 
L 18.109375 0 
L 9.078125 0 
L 9.078125 54.6875 
L 18.109375 54.6875 
L 18.109375 46.1875 
Q 21.1875 51.21875 25.484375 53.609375 
Q 29.78125 56 35.6875 56 
Q 41.65625 56 45.828125 52.96875 
Q 50 49.953125 52 44.1875 
z
" id="DejaVuSans-109"/>
      <path d="M 54.890625 33.015625 
L 54.890625 0 
L 45.90625 0 
L 45.90625 32.71875 
Q 45.90625 40.484375 42.875 44.328125 
Q 39.84375 48.1875 33.796875 48.1875 
Q 26.515625 48.1875 22.3125 43.546875 
Q 18.109375 38.921875 18.109375 30.90625 
L 18.109375 0 
L 9.078125 0 
L 9.078125 54.6875 
L 18.109375 54.6875 
L 18.109375 46.1875 
Q 21.34375 51.125 25.703125 53.5625 
Q 30.078125 56 35.796875 56 
Q 45.21875 56 50.046875 50.171875 
Q 54.890625 44.34375 54.890625 33.015625 
z
" id="DejaVuSans-110"/>
      <path d="M 8.015625 75.875 
L 15.828125 75.875 
Q 23.140625 64.359375 26.78125 53.3125 
Q 30.421875 42.28125 30.421875 31.390625 
Q 30.421875 20.453125 26.78125 9.375 
Q 23.140625 -1.703125 15.828125 -13.1875 
L 8.015625 -13.1875 
Q 14.5 -2 17.703125 9.0625 
Q 20.90625 20.125 20.90625 31.390625 
Q 20.90625 42.671875 17.703125 53.65625 
Q 14.5 64.65625 8.015625 75.875 
z
" id="DejaVuSans-41"/>
     </defs>
     <g transform="translate(77.303219 342.217594)scale(0.17 -0.17)">
      <use xlink:href="#DejaVuSans-108"/>
      <use x="27.783203" xlink:href="#DejaVuSans-111"/>
      <use x="88.964844" xlink:href="#DejaVuSans-103"/>
      <use x="152.441406" xlink:href="#DejaVuSans-49"/>
      <use x="216.064453" xlink:href="#DejaVuSans-48"/>
      <use x="279.6875" xlink:href="#DejaVuSans-40"/>
      <use x="318.701172" xlink:href="#DejaVuSans-35"/>
      <use x="402.490234" xlink:href="#DejaVuSans-32"/>
      <use x="434.277344" xlink:href="#DejaVuSans-102"/>
      <use x="469.404297" xlink:href="#DejaVuSans-45"/>
      <use x="505.488281" xlink:href="#DejaVuSans-101"/>
      <use x="567.011719" xlink:href="#DejaVuSans-118"/>
      <use x="626.191406" xlink:href="#DejaVuSans-97"/>
      <use x="687.470703" xlink:href="#DejaVuSans-108"/>
      <use x="715.253906" xlink:href="#DejaVuSans-115"/>
      <use x="767.353516" xlink:href="#DejaVuSans-32"/>
      <use x="799.140625" xlink:href="#DejaVuSans-47"/>
      <use x="832.832031" xlink:href="#DejaVuSans-32"/>
      <use x="864.619141" xlink:href="#DejaVuSans-100"/>
      <use x="928.095703" xlink:href="#DejaVuSans-105"/>
      <use x="955.878906" xlink:href="#DejaVuSans-109"/>
      <use x="1053.291016" xlink:href="#DejaVuSans-101"/>
      <use x="1114.814453" xlink:href="#DejaVuSans-110"/>
      <use x="1178.193359" xlink:href="#DejaVuSans-115"/>
      <use x="1230.292969" xlink:href="#DejaVuSans-105"/>
      <use x="1258.076172" xlink:href="#DejaVuSans-111"/>
      <use x="1319.257812" xlink:href="#DejaVuSans-110"/>
      <use x="1382.636719" xlink:href="#DejaVuSans-41"/>
     </g>
    </g>
   </g>
   <g id="matplotlib.axis_2">
    <g id="ytick_1">
     <g id="line2d_21">
      <path clip-path="url(#p611d268a2f)" d="M 57.6 298.944 
L 338.688 298.944 
" style="fill:none;stroke:#b0b0b0;stroke-linecap:square;stroke-width:0.8;"/>
     </g>
     <g id="line2d_22">
      <defs>
       <path d="M 0 0 
L -3.5 0 
" id="m36ee75b9cf" style="stroke:#000000;stroke-width:0.8;"/>
      </defs>
      <g>
       <use style="stroke:#000000;stroke-width:0.8;" x="57.6" xlink:href="#m36ee75b9cf" y="298.944"/>
      </g>
     </g>
     <g id="text_6">
      <!-- 0.0 -->
      <defs>
       <path d="M 10.6875 12.40625 
L 21 12.40625 
L 21 0 
L 10.6875 0 
z
" id="DejaVuSans-46"/>
      </defs>
      <g transform="translate(25.155 305.02275)scale(0.16 -0.16)">
       <use xlink:href="#DejaVuSans-48"/>
       <use x="63.623047" xlink:href="#DejaVuSans-46"/>
       <use x="95.410156" xlink:href="#DejaVuSans-48"/>
      </g>
     </g>
    </g>
    <g id="ytick_2">
     <g id="line2d_23">
      <path clip-path="url(#p611d268a2f)" d="M 57.6 245.22202 
L 338.688 245.22202 
" style="fill:none;stroke:#b0b0b0;stroke-linecap:square;stroke-width:0.8;"/>
     </g>
     <g id="line2d_24">
      <g>
       <use style="stroke:#000000;stroke-width:0.8;" x="57.6" xlink:href="#m36ee75b9cf" y="245.22202"/>
      </g>
     </g>
     <g id="text_7">
      <!-- 0.2 -->
      <g transform="translate(25.155 251.30077)scale(0.16 -0.16)">
       <use xlink:href="#DejaVuSans-48"/>
       <use x="63.623047" xlink:href="#DejaVuSans-46"/>
       <use x="95.410156" xlink:href="#DejaVuSans-50"/>
      </g>
     </g>
    </g>
    <g id="ytick_3">
     <g id="line2d_25">
      <path clip-path="url(#p611d268a2f)" d="M 57.6 191.50004 
L 338.688 191.50004 
" style="fill:none;stroke:#b0b0b0;stroke-linecap:square;stroke-width:0.8;"/>
     </g>
     <g id="line2d_26">
      <g>
       <use style="stroke:#000000;stroke-width:0.8;" x="57.6" xlink:href="#m36ee75b9cf" y="191.50004"/>
      </g>
     </g>
     <g id="text_8">
      <!-- 0.4 -->
      <g transform="translate(25.155 197.57879)scale(0.16 -0.16)">
       <use xlink:href="#DejaVuSans-48"/>
       <use x="63.623047" xlink:href="#DejaVuSans-46"/>
       <use x="95.410156" xlink:href="#DejaVuSans-52"/>
      </g>
     </g>
    </g>
    <g id="ytick_4">
     <g id="line2d_27">
      <path clip-path="url(#p611d268a2f)" d="M 57.6 137.778059 
L 338.688 137.778059 
" style="fill:none;stroke:#b0b0b0;stroke-linecap:square;stroke-width:0.8;"/>
     </g>
     <g id="line2d_28">
      <g>
       <use style="stroke:#000000;stroke-width:0.8;" x="57.6" xlink:href="#m36ee75b9cf" y="137.778059"/>
      </g>
     </g>
     <g id="text_9">
      <!-- 0.6 -->
      <g transform="translate(25.155 143.856809)scale(0.16 -0.16)">
       <use xlink:href="#DejaVuSans-48"/>
       <use x="63.623047" xlink:href="#DejaVuSans-46"/>
       <use x="95.410156" xlink:href="#DejaVuSans-54"/>
      </g>
     </g>
    </g>
    <g id="ytick_5">
     <g id="line2d_29">
      <path clip-path="url(#p611d268a2f)" d="M 57.6 84.056079 
L 338.688 84.056079 
" style="fill:none;stroke:#b0b0b0;stroke-linecap:square;stroke-width:0.8;"/>
     </g>
     <g id="line2d_30">
      <g>
       <use style="stroke:#000000;stroke-width:0.8;" x="57.6" xlink:href="#m36ee75b9cf" y="84.056079"/>
      </g>
     </g>
     <g id="text_10">
      <!-- 0.8 -->
      <defs>
       <path d="M 31.78125 34.625 
Q 24.75 34.625 20.71875 30.859375 
Q 16.703125 27.09375 16.703125 20.515625 
Q 16.703125 13.921875 20.71875 10.15625 
Q 24.75 6.390625 31.78125 6.390625 
Q 38.8125 6.390625 42.859375 10.171875 
Q 46.921875 13.96875 46.921875 20.515625 
Q 46.921875 27.09375 42.890625 30.859375 
Q 38.875 34.625 31.78125 34.625 
z
M 21.921875 38.8125 
Q 15.578125 40.375 12.03125 44.71875 
Q 8.5 49.078125 8.5 55.328125 
Q 8.5 64.0625 14.71875 69.140625 
Q 20.953125 74.21875 31.78125 74.21875 
Q 42.671875 74.21875 48.875 69.140625 
Q 55.078125 64.0625 55.078125 55.328125 
Q 55.078125 49.078125 51.53125 44.71875 
Q 48 40.375 41.703125 38.8125 
Q 48.828125 37.15625 52.796875 32.3125 
Q 56.78125 27.484375 56.78125 20.515625 
Q 56.78125 9.90625 50.3125 4.234375 
Q 43.84375 -1.421875 31.78125 -1.421875 
Q 19.734375 -1.421875 13.25 4.234375 
Q 6.78125 9.90625 6.78125 20.515625 
Q 6.78125 27.484375 10.78125 32.3125 
Q 14.796875 37.15625 21.921875 38.8125 
z
M 18.3125 54.390625 
Q 18.3125 48.734375 21.84375 45.5625 
Q 25.390625 42.390625 31.78125 42.390625 
Q 38.140625 42.390625 41.71875 45.5625 
Q 45.3125 48.734375 45.3125 54.390625 
Q 45.3125 60.0625 41.71875 63.234375 
Q 38.140625 66.40625 31.78125 66.40625 
Q 25.390625 66.40625 21.84375 63.234375 
Q 18.3125 60.0625 18.3125 54.390625 
z
" id="DejaVuSans-56"/>
      </defs>
      <g transform="translate(25.155 90.134829)scale(0.16 -0.16)">
       <use xlink:href="#DejaVuSans-48"/>
       <use x="63.623047" xlink:href="#DejaVuSans-46"/>
       <use x="95.410156" xlink:href="#DejaVuSans-56"/>
      </g>
     </g>
    </g>
    <g id="ytick_6">
     <g id="line2d_31">
      <path clip-path="url(#p611d268a2f)" d="M 57.6 30.334099 
L 338.688 30.334099 
" style="fill:none;stroke:#b0b0b0;stroke-linecap:square;stroke-width:0.8;"/>
     </g>
     <g id="line2d_32">
      <g>
       <use style="stroke:#000000;stroke-width:0.8;" x="57.6" xlink:href="#m36ee75b9cf" y="30.334099"/>
      </g>
     </g>
     <g id="text_11">
      <!-- 1.0 -->
      <g transform="translate(25.155 36.412849)scale(0.16 -0.16)">
       <use xlink:href="#DejaVuSans-49"/>
       <use x="63.623047" xlink:href="#DejaVuSans-46"/>
       <use x="95.410156" xlink:href="#DejaVuSans-48"/>
      </g>
     </g>
    </g>
    <g id="text_12">
     <!-- Fraction of function,target pairs -->
     <defs>
      <path d="M 9.8125 72.90625 
L 51.703125 72.90625 
L 51.703125 64.59375 
L 19.671875 64.59375 
L 19.671875 43.109375 
L 48.578125 43.109375 
L 48.578125 34.8125 
L 19.671875 34.8125 
L 19.671875 0 
L 9.8125 0 
z
" id="DejaVuSans-70"/>
      <path d="M 41.109375 46.296875 
Q 39.59375 47.171875 37.8125 47.578125 
Q 36.03125 48 33.890625 48 
Q 26.265625 48 22.1875 43.046875 
Q 18.109375 38.09375 18.109375 28.8125 
L 18.109375 0 
L 9.078125 0 
L 9.078125 54.6875 
L 18.109375 54.6875 
L 18.109375 46.1875 
Q 20.953125 51.171875 25.484375 53.578125 
Q 30.03125 56 36.53125 56 
Q 37.453125 56 38.578125 55.875 
Q 39.703125 55.765625 41.0625 55.515625 
z
" id="DejaVuSans-114"/>
      <path d="M 48.78125 52.59375 
L 48.78125 44.1875 
Q 44.96875 46.296875 41.140625 47.34375 
Q 37.3125 48.390625 33.40625 48.390625 
Q 24.65625 48.390625 19.8125 42.84375 
Q 14.984375 37.3125 14.984375 27.296875 
Q 14.984375 17.28125 19.8125 11.734375 
Q 24.65625 6.203125 33.40625 6.203125 
Q 37.3125 6.203125 41.140625 7.25 
Q 44.96875 8.296875 48.78125 10.40625 
L 48.78125 2.09375 
Q 45.015625 0.34375 40.984375 -0.53125 
Q 36.96875 -1.421875 32.421875 -1.421875 
Q 20.0625 -1.421875 12.78125 6.34375 
Q 5.515625 14.109375 5.515625 27.296875 
Q 5.515625 40.671875 12.859375 48.328125 
Q 20.21875 56 33.015625 56 
Q 37.15625 56 41.109375 55.140625 
Q 45.0625 54.296875 48.78125 52.59375 
z
" id="DejaVuSans-99"/>
      <path d="M 18.3125 70.21875 
L 18.3125 54.6875 
L 36.8125 54.6875 
L 36.8125 47.703125 
L 18.3125 47.703125 
L 18.3125 18.015625 
Q 18.3125 11.328125 20.140625 9.421875 
Q 21.96875 7.515625 27.59375 7.515625 
L 36.8125 7.515625 
L 36.8125 0 
L 27.59375 0 
Q 17.1875 0 13.234375 3.875 
Q 9.28125 7.765625 9.28125 18.015625 
L 9.28125 47.703125 
L 2.6875 47.703125 
L 2.6875 54.6875 
L 9.28125 54.6875 
L 9.28125 70.21875 
z
" id="DejaVuSans-116"/>
      <path d="M 8.5 21.578125 
L 8.5 54.6875 
L 17.484375 54.6875 
L 17.484375 21.921875 
Q 17.484375 14.15625 20.5 10.265625 
Q 23.53125 6.390625 29.59375 6.390625 
Q 36.859375 6.390625 41.078125 11.03125 
Q 45.3125 15.671875 45.3125 23.6875 
L 45.3125 54.6875 
L 54.296875 54.6875 
L 54.296875 0 
L 45.3125 0 
L 45.3125 8.40625 
Q 42.046875 3.421875 37.71875 1 
Q 33.40625 -1.421875 27.6875 -1.421875 
Q 18.265625 -1.421875 13.375 4.4375 
Q 8.5 10.296875 8.5 21.578125 
z
M 31.109375 56 
z
" id="DejaVuSans-117"/>
      <path d="M 11.71875 12.40625 
L 22.015625 12.40625 
L 22.015625 4 
L 14.015625 -11.625 
L 7.71875 -11.625 
L 11.71875 4 
z
" id="DejaVuSans-44"/>
      <path d="M 18.109375 8.203125 
L 18.109375 -20.796875 
L 9.078125 -20.796875 
L 9.078125 54.6875 
L 18.109375 54.6875 
L 18.109375 46.390625 
Q 20.953125 51.265625 25.265625 53.625 
Q 29.59375 56 35.59375 56 
Q 45.5625 56 51.78125 48.09375 
Q 58.015625 40.1875 58.015625 27.296875 
Q 58.015625 14.40625 51.78125 6.484375 
Q 45.5625 -1.421875 35.59375 -1.421875 
Q 29.59375 -1.421875 25.265625 0.953125 
Q 20.953125 3.328125 18.109375 8.203125 
z
M 48.6875 27.296875 
Q 48.6875 37.203125 44.609375 42.84375 
Q 40.53125 48.484375 33.40625 48.484375 
Q 26.265625 48.484375 22.1875 42.84375 
Q 18.109375 37.203125 18.109375 27.296875 
Q 18.109375 17.390625 22.1875 11.75 
Q 26.265625 6.109375 33.40625 6.109375 
Q 40.53125 6.109375 44.609375 11.75 
Q 48.6875 17.390625 48.6875 27.296875 
z
" id="DejaVuSans-112"/>
     </defs>
     <g transform="translate(17.619531 298.435375)rotate(-90)scale(0.17 -0.17)">
      <use xlink:href="#DejaVuSans-70"/>
      <use x="57.410156" xlink:href="#DejaVuSans-114"/>
      <use x="98.523438" xlink:href="#DejaVuSans-97"/>
      <use x="159.802734" xlink:href="#DejaVuSans-99"/>
      <use x="214.783203" xlink:href="#DejaVuSans-116"/>
      <use x="253.992188" xlink:href="#DejaVuSans-105"/>
      <use x="281.775391" xlink:href="#DejaVuSans-111"/>
      <use x="342.957031" xlink:href="#DejaVuSans-110"/>
      <use x="406.335938" xlink:href="#DejaVuSans-32"/>
      <use x="438.123047" xlink:href="#DejaVuSans-111"/>
      <use x="499.304688" xlink:href="#DejaVuSans-102"/>
      <use x="534.509766" xlink:href="#DejaVuSans-32"/>
      <use x="566.296875" xlink:href="#DejaVuSans-102"/>
      <use x="601.501953" xlink:href="#DejaVuSans-117"/>
      <use x="664.880859" xlink:href="#DejaVuSans-110"/>
      <use x="728.259766" xlink:href="#DejaVuSans-99"/>
      <use x="783.240234" xlink:href="#DejaVuSans-116"/>
      <use x="822.449219" xlink:href="#DejaVuSans-105"/>
      <use x="850.232422" xlink:href="#DejaVuSans-111"/>
      <use x="911.414062" xlink:href="#DejaVuSans-110"/>
      <use x="974.792969" xlink:href="#DejaVuSans-44"/>
      <use x="1006.580078" xlink:href="#DejaVuSans-116"/>
      <use x="1045.789062" xlink:href="#DejaVuSans-97"/>
      <use x="1107.068359" xlink:href="#DejaVuSans-114"/>
      <use x="1148.166016" xlink:href="#DejaVuSans-103"/>
      <use x="1211.642578" xlink:href="#DejaVuSans-101"/>
      <use x="1273.166016" xlink:href="#DejaVuSans-116"/>
      <use x="1312.375" xlink:href="#DejaVuSans-32"/>
      <use x="1344.162109" xlink:href="#DejaVuSans-112"/>
      <use x="1407.638672" xlink:href="#DejaVuSans-97"/>
      <use x="1468.917969" xlink:href="#DejaVuSans-105"/>
      <use x="1496.701172" xlink:href="#DejaVuSans-114"/>
      <use x="1537.814453" xlink:href="#DejaVuSans-115"/>
     </g>
    </g>
   </g>
   <g id="line2d_33">
    <defs>
     <path d="M 0 1.5 
C 0.397805 1.5 0.77937 1.341951 1.06066 1.06066 
C 1.341951 0.77937 1.5 0.397805 1.5 0 
C 1.5 -0.397805 1.341951 -0.77937 1.06066 -1.06066 
C 0.77937 -1.341951 0.397805 -1.5 0 -1.5 
C -0.397805 -1.5 -0.77937 -1.341951 -1.06066 -1.06066 
C -1.341951 -0.77937 -1.5 -0.397805 -1.5 0 
C -1.5 0.397805 -1.341951 0.77937 -1.06066 1.06066 
C -0.77937 1.341951 -0.397805 1.5 0 1.5 
z
" id="mfa7a6fc778" style="stroke:#f5deb3;"/>
    </defs>
    <g>
     <use style="fill:#f5deb3;stroke:#f5deb3;" x="166.638786" xlink:href="#mfa7a6fc778" y="30.334099"/>
     <use style="fill:#f5deb3;stroke:#f5deb3;" x="166.638786" xlink:href="#mfa7a6fc778" y="30.334099"/>
    </g>
   </g>
   <g id="line2d_34">
    <defs>
     <path d="M 0 1.5 
C 0.397805 1.5 0.77937 1.341951 1.06066 1.06066 
C 1.341951 0.77937 1.5 0.397805 1.5 0 
C 1.5 -0.397805 1.341951 -0.77937 1.06066 -1.06066 
C 0.77937 -1.341951 0.397805 -1.5 0 -1.5 
C -0.397805 -1.5 -0.77937 -1.341951 -1.06066 -1.06066 
C -1.341951 -0.77937 -1.5 -0.397805 -1.5 0 
C -1.5 0.397805 -1.341951 0.77937 -1.06066 1.06066 
C -0.77937 1.341951 -0.397805 1.5 0 1.5 
z
" id="m75793a63b0" style="stroke:#000080;"/>
    </defs>
    <g>
     <use style="fill:#000080;stroke:#000080;" x="158.795307" xlink:href="#m75793a63b0" y="30.334099"/>
     <use style="fill:#000080;stroke:#000080;" x="158.795307" xlink:href="#m75793a63b0" y="30.334099"/>
    </g>
   </g>
   <g id="line2d_35">
    <path d="M 89.135256 298.944 
L 89.135256 298.417314 
L 91.284345 298.417314 
L 91.284345 297.890628 
L 114.284194 297.890628 
L 114.284194 297.363942 
L 117.542433 297.363942 
L 117.542433 296.837256 
L 120.142369 296.837256 
L 120.142369 296.31057 
L 121.667835 296.31057 
L 121.667835 295.783884 
L 123.07053 295.783884 
L 123.07053 295.257197 
L 134.870259 295.257197 
L 134.870259 294.730511 
L 136.380754 294.730511 
L 136.380754 294.203825 
L 137.126135 294.203825 
L 137.126135 293.677139 
L 137.52291 293.677139 
L 137.61184 292.623767 
L 138.067109 292.623767 
L 138.170504 291.570395 
L 138.256201 291.570395 
L 138.256201 291.043709 
L 139.172077 291.043709 
L 139.172077 290.517023 
L 139.541262 290.517023 
L 139.541262 289.990337 
L 139.77789 289.990337 
L 139.77789 289.463651 
L 140.633978 289.463651 
L 140.693549 288.410278 
L 140.79731 288.410278 
L 140.79731 287.883592 
L 140.929817 287.883592 
L 140.988387 286.83022 
L 141.119455 286.83022 
L 141.119455 286.303534 
L 141.235139 286.303534 
L 141.335737 285.250162 
L 141.535208 285.250162 
L 141.620002 284.19679 
L 141.676303 284.19679 
L 141.676303 283.143418 
L 141.830201 283.143418 
L 141.830201 282.616732 
L 142.161336 282.616732 
L 142.161336 282.090045 
L 142.283909 282.090045 
L 142.378651 281.036673 
L 142.432559 281.036673 
L 142.432559 280.509987 
L 142.566605 280.509987 
L 142.566605 279.456615 
L 142.844792 279.456615 
L 142.844792 278.929929 
L 143.053804 278.929929 
L 143.131543 277.349871 
L 143.439077 277.349871 
L 143.502469 275.769812 
L 143.678752 275.769812 
L 143.75376 273.663068 
L 143.816021 273.663068 
L 143.828447 272.609696 
L 144.062866 272.609696 
L 144.136243 269.449579 
L 144.18499 269.449579 
L 144.209312 268.396207 
L 144.35454 268.396207 
L 144.402681 267.342835 
L 144.570138 267.342835 
L 144.629556 266.289463 
L 144.712404 266.289463 
L 144.783103 263.656033 
L 144.923649 263.656033 
L 144.946964 262.60266 
L 145.212864 262.60266 
L 145.315819 261.549288 
L 145.327221 261.549288 
L 145.406826 259.96923 
L 145.531191 259.96923 
L 145.531191 259.442544 
L 145.643486 259.442544 
L 145.643486 258.915858 
L 145.788396 258.915858 
L 145.788396 257.3358 
L 145.932112 257.3358 
L 145.954117 256.282427 
L 146.06373 256.282427 
L 146.129168 254.175683 
L 146.194362 254.175683 
L 146.291697 252.068939 
L 146.334784 252.068939 
L 146.40993 248.908822 
L 146.463409 248.908822 
L 146.516724 246.802078 
L 146.612281 246.802078 
L 146.675697 245.22202 
L 146.843687 245.22202 
L 146.843687 244.695334 
L 146.999721 244.695334 
L 146.999721 244.168648 
L 147.12355 244.168648 
L 147.205618 242.588589 
L 147.266916 242.588589 
L 147.348313 239.955159 
L 147.378739 239.955159 
L 147.449528 238.375101 
L 147.570215 238.375101 
L 147.670154 236.795043 
L 147.739772 236.795043 
L 147.799224 234.688298 
L 147.87818 234.688298 
L 147.976374 233.634926 
L 148.044783 233.634926 
L 148.093482 232.054868 
L 148.1808 232.054868 
L 148.248413 229.421437 
L 148.306159 229.421437 
L 148.392421 226.261321 
L 148.468742 226.261321 
L 148.516274 224.154577 
L 148.601505 224.154577 
L 148.705114 219.941088 
L 148.770728 219.941088 
L 148.87334 217.834344 
L 148.891932 217.834344 
L 148.956849 215.200913 
L 149.030744 215.200913 
L 149.131841 212.040797 
L 149.18674 212.040797 
L 149.18674 211.514111 
L 149.323233 211.514111 
L 149.323233 210.987425 
L 149.44067 210.987425 
L 149.512548 208.353994 
L 149.566262 208.353994 
L 149.619812 206.773936 
L 149.690956 206.773936 
L 149.779481 204.667192 
L 149.814765 204.667192 
L 149.920192 202.560447 
L 149.928949 202.560447 
L 150.024985 200.453703 
L 150.042389 200.453703 
L 150.111834 198.873645 
L 150.155097 198.873645 
L 150.224095 195.713528 
L 150.318524 195.713528 
L 150.412445 193.606784 
L 150.437972 193.606784 
L 150.522794 191.50004 
L 150.598782 191.50004 
L 150.707961 189.919981 
L 150.758122 189.919981 
L 150.841405 187.286551 
L 150.899466 187.286551 
L 150.990318 184.126434 
L 151.039674 184.126434 
L 151.097081 180.439632 
L 151.195055 180.439632 
L 151.292481 178.859574 
L 151.357131 178.859574 
L 151.405461 176.752829 
L 151.477707 176.752829 
L 151.549655 175.172771 
L 151.60541 175.172771 
L 151.700576 173.066027 
L 151.818809 173.066027 
L 151.912822 168.852538 
L 151.967429 168.852538 
L 151.99078 167.27248 
L 152.091608 167.27248 
L 152.161072 164.112363 
L 152.237931 164.112363 
L 152.322086 162.005619 
L 152.383036 162.005619 
L 152.481628 156.212072 
L 152.504301 156.212072 
L 152.602211 154.105328 
L 152.669675 154.105328 
L 152.766663 150.945211 
L 152.781537 150.945211 
L 152.796398 148.838467 
L 152.922207 148.838467 
L 152.988446 145.151665 
L 153.039792 145.151665 
L 153.13475 142.518234 
L 153.15659 142.518234 
L 153.236437 138.831432 
L 153.402218 138.831432 
L 153.48095 134.617943 
L 153.552218 134.617943 
L 153.658577 131.457826 
L 153.665645 131.457826 
L 153.771317 126.190966 
L 153.778339 126.190966 
L 153.869369 124.610907 
L 153.925152 124.610907 
L 153.994632 121.450791 
L 154.056927 121.450791 
L 154.153391 117.763988 
L 154.180855 117.763988 
L 154.256157 113.023814 
L 154.36511 113.023814 
L 154.446381 110.917069 
L 154.507086 110.917069 
L 154.614488 106.703581 
L 154.654594 106.703581 
L 154.71458 104.07015 
L 154.767728 104.07015 
L 154.86035 101.43672 
L 154.93935 101.43672 
L 155.031067 97.223231 
L 155.063706 97.223231 
L 155.16126 93.009743 
L 155.193657 93.009743 
L 155.264719 89.32294 
L 155.322646 89.32294 
L 155.399584 86.68951 
L 155.437927 86.68951 
L 155.539762 80.895963 
L 155.55879 80.895963 
L 155.659924 77.20916 
L 155.697699 77.20916 
L 155.785523 74.049044 
L 155.816782 74.049044 
L 155.910223 71.942299 
L 155.953659 71.942299 
L 156.052535 68.782183 
L 156.101764 68.782183 
L 156.212023 64.568694 
L 156.266892 64.568694 
L 156.370066 61.408578 
L 156.38821 61.408578 
L 156.478647 58.775147 
L 156.508689 58.775147 
L 156.574599 56.668403 
L 156.628341 56.668403 
L 156.735331 52.454914 
L 156.759018 52.454914 
L 156.853444 48.241426 
L 156.871092 48.241426 
L 156.959066 46.661368 
L 156.988292 46.661368 
L 157.093102 43.501251 
L 157.11051 43.501251 
L 157.185742 41.394507 
L 157.231877 41.394507 
L 157.2549 39.287762 
L 157.426604 39.287762 
L 157.500487 37.181018 
L 157.557108 37.181018 
L 157.63607 35.60096 
L 157.731474 35.60096 
L 157.792929 34.020902 
L 157.953917 34.020902 
L 158.047603 32.967529 
L 158.20082 32.967529 
L 158.20082 32.440843 
L 158.336493 32.440843 
L 158.341898 31.387471 
L 158.556736 31.387471 
L 158.556736 30.860785 
L 158.795307 30.860785 
L 158.795307 30.334099 
L 338.688 30.334099 
L 338.688 30.334099 
" style="fill:none;stroke:#000080;stroke-linecap:square;stroke-width:1.5;"/>
   </g>
   <g id="line2d_36">
    <defs>
     <path d="M 0 6 
C 1.591219 6 3.117479 5.367802 4.242641 4.242641 
C 5.367802 3.117479 6 1.591219 6 0 
C 6 -1.591219 5.367802 -3.117479 4.242641 -4.242641 
C 3.117479 -5.367802 1.591219 -6 0 -6 
C -1.591219 -6 -3.117479 -5.367802 -4.242641 -4.242641 
C -5.367802 -3.117479 -6 -1.591219 -6 0 
C -6 1.591219 -5.367802 3.117479 -4.242641 4.242641 
C -3.117479 5.367802 -1.591219 6 0 6 
z
" id="mf74044f75b" style="stroke:#000080;stroke-width:1.5;"/>
    </defs>
    <g>
     <use style="fill-opacity:0;stroke:#000080;stroke-width:1.5;" x="148.620389" xlink:href="#mf74044f75b" y="223.101204"/>
     <use style="fill-opacity:0;stroke:#000080;stroke-width:1.5;" x="156.478647" xlink:href="#mf74044f75b" y="58.775147"/>
     <use style="fill-opacity:0;stroke:#000080;stroke-width:1.5;" x="158.795307" xlink:href="#mf74044f75b" y="30.334099"/>
     <use style="fill-opacity:0;stroke:#000080;stroke-width:1.5;" x="158.795307" xlink:href="#mf74044f75b" y="30.334099"/>
     <use style="fill-opacity:0;stroke:#000080;stroke-width:1.5;" x="338.688" xlink:href="#mf74044f75b" y="30.334099"/>
    </g>
   </g>
   <g id="line2d_37">
    <path style="fill:none;stroke:#000080;stroke-linecap:square;stroke-width:1.5;"/>
    <g/>
   </g>
   <g id="line2d_38">
    <g>
     <use style="fill:#000080;stroke:#000080;" x="158.647247" xlink:href="#m75793a63b0" y="30.334099"/>
     <use style="fill:#000080;stroke:#000080;" x="158.647247" xlink:href="#m75793a63b0" y="30.334099"/>
    </g>
   </g>
   <g id="line2d_39">
    <path d="M 96.676366 298.944 
L 96.676366 298.417314 
L 99.41757 298.417314 
L 99.41757 297.890628 
L 100.641881 297.890628 
L 100.641881 296.837256 
L 111.505558 296.837256 
L 111.505558 296.31057 
L 136.58893 296.31057 
L 136.58893 295.783884 
L 137.629572 295.783884 
L 137.629572 295.257197 
L 138.594838 295.257197 
L 138.594838 294.730511 
L 138.877599 294.730511 
L 138.943469 293.677139 
L 139.074469 293.677139 
L 139.172077 292.623767 
L 139.333553 292.623767 
L 139.36567 291.570395 
L 139.69937 291.570395 
L 139.69937 291.043709 
L 140.042245 291.043709 
L 140.149942 289.990337 
L 140.195896 289.990337 
L 140.195896 288.936964 
L 140.499195 288.936964 
L 140.559227 287.883592 
L 140.619053 287.883592 
L 140.64889 286.83022 
L 140.752916 286.83022 
L 140.752916 286.303534 
L 141.45 286.303534 
L 141.45 285.776848 
L 141.996555 285.776848 
L 142.106582 284.723476 
L 142.120287 284.723476 
L 142.188649 282.090045 
L 142.297475 282.090045 
L 142.33811 281.036673 
L 142.526499 281.036673 
L 142.526499 280.509987 
L 142.659828 280.509987 
L 142.659828 279.983301 
L 142.871056 279.983301 
L 142.975718 278.403243 
L 143.014805 278.403243 
L 143.053804 277.349871 
L 143.131543 277.349871 
L 143.183176 276.296499 
L 143.311596 276.296499 
L 143.413655 274.71644 
L 143.578237 274.71644 
L 143.678752 273.663068 
L 143.716296 273.663068 
L 143.716296 272.609696 
L 143.890442 272.609696 
L 143.93988 271.556324 
L 144.111818 271.556324 
L 144.197155 269.976266 
L 144.402681 269.976266 
L 144.510517 268.396207 
L 144.522457 268.396207 
L 144.522457 267.869521 
L 144.665111 267.869521 
L 144.759569 265.762777 
L 144.783103 265.762777 
L 144.783103 265.236091 
L 144.981877 265.236091 
L 145.016721 264.182719 
L 145.189903 264.182719 
L 145.201387 263.129347 
L 145.304409 263.129347 
L 145.384119 261.549288 
L 145.418169 261.549288 
L 145.497361 259.442544 
L 145.598655 259.442544 
L 145.699363 255.755741 
L 145.743936 255.755741 
L 145.76618 254.702369 
L 146.030918 254.702369 
L 146.107383 252.595625 
L 146.226867 252.595625 
L 146.334784 251.015567 
L 146.40993 251.015567 
L 146.474085 249.435508 
L 146.559258 249.435508 
L 146.612281 247.85545 
L 146.738883 247.85545 
L 146.78088 246.802078 
L 146.875005 246.802078 
L 146.947864 244.695334 
L 147.154371 244.695334 
L 147.185137 243.641962 
L 147.307662 243.641962 
L 147.388869 241.535217 
L 147.4697 241.535217 
L 147.580235 240.481845 
L 147.590249 240.481845 
L 147.700024 238.901787 
L 147.70997 238.901787 
L 147.818997 236.268356 
L 147.87818 236.268356 
L 147.986163 233.634926 
L 148.044783 233.634926 
L 148.112924 232.054868 
L 148.161434 232.054868 
L 148.190475 230.47481 
L 148.286932 230.47481 
L 148.306159 229.421437 
L 148.430623 229.421437 
L 148.525764 227.841379 
L 148.582601 227.841379 
L 148.686322 224.681263 
L 148.714503 224.681263 
L 148.78943 222.047832 
L 148.845415 222.047832 
L 148.938326 219.941088 
L 149.049169 219.941088 
L 149.15016 217.307658 
L 149.18674 217.307658 
L 149.25057 214.674227 
L 149.314167 214.674227 
L 149.40462 212.040797 
L 149.431665 212.040797 
L 149.539426 209.407366 
L 149.548376 209.407366 
L 149.548376 208.353994 
L 149.708697 208.353994 
L 149.805951 205.193878 
L 149.83238 205.193878 
L 149.849978 204.140506 
L 150.016276 204.140506 
L 150.094499 202.560447 
L 150.198253 202.560447 
L 150.292822 197.820273 
L 150.318524 197.820273 
L 150.420958 194.13347 
L 150.47195 194.13347 
L 150.488914 193.080098 
L 150.624038 193.080098 
L 150.716332 190.446667 
L 150.758122 190.446667 
L 150.816462 188.339923 
L 150.882897 188.339923 
L 150.957336 186.233179 
L 151.015013 186.233179 
L 151.097081 184.126434 
L 151.186911 184.126434 
L 151.260066 180.439632 
L 151.332915 180.439632 
L 151.437608 176.752829 
L 151.453659 176.752829 
L 151.541675 173.066027 
L 151.573572 173.066027 
L 151.645126 171.485969 
L 151.716387 171.485969 
L 151.787359 168.325852 
L 151.834513 168.325852 
L 151.850203 167.27248 
L 151.983 167.27248 
L 152.091608 164.63905 
L 152.168773 164.63905 
L 152.276234 160.425561 
L 152.375429 160.425561 
L 152.474064 157.79213 
L 152.504301 157.79213 
L 152.602211 154.632014 
L 152.699575 154.632014 
L 152.796398 148.838467 
L 152.833495 148.838467 
L 152.914832 143.571606 
L 153.01047 143.571606 
L 153.112882 138.831432 
L 153.207444 138.831432 
L 153.279836 137.778059 
L 153.387864 137.778059 
L 153.48809 134.091257 
L 153.530869 134.091257 
L 153.59484 130.404454 
L 153.644434 130.404454 
L 153.736164 127.244338 
L 153.764292 127.244338 
L 153.84141 122.504163 
L 153.876352 122.504163 
L 153.904255 120.924105 
L 154.015422 120.924105 
L 154.125885 116.18393 
L 154.160261 116.18393 
L 154.235652 114.603872 
L 154.317527 114.603872 
L 154.426099 111.970441 
L 154.480132 111.970441 
L 154.57429 109.863697 
L 154.5944 109.863697 
L 154.687945 106.176895 
L 154.707925 106.176895 
L 154.794242 101.43672 
L 154.827327 101.43672 
L 154.919633 98.803289 
L 154.93935 98.803289 
L 155.0376 96.696545 
L 155.089774 96.696545 
L 155.154773 94.063115 
L 155.213066 94.063115 
L 155.322646 90.376312 
L 155.329071 90.376312 
L 155.399584 87.216196 
L 155.450689 87.216196 
L 155.546107 82.476021 
L 155.571464 82.476021 
L 155.634696 78.789218 
L 155.766741 78.789218 
L 155.854218 74.049044 
L 155.879132 74.049044 
L 155.966049 70.888927 
L 156.034038 70.888927 
L 156.095618 67.202125 
L 156.169227 67.202125 
L 156.230332 64.568694 
L 156.285144 64.568694 
L 156.285144 64.042008 
L 156.406335 64.042008 
L 156.496678 61.408578 
L 156.520691 61.408578 
L 156.616413 55.088345 
L 156.670026 55.088345 
L 156.747178 51.401542 
L 156.806295 51.401542 
L 156.900466 49.821484 
L 156.918066 49.821484 
L 156.976607 48.241426 
L 157.034952 48.241426 
L 157.075678 46.661368 
L 157.15106 46.661368 
L 157.231877 43.501251 
L 157.266399 43.501251 
L 157.329512 41.394507 
L 157.392398 41.394507 
L 157.500487 38.23439 
L 157.528821 38.23439 
L 157.624812 36.127646 
L 157.652944 36.127646 
L 157.652944 35.074274 
L 157.792929 35.074274 
L 157.820792 32.967529 
L 157.98704 32.967529 
L 158.080549 30.860785 
L 158.647247 30.860785 
L 158.647247 30.334099 
L 338.688 30.334099 
L 338.688 30.334099 
" style="fill:none;stroke:#000080;stroke-linecap:square;stroke-width:1.5;"/>
   </g>
   <g id="line2d_40">
    <g>
     <use style="fill-opacity:0;stroke:#000080;stroke-width:1.5;" x="142.975718" xlink:href="#mf74044f75b" y="278.403243"/>
     <use style="fill-opacity:0;stroke:#000080;stroke-width:1.5;" x="155.539762" xlink:href="#mf74044f75b" y="84.056079"/>
     <use style="fill-opacity:0;stroke:#000080;stroke-width:1.5;" x="158.647247" xlink:href="#mf74044f75b" y="30.334099"/>
     <use style="fill-opacity:0;stroke:#000080;stroke-width:1.5;" x="158.647247" xlink:href="#mf74044f75b" y="30.334099"/>
     <use style="fill-opacity:0;stroke:#000080;stroke-width:1.5;" x="338.688" xlink:href="#mf74044f75b" y="30.334099"/>
    </g>
   </g>
   <g id="line2d_41">
    <path style="fill:none;stroke:#000080;stroke-linecap:square;stroke-width:1.5;"/>
    <g/>
   </g>
   <g id="line2d_42">
    <defs>
     <path d="M 0 1.5 
C 0.397805 1.5 0.77937 1.341951 1.06066 1.06066 
C 1.341951 0.77937 1.5 0.397805 1.5 0 
C 1.5 -0.397805 1.341951 -0.77937 1.06066 -1.06066 
C 0.77937 -1.341951 0.397805 -1.5 0 -1.5 
C -0.397805 -1.5 -0.77937 -1.341951 -1.06066 -1.06066 
C -1.341951 -0.77937 -1.5 -0.397805 -1.5 0 
C -1.5 0.397805 -1.341951 0.77937 -1.06066 1.06066 
C -0.77937 1.341951 -0.397805 1.5 0 1.5 
z
" id="m5a38df6b75" style="stroke:#ff00ff;"/>
    </defs>
    <g>
     <use style="fill:#ff00ff;stroke:#ff00ff;" x="181.13358" xlink:href="#m5a38df6b75" y="30.334099"/>
     <use style="fill:#ff00ff;stroke:#ff00ff;" x="181.13358" xlink:href="#m5a38df6b75" y="30.334099"/>
    </g>
   </g>
   <g id="line2d_43">
    <path d="M 164.891812 298.944 
L 164.891812 298.417314 
L 165.529617 298.417314 
L 165.529617 297.890628 
L 166.268843 297.890628 
L 166.268843 297.363942 
L 166.615263 297.363942 
L 166.615263 296.837256 
L 167.678446 296.837256 
L 167.678446 296.31057 
L 169.134586 296.31057 
L 169.134586 295.783884 
L 169.288161 295.783884 
L 169.288161 295.257197 
L 169.537359 295.257197 
L 169.537359 294.730511 
L 169.662047 294.730511 
L 169.743743 293.677139 
L 169.791457 293.677139 
L 169.791457 293.150453 
L 170.410961 293.150453 
L 170.454188 292.097081 
L 170.559106 292.097081 
L 170.559106 291.570395 
L 170.692701 291.570395 
L 170.724611 289.990337 
L 170.825279 289.990337 
L 170.825279 289.463651 
L 170.956857 289.463651 
L 171.009212 288.410278 
L 171.268652 288.410278 
L 171.268652 287.883592 
L 171.476006 287.883592 
L 171.549649 285.250162 
L 171.61541 285.250162 
L 171.711078 284.19679 
L 171.803727 284.19679 
L 171.803727 283.670104 
L 172.002383 283.670104 
L 172.054157 282.616732 
L 172.293758 282.616732 
L 172.347097 281.563359 
L 172.441252 281.563359 
L 172.441252 281.036673 
L 172.582734 281.036673 
L 172.675629 279.456615 
L 172.706485 279.456615 
L 172.810515 276.296499 
L 172.885786 276.296499 
L 172.981755 274.189754 
L 172.998087 274.189754 
L 173.08184 272.08301 
L 173.172121 272.08301 
L 173.282599 267.869521 
L 173.355864 267.869521 
L 173.426547 265.762777 
L 173.517329 265.762777 
L 173.625648 262.60266 
L 173.630147 262.60266 
L 173.679556 259.96923 
L 173.764571 259.96923 
L 173.862495 257.862486 
L 173.893538 257.862486 
L 173.920102 256.282427 
L 174.006157 256.282427 
L 174.093979 252.068939 
L 174.12024 252.068939 
L 174.224889 246.802078 
L 174.244441 246.802078 
L 174.352665 242.061903 
L 174.365607 242.061903 
L 174.412979 240.481845 
L 174.509477 240.481845 
L 174.609697 233.634926 
L 174.63307 233.634926 
L 174.732584 229.948123 
L 174.747357 229.948123 
L 174.852514 226.261321 
L 174.875564 226.261321 
L 174.915306 224.154577 
L 174.990358 224.154577 
L 175.091997 218.887716 
L 175.112667 218.887716 
L 175.215651 216.254285 
L 175.238226 216.254285 
L 175.342513 210.460738 
L 175.381206 210.460738 
L 175.482621 203.087133 
L 175.516968 203.087133 
L 175.623618 197.293586 
L 175.635651 197.293586 
L 175.721642 193.080098 
L 175.75154 193.080098 
L 175.860728 188.866609 
L 175.880507 188.866609 
L 175.96727 184.126434 
L 176.018337 184.126434 
L 176.125873 176.752829 
L 176.131719 176.752829 
L 176.234686 168.852538 
L 176.252111 168.852538 
L 176.362065 160.952247 
L 176.367833 160.952247 
L 176.4369 156.738758 
L 176.480883 156.738758 
L 176.578017 151.998584 
L 176.596999 151.998584 
L 176.69349 146.731723 
L 176.712348 146.731723 
L 176.808204 140.41149 
L 176.826938 140.41149 
L 176.93706 137.251373 
L 176.955655 137.251373 
L 177.05758 128.29771 
L 177.079739 128.29771 
L 177.131335 123.557535 
L 177.197449 123.557535 
L 177.303441 117.237302 
L 177.310727 117.237302 
L 177.417845 111.970441 
L 177.450394 111.970441 
L 177.554864 103.543464 
L 177.588952 103.543464 
L 177.681904 97.749917 
L 177.728195 97.749917 
L 177.823948 92.483056 
L 177.841622 92.483056 
L 177.929726 88.269568 
L 177.956071 88.269568 
L 178.066286 80.895963 
L 178.097648 80.895963 
L 178.208705 78.262532 
L 178.227722 78.262532 
L 178.329368 74.049044 
L 178.380827 74.049044 
L 178.473071 69.308869 
L 178.502011 69.308869 
L 178.608839 67.202125 
L 178.629113 67.202125 
L 178.730133 62.988636 
L 178.763676 62.988636 
L 178.867253 58.248461 
L 178.88723 58.248461 
L 178.971874 54.561659 
L 179.037976 54.561659 
L 179.089033 53.508287 
L 179.161246 53.508287 
L 179.267379 48.241426 
L 179.303155 48.241426 
L 179.403586 45.607995 
L 179.460026 45.607995 
L 179.543545 41.921193 
L 179.607519 41.921193 
L 179.636231 39.814448 
L 179.747441 39.814448 
L 179.835901 37.707704 
L 179.884678 37.707704 
L 179.96932 35.60096 
L 180.011487 35.60096 
L 180.072216 34.547588 
L 180.155954 34.547588 
L 180.226971 33.494215 
L 180.465681 33.494215 
L 180.465681 32.967529 
L 180.59891 32.967529 
L 180.648609 31.914157 
L 180.820706 31.914157 
L 180.820706 31.387471 
L 181.118947 31.387471 
L 181.13358 30.334099 
L 338.688 30.334099 
L 338.688 30.334099 
" style="fill:none;stroke:#ff00ff;stroke-linecap:square;stroke-width:1.5;"/>
   </g>
   <g id="line2d_44">
    <defs>
     <path d="M -0 8.485281 
L 5.091169 0 
L 0 -8.485281 
L -5.091169 -0 
z
" id="me439977776" style="stroke:#ff00ff;stroke-linejoin:miter;stroke-width:1.5;"/>
    </defs>
    <g>
     <use style="fill-opacity:0;stroke:#ff00ff;stroke-linejoin:miter;stroke-width:1.5;" x="181.13358" xlink:href="#me439977776" y="30.860785"/>
     <use style="fill-opacity:0;stroke:#ff00ff;stroke-linejoin:miter;stroke-width:1.5;" x="181.13358" xlink:href="#me439977776" y="30.334099"/>
     <use style="fill-opacity:0;stroke:#ff00ff;stroke-linejoin:miter;stroke-width:1.5;" x="181.13358" xlink:href="#me439977776" y="30.334099"/>
     <use style="fill-opacity:0;stroke:#ff00ff;stroke-linejoin:miter;stroke-width:1.5;" x="338.688" xlink:href="#me439977776" y="30.334099"/>
    </g>
   </g>
   <g id="line2d_45">
    <path style="fill:none;stroke:#ff00ff;stroke-linecap:square;stroke-width:1.5;"/>
    <g/>
   </g>
   <g id="line2d_46">
    <defs>
     <path d="M 0 1.5 
C 0.397805 1.5 0.77937 1.341951 1.06066 1.06066 
C 1.341951 0.77937 1.5 0.397805 1.5 0 
C 1.5 -0.397805 1.341951 -0.77937 1.06066 -1.06066 
C 0.77937 -1.341951 0.397805 -1.5 0 -1.5 
C -0.397805 -1.5 -0.77937 -1.341951 -1.06066 -1.06066 
C -1.341951 -0.77937 -1.5 -0.397805 -1.5 0 
C -1.5 0.397805 -1.341951 0.77937 -1.06066 1.06066 
C -0.77937 1.341951 -0.397805 1.5 0 1.5 
z
" id="m57d90b3a7d" style="stroke:#ff0000;"/>
    </defs>
    <g>
     <use style="fill:#ff0000;stroke:#ff0000;" x="161.320345" xlink:href="#m57d90b3a7d" y="30.334099"/>
     <use style="fill:#ff0000;stroke:#ff0000;" x="161.320345" xlink:href="#m57d90b3a7d" y="30.334099"/>
    </g>
   </g>
   <g id="line2d_47">
    <path d="M 113.804498 298.944 
L 113.804498 298.417314 
L 121.08272 298.417314 
L 121.08272 297.890628 
L 138.877599 297.890628 
L 138.877599 297.363942 
L 140.241728 297.363942 
L 140.241728 296.837256 
L 141.968939 296.837256 
L 141.968939 296.31057 
L 142.459451 296.31057 
L 142.459451 295.783884 
L 142.975718 295.783884 
L 143.027814 294.730511 
L 143.311596 294.730511 
L 143.324386 293.677139 
L 143.840863 293.677139 
L 143.87806 292.623767 
L 144.038338 292.623767 
L 144.075117 291.570395 
L 144.402681 291.570395 
L 144.402681 291.043709 
L 144.546314 291.043709 
L 144.641416 289.990337 
L 144.665111 289.990337 
L 144.747789 288.936964 
L 144.888619 288.936964 
L 144.888619 287.883592 
L 145.120836 287.883592 
L 145.120836 287.356906 
L 145.235796 287.356906 
L 145.235796 286.83022 
L 145.361382 286.83022 
L 145.395476 285.250162 
L 145.576196 285.250162 
L 145.576196 284.723476 
L 145.876977 284.723476 
L 145.876977 284.19679 
L 146.074653 284.19679 
L 146.161795 281.563359 
L 146.270114 281.563359 
L 146.313254 280.509987 
L 146.463409 280.509987 
L 146.516724 278.929929 
L 146.612281 278.929929 
L 146.665144 277.876557 
L 146.749392 277.876557 
L 146.843687 276.823185 
L 147.051423 276.823185 
L 147.113265 275.769812 
L 147.236294 275.769812 
L 147.236294 275.243126 
L 147.398994 275.243126 
L 147.4697 273.663068 
L 147.61026 273.663068 
L 147.70997 272.609696 
L 147.86833 272.609696 
L 147.907696 271.556324 
L 147.986163 271.556324 
L 148.093482 269.976266 
L 148.190475 269.976266 
L 148.190475 269.449579 
L 148.325365 269.449579 
L 148.421081 268.396207 
L 148.478259 268.396207 
L 148.563676 266.289463 
L 148.658095 266.289463 
L 148.742638 260.495916 
L 148.882639 260.495916 
L 148.882639 259.96923 
L 149.141003 259.96923 
L 149.241465 257.862486 
L 149.323233 257.862486 
L 149.431665 255.229055 
L 149.539426 255.229055 
L 149.539426 254.702369 
L 149.664311 254.702369 
L 149.752971 253.122311 
L 149.779481 253.122311 
L 149.841182 252.068939 
L 149.990124 252.068939 
L 150.016276 249.962195 
L 150.111834 249.962195 
L 150.111834 249.435508 
L 150.318524 249.435508 
L 150.335638 247.85545 
L 150.454969 247.85545 
L 150.556607 246.275392 
L 150.624038 246.275392 
L 150.699587 245.22202 
L 150.791483 245.22202 
L 150.882897 242.061903 
L 150.924291 242.061903 
L 150.924291 241.535217 
L 151.1298 241.535217 
L 151.21133 238.375101 
L 151.260066 238.375101 
L 151.340991 236.795043 
L 151.373256 236.795043 
L 151.461678 235.74167 
L 151.589498 235.74167 
L 151.676833 231.001496 
L 151.708484 231.001496 
L 151.818809 227.841379 
L 151.84236 227.841379 
L 151.944047 224.681263 
L 152.021866 224.681263 
L 152.122515 222.574518 
L 152.184165 222.574518 
L 152.276234 219.414402 
L 152.337344 219.414402 
L 152.337344 218.887716 
L 152.451351 218.887716 
L 152.55709 216.780971 
L 152.579665 216.780971 
L 152.684631 213.620855 
L 152.692105 213.620855 
L 152.714506 212.567483 
L 152.803824 212.567483 
L 152.907453 208.88068 
L 152.936949 208.88068 
L 153.01047 205.720564 
L 153.083683 205.720564 
L 153.15659 203.087133 
L 153.214697 203.087133 
L 153.301495 199.927017 
L 153.344733 199.927017 
L 153.416559 198.873645 
L 153.545105 198.873645 
L 153.630278 196.7669 
L 153.665645 196.7669 
L 153.771317 194.660156 
L 153.778339 194.660156 
L 153.862384 192.026726 
L 153.904255 192.026726 
L 154.001564 189.919981 
L 154.043103 189.919981 
L 154.132765 187.813237 
L 154.187714 187.813237 
L 154.276638 185.706493 
L 154.324333 185.706493 
L 154.385464 183.073062 
L 154.453136 183.073062 
L 154.554156 181.493004 
L 154.634552 181.493004 
L 154.721232 179.38626 
L 154.747816 179.38626 
L 154.85375 173.592713 
L 154.866947 173.592713 
L 154.93278 169.90591 
L 155.004911 169.90591 
L 155.102793 165.165736 
L 155.135299 165.165736 
L 155.245367 162.532305 
L 155.25182 162.532305 
L 155.341913 159.898875 
L 155.386785 159.898875 
L 155.495282 155.685386 
L 155.546107 155.685386 
L 155.641006 151.998584 
L 155.691409 151.998584 
L 155.766741 149.365153 
L 155.816782 149.365153 
L 155.922644 144.624978 
L 155.928852 144.624978 
L 156.034038 139.358118 
L 156.064855 139.358118 
L 156.169227 135.144629 
L 156.199806 135.144629 
L 156.285144 132.511199 
L 156.327657 132.511199 
L 156.418408 130.93114 
L 156.466616 130.93114 
L 156.550661 128.824396 
L 156.604476 128.824396 
L 156.693802 125.66428 
L 156.729404 125.66428 
L 156.812195 121.450791 
L 156.847557 121.450791 
L 156.918066 117.763988 
L 156.970762 117.763988 
L 157.081488 111.970441 
L 157.087296 111.970441 
L 157.174189 109.863697 
L 157.231877 109.863697 
L 157.340963 106.176895 
L 157.352406 106.176895 
L 157.455057 102.490092 
L 157.494815 102.490092 
L 157.596634 97.749917 
L 157.613546 97.749917 
L 157.709073 92.483056 
L 157.765022 92.483056 
L 157.870833 87.216196 
L 157.881934 87.216196 
L 157.981524 85.109451 
L 158.014595 85.109451 
L 158.113432 83.529393 
L 158.168101 83.529393 
L 158.271501 80.895963 
L 158.298611 80.895963 
L 158.390468 75.629102 
L 158.460386 75.629102 
L 158.530025 72.995672 
L 158.594062 72.995672 
L 158.694975 67.728811 
L 158.732007 67.728811 
L 158.821615 64.568694 
L 158.863624 64.568694 
L 158.962994 61.408578 
L 159.108409 61.408578 
L 159.216679 52.9816 
L 159.242359 52.9816 
L 159.349804 47.188054 
L 159.436301 47.188054 
L 159.471793 45.607995 
L 159.557689 45.607995 
L 159.643163 41.394507 
L 159.698248 41.394507 
L 159.807898 39.287762 
L 159.822797 39.287762 
L 159.867418 36.654332 
L 160.020244 36.654332 
L 160.064363 34.547588 
L 160.147395 34.547588 
L 160.234884 33.494215 
L 160.273627 33.494215 
L 160.273627 32.967529 
L 160.489968 32.967529 
L 160.489968 32.440843 
L 160.637457 32.440843 
L 160.736665 30.860785 
L 161.320345 30.860785 
L 161.320345 30.334099 
L 338.688 30.334099 
L 338.688 30.334099 
" style="fill:none;stroke:#ff0000;stroke-linecap:square;stroke-width:1.5;"/>
   </g>
   <g id="line2d_48">
    <defs>
     <path d="M 0 -6 
L -5.196152 -3 
L -5.196152 3 
L -0 6 
L 5.196152 3 
L 5.196152 -3 
z
" id="m65c6c1e72c" style="stroke:#ff0000;stroke-linejoin:miter;stroke-width:1.5;"/>
    </defs>
    <g>
     <use style="fill-opacity:0;stroke:#ff0000;stroke-linejoin:miter;stroke-width:1.5;" x="146.270114" xlink:href="#m65c6c1e72c" y="281.036673"/>
     <use style="fill-opacity:0;stroke:#ff0000;stroke-linejoin:miter;stroke-width:1.5;" x="159.278248" xlink:href="#m65c6c1e72c" y="50.34817"/>
     <use style="fill-opacity:0;stroke:#ff0000;stroke-linejoin:miter;stroke-width:1.5;" x="161.320345" xlink:href="#m65c6c1e72c" y="30.334099"/>
     <use style="fill-opacity:0;stroke:#ff0000;stroke-linejoin:miter;stroke-width:1.5;" x="161.320345" xlink:href="#m65c6c1e72c" y="30.334099"/>
     <use style="fill-opacity:0;stroke:#ff0000;stroke-linejoin:miter;stroke-width:1.5;" x="338.688" xlink:href="#m65c6c1e72c" y="30.334099"/>
    </g>
   </g>
   <g id="line2d_49">
    <path style="fill:none;stroke:#ff0000;stroke-linecap:square;stroke-width:1.5;"/>
    <g/>
   </g>
   <g id="line2d_50">
    <defs>
     <path d="M 0 1.5 
C 0.397805 1.5 0.77937 1.341951 1.06066 1.06066 
C 1.341951 0.77937 1.5 0.397805 1.5 0 
C 1.5 -0.397805 1.341951 -0.77937 1.06066 -1.06066 
C 0.77937 -1.341951 0.397805 -1.5 0 -1.5 
C -0.397805 -1.5 -0.77937 -1.341951 -1.06066 -1.06066 
C -1.341951 -0.77937 -1.5 -0.397805 -1.5 0 
C -1.5 0.397805 -1.341951 0.77937 -1.06066 1.06066 
C -0.77937 1.341951 -0.397805 1.5 0 1.5 
z
" id="m9a060de59b" style="stroke:#ff7500;"/>
    </defs>
    <g>
     <use style="fill:#ff7500;stroke:#ff7500;" x="158.320268" xlink:href="#m9a060de59b" y="30.334099"/>
     <use style="fill:#ff7500;stroke:#ff7500;" x="158.320268" xlink:href="#m9a060de59b" y="30.334099"/>
    </g>
   </g>
   <g id="line2d_51">
    <path d="M 131.287464 298.944 
L 131.287464 298.417314 
L 136.054058 298.417314 
L 136.054058 297.890628 
L 136.738785 297.890628 
L 136.738785 297.363942 
L 137.647286 297.363942 
L 137.647286 296.837256 
L 138.101642 296.837256 
L 138.101642 296.31057 
L 138.392446 296.31057 
L 138.392446 295.783884 
L 138.510793 295.783884 
L 138.561269 294.730511 
L 139.253002 294.730511 
L 139.285267 293.677139 
L 140.619053 293.677139 
L 140.619053 293.150453 
L 140.973763 293.150453 
L 140.973763 292.623767 
L 141.104941 292.623767 
L 141.133958 291.570395 
L 141.278324 291.570395 
L 141.321401 290.517023 
L 141.421504 290.517023 
L 141.421504 289.990337 
L 141.830201 289.990337 
L 141.871938 288.936964 
L 142.459451 288.936964 
L 142.499711 287.883592 
L 142.792145 287.883592 
L 142.857929 286.83022 
L 142.923465 286.83022 
L 142.975718 285.776848 
L 143.157379 285.776848 
L 143.208936 284.723476 
L 143.273169 284.723476 
L 143.273169 284.19679 
L 143.439077 284.19679 
L 143.51512 282.616732 
L 143.590833 282.616732 
L 143.653678 281.563359 
L 143.853271 281.563359 
L 143.902815 279.983301 
L 144.050606 279.983301 
L 144.136243 278.929929 
L 144.221461 278.929929 
L 144.221461 278.403243 
L 144.426702 278.403243 
L 144.462672 277.349871 
L 144.59393 277.349871 
L 144.665111 275.769812 
L 144.888619 275.769812 
L 144.993499 273.136382 
L 145.02832 273.136382 
L 145.132366 270.502952 
L 145.201387 270.502952 
L 145.292992 267.342835 
L 145.327221 267.342835 
L 145.429504 265.762777 
L 145.463466 265.762777 
L 145.497361 264.709405 
L 145.643486 264.709405 
L 145.677034 263.656033 
L 145.865929 263.656033 
L 145.899052 262.075974 
L 145.998045 262.075974 
L 146.06373 259.442544 
L 146.194362 259.442544 
L 146.302479 257.862486 
L 146.345539 257.862486 
L 146.356287 256.282427 
L 146.516724 256.282427 
L 146.559258 254.702369 
L 146.665144 254.702369 
L 146.696785 253.122311 
L 146.812312 253.122311 
L 146.885432 251.542253 
L 146.937474 251.542253 
L 147.030761 248.382136 
L 147.092675 248.382136 
L 147.174888 247.328764 
L 147.236294 247.328764 
L 147.327999 246.275392 
L 147.439433 246.275392 
L 147.540122 243.641962 
L 147.56019 243.641962 
L 147.660186 241.535217 
L 147.690073 241.535217 
L 147.70997 240.481845 
L 147.818997 240.481845 
L 147.927346 237.848415 
L 148.064279 237.848415 
L 148.132344 235.74167 
L 148.200145 235.74167 
L 148.306159 233.10824 
L 148.325365 233.10824 
L 148.363715 232.054868 
L 148.440161 232.054868 
L 148.53525 229.421437 
L 148.573141 229.421437 
L 148.573141 228.894751 
L 148.714503 228.894751 
L 148.808112 227.314693 
L 148.854728 227.314693 
L 148.910504 224.681263 
L 149.00307 224.681263 
L 149.039959 223.101204 
L 149.122675 223.101204 
L 149.223242 218.36103 
L 149.241465 218.36103 
L 149.286939 216.780971 
L 149.359452 216.780971 
L 149.359452 215.727599 
L 149.503579 215.727599 
L 149.58413 213.620855 
L 149.637625 213.620855 
L 149.717561 209.407366 
L 149.761812 209.407366 
L 149.83238 207.300622 
L 149.902665 207.300622 
L 149.981398 205.193878 
L 150.042389 205.193878 
L 150.103169 203.613819 
L 150.155097 203.613819 
L 150.241302 200.980389 
L 150.267081 200.980389 
L 150.344189 198.873645 
L 150.395406 198.873645 
L 150.49739 197.293586 
L 150.522794 197.293586 
L 150.615623 194.660156 
L 150.691209 194.660156 
L 150.799813 189.919981 
L 150.841405 189.919981 
L 150.94908 187.286551 
L 150.957336 187.286551 
L 151.056095 183.073062 
L 151.072501 183.073062 
L 151.13797 181.493004 
L 151.276281 181.493004 
L 151.381313 177.279515 
L 151.437608 177.279515 
L 151.541675 175.172771 
L 151.557631 175.172771 
L 151.63719 173.066027 
L 151.708484 173.066027 
L 151.818809 169.90591 
L 151.84236 169.90591 
L 151.928441 167.27248 
L 152.00633 167.27248 
L 152.083873 164.112363 
L 152.122515 164.112363 
L 152.191856 163.058991 
L 152.299175 163.058991 
L 152.398241 159.372189 
L 152.421022 159.372189 
L 152.474064 157.265444 
L 152.534486 157.265444 
L 152.624728 153.051956 
L 152.662192 153.051956 
L 152.759222 149.365153 
L 152.833495 149.365153 
L 152.944315 145.151665 
L 153.017805 145.151665 
L 153.083683 143.04492 
L 153.15659 143.04492 
L 153.229193 141.464862 
L 153.323128 141.464862 
L 153.380683 138.304745 
L 153.459513 138.304745 
L 153.559329 135.671315 
L 153.587744 135.671315 
L 153.693887 134.617943 
L 153.70094 134.617943 
L 153.785358 128.29771 
L 153.855395 128.29771 
L 153.952977 124.610907 
L 153.966873 124.610907 
L 154.077643 120.924105 
L 154.09144 120.924105 
L 154.125885 118.290674 
L 154.215123 118.290674 
L 154.324333 114.077186 
L 154.331136 114.077186 
L 154.439623 111.443755 
L 154.453136 111.443755 
L 154.493614 109.863697 
L 154.587699 109.863697 
L 154.634552 105.650209 
L 154.701267 105.650209 
L 154.807483 102.490092 
L 154.873541 102.490092 
L 154.93935 99.856662 
L 155.011454 99.856662 
L 155.122304 94.063115 
L 155.135299 94.063115 
L 155.232454 90.376312 
L 155.258271 90.376312 
L 155.341913 88.269568 
L 155.393186 88.269568 
L 155.501643 84.582765 
L 155.55245 84.582765 
L 155.659924 79.842591 
L 155.678822 79.842591 
L 155.754208 74.57573 
L 155.823027 74.57573 
L 155.916435 72.995672 
L 155.953659 72.995672 
L 156.027868 70.362241 
L 156.064855 70.362241 
L 156.126326 68.255497 
L 156.193695 68.255497 
L 156.303376 63.515322 
L 156.333721 63.515322 
L 156.436501 60.881892 
L 156.448553 60.881892 
L 156.550661 58.248461 
L 156.574599 58.248461 
L 156.675973 54.034973 
L 156.711612 54.034973 
L 156.812195 49.821484 
L 156.829885 49.821484 
L 156.935649 48.241426 
L 156.947361 48.241426 
L 157.052418 45.081309 
L 157.081488 45.081309 
L 157.081488 44.554623 
L 157.277891 44.554623 
L 157.346685 42.447879 
L 157.392398 42.447879 
L 157.494815 39.287762 
L 157.557108 39.287762 
L 157.664184 36.654332 
L 157.669802 36.654332 
L 157.770607 34.547588 
L 157.787352 34.547588 
L 157.84861 32.967529 
L 157.94839 32.967529 
L 158.042106 31.387471 
L 158.28235 31.387471 
L 158.320268 30.334099 
L 338.688 30.334099 
L 338.688 30.334099 
" style="fill:none;stroke:#ff7500;stroke-linecap:square;stroke-width:1.5;"/>
   </g>
   <g id="line2d_52">
    <defs>
     <path d="M 0 -6 
L -1.347084 -1.854102 
L -5.706339 -1.854102 
L -2.179628 0.708204 
L -3.526712 4.854102 
L -0 2.291796 
L 3.526712 4.854102 
L 2.179628 0.708204 
L 5.706339 -1.854102 
L 1.347084 -1.854102 
z
" id="madf740f476" style="stroke:#ff7500;stroke-linejoin:bevel;stroke-width:1.5;"/>
    </defs>
    <g>
     <use style="fill-opacity:0;stroke:#ff7500;stroke-linejoin:bevel;stroke-width:1.5;" x="155.089774" xlink:href="#madf740f476" y="95.116487"/>
     <use style="fill-opacity:0;stroke:#ff7500;stroke-linejoin:bevel;stroke-width:1.5;" x="158.320268" xlink:href="#madf740f476" y="30.860785"/>
     <use style="fill-opacity:0;stroke:#ff7500;stroke-linejoin:bevel;stroke-width:1.5;" x="158.320268" xlink:href="#madf740f476" y="30.334099"/>
     <use style="fill-opacity:0;stroke:#ff7500;stroke-linejoin:bevel;stroke-width:1.5;" x="158.320268" xlink:href="#madf740f476" y="30.334099"/>
     <use style="fill-opacity:0;stroke:#ff7500;stroke-linejoin:bevel;stroke-width:1.5;" x="338.688" xlink:href="#madf740f476" y="30.334099"/>
    </g>
   </g>
   <g id="line2d_53">
    <path style="fill:none;stroke:#ff7500;stroke-linecap:square;stroke-width:1.5;"/>
    <g/>
   </g>
   <g id="line2d_54">
    <path d="M 338.688 30.334099 
L 369.60768 293.571802 
" style="fill:none;stroke:#ff00ff;stroke-linecap:square;stroke-width:1.5;"/>
    <g>
     <use style="fill-opacity:0;stroke:#ff00ff;stroke-linejoin:miter;stroke-width:1.5;" x="338.688" xlink:href="#me439977776" y="30.334099"/>
     <use style="fill-opacity:0;stroke:#ff00ff;stroke-linejoin:miter;stroke-width:1.5;" x="369.60768" xlink:href="#me439977776" y="293.571802"/>
    </g>
   </g>
   <g id="line2d_55">
    <path d="M 338.688 30.334099 
L 369.60768 190.4256 
" style="fill:none;stroke:#ff0000;stroke-linecap:square;stroke-width:1.5;"/>
    <g>
     <use style="fill-opacity:0;stroke:#ff0000;stroke-linejoin:miter;stroke-width:1.5;" x="338.688" xlink:href="#m65c6c1e72c" y="30.334099"/>
     <use style="fill-opacity:0;stroke:#ff0000;stroke-linejoin:miter;stroke-width:1.5;" x="369.60768" xlink:href="#m65c6c1e72c" y="190.4256"/>
    </g>
   </g>
   <g id="line2d_56">
    <path d="M 338.688 30.334099 
L 369.60768 138.852499 
" style="fill:none;stroke:#000080;stroke-linecap:square;stroke-width:1.5;"/>
    <g>
     <use style="fill-opacity:0;stroke:#000080;stroke-width:1.5;" x="338.688" xlink:href="#mf74044f75b" y="30.334099"/>
     <use style="fill-opacity:0;stroke:#000080;stroke-width:1.5;" x="369.60768" xlink:href="#mf74044f75b" y="138.852499"/>
    </g>
   </g>
   <g id="line2d_57">
    <path d="M 338.688 30.334099 
L 369.60768 87.279398 
" style="fill:none;stroke:#000080;stroke-linecap:square;stroke-width:1.5;"/>
    <g>
     <use style="fill-opacity:0;stroke:#000080;stroke-width:1.5;" x="338.688" xlink:href="#mf74044f75b" y="30.334099"/>
     <use style="fill-opacity:0;stroke:#000080;stroke-width:1.5;" x="369.60768" xlink:href="#mf74044f75b" y="87.279398"/>
    </g>
   </g>
   <g id="line2d_58">
    <path d="M 338.688 30.334099 
L 369.60768 35.706297 
" style="fill:none;stroke:#ff7500;stroke-linecap:square;stroke-width:1.5;"/>
    <g>
     <use style="fill-opacity:0;stroke:#ff7500;stroke-linejoin:bevel;stroke-width:1.5;" x="338.688" xlink:href="#madf740f476" y="30.334099"/>
     <use style="fill-opacity:0;stroke:#ff7500;stroke-linejoin:bevel;stroke-width:1.5;" x="369.60768" xlink:href="#madf740f476" y="35.706297"/>
    </g>
   </g>
   <g id="line2d_59">
    <path d="M 338.688 298.944 
L 338.688 30.334099 
" style="fill:none;stroke:#000000;stroke-linecap:square;stroke-width:1.5;"/>
   </g>
   <g id="patch_3">
    <path d="M 57.6 298.944 
L 57.6 27.648 
" style="fill:none;stroke:#000000;stroke-linecap:square;stroke-linejoin:miter;stroke-width:0.8;"/>
   </g>
   <g id="patch_4">
    <path d="M 338.688 298.944 
L 338.688 27.648 
" style="fill:none;stroke:#000000;stroke-linecap:square;stroke-linejoin:miter;stroke-width:0.8;"/>
   </g>
   <g id="patch_5">
    <path d="M 57.6 298.944 
L 338.688 298.944 
" style="fill:none;stroke:#000000;stroke-linecap:square;stroke-linejoin:miter;stroke-width:0.8;"/>
   </g>
   <g id="patch_6">
    <path d="M 57.6 27.648 
L 338.688 27.648 
" style="fill:none;stroke:#000000;stroke-linecap:square;stroke-linejoin:miter;stroke-width:0.8;"/>
   </g>
   <g id="text_13">
    <!-- 400s-2e4 -->
    <g transform="translate(375.22944 298.262739)scale(0.17 -0.17)">
     <use xlink:href="#DejaVuSans-52"/>
     <use x="63.623047" xlink:href="#DejaVuSans-48"/>
     <use x="127.246094" xlink:href="#DejaVuSans-48"/>
     <use x="190.869141" xlink:href="#DejaVuSans-115"/>
     <use x="242.96875" xlink:href="#DejaVuSans-45"/>
     <use x="279.052734" xlink:href="#DejaVuSans-50"/>
     <use x="342.675781" xlink:href="#DejaVuSans-101"/>
     <use x="404.199219" xlink:href="#DejaVuSans-52"/>
    </g>
   </g>
   <g id="text_14">
    <!-- best 2009 -->
    <defs>
     <path d="M 48.6875 27.296875 
Q 48.6875 37.203125 44.609375 42.84375 
Q 40.53125 48.484375 33.40625 48.484375 
Q 26.265625 48.484375 22.1875 42.84375 
Q 18.109375 37.203125 18.109375 27.296875 
Q 18.109375 17.390625 22.1875 11.75 
Q 26.265625 6.109375 33.40625 6.109375 
Q 40.53125 6.109375 44.609375 11.75 
Q 48.6875 17.390625 48.6875 27.296875 
z
M 18.109375 46.390625 
Q 20.953125 51.265625 25.265625 53.625 
Q 29.59375 56 35.59375 56 
Q 45.5625 56 51.78125 48.09375 
Q 58.015625 40.1875 58.015625 27.296875 
Q 58.015625 14.40625 51.78125 6.484375 
Q 45.5625 -1.421875 35.59375 -1.421875 
Q 29.59375 -1.421875 25.265625 0.953125 
Q 20.953125 3.328125 18.109375 8.203125 
L 18.109375 0 
L 9.078125 0 
L 9.078125 75.984375 
L 18.109375 75.984375 
z
" id="DejaVuSans-98"/>
     <path d="M 10.984375 1.515625 
L 10.984375 10.5 
Q 14.703125 8.734375 18.5 7.8125 
Q 22.3125 6.890625 25.984375 6.890625 
Q 35.75 6.890625 40.890625 13.453125 
Q 46.046875 20.015625 46.78125 33.40625 
Q 43.953125 29.203125 39.59375 26.953125 
Q 35.25 24.703125 29.984375 24.703125 
Q 19.046875 24.703125 12.671875 31.3125 
Q 6.296875 37.9375 6.296875 49.421875 
Q 6.296875 60.640625 12.9375 67.421875 
Q 19.578125 74.21875 30.609375 74.21875 
Q 43.265625 74.21875 49.921875 64.515625 
Q 56.59375 54.828125 56.59375 36.375 
Q 56.59375 19.140625 48.40625 8.859375 
Q 40.234375 -1.421875 26.421875 -1.421875 
Q 22.703125 -1.421875 18.890625 -0.6875 
Q 15.09375 0.046875 10.984375 1.515625 
z
M 30.609375 32.421875 
Q 37.25 32.421875 41.125 36.953125 
Q 45.015625 41.5 45.015625 49.421875 
Q 45.015625 57.28125 41.125 61.84375 
Q 37.25 66.40625 30.609375 66.40625 
Q 23.96875 66.40625 20.09375 61.84375 
Q 16.21875 57.28125 16.21875 49.421875 
Q 16.21875 41.5 20.09375 36.953125 
Q 23.96875 32.421875 30.609375 32.421875 
z
" id="DejaVuSans-57"/>
    </defs>
    <g transform="translate(375.22944 246.689638)scale(0.17 -0.17)">
     <use xlink:href="#DejaVuSans-98"/>
     <use x="63.476562" xlink:href="#DejaVuSans-101"/>
     <use x="125" xlink:href="#DejaVuSans-115"/>
     <use x="177.099609" xlink:href="#DejaVuSans-116"/>
     <use x="216.308594" xlink:href="#DejaVuSans-32"/>
     <use x="248.095703" xlink:href="#DejaVuSans-50"/>
     <use x="311.71875" xlink:href="#DejaVuSans-48"/>
     <use x="375.341797" xlink:href="#DejaVuSans-48"/>
     <use x="438.964844" xlink:href="#DejaVuSans-57"/>
    </g>
   </g>
   <g id="text_15">
    <!-- 200s-2e4 -->
    <g transform="translate(375.22944 195.116537)scale(0.17 -0.17)">
     <use xlink:href="#DejaVuSans-50"/>
     <use x="63.623047" xlink:href="#DejaVuSans-48"/>
     <use x="127.246094" xlink:href="#DejaVuSans-48"/>
     <use x="190.869141" xlink:href="#DejaVuSans-115"/>
     <use x="242.96875" xlink:href="#DejaVuSans-45"/>
     <use x="279.052734" xlink:href="#DejaVuSans-50"/>
     <use x="342.675781" xlink:href="#DejaVuSans-101"/>
     <use x="404.199219" xlink:href="#DejaVuSans-52"/>
    </g>
   </g>
   <g id="text_16">
    <!-- 100-2e4 -->
    <g transform="translate(375.22944 143.543437)scale(0.17 -0.17)">
     <use xlink:href="#DejaVuSans-49"/>
     <use x="63.623047" xlink:href="#DejaVuSans-48"/>
     <use x="127.246094" xlink:href="#DejaVuSans-48"/>
     <use x="190.869141" xlink:href="#DejaVuSans-45"/>
     <use x="226.953125" xlink:href="#DejaVuSans-50"/>
     <use x="290.576172" xlink:href="#DejaVuSans-101"/>
     <use x="352.099609" xlink:href="#DejaVuSans-52"/>
    </g>
   </g>
   <g id="text_17">
    <!-- 100-1e5 -->
    <defs>
     <path d="M 10.796875 72.90625 
L 49.515625 72.90625 
L 49.515625 64.59375 
L 19.828125 64.59375 
L 19.828125 46.734375 
Q 21.96875 47.46875 24.109375 47.828125 
Q 26.265625 48.1875 28.421875 48.1875 
Q 40.625 48.1875 47.75 41.5 
Q 54.890625 34.8125 54.890625 23.390625 
Q 54.890625 11.625 47.5625 5.09375 
Q 40.234375 -1.421875 26.90625 -1.421875 
Q 22.3125 -1.421875 17.546875 -0.640625 
Q 12.796875 0.140625 7.71875 1.703125 
L 7.71875 11.625 
Q 12.109375 9.234375 16.796875 8.0625 
Q 21.484375 6.890625 26.703125 6.890625 
Q 35.15625 6.890625 40.078125 11.328125 
Q 45.015625 15.765625 45.015625 23.390625 
Q 45.015625 31 40.078125 35.4375 
Q 35.15625 39.890625 26.703125 39.890625 
Q 22.75 39.890625 18.8125 39.015625 
Q 14.890625 38.140625 10.796875 36.28125 
z
" id="DejaVuSans-53"/>
    </defs>
    <g transform="translate(375.22944 91.970336)scale(0.17 -0.17)">
     <use xlink:href="#DejaVuSans-49"/>
     <use x="63.623047" xlink:href="#DejaVuSans-48"/>
     <use x="127.246094" xlink:href="#DejaVuSans-48"/>
     <use x="190.869141" xlink:href="#DejaVuSans-45"/>
     <use x="226.953125" xlink:href="#DejaVuSans-49"/>
     <use x="290.576172" xlink:href="#DejaVuSans-101"/>
     <use x="352.099609" xlink:href="#DejaVuSans-53"/>
    </g>
   </g>
   <g id="text_18">
    <!-- 140s-2e4 -->
    <g transform="translate(375.22944 40.397235)scale(0.17 -0.17)">
     <use xlink:href="#DejaVuSans-49"/>
     <use x="63.623047" xlink:href="#DejaVuSans-52"/>
     <use x="127.246094" xlink:href="#DejaVuSans-48"/>
     <use x="190.869141" xlink:href="#DejaVuSans-115"/>
     <use x="242.96875" xlink:href="#DejaVuSans-45"/>
     <use x="279.052734" xlink:href="#DejaVuSans-50"/>
     <use x="342.675781" xlink:href="#DejaVuSans-101"/>
     <use x="404.199219" xlink:href="#DejaVuSans-52"/>
    </g>
   </g>
   <g id="text_19">
    <!-- bbob f11, 10-D -->
    <defs>
     <path d="M 19.671875 64.796875 
L 19.671875 8.109375 
L 31.59375 8.109375 
Q 46.6875 8.109375 53.6875 14.9375 
Q 60.6875 21.78125 60.6875 36.53125 
Q 60.6875 51.171875 53.6875 57.984375 
Q 46.6875 64.796875 31.59375 64.796875 
z
M 9.8125 72.90625 
L 30.078125 72.90625 
Q 51.265625 72.90625 61.171875 64.09375 
Q 71.09375 55.28125 71.09375 36.53125 
Q 71.09375 17.671875 61.125 8.828125 
Q 51.171875 0 30.078125 0 
L 9.8125 0 
z
" id="DejaVuSans-68"/>
    </defs>
    <g transform="translate(60.41088 38.111366)scale(0.102 -0.102)">
     <use xlink:href="#DejaVuSans-98"/>
     <use x="63.476562" xlink:href="#DejaVuSans-98"/>
     <use x="126.953125" xlink:href="#DejaVuSans-111"/>
     <use x="188.134766" xlink:href="#DejaVuSans-98"/>
     <use x="251.611328" xlink:href="#DejaVuSans-32"/>
     <use x="283.398438" xlink:href="#DejaVuSans-102"/>
     <use x="318.603516" xlink:href="#DejaVuSans-49"/>
     <use x="382.226562" xlink:href="#DejaVuSans-49"/>
     <use x="445.849609" xlink:href="#DejaVuSans-44"/>
     <use x="477.636719" xlink:href="#DejaVuSans-32"/>
     <use x="509.423828" xlink:href="#DejaVuSans-49"/>
     <use x="573.046875" xlink:href="#DejaVuSans-48"/>
     <use x="636.669922" xlink:href="#DejaVuSans-45"/>
     <use x="672.753906" xlink:href="#DejaVuSans-68"/>
    </g>
    <!-- 51 targets: 100..1e-08 -->
    <defs>
     <path d="M 11.71875 12.40625 
L 22.015625 12.40625 
L 22.015625 0 
L 11.71875 0 
z
M 11.71875 51.703125 
L 22.015625 51.703125 
L 22.015625 39.3125 
L 11.71875 39.3125 
z
" id="DejaVuSans-58"/>
    </defs>
    <g transform="translate(60.41088 49.533135)scale(0.102 -0.102)">
     <use xlink:href="#DejaVuSans-53"/>
     <use x="63.623047" xlink:href="#DejaVuSans-49"/>
     <use x="127.246094" xlink:href="#DejaVuSans-32"/>
     <use x="159.033203" xlink:href="#DejaVuSans-116"/>
     <use x="198.242188" xlink:href="#DejaVuSans-97"/>
     <use x="259.521484" xlink:href="#DejaVuSans-114"/>
     <use x="300.619141" xlink:href="#DejaVuSans-103"/>
     <use x="364.095703" xlink:href="#DejaVuSans-101"/>
     <use x="425.619141" xlink:href="#DejaVuSans-116"/>
     <use x="464.828125" xlink:href="#DejaVuSans-115"/>
     <use x="516.927734" xlink:href="#DejaVuSans-58"/>
     <use x="550.619141" xlink:href="#DejaVuSans-32"/>
     <use x="582.40625" xlink:href="#DejaVuSans-49"/>
     <use x="646.029297" xlink:href="#DejaVuSans-48"/>
     <use x="709.652344" xlink:href="#DejaVuSans-48"/>
     <use x="773.275391" xlink:href="#DejaVuSans-46"/>
     <use x="805.0625" xlink:href="#DejaVuSans-46"/>
     <use x="836.849609" xlink:href="#DejaVuSans-49"/>
     <use x="900.472656" xlink:href="#DejaVuSans-101"/>
     <use x="961.996094" xlink:href="#DejaVuSans-45"/>
     <use x="998.080078" xlink:href="#DejaVuSans-48"/>
     <use x="1061.703125" xlink:href="#DejaVuSans-56"/>
    </g>
    <!-- 15 instances -->
    <g transform="translate(60.41088 60.954904)scale(0.102 -0.102)">
     <use xlink:href="#DejaVuSans-49"/>
     <use x="63.623047" xlink:href="#DejaVuSans-53"/>
     <use x="127.246094" xlink:href="#DejaVuSans-32"/>
     <use x="159.033203" xlink:href="#DejaVuSans-105"/>
     <use x="186.816406" xlink:href="#DejaVuSans-110"/>
     <use x="250.195312" xlink:href="#DejaVuSans-115"/>
     <use x="302.294922" xlink:href="#DejaVuSans-116"/>
     <use x="341.503906" xlink:href="#DejaVuSans-97"/>
     <use x="402.783203" xlink:href="#DejaVuSans-110"/>
     <use x="466.162109" xlink:href="#DejaVuSans-99"/>
     <use x="521.142578" xlink:href="#DejaVuSans-101"/>
     <use x="582.666016" xlink:href="#DejaVuSans-115"/>
    </g>
   </g>
   <g id="text_20">
    <!-- v2.3.3.18.73 -->
    <defs>
     <path d="M 40.578125 39.3125 
Q 47.65625 37.796875 51.625 33 
Q 55.609375 28.21875 55.609375 21.1875 
Q 55.609375 10.40625 48.1875 4.484375 
Q 40.765625 -1.421875 27.09375 -1.421875 
Q 22.515625 -1.421875 17.65625 -0.515625 
Q 12.796875 0.390625 7.625 2.203125 
L 7.625 11.71875 
Q 11.71875 9.328125 16.59375 8.109375 
Q 21.484375 6.890625 26.8125 6.890625 
Q 36.078125 6.890625 40.9375 10.546875 
Q 45.796875 14.203125 45.796875 21.1875 
Q 45.796875 27.640625 41.28125 31.265625 
Q 36.765625 34.90625 28.71875 34.90625 
L 20.21875 34.90625 
L 20.21875 43.015625 
L 29.109375 43.015625 
Q 36.375 43.015625 40.234375 45.921875 
Q 44.09375 48.828125 44.09375 54.296875 
Q 44.09375 59.90625 40.109375 62.90625 
Q 36.140625 65.921875 28.71875 65.921875 
Q 24.65625 65.921875 20.015625 65.03125 
Q 15.375 64.15625 9.8125 62.3125 
L 9.8125 71.09375 
Q 15.4375 72.65625 20.34375 73.4375 
Q 25.25 74.21875 29.59375 74.21875 
Q 40.828125 74.21875 47.359375 69.109375 
Q 53.90625 64.015625 53.90625 55.328125 
Q 53.90625 49.265625 50.4375 45.09375 
Q 46.96875 40.921875 40.578125 39.3125 
z
" id="DejaVuSans-51"/>
     <path d="M 8.203125 72.90625 
L 55.078125 72.90625 
L 55.078125 68.703125 
L 28.609375 0 
L 18.3125 0 
L 43.21875 64.59375 
L 8.203125 64.59375 
z
" id="DejaVuSans-55"/>
    </defs>
    <g style="fill:#808080;" transform="translate(166.559625 294.151352)scale(0.1 -0.1)">
     <use xlink:href="#DejaVuSans-118"/>
     <use x="59.179688" xlink:href="#DejaVuSans-50"/>
     <use x="122.802734" xlink:href="#DejaVuSans-46"/>
     <use x="154.589844" xlink:href="#DejaVuSans-51"/>
     <use x="218.212891" xlink:href="#DejaVuSans-46"/>
     <use x="250" xlink:href="#DejaVuSans-51"/>
     <use x="313.623047" xlink:href="#DejaVuSans-46"/>
     <use x="345.410156" xlink:href="#DejaVuSans-49"/>
     <use x="409.033203" xlink:href="#DejaVuSans-56"/>
     <use x="472.65625" xlink:href="#DejaVuSans-46"/>
     <use x="504.443359" xlink:href="#DejaVuSans-55"/>
     <use x="568.066406" xlink:href="#DejaVuSans-51"/>
    </g>
   </g>
   <g id="text_21">
    <!-- 11 Discus -->
    <g transform="translate(149.508062 21.648)scale(0.2 -0.2)">
     <use xlink:href="#DejaVuSans-49"/>
     <use x="63.623047" xlink:href="#DejaVuSans-49"/>
     <use x="127.246094" xlink:href="#DejaVuSans-32"/>
     <use x="159.033203" xlink:href="#DejaVuSans-68"/>
     <use x="236.035156" xlink:href="#DejaVuSans-105"/>
     <use x="263.818359" xlink:href="#DejaVuSans-115"/>
     <use x="315.917969" xlink:href="#DejaVuSans-99"/>
     <use x="370.898438" xlink:href="#DejaVuSans-117"/>
     <use x="434.277344" xlink:href="#DejaVuSans-115"/>
    </g>
   </g>
  </g>
 </g>
 <defs>
  <clipPath id="p611d268a2f">
   <rect height="271.296" width="281.088" x="57.6" y="27.648"/>
  </clipPath>
 </defs>
</svg>
