<?xml version="1.0" encoding="utf-8" standalone="no"?>
<!DOCTYPE svg PUBLIC "-//W3C//DTD SVG 1.1//EN"
  "http://www.w3.org/Graphics/SVG/1.1/DTD/svg11.dtd">
<!-- Created with matplotlib (https://matplotlib.org/) -->
<svg height="345.6pt" version="1.1" viewBox="0 0 460.8 345.6" width="460.8pt" xmlns="http://www.w3.org/2000/svg" xmlns:xlink="http://www.w3.org/1999/xlink">
 <defs>
  <style type="text/css">
*{stroke-linecap:butt;stroke-linejoin:round;}
  </style>
 </defs>
 <g id="figure_1">
  <g id="patch_1">
   <path d="M 0 345.6 
L 460.8 345.6 
L 460.8 0 
L 0 0 
z
" style="fill:#ffffff;"/>
  </g>
  <g id="axes_1">
   <g id="patch_2">
    <path d="M 57.6 298.944 
L 338.688 298.944 
L 338.688 27.648 
L 57.6 27.648 
z
" style="fill:#ffffff;"/>
   </g>
   <g id="line2d_1">
    <path d="M 45.512012 298.944 
L 45.512012 225.207949 
L 100.192776 225.207949 
L 100.192776 219.941088 
L 102.330873 219.941088 
L 102.330873 214.674227 
L 108.948899 214.674227 
L 108.948899 209.407366 
L 109.843417 209.407366 
L 109.843417 204.140506 
L 116.019919 204.140506 
L 116.019919 198.873645 
L 116.323218 198.873645 
L 116.323218 193.606784 
L 139.253002 193.606784 
L 139.253002 188.339923 
L 139.413734 188.339923 
L 139.413734 183.073062 
L 139.493548 183.073062 
L 139.493548 177.806202 
L 139.8092 177.806202 
L 139.8092 172.539341 
L 139.887228 172.539341 
L 139.887228 167.27248 
L 140.11924 167.27248 
L 140.11924 162.005619 
L 140.499195 162.005619 
L 140.499195 156.738758 
L 140.574203 156.738758 
L 140.574203 151.471897 
L 140.723258 151.471897 
L 140.723258 146.205037 
L 140.944478 146.205037 
L 140.944478 140.938176 
L 141.090414 140.938176 
L 141.090414 135.671315 
L 141.235139 135.671315 
L 141.235139 125.137593 
L 141.521035 125.137593 
L 141.521035 119.870733 
L 141.732423 119.870733 
L 141.732423 114.603872 
L 141.941279 114.603872 
L 141.941279 109.337011 
L 142.010346 109.337011 
L 142.010346 104.07015 
L 142.419098 104.07015 
L 142.419098 93.536429 
L 142.686372 93.536429 
L 142.686372 88.269568 
L 142.752555 88.269568 
L 142.752555 83.002707 
L 142.949611 83.002707 
L 142.949611 77.735846 
L 143.014805 77.735846 
L 143.014805 72.468985 
L 143.144465 72.468985 
L 143.144465 67.202125 
L 143.464461 67.202125 
L 143.464461 61.935264 
L 143.527762 61.935264 
L 143.527762 56.668403 
L 143.590833 56.668403 
L 143.590833 46.134681 
L 143.653678 46.134681 
L 143.653678 40.867821 
L 143.840863 40.867821 
L 143.840863 35.60096 
L 143.902815 35.60096 
L 143.902815 30.334099 
L 338.688 30.334099 
" style="fill:none;stroke:#f5deb3;stroke-linecap:square;stroke-width:4;"/>
   </g>
   <g id="line2d_2">
    <defs>
     <path d="M -0 7.778175 
L 7.778175 0 
L 0 -7.778175 
L -7.778175 -0 
z
" id="m5967cf02c1" style="stroke:#f5deb3;stroke-linejoin:miter;stroke-width:1.5;"/>
    </defs>
    <g>
     <use style="fill:#f5deb3;stroke:#f5deb3;stroke-linejoin:miter;stroke-width:1.5;" x="116.323218" xlink:href="#m5967cf02c1" y="193.606784"/>
     <use style="fill:#f5deb3;stroke:#f5deb3;stroke-linejoin:miter;stroke-width:1.5;" x="142.010346" xlink:href="#m5967cf02c1" y="104.07015"/>
     <use style="fill:#f5deb3;stroke:#f5deb3;stroke-linejoin:miter;stroke-width:1.5;" x="143.902815" xlink:href="#m5967cf02c1" y="35.60096"/>
     <use style="fill:#f5deb3;stroke:#f5deb3;stroke-linejoin:miter;stroke-width:1.5;" x="143.902815" xlink:href="#m5967cf02c1" y="30.334099"/>
     <use style="fill:#f5deb3;stroke:#f5deb3;stroke-linejoin:miter;stroke-width:1.5;" x="143.902815" xlink:href="#m5967cf02c1" y="30.334099"/>
     <use style="fill:#f5deb3;stroke:#f5deb3;stroke-linejoin:miter;stroke-width:1.5;" x="338.688" xlink:href="#m5967cf02c1" y="30.334099"/>
    </g>
   </g>
   <g id="line2d_3">
    <path style="fill:none;stroke:#f5deb3;stroke-linecap:square;stroke-width:4;"/>
    <g/>
   </g>
   <g id="line2d_4">
    <path d="M 338.688 30.334099 
L 369.60768 35.706297 
" style="fill:none;stroke:#f5deb3;stroke-linecap:square;stroke-width:4;"/>
    <g>
     <use style="fill:#f5deb3;stroke:#f5deb3;stroke-linejoin:miter;stroke-width:1.5;" x="338.688" xlink:href="#m5967cf02c1" y="30.334099"/>
     <use style="fill:#f5deb3;stroke:#f5deb3;stroke-linejoin:miter;stroke-width:1.5;" x="369.60768" xlink:href="#m5967cf02c1" y="35.706297"/>
    </g>
   </g>
   <g id="matplotlib.axis_1">
    <g id="xtick_1">
     <g id="line2d_5">
      <path clip-path="url(#p71cf17448d)" d="M 57.6 298.944 
L 57.6 27.648 
" style="fill:none;stroke:#b0b0b0;stroke-linecap:square;stroke-width:0.8;"/>
     </g>
     <g id="line2d_6">
      <defs>
       <path d="M 0 0 
L 0 3.5 
" id="ma9bb95831e" style="stroke:#000000;stroke-width:0.8;"/>
      </defs>
      <g>
       <use style="stroke:#000000;stroke-width:0.8;" x="57.6" xlink:href="#ma9bb95831e" y="298.944"/>
      </g>
     </g>
     <g id="text_1">
      <!-- 0 -->
      <defs>
       <path d="M 31.78125 66.40625 
Q 24.171875 66.40625 20.328125 58.90625 
Q 16.5 51.421875 16.5 36.375 
Q 16.5 21.390625 20.328125 13.890625 
Q 24.171875 6.390625 31.78125 6.390625 
Q 39.453125 6.390625 43.28125 13.890625 
Q 47.125 21.390625 47.125 36.375 
Q 47.125 51.421875 43.28125 58.90625 
Q 39.453125 66.40625 31.78125 66.40625 
z
M 31.78125 74.21875 
Q 44.046875 74.21875 50.515625 64.515625 
Q 56.984375 54.828125 56.984375 36.375 
Q 56.984375 17.96875 50.515625 8.265625 
Q 44.046875 -1.421875 31.78125 -1.421875 
Q 19.53125 -1.421875 13.0625 8.265625 
Q 6.59375 17.96875 6.59375 36.375 
Q 6.59375 54.828125 13.0625 64.515625 
Q 19.53125 74.21875 31.78125 74.21875 
z
" id="DejaVuSans-48"/>
      </defs>
      <g transform="translate(51.2375 321.140875)scale(0.2 -0.2)">
       <use xlink:href="#DejaVuSans-48"/>
      </g>
     </g>
    </g>
    <g id="xtick_2">
     <g id="line2d_7">
      <path clip-path="url(#p71cf17448d)" d="M 137.910857 298.944 
L 137.910857 27.648 
" style="fill:none;stroke:#b0b0b0;stroke-linecap:square;stroke-width:0.8;"/>
     </g>
     <g id="line2d_8">
      <g>
       <use style="stroke:#000000;stroke-width:0.8;" x="137.910857" xlink:href="#ma9bb95831e" y="298.944"/>
      </g>
     </g>
     <g id="text_2">
      <!-- 2 -->
      <defs>
       <path d="M 19.1875 8.296875 
L 53.609375 8.296875 
L 53.609375 0 
L 7.328125 0 
L 7.328125 8.296875 
Q 12.9375 14.109375 22.625 23.890625 
Q 32.328125 33.6875 34.8125 36.53125 
Q 39.546875 41.84375 41.421875 45.53125 
Q 43.3125 49.21875 43.3125 52.78125 
Q 43.3125 58.59375 39.234375 62.25 
Q 35.15625 65.921875 28.609375 65.921875 
Q 23.96875 65.921875 18.8125 64.3125 
Q 13.671875 62.703125 7.8125 59.421875 
L 7.8125 69.390625 
Q 13.765625 71.78125 18.9375 73 
Q 24.125 74.21875 28.421875 74.21875 
Q 39.75 74.21875 46.484375 68.546875 
Q 53.21875 62.890625 53.21875 53.421875 
Q 53.21875 48.921875 51.53125 44.890625 
Q 49.859375 40.875 45.40625 35.40625 
Q 44.1875 33.984375 37.640625 27.21875 
Q 31.109375 20.453125 19.1875 8.296875 
z
" id="DejaVuSans-50"/>
      </defs>
      <g transform="translate(131.548357 321.140875)scale(0.2 -0.2)">
       <use xlink:href="#DejaVuSans-50"/>
      </g>
     </g>
    </g>
    <g id="xtick_3">
     <g id="line2d_9">
      <path clip-path="url(#p71cf17448d)" d="M 218.221714 298.944 
L 218.221714 27.648 
" style="fill:none;stroke:#b0b0b0;stroke-linecap:square;stroke-width:0.8;"/>
     </g>
     <g id="line2d_10">
      <g>
       <use style="stroke:#000000;stroke-width:0.8;" x="218.221714" xlink:href="#ma9bb95831e" y="298.944"/>
      </g>
     </g>
     <g id="text_3">
      <!-- 4 -->
      <defs>
       <path d="M 37.796875 64.3125 
L 12.890625 25.390625 
L 37.796875 25.390625 
z
M 35.203125 72.90625 
L 47.609375 72.90625 
L 47.609375 25.390625 
L 58.015625 25.390625 
L 58.015625 17.1875 
L 47.609375 17.1875 
L 47.609375 0 
L 37.796875 0 
L 37.796875 17.1875 
L 4.890625 17.1875 
L 4.890625 26.703125 
z
" id="DejaVuSans-52"/>
      </defs>
      <g transform="translate(211.859214 321.140875)scale(0.2 -0.2)">
       <use xlink:href="#DejaVuSans-52"/>
      </g>
     </g>
    </g>
    <g id="xtick_4">
     <g id="line2d_11">
      <path clip-path="url(#p71cf17448d)" d="M 298.532571 298.944 
L 298.532571 27.648 
" style="fill:none;stroke:#b0b0b0;stroke-linecap:square;stroke-width:0.8;"/>
     </g>
     <g id="line2d_12">
      <g>
       <use style="stroke:#000000;stroke-width:0.8;" x="298.532571" xlink:href="#ma9bb95831e" y="298.944"/>
      </g>
     </g>
     <g id="text_4">
      <!-- 6 -->
      <defs>
       <path d="M 33.015625 40.375 
Q 26.375 40.375 22.484375 35.828125 
Q 18.609375 31.296875 18.609375 23.390625 
Q 18.609375 15.53125 22.484375 10.953125 
Q 26.375 6.390625 33.015625 6.390625 
Q 39.65625 6.390625 43.53125 10.953125 
Q 47.40625 15.53125 47.40625 23.390625 
Q 47.40625 31.296875 43.53125 35.828125 
Q 39.65625 40.375 33.015625 40.375 
z
M 52.59375 71.296875 
L 52.59375 62.3125 
Q 48.875 64.0625 45.09375 64.984375 
Q 41.3125 65.921875 37.59375 65.921875 
Q 27.828125 65.921875 22.671875 59.328125 
Q 17.53125 52.734375 16.796875 39.40625 
Q 19.671875 43.65625 24.015625 45.921875 
Q 28.375 48.1875 33.59375 48.1875 
Q 44.578125 48.1875 50.953125 41.515625 
Q 57.328125 34.859375 57.328125 23.390625 
Q 57.328125 12.15625 50.6875 5.359375 
Q 44.046875 -1.421875 33.015625 -1.421875 
Q 20.359375 -1.421875 13.671875 8.265625 
Q 6.984375 17.96875 6.984375 36.375 
Q 6.984375 53.65625 15.1875 63.9375 
Q 23.390625 74.21875 37.203125 74.21875 
Q 40.921875 74.21875 44.703125 73.484375 
Q 48.484375 72.75 52.59375 71.296875 
z
" id="DejaVuSans-54"/>
      </defs>
      <g transform="translate(292.170071 321.140875)scale(0.2 -0.2)">
       <use xlink:href="#DejaVuSans-54"/>
      </g>
     </g>
    </g>
    <g id="xtick_5">
     <g id="line2d_13">
      <path clip-path="url(#p71cf17448d)" d="M 97.755429 298.944 
L 97.755429 27.648 
" style="fill:none;stroke:#b0b0b0;stroke-linecap:square;stroke-width:0.8;"/>
     </g>
     <g id="line2d_14">
      <defs>
       <path d="M 0 0 
L 0 2 
" id="m1d4d83c9c9" style="stroke:#000000;stroke-width:0.6;"/>
      </defs>
      <g>
       <use style="stroke:#000000;stroke-width:0.6;" x="97.755429" xlink:href="#m1d4d83c9c9" y="298.944"/>
      </g>
     </g>
    </g>
    <g id="xtick_6">
     <g id="line2d_15">
      <path clip-path="url(#p71cf17448d)" d="M 178.066286 298.944 
L 178.066286 27.648 
" style="fill:none;stroke:#b0b0b0;stroke-linecap:square;stroke-width:0.8;"/>
     </g>
     <g id="line2d_16">
      <g>
       <use style="stroke:#000000;stroke-width:0.6;" x="178.066286" xlink:href="#m1d4d83c9c9" y="298.944"/>
      </g>
     </g>
    </g>
    <g id="xtick_7">
     <g id="line2d_17">
      <path clip-path="url(#p71cf17448d)" d="M 258.377143 298.944 
L 258.377143 27.648 
" style="fill:none;stroke:#b0b0b0;stroke-linecap:square;stroke-width:0.8;"/>
     </g>
     <g id="line2d_18">
      <g>
       <use style="stroke:#000000;stroke-width:0.6;" x="258.377143" xlink:href="#m1d4d83c9c9" y="298.944"/>
      </g>
     </g>
    </g>
    <g id="xtick_8">
     <g id="line2d_19">
      <path clip-path="url(#p71cf17448d)" d="M 338.688 298.944 
L 338.688 27.648 
" style="fill:none;stroke:#b0b0b0;stroke-linecap:square;stroke-width:0.8;"/>
     </g>
     <g id="line2d_20">
      <g>
       <use style="stroke:#000000;stroke-width:0.6;" x="338.688" xlink:href="#m1d4d83c9c9" y="298.944"/>
      </g>
     </g>
    </g>
    <g id="text_5">
     <!-- log10(# f-evals / dimension) -->
     <defs>
      <path d="M 9.421875 75.984375 
L 18.40625 75.984375 
L 18.40625 0 
L 9.421875 0 
z
" id="DejaVuSans-108"/>
      <path d="M 30.609375 48.390625 
Q 23.390625 48.390625 19.1875 42.75 
Q 14.984375 37.109375 14.984375 27.296875 
Q 14.984375 17.484375 19.15625 11.84375 
Q 23.34375 6.203125 30.609375 6.203125 
Q 37.796875 6.203125 41.984375 11.859375 
Q 46.1875 17.53125 46.1875 27.296875 
Q 46.1875 37.015625 41.984375 42.703125 
Q 37.796875 48.390625 30.609375 48.390625 
z
M 30.609375 56 
Q 42.328125 56 49.015625 48.375 
Q 55.71875 40.765625 55.71875 27.296875 
Q 55.71875 13.875 49.015625 6.21875 
Q 42.328125 -1.421875 30.609375 -1.421875 
Q 18.84375 -1.421875 12.171875 6.21875 
Q 5.515625 13.875 5.515625 27.296875 
Q 5.515625 40.765625 12.171875 48.375 
Q 18.84375 56 30.609375 56 
z
" id="DejaVuSans-111"/>
      <path d="M 45.40625 27.984375 
Q 45.40625 37.75 41.375 43.109375 
Q 37.359375 48.484375 30.078125 48.484375 
Q 22.859375 48.484375 18.828125 43.109375 
Q 14.796875 37.75 14.796875 27.984375 
Q 14.796875 18.265625 18.828125 12.890625 
Q 22.859375 7.515625 30.078125 7.515625 
Q 37.359375 7.515625 41.375 12.890625 
Q 45.40625 18.265625 45.40625 27.984375 
z
M 54.390625 6.78125 
Q 54.390625 -7.171875 48.1875 -13.984375 
Q 42 -20.796875 29.203125 -20.796875 
Q 24.46875 -20.796875 20.265625 -20.09375 
Q 16.0625 -19.390625 12.109375 -17.921875 
L 12.109375 -9.1875 
Q 16.0625 -11.328125 19.921875 -12.34375 
Q 23.78125 -13.375 27.78125 -13.375 
Q 36.625 -13.375 41.015625 -8.765625 
Q 45.40625 -4.15625 45.40625 5.171875 
L 45.40625 9.625 
Q 42.625 4.78125 38.28125 2.390625 
Q 33.9375 0 27.875 0 
Q 17.828125 0 11.671875 7.65625 
Q 5.515625 15.328125 5.515625 27.984375 
Q 5.515625 40.671875 11.671875 48.328125 
Q 17.828125 56 27.875 56 
Q 33.9375 56 38.28125 53.609375 
Q 42.625 51.21875 45.40625 46.390625 
L 45.40625 54.6875 
L 54.390625 54.6875 
z
" id="DejaVuSans-103"/>
      <path d="M 12.40625 8.296875 
L 28.515625 8.296875 
L 28.515625 63.921875 
L 10.984375 60.40625 
L 10.984375 69.390625 
L 28.421875 72.90625 
L 38.28125 72.90625 
L 38.28125 8.296875 
L 54.390625 8.296875 
L 54.390625 0 
L 12.40625 0 
z
" id="DejaVuSans-49"/>
      <path d="M 31 75.875 
Q 24.46875 64.65625 21.28125 53.65625 
Q 18.109375 42.671875 18.109375 31.390625 
Q 18.109375 20.125 21.3125 9.0625 
Q 24.515625 -2 31 -13.1875 
L 23.1875 -13.1875 
Q 15.875 -1.703125 12.234375 9.375 
Q 8.59375 20.453125 8.59375 31.390625 
Q 8.59375 42.28125 12.203125 53.3125 
Q 15.828125 64.359375 23.1875 75.875 
z
" id="DejaVuSans-40"/>
      <path d="M 51.125 44 
L 36.921875 44 
L 32.8125 27.6875 
L 47.125 27.6875 
z
M 43.796875 71.78125 
L 38.71875 51.515625 
L 52.984375 51.515625 
L 58.109375 71.78125 
L 65.921875 71.78125 
L 60.890625 51.515625 
L 76.125 51.515625 
L 76.125 44 
L 58.984375 44 
L 54.984375 27.6875 
L 70.515625 27.6875 
L 70.515625 20.21875 
L 53.078125 20.21875 
L 48 0 
L 40.1875 0 
L 45.21875 20.21875 
L 30.90625 20.21875 
L 25.875 0 
L 18.015625 0 
L 23.09375 20.21875 
L 7.71875 20.21875 
L 7.71875 27.6875 
L 24.90625 27.6875 
L 29 44 
L 13.28125 44 
L 13.28125 51.515625 
L 30.90625 51.515625 
L 35.890625 71.78125 
z
" id="DejaVuSans-35"/>
      <path id="DejaVuSans-32"/>
      <path d="M 37.109375 75.984375 
L 37.109375 68.5 
L 28.515625 68.5 
Q 23.6875 68.5 21.796875 66.546875 
Q 19.921875 64.59375 19.921875 59.515625 
L 19.921875 54.6875 
L 34.71875 54.6875 
L 34.71875 47.703125 
L 19.921875 47.703125 
L 19.921875 0 
L 10.890625 0 
L 10.890625 47.703125 
L 2.296875 47.703125 
L 2.296875 54.6875 
L 10.890625 54.6875 
L 10.890625 58.5 
Q 10.890625 67.625 15.140625 71.796875 
Q 19.390625 75.984375 28.609375 75.984375 
z
" id="DejaVuSans-102"/>
      <path d="M 4.890625 31.390625 
L 31.203125 31.390625 
L 31.203125 23.390625 
L 4.890625 23.390625 
z
" id="DejaVuSans-45"/>
      <path d="M 56.203125 29.59375 
L 56.203125 25.203125 
L 14.890625 25.203125 
Q 15.484375 15.921875 20.484375 11.0625 
Q 25.484375 6.203125 34.421875 6.203125 
Q 39.59375 6.203125 44.453125 7.46875 
Q 49.3125 8.734375 54.109375 11.28125 
L 54.109375 2.78125 
Q 49.265625 0.734375 44.1875 -0.34375 
Q 39.109375 -1.421875 33.890625 -1.421875 
Q 20.796875 -1.421875 13.15625 6.1875 
Q 5.515625 13.8125 5.515625 26.8125 
Q 5.515625 40.234375 12.765625 48.109375 
Q 20.015625 56 32.328125 56 
Q 43.359375 56 49.78125 48.890625 
Q 56.203125 41.796875 56.203125 29.59375 
z
M 47.21875 32.234375 
Q 47.125 39.59375 43.09375 43.984375 
Q 39.0625 48.390625 32.421875 48.390625 
Q 24.90625 48.390625 20.390625 44.140625 
Q 15.875 39.890625 15.1875 32.171875 
z
" id="DejaVuSans-101"/>
      <path d="M 2.984375 54.6875 
L 12.5 54.6875 
L 29.59375 8.796875 
L 46.6875 54.6875 
L 56.203125 54.6875 
L 35.6875 0 
L 23.484375 0 
z
" id="DejaVuSans-118"/>
      <path d="M 34.28125 27.484375 
Q 23.390625 27.484375 19.1875 25 
Q 14.984375 22.515625 14.984375 16.5 
Q 14.984375 11.71875 18.140625 8.90625 
Q 21.296875 6.109375 26.703125 6.109375 
Q 34.1875 6.109375 38.703125 11.40625 
Q 43.21875 16.703125 43.21875 25.484375 
L 43.21875 27.484375 
z
M 52.203125 31.203125 
L 52.203125 0 
L 43.21875 0 
L 43.21875 8.296875 
Q 40.140625 3.328125 35.546875 0.953125 
Q 30.953125 -1.421875 24.3125 -1.421875 
Q 15.921875 -1.421875 10.953125 3.296875 
Q 6 8.015625 6 15.921875 
Q 6 25.140625 12.171875 29.828125 
Q 18.359375 34.515625 30.609375 34.515625 
L 43.21875 34.515625 
L 43.21875 35.40625 
Q 43.21875 41.609375 39.140625 45 
Q 35.0625 48.390625 27.6875 48.390625 
Q 23 48.390625 18.546875 47.265625 
Q 14.109375 46.140625 10.015625 43.890625 
L 10.015625 52.203125 
Q 14.9375 54.109375 19.578125 55.046875 
Q 24.21875 56 28.609375 56 
Q 40.484375 56 46.34375 49.84375 
Q 52.203125 43.703125 52.203125 31.203125 
z
" id="DejaVuSans-97"/>
      <path d="M 44.28125 53.078125 
L 44.28125 44.578125 
Q 40.484375 46.53125 36.375 47.5 
Q 32.28125 48.484375 27.875 48.484375 
Q 21.1875 48.484375 17.84375 46.4375 
Q 14.5 44.390625 14.5 40.28125 
Q 14.5 37.15625 16.890625 35.375 
Q 19.28125 33.59375 26.515625 31.984375 
L 29.59375 31.296875 
Q 39.15625 29.25 43.1875 25.515625 
Q 47.21875 21.78125 47.21875 15.09375 
Q 47.21875 7.46875 41.1875 3.015625 
Q 35.15625 -1.421875 24.609375 -1.421875 
Q 20.21875 -1.421875 15.453125 -0.5625 
Q 10.6875 0.296875 5.421875 2 
L 5.421875 11.28125 
Q 10.40625 8.6875 15.234375 7.390625 
Q 20.0625 6.109375 24.8125 6.109375 
Q 31.15625 6.109375 34.5625 8.28125 
Q 37.984375 10.453125 37.984375 14.40625 
Q 37.984375 18.0625 35.515625 20.015625 
Q 33.0625 21.96875 24.703125 23.78125 
L 21.578125 24.515625 
Q 13.234375 26.265625 9.515625 29.90625 
Q 5.8125 33.546875 5.8125 39.890625 
Q 5.8125 47.609375 11.28125 51.796875 
Q 16.75 56 26.8125 56 
Q 31.78125 56 36.171875 55.265625 
Q 40.578125 54.546875 44.28125 53.078125 
z
" id="DejaVuSans-115"/>
      <path d="M 25.390625 72.90625 
L 33.6875 72.90625 
L 8.296875 -9.28125 
L 0 -9.28125 
z
" id="DejaVuSans-47"/>
      <path d="M 45.40625 46.390625 
L 45.40625 75.984375 
L 54.390625 75.984375 
L 54.390625 0 
L 45.40625 0 
L 45.40625 8.203125 
Q 42.578125 3.328125 38.25 0.953125 
Q 33.9375 -1.421875 27.875 -1.421875 
Q 17.96875 -1.421875 11.734375 6.484375 
Q 5.515625 14.40625 5.515625 27.296875 
Q 5.515625 40.1875 11.734375 48.09375 
Q 17.96875 56 27.875 56 
Q 33.9375 56 38.25 53.625 
Q 42.578125 51.265625 45.40625 46.390625 
z
M 14.796875 27.296875 
Q 14.796875 17.390625 18.875 11.75 
Q 22.953125 6.109375 30.078125 6.109375 
Q 37.203125 6.109375 41.296875 11.75 
Q 45.40625 17.390625 45.40625 27.296875 
Q 45.40625 37.203125 41.296875 42.84375 
Q 37.203125 48.484375 30.078125 48.484375 
Q 22.953125 48.484375 18.875 42.84375 
Q 14.796875 37.203125 14.796875 27.296875 
z
" id="DejaVuSans-100"/>
      <path d="M 9.421875 54.6875 
L 18.40625 54.6875 
L 18.40625 0 
L 9.421875 0 
z
M 9.421875 75.984375 
L 18.40625 75.984375 
L 18.40625 64.59375 
L 9.421875 64.59375 
z
" id="DejaVuSans-105"/>
      <path d="M 52 44.1875 
Q 55.375 50.25 60.0625 53.125 
Q 64.75 56 71.09375 56 
Q 79.640625 56 84.28125 50.015625 
Q 88.921875 44.046875 88.921875 33.015625 
L 88.921875 0 
L 79.890625 0 
L 79.890625 32.71875 
Q 79.890625 40.578125 77.09375 44.375 
Q 74.3125 48.1875 68.609375 48.1875 
Q 61.625 48.1875 57.5625 43.546875 
Q 53.515625 38.921875 53.515625 30.90625 
L 53.515625 0 
L 44.484375 0 
L 44.484375 32.71875 
Q 44.484375 40.625 41.703125 44.40625 
Q 38.921875 48.1875 33.109375 48.1875 
Q 26.21875 48.1875 22.15625 43.53125 
Q 18.109375 38.875 18.109375 30.90625 
L 18.109375 0 
L 9.078125 0 
L 9.078125 54.6875 
L 18.109375 54.6875 
L 18.109375 46.1875 
Q 21.1875 51.21875 25.484375 53.609375 
Q 29.78125 56 35.6875 56 
Q 41.65625 56 45.828125 52.96875 
Q 50 49.953125 52 44.1875 
z
" id="DejaVuSans-109"/>
      <path d="M 54.890625 33.015625 
L 54.890625 0 
L 45.90625 0 
L 45.90625 32.71875 
Q 45.90625 40.484375 42.875 44.328125 
Q 39.84375 48.1875 33.796875 48.1875 
Q 26.515625 48.1875 22.3125 43.546875 
Q 18.109375 38.921875 18.109375 30.90625 
L 18.109375 0 
L 9.078125 0 
L 9.078125 54.6875 
L 18.109375 54.6875 
L 18.109375 46.1875 
Q 21.34375 51.125 25.703125 53.5625 
Q 30.078125 56 35.796875 56 
Q 45.21875 56 50.046875 50.171875 
Q 54.890625 44.34375 54.890625 33.015625 
z
" id="DejaVuSans-110"/>
      <path d="M 8.015625 75.875 
L 15.828125 75.875 
Q 23.140625 64.359375 26.78125 53.3125 
Q 30.421875 42.28125 30.421875 31.390625 
Q 30.421875 20.453125 26.78125 9.375 
Q 23.140625 -1.703125 15.828125 -13.1875 
L 8.015625 -13.1875 
Q 14.5 -2 17.703125 9.0625 
Q 20.90625 20.125 20.90625 31.390625 
Q 20.90625 42.671875 17.703125 53.65625 
Q 14.5 64.65625 8.015625 75.875 
z
" id="DejaVuSans-41"/>
     </defs>
     <g transform="translate(77.303219 342.217594)scale(0.17 -0.17)">
      <use xlink:href="#DejaVuSans-108"/>
      <use x="27.783203" xlink:href="#DejaVuSans-111"/>
      <use x="88.964844" xlink:href="#DejaVuSans-103"/>
      <use x="152.441406" xlink:href="#DejaVuSans-49"/>
      <use x="216.064453" xlink:href="#DejaVuSans-48"/>
      <use x="279.6875" xlink:href="#DejaVuSans-40"/>
      <use x="318.701172" xlink:href="#DejaVuSans-35"/>
      <use x="402.490234" xlink:href="#DejaVuSans-32"/>
      <use x="434.277344" xlink:href="#DejaVuSans-102"/>
      <use x="469.404297" xlink:href="#DejaVuSans-45"/>
      <use x="505.488281" xlink:href="#DejaVuSans-101"/>
      <use x="567.011719" xlink:href="#DejaVuSans-118"/>
      <use x="626.191406" xlink:href="#DejaVuSans-97"/>
      <use x="687.470703" xlink:href="#DejaVuSans-108"/>
      <use x="715.253906" xlink:href="#DejaVuSans-115"/>
      <use x="767.353516" xlink:href="#DejaVuSans-32"/>
      <use x="799.140625" xlink:href="#DejaVuSans-47"/>
      <use x="832.832031" xlink:href="#DejaVuSans-32"/>
      <use x="864.619141" xlink:href="#DejaVuSans-100"/>
      <use x="928.095703" xlink:href="#DejaVuSans-105"/>
      <use x="955.878906" xlink:href="#DejaVuSans-109"/>
      <use x="1053.291016" xlink:href="#DejaVuSans-101"/>
      <use x="1114.814453" xlink:href="#DejaVuSans-110"/>
      <use x="1178.193359" xlink:href="#DejaVuSans-115"/>
      <use x="1230.292969" xlink:href="#DejaVuSans-105"/>
      <use x="1258.076172" xlink:href="#DejaVuSans-111"/>
      <use x="1319.257812" xlink:href="#DejaVuSans-110"/>
      <use x="1382.636719" xlink:href="#DejaVuSans-41"/>
     </g>
    </g>
   </g>
   <g id="matplotlib.axis_2">
    <g id="ytick_1">
     <g id="line2d_21">
      <path clip-path="url(#p71cf17448d)" d="M 57.6 298.944 
L 338.688 298.944 
" style="fill:none;stroke:#b0b0b0;stroke-linecap:square;stroke-width:0.8;"/>
     </g>
     <g id="line2d_22">
      <defs>
       <path d="M 0 0 
L -3.5 0 
" id="m118b5869c0" style="stroke:#000000;stroke-width:0.8;"/>
      </defs>
      <g>
       <use style="stroke:#000000;stroke-width:0.8;" x="57.6" xlink:href="#m118b5869c0" y="298.944"/>
      </g>
     </g>
     <g id="text_6">
      <!-- 0.0 -->
      <defs>
       <path d="M 10.6875 12.40625 
L 21 12.40625 
L 21 0 
L 10.6875 0 
z
" id="DejaVuSans-46"/>
      </defs>
      <g transform="translate(25.155 305.02275)scale(0.16 -0.16)">
       <use xlink:href="#DejaVuSans-48"/>
       <use x="63.623047" xlink:href="#DejaVuSans-46"/>
       <use x="95.410156" xlink:href="#DejaVuSans-48"/>
      </g>
     </g>
    </g>
    <g id="ytick_2">
     <g id="line2d_23">
      <path clip-path="url(#p71cf17448d)" d="M 57.6 245.22202 
L 338.688 245.22202 
" style="fill:none;stroke:#b0b0b0;stroke-linecap:square;stroke-width:0.8;"/>
     </g>
     <g id="line2d_24">
      <g>
       <use style="stroke:#000000;stroke-width:0.8;" x="57.6" xlink:href="#m118b5869c0" y="245.22202"/>
      </g>
     </g>
     <g id="text_7">
      <!-- 0.2 -->
      <g transform="translate(25.155 251.30077)scale(0.16 -0.16)">
       <use xlink:href="#DejaVuSans-48"/>
       <use x="63.623047" xlink:href="#DejaVuSans-46"/>
       <use x="95.410156" xlink:href="#DejaVuSans-50"/>
      </g>
     </g>
    </g>
    <g id="ytick_3">
     <g id="line2d_25">
      <path clip-path="url(#p71cf17448d)" d="M 57.6 191.50004 
L 338.688 191.50004 
" style="fill:none;stroke:#b0b0b0;stroke-linecap:square;stroke-width:0.8;"/>
     </g>
     <g id="line2d_26">
      <g>
       <use style="stroke:#000000;stroke-width:0.8;" x="57.6" xlink:href="#m118b5869c0" y="191.50004"/>
      </g>
     </g>
     <g id="text_8">
      <!-- 0.4 -->
      <g transform="translate(25.155 197.57879)scale(0.16 -0.16)">
       <use xlink:href="#DejaVuSans-48"/>
       <use x="63.623047" xlink:href="#DejaVuSans-46"/>
       <use x="95.410156" xlink:href="#DejaVuSans-52"/>
      </g>
     </g>
    </g>
    <g id="ytick_4">
     <g id="line2d_27">
      <path clip-path="url(#p71cf17448d)" d="M 57.6 137.778059 
L 338.688 137.778059 
" style="fill:none;stroke:#b0b0b0;stroke-linecap:square;stroke-width:0.8;"/>
     </g>
     <g id="line2d_28">
      <g>
       <use style="stroke:#000000;stroke-width:0.8;" x="57.6" xlink:href="#m118b5869c0" y="137.778059"/>
      </g>
     </g>
     <g id="text_9">
      <!-- 0.6 -->
      <g transform="translate(25.155 143.856809)scale(0.16 -0.16)">
       <use xlink:href="#DejaVuSans-48"/>
       <use x="63.623047" xlink:href="#DejaVuSans-46"/>
       <use x="95.410156" xlink:href="#DejaVuSans-54"/>
      </g>
     </g>
    </g>
    <g id="ytick_5">
     <g id="line2d_29">
      <path clip-path="url(#p71cf17448d)" d="M 57.6 84.056079 
L 338.688 84.056079 
" style="fill:none;stroke:#b0b0b0;stroke-linecap:square;stroke-width:0.8;"/>
     </g>
     <g id="line2d_30">
      <g>
       <use style="stroke:#000000;stroke-width:0.8;" x="57.6" xlink:href="#m118b5869c0" y="84.056079"/>
      </g>
     </g>
     <g id="text_10">
      <!-- 0.8 -->
      <defs>
       <path d="M 31.78125 34.625 
Q 24.75 34.625 20.71875 30.859375 
Q 16.703125 27.09375 16.703125 20.515625 
Q 16.703125 13.921875 20.71875 10.15625 
Q 24.75 6.390625 31.78125 6.390625 
Q 38.8125 6.390625 42.859375 10.171875 
Q 46.921875 13.96875 46.921875 20.515625 
Q 46.921875 27.09375 42.890625 30.859375 
Q 38.875 34.625 31.78125 34.625 
z
M 21.921875 38.8125 
Q 15.578125 40.375 12.03125 44.71875 
Q 8.5 49.078125 8.5 55.328125 
Q 8.5 64.0625 14.71875 69.140625 
Q 20.953125 74.21875 31.78125 74.21875 
Q 42.671875 74.21875 48.875 69.140625 
Q 55.078125 64.0625 55.078125 55.328125 
Q 55.078125 49.078125 51.53125 44.71875 
Q 48 40.375 41.703125 38.8125 
Q 48.828125 37.15625 52.796875 32.3125 
Q 56.78125 27.484375 56.78125 20.515625 
Q 56.78125 9.90625 50.3125 4.234375 
Q 43.84375 -1.421875 31.78125 -1.421875 
Q 19.734375 -1.421875 13.25 4.234375 
Q 6.78125 9.90625 6.78125 20.515625 
Q 6.78125 27.484375 10.78125 32.3125 
Q 14.796875 37.15625 21.921875 38.8125 
z
M 18.3125 54.390625 
Q 18.3125 48.734375 21.84375 45.5625 
Q 25.390625 42.390625 31.78125 42.390625 
Q 38.140625 42.390625 41.71875 45.5625 
Q 45.3125 48.734375 45.3125 54.390625 
Q 45.3125 60.0625 41.71875 63.234375 
Q 38.140625 66.40625 31.78125 66.40625 
Q 25.390625 66.40625 21.84375 63.234375 
Q 18.3125 60.0625 18.3125 54.390625 
z
" id="DejaVuSans-56"/>
      </defs>
      <g transform="translate(25.155 90.134829)scale(0.16 -0.16)">
       <use xlink:href="#DejaVuSans-48"/>
       <use x="63.623047" xlink:href="#DejaVuSans-46"/>
       <use x="95.410156" xlink:href="#DejaVuSans-56"/>
      </g>
     </g>
    </g>
    <g id="ytick_6">
     <g id="line2d_31">
      <path clip-path="url(#p71cf17448d)" d="M 57.6 30.334099 
L 338.688 30.334099 
" style="fill:none;stroke:#b0b0b0;stroke-linecap:square;stroke-width:0.8;"/>
     </g>
     <g id="line2d_32">
      <g>
       <use style="stroke:#000000;stroke-width:0.8;" x="57.6" xlink:href="#m118b5869c0" y="30.334099"/>
      </g>
     </g>
     <g id="text_11">
      <!-- 1.0 -->
      <g transform="translate(25.155 36.412849)scale(0.16 -0.16)">
       <use xlink:href="#DejaVuSans-49"/>
       <use x="63.623047" xlink:href="#DejaVuSans-46"/>
       <use x="95.410156" xlink:href="#DejaVuSans-48"/>
      </g>
     </g>
    </g>
    <g id="text_12">
     <!-- Fraction of function,target pairs -->
     <defs>
      <path d="M 9.8125 72.90625 
L 51.703125 72.90625 
L 51.703125 64.59375 
L 19.671875 64.59375 
L 19.671875 43.109375 
L 48.578125 43.109375 
L 48.578125 34.8125 
L 19.671875 34.8125 
L 19.671875 0 
L 9.8125 0 
z
" id="DejaVuSans-70"/>
      <path d="M 41.109375 46.296875 
Q 39.59375 47.171875 37.8125 47.578125 
Q 36.03125 48 33.890625 48 
Q 26.265625 48 22.1875 43.046875 
Q 18.109375 38.09375 18.109375 28.8125 
L 18.109375 0 
L 9.078125 0 
L 9.078125 54.6875 
L 18.109375 54.6875 
L 18.109375 46.1875 
Q 20.953125 51.171875 25.484375 53.578125 
Q 30.03125 56 36.53125 56 
Q 37.453125 56 38.578125 55.875 
Q 39.703125 55.765625 41.0625 55.515625 
z
" id="DejaVuSans-114"/>
      <path d="M 48.78125 52.59375 
L 48.78125 44.1875 
Q 44.96875 46.296875 41.140625 47.34375 
Q 37.3125 48.390625 33.40625 48.390625 
Q 24.65625 48.390625 19.8125 42.84375 
Q 14.984375 37.3125 14.984375 27.296875 
Q 14.984375 17.28125 19.8125 11.734375 
Q 24.65625 6.203125 33.40625 6.203125 
Q 37.3125 6.203125 41.140625 7.25 
Q 44.96875 8.296875 48.78125 10.40625 
L 48.78125 2.09375 
Q 45.015625 0.34375 40.984375 -0.53125 
Q 36.96875 -1.421875 32.421875 -1.421875 
Q 20.0625 -1.421875 12.78125 6.34375 
Q 5.515625 14.109375 5.515625 27.296875 
Q 5.515625 40.671875 12.859375 48.328125 
Q 20.21875 56 33.015625 56 
Q 37.15625 56 41.109375 55.140625 
Q 45.0625 54.296875 48.78125 52.59375 
z
" id="DejaVuSans-99"/>
      <path d="M 18.3125 70.21875 
L 18.3125 54.6875 
L 36.8125 54.6875 
L 36.8125 47.703125 
L 18.3125 47.703125 
L 18.3125 18.015625 
Q 18.3125 11.328125 20.140625 9.421875 
Q 21.96875 7.515625 27.59375 7.515625 
L 36.8125 7.515625 
L 36.8125 0 
L 27.59375 0 
Q 17.1875 0 13.234375 3.875 
Q 9.28125 7.765625 9.28125 18.015625 
L 9.28125 47.703125 
L 2.6875 47.703125 
L 2.6875 54.6875 
L 9.28125 54.6875 
L 9.28125 70.21875 
z
" id="DejaVuSans-116"/>
      <path d="M 8.5 21.578125 
L 8.5 54.6875 
L 17.484375 54.6875 
L 17.484375 21.921875 
Q 17.484375 14.15625 20.5 10.265625 
Q 23.53125 6.390625 29.59375 6.390625 
Q 36.859375 6.390625 41.078125 11.03125 
Q 45.3125 15.671875 45.3125 23.6875 
L 45.3125 54.6875 
L 54.296875 54.6875 
L 54.296875 0 
L 45.3125 0 
L 45.3125 8.40625 
Q 42.046875 3.421875 37.71875 1 
Q 33.40625 -1.421875 27.6875 -1.421875 
Q 18.265625 -1.421875 13.375 4.4375 
Q 8.5 10.296875 8.5 21.578125 
z
M 31.109375 56 
z
" id="DejaVuSans-117"/>
      <path d="M 11.71875 12.40625 
L 22.015625 12.40625 
L 22.015625 4 
L 14.015625 -11.625 
L 7.71875 -11.625 
L 11.71875 4 
z
" id="DejaVuSans-44"/>
      <path d="M 18.109375 8.203125 
L 18.109375 -20.796875 
L 9.078125 -20.796875 
L 9.078125 54.6875 
L 18.109375 54.6875 
L 18.109375 46.390625 
Q 20.953125 51.265625 25.265625 53.625 
Q 29.59375 56 35.59375 56 
Q 45.5625 56 51.78125 48.09375 
Q 58.015625 40.1875 58.015625 27.296875 
Q 58.015625 14.40625 51.78125 6.484375 
Q 45.5625 -1.421875 35.59375 -1.421875 
Q 29.59375 -1.421875 25.265625 0.953125 
Q 20.953125 3.328125 18.109375 8.203125 
z
M 48.6875 27.296875 
Q 48.6875 37.203125 44.609375 42.84375 
Q 40.53125 48.484375 33.40625 48.484375 
Q 26.265625 48.484375 22.1875 42.84375 
Q 18.109375 37.203125 18.109375 27.296875 
Q 18.109375 17.390625 22.1875 11.75 
Q 26.265625 6.109375 33.40625 6.109375 
Q 40.53125 6.109375 44.609375 11.75 
Q 48.6875 17.390625 48.6875 27.296875 
z
" id="DejaVuSans-112"/>
     </defs>
     <g transform="translate(17.619531 298.435375)rotate(-90)scale(0.17 -0.17)">
      <use xlink:href="#DejaVuSans-70"/>
      <use x="57.410156" xlink:href="#DejaVuSans-114"/>
      <use x="98.523438" xlink:href="#DejaVuSans-97"/>
      <use x="159.802734" xlink:href="#DejaVuSans-99"/>
      <use x="214.783203" xlink:href="#DejaVuSans-116"/>
      <use x="253.992188" xlink:href="#DejaVuSans-105"/>
      <use x="281.775391" xlink:href="#DejaVuSans-111"/>
      <use x="342.957031" xlink:href="#DejaVuSans-110"/>
      <use x="406.335938" xlink:href="#DejaVuSans-32"/>
      <use x="438.123047" xlink:href="#DejaVuSans-111"/>
      <use x="499.304688" xlink:href="#DejaVuSans-102"/>
      <use x="534.509766" xlink:href="#DejaVuSans-32"/>
      <use x="566.296875" xlink:href="#DejaVuSans-102"/>
      <use x="601.501953" xlink:href="#DejaVuSans-117"/>
      <use x="664.880859" xlink:href="#DejaVuSans-110"/>
      <use x="728.259766" xlink:href="#DejaVuSans-99"/>
      <use x="783.240234" xlink:href="#DejaVuSans-116"/>
      <use x="822.449219" xlink:href="#DejaVuSans-105"/>
      <use x="850.232422" xlink:href="#DejaVuSans-111"/>
      <use x="911.414062" xlink:href="#DejaVuSans-110"/>
      <use x="974.792969" xlink:href="#DejaVuSans-44"/>
      <use x="1006.580078" xlink:href="#DejaVuSans-116"/>
      <use x="1045.789062" xlink:href="#DejaVuSans-97"/>
      <use x="1107.068359" xlink:href="#DejaVuSans-114"/>
      <use x="1148.166016" xlink:href="#DejaVuSans-103"/>
      <use x="1211.642578" xlink:href="#DejaVuSans-101"/>
      <use x="1273.166016" xlink:href="#DejaVuSans-116"/>
      <use x="1312.375" xlink:href="#DejaVuSans-32"/>
      <use x="1344.162109" xlink:href="#DejaVuSans-112"/>
      <use x="1407.638672" xlink:href="#DejaVuSans-97"/>
      <use x="1468.917969" xlink:href="#DejaVuSans-105"/>
      <use x="1496.701172" xlink:href="#DejaVuSans-114"/>
      <use x="1537.814453" xlink:href="#DejaVuSans-115"/>
     </g>
    </g>
   </g>
   <g id="line2d_33">
    <defs>
     <path d="M 0 1.5 
C 0.397805 1.5 0.77937 1.341951 1.06066 1.06066 
C 1.341951 0.77937 1.5 0.397805 1.5 0 
C 1.5 -0.397805 1.341951 -0.77937 1.06066 -1.06066 
C 0.77937 -1.341951 0.397805 -1.5 0 -1.5 
C -0.397805 -1.5 -0.77937 -1.341951 -1.06066 -1.06066 
C -1.341951 -0.77937 -1.5 -0.397805 -1.5 0 
C -1.5 0.397805 -1.341951 0.77937 -1.06066 1.06066 
C -0.77937 1.341951 -0.397805 1.5 0 1.5 
z
" id="maf2f6be914" style="stroke:#f5deb3;"/>
    </defs>
    <g>
     <use style="fill:#f5deb3;stroke:#f5deb3;" x="143.902815" xlink:href="#maf2f6be914" y="30.334099"/>
     <use style="fill:#f5deb3;stroke:#f5deb3;" x="143.902815" xlink:href="#maf2f6be914" y="30.334099"/>
    </g>
   </g>
   <g id="line2d_34">
    <defs>
     <path d="M 0 1.5 
C 0.397805 1.5 0.77937 1.341951 1.06066 1.06066 
C 1.341951 0.77937 1.5 0.397805 1.5 0 
C 1.5 -0.397805 1.341951 -0.77937 1.06066 -1.06066 
C 0.77937 -1.341951 0.397805 -1.5 0 -1.5 
C -0.397805 -1.5 -0.77937 -1.341951 -1.06066 -1.06066 
C -1.341951 -0.77937 -1.5 -0.397805 -1.5 0 
C -1.5 0.397805 -1.341951 0.77937 -1.06066 1.06066 
C -0.77937 1.341951 -0.397805 1.5 0 1.5 
z
" id="mef516e26b7" style="stroke:#000080;"/>
    </defs>
    <g>
     <use style="fill:#000080;stroke:#000080;" x="212.257524" xlink:href="#mef516e26b7" y="30.334099"/>
     <use style="fill:#000080;stroke:#000080;" x="212.257524" xlink:href="#mef516e26b7" y="30.334099"/>
    </g>
   </g>
   <g id="line2d_35">
    <path d="M 45.512012 298.944 
L 45.512012 225.207949 
L 76.759008 225.207949 
L 76.759008 224.681263 
L 99.41757 224.681263 
L 99.41757 223.101204 
L 102.330873 223.101204 
L 102.330873 222.574518 
L 102.989037 222.574518 
L 102.989037 218.36103 
L 109.401893 218.36103 
L 109.401893 216.780971 
L 110.274038 216.780971 
L 110.274038 215.727599 
L 112.280765 215.727599 
L 112.280765 215.200913 
L 113.73488 215.200913 
L 113.73488 214.674227 
L 116.914437 214.674227 
L 116.914437 211.514111 
L 117.765302 211.514111 
L 117.765302 209.934052 
L 118.310324 209.934052 
L 118.310324 209.407366 
L 120.8059 209.407366 
L 120.8059 208.353994 
L 121.489881 208.353994 
L 121.489881 207.300622 
L 122.573415 207.300622 
L 122.573415 205.720564 
L 123.790603 205.720564 
L 123.790603 204.140506 
L 127.165014 204.140506 
L 127.165014 203.087133 
L 127.325746 203.087133 
L 127.325746 202.033761 
L 127.48501 202.033761 
L 127.48501 201.507075 
L 127.642832 201.507075 
L 127.642832 200.980389 
L 129.147151 200.980389 
L 129.147151 200.453703 
L 129.574256 200.453703 
L 129.574256 199.927017 
L 130.127931 199.927017 
L 130.127931 199.400331 
L 132.422528 199.400331 
L 132.422528 197.820273 
L 133.800029 197.820273 
L 133.800029 195.713528 
L 136.831795 195.713528 
L 136.831795 195.186842 
L 137.198951 195.186842 
L 137.198951 193.606784 
L 139.009092 193.606784 
L 139.009092 191.50004 
L 139.172077 191.50004 
L 139.172077 189.919981 
L 139.572998 189.919981 
L 139.572998 188.866609 
L 140.423864 188.866609 
L 140.423864 187.813237 
L 140.574203 187.813237 
L 140.574203 186.759865 
L 140.79731 186.759865 
L 140.79731 185.706493 
L 141.521035 185.706493 
L 141.521035 184.653121 
L 141.662245 184.653121 
L 141.662245 184.126434 
L 142.010346 184.126434 
L 142.010346 183.073062 
L 142.351634 183.073062 
L 142.351634 182.546376 
L 142.486301 182.546376 
L 142.486301 181.493004 
L 142.619936 181.493004 
L 142.619936 176.752829 
L 143.208936 176.752829 
L 143.208936 176.226143 
L 143.840863 176.226143 
L 143.840863 175.699457 
L 144.148442 175.699457 
L 144.148442 175.172771 
L 144.45069 175.172771 
L 144.45069 174.119399 
L 144.570138 174.119399 
L 144.570138 173.592713 
L 145.039911 173.592713 
L 145.039911 173.066027 
L 145.327221 173.066027 
L 145.327221 172.539341 
L 145.888018 172.539341 
L 145.888018 170.432596 
L 146.161795 170.432596 
L 146.161795 168.325852 
L 146.377764 168.325852 
L 146.377764 167.799166 
L 154.098334 167.799166 
L 154.098334 167.27248 
L 156.835778 167.27248 
L 156.835778 166.745794 
L 156.953214 166.745794 
L 156.953214 166.219108 
L 157.86528 166.219108 
L 157.86528 165.165736 
L 158.784773 165.165736 
L 158.784773 164.63905 
L 159.405822 164.63905 
L 159.405822 164.112363 
L 159.532469 164.112363 
L 159.532469 163.585677 
L 160.273627 163.585677 
L 160.273627 162.532305 
L 160.938061 162.532305 
L 161.030947 161.478933 
L 161.054091 161.478933 
L 161.054091 159.372189 
L 161.215247 159.372189 
L 161.283861 158.318817 
L 161.578106 158.318817 
L 161.600536 156.738758 
L 162.021314 156.738758 
L 162.021314 156.212072 
L 162.410793 156.212072 
L 162.410793 155.685386 
L 162.749842 155.685386 
L 162.749842 153.578642 
L 163.082425 153.578642 
L 163.082425 151.471897 
L 163.368321 151.471897 
L 163.428979 148.311781 
L 165.010195 148.311781 
L 165.010195 147.785095 
L 165.138764 147.785095 
L 165.138764 145.678351 
L 165.46508 145.678351 
L 165.46508 145.151665 
L 166.323641 145.151665 
L 166.323641 143.571606 
L 167.449146 143.571606 
L 167.449146 143.04492 
L 167.576907 143.04492 
L 167.576907 141.991548 
L 167.954668 141.991548 
L 167.954668 140.938176 
L 171.18605 140.938176 
L 171.18605 140.41149 
L 171.67086 140.41149 
L 171.67086 139.884804 
L 171.895887 139.884804 
L 171.994974 138.304745 
L 172.191475 138.304745 
L 172.25243 136.724687 
L 172.313173 136.724687 
L 172.313173 134.091257 
L 172.458099 134.091257 
L 172.554051 132.511199 
L 172.613754 132.511199 
L 172.720707 130.93114 
L 172.732551 130.93114 
L 172.732551 129.877768 
L 172.944366 129.877768 
L 172.944366 128.29771 
L 173.188276 128.29771 
L 173.188276 127.244338 
L 173.371849 127.244338 
L 173.371849 125.66428 
L 173.55351 125.66428 
L 173.55351 124.610907 
L 173.789104 124.610907 
L 173.811376 123.557535 
L 174.07645 123.557535 
L 174.07645 123.030849 
L 174.520166 123.030849 
L 174.520166 122.504163 
L 175.567356 122.504163 
L 175.567356 121.450791 
L 175.797284 121.450791 
L 175.797284 117.237302 
L 176.315853 117.237302 
L 176.421575 114.603872 
L 176.459861 114.603872 
L 176.459861 113.023814 
L 176.60269 113.023814 
L 176.60269 112.497128 
L 176.866214 112.497128 
L 176.866214 111.970441 
L 176.996497 111.970441 
L 177.088964 109.337011 
L 180.699667 109.337011 
L 180.699667 107.230267 
L 180.974893 107.230267 
L 180.974893 105.123522 
L 182.268864 105.123522 
L 182.268864 101.963406 
L 182.92119 101.963406 
L 182.92119 101.43672 
L 183.118098 101.43672 
L 183.118098 99.856662 
L 183.254622 99.856662 
L 183.254622 99.329976 
L 183.441416 99.329976 
L 183.441416 98.803289 
L 183.62623 98.803289 
L 183.62623 97.749917 
L 183.802832 97.749917 
L 183.802832 97.223231 
L 186.175396 97.223231 
L 186.175396 96.696545 
L 188.451977 96.696545 
L 188.451977 96.169859 
L 194.312255 96.169859 
L 194.312255 95.643173 
L 194.605188 95.643173 
L 194.605188 93.536429 
L 195.170153 93.536429 
L 195.170153 92.483056 
L 195.329654 92.483056 
L 195.39434 87.216196 
L 195.909637 87.216196 
L 195.990939 84.056079 
L 196.093587 84.056079 
L 196.195635 81.949335 
L 196.284823 81.949335 
L 196.312409 79.842591 
L 196.516415 79.842591 
L 196.516415 77.20916 
L 196.902607 77.20916 
L 196.902607 75.629102 
L 197.193293 75.629102 
L 197.193293 74.57573 
L 197.43332 74.57573 
L 197.516412 70.362241 
L 197.610486 70.362241 
L 197.698399 66.675439 
L 197.956721 66.675439 
L 197.956721 65.622066 
L 198.081695 65.622066 
L 198.081695 64.042008 
L 198.194785 64.042008 
L 198.194785 62.46195 
L 199.576497 62.46195 
L 199.576497 60.881892 
L 199.891135 60.881892 
L 199.891135 59.301833 
L 200.089564 59.301833 
L 200.089564 57.721775 
L 200.324737 57.721775 
L 200.409695 56.141717 
L 200.523133 56.141717 
L 200.619098 54.034973 
L 200.814192 54.034973 
L 200.814192 52.454914 
L 205.591749 52.454914 
L 205.591749 51.401542 
L 207.38521 51.401542 
L 207.38521 50.874856 
L 207.933253 50.874856 
L 207.933253 48.768112 
L 209.358276 48.768112 
L 209.358276 46.134681 
L 210.262141 46.134681 
L 210.262141 43.501251 
L 210.881368 43.501251 
L 210.881368 41.394507 
L 211.181622 41.394507 
L 211.181622 40.867821 
L 211.579189 40.867821 
L 211.642882 38.23439 
L 211.801106 38.23439 
L 211.850179 34.020902 
L 211.961653 34.020902 
L 211.992838 32.440843 
L 212.166451 32.440843 
L 212.257524 30.334099 
L 338.688 30.334099 
L 338.688 30.334099 
" style="fill:none;stroke:#000080;stroke-linecap:square;stroke-width:1.5;"/>
   </g>
   <g id="line2d_36">
    <defs>
     <path d="M 0 6 
C 1.591219 6 3.117479 5.367802 4.242641 4.242641 
C 5.367802 3.117479 6 1.591219 6 0 
C 6 -1.591219 5.367802 -3.117479 4.242641 -4.242641 
C 3.117479 -5.367802 1.591219 -6 0 -6 
C -1.591219 -6 -3.117479 -5.367802 -4.242641 -4.242641 
C -5.367802 -3.117479 -6 -1.591219 -6 0 
C -6 1.591219 -5.367802 3.117479 -4.242641 4.242641 
C -3.117479 5.367802 -1.591219 6 0 6 
z
" id="m22998db315" style="stroke:#000080;stroke-width:1.5;"/>
    </defs>
    <g>
     <use style="fill-opacity:0;stroke:#000080;stroke-width:1.5;" x="132.422528" xlink:href="#m22998db315" y="197.820273"/>
     <use style="fill-opacity:0;stroke:#000080;stroke-width:1.5;" x="176.421575" xlink:href="#m22998db315" y="115.657244"/>
     <use style="fill-opacity:0;stroke:#000080;stroke-width:1.5;" x="212.257524" xlink:href="#m22998db315" y="30.860785"/>
     <use style="fill-opacity:0;stroke:#000080;stroke-width:1.5;" x="212.257524" xlink:href="#m22998db315" y="30.334099"/>
     <use style="fill-opacity:0;stroke:#000080;stroke-width:1.5;" x="212.257524" xlink:href="#m22998db315" y="30.334099"/>
     <use style="fill-opacity:0;stroke:#000080;stroke-width:1.5;" x="338.688" xlink:href="#m22998db315" y="30.334099"/>
    </g>
   </g>
   <g id="line2d_37">
    <path style="fill:none;stroke:#000080;stroke-linecap:square;stroke-width:1.5;"/>
    <g/>
   </g>
   <g id="line2d_38">
    <g>
     <use style="fill:#000080;stroke:#000080;" x="211.825031" xlink:href="#mef516e26b7" y="30.334099"/>
     <use style="fill:#000080;stroke:#000080;" x="211.825031" xlink:href="#mef516e26b7" y="30.334099"/>
    </g>
   </g>
   <g id="line2d_39">
    <path d="M 45.512012 298.944 
L 45.512012 225.207949 
L 73.579452 225.207949 
L 73.579452 224.681263 
L 107.009204 224.681263 
L 107.009204 224.154577 
L 108.948899 224.154577 
L 108.948899 223.627891 
L 110.274038 223.627891 
L 110.274038 222.047832 
L 112.280765 222.047832 
L 112.280765 221.521146 
L 114.080224 221.521146 
L 114.080224 220.99446 
L 117.202696 220.99446 
L 117.202696 219.941088 
L 118.039942 219.941088 
L 118.039942 219.414402 
L 120.093994 219.414402 
L 120.093994 213.620855 
L 120.8059 213.620855 
L 120.8059 212.040797 
L 125.291682 212.040797 
L 125.291682 211.514111 
L 131.938072 211.514111 
L 131.938072 210.987425 
L 132.659801 210.987425 
L 132.659801 208.353994 
L 133.124876 208.353994 
L 133.124876 206.24725 
L 135.076644 206.24725 
L 135.076644 205.193878 
L 138.510793 205.193878 
L 138.510793 204.140506 
L 139.413734 204.140506 
L 139.413734 203.087133 
L 140.272217 203.087133 
L 140.272217 202.033761 
L 141.017599 202.033761 
L 141.017599 201.507075 
L 141.662245 201.507075 
L 141.662245 200.980389 
L 142.215919 200.980389 
L 142.215919 200.453703 
L 142.619936 200.453703 
L 142.619936 199.927017 
L 143.208936 199.927017 
L 143.208936 198.346959 
L 143.464461 198.346959 
L 143.464461 197.293586 
L 144.747789 197.293586 
L 144.747789 196.240214 
L 144.981877 196.240214 
L 144.981877 195.713528 
L 145.097753 195.713528 
L 145.097753 195.186842 
L 146.161795 195.186842 
L 146.161795 194.13347 
L 147.368603 194.13347 
L 147.368603 192.026726 
L 147.917524 192.026726 
L 147.917524 189.393295 
L 149.911431 189.393295 
L 149.911431 188.866609 
L 150.258492 188.866609 
L 150.258492 187.286551 
L 150.38688 187.286551 
L 150.38688 186.233179 
L 150.808139 186.233179 
L 150.808139 185.706493 
L 150.932558 185.706493 
L 150.932558 184.126434 
L 151.300575 184.126434 
L 151.300575 182.546376 
L 152.0141 182.546376 
L 152.0141 180.966318 
L 152.848312 180.966318 
L 152.848312 179.38626 
L 153.359122 179.38626 
L 153.359122 178.859574 
L 153.502361 178.859574 
L 153.502361 178.332888 
L 153.750233 178.332888 
L 153.750233 177.806202 
L 154.029268 177.806202 
L 154.029268 177.279515 
L 155.004911 177.279515 
L 155.004911 176.752829 
L 155.135299 176.752829 
L 155.135299 176.226143 
L 155.264719 176.226143 
L 155.361158 174.646085 
L 157.641697 174.646085 
L 157.641697 167.27248 
L 157.920731 167.27248 
L 157.920731 166.745794 
L 158.968208 166.745794 
L 158.968208 162.532305 
L 159.857512 162.532305 
L 159.857512 162.005619 
L 160.200913 162.005619 
L 160.200913 161.478933 
L 160.821253 161.478933 
L 160.821253 158.845503 
L 161.146363 158.845503 
L 161.146363 157.79213 
L 164.102088 157.79213 
L 164.102088 157.265444 
L 165.608172 157.265444 
L 165.608172 155.685386 
L 166.561376 155.685386 
L 166.595075 154.105328 
L 166.679039 154.105328 
L 166.679039 151.998584 
L 167.43311 151.998584 
L 167.43311 150.418525 
L 167.656285 150.418525 
L 167.687935 149.365153 
L 168.232714 149.365153 
L 168.263336 147.785095 
L 168.506396 147.785095 
L 168.506396 146.731723 
L 169.070439 146.731723 
L 169.070439 144.098292 
L 169.813865 144.098292 
L 169.813865 140.938176 
L 169.994873 140.938176 
L 169.994873 137.778059 
L 170.540321 137.778059 
L 170.540321 132.511199 
L 171.783736 132.511199 
L 171.783736 130.93114 
L 171.982619 130.93114 
L 171.982619 129.351082 
L 172.434028 129.351082 
L 172.458099 128.29771 
L 173.084161 128.29771 
L 173.084161 127.771024 
L 174.584164 127.771024 
L 174.584164 126.717652 
L 174.806323 126.717652 
L 174.806323 124.610907 
L 175.056802 124.610907 
L 175.056802 119.870733 
L 175.866664 119.870733 
L 175.906187 115.657244 
L 176.363988 115.657244 
L 176.421575 113.5505 
L 176.478973 113.5505 
L 176.478973 108.283639 
L 176.744358 108.283639 
L 176.772554 106.703581 
L 176.884885 106.703581 
L 176.894213 103.543464 
L 177.116609 103.543464 
L 177.116609 103.016778 
L 177.987632 103.016778 
L 177.987632 102.490092 
L 178.135904 102.490092 
L 178.135904 98.803289 
L 178.325932 98.803289 
L 178.394524 95.643173 
L 178.556354 95.643173 
L 178.607149 92.483056 
L 178.674645 92.483056 
L 178.74188 88.796254 
L 178.875579 88.796254 
L 178.98346 86.162824 
L 179.033027 86.162824 
L 179.090678 83.002707 
L 179.712566 83.002707 
L 179.712566 82.476021 
L 180.871264 82.476021 
L 180.871264 81.949335 
L 181.838757 81.949335 
L 181.838757 80.369277 
L 182.378159 80.369277 
L 182.480004 77.735846 
L 182.520577 77.735846 
L 182.527329 76.682474 
L 182.64173 76.682474 
L 182.735382 74.57573 
L 182.801969 74.57573 
L 182.855057 71.942299 
L 183.033044 71.942299 
L 183.124623 69.835555 
L 183.157214 69.835555 
L 183.241666 68.255497 
L 183.37723 68.255497 
L 183.441416 64.568694 
L 183.505367 64.568694 
L 183.607202 59.301833 
L 183.746262 59.301833 
L 183.790277 57.721775 
L 183.921659 57.721775 
L 183.996292 54.561659 
L 184.962035 54.561659 
L 184.962035 54.034973 
L 185.494044 54.034973 
L 185.494044 52.9816 
L 185.731624 52.9816 
L 185.731624 51.928228 
L 185.943825 51.928228 
L 185.943825 50.34817 
L 186.224621 50.34817 
L 186.224621 47.71474 
L 186.762415 47.71474 
L 186.762415 47.188054 
L 186.962506 47.188054 
L 186.962506 45.081309 
L 198.762802 45.081309 
L 198.762802 44.554623 
L 200.153571 44.554623 
L 200.158485 42.974565 
L 200.297951 42.974565 
L 200.297951 42.447879 
L 200.501468 42.447879 
L 200.513507 40.867821 
L 200.614313 40.867821 
L 200.614313 40.341135 
L 200.731187 40.341135 
L 200.731187 37.707704 
L 201.193322 37.707704 
L 201.193322 36.654332 
L 210.884025 36.654332 
L 210.884025 34.547588 
L 211.340185 34.547588 
L 211.431805 33.494215 
L 211.636524 33.494215 
L 211.743047 31.914157 
L 211.825031 31.914157 
L 211.825031 30.334099 
L 338.688 30.334099 
L 338.688 30.334099 
" style="fill:none;stroke:#000080;stroke-linecap:square;stroke-width:1.5;"/>
   </g>
   <g id="line2d_40">
    <g>
     <use style="fill-opacity:0;stroke:#000080;stroke-width:1.5;" x="114.080224" xlink:href="#m22998db315" y="221.521146"/>
     <use style="fill-opacity:0;stroke:#000080;stroke-width:1.5;" x="177.116609" xlink:href="#m22998db315" y="103.543464"/>
     <use style="fill-opacity:0;stroke:#000080;stroke-width:1.5;" x="211.825031" xlink:href="#m22998db315" y="31.914157"/>
     <use style="fill-opacity:0;stroke:#000080;stroke-width:1.5;" x="211.825031" xlink:href="#m22998db315" y="30.334099"/>
     <use style="fill-opacity:0;stroke:#000080;stroke-width:1.5;" x="211.825031" xlink:href="#m22998db315" y="30.334099"/>
     <use style="fill-opacity:0;stroke:#000080;stroke-width:1.5;" x="338.688" xlink:href="#m22998db315" y="30.334099"/>
    </g>
   </g>
   <g id="line2d_41">
    <path style="fill:none;stroke:#000080;stroke-linecap:square;stroke-width:1.5;"/>
    <g/>
   </g>
   <g id="line2d_42">
    <defs>
     <path d="M 0 1.5 
C 0.397805 1.5 0.77937 1.341951 1.06066 1.06066 
C 1.341951 0.77937 1.5 0.397805 1.5 0 
C 1.5 -0.397805 1.341951 -0.77937 1.06066 -1.06066 
C 0.77937 -1.341951 0.397805 -1.5 0 -1.5 
C -0.397805 -1.5 -0.77937 -1.341951 -1.06066 -1.06066 
C -1.341951 -0.77937 -1.5 -0.397805 -1.5 0 
C -1.5 0.397805 -1.341951 0.77937 -1.06066 1.06066 
C -0.77937 1.341951 -0.397805 1.5 0 1.5 
z
" id="m7b0938a4ff" style="stroke:#ff00ff;"/>
    </defs>
    <g>
     <use style="fill:#ff00ff;stroke:#ff00ff;" x="279.399607" xlink:href="#m7b0938a4ff" y="46.134681"/>
     <use style="fill:#ff00ff;stroke:#ff00ff;" x="279.399607" xlink:href="#m7b0938a4ff" y="46.134681"/>
    </g>
   </g>
   <g id="line2d_43">
    <path d="M 45.512012 298.944 
L 45.512012 225.207949 
L 79.447285 225.207949 
L 79.447285 222.047832 
L 112.280765 222.047832 
L 112.280765 221.521146 
L 118.576578 221.521146 
L 118.576578 218.887716 
L 118.838828 218.887716 
L 118.838828 218.36103 
L 123.192626 218.36103 
L 123.192626 217.834344 
L 125.996395 217.834344 
L 125.996395 216.780971 
L 127.642832 216.780971 
L 127.642832 215.727599 
L 140.11924 215.727599 
L 140.11924 214.147541 
L 143.527762 214.147541 
L 143.527762 213.620855 
L 143.840863 213.620855 
L 143.840863 212.567483 
L 145.270136 212.567483 
L 145.327221 210.460738 
L 146.696785 210.460738 
L 146.696785 206.24725 
L 150.429467 206.24725 
L 150.429467 204.667192 
L 167.174506 204.667192 
L 167.174506 203.087133 
L 169.360135 203.087133 
L 169.360135 202.560447 
L 169.545889 202.560447 
L 169.545889 202.033761 
L 171.082245 202.033761 
L 171.082245 198.346959 
L 172.803442 198.346959 
L 172.803442 197.820273 
L 179.577161 197.820273 
L 179.577161 197.293586 
L 181.194904 197.293586 
L 181.194904 196.7669 
L 181.332822 196.7669 
L 181.332822 196.240214 
L 183.983875 196.240214 
L 183.983875 193.606784 
L 186.479451 193.606784 
L 186.479451 191.50004 
L 186.868012 191.50004 
L 186.868012 190.446667 
L 190.491067 190.446667 
L 190.491067 187.286551 
L 191.383019 187.286551 
L 191.383019 186.759865 
L 191.717046 186.759865 
L 191.717046 186.233179 
L 192.637057 186.233179 
L 192.708753 184.653121 
L 192.869934 184.653121 
L 192.869934 183.073062 
L 192.98151 183.073062 
L 192.98151 182.01969 
L 193.121823 182.01969 
L 193.121823 181.493004 
L 193.264664 181.493004 
L 193.264664 177.806202 
L 196.576853 177.806202 
L 196.576853 177.279515 
L 197.504975 177.279515 
L 197.504975 176.752829 
L 198.183784 176.752829 
L 198.183784 173.592713 
L 198.44049 173.592713 
L 198.44049 172.012655 
L 198.621181 172.012655 
L 198.621181 170.959282 
L 198.786737 170.959282 
L 198.866284 168.852538 
L 199.050494 168.852538 
L 199.050494 168.325852 
L 199.461823 168.325852 
L 199.461823 166.219108 
L 200.094496 166.219108 
L 200.094496 165.692422 
L 200.802358 165.692422 
L 200.802358 162.005619 
L 201.478051 162.005619 
L 201.478051 160.425561 
L 202.379059 160.425561 
L 202.379059 158.845503 
L 202.768326 158.845503 
L 202.768326 157.265444 
L 203.080667 157.265444 
L 203.080667 156.738758 
L 203.281038 156.738758 
L 203.315918 153.051956 
L 203.969679 153.051956 
L 203.969679 152.52527 
L 204.348554 152.52527 
L 204.435273 148.311781 
L 204.498595 148.311781 
L 204.498595 147.785095 
L 204.706128 147.785095 
L 204.706128 147.258409 
L 204.828722 147.258409 
L 204.828722 145.151665 
L 205.017519 145.151665 
L 205.017519 140.41149 
L 205.670724 140.41149 
L 205.670724 139.884804 
L 206.06558 139.884804 
L 206.06558 136.724687 
L 206.789177 136.724687 
L 206.789177 134.617943 
L 209.154152 134.617943 
L 209.154152 130.93114 
L 209.488248 130.93114 
L 209.488248 130.404454 
L 209.645799 130.404454 
L 209.645799 129.877768 
L 209.787801 129.877768 
L 209.787801 129.351082 
L 211.066346 129.351082 
L 211.066346 128.824396 
L 211.272777 128.824396 
L 211.315585 121.450791 
L 211.934164 121.450791 
L 211.934164 120.397419 
L 214.464885 120.397419 
L 214.464885 119.344047 
L 214.730008 119.344047 
L 214.730008 118.817361 
L 215.092658 118.817361 
L 215.178002 114.603872 
L 216.126632 114.603872 
L 216.126632 113.5505 
L 217.00669 113.5505 
L 217.00669 113.023814 
L 217.531594 113.023814 
L 217.531594 112.497128 
L 218.20863 112.497128 
L 218.20863 109.337011 
L 219.143025 109.337011 
L 219.143025 108.283639 
L 219.556592 108.283639 
L 219.556592 105.123522 
L 220.082479 105.123522 
L 220.082479 104.596836 
L 221.12294 104.596836 
L 221.212049 101.43672 
L 221.234806 101.43672 
L 221.234806 98.803289 
L 221.40781 98.803289 
L 221.40781 98.276603 
L 221.520756 98.276603 
L 221.520756 97.223231 
L 221.808483 97.223231 
L 221.808483 95.116487 
L 222.014541 95.116487 
L 222.014541 92.483056 
L 222.633402 92.483056 
L 222.633402 91.429684 
L 222.960721 91.429684 
L 222.960721 88.269568 
L 223.50885 88.269568 
L 223.533302 85.636137 
L 223.889724 85.636137 
L 223.889724 85.109451 
L 224.86313 85.109451 
L 224.944565 82.476021 
L 225.11394 82.476021 
L 225.11394 81.949335 
L 225.801445 81.949335 
L 225.801445 81.422649 
L 227.124739 81.422649 
L 227.124739 80.895963 
L 227.27637 80.895963 
L 227.27637 79.315904 
L 228.176724 79.315904 
L 228.176724 78.789218 
L 228.663076 78.789218 
L 228.663076 74.57573 
L 229.823405 74.57573 
L 229.823405 74.049044 
L 229.972057 74.049044 
L 229.972057 73.522358 
L 230.271731 73.522358 
L 230.37324 72.468985 
L 232.261532 72.468985 
L 232.261532 71.942299 
L 233.589971 71.942299 
L 233.589971 70.888927 
L 234.240882 70.888927 
L 234.240882 70.362241 
L 235.36804 70.362241 
L 235.36804 69.835555 
L 238.444537 69.835555 
L 238.54651 67.728811 
L 238.592665 67.728811 
L 238.701325 66.148752 
L 238.74761 66.148752 
L 238.74761 65.09538 
L 239.520854 65.09538 
L 239.520854 64.568694 
L 239.928924 64.568694 
L 239.980583 63.515322 
L 240.104838 63.515322 
L 240.104838 62.988636 
L 240.296955 62.988636 
L 240.296955 61.935264 
L 240.885665 61.935264 
L 240.885665 61.408578 
L 241.052232 61.408578 
L 241.052232 60.881892 
L 244.012404 60.881892 
L 244.012404 60.355206 
L 244.592816 60.355206 
L 244.592816 59.82852 
L 246.995926 59.82852 
L 247.061116 57.721775 
L 248.493388 57.721775 
L 248.493388 57.195089 
L 248.62811 57.195089 
L 248.62811 56.668403 
L 250.746957 56.668403 
L 250.746957 56.141717 
L 251.285009 56.141717 
L 251.285009 55.615031 
L 251.775408 55.615031 
L 251.775408 55.088345 
L 252.712699 55.088345 
L 252.712699 54.561659 
L 253.408472 54.561659 
L 253.408472 54.034973 
L 253.64077 54.034973 
L 253.64077 53.508287 
L 255.841444 53.508287 
L 255.841444 52.9816 
L 256.990757 52.9816 
L 257.095146 51.928228 
L 257.51133 51.928228 
L 257.51133 51.401542 
L 258.53011 51.401542 
L 258.53011 50.874856 
L 260.487452 50.874856 
L 260.487452 50.34817 
L 260.74878 50.34817 
L 260.74878 49.821484 
L 261.170758 49.821484 
L 261.170758 49.294798 
L 263.65539 49.294798 
L 263.65539 48.768112 
L 266.089444 48.768112 
L 266.089444 48.241426 
L 268.416986 48.241426 
L 268.416986 47.71474 
L 278.474161 47.71474 
L 278.487349 46.661368 
L 279.399607 46.661368 
L 279.399607 46.134681 
L 338.688 46.134681 
L 338.688 46.134681 
" style="fill:none;stroke:#ff00ff;stroke-linecap:square;stroke-width:1.5;"/>
   </g>
   <g id="line2d_44">
    <defs>
     <path d="M -0 8.485281 
L 5.091169 0 
L 0 -8.485281 
L -5.091169 -0 
z
" id="m1a6668b708" style="stroke:#ff00ff;stroke-linejoin:miter;stroke-width:1.5;"/>
    </defs>
    <g>
     <use style="fill-opacity:0;stroke:#ff00ff;stroke-linejoin:miter;stroke-width:1.5;" x="140.11924" xlink:href="#m1a6668b708" y="215.727599"/>
     <use style="fill-opacity:0;stroke:#ff00ff;stroke-linejoin:miter;stroke-width:1.5;" x="200.094496" xlink:href="#m1a6668b708" y="165.692422"/>
     <use style="fill-opacity:0;stroke:#ff00ff;stroke-linejoin:miter;stroke-width:1.5;" x="247.061116" xlink:href="#m1a6668b708" y="57.721775"/>
     <use style="fill-opacity:0;stroke:#ff00ff;stroke-linejoin:miter;stroke-width:1.5;" x="279.399607" xlink:href="#m1a6668b708" y="46.134681"/>
     <use style="fill-opacity:0;stroke:#ff00ff;stroke-linejoin:miter;stroke-width:1.5;" x="279.399607" xlink:href="#m1a6668b708" y="46.134681"/>
     <use style="fill-opacity:0;stroke:#ff00ff;stroke-linejoin:miter;stroke-width:1.5;" x="338.688" xlink:href="#m1a6668b708" y="46.134681"/>
    </g>
   </g>
   <g id="line2d_45">
    <path style="fill:none;stroke:#ff00ff;stroke-linecap:square;stroke-width:1.5;"/>
    <g/>
   </g>
   <g id="line2d_46">
    <path clip-path="url(#p71cf17448d)" d="M 230.392343 72.468985 
" style="fill:none;stroke:#ff00ff;stroke-linecap:square;stroke-width:1.5;"/>
    <defs>
     <path d="M -12 12 
L 12 -12 
M -12 -12 
L 12 12 
" id="m57594342ba" style="stroke:#ff00ff;"/>
    </defs>
    <g clip-path="url(#p71cf17448d)">
     <use style="fill:#ff00ff;stroke:#ff00ff;" x="230.392343" xlink:href="#m57594342ba" y="72.468985"/>
    </g>
   </g>
   <g id="line2d_47">
    <defs>
     <path d="M 0 1.5 
C 0.397805 1.5 0.77937 1.341951 1.06066 1.06066 
C 1.341951 0.77937 1.5 0.397805 1.5 0 
C 1.5 -0.397805 1.341951 -0.77937 1.06066 -1.06066 
C 0.77937 -1.341951 0.397805 -1.5 0 -1.5 
C -0.397805 -1.5 -0.77937 -1.341951 -1.06066 -1.06066 
C -1.341951 -0.77937 -1.5 -0.397805 -1.5 0 
C -1.5 0.397805 -1.341951 0.77937 -1.06066 1.06066 
C -0.77937 1.341951 -0.397805 1.5 0 1.5 
z
" id="m4c4f0ce608" style="stroke:#ff0000;"/>
    </defs>
    <g>
     <use style="fill:#ff0000;stroke:#ff0000;" x="223.363363" xlink:href="#m4c4f0ce608" y="30.334099"/>
     <use style="fill:#ff0000;stroke:#ff0000;" x="223.363363" xlink:href="#m4c4f0ce608" y="30.334099"/>
    </g>
   </g>
   <g id="line2d_48">
    <path d="M 45.512012 298.944 
L 45.512012 225.207949 
L 76.759008 225.207949 
L 76.759008 224.154577 
L 91.535274 224.154577 
L 91.535274 219.414402 
L 94.921215 219.414402 
L 94.921215 218.887716 
L 100.192776 218.887716 
L 100.192776 218.36103 
L 101.646892 218.36103 
L 101.646892 217.307658 
L 107.514726 217.307658 
L 107.514726 216.780971 
L 108.483824 216.780971 
L 108.483824 215.727599 
L 113.022974 215.727599 
L 113.022974 215.200913 
L 115.077025 215.200913 
L 115.077025 214.674227 
L 121.712041 214.674227 
L 121.712041 213.094169 
L 130.127931 213.094169 
L 130.127931 211.514111 
L 130.263646 211.514111 
L 130.263646 210.460738 
L 132.422528 210.460738 
L 132.422528 209.934052 
L 133.124876 209.934052 
L 133.124876 208.353994 
L 136.266147 208.353994 
L 136.266147 207.300622 
L 138.256201 207.300622 
L 138.256201 206.773936 
L 138.426341 206.773936 
L 138.426341 206.24725 
L 138.67848 206.24725 
L 138.67848 205.720564 
L 143.014805 205.720564 
L 143.014805 205.193878 
L 143.337167 205.193878 
L 143.337167 204.667192 
L 145.440832 204.667192 
L 145.440832 204.140506 
L 145.721664 204.140506 
L 145.721664 203.613819 
L 147.061745 203.613819 
L 147.061745 202.033761 
L 147.215849 202.033761 
L 147.215849 200.980389 
L 147.52003 200.980389 
L 147.52003 199.927017 
L 147.670154 199.927017 
L 147.670154 197.293586 
L 150.849711 197.293586 
L 150.849711 196.7669 
L 151.300575 196.7669 
L 151.300575 196.240214 
L 153.644434 196.240214 
L 153.644434 195.713528 
L 160.489968 195.713528 
L 160.489968 195.186842 
L 164.618704 195.186842 
L 164.618704 194.13347 
L 165.838222 194.13347 
L 165.838222 189.393295 
L 166.6119 189.393295 
L 166.679039 186.759865 
L 171.043158 186.759865 
L 171.134225 185.706493 
L 171.379036 185.706493 
L 171.442893 183.599748 
L 171.506517 183.599748 
L 171.506517 178.859574 
L 171.620458 178.859574 
L 171.708567 177.279515 
L 171.957882 177.279515 
L 171.957882 175.699457 
L 172.191475 175.699457 
L 172.191475 175.172771 
L 172.361615 175.172771 
L 172.434028 172.539341 
L 172.518131 172.539341 
L 172.577957 170.959282 
L 172.744386 170.959282 
L 172.815229 167.799166 
L 173.496944 167.799166 
L 173.496944 166.219108 
L 175.118863 166.219108 
L 175.118863 165.692422 
L 175.78735 165.692422 
L 175.78735 164.112363 
L 175.994786 164.112363 
L 175.994786 163.585677 
L 176.170646 163.585677 
L 176.277249 161.478933 
L 176.450298 161.478933 
L 176.52666 157.265444 
L 176.583714 157.265444 
L 176.60269 155.1587 
L 176.772554 155.1587 
L 176.819447 152.52527 
L 176.894213 152.52527 
L 176.894213 151.471897 
L 177.052036 151.471897 
L 177.098184 150.418525 
L 177.263313 150.418525 
L 177.263313 147.785095 
L 177.50811 147.785095 
L 177.562046 146.731723 
L 177.624761 146.731723 
L 177.624761 146.205037 
L 178.334521 146.205037 
L 178.334521 144.098292 
L 178.556354 144.098292 
L 178.556354 143.04492 
L 179.303155 143.04492 
L 179.303155 141.991548 
L 179.448753 141.991548 
L 179.448753 139.358118 
L 180.019285 139.358118 
L 180.120337 137.778059 
L 180.151313 137.778059 
L 180.151313 136.724687 
L 180.33602 136.724687 
L 180.33602 136.198001 
L 180.781946 136.198001 
L 180.781946 135.671315 
L 181.483999 135.671315 
L 181.483999 135.144629 
L 181.633877 135.144629 
L 181.648084 132.511199 
L 182.64173 132.511199 
L 182.64173 131.457826 
L 184.814618 131.457826 
L 184.814618 130.93114 
L 185.293557 130.93114 
L 185.374029 128.29771 
L 185.45413 128.29771 
L 185.51681 125.137593 
L 185.770908 125.137593 
L 185.838047 122.504163 
L 185.91049 122.504163 
L 185.91049 121.450791 
L 186.032405 121.450791 
L 186.065507 120.397419 
L 187.740671 120.397419 
L 187.740671 119.344047 
L 187.860426 119.344047 
L 187.860426 111.443755 
L 190.60615 111.443755 
L 190.69091 106.703581 
L 190.867576 106.703581 
L 190.87176 105.650209 
L 191.166329 105.650209 
L 191.236127 104.07015 
L 192.727572 104.07015 
L 192.727572 103.016778 
L 192.866203 103.016778 
L 192.866203 102.490092 
L 194.257209 102.490092 
L 194.363704 97.223231 
L 194.445707 97.223231 
L 194.445707 95.116487 
L 194.692788 95.116487 
L 194.709584 93.009743 
L 194.966221 93.009743 
L 194.966221 92.483056 
L 195.088209 92.483056 
L 195.088209 91.95637 
L 198.067853 91.95637 
L 198.067853 90.902998 
L 198.429643 90.902998 
L 198.464871 88.796254 
L 198.578201 88.796254 
L 198.613131 82.476021 
L 199.760934 82.476021 
L 199.760934 81.949335 
L 199.93349 81.949335 
L 200.027797 79.842591 
L 200.261357 79.842591 
L 200.261357 79.315904 
L 200.932089 79.315904 
L 200.932089 78.789218 
L 201.14928 78.789218 
L 201.14928 75.629102 
L 201.43244 75.629102 
L 201.43244 72.995672 
L 201.838706 72.995672 
L 201.907728 68.782183 
L 202.069194 68.782183 
L 202.069194 68.255497 
L 202.209533 68.255497 
L 202.283632 67.202125 
L 202.628165 67.202125 
L 202.723851 63.515322 
L 202.833772 63.515322 
L 202.833772 62.988636 
L 202.968115 62.988636 
L 202.968115 62.46195 
L 210.80549 62.46195 
L 210.80549 61.408578 
L 211.711411 61.408578 
L 211.711411 60.881892 
L 211.850179 60.881892 
L 211.850179 55.088345 
L 212.117023 55.088345 
L 212.210816 53.508287 
L 212.898631 53.508287 
L 212.923461 52.454914 
L 217.797174 52.454914 
L 217.797174 47.188054 
L 218.830073 47.188054 
L 218.830073 45.607995 
L 219.125647 45.607995 
L 219.125647 45.081309 
L 219.328953 45.081309 
L 219.417109 42.974565 
L 221.217925 42.974565 
L 221.217925 40.867821 
L 221.612887 40.867821 
L 221.612887 38.23439 
L 221.86518 38.23439 
L 221.86518 37.707704 
L 222.029968 37.707704 
L 222.029968 35.074274 
L 222.616467 35.074274 
L 222.644232 34.020902 
L 222.830663 34.020902 
L 222.889476 32.440843 
L 223.132635 32.440843 
L 223.132635 30.860785 
L 223.363363 30.860785 
L 223.363363 30.334099 
L 338.688 30.334099 
L 338.688 30.334099 
" style="fill:none;stroke:#ff0000;stroke-linecap:square;stroke-width:1.5;"/>
   </g>
   <g id="line2d_49">
    <defs>
     <path d="M 0 -6 
L -5.196152 -3 
L -5.196152 3 
L -0 6 
L 5.196152 3 
L 5.196152 -3 
z
" id="m219cacd80a" style="stroke:#ff0000;stroke-linejoin:miter;stroke-width:1.5;"/>
    </defs>
    <g>
     <use style="fill-opacity:0;stroke:#ff0000;stroke-linejoin:miter;stroke-width:1.5;" x="143.337167" xlink:href="#m219cacd80a" y="205.193878"/>
     <use style="fill-opacity:0;stroke:#ff0000;stroke-linejoin:miter;stroke-width:1.5;" x="185.45413" xlink:href="#m219cacd80a" y="126.717652"/>
     <use style="fill-opacity:0;stroke:#ff0000;stroke-linejoin:miter;stroke-width:1.5;" x="223.363363" xlink:href="#m219cacd80a" y="30.860785"/>
     <use style="fill-opacity:0;stroke:#ff0000;stroke-linejoin:miter;stroke-width:1.5;" x="223.363363" xlink:href="#m219cacd80a" y="30.334099"/>
     <use style="fill-opacity:0;stroke:#ff0000;stroke-linejoin:miter;stroke-width:1.5;" x="223.363363" xlink:href="#m219cacd80a" y="30.334099"/>
     <use style="fill-opacity:0;stroke:#ff0000;stroke-linejoin:miter;stroke-width:1.5;" x="338.688" xlink:href="#m219cacd80a" y="30.334099"/>
    </g>
   </g>
   <g id="line2d_50">
    <path style="fill:none;stroke:#ff0000;stroke-linecap:square;stroke-width:1.5;"/>
    <g/>
   </g>
   <g id="line2d_51">
    <defs>
     <path d="M 0 1.5 
C 0.397805 1.5 0.77937 1.341951 1.06066 1.06066 
C 1.341951 0.77937 1.5 0.397805 1.5 0 
C 1.5 -0.397805 1.341951 -0.77937 1.06066 -1.06066 
C 0.77937 -1.341951 0.397805 -1.5 0 -1.5 
C -0.397805 -1.5 -0.77937 -1.341951 -1.06066 -1.06066 
C -1.341951 -0.77937 -1.5 -0.397805 -1.5 0 
C -1.5 0.397805 -1.341951 0.77937 -1.06066 1.06066 
C -0.77937 1.341951 -0.397805 1.5 0 1.5 
z
" id="md6229d799c" style="stroke:#ff7500;"/>
    </defs>
    <g>
     <use style="fill:#ff7500;stroke:#ff7500;" x="211.076857" xlink:href="#md6229d799c" y="30.334099"/>
     <use style="fill:#ff7500;stroke:#ff7500;" x="211.076857" xlink:href="#md6229d799c" y="30.334099"/>
    </g>
   </g>
   <g id="line2d_52">
    <path d="M 45.512012 298.944 
L 45.512012 225.207949 
L 83.830028 225.207949 
L 83.830028 224.681263 
L 85.66744 224.681263 
L 85.66744 223.101204 
L 87.329581 223.101204 
L 87.329581 222.047832 
L 102.330873 222.047832 
L 102.330873 220.99446 
L 106.48859 220.99446 
L 106.48859 219.941088 
L 112.280765 219.941088 
L 112.280765 216.254285 
L 114.080224 216.254285 
L 114.080224 215.727599 
L 115.397021 215.727599 
L 115.397021 214.674227 
L 116.323218 214.674227 
L 116.323218 210.987425 
L 116.914437 210.987425 
L 116.914437 209.934052 
L 120.093994 209.934052 
L 120.093994 209.407366 
L 121.489881 209.407366 
L 121.489881 208.353994 
L 122.988655 208.353994 
L 122.988655 207.300622 
L 123.593547 207.300622 
L 123.593547 206.24725 
L 123.790603 206.24725 
L 123.790603 205.720564 
L 128.560901 205.720564 
L 128.560901 205.193878 
L 129.002426 205.193878 
L 129.002426 204.667192 
L 134.55603 204.667192 
L 134.55603 204.140506 
L 138.084384 204.140506 
L 138.084384 203.613819 
L 139.493548 203.613819 
L 139.493548 203.087133 
L 140.348205 203.087133 
L 140.348205 200.980389 
L 140.499195 200.980389 
L 140.499195 200.453703 
L 142.619936 200.453703 
L 142.619936 198.346959 
L 144.390658 198.346959 
L 144.390658 197.820273 
L 146.591092 197.820273 
L 146.591092 197.293586 
L 149.557321 197.293586 
L 149.557321 195.713528 
L 150.258492 195.713528 
L 150.258492 189.393295 
L 160.442124 189.393295 
L 160.442124 187.813237 
L 160.844678 187.813237 
L 160.844678 187.286551 
L 161.077205 187.286551 
L 161.169354 184.653121 
L 161.352206 184.653121 
L 161.352206 183.073062 
L 161.999419 183.073062 
L 161.999419 182.546376 
L 162.770815 182.546376 
L 162.770815 182.01969 
L 163.768781 182.01969 
L 163.768781 181.493004 
L 166.895472 181.493004 
L 166.895472 180.966318 
L 167.06015 180.966318 
L 167.06015 178.859574 
L 168.001318 178.859574 
L 168.078792 177.806202 
L 168.293904 177.806202 
L 168.293904 177.279515 
L 168.760989 177.279515 
L 168.760989 174.646085 
L 169.026567 174.646085 
L 169.026567 174.119399 
L 169.388841 174.119399 
L 169.488944 171.485969 
L 169.51744 171.485969 
L 169.51744 170.432596 
L 169.687442 170.432596 
L 169.687442 169.90591 
L 170.008719 169.90591 
L 170.050192 167.27248 
L 170.14658 167.27248 
L 170.14658 165.692422 
L 170.40555 165.692422 
L 170.51345 163.585677 
L 170.912232 163.585677 
L 170.912232 163.058991 
L 171.211906 163.058991 
L 171.237722 161.478933 
L 171.379036 161.478933 
L 171.455636 159.372189 
L 171.858583 159.372189 
L 171.858583 158.845503 
L 172.00732 158.845503 
L 172.105778 157.79213 
L 172.191475 157.79213 
L 172.264595 156.738758 
L 172.518131 156.738758 
L 172.518131 156.212072 
L 172.862299 156.212072 
L 172.862299 155.685386 
L 173.049317 155.685386 
L 173.072554 154.632014 
L 173.176739 154.632014 
L 173.268827 151.471897 
L 173.496944 151.471897 
L 173.496944 150.418525 
L 173.744474 150.418525 
L 173.744474 148.311781 
L 175.827052 148.311781 
L 175.827052 143.04492 
L 176.277249 143.04492 
L 176.277249 142.518234 
L 178.73349 142.518234 
L 178.73349 141.991548 
L 178.850589 141.991548 
L 178.942047 139.884804 
L 179.311276 139.884804 
L 179.311276 139.358118 
L 181.070572 139.358118 
L 181.070572 138.831432 
L 182.661841 138.831432 
L 182.661841 137.251373 
L 182.795322 137.251373 
L 182.795322 134.617943 
L 182.914588 134.617943 
L 182.914588 134.091257 
L 183.202739 134.091257 
L 183.202739 131.457826 
L 183.383659 131.457826 
L 183.383659 130.404454 
L 183.983875 130.404454 
L 184.033489 126.190966 
L 184.659972 126.190966 
L 184.659972 121.977477 
L 185.709137 121.977477 
L 185.709137 120.397419 
L 186.169918 120.397419 
L 186.169918 117.763988 
L 187.12924 117.763988 
L 187.12924 116.710616 
L 187.458002 116.710616 
L 187.564541 115.130558 
L 187.675459 115.130558 
L 187.705587 114.077186 
L 187.795661 114.077186 
L 187.830565 110.390383 
L 188.068039 110.390383 
L 188.068039 109.337011 
L 188.200211 109.337011 
L 188.205087 105.123522 
L 188.595589 105.123522 
L 188.662206 101.963406 
L 188.756934 101.963406 
L 188.756934 101.43672 
L 188.884005 101.43672 
L 188.898067 97.749917 
L 189.010157 97.749917 
L 189.010157 97.223231 
L 189.144645 97.223231 
L 189.144645 96.696545 
L 189.555537 96.696545 
L 189.6051 95.643173 
L 189.717221 95.643173 
L 189.717221 94.589801 
L 190.189118 94.589801 
L 190.189118 92.483056 
L 190.491067 92.483056 
L 190.491067 90.376312 
L 190.640103 90.376312 
L 190.703588 83.002707 
L 191.500456 83.002707 
L 191.500456 82.476021 
L 191.752884 82.476021 
L 191.752884 79.315904 
L 192.153986 79.315904 
L 192.153986 78.789218 
L 192.351129 78.789218 
L 192.366497 77.20916 
L 192.633275 77.20916 
L 192.633275 76.155788 
L 195.685669 76.155788 
L 195.685669 72.995672 
L 196.189467 72.995672 
L 196.189467 72.468985 
L 196.501273 72.468985 
L 196.52852 67.728811 
L 196.753934 67.728811 
L 196.840318 64.042008 
L 197.129113 64.042008 
L 197.2282 60.881892 
L 197.407452 60.881892 
L 197.407452 60.355206 
L 197.550679 60.355206 
L 197.590573 57.195089 
L 198.026262 57.195089 
L 198.081695 54.561659 
L 198.639952 54.561659 
L 198.639952 52.454914 
L 200.037695 52.454914 
L 200.133901 42.447879 
L 200.295514 42.447879 
L 200.295514 41.394507 
L 200.49183 41.394507 
L 200.49183 39.287762 
L 208.929793 39.287762 
L 208.929793 36.127646 
L 210.559626 36.127646 
L 210.60017 35.074274 
L 210.701119 35.074274 
L 210.788138 32.440843 
L 210.836147 32.440843 
L 210.836147 31.387471 
L 211.076857 31.387471 
L 211.076857 30.334099 
L 338.688 30.334099 
L 338.688 30.334099 
" style="fill:none;stroke:#ff7500;stroke-linecap:square;stroke-width:1.5;"/>
   </g>
   <g id="line2d_53">
    <defs>
     <path d="M 0 -6 
L -1.347084 -1.854102 
L -5.706339 -1.854102 
L -2.179628 0.708204 
L -3.526712 4.854102 
L -0 2.291796 
L 3.526712 4.854102 
L 2.179628 0.708204 
L 5.706339 -1.854102 
L 1.347084 -1.854102 
z
" id="m6401f5acbf" style="stroke:#ff7500;stroke-linejoin:bevel;stroke-width:1.5;"/>
    </defs>
    <g>
     <use style="fill-opacity:0;stroke:#ff7500;stroke-linejoin:bevel;stroke-width:1.5;" x="116.914437" xlink:href="#m6401f5acbf" y="210.987425"/>
     <use style="fill-opacity:0;stroke:#ff7500;stroke-linejoin:bevel;stroke-width:1.5;" x="170.14658" xlink:href="#m6401f5acbf" y="165.692422"/>
     <use style="fill-opacity:0;stroke:#ff7500;stroke-linejoin:bevel;stroke-width:1.5;" x="208.929793" xlink:href="#m6401f5acbf" y="39.287762"/>
     <use style="fill-opacity:0;stroke:#ff7500;stroke-linejoin:bevel;stroke-width:1.5;" x="211.076857" xlink:href="#m6401f5acbf" y="30.334099"/>
     <use style="fill-opacity:0;stroke:#ff7500;stroke-linejoin:bevel;stroke-width:1.5;" x="211.076857" xlink:href="#m6401f5acbf" y="30.334099"/>
     <use style="fill-opacity:0;stroke:#ff7500;stroke-linejoin:bevel;stroke-width:1.5;" x="338.688" xlink:href="#m6401f5acbf" y="30.334099"/>
    </g>
   </g>
   <g id="line2d_54">
    <path style="fill:none;stroke:#ff7500;stroke-linecap:square;stroke-width:1.5;"/>
    <g/>
   </g>
   <g id="line2d_55">
    <path d="M 338.688 46.134681 
L 369.60768 293.571802 
" style="fill:none;stroke:#ff00ff;stroke-linecap:square;stroke-width:1.5;"/>
    <g>
     <use style="fill-opacity:0;stroke:#ff00ff;stroke-linejoin:miter;stroke-width:1.5;" x="338.688" xlink:href="#m1a6668b708" y="46.134681"/>
     <use style="fill-opacity:0;stroke:#ff00ff;stroke-linejoin:miter;stroke-width:1.5;" x="369.60768" xlink:href="#m1a6668b708" y="293.571802"/>
    </g>
   </g>
   <g id="line2d_56">
    <path d="M 338.688 30.334099 
L 369.60768 241.998701 
" style="fill:none;stroke:#ff0000;stroke-linecap:square;stroke-width:1.5;"/>
    <g>
     <use style="fill-opacity:0;stroke:#ff0000;stroke-linejoin:miter;stroke-width:1.5;" x="338.688" xlink:href="#m219cacd80a" y="30.334099"/>
     <use style="fill-opacity:0;stroke:#ff0000;stroke-linejoin:miter;stroke-width:1.5;" x="369.60768" xlink:href="#m219cacd80a" y="241.998701"/>
    </g>
   </g>
   <g id="line2d_57">
    <path d="M 338.688 30.334099 
L 369.60768 190.4256 
" style="fill:none;stroke:#000080;stroke-linecap:square;stroke-width:1.5;"/>
    <g>
     <use style="fill-opacity:0;stroke:#000080;stroke-width:1.5;" x="338.688" xlink:href="#m22998db315" y="30.334099"/>
     <use style="fill-opacity:0;stroke:#000080;stroke-width:1.5;" x="369.60768" xlink:href="#m22998db315" y="190.4256"/>
    </g>
   </g>
   <g id="line2d_58">
    <path d="M 338.688 30.334099 
L 369.60768 138.852499 
" style="fill:none;stroke:#000080;stroke-linecap:square;stroke-width:1.5;"/>
    <g>
     <use style="fill-opacity:0;stroke:#000080;stroke-width:1.5;" x="338.688" xlink:href="#m22998db315" y="30.334099"/>
     <use style="fill-opacity:0;stroke:#000080;stroke-width:1.5;" x="369.60768" xlink:href="#m22998db315" y="138.852499"/>
    </g>
   </g>
   <g id="line2d_59">
    <path d="M 338.688 30.334099 
L 369.60768 87.279398 
" style="fill:none;stroke:#ff7500;stroke-linecap:square;stroke-width:1.5;"/>
    <g>
     <use style="fill-opacity:0;stroke:#ff7500;stroke-linejoin:bevel;stroke-width:1.5;" x="338.688" xlink:href="#m6401f5acbf" y="30.334099"/>
     <use style="fill-opacity:0;stroke:#ff7500;stroke-linejoin:bevel;stroke-width:1.5;" x="369.60768" xlink:href="#m6401f5acbf" y="87.279398"/>
    </g>
   </g>
   <g id="line2d_60">
    <path d="M 338.688 298.944 
L 338.688 30.334099 
" style="fill:none;stroke:#000000;stroke-linecap:square;stroke-width:1.5;"/>
   </g>
   <g id="patch_3">
    <path d="M 57.6 298.944 
L 57.6 27.648 
" style="fill:none;stroke:#000000;stroke-linecap:square;stroke-linejoin:miter;stroke-width:0.8;"/>
   </g>
   <g id="patch_4">
    <path d="M 338.688 298.944 
L 338.688 27.648 
" style="fill:none;stroke:#000000;stroke-linecap:square;stroke-linejoin:miter;stroke-width:0.8;"/>
   </g>
   <g id="patch_5">
    <path d="M 57.6 298.944 
L 338.688 298.944 
" style="fill:none;stroke:#000000;stroke-linecap:square;stroke-linejoin:miter;stroke-width:0.8;"/>
   </g>
   <g id="patch_6">
    <path d="M 57.6 27.648 
L 338.688 27.648 
" style="fill:none;stroke:#000000;stroke-linecap:square;stroke-linejoin:miter;stroke-width:0.8;"/>
   </g>
   <g id="text_13">
    <!-- 400s-2e4 -->
    <g transform="translate(375.22944 298.262739)scale(0.17 -0.17)">
     <use xlink:href="#DejaVuSans-52"/>
     <use x="63.623047" xlink:href="#DejaVuSans-48"/>
     <use x="127.246094" xlink:href="#DejaVuSans-48"/>
     <use x="190.869141" xlink:href="#DejaVuSans-115"/>
     <use x="242.96875" xlink:href="#DejaVuSans-45"/>
     <use x="279.052734" xlink:href="#DejaVuSans-50"/>
     <use x="342.675781" xlink:href="#DejaVuSans-101"/>
     <use x="404.199219" xlink:href="#DejaVuSans-52"/>
    </g>
   </g>
   <g id="text_14">
    <!-- 200s-2e4 -->
    <g transform="translate(375.22944 246.689638)scale(0.17 -0.17)">
     <use xlink:href="#DejaVuSans-50"/>
     <use x="63.623047" xlink:href="#DejaVuSans-48"/>
     <use x="127.246094" xlink:href="#DejaVuSans-48"/>
     <use x="190.869141" xlink:href="#DejaVuSans-115"/>
     <use x="242.96875" xlink:href="#DejaVuSans-45"/>
     <use x="279.052734" xlink:href="#DejaVuSans-50"/>
     <use x="342.675781" xlink:href="#DejaVuSans-101"/>
     <use x="404.199219" xlink:href="#DejaVuSans-52"/>
    </g>
   </g>
   <g id="text_15">
    <!-- 100-2e4 -->
    <g transform="translate(375.22944 195.116537)scale(0.17 -0.17)">
     <use xlink:href="#DejaVuSans-49"/>
     <use x="63.623047" xlink:href="#DejaVuSans-48"/>
     <use x="127.246094" xlink:href="#DejaVuSans-48"/>
     <use x="190.869141" xlink:href="#DejaVuSans-45"/>
     <use x="226.953125" xlink:href="#DejaVuSans-50"/>
     <use x="290.576172" xlink:href="#DejaVuSans-101"/>
     <use x="352.099609" xlink:href="#DejaVuSans-52"/>
    </g>
   </g>
   <g id="text_16">
    <!-- 100-1e5 -->
    <defs>
     <path d="M 10.796875 72.90625 
L 49.515625 72.90625 
L 49.515625 64.59375 
L 19.828125 64.59375 
L 19.828125 46.734375 
Q 21.96875 47.46875 24.109375 47.828125 
Q 26.265625 48.1875 28.421875 48.1875 
Q 40.625 48.1875 47.75 41.5 
Q 54.890625 34.8125 54.890625 23.390625 
Q 54.890625 11.625 47.5625 5.09375 
Q 40.234375 -1.421875 26.90625 -1.421875 
Q 22.3125 -1.421875 17.546875 -0.640625 
Q 12.796875 0.140625 7.71875 1.703125 
L 7.71875 11.625 
Q 12.109375 9.234375 16.796875 8.0625 
Q 21.484375 6.890625 26.703125 6.890625 
Q 35.15625 6.890625 40.078125 11.328125 
Q 45.015625 15.765625 45.015625 23.390625 
Q 45.015625 31 40.078125 35.4375 
Q 35.15625 39.890625 26.703125 39.890625 
Q 22.75 39.890625 18.8125 39.015625 
Q 14.890625 38.140625 10.796875 36.28125 
z
" id="DejaVuSans-53"/>
    </defs>
    <g transform="translate(375.22944 143.543437)scale(0.17 -0.17)">
     <use xlink:href="#DejaVuSans-49"/>
     <use x="63.623047" xlink:href="#DejaVuSans-48"/>
     <use x="127.246094" xlink:href="#DejaVuSans-48"/>
     <use x="190.869141" xlink:href="#DejaVuSans-45"/>
     <use x="226.953125" xlink:href="#DejaVuSans-49"/>
     <use x="290.576172" xlink:href="#DejaVuSans-101"/>
     <use x="352.099609" xlink:href="#DejaVuSans-53"/>
    </g>
   </g>
   <g id="text_17">
    <!-- 140s-2e4 -->
    <g transform="translate(375.22944 91.970336)scale(0.17 -0.17)">
     <use xlink:href="#DejaVuSans-49"/>
     <use x="63.623047" xlink:href="#DejaVuSans-52"/>
     <use x="127.246094" xlink:href="#DejaVuSans-48"/>
     <use x="190.869141" xlink:href="#DejaVuSans-115"/>
     <use x="242.96875" xlink:href="#DejaVuSans-45"/>
     <use x="279.052734" xlink:href="#DejaVuSans-50"/>
     <use x="342.675781" xlink:href="#DejaVuSans-101"/>
     <use x="404.199219" xlink:href="#DejaVuSans-52"/>
    </g>
   </g>
   <g id="text_18">
    <!-- best 2009 -->
    <defs>
     <path d="M 48.6875 27.296875 
Q 48.6875 37.203125 44.609375 42.84375 
Q 40.53125 48.484375 33.40625 48.484375 
Q 26.265625 48.484375 22.1875 42.84375 
Q 18.109375 37.203125 18.109375 27.296875 
Q 18.109375 17.390625 22.1875 11.75 
Q 26.265625 6.109375 33.40625 6.109375 
Q 40.53125 6.109375 44.609375 11.75 
Q 48.6875 17.390625 48.6875 27.296875 
z
M 18.109375 46.390625 
Q 20.953125 51.265625 25.265625 53.625 
Q 29.59375 56 35.59375 56 
Q 45.5625 56 51.78125 48.09375 
Q 58.015625 40.1875 58.015625 27.296875 
Q 58.015625 14.40625 51.78125 6.484375 
Q 45.5625 -1.421875 35.59375 -1.421875 
Q 29.59375 -1.421875 25.265625 0.953125 
Q 20.953125 3.328125 18.109375 8.203125 
L 18.109375 0 
L 9.078125 0 
L 9.078125 75.984375 
L 18.109375 75.984375 
z
" id="DejaVuSans-98"/>
     <path d="M 10.984375 1.515625 
L 10.984375 10.5 
Q 14.703125 8.734375 18.5 7.8125 
Q 22.3125 6.890625 25.984375 6.890625 
Q 35.75 6.890625 40.890625 13.453125 
Q 46.046875 20.015625 46.78125 33.40625 
Q 43.953125 29.203125 39.59375 26.953125 
Q 35.25 24.703125 29.984375 24.703125 
Q 19.046875 24.703125 12.671875 31.3125 
Q 6.296875 37.9375 6.296875 49.421875 
Q 6.296875 60.640625 12.9375 67.421875 
Q 19.578125 74.21875 30.609375 74.21875 
Q 43.265625 74.21875 49.921875 64.515625 
Q 56.59375 54.828125 56.59375 36.375 
Q 56.59375 19.140625 48.40625 8.859375 
Q 40.234375 -1.421875 26.421875 -1.421875 
Q 22.703125 -1.421875 18.890625 -0.6875 
Q 15.09375 0.046875 10.984375 1.515625 
z
M 30.609375 32.421875 
Q 37.25 32.421875 41.125 36.953125 
Q 45.015625 41.5 45.015625 49.421875 
Q 45.015625 57.28125 41.125 61.84375 
Q 37.25 66.40625 30.609375 66.40625 
Q 23.96875 66.40625 20.09375 61.84375 
Q 16.21875 57.28125 16.21875 49.421875 
Q 16.21875 41.5 20.09375 36.953125 
Q 23.96875 32.421875 30.609375 32.421875 
z
" id="DejaVuSans-57"/>
    </defs>
    <g transform="translate(375.22944 40.397235)scale(0.17 -0.17)">
     <use xlink:href="#DejaVuSans-98"/>
     <use x="63.476562" xlink:href="#DejaVuSans-101"/>
     <use x="125" xlink:href="#DejaVuSans-115"/>
     <use x="177.099609" xlink:href="#DejaVuSans-116"/>
     <use x="216.308594" xlink:href="#DejaVuSans-32"/>
     <use x="248.095703" xlink:href="#DejaVuSans-50"/>
     <use x="311.71875" xlink:href="#DejaVuSans-48"/>
     <use x="375.341797" xlink:href="#DejaVuSans-48"/>
     <use x="438.964844" xlink:href="#DejaVuSans-57"/>
    </g>
   </g>
   <g id="text_19">
    <!-- bbob f19, 2-D -->
    <defs>
     <path d="M 19.671875 64.796875 
L 19.671875 8.109375 
L 31.59375 8.109375 
Q 46.6875 8.109375 53.6875 14.9375 
Q 60.6875 21.78125 60.6875 36.53125 
Q 60.6875 51.171875 53.6875 57.984375 
Q 46.6875 64.796875 31.59375 64.796875 
z
M 9.8125 72.90625 
L 30.078125 72.90625 
Q 51.265625 72.90625 61.171875 64.09375 
Q 71.09375 55.28125 71.09375 36.53125 
Q 71.09375 17.671875 61.125 8.828125 
Q 51.171875 0 30.078125 0 
L 9.8125 0 
z
" id="DejaVuSans-68"/>
    </defs>
    <g transform="translate(60.41088 38.111366)scale(0.102 -0.102)">
     <use xlink:href="#DejaVuSans-98"/>
     <use x="63.476562" xlink:href="#DejaVuSans-98"/>
     <use x="126.953125" xlink:href="#DejaVuSans-111"/>
     <use x="188.134766" xlink:href="#DejaVuSans-98"/>
     <use x="251.611328" xlink:href="#DejaVuSans-32"/>
     <use x="283.398438" xlink:href="#DejaVuSans-102"/>
     <use x="318.603516" xlink:href="#DejaVuSans-49"/>
     <use x="382.226562" xlink:href="#DejaVuSans-57"/>
     <use x="445.849609" xlink:href="#DejaVuSans-44"/>
     <use x="477.636719" xlink:href="#DejaVuSans-32"/>
     <use x="509.423828" xlink:href="#DejaVuSans-50"/>
     <use x="573.046875" xlink:href="#DejaVuSans-45"/>
     <use x="609.130859" xlink:href="#DejaVuSans-68"/>
    </g>
    <!-- 51 targets: 100..1e-08 -->
    <defs>
     <path d="M 11.71875 12.40625 
L 22.015625 12.40625 
L 22.015625 0 
L 11.71875 0 
z
M 11.71875 51.703125 
L 22.015625 51.703125 
L 22.015625 39.3125 
L 11.71875 39.3125 
z
" id="DejaVuSans-58"/>
    </defs>
    <g transform="translate(60.41088 49.533135)scale(0.102 -0.102)">
     <use xlink:href="#DejaVuSans-53"/>
     <use x="63.623047" xlink:href="#DejaVuSans-49"/>
     <use x="127.246094" xlink:href="#DejaVuSans-32"/>
     <use x="159.033203" xlink:href="#DejaVuSans-116"/>
     <use x="198.242188" xlink:href="#DejaVuSans-97"/>
     <use x="259.521484" xlink:href="#DejaVuSans-114"/>
     <use x="300.619141" xlink:href="#DejaVuSans-103"/>
     <use x="364.095703" xlink:href="#DejaVuSans-101"/>
     <use x="425.619141" xlink:href="#DejaVuSans-116"/>
     <use x="464.828125" xlink:href="#DejaVuSans-115"/>
     <use x="516.927734" xlink:href="#DejaVuSans-58"/>
     <use x="550.619141" xlink:href="#DejaVuSans-32"/>
     <use x="582.40625" xlink:href="#DejaVuSans-49"/>
     <use x="646.029297" xlink:href="#DejaVuSans-48"/>
     <use x="709.652344" xlink:href="#DejaVuSans-48"/>
     <use x="773.275391" xlink:href="#DejaVuSans-46"/>
     <use x="805.0625" xlink:href="#DejaVuSans-46"/>
     <use x="836.849609" xlink:href="#DejaVuSans-49"/>
     <use x="900.472656" xlink:href="#DejaVuSans-101"/>
     <use x="961.996094" xlink:href="#DejaVuSans-45"/>
     <use x="998.080078" xlink:href="#DejaVuSans-48"/>
     <use x="1061.703125" xlink:href="#DejaVuSans-56"/>
    </g>
    <!-- 15 instances -->
    <g transform="translate(60.41088 60.954904)scale(0.102 -0.102)">
     <use xlink:href="#DejaVuSans-49"/>
     <use x="63.623047" xlink:href="#DejaVuSans-53"/>
     <use x="127.246094" xlink:href="#DejaVuSans-32"/>
     <use x="159.033203" xlink:href="#DejaVuSans-105"/>
     <use x="186.816406" xlink:href="#DejaVuSans-110"/>
     <use x="250.195312" xlink:href="#DejaVuSans-115"/>
     <use x="302.294922" xlink:href="#DejaVuSans-116"/>
     <use x="341.503906" xlink:href="#DejaVuSans-97"/>
     <use x="402.783203" xlink:href="#DejaVuSans-110"/>
     <use x="466.162109" xlink:href="#DejaVuSans-99"/>
     <use x="521.142578" xlink:href="#DejaVuSans-101"/>
     <use x="582.666016" xlink:href="#DejaVuSans-115"/>
    </g>
   </g>
   <g id="text_20">
    <!-- v2.3.3.18.73 -->
    <defs>
     <path d="M 40.578125 39.3125 
Q 47.65625 37.796875 51.625 33 
Q 55.609375 28.21875 55.609375 21.1875 
Q 55.609375 10.40625 48.1875 4.484375 
Q 40.765625 -1.421875 27.09375 -1.421875 
Q 22.515625 -1.421875 17.65625 -0.515625 
Q 12.796875 0.390625 7.625 2.203125 
L 7.625 11.71875 
Q 11.71875 9.328125 16.59375 8.109375 
Q 21.484375 6.890625 26.8125 6.890625 
Q 36.078125 6.890625 40.9375 10.546875 
Q 45.796875 14.203125 45.796875 21.1875 
Q 45.796875 27.640625 41.28125 31.265625 
Q 36.765625 34.90625 28.71875 34.90625 
L 20.21875 34.90625 
L 20.21875 43.015625 
L 29.109375 43.015625 
Q 36.375 43.015625 40.234375 45.921875 
Q 44.09375 48.828125 44.09375 54.296875 
Q 44.09375 59.90625 40.109375 62.90625 
Q 36.140625 65.921875 28.71875 65.921875 
Q 24.65625 65.921875 20.015625 65.03125 
Q 15.375 64.15625 9.8125 62.3125 
L 9.8125 71.09375 
Q 15.4375 72.65625 20.34375 73.4375 
Q 25.25 74.21875 29.59375 74.21875 
Q 40.828125 74.21875 47.359375 69.109375 
Q 53.90625 64.015625 53.90625 55.328125 
Q 53.90625 49.265625 50.4375 45.09375 
Q 46.96875 40.921875 40.578125 39.3125 
z
" id="DejaVuSans-51"/>
     <path d="M 8.203125 72.90625 
L 55.078125 72.90625 
L 55.078125 68.703125 
L 28.609375 0 
L 18.3125 0 
L 43.21875 64.59375 
L 8.203125 64.59375 
z
" id="DejaVuSans-55"/>
    </defs>
    <g style="fill:#808080;" transform="translate(166.559625 294.151352)scale(0.1 -0.1)">
     <use xlink:href="#DejaVuSans-118"/>
     <use x="59.179688" xlink:href="#DejaVuSans-50"/>
     <use x="122.802734" xlink:href="#DejaVuSans-46"/>
     <use x="154.589844" xlink:href="#DejaVuSans-51"/>
     <use x="218.212891" xlink:href="#DejaVuSans-46"/>
     <use x="250" xlink:href="#DejaVuSans-51"/>
     <use x="313.623047" xlink:href="#DejaVuSans-46"/>
     <use x="345.410156" xlink:href="#DejaVuSans-49"/>
     <use x="409.033203" xlink:href="#DejaVuSans-56"/>
     <use x="472.65625" xlink:href="#DejaVuSans-46"/>
     <use x="504.443359" xlink:href="#DejaVuSans-55"/>
     <use x="568.066406" xlink:href="#DejaVuSans-51"/>
    </g>
   </g>
   <g id="text_21">
    <!-- 19 Griewank-Rosenbrock F8F2 -->
    <defs>
     <path d="M 59.515625 10.40625 
L 59.515625 29.984375 
L 43.40625 29.984375 
L 43.40625 38.09375 
L 69.28125 38.09375 
L 69.28125 6.78125 
Q 63.578125 2.734375 56.6875 0.65625 
Q 49.8125 -1.421875 42 -1.421875 
Q 24.90625 -1.421875 15.25 8.5625 
Q 5.609375 18.5625 5.609375 36.375 
Q 5.609375 54.25 15.25 64.234375 
Q 24.90625 74.21875 42 74.21875 
Q 49.125 74.21875 55.546875 72.453125 
Q 61.96875 70.703125 67.390625 67.28125 
L 67.390625 56.78125 
Q 61.921875 61.421875 55.765625 63.765625 
Q 49.609375 66.109375 42.828125 66.109375 
Q 29.4375 66.109375 22.71875 58.640625 
Q 16.015625 51.171875 16.015625 36.375 
Q 16.015625 21.625 22.71875 14.15625 
Q 29.4375 6.6875 42.828125 6.6875 
Q 48.046875 6.6875 52.140625 7.59375 
Q 56.25 8.5 59.515625 10.40625 
z
" id="DejaVuSans-71"/>
     <path d="M 4.203125 54.6875 
L 13.1875 54.6875 
L 24.421875 12.015625 
L 35.59375 54.6875 
L 46.1875 54.6875 
L 57.421875 12.015625 
L 68.609375 54.6875 
L 77.59375 54.6875 
L 63.28125 0 
L 52.6875 0 
L 40.921875 44.828125 
L 29.109375 0 
L 18.5 0 
z
" id="DejaVuSans-119"/>
     <path d="M 9.078125 75.984375 
L 18.109375 75.984375 
L 18.109375 31.109375 
L 44.921875 54.6875 
L 56.390625 54.6875 
L 27.390625 29.109375 
L 57.625 0 
L 45.90625 0 
L 18.109375 26.703125 
L 18.109375 0 
L 9.078125 0 
z
" id="DejaVuSans-107"/>
     <path d="M 44.390625 34.1875 
Q 47.5625 33.109375 50.5625 29.59375 
Q 53.5625 26.078125 56.59375 19.921875 
L 66.609375 0 
L 56 0 
L 46.6875 18.703125 
Q 43.0625 26.03125 39.671875 28.421875 
Q 36.28125 30.8125 30.421875 30.8125 
L 19.671875 30.8125 
L 19.671875 0 
L 9.8125 0 
L 9.8125 72.90625 
L 32.078125 72.90625 
Q 44.578125 72.90625 50.734375 67.671875 
Q 56.890625 62.453125 56.890625 51.90625 
Q 56.890625 45.015625 53.6875 40.46875 
Q 50.484375 35.9375 44.390625 34.1875 
z
M 19.671875 64.796875 
L 19.671875 38.921875 
L 32.078125 38.921875 
Q 39.203125 38.921875 42.84375 42.21875 
Q 46.484375 45.515625 46.484375 51.90625 
Q 46.484375 58.296875 42.84375 61.546875 
Q 39.203125 64.796875 32.078125 64.796875 
z
" id="DejaVuSans-82"/>
    </defs>
    <g transform="translate(45.376812 21.648)scale(0.2 -0.2)">
     <use xlink:href="#DejaVuSans-49"/>
     <use x="63.623047" xlink:href="#DejaVuSans-57"/>
     <use x="127.246094" xlink:href="#DejaVuSans-32"/>
     <use x="159.033203" xlink:href="#DejaVuSans-71"/>
     <use x="236.523438" xlink:href="#DejaVuSans-114"/>
     <use x="277.636719" xlink:href="#DejaVuSans-105"/>
     <use x="305.419922" xlink:href="#DejaVuSans-101"/>
     <use x="366.943359" xlink:href="#DejaVuSans-119"/>
     <use x="448.730469" xlink:href="#DejaVuSans-97"/>
     <use x="510.009766" xlink:href="#DejaVuSans-110"/>
     <use x="573.388672" xlink:href="#DejaVuSans-107"/>
     <use x="631.298828" xlink:href="#DejaVuSans-45"/>
     <use x="667.382812" xlink:href="#DejaVuSans-82"/>
     <use x="736.802734" xlink:href="#DejaVuSans-111"/>
     <use x="797.984375" xlink:href="#DejaVuSans-115"/>
     <use x="850.083984" xlink:href="#DejaVuSans-101"/>
     <use x="911.607422" xlink:href="#DejaVuSans-110"/>
     <use x="974.986328" xlink:href="#DejaVuSans-98"/>
     <use x="1038.462891" xlink:href="#DejaVuSans-114"/>
     <use x="1079.544922" xlink:href="#DejaVuSans-111"/>
     <use x="1140.726562" xlink:href="#DejaVuSans-99"/>
     <use x="1195.707031" xlink:href="#DejaVuSans-107"/>
     <use x="1253.617188" xlink:href="#DejaVuSans-32"/>
     <use x="1285.404297" xlink:href="#DejaVuSans-70"/>
     <use x="1342.923828" xlink:href="#DejaVuSans-56"/>
     <use x="1406.546875" xlink:href="#DejaVuSans-70"/>
     <use x="1464.066406" xlink:href="#DejaVuSans-50"/>
    </g>
   </g>
  </g>
 </g>
 <defs>
  <clipPath id="p71cf17448d">
   <rect height="271.296" width="281.088" x="57.6" y="27.648"/>
  </clipPath>
 </defs>
</svg>
