<?xml version="1.0" encoding="utf-8" standalone="no"?>
<!DOCTYPE svg PUBLIC "-//W3C//DTD SVG 1.1//EN"
  "http://www.w3.org/Graphics/SVG/1.1/DTD/svg11.dtd">
<!-- Created with matplotlib (https://matplotlib.org/) -->
<svg height="345.6pt" version="1.1" viewBox="0 0 460.8 345.6" width="460.8pt" xmlns="http://www.w3.org/2000/svg" xmlns:xlink="http://www.w3.org/1999/xlink">
 <defs>
  <style type="text/css">
*{stroke-linecap:butt;stroke-linejoin:round;}
  </style>
 </defs>
 <g id="figure_1">
  <g id="patch_1">
   <path d="M 0 345.6 
L 460.8 345.6 
L 460.8 0 
L 0 0 
z
" style="fill:#ffffff;"/>
  </g>
  <g id="axes_1">
   <g id="patch_2">
    <path d="M 57.6 298.944 
L 338.688 298.944 
L 338.688 27.648 
L 57.6 27.648 
z
" style="fill:#ffffff;"/>
   </g>
   <g id="line2d_1">
    <path d="M 104.826449 298.944 
L 104.826449 293.677139 
L 105.51043 293.677139 
L 105.51043 288.410278 
L 106.382575 288.410278 
L 106.382575 283.143418 
L 106.593963 283.143418 
L 106.593963 267.342835 
L 107.009204 267.342835 
L 107.009204 262.075974 
L 107.414787 262.075974 
L 107.414787 241.008531 
L 107.614095 241.008531 
L 107.614095 209.407366 
L 107.811151 209.407366 
L 107.811151 177.806202 
L 108.006005 177.806202 
L 108.006005 151.471897 
L 108.198707 151.471897 
L 108.198707 119.870733 
L 108.389302 119.870733 
L 108.389302 104.07015 
L 108.577836 104.07015 
L 108.577836 67.202125 
L 108.764355 67.202125 
L 108.764355 46.134681 
L 108.948899 46.134681 
L 108.948899 30.334099 
L 338.688 30.334099 
" style="fill:none;stroke:#f5deb3;stroke-linecap:square;stroke-width:4;"/>
   </g>
   <g id="line2d_2">
    <defs>
     <path d="M -0 7.778175 
L 7.778175 0 
L 0 -7.778175 
L -7.778175 -0 
z
" id="m743b486b98" style="stroke:#f5deb3;stroke-linejoin:miter;stroke-width:1.5;"/>
    </defs>
    <g>
     <use style="fill:#f5deb3;stroke:#f5deb3;stroke-linejoin:miter;stroke-width:1.5;" x="107.614095" xlink:href="#m743b486b98" y="209.407366"/>
     <use style="fill:#f5deb3;stroke:#f5deb3;stroke-linejoin:miter;stroke-width:1.5;" x="108.577836" xlink:href="#m743b486b98" y="104.07015"/>
     <use style="fill:#f5deb3;stroke:#f5deb3;stroke-linejoin:miter;stroke-width:1.5;" x="108.948899" xlink:href="#m743b486b98" y="30.334099"/>
     <use style="fill:#f5deb3;stroke:#f5deb3;stroke-linejoin:miter;stroke-width:1.5;" x="108.948899" xlink:href="#m743b486b98" y="30.334099"/>
     <use style="fill:#f5deb3;stroke:#f5deb3;stroke-linejoin:miter;stroke-width:1.5;" x="338.688" xlink:href="#m743b486b98" y="30.334099"/>
    </g>
   </g>
   <g id="line2d_3">
    <path style="fill:none;stroke:#f5deb3;stroke-linecap:square;stroke-width:4;"/>
    <g/>
   </g>
   <g id="line2d_4">
    <path d="M 338.688 30.334099 
L 369.60768 35.706297 
" style="fill:none;stroke:#f5deb3;stroke-linecap:square;stroke-width:4;"/>
    <g>
     <use style="fill:#f5deb3;stroke:#f5deb3;stroke-linejoin:miter;stroke-width:1.5;" x="338.688" xlink:href="#m743b486b98" y="30.334099"/>
     <use style="fill:#f5deb3;stroke:#f5deb3;stroke-linejoin:miter;stroke-width:1.5;" x="369.60768" xlink:href="#m743b486b98" y="35.706297"/>
    </g>
   </g>
   <g id="matplotlib.axis_1">
    <g id="xtick_1">
     <g id="line2d_5">
      <path clip-path="url(#pbc2b6b515a)" d="M 57.6 298.944 
L 57.6 27.648 
" style="fill:none;stroke:#b0b0b0;stroke-linecap:square;stroke-width:0.8;"/>
     </g>
     <g id="line2d_6">
      <defs>
       <path d="M 0 0 
L 0 3.5 
" id="m00e14f264a" style="stroke:#000000;stroke-width:0.8;"/>
      </defs>
      <g>
       <use style="stroke:#000000;stroke-width:0.8;" x="57.6" xlink:href="#m00e14f264a" y="298.944"/>
      </g>
     </g>
     <g id="text_1">
      <!-- 0 -->
      <defs>
       <path d="M 31.78125 66.40625 
Q 24.171875 66.40625 20.328125 58.90625 
Q 16.5 51.421875 16.5 36.375 
Q 16.5 21.390625 20.328125 13.890625 
Q 24.171875 6.390625 31.78125 6.390625 
Q 39.453125 6.390625 43.28125 13.890625 
Q 47.125 21.390625 47.125 36.375 
Q 47.125 51.421875 43.28125 58.90625 
Q 39.453125 66.40625 31.78125 66.40625 
z
M 31.78125 74.21875 
Q 44.046875 74.21875 50.515625 64.515625 
Q 56.984375 54.828125 56.984375 36.375 
Q 56.984375 17.96875 50.515625 8.265625 
Q 44.046875 -1.421875 31.78125 -1.421875 
Q 19.53125 -1.421875 13.0625 8.265625 
Q 6.59375 17.96875 6.59375 36.375 
Q 6.59375 54.828125 13.0625 64.515625 
Q 19.53125 74.21875 31.78125 74.21875 
z
" id="DejaVuSans-48"/>
      </defs>
      <g transform="translate(51.2375 321.140875)scale(0.2 -0.2)">
       <use xlink:href="#DejaVuSans-48"/>
      </g>
     </g>
    </g>
    <g id="xtick_2">
     <g id="line2d_7">
      <path clip-path="url(#pbc2b6b515a)" d="M 137.910857 298.944 
L 137.910857 27.648 
" style="fill:none;stroke:#b0b0b0;stroke-linecap:square;stroke-width:0.8;"/>
     </g>
     <g id="line2d_8">
      <g>
       <use style="stroke:#000000;stroke-width:0.8;" x="137.910857" xlink:href="#m00e14f264a" y="298.944"/>
      </g>
     </g>
     <g id="text_2">
      <!-- 2 -->
      <defs>
       <path d="M 19.1875 8.296875 
L 53.609375 8.296875 
L 53.609375 0 
L 7.328125 0 
L 7.328125 8.296875 
Q 12.9375 14.109375 22.625 23.890625 
Q 32.328125 33.6875 34.8125 36.53125 
Q 39.546875 41.84375 41.421875 45.53125 
Q 43.3125 49.21875 43.3125 52.78125 
Q 43.3125 58.59375 39.234375 62.25 
Q 35.15625 65.921875 28.609375 65.921875 
Q 23.96875 65.921875 18.8125 64.3125 
Q 13.671875 62.703125 7.8125 59.421875 
L 7.8125 69.390625 
Q 13.765625 71.78125 18.9375 73 
Q 24.125 74.21875 28.421875 74.21875 
Q 39.75 74.21875 46.484375 68.546875 
Q 53.21875 62.890625 53.21875 53.421875 
Q 53.21875 48.921875 51.53125 44.890625 
Q 49.859375 40.875 45.40625 35.40625 
Q 44.1875 33.984375 37.640625 27.21875 
Q 31.109375 20.453125 19.1875 8.296875 
z
" id="DejaVuSans-50"/>
      </defs>
      <g transform="translate(131.548357 321.140875)scale(0.2 -0.2)">
       <use xlink:href="#DejaVuSans-50"/>
      </g>
     </g>
    </g>
    <g id="xtick_3">
     <g id="line2d_9">
      <path clip-path="url(#pbc2b6b515a)" d="M 218.221714 298.944 
L 218.221714 27.648 
" style="fill:none;stroke:#b0b0b0;stroke-linecap:square;stroke-width:0.8;"/>
     </g>
     <g id="line2d_10">
      <g>
       <use style="stroke:#000000;stroke-width:0.8;" x="218.221714" xlink:href="#m00e14f264a" y="298.944"/>
      </g>
     </g>
     <g id="text_3">
      <!-- 4 -->
      <defs>
       <path d="M 37.796875 64.3125 
L 12.890625 25.390625 
L 37.796875 25.390625 
z
M 35.203125 72.90625 
L 47.609375 72.90625 
L 47.609375 25.390625 
L 58.015625 25.390625 
L 58.015625 17.1875 
L 47.609375 17.1875 
L 47.609375 0 
L 37.796875 0 
L 37.796875 17.1875 
L 4.890625 17.1875 
L 4.890625 26.703125 
z
" id="DejaVuSans-52"/>
      </defs>
      <g transform="translate(211.859214 321.140875)scale(0.2 -0.2)">
       <use xlink:href="#DejaVuSans-52"/>
      </g>
     </g>
    </g>
    <g id="xtick_4">
     <g id="line2d_11">
      <path clip-path="url(#pbc2b6b515a)" d="M 298.532571 298.944 
L 298.532571 27.648 
" style="fill:none;stroke:#b0b0b0;stroke-linecap:square;stroke-width:0.8;"/>
     </g>
     <g id="line2d_12">
      <g>
       <use style="stroke:#000000;stroke-width:0.8;" x="298.532571" xlink:href="#m00e14f264a" y="298.944"/>
      </g>
     </g>
     <g id="text_4">
      <!-- 6 -->
      <defs>
       <path d="M 33.015625 40.375 
Q 26.375 40.375 22.484375 35.828125 
Q 18.609375 31.296875 18.609375 23.390625 
Q 18.609375 15.53125 22.484375 10.953125 
Q 26.375 6.390625 33.015625 6.390625 
Q 39.65625 6.390625 43.53125 10.953125 
Q 47.40625 15.53125 47.40625 23.390625 
Q 47.40625 31.296875 43.53125 35.828125 
Q 39.65625 40.375 33.015625 40.375 
z
M 52.59375 71.296875 
L 52.59375 62.3125 
Q 48.875 64.0625 45.09375 64.984375 
Q 41.3125 65.921875 37.59375 65.921875 
Q 27.828125 65.921875 22.671875 59.328125 
Q 17.53125 52.734375 16.796875 39.40625 
Q 19.671875 43.65625 24.015625 45.921875 
Q 28.375 48.1875 33.59375 48.1875 
Q 44.578125 48.1875 50.953125 41.515625 
Q 57.328125 34.859375 57.328125 23.390625 
Q 57.328125 12.15625 50.6875 5.359375 
Q 44.046875 -1.421875 33.015625 -1.421875 
Q 20.359375 -1.421875 13.671875 8.265625 
Q 6.984375 17.96875 6.984375 36.375 
Q 6.984375 53.65625 15.1875 63.9375 
Q 23.390625 74.21875 37.203125 74.21875 
Q 40.921875 74.21875 44.703125 73.484375 
Q 48.484375 72.75 52.59375 71.296875 
z
" id="DejaVuSans-54"/>
      </defs>
      <g transform="translate(292.170071 321.140875)scale(0.2 -0.2)">
       <use xlink:href="#DejaVuSans-54"/>
      </g>
     </g>
    </g>
    <g id="xtick_5">
     <g id="line2d_13">
      <path clip-path="url(#pbc2b6b515a)" d="M 97.755429 298.944 
L 97.755429 27.648 
" style="fill:none;stroke:#b0b0b0;stroke-linecap:square;stroke-width:0.8;"/>
     </g>
     <g id="line2d_14">
      <defs>
       <path d="M 0 0 
L 0 2 
" id="m736e4c5659" style="stroke:#000000;stroke-width:0.6;"/>
      </defs>
      <g>
       <use style="stroke:#000000;stroke-width:0.6;" x="97.755429" xlink:href="#m736e4c5659" y="298.944"/>
      </g>
     </g>
    </g>
    <g id="xtick_6">
     <g id="line2d_15">
      <path clip-path="url(#pbc2b6b515a)" d="M 178.066286 298.944 
L 178.066286 27.648 
" style="fill:none;stroke:#b0b0b0;stroke-linecap:square;stroke-width:0.8;"/>
     </g>
     <g id="line2d_16">
      <g>
       <use style="stroke:#000000;stroke-width:0.6;" x="178.066286" xlink:href="#m736e4c5659" y="298.944"/>
      </g>
     </g>
    </g>
    <g id="xtick_7">
     <g id="line2d_17">
      <path clip-path="url(#pbc2b6b515a)" d="M 258.377143 298.944 
L 258.377143 27.648 
" style="fill:none;stroke:#b0b0b0;stroke-linecap:square;stroke-width:0.8;"/>
     </g>
     <g id="line2d_18">
      <g>
       <use style="stroke:#000000;stroke-width:0.6;" x="258.377143" xlink:href="#m736e4c5659" y="298.944"/>
      </g>
     </g>
    </g>
    <g id="xtick_8">
     <g id="line2d_19">
      <path clip-path="url(#pbc2b6b515a)" d="M 338.688 298.944 
L 338.688 27.648 
" style="fill:none;stroke:#b0b0b0;stroke-linecap:square;stroke-width:0.8;"/>
     </g>
     <g id="line2d_20">
      <g>
       <use style="stroke:#000000;stroke-width:0.6;" x="338.688" xlink:href="#m736e4c5659" y="298.944"/>
      </g>
     </g>
    </g>
    <g id="text_5">
     <!-- log10(# f-evals / dimension) -->
     <defs>
      <path d="M 9.421875 75.984375 
L 18.40625 75.984375 
L 18.40625 0 
L 9.421875 0 
z
" id="DejaVuSans-108"/>
      <path d="M 30.609375 48.390625 
Q 23.390625 48.390625 19.1875 42.75 
Q 14.984375 37.109375 14.984375 27.296875 
Q 14.984375 17.484375 19.15625 11.84375 
Q 23.34375 6.203125 30.609375 6.203125 
Q 37.796875 6.203125 41.984375 11.859375 
Q 46.1875 17.53125 46.1875 27.296875 
Q 46.1875 37.015625 41.984375 42.703125 
Q 37.796875 48.390625 30.609375 48.390625 
z
M 30.609375 56 
Q 42.328125 56 49.015625 48.375 
Q 55.71875 40.765625 55.71875 27.296875 
Q 55.71875 13.875 49.015625 6.21875 
Q 42.328125 -1.421875 30.609375 -1.421875 
Q 18.84375 -1.421875 12.171875 6.21875 
Q 5.515625 13.875 5.515625 27.296875 
Q 5.515625 40.765625 12.171875 48.375 
Q 18.84375 56 30.609375 56 
z
" id="DejaVuSans-111"/>
      <path d="M 45.40625 27.984375 
Q 45.40625 37.75 41.375 43.109375 
Q 37.359375 48.484375 30.078125 48.484375 
Q 22.859375 48.484375 18.828125 43.109375 
Q 14.796875 37.75 14.796875 27.984375 
Q 14.796875 18.265625 18.828125 12.890625 
Q 22.859375 7.515625 30.078125 7.515625 
Q 37.359375 7.515625 41.375 12.890625 
Q 45.40625 18.265625 45.40625 27.984375 
z
M 54.390625 6.78125 
Q 54.390625 -7.171875 48.1875 -13.984375 
Q 42 -20.796875 29.203125 -20.796875 
Q 24.46875 -20.796875 20.265625 -20.09375 
Q 16.0625 -19.390625 12.109375 -17.921875 
L 12.109375 -9.1875 
Q 16.0625 -11.328125 19.921875 -12.34375 
Q 23.78125 -13.375 27.78125 -13.375 
Q 36.625 -13.375 41.015625 -8.765625 
Q 45.40625 -4.15625 45.40625 5.171875 
L 45.40625 9.625 
Q 42.625 4.78125 38.28125 2.390625 
Q 33.9375 0 27.875 0 
Q 17.828125 0 11.671875 7.65625 
Q 5.515625 15.328125 5.515625 27.984375 
Q 5.515625 40.671875 11.671875 48.328125 
Q 17.828125 56 27.875 56 
Q 33.9375 56 38.28125 53.609375 
Q 42.625 51.21875 45.40625 46.390625 
L 45.40625 54.6875 
L 54.390625 54.6875 
z
" id="DejaVuSans-103"/>
      <path d="M 12.40625 8.296875 
L 28.515625 8.296875 
L 28.515625 63.921875 
L 10.984375 60.40625 
L 10.984375 69.390625 
L 28.421875 72.90625 
L 38.28125 72.90625 
L 38.28125 8.296875 
L 54.390625 8.296875 
L 54.390625 0 
L 12.40625 0 
z
" id="DejaVuSans-49"/>
      <path d="M 31 75.875 
Q 24.46875 64.65625 21.28125 53.65625 
Q 18.109375 42.671875 18.109375 31.390625 
Q 18.109375 20.125 21.3125 9.0625 
Q 24.515625 -2 31 -13.1875 
L 23.1875 -13.1875 
Q 15.875 -1.703125 12.234375 9.375 
Q 8.59375 20.453125 8.59375 31.390625 
Q 8.59375 42.28125 12.203125 53.3125 
Q 15.828125 64.359375 23.1875 75.875 
z
" id="DejaVuSans-40"/>
      <path d="M 51.125 44 
L 36.921875 44 
L 32.8125 27.6875 
L 47.125 27.6875 
z
M 43.796875 71.78125 
L 38.71875 51.515625 
L 52.984375 51.515625 
L 58.109375 71.78125 
L 65.921875 71.78125 
L 60.890625 51.515625 
L 76.125 51.515625 
L 76.125 44 
L 58.984375 44 
L 54.984375 27.6875 
L 70.515625 27.6875 
L 70.515625 20.21875 
L 53.078125 20.21875 
L 48 0 
L 40.1875 0 
L 45.21875 20.21875 
L 30.90625 20.21875 
L 25.875 0 
L 18.015625 0 
L 23.09375 20.21875 
L 7.71875 20.21875 
L 7.71875 27.6875 
L 24.90625 27.6875 
L 29 44 
L 13.28125 44 
L 13.28125 51.515625 
L 30.90625 51.515625 
L 35.890625 71.78125 
z
" id="DejaVuSans-35"/>
      <path id="DejaVuSans-32"/>
      <path d="M 37.109375 75.984375 
L 37.109375 68.5 
L 28.515625 68.5 
Q 23.6875 68.5 21.796875 66.546875 
Q 19.921875 64.59375 19.921875 59.515625 
L 19.921875 54.6875 
L 34.71875 54.6875 
L 34.71875 47.703125 
L 19.921875 47.703125 
L 19.921875 0 
L 10.890625 0 
L 10.890625 47.703125 
L 2.296875 47.703125 
L 2.296875 54.6875 
L 10.890625 54.6875 
L 10.890625 58.5 
Q 10.890625 67.625 15.140625 71.796875 
Q 19.390625 75.984375 28.609375 75.984375 
z
" id="DejaVuSans-102"/>
      <path d="M 4.890625 31.390625 
L 31.203125 31.390625 
L 31.203125 23.390625 
L 4.890625 23.390625 
z
" id="DejaVuSans-45"/>
      <path d="M 56.203125 29.59375 
L 56.203125 25.203125 
L 14.890625 25.203125 
Q 15.484375 15.921875 20.484375 11.0625 
Q 25.484375 6.203125 34.421875 6.203125 
Q 39.59375 6.203125 44.453125 7.46875 
Q 49.3125 8.734375 54.109375 11.28125 
L 54.109375 2.78125 
Q 49.265625 0.734375 44.1875 -0.34375 
Q 39.109375 -1.421875 33.890625 -1.421875 
Q 20.796875 -1.421875 13.15625 6.1875 
Q 5.515625 13.8125 5.515625 26.8125 
Q 5.515625 40.234375 12.765625 48.109375 
Q 20.015625 56 32.328125 56 
Q 43.359375 56 49.78125 48.890625 
Q 56.203125 41.796875 56.203125 29.59375 
z
M 47.21875 32.234375 
Q 47.125 39.59375 43.09375 43.984375 
Q 39.0625 48.390625 32.421875 48.390625 
Q 24.90625 48.390625 20.390625 44.140625 
Q 15.875 39.890625 15.1875 32.171875 
z
" id="DejaVuSans-101"/>
      <path d="M 2.984375 54.6875 
L 12.5 54.6875 
L 29.59375 8.796875 
L 46.6875 54.6875 
L 56.203125 54.6875 
L 35.6875 0 
L 23.484375 0 
z
" id="DejaVuSans-118"/>
      <path d="M 34.28125 27.484375 
Q 23.390625 27.484375 19.1875 25 
Q 14.984375 22.515625 14.984375 16.5 
Q 14.984375 11.71875 18.140625 8.90625 
Q 21.296875 6.109375 26.703125 6.109375 
Q 34.1875 6.109375 38.703125 11.40625 
Q 43.21875 16.703125 43.21875 25.484375 
L 43.21875 27.484375 
z
M 52.203125 31.203125 
L 52.203125 0 
L 43.21875 0 
L 43.21875 8.296875 
Q 40.140625 3.328125 35.546875 0.953125 
Q 30.953125 -1.421875 24.3125 -1.421875 
Q 15.921875 -1.421875 10.953125 3.296875 
Q 6 8.015625 6 15.921875 
Q 6 25.140625 12.171875 29.828125 
Q 18.359375 34.515625 30.609375 34.515625 
L 43.21875 34.515625 
L 43.21875 35.40625 
Q 43.21875 41.609375 39.140625 45 
Q 35.0625 48.390625 27.6875 48.390625 
Q 23 48.390625 18.546875 47.265625 
Q 14.109375 46.140625 10.015625 43.890625 
L 10.015625 52.203125 
Q 14.9375 54.109375 19.578125 55.046875 
Q 24.21875 56 28.609375 56 
Q 40.484375 56 46.34375 49.84375 
Q 52.203125 43.703125 52.203125 31.203125 
z
" id="DejaVuSans-97"/>
      <path d="M 44.28125 53.078125 
L 44.28125 44.578125 
Q 40.484375 46.53125 36.375 47.5 
Q 32.28125 48.484375 27.875 48.484375 
Q 21.1875 48.484375 17.84375 46.4375 
Q 14.5 44.390625 14.5 40.28125 
Q 14.5 37.15625 16.890625 35.375 
Q 19.28125 33.59375 26.515625 31.984375 
L 29.59375 31.296875 
Q 39.15625 29.25 43.1875 25.515625 
Q 47.21875 21.78125 47.21875 15.09375 
Q 47.21875 7.46875 41.1875 3.015625 
Q 35.15625 -1.421875 24.609375 -1.421875 
Q 20.21875 -1.421875 15.453125 -0.5625 
Q 10.6875 0.296875 5.421875 2 
L 5.421875 11.28125 
Q 10.40625 8.6875 15.234375 7.390625 
Q 20.0625 6.109375 24.8125 6.109375 
Q 31.15625 6.109375 34.5625 8.28125 
Q 37.984375 10.453125 37.984375 14.40625 
Q 37.984375 18.0625 35.515625 20.015625 
Q 33.0625 21.96875 24.703125 23.78125 
L 21.578125 24.515625 
Q 13.234375 26.265625 9.515625 29.90625 
Q 5.8125 33.546875 5.8125 39.890625 
Q 5.8125 47.609375 11.28125 51.796875 
Q 16.75 56 26.8125 56 
Q 31.78125 56 36.171875 55.265625 
Q 40.578125 54.546875 44.28125 53.078125 
z
" id="DejaVuSans-115"/>
      <path d="M 25.390625 72.90625 
L 33.6875 72.90625 
L 8.296875 -9.28125 
L 0 -9.28125 
z
" id="DejaVuSans-47"/>
      <path d="M 45.40625 46.390625 
L 45.40625 75.984375 
L 54.390625 75.984375 
L 54.390625 0 
L 45.40625 0 
L 45.40625 8.203125 
Q 42.578125 3.328125 38.25 0.953125 
Q 33.9375 -1.421875 27.875 -1.421875 
Q 17.96875 -1.421875 11.734375 6.484375 
Q 5.515625 14.40625 5.515625 27.296875 
Q 5.515625 40.1875 11.734375 48.09375 
Q 17.96875 56 27.875 56 
Q 33.9375 56 38.25 53.625 
Q 42.578125 51.265625 45.40625 46.390625 
z
M 14.796875 27.296875 
Q 14.796875 17.390625 18.875 11.75 
Q 22.953125 6.109375 30.078125 6.109375 
Q 37.203125 6.109375 41.296875 11.75 
Q 45.40625 17.390625 45.40625 27.296875 
Q 45.40625 37.203125 41.296875 42.84375 
Q 37.203125 48.484375 30.078125 48.484375 
Q 22.953125 48.484375 18.875 42.84375 
Q 14.796875 37.203125 14.796875 27.296875 
z
" id="DejaVuSans-100"/>
      <path d="M 9.421875 54.6875 
L 18.40625 54.6875 
L 18.40625 0 
L 9.421875 0 
z
M 9.421875 75.984375 
L 18.40625 75.984375 
L 18.40625 64.59375 
L 9.421875 64.59375 
z
" id="DejaVuSans-105"/>
      <path d="M 52 44.1875 
Q 55.375 50.25 60.0625 53.125 
Q 64.75 56 71.09375 56 
Q 79.640625 56 84.28125 50.015625 
Q 88.921875 44.046875 88.921875 33.015625 
L 88.921875 0 
L 79.890625 0 
L 79.890625 32.71875 
Q 79.890625 40.578125 77.09375 44.375 
Q 74.3125 48.1875 68.609375 48.1875 
Q 61.625 48.1875 57.5625 43.546875 
Q 53.515625 38.921875 53.515625 30.90625 
L 53.515625 0 
L 44.484375 0 
L 44.484375 32.71875 
Q 44.484375 40.625 41.703125 44.40625 
Q 38.921875 48.1875 33.109375 48.1875 
Q 26.21875 48.1875 22.15625 43.53125 
Q 18.109375 38.875 18.109375 30.90625 
L 18.109375 0 
L 9.078125 0 
L 9.078125 54.6875 
L 18.109375 54.6875 
L 18.109375 46.1875 
Q 21.1875 51.21875 25.484375 53.609375 
Q 29.78125 56 35.6875 56 
Q 41.65625 56 45.828125 52.96875 
Q 50 49.953125 52 44.1875 
z
" id="DejaVuSans-109"/>
      <path d="M 54.890625 33.015625 
L 54.890625 0 
L 45.90625 0 
L 45.90625 32.71875 
Q 45.90625 40.484375 42.875 44.328125 
Q 39.84375 48.1875 33.796875 48.1875 
Q 26.515625 48.1875 22.3125 43.546875 
Q 18.109375 38.921875 18.109375 30.90625 
L 18.109375 0 
L 9.078125 0 
L 9.078125 54.6875 
L 18.109375 54.6875 
L 18.109375 46.1875 
Q 21.34375 51.125 25.703125 53.5625 
Q 30.078125 56 35.796875 56 
Q 45.21875 56 50.046875 50.171875 
Q 54.890625 44.34375 54.890625 33.015625 
z
" id="DejaVuSans-110"/>
      <path d="M 8.015625 75.875 
L 15.828125 75.875 
Q 23.140625 64.359375 26.78125 53.3125 
Q 30.421875 42.28125 30.421875 31.390625 
Q 30.421875 20.453125 26.78125 9.375 
Q 23.140625 -1.703125 15.828125 -13.1875 
L 8.015625 -13.1875 
Q 14.5 -2 17.703125 9.0625 
Q 20.90625 20.125 20.90625 31.390625 
Q 20.90625 42.671875 17.703125 53.65625 
Q 14.5 64.65625 8.015625 75.875 
z
" id="DejaVuSans-41"/>
     </defs>
     <g transform="translate(77.303219 342.217594)scale(0.17 -0.17)">
      <use xlink:href="#DejaVuSans-108"/>
      <use x="27.783203" xlink:href="#DejaVuSans-111"/>
      <use x="88.964844" xlink:href="#DejaVuSans-103"/>
      <use x="152.441406" xlink:href="#DejaVuSans-49"/>
      <use x="216.064453" xlink:href="#DejaVuSans-48"/>
      <use x="279.6875" xlink:href="#DejaVuSans-40"/>
      <use x="318.701172" xlink:href="#DejaVuSans-35"/>
      <use x="402.490234" xlink:href="#DejaVuSans-32"/>
      <use x="434.277344" xlink:href="#DejaVuSans-102"/>
      <use x="469.404297" xlink:href="#DejaVuSans-45"/>
      <use x="505.488281" xlink:href="#DejaVuSans-101"/>
      <use x="567.011719" xlink:href="#DejaVuSans-118"/>
      <use x="626.191406" xlink:href="#DejaVuSans-97"/>
      <use x="687.470703" xlink:href="#DejaVuSans-108"/>
      <use x="715.253906" xlink:href="#DejaVuSans-115"/>
      <use x="767.353516" xlink:href="#DejaVuSans-32"/>
      <use x="799.140625" xlink:href="#DejaVuSans-47"/>
      <use x="832.832031" xlink:href="#DejaVuSans-32"/>
      <use x="864.619141" xlink:href="#DejaVuSans-100"/>
      <use x="928.095703" xlink:href="#DejaVuSans-105"/>
      <use x="955.878906" xlink:href="#DejaVuSans-109"/>
      <use x="1053.291016" xlink:href="#DejaVuSans-101"/>
      <use x="1114.814453" xlink:href="#DejaVuSans-110"/>
      <use x="1178.193359" xlink:href="#DejaVuSans-115"/>
      <use x="1230.292969" xlink:href="#DejaVuSans-105"/>
      <use x="1258.076172" xlink:href="#DejaVuSans-111"/>
      <use x="1319.257812" xlink:href="#DejaVuSans-110"/>
      <use x="1382.636719" xlink:href="#DejaVuSans-41"/>
     </g>
    </g>
   </g>
   <g id="matplotlib.axis_2">
    <g id="ytick_1">
     <g id="line2d_21">
      <path clip-path="url(#pbc2b6b515a)" d="M 57.6 298.944 
L 338.688 298.944 
" style="fill:none;stroke:#b0b0b0;stroke-linecap:square;stroke-width:0.8;"/>
     </g>
     <g id="line2d_22">
      <defs>
       <path d="M 0 0 
L -3.5 0 
" id="m611725e10b" style="stroke:#000000;stroke-width:0.8;"/>
      </defs>
      <g>
       <use style="stroke:#000000;stroke-width:0.8;" x="57.6" xlink:href="#m611725e10b" y="298.944"/>
      </g>
     </g>
     <g id="text_6">
      <!-- 0.0 -->
      <defs>
       <path d="M 10.6875 12.40625 
L 21 12.40625 
L 21 0 
L 10.6875 0 
z
" id="DejaVuSans-46"/>
      </defs>
      <g transform="translate(25.155 305.02275)scale(0.16 -0.16)">
       <use xlink:href="#DejaVuSans-48"/>
       <use x="63.623047" xlink:href="#DejaVuSans-46"/>
       <use x="95.410156" xlink:href="#DejaVuSans-48"/>
      </g>
     </g>
    </g>
    <g id="ytick_2">
     <g id="line2d_23">
      <path clip-path="url(#pbc2b6b515a)" d="M 57.6 245.22202 
L 338.688 245.22202 
" style="fill:none;stroke:#b0b0b0;stroke-linecap:square;stroke-width:0.8;"/>
     </g>
     <g id="line2d_24">
      <g>
       <use style="stroke:#000000;stroke-width:0.8;" x="57.6" xlink:href="#m611725e10b" y="245.22202"/>
      </g>
     </g>
     <g id="text_7">
      <!-- 0.2 -->
      <g transform="translate(25.155 251.30077)scale(0.16 -0.16)">
       <use xlink:href="#DejaVuSans-48"/>
       <use x="63.623047" xlink:href="#DejaVuSans-46"/>
       <use x="95.410156" xlink:href="#DejaVuSans-50"/>
      </g>
     </g>
    </g>
    <g id="ytick_3">
     <g id="line2d_25">
      <path clip-path="url(#pbc2b6b515a)" d="M 57.6 191.50004 
L 338.688 191.50004 
" style="fill:none;stroke:#b0b0b0;stroke-linecap:square;stroke-width:0.8;"/>
     </g>
     <g id="line2d_26">
      <g>
       <use style="stroke:#000000;stroke-width:0.8;" x="57.6" xlink:href="#m611725e10b" y="191.50004"/>
      </g>
     </g>
     <g id="text_8">
      <!-- 0.4 -->
      <g transform="translate(25.155 197.57879)scale(0.16 -0.16)">
       <use xlink:href="#DejaVuSans-48"/>
       <use x="63.623047" xlink:href="#DejaVuSans-46"/>
       <use x="95.410156" xlink:href="#DejaVuSans-52"/>
      </g>
     </g>
    </g>
    <g id="ytick_4">
     <g id="line2d_27">
      <path clip-path="url(#pbc2b6b515a)" d="M 57.6 137.778059 
L 338.688 137.778059 
" style="fill:none;stroke:#b0b0b0;stroke-linecap:square;stroke-width:0.8;"/>
     </g>
     <g id="line2d_28">
      <g>
       <use style="stroke:#000000;stroke-width:0.8;" x="57.6" xlink:href="#m611725e10b" y="137.778059"/>
      </g>
     </g>
     <g id="text_9">
      <!-- 0.6 -->
      <g transform="translate(25.155 143.856809)scale(0.16 -0.16)">
       <use xlink:href="#DejaVuSans-48"/>
       <use x="63.623047" xlink:href="#DejaVuSans-46"/>
       <use x="95.410156" xlink:href="#DejaVuSans-54"/>
      </g>
     </g>
    </g>
    <g id="ytick_5">
     <g id="line2d_29">
      <path clip-path="url(#pbc2b6b515a)" d="M 57.6 84.056079 
L 338.688 84.056079 
" style="fill:none;stroke:#b0b0b0;stroke-linecap:square;stroke-width:0.8;"/>
     </g>
     <g id="line2d_30">
      <g>
       <use style="stroke:#000000;stroke-width:0.8;" x="57.6" xlink:href="#m611725e10b" y="84.056079"/>
      </g>
     </g>
     <g id="text_10">
      <!-- 0.8 -->
      <defs>
       <path d="M 31.78125 34.625 
Q 24.75 34.625 20.71875 30.859375 
Q 16.703125 27.09375 16.703125 20.515625 
Q 16.703125 13.921875 20.71875 10.15625 
Q 24.75 6.390625 31.78125 6.390625 
Q 38.8125 6.390625 42.859375 10.171875 
Q 46.921875 13.96875 46.921875 20.515625 
Q 46.921875 27.09375 42.890625 30.859375 
Q 38.875 34.625 31.78125 34.625 
z
M 21.921875 38.8125 
Q 15.578125 40.375 12.03125 44.71875 
Q 8.5 49.078125 8.5 55.328125 
Q 8.5 64.0625 14.71875 69.140625 
Q 20.953125 74.21875 31.78125 74.21875 
Q 42.671875 74.21875 48.875 69.140625 
Q 55.078125 64.0625 55.078125 55.328125 
Q 55.078125 49.078125 51.53125 44.71875 
Q 48 40.375 41.703125 38.8125 
Q 48.828125 37.15625 52.796875 32.3125 
Q 56.78125 27.484375 56.78125 20.515625 
Q 56.78125 9.90625 50.3125 4.234375 
Q 43.84375 -1.421875 31.78125 -1.421875 
Q 19.734375 -1.421875 13.25 4.234375 
Q 6.78125 9.90625 6.78125 20.515625 
Q 6.78125 27.484375 10.78125 32.3125 
Q 14.796875 37.15625 21.921875 38.8125 
z
M 18.3125 54.390625 
Q 18.3125 48.734375 21.84375 45.5625 
Q 25.390625 42.390625 31.78125 42.390625 
Q 38.140625 42.390625 41.71875 45.5625 
Q 45.3125 48.734375 45.3125 54.390625 
Q 45.3125 60.0625 41.71875 63.234375 
Q 38.140625 66.40625 31.78125 66.40625 
Q 25.390625 66.40625 21.84375 63.234375 
Q 18.3125 60.0625 18.3125 54.390625 
z
" id="DejaVuSans-56"/>
      </defs>
      <g transform="translate(25.155 90.134829)scale(0.16 -0.16)">
       <use xlink:href="#DejaVuSans-48"/>
       <use x="63.623047" xlink:href="#DejaVuSans-46"/>
       <use x="95.410156" xlink:href="#DejaVuSans-56"/>
      </g>
     </g>
    </g>
    <g id="ytick_6">
     <g id="line2d_31">
      <path clip-path="url(#pbc2b6b515a)" d="M 57.6 30.334099 
L 338.688 30.334099 
" style="fill:none;stroke:#b0b0b0;stroke-linecap:square;stroke-width:0.8;"/>
     </g>
     <g id="line2d_32">
      <g>
       <use style="stroke:#000000;stroke-width:0.8;" x="57.6" xlink:href="#m611725e10b" y="30.334099"/>
      </g>
     </g>
     <g id="text_11">
      <!-- 1.0 -->
      <g transform="translate(25.155 36.412849)scale(0.16 -0.16)">
       <use xlink:href="#DejaVuSans-49"/>
       <use x="63.623047" xlink:href="#DejaVuSans-46"/>
       <use x="95.410156" xlink:href="#DejaVuSans-48"/>
      </g>
     </g>
    </g>
    <g id="text_12">
     <!-- Fraction of function,target pairs -->
     <defs>
      <path d="M 9.8125 72.90625 
L 51.703125 72.90625 
L 51.703125 64.59375 
L 19.671875 64.59375 
L 19.671875 43.109375 
L 48.578125 43.109375 
L 48.578125 34.8125 
L 19.671875 34.8125 
L 19.671875 0 
L 9.8125 0 
z
" id="DejaVuSans-70"/>
      <path d="M 41.109375 46.296875 
Q 39.59375 47.171875 37.8125 47.578125 
Q 36.03125 48 33.890625 48 
Q 26.265625 48 22.1875 43.046875 
Q 18.109375 38.09375 18.109375 28.8125 
L 18.109375 0 
L 9.078125 0 
L 9.078125 54.6875 
L 18.109375 54.6875 
L 18.109375 46.1875 
Q 20.953125 51.171875 25.484375 53.578125 
Q 30.03125 56 36.53125 56 
Q 37.453125 56 38.578125 55.875 
Q 39.703125 55.765625 41.0625 55.515625 
z
" id="DejaVuSans-114"/>
      <path d="M 48.78125 52.59375 
L 48.78125 44.1875 
Q 44.96875 46.296875 41.140625 47.34375 
Q 37.3125 48.390625 33.40625 48.390625 
Q 24.65625 48.390625 19.8125 42.84375 
Q 14.984375 37.3125 14.984375 27.296875 
Q 14.984375 17.28125 19.8125 11.734375 
Q 24.65625 6.203125 33.40625 6.203125 
Q 37.3125 6.203125 41.140625 7.25 
Q 44.96875 8.296875 48.78125 10.40625 
L 48.78125 2.09375 
Q 45.015625 0.34375 40.984375 -0.53125 
Q 36.96875 -1.421875 32.421875 -1.421875 
Q 20.0625 -1.421875 12.78125 6.34375 
Q 5.515625 14.109375 5.515625 27.296875 
Q 5.515625 40.671875 12.859375 48.328125 
Q 20.21875 56 33.015625 56 
Q 37.15625 56 41.109375 55.140625 
Q 45.0625 54.296875 48.78125 52.59375 
z
" id="DejaVuSans-99"/>
      <path d="M 18.3125 70.21875 
L 18.3125 54.6875 
L 36.8125 54.6875 
L 36.8125 47.703125 
L 18.3125 47.703125 
L 18.3125 18.015625 
Q 18.3125 11.328125 20.140625 9.421875 
Q 21.96875 7.515625 27.59375 7.515625 
L 36.8125 7.515625 
L 36.8125 0 
L 27.59375 0 
Q 17.1875 0 13.234375 3.875 
Q 9.28125 7.765625 9.28125 18.015625 
L 9.28125 47.703125 
L 2.6875 47.703125 
L 2.6875 54.6875 
L 9.28125 54.6875 
L 9.28125 70.21875 
z
" id="DejaVuSans-116"/>
      <path d="M 8.5 21.578125 
L 8.5 54.6875 
L 17.484375 54.6875 
L 17.484375 21.921875 
Q 17.484375 14.15625 20.5 10.265625 
Q 23.53125 6.390625 29.59375 6.390625 
Q 36.859375 6.390625 41.078125 11.03125 
Q 45.3125 15.671875 45.3125 23.6875 
L 45.3125 54.6875 
L 54.296875 54.6875 
L 54.296875 0 
L 45.3125 0 
L 45.3125 8.40625 
Q 42.046875 3.421875 37.71875 1 
Q 33.40625 -1.421875 27.6875 -1.421875 
Q 18.265625 -1.421875 13.375 4.4375 
Q 8.5 10.296875 8.5 21.578125 
z
M 31.109375 56 
z
" id="DejaVuSans-117"/>
      <path d="M 11.71875 12.40625 
L 22.015625 12.40625 
L 22.015625 4 
L 14.015625 -11.625 
L 7.71875 -11.625 
L 11.71875 4 
z
" id="DejaVuSans-44"/>
      <path d="M 18.109375 8.203125 
L 18.109375 -20.796875 
L 9.078125 -20.796875 
L 9.078125 54.6875 
L 18.109375 54.6875 
L 18.109375 46.390625 
Q 20.953125 51.265625 25.265625 53.625 
Q 29.59375 56 35.59375 56 
Q 45.5625 56 51.78125 48.09375 
Q 58.015625 40.1875 58.015625 27.296875 
Q 58.015625 14.40625 51.78125 6.484375 
Q 45.5625 -1.421875 35.59375 -1.421875 
Q 29.59375 -1.421875 25.265625 0.953125 
Q 20.953125 3.328125 18.109375 8.203125 
z
M 48.6875 27.296875 
Q 48.6875 37.203125 44.609375 42.84375 
Q 40.53125 48.484375 33.40625 48.484375 
Q 26.265625 48.484375 22.1875 42.84375 
Q 18.109375 37.203125 18.109375 27.296875 
Q 18.109375 17.390625 22.1875 11.75 
Q 26.265625 6.109375 33.40625 6.109375 
Q 40.53125 6.109375 44.609375 11.75 
Q 48.6875 17.390625 48.6875 27.296875 
z
" id="DejaVuSans-112"/>
     </defs>
     <g transform="translate(17.619531 298.435375)rotate(-90)scale(0.17 -0.17)">
      <use xlink:href="#DejaVuSans-70"/>
      <use x="57.410156" xlink:href="#DejaVuSans-114"/>
      <use x="98.523438" xlink:href="#DejaVuSans-97"/>
      <use x="159.802734" xlink:href="#DejaVuSans-99"/>
      <use x="214.783203" xlink:href="#DejaVuSans-116"/>
      <use x="253.992188" xlink:href="#DejaVuSans-105"/>
      <use x="281.775391" xlink:href="#DejaVuSans-111"/>
      <use x="342.957031" xlink:href="#DejaVuSans-110"/>
      <use x="406.335938" xlink:href="#DejaVuSans-32"/>
      <use x="438.123047" xlink:href="#DejaVuSans-111"/>
      <use x="499.304688" xlink:href="#DejaVuSans-102"/>
      <use x="534.509766" xlink:href="#DejaVuSans-32"/>
      <use x="566.296875" xlink:href="#DejaVuSans-102"/>
      <use x="601.501953" xlink:href="#DejaVuSans-117"/>
      <use x="664.880859" xlink:href="#DejaVuSans-110"/>
      <use x="728.259766" xlink:href="#DejaVuSans-99"/>
      <use x="783.240234" xlink:href="#DejaVuSans-116"/>
      <use x="822.449219" xlink:href="#DejaVuSans-105"/>
      <use x="850.232422" xlink:href="#DejaVuSans-111"/>
      <use x="911.414062" xlink:href="#DejaVuSans-110"/>
      <use x="974.792969" xlink:href="#DejaVuSans-44"/>
      <use x="1006.580078" xlink:href="#DejaVuSans-116"/>
      <use x="1045.789062" xlink:href="#DejaVuSans-97"/>
      <use x="1107.068359" xlink:href="#DejaVuSans-114"/>
      <use x="1148.166016" xlink:href="#DejaVuSans-103"/>
      <use x="1211.642578" xlink:href="#DejaVuSans-101"/>
      <use x="1273.166016" xlink:href="#DejaVuSans-116"/>
      <use x="1312.375" xlink:href="#DejaVuSans-32"/>
      <use x="1344.162109" xlink:href="#DejaVuSans-112"/>
      <use x="1407.638672" xlink:href="#DejaVuSans-97"/>
      <use x="1468.917969" xlink:href="#DejaVuSans-105"/>
      <use x="1496.701172" xlink:href="#DejaVuSans-114"/>
      <use x="1537.814453" xlink:href="#DejaVuSans-115"/>
     </g>
    </g>
   </g>
   <g id="line2d_33">
    <defs>
     <path d="M 0 1.5 
C 0.397805 1.5 0.77937 1.341951 1.06066 1.06066 
C 1.341951 0.77937 1.5 0.397805 1.5 0 
C 1.5 -0.397805 1.341951 -0.77937 1.06066 -1.06066 
C 0.77937 -1.341951 0.397805 -1.5 0 -1.5 
C -0.397805 -1.5 -0.77937 -1.341951 -1.06066 -1.06066 
C -1.341951 -0.77937 -1.5 -0.397805 -1.5 0 
C -1.5 0.397805 -1.341951 0.77937 -1.06066 1.06066 
C -0.77937 1.341951 -0.397805 1.5 0 1.5 
z
" id="m0961587f08" style="stroke:#f5deb3;"/>
    </defs>
    <g>
     <use style="fill:#f5deb3;stroke:#f5deb3;" x="108.948899" xlink:href="#m0961587f08" y="30.334099"/>
     <use style="fill:#f5deb3;stroke:#f5deb3;" x="108.948899" xlink:href="#m0961587f08" y="30.334099"/>
    </g>
   </g>
   <g id="line2d_34">
    <defs>
     <path d="M 0 1.5 
C 0.397805 1.5 0.77937 1.341951 1.06066 1.06066 
C 1.341951 0.77937 1.5 0.397805 1.5 0 
C 1.5 -0.397805 1.341951 -0.77937 1.06066 -1.06066 
C 0.77937 -1.341951 0.397805 -1.5 0 -1.5 
C -0.397805 -1.5 -0.77937 -1.341951 -1.06066 -1.06066 
C -1.341951 -0.77937 -1.5 -0.397805 -1.5 0 
C -1.5 0.397805 -1.341951 0.77937 -1.06066 1.06066 
C -0.77937 1.341951 -0.397805 1.5 0 1.5 
z
" id="m895d782617" style="stroke:#000080;"/>
    </defs>
    <g>
     <use style="fill:#000080;stroke:#000080;" x="158.107956" xlink:href="#m895d782617" y="30.334099"/>
     <use style="fill:#000080;stroke:#000080;" x="158.107956" xlink:href="#m895d782617" y="30.334099"/>
    </g>
   </g>
   <g id="line2d_35">
    <path d="M 123.514096 298.944 
L 123.514096 298.417314 
L 125.038147 298.417314 
L 125.038147 297.363942 
L 126.904721 297.363942 
L 126.97016 296.31057 
L 129.46138 296.31057 
L 129.46138 295.783884 
L 130.398313 295.783884 
L 130.398313 295.257197 
L 131.839545 295.257197 
L 131.839545 294.730511 
L 131.987128 294.730511 
L 131.987128 294.203825 
L 132.753813 294.203825 
L 132.753813 292.623767 
L 133.216421 292.623767 
L 133.216421 292.097081 
L 133.533096 292.097081 
L 133.533096 291.570395 
L 133.931979 291.570395 
L 133.931979 290.517023 
L 134.236034 290.517023 
L 134.236034 289.990337 
L 134.492498 289.990337 
L 134.492498 288.936964 
L 134.745246 288.936964 
L 134.828688 287.883592 
L 135.681535 287.883592 
L 135.760625 286.83022 
L 135.917737 286.83022 
L 135.917737 286.303534 
L 137.235245 286.303534 
L 137.343676 284.19679 
L 137.37967 284.19679 
L 137.37967 283.670104 
L 137.629572 283.670104 
L 137.70032 282.616732 
L 138.049816 282.616732 
L 138.084384 280.509987 
L 138.324456 280.509987 
L 138.324456 279.983301 
L 138.561269 279.983301 
L 138.594838 278.929929 
L 138.828032 278.929929 
L 138.828032 278.403243 
L 139.220677 278.403243 
L 139.317473 277.349871 
L 139.413734 277.349871 
L 139.477614 276.296499 
L 139.541262 276.296499 
L 139.541262 275.243126 
L 139.667863 275.243126 
L 139.730821 274.189754 
L 139.856059 274.189754 
L 139.856059 273.663068 
L 140.103868 273.663068 
L 140.103868 271.556324 
L 140.287441 271.556324 
L 140.287441 270.502952 
L 140.738093 270.502952 
L 140.79731 269.449579 
L 140.944478 269.449579 
L 140.973763 268.396207 
L 141.148448 268.396207 
L 141.148448 267.342835 
L 141.662245 267.342835 
L 141.662245 266.816149 
L 141.774395 266.816149 
L 141.830201 265.762777 
L 142.133981 265.762777 
L 142.215919 264.709405 
L 142.486301 264.709405 
L 142.486301 263.656033 
L 142.646541 263.656033 
L 142.673105 262.60266 
L 142.805321 262.60266 
L 142.884173 261.549288 
L 143.040814 261.549288 
L 143.040814 261.022602 
L 143.196061 261.022602 
L 143.196061 260.495916 
L 143.47714 260.495916 
L 143.578237 259.442544 
L 143.628567 259.442544 
L 143.628567 258.915858 
L 143.75376 258.915858 
L 143.853271 257.3358 
L 143.87806 257.3358 
L 143.87806 256.809114 
L 144.026061 256.809114 
L 144.026061 255.755741 
L 144.438701 255.755741 
L 144.462672 254.175683 
L 144.582038 254.175683 
L 144.582038 253.122311 
L 144.700592 253.122311 
L 144.724207 252.068939 
L 145.143889 252.068939 
L 145.166911 250.488881 
L 145.281568 250.488881 
L 145.372754 247.85545 
L 145.463466 247.85545 
L 145.48607 245.748706 
L 145.598655 245.748706 
L 145.621085 244.695334 
L 145.843812 244.695334 
L 145.910079 243.115275 
L 146.06373 243.115275 
L 146.150926 239.428473 
L 146.237689 239.428473 
L 146.324022 236.795043 
L 146.474085 236.795043 
L 146.559258 234.161612 
L 146.622867 234.161612 
L 146.622867 233.634926 
L 146.749392 233.634926 
L 146.854132 229.421437 
L 146.999721 229.421437 
L 146.999721 228.894751 
L 147.144103 228.894751 
L 147.226074 226.261321 
L 147.429332 226.261321 
L 147.509976 225.207949 
L 147.650212 225.207949 
L 147.70997 223.101204 
L 147.769524 223.101204 
L 147.809113 221.521146 
L 147.986163 221.521146 
L 147.986163 220.467774 
L 148.142046 220.467774 
L 148.23877 215.727599 
L 148.258051 215.727599 
L 148.354135 214.147541 
L 148.373289 214.147541 
L 148.468742 213.094169 
L 148.54473 213.094169 
L 148.639252 210.987425 
L 148.676918 210.987425 
L 148.770728 207.827308 
L 148.826773 207.827308 
L 148.901221 205.720564 
L 148.938326 205.720564 
L 149.012299 202.033761 
L 149.141003 202.033761 
L 149.232356 200.453703 
L 149.286939 200.453703 
L 149.395596 193.606784 
L 149.467659 193.606784 
L 149.575199 189.919981 
L 149.610898 189.919981 
L 149.628721 187.286551 
L 149.752971 187.286551 
L 149.823575 184.653121 
L 149.893895 184.653121 
L 149.981398 180.966318 
L 150.224095 180.966318 
L 150.327083 178.859574 
L 150.344189 178.859574 
L 150.446473 174.119399 
L 150.463462 174.119399 
L 150.54816 170.959282 
L 150.581924 170.959282 
L 150.66605 169.379224 
L 150.699587 169.379224 
L 150.783149 167.27248 
L 150.866312 167.27248 
L 150.932558 163.585677 
L 150.998554 163.585677 
L 151.097081 160.952247 
L 151.113448 160.952247 
L 151.195055 158.845503 
L 151.227591 158.845503 
L 151.308666 155.1587 
L 151.357131 155.1587 
L 151.357131 154.105328 
L 151.469695 154.105328 
L 151.565603 151.998584 
L 151.581536 151.998584 
L 151.62925 149.365153 
L 151.692666 149.365153 
L 151.803091 145.151665 
L 151.818809 145.151665 
L 151.818809 144.624978 
L 151.944047 144.624978 
L 152.052897 139.884804 
L 152.068392 139.884804 
L 152.114793 135.671315 
L 152.191856 135.671315 
L 152.299175 134.091257 
L 152.314453 134.091257 
L 152.39064 131.984513 
L 152.542024 131.984513 
L 152.617226 126.190966 
L 152.662192 126.190966 
L 152.751777 121.977477 
L 152.796398 121.977477 
L 152.840905 117.763988 
L 153.061751 117.763988 
L 153.149313 114.077186 
L 153.178403 114.077186 
L 153.207444 111.970441 
L 153.308709 111.970441 
L 153.380683 109.337011 
L 153.452361 109.337011 
L 153.552218 104.596836 
L 153.580644 104.596836 
L 153.580644 104.07015 
L 153.693887 104.07015 
L 153.778339 102.490092 
L 153.834414 102.490092 
L 153.918189 98.276603 
L 153.959927 98.276603 
L 154.070741 93.536429 
L 154.125885 93.536429 
L 154.19457 91.95637 
L 154.262987 91.95637 
L 154.344733 88.796254 
L 154.385464 88.796254 
L 154.439623 84.582765 
L 154.507086 84.582765 
L 154.601099 81.422649 
L 154.627867 81.422649 
L 154.734529 76.155788 
L 154.800864 76.155788 
L 154.866947 74.57573 
L 154.959044 74.57573 
L 155.050658 69.835555 
L 155.076745 69.835555 
L 155.089774 67.728811 
L 155.271165 67.728811 
L 155.373976 65.622066 
L 155.412374 65.622066 
L 155.501643 60.881892 
L 155.565128 60.881892 
L 155.628383 58.248461 
L 155.729115 58.248461 
L 155.791779 53.508287 
L 155.854218 53.508287 
L 155.953659 50.874856 
L 156.015522 50.874856 
L 156.027868 49.821484 
L 156.212023 49.821484 
L 156.212023 49.294798 
L 156.333721 49.294798 
L 156.406335 45.607995 
L 156.514691 45.607995 
L 156.550661 42.974565 
L 156.634302 42.974565 
L 156.693802 41.394507 
L 156.847557 41.394507 
L 156.953214 39.287762 
L 156.964915 39.287762 
L 156.999969 38.23439 
L 157.081488 38.23439 
L 157.116308 37.181018 
L 157.243392 37.181018 
L 157.335239 36.127646 
L 157.380981 36.127646 
L 157.437991 31.914157 
L 157.60791 31.914157 
L 157.60791 30.860785 
L 158.107956 30.860785 
L 158.107956 30.334099 
L 338.688 30.334099 
L 338.688 30.334099 
" style="fill:none;stroke:#000080;stroke-linecap:square;stroke-width:1.5;"/>
   </g>
   <g id="line2d_36">
    <defs>
     <path d="M 0 6 
C 1.591219 6 3.117479 5.367802 4.242641 4.242641 
C 5.367802 3.117479 6 1.591219 6 0 
C 6 -1.591219 5.367802 -3.117479 4.242641 -4.242641 
C 3.117479 -5.367802 1.591219 -6 0 -6 
C -1.591219 -6 -3.117479 -5.367802 -4.242641 -4.242641 
C -5.367802 -3.117479 -6 -1.591219 -6 0 
C -6 1.591219 -5.367802 3.117479 -4.242641 4.242641 
C -3.117479 5.367802 -1.591219 6 0 6 
z
" id="m638c8ba146" style="stroke:#000080;stroke-width:1.5;"/>
    </defs>
    <g>
     <use style="fill-opacity:0;stroke:#000080;stroke-width:1.5;" x="153.380683" xlink:href="#m638c8ba146" y="109.337011"/>
     <use style="fill-opacity:0;stroke:#000080;stroke-width:1.5;" x="158.107956" xlink:href="#m638c8ba146" y="30.860785"/>
     <use style="fill-opacity:0;stroke:#000080;stroke-width:1.5;" x="158.107956" xlink:href="#m638c8ba146" y="30.334099"/>
     <use style="fill-opacity:0;stroke:#000080;stroke-width:1.5;" x="158.107956" xlink:href="#m638c8ba146" y="30.334099"/>
     <use style="fill-opacity:0;stroke:#000080;stroke-width:1.5;" x="338.688" xlink:href="#m638c8ba146" y="30.334099"/>
    </g>
   </g>
   <g id="line2d_37">
    <path style="fill:none;stroke:#000080;stroke-linecap:square;stroke-width:1.5;"/>
    <g/>
   </g>
   <g id="line2d_38">
    <g>
     <use style="fill:#000080;stroke:#000080;" x="160.566247" xlink:href="#m895d782617" y="30.334099"/>
     <use style="fill:#000080;stroke:#000080;" x="160.566247" xlink:href="#m895d782617" y="30.334099"/>
    </g>
   </g>
   <g id="line2d_39">
    <path d="M 126.099688 298.944 
L 126.099688 298.417314 
L 128.944197 298.417314 
L 128.944197 297.890628 
L 129.79784 297.890628 
L 129.79784 297.363942 
L 130.874681 297.363942 
L 130.874681 296.837256 
L 131.082294 296.837256 
L 131.082294 296.31057 
L 131.439773 296.31057 
L 131.439773 295.257197 
L 132.422528 295.257197 
L 132.470242 293.150453 
L 132.847322 293.150453 
L 132.847322 292.623767 
L 133.533096 292.623767 
L 133.533096 292.097081 
L 134.019394 292.097081 
L 134.019394 291.570395 
L 134.149701 291.570395 
L 134.149701 291.043709 
L 134.492498 291.043709 
L 134.577155 289.990337 
L 134.703375 289.990337 
L 134.745246 288.936964 
L 134.994383 288.936964 
L 134.994383 288.410278 
L 135.44209 288.410278 
L 135.44209 287.883592 
L 135.641855 287.883592 
L 135.641855 287.356906 
L 135.760625 287.356906 
L 135.760625 286.83022 
L 135.995765 286.83022 
L 135.995765 285.250162 
L 136.342635 285.250162 
L 136.380754 283.670104 
L 136.456742 283.670104 
L 136.5324 282.616732 
L 136.68274 282.616732 
L 136.757427 280.509987 
L 136.79465 280.509987 
L 136.79465 279.983301 
L 136.905847 279.983301 
L 136.979586 278.929929 
L 137.198951 278.929929 
L 137.271464 277.349871 
L 137.558536 277.349871 
L 137.558536 276.823185 
L 137.770782 276.823185 
L 137.875944 274.189754 
L 138.049816 274.189754 
L 138.049816 273.663068 
L 138.256201 273.663068 
L 138.256201 273.136382 
L 138.69516 273.136382 
L 138.728473 272.08301 
L 139.477614 272.08301 
L 139.572998 271.029638 
L 139.604677 271.029638 
L 139.604677 270.502952 
L 139.793552 270.502952 
L 139.793552 269.449579 
L 139.980403 269.449579 
L 139.980403 268.396207 
L 140.134598 268.396207 
L 140.134598 267.869521 
L 140.348205 267.869521 
L 140.348205 267.342835 
L 140.499195 267.342835 
L 140.499195 266.816149 
L 140.738093 266.816149 
L 140.738093 266.289463 
L 141.032186 266.289463 
L 141.090414 265.236091 
L 141.148448 265.236091 
L 141.148448 264.709405 
L 141.263941 264.709405 
L 141.263941 264.182719 
L 141.577657 264.182719 
L 141.662245 260.495916 
L 141.774395 260.495916 
L 141.858037 259.442544 
L 142.024126 259.442544 
L 142.024126 258.915858 
L 142.161336 258.915858 
L 142.161336 258.389172 
L 142.619936 258.389172 
L 142.619936 257.862486 
L 142.778958 257.862486 
L 142.778958 257.3358 
L 143.196061 257.3358 
L 143.273169 256.282427 
L 143.349938 256.282427 
L 143.349938 255.755741 
L 143.553018 255.755741 
L 143.628567 254.175683 
L 143.87806 254.175683 
L 143.87806 253.648997 
L 144.075117 253.648997 
L 144.075117 253.122311 
L 144.221461 253.122311 
L 144.269971 251.542253 
L 144.366588 251.542253 
L 144.366588 251.015567 
L 144.55823 251.015567 
L 144.582038 249.962195 
L 144.700592 249.962195 
L 144.747789 248.908822 
L 144.888619 248.908822 
L 144.91198 247.328764 
L 145.051495 247.328764 
L 145.051495 246.802078 
L 145.258697 246.802078 
L 145.258697 246.275392 
L 145.463466 246.275392 
L 145.48607 244.168648 
L 145.576196 244.168648 
L 145.576196 243.115275 
L 145.755062 243.115275 
L 145.821666 238.901787 
L 145.888018 238.901787 
L 145.998045 237.321729 
L 146.107383 237.321729 
L 146.107383 236.795043 
L 146.345539 236.795043 
L 146.452726 234.161612 
L 146.495417 234.161612 
L 146.538004 233.10824 
L 146.622867 233.10824 
L 146.707319 229.948123 
L 146.791364 229.948123 
L 146.791364 228.894751 
L 146.958248 228.894751 
L 146.958248 227.841379 
L 147.102973 227.841379 
L 147.144103 226.788007 
L 147.287301 226.788007 
L 147.388869 225.207949 
L 147.429332 225.207949 
L 147.48985 223.101204 
L 147.590249 223.101204 
L 147.690073 220.467774 
L 147.729844 220.467774 
L 147.769524 219.414402 
L 147.907696 219.414402 
L 147.946974 217.834344 
L 148.083753 217.834344 
L 148.161434 211.514111 
L 148.200145 211.514111 
L 148.200145 210.987425 
L 148.315765 210.987425 
L 148.373289 208.353994 
L 148.430623 208.353994 
L 148.525764 205.720564 
L 148.582601 205.720564 
L 148.676918 203.087133 
L 148.770728 203.087133 
L 148.864037 200.453703 
L 148.882639 200.453703 
L 148.901221 198.873645 
L 149.012299 198.873645 
L 149.030744 197.820273 
L 149.141003 197.820273 
L 149.195872 195.713528 
L 149.268764 195.713528 
L 149.359452 190.446667 
L 149.431665 190.446667 
L 149.503579 187.813237 
L 149.575199 187.813237 
L 149.682079 184.653121 
L 149.717561 184.653121 
L 149.823575 183.073062 
L 149.841182 183.073062 
L 149.893895 181.493004 
L 149.998846 181.493004 
L 150.103169 178.332888 
L 150.172372 178.332888 
L 150.275665 174.119399 
L 150.292822 174.119399 
L 150.395406 171.485969 
L 150.412445 171.485969 
L 150.446473 168.852538 
L 150.54816 168.852538 
L 150.649257 164.63905 
L 150.699587 164.63905 
L 150.766468 161.478933 
L 150.866312 161.478933 
L 150.94908 158.845503 
L 150.982078 158.845503 
L 151.080698 156.212072 
L 151.097081 156.212072 
L 151.195055 152.52527 
L 151.227591 152.52527 
L 151.260066 150.945211 
L 151.340991 150.945211 
L 151.437608 147.785095 
L 151.501723 147.785095 
L 151.581536 143.571606 
L 151.61336 143.571606 
L 151.660987 141.991548 
L 151.771612 141.991548 
L 151.881541 136.724687 
L 151.897188 136.724687 
L 152.00633 131.984513 
L 152.021866 131.984513 
L 152.09934 129.877768 
L 152.145659 129.877768 
L 152.253262 128.29771 
L 152.26858 128.29771 
L 152.360205 124.084221 
L 152.421022 124.084221 
L 152.496747 121.977477 
L 152.55709 121.977477 
L 152.617226 117.763988 
L 152.677155 117.763988 
L 152.781537 111.970441 
L 152.855715 111.970441 
L 152.944315 110.917069 
L 153.047115 110.917069 
L 153.13475 106.703581 
L 153.207444 106.703581 
L 153.221946 104.596836 
L 153.323128 104.596836 
L 153.423725 101.963406 
L 153.452361 101.963406 
L 153.552218 98.276603 
L 153.637357 98.276603 
L 153.736164 96.169859 
L 153.792374 96.169859 
L 153.876352 90.902998 
L 153.904255 90.902998 
L 153.959927 88.269568 
L 154.070741 88.269568 
L 154.125885 85.636137 
L 154.19457 85.636137 
L 154.303908 81.949335 
L 154.331136 81.949335 
L 154.426099 77.735846 
L 154.480132 77.735846 
L 154.57429 74.049044 
L 154.654594 74.049044 
L 154.747816 70.888927 
L 154.840544 70.888927 
L 154.945917 66.675439 
L 154.959044 66.675439 
L 155.0376 64.568694 
L 155.076745 64.568694 
L 155.180705 61.408578 
L 155.219531 61.408578 
L 155.258271 58.775147 
L 155.34833 58.775147 
L 155.450689 57.195089 
L 155.463441 57.195089 
L 155.514359 55.088345 
L 155.703987 55.088345 
L 155.804285 52.454914 
L 155.816782 52.454914 
L 155.841748 50.874856 
L 155.94126 50.874856 
L 156.027868 49.294798 
L 156.077167 49.294798 
L 156.187581 47.188054 
L 156.260804 47.188054 
L 156.32159 45.081309 
L 156.454576 45.081309 
L 156.550661 43.501251 
L 156.586556 43.501251 
L 156.658127 39.814448 
L 156.753099 39.814448 
L 156.753099 39.287762 
L 156.918066 39.287762 
L 156.964915 36.654332 
L 157.1279 36.654332 
L 157.208825 35.60096 
L 157.335239 35.60096 
L 157.335239 35.074274 
L 157.596634 35.074274 
L 157.652944 32.967529 
L 157.709073 32.967529 
L 157.709073 32.440843 
L 158.868869 32.440843 
L 158.868869 31.914157 
L 160.083935 31.914157 
L 160.132771 30.860785 
L 160.566247 30.860785 
L 160.566247 30.334099 
L 338.688 30.334099 
L 338.688 30.334099 
" style="fill:none;stroke:#000080;stroke-linecap:square;stroke-width:1.5;"/>
   </g>
   <g id="line2d_40">
    <g>
     <use style="fill-opacity:0;stroke:#000080;stroke-width:1.5;" x="148.468742" xlink:href="#m638c8ba146" y="207.827308"/>
     <use style="fill-opacity:0;stroke:#000080;stroke-width:1.5;" x="160.566247" xlink:href="#m638c8ba146" y="30.860785"/>
     <use style="fill-opacity:0;stroke:#000080;stroke-width:1.5;" x="160.566247" xlink:href="#m638c8ba146" y="30.334099"/>
     <use style="fill-opacity:0;stroke:#000080;stroke-width:1.5;" x="160.566247" xlink:href="#m638c8ba146" y="30.334099"/>
     <use style="fill-opacity:0;stroke:#000080;stroke-width:1.5;" x="338.688" xlink:href="#m638c8ba146" y="30.334099"/>
    </g>
   </g>
   <g id="line2d_41">
    <path style="fill:none;stroke:#000080;stroke-linecap:square;stroke-width:1.5;"/>
    <g/>
   </g>
   <g id="line2d_42">
    <defs>
     <path d="M 0 1.5 
C 0.397805 1.5 0.77937 1.341951 1.06066 1.06066 
C 1.341951 0.77937 1.5 0.397805 1.5 0 
C 1.5 -0.397805 1.341951 -0.77937 1.06066 -1.06066 
C 0.77937 -1.341951 0.397805 -1.5 0 -1.5 
C -0.397805 -1.5 -0.77937 -1.341951 -1.06066 -1.06066 
C -1.341951 -0.77937 -1.5 -0.397805 -1.5 0 
C -1.5 0.397805 -1.341951 0.77937 -1.06066 1.06066 
C -0.77937 1.341951 -0.397805 1.5 0 1.5 
z
" id="m84c2a726b2" style="stroke:#ff00ff;"/>
    </defs>
    <g>
     <use style="fill:#ff00ff;stroke:#ff00ff;" x="181.77825" xlink:href="#m84c2a726b2" y="30.334099"/>
     <use style="fill:#ff00ff;stroke:#ff00ff;" x="181.77825" xlink:href="#m84c2a726b2" y="30.334099"/>
    </g>
   </g>
   <g id="line2d_43">
    <path d="M 150.206871 298.944 
L 150.206871 298.417314 
L 151.62925 298.417314 
L 151.62925 297.890628 
L 152.114793 297.890628 
L 152.114793 297.363942 
L 154.112115 297.363942 
L 154.112115 295.783884 
L 154.734529 295.783884 
L 154.734529 295.257197 
L 154.906477 295.257197 
L 154.906477 294.730511 
L 155.691409 294.730511 
L 155.691409 294.203825 
L 155.97843 294.203825 
L 155.97843 293.677139 
L 156.538679 293.677139 
L 156.538679 293.150453 
L 156.764934 293.150453 
L 156.823991 292.097081 
L 157.415209 292.097081 
L 157.415209 291.570395 
L 157.675417 291.570395 
L 157.731474 290.517023 
L 158.983842 290.517023 
L 159.046236 289.463651 
L 159.16005 289.463651 
L 159.16005 288.936964 
L 159.486982 288.936964 
L 159.486982 288.410278 
L 159.638147 288.410278 
L 159.728221 286.83022 
L 159.877318 286.83022 
L 159.877318 286.303534 
L 160.044768 286.303534 
L 160.044768 285.776848 
L 160.268789 285.776848 
L 160.346039 284.723476 
L 160.802491 284.723476 
L 160.802491 283.143418 
L 161.155563 283.143418 
L 161.155563 282.616732 
L 161.320345 282.616732 
L 161.329454 281.563359 
L 161.483584 281.563359 
L 161.483584 280.509987 
L 161.832113 280.509987 
L 161.832113 279.983301 
L 161.96433 279.983301 
L 161.96433 279.456615 
L 162.104265 279.456615 
L 162.104265 278.929929 
L 162.329291 278.929929 
L 162.329291 278.403243 
L 162.52596 278.403243 
L 162.52596 277.876557 
L 162.68677 277.876557 
L 162.79595 276.296499 
L 162.879471 276.296499 
L 162.987455 274.71644 
L 163.135875 274.71644 
L 163.193255 273.136382 
L 163.250446 273.136382 
L 163.331824 271.556324 
L 163.396654 271.556324 
L 163.396654 271.029638 
L 163.637643 271.029638 
L 163.725178 269.449579 
L 163.788565 269.449579 
L 163.89894 267.869521 
L 163.906798 267.869521 
L 164.01643 266.289463 
L 164.032036 266.289463 
L 164.117618 264.709405 
L 164.24906 264.709405 
L 164.341251 261.549288 
L 164.637547 261.549288 
L 164.637547 260.495916 
L 164.765143 260.495916 
L 164.869525 257.862486 
L 164.98806 257.862486 
L 165.09112 255.229055 
L 165.396698 255.229055 
L 165.454301 254.175683 
L 165.511714 254.175683 
L 165.518877 252.595625 
L 165.654426 252.595625 
L 165.711185 251.015567 
L 165.866327 251.015567 
L 165.880363 249.962195 
L 166.054862 249.962195 
L 166.151824 246.275392 
L 166.24138 246.275392 
L 166.350975 243.115275 
L 166.675688 243.115275 
L 166.782596 240.481845 
L 166.994465 240.481845 
L 167.014197 239.428473 
L 167.125588 239.428473 
L 167.236273 238.375101 
L 167.281645 238.375101 
L 167.333356 237.321729 
L 167.487573 237.321729 
L 167.595991 234.688298 
L 167.678446 234.688298 
L 167.779397 232.054868 
L 167.804544 232.054868 
L 167.842196 231.001496 
L 167.923499 231.001496 
L 168.01684 227.841379 
L 168.041647 227.841379 
L 168.115857 222.574518 
L 168.202038 222.574518 
L 168.306117 220.99446 
L 168.33661 220.99446 
L 168.445948 217.307658 
L 168.494323 217.307658 
L 168.554604 215.200913 
L 168.620674 215.200913 
L 168.704401 212.567483 
L 168.811464 212.567483 
L 168.811464 212.040797 
L 169.006055 212.040797 
L 169.05875 210.987425 
L 169.198498 210.987425 
L 169.296813 207.300622 
L 169.325624 207.300622 
L 169.428951 205.193878 
L 169.457545 205.193878 
L 169.554414 202.560447 
L 169.599814 202.560447 
L 169.605481 201.507075 
L 169.71843 201.507075 
L 169.808266 196.7669 
L 169.858596 196.7669 
L 169.947714 194.660156 
L 170.008719 194.660156 
L 170.091567 190.973354 
L 170.130094 190.973354 
L 170.234242 188.339923 
L 170.25063 188.339923 
L 170.337772 185.706493 
L 170.429886 185.706493 
L 170.526891 182.01969 
L 170.559106 182.01969 
L 170.644724 177.279515 
L 170.793552 177.279515 
L 170.904345 173.066027 
L 170.909603 173.066027 
L 170.946367 169.90591 
L 171.123841 169.90591 
L 171.232562 167.799166 
L 171.309807 167.799166 
L 171.412271 164.112363 
L 171.458184 164.112363 
L 171.559782 160.425561 
L 171.569909 160.425561 
L 171.63055 157.265444 
L 171.701032 157.265444 
L 171.811218 155.685386 
L 171.81621 155.685386 
L 171.876001 153.051956 
L 172.098413 153.051956 
L 172.142557 145.678351 
L 172.211004 145.678351 
L 172.22076 144.624978 
L 172.351938 144.624978 
L 172.434028 140.938176 
L 172.482136 140.938176 
L 172.539692 139.358118 
L 172.616138 139.358118 
L 172.725446 136.198001 
L 172.730183 136.198001 
L 172.730183 135.144629 
L 172.866999 135.144629 
L 172.960734 131.457826 
L 172.97942 131.457826 
L 173.086481 128.29771 
L 173.105034 128.29771 
L 173.132825 126.717652 
L 173.220541 126.717652 
L 173.303236 124.610907 
L 173.335289 124.610907 
L 173.435646 117.763988 
L 173.512801 117.763988 
L 173.603137 111.443755 
L 173.670583 111.443755 
L 173.777957 109.337011 
L 173.82695 109.337011 
L 173.884674 105.123522 
L 174.043535 105.123522 
L 174.13554 101.43672 
L 174.166101 101.43672 
L 174.261802 99.329976 
L 174.300801 99.329976 
L 174.391462 96.169859 
L 174.425876 96.169859 
L 174.494501 93.536429 
L 174.537255 93.536429 
L 174.579904 91.95637 
L 174.65217 91.95637 
L 174.703001 90.376312 
L 174.858804 90.376312 
L 174.96746 87.216196 
L 175.000757 87.216196 
L 175.104402 81.949335 
L 175.112667 81.949335 
L 175.162175 79.842591 
L 175.297603 79.842591 
L 175.30169 78.789218 
L 175.423872 78.789218 
L 175.423872 78.262532 
L 175.60957 78.262532 
L 175.689695 75.102416 
L 175.733608 75.102416 
L 175.825069 71.942299 
L 175.94365 71.942299 
L 176.006566 68.782183 
L 176.217244 68.782183 
L 176.310068 66.148752 
L 176.375521 66.148752 
L 176.471331 62.988636 
L 176.562816 62.988636 
L 176.668945 61.408578 
L 176.744358 61.408578 
L 176.849392 60.355206 
L 176.85687 60.355206 
L 176.94636 58.248461 
L 176.983512 58.248461 
L 177.016882 57.195089 
L 177.109241 57.195089 
L 177.182778 54.034973 
L 177.237728 54.034973 
L 177.32529 52.454914 
L 177.419654 52.454914 
L 177.434127 50.874856 
L 177.560251 50.874856 
L 177.656927 49.821484 
L 177.674772 49.821484 
L 177.710406 46.134681 
L 177.905102 46.134681 
L 177.989384 45.081309 
L 178.027877 45.081309 
L 178.101129 43.501251 
L 178.21908 43.501251 
L 178.325932 39.814448 
L 178.659481 39.814448 
L 178.750267 38.761076 
L 179.392276 38.761076 
L 179.424571 37.707704 
L 180.345204 37.707704 
L 180.394105 36.654332 
L 180.45808 36.654332 
L 180.45808 35.074274 
L 180.828151 35.074274 
L 180.848977 33.494215 
L 180.970464 33.494215 
L 180.970464 32.440843 
L 181.381918 32.440843 
L 181.39345 31.387471 
L 181.733085 31.387471 
L 181.77825 30.334099 
L 338.688 30.334099 
L 338.688 30.334099 
" style="fill:none;stroke:#ff00ff;stroke-linecap:square;stroke-width:1.5;"/>
   </g>
   <g id="line2d_44">
    <defs>
     <path d="M -0 8.485281 
L 5.091169 0 
L 0 -8.485281 
L -5.091169 -0 
z
" id="m38ac9dca73" style="stroke:#ff00ff;stroke-linejoin:miter;stroke-width:1.5;"/>
    </defs>
    <g>
     <use style="fill-opacity:0;stroke:#ff00ff;stroke-linejoin:miter;stroke-width:1.5;" x="169.71843" xlink:href="#m38ac9dca73" y="200.453703"/>
     <use style="fill-opacity:0;stroke:#ff00ff;stroke-linejoin:miter;stroke-width:1.5;" x="181.77825" xlink:href="#m38ac9dca73" y="30.860785"/>
     <use style="fill-opacity:0;stroke:#ff00ff;stroke-linejoin:miter;stroke-width:1.5;" x="181.77825" xlink:href="#m38ac9dca73" y="30.334099"/>
     <use style="fill-opacity:0;stroke:#ff00ff;stroke-linejoin:miter;stroke-width:1.5;" x="181.77825" xlink:href="#m38ac9dca73" y="30.334099"/>
     <use style="fill-opacity:0;stroke:#ff00ff;stroke-linejoin:miter;stroke-width:1.5;" x="338.688" xlink:href="#m38ac9dca73" y="30.334099"/>
    </g>
   </g>
   <g id="line2d_45">
    <path style="fill:none;stroke:#ff00ff;stroke-linecap:square;stroke-width:1.5;"/>
    <g/>
   </g>
   <g id="line2d_46">
    <defs>
     <path d="M 0 1.5 
C 0.397805 1.5 0.77937 1.341951 1.06066 1.06066 
C 1.341951 0.77937 1.5 0.397805 1.5 0 
C 1.5 -0.397805 1.341951 -0.77937 1.06066 -1.06066 
C 0.77937 -1.341951 0.397805 -1.5 0 -1.5 
C -0.397805 -1.5 -0.77937 -1.341951 -1.06066 -1.06066 
C -1.341951 -0.77937 -1.5 -0.397805 -1.5 0 
C -1.5 0.397805 -1.341951 0.77937 -1.06066 1.06066 
C -0.77937 1.341951 -0.397805 1.5 0 1.5 
z
" id="mf436010253" style="stroke:#ff0000;"/>
    </defs>
    <g>
     <use style="fill:#ff0000;stroke:#ff0000;" x="163.356164" xlink:href="#mf436010253" y="30.334099"/>
     <use style="fill:#ff0000;stroke:#ff0000;" x="163.356164" xlink:href="#mf436010253" y="30.334099"/>
    </g>
   </g>
   <g id="line2d_47">
    <path d="M 132.940331 298.944 
L 132.940331 297.890628 
L 136.5324 297.890628 
L 136.5324 297.363942 
L 136.757427 297.363942 
L 136.79465 296.31057 
L 137.089613 296.31057 
L 137.162581 295.257197 
L 138.049816 295.257197 
L 138.049816 294.730511 
L 138.290362 294.730511 
L 138.290362 294.203825 
L 138.426341 294.203825 
L 138.527635 291.043709 
L 139.220677 291.043709 
L 139.220677 290.517023 
L 139.349619 290.517023 
L 139.349619 289.990337 
L 140.042245 289.990337 
L 140.042245 289.463651 
L 140.438956 289.463651 
L 140.529237 287.883592 
L 140.619053 287.883592 
L 140.619053 287.356906 
L 140.944478 287.356906 
L 141.002999 285.776848 
L 141.292695 285.776848 
L 141.292695 285.250162 
L 141.549369 285.250162 
L 141.549369 284.723476 
L 141.746425 284.723476 
L 141.830201 283.670104 
L 141.996555 283.670104 
L 141.996555 283.143418 
L 142.51311 283.143418 
L 142.51311 282.616732 
L 142.988757 282.616732 
L 143.014805 281.563359 
L 143.11861 281.563359 
L 143.170282 280.509987 
L 143.298796 280.509987 
L 143.298796 279.456615 
L 143.42637 279.456615 
L 143.42637 278.929929 
L 143.678752 278.929929 
L 143.75376 277.876557 
L 143.927534 277.876557 
L 143.927534 277.349871 
L 144.075117 277.349871 
L 144.099593 275.769812 
L 144.221461 275.769812 
L 144.221461 275.243126 
L 144.700592 275.243126 
L 144.700592 274.71644 
L 144.93531 274.71644 
L 144.93531 274.189754 
L 145.166911 274.189754 
L 145.189903 273.136382 
L 145.304409 273.136382 
L 145.304409 272.609696 
L 145.710517 272.609696 
L 145.799493 271.029638 
L 146.107383 271.029638 
L 146.216039 269.449579 
L 146.324022 269.449579 
L 146.324022 268.922893 
L 146.665144 268.922893 
L 146.707319 267.869521 
L 146.833235 267.869521 
L 146.833235 266.816149 
L 146.978997 266.816149 
L 146.978997 266.289463 
L 147.12355 266.289463 
L 147.12355 265.762777 
L 147.287301 265.762777 
L 147.287301 265.236091 
L 148.005725 265.236091 
L 148.103206 264.182719 
L 148.161434 264.182719 
L 148.161434 263.129347 
L 148.296548 263.129347 
L 148.315765 262.075974 
L 148.582601 262.075974 
L 148.582601 261.549288 
L 148.78943 261.549288 
L 148.78943 261.022602 
L 148.956849 261.022602 
L 148.956849 260.495916 
L 149.177602 260.495916 
L 149.286939 258.389172 
L 149.305096 258.389172 
L 149.395596 256.282427 
L 149.467659 256.282427 
L 149.539426 254.702369 
L 149.593058 254.702369 
L 149.646525 253.122311 
L 149.717561 253.122311 
L 149.823575 252.068939 
L 149.893895 252.068939 
L 149.998846 249.435508 
L 150.137805 249.435508 
L 150.18963 248.382136 
L 150.275665 248.382136 
L 150.344189 246.275392 
L 150.480434 246.275392 
L 150.581924 244.695334 
L 150.615623 244.695334 
L 150.649257 242.588589 
L 150.783149 242.588589 
L 150.783149 242.061903 
L 151.015013 242.061903 
L 151.113448 240.481845 
L 151.1298 240.481845 
L 151.162458 238.901787 
L 151.243836 238.901787 
L 151.260066 236.268356 
L 151.373256 236.268356 
L 151.373256 235.74167 
L 151.755852 235.74167 
L 151.771612 234.161612 
L 151.912822 234.161612 
L 152.021866 232.054868 
L 152.176471 232.054868 
L 152.253262 231.001496 
L 152.299175 231.001496 
L 152.375429 227.841379 
L 152.451351 227.841379 
L 152.542024 221.521146 
L 152.602211 221.521146 
L 152.677155 219.414402 
L 152.766663 219.414402 
L 152.796398 218.36103 
L 152.959038 218.36103 
L 153.061751 216.780971 
L 153.076375 216.780971 
L 153.163864 213.094169 
L 153.207444 213.094169 
L 153.294279 210.460738 
L 153.395042 210.460738 
L 153.495227 207.827308 
L 153.537988 207.827308 
L 153.609024 205.720564 
L 153.665645 205.720564 
L 153.707991 204.140506 
L 153.792374 204.140506 
L 153.848404 201.507075 
L 153.904255 201.507075 
L 153.987696 199.927017 
L 154.015422 199.927017 
L 154.098334 197.820273 
L 154.153391 197.820273 
L 154.262987 195.713528 
L 154.276638 195.713528 
L 154.385464 193.606784 
L 154.453136 193.606784 
L 154.56087 190.973354 
L 154.57429 190.973354 
L 154.68128 186.233179 
L 154.734529 186.233179 
L 154.827327 184.126434 
L 154.919633 184.126434 
L 154.972161 181.493004 
L 155.076745 181.493004 
L 155.128803 178.332888 
L 155.219531 178.332888 
L 155.28405 173.066027 
L 155.335493 173.066027 
L 155.335493 172.539341 
L 155.463441 172.539341 
L 155.565128 170.432596 
L 155.590458 170.432596 
L 155.678822 166.745794 
L 155.703987 166.745794 
L 155.791779 164.63905 
L 155.816782 164.63905 
L 155.879132 159.898875 
L 155.928852 159.898875 
L 156.015522 157.265444 
L 156.052535 157.265444 
L 156.126326 155.685386 
L 156.187581 155.685386 
L 156.297301 153.051956 
L 156.32159 153.051956 
L 156.430472 148.838467 
L 156.466616 148.838467 
L 156.538679 144.624978 
L 156.610446 144.624978 
L 156.705677 141.464862 
L 156.729404 141.464862 
L 156.835778 136.198001 
L 156.894595 136.198001 
L 156.988292 130.404454 
L 157.023299 130.404454 
L 157.081488 128.29771 
L 157.139484 128.29771 
L 157.243392 125.137593 
L 157.2549 125.137593 
L 157.346685 120.924105 
L 157.426604 120.924105 
L 157.517493 116.710616 
L 157.58535 116.710616 
L 157.686643 111.970441 
L 157.697862 111.970441 
L 157.798506 109.337011 
L 157.809652 109.337011 
L 157.909655 104.596836 
L 158.009087 104.596836 
L 158.096998 99.329976 
L 158.140788 99.329976 
L 158.228039 96.169859 
L 158.260646 96.169859 
L 158.304027 94.589801 
L 158.379686 94.589801 
L 158.379686 93.536429 
L 158.51933 93.536429 
L 158.625992 90.902998 
L 158.647247 90.902998 
L 158.721434 87.216196 
L 158.763686 87.216196 
L 158.858379 83.529393 
L 158.889829 83.529393 
L 158.994256 81.949335 
L 159.004665 81.949335 
L 159.066985 80.895963 
L 159.139412 80.895963 
L 159.242359 77.20916 
L 159.252621 77.20916 
L 159.344703 74.57573 
L 159.3651 74.57573 
L 159.39565 70.888927 
L 159.486982 70.888927 
L 159.557689 68.255497 
L 159.62811 68.255497 
L 159.698248 66.675439 
L 159.758143 66.675439 
L 159.857512 62.988636 
L 159.916863 62.988636 
L 160.025151 60.881892 
L 160.034962 60.881892 
L 160.132771 57.195089 
L 160.200913 57.195089 
L 160.200913 56.668403 
L 160.346039 56.668403 
L 160.442124 55.615031 
L 160.461277 55.615031 
L 160.518612 52.9816 
L 160.594766 52.9816 
L 160.661129 48.768112 
L 160.774311 48.768112 
L 160.839995 46.134681 
L 160.905434 46.134681 
L 161.007772 44.027937 
L 161.026314 44.027937 
L 161.035578 42.974565 
L 161.146363 42.974565 
L 161.192316 41.394507 
L 161.283861 41.394507 
L 161.374928 39.814448 
L 161.6095 39.814448 
L 161.6095 38.761076 
L 161.7523 38.761076 
L 161.770068 36.654332 
L 161.88512 36.654332 
L 161.973109 35.60096 
L 162.130378 35.60096 
L 162.130378 35.074274 
L 162.457805 35.074274 
L 162.457805 34.547588 
L 162.585379 34.547588 
L 162.669913 33.494215 
L 162.854457 33.494215 
L 162.9377 31.914157 
L 163.004009 31.914157 
L 163.004009 31.387471 
L 163.168687 31.387471 
L 163.168687 30.860785 
L 163.356164 30.860785 
L 163.356164 30.334099 
L 338.688 30.334099 
L 338.688 30.334099 
" style="fill:none;stroke:#ff0000;stroke-linecap:square;stroke-width:1.5;"/>
   </g>
   <g id="line2d_48">
    <defs>
     <path d="M 0 -6 
L -5.196152 -3 
L -5.196152 3 
L -0 6 
L 5.196152 3 
L 5.196152 -3 
z
" id="m2a2971db35" style="stroke:#ff0000;stroke-linejoin:miter;stroke-width:1.5;"/>
    </defs>
    <g>
     <use style="fill-opacity:0;stroke:#ff0000;stroke-linejoin:miter;stroke-width:1.5;" x="153.665645" xlink:href="#m2a2971db35" y="205.193878"/>
     <use style="fill-opacity:0;stroke:#ff0000;stroke-linejoin:miter;stroke-width:1.5;" x="160.642194" xlink:href="#m2a2971db35" y="52.454914"/>
     <use style="fill-opacity:0;stroke:#ff0000;stroke-linejoin:miter;stroke-width:1.5;" x="163.356164" xlink:href="#m2a2971db35" y="30.860785"/>
     <use style="fill-opacity:0;stroke:#ff0000;stroke-linejoin:miter;stroke-width:1.5;" x="163.356164" xlink:href="#m2a2971db35" y="30.334099"/>
     <use style="fill-opacity:0;stroke:#ff0000;stroke-linejoin:miter;stroke-width:1.5;" x="338.688" xlink:href="#m2a2971db35" y="30.334099"/>
    </g>
   </g>
   <g id="line2d_49">
    <path style="fill:none;stroke:#ff0000;stroke-linecap:square;stroke-width:1.5;"/>
    <g/>
   </g>
   <g id="line2d_50">
    <defs>
     <path d="M 0 1.5 
C 0.397805 1.5 0.77937 1.341951 1.06066 1.06066 
C 1.341951 0.77937 1.5 0.397805 1.5 0 
C 1.5 -0.397805 1.341951 -0.77937 1.06066 -1.06066 
C 0.77937 -1.341951 0.397805 -1.5 0 -1.5 
C -0.397805 -1.5 -0.77937 -1.341951 -1.06066 -1.06066 
C -1.341951 -0.77937 -1.5 -0.397805 -1.5 0 
C -1.5 0.397805 -1.341951 0.77937 -1.06066 1.06066 
C -0.77937 1.341951 -0.397805 1.5 0 1.5 
z
" id="m15306410e9" style="stroke:#ff7500;"/>
    </defs>
    <g>
     <use style="fill:#ff7500;stroke:#ff7500;" x="160.774311" xlink:href="#m15306410e9" y="30.334099"/>
     <use style="fill:#ff7500;stroke:#ff7500;" x="160.774311" xlink:href="#m15306410e9" y="30.334099"/>
    </g>
   </g>
   <g id="line2d_51">
    <path d="M 129.06046 298.944 
L 129.06046 298.417314 
L 130.558552 298.417314 
L 130.558552 297.890628 
L 131.338382 297.890628 
L 131.338382 297.363942 
L 131.540579 297.363942 
L 131.540579 295.783884 
L 135.035562 295.783884 
L 135.035562 295.257197 
L 135.641855 295.257197 
L 135.641855 294.730511 
L 136.418789 294.730511 
L 136.456742 292.097081 
L 136.5324 292.097081 
L 136.5324 291.570395 
L 137.126135 291.570395 
L 137.126135 291.043709 
L 137.307607 291.043709 
L 137.343676 289.990337 
L 137.451437 289.990337 
L 137.451437 289.463651 
L 137.84096 289.463651 
L 137.84096 288.936964 
L 138.256201 288.936964 
L 138.256201 288.410278 
L 138.661784 288.410278 
L 138.728473 286.83022 
L 138.89409 286.83022 
L 138.927025 285.776848 
L 139.155847 285.776848 
L 139.188293 284.19679 
L 139.381706 284.19679 
L 139.381706 283.670104 
L 139.667863 283.670104 
L 139.730821 281.563359 
L 139.824833 281.563359 
L 139.918342 280.509987 
L 140.134598 280.509987 
L 140.165274 279.456615 
L 140.256979 279.456615 
L 140.256979 278.929929 
L 140.378508 278.929929 
L 140.378508 278.403243 
L 140.708409 278.403243 
L 140.708409 277.349871 
L 140.826843 277.349871 
L 140.826843 276.823185 
L 140.973763 276.823185 
L 141.061324 275.769812 
L 141.148448 275.769812 
L 141.177393 274.71644 
L 141.492656 274.71644 
L 141.492656 274.189754 
L 141.71841 274.189754 
L 141.80232 273.136382 
L 142.051655 273.136382 
L 142.133981 272.08301 
L 142.324576 272.08301 
L 142.324576 271.556324 
L 142.486301 271.556324 
L 142.593291 269.976266 
L 142.726112 269.976266 
L 142.778958 268.922893 
L 143.196061 268.922893 
L 143.196061 268.396207 
L 143.527762 268.396207 
L 143.628567 266.816149 
L 143.678752 266.816149 
L 143.678752 266.289463 
L 143.803587 266.289463 
L 143.853271 265.236091 
L 143.976867 265.236091 
L 143.976867 264.709405 
L 144.148442 264.709405 
L 144.172816 263.656033 
L 144.486611 263.656033 
L 144.486611 263.129347 
L 144.605813 263.129347 
L 144.700592 261.549288 
L 144.865226 261.549288 
L 144.888619 260.495916 
L 144.981877 260.495916 
L 144.981877 259.96923 
L 145.212864 259.96923 
L 145.212864 259.442544 
L 145.327221 259.442544 
L 145.327221 258.389172 
L 145.440832 258.389172 
L 145.440832 257.862486 
L 145.621085 257.862486 
L 145.710517 256.282427 
L 145.843812 256.282427 
L 145.843812 255.755741 
L 146.08557 255.755741 
L 146.150926 254.702369 
L 146.216039 254.702369 
L 146.216039 253.648997 
L 146.431341 253.648997 
L 146.495417 252.068939 
L 146.559258 252.068939 
L 146.559258 251.015567 
L 146.686244 251.015567 
L 146.77039 249.435508 
L 146.812312 249.435508 
L 146.812312 248.382136 
L 147.041095 248.382136 
L 147.061745 247.328764 
L 147.185137 247.328764 
L 147.266916 246.275392 
L 147.327999 246.275392 
L 147.327999 245.748706 
L 147.509976 245.748706 
L 147.61026 243.115275 
L 147.670154 243.115275 
L 147.769524 240.481845 
L 147.828875 240.481845 
L 147.907696 236.795043 
L 147.96658 236.795043 
L 148.025265 235.214984 
L 148.122637 235.214984 
L 148.219468 232.054868 
L 148.27731 232.054868 
L 148.334961 229.421437 
L 148.48777 229.421437 
L 148.582601 227.841379 
L 148.601505 227.841379 
L 148.620389 226.788007 
L 148.733265 226.788007 
L 148.826773 224.154577 
L 148.901221 224.154577 
L 149.012299 220.99446 
L 149.049169 220.99446 
L 149.159312 216.780971 
L 149.177602 216.780971 
L 149.286939 214.674227 
L 149.323233 214.674227 
L 149.431665 211.514111 
L 149.449671 211.514111 
L 149.503579 208.353994 
L 149.593058 208.353994 
L 149.664311 206.24725 
L 149.770648 206.24725 
L 149.788308 204.667192 
L 149.893895 204.667192 
L 149.928949 203.613819 
L 150.016276 203.613819 
L 150.068464 202.560447 
L 150.137805 202.560447 
L 150.241302 200.453703 
L 150.258492 200.453703 
L 150.292822 197.820273 
L 150.37835 197.820273 
L 150.463462 195.186842 
L 150.49739 195.186842 
L 150.598782 191.50004 
L 150.716332 191.50004 
L 150.816462 186.759865 
L 150.849711 186.759865 
L 150.932558 181.493004 
L 150.982078 181.493004 
L 151.047887 177.806202 
L 151.113448 177.806202 
L 151.178764 175.172771 
L 151.340991 175.172771 
L 151.437608 171.485969 
L 151.581536 171.485969 
L 151.62925 170.432596 
L 151.692666 170.432596 
L 151.755852 167.799166 
L 151.818809 167.799166 
L 151.897188 163.585677 
L 151.944047 163.585677 
L 152.037389 157.79213 
L 152.09934 157.79213 
L 152.176471 155.1587 
L 152.222586 155.1587 
L 152.283884 151.471897 
L 152.375429 151.471897 
L 152.466496 146.731723 
L 152.496747 146.731723 
L 152.496747 146.205037 
L 152.647216 146.205037 
L 152.751777 144.098292 
L 152.855715 144.098292 
L 152.929579 142.518234 
L 152.988446 142.518234 
L 153.076375 138.831432 
L 153.13475 138.831432 
L 153.236437 136.724687 
L 153.265382 136.724687 
L 153.351929 134.617943 
L 153.40939 134.617943 
L 153.509492 130.93114 
L 153.665645 130.93114 
L 153.707991 129.351082 
L 153.778339 129.351082 
L 153.876352 124.084221 
L 153.918189 124.084221 
L 154.029268 121.977477 
L 154.112115 121.977477 
L 154.19457 115.130558 
L 154.262987 115.130558 
L 154.358321 111.970441 
L 154.385464 111.970441 
L 154.493614 107.230267 
L 154.507086 107.230267 
L 154.601099 103.543464 
L 154.627867 103.543464 
L 154.667942 101.43672 
L 154.747816 101.43672 
L 154.827327 99.856662 
L 154.866947 99.856662 
L 154.972161 97.223231 
L 155.011454 97.223231 
L 155.115803 92.483056 
L 155.128803 92.483056 
L 155.193657 90.376312 
L 155.271165 90.376312 
L 155.34833 85.636137 
L 155.399584 85.636137 
L 155.501643 84.056079 
L 155.527065 84.056079 
L 155.577798 80.895963 
L 155.678822 80.895963 
L 155.691409 79.315904 
L 155.816782 79.315904 
L 155.891575 73.522358 
L 155.928852 73.522358 
L 156.015522 68.782183 
L 156.077167 68.782183 
L 156.150854 66.148752 
L 156.248622 66.148752 
L 156.333721 62.988636 
L 156.370066 62.988636 
L 156.478647 60.881892 
L 156.598505 60.881892 
L 156.705677 57.195089 
L 156.729404 57.195089 
L 156.835778 53.508287 
L 156.859328 53.508287 
L 156.941506 50.874856 
L 157.046598 50.874856 
L 157.046598 49.821484 
L 157.174189 49.821484 
L 157.197287 48.768112 
L 157.323784 48.768112 
L 157.415209 46.661368 
L 157.437991 46.661368 
L 157.540141 42.447879 
L 157.641697 42.447879 
L 157.664184 39.814448 
L 157.820792 39.814448 
L 157.820792 39.287762 
L 157.998067 39.287762 
L 157.998067 38.761076 
L 158.173558 38.761076 
L 158.173558 37.707704 
L 158.293192 37.707704 
L 158.293192 37.181018 
L 158.455018 37.181018 
L 158.540715 36.127646 
L 158.816356 36.127646 
L 158.9003 35.074274 
L 158.973421 35.074274 
L 158.973421 33.494215 
L 159.658204 33.494215 
L 159.658204 31.387471 
L 160.355672 31.387471 
L 160.355672 30.860785 
L 160.774311 30.860785 
L 160.774311 30.334099 
L 338.688 30.334099 
L 338.688 30.334099 
" style="fill:none;stroke:#ff7500;stroke-linecap:square;stroke-width:1.5;"/>
   </g>
   <g id="line2d_52">
    <defs>
     <path d="M 0 -6 
L -1.347084 -1.854102 
L -5.706339 -1.854102 
L -2.179628 0.708204 
L -3.526712 4.854102 
L -0 2.291796 
L 3.526712 4.854102 
L 2.179628 0.708204 
L 5.706339 -1.854102 
L 1.347084 -1.854102 
z
" id="m883c3c8d04" style="stroke:#ff7500;stroke-linejoin:bevel;stroke-width:1.5;"/>
    </defs>
    <g>
     <use style="fill-opacity:0;stroke:#ff7500;stroke-linejoin:bevel;stroke-width:1.5;" x="148.601505" xlink:href="#m883c3c8d04" y="227.841379"/>
     <use style="fill-opacity:0;stroke:#ff7500;stroke-linejoin:bevel;stroke-width:1.5;" x="160.774311" xlink:href="#m883c3c8d04" y="30.860785"/>
     <use style="fill-opacity:0;stroke:#ff7500;stroke-linejoin:bevel;stroke-width:1.5;" x="160.774311" xlink:href="#m883c3c8d04" y="30.334099"/>
     <use style="fill-opacity:0;stroke:#ff7500;stroke-linejoin:bevel;stroke-width:1.5;" x="160.774311" xlink:href="#m883c3c8d04" y="30.334099"/>
     <use style="fill-opacity:0;stroke:#ff7500;stroke-linejoin:bevel;stroke-width:1.5;" x="338.688" xlink:href="#m883c3c8d04" y="30.334099"/>
    </g>
   </g>
   <g id="line2d_53">
    <path style="fill:none;stroke:#ff7500;stroke-linecap:square;stroke-width:1.5;"/>
    <g/>
   </g>
   <g id="line2d_54">
    <path d="M 338.688 30.334099 
L 369.60768 293.571802 
" style="fill:none;stroke:#ff00ff;stroke-linecap:square;stroke-width:1.5;"/>
    <g>
     <use style="fill-opacity:0;stroke:#ff00ff;stroke-linejoin:miter;stroke-width:1.5;" x="338.688" xlink:href="#m38ac9dca73" y="30.334099"/>
     <use style="fill-opacity:0;stroke:#ff00ff;stroke-linejoin:miter;stroke-width:1.5;" x="369.60768" xlink:href="#m38ac9dca73" y="293.571802"/>
    </g>
   </g>
   <g id="line2d_55">
    <path d="M 338.688 30.334099 
L 369.60768 241.998701 
" style="fill:none;stroke:#ff0000;stroke-linecap:square;stroke-width:1.5;"/>
    <g>
     <use style="fill-opacity:0;stroke:#ff0000;stroke-linejoin:miter;stroke-width:1.5;" x="338.688" xlink:href="#m2a2971db35" y="30.334099"/>
     <use style="fill-opacity:0;stroke:#ff0000;stroke-linejoin:miter;stroke-width:1.5;" x="369.60768" xlink:href="#m2a2971db35" y="241.998701"/>
    </g>
   </g>
   <g id="line2d_56">
    <path d="M 338.688 30.334099 
L 369.60768 190.4256 
" style="fill:none;stroke:#ff7500;stroke-linecap:square;stroke-width:1.5;"/>
    <g>
     <use style="fill-opacity:0;stroke:#ff7500;stroke-linejoin:bevel;stroke-width:1.5;" x="338.688" xlink:href="#m883c3c8d04" y="30.334099"/>
     <use style="fill-opacity:0;stroke:#ff7500;stroke-linejoin:bevel;stroke-width:1.5;" x="369.60768" xlink:href="#m883c3c8d04" y="190.4256"/>
    </g>
   </g>
   <g id="line2d_57">
    <path d="M 338.688 30.334099 
L 369.60768 138.852499 
" style="fill:none;stroke:#000080;stroke-linecap:square;stroke-width:1.5;"/>
    <g>
     <use style="fill-opacity:0;stroke:#000080;stroke-width:1.5;" x="338.688" xlink:href="#m638c8ba146" y="30.334099"/>
     <use style="fill-opacity:0;stroke:#000080;stroke-width:1.5;" x="369.60768" xlink:href="#m638c8ba146" y="138.852499"/>
    </g>
   </g>
   <g id="line2d_58">
    <path d="M 338.688 30.334099 
L 369.60768 87.279398 
" style="fill:none;stroke:#000080;stroke-linecap:square;stroke-width:1.5;"/>
    <g>
     <use style="fill-opacity:0;stroke:#000080;stroke-width:1.5;" x="338.688" xlink:href="#m638c8ba146" y="30.334099"/>
     <use style="fill-opacity:0;stroke:#000080;stroke-width:1.5;" x="369.60768" xlink:href="#m638c8ba146" y="87.279398"/>
    </g>
   </g>
   <g id="line2d_59">
    <path d="M 338.688 298.944 
L 338.688 30.334099 
" style="fill:none;stroke:#000000;stroke-linecap:square;stroke-width:1.5;"/>
   </g>
   <g id="patch_3">
    <path d="M 57.6 298.944 
L 57.6 27.648 
" style="fill:none;stroke:#000000;stroke-linecap:square;stroke-linejoin:miter;stroke-width:0.8;"/>
   </g>
   <g id="patch_4">
    <path d="M 338.688 298.944 
L 338.688 27.648 
" style="fill:none;stroke:#000000;stroke-linecap:square;stroke-linejoin:miter;stroke-width:0.8;"/>
   </g>
   <g id="patch_5">
    <path d="M 57.6 298.944 
L 338.688 298.944 
" style="fill:none;stroke:#000000;stroke-linecap:square;stroke-linejoin:miter;stroke-width:0.8;"/>
   </g>
   <g id="patch_6">
    <path d="M 57.6 27.648 
L 338.688 27.648 
" style="fill:none;stroke:#000000;stroke-linecap:square;stroke-linejoin:miter;stroke-width:0.8;"/>
   </g>
   <g id="text_13">
    <!-- 400s-2e4 -->
    <g transform="translate(375.22944 298.262739)scale(0.17 -0.17)">
     <use xlink:href="#DejaVuSans-52"/>
     <use x="63.623047" xlink:href="#DejaVuSans-48"/>
     <use x="127.246094" xlink:href="#DejaVuSans-48"/>
     <use x="190.869141" xlink:href="#DejaVuSans-115"/>
     <use x="242.96875" xlink:href="#DejaVuSans-45"/>
     <use x="279.052734" xlink:href="#DejaVuSans-50"/>
     <use x="342.675781" xlink:href="#DejaVuSans-101"/>
     <use x="404.199219" xlink:href="#DejaVuSans-52"/>
    </g>
   </g>
   <g id="text_14">
    <!-- 200s-2e4 -->
    <g transform="translate(375.22944 246.689638)scale(0.17 -0.17)">
     <use xlink:href="#DejaVuSans-50"/>
     <use x="63.623047" xlink:href="#DejaVuSans-48"/>
     <use x="127.246094" xlink:href="#DejaVuSans-48"/>
     <use x="190.869141" xlink:href="#DejaVuSans-115"/>
     <use x="242.96875" xlink:href="#DejaVuSans-45"/>
     <use x="279.052734" xlink:href="#DejaVuSans-50"/>
     <use x="342.675781" xlink:href="#DejaVuSans-101"/>
     <use x="404.199219" xlink:href="#DejaVuSans-52"/>
    </g>
   </g>
   <g id="text_15">
    <!-- 140s-2e4 -->
    <g transform="translate(375.22944 195.116537)scale(0.17 -0.17)">
     <use xlink:href="#DejaVuSans-49"/>
     <use x="63.623047" xlink:href="#DejaVuSans-52"/>
     <use x="127.246094" xlink:href="#DejaVuSans-48"/>
     <use x="190.869141" xlink:href="#DejaVuSans-115"/>
     <use x="242.96875" xlink:href="#DejaVuSans-45"/>
     <use x="279.052734" xlink:href="#DejaVuSans-50"/>
     <use x="342.675781" xlink:href="#DejaVuSans-101"/>
     <use x="404.199219" xlink:href="#DejaVuSans-52"/>
    </g>
   </g>
   <g id="text_16">
    <!-- 100-1e5 -->
    <defs>
     <path d="M 10.796875 72.90625 
L 49.515625 72.90625 
L 49.515625 64.59375 
L 19.828125 64.59375 
L 19.828125 46.734375 
Q 21.96875 47.46875 24.109375 47.828125 
Q 26.265625 48.1875 28.421875 48.1875 
Q 40.625 48.1875 47.75 41.5 
Q 54.890625 34.8125 54.890625 23.390625 
Q 54.890625 11.625 47.5625 5.09375 
Q 40.234375 -1.421875 26.90625 -1.421875 
Q 22.3125 -1.421875 17.546875 -0.640625 
Q 12.796875 0.140625 7.71875 1.703125 
L 7.71875 11.625 
Q 12.109375 9.234375 16.796875 8.0625 
Q 21.484375 6.890625 26.703125 6.890625 
Q 35.15625 6.890625 40.078125 11.328125 
Q 45.015625 15.765625 45.015625 23.390625 
Q 45.015625 31 40.078125 35.4375 
Q 35.15625 39.890625 26.703125 39.890625 
Q 22.75 39.890625 18.8125 39.015625 
Q 14.890625 38.140625 10.796875 36.28125 
z
" id="DejaVuSans-53"/>
    </defs>
    <g transform="translate(375.22944 143.543437)scale(0.17 -0.17)">
     <use xlink:href="#DejaVuSans-49"/>
     <use x="63.623047" xlink:href="#DejaVuSans-48"/>
     <use x="127.246094" xlink:href="#DejaVuSans-48"/>
     <use x="190.869141" xlink:href="#DejaVuSans-45"/>
     <use x="226.953125" xlink:href="#DejaVuSans-49"/>
     <use x="290.576172" xlink:href="#DejaVuSans-101"/>
     <use x="352.099609" xlink:href="#DejaVuSans-53"/>
    </g>
   </g>
   <g id="text_17">
    <!-- 100-2e4 -->
    <g transform="translate(375.22944 91.970336)scale(0.17 -0.17)">
     <use xlink:href="#DejaVuSans-49"/>
     <use x="63.623047" xlink:href="#DejaVuSans-48"/>
     <use x="127.246094" xlink:href="#DejaVuSans-48"/>
     <use x="190.869141" xlink:href="#DejaVuSans-45"/>
     <use x="226.953125" xlink:href="#DejaVuSans-50"/>
     <use x="290.576172" xlink:href="#DejaVuSans-101"/>
     <use x="352.099609" xlink:href="#DejaVuSans-52"/>
    </g>
   </g>
   <g id="text_18">
    <!-- best 2009 -->
    <defs>
     <path d="M 48.6875 27.296875 
Q 48.6875 37.203125 44.609375 42.84375 
Q 40.53125 48.484375 33.40625 48.484375 
Q 26.265625 48.484375 22.1875 42.84375 
Q 18.109375 37.203125 18.109375 27.296875 
Q 18.109375 17.390625 22.1875 11.75 
Q 26.265625 6.109375 33.40625 6.109375 
Q 40.53125 6.109375 44.609375 11.75 
Q 48.6875 17.390625 48.6875 27.296875 
z
M 18.109375 46.390625 
Q 20.953125 51.265625 25.265625 53.625 
Q 29.59375 56 35.59375 56 
Q 45.5625 56 51.78125 48.09375 
Q 58.015625 40.1875 58.015625 27.296875 
Q 58.015625 14.40625 51.78125 6.484375 
Q 45.5625 -1.421875 35.59375 -1.421875 
Q 29.59375 -1.421875 25.265625 0.953125 
Q 20.953125 3.328125 18.109375 8.203125 
L 18.109375 0 
L 9.078125 0 
L 9.078125 75.984375 
L 18.109375 75.984375 
z
" id="DejaVuSans-98"/>
     <path d="M 10.984375 1.515625 
L 10.984375 10.5 
Q 14.703125 8.734375 18.5 7.8125 
Q 22.3125 6.890625 25.984375 6.890625 
Q 35.75 6.890625 40.890625 13.453125 
Q 46.046875 20.015625 46.78125 33.40625 
Q 43.953125 29.203125 39.59375 26.953125 
Q 35.25 24.703125 29.984375 24.703125 
Q 19.046875 24.703125 12.671875 31.3125 
Q 6.296875 37.9375 6.296875 49.421875 
Q 6.296875 60.640625 12.9375 67.421875 
Q 19.578125 74.21875 30.609375 74.21875 
Q 43.265625 74.21875 49.921875 64.515625 
Q 56.59375 54.828125 56.59375 36.375 
Q 56.59375 19.140625 48.40625 8.859375 
Q 40.234375 -1.421875 26.421875 -1.421875 
Q 22.703125 -1.421875 18.890625 -0.6875 
Q 15.09375 0.046875 10.984375 1.515625 
z
M 30.609375 32.421875 
Q 37.25 32.421875 41.125 36.953125 
Q 45.015625 41.5 45.015625 49.421875 
Q 45.015625 57.28125 41.125 61.84375 
Q 37.25 66.40625 30.609375 66.40625 
Q 23.96875 66.40625 20.09375 61.84375 
Q 16.21875 57.28125 16.21875 49.421875 
Q 16.21875 41.5 20.09375 36.953125 
Q 23.96875 32.421875 30.609375 32.421875 
z
" id="DejaVuSans-57"/>
    </defs>
    <g transform="translate(375.22944 40.397235)scale(0.17 -0.17)">
     <use xlink:href="#DejaVuSans-98"/>
     <use x="63.476562" xlink:href="#DejaVuSans-101"/>
     <use x="125" xlink:href="#DejaVuSans-115"/>
     <use x="177.099609" xlink:href="#DejaVuSans-116"/>
     <use x="216.308594" xlink:href="#DejaVuSans-32"/>
     <use x="248.095703" xlink:href="#DejaVuSans-50"/>
     <use x="311.71875" xlink:href="#DejaVuSans-48"/>
     <use x="375.341797" xlink:href="#DejaVuSans-48"/>
     <use x="438.964844" xlink:href="#DejaVuSans-57"/>
    </g>
   </g>
   <g id="text_19">
    <!-- bbob f2, 5-D -->
    <defs>
     <path d="M 19.671875 64.796875 
L 19.671875 8.109375 
L 31.59375 8.109375 
Q 46.6875 8.109375 53.6875 14.9375 
Q 60.6875 21.78125 60.6875 36.53125 
Q 60.6875 51.171875 53.6875 57.984375 
Q 46.6875 64.796875 31.59375 64.796875 
z
M 9.8125 72.90625 
L 30.078125 72.90625 
Q 51.265625 72.90625 61.171875 64.09375 
Q 71.09375 55.28125 71.09375 36.53125 
Q 71.09375 17.671875 61.125 8.828125 
Q 51.171875 0 30.078125 0 
L 9.8125 0 
z
" id="DejaVuSans-68"/>
    </defs>
    <g transform="translate(60.41088 38.111366)scale(0.102 -0.102)">
     <use xlink:href="#DejaVuSans-98"/>
     <use x="63.476562" xlink:href="#DejaVuSans-98"/>
     <use x="126.953125" xlink:href="#DejaVuSans-111"/>
     <use x="188.134766" xlink:href="#DejaVuSans-98"/>
     <use x="251.611328" xlink:href="#DejaVuSans-32"/>
     <use x="283.398438" xlink:href="#DejaVuSans-102"/>
     <use x="318.603516" xlink:href="#DejaVuSans-50"/>
     <use x="382.226562" xlink:href="#DejaVuSans-44"/>
     <use x="414.013672" xlink:href="#DejaVuSans-32"/>
     <use x="445.800781" xlink:href="#DejaVuSans-53"/>
     <use x="509.423828" xlink:href="#DejaVuSans-45"/>
     <use x="545.507812" xlink:href="#DejaVuSans-68"/>
    </g>
    <!-- 51 targets: 100..1e-08 -->
    <defs>
     <path d="M 11.71875 12.40625 
L 22.015625 12.40625 
L 22.015625 0 
L 11.71875 0 
z
M 11.71875 51.703125 
L 22.015625 51.703125 
L 22.015625 39.3125 
L 11.71875 39.3125 
z
" id="DejaVuSans-58"/>
    </defs>
    <g transform="translate(60.41088 49.533135)scale(0.102 -0.102)">
     <use xlink:href="#DejaVuSans-53"/>
     <use x="63.623047" xlink:href="#DejaVuSans-49"/>
     <use x="127.246094" xlink:href="#DejaVuSans-32"/>
     <use x="159.033203" xlink:href="#DejaVuSans-116"/>
     <use x="198.242188" xlink:href="#DejaVuSans-97"/>
     <use x="259.521484" xlink:href="#DejaVuSans-114"/>
     <use x="300.619141" xlink:href="#DejaVuSans-103"/>
     <use x="364.095703" xlink:href="#DejaVuSans-101"/>
     <use x="425.619141" xlink:href="#DejaVuSans-116"/>
     <use x="464.828125" xlink:href="#DejaVuSans-115"/>
     <use x="516.927734" xlink:href="#DejaVuSans-58"/>
     <use x="550.619141" xlink:href="#DejaVuSans-32"/>
     <use x="582.40625" xlink:href="#DejaVuSans-49"/>
     <use x="646.029297" xlink:href="#DejaVuSans-48"/>
     <use x="709.652344" xlink:href="#DejaVuSans-48"/>
     <use x="773.275391" xlink:href="#DejaVuSans-46"/>
     <use x="805.0625" xlink:href="#DejaVuSans-46"/>
     <use x="836.849609" xlink:href="#DejaVuSans-49"/>
     <use x="900.472656" xlink:href="#DejaVuSans-101"/>
     <use x="961.996094" xlink:href="#DejaVuSans-45"/>
     <use x="998.080078" xlink:href="#DejaVuSans-48"/>
     <use x="1061.703125" xlink:href="#DejaVuSans-56"/>
    </g>
    <!-- 15 instances -->
    <g transform="translate(60.41088 60.954904)scale(0.102 -0.102)">
     <use xlink:href="#DejaVuSans-49"/>
     <use x="63.623047" xlink:href="#DejaVuSans-53"/>
     <use x="127.246094" xlink:href="#DejaVuSans-32"/>
     <use x="159.033203" xlink:href="#DejaVuSans-105"/>
     <use x="186.816406" xlink:href="#DejaVuSans-110"/>
     <use x="250.195312" xlink:href="#DejaVuSans-115"/>
     <use x="302.294922" xlink:href="#DejaVuSans-116"/>
     <use x="341.503906" xlink:href="#DejaVuSans-97"/>
     <use x="402.783203" xlink:href="#DejaVuSans-110"/>
     <use x="466.162109" xlink:href="#DejaVuSans-99"/>
     <use x="521.142578" xlink:href="#DejaVuSans-101"/>
     <use x="582.666016" xlink:href="#DejaVuSans-115"/>
    </g>
   </g>
   <g id="text_20">
    <!-- v2.3.3.18.73 -->
    <defs>
     <path d="M 40.578125 39.3125 
Q 47.65625 37.796875 51.625 33 
Q 55.609375 28.21875 55.609375 21.1875 
Q 55.609375 10.40625 48.1875 4.484375 
Q 40.765625 -1.421875 27.09375 -1.421875 
Q 22.515625 -1.421875 17.65625 -0.515625 
Q 12.796875 0.390625 7.625 2.203125 
L 7.625 11.71875 
Q 11.71875 9.328125 16.59375 8.109375 
Q 21.484375 6.890625 26.8125 6.890625 
Q 36.078125 6.890625 40.9375 10.546875 
Q 45.796875 14.203125 45.796875 21.1875 
Q 45.796875 27.640625 41.28125 31.265625 
Q 36.765625 34.90625 28.71875 34.90625 
L 20.21875 34.90625 
L 20.21875 43.015625 
L 29.109375 43.015625 
Q 36.375 43.015625 40.234375 45.921875 
Q 44.09375 48.828125 44.09375 54.296875 
Q 44.09375 59.90625 40.109375 62.90625 
Q 36.140625 65.921875 28.71875 65.921875 
Q 24.65625 65.921875 20.015625 65.03125 
Q 15.375 64.15625 9.8125 62.3125 
L 9.8125 71.09375 
Q 15.4375 72.65625 20.34375 73.4375 
Q 25.25 74.21875 29.59375 74.21875 
Q 40.828125 74.21875 47.359375 69.109375 
Q 53.90625 64.015625 53.90625 55.328125 
Q 53.90625 49.265625 50.4375 45.09375 
Q 46.96875 40.921875 40.578125 39.3125 
z
" id="DejaVuSans-51"/>
     <path d="M 8.203125 72.90625 
L 55.078125 72.90625 
L 55.078125 68.703125 
L 28.609375 0 
L 18.3125 0 
L 43.21875 64.59375 
L 8.203125 64.59375 
z
" id="DejaVuSans-55"/>
    </defs>
    <g style="fill:#808080;" transform="translate(166.559625 294.151352)scale(0.1 -0.1)">
     <use xlink:href="#DejaVuSans-118"/>
     <use x="59.179688" xlink:href="#DejaVuSans-50"/>
     <use x="122.802734" xlink:href="#DejaVuSans-46"/>
     <use x="154.589844" xlink:href="#DejaVuSans-51"/>
     <use x="218.212891" xlink:href="#DejaVuSans-46"/>
     <use x="250" xlink:href="#DejaVuSans-51"/>
     <use x="313.623047" xlink:href="#DejaVuSans-46"/>
     <use x="345.410156" xlink:href="#DejaVuSans-49"/>
     <use x="409.033203" xlink:href="#DejaVuSans-56"/>
     <use x="472.65625" xlink:href="#DejaVuSans-46"/>
     <use x="504.443359" xlink:href="#DejaVuSans-55"/>
     <use x="568.066406" xlink:href="#DejaVuSans-51"/>
    </g>
   </g>
   <g id="text_21">
    <!-- 2 Ellipsoid separable -->
    <defs>
     <path d="M 9.8125 72.90625 
L 55.90625 72.90625 
L 55.90625 64.59375 
L 19.671875 64.59375 
L 19.671875 43.015625 
L 54.390625 43.015625 
L 54.390625 34.71875 
L 19.671875 34.71875 
L 19.671875 8.296875 
L 56.78125 8.296875 
L 56.78125 0 
L 9.8125 0 
z
" id="DejaVuSans-69"/>
    </defs>
    <g transform="translate(94.611187 21.648)scale(0.2 -0.2)">
     <use xlink:href="#DejaVuSans-50"/>
     <use x="63.623047" xlink:href="#DejaVuSans-32"/>
     <use x="95.410156" xlink:href="#DejaVuSans-69"/>
     <use x="158.59375" xlink:href="#DejaVuSans-108"/>
     <use x="186.376953" xlink:href="#DejaVuSans-108"/>
     <use x="214.160156" xlink:href="#DejaVuSans-105"/>
     <use x="241.943359" xlink:href="#DejaVuSans-112"/>
     <use x="305.419922" xlink:href="#DejaVuSans-115"/>
     <use x="357.519531" xlink:href="#DejaVuSans-111"/>
     <use x="418.701172" xlink:href="#DejaVuSans-105"/>
     <use x="446.484375" xlink:href="#DejaVuSans-100"/>
     <use x="509.960938" xlink:href="#DejaVuSans-32"/>
     <use x="541.748047" xlink:href="#DejaVuSans-115"/>
     <use x="593.847656" xlink:href="#DejaVuSans-101"/>
     <use x="655.371094" xlink:href="#DejaVuSans-112"/>
     <use x="718.847656" xlink:href="#DejaVuSans-97"/>
     <use x="780.126953" xlink:href="#DejaVuSans-114"/>
     <use x="821.240234" xlink:href="#DejaVuSans-97"/>
     <use x="882.519531" xlink:href="#DejaVuSans-98"/>
     <use x="945.996094" xlink:href="#DejaVuSans-108"/>
     <use x="973.779297" xlink:href="#DejaVuSans-101"/>
    </g>
   </g>
  </g>
 </g>
 <defs>
  <clipPath id="pbc2b6b515a">
   <rect height="271.296" width="281.088" x="57.6" y="27.648"/>
  </clipPath>
 </defs>
</svg>
