<?xml version="1.0" encoding="utf-8" standalone="no"?>
<!DOCTYPE svg PUBLIC "-//W3C//DTD SVG 1.1//EN"
  "http://www.w3.org/Graphics/SVG/1.1/DTD/svg11.dtd">
<!-- Created with matplotlib (https://matplotlib.org/) -->
<svg height="345.6pt" version="1.1" viewBox="0 0 460.8 345.6" width="460.8pt" xmlns="http://www.w3.org/2000/svg" xmlns:xlink="http://www.w3.org/1999/xlink">
 <defs>
  <style type="text/css">
*{stroke-linecap:butt;stroke-linejoin:round;}
  </style>
 </defs>
 <g id="figure_1">
  <g id="patch_1">
   <path d="M 0 345.6 
L 460.8 345.6 
L 460.8 0 
L 0 0 
z
" style="fill:#ffffff;"/>
  </g>
  <g id="axes_1">
   <g id="patch_2">
    <path d="M 57.6 298.944 
L 338.688 298.944 
L 338.688 27.648 
L 57.6 27.648 
z
" style="fill:#ffffff;"/>
   </g>
   <g id="line2d_1">
    <path d="M 57.6 298.944 
L 57.6 272.609696 
L 64.67102 272.609696 
L 64.67102 267.342835 
L 73.579452 267.342835 
L 73.579452 262.075974 
L 76.759008 262.075974 
L 76.759008 256.809114 
L 91.535274 256.809114 
L 91.535274 251.542253 
L 98.606294 251.542253 
L 98.606294 241.008531 
L 108.948899 241.008531 
L 108.948899 235.74167 
L 111.505558 235.74167 
L 111.505558 230.47481 
L 112.280765 230.47481 
L 112.280765 219.941088 
L 116.914437 219.941088 
L 116.914437 214.674227 
L 121.931406 214.674227 
L 121.931406 209.407366 
L 122.148045 209.407366 
L 122.148045 198.873645 
L 136.831795 198.873645 
L 136.831795 193.606784 
L 137.289545 193.606784 
L 137.289545 188.339923 
L 138.426341 188.339923 
L 138.426341 183.073062 
L 139.172077 183.073062 
L 139.172077 177.806202 
L 139.333553 177.806202 
L 139.333553 77.735846 
L 139.8092 77.735846 
L 139.8092 72.468985 
L 140.272217 72.468985 
L 140.272217 67.202125 
L 140.723258 67.202125 
L 140.723258 61.935264 
L 141.162927 61.935264 
L 141.162927 56.668403 
L 141.307054 56.668403 
L 141.307054 51.401542 
L 141.80232 51.401542 
L 141.80232 46.134681 
L 142.010346 46.134681 
L 142.010346 40.867821 
L 142.215919 40.867821 
L 142.215919 35.60096 
L 142.351634 35.60096 
L 142.351634 30.334099 
L 338.688 30.334099 
" style="fill:none;stroke:#f5deb3;stroke-linecap:square;stroke-width:4;"/>
   </g>
   <g id="line2d_2">
    <defs>
     <path d="M -0 7.778175 
L 7.778175 0 
L 0 -7.778175 
L -7.778175 -0 
z
" id="m3d12b7657b" style="stroke:#f5deb3;stroke-linejoin:miter;stroke-width:1.5;"/>
    </defs>
    <g>
     <use style="fill:#f5deb3;stroke:#f5deb3;stroke-linejoin:miter;stroke-width:1.5;" x="122.148045" xlink:href="#m3d12b7657b" y="209.407366"/>
     <use style="fill:#f5deb3;stroke:#f5deb3;stroke-linejoin:miter;stroke-width:1.5;" x="142.351634" xlink:href="#m3d12b7657b" y="35.60096"/>
     <use style="fill:#f5deb3;stroke:#f5deb3;stroke-linejoin:miter;stroke-width:1.5;" x="142.351634" xlink:href="#m3d12b7657b" y="30.334099"/>
     <use style="fill:#f5deb3;stroke:#f5deb3;stroke-linejoin:miter;stroke-width:1.5;" x="142.351634" xlink:href="#m3d12b7657b" y="30.334099"/>
     <use style="fill:#f5deb3;stroke:#f5deb3;stroke-linejoin:miter;stroke-width:1.5;" x="338.688" xlink:href="#m3d12b7657b" y="30.334099"/>
    </g>
   </g>
   <g id="line2d_3">
    <path style="fill:none;stroke:#f5deb3;stroke-linecap:square;stroke-width:4;"/>
    <g/>
   </g>
   <g id="line2d_4">
    <path d="M 338.688 30.334099 
L 369.60768 35.706297 
" style="fill:none;stroke:#f5deb3;stroke-linecap:square;stroke-width:4;"/>
    <g>
     <use style="fill:#f5deb3;stroke:#f5deb3;stroke-linejoin:miter;stroke-width:1.5;" x="338.688" xlink:href="#m3d12b7657b" y="30.334099"/>
     <use style="fill:#f5deb3;stroke:#f5deb3;stroke-linejoin:miter;stroke-width:1.5;" x="369.60768" xlink:href="#m3d12b7657b" y="35.706297"/>
    </g>
   </g>
   <g id="matplotlib.axis_1">
    <g id="xtick_1">
     <g id="line2d_5">
      <path clip-path="url(#pcfbb8d04ad)" d="M 57.6 298.944 
L 57.6 27.648 
" style="fill:none;stroke:#b0b0b0;stroke-linecap:square;stroke-width:0.8;"/>
     </g>
     <g id="line2d_6">
      <defs>
       <path d="M 0 0 
L 0 3.5 
" id="m66d44d0896" style="stroke:#000000;stroke-width:0.8;"/>
      </defs>
      <g>
       <use style="stroke:#000000;stroke-width:0.8;" x="57.6" xlink:href="#m66d44d0896" y="298.944"/>
      </g>
     </g>
     <g id="text_1">
      <!-- 0 -->
      <defs>
       <path d="M 31.78125 66.40625 
Q 24.171875 66.40625 20.328125 58.90625 
Q 16.5 51.421875 16.5 36.375 
Q 16.5 21.390625 20.328125 13.890625 
Q 24.171875 6.390625 31.78125 6.390625 
Q 39.453125 6.390625 43.28125 13.890625 
Q 47.125 21.390625 47.125 36.375 
Q 47.125 51.421875 43.28125 58.90625 
Q 39.453125 66.40625 31.78125 66.40625 
z
M 31.78125 74.21875 
Q 44.046875 74.21875 50.515625 64.515625 
Q 56.984375 54.828125 56.984375 36.375 
Q 56.984375 17.96875 50.515625 8.265625 
Q 44.046875 -1.421875 31.78125 -1.421875 
Q 19.53125 -1.421875 13.0625 8.265625 
Q 6.59375 17.96875 6.59375 36.375 
Q 6.59375 54.828125 13.0625 64.515625 
Q 19.53125 74.21875 31.78125 74.21875 
z
" id="DejaVuSans-48"/>
      </defs>
      <g transform="translate(51.2375 321.140875)scale(0.2 -0.2)">
       <use xlink:href="#DejaVuSans-48"/>
      </g>
     </g>
    </g>
    <g id="xtick_2">
     <g id="line2d_7">
      <path clip-path="url(#pcfbb8d04ad)" d="M 137.910857 298.944 
L 137.910857 27.648 
" style="fill:none;stroke:#b0b0b0;stroke-linecap:square;stroke-width:0.8;"/>
     </g>
     <g id="line2d_8">
      <g>
       <use style="stroke:#000000;stroke-width:0.8;" x="137.910857" xlink:href="#m66d44d0896" y="298.944"/>
      </g>
     </g>
     <g id="text_2">
      <!-- 2 -->
      <defs>
       <path d="M 19.1875 8.296875 
L 53.609375 8.296875 
L 53.609375 0 
L 7.328125 0 
L 7.328125 8.296875 
Q 12.9375 14.109375 22.625 23.890625 
Q 32.328125 33.6875 34.8125 36.53125 
Q 39.546875 41.84375 41.421875 45.53125 
Q 43.3125 49.21875 43.3125 52.78125 
Q 43.3125 58.59375 39.234375 62.25 
Q 35.15625 65.921875 28.609375 65.921875 
Q 23.96875 65.921875 18.8125 64.3125 
Q 13.671875 62.703125 7.8125 59.421875 
L 7.8125 69.390625 
Q 13.765625 71.78125 18.9375 73 
Q 24.125 74.21875 28.421875 74.21875 
Q 39.75 74.21875 46.484375 68.546875 
Q 53.21875 62.890625 53.21875 53.421875 
Q 53.21875 48.921875 51.53125 44.890625 
Q 49.859375 40.875 45.40625 35.40625 
Q 44.1875 33.984375 37.640625 27.21875 
Q 31.109375 20.453125 19.1875 8.296875 
z
" id="DejaVuSans-50"/>
      </defs>
      <g transform="translate(131.548357 321.140875)scale(0.2 -0.2)">
       <use xlink:href="#DejaVuSans-50"/>
      </g>
     </g>
    </g>
    <g id="xtick_3">
     <g id="line2d_9">
      <path clip-path="url(#pcfbb8d04ad)" d="M 218.221714 298.944 
L 218.221714 27.648 
" style="fill:none;stroke:#b0b0b0;stroke-linecap:square;stroke-width:0.8;"/>
     </g>
     <g id="line2d_10">
      <g>
       <use style="stroke:#000000;stroke-width:0.8;" x="218.221714" xlink:href="#m66d44d0896" y="298.944"/>
      </g>
     </g>
     <g id="text_3">
      <!-- 4 -->
      <defs>
       <path d="M 37.796875 64.3125 
L 12.890625 25.390625 
L 37.796875 25.390625 
z
M 35.203125 72.90625 
L 47.609375 72.90625 
L 47.609375 25.390625 
L 58.015625 25.390625 
L 58.015625 17.1875 
L 47.609375 17.1875 
L 47.609375 0 
L 37.796875 0 
L 37.796875 17.1875 
L 4.890625 17.1875 
L 4.890625 26.703125 
z
" id="DejaVuSans-52"/>
      </defs>
      <g transform="translate(211.859214 321.140875)scale(0.2 -0.2)">
       <use xlink:href="#DejaVuSans-52"/>
      </g>
     </g>
    </g>
    <g id="xtick_4">
     <g id="line2d_11">
      <path clip-path="url(#pcfbb8d04ad)" d="M 298.532571 298.944 
L 298.532571 27.648 
" style="fill:none;stroke:#b0b0b0;stroke-linecap:square;stroke-width:0.8;"/>
     </g>
     <g id="line2d_12">
      <g>
       <use style="stroke:#000000;stroke-width:0.8;" x="298.532571" xlink:href="#m66d44d0896" y="298.944"/>
      </g>
     </g>
     <g id="text_4">
      <!-- 6 -->
      <defs>
       <path d="M 33.015625 40.375 
Q 26.375 40.375 22.484375 35.828125 
Q 18.609375 31.296875 18.609375 23.390625 
Q 18.609375 15.53125 22.484375 10.953125 
Q 26.375 6.390625 33.015625 6.390625 
Q 39.65625 6.390625 43.53125 10.953125 
Q 47.40625 15.53125 47.40625 23.390625 
Q 47.40625 31.296875 43.53125 35.828125 
Q 39.65625 40.375 33.015625 40.375 
z
M 52.59375 71.296875 
L 52.59375 62.3125 
Q 48.875 64.0625 45.09375 64.984375 
Q 41.3125 65.921875 37.59375 65.921875 
Q 27.828125 65.921875 22.671875 59.328125 
Q 17.53125 52.734375 16.796875 39.40625 
Q 19.671875 43.65625 24.015625 45.921875 
Q 28.375 48.1875 33.59375 48.1875 
Q 44.578125 48.1875 50.953125 41.515625 
Q 57.328125 34.859375 57.328125 23.390625 
Q 57.328125 12.15625 50.6875 5.359375 
Q 44.046875 -1.421875 33.015625 -1.421875 
Q 20.359375 -1.421875 13.671875 8.265625 
Q 6.984375 17.96875 6.984375 36.375 
Q 6.984375 53.65625 15.1875 63.9375 
Q 23.390625 74.21875 37.203125 74.21875 
Q 40.921875 74.21875 44.703125 73.484375 
Q 48.484375 72.75 52.59375 71.296875 
z
" id="DejaVuSans-54"/>
      </defs>
      <g transform="translate(292.170071 321.140875)scale(0.2 -0.2)">
       <use xlink:href="#DejaVuSans-54"/>
      </g>
     </g>
    </g>
    <g id="xtick_5">
     <g id="line2d_13">
      <path clip-path="url(#pcfbb8d04ad)" d="M 97.755429 298.944 
L 97.755429 27.648 
" style="fill:none;stroke:#b0b0b0;stroke-linecap:square;stroke-width:0.8;"/>
     </g>
     <g id="line2d_14">
      <defs>
       <path d="M 0 0 
L 0 2 
" id="m16dd5dcfa5" style="stroke:#000000;stroke-width:0.6;"/>
      </defs>
      <g>
       <use style="stroke:#000000;stroke-width:0.6;" x="97.755429" xlink:href="#m16dd5dcfa5" y="298.944"/>
      </g>
     </g>
    </g>
    <g id="xtick_6">
     <g id="line2d_15">
      <path clip-path="url(#pcfbb8d04ad)" d="M 178.066286 298.944 
L 178.066286 27.648 
" style="fill:none;stroke:#b0b0b0;stroke-linecap:square;stroke-width:0.8;"/>
     </g>
     <g id="line2d_16">
      <g>
       <use style="stroke:#000000;stroke-width:0.6;" x="178.066286" xlink:href="#m16dd5dcfa5" y="298.944"/>
      </g>
     </g>
    </g>
    <g id="xtick_7">
     <g id="line2d_17">
      <path clip-path="url(#pcfbb8d04ad)" d="M 258.377143 298.944 
L 258.377143 27.648 
" style="fill:none;stroke:#b0b0b0;stroke-linecap:square;stroke-width:0.8;"/>
     </g>
     <g id="line2d_18">
      <g>
       <use style="stroke:#000000;stroke-width:0.6;" x="258.377143" xlink:href="#m16dd5dcfa5" y="298.944"/>
      </g>
     </g>
    </g>
    <g id="xtick_8">
     <g id="line2d_19">
      <path clip-path="url(#pcfbb8d04ad)" d="M 338.688 298.944 
L 338.688 27.648 
" style="fill:none;stroke:#b0b0b0;stroke-linecap:square;stroke-width:0.8;"/>
     </g>
     <g id="line2d_20">
      <g>
       <use style="stroke:#000000;stroke-width:0.6;" x="338.688" xlink:href="#m16dd5dcfa5" y="298.944"/>
      </g>
     </g>
    </g>
    <g id="text_5">
     <!-- log10(# f-evals / dimension) -->
     <defs>
      <path d="M 9.421875 75.984375 
L 18.40625 75.984375 
L 18.40625 0 
L 9.421875 0 
z
" id="DejaVuSans-108"/>
      <path d="M 30.609375 48.390625 
Q 23.390625 48.390625 19.1875 42.75 
Q 14.984375 37.109375 14.984375 27.296875 
Q 14.984375 17.484375 19.15625 11.84375 
Q 23.34375 6.203125 30.609375 6.203125 
Q 37.796875 6.203125 41.984375 11.859375 
Q 46.1875 17.53125 46.1875 27.296875 
Q 46.1875 37.015625 41.984375 42.703125 
Q 37.796875 48.390625 30.609375 48.390625 
z
M 30.609375 56 
Q 42.328125 56 49.015625 48.375 
Q 55.71875 40.765625 55.71875 27.296875 
Q 55.71875 13.875 49.015625 6.21875 
Q 42.328125 -1.421875 30.609375 -1.421875 
Q 18.84375 -1.421875 12.171875 6.21875 
Q 5.515625 13.875 5.515625 27.296875 
Q 5.515625 40.765625 12.171875 48.375 
Q 18.84375 56 30.609375 56 
z
" id="DejaVuSans-111"/>
      <path d="M 45.40625 27.984375 
Q 45.40625 37.75 41.375 43.109375 
Q 37.359375 48.484375 30.078125 48.484375 
Q 22.859375 48.484375 18.828125 43.109375 
Q 14.796875 37.75 14.796875 27.984375 
Q 14.796875 18.265625 18.828125 12.890625 
Q 22.859375 7.515625 30.078125 7.515625 
Q 37.359375 7.515625 41.375 12.890625 
Q 45.40625 18.265625 45.40625 27.984375 
z
M 54.390625 6.78125 
Q 54.390625 -7.171875 48.1875 -13.984375 
Q 42 -20.796875 29.203125 -20.796875 
Q 24.46875 -20.796875 20.265625 -20.09375 
Q 16.0625 -19.390625 12.109375 -17.921875 
L 12.109375 -9.1875 
Q 16.0625 -11.328125 19.921875 -12.34375 
Q 23.78125 -13.375 27.78125 -13.375 
Q 36.625 -13.375 41.015625 -8.765625 
Q 45.40625 -4.15625 45.40625 5.171875 
L 45.40625 9.625 
Q 42.625 4.78125 38.28125 2.390625 
Q 33.9375 0 27.875 0 
Q 17.828125 0 11.671875 7.65625 
Q 5.515625 15.328125 5.515625 27.984375 
Q 5.515625 40.671875 11.671875 48.328125 
Q 17.828125 56 27.875 56 
Q 33.9375 56 38.28125 53.609375 
Q 42.625 51.21875 45.40625 46.390625 
L 45.40625 54.6875 
L 54.390625 54.6875 
z
" id="DejaVuSans-103"/>
      <path d="M 12.40625 8.296875 
L 28.515625 8.296875 
L 28.515625 63.921875 
L 10.984375 60.40625 
L 10.984375 69.390625 
L 28.421875 72.90625 
L 38.28125 72.90625 
L 38.28125 8.296875 
L 54.390625 8.296875 
L 54.390625 0 
L 12.40625 0 
z
" id="DejaVuSans-49"/>
      <path d="M 31 75.875 
Q 24.46875 64.65625 21.28125 53.65625 
Q 18.109375 42.671875 18.109375 31.390625 
Q 18.109375 20.125 21.3125 9.0625 
Q 24.515625 -2 31 -13.1875 
L 23.1875 -13.1875 
Q 15.875 -1.703125 12.234375 9.375 
Q 8.59375 20.453125 8.59375 31.390625 
Q 8.59375 42.28125 12.203125 53.3125 
Q 15.828125 64.359375 23.1875 75.875 
z
" id="DejaVuSans-40"/>
      <path d="M 51.125 44 
L 36.921875 44 
L 32.8125 27.6875 
L 47.125 27.6875 
z
M 43.796875 71.78125 
L 38.71875 51.515625 
L 52.984375 51.515625 
L 58.109375 71.78125 
L 65.921875 71.78125 
L 60.890625 51.515625 
L 76.125 51.515625 
L 76.125 44 
L 58.984375 44 
L 54.984375 27.6875 
L 70.515625 27.6875 
L 70.515625 20.21875 
L 53.078125 20.21875 
L 48 0 
L 40.1875 0 
L 45.21875 20.21875 
L 30.90625 20.21875 
L 25.875 0 
L 18.015625 0 
L 23.09375 20.21875 
L 7.71875 20.21875 
L 7.71875 27.6875 
L 24.90625 27.6875 
L 29 44 
L 13.28125 44 
L 13.28125 51.515625 
L 30.90625 51.515625 
L 35.890625 71.78125 
z
" id="DejaVuSans-35"/>
      <path id="DejaVuSans-32"/>
      <path d="M 37.109375 75.984375 
L 37.109375 68.5 
L 28.515625 68.5 
Q 23.6875 68.5 21.796875 66.546875 
Q 19.921875 64.59375 19.921875 59.515625 
L 19.921875 54.6875 
L 34.71875 54.6875 
L 34.71875 47.703125 
L 19.921875 47.703125 
L 19.921875 0 
L 10.890625 0 
L 10.890625 47.703125 
L 2.296875 47.703125 
L 2.296875 54.6875 
L 10.890625 54.6875 
L 10.890625 58.5 
Q 10.890625 67.625 15.140625 71.796875 
Q 19.390625 75.984375 28.609375 75.984375 
z
" id="DejaVuSans-102"/>
      <path d="M 4.890625 31.390625 
L 31.203125 31.390625 
L 31.203125 23.390625 
L 4.890625 23.390625 
z
" id="DejaVuSans-45"/>
      <path d="M 56.203125 29.59375 
L 56.203125 25.203125 
L 14.890625 25.203125 
Q 15.484375 15.921875 20.484375 11.0625 
Q 25.484375 6.203125 34.421875 6.203125 
Q 39.59375 6.203125 44.453125 7.46875 
Q 49.3125 8.734375 54.109375 11.28125 
L 54.109375 2.78125 
Q 49.265625 0.734375 44.1875 -0.34375 
Q 39.109375 -1.421875 33.890625 -1.421875 
Q 20.796875 -1.421875 13.15625 6.1875 
Q 5.515625 13.8125 5.515625 26.8125 
Q 5.515625 40.234375 12.765625 48.109375 
Q 20.015625 56 32.328125 56 
Q 43.359375 56 49.78125 48.890625 
Q 56.203125 41.796875 56.203125 29.59375 
z
M 47.21875 32.234375 
Q 47.125 39.59375 43.09375 43.984375 
Q 39.0625 48.390625 32.421875 48.390625 
Q 24.90625 48.390625 20.390625 44.140625 
Q 15.875 39.890625 15.1875 32.171875 
z
" id="DejaVuSans-101"/>
      <path d="M 2.984375 54.6875 
L 12.5 54.6875 
L 29.59375 8.796875 
L 46.6875 54.6875 
L 56.203125 54.6875 
L 35.6875 0 
L 23.484375 0 
z
" id="DejaVuSans-118"/>
      <path d="M 34.28125 27.484375 
Q 23.390625 27.484375 19.1875 25 
Q 14.984375 22.515625 14.984375 16.5 
Q 14.984375 11.71875 18.140625 8.90625 
Q 21.296875 6.109375 26.703125 6.109375 
Q 34.1875 6.109375 38.703125 11.40625 
Q 43.21875 16.703125 43.21875 25.484375 
L 43.21875 27.484375 
z
M 52.203125 31.203125 
L 52.203125 0 
L 43.21875 0 
L 43.21875 8.296875 
Q 40.140625 3.328125 35.546875 0.953125 
Q 30.953125 -1.421875 24.3125 -1.421875 
Q 15.921875 -1.421875 10.953125 3.296875 
Q 6 8.015625 6 15.921875 
Q 6 25.140625 12.171875 29.828125 
Q 18.359375 34.515625 30.609375 34.515625 
L 43.21875 34.515625 
L 43.21875 35.40625 
Q 43.21875 41.609375 39.140625 45 
Q 35.0625 48.390625 27.6875 48.390625 
Q 23 48.390625 18.546875 47.265625 
Q 14.109375 46.140625 10.015625 43.890625 
L 10.015625 52.203125 
Q 14.9375 54.109375 19.578125 55.046875 
Q 24.21875 56 28.609375 56 
Q 40.484375 56 46.34375 49.84375 
Q 52.203125 43.703125 52.203125 31.203125 
z
" id="DejaVuSans-97"/>
      <path d="M 44.28125 53.078125 
L 44.28125 44.578125 
Q 40.484375 46.53125 36.375 47.5 
Q 32.28125 48.484375 27.875 48.484375 
Q 21.1875 48.484375 17.84375 46.4375 
Q 14.5 44.390625 14.5 40.28125 
Q 14.5 37.15625 16.890625 35.375 
Q 19.28125 33.59375 26.515625 31.984375 
L 29.59375 31.296875 
Q 39.15625 29.25 43.1875 25.515625 
Q 47.21875 21.78125 47.21875 15.09375 
Q 47.21875 7.46875 41.1875 3.015625 
Q 35.15625 -1.421875 24.609375 -1.421875 
Q 20.21875 -1.421875 15.453125 -0.5625 
Q 10.6875 0.296875 5.421875 2 
L 5.421875 11.28125 
Q 10.40625 8.6875 15.234375 7.390625 
Q 20.0625 6.109375 24.8125 6.109375 
Q 31.15625 6.109375 34.5625 8.28125 
Q 37.984375 10.453125 37.984375 14.40625 
Q 37.984375 18.0625 35.515625 20.015625 
Q 33.0625 21.96875 24.703125 23.78125 
L 21.578125 24.515625 
Q 13.234375 26.265625 9.515625 29.90625 
Q 5.8125 33.546875 5.8125 39.890625 
Q 5.8125 47.609375 11.28125 51.796875 
Q 16.75 56 26.8125 56 
Q 31.78125 56 36.171875 55.265625 
Q 40.578125 54.546875 44.28125 53.078125 
z
" id="DejaVuSans-115"/>
      <path d="M 25.390625 72.90625 
L 33.6875 72.90625 
L 8.296875 -9.28125 
L 0 -9.28125 
z
" id="DejaVuSans-47"/>
      <path d="M 45.40625 46.390625 
L 45.40625 75.984375 
L 54.390625 75.984375 
L 54.390625 0 
L 45.40625 0 
L 45.40625 8.203125 
Q 42.578125 3.328125 38.25 0.953125 
Q 33.9375 -1.421875 27.875 -1.421875 
Q 17.96875 -1.421875 11.734375 6.484375 
Q 5.515625 14.40625 5.515625 27.296875 
Q 5.515625 40.1875 11.734375 48.09375 
Q 17.96875 56 27.875 56 
Q 33.9375 56 38.25 53.625 
Q 42.578125 51.265625 45.40625 46.390625 
z
M 14.796875 27.296875 
Q 14.796875 17.390625 18.875 11.75 
Q 22.953125 6.109375 30.078125 6.109375 
Q 37.203125 6.109375 41.296875 11.75 
Q 45.40625 17.390625 45.40625 27.296875 
Q 45.40625 37.203125 41.296875 42.84375 
Q 37.203125 48.484375 30.078125 48.484375 
Q 22.953125 48.484375 18.875 42.84375 
Q 14.796875 37.203125 14.796875 27.296875 
z
" id="DejaVuSans-100"/>
      <path d="M 9.421875 54.6875 
L 18.40625 54.6875 
L 18.40625 0 
L 9.421875 0 
z
M 9.421875 75.984375 
L 18.40625 75.984375 
L 18.40625 64.59375 
L 9.421875 64.59375 
z
" id="DejaVuSans-105"/>
      <path d="M 52 44.1875 
Q 55.375 50.25 60.0625 53.125 
Q 64.75 56 71.09375 56 
Q 79.640625 56 84.28125 50.015625 
Q 88.921875 44.046875 88.921875 33.015625 
L 88.921875 0 
L 79.890625 0 
L 79.890625 32.71875 
Q 79.890625 40.578125 77.09375 44.375 
Q 74.3125 48.1875 68.609375 48.1875 
Q 61.625 48.1875 57.5625 43.546875 
Q 53.515625 38.921875 53.515625 30.90625 
L 53.515625 0 
L 44.484375 0 
L 44.484375 32.71875 
Q 44.484375 40.625 41.703125 44.40625 
Q 38.921875 48.1875 33.109375 48.1875 
Q 26.21875 48.1875 22.15625 43.53125 
Q 18.109375 38.875 18.109375 30.90625 
L 18.109375 0 
L 9.078125 0 
L 9.078125 54.6875 
L 18.109375 54.6875 
L 18.109375 46.1875 
Q 21.1875 51.21875 25.484375 53.609375 
Q 29.78125 56 35.6875 56 
Q 41.65625 56 45.828125 52.96875 
Q 50 49.953125 52 44.1875 
z
" id="DejaVuSans-109"/>
      <path d="M 54.890625 33.015625 
L 54.890625 0 
L 45.90625 0 
L 45.90625 32.71875 
Q 45.90625 40.484375 42.875 44.328125 
Q 39.84375 48.1875 33.796875 48.1875 
Q 26.515625 48.1875 22.3125 43.546875 
Q 18.109375 38.921875 18.109375 30.90625 
L 18.109375 0 
L 9.078125 0 
L 9.078125 54.6875 
L 18.109375 54.6875 
L 18.109375 46.1875 
Q 21.34375 51.125 25.703125 53.5625 
Q 30.078125 56 35.796875 56 
Q 45.21875 56 50.046875 50.171875 
Q 54.890625 44.34375 54.890625 33.015625 
z
" id="DejaVuSans-110"/>
      <path d="M 8.015625 75.875 
L 15.828125 75.875 
Q 23.140625 64.359375 26.78125 53.3125 
Q 30.421875 42.28125 30.421875 31.390625 
Q 30.421875 20.453125 26.78125 9.375 
Q 23.140625 -1.703125 15.828125 -13.1875 
L 8.015625 -13.1875 
Q 14.5 -2 17.703125 9.0625 
Q 20.90625 20.125 20.90625 31.390625 
Q 20.90625 42.671875 17.703125 53.65625 
Q 14.5 64.65625 8.015625 75.875 
z
" id="DejaVuSans-41"/>
     </defs>
     <g transform="translate(77.303219 342.217594)scale(0.17 -0.17)">
      <use xlink:href="#DejaVuSans-108"/>
      <use x="27.783203" xlink:href="#DejaVuSans-111"/>
      <use x="88.964844" xlink:href="#DejaVuSans-103"/>
      <use x="152.441406" xlink:href="#DejaVuSans-49"/>
      <use x="216.064453" xlink:href="#DejaVuSans-48"/>
      <use x="279.6875" xlink:href="#DejaVuSans-40"/>
      <use x="318.701172" xlink:href="#DejaVuSans-35"/>
      <use x="402.490234" xlink:href="#DejaVuSans-32"/>
      <use x="434.277344" xlink:href="#DejaVuSans-102"/>
      <use x="469.404297" xlink:href="#DejaVuSans-45"/>
      <use x="505.488281" xlink:href="#DejaVuSans-101"/>
      <use x="567.011719" xlink:href="#DejaVuSans-118"/>
      <use x="626.191406" xlink:href="#DejaVuSans-97"/>
      <use x="687.470703" xlink:href="#DejaVuSans-108"/>
      <use x="715.253906" xlink:href="#DejaVuSans-115"/>
      <use x="767.353516" xlink:href="#DejaVuSans-32"/>
      <use x="799.140625" xlink:href="#DejaVuSans-47"/>
      <use x="832.832031" xlink:href="#DejaVuSans-32"/>
      <use x="864.619141" xlink:href="#DejaVuSans-100"/>
      <use x="928.095703" xlink:href="#DejaVuSans-105"/>
      <use x="955.878906" xlink:href="#DejaVuSans-109"/>
      <use x="1053.291016" xlink:href="#DejaVuSans-101"/>
      <use x="1114.814453" xlink:href="#DejaVuSans-110"/>
      <use x="1178.193359" xlink:href="#DejaVuSans-115"/>
      <use x="1230.292969" xlink:href="#DejaVuSans-105"/>
      <use x="1258.076172" xlink:href="#DejaVuSans-111"/>
      <use x="1319.257812" xlink:href="#DejaVuSans-110"/>
      <use x="1382.636719" xlink:href="#DejaVuSans-41"/>
     </g>
    </g>
   </g>
   <g id="matplotlib.axis_2">
    <g id="ytick_1">
     <g id="line2d_21">
      <path clip-path="url(#pcfbb8d04ad)" d="M 57.6 298.944 
L 338.688 298.944 
" style="fill:none;stroke:#b0b0b0;stroke-linecap:square;stroke-width:0.8;"/>
     </g>
     <g id="line2d_22">
      <defs>
       <path d="M 0 0 
L -3.5 0 
" id="m3be008231d" style="stroke:#000000;stroke-width:0.8;"/>
      </defs>
      <g>
       <use style="stroke:#000000;stroke-width:0.8;" x="57.6" xlink:href="#m3be008231d" y="298.944"/>
      </g>
     </g>
     <g id="text_6">
      <!-- 0.0 -->
      <defs>
       <path d="M 10.6875 12.40625 
L 21 12.40625 
L 21 0 
L 10.6875 0 
z
" id="DejaVuSans-46"/>
      </defs>
      <g transform="translate(25.155 305.02275)scale(0.16 -0.16)">
       <use xlink:href="#DejaVuSans-48"/>
       <use x="63.623047" xlink:href="#DejaVuSans-46"/>
       <use x="95.410156" xlink:href="#DejaVuSans-48"/>
      </g>
     </g>
    </g>
    <g id="ytick_2">
     <g id="line2d_23">
      <path clip-path="url(#pcfbb8d04ad)" d="M 57.6 245.22202 
L 338.688 245.22202 
" style="fill:none;stroke:#b0b0b0;stroke-linecap:square;stroke-width:0.8;"/>
     </g>
     <g id="line2d_24">
      <g>
       <use style="stroke:#000000;stroke-width:0.8;" x="57.6" xlink:href="#m3be008231d" y="245.22202"/>
      </g>
     </g>
     <g id="text_7">
      <!-- 0.2 -->
      <g transform="translate(25.155 251.30077)scale(0.16 -0.16)">
       <use xlink:href="#DejaVuSans-48"/>
       <use x="63.623047" xlink:href="#DejaVuSans-46"/>
       <use x="95.410156" xlink:href="#DejaVuSans-50"/>
      </g>
     </g>
    </g>
    <g id="ytick_3">
     <g id="line2d_25">
      <path clip-path="url(#pcfbb8d04ad)" d="M 57.6 191.50004 
L 338.688 191.50004 
" style="fill:none;stroke:#b0b0b0;stroke-linecap:square;stroke-width:0.8;"/>
     </g>
     <g id="line2d_26">
      <g>
       <use style="stroke:#000000;stroke-width:0.8;" x="57.6" xlink:href="#m3be008231d" y="191.50004"/>
      </g>
     </g>
     <g id="text_8">
      <!-- 0.4 -->
      <g transform="translate(25.155 197.57879)scale(0.16 -0.16)">
       <use xlink:href="#DejaVuSans-48"/>
       <use x="63.623047" xlink:href="#DejaVuSans-46"/>
       <use x="95.410156" xlink:href="#DejaVuSans-52"/>
      </g>
     </g>
    </g>
    <g id="ytick_4">
     <g id="line2d_27">
      <path clip-path="url(#pcfbb8d04ad)" d="M 57.6 137.778059 
L 338.688 137.778059 
" style="fill:none;stroke:#b0b0b0;stroke-linecap:square;stroke-width:0.8;"/>
     </g>
     <g id="line2d_28">
      <g>
       <use style="stroke:#000000;stroke-width:0.8;" x="57.6" xlink:href="#m3be008231d" y="137.778059"/>
      </g>
     </g>
     <g id="text_9">
      <!-- 0.6 -->
      <g transform="translate(25.155 143.856809)scale(0.16 -0.16)">
       <use xlink:href="#DejaVuSans-48"/>
       <use x="63.623047" xlink:href="#DejaVuSans-46"/>
       <use x="95.410156" xlink:href="#DejaVuSans-54"/>
      </g>
     </g>
    </g>
    <g id="ytick_5">
     <g id="line2d_29">
      <path clip-path="url(#pcfbb8d04ad)" d="M 57.6 84.056079 
L 338.688 84.056079 
" style="fill:none;stroke:#b0b0b0;stroke-linecap:square;stroke-width:0.8;"/>
     </g>
     <g id="line2d_30">
      <g>
       <use style="stroke:#000000;stroke-width:0.8;" x="57.6" xlink:href="#m3be008231d" y="84.056079"/>
      </g>
     </g>
     <g id="text_10">
      <!-- 0.8 -->
      <defs>
       <path d="M 31.78125 34.625 
Q 24.75 34.625 20.71875 30.859375 
Q 16.703125 27.09375 16.703125 20.515625 
Q 16.703125 13.921875 20.71875 10.15625 
Q 24.75 6.390625 31.78125 6.390625 
Q 38.8125 6.390625 42.859375 10.171875 
Q 46.921875 13.96875 46.921875 20.515625 
Q 46.921875 27.09375 42.890625 30.859375 
Q 38.875 34.625 31.78125 34.625 
z
M 21.921875 38.8125 
Q 15.578125 40.375 12.03125 44.71875 
Q 8.5 49.078125 8.5 55.328125 
Q 8.5 64.0625 14.71875 69.140625 
Q 20.953125 74.21875 31.78125 74.21875 
Q 42.671875 74.21875 48.875 69.140625 
Q 55.078125 64.0625 55.078125 55.328125 
Q 55.078125 49.078125 51.53125 44.71875 
Q 48 40.375 41.703125 38.8125 
Q 48.828125 37.15625 52.796875 32.3125 
Q 56.78125 27.484375 56.78125 20.515625 
Q 56.78125 9.90625 50.3125 4.234375 
Q 43.84375 -1.421875 31.78125 -1.421875 
Q 19.734375 -1.421875 13.25 4.234375 
Q 6.78125 9.90625 6.78125 20.515625 
Q 6.78125 27.484375 10.78125 32.3125 
Q 14.796875 37.15625 21.921875 38.8125 
z
M 18.3125 54.390625 
Q 18.3125 48.734375 21.84375 45.5625 
Q 25.390625 42.390625 31.78125 42.390625 
Q 38.140625 42.390625 41.71875 45.5625 
Q 45.3125 48.734375 45.3125 54.390625 
Q 45.3125 60.0625 41.71875 63.234375 
Q 38.140625 66.40625 31.78125 66.40625 
Q 25.390625 66.40625 21.84375 63.234375 
Q 18.3125 60.0625 18.3125 54.390625 
z
" id="DejaVuSans-56"/>
      </defs>
      <g transform="translate(25.155 90.134829)scale(0.16 -0.16)">
       <use xlink:href="#DejaVuSans-48"/>
       <use x="63.623047" xlink:href="#DejaVuSans-46"/>
       <use x="95.410156" xlink:href="#DejaVuSans-56"/>
      </g>
     </g>
    </g>
    <g id="ytick_6">
     <g id="line2d_31">
      <path clip-path="url(#pcfbb8d04ad)" d="M 57.6 30.334099 
L 338.688 30.334099 
" style="fill:none;stroke:#b0b0b0;stroke-linecap:square;stroke-width:0.8;"/>
     </g>
     <g id="line2d_32">
      <g>
       <use style="stroke:#000000;stroke-width:0.8;" x="57.6" xlink:href="#m3be008231d" y="30.334099"/>
      </g>
     </g>
     <g id="text_11">
      <!-- 1.0 -->
      <g transform="translate(25.155 36.412849)scale(0.16 -0.16)">
       <use xlink:href="#DejaVuSans-49"/>
       <use x="63.623047" xlink:href="#DejaVuSans-46"/>
       <use x="95.410156" xlink:href="#DejaVuSans-48"/>
      </g>
     </g>
    </g>
    <g id="text_12">
     <!-- Fraction of function,target pairs -->
     <defs>
      <path d="M 9.8125 72.90625 
L 51.703125 72.90625 
L 51.703125 64.59375 
L 19.671875 64.59375 
L 19.671875 43.109375 
L 48.578125 43.109375 
L 48.578125 34.8125 
L 19.671875 34.8125 
L 19.671875 0 
L 9.8125 0 
z
" id="DejaVuSans-70"/>
      <path d="M 41.109375 46.296875 
Q 39.59375 47.171875 37.8125 47.578125 
Q 36.03125 48 33.890625 48 
Q 26.265625 48 22.1875 43.046875 
Q 18.109375 38.09375 18.109375 28.8125 
L 18.109375 0 
L 9.078125 0 
L 9.078125 54.6875 
L 18.109375 54.6875 
L 18.109375 46.1875 
Q 20.953125 51.171875 25.484375 53.578125 
Q 30.03125 56 36.53125 56 
Q 37.453125 56 38.578125 55.875 
Q 39.703125 55.765625 41.0625 55.515625 
z
" id="DejaVuSans-114"/>
      <path d="M 48.78125 52.59375 
L 48.78125 44.1875 
Q 44.96875 46.296875 41.140625 47.34375 
Q 37.3125 48.390625 33.40625 48.390625 
Q 24.65625 48.390625 19.8125 42.84375 
Q 14.984375 37.3125 14.984375 27.296875 
Q 14.984375 17.28125 19.8125 11.734375 
Q 24.65625 6.203125 33.40625 6.203125 
Q 37.3125 6.203125 41.140625 7.25 
Q 44.96875 8.296875 48.78125 10.40625 
L 48.78125 2.09375 
Q 45.015625 0.34375 40.984375 -0.53125 
Q 36.96875 -1.421875 32.421875 -1.421875 
Q 20.0625 -1.421875 12.78125 6.34375 
Q 5.515625 14.109375 5.515625 27.296875 
Q 5.515625 40.671875 12.859375 48.328125 
Q 20.21875 56 33.015625 56 
Q 37.15625 56 41.109375 55.140625 
Q 45.0625 54.296875 48.78125 52.59375 
z
" id="DejaVuSans-99"/>
      <path d="M 18.3125 70.21875 
L 18.3125 54.6875 
L 36.8125 54.6875 
L 36.8125 47.703125 
L 18.3125 47.703125 
L 18.3125 18.015625 
Q 18.3125 11.328125 20.140625 9.421875 
Q 21.96875 7.515625 27.59375 7.515625 
L 36.8125 7.515625 
L 36.8125 0 
L 27.59375 0 
Q 17.1875 0 13.234375 3.875 
Q 9.28125 7.765625 9.28125 18.015625 
L 9.28125 47.703125 
L 2.6875 47.703125 
L 2.6875 54.6875 
L 9.28125 54.6875 
L 9.28125 70.21875 
z
" id="DejaVuSans-116"/>
      <path d="M 8.5 21.578125 
L 8.5 54.6875 
L 17.484375 54.6875 
L 17.484375 21.921875 
Q 17.484375 14.15625 20.5 10.265625 
Q 23.53125 6.390625 29.59375 6.390625 
Q 36.859375 6.390625 41.078125 11.03125 
Q 45.3125 15.671875 45.3125 23.6875 
L 45.3125 54.6875 
L 54.296875 54.6875 
L 54.296875 0 
L 45.3125 0 
L 45.3125 8.40625 
Q 42.046875 3.421875 37.71875 1 
Q 33.40625 -1.421875 27.6875 -1.421875 
Q 18.265625 -1.421875 13.375 4.4375 
Q 8.5 10.296875 8.5 21.578125 
z
M 31.109375 56 
z
" id="DejaVuSans-117"/>
      <path d="M 11.71875 12.40625 
L 22.015625 12.40625 
L 22.015625 4 
L 14.015625 -11.625 
L 7.71875 -11.625 
L 11.71875 4 
z
" id="DejaVuSans-44"/>
      <path d="M 18.109375 8.203125 
L 18.109375 -20.796875 
L 9.078125 -20.796875 
L 9.078125 54.6875 
L 18.109375 54.6875 
L 18.109375 46.390625 
Q 20.953125 51.265625 25.265625 53.625 
Q 29.59375 56 35.59375 56 
Q 45.5625 56 51.78125 48.09375 
Q 58.015625 40.1875 58.015625 27.296875 
Q 58.015625 14.40625 51.78125 6.484375 
Q 45.5625 -1.421875 35.59375 -1.421875 
Q 29.59375 -1.421875 25.265625 0.953125 
Q 20.953125 3.328125 18.109375 8.203125 
z
M 48.6875 27.296875 
Q 48.6875 37.203125 44.609375 42.84375 
Q 40.53125 48.484375 33.40625 48.484375 
Q 26.265625 48.484375 22.1875 42.84375 
Q 18.109375 37.203125 18.109375 27.296875 
Q 18.109375 17.390625 22.1875 11.75 
Q 26.265625 6.109375 33.40625 6.109375 
Q 40.53125 6.109375 44.609375 11.75 
Q 48.6875 17.390625 48.6875 27.296875 
z
" id="DejaVuSans-112"/>
     </defs>
     <g transform="translate(17.619531 298.435375)rotate(-90)scale(0.17 -0.17)">
      <use xlink:href="#DejaVuSans-70"/>
      <use x="57.410156" xlink:href="#DejaVuSans-114"/>
      <use x="98.523438" xlink:href="#DejaVuSans-97"/>
      <use x="159.802734" xlink:href="#DejaVuSans-99"/>
      <use x="214.783203" xlink:href="#DejaVuSans-116"/>
      <use x="253.992188" xlink:href="#DejaVuSans-105"/>
      <use x="281.775391" xlink:href="#DejaVuSans-111"/>
      <use x="342.957031" xlink:href="#DejaVuSans-110"/>
      <use x="406.335938" xlink:href="#DejaVuSans-32"/>
      <use x="438.123047" xlink:href="#DejaVuSans-111"/>
      <use x="499.304688" xlink:href="#DejaVuSans-102"/>
      <use x="534.509766" xlink:href="#DejaVuSans-32"/>
      <use x="566.296875" xlink:href="#DejaVuSans-102"/>
      <use x="601.501953" xlink:href="#DejaVuSans-117"/>
      <use x="664.880859" xlink:href="#DejaVuSans-110"/>
      <use x="728.259766" xlink:href="#DejaVuSans-99"/>
      <use x="783.240234" xlink:href="#DejaVuSans-116"/>
      <use x="822.449219" xlink:href="#DejaVuSans-105"/>
      <use x="850.232422" xlink:href="#DejaVuSans-111"/>
      <use x="911.414062" xlink:href="#DejaVuSans-110"/>
      <use x="974.792969" xlink:href="#DejaVuSans-44"/>
      <use x="1006.580078" xlink:href="#DejaVuSans-116"/>
      <use x="1045.789062" xlink:href="#DejaVuSans-97"/>
      <use x="1107.068359" xlink:href="#DejaVuSans-114"/>
      <use x="1148.166016" xlink:href="#DejaVuSans-103"/>
      <use x="1211.642578" xlink:href="#DejaVuSans-101"/>
      <use x="1273.166016" xlink:href="#DejaVuSans-116"/>
      <use x="1312.375" xlink:href="#DejaVuSans-32"/>
      <use x="1344.162109" xlink:href="#DejaVuSans-112"/>
      <use x="1407.638672" xlink:href="#DejaVuSans-97"/>
      <use x="1468.917969" xlink:href="#DejaVuSans-105"/>
      <use x="1496.701172" xlink:href="#DejaVuSans-114"/>
      <use x="1537.814453" xlink:href="#DejaVuSans-115"/>
     </g>
    </g>
   </g>
   <g id="line2d_33">
    <defs>
     <path d="M 0 1.5 
C 0.397805 1.5 0.77937 1.341951 1.06066 1.06066 
C 1.341951 0.77937 1.5 0.397805 1.5 0 
C 1.5 -0.397805 1.341951 -0.77937 1.06066 -1.06066 
C 0.77937 -1.341951 0.397805 -1.5 0 -1.5 
C -0.397805 -1.5 -0.77937 -1.341951 -1.06066 -1.06066 
C -1.341951 -0.77937 -1.5 -0.397805 -1.5 0 
C -1.5 0.397805 -1.341951 0.77937 -1.06066 1.06066 
C -0.77937 1.341951 -0.397805 1.5 0 1.5 
z
" id="mfa6002a9eb" style="stroke:#f5deb3;"/>
    </defs>
    <g>
     <use style="fill:#f5deb3;stroke:#f5deb3;" x="142.351634" xlink:href="#mfa6002a9eb" y="30.334099"/>
     <use style="fill:#f5deb3;stroke:#f5deb3;" x="142.351634" xlink:href="#mfa6002a9eb" y="30.334099"/>
    </g>
   </g>
   <g id="line2d_34">
    <defs>
     <path d="M 0 1.5 
C 0.397805 1.5 0.77937 1.341951 1.06066 1.06066 
C 1.341951 0.77937 1.5 0.397805 1.5 0 
C 1.5 -0.397805 1.341951 -0.77937 1.06066 -1.06066 
C 0.77937 -1.341951 0.397805 -1.5 0 -1.5 
C -0.397805 -1.5 -0.77937 -1.341951 -1.06066 -1.06066 
C -1.341951 -0.77937 -1.5 -0.397805 -1.5 0 
C -1.5 0.397805 -1.341951 0.77937 -1.06066 1.06066 
C -0.77937 1.341951 -0.397805 1.5 0 1.5 
z
" id="mb8b7a147af" style="stroke:#000080;"/>
    </defs>
    <g>
     <use style="fill:#000080;stroke:#000080;" x="152.436193" xlink:href="#mb8b7a147af" y="30.334099"/>
     <use style="fill:#000080;stroke:#000080;" x="152.436193" xlink:href="#mb8b7a147af" y="30.334099"/>
    </g>
   </g>
   <g id="line2d_35">
    <path d="M 45.512012 298.944 
L 45.512012 279.456615 
L 57.6 279.456615 
L 57.6 275.243126 
L 64.67102 275.243126 
L 64.67102 271.556324 
L 69.687988 271.556324 
L 69.687988 270.502952 
L 73.579452 270.502952 
L 73.579452 269.449579 
L 76.759008 269.449579 
L 76.759008 265.236091 
L 81.775977 265.236091 
L 81.775977 263.129347 
L 83.830028 263.129347 
L 83.830028 262.60266 
L 85.66744 262.60266 
L 85.66744 260.495916 
L 87.329581 260.495916 
L 87.329581 259.96923 
L 88.846997 259.96923 
L 88.846997 256.809114 
L 93.863965 256.809114 
L 93.863965 254.175683 
L 95.918017 254.175683 
L 95.918017 253.648997 
L 96.86091 253.648997 
L 96.86091 252.595625 
L 97.755429 252.595625 
L 97.755429 251.542253 
L 100.192776 251.542253 
L 100.192776 249.435508 
L 101.646892 249.435508 
L 101.646892 248.382136 
L 102.330873 248.382136 
L 102.330873 245.748706 
L 102.989037 245.748706 
L 102.989037 243.115275 
L 103.623262 243.115275 
L 103.623262 242.588589 
L 104.23523 242.588589 
L 104.23523 239.955159 
L 105.951954 239.955159 
L 105.951954 238.901787 
L 106.48859 238.901787 
L 106.48859 238.375101 
L 108.948899 238.375101 
L 108.948899 237.321729 
L 109.401893 237.321729 
L 109.401893 235.74167 
L 110.274038 235.74167 
L 110.274038 235.214984 
L 111.505558 235.214984 
L 111.505558 233.634926 
L 111.897469 233.634926 
L 111.897469 233.10824 
L 112.280765 233.10824 
L 112.280765 232.581554 
L 112.655818 232.581554 
L 112.655818 232.054868 
L 114.418861 232.054868 
L 114.418861 231.001496 
L 115.397021 231.001496 
L 115.397021 230.47481 
L 115.711251 230.47481 
L 115.711251 229.421437 
L 116.019919 229.421437 
L 116.019919 228.894751 
L 116.323218 228.894751 
L 116.323218 226.788007 
L 116.621333 226.788007 
L 116.621333 226.261321 
L 118.310324 226.261321 
L 118.310324 223.627891 
L 119.097192 223.627891 
L 119.097192 222.574518 
L 119.602714 222.574518 
L 119.602714 214.674227 
L 120.571812 214.674227 
L 120.571812 212.567483 
L 120.8059 212.567483 
L 120.8059 210.460738 
L 121.036887 210.460738 
L 121.036887 208.88068 
L 121.264855 208.88068 
L 121.264855 207.827308 
L 122.988655 207.827308 
L 122.988655 198.873645 
L 123.394238 198.873645 
L 123.394238 196.240214 
L 123.790603 196.240214 
L 123.790603 194.660156 
L 124.178158 194.660156 
L 124.178158 184.653121 
L 125.291682 184.653121 
L 125.291682 177.806202 
L 125.470548 177.806202 
L 125.470548 177.279515 
L 125.647598 177.279515 
L 125.647598 176.752829 
L 126.168212 176.752829 
L 126.168212 168.852538 
L 126.50685 168.852538 
L 126.50685 167.799166 
L 126.673734 167.799166 
L 126.673734 167.27248 
L 127.48501 167.27248 
L 127.48501 166.219108 
L 127.642832 166.219108 
L 127.642832 165.165736 
L 128.560901 165.165736 
L 128.560901 164.63905 
L 129.002426 164.63905 
L 129.002426 163.585677 
L 129.147151 163.585677 
L 129.147151 162.005619 
L 129.290685 162.005619 
L 129.290685 157.79213 
L 129.433047 157.79213 
L 129.433047 153.578642 
L 130.263646 153.578642 
L 130.263646 144.624978 
L 130.531948 144.624978 
L 130.531948 135.671315 
L 130.664567 135.671315 
L 130.664567 133.564571 
L 130.926816 133.564571 
L 130.926816 129.877768 
L 131.439773 129.877768 
L 131.439773 128.824396 
L 132.060454 128.824396 
L 132.060454 120.924105 
L 132.777237 120.924105 
L 132.777237 118.290674 
L 133.800029 118.290674 
L 133.800029 116.710616 
L 134.450015 116.710616 
L 134.450015 116.18393 
L 134.661403 116.18393 
L 134.661403 115.657244 
L 135.681535 115.657244 
L 135.681535 107.756953 
L 136.073445 107.756953 
L 136.073445 107.230267 
L 136.831795 107.230267 
L 136.924311 106.176895 
L 137.016339 106.176895 
L 137.016339 105.650209 
L 137.823442 105.650209 
L 137.823442 104.07015 
L 138.426341 104.07015 
L 138.426341 103.543464 
L 139.009092 103.543464 
L 139.009092 101.963406 
L 139.572998 101.963406 
L 139.572998 90.376312 
L 140.042245 90.376312 
L 140.042245 80.895963 
L 140.423864 80.895963 
L 140.423864 79.842591 
L 140.723258 79.842591 
L 140.723258 78.262532 
L 141.307054 78.262532 
L 141.307054 77.735846 
L 143.40093 77.735846 
L 143.40093 74.57573 
L 143.902815 74.57573 
L 143.902815 73.522358 
L 144.148442 73.522358 
L 144.148442 72.995672 
L 144.688773 72.995672 
L 144.688773 62.46195 
L 144.806606 62.46195 
L 144.806606 61.935264 
L 146.484754 61.935264 
L 146.484754 56.668403 
L 147.419225 56.668403 
L 147.419225 56.141717 
L 147.71991 56.141717 
L 147.71991 55.088345 
L 147.96658 55.088345 
L 147.96658 52.9816 
L 148.686322 52.9816 
L 148.686322 50.34817 
L 148.919783 50.34817 
L 148.919783 49.821484 
L 149.058374 49.821484 
L 149.058374 49.294798 
L 149.241465 49.294798 
L 149.286939 48.241426 
L 149.467659 48.241426 
L 149.467659 47.188054 
L 149.779481 47.188054 
L 149.867558 37.707704 
L 150.085825 37.707704 
L 150.085825 37.181018 
L 150.808139 37.181018 
L 150.891184 35.60096 
L 150.973835 35.60096 
L 150.973835 35.074274 
L 151.381313 35.074274 
L 151.381313 34.020902 
L 151.740076 34.020902 
L 151.740076 32.967529 
L 151.858043 32.967529 
L 151.858043 32.440843 
L 152.168773 32.440843 
L 152.168773 31.914157 
L 152.436193 31.914157 
L 152.436193 30.334099 
L 338.688 30.334099 
L 338.688 30.334099 
" style="fill:none;stroke:#000080;stroke-linecap:square;stroke-width:1.5;"/>
   </g>
   <g id="line2d_36">
    <defs>
     <path d="M 0 6 
C 1.591219 6 3.117479 5.367802 4.242641 4.242641 
C 5.367802 3.117479 6 1.591219 6 0 
C 6 -1.591219 5.367802 -3.117479 4.242641 -4.242641 
C 3.117479 -5.367802 1.591219 -6 0 -6 
C -1.591219 -6 -3.117479 -5.367802 -4.242641 -4.242641 
C -5.367802 -3.117479 -6 -1.591219 -6 0 
C -6 1.591219 -5.367802 3.117479 -4.242641 4.242641 
C -3.117479 5.367802 -1.591219 6 0 6 
z
" id="m6fa603843b" style="stroke:#000080;stroke-width:1.5;"/>
    </defs>
    <g>
     <use style="fill-opacity:0;stroke:#000080;stroke-width:1.5;" x="104.23523" xlink:href="#m6fa603843b" y="242.588589"/>
     <use style="fill-opacity:0;stroke:#000080;stroke-width:1.5;" x="132.777237" xlink:href="#m6fa603843b" y="120.924105"/>
     <use style="fill-opacity:0;stroke:#000080;stroke-width:1.5;" x="152.436193" xlink:href="#m6fa603843b" y="31.914157"/>
     <use style="fill-opacity:0;stroke:#000080;stroke-width:1.5;" x="152.436193" xlink:href="#m6fa603843b" y="30.334099"/>
     <use style="fill-opacity:0;stroke:#000080;stroke-width:1.5;" x="152.436193" xlink:href="#m6fa603843b" y="30.334099"/>
     <use style="fill-opacity:0;stroke:#000080;stroke-width:1.5;" x="338.688" xlink:href="#m6fa603843b" y="30.334099"/>
    </g>
   </g>
   <g id="line2d_37">
    <path style="fill:none;stroke:#000080;stroke-linecap:square;stroke-width:1.5;"/>
    <g/>
   </g>
   <g id="line2d_38">
    <g>
     <use style="fill:#000080;stroke:#000080;" x="151.779487" xlink:href="#mb8b7a147af" y="30.334099"/>
     <use style="fill:#000080;stroke:#000080;" x="151.779487" xlink:href="#mb8b7a147af" y="30.334099"/>
    </g>
   </g>
   <g id="line2d_39">
    <path d="M 45.512012 298.944 
L 45.512012 281.563359 
L 57.6 281.563359 
L 57.6 277.876557 
L 64.67102 277.876557 
L 64.67102 274.189754 
L 69.687988 274.189754 
L 69.687988 273.663068 
L 73.579452 273.663068 
L 73.579452 268.396207 
L 76.759008 268.396207 
L 76.759008 267.342835 
L 79.447285 267.342835 
L 79.447285 265.236091 
L 81.775977 265.236091 
L 81.775977 264.182719 
L 83.830028 264.182719 
L 83.830028 262.60266 
L 85.66744 262.60266 
L 85.66744 259.96923 
L 88.846997 259.96923 
L 88.846997 258.389172 
L 90.242884 258.389172 
L 90.242884 257.862486 
L 91.535274 257.862486 
L 91.535274 254.175683 
L 92.73846 254.175683 
L 92.73846 253.122311 
L 95.918017 253.122311 
L 95.918017 246.802078 
L 96.86091 246.802078 
L 96.86091 242.588589 
L 99.41757 242.588589 
L 99.41757 242.061903 
L 102.330873 242.061903 
L 102.330873 241.008531 
L 103.623262 241.008531 
L 103.623262 239.955159 
L 104.826449 239.955159 
L 104.826449 237.321729 
L 105.951954 237.321729 
L 105.951954 236.268356 
L 107.514726 236.268356 
L 107.514726 234.688298 
L 108.006005 234.688298 
L 108.006005 233.634926 
L 109.401893 233.634926 
L 109.401893 229.948123 
L 109.843417 229.948123 
L 109.843417 227.841379 
L 111.104637 227.841379 
L 111.104637 227.314693 
L 112.280765 227.314693 
L 112.280765 226.261321 
L 114.418861 226.261321 
L 114.418861 225.207949 
L 115.397021 225.207949 
L 115.397021 213.094169 
L 117.202696 213.094169 
L 117.202696 209.934052 
L 117.486268 209.934052 
L 117.486268 207.827308 
L 117.765302 207.827308 
L 117.765302 204.667192 
L 118.576578 204.667192 
L 118.576578 203.613819 
L 119.097192 203.613819 
L 119.097192 203.087133 
L 120.571812 203.087133 
L 120.571812 199.927017 
L 121.036887 199.927017 
L 121.036887 199.400331 
L 121.931406 199.400331 
L 121.931406 197.293586 
L 123.394238 197.293586 
L 123.394238 195.186842 
L 125.647598 195.186842 
L 125.647598 194.660156 
L 125.996395 194.660156 
L 125.996395 193.080098 
L 126.50685 193.080098 
L 126.50685 184.653121 
L 126.673734 184.653121 
L 126.673734 182.546376 
L 127.325746 182.546376 
L 127.325746 176.752829 
L 127.799239 176.752829 
L 127.799239 169.379224 
L 128.107907 169.379224 
L 128.107907 168.325852 
L 128.856489 168.325852 
L 128.856489 166.745794 
L 129.290685 166.745794 
L 129.290685 163.585677 
L 129.433047 163.585677 
L 129.433047 151.471897 
L 129.853291 151.471897 
L 129.853291 134.617943 
L 130.127931 134.617943 
L 130.127931 131.984513 
L 130.398313 131.984513 
L 130.398313 124.084221 
L 130.796184 124.084221 
L 130.796184 123.030849 
L 131.185181 123.030849 
L 131.185181 122.504163 
L 131.938072 122.504163 
L 131.938072 115.130558 
L 132.181982 115.130558 
L 132.181982 111.970441 
L 132.422528 111.970441 
L 132.422528 100.910034 
L 133.124876 100.910034 
L 133.124876 99.856662 
L 133.239232 99.856662 
L 133.239232 98.803289 
L 133.910056 98.803289 
L 134.019394 96.696545 
L 134.55603 96.696545 
L 134.55603 95.643173 
L 135.780341 95.643173 
L 135.780341 94.589801 
L 136.361705 94.589801 
L 136.361705 94.063115 
L 136.924311 94.063115 
L 136.924311 93.536429 
L 137.198951 93.536429 
L 137.198951 91.95637 
L 137.647286 91.95637 
L 137.735587 86.162824 
L 137.910857 86.162824 
L 137.910857 84.582765 
L 138.170504 84.582765 
L 138.170504 75.629102 
L 138.927025 75.629102 
L 138.927025 75.102416 
L 139.413734 75.102416 
L 139.413734 74.049044 
L 139.964909 74.049044 
L 139.964909 73.522358 
L 140.11924 73.522358 
L 140.11924 72.995672 
L 140.64889 72.995672 
L 140.64889 71.942299 
L 140.871049 71.942299 
L 140.871049 70.888927 
L 141.941279 70.888927 
L 141.941279 69.835555 
L 143.208936 69.835555 
L 143.208936 68.255497 
L 144.087359 68.255497 
L 144.087359 67.202125 
L 144.688773 67.202125 
L 144.688773 66.675439 
L 145.039911 66.675439 
L 145.039911 65.09538 
L 146.854132 65.09538 
L 146.854132 64.042008 
L 147.317833 64.042008 
L 147.317833 62.46195 
L 147.917524 62.46195 
L 147.96658 55.088345 
L 148.54473 55.088345 
L 148.54473 46.134681 
L 148.686322 46.134681 
L 148.686322 37.181018 
L 149.15016 37.181018 
L 149.15016 35.60096 
L 150.973835 35.60096 
L 150.973835 35.074274 
L 151.501723 35.074274 
L 151.541675 33.494215 
L 151.700576 33.494215 
L 151.779487 30.334099 
L 338.688 30.334099 
L 338.688 30.334099 
" style="fill:none;stroke:#000080;stroke-linecap:square;stroke-width:1.5;"/>
   </g>
   <g id="line2d_40">
    <g>
     <use style="fill-opacity:0;stroke:#000080;stroke-width:1.5;" x="92.73846" xlink:href="#m6fa603843b" y="253.122311"/>
     <use style="fill-opacity:0;stroke:#000080;stroke-width:1.5;" x="129.433047" xlink:href="#m6fa603843b" y="151.471897"/>
     <use style="fill-opacity:0;stroke:#000080;stroke-width:1.5;" x="151.779487" xlink:href="#m6fa603843b" y="32.440843"/>
     <use style="fill-opacity:0;stroke:#000080;stroke-width:1.5;" x="151.779487" xlink:href="#m6fa603843b" y="30.334099"/>
     <use style="fill-opacity:0;stroke:#000080;stroke-width:1.5;" x="151.779487" xlink:href="#m6fa603843b" y="30.334099"/>
     <use style="fill-opacity:0;stroke:#000080;stroke-width:1.5;" x="338.688" xlink:href="#m6fa603843b" y="30.334099"/>
    </g>
   </g>
   <g id="line2d_41">
    <path style="fill:none;stroke:#000080;stroke-linecap:square;stroke-width:1.5;"/>
    <g/>
   </g>
   <g id="line2d_42">
    <defs>
     <path d="M 0 1.5 
C 0.397805 1.5 0.77937 1.341951 1.06066 1.06066 
C 1.341951 0.77937 1.5 0.397805 1.5 0 
C 1.5 -0.397805 1.341951 -0.77937 1.06066 -1.06066 
C 0.77937 -1.341951 0.397805 -1.5 0 -1.5 
C -0.397805 -1.5 -0.77937 -1.341951 -1.06066 -1.06066 
C -1.341951 -0.77937 -1.5 -0.397805 -1.5 0 
C -1.5 0.397805 -1.341951 0.77937 -1.06066 1.06066 
C -0.77937 1.341951 -0.397805 1.5 0 1.5 
z
" id="m419029350a" style="stroke:#ff00ff;"/>
    </defs>
    <g>
     <use style="fill:#ff00ff;stroke:#ff00ff;" x="305.728872" xlink:href="#m419029350a" y="30.334099"/>
     <use style="fill:#ff00ff;stroke:#ff00ff;" x="305.728872" xlink:href="#m419029350a" y="30.334099"/>
    </g>
   </g>
   <g id="line2d_43">
    <path d="M 45.512012 298.944 
L 45.512012 280.509987 
L 64.67102 280.509987 
L 64.67102 278.929929 
L 69.687988 278.929929 
L 69.687988 277.349871 
L 73.579452 277.349871 
L 73.579452 276.296499 
L 76.759008 276.296499 
L 76.759008 275.769812 
L 81.775977 275.769812 
L 81.775977 272.609696 
L 87.329581 272.609696 
L 87.329581 272.08301 
L 90.242884 272.08301 
L 90.242884 270.502952 
L 91.535274 270.502952 
L 91.535274 265.762777 
L 93.863965 265.762777 
L 93.863965 261.549288 
L 95.918017 261.549288 
L 95.918017 259.96923 
L 97.755429 259.96923 
L 97.755429 259.442544 
L 101.646892 259.442544 
L 101.646892 258.915858 
L 105.951954 258.915858 
L 105.951954 257.862486 
L 108.948899 257.862486 
L 108.948899 256.282427 
L 110.694282 256.282427 
L 110.694282 253.122311 
L 114.080224 253.122311 
L 114.080224 252.068939 
L 115.711251 252.068939 
L 115.711251 251.015567 
L 116.019919 251.015567 
L 116.019919 250.488881 
L 116.621333 250.488881 
L 116.621333 249.962195 
L 119.602714 249.962195 
L 119.602714 248.908822 
L 119.850084 248.908822 
L 119.850084 245.748706 
L 125.647598 245.748706 
L 125.647598 245.22202 
L 126.839037 245.22202 
L 126.839037 244.695334 
L 127.954256 244.695334 
L 127.954256 243.641962 
L 128.411207 243.641962 
L 128.411207 242.588589 
L 128.560901 242.588589 
L 128.560901 242.061903 
L 129.002426 242.061903 
L 129.002426 240.481845 
L 129.290685 240.481845 
L 129.290685 239.955159 
L 129.574256 239.955159 
L 129.574256 238.901787 
L 132.893889 238.901787 
L 132.893889 237.848415 
L 133.239232 237.848415 
L 133.239232 235.74167 
L 133.800029 235.74167 
L 133.800029 235.214984 
L 135.076644 235.214984 
L 135.076644 233.634926 
L 135.780341 233.634926 
L 135.780341 232.581554 
L 136.645276 232.581554 
L 136.645276 232.054868 
L 136.924311 232.054868 
L 137.016339 230.47481 
L 140.79731 230.47481 
L 140.79731 227.314693 
L 141.307054 227.314693 
L 141.378673 225.734635 
L 142.884173 225.734635 
L 142.884173 224.681263 
L 144.148442 224.681263 
L 144.209312 222.047832 
L 146.216039 222.047832 
L 146.216039 221.521146 
L 146.538004 221.521146 
L 146.538004 220.99446 
L 147.061745 220.99446 
L 147.061745 220.467774 
L 147.266916 220.467774 
L 147.266916 219.414402 
L 147.620256 219.414402 
L 147.620256 217.307658 
L 147.818997 217.307658 
L 147.917524 213.094169 
L 149.15016 213.094169 
L 149.15016 212.040797 
L 150.215485 212.040797 
L 150.215485 203.087133 
L 151.340991 203.087133 
L 151.421542 201.507075 
L 152.885298 201.507075 
L 152.885298 193.080098 
L 154.132765 193.080098 
L 154.132765 192.026726 
L 154.405793 192.026726 
L 154.405793 191.50004 
L 155.86668 191.50004 
L 155.86668 189.919981 
L 159.658204 189.919981 
L 159.658204 189.393295 
L 159.783038 189.393295 
L 159.783038 186.759865 
L 160.86807 186.759865 
L 160.86807 185.706493 
L 170.499999 185.706493 
L 170.499999 180.439632 
L 172.373705 180.439632 
L 172.373705 170.959282 
L 175.955464 170.959282 
L 175.955464 160.952247 
L 176.838169 160.952247 
L 176.838169 159.898875 
L 194.783295 159.898875 
L 194.783295 157.79213 
L 195.209349 157.79213 
L 195.209349 157.265444 
L 196.164774 157.265444 
L 196.164774 156.738758 
L 205.058373 156.738758 
L 205.058373 155.685386 
L 205.506991 155.685386 
L 205.506991 154.632014 
L 205.767163 154.632014 
L 205.767163 153.578642 
L 220.10754 153.578642 
L 220.10754 146.731723 
L 224.614705 146.731723 
L 224.614705 143.571606 
L 225.350189 143.571606 
L 225.41092 115.657244 
L 225.651181 115.657244 
L 225.651181 112.497128 
L 226.601476 112.497128 
L 226.601476 111.970441 
L 230.530218 111.970441 
L 230.530218 111.443755 
L 230.836189 111.443755 
L 230.943305 109.337011 
L 231.08108 109.337011 
L 231.129399 107.756953 
L 231.216119 107.756953 
L 231.292935 105.650209 
L 231.391965 105.650209 
L 231.427986 103.016778 
L 231.528693 103.016778 
L 231.528693 102.490092 
L 231.640541 102.490092 
L 231.726371 99.856662 
L 231.772936 99.856662 
L 231.786562 98.276603 
L 231.916664 98.276603 
L 231.976203 97.223231 
L 233.04699 97.223231 
L 233.04699 96.696545 
L 234.298207 96.696545 
L 234.298207 96.169859 
L 234.496857 96.169859 
L 234.496857 95.643173 
L 238.276098 95.643173 
L 238.276098 95.116487 
L 238.434416 95.116487 
L 238.50977 93.009743 
L 238.607571 93.009743 
L 238.648161 90.376312 
L 240.102849 90.376312 
L 240.128938 89.32294 
L 240.282441 89.32294 
L 240.317843 87.216196 
L 240.438751 87.216196 
L 240.544044 83.529393 
L 240.578678 83.529393 
L 240.641956 80.369277 
L 240.731888 80.369277 
L 240.731888 79.842591 
L 242.66335 79.842591 
L 242.695525 78.789218 
L 242.986672 78.789218 
L 243.083559 76.682474 
L 243.158846 76.682474 
L 243.258727 74.57573 
L 243.302866 74.57573 
L 243.326857 72.995672 
L 243.519245 72.995672 
L 243.519245 72.468985 
L 246.695599 72.468985 
L 246.695599 71.942299 
L 246.935197 71.942299 
L 246.935197 70.888927 
L 247.40572 70.888927 
L 247.430239 69.835555 
L 248.256959 69.835555 
L 248.260853 68.782183 
L 248.374955 68.782183 
L 248.44907 65.09538 
L 248.542192 65.09538 
L 248.589025 62.988636 
L 248.834141 62.988636 
L 248.834141 62.46195 
L 250.068788 62.46195 
L 250.157024 61.408578 
L 250.186337 61.408578 
L 250.230075 60.355206 
L 250.383404 60.355206 
L 250.383404 59.82852 
L 250.525961 59.82852 
L 250.525961 59.301833 
L 253.81154 59.301833 
L 253.901601 56.668403 
L 253.93538 56.668403 
L 254.03163 55.088345 
L 254.061586 55.088345 
L 254.061586 54.561659 
L 255.11739 54.561659 
L 255.123066 53.508287 
L 256.012939 53.508287 
L 256.012939 52.9816 
L 257.300306 52.9816 
L 257.400743 51.928228 
L 258.059222 51.928228 
L 258.116139 50.874856 
L 259.766295 50.874856 
L 259.766295 50.34817 
L 261.503283 50.34817 
L 261.539615 48.768112 
L 264.300259 48.768112 
L 264.366441 46.661368 
L 264.557927 46.661368 
L 264.557927 46.134681 
L 264.737044 46.134681 
L 264.737044 45.607995 
L 266.650992 45.607995 
L 266.737156 44.554623 
L 268.80772 44.554623 
L 268.827558 43.501251 
L 268.945258 43.501251 
L 268.945258 42.974565 
L 270.566247 42.974565 
L 270.566247 42.447879 
L 272.240773 42.447879 
L 272.240773 41.921193 
L 272.438115 41.921193 
L 272.491296 40.867821 
L 273.328847 40.867821 
L 273.328847 40.341135 
L 273.853576 40.341135 
L 273.951913 38.761076 
L 273.976349 38.761076 
L 273.976349 38.23439 
L 277.940296 38.23439 
L 277.963285 37.181018 
L 279.11093 37.181018 
L 279.11093 36.654332 
L 280.099089 36.654332 
L 280.099089 36.127646 
L 281.259952 36.127646 
L 281.259952 35.60096 
L 282.511543 35.60096 
L 282.511543 35.074274 
L 283.067123 35.074274 
L 283.067123 34.547588 
L 283.951187 34.547588 
L 283.951187 34.020902 
L 284.547232 34.020902 
L 284.547232 33.494215 
L 284.729321 33.494215 
L 284.729321 32.967529 
L 285.407491 32.967529 
L 285.407491 32.440843 
L 287.506592 32.440843 
L 287.506592 31.914157 
L 296.041952 31.914157 
L 296.041952 31.387471 
L 296.43748 31.387471 
L 296.43748 30.860785 
L 305.728872 30.860785 
L 305.728872 30.334099 
L 338.688 30.334099 
L 338.688 30.334099 
" style="fill:none;stroke:#ff00ff;stroke-linecap:square;stroke-width:1.5;"/>
   </g>
   <g id="line2d_44">
    <defs>
     <path d="M -0 8.485281 
L 5.091169 0 
L 0 -8.485281 
L -5.091169 -0 
z
" id="mdd8e29f634" style="stroke:#ff00ff;stroke-linejoin:miter;stroke-width:1.5;"/>
    </defs>
    <g>
     <use style="fill-opacity:0;stroke:#ff00ff;stroke-linejoin:miter;stroke-width:1.5;" x="91.535274" xlink:href="#mdd8e29f634" y="265.762777"/>
     <use style="fill-opacity:0;stroke:#ff00ff;stroke-linejoin:miter;stroke-width:1.5;" x="170.499999" xlink:href="#mdd8e29f634" y="180.439632"/>
     <use style="fill-opacity:0;stroke:#ff00ff;stroke-linejoin:miter;stroke-width:1.5;" x="231.976203" xlink:href="#mdd8e29f634" y="97.749917"/>
     <use style="fill-opacity:0;stroke:#ff00ff;stroke-linejoin:miter;stroke-width:1.5;" x="277.963285" xlink:href="#mdd8e29f634" y="37.707704"/>
     <use style="fill-opacity:0;stroke:#ff00ff;stroke-linejoin:miter;stroke-width:1.5;" x="305.728872" xlink:href="#mdd8e29f634" y="30.334099"/>
     <use style="fill-opacity:0;stroke:#ff00ff;stroke-linejoin:miter;stroke-width:1.5;" x="338.688" xlink:href="#mdd8e29f634" y="30.334099"/>
    </g>
   </g>
   <g id="line2d_45">
    <path style="fill:none;stroke:#ff00ff;stroke-linecap:square;stroke-width:1.5;"/>
    <g/>
   </g>
   <g id="line2d_46">
    <path clip-path="url(#pcfbb8d04ad)" d="M 231.047679 109.337011 
" style="fill:none;stroke:#ff00ff;stroke-linecap:square;stroke-width:1.5;"/>
    <defs>
     <path d="M -12 12 
L 12 -12 
M -12 -12 
L 12 12 
" id="m8213eb3fec" style="stroke:#ff00ff;"/>
    </defs>
    <g clip-path="url(#pcfbb8d04ad)">
     <use style="fill:#ff00ff;stroke:#ff00ff;" x="231.047679" xlink:href="#m8213eb3fec" y="109.337011"/>
    </g>
   </g>
   <g id="line2d_47">
    <defs>
     <path d="M 0 1.5 
C 0.397805 1.5 0.77937 1.341951 1.06066 1.06066 
C 1.341951 0.77937 1.5 0.397805 1.5 0 
C 1.5 -0.397805 1.341951 -0.77937 1.06066 -1.06066 
C 0.77937 -1.341951 0.397805 -1.5 0 -1.5 
C -0.397805 -1.5 -0.77937 -1.341951 -1.06066 -1.06066 
C -1.341951 -0.77937 -1.5 -0.397805 -1.5 0 
C -1.5 0.397805 -1.341951 0.77937 -1.06066 1.06066 
C -0.77937 1.341951 -0.397805 1.5 0 1.5 
z
" id="m157754d843" style="stroke:#ff0000;"/>
    </defs>
    <g>
     <use style="fill:#ff0000;stroke:#ff0000;" x="166.099947" xlink:href="#m157754d843" y="30.334099"/>
     <use style="fill:#ff0000;stroke:#ff0000;" x="166.099947" xlink:href="#m157754d843" y="30.334099"/>
    </g>
   </g>
   <g id="line2d_48">
    <path d="M 45.512012 298.944 
L 45.512012 280.509987 
L 57.6 280.509987 
L 57.6 274.71644 
L 64.67102 274.71644 
L 64.67102 273.136382 
L 69.687988 273.136382 
L 69.687988 268.922893 
L 73.579452 268.922893 
L 73.579452 266.289463 
L 76.759008 266.289463 
L 76.759008 265.762777 
L 79.447285 265.762777 
L 79.447285 263.656033 
L 83.830028 263.656033 
L 83.830028 260.495916 
L 88.846997 260.495916 
L 88.846997 259.96923 
L 90.242884 259.96923 
L 90.242884 256.282427 
L 92.73846 256.282427 
L 92.73846 255.755741 
L 94.921215 255.755741 
L 94.921215 255.229055 
L 95.918017 255.229055 
L 95.918017 254.702369 
L 97.755429 254.702369 
L 97.755429 254.175683 
L 100.934985 254.175683 
L 100.934985 253.648997 
L 102.330873 253.648997 
L 102.330873 253.122311 
L 102.989037 253.122311 
L 102.989037 252.595625 
L 103.623262 252.595625 
L 103.623262 252.068939 
L 104.826449 252.068939 
L 104.826449 248.908822 
L 106.48859 248.908822 
L 106.48859 244.168648 
L 107.514726 244.168648 
L 107.514726 243.115275 
L 108.006005 243.115275 
L 108.006005 239.955159 
L 108.483824 239.955159 
L 108.483824 238.375101 
L 110.274038 238.375101 
L 110.274038 236.268356 
L 111.104637 236.268356 
L 111.104637 235.74167 
L 111.505558 235.74167 
L 111.505558 234.161612 
L 111.897469 234.161612 
L 111.897469 233.10824 
L 114.080224 233.10824 
L 114.080224 232.581554 
L 114.751048 232.581554 
L 114.751048 232.054868 
L 115.397021 232.054868 
L 115.397021 231.528182 
L 116.914437 231.528182 
L 116.914437 231.001496 
L 117.202696 231.001496 
L 117.202696 229.421437 
L 118.039942 229.421437 
L 118.039942 227.841379 
L 118.576578 227.841379 
L 118.576578 226.788007 
L 119.097192 226.788007 
L 119.097192 225.207949 
L 120.8059 225.207949 
L 120.8059 216.780971 
L 121.931406 216.780971 
L 121.931406 215.200913 
L 122.573415 215.200913 
L 122.573415 212.567483 
L 123.192626 212.567483 
L 123.192626 212.040797 
L 123.985457 212.040797 
L 123.985457 210.987425 
L 124.743806 210.987425 
L 124.743806 209.407366 
L 125.822869 209.407366 
L 125.822869 208.353994 
L 126.839037 208.353994 
L 126.839037 207.300622 
L 128.709321 207.300622 
L 128.709321 206.773936 
L 129.147151 206.773936 
L 129.147151 206.24725 
L 129.290685 206.24725 
L 129.290685 205.720564 
L 129.574256 205.720564 
L 129.574256 204.667192 
L 131.814826 204.667192 
L 131.814826 202.033761 
L 132.30267 202.033761 
L 132.30267 199.400331 
L 132.422528 199.400331 
L 132.422528 196.240214 
L 132.893889 196.240214 
L 132.893889 195.186842 
L 133.009765 195.186842 
L 133.009765 192.553412 
L 133.352844 192.553412 
L 133.352844 184.653121 
L 133.689303 184.653121 
L 133.689303 183.073062 
L 135.878591 183.073062 
L 135.878591 182.546376 
L 136.361705 182.546376 
L 136.361705 174.119399 
L 137.37967 174.119399 
L 137.37967 172.539341 
L 137.647286 172.539341 
L 137.647286 164.112363 
L 137.823442 164.112363 
L 137.823442 162.532305 
L 139.090775 162.532305 
L 139.090775 160.952247 
L 139.413734 160.952247 
L 139.413734 160.425561 
L 139.652088 160.425561 
L 139.652088 153.051956 
L 140.11924 153.051956 
L 140.11924 151.998584 
L 141.662245 151.998584 
L 141.662245 149.891839 
L 141.871938 149.891839 
L 141.871938 149.365153 
L 142.486301 149.365153 
L 142.553247 148.311781 
L 142.686372 148.311781 
L 142.686372 147.785095 
L 142.884173 147.785095 
L 142.884173 139.358118 
L 143.079756 139.358118 
L 143.079756 137.778059 
L 143.337167 137.778059 
L 143.337167 137.251373 
L 144.087359 137.251373 
L 144.087359 136.724687 
L 144.330419 136.724687 
L 144.330419 136.198001 
L 144.45069 136.198001 
L 144.45069 135.144629 
L 144.865226 135.144629 
L 144.865226 134.617943 
L 145.888018 134.617943 
L 145.943118 125.137593 
L 146.161795 125.137593 
L 146.161795 121.977477 
L 146.484754 121.977477 
L 146.484754 120.924105 
L 146.854132 120.924105 
L 146.854132 120.397419 
L 147.266916 120.397419 
L 147.266916 115.657244 
L 147.71991 115.657244 
L 147.71991 114.603872 
L 147.96658 114.603872 
L 147.96658 113.023814 
L 148.209809 113.023814 
L 148.209809 105.650209 
L 149.15016 105.650209 
L 149.15016 104.596836 
L 149.422654 104.596836 
L 149.422654 96.169859 
L 149.557321 96.169859 
L 149.557321 95.643173 
L 149.735275 95.643173 
L 149.735275 87.742882 
L 149.911431 87.742882 
L 149.911431 77.735846 
L 150.38688 77.735846 
L 150.38688 77.20916 
L 150.640855 77.20916 
L 150.640855 76.155788 
L 150.808139 76.155788 
L 150.808139 75.629102 
L 151.660987 75.629102 
L 151.660987 67.202125 
L 152.245598 67.202125 
L 152.245598 57.721775 
L 152.398241 57.721775 
L 152.398241 57.195089 
L 152.624728 57.195089 
L 152.624728 56.668403 
L 152.774102 56.668403 
L 152.774102 55.615031 
L 152.922207 55.615031 
L 152.922207 54.561659 
L 153.395042 54.561659 
L 153.502361 51.928228 
L 153.715038 51.928228 
L 153.715038 51.401542 
L 154.132765 51.401542 
L 154.167129 41.921193 
L 154.371897 41.921193 
L 154.371897 40.867821 
L 154.607795 40.867821 
L 154.607795 39.814448 
L 155.425155 39.814448 
L 155.425155 38.761076 
L 157.1279 38.761076 
L 157.1279 38.23439 
L 157.781772 38.23439 
L 157.781772 36.654332 
L 158.465753 36.654332 
L 158.465753 36.127646 
L 158.625992 36.127646 
L 158.625992 35.60096 
L 159.481921 35.60096 
L 159.507213 34.547588 
L 161.146363 34.547588 
L 161.146363 33.494215 
L 161.756743 33.494215 
L 161.756743 32.967529 
L 163.788565 32.967529 
L 163.788565 32.440843 
L 164.693955 32.440843 
L 164.693955 31.914157 
L 166.099947 31.914157 
L 166.099947 30.334099 
L 338.688 30.334099 
L 338.688 30.334099 
" style="fill:none;stroke:#ff0000;stroke-linecap:square;stroke-width:1.5;"/>
   </g>
   <g id="line2d_49">
    <defs>
     <path d="M 0 -6 
L -5.196152 -3 
L -5.196152 3 
L -0 6 
L 5.196152 3 
L 5.196152 -3 
z
" id="m3e9b08102d" style="stroke:#ff0000;stroke-linejoin:miter;stroke-width:1.5;"/>
    </defs>
    <g>
     <use style="fill-opacity:0;stroke:#ff0000;stroke-linejoin:miter;stroke-width:1.5;" x="118.576578" xlink:href="#m3e9b08102d" y="226.788007"/>
     <use style="fill-opacity:0;stroke:#ff0000;stroke-linejoin:miter;stroke-width:1.5;" x="147.266916" xlink:href="#m3e9b08102d" y="115.657244"/>
     <use style="fill-opacity:0;stroke:#ff0000;stroke-linejoin:miter;stroke-width:1.5;" x="166.099947" xlink:href="#m3e9b08102d" y="31.914157"/>
     <use style="fill-opacity:0;stroke:#ff0000;stroke-linejoin:miter;stroke-width:1.5;" x="166.099947" xlink:href="#m3e9b08102d" y="30.334099"/>
     <use style="fill-opacity:0;stroke:#ff0000;stroke-linejoin:miter;stroke-width:1.5;" x="166.099947" xlink:href="#m3e9b08102d" y="30.334099"/>
     <use style="fill-opacity:0;stroke:#ff0000;stroke-linejoin:miter;stroke-width:1.5;" x="338.688" xlink:href="#m3e9b08102d" y="30.334099"/>
    </g>
   </g>
   <g id="line2d_50">
    <path style="fill:none;stroke:#ff0000;stroke-linecap:square;stroke-width:1.5;"/>
    <g/>
   </g>
   <g id="line2d_51">
    <defs>
     <path d="M 0 1.5 
C 0.397805 1.5 0.77937 1.341951 1.06066 1.06066 
C 1.341951 0.77937 1.5 0.397805 1.5 0 
C 1.5 -0.397805 1.341951 -0.77937 1.06066 -1.06066 
C 0.77937 -1.341951 0.397805 -1.5 0 -1.5 
C -0.397805 -1.5 -0.77937 -1.341951 -1.06066 -1.06066 
C -1.341951 -0.77937 -1.5 -0.397805 -1.5 0 
C -1.5 0.397805 -1.341951 0.77937 -1.06066 1.06066 
C -0.77937 1.341951 -0.397805 1.5 0 1.5 
z
" id="m24f3203f39" style="stroke:#ff7500;"/>
    </defs>
    <g>
     <use style="fill:#ff7500;stroke:#ff7500;" x="162.410793" xlink:href="#m24f3203f39" y="30.334099"/>
     <use style="fill:#ff7500;stroke:#ff7500;" x="162.410793" xlink:href="#m24f3203f39" y="30.334099"/>
    </g>
   </g>
   <g id="line2d_52">
    <path d="M 45.512012 298.944 
L 45.512012 278.403243 
L 57.6 278.403243 
L 57.6 274.189754 
L 64.67102 274.189754 
L 64.67102 271.556324 
L 73.579452 271.556324 
L 73.579452 268.396207 
L 81.775977 268.396207 
L 81.775977 262.075974 
L 83.830028 262.075974 
L 83.830028 261.549288 
L 85.66744 261.549288 
L 85.66744 258.389172 
L 87.329581 258.389172 
L 87.329581 255.755741 
L 88.846997 255.755741 
L 88.846997 255.229055 
L 90.242884 255.229055 
L 90.242884 250.488881 
L 91.535274 250.488881 
L 91.535274 248.382136 
L 92.73846 248.382136 
L 92.73846 247.328764 
L 94.921215 247.328764 
L 94.921215 244.695334 
L 96.86091 244.695334 
L 96.86091 244.168648 
L 101.646892 244.168648 
L 101.646892 243.115275 
L 103.623262 243.115275 
L 103.623262 242.588589 
L 104.826449 242.588589 
L 104.826449 238.375101 
L 107.009204 238.375101 
L 107.009204 234.688298 
L 111.104637 234.688298 
L 111.104637 233.634926 
L 111.505558 233.634926 
L 111.505558 233.10824 
L 113.022974 233.10824 
L 113.022974 231.528182 
L 113.382559 231.528182 
L 113.382559 228.894751 
L 114.751048 228.894751 
L 114.751048 226.788007 
L 115.077025 226.788007 
L 115.077025 225.207949 
L 115.397021 225.207949 
L 115.397021 218.36103 
L 116.621333 218.36103 
L 116.621333 217.307658 
L 116.914437 217.307658 
L 116.914437 216.780971 
L 117.486268 216.780971 
L 117.486268 215.727599 
L 119.351785 215.727599 
L 119.351785 214.147541 
L 121.036887 214.147541 
L 121.036887 210.987425 
L 122.573415 210.987425 
L 122.573415 210.460738 
L 123.394238 210.460738 
L 123.394238 209.407366 
L 123.790603 209.407366 
L 123.790603 208.88068 
L 124.368753 208.88068 
L 124.368753 205.720564 
L 124.743806 205.720564 
L 124.743806 203.613819 
L 125.996395 203.613819 
L 125.996395 203.087133 
L 126.168212 203.087133 
L 126.168212 196.240214 
L 127.165014 196.240214 
L 127.165014 195.186842 
L 127.325746 195.186842 
L 127.325746 188.339923 
L 128.411207 188.339923 
L 128.411207 187.286551 
L 128.709321 187.286551 
L 128.709321 185.706493 
L 128.856489 185.706493 
L 128.856489 169.90591 
L 129.853291 169.90591 
L 129.853291 162.532305 
L 130.263646 162.532305 
L 130.263646 162.005619 
L 131.185181 162.005619 
L 131.185181 158.845503 
L 131.814826 158.845503 
L 131.814826 157.79213 
L 133.689303 157.79213 
L 133.689303 156.738758 
L 134.019394 156.738758 
L 134.019394 155.685386 
L 134.870259 155.685386 
L 134.870259 155.1587 
L 135.178927 155.1587 
L 135.178927 148.311781 
L 135.582166 148.311781 
L 135.681535 140.41149 
L 135.780341 140.41149 
L 135.780341 138.831432 
L 136.361705 138.831432 
L 136.361705 131.457826 
L 137.016339 131.457826 
L 137.016339 130.404454 
L 137.469333 130.404454 
L 137.469333 128.824396 
L 137.910857 128.824396 
L 137.910857 127.771024 
L 139.572998 127.771024 
L 139.572998 115.130558 
L 140.272217 115.130558 
L 140.272217 111.443755 
L 140.574203 111.443755 
L 140.64889 108.810325 
L 141.017599 108.810325 
L 141.017599 107.756953 
L 141.591783 107.756953 
L 141.662245 106.703581 
L 141.80232 106.703581 
L 141.80232 104.07015 
L 142.07914 104.07015 
L 142.07914 103.543464 
L 143.273169 103.543464 
L 143.273169 94.589801 
L 143.840863 94.589801 
L 143.840863 93.009743 
L 145.384119 93.009743 
L 145.384119 85.636137 
L 145.553708 85.636137 
L 145.609873 72.995672 
L 145.888018 72.995672 
L 145.888018 72.468985 
L 146.377764 72.468985 
L 146.377764 71.942299 
L 147.368603 71.942299 
L 147.368603 62.988636 
L 148.449693 62.988636 
L 148.449693 60.881892 
L 148.592055 60.881892 
L 148.592055 59.82852 
L 148.826773 59.82852 
L 148.826773 59.301833 
L 148.966103 59.301833 
L 148.966103 58.248461 
L 149.15016 58.248461 
L 149.15016 57.195089 
L 149.422654 57.195089 
L 149.422654 56.141717 
L 149.998846 56.141717 
L 149.998846 55.088345 
L 150.215485 55.088345 
L 150.301393 44.554623 
L 150.808139 44.554623 
L 150.808139 37.707704 
L 151.300575 37.707704 
L 151.300575 37.181018 
L 152.283884 37.181018 
L 152.360205 35.60096 
L 152.662192 35.60096 
L 152.699575 33.494215 
L 154.405793 33.494215 
L 154.405793 31.914157 
L 155.135299 31.914157 
L 155.135299 31.387471 
L 161.622937 31.387471 
L 161.622937 30.860785 
L 162.410793 30.860785 
L 162.410793 30.334099 
L 338.688 30.334099 
L 338.688 30.334099 
" style="fill:none;stroke:#ff7500;stroke-linecap:square;stroke-width:1.5;"/>
   </g>
   <g id="line2d_53">
    <defs>
     <path d="M 0 -6 
L -1.347084 -1.854102 
L -5.706339 -1.854102 
L -2.179628 0.708204 
L -3.526712 4.854102 
L -0 2.291796 
L 3.526712 4.854102 
L 2.179628 0.708204 
L 5.706339 -1.854102 
L 1.347084 -1.854102 
z
" id="meaa4d9e486" style="stroke:#ff7500;stroke-linejoin:bevel;stroke-width:1.5;"/>
    </defs>
    <g>
     <use style="fill-opacity:0;stroke:#ff7500;stroke-linejoin:bevel;stroke-width:1.5;" x="92.73846" xlink:href="#meaa4d9e486" y="248.382136"/>
     <use style="fill-opacity:0;stroke:#ff7500;stroke-linejoin:bevel;stroke-width:1.5;" x="129.853291" xlink:href="#meaa4d9e486" y="169.90591"/>
     <use style="fill-opacity:0;stroke:#ff7500;stroke-linejoin:bevel;stroke-width:1.5;" x="162.410793" xlink:href="#meaa4d9e486" y="30.860785"/>
     <use style="fill-opacity:0;stroke:#ff7500;stroke-linejoin:bevel;stroke-width:1.5;" x="162.410793" xlink:href="#meaa4d9e486" y="30.334099"/>
     <use style="fill-opacity:0;stroke:#ff7500;stroke-linejoin:bevel;stroke-width:1.5;" x="162.410793" xlink:href="#meaa4d9e486" y="30.334099"/>
     <use style="fill-opacity:0;stroke:#ff7500;stroke-linejoin:bevel;stroke-width:1.5;" x="338.688" xlink:href="#meaa4d9e486" y="30.334099"/>
    </g>
   </g>
   <g id="line2d_54">
    <path style="fill:none;stroke:#ff7500;stroke-linecap:square;stroke-width:1.5;"/>
    <g/>
   </g>
   <g id="line2d_55">
    <path d="M 338.688 30.334099 
L 369.60768 293.571802 
" style="fill:none;stroke:#ff00ff;stroke-linecap:square;stroke-width:1.5;"/>
    <g>
     <use style="fill-opacity:0;stroke:#ff00ff;stroke-linejoin:miter;stroke-width:1.5;" x="338.688" xlink:href="#mdd8e29f634" y="30.334099"/>
     <use style="fill-opacity:0;stroke:#ff00ff;stroke-linejoin:miter;stroke-width:1.5;" x="369.60768" xlink:href="#mdd8e29f634" y="293.571802"/>
    </g>
   </g>
   <g id="line2d_56">
    <path d="M 338.688 30.334099 
L 369.60768 241.998701 
" style="fill:none;stroke:#ff0000;stroke-linecap:square;stroke-width:1.5;"/>
    <g>
     <use style="fill-opacity:0;stroke:#ff0000;stroke-linejoin:miter;stroke-width:1.5;" x="338.688" xlink:href="#m3e9b08102d" y="30.334099"/>
     <use style="fill-opacity:0;stroke:#ff0000;stroke-linejoin:miter;stroke-width:1.5;" x="369.60768" xlink:href="#m3e9b08102d" y="241.998701"/>
    </g>
   </g>
   <g id="line2d_57">
    <path d="M 338.688 30.334099 
L 369.60768 190.4256 
" style="fill:none;stroke:#ff7500;stroke-linecap:square;stroke-width:1.5;"/>
    <g>
     <use style="fill-opacity:0;stroke:#ff7500;stroke-linejoin:bevel;stroke-width:1.5;" x="338.688" xlink:href="#meaa4d9e486" y="30.334099"/>
     <use style="fill-opacity:0;stroke:#ff7500;stroke-linejoin:bevel;stroke-width:1.5;" x="369.60768" xlink:href="#meaa4d9e486" y="190.4256"/>
    </g>
   </g>
   <g id="line2d_58">
    <path d="M 338.688 30.334099 
L 369.60768 138.852499 
" style="fill:none;stroke:#000080;stroke-linecap:square;stroke-width:1.5;"/>
    <g>
     <use style="fill-opacity:0;stroke:#000080;stroke-width:1.5;" x="338.688" xlink:href="#m6fa603843b" y="30.334099"/>
     <use style="fill-opacity:0;stroke:#000080;stroke-width:1.5;" x="369.60768" xlink:href="#m6fa603843b" y="138.852499"/>
    </g>
   </g>
   <g id="line2d_59">
    <path d="M 338.688 30.334099 
L 369.60768 87.279398 
" style="fill:none;stroke:#000080;stroke-linecap:square;stroke-width:1.5;"/>
    <g>
     <use style="fill-opacity:0;stroke:#000080;stroke-width:1.5;" x="338.688" xlink:href="#m6fa603843b" y="30.334099"/>
     <use style="fill-opacity:0;stroke:#000080;stroke-width:1.5;" x="369.60768" xlink:href="#m6fa603843b" y="87.279398"/>
    </g>
   </g>
   <g id="line2d_60">
    <path d="M 338.688 298.944 
L 338.688 30.334099 
" style="fill:none;stroke:#000000;stroke-linecap:square;stroke-width:1.5;"/>
   </g>
   <g id="patch_3">
    <path d="M 57.6 298.944 
L 57.6 27.648 
" style="fill:none;stroke:#000000;stroke-linecap:square;stroke-linejoin:miter;stroke-width:0.8;"/>
   </g>
   <g id="patch_4">
    <path d="M 338.688 298.944 
L 338.688 27.648 
" style="fill:none;stroke:#000000;stroke-linecap:square;stroke-linejoin:miter;stroke-width:0.8;"/>
   </g>
   <g id="patch_5">
    <path d="M 57.6 298.944 
L 338.688 298.944 
" style="fill:none;stroke:#000000;stroke-linecap:square;stroke-linejoin:miter;stroke-width:0.8;"/>
   </g>
   <g id="patch_6">
    <path d="M 57.6 27.648 
L 338.688 27.648 
" style="fill:none;stroke:#000000;stroke-linecap:square;stroke-linejoin:miter;stroke-width:0.8;"/>
   </g>
   <g id="text_13">
    <!-- 400s-2e4 -->
    <g transform="translate(375.22944 298.262739)scale(0.17 -0.17)">
     <use xlink:href="#DejaVuSans-52"/>
     <use x="63.623047" xlink:href="#DejaVuSans-48"/>
     <use x="127.246094" xlink:href="#DejaVuSans-48"/>
     <use x="190.869141" xlink:href="#DejaVuSans-115"/>
     <use x="242.96875" xlink:href="#DejaVuSans-45"/>
     <use x="279.052734" xlink:href="#DejaVuSans-50"/>
     <use x="342.675781" xlink:href="#DejaVuSans-101"/>
     <use x="404.199219" xlink:href="#DejaVuSans-52"/>
    </g>
   </g>
   <g id="text_14">
    <!-- 200s-2e4 -->
    <g transform="translate(375.22944 246.689638)scale(0.17 -0.17)">
     <use xlink:href="#DejaVuSans-50"/>
     <use x="63.623047" xlink:href="#DejaVuSans-48"/>
     <use x="127.246094" xlink:href="#DejaVuSans-48"/>
     <use x="190.869141" xlink:href="#DejaVuSans-115"/>
     <use x="242.96875" xlink:href="#DejaVuSans-45"/>
     <use x="279.052734" xlink:href="#DejaVuSans-50"/>
     <use x="342.675781" xlink:href="#DejaVuSans-101"/>
     <use x="404.199219" xlink:href="#DejaVuSans-52"/>
    </g>
   </g>
   <g id="text_15">
    <!-- 140s-2e4 -->
    <g transform="translate(375.22944 195.116537)scale(0.17 -0.17)">
     <use xlink:href="#DejaVuSans-49"/>
     <use x="63.623047" xlink:href="#DejaVuSans-52"/>
     <use x="127.246094" xlink:href="#DejaVuSans-48"/>
     <use x="190.869141" xlink:href="#DejaVuSans-115"/>
     <use x="242.96875" xlink:href="#DejaVuSans-45"/>
     <use x="279.052734" xlink:href="#DejaVuSans-50"/>
     <use x="342.675781" xlink:href="#DejaVuSans-101"/>
     <use x="404.199219" xlink:href="#DejaVuSans-52"/>
    </g>
   </g>
   <g id="text_16">
    <!-- 100-2e4 -->
    <g transform="translate(375.22944 143.543437)scale(0.17 -0.17)">
     <use xlink:href="#DejaVuSans-49"/>
     <use x="63.623047" xlink:href="#DejaVuSans-48"/>
     <use x="127.246094" xlink:href="#DejaVuSans-48"/>
     <use x="190.869141" xlink:href="#DejaVuSans-45"/>
     <use x="226.953125" xlink:href="#DejaVuSans-50"/>
     <use x="290.576172" xlink:href="#DejaVuSans-101"/>
     <use x="352.099609" xlink:href="#DejaVuSans-52"/>
    </g>
   </g>
   <g id="text_17">
    <!-- 100-1e5 -->
    <defs>
     <path d="M 10.796875 72.90625 
L 49.515625 72.90625 
L 49.515625 64.59375 
L 19.828125 64.59375 
L 19.828125 46.734375 
Q 21.96875 47.46875 24.109375 47.828125 
Q 26.265625 48.1875 28.421875 48.1875 
Q 40.625 48.1875 47.75 41.5 
Q 54.890625 34.8125 54.890625 23.390625 
Q 54.890625 11.625 47.5625 5.09375 
Q 40.234375 -1.421875 26.90625 -1.421875 
Q 22.3125 -1.421875 17.546875 -0.640625 
Q 12.796875 0.140625 7.71875 1.703125 
L 7.71875 11.625 
Q 12.109375 9.234375 16.796875 8.0625 
Q 21.484375 6.890625 26.703125 6.890625 
Q 35.15625 6.890625 40.078125 11.328125 
Q 45.015625 15.765625 45.015625 23.390625 
Q 45.015625 31 40.078125 35.4375 
Q 35.15625 39.890625 26.703125 39.890625 
Q 22.75 39.890625 18.8125 39.015625 
Q 14.890625 38.140625 10.796875 36.28125 
z
" id="DejaVuSans-53"/>
    </defs>
    <g transform="translate(375.22944 91.970336)scale(0.17 -0.17)">
     <use xlink:href="#DejaVuSans-49"/>
     <use x="63.623047" xlink:href="#DejaVuSans-48"/>
     <use x="127.246094" xlink:href="#DejaVuSans-48"/>
     <use x="190.869141" xlink:href="#DejaVuSans-45"/>
     <use x="226.953125" xlink:href="#DejaVuSans-49"/>
     <use x="290.576172" xlink:href="#DejaVuSans-101"/>
     <use x="352.099609" xlink:href="#DejaVuSans-53"/>
    </g>
   </g>
   <g id="text_18">
    <!-- best 2009 -->
    <defs>
     <path d="M 48.6875 27.296875 
Q 48.6875 37.203125 44.609375 42.84375 
Q 40.53125 48.484375 33.40625 48.484375 
Q 26.265625 48.484375 22.1875 42.84375 
Q 18.109375 37.203125 18.109375 27.296875 
Q 18.109375 17.390625 22.1875 11.75 
Q 26.265625 6.109375 33.40625 6.109375 
Q 40.53125 6.109375 44.609375 11.75 
Q 48.6875 17.390625 48.6875 27.296875 
z
M 18.109375 46.390625 
Q 20.953125 51.265625 25.265625 53.625 
Q 29.59375 56 35.59375 56 
Q 45.5625 56 51.78125 48.09375 
Q 58.015625 40.1875 58.015625 27.296875 
Q 58.015625 14.40625 51.78125 6.484375 
Q 45.5625 -1.421875 35.59375 -1.421875 
Q 29.59375 -1.421875 25.265625 0.953125 
Q 20.953125 3.328125 18.109375 8.203125 
L 18.109375 0 
L 9.078125 0 
L 9.078125 75.984375 
L 18.109375 75.984375 
z
" id="DejaVuSans-98"/>
     <path d="M 10.984375 1.515625 
L 10.984375 10.5 
Q 14.703125 8.734375 18.5 7.8125 
Q 22.3125 6.890625 25.984375 6.890625 
Q 35.75 6.890625 40.890625 13.453125 
Q 46.046875 20.015625 46.78125 33.40625 
Q 43.953125 29.203125 39.59375 26.953125 
Q 35.25 24.703125 29.984375 24.703125 
Q 19.046875 24.703125 12.671875 31.3125 
Q 6.296875 37.9375 6.296875 49.421875 
Q 6.296875 60.640625 12.9375 67.421875 
Q 19.578125 74.21875 30.609375 74.21875 
Q 43.265625 74.21875 49.921875 64.515625 
Q 56.59375 54.828125 56.59375 36.375 
Q 56.59375 19.140625 48.40625 8.859375 
Q 40.234375 -1.421875 26.421875 -1.421875 
Q 22.703125 -1.421875 18.890625 -0.6875 
Q 15.09375 0.046875 10.984375 1.515625 
z
M 30.609375 32.421875 
Q 37.25 32.421875 41.125 36.953125 
Q 45.015625 41.5 45.015625 49.421875 
Q 45.015625 57.28125 41.125 61.84375 
Q 37.25 66.40625 30.609375 66.40625 
Q 23.96875 66.40625 20.09375 61.84375 
Q 16.21875 57.28125 16.21875 49.421875 
Q 16.21875 41.5 20.09375 36.953125 
Q 23.96875 32.421875 30.609375 32.421875 
z
" id="DejaVuSans-57"/>
    </defs>
    <g transform="translate(375.22944 40.397235)scale(0.17 -0.17)">
     <use xlink:href="#DejaVuSans-98"/>
     <use x="63.476562" xlink:href="#DejaVuSans-101"/>
     <use x="125" xlink:href="#DejaVuSans-115"/>
     <use x="177.099609" xlink:href="#DejaVuSans-116"/>
     <use x="216.308594" xlink:href="#DejaVuSans-32"/>
     <use x="248.095703" xlink:href="#DejaVuSans-50"/>
     <use x="311.71875" xlink:href="#DejaVuSans-48"/>
     <use x="375.341797" xlink:href="#DejaVuSans-48"/>
     <use x="438.964844" xlink:href="#DejaVuSans-57"/>
    </g>
   </g>
   <g id="text_19">
    <!-- bbob f7, 2-D -->
    <defs>
     <path d="M 8.203125 72.90625 
L 55.078125 72.90625 
L 55.078125 68.703125 
L 28.609375 0 
L 18.3125 0 
L 43.21875 64.59375 
L 8.203125 64.59375 
z
" id="DejaVuSans-55"/>
     <path d="M 19.671875 64.796875 
L 19.671875 8.109375 
L 31.59375 8.109375 
Q 46.6875 8.109375 53.6875 14.9375 
Q 60.6875 21.78125 60.6875 36.53125 
Q 60.6875 51.171875 53.6875 57.984375 
Q 46.6875 64.796875 31.59375 64.796875 
z
M 9.8125 72.90625 
L 30.078125 72.90625 
Q 51.265625 72.90625 61.171875 64.09375 
Q 71.09375 55.28125 71.09375 36.53125 
Q 71.09375 17.671875 61.125 8.828125 
Q 51.171875 0 30.078125 0 
L 9.8125 0 
z
" id="DejaVuSans-68"/>
    </defs>
    <g transform="translate(60.41088 38.111366)scale(0.102 -0.102)">
     <use xlink:href="#DejaVuSans-98"/>
     <use x="63.476562" xlink:href="#DejaVuSans-98"/>
     <use x="126.953125" xlink:href="#DejaVuSans-111"/>
     <use x="188.134766" xlink:href="#DejaVuSans-98"/>
     <use x="251.611328" xlink:href="#DejaVuSans-32"/>
     <use x="283.398438" xlink:href="#DejaVuSans-102"/>
     <use x="318.603516" xlink:href="#DejaVuSans-55"/>
     <use x="382.226562" xlink:href="#DejaVuSans-44"/>
     <use x="414.013672" xlink:href="#DejaVuSans-32"/>
     <use x="445.800781" xlink:href="#DejaVuSans-50"/>
     <use x="509.423828" xlink:href="#DejaVuSans-45"/>
     <use x="545.507812" xlink:href="#DejaVuSans-68"/>
    </g>
    <!-- 51 targets: 100..1e-08 -->
    <defs>
     <path d="M 11.71875 12.40625 
L 22.015625 12.40625 
L 22.015625 0 
L 11.71875 0 
z
M 11.71875 51.703125 
L 22.015625 51.703125 
L 22.015625 39.3125 
L 11.71875 39.3125 
z
" id="DejaVuSans-58"/>
    </defs>
    <g transform="translate(60.41088 49.533135)scale(0.102 -0.102)">
     <use xlink:href="#DejaVuSans-53"/>
     <use x="63.623047" xlink:href="#DejaVuSans-49"/>
     <use x="127.246094" xlink:href="#DejaVuSans-32"/>
     <use x="159.033203" xlink:href="#DejaVuSans-116"/>
     <use x="198.242188" xlink:href="#DejaVuSans-97"/>
     <use x="259.521484" xlink:href="#DejaVuSans-114"/>
     <use x="300.619141" xlink:href="#DejaVuSans-103"/>
     <use x="364.095703" xlink:href="#DejaVuSans-101"/>
     <use x="425.619141" xlink:href="#DejaVuSans-116"/>
     <use x="464.828125" xlink:href="#DejaVuSans-115"/>
     <use x="516.927734" xlink:href="#DejaVuSans-58"/>
     <use x="550.619141" xlink:href="#DejaVuSans-32"/>
     <use x="582.40625" xlink:href="#DejaVuSans-49"/>
     <use x="646.029297" xlink:href="#DejaVuSans-48"/>
     <use x="709.652344" xlink:href="#DejaVuSans-48"/>
     <use x="773.275391" xlink:href="#DejaVuSans-46"/>
     <use x="805.0625" xlink:href="#DejaVuSans-46"/>
     <use x="836.849609" xlink:href="#DejaVuSans-49"/>
     <use x="900.472656" xlink:href="#DejaVuSans-101"/>
     <use x="961.996094" xlink:href="#DejaVuSans-45"/>
     <use x="998.080078" xlink:href="#DejaVuSans-48"/>
     <use x="1061.703125" xlink:href="#DejaVuSans-56"/>
    </g>
    <!-- 15 instances -->
    <g transform="translate(60.41088 60.954904)scale(0.102 -0.102)">
     <use xlink:href="#DejaVuSans-49"/>
     <use x="63.623047" xlink:href="#DejaVuSans-53"/>
     <use x="127.246094" xlink:href="#DejaVuSans-32"/>
     <use x="159.033203" xlink:href="#DejaVuSans-105"/>
     <use x="186.816406" xlink:href="#DejaVuSans-110"/>
     <use x="250.195312" xlink:href="#DejaVuSans-115"/>
     <use x="302.294922" xlink:href="#DejaVuSans-116"/>
     <use x="341.503906" xlink:href="#DejaVuSans-97"/>
     <use x="402.783203" xlink:href="#DejaVuSans-110"/>
     <use x="466.162109" xlink:href="#DejaVuSans-99"/>
     <use x="521.142578" xlink:href="#DejaVuSans-101"/>
     <use x="582.666016" xlink:href="#DejaVuSans-115"/>
    </g>
   </g>
   <g id="text_20">
    <!-- v2.3.3.18.73 -->
    <defs>
     <path d="M 40.578125 39.3125 
Q 47.65625 37.796875 51.625 33 
Q 55.609375 28.21875 55.609375 21.1875 
Q 55.609375 10.40625 48.1875 4.484375 
Q 40.765625 -1.421875 27.09375 -1.421875 
Q 22.515625 -1.421875 17.65625 -0.515625 
Q 12.796875 0.390625 7.625 2.203125 
L 7.625 11.71875 
Q 11.71875 9.328125 16.59375 8.109375 
Q 21.484375 6.890625 26.8125 6.890625 
Q 36.078125 6.890625 40.9375 10.546875 
Q 45.796875 14.203125 45.796875 21.1875 
Q 45.796875 27.640625 41.28125 31.265625 
Q 36.765625 34.90625 28.71875 34.90625 
L 20.21875 34.90625 
L 20.21875 43.015625 
L 29.109375 43.015625 
Q 36.375 43.015625 40.234375 45.921875 
Q 44.09375 48.828125 44.09375 54.296875 
Q 44.09375 59.90625 40.109375 62.90625 
Q 36.140625 65.921875 28.71875 65.921875 
Q 24.65625 65.921875 20.015625 65.03125 
Q 15.375 64.15625 9.8125 62.3125 
L 9.8125 71.09375 
Q 15.4375 72.65625 20.34375 73.4375 
Q 25.25 74.21875 29.59375 74.21875 
Q 40.828125 74.21875 47.359375 69.109375 
Q 53.90625 64.015625 53.90625 55.328125 
Q 53.90625 49.265625 50.4375 45.09375 
Q 46.96875 40.921875 40.578125 39.3125 
z
" id="DejaVuSans-51"/>
    </defs>
    <g style="fill:#808080;" transform="translate(166.559625 294.151352)scale(0.1 -0.1)">
     <use xlink:href="#DejaVuSans-118"/>
     <use x="59.179688" xlink:href="#DejaVuSans-50"/>
     <use x="122.802734" xlink:href="#DejaVuSans-46"/>
     <use x="154.589844" xlink:href="#DejaVuSans-51"/>
     <use x="218.212891" xlink:href="#DejaVuSans-46"/>
     <use x="250" xlink:href="#DejaVuSans-51"/>
     <use x="313.623047" xlink:href="#DejaVuSans-46"/>
     <use x="345.410156" xlink:href="#DejaVuSans-49"/>
     <use x="409.033203" xlink:href="#DejaVuSans-56"/>
     <use x="472.65625" xlink:href="#DejaVuSans-46"/>
     <use x="504.443359" xlink:href="#DejaVuSans-55"/>
     <use x="568.066406" xlink:href="#DejaVuSans-51"/>
    </g>
   </g>
   <g id="text_21">
    <!-- 7 Step-ellipsoid -->
    <defs>
     <path d="M 53.515625 70.515625 
L 53.515625 60.890625 
Q 47.90625 63.578125 42.921875 64.890625 
Q 37.9375 66.21875 33.296875 66.21875 
Q 25.25 66.21875 20.875 63.09375 
Q 16.5 59.96875 16.5 54.203125 
Q 16.5 49.359375 19.40625 46.890625 
Q 22.3125 44.4375 30.421875 42.921875 
L 36.375 41.703125 
Q 47.40625 39.59375 52.65625 34.296875 
Q 57.90625 29 57.90625 20.125 
Q 57.90625 9.515625 50.796875 4.046875 
Q 43.703125 -1.421875 29.984375 -1.421875 
Q 24.8125 -1.421875 18.96875 -0.25 
Q 13.140625 0.921875 6.890625 3.21875 
L 6.890625 13.375 
Q 12.890625 10.015625 18.65625 8.296875 
Q 24.421875 6.59375 29.984375 6.59375 
Q 38.421875 6.59375 43.015625 9.90625 
Q 47.609375 13.234375 47.609375 19.390625 
Q 47.609375 24.75 44.3125 27.78125 
Q 41.015625 30.8125 33.5 32.328125 
L 27.484375 33.5 
Q 16.453125 35.6875 11.515625 40.375 
Q 6.59375 45.0625 6.59375 53.421875 
Q 6.59375 63.09375 13.40625 68.65625 
Q 20.21875 74.21875 32.171875 74.21875 
Q 37.3125 74.21875 42.625 73.28125 
Q 47.953125 72.359375 53.515625 70.515625 
z
" id="DejaVuSans-83"/>
    </defs>
    <g transform="translate(120.934625 21.648)scale(0.2 -0.2)">
     <use xlink:href="#DejaVuSans-55"/>
     <use x="63.623047" xlink:href="#DejaVuSans-32"/>
     <use x="95.410156" xlink:href="#DejaVuSans-83"/>
     <use x="158.886719" xlink:href="#DejaVuSans-116"/>
     <use x="198.095703" xlink:href="#DejaVuSans-101"/>
     <use x="259.619141" xlink:href="#DejaVuSans-112"/>
     <use x="323.095703" xlink:href="#DejaVuSans-45"/>
     <use x="359.179688" xlink:href="#DejaVuSans-101"/>
     <use x="420.703125" xlink:href="#DejaVuSans-108"/>
     <use x="448.486328" xlink:href="#DejaVuSans-108"/>
     <use x="476.269531" xlink:href="#DejaVuSans-105"/>
     <use x="504.052734" xlink:href="#DejaVuSans-112"/>
     <use x="567.529297" xlink:href="#DejaVuSans-115"/>
     <use x="619.628906" xlink:href="#DejaVuSans-111"/>
     <use x="680.810547" xlink:href="#DejaVuSans-105"/>
     <use x="708.59375" xlink:href="#DejaVuSans-100"/>
    </g>
   </g>
  </g>
 </g>
 <defs>
  <clipPath id="pcfbb8d04ad">
   <rect height="271.296" width="281.088" x="57.6" y="27.648"/>
  </clipPath>
 </defs>
</svg>
