<?xml version="1.0" encoding="utf-8" standalone="no"?>
<!DOCTYPE svg PUBLIC "-//W3C//DTD SVG 1.1//EN"
  "http://www.w3.org/Graphics/SVG/1.1/DTD/svg11.dtd">
<!-- Created with matplotlib (https://matplotlib.org/) -->
<svg height="345.6pt" version="1.1" viewBox="0 0 460.8 345.6" width="460.8pt" xmlns="http://www.w3.org/2000/svg" xmlns:xlink="http://www.w3.org/1999/xlink">
 <defs>
  <style type="text/css">
*{stroke-linecap:butt;stroke-linejoin:round;}
  </style>
 </defs>
 <g id="figure_1">
  <g id="patch_1">
   <path d="M 0 345.6 
L 460.8 345.6 
L 460.8 0 
L 0 0 
z
" style="fill:#ffffff;"/>
  </g>
  <g id="axes_1">
   <g id="patch_2">
    <path d="M 57.6 298.944 
L 338.688 298.944 
L 338.688 27.648 
L 57.6 27.648 
z
" style="fill:#ffffff;"/>
   </g>
   <g id="line2d_1">
    <path d="M 119.199476 298.944 
L 119.199476 293.677139 
L 121.84399 293.677139 
L 121.84399 288.410278 
L 124.444412 288.410278 
L 124.444412 283.143418 
L 128.827155 283.143418 
L 128.827155 277.876557 
L 129.79784 277.876557 
L 129.79784 272.609696 
L 131.640805 272.609696 
L 131.640805 267.342835 
L 134.492498 267.342835 
L 134.492498 262.075974 
L 135.482227 262.075974 
L 135.482227 256.809114 
L 136.79465 256.809114 
L 136.79465 251.542253 
L 137.52291 251.542253 
L 137.52291 246.275392 
L 137.910857 246.275392 
L 137.910857 241.008531 
L 138.358484 241.008531 
L 138.358484 235.74167 
L 138.628343 235.74167 
L 138.628343 230.47481 
L 139.541262 230.47481 
L 139.541262 225.207949 
L 140.165274 225.207949 
L 140.165274 219.941088 
L 140.317849 219.941088 
L 140.317849 214.674227 
L 140.408758 214.674227 
L 140.408758 209.407366 
L 140.589166 209.407366 
L 140.589166 204.140506 
L 140.678675 204.140506 
L 140.678675 198.873645 
L 141.061324 198.873645 
L 141.061324 193.606784 
L 141.292695 193.606784 
L 141.292695 188.339923 
L 141.407239 188.339923 
L 141.407239 183.073062 
L 141.521035 183.073062 
L 141.521035 177.806202 
L 141.605898 177.806202 
L 141.605898 172.539341 
L 141.69035 172.539341 
L 141.69035 167.27248 
L 141.830201 167.27248 
L 141.830201 162.005619 
L 141.941279 162.005619 
L 141.941279 156.738758 
L 142.024126 156.738758 
L 142.024126 151.471897 
L 142.133981 151.471897 
L 142.133981 146.205037 
L 142.297475 146.205037 
L 142.297475 140.938176 
L 142.378651 140.938176 
L 142.378651 135.671315 
L 142.51311 135.671315 
L 142.51311 130.404454 
L 142.619936 130.404454 
L 142.619936 125.137593 
L 144.050606 125.137593 
L 144.050606 119.870733 
L 144.099593 119.870733 
L 144.099593 114.603872 
L 146.728368 114.603872 
L 146.728368 109.337011 
L 146.854132 109.337011 
L 146.854132 104.07015 
L 146.937474 104.07015 
L 146.937474 98.803289 
L 147.041095 98.803289 
L 147.041095 93.536429 
L 147.12355 93.536429 
L 147.12355 88.269568 
L 147.226074 88.269568 
L 147.226074 83.002707 
L 147.327999 83.002707 
L 147.327999 77.735846 
L 147.449528 77.735846 
L 147.449528 72.468985 
L 147.590249 72.468985 
L 147.590249 67.202125 
L 147.690073 67.202125 
L 147.690073 61.935264 
L 147.769524 61.935264 
L 147.769524 56.668403 
L 147.86833 56.668403 
L 147.86833 51.401542 
L 147.946974 51.401542 
L 147.946974 46.134681 
L 148.064279 46.134681 
L 148.064279 40.867821 
L 148.103206 40.867821 
L 148.103206 35.60096 
L 148.200145 35.60096 
L 148.200145 30.334099 
L 338.688 30.334099 
" style="fill:none;stroke:#f5deb3;stroke-linecap:square;stroke-width:4;"/>
   </g>
   <g id="line2d_2">
    <defs>
     <path d="M -0 7.778175 
L 7.778175 0 
L 0 -7.778175 
L -7.778175 -0 
z
" id="mc3f2c9abc5" style="stroke:#f5deb3;stroke-linejoin:miter;stroke-width:1.5;"/>
    </defs>
    <g>
     <use style="fill:#f5deb3;stroke:#f5deb3;stroke-linejoin:miter;stroke-width:1.5;" x="141.292695" xlink:href="#mc3f2c9abc5" y="193.606784"/>
     <use style="fill:#f5deb3;stroke:#f5deb3;stroke-linejoin:miter;stroke-width:1.5;" x="147.769524" xlink:href="#mc3f2c9abc5" y="56.668403"/>
     <use style="fill:#f5deb3;stroke:#f5deb3;stroke-linejoin:miter;stroke-width:1.5;" x="148.200145" xlink:href="#mc3f2c9abc5" y="30.334099"/>
     <use style="fill:#f5deb3;stroke:#f5deb3;stroke-linejoin:miter;stroke-width:1.5;" x="148.200145" xlink:href="#mc3f2c9abc5" y="30.334099"/>
     <use style="fill:#f5deb3;stroke:#f5deb3;stroke-linejoin:miter;stroke-width:1.5;" x="338.688" xlink:href="#mc3f2c9abc5" y="30.334099"/>
    </g>
   </g>
   <g id="line2d_3">
    <path style="fill:none;stroke:#f5deb3;stroke-linecap:square;stroke-width:4;"/>
    <g/>
   </g>
   <g id="line2d_4">
    <path d="M 338.688 30.334099 
L 369.60768 35.706297 
" style="fill:none;stroke:#f5deb3;stroke-linecap:square;stroke-width:4;"/>
    <g>
     <use style="fill:#f5deb3;stroke:#f5deb3;stroke-linejoin:miter;stroke-width:1.5;" x="338.688" xlink:href="#mc3f2c9abc5" y="30.334099"/>
     <use style="fill:#f5deb3;stroke:#f5deb3;stroke-linejoin:miter;stroke-width:1.5;" x="369.60768" xlink:href="#mc3f2c9abc5" y="35.706297"/>
    </g>
   </g>
   <g id="matplotlib.axis_1">
    <g id="xtick_1">
     <g id="line2d_5">
      <path clip-path="url(#p109d833c04)" d="M 57.6 298.944 
L 57.6 27.648 
" style="fill:none;stroke:#b0b0b0;stroke-linecap:square;stroke-width:0.8;"/>
     </g>
     <g id="line2d_6">
      <defs>
       <path d="M 0 0 
L 0 3.5 
" id="mf045afb1a9" style="stroke:#000000;stroke-width:0.8;"/>
      </defs>
      <g>
       <use style="stroke:#000000;stroke-width:0.8;" x="57.6" xlink:href="#mf045afb1a9" y="298.944"/>
      </g>
     </g>
     <g id="text_1">
      <!-- 0 -->
      <defs>
       <path d="M 31.78125 66.40625 
Q 24.171875 66.40625 20.328125 58.90625 
Q 16.5 51.421875 16.5 36.375 
Q 16.5 21.390625 20.328125 13.890625 
Q 24.171875 6.390625 31.78125 6.390625 
Q 39.453125 6.390625 43.28125 13.890625 
Q 47.125 21.390625 47.125 36.375 
Q 47.125 51.421875 43.28125 58.90625 
Q 39.453125 66.40625 31.78125 66.40625 
z
M 31.78125 74.21875 
Q 44.046875 74.21875 50.515625 64.515625 
Q 56.984375 54.828125 56.984375 36.375 
Q 56.984375 17.96875 50.515625 8.265625 
Q 44.046875 -1.421875 31.78125 -1.421875 
Q 19.53125 -1.421875 13.0625 8.265625 
Q 6.59375 17.96875 6.59375 36.375 
Q 6.59375 54.828125 13.0625 64.515625 
Q 19.53125 74.21875 31.78125 74.21875 
z
" id="DejaVuSans-48"/>
      </defs>
      <g transform="translate(51.2375 321.140875)scale(0.2 -0.2)">
       <use xlink:href="#DejaVuSans-48"/>
      </g>
     </g>
    </g>
    <g id="xtick_2">
     <g id="line2d_7">
      <path clip-path="url(#p109d833c04)" d="M 137.910857 298.944 
L 137.910857 27.648 
" style="fill:none;stroke:#b0b0b0;stroke-linecap:square;stroke-width:0.8;"/>
     </g>
     <g id="line2d_8">
      <g>
       <use style="stroke:#000000;stroke-width:0.8;" x="137.910857" xlink:href="#mf045afb1a9" y="298.944"/>
      </g>
     </g>
     <g id="text_2">
      <!-- 2 -->
      <defs>
       <path d="M 19.1875 8.296875 
L 53.609375 8.296875 
L 53.609375 0 
L 7.328125 0 
L 7.328125 8.296875 
Q 12.9375 14.109375 22.625 23.890625 
Q 32.328125 33.6875 34.8125 36.53125 
Q 39.546875 41.84375 41.421875 45.53125 
Q 43.3125 49.21875 43.3125 52.78125 
Q 43.3125 58.59375 39.234375 62.25 
Q 35.15625 65.921875 28.609375 65.921875 
Q 23.96875 65.921875 18.8125 64.3125 
Q 13.671875 62.703125 7.8125 59.421875 
L 7.8125 69.390625 
Q 13.765625 71.78125 18.9375 73 
Q 24.125 74.21875 28.421875 74.21875 
Q 39.75 74.21875 46.484375 68.546875 
Q 53.21875 62.890625 53.21875 53.421875 
Q 53.21875 48.921875 51.53125 44.890625 
Q 49.859375 40.875 45.40625 35.40625 
Q 44.1875 33.984375 37.640625 27.21875 
Q 31.109375 20.453125 19.1875 8.296875 
z
" id="DejaVuSans-50"/>
      </defs>
      <g transform="translate(131.548357 321.140875)scale(0.2 -0.2)">
       <use xlink:href="#DejaVuSans-50"/>
      </g>
     </g>
    </g>
    <g id="xtick_3">
     <g id="line2d_9">
      <path clip-path="url(#p109d833c04)" d="M 218.221714 298.944 
L 218.221714 27.648 
" style="fill:none;stroke:#b0b0b0;stroke-linecap:square;stroke-width:0.8;"/>
     </g>
     <g id="line2d_10">
      <g>
       <use style="stroke:#000000;stroke-width:0.8;" x="218.221714" xlink:href="#mf045afb1a9" y="298.944"/>
      </g>
     </g>
     <g id="text_3">
      <!-- 4 -->
      <defs>
       <path d="M 37.796875 64.3125 
L 12.890625 25.390625 
L 37.796875 25.390625 
z
M 35.203125 72.90625 
L 47.609375 72.90625 
L 47.609375 25.390625 
L 58.015625 25.390625 
L 58.015625 17.1875 
L 47.609375 17.1875 
L 47.609375 0 
L 37.796875 0 
L 37.796875 17.1875 
L 4.890625 17.1875 
L 4.890625 26.703125 
z
" id="DejaVuSans-52"/>
      </defs>
      <g transform="translate(211.859214 321.140875)scale(0.2 -0.2)">
       <use xlink:href="#DejaVuSans-52"/>
      </g>
     </g>
    </g>
    <g id="xtick_4">
     <g id="line2d_11">
      <path clip-path="url(#p109d833c04)" d="M 298.532571 298.944 
L 298.532571 27.648 
" style="fill:none;stroke:#b0b0b0;stroke-linecap:square;stroke-width:0.8;"/>
     </g>
     <g id="line2d_12">
      <g>
       <use style="stroke:#000000;stroke-width:0.8;" x="298.532571" xlink:href="#mf045afb1a9" y="298.944"/>
      </g>
     </g>
     <g id="text_4">
      <!-- 6 -->
      <defs>
       <path d="M 33.015625 40.375 
Q 26.375 40.375 22.484375 35.828125 
Q 18.609375 31.296875 18.609375 23.390625 
Q 18.609375 15.53125 22.484375 10.953125 
Q 26.375 6.390625 33.015625 6.390625 
Q 39.65625 6.390625 43.53125 10.953125 
Q 47.40625 15.53125 47.40625 23.390625 
Q 47.40625 31.296875 43.53125 35.828125 
Q 39.65625 40.375 33.015625 40.375 
z
M 52.59375 71.296875 
L 52.59375 62.3125 
Q 48.875 64.0625 45.09375 64.984375 
Q 41.3125 65.921875 37.59375 65.921875 
Q 27.828125 65.921875 22.671875 59.328125 
Q 17.53125 52.734375 16.796875 39.40625 
Q 19.671875 43.65625 24.015625 45.921875 
Q 28.375 48.1875 33.59375 48.1875 
Q 44.578125 48.1875 50.953125 41.515625 
Q 57.328125 34.859375 57.328125 23.390625 
Q 57.328125 12.15625 50.6875 5.359375 
Q 44.046875 -1.421875 33.015625 -1.421875 
Q 20.359375 -1.421875 13.671875 8.265625 
Q 6.984375 17.96875 6.984375 36.375 
Q 6.984375 53.65625 15.1875 63.9375 
Q 23.390625 74.21875 37.203125 74.21875 
Q 40.921875 74.21875 44.703125 73.484375 
Q 48.484375 72.75 52.59375 71.296875 
z
" id="DejaVuSans-54"/>
      </defs>
      <g transform="translate(292.170071 321.140875)scale(0.2 -0.2)">
       <use xlink:href="#DejaVuSans-54"/>
      </g>
     </g>
    </g>
    <g id="xtick_5">
     <g id="line2d_13">
      <path clip-path="url(#p109d833c04)" d="M 97.755429 298.944 
L 97.755429 27.648 
" style="fill:none;stroke:#b0b0b0;stroke-linecap:square;stroke-width:0.8;"/>
     </g>
     <g id="line2d_14">
      <defs>
       <path d="M 0 0 
L 0 2 
" id="m1c574a6a6c" style="stroke:#000000;stroke-width:0.6;"/>
      </defs>
      <g>
       <use style="stroke:#000000;stroke-width:0.6;" x="97.755429" xlink:href="#m1c574a6a6c" y="298.944"/>
      </g>
     </g>
    </g>
    <g id="xtick_6">
     <g id="line2d_15">
      <path clip-path="url(#p109d833c04)" d="M 178.066286 298.944 
L 178.066286 27.648 
" style="fill:none;stroke:#b0b0b0;stroke-linecap:square;stroke-width:0.8;"/>
     </g>
     <g id="line2d_16">
      <g>
       <use style="stroke:#000000;stroke-width:0.6;" x="178.066286" xlink:href="#m1c574a6a6c" y="298.944"/>
      </g>
     </g>
    </g>
    <g id="xtick_7">
     <g id="line2d_17">
      <path clip-path="url(#p109d833c04)" d="M 258.377143 298.944 
L 258.377143 27.648 
" style="fill:none;stroke:#b0b0b0;stroke-linecap:square;stroke-width:0.8;"/>
     </g>
     <g id="line2d_18">
      <g>
       <use style="stroke:#000000;stroke-width:0.6;" x="258.377143" xlink:href="#m1c574a6a6c" y="298.944"/>
      </g>
     </g>
    </g>
    <g id="xtick_8">
     <g id="line2d_19">
      <path clip-path="url(#p109d833c04)" d="M 338.688 298.944 
L 338.688 27.648 
" style="fill:none;stroke:#b0b0b0;stroke-linecap:square;stroke-width:0.8;"/>
     </g>
     <g id="line2d_20">
      <g>
       <use style="stroke:#000000;stroke-width:0.6;" x="338.688" xlink:href="#m1c574a6a6c" y="298.944"/>
      </g>
     </g>
    </g>
    <g id="text_5">
     <!-- log10(# f-evals / dimension) -->
     <defs>
      <path d="M 9.421875 75.984375 
L 18.40625 75.984375 
L 18.40625 0 
L 9.421875 0 
z
" id="DejaVuSans-108"/>
      <path d="M 30.609375 48.390625 
Q 23.390625 48.390625 19.1875 42.75 
Q 14.984375 37.109375 14.984375 27.296875 
Q 14.984375 17.484375 19.15625 11.84375 
Q 23.34375 6.203125 30.609375 6.203125 
Q 37.796875 6.203125 41.984375 11.859375 
Q 46.1875 17.53125 46.1875 27.296875 
Q 46.1875 37.015625 41.984375 42.703125 
Q 37.796875 48.390625 30.609375 48.390625 
z
M 30.609375 56 
Q 42.328125 56 49.015625 48.375 
Q 55.71875 40.765625 55.71875 27.296875 
Q 55.71875 13.875 49.015625 6.21875 
Q 42.328125 -1.421875 30.609375 -1.421875 
Q 18.84375 -1.421875 12.171875 6.21875 
Q 5.515625 13.875 5.515625 27.296875 
Q 5.515625 40.765625 12.171875 48.375 
Q 18.84375 56 30.609375 56 
z
" id="DejaVuSans-111"/>
      <path d="M 45.40625 27.984375 
Q 45.40625 37.75 41.375 43.109375 
Q 37.359375 48.484375 30.078125 48.484375 
Q 22.859375 48.484375 18.828125 43.109375 
Q 14.796875 37.75 14.796875 27.984375 
Q 14.796875 18.265625 18.828125 12.890625 
Q 22.859375 7.515625 30.078125 7.515625 
Q 37.359375 7.515625 41.375 12.890625 
Q 45.40625 18.265625 45.40625 27.984375 
z
M 54.390625 6.78125 
Q 54.390625 -7.171875 48.1875 -13.984375 
Q 42 -20.796875 29.203125 -20.796875 
Q 24.46875 -20.796875 20.265625 -20.09375 
Q 16.0625 -19.390625 12.109375 -17.921875 
L 12.109375 -9.1875 
Q 16.0625 -11.328125 19.921875 -12.34375 
Q 23.78125 -13.375 27.78125 -13.375 
Q 36.625 -13.375 41.015625 -8.765625 
Q 45.40625 -4.15625 45.40625 5.171875 
L 45.40625 9.625 
Q 42.625 4.78125 38.28125 2.390625 
Q 33.9375 0 27.875 0 
Q 17.828125 0 11.671875 7.65625 
Q 5.515625 15.328125 5.515625 27.984375 
Q 5.515625 40.671875 11.671875 48.328125 
Q 17.828125 56 27.875 56 
Q 33.9375 56 38.28125 53.609375 
Q 42.625 51.21875 45.40625 46.390625 
L 45.40625 54.6875 
L 54.390625 54.6875 
z
" id="DejaVuSans-103"/>
      <path d="M 12.40625 8.296875 
L 28.515625 8.296875 
L 28.515625 63.921875 
L 10.984375 60.40625 
L 10.984375 69.390625 
L 28.421875 72.90625 
L 38.28125 72.90625 
L 38.28125 8.296875 
L 54.390625 8.296875 
L 54.390625 0 
L 12.40625 0 
z
" id="DejaVuSans-49"/>
      <path d="M 31 75.875 
Q 24.46875 64.65625 21.28125 53.65625 
Q 18.109375 42.671875 18.109375 31.390625 
Q 18.109375 20.125 21.3125 9.0625 
Q 24.515625 -2 31 -13.1875 
L 23.1875 -13.1875 
Q 15.875 -1.703125 12.234375 9.375 
Q 8.59375 20.453125 8.59375 31.390625 
Q 8.59375 42.28125 12.203125 53.3125 
Q 15.828125 64.359375 23.1875 75.875 
z
" id="DejaVuSans-40"/>
      <path d="M 51.125 44 
L 36.921875 44 
L 32.8125 27.6875 
L 47.125 27.6875 
z
M 43.796875 71.78125 
L 38.71875 51.515625 
L 52.984375 51.515625 
L 58.109375 71.78125 
L 65.921875 71.78125 
L 60.890625 51.515625 
L 76.125 51.515625 
L 76.125 44 
L 58.984375 44 
L 54.984375 27.6875 
L 70.515625 27.6875 
L 70.515625 20.21875 
L 53.078125 20.21875 
L 48 0 
L 40.1875 0 
L 45.21875 20.21875 
L 30.90625 20.21875 
L 25.875 0 
L 18.015625 0 
L 23.09375 20.21875 
L 7.71875 20.21875 
L 7.71875 27.6875 
L 24.90625 27.6875 
L 29 44 
L 13.28125 44 
L 13.28125 51.515625 
L 30.90625 51.515625 
L 35.890625 71.78125 
z
" id="DejaVuSans-35"/>
      <path id="DejaVuSans-32"/>
      <path d="M 37.109375 75.984375 
L 37.109375 68.5 
L 28.515625 68.5 
Q 23.6875 68.5 21.796875 66.546875 
Q 19.921875 64.59375 19.921875 59.515625 
L 19.921875 54.6875 
L 34.71875 54.6875 
L 34.71875 47.703125 
L 19.921875 47.703125 
L 19.921875 0 
L 10.890625 0 
L 10.890625 47.703125 
L 2.296875 47.703125 
L 2.296875 54.6875 
L 10.890625 54.6875 
L 10.890625 58.5 
Q 10.890625 67.625 15.140625 71.796875 
Q 19.390625 75.984375 28.609375 75.984375 
z
" id="DejaVuSans-102"/>
      <path d="M 4.890625 31.390625 
L 31.203125 31.390625 
L 31.203125 23.390625 
L 4.890625 23.390625 
z
" id="DejaVuSans-45"/>
      <path d="M 56.203125 29.59375 
L 56.203125 25.203125 
L 14.890625 25.203125 
Q 15.484375 15.921875 20.484375 11.0625 
Q 25.484375 6.203125 34.421875 6.203125 
Q 39.59375 6.203125 44.453125 7.46875 
Q 49.3125 8.734375 54.109375 11.28125 
L 54.109375 2.78125 
Q 49.265625 0.734375 44.1875 -0.34375 
Q 39.109375 -1.421875 33.890625 -1.421875 
Q 20.796875 -1.421875 13.15625 6.1875 
Q 5.515625 13.8125 5.515625 26.8125 
Q 5.515625 40.234375 12.765625 48.109375 
Q 20.015625 56 32.328125 56 
Q 43.359375 56 49.78125 48.890625 
Q 56.203125 41.796875 56.203125 29.59375 
z
M 47.21875 32.234375 
Q 47.125 39.59375 43.09375 43.984375 
Q 39.0625 48.390625 32.421875 48.390625 
Q 24.90625 48.390625 20.390625 44.140625 
Q 15.875 39.890625 15.1875 32.171875 
z
" id="DejaVuSans-101"/>
      <path d="M 2.984375 54.6875 
L 12.5 54.6875 
L 29.59375 8.796875 
L 46.6875 54.6875 
L 56.203125 54.6875 
L 35.6875 0 
L 23.484375 0 
z
" id="DejaVuSans-118"/>
      <path d="M 34.28125 27.484375 
Q 23.390625 27.484375 19.1875 25 
Q 14.984375 22.515625 14.984375 16.5 
Q 14.984375 11.71875 18.140625 8.90625 
Q 21.296875 6.109375 26.703125 6.109375 
Q 34.1875 6.109375 38.703125 11.40625 
Q 43.21875 16.703125 43.21875 25.484375 
L 43.21875 27.484375 
z
M 52.203125 31.203125 
L 52.203125 0 
L 43.21875 0 
L 43.21875 8.296875 
Q 40.140625 3.328125 35.546875 0.953125 
Q 30.953125 -1.421875 24.3125 -1.421875 
Q 15.921875 -1.421875 10.953125 3.296875 
Q 6 8.015625 6 15.921875 
Q 6 25.140625 12.171875 29.828125 
Q 18.359375 34.515625 30.609375 34.515625 
L 43.21875 34.515625 
L 43.21875 35.40625 
Q 43.21875 41.609375 39.140625 45 
Q 35.0625 48.390625 27.6875 48.390625 
Q 23 48.390625 18.546875 47.265625 
Q 14.109375 46.140625 10.015625 43.890625 
L 10.015625 52.203125 
Q 14.9375 54.109375 19.578125 55.046875 
Q 24.21875 56 28.609375 56 
Q 40.484375 56 46.34375 49.84375 
Q 52.203125 43.703125 52.203125 31.203125 
z
" id="DejaVuSans-97"/>
      <path d="M 44.28125 53.078125 
L 44.28125 44.578125 
Q 40.484375 46.53125 36.375 47.5 
Q 32.28125 48.484375 27.875 48.484375 
Q 21.1875 48.484375 17.84375 46.4375 
Q 14.5 44.390625 14.5 40.28125 
Q 14.5 37.15625 16.890625 35.375 
Q 19.28125 33.59375 26.515625 31.984375 
L 29.59375 31.296875 
Q 39.15625 29.25 43.1875 25.515625 
Q 47.21875 21.78125 47.21875 15.09375 
Q 47.21875 7.46875 41.1875 3.015625 
Q 35.15625 -1.421875 24.609375 -1.421875 
Q 20.21875 -1.421875 15.453125 -0.5625 
Q 10.6875 0.296875 5.421875 2 
L 5.421875 11.28125 
Q 10.40625 8.6875 15.234375 7.390625 
Q 20.0625 6.109375 24.8125 6.109375 
Q 31.15625 6.109375 34.5625 8.28125 
Q 37.984375 10.453125 37.984375 14.40625 
Q 37.984375 18.0625 35.515625 20.015625 
Q 33.0625 21.96875 24.703125 23.78125 
L 21.578125 24.515625 
Q 13.234375 26.265625 9.515625 29.90625 
Q 5.8125 33.546875 5.8125 39.890625 
Q 5.8125 47.609375 11.28125 51.796875 
Q 16.75 56 26.8125 56 
Q 31.78125 56 36.171875 55.265625 
Q 40.578125 54.546875 44.28125 53.078125 
z
" id="DejaVuSans-115"/>
      <path d="M 25.390625 72.90625 
L 33.6875 72.90625 
L 8.296875 -9.28125 
L 0 -9.28125 
z
" id="DejaVuSans-47"/>
      <path d="M 45.40625 46.390625 
L 45.40625 75.984375 
L 54.390625 75.984375 
L 54.390625 0 
L 45.40625 0 
L 45.40625 8.203125 
Q 42.578125 3.328125 38.25 0.953125 
Q 33.9375 -1.421875 27.875 -1.421875 
Q 17.96875 -1.421875 11.734375 6.484375 
Q 5.515625 14.40625 5.515625 27.296875 
Q 5.515625 40.1875 11.734375 48.09375 
Q 17.96875 56 27.875 56 
Q 33.9375 56 38.25 53.625 
Q 42.578125 51.265625 45.40625 46.390625 
z
M 14.796875 27.296875 
Q 14.796875 17.390625 18.875 11.75 
Q 22.953125 6.109375 30.078125 6.109375 
Q 37.203125 6.109375 41.296875 11.75 
Q 45.40625 17.390625 45.40625 27.296875 
Q 45.40625 37.203125 41.296875 42.84375 
Q 37.203125 48.484375 30.078125 48.484375 
Q 22.953125 48.484375 18.875 42.84375 
Q 14.796875 37.203125 14.796875 27.296875 
z
" id="DejaVuSans-100"/>
      <path d="M 9.421875 54.6875 
L 18.40625 54.6875 
L 18.40625 0 
L 9.421875 0 
z
M 9.421875 75.984375 
L 18.40625 75.984375 
L 18.40625 64.59375 
L 9.421875 64.59375 
z
" id="DejaVuSans-105"/>
      <path d="M 52 44.1875 
Q 55.375 50.25 60.0625 53.125 
Q 64.75 56 71.09375 56 
Q 79.640625 56 84.28125 50.015625 
Q 88.921875 44.046875 88.921875 33.015625 
L 88.921875 0 
L 79.890625 0 
L 79.890625 32.71875 
Q 79.890625 40.578125 77.09375 44.375 
Q 74.3125 48.1875 68.609375 48.1875 
Q 61.625 48.1875 57.5625 43.546875 
Q 53.515625 38.921875 53.515625 30.90625 
L 53.515625 0 
L 44.484375 0 
L 44.484375 32.71875 
Q 44.484375 40.625 41.703125 44.40625 
Q 38.921875 48.1875 33.109375 48.1875 
Q 26.21875 48.1875 22.15625 43.53125 
Q 18.109375 38.875 18.109375 30.90625 
L 18.109375 0 
L 9.078125 0 
L 9.078125 54.6875 
L 18.109375 54.6875 
L 18.109375 46.1875 
Q 21.1875 51.21875 25.484375 53.609375 
Q 29.78125 56 35.6875 56 
Q 41.65625 56 45.828125 52.96875 
Q 50 49.953125 52 44.1875 
z
" id="DejaVuSans-109"/>
      <path d="M 54.890625 33.015625 
L 54.890625 0 
L 45.90625 0 
L 45.90625 32.71875 
Q 45.90625 40.484375 42.875 44.328125 
Q 39.84375 48.1875 33.796875 48.1875 
Q 26.515625 48.1875 22.3125 43.546875 
Q 18.109375 38.921875 18.109375 30.90625 
L 18.109375 0 
L 9.078125 0 
L 9.078125 54.6875 
L 18.109375 54.6875 
L 18.109375 46.1875 
Q 21.34375 51.125 25.703125 53.5625 
Q 30.078125 56 35.796875 56 
Q 45.21875 56 50.046875 50.171875 
Q 54.890625 44.34375 54.890625 33.015625 
z
" id="DejaVuSans-110"/>
      <path d="M 8.015625 75.875 
L 15.828125 75.875 
Q 23.140625 64.359375 26.78125 53.3125 
Q 30.421875 42.28125 30.421875 31.390625 
Q 30.421875 20.453125 26.78125 9.375 
Q 23.140625 -1.703125 15.828125 -13.1875 
L 8.015625 -13.1875 
Q 14.5 -2 17.703125 9.0625 
Q 20.90625 20.125 20.90625 31.390625 
Q 20.90625 42.671875 17.703125 53.65625 
Q 14.5 64.65625 8.015625 75.875 
z
" id="DejaVuSans-41"/>
     </defs>
     <g transform="translate(77.303219 342.217594)scale(0.17 -0.17)">
      <use xlink:href="#DejaVuSans-108"/>
      <use x="27.783203" xlink:href="#DejaVuSans-111"/>
      <use x="88.964844" xlink:href="#DejaVuSans-103"/>
      <use x="152.441406" xlink:href="#DejaVuSans-49"/>
      <use x="216.064453" xlink:href="#DejaVuSans-48"/>
      <use x="279.6875" xlink:href="#DejaVuSans-40"/>
      <use x="318.701172" xlink:href="#DejaVuSans-35"/>
      <use x="402.490234" xlink:href="#DejaVuSans-32"/>
      <use x="434.277344" xlink:href="#DejaVuSans-102"/>
      <use x="469.404297" xlink:href="#DejaVuSans-45"/>
      <use x="505.488281" xlink:href="#DejaVuSans-101"/>
      <use x="567.011719" xlink:href="#DejaVuSans-118"/>
      <use x="626.191406" xlink:href="#DejaVuSans-97"/>
      <use x="687.470703" xlink:href="#DejaVuSans-108"/>
      <use x="715.253906" xlink:href="#DejaVuSans-115"/>
      <use x="767.353516" xlink:href="#DejaVuSans-32"/>
      <use x="799.140625" xlink:href="#DejaVuSans-47"/>
      <use x="832.832031" xlink:href="#DejaVuSans-32"/>
      <use x="864.619141" xlink:href="#DejaVuSans-100"/>
      <use x="928.095703" xlink:href="#DejaVuSans-105"/>
      <use x="955.878906" xlink:href="#DejaVuSans-109"/>
      <use x="1053.291016" xlink:href="#DejaVuSans-101"/>
      <use x="1114.814453" xlink:href="#DejaVuSans-110"/>
      <use x="1178.193359" xlink:href="#DejaVuSans-115"/>
      <use x="1230.292969" xlink:href="#DejaVuSans-105"/>
      <use x="1258.076172" xlink:href="#DejaVuSans-111"/>
      <use x="1319.257812" xlink:href="#DejaVuSans-110"/>
      <use x="1382.636719" xlink:href="#DejaVuSans-41"/>
     </g>
    </g>
   </g>
   <g id="matplotlib.axis_2">
    <g id="ytick_1">
     <g id="line2d_21">
      <path clip-path="url(#p109d833c04)" d="M 57.6 298.944 
L 338.688 298.944 
" style="fill:none;stroke:#b0b0b0;stroke-linecap:square;stroke-width:0.8;"/>
     </g>
     <g id="line2d_22">
      <defs>
       <path d="M 0 0 
L -3.5 0 
" id="mad4a0abf23" style="stroke:#000000;stroke-width:0.8;"/>
      </defs>
      <g>
       <use style="stroke:#000000;stroke-width:0.8;" x="57.6" xlink:href="#mad4a0abf23" y="298.944"/>
      </g>
     </g>
     <g id="text_6">
      <!-- 0.0 -->
      <defs>
       <path d="M 10.6875 12.40625 
L 21 12.40625 
L 21 0 
L 10.6875 0 
z
" id="DejaVuSans-46"/>
      </defs>
      <g transform="translate(25.155 305.02275)scale(0.16 -0.16)">
       <use xlink:href="#DejaVuSans-48"/>
       <use x="63.623047" xlink:href="#DejaVuSans-46"/>
       <use x="95.410156" xlink:href="#DejaVuSans-48"/>
      </g>
     </g>
    </g>
    <g id="ytick_2">
     <g id="line2d_23">
      <path clip-path="url(#p109d833c04)" d="M 57.6 245.22202 
L 338.688 245.22202 
" style="fill:none;stroke:#b0b0b0;stroke-linecap:square;stroke-width:0.8;"/>
     </g>
     <g id="line2d_24">
      <g>
       <use style="stroke:#000000;stroke-width:0.8;" x="57.6" xlink:href="#mad4a0abf23" y="245.22202"/>
      </g>
     </g>
     <g id="text_7">
      <!-- 0.2 -->
      <g transform="translate(25.155 251.30077)scale(0.16 -0.16)">
       <use xlink:href="#DejaVuSans-48"/>
       <use x="63.623047" xlink:href="#DejaVuSans-46"/>
       <use x="95.410156" xlink:href="#DejaVuSans-50"/>
      </g>
     </g>
    </g>
    <g id="ytick_3">
     <g id="line2d_25">
      <path clip-path="url(#p109d833c04)" d="M 57.6 191.50004 
L 338.688 191.50004 
" style="fill:none;stroke:#b0b0b0;stroke-linecap:square;stroke-width:0.8;"/>
     </g>
     <g id="line2d_26">
      <g>
       <use style="stroke:#000000;stroke-width:0.8;" x="57.6" xlink:href="#mad4a0abf23" y="191.50004"/>
      </g>
     </g>
     <g id="text_8">
      <!-- 0.4 -->
      <g transform="translate(25.155 197.57879)scale(0.16 -0.16)">
       <use xlink:href="#DejaVuSans-48"/>
       <use x="63.623047" xlink:href="#DejaVuSans-46"/>
       <use x="95.410156" xlink:href="#DejaVuSans-52"/>
      </g>
     </g>
    </g>
    <g id="ytick_4">
     <g id="line2d_27">
      <path clip-path="url(#p109d833c04)" d="M 57.6 137.778059 
L 338.688 137.778059 
" style="fill:none;stroke:#b0b0b0;stroke-linecap:square;stroke-width:0.8;"/>
     </g>
     <g id="line2d_28">
      <g>
       <use style="stroke:#000000;stroke-width:0.8;" x="57.6" xlink:href="#mad4a0abf23" y="137.778059"/>
      </g>
     </g>
     <g id="text_9">
      <!-- 0.6 -->
      <g transform="translate(25.155 143.856809)scale(0.16 -0.16)">
       <use xlink:href="#DejaVuSans-48"/>
       <use x="63.623047" xlink:href="#DejaVuSans-46"/>
       <use x="95.410156" xlink:href="#DejaVuSans-54"/>
      </g>
     </g>
    </g>
    <g id="ytick_5">
     <g id="line2d_29">
      <path clip-path="url(#p109d833c04)" d="M 57.6 84.056079 
L 338.688 84.056079 
" style="fill:none;stroke:#b0b0b0;stroke-linecap:square;stroke-width:0.8;"/>
     </g>
     <g id="line2d_30">
      <g>
       <use style="stroke:#000000;stroke-width:0.8;" x="57.6" xlink:href="#mad4a0abf23" y="84.056079"/>
      </g>
     </g>
     <g id="text_10">
      <!-- 0.8 -->
      <defs>
       <path d="M 31.78125 34.625 
Q 24.75 34.625 20.71875 30.859375 
Q 16.703125 27.09375 16.703125 20.515625 
Q 16.703125 13.921875 20.71875 10.15625 
Q 24.75 6.390625 31.78125 6.390625 
Q 38.8125 6.390625 42.859375 10.171875 
Q 46.921875 13.96875 46.921875 20.515625 
Q 46.921875 27.09375 42.890625 30.859375 
Q 38.875 34.625 31.78125 34.625 
z
M 21.921875 38.8125 
Q 15.578125 40.375 12.03125 44.71875 
Q 8.5 49.078125 8.5 55.328125 
Q 8.5 64.0625 14.71875 69.140625 
Q 20.953125 74.21875 31.78125 74.21875 
Q 42.671875 74.21875 48.875 69.140625 
Q 55.078125 64.0625 55.078125 55.328125 
Q 55.078125 49.078125 51.53125 44.71875 
Q 48 40.375 41.703125 38.8125 
Q 48.828125 37.15625 52.796875 32.3125 
Q 56.78125 27.484375 56.78125 20.515625 
Q 56.78125 9.90625 50.3125 4.234375 
Q 43.84375 -1.421875 31.78125 -1.421875 
Q 19.734375 -1.421875 13.25 4.234375 
Q 6.78125 9.90625 6.78125 20.515625 
Q 6.78125 27.484375 10.78125 32.3125 
Q 14.796875 37.15625 21.921875 38.8125 
z
M 18.3125 54.390625 
Q 18.3125 48.734375 21.84375 45.5625 
Q 25.390625 42.390625 31.78125 42.390625 
Q 38.140625 42.390625 41.71875 45.5625 
Q 45.3125 48.734375 45.3125 54.390625 
Q 45.3125 60.0625 41.71875 63.234375 
Q 38.140625 66.40625 31.78125 66.40625 
Q 25.390625 66.40625 21.84375 63.234375 
Q 18.3125 60.0625 18.3125 54.390625 
z
" id="DejaVuSans-56"/>
      </defs>
      <g transform="translate(25.155 90.134829)scale(0.16 -0.16)">
       <use xlink:href="#DejaVuSans-48"/>
       <use x="63.623047" xlink:href="#DejaVuSans-46"/>
       <use x="95.410156" xlink:href="#DejaVuSans-56"/>
      </g>
     </g>
    </g>
    <g id="ytick_6">
     <g id="line2d_31">
      <path clip-path="url(#p109d833c04)" d="M 57.6 30.334099 
L 338.688 30.334099 
" style="fill:none;stroke:#b0b0b0;stroke-linecap:square;stroke-width:0.8;"/>
     </g>
     <g id="line2d_32">
      <g>
       <use style="stroke:#000000;stroke-width:0.8;" x="57.6" xlink:href="#mad4a0abf23" y="30.334099"/>
      </g>
     </g>
     <g id="text_11">
      <!-- 1.0 -->
      <g transform="translate(25.155 36.412849)scale(0.16 -0.16)">
       <use xlink:href="#DejaVuSans-49"/>
       <use x="63.623047" xlink:href="#DejaVuSans-46"/>
       <use x="95.410156" xlink:href="#DejaVuSans-48"/>
      </g>
     </g>
    </g>
    <g id="text_12">
     <!-- Fraction of function,target pairs -->
     <defs>
      <path d="M 9.8125 72.90625 
L 51.703125 72.90625 
L 51.703125 64.59375 
L 19.671875 64.59375 
L 19.671875 43.109375 
L 48.578125 43.109375 
L 48.578125 34.8125 
L 19.671875 34.8125 
L 19.671875 0 
L 9.8125 0 
z
" id="DejaVuSans-70"/>
      <path d="M 41.109375 46.296875 
Q 39.59375 47.171875 37.8125 47.578125 
Q 36.03125 48 33.890625 48 
Q 26.265625 48 22.1875 43.046875 
Q 18.109375 38.09375 18.109375 28.8125 
L 18.109375 0 
L 9.078125 0 
L 9.078125 54.6875 
L 18.109375 54.6875 
L 18.109375 46.1875 
Q 20.953125 51.171875 25.484375 53.578125 
Q 30.03125 56 36.53125 56 
Q 37.453125 56 38.578125 55.875 
Q 39.703125 55.765625 41.0625 55.515625 
z
" id="DejaVuSans-114"/>
      <path d="M 48.78125 52.59375 
L 48.78125 44.1875 
Q 44.96875 46.296875 41.140625 47.34375 
Q 37.3125 48.390625 33.40625 48.390625 
Q 24.65625 48.390625 19.8125 42.84375 
Q 14.984375 37.3125 14.984375 27.296875 
Q 14.984375 17.28125 19.8125 11.734375 
Q 24.65625 6.203125 33.40625 6.203125 
Q 37.3125 6.203125 41.140625 7.25 
Q 44.96875 8.296875 48.78125 10.40625 
L 48.78125 2.09375 
Q 45.015625 0.34375 40.984375 -0.53125 
Q 36.96875 -1.421875 32.421875 -1.421875 
Q 20.0625 -1.421875 12.78125 6.34375 
Q 5.515625 14.109375 5.515625 27.296875 
Q 5.515625 40.671875 12.859375 48.328125 
Q 20.21875 56 33.015625 56 
Q 37.15625 56 41.109375 55.140625 
Q 45.0625 54.296875 48.78125 52.59375 
z
" id="DejaVuSans-99"/>
      <path d="M 18.3125 70.21875 
L 18.3125 54.6875 
L 36.8125 54.6875 
L 36.8125 47.703125 
L 18.3125 47.703125 
L 18.3125 18.015625 
Q 18.3125 11.328125 20.140625 9.421875 
Q 21.96875 7.515625 27.59375 7.515625 
L 36.8125 7.515625 
L 36.8125 0 
L 27.59375 0 
Q 17.1875 0 13.234375 3.875 
Q 9.28125 7.765625 9.28125 18.015625 
L 9.28125 47.703125 
L 2.6875 47.703125 
L 2.6875 54.6875 
L 9.28125 54.6875 
L 9.28125 70.21875 
z
" id="DejaVuSans-116"/>
      <path d="M 8.5 21.578125 
L 8.5 54.6875 
L 17.484375 54.6875 
L 17.484375 21.921875 
Q 17.484375 14.15625 20.5 10.265625 
Q 23.53125 6.390625 29.59375 6.390625 
Q 36.859375 6.390625 41.078125 11.03125 
Q 45.3125 15.671875 45.3125 23.6875 
L 45.3125 54.6875 
L 54.296875 54.6875 
L 54.296875 0 
L 45.3125 0 
L 45.3125 8.40625 
Q 42.046875 3.421875 37.71875 1 
Q 33.40625 -1.421875 27.6875 -1.421875 
Q 18.265625 -1.421875 13.375 4.4375 
Q 8.5 10.296875 8.5 21.578125 
z
M 31.109375 56 
z
" id="DejaVuSans-117"/>
      <path d="M 11.71875 12.40625 
L 22.015625 12.40625 
L 22.015625 4 
L 14.015625 -11.625 
L 7.71875 -11.625 
L 11.71875 4 
z
" id="DejaVuSans-44"/>
      <path d="M 18.109375 8.203125 
L 18.109375 -20.796875 
L 9.078125 -20.796875 
L 9.078125 54.6875 
L 18.109375 54.6875 
L 18.109375 46.390625 
Q 20.953125 51.265625 25.265625 53.625 
Q 29.59375 56 35.59375 56 
Q 45.5625 56 51.78125 48.09375 
Q 58.015625 40.1875 58.015625 27.296875 
Q 58.015625 14.40625 51.78125 6.484375 
Q 45.5625 -1.421875 35.59375 -1.421875 
Q 29.59375 -1.421875 25.265625 0.953125 
Q 20.953125 3.328125 18.109375 8.203125 
z
M 48.6875 27.296875 
Q 48.6875 37.203125 44.609375 42.84375 
Q 40.53125 48.484375 33.40625 48.484375 
Q 26.265625 48.484375 22.1875 42.84375 
Q 18.109375 37.203125 18.109375 27.296875 
Q 18.109375 17.390625 22.1875 11.75 
Q 26.265625 6.109375 33.40625 6.109375 
Q 40.53125 6.109375 44.609375 11.75 
Q 48.6875 17.390625 48.6875 27.296875 
z
" id="DejaVuSans-112"/>
     </defs>
     <g transform="translate(17.619531 298.435375)rotate(-90)scale(0.17 -0.17)">
      <use xlink:href="#DejaVuSans-70"/>
      <use x="57.410156" xlink:href="#DejaVuSans-114"/>
      <use x="98.523438" xlink:href="#DejaVuSans-97"/>
      <use x="159.802734" xlink:href="#DejaVuSans-99"/>
      <use x="214.783203" xlink:href="#DejaVuSans-116"/>
      <use x="253.992188" xlink:href="#DejaVuSans-105"/>
      <use x="281.775391" xlink:href="#DejaVuSans-111"/>
      <use x="342.957031" xlink:href="#DejaVuSans-110"/>
      <use x="406.335938" xlink:href="#DejaVuSans-32"/>
      <use x="438.123047" xlink:href="#DejaVuSans-111"/>
      <use x="499.304688" xlink:href="#DejaVuSans-102"/>
      <use x="534.509766" xlink:href="#DejaVuSans-32"/>
      <use x="566.296875" xlink:href="#DejaVuSans-102"/>
      <use x="601.501953" xlink:href="#DejaVuSans-117"/>
      <use x="664.880859" xlink:href="#DejaVuSans-110"/>
      <use x="728.259766" xlink:href="#DejaVuSans-99"/>
      <use x="783.240234" xlink:href="#DejaVuSans-116"/>
      <use x="822.449219" xlink:href="#DejaVuSans-105"/>
      <use x="850.232422" xlink:href="#DejaVuSans-111"/>
      <use x="911.414062" xlink:href="#DejaVuSans-110"/>
      <use x="974.792969" xlink:href="#DejaVuSans-44"/>
      <use x="1006.580078" xlink:href="#DejaVuSans-116"/>
      <use x="1045.789062" xlink:href="#DejaVuSans-97"/>
      <use x="1107.068359" xlink:href="#DejaVuSans-114"/>
      <use x="1148.166016" xlink:href="#DejaVuSans-103"/>
      <use x="1211.642578" xlink:href="#DejaVuSans-101"/>
      <use x="1273.166016" xlink:href="#DejaVuSans-116"/>
      <use x="1312.375" xlink:href="#DejaVuSans-32"/>
      <use x="1344.162109" xlink:href="#DejaVuSans-112"/>
      <use x="1407.638672" xlink:href="#DejaVuSans-97"/>
      <use x="1468.917969" xlink:href="#DejaVuSans-105"/>
      <use x="1496.701172" xlink:href="#DejaVuSans-114"/>
      <use x="1537.814453" xlink:href="#DejaVuSans-115"/>
     </g>
    </g>
   </g>
   <g id="line2d_33">
    <defs>
     <path d="M 0 1.5 
C 0.397805 1.5 0.77937 1.341951 1.06066 1.06066 
C 1.341951 0.77937 1.5 0.397805 1.5 0 
C 1.5 -0.397805 1.341951 -0.77937 1.06066 -1.06066 
C 0.77937 -1.341951 0.397805 -1.5 0 -1.5 
C -0.397805 -1.5 -0.77937 -1.341951 -1.06066 -1.06066 
C -1.341951 -0.77937 -1.5 -0.397805 -1.5 0 
C -1.5 0.397805 -1.341951 0.77937 -1.06066 1.06066 
C -0.77937 1.341951 -0.397805 1.5 0 1.5 
z
" id="medfc5430a5" style="stroke:#f5deb3;"/>
    </defs>
    <g>
     <use style="fill:#f5deb3;stroke:#f5deb3;" x="148.200145" xlink:href="#medfc5430a5" y="30.334099"/>
     <use style="fill:#f5deb3;stroke:#f5deb3;" x="148.200145" xlink:href="#medfc5430a5" y="30.334099"/>
    </g>
   </g>
   <g id="line2d_34">
    <defs>
     <path d="M 0 1.5 
C 0.397805 1.5 0.77937 1.341951 1.06066 1.06066 
C 1.341951 0.77937 1.5 0.397805 1.5 0 
C 1.5 -0.397805 1.341951 -0.77937 1.06066 -1.06066 
C 0.77937 -1.341951 0.397805 -1.5 0 -1.5 
C -0.397805 -1.5 -0.77937 -1.341951 -1.06066 -1.06066 
C -1.341951 -0.77937 -1.5 -0.397805 -1.5 0 
C -1.5 0.397805 -1.341951 0.77937 -1.06066 1.06066 
C -0.77937 1.341951 -0.397805 1.5 0 1.5 
z
" id="m5a77b09f71" style="stroke:#000080;"/>
    </defs>
    <g>
     <use style="fill:#000080;stroke:#000080;" x="158.422772" xlink:href="#m5a77b09f71" y="30.334099"/>
     <use style="fill:#000080;stroke:#000080;" x="158.422772" xlink:href="#m5a77b09f71" y="30.334099"/>
    </g>
   </g>
   <g id="line2d_35">
    <path d="M 131.082294 298.944 
L 131.082294 298.417314 
L 131.640805 298.417314 
L 131.690703 297.363942 
L 132.036046 297.363942 
L 132.133473 295.257197 
L 133.443203 295.257197 
L 133.443203 294.203825 
L 134.019394 294.203825 
L 134.019394 292.623767 
L 134.703375 292.623767 
L 134.703375 292.097081 
L 134.870259 292.097081 
L 134.870259 291.570395 
L 134.994383 291.570395 
L 134.994383 291.043709 
L 135.44209 291.043709 
L 135.44209 289.990337 
L 135.681535 289.990337 
L 135.681535 289.463651 
L 136.150782 289.463651 
L 136.150782 288.936964 
L 136.494612 288.936964 
L 136.494612 288.410278 
L 136.645276 288.410278 
L 136.645276 287.356906 
L 136.905847 287.356906 
L 136.905847 286.83022 
L 137.307607 286.83022 
L 137.307607 286.303534 
L 137.451437 286.303534 
L 137.48721 283.670104 
L 137.664982 283.670104 
L 137.664982 283.143418 
L 137.910857 283.143418 
L 137.980475 282.090045 
L 138.118883 282.090045 
L 138.118883 281.563359 
L 138.426341 281.563359 
L 138.460171 279.983301 
L 138.728473 279.983301 
L 138.794909 278.929929 
L 138.99271 278.929929 
L 139.02546 276.823185 
L 139.220677 276.823185 
L 139.285267 275.243126 
L 139.69937 275.243126 
L 139.69937 274.71644 
L 139.887228 274.71644 
L 139.980403 273.136382 
L 140.073083 273.136382 
L 140.073083 272.609696 
L 140.195896 272.609696 
L 140.256979 271.556324 
L 140.559227 271.556324 
L 140.559227 271.029638 
L 140.738093 271.029638 
L 140.738093 270.502952 
L 141.002999 270.502952 
L 141.002999 268.922893 
L 141.20629 268.922893 
L 141.20629 268.396207 
L 141.350061 268.396207 
L 141.407239 267.342835 
L 141.46423 267.342835 
L 141.521035 265.762777 
L 141.634094 265.762777 
L 141.71841 263.656033 
L 141.830201 263.656033 
L 141.858037 262.075974 
L 142.405626 262.075974 
L 142.432559 261.022602 
L 142.593291 261.022602 
L 142.593291 260.495916 
L 143.040814 260.495916 
L 143.040814 259.96923 
L 143.40093 259.96923 
L 143.40093 259.442544 
L 143.553018 259.442544 
L 143.628567 257.862486 
L 143.678752 257.862486 
L 143.728793 256.282427 
L 143.976867 256.282427 
L 143.976867 255.755741 
L 144.221461 255.755741 
L 144.318346 252.595625 
L 144.438701 252.595625 
L 144.510517 251.542253 
L 144.653267 251.542253 
L 144.653267 251.015567 
L 144.818346 251.015567 
L 144.818346 250.488881 
L 144.958609 250.488881 
L 144.958609 249.962195 
L 145.097753 249.962195 
L 145.097753 248.382136 
L 145.304409 248.382136 
L 145.350002 247.328764 
L 145.418169 247.328764 
L 145.48607 245.22202 
L 145.598655 245.22202 
L 145.643486 244.168648 
L 145.710517 244.168648 
L 145.710517 243.641962 
L 145.954117 243.641962 
L 146.06373 241.535217 
L 146.107383 241.535217 
L 146.150926 240.481845 
L 146.367029 240.481845 
L 146.367029 239.428473 
L 146.538004 239.428473 
L 146.622867 236.795043 
L 146.686244 236.795043 
L 146.77039 233.10824 
L 146.812312 233.10824 
L 146.895853 230.47481 
L 146.978997 230.47481 
L 147.082371 228.894751 
L 147.266916 228.894751 
L 147.348313 225.734635 
L 147.388869 225.734635 
L 147.429332 223.627891 
L 147.509976 223.627891 
L 147.509976 223.101204 
L 147.630247 223.101204 
L 147.630247 222.574518 
L 147.749695 222.574518 
L 147.828875 220.467774 
L 147.907696 220.467774 
L 148.005725 215.727599 
L 148.083753 215.727599 
L 148.161434 213.620855 
L 148.200145 213.620855 
L 148.23877 212.040797 
L 148.315765 212.040797 
L 148.315765 211.514111 
L 148.468742 211.514111 
L 148.54473 209.934052 
L 148.676918 209.934052 
L 148.733265 207.300622 
L 148.882639 207.300622 
L 148.882639 206.24725 
L 148.993835 206.24725 
L 149.104327 200.453703 
L 149.214124 200.453703 
L 149.286939 195.713528 
L 149.341352 195.713528 
L 149.395596 193.080098 
L 149.557321 193.080098 
L 149.664311 190.973354 
L 149.682079 190.973354 
L 149.788308 189.919981 
L 149.876341 189.919981 
L 149.876341 188.866609 
L 149.998846 188.866609 
L 150.103169 187.286551 
L 150.120495 187.286551 
L 150.224095 183.599748 
L 150.275665 183.599748 
L 150.37835 180.966318 
L 150.395406 180.966318 
L 150.49739 178.859574 
L 150.54816 178.859574 
L 150.649257 176.752829 
L 150.66605 176.752829 
L 150.766468 173.592713 
L 150.783149 173.592713 
L 150.866312 172.012655 
L 150.932558 172.012655 
L 151.031458 169.379224 
L 151.0643 169.379224 
L 151.162458 167.799166 
L 151.195055 167.799166 
L 151.276281 163.585677 
L 151.308666 163.585677 
L 151.373256 162.005619 
L 151.469695 162.005619 
L 151.533692 160.425561 
L 151.645126 160.425561 
L 151.755852 157.79213 
L 151.771612 157.79213 
L 151.881541 153.051956 
L 151.944047 153.051956 
L 152.052897 147.785095 
L 152.130233 147.785095 
L 152.207228 146.731723 
L 152.26858 146.731723 
L 152.344968 145.151665 
L 152.481628 145.151665 
L 152.542024 140.41149 
L 152.617226 140.41149 
L 152.677155 138.831432 
L 152.751777 138.831432 
L 152.855715 134.091257 
L 152.885298 134.091257 
L 152.973748 132.511199 
L 153.003132 132.511199 
L 153.090987 128.29771 
L 153.13475 128.29771 
L 153.236437 125.66428 
L 153.250915 125.66428 
L 153.308709 121.977477 
L 153.366312 121.977477 
L 153.452361 118.817361 
L 153.523746 118.817361 
L 153.623196 115.130558 
L 153.679772 115.130558 
L 153.778339 111.443755 
L 153.848404 111.443755 
L 153.904255 109.337011 
L 154.029268 109.337011 
L 154.125885 107.756953 
L 154.153391 107.756953 
L 154.249325 101.963406 
L 154.331136 101.963406 
L 154.399019 99.856662 
L 154.533999 99.856662 
L 154.627867 96.169859 
L 154.654594 96.169859 
L 154.721232 91.429684 
L 154.787617 91.429684 
L 154.89331 88.269568 
L 154.919633 88.269568 
L 155.011454 83.529393 
L 155.063706 83.529393 
L 155.128803 81.422649 
L 155.28405 81.422649 
L 155.34833 76.155788 
L 155.399584 76.155788 
L 155.501643 72.995672 
L 155.55245 72.995672 
L 155.603109 71.415613 
L 155.678822 71.415613 
L 155.729115 68.782183 
L 155.804285 68.782183 
L 155.854218 65.622066 
L 155.966049 65.622066 
L 156.052535 61.408578 
L 156.212023 61.408578 
L 156.32159 58.248461 
L 156.370066 58.248461 
L 156.442528 55.088345 
L 156.49067 55.088345 
L 156.586556 51.401542 
L 156.610446 51.401542 
L 156.634302 49.821484 
L 156.741256 49.821484 
L 156.823991 47.71474 
L 156.871092 47.71474 
L 156.92979 44.554623 
L 156.999969 44.554623 
L 157.011638 43.501251 
L 157.1279 43.501251 
L 157.208825 41.921193 
L 157.277891 41.921193 
L 157.369557 39.814448 
L 157.483465 39.814448 
L 157.528821 37.181018 
L 157.686643 37.181018 
L 157.686643 36.654332 
L 157.876384 36.654332 
L 157.920731 34.020902 
L 158.28235 34.020902 
L 158.390468 31.387471 
L 158.412011 31.387471 
L 158.422772 30.334099 
L 338.688 30.334099 
L 338.688 30.334099 
" style="fill:none;stroke:#000080;stroke-linecap:square;stroke-width:1.5;"/>
   </g>
   <g id="line2d_36">
    <defs>
     <path d="M 0 6 
C 1.591219 6 3.117479 5.367802 4.242641 4.242641 
C 5.367802 3.117479 6 1.591219 6 0 
C 6 -1.591219 5.367802 -3.117479 4.242641 -4.242641 
C 3.117479 -5.367802 1.591219 -6 0 -6 
C -1.591219 -6 -3.117479 -5.367802 -4.242641 -4.242641 
C -5.367802 -3.117479 -6 -1.591219 -6 0 
C -6 1.591219 -5.367802 3.117479 -4.242641 4.242641 
C -3.117479 5.367802 -1.591219 6 0 6 
z
" id="me61c5a3f4c" style="stroke:#000080;stroke-width:1.5;"/>
    </defs>
    <g>
     <use style="fill-opacity:0;stroke:#000080;stroke-width:1.5;" x="155.854218" xlink:href="#me61c5a3f4c" y="65.622066"/>
     <use style="fill-opacity:0;stroke:#000080;stroke-width:1.5;" x="158.422772" xlink:href="#me61c5a3f4c" y="30.860785"/>
     <use style="fill-opacity:0;stroke:#000080;stroke-width:1.5;" x="158.422772" xlink:href="#me61c5a3f4c" y="30.334099"/>
     <use style="fill-opacity:0;stroke:#000080;stroke-width:1.5;" x="158.422772" xlink:href="#me61c5a3f4c" y="30.334099"/>
     <use style="fill-opacity:0;stroke:#000080;stroke-width:1.5;" x="338.688" xlink:href="#me61c5a3f4c" y="30.334099"/>
    </g>
   </g>
   <g id="line2d_37">
    <path style="fill:none;stroke:#000080;stroke-linecap:square;stroke-width:1.5;"/>
    <g/>
   </g>
   <g id="line2d_38">
    <g>
     <use style="fill:#000080;stroke:#000080;" x="158.390468" xlink:href="#m5a77b09f71" y="30.334099"/>
     <use style="fill:#000080;stroke:#000080;" x="158.390468" xlink:href="#m5a77b09f71" y="30.334099"/>
    </g>
   </g>
   <g id="line2d_39">
    <path d="M 131.888878 298.944 
L 131.888878 297.890628 
L 133.216421 297.890628 
L 133.216421 297.363942 
L 134.106373 297.363942 
L 134.106373 296.837256 
L 135.035562 296.837256 
L 135.035562 296.31057 
L 135.240011 296.31057 
L 135.240011 295.783884 
L 135.401861 295.783884 
L 135.401861 294.203825 
L 135.721125 294.203825 
L 135.721125 293.677139 
L 135.839358 293.677139 
L 135.878591 292.623767 
L 136.034648 292.623767 
L 136.034648 292.097081 
L 136.342635 292.097081 
L 136.342635 291.570395 
L 136.979586 291.570395 
L 137.089613 289.990337 
L 137.126135 289.990337 
L 137.126135 289.463651 
L 137.48721 289.463651 
L 137.48721 288.936964 
L 137.875944 288.936964 
L 137.980475 287.356906 
L 138.256201 287.356906 
L 138.324456 286.303534 
L 138.392446 286.303534 
L 138.392446 285.776848 
L 138.561269 285.776848 
L 138.561269 285.250162 
L 138.728473 285.250162 
L 138.728473 284.723476 
L 138.89409 284.723476 
L 138.89409 284.19679 
L 139.285267 284.19679 
L 139.285267 283.143418 
L 139.69937 283.143418 
L 139.793552 281.036673 
L 140.64889 281.036673 
L 140.708409 276.296499 
L 140.767727 276.296499 
L 140.767727 275.769812 
L 140.944478 275.769812 
L 140.973763 274.71644 
L 141.148448 274.71644 
L 141.177393 273.663068 
L 141.263941 273.663068 
L 141.263941 273.136382 
L 141.378673 273.136382 
L 141.378673 272.609696 
L 141.746425 272.609696 
L 141.746425 272.08301 
L 141.858037 272.08301 
L 141.858037 271.029638 
L 142.133981 271.029638 
L 142.133981 270.502952 
L 142.324576 270.502952 
L 142.432559 268.922893 
L 142.459451 268.922893 
L 142.459451 268.396207 
L 142.699628 268.396207 
L 142.778958 267.342835 
L 143.11861 267.342835 
L 143.11861 266.816149 
L 143.273169 266.816149 
L 143.375453 265.236091 
L 143.40093 265.236091 
L 143.40093 264.709405 
L 143.527762 264.709405 
L 143.527762 264.182719 
L 143.703791 264.182719 
L 143.778691 263.129347 
L 143.902815 263.129347 
L 143.927534 262.075974 
L 144.026061 262.075974 
L 144.124035 261.022602 
L 144.148442 261.022602 
L 144.148442 260.495916 
L 144.53439 260.495916 
L 144.582038 258.389172 
L 144.747789 258.389172 
L 144.818346 256.282427 
L 144.91198 256.282427 
L 144.981877 255.229055 
L 145.143889 255.229055 
L 145.235796 254.175683 
L 145.440832 254.175683 
L 145.48607 252.595625 
L 145.576196 252.595625 
L 145.665858 251.015567 
L 145.732804 251.015567 
L 145.732804 250.488881 
L 145.998045 250.488881 
L 146.019967 249.435508 
L 146.150926 249.435508 
L 146.194362 247.328764 
L 146.388493 247.328764 
L 146.495417 245.22202 
L 146.516724 245.22202 
L 146.60169 244.168648 
L 146.644018 244.168648 
L 146.749392 242.061903 
L 146.854132 242.061903 
L 146.937474 240.481845 
L 146.999721 240.481845 
L 147.082371 238.901787 
L 147.185137 238.901787 
L 147.266916 236.268356 
L 147.429332 236.268356 
L 147.48985 235.214984 
L 147.590249 235.214984 
L 147.650212 233.10824 
L 147.749695 233.10824 
L 147.848613 230.47481 
L 147.888024 230.47481 
L 147.986163 228.368065 
L 148.064279 228.368065 
L 148.161434 226.788007 
L 148.219468 226.788007 
L 148.296548 224.154577 
L 148.392421 224.154577 
L 148.468742 222.047832 
L 148.525764 222.047832 
L 148.620389 218.36103 
L 148.658095 218.36103 
L 148.752007 213.620855 
L 148.770728 213.620855 
L 148.864037 211.514111 
L 148.938326 211.514111 
L 149.049169 209.407366 
L 149.085961 209.407366 
L 149.159312 208.353994 
L 149.268764 208.353994 
L 149.359452 206.24725 
L 149.413639 206.24725 
L 149.503579 203.087133 
L 149.575199 203.087133 
L 149.664311 200.453703 
L 149.752971 200.453703 
L 149.823575 197.820273 
L 149.876341 197.820273 
L 149.981398 195.186842 
L 150.033689 195.186842 
L 150.137805 193.606784 
L 150.172372 193.606784 
L 150.275665 191.50004 
L 150.51433 191.50004 
L 150.598782 185.706493 
L 150.632448 185.706493 
L 150.73306 182.546376 
L 150.766468 182.546376 
L 150.866312 176.752829 
L 151.015013 176.752829 
L 151.097081 172.012655 
L 151.260066 172.012655 
L 151.260066 171.485969 
L 151.373256 171.485969 
L 151.437608 169.379224 
L 151.517715 169.379224 
L 151.597455 165.165736 
L 151.645126 165.165736 
L 151.755852 160.952247 
L 151.771612 160.952247 
L 151.834513 158.318817 
L 151.959639 158.318817 
L 152.037389 156.738758 
L 152.09934 156.738758 
L 152.161072 151.998584 
L 152.222586 151.998584 
L 152.314453 148.838467 
L 152.344968 148.838467 
L 152.451351 143.04492 
L 152.466496 143.04492 
L 152.572143 140.41149 
L 152.632227 140.41149 
L 152.736878 138.304745 
L 152.796398 138.304745 
L 152.855715 136.198001 
L 152.914832 136.198001 
L 152.988446 131.984513 
L 153.032466 131.984513 
L 153.120174 127.244338 
L 153.149313 127.244338 
L 153.163864 125.66428 
L 153.265382 125.66428 
L 153.366312 122.504163 
L 153.395042 122.504163 
L 153.48095 120.924105 
L 153.509492 120.924105 
L 153.580644 118.817361 
L 153.623196 118.817361 
L 153.679772 117.237302 
L 153.778339 117.237302 
L 153.876352 114.077186 
L 153.918189 114.077186 
L 154.029268 110.917069 
L 154.056927 110.917069 
L 154.167129 106.176895 
L 154.180855 106.176895 
L 154.262987 103.543464 
L 154.331136 103.543464 
L 154.439623 99.329976 
L 154.493614 99.329976 
L 154.587699 97.749917 
L 154.614488 97.749917 
L 154.707925 93.009743 
L 154.747816 93.009743 
L 154.827327 89.849626 
L 154.866947 89.849626 
L 154.93278 87.216196 
L 154.985269 87.216196 
L 155.076745 80.895963 
L 155.102793 80.895963 
L 155.206599 78.262532 
L 155.258271 78.262532 
L 155.296925 75.629102 
L 155.373976 75.629102 
L 155.425155 68.782183 
L 155.514359 68.782183 
L 155.514359 68.255497 
L 155.641006 68.255497 
L 155.741666 63.515322 
L 155.766741 63.515322 
L 155.854218 60.881892 
L 155.904009 60.881892 
L 155.966049 57.721775 
L 156.027868 57.721775 
L 156.138594 54.561659 
L 156.248622 54.561659 
L 156.357959 52.9816 
L 156.370066 52.9816 
L 156.370066 52.454914 
L 156.538679 52.454914 
L 156.634302 49.294798 
L 156.693802 49.294798 
L 156.776762 45.607995 
L 156.953214 45.607995 
L 156.999969 43.501251 
L 157.15106 43.501251 
L 157.174189 41.394507 
L 157.289376 41.394507 
L 157.289376 40.867821 
L 157.540141 40.867821 
L 157.596634 36.127646 
L 157.652944 36.127646 
L 157.720277 35.074274 
L 157.787352 35.074274 
L 157.787352 34.020902 
L 157.953917 34.020902 
L 157.953917 33.494215 
L 158.086033 33.494215 
L 158.086033 32.967529 
L 158.206267 32.967529 
L 158.28235 30.860785 
L 158.390468 30.860785 
L 158.390468 30.334099 
L 338.688 30.334099 
L 338.688 30.334099 
" style="fill:none;stroke:#000080;stroke-linecap:square;stroke-width:1.5;"/>
   </g>
   <g id="line2d_40">
    <g>
     <use style="fill-opacity:0;stroke:#000080;stroke-width:1.5;" x="153.973817" xlink:href="#me61c5a3f4c" y="111.970441"/>
     <use style="fill-opacity:0;stroke:#000080;stroke-width:1.5;" x="158.390468" xlink:href="#me61c5a3f4c" y="30.860785"/>
     <use style="fill-opacity:0;stroke:#000080;stroke-width:1.5;" x="158.390468" xlink:href="#me61c5a3f4c" y="30.334099"/>
     <use style="fill-opacity:0;stroke:#000080;stroke-width:1.5;" x="158.390468" xlink:href="#me61c5a3f4c" y="30.334099"/>
     <use style="fill-opacity:0;stroke:#000080;stroke-width:1.5;" x="338.688" xlink:href="#me61c5a3f4c" y="30.334099"/>
    </g>
   </g>
   <g id="line2d_41">
    <path style="fill:none;stroke:#000080;stroke-linecap:square;stroke-width:1.5;"/>
    <g/>
   </g>
   <g id="line2d_42">
    <defs>
     <path d="M 0 1.5 
C 0.397805 1.5 0.77937 1.341951 1.06066 1.06066 
C 1.341951 0.77937 1.5 0.397805 1.5 0 
C 1.5 -0.397805 1.341951 -0.77937 1.06066 -1.06066 
C 0.77937 -1.341951 0.397805 -1.5 0 -1.5 
C -0.397805 -1.5 -0.77937 -1.341951 -1.06066 -1.06066 
C -1.341951 -0.77937 -1.5 -0.397805 -1.5 0 
C -1.5 0.397805 -1.341951 0.77937 -1.06066 1.06066 
C -0.77937 1.341951 -0.397805 1.5 0 1.5 
z
" id="mf26fe59897" style="stroke:#ff00ff;"/>
    </defs>
    <g>
     <use style="fill:#ff00ff;stroke:#ff00ff;" x="181.327037" xlink:href="#mf26fe59897" y="30.334099"/>
     <use style="fill:#ff00ff;stroke:#ff00ff;" x="181.327037" xlink:href="#mf26fe59897" y="30.334099"/>
    </g>
   </g>
   <g id="line2d_43">
    <path d="M 154.68128 298.944 
L 154.68128 298.417314 
L 155.641006 298.417314 
L 155.641006 297.363942 
L 156.101764 297.363942 
L 156.199806 295.783884 
L 157.046598 295.783884 
L 157.046598 295.257197 
L 157.697862 295.257197 
L 157.697862 294.730511 
L 158.401243 294.730511 
L 158.487203 292.623767 
L 158.572743 292.623767 
L 158.647247 291.043709 
L 158.879352 291.043709 
L 158.879352 290.517023 
L 159.344703 290.517023 
L 159.344703 289.990337 
L 159.797958 289.990337 
L 159.797958 289.463651 
L 160.499521 289.463651 
L 160.537682 287.883592 
L 160.642194 287.883592 
L 160.670589 286.83022 
L 160.802491 286.83022 
L 160.802491 286.303534 
L 160.952025 286.303534 
L 160.952025 285.776848 
L 161.06334 285.776848 
L 161.06334 285.250162 
L 161.302112 285.250162 
L 161.302112 284.723476 
L 161.53766 284.723476 
L 161.636364 283.143418 
L 161.7523 283.143418 
L 161.840959 281.036673 
L 161.893939 281.036673 
L 161.973109 279.456615 
L 162.173813 279.456615 
L 162.260361 276.823185 
L 162.406513 276.823185 
L 162.474869 275.769812 
L 162.854457 275.769812 
L 162.854457 275.243126 
L 163.01228 275.243126 
L 163.053576 274.189754 
L 163.217788 274.189754 
L 163.323704 273.136382 
L 163.380469 273.136382 
L 163.445119 268.396207 
L 163.501492 268.396207 
L 163.501492 267.342835 
L 163.645619 267.342835 
L 163.66156 265.762777 
L 163.77274 265.762777 
L 163.883215 262.60266 
L 164.078769 262.60266 
L 164.171861 261.022602 
L 164.325919 261.022602 
L 164.356568 259.442544 
L 164.448194 259.442544 
L 164.448194 257.3358 
L 164.675172 257.3358 
L 164.697709 255.755741 
L 165.164364 255.755741 
L 165.273656 252.068939 
L 165.295432 252.068939 
L 165.338904 249.435508 
L 165.483031 249.435508 
L 165.483031 248.908822 
L 165.611735 248.908822 
L 165.697012 247.328764 
L 165.725346 247.328764 
L 165.795979 246.275392 
L 165.97132 246.275392 
L 165.985272 245.22202 
L 166.08262 245.22202 
L 166.172531 243.641962 
L 166.268843 243.641962 
L 166.303112 242.588589 
L 166.439517 242.588589 
L 166.541125 239.428473 
L 166.65557 239.428473 
L 166.7626 237.321729 
L 166.855717 237.321729 
L 166.96153 236.268356 
L 166.994465 236.268356 
L 166.994465 235.74167 
L 167.151695 235.74167 
L 167.171249 234.161612 
L 167.391347 234.161612 
L 167.474773 232.581554 
L 167.621403 232.581554 
L 167.722684 229.421437 
L 167.96712 229.421437 
L 167.991998 227.314693 
L 168.152844 227.314693 
L 168.244969 224.154577 
L 168.31222 224.154577 
L 168.31222 223.627891 
L 168.614678 223.627891 
L 168.644637 222.574518 
L 168.746115 222.574518 
L 168.829244 220.467774 
L 168.982583 220.467774 
L 169.087957 217.307658 
L 169.093793 217.307658 
L 169.099626 216.254285 
L 169.227472 216.254285 
L 169.319866 214.674227 
L 169.354388 214.674227 
L 169.446113 211.514111 
L 169.497498 211.514111 
L 169.53167 209.934052 
L 169.808266 209.934052 
L 169.847424 208.88068 
L 169.942157 208.88068 
L 169.942157 208.353994 
L 170.337772 208.353994 
L 170.343204 206.24725 
L 170.510761 206.24725 
L 170.510761 205.193878 
L 170.639386 205.193878 
L 170.639386 204.667192 
L 170.751159 204.667192 
L 170.825279 202.560447 
L 170.899085 202.560447 
L 171.009212 200.453703 
L 171.03533 200.453703 
L 171.139414 196.240214 
L 171.18605 196.240214 
L 171.232562 194.660156 
L 171.381595 194.660156 
L 171.478551 190.973354 
L 171.54458 190.973354 
L 171.645677 188.339923 
L 171.696007 188.339923 
L 171.80123 186.233179 
L 171.811218 186.233179 
L 171.920711 183.073062 
L 171.925672 183.073062 
L 172.034451 179.912946 
L 172.044307 179.912946 
L 172.127854 177.279515 
L 172.16214 177.279515 
L 172.269459 175.172771 
L 172.279183 175.172771 
L 172.347097 173.592713 
L 172.390616 173.592713 
L 172.501342 168.852538 
L 172.563617 168.852538 
L 172.649478 164.63905 
L 172.730183 164.63905 
L 172.772758 160.952247 
L 172.956059 160.952247 
L 173.03536 158.318817 
L 173.086481 158.318817 
L 173.17443 156.212072 
L 173.220541 156.212072 
L 173.3124 154.632014 
L 173.335289 154.632014 
L 173.417442 150.418525 
L 173.449287 150.418525 
L 173.521856 148.838467 
L 173.580597 148.838467 
L 173.652623 143.571606 
L 173.701969 143.571606 
L 173.800244 141.464862 
L 173.813602 141.464862 
L 173.866933 138.831432 
L 173.933369 138.831432 
L 174.043535 135.671315 
L 174.065485 135.671315 
L 174.148644 133.564571 
L 174.187897 133.564571 
L 174.270476 130.404454 
L 174.32243 130.404454 
L 174.400072 125.66428 
L 174.434469 125.66428 
L 174.520166 121.450791 
L 174.732584 121.450791 
L 174.825234 114.603872 
L 174.904856 114.603872 
L 174.96746 113.023814 
L 175.137439 113.023814 
L 175.236175 110.390383 
L 175.264868 110.390383 
L 175.36696 108.283639 
L 175.415753 108.283639 
L 175.51293 104.596836 
L 175.537141 104.596836 
L 175.629635 101.963406 
L 175.657689 101.963406 
L 175.721642 99.329976 
L 175.785362 99.329976 
L 175.825069 98.276603 
L 175.955464 98.276603 
L 176.065343 96.169859 
L 176.104418 96.169859 
L 176.201725 90.376312 
L 176.29077 90.376312 
L 176.383205 83.002707 
L 176.413908 83.002707 
L 176.467508 79.315904 
L 176.559013 79.315904 
L 176.665166 75.629102 
L 176.676501 75.629102 
L 176.781943 69.835555 
L 176.8157 69.835555 
L 176.924031 65.09538 
L 176.94264 65.09538 
L 176.994643 63.515322 
L 177.105556 63.515322 
L 177.215769 59.82852 
L 177.266964 59.82852 
L 177.266964 59.301833 
L 177.387048 59.301833 
L 177.419654 58.248461 
L 177.506309 58.248461 
L 177.571019 55.615031 
L 177.649784 55.615031 
L 177.671204 54.561659 
L 177.774364 54.561659 
L 177.823948 52.454914 
L 177.975365 52.454914 
L 178.020885 49.821484 
L 178.277758 49.821484 
L 178.377401 47.71474 
L 178.513913 47.71474 
L 178.618979 43.501251 
L 178.656109 43.501251 
L 178.662852 41.921193 
L 178.837246 41.921193 
L 178.923793 39.287762 
L 179.27877 39.287762 
L 179.285276 37.181018 
L 179.629855 37.181018 
L 179.629855 36.654332 
L 179.977136 36.654332 
L 180.008367 35.074274 
L 180.231593 35.074274 
L 180.231593 34.547588 
L 180.381893 34.547588 
L 180.381893 34.020902 
L 180.594385 34.020902 
L 180.609464 32.440843 
L 180.834104 32.440843 
L 180.834104 31.914157 
L 181.190531 31.914157 
L 181.205103 30.860785 
L 181.327037 30.860785 
L 181.327037 30.334099 
L 338.688 30.334099 
L 338.688 30.334099 
" style="fill:none;stroke:#ff00ff;stroke-linecap:square;stroke-width:1.5;"/>
   </g>
   <g id="line2d_44">
    <defs>
     <path d="M -0 8.485281 
L 5.091169 0 
L 0 -8.485281 
L -5.091169 -0 
z
" id="m90774f57c0" style="stroke:#ff00ff;stroke-linejoin:miter;stroke-width:1.5;"/>
    </defs>
    <g>
     <use style="fill-opacity:0;stroke:#ff00ff;stroke-linejoin:miter;stroke-width:1.5;" x="176.781943" xlink:href="#m90774f57c0" y="70.362241"/>
     <use style="fill-opacity:0;stroke:#ff00ff;stroke-linejoin:miter;stroke-width:1.5;" x="181.327037" xlink:href="#m90774f57c0" y="30.334099"/>
     <use style="fill-opacity:0;stroke:#ff00ff;stroke-linejoin:miter;stroke-width:1.5;" x="181.327037" xlink:href="#m90774f57c0" y="30.334099"/>
     <use style="fill-opacity:0;stroke:#ff00ff;stroke-linejoin:miter;stroke-width:1.5;" x="338.688" xlink:href="#m90774f57c0" y="30.334099"/>
    </g>
   </g>
   <g id="line2d_45">
    <path style="fill:none;stroke:#ff00ff;stroke-linecap:square;stroke-width:1.5;"/>
    <g/>
   </g>
   <g id="line2d_46">
    <defs>
     <path d="M 0 1.5 
C 0.397805 1.5 0.77937 1.341951 1.06066 1.06066 
C 1.341951 0.77937 1.5 0.397805 1.5 0 
C 1.5 -0.397805 1.341951 -0.77937 1.06066 -1.06066 
C 0.77937 -1.341951 0.397805 -1.5 0 -1.5 
C -0.397805 -1.5 -0.77937 -1.341951 -1.06066 -1.06066 
C -1.341951 -0.77937 -1.5 -0.397805 -1.5 0 
C -1.5 0.397805 -1.341951 0.77937 -1.06066 1.06066 
C -0.77937 1.341951 -0.397805 1.5 0 1.5 
z
" id="m3b15faf38d" style="stroke:#ff0000;"/>
    </defs>
    <g>
     <use style="fill:#ff0000;stroke:#ff0000;" x="162.277619" xlink:href="#m3b15faf38d" y="30.334099"/>
     <use style="fill:#ff0000;stroke:#ff0000;" x="162.277619" xlink:href="#m3b15faf38d" y="30.334099"/>
    </g>
   </g>
   <g id="line2d_47">
    <path d="M 136.112156 298.944 
L 136.112156 298.417314 
L 137.37967 298.417314 
L 137.37967 297.363942 
L 138.118883 297.363942 
L 138.118883 296.837256 
L 138.324456 296.837256 
L 138.324456 296.31057 
L 138.460171 296.31057 
L 138.460171 295.783884 
L 139.856059 295.783884 
L 139.856059 295.257197 
L 139.980403 295.257197 
L 139.980403 294.730511 
L 140.134598 294.730511 
L 140.134598 294.203825 
L 140.499195 294.203825 
L 140.529237 293.150453 
L 140.678675 293.150453 
L 140.678675 292.623767 
L 140.826843 292.623767 
L 140.826843 292.097081 
L 140.973763 292.097081 
L 140.973763 291.570395 
L 141.46423 291.570395 
L 141.521035 289.990337 
L 141.746425 289.990337 
L 141.830201 288.936964 
L 142.215919 288.936964 
L 142.215919 288.410278 
L 143.11861 288.410278 
L 143.221802 287.356906 
L 143.273169 287.356906 
L 143.298796 286.303534 
L 144.124035 286.303534 
L 144.148442 283.670104 
L 144.318346 283.670104 
L 144.318346 283.143418 
L 144.700592 283.143418 
L 144.700592 282.616732 
L 145.281568 282.616732 
L 145.327221 281.036673 
L 145.777292 281.036673 
L 145.777292 280.509987 
L 145.998045 280.509987 
L 146.041862 278.929929 
L 146.345539 278.929929 
L 146.388493 277.349871 
L 146.474085 277.349871 
L 146.538004 275.769812 
L 146.665144 275.769812 
L 146.77039 274.71644 
L 146.916676 274.71644 
L 146.978997 273.663068 
L 147.061745 273.663068 
L 147.12355 272.609696 
L 147.226074 272.609696 
L 147.226074 272.08301 
L 147.530079 272.08301 
L 147.530079 271.556324 
L 147.70997 271.556324 
L 147.809113 270.502952 
L 148.005725 270.502952 
L 148.064279 269.449579 
L 148.23877 269.449579 
L 148.334961 268.396207 
L 148.430623 268.396207 
L 148.449693 267.342835 
L 148.563676 267.342835 
L 148.563676 266.816149 
L 148.733265 266.816149 
L 148.770728 264.709405 
L 148.882639 264.709405 
L 148.901221 263.656033 
L 149.012299 263.656033 
L 149.085961 262.075974 
L 149.141003 262.075974 
L 149.25057 259.442544 
L 149.286939 259.442544 
L 149.286939 258.915858 
L 149.539426 258.915858 
L 149.646525 257.3358 
L 149.788308 257.3358 
L 149.876341 255.755741 
L 150.051085 255.755741 
L 150.085825 254.702369 
L 150.480434 254.702369 
L 150.531253 252.068939 
L 150.598782 252.068939 
L 150.66605 251.015567 
L 150.849711 251.015567 
L 150.91602 248.382136 
L 151.047887 248.382136 
L 151.047887 247.85545 
L 151.178764 247.85545 
L 151.276281 243.641962 
L 151.292481 243.641962 
L 151.292481 243.115275 
L 151.485716 243.115275 
L 151.501723 241.535217 
L 151.645126 241.535217 
L 151.755852 236.795043 
L 151.881541 236.795043 
L 151.99078 234.688298 
L 152.00633 234.688298 
L 152.114793 229.948123 
L 152.176471 229.948123 
L 152.26858 226.261321 
L 152.329717 226.261321 
L 152.421022 220.99446 
L 152.55709 220.99446 
L 152.647216 216.254285 
L 152.692105 216.254285 
L 152.796398 214.147541 
L 152.870513 214.147541 
L 152.973748 210.460738 
L 153.003132 210.460738 
L 153.105587 204.140506 
L 153.178403 204.140506 
L 153.265382 201.507075 
L 153.294279 201.507075 
L 153.380683 199.400331 
L 153.40939 199.400331 
L 153.466662 196.240214 
L 153.523746 196.240214 
L 153.609024 192.553412 
L 153.651507 192.553412 
L 153.679772 191.50004 
L 153.792374 191.50004 
L 153.792374 190.973354 
L 153.904255 190.973354 
L 153.959927 189.393295 
L 154.015422 189.393295 
L 154.084543 186.759865 
L 154.276638 186.759865 
L 154.371897 184.126434 
L 154.412564 184.126434 
L 154.480132 181.493004 
L 154.614488 181.493004 
L 154.721232 179.38626 
L 154.734529 179.38626 
L 154.8141 177.806202 
L 154.866947 177.806202 
L 154.866947 176.752829 
L 154.985269 176.752829 
L 155.089774 173.066027 
L 155.128803 173.066027 
L 155.219531 167.27248 
L 155.245367 167.27248 
L 155.30979 165.692422 
L 155.386785 165.692422 
L 155.488919 160.952247 
L 155.501643 160.952247 
L 155.603109 157.265444 
L 155.628383 157.265444 
L 155.729115 153.578642 
L 155.766741 153.578642 
L 155.86668 151.998584 
L 155.94126 151.998584 
L 156.040206 149.365153 
L 156.052535 149.365153 
L 156.126326 146.731723 
L 156.187581 146.731723 
L 156.297301 138.831432 
L 156.30945 138.831432 
L 156.382164 137.251373 
L 156.466616 137.251373 
L 156.574599 134.091257 
L 156.681918 134.091257 
L 156.788581 130.404454 
L 156.812195 130.404454 
L 156.894595 126.190966 
L 156.92979 126.190966 
L 157.023299 121.977477 
L 157.104709 121.977477 
L 157.174189 118.290674 
L 157.231877 118.290674 
L 157.335239 114.603872 
L 157.346685 114.603872 
L 157.44937 113.5505 
L 157.460743 113.5505 
L 157.517493 108.810325 
L 157.58535 108.810325 
L 157.686643 105.123522 
L 157.709073 105.123522 
L 157.809652 99.856662 
L 157.98704 99.856662 
L 158.096998 95.643173 
L 158.107956 95.643173 
L 158.195371 91.429684 
L 158.28235 91.429684 
L 158.368898 88.269568 
L 158.422772 88.269568 
L 158.530025 84.582765 
L 158.551397 84.582765 
L 158.647247 82.476021 
L 158.668475 82.476021 
L 158.763686 79.842591 
L 158.816356 79.842591 
L 158.921223 76.682474 
L 158.931675 76.682474 
L 159.035853 73.522358 
L 159.066985 73.522358 
L 159.16005 67.728811 
L 159.232092 67.728811 
L 159.334496 64.568694 
L 159.375289 64.568694 
L 159.476858 59.301833 
L 159.486982 59.301833 
L 159.597964 54.561659 
L 159.668223 54.561659 
L 159.778062 51.928228 
L 159.837683 51.928228 
L 159.926735 50.34817 
L 159.956318 50.34817 
L 160.015335 48.241426 
L 160.123015 48.241426 
L 160.210625 46.661368 
L 160.355672 46.661368 
L 160.365299 44.554623 
L 160.575759 44.554623 
L 160.623238 42.974565 
L 160.727241 42.974565 
L 160.830627 39.287762 
L 161.007772 39.287762 
L 161.091058 38.23439 
L 161.238149 38.23439 
L 161.247301 36.654332 
L 161.465522 36.654332 
L 161.53766 35.074274 
L 161.663187 35.074274 
L 161.681046 33.494215 
L 161.858637 33.494215 
L 161.946759 32.440843 
L 161.973109 32.440843 
L 161.990653 31.387471 
L 162.104265 31.387471 
L 162.104265 30.860785 
L 162.277619 30.860785 
L 162.277619 30.334099 
L 338.688 30.334099 
L 338.688 30.334099 
" style="fill:none;stroke:#ff0000;stroke-linecap:square;stroke-width:1.5;"/>
   </g>
   <g id="line2d_48">
    <defs>
     <path d="M 0 -6 
L -5.196152 -3 
L -5.196152 3 
L -0 6 
L 5.196152 3 
L 5.196152 -3 
z
" id="mf4cbe1d14e" style="stroke:#ff0000;stroke-linejoin:miter;stroke-width:1.5;"/>
    </defs>
    <g>
     <use style="fill-opacity:0;stroke:#ff0000;stroke-linejoin:miter;stroke-width:1.5;" x="151.881541" xlink:href="#mf4cbe1d14e" y="236.268356"/>
     <use style="fill-opacity:0;stroke:#ff0000;stroke-linejoin:miter;stroke-width:1.5;" x="159.597964" xlink:href="#mf4cbe1d14e" y="56.668403"/>
     <use style="fill-opacity:0;stroke:#ff0000;stroke-linejoin:miter;stroke-width:1.5;" x="162.277619" xlink:href="#mf4cbe1d14e" y="30.334099"/>
     <use style="fill-opacity:0;stroke:#ff0000;stroke-linejoin:miter;stroke-width:1.5;" x="162.277619" xlink:href="#mf4cbe1d14e" y="30.334099"/>
     <use style="fill-opacity:0;stroke:#ff0000;stroke-linejoin:miter;stroke-width:1.5;" x="338.688" xlink:href="#mf4cbe1d14e" y="30.334099"/>
    </g>
   </g>
   <g id="line2d_49">
    <path style="fill:none;stroke:#ff0000;stroke-linecap:square;stroke-width:1.5;"/>
    <g/>
   </g>
   <g id="line2d_50">
    <defs>
     <path d="M 0 1.5 
C 0.397805 1.5 0.77937 1.341951 1.06066 1.06066 
C 1.341951 0.77937 1.5 0.397805 1.5 0 
C 1.5 -0.397805 1.341951 -0.77937 1.06066 -1.06066 
C 0.77937 -1.341951 0.397805 -1.5 0 -1.5 
C -0.397805 -1.5 -0.77937 -1.341951 -1.06066 -1.06066 
C -1.341951 -0.77937 -1.5 -0.397805 -1.5 0 
C -1.5 0.397805 -1.341951 0.77937 -1.06066 1.06066 
C -0.77937 1.341951 -0.397805 1.5 0 1.5 
z
" id="m97e10134ba" style="stroke:#ff7500;"/>
    </defs>
    <g>
     <use style="fill:#ff7500;stroke:#ff7500;" x="158.401243" xlink:href="#m97e10134ba" y="30.334099"/>
     <use style="fill:#ff7500;stroke:#ff7500;" x="158.401243" xlink:href="#m97e10134ba" y="30.334099"/>
    </g>
   </g>
   <g id="line2d_51">
    <path d="M 134.019394 298.944 
L 134.019394 298.417314 
L 135.199312 298.417314 
L 135.199312 297.890628 
L 135.321124 297.890628 
L 135.321124 297.363942 
L 135.721125 297.363942 
L 135.721125 296.837256 
L 135.839358 296.837256 
L 135.839358 296.31057 
L 135.956794 296.31057 
L 135.956794 295.783884 
L 136.112156 295.783884 
L 136.112156 295.257197 
L 136.227776 295.257197 
L 136.227776 294.730511 
L 136.68274 294.730511 
L 136.68274 294.203825 
L 137.52291 294.203825 
L 137.52291 293.677139 
L 137.664982 293.677139 
L 137.735587 292.623767 
L 137.875944 292.623767 
L 137.875944 291.570395 
L 138.118883 291.570395 
L 138.118883 291.043709 
L 138.561269 291.043709 
L 138.561269 290.517023 
L 138.794909 290.517023 
L 138.89409 289.463651 
L 139.188293 289.463651 
L 139.188293 287.356906 
L 139.541262 287.356906 
L 139.541262 286.83022 
L 139.887228 286.83022 
L 139.887228 286.303534 
L 140.134598 286.303534 
L 140.134598 285.776848 
L 140.469102 285.776848 
L 140.469102 284.723476 
L 140.826843 284.723476 
L 140.915143 283.143418 
L 141.119455 283.143418 
L 141.119455 282.616732 
L 141.71841 282.616732 
L 141.71841 282.090045 
L 141.913576 282.090045 
L 142.024126 278.929929 
L 142.051655 278.929929 
L 142.051655 278.403243 
L 142.351634 278.403243 
L 142.351634 277.876557 
L 142.778958 277.876557 
L 142.778958 276.823185 
L 142.936543 276.823185 
L 142.988757 274.189754 
L 143.170282 274.189754 
L 143.247504 273.136382 
L 143.653678 273.136382 
L 143.653678 271.029638 
L 143.927534 271.029638 
L 144.001481 269.976266 
L 144.221461 269.976266 
L 144.318346 268.396207 
L 144.510517 268.396207 
L 144.53439 266.816149 
L 144.676946 266.816149 
L 144.700592 265.762777 
L 144.794859 265.762777 
L 144.888619 264.709405 
L 145.074639 264.709405 
L 145.143889 263.129347 
L 145.508645 263.129347 
L 145.531191 261.549288 
L 145.665858 261.549288 
L 145.755062 258.915858 
L 145.799493 258.915858 
L 145.910079 256.282427 
L 146.019967 256.282427 
L 146.08557 254.702369 
L 146.194362 254.702369 
L 146.194362 254.175683 
L 146.345539 254.175683 
L 146.345539 253.648997 
L 146.495417 253.648997 
L 146.559258 251.015567 
L 146.622867 251.015567 
L 146.728368 248.908822 
L 146.77039 248.908822 
L 146.77039 248.382136 
L 147.02042 248.382136 
L 147.02042 247.85545 
L 147.164632 247.85545 
L 147.266916 245.748706 
L 147.287301 245.748706 
L 147.287301 245.22202 
L 147.449528 245.22202 
L 147.449528 244.695334 
L 147.570215 244.695334 
L 147.670154 243.115275 
L 147.690073 243.115275 
L 147.70997 239.955159 
L 147.809113 239.955159 
L 147.888024 237.848415 
L 148.005725 237.848415 
L 148.064279 236.795043 
L 148.142046 236.795043 
L 148.23877 230.47481 
L 148.27731 230.47481 
L 148.334961 229.421437 
L 148.411533 229.421437 
L 148.506778 227.314693 
L 148.563676 227.314693 
L 148.658095 225.207949 
L 148.733265 225.207949 
L 148.808112 223.101204 
L 148.882639 223.101204 
L 148.975352 221.521146 
L 149.030744 221.521146 
L 149.141003 217.307658 
L 149.195872 217.307658 
L 149.286939 213.620855 
L 149.377533 213.620855 
L 149.485628 209.407366 
L 149.521512 209.407366 
L 149.628721 206.24725 
L 149.735275 206.24725 
L 149.788308 205.193878 
L 149.911431 205.193878 
L 149.998846 203.613819 
L 150.033689 203.613819 
L 150.120495 199.927017 
L 150.241302 199.927017 
L 150.292822 197.820273 
L 150.361278 197.820273 
L 150.37835 196.7669 
L 150.480434 196.7669 
L 150.54816 193.080098 
L 150.632448 193.080098 
L 150.716332 190.446667 
L 150.833094 190.446667 
L 150.882897 186.233179 
L 150.998554 186.233179 
L 151.097081 180.966318 
L 151.113448 180.966318 
L 151.21133 178.332888 
L 151.260066 178.332888 
L 151.340991 176.226143 
L 151.389366 176.226143 
L 151.485716 172.012655 
L 151.501723 172.012655 
L 151.597455 169.90591 
L 151.645126 169.90591 
L 151.740076 165.692422 
L 151.771612 165.692422 
L 151.865879 161.478933 
L 151.928441 161.478933 
L 152.037389 157.265444 
L 152.130233 157.265444 
L 152.207228 153.578642 
L 152.253262 153.578642 
L 152.299175 152.52527 
L 152.375429 152.52527 
L 152.481628 149.891839 
L 152.496747 149.891839 
L 152.55709 148.838467 
L 152.617226 148.838467 
L 152.721966 146.205037 
L 152.840905 146.205037 
L 152.885298 143.571606 
L 152.959038 143.571606 
L 153.032466 139.358118 
L 153.120174 139.358118 
L 153.221946 135.144629 
L 153.265382 135.144629 
L 153.366312 133.037885 
L 153.452361 133.037885 
L 153.537988 130.93114 
L 153.566437 130.93114 
L 153.651507 128.29771 
L 153.693887 128.29771 
L 153.792374 124.084221 
L 153.820412 124.084221 
L 153.904255 121.977477 
L 153.959927 121.977477 
L 154.029268 118.290674 
L 154.139643 118.290674 
L 154.249325 111.443755 
L 154.344733 111.443755 
L 154.426099 109.337011 
L 154.46664 109.337011 
L 154.533999 105.650209 
L 154.587699 105.650209 
L 154.641235 104.07015 
L 154.707925 104.07015 
L 154.8141 99.856662 
L 154.840544 99.856662 
L 154.919633 96.696545 
L 154.972161 96.696545 
L 155.050658 93.009743 
L 155.141793 93.009743 
L 155.180705 90.376312 
L 155.271165 90.376312 
L 155.28405 88.269568 
L 155.399584 88.269568 
L 155.488919 84.056079 
L 155.55245 84.056079 
L 155.653621 80.895963 
L 155.678822 80.895963 
L 155.766741 76.682474 
L 155.816782 76.682474 
L 155.904009 74.57573 
L 155.953659 74.57573 
L 156.040206 70.888927 
L 156.08947 70.888927 
L 156.150854 67.728811 
L 156.212023 67.728811 
L 156.297301 63.515322 
L 156.394253 63.515322 
L 156.49067 61.935264 
L 156.514691 61.935264 
L 156.610446 59.82852 
L 156.705677 59.82852 
L 156.788581 56.141717 
L 156.835778 56.141717 
L 156.918066 53.508287 
L 156.953214 53.508287 
L 157.046598 50.34817 
L 157.093102 50.34817 
L 157.185742 47.188054 
L 157.208825 47.188054 
L 157.289376 44.027937 
L 157.323784 44.027937 
L 157.335239 42.974565 
L 157.44937 42.974565 
L 157.506157 41.921193 
L 157.56276 41.921193 
L 157.664184 39.287762 
L 157.675417 39.287762 
L 157.731474 37.181018 
L 157.798506 37.181018 
L 157.86528 34.020902 
L 157.909655 34.020902 
L 157.920731 32.440843 
L 158.031107 32.440843 
L 158.031107 31.914157 
L 158.249784 31.914157 
L 158.260646 30.860785 
L 158.401243 30.860785 
L 158.401243 30.334099 
L 338.688 30.334099 
L 338.688 30.334099 
" style="fill:none;stroke:#ff7500;stroke-linecap:square;stroke-width:1.5;"/>
   </g>
   <g id="line2d_52">
    <defs>
     <path d="M 0 -6 
L -1.347084 -1.854102 
L -5.706339 -1.854102 
L -2.179628 0.708204 
L -3.526712 4.854102 
L -0 2.291796 
L 3.526712 4.854102 
L 2.179628 0.708204 
L 5.706339 -1.854102 
L 1.347084 -1.854102 
z
" id="m4ebdf0799b" style="stroke:#ff7500;stroke-linejoin:bevel;stroke-width:1.5;"/>
    </defs>
    <g>
     <use style="fill-opacity:0;stroke:#ff7500;stroke-linejoin:bevel;stroke-width:1.5;" x="153.13475" xlink:href="#m4ebdf0799b" y="138.304745"/>
     <use style="fill-opacity:0;stroke:#ff7500;stroke-linejoin:bevel;stroke-width:1.5;" x="158.401243" xlink:href="#m4ebdf0799b" y="30.860785"/>
     <use style="fill-opacity:0;stroke:#ff7500;stroke-linejoin:bevel;stroke-width:1.5;" x="158.401243" xlink:href="#m4ebdf0799b" y="30.334099"/>
     <use style="fill-opacity:0;stroke:#ff7500;stroke-linejoin:bevel;stroke-width:1.5;" x="158.401243" xlink:href="#m4ebdf0799b" y="30.334099"/>
     <use style="fill-opacity:0;stroke:#ff7500;stroke-linejoin:bevel;stroke-width:1.5;" x="338.688" xlink:href="#m4ebdf0799b" y="30.334099"/>
    </g>
   </g>
   <g id="line2d_53">
    <path style="fill:none;stroke:#ff7500;stroke-linecap:square;stroke-width:1.5;"/>
    <g/>
   </g>
   <g id="line2d_54">
    <path d="M 338.688 30.334099 
L 369.60768 293.571802 
" style="fill:none;stroke:#ff00ff;stroke-linecap:square;stroke-width:1.5;"/>
    <g>
     <use style="fill-opacity:0;stroke:#ff00ff;stroke-linejoin:miter;stroke-width:1.5;" x="338.688" xlink:href="#m90774f57c0" y="30.334099"/>
     <use style="fill-opacity:0;stroke:#ff00ff;stroke-linejoin:miter;stroke-width:1.5;" x="369.60768" xlink:href="#m90774f57c0" y="293.571802"/>
    </g>
   </g>
   <g id="line2d_55">
    <path d="M 338.688 30.334099 
L 369.60768 241.998701 
" style="fill:none;stroke:#ff0000;stroke-linecap:square;stroke-width:1.5;"/>
    <g>
     <use style="fill-opacity:0;stroke:#ff0000;stroke-linejoin:miter;stroke-width:1.5;" x="338.688" xlink:href="#mf4cbe1d14e" y="30.334099"/>
     <use style="fill-opacity:0;stroke:#ff0000;stroke-linejoin:miter;stroke-width:1.5;" x="369.60768" xlink:href="#mf4cbe1d14e" y="241.998701"/>
    </g>
   </g>
   <g id="line2d_56">
    <path d="M 338.688 30.334099 
L 369.60768 190.4256 
" style="fill:none;stroke:#000080;stroke-linecap:square;stroke-width:1.5;"/>
    <g>
     <use style="fill-opacity:0;stroke:#000080;stroke-width:1.5;" x="338.688" xlink:href="#me61c5a3f4c" y="30.334099"/>
     <use style="fill-opacity:0;stroke:#000080;stroke-width:1.5;" x="369.60768" xlink:href="#me61c5a3f4c" y="190.4256"/>
    </g>
   </g>
   <g id="line2d_57">
    <path d="M 338.688 30.334099 
L 369.60768 138.852499 
" style="fill:none;stroke:#ff7500;stroke-linecap:square;stroke-width:1.5;"/>
    <g>
     <use style="fill-opacity:0;stroke:#ff7500;stroke-linejoin:bevel;stroke-width:1.5;" x="338.688" xlink:href="#m4ebdf0799b" y="30.334099"/>
     <use style="fill-opacity:0;stroke:#ff7500;stroke-linejoin:bevel;stroke-width:1.5;" x="369.60768" xlink:href="#m4ebdf0799b" y="138.852499"/>
    </g>
   </g>
   <g id="line2d_58">
    <path d="M 338.688 30.334099 
L 369.60768 87.279398 
" style="fill:none;stroke:#000080;stroke-linecap:square;stroke-width:1.5;"/>
    <g>
     <use style="fill-opacity:0;stroke:#000080;stroke-width:1.5;" x="338.688" xlink:href="#me61c5a3f4c" y="30.334099"/>
     <use style="fill-opacity:0;stroke:#000080;stroke-width:1.5;" x="369.60768" xlink:href="#me61c5a3f4c" y="87.279398"/>
    </g>
   </g>
   <g id="line2d_59">
    <path d="M 338.688 298.944 
L 338.688 30.334099 
" style="fill:none;stroke:#000000;stroke-linecap:square;stroke-width:1.5;"/>
   </g>
   <g id="patch_3">
    <path d="M 57.6 298.944 
L 57.6 27.648 
" style="fill:none;stroke:#000000;stroke-linecap:square;stroke-linejoin:miter;stroke-width:0.8;"/>
   </g>
   <g id="patch_4">
    <path d="M 338.688 298.944 
L 338.688 27.648 
" style="fill:none;stroke:#000000;stroke-linecap:square;stroke-linejoin:miter;stroke-width:0.8;"/>
   </g>
   <g id="patch_5">
    <path d="M 57.6 298.944 
L 338.688 298.944 
" style="fill:none;stroke:#000000;stroke-linecap:square;stroke-linejoin:miter;stroke-width:0.8;"/>
   </g>
   <g id="patch_6">
    <path d="M 57.6 27.648 
L 338.688 27.648 
" style="fill:none;stroke:#000000;stroke-linecap:square;stroke-linejoin:miter;stroke-width:0.8;"/>
   </g>
   <g id="text_13">
    <!-- 400s-2e4 -->
    <g transform="translate(375.22944 298.262739)scale(0.17 -0.17)">
     <use xlink:href="#DejaVuSans-52"/>
     <use x="63.623047" xlink:href="#DejaVuSans-48"/>
     <use x="127.246094" xlink:href="#DejaVuSans-48"/>
     <use x="190.869141" xlink:href="#DejaVuSans-115"/>
     <use x="242.96875" xlink:href="#DejaVuSans-45"/>
     <use x="279.052734" xlink:href="#DejaVuSans-50"/>
     <use x="342.675781" xlink:href="#DejaVuSans-101"/>
     <use x="404.199219" xlink:href="#DejaVuSans-52"/>
    </g>
   </g>
   <g id="text_14">
    <!-- 200s-2e4 -->
    <g transform="translate(375.22944 246.689638)scale(0.17 -0.17)">
     <use xlink:href="#DejaVuSans-50"/>
     <use x="63.623047" xlink:href="#DejaVuSans-48"/>
     <use x="127.246094" xlink:href="#DejaVuSans-48"/>
     <use x="190.869141" xlink:href="#DejaVuSans-115"/>
     <use x="242.96875" xlink:href="#DejaVuSans-45"/>
     <use x="279.052734" xlink:href="#DejaVuSans-50"/>
     <use x="342.675781" xlink:href="#DejaVuSans-101"/>
     <use x="404.199219" xlink:href="#DejaVuSans-52"/>
    </g>
   </g>
   <g id="text_15">
    <!-- 100-2e4 -->
    <g transform="translate(375.22944 195.116537)scale(0.17 -0.17)">
     <use xlink:href="#DejaVuSans-49"/>
     <use x="63.623047" xlink:href="#DejaVuSans-48"/>
     <use x="127.246094" xlink:href="#DejaVuSans-48"/>
     <use x="190.869141" xlink:href="#DejaVuSans-45"/>
     <use x="226.953125" xlink:href="#DejaVuSans-50"/>
     <use x="290.576172" xlink:href="#DejaVuSans-101"/>
     <use x="352.099609" xlink:href="#DejaVuSans-52"/>
    </g>
   </g>
   <g id="text_16">
    <!-- 140s-2e4 -->
    <g transform="translate(375.22944 143.543437)scale(0.17 -0.17)">
     <use xlink:href="#DejaVuSans-49"/>
     <use x="63.623047" xlink:href="#DejaVuSans-52"/>
     <use x="127.246094" xlink:href="#DejaVuSans-48"/>
     <use x="190.869141" xlink:href="#DejaVuSans-115"/>
     <use x="242.96875" xlink:href="#DejaVuSans-45"/>
     <use x="279.052734" xlink:href="#DejaVuSans-50"/>
     <use x="342.675781" xlink:href="#DejaVuSans-101"/>
     <use x="404.199219" xlink:href="#DejaVuSans-52"/>
    </g>
   </g>
   <g id="text_17">
    <!-- 100-1e5 -->
    <defs>
     <path d="M 10.796875 72.90625 
L 49.515625 72.90625 
L 49.515625 64.59375 
L 19.828125 64.59375 
L 19.828125 46.734375 
Q 21.96875 47.46875 24.109375 47.828125 
Q 26.265625 48.1875 28.421875 48.1875 
Q 40.625 48.1875 47.75 41.5 
Q 54.890625 34.8125 54.890625 23.390625 
Q 54.890625 11.625 47.5625 5.09375 
Q 40.234375 -1.421875 26.90625 -1.421875 
Q 22.3125 -1.421875 17.546875 -0.640625 
Q 12.796875 0.140625 7.71875 1.703125 
L 7.71875 11.625 
Q 12.109375 9.234375 16.796875 8.0625 
Q 21.484375 6.890625 26.703125 6.890625 
Q 35.15625 6.890625 40.078125 11.328125 
Q 45.015625 15.765625 45.015625 23.390625 
Q 45.015625 31 40.078125 35.4375 
Q 35.15625 39.890625 26.703125 39.890625 
Q 22.75 39.890625 18.8125 39.015625 
Q 14.890625 38.140625 10.796875 36.28125 
z
" id="DejaVuSans-53"/>
    </defs>
    <g transform="translate(375.22944 91.970336)scale(0.17 -0.17)">
     <use xlink:href="#DejaVuSans-49"/>
     <use x="63.623047" xlink:href="#DejaVuSans-48"/>
     <use x="127.246094" xlink:href="#DejaVuSans-48"/>
     <use x="190.869141" xlink:href="#DejaVuSans-45"/>
     <use x="226.953125" xlink:href="#DejaVuSans-49"/>
     <use x="290.576172" xlink:href="#DejaVuSans-101"/>
     <use x="352.099609" xlink:href="#DejaVuSans-53"/>
    </g>
   </g>
   <g id="text_18">
    <!-- best 2009 -->
    <defs>
     <path d="M 48.6875 27.296875 
Q 48.6875 37.203125 44.609375 42.84375 
Q 40.53125 48.484375 33.40625 48.484375 
Q 26.265625 48.484375 22.1875 42.84375 
Q 18.109375 37.203125 18.109375 27.296875 
Q 18.109375 17.390625 22.1875 11.75 
Q 26.265625 6.109375 33.40625 6.109375 
Q 40.53125 6.109375 44.609375 11.75 
Q 48.6875 17.390625 48.6875 27.296875 
z
M 18.109375 46.390625 
Q 20.953125 51.265625 25.265625 53.625 
Q 29.59375 56 35.59375 56 
Q 45.5625 56 51.78125 48.09375 
Q 58.015625 40.1875 58.015625 27.296875 
Q 58.015625 14.40625 51.78125 6.484375 
Q 45.5625 -1.421875 35.59375 -1.421875 
Q 29.59375 -1.421875 25.265625 0.953125 
Q 20.953125 3.328125 18.109375 8.203125 
L 18.109375 0 
L 9.078125 0 
L 9.078125 75.984375 
L 18.109375 75.984375 
z
" id="DejaVuSans-98"/>
     <path d="M 10.984375 1.515625 
L 10.984375 10.5 
Q 14.703125 8.734375 18.5 7.8125 
Q 22.3125 6.890625 25.984375 6.890625 
Q 35.75 6.890625 40.890625 13.453125 
Q 46.046875 20.015625 46.78125 33.40625 
Q 43.953125 29.203125 39.59375 26.953125 
Q 35.25 24.703125 29.984375 24.703125 
Q 19.046875 24.703125 12.671875 31.3125 
Q 6.296875 37.9375 6.296875 49.421875 
Q 6.296875 60.640625 12.9375 67.421875 
Q 19.578125 74.21875 30.609375 74.21875 
Q 43.265625 74.21875 49.921875 64.515625 
Q 56.59375 54.828125 56.59375 36.375 
Q 56.59375 19.140625 48.40625 8.859375 
Q 40.234375 -1.421875 26.421875 -1.421875 
Q 22.703125 -1.421875 18.890625 -0.6875 
Q 15.09375 0.046875 10.984375 1.515625 
z
M 30.609375 32.421875 
Q 37.25 32.421875 41.125 36.953125 
Q 45.015625 41.5 45.015625 49.421875 
Q 45.015625 57.28125 41.125 61.84375 
Q 37.25 66.40625 30.609375 66.40625 
Q 23.96875 66.40625 20.09375 61.84375 
Q 16.21875 57.28125 16.21875 49.421875 
Q 16.21875 41.5 20.09375 36.953125 
Q 23.96875 32.421875 30.609375 32.421875 
z
" id="DejaVuSans-57"/>
    </defs>
    <g transform="translate(375.22944 40.397235)scale(0.17 -0.17)">
     <use xlink:href="#DejaVuSans-98"/>
     <use x="63.476562" xlink:href="#DejaVuSans-101"/>
     <use x="125" xlink:href="#DejaVuSans-115"/>
     <use x="177.099609" xlink:href="#DejaVuSans-116"/>
     <use x="216.308594" xlink:href="#DejaVuSans-32"/>
     <use x="248.095703" xlink:href="#DejaVuSans-50"/>
     <use x="311.71875" xlink:href="#DejaVuSans-48"/>
     <use x="375.341797" xlink:href="#DejaVuSans-48"/>
     <use x="438.964844" xlink:href="#DejaVuSans-57"/>
    </g>
   </g>
   <g id="text_19">
    <!-- bbob f10, 5-D -->
    <defs>
     <path d="M 19.671875 64.796875 
L 19.671875 8.109375 
L 31.59375 8.109375 
Q 46.6875 8.109375 53.6875 14.9375 
Q 60.6875 21.78125 60.6875 36.53125 
Q 60.6875 51.171875 53.6875 57.984375 
Q 46.6875 64.796875 31.59375 64.796875 
z
M 9.8125 72.90625 
L 30.078125 72.90625 
Q 51.265625 72.90625 61.171875 64.09375 
Q 71.09375 55.28125 71.09375 36.53125 
Q 71.09375 17.671875 61.125 8.828125 
Q 51.171875 0 30.078125 0 
L 9.8125 0 
z
" id="DejaVuSans-68"/>
    </defs>
    <g transform="translate(60.41088 38.111366)scale(0.102 -0.102)">
     <use xlink:href="#DejaVuSans-98"/>
     <use x="63.476562" xlink:href="#DejaVuSans-98"/>
     <use x="126.953125" xlink:href="#DejaVuSans-111"/>
     <use x="188.134766" xlink:href="#DejaVuSans-98"/>
     <use x="251.611328" xlink:href="#DejaVuSans-32"/>
     <use x="283.398438" xlink:href="#DejaVuSans-102"/>
     <use x="318.603516" xlink:href="#DejaVuSans-49"/>
     <use x="382.226562" xlink:href="#DejaVuSans-48"/>
     <use x="445.849609" xlink:href="#DejaVuSans-44"/>
     <use x="477.636719" xlink:href="#DejaVuSans-32"/>
     <use x="509.423828" xlink:href="#DejaVuSans-53"/>
     <use x="573.046875" xlink:href="#DejaVuSans-45"/>
     <use x="609.130859" xlink:href="#DejaVuSans-68"/>
    </g>
    <!-- 51 targets: 100..1e-08 -->
    <defs>
     <path d="M 11.71875 12.40625 
L 22.015625 12.40625 
L 22.015625 0 
L 11.71875 0 
z
M 11.71875 51.703125 
L 22.015625 51.703125 
L 22.015625 39.3125 
L 11.71875 39.3125 
z
" id="DejaVuSans-58"/>
    </defs>
    <g transform="translate(60.41088 49.533135)scale(0.102 -0.102)">
     <use xlink:href="#DejaVuSans-53"/>
     <use x="63.623047" xlink:href="#DejaVuSans-49"/>
     <use x="127.246094" xlink:href="#DejaVuSans-32"/>
     <use x="159.033203" xlink:href="#DejaVuSans-116"/>
     <use x="198.242188" xlink:href="#DejaVuSans-97"/>
     <use x="259.521484" xlink:href="#DejaVuSans-114"/>
     <use x="300.619141" xlink:href="#DejaVuSans-103"/>
     <use x="364.095703" xlink:href="#DejaVuSans-101"/>
     <use x="425.619141" xlink:href="#DejaVuSans-116"/>
     <use x="464.828125" xlink:href="#DejaVuSans-115"/>
     <use x="516.927734" xlink:href="#DejaVuSans-58"/>
     <use x="550.619141" xlink:href="#DejaVuSans-32"/>
     <use x="582.40625" xlink:href="#DejaVuSans-49"/>
     <use x="646.029297" xlink:href="#DejaVuSans-48"/>
     <use x="709.652344" xlink:href="#DejaVuSans-48"/>
     <use x="773.275391" xlink:href="#DejaVuSans-46"/>
     <use x="805.0625" xlink:href="#DejaVuSans-46"/>
     <use x="836.849609" xlink:href="#DejaVuSans-49"/>
     <use x="900.472656" xlink:href="#DejaVuSans-101"/>
     <use x="961.996094" xlink:href="#DejaVuSans-45"/>
     <use x="998.080078" xlink:href="#DejaVuSans-48"/>
     <use x="1061.703125" xlink:href="#DejaVuSans-56"/>
    </g>
    <!-- 15 instances -->
    <g transform="translate(60.41088 60.954904)scale(0.102 -0.102)">
     <use xlink:href="#DejaVuSans-49"/>
     <use x="63.623047" xlink:href="#DejaVuSans-53"/>
     <use x="127.246094" xlink:href="#DejaVuSans-32"/>
     <use x="159.033203" xlink:href="#DejaVuSans-105"/>
     <use x="186.816406" xlink:href="#DejaVuSans-110"/>
     <use x="250.195312" xlink:href="#DejaVuSans-115"/>
     <use x="302.294922" xlink:href="#DejaVuSans-116"/>
     <use x="341.503906" xlink:href="#DejaVuSans-97"/>
     <use x="402.783203" xlink:href="#DejaVuSans-110"/>
     <use x="466.162109" xlink:href="#DejaVuSans-99"/>
     <use x="521.142578" xlink:href="#DejaVuSans-101"/>
     <use x="582.666016" xlink:href="#DejaVuSans-115"/>
    </g>
   </g>
   <g id="text_20">
    <!-- v2.3.3.18.73 -->
    <defs>
     <path d="M 40.578125 39.3125 
Q 47.65625 37.796875 51.625 33 
Q 55.609375 28.21875 55.609375 21.1875 
Q 55.609375 10.40625 48.1875 4.484375 
Q 40.765625 -1.421875 27.09375 -1.421875 
Q 22.515625 -1.421875 17.65625 -0.515625 
Q 12.796875 0.390625 7.625 2.203125 
L 7.625 11.71875 
Q 11.71875 9.328125 16.59375 8.109375 
Q 21.484375 6.890625 26.8125 6.890625 
Q 36.078125 6.890625 40.9375 10.546875 
Q 45.796875 14.203125 45.796875 21.1875 
Q 45.796875 27.640625 41.28125 31.265625 
Q 36.765625 34.90625 28.71875 34.90625 
L 20.21875 34.90625 
L 20.21875 43.015625 
L 29.109375 43.015625 
Q 36.375 43.015625 40.234375 45.921875 
Q 44.09375 48.828125 44.09375 54.296875 
Q 44.09375 59.90625 40.109375 62.90625 
Q 36.140625 65.921875 28.71875 65.921875 
Q 24.65625 65.921875 20.015625 65.03125 
Q 15.375 64.15625 9.8125 62.3125 
L 9.8125 71.09375 
Q 15.4375 72.65625 20.34375 73.4375 
Q 25.25 74.21875 29.59375 74.21875 
Q 40.828125 74.21875 47.359375 69.109375 
Q 53.90625 64.015625 53.90625 55.328125 
Q 53.90625 49.265625 50.4375 45.09375 
Q 46.96875 40.921875 40.578125 39.3125 
z
" id="DejaVuSans-51"/>
     <path d="M 8.203125 72.90625 
L 55.078125 72.90625 
L 55.078125 68.703125 
L 28.609375 0 
L 18.3125 0 
L 43.21875 64.59375 
L 8.203125 64.59375 
z
" id="DejaVuSans-55"/>
    </defs>
    <g style="fill:#808080;" transform="translate(166.559625 294.151352)scale(0.1 -0.1)">
     <use xlink:href="#DejaVuSans-118"/>
     <use x="59.179688" xlink:href="#DejaVuSans-50"/>
     <use x="122.802734" xlink:href="#DejaVuSans-46"/>
     <use x="154.589844" xlink:href="#DejaVuSans-51"/>
     <use x="218.212891" xlink:href="#DejaVuSans-46"/>
     <use x="250" xlink:href="#DejaVuSans-51"/>
     <use x="313.623047" xlink:href="#DejaVuSans-46"/>
     <use x="345.410156" xlink:href="#DejaVuSans-49"/>
     <use x="409.033203" xlink:href="#DejaVuSans-56"/>
     <use x="472.65625" xlink:href="#DejaVuSans-46"/>
     <use x="504.443359" xlink:href="#DejaVuSans-55"/>
     <use x="568.066406" xlink:href="#DejaVuSans-51"/>
    </g>
   </g>
   <g id="text_21">
    <!-- 10 Ellipsoid -->
    <defs>
     <path d="M 9.8125 72.90625 
L 55.90625 72.90625 
L 55.90625 64.59375 
L 19.671875 64.59375 
L 19.671875 43.015625 
L 54.390625 43.015625 
L 54.390625 34.71875 
L 19.671875 34.71875 
L 19.671875 8.296875 
L 56.78125 8.296875 
L 56.78125 0 
L 9.8125 0 
z
" id="DejaVuSans-69"/>
    </defs>
    <g transform="translate(140.784625 21.648)scale(0.2 -0.2)">
     <use xlink:href="#DejaVuSans-49"/>
     <use x="63.623047" xlink:href="#DejaVuSans-48"/>
     <use x="127.246094" xlink:href="#DejaVuSans-32"/>
     <use x="159.033203" xlink:href="#DejaVuSans-69"/>
     <use x="222.216797" xlink:href="#DejaVuSans-108"/>
     <use x="250" xlink:href="#DejaVuSans-108"/>
     <use x="277.783203" xlink:href="#DejaVuSans-105"/>
     <use x="305.566406" xlink:href="#DejaVuSans-112"/>
     <use x="369.042969" xlink:href="#DejaVuSans-115"/>
     <use x="421.142578" xlink:href="#DejaVuSans-111"/>
     <use x="482.324219" xlink:href="#DejaVuSans-105"/>
     <use x="510.107422" xlink:href="#DejaVuSans-100"/>
    </g>
   </g>
  </g>
 </g>
 <defs>
  <clipPath id="p109d833c04">
   <rect height="271.296" width="281.088" x="57.6" y="27.648"/>
  </clipPath>
 </defs>
</svg>
