<?xml version="1.0" encoding="utf-8" standalone="no"?>
<!DOCTYPE svg PUBLIC "-//W3C//DTD SVG 1.1//EN"
  "http://www.w3.org/Graphics/SVG/1.1/DTD/svg11.dtd">
<!-- Created with matplotlib (https://matplotlib.org/) -->
<svg height="345.6pt" version="1.1" viewBox="0 0 460.8 345.6" width="460.8pt" xmlns="http://www.w3.org/2000/svg" xmlns:xlink="http://www.w3.org/1999/xlink">
 <defs>
  <style type="text/css">
*{stroke-linecap:butt;stroke-linejoin:round;}
  </style>
 </defs>
 <g id="figure_1">
  <g id="patch_1">
   <path d="M 0 345.6 
L 460.8 345.6 
L 460.8 0 
L 0 0 
z
" style="fill:#ffffff;"/>
  </g>
  <g id="axes_1">
   <g id="patch_2">
    <path d="M 57.6 298.944 
L 338.688 298.944 
L 338.688 27.648 
L 57.6 27.648 
z
" style="fill:#ffffff;"/>
   </g>
   <g id="line2d_1">
    <path d="M 149.11121 298.944 
L 149.11121 293.677139 
L 164.781961 293.677139 
L 164.781961 288.410278 
L 171.540143 288.410278 
L 171.540143 283.143418 
L 188.703239 283.143418 
L 188.703239 277.876557 
L 194.372948 277.876557 
L 194.372948 272.609696 
L 205.049375 272.609696 
L 205.049375 267.342835 
L 215.781805 267.342835 
L 215.781805 262.075974 
L 223.11957 262.075974 
L 223.11957 256.809114 
L 227.589523 256.809114 
L 227.589523 251.542253 
L 229.802524 251.542253 
L 229.802524 246.275392 
L 230.020773 246.275392 
L 230.020773 241.008531 
L 234.827317 241.008531 
L 234.827317 235.74167 
L 234.8777 235.74167 
L 234.8777 230.47481 
L 234.922768 230.47481 
L 234.922768 225.207949 
L 234.977831 225.207949 
L 234.977831 219.941088 
L 235.029212 219.941088 
L 235.029212 214.674227 
L 235.076844 214.674227 
L 235.076844 209.407366 
L 235.127587 209.407366 
L 235.127587 204.140506 
L 235.170844 204.140506 
L 235.170844 198.873645 
L 235.223732 198.873645 
L 235.223732 193.606784 
L 235.274428 193.606784 
L 235.274428 188.339923 
L 235.31603 188.339923 
L 235.31603 183.073062 
L 235.372623 183.073062 
L 235.372623 177.806202 
L 235.421392 177.806202 
L 235.421392 172.539341 
L 235.464511 172.539341 
L 235.464511 167.27248 
L 235.516906 167.27248 
L 235.516906 162.005619 
L 235.559871 162.005619 
L 235.559871 156.738758 
L 235.610629 156.738758 
L 235.610629 151.471897 
L 235.654695 151.471897 
L 235.654695 146.205037 
L 235.711113 146.205037 
L 235.711113 140.938176 
L 235.755357 140.938176 
L 235.755357 135.671315 
L 235.796689 135.671315 
L 235.796689 130.404454 
L 235.850397 130.404454 
L 235.850397 125.137593 
L 235.901758 125.137593 
L 235.901758 119.870733 
L 235.946058 119.870733 
L 235.946058 114.603872 
L 235.986185 114.603872 
L 235.986185 109.337011 
L 236.029768 109.337011 
L 236.029768 104.07015 
L 236.080463 104.07015 
L 236.080463 98.803289 
L 236.125093 98.803289 
L 236.125093 93.536429 
L 236.174983 93.536429 
L 236.174983 88.269568 
L 236.223674 88.269568 
L 236.223674 83.002707 
L 236.268203 83.002707 
L 236.268203 77.735846 
L 236.312525 77.735846 
L 236.312525 72.468985 
L 236.361343 72.468985 
L 236.361343 67.202125 
L 236.405353 67.202125 
L 236.405353 61.935264 
L 236.449145 61.935264 
L 236.449145 56.668403 
L 236.494494 56.668403 
L 236.494494 51.401542 
L 236.53489 51.401542 
L 236.53489 46.134681 
L 236.580915 46.134681 
L 236.580915 40.867821 
L 236.625604 40.867821 
L 236.625604 35.60096 
L 236.668135 35.60096 
L 236.668135 30.334099 
L 338.688 30.334099 
" style="fill:none;stroke:#f5deb3;stroke-linecap:square;stroke-width:4;"/>
   </g>
   <g id="line2d_2">
    <defs>
     <path d="M -0 7.778175 
L 7.778175 0 
L 0 -7.778175 
L -7.778175 -0 
z
" id="m00d662ced7" style="stroke:#f5deb3;stroke-linejoin:miter;stroke-width:1.5;"/>
    </defs>
    <g>
     <use style="fill:#f5deb3;stroke:#f5deb3;stroke-linejoin:miter;stroke-width:1.5;" x="227.589523" xlink:href="#m00d662ced7" y="251.542253"/>
     <use style="fill:#f5deb3;stroke:#f5deb3;stroke-linejoin:miter;stroke-width:1.5;" x="235.755357" xlink:href="#m00d662ced7" y="140.938176"/>
     <use style="fill:#f5deb3;stroke:#f5deb3;stroke-linejoin:miter;stroke-width:1.5;" x="236.668135" xlink:href="#m00d662ced7" y="35.60096"/>
     <use style="fill:#f5deb3;stroke:#f5deb3;stroke-linejoin:miter;stroke-width:1.5;" x="236.668135" xlink:href="#m00d662ced7" y="30.334099"/>
     <use style="fill:#f5deb3;stroke:#f5deb3;stroke-linejoin:miter;stroke-width:1.5;" x="338.688" xlink:href="#m00d662ced7" y="30.334099"/>
    </g>
   </g>
   <g id="line2d_3">
    <path style="fill:none;stroke:#f5deb3;stroke-linecap:square;stroke-width:4;"/>
    <g/>
   </g>
   <g id="line2d_4">
    <path d="M 338.688 30.334099 
L 369.60768 35.706297 
" style="fill:none;stroke:#f5deb3;stroke-linecap:square;stroke-width:4;"/>
    <g>
     <use style="fill:#f5deb3;stroke:#f5deb3;stroke-linejoin:miter;stroke-width:1.5;" x="338.688" xlink:href="#m00d662ced7" y="30.334099"/>
     <use style="fill:#f5deb3;stroke:#f5deb3;stroke-linejoin:miter;stroke-width:1.5;" x="369.60768" xlink:href="#m00d662ced7" y="35.706297"/>
    </g>
   </g>
   <g id="matplotlib.axis_1">
    <g id="xtick_1">
     <g id="line2d_5">
      <path clip-path="url(#p6c3e27ce70)" d="M 57.6 298.944 
L 57.6 27.648 
" style="fill:none;stroke:#b0b0b0;stroke-linecap:square;stroke-width:0.8;"/>
     </g>
     <g id="line2d_6">
      <defs>
       <path d="M 0 0 
L 0 3.5 
" id="me26f822805" style="stroke:#000000;stroke-width:0.8;"/>
      </defs>
      <g>
       <use style="stroke:#000000;stroke-width:0.8;" x="57.6" xlink:href="#me26f822805" y="298.944"/>
      </g>
     </g>
     <g id="text_1">
      <!-- 0 -->
      <defs>
       <path d="M 31.78125 66.40625 
Q 24.171875 66.40625 20.328125 58.90625 
Q 16.5 51.421875 16.5 36.375 
Q 16.5 21.390625 20.328125 13.890625 
Q 24.171875 6.390625 31.78125 6.390625 
Q 39.453125 6.390625 43.28125 13.890625 
Q 47.125 21.390625 47.125 36.375 
Q 47.125 51.421875 43.28125 58.90625 
Q 39.453125 66.40625 31.78125 66.40625 
z
M 31.78125 74.21875 
Q 44.046875 74.21875 50.515625 64.515625 
Q 56.984375 54.828125 56.984375 36.375 
Q 56.984375 17.96875 50.515625 8.265625 
Q 44.046875 -1.421875 31.78125 -1.421875 
Q 19.53125 -1.421875 13.0625 8.265625 
Q 6.59375 17.96875 6.59375 36.375 
Q 6.59375 54.828125 13.0625 64.515625 
Q 19.53125 74.21875 31.78125 74.21875 
z
" id="DejaVuSans-48"/>
      </defs>
      <g transform="translate(51.2375 321.140875)scale(0.2 -0.2)">
       <use xlink:href="#DejaVuSans-48"/>
      </g>
     </g>
    </g>
    <g id="xtick_2">
     <g id="line2d_7">
      <path clip-path="url(#p6c3e27ce70)" d="M 137.910857 298.944 
L 137.910857 27.648 
" style="fill:none;stroke:#b0b0b0;stroke-linecap:square;stroke-width:0.8;"/>
     </g>
     <g id="line2d_8">
      <g>
       <use style="stroke:#000000;stroke-width:0.8;" x="137.910857" xlink:href="#me26f822805" y="298.944"/>
      </g>
     </g>
     <g id="text_2">
      <!-- 2 -->
      <defs>
       <path d="M 19.1875 8.296875 
L 53.609375 8.296875 
L 53.609375 0 
L 7.328125 0 
L 7.328125 8.296875 
Q 12.9375 14.109375 22.625 23.890625 
Q 32.328125 33.6875 34.8125 36.53125 
Q 39.546875 41.84375 41.421875 45.53125 
Q 43.3125 49.21875 43.3125 52.78125 
Q 43.3125 58.59375 39.234375 62.25 
Q 35.15625 65.921875 28.609375 65.921875 
Q 23.96875 65.921875 18.8125 64.3125 
Q 13.671875 62.703125 7.8125 59.421875 
L 7.8125 69.390625 
Q 13.765625 71.78125 18.9375 73 
Q 24.125 74.21875 28.421875 74.21875 
Q 39.75 74.21875 46.484375 68.546875 
Q 53.21875 62.890625 53.21875 53.421875 
Q 53.21875 48.921875 51.53125 44.890625 
Q 49.859375 40.875 45.40625 35.40625 
Q 44.1875 33.984375 37.640625 27.21875 
Q 31.109375 20.453125 19.1875 8.296875 
z
" id="DejaVuSans-50"/>
      </defs>
      <g transform="translate(131.548357 321.140875)scale(0.2 -0.2)">
       <use xlink:href="#DejaVuSans-50"/>
      </g>
     </g>
    </g>
    <g id="xtick_3">
     <g id="line2d_9">
      <path clip-path="url(#p6c3e27ce70)" d="M 218.221714 298.944 
L 218.221714 27.648 
" style="fill:none;stroke:#b0b0b0;stroke-linecap:square;stroke-width:0.8;"/>
     </g>
     <g id="line2d_10">
      <g>
       <use style="stroke:#000000;stroke-width:0.8;" x="218.221714" xlink:href="#me26f822805" y="298.944"/>
      </g>
     </g>
     <g id="text_3">
      <!-- 4 -->
      <defs>
       <path d="M 37.796875 64.3125 
L 12.890625 25.390625 
L 37.796875 25.390625 
z
M 35.203125 72.90625 
L 47.609375 72.90625 
L 47.609375 25.390625 
L 58.015625 25.390625 
L 58.015625 17.1875 
L 47.609375 17.1875 
L 47.609375 0 
L 37.796875 0 
L 37.796875 17.1875 
L 4.890625 17.1875 
L 4.890625 26.703125 
z
" id="DejaVuSans-52"/>
      </defs>
      <g transform="translate(211.859214 321.140875)scale(0.2 -0.2)">
       <use xlink:href="#DejaVuSans-52"/>
      </g>
     </g>
    </g>
    <g id="xtick_4">
     <g id="line2d_11">
      <path clip-path="url(#p6c3e27ce70)" d="M 298.532571 298.944 
L 298.532571 27.648 
" style="fill:none;stroke:#b0b0b0;stroke-linecap:square;stroke-width:0.8;"/>
     </g>
     <g id="line2d_12">
      <g>
       <use style="stroke:#000000;stroke-width:0.8;" x="298.532571" xlink:href="#me26f822805" y="298.944"/>
      </g>
     </g>
     <g id="text_4">
      <!-- 6 -->
      <defs>
       <path d="M 33.015625 40.375 
Q 26.375 40.375 22.484375 35.828125 
Q 18.609375 31.296875 18.609375 23.390625 
Q 18.609375 15.53125 22.484375 10.953125 
Q 26.375 6.390625 33.015625 6.390625 
Q 39.65625 6.390625 43.53125 10.953125 
Q 47.40625 15.53125 47.40625 23.390625 
Q 47.40625 31.296875 43.53125 35.828125 
Q 39.65625 40.375 33.015625 40.375 
z
M 52.59375 71.296875 
L 52.59375 62.3125 
Q 48.875 64.0625 45.09375 64.984375 
Q 41.3125 65.921875 37.59375 65.921875 
Q 27.828125 65.921875 22.671875 59.328125 
Q 17.53125 52.734375 16.796875 39.40625 
Q 19.671875 43.65625 24.015625 45.921875 
Q 28.375 48.1875 33.59375 48.1875 
Q 44.578125 48.1875 50.953125 41.515625 
Q 57.328125 34.859375 57.328125 23.390625 
Q 57.328125 12.15625 50.6875 5.359375 
Q 44.046875 -1.421875 33.015625 -1.421875 
Q 20.359375 -1.421875 13.671875 8.265625 
Q 6.984375 17.96875 6.984375 36.375 
Q 6.984375 53.65625 15.1875 63.9375 
Q 23.390625 74.21875 37.203125 74.21875 
Q 40.921875 74.21875 44.703125 73.484375 
Q 48.484375 72.75 52.59375 71.296875 
z
" id="DejaVuSans-54"/>
      </defs>
      <g transform="translate(292.170071 321.140875)scale(0.2 -0.2)">
       <use xlink:href="#DejaVuSans-54"/>
      </g>
     </g>
    </g>
    <g id="xtick_5">
     <g id="line2d_13">
      <path clip-path="url(#p6c3e27ce70)" d="M 97.755429 298.944 
L 97.755429 27.648 
" style="fill:none;stroke:#b0b0b0;stroke-linecap:square;stroke-width:0.8;"/>
     </g>
     <g id="line2d_14">
      <defs>
       <path d="M 0 0 
L 0 2 
" id="mb4453637bf" style="stroke:#000000;stroke-width:0.6;"/>
      </defs>
      <g>
       <use style="stroke:#000000;stroke-width:0.6;" x="97.755429" xlink:href="#mb4453637bf" y="298.944"/>
      </g>
     </g>
    </g>
    <g id="xtick_6">
     <g id="line2d_15">
      <path clip-path="url(#p6c3e27ce70)" d="M 178.066286 298.944 
L 178.066286 27.648 
" style="fill:none;stroke:#b0b0b0;stroke-linecap:square;stroke-width:0.8;"/>
     </g>
     <g id="line2d_16">
      <g>
       <use style="stroke:#000000;stroke-width:0.6;" x="178.066286" xlink:href="#mb4453637bf" y="298.944"/>
      </g>
     </g>
    </g>
    <g id="xtick_7">
     <g id="line2d_17">
      <path clip-path="url(#p6c3e27ce70)" d="M 258.377143 298.944 
L 258.377143 27.648 
" style="fill:none;stroke:#b0b0b0;stroke-linecap:square;stroke-width:0.8;"/>
     </g>
     <g id="line2d_18">
      <g>
       <use style="stroke:#000000;stroke-width:0.6;" x="258.377143" xlink:href="#mb4453637bf" y="298.944"/>
      </g>
     </g>
    </g>
    <g id="xtick_8">
     <g id="line2d_19">
      <path clip-path="url(#p6c3e27ce70)" d="M 338.688 298.944 
L 338.688 27.648 
" style="fill:none;stroke:#b0b0b0;stroke-linecap:square;stroke-width:0.8;"/>
     </g>
     <g id="line2d_20">
      <g>
       <use style="stroke:#000000;stroke-width:0.6;" x="338.688" xlink:href="#mb4453637bf" y="298.944"/>
      </g>
     </g>
    </g>
    <g id="text_5">
     <!-- log10(# f-evals / dimension) -->
     <defs>
      <path d="M 9.421875 75.984375 
L 18.40625 75.984375 
L 18.40625 0 
L 9.421875 0 
z
" id="DejaVuSans-108"/>
      <path d="M 30.609375 48.390625 
Q 23.390625 48.390625 19.1875 42.75 
Q 14.984375 37.109375 14.984375 27.296875 
Q 14.984375 17.484375 19.15625 11.84375 
Q 23.34375 6.203125 30.609375 6.203125 
Q 37.796875 6.203125 41.984375 11.859375 
Q 46.1875 17.53125 46.1875 27.296875 
Q 46.1875 37.015625 41.984375 42.703125 
Q 37.796875 48.390625 30.609375 48.390625 
z
M 30.609375 56 
Q 42.328125 56 49.015625 48.375 
Q 55.71875 40.765625 55.71875 27.296875 
Q 55.71875 13.875 49.015625 6.21875 
Q 42.328125 -1.421875 30.609375 -1.421875 
Q 18.84375 -1.421875 12.171875 6.21875 
Q 5.515625 13.875 5.515625 27.296875 
Q 5.515625 40.765625 12.171875 48.375 
Q 18.84375 56 30.609375 56 
z
" id="DejaVuSans-111"/>
      <path d="M 45.40625 27.984375 
Q 45.40625 37.75 41.375 43.109375 
Q 37.359375 48.484375 30.078125 48.484375 
Q 22.859375 48.484375 18.828125 43.109375 
Q 14.796875 37.75 14.796875 27.984375 
Q 14.796875 18.265625 18.828125 12.890625 
Q 22.859375 7.515625 30.078125 7.515625 
Q 37.359375 7.515625 41.375 12.890625 
Q 45.40625 18.265625 45.40625 27.984375 
z
M 54.390625 6.78125 
Q 54.390625 -7.171875 48.1875 -13.984375 
Q 42 -20.796875 29.203125 -20.796875 
Q 24.46875 -20.796875 20.265625 -20.09375 
Q 16.0625 -19.390625 12.109375 -17.921875 
L 12.109375 -9.1875 
Q 16.0625 -11.328125 19.921875 -12.34375 
Q 23.78125 -13.375 27.78125 -13.375 
Q 36.625 -13.375 41.015625 -8.765625 
Q 45.40625 -4.15625 45.40625 5.171875 
L 45.40625 9.625 
Q 42.625 4.78125 38.28125 2.390625 
Q 33.9375 0 27.875 0 
Q 17.828125 0 11.671875 7.65625 
Q 5.515625 15.328125 5.515625 27.984375 
Q 5.515625 40.671875 11.671875 48.328125 
Q 17.828125 56 27.875 56 
Q 33.9375 56 38.28125 53.609375 
Q 42.625 51.21875 45.40625 46.390625 
L 45.40625 54.6875 
L 54.390625 54.6875 
z
" id="DejaVuSans-103"/>
      <path d="M 12.40625 8.296875 
L 28.515625 8.296875 
L 28.515625 63.921875 
L 10.984375 60.40625 
L 10.984375 69.390625 
L 28.421875 72.90625 
L 38.28125 72.90625 
L 38.28125 8.296875 
L 54.390625 8.296875 
L 54.390625 0 
L 12.40625 0 
z
" id="DejaVuSans-49"/>
      <path d="M 31 75.875 
Q 24.46875 64.65625 21.28125 53.65625 
Q 18.109375 42.671875 18.109375 31.390625 
Q 18.109375 20.125 21.3125 9.0625 
Q 24.515625 -2 31 -13.1875 
L 23.1875 -13.1875 
Q 15.875 -1.703125 12.234375 9.375 
Q 8.59375 20.453125 8.59375 31.390625 
Q 8.59375 42.28125 12.203125 53.3125 
Q 15.828125 64.359375 23.1875 75.875 
z
" id="DejaVuSans-40"/>
      <path d="M 51.125 44 
L 36.921875 44 
L 32.8125 27.6875 
L 47.125 27.6875 
z
M 43.796875 71.78125 
L 38.71875 51.515625 
L 52.984375 51.515625 
L 58.109375 71.78125 
L 65.921875 71.78125 
L 60.890625 51.515625 
L 76.125 51.515625 
L 76.125 44 
L 58.984375 44 
L 54.984375 27.6875 
L 70.515625 27.6875 
L 70.515625 20.21875 
L 53.078125 20.21875 
L 48 0 
L 40.1875 0 
L 45.21875 20.21875 
L 30.90625 20.21875 
L 25.875 0 
L 18.015625 0 
L 23.09375 20.21875 
L 7.71875 20.21875 
L 7.71875 27.6875 
L 24.90625 27.6875 
L 29 44 
L 13.28125 44 
L 13.28125 51.515625 
L 30.90625 51.515625 
L 35.890625 71.78125 
z
" id="DejaVuSans-35"/>
      <path id="DejaVuSans-32"/>
      <path d="M 37.109375 75.984375 
L 37.109375 68.5 
L 28.515625 68.5 
Q 23.6875 68.5 21.796875 66.546875 
Q 19.921875 64.59375 19.921875 59.515625 
L 19.921875 54.6875 
L 34.71875 54.6875 
L 34.71875 47.703125 
L 19.921875 47.703125 
L 19.921875 0 
L 10.890625 0 
L 10.890625 47.703125 
L 2.296875 47.703125 
L 2.296875 54.6875 
L 10.890625 54.6875 
L 10.890625 58.5 
Q 10.890625 67.625 15.140625 71.796875 
Q 19.390625 75.984375 28.609375 75.984375 
z
" id="DejaVuSans-102"/>
      <path d="M 4.890625 31.390625 
L 31.203125 31.390625 
L 31.203125 23.390625 
L 4.890625 23.390625 
z
" id="DejaVuSans-45"/>
      <path d="M 56.203125 29.59375 
L 56.203125 25.203125 
L 14.890625 25.203125 
Q 15.484375 15.921875 20.484375 11.0625 
Q 25.484375 6.203125 34.421875 6.203125 
Q 39.59375 6.203125 44.453125 7.46875 
Q 49.3125 8.734375 54.109375 11.28125 
L 54.109375 2.78125 
Q 49.265625 0.734375 44.1875 -0.34375 
Q 39.109375 -1.421875 33.890625 -1.421875 
Q 20.796875 -1.421875 13.15625 6.1875 
Q 5.515625 13.8125 5.515625 26.8125 
Q 5.515625 40.234375 12.765625 48.109375 
Q 20.015625 56 32.328125 56 
Q 43.359375 56 49.78125 48.890625 
Q 56.203125 41.796875 56.203125 29.59375 
z
M 47.21875 32.234375 
Q 47.125 39.59375 43.09375 43.984375 
Q 39.0625 48.390625 32.421875 48.390625 
Q 24.90625 48.390625 20.390625 44.140625 
Q 15.875 39.890625 15.1875 32.171875 
z
" id="DejaVuSans-101"/>
      <path d="M 2.984375 54.6875 
L 12.5 54.6875 
L 29.59375 8.796875 
L 46.6875 54.6875 
L 56.203125 54.6875 
L 35.6875 0 
L 23.484375 0 
z
" id="DejaVuSans-118"/>
      <path d="M 34.28125 27.484375 
Q 23.390625 27.484375 19.1875 25 
Q 14.984375 22.515625 14.984375 16.5 
Q 14.984375 11.71875 18.140625 8.90625 
Q 21.296875 6.109375 26.703125 6.109375 
Q 34.1875 6.109375 38.703125 11.40625 
Q 43.21875 16.703125 43.21875 25.484375 
L 43.21875 27.484375 
z
M 52.203125 31.203125 
L 52.203125 0 
L 43.21875 0 
L 43.21875 8.296875 
Q 40.140625 3.328125 35.546875 0.953125 
Q 30.953125 -1.421875 24.3125 -1.421875 
Q 15.921875 -1.421875 10.953125 3.296875 
Q 6 8.015625 6 15.921875 
Q 6 25.140625 12.171875 29.828125 
Q 18.359375 34.515625 30.609375 34.515625 
L 43.21875 34.515625 
L 43.21875 35.40625 
Q 43.21875 41.609375 39.140625 45 
Q 35.0625 48.390625 27.6875 48.390625 
Q 23 48.390625 18.546875 47.265625 
Q 14.109375 46.140625 10.015625 43.890625 
L 10.015625 52.203125 
Q 14.9375 54.109375 19.578125 55.046875 
Q 24.21875 56 28.609375 56 
Q 40.484375 56 46.34375 49.84375 
Q 52.203125 43.703125 52.203125 31.203125 
z
" id="DejaVuSans-97"/>
      <path d="M 44.28125 53.078125 
L 44.28125 44.578125 
Q 40.484375 46.53125 36.375 47.5 
Q 32.28125 48.484375 27.875 48.484375 
Q 21.1875 48.484375 17.84375 46.4375 
Q 14.5 44.390625 14.5 40.28125 
Q 14.5 37.15625 16.890625 35.375 
Q 19.28125 33.59375 26.515625 31.984375 
L 29.59375 31.296875 
Q 39.15625 29.25 43.1875 25.515625 
Q 47.21875 21.78125 47.21875 15.09375 
Q 47.21875 7.46875 41.1875 3.015625 
Q 35.15625 -1.421875 24.609375 -1.421875 
Q 20.21875 -1.421875 15.453125 -0.5625 
Q 10.6875 0.296875 5.421875 2 
L 5.421875 11.28125 
Q 10.40625 8.6875 15.234375 7.390625 
Q 20.0625 6.109375 24.8125 6.109375 
Q 31.15625 6.109375 34.5625 8.28125 
Q 37.984375 10.453125 37.984375 14.40625 
Q 37.984375 18.0625 35.515625 20.015625 
Q 33.0625 21.96875 24.703125 23.78125 
L 21.578125 24.515625 
Q 13.234375 26.265625 9.515625 29.90625 
Q 5.8125 33.546875 5.8125 39.890625 
Q 5.8125 47.609375 11.28125 51.796875 
Q 16.75 56 26.8125 56 
Q 31.78125 56 36.171875 55.265625 
Q 40.578125 54.546875 44.28125 53.078125 
z
" id="DejaVuSans-115"/>
      <path d="M 25.390625 72.90625 
L 33.6875 72.90625 
L 8.296875 -9.28125 
L 0 -9.28125 
z
" id="DejaVuSans-47"/>
      <path d="M 45.40625 46.390625 
L 45.40625 75.984375 
L 54.390625 75.984375 
L 54.390625 0 
L 45.40625 0 
L 45.40625 8.203125 
Q 42.578125 3.328125 38.25 0.953125 
Q 33.9375 -1.421875 27.875 -1.421875 
Q 17.96875 -1.421875 11.734375 6.484375 
Q 5.515625 14.40625 5.515625 27.296875 
Q 5.515625 40.1875 11.734375 48.09375 
Q 17.96875 56 27.875 56 
Q 33.9375 56 38.25 53.625 
Q 42.578125 51.265625 45.40625 46.390625 
z
M 14.796875 27.296875 
Q 14.796875 17.390625 18.875 11.75 
Q 22.953125 6.109375 30.078125 6.109375 
Q 37.203125 6.109375 41.296875 11.75 
Q 45.40625 17.390625 45.40625 27.296875 
Q 45.40625 37.203125 41.296875 42.84375 
Q 37.203125 48.484375 30.078125 48.484375 
Q 22.953125 48.484375 18.875 42.84375 
Q 14.796875 37.203125 14.796875 27.296875 
z
" id="DejaVuSans-100"/>
      <path d="M 9.421875 54.6875 
L 18.40625 54.6875 
L 18.40625 0 
L 9.421875 0 
z
M 9.421875 75.984375 
L 18.40625 75.984375 
L 18.40625 64.59375 
L 9.421875 64.59375 
z
" id="DejaVuSans-105"/>
      <path d="M 52 44.1875 
Q 55.375 50.25 60.0625 53.125 
Q 64.75 56 71.09375 56 
Q 79.640625 56 84.28125 50.015625 
Q 88.921875 44.046875 88.921875 33.015625 
L 88.921875 0 
L 79.890625 0 
L 79.890625 32.71875 
Q 79.890625 40.578125 77.09375 44.375 
Q 74.3125 48.1875 68.609375 48.1875 
Q 61.625 48.1875 57.5625 43.546875 
Q 53.515625 38.921875 53.515625 30.90625 
L 53.515625 0 
L 44.484375 0 
L 44.484375 32.71875 
Q 44.484375 40.625 41.703125 44.40625 
Q 38.921875 48.1875 33.109375 48.1875 
Q 26.21875 48.1875 22.15625 43.53125 
Q 18.109375 38.875 18.109375 30.90625 
L 18.109375 0 
L 9.078125 0 
L 9.078125 54.6875 
L 18.109375 54.6875 
L 18.109375 46.1875 
Q 21.1875 51.21875 25.484375 53.609375 
Q 29.78125 56 35.6875 56 
Q 41.65625 56 45.828125 52.96875 
Q 50 49.953125 52 44.1875 
z
" id="DejaVuSans-109"/>
      <path d="M 54.890625 33.015625 
L 54.890625 0 
L 45.90625 0 
L 45.90625 32.71875 
Q 45.90625 40.484375 42.875 44.328125 
Q 39.84375 48.1875 33.796875 48.1875 
Q 26.515625 48.1875 22.3125 43.546875 
Q 18.109375 38.921875 18.109375 30.90625 
L 18.109375 0 
L 9.078125 0 
L 9.078125 54.6875 
L 18.109375 54.6875 
L 18.109375 46.1875 
Q 21.34375 51.125 25.703125 53.5625 
Q 30.078125 56 35.796875 56 
Q 45.21875 56 50.046875 50.171875 
Q 54.890625 44.34375 54.890625 33.015625 
z
" id="DejaVuSans-110"/>
      <path d="M 8.015625 75.875 
L 15.828125 75.875 
Q 23.140625 64.359375 26.78125 53.3125 
Q 30.421875 42.28125 30.421875 31.390625 
Q 30.421875 20.453125 26.78125 9.375 
Q 23.140625 -1.703125 15.828125 -13.1875 
L 8.015625 -13.1875 
Q 14.5 -2 17.703125 9.0625 
Q 20.90625 20.125 20.90625 31.390625 
Q 20.90625 42.671875 17.703125 53.65625 
Q 14.5 64.65625 8.015625 75.875 
z
" id="DejaVuSans-41"/>
     </defs>
     <g transform="translate(77.303219 342.217594)scale(0.17 -0.17)">
      <use xlink:href="#DejaVuSans-108"/>
      <use x="27.783203" xlink:href="#DejaVuSans-111"/>
      <use x="88.964844" xlink:href="#DejaVuSans-103"/>
      <use x="152.441406" xlink:href="#DejaVuSans-49"/>
      <use x="216.064453" xlink:href="#DejaVuSans-48"/>
      <use x="279.6875" xlink:href="#DejaVuSans-40"/>
      <use x="318.701172" xlink:href="#DejaVuSans-35"/>
      <use x="402.490234" xlink:href="#DejaVuSans-32"/>
      <use x="434.277344" xlink:href="#DejaVuSans-102"/>
      <use x="469.404297" xlink:href="#DejaVuSans-45"/>
      <use x="505.488281" xlink:href="#DejaVuSans-101"/>
      <use x="567.011719" xlink:href="#DejaVuSans-118"/>
      <use x="626.191406" xlink:href="#DejaVuSans-97"/>
      <use x="687.470703" xlink:href="#DejaVuSans-108"/>
      <use x="715.253906" xlink:href="#DejaVuSans-115"/>
      <use x="767.353516" xlink:href="#DejaVuSans-32"/>
      <use x="799.140625" xlink:href="#DejaVuSans-47"/>
      <use x="832.832031" xlink:href="#DejaVuSans-32"/>
      <use x="864.619141" xlink:href="#DejaVuSans-100"/>
      <use x="928.095703" xlink:href="#DejaVuSans-105"/>
      <use x="955.878906" xlink:href="#DejaVuSans-109"/>
      <use x="1053.291016" xlink:href="#DejaVuSans-101"/>
      <use x="1114.814453" xlink:href="#DejaVuSans-110"/>
      <use x="1178.193359" xlink:href="#DejaVuSans-115"/>
      <use x="1230.292969" xlink:href="#DejaVuSans-105"/>
      <use x="1258.076172" xlink:href="#DejaVuSans-111"/>
      <use x="1319.257812" xlink:href="#DejaVuSans-110"/>
      <use x="1382.636719" xlink:href="#DejaVuSans-41"/>
     </g>
    </g>
   </g>
   <g id="matplotlib.axis_2">
    <g id="ytick_1">
     <g id="line2d_21">
      <path clip-path="url(#p6c3e27ce70)" d="M 57.6 298.944 
L 338.688 298.944 
" style="fill:none;stroke:#b0b0b0;stroke-linecap:square;stroke-width:0.8;"/>
     </g>
     <g id="line2d_22">
      <defs>
       <path d="M 0 0 
L -3.5 0 
" id="m79a945d438" style="stroke:#000000;stroke-width:0.8;"/>
      </defs>
      <g>
       <use style="stroke:#000000;stroke-width:0.8;" x="57.6" xlink:href="#m79a945d438" y="298.944"/>
      </g>
     </g>
     <g id="text_6">
      <!-- 0.0 -->
      <defs>
       <path d="M 10.6875 12.40625 
L 21 12.40625 
L 21 0 
L 10.6875 0 
z
" id="DejaVuSans-46"/>
      </defs>
      <g transform="translate(25.155 305.02275)scale(0.16 -0.16)">
       <use xlink:href="#DejaVuSans-48"/>
       <use x="63.623047" xlink:href="#DejaVuSans-46"/>
       <use x="95.410156" xlink:href="#DejaVuSans-48"/>
      </g>
     </g>
    </g>
    <g id="ytick_2">
     <g id="line2d_23">
      <path clip-path="url(#p6c3e27ce70)" d="M 57.6 245.22202 
L 338.688 245.22202 
" style="fill:none;stroke:#b0b0b0;stroke-linecap:square;stroke-width:0.8;"/>
     </g>
     <g id="line2d_24">
      <g>
       <use style="stroke:#000000;stroke-width:0.8;" x="57.6" xlink:href="#m79a945d438" y="245.22202"/>
      </g>
     </g>
     <g id="text_7">
      <!-- 0.2 -->
      <g transform="translate(25.155 251.30077)scale(0.16 -0.16)">
       <use xlink:href="#DejaVuSans-48"/>
       <use x="63.623047" xlink:href="#DejaVuSans-46"/>
       <use x="95.410156" xlink:href="#DejaVuSans-50"/>
      </g>
     </g>
    </g>
    <g id="ytick_3">
     <g id="line2d_25">
      <path clip-path="url(#p6c3e27ce70)" d="M 57.6 191.50004 
L 338.688 191.50004 
" style="fill:none;stroke:#b0b0b0;stroke-linecap:square;stroke-width:0.8;"/>
     </g>
     <g id="line2d_26">
      <g>
       <use style="stroke:#000000;stroke-width:0.8;" x="57.6" xlink:href="#m79a945d438" y="191.50004"/>
      </g>
     </g>
     <g id="text_8">
      <!-- 0.4 -->
      <g transform="translate(25.155 197.57879)scale(0.16 -0.16)">
       <use xlink:href="#DejaVuSans-48"/>
       <use x="63.623047" xlink:href="#DejaVuSans-46"/>
       <use x="95.410156" xlink:href="#DejaVuSans-52"/>
      </g>
     </g>
    </g>
    <g id="ytick_4">
     <g id="line2d_27">
      <path clip-path="url(#p6c3e27ce70)" d="M 57.6 137.778059 
L 338.688 137.778059 
" style="fill:none;stroke:#b0b0b0;stroke-linecap:square;stroke-width:0.8;"/>
     </g>
     <g id="line2d_28">
      <g>
       <use style="stroke:#000000;stroke-width:0.8;" x="57.6" xlink:href="#m79a945d438" y="137.778059"/>
      </g>
     </g>
     <g id="text_9">
      <!-- 0.6 -->
      <g transform="translate(25.155 143.856809)scale(0.16 -0.16)">
       <use xlink:href="#DejaVuSans-48"/>
       <use x="63.623047" xlink:href="#DejaVuSans-46"/>
       <use x="95.410156" xlink:href="#DejaVuSans-54"/>
      </g>
     </g>
    </g>
    <g id="ytick_5">
     <g id="line2d_29">
      <path clip-path="url(#p6c3e27ce70)" d="M 57.6 84.056079 
L 338.688 84.056079 
" style="fill:none;stroke:#b0b0b0;stroke-linecap:square;stroke-width:0.8;"/>
     </g>
     <g id="line2d_30">
      <g>
       <use style="stroke:#000000;stroke-width:0.8;" x="57.6" xlink:href="#m79a945d438" y="84.056079"/>
      </g>
     </g>
     <g id="text_10">
      <!-- 0.8 -->
      <defs>
       <path d="M 31.78125 34.625 
Q 24.75 34.625 20.71875 30.859375 
Q 16.703125 27.09375 16.703125 20.515625 
Q 16.703125 13.921875 20.71875 10.15625 
Q 24.75 6.390625 31.78125 6.390625 
Q 38.8125 6.390625 42.859375 10.171875 
Q 46.921875 13.96875 46.921875 20.515625 
Q 46.921875 27.09375 42.890625 30.859375 
Q 38.875 34.625 31.78125 34.625 
z
M 21.921875 38.8125 
Q 15.578125 40.375 12.03125 44.71875 
Q 8.5 49.078125 8.5 55.328125 
Q 8.5 64.0625 14.71875 69.140625 
Q 20.953125 74.21875 31.78125 74.21875 
Q 42.671875 74.21875 48.875 69.140625 
Q 55.078125 64.0625 55.078125 55.328125 
Q 55.078125 49.078125 51.53125 44.71875 
Q 48 40.375 41.703125 38.8125 
Q 48.828125 37.15625 52.796875 32.3125 
Q 56.78125 27.484375 56.78125 20.515625 
Q 56.78125 9.90625 50.3125 4.234375 
Q 43.84375 -1.421875 31.78125 -1.421875 
Q 19.734375 -1.421875 13.25 4.234375 
Q 6.78125 9.90625 6.78125 20.515625 
Q 6.78125 27.484375 10.78125 32.3125 
Q 14.796875 37.15625 21.921875 38.8125 
z
M 18.3125 54.390625 
Q 18.3125 48.734375 21.84375 45.5625 
Q 25.390625 42.390625 31.78125 42.390625 
Q 38.140625 42.390625 41.71875 45.5625 
Q 45.3125 48.734375 45.3125 54.390625 
Q 45.3125 60.0625 41.71875 63.234375 
Q 38.140625 66.40625 31.78125 66.40625 
Q 25.390625 66.40625 21.84375 63.234375 
Q 18.3125 60.0625 18.3125 54.390625 
z
" id="DejaVuSans-56"/>
      </defs>
      <g transform="translate(25.155 90.134829)scale(0.16 -0.16)">
       <use xlink:href="#DejaVuSans-48"/>
       <use x="63.623047" xlink:href="#DejaVuSans-46"/>
       <use x="95.410156" xlink:href="#DejaVuSans-56"/>
      </g>
     </g>
    </g>
    <g id="ytick_6">
     <g id="line2d_31">
      <path clip-path="url(#p6c3e27ce70)" d="M 57.6 30.334099 
L 338.688 30.334099 
" style="fill:none;stroke:#b0b0b0;stroke-linecap:square;stroke-width:0.8;"/>
     </g>
     <g id="line2d_32">
      <g>
       <use style="stroke:#000000;stroke-width:0.8;" x="57.6" xlink:href="#m79a945d438" y="30.334099"/>
      </g>
     </g>
     <g id="text_11">
      <!-- 1.0 -->
      <g transform="translate(25.155 36.412849)scale(0.16 -0.16)">
       <use xlink:href="#DejaVuSans-49"/>
       <use x="63.623047" xlink:href="#DejaVuSans-46"/>
       <use x="95.410156" xlink:href="#DejaVuSans-48"/>
      </g>
     </g>
    </g>
    <g id="text_12">
     <!-- Fraction of function,target pairs -->
     <defs>
      <path d="M 9.8125 72.90625 
L 51.703125 72.90625 
L 51.703125 64.59375 
L 19.671875 64.59375 
L 19.671875 43.109375 
L 48.578125 43.109375 
L 48.578125 34.8125 
L 19.671875 34.8125 
L 19.671875 0 
L 9.8125 0 
z
" id="DejaVuSans-70"/>
      <path d="M 41.109375 46.296875 
Q 39.59375 47.171875 37.8125 47.578125 
Q 36.03125 48 33.890625 48 
Q 26.265625 48 22.1875 43.046875 
Q 18.109375 38.09375 18.109375 28.8125 
L 18.109375 0 
L 9.078125 0 
L 9.078125 54.6875 
L 18.109375 54.6875 
L 18.109375 46.1875 
Q 20.953125 51.171875 25.484375 53.578125 
Q 30.03125 56 36.53125 56 
Q 37.453125 56 38.578125 55.875 
Q 39.703125 55.765625 41.0625 55.515625 
z
" id="DejaVuSans-114"/>
      <path d="M 48.78125 52.59375 
L 48.78125 44.1875 
Q 44.96875 46.296875 41.140625 47.34375 
Q 37.3125 48.390625 33.40625 48.390625 
Q 24.65625 48.390625 19.8125 42.84375 
Q 14.984375 37.3125 14.984375 27.296875 
Q 14.984375 17.28125 19.8125 11.734375 
Q 24.65625 6.203125 33.40625 6.203125 
Q 37.3125 6.203125 41.140625 7.25 
Q 44.96875 8.296875 48.78125 10.40625 
L 48.78125 2.09375 
Q 45.015625 0.34375 40.984375 -0.53125 
Q 36.96875 -1.421875 32.421875 -1.421875 
Q 20.0625 -1.421875 12.78125 6.34375 
Q 5.515625 14.109375 5.515625 27.296875 
Q 5.515625 40.671875 12.859375 48.328125 
Q 20.21875 56 33.015625 56 
Q 37.15625 56 41.109375 55.140625 
Q 45.0625 54.296875 48.78125 52.59375 
z
" id="DejaVuSans-99"/>
      <path d="M 18.3125 70.21875 
L 18.3125 54.6875 
L 36.8125 54.6875 
L 36.8125 47.703125 
L 18.3125 47.703125 
L 18.3125 18.015625 
Q 18.3125 11.328125 20.140625 9.421875 
Q 21.96875 7.515625 27.59375 7.515625 
L 36.8125 7.515625 
L 36.8125 0 
L 27.59375 0 
Q 17.1875 0 13.234375 3.875 
Q 9.28125 7.765625 9.28125 18.015625 
L 9.28125 47.703125 
L 2.6875 47.703125 
L 2.6875 54.6875 
L 9.28125 54.6875 
L 9.28125 70.21875 
z
" id="DejaVuSans-116"/>
      <path d="M 8.5 21.578125 
L 8.5 54.6875 
L 17.484375 54.6875 
L 17.484375 21.921875 
Q 17.484375 14.15625 20.5 10.265625 
Q 23.53125 6.390625 29.59375 6.390625 
Q 36.859375 6.390625 41.078125 11.03125 
Q 45.3125 15.671875 45.3125 23.6875 
L 45.3125 54.6875 
L 54.296875 54.6875 
L 54.296875 0 
L 45.3125 0 
L 45.3125 8.40625 
Q 42.046875 3.421875 37.71875 1 
Q 33.40625 -1.421875 27.6875 -1.421875 
Q 18.265625 -1.421875 13.375 4.4375 
Q 8.5 10.296875 8.5 21.578125 
z
M 31.109375 56 
z
" id="DejaVuSans-117"/>
      <path d="M 11.71875 12.40625 
L 22.015625 12.40625 
L 22.015625 4 
L 14.015625 -11.625 
L 7.71875 -11.625 
L 11.71875 4 
z
" id="DejaVuSans-44"/>
      <path d="M 18.109375 8.203125 
L 18.109375 -20.796875 
L 9.078125 -20.796875 
L 9.078125 54.6875 
L 18.109375 54.6875 
L 18.109375 46.390625 
Q 20.953125 51.265625 25.265625 53.625 
Q 29.59375 56 35.59375 56 
Q 45.5625 56 51.78125 48.09375 
Q 58.015625 40.1875 58.015625 27.296875 
Q 58.015625 14.40625 51.78125 6.484375 
Q 45.5625 -1.421875 35.59375 -1.421875 
Q 29.59375 -1.421875 25.265625 0.953125 
Q 20.953125 3.328125 18.109375 8.203125 
z
M 48.6875 27.296875 
Q 48.6875 37.203125 44.609375 42.84375 
Q 40.53125 48.484375 33.40625 48.484375 
Q 26.265625 48.484375 22.1875 42.84375 
Q 18.109375 37.203125 18.109375 27.296875 
Q 18.109375 17.390625 22.1875 11.75 
Q 26.265625 6.109375 33.40625 6.109375 
Q 40.53125 6.109375 44.609375 11.75 
Q 48.6875 17.390625 48.6875 27.296875 
z
" id="DejaVuSans-112"/>
     </defs>
     <g transform="translate(17.619531 298.435375)rotate(-90)scale(0.17 -0.17)">
      <use xlink:href="#DejaVuSans-70"/>
      <use x="57.410156" xlink:href="#DejaVuSans-114"/>
      <use x="98.523438" xlink:href="#DejaVuSans-97"/>
      <use x="159.802734" xlink:href="#DejaVuSans-99"/>
      <use x="214.783203" xlink:href="#DejaVuSans-116"/>
      <use x="253.992188" xlink:href="#DejaVuSans-105"/>
      <use x="281.775391" xlink:href="#DejaVuSans-111"/>
      <use x="342.957031" xlink:href="#DejaVuSans-110"/>
      <use x="406.335938" xlink:href="#DejaVuSans-32"/>
      <use x="438.123047" xlink:href="#DejaVuSans-111"/>
      <use x="499.304688" xlink:href="#DejaVuSans-102"/>
      <use x="534.509766" xlink:href="#DejaVuSans-32"/>
      <use x="566.296875" xlink:href="#DejaVuSans-102"/>
      <use x="601.501953" xlink:href="#DejaVuSans-117"/>
      <use x="664.880859" xlink:href="#DejaVuSans-110"/>
      <use x="728.259766" xlink:href="#DejaVuSans-99"/>
      <use x="783.240234" xlink:href="#DejaVuSans-116"/>
      <use x="822.449219" xlink:href="#DejaVuSans-105"/>
      <use x="850.232422" xlink:href="#DejaVuSans-111"/>
      <use x="911.414062" xlink:href="#DejaVuSans-110"/>
      <use x="974.792969" xlink:href="#DejaVuSans-44"/>
      <use x="1006.580078" xlink:href="#DejaVuSans-116"/>
      <use x="1045.789062" xlink:href="#DejaVuSans-97"/>
      <use x="1107.068359" xlink:href="#DejaVuSans-114"/>
      <use x="1148.166016" xlink:href="#DejaVuSans-103"/>
      <use x="1211.642578" xlink:href="#DejaVuSans-101"/>
      <use x="1273.166016" xlink:href="#DejaVuSans-116"/>
      <use x="1312.375" xlink:href="#DejaVuSans-32"/>
      <use x="1344.162109" xlink:href="#DejaVuSans-112"/>
      <use x="1407.638672" xlink:href="#DejaVuSans-97"/>
      <use x="1468.917969" xlink:href="#DejaVuSans-105"/>
      <use x="1496.701172" xlink:href="#DejaVuSans-114"/>
      <use x="1537.814453" xlink:href="#DejaVuSans-115"/>
     </g>
    </g>
   </g>
   <g id="line2d_33">
    <defs>
     <path d="M 0 1.5 
C 0.397805 1.5 0.77937 1.341951 1.06066 1.06066 
C 1.341951 0.77937 1.5 0.397805 1.5 0 
C 1.5 -0.397805 1.341951 -0.77937 1.06066 -1.06066 
C 0.77937 -1.341951 0.397805 -1.5 0 -1.5 
C -0.397805 -1.5 -0.77937 -1.341951 -1.06066 -1.06066 
C -1.341951 -0.77937 -1.5 -0.397805 -1.5 0 
C -1.5 0.397805 -1.341951 0.77937 -1.06066 1.06066 
C -0.77937 1.341951 -0.397805 1.5 0 1.5 
z
" id="m396233c6a7" style="stroke:#f5deb3;"/>
    </defs>
    <g>
     <use style="fill:#f5deb3;stroke:#f5deb3;" x="236.668135" xlink:href="#m396233c6a7" y="30.334099"/>
     <use style="fill:#f5deb3;stroke:#f5deb3;" x="236.668135" xlink:href="#m396233c6a7" y="30.334099"/>
    </g>
   </g>
   <g id="line2d_34">
    <defs>
     <path d="M 0 1.5 
C 0.397805 1.5 0.77937 1.341951 1.06066 1.06066 
C 1.341951 0.77937 1.5 0.397805 1.5 0 
C 1.5 -0.397805 1.341951 -0.77937 1.06066 -1.06066 
C 0.77937 -1.341951 0.397805 -1.5 0 -1.5 
C -0.397805 -1.5 -0.77937 -1.341951 -1.06066 -1.06066 
C -1.341951 -0.77937 -1.5 -0.397805 -1.5 0 
C -1.5 0.397805 -1.341951 0.77937 -1.06066 1.06066 
C -0.77937 1.341951 -0.397805 1.5 0 1.5 
z
" id="m92de7f662b" style="stroke:#000080;"/>
    </defs>
    <g>
     <use style="fill:#000080;stroke:#000080;" x="269.76536" xlink:href="#m92de7f662b" y="30.334099"/>
     <use style="fill:#000080;stroke:#000080;" x="269.76536" xlink:href="#m92de7f662b" y="30.334099"/>
    </g>
   </g>
   <g id="line2d_35">
    <path d="M 139.253002 298.944 
L 139.253002 298.417314 
L 139.933878 298.417314 
L 139.933878 297.890628 
L 140.719547 297.890628 
L 140.719547 297.363942 
L 141.749924 297.363942 
L 141.749924 296.837256 
L 141.982752 296.837256 
L 142.082573 295.783884 
L 142.365148 295.783884 
L 142.365148 295.257197 
L 142.844792 295.257197 
L 142.844792 294.730511 
L 146.420639 294.730511 
L 146.420639 294.203825 
L 149.550613 294.203825 
L 149.550613 293.677139 
L 166.799241 293.677139 
L 166.799241 293.150453 
L 167.094536 293.150453 
L 167.094536 292.623767 
L 167.422679 292.623767 
L 167.422679 292.097081 
L 167.691887 292.097081 
L 167.723473 290.517023 
L 168.001318 290.517023 
L 168.001318 289.990337 
L 168.528257 289.990337 
L 168.528257 289.463651 
L 168.816652 289.463651 
L 168.816652 288.936964 
L 168.937017 288.936964 
L 168.937017 288.410278 
L 169.590602 288.410278 
L 169.695899 286.83022 
L 170.086745 286.83022 
L 170.086745 286.303534 
L 170.394724 286.303534 
L 170.394724 285.776848 
L 172.996338 285.776848 
L 172.996338 285.250162 
L 181.060293 285.250162 
L 181.060293 284.723476 
L 181.532315 284.723476 
L 181.532315 284.19679 
L 181.660861 284.19679 
L 181.660861 283.670104 
L 182.008597 283.670104 
L 182.058258 282.616732 
L 182.29112 282.616732 
L 182.29112 282.090045 
L 182.527329 282.090045 
L 182.621596 281.036673 
L 182.965689 281.036673 
L 182.984772 279.983301 
L 183.201765 279.983301 
L 183.201765 279.456615 
L 183.37112 279.456615 
L 183.37112 278.929929 
L 183.584023 278.929929 
L 183.584023 278.403243 
L 184.527134 278.403243 
L 184.527134 277.876557 
L 184.841246 277.876557 
L 184.841246 277.349871 
L 193.429304 277.349871 
L 193.513652 276.296499 
L 193.602424 276.296499 
L 193.711558 274.71644 
L 193.767642 274.71644 
L 193.779333 273.663068 
L 195.262451 273.663068 
L 195.262451 273.136382 
L 196.184223 273.136382 
L 196.184223 272.609696 
L 196.544696 272.609696 
L 196.544696 272.08301 
L 196.701897 272.08301 
L 196.701897 271.556324 
L 199.019184 271.556324 
L 199.019184 271.029638 
L 204.844877 271.029638 
L 204.844877 270.502952 
L 205.380898 270.502952 
L 205.380898 269.976266 
L 205.535981 269.976266 
L 205.535981 269.449579 
L 205.941272 269.449579 
L 206.044821 267.869521 
L 206.080805 267.869521 
L 206.124655 266.816149 
L 206.276577 266.816149 
L 206.387616 265.236091 
L 206.424358 265.236091 
L 206.424358 264.709405 
L 206.689967 264.709405 
L 206.744947 263.129347 
L 206.820054 263.129347 
L 206.910191 262.075974 
L 207.011228 262.075974 
L 207.065868 260.495916 
L 207.183916 260.495916 
L 207.183916 259.96923 
L 207.357919 259.96923 
L 207.404272 258.915858 
L 208.241099 258.915858 
L 208.294797 257.3358 
L 216.583039 257.3358 
L 216.674325 255.755741 
L 216.700652 255.755741 
L 216.811001 253.648997 
L 216.856323 253.648997 
L 216.856323 253.122311 
L 216.990088 253.122311 
L 217.082438 251.542253 
L 217.11285 251.542253 
L 217.220722 249.962195 
L 217.24762 249.962195 
L 217.24762 249.435508 
L 217.359246 249.435508 
L 217.45732 246.802078 
L 217.497315 246.802078 
L 217.537353 245.22202 
L 217.633532 245.22202 
L 217.730798 242.588589 
L 217.760146 242.588589 
L 217.811017 239.955159 
L 217.889668 239.955159 
L 217.980172 238.375101 
L 218.010471 238.375101 
L 218.119395 235.74167 
L 218.124087 235.74167 
L 218.225986 233.10824 
L 218.26952 233.10824 
L 218.34752 228.368065 
L 218.409437 228.368065 
L 218.511874 224.681263 
L 218.523534 224.681263 
L 218.622919 221.521146 
L 218.65157 221.521146 
L 218.75742 217.307658 
L 218.782558 217.307658 
L 218.883421 214.147541 
L 218.90754 214.147541 
L 218.977025 211.514111 
L 219.028344 211.514111 
L 219.134504 208.353994 
L 219.162244 208.353994 
L 219.256669 204.667192 
L 219.298362 204.667192 
L 219.40151 202.560447 
L 219.410757 202.560447 
L 219.515269 198.346959 
L 219.531494 198.346959 
L 219.639106 193.606784 
L 219.653088 193.606784 
L 219.75105 189.393295 
L 219.787635 189.393295 
L 219.879574 184.653121 
L 219.919095 184.653121 
L 219.975093 181.493004 
L 220.059697 181.493004 
L 220.145962 178.859574 
L 220.188429 178.859574 
L 220.285994 175.172771 
L 220.313587 175.172771 
L 220.395453 172.539341 
L 220.425832 172.539341 
L 220.476782 170.959282 
L 220.542551 170.959282 
L 220.639451 168.852538 
L 220.688381 168.852538 
L 220.779281 166.219108 
L 220.824967 166.219108 
L 220.875702 165.165736 
L 220.939762 165.165736 
L 221.0343 163.585677 
L 221.075438 163.585677 
L 221.181097 161.478933 
L 221.211131 161.478933 
L 221.281072 159.898875 
L 221.405485 159.898875 
L 221.489552 157.265444 
L 221.541239 157.265444 
L 221.622396 155.685386 
L 221.662815 155.685386 
L 221.76559 153.578642 
L 221.831822 153.578642 
L 221.869212 152.52527 
L 221.956006 152.52527 
L 222.020714 151.471897 
L 222.163748 151.471897 
L 222.163748 150.945211 
L 229.029959 150.945211 
L 229.029959 150.418525 
L 229.207063 150.418525 
L 229.300905 148.838467 
L 229.367068 148.838467 
L 229.471267 147.258409 
L 229.504447 147.258409 
L 229.599 144.098292 
L 229.652934 144.098292 
L 229.745089 141.991548 
L 229.786605 141.991548 
L 229.885721 139.358118 
L 229.911009 139.358118 
L 230.007626 136.724687 
L 230.067873 136.724687 
L 230.173495 131.984513 
L 230.212492 131.984513 
L 230.322189 112.497128 
L 230.32415 112.497128 
L 230.329376 106.176895 
L 237.158929 106.176895 
L 237.240047 104.596836 
L 237.318878 104.596836 
L 237.411577 103.543464 
L 237.530953 103.543464 
L 237.582932 101.43672 
L 237.673698 101.43672 
L 237.702984 98.276603 
L 237.792874 98.276603 
L 237.877573 94.063115 
L 237.90876 94.063115 
L 237.992015 87.742882 
L 238.02734 87.742882 
L 238.136173 83.002707 
L 238.159356 83.002707 
L 238.210607 80.895963 
L 238.30971 80.895963 
L 238.374295 79.315904 
L 238.423509 79.315904 
L 238.473417 77.20916 
L 238.542486 77.20916 
L 238.617592 75.102416 
L 238.655943 75.102416 
L 238.745782 72.995672 
L 238.830107 72.995672 
L 238.830107 72.468985 
L 241.857648 72.468985 
L 241.857648 71.942299 
L 242.201997 71.942299 
L 242.201997 71.415613 
L 242.391423 71.415613 
L 242.410014 65.622066 
L 246.219144 65.622066 
L 246.312594 64.568694 
L 246.374181 64.568694 
L 246.470605 60.881892 
L 246.515471 60.881892 
L 246.620447 57.721775 
L 246.68828 57.721775 
L 246.757379 54.034973 
L 246.818728 54.034973 
L 246.920537 49.294798 
L 246.951465 49.294798 
L 247.04216 47.188054 
L 249.474117 47.188054 
L 249.478801 46.134681 
L 252.204179 46.134681 
L 252.261485 45.081309 
L 252.427597 45.081309 
L 252.497098 42.447879 
L 252.559064 42.447879 
L 252.653457 40.341135 
L 252.721788 40.341135 
L 252.721788 39.814448 
L 256.573666 39.814448 
L 256.675518 38.761076 
L 256.699612 38.761076 
L 256.761542 37.181018 
L 256.82689 37.181018 
L 256.878938 34.547588 
L 260.14395 34.547588 
L 260.22132 32.967529 
L 260.429768 32.967529 
L 260.429768 32.440843 
L 262.990098 32.440843 
L 262.990098 31.914157 
L 265.593652 31.914157 
L 265.644757 30.860785 
L 269.76536 30.860785 
L 269.76536 30.334099 
L 338.688 30.334099 
L 338.688 30.334099 
" style="fill:none;stroke:#000080;stroke-linecap:square;stroke-width:1.5;"/>
   </g>
   <g id="line2d_36">
    <defs>
     <path d="M 0 6 
C 1.591219 6 3.117479 5.367802 4.242641 4.242641 
C 5.367802 3.117479 6 1.591219 6 0 
C 6 -1.591219 5.367802 -3.117479 4.242641 -4.242641 
C 3.117479 -5.367802 1.591219 -6 0 -6 
C -1.591219 -6 -3.117479 -5.367802 -4.242641 -4.242641 
C -5.367802 -3.117479 -6 -1.591219 -6 0 
C -6 1.591219 -5.367802 3.117479 -4.242641 4.242641 
C -3.117479 5.367802 -1.591219 6 0 6 
z
" id="m169dbf415b" style="stroke:#000080;stroke-width:1.5;"/>
    </defs>
    <g>
     <use style="fill-opacity:0;stroke:#000080;stroke-width:1.5;" x="207.404272" xlink:href="#m169dbf415b" y="258.915858"/>
     <use style="fill-opacity:0;stroke:#000080;stroke-width:1.5;" x="230.227873" xlink:href="#m169dbf415b" y="130.93114"/>
     <use style="fill-opacity:0;stroke:#000080;stroke-width:1.5;" x="269.76536" xlink:href="#m169dbf415b" y="30.860785"/>
     <use style="fill-opacity:0;stroke:#000080;stroke-width:1.5;" x="269.76536" xlink:href="#m169dbf415b" y="30.334099"/>
     <use style="fill-opacity:0;stroke:#000080;stroke-width:1.5;" x="338.688" xlink:href="#m169dbf415b" y="30.334099"/>
    </g>
   </g>
   <g id="line2d_37">
    <path style="fill:none;stroke:#000080;stroke-linecap:square;stroke-width:1.5;"/>
    <g/>
   </g>
   <g id="line2d_38">
    <path clip-path="url(#p6c3e27ce70)" d="M 230.314999 119.344047 
" style="fill:none;stroke:#000080;stroke-linecap:square;stroke-width:1.5;"/>
    <defs>
     <path d="M -12 12 
L 12 -12 
M -12 -12 
L 12 12 
" id="md1fcd8ea68" style="stroke:#000080;"/>
    </defs>
    <g clip-path="url(#p6c3e27ce70)">
     <use style="fill:#000080;stroke:#000080;" x="230.314999" xlink:href="#md1fcd8ea68" y="119.344047"/>
    </g>
   </g>
   <g id="line2d_39">
    <g>
     <use style="fill:#000080;stroke:#000080;" x="236.979084" xlink:href="#m92de7f662b" y="30.334099"/>
     <use style="fill:#000080;stroke:#000080;" x="236.979084" xlink:href="#m92de7f662b" y="30.334099"/>
    </g>
   </g>
   <g id="line2d_40">
    <path d="M 136.304433 298.944 
L 136.304433 298.417314 
L 136.65465 298.417314 
L 136.65465 297.890628 
L 137.011749 297.890628 
L 137.011749 297.363942 
L 139.726893 297.363942 
L 139.726893 296.837256 
L 139.867754 296.837256 
L 139.867754 296.31057 
L 141.335737 296.31057 
L 141.335737 295.783884 
L 141.686839 295.783884 
L 141.686839 295.257197 
L 143.716296 295.257197 
L 143.716296 294.730511 
L 144.501556 294.730511 
L 144.513502 293.677139 
L 166.797577 293.677139 
L 166.797577 293.150453 
L 166.921099 293.150453 
L 166.921099 292.623767 
L 167.667369 292.623767 
L 167.667369 292.097081 
L 168.287031 292.097081 
L 168.287031 291.570395 
L 168.50715 291.570395 
L 168.612429 290.517023 
L 168.777335 290.517023 
L 168.834427 289.463651 
L 168.905345 289.463651 
L 168.905345 288.936964 
L 169.143315 288.936964 
L 169.143315 288.410278 
L 169.258565 288.410278 
L 169.258565 287.883592 
L 169.398877 287.883592 
L 169.398877 287.356906 
L 169.956739 287.356906 
L 170.010103 286.303534 
L 170.303784 286.303534 
L 170.303784 285.776848 
L 170.500672 285.776848 
L 170.5638 284.19679 
L 171.391826 284.19679 
L 171.391826 283.670104 
L 171.851113 283.670104 
L 171.851113 283.143418 
L 172.649478 283.143418 
L 172.649478 282.616732 
L 181.042659 282.616732 
L 181.042659 282.090045 
L 182.108123 282.090045 
L 182.108123 281.563359 
L 182.392793 281.563359 
L 182.392793 281.036673 
L 182.751053 281.036673 
L 182.860357 279.983301 
L 183.312162 279.983301 
L 183.391693 278.929929 
L 184.922944 278.929929 
L 184.922944 278.403243 
L 185.96906 278.403243 
L 185.96906 277.876557 
L 193.114466 277.876557 
L 193.114466 277.349871 
L 193.390598 277.349871 
L 193.494583 275.769812 
L 193.733055 275.769812 
L 193.733055 275.243126 
L 194.110665 275.243126 
L 194.110665 274.71644 
L 194.297994 274.71644 
L 194.297994 274.189754 
L 194.698333 274.189754 
L 194.765566 273.136382 
L 194.874665 273.136382 
L 194.874665 272.609696 
L 195.730693 272.609696 
L 195.730693 272.08301 
L 195.941264 272.08301 
L 195.941264 271.556324 
L 196.128288 271.556324 
L 196.128288 271.029638 
L 196.374778 271.029638 
L 196.374778 270.502952 
L 196.8522 270.502952 
L 196.8522 269.976266 
L 204.43758 269.976266 
L 204.522903 268.922893 
L 204.605812 268.922893 
L 204.605812 268.396207 
L 204.775641 268.396207 
L 204.775641 267.869521 
L 205.262872 267.869521 
L 205.262872 267.342835 
L 205.562581 267.342835 
L 205.610807 265.762777 
L 205.789589 265.762777 
L 205.821576 264.709405 
L 205.93651 264.709405 
L 206.04298 263.129347 
L 206.184748 263.129347 
L 206.250612 262.075974 
L 206.386499 262.075974 
L 206.412262 261.022602 
L 206.583902 261.022602 
L 206.664865 259.96923 
L 206.768001 259.96923 
L 206.768001 259.442544 
L 206.901432 259.442544 
L 206.901432 258.915858 
L 207.169789 258.915858 
L 207.169789 258.389172 
L 207.327411 258.389172 
L 207.339621 257.3358 
L 207.483862 257.3358 
L 207.561002 256.282427 
L 207.613629 256.282427 
L 207.613629 255.755741 
L 207.754201 255.755741 
L 207.754201 255.229055 
L 207.909722 255.229055 
L 208.008435 254.175683 
L 208.110953 254.175683 
L 208.195604 253.122311 
L 208.247279 253.122311 
L 208.247279 252.595625 
L 208.371507 252.595625 
L 208.459561 251.542253 
L 208.4944 251.542253 
L 208.4944 251.015567 
L 208.632156 251.015567 
L 208.714846 249.435508 
L 208.802161 249.435508 
L 208.839533 247.85545 
L 208.923032 247.85545 
L 209.027788 246.802078 
L 209.040119 246.802078 
L 209.141755 245.748706 
L 209.214106 245.748706 
L 209.290233 244.695334 
L 209.471694 244.695334 
L 209.557889 243.641962 
L 209.728088 243.641962 
L 209.728088 243.115275 
L 216.594339 243.115275 
L 216.594339 242.588589 
L 216.730976 242.588589 
L 216.730976 242.061903 
L 217.156561 242.061903 
L 217.156561 241.535217 
L 217.373074 241.535217 
L 217.432842 240.481845 
L 217.545241 240.481845 
L 217.645117 239.428473 
L 217.737299 239.428473 
L 217.839962 238.375101 
L 217.923673 238.375101 
L 217.983973 236.795043 
L 218.083748 236.795043 
L 218.183917 234.688298 
L 218.257646 234.688298 
L 218.313985 233.634926 
L 218.380515 233.634926 
L 218.460774 231.528182 
L 218.592429 231.528182 
L 218.649528 229.948123 
L 218.725936 229.948123 
L 218.828305 227.314693 
L 218.887744 227.314693 
L 218.982076 224.681263 
L 219.001307 224.681263 
L 219.108708 222.047832 
L 219.141205 222.047832 
L 219.251779 216.780971 
L 219.255148 216.780971 
L 219.339629 214.674227 
L 219.383532 214.674227 
L 219.43367 212.567483 
L 219.505631 212.567483 
L 219.609094 209.407366 
L 219.646902 209.407366 
L 219.720231 206.773936 
L 219.765581 206.773936 
L 219.812327 204.140506 
L 219.877076 204.140506 
L 219.983253 198.873645 
L 220.021753 198.873645 
L 220.115755 196.240214 
L 220.135026 196.240214 
L 220.229898 190.973354 
L 220.283437 190.973354 
L 220.380281 186.233179 
L 220.40688 186.233179 
L 220.513253 180.966318 
L 220.518299 180.966318 
L 220.616511 178.332888 
L 220.647685 178.332888 
L 220.74672 173.592713 
L 220.768397 173.592713 
L 220.80994 172.012655 
L 220.887904 172.012655 
L 220.992731 166.219108 
L 221.005112 166.219108 
L 221.080767 162.532305 
L 221.119654 162.532305 
L 221.224312 159.898875 
L 221.249692 159.898875 
L 221.351498 155.685386 
L 221.392949 155.685386 
L 221.492805 152.52527 
L 221.504294 152.52527 
L 221.555938 150.945211 
L 221.616045 150.945211 
L 221.700284 148.311781 
L 221.738812 148.311781 
L 221.843975 145.151665 
L 221.878123 145.151665 
L 221.971028 142.518234 
L 221.991586 142.518234 
L 222.096567 139.358118 
L 222.124718 139.358118 
L 222.188353 137.251373 
L 222.420969 137.251373 
L 222.503872 136.198001 
L 222.752833 136.198001 
L 222.815527 135.144629 
L 222.955803 135.144629 
L 223.034918 134.091257 
L 223.234519 134.091257 
L 223.325239 133.037885 
L 228.250424 133.037885 
L 228.330067 131.984513 
L 228.52255 131.984513 
L 228.586675 130.93114 
L 228.71255 130.93114 
L 228.81792 129.877768 
L 229.023647 129.877768 
L 229.030827 128.824396 
L 229.181965 128.824396 
L 229.181965 128.29771 
L 229.369162 128.29771 
L 229.468202 126.717652 
L 229.553939 126.717652 
L 229.660085 124.610907 
L 229.726435 124.610907 
L 229.81919 122.504163 
L 229.842067 122.504163 
L 229.938888 120.924105 
L 229.954601 120.924105 
L 230.053478 118.290674 
L 230.079363 118.290674 
L 230.163122 115.657244 
L 230.275466 115.657244 
L 230.385074 110.917069 
L 230.443384 110.917069 
L 230.55016 107.230267 
L 230.567438 107.230267 
L 230.62161 105.650209 
L 230.68588 105.650209 
L 230.72907 103.016778 
L 230.806976 103.016778 
L 230.909239 99.329976 
L 230.946416 99.329976 
L 231.021686 96.169859 
L 231.062488 96.169859 
L 231.146673 93.009743 
L 231.187785 93.009743 
L 231.278548 89.849626 
L 231.342479 89.849626 
L 231.445029 86.162824 
L 231.463055 86.162824 
L 231.553333 83.529393 
L 231.578283 83.529393 
L 231.659698 78.789218 
L 231.701552 78.789218 
L 231.795392 74.57573 
L 231.8145 74.57573 
L 231.923204 71.415613 
L 231.938856 71.415613 
L 232.040988 68.782183 
L 232.056042 68.782183 
L 232.153315 65.09538 
L 232.187094 65.09538 
L 232.29662 62.46195 
L 232.320898 62.46195 
L 232.383256 59.301833 
L 232.433951 59.301833 
L 232.521292 57.195089 
L 232.545739 57.195089 
L 232.65613 54.034973 
L 232.701307 54.034973 
L 232.810588 51.401542 
L 232.821029 51.401542 
L 232.857515 50.34817 
L 232.996292 50.34817 
L 233.100309 48.768112 
L 233.15178 48.768112 
L 233.197024 47.71474 
L 233.307474 47.71474 
L 233.36606 46.134681 
L 233.425946 46.134681 
L 233.529976 44.554623 
L 233.564522 44.554623 
L 233.652261 42.974565 
L 233.712841 42.974565 
L 233.712841 42.447879 
L 234.041548 42.447879 
L 234.134788 41.394507 
L 234.183927 41.394507 
L 234.183927 40.867821 
L 234.314137 40.867821 
L 234.314137 40.341135 
L 234.437327 40.341135 
L 234.532193 39.287762 
L 234.936233 39.287762 
L 235.03475 38.23439 
L 235.08787 38.23439 
L 235.08787 37.707704 
L 235.212611 37.707704 
L 235.304853 36.654332 
L 235.459758 36.654332 
L 235.547832 35.60096 
L 235.656219 35.60096 
L 235.656219 35.074274 
L 235.807921 35.074274 
L 235.807921 34.547588 
L 235.979902 34.547588 
L 236.060535 33.494215 
L 236.168721 33.494215 
L 236.223845 32.440843 
L 236.317654 32.440843 
L 236.406598 31.387471 
L 236.445097 31.387471 
L 236.445097 30.860785 
L 236.979084 30.860785 
L 236.979084 30.334099 
L 338.688 30.334099 
L 338.688 30.334099 
" style="fill:none;stroke:#000080;stroke-linecap:square;stroke-width:1.5;"/>
   </g>
   <g id="line2d_41">
    <g>
     <use style="fill-opacity:0;stroke:#000080;stroke-width:1.5;" x="196.8522" xlink:href="#m169dbf415b" y="269.976266"/>
     <use style="fill-opacity:0;stroke:#000080;stroke-width:1.5;" x="230.36392" xlink:href="#m169dbf415b" y="111.970441"/>
     <use style="fill-opacity:0;stroke:#000080;stroke-width:1.5;" x="236.979084" xlink:href="#m169dbf415b" y="30.860785"/>
     <use style="fill-opacity:0;stroke:#000080;stroke-width:1.5;" x="236.979084" xlink:href="#m169dbf415b" y="30.334099"/>
     <use style="fill-opacity:0;stroke:#000080;stroke-width:1.5;" x="338.688" xlink:href="#m169dbf415b" y="30.334099"/>
    </g>
   </g>
   <g id="line2d_42">
    <path style="fill:none;stroke:#000080;stroke-linecap:square;stroke-width:1.5;"/>
    <g/>
   </g>
   <g id="line2d_43">
    <defs>
     <path d="M 0 1.5 
C 0.397805 1.5 0.77937 1.341951 1.06066 1.06066 
C 1.341951 0.77937 1.5 0.397805 1.5 0 
C 1.5 -0.397805 1.341951 -0.77937 1.06066 -1.06066 
C 0.77937 -1.341951 0.397805 -1.5 0 -1.5 
C -0.397805 -1.5 -0.77937 -1.341951 -1.06066 -1.06066 
C -1.341951 -0.77937 -1.5 -0.397805 -1.5 0 
C -1.5 0.397805 -1.341951 0.77937 -1.06066 1.06066 
C -0.77937 1.341951 -0.397805 1.5 0 1.5 
z
" id="m9fca8eb292" style="stroke:#ff00ff;"/>
    </defs>
    <g>
     <use style="fill:#ff00ff;stroke:#ff00ff;" x="291.677527" xlink:href="#m9fca8eb292" y="262.075974"/>
     <use style="fill:#ff00ff;stroke:#ff00ff;" x="291.677527" xlink:href="#m9fca8eb292" y="262.075974"/>
    </g>
   </g>
   <g id="line2d_44">
    <path d="M 167.974898 298.944 
L 167.974898 298.417314 
L 178.358547 298.417314 
L 178.358547 297.890628 
L 178.583886 297.890628 
L 178.583886 297.363942 
L 179.246611 297.363942 
L 179.246611 296.837256 
L 179.421748 296.837256 
L 179.421748 296.31057 
L 179.934886 296.31057 
L 179.934886 295.783884 
L 180.35706 295.783884 
L 180.35706 295.257197 
L 180.74609 295.257197 
L 180.74609 294.730511 
L 181.168284 294.730511 
L 181.168284 294.203825 
L 181.401014 294.203825 
L 181.401014 293.677139 
L 181.903953 293.677139 
L 181.903953 293.150453 
L 183.009417 293.150453 
L 183.009417 292.623767 
L 189.332345 292.623767 
L 189.332345 292.097081 
L 189.845497 292.097081 
L 189.845497 291.570395 
L 190.058751 291.570395 
L 190.058751 291.043709 
L 190.48187 291.043709 
L 190.48187 290.517023 
L 190.82022 290.517023 
L 190.82022 289.990337 
L 190.954409 289.990337 
L 190.954409 289.463651 
L 191.171265 289.463651 
L 191.171265 288.936964 
L 191.429481 288.936964 
L 191.429481 288.410278 
L 191.553448 288.410278 
L 191.553448 287.883592 
L 191.712461 287.883592 
L 191.821963 286.303534 
L 192.296462 286.303534 
L 192.296462 285.776848 
L 192.485145 285.776848 
L 192.534091 284.723476 
L 193.091825 284.723476 
L 193.091825 284.19679 
L 193.56428 284.19679 
L 193.56428 283.670104 
L 196.238594 283.670104 
L 196.238594 283.143418 
L 203.850318 283.143418 
L 203.850318 282.616732 
L 204.146274 282.616732 
L 204.146274 282.090045 
L 204.294861 282.090045 
L 204.369888 281.036673 
L 204.646691 281.036673 
L 204.664724 279.983301 
L 204.966223 279.983301 
L 204.966223 279.456615 
L 205.167467 279.456615 
L 205.167467 278.929929 
L 205.452765 278.929929 
L 205.452765 278.403243 
L 205.903055 278.403243 
L 205.903055 277.876557 
L 206.035178 277.876557 
L 206.035178 277.349871 
L 206.528155 277.349871 
L 206.528155 276.823185 
L 206.724898 276.823185 
L 206.724898 276.296499 
L 207.361008 276.296499 
L 207.361008 275.769812 
L 208.183126 275.769812 
L 208.183126 275.243126 
L 222.689373 275.243126 
L 222.689373 274.71644 
L 223.270655 274.71644 
L 223.299092 273.663068 
L 224.204702 273.663068 
L 224.27109 272.609696 
L 225.011863 272.609696 
L 225.011863 272.08301 
L 225.763972 272.08301 
L 225.763972 271.556324 
L 226.220798 271.556324 
L 226.306215 270.502952 
L 226.508716 270.502952 
L 226.508716 269.976266 
L 226.714359 269.976266 
L 226.714359 269.449579 
L 228.664705 269.449579 
L 228.664705 268.922893 
L 228.874912 268.922893 
L 228.874912 268.396207 
L 239.590245 268.396207 
L 239.615232 267.342835 
L 247.876845 267.342835 
L 247.876845 266.816149 
L 248.087486 266.816149 
L 248.087486 266.289463 
L 253.308682 266.289463 
L 253.310868 264.709405 
L 260.781909 264.709405 
L 260.781909 264.182719 
L 273.263569 264.182719 
L 273.263764 263.129347 
L 276.008123 263.129347 
L 276.008123 262.60266 
L 291.677527 262.60266 
L 291.677527 262.075974 
L 338.688 262.075974 
L 338.688 262.075974 
" style="fill:none;stroke:#ff00ff;stroke-linecap:square;stroke-width:1.5;"/>
   </g>
   <g id="line2d_45">
    <defs>
     <path d="M -0 8.485281 
L 5.091169 0 
L 0 -8.485281 
L -5.091169 -0 
z
" id="m3b41c198bc" style="stroke:#ff00ff;stroke-linejoin:miter;stroke-width:1.5;"/>
    </defs>
    <g>
     <use style="fill-opacity:0;stroke:#ff00ff;stroke-linejoin:miter;stroke-width:1.5;" x="260.781909" xlink:href="#m3b41c198bc" y="264.709405"/>
     <use style="fill-opacity:0;stroke:#ff00ff;stroke-linejoin:miter;stroke-width:1.5;" x="291.677527" xlink:href="#m3b41c198bc" y="262.075974"/>
     <use style="fill-opacity:0;stroke:#ff00ff;stroke-linejoin:miter;stroke-width:1.5;" x="291.677527" xlink:href="#m3b41c198bc" y="262.075974"/>
     <use style="fill-opacity:0;stroke:#ff00ff;stroke-linejoin:miter;stroke-width:1.5;" x="338.688" xlink:href="#m3b41c198bc" y="262.075974"/>
    </g>
   </g>
   <g id="line2d_46">
    <path style="fill:none;stroke:#ff00ff;stroke-linecap:square;stroke-width:1.5;"/>
    <g/>
   </g>
   <g id="line2d_47">
    <path clip-path="url(#p6c3e27ce70)" d="M 230.313343 268.396207 
" style="fill:none;stroke:#ff00ff;stroke-linecap:square;stroke-width:1.5;"/>
    <defs>
     <path d="M -12 12 
L 12 -12 
M -12 -12 
L 12 12 
" id="m9a10ddfbc8" style="stroke:#ff00ff;"/>
    </defs>
    <g clip-path="url(#p6c3e27ce70)">
     <use style="fill:#ff00ff;stroke:#ff00ff;" x="230.313343" xlink:href="#m9a10ddfbc8" y="268.396207"/>
    </g>
   </g>
   <g id="line2d_48">
    <defs>
     <path d="M 0 1.5 
C 0.397805 1.5 0.77937 1.341951 1.06066 1.06066 
C 1.341951 0.77937 1.5 0.397805 1.5 0 
C 1.5 -0.397805 1.341951 -0.77937 1.06066 -1.06066 
C 0.77937 -1.341951 0.397805 -1.5 0 -1.5 
C -0.397805 -1.5 -0.77937 -1.341951 -1.06066 -1.06066 
C -1.341951 -0.77937 -1.5 -0.397805 -1.5 0 
C -1.5 0.397805 -1.341951 0.77937 -1.06066 1.06066 
C -0.77937 1.341951 -0.397805 1.5 0 1.5 
z
" id="m7556ba3ace" style="stroke:#ff0000;"/>
    </defs>
    <g>
     <use style="fill:#ff0000;stroke:#ff0000;" x="313.665225" xlink:href="#m7556ba3ace" y="193.606784"/>
     <use style="fill:#ff0000;stroke:#ff0000;" x="313.665225" xlink:href="#m7556ba3ace" y="193.606784"/>
    </g>
   </g>
   <g id="line2d_49">
    <path d="M 137.858461 298.944 
L 137.858461 298.417314 
L 164.873242 298.417314 
L 164.873242 297.890628 
L 166.335605 297.890628 
L 166.391045 296.31057 
L 166.581603 296.31057 
L 166.581603 295.783884 
L 166.878918 295.783884 
L 166.878918 295.257197 
L 167.53469 295.257197 
L 167.53469 294.730511 
L 168.256451 294.730511 
L 168.256451 294.203825 
L 169.003123 294.203825 
L 169.003123 293.677139 
L 178.748171 293.677139 
L 178.803844 292.623767 
L 179.053227 292.623767 
L 179.053227 292.097081 
L 179.16493 292.097081 
L 179.16493 291.570395 
L 179.428604 291.570395 
L 179.527114 289.990337 
L 179.701057 289.990337 
L 179.701057 289.463651 
L 179.917643 289.463651 
L 179.99432 287.883592 
L 180.287723 287.883592 
L 180.287723 287.356906 
L 180.442109 287.356906 
L 180.442109 286.83022 
L 180.690668 286.83022 
L 180.690668 286.303534 
L 180.906493 286.303534 
L 180.906493 285.776848 
L 181.370378 285.776848 
L 181.370378 285.250162 
L 183.1021 285.250162 
L 183.1021 284.723476 
L 189.361798 284.723476 
L 189.361798 284.19679 
L 189.685004 284.19679 
L 189.685004 283.670104 
L 189.845719 283.670104 
L 189.845719 283.143418 
L 190.03155 283.143418 
L 190.10625 282.090045 
L 190.391356 282.090045 
L 190.402964 281.036673 
L 190.525032 281.036673 
L 190.56617 279.983301 
L 191.018837 279.983301 
L 191.05593 278.929929 
L 191.150277 278.929929 
L 191.169002 277.876557 
L 191.282572 277.876557 
L 191.361267 276.823185 
L 191.631133 276.823185 
L 191.631133 276.296499 
L 193.096429 276.296499 
L 193.096429 275.769812 
L 201.467115 275.769812 
L 201.467115 275.243126 
L 201.698374 275.243126 
L 201.698374 274.71644 
L 201.810573 274.71644 
L 201.905395 273.663068 
L 201.992629 273.663068 
L 202.052123 272.609696 
L 202.361964 272.609696 
L 202.361964 272.08301 
L 202.517151 272.08301 
L 202.517151 271.556324 
L 202.897819 271.556324 
L 202.897819 271.029638 
L 203.123827 271.029638 
L 203.123827 270.502952 
L 208.234761 270.502952 
L 208.234761 269.976266 
L 215.630413 269.976266 
L 215.630413 269.449579 
L 215.838577 269.449579 
L 215.839127 268.396207 
L 216.342495 268.396207 
L 216.342495 267.869521 
L 216.559987 267.869521 
L 216.667844 266.816149 
L 216.767078 266.816149 
L 216.793407 265.762777 
L 217.058033 265.762777 
L 217.058033 265.236091 
L 217.289477 265.236091 
L 217.289477 264.709405 
L 217.715545 264.709405 
L 217.715545 264.182719 
L 218.037678 264.182719 
L 218.037678 263.656033 
L 218.62032 263.656033 
L 218.62032 263.129347 
L 219.204329 263.129347 
L 219.204329 262.60266 
L 219.358061 262.60266 
L 219.430823 261.549288 
L 220.348124 261.549288 
L 220.348124 261.022602 
L 228.738046 261.022602 
L 228.738046 260.495916 
L 229.049372 260.495916 
L 229.110565 259.442544 
L 229.33796 259.442544 
L 229.368978 258.389172 
L 229.498807 258.389172 
L 229.498807 257.862486 
L 229.654495 257.862486 
L 229.66902 256.809114 
L 229.774133 256.809114 
L 229.831607 255.755741 
L 229.898068 255.755741 
L 230.005784 253.648997 
L 230.048123 253.648997 
L 230.081439 252.068939 
L 230.16466 252.068939 
L 230.246546 249.435508 
L 230.310422 249.435508 
L 230.318268 247.328764 
L 238.109404 247.328764 
L 238.109404 246.802078 
L 241.923494 246.802078 
L 241.929205 245.748706 
L 242.367976 245.748706 
L 242.415732 240.481845 
L 249.228628 240.481845 
L 249.228628 239.955159 
L 249.386816 239.955159 
L 249.479237 238.375101 
L 254.360206 238.375101 
L 254.42833 237.321729 
L 254.49449 237.321729 
L 254.49449 236.795043 
L 258.37188 236.795043 
L 258.393289 232.581554 
L 261.565755 232.581554 
L 261.569404 230.47481 
L 264.234167 230.47481 
L 264.257603 228.368065 
L 266.571385 228.368065 
L 266.587298 223.101204 
L 268.63603 223.101204 
L 268.640025 220.99446 
L 270.448735 220.99446 
L 270.479349 219.414402 
L 273.641845 219.414402 
L 273.656821 217.834344 
L 275.040572 217.834344 
L 275.050674 215.200913 
L 276.333434 215.200913 
L 276.343211 213.620855 
L 277.548856 213.620855 
L 277.549945 212.567483 
L 278.664936 212.567483 
L 278.672897 210.987425 
L 279.721477 210.987425 
L 279.730874 208.353994 
L 280.724782 208.353994 
L 280.72578 207.300622 
L 281.669282 207.300622 
L 281.670899 206.24725 
L 282.564822 206.24725 
L 282.564822 205.720564 
L 283.413406 205.720564 
L 283.413406 205.193878 
L 284.225282 205.193878 
L 284.225282 204.667192 
L 285.00213 204.667192 
L 285.00213 204.140506 
L 285.741331 204.140506 
L 285.744401 203.087133 
L 286.449281 203.087133 
L 286.456651 201.507075 
L 287.139819 201.507075 
L 287.139819 200.980389 
L 288.430172 200.980389 
L 288.430534 199.927017 
L 289.041554 199.927017 
L 289.041554 199.400331 
L 289.633794 199.400331 
L 289.633794 198.873645 
L 290.203698 198.873645 
L 290.206802 197.820273 
L 290.760283 197.820273 
L 290.760283 197.293586 
L 294.653317 197.293586 
L 294.653317 196.7669 
L 295.50313 196.7669 
L 295.50313 196.240214 
L 297.088968 196.240214 
L 297.088968 195.713528 
L 299.882024 195.713528 
L 299.882024 195.186842 
L 300.829684 195.186842 
L 300.829684 194.660156 
L 308.600571 194.660156 
L 308.600571 194.13347 
L 313.665225 194.13347 
L 313.665225 193.606784 
L 338.688 193.606784 
L 338.688 193.606784 
" style="fill:none;stroke:#ff0000;stroke-linecap:square;stroke-width:1.5;"/>
   </g>
   <g id="line2d_50">
    <defs>
     <path d="M 0 -6 
L -5.196152 -3 
L -5.196152 3 
L -0 6 
L 5.196152 3 
L 5.196152 -3 
z
" id="m929e22bff5" style="stroke:#ff0000;stroke-linejoin:miter;stroke-width:1.5;"/>
    </defs>
    <g>
     <use style="fill-opacity:0;stroke:#ff0000;stroke-linejoin:miter;stroke-width:1.5;" x="183.1021" xlink:href="#m929e22bff5" y="285.250162"/>
     <use style="fill-opacity:0;stroke:#ff0000;stroke-linejoin:miter;stroke-width:1.5;" x="238.109404" xlink:href="#m929e22bff5" y="246.802078"/>
     <use style="fill-opacity:0;stroke:#ff0000;stroke-linejoin:miter;stroke-width:1.5;" x="275.050674" xlink:href="#m929e22bff5" y="215.200913"/>
     <use style="fill-opacity:0;stroke:#ff0000;stroke-linejoin:miter;stroke-width:1.5;" x="313.665225" xlink:href="#m929e22bff5" y="193.606784"/>
     <use style="fill-opacity:0;stroke:#ff0000;stroke-linejoin:miter;stroke-width:1.5;" x="338.688" xlink:href="#m929e22bff5" y="193.606784"/>
    </g>
   </g>
   <g id="line2d_51">
    <path style="fill:none;stroke:#ff0000;stroke-linecap:square;stroke-width:1.5;"/>
    <g/>
   </g>
   <g id="line2d_52">
    <path clip-path="url(#p6c3e27ce70)" d="M 230.319248 247.328764 
" style="fill:none;stroke:#ff0000;stroke-linecap:square;stroke-width:1.5;"/>
    <defs>
     <path d="M -12 12 
L 12 -12 
M -12 -12 
L 12 12 
" id="m45dfa42e49" style="stroke:#ff0000;"/>
    </defs>
    <g clip-path="url(#p6c3e27ce70)">
     <use style="fill:#ff0000;stroke:#ff0000;" x="230.319248" xlink:href="#m45dfa42e49" y="247.328764"/>
    </g>
   </g>
   <g id="line2d_53">
    <defs>
     <path d="M 0 1.5 
C 0.397805 1.5 0.77937 1.341951 1.06066 1.06066 
C 1.341951 0.77937 1.5 0.397805 1.5 0 
C 1.5 -0.397805 1.341951 -0.77937 1.06066 -1.06066 
C 0.77937 -1.341951 0.397805 -1.5 0 -1.5 
C -0.397805 -1.5 -0.77937 -1.341951 -1.06066 -1.06066 
C -1.341951 -0.77937 -1.5 -0.397805 -1.5 0 
C -1.5 0.397805 -1.341951 0.77937 -1.06066 1.06066 
C -0.77937 1.341951 -0.397805 1.5 0 1.5 
z
" id="m4fc7ba40a2" style="stroke:#ff7500;"/>
    </defs>
    <g>
     <use style="fill:#ff7500;stroke:#ff7500;" x="285.471422" xlink:href="#m4fc7ba40a2" y="30.334099"/>
     <use style="fill:#ff7500;stroke:#ff7500;" x="285.471422" xlink:href="#m4fc7ba40a2" y="30.334099"/>
    </g>
   </g>
   <g id="line2d_54">
    <path d="M 138.794909 298.944 
L 138.794909 298.417314 
L 140.317849 298.417314 
L 140.378508 297.363942 
L 140.723258 297.363942 
L 140.723258 296.837256 
L 142.857929 296.837256 
L 142.857929 296.31057 
L 164.771685 296.31057 
L 164.870455 294.730511 
L 166.252542 294.730511 
L 166.252542 294.203825 
L 166.542813 294.203825 
L 166.542813 293.677139 
L 166.769268 293.677139 
L 166.799241 292.623767 
L 166.923577 292.623767 
L 166.923577 292.097081 
L 167.178577 292.097081 
L 167.178577 291.570395 
L 167.299438 291.570395 
L 167.409028 289.990337 
L 167.576907 289.990337 
L 167.576907 289.463651 
L 169.139679 289.463651 
L 169.139679 288.936964 
L 169.317706 288.936964 
L 169.317706 288.410278 
L 169.665576 288.410278 
L 169.665576 287.883592 
L 178.750686 287.883592 
L 178.750686 287.356906 
L 179.129689 287.356906 
L 179.129689 286.83022 
L 180.483149 286.83022 
L 180.546043 285.776848 
L 180.687292 285.776848 
L 180.687292 285.250162 
L 181.051478 285.250162 
L 181.051478 284.723476 
L 181.356665 284.723476 
L 181.356665 284.19679 
L 181.490091 284.19679 
L 181.490091 283.670104 
L 181.610054 283.670104 
L 181.610054 283.143418 
L 181.785296 283.143418 
L 181.785296 282.616732 
L 181.915844 282.616732 
L 181.915844 282.090045 
L 182.140252 282.090045 
L 182.140252 281.563359 
L 182.410134 281.563359 
L 182.410134 281.036673 
L 184.083888 281.036673 
L 184.083888 280.509987 
L 190.140535 280.509987 
L 190.140535 279.983301 
L 190.436886 279.983301 
L 190.436886 279.456615 
L 190.602751 279.456615 
L 190.602751 278.929929 
L 190.867994 278.929929 
L 190.867994 278.403243 
L 191.15357 278.403243 
L 191.15357 277.876557 
L 191.438799 277.876557 
L 191.503079 276.296499 
L 191.621316 276.296499 
L 191.621316 275.769812 
L 191.86984 275.769812 
L 191.86984 275.243126 
L 192.002887 275.243126 
L 192.015627 274.189754 
L 192.243556 274.189754 
L 192.278137 273.136382 
L 193.027791 273.136382 
L 193.027791 272.609696 
L 193.23089 272.609696 
L 193.242034 271.556324 
L 202.697006 271.556324 
L 202.697006 271.029638 
L 203.03969 271.029638 
L 203.03969 270.502952 
L 203.39894 270.502952 
L 203.39894 269.976266 
L 203.562292 269.976266 
L 203.562292 269.449579 
L 203.751438 269.449579 
L 203.788384 268.396207 
L 204.214838 268.396207 
L 204.253244 267.342835 
L 204.958576 267.342835 
L 204.958576 266.816149 
L 205.151792 266.816149 
L 205.151792 266.289463 
L 205.271944 266.289463 
L 205.316046 265.236091 
L 215.200466 265.236091 
L 215.200466 264.709405 
L 215.541719 264.709405 
L 215.541719 264.182719 
L 215.725048 264.182719 
L 215.725048 263.656033 
L 215.951521 263.656033 
L 215.965221 262.60266 
L 216.107054 262.60266 
L 216.107054 262.075974 
L 216.262433 262.075974 
L 216.262433 261.549288 
L 216.600225 261.549288 
L 216.678945 260.495916 
L 216.897953 260.495916 
L 216.993737 258.389172 
L 217.130774 258.389172 
L 217.130774 257.862486 
L 217.407324 257.862486 
L 217.407324 257.3358 
L 217.575309 257.3358 
L 217.67074 255.229055 
L 217.771826 255.229055 
L 217.879623 252.595625 
L 217.980084 252.595625 
L 218.085814 251.015567 
L 218.133116 251.015567 
L 218.206623 249.435508 
L 218.270911 249.435508 
L 218.363571 248.382136 
L 218.439172 248.382136 
L 218.535356 245.748706 
L 218.597123 245.748706 
L 218.673335 244.168648 
L 218.709027 244.168648 
L 218.80884 242.061903 
L 218.836009 242.061903 
L 218.879811 239.955159 
L 218.951873 239.955159 
L 219.022765 237.848415 
L 219.100626 237.848415 
L 219.197033 235.74167 
L 219.263447 235.74167 
L 219.319581 234.161612 
L 219.394215 234.161612 
L 219.473929 232.581554 
L 219.522392 232.581554 
L 219.569793 231.001496 
L 219.659272 231.001496 
L 219.759834 229.421437 
L 219.845049 229.421437 
L 219.945616 227.841379 
L 219.970795 227.841379 
L 219.98609 226.788007 
L 220.094427 226.788007 
L 220.199876 225.207949 
L 220.220609 225.207949 
L 220.312079 223.627891 
L 220.383748 223.627891 
L 220.480689 221.521146 
L 220.546749 221.521146 
L 220.647306 219.414402 
L 220.708126 219.414402 
L 220.809789 217.834344 
L 220.84152 217.834344 
L 220.921174 216.780971 
L 220.995334 216.780971 
L 221.097449 214.674227 
L 221.324406 214.674227 
L 221.389605 213.620855 
L 221.671081 213.620855 
L 221.671081 213.094169 
L 221.794209 213.094169 
L 221.794209 212.567483 
L 221.920106 212.567483 
L 221.920106 212.040797 
L 222.193631 212.040797 
L 222.193631 211.514111 
L 228.404388 211.514111 
L 228.404388 210.987425 
L 228.53385 210.987425 
L 228.611707 209.934052 
L 228.716205 209.934052 
L 228.780194 207.827308 
L 228.860373 207.827308 
L 228.902393 206.24725 
L 228.993771 206.24725 
L 229.052933 204.667192 
L 229.121256 204.667192 
L 229.202278 203.087133 
L 229.255622 203.087133 
L 229.338582 198.873645 
L 229.369254 198.873645 
L 229.462001 194.660156 
L 229.483957 194.660156 
L 229.590233 190.446667 
L 229.612232 190.446667 
L 229.707852 186.233179 
L 229.736553 186.233179 
L 229.847283 183.073062 
L 229.863885 183.073062 
L 229.958005 179.38626 
L 229.976368 179.38626 
L 230.072514 175.172771 
L 230.093252 175.172771 
L 230.201484 169.90591 
L 230.209094 169.90591 
L 230.316307 152.52527 
L 230.322189 152.52527 
L 230.328396 141.464862 
L 237.170759 141.464862 
L 237.170759 140.938176 
L 237.33908 140.938176 
L 237.366082 139.884804 
L 237.637878 139.884804 
L 237.715391 138.304745 
L 237.760796 138.304745 
L 237.863555 137.251373 
L 237.876626 137.251373 
L 237.981501 134.091257 
L 237.996757 134.091257 
L 238.093354 130.404454 
L 238.159954 130.404454 
L 238.261099 127.771024 
L 238.290326 127.771024 
L 238.396452 125.66428 
L 238.404676 125.66428 
L 238.509661 123.030849 
L 238.593804 123.030849 
L 238.694573 121.450791 
L 238.773068 121.450791 
L 238.79191 120.397419 
L 241.85414 120.397419 
L 241.915977 118.290674 
L 241.986012 118.290674 
L 242.03065 117.237302 
L 242.098408 117.237302 
L 242.198083 115.130558 
L 242.249681 115.130558 
L 242.346738 113.5505 
L 242.369144 113.5505 
L 242.415895 101.43672 
L 246.220037 101.43672 
L 246.294037 99.856662 
L 246.455073 99.856662 
L 246.562249 97.749917 
L 246.577522 97.749917 
L 246.659929 95.116487 
L 246.707189 95.116487 
L 246.766484 93.536429 
L 246.854844 93.536429 
L 246.959506 90.376312 
L 247.010155 90.376312 
L 247.078784 88.269568 
L 247.166972 88.269568 
L 247.166972 87.742882 
L 249.14444 87.742882 
L 249.14444 87.216196 
L 249.444337 87.216196 
L 249.4849 82.476021 
L 252.235314 82.476021 
L 252.310987 79.842591 
L 252.441102 79.842591 
L 252.53581 74.57573 
L 252.557956 74.57573 
L 252.577338 71.942299 
L 252.681015 71.942299 
L 252.766171 69.835555 
L 252.796062 69.835555 
L 252.796062 69.308869 
L 254.458257 69.308869 
L 254.500698 66.675439 
L 256.630407 66.675439 
L 256.630407 66.148752 
L 256.788808 66.148752 
L 256.866196 65.09538 
L 256.906694 65.09538 
L 256.955355 64.042008 
L 257.022734 64.042008 
L 257.037824 62.46195 
L 258.391002 62.46195 
L 258.391002 61.935264 
L 260.139828 61.935264 
L 260.224113 59.82852 
L 260.258448 59.82852 
L 260.361838 55.615031 
L 260.392063 55.615031 
L 260.441724 54.034973 
L 261.571255 54.034973 
L 261.571255 53.508287 
L 263.065066 53.508287 
L 263.139951 50.874856 
L 263.183792 50.874856 
L 263.276691 49.294798 
L 265.521738 49.294798 
L 265.621065 47.71474 
L 265.745665 47.71474 
L 265.745665 47.188054 
L 267.714283 47.188054 
L 267.714283 46.661368 
L 267.854454 46.661368 
L 267.90278 45.081309 
L 269.663681 45.081309 
L 269.763863 41.394507 
L 269.782994 41.394507 
L 269.792148 40.341135 
L 270.477291 40.341135 
L 270.477291 39.814448 
L 271.452517 39.814448 
L 271.464975 38.761076 
L 272.97602 38.761076 
L 273.03687 36.654332 
L 273.100979 36.654332 
L 273.100979 36.127646 
L 274.542478 36.127646 
L 274.542478 35.60096 
L 275.785364 35.60096 
L 275.796712 34.547588 
L 277.012523 34.547588 
L 277.062812 33.494215 
L 278.170614 33.494215 
L 278.236459 31.914157 
L 279.270789 31.914157 
L 279.270789 31.387471 
L 281.266477 31.387471 
L 281.266477 30.860785 
L 285.471422 30.860785 
L 285.471422 30.334099 
L 338.688 30.334099 
L 338.688 30.334099 
" style="fill:none;stroke:#ff7500;stroke-linecap:square;stroke-width:1.5;"/>
   </g>
   <g id="line2d_55">
    <defs>
     <path d="M 0 -6 
L -1.347084 -1.854102 
L -5.706339 -1.854102 
L -2.179628 0.708204 
L -3.526712 4.854102 
L -0 2.291796 
L 3.526712 4.854102 
L 2.179628 0.708204 
L 5.706339 -1.854102 
L 1.347084 -1.854102 
z
" id="m2d105448ef" style="stroke:#ff7500;stroke-linejoin:bevel;stroke-width:1.5;"/>
    </defs>
    <g>
     <use style="fill-opacity:0;stroke:#ff7500;stroke-linejoin:bevel;stroke-width:1.5;" x="229.526235" xlink:href="#m2d105448ef" y="192.553412"/>
     <use style="fill-opacity:0;stroke:#ff7500;stroke-linejoin:bevel;stroke-width:1.5;" x="252.309412" xlink:href="#m2d105448ef" y="80.895963"/>
     <use style="fill-opacity:0;stroke:#ff7500;stroke-linejoin:bevel;stroke-width:1.5;" x="285.471422" xlink:href="#m2d105448ef" y="30.334099"/>
     <use style="fill-opacity:0;stroke:#ff7500;stroke-linejoin:bevel;stroke-width:1.5;" x="285.471422" xlink:href="#m2d105448ef" y="30.334099"/>
     <use style="fill-opacity:0;stroke:#ff7500;stroke-linejoin:bevel;stroke-width:1.5;" x="338.688" xlink:href="#m2d105448ef" y="30.334099"/>
    </g>
   </g>
   <g id="line2d_56">
    <path style="fill:none;stroke:#ff7500;stroke-linecap:square;stroke-width:1.5;"/>
    <g/>
   </g>
   <g id="line2d_57">
    <path clip-path="url(#p6c3e27ce70)" d="M 230.322189 148.838467 
" style="fill:none;stroke:#ff7500;stroke-linecap:square;stroke-width:1.5;"/>
    <defs>
     <path d="M -12 12 
L 12 -12 
M -12 -12 
L 12 12 
" id="m4c3c1daa32" style="stroke:#ff7500;"/>
    </defs>
    <g clip-path="url(#p6c3e27ce70)">
     <use style="fill:#ff7500;stroke:#ff7500;" x="230.322189" xlink:href="#m4c3c1daa32" y="148.838467"/>
    </g>
   </g>
   <g id="line2d_58">
    <path d="M 338.688 262.075974 
L 369.60768 293.571802 
" style="fill:none;stroke:#ff00ff;stroke-linecap:square;stroke-width:1.5;"/>
    <g>
     <use style="fill-opacity:0;stroke:#ff00ff;stroke-linejoin:miter;stroke-width:1.5;" x="338.688" xlink:href="#m3b41c198bc" y="262.075974"/>
     <use style="fill-opacity:0;stroke:#ff00ff;stroke-linejoin:miter;stroke-width:1.5;" x="369.60768" xlink:href="#m3b41c198bc" y="293.571802"/>
    </g>
   </g>
   <g id="line2d_59">
    <path d="M 338.688 193.606784 
L 369.60768 241.998701 
" style="fill:none;stroke:#ff0000;stroke-linecap:square;stroke-width:1.5;"/>
    <g>
     <use style="fill-opacity:0;stroke:#ff0000;stroke-linejoin:miter;stroke-width:1.5;" x="338.688" xlink:href="#m929e22bff5" y="193.606784"/>
     <use style="fill-opacity:0;stroke:#ff0000;stroke-linejoin:miter;stroke-width:1.5;" x="369.60768" xlink:href="#m929e22bff5" y="241.998701"/>
    </g>
   </g>
   <g id="line2d_60">
    <path d="M 338.688 30.334099 
L 369.60768 190.4256 
" style="fill:none;stroke:#ff7500;stroke-linecap:square;stroke-width:1.5;"/>
    <g>
     <use style="fill-opacity:0;stroke:#ff7500;stroke-linejoin:bevel;stroke-width:1.5;" x="338.688" xlink:href="#m2d105448ef" y="30.334099"/>
     <use style="fill-opacity:0;stroke:#ff7500;stroke-linejoin:bevel;stroke-width:1.5;" x="369.60768" xlink:href="#m2d105448ef" y="190.4256"/>
    </g>
   </g>
   <g id="line2d_61">
    <path d="M 338.688 30.334099 
L 369.60768 138.852499 
" style="fill:none;stroke:#000080;stroke-linecap:square;stroke-width:1.5;"/>
    <g>
     <use style="fill-opacity:0;stroke:#000080;stroke-width:1.5;" x="338.688" xlink:href="#m169dbf415b" y="30.334099"/>
     <use style="fill-opacity:0;stroke:#000080;stroke-width:1.5;" x="369.60768" xlink:href="#m169dbf415b" y="138.852499"/>
    </g>
   </g>
   <g id="line2d_62">
    <path d="M 338.688 30.334099 
L 369.60768 87.279398 
" style="fill:none;stroke:#000080;stroke-linecap:square;stroke-width:1.5;"/>
    <g>
     <use style="fill-opacity:0;stroke:#000080;stroke-width:1.5;" x="338.688" xlink:href="#m169dbf415b" y="30.334099"/>
     <use style="fill-opacity:0;stroke:#000080;stroke-width:1.5;" x="369.60768" xlink:href="#m169dbf415b" y="87.279398"/>
    </g>
   </g>
   <g id="line2d_63">
    <path d="M 338.688 298.944 
L 338.688 30.334099 
" style="fill:none;stroke:#000000;stroke-linecap:square;stroke-width:1.5;"/>
   </g>
   <g id="patch_3">
    <path d="M 57.6 298.944 
L 57.6 27.648 
" style="fill:none;stroke:#000000;stroke-linecap:square;stroke-linejoin:miter;stroke-width:0.8;"/>
   </g>
   <g id="patch_4">
    <path d="M 338.688 298.944 
L 338.688 27.648 
" style="fill:none;stroke:#000000;stroke-linecap:square;stroke-linejoin:miter;stroke-width:0.8;"/>
   </g>
   <g id="patch_5">
    <path d="M 57.6 298.944 
L 338.688 298.944 
" style="fill:none;stroke:#000000;stroke-linecap:square;stroke-linejoin:miter;stroke-width:0.8;"/>
   </g>
   <g id="patch_6">
    <path d="M 57.6 27.648 
L 338.688 27.648 
" style="fill:none;stroke:#000000;stroke-linecap:square;stroke-linejoin:miter;stroke-width:0.8;"/>
   </g>
   <g id="text_13">
    <!-- 400s-2e4 -->
    <g transform="translate(375.22944 298.262739)scale(0.17 -0.17)">
     <use xlink:href="#DejaVuSans-52"/>
     <use x="63.623047" xlink:href="#DejaVuSans-48"/>
     <use x="127.246094" xlink:href="#DejaVuSans-48"/>
     <use x="190.869141" xlink:href="#DejaVuSans-115"/>
     <use x="242.96875" xlink:href="#DejaVuSans-45"/>
     <use x="279.052734" xlink:href="#DejaVuSans-50"/>
     <use x="342.675781" xlink:href="#DejaVuSans-101"/>
     <use x="404.199219" xlink:href="#DejaVuSans-52"/>
    </g>
   </g>
   <g id="text_14">
    <!-- 200s-2e4 -->
    <g transform="translate(375.22944 246.689638)scale(0.17 -0.17)">
     <use xlink:href="#DejaVuSans-50"/>
     <use x="63.623047" xlink:href="#DejaVuSans-48"/>
     <use x="127.246094" xlink:href="#DejaVuSans-48"/>
     <use x="190.869141" xlink:href="#DejaVuSans-115"/>
     <use x="242.96875" xlink:href="#DejaVuSans-45"/>
     <use x="279.052734" xlink:href="#DejaVuSans-50"/>
     <use x="342.675781" xlink:href="#DejaVuSans-101"/>
     <use x="404.199219" xlink:href="#DejaVuSans-52"/>
    </g>
   </g>
   <g id="text_15">
    <!-- 140s-2e4 -->
    <g transform="translate(375.22944 195.116537)scale(0.17 -0.17)">
     <use xlink:href="#DejaVuSans-49"/>
     <use x="63.623047" xlink:href="#DejaVuSans-52"/>
     <use x="127.246094" xlink:href="#DejaVuSans-48"/>
     <use x="190.869141" xlink:href="#DejaVuSans-115"/>
     <use x="242.96875" xlink:href="#DejaVuSans-45"/>
     <use x="279.052734" xlink:href="#DejaVuSans-50"/>
     <use x="342.675781" xlink:href="#DejaVuSans-101"/>
     <use x="404.199219" xlink:href="#DejaVuSans-52"/>
    </g>
   </g>
   <g id="text_16">
    <!-- 100-2e4 -->
    <g transform="translate(375.22944 143.543437)scale(0.17 -0.17)">
     <use xlink:href="#DejaVuSans-49"/>
     <use x="63.623047" xlink:href="#DejaVuSans-48"/>
     <use x="127.246094" xlink:href="#DejaVuSans-48"/>
     <use x="190.869141" xlink:href="#DejaVuSans-45"/>
     <use x="226.953125" xlink:href="#DejaVuSans-50"/>
     <use x="290.576172" xlink:href="#DejaVuSans-101"/>
     <use x="352.099609" xlink:href="#DejaVuSans-52"/>
    </g>
   </g>
   <g id="text_17">
    <!-- 100-1e5 -->
    <defs>
     <path d="M 10.796875 72.90625 
L 49.515625 72.90625 
L 49.515625 64.59375 
L 19.828125 64.59375 
L 19.828125 46.734375 
Q 21.96875 47.46875 24.109375 47.828125 
Q 26.265625 48.1875 28.421875 48.1875 
Q 40.625 48.1875 47.75 41.5 
Q 54.890625 34.8125 54.890625 23.390625 
Q 54.890625 11.625 47.5625 5.09375 
Q 40.234375 -1.421875 26.90625 -1.421875 
Q 22.3125 -1.421875 17.546875 -0.640625 
Q 12.796875 0.140625 7.71875 1.703125 
L 7.71875 11.625 
Q 12.109375 9.234375 16.796875 8.0625 
Q 21.484375 6.890625 26.703125 6.890625 
Q 35.15625 6.890625 40.078125 11.328125 
Q 45.015625 15.765625 45.015625 23.390625 
Q 45.015625 31 40.078125 35.4375 
Q 35.15625 39.890625 26.703125 39.890625 
Q 22.75 39.890625 18.8125 39.015625 
Q 14.890625 38.140625 10.796875 36.28125 
z
" id="DejaVuSans-53"/>
    </defs>
    <g transform="translate(375.22944 91.970336)scale(0.17 -0.17)">
     <use xlink:href="#DejaVuSans-49"/>
     <use x="63.623047" xlink:href="#DejaVuSans-48"/>
     <use x="127.246094" xlink:href="#DejaVuSans-48"/>
     <use x="190.869141" xlink:href="#DejaVuSans-45"/>
     <use x="226.953125" xlink:href="#DejaVuSans-49"/>
     <use x="290.576172" xlink:href="#DejaVuSans-101"/>
     <use x="352.099609" xlink:href="#DejaVuSans-53"/>
    </g>
   </g>
   <g id="text_18">
    <!-- best 2009 -->
    <defs>
     <path d="M 48.6875 27.296875 
Q 48.6875 37.203125 44.609375 42.84375 
Q 40.53125 48.484375 33.40625 48.484375 
Q 26.265625 48.484375 22.1875 42.84375 
Q 18.109375 37.203125 18.109375 27.296875 
Q 18.109375 17.390625 22.1875 11.75 
Q 26.265625 6.109375 33.40625 6.109375 
Q 40.53125 6.109375 44.609375 11.75 
Q 48.6875 17.390625 48.6875 27.296875 
z
M 18.109375 46.390625 
Q 20.953125 51.265625 25.265625 53.625 
Q 29.59375 56 35.59375 56 
Q 45.5625 56 51.78125 48.09375 
Q 58.015625 40.1875 58.015625 27.296875 
Q 58.015625 14.40625 51.78125 6.484375 
Q 45.5625 -1.421875 35.59375 -1.421875 
Q 29.59375 -1.421875 25.265625 0.953125 
Q 20.953125 3.328125 18.109375 8.203125 
L 18.109375 0 
L 9.078125 0 
L 9.078125 75.984375 
L 18.109375 75.984375 
z
" id="DejaVuSans-98"/>
     <path d="M 10.984375 1.515625 
L 10.984375 10.5 
Q 14.703125 8.734375 18.5 7.8125 
Q 22.3125 6.890625 25.984375 6.890625 
Q 35.75 6.890625 40.890625 13.453125 
Q 46.046875 20.015625 46.78125 33.40625 
Q 43.953125 29.203125 39.59375 26.953125 
Q 35.25 24.703125 29.984375 24.703125 
Q 19.046875 24.703125 12.671875 31.3125 
Q 6.296875 37.9375 6.296875 49.421875 
Q 6.296875 60.640625 12.9375 67.421875 
Q 19.578125 74.21875 30.609375 74.21875 
Q 43.265625 74.21875 49.921875 64.515625 
Q 56.59375 54.828125 56.59375 36.375 
Q 56.59375 19.140625 48.40625 8.859375 
Q 40.234375 -1.421875 26.421875 -1.421875 
Q 22.703125 -1.421875 18.890625 -0.6875 
Q 15.09375 0.046875 10.984375 1.515625 
z
M 30.609375 32.421875 
Q 37.25 32.421875 41.125 36.953125 
Q 45.015625 41.5 45.015625 49.421875 
Q 45.015625 57.28125 41.125 61.84375 
Q 37.25 66.40625 30.609375 66.40625 
Q 23.96875 66.40625 20.09375 61.84375 
Q 16.21875 57.28125 16.21875 49.421875 
Q 16.21875 41.5 20.09375 36.953125 
Q 23.96875 32.421875 30.609375 32.421875 
z
" id="DejaVuSans-57"/>
    </defs>
    <g transform="translate(375.22944 40.397235)scale(0.17 -0.17)">
     <use xlink:href="#DejaVuSans-98"/>
     <use x="63.476562" xlink:href="#DejaVuSans-101"/>
     <use x="125" xlink:href="#DejaVuSans-115"/>
     <use x="177.099609" xlink:href="#DejaVuSans-116"/>
     <use x="216.308594" xlink:href="#DejaVuSans-32"/>
     <use x="248.095703" xlink:href="#DejaVuSans-50"/>
     <use x="311.71875" xlink:href="#DejaVuSans-48"/>
     <use x="375.341797" xlink:href="#DejaVuSans-48"/>
     <use x="438.964844" xlink:href="#DejaVuSans-57"/>
    </g>
   </g>
   <g id="text_19">
    <!-- bbob f15, 40-D -->
    <defs>
     <path d="M 19.671875 64.796875 
L 19.671875 8.109375 
L 31.59375 8.109375 
Q 46.6875 8.109375 53.6875 14.9375 
Q 60.6875 21.78125 60.6875 36.53125 
Q 60.6875 51.171875 53.6875 57.984375 
Q 46.6875 64.796875 31.59375 64.796875 
z
M 9.8125 72.90625 
L 30.078125 72.90625 
Q 51.265625 72.90625 61.171875 64.09375 
Q 71.09375 55.28125 71.09375 36.53125 
Q 71.09375 17.671875 61.125 8.828125 
Q 51.171875 0 30.078125 0 
L 9.8125 0 
z
" id="DejaVuSans-68"/>
    </defs>
    <g transform="translate(60.41088 38.111366)scale(0.102 -0.102)">
     <use xlink:href="#DejaVuSans-98"/>
     <use x="63.476562" xlink:href="#DejaVuSans-98"/>
     <use x="126.953125" xlink:href="#DejaVuSans-111"/>
     <use x="188.134766" xlink:href="#DejaVuSans-98"/>
     <use x="251.611328" xlink:href="#DejaVuSans-32"/>
     <use x="283.398438" xlink:href="#DejaVuSans-102"/>
     <use x="318.603516" xlink:href="#DejaVuSans-49"/>
     <use x="382.226562" xlink:href="#DejaVuSans-53"/>
     <use x="445.849609" xlink:href="#DejaVuSans-44"/>
     <use x="477.636719" xlink:href="#DejaVuSans-32"/>
     <use x="509.423828" xlink:href="#DejaVuSans-52"/>
     <use x="573.046875" xlink:href="#DejaVuSans-48"/>
     <use x="636.669922" xlink:href="#DejaVuSans-45"/>
     <use x="672.753906" xlink:href="#DejaVuSans-68"/>
    </g>
    <!-- 51 targets: 100..1e-08 -->
    <defs>
     <path d="M 11.71875 12.40625 
L 22.015625 12.40625 
L 22.015625 0 
L 11.71875 0 
z
M 11.71875 51.703125 
L 22.015625 51.703125 
L 22.015625 39.3125 
L 11.71875 39.3125 
z
" id="DejaVuSans-58"/>
    </defs>
    <g transform="translate(60.41088 49.533135)scale(0.102 -0.102)">
     <use xlink:href="#DejaVuSans-53"/>
     <use x="63.623047" xlink:href="#DejaVuSans-49"/>
     <use x="127.246094" xlink:href="#DejaVuSans-32"/>
     <use x="159.033203" xlink:href="#DejaVuSans-116"/>
     <use x="198.242188" xlink:href="#DejaVuSans-97"/>
     <use x="259.521484" xlink:href="#DejaVuSans-114"/>
     <use x="300.619141" xlink:href="#DejaVuSans-103"/>
     <use x="364.095703" xlink:href="#DejaVuSans-101"/>
     <use x="425.619141" xlink:href="#DejaVuSans-116"/>
     <use x="464.828125" xlink:href="#DejaVuSans-115"/>
     <use x="516.927734" xlink:href="#DejaVuSans-58"/>
     <use x="550.619141" xlink:href="#DejaVuSans-32"/>
     <use x="582.40625" xlink:href="#DejaVuSans-49"/>
     <use x="646.029297" xlink:href="#DejaVuSans-48"/>
     <use x="709.652344" xlink:href="#DejaVuSans-48"/>
     <use x="773.275391" xlink:href="#DejaVuSans-46"/>
     <use x="805.0625" xlink:href="#DejaVuSans-46"/>
     <use x="836.849609" xlink:href="#DejaVuSans-49"/>
     <use x="900.472656" xlink:href="#DejaVuSans-101"/>
     <use x="961.996094" xlink:href="#DejaVuSans-45"/>
     <use x="998.080078" xlink:href="#DejaVuSans-48"/>
     <use x="1061.703125" xlink:href="#DejaVuSans-56"/>
    </g>
    <!-- 15 instances -->
    <g transform="translate(60.41088 60.954904)scale(0.102 -0.102)">
     <use xlink:href="#DejaVuSans-49"/>
     <use x="63.623047" xlink:href="#DejaVuSans-53"/>
     <use x="127.246094" xlink:href="#DejaVuSans-32"/>
     <use x="159.033203" xlink:href="#DejaVuSans-105"/>
     <use x="186.816406" xlink:href="#DejaVuSans-110"/>
     <use x="250.195312" xlink:href="#DejaVuSans-115"/>
     <use x="302.294922" xlink:href="#DejaVuSans-116"/>
     <use x="341.503906" xlink:href="#DejaVuSans-97"/>
     <use x="402.783203" xlink:href="#DejaVuSans-110"/>
     <use x="466.162109" xlink:href="#DejaVuSans-99"/>
     <use x="521.142578" xlink:href="#DejaVuSans-101"/>
     <use x="582.666016" xlink:href="#DejaVuSans-115"/>
    </g>
   </g>
   <g id="text_20">
    <!-- v2.3.3.18.73 -->
    <defs>
     <path d="M 40.578125 39.3125 
Q 47.65625 37.796875 51.625 33 
Q 55.609375 28.21875 55.609375 21.1875 
Q 55.609375 10.40625 48.1875 4.484375 
Q 40.765625 -1.421875 27.09375 -1.421875 
Q 22.515625 -1.421875 17.65625 -0.515625 
Q 12.796875 0.390625 7.625 2.203125 
L 7.625 11.71875 
Q 11.71875 9.328125 16.59375 8.109375 
Q 21.484375 6.890625 26.8125 6.890625 
Q 36.078125 6.890625 40.9375 10.546875 
Q 45.796875 14.203125 45.796875 21.1875 
Q 45.796875 27.640625 41.28125 31.265625 
Q 36.765625 34.90625 28.71875 34.90625 
L 20.21875 34.90625 
L 20.21875 43.015625 
L 29.109375 43.015625 
Q 36.375 43.015625 40.234375 45.921875 
Q 44.09375 48.828125 44.09375 54.296875 
Q 44.09375 59.90625 40.109375 62.90625 
Q 36.140625 65.921875 28.71875 65.921875 
Q 24.65625 65.921875 20.015625 65.03125 
Q 15.375 64.15625 9.8125 62.3125 
L 9.8125 71.09375 
Q 15.4375 72.65625 20.34375 73.4375 
Q 25.25 74.21875 29.59375 74.21875 
Q 40.828125 74.21875 47.359375 69.109375 
Q 53.90625 64.015625 53.90625 55.328125 
Q 53.90625 49.265625 50.4375 45.09375 
Q 46.96875 40.921875 40.578125 39.3125 
z
" id="DejaVuSans-51"/>
     <path d="M 8.203125 72.90625 
L 55.078125 72.90625 
L 55.078125 68.703125 
L 28.609375 0 
L 18.3125 0 
L 43.21875 64.59375 
L 8.203125 64.59375 
z
" id="DejaVuSans-55"/>
    </defs>
    <g style="fill:#808080;" transform="translate(166.559625 294.151352)scale(0.1 -0.1)">
     <use xlink:href="#DejaVuSans-118"/>
     <use x="59.179688" xlink:href="#DejaVuSans-50"/>
     <use x="122.802734" xlink:href="#DejaVuSans-46"/>
     <use x="154.589844" xlink:href="#DejaVuSans-51"/>
     <use x="218.212891" xlink:href="#DejaVuSans-46"/>
     <use x="250" xlink:href="#DejaVuSans-51"/>
     <use x="313.623047" xlink:href="#DejaVuSans-46"/>
     <use x="345.410156" xlink:href="#DejaVuSans-49"/>
     <use x="409.033203" xlink:href="#DejaVuSans-56"/>
     <use x="472.65625" xlink:href="#DejaVuSans-46"/>
     <use x="504.443359" xlink:href="#DejaVuSans-55"/>
     <use x="568.066406" xlink:href="#DejaVuSans-51"/>
    </g>
   </g>
   <g id="text_21">
    <!-- 15 Rastrigin -->
    <defs>
     <path d="M 44.390625 34.1875 
Q 47.5625 33.109375 50.5625 29.59375 
Q 53.5625 26.078125 56.59375 19.921875 
L 66.609375 0 
L 56 0 
L 46.6875 18.703125 
Q 43.0625 26.03125 39.671875 28.421875 
Q 36.28125 30.8125 30.421875 30.8125 
L 19.671875 30.8125 
L 19.671875 0 
L 9.8125 0 
L 9.8125 72.90625 
L 32.078125 72.90625 
Q 44.578125 72.90625 50.734375 67.671875 
Q 56.890625 62.453125 56.890625 51.90625 
Q 56.890625 45.015625 53.6875 40.46875 
Q 50.484375 35.9375 44.390625 34.1875 
z
M 19.671875 64.796875 
L 19.671875 38.921875 
L 32.078125 38.921875 
Q 39.203125 38.921875 42.84375 42.21875 
Q 46.484375 45.515625 46.484375 51.90625 
Q 46.484375 58.296875 42.84375 61.546875 
Q 39.203125 64.796875 32.078125 64.796875 
z
" id="DejaVuSans-82"/>
    </defs>
    <g transform="translate(137.684625 21.648)scale(0.2 -0.2)">
     <use xlink:href="#DejaVuSans-49"/>
     <use x="63.623047" xlink:href="#DejaVuSans-53"/>
     <use x="127.246094" xlink:href="#DejaVuSans-32"/>
     <use x="159.033203" xlink:href="#DejaVuSans-82"/>
     <use x="228.484375" xlink:href="#DejaVuSans-97"/>
     <use x="289.763672" xlink:href="#DejaVuSans-115"/>
     <use x="341.863281" xlink:href="#DejaVuSans-116"/>
     <use x="381.072266" xlink:href="#DejaVuSans-114"/>
     <use x="422.185547" xlink:href="#DejaVuSans-105"/>
     <use x="449.96875" xlink:href="#DejaVuSans-103"/>
     <use x="513.445312" xlink:href="#DejaVuSans-105"/>
     <use x="541.228516" xlink:href="#DejaVuSans-110"/>
    </g>
   </g>
  </g>
 </g>
 <defs>
  <clipPath id="p6c3e27ce70">
   <rect height="271.296" width="281.088" x="57.6" y="27.648"/>
  </clipPath>
 </defs>
</svg>
