<?xml version="1.0" encoding="utf-8" standalone="no"?>
<!DOCTYPE svg PUBLIC "-//W3C//DTD SVG 1.1//EN"
  "http://www.w3.org/Graphics/SVG/1.1/DTD/svg11.dtd">
<!-- Created with matplotlib (https://matplotlib.org/) -->
<svg height="345.6pt" version="1.1" viewBox="0 0 460.8 345.6" width="460.8pt" xmlns="http://www.w3.org/2000/svg" xmlns:xlink="http://www.w3.org/1999/xlink">
 <defs>
  <style type="text/css">
*{stroke-linecap:butt;stroke-linejoin:round;}
  </style>
 </defs>
 <g id="figure_1">
  <g id="patch_1">
   <path d="M 0 345.6 
L 460.8 345.6 
L 460.8 0 
L 0 0 
z
" style="fill:#ffffff;"/>
  </g>
  <g id="axes_1">
   <g id="patch_2">
    <path d="M 57.6 298.944 
L 338.688 298.944 
L 338.688 27.648 
L 57.6 27.648 
z
" style="fill:#ffffff;"/>
   </g>
   <g id="line2d_1">
    <path d="M 98.880934 298.944 
L 98.880934 293.677139 
L 99.938184 293.677139 
L 99.938184 283.143418 
L 101.877879 283.143418 
L 101.877879 267.342835 
L 102.330873 267.342835 
L 102.330873 262.075974 
L 102.772397 262.075974 
L 102.772397 251.542253 
L 103.203018 251.542253 
L 103.203018 246.275392 
L 103.623262 246.275392 
L 103.623262 241.008531 
L 104.033617 241.008531 
L 104.033617 209.407366 
L 104.434538 209.407366 
L 104.434538 172.539341 
L 104.826449 172.539341 
L 104.826449 151.471897 
L 105.209745 151.471897 
L 105.209745 125.137593 
L 105.584798 125.137593 
L 105.584798 83.002707 
L 105.951954 83.002707 
L 105.951954 46.134681 
L 106.311539 46.134681 
L 106.311539 30.334099 
L 338.688 30.334099 
" style="fill:none;stroke:#f5deb3;stroke-linecap:square;stroke-width:4;"/>
   </g>
   <g id="line2d_2">
    <defs>
     <path d="M -0 7.778175 
L 7.778175 0 
L 0 -7.778175 
L -7.778175 -0 
z
" id="m59577ed9a8" style="stroke:#f5deb3;stroke-linejoin:miter;stroke-width:1.5;"/>
    </defs>
    <g>
     <use style="fill:#f5deb3;stroke:#f5deb3;stroke-linejoin:miter;stroke-width:1.5;" x="104.033617" xlink:href="#m59577ed9a8" y="209.407366"/>
     <use style="fill:#f5deb3;stroke:#f5deb3;stroke-linejoin:miter;stroke-width:1.5;" x="105.951954" xlink:href="#m59577ed9a8" y="46.134681"/>
     <use style="fill:#f5deb3;stroke:#f5deb3;stroke-linejoin:miter;stroke-width:1.5;" x="106.311539" xlink:href="#m59577ed9a8" y="30.334099"/>
     <use style="fill:#f5deb3;stroke:#f5deb3;stroke-linejoin:miter;stroke-width:1.5;" x="106.311539" xlink:href="#m59577ed9a8" y="30.334099"/>
     <use style="fill:#f5deb3;stroke:#f5deb3;stroke-linejoin:miter;stroke-width:1.5;" x="338.688" xlink:href="#m59577ed9a8" y="30.334099"/>
    </g>
   </g>
   <g id="line2d_3">
    <path style="fill:none;stroke:#f5deb3;stroke-linecap:square;stroke-width:4;"/>
    <g/>
   </g>
   <g id="line2d_4">
    <path d="M 338.688 30.334099 
L 369.60768 35.706297 
" style="fill:none;stroke:#f5deb3;stroke-linecap:square;stroke-width:4;"/>
    <g>
     <use style="fill:#f5deb3;stroke:#f5deb3;stroke-linejoin:miter;stroke-width:1.5;" x="338.688" xlink:href="#m59577ed9a8" y="30.334099"/>
     <use style="fill:#f5deb3;stroke:#f5deb3;stroke-linejoin:miter;stroke-width:1.5;" x="369.60768" xlink:href="#m59577ed9a8" y="35.706297"/>
    </g>
   </g>
   <g id="matplotlib.axis_1">
    <g id="xtick_1">
     <g id="line2d_5">
      <path clip-path="url(#p80550a9a04)" d="M 57.6 298.944 
L 57.6 27.648 
" style="fill:none;stroke:#b0b0b0;stroke-linecap:square;stroke-width:0.8;"/>
     </g>
     <g id="line2d_6">
      <defs>
       <path d="M 0 0 
L 0 3.5 
" id="m356fabc2bd" style="stroke:#000000;stroke-width:0.8;"/>
      </defs>
      <g>
       <use style="stroke:#000000;stroke-width:0.8;" x="57.6" xlink:href="#m356fabc2bd" y="298.944"/>
      </g>
     </g>
     <g id="text_1">
      <!-- 0 -->
      <defs>
       <path d="M 31.78125 66.40625 
Q 24.171875 66.40625 20.328125 58.90625 
Q 16.5 51.421875 16.5 36.375 
Q 16.5 21.390625 20.328125 13.890625 
Q 24.171875 6.390625 31.78125 6.390625 
Q 39.453125 6.390625 43.28125 13.890625 
Q 47.125 21.390625 47.125 36.375 
Q 47.125 51.421875 43.28125 58.90625 
Q 39.453125 66.40625 31.78125 66.40625 
z
M 31.78125 74.21875 
Q 44.046875 74.21875 50.515625 64.515625 
Q 56.984375 54.828125 56.984375 36.375 
Q 56.984375 17.96875 50.515625 8.265625 
Q 44.046875 -1.421875 31.78125 -1.421875 
Q 19.53125 -1.421875 13.0625 8.265625 
Q 6.59375 17.96875 6.59375 36.375 
Q 6.59375 54.828125 13.0625 64.515625 
Q 19.53125 74.21875 31.78125 74.21875 
z
" id="DejaVuSans-48"/>
      </defs>
      <g transform="translate(51.2375 321.140875)scale(0.2 -0.2)">
       <use xlink:href="#DejaVuSans-48"/>
      </g>
     </g>
    </g>
    <g id="xtick_2">
     <g id="line2d_7">
      <path clip-path="url(#p80550a9a04)" d="M 137.910857 298.944 
L 137.910857 27.648 
" style="fill:none;stroke:#b0b0b0;stroke-linecap:square;stroke-width:0.8;"/>
     </g>
     <g id="line2d_8">
      <g>
       <use style="stroke:#000000;stroke-width:0.8;" x="137.910857" xlink:href="#m356fabc2bd" y="298.944"/>
      </g>
     </g>
     <g id="text_2">
      <!-- 2 -->
      <defs>
       <path d="M 19.1875 8.296875 
L 53.609375 8.296875 
L 53.609375 0 
L 7.328125 0 
L 7.328125 8.296875 
Q 12.9375 14.109375 22.625 23.890625 
Q 32.328125 33.6875 34.8125 36.53125 
Q 39.546875 41.84375 41.421875 45.53125 
Q 43.3125 49.21875 43.3125 52.78125 
Q 43.3125 58.59375 39.234375 62.25 
Q 35.15625 65.921875 28.609375 65.921875 
Q 23.96875 65.921875 18.8125 64.3125 
Q 13.671875 62.703125 7.8125 59.421875 
L 7.8125 69.390625 
Q 13.765625 71.78125 18.9375 73 
Q 24.125 74.21875 28.421875 74.21875 
Q 39.75 74.21875 46.484375 68.546875 
Q 53.21875 62.890625 53.21875 53.421875 
Q 53.21875 48.921875 51.53125 44.890625 
Q 49.859375 40.875 45.40625 35.40625 
Q 44.1875 33.984375 37.640625 27.21875 
Q 31.109375 20.453125 19.1875 8.296875 
z
" id="DejaVuSans-50"/>
      </defs>
      <g transform="translate(131.548357 321.140875)scale(0.2 -0.2)">
       <use xlink:href="#DejaVuSans-50"/>
      </g>
     </g>
    </g>
    <g id="xtick_3">
     <g id="line2d_9">
      <path clip-path="url(#p80550a9a04)" d="M 218.221714 298.944 
L 218.221714 27.648 
" style="fill:none;stroke:#b0b0b0;stroke-linecap:square;stroke-width:0.8;"/>
     </g>
     <g id="line2d_10">
      <g>
       <use style="stroke:#000000;stroke-width:0.8;" x="218.221714" xlink:href="#m356fabc2bd" y="298.944"/>
      </g>
     </g>
     <g id="text_3">
      <!-- 4 -->
      <defs>
       <path d="M 37.796875 64.3125 
L 12.890625 25.390625 
L 37.796875 25.390625 
z
M 35.203125 72.90625 
L 47.609375 72.90625 
L 47.609375 25.390625 
L 58.015625 25.390625 
L 58.015625 17.1875 
L 47.609375 17.1875 
L 47.609375 0 
L 37.796875 0 
L 37.796875 17.1875 
L 4.890625 17.1875 
L 4.890625 26.703125 
z
" id="DejaVuSans-52"/>
      </defs>
      <g transform="translate(211.859214 321.140875)scale(0.2 -0.2)">
       <use xlink:href="#DejaVuSans-52"/>
      </g>
     </g>
    </g>
    <g id="xtick_4">
     <g id="line2d_11">
      <path clip-path="url(#p80550a9a04)" d="M 298.532571 298.944 
L 298.532571 27.648 
" style="fill:none;stroke:#b0b0b0;stroke-linecap:square;stroke-width:0.8;"/>
     </g>
     <g id="line2d_12">
      <g>
       <use style="stroke:#000000;stroke-width:0.8;" x="298.532571" xlink:href="#m356fabc2bd" y="298.944"/>
      </g>
     </g>
     <g id="text_4">
      <!-- 6 -->
      <defs>
       <path d="M 33.015625 40.375 
Q 26.375 40.375 22.484375 35.828125 
Q 18.609375 31.296875 18.609375 23.390625 
Q 18.609375 15.53125 22.484375 10.953125 
Q 26.375 6.390625 33.015625 6.390625 
Q 39.65625 6.390625 43.53125 10.953125 
Q 47.40625 15.53125 47.40625 23.390625 
Q 47.40625 31.296875 43.53125 35.828125 
Q 39.65625 40.375 33.015625 40.375 
z
M 52.59375 71.296875 
L 52.59375 62.3125 
Q 48.875 64.0625 45.09375 64.984375 
Q 41.3125 65.921875 37.59375 65.921875 
Q 27.828125 65.921875 22.671875 59.328125 
Q 17.53125 52.734375 16.796875 39.40625 
Q 19.671875 43.65625 24.015625 45.921875 
Q 28.375 48.1875 33.59375 48.1875 
Q 44.578125 48.1875 50.953125 41.515625 
Q 57.328125 34.859375 57.328125 23.390625 
Q 57.328125 12.15625 50.6875 5.359375 
Q 44.046875 -1.421875 33.015625 -1.421875 
Q 20.359375 -1.421875 13.671875 8.265625 
Q 6.984375 17.96875 6.984375 36.375 
Q 6.984375 53.65625 15.1875 63.9375 
Q 23.390625 74.21875 37.203125 74.21875 
Q 40.921875 74.21875 44.703125 73.484375 
Q 48.484375 72.75 52.59375 71.296875 
z
" id="DejaVuSans-54"/>
      </defs>
      <g transform="translate(292.170071 321.140875)scale(0.2 -0.2)">
       <use xlink:href="#DejaVuSans-54"/>
      </g>
     </g>
    </g>
    <g id="xtick_5">
     <g id="line2d_13">
      <path clip-path="url(#p80550a9a04)" d="M 97.755429 298.944 
L 97.755429 27.648 
" style="fill:none;stroke:#b0b0b0;stroke-linecap:square;stroke-width:0.8;"/>
     </g>
     <g id="line2d_14">
      <defs>
       <path d="M 0 0 
L 0 2 
" id="m8172ef4f39" style="stroke:#000000;stroke-width:0.6;"/>
      </defs>
      <g>
       <use style="stroke:#000000;stroke-width:0.6;" x="97.755429" xlink:href="#m8172ef4f39" y="298.944"/>
      </g>
     </g>
    </g>
    <g id="xtick_6">
     <g id="line2d_15">
      <path clip-path="url(#p80550a9a04)" d="M 178.066286 298.944 
L 178.066286 27.648 
" style="fill:none;stroke:#b0b0b0;stroke-linecap:square;stroke-width:0.8;"/>
     </g>
     <g id="line2d_16">
      <g>
       <use style="stroke:#000000;stroke-width:0.6;" x="178.066286" xlink:href="#m8172ef4f39" y="298.944"/>
      </g>
     </g>
    </g>
    <g id="xtick_7">
     <g id="line2d_17">
      <path clip-path="url(#p80550a9a04)" d="M 258.377143 298.944 
L 258.377143 27.648 
" style="fill:none;stroke:#b0b0b0;stroke-linecap:square;stroke-width:0.8;"/>
     </g>
     <g id="line2d_18">
      <g>
       <use style="stroke:#000000;stroke-width:0.6;" x="258.377143" xlink:href="#m8172ef4f39" y="298.944"/>
      </g>
     </g>
    </g>
    <g id="xtick_8">
     <g id="line2d_19">
      <path clip-path="url(#p80550a9a04)" d="M 338.688 298.944 
L 338.688 27.648 
" style="fill:none;stroke:#b0b0b0;stroke-linecap:square;stroke-width:0.8;"/>
     </g>
     <g id="line2d_20">
      <g>
       <use style="stroke:#000000;stroke-width:0.6;" x="338.688" xlink:href="#m8172ef4f39" y="298.944"/>
      </g>
     </g>
    </g>
    <g id="text_5">
     <!-- log10(# f-evals / dimension) -->
     <defs>
      <path d="M 9.421875 75.984375 
L 18.40625 75.984375 
L 18.40625 0 
L 9.421875 0 
z
" id="DejaVuSans-108"/>
      <path d="M 30.609375 48.390625 
Q 23.390625 48.390625 19.1875 42.75 
Q 14.984375 37.109375 14.984375 27.296875 
Q 14.984375 17.484375 19.15625 11.84375 
Q 23.34375 6.203125 30.609375 6.203125 
Q 37.796875 6.203125 41.984375 11.859375 
Q 46.1875 17.53125 46.1875 27.296875 
Q 46.1875 37.015625 41.984375 42.703125 
Q 37.796875 48.390625 30.609375 48.390625 
z
M 30.609375 56 
Q 42.328125 56 49.015625 48.375 
Q 55.71875 40.765625 55.71875 27.296875 
Q 55.71875 13.875 49.015625 6.21875 
Q 42.328125 -1.421875 30.609375 -1.421875 
Q 18.84375 -1.421875 12.171875 6.21875 
Q 5.515625 13.875 5.515625 27.296875 
Q 5.515625 40.765625 12.171875 48.375 
Q 18.84375 56 30.609375 56 
z
" id="DejaVuSans-111"/>
      <path d="M 45.40625 27.984375 
Q 45.40625 37.75 41.375 43.109375 
Q 37.359375 48.484375 30.078125 48.484375 
Q 22.859375 48.484375 18.828125 43.109375 
Q 14.796875 37.75 14.796875 27.984375 
Q 14.796875 18.265625 18.828125 12.890625 
Q 22.859375 7.515625 30.078125 7.515625 
Q 37.359375 7.515625 41.375 12.890625 
Q 45.40625 18.265625 45.40625 27.984375 
z
M 54.390625 6.78125 
Q 54.390625 -7.171875 48.1875 -13.984375 
Q 42 -20.796875 29.203125 -20.796875 
Q 24.46875 -20.796875 20.265625 -20.09375 
Q 16.0625 -19.390625 12.109375 -17.921875 
L 12.109375 -9.1875 
Q 16.0625 -11.328125 19.921875 -12.34375 
Q 23.78125 -13.375 27.78125 -13.375 
Q 36.625 -13.375 41.015625 -8.765625 
Q 45.40625 -4.15625 45.40625 5.171875 
L 45.40625 9.625 
Q 42.625 4.78125 38.28125 2.390625 
Q 33.9375 0 27.875 0 
Q 17.828125 0 11.671875 7.65625 
Q 5.515625 15.328125 5.515625 27.984375 
Q 5.515625 40.671875 11.671875 48.328125 
Q 17.828125 56 27.875 56 
Q 33.9375 56 38.28125 53.609375 
Q 42.625 51.21875 45.40625 46.390625 
L 45.40625 54.6875 
L 54.390625 54.6875 
z
" id="DejaVuSans-103"/>
      <path d="M 12.40625 8.296875 
L 28.515625 8.296875 
L 28.515625 63.921875 
L 10.984375 60.40625 
L 10.984375 69.390625 
L 28.421875 72.90625 
L 38.28125 72.90625 
L 38.28125 8.296875 
L 54.390625 8.296875 
L 54.390625 0 
L 12.40625 0 
z
" id="DejaVuSans-49"/>
      <path d="M 31 75.875 
Q 24.46875 64.65625 21.28125 53.65625 
Q 18.109375 42.671875 18.109375 31.390625 
Q 18.109375 20.125 21.3125 9.0625 
Q 24.515625 -2 31 -13.1875 
L 23.1875 -13.1875 
Q 15.875 -1.703125 12.234375 9.375 
Q 8.59375 20.453125 8.59375 31.390625 
Q 8.59375 42.28125 12.203125 53.3125 
Q 15.828125 64.359375 23.1875 75.875 
z
" id="DejaVuSans-40"/>
      <path d="M 51.125 44 
L 36.921875 44 
L 32.8125 27.6875 
L 47.125 27.6875 
z
M 43.796875 71.78125 
L 38.71875 51.515625 
L 52.984375 51.515625 
L 58.109375 71.78125 
L 65.921875 71.78125 
L 60.890625 51.515625 
L 76.125 51.515625 
L 76.125 44 
L 58.984375 44 
L 54.984375 27.6875 
L 70.515625 27.6875 
L 70.515625 20.21875 
L 53.078125 20.21875 
L 48 0 
L 40.1875 0 
L 45.21875 20.21875 
L 30.90625 20.21875 
L 25.875 0 
L 18.015625 0 
L 23.09375 20.21875 
L 7.71875 20.21875 
L 7.71875 27.6875 
L 24.90625 27.6875 
L 29 44 
L 13.28125 44 
L 13.28125 51.515625 
L 30.90625 51.515625 
L 35.890625 71.78125 
z
" id="DejaVuSans-35"/>
      <path id="DejaVuSans-32"/>
      <path d="M 37.109375 75.984375 
L 37.109375 68.5 
L 28.515625 68.5 
Q 23.6875 68.5 21.796875 66.546875 
Q 19.921875 64.59375 19.921875 59.515625 
L 19.921875 54.6875 
L 34.71875 54.6875 
L 34.71875 47.703125 
L 19.921875 47.703125 
L 19.921875 0 
L 10.890625 0 
L 10.890625 47.703125 
L 2.296875 47.703125 
L 2.296875 54.6875 
L 10.890625 54.6875 
L 10.890625 58.5 
Q 10.890625 67.625 15.140625 71.796875 
Q 19.390625 75.984375 28.609375 75.984375 
z
" id="DejaVuSans-102"/>
      <path d="M 4.890625 31.390625 
L 31.203125 31.390625 
L 31.203125 23.390625 
L 4.890625 23.390625 
z
" id="DejaVuSans-45"/>
      <path d="M 56.203125 29.59375 
L 56.203125 25.203125 
L 14.890625 25.203125 
Q 15.484375 15.921875 20.484375 11.0625 
Q 25.484375 6.203125 34.421875 6.203125 
Q 39.59375 6.203125 44.453125 7.46875 
Q 49.3125 8.734375 54.109375 11.28125 
L 54.109375 2.78125 
Q 49.265625 0.734375 44.1875 -0.34375 
Q 39.109375 -1.421875 33.890625 -1.421875 
Q 20.796875 -1.421875 13.15625 6.1875 
Q 5.515625 13.8125 5.515625 26.8125 
Q 5.515625 40.234375 12.765625 48.109375 
Q 20.015625 56 32.328125 56 
Q 43.359375 56 49.78125 48.890625 
Q 56.203125 41.796875 56.203125 29.59375 
z
M 47.21875 32.234375 
Q 47.125 39.59375 43.09375 43.984375 
Q 39.0625 48.390625 32.421875 48.390625 
Q 24.90625 48.390625 20.390625 44.140625 
Q 15.875 39.890625 15.1875 32.171875 
z
" id="DejaVuSans-101"/>
      <path d="M 2.984375 54.6875 
L 12.5 54.6875 
L 29.59375 8.796875 
L 46.6875 54.6875 
L 56.203125 54.6875 
L 35.6875 0 
L 23.484375 0 
z
" id="DejaVuSans-118"/>
      <path d="M 34.28125 27.484375 
Q 23.390625 27.484375 19.1875 25 
Q 14.984375 22.515625 14.984375 16.5 
Q 14.984375 11.71875 18.140625 8.90625 
Q 21.296875 6.109375 26.703125 6.109375 
Q 34.1875 6.109375 38.703125 11.40625 
Q 43.21875 16.703125 43.21875 25.484375 
L 43.21875 27.484375 
z
M 52.203125 31.203125 
L 52.203125 0 
L 43.21875 0 
L 43.21875 8.296875 
Q 40.140625 3.328125 35.546875 0.953125 
Q 30.953125 -1.421875 24.3125 -1.421875 
Q 15.921875 -1.421875 10.953125 3.296875 
Q 6 8.015625 6 15.921875 
Q 6 25.140625 12.171875 29.828125 
Q 18.359375 34.515625 30.609375 34.515625 
L 43.21875 34.515625 
L 43.21875 35.40625 
Q 43.21875 41.609375 39.140625 45 
Q 35.0625 48.390625 27.6875 48.390625 
Q 23 48.390625 18.546875 47.265625 
Q 14.109375 46.140625 10.015625 43.890625 
L 10.015625 52.203125 
Q 14.9375 54.109375 19.578125 55.046875 
Q 24.21875 56 28.609375 56 
Q 40.484375 56 46.34375 49.84375 
Q 52.203125 43.703125 52.203125 31.203125 
z
" id="DejaVuSans-97"/>
      <path d="M 44.28125 53.078125 
L 44.28125 44.578125 
Q 40.484375 46.53125 36.375 47.5 
Q 32.28125 48.484375 27.875 48.484375 
Q 21.1875 48.484375 17.84375 46.4375 
Q 14.5 44.390625 14.5 40.28125 
Q 14.5 37.15625 16.890625 35.375 
Q 19.28125 33.59375 26.515625 31.984375 
L 29.59375 31.296875 
Q 39.15625 29.25 43.1875 25.515625 
Q 47.21875 21.78125 47.21875 15.09375 
Q 47.21875 7.46875 41.1875 3.015625 
Q 35.15625 -1.421875 24.609375 -1.421875 
Q 20.21875 -1.421875 15.453125 -0.5625 
Q 10.6875 0.296875 5.421875 2 
L 5.421875 11.28125 
Q 10.40625 8.6875 15.234375 7.390625 
Q 20.0625 6.109375 24.8125 6.109375 
Q 31.15625 6.109375 34.5625 8.28125 
Q 37.984375 10.453125 37.984375 14.40625 
Q 37.984375 18.0625 35.515625 20.015625 
Q 33.0625 21.96875 24.703125 23.78125 
L 21.578125 24.515625 
Q 13.234375 26.265625 9.515625 29.90625 
Q 5.8125 33.546875 5.8125 39.890625 
Q 5.8125 47.609375 11.28125 51.796875 
Q 16.75 56 26.8125 56 
Q 31.78125 56 36.171875 55.265625 
Q 40.578125 54.546875 44.28125 53.078125 
z
" id="DejaVuSans-115"/>
      <path d="M 25.390625 72.90625 
L 33.6875 72.90625 
L 8.296875 -9.28125 
L 0 -9.28125 
z
" id="DejaVuSans-47"/>
      <path d="M 45.40625 46.390625 
L 45.40625 75.984375 
L 54.390625 75.984375 
L 54.390625 0 
L 45.40625 0 
L 45.40625 8.203125 
Q 42.578125 3.328125 38.25 0.953125 
Q 33.9375 -1.421875 27.875 -1.421875 
Q 17.96875 -1.421875 11.734375 6.484375 
Q 5.515625 14.40625 5.515625 27.296875 
Q 5.515625 40.1875 11.734375 48.09375 
Q 17.96875 56 27.875 56 
Q 33.9375 56 38.25 53.625 
Q 42.578125 51.265625 45.40625 46.390625 
z
M 14.796875 27.296875 
Q 14.796875 17.390625 18.875 11.75 
Q 22.953125 6.109375 30.078125 6.109375 
Q 37.203125 6.109375 41.296875 11.75 
Q 45.40625 17.390625 45.40625 27.296875 
Q 45.40625 37.203125 41.296875 42.84375 
Q 37.203125 48.484375 30.078125 48.484375 
Q 22.953125 48.484375 18.875 42.84375 
Q 14.796875 37.203125 14.796875 27.296875 
z
" id="DejaVuSans-100"/>
      <path d="M 9.421875 54.6875 
L 18.40625 54.6875 
L 18.40625 0 
L 9.421875 0 
z
M 9.421875 75.984375 
L 18.40625 75.984375 
L 18.40625 64.59375 
L 9.421875 64.59375 
z
" id="DejaVuSans-105"/>
      <path d="M 52 44.1875 
Q 55.375 50.25 60.0625 53.125 
Q 64.75 56 71.09375 56 
Q 79.640625 56 84.28125 50.015625 
Q 88.921875 44.046875 88.921875 33.015625 
L 88.921875 0 
L 79.890625 0 
L 79.890625 32.71875 
Q 79.890625 40.578125 77.09375 44.375 
Q 74.3125 48.1875 68.609375 48.1875 
Q 61.625 48.1875 57.5625 43.546875 
Q 53.515625 38.921875 53.515625 30.90625 
L 53.515625 0 
L 44.484375 0 
L 44.484375 32.71875 
Q 44.484375 40.625 41.703125 44.40625 
Q 38.921875 48.1875 33.109375 48.1875 
Q 26.21875 48.1875 22.15625 43.53125 
Q 18.109375 38.875 18.109375 30.90625 
L 18.109375 0 
L 9.078125 0 
L 9.078125 54.6875 
L 18.109375 54.6875 
L 18.109375 46.1875 
Q 21.1875 51.21875 25.484375 53.609375 
Q 29.78125 56 35.6875 56 
Q 41.65625 56 45.828125 52.96875 
Q 50 49.953125 52 44.1875 
z
" id="DejaVuSans-109"/>
      <path d="M 54.890625 33.015625 
L 54.890625 0 
L 45.90625 0 
L 45.90625 32.71875 
Q 45.90625 40.484375 42.875 44.328125 
Q 39.84375 48.1875 33.796875 48.1875 
Q 26.515625 48.1875 22.3125 43.546875 
Q 18.109375 38.921875 18.109375 30.90625 
L 18.109375 0 
L 9.078125 0 
L 9.078125 54.6875 
L 18.109375 54.6875 
L 18.109375 46.1875 
Q 21.34375 51.125 25.703125 53.5625 
Q 30.078125 56 35.796875 56 
Q 45.21875 56 50.046875 50.171875 
Q 54.890625 44.34375 54.890625 33.015625 
z
" id="DejaVuSans-110"/>
      <path d="M 8.015625 75.875 
L 15.828125 75.875 
Q 23.140625 64.359375 26.78125 53.3125 
Q 30.421875 42.28125 30.421875 31.390625 
Q 30.421875 20.453125 26.78125 9.375 
Q 23.140625 -1.703125 15.828125 -13.1875 
L 8.015625 -13.1875 
Q 14.5 -2 17.703125 9.0625 
Q 20.90625 20.125 20.90625 31.390625 
Q 20.90625 42.671875 17.703125 53.65625 
Q 14.5 64.65625 8.015625 75.875 
z
" id="DejaVuSans-41"/>
     </defs>
     <g transform="translate(77.303219 342.217594)scale(0.17 -0.17)">
      <use xlink:href="#DejaVuSans-108"/>
      <use x="27.783203" xlink:href="#DejaVuSans-111"/>
      <use x="88.964844" xlink:href="#DejaVuSans-103"/>
      <use x="152.441406" xlink:href="#DejaVuSans-49"/>
      <use x="216.064453" xlink:href="#DejaVuSans-48"/>
      <use x="279.6875" xlink:href="#DejaVuSans-40"/>
      <use x="318.701172" xlink:href="#DejaVuSans-35"/>
      <use x="402.490234" xlink:href="#DejaVuSans-32"/>
      <use x="434.277344" xlink:href="#DejaVuSans-102"/>
      <use x="469.404297" xlink:href="#DejaVuSans-45"/>
      <use x="505.488281" xlink:href="#DejaVuSans-101"/>
      <use x="567.011719" xlink:href="#DejaVuSans-118"/>
      <use x="626.191406" xlink:href="#DejaVuSans-97"/>
      <use x="687.470703" xlink:href="#DejaVuSans-108"/>
      <use x="715.253906" xlink:href="#DejaVuSans-115"/>
      <use x="767.353516" xlink:href="#DejaVuSans-32"/>
      <use x="799.140625" xlink:href="#DejaVuSans-47"/>
      <use x="832.832031" xlink:href="#DejaVuSans-32"/>
      <use x="864.619141" xlink:href="#DejaVuSans-100"/>
      <use x="928.095703" xlink:href="#DejaVuSans-105"/>
      <use x="955.878906" xlink:href="#DejaVuSans-109"/>
      <use x="1053.291016" xlink:href="#DejaVuSans-101"/>
      <use x="1114.814453" xlink:href="#DejaVuSans-110"/>
      <use x="1178.193359" xlink:href="#DejaVuSans-115"/>
      <use x="1230.292969" xlink:href="#DejaVuSans-105"/>
      <use x="1258.076172" xlink:href="#DejaVuSans-111"/>
      <use x="1319.257812" xlink:href="#DejaVuSans-110"/>
      <use x="1382.636719" xlink:href="#DejaVuSans-41"/>
     </g>
    </g>
   </g>
   <g id="matplotlib.axis_2">
    <g id="ytick_1">
     <g id="line2d_21">
      <path clip-path="url(#p80550a9a04)" d="M 57.6 298.944 
L 338.688 298.944 
" style="fill:none;stroke:#b0b0b0;stroke-linecap:square;stroke-width:0.8;"/>
     </g>
     <g id="line2d_22">
      <defs>
       <path d="M 0 0 
L -3.5 0 
" id="mee1683a9bc" style="stroke:#000000;stroke-width:0.8;"/>
      </defs>
      <g>
       <use style="stroke:#000000;stroke-width:0.8;" x="57.6" xlink:href="#mee1683a9bc" y="298.944"/>
      </g>
     </g>
     <g id="text_6">
      <!-- 0.0 -->
      <defs>
       <path d="M 10.6875 12.40625 
L 21 12.40625 
L 21 0 
L 10.6875 0 
z
" id="DejaVuSans-46"/>
      </defs>
      <g transform="translate(25.155 305.02275)scale(0.16 -0.16)">
       <use xlink:href="#DejaVuSans-48"/>
       <use x="63.623047" xlink:href="#DejaVuSans-46"/>
       <use x="95.410156" xlink:href="#DejaVuSans-48"/>
      </g>
     </g>
    </g>
    <g id="ytick_2">
     <g id="line2d_23">
      <path clip-path="url(#p80550a9a04)" d="M 57.6 245.22202 
L 338.688 245.22202 
" style="fill:none;stroke:#b0b0b0;stroke-linecap:square;stroke-width:0.8;"/>
     </g>
     <g id="line2d_24">
      <g>
       <use style="stroke:#000000;stroke-width:0.8;" x="57.6" xlink:href="#mee1683a9bc" y="245.22202"/>
      </g>
     </g>
     <g id="text_7">
      <!-- 0.2 -->
      <g transform="translate(25.155 251.30077)scale(0.16 -0.16)">
       <use xlink:href="#DejaVuSans-48"/>
       <use x="63.623047" xlink:href="#DejaVuSans-46"/>
       <use x="95.410156" xlink:href="#DejaVuSans-50"/>
      </g>
     </g>
    </g>
    <g id="ytick_3">
     <g id="line2d_25">
      <path clip-path="url(#p80550a9a04)" d="M 57.6 191.50004 
L 338.688 191.50004 
" style="fill:none;stroke:#b0b0b0;stroke-linecap:square;stroke-width:0.8;"/>
     </g>
     <g id="line2d_26">
      <g>
       <use style="stroke:#000000;stroke-width:0.8;" x="57.6" xlink:href="#mee1683a9bc" y="191.50004"/>
      </g>
     </g>
     <g id="text_8">
      <!-- 0.4 -->
      <g transform="translate(25.155 197.57879)scale(0.16 -0.16)">
       <use xlink:href="#DejaVuSans-48"/>
       <use x="63.623047" xlink:href="#DejaVuSans-46"/>
       <use x="95.410156" xlink:href="#DejaVuSans-52"/>
      </g>
     </g>
    </g>
    <g id="ytick_4">
     <g id="line2d_27">
      <path clip-path="url(#p80550a9a04)" d="M 57.6 137.778059 
L 338.688 137.778059 
" style="fill:none;stroke:#b0b0b0;stroke-linecap:square;stroke-width:0.8;"/>
     </g>
     <g id="line2d_28">
      <g>
       <use style="stroke:#000000;stroke-width:0.8;" x="57.6" xlink:href="#mee1683a9bc" y="137.778059"/>
      </g>
     </g>
     <g id="text_9">
      <!-- 0.6 -->
      <g transform="translate(25.155 143.856809)scale(0.16 -0.16)">
       <use xlink:href="#DejaVuSans-48"/>
       <use x="63.623047" xlink:href="#DejaVuSans-46"/>
       <use x="95.410156" xlink:href="#DejaVuSans-54"/>
      </g>
     </g>
    </g>
    <g id="ytick_5">
     <g id="line2d_29">
      <path clip-path="url(#p80550a9a04)" d="M 57.6 84.056079 
L 338.688 84.056079 
" style="fill:none;stroke:#b0b0b0;stroke-linecap:square;stroke-width:0.8;"/>
     </g>
     <g id="line2d_30">
      <g>
       <use style="stroke:#000000;stroke-width:0.8;" x="57.6" xlink:href="#mee1683a9bc" y="84.056079"/>
      </g>
     </g>
     <g id="text_10">
      <!-- 0.8 -->
      <defs>
       <path d="M 31.78125 34.625 
Q 24.75 34.625 20.71875 30.859375 
Q 16.703125 27.09375 16.703125 20.515625 
Q 16.703125 13.921875 20.71875 10.15625 
Q 24.75 6.390625 31.78125 6.390625 
Q 38.8125 6.390625 42.859375 10.171875 
Q 46.921875 13.96875 46.921875 20.515625 
Q 46.921875 27.09375 42.890625 30.859375 
Q 38.875 34.625 31.78125 34.625 
z
M 21.921875 38.8125 
Q 15.578125 40.375 12.03125 44.71875 
Q 8.5 49.078125 8.5 55.328125 
Q 8.5 64.0625 14.71875 69.140625 
Q 20.953125 74.21875 31.78125 74.21875 
Q 42.671875 74.21875 48.875 69.140625 
Q 55.078125 64.0625 55.078125 55.328125 
Q 55.078125 49.078125 51.53125 44.71875 
Q 48 40.375 41.703125 38.8125 
Q 48.828125 37.15625 52.796875 32.3125 
Q 56.78125 27.484375 56.78125 20.515625 
Q 56.78125 9.90625 50.3125 4.234375 
Q 43.84375 -1.421875 31.78125 -1.421875 
Q 19.734375 -1.421875 13.25 4.234375 
Q 6.78125 9.90625 6.78125 20.515625 
Q 6.78125 27.484375 10.78125 32.3125 
Q 14.796875 37.15625 21.921875 38.8125 
z
M 18.3125 54.390625 
Q 18.3125 48.734375 21.84375 45.5625 
Q 25.390625 42.390625 31.78125 42.390625 
Q 38.140625 42.390625 41.71875 45.5625 
Q 45.3125 48.734375 45.3125 54.390625 
Q 45.3125 60.0625 41.71875 63.234375 
Q 38.140625 66.40625 31.78125 66.40625 
Q 25.390625 66.40625 21.84375 63.234375 
Q 18.3125 60.0625 18.3125 54.390625 
z
" id="DejaVuSans-56"/>
      </defs>
      <g transform="translate(25.155 90.134829)scale(0.16 -0.16)">
       <use xlink:href="#DejaVuSans-48"/>
       <use x="63.623047" xlink:href="#DejaVuSans-46"/>
       <use x="95.410156" xlink:href="#DejaVuSans-56"/>
      </g>
     </g>
    </g>
    <g id="ytick_6">
     <g id="line2d_31">
      <path clip-path="url(#p80550a9a04)" d="M 57.6 30.334099 
L 338.688 30.334099 
" style="fill:none;stroke:#b0b0b0;stroke-linecap:square;stroke-width:0.8;"/>
     </g>
     <g id="line2d_32">
      <g>
       <use style="stroke:#000000;stroke-width:0.8;" x="57.6" xlink:href="#mee1683a9bc" y="30.334099"/>
      </g>
     </g>
     <g id="text_11">
      <!-- 1.0 -->
      <g transform="translate(25.155 36.412849)scale(0.16 -0.16)">
       <use xlink:href="#DejaVuSans-49"/>
       <use x="63.623047" xlink:href="#DejaVuSans-46"/>
       <use x="95.410156" xlink:href="#DejaVuSans-48"/>
      </g>
     </g>
    </g>
    <g id="text_12">
     <!-- Fraction of function,target pairs -->
     <defs>
      <path d="M 9.8125 72.90625 
L 51.703125 72.90625 
L 51.703125 64.59375 
L 19.671875 64.59375 
L 19.671875 43.109375 
L 48.578125 43.109375 
L 48.578125 34.8125 
L 19.671875 34.8125 
L 19.671875 0 
L 9.8125 0 
z
" id="DejaVuSans-70"/>
      <path d="M 41.109375 46.296875 
Q 39.59375 47.171875 37.8125 47.578125 
Q 36.03125 48 33.890625 48 
Q 26.265625 48 22.1875 43.046875 
Q 18.109375 38.09375 18.109375 28.8125 
L 18.109375 0 
L 9.078125 0 
L 9.078125 54.6875 
L 18.109375 54.6875 
L 18.109375 46.1875 
Q 20.953125 51.171875 25.484375 53.578125 
Q 30.03125 56 36.53125 56 
Q 37.453125 56 38.578125 55.875 
Q 39.703125 55.765625 41.0625 55.515625 
z
" id="DejaVuSans-114"/>
      <path d="M 48.78125 52.59375 
L 48.78125 44.1875 
Q 44.96875 46.296875 41.140625 47.34375 
Q 37.3125 48.390625 33.40625 48.390625 
Q 24.65625 48.390625 19.8125 42.84375 
Q 14.984375 37.3125 14.984375 27.296875 
Q 14.984375 17.28125 19.8125 11.734375 
Q 24.65625 6.203125 33.40625 6.203125 
Q 37.3125 6.203125 41.140625 7.25 
Q 44.96875 8.296875 48.78125 10.40625 
L 48.78125 2.09375 
Q 45.015625 0.34375 40.984375 -0.53125 
Q 36.96875 -1.421875 32.421875 -1.421875 
Q 20.0625 -1.421875 12.78125 6.34375 
Q 5.515625 14.109375 5.515625 27.296875 
Q 5.515625 40.671875 12.859375 48.328125 
Q 20.21875 56 33.015625 56 
Q 37.15625 56 41.109375 55.140625 
Q 45.0625 54.296875 48.78125 52.59375 
z
" id="DejaVuSans-99"/>
      <path d="M 18.3125 70.21875 
L 18.3125 54.6875 
L 36.8125 54.6875 
L 36.8125 47.703125 
L 18.3125 47.703125 
L 18.3125 18.015625 
Q 18.3125 11.328125 20.140625 9.421875 
Q 21.96875 7.515625 27.59375 7.515625 
L 36.8125 7.515625 
L 36.8125 0 
L 27.59375 0 
Q 17.1875 0 13.234375 3.875 
Q 9.28125 7.765625 9.28125 18.015625 
L 9.28125 47.703125 
L 2.6875 47.703125 
L 2.6875 54.6875 
L 9.28125 54.6875 
L 9.28125 70.21875 
z
" id="DejaVuSans-116"/>
      <path d="M 8.5 21.578125 
L 8.5 54.6875 
L 17.484375 54.6875 
L 17.484375 21.921875 
Q 17.484375 14.15625 20.5 10.265625 
Q 23.53125 6.390625 29.59375 6.390625 
Q 36.859375 6.390625 41.078125 11.03125 
Q 45.3125 15.671875 45.3125 23.6875 
L 45.3125 54.6875 
L 54.296875 54.6875 
L 54.296875 0 
L 45.3125 0 
L 45.3125 8.40625 
Q 42.046875 3.421875 37.71875 1 
Q 33.40625 -1.421875 27.6875 -1.421875 
Q 18.265625 -1.421875 13.375 4.4375 
Q 8.5 10.296875 8.5 21.578125 
z
M 31.109375 56 
z
" id="DejaVuSans-117"/>
      <path d="M 11.71875 12.40625 
L 22.015625 12.40625 
L 22.015625 4 
L 14.015625 -11.625 
L 7.71875 -11.625 
L 11.71875 4 
z
" id="DejaVuSans-44"/>
      <path d="M 18.109375 8.203125 
L 18.109375 -20.796875 
L 9.078125 -20.796875 
L 9.078125 54.6875 
L 18.109375 54.6875 
L 18.109375 46.390625 
Q 20.953125 51.265625 25.265625 53.625 
Q 29.59375 56 35.59375 56 
Q 45.5625 56 51.78125 48.09375 
Q 58.015625 40.1875 58.015625 27.296875 
Q 58.015625 14.40625 51.78125 6.484375 
Q 45.5625 -1.421875 35.59375 -1.421875 
Q 29.59375 -1.421875 25.265625 0.953125 
Q 20.953125 3.328125 18.109375 8.203125 
z
M 48.6875 27.296875 
Q 48.6875 37.203125 44.609375 42.84375 
Q 40.53125 48.484375 33.40625 48.484375 
Q 26.265625 48.484375 22.1875 42.84375 
Q 18.109375 37.203125 18.109375 27.296875 
Q 18.109375 17.390625 22.1875 11.75 
Q 26.265625 6.109375 33.40625 6.109375 
Q 40.53125 6.109375 44.609375 11.75 
Q 48.6875 17.390625 48.6875 27.296875 
z
" id="DejaVuSans-112"/>
     </defs>
     <g transform="translate(17.619531 298.435375)rotate(-90)scale(0.17 -0.17)">
      <use xlink:href="#DejaVuSans-70"/>
      <use x="57.410156" xlink:href="#DejaVuSans-114"/>
      <use x="98.523438" xlink:href="#DejaVuSans-97"/>
      <use x="159.802734" xlink:href="#DejaVuSans-99"/>
      <use x="214.783203" xlink:href="#DejaVuSans-116"/>
      <use x="253.992188" xlink:href="#DejaVuSans-105"/>
      <use x="281.775391" xlink:href="#DejaVuSans-111"/>
      <use x="342.957031" xlink:href="#DejaVuSans-110"/>
      <use x="406.335938" xlink:href="#DejaVuSans-32"/>
      <use x="438.123047" xlink:href="#DejaVuSans-111"/>
      <use x="499.304688" xlink:href="#DejaVuSans-102"/>
      <use x="534.509766" xlink:href="#DejaVuSans-32"/>
      <use x="566.296875" xlink:href="#DejaVuSans-102"/>
      <use x="601.501953" xlink:href="#DejaVuSans-117"/>
      <use x="664.880859" xlink:href="#DejaVuSans-110"/>
      <use x="728.259766" xlink:href="#DejaVuSans-99"/>
      <use x="783.240234" xlink:href="#DejaVuSans-116"/>
      <use x="822.449219" xlink:href="#DejaVuSans-105"/>
      <use x="850.232422" xlink:href="#DejaVuSans-111"/>
      <use x="911.414062" xlink:href="#DejaVuSans-110"/>
      <use x="974.792969" xlink:href="#DejaVuSans-44"/>
      <use x="1006.580078" xlink:href="#DejaVuSans-116"/>
      <use x="1045.789062" xlink:href="#DejaVuSans-97"/>
      <use x="1107.068359" xlink:href="#DejaVuSans-114"/>
      <use x="1148.166016" xlink:href="#DejaVuSans-103"/>
      <use x="1211.642578" xlink:href="#DejaVuSans-101"/>
      <use x="1273.166016" xlink:href="#DejaVuSans-116"/>
      <use x="1312.375" xlink:href="#DejaVuSans-32"/>
      <use x="1344.162109" xlink:href="#DejaVuSans-112"/>
      <use x="1407.638672" xlink:href="#DejaVuSans-97"/>
      <use x="1468.917969" xlink:href="#DejaVuSans-105"/>
      <use x="1496.701172" xlink:href="#DejaVuSans-114"/>
      <use x="1537.814453" xlink:href="#DejaVuSans-115"/>
     </g>
    </g>
   </g>
   <g id="line2d_33">
    <defs>
     <path d="M 0 1.5 
C 0.397805 1.5 0.77937 1.341951 1.06066 1.06066 
C 1.341951 0.77937 1.5 0.397805 1.5 0 
C 1.5 -0.397805 1.341951 -0.77937 1.06066 -1.06066 
C 0.77937 -1.341951 0.397805 -1.5 0 -1.5 
C -0.397805 -1.5 -0.77937 -1.341951 -1.06066 -1.06066 
C -1.341951 -0.77937 -1.5 -0.397805 -1.5 0 
C -1.5 0.397805 -1.341951 0.77937 -1.06066 1.06066 
C -0.77937 1.341951 -0.397805 1.5 0 1.5 
z
" id="m7231bc056f" style="stroke:#f5deb3;"/>
    </defs>
    <g>
     <use style="fill:#f5deb3;stroke:#f5deb3;" x="106.311539" xlink:href="#m7231bc056f" y="30.334099"/>
     <use style="fill:#f5deb3;stroke:#f5deb3;" x="106.311539" xlink:href="#m7231bc056f" y="30.334099"/>
    </g>
   </g>
   <g id="line2d_34">
    <defs>
     <path d="M 0 1.5 
C 0.397805 1.5 0.77937 1.341951 1.06066 1.06066 
C 1.341951 0.77937 1.5 0.397805 1.5 0 
C 1.5 -0.397805 1.341951 -0.77937 1.06066 -1.06066 
C 0.77937 -1.341951 0.397805 -1.5 0 -1.5 
C -0.397805 -1.5 -0.77937 -1.341951 -1.06066 -1.06066 
C -1.341951 -0.77937 -1.5 -0.397805 -1.5 0 
C -1.5 0.397805 -1.341951 0.77937 -1.06066 1.06066 
C -0.77937 1.341951 -0.397805 1.5 0 1.5 
z
" id="mb17dfbbb98" style="stroke:#000080;"/>
    </defs>
    <g>
     <use style="fill:#000080;stroke:#000080;" x="157.697862" xlink:href="#mb17dfbbb98" y="30.334099"/>
     <use style="fill:#000080;stroke:#000080;" x="157.697862" xlink:href="#mb17dfbbb98" y="30.334099"/>
    </g>
   </g>
   <g id="line2d_35">
    <path d="M 121.931406 298.944 
L 121.931406 298.417314 
L 122.920132 298.417314 
L 122.920132 296.837256 
L 123.985457 296.837256 
L 123.985457 294.203825 
L 124.743806 294.203825 
L 124.743806 293.677139 
L 124.989434 293.677139 
L 124.989434 293.150453 
L 125.470548 293.150453 
L 125.470548 292.623767 
L 126.3947 292.623767 
L 126.3947 291.043709 
L 127.05703 291.043709 
L 127.05703 290.517023 
L 127.272333 290.517023 
L 127.272333 289.463651 
L 127.48501 289.463651 
L 127.48501 288.936964 
L 128.905271 288.936964 
L 128.905271 288.410278 
L 131.439773 288.410278 
L 131.523818 287.356906 
L 132.181982 287.356906 
L 132.181982 286.83022 
L 132.422528 286.83022 
L 132.422528 286.303534 
L 132.893889 286.303534 
L 132.893889 285.250162 
L 133.04822 285.250162 
L 133.04822 284.723476 
L 133.503183 284.723476 
L 133.57787 282.090045 
L 134.091907 282.090045 
L 134.091907 281.563359 
L 134.800918 281.563359 
L 134.800918 279.456615 
L 135.00812 279.456615 
L 135.00812 278.929929 
L 135.348078 278.929929 
L 135.415281 276.823185 
L 135.943785 276.823185 
L 135.943785 276.296499 
L 136.073445 276.296499 
L 136.073445 275.769812 
L 136.202149 275.769812 
L 136.202149 275.243126 
L 136.519813 275.243126 
L 136.582658 273.663068 
L 137.558536 273.663068 
L 137.558536 273.136382 
L 137.968891 273.136382 
L 137.968891 272.609696 
L 138.313099 272.609696 
L 138.313099 272.08301 
L 138.706272 272.08301 
L 138.706272 271.029638 
L 138.927025 271.029638 
L 138.927025 269.976266 
L 139.413734 269.976266 
L 139.466984 267.869521 
L 139.625765 267.869521 
L 139.730821 266.816149 
L 140.144829 266.816149 
L 140.246813 262.60266 
L 140.39868 262.60266 
L 140.499195 260.495916 
L 140.549236 260.495916 
L 140.549236 259.96923 
L 140.698504 259.96923 
L 140.79731 257.862486 
L 140.944478 257.862486 
L 141.041904 255.755741 
L 141.090414 255.755741 
L 141.090414 254.702369 
L 141.47371 254.702369 
L 141.568232 253.648997 
L 141.755753 253.648997 
L 141.755753 252.068939 
L 141.895083 252.068939 
L 141.895083 251.015567 
L 142.033307 251.015567 
L 142.124852 247.328764 
L 142.170445 247.328764 
L 142.170445 246.275392 
L 142.351634 246.275392 
L 142.351634 245.748706 
L 142.486301 245.748706 
L 142.575505 243.641962 
L 142.708461 243.641962 
L 142.796538 240.481845 
L 142.884173 240.481845 
L 142.927826 236.268356 
L 143.144465 236.268356 
L 143.230373 234.161612 
L 143.273169 234.161612 
L 143.358447 231.001496 
L 143.485587 231.001496 
L 143.485587 230.47481 
L 143.653678 230.47481 
L 143.653678 229.948123 
L 143.861538 229.948123 
L 143.902815 228.894751 
L 143.985075 228.894751 
L 143.985075 226.261321 
L 144.189046 226.261321 
L 144.189046 223.101204 
L 144.470655 223.101204 
L 144.550287 218.36103 
L 144.669057 218.36103 
L 144.747789 216.780971 
L 144.826168 216.780971 
L 144.904196 212.567483 
L 144.94308 212.567483 
L 145.020588 208.88068 
L 145.136208 208.88068 
L 145.136208 206.24725 
L 145.251067 206.24725 
L 145.251067 205.193878 
L 145.365173 205.193878 
L 145.365173 204.667192 
L 145.516164 204.667192 
L 145.553708 203.613819 
L 145.665858 203.613819 
L 145.740226 202.033761 
L 145.777292 202.033761 
L 145.888018 195.713528 
L 145.998045 195.713528 
L 145.998045 195.186842 
L 146.143677 195.186842 
L 146.143677 194.660156 
L 146.324022 194.660156 
L 146.359869 193.080098 
L 146.573414 193.080098 
L 146.679213 190.446667 
L 146.714338 190.446667 
L 146.784375 183.073062 
L 146.854132 183.073062 
L 146.854132 179.38626 
L 147.061745 179.38626 
L 147.164632 177.279515 
L 147.198794 177.279515 
L 147.300877 173.066027 
L 147.402367 173.066027 
L 147.402367 169.90591 
L 147.736463 169.90591 
L 147.835457 166.219108 
L 147.901141 166.219108 
L 147.96658 162.532305 
L 148.129109 162.532305 
L 148.225905 159.372189 
L 148.258051 159.372189 
L 148.258051 157.265444 
L 148.386046 157.265444 
L 148.417899 155.685386 
L 148.576295 155.685386 
L 148.670646 153.051956 
L 148.733265 153.051956 
L 148.79566 150.418525 
L 148.888835 150.418525 
L 148.950676 147.258409 
L 149.043029 147.258409 
L 149.104327 145.678351 
L 149.165411 145.678351 
L 149.226281 142.518234 
L 149.31719 142.518234 
L 149.407627 138.831432 
L 149.437669 138.831432 
L 149.437669 138.304745 
L 149.616841 138.304745 
L 149.646525 136.198001 
L 149.735275 136.198001 
L 149.823575 133.564571 
L 149.882194 133.564571 
L 149.969756 129.877768 
L 149.998846 129.877768 
L 150.085825 126.190966 
L 150.114722 126.190966 
L 150.143571 125.137593 
L 150.287105 125.137593 
L 150.372662 121.450791 
L 150.457801 121.450791 
L 150.542526 119.344047 
L 150.654857 119.344047 
L 150.738632 117.763988 
L 150.766468 117.763988 
L 150.849711 116.710616 
L 150.960087 116.710616 
L 151.069768 107.230267 
L 151.097081 107.230267 
L 151.178764 104.596836 
L 151.287083 104.596836 
L 151.394733 102.490092 
L 151.421542 102.490092 
L 151.501723 99.856662 
L 151.60806 99.856662 
L 151.713753 93.536429 
L 151.76636 93.536429 
L 151.871101 90.376312 
L 151.897188 90.376312 
L 151.949246 87.742882 
L 152.027042 87.742882 
L 152.130233 86.162824 
L 152.155936 86.162824 
L 152.232818 82.476021 
L 152.360205 82.476021 
L 152.410901 78.262532 
L 152.486669 78.262532 
L 152.562109 75.102416 
L 152.612222 75.102416 
L 152.712018 70.888927 
L 152.736878 70.888927 
L 152.786492 68.255497 
L 152.860649 68.255497 
L 152.934492 66.148752 
L 152.983548 66.148752 
L 153.056874 60.355206 
L 153.105587 60.355206 
L 153.202607 56.668403 
L 153.250915 56.668403 
L 153.347132 54.034973 
L 153.371104 54.034973 
L 153.418948 52.454914 
L 153.537988 52.454914 
L 153.609024 50.34817 
L 153.679772 50.34817 
L 153.750233 46.661368 
L 153.79705 46.661368 
L 153.79705 46.134681 
L 153.913546 46.134681 
L 153.913546 45.081309 
L 154.167129 45.081309 
L 154.167129 44.554623 
L 154.303908 44.554623 
L 154.303908 44.027937 
L 154.484627 44.027937 
L 154.551917 40.341135 
L 154.906477 40.341135 
L 154.906477 39.814448 
L 155.189341 39.814448 
L 155.189341 38.761076 
L 155.678822 38.761076 
L 155.678822 37.707704 
L 155.845906 37.707704 
L 155.949527 35.60096 
L 156.776762 35.60096 
L 156.776762 32.967529 
L 157.697862 32.967529 
L 157.697862 30.334099 
L 338.688 30.334099 
L 338.688 30.334099 
" style="fill:none;stroke:#000080;stroke-linecap:square;stroke-width:1.5;"/>
   </g>
   <g id="line2d_36">
    <defs>
     <path d="M 0 6 
C 1.591219 6 3.117479 5.367802 4.242641 4.242641 
C 5.367802 3.117479 6 1.591219 6 0 
C 6 -1.591219 5.367802 -3.117479 4.242641 -4.242641 
C 3.117479 -5.367802 1.591219 -6 0 -6 
C -1.591219 -6 -3.117479 -5.367802 -4.242641 -4.242641 
C -5.367802 -3.117479 -6 -1.591219 -6 0 
C -6 1.591219 -5.367802 3.117479 -4.242641 4.242641 
C -3.117479 5.367802 -1.591219 6 0 6 
z
" id="mc929681369" style="stroke:#000080;stroke-width:1.5;"/>
    </defs>
    <g>
     <use style="fill-opacity:0;stroke:#000080;stroke-width:1.5;" x="147.736463" xlink:href="#mc929681369" y="169.90591"/>
     <use style="fill-opacity:0;stroke:#000080;stroke-width:1.5;" x="157.697862" xlink:href="#mc929681369" y="32.967529"/>
     <use style="fill-opacity:0;stroke:#000080;stroke-width:1.5;" x="157.697862" xlink:href="#mc929681369" y="30.334099"/>
     <use style="fill-opacity:0;stroke:#000080;stroke-width:1.5;" x="157.697862" xlink:href="#mc929681369" y="30.334099"/>
     <use style="fill-opacity:0;stroke:#000080;stroke-width:1.5;" x="338.688" xlink:href="#mc929681369" y="30.334099"/>
    </g>
   </g>
   <g id="line2d_37">
    <path style="fill:none;stroke:#000080;stroke-linecap:square;stroke-width:1.5;"/>
    <g/>
   </g>
   <g id="line2d_38">
    <g>
     <use style="fill:#000080;stroke:#000080;" x="156.558644" xlink:href="#mb17dfbbb98" y="30.334099"/>
     <use style="fill:#000080;stroke:#000080;" x="156.558644" xlink:href="#mb17dfbbb98" y="30.334099"/>
    </g>
   </g>
   <g id="line2d_39">
    <path d="M 119.768017 298.944 
L 119.768017 298.417314 
L 121.340187 298.417314 
L 121.340187 297.890628 
L 122.362027 297.890628 
L 122.362027 297.363942 
L 123.056911 297.363942 
L 123.056911 296.837256 
L 125.351508 296.837256 
L 125.351508 296.31057 
L 126.281824 296.31057 
L 126.281824 295.783884 
L 126.3947 295.783884 
L 126.3947 295.257197 
L 126.948374 295.257197 
L 126.948374 294.730511 
L 127.165014 294.730511 
L 127.165014 294.203825 
L 127.799239 294.203825 
L 127.902737 290.517023 
L 128.209594 290.517023 
L 128.209594 289.990337 
L 128.411207 289.990337 
L 128.411207 288.936964 
L 128.709321 288.936964 
L 128.709321 288.410278 
L 128.905271 288.410278 
L 129.002426 286.83022 
L 129.290685 286.83022 
L 129.385722 283.670104 
L 129.480244 283.670104 
L 129.574256 282.090045 
L 130.487516 282.090045 
L 130.487516 281.563359 
L 130.839837 281.563359 
L 130.839837 278.929929 
L 131.185181 278.929929 
L 131.185181 277.349871 
L 131.60746 277.349871 
L 131.690703 274.71644 
L 132.101058 274.71644 
L 132.181982 271.556324 
L 132.422528 271.556324 
L 132.422528 269.976266 
L 132.581068 269.976266 
L 132.581068 269.449579 
L 132.971225 269.449579 
L 133.04822 268.396207 
L 133.124876 268.396207 
L 133.124876 266.816149 
L 133.352844 266.816149 
L 133.352844 265.236091 
L 133.72629 265.236091 
L 133.72629 264.182719 
L 134.307653 264.182719 
L 134.307653 263.656033 
L 134.520763 263.656033 
L 134.520763 263.129347 
L 134.800918 263.129347 
L 134.800918 262.60266 
L 135.144899 262.60266 
L 135.144899 262.075974 
L 135.415281 262.075974 
L 135.415281 261.549288 
L 135.548916 261.549288 
L 135.548916 261.022602 
L 135.878591 261.022602 
L 135.943785 259.96923 
L 136.008736 259.96923 
L 136.008736 259.442544 
L 136.456742 259.442544 
L 136.519813 256.809114 
L 137.077422 256.809114 
L 137.077422 256.282427 
L 137.319638 256.282427 
L 137.37967 254.175683 
L 137.499118 254.175683 
L 137.499118 253.648997 
L 137.617753 253.648997 
L 137.617753 252.595625 
L 137.735587 252.595625 
L 137.794206 251.542253 
L 138.141844 251.542253 
L 138.199116 249.962195 
L 138.256201 249.962195 
L 138.256201 249.435508 
L 138.426341 249.435508 
L 138.426341 248.908822 
L 139.036363 248.908822 
L 139.036363 247.85545 
L 139.678372 247.85545 
L 139.783113 246.802078 
L 139.835248 246.802078 
L 139.835248 246.275392 
L 140.093612 246.275392 
L 140.093612 245.748706 
L 140.297583 245.748706 
L 140.348205 244.168648 
L 140.499195 244.168648 
L 140.499195 243.641962 
L 140.64889 243.641962 
L 140.698504 242.588589 
L 140.846504 242.588589 
L 140.846504 241.535217 
L 141.041904 241.535217 
L 141.090414 239.428473 
L 141.33096 239.428473 
L 141.378673 237.848415 
L 141.521035 237.848415 
L 141.521035 237.321729 
L 141.709062 237.321729 
L 141.755753 235.74167 
L 141.987354 235.74167 
L 141.987354 235.214984 
L 142.124852 235.214984 
L 142.170445 234.161612 
L 142.261275 234.161612 
L 142.261275 230.47481 
L 142.396639 230.47481 
L 142.486301 225.207949 
L 142.619936 225.207949 
L 142.708461 222.574518 
L 142.927826 222.574518 
L 143.014805 220.467774 
L 143.101352 220.467774 
L 143.101352 218.36103 
L 143.40093 218.36103 
L 143.40093 217.834344 
L 143.527762 217.834344 
L 143.569835 216.780971 
L 143.653678 216.780971 
L 143.653678 215.200913 
L 143.820164 215.200913 
L 143.861538 213.620855 
L 143.943994 213.620855 
L 143.985075 211.514111 
L 144.06695 211.514111 
L 144.148442 207.827308 
L 144.310293 207.827308 
L 144.390658 206.773936 
L 144.430703 206.773936 
L 144.510517 202.560447 
L 144.589967 202.560447 
L 144.669057 199.400331 
L 144.708467 199.400331 
L 144.787023 195.713528 
L 144.865226 195.713528 
L 144.904196 194.660156 
L 144.981877 194.660156 
L 145.020588 192.553412 
L 145.365173 192.553412 
L 145.365173 192.026726 
L 145.478539 192.026726 
L 145.553708 187.813237 
L 145.665858 187.813237 
L 145.665858 186.233179 
L 145.777292 186.233179 
L 145.888018 183.599748 
L 145.961446 183.599748 
L 146.071013 180.966318 
L 146.107383 180.966318 
L 146.216039 179.38626 
L 146.252108 179.38626 
L 146.324022 175.699457 
L 146.431341 175.699457 
L 146.538004 173.592713 
L 146.644018 173.592713 
L 146.679213 172.539341 
L 146.854132 172.539341 
L 146.958248 170.432596 
L 147.164632 170.432596 
L 147.266916 167.27248 
L 147.300877 167.27248 
L 147.402367 165.692422 
L 147.436066 165.692422 
L 147.536775 164.112363 
L 147.570215 164.112363 
L 147.670154 158.845503 
L 147.70334 158.845503 
L 147.769524 155.685386 
L 147.835457 155.685386 
L 147.933891 153.578642 
L 147.96658 153.578642 
L 148.031773 149.365153 
L 148.129109 149.365153 
L 148.161434 145.151665 
L 148.290138 145.151665 
L 148.386046 143.04492 
L 148.417899 143.04492 
L 148.513109 138.831432 
L 148.670646 138.831432 
L 148.733265 135.144629 
L 148.826773 135.144629 
L 148.919783 134.091257 
L 149.043029 134.091257 
L 149.043029 133.564571 
L 149.165411 133.564571 
L 149.256637 130.93114 
L 149.286939 130.93114 
L 149.347388 127.771024 
L 149.407627 127.771024 
L 149.437669 125.137593 
L 149.527485 125.137593 
L 149.616841 118.817361 
L 149.646525 118.817361 
L 149.646525 116.18393 
L 149.764758 116.18393 
L 149.764758 115.657244 
L 149.940618 115.657244 
L 149.940618 113.5505 
L 150.114722 113.5505 
L 150.172372 110.390383 
L 150.31567 110.390383 
L 150.372662 108.283639 
L 150.429467 108.283639 
L 150.51433 105.650209 
L 150.570677 105.650209 
L 150.654857 103.543464 
L 150.738632 103.543464 
L 150.79426 100.383348 
L 150.87737 100.383348 
L 150.987572 96.169859 
L 151.097081 96.169859 
L 151.205907 91.95637 
L 151.260066 91.95637 
L 151.367883 87.216196 
L 151.394733 87.216196 
L 151.475037 84.056079 
L 151.528368 84.056079 
L 151.634543 80.895963 
L 151.660987 80.895963 
L 151.76636 76.682474 
L 151.871101 76.682474 
L 151.975216 72.468985 
L 152.001148 72.468985 
L 152.001148 71.942299 
L 152.130233 71.942299 
L 152.207228 69.308869 
L 152.309362 69.308869 
L 152.334802 66.675439 
L 152.436193 66.675439 
L 152.511852 63.515322 
L 152.562109 63.515322 
L 152.612222 59.301833 
L 152.687123 59.301833 
L 152.786492 58.248461 
L 152.860649 58.248461 
L 152.909913 57.195089 
L 152.983548 57.195089 
L 153.081247 56.141717 
L 153.105587 56.141717 
L 153.202607 52.454914 
L 153.250915 52.454914 
L 153.323128 51.401542 
L 153.371104 51.401542 
L 153.466662 48.241426 
L 153.537988 48.241426 
L 153.632638 45.081309 
L 153.913546 45.081309 
L 153.959927 41.921193 
L 154.098334 41.921193 
L 154.167129 38.761076 
L 154.235652 38.761076 
L 154.235652 38.23439 
L 154.349264 38.23439 
L 154.349264 37.181018 
L 154.507086 37.181018 
L 154.507086 36.127646 
L 154.972161 36.127646 
L 154.994001 35.074274 
L 155.296925 35.074274 
L 155.296925 34.547588 
L 155.6368 34.547588 
L 155.720743 32.440843 
L 156.195732 32.440843 
L 156.216093 31.387471 
L 156.558644 31.387471 
L 156.558644 30.334099 
L 338.688 30.334099 
L 338.688 30.334099 
" style="fill:none;stroke:#000080;stroke-linecap:square;stroke-width:1.5;"/>
   </g>
   <g id="line2d_40">
    <g>
     <use style="fill-opacity:0;stroke:#000080;stroke-width:1.5;" x="147.603592" xlink:href="#mc929681369" y="162.532305"/>
     <use style="fill-opacity:0;stroke:#000080;stroke-width:1.5;" x="156.558644" xlink:href="#mc929681369" y="31.387471"/>
     <use style="fill-opacity:0;stroke:#000080;stroke-width:1.5;" x="156.558644" xlink:href="#mc929681369" y="30.334099"/>
     <use style="fill-opacity:0;stroke:#000080;stroke-width:1.5;" x="156.558644" xlink:href="#mc929681369" y="30.334099"/>
     <use style="fill-opacity:0;stroke:#000080;stroke-width:1.5;" x="338.688" xlink:href="#mc929681369" y="30.334099"/>
    </g>
   </g>
   <g id="line2d_41">
    <path style="fill:none;stroke:#000080;stroke-linecap:square;stroke-width:1.5;"/>
    <g/>
   </g>
   <g id="line2d_42">
    <defs>
     <path d="M 0 1.5 
C 0.397805 1.5 0.77937 1.341951 1.06066 1.06066 
C 1.341951 0.77937 1.5 0.397805 1.5 0 
C 1.5 -0.397805 1.341951 -0.77937 1.06066 -1.06066 
C 0.77937 -1.341951 0.397805 -1.5 0 -1.5 
C -0.397805 -1.5 -0.77937 -1.341951 -1.06066 -1.06066 
C -1.341951 -0.77937 -1.5 -0.397805 -1.5 0 
C -1.5 0.397805 -1.341951 0.77937 -1.06066 1.06066 
C -0.77937 1.341951 -0.397805 1.5 0 1.5 
z
" id="mdc351f895a" style="stroke:#ff00ff;"/>
    </defs>
    <g>
     <use style="fill:#ff00ff;stroke:#ff00ff;" x="250.751818" xlink:href="#mdc351f895a" y="30.334099"/>
     <use style="fill:#ff00ff;stroke:#ff00ff;" x="250.751818" xlink:href="#mdc351f895a" y="30.334099"/>
    </g>
   </g>
   <g id="line2d_43">
    <path d="M 136.32991 298.944 
L 136.32991 297.890628 
L 137.259399 297.890628 
L 137.259399 296.31057 
L 139.835248 296.31057 
L 139.835248 295.783884 
L 149.467659 295.783884 
L 149.467659 295.257197 
L 149.998846 295.257197 
L 149.998846 294.730511 
L 150.904986 294.730511 
L 150.904986 294.203825 
L 151.554972 294.203825 
L 151.554972 293.677139 
L 151.844975 293.677139 
L 151.897188 288.936964 
L 158.465753 288.936964 
L 158.465753 287.356906 
L 159.201253 287.356906 
L 159.201253 286.303534 
L 159.658204 286.303534 
L 159.724893 283.670104 
L 160.426146 283.670104 
L 160.426146 283.143418 
L 160.664283 283.143418 
L 160.664283 282.616732 
L 162.79874 282.616732 
L 162.79874 282.090045 
L 163.402046 282.090045 
L 163.455871 280.509987 
L 163.775378 280.509987 
L 163.828065 278.929929 
L 164.35912 278.929929 
L 164.35912 278.403243 
L 164.51154 278.403243 
L 164.51154 277.876557 
L 164.624987 277.876557 
L 164.712717 276.823185 
L 164.886862 276.823185 
L 164.886862 276.296499 
L 165.047026 276.296499 
L 165.120455 274.71644 
L 165.18141 274.71644 
L 165.290595 273.136382 
L 165.447111 273.136382 
L 165.494988 272.08301 
L 165.578458 272.08301 
L 165.661531 269.976266 
L 165.720627 269.976266 
L 165.779524 267.869521 
L 165.885039 267.869521 
L 165.920069 264.182719 
L 166.151824 264.182719 
L 166.220754 261.022602 
L 166.277988 261.022602 
L 166.380539 256.282427 
L 166.391896 256.282427 
L 166.437252 254.175683 
L 166.561376 254.175683 
L 166.561376 252.595625 
L 166.96153 252.595625 
L 166.96153 252.068939 
L 167.309674 252.068939 
L 167.309674 251.015567 
L 167.651004 251.015567 
L 167.651004 248.908822 
L 167.76681 248.908822 
L 167.76681 247.85545 
L 168.099393 247.85545 
L 168.099393 246.802078 
L 168.415645 246.802078 
L 168.415645 246.275392 
L 168.756032 246.275392 
L 168.825295 243.115275 
L 168.8746 243.115275 
L 168.8746 242.061903 
L 169.206229 242.061903 
L 169.292968 238.375101 
L 169.503198 238.375101 
L 169.503198 237.848415 
L 170.100748 237.848415 
L 170.137423 236.268356 
L 170.355872 236.268356 
L 170.40104 234.161612 
L 170.473066 234.161612 
L 170.562682 229.948123 
L 170.616232 229.948123 
L 170.705117 228.894751 
L 170.767069 228.894751 
L 170.793552 227.841379 
L 170.925369 227.841379 
L 170.942869 226.261321 
L 171.125572 226.261321 
L 171.125572 225.207949 
L 171.349156 225.207949 
L 171.442893 223.627891 
L 171.485334 223.627891 
L 171.553027 222.047832 
L 171.612043 222.047832 
L 171.637275 220.467774 
L 171.746192 220.467774 
L 171.812882 218.36103 
L 171.879317 218.36103 
L 171.937241 215.727599 
L 172.093501 215.727599 
L 172.093501 215.200913 
L 172.434028 215.200913 
L 172.498143 210.460738 
L 172.569992 210.460738 
L 172.60183 208.88068 
L 172.689086 208.88068 
L 172.736497 207.827308 
L 172.815229 207.827308 
L 172.909242 205.720564 
L 172.9872 205.720564 
L 172.9872 204.667192 
L 173.111214 204.667192 
L 173.219006 200.980389 
L 173.265 200.980389 
L 173.280304 199.927017 
L 173.409852 199.927017 
L 173.409852 198.346959 
L 173.576085 198.346959 
L 173.651125 196.240214 
L 173.770522 196.240214 
L 173.800244 194.13347 
L 173.977519 194.13347 
L 173.977519 193.606784 
L 174.15301 193.606784 
L 174.247335 190.973354 
L 174.297915 190.973354 
L 174.297915 189.919981 
L 174.774759 189.919981 
L 174.823834 188.339923 
L 174.942445 188.339923 
L 175.046437 183.073062 
L 175.080963 183.073062 
L 175.156681 180.439632 
L 175.320753 180.439632 
L 175.320753 179.912946 
L 175.550576 179.912946 
L 175.58412 177.279515 
L 175.691027 177.279515 
L 175.724302 173.592713 
L 175.922628 173.592713 
L 175.922628 173.066027 
L 176.125223 173.066027 
L 176.164164 171.485969 
L 176.267585 171.485969 
L 176.331913 168.852538 
L 176.567884 168.852538 
L 176.567884 167.27248 
L 176.838169 167.27248 
L 176.881775 165.692422 
L 176.962469 165.692422 
L 177.005766 163.585677 
L 177.092038 163.585677 
L 177.092038 163.058991 
L 177.220651 163.058991 
L 177.324077 160.952247 
L 177.402755 160.952247 
L 177.511111 156.212072 
L 177.600896 156.212072 
L 177.690222 153.051956 
L 177.773182 153.051956 
L 177.849864 150.945211 
L 178.262819 150.945211 
L 178.320204 149.365153 
L 178.38311 149.365153 
L 178.388818 147.785095 
L 178.794926 147.785095 
L 178.828345 145.151665 
L 178.939282 145.151665 
L 179.044023 141.464862 
L 179.065994 141.464862 
L 179.065994 140.938176 
L 179.202687 140.938176 
L 179.289612 138.831432 
L 179.327506 138.831432 
L 179.327506 137.778059 
L 179.654285 137.778059 
L 179.728427 134.617943 
L 179.886249 134.617943 
L 179.886249 133.564571 
L 180.151313 133.564571 
L 180.151313 133.037885 
L 180.483402 133.037885 
L 180.579292 129.351082 
L 180.634567 129.351082 
L 180.739608 127.244338 
L 180.844021 127.244338 
L 180.844021 126.717652 
L 181.006844 126.717652 
L 181.006844 126.190966 
L 181.134068 126.190966 
L 181.134068 125.66428 
L 181.245843 125.66428 
L 181.279719 124.084221 
L 181.457697 124.084221 
L 181.462482 121.450791 
L 181.841098 121.450791 
L 181.920505 120.397419 
L 182.050511 120.397419 
L 182.138181 113.5505 
L 182.179555 113.5505 
L 182.234569 112.497128 
L 182.507063 112.497128 
L 182.552068 107.756953 
L 182.877129 107.756953 
L 182.877129 107.230267 
L 183.113746 107.230267 
L 183.170233 105.123522 
L 183.243826 105.123522 
L 183.243826 104.596836 
L 183.385802 104.596836 
L 183.420047 103.016778 
L 183.590271 103.016778 
L 183.670549 98.803289 
L 183.708446 98.803289 
L 183.716857 96.169859 
L 183.838356 96.169859 
L 183.942422 94.589801 
L 183.959015 94.589801 
L 183.97145 93.536429 
L 184.144607 93.536429 
L 184.144607 93.009743 
L 184.372841 93.009743 
L 184.397118 91.95637 
L 184.911072 91.95637 
L 184.911072 90.902998 
L 185.34916 90.902998 
L 185.417939 89.32294 
L 185.509225 89.32294 
L 185.509225 88.269568 
L 185.6302 88.269568 
L 185.727878 84.582765 
L 185.742857 84.582765 
L 185.742857 84.056079 
L 185.977095 84.056079 
L 185.977095 83.529393 
L 186.142502 83.529393 
L 186.142502 82.476021 
L 186.284597 82.476021 
L 186.284597 80.369277 
L 186.447126 80.369277 
L 186.447126 79.842591 
L 186.629513 79.842591 
L 186.636627 77.735846 
L 186.753586 77.735846 
L 186.753586 76.682474 
L 186.876783 76.682474 
L 186.876783 75.629102 
L 187.503741 75.629102 
L 187.513889 73.522358 
L 187.615046 73.522358 
L 187.618407 72.468985 
L 188.336229 72.468985 
L 188.352351 71.415613 
L 188.563778 71.415613 
L 188.563778 70.888927 
L 189.581087 70.888927 
L 189.581087 70.362241 
L 190.157181 70.362241 
L 190.174608 68.782183 
L 190.339308 68.782183 
L 190.339308 68.255497 
L 190.779466 68.255497 
L 190.78227 67.202125 
L 191.043851 67.202125 
L 191.043851 65.622066 
L 191.317886 65.622066 
L 191.317886 65.09538 
L 193.430448 65.09538 
L 193.430448 64.568694 
L 193.605405 64.568694 
L 193.638759 62.46195 
L 193.938447 62.46195 
L 193.950141 60.355206 
L 195.913815 60.355206 
L 195.945123 57.721775 
L 196.055294 57.721775 
L 196.131796 56.668403 
L 196.170951 56.668403 
L 196.179183 55.615031 
L 196.28789 55.615031 
L 196.395924 54.034973 
L 196.535577 54.034973 
L 196.535577 52.9816 
L 196.656111 52.9816 
L 196.680119 51.401542 
L 196.936131 51.401542 
L 196.938101 49.294798 
L 197.147614 49.294798 
L 197.236916 46.661368 
L 231.040015 46.661368 
L 231.092617 45.081309 
L 231.171084 45.081309 
L 231.251403 41.394507 
L 231.297605 41.394507 
L 231.348067 40.341135 
L 231.618445 40.341135 
L 231.685993 38.23439 
L 231.793904 38.23439 
L 231.793904 37.707704 
L 232.226283 37.707704 
L 232.291004 36.654332 
L 232.348246 36.654332 
L 232.348246 36.127646 
L 232.84484 36.127646 
L 232.84484 35.074274 
L 233.27578 35.074274 
L 233.27578 34.547588 
L 243.179215 34.547588 
L 243.264743 33.494215 
L 243.416738 33.494215 
L 243.424413 32.440843 
L 243.587929 32.440843 
L 243.587929 31.914157 
L 243.805916 31.914157 
L 243.805916 31.387471 
L 250.309331 31.387471 
L 250.309331 30.860785 
L 250.751818 30.860785 
L 250.751818 30.334099 
L 338.688 30.334099 
L 338.688 30.334099 
" style="fill:none;stroke:#ff00ff;stroke-linecap:square;stroke-width:1.5;"/>
   </g>
   <g id="line2d_44">
    <defs>
     <path d="M -0 8.485281 
L 5.091169 0 
L 0 -8.485281 
L -5.091169 -0 
z
" id="me102dff2e2" style="stroke:#ff00ff;stroke-linejoin:miter;stroke-width:1.5;"/>
    </defs>
    <g>
     <use style="fill-opacity:0;stroke:#ff00ff;stroke-linejoin:miter;stroke-width:1.5;" x="177.511111" xlink:href="#me102dff2e2" y="156.212072"/>
     <use style="fill-opacity:0;stroke:#ff00ff;stroke-linejoin:miter;stroke-width:1.5;" x="231.620871" xlink:href="#me102dff2e2" y="39.814448"/>
     <use style="fill-opacity:0;stroke:#ff00ff;stroke-linejoin:miter;stroke-width:1.5;" x="250.751818" xlink:href="#me102dff2e2" y="30.334099"/>
     <use style="fill-opacity:0;stroke:#ff00ff;stroke-linejoin:miter;stroke-width:1.5;" x="250.751818" xlink:href="#me102dff2e2" y="30.334099"/>
     <use style="fill-opacity:0;stroke:#ff00ff;stroke-linejoin:miter;stroke-width:1.5;" x="338.688" xlink:href="#me102dff2e2" y="30.334099"/>
    </g>
   </g>
   <g id="line2d_45">
    <path style="fill:none;stroke:#ff00ff;stroke-linecap:square;stroke-width:1.5;"/>
    <g/>
   </g>
   <g id="line2d_46">
    <path clip-path="url(#p80550a9a04)" d="M 230.542411 46.661368 
" style="fill:none;stroke:#ff00ff;stroke-linecap:square;stroke-width:1.5;"/>
    <defs>
     <path d="M -12 12 
L 12 -12 
M -12 -12 
L 12 12 
" id="mb8a443d8ad" style="stroke:#ff00ff;"/>
    </defs>
    <g clip-path="url(#p80550a9a04)">
     <use style="fill:#ff00ff;stroke:#ff00ff;" x="230.542411" xlink:href="#mb8a443d8ad" y="46.661368"/>
    </g>
   </g>
   <g id="line2d_47">
    <defs>
     <path d="M 0 1.5 
C 0.397805 1.5 0.77937 1.341951 1.06066 1.06066 
C 1.341951 0.77937 1.5 0.397805 1.5 0 
C 1.5 -0.397805 1.341951 -0.77937 1.06066 -1.06066 
C 0.77937 -1.341951 0.397805 -1.5 0 -1.5 
C -0.397805 -1.5 -0.77937 -1.341951 -1.06066 -1.06066 
C -1.341951 -0.77937 -1.5 -0.397805 -1.5 0 
C -1.5 0.397805 -1.341951 0.77937 -1.06066 1.06066 
C -0.77937 1.341951 -0.397805 1.5 0 1.5 
z
" id="m33954a3598" style="stroke:#ff0000;"/>
    </defs>
    <g>
     <use style="fill:#ff0000;stroke:#ff0000;" x="162.173813" xlink:href="#m33954a3598" y="30.334099"/>
     <use style="fill:#ff0000;stroke:#ff0000;" x="162.173813" xlink:href="#m33954a3598" y="30.334099"/>
    </g>
   </g>
   <g id="line2d_48">
    <path d="M 109.550313 298.944 
L 109.550313 296.837256 
L 118.039942 296.837256 
L 118.039942 296.31057 
L 123.056911 296.31057 
L 123.056911 295.783884 
L 124.989434 295.783884 
L 124.989434 295.257197 
L 126.168212 295.257197 
L 126.168212 294.730511 
L 126.281824 294.730511 
L 126.281824 294.203825 
L 126.948374 294.203825 
L 126.948374 293.677139 
L 129.002426 293.677139 
L 129.099042 291.043709 
L 130.036864 291.043709 
L 130.036864 290.517023 
L 130.752422 290.517023 
L 130.752422 289.990337 
L 132.659801 289.990337 
L 132.659801 289.463651 
L 133.503183 289.463651 
L 133.503183 288.410278 
L 134.164119 288.410278 
L 134.236034 287.356906 
L 134.37898 287.356906 
L 134.450015 284.723476 
L 135.144899 284.723476 
L 135.144899 284.19679 
L 135.280614 284.19679 
L 135.280614 282.090045 
L 135.482227 282.090045 
L 135.482227 279.983301 
L 137.077422 279.983301 
L 137.077422 279.456615 
L 137.439497 279.456615 
L 137.439497 278.403243 
L 137.676769 278.403243 
L 137.676769 277.876557 
L 137.794206 277.876557 
L 137.794206 277.349871 
L 138.199116 277.349871 
L 138.199116 276.823185 
L 138.313099 276.823185 
L 138.313099 275.769812 
L 138.706272 275.769812 
L 138.816998 273.663068 
L 139.036363 273.663068 
L 139.036363 273.136382 
L 139.466984 273.136382 
L 139.572998 272.08301 
L 140.64889 272.08301 
L 140.64889 271.029638 
L 140.79731 271.029638 
L 140.89556 269.976266 
L 141.378673 269.976266 
L 141.47371 268.922893 
L 141.709062 268.922893 
L 141.80232 267.869521 
L 142.033307 267.869521 
L 142.033307 267.342835 
L 142.170445 267.342835 
L 142.170445 266.816149 
L 142.396639 266.816149 
L 142.441528 264.709405 
L 142.752555 264.709405 
L 142.796538 263.129347 
L 143.058132 263.129347 
L 143.058132 262.075974 
L 143.569835 262.075974 
L 143.611807 261.022602 
L 143.695448 261.022602 
L 143.695448 260.495916 
L 143.820164 260.495916 
L 143.820164 259.96923 
L 143.985075 259.96923 
L 143.985075 258.389172 
L 144.470655 258.389172 
L 144.470655 257.3358 
L 144.826168 257.3358 
L 144.826168 256.282427 
L 145.020588 256.282427 
L 145.020588 255.229055 
L 145.289185 255.229055 
L 145.289185 254.702369 
L 145.516164 254.702369 
L 145.591172 251.542253 
L 145.703082 251.542253 
L 145.703082 250.488881 
L 145.888018 250.488881 
L 145.961446 249.435508 
L 146.034567 249.435508 
L 146.143677 247.85545 
L 146.324022 247.85545 
L 146.431341 245.748706 
L 146.538004 245.748706 
L 146.608752 244.168648 
L 146.784375 244.168648 
L 146.888907 241.535217 
L 146.992815 241.535217 
L 147.096109 238.375101 
L 147.130404 238.375101 
L 147.130404 237.848415 
L 147.266916 237.848415 
L 147.368603 236.268356 
L 147.402367 236.268356 
L 147.436066 235.214984 
L 147.536775 235.214984 
L 147.536775 233.634926 
L 147.901141 233.634926 
L 147.96658 230.47481 
L 148.031773 230.47481 
L 148.031773 229.948123 
L 148.193699 229.948123 
L 148.290138 227.841379 
L 148.322166 227.841379 
L 148.417899 222.574518 
L 148.449693 222.574518 
L 148.54473 217.834344 
L 148.670646 217.834344 
L 148.733265 215.200913 
L 148.857832 215.200913 
L 148.950676 211.514111 
L 149.012299 211.514111 
L 149.012299 210.460738 
L 149.165411 210.460738 
L 149.165411 209.934052 
L 149.286939 209.934052 
L 149.377533 208.353994 
L 149.467659 208.353994 
L 149.557321 206.24725 
L 149.616841 206.24725 
L 149.676158 203.613819 
L 149.735275 203.613819 
L 149.735275 202.560447 
L 149.882194 202.560447 
L 149.969756 198.873645 
L 150.027887 198.873645 
L 150.027887 196.7669 
L 150.143571 196.7669 
L 150.229833 193.606784 
L 150.31567 193.606784 
L 150.344189 189.393295 
L 150.429467 189.393295 
L 150.429467 188.866609 
L 150.570677 188.866609 
L 150.598782 187.286551 
L 150.79426 187.286551 
L 150.87737 182.01969 
L 150.987572 182.01969 
L 151.097081 179.912946 
L 151.124351 179.912946 
L 151.233007 178.859574 
L 151.287083 178.859574 
L 151.340991 176.226143 
L 151.475037 176.226143 
L 151.501723 175.172771 
L 151.634543 175.172771 
L 151.713753 172.012655 
L 151.76636 172.012655 
L 151.871101 168.852538 
L 151.923236 168.852538 
L 151.923236 162.005619 
L 152.104493 162.005619 
L 152.207228 160.952247 
L 152.410901 160.952247 
L 152.486669 156.212072 
L 152.536999 156.212072 
L 152.536999 155.685386 
L 152.662192 155.685386 
L 152.761703 146.205037 
L 152.786492 146.205037 
L 152.786492 145.678351 
L 152.909913 145.678351 
L 152.909913 145.151665 
L 153.056874 145.151665 
L 153.056874 144.624978 
L 153.202607 144.624978 
L 153.275019 141.464862 
L 153.323128 141.464862 
L 153.323128 140.938176 
L 153.466662 140.938176 
L 153.561699 138.831432 
L 153.726778 138.831432 
L 153.820412 133.037885 
L 153.867041 133.037885 
L 153.959927 131.457826 
L 153.983071 131.457826 
L 154.029268 129.877768 
L 154.098334 129.877768 
L 154.144227 126.190966 
L 154.258434 126.190966 
L 154.326601 123.557535 
L 154.371897 123.557535 
L 154.46214 121.977477 
L 154.507086 121.977477 
L 154.57429 119.344047 
L 154.618949 119.344047 
L 154.707925 113.023814 
L 154.730098 113.023814 
L 154.840544 109.337011 
L 154.884527 109.337011 
L 154.994001 105.650209 
L 155.015814 105.650209 
L 155.102793 103.016778 
L 155.189341 103.016778 
L 155.296925 99.329976 
L 155.382516 99.329976 
L 155.46769 95.643173 
L 155.55245 95.643173 
L 155.657823 93.009743 
L 155.699795 93.009743 
L 155.783437 91.429684 
L 155.825108 91.429684 
L 155.908152 89.32294 
L 155.970177 89.32294 
L 156.031982 86.68951 
L 156.216093 86.68951 
L 156.317544 84.582765 
L 156.378132 84.582765 
L 156.478647 81.422649 
L 156.538679 81.422649 
L 156.598505 79.842591 
L 156.697761 79.842591 
L 156.737306 77.735846 
L 156.816128 77.735846 
L 156.914157 74.049044 
L 156.933697 74.049044 
L 157.011638 72.995672 
L 157.089232 72.995672 
L 157.166482 70.362241 
L 157.224197 70.362241 
L 157.319964 67.728811 
L 157.415209 67.728811 
L 157.509937 66.148752 
L 157.604152 66.148752 
L 157.660438 62.988636 
L 157.716543 62.988636 
L 157.809652 59.82852 
L 157.957601 59.82852 
L 158.067744 58.775147 
L 158.104304 58.775147 
L 158.213527 56.141717 
L 158.249784 56.141717 
L 158.322071 53.508287 
L 158.376091 53.508287 
L 158.429943 49.821484 
L 158.501489 49.821484 
L 158.501489 49.294798 
L 158.714382 49.294798 
L 158.714382 48.768112 
L 158.83738 48.768112 
L 158.83738 47.188054 
L 159.0116 47.188054 
L 159.098062 45.081309 
L 159.149734 45.081309 
L 159.149734 43.501251 
L 159.456591 43.501251 
L 159.524055 39.814448 
L 160.070889 39.814448 
L 160.119762 38.23439 
L 160.394148 38.23439 
L 160.442124 36.127646 
L 160.601097 36.127646 
L 160.664283 34.020902 
L 161.540659 34.020902 
L 161.64531 32.440843 
L 161.955547 32.440843 
L 161.955547 31.387471 
L 162.173813 31.387471 
L 162.173813 30.334099 
L 338.688 30.334099 
L 338.688 30.334099 
" style="fill:none;stroke:#ff0000;stroke-linecap:square;stroke-width:1.5;"/>
   </g>
   <g id="line2d_49">
    <defs>
     <path d="M 0 -6 
L -5.196152 -3 
L -5.196152 3 
L -0 6 
L 5.196152 3 
L 5.196152 -3 
z
" id="mda2eacd710" style="stroke:#ff0000;stroke-linejoin:miter;stroke-width:1.5;"/>
    </defs>
    <g>
     <use style="fill-opacity:0;stroke:#ff0000;stroke-linejoin:miter;stroke-width:1.5;" x="147.933891" xlink:href="#mda2eacd710" y="232.054868"/>
     <use style="fill-opacity:0;stroke:#ff0000;stroke-linejoin:miter;stroke-width:1.5;" x="162.173813" xlink:href="#mda2eacd710" y="31.387471"/>
     <use style="fill-opacity:0;stroke:#ff0000;stroke-linejoin:miter;stroke-width:1.5;" x="162.173813" xlink:href="#mda2eacd710" y="30.334099"/>
     <use style="fill-opacity:0;stroke:#ff0000;stroke-linejoin:miter;stroke-width:1.5;" x="162.173813" xlink:href="#mda2eacd710" y="30.334099"/>
     <use style="fill-opacity:0;stroke:#ff0000;stroke-linejoin:miter;stroke-width:1.5;" x="338.688" xlink:href="#mda2eacd710" y="30.334099"/>
    </g>
   </g>
   <g id="line2d_50">
    <path style="fill:none;stroke:#ff0000;stroke-linecap:square;stroke-width:1.5;"/>
    <g/>
   </g>
   <g id="line2d_51">
    <defs>
     <path d="M 0 1.5 
C 0.397805 1.5 0.77937 1.341951 1.06066 1.06066 
C 1.341951 0.77937 1.5 0.397805 1.5 0 
C 1.5 -0.397805 1.341951 -0.77937 1.06066 -1.06066 
C 0.77937 -1.341951 0.397805 -1.5 0 -1.5 
C -0.397805 -1.5 -0.77937 -1.341951 -1.06066 -1.06066 
C -1.341951 -0.77937 -1.5 -0.397805 -1.5 0 
C -1.5 0.397805 -1.341951 0.77937 -1.06066 1.06066 
C -0.77937 1.341951 -0.397805 1.5 0 1.5 
z
" id="m4a5e5547ce" style="stroke:#ff7500;"/>
    </defs>
    <g>
     <use style="fill:#ff7500;stroke:#ff7500;" x="158.358103" xlink:href="#m4a5e5547ce" y="30.334099"/>
     <use style="fill:#ff7500;stroke:#ff7500;" x="158.358103" xlink:href="#m4a5e5547ce" y="30.334099"/>
    </g>
   </g>
   <g id="line2d_52">
    <path d="M 112.779064 298.944 
L 112.779064 298.417314 
L 121.036887 298.417314 
L 121.036887 297.890628 
L 121.931406 297.890628 
L 121.931406 296.837256 
L 122.503236 296.837256 
L 122.503236 295.783884 
L 123.192626 295.783884 
L 123.192626 294.730511 
L 123.593547 294.730511 
L 123.593547 294.203825 
L 124.743806 294.203825 
L 124.743806 293.677139 
L 125.938745 293.677139 
L 125.938745 292.623767 
L 126.168212 292.623767 
L 126.168212 292.097081 
L 127.05703 292.097081 
L 127.05703 291.570395 
L 127.799239 291.570395 
L 127.799239 290.517023 
L 128.005624 290.517023 
L 128.107907 288.410278 
L 128.209594 288.410278 
L 128.209594 287.883592 
L 128.610515 287.883592 
L 128.709321 285.776848 
L 128.905271 285.776848 
L 128.905271 285.250162 
L 129.385722 285.250162 
L 129.385722 284.723476 
L 129.667765 284.723476 
L 129.667765 283.670104 
L 130.036864 283.670104 
L 130.036864 283.143418 
L 130.576266 283.143418 
L 130.664567 281.036673 
L 131.439773 281.036673 
L 131.439773 280.509987 
L 131.856005 280.509987 
L 131.856005 279.983301 
L 132.019755 279.983301 
L 132.101058 277.349871 
L 132.181982 277.349871 
L 132.181982 275.243126 
L 132.342714 275.243126 
L 132.342714 274.71644 
L 132.581068 274.71644 
L 132.581068 274.189754 
L 132.73818 274.189754 
L 132.73818 273.663068 
L 133.124876 273.663068 
L 133.201197 272.609696 
L 133.352844 272.609696 
L 133.428175 271.556324 
L 134.019394 271.556324 
L 134.019394 268.396207 
L 134.307653 268.396207 
L 134.37898 267.342835 
L 134.800918 267.342835 
L 134.800918 266.816149 
L 135.280614 266.816149 
L 135.280614 266.289463 
L 135.548916 266.289463 
L 135.548916 265.762777 
L 135.813153 265.762777 
L 135.813153 264.709405 
L 136.073445 264.709405 
L 136.073445 264.182719 
L 136.645276 264.182719 
L 136.707671 262.60266 
L 136.955041 262.60266 
L 137.016339 261.549288 
L 137.138292 261.549288 
L 137.138292 261.022602 
L 137.259399 261.022602 
L 137.259399 259.96923 
L 137.735587 259.96923 
L 137.735587 259.442544 
L 138.369812 259.442544 
L 138.369812 258.389172 
L 138.816998 258.389172 
L 138.927025 257.3358 
L 139.036363 257.3358 
L 139.036363 256.809114 
L 139.466984 256.809114 
L 139.520072 255.229055 
L 139.887228 255.229055 
L 139.887228 254.702369 
L 140.195896 254.702369 
L 140.195896 254.175683 
L 140.39868 254.175683 
L 140.44901 252.068939 
L 140.599134 252.068939 
L 140.599134 251.015567 
L 140.747977 251.015567 
L 140.747977 249.962195 
L 141.041904 249.962195 
L 141.041904 249.435508 
L 141.235139 249.435508 
L 141.235139 248.908822 
L 141.378673 248.908822 
L 141.47371 246.802078 
L 141.521035 246.802078 
L 141.521035 245.748706 
L 141.662245 245.748706 
L 141.662245 245.22202 
L 141.895083 245.22202 
L 141.941279 243.115275 
L 142.306513 243.115275 
L 142.351634 242.061903 
L 142.575505 242.061903 
L 142.664255 240.481845 
L 142.884173 240.481845 
L 142.971369 238.375101 
L 143.058132 238.375101 
L 143.058132 236.268356 
L 143.230373 236.268356 
L 143.230373 235.74167 
L 143.358447 235.74167 
L 143.40093 234.688298 
L 143.569835 234.688298 
L 143.569835 234.161612 
L 143.902815 234.161612 
L 143.943994 233.10824 
L 144.107744 233.10824 
L 144.189046 230.47481 
L 144.229555 230.47481 
L 144.229555 229.948123 
L 144.350522 229.948123 
L 144.430703 228.368065 
L 144.629556 228.368065 
L 144.669057 226.788007 
L 144.787023 226.788007 
L 144.865226 224.681263 
L 145.020588 224.681263 
L 145.097753 221.521146 
L 145.136208 221.521146 
L 145.136208 220.99446 
L 145.251067 220.99446 
L 145.289185 218.36103 
L 145.440832 218.36103 
L 145.516164 212.040797 
L 145.553708 212.040797 
L 145.553708 209.934052 
L 145.665858 209.934052 
L 145.740226 207.300622 
L 145.777292 207.300622 
L 145.814278 205.193878 
L 146.034567 205.193878 
L 146.071013 201.507075 
L 146.252108 201.507075 
L 146.324022 196.240214 
L 146.395642 196.240214 
L 146.395642 195.186842 
L 146.538004 195.186842 
L 146.573414 193.080098 
L 146.714338 193.080098 
L 146.784375 191.50004 
L 146.888907 191.50004 
L 146.992815 187.286551 
L 147.061745 187.286551 
L 147.130404 185.179807 
L 147.266916 185.179807 
L 147.300877 183.599748 
L 147.436066 183.599748 
L 147.536775 180.966318 
L 147.769524 180.966318 
L 147.802521 178.859574 
L 147.901141 178.859574 
L 147.901141 178.332888 
L 148.031773 178.332888 
L 148.129109 176.226143 
L 148.161434 176.226143 
L 148.258051 170.432596 
L 148.354135 170.432596 
L 148.449693 167.27248 
L 148.48143 167.27248 
L 148.513109 165.692422 
L 148.639252 165.692422 
L 148.670646 163.058991 
L 148.79566 163.058991 
L 148.826773 160.952247 
L 148.950676 160.952247 
L 148.981515 159.372189 
L 149.073705 159.372189 
L 149.073705 158.845503 
L 149.195872 158.845503 
L 149.286939 154.105328 
L 149.377533 154.105328 
L 149.467659 151.471897 
L 149.527485 151.471897 
L 149.616841 148.311781 
L 149.646525 148.311781 
L 149.705742 145.678351 
L 149.764758 145.678351 
L 149.823575 144.624978 
L 149.882194 144.624978 
L 149.969756 141.991548 
L 150.027887 141.991548 
L 150.085825 140.938176 
L 150.143571 140.938176 
L 150.201126 139.884804 
L 150.258492 139.884804 
L 150.31567 136.198001 
L 150.372662 136.198001 
L 150.429467 134.617943 
L 150.486088 134.617943 
L 150.570677 132.511199 
L 150.598782 132.511199 
L 150.682827 127.771024 
L 150.79426 127.771024 
L 150.904986 123.557535 
L 150.960087 123.557535 
L 151.069768 120.924105 
L 151.287083 120.924105 
L 151.394733 116.18393 
L 151.421542 116.18393 
L 151.528368 110.917069 
L 151.554972 110.917069 
L 151.660987 107.230267 
L 151.68739 107.230267 
L 151.792604 102.490092 
L 151.844975 102.490092 
L 151.844975 100.910034 
L 152.027042 100.910034 
L 152.130233 95.643173 
L 152.232818 95.643173 
L 152.334802 91.95637 
L 152.385571 91.95637 
L 152.410901 90.376312 
L 152.562109 90.376312 
L 152.612222 87.742882 
L 152.835965 87.742882 
L 152.934492 82.476021 
L 152.983548 82.476021 
L 153.081247 78.789218 
L 153.105587 78.789218 
L 153.154164 75.629102 
L 153.250915 75.629102 
L 153.275019 70.362241 
L 153.49047 70.362241 
L 153.585377 66.675439 
L 153.632638 66.675439 
L 153.726778 62.46195 
L 153.750233 62.46195 
L 153.820412 61.408578 
L 153.890309 61.408578 
L 153.890309 60.881892 
L 154.006185 60.881892 
L 154.075343 58.775147 
L 154.19 58.775147 
L 154.258434 57.721775 
L 154.371897 57.721775 
L 154.46214 55.615031 
L 154.529516 55.615031 
L 154.57429 54.034973 
L 154.796449 54.034973 
L 154.862549 52.454914 
L 154.972161 52.454914 
L 154.994001 49.821484 
L 155.146121 49.821484 
L 155.253971 47.71474 
L 155.318362 47.71474 
L 155.425155 45.607995 
L 155.446436 45.607995 
L 155.55245 41.394507 
L 155.741666 41.394507 
L 155.741666 40.341135 
L 156.175347 40.341135 
L 156.277034 37.181018 
L 156.378132 37.181018 
L 156.418408 34.547588 
L 157.262567 34.547588 
L 157.300853 32.967529 
L 157.566527 32.967529 
L 157.566527 32.440843 
L 157.809652 32.440843 
L 157.809652 30.860785 
L 158.358103 30.860785 
L 158.358103 30.334099 
L 338.688 30.334099 
L 338.688 30.334099 
" style="fill:none;stroke:#ff7500;stroke-linecap:square;stroke-width:1.5;"/>
   </g>
   <g id="line2d_53">
    <defs>
     <path d="M 0 -6 
L -1.347084 -1.854102 
L -5.706339 -1.854102 
L -2.179628 0.708204 
L -3.526712 4.854102 
L -0 2.291796 
L 3.526712 4.854102 
L 2.179628 0.708204 
L 5.706339 -1.854102 
L 1.347084 -1.854102 
z
" id="m596e03b0f7" style="stroke:#ff7500;stroke-linejoin:bevel;stroke-width:1.5;"/>
    </defs>
    <g>
     <use style="fill-opacity:0;stroke:#ff7500;stroke-linejoin:bevel;stroke-width:1.5;" x="152.232818" xlink:href="#m596e03b0f7" y="95.643173"/>
     <use style="fill-opacity:0;stroke:#ff7500;stroke-linejoin:bevel;stroke-width:1.5;" x="158.358103" xlink:href="#m596e03b0f7" y="30.860785"/>
     <use style="fill-opacity:0;stroke:#ff7500;stroke-linejoin:bevel;stroke-width:1.5;" x="158.358103" xlink:href="#m596e03b0f7" y="30.334099"/>
     <use style="fill-opacity:0;stroke:#ff7500;stroke-linejoin:bevel;stroke-width:1.5;" x="158.358103" xlink:href="#m596e03b0f7" y="30.334099"/>
     <use style="fill-opacity:0;stroke:#ff7500;stroke-linejoin:bevel;stroke-width:1.5;" x="338.688" xlink:href="#m596e03b0f7" y="30.334099"/>
    </g>
   </g>
   <g id="line2d_54">
    <path style="fill:none;stroke:#ff7500;stroke-linecap:square;stroke-width:1.5;"/>
    <g/>
   </g>
   <g id="line2d_55">
    <path d="M 338.688 30.334099 
L 369.60768 293.571802 
" style="fill:none;stroke:#ff00ff;stroke-linecap:square;stroke-width:1.5;"/>
    <g>
     <use style="fill-opacity:0;stroke:#ff00ff;stroke-linejoin:miter;stroke-width:1.5;" x="338.688" xlink:href="#me102dff2e2" y="30.334099"/>
     <use style="fill-opacity:0;stroke:#ff00ff;stroke-linejoin:miter;stroke-width:1.5;" x="369.60768" xlink:href="#me102dff2e2" y="293.571802"/>
    </g>
   </g>
   <g id="line2d_56">
    <path d="M 338.688 30.334099 
L 369.60768 241.998701 
" style="fill:none;stroke:#ff0000;stroke-linecap:square;stroke-width:1.5;"/>
    <g>
     <use style="fill-opacity:0;stroke:#ff0000;stroke-linejoin:miter;stroke-width:1.5;" x="338.688" xlink:href="#mda2eacd710" y="30.334099"/>
     <use style="fill-opacity:0;stroke:#ff0000;stroke-linejoin:miter;stroke-width:1.5;" x="369.60768" xlink:href="#mda2eacd710" y="241.998701"/>
    </g>
   </g>
   <g id="line2d_57">
    <path d="M 338.688 30.334099 
L 369.60768 190.4256 
" style="fill:none;stroke:#ff7500;stroke-linecap:square;stroke-width:1.5;"/>
    <g>
     <use style="fill-opacity:0;stroke:#ff7500;stroke-linejoin:bevel;stroke-width:1.5;" x="338.688" xlink:href="#m596e03b0f7" y="30.334099"/>
     <use style="fill-opacity:0;stroke:#ff7500;stroke-linejoin:bevel;stroke-width:1.5;" x="369.60768" xlink:href="#m596e03b0f7" y="190.4256"/>
    </g>
   </g>
   <g id="line2d_58">
    <path d="M 338.688 30.334099 
L 369.60768 138.852499 
" style="fill:none;stroke:#000080;stroke-linecap:square;stroke-width:1.5;"/>
    <g>
     <use style="fill-opacity:0;stroke:#000080;stroke-width:1.5;" x="338.688" xlink:href="#mc929681369" y="30.334099"/>
     <use style="fill-opacity:0;stroke:#000080;stroke-width:1.5;" x="369.60768" xlink:href="#mc929681369" y="138.852499"/>
    </g>
   </g>
   <g id="line2d_59">
    <path d="M 338.688 30.334099 
L 369.60768 87.279398 
" style="fill:none;stroke:#000080;stroke-linecap:square;stroke-width:1.5;"/>
    <g>
     <use style="fill-opacity:0;stroke:#000080;stroke-width:1.5;" x="338.688" xlink:href="#mc929681369" y="30.334099"/>
     <use style="fill-opacity:0;stroke:#000080;stroke-width:1.5;" x="369.60768" xlink:href="#mc929681369" y="87.279398"/>
    </g>
   </g>
   <g id="line2d_60">
    <path d="M 338.688 298.944 
L 338.688 30.334099 
" style="fill:none;stroke:#000000;stroke-linecap:square;stroke-width:1.5;"/>
   </g>
   <g id="patch_3">
    <path d="M 57.6 298.944 
L 57.6 27.648 
" style="fill:none;stroke:#000000;stroke-linecap:square;stroke-linejoin:miter;stroke-width:0.8;"/>
   </g>
   <g id="patch_4">
    <path d="M 338.688 298.944 
L 338.688 27.648 
" style="fill:none;stroke:#000000;stroke-linecap:square;stroke-linejoin:miter;stroke-width:0.8;"/>
   </g>
   <g id="patch_5">
    <path d="M 57.6 298.944 
L 338.688 298.944 
" style="fill:none;stroke:#000000;stroke-linecap:square;stroke-linejoin:miter;stroke-width:0.8;"/>
   </g>
   <g id="patch_6">
    <path d="M 57.6 27.648 
L 338.688 27.648 
" style="fill:none;stroke:#000000;stroke-linecap:square;stroke-linejoin:miter;stroke-width:0.8;"/>
   </g>
   <g id="text_13">
    <!-- 400s-2e4 -->
    <g transform="translate(375.22944 298.262739)scale(0.17 -0.17)">
     <use xlink:href="#DejaVuSans-52"/>
     <use x="63.623047" xlink:href="#DejaVuSans-48"/>
     <use x="127.246094" xlink:href="#DejaVuSans-48"/>
     <use x="190.869141" xlink:href="#DejaVuSans-115"/>
     <use x="242.96875" xlink:href="#DejaVuSans-45"/>
     <use x="279.052734" xlink:href="#DejaVuSans-50"/>
     <use x="342.675781" xlink:href="#DejaVuSans-101"/>
     <use x="404.199219" xlink:href="#DejaVuSans-52"/>
    </g>
   </g>
   <g id="text_14">
    <!-- 200s-2e4 -->
    <g transform="translate(375.22944 246.689638)scale(0.17 -0.17)">
     <use xlink:href="#DejaVuSans-50"/>
     <use x="63.623047" xlink:href="#DejaVuSans-48"/>
     <use x="127.246094" xlink:href="#DejaVuSans-48"/>
     <use x="190.869141" xlink:href="#DejaVuSans-115"/>
     <use x="242.96875" xlink:href="#DejaVuSans-45"/>
     <use x="279.052734" xlink:href="#DejaVuSans-50"/>
     <use x="342.675781" xlink:href="#DejaVuSans-101"/>
     <use x="404.199219" xlink:href="#DejaVuSans-52"/>
    </g>
   </g>
   <g id="text_15">
    <!-- 140s-2e4 -->
    <g transform="translate(375.22944 195.116537)scale(0.17 -0.17)">
     <use xlink:href="#DejaVuSans-49"/>
     <use x="63.623047" xlink:href="#DejaVuSans-52"/>
     <use x="127.246094" xlink:href="#DejaVuSans-48"/>
     <use x="190.869141" xlink:href="#DejaVuSans-115"/>
     <use x="242.96875" xlink:href="#DejaVuSans-45"/>
     <use x="279.052734" xlink:href="#DejaVuSans-50"/>
     <use x="342.675781" xlink:href="#DejaVuSans-101"/>
     <use x="404.199219" xlink:href="#DejaVuSans-52"/>
    </g>
   </g>
   <g id="text_16">
    <!-- 100-2e4 -->
    <g transform="translate(375.22944 143.543437)scale(0.17 -0.17)">
     <use xlink:href="#DejaVuSans-49"/>
     <use x="63.623047" xlink:href="#DejaVuSans-48"/>
     <use x="127.246094" xlink:href="#DejaVuSans-48"/>
     <use x="190.869141" xlink:href="#DejaVuSans-45"/>
     <use x="226.953125" xlink:href="#DejaVuSans-50"/>
     <use x="290.576172" xlink:href="#DejaVuSans-101"/>
     <use x="352.099609" xlink:href="#DejaVuSans-52"/>
    </g>
   </g>
   <g id="text_17">
    <!-- 100-1e5 -->
    <defs>
     <path d="M 10.796875 72.90625 
L 49.515625 72.90625 
L 49.515625 64.59375 
L 19.828125 64.59375 
L 19.828125 46.734375 
Q 21.96875 47.46875 24.109375 47.828125 
Q 26.265625 48.1875 28.421875 48.1875 
Q 40.625 48.1875 47.75 41.5 
Q 54.890625 34.8125 54.890625 23.390625 
Q 54.890625 11.625 47.5625 5.09375 
Q 40.234375 -1.421875 26.90625 -1.421875 
Q 22.3125 -1.421875 17.546875 -0.640625 
Q 12.796875 0.140625 7.71875 1.703125 
L 7.71875 11.625 
Q 12.109375 9.234375 16.796875 8.0625 
Q 21.484375 6.890625 26.703125 6.890625 
Q 35.15625 6.890625 40.078125 11.328125 
Q 45.015625 15.765625 45.015625 23.390625 
Q 45.015625 31 40.078125 35.4375 
Q 35.15625 39.890625 26.703125 39.890625 
Q 22.75 39.890625 18.8125 39.015625 
Q 14.890625 38.140625 10.796875 36.28125 
z
" id="DejaVuSans-53"/>
    </defs>
    <g transform="translate(375.22944 91.970336)scale(0.17 -0.17)">
     <use xlink:href="#DejaVuSans-49"/>
     <use x="63.623047" xlink:href="#DejaVuSans-48"/>
     <use x="127.246094" xlink:href="#DejaVuSans-48"/>
     <use x="190.869141" xlink:href="#DejaVuSans-45"/>
     <use x="226.953125" xlink:href="#DejaVuSans-49"/>
     <use x="290.576172" xlink:href="#DejaVuSans-101"/>
     <use x="352.099609" xlink:href="#DejaVuSans-53"/>
    </g>
   </g>
   <g id="text_18">
    <!-- best 2009 -->
    <defs>
     <path d="M 48.6875 27.296875 
Q 48.6875 37.203125 44.609375 42.84375 
Q 40.53125 48.484375 33.40625 48.484375 
Q 26.265625 48.484375 22.1875 42.84375 
Q 18.109375 37.203125 18.109375 27.296875 
Q 18.109375 17.390625 22.1875 11.75 
Q 26.265625 6.109375 33.40625 6.109375 
Q 40.53125 6.109375 44.609375 11.75 
Q 48.6875 17.390625 48.6875 27.296875 
z
M 18.109375 46.390625 
Q 20.953125 51.265625 25.265625 53.625 
Q 29.59375 56 35.59375 56 
Q 45.5625 56 51.78125 48.09375 
Q 58.015625 40.1875 58.015625 27.296875 
Q 58.015625 14.40625 51.78125 6.484375 
Q 45.5625 -1.421875 35.59375 -1.421875 
Q 29.59375 -1.421875 25.265625 0.953125 
Q 20.953125 3.328125 18.109375 8.203125 
L 18.109375 0 
L 9.078125 0 
L 9.078125 75.984375 
L 18.109375 75.984375 
z
" id="DejaVuSans-98"/>
     <path d="M 10.984375 1.515625 
L 10.984375 10.5 
Q 14.703125 8.734375 18.5 7.8125 
Q 22.3125 6.890625 25.984375 6.890625 
Q 35.75 6.890625 40.890625 13.453125 
Q 46.046875 20.015625 46.78125 33.40625 
Q 43.953125 29.203125 39.59375 26.953125 
Q 35.25 24.703125 29.984375 24.703125 
Q 19.046875 24.703125 12.671875 31.3125 
Q 6.296875 37.9375 6.296875 49.421875 
Q 6.296875 60.640625 12.9375 67.421875 
Q 19.578125 74.21875 30.609375 74.21875 
Q 43.265625 74.21875 49.921875 64.515625 
Q 56.59375 54.828125 56.59375 36.375 
Q 56.59375 19.140625 48.40625 8.859375 
Q 40.234375 -1.421875 26.421875 -1.421875 
Q 22.703125 -1.421875 18.890625 -0.6875 
Q 15.09375 0.046875 10.984375 1.515625 
z
M 30.609375 32.421875 
Q 37.25 32.421875 41.125 36.953125 
Q 45.015625 41.5 45.015625 49.421875 
Q 45.015625 57.28125 41.125 61.84375 
Q 37.25 66.40625 30.609375 66.40625 
Q 23.96875 66.40625 20.09375 61.84375 
Q 16.21875 57.28125 16.21875 49.421875 
Q 16.21875 41.5 20.09375 36.953125 
Q 23.96875 32.421875 30.609375 32.421875 
z
" id="DejaVuSans-57"/>
    </defs>
    <g transform="translate(375.22944 40.397235)scale(0.17 -0.17)">
     <use xlink:href="#DejaVuSans-98"/>
     <use x="63.476562" xlink:href="#DejaVuSans-101"/>
     <use x="125" xlink:href="#DejaVuSans-115"/>
     <use x="177.099609" xlink:href="#DejaVuSans-116"/>
     <use x="216.308594" xlink:href="#DejaVuSans-32"/>
     <use x="248.095703" xlink:href="#DejaVuSans-50"/>
     <use x="311.71875" xlink:href="#DejaVuSans-48"/>
     <use x="375.341797" xlink:href="#DejaVuSans-48"/>
     <use x="438.964844" xlink:href="#DejaVuSans-57"/>
    </g>
   </g>
   <g id="text_19">
    <!-- bbob f2, 3-D -->
    <defs>
     <path d="M 40.578125 39.3125 
Q 47.65625 37.796875 51.625 33 
Q 55.609375 28.21875 55.609375 21.1875 
Q 55.609375 10.40625 48.1875 4.484375 
Q 40.765625 -1.421875 27.09375 -1.421875 
Q 22.515625 -1.421875 17.65625 -0.515625 
Q 12.796875 0.390625 7.625 2.203125 
L 7.625 11.71875 
Q 11.71875 9.328125 16.59375 8.109375 
Q 21.484375 6.890625 26.8125 6.890625 
Q 36.078125 6.890625 40.9375 10.546875 
Q 45.796875 14.203125 45.796875 21.1875 
Q 45.796875 27.640625 41.28125 31.265625 
Q 36.765625 34.90625 28.71875 34.90625 
L 20.21875 34.90625 
L 20.21875 43.015625 
L 29.109375 43.015625 
Q 36.375 43.015625 40.234375 45.921875 
Q 44.09375 48.828125 44.09375 54.296875 
Q 44.09375 59.90625 40.109375 62.90625 
Q 36.140625 65.921875 28.71875 65.921875 
Q 24.65625 65.921875 20.015625 65.03125 
Q 15.375 64.15625 9.8125 62.3125 
L 9.8125 71.09375 
Q 15.4375 72.65625 20.34375 73.4375 
Q 25.25 74.21875 29.59375 74.21875 
Q 40.828125 74.21875 47.359375 69.109375 
Q 53.90625 64.015625 53.90625 55.328125 
Q 53.90625 49.265625 50.4375 45.09375 
Q 46.96875 40.921875 40.578125 39.3125 
z
" id="DejaVuSans-51"/>
     <path d="M 19.671875 64.796875 
L 19.671875 8.109375 
L 31.59375 8.109375 
Q 46.6875 8.109375 53.6875 14.9375 
Q 60.6875 21.78125 60.6875 36.53125 
Q 60.6875 51.171875 53.6875 57.984375 
Q 46.6875 64.796875 31.59375 64.796875 
z
M 9.8125 72.90625 
L 30.078125 72.90625 
Q 51.265625 72.90625 61.171875 64.09375 
Q 71.09375 55.28125 71.09375 36.53125 
Q 71.09375 17.671875 61.125 8.828125 
Q 51.171875 0 30.078125 0 
L 9.8125 0 
z
" id="DejaVuSans-68"/>
    </defs>
    <g transform="translate(60.41088 38.111366)scale(0.102 -0.102)">
     <use xlink:href="#DejaVuSans-98"/>
     <use x="63.476562" xlink:href="#DejaVuSans-98"/>
     <use x="126.953125" xlink:href="#DejaVuSans-111"/>
     <use x="188.134766" xlink:href="#DejaVuSans-98"/>
     <use x="251.611328" xlink:href="#DejaVuSans-32"/>
     <use x="283.398438" xlink:href="#DejaVuSans-102"/>
     <use x="318.603516" xlink:href="#DejaVuSans-50"/>
     <use x="382.226562" xlink:href="#DejaVuSans-44"/>
     <use x="414.013672" xlink:href="#DejaVuSans-32"/>
     <use x="445.800781" xlink:href="#DejaVuSans-51"/>
     <use x="509.423828" xlink:href="#DejaVuSans-45"/>
     <use x="545.507812" xlink:href="#DejaVuSans-68"/>
    </g>
    <!-- 51 targets: 100..1e-08 -->
    <defs>
     <path d="M 11.71875 12.40625 
L 22.015625 12.40625 
L 22.015625 0 
L 11.71875 0 
z
M 11.71875 51.703125 
L 22.015625 51.703125 
L 22.015625 39.3125 
L 11.71875 39.3125 
z
" id="DejaVuSans-58"/>
    </defs>
    <g transform="translate(60.41088 49.533135)scale(0.102 -0.102)">
     <use xlink:href="#DejaVuSans-53"/>
     <use x="63.623047" xlink:href="#DejaVuSans-49"/>
     <use x="127.246094" xlink:href="#DejaVuSans-32"/>
     <use x="159.033203" xlink:href="#DejaVuSans-116"/>
     <use x="198.242188" xlink:href="#DejaVuSans-97"/>
     <use x="259.521484" xlink:href="#DejaVuSans-114"/>
     <use x="300.619141" xlink:href="#DejaVuSans-103"/>
     <use x="364.095703" xlink:href="#DejaVuSans-101"/>
     <use x="425.619141" xlink:href="#DejaVuSans-116"/>
     <use x="464.828125" xlink:href="#DejaVuSans-115"/>
     <use x="516.927734" xlink:href="#DejaVuSans-58"/>
     <use x="550.619141" xlink:href="#DejaVuSans-32"/>
     <use x="582.40625" xlink:href="#DejaVuSans-49"/>
     <use x="646.029297" xlink:href="#DejaVuSans-48"/>
     <use x="709.652344" xlink:href="#DejaVuSans-48"/>
     <use x="773.275391" xlink:href="#DejaVuSans-46"/>
     <use x="805.0625" xlink:href="#DejaVuSans-46"/>
     <use x="836.849609" xlink:href="#DejaVuSans-49"/>
     <use x="900.472656" xlink:href="#DejaVuSans-101"/>
     <use x="961.996094" xlink:href="#DejaVuSans-45"/>
     <use x="998.080078" xlink:href="#DejaVuSans-48"/>
     <use x="1061.703125" xlink:href="#DejaVuSans-56"/>
    </g>
    <!-- 15 instances -->
    <g transform="translate(60.41088 60.954904)scale(0.102 -0.102)">
     <use xlink:href="#DejaVuSans-49"/>
     <use x="63.623047" xlink:href="#DejaVuSans-53"/>
     <use x="127.246094" xlink:href="#DejaVuSans-32"/>
     <use x="159.033203" xlink:href="#DejaVuSans-105"/>
     <use x="186.816406" xlink:href="#DejaVuSans-110"/>
     <use x="250.195312" xlink:href="#DejaVuSans-115"/>
     <use x="302.294922" xlink:href="#DejaVuSans-116"/>
     <use x="341.503906" xlink:href="#DejaVuSans-97"/>
     <use x="402.783203" xlink:href="#DejaVuSans-110"/>
     <use x="466.162109" xlink:href="#DejaVuSans-99"/>
     <use x="521.142578" xlink:href="#DejaVuSans-101"/>
     <use x="582.666016" xlink:href="#DejaVuSans-115"/>
    </g>
   </g>
   <g id="text_20">
    <!-- v2.3.3.18.73 -->
    <defs>
     <path d="M 8.203125 72.90625 
L 55.078125 72.90625 
L 55.078125 68.703125 
L 28.609375 0 
L 18.3125 0 
L 43.21875 64.59375 
L 8.203125 64.59375 
z
" id="DejaVuSans-55"/>
    </defs>
    <g style="fill:#808080;" transform="translate(166.559625 294.151352)scale(0.1 -0.1)">
     <use xlink:href="#DejaVuSans-118"/>
     <use x="59.179688" xlink:href="#DejaVuSans-50"/>
     <use x="122.802734" xlink:href="#DejaVuSans-46"/>
     <use x="154.589844" xlink:href="#DejaVuSans-51"/>
     <use x="218.212891" xlink:href="#DejaVuSans-46"/>
     <use x="250" xlink:href="#DejaVuSans-51"/>
     <use x="313.623047" xlink:href="#DejaVuSans-46"/>
     <use x="345.410156" xlink:href="#DejaVuSans-49"/>
     <use x="409.033203" xlink:href="#DejaVuSans-56"/>
     <use x="472.65625" xlink:href="#DejaVuSans-46"/>
     <use x="504.443359" xlink:href="#DejaVuSans-55"/>
     <use x="568.066406" xlink:href="#DejaVuSans-51"/>
    </g>
   </g>
   <g id="text_21">
    <!-- 2 Ellipsoid separable -->
    <defs>
     <path d="M 9.8125 72.90625 
L 55.90625 72.90625 
L 55.90625 64.59375 
L 19.671875 64.59375 
L 19.671875 43.015625 
L 54.390625 43.015625 
L 54.390625 34.71875 
L 19.671875 34.71875 
L 19.671875 8.296875 
L 56.78125 8.296875 
L 56.78125 0 
L 9.8125 0 
z
" id="DejaVuSans-69"/>
    </defs>
    <g transform="translate(94.611187 21.648)scale(0.2 -0.2)">
     <use xlink:href="#DejaVuSans-50"/>
     <use x="63.623047" xlink:href="#DejaVuSans-32"/>
     <use x="95.410156" xlink:href="#DejaVuSans-69"/>
     <use x="158.59375" xlink:href="#DejaVuSans-108"/>
     <use x="186.376953" xlink:href="#DejaVuSans-108"/>
     <use x="214.160156" xlink:href="#DejaVuSans-105"/>
     <use x="241.943359" xlink:href="#DejaVuSans-112"/>
     <use x="305.419922" xlink:href="#DejaVuSans-115"/>
     <use x="357.519531" xlink:href="#DejaVuSans-111"/>
     <use x="418.701172" xlink:href="#DejaVuSans-105"/>
     <use x="446.484375" xlink:href="#DejaVuSans-100"/>
     <use x="509.960938" xlink:href="#DejaVuSans-32"/>
     <use x="541.748047" xlink:href="#DejaVuSans-115"/>
     <use x="593.847656" xlink:href="#DejaVuSans-101"/>
     <use x="655.371094" xlink:href="#DejaVuSans-112"/>
     <use x="718.847656" xlink:href="#DejaVuSans-97"/>
     <use x="780.126953" xlink:href="#DejaVuSans-114"/>
     <use x="821.240234" xlink:href="#DejaVuSans-97"/>
     <use x="882.519531" xlink:href="#DejaVuSans-98"/>
     <use x="945.996094" xlink:href="#DejaVuSans-108"/>
     <use x="973.779297" xlink:href="#DejaVuSans-101"/>
    </g>
   </g>
  </g>
 </g>
 <defs>
  <clipPath id="p80550a9a04">
   <rect height="271.296" width="281.088" x="57.6" y="27.648"/>
  </clipPath>
 </defs>
</svg>
