<?xml version="1.0" encoding="utf-8" standalone="no"?>
<!DOCTYPE svg PUBLIC "-//W3C//DTD SVG 1.1//EN"
  "http://www.w3.org/Graphics/SVG/1.1/DTD/svg11.dtd">
<!-- Created with matplotlib (https://matplotlib.org/) -->
<svg height="345.6pt" version="1.1" viewBox="0 0 460.8 345.6" width="460.8pt" xmlns="http://www.w3.org/2000/svg" xmlns:xlink="http://www.w3.org/1999/xlink">
 <defs>
  <style type="text/css">
*{stroke-linecap:butt;stroke-linejoin:round;}
  </style>
 </defs>
 <g id="figure_1">
  <g id="patch_1">
   <path d="M 0 345.6 
L 460.8 345.6 
L 460.8 0 
L 0 0 
z
" style="fill:#ffffff;"/>
  </g>
  <g id="axes_1">
   <g id="patch_2">
    <path d="M 57.6 298.944 
L 338.688 298.944 
L 338.688 27.648 
L 57.6 27.648 
z
" style="fill:#ffffff;"/>
   </g>
   <g id="line2d_1">
    <path d="M 79.694655 298.944 
L 79.694655 293.677139 
L 80.416384 293.677139 
L 80.416384 288.410278 
L 80.650472 288.410278 
L 80.650472 283.143418 
L 81.334453 283.143418 
L 81.334453 277.876557 
L 81.775977 277.876557 
L 81.775977 272.609696 
L 82.206598 272.609696 
L 82.206598 267.342835 
L 83.037197 267.342835 
L 83.037197 262.075974 
L 85.840967 262.075974 
L 85.840967 256.809114 
L 101.646892 256.809114 
L 101.646892 251.542253 
L 142.051655 251.542253 
L 142.051655 246.275392 
L 192.648397 246.275392 
L 192.648397 241.008531 
L 215.365534 241.008531 
L 215.365534 235.74167 
L 247.73941 235.74167 
L 247.73941 230.47481 
L 259.451274 230.47481 
L 259.451274 225.207949 
L 262.755012 225.207949 
L 262.755012 219.941088 
L 266.01376 219.941088 
L 266.01376 214.674227 
L 266.119954 214.674227 
L 266.119954 209.407366 
L 275.99162 209.407366 
L 275.99162 204.140506 
L 276.045527 204.140506 
L 276.045527 198.873645 
L 276.064041 198.873645 
L 276.064041 193.606784 
L 276.077603 193.606784 
L 276.077603 188.339923 
L 276.094391 188.339923 
L 276.094391 183.073062 
L 276.11156 183.073062 
L 276.11156 177.806202 
L 276.125914 177.806202 
L 276.125914 172.539341 
L 276.139346 172.539341 
L 276.139346 167.27248 
L 276.154923 167.27248 
L 276.154923 162.005619 
L 276.169616 162.005619 
L 276.169616 156.738758 
L 276.185822 156.738758 
L 276.185822 151.471897 
L 276.199851 151.471897 
L 276.199851 146.205037 
L 276.218488 146.205037 
L 276.218488 140.938176 
L 276.229631 140.938176 
L 276.229631 135.671315 
L 276.243929 135.671315 
L 276.243929 130.404454 
L 276.257574 130.404454 
L 276.257574 125.137593 
L 276.272561 125.137593 
L 276.272561 119.870733 
L 276.286128 119.870733 
L 276.286128 114.603872 
L 276.304042 114.603872 
L 276.304042 109.337011 
L 276.317702 109.337011 
L 276.317702 104.07015 
L 276.332567 104.07015 
L 276.332567 98.803289 
L 276.34754 98.803289 
L 276.34754 93.536429 
L 276.358803 93.536429 
L 276.358803 88.269568 
L 276.373117 88.269568 
L 276.373117 83.002707 
L 276.387328 83.002707 
L 276.387328 77.735846 
L 276.399273 77.735846 
L 276.399273 72.468985 
L 276.417537 72.468985 
L 276.417537 67.202125 
L 276.431242 67.202125 
L 276.431242 61.935264 
L 276.444246 61.935264 
L 276.444246 56.668403 
L 276.459602 56.668403 
L 276.459602 51.401542 
L 276.473565 51.401542 
L 276.473565 46.134681 
L 276.49009 46.134681 
L 276.49009 40.867821 
L 276.502002 40.867821 
L 276.502002 35.60096 
L 276.516938 35.60096 
L 276.516938 30.334099 
L 338.688 30.334099 
" style="fill:none;stroke:#f5deb3;stroke-linecap:square;stroke-width:4;"/>
   </g>
   <g id="line2d_2">
    <defs>
     <path d="M -0 7.778175 
L 7.778175 0 
L 0 -7.778175 
L -7.778175 -0 
z
" id="m942c8dc1bd" style="stroke:#f5deb3;stroke-linejoin:miter;stroke-width:1.5;"/>
    </defs>
    <g>
     <use style="fill:#f5deb3;stroke:#f5deb3;stroke-linejoin:miter;stroke-width:1.5;" x="142.051655" xlink:href="#m942c8dc1bd" y="246.275392"/>
     <use style="fill:#f5deb3;stroke:#f5deb3;stroke-linejoin:miter;stroke-width:1.5;" x="276.229631" xlink:href="#m942c8dc1bd" y="135.671315"/>
     <use style="fill:#f5deb3;stroke:#f5deb3;stroke-linejoin:miter;stroke-width:1.5;" x="276.516938" xlink:href="#m942c8dc1bd" y="30.334099"/>
     <use style="fill:#f5deb3;stroke:#f5deb3;stroke-linejoin:miter;stroke-width:1.5;" x="276.516938" xlink:href="#m942c8dc1bd" y="30.334099"/>
     <use style="fill:#f5deb3;stroke:#f5deb3;stroke-linejoin:miter;stroke-width:1.5;" x="338.688" xlink:href="#m942c8dc1bd" y="30.334099"/>
    </g>
   </g>
   <g id="line2d_3">
    <path style="fill:none;stroke:#f5deb3;stroke-linecap:square;stroke-width:4;"/>
    <g/>
   </g>
   <g id="line2d_4">
    <path d="M 338.688 30.334099 
L 369.60768 35.706297 
" style="fill:none;stroke:#f5deb3;stroke-linecap:square;stroke-width:4;"/>
    <g>
     <use style="fill:#f5deb3;stroke:#f5deb3;stroke-linejoin:miter;stroke-width:1.5;" x="338.688" xlink:href="#m942c8dc1bd" y="30.334099"/>
     <use style="fill:#f5deb3;stroke:#f5deb3;stroke-linejoin:miter;stroke-width:1.5;" x="369.60768" xlink:href="#m942c8dc1bd" y="35.706297"/>
    </g>
   </g>
   <g id="matplotlib.axis_1">
    <g id="xtick_1">
     <g id="line2d_5">
      <path clip-path="url(#p8abca21e5c)" d="M 57.6 298.944 
L 57.6 27.648 
" style="fill:none;stroke:#b0b0b0;stroke-linecap:square;stroke-width:0.8;"/>
     </g>
     <g id="line2d_6">
      <defs>
       <path d="M 0 0 
L 0 3.5 
" id="mb47af64eaf" style="stroke:#000000;stroke-width:0.8;"/>
      </defs>
      <g>
       <use style="stroke:#000000;stroke-width:0.8;" x="57.6" xlink:href="#mb47af64eaf" y="298.944"/>
      </g>
     </g>
     <g id="text_1">
      <!-- 0 -->
      <defs>
       <path d="M 31.78125 66.40625 
Q 24.171875 66.40625 20.328125 58.90625 
Q 16.5 51.421875 16.5 36.375 
Q 16.5 21.390625 20.328125 13.890625 
Q 24.171875 6.390625 31.78125 6.390625 
Q 39.453125 6.390625 43.28125 13.890625 
Q 47.125 21.390625 47.125 36.375 
Q 47.125 51.421875 43.28125 58.90625 
Q 39.453125 66.40625 31.78125 66.40625 
z
M 31.78125 74.21875 
Q 44.046875 74.21875 50.515625 64.515625 
Q 56.984375 54.828125 56.984375 36.375 
Q 56.984375 17.96875 50.515625 8.265625 
Q 44.046875 -1.421875 31.78125 -1.421875 
Q 19.53125 -1.421875 13.0625 8.265625 
Q 6.59375 17.96875 6.59375 36.375 
Q 6.59375 54.828125 13.0625 64.515625 
Q 19.53125 74.21875 31.78125 74.21875 
z
" id="DejaVuSans-48"/>
      </defs>
      <g transform="translate(51.2375 321.140875)scale(0.2 -0.2)">
       <use xlink:href="#DejaVuSans-48"/>
      </g>
     </g>
    </g>
    <g id="xtick_2">
     <g id="line2d_7">
      <path clip-path="url(#p8abca21e5c)" d="M 137.910857 298.944 
L 137.910857 27.648 
" style="fill:none;stroke:#b0b0b0;stroke-linecap:square;stroke-width:0.8;"/>
     </g>
     <g id="line2d_8">
      <g>
       <use style="stroke:#000000;stroke-width:0.8;" x="137.910857" xlink:href="#mb47af64eaf" y="298.944"/>
      </g>
     </g>
     <g id="text_2">
      <!-- 2 -->
      <defs>
       <path d="M 19.1875 8.296875 
L 53.609375 8.296875 
L 53.609375 0 
L 7.328125 0 
L 7.328125 8.296875 
Q 12.9375 14.109375 22.625 23.890625 
Q 32.328125 33.6875 34.8125 36.53125 
Q 39.546875 41.84375 41.421875 45.53125 
Q 43.3125 49.21875 43.3125 52.78125 
Q 43.3125 58.59375 39.234375 62.25 
Q 35.15625 65.921875 28.609375 65.921875 
Q 23.96875 65.921875 18.8125 64.3125 
Q 13.671875 62.703125 7.8125 59.421875 
L 7.8125 69.390625 
Q 13.765625 71.78125 18.9375 73 
Q 24.125 74.21875 28.421875 74.21875 
Q 39.75 74.21875 46.484375 68.546875 
Q 53.21875 62.890625 53.21875 53.421875 
Q 53.21875 48.921875 51.53125 44.890625 
Q 49.859375 40.875 45.40625 35.40625 
Q 44.1875 33.984375 37.640625 27.21875 
Q 31.109375 20.453125 19.1875 8.296875 
z
" id="DejaVuSans-50"/>
      </defs>
      <g transform="translate(131.548357 321.140875)scale(0.2 -0.2)">
       <use xlink:href="#DejaVuSans-50"/>
      </g>
     </g>
    </g>
    <g id="xtick_3">
     <g id="line2d_9">
      <path clip-path="url(#p8abca21e5c)" d="M 218.221714 298.944 
L 218.221714 27.648 
" style="fill:none;stroke:#b0b0b0;stroke-linecap:square;stroke-width:0.8;"/>
     </g>
     <g id="line2d_10">
      <g>
       <use style="stroke:#000000;stroke-width:0.8;" x="218.221714" xlink:href="#mb47af64eaf" y="298.944"/>
      </g>
     </g>
     <g id="text_3">
      <!-- 4 -->
      <defs>
       <path d="M 37.796875 64.3125 
L 12.890625 25.390625 
L 37.796875 25.390625 
z
M 35.203125 72.90625 
L 47.609375 72.90625 
L 47.609375 25.390625 
L 58.015625 25.390625 
L 58.015625 17.1875 
L 47.609375 17.1875 
L 47.609375 0 
L 37.796875 0 
L 37.796875 17.1875 
L 4.890625 17.1875 
L 4.890625 26.703125 
z
" id="DejaVuSans-52"/>
      </defs>
      <g transform="translate(211.859214 321.140875)scale(0.2 -0.2)">
       <use xlink:href="#DejaVuSans-52"/>
      </g>
     </g>
    </g>
    <g id="xtick_4">
     <g id="line2d_11">
      <path clip-path="url(#p8abca21e5c)" d="M 298.532571 298.944 
L 298.532571 27.648 
" style="fill:none;stroke:#b0b0b0;stroke-linecap:square;stroke-width:0.8;"/>
     </g>
     <g id="line2d_12">
      <g>
       <use style="stroke:#000000;stroke-width:0.8;" x="298.532571" xlink:href="#mb47af64eaf" y="298.944"/>
      </g>
     </g>
     <g id="text_4">
      <!-- 6 -->
      <defs>
       <path d="M 33.015625 40.375 
Q 26.375 40.375 22.484375 35.828125 
Q 18.609375 31.296875 18.609375 23.390625 
Q 18.609375 15.53125 22.484375 10.953125 
Q 26.375 6.390625 33.015625 6.390625 
Q 39.65625 6.390625 43.53125 10.953125 
Q 47.40625 15.53125 47.40625 23.390625 
Q 47.40625 31.296875 43.53125 35.828125 
Q 39.65625 40.375 33.015625 40.375 
z
M 52.59375 71.296875 
L 52.59375 62.3125 
Q 48.875 64.0625 45.09375 64.984375 
Q 41.3125 65.921875 37.59375 65.921875 
Q 27.828125 65.921875 22.671875 59.328125 
Q 17.53125 52.734375 16.796875 39.40625 
Q 19.671875 43.65625 24.015625 45.921875 
Q 28.375 48.1875 33.59375 48.1875 
Q 44.578125 48.1875 50.953125 41.515625 
Q 57.328125 34.859375 57.328125 23.390625 
Q 57.328125 12.15625 50.6875 5.359375 
Q 44.046875 -1.421875 33.015625 -1.421875 
Q 20.359375 -1.421875 13.671875 8.265625 
Q 6.984375 17.96875 6.984375 36.375 
Q 6.984375 53.65625 15.1875 63.9375 
Q 23.390625 74.21875 37.203125 74.21875 
Q 40.921875 74.21875 44.703125 73.484375 
Q 48.484375 72.75 52.59375 71.296875 
z
" id="DejaVuSans-54"/>
      </defs>
      <g transform="translate(292.170071 321.140875)scale(0.2 -0.2)">
       <use xlink:href="#DejaVuSans-54"/>
      </g>
     </g>
    </g>
    <g id="xtick_5">
     <g id="line2d_13">
      <path clip-path="url(#p8abca21e5c)" d="M 97.755429 298.944 
L 97.755429 27.648 
" style="fill:none;stroke:#b0b0b0;stroke-linecap:square;stroke-width:0.8;"/>
     </g>
     <g id="line2d_14">
      <defs>
       <path d="M 0 0 
L 0 2 
" id="md317e2066d" style="stroke:#000000;stroke-width:0.6;"/>
      </defs>
      <g>
       <use style="stroke:#000000;stroke-width:0.6;" x="97.755429" xlink:href="#md317e2066d" y="298.944"/>
      </g>
     </g>
    </g>
    <g id="xtick_6">
     <g id="line2d_15">
      <path clip-path="url(#p8abca21e5c)" d="M 178.066286 298.944 
L 178.066286 27.648 
" style="fill:none;stroke:#b0b0b0;stroke-linecap:square;stroke-width:0.8;"/>
     </g>
     <g id="line2d_16">
      <g>
       <use style="stroke:#000000;stroke-width:0.6;" x="178.066286" xlink:href="#md317e2066d" y="298.944"/>
      </g>
     </g>
    </g>
    <g id="xtick_7">
     <g id="line2d_17">
      <path clip-path="url(#p8abca21e5c)" d="M 258.377143 298.944 
L 258.377143 27.648 
" style="fill:none;stroke:#b0b0b0;stroke-linecap:square;stroke-width:0.8;"/>
     </g>
     <g id="line2d_18">
      <g>
       <use style="stroke:#000000;stroke-width:0.6;" x="258.377143" xlink:href="#md317e2066d" y="298.944"/>
      </g>
     </g>
    </g>
    <g id="xtick_8">
     <g id="line2d_19">
      <path clip-path="url(#p8abca21e5c)" d="M 338.688 298.944 
L 338.688 27.648 
" style="fill:none;stroke:#b0b0b0;stroke-linecap:square;stroke-width:0.8;"/>
     </g>
     <g id="line2d_20">
      <g>
       <use style="stroke:#000000;stroke-width:0.6;" x="338.688" xlink:href="#md317e2066d" y="298.944"/>
      </g>
     </g>
    </g>
    <g id="text_5">
     <!-- log10(# f-evals / dimension) -->
     <defs>
      <path d="M 9.421875 75.984375 
L 18.40625 75.984375 
L 18.40625 0 
L 9.421875 0 
z
" id="DejaVuSans-108"/>
      <path d="M 30.609375 48.390625 
Q 23.390625 48.390625 19.1875 42.75 
Q 14.984375 37.109375 14.984375 27.296875 
Q 14.984375 17.484375 19.15625 11.84375 
Q 23.34375 6.203125 30.609375 6.203125 
Q 37.796875 6.203125 41.984375 11.859375 
Q 46.1875 17.53125 46.1875 27.296875 
Q 46.1875 37.015625 41.984375 42.703125 
Q 37.796875 48.390625 30.609375 48.390625 
z
M 30.609375 56 
Q 42.328125 56 49.015625 48.375 
Q 55.71875 40.765625 55.71875 27.296875 
Q 55.71875 13.875 49.015625 6.21875 
Q 42.328125 -1.421875 30.609375 -1.421875 
Q 18.84375 -1.421875 12.171875 6.21875 
Q 5.515625 13.875 5.515625 27.296875 
Q 5.515625 40.765625 12.171875 48.375 
Q 18.84375 56 30.609375 56 
z
" id="DejaVuSans-111"/>
      <path d="M 45.40625 27.984375 
Q 45.40625 37.75 41.375 43.109375 
Q 37.359375 48.484375 30.078125 48.484375 
Q 22.859375 48.484375 18.828125 43.109375 
Q 14.796875 37.75 14.796875 27.984375 
Q 14.796875 18.265625 18.828125 12.890625 
Q 22.859375 7.515625 30.078125 7.515625 
Q 37.359375 7.515625 41.375 12.890625 
Q 45.40625 18.265625 45.40625 27.984375 
z
M 54.390625 6.78125 
Q 54.390625 -7.171875 48.1875 -13.984375 
Q 42 -20.796875 29.203125 -20.796875 
Q 24.46875 -20.796875 20.265625 -20.09375 
Q 16.0625 -19.390625 12.109375 -17.921875 
L 12.109375 -9.1875 
Q 16.0625 -11.328125 19.921875 -12.34375 
Q 23.78125 -13.375 27.78125 -13.375 
Q 36.625 -13.375 41.015625 -8.765625 
Q 45.40625 -4.15625 45.40625 5.171875 
L 45.40625 9.625 
Q 42.625 4.78125 38.28125 2.390625 
Q 33.9375 0 27.875 0 
Q 17.828125 0 11.671875 7.65625 
Q 5.515625 15.328125 5.515625 27.984375 
Q 5.515625 40.671875 11.671875 48.328125 
Q 17.828125 56 27.875 56 
Q 33.9375 56 38.28125 53.609375 
Q 42.625 51.21875 45.40625 46.390625 
L 45.40625 54.6875 
L 54.390625 54.6875 
z
" id="DejaVuSans-103"/>
      <path d="M 12.40625 8.296875 
L 28.515625 8.296875 
L 28.515625 63.921875 
L 10.984375 60.40625 
L 10.984375 69.390625 
L 28.421875 72.90625 
L 38.28125 72.90625 
L 38.28125 8.296875 
L 54.390625 8.296875 
L 54.390625 0 
L 12.40625 0 
z
" id="DejaVuSans-49"/>
      <path d="M 31 75.875 
Q 24.46875 64.65625 21.28125 53.65625 
Q 18.109375 42.671875 18.109375 31.390625 
Q 18.109375 20.125 21.3125 9.0625 
Q 24.515625 -2 31 -13.1875 
L 23.1875 -13.1875 
Q 15.875 -1.703125 12.234375 9.375 
Q 8.59375 20.453125 8.59375 31.390625 
Q 8.59375 42.28125 12.203125 53.3125 
Q 15.828125 64.359375 23.1875 75.875 
z
" id="DejaVuSans-40"/>
      <path d="M 51.125 44 
L 36.921875 44 
L 32.8125 27.6875 
L 47.125 27.6875 
z
M 43.796875 71.78125 
L 38.71875 51.515625 
L 52.984375 51.515625 
L 58.109375 71.78125 
L 65.921875 71.78125 
L 60.890625 51.515625 
L 76.125 51.515625 
L 76.125 44 
L 58.984375 44 
L 54.984375 27.6875 
L 70.515625 27.6875 
L 70.515625 20.21875 
L 53.078125 20.21875 
L 48 0 
L 40.1875 0 
L 45.21875 20.21875 
L 30.90625 20.21875 
L 25.875 0 
L 18.015625 0 
L 23.09375 20.21875 
L 7.71875 20.21875 
L 7.71875 27.6875 
L 24.90625 27.6875 
L 29 44 
L 13.28125 44 
L 13.28125 51.515625 
L 30.90625 51.515625 
L 35.890625 71.78125 
z
" id="DejaVuSans-35"/>
      <path id="DejaVuSans-32"/>
      <path d="M 37.109375 75.984375 
L 37.109375 68.5 
L 28.515625 68.5 
Q 23.6875 68.5 21.796875 66.546875 
Q 19.921875 64.59375 19.921875 59.515625 
L 19.921875 54.6875 
L 34.71875 54.6875 
L 34.71875 47.703125 
L 19.921875 47.703125 
L 19.921875 0 
L 10.890625 0 
L 10.890625 47.703125 
L 2.296875 47.703125 
L 2.296875 54.6875 
L 10.890625 54.6875 
L 10.890625 58.5 
Q 10.890625 67.625 15.140625 71.796875 
Q 19.390625 75.984375 28.609375 75.984375 
z
" id="DejaVuSans-102"/>
      <path d="M 4.890625 31.390625 
L 31.203125 31.390625 
L 31.203125 23.390625 
L 4.890625 23.390625 
z
" id="DejaVuSans-45"/>
      <path d="M 56.203125 29.59375 
L 56.203125 25.203125 
L 14.890625 25.203125 
Q 15.484375 15.921875 20.484375 11.0625 
Q 25.484375 6.203125 34.421875 6.203125 
Q 39.59375 6.203125 44.453125 7.46875 
Q 49.3125 8.734375 54.109375 11.28125 
L 54.109375 2.78125 
Q 49.265625 0.734375 44.1875 -0.34375 
Q 39.109375 -1.421875 33.890625 -1.421875 
Q 20.796875 -1.421875 13.15625 6.1875 
Q 5.515625 13.8125 5.515625 26.8125 
Q 5.515625 40.234375 12.765625 48.109375 
Q 20.015625 56 32.328125 56 
Q 43.359375 56 49.78125 48.890625 
Q 56.203125 41.796875 56.203125 29.59375 
z
M 47.21875 32.234375 
Q 47.125 39.59375 43.09375 43.984375 
Q 39.0625 48.390625 32.421875 48.390625 
Q 24.90625 48.390625 20.390625 44.140625 
Q 15.875 39.890625 15.1875 32.171875 
z
" id="DejaVuSans-101"/>
      <path d="M 2.984375 54.6875 
L 12.5 54.6875 
L 29.59375 8.796875 
L 46.6875 54.6875 
L 56.203125 54.6875 
L 35.6875 0 
L 23.484375 0 
z
" id="DejaVuSans-118"/>
      <path d="M 34.28125 27.484375 
Q 23.390625 27.484375 19.1875 25 
Q 14.984375 22.515625 14.984375 16.5 
Q 14.984375 11.71875 18.140625 8.90625 
Q 21.296875 6.109375 26.703125 6.109375 
Q 34.1875 6.109375 38.703125 11.40625 
Q 43.21875 16.703125 43.21875 25.484375 
L 43.21875 27.484375 
z
M 52.203125 31.203125 
L 52.203125 0 
L 43.21875 0 
L 43.21875 8.296875 
Q 40.140625 3.328125 35.546875 0.953125 
Q 30.953125 -1.421875 24.3125 -1.421875 
Q 15.921875 -1.421875 10.953125 3.296875 
Q 6 8.015625 6 15.921875 
Q 6 25.140625 12.171875 29.828125 
Q 18.359375 34.515625 30.609375 34.515625 
L 43.21875 34.515625 
L 43.21875 35.40625 
Q 43.21875 41.609375 39.140625 45 
Q 35.0625 48.390625 27.6875 48.390625 
Q 23 48.390625 18.546875 47.265625 
Q 14.109375 46.140625 10.015625 43.890625 
L 10.015625 52.203125 
Q 14.9375 54.109375 19.578125 55.046875 
Q 24.21875 56 28.609375 56 
Q 40.484375 56 46.34375 49.84375 
Q 52.203125 43.703125 52.203125 31.203125 
z
" id="DejaVuSans-97"/>
      <path d="M 44.28125 53.078125 
L 44.28125 44.578125 
Q 40.484375 46.53125 36.375 47.5 
Q 32.28125 48.484375 27.875 48.484375 
Q 21.1875 48.484375 17.84375 46.4375 
Q 14.5 44.390625 14.5 40.28125 
Q 14.5 37.15625 16.890625 35.375 
Q 19.28125 33.59375 26.515625 31.984375 
L 29.59375 31.296875 
Q 39.15625 29.25 43.1875 25.515625 
Q 47.21875 21.78125 47.21875 15.09375 
Q 47.21875 7.46875 41.1875 3.015625 
Q 35.15625 -1.421875 24.609375 -1.421875 
Q 20.21875 -1.421875 15.453125 -0.5625 
Q 10.6875 0.296875 5.421875 2 
L 5.421875 11.28125 
Q 10.40625 8.6875 15.234375 7.390625 
Q 20.0625 6.109375 24.8125 6.109375 
Q 31.15625 6.109375 34.5625 8.28125 
Q 37.984375 10.453125 37.984375 14.40625 
Q 37.984375 18.0625 35.515625 20.015625 
Q 33.0625 21.96875 24.703125 23.78125 
L 21.578125 24.515625 
Q 13.234375 26.265625 9.515625 29.90625 
Q 5.8125 33.546875 5.8125 39.890625 
Q 5.8125 47.609375 11.28125 51.796875 
Q 16.75 56 26.8125 56 
Q 31.78125 56 36.171875 55.265625 
Q 40.578125 54.546875 44.28125 53.078125 
z
" id="DejaVuSans-115"/>
      <path d="M 25.390625 72.90625 
L 33.6875 72.90625 
L 8.296875 -9.28125 
L 0 -9.28125 
z
" id="DejaVuSans-47"/>
      <path d="M 45.40625 46.390625 
L 45.40625 75.984375 
L 54.390625 75.984375 
L 54.390625 0 
L 45.40625 0 
L 45.40625 8.203125 
Q 42.578125 3.328125 38.25 0.953125 
Q 33.9375 -1.421875 27.875 -1.421875 
Q 17.96875 -1.421875 11.734375 6.484375 
Q 5.515625 14.40625 5.515625 27.296875 
Q 5.515625 40.1875 11.734375 48.09375 
Q 17.96875 56 27.875 56 
Q 33.9375 56 38.25 53.625 
Q 42.578125 51.265625 45.40625 46.390625 
z
M 14.796875 27.296875 
Q 14.796875 17.390625 18.875 11.75 
Q 22.953125 6.109375 30.078125 6.109375 
Q 37.203125 6.109375 41.296875 11.75 
Q 45.40625 17.390625 45.40625 27.296875 
Q 45.40625 37.203125 41.296875 42.84375 
Q 37.203125 48.484375 30.078125 48.484375 
Q 22.953125 48.484375 18.875 42.84375 
Q 14.796875 37.203125 14.796875 27.296875 
z
" id="DejaVuSans-100"/>
      <path d="M 9.421875 54.6875 
L 18.40625 54.6875 
L 18.40625 0 
L 9.421875 0 
z
M 9.421875 75.984375 
L 18.40625 75.984375 
L 18.40625 64.59375 
L 9.421875 64.59375 
z
" id="DejaVuSans-105"/>
      <path d="M 52 44.1875 
Q 55.375 50.25 60.0625 53.125 
Q 64.75 56 71.09375 56 
Q 79.640625 56 84.28125 50.015625 
Q 88.921875 44.046875 88.921875 33.015625 
L 88.921875 0 
L 79.890625 0 
L 79.890625 32.71875 
Q 79.890625 40.578125 77.09375 44.375 
Q 74.3125 48.1875 68.609375 48.1875 
Q 61.625 48.1875 57.5625 43.546875 
Q 53.515625 38.921875 53.515625 30.90625 
L 53.515625 0 
L 44.484375 0 
L 44.484375 32.71875 
Q 44.484375 40.625 41.703125 44.40625 
Q 38.921875 48.1875 33.109375 48.1875 
Q 26.21875 48.1875 22.15625 43.53125 
Q 18.109375 38.875 18.109375 30.90625 
L 18.109375 0 
L 9.078125 0 
L 9.078125 54.6875 
L 18.109375 54.6875 
L 18.109375 46.1875 
Q 21.1875 51.21875 25.484375 53.609375 
Q 29.78125 56 35.6875 56 
Q 41.65625 56 45.828125 52.96875 
Q 50 49.953125 52 44.1875 
z
" id="DejaVuSans-109"/>
      <path d="M 54.890625 33.015625 
L 54.890625 0 
L 45.90625 0 
L 45.90625 32.71875 
Q 45.90625 40.484375 42.875 44.328125 
Q 39.84375 48.1875 33.796875 48.1875 
Q 26.515625 48.1875 22.3125 43.546875 
Q 18.109375 38.921875 18.109375 30.90625 
L 18.109375 0 
L 9.078125 0 
L 9.078125 54.6875 
L 18.109375 54.6875 
L 18.109375 46.1875 
Q 21.34375 51.125 25.703125 53.5625 
Q 30.078125 56 35.796875 56 
Q 45.21875 56 50.046875 50.171875 
Q 54.890625 44.34375 54.890625 33.015625 
z
" id="DejaVuSans-110"/>
      <path d="M 8.015625 75.875 
L 15.828125 75.875 
Q 23.140625 64.359375 26.78125 53.3125 
Q 30.421875 42.28125 30.421875 31.390625 
Q 30.421875 20.453125 26.78125 9.375 
Q 23.140625 -1.703125 15.828125 -13.1875 
L 8.015625 -13.1875 
Q 14.5 -2 17.703125 9.0625 
Q 20.90625 20.125 20.90625 31.390625 
Q 20.90625 42.671875 17.703125 53.65625 
Q 14.5 64.65625 8.015625 75.875 
z
" id="DejaVuSans-41"/>
     </defs>
     <g transform="translate(77.303219 342.217594)scale(0.17 -0.17)">
      <use xlink:href="#DejaVuSans-108"/>
      <use x="27.783203" xlink:href="#DejaVuSans-111"/>
      <use x="88.964844" xlink:href="#DejaVuSans-103"/>
      <use x="152.441406" xlink:href="#DejaVuSans-49"/>
      <use x="216.064453" xlink:href="#DejaVuSans-48"/>
      <use x="279.6875" xlink:href="#DejaVuSans-40"/>
      <use x="318.701172" xlink:href="#DejaVuSans-35"/>
      <use x="402.490234" xlink:href="#DejaVuSans-32"/>
      <use x="434.277344" xlink:href="#DejaVuSans-102"/>
      <use x="469.404297" xlink:href="#DejaVuSans-45"/>
      <use x="505.488281" xlink:href="#DejaVuSans-101"/>
      <use x="567.011719" xlink:href="#DejaVuSans-118"/>
      <use x="626.191406" xlink:href="#DejaVuSans-97"/>
      <use x="687.470703" xlink:href="#DejaVuSans-108"/>
      <use x="715.253906" xlink:href="#DejaVuSans-115"/>
      <use x="767.353516" xlink:href="#DejaVuSans-32"/>
      <use x="799.140625" xlink:href="#DejaVuSans-47"/>
      <use x="832.832031" xlink:href="#DejaVuSans-32"/>
      <use x="864.619141" xlink:href="#DejaVuSans-100"/>
      <use x="928.095703" xlink:href="#DejaVuSans-105"/>
      <use x="955.878906" xlink:href="#DejaVuSans-109"/>
      <use x="1053.291016" xlink:href="#DejaVuSans-101"/>
      <use x="1114.814453" xlink:href="#DejaVuSans-110"/>
      <use x="1178.193359" xlink:href="#DejaVuSans-115"/>
      <use x="1230.292969" xlink:href="#DejaVuSans-105"/>
      <use x="1258.076172" xlink:href="#DejaVuSans-111"/>
      <use x="1319.257812" xlink:href="#DejaVuSans-110"/>
      <use x="1382.636719" xlink:href="#DejaVuSans-41"/>
     </g>
    </g>
   </g>
   <g id="matplotlib.axis_2">
    <g id="ytick_1">
     <g id="line2d_21">
      <path clip-path="url(#p8abca21e5c)" d="M 57.6 298.944 
L 338.688 298.944 
" style="fill:none;stroke:#b0b0b0;stroke-linecap:square;stroke-width:0.8;"/>
     </g>
     <g id="line2d_22">
      <defs>
       <path d="M 0 0 
L -3.5 0 
" id="m64ef7e2add" style="stroke:#000000;stroke-width:0.8;"/>
      </defs>
      <g>
       <use style="stroke:#000000;stroke-width:0.8;" x="57.6" xlink:href="#m64ef7e2add" y="298.944"/>
      </g>
     </g>
     <g id="text_6">
      <!-- 0.0 -->
      <defs>
       <path d="M 10.6875 12.40625 
L 21 12.40625 
L 21 0 
L 10.6875 0 
z
" id="DejaVuSans-46"/>
      </defs>
      <g transform="translate(25.155 305.02275)scale(0.16 -0.16)">
       <use xlink:href="#DejaVuSans-48"/>
       <use x="63.623047" xlink:href="#DejaVuSans-46"/>
       <use x="95.410156" xlink:href="#DejaVuSans-48"/>
      </g>
     </g>
    </g>
    <g id="ytick_2">
     <g id="line2d_23">
      <path clip-path="url(#p8abca21e5c)" d="M 57.6 245.22202 
L 338.688 245.22202 
" style="fill:none;stroke:#b0b0b0;stroke-linecap:square;stroke-width:0.8;"/>
     </g>
     <g id="line2d_24">
      <g>
       <use style="stroke:#000000;stroke-width:0.8;" x="57.6" xlink:href="#m64ef7e2add" y="245.22202"/>
      </g>
     </g>
     <g id="text_7">
      <!-- 0.2 -->
      <g transform="translate(25.155 251.30077)scale(0.16 -0.16)">
       <use xlink:href="#DejaVuSans-48"/>
       <use x="63.623047" xlink:href="#DejaVuSans-46"/>
       <use x="95.410156" xlink:href="#DejaVuSans-50"/>
      </g>
     </g>
    </g>
    <g id="ytick_3">
     <g id="line2d_25">
      <path clip-path="url(#p8abca21e5c)" d="M 57.6 191.50004 
L 338.688 191.50004 
" style="fill:none;stroke:#b0b0b0;stroke-linecap:square;stroke-width:0.8;"/>
     </g>
     <g id="line2d_26">
      <g>
       <use style="stroke:#000000;stroke-width:0.8;" x="57.6" xlink:href="#m64ef7e2add" y="191.50004"/>
      </g>
     </g>
     <g id="text_8">
      <!-- 0.4 -->
      <g transform="translate(25.155 197.57879)scale(0.16 -0.16)">
       <use xlink:href="#DejaVuSans-48"/>
       <use x="63.623047" xlink:href="#DejaVuSans-46"/>
       <use x="95.410156" xlink:href="#DejaVuSans-52"/>
      </g>
     </g>
    </g>
    <g id="ytick_4">
     <g id="line2d_27">
      <path clip-path="url(#p8abca21e5c)" d="M 57.6 137.778059 
L 338.688 137.778059 
" style="fill:none;stroke:#b0b0b0;stroke-linecap:square;stroke-width:0.8;"/>
     </g>
     <g id="line2d_28">
      <g>
       <use style="stroke:#000000;stroke-width:0.8;" x="57.6" xlink:href="#m64ef7e2add" y="137.778059"/>
      </g>
     </g>
     <g id="text_9">
      <!-- 0.6 -->
      <g transform="translate(25.155 143.856809)scale(0.16 -0.16)">
       <use xlink:href="#DejaVuSans-48"/>
       <use x="63.623047" xlink:href="#DejaVuSans-46"/>
       <use x="95.410156" xlink:href="#DejaVuSans-54"/>
      </g>
     </g>
    </g>
    <g id="ytick_5">
     <g id="line2d_29">
      <path clip-path="url(#p8abca21e5c)" d="M 57.6 84.056079 
L 338.688 84.056079 
" style="fill:none;stroke:#b0b0b0;stroke-linecap:square;stroke-width:0.8;"/>
     </g>
     <g id="line2d_30">
      <g>
       <use style="stroke:#000000;stroke-width:0.8;" x="57.6" xlink:href="#m64ef7e2add" y="84.056079"/>
      </g>
     </g>
     <g id="text_10">
      <!-- 0.8 -->
      <defs>
       <path d="M 31.78125 34.625 
Q 24.75 34.625 20.71875 30.859375 
Q 16.703125 27.09375 16.703125 20.515625 
Q 16.703125 13.921875 20.71875 10.15625 
Q 24.75 6.390625 31.78125 6.390625 
Q 38.8125 6.390625 42.859375 10.171875 
Q 46.921875 13.96875 46.921875 20.515625 
Q 46.921875 27.09375 42.890625 30.859375 
Q 38.875 34.625 31.78125 34.625 
z
M 21.921875 38.8125 
Q 15.578125 40.375 12.03125 44.71875 
Q 8.5 49.078125 8.5 55.328125 
Q 8.5 64.0625 14.71875 69.140625 
Q 20.953125 74.21875 31.78125 74.21875 
Q 42.671875 74.21875 48.875 69.140625 
Q 55.078125 64.0625 55.078125 55.328125 
Q 55.078125 49.078125 51.53125 44.71875 
Q 48 40.375 41.703125 38.8125 
Q 48.828125 37.15625 52.796875 32.3125 
Q 56.78125 27.484375 56.78125 20.515625 
Q 56.78125 9.90625 50.3125 4.234375 
Q 43.84375 -1.421875 31.78125 -1.421875 
Q 19.734375 -1.421875 13.25 4.234375 
Q 6.78125 9.90625 6.78125 20.515625 
Q 6.78125 27.484375 10.78125 32.3125 
Q 14.796875 37.15625 21.921875 38.8125 
z
M 18.3125 54.390625 
Q 18.3125 48.734375 21.84375 45.5625 
Q 25.390625 42.390625 31.78125 42.390625 
Q 38.140625 42.390625 41.71875 45.5625 
Q 45.3125 48.734375 45.3125 54.390625 
Q 45.3125 60.0625 41.71875 63.234375 
Q 38.140625 66.40625 31.78125 66.40625 
Q 25.390625 66.40625 21.84375 63.234375 
Q 18.3125 60.0625 18.3125 54.390625 
z
" id="DejaVuSans-56"/>
      </defs>
      <g transform="translate(25.155 90.134829)scale(0.16 -0.16)">
       <use xlink:href="#DejaVuSans-48"/>
       <use x="63.623047" xlink:href="#DejaVuSans-46"/>
       <use x="95.410156" xlink:href="#DejaVuSans-56"/>
      </g>
     </g>
    </g>
    <g id="ytick_6">
     <g id="line2d_31">
      <path clip-path="url(#p8abca21e5c)" d="M 57.6 30.334099 
L 338.688 30.334099 
" style="fill:none;stroke:#b0b0b0;stroke-linecap:square;stroke-width:0.8;"/>
     </g>
     <g id="line2d_32">
      <g>
       <use style="stroke:#000000;stroke-width:0.8;" x="57.6" xlink:href="#m64ef7e2add" y="30.334099"/>
      </g>
     </g>
     <g id="text_11">
      <!-- 1.0 -->
      <g transform="translate(25.155 36.412849)scale(0.16 -0.16)">
       <use xlink:href="#DejaVuSans-49"/>
       <use x="63.623047" xlink:href="#DejaVuSans-46"/>
       <use x="95.410156" xlink:href="#DejaVuSans-48"/>
      </g>
     </g>
    </g>
    <g id="text_12">
     <!-- Fraction of function,target pairs -->
     <defs>
      <path d="M 9.8125 72.90625 
L 51.703125 72.90625 
L 51.703125 64.59375 
L 19.671875 64.59375 
L 19.671875 43.109375 
L 48.578125 43.109375 
L 48.578125 34.8125 
L 19.671875 34.8125 
L 19.671875 0 
L 9.8125 0 
z
" id="DejaVuSans-70"/>
      <path d="M 41.109375 46.296875 
Q 39.59375 47.171875 37.8125 47.578125 
Q 36.03125 48 33.890625 48 
Q 26.265625 48 22.1875 43.046875 
Q 18.109375 38.09375 18.109375 28.8125 
L 18.109375 0 
L 9.078125 0 
L 9.078125 54.6875 
L 18.109375 54.6875 
L 18.109375 46.1875 
Q 20.953125 51.171875 25.484375 53.578125 
Q 30.03125 56 36.53125 56 
Q 37.453125 56 38.578125 55.875 
Q 39.703125 55.765625 41.0625 55.515625 
z
" id="DejaVuSans-114"/>
      <path d="M 48.78125 52.59375 
L 48.78125 44.1875 
Q 44.96875 46.296875 41.140625 47.34375 
Q 37.3125 48.390625 33.40625 48.390625 
Q 24.65625 48.390625 19.8125 42.84375 
Q 14.984375 37.3125 14.984375 27.296875 
Q 14.984375 17.28125 19.8125 11.734375 
Q 24.65625 6.203125 33.40625 6.203125 
Q 37.3125 6.203125 41.140625 7.25 
Q 44.96875 8.296875 48.78125 10.40625 
L 48.78125 2.09375 
Q 45.015625 0.34375 40.984375 -0.53125 
Q 36.96875 -1.421875 32.421875 -1.421875 
Q 20.0625 -1.421875 12.78125 6.34375 
Q 5.515625 14.109375 5.515625 27.296875 
Q 5.515625 40.671875 12.859375 48.328125 
Q 20.21875 56 33.015625 56 
Q 37.15625 56 41.109375 55.140625 
Q 45.0625 54.296875 48.78125 52.59375 
z
" id="DejaVuSans-99"/>
      <path d="M 18.3125 70.21875 
L 18.3125 54.6875 
L 36.8125 54.6875 
L 36.8125 47.703125 
L 18.3125 47.703125 
L 18.3125 18.015625 
Q 18.3125 11.328125 20.140625 9.421875 
Q 21.96875 7.515625 27.59375 7.515625 
L 36.8125 7.515625 
L 36.8125 0 
L 27.59375 0 
Q 17.1875 0 13.234375 3.875 
Q 9.28125 7.765625 9.28125 18.015625 
L 9.28125 47.703125 
L 2.6875 47.703125 
L 2.6875 54.6875 
L 9.28125 54.6875 
L 9.28125 70.21875 
z
" id="DejaVuSans-116"/>
      <path d="M 8.5 21.578125 
L 8.5 54.6875 
L 17.484375 54.6875 
L 17.484375 21.921875 
Q 17.484375 14.15625 20.5 10.265625 
Q 23.53125 6.390625 29.59375 6.390625 
Q 36.859375 6.390625 41.078125 11.03125 
Q 45.3125 15.671875 45.3125 23.6875 
L 45.3125 54.6875 
L 54.296875 54.6875 
L 54.296875 0 
L 45.3125 0 
L 45.3125 8.40625 
Q 42.046875 3.421875 37.71875 1 
Q 33.40625 -1.421875 27.6875 -1.421875 
Q 18.265625 -1.421875 13.375 4.4375 
Q 8.5 10.296875 8.5 21.578125 
z
M 31.109375 56 
z
" id="DejaVuSans-117"/>
      <path d="M 11.71875 12.40625 
L 22.015625 12.40625 
L 22.015625 4 
L 14.015625 -11.625 
L 7.71875 -11.625 
L 11.71875 4 
z
" id="DejaVuSans-44"/>
      <path d="M 18.109375 8.203125 
L 18.109375 -20.796875 
L 9.078125 -20.796875 
L 9.078125 54.6875 
L 18.109375 54.6875 
L 18.109375 46.390625 
Q 20.953125 51.265625 25.265625 53.625 
Q 29.59375 56 35.59375 56 
Q 45.5625 56 51.78125 48.09375 
Q 58.015625 40.1875 58.015625 27.296875 
Q 58.015625 14.40625 51.78125 6.484375 
Q 45.5625 -1.421875 35.59375 -1.421875 
Q 29.59375 -1.421875 25.265625 0.953125 
Q 20.953125 3.328125 18.109375 8.203125 
z
M 48.6875 27.296875 
Q 48.6875 37.203125 44.609375 42.84375 
Q 40.53125 48.484375 33.40625 48.484375 
Q 26.265625 48.484375 22.1875 42.84375 
Q 18.109375 37.203125 18.109375 27.296875 
Q 18.109375 17.390625 22.1875 11.75 
Q 26.265625 6.109375 33.40625 6.109375 
Q 40.53125 6.109375 44.609375 11.75 
Q 48.6875 17.390625 48.6875 27.296875 
z
" id="DejaVuSans-112"/>
     </defs>
     <g transform="translate(17.619531 298.435375)rotate(-90)scale(0.17 -0.17)">
      <use xlink:href="#DejaVuSans-70"/>
      <use x="57.410156" xlink:href="#DejaVuSans-114"/>
      <use x="98.523438" xlink:href="#DejaVuSans-97"/>
      <use x="159.802734" xlink:href="#DejaVuSans-99"/>
      <use x="214.783203" xlink:href="#DejaVuSans-116"/>
      <use x="253.992188" xlink:href="#DejaVuSans-105"/>
      <use x="281.775391" xlink:href="#DejaVuSans-111"/>
      <use x="342.957031" xlink:href="#DejaVuSans-110"/>
      <use x="406.335938" xlink:href="#DejaVuSans-32"/>
      <use x="438.123047" xlink:href="#DejaVuSans-111"/>
      <use x="499.304688" xlink:href="#DejaVuSans-102"/>
      <use x="534.509766" xlink:href="#DejaVuSans-32"/>
      <use x="566.296875" xlink:href="#DejaVuSans-102"/>
      <use x="601.501953" xlink:href="#DejaVuSans-117"/>
      <use x="664.880859" xlink:href="#DejaVuSans-110"/>
      <use x="728.259766" xlink:href="#DejaVuSans-99"/>
      <use x="783.240234" xlink:href="#DejaVuSans-116"/>
      <use x="822.449219" xlink:href="#DejaVuSans-105"/>
      <use x="850.232422" xlink:href="#DejaVuSans-111"/>
      <use x="911.414062" xlink:href="#DejaVuSans-110"/>
      <use x="974.792969" xlink:href="#DejaVuSans-44"/>
      <use x="1006.580078" xlink:href="#DejaVuSans-116"/>
      <use x="1045.789062" xlink:href="#DejaVuSans-97"/>
      <use x="1107.068359" xlink:href="#DejaVuSans-114"/>
      <use x="1148.166016" xlink:href="#DejaVuSans-103"/>
      <use x="1211.642578" xlink:href="#DejaVuSans-101"/>
      <use x="1273.166016" xlink:href="#DejaVuSans-116"/>
      <use x="1312.375" xlink:href="#DejaVuSans-32"/>
      <use x="1344.162109" xlink:href="#DejaVuSans-112"/>
      <use x="1407.638672" xlink:href="#DejaVuSans-97"/>
      <use x="1468.917969" xlink:href="#DejaVuSans-105"/>
      <use x="1496.701172" xlink:href="#DejaVuSans-114"/>
      <use x="1537.814453" xlink:href="#DejaVuSans-115"/>
     </g>
    </g>
   </g>
   <g id="line2d_33">
    <defs>
     <path d="M 0 1.5 
C 0.397805 1.5 0.77937 1.341951 1.06066 1.06066 
C 1.341951 0.77937 1.5 0.397805 1.5 0 
C 1.5 -0.397805 1.341951 -0.77937 1.06066 -1.06066 
C 0.77937 -1.341951 0.397805 -1.5 0 -1.5 
C -0.397805 -1.5 -0.77937 -1.341951 -1.06066 -1.06066 
C -1.341951 -0.77937 -1.5 -0.397805 -1.5 0 
C -1.5 0.397805 -1.341951 0.77937 -1.06066 1.06066 
C -0.77937 1.341951 -0.397805 1.5 0 1.5 
z
" id="m25bd9d8e32" style="stroke:#f5deb3;"/>
    </defs>
    <g>
     <use style="fill:#f5deb3;stroke:#f5deb3;" x="276.516938" xlink:href="#m25bd9d8e32" y="30.334099"/>
     <use style="fill:#f5deb3;stroke:#f5deb3;" x="276.516938" xlink:href="#m25bd9d8e32" y="30.334099"/>
    </g>
   </g>
   <g id="line2d_34">
    <defs>
     <path d="M 0 1.5 
C 0.397805 1.5 0.77937 1.341951 1.06066 1.06066 
C 1.341951 0.77937 1.5 0.397805 1.5 0 
C 1.5 -0.397805 1.341951 -0.77937 1.06066 -1.06066 
C 0.77937 -1.341951 0.397805 -1.5 0 -1.5 
C -0.397805 -1.5 -0.77937 -1.341951 -1.06066 -1.06066 
C -1.341951 -0.77937 -1.5 -0.397805 -1.5 0 
C -1.5 0.397805 -1.341951 0.77937 -1.06066 1.06066 
C -0.77937 1.341951 -0.397805 1.5 0 1.5 
z
" id="m4a016577b0" style="stroke:#000080;"/>
    </defs>
    <g>
     <use style="fill:#000080;stroke:#000080;" x="271.41094" xlink:href="#m4a016577b0" y="230.47481"/>
     <use style="fill:#000080;stroke:#000080;" x="271.41094" xlink:href="#m4a016577b0" y="230.47481"/>
    </g>
   </g>
   <g id="line2d_35">
    <path d="M 91.659398 298.944 
L 91.659398 298.417314 
L 98.853664 298.417314 
L 98.853664 297.890628 
L 99.016649 297.890628 
L 99.016649 296.31057 
L 99.963811 296.31057 
L 99.963811 295.783884 
L 100.192776 295.783884 
L 100.192776 295.257197 
L 101.223245 295.257197 
L 101.294571 288.936964 
L 102.060491 288.936964 
L 102.12848 287.356906 
L 102.728744 287.356906 
L 102.728744 286.303534 
L 103.623262 286.303534 
L 103.623262 284.723476 
L 103.93193 284.723476 
L 103.93193 282.616732 
L 104.414709 282.616732 
L 104.474128 279.456615 
L 105.114708 279.456615 
L 105.114708 278.403243 
L 105.398279 278.403243 
L 105.398279 277.876557 
L 105.566235 277.876557 
L 105.677314 276.296499 
L 105.732589 276.296499 
L 105.842616 273.136382 
L 106.168594 273.136382 
L 106.168594 271.556324 
L 106.329326 271.556324 
L 106.329326 271.029638 
L 106.541356 271.029638 
L 106.541356 270.502952 
L 106.698704 270.502952 
L 106.698704 269.449579 
L 107.162405 269.449579 
L 107.213174 265.762777 
L 107.364602 265.762777 
L 107.364602 265.236091 
L 108.902946 265.236091 
L 108.994731 263.656033 
L 109.040444 263.656033 
L 109.040444 263.129347 
L 109.222105 263.129347 
L 109.222105 262.60266 
L 109.579846 262.60266 
L 109.579846 261.022602 
L 109.756002 261.022602 
L 109.756002 260.495916 
L 109.886961 260.495916 
L 109.886961 259.96923 
L 110.060057 259.96923 
L 110.060057 259.442544 
L 110.358901 259.442544 
L 110.358901 258.389172 
L 111.185562 258.389172 
L 111.185562 257.862486 
L 112.318635 257.862486 
L 112.318635 257.3358 
L 112.544146 257.3358 
L 112.544146 256.809114 
L 127.736845 256.809114 
L 127.783662 255.755741 
L 128.077285 255.755741 
L 128.077285 255.229055 
L 128.694536 255.229055 
L 128.694536 254.702369 
L 129.262072 254.702369 
L 129.262072 254.175683 
L 129.922357 254.175683 
L 129.922357 253.648997 
L 130.073348 253.648997 
L 130.073348 253.122311 
L 130.545255 253.122311 
L 130.545255 252.595625 
L 132.386657 252.595625 
L 132.386657 252.068939 
L 133.159262 252.068939 
L 133.262014 250.488881 
L 163.03294 250.488881 
L 163.03294 249.962195 
L 176.493293 249.962195 
L 176.493293 249.435508 
L 178.956967 249.435508 
L 178.956967 248.908822 
L 179.123536 248.908822 
L 179.123536 248.382136 
L 179.784617 248.382136 
L 179.784617 247.85545 
L 191.186476 247.85545 
L 191.186476 247.328764 
L 203.405875 247.328764 
L 203.405875 246.802078 
L 204.211236 246.802078 
L 204.211236 246.275392 
L 205.000778 246.275392 
L 205.000778 245.748706 
L 217.221045 245.748706 
L 217.221045 245.22202 
L 217.682615 245.22202 
L 217.697628 244.168648 
L 217.833499 244.168648 
L 217.834391 243.115275 
L 218.099913 243.115275 
L 218.099913 242.588589 
L 218.687434 242.588589 
L 218.787243 241.535217 
L 218.887744 241.535217 
L 218.966459 240.481845 
L 219.115875 240.481845 
L 219.115875 239.955159 
L 219.325516 239.955159 
L 219.325516 239.428473 
L 219.498501 239.428473 
L 219.498501 238.901787 
L 219.828278 238.901787 
L 219.885124 237.848415 
L 229.670535 237.848415 
L 229.670535 237.321729 
L 229.84791 237.321729 
L 229.870012 236.268356 
L 230.145394 236.268356 
L 230.242782 235.214984 
L 241.991925 235.214984 
L 241.991925 234.688298 
L 246.636002 234.688298 
L 246.636002 234.161612 
L 249.26613 234.161612 
L 249.334568 233.10824 
L 249.416854 233.10824 
L 249.416854 232.581554 
L 252.406372 232.581554 
L 252.406372 232.054868 
L 258.35691 232.054868 
L 258.358167 231.001496 
L 271.41094 231.001496 
L 271.41094 230.47481 
L 338.688 230.47481 
L 338.688 230.47481 
" style="fill:none;stroke:#000080;stroke-linecap:square;stroke-width:1.5;"/>
   </g>
   <g id="line2d_36">
    <defs>
     <path d="M 0 6 
C 1.591219 6 3.117479 5.367802 4.242641 4.242641 
C 5.367802 3.117479 6 1.591219 6 0 
C 6 -1.591219 5.367802 -3.117479 4.242641 -4.242641 
C 3.117479 -5.367802 1.591219 -6 0 -6 
C -1.591219 -6 -3.117479 -5.367802 -4.242641 -4.242641 
C -5.367802 -3.117479 -6 -1.591219 -6 0 
C -6 1.591219 -5.367802 3.117479 -4.242641 4.242641 
C -3.117479 5.367802 -1.591219 6 0 6 
z
" id="m95621deb51" style="stroke:#000080;stroke-width:1.5;"/>
    </defs>
    <g>
     <use style="fill-opacity:0;stroke:#000080;stroke-width:1.5;" x="107.364602" xlink:href="#m95621deb51" y="265.236091"/>
     <use style="fill-opacity:0;stroke:#000080;stroke-width:1.5;" x="179.784617" xlink:href="#m95621deb51" y="248.382136"/>
     <use style="fill-opacity:0;stroke:#000080;stroke-width:1.5;" x="252.406372" xlink:href="#m95621deb51" y="232.581554"/>
     <use style="fill-opacity:0;stroke:#000080;stroke-width:1.5;" x="271.41094" xlink:href="#m95621deb51" y="230.47481"/>
     <use style="fill-opacity:0;stroke:#000080;stroke-width:1.5;" x="338.688" xlink:href="#m95621deb51" y="230.47481"/>
    </g>
   </g>
   <g id="line2d_37">
    <path style="fill:none;stroke:#000080;stroke-linecap:square;stroke-width:1.5;"/>
    <g/>
   </g>
   <g id="line2d_38">
    <path clip-path="url(#p8abca21e5c)" d="M 230.327133 235.214984 
" style="fill:none;stroke:#000080;stroke-linecap:square;stroke-width:1.5;"/>
    <defs>
     <path d="M -12 12 
L 12 -12 
M -12 -12 
L 12 12 
" id="m59393a2dfb" style="stroke:#000080;"/>
    </defs>
    <g clip-path="url(#p8abca21e5c)">
     <use style="fill:#000080;stroke:#000080;" x="230.327133" xlink:href="#m59393a2dfb" y="235.214984"/>
    </g>
   </g>
   <g id="line2d_39">
    <g>
     <use style="fill:#000080;stroke:#000080;" x="317.084938" xlink:href="#m4a016577b0" y="30.334099"/>
     <use style="fill:#000080;stroke:#000080;" x="317.084938" xlink:href="#m4a016577b0" y="30.334099"/>
    </g>
   </g>
   <g id="line2d_40">
    <path d="M 85.492169 298.944 
L 85.492169 298.417314 
L 97.668013 298.417314 
L 97.668013 296.31057 
L 98.015075 296.31057 
L 98.100772 295.257197 
L 99.41757 295.257197 
L 99.41757 294.730511 
L 99.731799 294.730511 
L 99.731799 294.203825 
L 99.963811 294.203825 
L 99.963811 292.097081 
L 100.116788 292.097081 
L 100.116788 291.570395 
L 100.343767 291.570395 
L 100.343767 291.043709 
L 101.079711 291.043709 
L 101.151625 289.463651 
L 101.436355 289.463651 
L 101.436355 288.410278 
L 101.854917 288.410278 
L 101.854917 287.356906 
L 102.060491 287.356906 
L 102.12848 286.303534 
L 102.263669 286.303534 
L 102.263669 285.776848 
L 102.728744 285.776848 
L 102.794183 283.670104 
L 102.859376 283.670104 
L 102.924327 282.616732 
L 103.309033 282.616732 
L 103.309033 281.563359 
L 103.560868 281.563359 
L 103.560868 281.036673 
L 104.826449 281.036673 
L 104.826449 280.509987 
L 105.114708 280.509987 
L 105.114708 279.456615 
L 105.454445 279.456615 
L 105.454445 277.349871 
L 105.566235 277.349871 
L 105.677314 274.71644 
L 106.06061 274.71644 
L 106.114686 273.663068 
L 106.382575 273.663068 
L 106.382575 273.136382 
L 106.957836 273.136382 
L 107.009204 269.976266 
L 107.213174 269.976266 
L 107.263796 267.342835 
L 107.514726 267.342835 
L 107.514726 266.816149 
L 107.811151 266.816149 
L 107.811151 264.709405 
L 108.006005 264.709405 
L 108.006005 264.182719 
L 108.671345 264.182719 
L 108.671345 261.022602 
L 108.948899 261.022602 
L 108.948899 260.495916 
L 109.086037 260.495916 
L 109.086037 259.96923 
L 109.401893 259.96923 
L 109.446552 258.915858 
L 109.71213 258.915858 
L 109.71213 258.389172 
L 110.060057 258.389172 
L 110.060057 257.3358 
L 112.356423 257.3358 
L 112.356423 256.809114 
L 125.219619 256.809114 
L 125.219619 256.282427 
L 126.78961 256.282427 
L 126.78961 255.755741 
L 128.5758 255.755741 
L 128.5758 255.229055 
L 129.103859 255.229055 
L 129.103859 254.702369 
L 129.630422 254.702369 
L 129.630422 254.175683 
L 129.839445 254.175683 
L 129.839445 253.648997 
L 130.952826 253.648997 
L 130.991767 252.595625 
L 132.777237 252.595625 
L 132.847322 251.542253 
L 133.655948 251.542253 
L 133.655948 251.015567 
L 135.98603 251.015567 
L 135.98603 250.488881 
L 179.652162 250.488881 
L 179.652162 249.962195 
L 180.302303 249.962195 
L 180.302303 249.435508 
L 191.018422 249.435508 
L 191.018422 248.908822 
L 191.805314 248.908822 
L 191.805314 248.382136 
L 193.330924 248.382136 
L 193.330924 247.85545 
L 194.015367 247.85545 
L 194.015367 247.328764 
L 205.558255 247.328764 
L 205.558255 246.802078 
L 205.812341 246.802078 
L 205.812341 246.275392 
L 206.149763 246.275392 
L 206.149763 245.748706 
L 206.695203 245.748706 
L 206.695203 245.22202 
L 207.273014 245.22202 
L 207.273014 244.695334 
L 208.276993 244.695334 
L 208.276993 244.168648 
L 216.988731 244.168648 
L 216.988731 243.641962 
L 217.863253 243.641962 
L 217.92527 242.588589 
L 218.430429 242.588589 
L 218.430429 242.061903 
L 218.949825 242.061903 
L 218.949825 241.535217 
L 219.565151 241.535217 
L 219.595319 240.481845 
L 219.752887 240.481845 
L 219.752887 239.955159 
L 219.906987 239.955159 
L 219.906987 239.428473 
L 220.275378 239.428473 
L 220.275378 238.901787 
L 220.595026 238.901787 
L 220.595026 238.375101 
L 229.600476 238.375101 
L 229.600476 237.848415 
L 230.562948 237.848415 
L 230.565097 236.795043 
L 230.839065 236.795043 
L 230.839065 236.268356 
L 231.021204 236.268356 
L 231.021204 235.74167 
L 231.138922 235.74167 
L 231.138922 235.214984 
L 231.932442 235.214984 
L 232.004116 234.161612 
L 239.860833 234.161612 
L 239.860833 233.634926 
L 240.002029 233.634926 
L 240.002029 233.10824 
L 240.548238 233.10824 
L 240.548238 232.581554 
L 240.903438 232.581554 
L 240.988821 231.528182 
L 241.159467 231.528182 
L 241.159467 231.001496 
L 241.622931 231.001496 
L 241.622931 230.47481 
L 242.504874 230.47481 
L 242.504874 229.948123 
L 243.197597 229.948123 
L 243.197597 229.421437 
L 254.479095 229.421437 
L 254.585246 228.368065 
L 254.614061 228.368065 
L 254.689063 226.788007 
L 254.736755 226.788007 
L 254.828031 225.207949 
L 254.94778 225.207949 
L 255.004338 223.101204 
L 255.065469 223.101204 
L 255.117906 220.99446 
L 255.215368 220.99446 
L 255.304866 218.887716 
L 255.346923 218.887716 
L 255.454504 216.254285 
L 255.460947 216.254285 
L 255.56242 214.147541 
L 255.572418 214.147541 
L 255.660565 209.934052 
L 255.692134 209.934052 
L 255.785609 206.24725 
L 255.809458 206.24725 
L 255.879873 202.560447 
L 255.927623 202.560447 
L 256.028958 200.980389 
L 256.050325 200.980389 
L 256.141894 198.873645 
L 256.161549 198.873645 
L 256.182991 197.820273 
L 256.276141 197.820273 
L 256.371006 194.13347 
L 256.392769 194.13347 
L 256.392769 193.606784 
L 256.585275 193.606784 
L 256.585275 193.080098 
L 256.785704 193.080098 
L 256.785704 192.553412 
L 256.90798 192.553412 
L 256.969852 190.973354 
L 257.031863 190.973354 
L 257.138928 189.393295 
L 257.223591 189.393295 
L 257.315733 187.286551 
L 257.371126 187.286551 
L 257.470523 185.706493 
L 257.50694 185.706493 
L 257.615937 183.599748 
L 257.649116 183.599748 
L 257.649116 183.073062 
L 268.685329 183.073062 
L 268.685329 182.546376 
L 268.912815 182.546376 
L 269.019326 177.806202 
L 269.050811 177.806202 
L 269.156217 172.012655 
L 269.177686 172.012655 
L 269.287136 163.585677 
L 269.337082 163.585677 
L 269.417917 159.898875 
L 269.49041 159.898875 
L 269.495251 158.845503 
L 269.604807 158.845503 
L 269.700095 157.265444 
L 269.746193 157.265444 
L 269.816211 155.1587 
L 269.889823 155.1587 
L 269.970802 151.471897 
L 270.011798 151.471897 
L 270.100933 147.785095 
L 270.132672 147.785095 
L 270.132672 147.258409 
L 276.421531 147.258409 
L 276.521969 145.678351 
L 276.539003 145.678351 
L 276.645194 139.884804 
L 276.651794 139.884804 
L 276.748979 134.091257 
L 276.767396 134.091257 
L 276.870474 128.29771 
L 276.907756 128.29771 
L 276.934168 126.190966 
L 277.023275 126.190966 
L 277.132505 123.557535 
L 277.166887 123.557535 
L 277.266926 117.763988 
L 277.282943 117.763988 
L 277.328006 114.603872 
L 281.812979 114.603872 
L 281.923522 111.443755 
L 281.926512 111.443755 
L 282.029927 105.123522 
L 282.038722 105.123522 
L 282.089895 102.490092 
L 282.19904 102.490092 
L 282.302197 97.749917 
L 282.350328 97.749917 
L 282.384663 95.643173 
L 285.902491 95.643173 
L 286.007708 89.32294 
L 286.014411 89.32294 
L 286.062924 86.68951 
L 286.175337 86.68951 
L 286.280347 83.002707 
L 289.129673 83.002707 
L 289.220392 79.315904 
L 289.246536 79.315904 
L 289.327296 75.102416 
L 289.401141 75.102416 
L 289.495672 70.362241 
L 289.524532 70.362241 
L 289.524532 69.835555 
L 291.894265 69.835555 
L 291.974225 67.202125 
L 292.006375 67.202125 
L 292.042878 64.568694 
L 292.160638 64.568694 
L 292.24367 61.408578 
L 294.311161 61.408578 
L 294.413566 56.668403 
L 294.49538 56.668403 
L 294.539875 54.561659 
L 296.381553 54.561659 
L 296.485494 49.294798 
L 296.509905 49.294798 
L 296.618384 47.188054 
L 298.265213 47.188054 
L 298.297557 44.027937 
L 298.468403 44.027937 
L 298.489593 42.447879 
L 299.95461 42.447879 
L 300.030151 40.341135 
L 300.083231 40.341135 
L 300.154411 39.287762 
L 301.578928 39.287762 
L 301.657862 37.181018 
L 302.908219 37.181018 
L 302.908219 36.654332 
L 304.231076 36.654332 
L 304.285327 35.60096 
L 304.353424 35.60096 
L 304.353424 35.074274 
L 305.438413 35.074274 
L 305.438413 34.547588 
L 306.657285 34.547588 
L 306.657285 34.020902 
L 307.668691 34.020902 
L 307.742847 32.967529 
L 309.637657 32.967529 
L 309.637657 32.440843 
L 310.600391 32.440843 
L 310.600391 31.914157 
L 312.181003 31.914157 
L 312.181003 31.387471 
L 315.138087 31.387471 
L 315.138087 30.860785 
L 317.084938 30.860785 
L 317.084938 30.334099 
L 338.688 30.334099 
L 338.688 30.334099 
" style="fill:none;stroke:#000080;stroke-linecap:square;stroke-width:1.5;"/>
   </g>
   <g id="line2d_41">
    <g>
     <use style="fill-opacity:0;stroke:#000080;stroke-width:1.5;" x="194.015367" xlink:href="#m95621deb51" y="247.328764"/>
     <use style="fill-opacity:0;stroke:#000080;stroke-width:1.5;" x="268.685329" xlink:href="#m95621deb51" y="183.073062"/>
     <use style="fill-opacity:0;stroke:#000080;stroke-width:1.5;" x="301.657862" xlink:href="#m95621deb51" y="37.707704"/>
     <use style="fill-opacity:0;stroke:#000080;stroke-width:1.5;" x="317.084938" xlink:href="#m95621deb51" y="30.334099"/>
     <use style="fill-opacity:0;stroke:#000080;stroke-width:1.5;" x="338.688" xlink:href="#m95621deb51" y="30.334099"/>
    </g>
   </g>
   <g id="line2d_42">
    <path style="fill:none;stroke:#000080;stroke-linecap:square;stroke-width:1.5;"/>
    <g/>
   </g>
   <g id="line2d_43">
    <path clip-path="url(#p8abca21e5c)" d="M 258.401114 183.073062 
" style="fill:none;stroke:#000080;stroke-linecap:square;stroke-width:1.5;"/>
    <g clip-path="url(#p8abca21e5c)">
     <use style="fill:#000080;stroke:#000080;" x="258.401114" xlink:href="#m59393a2dfb" y="183.073062"/>
    </g>
   </g>
   <g id="line2d_44">
    <defs>
     <path d="M 0 1.5 
C 0.397805 1.5 0.77937 1.341951 1.06066 1.06066 
C 1.341951 0.77937 1.5 0.397805 1.5 0 
C 1.5 -0.397805 1.341951 -0.77937 1.06066 -1.06066 
C 0.77937 -1.341951 0.397805 -1.5 0 -1.5 
C -0.397805 -1.5 -0.77937 -1.341951 -1.06066 -1.06066 
C -1.341951 -0.77937 -1.5 -0.397805 -1.5 0 
C -1.5 0.397805 -1.341951 0.77937 -1.06066 1.06066 
C -0.77937 1.341951 -0.397805 1.5 0 1.5 
z
" id="mff06ab29fe" style="stroke:#ff00ff;"/>
    </defs>
    <g>
     <use style="fill:#ff00ff;stroke:#ff00ff;" x="231.560335" xlink:href="#mff06ab29fe" y="246.275392"/>
     <use style="fill:#ff00ff;stroke:#ff00ff;" x="231.560335" xlink:href="#mff06ab29fe" y="246.275392"/>
    </g>
   </g>
   <g id="line2d_45">
    <path d="M 109.886961 298.944 
L 109.886961 298.417314 
L 111.30625 298.417314 
L 111.30625 297.363942 
L 112.204777 297.363942 
L 112.204777 296.837256 
L 112.655818 296.837256 
L 112.655818 295.257197 
L 112.803609 295.257197 
L 112.803609 294.730511 
L 113.059268 294.730511 
L 113.095487 292.097081 
L 113.27546 292.097081 
L 113.27546 291.570395 
L 113.453595 291.570395 
L 113.524343 290.517023 
L 113.664983 290.517023 
L 113.664983 287.883592 
L 113.873839 287.883592 
L 113.873839 286.303534 
L 114.148479 286.303534 
L 114.148479 285.776848 
L 114.317959 285.776848 
L 114.317959 285.250162 
L 114.849483 285.250162 
L 114.849483 284.723476 
L 115.269727 284.723476 
L 115.365285 282.090045 
L 115.648856 282.090045 
L 115.680082 281.036673 
L 115.897107 281.036673 
L 115.989297 278.403243 
L 116.019919 278.403243 
L 116.019919 277.876557 
L 116.293125 277.876557 
L 116.293125 277.349871 
L 116.472913 277.349871 
L 116.502698 276.296499 
L 116.621333 276.296499 
L 116.621333 275.243126 
L 116.739166 275.243126 
L 116.739166 274.71644 
L 116.856209 274.71644 
L 116.856209 274.189754 
L 117.087964 274.189754 
L 117.087964 273.663068 
L 117.231262 273.663068 
L 117.316679 271.029638 
L 117.40168 271.029638 
L 117.40168 270.502952 
L 117.654224 270.502952 
L 117.68206 267.869521 
L 117.792962 267.869521 
L 117.792962 266.289463 
L 118.310324 266.289463 
L 118.310324 265.762777 
L 119.45259 265.762777 
L 119.45259 265.236091 
L 119.577783 265.236091 
L 119.677294 263.656033 
L 119.80089 263.656033 
L 119.80089 262.075974 
L 120.069756 262.075974 
L 120.142369 260.495916 
L 120.262724 260.495916 
L 120.262724 259.96923 
L 120.453579 259.96923 
L 120.453579 259.442544 
L 120.852343 259.442544 
L 120.852343 258.389172 
L 121.512225 258.389172 
L 121.512225 257.3358 
L 124.482119 257.3358 
L 124.482119 256.809114 
L 127.421479 256.809114 
L 127.421479 256.282427 
L 129.546106 256.282427 
L 129.546106 255.755741 
L 131.490249 255.755741 
L 131.490249 255.229055 
L 132.350712 255.229055 
L 132.350712 254.702369 
L 133.0559 254.702369 
L 133.090422 253.648997 
L 133.49944 253.648997 
L 133.49944 253.122311 
L 135.035562 253.122311 
L 135.035562 252.595625 
L 135.681535 252.595625 
L 135.681535 252.068939 
L 137.325651 252.068939 
L 137.361683 251.015567 
L 137.753193 251.015567 
L 137.753193 250.488881 
L 142.752555 250.488881 
L 142.752555 249.962195 
L 163.517565 249.962195 
L 163.517565 249.435508 
L 166.579918 249.435508 
L 166.579918 248.908822 
L 167.853163 248.908822 
L 167.853163 248.382136 
L 176.846587 248.382136 
L 176.846587 247.85545 
L 180.601926 247.85545 
L 180.601926 247.328764 
L 220.555027 247.328764 
L 220.555027 246.802078 
L 231.560335 246.802078 
L 231.560335 246.275392 
L 338.688 246.275392 
L 338.688 246.275392 
" style="fill:none;stroke:#ff00ff;stroke-linecap:square;stroke-width:1.5;"/>
   </g>
   <g id="line2d_46">
    <defs>
     <path d="M -0 8.485281 
L 5.091169 0 
L 0 -8.485281 
L -5.091169 -0 
z
" id="m6ad1d2fff6" style="stroke:#ff00ff;stroke-linejoin:miter;stroke-width:1.5;"/>
    </defs>
    <g>
     <use style="fill-opacity:0;stroke:#ff00ff;stroke-linejoin:miter;stroke-width:1.5;" x="176.846587" xlink:href="#m6ad1d2fff6" y="248.382136"/>
     <use style="fill-opacity:0;stroke:#ff00ff;stroke-linejoin:miter;stroke-width:1.5;" x="231.560335" xlink:href="#m6ad1d2fff6" y="246.802078"/>
     <use style="fill-opacity:0;stroke:#ff00ff;stroke-linejoin:miter;stroke-width:1.5;" x="231.560335" xlink:href="#m6ad1d2fff6" y="246.275392"/>
     <use style="fill-opacity:0;stroke:#ff00ff;stroke-linejoin:miter;stroke-width:1.5;" x="231.560335" xlink:href="#m6ad1d2fff6" y="246.275392"/>
     <use style="fill-opacity:0;stroke:#ff00ff;stroke-linejoin:miter;stroke-width:1.5;" x="338.688" xlink:href="#m6ad1d2fff6" y="246.275392"/>
    </g>
   </g>
   <g id="line2d_47">
    <path style="fill:none;stroke:#ff00ff;stroke-linecap:square;stroke-width:1.5;"/>
    <g/>
   </g>
   <g id="line2d_48">
    <path clip-path="url(#p8abca21e5c)" d="M 218.211509 247.328764 
" style="fill:none;stroke:#ff00ff;stroke-linecap:square;stroke-width:1.5;"/>
    <defs>
     <path d="M -12 12 
L 12 -12 
M -12 -12 
L 12 12 
" id="m93e2bca81f" style="stroke:#ff00ff;"/>
    </defs>
    <g clip-path="url(#p8abca21e5c)">
     <use style="fill:#ff00ff;stroke:#ff00ff;" x="218.211509" xlink:href="#m93e2bca81f" y="247.328764"/>
    </g>
   </g>
   <g id="line2d_49">
    <defs>
     <path d="M 0 1.5 
C 0.397805 1.5 0.77937 1.341951 1.06066 1.06066 
C 1.341951 0.77937 1.5 0.397805 1.5 0 
C 1.5 -0.397805 1.341951 -0.77937 1.06066 -1.06066 
C 0.77937 -1.341951 0.397805 -1.5 0 -1.5 
C -0.397805 -1.5 -0.77937 -1.341951 -1.06066 -1.06066 
C -1.341951 -0.77937 -1.5 -0.397805 -1.5 0 
C -1.5 0.397805 -1.341951 0.77937 -1.06066 1.06066 
C -0.77937 1.341951 -0.397805 1.5 0 1.5 
z
" id="m51141a3c62" style="stroke:#ff0000;"/>
    </defs>
    <g>
     <use style="fill:#ff0000;stroke:#ff0000;" x="277.406225" xlink:href="#m51141a3c62" y="225.207949"/>
     <use style="fill:#ff0000;stroke:#ff0000;" x="277.406225" xlink:href="#m51141a3c62" y="225.207949"/>
    </g>
   </g>
   <g id="line2d_50">
    <path d="M 102.464508 298.944 
L 102.464508 296.837256 
L 102.989037 296.837256 
L 102.989037 296.31057 
L 103.809118 296.31057 
L 103.809118 295.783884 
L 104.053884 295.783884 
L 104.053884 295.257197 
L 104.295262 295.257197 
L 104.295262 293.150453 
L 104.709797 293.150453 
L 104.709797 292.097081 
L 105.057436 292.097081 
L 105.114708 289.990337 
L 105.171792 289.990337 
L 105.22869 288.936964 
L 105.787689 288.936964 
L 105.897371 286.83022 
L 105.951954 286.83022 
L 105.951954 283.670104 
L 106.48859 283.670104 
L 106.48859 283.143418 
L 107.263796 283.143418 
L 107.314272 281.563359 
L 108.006005 281.563359 
L 108.006005 281.036673 
L 108.294265 281.036673 
L 108.341848 278.403243 
L 108.436627 278.403243 
L 108.436627 277.876557 
L 108.671345 277.876557 
L 108.717912 276.296499 
L 108.856871 276.296499 
L 108.856871 275.769812 
L 109.176867 275.769812 
L 109.267226 272.08301 
L 109.31223 272.08301 
L 109.31223 270.502952 
L 109.491096 270.502952 
L 109.491096 269.976266 
L 109.886961 269.976266 
L 109.886961 269.449579 
L 110.941652 269.449579 
L 110.941652 268.396207 
L 112.051799 268.396207 
L 112.051799 267.342835 
L 112.204777 267.342835 
L 112.204777 266.816149 
L 112.72987 266.816149 
L 112.72987 265.236091 
L 113.13163 265.236091 
L 113.239614 261.549288 
L 113.346933 261.549288 
L 113.382559 259.96923 
L 113.629929 259.96923 
L 113.629929 259.442544 
L 113.839203 259.442544 
L 113.839203 258.915858 
L 114.216469 258.915858 
L 114.216469 258.389172 
L 114.418861 258.389172 
L 114.418861 257.862486 
L 114.97987 257.862486 
L 114.97987 257.3358 
L 115.173642 257.3358 
L 115.173642 256.809114 
L 119.173961 256.809114 
L 119.173961 256.282427 
L 125.805421 256.282427 
L 125.805421 255.755741 
L 127.035353 255.755741 
L 127.035353 255.229055 
L 127.309739 255.229055 
L 127.309739 254.702369 
L 128.650105 254.702369 
L 128.650105 254.175683 
L 129.190335 254.175683 
L 129.190335 253.648997 
L 130.384893 253.648997 
L 130.384893 253.122311 
L 131.056477 253.122311 
L 131.056477 252.595625 
L 131.465029 252.595625 
L 131.465029 252.068939 
L 131.802453 252.068939 
L 131.802453 251.542253 
L 132.326708 251.542253 
L 132.326708 251.015567 
L 132.565279 251.015567 
L 132.565279 250.488881 
L 132.812315 250.488881 
L 132.812315 249.962195 
L 138.918797 249.962195 
L 138.918797 249.435508 
L 161.005452 249.435508 
L 161.005452 248.908822 
L 176.056539 248.908822 
L 176.056539 248.382136 
L 176.229843 248.382136 
L 176.229843 247.85545 
L 176.70952 247.85545 
L 176.70952 247.328764 
L 187.607984 247.328764 
L 187.607984 246.802078 
L 201.709503 246.802078 
L 201.767617 245.748706 
L 202.057742 245.748706 
L 202.057742 245.22202 
L 202.456103 245.22202 
L 202.456103 244.695334 
L 202.701996 244.695334 
L 202.701996 244.168648 
L 204.92188 244.168648 
L 204.92188 243.641962 
L 213.666984 243.641962 
L 213.769037 242.061903 
L 215.168344 242.061903 
L 215.168344 241.535217 
L 215.702244 241.535217 
L 215.702244 241.008531 
L 216.682946 241.008531 
L 216.682946 240.481845 
L 216.94075 240.481845 
L 216.94075 239.955159 
L 217.406228 239.955159 
L 217.406228 239.428473 
L 225.333726 239.428473 
L 225.333726 238.901787 
L 225.464131 238.901787 
L 225.475812 237.848415 
L 225.829764 237.848415 
L 225.829764 237.321729 
L 226.372784 237.321729 
L 226.372784 236.795043 
L 226.663652 236.795043 
L 226.663652 236.268356 
L 226.78857 236.268356 
L 226.793958 235.214984 
L 227.07705 235.214984 
L 227.145085 234.161612 
L 227.410639 234.161612 
L 227.410639 233.634926 
L 227.566449 233.634926 
L 227.566449 233.10824 
L 237.005639 233.10824 
L 237.005639 232.581554 
L 240.695298 232.581554 
L 240.753699 231.528182 
L 241.033078 231.528182 
L 241.104876 230.47481 
L 253.478891 230.47481 
L 253.507032 229.421437 
L 253.880365 229.421437 
L 253.880365 228.894751 
L 257.894189 228.894751 
L 257.894189 228.368065 
L 261.053455 228.368065 
L 261.13303 227.314693 
L 268.311599 227.314693 
L 268.366927 226.261321 
L 271.91759 226.261321 
L 271.91759 225.734635 
L 277.406225 225.734635 
L 277.406225 225.207949 
L 338.688 225.207949 
L 338.688 225.207949 
" style="fill:none;stroke:#ff0000;stroke-linecap:square;stroke-width:1.5;"/>
   </g>
   <g id="line2d_51">
    <defs>
     <path d="M 0 -6 
L -5.196152 -3 
L -5.196152 3 
L -0 6 
L 5.196152 3 
L 5.196152 -3 
z
" id="m814b15ba23" style="stroke:#ff0000;stroke-linejoin:miter;stroke-width:1.5;"/>
    </defs>
    <g>
     <use style="fill-opacity:0;stroke:#ff0000;stroke-linejoin:miter;stroke-width:1.5;" x="138.918797" xlink:href="#m814b15ba23" y="249.962195"/>
     <use style="fill-opacity:0;stroke:#ff0000;stroke-linejoin:miter;stroke-width:1.5;" x="225.829764" xlink:href="#m814b15ba23" y="237.321729"/>
     <use style="fill-opacity:0;stroke:#ff0000;stroke-linejoin:miter;stroke-width:1.5;" x="277.406225" xlink:href="#m814b15ba23" y="225.734635"/>
     <use style="fill-opacity:0;stroke:#ff0000;stroke-linejoin:miter;stroke-width:1.5;" x="277.406225" xlink:href="#m814b15ba23" y="225.207949"/>
     <use style="fill-opacity:0;stroke:#ff0000;stroke-linejoin:miter;stroke-width:1.5;" x="338.688" xlink:href="#m814b15ba23" y="225.207949"/>
    </g>
   </g>
   <g id="line2d_52">
    <path style="fill:none;stroke:#ff0000;stroke-linecap:square;stroke-width:1.5;"/>
    <g/>
   </g>
   <g id="line2d_53">
    <path clip-path="url(#p8abca21e5c)" d="M 230.342849 233.10824 
" style="fill:none;stroke:#ff0000;stroke-linecap:square;stroke-width:1.5;"/>
    <defs>
     <path d="M -12 12 
L 12 -12 
M -12 -12 
L 12 12 
" id="mf7eb706649" style="stroke:#ff0000;"/>
    </defs>
    <g clip-path="url(#p8abca21e5c)">
     <use style="fill:#ff0000;stroke:#ff0000;" x="230.342849" xlink:href="#mf7eb706649" y="233.10824"/>
    </g>
   </g>
   <g id="line2d_54">
    <defs>
     <path d="M 0 1.5 
C 0.397805 1.5 0.77937 1.341951 1.06066 1.06066 
C 1.341951 0.77937 1.5 0.397805 1.5 0 
C 1.5 -0.397805 1.341951 -0.77937 1.06066 -1.06066 
C 0.77937 -1.341951 0.397805 -1.5 0 -1.5 
C -0.397805 -1.5 -0.77937 -1.341951 -1.06066 -1.06066 
C -1.341951 -0.77937 -1.5 -0.397805 -1.5 0 
C -1.5 0.397805 -1.341951 0.77937 -1.06066 1.06066 
C -0.77937 1.341951 -0.397805 1.5 0 1.5 
z
" id="m27391b9917" style="stroke:#ff7500;"/>
    </defs>
    <g>
     <use style="fill:#ff7500;stroke:#ff7500;" x="280.629057" xlink:href="#m27391b9917" y="230.47481"/>
     <use style="fill:#ff7500;stroke:#ff7500;" x="280.629057" xlink:href="#m27391b9917" y="230.47481"/>
    </g>
   </g>
   <g id="line2d_55">
    <path d="M 95.226283 298.944 
L 95.226283 296.837256 
L 97.842408 296.837256 
L 97.842408 296.31057 
L 100.268435 296.31057 
L 100.268435 294.730511 
L 101.079711 294.730511 
L 101.079711 293.150453 
L 101.365607 293.150453 
L 101.436355 291.043709 
L 102.12848 291.043709 
L 102.12848 288.936964 
L 102.330873 288.936964 
L 102.397818 285.776848 
L 102.530943 285.776848 
L 102.530943 283.670104 
L 102.924327 283.670104 
L 102.924327 283.143418 
L 103.245502 283.143418 
L 103.245502 282.616732 
L 103.809118 282.616732 
L 103.870632 280.509987 
L 103.93193 280.509987 
L 103.93193 279.456615 
L 104.053884 279.456615 
L 104.053884 276.296499 
L 104.295262 276.296499 
L 104.295262 273.136382 
L 104.651178 273.136382 
L 104.709797 271.556324 
L 104.826449 271.556324 
L 104.826449 271.029638 
L 104.942325 271.029638 
L 104.942325 270.502952 
L 105.621863 270.502952 
L 105.677314 268.922893 
L 105.897371 268.922893 
L 105.897371 267.869521 
L 106.593963 267.869521 
L 106.593963 267.342835 
L 106.750839 267.342835 
L 106.750839 265.236091 
L 106.906317 265.236091 
L 106.906317 264.709405 
L 107.414787 264.709405 
L 107.414787 264.182719 
L 108.102622 264.182719 
L 108.102622 262.075974 
L 108.717912 262.075974 
L 108.717912 261.549288 
L 109.31223 261.549288 
L 109.31223 261.022602 
L 109.71213 261.022602 
L 109.71213 260.495916 
L 110.016944 260.495916 
L 110.060057 257.862486 
L 110.188761 257.862486 
L 110.188761 257.3358 
L 112.356423 257.3358 
L 112.356423 256.809114 
L 123.94666 256.809114 
L 123.94666 256.282427 
L 125.019895 256.282427 
L 125.019895 255.755741 
L 126.640485 255.755741 
L 126.640485 255.229055 
L 126.855481 255.229055 
L 126.921104 254.175683 
L 128.350967 254.175683 
L 128.396166 253.122311 
L 130.155159 253.122311 
L 130.155159 252.595625 
L 132.928732 252.595625 
L 132.928732 252.068939 
L 133.113399 252.068939 
L 133.113399 251.542253 
L 133.689303 251.542253 
L 133.689303 251.015567 
L 160.78136 251.015567 
L 160.78136 250.488881 
L 161.051778 250.488881 
L 161.051778 249.962195 
L 161.467781 249.962195 
L 161.467781 249.435508 
L 162.316387 249.435508 
L 162.316387 248.908822 
L 176.246305 248.908822 
L 176.246305 248.382136 
L 189.341711 248.382136 
L 189.341711 247.85545 
L 202.788831 247.85545 
L 202.788831 247.328764 
L 203.608411 247.328764 
L 203.651895 246.275392 
L 205.122618 246.275392 
L 205.122618 245.748706 
L 206.017367 245.748706 
L 206.017367 245.22202 
L 214.070553 245.22202 
L 214.070553 244.695334 
L 214.300579 244.695334 
L 214.300579 244.168648 
L 214.605891 244.168648 
L 214.605891 243.641962 
L 214.759596 243.641962 
L 214.759596 243.115275 
L 215.197095 243.115275 
L 215.197095 242.588589 
L 215.763593 242.588589 
L 215.763593 242.061903 
L 216.895365 242.061903 
L 216.895365 241.535217 
L 217.339216 241.535217 
L 217.339216 241.008531 
L 226.564604 241.008531 
L 226.564604 240.481845 
L 227.066026 240.481845 
L 227.106936 239.428473 
L 227.307523 239.428473 
L 227.307523 238.901787 
L 227.446742 238.901787 
L 227.511562 237.848415 
L 227.699929 237.848415 
L 227.699929 237.321729 
L 228.08682 237.321729 
L 228.190514 236.268356 
L 240.972862 236.268356 
L 241.057059 235.214984 
L 241.164451 235.214984 
L 241.164451 234.688298 
L 241.385336 234.688298 
L 241.385336 234.161612 
L 248.458943 234.161612 
L 248.494586 233.10824 
L 248.759605 233.10824 
L 248.759605 232.581554 
L 253.73762 232.581554 
L 253.73762 232.054868 
L 268.315659 232.054868 
L 268.315659 231.528182 
L 273.504701 231.528182 
L 273.504701 231.001496 
L 280.629057 231.001496 
L 280.629057 230.47481 
L 338.688 230.47481 
L 338.688 230.47481 
" style="fill:none;stroke:#ff7500;stroke-linecap:square;stroke-width:1.5;"/>
   </g>
   <g id="line2d_56">
    <defs>
     <path d="M 0 -6 
L -1.347084 -1.854102 
L -5.706339 -1.854102 
L -2.179628 0.708204 
L -3.526712 4.854102 
L -0 2.291796 
L 3.526712 4.854102 
L 2.179628 0.708204 
L 5.706339 -1.854102 
L 1.347084 -1.854102 
z
" id="mb9a121bed3" style="stroke:#ff7500;stroke-linejoin:bevel;stroke-width:1.5;"/>
    </defs>
    <g>
     <use style="fill-opacity:0;stroke:#ff7500;stroke-linejoin:bevel;stroke-width:1.5;" x="176.246305" xlink:href="#mb9a121bed3" y="248.382136"/>
     <use style="fill-opacity:0;stroke:#ff7500;stroke-linejoin:bevel;stroke-width:1.5;" x="253.73762" xlink:href="#mb9a121bed3" y="232.581554"/>
     <use style="fill-opacity:0;stroke:#ff7500;stroke-linejoin:bevel;stroke-width:1.5;" x="280.629057" xlink:href="#mb9a121bed3" y="230.47481"/>
     <use style="fill-opacity:0;stroke:#ff7500;stroke-linejoin:bevel;stroke-width:1.5;" x="280.629057" xlink:href="#mb9a121bed3" y="230.47481"/>
     <use style="fill-opacity:0;stroke:#ff7500;stroke-linejoin:bevel;stroke-width:1.5;" x="338.688" xlink:href="#mb9a121bed3" y="230.47481"/>
    </g>
   </g>
   <g id="line2d_57">
    <path style="fill:none;stroke:#ff7500;stroke-linecap:square;stroke-width:1.5;"/>
    <g/>
   </g>
   <g id="line2d_58">
    <path clip-path="url(#p8abca21e5c)" d="M 230.325043 236.268356 
" style="fill:none;stroke:#ff7500;stroke-linecap:square;stroke-width:1.5;"/>
    <defs>
     <path d="M -12 12 
L 12 -12 
M -12 -12 
L 12 12 
" id="mafb0105796" style="stroke:#ff7500;"/>
    </defs>
    <g clip-path="url(#p8abca21e5c)">
     <use style="fill:#ff7500;stroke:#ff7500;" x="230.325043" xlink:href="#mafb0105796" y="236.268356"/>
    </g>
   </g>
   <g id="line2d_59">
    <path d="M 338.688 246.275392 
L 369.60768 293.571802 
" style="fill:none;stroke:#ff00ff;stroke-linecap:square;stroke-width:1.5;"/>
    <g>
     <use style="fill-opacity:0;stroke:#ff00ff;stroke-linejoin:miter;stroke-width:1.5;" x="338.688" xlink:href="#m6ad1d2fff6" y="246.275392"/>
     <use style="fill-opacity:0;stroke:#ff00ff;stroke-linejoin:miter;stroke-width:1.5;" x="369.60768" xlink:href="#m6ad1d2fff6" y="293.571802"/>
    </g>
   </g>
   <g id="line2d_60">
    <path d="M 338.688 230.47481 
L 369.60768 241.998701 
" style="fill:none;stroke:#ff7500;stroke-linecap:square;stroke-width:1.5;"/>
    <g>
     <use style="fill-opacity:0;stroke:#ff7500;stroke-linejoin:bevel;stroke-width:1.5;" x="338.688" xlink:href="#mb9a121bed3" y="230.47481"/>
     <use style="fill-opacity:0;stroke:#ff7500;stroke-linejoin:bevel;stroke-width:1.5;" x="369.60768" xlink:href="#mb9a121bed3" y="241.998701"/>
    </g>
   </g>
   <g id="line2d_61">
    <path d="M 338.688 230.47481 
L 369.60768 190.4256 
" style="fill:none;stroke:#000080;stroke-linecap:square;stroke-width:1.5;"/>
    <g>
     <use style="fill-opacity:0;stroke:#000080;stroke-width:1.5;" x="338.688" xlink:href="#m95621deb51" y="230.47481"/>
     <use style="fill-opacity:0;stroke:#000080;stroke-width:1.5;" x="369.60768" xlink:href="#m95621deb51" y="190.4256"/>
    </g>
   </g>
   <g id="line2d_62">
    <path d="M 338.688 225.207949 
L 369.60768 138.852499 
" style="fill:none;stroke:#ff0000;stroke-linecap:square;stroke-width:1.5;"/>
    <g>
     <use style="fill-opacity:0;stroke:#ff0000;stroke-linejoin:miter;stroke-width:1.5;" x="338.688" xlink:href="#m814b15ba23" y="225.207949"/>
     <use style="fill-opacity:0;stroke:#ff0000;stroke-linejoin:miter;stroke-width:1.5;" x="369.60768" xlink:href="#m814b15ba23" y="138.852499"/>
    </g>
   </g>
   <g id="line2d_63">
    <path d="M 338.688 30.334099 
L 369.60768 87.279398 
" style="fill:none;stroke:#000080;stroke-linecap:square;stroke-width:1.5;"/>
    <g>
     <use style="fill-opacity:0;stroke:#000080;stroke-width:1.5;" x="338.688" xlink:href="#m95621deb51" y="30.334099"/>
     <use style="fill-opacity:0;stroke:#000080;stroke-width:1.5;" x="369.60768" xlink:href="#m95621deb51" y="87.279398"/>
    </g>
   </g>
   <g id="line2d_64">
    <path d="M 338.688 298.944 
L 338.688 30.334099 
" style="fill:none;stroke:#000000;stroke-linecap:square;stroke-width:1.5;"/>
   </g>
   <g id="patch_3">
    <path d="M 57.6 298.944 
L 57.6 27.648 
" style="fill:none;stroke:#000000;stroke-linecap:square;stroke-linejoin:miter;stroke-width:0.8;"/>
   </g>
   <g id="patch_4">
    <path d="M 338.688 298.944 
L 338.688 27.648 
" style="fill:none;stroke:#000000;stroke-linecap:square;stroke-linejoin:miter;stroke-width:0.8;"/>
   </g>
   <g id="patch_5">
    <path d="M 57.6 298.944 
L 338.688 298.944 
" style="fill:none;stroke:#000000;stroke-linecap:square;stroke-linejoin:miter;stroke-width:0.8;"/>
   </g>
   <g id="patch_6">
    <path d="M 57.6 27.648 
L 338.688 27.648 
" style="fill:none;stroke:#000000;stroke-linecap:square;stroke-linejoin:miter;stroke-width:0.8;"/>
   </g>
   <g id="text_13">
    <!-- 400s-2e4 -->
    <g transform="translate(375.22944 298.262739)scale(0.17 -0.17)">
     <use xlink:href="#DejaVuSans-52"/>
     <use x="63.623047" xlink:href="#DejaVuSans-48"/>
     <use x="127.246094" xlink:href="#DejaVuSans-48"/>
     <use x="190.869141" xlink:href="#DejaVuSans-115"/>
     <use x="242.96875" xlink:href="#DejaVuSans-45"/>
     <use x="279.052734" xlink:href="#DejaVuSans-50"/>
     <use x="342.675781" xlink:href="#DejaVuSans-101"/>
     <use x="404.199219" xlink:href="#DejaVuSans-52"/>
    </g>
   </g>
   <g id="text_14">
    <!-- 140s-2e4 -->
    <g transform="translate(375.22944 246.689638)scale(0.17 -0.17)">
     <use xlink:href="#DejaVuSans-49"/>
     <use x="63.623047" xlink:href="#DejaVuSans-52"/>
     <use x="127.246094" xlink:href="#DejaVuSans-48"/>
     <use x="190.869141" xlink:href="#DejaVuSans-115"/>
     <use x="242.96875" xlink:href="#DejaVuSans-45"/>
     <use x="279.052734" xlink:href="#DejaVuSans-50"/>
     <use x="342.675781" xlink:href="#DejaVuSans-101"/>
     <use x="404.199219" xlink:href="#DejaVuSans-52"/>
    </g>
   </g>
   <g id="text_15">
    <!-- 100-2e4 -->
    <g transform="translate(375.22944 195.116537)scale(0.17 -0.17)">
     <use xlink:href="#DejaVuSans-49"/>
     <use x="63.623047" xlink:href="#DejaVuSans-48"/>
     <use x="127.246094" xlink:href="#DejaVuSans-48"/>
     <use x="190.869141" xlink:href="#DejaVuSans-45"/>
     <use x="226.953125" xlink:href="#DejaVuSans-50"/>
     <use x="290.576172" xlink:href="#DejaVuSans-101"/>
     <use x="352.099609" xlink:href="#DejaVuSans-52"/>
    </g>
   </g>
   <g id="text_16">
    <!-- 200s-2e4 -->
    <g transform="translate(375.22944 143.543437)scale(0.17 -0.17)">
     <use xlink:href="#DejaVuSans-50"/>
     <use x="63.623047" xlink:href="#DejaVuSans-48"/>
     <use x="127.246094" xlink:href="#DejaVuSans-48"/>
     <use x="190.869141" xlink:href="#DejaVuSans-115"/>
     <use x="242.96875" xlink:href="#DejaVuSans-45"/>
     <use x="279.052734" xlink:href="#DejaVuSans-50"/>
     <use x="342.675781" xlink:href="#DejaVuSans-101"/>
     <use x="404.199219" xlink:href="#DejaVuSans-52"/>
    </g>
   </g>
   <g id="text_17">
    <!-- 100-1e5 -->
    <defs>
     <path d="M 10.796875 72.90625 
L 49.515625 72.90625 
L 49.515625 64.59375 
L 19.828125 64.59375 
L 19.828125 46.734375 
Q 21.96875 47.46875 24.109375 47.828125 
Q 26.265625 48.1875 28.421875 48.1875 
Q 40.625 48.1875 47.75 41.5 
Q 54.890625 34.8125 54.890625 23.390625 
Q 54.890625 11.625 47.5625 5.09375 
Q 40.234375 -1.421875 26.90625 -1.421875 
Q 22.3125 -1.421875 17.546875 -0.640625 
Q 12.796875 0.140625 7.71875 1.703125 
L 7.71875 11.625 
Q 12.109375 9.234375 16.796875 8.0625 
Q 21.484375 6.890625 26.703125 6.890625 
Q 35.15625 6.890625 40.078125 11.328125 
Q 45.015625 15.765625 45.015625 23.390625 
Q 45.015625 31 40.078125 35.4375 
Q 35.15625 39.890625 26.703125 39.890625 
Q 22.75 39.890625 18.8125 39.015625 
Q 14.890625 38.140625 10.796875 36.28125 
z
" id="DejaVuSans-53"/>
    </defs>
    <g transform="translate(375.22944 91.970336)scale(0.17 -0.17)">
     <use xlink:href="#DejaVuSans-49"/>
     <use x="63.623047" xlink:href="#DejaVuSans-48"/>
     <use x="127.246094" xlink:href="#DejaVuSans-48"/>
     <use x="190.869141" xlink:href="#DejaVuSans-45"/>
     <use x="226.953125" xlink:href="#DejaVuSans-49"/>
     <use x="290.576172" xlink:href="#DejaVuSans-101"/>
     <use x="352.099609" xlink:href="#DejaVuSans-53"/>
    </g>
   </g>
   <g id="text_18">
    <!-- best 2009 -->
    <defs>
     <path d="M 48.6875 27.296875 
Q 48.6875 37.203125 44.609375 42.84375 
Q 40.53125 48.484375 33.40625 48.484375 
Q 26.265625 48.484375 22.1875 42.84375 
Q 18.109375 37.203125 18.109375 27.296875 
Q 18.109375 17.390625 22.1875 11.75 
Q 26.265625 6.109375 33.40625 6.109375 
Q 40.53125 6.109375 44.609375 11.75 
Q 48.6875 17.390625 48.6875 27.296875 
z
M 18.109375 46.390625 
Q 20.953125 51.265625 25.265625 53.625 
Q 29.59375 56 35.59375 56 
Q 45.5625 56 51.78125 48.09375 
Q 58.015625 40.1875 58.015625 27.296875 
Q 58.015625 14.40625 51.78125 6.484375 
Q 45.5625 -1.421875 35.59375 -1.421875 
Q 29.59375 -1.421875 25.265625 0.953125 
Q 20.953125 3.328125 18.109375 8.203125 
L 18.109375 0 
L 9.078125 0 
L 9.078125 75.984375 
L 18.109375 75.984375 
z
" id="DejaVuSans-98"/>
     <path d="M 10.984375 1.515625 
L 10.984375 10.5 
Q 14.703125 8.734375 18.5 7.8125 
Q 22.3125 6.890625 25.984375 6.890625 
Q 35.75 6.890625 40.890625 13.453125 
Q 46.046875 20.015625 46.78125 33.40625 
Q 43.953125 29.203125 39.59375 26.953125 
Q 35.25 24.703125 29.984375 24.703125 
Q 19.046875 24.703125 12.671875 31.3125 
Q 6.296875 37.9375 6.296875 49.421875 
Q 6.296875 60.640625 12.9375 67.421875 
Q 19.578125 74.21875 30.609375 74.21875 
Q 43.265625 74.21875 49.921875 64.515625 
Q 56.59375 54.828125 56.59375 36.375 
Q 56.59375 19.140625 48.40625 8.859375 
Q 40.234375 -1.421875 26.421875 -1.421875 
Q 22.703125 -1.421875 18.890625 -0.6875 
Q 15.09375 0.046875 10.984375 1.515625 
z
M 30.609375 32.421875 
Q 37.25 32.421875 41.125 36.953125 
Q 45.015625 41.5 45.015625 49.421875 
Q 45.015625 57.28125 41.125 61.84375 
Q 37.25 66.40625 30.609375 66.40625 
Q 23.96875 66.40625 20.09375 61.84375 
Q 16.21875 57.28125 16.21875 49.421875 
Q 16.21875 41.5 20.09375 36.953125 
Q 23.96875 32.421875 30.609375 32.421875 
z
" id="DejaVuSans-57"/>
    </defs>
    <g transform="translate(375.22944 40.397235)scale(0.17 -0.17)">
     <use xlink:href="#DejaVuSans-98"/>
     <use x="63.476562" xlink:href="#DejaVuSans-101"/>
     <use x="125" xlink:href="#DejaVuSans-115"/>
     <use x="177.099609" xlink:href="#DejaVuSans-116"/>
     <use x="216.308594" xlink:href="#DejaVuSans-32"/>
     <use x="248.095703" xlink:href="#DejaVuSans-50"/>
     <use x="311.71875" xlink:href="#DejaVuSans-48"/>
     <use x="375.341797" xlink:href="#DejaVuSans-48"/>
     <use x="438.964844" xlink:href="#DejaVuSans-57"/>
    </g>
   </g>
   <g id="text_19">
    <!-- bbob f20, 20-D -->
    <defs>
     <path d="M 19.671875 64.796875 
L 19.671875 8.109375 
L 31.59375 8.109375 
Q 46.6875 8.109375 53.6875 14.9375 
Q 60.6875 21.78125 60.6875 36.53125 
Q 60.6875 51.171875 53.6875 57.984375 
Q 46.6875 64.796875 31.59375 64.796875 
z
M 9.8125 72.90625 
L 30.078125 72.90625 
Q 51.265625 72.90625 61.171875 64.09375 
Q 71.09375 55.28125 71.09375 36.53125 
Q 71.09375 17.671875 61.125 8.828125 
Q 51.171875 0 30.078125 0 
L 9.8125 0 
z
" id="DejaVuSans-68"/>
    </defs>
    <g transform="translate(60.41088 38.111366)scale(0.102 -0.102)">
     <use xlink:href="#DejaVuSans-98"/>
     <use x="63.476562" xlink:href="#DejaVuSans-98"/>
     <use x="126.953125" xlink:href="#DejaVuSans-111"/>
     <use x="188.134766" xlink:href="#DejaVuSans-98"/>
     <use x="251.611328" xlink:href="#DejaVuSans-32"/>
     <use x="283.398438" xlink:href="#DejaVuSans-102"/>
     <use x="318.603516" xlink:href="#DejaVuSans-50"/>
     <use x="382.226562" xlink:href="#DejaVuSans-48"/>
     <use x="445.849609" xlink:href="#DejaVuSans-44"/>
     <use x="477.636719" xlink:href="#DejaVuSans-32"/>
     <use x="509.423828" xlink:href="#DejaVuSans-50"/>
     <use x="573.046875" xlink:href="#DejaVuSans-48"/>
     <use x="636.669922" xlink:href="#DejaVuSans-45"/>
     <use x="672.753906" xlink:href="#DejaVuSans-68"/>
    </g>
    <!-- 51 targets: 100..1e-08 -->
    <defs>
     <path d="M 11.71875 12.40625 
L 22.015625 12.40625 
L 22.015625 0 
L 11.71875 0 
z
M 11.71875 51.703125 
L 22.015625 51.703125 
L 22.015625 39.3125 
L 11.71875 39.3125 
z
" id="DejaVuSans-58"/>
    </defs>
    <g transform="translate(60.41088 49.533135)scale(0.102 -0.102)">
     <use xlink:href="#DejaVuSans-53"/>
     <use x="63.623047" xlink:href="#DejaVuSans-49"/>
     <use x="127.246094" xlink:href="#DejaVuSans-32"/>
     <use x="159.033203" xlink:href="#DejaVuSans-116"/>
     <use x="198.242188" xlink:href="#DejaVuSans-97"/>
     <use x="259.521484" xlink:href="#DejaVuSans-114"/>
     <use x="300.619141" xlink:href="#DejaVuSans-103"/>
     <use x="364.095703" xlink:href="#DejaVuSans-101"/>
     <use x="425.619141" xlink:href="#DejaVuSans-116"/>
     <use x="464.828125" xlink:href="#DejaVuSans-115"/>
     <use x="516.927734" xlink:href="#DejaVuSans-58"/>
     <use x="550.619141" xlink:href="#DejaVuSans-32"/>
     <use x="582.40625" xlink:href="#DejaVuSans-49"/>
     <use x="646.029297" xlink:href="#DejaVuSans-48"/>
     <use x="709.652344" xlink:href="#DejaVuSans-48"/>
     <use x="773.275391" xlink:href="#DejaVuSans-46"/>
     <use x="805.0625" xlink:href="#DejaVuSans-46"/>
     <use x="836.849609" xlink:href="#DejaVuSans-49"/>
     <use x="900.472656" xlink:href="#DejaVuSans-101"/>
     <use x="961.996094" xlink:href="#DejaVuSans-45"/>
     <use x="998.080078" xlink:href="#DejaVuSans-48"/>
     <use x="1061.703125" xlink:href="#DejaVuSans-56"/>
    </g>
    <!-- 15 instances -->
    <g transform="translate(60.41088 60.954904)scale(0.102 -0.102)">
     <use xlink:href="#DejaVuSans-49"/>
     <use x="63.623047" xlink:href="#DejaVuSans-53"/>
     <use x="127.246094" xlink:href="#DejaVuSans-32"/>
     <use x="159.033203" xlink:href="#DejaVuSans-105"/>
     <use x="186.816406" xlink:href="#DejaVuSans-110"/>
     <use x="250.195312" xlink:href="#DejaVuSans-115"/>
     <use x="302.294922" xlink:href="#DejaVuSans-116"/>
     <use x="341.503906" xlink:href="#DejaVuSans-97"/>
     <use x="402.783203" xlink:href="#DejaVuSans-110"/>
     <use x="466.162109" xlink:href="#DejaVuSans-99"/>
     <use x="521.142578" xlink:href="#DejaVuSans-101"/>
     <use x="582.666016" xlink:href="#DejaVuSans-115"/>
    </g>
   </g>
   <g id="text_20">
    <!-- v2.3.3.18.73 -->
    <defs>
     <path d="M 40.578125 39.3125 
Q 47.65625 37.796875 51.625 33 
Q 55.609375 28.21875 55.609375 21.1875 
Q 55.609375 10.40625 48.1875 4.484375 
Q 40.765625 -1.421875 27.09375 -1.421875 
Q 22.515625 -1.421875 17.65625 -0.515625 
Q 12.796875 0.390625 7.625 2.203125 
L 7.625 11.71875 
Q 11.71875 9.328125 16.59375 8.109375 
Q 21.484375 6.890625 26.8125 6.890625 
Q 36.078125 6.890625 40.9375 10.546875 
Q 45.796875 14.203125 45.796875 21.1875 
Q 45.796875 27.640625 41.28125 31.265625 
Q 36.765625 34.90625 28.71875 34.90625 
L 20.21875 34.90625 
L 20.21875 43.015625 
L 29.109375 43.015625 
Q 36.375 43.015625 40.234375 45.921875 
Q 44.09375 48.828125 44.09375 54.296875 
Q 44.09375 59.90625 40.109375 62.90625 
Q 36.140625 65.921875 28.71875 65.921875 
Q 24.65625 65.921875 20.015625 65.03125 
Q 15.375 64.15625 9.8125 62.3125 
L 9.8125 71.09375 
Q 15.4375 72.65625 20.34375 73.4375 
Q 25.25 74.21875 29.59375 74.21875 
Q 40.828125 74.21875 47.359375 69.109375 
Q 53.90625 64.015625 53.90625 55.328125 
Q 53.90625 49.265625 50.4375 45.09375 
Q 46.96875 40.921875 40.578125 39.3125 
z
" id="DejaVuSans-51"/>
     <path d="M 8.203125 72.90625 
L 55.078125 72.90625 
L 55.078125 68.703125 
L 28.609375 0 
L 18.3125 0 
L 43.21875 64.59375 
L 8.203125 64.59375 
z
" id="DejaVuSans-55"/>
    </defs>
    <g style="fill:#808080;" transform="translate(166.559625 294.151352)scale(0.1 -0.1)">
     <use xlink:href="#DejaVuSans-118"/>
     <use x="59.179688" xlink:href="#DejaVuSans-50"/>
     <use x="122.802734" xlink:href="#DejaVuSans-46"/>
     <use x="154.589844" xlink:href="#DejaVuSans-51"/>
     <use x="218.212891" xlink:href="#DejaVuSans-46"/>
     <use x="250" xlink:href="#DejaVuSans-51"/>
     <use x="313.623047" xlink:href="#DejaVuSans-46"/>
     <use x="345.410156" xlink:href="#DejaVuSans-49"/>
     <use x="409.033203" xlink:href="#DejaVuSans-56"/>
     <use x="472.65625" xlink:href="#DejaVuSans-46"/>
     <use x="504.443359" xlink:href="#DejaVuSans-55"/>
     <use x="568.066406" xlink:href="#DejaVuSans-51"/>
    </g>
   </g>
   <g id="text_21">
    <!-- 20 Schwefel x*sin(x) -->
    <defs>
     <path d="M 53.515625 70.515625 
L 53.515625 60.890625 
Q 47.90625 63.578125 42.921875 64.890625 
Q 37.9375 66.21875 33.296875 66.21875 
Q 25.25 66.21875 20.875 63.09375 
Q 16.5 59.96875 16.5 54.203125 
Q 16.5 49.359375 19.40625 46.890625 
Q 22.3125 44.4375 30.421875 42.921875 
L 36.375 41.703125 
Q 47.40625 39.59375 52.65625 34.296875 
Q 57.90625 29 57.90625 20.125 
Q 57.90625 9.515625 50.796875 4.046875 
Q 43.703125 -1.421875 29.984375 -1.421875 
Q 24.8125 -1.421875 18.96875 -0.25 
Q 13.140625 0.921875 6.890625 3.21875 
L 6.890625 13.375 
Q 12.890625 10.015625 18.65625 8.296875 
Q 24.421875 6.59375 29.984375 6.59375 
Q 38.421875 6.59375 43.015625 9.90625 
Q 47.609375 13.234375 47.609375 19.390625 
Q 47.609375 24.75 44.3125 27.78125 
Q 41.015625 30.8125 33.5 32.328125 
L 27.484375 33.5 
Q 16.453125 35.6875 11.515625 40.375 
Q 6.59375 45.0625 6.59375 53.421875 
Q 6.59375 63.09375 13.40625 68.65625 
Q 20.21875 74.21875 32.171875 74.21875 
Q 37.3125 74.21875 42.625 73.28125 
Q 47.953125 72.359375 53.515625 70.515625 
z
" id="DejaVuSans-83"/>
     <path d="M 54.890625 33.015625 
L 54.890625 0 
L 45.90625 0 
L 45.90625 32.71875 
Q 45.90625 40.484375 42.875 44.328125 
Q 39.84375 48.1875 33.796875 48.1875 
Q 26.515625 48.1875 22.3125 43.546875 
Q 18.109375 38.921875 18.109375 30.90625 
L 18.109375 0 
L 9.078125 0 
L 9.078125 75.984375 
L 18.109375 75.984375 
L 18.109375 46.1875 
Q 21.34375 51.125 25.703125 53.5625 
Q 30.078125 56 35.796875 56 
Q 45.21875 56 50.046875 50.171875 
Q 54.890625 44.34375 54.890625 33.015625 
z
" id="DejaVuSans-104"/>
     <path d="M 4.203125 54.6875 
L 13.1875 54.6875 
L 24.421875 12.015625 
L 35.59375 54.6875 
L 46.1875 54.6875 
L 57.421875 12.015625 
L 68.609375 54.6875 
L 77.59375 54.6875 
L 63.28125 0 
L 52.6875 0 
L 40.921875 44.828125 
L 29.109375 0 
L 18.5 0 
z
" id="DejaVuSans-119"/>
     <path d="M 54.890625 54.6875 
L 35.109375 28.078125 
L 55.90625 0 
L 45.3125 0 
L 29.390625 21.484375 
L 13.484375 0 
L 2.875 0 
L 24.125 28.609375 
L 4.6875 54.6875 
L 15.28125 54.6875 
L 29.78125 35.203125 
L 44.28125 54.6875 
z
" id="DejaVuSans-120"/>
     <path d="M 47.015625 60.890625 
L 29.5 51.421875 
L 47.015625 41.890625 
L 44.1875 37.109375 
L 27.78125 47.015625 
L 27.78125 28.609375 
L 22.21875 28.609375 
L 22.21875 47.015625 
L 5.8125 37.109375 
L 2.984375 41.890625 
L 20.515625 51.421875 
L 2.984375 60.890625 
L 5.8125 65.71875 
L 22.21875 55.8125 
L 22.21875 74.21875 
L 27.78125 74.21875 
L 27.78125 55.8125 
L 44.1875 65.71875 
z
" id="DejaVuSans-42"/>
    </defs>
    <g transform="translate(95.129937 21.648)scale(0.2 -0.2)">
     <use xlink:href="#DejaVuSans-50"/>
     <use x="63.623047" xlink:href="#DejaVuSans-48"/>
     <use x="127.246094" xlink:href="#DejaVuSans-32"/>
     <use x="159.033203" xlink:href="#DejaVuSans-83"/>
     <use x="222.509766" xlink:href="#DejaVuSans-99"/>
     <use x="277.490234" xlink:href="#DejaVuSans-104"/>
     <use x="340.869141" xlink:href="#DejaVuSans-119"/>
     <use x="422.65625" xlink:href="#DejaVuSans-101"/>
     <use x="484.179688" xlink:href="#DejaVuSans-102"/>
     <use x="519.384766" xlink:href="#DejaVuSans-101"/>
     <use x="580.908203" xlink:href="#DejaVuSans-108"/>
     <use x="608.691406" xlink:href="#DejaVuSans-32"/>
     <use x="640.478516" xlink:href="#DejaVuSans-120"/>
     <use x="699.658203" xlink:href="#DejaVuSans-42"/>
     <use x="749.658203" xlink:href="#DejaVuSans-115"/>
     <use x="801.757812" xlink:href="#DejaVuSans-105"/>
     <use x="829.541016" xlink:href="#DejaVuSans-110"/>
     <use x="892.919922" xlink:href="#DejaVuSans-40"/>
     <use x="931.933594" xlink:href="#DejaVuSans-120"/>
     <use x="991.113281" xlink:href="#DejaVuSans-41"/>
    </g>
   </g>
  </g>
 </g>
 <defs>
  <clipPath id="p8abca21e5c">
   <rect height="271.296" width="281.088" x="57.6" y="27.648"/>
  </clipPath>
 </defs>
</svg>
