<?xml version="1.0" encoding="utf-8" standalone="no"?>
<!DOCTYPE svg PUBLIC "-//W3C//DTD SVG 1.1//EN"
  "http://www.w3.org/Graphics/SVG/1.1/DTD/svg11.dtd">
<!-- Created with matplotlib (https://matplotlib.org/) -->
<svg height="345.6pt" version="1.1" viewBox="0 0 460.8 345.6" width="460.8pt" xmlns="http://www.w3.org/2000/svg" xmlns:xlink="http://www.w3.org/1999/xlink">
 <defs>
  <style type="text/css">
*{stroke-linecap:butt;stroke-linejoin:round;}
  </style>
 </defs>
 <g id="figure_1">
  <g id="patch_1">
   <path d="M 0 345.6 
L 460.8 345.6 
L 460.8 0 
L 0 0 
z
" style="fill:#ffffff;"/>
  </g>
  <g id="axes_1">
   <g id="patch_2">
    <path d="M 57.6 298.944 
L 338.688 298.944 
L 338.688 27.648 
L 57.6 27.648 
z
" style="fill:#ffffff;"/>
   </g>
   <g id="line2d_1">
    <path d="M 134.776584 298.944 
L 134.776584 293.677139 
L 139.285267 293.677139 
L 139.285267 288.410278 
L 148.549469 288.410278 
L 148.549469 283.143418 
L 160.408554 283.143418 
L 160.408554 277.876557 
L 175.519995 277.876557 
L 175.519995 272.609696 
L 185.355668 272.609696 
L 185.355668 267.342835 
L 194.586262 267.342835 
L 194.586262 262.075974 
L 203.250203 262.075974 
L 203.250203 256.809114 
L 207.531974 256.809114 
L 207.531974 251.542253 
L 212.37314 251.542253 
L 212.37314 246.275392 
L 212.79753 246.275392 
L 212.79753 241.008531 
L 223.933015 241.008531 
L 223.933015 235.74167 
L 223.967608 235.74167 
L 223.967608 230.47481 
L 224.029966 230.47481 
L 224.029966 225.207949 
L 225.901486 225.207949 
L 225.901486 219.941088 
L 225.951432 219.941088 
L 225.951432 214.674227 
L 226.005812 214.674227 
L 226.005812 209.407366 
L 226.049339 209.407366 
L 226.049339 204.140506 
L 226.085483 204.140506 
L 226.085483 198.873645 
L 226.138339 198.873645 
L 226.138339 193.606784 
L 226.175238 193.606784 
L 226.175238 188.339923 
L 226.23135 188.339923 
L 226.23135 183.073062 
L 226.274044 183.073062 
L 226.274044 177.806202 
L 226.322114 177.806202 
L 226.322114 172.539341 
L 226.369123 172.539341 
L 226.369123 167.27248 
L 226.414206 167.27248 
L 226.414206 162.005619 
L 226.457108 162.005619 
L 226.457108 156.738758 
L 226.499307 156.738758 
L 226.499307 151.471897 
L 226.513622 151.471897 
L 226.513622 146.205037 
L 226.544164 146.205037 
L 226.544164 140.938176 
L 226.564928 140.938176 
L 226.564928 135.671315 
L 226.578002 135.671315 
L 226.578002 130.404454 
L 228.643036 130.404454 
L 228.643036 125.137593 
L 228.649271 125.137593 
L 228.649271 119.870733 
L 232.304671 119.870733 
L 232.304671 114.603872 
L 232.340874 114.603872 
L 232.340874 109.337011 
L 232.382888 109.337011 
L 232.382888 104.07015 
L 232.421016 104.07015 
L 232.421016 98.803289 
L 232.44599 98.803289 
L 232.44599 93.536429 
L 232.486174 93.536429 
L 232.486174 88.269568 
L 232.525958 88.269568 
L 232.525958 83.002707 
L 232.558947 83.002707 
L 232.558947 77.735846 
L 232.605294 77.735846 
L 232.605294 72.468985 
L 232.639849 72.468985 
L 232.639849 67.202125 
L 232.678714 67.202125 
L 232.678714 61.935264 
L 232.711871 61.935264 
L 232.711871 56.668403 
L 232.750235 56.668403 
L 232.750235 51.401542 
L 232.779435 51.401542 
L 232.779435 46.134681 
L 232.81293 46.134681 
L 232.81293 40.867821 
L 232.858984 40.867821 
L 232.858984 35.60096 
L 232.892553 35.60096 
L 232.892553 30.334099 
L 338.688 30.334099 
" style="fill:none;stroke:#f5deb3;stroke-linecap:square;stroke-width:4;"/>
   </g>
   <g id="line2d_2">
    <defs>
     <path d="M -0 7.778175 
L 7.778175 0 
L 0 -7.778175 
L -7.778175 -0 
z
" id="md52a02f24c" style="stroke:#f5deb3;stroke-linejoin:miter;stroke-width:1.5;"/>
    </defs>
    <g>
     <use style="fill:#f5deb3;stroke:#f5deb3;stroke-linejoin:miter;stroke-width:1.5;" x="203.250203" xlink:href="#md52a02f24c" y="256.809114"/>
     <use style="fill:#f5deb3;stroke:#f5deb3;stroke-linejoin:miter;stroke-width:1.5;" x="232.44599" xlink:href="#md52a02f24c" y="93.536429"/>
     <use style="fill:#f5deb3;stroke:#f5deb3;stroke-linejoin:miter;stroke-width:1.5;" x="232.892553" xlink:href="#md52a02f24c" y="30.334099"/>
     <use style="fill:#f5deb3;stroke:#f5deb3;stroke-linejoin:miter;stroke-width:1.5;" x="232.892553" xlink:href="#md52a02f24c" y="30.334099"/>
     <use style="fill:#f5deb3;stroke:#f5deb3;stroke-linejoin:miter;stroke-width:1.5;" x="338.688" xlink:href="#md52a02f24c" y="30.334099"/>
    </g>
   </g>
   <g id="line2d_3">
    <path style="fill:none;stroke:#f5deb3;stroke-linecap:square;stroke-width:4;"/>
    <g/>
   </g>
   <g id="line2d_4">
    <path d="M 338.688 30.334099 
L 369.60768 87.279398 
" style="fill:none;stroke:#f5deb3;stroke-linecap:square;stroke-width:4;"/>
    <g>
     <use style="fill:#f5deb3;stroke:#f5deb3;stroke-linejoin:miter;stroke-width:1.5;" x="338.688" xlink:href="#md52a02f24c" y="30.334099"/>
     <use style="fill:#f5deb3;stroke:#f5deb3;stroke-linejoin:miter;stroke-width:1.5;" x="369.60768" xlink:href="#md52a02f24c" y="87.279398"/>
    </g>
   </g>
   <g id="matplotlib.axis_1">
    <g id="xtick_1">
     <g id="line2d_5">
      <path clip-path="url(#p08eeec1f42)" d="M 57.6 298.944 
L 57.6 27.648 
" style="fill:none;stroke:#b0b0b0;stroke-linecap:square;stroke-width:0.8;"/>
     </g>
     <g id="line2d_6">
      <defs>
       <path d="M 0 0 
L 0 3.5 
" id="me832eba305" style="stroke:#000000;stroke-width:0.8;"/>
      </defs>
      <g>
       <use style="stroke:#000000;stroke-width:0.8;" x="57.6" xlink:href="#me832eba305" y="298.944"/>
      </g>
     </g>
     <g id="text_1">
      <!-- 0 -->
      <defs>
       <path d="M 31.78125 66.40625 
Q 24.171875 66.40625 20.328125 58.90625 
Q 16.5 51.421875 16.5 36.375 
Q 16.5 21.390625 20.328125 13.890625 
Q 24.171875 6.390625 31.78125 6.390625 
Q 39.453125 6.390625 43.28125 13.890625 
Q 47.125 21.390625 47.125 36.375 
Q 47.125 51.421875 43.28125 58.90625 
Q 39.453125 66.40625 31.78125 66.40625 
z
M 31.78125 74.21875 
Q 44.046875 74.21875 50.515625 64.515625 
Q 56.984375 54.828125 56.984375 36.375 
Q 56.984375 17.96875 50.515625 8.265625 
Q 44.046875 -1.421875 31.78125 -1.421875 
Q 19.53125 -1.421875 13.0625 8.265625 
Q 6.59375 17.96875 6.59375 36.375 
Q 6.59375 54.828125 13.0625 64.515625 
Q 19.53125 74.21875 31.78125 74.21875 
z
" id="DejaVuSans-48"/>
      </defs>
      <g transform="translate(51.2375 321.140875)scale(0.2 -0.2)">
       <use xlink:href="#DejaVuSans-48"/>
      </g>
     </g>
    </g>
    <g id="xtick_2">
     <g id="line2d_7">
      <path clip-path="url(#p08eeec1f42)" d="M 137.910857 298.944 
L 137.910857 27.648 
" style="fill:none;stroke:#b0b0b0;stroke-linecap:square;stroke-width:0.8;"/>
     </g>
     <g id="line2d_8">
      <g>
       <use style="stroke:#000000;stroke-width:0.8;" x="137.910857" xlink:href="#me832eba305" y="298.944"/>
      </g>
     </g>
     <g id="text_2">
      <!-- 2 -->
      <defs>
       <path d="M 19.1875 8.296875 
L 53.609375 8.296875 
L 53.609375 0 
L 7.328125 0 
L 7.328125 8.296875 
Q 12.9375 14.109375 22.625 23.890625 
Q 32.328125 33.6875 34.8125 36.53125 
Q 39.546875 41.84375 41.421875 45.53125 
Q 43.3125 49.21875 43.3125 52.78125 
Q 43.3125 58.59375 39.234375 62.25 
Q 35.15625 65.921875 28.609375 65.921875 
Q 23.96875 65.921875 18.8125 64.3125 
Q 13.671875 62.703125 7.8125 59.421875 
L 7.8125 69.390625 
Q 13.765625 71.78125 18.9375 73 
Q 24.125 74.21875 28.421875 74.21875 
Q 39.75 74.21875 46.484375 68.546875 
Q 53.21875 62.890625 53.21875 53.421875 
Q 53.21875 48.921875 51.53125 44.890625 
Q 49.859375 40.875 45.40625 35.40625 
Q 44.1875 33.984375 37.640625 27.21875 
Q 31.109375 20.453125 19.1875 8.296875 
z
" id="DejaVuSans-50"/>
      </defs>
      <g transform="translate(131.548357 321.140875)scale(0.2 -0.2)">
       <use xlink:href="#DejaVuSans-50"/>
      </g>
     </g>
    </g>
    <g id="xtick_3">
     <g id="line2d_9">
      <path clip-path="url(#p08eeec1f42)" d="M 218.221714 298.944 
L 218.221714 27.648 
" style="fill:none;stroke:#b0b0b0;stroke-linecap:square;stroke-width:0.8;"/>
     </g>
     <g id="line2d_10">
      <g>
       <use style="stroke:#000000;stroke-width:0.8;" x="218.221714" xlink:href="#me832eba305" y="298.944"/>
      </g>
     </g>
     <g id="text_3">
      <!-- 4 -->
      <defs>
       <path d="M 37.796875 64.3125 
L 12.890625 25.390625 
L 37.796875 25.390625 
z
M 35.203125 72.90625 
L 47.609375 72.90625 
L 47.609375 25.390625 
L 58.015625 25.390625 
L 58.015625 17.1875 
L 47.609375 17.1875 
L 47.609375 0 
L 37.796875 0 
L 37.796875 17.1875 
L 4.890625 17.1875 
L 4.890625 26.703125 
z
" id="DejaVuSans-52"/>
      </defs>
      <g transform="translate(211.859214 321.140875)scale(0.2 -0.2)">
       <use xlink:href="#DejaVuSans-52"/>
      </g>
     </g>
    </g>
    <g id="xtick_4">
     <g id="line2d_11">
      <path clip-path="url(#p08eeec1f42)" d="M 298.532571 298.944 
L 298.532571 27.648 
" style="fill:none;stroke:#b0b0b0;stroke-linecap:square;stroke-width:0.8;"/>
     </g>
     <g id="line2d_12">
      <g>
       <use style="stroke:#000000;stroke-width:0.8;" x="298.532571" xlink:href="#me832eba305" y="298.944"/>
      </g>
     </g>
     <g id="text_4">
      <!-- 6 -->
      <defs>
       <path d="M 33.015625 40.375 
Q 26.375 40.375 22.484375 35.828125 
Q 18.609375 31.296875 18.609375 23.390625 
Q 18.609375 15.53125 22.484375 10.953125 
Q 26.375 6.390625 33.015625 6.390625 
Q 39.65625 6.390625 43.53125 10.953125 
Q 47.40625 15.53125 47.40625 23.390625 
Q 47.40625 31.296875 43.53125 35.828125 
Q 39.65625 40.375 33.015625 40.375 
z
M 52.59375 71.296875 
L 52.59375 62.3125 
Q 48.875 64.0625 45.09375 64.984375 
Q 41.3125 65.921875 37.59375 65.921875 
Q 27.828125 65.921875 22.671875 59.328125 
Q 17.53125 52.734375 16.796875 39.40625 
Q 19.671875 43.65625 24.015625 45.921875 
Q 28.375 48.1875 33.59375 48.1875 
Q 44.578125 48.1875 50.953125 41.515625 
Q 57.328125 34.859375 57.328125 23.390625 
Q 57.328125 12.15625 50.6875 5.359375 
Q 44.046875 -1.421875 33.015625 -1.421875 
Q 20.359375 -1.421875 13.671875 8.265625 
Q 6.984375 17.96875 6.984375 36.375 
Q 6.984375 53.65625 15.1875 63.9375 
Q 23.390625 74.21875 37.203125 74.21875 
Q 40.921875 74.21875 44.703125 73.484375 
Q 48.484375 72.75 52.59375 71.296875 
z
" id="DejaVuSans-54"/>
      </defs>
      <g transform="translate(292.170071 321.140875)scale(0.2 -0.2)">
       <use xlink:href="#DejaVuSans-54"/>
      </g>
     </g>
    </g>
    <g id="xtick_5">
     <g id="line2d_13">
      <path clip-path="url(#p08eeec1f42)" d="M 97.755429 298.944 
L 97.755429 27.648 
" style="fill:none;stroke:#b0b0b0;stroke-linecap:square;stroke-width:0.8;"/>
     </g>
     <g id="line2d_14">
      <defs>
       <path d="M 0 0 
L 0 2 
" id="m24fc11abc9" style="stroke:#000000;stroke-width:0.6;"/>
      </defs>
      <g>
       <use style="stroke:#000000;stroke-width:0.6;" x="97.755429" xlink:href="#m24fc11abc9" y="298.944"/>
      </g>
     </g>
    </g>
    <g id="xtick_6">
     <g id="line2d_15">
      <path clip-path="url(#p08eeec1f42)" d="M 178.066286 298.944 
L 178.066286 27.648 
" style="fill:none;stroke:#b0b0b0;stroke-linecap:square;stroke-width:0.8;"/>
     </g>
     <g id="line2d_16">
      <g>
       <use style="stroke:#000000;stroke-width:0.6;" x="178.066286" xlink:href="#m24fc11abc9" y="298.944"/>
      </g>
     </g>
    </g>
    <g id="xtick_7">
     <g id="line2d_17">
      <path clip-path="url(#p08eeec1f42)" d="M 258.377143 298.944 
L 258.377143 27.648 
" style="fill:none;stroke:#b0b0b0;stroke-linecap:square;stroke-width:0.8;"/>
     </g>
     <g id="line2d_18">
      <g>
       <use style="stroke:#000000;stroke-width:0.6;" x="258.377143" xlink:href="#m24fc11abc9" y="298.944"/>
      </g>
     </g>
    </g>
    <g id="xtick_8">
     <g id="line2d_19">
      <path clip-path="url(#p08eeec1f42)" d="M 338.688 298.944 
L 338.688 27.648 
" style="fill:none;stroke:#b0b0b0;stroke-linecap:square;stroke-width:0.8;"/>
     </g>
     <g id="line2d_20">
      <g>
       <use style="stroke:#000000;stroke-width:0.6;" x="338.688" xlink:href="#m24fc11abc9" y="298.944"/>
      </g>
     </g>
    </g>
    <g id="text_5">
     <!-- log10(# f-evals / dimension) -->
     <defs>
      <path d="M 9.421875 75.984375 
L 18.40625 75.984375 
L 18.40625 0 
L 9.421875 0 
z
" id="DejaVuSans-108"/>
      <path d="M 30.609375 48.390625 
Q 23.390625 48.390625 19.1875 42.75 
Q 14.984375 37.109375 14.984375 27.296875 
Q 14.984375 17.484375 19.15625 11.84375 
Q 23.34375 6.203125 30.609375 6.203125 
Q 37.796875 6.203125 41.984375 11.859375 
Q 46.1875 17.53125 46.1875 27.296875 
Q 46.1875 37.015625 41.984375 42.703125 
Q 37.796875 48.390625 30.609375 48.390625 
z
M 30.609375 56 
Q 42.328125 56 49.015625 48.375 
Q 55.71875 40.765625 55.71875 27.296875 
Q 55.71875 13.875 49.015625 6.21875 
Q 42.328125 -1.421875 30.609375 -1.421875 
Q 18.84375 -1.421875 12.171875 6.21875 
Q 5.515625 13.875 5.515625 27.296875 
Q 5.515625 40.765625 12.171875 48.375 
Q 18.84375 56 30.609375 56 
z
" id="DejaVuSans-111"/>
      <path d="M 45.40625 27.984375 
Q 45.40625 37.75 41.375 43.109375 
Q 37.359375 48.484375 30.078125 48.484375 
Q 22.859375 48.484375 18.828125 43.109375 
Q 14.796875 37.75 14.796875 27.984375 
Q 14.796875 18.265625 18.828125 12.890625 
Q 22.859375 7.515625 30.078125 7.515625 
Q 37.359375 7.515625 41.375 12.890625 
Q 45.40625 18.265625 45.40625 27.984375 
z
M 54.390625 6.78125 
Q 54.390625 -7.171875 48.1875 -13.984375 
Q 42 -20.796875 29.203125 -20.796875 
Q 24.46875 -20.796875 20.265625 -20.09375 
Q 16.0625 -19.390625 12.109375 -17.921875 
L 12.109375 -9.1875 
Q 16.0625 -11.328125 19.921875 -12.34375 
Q 23.78125 -13.375 27.78125 -13.375 
Q 36.625 -13.375 41.015625 -8.765625 
Q 45.40625 -4.15625 45.40625 5.171875 
L 45.40625 9.625 
Q 42.625 4.78125 38.28125 2.390625 
Q 33.9375 0 27.875 0 
Q 17.828125 0 11.671875 7.65625 
Q 5.515625 15.328125 5.515625 27.984375 
Q 5.515625 40.671875 11.671875 48.328125 
Q 17.828125 56 27.875 56 
Q 33.9375 56 38.28125 53.609375 
Q 42.625 51.21875 45.40625 46.390625 
L 45.40625 54.6875 
L 54.390625 54.6875 
z
" id="DejaVuSans-103"/>
      <path d="M 12.40625 8.296875 
L 28.515625 8.296875 
L 28.515625 63.921875 
L 10.984375 60.40625 
L 10.984375 69.390625 
L 28.421875 72.90625 
L 38.28125 72.90625 
L 38.28125 8.296875 
L 54.390625 8.296875 
L 54.390625 0 
L 12.40625 0 
z
" id="DejaVuSans-49"/>
      <path d="M 31 75.875 
Q 24.46875 64.65625 21.28125 53.65625 
Q 18.109375 42.671875 18.109375 31.390625 
Q 18.109375 20.125 21.3125 9.0625 
Q 24.515625 -2 31 -13.1875 
L 23.1875 -13.1875 
Q 15.875 -1.703125 12.234375 9.375 
Q 8.59375 20.453125 8.59375 31.390625 
Q 8.59375 42.28125 12.203125 53.3125 
Q 15.828125 64.359375 23.1875 75.875 
z
" id="DejaVuSans-40"/>
      <path d="M 51.125 44 
L 36.921875 44 
L 32.8125 27.6875 
L 47.125 27.6875 
z
M 43.796875 71.78125 
L 38.71875 51.515625 
L 52.984375 51.515625 
L 58.109375 71.78125 
L 65.921875 71.78125 
L 60.890625 51.515625 
L 76.125 51.515625 
L 76.125 44 
L 58.984375 44 
L 54.984375 27.6875 
L 70.515625 27.6875 
L 70.515625 20.21875 
L 53.078125 20.21875 
L 48 0 
L 40.1875 0 
L 45.21875 20.21875 
L 30.90625 20.21875 
L 25.875 0 
L 18.015625 0 
L 23.09375 20.21875 
L 7.71875 20.21875 
L 7.71875 27.6875 
L 24.90625 27.6875 
L 29 44 
L 13.28125 44 
L 13.28125 51.515625 
L 30.90625 51.515625 
L 35.890625 71.78125 
z
" id="DejaVuSans-35"/>
      <path id="DejaVuSans-32"/>
      <path d="M 37.109375 75.984375 
L 37.109375 68.5 
L 28.515625 68.5 
Q 23.6875 68.5 21.796875 66.546875 
Q 19.921875 64.59375 19.921875 59.515625 
L 19.921875 54.6875 
L 34.71875 54.6875 
L 34.71875 47.703125 
L 19.921875 47.703125 
L 19.921875 0 
L 10.890625 0 
L 10.890625 47.703125 
L 2.296875 47.703125 
L 2.296875 54.6875 
L 10.890625 54.6875 
L 10.890625 58.5 
Q 10.890625 67.625 15.140625 71.796875 
Q 19.390625 75.984375 28.609375 75.984375 
z
" id="DejaVuSans-102"/>
      <path d="M 4.890625 31.390625 
L 31.203125 31.390625 
L 31.203125 23.390625 
L 4.890625 23.390625 
z
" id="DejaVuSans-45"/>
      <path d="M 56.203125 29.59375 
L 56.203125 25.203125 
L 14.890625 25.203125 
Q 15.484375 15.921875 20.484375 11.0625 
Q 25.484375 6.203125 34.421875 6.203125 
Q 39.59375 6.203125 44.453125 7.46875 
Q 49.3125 8.734375 54.109375 11.28125 
L 54.109375 2.78125 
Q 49.265625 0.734375 44.1875 -0.34375 
Q 39.109375 -1.421875 33.890625 -1.421875 
Q 20.796875 -1.421875 13.15625 6.1875 
Q 5.515625 13.8125 5.515625 26.8125 
Q 5.515625 40.234375 12.765625 48.109375 
Q 20.015625 56 32.328125 56 
Q 43.359375 56 49.78125 48.890625 
Q 56.203125 41.796875 56.203125 29.59375 
z
M 47.21875 32.234375 
Q 47.125 39.59375 43.09375 43.984375 
Q 39.0625 48.390625 32.421875 48.390625 
Q 24.90625 48.390625 20.390625 44.140625 
Q 15.875 39.890625 15.1875 32.171875 
z
" id="DejaVuSans-101"/>
      <path d="M 2.984375 54.6875 
L 12.5 54.6875 
L 29.59375 8.796875 
L 46.6875 54.6875 
L 56.203125 54.6875 
L 35.6875 0 
L 23.484375 0 
z
" id="DejaVuSans-118"/>
      <path d="M 34.28125 27.484375 
Q 23.390625 27.484375 19.1875 25 
Q 14.984375 22.515625 14.984375 16.5 
Q 14.984375 11.71875 18.140625 8.90625 
Q 21.296875 6.109375 26.703125 6.109375 
Q 34.1875 6.109375 38.703125 11.40625 
Q 43.21875 16.703125 43.21875 25.484375 
L 43.21875 27.484375 
z
M 52.203125 31.203125 
L 52.203125 0 
L 43.21875 0 
L 43.21875 8.296875 
Q 40.140625 3.328125 35.546875 0.953125 
Q 30.953125 -1.421875 24.3125 -1.421875 
Q 15.921875 -1.421875 10.953125 3.296875 
Q 6 8.015625 6 15.921875 
Q 6 25.140625 12.171875 29.828125 
Q 18.359375 34.515625 30.609375 34.515625 
L 43.21875 34.515625 
L 43.21875 35.40625 
Q 43.21875 41.609375 39.140625 45 
Q 35.0625 48.390625 27.6875 48.390625 
Q 23 48.390625 18.546875 47.265625 
Q 14.109375 46.140625 10.015625 43.890625 
L 10.015625 52.203125 
Q 14.9375 54.109375 19.578125 55.046875 
Q 24.21875 56 28.609375 56 
Q 40.484375 56 46.34375 49.84375 
Q 52.203125 43.703125 52.203125 31.203125 
z
" id="DejaVuSans-97"/>
      <path d="M 44.28125 53.078125 
L 44.28125 44.578125 
Q 40.484375 46.53125 36.375 47.5 
Q 32.28125 48.484375 27.875 48.484375 
Q 21.1875 48.484375 17.84375 46.4375 
Q 14.5 44.390625 14.5 40.28125 
Q 14.5 37.15625 16.890625 35.375 
Q 19.28125 33.59375 26.515625 31.984375 
L 29.59375 31.296875 
Q 39.15625 29.25 43.1875 25.515625 
Q 47.21875 21.78125 47.21875 15.09375 
Q 47.21875 7.46875 41.1875 3.015625 
Q 35.15625 -1.421875 24.609375 -1.421875 
Q 20.21875 -1.421875 15.453125 -0.5625 
Q 10.6875 0.296875 5.421875 2 
L 5.421875 11.28125 
Q 10.40625 8.6875 15.234375 7.390625 
Q 20.0625 6.109375 24.8125 6.109375 
Q 31.15625 6.109375 34.5625 8.28125 
Q 37.984375 10.453125 37.984375 14.40625 
Q 37.984375 18.0625 35.515625 20.015625 
Q 33.0625 21.96875 24.703125 23.78125 
L 21.578125 24.515625 
Q 13.234375 26.265625 9.515625 29.90625 
Q 5.8125 33.546875 5.8125 39.890625 
Q 5.8125 47.609375 11.28125 51.796875 
Q 16.75 56 26.8125 56 
Q 31.78125 56 36.171875 55.265625 
Q 40.578125 54.546875 44.28125 53.078125 
z
" id="DejaVuSans-115"/>
      <path d="M 25.390625 72.90625 
L 33.6875 72.90625 
L 8.296875 -9.28125 
L 0 -9.28125 
z
" id="DejaVuSans-47"/>
      <path d="M 45.40625 46.390625 
L 45.40625 75.984375 
L 54.390625 75.984375 
L 54.390625 0 
L 45.40625 0 
L 45.40625 8.203125 
Q 42.578125 3.328125 38.25 0.953125 
Q 33.9375 -1.421875 27.875 -1.421875 
Q 17.96875 -1.421875 11.734375 6.484375 
Q 5.515625 14.40625 5.515625 27.296875 
Q 5.515625 40.1875 11.734375 48.09375 
Q 17.96875 56 27.875 56 
Q 33.9375 56 38.25 53.625 
Q 42.578125 51.265625 45.40625 46.390625 
z
M 14.796875 27.296875 
Q 14.796875 17.390625 18.875 11.75 
Q 22.953125 6.109375 30.078125 6.109375 
Q 37.203125 6.109375 41.296875 11.75 
Q 45.40625 17.390625 45.40625 27.296875 
Q 45.40625 37.203125 41.296875 42.84375 
Q 37.203125 48.484375 30.078125 48.484375 
Q 22.953125 48.484375 18.875 42.84375 
Q 14.796875 37.203125 14.796875 27.296875 
z
" id="DejaVuSans-100"/>
      <path d="M 9.421875 54.6875 
L 18.40625 54.6875 
L 18.40625 0 
L 9.421875 0 
z
M 9.421875 75.984375 
L 18.40625 75.984375 
L 18.40625 64.59375 
L 9.421875 64.59375 
z
" id="DejaVuSans-105"/>
      <path d="M 52 44.1875 
Q 55.375 50.25 60.0625 53.125 
Q 64.75 56 71.09375 56 
Q 79.640625 56 84.28125 50.015625 
Q 88.921875 44.046875 88.921875 33.015625 
L 88.921875 0 
L 79.890625 0 
L 79.890625 32.71875 
Q 79.890625 40.578125 77.09375 44.375 
Q 74.3125 48.1875 68.609375 48.1875 
Q 61.625 48.1875 57.5625 43.546875 
Q 53.515625 38.921875 53.515625 30.90625 
L 53.515625 0 
L 44.484375 0 
L 44.484375 32.71875 
Q 44.484375 40.625 41.703125 44.40625 
Q 38.921875 48.1875 33.109375 48.1875 
Q 26.21875 48.1875 22.15625 43.53125 
Q 18.109375 38.875 18.109375 30.90625 
L 18.109375 0 
L 9.078125 0 
L 9.078125 54.6875 
L 18.109375 54.6875 
L 18.109375 46.1875 
Q 21.1875 51.21875 25.484375 53.609375 
Q 29.78125 56 35.6875 56 
Q 41.65625 56 45.828125 52.96875 
Q 50 49.953125 52 44.1875 
z
" id="DejaVuSans-109"/>
      <path d="M 54.890625 33.015625 
L 54.890625 0 
L 45.90625 0 
L 45.90625 32.71875 
Q 45.90625 40.484375 42.875 44.328125 
Q 39.84375 48.1875 33.796875 48.1875 
Q 26.515625 48.1875 22.3125 43.546875 
Q 18.109375 38.921875 18.109375 30.90625 
L 18.109375 0 
L 9.078125 0 
L 9.078125 54.6875 
L 18.109375 54.6875 
L 18.109375 46.1875 
Q 21.34375 51.125 25.703125 53.5625 
Q 30.078125 56 35.796875 56 
Q 45.21875 56 50.046875 50.171875 
Q 54.890625 44.34375 54.890625 33.015625 
z
" id="DejaVuSans-110"/>
      <path d="M 8.015625 75.875 
L 15.828125 75.875 
Q 23.140625 64.359375 26.78125 53.3125 
Q 30.421875 42.28125 30.421875 31.390625 
Q 30.421875 20.453125 26.78125 9.375 
Q 23.140625 -1.703125 15.828125 -13.1875 
L 8.015625 -13.1875 
Q 14.5 -2 17.703125 9.0625 
Q 20.90625 20.125 20.90625 31.390625 
Q 20.90625 42.671875 17.703125 53.65625 
Q 14.5 64.65625 8.015625 75.875 
z
" id="DejaVuSans-41"/>
     </defs>
     <g transform="translate(77.303219 342.217594)scale(0.17 -0.17)">
      <use xlink:href="#DejaVuSans-108"/>
      <use x="27.783203" xlink:href="#DejaVuSans-111"/>
      <use x="88.964844" xlink:href="#DejaVuSans-103"/>
      <use x="152.441406" xlink:href="#DejaVuSans-49"/>
      <use x="216.064453" xlink:href="#DejaVuSans-48"/>
      <use x="279.6875" xlink:href="#DejaVuSans-40"/>
      <use x="318.701172" xlink:href="#DejaVuSans-35"/>
      <use x="402.490234" xlink:href="#DejaVuSans-32"/>
      <use x="434.277344" xlink:href="#DejaVuSans-102"/>
      <use x="469.404297" xlink:href="#DejaVuSans-45"/>
      <use x="505.488281" xlink:href="#DejaVuSans-101"/>
      <use x="567.011719" xlink:href="#DejaVuSans-118"/>
      <use x="626.191406" xlink:href="#DejaVuSans-97"/>
      <use x="687.470703" xlink:href="#DejaVuSans-108"/>
      <use x="715.253906" xlink:href="#DejaVuSans-115"/>
      <use x="767.353516" xlink:href="#DejaVuSans-32"/>
      <use x="799.140625" xlink:href="#DejaVuSans-47"/>
      <use x="832.832031" xlink:href="#DejaVuSans-32"/>
      <use x="864.619141" xlink:href="#DejaVuSans-100"/>
      <use x="928.095703" xlink:href="#DejaVuSans-105"/>
      <use x="955.878906" xlink:href="#DejaVuSans-109"/>
      <use x="1053.291016" xlink:href="#DejaVuSans-101"/>
      <use x="1114.814453" xlink:href="#DejaVuSans-110"/>
      <use x="1178.193359" xlink:href="#DejaVuSans-115"/>
      <use x="1230.292969" xlink:href="#DejaVuSans-105"/>
      <use x="1258.076172" xlink:href="#DejaVuSans-111"/>
      <use x="1319.257812" xlink:href="#DejaVuSans-110"/>
      <use x="1382.636719" xlink:href="#DejaVuSans-41"/>
     </g>
    </g>
   </g>
   <g id="matplotlib.axis_2">
    <g id="ytick_1">
     <g id="line2d_21">
      <path clip-path="url(#p08eeec1f42)" d="M 57.6 298.944 
L 338.688 298.944 
" style="fill:none;stroke:#b0b0b0;stroke-linecap:square;stroke-width:0.8;"/>
     </g>
     <g id="line2d_22">
      <defs>
       <path d="M 0 0 
L -3.5 0 
" id="mfd247b3234" style="stroke:#000000;stroke-width:0.8;"/>
      </defs>
      <g>
       <use style="stroke:#000000;stroke-width:0.8;" x="57.6" xlink:href="#mfd247b3234" y="298.944"/>
      </g>
     </g>
     <g id="text_6">
      <!-- 0.0 -->
      <defs>
       <path d="M 10.6875 12.40625 
L 21 12.40625 
L 21 0 
L 10.6875 0 
z
" id="DejaVuSans-46"/>
      </defs>
      <g transform="translate(25.155 305.02275)scale(0.16 -0.16)">
       <use xlink:href="#DejaVuSans-48"/>
       <use x="63.623047" xlink:href="#DejaVuSans-46"/>
       <use x="95.410156" xlink:href="#DejaVuSans-48"/>
      </g>
     </g>
    </g>
    <g id="ytick_2">
     <g id="line2d_23">
      <path clip-path="url(#p08eeec1f42)" d="M 57.6 245.22202 
L 338.688 245.22202 
" style="fill:none;stroke:#b0b0b0;stroke-linecap:square;stroke-width:0.8;"/>
     </g>
     <g id="line2d_24">
      <g>
       <use style="stroke:#000000;stroke-width:0.8;" x="57.6" xlink:href="#mfd247b3234" y="245.22202"/>
      </g>
     </g>
     <g id="text_7">
      <!-- 0.2 -->
      <g transform="translate(25.155 251.30077)scale(0.16 -0.16)">
       <use xlink:href="#DejaVuSans-48"/>
       <use x="63.623047" xlink:href="#DejaVuSans-46"/>
       <use x="95.410156" xlink:href="#DejaVuSans-50"/>
      </g>
     </g>
    </g>
    <g id="ytick_3">
     <g id="line2d_25">
      <path clip-path="url(#p08eeec1f42)" d="M 57.6 191.50004 
L 338.688 191.50004 
" style="fill:none;stroke:#b0b0b0;stroke-linecap:square;stroke-width:0.8;"/>
     </g>
     <g id="line2d_26">
      <g>
       <use style="stroke:#000000;stroke-width:0.8;" x="57.6" xlink:href="#mfd247b3234" y="191.50004"/>
      </g>
     </g>
     <g id="text_8">
      <!-- 0.4 -->
      <g transform="translate(25.155 197.57879)scale(0.16 -0.16)">
       <use xlink:href="#DejaVuSans-48"/>
       <use x="63.623047" xlink:href="#DejaVuSans-46"/>
       <use x="95.410156" xlink:href="#DejaVuSans-52"/>
      </g>
     </g>
    </g>
    <g id="ytick_4">
     <g id="line2d_27">
      <path clip-path="url(#p08eeec1f42)" d="M 57.6 137.778059 
L 338.688 137.778059 
" style="fill:none;stroke:#b0b0b0;stroke-linecap:square;stroke-width:0.8;"/>
     </g>
     <g id="line2d_28">
      <g>
       <use style="stroke:#000000;stroke-width:0.8;" x="57.6" xlink:href="#mfd247b3234" y="137.778059"/>
      </g>
     </g>
     <g id="text_9">
      <!-- 0.6 -->
      <g transform="translate(25.155 143.856809)scale(0.16 -0.16)">
       <use xlink:href="#DejaVuSans-48"/>
       <use x="63.623047" xlink:href="#DejaVuSans-46"/>
       <use x="95.410156" xlink:href="#DejaVuSans-54"/>
      </g>
     </g>
    </g>
    <g id="ytick_5">
     <g id="line2d_29">
      <path clip-path="url(#p08eeec1f42)" d="M 57.6 84.056079 
L 338.688 84.056079 
" style="fill:none;stroke:#b0b0b0;stroke-linecap:square;stroke-width:0.8;"/>
     </g>
     <g id="line2d_30">
      <g>
       <use style="stroke:#000000;stroke-width:0.8;" x="57.6" xlink:href="#mfd247b3234" y="84.056079"/>
      </g>
     </g>
     <g id="text_10">
      <!-- 0.8 -->
      <defs>
       <path d="M 31.78125 34.625 
Q 24.75 34.625 20.71875 30.859375 
Q 16.703125 27.09375 16.703125 20.515625 
Q 16.703125 13.921875 20.71875 10.15625 
Q 24.75 6.390625 31.78125 6.390625 
Q 38.8125 6.390625 42.859375 10.171875 
Q 46.921875 13.96875 46.921875 20.515625 
Q 46.921875 27.09375 42.890625 30.859375 
Q 38.875 34.625 31.78125 34.625 
z
M 21.921875 38.8125 
Q 15.578125 40.375 12.03125 44.71875 
Q 8.5 49.078125 8.5 55.328125 
Q 8.5 64.0625 14.71875 69.140625 
Q 20.953125 74.21875 31.78125 74.21875 
Q 42.671875 74.21875 48.875 69.140625 
Q 55.078125 64.0625 55.078125 55.328125 
Q 55.078125 49.078125 51.53125 44.71875 
Q 48 40.375 41.703125 38.8125 
Q 48.828125 37.15625 52.796875 32.3125 
Q 56.78125 27.484375 56.78125 20.515625 
Q 56.78125 9.90625 50.3125 4.234375 
Q 43.84375 -1.421875 31.78125 -1.421875 
Q 19.734375 -1.421875 13.25 4.234375 
Q 6.78125 9.90625 6.78125 20.515625 
Q 6.78125 27.484375 10.78125 32.3125 
Q 14.796875 37.15625 21.921875 38.8125 
z
M 18.3125 54.390625 
Q 18.3125 48.734375 21.84375 45.5625 
Q 25.390625 42.390625 31.78125 42.390625 
Q 38.140625 42.390625 41.71875 45.5625 
Q 45.3125 48.734375 45.3125 54.390625 
Q 45.3125 60.0625 41.71875 63.234375 
Q 38.140625 66.40625 31.78125 66.40625 
Q 25.390625 66.40625 21.84375 63.234375 
Q 18.3125 60.0625 18.3125 54.390625 
z
" id="DejaVuSans-56"/>
      </defs>
      <g transform="translate(25.155 90.134829)scale(0.16 -0.16)">
       <use xlink:href="#DejaVuSans-48"/>
       <use x="63.623047" xlink:href="#DejaVuSans-46"/>
       <use x="95.410156" xlink:href="#DejaVuSans-56"/>
      </g>
     </g>
    </g>
    <g id="ytick_6">
     <g id="line2d_31">
      <path clip-path="url(#p08eeec1f42)" d="M 57.6 30.334099 
L 338.688 30.334099 
" style="fill:none;stroke:#b0b0b0;stroke-linecap:square;stroke-width:0.8;"/>
     </g>
     <g id="line2d_32">
      <g>
       <use style="stroke:#000000;stroke-width:0.8;" x="57.6" xlink:href="#mfd247b3234" y="30.334099"/>
      </g>
     </g>
     <g id="text_11">
      <!-- 1.0 -->
      <g transform="translate(25.155 36.412849)scale(0.16 -0.16)">
       <use xlink:href="#DejaVuSans-49"/>
       <use x="63.623047" xlink:href="#DejaVuSans-46"/>
       <use x="95.410156" xlink:href="#DejaVuSans-48"/>
      </g>
     </g>
    </g>
    <g id="text_12">
     <!-- Fraction of function,target pairs -->
     <defs>
      <path d="M 9.8125 72.90625 
L 51.703125 72.90625 
L 51.703125 64.59375 
L 19.671875 64.59375 
L 19.671875 43.109375 
L 48.578125 43.109375 
L 48.578125 34.8125 
L 19.671875 34.8125 
L 19.671875 0 
L 9.8125 0 
z
" id="DejaVuSans-70"/>
      <path d="M 41.109375 46.296875 
Q 39.59375 47.171875 37.8125 47.578125 
Q 36.03125 48 33.890625 48 
Q 26.265625 48 22.1875 43.046875 
Q 18.109375 38.09375 18.109375 28.8125 
L 18.109375 0 
L 9.078125 0 
L 9.078125 54.6875 
L 18.109375 54.6875 
L 18.109375 46.1875 
Q 20.953125 51.171875 25.484375 53.578125 
Q 30.03125 56 36.53125 56 
Q 37.453125 56 38.578125 55.875 
Q 39.703125 55.765625 41.0625 55.515625 
z
" id="DejaVuSans-114"/>
      <path d="M 48.78125 52.59375 
L 48.78125 44.1875 
Q 44.96875 46.296875 41.140625 47.34375 
Q 37.3125 48.390625 33.40625 48.390625 
Q 24.65625 48.390625 19.8125 42.84375 
Q 14.984375 37.3125 14.984375 27.296875 
Q 14.984375 17.28125 19.8125 11.734375 
Q 24.65625 6.203125 33.40625 6.203125 
Q 37.3125 6.203125 41.140625 7.25 
Q 44.96875 8.296875 48.78125 10.40625 
L 48.78125 2.09375 
Q 45.015625 0.34375 40.984375 -0.53125 
Q 36.96875 -1.421875 32.421875 -1.421875 
Q 20.0625 -1.421875 12.78125 6.34375 
Q 5.515625 14.109375 5.515625 27.296875 
Q 5.515625 40.671875 12.859375 48.328125 
Q 20.21875 56 33.015625 56 
Q 37.15625 56 41.109375 55.140625 
Q 45.0625 54.296875 48.78125 52.59375 
z
" id="DejaVuSans-99"/>
      <path d="M 18.3125 70.21875 
L 18.3125 54.6875 
L 36.8125 54.6875 
L 36.8125 47.703125 
L 18.3125 47.703125 
L 18.3125 18.015625 
Q 18.3125 11.328125 20.140625 9.421875 
Q 21.96875 7.515625 27.59375 7.515625 
L 36.8125 7.515625 
L 36.8125 0 
L 27.59375 0 
Q 17.1875 0 13.234375 3.875 
Q 9.28125 7.765625 9.28125 18.015625 
L 9.28125 47.703125 
L 2.6875 47.703125 
L 2.6875 54.6875 
L 9.28125 54.6875 
L 9.28125 70.21875 
z
" id="DejaVuSans-116"/>
      <path d="M 8.5 21.578125 
L 8.5 54.6875 
L 17.484375 54.6875 
L 17.484375 21.921875 
Q 17.484375 14.15625 20.5 10.265625 
Q 23.53125 6.390625 29.59375 6.390625 
Q 36.859375 6.390625 41.078125 11.03125 
Q 45.3125 15.671875 45.3125 23.6875 
L 45.3125 54.6875 
L 54.296875 54.6875 
L 54.296875 0 
L 45.3125 0 
L 45.3125 8.40625 
Q 42.046875 3.421875 37.71875 1 
Q 33.40625 -1.421875 27.6875 -1.421875 
Q 18.265625 -1.421875 13.375 4.4375 
Q 8.5 10.296875 8.5 21.578125 
z
M 31.109375 56 
z
" id="DejaVuSans-117"/>
      <path d="M 11.71875 12.40625 
L 22.015625 12.40625 
L 22.015625 4 
L 14.015625 -11.625 
L 7.71875 -11.625 
L 11.71875 4 
z
" id="DejaVuSans-44"/>
      <path d="M 18.109375 8.203125 
L 18.109375 -20.796875 
L 9.078125 -20.796875 
L 9.078125 54.6875 
L 18.109375 54.6875 
L 18.109375 46.390625 
Q 20.953125 51.265625 25.265625 53.625 
Q 29.59375 56 35.59375 56 
Q 45.5625 56 51.78125 48.09375 
Q 58.015625 40.1875 58.015625 27.296875 
Q 58.015625 14.40625 51.78125 6.484375 
Q 45.5625 -1.421875 35.59375 -1.421875 
Q 29.59375 -1.421875 25.265625 0.953125 
Q 20.953125 3.328125 18.109375 8.203125 
z
M 48.6875 27.296875 
Q 48.6875 37.203125 44.609375 42.84375 
Q 40.53125 48.484375 33.40625 48.484375 
Q 26.265625 48.484375 22.1875 42.84375 
Q 18.109375 37.203125 18.109375 27.296875 
Q 18.109375 17.390625 22.1875 11.75 
Q 26.265625 6.109375 33.40625 6.109375 
Q 40.53125 6.109375 44.609375 11.75 
Q 48.6875 17.390625 48.6875 27.296875 
z
" id="DejaVuSans-112"/>
     </defs>
     <g transform="translate(17.619531 298.435375)rotate(-90)scale(0.17 -0.17)">
      <use xlink:href="#DejaVuSans-70"/>
      <use x="57.410156" xlink:href="#DejaVuSans-114"/>
      <use x="98.523438" xlink:href="#DejaVuSans-97"/>
      <use x="159.802734" xlink:href="#DejaVuSans-99"/>
      <use x="214.783203" xlink:href="#DejaVuSans-116"/>
      <use x="253.992188" xlink:href="#DejaVuSans-105"/>
      <use x="281.775391" xlink:href="#DejaVuSans-111"/>
      <use x="342.957031" xlink:href="#DejaVuSans-110"/>
      <use x="406.335938" xlink:href="#DejaVuSans-32"/>
      <use x="438.123047" xlink:href="#DejaVuSans-111"/>
      <use x="499.304688" xlink:href="#DejaVuSans-102"/>
      <use x="534.509766" xlink:href="#DejaVuSans-32"/>
      <use x="566.296875" xlink:href="#DejaVuSans-102"/>
      <use x="601.501953" xlink:href="#DejaVuSans-117"/>
      <use x="664.880859" xlink:href="#DejaVuSans-110"/>
      <use x="728.259766" xlink:href="#DejaVuSans-99"/>
      <use x="783.240234" xlink:href="#DejaVuSans-116"/>
      <use x="822.449219" xlink:href="#DejaVuSans-105"/>
      <use x="850.232422" xlink:href="#DejaVuSans-111"/>
      <use x="911.414062" xlink:href="#DejaVuSans-110"/>
      <use x="974.792969" xlink:href="#DejaVuSans-44"/>
      <use x="1006.580078" xlink:href="#DejaVuSans-116"/>
      <use x="1045.789062" xlink:href="#DejaVuSans-97"/>
      <use x="1107.068359" xlink:href="#DejaVuSans-114"/>
      <use x="1148.166016" xlink:href="#DejaVuSans-103"/>
      <use x="1211.642578" xlink:href="#DejaVuSans-101"/>
      <use x="1273.166016" xlink:href="#DejaVuSans-116"/>
      <use x="1312.375" xlink:href="#DejaVuSans-32"/>
      <use x="1344.162109" xlink:href="#DejaVuSans-112"/>
      <use x="1407.638672" xlink:href="#DejaVuSans-97"/>
      <use x="1468.917969" xlink:href="#DejaVuSans-105"/>
      <use x="1496.701172" xlink:href="#DejaVuSans-114"/>
      <use x="1537.814453" xlink:href="#DejaVuSans-115"/>
     </g>
    </g>
   </g>
   <g id="line2d_33">
    <defs>
     <path d="M 0 1.5 
C 0.397805 1.5 0.77937 1.341951 1.06066 1.06066 
C 1.341951 0.77937 1.5 0.397805 1.5 0 
C 1.5 -0.397805 1.341951 -0.77937 1.06066 -1.06066 
C 0.77937 -1.341951 0.397805 -1.5 0 -1.5 
C -0.397805 -1.5 -0.77937 -1.341951 -1.06066 -1.06066 
C -1.341951 -0.77937 -1.5 -0.397805 -1.5 0 
C -1.5 0.397805 -1.341951 0.77937 -1.06066 1.06066 
C -0.77937 1.341951 -0.397805 1.5 0 1.5 
z
" id="m7eb4c1ad89" style="stroke:#f5deb3;"/>
    </defs>
    <g>
     <use style="fill:#f5deb3;stroke:#f5deb3;" x="232.892553" xlink:href="#m7eb4c1ad89" y="30.334099"/>
     <use style="fill:#f5deb3;stroke:#f5deb3;" x="232.892553" xlink:href="#m7eb4c1ad89" y="30.334099"/>
    </g>
   </g>
   <g id="line2d_34">
    <defs>
     <path d="M 0 1.5 
C 0.397805 1.5 0.77937 1.341951 1.06066 1.06066 
C 1.341951 0.77937 1.5 0.397805 1.5 0 
C 1.5 -0.397805 1.341951 -0.77937 1.06066 -1.06066 
C 0.77937 -1.341951 0.397805 -1.5 0 -1.5 
C -0.397805 -1.5 -0.77937 -1.341951 -1.06066 -1.06066 
C -1.341951 -0.77937 -1.5 -0.397805 -1.5 0 
C -1.5 0.397805 -1.341951 0.77937 -1.06066 1.06066 
C -0.77937 1.341951 -0.397805 1.5 0 1.5 
z
" id="m0d396580a1" style="stroke:#000080;"/>
    </defs>
    <g>
     <use style="fill:#000080;stroke:#000080;" x="228.984436" xlink:href="#m0d396580a1" y="30.334099"/>
     <use style="fill:#000080;stroke:#000080;" x="228.984436" xlink:href="#m0d396580a1" y="30.334099"/>
    </g>
   </g>
   <g id="line2d_35">
    <path d="M 130.861623 298.944 
L 130.861623 298.417314 
L 132.023829 298.417314 
L 132.023829 297.890628 
L 132.326708 297.890628 
L 132.326708 297.363942 
L 133.711505 297.363942 
L 133.711505 296.837256 
L 133.953874 296.837256 
L 133.953874 296.31057 
L 134.418085 296.31057 
L 134.418085 295.783884 
L 134.828688 295.783884 
L 134.828688 295.257197 
L 136.323544 295.257197 
L 136.323544 294.730511 
L 138.032507 294.730511 
L 138.032507 294.203825 
L 138.264747 294.203825 
L 138.264747 293.677139 
L 138.510793 293.677139 
L 138.510793 293.150453 
L 138.836303 293.150453 
L 138.852833 292.097081 
L 139.691499 292.097081 
L 139.691499 291.570395 
L 140.073083 291.570395 
L 140.073083 291.043709 
L 140.514223 291.043709 
L 140.514223 290.517023 
L 140.626517 290.517023 
L 140.626517 289.990337 
L 141.292695 289.990337 
L 141.292695 289.463651 
L 141.655212 289.463651 
L 141.655212 288.936964 
L 142.419098 288.936964 
L 142.419098 288.410278 
L 143.772462 288.410278 
L 143.772462 287.883592 
L 144.456682 287.883592 
L 144.456682 287.356906 
L 144.75368 287.356906 
L 144.75368 286.83022 
L 145.010918 286.83022 
L 145.010918 286.303534 
L 145.258697 286.303534 
L 145.258697 285.776848 
L 145.429504 285.776848 
L 145.429504 285.250162 
L 145.921099 285.250162 
L 145.921099 284.723476 
L 146.98418 284.723476 
L 147.082371 283.670104 
L 166.593391 283.670104 
L 166.684064 282.616732 
L 167.071619 282.616732 
L 167.166363 281.036673 
L 167.349484 281.036673 
L 167.349484 280.509987 
L 167.497166 280.509987 
L 167.497166 279.983301 
L 167.831223 279.983301 
L 167.917258 278.929929 
L 168.264866 278.929929 
L 168.327468 277.876557 
L 168.674545 277.876557 
L 168.763962 276.823185 
L 169.280947 276.823185 
L 169.280947 276.296499 
L 169.75779 276.296499 
L 169.75779 275.769812 
L 170.258818 275.769812 
L 170.258818 275.243126 
L 171.027499 275.243126 
L 171.027499 274.71644 
L 171.736167 274.71644 
L 171.736167 274.189754 
L 172.190253 274.189754 
L 172.190253 273.663068 
L 172.331355 273.663068 
L 172.331355 273.136382 
L 179.541141 273.136382 
L 179.541141 272.609696 
L 180.811024 272.609696 
L 180.825173 271.556324 
L 181.178864 271.556324 
L 181.250202 270.502952 
L 182.101552 270.502952 
L 182.101552 269.976266 
L 182.289409 269.976266 
L 182.289409 269.449579 
L 182.45426 269.449579 
L 182.45426 268.922893 
L 182.670548 268.922893 
L 182.670548 268.396207 
L 182.989704 268.396207 
L 182.989704 267.869521 
L 183.112876 267.869521 
L 183.112876 267.342835 
L 183.871725 267.342835 
L 183.871725 266.816149 
L 184.36231 266.816149 
L 184.36231 266.289463 
L 192.418266 266.289463 
L 192.518299 265.236091 
L 193.724353 265.236091 
L 193.802692 264.182719 
L 193.963579 264.182719 
L 193.963579 263.656033 
L 194.086846 263.656033 
L 194.086846 263.129347 
L 194.674294 263.129347 
L 194.674294 262.60266 
L 195.712317 262.60266 
L 195.712317 262.075974 
L 196.27132 262.075974 
L 196.27132 261.549288 
L 197.523842 261.549288 
L 197.523842 261.022602 
L 197.654214 261.022602 
L 197.654214 260.495916 
L 199.06907 260.495916 
L 199.06907 259.96923 
L 203.30341 259.96923 
L 203.30341 259.442544 
L 203.648677 259.442544 
L 203.755536 258.389172 
L 203.948936 258.389172 
L 203.948936 257.862486 
L 204.116541 257.862486 
L 204.116541 257.3358 
L 204.421427 257.3358 
L 204.421427 256.809114 
L 204.564168 256.809114 
L 204.564168 256.282427 
L 204.753004 256.282427 
L 204.828909 255.229055 
L 204.984207 255.229055 
L 204.984207 254.702369 
L 205.139427 254.702369 
L 205.149763 253.648997 
L 205.273868 253.648997 
L 205.31431 252.595625 
L 205.406008 252.595625 
L 205.480397 251.015567 
L 205.552306 251.015567 
L 205.624818 249.962195 
L 205.66768 249.962195 
L 205.730793 248.908822 
L 205.89404 248.908822 
L 206.002965 247.85545 
L 206.046836 247.85545 
L 206.046836 247.328764 
L 206.239609 247.328764 
L 206.239609 246.802078 
L 206.363795 246.802078 
L 206.431131 245.748706 
L 206.594436 245.748706 
L 206.691825 243.115275 
L 206.752187 243.115275 
L 206.811501 242.061903 
L 206.984923 242.061903 
L 207.049411 241.008531 
L 207.190155 241.008531 
L 207.190155 240.481845 
L 207.331889 240.481845 
L 207.331889 239.955159 
L 207.466018 239.955159 
L 207.538894 238.901787 
L 207.607139 238.901787 
L 207.607139 238.375101 
L 207.76413 238.375101 
L 207.76413 237.848415 
L 207.926331 237.848415 
L 207.978181 236.795043 
L 208.087037 236.795043 
L 208.087037 236.268356 
L 214.074203 236.268356 
L 214.074203 235.74167 
L 214.249407 235.74167 
L 214.249407 235.214984 
L 214.457204 235.214984 
L 214.559912 234.161612 
L 214.688413 234.161612 
L 214.782339 232.054868 
L 214.85293 232.054868 
L 214.937452 230.47481 
L 214.985597 230.47481 
L 215.076897 228.368065 
L 215.147035 228.368065 
L 215.233356 226.261321 
L 215.310908 226.261321 
L 215.408416 224.154577 
L 215.423676 224.154577 
L 215.494985 222.047832 
L 215.547209 222.047832 
L 215.648057 218.36103 
L 215.660888 218.36103 
L 215.759978 214.674227 
L 215.786468 214.674227 
L 215.895115 211.514111 
L 215.914136 211.514111 
L 216.017146 207.827308 
L 216.040284 207.827308 
L 216.064379 206.24725 
L 216.154928 206.24725 
L 216.25282 202.033761 
L 216.271747 202.033761 
L 216.382752 198.873645 
L 216.422337 198.873645 
L 216.475523 195.713528 
L 216.573841 195.713528 
L 216.659692 190.973354 
L 216.702364 190.973354 
L 216.702364 190.446667 
L 216.830985 190.446667 
L 216.938873 185.179807 
L 216.948444 185.179807 
L 217.039754 182.01969 
L 217.085137 182.01969 
L 217.168421 177.806202 
L 217.241349 177.806202 
L 217.345085 173.592713 
L 217.354893 173.592713 
L 217.448208 172.012655 
L 217.484539 172.012655 
L 217.581235 167.27248 
L 217.611151 167.27248 
L 217.676229 164.63905 
L 217.728511 164.63905 
L 217.836531 159.372189 
L 217.853192 159.372189 
L 217.963896 157.265444 
L 217.969825 157.265444 
L 218.041863 154.632014 
L 218.082606 154.632014 
L 218.164769 151.998584 
L 218.202695 151.998584 
L 218.281516 150.418525 
L 218.357559 150.418525 
L 218.44748 148.311781 
L 218.530345 148.311781 
L 218.586453 147.258409 
L 218.67359 147.258409 
L 218.779053 145.678351 
L 218.830578 145.678351 
L 218.917094 144.098292 
L 219.093328 144.098292 
L 219.176985 143.04492 
L 219.281016 143.04492 
L 219.377902 141.991548 
L 219.43981 141.991548 
L 219.442737 140.938176 
L 219.696891 140.938176 
L 219.696891 140.41149 
L 219.832651 140.41149 
L 219.910944 139.358118 
L 219.967206 139.358118 
L 220.069857 138.304745 
L 220.101043 138.304745 
L 220.101043 137.778059 
L 220.247918 137.778059 
L 220.323368 136.724687 
L 224.908234 136.724687 
L 224.908234 136.198001 
L 225.024914 136.198001 
L 225.09737 135.144629 
L 225.17819 135.144629 
L 225.276683 132.511199 
L 225.356098 132.511199 
L 225.441206 128.824396 
L 225.508743 128.824396 
L 225.583395 125.66428 
L 225.642864 125.66428 
L 225.749141 121.977477 
L 225.755935 121.977477 
L 225.860964 116.710616 
L 225.893906 116.710616 
L 225.988338 113.5505 
L 226.011057 113.5505 
L 226.120664 109.337011 
L 226.136346 109.337011 
L 226.226943 105.650209 
L 226.250014 105.650209 
L 226.336246 103.016778 
L 226.364313 103.016778 
L 226.473848 98.803289 
L 226.48954 98.803289 
L 226.60002 93.536429 
L 226.605736 93.536429 
L 226.697741 87.216196 
L 226.740487 87.216196 
L 226.830987 81.949335 
L 226.861139 81.949335 
L 226.970933 78.789218 
L 226.977954 78.789218 
L 227.073848 73.522358 
L 227.090951 73.522358 
L 227.198791 67.202125 
L 227.221601 67.202125 
L 227.329881 60.355206 
L 227.367958 60.355206 
L 227.462918 55.088345 
L 227.493381 55.088345 
L 227.579405 50.874856 
L 227.62152 50.874856 
L 227.722448 46.661368 
L 227.752309 46.661368 
L 227.854041 44.554623 
L 227.874005 44.554623 
L 227.954982 41.394507 
L 227.990974 41.394507 
L 228.098009 37.707704 
L 228.166275 37.707704 
L 228.206851 36.127646 
L 228.288357 36.127646 
L 228.392421 34.020902 
L 228.450915 34.020902 
L 228.511485 32.967529 
L 228.658092 32.967529 
L 228.731699 31.914157 
L 228.788164 31.914157 
L 228.8653 30.860785 
L 228.984436 30.860785 
L 228.984436 30.334099 
L 338.688 30.334099 
L 338.688 30.334099 
" style="fill:none;stroke:#000080;stroke-linecap:square;stroke-width:1.5;"/>
   </g>
   <g id="line2d_36">
    <defs>
     <path d="M 0 6 
C 1.591219 6 3.117479 5.367802 4.242641 4.242641 
C 5.367802 3.117479 6 1.591219 6 0 
C 6 -1.591219 5.367802 -3.117479 4.242641 -4.242641 
C 3.117479 -5.367802 1.591219 -6 0 -6 
C -1.591219 -6 -3.117479 -5.367802 -4.242641 -4.242641 
C -5.367802 -3.117479 -6 -1.591219 -6 0 
C -6 1.591219 -5.367802 3.117479 -4.242641 4.242641 
C -3.117479 5.367802 -1.591219 6 0 6 
z
" id="ma9dc0fb410" style="stroke:#000080;stroke-width:1.5;"/>
    </defs>
    <g>
     <use style="fill-opacity:0;stroke:#000080;stroke-width:1.5;" x="168.674545" xlink:href="#ma9dc0fb410" y="277.876557"/>
     <use style="fill-opacity:0;stroke:#000080;stroke-width:1.5;" x="218.029525" xlink:href="#ma9dc0fb410" y="155.685386"/>
     <use style="fill-opacity:0;stroke:#000080;stroke-width:1.5;" x="228.984436" xlink:href="#ma9dc0fb410" y="30.860785"/>
     <use style="fill-opacity:0;stroke:#000080;stroke-width:1.5;" x="228.984436" xlink:href="#ma9dc0fb410" y="30.334099"/>
     <use style="fill-opacity:0;stroke:#000080;stroke-width:1.5;" x="338.688" xlink:href="#ma9dc0fb410" y="30.334099"/>
    </g>
   </g>
   <g id="line2d_37">
    <path style="fill:none;stroke:#000080;stroke-linecap:square;stroke-width:1.5;"/>
    <g/>
   </g>
   <g id="line2d_38">
    <g>
     <use style="fill:#000080;stroke:#000080;" x="236.6916" xlink:href="#m0d396580a1" y="30.334099"/>
     <use style="fill:#000080;stroke:#000080;" x="236.6916" xlink:href="#m0d396580a1" y="30.334099"/>
    </g>
   </g>
   <g id="line2d_39">
    <path d="M 128.635269 298.944 
L 128.635269 298.417314 
L 131.427132 298.417314 
L 131.427132 297.890628 
L 134.019394 297.890628 
L 134.019394 297.363942 
L 134.942772 297.363942 
L 134.942772 296.837256 
L 136.785352 296.837256 
L 136.785352 296.31057 
L 137.007158 296.31057 
L 137.007158 295.783884 
L 137.208032 295.783884 
L 137.208032 295.257197 
L 137.325651 295.257197 
L 137.406618 294.203825 
L 137.549637 294.203825 
L 137.549637 293.677139 
L 137.858461 293.677139 
L 137.875944 292.623767 
L 138.24765 292.623767 
L 138.24765 292.097081 
L 139.041811 292.097081 
L 139.041811 291.570395 
L 139.509467 291.570395 
L 139.604677 290.517023 
L 140.073083 290.517023 
L 140.142272 289.463651 
L 140.760323 289.463651 
L 140.760323 288.936964 
L 140.995694 288.936964 
L 140.995694 288.410278 
L 141.170161 288.410278 
L 141.170161 287.883592 
L 141.605898 287.883592 
L 141.676303 286.83022 
L 143.534079 286.83022 
L 143.534079 286.303534 
L 143.896629 286.303534 
L 143.896629 285.776848 
L 144.888619 285.776848 
L 144.888619 285.250162 
L 146.210622 285.250162 
L 146.210622 284.723476 
L 147.164632 284.723476 
L 147.164632 284.19679 
L 147.764568 284.19679 
L 147.774477 283.143418 
L 165.76423 283.143418 
L 165.76423 282.616732 
L 166.431023 282.616732 
L 166.431023 282.090045 
L 166.74592 282.090045 
L 166.779265 281.036673 
L 166.885541 281.036673 
L 166.885541 280.509987 
L 167.289735 280.509987 
L 167.289735 279.983301 
L 168.180533 279.983301 
L 168.180533 279.456615 
L 168.888381 279.456615 
L 168.888381 278.929929 
L 169.504622 278.929929 
L 169.504622 278.403243 
L 170.150699 278.403243 
L 170.150699 277.876557 
L 170.35542 277.876557 
L 170.374405 276.823185 
L 170.530921 276.823185 
L 170.530921 276.296499 
L 170.767069 276.296499 
L 170.767069 275.769812 
L 171.171814 275.769812 
L 171.171814 275.243126 
L 171.496352 275.243126 
L 171.496352 274.71644 
L 179.626665 274.71644 
L 179.733182 273.663068 
L 179.901168 273.663068 
L 179.901168 273.136382 
L 180.186867 273.136382 
L 180.227742 271.556324 
L 180.672655 271.556324 
L 180.672655 271.029638 
L 181.052213 271.029638 
L 181.052213 270.502952 
L 181.890653 270.502952 
L 181.890653 269.976266 
L 182.141632 269.976266 
L 182.141632 269.449579 
L 182.726707 269.449579 
L 182.726707 268.922893 
L 182.847767 268.922893 
L 182.847767 268.396207 
L 182.99562 268.396207 
L 183.029764 267.342835 
L 183.109611 267.342835 
L 183.109611 266.816149 
L 184.283737 266.816149 
L 184.283737 266.289463 
L 191.784281 266.289463 
L 191.784281 265.762777 
L 192.980769 265.762777 
L 192.980769 265.236091 
L 193.226687 265.236091 
L 193.226687 264.709405 
L 193.669198 264.709405 
L 193.683448 263.656033 
L 193.940085 263.656033 
L 193.940085 263.129347 
L 194.09902 263.129347 
L 194.09902 262.60266 
L 194.371921 262.60266 
L 194.443661 261.549288 
L 194.873667 261.549288 
L 194.873667 261.022602 
L 195.110864 261.022602 
L 195.110864 260.495916 
L 195.306633 260.495916 
L 195.306633 259.96923 
L 196.401308 259.96923 
L 196.401308 259.442544 
L 203.834507 259.442544 
L 203.834507 258.915858 
L 204.069687 258.915858 
L 204.069687 258.389172 
L 204.346815 258.389172 
L 204.346815 257.862486 
L 204.759232 257.862486 
L 204.759232 257.3358 
L 204.931412 257.3358 
L 204.931412 256.809114 
L 205.064493 256.809114 
L 205.064493 256.282427 
L 205.328744 256.282427 
L 205.328744 255.755741 
L 205.455938 255.755741 
L 205.455938 255.229055 
L 205.966028 255.229055 
L 205.976766 254.175683 
L 206.140177 254.175683 
L 206.140177 253.648997 
L 206.272512 253.648997 
L 206.295334 252.595625 
L 206.4965 252.595625 
L 206.4965 252.068939 
L 206.649041 252.068939 
L 206.725235 251.015567 
L 206.862421 251.015567 
L 206.862421 250.488881 
L 207.022087 250.488881 
L 207.022087 249.962195 
L 207.148248 249.962195 
L 207.215906 248.908822 
L 207.328632 248.908822 
L 207.396406 247.85545 
L 207.449692 247.85545 
L 207.509103 246.802078 
L 207.587897 246.802078 
L 207.680546 245.22202 
L 208.004049 245.22202 
L 208.058949 244.168648 
L 208.195216 244.168648 
L 208.219372 243.115275 
L 208.318122 243.115275 
L 208.410808 242.061903 
L 208.693777 242.061903 
L 208.800215 240.481845 
L 208.956364 240.481845 
L 208.993852 239.428473 
L 209.106275 239.428473 
L 209.195461 237.848415 
L 209.41226 237.848415 
L 209.482348 236.795043 
L 209.550006 236.795043 
L 209.550006 236.268356 
L 209.691365 236.268356 
L 209.767566 235.214984 
L 209.808579 235.214984 
L 209.808579 234.688298 
L 214.931451 234.688298 
L 214.931451 234.161612 
L 215.05694 234.161612 
L 215.163357 232.054868 
L 215.243702 232.054868 
L 215.243702 231.528182 
L 215.370669 231.528182 
L 215.449556 229.948123 
L 215.542431 229.948123 
L 215.628744 228.368065 
L 215.698516 228.368065 
L 215.792082 226.261321 
L 215.876872 226.261321 
L 215.944567 224.681263 
L 216.015761 224.681263 
L 216.123387 222.047832 
L 216.192779 222.047832 
L 216.257017 219.941088 
L 216.308471 219.941088 
L 216.395247 217.834344 
L 216.461735 217.834344 
L 216.534408 215.727599 
L 216.573746 215.727599 
L 216.648149 213.094169 
L 216.700176 213.094169 
L 216.79582 211.514111 
L 216.811899 211.514111 
L 216.916428 208.353994 
L 216.964382 208.353994 
L 217.05216 204.140506 
L 217.079645 204.140506 
L 217.173885 200.453703 
L 217.200994 200.453703 
L 217.292834 196.240214 
L 217.362315 196.240214 
L 217.470708 191.50004 
L 217.502631 191.50004 
L 217.610158 189.393295 
L 217.63254 189.393295 
L 217.72869 185.179807 
L 217.759698 185.179807 
L 217.864054 183.073062 
L 217.879178 183.073062 
L 217.973274 178.859574 
L 218.03966 178.859574 
L 218.104302 175.699457 
L 218.178499 175.699457 
L 218.277779 173.066027 
L 218.305223 173.066027 
L 218.409049 168.852538 
L 218.451525 168.852538 
L 218.545759 166.745794 
L 218.589783 166.745794 
L 218.687179 164.63905 
L 218.801841 164.63905 
L 218.895883 162.532305 
L 218.930579 162.532305 
L 219.034421 159.372189 
L 219.059371 159.372189 
L 219.154187 157.79213 
L 219.171123 157.79213 
L 219.278718 155.685386 
L 219.305534 155.685386 
L 219.404403 153.051956 
L 219.430375 153.051956 
L 219.476039 151.998584 
L 219.550775 151.998584 
L 219.627767 149.891839 
L 219.69625 149.891839 
L 219.767417 147.785095 
L 219.855454 147.785095 
L 219.870216 146.731723 
L 219.990936 146.731723 
L 220.039478 145.678351 
L 220.103861 145.678351 
L 220.181962 144.624978 
L 220.256844 144.624978 
L 220.29428 143.571606 
L 224.785981 143.571606 
L 224.828121 141.991548 
L 225.007727 141.991548 
L 225.109006 138.831432 
L 225.136009 138.831432 
L 225.217058 136.724687 
L 225.270572 136.724687 
L 225.370919 135.671315 
L 225.404452 135.671315 
L 225.486279 132.511199 
L 225.546825 132.511199 
L 225.623254 128.824396 
L 225.660632 128.824396 
L 225.767536 126.190966 
L 225.833428 126.190966 
L 225.917926 121.977477 
L 225.968609 121.977477 
L 226.04856 117.763988 
L 226.103193 117.763988 
L 226.206103 114.603872 
L 226.215423 114.603872 
L 226.306434 110.390383 
L 226.364258 110.390383 
L 226.446283 108.283639 
L 226.48156 108.283639 
L 226.578272 104.07015 
L 226.592791 104.07015 
L 226.70187 99.856662 
L 226.712966 99.856662 
L 226.806274 95.643173 
L 226.853327 95.643173 
L 226.95107 89.849626 
L 226.977743 89.849626 
L 227.062192 84.582765 
L 227.104212 84.582765 
L 227.20098 80.895963 
L 227.233932 80.895963 
L 227.33619 77.20916 
L 227.351281 77.20916 
L 227.462354 70.362241 
L 227.472566 70.362241 
L 227.566143 65.622066 
L 227.593675 65.622066 
L 227.671955 62.988636 
L 227.725583 62.988636 
L 227.829179 59.82852 
L 227.857102 59.82852 
L 227.949942 56.668403 
L 227.969099 56.668403 
L 228.045666 52.9816 
L 228.092168 52.9816 
L 228.196175 50.34817 
L 228.230641 50.34817 
L 228.326062 48.768112 
L 228.345835 48.768112 
L 228.433931 46.661368 
L 228.471032 46.661368 
L 228.535249 45.607995 
L 228.620379 45.607995 
L 228.620379 45.081309 
L 228.868804 45.081309 
L 228.91359 44.027937 
L 229.049512 44.027937 
L 229.158089 42.974565 
L 234.722033 42.974565 
L 234.722033 42.447879 
L 234.900266 42.447879 
L 234.900266 41.921193 
L 235.131737 41.921193 
L 235.235652 40.867821 
L 235.284002 40.867821 
L 235.39389 39.287762 
L 235.438653 39.287762 
L 235.438653 38.761076 
L 235.56945 38.761076 
L 235.63829 37.707704 
L 235.733265 37.707704 
L 235.809034 36.654332 
L 235.881529 36.654332 
L 235.984232 35.074274 
L 236.120454 35.074274 
L 236.215146 33.494215 
L 236.311058 33.494215 
L 236.387716 31.914157 
L 236.452854 31.914157 
L 236.452854 31.387471 
L 236.64667 31.387471 
L 236.6916 30.334099 
L 338.688 30.334099 
L 338.688 30.334099 
" style="fill:none;stroke:#000080;stroke-linecap:square;stroke-width:1.5;"/>
   </g>
   <g id="line2d_40">
    <g>
     <use style="fill-opacity:0;stroke:#000080;stroke-width:1.5;" x="183.109611" xlink:href="#ma9dc0fb410" y="266.816149"/>
     <use style="fill-opacity:0;stroke:#000080;stroke-width:1.5;" x="225.136009" xlink:href="#ma9dc0fb410" y="138.304745"/>
     <use style="fill-opacity:0;stroke:#000080;stroke-width:1.5;" x="236.6916" xlink:href="#ma9dc0fb410" y="30.860785"/>
     <use style="fill-opacity:0;stroke:#000080;stroke-width:1.5;" x="236.6916" xlink:href="#ma9dc0fb410" y="30.334099"/>
     <use style="fill-opacity:0;stroke:#000080;stroke-width:1.5;" x="338.688" xlink:href="#ma9dc0fb410" y="30.334099"/>
    </g>
   </g>
   <g id="line2d_41">
    <path style="fill:none;stroke:#000080;stroke-linecap:square;stroke-width:1.5;"/>
    <g/>
   </g>
   <g id="line2d_42">
    <defs>
     <path d="M 0 1.5 
C 0.397805 1.5 0.77937 1.341951 1.06066 1.06066 
C 1.341951 0.77937 1.5 0.397805 1.5 0 
C 1.5 -0.397805 1.341951 -0.77937 1.06066 -1.06066 
C 0.77937 -1.341951 0.397805 -1.5 0 -1.5 
C -0.397805 -1.5 -0.77937 -1.341951 -1.06066 -1.06066 
C -1.341951 -0.77937 -1.5 -0.397805 -1.5 0 
C -1.5 0.397805 -1.341951 0.77937 -1.06066 1.06066 
C -0.77937 1.341951 -0.397805 1.5 0 1.5 
z
" id="ma0901d227d" style="stroke:#ff00ff;"/>
    </defs>
    <g>
     <use style="fill:#ff00ff;stroke:#ff00ff;" x="291.69703" xlink:href="#ma0901d227d" y="241.008531"/>
     <use style="fill:#ff00ff;stroke:#ff00ff;" x="291.69703" xlink:href="#ma0901d227d" y="241.008531"/>
    </g>
   </g>
   <g id="line2d_43">
    <path d="M 147.215849 298.944 
L 147.215849 298.417314 
L 148.587329 298.417314 
L 148.587329 297.890628 
L 149.309632 297.890628 
L 149.309632 297.363942 
L 153.109235 297.363942 
L 153.109235 296.837256 
L 167.226535 296.837256 
L 167.226535 296.31057 
L 167.791975 296.31057 
L 167.791975 295.783884 
L 168.163617 295.783884 
L 168.163617 295.257197 
L 168.436863 295.257197 
L 168.436863 294.730511 
L 168.904608 294.730511 
L 168.904608 294.203825 
L 169.047054 294.203825 
L 169.047054 293.677139 
L 170.048811 293.677139 
L 170.150699 292.623767 
L 171.113451 292.623767 
L 171.113451 292.097081 
L 171.680924 292.097081 
L 171.680924 291.570395 
L 171.822447 291.570395 
L 171.822447 291.043709 
L 172.003617 291.043709 
L 172.003617 290.517023 
L 172.829364 290.517023 
L 172.829364 289.990337 
L 173.453831 289.990337 
L 173.453831 289.463651 
L 180.33602 289.463651 
L 180.33602 288.936964 
L 180.718401 288.936964 
L 180.718401 288.410278 
L 182.278455 288.410278 
L 182.319498 287.356906 
L 182.411494 287.356906 
L 182.411494 286.83022 
L 182.577893 286.83022 
L 182.669878 285.776848 
L 183.383659 285.776848 
L 183.383659 285.250162 
L 183.668652 285.250162 
L 183.668652 284.723476 
L 183.858594 284.723476 
L 183.8761 283.670104 
L 183.977663 283.670104 
L 183.977663 283.143418 
L 184.208487 283.143418 
L 184.208487 282.616732 
L 184.645029 282.616732 
L 184.74163 281.563359 
L 185.194761 281.563359 
L 185.194761 281.036673 
L 200.335684 281.036673 
L 200.335684 280.509987 
L 201.904395 280.509987 
L 201.904395 279.983301 
L 210.436199 279.983301 
L 210.436199 279.456615 
L 215.963832 279.456615 
L 215.963832 278.929929 
L 216.153848 278.929929 
L 216.153848 278.403243 
L 220.777097 278.403243 
L 220.777097 277.876557 
L 222.614298 277.876557 
L 222.614298 277.349871 
L 222.850936 277.349871 
L 222.850936 276.823185 
L 223.141318 276.823185 
L 223.141318 276.296499 
L 223.399298 276.296499 
L 223.399298 275.769812 
L 223.956064 275.769812 
L 223.956064 275.243126 
L 225.036716 275.243126 
L 225.036716 274.71644 
L 225.494153 274.71644 
L 225.494153 274.189754 
L 226.297327 274.189754 
L 226.297327 273.663068 
L 226.583887 273.663068 
L 226.583887 273.136382 
L 226.905447 273.136382 
L 226.905447 272.609696 
L 227.145817 272.609696 
L 227.145817 272.08301 
L 227.721689 272.08301 
L 227.721689 271.556324 
L 230.35229 271.556324 
L 230.35229 271.029638 
L 234.410398 271.029638 
L 234.410398 270.502952 
L 234.957404 270.502952 
L 234.957404 269.976266 
L 235.10129 269.976266 
L 235.10129 269.449579 
L 235.789016 269.449579 
L 235.87101 268.396207 
L 236.119423 268.396207 
L 236.119423 267.869521 
L 238.174277 267.869521 
L 238.174277 267.342835 
L 238.653349 267.342835 
L 238.653349 266.816149 
L 239.172724 266.816149 
L 239.172724 266.289463 
L 239.317291 266.289463 
L 239.317291 265.762777 
L 240.644511 265.762777 
L 240.644511 265.236091 
L 241.064849 265.236091 
L 241.174532 264.182719 
L 242.453125 264.182719 
L 242.453125 263.656033 
L 243.349227 263.656033 
L 243.349227 263.129347 
L 244.986067 263.129347 
L 245.07054 262.075974 
L 245.232285 262.075974 
L 245.27326 261.022602 
L 245.613832 261.022602 
L 245.613832 260.495916 
L 246.114518 260.495916 
L 246.214214 259.442544 
L 247.647956 259.442544 
L 247.647956 258.915858 
L 248.056328 258.915858 
L 248.056328 258.389172 
L 251.496377 258.389172 
L 251.496377 257.862486 
L 253.152096 257.862486 
L 253.152096 257.3358 
L 253.797577 257.3358 
L 253.797577 256.809114 
L 254.690431 256.809114 
L 254.690431 256.282427 
L 257.167363 256.282427 
L 257.167363 255.755741 
L 257.299657 255.755741 
L 257.299657 255.229055 
L 258.893474 255.229055 
L 258.893474 254.702369 
L 260.935591 254.702369 
L 260.985427 253.122311 
L 262.663871 253.122311 
L 262.752922 251.542253 
L 264.333877 251.542253 
L 264.333877 251.015567 
L 265.845178 251.015567 
L 265.845178 250.488881 
L 267.025571 250.488881 
L 267.117252 249.435508 
L 268.986973 249.435508 
L 268.986973 248.908822 
L 269.480237 248.908822 
L 269.480237 248.382136 
L 269.81736 248.382136 
L 269.81736 247.85545 
L 269.993635 247.85545 
L 269.993635 247.328764 
L 271.51508 247.328764 
L 271.51508 246.802078 
L 272.745397 246.802078 
L 272.791749 245.748706 
L 273.632825 245.748706 
L 273.632825 245.22202 
L 274.179034 245.22202 
L 274.184343 244.168648 
L 276.494734 244.168648 
L 276.494734 243.641962 
L 277.837462 243.641962 
L 277.837462 243.115275 
L 278.858567 243.115275 
L 278.858567 242.588589 
L 279.615088 242.588589 
L 279.615088 242.061903 
L 287.730462 242.061903 
L 287.730462 241.535217 
L 291.69703 241.535217 
L 291.69703 241.008531 
L 338.688 241.008531 
L 338.688 241.008531 
" style="fill:none;stroke:#ff00ff;stroke-linecap:square;stroke-width:1.5;"/>
   </g>
   <g id="line2d_44">
    <defs>
     <path d="M -0 8.485281 
L 5.091169 0 
L 0 -8.485281 
L -5.091169 -0 
z
" id="mc2c442b138" style="stroke:#ff00ff;stroke-linejoin:miter;stroke-width:1.5;"/>
    </defs>
    <g>
     <use style="fill-opacity:0;stroke:#ff00ff;stroke-linejoin:miter;stroke-width:1.5;" x="185.194761" xlink:href="#mc2c442b138" y="281.563359"/>
     <use style="fill-opacity:0;stroke:#ff00ff;stroke-linejoin:miter;stroke-width:1.5;" x="257.299657" xlink:href="#mc2c442b138" y="255.755741"/>
     <use style="fill-opacity:0;stroke:#ff00ff;stroke-linejoin:miter;stroke-width:1.5;" x="291.69703" xlink:href="#mc2c442b138" y="241.008531"/>
     <use style="fill-opacity:0;stroke:#ff00ff;stroke-linejoin:miter;stroke-width:1.5;" x="291.69703" xlink:href="#mc2c442b138" y="241.008531"/>
     <use style="fill-opacity:0;stroke:#ff00ff;stroke-linejoin:miter;stroke-width:1.5;" x="338.688" xlink:href="#mc2c442b138" y="241.008531"/>
    </g>
   </g>
   <g id="line2d_45">
    <path style="fill:none;stroke:#ff00ff;stroke-linecap:square;stroke-width:1.5;"/>
    <g/>
   </g>
   <g id="line2d_46">
    <path clip-path="url(#p08eeec1f42)" d="M 227.966207 271.556324 
" style="fill:none;stroke:#ff00ff;stroke-linecap:square;stroke-width:1.5;"/>
    <defs>
     <path d="M -12 12 
L 12 -12 
M -12 -12 
L 12 12 
" id="me870b85f7c" style="stroke:#ff00ff;"/>
    </defs>
    <g clip-path="url(#p08eeec1f42)">
     <use style="fill:#ff00ff;stroke:#ff00ff;" x="227.966207" xlink:href="#me870b85f7c" y="271.556324"/>
    </g>
   </g>
   <g id="line2d_47">
    <defs>
     <path d="M 0 1.5 
C 0.397805 1.5 0.77937 1.341951 1.06066 1.06066 
C 1.341951 0.77937 1.5 0.397805 1.5 0 
C 1.5 -0.397805 1.341951 -0.77937 1.06066 -1.06066 
C 0.77937 -1.341951 0.397805 -1.5 0 -1.5 
C -0.397805 -1.5 -0.77937 -1.341951 -1.06066 -1.06066 
C -1.341951 -0.77937 -1.5 -0.397805 -1.5 0 
C -1.5 0.397805 -1.341951 0.77937 -1.06066 1.06066 
C -0.77937 1.341951 -0.397805 1.5 0 1.5 
z
" id="m716449c9c5" style="stroke:#ff0000;"/>
    </defs>
    <g>
     <use style="fill:#ff0000;stroke:#ff0000;" x="249.126338" xlink:href="#m716449c9c5" y="30.334099"/>
     <use style="fill:#ff0000;stroke:#ff0000;" x="249.126338" xlink:href="#m716449c9c5" y="30.334099"/>
    </g>
   </g>
   <g id="line2d_48">
    <path d="M 134.225266 298.944 
L 134.225266 298.417314 
L 134.418085 298.417314 
L 134.418085 297.890628 
L 137.84096 297.890628 
L 137.84096 297.363942 
L 137.963097 297.363942 
L 137.963097 296.837256 
L 138.485501 296.837256 
L 138.54446 295.783884 
L 140.15761 295.783884 
L 140.15761 295.257197 
L 140.944478 295.257197 
L 140.944478 294.730511 
L 142.51311 294.730511 
L 142.51311 294.203825 
L 142.910378 294.203825 
L 142.910378 293.677139 
L 143.11861 293.677139 
L 143.18962 292.097081 
L 143.420014 292.097081 
L 143.420014 291.570395 
L 143.778691 291.570395 
L 143.778691 291.043709 
L 146.999721 291.043709 
L 146.999721 290.517023 
L 164.980675 290.517023 
L 164.980675 289.990337 
L 165.114958 289.990337 
L 165.114958 289.463651 
L 165.250034 289.463651 
L 165.250034 288.936964 
L 165.366018 288.936964 
L 165.366018 288.410278 
L 165.746566 288.410278 
L 165.788929 287.356906 
L 166.167357 287.356906 
L 166.167357 286.83022 
L 166.36292 286.83022 
L 166.36292 286.303534 
L 166.873949 286.303534 
L 166.878918 285.250162 
L 167.032264 285.250162 
L 167.032264 284.723476 
L 167.477974 284.723476 
L 167.546649 283.670104 
L 167.683191 283.670104 
L 167.765236 282.616732 
L 168.08961 282.616732 
L 168.08961 282.090045 
L 168.572648 282.090045 
L 168.572648 281.563359 
L 170.243804 281.563359 
L 170.243804 281.036673 
L 170.601968 281.036673 
L 170.601968 280.509987 
L 177.664067 280.509987 
L 177.664067 279.983301 
L 178.474775 279.983301 
L 178.474775 279.456615 
L 179.32345 279.456615 
L 179.342911 278.403243 
L 179.85716 278.403243 
L 179.85716 277.876557 
L 180.316871 277.876557 
L 180.408596 276.823185 
L 180.596647 276.823185 
L 180.596647 276.296499 
L 181.137236 276.296499 
L 181.137236 275.769812 
L 181.32776 275.769812 
L 181.32776 275.243126 
L 182.149223 275.243126 
L 182.149223 274.71644 
L 189.257002 274.71644 
L 189.257002 274.189754 
L 189.590696 274.189754 
L 189.590696 273.663068 
L 189.738219 273.663068 
L 189.738219 273.136382 
L 189.908841 273.136382 
L 189.980765 271.556324 
L 190.147733 271.556324 
L 190.147733 271.029638 
L 191.248006 271.029638 
L 191.248006 270.502952 
L 191.634738 270.502952 
L 191.634738 269.976266 
L 193.268311 269.976266 
L 193.268311 269.449579 
L 193.539703 269.449579 
L 193.539703 268.922893 
L 193.812946 268.922893 
L 193.812946 268.396207 
L 194.252384 268.396207 
L 194.252384 267.869521 
L 194.535806 267.869521 
L 194.535806 267.342835 
L 202.462993 267.342835 
L 202.462993 266.816149 
L 202.775093 266.816149 
L 202.804668 265.762777 
L 203.167501 265.762777 
L 203.177835 264.709405 
L 203.40771 264.709405 
L 203.40771 264.182719 
L 203.639827 264.182719 
L 203.639827 263.656033 
L 203.820573 263.656033 
L 203.820573 263.129347 
L 204.043363 263.129347 
L 204.043363 262.60266 
L 205.670187 262.60266 
L 205.670187 262.075974 
L 205.868207 262.075974 
L 205.868207 261.549288 
L 206.445526 261.549288 
L 206.546473 260.495916 
L 206.657504 260.495916 
L 206.657504 259.96923 
L 206.986418 259.96923 
L 206.986418 259.442544 
L 208.025967 259.442544 
L 208.025967 258.915858 
L 208.260329 258.915858 
L 208.267891 257.862486 
L 214.349968 257.862486 
L 214.399543 256.809114 
L 214.565612 256.809114 
L 214.565612 256.282427 
L 214.75832 256.282427 
L 214.841502 255.229055 
L 214.941241 255.229055 
L 214.968163 254.175683 
L 215.230562 254.175683 
L 215.231597 252.595625 
L 215.364712 252.595625 
L 215.46427 250.488881 
L 215.490702 250.488881 
L 215.490702 249.962195 
L 215.608193 249.962195 
L 215.608193 249.435508 
L 215.719967 249.435508 
L 215.821125 247.328764 
L 215.902288 247.328764 
L 215.935324 244.695334 
L 216.072468 244.695334 
L 216.125157 243.641962 
L 216.193857 243.641962 
L 216.294064 240.481845 
L 216.392536 240.481845 
L 216.479089 239.428473 
L 216.54113 239.428473 
L 216.628766 236.268356 
L 216.65292 236.268356 
L 216.749487 232.054868 
L 216.832591 232.054868 
L 216.897811 228.894751 
L 216.94835 228.894751 
L 217.052253 226.788007 
L 217.07024 226.788007 
L 217.140982 223.101204 
L 217.188139 223.101204 
L 217.283635 219.941088 
L 217.342334 219.941088 
L 217.440823 216.780971 
L 217.461146 216.780971 
L 217.570558 214.674227 
L 217.597872 214.674227 
L 217.690078 211.514111 
L 217.73703 211.514111 
L 217.823154 209.934052 
L 217.853549 209.934052 
L 217.955045 206.773936 
L 217.995107 206.773936 
L 218.035342 204.140506 
L 218.121324 204.140506 
L 218.217964 202.033761 
L 218.2408 202.033761 
L 218.335829 198.873645 
L 218.35903 198.873645 
L 218.469588 196.240214 
L 218.493899 196.240214 
L 218.594819 192.026726 
L 218.638379 192.026726 
L 218.728307 190.446667 
L 218.751923 190.446667 
L 218.860025 187.813237 
L 218.872546 187.813237 
L 218.958436 185.179807 
L 218.986333 185.179807 
L 219.087023 183.599748 
L 219.132021 183.599748 
L 219.240843 181.493004 
L 219.271166 181.493004 
L 219.348255 180.439632 
L 219.405707 180.439632 
L 219.465811 179.38626 
L 219.598623 179.38626 
L 219.62656 177.806202 
L 219.71795 177.806202 
L 219.755842 176.752829 
L 219.92036 176.752829 
L 219.943364 175.699457 
L 225.435038 175.699457 
L 225.435038 175.172771 
L 225.577963 175.172771 
L 225.653345 173.592713 
L 225.718648 173.592713 
L 225.750783 172.539341 
L 225.831061 172.539341 
L 225.928523 170.959282 
L 226.063194 170.959282 
L 226.150519 167.27248 
L 226.186177 167.27248 
L 226.293046 163.058991 
L 226.304569 163.058991 
L 226.397082 159.898875 
L 226.449765 159.898875 
L 226.553198 156.212072 
L 226.570116 156.212072 
L 226.676007 153.578642 
L 226.689104 153.578642 
L 226.796998 148.311781 
L 226.847213 148.311781 
L 226.955774 144.098292 
L 226.958733 144.098292 
L 227.050634 139.358118 
L 227.079988 139.358118 
L 227.182003 131.984513 
L 227.195091 131.984513 
L 227.284876 126.190966 
L 227.327553 126.190966 
L 227.43122 120.924105 
L 227.468923 120.924105 
L 227.567418 116.18393 
L 227.581903 116.18393 
L 227.658003 111.970441 
L 227.701448 111.970441 
L 227.799901 105.650209 
L 227.865029 105.650209 
L 227.970046 101.963406 
L 227.978171 101.963406 
L 228.059064 97.223231 
L 228.109191 97.223231 
L 228.216046 91.429684 
L 228.234324 91.429684 
L 228.32743 85.636137 
L 228.356371 85.636137 
L 228.455425 80.369277 
L 228.469336 80.369277 
L 228.578877 74.049044 
L 228.600242 74.049044 
L 228.693906 70.362241 
L 228.732701 70.362241 
L 228.806756 66.148752 
L 228.867857 66.148752 
L 228.954681 64.568694 
L 229.079808 64.568694 
L 229.14947 63.515322 
L 229.25502 63.515322 
L 229.345011 61.935264 
L 229.427067 61.935264 
L 229.486402 60.881892 
L 229.554053 60.881892 
L 229.624163 59.82852 
L 229.723865 59.82852 
L 229.723865 59.301833 
L 236.400634 59.301833 
L 236.400634 58.775147 
L 236.523766 58.775147 
L 236.523766 58.248461 
L 236.738766 58.248461 
L 236.738766 57.721775 
L 236.857445 57.721775 
L 236.949838 55.615031 
L 237.107884 55.615031 
L 237.211763 54.034973 
L 237.228953 54.034973 
L 237.336196 51.928228 
L 237.366795 51.928228 
L 237.464896 50.874856 
L 237.563398 50.874856 
L 237.662577 48.768112 
L 237.971698 48.768112 
L 237.971698 48.241426 
L 240.528594 48.241426 
L 240.633251 44.554623 
L 240.698974 44.554623 
L 240.80522 42.447879 
L 240.869444 42.447879 
L 240.869444 41.921193 
L 240.981115 41.921193 
L 240.981115 41.394507 
L 241.223031 41.394507 
L 241.307865 37.181018 
L 241.397183 37.181018 
L 241.500236 35.60096 
L 241.529702 35.60096 
L 241.613517 33.494215 
L 241.721195 33.494215 
L 241.754023 32.440843 
L 246.693742 32.440843 
L 246.693742 31.914157 
L 248.192532 31.914157 
L 248.192532 31.387471 
L 248.437572 31.387471 
L 248.437572 30.860785 
L 249.126338 30.860785 
L 249.126338 30.334099 
L 338.688 30.334099 
L 338.688 30.334099 
" style="fill:none;stroke:#ff0000;stroke-linecap:square;stroke-width:1.5;"/>
   </g>
   <g id="line2d_49">
    <defs>
     <path d="M 0 -6 
L -5.196152 -3 
L -5.196152 3 
L -0 6 
L 5.196152 3 
L 5.196152 -3 
z
" id="mf10f7a71dc" style="stroke:#ff0000;stroke-linejoin:miter;stroke-width:1.5;"/>
    </defs>
    <g>
     <use style="fill-opacity:0;stroke:#ff0000;stroke-linejoin:miter;stroke-width:1.5;" x="215.821125" xlink:href="#mf10f7a71dc" y="247.328764"/>
     <use style="fill-opacity:0;stroke:#ff0000;stroke-linejoin:miter;stroke-width:1.5;" x="228.30563" xlink:href="#mf10f7a71dc" y="88.269568"/>
     <use style="fill-opacity:0;stroke:#ff0000;stroke-linejoin:miter;stroke-width:1.5;" x="249.126338" xlink:href="#mf10f7a71dc" y="30.334099"/>
     <use style="fill-opacity:0;stroke:#ff0000;stroke-linejoin:miter;stroke-width:1.5;" x="249.126338" xlink:href="#mf10f7a71dc" y="30.334099"/>
     <use style="fill-opacity:0;stroke:#ff0000;stroke-linejoin:miter;stroke-width:1.5;" x="338.688" xlink:href="#mf10f7a71dc" y="30.334099"/>
    </g>
   </g>
   <g id="line2d_50">
    <path style="fill:none;stroke:#ff0000;stroke-linecap:square;stroke-width:1.5;"/>
    <g/>
   </g>
   <g id="line2d_51">
    <path clip-path="url(#p08eeec1f42)" d="M 230.347266 59.301833 
" style="fill:none;stroke:#ff0000;stroke-linecap:square;stroke-width:1.5;"/>
    <defs>
     <path d="M -12 12 
L 12 -12 
M -12 -12 
L 12 12 
" id="m39a6229bdb" style="stroke:#ff0000;"/>
    </defs>
    <g clip-path="url(#p08eeec1f42)">
     <use style="fill:#ff0000;stroke:#ff0000;" x="230.347266" xlink:href="#m39a6229bdb" y="59.301833"/>
    </g>
   </g>
   <g id="line2d_52">
    <defs>
     <path d="M 0 1.5 
C 0.397805 1.5 0.77937 1.341951 1.06066 1.06066 
C 1.341951 0.77937 1.5 0.397805 1.5 0 
C 1.5 -0.397805 1.341951 -0.77937 1.06066 -1.06066 
C 0.77937 -1.341951 0.397805 -1.5 0 -1.5 
C -0.397805 -1.5 -0.77937 -1.341951 -1.06066 -1.06066 
C -1.341951 -0.77937 -1.5 -0.397805 -1.5 0 
C -1.5 0.397805 -1.341951 0.77937 -1.06066 1.06066 
C -0.77937 1.341951 -0.397805 1.5 0 1.5 
z
" id="m0d3fddd481" style="stroke:#ff7500;"/>
    </defs>
    <g>
     <use style="fill:#ff7500;stroke:#ff7500;" x="248.902296" xlink:href="#m0d3fddd481" y="30.334099"/>
     <use style="fill:#ff7500;stroke:#ff7500;" x="248.902296" xlink:href="#m0d3fddd481" y="30.334099"/>
    </g>
   </g>
   <g id="line2d_53">
    <path d="M 130.545255 298.944 
L 130.545255 298.417314 
L 134.364738 298.417314 
L 134.364738 297.890628 
L 136.141133 297.890628 
L 136.141133 297.363942 
L 136.65465 297.363942 
L 136.65465 296.837256 
L 136.76674 296.837256 
L 136.76674 296.31057 
L 136.933536 296.31057 
L 136.933536 295.783884 
L 137.770782 295.783884 
L 137.770782 295.257197 
L 138.144712 295.257197 
L 138.144712 294.730511 
L 138.409402 294.730511 
L 138.477062 293.677139 
L 139.381706 293.677139 
L 139.381706 293.150453 
L 139.628399 293.150453 
L 139.628399 292.623767 
L 140.134598 292.623767 
L 140.134598 292.097081 
L 140.416312 292.097081 
L 140.416312 291.570395 
L 141.256745 291.570395 
L 141.256745 291.043709 
L 141.46423 291.043709 
L 141.46423 290.517023 
L 142.385399 290.517023 
L 142.385399 289.990337 
L 142.936543 289.990337 
L 142.936543 289.463651 
L 143.534079 289.463651 
L 143.534079 288.936964 
L 144.142344 288.936964 
L 144.142344 288.410278 
L 144.841802 288.410278 
L 144.841802 287.883592 
L 145.172662 287.883592 
L 145.172662 287.356906 
L 146.978997 287.356906 
L 146.978997 286.83022 
L 152.458925 286.83022 
L 152.458925 286.303534 
L 164.569616 286.303534 
L 164.650725 285.250162 
L 165.113126 285.250162 
L 165.113126 284.723476 
L 165.239121 284.723476 
L 165.239121 284.19679 
L 165.409314 284.19679 
L 165.409314 283.670104 
L 165.714726 283.670104 
L 165.714726 283.143418 
L 166.143188 283.143418 
L 166.143188 282.616732 
L 167.346259 282.616732 
L 167.450749 281.563359 
L 167.513144 281.563359 
L 167.513144 281.036673 
L 168.154383 281.036673 
L 168.257216 279.983301 
L 168.661092 279.983301 
L 168.661092 279.456615 
L 169.711392 279.456615 
L 169.711392 278.929929 
L 179.54755 278.929929 
L 179.54755 278.403243 
L 180.337551 278.403243 
L 180.337551 277.876557 
L 180.449716 277.876557 
L 180.556629 276.296499 
L 180.683915 276.296499 
L 180.787169 274.71644 
L 180.859381 274.71644 
L 180.859381 274.189754 
L 181.061028 274.189754 
L 181.061028 273.663068 
L 181.244389 273.663068 
L 181.343664 272.609696 
L 181.536246 272.609696 
L 181.536246 272.08301 
L 181.7458 272.08301 
L 181.829624 270.502952 
L 182.075242 270.502952 
L 182.075242 269.976266 
L 182.238688 269.976266 
L 182.238688 269.449579 
L 182.48948 269.449579 
L 182.48948 268.922893 
L 182.74872 268.922893 
L 182.74872 268.396207 
L 182.868304 268.396207 
L 182.868304 267.869521 
L 191.691516 267.869521 
L 191.691516 267.342835 
L 191.962451 267.342835 
L 191.962451 266.816149 
L 192.191266 266.816149 
L 192.203287 265.762777 
L 192.448107 265.762777 
L 192.448107 265.236091 
L 193.066202 265.236091 
L 193.066202 264.709405 
L 193.30838 264.709405 
L 193.319656 263.656033 
L 193.617444 263.656033 
L 193.617444 263.129347 
L 194.1511 263.129347 
L 194.1511 262.60266 
L 203.7071 262.60266 
L 203.7071 262.075974 
L 204.284102 262.075974 
L 204.284102 261.549288 
L 204.45487 261.549288 
L 204.45487 261.022602 
L 204.671837 261.022602 
L 204.698745 259.96923 
L 205.040743 259.96923 
L 205.040743 259.442544 
L 205.717046 259.442544 
L 205.717046 258.915858 
L 205.885197 258.915858 
L 205.991189 256.809114 
L 206.002263 256.809114 
L 206.002263 256.282427 
L 206.182488 256.282427 
L 206.182488 255.755741 
L 206.562816 255.755741 
L 206.562816 255.229055 
L 206.883984 255.229055 
L 206.883984 254.702369 
L 207.141172 254.702369 
L 207.141172 254.175683 
L 207.284282 254.175683 
L 207.342956 253.122311 
L 207.42477 253.122311 
L 207.42477 252.595625 
L 207.679428 252.595625 
L 207.708133 251.542253 
L 207.797135 251.542253 
L 207.797135 251.015567 
L 207.914367 251.015567 
L 207.914367 250.488881 
L 208.222466 250.488881 
L 208.299187 249.435508 
L 208.604858 249.435508 
L 208.604858 248.908822 
L 208.807248 248.908822 
L 208.906453 247.85545 
L 209.102598 247.85545 
L 209.172621 246.802078 
L 209.326502 246.802078 
L 209.421361 245.22202 
L 209.473855 245.22202 
L 209.473855 244.695334 
L 209.750567 244.695334 
L 209.750567 244.168648 
L 210.078263 244.168648 
L 210.162764 243.115275 
L 214.896034 243.115275 
L 214.985387 241.535217 
L 215.013499 241.535217 
L 215.115701 240.481845 
L 215.171045 240.481845 
L 215.262414 238.901787 
L 215.423573 238.901787 
L 215.533074 236.795043 
L 215.542126 236.795043 
L 215.627125 235.214984 
L 215.69912 235.214984 
L 215.785465 233.10824 
L 215.833728 233.10824 
L 215.853815 232.054868 
L 215.953209 232.054868 
L 216.010714 229.948123 
L 216.128205 229.948123 
L 216.222825 228.894751 
L 216.263067 228.894751 
L 216.266091 227.841379 
L 216.422144 227.841379 
L 216.532967 224.681263 
L 216.574512 224.681263 
L 216.629625 223.627891 
L 216.707881 223.627891 
L 216.747874 222.574518 
L 216.845805 222.574518 
L 216.955102 219.414402 
L 217.026312 219.414402 
L 217.133837 217.307658 
L 217.174903 217.307658 
L 217.23932 215.727599 
L 217.419106 215.727599 
L 217.529144 213.094169 
L 217.721872 213.094169 
L 217.801105 210.460738 
L 217.862007 210.460738 
L 217.93591 208.88068 
L 218.009942 208.88068 
L 218.090602 207.827308 
L 218.171329 207.827308 
L 218.242019 206.773936 
L 218.294024 206.773936 
L 218.310168 205.720564 
L 218.410343 205.720564 
L 218.470017 204.140506 
L 223.889598 204.140506 
L 223.889598 203.613819 
L 224.123149 203.613819 
L 224.203465 202.560447 
L 224.254624 202.560447 
L 224.318241 201.507075 
L 224.454482 201.507075 
L 224.507161 200.453703 
L 224.618572 200.453703 
L 224.618572 199.927017 
L 224.73828 199.927017 
L 224.847394 198.346959 
L 224.874923 198.346959 
L 224.978276 195.186842 
L 225.036421 195.186842 
L 225.143808 193.606784 
L 225.150784 193.606784 
L 225.254151 189.919981 
L 225.30058 189.919981 
L 225.410978 185.179807 
L 225.439189 185.179807 
L 225.538917 180.439632 
L 225.55324 180.439632 
L 225.660461 176.752829 
L 225.67076 176.752829 
L 225.781673 173.066027 
L 225.799864 173.066027 
L 225.889693 168.852538 
L 225.923982 168.852538 
L 226.031462 160.952247 
L 226.035474 160.952247 
L 226.144652 157.79213 
L 226.149744 157.79213 
L 226.249794 151.471897 
L 226.265689 151.471897 
L 226.371691 145.678351 
L 226.389277 145.678351 
L 226.500012 138.831432 
L 226.509231 138.831432 
L 226.61366 133.037885 
L 226.625134 133.037885 
L 226.721216 125.66428 
L 226.739203 125.66428 
L 226.844767 121.977477 
L 226.857525 121.977477 
L 226.958838 116.18393 
L 226.976634 116.18393 
L 227.074478 110.917069 
L 227.097399 110.917069 
L 227.196602 104.07015 
L 227.216448 104.07015 
L 227.312028 97.223231 
L 227.337275 97.223231 
L 227.433174 91.429684 
L 227.453728 91.429684 
L 227.542655 86.162824 
L 227.570684 86.162824 
L 227.679612 80.369277 
L 227.686911 80.369277 
L 227.75771 76.682474 
L 227.799448 76.682474 
L 227.903859 71.942299 
L 227.920667 71.942299 
L 227.979666 69.835555 
L 228.032704 69.835555 
L 228.127976 66.148752 
L 228.16021 66.148752 
L 228.224647 64.568694 
L 228.305141 64.568694 
L 228.377913 62.46195 
L 228.437863 62.46195 
L 228.450333 61.408578 
L 228.553823 61.408578 
L 228.591632 60.355206 
L 234.538369 60.355206 
L 234.538369 59.82852 
L 235.045021 59.82852 
L 235.093769 58.248461 
L 236.54677 58.248461 
L 236.54677 57.721775 
L 236.782346 57.721775 
L 236.782346 57.195089 
L 236.910855 57.195089 
L 236.910855 56.668403 
L 237.119955 56.668403 
L 237.229744 55.088345 
L 237.25734 55.088345 
L 237.25734 54.561659 
L 239.92689 54.561659 
L 240.00378 53.508287 
L 240.068975 53.508287 
L 240.150872 50.34817 
L 240.193717 50.34817 
L 240.289502 48.241426 
L 240.420448 48.241426 
L 240.510531 46.134681 
L 240.546032 46.134681 
L 240.546032 45.607995 
L 240.686763 45.607995 
L 240.795067 41.921193 
L 240.811883 41.921193 
L 240.92098 39.814448 
L 240.944216 39.814448 
L 241.030484 37.707704 
L 241.085497 37.707704 
L 241.195097 35.60096 
L 241.207961 35.60096 
L 241.281531 34.547588 
L 241.33022 34.547588 
L 241.33022 34.020902 
L 247.894923 34.020902 
L 247.894923 33.494215 
L 248.27376 33.494215 
L 248.314333 32.440843 
L 248.461253 32.440843 
L 248.538651 31.387471 
L 248.828398 31.387471 
L 248.902296 30.334099 
L 338.688 30.334099 
L 338.688 30.334099 
" style="fill:none;stroke:#ff7500;stroke-linecap:square;stroke-width:1.5;"/>
   </g>
   <g id="line2d_54">
    <defs>
     <path d="M 0 -6 
L -1.347084 -1.854102 
L -5.706339 -1.854102 
L -2.179628 0.708204 
L -3.526712 4.854102 
L -0 2.291796 
L 3.526712 4.854102 
L 2.179628 0.708204 
L 5.706339 -1.854102 
L 1.347084 -1.854102 
z
" id="m7b8f6cf95c" style="stroke:#ff7500;stroke-linejoin:bevel;stroke-width:1.5;"/>
    </defs>
    <g>
     <use style="fill-opacity:0;stroke:#ff7500;stroke-linejoin:bevel;stroke-width:1.5;" x="215.833728" xlink:href="#m7b8f6cf95c" y="232.581554"/>
     <use style="fill-opacity:0;stroke:#ff7500;stroke-linejoin:bevel;stroke-width:1.5;" x="240.289502" xlink:href="#m7b8f6cf95c" y="48.768112"/>
     <use style="fill-opacity:0;stroke:#ff7500;stroke-linejoin:bevel;stroke-width:1.5;" x="248.902296" xlink:href="#m7b8f6cf95c" y="30.334099"/>
     <use style="fill-opacity:0;stroke:#ff7500;stroke-linejoin:bevel;stroke-width:1.5;" x="248.902296" xlink:href="#m7b8f6cf95c" y="30.334099"/>
     <use style="fill-opacity:0;stroke:#ff7500;stroke-linejoin:bevel;stroke-width:1.5;" x="338.688" xlink:href="#m7b8f6cf95c" y="30.334099"/>
    </g>
   </g>
   <g id="line2d_55">
    <path style="fill:none;stroke:#ff7500;stroke-linecap:square;stroke-width:1.5;"/>
    <g/>
   </g>
   <g id="line2d_56">
    <path clip-path="url(#p08eeec1f42)" d="M 230.36555 60.355206 
" style="fill:none;stroke:#ff7500;stroke-linecap:square;stroke-width:1.5;"/>
    <defs>
     <path d="M -12 12 
L 12 -12 
M -12 -12 
L 12 12 
" id="m095f04f316" style="stroke:#ff7500;"/>
    </defs>
    <g clip-path="url(#p08eeec1f42)">
     <use style="fill:#ff7500;stroke:#ff7500;" x="230.36555" xlink:href="#m095f04f316" y="60.355206"/>
    </g>
   </g>
   <g id="line2d_57">
    <path d="M 338.688 241.008531 
L 369.60768 293.571802 
" style="fill:none;stroke:#ff00ff;stroke-linecap:square;stroke-width:1.5;"/>
    <g>
     <use style="fill-opacity:0;stroke:#ff00ff;stroke-linejoin:miter;stroke-width:1.5;" x="338.688" xlink:href="#mc2c442b138" y="241.008531"/>
     <use style="fill-opacity:0;stroke:#ff00ff;stroke-linejoin:miter;stroke-width:1.5;" x="369.60768" xlink:href="#mc2c442b138" y="293.571802"/>
    </g>
   </g>
   <g id="line2d_58">
    <path d="M 338.688 30.334099 
L 369.60768 241.998701 
" style="fill:none;stroke:#ff0000;stroke-linecap:square;stroke-width:1.5;"/>
    <g>
     <use style="fill-opacity:0;stroke:#ff0000;stroke-linejoin:miter;stroke-width:1.5;" x="338.688" xlink:href="#mf10f7a71dc" y="30.334099"/>
     <use style="fill-opacity:0;stroke:#ff0000;stroke-linejoin:miter;stroke-width:1.5;" x="369.60768" xlink:href="#mf10f7a71dc" y="241.998701"/>
    </g>
   </g>
   <g id="line2d_59">
    <path d="M 338.688 30.334099 
L 369.60768 190.4256 
" style="fill:none;stroke:#ff7500;stroke-linecap:square;stroke-width:1.5;"/>
    <g>
     <use style="fill-opacity:0;stroke:#ff7500;stroke-linejoin:bevel;stroke-width:1.5;" x="338.688" xlink:href="#m7b8f6cf95c" y="30.334099"/>
     <use style="fill-opacity:0;stroke:#ff7500;stroke-linejoin:bevel;stroke-width:1.5;" x="369.60768" xlink:href="#m7b8f6cf95c" y="190.4256"/>
    </g>
   </g>
   <g id="line2d_60">
    <path d="M 338.688 30.334099 
L 369.60768 138.852499 
" style="fill:none;stroke:#000080;stroke-linecap:square;stroke-width:1.5;"/>
    <g>
     <use style="fill-opacity:0;stroke:#000080;stroke-width:1.5;" x="338.688" xlink:href="#ma9dc0fb410" y="30.334099"/>
     <use style="fill-opacity:0;stroke:#000080;stroke-width:1.5;" x="369.60768" xlink:href="#ma9dc0fb410" y="138.852499"/>
    </g>
   </g>
   <g id="line2d_61">
    <path d="M 338.688 30.334099 
L 369.60768 35.706297 
" style="fill:none;stroke:#000080;stroke-linecap:square;stroke-width:1.5;"/>
    <g>
     <use style="fill-opacity:0;stroke:#000080;stroke-width:1.5;" x="338.688" xlink:href="#ma9dc0fb410" y="30.334099"/>
     <use style="fill-opacity:0;stroke:#000080;stroke-width:1.5;" x="369.60768" xlink:href="#ma9dc0fb410" y="35.706297"/>
    </g>
   </g>
   <g id="line2d_62">
    <path d="M 338.688 298.944 
L 338.688 30.334099 
" style="fill:none;stroke:#000000;stroke-linecap:square;stroke-width:1.5;"/>
   </g>
   <g id="patch_3">
    <path d="M 57.6 298.944 
L 57.6 27.648 
" style="fill:none;stroke:#000000;stroke-linecap:square;stroke-linejoin:miter;stroke-width:0.8;"/>
   </g>
   <g id="patch_4">
    <path d="M 338.688 298.944 
L 338.688 27.648 
" style="fill:none;stroke:#000000;stroke-linecap:square;stroke-linejoin:miter;stroke-width:0.8;"/>
   </g>
   <g id="patch_5">
    <path d="M 57.6 298.944 
L 338.688 298.944 
" style="fill:none;stroke:#000000;stroke-linecap:square;stroke-linejoin:miter;stroke-width:0.8;"/>
   </g>
   <g id="patch_6">
    <path d="M 57.6 27.648 
L 338.688 27.648 
" style="fill:none;stroke:#000000;stroke-linecap:square;stroke-linejoin:miter;stroke-width:0.8;"/>
   </g>
   <g id="text_13">
    <!-- 400s-2e4 -->
    <g transform="translate(375.22944 298.262739)scale(0.17 -0.17)">
     <use xlink:href="#DejaVuSans-52"/>
     <use x="63.623047" xlink:href="#DejaVuSans-48"/>
     <use x="127.246094" xlink:href="#DejaVuSans-48"/>
     <use x="190.869141" xlink:href="#DejaVuSans-115"/>
     <use x="242.96875" xlink:href="#DejaVuSans-45"/>
     <use x="279.052734" xlink:href="#DejaVuSans-50"/>
     <use x="342.675781" xlink:href="#DejaVuSans-101"/>
     <use x="404.199219" xlink:href="#DejaVuSans-52"/>
    </g>
   </g>
   <g id="text_14">
    <!-- 200s-2e4 -->
    <g transform="translate(375.22944 246.689638)scale(0.17 -0.17)">
     <use xlink:href="#DejaVuSans-50"/>
     <use x="63.623047" xlink:href="#DejaVuSans-48"/>
     <use x="127.246094" xlink:href="#DejaVuSans-48"/>
     <use x="190.869141" xlink:href="#DejaVuSans-115"/>
     <use x="242.96875" xlink:href="#DejaVuSans-45"/>
     <use x="279.052734" xlink:href="#DejaVuSans-50"/>
     <use x="342.675781" xlink:href="#DejaVuSans-101"/>
     <use x="404.199219" xlink:href="#DejaVuSans-52"/>
    </g>
   </g>
   <g id="text_15">
    <!-- 140s-2e4 -->
    <g transform="translate(375.22944 195.116537)scale(0.17 -0.17)">
     <use xlink:href="#DejaVuSans-49"/>
     <use x="63.623047" xlink:href="#DejaVuSans-52"/>
     <use x="127.246094" xlink:href="#DejaVuSans-48"/>
     <use x="190.869141" xlink:href="#DejaVuSans-115"/>
     <use x="242.96875" xlink:href="#DejaVuSans-45"/>
     <use x="279.052734" xlink:href="#DejaVuSans-50"/>
     <use x="342.675781" xlink:href="#DejaVuSans-101"/>
     <use x="404.199219" xlink:href="#DejaVuSans-52"/>
    </g>
   </g>
   <g id="text_16">
    <!-- 100-1e5 -->
    <defs>
     <path d="M 10.796875 72.90625 
L 49.515625 72.90625 
L 49.515625 64.59375 
L 19.828125 64.59375 
L 19.828125 46.734375 
Q 21.96875 47.46875 24.109375 47.828125 
Q 26.265625 48.1875 28.421875 48.1875 
Q 40.625 48.1875 47.75 41.5 
Q 54.890625 34.8125 54.890625 23.390625 
Q 54.890625 11.625 47.5625 5.09375 
Q 40.234375 -1.421875 26.90625 -1.421875 
Q 22.3125 -1.421875 17.546875 -0.640625 
Q 12.796875 0.140625 7.71875 1.703125 
L 7.71875 11.625 
Q 12.109375 9.234375 16.796875 8.0625 
Q 21.484375 6.890625 26.703125 6.890625 
Q 35.15625 6.890625 40.078125 11.328125 
Q 45.015625 15.765625 45.015625 23.390625 
Q 45.015625 31 40.078125 35.4375 
Q 35.15625 39.890625 26.703125 39.890625 
Q 22.75 39.890625 18.8125 39.015625 
Q 14.890625 38.140625 10.796875 36.28125 
z
" id="DejaVuSans-53"/>
    </defs>
    <g transform="translate(375.22944 143.543437)scale(0.17 -0.17)">
     <use xlink:href="#DejaVuSans-49"/>
     <use x="63.623047" xlink:href="#DejaVuSans-48"/>
     <use x="127.246094" xlink:href="#DejaVuSans-48"/>
     <use x="190.869141" xlink:href="#DejaVuSans-45"/>
     <use x="226.953125" xlink:href="#DejaVuSans-49"/>
     <use x="290.576172" xlink:href="#DejaVuSans-101"/>
     <use x="352.099609" xlink:href="#DejaVuSans-53"/>
    </g>
   </g>
   <g id="text_17">
    <!-- best 2009 -->
    <defs>
     <path d="M 48.6875 27.296875 
Q 48.6875 37.203125 44.609375 42.84375 
Q 40.53125 48.484375 33.40625 48.484375 
Q 26.265625 48.484375 22.1875 42.84375 
Q 18.109375 37.203125 18.109375 27.296875 
Q 18.109375 17.390625 22.1875 11.75 
Q 26.265625 6.109375 33.40625 6.109375 
Q 40.53125 6.109375 44.609375 11.75 
Q 48.6875 17.390625 48.6875 27.296875 
z
M 18.109375 46.390625 
Q 20.953125 51.265625 25.265625 53.625 
Q 29.59375 56 35.59375 56 
Q 45.5625 56 51.78125 48.09375 
Q 58.015625 40.1875 58.015625 27.296875 
Q 58.015625 14.40625 51.78125 6.484375 
Q 45.5625 -1.421875 35.59375 -1.421875 
Q 29.59375 -1.421875 25.265625 0.953125 
Q 20.953125 3.328125 18.109375 8.203125 
L 18.109375 0 
L 9.078125 0 
L 9.078125 75.984375 
L 18.109375 75.984375 
z
" id="DejaVuSans-98"/>
     <path d="M 10.984375 1.515625 
L 10.984375 10.5 
Q 14.703125 8.734375 18.5 7.8125 
Q 22.3125 6.890625 25.984375 6.890625 
Q 35.75 6.890625 40.890625 13.453125 
Q 46.046875 20.015625 46.78125 33.40625 
Q 43.953125 29.203125 39.59375 26.953125 
Q 35.25 24.703125 29.984375 24.703125 
Q 19.046875 24.703125 12.671875 31.3125 
Q 6.296875 37.9375 6.296875 49.421875 
Q 6.296875 60.640625 12.9375 67.421875 
Q 19.578125 74.21875 30.609375 74.21875 
Q 43.265625 74.21875 49.921875 64.515625 
Q 56.59375 54.828125 56.59375 36.375 
Q 56.59375 19.140625 48.40625 8.859375 
Q 40.234375 -1.421875 26.421875 -1.421875 
Q 22.703125 -1.421875 18.890625 -0.6875 
Q 15.09375 0.046875 10.984375 1.515625 
z
M 30.609375 32.421875 
Q 37.25 32.421875 41.125 36.953125 
Q 45.015625 41.5 45.015625 49.421875 
Q 45.015625 57.28125 41.125 61.84375 
Q 37.25 66.40625 30.609375 66.40625 
Q 23.96875 66.40625 20.09375 61.84375 
Q 16.21875 57.28125 16.21875 49.421875 
Q 16.21875 41.5 20.09375 36.953125 
Q 23.96875 32.421875 30.609375 32.421875 
z
" id="DejaVuSans-57"/>
    </defs>
    <g transform="translate(375.22944 91.970336)scale(0.17 -0.17)">
     <use xlink:href="#DejaVuSans-98"/>
     <use x="63.476562" xlink:href="#DejaVuSans-101"/>
     <use x="125" xlink:href="#DejaVuSans-115"/>
     <use x="177.099609" xlink:href="#DejaVuSans-116"/>
     <use x="216.308594" xlink:href="#DejaVuSans-32"/>
     <use x="248.095703" xlink:href="#DejaVuSans-50"/>
     <use x="311.71875" xlink:href="#DejaVuSans-48"/>
     <use x="375.341797" xlink:href="#DejaVuSans-48"/>
     <use x="438.964844" xlink:href="#DejaVuSans-57"/>
    </g>
   </g>
   <g id="text_18">
    <!-- 100-2e4 -->
    <g transform="translate(375.22944 40.397235)scale(0.17 -0.17)">
     <use xlink:href="#DejaVuSans-49"/>
     <use x="63.623047" xlink:href="#DejaVuSans-48"/>
     <use x="127.246094" xlink:href="#DejaVuSans-48"/>
     <use x="190.869141" xlink:href="#DejaVuSans-45"/>
     <use x="226.953125" xlink:href="#DejaVuSans-50"/>
     <use x="290.576172" xlink:href="#DejaVuSans-101"/>
     <use x="352.099609" xlink:href="#DejaVuSans-52"/>
    </g>
   </g>
   <g id="text_19">
    <!-- bbob f15, 20-D -->
    <defs>
     <path d="M 19.671875 64.796875 
L 19.671875 8.109375 
L 31.59375 8.109375 
Q 46.6875 8.109375 53.6875 14.9375 
Q 60.6875 21.78125 60.6875 36.53125 
Q 60.6875 51.171875 53.6875 57.984375 
Q 46.6875 64.796875 31.59375 64.796875 
z
M 9.8125 72.90625 
L 30.078125 72.90625 
Q 51.265625 72.90625 61.171875 64.09375 
Q 71.09375 55.28125 71.09375 36.53125 
Q 71.09375 17.671875 61.125 8.828125 
Q 51.171875 0 30.078125 0 
L 9.8125 0 
z
" id="DejaVuSans-68"/>
    </defs>
    <g transform="translate(60.41088 38.111366)scale(0.102 -0.102)">
     <use xlink:href="#DejaVuSans-98"/>
     <use x="63.476562" xlink:href="#DejaVuSans-98"/>
     <use x="126.953125" xlink:href="#DejaVuSans-111"/>
     <use x="188.134766" xlink:href="#DejaVuSans-98"/>
     <use x="251.611328" xlink:href="#DejaVuSans-32"/>
     <use x="283.398438" xlink:href="#DejaVuSans-102"/>
     <use x="318.603516" xlink:href="#DejaVuSans-49"/>
     <use x="382.226562" xlink:href="#DejaVuSans-53"/>
     <use x="445.849609" xlink:href="#DejaVuSans-44"/>
     <use x="477.636719" xlink:href="#DejaVuSans-32"/>
     <use x="509.423828" xlink:href="#DejaVuSans-50"/>
     <use x="573.046875" xlink:href="#DejaVuSans-48"/>
     <use x="636.669922" xlink:href="#DejaVuSans-45"/>
     <use x="672.753906" xlink:href="#DejaVuSans-68"/>
    </g>
    <!-- 51 targets: 100..1e-08 -->
    <defs>
     <path d="M 11.71875 12.40625 
L 22.015625 12.40625 
L 22.015625 0 
L 11.71875 0 
z
M 11.71875 51.703125 
L 22.015625 51.703125 
L 22.015625 39.3125 
L 11.71875 39.3125 
z
" id="DejaVuSans-58"/>
    </defs>
    <g transform="translate(60.41088 49.533135)scale(0.102 -0.102)">
     <use xlink:href="#DejaVuSans-53"/>
     <use x="63.623047" xlink:href="#DejaVuSans-49"/>
     <use x="127.246094" xlink:href="#DejaVuSans-32"/>
     <use x="159.033203" xlink:href="#DejaVuSans-116"/>
     <use x="198.242188" xlink:href="#DejaVuSans-97"/>
     <use x="259.521484" xlink:href="#DejaVuSans-114"/>
     <use x="300.619141" xlink:href="#DejaVuSans-103"/>
     <use x="364.095703" xlink:href="#DejaVuSans-101"/>
     <use x="425.619141" xlink:href="#DejaVuSans-116"/>
     <use x="464.828125" xlink:href="#DejaVuSans-115"/>
     <use x="516.927734" xlink:href="#DejaVuSans-58"/>
     <use x="550.619141" xlink:href="#DejaVuSans-32"/>
     <use x="582.40625" xlink:href="#DejaVuSans-49"/>
     <use x="646.029297" xlink:href="#DejaVuSans-48"/>
     <use x="709.652344" xlink:href="#DejaVuSans-48"/>
     <use x="773.275391" xlink:href="#DejaVuSans-46"/>
     <use x="805.0625" xlink:href="#DejaVuSans-46"/>
     <use x="836.849609" xlink:href="#DejaVuSans-49"/>
     <use x="900.472656" xlink:href="#DejaVuSans-101"/>
     <use x="961.996094" xlink:href="#DejaVuSans-45"/>
     <use x="998.080078" xlink:href="#DejaVuSans-48"/>
     <use x="1061.703125" xlink:href="#DejaVuSans-56"/>
    </g>
    <!-- 15 instances -->
    <g transform="translate(60.41088 60.954904)scale(0.102 -0.102)">
     <use xlink:href="#DejaVuSans-49"/>
     <use x="63.623047" xlink:href="#DejaVuSans-53"/>
     <use x="127.246094" xlink:href="#DejaVuSans-32"/>
     <use x="159.033203" xlink:href="#DejaVuSans-105"/>
     <use x="186.816406" xlink:href="#DejaVuSans-110"/>
     <use x="250.195312" xlink:href="#DejaVuSans-115"/>
     <use x="302.294922" xlink:href="#DejaVuSans-116"/>
     <use x="341.503906" xlink:href="#DejaVuSans-97"/>
     <use x="402.783203" xlink:href="#DejaVuSans-110"/>
     <use x="466.162109" xlink:href="#DejaVuSans-99"/>
     <use x="521.142578" xlink:href="#DejaVuSans-101"/>
     <use x="582.666016" xlink:href="#DejaVuSans-115"/>
    </g>
   </g>
   <g id="text_20">
    <!-- v2.3.3.18.73 -->
    <defs>
     <path d="M 40.578125 39.3125 
Q 47.65625 37.796875 51.625 33 
Q 55.609375 28.21875 55.609375 21.1875 
Q 55.609375 10.40625 48.1875 4.484375 
Q 40.765625 -1.421875 27.09375 -1.421875 
Q 22.515625 -1.421875 17.65625 -0.515625 
Q 12.796875 0.390625 7.625 2.203125 
L 7.625 11.71875 
Q 11.71875 9.328125 16.59375 8.109375 
Q 21.484375 6.890625 26.8125 6.890625 
Q 36.078125 6.890625 40.9375 10.546875 
Q 45.796875 14.203125 45.796875 21.1875 
Q 45.796875 27.640625 41.28125 31.265625 
Q 36.765625 34.90625 28.71875 34.90625 
L 20.21875 34.90625 
L 20.21875 43.015625 
L 29.109375 43.015625 
Q 36.375 43.015625 40.234375 45.921875 
Q 44.09375 48.828125 44.09375 54.296875 
Q 44.09375 59.90625 40.109375 62.90625 
Q 36.140625 65.921875 28.71875 65.921875 
Q 24.65625 65.921875 20.015625 65.03125 
Q 15.375 64.15625 9.8125 62.3125 
L 9.8125 71.09375 
Q 15.4375 72.65625 20.34375 73.4375 
Q 25.25 74.21875 29.59375 74.21875 
Q 40.828125 74.21875 47.359375 69.109375 
Q 53.90625 64.015625 53.90625 55.328125 
Q 53.90625 49.265625 50.4375 45.09375 
Q 46.96875 40.921875 40.578125 39.3125 
z
" id="DejaVuSans-51"/>
     <path d="M 8.203125 72.90625 
L 55.078125 72.90625 
L 55.078125 68.703125 
L 28.609375 0 
L 18.3125 0 
L 43.21875 64.59375 
L 8.203125 64.59375 
z
" id="DejaVuSans-55"/>
    </defs>
    <g style="fill:#808080;" transform="translate(166.559625 294.151352)scale(0.1 -0.1)">
     <use xlink:href="#DejaVuSans-118"/>
     <use x="59.179688" xlink:href="#DejaVuSans-50"/>
     <use x="122.802734" xlink:href="#DejaVuSans-46"/>
     <use x="154.589844" xlink:href="#DejaVuSans-51"/>
     <use x="218.212891" xlink:href="#DejaVuSans-46"/>
     <use x="250" xlink:href="#DejaVuSans-51"/>
     <use x="313.623047" xlink:href="#DejaVuSans-46"/>
     <use x="345.410156" xlink:href="#DejaVuSans-49"/>
     <use x="409.033203" xlink:href="#DejaVuSans-56"/>
     <use x="472.65625" xlink:href="#DejaVuSans-46"/>
     <use x="504.443359" xlink:href="#DejaVuSans-55"/>
     <use x="568.066406" xlink:href="#DejaVuSans-51"/>
    </g>
   </g>
   <g id="text_21">
    <!-- 15 Rastrigin -->
    <defs>
     <path d="M 44.390625 34.1875 
Q 47.5625 33.109375 50.5625 29.59375 
Q 53.5625 26.078125 56.59375 19.921875 
L 66.609375 0 
L 56 0 
L 46.6875 18.703125 
Q 43.0625 26.03125 39.671875 28.421875 
Q 36.28125 30.8125 30.421875 30.8125 
L 19.671875 30.8125 
L 19.671875 0 
L 9.8125 0 
L 9.8125 72.90625 
L 32.078125 72.90625 
Q 44.578125 72.90625 50.734375 67.671875 
Q 56.890625 62.453125 56.890625 51.90625 
Q 56.890625 45.015625 53.6875 40.46875 
Q 50.484375 35.9375 44.390625 34.1875 
z
M 19.671875 64.796875 
L 19.671875 38.921875 
L 32.078125 38.921875 
Q 39.203125 38.921875 42.84375 42.21875 
Q 46.484375 45.515625 46.484375 51.90625 
Q 46.484375 58.296875 42.84375 61.546875 
Q 39.203125 64.796875 32.078125 64.796875 
z
" id="DejaVuSans-82"/>
    </defs>
    <g transform="translate(137.684625 21.648)scale(0.2 -0.2)">
     <use xlink:href="#DejaVuSans-49"/>
     <use x="63.623047" xlink:href="#DejaVuSans-53"/>
     <use x="127.246094" xlink:href="#DejaVuSans-32"/>
     <use x="159.033203" xlink:href="#DejaVuSans-82"/>
     <use x="228.484375" xlink:href="#DejaVuSans-97"/>
     <use x="289.763672" xlink:href="#DejaVuSans-115"/>
     <use x="341.863281" xlink:href="#DejaVuSans-116"/>
     <use x="381.072266" xlink:href="#DejaVuSans-114"/>
     <use x="422.185547" xlink:href="#DejaVuSans-105"/>
     <use x="449.96875" xlink:href="#DejaVuSans-103"/>
     <use x="513.445312" xlink:href="#DejaVuSans-105"/>
     <use x="541.228516" xlink:href="#DejaVuSans-110"/>
    </g>
   </g>
  </g>
 </g>
 <defs>
  <clipPath id="p08eeec1f42">
   <rect height="271.296" width="281.088" x="57.6" y="27.648"/>
  </clipPath>
 </defs>
</svg>
