<?xml version="1.0" encoding="utf-8" standalone="no"?>
<!DOCTYPE svg PUBLIC "-//W3C//DTD SVG 1.1//EN"
  "http://www.w3.org/Graphics/SVG/1.1/DTD/svg11.dtd">
<!-- Created with matplotlib (https://matplotlib.org/) -->
<svg height="345.6pt" version="1.1" viewBox="0 0 460.8 345.6" width="460.8pt" xmlns="http://www.w3.org/2000/svg" xmlns:xlink="http://www.w3.org/1999/xlink">
 <defs>
  <style type="text/css">
*{stroke-linecap:butt;stroke-linejoin:round;}
  </style>
 </defs>
 <g id="figure_1">
  <g id="patch_1">
   <path d="M 0 345.6 
L 460.8 345.6 
L 460.8 0 
L 0 0 
z
" style="fill:#ffffff;"/>
  </g>
  <g id="axes_1">
   <g id="patch_2">
    <path d="M 57.6 298.944 
L 338.688 298.944 
L 338.688 27.648 
L 57.6 27.648 
z
" style="fill:#ffffff;"/>
   </g>
   <g id="line2d_1">
    <path d="M 84.955534 298.944 
L 84.955534 293.677139 
L 104.592361 293.677139 
L 104.592361 288.410278 
L 107.414787 288.410278 
L 107.414787 283.143418 
L 111.023335 283.143418 
L 111.023335 277.876557 
L 115.077025 277.876557 
L 115.077025 272.609696 
L 116.081002 272.609696 
L 116.081002 267.342835 
L 116.680349 267.342835 
L 116.680349 262.075974 
L 117.145424 262.075974 
L 117.145424 256.809114 
L 119.996839 256.809114 
L 119.996839 251.542253 
L 120.852343 251.542253 
L 120.852343 246.275392 
L 122.104932 246.275392 
L 122.104932 241.008531 
L 128.885774 241.008531 
L 128.885774 235.74167 
L 132.133473 235.74167 
L 132.133473 230.47481 
L 136.227776 230.47481 
L 136.227776 225.207949 
L 144.148442 225.207949 
L 144.148442 219.941088 
L 145.281568 219.941088 
L 145.281568 214.674227 
L 145.732804 214.674227 
L 145.732804 209.407366 
L 146.707319 209.407366 
L 146.707319 204.140506 
L 147.61026 204.140506 
L 147.61026 198.873645 
L 148.938326 198.873645 
L 148.938326 193.606784 
L 149.593058 193.606784 
L 149.593058 188.339923 
L 150.085825 188.339923 
L 150.085825 183.073062 
L 151.097081 183.073062 
L 151.097081 177.806202 
L 151.453659 177.806202 
L 151.453659 172.539341 
L 152.145659 172.539341 
L 152.145659 167.27248 
L 152.840905 167.27248 
L 152.840905 162.005619 
L 153.438049 162.005619 
L 153.438049 156.738758 
L 153.693887 156.738758 
L 153.693887 151.471897 
L 154.439623 151.471897 
L 154.439623 146.205037 
L 154.77436 146.205037 
L 154.77436 140.938176 
L 155.258271 140.938176 
L 155.258271 135.671315 
L 155.501643 135.671315 
L 155.501643 130.404454 
L 155.928852 130.404454 
L 155.928852 125.137593 
L 156.163105 125.137593 
L 156.163105 119.870733 
L 156.357959 119.870733 
L 156.357959 114.603872 
L 156.681918 114.603872 
L 156.681918 109.337011 
L 156.894595 109.337011 
L 156.894595 104.07015 
L 157.15106 104.07015 
L 157.15106 98.803289 
L 157.346685 98.803289 
L 157.346685 93.536429 
L 157.574059 93.536429 
L 157.574059 88.269568 
L 157.820792 88.269568 
L 157.820792 83.002707 
L 158.0201 83.002707 
L 158.0201 77.735846 
L 158.358103 77.735846 
L 158.358103 72.468985 
L 158.583406 72.468985 
L 158.583406 67.202125 
L 158.721434 67.202125 
L 158.721434 61.935264 
L 158.973421 61.935264 
L 158.973421 56.668403 
L 159.098062 56.668403 
L 159.098062 51.401542 
L 159.293606 51.401542 
L 159.293606 46.134681 
L 159.597964 46.134681 
L 159.597964 40.867821 
L 159.877318 40.867821 
L 159.877318 35.60096 
L 160.015335 35.60096 
L 160.015335 30.334099 
L 338.688 30.334099 
" style="fill:none;stroke:#f5deb3;stroke-linecap:square;stroke-width:4;"/>
   </g>
   <g id="line2d_2">
    <defs>
     <path d="M -0 7.778175 
L 7.778175 0 
L 0 -7.778175 
L -7.778175 -0 
z
" id="mda08dbd11d" style="stroke:#f5deb3;stroke-linejoin:miter;stroke-width:1.5;"/>
    </defs>
    <g>
     <use style="fill:#f5deb3;stroke:#f5deb3;stroke-linejoin:miter;stroke-width:1.5;" x="136.227776" xlink:href="#mda08dbd11d" y="230.47481"/>
     <use style="fill:#f5deb3;stroke:#f5deb3;stroke-linejoin:miter;stroke-width:1.5;" x="156.681918" xlink:href="#mda08dbd11d" y="109.337011"/>
     <use style="fill:#f5deb3;stroke:#f5deb3;stroke-linejoin:miter;stroke-width:1.5;" x="160.015335" xlink:href="#mda08dbd11d" y="35.60096"/>
     <use style="fill:#f5deb3;stroke:#f5deb3;stroke-linejoin:miter;stroke-width:1.5;" x="160.015335" xlink:href="#mda08dbd11d" y="30.334099"/>
     <use style="fill:#f5deb3;stroke:#f5deb3;stroke-linejoin:miter;stroke-width:1.5;" x="338.688" xlink:href="#mda08dbd11d" y="30.334099"/>
    </g>
   </g>
   <g id="line2d_3">
    <path style="fill:none;stroke:#f5deb3;stroke-linecap:square;stroke-width:4;"/>
    <g/>
   </g>
   <g id="line2d_4">
    <path d="M 338.688 30.334099 
L 369.60768 241.998701 
" style="fill:none;stroke:#f5deb3;stroke-linecap:square;stroke-width:4;"/>
    <g>
     <use style="fill:#f5deb3;stroke:#f5deb3;stroke-linejoin:miter;stroke-width:1.5;" x="338.688" xlink:href="#mda08dbd11d" y="30.334099"/>
     <use style="fill:#f5deb3;stroke:#f5deb3;stroke-linejoin:miter;stroke-width:1.5;" x="369.60768" xlink:href="#mda08dbd11d" y="241.998701"/>
    </g>
   </g>
   <g id="matplotlib.axis_1">
    <g id="xtick_1">
     <g id="line2d_5">
      <path clip-path="url(#pd592070c79)" d="M 57.6 298.944 
L 57.6 27.648 
" style="fill:none;stroke:#b0b0b0;stroke-linecap:square;stroke-width:0.8;"/>
     </g>
     <g id="line2d_6">
      <defs>
       <path d="M 0 0 
L 0 3.5 
" id="m3345f4d4e2" style="stroke:#000000;stroke-width:0.8;"/>
      </defs>
      <g>
       <use style="stroke:#000000;stroke-width:0.8;" x="57.6" xlink:href="#m3345f4d4e2" y="298.944"/>
      </g>
     </g>
     <g id="text_1">
      <!-- 0 -->
      <defs>
       <path d="M 31.78125 66.40625 
Q 24.171875 66.40625 20.328125 58.90625 
Q 16.5 51.421875 16.5 36.375 
Q 16.5 21.390625 20.328125 13.890625 
Q 24.171875 6.390625 31.78125 6.390625 
Q 39.453125 6.390625 43.28125 13.890625 
Q 47.125 21.390625 47.125 36.375 
Q 47.125 51.421875 43.28125 58.90625 
Q 39.453125 66.40625 31.78125 66.40625 
z
M 31.78125 74.21875 
Q 44.046875 74.21875 50.515625 64.515625 
Q 56.984375 54.828125 56.984375 36.375 
Q 56.984375 17.96875 50.515625 8.265625 
Q 44.046875 -1.421875 31.78125 -1.421875 
Q 19.53125 -1.421875 13.0625 8.265625 
Q 6.59375 17.96875 6.59375 36.375 
Q 6.59375 54.828125 13.0625 64.515625 
Q 19.53125 74.21875 31.78125 74.21875 
z
" id="DejaVuSans-48"/>
      </defs>
      <g transform="translate(51.2375 321.140875)scale(0.2 -0.2)">
       <use xlink:href="#DejaVuSans-48"/>
      </g>
     </g>
    </g>
    <g id="xtick_2">
     <g id="line2d_7">
      <path clip-path="url(#pd592070c79)" d="M 137.910857 298.944 
L 137.910857 27.648 
" style="fill:none;stroke:#b0b0b0;stroke-linecap:square;stroke-width:0.8;"/>
     </g>
     <g id="line2d_8">
      <g>
       <use style="stroke:#000000;stroke-width:0.8;" x="137.910857" xlink:href="#m3345f4d4e2" y="298.944"/>
      </g>
     </g>
     <g id="text_2">
      <!-- 2 -->
      <defs>
       <path d="M 19.1875 8.296875 
L 53.609375 8.296875 
L 53.609375 0 
L 7.328125 0 
L 7.328125 8.296875 
Q 12.9375 14.109375 22.625 23.890625 
Q 32.328125 33.6875 34.8125 36.53125 
Q 39.546875 41.84375 41.421875 45.53125 
Q 43.3125 49.21875 43.3125 52.78125 
Q 43.3125 58.59375 39.234375 62.25 
Q 35.15625 65.921875 28.609375 65.921875 
Q 23.96875 65.921875 18.8125 64.3125 
Q 13.671875 62.703125 7.8125 59.421875 
L 7.8125 69.390625 
Q 13.765625 71.78125 18.9375 73 
Q 24.125 74.21875 28.421875 74.21875 
Q 39.75 74.21875 46.484375 68.546875 
Q 53.21875 62.890625 53.21875 53.421875 
Q 53.21875 48.921875 51.53125 44.890625 
Q 49.859375 40.875 45.40625 35.40625 
Q 44.1875 33.984375 37.640625 27.21875 
Q 31.109375 20.453125 19.1875 8.296875 
z
" id="DejaVuSans-50"/>
      </defs>
      <g transform="translate(131.548357 321.140875)scale(0.2 -0.2)">
       <use xlink:href="#DejaVuSans-50"/>
      </g>
     </g>
    </g>
    <g id="xtick_3">
     <g id="line2d_9">
      <path clip-path="url(#pd592070c79)" d="M 218.221714 298.944 
L 218.221714 27.648 
" style="fill:none;stroke:#b0b0b0;stroke-linecap:square;stroke-width:0.8;"/>
     </g>
     <g id="line2d_10">
      <g>
       <use style="stroke:#000000;stroke-width:0.8;" x="218.221714" xlink:href="#m3345f4d4e2" y="298.944"/>
      </g>
     </g>
     <g id="text_3">
      <!-- 4 -->
      <defs>
       <path d="M 37.796875 64.3125 
L 12.890625 25.390625 
L 37.796875 25.390625 
z
M 35.203125 72.90625 
L 47.609375 72.90625 
L 47.609375 25.390625 
L 58.015625 25.390625 
L 58.015625 17.1875 
L 47.609375 17.1875 
L 47.609375 0 
L 37.796875 0 
L 37.796875 17.1875 
L 4.890625 17.1875 
L 4.890625 26.703125 
z
" id="DejaVuSans-52"/>
      </defs>
      <g transform="translate(211.859214 321.140875)scale(0.2 -0.2)">
       <use xlink:href="#DejaVuSans-52"/>
      </g>
     </g>
    </g>
    <g id="xtick_4">
     <g id="line2d_11">
      <path clip-path="url(#pd592070c79)" d="M 298.532571 298.944 
L 298.532571 27.648 
" style="fill:none;stroke:#b0b0b0;stroke-linecap:square;stroke-width:0.8;"/>
     </g>
     <g id="line2d_12">
      <g>
       <use style="stroke:#000000;stroke-width:0.8;" x="298.532571" xlink:href="#m3345f4d4e2" y="298.944"/>
      </g>
     </g>
     <g id="text_4">
      <!-- 6 -->
      <defs>
       <path d="M 33.015625 40.375 
Q 26.375 40.375 22.484375 35.828125 
Q 18.609375 31.296875 18.609375 23.390625 
Q 18.609375 15.53125 22.484375 10.953125 
Q 26.375 6.390625 33.015625 6.390625 
Q 39.65625 6.390625 43.53125 10.953125 
Q 47.40625 15.53125 47.40625 23.390625 
Q 47.40625 31.296875 43.53125 35.828125 
Q 39.65625 40.375 33.015625 40.375 
z
M 52.59375 71.296875 
L 52.59375 62.3125 
Q 48.875 64.0625 45.09375 64.984375 
Q 41.3125 65.921875 37.59375 65.921875 
Q 27.828125 65.921875 22.671875 59.328125 
Q 17.53125 52.734375 16.796875 39.40625 
Q 19.671875 43.65625 24.015625 45.921875 
Q 28.375 48.1875 33.59375 48.1875 
Q 44.578125 48.1875 50.953125 41.515625 
Q 57.328125 34.859375 57.328125 23.390625 
Q 57.328125 12.15625 50.6875 5.359375 
Q 44.046875 -1.421875 33.015625 -1.421875 
Q 20.359375 -1.421875 13.671875 8.265625 
Q 6.984375 17.96875 6.984375 36.375 
Q 6.984375 53.65625 15.1875 63.9375 
Q 23.390625 74.21875 37.203125 74.21875 
Q 40.921875 74.21875 44.703125 73.484375 
Q 48.484375 72.75 52.59375 71.296875 
z
" id="DejaVuSans-54"/>
      </defs>
      <g transform="translate(292.170071 321.140875)scale(0.2 -0.2)">
       <use xlink:href="#DejaVuSans-54"/>
      </g>
     </g>
    </g>
    <g id="xtick_5">
     <g id="line2d_13">
      <path clip-path="url(#pd592070c79)" d="M 97.755429 298.944 
L 97.755429 27.648 
" style="fill:none;stroke:#b0b0b0;stroke-linecap:square;stroke-width:0.8;"/>
     </g>
     <g id="line2d_14">
      <defs>
       <path d="M 0 0 
L 0 2 
" id="m97b76c3432" style="stroke:#000000;stroke-width:0.6;"/>
      </defs>
      <g>
       <use style="stroke:#000000;stroke-width:0.6;" x="97.755429" xlink:href="#m97b76c3432" y="298.944"/>
      </g>
     </g>
    </g>
    <g id="xtick_6">
     <g id="line2d_15">
      <path clip-path="url(#pd592070c79)" d="M 178.066286 298.944 
L 178.066286 27.648 
" style="fill:none;stroke:#b0b0b0;stroke-linecap:square;stroke-width:0.8;"/>
     </g>
     <g id="line2d_16">
      <g>
       <use style="stroke:#000000;stroke-width:0.6;" x="178.066286" xlink:href="#m97b76c3432" y="298.944"/>
      </g>
     </g>
    </g>
    <g id="xtick_7">
     <g id="line2d_17">
      <path clip-path="url(#pd592070c79)" d="M 258.377143 298.944 
L 258.377143 27.648 
" style="fill:none;stroke:#b0b0b0;stroke-linecap:square;stroke-width:0.8;"/>
     </g>
     <g id="line2d_18">
      <g>
       <use style="stroke:#000000;stroke-width:0.6;" x="258.377143" xlink:href="#m97b76c3432" y="298.944"/>
      </g>
     </g>
    </g>
    <g id="xtick_8">
     <g id="line2d_19">
      <path clip-path="url(#pd592070c79)" d="M 338.688 298.944 
L 338.688 27.648 
" style="fill:none;stroke:#b0b0b0;stroke-linecap:square;stroke-width:0.8;"/>
     </g>
     <g id="line2d_20">
      <g>
       <use style="stroke:#000000;stroke-width:0.6;" x="338.688" xlink:href="#m97b76c3432" y="298.944"/>
      </g>
     </g>
    </g>
    <g id="text_5">
     <!-- log10(# f-evals / dimension) -->
     <defs>
      <path d="M 9.421875 75.984375 
L 18.40625 75.984375 
L 18.40625 0 
L 9.421875 0 
z
" id="DejaVuSans-108"/>
      <path d="M 30.609375 48.390625 
Q 23.390625 48.390625 19.1875 42.75 
Q 14.984375 37.109375 14.984375 27.296875 
Q 14.984375 17.484375 19.15625 11.84375 
Q 23.34375 6.203125 30.609375 6.203125 
Q 37.796875 6.203125 41.984375 11.859375 
Q 46.1875 17.53125 46.1875 27.296875 
Q 46.1875 37.015625 41.984375 42.703125 
Q 37.796875 48.390625 30.609375 48.390625 
z
M 30.609375 56 
Q 42.328125 56 49.015625 48.375 
Q 55.71875 40.765625 55.71875 27.296875 
Q 55.71875 13.875 49.015625 6.21875 
Q 42.328125 -1.421875 30.609375 -1.421875 
Q 18.84375 -1.421875 12.171875 6.21875 
Q 5.515625 13.875 5.515625 27.296875 
Q 5.515625 40.765625 12.171875 48.375 
Q 18.84375 56 30.609375 56 
z
" id="DejaVuSans-111"/>
      <path d="M 45.40625 27.984375 
Q 45.40625 37.75 41.375 43.109375 
Q 37.359375 48.484375 30.078125 48.484375 
Q 22.859375 48.484375 18.828125 43.109375 
Q 14.796875 37.75 14.796875 27.984375 
Q 14.796875 18.265625 18.828125 12.890625 
Q 22.859375 7.515625 30.078125 7.515625 
Q 37.359375 7.515625 41.375 12.890625 
Q 45.40625 18.265625 45.40625 27.984375 
z
M 54.390625 6.78125 
Q 54.390625 -7.171875 48.1875 -13.984375 
Q 42 -20.796875 29.203125 -20.796875 
Q 24.46875 -20.796875 20.265625 -20.09375 
Q 16.0625 -19.390625 12.109375 -17.921875 
L 12.109375 -9.1875 
Q 16.0625 -11.328125 19.921875 -12.34375 
Q 23.78125 -13.375 27.78125 -13.375 
Q 36.625 -13.375 41.015625 -8.765625 
Q 45.40625 -4.15625 45.40625 5.171875 
L 45.40625 9.625 
Q 42.625 4.78125 38.28125 2.390625 
Q 33.9375 0 27.875 0 
Q 17.828125 0 11.671875 7.65625 
Q 5.515625 15.328125 5.515625 27.984375 
Q 5.515625 40.671875 11.671875 48.328125 
Q 17.828125 56 27.875 56 
Q 33.9375 56 38.28125 53.609375 
Q 42.625 51.21875 45.40625 46.390625 
L 45.40625 54.6875 
L 54.390625 54.6875 
z
" id="DejaVuSans-103"/>
      <path d="M 12.40625 8.296875 
L 28.515625 8.296875 
L 28.515625 63.921875 
L 10.984375 60.40625 
L 10.984375 69.390625 
L 28.421875 72.90625 
L 38.28125 72.90625 
L 38.28125 8.296875 
L 54.390625 8.296875 
L 54.390625 0 
L 12.40625 0 
z
" id="DejaVuSans-49"/>
      <path d="M 31 75.875 
Q 24.46875 64.65625 21.28125 53.65625 
Q 18.109375 42.671875 18.109375 31.390625 
Q 18.109375 20.125 21.3125 9.0625 
Q 24.515625 -2 31 -13.1875 
L 23.1875 -13.1875 
Q 15.875 -1.703125 12.234375 9.375 
Q 8.59375 20.453125 8.59375 31.390625 
Q 8.59375 42.28125 12.203125 53.3125 
Q 15.828125 64.359375 23.1875 75.875 
z
" id="DejaVuSans-40"/>
      <path d="M 51.125 44 
L 36.921875 44 
L 32.8125 27.6875 
L 47.125 27.6875 
z
M 43.796875 71.78125 
L 38.71875 51.515625 
L 52.984375 51.515625 
L 58.109375 71.78125 
L 65.921875 71.78125 
L 60.890625 51.515625 
L 76.125 51.515625 
L 76.125 44 
L 58.984375 44 
L 54.984375 27.6875 
L 70.515625 27.6875 
L 70.515625 20.21875 
L 53.078125 20.21875 
L 48 0 
L 40.1875 0 
L 45.21875 20.21875 
L 30.90625 20.21875 
L 25.875 0 
L 18.015625 0 
L 23.09375 20.21875 
L 7.71875 20.21875 
L 7.71875 27.6875 
L 24.90625 27.6875 
L 29 44 
L 13.28125 44 
L 13.28125 51.515625 
L 30.90625 51.515625 
L 35.890625 71.78125 
z
" id="DejaVuSans-35"/>
      <path id="DejaVuSans-32"/>
      <path d="M 37.109375 75.984375 
L 37.109375 68.5 
L 28.515625 68.5 
Q 23.6875 68.5 21.796875 66.546875 
Q 19.921875 64.59375 19.921875 59.515625 
L 19.921875 54.6875 
L 34.71875 54.6875 
L 34.71875 47.703125 
L 19.921875 47.703125 
L 19.921875 0 
L 10.890625 0 
L 10.890625 47.703125 
L 2.296875 47.703125 
L 2.296875 54.6875 
L 10.890625 54.6875 
L 10.890625 58.5 
Q 10.890625 67.625 15.140625 71.796875 
Q 19.390625 75.984375 28.609375 75.984375 
z
" id="DejaVuSans-102"/>
      <path d="M 4.890625 31.390625 
L 31.203125 31.390625 
L 31.203125 23.390625 
L 4.890625 23.390625 
z
" id="DejaVuSans-45"/>
      <path d="M 56.203125 29.59375 
L 56.203125 25.203125 
L 14.890625 25.203125 
Q 15.484375 15.921875 20.484375 11.0625 
Q 25.484375 6.203125 34.421875 6.203125 
Q 39.59375 6.203125 44.453125 7.46875 
Q 49.3125 8.734375 54.109375 11.28125 
L 54.109375 2.78125 
Q 49.265625 0.734375 44.1875 -0.34375 
Q 39.109375 -1.421875 33.890625 -1.421875 
Q 20.796875 -1.421875 13.15625 6.1875 
Q 5.515625 13.8125 5.515625 26.8125 
Q 5.515625 40.234375 12.765625 48.109375 
Q 20.015625 56 32.328125 56 
Q 43.359375 56 49.78125 48.890625 
Q 56.203125 41.796875 56.203125 29.59375 
z
M 47.21875 32.234375 
Q 47.125 39.59375 43.09375 43.984375 
Q 39.0625 48.390625 32.421875 48.390625 
Q 24.90625 48.390625 20.390625 44.140625 
Q 15.875 39.890625 15.1875 32.171875 
z
" id="DejaVuSans-101"/>
      <path d="M 2.984375 54.6875 
L 12.5 54.6875 
L 29.59375 8.796875 
L 46.6875 54.6875 
L 56.203125 54.6875 
L 35.6875 0 
L 23.484375 0 
z
" id="DejaVuSans-118"/>
      <path d="M 34.28125 27.484375 
Q 23.390625 27.484375 19.1875 25 
Q 14.984375 22.515625 14.984375 16.5 
Q 14.984375 11.71875 18.140625 8.90625 
Q 21.296875 6.109375 26.703125 6.109375 
Q 34.1875 6.109375 38.703125 11.40625 
Q 43.21875 16.703125 43.21875 25.484375 
L 43.21875 27.484375 
z
M 52.203125 31.203125 
L 52.203125 0 
L 43.21875 0 
L 43.21875 8.296875 
Q 40.140625 3.328125 35.546875 0.953125 
Q 30.953125 -1.421875 24.3125 -1.421875 
Q 15.921875 -1.421875 10.953125 3.296875 
Q 6 8.015625 6 15.921875 
Q 6 25.140625 12.171875 29.828125 
Q 18.359375 34.515625 30.609375 34.515625 
L 43.21875 34.515625 
L 43.21875 35.40625 
Q 43.21875 41.609375 39.140625 45 
Q 35.0625 48.390625 27.6875 48.390625 
Q 23 48.390625 18.546875 47.265625 
Q 14.109375 46.140625 10.015625 43.890625 
L 10.015625 52.203125 
Q 14.9375 54.109375 19.578125 55.046875 
Q 24.21875 56 28.609375 56 
Q 40.484375 56 46.34375 49.84375 
Q 52.203125 43.703125 52.203125 31.203125 
z
" id="DejaVuSans-97"/>
      <path d="M 44.28125 53.078125 
L 44.28125 44.578125 
Q 40.484375 46.53125 36.375 47.5 
Q 32.28125 48.484375 27.875 48.484375 
Q 21.1875 48.484375 17.84375 46.4375 
Q 14.5 44.390625 14.5 40.28125 
Q 14.5 37.15625 16.890625 35.375 
Q 19.28125 33.59375 26.515625 31.984375 
L 29.59375 31.296875 
Q 39.15625 29.25 43.1875 25.515625 
Q 47.21875 21.78125 47.21875 15.09375 
Q 47.21875 7.46875 41.1875 3.015625 
Q 35.15625 -1.421875 24.609375 -1.421875 
Q 20.21875 -1.421875 15.453125 -0.5625 
Q 10.6875 0.296875 5.421875 2 
L 5.421875 11.28125 
Q 10.40625 8.6875 15.234375 7.390625 
Q 20.0625 6.109375 24.8125 6.109375 
Q 31.15625 6.109375 34.5625 8.28125 
Q 37.984375 10.453125 37.984375 14.40625 
Q 37.984375 18.0625 35.515625 20.015625 
Q 33.0625 21.96875 24.703125 23.78125 
L 21.578125 24.515625 
Q 13.234375 26.265625 9.515625 29.90625 
Q 5.8125 33.546875 5.8125 39.890625 
Q 5.8125 47.609375 11.28125 51.796875 
Q 16.75 56 26.8125 56 
Q 31.78125 56 36.171875 55.265625 
Q 40.578125 54.546875 44.28125 53.078125 
z
" id="DejaVuSans-115"/>
      <path d="M 25.390625 72.90625 
L 33.6875 72.90625 
L 8.296875 -9.28125 
L 0 -9.28125 
z
" id="DejaVuSans-47"/>
      <path d="M 45.40625 46.390625 
L 45.40625 75.984375 
L 54.390625 75.984375 
L 54.390625 0 
L 45.40625 0 
L 45.40625 8.203125 
Q 42.578125 3.328125 38.25 0.953125 
Q 33.9375 -1.421875 27.875 -1.421875 
Q 17.96875 -1.421875 11.734375 6.484375 
Q 5.515625 14.40625 5.515625 27.296875 
Q 5.515625 40.1875 11.734375 48.09375 
Q 17.96875 56 27.875 56 
Q 33.9375 56 38.25 53.625 
Q 42.578125 51.265625 45.40625 46.390625 
z
M 14.796875 27.296875 
Q 14.796875 17.390625 18.875 11.75 
Q 22.953125 6.109375 30.078125 6.109375 
Q 37.203125 6.109375 41.296875 11.75 
Q 45.40625 17.390625 45.40625 27.296875 
Q 45.40625 37.203125 41.296875 42.84375 
Q 37.203125 48.484375 30.078125 48.484375 
Q 22.953125 48.484375 18.875 42.84375 
Q 14.796875 37.203125 14.796875 27.296875 
z
" id="DejaVuSans-100"/>
      <path d="M 9.421875 54.6875 
L 18.40625 54.6875 
L 18.40625 0 
L 9.421875 0 
z
M 9.421875 75.984375 
L 18.40625 75.984375 
L 18.40625 64.59375 
L 9.421875 64.59375 
z
" id="DejaVuSans-105"/>
      <path d="M 52 44.1875 
Q 55.375 50.25 60.0625 53.125 
Q 64.75 56 71.09375 56 
Q 79.640625 56 84.28125 50.015625 
Q 88.921875 44.046875 88.921875 33.015625 
L 88.921875 0 
L 79.890625 0 
L 79.890625 32.71875 
Q 79.890625 40.578125 77.09375 44.375 
Q 74.3125 48.1875 68.609375 48.1875 
Q 61.625 48.1875 57.5625 43.546875 
Q 53.515625 38.921875 53.515625 30.90625 
L 53.515625 0 
L 44.484375 0 
L 44.484375 32.71875 
Q 44.484375 40.625 41.703125 44.40625 
Q 38.921875 48.1875 33.109375 48.1875 
Q 26.21875 48.1875 22.15625 43.53125 
Q 18.109375 38.875 18.109375 30.90625 
L 18.109375 0 
L 9.078125 0 
L 9.078125 54.6875 
L 18.109375 54.6875 
L 18.109375 46.1875 
Q 21.1875 51.21875 25.484375 53.609375 
Q 29.78125 56 35.6875 56 
Q 41.65625 56 45.828125 52.96875 
Q 50 49.953125 52 44.1875 
z
" id="DejaVuSans-109"/>
      <path d="M 54.890625 33.015625 
L 54.890625 0 
L 45.90625 0 
L 45.90625 32.71875 
Q 45.90625 40.484375 42.875 44.328125 
Q 39.84375 48.1875 33.796875 48.1875 
Q 26.515625 48.1875 22.3125 43.546875 
Q 18.109375 38.921875 18.109375 30.90625 
L 18.109375 0 
L 9.078125 0 
L 9.078125 54.6875 
L 18.109375 54.6875 
L 18.109375 46.1875 
Q 21.34375 51.125 25.703125 53.5625 
Q 30.078125 56 35.796875 56 
Q 45.21875 56 50.046875 50.171875 
Q 54.890625 44.34375 54.890625 33.015625 
z
" id="DejaVuSans-110"/>
      <path d="M 8.015625 75.875 
L 15.828125 75.875 
Q 23.140625 64.359375 26.78125 53.3125 
Q 30.421875 42.28125 30.421875 31.390625 
Q 30.421875 20.453125 26.78125 9.375 
Q 23.140625 -1.703125 15.828125 -13.1875 
L 8.015625 -13.1875 
Q 14.5 -2 17.703125 9.0625 
Q 20.90625 20.125 20.90625 31.390625 
Q 20.90625 42.671875 17.703125 53.65625 
Q 14.5 64.65625 8.015625 75.875 
z
" id="DejaVuSans-41"/>
     </defs>
     <g transform="translate(77.303219 342.217594)scale(0.17 -0.17)">
      <use xlink:href="#DejaVuSans-108"/>
      <use x="27.783203" xlink:href="#DejaVuSans-111"/>
      <use x="88.964844" xlink:href="#DejaVuSans-103"/>
      <use x="152.441406" xlink:href="#DejaVuSans-49"/>
      <use x="216.064453" xlink:href="#DejaVuSans-48"/>
      <use x="279.6875" xlink:href="#DejaVuSans-40"/>
      <use x="318.701172" xlink:href="#DejaVuSans-35"/>
      <use x="402.490234" xlink:href="#DejaVuSans-32"/>
      <use x="434.277344" xlink:href="#DejaVuSans-102"/>
      <use x="469.404297" xlink:href="#DejaVuSans-45"/>
      <use x="505.488281" xlink:href="#DejaVuSans-101"/>
      <use x="567.011719" xlink:href="#DejaVuSans-118"/>
      <use x="626.191406" xlink:href="#DejaVuSans-97"/>
      <use x="687.470703" xlink:href="#DejaVuSans-108"/>
      <use x="715.253906" xlink:href="#DejaVuSans-115"/>
      <use x="767.353516" xlink:href="#DejaVuSans-32"/>
      <use x="799.140625" xlink:href="#DejaVuSans-47"/>
      <use x="832.832031" xlink:href="#DejaVuSans-32"/>
      <use x="864.619141" xlink:href="#DejaVuSans-100"/>
      <use x="928.095703" xlink:href="#DejaVuSans-105"/>
      <use x="955.878906" xlink:href="#DejaVuSans-109"/>
      <use x="1053.291016" xlink:href="#DejaVuSans-101"/>
      <use x="1114.814453" xlink:href="#DejaVuSans-110"/>
      <use x="1178.193359" xlink:href="#DejaVuSans-115"/>
      <use x="1230.292969" xlink:href="#DejaVuSans-105"/>
      <use x="1258.076172" xlink:href="#DejaVuSans-111"/>
      <use x="1319.257812" xlink:href="#DejaVuSans-110"/>
      <use x="1382.636719" xlink:href="#DejaVuSans-41"/>
     </g>
    </g>
   </g>
   <g id="matplotlib.axis_2">
    <g id="ytick_1">
     <g id="line2d_21">
      <path clip-path="url(#pd592070c79)" d="M 57.6 298.944 
L 338.688 298.944 
" style="fill:none;stroke:#b0b0b0;stroke-linecap:square;stroke-width:0.8;"/>
     </g>
     <g id="line2d_22">
      <defs>
       <path d="M 0 0 
L -3.5 0 
" id="m4febec5982" style="stroke:#000000;stroke-width:0.8;"/>
      </defs>
      <g>
       <use style="stroke:#000000;stroke-width:0.8;" x="57.6" xlink:href="#m4febec5982" y="298.944"/>
      </g>
     </g>
     <g id="text_6">
      <!-- 0.0 -->
      <defs>
       <path d="M 10.6875 12.40625 
L 21 12.40625 
L 21 0 
L 10.6875 0 
z
" id="DejaVuSans-46"/>
      </defs>
      <g transform="translate(25.155 305.02275)scale(0.16 -0.16)">
       <use xlink:href="#DejaVuSans-48"/>
       <use x="63.623047" xlink:href="#DejaVuSans-46"/>
       <use x="95.410156" xlink:href="#DejaVuSans-48"/>
      </g>
     </g>
    </g>
    <g id="ytick_2">
     <g id="line2d_23">
      <path clip-path="url(#pd592070c79)" d="M 57.6 245.22202 
L 338.688 245.22202 
" style="fill:none;stroke:#b0b0b0;stroke-linecap:square;stroke-width:0.8;"/>
     </g>
     <g id="line2d_24">
      <g>
       <use style="stroke:#000000;stroke-width:0.8;" x="57.6" xlink:href="#m4febec5982" y="245.22202"/>
      </g>
     </g>
     <g id="text_7">
      <!-- 0.2 -->
      <g transform="translate(25.155 251.30077)scale(0.16 -0.16)">
       <use xlink:href="#DejaVuSans-48"/>
       <use x="63.623047" xlink:href="#DejaVuSans-46"/>
       <use x="95.410156" xlink:href="#DejaVuSans-50"/>
      </g>
     </g>
    </g>
    <g id="ytick_3">
     <g id="line2d_25">
      <path clip-path="url(#pd592070c79)" d="M 57.6 191.50004 
L 338.688 191.50004 
" style="fill:none;stroke:#b0b0b0;stroke-linecap:square;stroke-width:0.8;"/>
     </g>
     <g id="line2d_26">
      <g>
       <use style="stroke:#000000;stroke-width:0.8;" x="57.6" xlink:href="#m4febec5982" y="191.50004"/>
      </g>
     </g>
     <g id="text_8">
      <!-- 0.4 -->
      <g transform="translate(25.155 197.57879)scale(0.16 -0.16)">
       <use xlink:href="#DejaVuSans-48"/>
       <use x="63.623047" xlink:href="#DejaVuSans-46"/>
       <use x="95.410156" xlink:href="#DejaVuSans-52"/>
      </g>
     </g>
    </g>
    <g id="ytick_4">
     <g id="line2d_27">
      <path clip-path="url(#pd592070c79)" d="M 57.6 137.778059 
L 338.688 137.778059 
" style="fill:none;stroke:#b0b0b0;stroke-linecap:square;stroke-width:0.8;"/>
     </g>
     <g id="line2d_28">
      <g>
       <use style="stroke:#000000;stroke-width:0.8;" x="57.6" xlink:href="#m4febec5982" y="137.778059"/>
      </g>
     </g>
     <g id="text_9">
      <!-- 0.6 -->
      <g transform="translate(25.155 143.856809)scale(0.16 -0.16)">
       <use xlink:href="#DejaVuSans-48"/>
       <use x="63.623047" xlink:href="#DejaVuSans-46"/>
       <use x="95.410156" xlink:href="#DejaVuSans-54"/>
      </g>
     </g>
    </g>
    <g id="ytick_5">
     <g id="line2d_29">
      <path clip-path="url(#pd592070c79)" d="M 57.6 84.056079 
L 338.688 84.056079 
" style="fill:none;stroke:#b0b0b0;stroke-linecap:square;stroke-width:0.8;"/>
     </g>
     <g id="line2d_30">
      <g>
       <use style="stroke:#000000;stroke-width:0.8;" x="57.6" xlink:href="#m4febec5982" y="84.056079"/>
      </g>
     </g>
     <g id="text_10">
      <!-- 0.8 -->
      <defs>
       <path d="M 31.78125 34.625 
Q 24.75 34.625 20.71875 30.859375 
Q 16.703125 27.09375 16.703125 20.515625 
Q 16.703125 13.921875 20.71875 10.15625 
Q 24.75 6.390625 31.78125 6.390625 
Q 38.8125 6.390625 42.859375 10.171875 
Q 46.921875 13.96875 46.921875 20.515625 
Q 46.921875 27.09375 42.890625 30.859375 
Q 38.875 34.625 31.78125 34.625 
z
M 21.921875 38.8125 
Q 15.578125 40.375 12.03125 44.71875 
Q 8.5 49.078125 8.5 55.328125 
Q 8.5 64.0625 14.71875 69.140625 
Q 20.953125 74.21875 31.78125 74.21875 
Q 42.671875 74.21875 48.875 69.140625 
Q 55.078125 64.0625 55.078125 55.328125 
Q 55.078125 49.078125 51.53125 44.71875 
Q 48 40.375 41.703125 38.8125 
Q 48.828125 37.15625 52.796875 32.3125 
Q 56.78125 27.484375 56.78125 20.515625 
Q 56.78125 9.90625 50.3125 4.234375 
Q 43.84375 -1.421875 31.78125 -1.421875 
Q 19.734375 -1.421875 13.25 4.234375 
Q 6.78125 9.90625 6.78125 20.515625 
Q 6.78125 27.484375 10.78125 32.3125 
Q 14.796875 37.15625 21.921875 38.8125 
z
M 18.3125 54.390625 
Q 18.3125 48.734375 21.84375 45.5625 
Q 25.390625 42.390625 31.78125 42.390625 
Q 38.140625 42.390625 41.71875 45.5625 
Q 45.3125 48.734375 45.3125 54.390625 
Q 45.3125 60.0625 41.71875 63.234375 
Q 38.140625 66.40625 31.78125 66.40625 
Q 25.390625 66.40625 21.84375 63.234375 
Q 18.3125 60.0625 18.3125 54.390625 
z
" id="DejaVuSans-56"/>
      </defs>
      <g transform="translate(25.155 90.134829)scale(0.16 -0.16)">
       <use xlink:href="#DejaVuSans-48"/>
       <use x="63.623047" xlink:href="#DejaVuSans-46"/>
       <use x="95.410156" xlink:href="#DejaVuSans-56"/>
      </g>
     </g>
    </g>
    <g id="ytick_6">
     <g id="line2d_31">
      <path clip-path="url(#pd592070c79)" d="M 57.6 30.334099 
L 338.688 30.334099 
" style="fill:none;stroke:#b0b0b0;stroke-linecap:square;stroke-width:0.8;"/>
     </g>
     <g id="line2d_32">
      <g>
       <use style="stroke:#000000;stroke-width:0.8;" x="57.6" xlink:href="#m4febec5982" y="30.334099"/>
      </g>
     </g>
     <g id="text_11">
      <!-- 1.0 -->
      <g transform="translate(25.155 36.412849)scale(0.16 -0.16)">
       <use xlink:href="#DejaVuSans-49"/>
       <use x="63.623047" xlink:href="#DejaVuSans-46"/>
       <use x="95.410156" xlink:href="#DejaVuSans-48"/>
      </g>
     </g>
    </g>
    <g id="text_12">
     <!-- Fraction of function,target pairs -->
     <defs>
      <path d="M 9.8125 72.90625 
L 51.703125 72.90625 
L 51.703125 64.59375 
L 19.671875 64.59375 
L 19.671875 43.109375 
L 48.578125 43.109375 
L 48.578125 34.8125 
L 19.671875 34.8125 
L 19.671875 0 
L 9.8125 0 
z
" id="DejaVuSans-70"/>
      <path d="M 41.109375 46.296875 
Q 39.59375 47.171875 37.8125 47.578125 
Q 36.03125 48 33.890625 48 
Q 26.265625 48 22.1875 43.046875 
Q 18.109375 38.09375 18.109375 28.8125 
L 18.109375 0 
L 9.078125 0 
L 9.078125 54.6875 
L 18.109375 54.6875 
L 18.109375 46.1875 
Q 20.953125 51.171875 25.484375 53.578125 
Q 30.03125 56 36.53125 56 
Q 37.453125 56 38.578125 55.875 
Q 39.703125 55.765625 41.0625 55.515625 
z
" id="DejaVuSans-114"/>
      <path d="M 48.78125 52.59375 
L 48.78125 44.1875 
Q 44.96875 46.296875 41.140625 47.34375 
Q 37.3125 48.390625 33.40625 48.390625 
Q 24.65625 48.390625 19.8125 42.84375 
Q 14.984375 37.3125 14.984375 27.296875 
Q 14.984375 17.28125 19.8125 11.734375 
Q 24.65625 6.203125 33.40625 6.203125 
Q 37.3125 6.203125 41.140625 7.25 
Q 44.96875 8.296875 48.78125 10.40625 
L 48.78125 2.09375 
Q 45.015625 0.34375 40.984375 -0.53125 
Q 36.96875 -1.421875 32.421875 -1.421875 
Q 20.0625 -1.421875 12.78125 6.34375 
Q 5.515625 14.109375 5.515625 27.296875 
Q 5.515625 40.671875 12.859375 48.328125 
Q 20.21875 56 33.015625 56 
Q 37.15625 56 41.109375 55.140625 
Q 45.0625 54.296875 48.78125 52.59375 
z
" id="DejaVuSans-99"/>
      <path d="M 18.3125 70.21875 
L 18.3125 54.6875 
L 36.8125 54.6875 
L 36.8125 47.703125 
L 18.3125 47.703125 
L 18.3125 18.015625 
Q 18.3125 11.328125 20.140625 9.421875 
Q 21.96875 7.515625 27.59375 7.515625 
L 36.8125 7.515625 
L 36.8125 0 
L 27.59375 0 
Q 17.1875 0 13.234375 3.875 
Q 9.28125 7.765625 9.28125 18.015625 
L 9.28125 47.703125 
L 2.6875 47.703125 
L 2.6875 54.6875 
L 9.28125 54.6875 
L 9.28125 70.21875 
z
" id="DejaVuSans-116"/>
      <path d="M 8.5 21.578125 
L 8.5 54.6875 
L 17.484375 54.6875 
L 17.484375 21.921875 
Q 17.484375 14.15625 20.5 10.265625 
Q 23.53125 6.390625 29.59375 6.390625 
Q 36.859375 6.390625 41.078125 11.03125 
Q 45.3125 15.671875 45.3125 23.6875 
L 45.3125 54.6875 
L 54.296875 54.6875 
L 54.296875 0 
L 45.3125 0 
L 45.3125 8.40625 
Q 42.046875 3.421875 37.71875 1 
Q 33.40625 -1.421875 27.6875 -1.421875 
Q 18.265625 -1.421875 13.375 4.4375 
Q 8.5 10.296875 8.5 21.578125 
z
M 31.109375 56 
z
" id="DejaVuSans-117"/>
      <path d="M 11.71875 12.40625 
L 22.015625 12.40625 
L 22.015625 4 
L 14.015625 -11.625 
L 7.71875 -11.625 
L 11.71875 4 
z
" id="DejaVuSans-44"/>
      <path d="M 18.109375 8.203125 
L 18.109375 -20.796875 
L 9.078125 -20.796875 
L 9.078125 54.6875 
L 18.109375 54.6875 
L 18.109375 46.390625 
Q 20.953125 51.265625 25.265625 53.625 
Q 29.59375 56 35.59375 56 
Q 45.5625 56 51.78125 48.09375 
Q 58.015625 40.1875 58.015625 27.296875 
Q 58.015625 14.40625 51.78125 6.484375 
Q 45.5625 -1.421875 35.59375 -1.421875 
Q 29.59375 -1.421875 25.265625 0.953125 
Q 20.953125 3.328125 18.109375 8.203125 
z
M 48.6875 27.296875 
Q 48.6875 37.203125 44.609375 42.84375 
Q 40.53125 48.484375 33.40625 48.484375 
Q 26.265625 48.484375 22.1875 42.84375 
Q 18.109375 37.203125 18.109375 27.296875 
Q 18.109375 17.390625 22.1875 11.75 
Q 26.265625 6.109375 33.40625 6.109375 
Q 40.53125 6.109375 44.609375 11.75 
Q 48.6875 17.390625 48.6875 27.296875 
z
" id="DejaVuSans-112"/>
     </defs>
     <g transform="translate(17.619531 298.435375)rotate(-90)scale(0.17 -0.17)">
      <use xlink:href="#DejaVuSans-70"/>
      <use x="57.410156" xlink:href="#DejaVuSans-114"/>
      <use x="98.523438" xlink:href="#DejaVuSans-97"/>
      <use x="159.802734" xlink:href="#DejaVuSans-99"/>
      <use x="214.783203" xlink:href="#DejaVuSans-116"/>
      <use x="253.992188" xlink:href="#DejaVuSans-105"/>
      <use x="281.775391" xlink:href="#DejaVuSans-111"/>
      <use x="342.957031" xlink:href="#DejaVuSans-110"/>
      <use x="406.335938" xlink:href="#DejaVuSans-32"/>
      <use x="438.123047" xlink:href="#DejaVuSans-111"/>
      <use x="499.304688" xlink:href="#DejaVuSans-102"/>
      <use x="534.509766" xlink:href="#DejaVuSans-32"/>
      <use x="566.296875" xlink:href="#DejaVuSans-102"/>
      <use x="601.501953" xlink:href="#DejaVuSans-117"/>
      <use x="664.880859" xlink:href="#DejaVuSans-110"/>
      <use x="728.259766" xlink:href="#DejaVuSans-99"/>
      <use x="783.240234" xlink:href="#DejaVuSans-116"/>
      <use x="822.449219" xlink:href="#DejaVuSans-105"/>
      <use x="850.232422" xlink:href="#DejaVuSans-111"/>
      <use x="911.414062" xlink:href="#DejaVuSans-110"/>
      <use x="974.792969" xlink:href="#DejaVuSans-44"/>
      <use x="1006.580078" xlink:href="#DejaVuSans-116"/>
      <use x="1045.789062" xlink:href="#DejaVuSans-97"/>
      <use x="1107.068359" xlink:href="#DejaVuSans-114"/>
      <use x="1148.166016" xlink:href="#DejaVuSans-103"/>
      <use x="1211.642578" xlink:href="#DejaVuSans-101"/>
      <use x="1273.166016" xlink:href="#DejaVuSans-116"/>
      <use x="1312.375" xlink:href="#DejaVuSans-32"/>
      <use x="1344.162109" xlink:href="#DejaVuSans-112"/>
      <use x="1407.638672" xlink:href="#DejaVuSans-97"/>
      <use x="1468.917969" xlink:href="#DejaVuSans-105"/>
      <use x="1496.701172" xlink:href="#DejaVuSans-114"/>
      <use x="1537.814453" xlink:href="#DejaVuSans-115"/>
     </g>
    </g>
   </g>
   <g id="line2d_33">
    <defs>
     <path d="M 0 1.5 
C 0.397805 1.5 0.77937 1.341951 1.06066 1.06066 
C 1.341951 0.77937 1.5 0.397805 1.5 0 
C 1.5 -0.397805 1.341951 -0.77937 1.06066 -1.06066 
C 0.77937 -1.341951 0.397805 -1.5 0 -1.5 
C -0.397805 -1.5 -0.77937 -1.341951 -1.06066 -1.06066 
C -1.341951 -0.77937 -1.5 -0.397805 -1.5 0 
C -1.5 0.397805 -1.341951 0.77937 -1.06066 1.06066 
C -0.77937 1.341951 -0.397805 1.5 0 1.5 
z
" id="me7483b1768" style="stroke:#f5deb3;"/>
    </defs>
    <g>
     <use style="fill:#f5deb3;stroke:#f5deb3;" x="160.015335" xlink:href="#me7483b1768" y="30.334099"/>
     <use style="fill:#f5deb3;stroke:#f5deb3;" x="160.015335" xlink:href="#me7483b1768" y="30.334099"/>
    </g>
   </g>
   <g id="line2d_34">
    <defs>
     <path d="M 0 1.5 
C 0.397805 1.5 0.77937 1.341951 1.06066 1.06066 
C 1.341951 0.77937 1.5 0.397805 1.5 0 
C 1.5 -0.397805 1.341951 -0.77937 1.06066 -1.06066 
C 0.77937 -1.341951 0.397805 -1.5 0 -1.5 
C -0.397805 -1.5 -0.77937 -1.341951 -1.06066 -1.06066 
C -1.341951 -0.77937 -1.5 -0.397805 -1.5 0 
C -1.5 0.397805 -1.341951 0.77937 -1.06066 1.06066 
C -0.77937 1.341951 -0.397805 1.5 0 1.5 
z
" id="m0d154190fd" style="stroke:#000080;"/>
    </defs>
    <g>
     <use style="fill:#000080;stroke:#000080;" x="156.30945" xlink:href="#m0d154190fd" y="30.334099"/>
     <use style="fill:#000080;stroke:#000080;" x="156.30945" xlink:href="#m0d154190fd" y="30.334099"/>
    </g>
   </g>
   <g id="line2d_35">
    <path d="M 102.597126 298.944 
L 102.597126 297.890628 
L 103.870632 297.890628 
L 103.870632 296.837256 
L 104.355088 296.837256 
L 104.355088 296.31057 
L 105.285403 296.31057 
L 105.285403 295.783884 
L 106.802819 295.783884 
L 106.802819 295.257197 
L 112.58145 295.257197 
L 112.58145 294.730511 
L 113.022974 294.730511 
L 113.022974 294.203825 
L 118.039942 294.203825 
L 118.039942 293.677139 
L 121.036887 293.677139 
L 121.036887 292.623767 
L 121.489881 292.623767 
L 121.489881 292.097081 
L 121.84399 292.097081 
L 121.84399 291.570395 
L 123.434283 291.570395 
L 123.434283 291.043709 
L 124.444412 291.043709 
L 124.444412 290.517023 
L 125.470548 290.517023 
L 125.470548 289.990337 
L 126.70692 289.990337 
L 126.70692 289.463651 
L 129.06046 289.463651 
L 129.06046 288.936964 
L 129.175952 288.936964 
L 129.175952 288.410278 
L 129.908566 288.410278 
L 129.908566 287.883592 
L 130.505303 287.883592 
L 130.505303 287.356906 
L 130.822389 287.356906 
L 130.822389 286.83022 
L 131.439773 286.83022 
L 131.439773 286.303534 
L 132.847322 286.303534 
L 132.847322 285.776848 
L 134.149701 285.776848 
L 134.149701 285.250162 
L 134.661403 285.250162 
L 134.661403 284.723476 
L 134.787017 284.723476 
L 134.870259 283.143418 
L 135.240011 283.143418 
L 135.321124 282.090045 
L 135.800036 282.090045 
L 135.878591 281.036673 
L 135.995765 281.036673 
L 136.073445 279.983301 
L 136.607732 279.983301 
L 136.68274 278.929929 
L 136.79465 278.929929 
L 136.79465 278.403243 
L 137.089613 278.403243 
L 137.089613 277.876557 
L 137.451437 277.876557 
L 137.451437 277.349871 
L 137.70032 277.349871 
L 137.70032 275.769812 
L 137.910857 275.769812 
L 137.910857 275.243126 
L 138.049816 275.243126 
L 138.049816 274.71644 
L 138.256201 274.71644 
L 138.290362 273.663068 
L 138.392446 273.663068 
L 138.392446 273.136382 
L 138.628343 273.136382 
L 138.628343 272.609696 
L 139.090775 272.609696 
L 139.090775 271.556324 
L 139.220677 271.556324 
L 139.285267 269.449579 
L 139.413734 269.449579 
L 139.509467 267.869521 
L 139.604677 267.869521 
L 139.69937 266.289463 
L 139.730821 266.289463 
L 139.824833 264.709405 
L 139.856059 264.709405 
L 139.856059 263.129347 
L 140.042245 263.129347 
L 140.042245 262.60266 
L 140.287441 262.60266 
L 140.287441 262.075974 
L 140.469102 262.075974 
L 140.559227 259.96923 
L 140.64889 259.96923 
L 140.708409 258.389172 
L 141.032186 258.389172 
L 141.032186 257.862486 
L 141.177393 257.862486 
L 141.263941 256.809114 
L 141.378673 256.809114 
L 141.46423 255.229055 
L 141.521035 255.229055 
L 141.549369 253.648997 
L 141.634094 253.648997 
L 141.69035 252.068939 
L 141.774395 252.068939 
L 141.858037 249.962195 
L 142.133981 249.962195 
L 142.215919 248.908822 
L 142.270332 248.908822 
L 142.297475 245.748706 
L 142.432559 245.748706 
L 142.486301 242.588589 
L 142.566605 242.588589 
L 142.673105 241.535217 
L 142.752555 241.535217 
L 142.778958 239.428473 
L 142.936543 239.428473 
L 142.936543 238.901787 
L 143.11861 238.901787 
L 143.196061 234.688298 
L 143.273169 234.688298 
L 143.324386 233.634926 
L 143.60342 233.634926 
L 143.60342 233.10824 
L 143.728793 233.10824 
L 143.828447 231.528182 
L 143.87806 231.528182 
L 143.952218 229.421437 
L 144.001481 229.421437 
L 144.001481 228.894751 
L 144.197155 228.894751 
L 144.245733 227.314693 
L 144.366588 227.314693 
L 144.390658 225.207949 
L 144.486611 225.207949 
L 144.55823 223.627891 
L 144.605813 223.627891 
L 144.700592 222.574518 
L 144.724207 222.574518 
L 144.77134 220.467774 
L 144.981877 220.467774 
L 144.981877 219.941088 
L 145.097753 219.941088 
L 145.097753 219.414402 
L 145.350002 219.414402 
L 145.350002 218.36103 
L 145.463466 218.36103 
L 145.508645 215.727599 
L 145.576196 215.727599 
L 145.643486 212.040797 
L 145.710517 212.040797 
L 145.777292 208.88068 
L 145.865929 208.88068 
L 145.976095 206.773936 
L 145.998045 206.773936 
L 145.998045 206.24725 
L 146.150926 206.24725 
L 146.237689 203.087133 
L 146.280909 203.087133 
L 146.388493 200.980389 
L 146.431341 200.980389 
L 146.538004 199.927017 
L 146.644018 199.927017 
L 146.749392 195.186842 
L 146.77039 195.186842 
L 146.833235 192.026726 
L 146.916676 192.026726 
L 146.978997 190.973354 
L 147.041095 190.973354 
L 147.144103 189.919981 
L 147.164632 189.919981 
L 147.246507 186.759865 
L 147.287301 186.759865 
L 147.388869 183.073062 
L 147.429332 183.073062 
L 147.530079 179.912946 
L 147.550159 179.912946 
L 147.650212 176.752829 
L 147.729844 176.752829 
L 147.729844 176.226143 
L 147.907696 176.226143 
L 148.005725 173.066027 
L 148.103206 173.066027 
L 148.1808 170.959282 
L 148.354135 170.959282 
L 148.354135 170.432596 
L 148.468742 170.432596 
L 148.563676 168.325852 
L 148.582601 168.325852 
L 148.676918 164.112363 
L 148.714503 164.112363 
L 148.808112 160.952247 
L 148.882639 160.952247 
L 148.975352 157.79213 
L 149.012299 157.79213 
L 149.085961 156.212072 
L 149.232356 156.212072 
L 149.323233 154.105328 
L 149.359452 154.105328 
L 149.467659 150.418525 
L 149.485628 150.418525 
L 149.575199 147.785095 
L 149.628721 147.785095 
L 149.735275 143.571606 
L 149.752971 143.571606 
L 149.841182 140.938176 
L 149.876341 140.938176 
L 149.981398 138.831432 
L 149.998846 138.831432 
L 150.103169 134.617943 
L 150.120495 134.617943 
L 150.18963 133.037885 
L 150.241302 133.037885 
L 150.327083 129.351082 
L 150.581924 129.351082 
L 150.66605 124.610907 
L 150.749772 124.610907 
L 150.833094 121.450791 
L 150.866312 121.450791 
L 150.866312 120.924105 
L 151.015013 120.924105 
L 151.113448 116.18393 
L 151.162458 116.18393 
L 151.260066 113.5505 
L 151.292481 113.5505 
L 151.340991 110.917069 
L 151.421542 110.917069 
L 151.501723 108.810325 
L 151.597455 108.810325 
L 151.692666 105.123522 
L 151.755852 105.123522 
L 151.803091 103.543464 
L 151.897188 103.543464 
L 152.00633 99.329976 
L 152.068392 99.329976 
L 152.161072 93.536429 
L 152.191856 93.536429 
L 152.299175 91.429684 
L 152.39064 91.429684 
L 152.496747 87.742882 
L 152.511852 87.742882 
L 152.617226 84.056079 
L 152.647216 84.056079 
L 152.751777 79.842591 
L 152.766663 79.842591 
L 152.870513 76.682474 
L 152.914832 76.682474 
L 153.017805 69.835555 
L 153.090987 69.835555 
L 153.105587 68.782183 
L 153.221946 68.782183 
L 153.308709 63.515322 
L 153.40939 63.515322 
L 153.466662 61.935264 
L 153.523746 61.935264 
L 153.523746 60.355206 
L 153.679772 60.355206 
L 153.722083 59.301833 
L 153.820412 59.301833 
L 153.904255 57.721775 
L 154.015422 57.721775 
L 154.070741 56.141717 
L 154.139643 56.141717 
L 154.208275 53.508287 
L 154.303908 53.508287 
L 154.385464 50.874856 
L 154.426099 50.874856 
L 154.493614 49.294798 
L 154.547439 49.294798 
L 154.654594 45.081309 
L 154.707925 45.081309 
L 154.8141 40.867821 
L 154.880133 40.867821 
L 154.959044 38.761076 
L 155.0376 38.761076 
L 155.0376 38.23439 
L 155.154773 38.23439 
L 155.258271 37.181018 
L 155.322646 37.181018 
L 155.386785 35.60096 
L 155.450689 35.60096 
L 155.514359 34.020902 
L 155.791779 34.020902 
L 155.791779 33.494215 
L 155.904009 33.494215 
L 155.94126 31.387471 
L 156.101764 31.387471 
L 156.101764 30.860785 
L 156.30945 30.860785 
L 156.30945 30.334099 
L 338.688 30.334099 
L 338.688 30.334099 
" style="fill:none;stroke:#000080;stroke-linecap:square;stroke-width:1.5;"/>
   </g>
   <g id="line2d_36">
    <defs>
     <path d="M 0 6 
C 1.591219 6 3.117479 5.367802 4.242641 4.242641 
C 5.367802 3.117479 6 1.591219 6 0 
C 6 -1.591219 5.367802 -3.117479 4.242641 -4.242641 
C 3.117479 -5.367802 1.591219 -6 0 -6 
C -1.591219 -6 -3.117479 -5.367802 -4.242641 -4.242641 
C -5.367802 -3.117479 -6 -1.591219 -6 0 
C -6 1.591219 -5.367802 3.117479 -4.242641 4.242641 
C -3.117479 5.367802 -1.591219 6 0 6 
z
" id="m196a1ad42c" style="stroke:#000080;stroke-width:1.5;"/>
    </defs>
    <g>
     <use style="fill-opacity:0;stroke:#000080;stroke-width:1.5;" x="147.041095" xlink:href="#m196a1ad42c" y="190.973354"/>
     <use style="fill-opacity:0;stroke:#000080;stroke-width:1.5;" x="156.30945" xlink:href="#m196a1ad42c" y="30.860785"/>
     <use style="fill-opacity:0;stroke:#000080;stroke-width:1.5;" x="156.30945" xlink:href="#m196a1ad42c" y="30.334099"/>
     <use style="fill-opacity:0;stroke:#000080;stroke-width:1.5;" x="156.30945" xlink:href="#m196a1ad42c" y="30.334099"/>
     <use style="fill-opacity:0;stroke:#000080;stroke-width:1.5;" x="338.688" xlink:href="#m196a1ad42c" y="30.334099"/>
    </g>
   </g>
   <g id="line2d_37">
    <path style="fill:none;stroke:#000080;stroke-linecap:square;stroke-width:1.5;"/>
    <g/>
   </g>
   <g id="line2d_38">
    <g>
     <use style="fill:#000080;stroke:#000080;" x="156.741256" xlink:href="#m0d154190fd" y="30.334099"/>
     <use style="fill:#000080;stroke:#000080;" x="156.741256" xlink:href="#m0d154190fd" y="30.334099"/>
    </g>
   </g>
   <g id="line2d_39">
    <path d="M 57.6 298.944 
L 57.6 298.417314 
L 63.467834 298.417314 
L 63.467834 297.363942 
L 92.026554 297.363942 
L 92.026554 296.837256 
L 92.969447 296.837256 
L 92.969447 296.31057 
L 104.355088 296.31057 
L 104.355088 295.257197 
L 108.006005 295.257197 
L 108.006005 294.730511 
L 108.948899 294.730511 
L 108.948899 294.203825 
L 110.358901 294.203825 
L 110.358901 293.150453 
L 114.148479 293.150453 
L 114.148479 292.623767 
L 114.947365 292.623767 
L 114.947365 292.097081 
L 118.681952 292.097081 
L 118.681952 291.570395 
L 120.093994 291.570395 
L 120.093994 291.043709 
L 121.931406 291.043709 
L 121.931406 290.517023 
L 124.062793 290.517023 
L 124.062793 289.990337 
L 127.165014 289.990337 
L 127.165014 288.410278 
L 128.885774 288.410278 
L 128.885774 287.883592 
L 129.233413 287.883592 
L 129.290685 286.83022 
L 129.51791 286.83022 
L 129.51791 286.303534 
L 132.036046 286.303534 
L 132.036046 285.776848 
L 132.517825 285.776848 
L 132.517825 285.250162 
L 132.940331 285.250162 
L 132.940331 284.723476 
L 134.019394 284.723476 
L 134.019394 284.19679 
L 134.61933 284.19679 
L 134.61933 283.670104 
L 134.870259 283.670104 
L 134.953107 282.616732 
L 135.076644 282.616732 
L 135.076644 282.090045 
L 135.401861 282.090045 
L 135.482227 278.929929 
L 135.760625 278.929929 
L 135.839358 277.349871 
L 136.073445 277.349871 
L 136.112156 275.769812 
L 136.456742 275.769812 
L 136.494612 274.71644 
L 136.831795 274.71644 
L 136.905847 273.663068 
L 137.053015 273.663068 
L 137.126135 269.976266 
L 137.271464 269.976266 
L 137.343676 268.396207 
L 137.451437 268.396207 
L 137.558536 267.342835 
L 137.70032 267.342835 
L 137.805906 265.762777 
L 137.910857 265.762777 
L 137.945701 264.709405 
L 138.049816 264.709405 
L 138.049816 264.182719 
L 138.221972 264.182719 
L 138.221972 263.656033 
L 138.392446 263.656033 
L 138.392446 263.129347 
L 138.628343 263.129347 
L 138.728473 262.075974 
L 138.861092 262.075974 
L 138.959898 259.96923 
L 139.02546 259.96923 
L 139.123342 256.282427 
L 139.220677 256.282427 
L 139.317473 252.595625 
L 139.445704 252.595625 
L 139.445704 251.542253 
L 139.604677 251.542253 
L 139.69937 249.962195 
L 139.793552 249.962195 
L 139.793552 249.435508 
L 139.9494 249.435508 
L 139.980403 247.328764 
L 140.103868 247.328764 
L 140.165274 246.275392 
L 140.378508 246.275392 
L 140.469102 243.641962 
L 140.826843 243.641962 
L 140.88576 241.535217 
L 140.973763 241.535217 
L 141.061324 240.481845 
L 141.177393 240.481845 
L 141.20629 238.901787 
L 141.378673 238.901787 
L 141.378673 238.375101 
L 141.69035 238.375101 
L 141.774395 234.161612 
L 141.858037 234.161612 
L 141.885829 232.581554 
L 142.051655 232.581554 
L 142.051655 231.528182 
L 142.215919 231.528182 
L 142.243147 230.47481 
L 142.432559 230.47481 
L 142.539878 226.788007 
L 142.646541 226.788007 
L 142.726112 224.154577 
L 142.831645 224.154577 
L 142.936543 222.574518 
L 143.11861 222.574518 
L 143.170282 221.521146 
L 143.375453 221.521146 
L 143.47714 218.887716 
L 143.60342 218.887716 
L 143.678752 217.834344 
L 143.75376 217.834344 
L 143.853271 215.200913 
L 143.952218 215.200913 
L 144.050606 212.567483 
L 144.099593 212.567483 
L 144.172816 211.514111 
L 144.221461 211.514111 
L 144.294175 210.460738 
L 144.53439 210.460738 
L 144.629556 209.407366 
L 144.700592 209.407366 
L 144.77134 208.353994 
L 144.865226 208.353994 
L 144.93531 205.720564 
L 145.005114 205.720564 
L 145.074639 204.140506 
L 145.120836 204.140506 
L 145.212864 203.087133 
L 145.235796 203.087133 
L 145.304409 199.400331 
L 145.350002 199.400331 
L 145.440832 197.293586 
L 145.463466 197.293586 
L 145.531191 195.713528 
L 145.643486 195.713528 
L 145.732804 193.606784 
L 145.755062 193.606784 
L 145.777292 192.026726 
L 145.932112 192.026726 
L 146.041862 190.446667 
L 146.129168 190.446667 
L 146.194362 188.339923 
L 146.40993 188.339923 
L 146.495417 184.126434 
L 146.538004 184.126434 
L 146.559258 183.073062 
L 146.686244 183.073062 
L 146.707319 180.966318 
L 146.812312 180.966318 
L 146.854132 177.806202 
L 146.937474 177.806202 
L 146.999721 174.646085 
L 147.061745 174.646085 
L 147.164632 170.432596 
L 147.205618 170.432596 
L 147.307662 168.325852 
L 147.348313 168.325852 
L 147.388869 165.692422 
L 147.509976 165.692422 
L 147.509976 165.165736 
L 147.630247 165.165736 
L 147.729844 159.372189 
L 147.809113 159.372189 
L 147.888024 157.79213 
L 147.986163 157.79213 
L 148.083753 156.212072 
L 148.103206 156.212072 
L 148.1808 153.578642 
L 148.27731 153.578642 
L 148.373289 151.471897 
L 148.392421 151.471897 
L 148.392421 150.418525 
L 148.582601 150.418525 
L 148.676918 145.678351 
L 148.733265 145.678351 
L 148.770728 144.624978 
L 148.901221 144.624978 
L 148.993835 140.938176 
L 149.085961 140.938176 
L 149.195872 134.091257 
L 149.214124 134.091257 
L 149.214124 133.037885 
L 149.341352 133.037885 
L 149.341352 132.511199 
L 149.467659 132.511199 
L 149.557321 129.351082 
L 149.628721 129.351082 
L 149.717561 126.190966 
L 149.770648 126.190966 
L 149.85877 124.084221 
L 149.963932 124.084221 
L 150.068464 120.924105 
L 150.085825 120.924105 
L 150.18963 118.817361 
L 150.309961 118.817361 
L 150.412445 115.657244 
L 150.463462 115.657244 
L 150.56505 109.863697 
L 150.632448 109.863697 
L 150.73306 106.703581 
L 150.833094 106.703581 
L 150.91602 100.910034 
L 150.982078 100.910034 
L 151.047887 99.856662 
L 151.113448 99.856662 
L 151.21133 96.169859 
L 151.227591 96.169859 
L 151.276281 93.009743 
L 151.373256 93.009743 
L 151.469695 90.376312 
L 151.501723 90.376312 
L 151.533692 87.742882 
L 151.61336 87.742882 
L 151.692666 84.582765 
L 151.755852 84.582765 
L 151.865879 82.476021 
L 151.928441 82.476021 
L 152.037389 77.735846 
L 152.253262 77.735846 
L 152.329717 75.629102 
L 152.375429 75.629102 
L 152.481628 70.362241 
L 152.496747 70.362241 
L 152.572143 66.675439 
L 152.751777 66.675439 
L 152.855715 64.042008 
L 152.959038 64.042008 
L 153.047115 61.935264 
L 153.105587 61.935264 
L 153.207444 57.195089 
L 153.236437 57.195089 
L 153.323128 56.141717 
L 153.380683 56.141717 
L 153.380683 55.088345 
L 153.495227 55.088345 
L 153.59484 52.9816 
L 153.637357 52.9816 
L 153.637357 52.454914 
L 153.778339 52.454914 
L 153.848404 50.34817 
L 153.890309 50.34817 
L 153.987696 47.71474 
L 154.029268 47.71474 
L 154.084543 46.134681 
L 154.167129 46.134681 
L 154.262987 44.027937 
L 154.344733 44.027937 
L 154.344733 42.974565 
L 154.493614 42.974565 
L 154.493614 42.447879 
L 154.654594 42.447879 
L 154.654594 41.394507 
L 154.77436 41.394507 
L 154.77436 40.867821 
L 154.945917 40.867821 
L 155.0376 36.127646 
L 155.128803 36.127646 
L 155.128803 35.60096 
L 155.412374 35.60096 
L 155.412374 35.074274 
L 155.565128 35.074274 
L 155.653621 33.494215 
L 156.163105 33.494215 
L 156.199806 32.440843 
L 156.418408 32.440843 
L 156.442528 31.387471 
L 156.741256 31.387471 
L 156.741256 30.334099 
L 338.688 30.334099 
L 338.688 30.334099 
" style="fill:none;stroke:#000080;stroke-linecap:square;stroke-width:1.5;"/>
   </g>
   <g id="line2d_40">
    <g>
     <use style="fill-opacity:0;stroke:#000080;stroke-width:1.5;" x="139.317473" xlink:href="#m196a1ad42c" y="253.122311"/>
     <use style="fill-opacity:0;stroke:#000080;stroke-width:1.5;" x="154.19457" xlink:href="#m196a1ad42c" y="44.554623"/>
     <use style="fill-opacity:0;stroke:#000080;stroke-width:1.5;" x="156.741256" xlink:href="#m196a1ad42c" y="30.334099"/>
     <use style="fill-opacity:0;stroke:#000080;stroke-width:1.5;" x="156.741256" xlink:href="#m196a1ad42c" y="30.334099"/>
     <use style="fill-opacity:0;stroke:#000080;stroke-width:1.5;" x="338.688" xlink:href="#m196a1ad42c" y="30.334099"/>
    </g>
   </g>
   <g id="line2d_41">
    <path style="fill:none;stroke:#000080;stroke-linecap:square;stroke-width:1.5;"/>
    <g/>
   </g>
   <g id="line2d_42">
    <defs>
     <path d="M 0 1.5 
C 0.397805 1.5 0.77937 1.341951 1.06066 1.06066 
C 1.341951 0.77937 1.5 0.397805 1.5 0 
C 1.5 -0.397805 1.341951 -0.77937 1.06066 -1.06066 
C 0.77937 -1.341951 0.397805 -1.5 0 -1.5 
C -0.397805 -1.5 -0.77937 -1.341951 -1.06066 -1.06066 
C -1.341951 -0.77937 -1.5 -0.397805 -1.5 0 
C -1.5 0.397805 -1.341951 0.77937 -1.06066 1.06066 
C -0.77937 1.341951 -0.397805 1.5 0 1.5 
z
" id="m477b6cb905" style="stroke:#ff00ff;"/>
    </defs>
    <g>
     <use style="fill:#ff00ff;stroke:#ff00ff;" x="191.993081" xlink:href="#m477b6cb905" y="30.334099"/>
     <use style="fill:#ff00ff;stroke:#ff00ff;" x="191.993081" xlink:href="#m477b6cb905" y="30.334099"/>
    </g>
   </g>
   <g id="line2d_43">
    <path d="M 97.403108 298.944 
L 97.403108 297.890628 
L 99.731799 297.890628 
L 99.731799 296.837256 
L 118.576578 296.837256 
L 118.576578 296.31057 
L 156.681918 296.31057 
L 156.681918 295.783884 
L 158.053098 295.783884 
L 158.053098 295.257197 
L 158.336493 295.257197 
L 158.336493 294.730511 
L 160.970627 294.730511 
L 160.970627 294.203825 
L 161.100288 294.203825 
L 161.100288 293.677139 
L 162.854457 293.677139 
L 162.854457 293.150453 
L 163.828065 293.150453 
L 163.828065 292.623767 
L 164.869525 292.623767 
L 164.869525 292.097081 
L 165.061737 292.097081 
L 165.164364 291.043709 
L 165.251852 291.043709 
L 165.251852 290.517023 
L 165.511714 290.517023 
L 165.511714 289.990337 
L 165.647318 289.990337 
L 165.753633 288.936964 
L 165.795979 288.936964 
L 165.85228 287.356906 
L 165.922402 287.356906 
L 166.027059 285.776848 
L 166.110335 285.776848 
L 166.110335 284.723476 
L 166.682389 284.723476 
L 166.709167 283.143418 
L 166.941739 283.143418 
L 166.941739 282.616732 
L 167.06015 282.616732 
L 167.06015 282.090045 
L 167.359153 282.090045 
L 167.359153 281.563359 
L 167.576907 281.563359 
L 167.659453 280.509987 
L 168.140524 280.509987 
L 168.140524 279.983301 
L 168.263336 279.983301 
L 168.263336 279.456615 
L 168.494323 279.456615 
L 168.500361 278.403243 
L 168.71633 278.403243 
L 168.71633 277.876557 
L 168.894283 277.876557 
L 168.894283 276.823185 
L 169.011918 276.823185 
L 169.07628 274.71644 
L 169.146224 274.71644 
L 169.256398 272.08301 
L 169.354388 272.08301 
L 169.400311 271.029638 
L 169.497498 271.029638 
L 169.497498 270.502952 
L 169.684622 270.502952 
L 169.740933 269.449579 
L 169.897641 269.449579 
L 169.997643 267.342835 
L 170.16305 267.342835 
L 170.168537 265.236091 
L 170.381181 265.236091 
L 170.467674 262.60266 
L 170.537636 262.60266 
L 170.639386 261.549288 
L 170.883296 261.549288 
L 170.883296 260.495916 
L 171.030109 260.495916 
L 171.103055 257.862486 
L 171.258348 257.862486 
L 171.258348 257.3358 
L 171.453088 257.3358 
L 171.554716 255.755741 
L 171.605309 255.755741 
L 171.680924 254.175683 
L 171.900854 254.175683 
L 171.994974 252.595625 
L 172.078757 252.595625 
L 172.132757 249.435508 
L 172.196359 249.435508 
L 172.264595 246.802078 
L 172.385786 246.802078 
L 172.48694 243.641962 
L 172.506141 243.641962 
L 172.568398 242.588589 
L 172.8058 242.588589 
L 172.904553 238.375101 
L 172.918615 238.375101 
L 172.998087 235.214984 
L 173.058616 235.214984 
L 173.14208 234.161612 
L 173.17443 234.161612 
L 173.252747 231.528182 
L 173.303236 231.528182 
L 173.403777 228.368065 
L 173.426547 228.368065 
L 173.512801 223.627891 
L 173.548992 223.627891 
L 173.657115 222.574518 
L 173.666095 222.574518 
L 173.751176 220.467774 
L 173.795789 220.467774 
L 173.87137 218.887716 
L 173.937789 218.887716 
L 174.008357 217.307658 
L 174.087407 217.307658 
L 174.18354 213.094169 
L 174.253123 213.094169 
L 174.348349 207.827308 
L 174.37854 207.827308 
L 174.455933 203.087133 
L 174.571383 203.087133 
L 174.681839 198.346959 
L 174.703001 198.346959 
L 174.804221 194.13347 
L 174.833633 194.13347 
L 174.938273 187.286551 
L 175.013227 187.286551 
L 175.116798 184.653121 
L 175.166295 184.653121 
L 175.273058 180.439632 
L 175.289425 180.439632 
L 175.395439 177.279515 
L 175.504853 177.279515 
L 175.577416 173.592713 
L 175.621612 173.592713 
L 175.72962 172.012655 
L 175.737594 172.012655 
L 175.781387 169.379224 
L 175.876553 169.379224 
L 175.979068 165.692422 
L 175.998714 165.692422 
L 176.09661 160.952247 
L 176.135616 160.952247 
L 176.228874 155.685386 
L 176.267585 155.685386 
L 176.3409 154.105328 
L 176.440729 154.105328 
L 176.536182 151.471897 
L 176.653823 151.471897 
L 176.763161 147.258409 
L 176.785697 147.258409 
L 176.864345 144.098292 
L 176.897943 144.098292 
L 177.002059 140.41149 
L 177.068663 140.41149 
L 177.142371 137.251373 
L 177.226752 137.251373 
L 177.310727 135.144629 
L 177.347112 135.144629 
L 177.419654 134.091257 
L 177.653356 134.091257 
L 177.753071 129.351082 
L 177.799173 129.351082 
L 177.845155 128.29771 
L 177.933241 128.29771 
L 178.020885 126.190966 
L 178.139377 126.190966 
L 178.246718 125.137593 
L 178.267417 125.137593 
L 178.34997 124.084221 
L 178.541087 124.084221 
L 178.574996 123.030849 
L 178.780424 123.030849 
L 178.890557 118.290674 
L 178.900534 118.290674 
L 179.006609 116.710616 
L 179.161246 116.710616 
L 179.265751 114.603872 
L 179.29178 114.603872 
L 179.298281 113.5505 
L 179.414889 113.5505 
L 179.492196 112.497128 
L 179.801203 112.497128 
L 179.908231 108.810325 
L 179.917643 108.810325 
L 180.020844 104.596836 
L 180.107931 104.596836 
L 180.197673 103.543464 
L 180.296166 103.543464 
L 180.375783 101.43672 
L 180.509698 101.43672 
L 180.618505 98.803289 
L 180.621518 98.803289 
L 180.732625 97.223231 
L 180.756556 97.223231 
L 180.854923 95.116487 
L 180.905381 95.116487 
L 180.985222 90.902998 
L 181.111626 90.902998 
L 181.155506 88.796254 
L 181.30098 88.796254 
L 181.350166 87.216196 
L 181.585486 87.216196 
L 181.625347 86.162824 
L 181.733085 86.162824 
L 181.84297 81.949335 
L 181.963328 81.949335 
L 181.963328 81.422649 
L 182.124367 81.422649 
L 182.18231 79.842591 
L 182.245551 79.842591 
L 182.344078 74.049044 
L 182.384967 74.049044 
L 182.466459 71.415613 
L 182.509766 71.415613 
L 182.547572 69.308869 
L 182.65782 69.308869 
L 182.716692 67.728811 
L 182.788672 67.728811 
L 182.897411 64.568694 
L 182.955481 64.568694 
L 183.057949 59.82852 
L 183.110264 59.82852 
L 183.152004 57.195089 
L 183.336027 57.195089 
L 183.364365 56.141717 
L 183.49515 56.141717 
L 183.513025 53.508287 
L 183.617353 53.508287 
L 183.645238 51.401542 
L 183.791533 51.401542 
L 183.801577 50.34817 
L 183.906693 50.34817 
L 183.906693 49.821484 
L 184.043395 49.821484 
L 184.043395 49.294798 
L 184.237892 49.294798 
L 184.237892 48.768112 
L 184.352584 48.768112 
L 184.37689 47.188054 
L 184.794473 47.188054 
L 184.794473 46.661368 
L 184.914997 46.661368 
L 184.999574 45.081309 
L 188.869931 45.081309 
L 188.869931 44.554623 
L 189.078922 44.554623 
L 189.078922 44.027937 
L 189.300095 44.027937 
L 189.300095 43.501251 
L 189.6051 43.501251 
L 189.6051 42.974565 
L 189.833955 42.974565 
L 189.833955 42.447879 
L 190.298423 42.447879 
L 190.38813 40.867821 
L 190.429377 40.867821 
L 190.491067 39.814448 
L 190.559356 39.814448 
L 190.601901 37.707704 
L 190.742412 37.707704 
L 190.742412 37.181018 
L 191.016762 37.181018 
L 191.083027 35.074274 
L 191.291765 35.074274 
L 191.317886 33.494215 
L 191.572148 33.494215 
L 191.572148 32.967529 
L 191.73378 32.967529 
L 191.760838 31.914157 
L 191.971095 31.914157 
L 191.993081 30.334099 
L 338.688 30.334099 
L 338.688 30.334099 
" style="fill:none;stroke:#ff00ff;stroke-linecap:square;stroke-width:1.5;"/>
   </g>
   <g id="line2d_44">
    <defs>
     <path d="M -0 8.485281 
L 5.091169 0 
L 0 -8.485281 
L -5.091169 -0 
z
" id="m47820ece99" style="stroke:#ff00ff;stroke-linejoin:miter;stroke-width:1.5;"/>
    </defs>
    <g>
     <use style="fill-opacity:0;stroke:#ff00ff;stroke-linejoin:miter;stroke-width:1.5;" x="176.162868" xlink:href="#m47820ece99" y="159.372189"/>
     <use style="fill-opacity:0;stroke:#ff00ff;stroke-linejoin:miter;stroke-width:1.5;" x="191.971095" xlink:href="#m47820ece99" y="31.387471"/>
     <use style="fill-opacity:0;stroke:#ff00ff;stroke-linejoin:miter;stroke-width:1.5;" x="191.993081" xlink:href="#m47820ece99" y="30.334099"/>
     <use style="fill-opacity:0;stroke:#ff00ff;stroke-linejoin:miter;stroke-width:1.5;" x="191.993081" xlink:href="#m47820ece99" y="30.334099"/>
     <use style="fill-opacity:0;stroke:#ff00ff;stroke-linejoin:miter;stroke-width:1.5;" x="338.688" xlink:href="#m47820ece99" y="30.334099"/>
    </g>
   </g>
   <g id="line2d_45">
    <path style="fill:none;stroke:#ff00ff;stroke-linecap:square;stroke-width:1.5;"/>
    <g/>
   </g>
   <g id="line2d_46">
    <defs>
     <path d="M 0 1.5 
C 0.397805 1.5 0.77937 1.341951 1.06066 1.06066 
C 1.341951 0.77937 1.5 0.397805 1.5 0 
C 1.5 -0.397805 1.341951 -0.77937 1.06066 -1.06066 
C 0.77937 -1.341951 0.397805 -1.5 0 -1.5 
C -0.397805 -1.5 -0.77937 -1.341951 -1.06066 -1.06066 
C -1.341951 -0.77937 -1.5 -0.397805 -1.5 0 
C -1.5 0.397805 -1.341951 0.77937 -1.06066 1.06066 
C -0.77937 1.341951 -0.397805 1.5 0 1.5 
z
" id="me3d155ab20" style="stroke:#ff0000;"/>
    </defs>
    <g>
     <use style="fill:#ff0000;stroke:#ff0000;" x="159.139412" xlink:href="#me3d155ab20" y="30.334099"/>
     <use style="fill:#ff0000;stroke:#ff0000;" x="159.139412" xlink:href="#me3d155ab20" y="30.334099"/>
    </g>
   </g>
   <g id="line2d_47">
    <path d="M 113.73488 298.944 
L 113.73488 298.417314 
L 127.736845 298.417314 
L 127.736845 297.890628 
L 129.002426 297.890628 
L 129.002426 297.363942 
L 129.908566 297.363942 
L 129.908566 296.837256 
L 135.240011 296.837256 
L 135.321124 295.783884 
L 135.995765 295.783884 
L 136.073445 294.730511 
L 136.68274 294.730511 
L 136.68274 294.203825 
L 137.271464 294.203825 
L 137.271464 293.677139 
L 137.664982 293.677139 
L 137.664982 293.150453 
L 138.256201 293.150453 
L 138.256201 292.623767 
L 138.392446 292.623767 
L 138.392446 292.097081 
L 138.69516 292.097081 
L 138.794909 289.990337 
L 139.918342 289.990337 
L 140.011351 288.936964 
L 140.226464 288.936964 
L 140.256979 287.356906 
L 140.79731 287.356906 
L 140.79731 286.83022 
L 140.915143 286.83022 
L 140.973763 284.723476 
L 141.032186 284.723476 
L 141.032186 284.19679 
L 141.177393 284.19679 
L 141.177393 283.670104 
L 141.321401 283.670104 
L 141.378673 282.090045 
L 141.577657 282.090045 
L 141.634094 280.509987 
L 141.69035 280.509987 
L 141.71841 279.456615 
L 141.858037 279.456615 
L 141.858037 278.929929 
L 142.07914 278.929929 
L 142.07914 277.876557 
L 142.297475 277.876557 
L 142.297475 277.349871 
L 142.432559 277.349871 
L 142.486301 275.243126 
L 142.726112 275.243126 
L 142.831645 272.609696 
L 142.962669 272.609696 
L 143.066785 271.029638 
L 143.324386 271.029638 
L 143.42637 269.976266 
L 143.502469 269.976266 
L 143.578237 268.922893 
L 143.87806 268.922893 
L 143.87806 268.396207 
L 144.001481 268.396207 
L 144.001481 267.869521 
L 144.124035 267.869521 
L 144.172816 266.816149 
L 144.318346 266.816149 
L 144.390658 265.236091 
L 144.438701 265.236091 
L 144.53439 263.129347 
L 144.724207 263.129347 
L 144.724207 262.60266 
L 144.888619 262.60266 
L 144.981877 260.495916 
L 145.097753 260.495916 
L 145.097753 259.96923 
L 145.258697 259.96923 
L 145.350002 258.915858 
L 145.372754 258.915858 
L 145.463466 256.809114 
L 145.48607 256.809114 
L 145.553708 255.229055 
L 145.621085 255.229055 
L 145.688202 251.015567 
L 145.998045 251.015567 
L 146.107383 248.382136 
L 146.129168 248.382136 
L 146.172658 247.328764 
L 146.367029 247.328764 
L 146.474085 245.22202 
L 146.538004 245.22202 
L 146.580487 242.588589 
L 146.707319 242.588589 
L 146.791364 238.901787 
L 146.833235 238.901787 
L 146.854132 237.848415 
L 146.999721 237.848415 
L 146.999721 237.321729 
L 147.164632 237.321729 
L 147.164632 236.795043 
L 147.327999 236.795043 
L 147.429332 234.688298 
L 147.449528 234.688298 
L 147.550159 229.421437 
L 147.630247 229.421437 
L 147.690073 228.368065 
L 147.78933 228.368065 
L 147.86833 224.681263 
L 147.907696 224.681263 
L 148.005725 219.941088 
L 148.23877 219.941088 
L 148.334961 218.887716 
L 148.392421 218.887716 
L 148.392421 218.36103 
L 148.525764 218.36103 
L 148.582601 215.200913 
L 148.639252 215.200913 
L 148.639252 213.094169 
L 148.882639 213.094169 
L 148.938326 211.514111 
L 149.067574 211.514111 
L 149.159312 208.353994 
L 149.25057 208.353994 
L 149.323233 204.667192 
L 149.377533 204.667192 
L 149.467659 203.087133 
L 149.521512 203.087133 
L 149.593058 201.507075 
L 149.646525 201.507075 
L 149.752971 199.927017 
L 149.911431 199.927017 
L 150.016276 198.346959 
L 150.033689 198.346959 
L 150.120495 192.553412 
L 150.172372 192.553412 
L 150.275665 189.393295 
L 150.446473 189.393295 
L 150.54816 187.286551 
L 150.615623 187.286551 
L 150.66605 185.706493 
L 150.816462 185.706493 
L 150.91602 183.073062 
L 150.94908 183.073062 
L 151.047887 180.966318 
L 151.097081 180.966318 
L 151.178764 175.172771 
L 151.243836 175.172771 
L 151.324836 173.066027 
L 151.421542 173.066027 
L 151.469695 169.379224 
L 151.533692 169.379224 
L 151.533692 168.325852 
L 151.787359 168.325852 
L 151.881541 167.27248 
L 151.928441 167.27248 
L 151.99078 164.63905 
L 152.09934 164.63905 
L 152.207228 162.532305 
L 152.253262 162.532305 
L 152.360205 158.318817 
L 152.39064 158.318817 
L 152.466496 152.52527 
L 152.572143 152.52527 
L 152.632227 150.945211 
L 152.796398 150.945211 
L 152.870513 146.731723 
L 152.929579 146.731723 
L 153.003132 144.624978 
L 153.047115 144.624978 
L 153.149313 142.518234 
L 153.163864 142.518234 
L 153.265382 140.41149 
L 153.323128 140.41149 
L 153.40939 137.778059 
L 153.438049 137.778059 
L 153.523746 134.617943 
L 153.566437 134.617943 
L 153.623196 131.984513 
L 153.679772 131.984513 
L 153.679772 131.457826 
L 153.834414 131.457826 
L 153.904255 128.29771 
L 154.015422 128.29771 
L 154.043103 126.190966 
L 154.139643 126.190966 
L 154.208275 122.504163 
L 154.276638 122.504163 
L 154.317527 119.870733 
L 154.453136 119.870733 
L 154.520548 116.710616 
L 154.57429 116.710616 
L 154.68128 110.917069 
L 154.694607 110.917069 
L 154.761093 107.756953 
L 154.840544 107.756953 
L 154.919633 106.176895 
L 154.985269 106.176895 
L 155.011454 101.963406 
L 155.102793 101.963406 
L 155.193657 98.803289 
L 155.219531 98.803289 
L 155.30979 94.063115 
L 155.34833 94.063115 
L 155.437927 90.376312 
L 155.476185 90.376312 
L 155.565128 88.269568 
L 155.603109 88.269568 
L 155.678822 84.582765 
L 155.754208 84.582765 
L 155.841748 81.422649 
L 155.879132 81.422649 
L 155.953659 79.842591 
L 156.003167 79.842591 
L 156.08947 78.789218 
L 156.126326 78.789218 
L 156.199806 76.155788 
L 156.260804 76.155788 
L 156.357959 70.888927 
L 156.406335 70.888927 
L 156.49067 67.202125 
L 156.574599 67.202125 
L 156.670026 65.09538 
L 156.705677 65.09538 
L 156.800392 60.881892 
L 156.835778 60.881892 
L 156.941506 58.248461 
L 156.999969 58.248461 
L 157.093102 55.615031 
L 157.15106 55.615031 
L 157.231877 52.454914 
L 157.289376 52.454914 
L 157.346685 51.401542 
L 157.415209 51.401542 
L 157.460743 48.768112 
L 157.551454 48.768112 
L 157.641697 46.134681 
L 157.686643 46.134681 
L 157.753847 45.081309 
L 157.809652 45.081309 
L 157.84305 44.027937 
L 157.953917 44.027937 
L 158.064083 40.341135 
L 158.140788 40.341135 
L 158.217157 38.23439 
L 158.304027 38.23439 
L 158.336493 37.181018 
L 158.487203 37.181018 
L 158.508628 35.60096 
L 158.742573 35.60096 
L 158.826871 34.020902 
L 158.9003 34.020902 
L 158.983842 31.914157 
L 159.015067 31.914157 
L 159.046236 30.860785 
L 159.139412 30.860785 
L 159.139412 30.334099 
L 338.688 30.334099 
L 338.688 30.334099 
" style="fill:none;stroke:#ff0000;stroke-linecap:square;stroke-width:1.5;"/>
   </g>
   <g id="line2d_48">
    <defs>
     <path d="M 0 -6 
L -5.196152 -3 
L -5.196152 3 
L -0 6 
L 5.196152 3 
L 5.196152 -3 
z
" id="mf971a15ecf" style="stroke:#ff0000;stroke-linejoin:miter;stroke-width:1.5;"/>
    </defs>
    <g>
     <use style="fill-opacity:0;stroke:#ff0000;stroke-linejoin:miter;stroke-width:1.5;" x="149.25057" xlink:href="#mf971a15ecf" y="207.300622"/>
     <use style="fill-opacity:0;stroke:#ff0000;stroke-linejoin:miter;stroke-width:1.5;" x="159.139412" xlink:href="#mf971a15ecf" y="30.860785"/>
     <use style="fill-opacity:0;stroke:#ff0000;stroke-linejoin:miter;stroke-width:1.5;" x="159.139412" xlink:href="#mf971a15ecf" y="30.334099"/>
     <use style="fill-opacity:0;stroke:#ff0000;stroke-linejoin:miter;stroke-width:1.5;" x="159.139412" xlink:href="#mf971a15ecf" y="30.334099"/>
     <use style="fill-opacity:0;stroke:#ff0000;stroke-linejoin:miter;stroke-width:1.5;" x="338.688" xlink:href="#mf971a15ecf" y="30.334099"/>
    </g>
   </g>
   <g id="line2d_49">
    <path style="fill:none;stroke:#ff0000;stroke-linecap:square;stroke-width:1.5;"/>
    <g/>
   </g>
   <g id="line2d_50">
    <defs>
     <path d="M 0 1.5 
C 0.397805 1.5 0.77937 1.341951 1.06066 1.06066 
C 1.341951 0.77937 1.5 0.397805 1.5 0 
C 1.5 -0.397805 1.341951 -0.77937 1.06066 -1.06066 
C 0.77937 -1.341951 0.397805 -1.5 0 -1.5 
C -0.397805 -1.5 -0.77937 -1.341951 -1.06066 -1.06066 
C -1.341951 -0.77937 -1.5 -0.397805 -1.5 0 
C -1.5 0.397805 -1.341951 0.77937 -1.06066 1.06066 
C -0.77937 1.341951 -0.397805 1.5 0 1.5 
z
" id="mfbe1bf912e" style="stroke:#ff7500;"/>
    </defs>
    <g>
     <use style="fill:#ff7500;stroke:#ff7500;" x="156.646219" xlink:href="#mfbe1bf912e" y="30.334099"/>
     <use style="fill:#ff7500;stroke:#ff7500;" x="156.646219" xlink:href="#mfbe1bf912e" y="30.334099"/>
    </g>
   </g>
   <g id="line2d_51">
    <path d="M 48.691568 298.944 
L 48.691568 297.890628 
L 100.641881 297.890628 
L 100.641881 297.363942 
L 110.527398 297.363942 
L 110.527398 296.837256 
L 120.286695 296.837256 
L 120.286695 295.783884 
L 122.104932 295.783884 
L 122.104932 295.257197 
L 125.892487 295.257197 
L 125.892487 294.730511 
L 126.70692 294.730511 
L 126.70692 294.203825 
L 128.590686 294.203825 
L 128.590686 293.677139 
L 130.874681 293.677139 
L 130.874681 293.150453 
L 131.490249 293.150453 
L 131.490249 292.623767 
L 132.470242 292.623767 
L 132.565279 291.570395 
L 132.80063 291.570395 
L 132.80063 290.517023 
L 133.078923 290.517023 
L 133.078923 289.990337 
L 133.931979 289.990337 
L 133.931979 288.936964 
L 134.192921 288.936964 
L 134.192921 288.410278 
L 134.407429 288.410278 
L 134.407429 287.883592 
L 134.703375 287.883592 
L 134.787017 286.83022 
L 134.870259 286.83022 
L 134.870259 286.303534 
L 135.522271 286.303534 
L 135.602085 285.250162 
L 135.760625 285.250162 
L 135.839358 284.19679 
L 136.073445 284.19679 
L 136.150782 282.616732 
L 136.456742 282.616732 
L 136.456742 281.036673 
L 136.720123 281.036673 
L 136.757427 279.456615 
L 136.979586 279.456615 
L 137.053015 276.296499 
L 137.343676 276.296499 
L 137.343676 275.769812 
L 137.70032 275.769812 
L 137.770782 273.663068 
L 138.118883 273.663068 
L 138.118883 271.556324 
L 138.358484 271.556324 
L 138.426341 270.502952 
L 138.927025 270.502952 
L 138.959898 269.449579 
L 139.253002 269.449579 
L 139.253002 268.922893 
L 139.509467 268.922893 
L 139.604677 265.762777 
L 139.667863 265.762777 
L 139.762215 263.129347 
L 139.9494 263.129347 
L 139.980403 261.022602 
L 140.195896 261.022602 
L 140.256979 259.96923 
L 140.559227 259.96923 
L 140.64889 258.389172 
L 140.738093 258.389172 
L 140.738093 257.862486 
L 140.973763 257.862486 
L 141.032186 256.282427 
L 141.148448 256.282427 
L 141.148448 255.755741 
L 141.263941 255.755741 
L 141.350061 254.702369 
L 141.378673 254.702369 
L 141.46423 252.595625 
L 141.605898 252.595625 
L 141.662245 251.015567 
L 141.80232 251.015567 
L 141.885829 249.435508 
L 141.968939 249.435508 
L 142.07914 247.328764 
L 142.106582 247.328764 
L 142.215919 245.748706 
L 142.270332 245.748706 
L 142.378651 244.168648 
L 142.405626 244.168648 
L 142.51311 243.115275 
L 142.566605 243.115275 
L 142.619936 241.535217 
L 142.726112 241.535217 
L 142.805321 239.955159 
L 142.884173 239.955159 
L 142.988757 237.321729 
L 143.092717 237.321729 
L 143.11861 235.74167 
L 143.298796 235.74167 
L 143.349938 234.161612 
L 143.451774 234.161612 
L 143.553018 232.581554 
L 143.578237 232.581554 
L 143.628567 231.528182 
L 143.803587 231.528182 
L 143.902815 229.421437 
L 143.927534 229.421437 
L 144.026061 227.314693 
L 144.050606 227.314693 
L 144.148442 223.627891 
L 144.197155 223.627891 
L 144.294175 221.521146 
L 144.342484 221.521146 
L 144.414696 219.941088 
L 144.462672 219.941088 
L 144.462672 218.36103 
L 144.653267 218.36103 
L 144.747789 216.254285 
L 144.841802 216.254285 
L 144.865226 214.674227 
L 144.958609 214.674227 
L 145.02832 212.567483 
L 145.189903 212.567483 
L 145.258697 210.987425 
L 145.327221 210.987425 
L 145.327221 210.460738 
L 145.440832 210.460738 
L 145.531191 208.88068 
L 145.598655 208.88068 
L 145.688202 207.300622 
L 145.710517 207.300622 
L 145.799493 205.720564 
L 145.865929 205.720564 
L 145.976095 202.560447 
L 145.998045 202.560447 
L 146.041862 200.453703 
L 146.129168 200.453703 
L 146.194362 196.7669 
L 146.259313 196.7669 
L 146.302479 194.13347 
L 146.431341 194.13347 
L 146.495417 192.026726 
L 146.580487 192.026726 
L 146.665144 186.233179 
L 146.707319 186.233179 
L 146.791364 184.126434 
L 146.833235 184.126434 
L 146.854132 181.493004 
L 147.041095 181.493004 
L 147.144103 180.439632 
L 147.164632 180.439632 
L 147.185137 179.38626 
L 147.307662 179.38626 
L 147.327999 177.806202 
L 147.429332 177.806202 
L 147.530079 174.646085 
L 147.590249 174.646085 
L 147.61026 172.012655 
L 147.749695 172.012655 
L 147.848613 170.432596 
L 147.888024 170.432596 
L 147.946974 168.325852 
L 148.103206 168.325852 
L 148.103206 167.799166 
L 148.23877 167.799166 
L 148.315765 166.745794 
L 148.354135 166.745794 
L 148.449693 163.585677 
L 148.639252 163.585677 
L 148.714503 157.265444 
L 148.826773 157.265444 
L 148.919783 153.578642 
L 149.012299 153.578642 
L 149.085961 150.945211 
L 149.159312 150.945211 
L 149.268764 147.258409 
L 149.305096 147.258409 
L 149.377533 142.518234 
L 149.449671 142.518234 
L 149.521512 139.358118 
L 149.610898 139.358118 
L 149.682079 137.251373 
L 149.85877 137.251373 
L 149.911431 136.198001 
L 149.998846 136.198001 
L 150.103169 131.457826 
L 150.137805 131.457826 
L 150.18963 128.29771 
L 150.292822 128.29771 
L 150.327083 125.137593 
L 150.463462 125.137593 
L 150.56505 121.977477 
L 150.598782 121.977477 
L 150.699587 119.870733 
L 150.716332 119.870733 
L 150.816462 115.657244 
L 150.899466 115.657244 
L 150.998554 114.077186 
L 151.015013 114.077186 
L 151.113448 110.390383 
L 151.21133 110.390383 
L 151.308666 105.650209 
L 151.340991 105.650209 
L 151.421542 101.963406 
L 151.469695 101.963406 
L 151.469695 101.43672 
L 151.645126 101.43672 
L 151.724287 100.383348 
L 151.787359 100.383348 
L 151.897188 95.643173 
L 151.959639 95.643173 
L 152.068392 93.009743 
L 152.09934 93.009743 
L 152.161072 91.429684 
L 152.253262 91.429684 
L 152.299175 89.849626 
L 152.375429 89.849626 
L 152.436193 87.742882 
L 152.496747 87.742882 
L 152.602211 85.109451 
L 152.617226 85.109451 
L 152.632227 83.529393 
L 152.736878 83.529393 
L 152.840905 79.842591 
L 152.944315 79.842591 
L 152.988446 77.735846 
L 153.13475 77.735846 
L 153.207444 74.57573 
L 153.250915 74.57573 
L 153.265382 72.468985 
L 153.366312 72.468985 
L 153.452361 69.308869 
L 153.48095 69.308869 
L 153.580644 66.675439 
L 153.637357 66.675439 
L 153.693887 62.46195 
L 153.820412 62.46195 
L 153.890309 59.301833 
L 153.973817 59.301833 
L 154.070741 58.248461 
L 154.112115 58.248461 
L 154.221969 55.615031 
L 154.358321 55.615031 
L 154.439623 51.401542 
L 154.493614 51.401542 
L 154.547439 49.821484 
L 154.734529 49.821484 
L 154.8141 47.71474 
L 154.866947 47.71474 
L 154.945917 46.134681 
L 154.998366 46.134681 
L 155.102793 42.447879 
L 155.128803 42.447879 
L 155.206599 39.814448 
L 155.28405 39.814448 
L 155.28405 39.287762 
L 155.412374 39.287762 
L 155.463441 36.654332 
L 155.55245 36.654332 
L 155.603109 35.60096 
L 155.678822 35.60096 
L 155.766741 32.967529 
L 155.841748 32.967529 
L 155.841748 32.440843 
L 155.990803 32.440843 
L 155.990803 31.914157 
L 156.236431 31.914157 
L 156.236431 31.387471 
L 156.382164 31.387471 
L 156.382164 30.860785 
L 156.646219 30.860785 
L 156.646219 30.334099 
L 338.688 30.334099 
L 338.688 30.334099 
" style="fill:none;stroke:#ff7500;stroke-linecap:square;stroke-width:1.5;"/>
   </g>
   <g id="line2d_52">
    <defs>
     <path d="M 0 -6 
L -1.347084 -1.854102 
L -5.706339 -1.854102 
L -2.179628 0.708204 
L -3.526712 4.854102 
L -0 2.291796 
L 3.526712 4.854102 
L 2.179628 0.708204 
L 5.706339 -1.854102 
L 1.347084 -1.854102 
z
" id="m766a57d590" style="stroke:#ff7500;stroke-linejoin:bevel;stroke-width:1.5;"/>
    </defs>
    <g>
     <use style="fill-opacity:0;stroke:#ff7500;stroke-linejoin:bevel;stroke-width:1.5;" x="144.050606" xlink:href="#m766a57d590" y="226.261321"/>
     <use style="fill-opacity:0;stroke:#ff7500;stroke-linejoin:bevel;stroke-width:1.5;" x="155.741666" xlink:href="#m766a57d590" y="34.020902"/>
     <use style="fill-opacity:0;stroke:#ff7500;stroke-linejoin:bevel;stroke-width:1.5;" x="156.646219" xlink:href="#m766a57d590" y="30.334099"/>
     <use style="fill-opacity:0;stroke:#ff7500;stroke-linejoin:bevel;stroke-width:1.5;" x="156.646219" xlink:href="#m766a57d590" y="30.334099"/>
     <use style="fill-opacity:0;stroke:#ff7500;stroke-linejoin:bevel;stroke-width:1.5;" x="156.646219" xlink:href="#m766a57d590" y="30.334099"/>
     <use style="fill-opacity:0;stroke:#ff7500;stroke-linejoin:bevel;stroke-width:1.5;" x="338.688" xlink:href="#m766a57d590" y="30.334099"/>
    </g>
   </g>
   <g id="line2d_53">
    <path style="fill:none;stroke:#ff7500;stroke-linecap:square;stroke-width:1.5;"/>
    <g/>
   </g>
   <g id="line2d_54">
    <path d="M 338.688 30.334099 
L 369.60768 293.571802 
" style="fill:none;stroke:#ff00ff;stroke-linecap:square;stroke-width:1.5;"/>
    <g>
     <use style="fill-opacity:0;stroke:#ff00ff;stroke-linejoin:miter;stroke-width:1.5;" x="338.688" xlink:href="#m47820ece99" y="30.334099"/>
     <use style="fill-opacity:0;stroke:#ff00ff;stroke-linejoin:miter;stroke-width:1.5;" x="369.60768" xlink:href="#m47820ece99" y="293.571802"/>
    </g>
   </g>
   <g id="line2d_55">
    <path d="M 338.688 30.334099 
L 369.60768 190.4256 
" style="fill:none;stroke:#ff0000;stroke-linecap:square;stroke-width:1.5;"/>
    <g>
     <use style="fill-opacity:0;stroke:#ff0000;stroke-linejoin:miter;stroke-width:1.5;" x="338.688" xlink:href="#mf971a15ecf" y="30.334099"/>
     <use style="fill-opacity:0;stroke:#ff0000;stroke-linejoin:miter;stroke-width:1.5;" x="369.60768" xlink:href="#mf971a15ecf" y="190.4256"/>
    </g>
   </g>
   <g id="line2d_56">
    <path d="M 338.688 30.334099 
L 369.60768 138.852499 
" style="fill:none;stroke:#000080;stroke-linecap:square;stroke-width:1.5;"/>
    <g>
     <use style="fill-opacity:0;stroke:#000080;stroke-width:1.5;" x="338.688" xlink:href="#m196a1ad42c" y="30.334099"/>
     <use style="fill-opacity:0;stroke:#000080;stroke-width:1.5;" x="369.60768" xlink:href="#m196a1ad42c" y="138.852499"/>
    </g>
   </g>
   <g id="line2d_57">
    <path d="M 338.688 30.334099 
L 369.60768 87.279398 
" style="fill:none;stroke:#ff7500;stroke-linecap:square;stroke-width:1.5;"/>
    <g>
     <use style="fill-opacity:0;stroke:#ff7500;stroke-linejoin:bevel;stroke-width:1.5;" x="338.688" xlink:href="#m766a57d590" y="30.334099"/>
     <use style="fill-opacity:0;stroke:#ff7500;stroke-linejoin:bevel;stroke-width:1.5;" x="369.60768" xlink:href="#m766a57d590" y="87.279398"/>
    </g>
   </g>
   <g id="line2d_58">
    <path d="M 338.688 30.334099 
L 369.60768 35.706297 
" style="fill:none;stroke:#000080;stroke-linecap:square;stroke-width:1.5;"/>
    <g>
     <use style="fill-opacity:0;stroke:#000080;stroke-width:1.5;" x="338.688" xlink:href="#m196a1ad42c" y="30.334099"/>
     <use style="fill-opacity:0;stroke:#000080;stroke-width:1.5;" x="369.60768" xlink:href="#m196a1ad42c" y="35.706297"/>
    </g>
   </g>
   <g id="line2d_59">
    <path d="M 338.688 298.944 
L 338.688 30.334099 
" style="fill:none;stroke:#000000;stroke-linecap:square;stroke-width:1.5;"/>
   </g>
   <g id="patch_3">
    <path d="M 57.6 298.944 
L 57.6 27.648 
" style="fill:none;stroke:#000000;stroke-linecap:square;stroke-linejoin:miter;stroke-width:0.8;"/>
   </g>
   <g id="patch_4">
    <path d="M 338.688 298.944 
L 338.688 27.648 
" style="fill:none;stroke:#000000;stroke-linecap:square;stroke-linejoin:miter;stroke-width:0.8;"/>
   </g>
   <g id="patch_5">
    <path d="M 57.6 298.944 
L 338.688 298.944 
" style="fill:none;stroke:#000000;stroke-linecap:square;stroke-linejoin:miter;stroke-width:0.8;"/>
   </g>
   <g id="patch_6">
    <path d="M 57.6 27.648 
L 338.688 27.648 
" style="fill:none;stroke:#000000;stroke-linecap:square;stroke-linejoin:miter;stroke-width:0.8;"/>
   </g>
   <g id="text_13">
    <!-- 400s-2e4 -->
    <g transform="translate(375.22944 298.262739)scale(0.17 -0.17)">
     <use xlink:href="#DejaVuSans-52"/>
     <use x="63.623047" xlink:href="#DejaVuSans-48"/>
     <use x="127.246094" xlink:href="#DejaVuSans-48"/>
     <use x="190.869141" xlink:href="#DejaVuSans-115"/>
     <use x="242.96875" xlink:href="#DejaVuSans-45"/>
     <use x="279.052734" xlink:href="#DejaVuSans-50"/>
     <use x="342.675781" xlink:href="#DejaVuSans-101"/>
     <use x="404.199219" xlink:href="#DejaVuSans-52"/>
    </g>
   </g>
   <g id="text_14">
    <!-- best 2009 -->
    <defs>
     <path d="M 48.6875 27.296875 
Q 48.6875 37.203125 44.609375 42.84375 
Q 40.53125 48.484375 33.40625 48.484375 
Q 26.265625 48.484375 22.1875 42.84375 
Q 18.109375 37.203125 18.109375 27.296875 
Q 18.109375 17.390625 22.1875 11.75 
Q 26.265625 6.109375 33.40625 6.109375 
Q 40.53125 6.109375 44.609375 11.75 
Q 48.6875 17.390625 48.6875 27.296875 
z
M 18.109375 46.390625 
Q 20.953125 51.265625 25.265625 53.625 
Q 29.59375 56 35.59375 56 
Q 45.5625 56 51.78125 48.09375 
Q 58.015625 40.1875 58.015625 27.296875 
Q 58.015625 14.40625 51.78125 6.484375 
Q 45.5625 -1.421875 35.59375 -1.421875 
Q 29.59375 -1.421875 25.265625 0.953125 
Q 20.953125 3.328125 18.109375 8.203125 
L 18.109375 0 
L 9.078125 0 
L 9.078125 75.984375 
L 18.109375 75.984375 
z
" id="DejaVuSans-98"/>
     <path d="M 10.984375 1.515625 
L 10.984375 10.5 
Q 14.703125 8.734375 18.5 7.8125 
Q 22.3125 6.890625 25.984375 6.890625 
Q 35.75 6.890625 40.890625 13.453125 
Q 46.046875 20.015625 46.78125 33.40625 
Q 43.953125 29.203125 39.59375 26.953125 
Q 35.25 24.703125 29.984375 24.703125 
Q 19.046875 24.703125 12.671875 31.3125 
Q 6.296875 37.9375 6.296875 49.421875 
Q 6.296875 60.640625 12.9375 67.421875 
Q 19.578125 74.21875 30.609375 74.21875 
Q 43.265625 74.21875 49.921875 64.515625 
Q 56.59375 54.828125 56.59375 36.375 
Q 56.59375 19.140625 48.40625 8.859375 
Q 40.234375 -1.421875 26.421875 -1.421875 
Q 22.703125 -1.421875 18.890625 -0.6875 
Q 15.09375 0.046875 10.984375 1.515625 
z
M 30.609375 32.421875 
Q 37.25 32.421875 41.125 36.953125 
Q 45.015625 41.5 45.015625 49.421875 
Q 45.015625 57.28125 41.125 61.84375 
Q 37.25 66.40625 30.609375 66.40625 
Q 23.96875 66.40625 20.09375 61.84375 
Q 16.21875 57.28125 16.21875 49.421875 
Q 16.21875 41.5 20.09375 36.953125 
Q 23.96875 32.421875 30.609375 32.421875 
z
" id="DejaVuSans-57"/>
    </defs>
    <g transform="translate(375.22944 246.689638)scale(0.17 -0.17)">
     <use xlink:href="#DejaVuSans-98"/>
     <use x="63.476562" xlink:href="#DejaVuSans-101"/>
     <use x="125" xlink:href="#DejaVuSans-115"/>
     <use x="177.099609" xlink:href="#DejaVuSans-116"/>
     <use x="216.308594" xlink:href="#DejaVuSans-32"/>
     <use x="248.095703" xlink:href="#DejaVuSans-50"/>
     <use x="311.71875" xlink:href="#DejaVuSans-48"/>
     <use x="375.341797" xlink:href="#DejaVuSans-48"/>
     <use x="438.964844" xlink:href="#DejaVuSans-57"/>
    </g>
   </g>
   <g id="text_15">
    <!-- 200s-2e4 -->
    <g transform="translate(375.22944 195.116537)scale(0.17 -0.17)">
     <use xlink:href="#DejaVuSans-50"/>
     <use x="63.623047" xlink:href="#DejaVuSans-48"/>
     <use x="127.246094" xlink:href="#DejaVuSans-48"/>
     <use x="190.869141" xlink:href="#DejaVuSans-115"/>
     <use x="242.96875" xlink:href="#DejaVuSans-45"/>
     <use x="279.052734" xlink:href="#DejaVuSans-50"/>
     <use x="342.675781" xlink:href="#DejaVuSans-101"/>
     <use x="404.199219" xlink:href="#DejaVuSans-52"/>
    </g>
   </g>
   <g id="text_16">
    <!-- 100-1e5 -->
    <defs>
     <path d="M 10.796875 72.90625 
L 49.515625 72.90625 
L 49.515625 64.59375 
L 19.828125 64.59375 
L 19.828125 46.734375 
Q 21.96875 47.46875 24.109375 47.828125 
Q 26.265625 48.1875 28.421875 48.1875 
Q 40.625 48.1875 47.75 41.5 
Q 54.890625 34.8125 54.890625 23.390625 
Q 54.890625 11.625 47.5625 5.09375 
Q 40.234375 -1.421875 26.90625 -1.421875 
Q 22.3125 -1.421875 17.546875 -0.640625 
Q 12.796875 0.140625 7.71875 1.703125 
L 7.71875 11.625 
Q 12.109375 9.234375 16.796875 8.0625 
Q 21.484375 6.890625 26.703125 6.890625 
Q 35.15625 6.890625 40.078125 11.328125 
Q 45.015625 15.765625 45.015625 23.390625 
Q 45.015625 31 40.078125 35.4375 
Q 35.15625 39.890625 26.703125 39.890625 
Q 22.75 39.890625 18.8125 39.015625 
Q 14.890625 38.140625 10.796875 36.28125 
z
" id="DejaVuSans-53"/>
    </defs>
    <g transform="translate(375.22944 143.543437)scale(0.17 -0.17)">
     <use xlink:href="#DejaVuSans-49"/>
     <use x="63.623047" xlink:href="#DejaVuSans-48"/>
     <use x="127.246094" xlink:href="#DejaVuSans-48"/>
     <use x="190.869141" xlink:href="#DejaVuSans-45"/>
     <use x="226.953125" xlink:href="#DejaVuSans-49"/>
     <use x="290.576172" xlink:href="#DejaVuSans-101"/>
     <use x="352.099609" xlink:href="#DejaVuSans-53"/>
    </g>
   </g>
   <g id="text_17">
    <!-- 140s-2e4 -->
    <g transform="translate(375.22944 91.970336)scale(0.17 -0.17)">
     <use xlink:href="#DejaVuSans-49"/>
     <use x="63.623047" xlink:href="#DejaVuSans-52"/>
     <use x="127.246094" xlink:href="#DejaVuSans-48"/>
     <use x="190.869141" xlink:href="#DejaVuSans-115"/>
     <use x="242.96875" xlink:href="#DejaVuSans-45"/>
     <use x="279.052734" xlink:href="#DejaVuSans-50"/>
     <use x="342.675781" xlink:href="#DejaVuSans-101"/>
     <use x="404.199219" xlink:href="#DejaVuSans-52"/>
    </g>
   </g>
   <g id="text_18">
    <!-- 100-2e4 -->
    <g transform="translate(375.22944 40.397235)scale(0.17 -0.17)">
     <use xlink:href="#DejaVuSans-49"/>
     <use x="63.623047" xlink:href="#DejaVuSans-48"/>
     <use x="127.246094" xlink:href="#DejaVuSans-48"/>
     <use x="190.869141" xlink:href="#DejaVuSans-45"/>
     <use x="226.953125" xlink:href="#DejaVuSans-50"/>
     <use x="290.576172" xlink:href="#DejaVuSans-101"/>
     <use x="352.099609" xlink:href="#DejaVuSans-52"/>
    </g>
   </g>
   <g id="text_19">
    <!-- bbob f11, 5-D -->
    <defs>
     <path d="M 19.671875 64.796875 
L 19.671875 8.109375 
L 31.59375 8.109375 
Q 46.6875 8.109375 53.6875 14.9375 
Q 60.6875 21.78125 60.6875 36.53125 
Q 60.6875 51.171875 53.6875 57.984375 
Q 46.6875 64.796875 31.59375 64.796875 
z
M 9.8125 72.90625 
L 30.078125 72.90625 
Q 51.265625 72.90625 61.171875 64.09375 
Q 71.09375 55.28125 71.09375 36.53125 
Q 71.09375 17.671875 61.125 8.828125 
Q 51.171875 0 30.078125 0 
L 9.8125 0 
z
" id="DejaVuSans-68"/>
    </defs>
    <g transform="translate(60.41088 38.111366)scale(0.102 -0.102)">
     <use xlink:href="#DejaVuSans-98"/>
     <use x="63.476562" xlink:href="#DejaVuSans-98"/>
     <use x="126.953125" xlink:href="#DejaVuSans-111"/>
     <use x="188.134766" xlink:href="#DejaVuSans-98"/>
     <use x="251.611328" xlink:href="#DejaVuSans-32"/>
     <use x="283.398438" xlink:href="#DejaVuSans-102"/>
     <use x="318.603516" xlink:href="#DejaVuSans-49"/>
     <use x="382.226562" xlink:href="#DejaVuSans-49"/>
     <use x="445.849609" xlink:href="#DejaVuSans-44"/>
     <use x="477.636719" xlink:href="#DejaVuSans-32"/>
     <use x="509.423828" xlink:href="#DejaVuSans-53"/>
     <use x="573.046875" xlink:href="#DejaVuSans-45"/>
     <use x="609.130859" xlink:href="#DejaVuSans-68"/>
    </g>
    <!-- 51 targets: 100..1e-08 -->
    <defs>
     <path d="M 11.71875 12.40625 
L 22.015625 12.40625 
L 22.015625 0 
L 11.71875 0 
z
M 11.71875 51.703125 
L 22.015625 51.703125 
L 22.015625 39.3125 
L 11.71875 39.3125 
z
" id="DejaVuSans-58"/>
    </defs>
    <g transform="translate(60.41088 49.533135)scale(0.102 -0.102)">
     <use xlink:href="#DejaVuSans-53"/>
     <use x="63.623047" xlink:href="#DejaVuSans-49"/>
     <use x="127.246094" xlink:href="#DejaVuSans-32"/>
     <use x="159.033203" xlink:href="#DejaVuSans-116"/>
     <use x="198.242188" xlink:href="#DejaVuSans-97"/>
     <use x="259.521484" xlink:href="#DejaVuSans-114"/>
     <use x="300.619141" xlink:href="#DejaVuSans-103"/>
     <use x="364.095703" xlink:href="#DejaVuSans-101"/>
     <use x="425.619141" xlink:href="#DejaVuSans-116"/>
     <use x="464.828125" xlink:href="#DejaVuSans-115"/>
     <use x="516.927734" xlink:href="#DejaVuSans-58"/>
     <use x="550.619141" xlink:href="#DejaVuSans-32"/>
     <use x="582.40625" xlink:href="#DejaVuSans-49"/>
     <use x="646.029297" xlink:href="#DejaVuSans-48"/>
     <use x="709.652344" xlink:href="#DejaVuSans-48"/>
     <use x="773.275391" xlink:href="#DejaVuSans-46"/>
     <use x="805.0625" xlink:href="#DejaVuSans-46"/>
     <use x="836.849609" xlink:href="#DejaVuSans-49"/>
     <use x="900.472656" xlink:href="#DejaVuSans-101"/>
     <use x="961.996094" xlink:href="#DejaVuSans-45"/>
     <use x="998.080078" xlink:href="#DejaVuSans-48"/>
     <use x="1061.703125" xlink:href="#DejaVuSans-56"/>
    </g>
    <!-- 15 instances -->
    <g transform="translate(60.41088 60.954904)scale(0.102 -0.102)">
     <use xlink:href="#DejaVuSans-49"/>
     <use x="63.623047" xlink:href="#DejaVuSans-53"/>
     <use x="127.246094" xlink:href="#DejaVuSans-32"/>
     <use x="159.033203" xlink:href="#DejaVuSans-105"/>
     <use x="186.816406" xlink:href="#DejaVuSans-110"/>
     <use x="250.195312" xlink:href="#DejaVuSans-115"/>
     <use x="302.294922" xlink:href="#DejaVuSans-116"/>
     <use x="341.503906" xlink:href="#DejaVuSans-97"/>
     <use x="402.783203" xlink:href="#DejaVuSans-110"/>
     <use x="466.162109" xlink:href="#DejaVuSans-99"/>
     <use x="521.142578" xlink:href="#DejaVuSans-101"/>
     <use x="582.666016" xlink:href="#DejaVuSans-115"/>
    </g>
   </g>
   <g id="text_20">
    <!-- v2.3.3.18.73 -->
    <defs>
     <path d="M 40.578125 39.3125 
Q 47.65625 37.796875 51.625 33 
Q 55.609375 28.21875 55.609375 21.1875 
Q 55.609375 10.40625 48.1875 4.484375 
Q 40.765625 -1.421875 27.09375 -1.421875 
Q 22.515625 -1.421875 17.65625 -0.515625 
Q 12.796875 0.390625 7.625 2.203125 
L 7.625 11.71875 
Q 11.71875 9.328125 16.59375 8.109375 
Q 21.484375 6.890625 26.8125 6.890625 
Q 36.078125 6.890625 40.9375 10.546875 
Q 45.796875 14.203125 45.796875 21.1875 
Q 45.796875 27.640625 41.28125 31.265625 
Q 36.765625 34.90625 28.71875 34.90625 
L 20.21875 34.90625 
L 20.21875 43.015625 
L 29.109375 43.015625 
Q 36.375 43.015625 40.234375 45.921875 
Q 44.09375 48.828125 44.09375 54.296875 
Q 44.09375 59.90625 40.109375 62.90625 
Q 36.140625 65.921875 28.71875 65.921875 
Q 24.65625 65.921875 20.015625 65.03125 
Q 15.375 64.15625 9.8125 62.3125 
L 9.8125 71.09375 
Q 15.4375 72.65625 20.34375 73.4375 
Q 25.25 74.21875 29.59375 74.21875 
Q 40.828125 74.21875 47.359375 69.109375 
Q 53.90625 64.015625 53.90625 55.328125 
Q 53.90625 49.265625 50.4375 45.09375 
Q 46.96875 40.921875 40.578125 39.3125 
z
" id="DejaVuSans-51"/>
     <path d="M 8.203125 72.90625 
L 55.078125 72.90625 
L 55.078125 68.703125 
L 28.609375 0 
L 18.3125 0 
L 43.21875 64.59375 
L 8.203125 64.59375 
z
" id="DejaVuSans-55"/>
    </defs>
    <g style="fill:#808080;" transform="translate(166.559625 294.151352)scale(0.1 -0.1)">
     <use xlink:href="#DejaVuSans-118"/>
     <use x="59.179688" xlink:href="#DejaVuSans-50"/>
     <use x="122.802734" xlink:href="#DejaVuSans-46"/>
     <use x="154.589844" xlink:href="#DejaVuSans-51"/>
     <use x="218.212891" xlink:href="#DejaVuSans-46"/>
     <use x="250" xlink:href="#DejaVuSans-51"/>
     <use x="313.623047" xlink:href="#DejaVuSans-46"/>
     <use x="345.410156" xlink:href="#DejaVuSans-49"/>
     <use x="409.033203" xlink:href="#DejaVuSans-56"/>
     <use x="472.65625" xlink:href="#DejaVuSans-46"/>
     <use x="504.443359" xlink:href="#DejaVuSans-55"/>
     <use x="568.066406" xlink:href="#DejaVuSans-51"/>
    </g>
   </g>
   <g id="text_21">
    <!-- 11 Discus -->
    <g transform="translate(149.508062 21.648)scale(0.2 -0.2)">
     <use xlink:href="#DejaVuSans-49"/>
     <use x="63.623047" xlink:href="#DejaVuSans-49"/>
     <use x="127.246094" xlink:href="#DejaVuSans-32"/>
     <use x="159.033203" xlink:href="#DejaVuSans-68"/>
     <use x="236.035156" xlink:href="#DejaVuSans-105"/>
     <use x="263.818359" xlink:href="#DejaVuSans-115"/>
     <use x="315.917969" xlink:href="#DejaVuSans-99"/>
     <use x="370.898438" xlink:href="#DejaVuSans-117"/>
     <use x="434.277344" xlink:href="#DejaVuSans-115"/>
    </g>
   </g>
  </g>
 </g>
 <defs>
  <clipPath id="pd592070c79">
   <rect height="271.296" width="281.088" x="57.6" y="27.648"/>
  </clipPath>
 </defs>
</svg>
