<?xml version="1.0" encoding="utf-8" standalone="no"?>
<!DOCTYPE svg PUBLIC "-//W3C//DTD SVG 1.1//EN"
  "http://www.w3.org/Graphics/SVG/1.1/DTD/svg11.dtd">
<!-- Created with matplotlib (https://matplotlib.org/) -->
<svg height="345.6pt" version="1.1" viewBox="0 0 460.8 345.6" width="460.8pt" xmlns="http://www.w3.org/2000/svg" xmlns:xlink="http://www.w3.org/1999/xlink">
 <defs>
  <style type="text/css">
*{stroke-linecap:butt;stroke-linejoin:round;}
  </style>
 </defs>
 <g id="figure_1">
  <g id="patch_1">
   <path d="M 0 345.6 
L 460.8 345.6 
L 460.8 0 
L 0 0 
z
" style="fill:#ffffff;"/>
  </g>
  <g id="axes_1">
   <g id="patch_2">
    <path d="M 57.6 298.944 
L 338.688 298.944 
L 338.688 27.648 
L 57.6 27.648 
z
" style="fill:#ffffff;"/>
   </g>
   <g id="line2d_1">
    <path d="M 29.53256 298.944 
L 29.53256 225.207949 
L 119.301163 225.207949 
L 119.301163 219.941088 
L 125.255688 219.941088 
L 125.255688 214.674227 
L 143.144465 214.674227 
L 143.144465 209.407366 
L 169.605481 209.407366 
L 169.605481 204.140506 
L 177.876917 204.140506 
L 177.876917 198.873645 
L 186.971927 198.873645 
L 186.971927 193.606784 
L 231.136968 193.606784 
L 231.136968 188.339923 
L 233.471375 188.339923 
L 233.471375 183.073062 
L 233.490858 183.073062 
L 233.490858 177.806202 
L 233.509013 177.806202 
L 233.509013 172.539341 
L 233.535992 172.539341 
L 233.535992 167.27248 
L 233.552797 167.27248 
L 233.552797 162.005619 
L 233.56322 162.005619 
L 233.56322 156.738758 
L 233.578263 156.738758 
L 233.578263 151.471897 
L 233.584624 151.471897 
L 233.584624 146.205037 
L 233.593438 146.205037 
L 233.593438 140.938176 
L 233.611342 140.938176 
L 233.611342 135.671315 
L 233.623316 135.671315 
L 233.623316 130.404454 
L 233.633697 130.404454 
L 233.633697 125.137593 
L 233.638596 125.137593 
L 233.638596 119.870733 
L 233.647239 119.870733 
L 233.647239 114.603872 
L 233.655015 114.603872 
L 233.655015 109.337011 
L 233.662498 109.337011 
L 233.662498 104.07015 
L 233.683494 104.07015 
L 233.683494 98.803289 
L 233.695562 98.803289 
L 233.695562 93.536429 
L 233.701306 93.536429 
L 233.701306 88.269568 
L 233.708196 88.269568 
L 233.708196 83.002707 
L 233.719673 83.002707 
L 233.719673 77.735846 
L 233.735729 77.735846 
L 233.735729 72.468985 
L 233.752485 72.468985 
L 233.752485 67.202125 
L 233.765793 67.202125 
L 233.765793 61.935264 
L 233.780092 61.935264 
L 233.780092 56.668403 
L 233.791093 56.668403 
L 233.791093 51.401542 
L 233.800803 51.401542 
L 233.800803 46.134681 
L 233.811649 46.134681 
L 233.811649 40.867821 
L 233.824769 40.867821 
L 233.824769 35.60096 
L 233.834746 35.60096 
L 233.834746 30.334099 
L 338.688 30.334099 
" style="fill:none;stroke:#f5deb3;stroke-linecap:square;stroke-width:4;"/>
   </g>
   <g id="line2d_2">
    <defs>
     <path d="M -0 7.778175 
L 7.778175 0 
L 0 -7.778175 
L -7.778175 -0 
z
" id="m0560f3ba59" style="stroke:#f5deb3;stroke-linejoin:miter;stroke-width:1.5;"/>
    </defs>
    <g>
     <use style="fill:#f5deb3;stroke:#f5deb3;stroke-linejoin:miter;stroke-width:1.5;" x="186.971927" xlink:href="#m0560f3ba59" y="198.873645"/>
     <use style="fill:#f5deb3;stroke:#f5deb3;stroke-linejoin:miter;stroke-width:1.5;" x="233.655015" xlink:href="#m0560f3ba59" y="114.603872"/>
     <use style="fill:#f5deb3;stroke:#f5deb3;stroke-linejoin:miter;stroke-width:1.5;" x="233.834746" xlink:href="#m0560f3ba59" y="30.334099"/>
     <use style="fill:#f5deb3;stroke:#f5deb3;stroke-linejoin:miter;stroke-width:1.5;" x="233.834746" xlink:href="#m0560f3ba59" y="30.334099"/>
     <use style="fill:#f5deb3;stroke:#f5deb3;stroke-linejoin:miter;stroke-width:1.5;" x="338.688" xlink:href="#m0560f3ba59" y="30.334099"/>
    </g>
   </g>
   <g id="line2d_3">
    <path style="fill:none;stroke:#f5deb3;stroke-linecap:square;stroke-width:4;"/>
    <g/>
   </g>
   <g id="line2d_4">
    <path d="M 338.688 30.334099 
L 369.60768 35.706297 
" style="fill:none;stroke:#f5deb3;stroke-linecap:square;stroke-width:4;"/>
    <g>
     <use style="fill:#f5deb3;stroke:#f5deb3;stroke-linejoin:miter;stroke-width:1.5;" x="338.688" xlink:href="#m0560f3ba59" y="30.334099"/>
     <use style="fill:#f5deb3;stroke:#f5deb3;stroke-linejoin:miter;stroke-width:1.5;" x="369.60768" xlink:href="#m0560f3ba59" y="35.706297"/>
    </g>
   </g>
   <g id="matplotlib.axis_1">
    <g id="xtick_1">
     <g id="line2d_5">
      <path clip-path="url(#p702cabd113)" d="M 57.6 298.944 
L 57.6 27.648 
" style="fill:none;stroke:#b0b0b0;stroke-linecap:square;stroke-width:0.8;"/>
     </g>
     <g id="line2d_6">
      <defs>
       <path d="M 0 0 
L 0 3.5 
" id="m2bdbfc8b34" style="stroke:#000000;stroke-width:0.8;"/>
      </defs>
      <g>
       <use style="stroke:#000000;stroke-width:0.8;" x="57.6" xlink:href="#m2bdbfc8b34" y="298.944"/>
      </g>
     </g>
     <g id="text_1">
      <!-- 0 -->
      <defs>
       <path d="M 31.78125 66.40625 
Q 24.171875 66.40625 20.328125 58.90625 
Q 16.5 51.421875 16.5 36.375 
Q 16.5 21.390625 20.328125 13.890625 
Q 24.171875 6.390625 31.78125 6.390625 
Q 39.453125 6.390625 43.28125 13.890625 
Q 47.125 21.390625 47.125 36.375 
Q 47.125 51.421875 43.28125 58.90625 
Q 39.453125 66.40625 31.78125 66.40625 
z
M 31.78125 74.21875 
Q 44.046875 74.21875 50.515625 64.515625 
Q 56.984375 54.828125 56.984375 36.375 
Q 56.984375 17.96875 50.515625 8.265625 
Q 44.046875 -1.421875 31.78125 -1.421875 
Q 19.53125 -1.421875 13.0625 8.265625 
Q 6.59375 17.96875 6.59375 36.375 
Q 6.59375 54.828125 13.0625 64.515625 
Q 19.53125 74.21875 31.78125 74.21875 
z
" id="DejaVuSans-48"/>
      </defs>
      <g transform="translate(51.2375 321.140875)scale(0.2 -0.2)">
       <use xlink:href="#DejaVuSans-48"/>
      </g>
     </g>
    </g>
    <g id="xtick_2">
     <g id="line2d_7">
      <path clip-path="url(#p702cabd113)" d="M 137.910857 298.944 
L 137.910857 27.648 
" style="fill:none;stroke:#b0b0b0;stroke-linecap:square;stroke-width:0.8;"/>
     </g>
     <g id="line2d_8">
      <g>
       <use style="stroke:#000000;stroke-width:0.8;" x="137.910857" xlink:href="#m2bdbfc8b34" y="298.944"/>
      </g>
     </g>
     <g id="text_2">
      <!-- 2 -->
      <defs>
       <path d="M 19.1875 8.296875 
L 53.609375 8.296875 
L 53.609375 0 
L 7.328125 0 
L 7.328125 8.296875 
Q 12.9375 14.109375 22.625 23.890625 
Q 32.328125 33.6875 34.8125 36.53125 
Q 39.546875 41.84375 41.421875 45.53125 
Q 43.3125 49.21875 43.3125 52.78125 
Q 43.3125 58.59375 39.234375 62.25 
Q 35.15625 65.921875 28.609375 65.921875 
Q 23.96875 65.921875 18.8125 64.3125 
Q 13.671875 62.703125 7.8125 59.421875 
L 7.8125 69.390625 
Q 13.765625 71.78125 18.9375 73 
Q 24.125 74.21875 28.421875 74.21875 
Q 39.75 74.21875 46.484375 68.546875 
Q 53.21875 62.890625 53.21875 53.421875 
Q 53.21875 48.921875 51.53125 44.890625 
Q 49.859375 40.875 45.40625 35.40625 
Q 44.1875 33.984375 37.640625 27.21875 
Q 31.109375 20.453125 19.1875 8.296875 
z
" id="DejaVuSans-50"/>
      </defs>
      <g transform="translate(131.548357 321.140875)scale(0.2 -0.2)">
       <use xlink:href="#DejaVuSans-50"/>
      </g>
     </g>
    </g>
    <g id="xtick_3">
     <g id="line2d_9">
      <path clip-path="url(#p702cabd113)" d="M 218.221714 298.944 
L 218.221714 27.648 
" style="fill:none;stroke:#b0b0b0;stroke-linecap:square;stroke-width:0.8;"/>
     </g>
     <g id="line2d_10">
      <g>
       <use style="stroke:#000000;stroke-width:0.8;" x="218.221714" xlink:href="#m2bdbfc8b34" y="298.944"/>
      </g>
     </g>
     <g id="text_3">
      <!-- 4 -->
      <defs>
       <path d="M 37.796875 64.3125 
L 12.890625 25.390625 
L 37.796875 25.390625 
z
M 35.203125 72.90625 
L 47.609375 72.90625 
L 47.609375 25.390625 
L 58.015625 25.390625 
L 58.015625 17.1875 
L 47.609375 17.1875 
L 47.609375 0 
L 37.796875 0 
L 37.796875 17.1875 
L 4.890625 17.1875 
L 4.890625 26.703125 
z
" id="DejaVuSans-52"/>
      </defs>
      <g transform="translate(211.859214 321.140875)scale(0.2 -0.2)">
       <use xlink:href="#DejaVuSans-52"/>
      </g>
     </g>
    </g>
    <g id="xtick_4">
     <g id="line2d_11">
      <path clip-path="url(#p702cabd113)" d="M 298.532571 298.944 
L 298.532571 27.648 
" style="fill:none;stroke:#b0b0b0;stroke-linecap:square;stroke-width:0.8;"/>
     </g>
     <g id="line2d_12">
      <g>
       <use style="stroke:#000000;stroke-width:0.8;" x="298.532571" xlink:href="#m2bdbfc8b34" y="298.944"/>
      </g>
     </g>
     <g id="text_4">
      <!-- 6 -->
      <defs>
       <path d="M 33.015625 40.375 
Q 26.375 40.375 22.484375 35.828125 
Q 18.609375 31.296875 18.609375 23.390625 
Q 18.609375 15.53125 22.484375 10.953125 
Q 26.375 6.390625 33.015625 6.390625 
Q 39.65625 6.390625 43.53125 10.953125 
Q 47.40625 15.53125 47.40625 23.390625 
Q 47.40625 31.296875 43.53125 35.828125 
Q 39.65625 40.375 33.015625 40.375 
z
M 52.59375 71.296875 
L 52.59375 62.3125 
Q 48.875 64.0625 45.09375 64.984375 
Q 41.3125 65.921875 37.59375 65.921875 
Q 27.828125 65.921875 22.671875 59.328125 
Q 17.53125 52.734375 16.796875 39.40625 
Q 19.671875 43.65625 24.015625 45.921875 
Q 28.375 48.1875 33.59375 48.1875 
Q 44.578125 48.1875 50.953125 41.515625 
Q 57.328125 34.859375 57.328125 23.390625 
Q 57.328125 12.15625 50.6875 5.359375 
Q 44.046875 -1.421875 33.015625 -1.421875 
Q 20.359375 -1.421875 13.671875 8.265625 
Q 6.984375 17.96875 6.984375 36.375 
Q 6.984375 53.65625 15.1875 63.9375 
Q 23.390625 74.21875 37.203125 74.21875 
Q 40.921875 74.21875 44.703125 73.484375 
Q 48.484375 72.75 52.59375 71.296875 
z
" id="DejaVuSans-54"/>
      </defs>
      <g transform="translate(292.170071 321.140875)scale(0.2 -0.2)">
       <use xlink:href="#DejaVuSans-54"/>
      </g>
     </g>
    </g>
    <g id="xtick_5">
     <g id="line2d_13">
      <path clip-path="url(#p702cabd113)" d="M 97.755429 298.944 
L 97.755429 27.648 
" style="fill:none;stroke:#b0b0b0;stroke-linecap:square;stroke-width:0.8;"/>
     </g>
     <g id="line2d_14">
      <defs>
       <path d="M 0 0 
L 0 2 
" id="mce6ac13960" style="stroke:#000000;stroke-width:0.6;"/>
      </defs>
      <g>
       <use style="stroke:#000000;stroke-width:0.6;" x="97.755429" xlink:href="#mce6ac13960" y="298.944"/>
      </g>
     </g>
    </g>
    <g id="xtick_6">
     <g id="line2d_15">
      <path clip-path="url(#p702cabd113)" d="M 178.066286 298.944 
L 178.066286 27.648 
" style="fill:none;stroke:#b0b0b0;stroke-linecap:square;stroke-width:0.8;"/>
     </g>
     <g id="line2d_16">
      <g>
       <use style="stroke:#000000;stroke-width:0.6;" x="178.066286" xlink:href="#mce6ac13960" y="298.944"/>
      </g>
     </g>
    </g>
    <g id="xtick_7">
     <g id="line2d_17">
      <path clip-path="url(#p702cabd113)" d="M 258.377143 298.944 
L 258.377143 27.648 
" style="fill:none;stroke:#b0b0b0;stroke-linecap:square;stroke-width:0.8;"/>
     </g>
     <g id="line2d_18">
      <g>
       <use style="stroke:#000000;stroke-width:0.6;" x="258.377143" xlink:href="#mce6ac13960" y="298.944"/>
      </g>
     </g>
    </g>
    <g id="xtick_8">
     <g id="line2d_19">
      <path clip-path="url(#p702cabd113)" d="M 338.688 298.944 
L 338.688 27.648 
" style="fill:none;stroke:#b0b0b0;stroke-linecap:square;stroke-width:0.8;"/>
     </g>
     <g id="line2d_20">
      <g>
       <use style="stroke:#000000;stroke-width:0.6;" x="338.688" xlink:href="#mce6ac13960" y="298.944"/>
      </g>
     </g>
    </g>
    <g id="text_5">
     <!-- log10(# f-evals / dimension) -->
     <defs>
      <path d="M 9.421875 75.984375 
L 18.40625 75.984375 
L 18.40625 0 
L 9.421875 0 
z
" id="DejaVuSans-108"/>
      <path d="M 30.609375 48.390625 
Q 23.390625 48.390625 19.1875 42.75 
Q 14.984375 37.109375 14.984375 27.296875 
Q 14.984375 17.484375 19.15625 11.84375 
Q 23.34375 6.203125 30.609375 6.203125 
Q 37.796875 6.203125 41.984375 11.859375 
Q 46.1875 17.53125 46.1875 27.296875 
Q 46.1875 37.015625 41.984375 42.703125 
Q 37.796875 48.390625 30.609375 48.390625 
z
M 30.609375 56 
Q 42.328125 56 49.015625 48.375 
Q 55.71875 40.765625 55.71875 27.296875 
Q 55.71875 13.875 49.015625 6.21875 
Q 42.328125 -1.421875 30.609375 -1.421875 
Q 18.84375 -1.421875 12.171875 6.21875 
Q 5.515625 13.875 5.515625 27.296875 
Q 5.515625 40.765625 12.171875 48.375 
Q 18.84375 56 30.609375 56 
z
" id="DejaVuSans-111"/>
      <path d="M 45.40625 27.984375 
Q 45.40625 37.75 41.375 43.109375 
Q 37.359375 48.484375 30.078125 48.484375 
Q 22.859375 48.484375 18.828125 43.109375 
Q 14.796875 37.75 14.796875 27.984375 
Q 14.796875 18.265625 18.828125 12.890625 
Q 22.859375 7.515625 30.078125 7.515625 
Q 37.359375 7.515625 41.375 12.890625 
Q 45.40625 18.265625 45.40625 27.984375 
z
M 54.390625 6.78125 
Q 54.390625 -7.171875 48.1875 -13.984375 
Q 42 -20.796875 29.203125 -20.796875 
Q 24.46875 -20.796875 20.265625 -20.09375 
Q 16.0625 -19.390625 12.109375 -17.921875 
L 12.109375 -9.1875 
Q 16.0625 -11.328125 19.921875 -12.34375 
Q 23.78125 -13.375 27.78125 -13.375 
Q 36.625 -13.375 41.015625 -8.765625 
Q 45.40625 -4.15625 45.40625 5.171875 
L 45.40625 9.625 
Q 42.625 4.78125 38.28125 2.390625 
Q 33.9375 0 27.875 0 
Q 17.828125 0 11.671875 7.65625 
Q 5.515625 15.328125 5.515625 27.984375 
Q 5.515625 40.671875 11.671875 48.328125 
Q 17.828125 56 27.875 56 
Q 33.9375 56 38.28125 53.609375 
Q 42.625 51.21875 45.40625 46.390625 
L 45.40625 54.6875 
L 54.390625 54.6875 
z
" id="DejaVuSans-103"/>
      <path d="M 12.40625 8.296875 
L 28.515625 8.296875 
L 28.515625 63.921875 
L 10.984375 60.40625 
L 10.984375 69.390625 
L 28.421875 72.90625 
L 38.28125 72.90625 
L 38.28125 8.296875 
L 54.390625 8.296875 
L 54.390625 0 
L 12.40625 0 
z
" id="DejaVuSans-49"/>
      <path d="M 31 75.875 
Q 24.46875 64.65625 21.28125 53.65625 
Q 18.109375 42.671875 18.109375 31.390625 
Q 18.109375 20.125 21.3125 9.0625 
Q 24.515625 -2 31 -13.1875 
L 23.1875 -13.1875 
Q 15.875 -1.703125 12.234375 9.375 
Q 8.59375 20.453125 8.59375 31.390625 
Q 8.59375 42.28125 12.203125 53.3125 
Q 15.828125 64.359375 23.1875 75.875 
z
" id="DejaVuSans-40"/>
      <path d="M 51.125 44 
L 36.921875 44 
L 32.8125 27.6875 
L 47.125 27.6875 
z
M 43.796875 71.78125 
L 38.71875 51.515625 
L 52.984375 51.515625 
L 58.109375 71.78125 
L 65.921875 71.78125 
L 60.890625 51.515625 
L 76.125 51.515625 
L 76.125 44 
L 58.984375 44 
L 54.984375 27.6875 
L 70.515625 27.6875 
L 70.515625 20.21875 
L 53.078125 20.21875 
L 48 0 
L 40.1875 0 
L 45.21875 20.21875 
L 30.90625 20.21875 
L 25.875 0 
L 18.015625 0 
L 23.09375 20.21875 
L 7.71875 20.21875 
L 7.71875 27.6875 
L 24.90625 27.6875 
L 29 44 
L 13.28125 44 
L 13.28125 51.515625 
L 30.90625 51.515625 
L 35.890625 71.78125 
z
" id="DejaVuSans-35"/>
      <path id="DejaVuSans-32"/>
      <path d="M 37.109375 75.984375 
L 37.109375 68.5 
L 28.515625 68.5 
Q 23.6875 68.5 21.796875 66.546875 
Q 19.921875 64.59375 19.921875 59.515625 
L 19.921875 54.6875 
L 34.71875 54.6875 
L 34.71875 47.703125 
L 19.921875 47.703125 
L 19.921875 0 
L 10.890625 0 
L 10.890625 47.703125 
L 2.296875 47.703125 
L 2.296875 54.6875 
L 10.890625 54.6875 
L 10.890625 58.5 
Q 10.890625 67.625 15.140625 71.796875 
Q 19.390625 75.984375 28.609375 75.984375 
z
" id="DejaVuSans-102"/>
      <path d="M 4.890625 31.390625 
L 31.203125 31.390625 
L 31.203125 23.390625 
L 4.890625 23.390625 
z
" id="DejaVuSans-45"/>
      <path d="M 56.203125 29.59375 
L 56.203125 25.203125 
L 14.890625 25.203125 
Q 15.484375 15.921875 20.484375 11.0625 
Q 25.484375 6.203125 34.421875 6.203125 
Q 39.59375 6.203125 44.453125 7.46875 
Q 49.3125 8.734375 54.109375 11.28125 
L 54.109375 2.78125 
Q 49.265625 0.734375 44.1875 -0.34375 
Q 39.109375 -1.421875 33.890625 -1.421875 
Q 20.796875 -1.421875 13.15625 6.1875 
Q 5.515625 13.8125 5.515625 26.8125 
Q 5.515625 40.234375 12.765625 48.109375 
Q 20.015625 56 32.328125 56 
Q 43.359375 56 49.78125 48.890625 
Q 56.203125 41.796875 56.203125 29.59375 
z
M 47.21875 32.234375 
Q 47.125 39.59375 43.09375 43.984375 
Q 39.0625 48.390625 32.421875 48.390625 
Q 24.90625 48.390625 20.390625 44.140625 
Q 15.875 39.890625 15.1875 32.171875 
z
" id="DejaVuSans-101"/>
      <path d="M 2.984375 54.6875 
L 12.5 54.6875 
L 29.59375 8.796875 
L 46.6875 54.6875 
L 56.203125 54.6875 
L 35.6875 0 
L 23.484375 0 
z
" id="DejaVuSans-118"/>
      <path d="M 34.28125 27.484375 
Q 23.390625 27.484375 19.1875 25 
Q 14.984375 22.515625 14.984375 16.5 
Q 14.984375 11.71875 18.140625 8.90625 
Q 21.296875 6.109375 26.703125 6.109375 
Q 34.1875 6.109375 38.703125 11.40625 
Q 43.21875 16.703125 43.21875 25.484375 
L 43.21875 27.484375 
z
M 52.203125 31.203125 
L 52.203125 0 
L 43.21875 0 
L 43.21875 8.296875 
Q 40.140625 3.328125 35.546875 0.953125 
Q 30.953125 -1.421875 24.3125 -1.421875 
Q 15.921875 -1.421875 10.953125 3.296875 
Q 6 8.015625 6 15.921875 
Q 6 25.140625 12.171875 29.828125 
Q 18.359375 34.515625 30.609375 34.515625 
L 43.21875 34.515625 
L 43.21875 35.40625 
Q 43.21875 41.609375 39.140625 45 
Q 35.0625 48.390625 27.6875 48.390625 
Q 23 48.390625 18.546875 47.265625 
Q 14.109375 46.140625 10.015625 43.890625 
L 10.015625 52.203125 
Q 14.9375 54.109375 19.578125 55.046875 
Q 24.21875 56 28.609375 56 
Q 40.484375 56 46.34375 49.84375 
Q 52.203125 43.703125 52.203125 31.203125 
z
" id="DejaVuSans-97"/>
      <path d="M 44.28125 53.078125 
L 44.28125 44.578125 
Q 40.484375 46.53125 36.375 47.5 
Q 32.28125 48.484375 27.875 48.484375 
Q 21.1875 48.484375 17.84375 46.4375 
Q 14.5 44.390625 14.5 40.28125 
Q 14.5 37.15625 16.890625 35.375 
Q 19.28125 33.59375 26.515625 31.984375 
L 29.59375 31.296875 
Q 39.15625 29.25 43.1875 25.515625 
Q 47.21875 21.78125 47.21875 15.09375 
Q 47.21875 7.46875 41.1875 3.015625 
Q 35.15625 -1.421875 24.609375 -1.421875 
Q 20.21875 -1.421875 15.453125 -0.5625 
Q 10.6875 0.296875 5.421875 2 
L 5.421875 11.28125 
Q 10.40625 8.6875 15.234375 7.390625 
Q 20.0625 6.109375 24.8125 6.109375 
Q 31.15625 6.109375 34.5625 8.28125 
Q 37.984375 10.453125 37.984375 14.40625 
Q 37.984375 18.0625 35.515625 20.015625 
Q 33.0625 21.96875 24.703125 23.78125 
L 21.578125 24.515625 
Q 13.234375 26.265625 9.515625 29.90625 
Q 5.8125 33.546875 5.8125 39.890625 
Q 5.8125 47.609375 11.28125 51.796875 
Q 16.75 56 26.8125 56 
Q 31.78125 56 36.171875 55.265625 
Q 40.578125 54.546875 44.28125 53.078125 
z
" id="DejaVuSans-115"/>
      <path d="M 25.390625 72.90625 
L 33.6875 72.90625 
L 8.296875 -9.28125 
L 0 -9.28125 
z
" id="DejaVuSans-47"/>
      <path d="M 45.40625 46.390625 
L 45.40625 75.984375 
L 54.390625 75.984375 
L 54.390625 0 
L 45.40625 0 
L 45.40625 8.203125 
Q 42.578125 3.328125 38.25 0.953125 
Q 33.9375 -1.421875 27.875 -1.421875 
Q 17.96875 -1.421875 11.734375 6.484375 
Q 5.515625 14.40625 5.515625 27.296875 
Q 5.515625 40.1875 11.734375 48.09375 
Q 17.96875 56 27.875 56 
Q 33.9375 56 38.25 53.625 
Q 42.578125 51.265625 45.40625 46.390625 
z
M 14.796875 27.296875 
Q 14.796875 17.390625 18.875 11.75 
Q 22.953125 6.109375 30.078125 6.109375 
Q 37.203125 6.109375 41.296875 11.75 
Q 45.40625 17.390625 45.40625 27.296875 
Q 45.40625 37.203125 41.296875 42.84375 
Q 37.203125 48.484375 30.078125 48.484375 
Q 22.953125 48.484375 18.875 42.84375 
Q 14.796875 37.203125 14.796875 27.296875 
z
" id="DejaVuSans-100"/>
      <path d="M 9.421875 54.6875 
L 18.40625 54.6875 
L 18.40625 0 
L 9.421875 0 
z
M 9.421875 75.984375 
L 18.40625 75.984375 
L 18.40625 64.59375 
L 9.421875 64.59375 
z
" id="DejaVuSans-105"/>
      <path d="M 52 44.1875 
Q 55.375 50.25 60.0625 53.125 
Q 64.75 56 71.09375 56 
Q 79.640625 56 84.28125 50.015625 
Q 88.921875 44.046875 88.921875 33.015625 
L 88.921875 0 
L 79.890625 0 
L 79.890625 32.71875 
Q 79.890625 40.578125 77.09375 44.375 
Q 74.3125 48.1875 68.609375 48.1875 
Q 61.625 48.1875 57.5625 43.546875 
Q 53.515625 38.921875 53.515625 30.90625 
L 53.515625 0 
L 44.484375 0 
L 44.484375 32.71875 
Q 44.484375 40.625 41.703125 44.40625 
Q 38.921875 48.1875 33.109375 48.1875 
Q 26.21875 48.1875 22.15625 43.53125 
Q 18.109375 38.875 18.109375 30.90625 
L 18.109375 0 
L 9.078125 0 
L 9.078125 54.6875 
L 18.109375 54.6875 
L 18.109375 46.1875 
Q 21.1875 51.21875 25.484375 53.609375 
Q 29.78125 56 35.6875 56 
Q 41.65625 56 45.828125 52.96875 
Q 50 49.953125 52 44.1875 
z
" id="DejaVuSans-109"/>
      <path d="M 54.890625 33.015625 
L 54.890625 0 
L 45.90625 0 
L 45.90625 32.71875 
Q 45.90625 40.484375 42.875 44.328125 
Q 39.84375 48.1875 33.796875 48.1875 
Q 26.515625 48.1875 22.3125 43.546875 
Q 18.109375 38.921875 18.109375 30.90625 
L 18.109375 0 
L 9.078125 0 
L 9.078125 54.6875 
L 18.109375 54.6875 
L 18.109375 46.1875 
Q 21.34375 51.125 25.703125 53.5625 
Q 30.078125 56 35.796875 56 
Q 45.21875 56 50.046875 50.171875 
Q 54.890625 44.34375 54.890625 33.015625 
z
" id="DejaVuSans-110"/>
      <path d="M 8.015625 75.875 
L 15.828125 75.875 
Q 23.140625 64.359375 26.78125 53.3125 
Q 30.421875 42.28125 30.421875 31.390625 
Q 30.421875 20.453125 26.78125 9.375 
Q 23.140625 -1.703125 15.828125 -13.1875 
L 8.015625 -13.1875 
Q 14.5 -2 17.703125 9.0625 
Q 20.90625 20.125 20.90625 31.390625 
Q 20.90625 42.671875 17.703125 53.65625 
Q 14.5 64.65625 8.015625 75.875 
z
" id="DejaVuSans-41"/>
     </defs>
     <g transform="translate(77.303219 342.217594)scale(0.17 -0.17)">
      <use xlink:href="#DejaVuSans-108"/>
      <use x="27.783203" xlink:href="#DejaVuSans-111"/>
      <use x="88.964844" xlink:href="#DejaVuSans-103"/>
      <use x="152.441406" xlink:href="#DejaVuSans-49"/>
      <use x="216.064453" xlink:href="#DejaVuSans-48"/>
      <use x="279.6875" xlink:href="#DejaVuSans-40"/>
      <use x="318.701172" xlink:href="#DejaVuSans-35"/>
      <use x="402.490234" xlink:href="#DejaVuSans-32"/>
      <use x="434.277344" xlink:href="#DejaVuSans-102"/>
      <use x="469.404297" xlink:href="#DejaVuSans-45"/>
      <use x="505.488281" xlink:href="#DejaVuSans-101"/>
      <use x="567.011719" xlink:href="#DejaVuSans-118"/>
      <use x="626.191406" xlink:href="#DejaVuSans-97"/>
      <use x="687.470703" xlink:href="#DejaVuSans-108"/>
      <use x="715.253906" xlink:href="#DejaVuSans-115"/>
      <use x="767.353516" xlink:href="#DejaVuSans-32"/>
      <use x="799.140625" xlink:href="#DejaVuSans-47"/>
      <use x="832.832031" xlink:href="#DejaVuSans-32"/>
      <use x="864.619141" xlink:href="#DejaVuSans-100"/>
      <use x="928.095703" xlink:href="#DejaVuSans-105"/>
      <use x="955.878906" xlink:href="#DejaVuSans-109"/>
      <use x="1053.291016" xlink:href="#DejaVuSans-101"/>
      <use x="1114.814453" xlink:href="#DejaVuSans-110"/>
      <use x="1178.193359" xlink:href="#DejaVuSans-115"/>
      <use x="1230.292969" xlink:href="#DejaVuSans-105"/>
      <use x="1258.076172" xlink:href="#DejaVuSans-111"/>
      <use x="1319.257812" xlink:href="#DejaVuSans-110"/>
      <use x="1382.636719" xlink:href="#DejaVuSans-41"/>
     </g>
    </g>
   </g>
   <g id="matplotlib.axis_2">
    <g id="ytick_1">
     <g id="line2d_21">
      <path clip-path="url(#p702cabd113)" d="M 57.6 298.944 
L 338.688 298.944 
" style="fill:none;stroke:#b0b0b0;stroke-linecap:square;stroke-width:0.8;"/>
     </g>
     <g id="line2d_22">
      <defs>
       <path d="M 0 0 
L -3.5 0 
" id="mba18c39dfb" style="stroke:#000000;stroke-width:0.8;"/>
      </defs>
      <g>
       <use style="stroke:#000000;stroke-width:0.8;" x="57.6" xlink:href="#mba18c39dfb" y="298.944"/>
      </g>
     </g>
     <g id="text_6">
      <!-- 0.0 -->
      <defs>
       <path d="M 10.6875 12.40625 
L 21 12.40625 
L 21 0 
L 10.6875 0 
z
" id="DejaVuSans-46"/>
      </defs>
      <g transform="translate(25.155 305.02275)scale(0.16 -0.16)">
       <use xlink:href="#DejaVuSans-48"/>
       <use x="63.623047" xlink:href="#DejaVuSans-46"/>
       <use x="95.410156" xlink:href="#DejaVuSans-48"/>
      </g>
     </g>
    </g>
    <g id="ytick_2">
     <g id="line2d_23">
      <path clip-path="url(#p702cabd113)" d="M 57.6 245.22202 
L 338.688 245.22202 
" style="fill:none;stroke:#b0b0b0;stroke-linecap:square;stroke-width:0.8;"/>
     </g>
     <g id="line2d_24">
      <g>
       <use style="stroke:#000000;stroke-width:0.8;" x="57.6" xlink:href="#mba18c39dfb" y="245.22202"/>
      </g>
     </g>
     <g id="text_7">
      <!-- 0.2 -->
      <g transform="translate(25.155 251.30077)scale(0.16 -0.16)">
       <use xlink:href="#DejaVuSans-48"/>
       <use x="63.623047" xlink:href="#DejaVuSans-46"/>
       <use x="95.410156" xlink:href="#DejaVuSans-50"/>
      </g>
     </g>
    </g>
    <g id="ytick_3">
     <g id="line2d_25">
      <path clip-path="url(#p702cabd113)" d="M 57.6 191.50004 
L 338.688 191.50004 
" style="fill:none;stroke:#b0b0b0;stroke-linecap:square;stroke-width:0.8;"/>
     </g>
     <g id="line2d_26">
      <g>
       <use style="stroke:#000000;stroke-width:0.8;" x="57.6" xlink:href="#mba18c39dfb" y="191.50004"/>
      </g>
     </g>
     <g id="text_8">
      <!-- 0.4 -->
      <g transform="translate(25.155 197.57879)scale(0.16 -0.16)">
       <use xlink:href="#DejaVuSans-48"/>
       <use x="63.623047" xlink:href="#DejaVuSans-46"/>
       <use x="95.410156" xlink:href="#DejaVuSans-52"/>
      </g>
     </g>
    </g>
    <g id="ytick_4">
     <g id="line2d_27">
      <path clip-path="url(#p702cabd113)" d="M 57.6 137.778059 
L 338.688 137.778059 
" style="fill:none;stroke:#b0b0b0;stroke-linecap:square;stroke-width:0.8;"/>
     </g>
     <g id="line2d_28">
      <g>
       <use style="stroke:#000000;stroke-width:0.8;" x="57.6" xlink:href="#mba18c39dfb" y="137.778059"/>
      </g>
     </g>
     <g id="text_9">
      <!-- 0.6 -->
      <g transform="translate(25.155 143.856809)scale(0.16 -0.16)">
       <use xlink:href="#DejaVuSans-48"/>
       <use x="63.623047" xlink:href="#DejaVuSans-46"/>
       <use x="95.410156" xlink:href="#DejaVuSans-54"/>
      </g>
     </g>
    </g>
    <g id="ytick_5">
     <g id="line2d_29">
      <path clip-path="url(#p702cabd113)" d="M 57.6 84.056079 
L 338.688 84.056079 
" style="fill:none;stroke:#b0b0b0;stroke-linecap:square;stroke-width:0.8;"/>
     </g>
     <g id="line2d_30">
      <g>
       <use style="stroke:#000000;stroke-width:0.8;" x="57.6" xlink:href="#mba18c39dfb" y="84.056079"/>
      </g>
     </g>
     <g id="text_10">
      <!-- 0.8 -->
      <defs>
       <path d="M 31.78125 34.625 
Q 24.75 34.625 20.71875 30.859375 
Q 16.703125 27.09375 16.703125 20.515625 
Q 16.703125 13.921875 20.71875 10.15625 
Q 24.75 6.390625 31.78125 6.390625 
Q 38.8125 6.390625 42.859375 10.171875 
Q 46.921875 13.96875 46.921875 20.515625 
Q 46.921875 27.09375 42.890625 30.859375 
Q 38.875 34.625 31.78125 34.625 
z
M 21.921875 38.8125 
Q 15.578125 40.375 12.03125 44.71875 
Q 8.5 49.078125 8.5 55.328125 
Q 8.5 64.0625 14.71875 69.140625 
Q 20.953125 74.21875 31.78125 74.21875 
Q 42.671875 74.21875 48.875 69.140625 
Q 55.078125 64.0625 55.078125 55.328125 
Q 55.078125 49.078125 51.53125 44.71875 
Q 48 40.375 41.703125 38.8125 
Q 48.828125 37.15625 52.796875 32.3125 
Q 56.78125 27.484375 56.78125 20.515625 
Q 56.78125 9.90625 50.3125 4.234375 
Q 43.84375 -1.421875 31.78125 -1.421875 
Q 19.734375 -1.421875 13.25 4.234375 
Q 6.78125 9.90625 6.78125 20.515625 
Q 6.78125 27.484375 10.78125 32.3125 
Q 14.796875 37.15625 21.921875 38.8125 
z
M 18.3125 54.390625 
Q 18.3125 48.734375 21.84375 45.5625 
Q 25.390625 42.390625 31.78125 42.390625 
Q 38.140625 42.390625 41.71875 45.5625 
Q 45.3125 48.734375 45.3125 54.390625 
Q 45.3125 60.0625 41.71875 63.234375 
Q 38.140625 66.40625 31.78125 66.40625 
Q 25.390625 66.40625 21.84375 63.234375 
Q 18.3125 60.0625 18.3125 54.390625 
z
" id="DejaVuSans-56"/>
      </defs>
      <g transform="translate(25.155 90.134829)scale(0.16 -0.16)">
       <use xlink:href="#DejaVuSans-48"/>
       <use x="63.623047" xlink:href="#DejaVuSans-46"/>
       <use x="95.410156" xlink:href="#DejaVuSans-56"/>
      </g>
     </g>
    </g>
    <g id="ytick_6">
     <g id="line2d_31">
      <path clip-path="url(#p702cabd113)" d="M 57.6 30.334099 
L 338.688 30.334099 
" style="fill:none;stroke:#b0b0b0;stroke-linecap:square;stroke-width:0.8;"/>
     </g>
     <g id="line2d_32">
      <g>
       <use style="stroke:#000000;stroke-width:0.8;" x="57.6" xlink:href="#mba18c39dfb" y="30.334099"/>
      </g>
     </g>
     <g id="text_11">
      <!-- 1.0 -->
      <g transform="translate(25.155 36.412849)scale(0.16 -0.16)">
       <use xlink:href="#DejaVuSans-49"/>
       <use x="63.623047" xlink:href="#DejaVuSans-46"/>
       <use x="95.410156" xlink:href="#DejaVuSans-48"/>
      </g>
     </g>
    </g>
    <g id="text_12">
     <!-- Fraction of function,target pairs -->
     <defs>
      <path d="M 9.8125 72.90625 
L 51.703125 72.90625 
L 51.703125 64.59375 
L 19.671875 64.59375 
L 19.671875 43.109375 
L 48.578125 43.109375 
L 48.578125 34.8125 
L 19.671875 34.8125 
L 19.671875 0 
L 9.8125 0 
z
" id="DejaVuSans-70"/>
      <path d="M 41.109375 46.296875 
Q 39.59375 47.171875 37.8125 47.578125 
Q 36.03125 48 33.890625 48 
Q 26.265625 48 22.1875 43.046875 
Q 18.109375 38.09375 18.109375 28.8125 
L 18.109375 0 
L 9.078125 0 
L 9.078125 54.6875 
L 18.109375 54.6875 
L 18.109375 46.1875 
Q 20.953125 51.171875 25.484375 53.578125 
Q 30.03125 56 36.53125 56 
Q 37.453125 56 38.578125 55.875 
Q 39.703125 55.765625 41.0625 55.515625 
z
" id="DejaVuSans-114"/>
      <path d="M 48.78125 52.59375 
L 48.78125 44.1875 
Q 44.96875 46.296875 41.140625 47.34375 
Q 37.3125 48.390625 33.40625 48.390625 
Q 24.65625 48.390625 19.8125 42.84375 
Q 14.984375 37.3125 14.984375 27.296875 
Q 14.984375 17.28125 19.8125 11.734375 
Q 24.65625 6.203125 33.40625 6.203125 
Q 37.3125 6.203125 41.140625 7.25 
Q 44.96875 8.296875 48.78125 10.40625 
L 48.78125 2.09375 
Q 45.015625 0.34375 40.984375 -0.53125 
Q 36.96875 -1.421875 32.421875 -1.421875 
Q 20.0625 -1.421875 12.78125 6.34375 
Q 5.515625 14.109375 5.515625 27.296875 
Q 5.515625 40.671875 12.859375 48.328125 
Q 20.21875 56 33.015625 56 
Q 37.15625 56 41.109375 55.140625 
Q 45.0625 54.296875 48.78125 52.59375 
z
" id="DejaVuSans-99"/>
      <path d="M 18.3125 70.21875 
L 18.3125 54.6875 
L 36.8125 54.6875 
L 36.8125 47.703125 
L 18.3125 47.703125 
L 18.3125 18.015625 
Q 18.3125 11.328125 20.140625 9.421875 
Q 21.96875 7.515625 27.59375 7.515625 
L 36.8125 7.515625 
L 36.8125 0 
L 27.59375 0 
Q 17.1875 0 13.234375 3.875 
Q 9.28125 7.765625 9.28125 18.015625 
L 9.28125 47.703125 
L 2.6875 47.703125 
L 2.6875 54.6875 
L 9.28125 54.6875 
L 9.28125 70.21875 
z
" id="DejaVuSans-116"/>
      <path d="M 8.5 21.578125 
L 8.5 54.6875 
L 17.484375 54.6875 
L 17.484375 21.921875 
Q 17.484375 14.15625 20.5 10.265625 
Q 23.53125 6.390625 29.59375 6.390625 
Q 36.859375 6.390625 41.078125 11.03125 
Q 45.3125 15.671875 45.3125 23.6875 
L 45.3125 54.6875 
L 54.296875 54.6875 
L 54.296875 0 
L 45.3125 0 
L 45.3125 8.40625 
Q 42.046875 3.421875 37.71875 1 
Q 33.40625 -1.421875 27.6875 -1.421875 
Q 18.265625 -1.421875 13.375 4.4375 
Q 8.5 10.296875 8.5 21.578125 
z
M 31.109375 56 
z
" id="DejaVuSans-117"/>
      <path d="M 11.71875 12.40625 
L 22.015625 12.40625 
L 22.015625 4 
L 14.015625 -11.625 
L 7.71875 -11.625 
L 11.71875 4 
z
" id="DejaVuSans-44"/>
      <path d="M 18.109375 8.203125 
L 18.109375 -20.796875 
L 9.078125 -20.796875 
L 9.078125 54.6875 
L 18.109375 54.6875 
L 18.109375 46.390625 
Q 20.953125 51.265625 25.265625 53.625 
Q 29.59375 56 35.59375 56 
Q 45.5625 56 51.78125 48.09375 
Q 58.015625 40.1875 58.015625 27.296875 
Q 58.015625 14.40625 51.78125 6.484375 
Q 45.5625 -1.421875 35.59375 -1.421875 
Q 29.59375 -1.421875 25.265625 0.953125 
Q 20.953125 3.328125 18.109375 8.203125 
z
M 48.6875 27.296875 
Q 48.6875 37.203125 44.609375 42.84375 
Q 40.53125 48.484375 33.40625 48.484375 
Q 26.265625 48.484375 22.1875 42.84375 
Q 18.109375 37.203125 18.109375 27.296875 
Q 18.109375 17.390625 22.1875 11.75 
Q 26.265625 6.109375 33.40625 6.109375 
Q 40.53125 6.109375 44.609375 11.75 
Q 48.6875 17.390625 48.6875 27.296875 
z
" id="DejaVuSans-112"/>
     </defs>
     <g transform="translate(17.619531 298.435375)rotate(-90)scale(0.17 -0.17)">
      <use xlink:href="#DejaVuSans-70"/>
      <use x="57.410156" xlink:href="#DejaVuSans-114"/>
      <use x="98.523438" xlink:href="#DejaVuSans-97"/>
      <use x="159.802734" xlink:href="#DejaVuSans-99"/>
      <use x="214.783203" xlink:href="#DejaVuSans-116"/>
      <use x="253.992188" xlink:href="#DejaVuSans-105"/>
      <use x="281.775391" xlink:href="#DejaVuSans-111"/>
      <use x="342.957031" xlink:href="#DejaVuSans-110"/>
      <use x="406.335938" xlink:href="#DejaVuSans-32"/>
      <use x="438.123047" xlink:href="#DejaVuSans-111"/>
      <use x="499.304688" xlink:href="#DejaVuSans-102"/>
      <use x="534.509766" xlink:href="#DejaVuSans-32"/>
      <use x="566.296875" xlink:href="#DejaVuSans-102"/>
      <use x="601.501953" xlink:href="#DejaVuSans-117"/>
      <use x="664.880859" xlink:href="#DejaVuSans-110"/>
      <use x="728.259766" xlink:href="#DejaVuSans-99"/>
      <use x="783.240234" xlink:href="#DejaVuSans-116"/>
      <use x="822.449219" xlink:href="#DejaVuSans-105"/>
      <use x="850.232422" xlink:href="#DejaVuSans-111"/>
      <use x="911.414062" xlink:href="#DejaVuSans-110"/>
      <use x="974.792969" xlink:href="#DejaVuSans-44"/>
      <use x="1006.580078" xlink:href="#DejaVuSans-116"/>
      <use x="1045.789062" xlink:href="#DejaVuSans-97"/>
      <use x="1107.068359" xlink:href="#DejaVuSans-114"/>
      <use x="1148.166016" xlink:href="#DejaVuSans-103"/>
      <use x="1211.642578" xlink:href="#DejaVuSans-101"/>
      <use x="1273.166016" xlink:href="#DejaVuSans-116"/>
      <use x="1312.375" xlink:href="#DejaVuSans-32"/>
      <use x="1344.162109" xlink:href="#DejaVuSans-112"/>
      <use x="1407.638672" xlink:href="#DejaVuSans-97"/>
      <use x="1468.917969" xlink:href="#DejaVuSans-105"/>
      <use x="1496.701172" xlink:href="#DejaVuSans-114"/>
      <use x="1537.814453" xlink:href="#DejaVuSans-115"/>
     </g>
    </g>
   </g>
   <g id="line2d_33">
    <defs>
     <path d="M 0 1.5 
C 0.397805 1.5 0.77937 1.341951 1.06066 1.06066 
C 1.341951 0.77937 1.5 0.397805 1.5 0 
C 1.5 -0.397805 1.341951 -0.77937 1.06066 -1.06066 
C 0.77937 -1.341951 0.397805 -1.5 0 -1.5 
C -0.397805 -1.5 -0.77937 -1.341951 -1.06066 -1.06066 
C -1.341951 -0.77937 -1.5 -0.397805 -1.5 0 
C -1.5 0.397805 -1.341951 0.77937 -1.06066 1.06066 
C -0.77937 1.341951 -0.397805 1.5 0 1.5 
z
" id="mfd81d9e29d" style="stroke:#f5deb3;"/>
    </defs>
    <g>
     <use style="fill:#f5deb3;stroke:#f5deb3;" x="233.834746" xlink:href="#mfd81d9e29d" y="30.334099"/>
     <use style="fill:#f5deb3;stroke:#f5deb3;" x="233.834746" xlink:href="#mfd81d9e29d" y="30.334099"/>
    </g>
   </g>
   <g id="line2d_34">
    <defs>
     <path d="M 0 1.5 
C 0.397805 1.5 0.77937 1.341951 1.06066 1.06066 
C 1.341951 0.77937 1.5 0.397805 1.5 0 
C 1.5 -0.397805 1.341951 -0.77937 1.06066 -1.06066 
C 0.77937 -1.341951 0.397805 -1.5 0 -1.5 
C -0.397805 -1.5 -0.77937 -1.341951 -1.06066 -1.06066 
C -1.341951 -0.77937 -1.5 -0.397805 -1.5 0 
C -1.5 0.397805 -1.341951 0.77937 -1.06066 1.06066 
C -0.77937 1.341951 -0.397805 1.5 0 1.5 
z
" id="md4b70e9f3b" style="stroke:#000080;"/>
    </defs>
    <g>
     <use style="fill:#000080;stroke:#000080;" x="258.214938" xlink:href="#md4b70e9f3b" y="30.334099"/>
     <use style="fill:#000080;stroke:#000080;" x="258.214938" xlink:href="#md4b70e9f3b" y="30.334099"/>
    </g>
   </g>
   <g id="line2d_35">
    <path d="M 29.53256 298.944 
L 29.53256 225.207949 
L 147.86833 225.207949 
L 147.86833 224.681263 
L 156.406335 224.681263 
L 156.406335 224.154577 
L 156.823991 224.154577 
L 156.823991 223.627891 
L 158.0201 223.627891 
L 158.0201 223.101204 
L 164.546914 223.101204 
L 164.546914 222.574518 
L 170.553741 222.574518 
L 170.553741 222.047832 
L 175.46036 222.047832 
L 175.46036 221.521146 
L 197.158899 221.521146 
L 197.158899 220.99446 
L 198.849344 220.99446 
L 198.849344 220.467774 
L 199.394708 220.467774 
L 199.394708 219.941088 
L 199.818643 219.941088 
L 199.86867 218.887716 
L 199.946426 218.887716 
L 199.946426 218.36103 
L 200.090058 218.36103 
L 200.090058 217.307658 
L 200.2882 217.307658 
L 200.398068 215.727599 
L 200.429055 215.727599 
L 200.52169 214.147541 
L 200.621491 214.147541 
L 200.729285 213.094169 
L 202.894354 213.094169 
L 202.894354 212.567483 
L 203.805832 212.567483 
L 203.805832 212.040797 
L 204.008727 212.040797 
L 204.008727 211.514111 
L 206.654627 211.514111 
L 206.654627 210.987425 
L 207.504267 210.987425 
L 207.504267 210.460738 
L 208.534641 210.460738 
L 208.570467 209.407366 
L 208.648544 209.407366 
L 208.727475 207.827308 
L 208.800065 207.827308 
L 208.9069 202.560447 
L 208.969264 202.560447 
L 208.979933 200.453703 
L 209.10804 200.453703 
L 209.218855 196.7669 
L 209.268464 196.7669 
L 209.289433 195.713528 
L 210.576125 195.713528 
L 210.576125 195.186842 
L 211.305217 195.186842 
L 211.314031 194.13347 
L 211.576892 194.13347 
L 211.684793 190.973354 
L 211.711158 190.973354 
L 211.817227 186.759865 
L 211.866507 186.759865 
L 211.943165 181.493004 
L 211.986107 181.493004 
L 212.092505 173.592713 
L 212.100929 173.592713 
L 212.202691 169.379224 
L 212.22189 169.379224 
L 212.257279 166.745794 
L 213.30722 166.745794 
L 213.30722 166.219108 
L 213.502608 166.219108 
L 213.563306 164.63905 
L 213.633325 164.63905 
L 213.71436 162.005619 
L 213.751356 162.005619 
L 213.840366 159.898875 
L 213.892751 159.898875 
L 213.981934 155.685386 
L 214.029904 155.685386 
L 214.122362 150.945211 
L 214.15454 150.945211 
L 214.265606 148.838467 
L 214.305382 148.838467 
L 214.396829 145.678351 
L 214.437608 145.678351 
L 214.523192 142.518234 
L 214.563676 142.518234 
L 214.622512 138.304745 
L 214.678587 138.304745 
L 214.773203 136.198001 
L 214.80675 136.198001 
L 214.858852 133.037885 
L 214.931451 133.037885 
L 214.992 129.877768 
L 215.081178 129.877768 
L 215.161175 127.771024 
L 215.194813 127.771024 
L 215.198547 126.717652 
L 216.115223 126.717652 
L 216.115223 126.190966 
L 217.217443 126.190966 
L 217.272406 124.610907 
L 217.946454 124.610907 
L 218.024587 123.030849 
L 218.061586 123.030849 
L 218.156369 119.870733 
L 218.203219 119.870733 
L 218.262127 116.710616 
L 218.32153 116.710616 
L 218.397658 114.077186 
L 218.435598 114.077186 
L 218.435598 113.023814 
L 218.729747 113.023814 
L 218.729747 112.497128 
L 223.418338 112.497128 
L 223.418338 111.970441 
L 223.725784 111.970441 
L 223.725784 111.443755 
L 223.912013 111.443755 
L 223.912013 110.917069 
L 224.192633 110.917069 
L 224.192633 110.390383 
L 224.317749 110.390383 
L 224.317749 109.863697 
L 224.606967 109.863697 
L 224.660575 107.756953 
L 224.745479 107.756953 
L 224.855025 105.650209 
L 224.990879 105.650209 
L 224.990879 105.123522 
L 225.158987 105.123522 
L 225.251762 102.490092 
L 225.287385 102.490092 
L 225.35911 101.43672 
L 225.401448 101.43672 
L 225.484439 98.803289 
L 225.534503 98.803289 
L 225.534503 98.276603 
L 228.954445 98.276603 
L 229.056119 96.696545 
L 229.228414 96.696545 
L 229.229342 95.116487 
L 229.435549 95.116487 
L 229.541027 94.063115 
L 229.680437 94.063115 
L 229.732971 91.95637 
L 229.842761 91.95637 
L 229.887485 89.849626 
L 229.964677 89.849626 
L 230.016008 85.636137 
L 230.088042 85.636137 
L 230.088042 84.582765 
L 230.235778 84.582765 
L 230.314759 80.369277 
L 233.11379 80.369277 
L 233.209452 78.262532 
L 233.228049 78.262532 
L 233.245743 76.682474 
L 234.796923 76.682474 
L 234.905258 72.468985 
L 235.473544 72.468985 
L 235.582022 67.202125 
L 235.586404 67.202125 
L 235.627205 64.568694 
L 235.985775 64.568694 
L 236.077598 62.988636 
L 236.129388 62.988636 
L 236.227168 59.301833 
L 236.27034 59.301833 
L 236.330578 56.141717 
L 236.972674 56.141717 
L 236.972674 55.615031 
L 237.337536 55.615031 
L 237.361413 54.561659 
L 239.959437 54.561659 
L 240.063917 52.454914 
L 240.094293 52.454914 
L 240.203806 49.821484 
L 241.799405 49.821484 
L 241.799405 49.294798 
L 242.021063 49.294798 
L 242.125443 47.71474 
L 242.248296 47.71474 
L 242.303965 45.607995 
L 242.401266 45.607995 
L 242.401266 45.081309 
L 243.873909 45.081309 
L 243.918079 43.501251 
L 244.813492 43.501251 
L 244.813492 42.974565 
L 245.226559 42.974565 
L 245.267288 41.921193 
L 245.546048 41.921193 
L 245.620067 40.867821 
L 245.685688 40.867821 
L 245.708276 39.287762 
L 248.022366 39.287762 
L 248.022366 38.761076 
L 249.336369 38.761076 
L 249.336369 38.23439 
L 249.452834 38.23439 
L 249.482192 37.181018 
L 250.515453 37.181018 
L 250.515453 36.654332 
L 251.132015 36.654332 
L 251.139887 35.60096 
L 251.41776 35.60096 
L 251.417916 34.547588 
L 251.625082 34.547588 
L 251.629808 33.494215 
L 252.175116 33.494215 
L 252.175116 32.967529 
L 253.266168 32.967529 
L 253.373284 31.914157 
L 255.244915 31.914157 
L 255.2586 30.860785 
L 258.214938 30.860785 
L 258.214938 30.334099 
L 338.688 30.334099 
L 338.688 30.334099 
" style="fill:none;stroke:#000080;stroke-linecap:square;stroke-width:1.5;"/>
   </g>
   <g id="line2d_36">
    <defs>
     <path d="M 0 6 
C 1.591219 6 3.117479 5.367802 4.242641 4.242641 
C 5.367802 3.117479 6 1.591219 6 0 
C 6 -1.591219 5.367802 -3.117479 4.242641 -4.242641 
C 3.117479 -5.367802 1.591219 -6 0 -6 
C -1.591219 -6 -3.117479 -5.367802 -4.242641 -4.242641 
C -5.367802 -3.117479 -6 -1.591219 -6 0 
C -6 1.591219 -5.367802 3.117479 -4.242641 4.242641 
C -3.117479 5.367802 -1.591219 6 0 6 
z
" id="ma38aabcdb8" style="stroke:#000080;stroke-width:1.5;"/>
    </defs>
    <g>
     <use style="fill-opacity:0;stroke:#000080;stroke-width:1.5;" x="175.46036" xlink:href="#ma38aabcdb8" y="221.521146"/>
     <use style="fill-opacity:0;stroke:#000080;stroke-width:1.5;" x="229.435549" xlink:href="#ma38aabcdb8" y="94.589801"/>
     <use style="fill-opacity:0;stroke:#000080;stroke-width:1.5;" x="258.214938" xlink:href="#ma38aabcdb8" y="30.860785"/>
     <use style="fill-opacity:0;stroke:#000080;stroke-width:1.5;" x="258.214938" xlink:href="#ma38aabcdb8" y="30.334099"/>
     <use style="fill-opacity:0;stroke:#000080;stroke-width:1.5;" x="338.688" xlink:href="#ma38aabcdb8" y="30.334099"/>
    </g>
   </g>
   <g id="line2d_37">
    <path style="fill:none;stroke:#000080;stroke-linecap:square;stroke-width:1.5;"/>
    <g/>
   </g>
   <g id="line2d_38">
    <path clip-path="url(#p702cabd113)" d="M 230.32905 80.369277 
" style="fill:none;stroke:#000080;stroke-linecap:square;stroke-width:1.5;"/>
    <defs>
     <path d="M -12 12 
L 12 -12 
M -12 -12 
L 12 12 
" id="m7d2e835259" style="stroke:#000080;"/>
    </defs>
    <g clip-path="url(#p702cabd113)">
     <use style="fill:#000080;stroke:#000080;" x="230.32905" xlink:href="#m7d2e835259" y="80.369277"/>
    </g>
   </g>
   <g id="line2d_39">
    <g>
     <use style="fill:#000080;stroke:#000080;" x="249.657253" xlink:href="#md4b70e9f3b" y="30.334099"/>
     <use style="fill:#000080;stroke:#000080;" x="249.657253" xlink:href="#md4b70e9f3b" y="30.334099"/>
    </g>
   </g>
   <g id="line2d_40">
    <path d="M 29.53256 298.944 
L 29.53256 225.207949 
L 127.736845 225.207949 
L 127.736845 224.681263 
L 144.075117 224.681263 
L 144.075117 224.154577 
L 153.221946 224.154577 
L 153.221946 223.627891 
L 154.453136 223.627891 
L 154.453136 223.101204 
L 162.016937 223.101204 
L 162.016937 222.574518 
L 164.394804 222.574518 
L 164.394804 222.047832 
L 179.065994 222.047832 
L 179.065994 221.521146 
L 180.455039 221.521146 
L 180.455039 220.99446 
L 194.102845 220.99446 
L 194.102845 220.467774 
L 194.634212 220.467774 
L 194.634212 219.941088 
L 198.924388 219.941088 
L 198.924388 219.414402 
L 199.112163 219.414402 
L 199.175694 218.36103 
L 199.283479 218.36103 
L 199.283479 217.307658 
L 201.565744 217.307658 
L 201.565744 216.780971 
L 203.142884 216.780971 
L 203.142884 216.254285 
L 204.479047 216.254285 
L 204.479047 215.727599 
L 206.618029 215.727599 
L 206.618029 215.200913 
L 206.832457 215.200913 
L 206.832457 214.674227 
L 207.287547 214.674227 
L 207.287547 214.147541 
L 207.810446 214.147541 
L 207.810446 213.620855 
L 209.970413 213.620855 
L 209.970413 213.094169 
L 210.221631 213.094169 
L 210.235972 212.040797 
L 210.559355 212.040797 
L 210.559355 211.514111 
L 210.801754 211.514111 
L 210.801754 210.987425 
L 212.462294 210.987425 
L 212.462294 210.460738 
L 212.634201 210.460738 
L 212.634201 209.934052 
L 213.105876 209.934052 
L 213.105876 209.407366 
L 213.512206 209.407366 
L 213.576968 208.353994 
L 213.651013 208.353994 
L 213.749102 203.613819 
L 213.786025 203.613819 
L 213.855605 199.400331 
L 213.907051 199.400331 
L 214.009044 195.186842 
L 214.027686 195.186842 
L 214.133388 189.919981 
L 214.151017 189.919981 
L 214.245465 186.233179 
L 214.28179 186.233179 
L 214.351601 183.599748 
L 215.658262 183.599748 
L 215.766203 182.546376 
L 216.192191 182.546376 
L 216.192191 181.493004 
L 216.324519 181.493004 
L 216.371121 178.859574 
L 216.581986 178.859574 
L 216.659215 176.752829 
L 216.698463 176.752829 
L 216.805469 172.539341 
L 216.839105 172.539341 
L 216.937372 169.379224 
L 216.969255 169.379224 
L 217.02986 166.219108 
L 217.08281 166.219108 
L 217.192671 163.585677 
L 217.284555 163.585677 
L 217.363139 160.952247 
L 218.96696 160.952247 
L 219.05297 159.372189 
L 219.092167 159.372189 
L 219.118691 158.318817 
L 219.210221 158.318817 
L 219.295042 155.685386 
L 219.369985 155.685386 
L 219.466055 153.051956 
L 219.502067 153.051956 
L 219.605793 149.891839 
L 219.702498 149.891839 
L 219.805998 148.838467 
L 221.100776 148.838467 
L 221.100776 148.311781 
L 221.962129 148.311781 
L 221.962129 147.258409 
L 222.088885 147.258409 
L 222.088885 146.731723 
L 224.214166 146.731723 
L 224.214166 146.205037 
L 225.215599 146.205037 
L 225.215599 145.678351 
L 226.445467 145.678351 
L 226.445467 145.151665 
L 226.80073 145.151665 
L 226.850562 143.571606 
L 226.919962 143.571606 
L 227.029967 140.938176 
L 227.053314 140.938176 
L 227.106831 138.831432 
L 227.211502 138.831432 
L 227.31327 135.144629 
L 227.363313 135.144629 
L 227.434408 133.037885 
L 227.485335 133.037885 
L 227.485335 131.984513 
L 229.418489 131.984513 
L 229.418489 131.457826 
L 230.047725 131.457826 
L 230.130204 128.29771 
L 230.165584 128.29771 
L 230.265875 122.504163 
L 230.290858 122.504163 
L 230.383315 117.237302 
L 230.425463 117.237302 
L 230.521175 113.023814 
L 230.562132 113.023814 
L 230.672135 108.810325 
L 230.711036 108.810325 
L 230.711036 107.756953 
L 230.838388 107.756953 
L 230.88907 106.703581 
L 230.966666 106.703581 
L 231.040238 105.123522 
L 231.091171 105.123522 
L 231.156415 102.490092 
L 231.227208 102.490092 
L 231.330477 98.276603 
L 231.352174 98.276603 
L 231.352174 97.223231 
L 232.094753 97.223231 
L 232.094753 96.696545 
L 233.335555 96.696545 
L 233.335555 96.169859 
L 233.73229 96.169859 
L 233.73229 95.643173 
L 234.40009 95.643173 
L 234.40009 95.116487 
L 234.879512 95.116487 
L 234.879512 94.589801 
L 236.543629 94.589801 
L 236.543629 94.063115 
L 237.273549 94.063115 
L 237.273549 93.536429 
L 237.424498 93.536429 
L 237.428557 91.95637 
L 237.549069 91.95637 
L 237.58082 89.32294 
L 237.723901 89.32294 
L 237.723901 88.269568 
L 237.84115 88.269568 
L 237.920233 86.68951 
L 237.964026 86.68951 
L 238.070851 83.529393 
L 238.283331 83.529393 
L 238.365933 81.949335 
L 238.408294 81.949335 
L 238.408294 80.895963 
L 238.582467 80.895963 
L 238.629934 77.20916 
L 238.847831 77.20916 
L 238.934191 75.629102 
L 238.971693 75.629102 
L 238.971693 75.102416 
L 239.241383 75.102416 
L 239.298032 72.468985 
L 239.451405 72.468985 
L 239.538327 70.362241 
L 239.595557 70.362241 
L 239.684211 67.202125 
L 239.717696 67.202125 
L 239.822316 64.568694 
L 239.869453 64.568694 
L 239.97347 61.935264 
L 240.126306 61.935264 
L 240.126306 61.408578 
L 240.271707 61.408578 
L 240.357096 59.82852 
L 240.427821 59.82852 
L 240.528084 56.668403 
L 240.578097 56.668403 
L 240.673846 53.508287 
L 240.777781 53.508287 
L 240.863018 51.401542 
L 240.903438 51.401542 
L 240.91341 50.34817 
L 241.229908 50.34817 
L 241.3087 49.294798 
L 241.425533 49.294798 
L 241.513083 47.71474 
L 241.601382 47.71474 
L 241.707026 45.081309 
L 241.765804 45.081309 
L 241.8612 41.394507 
L 243.718994 41.394507 
L 243.718994 40.867821 
L 244.144603 40.867821 
L 244.144603 40.341135 
L 249.041252 40.341135 
L 249.12985 38.23439 
L 249.233327 38.23439 
L 249.31873 34.020902 
L 249.35247 34.020902 
L 249.35247 32.967529 
L 249.46406 32.967529 
L 249.573497 31.387471 
L 249.624559 31.387471 
L 249.657253 30.334099 
L 338.688 30.334099 
L 338.688 30.334099 
" style="fill:none;stroke:#000080;stroke-linecap:square;stroke-width:1.5;"/>
   </g>
   <g id="line2d_41">
    <g>
     <use style="fill-opacity:0;stroke:#000080;stroke-width:1.5;" x="164.394804" xlink:href="#ma38aabcdb8" y="222.047832"/>
     <use style="fill-opacity:0;stroke:#000080;stroke-width:1.5;" x="219.092167" xlink:href="#ma38aabcdb8" y="159.372189"/>
     <use style="fill-opacity:0;stroke:#000080;stroke-width:1.5;" x="249.657253" xlink:href="#ma38aabcdb8" y="30.860785"/>
     <use style="fill-opacity:0;stroke:#000080;stroke-width:1.5;" x="249.657253" xlink:href="#ma38aabcdb8" y="30.334099"/>
     <use style="fill-opacity:0;stroke:#000080;stroke-width:1.5;" x="338.688" xlink:href="#ma38aabcdb8" y="30.334099"/>
    </g>
   </g>
   <g id="line2d_42">
    <path style="fill:none;stroke:#000080;stroke-linecap:square;stroke-width:1.5;"/>
    <g/>
   </g>
   <g id="line2d_43">
    <defs>
     <path d="M 0 1.5 
C 0.397805 1.5 0.77937 1.341951 1.06066 1.06066 
C 1.341951 0.77937 1.5 0.397805 1.5 0 
C 1.5 -0.397805 1.341951 -0.77937 1.06066 -1.06066 
C 0.77937 -1.341951 0.397805 -1.5 0 -1.5 
C -0.397805 -1.5 -0.77937 -1.341951 -1.06066 -1.06066 
C -1.341951 -0.77937 -1.5 -0.397805 -1.5 0 
C -1.5 0.397805 -1.341951 0.77937 -1.06066 1.06066 
C -0.77937 1.341951 -0.397805 1.5 0 1.5 
z
" id="mc9f465ec7f" style="stroke:#ff00ff;"/>
    </defs>
    <g>
     <use style="fill:#ff00ff;stroke:#ff00ff;" x="302.446387" xlink:href="#mc9f465ec7f" y="114.603872"/>
     <use style="fill:#ff00ff;stroke:#ff00ff;" x="302.446387" xlink:href="#mc9f465ec7f" y="114.603872"/>
    </g>
   </g>
   <g id="line2d_44">
    <path d="M 29.53256 298.944 
L 29.53256 225.207949 
L 175.330276 225.207949 
L 175.330276 224.681263 
L 213.228447 224.681263 
L 213.228447 224.154577 
L 213.865011 224.154577 
L 213.865011 223.627891 
L 215.356288 223.627891 
L 215.356288 223.101204 
L 216.250477 223.101204 
L 216.250477 222.574518 
L 217.005942 222.574518 
L 217.005942 222.047832 
L 217.1849 222.047832 
L 217.1849 220.99446 
L 217.664979 220.99446 
L 217.664979 220.467774 
L 217.872952 220.467774 
L 217.872952 219.941088 
L 218.628841 219.941088 
L 218.628841 218.887716 
L 223.560159 218.887716 
L 223.560159 218.36103 
L 224.144023 218.36103 
L 224.144023 217.307658 
L 225.658355 217.307658 
L 225.658355 216.254285 
L 225.77568 216.254285 
L 225.77568 215.200913 
L 229.303215 215.200913 
L 229.303215 214.674227 
L 229.885877 214.674227 
L 229.885877 212.567483 
L 231.374009 212.567483 
L 231.374009 212.040797 
L 235.641212 212.040797 
L 235.641212 211.514111 
L 236.024648 211.514111 
L 236.132385 210.460738 
L 237.499024 210.460738 
L 237.599774 208.353994 
L 239.287822 208.353994 
L 239.287822 207.827308 
L 239.623387 207.827308 
L 239.63851 206.773936 
L 240.328156 206.773936 
L 240.328156 206.24725 
L 240.481528 206.24725 
L 240.481528 205.720564 
L 240.78046 205.720564 
L 240.78046 205.193878 
L 242.07977 205.193878 
L 242.07977 204.667192 
L 242.247944 204.667192 
L 242.290109 203.613819 
L 243.096422 203.613819 
L 243.096422 203.087133 
L 245.306151 203.087133 
L 245.306151 202.560447 
L 245.583423 202.560447 
L 245.583423 202.033761 
L 245.788217 202.033761 
L 245.788217 201.507075 
L 246.268983 201.507075 
L 246.360648 199.927017 
L 246.487941 199.927017 
L 246.487941 199.400331 
L 246.601298 199.400331 
L 246.631352 198.346959 
L 246.761648 198.346959 
L 246.770404 197.293586 
L 246.905595 197.293586 
L 246.905595 196.7669 
L 247.703555 196.7669 
L 247.703555 196.240214 
L 247.976327 196.240214 
L 247.976327 195.713528 
L 248.129091 195.713528 
L 248.129091 195.186842 
L 248.250072 195.186842 
L 248.333654 193.080098 
L 248.419986 193.080098 
L 248.475459 192.026726 
L 248.599752 192.026726 
L 248.599752 191.50004 
L 248.82389 191.50004 
L 248.82389 190.973354 
L 249.223662 190.973354 
L 249.333499 187.813237 
L 249.377206 187.813237 
L 249.436826 185.706493 
L 249.585742 185.706493 
L 249.585742 185.179807 
L 251.489351 185.179807 
L 251.545535 183.599748 
L 251.856451 183.599748 
L 251.856451 183.073062 
L 252.053641 183.073062 
L 252.069122 182.01969 
L 252.234247 182.01969 
L 252.237422 180.966318 
L 252.411725 180.966318 
L 252.411725 180.439632 
L 252.54244 180.439632 
L 252.54244 179.912946 
L 253.24048 179.912946 
L 253.24048 179.38626 
L 253.379417 179.38626 
L 253.379417 178.859574 
L 253.573714 178.859574 
L 253.637635 177.279515 
L 253.805535 177.279515 
L 253.886491 176.226143 
L 254.445217 176.226143 
L 254.483194 174.646085 
L 254.637783 174.646085 
L 254.637783 174.119399 
L 256.409537 174.119399 
L 256.438913 173.066027 
L 256.616334 173.066027 
L 256.683611 172.012655 
L 256.740748 172.012655 
L 256.740748 171.485969 
L 256.898444 171.485969 
L 256.898444 170.959282 
L 257.456759 170.959282 
L 257.456759 170.432596 
L 257.600592 170.432596 
L 257.626792 169.379224 
L 257.882415 169.379224 
L 257.911097 167.799166 
L 258.090328 167.799166 
L 258.090328 167.27248 
L 258.428235 167.27248 
L 258.464018 166.219108 
L 260.098572 166.219108 
L 260.098572 165.692422 
L 260.256362 165.692422 
L 260.256362 165.165736 
L 260.82095 165.165736 
L 260.863978 163.585677 
L 261.06239 163.585677 
L 261.06239 163.058991 
L 261.174576 163.058991 
L 261.178141 162.005619 
L 261.545477 162.005619 
L 261.545477 161.478933 
L 261.690756 161.478933 
L 261.77819 159.372189 
L 262.851388 159.372189 
L 262.851388 158.845503 
L 263.120827 158.845503 
L 263.120827 158.318817 
L 263.762342 158.318817 
L 263.834292 155.1587 
L 264.262183 155.1587 
L 264.369323 153.051956 
L 265.501561 153.051956 
L 265.501561 152.52527 
L 265.786985 152.52527 
L 265.786985 151.998584 
L 266.105988 151.998584 
L 266.185498 150.418525 
L 266.36547 150.418525 
L 266.36547 149.891839 
L 266.659476 149.891839 
L 266.724972 148.838467 
L 266.774347 148.838467 
L 266.774347 148.311781 
L 267.642732 148.311781 
L 267.643039 147.258409 
L 267.78237 147.258409 
L 267.871999 146.205037 
L 268.240624 146.205037 
L 268.267844 145.151665 
L 268.391629 145.151665 
L 268.391629 144.624978 
L 268.767582 144.624978 
L 268.810108 143.571606 
L 269.752099 143.571606 
L 269.793996 142.518234 
L 270.228168 142.518234 
L 270.275745 141.464862 
L 270.364461 141.464862 
L 270.364461 140.938176 
L 271.503134 140.938176 
L 271.503134 140.41149 
L 272.035953 140.41149 
L 272.035953 139.884804 
L 273.146342 139.884804 
L 273.204684 138.831432 
L 273.390882 138.831432 
L 273.444944 137.251373 
L 273.570822 137.251373 
L 273.661886 135.671315 
L 274.523255 135.671315 
L 274.523255 135.144629 
L 275.043164 135.144629 
L 275.043164 134.617943 
L 275.193383 134.617943 
L 275.193383 134.091257 
L 275.341502 134.091257 
L 275.341502 133.564571 
L 275.795857 133.564571 
L 275.842466 132.511199 
L 275.939948 132.511199 
L 275.984457 131.457826 
L 276.308009 131.457826 
L 276.344994 130.404454 
L 277.14755 130.404454 
L 277.14755 129.877768 
L 277.7132 129.877768 
L 277.7132 129.351082 
L 278.637618 129.351082 
L 278.637618 128.824396 
L 279.402506 128.824396 
L 279.416634 127.771024 
L 279.653149 127.771024 
L 279.653149 127.244338 
L 280.487187 127.244338 
L 280.583034 126.190966 
L 280.743502 126.190966 
L 280.776398 125.137593 
L 280.922767 125.137593 
L 280.922767 124.610907 
L 281.430572 124.610907 
L 281.430572 124.084221 
L 281.638563 124.084221 
L 281.638563 123.557535 
L 281.826266 123.557535 
L 281.826266 123.030849 
L 282.323536 123.030849 
L 282.42481 121.977477 
L 283.095817 121.977477 
L 283.095817 121.450791 
L 283.275894 121.450791 
L 283.275894 120.924105 
L 284.250413 120.924105 
L 284.250413 120.397419 
L 284.984909 120.397419 
L 284.984909 119.870733 
L 285.540024 119.870733 
L 285.540024 119.344047 
L 286.558438 119.344047 
L 286.558438 118.817361 
L 287.84838 118.817361 
L 287.84838 118.290674 
L 289.10636 118.290674 
L 289.10636 117.763988 
L 290.143428 117.763988 
L 290.143428 117.237302 
L 291.900686 117.237302 
L 291.900686 116.710616 
L 292.241709 116.710616 
L 292.241709 116.18393 
L 292.48911 116.18393 
L 292.48911 115.657244 
L 301.261802 115.657244 
L 301.261802 115.130558 
L 302.446387 115.130558 
L 302.446387 114.603872 
L 338.688 114.603872 
L 338.688 114.603872 
" style="fill:none;stroke:#ff00ff;stroke-linecap:square;stroke-width:1.5;"/>
   </g>
   <g id="line2d_45">
    <defs>
     <path d="M -0 8.485281 
L 5.091169 0 
L 0 -8.485281 
L -5.091169 -0 
z
" id="mdd8dc356b3" style="stroke:#ff00ff;stroke-linejoin:miter;stroke-width:1.5;"/>
    </defs>
    <g>
     <use style="fill-opacity:0;stroke:#ff00ff;stroke-linejoin:miter;stroke-width:1.5;" x="248.599752" xlink:href="#mdd8dc356b3" y="192.026726"/>
     <use style="fill-opacity:0;stroke:#ff00ff;stroke-linejoin:miter;stroke-width:1.5;" x="302.446387" xlink:href="#mdd8dc356b3" y="115.130558"/>
     <use style="fill-opacity:0;stroke:#ff00ff;stroke-linejoin:miter;stroke-width:1.5;" x="302.446387" xlink:href="#mdd8dc356b3" y="114.603872"/>
     <use style="fill-opacity:0;stroke:#ff00ff;stroke-linejoin:miter;stroke-width:1.5;" x="338.688" xlink:href="#mdd8dc356b3" y="114.603872"/>
    </g>
   </g>
   <g id="line2d_46">
    <path style="fill:none;stroke:#ff00ff;stroke-linecap:square;stroke-width:1.5;"/>
    <g/>
   </g>
   <g id="line2d_47">
    <path clip-path="url(#p702cabd113)" d="M 230.522381 212.567483 
" style="fill:none;stroke:#ff00ff;stroke-linecap:square;stroke-width:1.5;"/>
    <defs>
     <path d="M -12 12 
L 12 -12 
M -12 -12 
L 12 12 
" id="m15c6a0697f" style="stroke:#ff00ff;"/>
    </defs>
    <g clip-path="url(#p702cabd113)">
     <use style="fill:#ff00ff;stroke:#ff00ff;" x="230.522381" xlink:href="#m15c6a0697f" y="212.567483"/>
    </g>
   </g>
   <g id="line2d_48">
    <defs>
     <path d="M 0 1.5 
C 0.397805 1.5 0.77937 1.341951 1.06066 1.06066 
C 1.341951 0.77937 1.5 0.397805 1.5 0 
C 1.5 -0.397805 1.341951 -0.77937 1.06066 -1.06066 
C 0.77937 -1.341951 0.397805 -1.5 0 -1.5 
C -0.397805 -1.5 -0.77937 -1.341951 -1.06066 -1.06066 
C -1.341951 -0.77937 -1.5 -0.397805 -1.5 0 
C -1.5 0.397805 -1.341951 0.77937 -1.06066 1.06066 
C -0.77937 1.341951 -0.397805 1.5 0 1.5 
z
" id="m77b91717ad" style="stroke:#ff0000;"/>
    </defs>
    <g>
     <use style="fill:#ff0000;stroke:#ff0000;" x="271.843957" xlink:href="#m77b91717ad" y="30.334099"/>
     <use style="fill:#ff0000;stroke:#ff0000;" x="271.843957" xlink:href="#m77b91717ad" y="30.334099"/>
    </g>
   </g>
   <g id="line2d_49">
    <path d="M 29.53256 298.944 
L 29.53256 225.207949 
L 163.168687 225.207949 
L 163.168687 224.681263 
L 173.197501 224.681263 
L 173.197501 224.154577 
L 176.74812 224.154577 
L 176.74812 223.627891 
L 187.338516 223.627891 
L 187.338516 223.101204 
L 202.282327 223.101204 
L 202.282327 222.574518 
L 203.302795 222.574518 
L 203.302795 222.047832 
L 203.522129 222.047832 
L 203.522129 221.521146 
L 206.011222 221.521146 
L 206.011222 220.99446 
L 208.906305 220.99446 
L 208.906305 220.467774 
L 210.342607 220.467774 
L 210.342607 219.941088 
L 211.289653 219.941088 
L 211.289653 219.414402 
L 211.880059 219.414402 
L 211.880059 218.36103 
L 212.752009 218.36103 
L 212.752009 217.834344 
L 214.911221 217.834344 
L 214.911221 217.307658 
L 216.328407 217.307658 
L 216.37306 216.254285 
L 216.447357 216.254285 
L 216.447357 215.727599 
L 216.780105 215.727599 
L 216.803578 214.674227 
L 217.580873 214.674227 
L 217.580873 213.620855 
L 217.716039 213.620855 
L 217.716039 212.040797 
L 217.849095 212.040797 
L 217.915955 208.88068 
L 218.026703 208.88068 
L 218.106585 205.193878 
L 218.15917 205.193878 
L 218.15917 204.140506 
L 218.287163 204.140506 
L 218.33401 202.033761 
L 218.979989 202.033761 
L 218.991673 200.980389 
L 219.105766 200.980389 
L 219.105766 198.873645 
L 219.235908 198.873645 
L 219.235908 197.820273 
L 219.359859 197.820273 
L 219.450784 193.080098 
L 219.497205 193.080098 
L 219.55643 192.026726 
L 219.648589 192.026726 
L 219.722671 188.866609 
L 219.769013 188.866609 
L 219.784964 187.813237 
L 220.280726 187.813237 
L 220.280726 187.286551 
L 220.527545 187.286551 
L 220.54526 186.233179 
L 220.951398 186.233179 
L 220.968688 185.179807 
L 221.545996 185.179807 
L 221.545996 184.653121 
L 222.300788 184.653121 
L 222.300788 184.126434 
L 222.566515 184.126434 
L 222.570864 180.966318 
L 222.717022 180.966318 
L 222.814857 176.752829 
L 222.869181 176.752829 
L 222.973076 172.012655 
L 223.004389 172.012655 
L 223.070281 170.959282 
L 223.128819 170.959282 
L 223.128819 170.432596 
L 223.29805 170.432596 
L 223.398909 167.799166 
L 223.416784 167.799166 
L 223.511554 164.63905 
L 223.534459 164.63905 
L 223.629361 161.478933 
L 223.672281 161.478933 
L 223.742819 159.898875 
L 224.34183 159.898875 
L 224.445879 154.105328 
L 224.500471 154.105328 
L 224.59971 150.945211 
L 224.623647 150.945211 
L 224.731557 148.311781 
L 224.754355 148.311781 
L 224.769696 147.258409 
L 225.09302 147.258409 
L 225.151721 146.205037 
L 225.751916 146.205037 
L 225.751916 145.678351 
L 226.055906 145.678351 
L 226.14825 144.098292 
L 226.170154 144.098292 
L 226.279263 140.938176 
L 226.379613 140.938176 
L 226.426086 139.358118 
L 226.519312 139.358118 
L 226.59975 138.304745 
L 226.640476 138.304745 
L 226.750969 136.724687 
L 226.762301 136.724687 
L 226.836947 133.037885 
L 226.876274 133.037885 
L 226.982756 131.457826 
L 226.991407 131.457826 
L 227.074321 128.824396 
L 227.145346 128.824396 
L 227.22566 127.244338 
L 227.306021 127.244338 
L 227.374254 123.557535 
L 227.433379 123.557535 
L 227.506647 121.977477 
L 227.635401 121.977477 
L 227.735945 120.397419 
L 227.757963 120.397419 
L 227.826866 118.290674 
L 227.913515 118.290674 
L 228.013468 115.657244 
L 228.068685 115.657244 
L 228.156906 111.970441 
L 228.189628 111.970441 
L 228.238596 110.390383 
L 229.626294 110.390383 
L 229.626294 109.863697 
L 230.165408 109.863697 
L 230.165408 107.230267 
L 237.178068 107.230267 
L 237.183713 106.176895 
L 237.292373 106.176895 
L 237.383048 103.543464 
L 237.438525 103.543464 
L 237.438525 103.016778 
L 237.700401 103.016778 
L 237.791029 99.856662 
L 237.812592 99.856662 
L 237.898126 96.169859 
L 237.944451 96.169859 
L 237.944451 95.643173 
L 238.618134 95.643173 
L 238.618134 95.116487 
L 239.013986 95.116487 
L 239.121533 91.95637 
L 239.153384 91.95637 
L 239.262687 90.902998 
L 239.267905 90.902998 
L 239.355225 86.68951 
L 239.413472 86.68951 
L 239.413472 86.162824 
L 239.694701 86.162824 
L 239.79956 83.002707 
L 239.821811 83.002707 
L 239.835148 81.949335 
L 240.028594 81.949335 
L 240.032588 80.895963 
L 240.521871 80.895963 
L 240.616769 78.789218 
L 240.68241 78.789218 
L 240.775963 75.629102 
L 240.845108 75.629102 
L 240.955135 73.522358 
L 240.961196 73.522358 
L 241.062872 68.782183 
L 241.222728 68.782183 
L 241.32883 63.515322 
L 241.347547 63.515322 
L 241.387138 61.935264 
L 242.346607 61.935264 
L 242.346607 61.408578 
L 246.241725 61.408578 
L 246.29829 58.775147 
L 246.353283 58.775147 
L 246.353283 58.248461 
L 246.615612 58.248461 
L 246.633746 57.195089 
L 247.30927 57.195089 
L 247.349161 56.141717 
L 247.451592 56.141717 
L 247.561143 54.034973 
L 247.572035 54.034973 
L 247.572035 53.508287 
L 247.761222 53.508287 
L 247.830004 50.874856 
L 248.28955 50.874856 
L 248.390638 49.821484 
L 248.452798 49.821484 
L 248.552763 47.71474 
L 248.573336 47.71474 
L 248.643506 46.134681 
L 248.717098 46.134681 
L 248.776595 43.501251 
L 252.124072 43.501251 
L 252.174568 41.921193 
L 252.361075 41.921193 
L 252.404505 40.867821 
L 252.92051 40.867821 
L 252.92051 40.341135 
L 253.245723 40.341135 
L 253.245723 39.814448 
L 253.650995 39.814448 
L 253.650995 39.287762 
L 253.832894 39.287762 
L 253.865994 38.23439 
L 253.973271 38.23439 
L 253.973271 37.707704 
L 256.530699 37.707704 
L 256.53601 36.654332 
L 257.145358 36.654332 
L 257.235297 34.547588 
L 257.758144 34.547588 
L 257.846352 32.967529 
L 257.959248 32.967529 
L 257.959248 32.440843 
L 261.042105 32.440843 
L 261.042105 31.914157 
L 262.981459 31.914157 
L 262.981459 31.387471 
L 265.55029 31.387471 
L 265.55029 30.860785 
L 271.843957 30.860785 
L 271.843957 30.334099 
L 338.688 30.334099 
L 338.688 30.334099 
" style="fill:none;stroke:#ff0000;stroke-linecap:square;stroke-width:1.5;"/>
   </g>
   <g id="line2d_50">
    <defs>
     <path d="M 0 -6 
L -5.196152 -3 
L -5.196152 3 
L -0 6 
L 5.196152 3 
L 5.196152 -3 
z
" id="mc5fdaa7247" style="stroke:#ff0000;stroke-linejoin:miter;stroke-width:1.5;"/>
    </defs>
    <g>
     <use style="fill-opacity:0;stroke:#ff0000;stroke-linejoin:miter;stroke-width:1.5;" x="176.74812" xlink:href="#mc5fdaa7247" y="223.627891"/>
     <use style="fill-opacity:0;stroke:#ff0000;stroke-linejoin:miter;stroke-width:1.5;" x="230.165408" xlink:href="#mc5fdaa7247" y="107.230267"/>
     <use style="fill-opacity:0;stroke:#ff0000;stroke-linejoin:miter;stroke-width:1.5;" x="271.843957" xlink:href="#mc5fdaa7247" y="30.860785"/>
     <use style="fill-opacity:0;stroke:#ff0000;stroke-linejoin:miter;stroke-width:1.5;" x="271.843957" xlink:href="#mc5fdaa7247" y="30.334099"/>
     <use style="fill-opacity:0;stroke:#ff0000;stroke-linejoin:miter;stroke-width:1.5;" x="338.688" xlink:href="#mc5fdaa7247" y="30.334099"/>
    </g>
   </g>
   <g id="line2d_51">
    <path style="fill:none;stroke:#ff0000;stroke-linecap:square;stroke-width:1.5;"/>
    <g/>
   </g>
   <g id="line2d_52">
    <path clip-path="url(#p702cabd113)" d="M 230.330443 107.230267 
" style="fill:none;stroke:#ff0000;stroke-linecap:square;stroke-width:1.5;"/>
    <defs>
     <path d="M -12 12 
L 12 -12 
M -12 -12 
L 12 12 
" id="m4b278d7b25" style="stroke:#ff0000;"/>
    </defs>
    <g clip-path="url(#p702cabd113)">
     <use style="fill:#ff0000;stroke:#ff0000;" x="230.330443" xlink:href="#m4b278d7b25" y="107.230267"/>
    </g>
   </g>
   <g id="line2d_53">
    <defs>
     <path d="M 0 1.5 
C 0.397805 1.5 0.77937 1.341951 1.06066 1.06066 
C 1.341951 0.77937 1.5 0.397805 1.5 0 
C 1.5 -0.397805 1.341951 -0.77937 1.06066 -1.06066 
C 0.77937 -1.341951 0.397805 -1.5 0 -1.5 
C -0.397805 -1.5 -0.77937 -1.341951 -1.06066 -1.06066 
C -1.341951 -0.77937 -1.5 -0.397805 -1.5 0 
C -1.5 0.397805 -1.341951 0.77937 -1.06066 1.06066 
C -0.77937 1.341951 -0.397805 1.5 0 1.5 
z
" id="m6edf5042c8" style="stroke:#ff7500;"/>
    </defs>
    <g>
     <use style="fill:#ff7500;stroke:#ff7500;" x="260.845066" xlink:href="#m6edf5042c8" y="30.334099"/>
     <use style="fill:#ff7500;stroke:#ff7500;" x="260.845066" xlink:href="#m6edf5042c8" y="30.334099"/>
    </g>
   </g>
   <g id="line2d_54">
    <path d="M 29.53256 298.944 
L 29.53256 225.207949 
L 161.636364 225.207949 
L 161.636364 224.681263 
L 162.034438 224.681263 
L 162.034438 224.154577 
L 162.243086 224.154577 
L 162.243086 223.627891 
L 172.03938 223.627891 
L 172.03938 223.101204 
L 173.114303 223.101204 
L 173.114303 222.574518 
L 187.092903 222.574518 
L 187.092903 222.047832 
L 187.517947 222.047832 
L 187.517947 221.521146 
L 195.039516 221.521146 
L 195.039516 220.99446 
L 195.2439 220.99446 
L 195.2439 220.467774 
L 195.365908 220.467774 
L 195.365908 219.941088 
L 195.520433 219.941088 
L 195.520433 219.414402 
L 195.639255 219.414402 
L 195.709147 218.36103 
L 195.819134 218.36103 
L 195.924675 216.254285 
L 195.980953 216.254285 
L 196.063167 214.674227 
L 196.180828 214.674227 
L 196.180828 213.620855 
L 196.298928 213.620855 
L 196.399175 212.040797 
L 196.502485 212.040797 
L 196.50612 210.987425 
L 196.682118 210.987425 
L 196.692909 209.934052 
L 196.84923 209.934052 
L 196.84923 209.407366 
L 201.075785 209.407366 
L 201.075785 208.353994 
L 201.335808 208.353994 
L 201.416448 204.667192 
L 201.493987 204.667192 
L 201.588391 203.087133 
L 201.666071 203.087133 
L 201.70748 201.507075 
L 201.783738 201.507075 
L 201.890832 197.820273 
L 202.004345 197.820273 
L 202.038785 195.186842 
L 202.130293 195.186842 
L 202.135557 193.606784 
L 202.970624 193.606784 
L 202.970624 193.080098 
L 203.554509 193.080098 
L 203.554509 192.553412 
L 203.759533 192.553412 
L 203.802642 191.50004 
L 203.911536 191.50004 
L 203.911536 190.973354 
L 204.613519 190.973354 
L 204.613519 190.446667 
L 204.791469 190.446667 
L 204.791469 189.919981 
L 207.116299 189.919981 
L 207.116299 189.393295 
L 207.312992 189.393295 
L 207.337098 188.339923 
L 209.362624 188.339923 
L 209.362624 187.813237 
L 213.545986 187.813237 
L 213.545986 187.286551 
L 214.661484 187.286551 
L 214.661484 185.706493 
L 214.935663 185.706493 
L 214.935663 185.179807 
L 215.587415 185.179807 
L 215.587415 184.653121 
L 215.921699 184.653121 
L 215.962641 183.599748 
L 217.187121 183.599748 
L 217.294858 180.966318 
L 217.391328 180.966318 
L 217.491633 177.806202 
L 217.548277 177.806202 
L 217.648407 174.119399 
L 217.699874 174.119399 
L 217.75119 171.485969 
L 218.241584 171.485969 
L 218.241584 170.959282 
L 219.062612 170.959282 
L 219.062612 170.432596 
L 220.093761 170.432596 
L 220.093761 169.90591 
L 221.132978 169.90591 
L 221.150384 168.852538 
L 221.754592 168.852538 
L 221.812032 167.799166 
L 221.922398 167.799166 
L 222.006261 166.219108 
L 222.040759 166.219108 
L 222.124614 162.532305 
L 222.154982 162.532305 
L 222.234411 159.372189 
L 222.267631 159.372189 
L 222.33581 155.685386 
L 222.385328 155.685386 
L 222.477386 151.998584 
L 222.555909 151.998584 
L 222.647344 149.891839 
L 222.690048 149.891839 
L 222.787766 147.785095 
L 222.813785 147.785095 
L 222.87025 146.731723 
L 224.544216 146.731723 
L 224.544216 146.205037 
L 224.843815 146.205037 
L 224.940651 145.151665 
L 224.98307 145.151665 
L 225.093961 141.991548 
L 225.214898 141.991548 
L 225.322936 136.724687 
L 225.347756 136.724687 
L 225.453594 134.091257 
L 225.474547 134.091257 
L 225.532668 133.037885 
L 226.162413 133.037885 
L 226.162413 132.511199 
L 226.378083 132.511199 
L 226.378083 131.984513 
L 227.302291 131.984513 
L 227.411977 129.351082 
L 227.415477 129.351082 
L 227.522205 127.244338 
L 227.572673 127.244338 
L 227.674187 125.137593 
L 227.730284 125.137593 
L 227.766843 122.504163 
L 227.863424 122.504163 
L 227.911915 121.450791 
L 228.812505 121.450791 
L 228.812505 120.924105 
L 228.956707 120.924105 
L 229.034744 118.817361 
L 229.193868 118.817361 
L 229.193868 118.290674 
L 229.424911 118.290674 
L 229.491384 116.18393 
L 229.549044 116.18393 
L 229.655107 112.497128 
L 229.691643 112.497128 
L 229.761428 110.917069 
L 229.858696 110.917069 
L 229.864422 109.863697 
L 230.103401 109.863697 
L 230.166287 108.810325 
L 232.568716 108.810325 
L 232.666492 104.596836 
L 232.700585 104.596836 
L 232.700585 104.07015 
L 233.344789 104.07015 
L 233.442693 100.383348 
L 233.464973 100.383348 
L 233.485626 98.276603 
L 233.823059 98.276603 
L 233.823059 97.749917 
L 236.661427 97.749917 
L 236.661427 97.223231 
L 237.116089 97.223231 
L 237.211206 93.009743 
L 238.408623 93.009743 
L 238.415088 91.95637 
L 238.641078 91.95637 
L 238.750297 89.32294 
L 238.757282 89.32294 
L 238.817558 85.636137 
L 238.871009 85.636137 
L 238.949712 81.422649 
L 239.063673 81.422649 
L 239.096157 80.369277 
L 239.979481 80.369277 
L 240.05235 78.789218 
L 240.098572 78.789218 
L 240.188769 76.155788 
L 240.969053 76.155788 
L 241.070213 72.995672 
L 241.089492 72.995672 
L 241.188182 70.888927 
L 241.239416 70.888927 
L 241.239416 70.362241 
L 241.680334 70.362241 
L 241.781167 68.782183 
L 241.857963 68.782183 
L 241.857963 68.255497 
L 241.975831 68.255497 
L 242.059868 62.988636 
L 242.116495 62.988636 
L 242.177708 61.408578 
L 244.043019 61.408578 
L 244.073382 59.82852 
L 244.216791 59.82852 
L 244.317448 58.775147 
L 245.871438 58.775147 
L 245.871438 58.248461 
L 246.131279 58.248461 
L 246.198724 54.561659 
L 247.156753 54.561659 
L 247.244805 51.401542 
L 247.291036 51.401542 
L 247.29479 50.34817 
L 247.867576 50.34817 
L 247.97373 46.661368 
L 247.981898 46.661368 
L 247.981898 46.134681 
L 248.652281 46.134681 
L 248.709449 44.027937 
L 249.237569 44.027937 
L 249.237864 42.974565 
L 250.265125 42.974565 
L 250.317583 41.394507 
L 251.859188 41.394507 
L 251.882842 40.341135 
L 252.80668 40.341135 
L 252.88241 38.761076 
L 253.363197 38.761076 
L 253.363197 38.23439 
L 253.868885 38.23439 
L 253.899256 37.181018 
L 254.280922 37.181018 
L 254.280922 36.654332 
L 255.329111 36.654332 
L 255.345263 35.074274 
L 256.439965 35.074274 
L 256.439965 34.547588 
L 257.44061 34.547588 
L 257.49503 33.494215 
L 257.931218 33.494215 
L 257.931218 32.967529 
L 258.888495 32.967529 
L 258.888495 32.440843 
L 260.462696 32.440843 
L 260.475751 31.387471 
L 260.801384 31.387471 
L 260.845066 30.334099 
L 338.688 30.334099 
L 338.688 30.334099 
" style="fill:none;stroke:#ff7500;stroke-linecap:square;stroke-width:1.5;"/>
   </g>
   <g id="line2d_55">
    <defs>
     <path d="M 0 -6 
L -1.347084 -1.854102 
L -5.706339 -1.854102 
L -2.179628 0.708204 
L -3.526712 4.854102 
L -0 2.291796 
L 3.526712 4.854102 
L 2.179628 0.708204 
L 5.706339 -1.854102 
L 1.347084 -1.854102 
z
" id="m61ef50ae3d" style="stroke:#ff7500;stroke-linejoin:bevel;stroke-width:1.5;"/>
    </defs>
    <g>
     <use style="fill-opacity:0;stroke:#ff7500;stroke-linejoin:bevel;stroke-width:1.5;" x="225.093961" xlink:href="#m61ef50ae3d" y="144.098292"/>
     <use style="fill-opacity:0;stroke:#ff7500;stroke-linejoin:bevel;stroke-width:1.5;" x="260.845066" xlink:href="#m61ef50ae3d" y="30.860785"/>
     <use style="fill-opacity:0;stroke:#ff7500;stroke-linejoin:bevel;stroke-width:1.5;" x="260.845066" xlink:href="#m61ef50ae3d" y="30.334099"/>
     <use style="fill-opacity:0;stroke:#ff7500;stroke-linejoin:bevel;stroke-width:1.5;" x="338.688" xlink:href="#m61ef50ae3d" y="30.334099"/>
    </g>
   </g>
   <g id="line2d_56">
    <path style="fill:none;stroke:#ff7500;stroke-linecap:square;stroke-width:1.5;"/>
    <g/>
   </g>
   <g id="line2d_57">
    <path clip-path="url(#p702cabd113)" d="M 230.323474 108.810325 
" style="fill:none;stroke:#ff7500;stroke-linecap:square;stroke-width:1.5;"/>
    <defs>
     <path d="M -12 12 
L 12 -12 
M -12 -12 
L 12 12 
" id="mb22a26b954" style="stroke:#ff7500;"/>
    </defs>
    <g clip-path="url(#p702cabd113)">
     <use style="fill:#ff7500;stroke:#ff7500;" x="230.323474" xlink:href="#mb22a26b954" y="108.810325"/>
    </g>
   </g>
   <g id="line2d_58">
    <path d="M 338.688 114.603872 
L 369.60768 293.571802 
" style="fill:none;stroke:#ff00ff;stroke-linecap:square;stroke-width:1.5;"/>
    <g>
     <use style="fill-opacity:0;stroke:#ff00ff;stroke-linejoin:miter;stroke-width:1.5;" x="338.688" xlink:href="#mdd8dc356b3" y="114.603872"/>
     <use style="fill-opacity:0;stroke:#ff00ff;stroke-linejoin:miter;stroke-width:1.5;" x="369.60768" xlink:href="#mdd8dc356b3" y="293.571802"/>
    </g>
   </g>
   <g id="line2d_59">
    <path d="M 338.688 30.334099 
L 369.60768 241.998701 
" style="fill:none;stroke:#ff0000;stroke-linecap:square;stroke-width:1.5;"/>
    <g>
     <use style="fill-opacity:0;stroke:#ff0000;stroke-linejoin:miter;stroke-width:1.5;" x="338.688" xlink:href="#mc5fdaa7247" y="30.334099"/>
     <use style="fill-opacity:0;stroke:#ff0000;stroke-linejoin:miter;stroke-width:1.5;" x="369.60768" xlink:href="#mc5fdaa7247" y="241.998701"/>
    </g>
   </g>
   <g id="line2d_60">
    <path d="M 338.688 30.334099 
L 369.60768 190.4256 
" style="fill:none;stroke:#ff7500;stroke-linecap:square;stroke-width:1.5;"/>
    <g>
     <use style="fill-opacity:0;stroke:#ff7500;stroke-linejoin:bevel;stroke-width:1.5;" x="338.688" xlink:href="#m61ef50ae3d" y="30.334099"/>
     <use style="fill-opacity:0;stroke:#ff7500;stroke-linejoin:bevel;stroke-width:1.5;" x="369.60768" xlink:href="#m61ef50ae3d" y="190.4256"/>
    </g>
   </g>
   <g id="line2d_61">
    <path d="M 338.688 30.334099 
L 369.60768 138.852499 
" style="fill:none;stroke:#000080;stroke-linecap:square;stroke-width:1.5;"/>
    <g>
     <use style="fill-opacity:0;stroke:#000080;stroke-width:1.5;" x="338.688" xlink:href="#ma38aabcdb8" y="30.334099"/>
     <use style="fill-opacity:0;stroke:#000080;stroke-width:1.5;" x="369.60768" xlink:href="#ma38aabcdb8" y="138.852499"/>
    </g>
   </g>
   <g id="line2d_62">
    <path d="M 338.688 30.334099 
L 369.60768 87.279398 
" style="fill:none;stroke:#000080;stroke-linecap:square;stroke-width:1.5;"/>
    <g>
     <use style="fill-opacity:0;stroke:#000080;stroke-width:1.5;" x="338.688" xlink:href="#ma38aabcdb8" y="30.334099"/>
     <use style="fill-opacity:0;stroke:#000080;stroke-width:1.5;" x="369.60768" xlink:href="#ma38aabcdb8" y="87.279398"/>
    </g>
   </g>
   <g id="line2d_63">
    <path d="M 338.688 298.944 
L 338.688 30.334099 
" style="fill:none;stroke:#000000;stroke-linecap:square;stroke-width:1.5;"/>
   </g>
   <g id="patch_3">
    <path d="M 57.6 298.944 
L 57.6 27.648 
" style="fill:none;stroke:#000000;stroke-linecap:square;stroke-linejoin:miter;stroke-width:0.8;"/>
   </g>
   <g id="patch_4">
    <path d="M 338.688 298.944 
L 338.688 27.648 
" style="fill:none;stroke:#000000;stroke-linecap:square;stroke-linejoin:miter;stroke-width:0.8;"/>
   </g>
   <g id="patch_5">
    <path d="M 57.6 298.944 
L 338.688 298.944 
" style="fill:none;stroke:#000000;stroke-linecap:square;stroke-linejoin:miter;stroke-width:0.8;"/>
   </g>
   <g id="patch_6">
    <path d="M 57.6 27.648 
L 338.688 27.648 
" style="fill:none;stroke:#000000;stroke-linecap:square;stroke-linejoin:miter;stroke-width:0.8;"/>
   </g>
   <g id="text_13">
    <!-- 400s-2e4 -->
    <g transform="translate(375.22944 298.262739)scale(0.17 -0.17)">
     <use xlink:href="#DejaVuSans-52"/>
     <use x="63.623047" xlink:href="#DejaVuSans-48"/>
     <use x="127.246094" xlink:href="#DejaVuSans-48"/>
     <use x="190.869141" xlink:href="#DejaVuSans-115"/>
     <use x="242.96875" xlink:href="#DejaVuSans-45"/>
     <use x="279.052734" xlink:href="#DejaVuSans-50"/>
     <use x="342.675781" xlink:href="#DejaVuSans-101"/>
     <use x="404.199219" xlink:href="#DejaVuSans-52"/>
    </g>
   </g>
   <g id="text_14">
    <!-- 200s-2e4 -->
    <g transform="translate(375.22944 246.689638)scale(0.17 -0.17)">
     <use xlink:href="#DejaVuSans-50"/>
     <use x="63.623047" xlink:href="#DejaVuSans-48"/>
     <use x="127.246094" xlink:href="#DejaVuSans-48"/>
     <use x="190.869141" xlink:href="#DejaVuSans-115"/>
     <use x="242.96875" xlink:href="#DejaVuSans-45"/>
     <use x="279.052734" xlink:href="#DejaVuSans-50"/>
     <use x="342.675781" xlink:href="#DejaVuSans-101"/>
     <use x="404.199219" xlink:href="#DejaVuSans-52"/>
    </g>
   </g>
   <g id="text_15">
    <!-- 140s-2e4 -->
    <g transform="translate(375.22944 195.116537)scale(0.17 -0.17)">
     <use xlink:href="#DejaVuSans-49"/>
     <use x="63.623047" xlink:href="#DejaVuSans-52"/>
     <use x="127.246094" xlink:href="#DejaVuSans-48"/>
     <use x="190.869141" xlink:href="#DejaVuSans-115"/>
     <use x="242.96875" xlink:href="#DejaVuSans-45"/>
     <use x="279.052734" xlink:href="#DejaVuSans-50"/>
     <use x="342.675781" xlink:href="#DejaVuSans-101"/>
     <use x="404.199219" xlink:href="#DejaVuSans-52"/>
    </g>
   </g>
   <g id="text_16">
    <!-- 100-2e4 -->
    <g transform="translate(375.22944 143.543437)scale(0.17 -0.17)">
     <use xlink:href="#DejaVuSans-49"/>
     <use x="63.623047" xlink:href="#DejaVuSans-48"/>
     <use x="127.246094" xlink:href="#DejaVuSans-48"/>
     <use x="190.869141" xlink:href="#DejaVuSans-45"/>
     <use x="226.953125" xlink:href="#DejaVuSans-50"/>
     <use x="290.576172" xlink:href="#DejaVuSans-101"/>
     <use x="352.099609" xlink:href="#DejaVuSans-52"/>
    </g>
   </g>
   <g id="text_17">
    <!-- 100-1e5 -->
    <defs>
     <path d="M 10.796875 72.90625 
L 49.515625 72.90625 
L 49.515625 64.59375 
L 19.828125 64.59375 
L 19.828125 46.734375 
Q 21.96875 47.46875 24.109375 47.828125 
Q 26.265625 48.1875 28.421875 48.1875 
Q 40.625 48.1875 47.75 41.5 
Q 54.890625 34.8125 54.890625 23.390625 
Q 54.890625 11.625 47.5625 5.09375 
Q 40.234375 -1.421875 26.90625 -1.421875 
Q 22.3125 -1.421875 17.546875 -0.640625 
Q 12.796875 0.140625 7.71875 1.703125 
L 7.71875 11.625 
Q 12.109375 9.234375 16.796875 8.0625 
Q 21.484375 6.890625 26.703125 6.890625 
Q 35.15625 6.890625 40.078125 11.328125 
Q 45.015625 15.765625 45.015625 23.390625 
Q 45.015625 31 40.078125 35.4375 
Q 35.15625 39.890625 26.703125 39.890625 
Q 22.75 39.890625 18.8125 39.015625 
Q 14.890625 38.140625 10.796875 36.28125 
z
" id="DejaVuSans-53"/>
    </defs>
    <g transform="translate(375.22944 91.970336)scale(0.17 -0.17)">
     <use xlink:href="#DejaVuSans-49"/>
     <use x="63.623047" xlink:href="#DejaVuSans-48"/>
     <use x="127.246094" xlink:href="#DejaVuSans-48"/>
     <use x="190.869141" xlink:href="#DejaVuSans-45"/>
     <use x="226.953125" xlink:href="#DejaVuSans-49"/>
     <use x="290.576172" xlink:href="#DejaVuSans-101"/>
     <use x="352.099609" xlink:href="#DejaVuSans-53"/>
    </g>
   </g>
   <g id="text_18">
    <!-- best 2009 -->
    <defs>
     <path d="M 48.6875 27.296875 
Q 48.6875 37.203125 44.609375 42.84375 
Q 40.53125 48.484375 33.40625 48.484375 
Q 26.265625 48.484375 22.1875 42.84375 
Q 18.109375 37.203125 18.109375 27.296875 
Q 18.109375 17.390625 22.1875 11.75 
Q 26.265625 6.109375 33.40625 6.109375 
Q 40.53125 6.109375 44.609375 11.75 
Q 48.6875 17.390625 48.6875 27.296875 
z
M 18.109375 46.390625 
Q 20.953125 51.265625 25.265625 53.625 
Q 29.59375 56 35.59375 56 
Q 45.5625 56 51.78125 48.09375 
Q 58.015625 40.1875 58.015625 27.296875 
Q 58.015625 14.40625 51.78125 6.484375 
Q 45.5625 -1.421875 35.59375 -1.421875 
Q 29.59375 -1.421875 25.265625 0.953125 
Q 20.953125 3.328125 18.109375 8.203125 
L 18.109375 0 
L 9.078125 0 
L 9.078125 75.984375 
L 18.109375 75.984375 
z
" id="DejaVuSans-98"/>
     <path d="M 10.984375 1.515625 
L 10.984375 10.5 
Q 14.703125 8.734375 18.5 7.8125 
Q 22.3125 6.890625 25.984375 6.890625 
Q 35.75 6.890625 40.890625 13.453125 
Q 46.046875 20.015625 46.78125 33.40625 
Q 43.953125 29.203125 39.59375 26.953125 
Q 35.25 24.703125 29.984375 24.703125 
Q 19.046875 24.703125 12.671875 31.3125 
Q 6.296875 37.9375 6.296875 49.421875 
Q 6.296875 60.640625 12.9375 67.421875 
Q 19.578125 74.21875 30.609375 74.21875 
Q 43.265625 74.21875 49.921875 64.515625 
Q 56.59375 54.828125 56.59375 36.375 
Q 56.59375 19.140625 48.40625 8.859375 
Q 40.234375 -1.421875 26.421875 -1.421875 
Q 22.703125 -1.421875 18.890625 -0.6875 
Q 15.09375 0.046875 10.984375 1.515625 
z
M 30.609375 32.421875 
Q 37.25 32.421875 41.125 36.953125 
Q 45.015625 41.5 45.015625 49.421875 
Q 45.015625 57.28125 41.125 61.84375 
Q 37.25 66.40625 30.609375 66.40625 
Q 23.96875 66.40625 20.09375 61.84375 
Q 16.21875 57.28125 16.21875 49.421875 
Q 16.21875 41.5 20.09375 36.953125 
Q 23.96875 32.421875 30.609375 32.421875 
z
" id="DejaVuSans-57"/>
    </defs>
    <g transform="translate(375.22944 40.397235)scale(0.17 -0.17)">
     <use xlink:href="#DejaVuSans-98"/>
     <use x="63.476562" xlink:href="#DejaVuSans-101"/>
     <use x="125" xlink:href="#DejaVuSans-115"/>
     <use x="177.099609" xlink:href="#DejaVuSans-116"/>
     <use x="216.308594" xlink:href="#DejaVuSans-32"/>
     <use x="248.095703" xlink:href="#DejaVuSans-50"/>
     <use x="311.71875" xlink:href="#DejaVuSans-48"/>
     <use x="375.341797" xlink:href="#DejaVuSans-48"/>
     <use x="438.964844" xlink:href="#DejaVuSans-57"/>
    </g>
   </g>
   <g id="text_19">
    <!-- bbob f19, 5-D -->
    <defs>
     <path d="M 19.671875 64.796875 
L 19.671875 8.109375 
L 31.59375 8.109375 
Q 46.6875 8.109375 53.6875 14.9375 
Q 60.6875 21.78125 60.6875 36.53125 
Q 60.6875 51.171875 53.6875 57.984375 
Q 46.6875 64.796875 31.59375 64.796875 
z
M 9.8125 72.90625 
L 30.078125 72.90625 
Q 51.265625 72.90625 61.171875 64.09375 
Q 71.09375 55.28125 71.09375 36.53125 
Q 71.09375 17.671875 61.125 8.828125 
Q 51.171875 0 30.078125 0 
L 9.8125 0 
z
" id="DejaVuSans-68"/>
    </defs>
    <g transform="translate(60.41088 38.111366)scale(0.102 -0.102)">
     <use xlink:href="#DejaVuSans-98"/>
     <use x="63.476562" xlink:href="#DejaVuSans-98"/>
     <use x="126.953125" xlink:href="#DejaVuSans-111"/>
     <use x="188.134766" xlink:href="#DejaVuSans-98"/>
     <use x="251.611328" xlink:href="#DejaVuSans-32"/>
     <use x="283.398438" xlink:href="#DejaVuSans-102"/>
     <use x="318.603516" xlink:href="#DejaVuSans-49"/>
     <use x="382.226562" xlink:href="#DejaVuSans-57"/>
     <use x="445.849609" xlink:href="#DejaVuSans-44"/>
     <use x="477.636719" xlink:href="#DejaVuSans-32"/>
     <use x="509.423828" xlink:href="#DejaVuSans-53"/>
     <use x="573.046875" xlink:href="#DejaVuSans-45"/>
     <use x="609.130859" xlink:href="#DejaVuSans-68"/>
    </g>
    <!-- 51 targets: 100..1e-08 -->
    <defs>
     <path d="M 11.71875 12.40625 
L 22.015625 12.40625 
L 22.015625 0 
L 11.71875 0 
z
M 11.71875 51.703125 
L 22.015625 51.703125 
L 22.015625 39.3125 
L 11.71875 39.3125 
z
" id="DejaVuSans-58"/>
    </defs>
    <g transform="translate(60.41088 49.533135)scale(0.102 -0.102)">
     <use xlink:href="#DejaVuSans-53"/>
     <use x="63.623047" xlink:href="#DejaVuSans-49"/>
     <use x="127.246094" xlink:href="#DejaVuSans-32"/>
     <use x="159.033203" xlink:href="#DejaVuSans-116"/>
     <use x="198.242188" xlink:href="#DejaVuSans-97"/>
     <use x="259.521484" xlink:href="#DejaVuSans-114"/>
     <use x="300.619141" xlink:href="#DejaVuSans-103"/>
     <use x="364.095703" xlink:href="#DejaVuSans-101"/>
     <use x="425.619141" xlink:href="#DejaVuSans-116"/>
     <use x="464.828125" xlink:href="#DejaVuSans-115"/>
     <use x="516.927734" xlink:href="#DejaVuSans-58"/>
     <use x="550.619141" xlink:href="#DejaVuSans-32"/>
     <use x="582.40625" xlink:href="#DejaVuSans-49"/>
     <use x="646.029297" xlink:href="#DejaVuSans-48"/>
     <use x="709.652344" xlink:href="#DejaVuSans-48"/>
     <use x="773.275391" xlink:href="#DejaVuSans-46"/>
     <use x="805.0625" xlink:href="#DejaVuSans-46"/>
     <use x="836.849609" xlink:href="#DejaVuSans-49"/>
     <use x="900.472656" xlink:href="#DejaVuSans-101"/>
     <use x="961.996094" xlink:href="#DejaVuSans-45"/>
     <use x="998.080078" xlink:href="#DejaVuSans-48"/>
     <use x="1061.703125" xlink:href="#DejaVuSans-56"/>
    </g>
    <!-- 15 instances -->
    <g transform="translate(60.41088 60.954904)scale(0.102 -0.102)">
     <use xlink:href="#DejaVuSans-49"/>
     <use x="63.623047" xlink:href="#DejaVuSans-53"/>
     <use x="127.246094" xlink:href="#DejaVuSans-32"/>
     <use x="159.033203" xlink:href="#DejaVuSans-105"/>
     <use x="186.816406" xlink:href="#DejaVuSans-110"/>
     <use x="250.195312" xlink:href="#DejaVuSans-115"/>
     <use x="302.294922" xlink:href="#DejaVuSans-116"/>
     <use x="341.503906" xlink:href="#DejaVuSans-97"/>
     <use x="402.783203" xlink:href="#DejaVuSans-110"/>
     <use x="466.162109" xlink:href="#DejaVuSans-99"/>
     <use x="521.142578" xlink:href="#DejaVuSans-101"/>
     <use x="582.666016" xlink:href="#DejaVuSans-115"/>
    </g>
   </g>
   <g id="text_20">
    <!-- v2.3.3.18.73 -->
    <defs>
     <path d="M 40.578125 39.3125 
Q 47.65625 37.796875 51.625 33 
Q 55.609375 28.21875 55.609375 21.1875 
Q 55.609375 10.40625 48.1875 4.484375 
Q 40.765625 -1.421875 27.09375 -1.421875 
Q 22.515625 -1.421875 17.65625 -0.515625 
Q 12.796875 0.390625 7.625 2.203125 
L 7.625 11.71875 
Q 11.71875 9.328125 16.59375 8.109375 
Q 21.484375 6.890625 26.8125 6.890625 
Q 36.078125 6.890625 40.9375 10.546875 
Q 45.796875 14.203125 45.796875 21.1875 
Q 45.796875 27.640625 41.28125 31.265625 
Q 36.765625 34.90625 28.71875 34.90625 
L 20.21875 34.90625 
L 20.21875 43.015625 
L 29.109375 43.015625 
Q 36.375 43.015625 40.234375 45.921875 
Q 44.09375 48.828125 44.09375 54.296875 
Q 44.09375 59.90625 40.109375 62.90625 
Q 36.140625 65.921875 28.71875 65.921875 
Q 24.65625 65.921875 20.015625 65.03125 
Q 15.375 64.15625 9.8125 62.3125 
L 9.8125 71.09375 
Q 15.4375 72.65625 20.34375 73.4375 
Q 25.25 74.21875 29.59375 74.21875 
Q 40.828125 74.21875 47.359375 69.109375 
Q 53.90625 64.015625 53.90625 55.328125 
Q 53.90625 49.265625 50.4375 45.09375 
Q 46.96875 40.921875 40.578125 39.3125 
z
" id="DejaVuSans-51"/>
     <path d="M 8.203125 72.90625 
L 55.078125 72.90625 
L 55.078125 68.703125 
L 28.609375 0 
L 18.3125 0 
L 43.21875 64.59375 
L 8.203125 64.59375 
z
" id="DejaVuSans-55"/>
    </defs>
    <g style="fill:#808080;" transform="translate(166.559625 294.151352)scale(0.1 -0.1)">
     <use xlink:href="#DejaVuSans-118"/>
     <use x="59.179688" xlink:href="#DejaVuSans-50"/>
     <use x="122.802734" xlink:href="#DejaVuSans-46"/>
     <use x="154.589844" xlink:href="#DejaVuSans-51"/>
     <use x="218.212891" xlink:href="#DejaVuSans-46"/>
     <use x="250" xlink:href="#DejaVuSans-51"/>
     <use x="313.623047" xlink:href="#DejaVuSans-46"/>
     <use x="345.410156" xlink:href="#DejaVuSans-49"/>
     <use x="409.033203" xlink:href="#DejaVuSans-56"/>
     <use x="472.65625" xlink:href="#DejaVuSans-46"/>
     <use x="504.443359" xlink:href="#DejaVuSans-55"/>
     <use x="568.066406" xlink:href="#DejaVuSans-51"/>
    </g>
   </g>
   <g id="text_21">
    <!-- 19 Griewank-Rosenbrock F8F2 -->
    <defs>
     <path d="M 59.515625 10.40625 
L 59.515625 29.984375 
L 43.40625 29.984375 
L 43.40625 38.09375 
L 69.28125 38.09375 
L 69.28125 6.78125 
Q 63.578125 2.734375 56.6875 0.65625 
Q 49.8125 -1.421875 42 -1.421875 
Q 24.90625 -1.421875 15.25 8.5625 
Q 5.609375 18.5625 5.609375 36.375 
Q 5.609375 54.25 15.25 64.234375 
Q 24.90625 74.21875 42 74.21875 
Q 49.125 74.21875 55.546875 72.453125 
Q 61.96875 70.703125 67.390625 67.28125 
L 67.390625 56.78125 
Q 61.921875 61.421875 55.765625 63.765625 
Q 49.609375 66.109375 42.828125 66.109375 
Q 29.4375 66.109375 22.71875 58.640625 
Q 16.015625 51.171875 16.015625 36.375 
Q 16.015625 21.625 22.71875 14.15625 
Q 29.4375 6.6875 42.828125 6.6875 
Q 48.046875 6.6875 52.140625 7.59375 
Q 56.25 8.5 59.515625 10.40625 
z
" id="DejaVuSans-71"/>
     <path d="M 4.203125 54.6875 
L 13.1875 54.6875 
L 24.421875 12.015625 
L 35.59375 54.6875 
L 46.1875 54.6875 
L 57.421875 12.015625 
L 68.609375 54.6875 
L 77.59375 54.6875 
L 63.28125 0 
L 52.6875 0 
L 40.921875 44.828125 
L 29.109375 0 
L 18.5 0 
z
" id="DejaVuSans-119"/>
     <path d="M 9.078125 75.984375 
L 18.109375 75.984375 
L 18.109375 31.109375 
L 44.921875 54.6875 
L 56.390625 54.6875 
L 27.390625 29.109375 
L 57.625 0 
L 45.90625 0 
L 18.109375 26.703125 
L 18.109375 0 
L 9.078125 0 
z
" id="DejaVuSans-107"/>
     <path d="M 44.390625 34.1875 
Q 47.5625 33.109375 50.5625 29.59375 
Q 53.5625 26.078125 56.59375 19.921875 
L 66.609375 0 
L 56 0 
L 46.6875 18.703125 
Q 43.0625 26.03125 39.671875 28.421875 
Q 36.28125 30.8125 30.421875 30.8125 
L 19.671875 30.8125 
L 19.671875 0 
L 9.8125 0 
L 9.8125 72.90625 
L 32.078125 72.90625 
Q 44.578125 72.90625 50.734375 67.671875 
Q 56.890625 62.453125 56.890625 51.90625 
Q 56.890625 45.015625 53.6875 40.46875 
Q 50.484375 35.9375 44.390625 34.1875 
z
M 19.671875 64.796875 
L 19.671875 38.921875 
L 32.078125 38.921875 
Q 39.203125 38.921875 42.84375 42.21875 
Q 46.484375 45.515625 46.484375 51.90625 
Q 46.484375 58.296875 42.84375 61.546875 
Q 39.203125 64.796875 32.078125 64.796875 
z
" id="DejaVuSans-82"/>
    </defs>
    <g transform="translate(45.376812 21.648)scale(0.2 -0.2)">
     <use xlink:href="#DejaVuSans-49"/>
     <use x="63.623047" xlink:href="#DejaVuSans-57"/>
     <use x="127.246094" xlink:href="#DejaVuSans-32"/>
     <use x="159.033203" xlink:href="#DejaVuSans-71"/>
     <use x="236.523438" xlink:href="#DejaVuSans-114"/>
     <use x="277.636719" xlink:href="#DejaVuSans-105"/>
     <use x="305.419922" xlink:href="#DejaVuSans-101"/>
     <use x="366.943359" xlink:href="#DejaVuSans-119"/>
     <use x="448.730469" xlink:href="#DejaVuSans-97"/>
     <use x="510.009766" xlink:href="#DejaVuSans-110"/>
     <use x="573.388672" xlink:href="#DejaVuSans-107"/>
     <use x="631.298828" xlink:href="#DejaVuSans-45"/>
     <use x="667.382812" xlink:href="#DejaVuSans-82"/>
     <use x="736.802734" xlink:href="#DejaVuSans-111"/>
     <use x="797.984375" xlink:href="#DejaVuSans-115"/>
     <use x="850.083984" xlink:href="#DejaVuSans-101"/>
     <use x="911.607422" xlink:href="#DejaVuSans-110"/>
     <use x="974.986328" xlink:href="#DejaVuSans-98"/>
     <use x="1038.462891" xlink:href="#DejaVuSans-114"/>
     <use x="1079.544922" xlink:href="#DejaVuSans-111"/>
     <use x="1140.726562" xlink:href="#DejaVuSans-99"/>
     <use x="1195.707031" xlink:href="#DejaVuSans-107"/>
     <use x="1253.617188" xlink:href="#DejaVuSans-32"/>
     <use x="1285.404297" xlink:href="#DejaVuSans-70"/>
     <use x="1342.923828" xlink:href="#DejaVuSans-56"/>
     <use x="1406.546875" xlink:href="#DejaVuSans-70"/>
     <use x="1464.066406" xlink:href="#DejaVuSans-50"/>
    </g>
   </g>
  </g>
 </g>
 <defs>
  <clipPath id="p702cabd113">
   <rect height="271.296" width="281.088" x="57.6" y="27.648"/>
  </clipPath>
 </defs>
</svg>
