<?xml version="1.0" encoding="utf-8" standalone="no"?>
<!DOCTYPE svg PUBLIC "-//W3C//DTD SVG 1.1//EN"
  "http://www.w3.org/Graphics/SVG/1.1/DTD/svg11.dtd">
<!-- Created with matplotlib (https://matplotlib.org/) -->
<svg height="345.6pt" version="1.1" viewBox="0 0 460.8 345.6" width="460.8pt" xmlns="http://www.w3.org/2000/svg" xmlns:xlink="http://www.w3.org/1999/xlink">
 <defs>
  <style type="text/css">
*{stroke-linecap:butt;stroke-linejoin:round;}
  </style>
 </defs>
 <g id="figure_1">
  <g id="patch_1">
   <path d="M 0 345.6 
L 460.8 345.6 
L 460.8 0 
L 0 0 
z
" style="fill:#ffffff;"/>
  </g>
  <g id="axes_1">
   <g id="patch_2">
    <path d="M 57.6 298.944 
L 338.688 298.944 
L 338.688 27.648 
L 57.6 27.648 
z
" style="fill:#ffffff;"/>
   </g>
   <g id="line2d_1">
    <path d="M 113.059268 298.944 
L 113.059268 293.677139 
L 113.418114 293.677139 
L 113.418114 288.410278 
L 114.148479 288.410278 
L 114.148479 283.143418 
L 119.020084 283.143418 
L 119.020084 277.876557 
L 123.374182 277.876557 
L 123.374182 272.609696 
L 125.857712 272.609696 
L 125.857712 267.342835 
L 128.871138 267.342835 
L 128.871138 262.075974 
L 132.230358 262.075974 
L 132.230358 256.809114 
L 132.975083 256.809114 
L 132.975083 251.542253 
L 134.268299 251.542253 
L 134.268299 246.275392 
L 139.793552 246.275392 
L 139.793552 241.008531 
L 143.534079 241.008531 
L 143.534079 235.74167 
L 146.188938 235.74167 
L 146.188938 230.47481 
L 148.676918 230.47481 
L 148.676918 225.207949 
L 153.232815 225.207949 
L 153.232815 219.941088 
L 157.859725 219.941088 
L 157.859725 214.674227 
L 160.938061 214.674227 
L 160.938061 209.407366 
L 161.685508 209.407366 
L 161.685508 204.140506 
L 162.126028 204.140506 
L 162.126028 198.873645 
L 162.747743 198.873645 
L 162.747743 193.606784 
L 163.319642 193.606784 
L 163.319642 188.339923 
L 163.810301 188.339923 
L 163.810301 183.073062 
L 164.260611 183.073062 
L 164.260611 177.806202 
L 164.660132 177.806202 
L 164.660132 172.539341 
L 165.153397 172.539341 
L 165.153397 167.27248 
L 165.558223 167.27248 
L 165.558223 162.005619 
L 166.046178 162.005619 
L 166.046178 156.738758 
L 166.46667 156.738758 
L 166.46667 151.471897 
L 166.964826 151.471897 
L 166.964826 146.205037 
L 167.360765 146.205037 
L 167.360765 140.938176 
L 167.769958 140.938176 
L 167.769958 135.671315 
L 168.100423 135.671315 
L 168.100423 130.404454 
L 168.530517 130.404454 
L 168.530517 125.137593 
L 168.847006 125.137593 
L 168.847006 119.870733 
L 169.319866 119.870733 
L 169.319866 114.603872 
L 169.567195 114.603872 
L 169.567195 109.337011 
L 169.946325 109.337011 
L 169.946325 104.07015 
L 170.333697 104.07015 
L 170.333697 98.803289 
L 170.684714 98.803289 
L 170.684714 93.536429 
L 170.942432 93.536429 
L 170.942432 88.269568 
L 171.309807 88.269568 
L 171.309807 83.002707 
L 171.640636 83.002707 
L 171.640636 77.735846 
L 171.967781 77.735846 
L 171.967781 72.468985 
L 172.270675 72.468985 
L 172.270675 67.202125 
L 172.563617 67.202125 
L 172.563617 61.935264 
L 172.851719 61.935264 
L 172.851719 56.668403 
L 173.176739 56.668403 
L 173.176739 51.401542 
L 173.521856 51.401542 
L 173.521856 46.134681 
L 173.6515 46.134681 
L 173.6515 40.867821 
L 173.708687 40.867821 
L 173.708687 35.60096 
L 173.806924 35.60096 
L 173.806924 30.334099 
L 338.688 30.334099 
" style="fill:none;stroke:#f5deb3;stroke-linecap:square;stroke-width:4;"/>
   </g>
   <g id="line2d_2">
    <defs>
     <path d="M -0 7.778175 
L 7.778175 0 
L 0 -7.778175 
L -7.778175 -0 
z
" id="m66c1367f3f" style="stroke:#f5deb3;stroke-linejoin:miter;stroke-width:1.5;"/>
    </defs>
    <g>
     <use style="fill:#f5deb3;stroke:#f5deb3;stroke-linejoin:miter;stroke-width:1.5;" x="157.859725" xlink:href="#m66c1367f3f" y="214.674227"/>
     <use style="fill:#f5deb3;stroke:#f5deb3;stroke-linejoin:miter;stroke-width:1.5;" x="170.333697" xlink:href="#m66c1367f3f" y="104.07015"/>
     <use style="fill:#f5deb3;stroke:#f5deb3;stroke-linejoin:miter;stroke-width:1.5;" x="173.806924" xlink:href="#m66c1367f3f" y="35.60096"/>
     <use style="fill:#f5deb3;stroke:#f5deb3;stroke-linejoin:miter;stroke-width:1.5;" x="173.806924" xlink:href="#m66c1367f3f" y="30.334099"/>
     <use style="fill:#f5deb3;stroke:#f5deb3;stroke-linejoin:miter;stroke-width:1.5;" x="338.688" xlink:href="#m66c1367f3f" y="30.334099"/>
    </g>
   </g>
   <g id="line2d_3">
    <path style="fill:none;stroke:#f5deb3;stroke-linecap:square;stroke-width:4;"/>
    <g/>
   </g>
   <g id="line2d_4">
    <path d="M 338.688 30.334099 
L 369.60768 241.998701 
" style="fill:none;stroke:#f5deb3;stroke-linecap:square;stroke-width:4;"/>
    <g>
     <use style="fill:#f5deb3;stroke:#f5deb3;stroke-linejoin:miter;stroke-width:1.5;" x="338.688" xlink:href="#m66c1367f3f" y="30.334099"/>
     <use style="fill:#f5deb3;stroke:#f5deb3;stroke-linejoin:miter;stroke-width:1.5;" x="369.60768" xlink:href="#m66c1367f3f" y="241.998701"/>
    </g>
   </g>
   <g id="matplotlib.axis_1">
    <g id="xtick_1">
     <g id="line2d_5">
      <path clip-path="url(#p3895128e73)" d="M 57.6 298.944 
L 57.6 27.648 
" style="fill:none;stroke:#b0b0b0;stroke-linecap:square;stroke-width:0.8;"/>
     </g>
     <g id="line2d_6">
      <defs>
       <path d="M 0 0 
L 0 3.5 
" id="m4c654ad969" style="stroke:#000000;stroke-width:0.8;"/>
      </defs>
      <g>
       <use style="stroke:#000000;stroke-width:0.8;" x="57.6" xlink:href="#m4c654ad969" y="298.944"/>
      </g>
     </g>
     <g id="text_1">
      <!-- 0 -->
      <defs>
       <path d="M 31.78125 66.40625 
Q 24.171875 66.40625 20.328125 58.90625 
Q 16.5 51.421875 16.5 36.375 
Q 16.5 21.390625 20.328125 13.890625 
Q 24.171875 6.390625 31.78125 6.390625 
Q 39.453125 6.390625 43.28125 13.890625 
Q 47.125 21.390625 47.125 36.375 
Q 47.125 51.421875 43.28125 58.90625 
Q 39.453125 66.40625 31.78125 66.40625 
z
M 31.78125 74.21875 
Q 44.046875 74.21875 50.515625 64.515625 
Q 56.984375 54.828125 56.984375 36.375 
Q 56.984375 17.96875 50.515625 8.265625 
Q 44.046875 -1.421875 31.78125 -1.421875 
Q 19.53125 -1.421875 13.0625 8.265625 
Q 6.59375 17.96875 6.59375 36.375 
Q 6.59375 54.828125 13.0625 64.515625 
Q 19.53125 74.21875 31.78125 74.21875 
z
" id="DejaVuSans-48"/>
      </defs>
      <g transform="translate(51.2375 321.140875)scale(0.2 -0.2)">
       <use xlink:href="#DejaVuSans-48"/>
      </g>
     </g>
    </g>
    <g id="xtick_2">
     <g id="line2d_7">
      <path clip-path="url(#p3895128e73)" d="M 137.910857 298.944 
L 137.910857 27.648 
" style="fill:none;stroke:#b0b0b0;stroke-linecap:square;stroke-width:0.8;"/>
     </g>
     <g id="line2d_8">
      <g>
       <use style="stroke:#000000;stroke-width:0.8;" x="137.910857" xlink:href="#m4c654ad969" y="298.944"/>
      </g>
     </g>
     <g id="text_2">
      <!-- 2 -->
      <defs>
       <path d="M 19.1875 8.296875 
L 53.609375 8.296875 
L 53.609375 0 
L 7.328125 0 
L 7.328125 8.296875 
Q 12.9375 14.109375 22.625 23.890625 
Q 32.328125 33.6875 34.8125 36.53125 
Q 39.546875 41.84375 41.421875 45.53125 
Q 43.3125 49.21875 43.3125 52.78125 
Q 43.3125 58.59375 39.234375 62.25 
Q 35.15625 65.921875 28.609375 65.921875 
Q 23.96875 65.921875 18.8125 64.3125 
Q 13.671875 62.703125 7.8125 59.421875 
L 7.8125 69.390625 
Q 13.765625 71.78125 18.9375 73 
Q 24.125 74.21875 28.421875 74.21875 
Q 39.75 74.21875 46.484375 68.546875 
Q 53.21875 62.890625 53.21875 53.421875 
Q 53.21875 48.921875 51.53125 44.890625 
Q 49.859375 40.875 45.40625 35.40625 
Q 44.1875 33.984375 37.640625 27.21875 
Q 31.109375 20.453125 19.1875 8.296875 
z
" id="DejaVuSans-50"/>
      </defs>
      <g transform="translate(131.548357 321.140875)scale(0.2 -0.2)">
       <use xlink:href="#DejaVuSans-50"/>
      </g>
     </g>
    </g>
    <g id="xtick_3">
     <g id="line2d_9">
      <path clip-path="url(#p3895128e73)" d="M 218.221714 298.944 
L 218.221714 27.648 
" style="fill:none;stroke:#b0b0b0;stroke-linecap:square;stroke-width:0.8;"/>
     </g>
     <g id="line2d_10">
      <g>
       <use style="stroke:#000000;stroke-width:0.8;" x="218.221714" xlink:href="#m4c654ad969" y="298.944"/>
      </g>
     </g>
     <g id="text_3">
      <!-- 4 -->
      <defs>
       <path d="M 37.796875 64.3125 
L 12.890625 25.390625 
L 37.796875 25.390625 
z
M 35.203125 72.90625 
L 47.609375 72.90625 
L 47.609375 25.390625 
L 58.015625 25.390625 
L 58.015625 17.1875 
L 47.609375 17.1875 
L 47.609375 0 
L 37.796875 0 
L 37.796875 17.1875 
L 4.890625 17.1875 
L 4.890625 26.703125 
z
" id="DejaVuSans-52"/>
      </defs>
      <g transform="translate(211.859214 321.140875)scale(0.2 -0.2)">
       <use xlink:href="#DejaVuSans-52"/>
      </g>
     </g>
    </g>
    <g id="xtick_4">
     <g id="line2d_11">
      <path clip-path="url(#p3895128e73)" d="M 298.532571 298.944 
L 298.532571 27.648 
" style="fill:none;stroke:#b0b0b0;stroke-linecap:square;stroke-width:0.8;"/>
     </g>
     <g id="line2d_12">
      <g>
       <use style="stroke:#000000;stroke-width:0.8;" x="298.532571" xlink:href="#m4c654ad969" y="298.944"/>
      </g>
     </g>
     <g id="text_4">
      <!-- 6 -->
      <defs>
       <path d="M 33.015625 40.375 
Q 26.375 40.375 22.484375 35.828125 
Q 18.609375 31.296875 18.609375 23.390625 
Q 18.609375 15.53125 22.484375 10.953125 
Q 26.375 6.390625 33.015625 6.390625 
Q 39.65625 6.390625 43.53125 10.953125 
Q 47.40625 15.53125 47.40625 23.390625 
Q 47.40625 31.296875 43.53125 35.828125 
Q 39.65625 40.375 33.015625 40.375 
z
M 52.59375 71.296875 
L 52.59375 62.3125 
Q 48.875 64.0625 45.09375 64.984375 
Q 41.3125 65.921875 37.59375 65.921875 
Q 27.828125 65.921875 22.671875 59.328125 
Q 17.53125 52.734375 16.796875 39.40625 
Q 19.671875 43.65625 24.015625 45.921875 
Q 28.375 48.1875 33.59375 48.1875 
Q 44.578125 48.1875 50.953125 41.515625 
Q 57.328125 34.859375 57.328125 23.390625 
Q 57.328125 12.15625 50.6875 5.359375 
Q 44.046875 -1.421875 33.015625 -1.421875 
Q 20.359375 -1.421875 13.671875 8.265625 
Q 6.984375 17.96875 6.984375 36.375 
Q 6.984375 53.65625 15.1875 63.9375 
Q 23.390625 74.21875 37.203125 74.21875 
Q 40.921875 74.21875 44.703125 73.484375 
Q 48.484375 72.75 52.59375 71.296875 
z
" id="DejaVuSans-54"/>
      </defs>
      <g transform="translate(292.170071 321.140875)scale(0.2 -0.2)">
       <use xlink:href="#DejaVuSans-54"/>
      </g>
     </g>
    </g>
    <g id="xtick_5">
     <g id="line2d_13">
      <path clip-path="url(#p3895128e73)" d="M 97.755429 298.944 
L 97.755429 27.648 
" style="fill:none;stroke:#b0b0b0;stroke-linecap:square;stroke-width:0.8;"/>
     </g>
     <g id="line2d_14">
      <defs>
       <path d="M 0 0 
L 0 2 
" id="m03abf50499" style="stroke:#000000;stroke-width:0.6;"/>
      </defs>
      <g>
       <use style="stroke:#000000;stroke-width:0.6;" x="97.755429" xlink:href="#m03abf50499" y="298.944"/>
      </g>
     </g>
    </g>
    <g id="xtick_6">
     <g id="line2d_15">
      <path clip-path="url(#p3895128e73)" d="M 178.066286 298.944 
L 178.066286 27.648 
" style="fill:none;stroke:#b0b0b0;stroke-linecap:square;stroke-width:0.8;"/>
     </g>
     <g id="line2d_16">
      <g>
       <use style="stroke:#000000;stroke-width:0.6;" x="178.066286" xlink:href="#m03abf50499" y="298.944"/>
      </g>
     </g>
    </g>
    <g id="xtick_7">
     <g id="line2d_17">
      <path clip-path="url(#p3895128e73)" d="M 258.377143 298.944 
L 258.377143 27.648 
" style="fill:none;stroke:#b0b0b0;stroke-linecap:square;stroke-width:0.8;"/>
     </g>
     <g id="line2d_18">
      <g>
       <use style="stroke:#000000;stroke-width:0.6;" x="258.377143" xlink:href="#m03abf50499" y="298.944"/>
      </g>
     </g>
    </g>
    <g id="xtick_8">
     <g id="line2d_19">
      <path clip-path="url(#p3895128e73)" d="M 338.688 298.944 
L 338.688 27.648 
" style="fill:none;stroke:#b0b0b0;stroke-linecap:square;stroke-width:0.8;"/>
     </g>
     <g id="line2d_20">
      <g>
       <use style="stroke:#000000;stroke-width:0.6;" x="338.688" xlink:href="#m03abf50499" y="298.944"/>
      </g>
     </g>
    </g>
    <g id="text_5">
     <!-- log10(# f-evals / dimension) -->
     <defs>
      <path d="M 9.421875 75.984375 
L 18.40625 75.984375 
L 18.40625 0 
L 9.421875 0 
z
" id="DejaVuSans-108"/>
      <path d="M 30.609375 48.390625 
Q 23.390625 48.390625 19.1875 42.75 
Q 14.984375 37.109375 14.984375 27.296875 
Q 14.984375 17.484375 19.15625 11.84375 
Q 23.34375 6.203125 30.609375 6.203125 
Q 37.796875 6.203125 41.984375 11.859375 
Q 46.1875 17.53125 46.1875 27.296875 
Q 46.1875 37.015625 41.984375 42.703125 
Q 37.796875 48.390625 30.609375 48.390625 
z
M 30.609375 56 
Q 42.328125 56 49.015625 48.375 
Q 55.71875 40.765625 55.71875 27.296875 
Q 55.71875 13.875 49.015625 6.21875 
Q 42.328125 -1.421875 30.609375 -1.421875 
Q 18.84375 -1.421875 12.171875 6.21875 
Q 5.515625 13.875 5.515625 27.296875 
Q 5.515625 40.765625 12.171875 48.375 
Q 18.84375 56 30.609375 56 
z
" id="DejaVuSans-111"/>
      <path d="M 45.40625 27.984375 
Q 45.40625 37.75 41.375 43.109375 
Q 37.359375 48.484375 30.078125 48.484375 
Q 22.859375 48.484375 18.828125 43.109375 
Q 14.796875 37.75 14.796875 27.984375 
Q 14.796875 18.265625 18.828125 12.890625 
Q 22.859375 7.515625 30.078125 7.515625 
Q 37.359375 7.515625 41.375 12.890625 
Q 45.40625 18.265625 45.40625 27.984375 
z
M 54.390625 6.78125 
Q 54.390625 -7.171875 48.1875 -13.984375 
Q 42 -20.796875 29.203125 -20.796875 
Q 24.46875 -20.796875 20.265625 -20.09375 
Q 16.0625 -19.390625 12.109375 -17.921875 
L 12.109375 -9.1875 
Q 16.0625 -11.328125 19.921875 -12.34375 
Q 23.78125 -13.375 27.78125 -13.375 
Q 36.625 -13.375 41.015625 -8.765625 
Q 45.40625 -4.15625 45.40625 5.171875 
L 45.40625 9.625 
Q 42.625 4.78125 38.28125 2.390625 
Q 33.9375 0 27.875 0 
Q 17.828125 0 11.671875 7.65625 
Q 5.515625 15.328125 5.515625 27.984375 
Q 5.515625 40.671875 11.671875 48.328125 
Q 17.828125 56 27.875 56 
Q 33.9375 56 38.28125 53.609375 
Q 42.625 51.21875 45.40625 46.390625 
L 45.40625 54.6875 
L 54.390625 54.6875 
z
" id="DejaVuSans-103"/>
      <path d="M 12.40625 8.296875 
L 28.515625 8.296875 
L 28.515625 63.921875 
L 10.984375 60.40625 
L 10.984375 69.390625 
L 28.421875 72.90625 
L 38.28125 72.90625 
L 38.28125 8.296875 
L 54.390625 8.296875 
L 54.390625 0 
L 12.40625 0 
z
" id="DejaVuSans-49"/>
      <path d="M 31 75.875 
Q 24.46875 64.65625 21.28125 53.65625 
Q 18.109375 42.671875 18.109375 31.390625 
Q 18.109375 20.125 21.3125 9.0625 
Q 24.515625 -2 31 -13.1875 
L 23.1875 -13.1875 
Q 15.875 -1.703125 12.234375 9.375 
Q 8.59375 20.453125 8.59375 31.390625 
Q 8.59375 42.28125 12.203125 53.3125 
Q 15.828125 64.359375 23.1875 75.875 
z
" id="DejaVuSans-40"/>
      <path d="M 51.125 44 
L 36.921875 44 
L 32.8125 27.6875 
L 47.125 27.6875 
z
M 43.796875 71.78125 
L 38.71875 51.515625 
L 52.984375 51.515625 
L 58.109375 71.78125 
L 65.921875 71.78125 
L 60.890625 51.515625 
L 76.125 51.515625 
L 76.125 44 
L 58.984375 44 
L 54.984375 27.6875 
L 70.515625 27.6875 
L 70.515625 20.21875 
L 53.078125 20.21875 
L 48 0 
L 40.1875 0 
L 45.21875 20.21875 
L 30.90625 20.21875 
L 25.875 0 
L 18.015625 0 
L 23.09375 20.21875 
L 7.71875 20.21875 
L 7.71875 27.6875 
L 24.90625 27.6875 
L 29 44 
L 13.28125 44 
L 13.28125 51.515625 
L 30.90625 51.515625 
L 35.890625 71.78125 
z
" id="DejaVuSans-35"/>
      <path id="DejaVuSans-32"/>
      <path d="M 37.109375 75.984375 
L 37.109375 68.5 
L 28.515625 68.5 
Q 23.6875 68.5 21.796875 66.546875 
Q 19.921875 64.59375 19.921875 59.515625 
L 19.921875 54.6875 
L 34.71875 54.6875 
L 34.71875 47.703125 
L 19.921875 47.703125 
L 19.921875 0 
L 10.890625 0 
L 10.890625 47.703125 
L 2.296875 47.703125 
L 2.296875 54.6875 
L 10.890625 54.6875 
L 10.890625 58.5 
Q 10.890625 67.625 15.140625 71.796875 
Q 19.390625 75.984375 28.609375 75.984375 
z
" id="DejaVuSans-102"/>
      <path d="M 4.890625 31.390625 
L 31.203125 31.390625 
L 31.203125 23.390625 
L 4.890625 23.390625 
z
" id="DejaVuSans-45"/>
      <path d="M 56.203125 29.59375 
L 56.203125 25.203125 
L 14.890625 25.203125 
Q 15.484375 15.921875 20.484375 11.0625 
Q 25.484375 6.203125 34.421875 6.203125 
Q 39.59375 6.203125 44.453125 7.46875 
Q 49.3125 8.734375 54.109375 11.28125 
L 54.109375 2.78125 
Q 49.265625 0.734375 44.1875 -0.34375 
Q 39.109375 -1.421875 33.890625 -1.421875 
Q 20.796875 -1.421875 13.15625 6.1875 
Q 5.515625 13.8125 5.515625 26.8125 
Q 5.515625 40.234375 12.765625 48.109375 
Q 20.015625 56 32.328125 56 
Q 43.359375 56 49.78125 48.890625 
Q 56.203125 41.796875 56.203125 29.59375 
z
M 47.21875 32.234375 
Q 47.125 39.59375 43.09375 43.984375 
Q 39.0625 48.390625 32.421875 48.390625 
Q 24.90625 48.390625 20.390625 44.140625 
Q 15.875 39.890625 15.1875 32.171875 
z
" id="DejaVuSans-101"/>
      <path d="M 2.984375 54.6875 
L 12.5 54.6875 
L 29.59375 8.796875 
L 46.6875 54.6875 
L 56.203125 54.6875 
L 35.6875 0 
L 23.484375 0 
z
" id="DejaVuSans-118"/>
      <path d="M 34.28125 27.484375 
Q 23.390625 27.484375 19.1875 25 
Q 14.984375 22.515625 14.984375 16.5 
Q 14.984375 11.71875 18.140625 8.90625 
Q 21.296875 6.109375 26.703125 6.109375 
Q 34.1875 6.109375 38.703125 11.40625 
Q 43.21875 16.703125 43.21875 25.484375 
L 43.21875 27.484375 
z
M 52.203125 31.203125 
L 52.203125 0 
L 43.21875 0 
L 43.21875 8.296875 
Q 40.140625 3.328125 35.546875 0.953125 
Q 30.953125 -1.421875 24.3125 -1.421875 
Q 15.921875 -1.421875 10.953125 3.296875 
Q 6 8.015625 6 15.921875 
Q 6 25.140625 12.171875 29.828125 
Q 18.359375 34.515625 30.609375 34.515625 
L 43.21875 34.515625 
L 43.21875 35.40625 
Q 43.21875 41.609375 39.140625 45 
Q 35.0625 48.390625 27.6875 48.390625 
Q 23 48.390625 18.546875 47.265625 
Q 14.109375 46.140625 10.015625 43.890625 
L 10.015625 52.203125 
Q 14.9375 54.109375 19.578125 55.046875 
Q 24.21875 56 28.609375 56 
Q 40.484375 56 46.34375 49.84375 
Q 52.203125 43.703125 52.203125 31.203125 
z
" id="DejaVuSans-97"/>
      <path d="M 44.28125 53.078125 
L 44.28125 44.578125 
Q 40.484375 46.53125 36.375 47.5 
Q 32.28125 48.484375 27.875 48.484375 
Q 21.1875 48.484375 17.84375 46.4375 
Q 14.5 44.390625 14.5 40.28125 
Q 14.5 37.15625 16.890625 35.375 
Q 19.28125 33.59375 26.515625 31.984375 
L 29.59375 31.296875 
Q 39.15625 29.25 43.1875 25.515625 
Q 47.21875 21.78125 47.21875 15.09375 
Q 47.21875 7.46875 41.1875 3.015625 
Q 35.15625 -1.421875 24.609375 -1.421875 
Q 20.21875 -1.421875 15.453125 -0.5625 
Q 10.6875 0.296875 5.421875 2 
L 5.421875 11.28125 
Q 10.40625 8.6875 15.234375 7.390625 
Q 20.0625 6.109375 24.8125 6.109375 
Q 31.15625 6.109375 34.5625 8.28125 
Q 37.984375 10.453125 37.984375 14.40625 
Q 37.984375 18.0625 35.515625 20.015625 
Q 33.0625 21.96875 24.703125 23.78125 
L 21.578125 24.515625 
Q 13.234375 26.265625 9.515625 29.90625 
Q 5.8125 33.546875 5.8125 39.890625 
Q 5.8125 47.609375 11.28125 51.796875 
Q 16.75 56 26.8125 56 
Q 31.78125 56 36.171875 55.265625 
Q 40.578125 54.546875 44.28125 53.078125 
z
" id="DejaVuSans-115"/>
      <path d="M 25.390625 72.90625 
L 33.6875 72.90625 
L 8.296875 -9.28125 
L 0 -9.28125 
z
" id="DejaVuSans-47"/>
      <path d="M 45.40625 46.390625 
L 45.40625 75.984375 
L 54.390625 75.984375 
L 54.390625 0 
L 45.40625 0 
L 45.40625 8.203125 
Q 42.578125 3.328125 38.25 0.953125 
Q 33.9375 -1.421875 27.875 -1.421875 
Q 17.96875 -1.421875 11.734375 6.484375 
Q 5.515625 14.40625 5.515625 27.296875 
Q 5.515625 40.1875 11.734375 48.09375 
Q 17.96875 56 27.875 56 
Q 33.9375 56 38.25 53.625 
Q 42.578125 51.265625 45.40625 46.390625 
z
M 14.796875 27.296875 
Q 14.796875 17.390625 18.875 11.75 
Q 22.953125 6.109375 30.078125 6.109375 
Q 37.203125 6.109375 41.296875 11.75 
Q 45.40625 17.390625 45.40625 27.296875 
Q 45.40625 37.203125 41.296875 42.84375 
Q 37.203125 48.484375 30.078125 48.484375 
Q 22.953125 48.484375 18.875 42.84375 
Q 14.796875 37.203125 14.796875 27.296875 
z
" id="DejaVuSans-100"/>
      <path d="M 9.421875 54.6875 
L 18.40625 54.6875 
L 18.40625 0 
L 9.421875 0 
z
M 9.421875 75.984375 
L 18.40625 75.984375 
L 18.40625 64.59375 
L 9.421875 64.59375 
z
" id="DejaVuSans-105"/>
      <path d="M 52 44.1875 
Q 55.375 50.25 60.0625 53.125 
Q 64.75 56 71.09375 56 
Q 79.640625 56 84.28125 50.015625 
Q 88.921875 44.046875 88.921875 33.015625 
L 88.921875 0 
L 79.890625 0 
L 79.890625 32.71875 
Q 79.890625 40.578125 77.09375 44.375 
Q 74.3125 48.1875 68.609375 48.1875 
Q 61.625 48.1875 57.5625 43.546875 
Q 53.515625 38.921875 53.515625 30.90625 
L 53.515625 0 
L 44.484375 0 
L 44.484375 32.71875 
Q 44.484375 40.625 41.703125 44.40625 
Q 38.921875 48.1875 33.109375 48.1875 
Q 26.21875 48.1875 22.15625 43.53125 
Q 18.109375 38.875 18.109375 30.90625 
L 18.109375 0 
L 9.078125 0 
L 9.078125 54.6875 
L 18.109375 54.6875 
L 18.109375 46.1875 
Q 21.1875 51.21875 25.484375 53.609375 
Q 29.78125 56 35.6875 56 
Q 41.65625 56 45.828125 52.96875 
Q 50 49.953125 52 44.1875 
z
" id="DejaVuSans-109"/>
      <path d="M 54.890625 33.015625 
L 54.890625 0 
L 45.90625 0 
L 45.90625 32.71875 
Q 45.90625 40.484375 42.875 44.328125 
Q 39.84375 48.1875 33.796875 48.1875 
Q 26.515625 48.1875 22.3125 43.546875 
Q 18.109375 38.921875 18.109375 30.90625 
L 18.109375 0 
L 9.078125 0 
L 9.078125 54.6875 
L 18.109375 54.6875 
L 18.109375 46.1875 
Q 21.34375 51.125 25.703125 53.5625 
Q 30.078125 56 35.796875 56 
Q 45.21875 56 50.046875 50.171875 
Q 54.890625 44.34375 54.890625 33.015625 
z
" id="DejaVuSans-110"/>
      <path d="M 8.015625 75.875 
L 15.828125 75.875 
Q 23.140625 64.359375 26.78125 53.3125 
Q 30.421875 42.28125 30.421875 31.390625 
Q 30.421875 20.453125 26.78125 9.375 
Q 23.140625 -1.703125 15.828125 -13.1875 
L 8.015625 -13.1875 
Q 14.5 -2 17.703125 9.0625 
Q 20.90625 20.125 20.90625 31.390625 
Q 20.90625 42.671875 17.703125 53.65625 
Q 14.5 64.65625 8.015625 75.875 
z
" id="DejaVuSans-41"/>
     </defs>
     <g transform="translate(77.303219 342.217594)scale(0.17 -0.17)">
      <use xlink:href="#DejaVuSans-108"/>
      <use x="27.783203" xlink:href="#DejaVuSans-111"/>
      <use x="88.964844" xlink:href="#DejaVuSans-103"/>
      <use x="152.441406" xlink:href="#DejaVuSans-49"/>
      <use x="216.064453" xlink:href="#DejaVuSans-48"/>
      <use x="279.6875" xlink:href="#DejaVuSans-40"/>
      <use x="318.701172" xlink:href="#DejaVuSans-35"/>
      <use x="402.490234" xlink:href="#DejaVuSans-32"/>
      <use x="434.277344" xlink:href="#DejaVuSans-102"/>
      <use x="469.404297" xlink:href="#DejaVuSans-45"/>
      <use x="505.488281" xlink:href="#DejaVuSans-101"/>
      <use x="567.011719" xlink:href="#DejaVuSans-118"/>
      <use x="626.191406" xlink:href="#DejaVuSans-97"/>
      <use x="687.470703" xlink:href="#DejaVuSans-108"/>
      <use x="715.253906" xlink:href="#DejaVuSans-115"/>
      <use x="767.353516" xlink:href="#DejaVuSans-32"/>
      <use x="799.140625" xlink:href="#DejaVuSans-47"/>
      <use x="832.832031" xlink:href="#DejaVuSans-32"/>
      <use x="864.619141" xlink:href="#DejaVuSans-100"/>
      <use x="928.095703" xlink:href="#DejaVuSans-105"/>
      <use x="955.878906" xlink:href="#DejaVuSans-109"/>
      <use x="1053.291016" xlink:href="#DejaVuSans-101"/>
      <use x="1114.814453" xlink:href="#DejaVuSans-110"/>
      <use x="1178.193359" xlink:href="#DejaVuSans-115"/>
      <use x="1230.292969" xlink:href="#DejaVuSans-105"/>
      <use x="1258.076172" xlink:href="#DejaVuSans-111"/>
      <use x="1319.257812" xlink:href="#DejaVuSans-110"/>
      <use x="1382.636719" xlink:href="#DejaVuSans-41"/>
     </g>
    </g>
   </g>
   <g id="matplotlib.axis_2">
    <g id="ytick_1">
     <g id="line2d_21">
      <path clip-path="url(#p3895128e73)" d="M 57.6 298.944 
L 338.688 298.944 
" style="fill:none;stroke:#b0b0b0;stroke-linecap:square;stroke-width:0.8;"/>
     </g>
     <g id="line2d_22">
      <defs>
       <path d="M 0 0 
L -3.5 0 
" id="m49de01c25e" style="stroke:#000000;stroke-width:0.8;"/>
      </defs>
      <g>
       <use style="stroke:#000000;stroke-width:0.8;" x="57.6" xlink:href="#m49de01c25e" y="298.944"/>
      </g>
     </g>
     <g id="text_6">
      <!-- 0.0 -->
      <defs>
       <path d="M 10.6875 12.40625 
L 21 12.40625 
L 21 0 
L 10.6875 0 
z
" id="DejaVuSans-46"/>
      </defs>
      <g transform="translate(25.155 305.02275)scale(0.16 -0.16)">
       <use xlink:href="#DejaVuSans-48"/>
       <use x="63.623047" xlink:href="#DejaVuSans-46"/>
       <use x="95.410156" xlink:href="#DejaVuSans-48"/>
      </g>
     </g>
    </g>
    <g id="ytick_2">
     <g id="line2d_23">
      <path clip-path="url(#p3895128e73)" d="M 57.6 245.22202 
L 338.688 245.22202 
" style="fill:none;stroke:#b0b0b0;stroke-linecap:square;stroke-width:0.8;"/>
     </g>
     <g id="line2d_24">
      <g>
       <use style="stroke:#000000;stroke-width:0.8;" x="57.6" xlink:href="#m49de01c25e" y="245.22202"/>
      </g>
     </g>
     <g id="text_7">
      <!-- 0.2 -->
      <g transform="translate(25.155 251.30077)scale(0.16 -0.16)">
       <use xlink:href="#DejaVuSans-48"/>
       <use x="63.623047" xlink:href="#DejaVuSans-46"/>
       <use x="95.410156" xlink:href="#DejaVuSans-50"/>
      </g>
     </g>
    </g>
    <g id="ytick_3">
     <g id="line2d_25">
      <path clip-path="url(#p3895128e73)" d="M 57.6 191.50004 
L 338.688 191.50004 
" style="fill:none;stroke:#b0b0b0;stroke-linecap:square;stroke-width:0.8;"/>
     </g>
     <g id="line2d_26">
      <g>
       <use style="stroke:#000000;stroke-width:0.8;" x="57.6" xlink:href="#m49de01c25e" y="191.50004"/>
      </g>
     </g>
     <g id="text_8">
      <!-- 0.4 -->
      <g transform="translate(25.155 197.57879)scale(0.16 -0.16)">
       <use xlink:href="#DejaVuSans-48"/>
       <use x="63.623047" xlink:href="#DejaVuSans-46"/>
       <use x="95.410156" xlink:href="#DejaVuSans-52"/>
      </g>
     </g>
    </g>
    <g id="ytick_4">
     <g id="line2d_27">
      <path clip-path="url(#p3895128e73)" d="M 57.6 137.778059 
L 338.688 137.778059 
" style="fill:none;stroke:#b0b0b0;stroke-linecap:square;stroke-width:0.8;"/>
     </g>
     <g id="line2d_28">
      <g>
       <use style="stroke:#000000;stroke-width:0.8;" x="57.6" xlink:href="#m49de01c25e" y="137.778059"/>
      </g>
     </g>
     <g id="text_9">
      <!-- 0.6 -->
      <g transform="translate(25.155 143.856809)scale(0.16 -0.16)">
       <use xlink:href="#DejaVuSans-48"/>
       <use x="63.623047" xlink:href="#DejaVuSans-46"/>
       <use x="95.410156" xlink:href="#DejaVuSans-54"/>
      </g>
     </g>
    </g>
    <g id="ytick_5">
     <g id="line2d_29">
      <path clip-path="url(#p3895128e73)" d="M 57.6 84.056079 
L 338.688 84.056079 
" style="fill:none;stroke:#b0b0b0;stroke-linecap:square;stroke-width:0.8;"/>
     </g>
     <g id="line2d_30">
      <g>
       <use style="stroke:#000000;stroke-width:0.8;" x="57.6" xlink:href="#m49de01c25e" y="84.056079"/>
      </g>
     </g>
     <g id="text_10">
      <!-- 0.8 -->
      <defs>
       <path d="M 31.78125 34.625 
Q 24.75 34.625 20.71875 30.859375 
Q 16.703125 27.09375 16.703125 20.515625 
Q 16.703125 13.921875 20.71875 10.15625 
Q 24.75 6.390625 31.78125 6.390625 
Q 38.8125 6.390625 42.859375 10.171875 
Q 46.921875 13.96875 46.921875 20.515625 
Q 46.921875 27.09375 42.890625 30.859375 
Q 38.875 34.625 31.78125 34.625 
z
M 21.921875 38.8125 
Q 15.578125 40.375 12.03125 44.71875 
Q 8.5 49.078125 8.5 55.328125 
Q 8.5 64.0625 14.71875 69.140625 
Q 20.953125 74.21875 31.78125 74.21875 
Q 42.671875 74.21875 48.875 69.140625 
Q 55.078125 64.0625 55.078125 55.328125 
Q 55.078125 49.078125 51.53125 44.71875 
Q 48 40.375 41.703125 38.8125 
Q 48.828125 37.15625 52.796875 32.3125 
Q 56.78125 27.484375 56.78125 20.515625 
Q 56.78125 9.90625 50.3125 4.234375 
Q 43.84375 -1.421875 31.78125 -1.421875 
Q 19.734375 -1.421875 13.25 4.234375 
Q 6.78125 9.90625 6.78125 20.515625 
Q 6.78125 27.484375 10.78125 32.3125 
Q 14.796875 37.15625 21.921875 38.8125 
z
M 18.3125 54.390625 
Q 18.3125 48.734375 21.84375 45.5625 
Q 25.390625 42.390625 31.78125 42.390625 
Q 38.140625 42.390625 41.71875 45.5625 
Q 45.3125 48.734375 45.3125 54.390625 
Q 45.3125 60.0625 41.71875 63.234375 
Q 38.140625 66.40625 31.78125 66.40625 
Q 25.390625 66.40625 21.84375 63.234375 
Q 18.3125 60.0625 18.3125 54.390625 
z
" id="DejaVuSans-56"/>
      </defs>
      <g transform="translate(25.155 90.134829)scale(0.16 -0.16)">
       <use xlink:href="#DejaVuSans-48"/>
       <use x="63.623047" xlink:href="#DejaVuSans-46"/>
       <use x="95.410156" xlink:href="#DejaVuSans-56"/>
      </g>
     </g>
    </g>
    <g id="ytick_6">
     <g id="line2d_31">
      <path clip-path="url(#p3895128e73)" d="M 57.6 30.334099 
L 338.688 30.334099 
" style="fill:none;stroke:#b0b0b0;stroke-linecap:square;stroke-width:0.8;"/>
     </g>
     <g id="line2d_32">
      <g>
       <use style="stroke:#000000;stroke-width:0.8;" x="57.6" xlink:href="#m49de01c25e" y="30.334099"/>
      </g>
     </g>
     <g id="text_11">
      <!-- 1.0 -->
      <g transform="translate(25.155 36.412849)scale(0.16 -0.16)">
       <use xlink:href="#DejaVuSans-49"/>
       <use x="63.623047" xlink:href="#DejaVuSans-46"/>
       <use x="95.410156" xlink:href="#DejaVuSans-48"/>
      </g>
     </g>
    </g>
    <g id="text_12">
     <!-- Fraction of function,target pairs -->
     <defs>
      <path d="M 9.8125 72.90625 
L 51.703125 72.90625 
L 51.703125 64.59375 
L 19.671875 64.59375 
L 19.671875 43.109375 
L 48.578125 43.109375 
L 48.578125 34.8125 
L 19.671875 34.8125 
L 19.671875 0 
L 9.8125 0 
z
" id="DejaVuSans-70"/>
      <path d="M 41.109375 46.296875 
Q 39.59375 47.171875 37.8125 47.578125 
Q 36.03125 48 33.890625 48 
Q 26.265625 48 22.1875 43.046875 
Q 18.109375 38.09375 18.109375 28.8125 
L 18.109375 0 
L 9.078125 0 
L 9.078125 54.6875 
L 18.109375 54.6875 
L 18.109375 46.1875 
Q 20.953125 51.171875 25.484375 53.578125 
Q 30.03125 56 36.53125 56 
Q 37.453125 56 38.578125 55.875 
Q 39.703125 55.765625 41.0625 55.515625 
z
" id="DejaVuSans-114"/>
      <path d="M 48.78125 52.59375 
L 48.78125 44.1875 
Q 44.96875 46.296875 41.140625 47.34375 
Q 37.3125 48.390625 33.40625 48.390625 
Q 24.65625 48.390625 19.8125 42.84375 
Q 14.984375 37.3125 14.984375 27.296875 
Q 14.984375 17.28125 19.8125 11.734375 
Q 24.65625 6.203125 33.40625 6.203125 
Q 37.3125 6.203125 41.140625 7.25 
Q 44.96875 8.296875 48.78125 10.40625 
L 48.78125 2.09375 
Q 45.015625 0.34375 40.984375 -0.53125 
Q 36.96875 -1.421875 32.421875 -1.421875 
Q 20.0625 -1.421875 12.78125 6.34375 
Q 5.515625 14.109375 5.515625 27.296875 
Q 5.515625 40.671875 12.859375 48.328125 
Q 20.21875 56 33.015625 56 
Q 37.15625 56 41.109375 55.140625 
Q 45.0625 54.296875 48.78125 52.59375 
z
" id="DejaVuSans-99"/>
      <path d="M 18.3125 70.21875 
L 18.3125 54.6875 
L 36.8125 54.6875 
L 36.8125 47.703125 
L 18.3125 47.703125 
L 18.3125 18.015625 
Q 18.3125 11.328125 20.140625 9.421875 
Q 21.96875 7.515625 27.59375 7.515625 
L 36.8125 7.515625 
L 36.8125 0 
L 27.59375 0 
Q 17.1875 0 13.234375 3.875 
Q 9.28125 7.765625 9.28125 18.015625 
L 9.28125 47.703125 
L 2.6875 47.703125 
L 2.6875 54.6875 
L 9.28125 54.6875 
L 9.28125 70.21875 
z
" id="DejaVuSans-116"/>
      <path d="M 8.5 21.578125 
L 8.5 54.6875 
L 17.484375 54.6875 
L 17.484375 21.921875 
Q 17.484375 14.15625 20.5 10.265625 
Q 23.53125 6.390625 29.59375 6.390625 
Q 36.859375 6.390625 41.078125 11.03125 
Q 45.3125 15.671875 45.3125 23.6875 
L 45.3125 54.6875 
L 54.296875 54.6875 
L 54.296875 0 
L 45.3125 0 
L 45.3125 8.40625 
Q 42.046875 3.421875 37.71875 1 
Q 33.40625 -1.421875 27.6875 -1.421875 
Q 18.265625 -1.421875 13.375 4.4375 
Q 8.5 10.296875 8.5 21.578125 
z
M 31.109375 56 
z
" id="DejaVuSans-117"/>
      <path d="M 11.71875 12.40625 
L 22.015625 12.40625 
L 22.015625 4 
L 14.015625 -11.625 
L 7.71875 -11.625 
L 11.71875 4 
z
" id="DejaVuSans-44"/>
      <path d="M 18.109375 8.203125 
L 18.109375 -20.796875 
L 9.078125 -20.796875 
L 9.078125 54.6875 
L 18.109375 54.6875 
L 18.109375 46.390625 
Q 20.953125 51.265625 25.265625 53.625 
Q 29.59375 56 35.59375 56 
Q 45.5625 56 51.78125 48.09375 
Q 58.015625 40.1875 58.015625 27.296875 
Q 58.015625 14.40625 51.78125 6.484375 
Q 45.5625 -1.421875 35.59375 -1.421875 
Q 29.59375 -1.421875 25.265625 0.953125 
Q 20.953125 3.328125 18.109375 8.203125 
z
M 48.6875 27.296875 
Q 48.6875 37.203125 44.609375 42.84375 
Q 40.53125 48.484375 33.40625 48.484375 
Q 26.265625 48.484375 22.1875 42.84375 
Q 18.109375 37.203125 18.109375 27.296875 
Q 18.109375 17.390625 22.1875 11.75 
Q 26.265625 6.109375 33.40625 6.109375 
Q 40.53125 6.109375 44.609375 11.75 
Q 48.6875 17.390625 48.6875 27.296875 
z
" id="DejaVuSans-112"/>
     </defs>
     <g transform="translate(17.619531 298.435375)rotate(-90)scale(0.17 -0.17)">
      <use xlink:href="#DejaVuSans-70"/>
      <use x="57.410156" xlink:href="#DejaVuSans-114"/>
      <use x="98.523438" xlink:href="#DejaVuSans-97"/>
      <use x="159.802734" xlink:href="#DejaVuSans-99"/>
      <use x="214.783203" xlink:href="#DejaVuSans-116"/>
      <use x="253.992188" xlink:href="#DejaVuSans-105"/>
      <use x="281.775391" xlink:href="#DejaVuSans-111"/>
      <use x="342.957031" xlink:href="#DejaVuSans-110"/>
      <use x="406.335938" xlink:href="#DejaVuSans-32"/>
      <use x="438.123047" xlink:href="#DejaVuSans-111"/>
      <use x="499.304688" xlink:href="#DejaVuSans-102"/>
      <use x="534.509766" xlink:href="#DejaVuSans-32"/>
      <use x="566.296875" xlink:href="#DejaVuSans-102"/>
      <use x="601.501953" xlink:href="#DejaVuSans-117"/>
      <use x="664.880859" xlink:href="#DejaVuSans-110"/>
      <use x="728.259766" xlink:href="#DejaVuSans-99"/>
      <use x="783.240234" xlink:href="#DejaVuSans-116"/>
      <use x="822.449219" xlink:href="#DejaVuSans-105"/>
      <use x="850.232422" xlink:href="#DejaVuSans-111"/>
      <use x="911.414062" xlink:href="#DejaVuSans-110"/>
      <use x="974.792969" xlink:href="#DejaVuSans-44"/>
      <use x="1006.580078" xlink:href="#DejaVuSans-116"/>
      <use x="1045.789062" xlink:href="#DejaVuSans-97"/>
      <use x="1107.068359" xlink:href="#DejaVuSans-114"/>
      <use x="1148.166016" xlink:href="#DejaVuSans-103"/>
      <use x="1211.642578" xlink:href="#DejaVuSans-101"/>
      <use x="1273.166016" xlink:href="#DejaVuSans-116"/>
      <use x="1312.375" xlink:href="#DejaVuSans-32"/>
      <use x="1344.162109" xlink:href="#DejaVuSans-112"/>
      <use x="1407.638672" xlink:href="#DejaVuSans-97"/>
      <use x="1468.917969" xlink:href="#DejaVuSans-105"/>
      <use x="1496.701172" xlink:href="#DejaVuSans-114"/>
      <use x="1537.814453" xlink:href="#DejaVuSans-115"/>
     </g>
    </g>
   </g>
   <g id="line2d_33">
    <defs>
     <path d="M 0 1.5 
C 0.397805 1.5 0.77937 1.341951 1.06066 1.06066 
C 1.341951 0.77937 1.5 0.397805 1.5 0 
C 1.5 -0.397805 1.341951 -0.77937 1.06066 -1.06066 
C 0.77937 -1.341951 0.397805 -1.5 0 -1.5 
C -0.397805 -1.5 -0.77937 -1.341951 -1.06066 -1.06066 
C -1.341951 -0.77937 -1.5 -0.397805 -1.5 0 
C -1.5 0.397805 -1.341951 0.77937 -1.06066 1.06066 
C -0.77937 1.341951 -0.397805 1.5 0 1.5 
z
" id="mabc3858740" style="stroke:#f5deb3;"/>
    </defs>
    <g>
     <use style="fill:#f5deb3;stroke:#f5deb3;" x="173.806924" xlink:href="#mabc3858740" y="30.334099"/>
     <use style="fill:#f5deb3;stroke:#f5deb3;" x="173.806924" xlink:href="#mabc3858740" y="30.334099"/>
    </g>
   </g>
   <g id="line2d_34">
    <defs>
     <path d="M 0 1.5 
C 0.397805 1.5 0.77937 1.341951 1.06066 1.06066 
C 1.341951 0.77937 1.5 0.397805 1.5 0 
C 1.5 -0.397805 1.341951 -0.77937 1.06066 -1.06066 
C 0.77937 -1.341951 0.397805 -1.5 0 -1.5 
C -0.397805 -1.5 -0.77937 -1.341951 -1.06066 -1.06066 
C -1.341951 -0.77937 -1.5 -0.397805 -1.5 0 
C -1.5 0.397805 -1.341951 0.77937 -1.06066 1.06066 
C -0.77937 1.341951 -0.397805 1.5 0 1.5 
z
" id="mded7193172" style="stroke:#000080;"/>
    </defs>
    <g>
     <use style="fill:#000080;stroke:#000080;" x="161.84538" xlink:href="#mded7193172" y="30.334099"/>
     <use style="fill:#000080;stroke:#000080;" x="161.84538" xlink:href="#mded7193172" y="30.334099"/>
    </g>
   </g>
   <g id="line2d_35">
    <path d="M 145.338615 298.944 
L 145.338615 298.417314 
L 145.959614 298.417314 
L 146.06373 297.363942 
L 146.08557 297.363942 
L 146.08557 296.837256 
L 146.994542 296.837256 
L 146.994542 296.31057 
L 147.322917 296.31057 
L 147.322917 295.783884 
L 148.000837 295.783884 
L 148.025265 294.730511 
L 148.282122 294.730511 
L 148.282122 294.203825 
L 148.425853 294.203825 
L 148.435393 293.150453 
L 148.676918 293.150453 
L 148.676918 292.623767 
L 148.850072 292.623767 
L 148.850072 292.097081 
L 149.035352 292.097081 
L 149.035352 291.570395 
L 149.159312 291.570395 
L 149.195872 290.517023 
L 149.422654 290.517023 
L 149.422654 289.990337 
L 149.534949 289.990337 
L 149.610898 287.356906 
L 149.659866 287.356906 
L 149.708697 285.776848 
L 149.85877 285.776848 
L 149.9683 284.723476 
L 149.985761 284.723476 
L 150.090162 282.090045 
L 150.237002 282.090045 
L 150.322804 278.929929 
L 150.352736 278.929929 
L 150.429467 277.349871 
L 150.522794 277.349871 
L 150.615623 275.769812 
L 150.707961 275.769812 
L 150.808139 274.189754 
L 150.841405 274.189754 
L 150.874606 272.08301 
L 151.027348 272.08301 
L 151.027348 271.556324 
L 151.174689 271.556324 
L 151.227591 270.502952 
L 151.320795 270.502952 
L 151.409483 266.816149 
L 151.449647 266.816149 
L 151.525705 265.762777 
L 151.581536 265.762777 
L 151.597455 264.182719 
L 151.692666 264.182719 
L 151.77555 262.075974 
L 151.834513 262.075974 
L 151.924538 261.022602 
L 152.09934 261.022602 
L 152.188011 258.389172 
L 152.325902 258.389172 
L 152.409635 255.229055 
L 152.526944 255.229055 
L 152.624728 253.648997 
L 152.677155 253.648997 
L 152.77782 251.015567 
L 152.829789 251.015567 
L 152.914832 249.435508 
L 152.966394 249.435508 
L 153.069065 245.748706 
L 153.229193 245.748706 
L 153.287059 243.115275 
L 153.362717 243.115275 
L 153.473807 241.535217 
L 153.545105 241.535217 
L 153.545105 241.008531 
L 153.679772 241.008531 
L 153.774828 236.795043 
L 153.806399 236.795043 
L 153.879842 234.161612 
L 153.987696 234.161612 
L 154.039645 232.581554 
L 154.125885 232.581554 
L 154.221969 229.421437 
L 154.245908 229.421437 
L 154.351528 225.734635 
L 154.358321 225.734635 
L 154.446381 224.154577 
L 154.513818 224.154577 
L 154.604447 220.467774 
L 154.687945 220.467774 
L 154.794242 218.36103 
L 154.847148 218.36103 
L 154.929494 215.200913 
L 155.011454 215.200913 
L 155.122304 213.094169 
L 155.154773 213.094169 
L 155.24214 209.407366 
L 155.290488 209.407366 
L 155.399584 207.300622 
L 155.415571 207.300622 
L 155.504823 203.613819 
L 155.53024 203.613819 
L 155.618909 200.980389 
L 155.644161 200.980389 
L 155.751073 196.240214 
L 155.788651 196.240214 
L 155.885354 194.13347 
L 155.984618 194.13347 
L 156.040206 190.973354 
L 156.120189 190.973354 
L 156.227282 188.339923 
L 156.233382 188.339923 
L 156.294262 185.179807 
L 156.348874 185.179807 
L 156.430472 180.439632 
L 156.487665 180.439632 
L 156.583568 177.279515 
L 156.604476 177.279515 
L 156.664077 174.119399 
L 156.72644 174.119399 
L 156.835778 170.432596 
L 156.838723 170.432596 
L 156.944434 165.165736 
L 156.953214 165.165736 
L 156.99705 162.532305 
L 157.11051 162.532305 
L 157.217473 159.898875 
L 157.257775 159.898875 
L 157.346685 156.738758 
L 157.420907 156.738758 
L 157.525989 152.52527 
L 157.56276 152.52527 
L 157.63607 149.891839 
L 157.683837 149.891839 
L 157.792929 144.624978 
L 157.80408 144.624978 
L 157.901343 141.991548 
L 157.95668 141.991548 
L 158.058592 137.778059 
L 158.077805 137.778059 
L 158.187194 134.617943 
L 158.203544 134.617943 
L 158.306735 131.457826 
L 158.328382 131.457826 
L 158.398549 127.771024 
L 158.46307 127.771024 
L 158.511304 124.084221 
L 158.575409 124.084221 
L 158.673779 118.817361 
L 158.687029 118.817361 
L 158.790041 113.5505 
L 158.816356 113.5505 
L 158.889829 110.390383 
L 158.934287 110.390383 
L 158.999461 108.283639 
L 159.051426 108.283639 
L 159.154893 104.07015 
L 159.178088 104.07015 
L 159.288488 98.803289 
L 159.293606 98.803289 
L 159.400737 91.429684 
L 159.423608 91.429684 
L 159.532469 86.68951 
L 159.547605 86.68951 
L 159.653192 82.476021 
L 159.673231 82.476021 
L 159.755651 78.789218 
L 159.785526 78.789218 
L 159.882266 76.155788 
L 159.897102 76.155788 
L 159.993227 71.942299 
L 160.052119 71.942299 
L 160.162007 63.515322 
L 160.183902 63.515322 
L 160.283299 59.82852 
L 160.295382 59.82852 
L 160.394148 55.615031 
L 160.410954 55.615031 
L 160.516227 50.874856 
L 160.568626 50.874856 
L 160.611381 49.294798 
L 160.684769 49.294798 
L 160.783709 46.661368 
L 160.804838 46.661368 
L 160.8961 43.501251 
L 160.940389 43.501251 
L 161.028631 40.341135 
L 161.06334 40.341135 
L 161.116428 37.707704 
L 161.217539 37.707704 
L 161.274728 34.547588 
L 161.338558 34.547588 
L 161.352206 33.494215 
L 161.476813 33.494215 
L 161.476813 32.967529 
L 161.625176 32.967529 
L 161.625176 32.440843 
L 161.763407 32.440843 
L 161.84538 30.334099 
L 338.688 30.334099 
L 338.688 30.334099 
" style="fill:none;stroke:#000080;stroke-linecap:square;stroke-width:1.5;"/>
   </g>
   <g id="line2d_36">
    <defs>
     <path d="M 0 6 
C 1.591219 6 3.117479 5.367802 4.242641 4.242641 
C 5.367802 3.117479 6 1.591219 6 0 
C 6 -1.591219 5.367802 -3.117479 4.242641 -4.242641 
C 3.117479 -5.367802 1.591219 -6 0 -6 
C -1.591219 -6 -3.117479 -5.367802 -4.242641 -4.242641 
C -5.367802 -3.117479 -6 -1.591219 -6 0 
C -6 1.591219 -5.367802 3.117479 -4.242641 4.242641 
C -3.117479 5.367802 -1.591219 6 0 6 
z
" id="md7b81085b5" style="stroke:#000080;stroke-width:1.5;"/>
    </defs>
    <g>
     <use style="fill-opacity:0;stroke:#000080;stroke-width:1.5;" x="157.56841" xlink:href="#md7b81085b5" y="151.471897"/>
     <use style="fill-opacity:0;stroke:#000080;stroke-width:1.5;" x="161.84538" xlink:href="#md7b81085b5" y="30.860785"/>
     <use style="fill-opacity:0;stroke:#000080;stroke-width:1.5;" x="161.84538" xlink:href="#md7b81085b5" y="30.334099"/>
     <use style="fill-opacity:0;stroke:#000080;stroke-width:1.5;" x="161.84538" xlink:href="#md7b81085b5" y="30.334099"/>
     <use style="fill-opacity:0;stroke:#000080;stroke-width:1.5;" x="338.688" xlink:href="#md7b81085b5" y="30.334099"/>
    </g>
   </g>
   <g id="line2d_37">
    <path style="fill:none;stroke:#000080;stroke-linecap:square;stroke-width:1.5;"/>
    <g/>
   </g>
   <g id="line2d_38">
    <g>
     <use style="fill:#000080;stroke:#000080;" x="162.049736" xlink:href="#mded7193172" y="30.334099"/>
     <use style="fill:#000080;stroke:#000080;" x="162.049736" xlink:href="#mded7193172" y="30.334099"/>
    </g>
   </g>
   <g id="line2d_39">
    <path d="M 145.699363 298.944 
L 145.699363 298.417314 
L 146.393855 298.417314 
L 146.484754 297.363942 
L 147.056585 297.363942 
L 147.13383 296.31057 
L 147.404054 296.31057 
L 147.404054 295.783884 
L 147.590249 295.783884 
L 147.590249 295.257197 
L 147.71494 295.257197 
L 147.779429 294.203825 
L 147.888024 294.203825 
L 147.888024 293.677139 
L 148.161434 293.677139 
L 148.161434 293.150453 
L 148.325365 293.150453 
L 148.334961 292.097081 
L 148.525764 292.097081 
L 148.525764 291.570395 
L 148.733265 291.570395 
L 148.733265 290.517023 
L 148.87334 290.517023 
L 148.87334 289.990337 
L 149.377533 289.990337 
L 149.467659 288.410278 
L 149.836782 288.410278 
L 149.836782 287.883592 
L 150.046738 287.883592 
L 150.046738 287.356906 
L 150.237002 287.356906 
L 150.335638 286.303534 
L 150.357008 286.303534 
L 150.450722 284.723476 
L 150.505862 284.723476 
L 150.527024 283.670104 
L 150.661853 283.670104 
L 150.762296 282.090045 
L 150.841405 282.090045 
L 150.93669 278.929929 
L 151.006785 278.929929 
L 151.023238 277.876557 
L 151.247895 277.876557 
L 151.247895 277.349871 
L 151.369226 277.349871 
L 151.409483 276.296499 
L 151.505722 276.296499 
L 151.609385 273.136382 
L 151.621307 273.136382 
L 151.688709 271.556324 
L 151.740076 271.556324 
L 151.850203 268.922893 
L 151.889366 268.922893 
L 151.986891 267.869521 
L 152.029629 267.869521 
L 152.130233 265.236091 
L 152.184165 265.236091 
L 152.184165 264.709405 
L 152.299175 264.709405 
L 152.405838 263.129347 
L 152.451351 263.129347 
L 152.55709 261.022602 
L 152.605966 261.022602 
L 152.684631 258.915858 
L 152.718236 258.915858 
L 152.814956 257.3358 
L 152.896379 257.3358 
L 152.925894 256.282427 
L 153.021472 256.282427 
L 153.069065 255.229055 
L 153.138392 255.229055 
L 153.243677 251.015567 
L 153.279836 251.015567 
L 153.369906 248.382136 
L 153.441628 248.382136 
L 153.491659 246.802078 
L 153.591292 246.802078 
L 153.665645 244.168648 
L 153.820412 244.168648 
L 153.925152 240.481845 
L 153.93907 240.481845 
L 154.050017 237.848415 
L 154.087992 237.848415 
L 154.09144 236.795043 
L 154.215123 236.795043 
L 154.297094 233.634926 
L 154.341335 233.634926 
L 154.426099 230.47481 
L 154.463265 230.47481 
L 154.57429 226.788007 
L 154.611142 226.788007 
L 154.701267 223.627891 
L 154.771044 223.627891 
L 154.863648 220.467774 
L 154.886723 220.467774 
L 154.995093 217.834344 
L 155.0278 217.834344 
L 155.128803 214.674227 
L 155.164502 214.674227 
L 155.245367 212.040797 
L 155.316219 212.040797 
L 155.425155 208.353994 
L 155.476185 208.353994 
L 155.549279 206.773936 
L 155.596784 206.773936 
L 155.70713 203.613819 
L 155.722837 203.613819 
L 155.722837 203.087133 
L 155.851102 203.087133 
L 155.959855 197.820273 
L 155.981524 197.820273 
L 156.077167 196.240214 
L 156.095618 196.240214 
L 156.172288 193.080098 
L 156.215076 193.080098 
L 156.32159 189.393295 
L 156.385187 189.393295 
L 156.49067 186.759865 
L 156.508689 186.759865 
L 156.619396 184.126434 
L 156.658127 184.126434 
L 156.729404 181.493004 
L 156.785627 181.493004 
L 156.876971 178.332888 
L 156.918066 178.332888 
L 157.017469 174.646085 
L 157.040776 174.646085 
L 157.136588 170.959282 
L 157.159737 170.959282 
L 157.234757 168.325852 
L 157.283635 168.325852 
L 157.380981 164.63905 
L 157.400956 164.63905 
L 157.508992 161.478933 
L 157.537312 161.478933 
L 157.641697 157.79213 
L 157.683837 157.79213 
L 157.787352 153.578642 
L 157.809652 153.578642 
L 157.906885 148.838467 
L 157.951154 148.838467 
L 158.061338 145.678351 
L 158.11617 145.678351 
L 158.214435 141.464862 
L 158.233478 141.464862 
L 158.341898 136.724687 
L 158.387773 136.724687 
L 158.489883 133.037885 
L 158.500597 133.037885 
L 158.591399 128.824396 
L 158.612695 128.824396 
L 158.71879 124.084221 
L 158.734649 124.084221 
L 158.840006 119.344047 
L 158.866247 119.344047 
L 158.965601 116.18393 
L 159.009867 116.18393 
L 159.116165 112.497128 
L 159.157472 112.497128 
L 159.242359 108.810325 
L 159.293606 108.810325 
L 159.40328 102.490092 
L 159.421068 102.490092 
L 159.497101 98.803289 
L 159.542562 98.803289 
L 159.643163 95.116487 
L 159.658204 95.116487 
L 159.755651 90.902998 
L 159.802929 90.902998 
L 159.872369 87.742882 
L 159.914394 87.742882 
L 159.98831 85.636137 
L 160.030058 85.636137 
L 160.127894 79.842591 
L 160.142522 79.842591 
L 160.179039 76.155788 
L 160.288133 76.155788 
L 160.382133 70.888927 
L 160.422949 70.888927 
L 160.523381 68.255497 
L 160.537682 68.255497 
L 160.627979 63.515322 
L 160.651664 63.515322 
L 160.741375 58.775147 
L 160.769609 58.775147 
L 160.863394 54.561659 
L 160.886762 54.561659 
L 160.972951 50.874856 
L 161.005452 50.874856 
L 161.074895 46.134681 
L 161.118732 46.134681 
L 161.208371 41.921193 
L 161.23586 41.921193 
L 161.338558 39.287762 
L 161.356752 39.287762 
L 161.461003 36.654332 
L 161.488097 36.654332 
L 161.571372 33.494215 
L 161.6095 33.494215 
L 161.689969 31.914157 
L 161.893939 31.914157 
L 161.893939 31.387471 
L 162.016937 31.387471 
L 162.049736 30.334099 
L 338.688 30.334099 
L 338.688 30.334099 
" style="fill:none;stroke:#000080;stroke-linecap:square;stroke-width:1.5;"/>
   </g>
   <g id="line2d_40">
    <g>
     <use style="fill-opacity:0;stroke:#000080;stroke-width:1.5;" x="159.492042" xlink:href="#md7b81085b5" y="99.856662"/>
     <use style="fill-opacity:0;stroke:#000080;stroke-width:1.5;" x="162.049736" xlink:href="#md7b81085b5" y="30.860785"/>
     <use style="fill-opacity:0;stroke:#000080;stroke-width:1.5;" x="162.049736" xlink:href="#md7b81085b5" y="30.334099"/>
     <use style="fill-opacity:0;stroke:#000080;stroke-width:1.5;" x="162.049736" xlink:href="#md7b81085b5" y="30.334099"/>
     <use style="fill-opacity:0;stroke:#000080;stroke-width:1.5;" x="338.688" xlink:href="#md7b81085b5" y="30.334099"/>
    </g>
   </g>
   <g id="line2d_41">
    <path style="fill:none;stroke:#000080;stroke-linecap:square;stroke-width:1.5;"/>
    <g/>
   </g>
   <g id="line2d_42">
    <defs>
     <path d="M 0 1.5 
C 0.397805 1.5 0.77937 1.341951 1.06066 1.06066 
C 1.341951 0.77937 1.5 0.397805 1.5 0 
C 1.5 -0.397805 1.341951 -0.77937 1.06066 -1.06066 
C 0.77937 -1.341951 0.397805 -1.5 0 -1.5 
C -0.397805 -1.5 -0.77937 -1.341951 -1.06066 -1.06066 
C -1.341951 -0.77937 -1.5 -0.397805 -1.5 0 
C -1.5 0.397805 -1.341951 0.77937 -1.06066 1.06066 
C -0.77937 1.341951 -0.397805 1.5 0 1.5 
z
" id="ma91abdeec4" style="stroke:#ff00ff;"/>
    </defs>
    <g>
     <use style="fill:#ff00ff;stroke:#ff00ff;" x="183.478536" xlink:href="#ma91abdeec4" y="30.334099"/>
     <use style="fill:#ff00ff;stroke:#ff00ff;" x="183.478536" xlink:href="#ma91abdeec4" y="30.334099"/>
    </g>
   </g>
   <g id="line2d_43">
    <path d="M 171.808721 298.944 
L 171.808721 298.417314 
L 171.988797 298.417314 
L 171.988797 297.890628 
L 172.509738 297.890628 
L 172.509738 297.363942 
L 172.674441 297.363942 
L 172.674441 296.837256 
L 172.831718 296.837256 
L 172.831718 296.31057 
L 172.981755 296.31057 
L 173.077198 295.257197 
L 173.324993 295.257197 
L 173.42996 293.677139 
L 173.634644 293.677139 
L 173.634644 293.150453 
L 173.81694 293.150453 
L 173.81694 292.623767 
L 174.042437 292.623767 
L 174.042437 292.097081 
L 174.195519 292.097081 
L 174.263971 291.043709 
L 174.355902 291.043709 
L 174.355902 290.517023 
L 174.496641 290.517023 
L 174.587357 289.463651 
L 174.739972 289.463651 
L 174.739972 288.936964 
L 174.936186 288.936964 
L 175.042289 286.83022 
L 175.091997 286.83022 
L 175.176589 285.250162 
L 175.220785 285.250162 
L 175.288403 283.670104 
L 175.340474 283.670104 
L 175.398488 281.036673 
L 175.495761 281.036673 
L 175.529074 278.929929 
L 175.63966 278.929929 
L 175.724635 276.823185 
L 175.776416 276.823185 
L 175.832009 275.243126 
L 175.893352 275.243126 
L 175.998714 272.609696 
L 176.080007 272.609696 
L 176.120999 271.029638 
L 176.216274 271.029638 
L 176.305246 268.396207 
L 176.363027 268.396207 
L 176.462729 264.709405 
L 176.496155 264.709405 
L 176.60269 262.075974 
L 176.627328 262.075974 
L 176.734008 259.96923 
L 176.74718 259.96923 
L 176.832554 257.3358 
L 176.858739 257.3358 
L 176.96123 254.175683 
L 177.029842 254.175683 
L 177.137774 248.382136 
L 177.143291 248.382136 
L 177.24687 246.802078 
L 177.282476 246.802078 
L 177.383421 244.695334 
L 177.410603 244.695334 
L 177.509011 239.428473 
L 177.540492 239.428473 
L 177.648891 236.268356 
L 177.66942 236.268356 
L 177.779683 229.948123 
L 177.829252 229.948123 
L 177.928847 226.261321 
L 177.956071 226.261321 
L 178.061053 222.574518 
L 178.081974 222.574518 
L 178.178408 217.834344 
L 178.223401 217.834344 
L 178.320777 213.094169 
L 178.354259 213.094169 
L 178.461141 207.827308 
L 178.475627 207.827308 
L 178.57923 203.087133 
L 178.597002 203.087133 
L 178.70157 198.873645 
L 178.711656 198.873645 
L 178.809694 193.080098 
L 178.848922 193.080098 
L 178.954481 187.286551 
L 178.966078 187.286551 
L 179.07011 181.493004 
L 179.077517 181.493004 
L 179.188248 175.699457 
L 179.193971 175.699457 
L 179.303967 168.852538 
L 179.307216 168.852538 
L 179.39066 165.165736 
L 179.435054 165.165736 
L 179.529118 159.372189 
L 179.549953 159.372189 
L 179.652958 153.578642 
L 179.670464 153.578642 
L 179.781457 149.365153 
L 179.784617 149.365153 
L 179.879178 144.098292 
L 179.897244 144.098292 
L 180.002125 139.358118 
L 180.010707 139.358118 
L 180.11336 130.93114 
L 180.129636 130.93114 
L 180.233903 124.084221 
L 180.242372 124.084221 
L 180.343674 116.710616 
L 180.353619 116.710616 
L 180.463401 105.650209 
L 180.466441 105.650209 
L 180.574762 97.223231 
L 180.581557 97.223231 
L 180.687667 87.216196 
L 180.708662 87.216196 
L 180.816983 76.682474 
L 180.841542 76.682474 
L 180.949043 68.782183 
L 180.960126 68.782183 
L 181.045599 62.988636 
L 181.07791 62.988636 
L 181.18324 58.775147 
L 181.222575 58.775147 
L 181.32776 52.454914 
L 181.35161 52.454914 
L 181.456022 45.607995 
L 181.465353 45.607995 
L 181.567661 42.447879 
L 181.586199 42.447879 
L 181.689928 39.814448 
L 181.813454 39.814448 
L 181.901154 38.23439 
L 181.943094 38.23439 
L 181.943094 37.707704 
L 182.056524 37.707704 
L 182.12644 36.654332 
L 182.649106 36.654332 
L 182.696644 35.60096 
L 182.774699 35.60096 
L 182.830524 34.547588 
L 182.929109 34.547588 
L 182.98247 33.494215 
L 183.044846 33.494215 
L 183.044846 32.967529 
L 183.172185 32.967529 
L 183.172185 32.440843 
L 183.296664 32.440843 
L 183.325066 30.860785 
L 183.478536 30.860785 
L 183.478536 30.334099 
L 338.688 30.334099 
L 338.688 30.334099 
" style="fill:none;stroke:#ff00ff;stroke-linecap:square;stroke-width:1.5;"/>
   </g>
   <g id="line2d_44">
    <defs>
     <path d="M -0 8.485281 
L 5.091169 0 
L 0 -8.485281 
L -5.091169 -0 
z
" id="mac9f624357" style="stroke:#ff00ff;stroke-linejoin:miter;stroke-width:1.5;"/>
    </defs>
    <g>
     <use style="fill-opacity:0;stroke:#ff00ff;stroke-linejoin:miter;stroke-width:1.5;" x="180.380366" xlink:href="#mac9f624357" y="113.5505"/>
     <use style="fill-opacity:0;stroke:#ff00ff;stroke-linejoin:miter;stroke-width:1.5;" x="183.478536" xlink:href="#mac9f624357" y="30.860785"/>
     <use style="fill-opacity:0;stroke:#ff00ff;stroke-linejoin:miter;stroke-width:1.5;" x="183.478536" xlink:href="#mac9f624357" y="30.334099"/>
     <use style="fill-opacity:0;stroke:#ff00ff;stroke-linejoin:miter;stroke-width:1.5;" x="338.688" xlink:href="#mac9f624357" y="30.334099"/>
    </g>
   </g>
   <g id="line2d_45">
    <path style="fill:none;stroke:#ff00ff;stroke-linecap:square;stroke-width:1.5;"/>
    <g/>
   </g>
   <g id="line2d_46">
    <defs>
     <path d="M 0 1.5 
C 0.397805 1.5 0.77937 1.341951 1.06066 1.06066 
C 1.341951 0.77937 1.5 0.397805 1.5 0 
C 1.5 -0.397805 1.341951 -0.77937 1.06066 -1.06066 
C 0.77937 -1.341951 0.397805 -1.5 0 -1.5 
C -0.397805 -1.5 -0.77937 -1.341951 -1.06066 -1.06066 
C -1.341951 -0.77937 -1.5 -0.397805 -1.5 0 
C -1.5 0.397805 -1.341951 0.77937 -1.06066 1.06066 
C -0.77937 1.341951 -0.397805 1.5 0 1.5 
z
" id="mf55f353b5c" style="stroke:#ff0000;"/>
    </defs>
    <g>
     <use style="fill:#ff0000;stroke:#ff0000;" x="163.8024" xlink:href="#mf55f353b5c" y="30.334099"/>
     <use style="fill:#ff0000;stroke:#ff0000;" x="163.8024" xlink:href="#mf55f353b5c" y="30.334099"/>
    </g>
   </g>
   <g id="line2d_47">
    <path d="M 149.827978 298.944 
L 149.924571 297.890628 
L 150.437972 297.890628 
L 150.437972 297.363942 
L 150.687018 297.363942 
L 150.687018 296.837256 
L 150.982078 296.837256 
L 151.0643 295.257197 
L 151.1298 295.257197 
L 151.207263 294.203825 
L 151.247895 294.203825 
L 151.357131 292.623767 
L 151.389366 292.623767 
L 151.389366 292.097081 
L 151.593477 292.097081 
L 151.649092 289.990337 
L 151.732184 289.990337 
L 151.771612 288.936964 
L 151.936246 288.936964 
L 151.936246 288.410278 
L 152.083873 288.410278 
L 152.172622 285.776848 
L 152.207228 285.776848 
L 152.26858 283.670104 
L 152.337344 283.670104 
L 152.371625 282.090045 
L 152.5194 282.090045 
L 152.624728 279.456615 
L 152.703309 279.456615 
L 152.800111 276.823185 
L 152.8372 276.823185 
L 152.907453 275.769812 
L 152.977424 275.769812 
L 153.01047 274.71644 
L 153.101938 274.71644 
L 153.211071 272.609696 
L 153.236437 272.609696 
L 153.297887 271.556324 
L 153.366312 271.556324 
L 153.402218 269.976266 
L 153.545105 269.976266 
L 153.644434 267.869521 
L 153.746717 267.869521 
L 153.855395 266.289463 
L 153.869369 266.289463 
L 153.966873 264.182719 
L 154.036187 264.182719 
L 154.077643 262.60266 
L 154.149955 262.60266 
L 154.245908 260.495916 
L 154.286869 260.495916 
L 154.382073 258.389172 
L 154.426099 258.389172 
L 154.533999 256.809114 
L 154.564226 256.809114 
L 154.627867 253.648997 
L 154.734529 253.648997 
L 154.843846 251.542253 
L 154.85375 251.542253 
L 154.955763 249.435508 
L 155.021263 249.435508 
L 155.096285 247.328764 
L 155.16126 247.328764 
L 155.213066 244.168648 
L 155.316219 244.168648 
L 155.425155 241.535217 
L 155.460254 241.535217 
L 155.565128 239.428473 
L 155.574631 239.428473 
L 155.672525 235.74167 
L 155.697699 235.74167 
L 155.801159 232.054868 
L 155.847985 232.054868 
L 155.95056 229.948123 
L 155.984618 229.948123 
L 156.08947 227.314693 
L 156.129394 227.314693 
L 156.202861 224.154577 
L 156.266892 224.154577 
L 156.345845 222.574518 
L 156.400295 222.574518 
L 156.496678 217.834344 
L 156.51169 217.834344 
L 156.601491 215.727599 
L 156.711612 215.727599 
L 156.818094 213.620855 
L 156.829885 213.620855 
L 156.888722 211.514111 
L 156.976607 211.514111 
L 157.046598 208.353994 
L 157.098907 208.353994 
L 157.208825 205.193878 
L 157.217473 205.193878 
L 157.292246 203.613819 
L 157.352406 203.613819 
L 157.446526 199.927017 
L 157.486303 199.927017 
L 157.590993 196.7669 
L 157.610728 196.7669 
L 157.709073 194.660156 
L 157.723077 194.660156 
L 157.831925 189.919981 
L 157.837488 189.919981 
L 157.920731 188.866609 
L 157.951154 188.866609 
L 158.058592 185.706493 
L 158.080549 185.706493 
L 158.181741 182.546376 
L 158.198096 182.546376 
L 158.274214 179.38626 
L 158.312149 179.38626 
L 158.420083 175.172771 
L 158.468436 175.172771 
L 158.535371 173.592713 
L 158.583406 173.592713 
L 158.68438 169.379224 
L 158.71879 169.379224 
L 158.800572 164.112363 
L 158.866247 164.112363 
L 158.973421 157.79213 
L 158.98905 157.79213 
L 159.095474 154.105328 
L 159.105823 154.105328 
L 159.208968 149.891839 
L 159.239793 149.891839 
L 159.334496 145.678351 
L 159.360003 145.678351 
L 159.466728 141.464862 
L 159.489512 141.464862 
L 159.567767 139.884804 
L 159.6256 139.884804 
L 159.723229 136.724687 
L 159.750667 136.724687 
L 159.857512 131.984513 
L 159.872369 131.984513 
L 159.934136 125.66428 
L 159.993227 125.66428 
L 160.08149 120.924105 
L 160.142522 120.924105 
L 160.217906 118.290674 
L 160.263949 118.290674 
L 160.37011 111.970441 
L 160.377325 111.970441 
L 160.461277 107.230267 
L 160.499521 107.230267 
L 160.606635 105.123522 
L 160.620867 105.123522 
L 160.729597 101.43672 
L 160.769609 101.43672 
L 160.875082 96.696545 
L 160.907766 96.696545 
L 161.017045 91.95637 
L 161.023997 91.95637 
L 161.132553 88.269568 
L 161.148663 88.269568 
L 161.247301 83.529393 
L 161.281578 83.529393 
L 161.390816 78.789218 
L 161.397621 78.789218 
L 161.497119 74.57573 
L 161.512896 74.57573 
L 161.59381 70.888927 
L 161.627414 70.888927 
L 161.736738 66.675439 
L 161.741185 66.675439 
L 161.84317 63.515322 
L 161.860845 63.515322 
L 161.970914 58.248461 
L 161.97969 58.248461 
L 162.067204 52.9816 
L 162.091193 52.9816 
L 162.193324 48.768112 
L 162.212813 48.768112 
L 162.258202 47.188054 
L 162.33144 47.188054 
L 162.440724 44.027937 
L 162.449267 44.027937 
L 162.559939 41.394507 
L 162.572663 41.394507 
L 162.682557 38.761076 
L 162.733045 38.761076 
L 162.798043 37.181018 
L 162.864884 37.181018 
L 162.966741 34.020902 
L 162.995734 34.020902 
L 163.047387 32.440843 
L 163.117392 32.440843 
L 163.117392 31.914157 
L 163.414845 31.914157 
L 163.414845 31.387471 
L 163.559687 31.387471 
L 163.559687 30.860785 
L 163.8024 30.860785 
L 163.8024 30.334099 
L 338.688 30.334099 
L 338.688 30.334099 
" style="fill:none;stroke:#ff0000;stroke-linecap:square;stroke-width:1.5;"/>
   </g>
   <g id="line2d_48">
    <defs>
     <path d="M 0 -6 
L -5.196152 -3 
L -5.196152 3 
L -0 6 
L 5.196152 3 
L 5.196152 -3 
z
" id="m6db5dfebb6" style="stroke:#ff0000;stroke-linejoin:miter;stroke-width:1.5;"/>
    </defs>
    <g>
     <use style="fill-opacity:0;stroke:#ff0000;stroke-linejoin:miter;stroke-width:1.5;" x="161.548904" xlink:href="#m6db5dfebb6" y="71.942299"/>
     <use style="fill-opacity:0;stroke:#ff0000;stroke-linejoin:miter;stroke-width:1.5;" x="163.8024" xlink:href="#m6db5dfebb6" y="30.860785"/>
     <use style="fill-opacity:0;stroke:#ff0000;stroke-linejoin:miter;stroke-width:1.5;" x="163.8024" xlink:href="#m6db5dfebb6" y="30.334099"/>
     <use style="fill-opacity:0;stroke:#ff0000;stroke-linejoin:miter;stroke-width:1.5;" x="163.8024" xlink:href="#m6db5dfebb6" y="30.334099"/>
     <use style="fill-opacity:0;stroke:#ff0000;stroke-linejoin:miter;stroke-width:1.5;" x="338.688" xlink:href="#m6db5dfebb6" y="30.334099"/>
    </g>
   </g>
   <g id="line2d_49">
    <path style="fill:none;stroke:#ff0000;stroke-linecap:square;stroke-width:1.5;"/>
    <g/>
   </g>
   <g id="line2d_50">
    <defs>
     <path d="M 0 1.5 
C 0.397805 1.5 0.77937 1.341951 1.06066 1.06066 
C 1.341951 0.77937 1.5 0.397805 1.5 0 
C 1.5 -0.397805 1.341951 -0.77937 1.06066 -1.06066 
C 0.77937 -1.341951 0.397805 -1.5 0 -1.5 
C -0.397805 -1.5 -0.77937 -1.341951 -1.06066 -1.06066 
C -1.341951 -0.77937 -1.5 -0.397805 -1.5 0 
C -1.5 0.397805 -1.341951 0.77937 -1.06066 1.06066 
C -0.77937 1.341951 -0.397805 1.5 0 1.5 
z
" id="m6ecd3534eb" style="stroke:#ff7500;"/>
    </defs>
    <g>
     <use style="fill:#ff7500;stroke:#ff7500;" x="161.838748" xlink:href="#m6ecd3534eb" y="30.334099"/>
     <use style="fill:#ff7500;stroke:#ff7500;" x="161.838748" xlink:href="#m6ecd3534eb" y="30.334099"/>
    </g>
   </g>
   <g id="line2d_51">
    <path d="M 146.744138 298.944 
L 146.744138 298.417314 
L 147.525055 298.417314 
L 147.525055 297.890628 
L 148.378074 297.890628 
L 148.378074 297.363942 
L 148.577871 297.363942 
L 148.577871 296.837256 
L 149.07677 296.837256 
L 149.122675 295.257197 
L 149.218684 295.257197 
L 149.309632 293.150453 
L 149.345879 293.150453 
L 149.345879 292.623767 
L 149.499093 292.623767 
L 149.499093 292.097081 
L 149.664311 292.097081 
L 149.686518 291.043709 
L 149.889508 291.043709 
L 149.937701 289.463651 
L 150.150776 289.463651 
L 150.150776 288.936964 
L 150.416702 288.936964 
L 150.493153 286.303534 
L 150.54816 286.303534 
L 150.619831 284.723476 
L 150.737239 284.723476 
L 150.828938 282.616732 
L 150.882897 282.616732 
L 150.940821 281.036673 
L 151.019126 281.036673 
L 151.125713 279.456615 
L 151.21133 279.456615 
L 151.296529 276.823185 
L 151.381313 276.823185 
L 151.421542 274.71644 
L 151.553643 274.71644 
L 151.649092 272.08301 
L 151.728236 272.08301 
L 151.744022 269.976266 
L 151.858043 269.976266 
L 151.947946 267.869521 
L 152.114793 267.869521 
L 152.180319 264.709405 
L 152.260923 264.709405 
L 152.310635 263.129347 
L 152.417227 263.129347 
L 152.526944 260.495916 
L 152.530716 260.495916 
L 152.568381 258.389172 
L 152.654705 258.389172 
L 152.729424 255.755741 
L 152.796398 255.755741 
L 152.855715 254.702369 
L 152.925894 254.702369 
L 153.028802 251.015567 
L 153.054435 251.015567 
L 153.160227 247.85545 
L 153.189299 247.85545 
L 153.283448 246.275392 
L 153.31592 246.275392 
L 153.351929 244.168648 
L 153.448784 244.168648 
L 153.548662 242.588589 
L 153.587744 242.588589 
L 153.686831 239.428473 
L 153.70094 239.428473 
L 153.788866 238.375101 
L 153.820412 238.375101 
L 153.921671 235.74167 
L 153.984228 235.74167 
L 154.081093 233.634926 
L 154.122443 233.634926 
L 154.20485 231.001496 
L 154.24249 231.001496 
L 154.344733 227.314693 
L 154.358321 227.314693 
L 154.358321 226.261321 
L 154.47676 226.261321 
L 154.570936 224.154577 
L 154.621179 224.154577 
L 154.727882 220.99446 
L 154.741174 220.99446 
L 154.850449 216.254285 
L 154.873541 216.254285 
L 154.965604 214.674227 
L 154.985269 214.674227 
L 155.083261 211.514111 
L 155.122304 211.514111 
L 155.170985 210.460738 
L 155.261495 210.460738 
L 155.332282 206.773936 
L 155.409178 206.773936 
L 155.514359 205.720564 
L 155.53024 205.720564 
L 155.63154 202.033761 
L 155.697699 202.033761 
L 155.804285 199.927017 
L 155.826148 199.927017 
L 155.928852 194.660156 
L 155.94436 194.660156 
L 156.052535 192.026726 
L 156.067934 192.026726 
L 156.163105 187.813237 
L 156.215076 187.813237 
L 156.294262 185.179807 
L 156.327657 185.179807 
L 156.430472 181.493004 
L 156.445541 181.493004 
L 156.556648 176.752829 
L 156.583568 176.752829 
L 156.690832 174.646085 
L 156.702709 174.646085 
L 156.809245 172.539341 
L 156.818094 172.539341 
L 156.9034 169.90591 
L 156.944434 169.90591 
L 157.043687 164.112363 
L 157.142378 164.112363 
L 157.240514 159.898875 
L 157.275019 159.898875 
L 157.378126 156.212072 
L 157.415209 156.212072 
L 157.483465 153.578642 
L 157.534482 153.578642 
L 157.610728 150.945211 
L 157.647321 150.945211 
L 157.697862 148.838467 
L 157.770607 148.838467 
L 157.873609 144.624978 
L 157.890255 144.624978 
L 157.992555 140.41149 
L 158.003578 140.41149 
L 158.105217 137.251373 
L 158.127115 137.251373 
L 158.219878 133.564571 
L 158.276927 133.564571 
L 158.387773 129.351082 
L 158.409319 129.351082 
L 158.479163 125.137593 
L 158.543386 125.137593 
L 158.649902 118.290674 
L 158.68438 118.290674 
L 158.776868 114.603872 
L 158.805835 114.603872 
L 158.91338 110.390383 
L 158.965601 110.390383 
L 159.072168 104.596836 
L 159.090298 104.596836 
L 159.185813 99.856662 
L 159.206397 99.856662 
L 159.288488 98.276603 
L 159.3396 98.276603 
L 159.448985 93.536429 
L 159.471793 93.536429 
L 159.565248 90.376312 
L 159.600479 90.376312 
L 159.710743 83.002707 
L 159.720733 83.002707 
L 159.830242 78.262532 
L 159.847601 78.262532 
L 159.956318 72.995672 
L 159.966168 72.995672 
L 160.074152 68.782183 
L 160.08638 68.782183 
L 160.191194 65.622066 
L 160.198484 65.622066 
L 160.288133 61.408578 
L 160.34363 61.408578 
L 160.454097 57.721775 
L 160.46367 57.721775 
L 160.537682 55.088345 
L 160.575759 55.088345 
L 160.64693 50.34817 
L 160.696577 50.34817 
L 160.802491 45.081309 
L 160.847018 45.081309 
L 160.907766 41.921193 
L 160.965979 41.921193 
L 161.074895 37.181018 
L 161.102594 37.181018 
L 161.171652 35.60096 
L 161.27016 35.60096 
L 161.329454 34.547588 
L 161.418019 34.547588 
L 161.492608 32.967529 
L 161.53316 32.967529 
L 161.61174 31.914157 
L 161.685508 31.914157 
L 161.770068 30.860785 
L 161.838748 30.860785 
L 161.838748 30.334099 
L 338.688 30.334099 
L 338.688 30.334099 
" style="fill:none;stroke:#ff7500;stroke-linecap:square;stroke-width:1.5;"/>
   </g>
   <g id="line2d_52">
    <defs>
     <path d="M 0 -6 
L -1.347084 -1.854102 
L -5.706339 -1.854102 
L -2.179628 0.708204 
L -3.526712 4.854102 
L -0 2.291796 
L 3.526712 4.854102 
L 2.179628 0.708204 
L 5.706339 -1.854102 
L 1.347084 -1.854102 
z
" id="mcccdf5b70a" style="stroke:#ff7500;stroke-linejoin:bevel;stroke-width:1.5;"/>
    </defs>
    <g>
     <use style="fill-opacity:0;stroke:#ff7500;stroke-linejoin:bevel;stroke-width:1.5;" x="159.39565" xlink:href="#mcccdf5b70a" y="95.643173"/>
     <use style="fill-opacity:0;stroke:#ff7500;stroke-linejoin:bevel;stroke-width:1.5;" x="161.838748" xlink:href="#mcccdf5b70a" y="30.860785"/>
     <use style="fill-opacity:0;stroke:#ff7500;stroke-linejoin:bevel;stroke-width:1.5;" x="161.838748" xlink:href="#mcccdf5b70a" y="30.334099"/>
     <use style="fill-opacity:0;stroke:#ff7500;stroke-linejoin:bevel;stroke-width:1.5;" x="161.838748" xlink:href="#mcccdf5b70a" y="30.334099"/>
     <use style="fill-opacity:0;stroke:#ff7500;stroke-linejoin:bevel;stroke-width:1.5;" x="338.688" xlink:href="#mcccdf5b70a" y="30.334099"/>
    </g>
   </g>
   <g id="line2d_53">
    <path style="fill:none;stroke:#ff7500;stroke-linecap:square;stroke-width:1.5;"/>
    <g/>
   </g>
   <g id="line2d_54">
    <path d="M 338.688 30.334099 
L 369.60768 293.571802 
" style="fill:none;stroke:#ff00ff;stroke-linecap:square;stroke-width:1.5;"/>
    <g>
     <use style="fill-opacity:0;stroke:#ff00ff;stroke-linejoin:miter;stroke-width:1.5;" x="338.688" xlink:href="#mac9f624357" y="30.334099"/>
     <use style="fill-opacity:0;stroke:#ff00ff;stroke-linejoin:miter;stroke-width:1.5;" x="369.60768" xlink:href="#mac9f624357" y="293.571802"/>
    </g>
   </g>
   <g id="line2d_55">
    <path d="M 338.688 30.334099 
L 369.60768 190.4256 
" style="fill:none;stroke:#ff0000;stroke-linecap:square;stroke-width:1.5;"/>
    <g>
     <use style="fill-opacity:0;stroke:#ff0000;stroke-linejoin:miter;stroke-width:1.5;" x="338.688" xlink:href="#m6db5dfebb6" y="30.334099"/>
     <use style="fill-opacity:0;stroke:#ff0000;stroke-linejoin:miter;stroke-width:1.5;" x="369.60768" xlink:href="#m6db5dfebb6" y="190.4256"/>
    </g>
   </g>
   <g id="line2d_56">
    <path d="M 338.688 30.334099 
L 369.60768 138.852499 
" style="fill:none;stroke:#000080;stroke-linecap:square;stroke-width:1.5;"/>
    <g>
     <use style="fill-opacity:0;stroke:#000080;stroke-width:1.5;" x="338.688" xlink:href="#md7b81085b5" y="30.334099"/>
     <use style="fill-opacity:0;stroke:#000080;stroke-width:1.5;" x="369.60768" xlink:href="#md7b81085b5" y="138.852499"/>
    </g>
   </g>
   <g id="line2d_57">
    <path d="M 338.688 30.334099 
L 369.60768 87.279398 
" style="fill:none;stroke:#000080;stroke-linecap:square;stroke-width:1.5;"/>
    <g>
     <use style="fill-opacity:0;stroke:#000080;stroke-width:1.5;" x="338.688" xlink:href="#md7b81085b5" y="30.334099"/>
     <use style="fill-opacity:0;stroke:#000080;stroke-width:1.5;" x="369.60768" xlink:href="#md7b81085b5" y="87.279398"/>
    </g>
   </g>
   <g id="line2d_58">
    <path d="M 338.688 30.334099 
L 369.60768 35.706297 
" style="fill:none;stroke:#ff7500;stroke-linecap:square;stroke-width:1.5;"/>
    <g>
     <use style="fill-opacity:0;stroke:#ff7500;stroke-linejoin:bevel;stroke-width:1.5;" x="338.688" xlink:href="#mcccdf5b70a" y="30.334099"/>
     <use style="fill-opacity:0;stroke:#ff7500;stroke-linejoin:bevel;stroke-width:1.5;" x="369.60768" xlink:href="#mcccdf5b70a" y="35.706297"/>
    </g>
   </g>
   <g id="line2d_59">
    <path d="M 338.688 298.944 
L 338.688 30.334099 
" style="fill:none;stroke:#000000;stroke-linecap:square;stroke-width:1.5;"/>
   </g>
   <g id="patch_3">
    <path d="M 57.6 298.944 
L 57.6 27.648 
" style="fill:none;stroke:#000000;stroke-linecap:square;stroke-linejoin:miter;stroke-width:0.8;"/>
   </g>
   <g id="patch_4">
    <path d="M 338.688 298.944 
L 338.688 27.648 
" style="fill:none;stroke:#000000;stroke-linecap:square;stroke-linejoin:miter;stroke-width:0.8;"/>
   </g>
   <g id="patch_5">
    <path d="M 57.6 298.944 
L 338.688 298.944 
" style="fill:none;stroke:#000000;stroke-linecap:square;stroke-linejoin:miter;stroke-width:0.8;"/>
   </g>
   <g id="patch_6">
    <path d="M 57.6 27.648 
L 338.688 27.648 
" style="fill:none;stroke:#000000;stroke-linecap:square;stroke-linejoin:miter;stroke-width:0.8;"/>
   </g>
   <g id="text_13">
    <!-- 400s-2e4 -->
    <g transform="translate(375.22944 298.262739)scale(0.17 -0.17)">
     <use xlink:href="#DejaVuSans-52"/>
     <use x="63.623047" xlink:href="#DejaVuSans-48"/>
     <use x="127.246094" xlink:href="#DejaVuSans-48"/>
     <use x="190.869141" xlink:href="#DejaVuSans-115"/>
     <use x="242.96875" xlink:href="#DejaVuSans-45"/>
     <use x="279.052734" xlink:href="#DejaVuSans-50"/>
     <use x="342.675781" xlink:href="#DejaVuSans-101"/>
     <use x="404.199219" xlink:href="#DejaVuSans-52"/>
    </g>
   </g>
   <g id="text_14">
    <!-- best 2009 -->
    <defs>
     <path d="M 48.6875 27.296875 
Q 48.6875 37.203125 44.609375 42.84375 
Q 40.53125 48.484375 33.40625 48.484375 
Q 26.265625 48.484375 22.1875 42.84375 
Q 18.109375 37.203125 18.109375 27.296875 
Q 18.109375 17.390625 22.1875 11.75 
Q 26.265625 6.109375 33.40625 6.109375 
Q 40.53125 6.109375 44.609375 11.75 
Q 48.6875 17.390625 48.6875 27.296875 
z
M 18.109375 46.390625 
Q 20.953125 51.265625 25.265625 53.625 
Q 29.59375 56 35.59375 56 
Q 45.5625 56 51.78125 48.09375 
Q 58.015625 40.1875 58.015625 27.296875 
Q 58.015625 14.40625 51.78125 6.484375 
Q 45.5625 -1.421875 35.59375 -1.421875 
Q 29.59375 -1.421875 25.265625 0.953125 
Q 20.953125 3.328125 18.109375 8.203125 
L 18.109375 0 
L 9.078125 0 
L 9.078125 75.984375 
L 18.109375 75.984375 
z
" id="DejaVuSans-98"/>
     <path d="M 10.984375 1.515625 
L 10.984375 10.5 
Q 14.703125 8.734375 18.5 7.8125 
Q 22.3125 6.890625 25.984375 6.890625 
Q 35.75 6.890625 40.890625 13.453125 
Q 46.046875 20.015625 46.78125 33.40625 
Q 43.953125 29.203125 39.59375 26.953125 
Q 35.25 24.703125 29.984375 24.703125 
Q 19.046875 24.703125 12.671875 31.3125 
Q 6.296875 37.9375 6.296875 49.421875 
Q 6.296875 60.640625 12.9375 67.421875 
Q 19.578125 74.21875 30.609375 74.21875 
Q 43.265625 74.21875 49.921875 64.515625 
Q 56.59375 54.828125 56.59375 36.375 
Q 56.59375 19.140625 48.40625 8.859375 
Q 40.234375 -1.421875 26.421875 -1.421875 
Q 22.703125 -1.421875 18.890625 -0.6875 
Q 15.09375 0.046875 10.984375 1.515625 
z
M 30.609375 32.421875 
Q 37.25 32.421875 41.125 36.953125 
Q 45.015625 41.5 45.015625 49.421875 
Q 45.015625 57.28125 41.125 61.84375 
Q 37.25 66.40625 30.609375 66.40625 
Q 23.96875 66.40625 20.09375 61.84375 
Q 16.21875 57.28125 16.21875 49.421875 
Q 16.21875 41.5 20.09375 36.953125 
Q 23.96875 32.421875 30.609375 32.421875 
z
" id="DejaVuSans-57"/>
    </defs>
    <g transform="translate(375.22944 246.689638)scale(0.17 -0.17)">
     <use xlink:href="#DejaVuSans-98"/>
     <use x="63.476562" xlink:href="#DejaVuSans-101"/>
     <use x="125" xlink:href="#DejaVuSans-115"/>
     <use x="177.099609" xlink:href="#DejaVuSans-116"/>
     <use x="216.308594" xlink:href="#DejaVuSans-32"/>
     <use x="248.095703" xlink:href="#DejaVuSans-50"/>
     <use x="311.71875" xlink:href="#DejaVuSans-48"/>
     <use x="375.341797" xlink:href="#DejaVuSans-48"/>
     <use x="438.964844" xlink:href="#DejaVuSans-57"/>
    </g>
   </g>
   <g id="text_15">
    <!-- 200s-2e4 -->
    <g transform="translate(375.22944 195.116537)scale(0.17 -0.17)">
     <use xlink:href="#DejaVuSans-50"/>
     <use x="63.623047" xlink:href="#DejaVuSans-48"/>
     <use x="127.246094" xlink:href="#DejaVuSans-48"/>
     <use x="190.869141" xlink:href="#DejaVuSans-115"/>
     <use x="242.96875" xlink:href="#DejaVuSans-45"/>
     <use x="279.052734" xlink:href="#DejaVuSans-50"/>
     <use x="342.675781" xlink:href="#DejaVuSans-101"/>
     <use x="404.199219" xlink:href="#DejaVuSans-52"/>
    </g>
   </g>
   <g id="text_16">
    <!-- 100-1e5 -->
    <defs>
     <path d="M 10.796875 72.90625 
L 49.515625 72.90625 
L 49.515625 64.59375 
L 19.828125 64.59375 
L 19.828125 46.734375 
Q 21.96875 47.46875 24.109375 47.828125 
Q 26.265625 48.1875 28.421875 48.1875 
Q 40.625 48.1875 47.75 41.5 
Q 54.890625 34.8125 54.890625 23.390625 
Q 54.890625 11.625 47.5625 5.09375 
Q 40.234375 -1.421875 26.90625 -1.421875 
Q 22.3125 -1.421875 17.546875 -0.640625 
Q 12.796875 0.140625 7.71875 1.703125 
L 7.71875 11.625 
Q 12.109375 9.234375 16.796875 8.0625 
Q 21.484375 6.890625 26.703125 6.890625 
Q 35.15625 6.890625 40.078125 11.328125 
Q 45.015625 15.765625 45.015625 23.390625 
Q 45.015625 31 40.078125 35.4375 
Q 35.15625 39.890625 26.703125 39.890625 
Q 22.75 39.890625 18.8125 39.015625 
Q 14.890625 38.140625 10.796875 36.28125 
z
" id="DejaVuSans-53"/>
    </defs>
    <g transform="translate(375.22944 143.543437)scale(0.17 -0.17)">
     <use xlink:href="#DejaVuSans-49"/>
     <use x="63.623047" xlink:href="#DejaVuSans-48"/>
     <use x="127.246094" xlink:href="#DejaVuSans-48"/>
     <use x="190.869141" xlink:href="#DejaVuSans-45"/>
     <use x="226.953125" xlink:href="#DejaVuSans-49"/>
     <use x="290.576172" xlink:href="#DejaVuSans-101"/>
     <use x="352.099609" xlink:href="#DejaVuSans-53"/>
    </g>
   </g>
   <g id="text_17">
    <!-- 100-2e4 -->
    <g transform="translate(375.22944 91.970336)scale(0.17 -0.17)">
     <use xlink:href="#DejaVuSans-49"/>
     <use x="63.623047" xlink:href="#DejaVuSans-48"/>
     <use x="127.246094" xlink:href="#DejaVuSans-48"/>
     <use x="190.869141" xlink:href="#DejaVuSans-45"/>
     <use x="226.953125" xlink:href="#DejaVuSans-50"/>
     <use x="290.576172" xlink:href="#DejaVuSans-101"/>
     <use x="352.099609" xlink:href="#DejaVuSans-52"/>
    </g>
   </g>
   <g id="text_18">
    <!-- 140s-2e4 -->
    <g transform="translate(375.22944 40.397235)scale(0.17 -0.17)">
     <use xlink:href="#DejaVuSans-49"/>
     <use x="63.623047" xlink:href="#DejaVuSans-52"/>
     <use x="127.246094" xlink:href="#DejaVuSans-48"/>
     <use x="190.869141" xlink:href="#DejaVuSans-115"/>
     <use x="242.96875" xlink:href="#DejaVuSans-45"/>
     <use x="279.052734" xlink:href="#DejaVuSans-50"/>
     <use x="342.675781" xlink:href="#DejaVuSans-101"/>
     <use x="404.199219" xlink:href="#DejaVuSans-52"/>
    </g>
   </g>
   <g id="text_19">
    <!-- bbob f11, 20-D -->
    <defs>
     <path d="M 19.671875 64.796875 
L 19.671875 8.109375 
L 31.59375 8.109375 
Q 46.6875 8.109375 53.6875 14.9375 
Q 60.6875 21.78125 60.6875 36.53125 
Q 60.6875 51.171875 53.6875 57.984375 
Q 46.6875 64.796875 31.59375 64.796875 
z
M 9.8125 72.90625 
L 30.078125 72.90625 
Q 51.265625 72.90625 61.171875 64.09375 
Q 71.09375 55.28125 71.09375 36.53125 
Q 71.09375 17.671875 61.125 8.828125 
Q 51.171875 0 30.078125 0 
L 9.8125 0 
z
" id="DejaVuSans-68"/>
    </defs>
    <g transform="translate(60.41088 38.111366)scale(0.102 -0.102)">
     <use xlink:href="#DejaVuSans-98"/>
     <use x="63.476562" xlink:href="#DejaVuSans-98"/>
     <use x="126.953125" xlink:href="#DejaVuSans-111"/>
     <use x="188.134766" xlink:href="#DejaVuSans-98"/>
     <use x="251.611328" xlink:href="#DejaVuSans-32"/>
     <use x="283.398438" xlink:href="#DejaVuSans-102"/>
     <use x="318.603516" xlink:href="#DejaVuSans-49"/>
     <use x="382.226562" xlink:href="#DejaVuSans-49"/>
     <use x="445.849609" xlink:href="#DejaVuSans-44"/>
     <use x="477.636719" xlink:href="#DejaVuSans-32"/>
     <use x="509.423828" xlink:href="#DejaVuSans-50"/>
     <use x="573.046875" xlink:href="#DejaVuSans-48"/>
     <use x="636.669922" xlink:href="#DejaVuSans-45"/>
     <use x="672.753906" xlink:href="#DejaVuSans-68"/>
    </g>
    <!-- 51 targets: 100..1e-08 -->
    <defs>
     <path d="M 11.71875 12.40625 
L 22.015625 12.40625 
L 22.015625 0 
L 11.71875 0 
z
M 11.71875 51.703125 
L 22.015625 51.703125 
L 22.015625 39.3125 
L 11.71875 39.3125 
z
" id="DejaVuSans-58"/>
    </defs>
    <g transform="translate(60.41088 49.533135)scale(0.102 -0.102)">
     <use xlink:href="#DejaVuSans-53"/>
     <use x="63.623047" xlink:href="#DejaVuSans-49"/>
     <use x="127.246094" xlink:href="#DejaVuSans-32"/>
     <use x="159.033203" xlink:href="#DejaVuSans-116"/>
     <use x="198.242188" xlink:href="#DejaVuSans-97"/>
     <use x="259.521484" xlink:href="#DejaVuSans-114"/>
     <use x="300.619141" xlink:href="#DejaVuSans-103"/>
     <use x="364.095703" xlink:href="#DejaVuSans-101"/>
     <use x="425.619141" xlink:href="#DejaVuSans-116"/>
     <use x="464.828125" xlink:href="#DejaVuSans-115"/>
     <use x="516.927734" xlink:href="#DejaVuSans-58"/>
     <use x="550.619141" xlink:href="#DejaVuSans-32"/>
     <use x="582.40625" xlink:href="#DejaVuSans-49"/>
     <use x="646.029297" xlink:href="#DejaVuSans-48"/>
     <use x="709.652344" xlink:href="#DejaVuSans-48"/>
     <use x="773.275391" xlink:href="#DejaVuSans-46"/>
     <use x="805.0625" xlink:href="#DejaVuSans-46"/>
     <use x="836.849609" xlink:href="#DejaVuSans-49"/>
     <use x="900.472656" xlink:href="#DejaVuSans-101"/>
     <use x="961.996094" xlink:href="#DejaVuSans-45"/>
     <use x="998.080078" xlink:href="#DejaVuSans-48"/>
     <use x="1061.703125" xlink:href="#DejaVuSans-56"/>
    </g>
    <!-- 15 instances -->
    <g transform="translate(60.41088 60.954904)scale(0.102 -0.102)">
     <use xlink:href="#DejaVuSans-49"/>
     <use x="63.623047" xlink:href="#DejaVuSans-53"/>
     <use x="127.246094" xlink:href="#DejaVuSans-32"/>
     <use x="159.033203" xlink:href="#DejaVuSans-105"/>
     <use x="186.816406" xlink:href="#DejaVuSans-110"/>
     <use x="250.195312" xlink:href="#DejaVuSans-115"/>
     <use x="302.294922" xlink:href="#DejaVuSans-116"/>
     <use x="341.503906" xlink:href="#DejaVuSans-97"/>
     <use x="402.783203" xlink:href="#DejaVuSans-110"/>
     <use x="466.162109" xlink:href="#DejaVuSans-99"/>
     <use x="521.142578" xlink:href="#DejaVuSans-101"/>
     <use x="582.666016" xlink:href="#DejaVuSans-115"/>
    </g>
   </g>
   <g id="text_20">
    <!-- v2.3.3.18.73 -->
    <defs>
     <path d="M 40.578125 39.3125 
Q 47.65625 37.796875 51.625 33 
Q 55.609375 28.21875 55.609375 21.1875 
Q 55.609375 10.40625 48.1875 4.484375 
Q 40.765625 -1.421875 27.09375 -1.421875 
Q 22.515625 -1.421875 17.65625 -0.515625 
Q 12.796875 0.390625 7.625 2.203125 
L 7.625 11.71875 
Q 11.71875 9.328125 16.59375 8.109375 
Q 21.484375 6.890625 26.8125 6.890625 
Q 36.078125 6.890625 40.9375 10.546875 
Q 45.796875 14.203125 45.796875 21.1875 
Q 45.796875 27.640625 41.28125 31.265625 
Q 36.765625 34.90625 28.71875 34.90625 
L 20.21875 34.90625 
L 20.21875 43.015625 
L 29.109375 43.015625 
Q 36.375 43.015625 40.234375 45.921875 
Q 44.09375 48.828125 44.09375 54.296875 
Q 44.09375 59.90625 40.109375 62.90625 
Q 36.140625 65.921875 28.71875 65.921875 
Q 24.65625 65.921875 20.015625 65.03125 
Q 15.375 64.15625 9.8125 62.3125 
L 9.8125 71.09375 
Q 15.4375 72.65625 20.34375 73.4375 
Q 25.25 74.21875 29.59375 74.21875 
Q 40.828125 74.21875 47.359375 69.109375 
Q 53.90625 64.015625 53.90625 55.328125 
Q 53.90625 49.265625 50.4375 45.09375 
Q 46.96875 40.921875 40.578125 39.3125 
z
" id="DejaVuSans-51"/>
     <path d="M 8.203125 72.90625 
L 55.078125 72.90625 
L 55.078125 68.703125 
L 28.609375 0 
L 18.3125 0 
L 43.21875 64.59375 
L 8.203125 64.59375 
z
" id="DejaVuSans-55"/>
    </defs>
    <g style="fill:#808080;" transform="translate(166.559625 294.151352)scale(0.1 -0.1)">
     <use xlink:href="#DejaVuSans-118"/>
     <use x="59.179688" xlink:href="#DejaVuSans-50"/>
     <use x="122.802734" xlink:href="#DejaVuSans-46"/>
     <use x="154.589844" xlink:href="#DejaVuSans-51"/>
     <use x="218.212891" xlink:href="#DejaVuSans-46"/>
     <use x="250" xlink:href="#DejaVuSans-51"/>
     <use x="313.623047" xlink:href="#DejaVuSans-46"/>
     <use x="345.410156" xlink:href="#DejaVuSans-49"/>
     <use x="409.033203" xlink:href="#DejaVuSans-56"/>
     <use x="472.65625" xlink:href="#DejaVuSans-46"/>
     <use x="504.443359" xlink:href="#DejaVuSans-55"/>
     <use x="568.066406" xlink:href="#DejaVuSans-51"/>
    </g>
   </g>
   <g id="text_21">
    <!-- 11 Discus -->
    <g transform="translate(149.508062 21.648)scale(0.2 -0.2)">
     <use xlink:href="#DejaVuSans-49"/>
     <use x="63.623047" xlink:href="#DejaVuSans-49"/>
     <use x="127.246094" xlink:href="#DejaVuSans-32"/>
     <use x="159.033203" xlink:href="#DejaVuSans-68"/>
     <use x="236.035156" xlink:href="#DejaVuSans-105"/>
     <use x="263.818359" xlink:href="#DejaVuSans-115"/>
     <use x="315.917969" xlink:href="#DejaVuSans-99"/>
     <use x="370.898438" xlink:href="#DejaVuSans-117"/>
     <use x="434.277344" xlink:href="#DejaVuSans-115"/>
    </g>
   </g>
  </g>
 </g>
 <defs>
  <clipPath id="p3895128e73">
   <rect height="271.296" width="281.088" x="57.6" y="27.648"/>
  </clipPath>
 </defs>
</svg>
