<?xml version="1.0" encoding="utf-8" standalone="no"?>
<!DOCTYPE svg PUBLIC "-//W3C//DTD SVG 1.1//EN"
  "http://www.w3.org/Graphics/SVG/1.1/DTD/svg11.dtd">
<!-- Created with matplotlib (https://matplotlib.org/) -->
<svg height="345.6pt" version="1.1" viewBox="0 0 460.8 345.6" width="460.8pt" xmlns="http://www.w3.org/2000/svg" xmlns:xlink="http://www.w3.org/1999/xlink">
 <defs>
  <style type="text/css">
*{stroke-linecap:butt;stroke-linejoin:round;}
  </style>
 </defs>
 <g id="figure_1">
  <g id="patch_1">
   <path d="M 0 345.6 
L 460.8 345.6 
L 460.8 0 
L 0 0 
z
" style="fill:#ffffff;"/>
  </g>
  <g id="axes_1">
   <g id="patch_2">
    <path d="M 57.6 298.944 
L 338.688 298.944 
L 338.688 27.648 
L 57.6 27.648 
z
" style="fill:#ffffff;"/>
   </g>
   <g id="line2d_1">
    <path d="M 81.775977 298.944 
L 81.775977 293.677139 
L 93.121756 293.677139 
L 93.121756 288.410278 
L 93.863965 288.410278 
L 93.863965 283.143418 
L 100.934985 283.143418 
L 100.934985 277.876557 
L 109.843417 277.876557 
L 109.843417 272.609696 
L 111.767808 272.609696 
L 111.767808 267.342835 
L 114.860386 267.342835 
L 114.860386 262.075974 
L 116.914437 262.075974 
L 116.914437 256.809114 
L 118.576578 256.809114 
L 118.576578 251.542253 
L 118.751849 251.542253 
L 118.751849 246.275392 
L 119.602714 246.275392 
L 119.602714 241.008531 
L 124.743806 241.008531 
L 124.743806 235.74167 
L 125.351508 235.74167 
L 125.351508 230.47481 
L 128.411207 230.47481 
L 128.411207 225.207949 
L 128.905271 225.207949 
L 128.905271 219.941088 
L 133.04822 219.941088 
L 133.04822 214.674227 
L 133.201197 214.674227 
L 133.201197 209.407366 
L 134.591225 209.407366 
L 134.591225 204.140506 
L 134.870259 204.140506 
L 134.870259 198.873645 
L 135.415281 198.873645 
L 135.415281 193.606784 
L 135.615352 193.606784 
L 135.615352 188.339923 
L 135.878591 188.339923 
L 135.878591 183.073062 
L 136.008736 183.073062 
L 136.008736 177.806202 
L 136.202149 177.806202 
L 136.202149 172.539341 
L 136.393441 172.539341 
L 136.393441 167.27248 
L 136.519813 167.27248 
L 136.519813 162.005619 
L 136.707671 162.005619 
L 136.707671 156.738758 
L 136.769843 156.738758 
L 136.769843 151.471897 
L 137.077422 151.471897 
L 137.077422 146.205037 
L 137.198951 146.205037 
L 137.198951 140.938176 
L 137.259399 140.938176 
L 137.259399 135.671315 
L 137.439497 135.671315 
L 137.439497 130.404454 
L 137.558536 130.404454 
L 137.558536 125.137593 
L 137.794206 125.137593 
L 137.794206 119.870733 
L 137.910857 119.870733 
L 137.910857 114.603872 
L 138.026733 114.603872 
L 138.026733 109.337011 
L 138.199116 109.337011 
L 138.199116 104.07015 
L 138.426341 104.07015 
L 138.426341 98.803289 
L 138.538853 98.803289 
L 138.538853 93.536429 
L 138.706272 93.536429 
L 138.706272 88.269568 
L 138.761723 88.269568 
L 138.761723 83.002707 
L 138.927025 83.002707 
L 138.927025 77.735846 
L 138.981779 77.735846 
L 138.981779 72.468985 
L 139.145019 72.468985 
L 139.145019 67.202125 
L 139.306744 67.202125 
L 139.306744 61.935264 
L 139.413734 61.935264 
L 139.413734 56.668403 
L 139.520072 56.668403 
L 139.520072 51.401542 
L 139.783113 51.401542 
L 139.783113 46.134681 
L 139.835248 46.134681 
L 139.835248 40.867821 
L 139.939053 40.867821 
L 139.939053 35.60096 
L 140.093612 35.60096 
L 140.093612 30.334099 
L 338.688 30.334099 
" style="fill:none;stroke:#f5deb3;stroke-linecap:square;stroke-width:4;"/>
   </g>
   <g id="line2d_2">
    <defs>
     <path d="M -0 7.778175 
L 7.778175 0 
L 0 -7.778175 
L -7.778175 -0 
z
" id="mcfd087bcc9" style="stroke:#f5deb3;stroke-linejoin:miter;stroke-width:1.5;"/>
    </defs>
    <g>
     <use style="fill:#f5deb3;stroke:#f5deb3;stroke-linejoin:miter;stroke-width:1.5;" x="128.905271" xlink:href="#mcfd087bcc9" y="219.941088"/>
     <use style="fill:#f5deb3;stroke:#f5deb3;stroke-linejoin:miter;stroke-width:1.5;" x="138.761723" xlink:href="#mcfd087bcc9" y="83.002707"/>
     <use style="fill:#f5deb3;stroke:#f5deb3;stroke-linejoin:miter;stroke-width:1.5;" x="140.093612" xlink:href="#mcfd087bcc9" y="30.334099"/>
     <use style="fill:#f5deb3;stroke:#f5deb3;stroke-linejoin:miter;stroke-width:1.5;" x="140.093612" xlink:href="#mcfd087bcc9" y="30.334099"/>
     <use style="fill:#f5deb3;stroke:#f5deb3;stroke-linejoin:miter;stroke-width:1.5;" x="338.688" xlink:href="#mcfd087bcc9" y="30.334099"/>
    </g>
   </g>
   <g id="line2d_3">
    <path style="fill:none;stroke:#f5deb3;stroke-linecap:square;stroke-width:4;"/>
    <g/>
   </g>
   <g id="line2d_4">
    <path d="M 338.688 30.334099 
L 369.60768 35.706297 
" style="fill:none;stroke:#f5deb3;stroke-linecap:square;stroke-width:4;"/>
    <g>
     <use style="fill:#f5deb3;stroke:#f5deb3;stroke-linejoin:miter;stroke-width:1.5;" x="338.688" xlink:href="#mcfd087bcc9" y="30.334099"/>
     <use style="fill:#f5deb3;stroke:#f5deb3;stroke-linejoin:miter;stroke-width:1.5;" x="369.60768" xlink:href="#mcfd087bcc9" y="35.706297"/>
    </g>
   </g>
   <g id="matplotlib.axis_1">
    <g id="xtick_1">
     <g id="line2d_5">
      <path clip-path="url(#p79dc89eac8)" d="M 57.6 298.944 
L 57.6 27.648 
" style="fill:none;stroke:#b0b0b0;stroke-linecap:square;stroke-width:0.8;"/>
     </g>
     <g id="line2d_6">
      <defs>
       <path d="M 0 0 
L 0 3.5 
" id="m6d273cda42" style="stroke:#000000;stroke-width:0.8;"/>
      </defs>
      <g>
       <use style="stroke:#000000;stroke-width:0.8;" x="57.6" xlink:href="#m6d273cda42" y="298.944"/>
      </g>
     </g>
     <g id="text_1">
      <!-- 0 -->
      <defs>
       <path d="M 31.78125 66.40625 
Q 24.171875 66.40625 20.328125 58.90625 
Q 16.5 51.421875 16.5 36.375 
Q 16.5 21.390625 20.328125 13.890625 
Q 24.171875 6.390625 31.78125 6.390625 
Q 39.453125 6.390625 43.28125 13.890625 
Q 47.125 21.390625 47.125 36.375 
Q 47.125 51.421875 43.28125 58.90625 
Q 39.453125 66.40625 31.78125 66.40625 
z
M 31.78125 74.21875 
Q 44.046875 74.21875 50.515625 64.515625 
Q 56.984375 54.828125 56.984375 36.375 
Q 56.984375 17.96875 50.515625 8.265625 
Q 44.046875 -1.421875 31.78125 -1.421875 
Q 19.53125 -1.421875 13.0625 8.265625 
Q 6.59375 17.96875 6.59375 36.375 
Q 6.59375 54.828125 13.0625 64.515625 
Q 19.53125 74.21875 31.78125 74.21875 
z
" id="DejaVuSans-48"/>
      </defs>
      <g transform="translate(51.2375 321.140875)scale(0.2 -0.2)">
       <use xlink:href="#DejaVuSans-48"/>
      </g>
     </g>
    </g>
    <g id="xtick_2">
     <g id="line2d_7">
      <path clip-path="url(#p79dc89eac8)" d="M 137.910857 298.944 
L 137.910857 27.648 
" style="fill:none;stroke:#b0b0b0;stroke-linecap:square;stroke-width:0.8;"/>
     </g>
     <g id="line2d_8">
      <g>
       <use style="stroke:#000000;stroke-width:0.8;" x="137.910857" xlink:href="#m6d273cda42" y="298.944"/>
      </g>
     </g>
     <g id="text_2">
      <!-- 2 -->
      <defs>
       <path d="M 19.1875 8.296875 
L 53.609375 8.296875 
L 53.609375 0 
L 7.328125 0 
L 7.328125 8.296875 
Q 12.9375 14.109375 22.625 23.890625 
Q 32.328125 33.6875 34.8125 36.53125 
Q 39.546875 41.84375 41.421875 45.53125 
Q 43.3125 49.21875 43.3125 52.78125 
Q 43.3125 58.59375 39.234375 62.25 
Q 35.15625 65.921875 28.609375 65.921875 
Q 23.96875 65.921875 18.8125 64.3125 
Q 13.671875 62.703125 7.8125 59.421875 
L 7.8125 69.390625 
Q 13.765625 71.78125 18.9375 73 
Q 24.125 74.21875 28.421875 74.21875 
Q 39.75 74.21875 46.484375 68.546875 
Q 53.21875 62.890625 53.21875 53.421875 
Q 53.21875 48.921875 51.53125 44.890625 
Q 49.859375 40.875 45.40625 35.40625 
Q 44.1875 33.984375 37.640625 27.21875 
Q 31.109375 20.453125 19.1875 8.296875 
z
" id="DejaVuSans-50"/>
      </defs>
      <g transform="translate(131.548357 321.140875)scale(0.2 -0.2)">
       <use xlink:href="#DejaVuSans-50"/>
      </g>
     </g>
    </g>
    <g id="xtick_3">
     <g id="line2d_9">
      <path clip-path="url(#p79dc89eac8)" d="M 218.221714 298.944 
L 218.221714 27.648 
" style="fill:none;stroke:#b0b0b0;stroke-linecap:square;stroke-width:0.8;"/>
     </g>
     <g id="line2d_10">
      <g>
       <use style="stroke:#000000;stroke-width:0.8;" x="218.221714" xlink:href="#m6d273cda42" y="298.944"/>
      </g>
     </g>
     <g id="text_3">
      <!-- 4 -->
      <defs>
       <path d="M 37.796875 64.3125 
L 12.890625 25.390625 
L 37.796875 25.390625 
z
M 35.203125 72.90625 
L 47.609375 72.90625 
L 47.609375 25.390625 
L 58.015625 25.390625 
L 58.015625 17.1875 
L 47.609375 17.1875 
L 47.609375 0 
L 37.796875 0 
L 37.796875 17.1875 
L 4.890625 17.1875 
L 4.890625 26.703125 
z
" id="DejaVuSans-52"/>
      </defs>
      <g transform="translate(211.859214 321.140875)scale(0.2 -0.2)">
       <use xlink:href="#DejaVuSans-52"/>
      </g>
     </g>
    </g>
    <g id="xtick_4">
     <g id="line2d_11">
      <path clip-path="url(#p79dc89eac8)" d="M 298.532571 298.944 
L 298.532571 27.648 
" style="fill:none;stroke:#b0b0b0;stroke-linecap:square;stroke-width:0.8;"/>
     </g>
     <g id="line2d_12">
      <g>
       <use style="stroke:#000000;stroke-width:0.8;" x="298.532571" xlink:href="#m6d273cda42" y="298.944"/>
      </g>
     </g>
     <g id="text_4">
      <!-- 6 -->
      <defs>
       <path d="M 33.015625 40.375 
Q 26.375 40.375 22.484375 35.828125 
Q 18.609375 31.296875 18.609375 23.390625 
Q 18.609375 15.53125 22.484375 10.953125 
Q 26.375 6.390625 33.015625 6.390625 
Q 39.65625 6.390625 43.53125 10.953125 
Q 47.40625 15.53125 47.40625 23.390625 
Q 47.40625 31.296875 43.53125 35.828125 
Q 39.65625 40.375 33.015625 40.375 
z
M 52.59375 71.296875 
L 52.59375 62.3125 
Q 48.875 64.0625 45.09375 64.984375 
Q 41.3125 65.921875 37.59375 65.921875 
Q 27.828125 65.921875 22.671875 59.328125 
Q 17.53125 52.734375 16.796875 39.40625 
Q 19.671875 43.65625 24.015625 45.921875 
Q 28.375 48.1875 33.59375 48.1875 
Q 44.578125 48.1875 50.953125 41.515625 
Q 57.328125 34.859375 57.328125 23.390625 
Q 57.328125 12.15625 50.6875 5.359375 
Q 44.046875 -1.421875 33.015625 -1.421875 
Q 20.359375 -1.421875 13.671875 8.265625 
Q 6.984375 17.96875 6.984375 36.375 
Q 6.984375 53.65625 15.1875 63.9375 
Q 23.390625 74.21875 37.203125 74.21875 
Q 40.921875 74.21875 44.703125 73.484375 
Q 48.484375 72.75 52.59375 71.296875 
z
" id="DejaVuSans-54"/>
      </defs>
      <g transform="translate(292.170071 321.140875)scale(0.2 -0.2)">
       <use xlink:href="#DejaVuSans-54"/>
      </g>
     </g>
    </g>
    <g id="xtick_5">
     <g id="line2d_13">
      <path clip-path="url(#p79dc89eac8)" d="M 97.755429 298.944 
L 97.755429 27.648 
" style="fill:none;stroke:#b0b0b0;stroke-linecap:square;stroke-width:0.8;"/>
     </g>
     <g id="line2d_14">
      <defs>
       <path d="M 0 0 
L 0 2 
" id="m73a197c2d9" style="stroke:#000000;stroke-width:0.6;"/>
      </defs>
      <g>
       <use style="stroke:#000000;stroke-width:0.6;" x="97.755429" xlink:href="#m73a197c2d9" y="298.944"/>
      </g>
     </g>
    </g>
    <g id="xtick_6">
     <g id="line2d_15">
      <path clip-path="url(#p79dc89eac8)" d="M 178.066286 298.944 
L 178.066286 27.648 
" style="fill:none;stroke:#b0b0b0;stroke-linecap:square;stroke-width:0.8;"/>
     </g>
     <g id="line2d_16">
      <g>
       <use style="stroke:#000000;stroke-width:0.6;" x="178.066286" xlink:href="#m73a197c2d9" y="298.944"/>
      </g>
     </g>
    </g>
    <g id="xtick_7">
     <g id="line2d_17">
      <path clip-path="url(#p79dc89eac8)" d="M 258.377143 298.944 
L 258.377143 27.648 
" style="fill:none;stroke:#b0b0b0;stroke-linecap:square;stroke-width:0.8;"/>
     </g>
     <g id="line2d_18">
      <g>
       <use style="stroke:#000000;stroke-width:0.6;" x="258.377143" xlink:href="#m73a197c2d9" y="298.944"/>
      </g>
     </g>
    </g>
    <g id="xtick_8">
     <g id="line2d_19">
      <path clip-path="url(#p79dc89eac8)" d="M 338.688 298.944 
L 338.688 27.648 
" style="fill:none;stroke:#b0b0b0;stroke-linecap:square;stroke-width:0.8;"/>
     </g>
     <g id="line2d_20">
      <g>
       <use style="stroke:#000000;stroke-width:0.6;" x="338.688" xlink:href="#m73a197c2d9" y="298.944"/>
      </g>
     </g>
    </g>
    <g id="text_5">
     <!-- log10(# f-evals / dimension) -->
     <defs>
      <path d="M 9.421875 75.984375 
L 18.40625 75.984375 
L 18.40625 0 
L 9.421875 0 
z
" id="DejaVuSans-108"/>
      <path d="M 30.609375 48.390625 
Q 23.390625 48.390625 19.1875 42.75 
Q 14.984375 37.109375 14.984375 27.296875 
Q 14.984375 17.484375 19.15625 11.84375 
Q 23.34375 6.203125 30.609375 6.203125 
Q 37.796875 6.203125 41.984375 11.859375 
Q 46.1875 17.53125 46.1875 27.296875 
Q 46.1875 37.015625 41.984375 42.703125 
Q 37.796875 48.390625 30.609375 48.390625 
z
M 30.609375 56 
Q 42.328125 56 49.015625 48.375 
Q 55.71875 40.765625 55.71875 27.296875 
Q 55.71875 13.875 49.015625 6.21875 
Q 42.328125 -1.421875 30.609375 -1.421875 
Q 18.84375 -1.421875 12.171875 6.21875 
Q 5.515625 13.875 5.515625 27.296875 
Q 5.515625 40.765625 12.171875 48.375 
Q 18.84375 56 30.609375 56 
z
" id="DejaVuSans-111"/>
      <path d="M 45.40625 27.984375 
Q 45.40625 37.75 41.375 43.109375 
Q 37.359375 48.484375 30.078125 48.484375 
Q 22.859375 48.484375 18.828125 43.109375 
Q 14.796875 37.75 14.796875 27.984375 
Q 14.796875 18.265625 18.828125 12.890625 
Q 22.859375 7.515625 30.078125 7.515625 
Q 37.359375 7.515625 41.375 12.890625 
Q 45.40625 18.265625 45.40625 27.984375 
z
M 54.390625 6.78125 
Q 54.390625 -7.171875 48.1875 -13.984375 
Q 42 -20.796875 29.203125 -20.796875 
Q 24.46875 -20.796875 20.265625 -20.09375 
Q 16.0625 -19.390625 12.109375 -17.921875 
L 12.109375 -9.1875 
Q 16.0625 -11.328125 19.921875 -12.34375 
Q 23.78125 -13.375 27.78125 -13.375 
Q 36.625 -13.375 41.015625 -8.765625 
Q 45.40625 -4.15625 45.40625 5.171875 
L 45.40625 9.625 
Q 42.625 4.78125 38.28125 2.390625 
Q 33.9375 0 27.875 0 
Q 17.828125 0 11.671875 7.65625 
Q 5.515625 15.328125 5.515625 27.984375 
Q 5.515625 40.671875 11.671875 48.328125 
Q 17.828125 56 27.875 56 
Q 33.9375 56 38.28125 53.609375 
Q 42.625 51.21875 45.40625 46.390625 
L 45.40625 54.6875 
L 54.390625 54.6875 
z
" id="DejaVuSans-103"/>
      <path d="M 12.40625 8.296875 
L 28.515625 8.296875 
L 28.515625 63.921875 
L 10.984375 60.40625 
L 10.984375 69.390625 
L 28.421875 72.90625 
L 38.28125 72.90625 
L 38.28125 8.296875 
L 54.390625 8.296875 
L 54.390625 0 
L 12.40625 0 
z
" id="DejaVuSans-49"/>
      <path d="M 31 75.875 
Q 24.46875 64.65625 21.28125 53.65625 
Q 18.109375 42.671875 18.109375 31.390625 
Q 18.109375 20.125 21.3125 9.0625 
Q 24.515625 -2 31 -13.1875 
L 23.1875 -13.1875 
Q 15.875 -1.703125 12.234375 9.375 
Q 8.59375 20.453125 8.59375 31.390625 
Q 8.59375 42.28125 12.203125 53.3125 
Q 15.828125 64.359375 23.1875 75.875 
z
" id="DejaVuSans-40"/>
      <path d="M 51.125 44 
L 36.921875 44 
L 32.8125 27.6875 
L 47.125 27.6875 
z
M 43.796875 71.78125 
L 38.71875 51.515625 
L 52.984375 51.515625 
L 58.109375 71.78125 
L 65.921875 71.78125 
L 60.890625 51.515625 
L 76.125 51.515625 
L 76.125 44 
L 58.984375 44 
L 54.984375 27.6875 
L 70.515625 27.6875 
L 70.515625 20.21875 
L 53.078125 20.21875 
L 48 0 
L 40.1875 0 
L 45.21875 20.21875 
L 30.90625 20.21875 
L 25.875 0 
L 18.015625 0 
L 23.09375 20.21875 
L 7.71875 20.21875 
L 7.71875 27.6875 
L 24.90625 27.6875 
L 29 44 
L 13.28125 44 
L 13.28125 51.515625 
L 30.90625 51.515625 
L 35.890625 71.78125 
z
" id="DejaVuSans-35"/>
      <path id="DejaVuSans-32"/>
      <path d="M 37.109375 75.984375 
L 37.109375 68.5 
L 28.515625 68.5 
Q 23.6875 68.5 21.796875 66.546875 
Q 19.921875 64.59375 19.921875 59.515625 
L 19.921875 54.6875 
L 34.71875 54.6875 
L 34.71875 47.703125 
L 19.921875 47.703125 
L 19.921875 0 
L 10.890625 0 
L 10.890625 47.703125 
L 2.296875 47.703125 
L 2.296875 54.6875 
L 10.890625 54.6875 
L 10.890625 58.5 
Q 10.890625 67.625 15.140625 71.796875 
Q 19.390625 75.984375 28.609375 75.984375 
z
" id="DejaVuSans-102"/>
      <path d="M 4.890625 31.390625 
L 31.203125 31.390625 
L 31.203125 23.390625 
L 4.890625 23.390625 
z
" id="DejaVuSans-45"/>
      <path d="M 56.203125 29.59375 
L 56.203125 25.203125 
L 14.890625 25.203125 
Q 15.484375 15.921875 20.484375 11.0625 
Q 25.484375 6.203125 34.421875 6.203125 
Q 39.59375 6.203125 44.453125 7.46875 
Q 49.3125 8.734375 54.109375 11.28125 
L 54.109375 2.78125 
Q 49.265625 0.734375 44.1875 -0.34375 
Q 39.109375 -1.421875 33.890625 -1.421875 
Q 20.796875 -1.421875 13.15625 6.1875 
Q 5.515625 13.8125 5.515625 26.8125 
Q 5.515625 40.234375 12.765625 48.109375 
Q 20.015625 56 32.328125 56 
Q 43.359375 56 49.78125 48.890625 
Q 56.203125 41.796875 56.203125 29.59375 
z
M 47.21875 32.234375 
Q 47.125 39.59375 43.09375 43.984375 
Q 39.0625 48.390625 32.421875 48.390625 
Q 24.90625 48.390625 20.390625 44.140625 
Q 15.875 39.890625 15.1875 32.171875 
z
" id="DejaVuSans-101"/>
      <path d="M 2.984375 54.6875 
L 12.5 54.6875 
L 29.59375 8.796875 
L 46.6875 54.6875 
L 56.203125 54.6875 
L 35.6875 0 
L 23.484375 0 
z
" id="DejaVuSans-118"/>
      <path d="M 34.28125 27.484375 
Q 23.390625 27.484375 19.1875 25 
Q 14.984375 22.515625 14.984375 16.5 
Q 14.984375 11.71875 18.140625 8.90625 
Q 21.296875 6.109375 26.703125 6.109375 
Q 34.1875 6.109375 38.703125 11.40625 
Q 43.21875 16.703125 43.21875 25.484375 
L 43.21875 27.484375 
z
M 52.203125 31.203125 
L 52.203125 0 
L 43.21875 0 
L 43.21875 8.296875 
Q 40.140625 3.328125 35.546875 0.953125 
Q 30.953125 -1.421875 24.3125 -1.421875 
Q 15.921875 -1.421875 10.953125 3.296875 
Q 6 8.015625 6 15.921875 
Q 6 25.140625 12.171875 29.828125 
Q 18.359375 34.515625 30.609375 34.515625 
L 43.21875 34.515625 
L 43.21875 35.40625 
Q 43.21875 41.609375 39.140625 45 
Q 35.0625 48.390625 27.6875 48.390625 
Q 23 48.390625 18.546875 47.265625 
Q 14.109375 46.140625 10.015625 43.890625 
L 10.015625 52.203125 
Q 14.9375 54.109375 19.578125 55.046875 
Q 24.21875 56 28.609375 56 
Q 40.484375 56 46.34375 49.84375 
Q 52.203125 43.703125 52.203125 31.203125 
z
" id="DejaVuSans-97"/>
      <path d="M 44.28125 53.078125 
L 44.28125 44.578125 
Q 40.484375 46.53125 36.375 47.5 
Q 32.28125 48.484375 27.875 48.484375 
Q 21.1875 48.484375 17.84375 46.4375 
Q 14.5 44.390625 14.5 40.28125 
Q 14.5 37.15625 16.890625 35.375 
Q 19.28125 33.59375 26.515625 31.984375 
L 29.59375 31.296875 
Q 39.15625 29.25 43.1875 25.515625 
Q 47.21875 21.78125 47.21875 15.09375 
Q 47.21875 7.46875 41.1875 3.015625 
Q 35.15625 -1.421875 24.609375 -1.421875 
Q 20.21875 -1.421875 15.453125 -0.5625 
Q 10.6875 0.296875 5.421875 2 
L 5.421875 11.28125 
Q 10.40625 8.6875 15.234375 7.390625 
Q 20.0625 6.109375 24.8125 6.109375 
Q 31.15625 6.109375 34.5625 8.28125 
Q 37.984375 10.453125 37.984375 14.40625 
Q 37.984375 18.0625 35.515625 20.015625 
Q 33.0625 21.96875 24.703125 23.78125 
L 21.578125 24.515625 
Q 13.234375 26.265625 9.515625 29.90625 
Q 5.8125 33.546875 5.8125 39.890625 
Q 5.8125 47.609375 11.28125 51.796875 
Q 16.75 56 26.8125 56 
Q 31.78125 56 36.171875 55.265625 
Q 40.578125 54.546875 44.28125 53.078125 
z
" id="DejaVuSans-115"/>
      <path d="M 25.390625 72.90625 
L 33.6875 72.90625 
L 8.296875 -9.28125 
L 0 -9.28125 
z
" id="DejaVuSans-47"/>
      <path d="M 45.40625 46.390625 
L 45.40625 75.984375 
L 54.390625 75.984375 
L 54.390625 0 
L 45.40625 0 
L 45.40625 8.203125 
Q 42.578125 3.328125 38.25 0.953125 
Q 33.9375 -1.421875 27.875 -1.421875 
Q 17.96875 -1.421875 11.734375 6.484375 
Q 5.515625 14.40625 5.515625 27.296875 
Q 5.515625 40.1875 11.734375 48.09375 
Q 17.96875 56 27.875 56 
Q 33.9375 56 38.25 53.625 
Q 42.578125 51.265625 45.40625 46.390625 
z
M 14.796875 27.296875 
Q 14.796875 17.390625 18.875 11.75 
Q 22.953125 6.109375 30.078125 6.109375 
Q 37.203125 6.109375 41.296875 11.75 
Q 45.40625 17.390625 45.40625 27.296875 
Q 45.40625 37.203125 41.296875 42.84375 
Q 37.203125 48.484375 30.078125 48.484375 
Q 22.953125 48.484375 18.875 42.84375 
Q 14.796875 37.203125 14.796875 27.296875 
z
" id="DejaVuSans-100"/>
      <path d="M 9.421875 54.6875 
L 18.40625 54.6875 
L 18.40625 0 
L 9.421875 0 
z
M 9.421875 75.984375 
L 18.40625 75.984375 
L 18.40625 64.59375 
L 9.421875 64.59375 
z
" id="DejaVuSans-105"/>
      <path d="M 52 44.1875 
Q 55.375 50.25 60.0625 53.125 
Q 64.75 56 71.09375 56 
Q 79.640625 56 84.28125 50.015625 
Q 88.921875 44.046875 88.921875 33.015625 
L 88.921875 0 
L 79.890625 0 
L 79.890625 32.71875 
Q 79.890625 40.578125 77.09375 44.375 
Q 74.3125 48.1875 68.609375 48.1875 
Q 61.625 48.1875 57.5625 43.546875 
Q 53.515625 38.921875 53.515625 30.90625 
L 53.515625 0 
L 44.484375 0 
L 44.484375 32.71875 
Q 44.484375 40.625 41.703125 44.40625 
Q 38.921875 48.1875 33.109375 48.1875 
Q 26.21875 48.1875 22.15625 43.53125 
Q 18.109375 38.875 18.109375 30.90625 
L 18.109375 0 
L 9.078125 0 
L 9.078125 54.6875 
L 18.109375 54.6875 
L 18.109375 46.1875 
Q 21.1875 51.21875 25.484375 53.609375 
Q 29.78125 56 35.6875 56 
Q 41.65625 56 45.828125 52.96875 
Q 50 49.953125 52 44.1875 
z
" id="DejaVuSans-109"/>
      <path d="M 54.890625 33.015625 
L 54.890625 0 
L 45.90625 0 
L 45.90625 32.71875 
Q 45.90625 40.484375 42.875 44.328125 
Q 39.84375 48.1875 33.796875 48.1875 
Q 26.515625 48.1875 22.3125 43.546875 
Q 18.109375 38.921875 18.109375 30.90625 
L 18.109375 0 
L 9.078125 0 
L 9.078125 54.6875 
L 18.109375 54.6875 
L 18.109375 46.1875 
Q 21.34375 51.125 25.703125 53.5625 
Q 30.078125 56 35.796875 56 
Q 45.21875 56 50.046875 50.171875 
Q 54.890625 44.34375 54.890625 33.015625 
z
" id="DejaVuSans-110"/>
      <path d="M 8.015625 75.875 
L 15.828125 75.875 
Q 23.140625 64.359375 26.78125 53.3125 
Q 30.421875 42.28125 30.421875 31.390625 
Q 30.421875 20.453125 26.78125 9.375 
Q 23.140625 -1.703125 15.828125 -13.1875 
L 8.015625 -13.1875 
Q 14.5 -2 17.703125 9.0625 
Q 20.90625 20.125 20.90625 31.390625 
Q 20.90625 42.671875 17.703125 53.65625 
Q 14.5 64.65625 8.015625 75.875 
z
" id="DejaVuSans-41"/>
     </defs>
     <g transform="translate(77.303219 342.217594)scale(0.17 -0.17)">
      <use xlink:href="#DejaVuSans-108"/>
      <use x="27.783203" xlink:href="#DejaVuSans-111"/>
      <use x="88.964844" xlink:href="#DejaVuSans-103"/>
      <use x="152.441406" xlink:href="#DejaVuSans-49"/>
      <use x="216.064453" xlink:href="#DejaVuSans-48"/>
      <use x="279.6875" xlink:href="#DejaVuSans-40"/>
      <use x="318.701172" xlink:href="#DejaVuSans-35"/>
      <use x="402.490234" xlink:href="#DejaVuSans-32"/>
      <use x="434.277344" xlink:href="#DejaVuSans-102"/>
      <use x="469.404297" xlink:href="#DejaVuSans-45"/>
      <use x="505.488281" xlink:href="#DejaVuSans-101"/>
      <use x="567.011719" xlink:href="#DejaVuSans-118"/>
      <use x="626.191406" xlink:href="#DejaVuSans-97"/>
      <use x="687.470703" xlink:href="#DejaVuSans-108"/>
      <use x="715.253906" xlink:href="#DejaVuSans-115"/>
      <use x="767.353516" xlink:href="#DejaVuSans-32"/>
      <use x="799.140625" xlink:href="#DejaVuSans-47"/>
      <use x="832.832031" xlink:href="#DejaVuSans-32"/>
      <use x="864.619141" xlink:href="#DejaVuSans-100"/>
      <use x="928.095703" xlink:href="#DejaVuSans-105"/>
      <use x="955.878906" xlink:href="#DejaVuSans-109"/>
      <use x="1053.291016" xlink:href="#DejaVuSans-101"/>
      <use x="1114.814453" xlink:href="#DejaVuSans-110"/>
      <use x="1178.193359" xlink:href="#DejaVuSans-115"/>
      <use x="1230.292969" xlink:href="#DejaVuSans-105"/>
      <use x="1258.076172" xlink:href="#DejaVuSans-111"/>
      <use x="1319.257812" xlink:href="#DejaVuSans-110"/>
      <use x="1382.636719" xlink:href="#DejaVuSans-41"/>
     </g>
    </g>
   </g>
   <g id="matplotlib.axis_2">
    <g id="ytick_1">
     <g id="line2d_21">
      <path clip-path="url(#p79dc89eac8)" d="M 57.6 298.944 
L 338.688 298.944 
" style="fill:none;stroke:#b0b0b0;stroke-linecap:square;stroke-width:0.8;"/>
     </g>
     <g id="line2d_22">
      <defs>
       <path d="M 0 0 
L -3.5 0 
" id="m43f94d364f" style="stroke:#000000;stroke-width:0.8;"/>
      </defs>
      <g>
       <use style="stroke:#000000;stroke-width:0.8;" x="57.6" xlink:href="#m43f94d364f" y="298.944"/>
      </g>
     </g>
     <g id="text_6">
      <!-- 0.0 -->
      <defs>
       <path d="M 10.6875 12.40625 
L 21 12.40625 
L 21 0 
L 10.6875 0 
z
" id="DejaVuSans-46"/>
      </defs>
      <g transform="translate(25.155 305.02275)scale(0.16 -0.16)">
       <use xlink:href="#DejaVuSans-48"/>
       <use x="63.623047" xlink:href="#DejaVuSans-46"/>
       <use x="95.410156" xlink:href="#DejaVuSans-48"/>
      </g>
     </g>
    </g>
    <g id="ytick_2">
     <g id="line2d_23">
      <path clip-path="url(#p79dc89eac8)" d="M 57.6 245.22202 
L 338.688 245.22202 
" style="fill:none;stroke:#b0b0b0;stroke-linecap:square;stroke-width:0.8;"/>
     </g>
     <g id="line2d_24">
      <g>
       <use style="stroke:#000000;stroke-width:0.8;" x="57.6" xlink:href="#m43f94d364f" y="245.22202"/>
      </g>
     </g>
     <g id="text_7">
      <!-- 0.2 -->
      <g transform="translate(25.155 251.30077)scale(0.16 -0.16)">
       <use xlink:href="#DejaVuSans-48"/>
       <use x="63.623047" xlink:href="#DejaVuSans-46"/>
       <use x="95.410156" xlink:href="#DejaVuSans-50"/>
      </g>
     </g>
    </g>
    <g id="ytick_3">
     <g id="line2d_25">
      <path clip-path="url(#p79dc89eac8)" d="M 57.6 191.50004 
L 338.688 191.50004 
" style="fill:none;stroke:#b0b0b0;stroke-linecap:square;stroke-width:0.8;"/>
     </g>
     <g id="line2d_26">
      <g>
       <use style="stroke:#000000;stroke-width:0.8;" x="57.6" xlink:href="#m43f94d364f" y="191.50004"/>
      </g>
     </g>
     <g id="text_8">
      <!-- 0.4 -->
      <g transform="translate(25.155 197.57879)scale(0.16 -0.16)">
       <use xlink:href="#DejaVuSans-48"/>
       <use x="63.623047" xlink:href="#DejaVuSans-46"/>
       <use x="95.410156" xlink:href="#DejaVuSans-52"/>
      </g>
     </g>
    </g>
    <g id="ytick_4">
     <g id="line2d_27">
      <path clip-path="url(#p79dc89eac8)" d="M 57.6 137.778059 
L 338.688 137.778059 
" style="fill:none;stroke:#b0b0b0;stroke-linecap:square;stroke-width:0.8;"/>
     </g>
     <g id="line2d_28">
      <g>
       <use style="stroke:#000000;stroke-width:0.8;" x="57.6" xlink:href="#m43f94d364f" y="137.778059"/>
      </g>
     </g>
     <g id="text_9">
      <!-- 0.6 -->
      <g transform="translate(25.155 143.856809)scale(0.16 -0.16)">
       <use xlink:href="#DejaVuSans-48"/>
       <use x="63.623047" xlink:href="#DejaVuSans-46"/>
       <use x="95.410156" xlink:href="#DejaVuSans-54"/>
      </g>
     </g>
    </g>
    <g id="ytick_5">
     <g id="line2d_29">
      <path clip-path="url(#p79dc89eac8)" d="M 57.6 84.056079 
L 338.688 84.056079 
" style="fill:none;stroke:#b0b0b0;stroke-linecap:square;stroke-width:0.8;"/>
     </g>
     <g id="line2d_30">
      <g>
       <use style="stroke:#000000;stroke-width:0.8;" x="57.6" xlink:href="#m43f94d364f" y="84.056079"/>
      </g>
     </g>
     <g id="text_10">
      <!-- 0.8 -->
      <defs>
       <path d="M 31.78125 34.625 
Q 24.75 34.625 20.71875 30.859375 
Q 16.703125 27.09375 16.703125 20.515625 
Q 16.703125 13.921875 20.71875 10.15625 
Q 24.75 6.390625 31.78125 6.390625 
Q 38.8125 6.390625 42.859375 10.171875 
Q 46.921875 13.96875 46.921875 20.515625 
Q 46.921875 27.09375 42.890625 30.859375 
Q 38.875 34.625 31.78125 34.625 
z
M 21.921875 38.8125 
Q 15.578125 40.375 12.03125 44.71875 
Q 8.5 49.078125 8.5 55.328125 
Q 8.5 64.0625 14.71875 69.140625 
Q 20.953125 74.21875 31.78125 74.21875 
Q 42.671875 74.21875 48.875 69.140625 
Q 55.078125 64.0625 55.078125 55.328125 
Q 55.078125 49.078125 51.53125 44.71875 
Q 48 40.375 41.703125 38.8125 
Q 48.828125 37.15625 52.796875 32.3125 
Q 56.78125 27.484375 56.78125 20.515625 
Q 56.78125 9.90625 50.3125 4.234375 
Q 43.84375 -1.421875 31.78125 -1.421875 
Q 19.734375 -1.421875 13.25 4.234375 
Q 6.78125 9.90625 6.78125 20.515625 
Q 6.78125 27.484375 10.78125 32.3125 
Q 14.796875 37.15625 21.921875 38.8125 
z
M 18.3125 54.390625 
Q 18.3125 48.734375 21.84375 45.5625 
Q 25.390625 42.390625 31.78125 42.390625 
Q 38.140625 42.390625 41.71875 45.5625 
Q 45.3125 48.734375 45.3125 54.390625 
Q 45.3125 60.0625 41.71875 63.234375 
Q 38.140625 66.40625 31.78125 66.40625 
Q 25.390625 66.40625 21.84375 63.234375 
Q 18.3125 60.0625 18.3125 54.390625 
z
" id="DejaVuSans-56"/>
      </defs>
      <g transform="translate(25.155 90.134829)scale(0.16 -0.16)">
       <use xlink:href="#DejaVuSans-48"/>
       <use x="63.623047" xlink:href="#DejaVuSans-46"/>
       <use x="95.410156" xlink:href="#DejaVuSans-56"/>
      </g>
     </g>
    </g>
    <g id="ytick_6">
     <g id="line2d_31">
      <path clip-path="url(#p79dc89eac8)" d="M 57.6 30.334099 
L 338.688 30.334099 
" style="fill:none;stroke:#b0b0b0;stroke-linecap:square;stroke-width:0.8;"/>
     </g>
     <g id="line2d_32">
      <g>
       <use style="stroke:#000000;stroke-width:0.8;" x="57.6" xlink:href="#m43f94d364f" y="30.334099"/>
      </g>
     </g>
     <g id="text_11">
      <!-- 1.0 -->
      <g transform="translate(25.155 36.412849)scale(0.16 -0.16)">
       <use xlink:href="#DejaVuSans-49"/>
       <use x="63.623047" xlink:href="#DejaVuSans-46"/>
       <use x="95.410156" xlink:href="#DejaVuSans-48"/>
      </g>
     </g>
    </g>
    <g id="text_12">
     <!-- Fraction of function,target pairs -->
     <defs>
      <path d="M 9.8125 72.90625 
L 51.703125 72.90625 
L 51.703125 64.59375 
L 19.671875 64.59375 
L 19.671875 43.109375 
L 48.578125 43.109375 
L 48.578125 34.8125 
L 19.671875 34.8125 
L 19.671875 0 
L 9.8125 0 
z
" id="DejaVuSans-70"/>
      <path d="M 41.109375 46.296875 
Q 39.59375 47.171875 37.8125 47.578125 
Q 36.03125 48 33.890625 48 
Q 26.265625 48 22.1875 43.046875 
Q 18.109375 38.09375 18.109375 28.8125 
L 18.109375 0 
L 9.078125 0 
L 9.078125 54.6875 
L 18.109375 54.6875 
L 18.109375 46.1875 
Q 20.953125 51.171875 25.484375 53.578125 
Q 30.03125 56 36.53125 56 
Q 37.453125 56 38.578125 55.875 
Q 39.703125 55.765625 41.0625 55.515625 
z
" id="DejaVuSans-114"/>
      <path d="M 48.78125 52.59375 
L 48.78125 44.1875 
Q 44.96875 46.296875 41.140625 47.34375 
Q 37.3125 48.390625 33.40625 48.390625 
Q 24.65625 48.390625 19.8125 42.84375 
Q 14.984375 37.3125 14.984375 27.296875 
Q 14.984375 17.28125 19.8125 11.734375 
Q 24.65625 6.203125 33.40625 6.203125 
Q 37.3125 6.203125 41.140625 7.25 
Q 44.96875 8.296875 48.78125 10.40625 
L 48.78125 2.09375 
Q 45.015625 0.34375 40.984375 -0.53125 
Q 36.96875 -1.421875 32.421875 -1.421875 
Q 20.0625 -1.421875 12.78125 6.34375 
Q 5.515625 14.109375 5.515625 27.296875 
Q 5.515625 40.671875 12.859375 48.328125 
Q 20.21875 56 33.015625 56 
Q 37.15625 56 41.109375 55.140625 
Q 45.0625 54.296875 48.78125 52.59375 
z
" id="DejaVuSans-99"/>
      <path d="M 18.3125 70.21875 
L 18.3125 54.6875 
L 36.8125 54.6875 
L 36.8125 47.703125 
L 18.3125 47.703125 
L 18.3125 18.015625 
Q 18.3125 11.328125 20.140625 9.421875 
Q 21.96875 7.515625 27.59375 7.515625 
L 36.8125 7.515625 
L 36.8125 0 
L 27.59375 0 
Q 17.1875 0 13.234375 3.875 
Q 9.28125 7.765625 9.28125 18.015625 
L 9.28125 47.703125 
L 2.6875 47.703125 
L 2.6875 54.6875 
L 9.28125 54.6875 
L 9.28125 70.21875 
z
" id="DejaVuSans-116"/>
      <path d="M 8.5 21.578125 
L 8.5 54.6875 
L 17.484375 54.6875 
L 17.484375 21.921875 
Q 17.484375 14.15625 20.5 10.265625 
Q 23.53125 6.390625 29.59375 6.390625 
Q 36.859375 6.390625 41.078125 11.03125 
Q 45.3125 15.671875 45.3125 23.6875 
L 45.3125 54.6875 
L 54.296875 54.6875 
L 54.296875 0 
L 45.3125 0 
L 45.3125 8.40625 
Q 42.046875 3.421875 37.71875 1 
Q 33.40625 -1.421875 27.6875 -1.421875 
Q 18.265625 -1.421875 13.375 4.4375 
Q 8.5 10.296875 8.5 21.578125 
z
M 31.109375 56 
z
" id="DejaVuSans-117"/>
      <path d="M 11.71875 12.40625 
L 22.015625 12.40625 
L 22.015625 4 
L 14.015625 -11.625 
L 7.71875 -11.625 
L 11.71875 4 
z
" id="DejaVuSans-44"/>
      <path d="M 18.109375 8.203125 
L 18.109375 -20.796875 
L 9.078125 -20.796875 
L 9.078125 54.6875 
L 18.109375 54.6875 
L 18.109375 46.390625 
Q 20.953125 51.265625 25.265625 53.625 
Q 29.59375 56 35.59375 56 
Q 45.5625 56 51.78125 48.09375 
Q 58.015625 40.1875 58.015625 27.296875 
Q 58.015625 14.40625 51.78125 6.484375 
Q 45.5625 -1.421875 35.59375 -1.421875 
Q 29.59375 -1.421875 25.265625 0.953125 
Q 20.953125 3.328125 18.109375 8.203125 
z
M 48.6875 27.296875 
Q 48.6875 37.203125 44.609375 42.84375 
Q 40.53125 48.484375 33.40625 48.484375 
Q 26.265625 48.484375 22.1875 42.84375 
Q 18.109375 37.203125 18.109375 27.296875 
Q 18.109375 17.390625 22.1875 11.75 
Q 26.265625 6.109375 33.40625 6.109375 
Q 40.53125 6.109375 44.609375 11.75 
Q 48.6875 17.390625 48.6875 27.296875 
z
" id="DejaVuSans-112"/>
     </defs>
     <g transform="translate(17.619531 298.435375)rotate(-90)scale(0.17 -0.17)">
      <use xlink:href="#DejaVuSans-70"/>
      <use x="57.410156" xlink:href="#DejaVuSans-114"/>
      <use x="98.523438" xlink:href="#DejaVuSans-97"/>
      <use x="159.802734" xlink:href="#DejaVuSans-99"/>
      <use x="214.783203" xlink:href="#DejaVuSans-116"/>
      <use x="253.992188" xlink:href="#DejaVuSans-105"/>
      <use x="281.775391" xlink:href="#DejaVuSans-111"/>
      <use x="342.957031" xlink:href="#DejaVuSans-110"/>
      <use x="406.335938" xlink:href="#DejaVuSans-32"/>
      <use x="438.123047" xlink:href="#DejaVuSans-111"/>
      <use x="499.304688" xlink:href="#DejaVuSans-102"/>
      <use x="534.509766" xlink:href="#DejaVuSans-32"/>
      <use x="566.296875" xlink:href="#DejaVuSans-102"/>
      <use x="601.501953" xlink:href="#DejaVuSans-117"/>
      <use x="664.880859" xlink:href="#DejaVuSans-110"/>
      <use x="728.259766" xlink:href="#DejaVuSans-99"/>
      <use x="783.240234" xlink:href="#DejaVuSans-116"/>
      <use x="822.449219" xlink:href="#DejaVuSans-105"/>
      <use x="850.232422" xlink:href="#DejaVuSans-111"/>
      <use x="911.414062" xlink:href="#DejaVuSans-110"/>
      <use x="974.792969" xlink:href="#DejaVuSans-44"/>
      <use x="1006.580078" xlink:href="#DejaVuSans-116"/>
      <use x="1045.789062" xlink:href="#DejaVuSans-97"/>
      <use x="1107.068359" xlink:href="#DejaVuSans-114"/>
      <use x="1148.166016" xlink:href="#DejaVuSans-103"/>
      <use x="1211.642578" xlink:href="#DejaVuSans-101"/>
      <use x="1273.166016" xlink:href="#DejaVuSans-116"/>
      <use x="1312.375" xlink:href="#DejaVuSans-32"/>
      <use x="1344.162109" xlink:href="#DejaVuSans-112"/>
      <use x="1407.638672" xlink:href="#DejaVuSans-97"/>
      <use x="1468.917969" xlink:href="#DejaVuSans-105"/>
      <use x="1496.701172" xlink:href="#DejaVuSans-114"/>
      <use x="1537.814453" xlink:href="#DejaVuSans-115"/>
     </g>
    </g>
   </g>
   <g id="line2d_33">
    <defs>
     <path d="M 0 1.5 
C 0.397805 1.5 0.77937 1.341951 1.06066 1.06066 
C 1.341951 0.77937 1.5 0.397805 1.5 0 
C 1.5 -0.397805 1.341951 -0.77937 1.06066 -1.06066 
C 0.77937 -1.341951 0.397805 -1.5 0 -1.5 
C -0.397805 -1.5 -0.77937 -1.341951 -1.06066 -1.06066 
C -1.341951 -0.77937 -1.5 -0.397805 -1.5 0 
C -1.5 0.397805 -1.341951 0.77937 -1.06066 1.06066 
C -0.77937 1.341951 -0.397805 1.5 0 1.5 
z
" id="mffa9fc0f73" style="stroke:#f5deb3;"/>
    </defs>
    <g>
     <use style="fill:#f5deb3;stroke:#f5deb3;" x="140.093612" xlink:href="#mffa9fc0f73" y="30.334099"/>
     <use style="fill:#f5deb3;stroke:#f5deb3;" x="140.093612" xlink:href="#mffa9fc0f73" y="30.334099"/>
    </g>
   </g>
   <g id="line2d_34">
    <defs>
     <path d="M 0 1.5 
C 0.397805 1.5 0.77937 1.341951 1.06066 1.06066 
C 1.341951 0.77937 1.5 0.397805 1.5 0 
C 1.5 -0.397805 1.341951 -0.77937 1.06066 -1.06066 
C 0.77937 -1.341951 0.397805 -1.5 0 -1.5 
C -0.397805 -1.5 -0.77937 -1.341951 -1.06066 -1.06066 
C -1.341951 -0.77937 -1.5 -0.397805 -1.5 0 
C -1.5 0.397805 -1.341951 0.77937 -1.06066 1.06066 
C -0.77937 1.341951 -0.397805 1.5 0 1.5 
z
" id="m2aa635a318" style="stroke:#000080;"/>
    </defs>
    <g>
     <use style="fill:#000080;stroke:#000080;" x="156.317544" xlink:href="#m2aa635a318" y="30.334099"/>
     <use style="fill:#000080;stroke:#000080;" x="156.317544" xlink:href="#m2aa635a318" y="30.334099"/>
    </g>
   </g>
   <g id="line2d_35">
    <path d="M 105.584798 298.944 
L 105.584798 296.837256 
L 107.680028 296.837256 
L 107.680028 296.31057 
L 110.694282 296.31057 
L 110.694282 295.783884 
L 112.026172 295.783884 
L 112.026172 295.257197 
L 112.531694 295.257197 
L 112.531694 294.730511 
L 115.917635 294.730511 
L 115.917635 294.203825 
L 116.121606 294.203825 
L 116.121606 293.150453 
L 118.039942 293.150453 
L 118.039942 292.623767 
L 119.267333 292.623767 
L 119.267333 292.097081 
L 119.768017 292.097081 
L 119.768017 291.043709 
L 121.785469 291.043709 
L 121.785469 290.517023 
L 122.362027 290.517023 
L 122.362027 289.990337 
L 122.503236 289.990337 
L 122.503236 288.936964 
L 122.782271 288.936964 
L 122.782271 288.410278 
L 123.056911 288.410278 
L 123.056911 286.83022 
L 124.619683 286.83022 
L 124.619683 286.303534 
L 125.351508 286.303534 
L 125.351508 285.776848 
L 129.667765 285.776848 
L 129.667765 285.250162 
L 130.487516 285.250162 
L 130.487516 284.723476 
L 130.839837 284.723476 
L 130.839837 284.19679 
L 134.091907 284.19679 
L 134.091907 283.670104 
L 134.800918 283.670104 
L 134.870259 282.616732 
L 135.00812 282.616732 
L 135.00812 282.090045 
L 135.280614 282.090045 
L 135.280614 281.563359 
L 135.482227 281.563359 
L 135.482227 281.036673 
L 135.878591 281.036673 
L 135.878591 279.456615 
L 136.137916 279.456615 
L 136.202149 277.876557 
L 136.266147 277.876557 
L 136.266147 276.823185 
L 136.519813 276.823185 
L 136.582658 273.663068 
L 136.707671 273.663068 
L 136.707671 273.136382 
L 136.893527 273.136382 
L 136.893527 272.609696 
L 137.016339 272.609696 
L 137.016339 272.08301 
L 137.259399 272.08301 
L 137.259399 270.502952 
L 137.37967 270.502952 
L 137.37967 269.449579 
L 137.735587 269.449579 
L 137.794206 267.342835 
L 138.084384 267.342835 
L 138.084384 265.762777 
L 138.199116 265.762777 
L 138.199116 265.236091 
L 138.313099 265.236091 
L 138.313099 264.182719 
L 138.538853 264.182719 
L 138.594838 261.022602 
L 138.706272 261.022602 
L 138.761723 257.862486 
L 138.927025 257.862486 
L 138.927025 257.3358 
L 139.306744 257.3358 
L 139.306744 256.809114 
L 139.466984 256.809114 
L 139.466984 254.702369 
L 139.678372 254.702369 
L 139.783113 251.542253 
L 139.835248 251.542253 
L 139.835248 251.015567 
L 139.990725 251.015567 
L 140.093612 249.435508 
L 140.195896 249.435508 
L 140.195896 247.328764 
L 140.599134 247.328764 
L 140.599134 246.802078 
L 140.79731 246.802078 
L 140.846504 245.748706 
L 140.993259 245.748706 
L 141.090414 242.588589 
L 141.187031 242.588589 
L 141.283115 238.901787 
L 141.378673 238.901787 
L 141.47371 236.268356 
L 141.521035 236.268356 
L 141.615302 233.634926 
L 141.895083 233.634926 
L 141.987354 232.581554 
L 142.033307 232.581554 
L 142.033307 231.001496 
L 142.306513 231.001496 
L 142.306513 230.47481 
L 142.441528 230.47481 
L 142.53096 228.368065 
L 142.619936 228.368065 
L 142.619936 226.788007 
L 142.752555 226.788007 
L 142.752555 225.207949 
L 142.884173 225.207949 
L 142.971369 222.574518 
L 143.014805 222.574518 
L 143.101352 220.467774 
L 143.230373 220.467774 
L 143.31586 218.36103 
L 143.40093 218.36103 
L 143.485587 215.200913 
L 143.527762 215.200913 
L 143.611807 212.567483 
L 143.737119 212.567483 
L 143.820164 211.514111 
L 143.861538 211.514111 
L 143.861538 210.460738 
L 143.985075 210.460738 
L 144.06695 208.353994 
L 144.430703 208.353994 
L 144.510517 206.773936 
L 144.550287 206.773936 
L 144.629556 205.720564 
L 144.669057 205.720564 
L 144.747789 201.507075 
L 144.865226 201.507075 
L 144.94308 198.346959 
L 145.059213 198.346959 
L 145.136208 195.186842 
L 145.212864 195.186842 
L 145.289185 192.026726 
L 145.327221 192.026726 
L 145.327221 190.446667 
L 145.478539 190.446667 
L 145.478539 189.393295 
L 145.665858 189.393295 
L 145.740226 185.179807 
L 145.777292 185.179807 
L 145.888018 181.493004 
L 145.924771 181.493004 
L 146.034567 178.859574 
L 146.107383 178.859574 
L 146.216039 174.646085 
L 146.288102 174.646085 
L 146.395642 168.852538 
L 146.466968 168.852538 
L 146.466968 167.799166 
L 146.714338 167.799166 
L 146.784375 164.63905 
L 146.854132 164.63905 
L 146.958248 163.058991 
L 147.061745 163.058991 
L 147.164632 158.318817 
L 147.198794 158.318817 
L 147.198794 157.265444 
L 147.4697 157.265444 
L 147.4697 156.738758 
L 147.603592 156.738758 
L 147.70334 154.105328 
L 147.769524 154.105328 
L 147.86833 148.838467 
L 147.96658 148.838467 
L 148.064279 147.785095 
L 148.129109 147.785095 
L 148.129109 145.678351 
L 148.258051 145.678351 
L 148.258051 144.624978 
L 148.386046 144.624978 
L 148.48143 139.358118 
L 148.513109 139.358118 
L 148.607802 135.144629 
L 148.670646 135.144629 
L 148.76449 133.564571 
L 148.79566 133.564571 
L 148.857832 131.984513 
L 148.981515 131.984513 
L 149.073705 130.93114 
L 149.104327 130.93114 
L 149.195872 127.771024 
L 149.226281 127.771024 
L 149.31719 125.66428 
L 149.347388 125.66428 
L 149.347388 123.557535 
L 149.467659 123.557535 
L 149.557321 119.344047 
L 149.616841 119.344047 
L 149.616841 118.817361 
L 149.735275 118.817361 
L 149.735275 117.763988 
L 149.911431 117.763988 
L 149.998846 115.657244 
L 150.027887 115.657244 
L 150.114722 111.970441 
L 150.258492 111.970441 
L 150.344189 105.123522 
L 150.372662 105.123522 
L 150.457801 102.490092 
L 150.542526 102.490092 
L 150.598782 99.856662 
L 150.654857 99.856662 
L 150.738632 94.589801 
L 150.79426 94.589801 
L 150.904986 93.536429 
L 150.960087 93.536429 
L 151.015013 88.796254 
L 151.097081 88.796254 
L 151.124351 86.68951 
L 151.233007 86.68951 
L 151.314058 80.895963 
L 151.367883 80.895963 
L 151.475037 78.789218 
L 151.501723 78.789218 
L 151.501723 77.20916 
L 151.634543 77.20916 
L 151.713753 72.995672 
L 151.76636 72.995672 
L 151.76636 71.942299 
L 151.897188 71.942299 
L 151.949246 70.888927 
L 152.027042 70.888927 
L 152.130233 68.782183 
L 152.155936 68.782183 
L 152.25837 64.042008 
L 152.309362 64.042008 
L 152.309362 63.515322 
L 152.436193 63.515322 
L 152.511852 58.775147 
L 152.562109 58.775147 
L 152.637225 55.088345 
L 152.712018 55.088345 
L 152.736878 51.928228 
L 152.885298 51.928228 
L 152.959038 48.241426 
L 153.081247 48.241426 
L 153.154164 46.134681 
L 153.275019 46.134681 
L 153.371104 42.447879 
L 153.418948 42.447879 
L 153.418948 41.921193 
L 153.561699 41.921193 
L 153.561699 40.867821 
L 153.773658 40.867821 
L 153.773658 40.341135 
L 153.936752 40.341135 
L 153.959927 38.761076 
L 154.121296 38.761076 
L 154.121296 37.707704 
L 154.258434 37.707704 
L 154.349264 34.547588 
L 154.618949 34.547588 
L 154.618949 34.020902 
L 154.77436 34.020902 
L 154.77436 32.440843 
L 155.928852 32.440843 
L 155.990803 30.860785 
L 156.317544 30.860785 
L 156.317544 30.334099 
L 338.688 30.334099 
L 338.688 30.334099 
" style="fill:none;stroke:#000080;stroke-linecap:square;stroke-width:1.5;"/>
   </g>
   <g id="line2d_36">
    <defs>
     <path d="M 0 6 
C 1.591219 6 3.117479 5.367802 4.242641 4.242641 
C 5.367802 3.117479 6 1.591219 6 0 
C 6 -1.591219 5.367802 -3.117479 4.242641 -4.242641 
C 3.117479 -5.367802 1.591219 -6 0 -6 
C -1.591219 -6 -3.117479 -5.367802 -4.242641 -4.242641 
C -5.367802 -3.117479 -6 -1.591219 -6 0 
C -6 1.591219 -5.367802 3.117479 -4.242641 4.242641 
C -3.117479 5.367802 -1.591219 6 0 6 
z
" id="mb927ec6a74" style="stroke:#000080;stroke-width:1.5;"/>
    </defs>
    <g>
     <use style="fill-opacity:0;stroke:#000080;stroke-width:1.5;" x="150.258492" xlink:href="#mb927ec6a74" y="111.443755"/>
     <use style="fill-opacity:0;stroke:#000080;stroke-width:1.5;" x="156.317544" xlink:href="#mb927ec6a74" y="30.860785"/>
     <use style="fill-opacity:0;stroke:#000080;stroke-width:1.5;" x="156.317544" xlink:href="#mb927ec6a74" y="30.334099"/>
     <use style="fill-opacity:0;stroke:#000080;stroke-width:1.5;" x="156.317544" xlink:href="#mb927ec6a74" y="30.334099"/>
     <use style="fill-opacity:0;stroke:#000080;stroke-width:1.5;" x="338.688" xlink:href="#mb927ec6a74" y="30.334099"/>
    </g>
   </g>
   <g id="line2d_37">
    <path style="fill:none;stroke:#000080;stroke-linecap:square;stroke-width:1.5;"/>
    <g/>
   </g>
   <g id="line2d_38">
    <g>
     <use style="fill:#000080;stroke:#000080;" x="155.804285" xlink:href="#m2aa635a318" y="30.334099"/>
     <use style="fill:#000080;stroke:#000080;" x="155.804285" xlink:href="#m2aa635a318" y="30.334099"/>
    </g>
   </g>
   <g id="line2d_39">
    <path d="M 99.938184 298.944 
L 99.938184 298.417314 
L 108.640231 298.417314 
L 108.640231 297.890628 
L 110.131676 297.890628 
L 110.131676 296.31057 
L 114.418861 296.31057 
L 114.418861 295.783884 
L 116.914437 295.783884 
L 116.914437 295.257197 
L 118.399528 295.257197 
L 118.399528 294.730511 
L 118.576578 294.730511 
L 118.576578 293.677139 
L 120.254726 293.677139 
L 120.254726 293.150453 
L 120.883236 293.150453 
L 120.883236 292.623767 
L 121.189196 292.623767 
L 121.189196 292.097081 
L 121.785469 292.097081 
L 121.785469 290.517023 
L 122.362027 290.517023 
L 122.362027 289.990337 
L 122.643312 289.990337 
L 122.643312 288.936964 
L 123.192626 288.936964 
L 123.192626 288.410278 
L 123.725164 288.410278 
L 123.725164 287.883592 
L 124.989434 287.883592 
L 124.989434 287.356906 
L 125.351508 287.356906 
L 125.351508 286.83022 
L 128.905271 286.83022 
L 128.905271 286.303534 
L 129.480244 286.303534 
L 129.480244 284.19679 
L 130.218525 284.19679 
L 130.218525 283.670104 
L 131.013364 283.670104 
L 131.013364 282.616732 
L 131.439773 282.616732 
L 131.439773 282.090045 
L 131.60746 282.090045 
L 131.60746 281.036673 
L 132.181982 281.036673 
L 132.181982 280.509987 
L 133.124876 280.509987 
L 133.124876 279.983301 
L 133.277185 279.983301 
L 133.277185 279.456615 
L 133.72629 279.456615 
L 133.72629 278.929929 
L 134.019394 278.929929 
L 134.091907 276.296499 
L 134.164119 276.296499 
L 134.164119 275.243126 
L 134.450015 275.243126 
L 134.520763 274.189754 
L 134.939326 274.189754 
L 134.939326 273.663068 
L 135.076644 273.663068 
L 135.076644 273.136382 
L 135.348078 273.136382 
L 135.348078 272.609696 
L 135.482227 272.609696 
L 135.548916 270.502952 
L 135.747468 270.502952 
L 135.747468 269.976266 
L 136.32991 269.976266 
L 136.32991 268.922893 
L 136.456742 268.922893 
L 136.456742 268.396207 
L 136.707671 268.396207 
L 136.769843 265.762777 
L 136.831795 265.762777 
L 136.893527 264.182719 
L 137.259399 264.182719 
L 137.319638 263.129347 
L 137.439497 263.129347 
L 137.439497 262.60266 
L 137.558536 262.60266 
L 137.558536 262.075974 
L 137.676769 262.075974 
L 137.676769 261.549288 
L 137.968891 261.549288 
L 137.968891 259.96923 
L 138.084384 259.96923 
L 138.141844 257.3358 
L 138.199116 257.3358 
L 138.256201 254.702369 
L 138.369812 254.702369 
L 138.369812 253.122311 
L 138.482688 253.122311 
L 138.482688 250.488881 
L 138.594838 250.488881 
L 138.594838 249.962195 
L 138.927025 249.962195 
L 138.981779 247.85545 
L 139.145019 247.85545 
L 139.145019 247.328764 
L 139.413734 247.328764 
L 139.520072 245.22202 
L 139.625765 245.22202 
L 139.730821 242.588589 
L 139.783113 242.588589 
L 139.835248 240.481845 
L 140.042245 240.481845 
L 140.144829 237.848415 
L 140.195896 237.848415 
L 140.195896 234.161612 
L 140.348205 234.161612 
L 140.44901 230.47481 
L 140.89556 230.47481 
L 140.993259 226.788007 
L 141.187031 226.788007 
L 141.235139 220.99446 
L 141.33096 220.99446 
L 141.426256 218.36103 
L 141.662245 218.36103 
L 141.755753 216.780971 
L 141.80232 216.780971 
L 141.848763 214.147541 
L 141.987354 214.147541 
L 142.07914 212.040797 
L 142.261275 212.040797 
L 142.351634 209.407366 
L 142.396639 209.407366 
L 142.486301 206.773936 
L 142.53096 206.773936 
L 142.575505 205.720564 
L 142.708461 205.720564 
L 142.752555 203.087133 
L 142.884173 203.087133 
L 142.884173 202.560447 
L 143.014805 202.560447 
L 143.101352 198.873645 
L 143.144465 198.873645 
L 143.187472 195.713528 
L 143.358447 195.713528 
L 143.44331 192.026726 
L 143.485587 192.026726 
L 143.485587 191.50004 
L 143.611807 191.50004 
L 143.695448 189.393295 
L 143.737119 189.393295 
L 143.737119 186.759865 
L 143.861538 186.759865 
L 143.902815 182.546376 
L 144.06695 182.546376 
L 144.148442 181.493004 
L 144.189046 181.493004 
L 144.189046 180.439632 
L 144.310293 180.439632 
L 144.390658 177.806202 
L 144.550287 177.806202 
L 144.629556 172.539341 
L 144.708467 172.539341 
L 144.787023 168.325852 
L 144.826168 168.325852 
L 144.826168 167.27248 
L 145.020588 167.27248 
L 145.059213 163.058991 
L 145.212864 163.058991 
L 145.251067 159.898875 
L 145.327221 159.898875 
L 145.365173 156.738758 
L 145.516164 156.738758 
L 145.591172 153.051956 
L 145.628555 153.051956 
L 145.628555 151.471897 
L 145.740226 151.471897 
L 145.851187 148.311781 
L 145.888018 148.311781 
L 145.924771 145.678351 
L 146.107383 145.678351 
L 146.143677 143.04492 
L 146.324022 143.04492 
L 146.395642 140.41149 
L 146.502522 140.41149 
L 146.573414 138.304745 
L 146.679213 138.304745 
L 146.784375 136.198001 
L 146.819289 136.198001 
L 146.888907 132.511199 
L 146.958248 132.511199 
L 147.027314 130.93114 
L 147.164632 130.93114 
L 147.266916 127.244338 
L 147.300877 127.244338 
L 147.334773 125.137593 
L 147.4697 125.137593 
L 147.570215 123.030849 
L 147.670154 123.030849 
L 147.769524 120.924105 
L 147.802521 120.924105 
L 147.901141 118.290674 
L 147.933891 118.290674 
L 148.031773 115.657244 
L 148.129109 115.657244 
L 148.225905 111.970441 
L 148.258051 111.970441 
L 148.258051 110.917069 
L 148.417899 110.917069 
L 148.513109 108.283639 
L 148.607802 108.283639 
L 148.701984 105.650209 
L 148.76449 105.650209 
L 148.857832 101.43672 
L 148.888835 101.43672 
L 148.950676 98.803289 
L 149.043029 98.803289 
L 149.104327 95.116487 
L 149.165411 95.116487 
L 149.256637 91.429684 
L 149.347388 91.429684 
L 149.377533 90.376312 
L 149.527485 90.376312 
L 149.587107 87.742882 
L 149.646525 87.742882 
L 149.735275 84.582765 
L 149.764758 84.582765 
L 149.852909 82.476021 
L 149.911431 82.476021 
L 149.940618 80.369277 
L 150.027887 80.369277 
L 150.114722 74.57573 
L 150.172372 74.57573 
L 150.172372 74.049044 
L 150.287105 74.049044 
L 150.372662 69.308869 
L 150.429467 69.308869 
L 150.51433 66.675439 
L 150.598782 66.675439 
L 150.682827 63.515322 
L 150.710752 63.515322 
L 150.766468 61.408578 
L 150.87737 61.408578 
L 150.904986 58.775147 
L 151.015013 58.775147 
L 151.097081 54.034973 
L 151.151579 54.034973 
L 151.233007 50.34817 
L 151.314058 50.34817 
L 151.314058 49.294798 
L 151.44831 49.294798 
L 151.554972 46.134681 
L 151.581536 46.134681 
L 151.68739 42.447879 
L 151.740076 42.447879 
L 151.844975 39.814448 
L 151.871101 39.814448 
L 151.871101 38.761076 
L 152.001148 38.761076 
L 152.078714 37.707704 
L 152.410901 37.707704 
L 152.461449 35.60096 
L 152.712018 35.60096 
L 152.712018 35.074274 
L 152.959038 35.074274 
L 152.959038 34.547588 
L 153.081247 34.547588 
L 153.178403 33.494215 
L 153.442821 33.494215 
L 153.442821 32.967529 
L 153.773658 32.967529 
L 153.773658 31.387471 
L 155.804285 31.387471 
L 155.804285 30.334099 
L 338.688 30.334099 
L 338.688 30.334099 
" style="fill:none;stroke:#000080;stroke-linecap:square;stroke-width:1.5;"/>
   </g>
   <g id="line2d_40">
    <g>
     <use style="fill-opacity:0;stroke:#000080;stroke-width:1.5;" x="141.755753" xlink:href="#mb927ec6a74" y="216.780971"/>
     <use style="fill-opacity:0;stroke:#000080;stroke-width:1.5;" x="155.804285" xlink:href="#mb927ec6a74" y="31.387471"/>
     <use style="fill-opacity:0;stroke:#000080;stroke-width:1.5;" x="155.804285" xlink:href="#mb927ec6a74" y="30.334099"/>
     <use style="fill-opacity:0;stroke:#000080;stroke-width:1.5;" x="155.804285" xlink:href="#mb927ec6a74" y="30.334099"/>
     <use style="fill-opacity:0;stroke:#000080;stroke-width:1.5;" x="338.688" xlink:href="#mb927ec6a74" y="30.334099"/>
    </g>
   </g>
   <g id="line2d_41">
    <path style="fill:none;stroke:#000080;stroke-linecap:square;stroke-width:1.5;"/>
    <g/>
   </g>
   <g id="line2d_42">
    <defs>
     <path d="M 0 1.5 
C 0.397805 1.5 0.77937 1.341951 1.06066 1.06066 
C 1.341951 0.77937 1.5 0.397805 1.5 0 
C 1.5 -0.397805 1.341951 -0.77937 1.06066 -1.06066 
C 0.77937 -1.341951 0.397805 -1.5 0 -1.5 
C -0.397805 -1.5 -0.77937 -1.341951 -1.06066 -1.06066 
C -1.341951 -0.77937 -1.5 -0.397805 -1.5 0 
C -1.5 0.397805 -1.341951 0.77937 -1.06066 1.06066 
C -0.77937 1.341951 -0.397805 1.5 0 1.5 
z
" id="m49636087bc" style="stroke:#ff00ff;"/>
    </defs>
    <g>
     <use style="fill:#ff00ff;stroke:#ff00ff;" x="259.440683" xlink:href="#m49636087bc" y="30.334099"/>
     <use style="fill:#ff00ff;stroke:#ff00ff;" x="259.440683" xlink:href="#m49636087bc" y="30.334099"/>
    </g>
   </g>
   <g id="line2d_43">
    <path d="M 50.52898 298.944 
L 50.52898 298.417314 
L 95.918017 298.417314 
L 95.918017 297.890628 
L 141.662245 297.890628 
L 141.662245 297.363942 
L 154.121296 297.363942 
L 154.121296 296.837256 
L 163.748975 296.837256 
L 163.801742 295.783884 
L 164.75018 295.783884 
L 164.75018 295.257197 
L 164.874481 295.257197 
L 164.874481 294.730511 
L 166.186323 294.730511 
L 166.289413 292.623767 
L 166.695783 292.623767 
L 166.706937 291.570395 
L 167.136471 291.570395 
L 167.136471 290.517023 
L 167.587512 290.517023 
L 167.587512 289.990337 
L 167.714267 289.990337 
L 167.714267 288.936964 
L 168.666574 288.936964 
L 168.756032 287.356906 
L 168.835167 287.356906 
L 168.933583 285.776848 
L 169.27373 285.776848 
L 169.27373 285.250162 
L 169.569561 285.250162 
L 169.569561 284.723476 
L 169.729685 284.723476 
L 169.729685 284.19679 
L 170.14658 284.19679 
L 170.14658 283.670104 
L 170.29244 283.670104 
L 170.29244 283.143418 
L 171.194673 283.143418 
L 171.194673 282.616732 
L 171.628868 282.616732 
L 171.628868 282.090045 
L 171.986738 282.090045 
L 172.077118 280.509987 
L 172.657407 280.509987 
L 172.657407 279.983301 
L 173.188276 279.983301 
L 173.188276 279.456615 
L 173.356625 279.456615 
L 173.38706 278.403243 
L 173.508272 278.403243 
L 173.561039 276.296499 
L 173.658612 276.296499 
L 173.658612 275.769812 
L 174.102007 275.769812 
L 174.102007 275.243126 
L 174.612532 275.243126 
L 174.683251 272.08301 
L 174.942445 272.08301 
L 175.039523 270.502952 
L 175.08786 270.502952 
L 175.115421 269.449579 
L 175.327556 269.449579 
L 175.341154 267.869521 
L 175.476552 267.869521 
L 175.57071 266.289463 
L 175.604215 266.289463 
L 175.604215 265.236091 
L 175.909476 265.236091 
L 175.909476 264.709405 
L 176.086194 264.709405 
L 176.164164 262.60266 
L 176.222414 262.60266 
L 176.325491 261.549288 
L 176.415186 261.549288 
L 176.415186 261.022602 
L 176.529835 261.022602 
L 176.618488 257.862486 
L 176.675242 257.862486 
L 176.775685 256.282427 
L 176.794453 256.282427 
L 176.8631 254.175683 
L 177.042792 254.175683 
L 177.153401 247.85545 
L 177.208443 247.85545 
L 177.226752 246.802078 
L 177.348323 246.802078 
L 177.402755 241.008531 
L 177.493098 241.008531 
L 177.576999 239.428473 
L 178.101129 239.428473 
L 178.211011 238.375101 
L 178.216775 238.375101 
L 178.216775 237.848415 
L 178.365977 237.848415 
L 178.365977 237.321729 
L 178.56483 237.321729 
L 178.621232 233.634926 
L 178.716697 233.634926 
L 178.716697 233.10824 
L 178.83947 233.10824 
L 178.83947 232.054868 
L 178.977944 232.054868 
L 179.055012 229.421437 
L 179.169978 229.421437 
L 179.235335 226.788007 
L 179.521099 226.788007 
L 179.611776 224.154577 
L 179.659591 224.154577 
L 179.733711 220.467774 
L 179.807517 220.467774 
L 179.823292 218.36103 
L 179.943762 218.36103 
L 179.943762 217.834344 
L 180.089306 217.834344 
L 180.182234 214.674227 
L 180.202817 214.674227 
L 180.202817 213.094169 
L 180.366615 213.094169 
L 180.432721 209.407366 
L 180.483402 209.407366 
L 180.574258 207.300622 
L 180.704665 207.300622 
L 180.734621 205.193878 
L 180.834104 205.193878 
L 180.868789 200.980389 
L 181.090134 200.980389 
L 181.099906 199.400331 
L 181.284554 199.400331 
L 181.308704 196.7669 
L 181.467266 196.7669 
L 181.55791 193.080098 
L 181.586436 193.080098 
L 181.657549 190.973354 
L 181.780129 190.973354 
L 181.850459 188.866609 
L 182.041257 188.866609 
L 182.147384 184.126434 
L 182.21625 184.126434 
L 182.325874 178.332888 
L 182.348626 178.332888 
L 182.348626 177.279515 
L 182.470975 177.279515 
L 182.552068 173.066027 
L 182.583502 173.066027 
L 182.592473 170.959282 
L 182.70422 170.959282 
L 182.762047 168.852538 
L 182.824109 168.852538 
L 182.899174 166.745794 
L 183.017734 166.745794 
L 183.122449 165.165736 
L 183.200574 165.165736 
L 183.230862 162.005619 
L 183.445687 162.005619 
L 183.53513 158.318817 
L 183.602971 158.318817 
L 183.61989 156.738758 
L 183.763043 156.738758 
L 183.838356 151.471897 
L 183.909189 151.471897 
L 183.979734 146.731723 
L 184.041744 146.731723 
L 184.04587 145.151665 
L 184.275392 145.151665 
L 184.332303 143.571606 
L 184.401161 143.571606 
L 184.457665 139.884804 
L 184.542078 139.884804 
L 184.626084 136.724687 
L 184.681864 136.724687 
L 184.701742 135.144629 
L 184.832374 135.144629 
L 184.930691 129.351082 
L 184.99723 129.351082 
L 185.063517 127.771024 
L 185.176017 127.771024 
L 185.253182 126.190966 
L 185.433187 126.190966 
L 185.53576 123.030849 
L 185.682864 123.030849 
L 185.787717 119.870733 
L 185.81756 119.870733 
L 185.925313 116.18393 
L 185.991862 116.18393 
L 185.99924 115.130558 
L 186.157129 115.130558 
L 186.251908 114.077186 
L 186.270076 114.077186 
L 186.328086 113.023814 
L 186.454315 113.023814 
L 186.543922 108.810325 
L 186.579636 108.810325 
L 186.672152 107.230267 
L 186.728842 107.230267 
L 186.728842 105.650209 
L 186.883796 105.650209 
L 186.883796 104.596836 
L 187.051282 104.596836 
L 187.085973 100.383348 
L 187.38491 100.383348 
L 187.490202 98.803289 
L 187.598227 98.803289 
L 187.672108 95.116487 
L 187.765688 95.116487 
L 187.865398 93.536429 
L 187.87865 93.536429 
L 187.924952 90.902998 
L 188.063125 90.902998 
L 188.076227 88.796254 
L 188.222955 88.796254 
L 188.30394 85.636137 
L 188.592411 85.636137 
L 188.592411 85.109451 
L 188.719104 85.109451 
L 188.826075 80.895963 
L 188.891819 80.895963 
L 188.944859 78.262532 
L 189.031869 78.262532 
L 189.13078 77.20916 
L 189.173878 77.20916 
L 189.195387 76.155788 
L 189.415098 76.155788 
L 189.415098 75.102416 
L 189.730627 75.102416 
L 189.754435 72.995672 
L 192.959252 72.995672 
L 193.07026 70.888927 
L 193.102198 70.888927 
L 193.156114 69.308869 
L 193.762089 69.308869 
L 193.762089 68.782183 
L 201.067082 68.782183 
L 201.067082 67.202125 
L 231.533571 67.202125 
L 231.628149 64.042008 
L 231.671214 64.042008 
L 231.731328 61.935264 
L 231.782689 61.935264 
L 231.881773 58.248461 
L 231.898232 58.248461 
L 232.007742 53.508287 
L 232.019341 53.508287 
L 232.107133 51.928228 
L 232.140137 51.928228 
L 232.2419 46.661368 
L 232.268678 46.661368 
L 232.340486 43.501251 
L 232.396277 43.501251 
L 232.461913 41.394507 
L 232.522182 41.394507 
L 232.629382 39.814448 
L 232.667 39.814448 
L 232.667 39.287762 
L 232.885257 39.287762 
L 232.885257 38.761076 
L 243.376665 38.761076 
L 243.440847 37.707704 
L 243.506976 37.707704 
L 243.521153 36.654332 
L 243.633478 36.654332 
L 243.715733 35.60096 
L 243.802966 35.60096 
L 243.856381 34.547588 
L 243.958868 34.547588 
L 244.026507 32.967529 
L 250.309978 32.967529 
L 250.347789 31.914157 
L 250.605839 31.914157 
L 250.605839 31.387471 
L 250.746327 31.387471 
L 250.746327 30.860785 
L 259.440683 30.860785 
L 259.440683 30.334099 
L 338.688 30.334099 
L 338.688 30.334099 
" style="fill:none;stroke:#ff00ff;stroke-linecap:square;stroke-width:1.5;"/>
   </g>
   <g id="line2d_44">
    <defs>
     <path d="M -0 8.485281 
L 5.091169 0 
L 0 -8.485281 
L -5.091169 -0 
z
" id="mb3870b0051" style="stroke:#ff00ff;stroke-linejoin:miter;stroke-width:1.5;"/>
    </defs>
    <g>
     <use style="fill-opacity:0;stroke:#ff00ff;stroke-linejoin:miter;stroke-width:1.5;" x="175.115421" xlink:href="#mb3870b0051" y="269.976266"/>
     <use style="fill-opacity:0;stroke:#ff00ff;stroke-linejoin:miter;stroke-width:1.5;" x="186.472273" xlink:href="#mb3870b0051" y="111.970441"/>
     <use style="fill-opacity:0;stroke:#ff00ff;stroke-linejoin:miter;stroke-width:1.5;" x="232.19292" xlink:href="#mb3870b0051" y="49.294798"/>
     <use style="fill-opacity:0;stroke:#ff00ff;stroke-linejoin:miter;stroke-width:1.5;" x="259.440683" xlink:href="#mb3870b0051" y="30.334099"/>
     <use style="fill-opacity:0;stroke:#ff00ff;stroke-linejoin:miter;stroke-width:1.5;" x="259.440683" xlink:href="#mb3870b0051" y="30.334099"/>
     <use style="fill-opacity:0;stroke:#ff00ff;stroke-linejoin:miter;stroke-width:1.5;" x="338.688" xlink:href="#mb3870b0051" y="30.334099"/>
    </g>
   </g>
   <g id="line2d_45">
    <path style="fill:none;stroke:#ff00ff;stroke-linecap:square;stroke-width:1.5;"/>
    <g/>
   </g>
   <g id="line2d_46">
    <path clip-path="url(#p79dc89eac8)" d="M 231.005976 67.202125 
" style="fill:none;stroke:#ff00ff;stroke-linecap:square;stroke-width:1.5;"/>
    <defs>
     <path d="M -12 12 
L 12 -12 
M -12 -12 
L 12 12 
" id="m9be1e45a61" style="stroke:#ff00ff;"/>
    </defs>
    <g clip-path="url(#p79dc89eac8)">
     <use style="fill:#ff00ff;stroke:#ff00ff;" x="231.005976" xlink:href="#m9be1e45a61" y="67.202125"/>
    </g>
   </g>
   <g id="line2d_47">
    <defs>
     <path d="M 0 1.5 
C 0.397805 1.5 0.77937 1.341951 1.06066 1.06066 
C 1.341951 0.77937 1.5 0.397805 1.5 0 
C 1.5 -0.397805 1.341951 -0.77937 1.06066 -1.06066 
C 0.77937 -1.341951 0.397805 -1.5 0 -1.5 
C -0.397805 -1.5 -0.77937 -1.341951 -1.06066 -1.06066 
C -1.341951 -0.77937 -1.5 -0.397805 -1.5 0 
C -1.5 0.397805 -1.341951 0.77937 -1.06066 1.06066 
C -0.77937 1.341951 -0.397805 1.5 0 1.5 
z
" id="mda932a4670" style="stroke:#ff0000;"/>
    </defs>
    <g>
     <use style="fill:#ff0000;stroke:#ff0000;" x="159.724893" xlink:href="#mda932a4670" y="30.334099"/>
     <use style="fill:#ff0000;stroke:#ff0000;" x="159.724893" xlink:href="#mda932a4670" y="30.334099"/>
    </g>
   </g>
   <g id="line2d_48">
    <path d="M 105.584798 298.944 
L 105.584798 297.890628 
L 110.131676 297.890628 
L 110.131676 296.837256 
L 111.505558 296.837256 
L 111.505558 296.31057 
L 113.022974 296.31057 
L 113.022974 295.783884 
L 113.965867 295.783884 
L 113.965867 295.257197 
L 121.638301 295.257197 
L 121.638301 293.677139 
L 123.056911 293.677139 
L 123.056911 290.517023 
L 123.593547 290.517023 
L 123.593547 289.990337 
L 126.053856 289.990337 
L 126.053856 289.463651 
L 126.168212 289.463651 
L 126.168212 288.936964 
L 126.3947 288.936964 
L 126.3947 288.410278 
L 126.729009 288.410278 
L 126.729009 287.883592 
L 131.439773 287.883592 
L 131.439773 287.356906 
L 132.816208 287.356906 
L 132.816208 286.303534 
L 133.873458 286.303534 
L 133.873458 285.776848 
L 134.7313 285.776848 
L 134.800918 284.723476 
L 135.615352 284.723476 
L 135.615352 284.19679 
L 136.073445 284.19679 
L 136.073445 283.670104 
L 136.707671 283.670104 
L 136.707671 283.143418 
L 136.831795 283.143418 
L 136.831795 282.616732 
L 137.138292 282.616732 
L 137.138292 281.563359 
L 137.439497 281.563359 
L 137.439497 281.036673 
L 137.558536 281.036673 
L 137.558536 280.509987 
L 137.852629 280.509987 
L 137.852629 279.983301 
L 138.482688 279.983301 
L 138.482688 278.929929 
L 138.706272 278.929929 
L 138.706272 278.403243 
L 139.253002 278.403243 
L 139.306744 276.823185 
L 139.572998 276.823185 
L 139.572998 276.296499 
L 139.730821 276.296499 
L 139.835248 274.71644 
L 140.144829 274.71644 
L 140.144829 273.663068 
L 140.846504 273.663068 
L 140.846504 272.609696 
L 141.187031 272.609696 
L 141.235139 271.556324 
L 141.426256 271.556324 
L 141.426256 268.922893 
L 141.755753 268.922893 
L 141.755753 268.396207 
L 141.895083 268.396207 
L 141.987354 267.342835 
L 142.033307 267.342835 
L 142.07914 266.289463 
L 142.351634 266.289463 
L 142.351634 265.236091 
L 142.53096 265.236091 
L 142.575505 262.60266 
L 142.664255 262.60266 
L 142.752555 259.96923 
L 143.014805 259.96923 
L 143.014805 258.915858 
L 143.40093 258.915858 
L 143.485587 257.3358 
L 143.569835 257.3358 
L 143.653678 255.755741 
L 143.737119 255.755741 
L 143.737119 255.229055 
L 143.902815 255.229055 
L 143.943994 253.122311 
L 144.026061 253.122311 
L 144.026061 252.595625 
L 144.148442 252.595625 
L 144.229555 251.015567 
L 144.310293 251.015567 
L 144.310293 250.488881 
L 144.430703 250.488881 
L 144.430703 249.962195 
L 144.589967 249.962195 
L 144.589967 249.435508 
L 144.747789 249.435508 
L 144.747789 247.328764 
L 144.904196 247.328764 
L 144.904196 246.802078 
L 145.059213 246.802078 
L 145.097753 243.641962 
L 145.174578 243.641962 
L 145.251067 241.535217 
L 145.327221 241.535217 
L 145.403044 239.955159 
L 145.440832 239.955159 
L 145.440832 239.428473 
L 145.553708 239.428473 
L 145.553708 238.901787 
L 145.851187 238.901787 
L 145.851187 238.375101 
L 145.998045 238.375101 
L 145.998045 237.848415 
L 146.216039 237.848415 
L 146.288102 235.74167 
L 146.359869 235.74167 
L 146.466968 234.688298 
L 146.502522 234.688298 
L 146.608752 232.581554 
L 146.644018 232.581554 
L 146.749392 231.528182 
L 146.784375 231.528182 
L 146.888907 228.894751 
L 146.923612 228.894751 
L 147.027314 225.207949 
L 147.061745 225.207949 
L 147.130404 222.574518 
L 147.402367 222.574518 
L 147.50327 219.414402 
L 147.570215 219.414402 
L 147.570215 218.887716 
L 147.736463 218.887716 
L 147.835457 216.780971 
L 147.96658 216.780971 
L 147.96658 215.200913 
L 148.161434 215.200913 
L 148.258051 211.514111 
L 148.290138 211.514111 
L 148.290138 210.460738 
L 148.48143 210.460738 
L 148.513109 208.353994 
L 148.639252 208.353994 
L 148.733265 205.720564 
L 148.857832 205.720564 
L 148.919783 200.453703 
L 149.043029 200.453703 
L 149.043029 199.927017 
L 149.286939 199.927017 
L 149.286939 198.873645 
L 149.407627 198.873645 
L 149.497598 196.7669 
L 149.527485 196.7669 
L 149.616841 194.13347 
L 149.646525 194.13347 
L 149.705742 189.919981 
L 149.794191 189.919981 
L 149.794191 189.393295 
L 150.027887 189.393295 
L 150.114722 187.813237 
L 150.143571 187.813237 
L 150.201126 185.706493 
L 150.287105 185.706493 
L 150.344189 183.073062 
L 150.457801 183.073062 
L 150.542526 179.38626 
L 150.570677 179.38626 
L 150.654857 176.226143 
L 150.738632 176.226143 
L 150.849711 172.012655 
L 150.960087 172.012655 
L 151.042412 169.90591 
L 151.178764 169.90591 
L 151.287083 167.27248 
L 151.340991 167.27248 
L 151.367883 165.165736 
L 151.475037 165.165736 
L 151.528368 162.532305 
L 151.60806 162.532305 
L 151.713753 160.425561 
L 151.818809 160.425561 
L 151.897188 156.738758 
L 151.949246 156.738758 
L 152.052897 152.52527 
L 152.078714 152.52527 
L 152.104493 151.471897 
L 152.25837 151.471897 
L 152.25837 148.838467 
L 152.436193 148.838467 
L 152.511852 143.571606 
L 152.562109 143.571606 
L 152.637225 140.938176 
L 152.687123 140.938176 
L 152.786492 139.358118 
L 152.811246 139.358118 
L 152.860649 137.778059 
L 152.934492 137.778059 
L 153.032466 135.144629 
L 153.105587 135.144629 
L 153.154164 133.564571 
L 153.250915 133.564571 
L 153.323128 129.351082 
L 153.371104 129.351082 
L 153.466662 125.66428 
L 153.514245 125.66428 
L 153.514245 125.137593 
L 153.632638 125.137593 
L 153.632638 122.504163 
L 153.750233 122.504163 
L 153.79705 120.397419 
L 153.890309 120.397419 
L 153.983071 115.657244 
L 154.075343 115.657244 
L 154.167129 110.390383 
L 154.19 110.390383 
L 154.281186 106.703581 
L 154.303908 106.703581 
L 154.371897 105.123522 
L 154.439623 105.123522 
L 154.439623 103.016778 
L 154.57429 103.016778 
L 154.641235 96.696545 
L 154.707925 96.696545 
L 154.77436 95.116487 
L 154.840544 95.116487 
L 154.950294 93.536429 
L 154.972161 93.536429 
L 155.0376 89.849626 
L 155.102793 89.849626 
L 155.167744 87.216196 
L 155.232454 87.216196 
L 155.318362 85.636137 
L 155.361158 85.636137 
L 155.403849 81.949335 
L 155.488919 81.949335 
L 155.55245 79.842591 
L 155.61575 79.842591 
L 155.720743 76.155788 
L 155.741666 76.155788 
L 155.741666 75.629102 
L 155.908152 75.629102 
L 155.970177 72.995672 
L 156.093569 72.995672 
L 156.093569 72.468985 
L 156.216093 72.468985 
L 156.256744 70.362241 
L 156.337763 70.362241 
L 156.418408 66.675439 
L 156.478647 66.675439 
L 156.558644 65.09538 
L 156.598505 65.09538 
L 156.697761 61.408578 
L 156.757045 61.408578 
L 156.816128 59.301833 
L 156.914157 59.301833 
L 157.011638 55.088345 
L 157.050478 55.088345 
L 157.050478 54.034973 
L 157.185742 54.034973 
L 157.243392 49.821484 
L 157.300853 49.821484 
L 157.396202 47.188054 
L 157.491032 47.188054 
L 157.566527 45.607995 
L 157.660438 45.607995 
L 157.753847 41.921193 
L 157.828215 41.921193 
L 157.828215 41.394507 
L 157.994392 41.394507 
L 158.104304 39.814448 
L 158.177196 39.814448 
L 158.177196 39.287762 
L 158.340096 39.287762 
L 158.429943 38.23439 
L 158.465753 38.23439 
L 158.537152 37.181018 
L 158.661402 37.181018 
L 158.714382 35.60096 
L 158.872364 35.60096 
L 158.872364 35.074274 
L 159.235515 35.074274 
L 159.26971 32.967529 
L 159.439685 32.967529 
L 159.439685 32.440843 
L 159.557689 32.440843 
L 159.641491 30.860785 
L 159.724893 30.860785 
L 159.724893 30.334099 
L 338.688 30.334099 
L 338.688 30.334099 
" style="fill:none;stroke:#ff0000;stroke-linecap:square;stroke-width:1.5;"/>
   </g>
   <g id="line2d_49">
    <defs>
     <path d="M 0 -6 
L -5.196152 -3 
L -5.196152 3 
L -0 6 
L 5.196152 3 
L 5.196152 -3 
z
" id="m2fa3e2e4d9" style="stroke:#ff0000;stroke-linejoin:miter;stroke-width:1.5;"/>
    </defs>
    <g>
     <use style="fill-opacity:0;stroke:#ff0000;stroke-linejoin:miter;stroke-width:1.5;" x="143.569835" xlink:href="#m2fa3e2e4d9" y="257.3358"/>
     <use style="fill-opacity:0;stroke:#ff0000;stroke-linejoin:miter;stroke-width:1.5;" x="157.735205" xlink:href="#m2fa3e2e4d9" y="44.554623"/>
     <use style="fill-opacity:0;stroke:#ff0000;stroke-linejoin:miter;stroke-width:1.5;" x="159.724893" xlink:href="#m2fa3e2e4d9" y="30.334099"/>
     <use style="fill-opacity:0;stroke:#ff0000;stroke-linejoin:miter;stroke-width:1.5;" x="159.724893" xlink:href="#m2fa3e2e4d9" y="30.334099"/>
     <use style="fill-opacity:0;stroke:#ff0000;stroke-linejoin:miter;stroke-width:1.5;" x="338.688" xlink:href="#m2fa3e2e4d9" y="30.334099"/>
    </g>
   </g>
   <g id="line2d_50">
    <path style="fill:none;stroke:#ff0000;stroke-linecap:square;stroke-width:1.5;"/>
    <g/>
   </g>
   <g id="line2d_51">
    <defs>
     <path d="M 0 1.5 
C 0.397805 1.5 0.77937 1.341951 1.06066 1.06066 
C 1.341951 0.77937 1.5 0.397805 1.5 0 
C 1.5 -0.397805 1.341951 -0.77937 1.06066 -1.06066 
C 0.77937 -1.341951 0.397805 -1.5 0 -1.5 
C -0.397805 -1.5 -0.77937 -1.341951 -1.06066 -1.06066 
C -1.341951 -0.77937 -1.5 -0.397805 -1.5 0 
C -1.5 0.397805 -1.341951 0.77937 -1.06066 1.06066 
C -0.77937 1.341951 -0.397805 1.5 0 1.5 
z
" id="mee3b6a6be4" style="stroke:#ff7500;"/>
    </defs>
    <g>
     <use style="fill:#ff7500;stroke:#ff7500;" x="155.61575" xlink:href="#mee3b6a6be4" y="30.334099"/>
     <use style="fill:#ff7500;stroke:#ff7500;" x="155.61575" xlink:href="#mee3b6a6be4" y="30.334099"/>
    </g>
   </g>
   <g id="line2d_52">
    <path d="M 66.508432 298.944 
L 66.508432 297.363942 
L 95.918017 297.363942 
L 95.918017 296.837256 
L 100.443706 296.837256 
L 100.443706 296.31057 
L 112.026172 296.31057 
L 112.026172 295.257197 
L 112.280765 295.257197 
L 112.280765 294.730511 
L 112.779064 294.730511 
L 112.779064 292.097081 
L 117.857331 292.097081 
L 117.857331 291.570395 
L 119.43583 291.570395 
L 119.43583 291.043709 
L 120.728219 291.043709 
L 120.728219 290.517023 
L 126.729009 290.517023 
L 126.729009 289.990337 
L 128.107907 289.990337 
L 128.107907 289.463651 
L 128.610515 289.463651 
L 128.610515 288.936964 
L 129.099042 288.936964 
L 129.099042 288.410278 
L 130.576266 288.410278 
L 130.576266 287.883592 
L 130.752422 287.883592 
L 130.752422 287.356906 
L 130.926816 287.356906 
L 130.926816 286.83022 
L 131.938072 286.83022 
L 131.938072 286.303534 
L 132.971225 286.303534 
L 132.971225 285.776848 
L 133.503183 285.776848 
L 133.503183 285.250162 
L 133.946579 285.250162 
L 133.946579 284.723476 
L 134.091907 284.723476 
L 134.164119 283.670104 
L 134.37898 283.670104 
L 134.450015 282.616732 
L 134.520763 282.616732 
L 134.591225 281.036673 
L 135.280614 281.036673 
L 135.280614 280.509987 
L 135.415281 280.509987 
L 135.415281 279.983301 
L 135.615352 279.983301 
L 135.615352 278.929929 
L 135.813153 278.929929 
L 135.878591 276.296499 
L 136.202149 276.296499 
L 136.202149 272.609696 
L 136.32991 272.609696 
L 136.393441 271.029638 
L 137.016339 271.029638 
L 137.016339 270.502952 
L 137.138292 270.502952 
L 137.138292 269.976266 
L 137.259399 269.976266 
L 137.259399 268.922893 
L 137.439497 268.922893 
L 137.499118 267.342835 
L 137.617753 267.342835 
L 137.676769 264.709405 
L 137.794206 264.709405 
L 137.794206 264.182719 
L 138.026733 264.182719 
L 138.084384 263.129347 
L 138.199116 263.129347 
L 138.199116 262.60266 
L 138.313099 262.60266 
L 138.369812 258.389172 
L 138.426341 258.389172 
L 138.482688 256.282427 
L 138.816998 256.282427 
L 138.927025 254.175683 
L 138.981779 254.175683 
L 138.981779 253.648997 
L 139.306744 253.648997 
L 139.413734 252.595625 
L 139.466984 252.595625 
L 139.466984 252.068939 
L 139.625765 252.068939 
L 139.625765 251.542253 
L 139.783113 251.542253 
L 139.783113 251.015567 
L 139.990725 251.015567 
L 140.093612 248.382136 
L 140.144829 248.382136 
L 140.246813 247.328764 
L 140.297583 247.328764 
L 140.39868 241.535217 
L 140.44901 241.535217 
L 140.499195 239.955159 
L 140.698504 239.955159 
L 140.747977 238.375101 
L 140.89556 238.375101 
L 140.89556 237.848415 
L 141.090414 237.848415 
L 141.090414 237.321729 
L 141.283115 237.321729 
L 141.378673 235.74167 
L 141.426256 235.74167 
L 141.47371 234.161612 
L 141.615302 234.161612 
L 141.709062 229.421437 
L 141.755753 229.421437 
L 141.755753 227.841379 
L 141.895083 227.841379 
L 141.895083 226.261321 
L 142.07914 226.261321 
L 142.170445 223.101204 
L 142.215919 223.101204 
L 142.306513 220.99446 
L 142.396639 220.99446 
L 142.441528 217.307658 
L 142.53096 217.307658 
L 142.53096 215.727599 
L 142.796538 215.727599 
L 142.840411 214.147541 
L 142.927826 214.147541 
L 143.014805 212.567483 
L 143.101352 212.567483 
L 143.101352 210.987425 
L 143.230373 210.987425 
L 143.273169 209.407366 
L 143.40093 209.407366 
L 143.44331 207.827308 
L 143.611807 207.827308 
L 143.695448 205.720564 
L 143.778691 205.720564 
L 143.778691 205.193878 
L 144.026061 205.193878 
L 144.026061 204.667192 
L 144.148442 204.667192 
L 144.189046 203.613819 
L 144.269971 203.613819 
L 144.269971 203.087133 
L 144.430703 203.087133 
L 144.510517 200.453703 
L 144.708467 200.453703 
L 144.747789 199.400331 
L 144.865226 199.400331 
L 144.904196 197.820273 
L 144.981877 197.820273 
L 145.059213 195.186842 
L 145.097753 195.186842 
L 145.097753 193.080098 
L 145.251067 193.080098 
L 145.289185 191.50004 
L 145.365173 191.50004 
L 145.403044 189.393295 
L 145.478539 189.393295 
L 145.553708 186.759865 
L 145.591172 186.759865 
L 145.591172 185.706493 
L 145.703082 185.706493 
L 145.777292 182.01969 
L 145.888018 182.01969 
L 145.998045 176.752829 
L 146.034567 176.752829 
L 146.143677 174.646085 
L 146.216039 174.646085 
L 146.324022 171.485969 
L 146.466968 171.485969 
L 146.573414 169.90591 
L 146.644018 169.90591 
L 146.679213 167.27248 
L 146.819289 167.27248 
L 146.888907 164.63905 
L 146.958248 164.63905 
L 147.061745 163.058991 
L 147.096109 163.058991 
L 147.164632 159.898875 
L 147.402367 159.898875 
L 147.4697 157.79213 
L 147.536775 157.79213 
L 147.570215 155.1587 
L 147.70334 155.1587 
L 147.802521 150.418525 
L 147.835457 150.418525 
L 147.901141 148.311781 
L 147.96658 148.311781 
L 148.064279 144.098292 
L 148.096724 144.098292 
L 148.193699 141.991548 
L 148.258051 141.991548 
L 148.290138 139.358118 
L 148.417899 139.358118 
L 148.48143 136.198001 
L 148.607802 136.198001 
L 148.701984 130.93114 
L 148.733265 130.93114 
L 148.76449 129.351082 
L 148.981515 129.351082 
L 149.073705 126.190966 
L 149.165411 126.190966 
L 149.195872 125.137593 
L 149.286939 125.137593 
L 149.377533 123.557535 
L 149.437669 123.557535 
L 149.467659 118.290674 
L 149.616841 118.290674 
L 149.705742 115.657244 
L 149.735275 115.657244 
L 149.823575 111.970441 
L 149.911431 111.970441 
L 149.998846 109.337011 
L 150.085825 109.337011 
L 150.172372 107.756953 
L 150.201126 107.756953 
L 150.229833 106.703581 
L 150.344189 106.703581 
L 150.344189 105.650209 
L 150.51433 105.650209 
L 150.542526 103.543464 
L 150.654857 103.543464 
L 150.738632 98.276603 
L 150.766468 98.276603 
L 150.849711 90.376312 
L 150.932558 90.376312 
L 150.960087 89.32294 
L 151.124351 89.32294 
L 151.178764 86.162824 
L 151.260066 86.162824 
L 151.340991 83.002707 
L 151.421542 83.002707 
L 151.501723 79.315904 
L 151.554972 79.315904 
L 151.60806 76.155788 
L 151.68739 76.155788 
L 151.740076 72.468985 
L 151.871101 72.468985 
L 151.975216 67.202125 
L 152.001148 67.202125 
L 152.078714 64.042008 
L 152.130233 64.042008 
L 152.155936 61.408578 
L 152.25837 61.408578 
L 152.309362 58.248461 
L 152.410901 58.248461 
L 152.436193 56.668403 
L 152.562109 56.668403 
L 152.637225 54.034973 
L 152.687123 54.034973 
L 152.761703 50.874856 
L 152.835965 50.874856 
L 152.860649 48.768112 
L 152.983548 48.768112 
L 153.081247 47.188054 
L 153.129893 47.188054 
L 153.129893 45.607995 
L 153.250915 45.607995 
L 153.250915 44.554623 
L 153.418948 44.554623 
L 153.418948 42.447879 
L 153.679772 42.447879 
L 153.773658 39.814448 
L 153.79705 39.814448 
L 153.79705 39.287762 
L 154.075343 39.287762 
L 154.075343 38.761076 
L 154.212841 38.761076 
L 154.281186 37.181018 
L 154.326601 37.181018 
L 154.394502 36.127646 
L 154.439623 36.127646 
L 154.507086 33.494215 
L 154.730098 33.494215 
L 154.730098 31.914157 
L 155.059358 31.914157 
L 155.059358 31.387471 
L 155.61575 31.387471 
L 155.61575 30.334099 
L 338.688 30.334099 
L 338.688 30.334099 
" style="fill:none;stroke:#ff7500;stroke-linecap:square;stroke-width:1.5;"/>
   </g>
   <g id="line2d_53">
    <defs>
     <path d="M 0 -6 
L -1.347084 -1.854102 
L -5.706339 -1.854102 
L -2.179628 0.708204 
L -3.526712 4.854102 
L -0 2.291796 
L 3.526712 4.854102 
L 2.179628 0.708204 
L 5.706339 -1.854102 
L 1.347084 -1.854102 
z
" id="m24803ef37e" style="stroke:#ff7500;stroke-linejoin:bevel;stroke-width:1.5;"/>
    </defs>
    <g>
     <use style="fill-opacity:0;stroke:#ff7500;stroke-linejoin:bevel;stroke-width:1.5;" x="149.437669" xlink:href="#m24803ef37e" y="121.450791"/>
     <use style="fill-opacity:0;stroke:#ff7500;stroke-linejoin:bevel;stroke-width:1.5;" x="155.61575" xlink:href="#m24803ef37e" y="31.387471"/>
     <use style="fill-opacity:0;stroke:#ff7500;stroke-linejoin:bevel;stroke-width:1.5;" x="155.61575" xlink:href="#m24803ef37e" y="30.334099"/>
     <use style="fill-opacity:0;stroke:#ff7500;stroke-linejoin:bevel;stroke-width:1.5;" x="155.61575" xlink:href="#m24803ef37e" y="30.334099"/>
     <use style="fill-opacity:0;stroke:#ff7500;stroke-linejoin:bevel;stroke-width:1.5;" x="338.688" xlink:href="#m24803ef37e" y="30.334099"/>
    </g>
   </g>
   <g id="line2d_54">
    <path style="fill:none;stroke:#ff7500;stroke-linecap:square;stroke-width:1.5;"/>
    <g/>
   </g>
   <g id="line2d_55">
    <path d="M 338.688 30.334099 
L 369.60768 293.571802 
" style="fill:none;stroke:#ff00ff;stroke-linecap:square;stroke-width:1.5;"/>
    <g>
     <use style="fill-opacity:0;stroke:#ff00ff;stroke-linejoin:miter;stroke-width:1.5;" x="338.688" xlink:href="#mb3870b0051" y="30.334099"/>
     <use style="fill-opacity:0;stroke:#ff00ff;stroke-linejoin:miter;stroke-width:1.5;" x="369.60768" xlink:href="#mb3870b0051" y="293.571802"/>
    </g>
   </g>
   <g id="line2d_56">
    <path d="M 338.688 30.334099 
L 369.60768 241.998701 
" style="fill:none;stroke:#ff0000;stroke-linecap:square;stroke-width:1.5;"/>
    <g>
     <use style="fill-opacity:0;stroke:#ff0000;stroke-linejoin:miter;stroke-width:1.5;" x="338.688" xlink:href="#m2fa3e2e4d9" y="30.334099"/>
     <use style="fill-opacity:0;stroke:#ff0000;stroke-linejoin:miter;stroke-width:1.5;" x="369.60768" xlink:href="#m2fa3e2e4d9" y="241.998701"/>
    </g>
   </g>
   <g id="line2d_57">
    <path d="M 338.688 30.334099 
L 369.60768 190.4256 
" style="fill:none;stroke:#000080;stroke-linecap:square;stroke-width:1.5;"/>
    <g>
     <use style="fill-opacity:0;stroke:#000080;stroke-width:1.5;" x="338.688" xlink:href="#mb927ec6a74" y="30.334099"/>
     <use style="fill-opacity:0;stroke:#000080;stroke-width:1.5;" x="369.60768" xlink:href="#mb927ec6a74" y="190.4256"/>
    </g>
   </g>
   <g id="line2d_58">
    <path d="M 338.688 30.334099 
L 369.60768 138.852499 
" style="fill:none;stroke:#000080;stroke-linecap:square;stroke-width:1.5;"/>
    <g>
     <use style="fill-opacity:0;stroke:#000080;stroke-width:1.5;" x="338.688" xlink:href="#mb927ec6a74" y="30.334099"/>
     <use style="fill-opacity:0;stroke:#000080;stroke-width:1.5;" x="369.60768" xlink:href="#mb927ec6a74" y="138.852499"/>
    </g>
   </g>
   <g id="line2d_59">
    <path d="M 338.688 30.334099 
L 369.60768 87.279398 
" style="fill:none;stroke:#ff7500;stroke-linecap:square;stroke-width:1.5;"/>
    <g>
     <use style="fill-opacity:0;stroke:#ff7500;stroke-linejoin:bevel;stroke-width:1.5;" x="338.688" xlink:href="#m24803ef37e" y="30.334099"/>
     <use style="fill-opacity:0;stroke:#ff7500;stroke-linejoin:bevel;stroke-width:1.5;" x="369.60768" xlink:href="#m24803ef37e" y="87.279398"/>
    </g>
   </g>
   <g id="line2d_60">
    <path d="M 338.688 298.944 
L 338.688 30.334099 
" style="fill:none;stroke:#000000;stroke-linecap:square;stroke-width:1.5;"/>
   </g>
   <g id="patch_3">
    <path d="M 57.6 298.944 
L 57.6 27.648 
" style="fill:none;stroke:#000000;stroke-linecap:square;stroke-linejoin:miter;stroke-width:0.8;"/>
   </g>
   <g id="patch_4">
    <path d="M 338.688 298.944 
L 338.688 27.648 
" style="fill:none;stroke:#000000;stroke-linecap:square;stroke-linejoin:miter;stroke-width:0.8;"/>
   </g>
   <g id="patch_5">
    <path d="M 57.6 298.944 
L 338.688 298.944 
" style="fill:none;stroke:#000000;stroke-linecap:square;stroke-linejoin:miter;stroke-width:0.8;"/>
   </g>
   <g id="patch_6">
    <path d="M 57.6 27.648 
L 338.688 27.648 
" style="fill:none;stroke:#000000;stroke-linecap:square;stroke-linejoin:miter;stroke-width:0.8;"/>
   </g>
   <g id="text_13">
    <!-- 400s-2e4 -->
    <g transform="translate(375.22944 298.262739)scale(0.17 -0.17)">
     <use xlink:href="#DejaVuSans-52"/>
     <use x="63.623047" xlink:href="#DejaVuSans-48"/>
     <use x="127.246094" xlink:href="#DejaVuSans-48"/>
     <use x="190.869141" xlink:href="#DejaVuSans-115"/>
     <use x="242.96875" xlink:href="#DejaVuSans-45"/>
     <use x="279.052734" xlink:href="#DejaVuSans-50"/>
     <use x="342.675781" xlink:href="#DejaVuSans-101"/>
     <use x="404.199219" xlink:href="#DejaVuSans-52"/>
    </g>
   </g>
   <g id="text_14">
    <!-- 200s-2e4 -->
    <g transform="translate(375.22944 246.689638)scale(0.17 -0.17)">
     <use xlink:href="#DejaVuSans-50"/>
     <use x="63.623047" xlink:href="#DejaVuSans-48"/>
     <use x="127.246094" xlink:href="#DejaVuSans-48"/>
     <use x="190.869141" xlink:href="#DejaVuSans-115"/>
     <use x="242.96875" xlink:href="#DejaVuSans-45"/>
     <use x="279.052734" xlink:href="#DejaVuSans-50"/>
     <use x="342.675781" xlink:href="#DejaVuSans-101"/>
     <use x="404.199219" xlink:href="#DejaVuSans-52"/>
    </g>
   </g>
   <g id="text_15">
    <!-- 100-2e4 -->
    <g transform="translate(375.22944 195.116537)scale(0.17 -0.17)">
     <use xlink:href="#DejaVuSans-49"/>
     <use x="63.623047" xlink:href="#DejaVuSans-48"/>
     <use x="127.246094" xlink:href="#DejaVuSans-48"/>
     <use x="190.869141" xlink:href="#DejaVuSans-45"/>
     <use x="226.953125" xlink:href="#DejaVuSans-50"/>
     <use x="290.576172" xlink:href="#DejaVuSans-101"/>
     <use x="352.099609" xlink:href="#DejaVuSans-52"/>
    </g>
   </g>
   <g id="text_16">
    <!-- 100-1e5 -->
    <defs>
     <path d="M 10.796875 72.90625 
L 49.515625 72.90625 
L 49.515625 64.59375 
L 19.828125 64.59375 
L 19.828125 46.734375 
Q 21.96875 47.46875 24.109375 47.828125 
Q 26.265625 48.1875 28.421875 48.1875 
Q 40.625 48.1875 47.75 41.5 
Q 54.890625 34.8125 54.890625 23.390625 
Q 54.890625 11.625 47.5625 5.09375 
Q 40.234375 -1.421875 26.90625 -1.421875 
Q 22.3125 -1.421875 17.546875 -0.640625 
Q 12.796875 0.140625 7.71875 1.703125 
L 7.71875 11.625 
Q 12.109375 9.234375 16.796875 8.0625 
Q 21.484375 6.890625 26.703125 6.890625 
Q 35.15625 6.890625 40.078125 11.328125 
Q 45.015625 15.765625 45.015625 23.390625 
Q 45.015625 31 40.078125 35.4375 
Q 35.15625 39.890625 26.703125 39.890625 
Q 22.75 39.890625 18.8125 39.015625 
Q 14.890625 38.140625 10.796875 36.28125 
z
" id="DejaVuSans-53"/>
    </defs>
    <g transform="translate(375.22944 143.543437)scale(0.17 -0.17)">
     <use xlink:href="#DejaVuSans-49"/>
     <use x="63.623047" xlink:href="#DejaVuSans-48"/>
     <use x="127.246094" xlink:href="#DejaVuSans-48"/>
     <use x="190.869141" xlink:href="#DejaVuSans-45"/>
     <use x="226.953125" xlink:href="#DejaVuSans-49"/>
     <use x="290.576172" xlink:href="#DejaVuSans-101"/>
     <use x="352.099609" xlink:href="#DejaVuSans-53"/>
    </g>
   </g>
   <g id="text_17">
    <!-- 140s-2e4 -->
    <g transform="translate(375.22944 91.970336)scale(0.17 -0.17)">
     <use xlink:href="#DejaVuSans-49"/>
     <use x="63.623047" xlink:href="#DejaVuSans-52"/>
     <use x="127.246094" xlink:href="#DejaVuSans-48"/>
     <use x="190.869141" xlink:href="#DejaVuSans-115"/>
     <use x="242.96875" xlink:href="#DejaVuSans-45"/>
     <use x="279.052734" xlink:href="#DejaVuSans-50"/>
     <use x="342.675781" xlink:href="#DejaVuSans-101"/>
     <use x="404.199219" xlink:href="#DejaVuSans-52"/>
    </g>
   </g>
   <g id="text_18">
    <!-- best 2009 -->
    <defs>
     <path d="M 48.6875 27.296875 
Q 48.6875 37.203125 44.609375 42.84375 
Q 40.53125 48.484375 33.40625 48.484375 
Q 26.265625 48.484375 22.1875 42.84375 
Q 18.109375 37.203125 18.109375 27.296875 
Q 18.109375 17.390625 22.1875 11.75 
Q 26.265625 6.109375 33.40625 6.109375 
Q 40.53125 6.109375 44.609375 11.75 
Q 48.6875 17.390625 48.6875 27.296875 
z
M 18.109375 46.390625 
Q 20.953125 51.265625 25.265625 53.625 
Q 29.59375 56 35.59375 56 
Q 45.5625 56 51.78125 48.09375 
Q 58.015625 40.1875 58.015625 27.296875 
Q 58.015625 14.40625 51.78125 6.484375 
Q 45.5625 -1.421875 35.59375 -1.421875 
Q 29.59375 -1.421875 25.265625 0.953125 
Q 20.953125 3.328125 18.109375 8.203125 
L 18.109375 0 
L 9.078125 0 
L 9.078125 75.984375 
L 18.109375 75.984375 
z
" id="DejaVuSans-98"/>
     <path d="M 10.984375 1.515625 
L 10.984375 10.5 
Q 14.703125 8.734375 18.5 7.8125 
Q 22.3125 6.890625 25.984375 6.890625 
Q 35.75 6.890625 40.890625 13.453125 
Q 46.046875 20.015625 46.78125 33.40625 
Q 43.953125 29.203125 39.59375 26.953125 
Q 35.25 24.703125 29.984375 24.703125 
Q 19.046875 24.703125 12.671875 31.3125 
Q 6.296875 37.9375 6.296875 49.421875 
Q 6.296875 60.640625 12.9375 67.421875 
Q 19.578125 74.21875 30.609375 74.21875 
Q 43.265625 74.21875 49.921875 64.515625 
Q 56.59375 54.828125 56.59375 36.375 
Q 56.59375 19.140625 48.40625 8.859375 
Q 40.234375 -1.421875 26.421875 -1.421875 
Q 22.703125 -1.421875 18.890625 -0.6875 
Q 15.09375 0.046875 10.984375 1.515625 
z
M 30.609375 32.421875 
Q 37.25 32.421875 41.125 36.953125 
Q 45.015625 41.5 45.015625 49.421875 
Q 45.015625 57.28125 41.125 61.84375 
Q 37.25 66.40625 30.609375 66.40625 
Q 23.96875 66.40625 20.09375 61.84375 
Q 16.21875 57.28125 16.21875 49.421875 
Q 16.21875 41.5 20.09375 36.953125 
Q 23.96875 32.421875 30.609375 32.421875 
z
" id="DejaVuSans-57"/>
    </defs>
    <g transform="translate(375.22944 40.397235)scale(0.17 -0.17)">
     <use xlink:href="#DejaVuSans-98"/>
     <use x="63.476562" xlink:href="#DejaVuSans-101"/>
     <use x="125" xlink:href="#DejaVuSans-115"/>
     <use x="177.099609" xlink:href="#DejaVuSans-116"/>
     <use x="216.308594" xlink:href="#DejaVuSans-32"/>
     <use x="248.095703" xlink:href="#DejaVuSans-50"/>
     <use x="311.71875" xlink:href="#DejaVuSans-48"/>
     <use x="375.341797" xlink:href="#DejaVuSans-48"/>
     <use x="438.964844" xlink:href="#DejaVuSans-57"/>
    </g>
   </g>
   <g id="text_19">
    <!-- bbob f11, 3-D -->
    <defs>
     <path d="M 40.578125 39.3125 
Q 47.65625 37.796875 51.625 33 
Q 55.609375 28.21875 55.609375 21.1875 
Q 55.609375 10.40625 48.1875 4.484375 
Q 40.765625 -1.421875 27.09375 -1.421875 
Q 22.515625 -1.421875 17.65625 -0.515625 
Q 12.796875 0.390625 7.625 2.203125 
L 7.625 11.71875 
Q 11.71875 9.328125 16.59375 8.109375 
Q 21.484375 6.890625 26.8125 6.890625 
Q 36.078125 6.890625 40.9375 10.546875 
Q 45.796875 14.203125 45.796875 21.1875 
Q 45.796875 27.640625 41.28125 31.265625 
Q 36.765625 34.90625 28.71875 34.90625 
L 20.21875 34.90625 
L 20.21875 43.015625 
L 29.109375 43.015625 
Q 36.375 43.015625 40.234375 45.921875 
Q 44.09375 48.828125 44.09375 54.296875 
Q 44.09375 59.90625 40.109375 62.90625 
Q 36.140625 65.921875 28.71875 65.921875 
Q 24.65625 65.921875 20.015625 65.03125 
Q 15.375 64.15625 9.8125 62.3125 
L 9.8125 71.09375 
Q 15.4375 72.65625 20.34375 73.4375 
Q 25.25 74.21875 29.59375 74.21875 
Q 40.828125 74.21875 47.359375 69.109375 
Q 53.90625 64.015625 53.90625 55.328125 
Q 53.90625 49.265625 50.4375 45.09375 
Q 46.96875 40.921875 40.578125 39.3125 
z
" id="DejaVuSans-51"/>
     <path d="M 19.671875 64.796875 
L 19.671875 8.109375 
L 31.59375 8.109375 
Q 46.6875 8.109375 53.6875 14.9375 
Q 60.6875 21.78125 60.6875 36.53125 
Q 60.6875 51.171875 53.6875 57.984375 
Q 46.6875 64.796875 31.59375 64.796875 
z
M 9.8125 72.90625 
L 30.078125 72.90625 
Q 51.265625 72.90625 61.171875 64.09375 
Q 71.09375 55.28125 71.09375 36.53125 
Q 71.09375 17.671875 61.125 8.828125 
Q 51.171875 0 30.078125 0 
L 9.8125 0 
z
" id="DejaVuSans-68"/>
    </defs>
    <g transform="translate(60.41088 38.111366)scale(0.102 -0.102)">
     <use xlink:href="#DejaVuSans-98"/>
     <use x="63.476562" xlink:href="#DejaVuSans-98"/>
     <use x="126.953125" xlink:href="#DejaVuSans-111"/>
     <use x="188.134766" xlink:href="#DejaVuSans-98"/>
     <use x="251.611328" xlink:href="#DejaVuSans-32"/>
     <use x="283.398438" xlink:href="#DejaVuSans-102"/>
     <use x="318.603516" xlink:href="#DejaVuSans-49"/>
     <use x="382.226562" xlink:href="#DejaVuSans-49"/>
     <use x="445.849609" xlink:href="#DejaVuSans-44"/>
     <use x="477.636719" xlink:href="#DejaVuSans-32"/>
     <use x="509.423828" xlink:href="#DejaVuSans-51"/>
     <use x="573.046875" xlink:href="#DejaVuSans-45"/>
     <use x="609.130859" xlink:href="#DejaVuSans-68"/>
    </g>
    <!-- 51 targets: 100..1e-08 -->
    <defs>
     <path d="M 11.71875 12.40625 
L 22.015625 12.40625 
L 22.015625 0 
L 11.71875 0 
z
M 11.71875 51.703125 
L 22.015625 51.703125 
L 22.015625 39.3125 
L 11.71875 39.3125 
z
" id="DejaVuSans-58"/>
    </defs>
    <g transform="translate(60.41088 49.533135)scale(0.102 -0.102)">
     <use xlink:href="#DejaVuSans-53"/>
     <use x="63.623047" xlink:href="#DejaVuSans-49"/>
     <use x="127.246094" xlink:href="#DejaVuSans-32"/>
     <use x="159.033203" xlink:href="#DejaVuSans-116"/>
     <use x="198.242188" xlink:href="#DejaVuSans-97"/>
     <use x="259.521484" xlink:href="#DejaVuSans-114"/>
     <use x="300.619141" xlink:href="#DejaVuSans-103"/>
     <use x="364.095703" xlink:href="#DejaVuSans-101"/>
     <use x="425.619141" xlink:href="#DejaVuSans-116"/>
     <use x="464.828125" xlink:href="#DejaVuSans-115"/>
     <use x="516.927734" xlink:href="#DejaVuSans-58"/>
     <use x="550.619141" xlink:href="#DejaVuSans-32"/>
     <use x="582.40625" xlink:href="#DejaVuSans-49"/>
     <use x="646.029297" xlink:href="#DejaVuSans-48"/>
     <use x="709.652344" xlink:href="#DejaVuSans-48"/>
     <use x="773.275391" xlink:href="#DejaVuSans-46"/>
     <use x="805.0625" xlink:href="#DejaVuSans-46"/>
     <use x="836.849609" xlink:href="#DejaVuSans-49"/>
     <use x="900.472656" xlink:href="#DejaVuSans-101"/>
     <use x="961.996094" xlink:href="#DejaVuSans-45"/>
     <use x="998.080078" xlink:href="#DejaVuSans-48"/>
     <use x="1061.703125" xlink:href="#DejaVuSans-56"/>
    </g>
    <!-- 15 instances -->
    <g transform="translate(60.41088 60.954904)scale(0.102 -0.102)">
     <use xlink:href="#DejaVuSans-49"/>
     <use x="63.623047" xlink:href="#DejaVuSans-53"/>
     <use x="127.246094" xlink:href="#DejaVuSans-32"/>
     <use x="159.033203" xlink:href="#DejaVuSans-105"/>
     <use x="186.816406" xlink:href="#DejaVuSans-110"/>
     <use x="250.195312" xlink:href="#DejaVuSans-115"/>
     <use x="302.294922" xlink:href="#DejaVuSans-116"/>
     <use x="341.503906" xlink:href="#DejaVuSans-97"/>
     <use x="402.783203" xlink:href="#DejaVuSans-110"/>
     <use x="466.162109" xlink:href="#DejaVuSans-99"/>
     <use x="521.142578" xlink:href="#DejaVuSans-101"/>
     <use x="582.666016" xlink:href="#DejaVuSans-115"/>
    </g>
   </g>
   <g id="text_20">
    <!-- v2.3.3.18.73 -->
    <defs>
     <path d="M 8.203125 72.90625 
L 55.078125 72.90625 
L 55.078125 68.703125 
L 28.609375 0 
L 18.3125 0 
L 43.21875 64.59375 
L 8.203125 64.59375 
z
" id="DejaVuSans-55"/>
    </defs>
    <g style="fill:#808080;" transform="translate(166.559625 294.151352)scale(0.1 -0.1)">
     <use xlink:href="#DejaVuSans-118"/>
     <use x="59.179688" xlink:href="#DejaVuSans-50"/>
     <use x="122.802734" xlink:href="#DejaVuSans-46"/>
     <use x="154.589844" xlink:href="#DejaVuSans-51"/>
     <use x="218.212891" xlink:href="#DejaVuSans-46"/>
     <use x="250" xlink:href="#DejaVuSans-51"/>
     <use x="313.623047" xlink:href="#DejaVuSans-46"/>
     <use x="345.410156" xlink:href="#DejaVuSans-49"/>
     <use x="409.033203" xlink:href="#DejaVuSans-56"/>
     <use x="472.65625" xlink:href="#DejaVuSans-46"/>
     <use x="504.443359" xlink:href="#DejaVuSans-55"/>
     <use x="568.066406" xlink:href="#DejaVuSans-51"/>
    </g>
   </g>
   <g id="text_21">
    <!-- 11 Discus -->
    <g transform="translate(149.508062 21.648)scale(0.2 -0.2)">
     <use xlink:href="#DejaVuSans-49"/>
     <use x="63.623047" xlink:href="#DejaVuSans-49"/>
     <use x="127.246094" xlink:href="#DejaVuSans-32"/>
     <use x="159.033203" xlink:href="#DejaVuSans-68"/>
     <use x="236.035156" xlink:href="#DejaVuSans-105"/>
     <use x="263.818359" xlink:href="#DejaVuSans-115"/>
     <use x="315.917969" xlink:href="#DejaVuSans-99"/>
     <use x="370.898438" xlink:href="#DejaVuSans-117"/>
     <use x="434.277344" xlink:href="#DejaVuSans-115"/>
    </g>
   </g>
  </g>
 </g>
 <defs>
  <clipPath id="p79dc89eac8">
   <rect height="271.296" width="281.088" x="57.6" y="27.648"/>
  </clipPath>
 </defs>
</svg>
