<?xml version="1.0" encoding="utf-8" standalone="no"?>
<!DOCTYPE svg PUBLIC "-//W3C//DTD SVG 1.1//EN"
  "http://www.w3.org/Graphics/SVG/1.1/DTD/svg11.dtd">
<!-- Created with matplotlib (https://matplotlib.org/) -->
<svg height="345.6pt" version="1.1" viewBox="0 0 460.8 345.6" width="460.8pt" xmlns="http://www.w3.org/2000/svg" xmlns:xlink="http://www.w3.org/1999/xlink">
 <defs>
  <style type="text/css">
*{stroke-linecap:butt;stroke-linejoin:round;}
  </style>
 </defs>
 <g id="figure_1">
  <g id="patch_1">
   <path d="M 0 345.6 
L 460.8 345.6 
L 460.8 0 
L 0 0 
z
" style="fill:#ffffff;"/>
  </g>
  <g id="axes_1">
   <g id="patch_2">
    <path d="M 57.6 298.944 
L 338.688 298.944 
L 338.688 27.648 
L 57.6 27.648 
z
" style="fill:#ffffff;"/>
   </g>
   <g id="line2d_1">
    <path d="M 108.948899 298.944 
L 108.948899 293.677139 
L 109.040444 293.677139 
L 109.040444 288.410278 
L 109.086037 288.410278 
L 109.086037 277.876557 
L 109.131511 277.876557 
L 109.131511 272.609696 
L 109.176867 272.609696 
L 109.176867 246.275392 
L 109.222105 246.275392 
L 109.222105 219.941088 
L 109.267226 219.941088 
L 109.267226 193.606784 
L 109.31223 193.606784 
L 109.31223 188.339923 
L 109.357119 188.339923 
L 109.357119 172.539341 
L 109.401893 172.539341 
L 109.401893 135.671315 
L 109.446552 135.671315 
L 109.446552 104.07015 
L 109.491096 104.07015 
L 109.491096 77.735846 
L 109.535528 77.735846 
L 109.535528 46.134681 
L 109.624052 46.134681 
L 109.624052 40.867821 
L 110.016944 40.867821 
L 110.016944 35.60096 
L 110.358901 35.60096 
L 110.358901 30.334099 
L 338.688 30.334099 
" style="fill:none;stroke:#f5deb3;stroke-linecap:square;stroke-width:4;"/>
   </g>
   <g id="line2d_2">
    <defs>
     <path d="M -0 7.778175 
L 7.778175 0 
L 0 -7.778175 
L -7.778175 -0 
z
" id="mc947cde6db" style="stroke:#f5deb3;stroke-linejoin:miter;stroke-width:1.5;"/>
    </defs>
    <g>
     <use style="fill:#f5deb3;stroke:#f5deb3;stroke-linejoin:miter;stroke-width:1.5;" x="109.267226" xlink:href="#mc947cde6db" y="219.941088"/>
     <use style="fill:#f5deb3;stroke:#f5deb3;stroke-linejoin:miter;stroke-width:1.5;" x="109.535528" xlink:href="#mc947cde6db" y="77.735846"/>
     <use style="fill:#f5deb3;stroke:#f5deb3;stroke-linejoin:miter;stroke-width:1.5;" x="110.358901" xlink:href="#mc947cde6db" y="35.60096"/>
     <use style="fill:#f5deb3;stroke:#f5deb3;stroke-linejoin:miter;stroke-width:1.5;" x="110.358901" xlink:href="#mc947cde6db" y="30.334099"/>
     <use style="fill:#f5deb3;stroke:#f5deb3;stroke-linejoin:miter;stroke-width:1.5;" x="338.688" xlink:href="#mc947cde6db" y="30.334099"/>
    </g>
   </g>
   <g id="line2d_3">
    <path style="fill:none;stroke:#f5deb3;stroke-linecap:square;stroke-width:4;"/>
    <g/>
   </g>
   <g id="line2d_4">
    <path d="M 338.688 30.334099 
L 369.60768 35.706297 
" style="fill:none;stroke:#f5deb3;stroke-linecap:square;stroke-width:4;"/>
    <g>
     <use style="fill:#f5deb3;stroke:#f5deb3;stroke-linejoin:miter;stroke-width:1.5;" x="338.688" xlink:href="#mc947cde6db" y="30.334099"/>
     <use style="fill:#f5deb3;stroke:#f5deb3;stroke-linejoin:miter;stroke-width:1.5;" x="369.60768" xlink:href="#mc947cde6db" y="35.706297"/>
    </g>
   </g>
   <g id="matplotlib.axis_1">
    <g id="xtick_1">
     <g id="line2d_5">
      <path clip-path="url(#pe89bbb25c2)" d="M 57.6 298.944 
L 57.6 27.648 
" style="fill:none;stroke:#b0b0b0;stroke-linecap:square;stroke-width:0.8;"/>
     </g>
     <g id="line2d_6">
      <defs>
       <path d="M 0 0 
L 0 3.5 
" id="mf25807a8c8" style="stroke:#000000;stroke-width:0.8;"/>
      </defs>
      <g>
       <use style="stroke:#000000;stroke-width:0.8;" x="57.6" xlink:href="#mf25807a8c8" y="298.944"/>
      </g>
     </g>
     <g id="text_1">
      <!-- 0 -->
      <defs>
       <path d="M 31.78125 66.40625 
Q 24.171875 66.40625 20.328125 58.90625 
Q 16.5 51.421875 16.5 36.375 
Q 16.5 21.390625 20.328125 13.890625 
Q 24.171875 6.390625 31.78125 6.390625 
Q 39.453125 6.390625 43.28125 13.890625 
Q 47.125 21.390625 47.125 36.375 
Q 47.125 51.421875 43.28125 58.90625 
Q 39.453125 66.40625 31.78125 66.40625 
z
M 31.78125 74.21875 
Q 44.046875 74.21875 50.515625 64.515625 
Q 56.984375 54.828125 56.984375 36.375 
Q 56.984375 17.96875 50.515625 8.265625 
Q 44.046875 -1.421875 31.78125 -1.421875 
Q 19.53125 -1.421875 13.0625 8.265625 
Q 6.59375 17.96875 6.59375 36.375 
Q 6.59375 54.828125 13.0625 64.515625 
Q 19.53125 74.21875 31.78125 74.21875 
z
" id="DejaVuSans-48"/>
      </defs>
      <g transform="translate(51.2375 321.140875)scale(0.2 -0.2)">
       <use xlink:href="#DejaVuSans-48"/>
      </g>
     </g>
    </g>
    <g id="xtick_2">
     <g id="line2d_7">
      <path clip-path="url(#pe89bbb25c2)" d="M 137.910857 298.944 
L 137.910857 27.648 
" style="fill:none;stroke:#b0b0b0;stroke-linecap:square;stroke-width:0.8;"/>
     </g>
     <g id="line2d_8">
      <g>
       <use style="stroke:#000000;stroke-width:0.8;" x="137.910857" xlink:href="#mf25807a8c8" y="298.944"/>
      </g>
     </g>
     <g id="text_2">
      <!-- 2 -->
      <defs>
       <path d="M 19.1875 8.296875 
L 53.609375 8.296875 
L 53.609375 0 
L 7.328125 0 
L 7.328125 8.296875 
Q 12.9375 14.109375 22.625 23.890625 
Q 32.328125 33.6875 34.8125 36.53125 
Q 39.546875 41.84375 41.421875 45.53125 
Q 43.3125 49.21875 43.3125 52.78125 
Q 43.3125 58.59375 39.234375 62.25 
Q 35.15625 65.921875 28.609375 65.921875 
Q 23.96875 65.921875 18.8125 64.3125 
Q 13.671875 62.703125 7.8125 59.421875 
L 7.8125 69.390625 
Q 13.765625 71.78125 18.9375 73 
Q 24.125 74.21875 28.421875 74.21875 
Q 39.75 74.21875 46.484375 68.546875 
Q 53.21875 62.890625 53.21875 53.421875 
Q 53.21875 48.921875 51.53125 44.890625 
Q 49.859375 40.875 45.40625 35.40625 
Q 44.1875 33.984375 37.640625 27.21875 
Q 31.109375 20.453125 19.1875 8.296875 
z
" id="DejaVuSans-50"/>
      </defs>
      <g transform="translate(131.548357 321.140875)scale(0.2 -0.2)">
       <use xlink:href="#DejaVuSans-50"/>
      </g>
     </g>
    </g>
    <g id="xtick_3">
     <g id="line2d_9">
      <path clip-path="url(#pe89bbb25c2)" d="M 218.221714 298.944 
L 218.221714 27.648 
" style="fill:none;stroke:#b0b0b0;stroke-linecap:square;stroke-width:0.8;"/>
     </g>
     <g id="line2d_10">
      <g>
       <use style="stroke:#000000;stroke-width:0.8;" x="218.221714" xlink:href="#mf25807a8c8" y="298.944"/>
      </g>
     </g>
     <g id="text_3">
      <!-- 4 -->
      <defs>
       <path d="M 37.796875 64.3125 
L 12.890625 25.390625 
L 37.796875 25.390625 
z
M 35.203125 72.90625 
L 47.609375 72.90625 
L 47.609375 25.390625 
L 58.015625 25.390625 
L 58.015625 17.1875 
L 47.609375 17.1875 
L 47.609375 0 
L 37.796875 0 
L 37.796875 17.1875 
L 4.890625 17.1875 
L 4.890625 26.703125 
z
" id="DejaVuSans-52"/>
      </defs>
      <g transform="translate(211.859214 321.140875)scale(0.2 -0.2)">
       <use xlink:href="#DejaVuSans-52"/>
      </g>
     </g>
    </g>
    <g id="xtick_4">
     <g id="line2d_11">
      <path clip-path="url(#pe89bbb25c2)" d="M 298.532571 298.944 
L 298.532571 27.648 
" style="fill:none;stroke:#b0b0b0;stroke-linecap:square;stroke-width:0.8;"/>
     </g>
     <g id="line2d_12">
      <g>
       <use style="stroke:#000000;stroke-width:0.8;" x="298.532571" xlink:href="#mf25807a8c8" y="298.944"/>
      </g>
     </g>
     <g id="text_4">
      <!-- 6 -->
      <defs>
       <path d="M 33.015625 40.375 
Q 26.375 40.375 22.484375 35.828125 
Q 18.609375 31.296875 18.609375 23.390625 
Q 18.609375 15.53125 22.484375 10.953125 
Q 26.375 6.390625 33.015625 6.390625 
Q 39.65625 6.390625 43.53125 10.953125 
Q 47.40625 15.53125 47.40625 23.390625 
Q 47.40625 31.296875 43.53125 35.828125 
Q 39.65625 40.375 33.015625 40.375 
z
M 52.59375 71.296875 
L 52.59375 62.3125 
Q 48.875 64.0625 45.09375 64.984375 
Q 41.3125 65.921875 37.59375 65.921875 
Q 27.828125 65.921875 22.671875 59.328125 
Q 17.53125 52.734375 16.796875 39.40625 
Q 19.671875 43.65625 24.015625 45.921875 
Q 28.375 48.1875 33.59375 48.1875 
Q 44.578125 48.1875 50.953125 41.515625 
Q 57.328125 34.859375 57.328125 23.390625 
Q 57.328125 12.15625 50.6875 5.359375 
Q 44.046875 -1.421875 33.015625 -1.421875 
Q 20.359375 -1.421875 13.671875 8.265625 
Q 6.984375 17.96875 6.984375 36.375 
Q 6.984375 53.65625 15.1875 63.9375 
Q 23.390625 74.21875 37.203125 74.21875 
Q 40.921875 74.21875 44.703125 73.484375 
Q 48.484375 72.75 52.59375 71.296875 
z
" id="DejaVuSans-54"/>
      </defs>
      <g transform="translate(292.170071 321.140875)scale(0.2 -0.2)">
       <use xlink:href="#DejaVuSans-54"/>
      </g>
     </g>
    </g>
    <g id="xtick_5">
     <g id="line2d_13">
      <path clip-path="url(#pe89bbb25c2)" d="M 97.755429 298.944 
L 97.755429 27.648 
" style="fill:none;stroke:#b0b0b0;stroke-linecap:square;stroke-width:0.8;"/>
     </g>
     <g id="line2d_14">
      <defs>
       <path d="M 0 0 
L 0 2 
" id="m1eced40c67" style="stroke:#000000;stroke-width:0.6;"/>
      </defs>
      <g>
       <use style="stroke:#000000;stroke-width:0.6;" x="97.755429" xlink:href="#m1eced40c67" y="298.944"/>
      </g>
     </g>
    </g>
    <g id="xtick_6">
     <g id="line2d_15">
      <path clip-path="url(#pe89bbb25c2)" d="M 178.066286 298.944 
L 178.066286 27.648 
" style="fill:none;stroke:#b0b0b0;stroke-linecap:square;stroke-width:0.8;"/>
     </g>
     <g id="line2d_16">
      <g>
       <use style="stroke:#000000;stroke-width:0.6;" x="178.066286" xlink:href="#m1eced40c67" y="298.944"/>
      </g>
     </g>
    </g>
    <g id="xtick_7">
     <g id="line2d_17">
      <path clip-path="url(#pe89bbb25c2)" d="M 258.377143 298.944 
L 258.377143 27.648 
" style="fill:none;stroke:#b0b0b0;stroke-linecap:square;stroke-width:0.8;"/>
     </g>
     <g id="line2d_18">
      <g>
       <use style="stroke:#000000;stroke-width:0.6;" x="258.377143" xlink:href="#m1eced40c67" y="298.944"/>
      </g>
     </g>
    </g>
    <g id="xtick_8">
     <g id="line2d_19">
      <path clip-path="url(#pe89bbb25c2)" d="M 338.688 298.944 
L 338.688 27.648 
" style="fill:none;stroke:#b0b0b0;stroke-linecap:square;stroke-width:0.8;"/>
     </g>
     <g id="line2d_20">
      <g>
       <use style="stroke:#000000;stroke-width:0.6;" x="338.688" xlink:href="#m1eced40c67" y="298.944"/>
      </g>
     </g>
    </g>
    <g id="text_5">
     <!-- log10(# f-evals / dimension) -->
     <defs>
      <path d="M 9.421875 75.984375 
L 18.40625 75.984375 
L 18.40625 0 
L 9.421875 0 
z
" id="DejaVuSans-108"/>
      <path d="M 30.609375 48.390625 
Q 23.390625 48.390625 19.1875 42.75 
Q 14.984375 37.109375 14.984375 27.296875 
Q 14.984375 17.484375 19.15625 11.84375 
Q 23.34375 6.203125 30.609375 6.203125 
Q 37.796875 6.203125 41.984375 11.859375 
Q 46.1875 17.53125 46.1875 27.296875 
Q 46.1875 37.015625 41.984375 42.703125 
Q 37.796875 48.390625 30.609375 48.390625 
z
M 30.609375 56 
Q 42.328125 56 49.015625 48.375 
Q 55.71875 40.765625 55.71875 27.296875 
Q 55.71875 13.875 49.015625 6.21875 
Q 42.328125 -1.421875 30.609375 -1.421875 
Q 18.84375 -1.421875 12.171875 6.21875 
Q 5.515625 13.875 5.515625 27.296875 
Q 5.515625 40.765625 12.171875 48.375 
Q 18.84375 56 30.609375 56 
z
" id="DejaVuSans-111"/>
      <path d="M 45.40625 27.984375 
Q 45.40625 37.75 41.375 43.109375 
Q 37.359375 48.484375 30.078125 48.484375 
Q 22.859375 48.484375 18.828125 43.109375 
Q 14.796875 37.75 14.796875 27.984375 
Q 14.796875 18.265625 18.828125 12.890625 
Q 22.859375 7.515625 30.078125 7.515625 
Q 37.359375 7.515625 41.375 12.890625 
Q 45.40625 18.265625 45.40625 27.984375 
z
M 54.390625 6.78125 
Q 54.390625 -7.171875 48.1875 -13.984375 
Q 42 -20.796875 29.203125 -20.796875 
Q 24.46875 -20.796875 20.265625 -20.09375 
Q 16.0625 -19.390625 12.109375 -17.921875 
L 12.109375 -9.1875 
Q 16.0625 -11.328125 19.921875 -12.34375 
Q 23.78125 -13.375 27.78125 -13.375 
Q 36.625 -13.375 41.015625 -8.765625 
Q 45.40625 -4.15625 45.40625 5.171875 
L 45.40625 9.625 
Q 42.625 4.78125 38.28125 2.390625 
Q 33.9375 0 27.875 0 
Q 17.828125 0 11.671875 7.65625 
Q 5.515625 15.328125 5.515625 27.984375 
Q 5.515625 40.671875 11.671875 48.328125 
Q 17.828125 56 27.875 56 
Q 33.9375 56 38.28125 53.609375 
Q 42.625 51.21875 45.40625 46.390625 
L 45.40625 54.6875 
L 54.390625 54.6875 
z
" id="DejaVuSans-103"/>
      <path d="M 12.40625 8.296875 
L 28.515625 8.296875 
L 28.515625 63.921875 
L 10.984375 60.40625 
L 10.984375 69.390625 
L 28.421875 72.90625 
L 38.28125 72.90625 
L 38.28125 8.296875 
L 54.390625 8.296875 
L 54.390625 0 
L 12.40625 0 
z
" id="DejaVuSans-49"/>
      <path d="M 31 75.875 
Q 24.46875 64.65625 21.28125 53.65625 
Q 18.109375 42.671875 18.109375 31.390625 
Q 18.109375 20.125 21.3125 9.0625 
Q 24.515625 -2 31 -13.1875 
L 23.1875 -13.1875 
Q 15.875 -1.703125 12.234375 9.375 
Q 8.59375 20.453125 8.59375 31.390625 
Q 8.59375 42.28125 12.203125 53.3125 
Q 15.828125 64.359375 23.1875 75.875 
z
" id="DejaVuSans-40"/>
      <path d="M 51.125 44 
L 36.921875 44 
L 32.8125 27.6875 
L 47.125 27.6875 
z
M 43.796875 71.78125 
L 38.71875 51.515625 
L 52.984375 51.515625 
L 58.109375 71.78125 
L 65.921875 71.78125 
L 60.890625 51.515625 
L 76.125 51.515625 
L 76.125 44 
L 58.984375 44 
L 54.984375 27.6875 
L 70.515625 27.6875 
L 70.515625 20.21875 
L 53.078125 20.21875 
L 48 0 
L 40.1875 0 
L 45.21875 20.21875 
L 30.90625 20.21875 
L 25.875 0 
L 18.015625 0 
L 23.09375 20.21875 
L 7.71875 20.21875 
L 7.71875 27.6875 
L 24.90625 27.6875 
L 29 44 
L 13.28125 44 
L 13.28125 51.515625 
L 30.90625 51.515625 
L 35.890625 71.78125 
z
" id="DejaVuSans-35"/>
      <path id="DejaVuSans-32"/>
      <path d="M 37.109375 75.984375 
L 37.109375 68.5 
L 28.515625 68.5 
Q 23.6875 68.5 21.796875 66.546875 
Q 19.921875 64.59375 19.921875 59.515625 
L 19.921875 54.6875 
L 34.71875 54.6875 
L 34.71875 47.703125 
L 19.921875 47.703125 
L 19.921875 0 
L 10.890625 0 
L 10.890625 47.703125 
L 2.296875 47.703125 
L 2.296875 54.6875 
L 10.890625 54.6875 
L 10.890625 58.5 
Q 10.890625 67.625 15.140625 71.796875 
Q 19.390625 75.984375 28.609375 75.984375 
z
" id="DejaVuSans-102"/>
      <path d="M 4.890625 31.390625 
L 31.203125 31.390625 
L 31.203125 23.390625 
L 4.890625 23.390625 
z
" id="DejaVuSans-45"/>
      <path d="M 56.203125 29.59375 
L 56.203125 25.203125 
L 14.890625 25.203125 
Q 15.484375 15.921875 20.484375 11.0625 
Q 25.484375 6.203125 34.421875 6.203125 
Q 39.59375 6.203125 44.453125 7.46875 
Q 49.3125 8.734375 54.109375 11.28125 
L 54.109375 2.78125 
Q 49.265625 0.734375 44.1875 -0.34375 
Q 39.109375 -1.421875 33.890625 -1.421875 
Q 20.796875 -1.421875 13.15625 6.1875 
Q 5.515625 13.8125 5.515625 26.8125 
Q 5.515625 40.234375 12.765625 48.109375 
Q 20.015625 56 32.328125 56 
Q 43.359375 56 49.78125 48.890625 
Q 56.203125 41.796875 56.203125 29.59375 
z
M 47.21875 32.234375 
Q 47.125 39.59375 43.09375 43.984375 
Q 39.0625 48.390625 32.421875 48.390625 
Q 24.90625 48.390625 20.390625 44.140625 
Q 15.875 39.890625 15.1875 32.171875 
z
" id="DejaVuSans-101"/>
      <path d="M 2.984375 54.6875 
L 12.5 54.6875 
L 29.59375 8.796875 
L 46.6875 54.6875 
L 56.203125 54.6875 
L 35.6875 0 
L 23.484375 0 
z
" id="DejaVuSans-118"/>
      <path d="M 34.28125 27.484375 
Q 23.390625 27.484375 19.1875 25 
Q 14.984375 22.515625 14.984375 16.5 
Q 14.984375 11.71875 18.140625 8.90625 
Q 21.296875 6.109375 26.703125 6.109375 
Q 34.1875 6.109375 38.703125 11.40625 
Q 43.21875 16.703125 43.21875 25.484375 
L 43.21875 27.484375 
z
M 52.203125 31.203125 
L 52.203125 0 
L 43.21875 0 
L 43.21875 8.296875 
Q 40.140625 3.328125 35.546875 0.953125 
Q 30.953125 -1.421875 24.3125 -1.421875 
Q 15.921875 -1.421875 10.953125 3.296875 
Q 6 8.015625 6 15.921875 
Q 6 25.140625 12.171875 29.828125 
Q 18.359375 34.515625 30.609375 34.515625 
L 43.21875 34.515625 
L 43.21875 35.40625 
Q 43.21875 41.609375 39.140625 45 
Q 35.0625 48.390625 27.6875 48.390625 
Q 23 48.390625 18.546875 47.265625 
Q 14.109375 46.140625 10.015625 43.890625 
L 10.015625 52.203125 
Q 14.9375 54.109375 19.578125 55.046875 
Q 24.21875 56 28.609375 56 
Q 40.484375 56 46.34375 49.84375 
Q 52.203125 43.703125 52.203125 31.203125 
z
" id="DejaVuSans-97"/>
      <path d="M 44.28125 53.078125 
L 44.28125 44.578125 
Q 40.484375 46.53125 36.375 47.5 
Q 32.28125 48.484375 27.875 48.484375 
Q 21.1875 48.484375 17.84375 46.4375 
Q 14.5 44.390625 14.5 40.28125 
Q 14.5 37.15625 16.890625 35.375 
Q 19.28125 33.59375 26.515625 31.984375 
L 29.59375 31.296875 
Q 39.15625 29.25 43.1875 25.515625 
Q 47.21875 21.78125 47.21875 15.09375 
Q 47.21875 7.46875 41.1875 3.015625 
Q 35.15625 -1.421875 24.609375 -1.421875 
Q 20.21875 -1.421875 15.453125 -0.5625 
Q 10.6875 0.296875 5.421875 2 
L 5.421875 11.28125 
Q 10.40625 8.6875 15.234375 7.390625 
Q 20.0625 6.109375 24.8125 6.109375 
Q 31.15625 6.109375 34.5625 8.28125 
Q 37.984375 10.453125 37.984375 14.40625 
Q 37.984375 18.0625 35.515625 20.015625 
Q 33.0625 21.96875 24.703125 23.78125 
L 21.578125 24.515625 
Q 13.234375 26.265625 9.515625 29.90625 
Q 5.8125 33.546875 5.8125 39.890625 
Q 5.8125 47.609375 11.28125 51.796875 
Q 16.75 56 26.8125 56 
Q 31.78125 56 36.171875 55.265625 
Q 40.578125 54.546875 44.28125 53.078125 
z
" id="DejaVuSans-115"/>
      <path d="M 25.390625 72.90625 
L 33.6875 72.90625 
L 8.296875 -9.28125 
L 0 -9.28125 
z
" id="DejaVuSans-47"/>
      <path d="M 45.40625 46.390625 
L 45.40625 75.984375 
L 54.390625 75.984375 
L 54.390625 0 
L 45.40625 0 
L 45.40625 8.203125 
Q 42.578125 3.328125 38.25 0.953125 
Q 33.9375 -1.421875 27.875 -1.421875 
Q 17.96875 -1.421875 11.734375 6.484375 
Q 5.515625 14.40625 5.515625 27.296875 
Q 5.515625 40.1875 11.734375 48.09375 
Q 17.96875 56 27.875 56 
Q 33.9375 56 38.25 53.625 
Q 42.578125 51.265625 45.40625 46.390625 
z
M 14.796875 27.296875 
Q 14.796875 17.390625 18.875 11.75 
Q 22.953125 6.109375 30.078125 6.109375 
Q 37.203125 6.109375 41.296875 11.75 
Q 45.40625 17.390625 45.40625 27.296875 
Q 45.40625 37.203125 41.296875 42.84375 
Q 37.203125 48.484375 30.078125 48.484375 
Q 22.953125 48.484375 18.875 42.84375 
Q 14.796875 37.203125 14.796875 27.296875 
z
" id="DejaVuSans-100"/>
      <path d="M 9.421875 54.6875 
L 18.40625 54.6875 
L 18.40625 0 
L 9.421875 0 
z
M 9.421875 75.984375 
L 18.40625 75.984375 
L 18.40625 64.59375 
L 9.421875 64.59375 
z
" id="DejaVuSans-105"/>
      <path d="M 52 44.1875 
Q 55.375 50.25 60.0625 53.125 
Q 64.75 56 71.09375 56 
Q 79.640625 56 84.28125 50.015625 
Q 88.921875 44.046875 88.921875 33.015625 
L 88.921875 0 
L 79.890625 0 
L 79.890625 32.71875 
Q 79.890625 40.578125 77.09375 44.375 
Q 74.3125 48.1875 68.609375 48.1875 
Q 61.625 48.1875 57.5625 43.546875 
Q 53.515625 38.921875 53.515625 30.90625 
L 53.515625 0 
L 44.484375 0 
L 44.484375 32.71875 
Q 44.484375 40.625 41.703125 44.40625 
Q 38.921875 48.1875 33.109375 48.1875 
Q 26.21875 48.1875 22.15625 43.53125 
Q 18.109375 38.875 18.109375 30.90625 
L 18.109375 0 
L 9.078125 0 
L 9.078125 54.6875 
L 18.109375 54.6875 
L 18.109375 46.1875 
Q 21.1875 51.21875 25.484375 53.609375 
Q 29.78125 56 35.6875 56 
Q 41.65625 56 45.828125 52.96875 
Q 50 49.953125 52 44.1875 
z
" id="DejaVuSans-109"/>
      <path d="M 54.890625 33.015625 
L 54.890625 0 
L 45.90625 0 
L 45.90625 32.71875 
Q 45.90625 40.484375 42.875 44.328125 
Q 39.84375 48.1875 33.796875 48.1875 
Q 26.515625 48.1875 22.3125 43.546875 
Q 18.109375 38.921875 18.109375 30.90625 
L 18.109375 0 
L 9.078125 0 
L 9.078125 54.6875 
L 18.109375 54.6875 
L 18.109375 46.1875 
Q 21.34375 51.125 25.703125 53.5625 
Q 30.078125 56 35.796875 56 
Q 45.21875 56 50.046875 50.171875 
Q 54.890625 44.34375 54.890625 33.015625 
z
" id="DejaVuSans-110"/>
      <path d="M 8.015625 75.875 
L 15.828125 75.875 
Q 23.140625 64.359375 26.78125 53.3125 
Q 30.421875 42.28125 30.421875 31.390625 
Q 30.421875 20.453125 26.78125 9.375 
Q 23.140625 -1.703125 15.828125 -13.1875 
L 8.015625 -13.1875 
Q 14.5 -2 17.703125 9.0625 
Q 20.90625 20.125 20.90625 31.390625 
Q 20.90625 42.671875 17.703125 53.65625 
Q 14.5 64.65625 8.015625 75.875 
z
" id="DejaVuSans-41"/>
     </defs>
     <g transform="translate(77.303219 342.217594)scale(0.17 -0.17)">
      <use xlink:href="#DejaVuSans-108"/>
      <use x="27.783203" xlink:href="#DejaVuSans-111"/>
      <use x="88.964844" xlink:href="#DejaVuSans-103"/>
      <use x="152.441406" xlink:href="#DejaVuSans-49"/>
      <use x="216.064453" xlink:href="#DejaVuSans-48"/>
      <use x="279.6875" xlink:href="#DejaVuSans-40"/>
      <use x="318.701172" xlink:href="#DejaVuSans-35"/>
      <use x="402.490234" xlink:href="#DejaVuSans-32"/>
      <use x="434.277344" xlink:href="#DejaVuSans-102"/>
      <use x="469.404297" xlink:href="#DejaVuSans-45"/>
      <use x="505.488281" xlink:href="#DejaVuSans-101"/>
      <use x="567.011719" xlink:href="#DejaVuSans-118"/>
      <use x="626.191406" xlink:href="#DejaVuSans-97"/>
      <use x="687.470703" xlink:href="#DejaVuSans-108"/>
      <use x="715.253906" xlink:href="#DejaVuSans-115"/>
      <use x="767.353516" xlink:href="#DejaVuSans-32"/>
      <use x="799.140625" xlink:href="#DejaVuSans-47"/>
      <use x="832.832031" xlink:href="#DejaVuSans-32"/>
      <use x="864.619141" xlink:href="#DejaVuSans-100"/>
      <use x="928.095703" xlink:href="#DejaVuSans-105"/>
      <use x="955.878906" xlink:href="#DejaVuSans-109"/>
      <use x="1053.291016" xlink:href="#DejaVuSans-101"/>
      <use x="1114.814453" xlink:href="#DejaVuSans-110"/>
      <use x="1178.193359" xlink:href="#DejaVuSans-115"/>
      <use x="1230.292969" xlink:href="#DejaVuSans-105"/>
      <use x="1258.076172" xlink:href="#DejaVuSans-111"/>
      <use x="1319.257812" xlink:href="#DejaVuSans-110"/>
      <use x="1382.636719" xlink:href="#DejaVuSans-41"/>
     </g>
    </g>
   </g>
   <g id="matplotlib.axis_2">
    <g id="ytick_1">
     <g id="line2d_21">
      <path clip-path="url(#pe89bbb25c2)" d="M 57.6 298.944 
L 338.688 298.944 
" style="fill:none;stroke:#b0b0b0;stroke-linecap:square;stroke-width:0.8;"/>
     </g>
     <g id="line2d_22">
      <defs>
       <path d="M 0 0 
L -3.5 0 
" id="m0c9bbaf02f" style="stroke:#000000;stroke-width:0.8;"/>
      </defs>
      <g>
       <use style="stroke:#000000;stroke-width:0.8;" x="57.6" xlink:href="#m0c9bbaf02f" y="298.944"/>
      </g>
     </g>
     <g id="text_6">
      <!-- 0.0 -->
      <defs>
       <path d="M 10.6875 12.40625 
L 21 12.40625 
L 21 0 
L 10.6875 0 
z
" id="DejaVuSans-46"/>
      </defs>
      <g transform="translate(25.155 305.02275)scale(0.16 -0.16)">
       <use xlink:href="#DejaVuSans-48"/>
       <use x="63.623047" xlink:href="#DejaVuSans-46"/>
       <use x="95.410156" xlink:href="#DejaVuSans-48"/>
      </g>
     </g>
    </g>
    <g id="ytick_2">
     <g id="line2d_23">
      <path clip-path="url(#pe89bbb25c2)" d="M 57.6 245.22202 
L 338.688 245.22202 
" style="fill:none;stroke:#b0b0b0;stroke-linecap:square;stroke-width:0.8;"/>
     </g>
     <g id="line2d_24">
      <g>
       <use style="stroke:#000000;stroke-width:0.8;" x="57.6" xlink:href="#m0c9bbaf02f" y="245.22202"/>
      </g>
     </g>
     <g id="text_7">
      <!-- 0.2 -->
      <g transform="translate(25.155 251.30077)scale(0.16 -0.16)">
       <use xlink:href="#DejaVuSans-48"/>
       <use x="63.623047" xlink:href="#DejaVuSans-46"/>
       <use x="95.410156" xlink:href="#DejaVuSans-50"/>
      </g>
     </g>
    </g>
    <g id="ytick_3">
     <g id="line2d_25">
      <path clip-path="url(#pe89bbb25c2)" d="M 57.6 191.50004 
L 338.688 191.50004 
" style="fill:none;stroke:#b0b0b0;stroke-linecap:square;stroke-width:0.8;"/>
     </g>
     <g id="line2d_26">
      <g>
       <use style="stroke:#000000;stroke-width:0.8;" x="57.6" xlink:href="#m0c9bbaf02f" y="191.50004"/>
      </g>
     </g>
     <g id="text_8">
      <!-- 0.4 -->
      <g transform="translate(25.155 197.57879)scale(0.16 -0.16)">
       <use xlink:href="#DejaVuSans-48"/>
       <use x="63.623047" xlink:href="#DejaVuSans-46"/>
       <use x="95.410156" xlink:href="#DejaVuSans-52"/>
      </g>
     </g>
    </g>
    <g id="ytick_4">
     <g id="line2d_27">
      <path clip-path="url(#pe89bbb25c2)" d="M 57.6 137.778059 
L 338.688 137.778059 
" style="fill:none;stroke:#b0b0b0;stroke-linecap:square;stroke-width:0.8;"/>
     </g>
     <g id="line2d_28">
      <g>
       <use style="stroke:#000000;stroke-width:0.8;" x="57.6" xlink:href="#m0c9bbaf02f" y="137.778059"/>
      </g>
     </g>
     <g id="text_9">
      <!-- 0.6 -->
      <g transform="translate(25.155 143.856809)scale(0.16 -0.16)">
       <use xlink:href="#DejaVuSans-48"/>
       <use x="63.623047" xlink:href="#DejaVuSans-46"/>
       <use x="95.410156" xlink:href="#DejaVuSans-54"/>
      </g>
     </g>
    </g>
    <g id="ytick_5">
     <g id="line2d_29">
      <path clip-path="url(#pe89bbb25c2)" d="M 57.6 84.056079 
L 338.688 84.056079 
" style="fill:none;stroke:#b0b0b0;stroke-linecap:square;stroke-width:0.8;"/>
     </g>
     <g id="line2d_30">
      <g>
       <use style="stroke:#000000;stroke-width:0.8;" x="57.6" xlink:href="#m0c9bbaf02f" y="84.056079"/>
      </g>
     </g>
     <g id="text_10">
      <!-- 0.8 -->
      <defs>
       <path d="M 31.78125 34.625 
Q 24.75 34.625 20.71875 30.859375 
Q 16.703125 27.09375 16.703125 20.515625 
Q 16.703125 13.921875 20.71875 10.15625 
Q 24.75 6.390625 31.78125 6.390625 
Q 38.8125 6.390625 42.859375 10.171875 
Q 46.921875 13.96875 46.921875 20.515625 
Q 46.921875 27.09375 42.890625 30.859375 
Q 38.875 34.625 31.78125 34.625 
z
M 21.921875 38.8125 
Q 15.578125 40.375 12.03125 44.71875 
Q 8.5 49.078125 8.5 55.328125 
Q 8.5 64.0625 14.71875 69.140625 
Q 20.953125 74.21875 31.78125 74.21875 
Q 42.671875 74.21875 48.875 69.140625 
Q 55.078125 64.0625 55.078125 55.328125 
Q 55.078125 49.078125 51.53125 44.71875 
Q 48 40.375 41.703125 38.8125 
Q 48.828125 37.15625 52.796875 32.3125 
Q 56.78125 27.484375 56.78125 20.515625 
Q 56.78125 9.90625 50.3125 4.234375 
Q 43.84375 -1.421875 31.78125 -1.421875 
Q 19.734375 -1.421875 13.25 4.234375 
Q 6.78125 9.90625 6.78125 20.515625 
Q 6.78125 27.484375 10.78125 32.3125 
Q 14.796875 37.15625 21.921875 38.8125 
z
M 18.3125 54.390625 
Q 18.3125 48.734375 21.84375 45.5625 
Q 25.390625 42.390625 31.78125 42.390625 
Q 38.140625 42.390625 41.71875 45.5625 
Q 45.3125 48.734375 45.3125 54.390625 
Q 45.3125 60.0625 41.71875 63.234375 
Q 38.140625 66.40625 31.78125 66.40625 
Q 25.390625 66.40625 21.84375 63.234375 
Q 18.3125 60.0625 18.3125 54.390625 
z
" id="DejaVuSans-56"/>
      </defs>
      <g transform="translate(25.155 90.134829)scale(0.16 -0.16)">
       <use xlink:href="#DejaVuSans-48"/>
       <use x="63.623047" xlink:href="#DejaVuSans-46"/>
       <use x="95.410156" xlink:href="#DejaVuSans-56"/>
      </g>
     </g>
    </g>
    <g id="ytick_6">
     <g id="line2d_31">
      <path clip-path="url(#pe89bbb25c2)" d="M 57.6 30.334099 
L 338.688 30.334099 
" style="fill:none;stroke:#b0b0b0;stroke-linecap:square;stroke-width:0.8;"/>
     </g>
     <g id="line2d_32">
      <g>
       <use style="stroke:#000000;stroke-width:0.8;" x="57.6" xlink:href="#m0c9bbaf02f" y="30.334099"/>
      </g>
     </g>
     <g id="text_11">
      <!-- 1.0 -->
      <g transform="translate(25.155 36.412849)scale(0.16 -0.16)">
       <use xlink:href="#DejaVuSans-49"/>
       <use x="63.623047" xlink:href="#DejaVuSans-46"/>
       <use x="95.410156" xlink:href="#DejaVuSans-48"/>
      </g>
     </g>
    </g>
    <g id="text_12">
     <!-- Fraction of function,target pairs -->
     <defs>
      <path d="M 9.8125 72.90625 
L 51.703125 72.90625 
L 51.703125 64.59375 
L 19.671875 64.59375 
L 19.671875 43.109375 
L 48.578125 43.109375 
L 48.578125 34.8125 
L 19.671875 34.8125 
L 19.671875 0 
L 9.8125 0 
z
" id="DejaVuSans-70"/>
      <path d="M 41.109375 46.296875 
Q 39.59375 47.171875 37.8125 47.578125 
Q 36.03125 48 33.890625 48 
Q 26.265625 48 22.1875 43.046875 
Q 18.109375 38.09375 18.109375 28.8125 
L 18.109375 0 
L 9.078125 0 
L 9.078125 54.6875 
L 18.109375 54.6875 
L 18.109375 46.1875 
Q 20.953125 51.171875 25.484375 53.578125 
Q 30.03125 56 36.53125 56 
Q 37.453125 56 38.578125 55.875 
Q 39.703125 55.765625 41.0625 55.515625 
z
" id="DejaVuSans-114"/>
      <path d="M 48.78125 52.59375 
L 48.78125 44.1875 
Q 44.96875 46.296875 41.140625 47.34375 
Q 37.3125 48.390625 33.40625 48.390625 
Q 24.65625 48.390625 19.8125 42.84375 
Q 14.984375 37.3125 14.984375 27.296875 
Q 14.984375 17.28125 19.8125 11.734375 
Q 24.65625 6.203125 33.40625 6.203125 
Q 37.3125 6.203125 41.140625 7.25 
Q 44.96875 8.296875 48.78125 10.40625 
L 48.78125 2.09375 
Q 45.015625 0.34375 40.984375 -0.53125 
Q 36.96875 -1.421875 32.421875 -1.421875 
Q 20.0625 -1.421875 12.78125 6.34375 
Q 5.515625 14.109375 5.515625 27.296875 
Q 5.515625 40.671875 12.859375 48.328125 
Q 20.21875 56 33.015625 56 
Q 37.15625 56 41.109375 55.140625 
Q 45.0625 54.296875 48.78125 52.59375 
z
" id="DejaVuSans-99"/>
      <path d="M 18.3125 70.21875 
L 18.3125 54.6875 
L 36.8125 54.6875 
L 36.8125 47.703125 
L 18.3125 47.703125 
L 18.3125 18.015625 
Q 18.3125 11.328125 20.140625 9.421875 
Q 21.96875 7.515625 27.59375 7.515625 
L 36.8125 7.515625 
L 36.8125 0 
L 27.59375 0 
Q 17.1875 0 13.234375 3.875 
Q 9.28125 7.765625 9.28125 18.015625 
L 9.28125 47.703125 
L 2.6875 47.703125 
L 2.6875 54.6875 
L 9.28125 54.6875 
L 9.28125 70.21875 
z
" id="DejaVuSans-116"/>
      <path d="M 8.5 21.578125 
L 8.5 54.6875 
L 17.484375 54.6875 
L 17.484375 21.921875 
Q 17.484375 14.15625 20.5 10.265625 
Q 23.53125 6.390625 29.59375 6.390625 
Q 36.859375 6.390625 41.078125 11.03125 
Q 45.3125 15.671875 45.3125 23.6875 
L 45.3125 54.6875 
L 54.296875 54.6875 
L 54.296875 0 
L 45.3125 0 
L 45.3125 8.40625 
Q 42.046875 3.421875 37.71875 1 
Q 33.40625 -1.421875 27.6875 -1.421875 
Q 18.265625 -1.421875 13.375 4.4375 
Q 8.5 10.296875 8.5 21.578125 
z
M 31.109375 56 
z
" id="DejaVuSans-117"/>
      <path d="M 11.71875 12.40625 
L 22.015625 12.40625 
L 22.015625 4 
L 14.015625 -11.625 
L 7.71875 -11.625 
L 11.71875 4 
z
" id="DejaVuSans-44"/>
      <path d="M 18.109375 8.203125 
L 18.109375 -20.796875 
L 9.078125 -20.796875 
L 9.078125 54.6875 
L 18.109375 54.6875 
L 18.109375 46.390625 
Q 20.953125 51.265625 25.265625 53.625 
Q 29.59375 56 35.59375 56 
Q 45.5625 56 51.78125 48.09375 
Q 58.015625 40.1875 58.015625 27.296875 
Q 58.015625 14.40625 51.78125 6.484375 
Q 45.5625 -1.421875 35.59375 -1.421875 
Q 29.59375 -1.421875 25.265625 0.953125 
Q 20.953125 3.328125 18.109375 8.203125 
z
M 48.6875 27.296875 
Q 48.6875 37.203125 44.609375 42.84375 
Q 40.53125 48.484375 33.40625 48.484375 
Q 26.265625 48.484375 22.1875 42.84375 
Q 18.109375 37.203125 18.109375 27.296875 
Q 18.109375 17.390625 22.1875 11.75 
Q 26.265625 6.109375 33.40625 6.109375 
Q 40.53125 6.109375 44.609375 11.75 
Q 48.6875 17.390625 48.6875 27.296875 
z
" id="DejaVuSans-112"/>
     </defs>
     <g transform="translate(17.619531 298.435375)rotate(-90)scale(0.17 -0.17)">
      <use xlink:href="#DejaVuSans-70"/>
      <use x="57.410156" xlink:href="#DejaVuSans-114"/>
      <use x="98.523438" xlink:href="#DejaVuSans-97"/>
      <use x="159.802734" xlink:href="#DejaVuSans-99"/>
      <use x="214.783203" xlink:href="#DejaVuSans-116"/>
      <use x="253.992188" xlink:href="#DejaVuSans-105"/>
      <use x="281.775391" xlink:href="#DejaVuSans-111"/>
      <use x="342.957031" xlink:href="#DejaVuSans-110"/>
      <use x="406.335938" xlink:href="#DejaVuSans-32"/>
      <use x="438.123047" xlink:href="#DejaVuSans-111"/>
      <use x="499.304688" xlink:href="#DejaVuSans-102"/>
      <use x="534.509766" xlink:href="#DejaVuSans-32"/>
      <use x="566.296875" xlink:href="#DejaVuSans-102"/>
      <use x="601.501953" xlink:href="#DejaVuSans-117"/>
      <use x="664.880859" xlink:href="#DejaVuSans-110"/>
      <use x="728.259766" xlink:href="#DejaVuSans-99"/>
      <use x="783.240234" xlink:href="#DejaVuSans-116"/>
      <use x="822.449219" xlink:href="#DejaVuSans-105"/>
      <use x="850.232422" xlink:href="#DejaVuSans-111"/>
      <use x="911.414062" xlink:href="#DejaVuSans-110"/>
      <use x="974.792969" xlink:href="#DejaVuSans-44"/>
      <use x="1006.580078" xlink:href="#DejaVuSans-116"/>
      <use x="1045.789062" xlink:href="#DejaVuSans-97"/>
      <use x="1107.068359" xlink:href="#DejaVuSans-114"/>
      <use x="1148.166016" xlink:href="#DejaVuSans-103"/>
      <use x="1211.642578" xlink:href="#DejaVuSans-101"/>
      <use x="1273.166016" xlink:href="#DejaVuSans-116"/>
      <use x="1312.375" xlink:href="#DejaVuSans-32"/>
      <use x="1344.162109" xlink:href="#DejaVuSans-112"/>
      <use x="1407.638672" xlink:href="#DejaVuSans-97"/>
      <use x="1468.917969" xlink:href="#DejaVuSans-105"/>
      <use x="1496.701172" xlink:href="#DejaVuSans-114"/>
      <use x="1537.814453" xlink:href="#DejaVuSans-115"/>
     </g>
    </g>
   </g>
   <g id="line2d_33">
    <defs>
     <path d="M 0 1.5 
C 0.397805 1.5 0.77937 1.341951 1.06066 1.06066 
C 1.341951 0.77937 1.5 0.397805 1.5 0 
C 1.5 -0.397805 1.341951 -0.77937 1.06066 -1.06066 
C 0.77937 -1.341951 0.397805 -1.5 0 -1.5 
C -0.397805 -1.5 -0.77937 -1.341951 -1.06066 -1.06066 
C -1.341951 -0.77937 -1.5 -0.397805 -1.5 0 
C -1.5 0.397805 -1.341951 0.77937 -1.06066 1.06066 
C -0.77937 1.341951 -0.397805 1.5 0 1.5 
z
" id="mf40bf635bf" style="stroke:#f5deb3;"/>
    </defs>
    <g>
     <use style="fill:#f5deb3;stroke:#f5deb3;" x="110.358901" xlink:href="#mf40bf635bf" y="30.334099"/>
     <use style="fill:#f5deb3;stroke:#f5deb3;" x="110.358901" xlink:href="#mf40bf635bf" y="30.334099"/>
    </g>
   </g>
   <g id="line2d_34">
    <defs>
     <path d="M 0 1.5 
C 0.397805 1.5 0.77937 1.341951 1.06066 1.06066 
C 1.341951 0.77937 1.5 0.397805 1.5 0 
C 1.5 -0.397805 1.341951 -0.77937 1.06066 -1.06066 
C 0.77937 -1.341951 0.397805 -1.5 0 -1.5 
C -0.397805 -1.5 -0.77937 -1.341951 -1.06066 -1.06066 
C -1.341951 -0.77937 -1.5 -0.397805 -1.5 0 
C -1.5 0.397805 -1.341951 0.77937 -1.06066 1.06066 
C -0.77937 1.341951 -0.397805 1.5 0 1.5 
z
" id="m1956ac4b49" style="stroke:#000080;"/>
    </defs>
    <g>
     <use style="fill:#000080;stroke:#000080;" x="171.709823" xlink:href="#m1956ac4b49" y="30.334099"/>
     <use style="fill:#000080;stroke:#000080;" x="171.709823" xlink:href="#m1956ac4b49" y="30.334099"/>
    </g>
   </g>
   <g id="line2d_35">
    <path d="M 153.182035 298.944 
L 153.182035 298.417314 
L 153.879842 298.417314 
L 153.879842 297.890628 
L 154.863648 297.890628 
L 154.89331 296.837256 
L 154.995093 296.837256 
L 154.995093 296.31057 
L 155.148284 296.31057 
L 155.148284 295.783884 
L 155.729115 295.783884 
L 155.729115 295.257197 
L 156.101764 295.257197 
L 156.101764 294.730511 
L 156.409354 294.730511 
L 156.409354 294.203825 
L 156.571609 294.203825 
L 156.571609 293.677139 
L 156.897531 293.677139 
L 156.915134 292.623767 
L 157.249147 292.623767 
L 157.249147 292.097081 
L 157.942862 292.097081 
L 157.942862 291.570395 
L 158.064083 291.570395 
L 158.064083 291.043709 
L 158.623334 291.043709 
L 158.623334 290.517023 
L 158.874111 290.517023 
L 158.874111 289.990337 
L 159.022865 289.990337 
L 159.087709 288.410278 
L 159.275687 288.410278 
L 159.3651 287.356906 
L 159.426147 287.356906 
L 159.426147 286.303534 
L 159.635638 286.303534 
L 159.635638 285.776848 
L 159.961244 285.776848 
L 160.025151 284.723476 
L 160.171742 284.723476 
L 160.234884 283.143418 
L 160.434936 283.143418 
L 160.434936 282.616732 
L 160.554351 282.616732 
L 160.64693 279.983301 
L 160.77901 279.983301 
L 160.828284 278.929929 
L 160.949699 278.929929 
L 161.037893 277.349871 
L 161.208371 277.349871 
L 161.208371 276.823185 
L 161.447441 276.823185 
L 161.447441 276.296499 
L 161.569126 276.296499 
L 161.569126 275.769812 
L 162.095552 275.769812 
L 162.204154 274.189754 
L 162.221468 274.189754 
L 162.320689 272.609696 
L 162.412933 272.609696 
L 162.449267 271.029638 
L 162.615012 271.029638 
L 162.615012 270.502952 
L 162.894047 270.502952 
L 162.921083 268.922893 
L 163.016414 268.922893 
L 163.082425 267.342835 
L 163.189163 267.342835 
L 163.289148 265.762777 
L 163.412824 265.762777 
L 163.513548 263.129347 
L 163.569701 263.129347 
L 163.633654 261.022602 
L 163.705322 261.022602 
L 163.729146 259.96923 
L 163.87338 259.96923 
L 163.87338 259.442544 
L 164.006669 259.442544 
L 164.107914 257.862486 
L 164.121498 257.862486 
L 164.220151 256.282427 
L 164.293296 256.282427 
L 164.293296 255.755741 
L 164.425332 255.755741 
L 164.476728 254.702369 
L 164.575287 254.702369 
L 164.575287 254.175683 
L 164.72209 254.175683 
L 164.824867 253.122311 
L 164.865808 253.122311 
L 164.865808 252.595625 
L 165.039666 252.595625 
L 165.039666 252.068939 
L 165.193576 252.068939 
L 165.297246 249.435508 
L 165.347947 249.435508 
L 165.425523 247.85545 
L 165.488412 247.85545 
L 165.54035 246.802078 
L 165.647318 246.802078 
L 165.730653 244.695334 
L 165.880363 244.695334 
L 165.955611 242.588589 
L 166.006178 242.588589 
L 166.084354 239.428473 
L 166.118986 239.428473 
L 166.203547 237.321729 
L 166.232789 237.321729 
L 166.330478 235.214984 
L 166.349268 235.214984 
L 166.417424 233.10824 
L 166.461582 233.10824 
L 166.461582 232.581554 
L 166.687413 232.581554 
L 166.764268 229.948123 
L 166.862349 229.948123 
L 166.969769 226.261321 
L 166.987883 226.261321 
L 167.0929 223.627891 
L 167.109252 223.627891 
L 167.198914 220.467774 
L 167.231404 220.467774 
L 167.320442 217.307658 
L 167.38813 217.307658 
L 167.44594 214.674227 
L 167.505157 214.674227 
L 167.599169 212.567483 
L 167.618229 212.567483 
L 167.728995 209.407366 
L 167.733726 209.407366 
L 167.834359 206.24725 
L 167.85003 206.24725 
L 167.951554 202.560447 
L 167.990444 202.560447 
L 168.094245 195.713528 
L 168.109685 195.713528 
L 168.203573 192.026726 
L 168.244969 192.026726 
L 168.316796 189.919981 
L 168.382251 189.919981 
L 168.470152 187.286551 
L 168.494323 187.286551 
L 168.575653 182.01969 
L 168.634157 182.01969 
L 168.72676 177.279515 
L 168.777335 177.279515 
L 168.888381 172.012655 
L 168.9164 172.012655 
L 169.011918 168.852538 
L 169.044129 168.852538 
L 169.146224 163.058991 
L 169.16076 163.058991 
L 169.256398 156.738758 
L 169.285276 156.738758 
L 169.396011 148.838467 
L 169.398877 148.838467 
L 169.503198 143.04492 
L 169.514592 143.04492 
L 169.623885 136.724687 
L 169.62813 136.724687 
L 169.73531 129.877768 
L 169.75779 129.877768 
L 169.862783 122.504163 
L 169.887888 122.504163 
L 169.994873 114.603872 
L 170.004567 114.603872 
L 170.108089 106.703581 
L 170.123221 106.703581 
L 170.211 97.223231 
L 170.235609 97.223231 
L 170.314668 89.32294 
L 170.35949 89.32294 
L 170.467674 84.056079 
L 170.479803 84.056079 
L 170.583229 76.682474 
L 170.603306 76.682474 
L 170.704674 67.728811 
L 170.717968 67.728811 
L 170.822637 60.355206 
L 170.830561 60.355206 
L 170.939808 54.034973 
L 170.967341 54.034973 
L 171.064015 49.294798 
L 171.104355 49.294798 
L 171.192518 44.027937 
L 171.244171 44.027937 
L 171.349583 38.23439 
L 171.377756 38.23439 
L 171.482367 33.494215 
L 171.510327 33.494215 
L 171.59141 32.440843 
L 171.636855 32.440843 
L 171.709823 30.334099 
L 338.688 30.334099 
L 338.688 30.334099 
" style="fill:none;stroke:#000080;stroke-linecap:square;stroke-width:1.5;"/>
   </g>
   <g id="line2d_36">
    <defs>
     <path d="M 0 6 
C 1.591219 6 3.117479 5.367802 4.242641 4.242641 
C 5.367802 3.117479 6 1.591219 6 0 
C 6 -1.591219 5.367802 -3.117479 4.242641 -4.242641 
C 3.117479 -5.367802 1.591219 -6 0 -6 
C -1.591219 -6 -3.117479 -5.367802 -4.242641 -4.242641 
C -5.367802 -3.117479 -6 -1.591219 -6 0 
C -6 1.591219 -5.367802 3.117479 -4.242641 4.242641 
C -3.117479 5.367802 -1.591219 6 0 6 
z
" id="mff61d85952" style="stroke:#000080;stroke-width:1.5;"/>
    </defs>
    <g>
     <use style="fill-opacity:0;stroke:#000080;stroke-width:1.5;" x="169.587058" xlink:href="#mff61d85952" y="139.884804"/>
     <use style="fill-opacity:0;stroke:#000080;stroke-width:1.5;" x="171.709823" xlink:href="#mff61d85952" y="30.860785"/>
     <use style="fill-opacity:0;stroke:#000080;stroke-width:1.5;" x="171.709823" xlink:href="#mff61d85952" y="30.334099"/>
     <use style="fill-opacity:0;stroke:#000080;stroke-width:1.5;" x="338.688" xlink:href="#mff61d85952" y="30.334099"/>
    </g>
   </g>
   <g id="line2d_37">
    <path style="fill:none;stroke:#000080;stroke-linecap:square;stroke-width:1.5;"/>
    <g/>
   </g>
   <g id="line2d_38">
    <g>
     <use style="fill:#000080;stroke:#000080;" x="171.994974" xlink:href="#m1956ac4b49" y="30.334099"/>
     <use style="fill:#000080;stroke:#000080;" x="171.994974" xlink:href="#m1956ac4b49" y="30.334099"/>
    </g>
   </g>
   <g id="line2d_39">
    <path d="M 154.197998 298.944 
L 154.197998 298.417314 
L 156.871092 298.417314 
L 156.871092 297.890628 
L 157.058236 297.890628 
L 157.058236 297.363942 
L 157.358125 297.363942 
L 157.358125 296.837256 
L 157.739867 296.837256 
L 157.739867 296.31057 
L 158.099738 296.31057 
L 158.099738 295.783884 
L 158.317562 295.783884 
L 158.420083 294.203825 
L 158.889829 294.203825 
L 158.889829 293.677139 
L 159.154893 293.677139 
L 159.265439 292.097081 
L 159.405822 292.097081 
L 159.436301 291.043709 
L 159.570285 291.043709 
L 159.570285 290.517023 
L 159.695748 290.517023 
L 159.703247 289.463651 
L 159.889686 289.463651 
L 159.931669 287.883592 
L 160.007969 287.883592 
L 160.007969 287.356906 
L 160.234884 287.356906 
L 160.234884 286.83022 
L 160.461277 286.83022 
L 160.504296 285.250162 
L 160.590016 285.250162 
L 160.635088 283.670104 
L 160.783709 283.670104 
L 160.872745 281.036673 
L 161.042523 281.036673 
L 161.042523 280.509987 
L 161.297551 280.509987 
L 161.395353 276.823185 
L 161.494864 276.823185 
L 161.494864 276.296499 
L 161.656485 276.296499 
L 161.761186 275.243126 
L 161.986269 275.243126 
L 162.00818 273.663068 
L 162.126028 273.663068 
L 162.227956 272.609696 
L 162.309932 272.609696 
L 162.309932 272.08301 
L 162.438588 272.08301 
L 162.513202 271.029638 
L 162.581141 271.029638 
L 162.581141 270.502952 
L 162.741445 270.502952 
L 162.741445 269.976266 
L 162.912768 269.976266 
L 162.912768 269.449579 
L 163.068006 269.449579 
L 163.174832 267.869521 
L 163.424942 267.869521 
L 163.433016 266.816149 
L 163.557683 266.816149 
L 163.597709 265.236091 
L 163.669525 265.236091 
L 163.768781 263.656033 
L 163.78461 263.656033 
L 163.885182 261.549288 
L 163.906798 261.549288 
L 163.996903 260.495916 
L 164.076824 260.495916 
L 164.107914 258.915858 
L 164.218222 258.915858 
L 164.318249 256.282427 
L 164.356568 256.282427 
L 164.463418 254.702369 
L 164.491927 254.702369 
L 164.590401 252.068939 
L 164.607388 252.068939 
L 164.697709 250.488881 
L 164.767012 250.488881 
L 164.865808 247.328764 
L 164.923336 247.328764 
L 165.010195 246.275392 
L 165.074598 246.275392 
L 165.153397 244.168648 
L 165.1954 244.168648 
L 165.293619 242.588589 
L 165.335285 242.588589 
L 165.421922 239.955159 
L 165.461488 239.955159 
L 165.470467 238.901787 
L 165.640207 238.901787 
L 165.743031 236.795043 
L 165.758932 236.795043 
L 165.758932 236.268356 
L 165.960849 236.268356 
L 166.039228 233.634926 
L 166.10341 233.634926 
L 166.20699 231.528182 
L 166.215594 231.528182 
L 166.306535 229.421437 
L 166.449704 229.421437 
L 166.556315 227.314693 
L 166.64718 227.314693 
L 166.715855 224.681263 
L 166.787591 224.681263 
L 166.870635 223.101204 
L 166.90705 223.101204 
L 166.90705 222.574518 
L 167.035547 222.574518 
L 167.132118 220.99446 
L 167.172878 220.99446 
L 167.208667 219.414402 
L 167.344647 219.414402 
L 167.452352 217.307658 
L 167.485973 217.307658 
L 167.535487 214.674227 
L 167.640438 214.674227 
L 167.697419 212.040797 
L 167.755789 212.040797 
L 167.828086 209.407366 
L 167.879768 209.407366 
L 167.970232 205.720564 
L 168.002871 205.720564 
L 168.046295 202.560447 
L 168.125111 202.560447 
L 168.235778 200.453703 
L 168.263336 200.453703 
L 168.354881 195.713528 
L 168.386808 195.713528 
L 168.473175 192.026726 
L 168.586168 192.026726 
L 168.690972 187.813237 
L 168.705893 187.813237 
L 168.815911 181.493004 
L 168.817393 181.493004 
L 168.926712 176.226143 
L 168.935546 176.226143 
L 169.030959 170.959282 
L 169.057289 170.959282 
L 169.154947 166.745794 
L 169.175285 166.745794 
L 169.270843 160.952247 
L 169.299696 160.952247 
L 169.407475 154.632014 
L 169.421796 154.632014 
L 169.528825 147.785095 
L 169.552994 147.785095 
L 169.654986 138.831432 
L 169.686032 138.831432 
L 169.795661 131.457826 
L 169.808266 131.457826 
L 169.911564 122.504163 
L 169.921304 122.504163 
L 170.022555 113.5505 
L 170.037761 113.5505 
L 170.11772 108.283639 
L 170.150699 108.283639 
L 170.261547 100.383348 
L 170.265639 100.383348 
L 170.370339 94.063115 
L 170.387953 94.063115 
L 170.490577 85.109451 
L 170.499999 85.109451 
L 170.603306 76.155788 
L 170.624695 76.155788 
L 170.721954 69.835555 
L 170.736563 69.835555 
L 170.834522 62.988636 
L 170.860903 62.988636 
L 170.96996 57.721775 
L 170.983054 57.721775 
L 171.07834 51.928228 
L 171.097855 51.928228 
L 171.206738 46.134681 
L 171.209322 46.134681 
L 171.296957 42.447879 
L 171.323931 42.447879 
L 171.416101 37.707704 
L 171.436518 37.707704 
L 171.528096 35.074274 
L 171.557249 35.074274 
L 171.660792 33.494215 
L 171.693494 33.494215 
L 171.782486 31.914157 
L 171.912027 31.914157 
L 171.994974 30.334099 
L 338.688 30.334099 
L 338.688 30.334099 
" style="fill:none;stroke:#000080;stroke-linecap:square;stroke-width:1.5;"/>
   </g>
   <g id="line2d_40">
    <g>
     <use style="fill-opacity:0;stroke:#000080;stroke-width:1.5;" x="170.69137" xlink:href="#mff61d85952" y="72.468985"/>
     <use style="fill-opacity:0;stroke:#000080;stroke-width:1.5;" x="171.994974" xlink:href="#mff61d85952" y="30.334099"/>
     <use style="fill-opacity:0;stroke:#000080;stroke-width:1.5;" x="171.994974" xlink:href="#mff61d85952" y="30.334099"/>
     <use style="fill-opacity:0;stroke:#000080;stroke-width:1.5;" x="338.688" xlink:href="#mff61d85952" y="30.334099"/>
    </g>
   </g>
   <g id="line2d_41">
    <path style="fill:none;stroke:#000080;stroke-linecap:square;stroke-width:1.5;"/>
    <g/>
   </g>
   <g id="line2d_42">
    <defs>
     <path d="M 0 1.5 
C 0.397805 1.5 0.77937 1.341951 1.06066 1.06066 
C 1.341951 0.77937 1.5 0.397805 1.5 0 
C 1.5 -0.397805 1.341951 -0.77937 1.06066 -1.06066 
C 0.77937 -1.341951 0.397805 -1.5 0 -1.5 
C -0.397805 -1.5 -0.77937 -1.341951 -1.06066 -1.06066 
C -1.341951 -0.77937 -1.5 -0.397805 -1.5 0 
C -1.5 0.397805 -1.341951 0.77937 -1.06066 1.06066 
C -0.77937 1.341951 -0.397805 1.5 0 1.5 
z
" id="md6b8b8a6ab" style="stroke:#ff00ff;"/>
    </defs>
    <g>
     <use style="fill:#ff00ff;stroke:#ff00ff;" x="179.794097" xlink:href="#md6b8b8a6ab" y="30.334099"/>
     <use style="fill:#ff00ff;stroke:#ff00ff;" x="179.794097" xlink:href="#md6b8b8a6ab" y="30.334099"/>
    </g>
   </g>
   <g id="line2d_43">
    <path d="M 167.150064 298.944 
L 167.150064 298.417314 
L 167.297821 298.417314 
L 167.297821 297.890628 
L 169.474679 297.890628 
L 169.474679 297.363942 
L 169.894855 297.363942 
L 169.894855 296.837256 
L 170.682051 296.837256 
L 170.682051 296.31057 
L 170.833202 296.31057 
L 170.833202 295.783884 
L 171.117348 295.783884 
L 171.117348 295.257197 
L 171.43014 295.257197 
L 171.495081 294.203825 
L 171.57244 294.203825 
L 171.57244 293.677139 
L 172.145006 293.677139 
L 172.145006 293.150453 
L 172.270675 293.150453 
L 172.296186 292.097081 
L 172.484538 292.097081 
L 172.484538 291.570395 
L 172.757395 291.570395 
L 172.757395 291.043709 
L 172.925642 291.043709 
L 173.009743 289.463651 
L 173.078358 289.463651 
L 173.151329 287.356906 
L 173.191736 287.356906 
L 173.25964 286.303534 
L 173.31469 286.303534 
L 173.415166 284.19679 
L 173.428822 284.19679 
L 173.521856 281.563359 
L 173.560286 281.563359 
L 173.630147 279.456615 
L 173.687404 279.456615 
L 173.779072 276.823185 
L 173.863605 276.823185 
L 173.966492 273.663068 
L 174.005056 273.663068 
L 174.066582 272.08301 
L 174.147552 272.08301 
L 174.249868 269.976266 
L 174.306211 269.976266 
L 174.381771 267.869521 
L 174.474156 267.869521 
L 174.474156 267.342835 
L 174.589486 267.342835 
L 174.645805 266.289463 
L 174.751575 266.289463 
L 174.828384 264.709405 
L 174.866138 264.709405 
L 174.966418 263.129347 
L 174.977872 263.129347 
L 175.077514 260.495916 
L 175.133313 260.495916 
L 175.225916 257.862486 
L 175.261796 257.862486 
L 175.368996 256.282427 
L 175.561317 256.282427 
L 175.669698 252.068939 
L 175.700684 252.068939 
L 175.759504 250.488881 
L 175.816143 250.488881 
L 175.876553 248.908822 
L 175.93577 248.908822 
L 176.02814 245.22202 
L 176.056539 245.22202 
L 176.161895 240.481845 
L 176.195902 240.481845 
L 176.288839 238.375101 
L 176.324527 238.375101 
L 176.406237 235.74167 
L 176.452211 235.74167 
L 176.557112 228.894751 
L 176.576117 228.894751 
L 176.681222 220.467774 
L 176.704807 220.467774 
L 176.814763 213.620855 
L 176.826002 213.620855 
L 176.93706 204.140506 
L 176.949149 204.140506 
L 177.059428 196.7669 
L 177.063123 196.7669 
L 177.165341 186.759865 
L 177.175439 186.759865 
L 177.274266 178.332888 
L 177.29524 178.332888 
L 177.390674 170.432596 
L 177.421464 170.432596 
L 177.524309 157.79213 
L 177.5342 157.79213 
L 177.637277 147.258409 
L 177.646212 147.258409 
L 177.751295 136.724687 
L 177.77791 136.724687 
L 177.883086 125.66428 
L 177.904222 125.66428 
L 177.991135 116.710616 
L 178.020885 116.710616 
L 178.119395 110.390383 
L 178.141982 110.390383 
L 178.238949 96.169859 
L 178.255345 96.169859 
L 178.366262 86.162824 
L 178.372261 86.162824 
L 178.47733 81.422649 
L 178.485845 81.422649 
L 178.590234 71.942299 
L 178.597002 71.942299 
L 178.702411 61.935264 
L 178.708295 61.935264 
L 178.811365 55.615031 
L 178.828901 55.615031 
L 178.939559 46.661368 
L 178.948679 46.661368 
L 179.057758 41.921193 
L 179.061876 41.921193 
L 179.167796 38.761076 
L 179.17598 38.761076 
L 179.256795 37.181018 
L 179.300718 37.181018 
L 179.381767 34.547588 
L 179.416503 34.547588 
L 179.51789 31.914157 
L 179.593944 31.914157 
L 179.670464 30.860785 
L 179.794097 30.860785 
L 179.794097 30.334099 
L 338.688 30.334099 
L 338.688 30.334099 
" style="fill:none;stroke:#ff00ff;stroke-linecap:square;stroke-width:1.5;"/>
   </g>
   <g id="line2d_44">
    <defs>
     <path d="M -0 8.485281 
L 5.091169 0 
L 0 -8.485281 
L -5.091169 -0 
z
" id="mfa4bdab9fc" style="stroke:#ff00ff;stroke-linejoin:miter;stroke-width:1.5;"/>
    </defs>
    <g>
     <use style="fill-opacity:0;stroke:#ff00ff;stroke-linejoin:miter;stroke-width:1.5;" x="178.702411" xlink:href="#mfa4bdab9fc" y="62.988636"/>
     <use style="fill-opacity:0;stroke:#ff00ff;stroke-linejoin:miter;stroke-width:1.5;" x="179.794097" xlink:href="#mfa4bdab9fc" y="30.334099"/>
     <use style="fill-opacity:0;stroke:#ff00ff;stroke-linejoin:miter;stroke-width:1.5;" x="179.794097" xlink:href="#mfa4bdab9fc" y="30.334099"/>
     <use style="fill-opacity:0;stroke:#ff00ff;stroke-linejoin:miter;stroke-width:1.5;" x="338.688" xlink:href="#mfa4bdab9fc" y="30.334099"/>
    </g>
   </g>
   <g id="line2d_45">
    <path style="fill:none;stroke:#ff00ff;stroke-linecap:square;stroke-width:1.5;"/>
    <g/>
   </g>
   <g id="line2d_46">
    <defs>
     <path d="M 0 1.5 
C 0.397805 1.5 0.77937 1.341951 1.06066 1.06066 
C 1.341951 0.77937 1.5 0.397805 1.5 0 
C 1.5 -0.397805 1.341951 -0.77937 1.06066 -1.06066 
C 0.77937 -1.341951 0.397805 -1.5 0 -1.5 
C -0.397805 -1.5 -0.77937 -1.341951 -1.06066 -1.06066 
C -1.341951 -0.77937 -1.5 -0.397805 -1.5 0 
C -1.5 0.397805 -1.341951 0.77937 -1.06066 1.06066 
C -0.77937 1.341951 -0.397805 1.5 0 1.5 
z
" id="m9ed8c18817" style="stroke:#ff0000;"/>
    </defs>
    <g>
     <use style="fill:#ff0000;stroke:#ff0000;" x="174.139909" xlink:href="#m9ed8c18817" y="30.334099"/>
     <use style="fill:#ff0000;stroke:#ff0000;" x="174.139909" xlink:href="#m9ed8c18817" y="30.334099"/>
    </g>
   </g>
   <g id="line2d_47">
    <path d="M 157.655755 298.944 
L 157.655755 298.417314 
L 159.224387 298.417314 
L 159.224387 297.890628 
L 159.342152 297.890628 
L 159.342152 297.363942 
L 160.176607 297.363942 
L 160.283299 295.783884 
L 160.377325 295.783884 
L 160.377325 295.257197 
L 160.77196 295.257197 
L 160.800145 294.203825 
L 160.910098 294.203825 
L 160.910098 293.677139 
L 161.070274 293.677139 
L 161.160161 292.097081 
L 161.228992 292.097081 
L 161.228992 291.570395 
L 161.652016 291.570395 
L 161.652016 291.043709 
L 161.896143 291.043709 
L 161.896143 290.517023 
L 162.123853 290.517023 
L 162.154281 289.463651 
L 162.410793 289.463651 
L 162.410793 288.936964 
L 162.612897 288.936964 
L 162.636148 287.883592 
L 162.970886 287.883592 
L 162.970886 287.356906 
L 163.272863 287.356906 
L 163.317611 285.776848 
L 163.585711 285.776848 
L 163.585711 285.250162 
L 163.839898 285.250162 
L 163.912688 284.19679 
L 164.082658 284.19679 
L 164.171861 283.143418 
L 164.277922 283.143418 
L 164.337419 282.090045 
L 164.431051 282.090045 
L 164.471025 281.036673 
L 164.588513 281.036673 
L 164.588513 280.509987 
L 164.742694 280.509987 
L 164.787563 279.456615 
L 164.962199 279.456615 
L 165.069087 278.403243 
L 165.182627 278.403243 
L 165.224559 276.823185 
L 165.326236 276.823185 
L 165.43632 275.769812 
L 165.447111 275.769812 
L 165.447111 275.243126 
L 165.818873 275.243126 
L 165.897891 274.189754 
L 165.932896 274.189754 
L 165.953865 273.136382 
L 166.065276 273.136382 
L 166.143188 271.556324 
L 166.244815 271.556324 
L 166.244815 271.029638 
L 166.376562 271.029638 
L 166.451402 269.449579 
L 166.633748 269.449579 
L 166.742582 267.869521 
L 166.824179 267.869521 
L 166.915315 265.762777 
L 166.951637 265.762777 
L 166.99611 263.656033 
L 167.115788 263.656033 
L 167.210292 262.60266 
L 167.242762 262.60266 
L 167.313982 261.022602 
L 167.363986 261.022602 
L 167.453954 258.389172 
L 167.541866 258.389172 
L 167.608702 257.3358 
L 167.668952 257.3358 
L 167.757364 254.175683 
L 167.79669 254.175683 
L 167.903209 252.068939 
L 167.993552 252.068939 
L 168.094245 249.962195 
L 168.105054 249.962195 
L 168.138983 248.382136 
L 168.232714 248.382136 
L 168.319845 245.748706 
L 168.414128 245.748706 
L 168.522983 242.588589 
L 168.545575 242.588589 
L 168.617676 241.008531 
L 168.743139 241.008531 
L 168.777335 239.428473 
L 168.860316 239.428473 
L 168.917874 237.321729 
L 168.973774 237.321729 
L 169.032423 235.214984 
L 169.092334 235.214984 
L 169.141861 233.634926 
L 169.218785 233.634926 
L 169.318426 232.581554 
L 169.364444 232.581554 
L 169.388841 231.528182 
L 169.491796 231.528182 
L 169.602648 229.421437 
L 169.667694 229.421437 
L 169.725465 228.368065 
L 169.799863 228.368065 
L 169.871155 226.261321 
L 169.950491 226.261321 
L 170.029468 224.154577 
L 170.070892 224.154577 
L 170.180876 220.467774 
L 170.183616 220.467774 
L 170.29017 216.254285 
L 170.343204 216.254285 
L 170.439341 213.620855 
L 170.455537 213.620855 
L 170.557765 205.720564 
L 170.609993 205.720564 
L 170.707334 199.400331 
L 170.729924 199.400331 
L 170.806779 193.606784 
L 170.84244 193.606784 
L 170.927995 188.866609 
L 170.958168 188.866609 
L 171.064015 182.01969 
L 171.07183 182.01969 
L 171.171814 175.172771 
L 171.184757 175.172771 
L 171.287956 166.745794 
L 171.303383 166.745794 
L 171.413548 160.425561 
L 171.414825 160.425561 
L 171.52429 154.632014 
L 171.53951 154.632014 
L 171.643157 145.151665 
L 171.650717 145.151665 
L 171.744939 135.144629 
L 171.766226 135.144629 
L 171.876001 125.66428 
L 171.88719 125.66428 
L 171.975201 117.237302 
L 172.006086 117.237302 
L 172.115593 107.230267 
L 172.130306 107.230267 
L 172.22076 98.803289 
L 172.248779 98.803289 
L 172.354358 89.32294 
L 172.371288 89.32294 
L 172.472525 81.422649 
L 172.496543 81.422649 
L 172.605408 72.468985 
L 172.608985 72.468985 
L 172.714783 64.568694 
L 172.720707 64.568694 
L 172.809337 56.668403 
L 172.836426 56.668403 
L 172.946705 49.294798 
L 172.952552 49.294798 
L 173.051642 45.607995 
L 173.067909 45.607995 
L 173.140923 42.447879 
L 173.218239 42.447879 
L 173.320415 38.23439 
L 173.414027 38.23439 
L 173.500343 35.60096 
L 173.543342 35.60096 
L 173.568187 34.547588 
L 173.662728 34.547588 
L 173.695248 33.494215 
L 173.823614 33.494215 
L 173.922314 32.440843 
L 173.965389 32.440843 
L 174.024856 31.387471 
L 174.087407 31.387471 
L 174.139909 30.334099 
L 338.688 30.334099 
L 338.688 30.334099 
" style="fill:none;stroke:#ff0000;stroke-linecap:square;stroke-width:1.5;"/>
   </g>
   <g id="line2d_48">
    <defs>
     <path d="M 0 -6 
L -5.196152 -3 
L -5.196152 3 
L -0 6 
L 5.196152 3 
L 5.196152 -3 
z
" id="mf7a0e26d93" style="stroke:#ff0000;stroke-linejoin:miter;stroke-width:1.5;"/>
    </defs>
    <g>
     <use style="fill-opacity:0;stroke:#ff0000;stroke-linejoin:miter;stroke-width:1.5;" x="171.53951" xlink:href="#mf7a0e26d93" y="154.105328"/>
     <use style="fill-opacity:0;stroke:#ff0000;stroke-linejoin:miter;stroke-width:1.5;" x="174.139909" xlink:href="#mf7a0e26d93" y="30.334099"/>
     <use style="fill-opacity:0;stroke:#ff0000;stroke-linejoin:miter;stroke-width:1.5;" x="174.139909" xlink:href="#mf7a0e26d93" y="30.334099"/>
     <use style="fill-opacity:0;stroke:#ff0000;stroke-linejoin:miter;stroke-width:1.5;" x="338.688" xlink:href="#mf7a0e26d93" y="30.334099"/>
    </g>
   </g>
   <g id="line2d_49">
    <path style="fill:none;stroke:#ff0000;stroke-linecap:square;stroke-width:1.5;"/>
    <g/>
   </g>
   <g id="line2d_50">
    <defs>
     <path d="M 0 1.5 
C 0.397805 1.5 0.77937 1.341951 1.06066 1.06066 
C 1.341951 0.77937 1.5 0.397805 1.5 0 
C 1.5 -0.397805 1.341951 -0.77937 1.06066 -1.06066 
C 0.77937 -1.341951 0.397805 -1.5 0 -1.5 
C -0.397805 -1.5 -0.77937 -1.341951 -1.06066 -1.06066 
C -1.341951 -0.77937 -1.5 -0.397805 -1.5 0 
C -1.5 0.397805 -1.341951 0.77937 -1.06066 1.06066 
C -0.77937 1.341951 -0.397805 1.5 0 1.5 
z
" id="m95513259a6" style="stroke:#ff7500;"/>
    </defs>
    <g>
     <use style="fill:#ff7500;stroke:#ff7500;" x="172.753848" xlink:href="#m95513259a6" y="30.334099"/>
     <use style="fill:#ff7500;stroke:#ff7500;" x="172.753848" xlink:href="#m95513259a6" y="30.334099"/>
    </g>
   </g>
   <g id="line2d_51">
    <path d="M 151.489719 298.944 
L 151.489719 298.417314 
L 152.295354 298.417314 
L 152.295354 297.890628 
L 152.744329 297.890628 
L 152.744329 297.363942 
L 154.567581 297.363942 
L 154.567581 296.837256 
L 154.955763 296.837256 
L 154.955763 296.31057 
L 156.129394 296.31057 
L 156.129394 295.783884 
L 156.616413 295.783884 
L 156.616413 295.257197 
L 156.950288 295.257197 
L 156.950288 294.730511 
L 158.641936 294.730511 
L 158.68173 293.677139 
L 158.897683 293.677139 
L 158.897683 293.150453 
L 159.497101 293.150453 
L 159.497101 292.623767 
L 159.645671 292.623767 
L 159.645671 292.097081 
L 159.847601 292.097081 
L 159.847601 291.570395 
L 159.990769 291.570395 
L 159.993227 290.517023 
L 160.278464 290.517023 
L 160.324347 289.463651 
L 160.408554 289.463651 
L 160.418152 288.410278 
L 160.604262 288.410278 
L 160.604262 287.883592 
L 161.042523 287.883592 
L 161.042523 287.356906 
L 161.251875 287.356906 
L 161.251875 286.83022 
L 161.420284 286.83022 
L 161.422548 285.776848 
L 161.669886 285.776848 
L 161.669886 285.250162 
L 161.988461 285.250162 
L 161.988461 284.723476 
L 162.132552 284.723476 
L 162.132552 284.19679 
L 162.277619 284.19679 
L 162.33359 282.616732 
L 162.391524 282.616732 
L 162.502562 281.563359 
L 162.625583 281.563359 
L 162.625583 281.036673 
L 162.75194 281.036673 
L 162.860714 279.456615 
L 162.90237 279.456615 
L 162.921083 278.403243 
L 163.022613 278.403243 
L 163.043261 276.823185 
L 163.295251 276.823185 
L 163.295251 276.296499 
L 163.451168 276.296499 
L 163.451168 275.769812 
L 163.601707 275.769812 
L 163.659568 274.189754 
L 163.729146 274.189754 
L 163.839898 272.08301 
L 163.989086 272.08301 
L 164.070989 271.029638 
L 164.289454 271.029638 
L 164.322085 269.976266 
L 164.421519 269.976266 
L 164.507113 268.922893 
L 164.535552 268.922893 
L 164.631896 267.869521 
L 164.658251 267.869521 
L 164.746437 265.762777 
L 164.813684 265.762777 
L 164.9048 264.182719 
L 165.052544 264.182719 
L 165.105794 262.60266 
L 165.208163 262.60266 
L 165.208163 262.075974 
L 165.337095 262.075974 
L 165.412918 260.495916 
L 165.491999 260.495916 
L 165.543926 258.915858 
L 165.792454 258.915858 
L 165.885623 256.282427 
L 165.92765 256.282427 
L 166.002695 253.122311 
L 166.089553 253.122311 
L 166.189769 249.435508 
L 166.219034 249.435508 
L 166.308246 247.328764 
L 166.349268 247.328764 
L 166.431023 245.748706 
L 166.487008 245.748706 
L 166.493781 244.168648 
L 166.652214 244.168648 
L 166.74592 242.061903 
L 166.772601 242.061903 
L 166.870635 240.481845 
L 166.946688 240.481845 
L 167.042111 237.848415 
L 167.074895 237.848415 
L 167.171249 235.74167 
L 167.197288 235.74167 
L 167.257353 234.688298 
L 167.325286 234.688298 
L 167.428296 232.581554 
L 167.442734 232.581554 
L 167.535487 230.47481 
L 167.630923 230.47481 
L 167.728995 227.841379 
L 167.784115 227.841379 
L 167.862558 226.261321 
L 167.925058 226.261321 
L 167.974898 223.627891 
L 168.050941 223.627891 
L 168.149765 220.99446 
L 168.202038 220.99446 
L 168.281683 218.36103 
L 168.313745 218.36103 
L 168.42171 215.727599 
L 168.438377 215.727599 
L 168.54407 210.987425 
L 168.583165 210.987425 
L 168.686493 207.300622 
L 168.705893 207.300622 
L 168.814429 203.087133 
L 168.829244 203.087133 
L 168.907557 199.927017 
L 168.96202 199.927017 
L 169.061673 193.606784 
L 169.07482 193.606784 
L 169.181091 188.339923 
L 169.189797 188.339923 
L 169.283833 183.073062 
L 169.305462 183.073062 
L 169.416069 176.752829 
L 169.42752 176.752829 
L 169.534515 168.852538 
L 169.552994 168.852538 
L 169.663459 162.005619 
L 169.671927 162.005619 
L 169.781644 155.685386 
L 169.784448 155.685386 
L 169.887888 146.205037 
L 169.897641 146.205037 
L 169.994873 139.358118 
L 170.046049 139.358118 
L 170.15619 130.93114 
L 170.167166 130.93114 
L 170.26973 123.030849 
L 170.305145 123.030849 
L 170.413666 114.603872 
L 170.420426 114.603872 
L 170.526891 108.283639 
L 170.53495 108.283639 
L 170.638051 100.910034 
L 170.660731 100.910034 
L 170.763093 93.536429 
L 170.773693 93.536429 
L 170.858267 85.109451 
L 170.887244 85.109451 
L 170.997446 76.155788 
L 171.009212 76.155788 
L 171.109554 68.255497 
L 171.12514 68.255497 
L 171.233852 62.46195 
L 171.239012 62.46195 
L 171.331631 59.301833 
L 171.358552 59.301833 
L 171.462004 53.508287 
L 171.477279 53.508287 
L 171.571175 49.294798 
L 171.612885 49.294798 
L 171.706056 45.607995 
L 171.777485 45.607995 
L 171.859828 41.921193 
L 171.895887 41.921193 
L 171.977674 39.287762 
L 172.027056 39.287762 
L 172.092273 37.707704 
L 172.138882 37.707704 
L 172.196359 35.074274 
L 172.281613 35.074274 
L 172.370079 33.494215 
L 172.399066 33.494215 
L 172.46892 32.440843 
L 172.53131 32.440843 
L 172.576762 30.860785 
L 172.753848 30.860785 
L 172.753848 30.334099 
L 338.688 30.334099 
L 338.688 30.334099 
" style="fill:none;stroke:#ff7500;stroke-linecap:square;stroke-width:1.5;"/>
   </g>
   <g id="line2d_52">
    <defs>
     <path d="M 0 -6 
L -1.347084 -1.854102 
L -5.706339 -1.854102 
L -2.179628 0.708204 
L -3.526712 4.854102 
L -0 2.291796 
L 3.526712 4.854102 
L 2.179628 0.708204 
L 5.706339 -1.854102 
L 1.347084 -1.854102 
z
" id="m85110a050a" style="stroke:#ff7500;stroke-linejoin:bevel;stroke-width:1.5;"/>
    </defs>
    <g>
     <use style="fill-opacity:0;stroke:#ff7500;stroke-linejoin:bevel;stroke-width:1.5;" x="172.753848" xlink:href="#m85110a050a" y="30.860785"/>
     <use style="fill-opacity:0;stroke:#ff7500;stroke-linejoin:bevel;stroke-width:1.5;" x="172.753848" xlink:href="#m85110a050a" y="30.334099"/>
     <use style="fill-opacity:0;stroke:#ff7500;stroke-linejoin:bevel;stroke-width:1.5;" x="172.753848" xlink:href="#m85110a050a" y="30.334099"/>
     <use style="fill-opacity:0;stroke:#ff7500;stroke-linejoin:bevel;stroke-width:1.5;" x="338.688" xlink:href="#m85110a050a" y="30.334099"/>
    </g>
   </g>
   <g id="line2d_53">
    <path style="fill:none;stroke:#ff7500;stroke-linecap:square;stroke-width:1.5;"/>
    <g/>
   </g>
   <g id="line2d_54">
    <path d="M 338.688 30.334099 
L 369.60768 293.571802 
" style="fill:none;stroke:#ff00ff;stroke-linecap:square;stroke-width:1.5;"/>
    <g>
     <use style="fill-opacity:0;stroke:#ff00ff;stroke-linejoin:miter;stroke-width:1.5;" x="338.688" xlink:href="#mfa4bdab9fc" y="30.334099"/>
     <use style="fill-opacity:0;stroke:#ff00ff;stroke-linejoin:miter;stroke-width:1.5;" x="369.60768" xlink:href="#mfa4bdab9fc" y="293.571802"/>
    </g>
   </g>
   <g id="line2d_55">
    <path d="M 338.688 30.334099 
L 369.60768 241.998701 
" style="fill:none;stroke:#ff0000;stroke-linecap:square;stroke-width:1.5;"/>
    <g>
     <use style="fill-opacity:0;stroke:#ff0000;stroke-linejoin:miter;stroke-width:1.5;" x="338.688" xlink:href="#mf7a0e26d93" y="30.334099"/>
     <use style="fill-opacity:0;stroke:#ff0000;stroke-linejoin:miter;stroke-width:1.5;" x="369.60768" xlink:href="#mf7a0e26d93" y="241.998701"/>
    </g>
   </g>
   <g id="line2d_56">
    <path d="M 338.688 30.334099 
L 369.60768 190.4256 
" style="fill:none;stroke:#ff7500;stroke-linecap:square;stroke-width:1.5;"/>
    <g>
     <use style="fill-opacity:0;stroke:#ff7500;stroke-linejoin:bevel;stroke-width:1.5;" x="338.688" xlink:href="#m85110a050a" y="30.334099"/>
     <use style="fill-opacity:0;stroke:#ff7500;stroke-linejoin:bevel;stroke-width:1.5;" x="369.60768" xlink:href="#m85110a050a" y="190.4256"/>
    </g>
   </g>
   <g id="line2d_57">
    <path d="M 338.688 30.334099 
L 369.60768 138.852499 
" style="fill:none;stroke:#000080;stroke-linecap:square;stroke-width:1.5;"/>
    <g>
     <use style="fill-opacity:0;stroke:#000080;stroke-width:1.5;" x="338.688" xlink:href="#mff61d85952" y="30.334099"/>
     <use style="fill-opacity:0;stroke:#000080;stroke-width:1.5;" x="369.60768" xlink:href="#mff61d85952" y="138.852499"/>
    </g>
   </g>
   <g id="line2d_58">
    <path d="M 338.688 30.334099 
L 369.60768 87.279398 
" style="fill:none;stroke:#000080;stroke-linecap:square;stroke-width:1.5;"/>
    <g>
     <use style="fill-opacity:0;stroke:#000080;stroke-width:1.5;" x="338.688" xlink:href="#mff61d85952" y="30.334099"/>
     <use style="fill-opacity:0;stroke:#000080;stroke-width:1.5;" x="369.60768" xlink:href="#mff61d85952" y="87.279398"/>
    </g>
   </g>
   <g id="line2d_59">
    <path d="M 338.688 298.944 
L 338.688 30.334099 
" style="fill:none;stroke:#000000;stroke-linecap:square;stroke-width:1.5;"/>
   </g>
   <g id="patch_3">
    <path d="M 57.6 298.944 
L 57.6 27.648 
" style="fill:none;stroke:#000000;stroke-linecap:square;stroke-linejoin:miter;stroke-width:0.8;"/>
   </g>
   <g id="patch_4">
    <path d="M 338.688 298.944 
L 338.688 27.648 
" style="fill:none;stroke:#000000;stroke-linecap:square;stroke-linejoin:miter;stroke-width:0.8;"/>
   </g>
   <g id="patch_5">
    <path d="M 57.6 298.944 
L 338.688 298.944 
" style="fill:none;stroke:#000000;stroke-linecap:square;stroke-linejoin:miter;stroke-width:0.8;"/>
   </g>
   <g id="patch_6">
    <path d="M 57.6 27.648 
L 338.688 27.648 
" style="fill:none;stroke:#000000;stroke-linecap:square;stroke-linejoin:miter;stroke-width:0.8;"/>
   </g>
   <g id="text_13">
    <!-- 400s-2e4 -->
    <g transform="translate(375.22944 298.262739)scale(0.17 -0.17)">
     <use xlink:href="#DejaVuSans-52"/>
     <use x="63.623047" xlink:href="#DejaVuSans-48"/>
     <use x="127.246094" xlink:href="#DejaVuSans-48"/>
     <use x="190.869141" xlink:href="#DejaVuSans-115"/>
     <use x="242.96875" xlink:href="#DejaVuSans-45"/>
     <use x="279.052734" xlink:href="#DejaVuSans-50"/>
     <use x="342.675781" xlink:href="#DejaVuSans-101"/>
     <use x="404.199219" xlink:href="#DejaVuSans-52"/>
    </g>
   </g>
   <g id="text_14">
    <!-- 200s-2e4 -->
    <g transform="translate(375.22944 246.689638)scale(0.17 -0.17)">
     <use xlink:href="#DejaVuSans-50"/>
     <use x="63.623047" xlink:href="#DejaVuSans-48"/>
     <use x="127.246094" xlink:href="#DejaVuSans-48"/>
     <use x="190.869141" xlink:href="#DejaVuSans-115"/>
     <use x="242.96875" xlink:href="#DejaVuSans-45"/>
     <use x="279.052734" xlink:href="#DejaVuSans-50"/>
     <use x="342.675781" xlink:href="#DejaVuSans-101"/>
     <use x="404.199219" xlink:href="#DejaVuSans-52"/>
    </g>
   </g>
   <g id="text_15">
    <!-- 140s-2e4 -->
    <g transform="translate(375.22944 195.116537)scale(0.17 -0.17)">
     <use xlink:href="#DejaVuSans-49"/>
     <use x="63.623047" xlink:href="#DejaVuSans-52"/>
     <use x="127.246094" xlink:href="#DejaVuSans-48"/>
     <use x="190.869141" xlink:href="#DejaVuSans-115"/>
     <use x="242.96875" xlink:href="#DejaVuSans-45"/>
     <use x="279.052734" xlink:href="#DejaVuSans-50"/>
     <use x="342.675781" xlink:href="#DejaVuSans-101"/>
     <use x="404.199219" xlink:href="#DejaVuSans-52"/>
    </g>
   </g>
   <g id="text_16">
    <!-- 100-1e5 -->
    <defs>
     <path d="M 10.796875 72.90625 
L 49.515625 72.90625 
L 49.515625 64.59375 
L 19.828125 64.59375 
L 19.828125 46.734375 
Q 21.96875 47.46875 24.109375 47.828125 
Q 26.265625 48.1875 28.421875 48.1875 
Q 40.625 48.1875 47.75 41.5 
Q 54.890625 34.8125 54.890625 23.390625 
Q 54.890625 11.625 47.5625 5.09375 
Q 40.234375 -1.421875 26.90625 -1.421875 
Q 22.3125 -1.421875 17.546875 -0.640625 
Q 12.796875 0.140625 7.71875 1.703125 
L 7.71875 11.625 
Q 12.109375 9.234375 16.796875 8.0625 
Q 21.484375 6.890625 26.703125 6.890625 
Q 35.15625 6.890625 40.078125 11.328125 
Q 45.015625 15.765625 45.015625 23.390625 
Q 45.015625 31 40.078125 35.4375 
Q 35.15625 39.890625 26.703125 39.890625 
Q 22.75 39.890625 18.8125 39.015625 
Q 14.890625 38.140625 10.796875 36.28125 
z
" id="DejaVuSans-53"/>
    </defs>
    <g transform="translate(375.22944 143.543437)scale(0.17 -0.17)">
     <use xlink:href="#DejaVuSans-49"/>
     <use x="63.623047" xlink:href="#DejaVuSans-48"/>
     <use x="127.246094" xlink:href="#DejaVuSans-48"/>
     <use x="190.869141" xlink:href="#DejaVuSans-45"/>
     <use x="226.953125" xlink:href="#DejaVuSans-49"/>
     <use x="290.576172" xlink:href="#DejaVuSans-101"/>
     <use x="352.099609" xlink:href="#DejaVuSans-53"/>
    </g>
   </g>
   <g id="text_17">
    <!-- 100-2e4 -->
    <g transform="translate(375.22944 91.970336)scale(0.17 -0.17)">
     <use xlink:href="#DejaVuSans-49"/>
     <use x="63.623047" xlink:href="#DejaVuSans-48"/>
     <use x="127.246094" xlink:href="#DejaVuSans-48"/>
     <use x="190.869141" xlink:href="#DejaVuSans-45"/>
     <use x="226.953125" xlink:href="#DejaVuSans-50"/>
     <use x="290.576172" xlink:href="#DejaVuSans-101"/>
     <use x="352.099609" xlink:href="#DejaVuSans-52"/>
    </g>
   </g>
   <g id="text_18">
    <!-- best 2009 -->
    <defs>
     <path d="M 48.6875 27.296875 
Q 48.6875 37.203125 44.609375 42.84375 
Q 40.53125 48.484375 33.40625 48.484375 
Q 26.265625 48.484375 22.1875 42.84375 
Q 18.109375 37.203125 18.109375 27.296875 
Q 18.109375 17.390625 22.1875 11.75 
Q 26.265625 6.109375 33.40625 6.109375 
Q 40.53125 6.109375 44.609375 11.75 
Q 48.6875 17.390625 48.6875 27.296875 
z
M 18.109375 46.390625 
Q 20.953125 51.265625 25.265625 53.625 
Q 29.59375 56 35.59375 56 
Q 45.5625 56 51.78125 48.09375 
Q 58.015625 40.1875 58.015625 27.296875 
Q 58.015625 14.40625 51.78125 6.484375 
Q 45.5625 -1.421875 35.59375 -1.421875 
Q 29.59375 -1.421875 25.265625 0.953125 
Q 20.953125 3.328125 18.109375 8.203125 
L 18.109375 0 
L 9.078125 0 
L 9.078125 75.984375 
L 18.109375 75.984375 
z
" id="DejaVuSans-98"/>
     <path d="M 10.984375 1.515625 
L 10.984375 10.5 
Q 14.703125 8.734375 18.5 7.8125 
Q 22.3125 6.890625 25.984375 6.890625 
Q 35.75 6.890625 40.890625 13.453125 
Q 46.046875 20.015625 46.78125 33.40625 
Q 43.953125 29.203125 39.59375 26.953125 
Q 35.25 24.703125 29.984375 24.703125 
Q 19.046875 24.703125 12.671875 31.3125 
Q 6.296875 37.9375 6.296875 49.421875 
Q 6.296875 60.640625 12.9375 67.421875 
Q 19.578125 74.21875 30.609375 74.21875 
Q 43.265625 74.21875 49.921875 64.515625 
Q 56.59375 54.828125 56.59375 36.375 
Q 56.59375 19.140625 48.40625 8.859375 
Q 40.234375 -1.421875 26.421875 -1.421875 
Q 22.703125 -1.421875 18.890625 -0.6875 
Q 15.09375 0.046875 10.984375 1.515625 
z
M 30.609375 32.421875 
Q 37.25 32.421875 41.125 36.953125 
Q 45.015625 41.5 45.015625 49.421875 
Q 45.015625 57.28125 41.125 61.84375 
Q 37.25 66.40625 30.609375 66.40625 
Q 23.96875 66.40625 20.09375 61.84375 
Q 16.21875 57.28125 16.21875 49.421875 
Q 16.21875 41.5 20.09375 36.953125 
Q 23.96875 32.421875 30.609375 32.421875 
z
" id="DejaVuSans-57"/>
    </defs>
    <g transform="translate(375.22944 40.397235)scale(0.17 -0.17)">
     <use xlink:href="#DejaVuSans-98"/>
     <use x="63.476562" xlink:href="#DejaVuSans-101"/>
     <use x="125" xlink:href="#DejaVuSans-115"/>
     <use x="177.099609" xlink:href="#DejaVuSans-116"/>
     <use x="216.308594" xlink:href="#DejaVuSans-32"/>
     <use x="248.095703" xlink:href="#DejaVuSans-50"/>
     <use x="311.71875" xlink:href="#DejaVuSans-48"/>
     <use x="375.341797" xlink:href="#DejaVuSans-48"/>
     <use x="438.964844" xlink:href="#DejaVuSans-57"/>
    </g>
   </g>
   <g id="text_19">
    <!-- bbob f2, 20-D -->
    <defs>
     <path d="M 19.671875 64.796875 
L 19.671875 8.109375 
L 31.59375 8.109375 
Q 46.6875 8.109375 53.6875 14.9375 
Q 60.6875 21.78125 60.6875 36.53125 
Q 60.6875 51.171875 53.6875 57.984375 
Q 46.6875 64.796875 31.59375 64.796875 
z
M 9.8125 72.90625 
L 30.078125 72.90625 
Q 51.265625 72.90625 61.171875 64.09375 
Q 71.09375 55.28125 71.09375 36.53125 
Q 71.09375 17.671875 61.125 8.828125 
Q 51.171875 0 30.078125 0 
L 9.8125 0 
z
" id="DejaVuSans-68"/>
    </defs>
    <g transform="translate(60.41088 38.111366)scale(0.102 -0.102)">
     <use xlink:href="#DejaVuSans-98"/>
     <use x="63.476562" xlink:href="#DejaVuSans-98"/>
     <use x="126.953125" xlink:href="#DejaVuSans-111"/>
     <use x="188.134766" xlink:href="#DejaVuSans-98"/>
     <use x="251.611328" xlink:href="#DejaVuSans-32"/>
     <use x="283.398438" xlink:href="#DejaVuSans-102"/>
     <use x="318.603516" xlink:href="#DejaVuSans-50"/>
     <use x="382.226562" xlink:href="#DejaVuSans-44"/>
     <use x="414.013672" xlink:href="#DejaVuSans-32"/>
     <use x="445.800781" xlink:href="#DejaVuSans-50"/>
     <use x="509.423828" xlink:href="#DejaVuSans-48"/>
     <use x="573.046875" xlink:href="#DejaVuSans-45"/>
     <use x="609.130859" xlink:href="#DejaVuSans-68"/>
    </g>
    <!-- 51 targets: 100..1e-08 -->
    <defs>
     <path d="M 11.71875 12.40625 
L 22.015625 12.40625 
L 22.015625 0 
L 11.71875 0 
z
M 11.71875 51.703125 
L 22.015625 51.703125 
L 22.015625 39.3125 
L 11.71875 39.3125 
z
" id="DejaVuSans-58"/>
    </defs>
    <g transform="translate(60.41088 49.533135)scale(0.102 -0.102)">
     <use xlink:href="#DejaVuSans-53"/>
     <use x="63.623047" xlink:href="#DejaVuSans-49"/>
     <use x="127.246094" xlink:href="#DejaVuSans-32"/>
     <use x="159.033203" xlink:href="#DejaVuSans-116"/>
     <use x="198.242188" xlink:href="#DejaVuSans-97"/>
     <use x="259.521484" xlink:href="#DejaVuSans-114"/>
     <use x="300.619141" xlink:href="#DejaVuSans-103"/>
     <use x="364.095703" xlink:href="#DejaVuSans-101"/>
     <use x="425.619141" xlink:href="#DejaVuSans-116"/>
     <use x="464.828125" xlink:href="#DejaVuSans-115"/>
     <use x="516.927734" xlink:href="#DejaVuSans-58"/>
     <use x="550.619141" xlink:href="#DejaVuSans-32"/>
     <use x="582.40625" xlink:href="#DejaVuSans-49"/>
     <use x="646.029297" xlink:href="#DejaVuSans-48"/>
     <use x="709.652344" xlink:href="#DejaVuSans-48"/>
     <use x="773.275391" xlink:href="#DejaVuSans-46"/>
     <use x="805.0625" xlink:href="#DejaVuSans-46"/>
     <use x="836.849609" xlink:href="#DejaVuSans-49"/>
     <use x="900.472656" xlink:href="#DejaVuSans-101"/>
     <use x="961.996094" xlink:href="#DejaVuSans-45"/>
     <use x="998.080078" xlink:href="#DejaVuSans-48"/>
     <use x="1061.703125" xlink:href="#DejaVuSans-56"/>
    </g>
    <!-- 15 instances -->
    <g transform="translate(60.41088 60.954904)scale(0.102 -0.102)">
     <use xlink:href="#DejaVuSans-49"/>
     <use x="63.623047" xlink:href="#DejaVuSans-53"/>
     <use x="127.246094" xlink:href="#DejaVuSans-32"/>
     <use x="159.033203" xlink:href="#DejaVuSans-105"/>
     <use x="186.816406" xlink:href="#DejaVuSans-110"/>
     <use x="250.195312" xlink:href="#DejaVuSans-115"/>
     <use x="302.294922" xlink:href="#DejaVuSans-116"/>
     <use x="341.503906" xlink:href="#DejaVuSans-97"/>
     <use x="402.783203" xlink:href="#DejaVuSans-110"/>
     <use x="466.162109" xlink:href="#DejaVuSans-99"/>
     <use x="521.142578" xlink:href="#DejaVuSans-101"/>
     <use x="582.666016" xlink:href="#DejaVuSans-115"/>
    </g>
   </g>
   <g id="text_20">
    <!-- v2.3.3.18.73 -->
    <defs>
     <path d="M 40.578125 39.3125 
Q 47.65625 37.796875 51.625 33 
Q 55.609375 28.21875 55.609375 21.1875 
Q 55.609375 10.40625 48.1875 4.484375 
Q 40.765625 -1.421875 27.09375 -1.421875 
Q 22.515625 -1.421875 17.65625 -0.515625 
Q 12.796875 0.390625 7.625 2.203125 
L 7.625 11.71875 
Q 11.71875 9.328125 16.59375 8.109375 
Q 21.484375 6.890625 26.8125 6.890625 
Q 36.078125 6.890625 40.9375 10.546875 
Q 45.796875 14.203125 45.796875 21.1875 
Q 45.796875 27.640625 41.28125 31.265625 
Q 36.765625 34.90625 28.71875 34.90625 
L 20.21875 34.90625 
L 20.21875 43.015625 
L 29.109375 43.015625 
Q 36.375 43.015625 40.234375 45.921875 
Q 44.09375 48.828125 44.09375 54.296875 
Q 44.09375 59.90625 40.109375 62.90625 
Q 36.140625 65.921875 28.71875 65.921875 
Q 24.65625 65.921875 20.015625 65.03125 
Q 15.375 64.15625 9.8125 62.3125 
L 9.8125 71.09375 
Q 15.4375 72.65625 20.34375 73.4375 
Q 25.25 74.21875 29.59375 74.21875 
Q 40.828125 74.21875 47.359375 69.109375 
Q 53.90625 64.015625 53.90625 55.328125 
Q 53.90625 49.265625 50.4375 45.09375 
Q 46.96875 40.921875 40.578125 39.3125 
z
" id="DejaVuSans-51"/>
     <path d="M 8.203125 72.90625 
L 55.078125 72.90625 
L 55.078125 68.703125 
L 28.609375 0 
L 18.3125 0 
L 43.21875 64.59375 
L 8.203125 64.59375 
z
" id="DejaVuSans-55"/>
    </defs>
    <g style="fill:#808080;" transform="translate(166.559625 294.151352)scale(0.1 -0.1)">
     <use xlink:href="#DejaVuSans-118"/>
     <use x="59.179688" xlink:href="#DejaVuSans-50"/>
     <use x="122.802734" xlink:href="#DejaVuSans-46"/>
     <use x="154.589844" xlink:href="#DejaVuSans-51"/>
     <use x="218.212891" xlink:href="#DejaVuSans-46"/>
     <use x="250" xlink:href="#DejaVuSans-51"/>
     <use x="313.623047" xlink:href="#DejaVuSans-46"/>
     <use x="345.410156" xlink:href="#DejaVuSans-49"/>
     <use x="409.033203" xlink:href="#DejaVuSans-56"/>
     <use x="472.65625" xlink:href="#DejaVuSans-46"/>
     <use x="504.443359" xlink:href="#DejaVuSans-55"/>
     <use x="568.066406" xlink:href="#DejaVuSans-51"/>
    </g>
   </g>
   <g id="text_21">
    <!-- 2 Ellipsoid separable -->
    <defs>
     <path d="M 9.8125 72.90625 
L 55.90625 72.90625 
L 55.90625 64.59375 
L 19.671875 64.59375 
L 19.671875 43.015625 
L 54.390625 43.015625 
L 54.390625 34.71875 
L 19.671875 34.71875 
L 19.671875 8.296875 
L 56.78125 8.296875 
L 56.78125 0 
L 9.8125 0 
z
" id="DejaVuSans-69"/>
    </defs>
    <g transform="translate(94.611187 21.648)scale(0.2 -0.2)">
     <use xlink:href="#DejaVuSans-50"/>
     <use x="63.623047" xlink:href="#DejaVuSans-32"/>
     <use x="95.410156" xlink:href="#DejaVuSans-69"/>
     <use x="158.59375" xlink:href="#DejaVuSans-108"/>
     <use x="186.376953" xlink:href="#DejaVuSans-108"/>
     <use x="214.160156" xlink:href="#DejaVuSans-105"/>
     <use x="241.943359" xlink:href="#DejaVuSans-112"/>
     <use x="305.419922" xlink:href="#DejaVuSans-115"/>
     <use x="357.519531" xlink:href="#DejaVuSans-111"/>
     <use x="418.701172" xlink:href="#DejaVuSans-105"/>
     <use x="446.484375" xlink:href="#DejaVuSans-100"/>
     <use x="509.960938" xlink:href="#DejaVuSans-32"/>
     <use x="541.748047" xlink:href="#DejaVuSans-115"/>
     <use x="593.847656" xlink:href="#DejaVuSans-101"/>
     <use x="655.371094" xlink:href="#DejaVuSans-112"/>
     <use x="718.847656" xlink:href="#DejaVuSans-97"/>
     <use x="780.126953" xlink:href="#DejaVuSans-114"/>
     <use x="821.240234" xlink:href="#DejaVuSans-97"/>
     <use x="882.519531" xlink:href="#DejaVuSans-98"/>
     <use x="945.996094" xlink:href="#DejaVuSans-108"/>
     <use x="973.779297" xlink:href="#DejaVuSans-101"/>
    </g>
   </g>
  </g>
 </g>
 <defs>
  <clipPath id="pe89bbb25c2">
   <rect height="271.296" width="281.088" x="57.6" y="27.648"/>
  </clipPath>
 </defs>
</svg>
