<?xml version="1.0" encoding="utf-8" standalone="no"?>
<!DOCTYPE svg PUBLIC "-//W3C//DTD SVG 1.1//EN"
  "http://www.w3.org/Graphics/SVG/1.1/DTD/svg11.dtd">
<!-- Created with matplotlib (https://matplotlib.org/) -->
<svg height="345.6pt" version="1.1" viewBox="0 0 460.8 345.6" width="460.8pt" xmlns="http://www.w3.org/2000/svg" xmlns:xlink="http://www.w3.org/1999/xlink">
 <defs>
  <style type="text/css">
*{stroke-linecap:butt;stroke-linejoin:round;}
  </style>
 </defs>
 <g id="figure_1">
  <g id="patch_1">
   <path d="M 0 345.6 
L 460.8 345.6 
L 460.8 0 
L 0 0 
z
" style="fill:#ffffff;"/>
  </g>
  <g id="axes_1">
   <g id="patch_2">
    <path d="M 57.6 298.944 
L 338.688 298.944 
L 338.688 27.648 
L 57.6 27.648 
z
" style="fill:#ffffff;"/>
   </g>
   <g id="line2d_1">
    <path d="M 162.191157 298.944 
L 162.191157 293.677139 
L 164.458662 293.677139 
L 164.458662 288.410278 
L 166.671499 288.410278 
L 166.671499 283.143418 
L 167.932076 283.143418 
L 167.932076 277.876557 
L 169.217337 277.876557 
L 169.217337 272.609696 
L 170.239707 272.609696 
L 170.239707 267.342835 
L 170.711322 267.342835 
L 170.711322 262.075974 
L 171.463278 262.075974 
L 171.463278 256.809114 
L 172.100254 256.809114 
L 172.100254 251.542253 
L 172.55106 251.542253 
L 172.55106 246.275392 
L 172.910414 246.275392 
L 172.910414 241.008531 
L 173.512801 241.008531 
L 173.512801 235.74167 
L 174.085216 235.74167 
L 174.085216 230.47481 
L 174.388233 230.47481 
L 174.388233 225.207949 
L 174.633601 225.207949 
L 174.633601 219.941088 
L 176.07121 219.941088 
L 176.07121 214.674227 
L 176.538086 214.674227 
L 176.538086 209.407366 
L 177.977994 209.407366 
L 177.977994 204.140506 
L 181.883999 204.140506 
L 181.883999 198.873645 
L 182.246237 198.873645 
L 182.246237 193.606784 
L 182.499964 193.606784 
L 182.499964 188.339923 
L 182.827538 188.339923 
L 182.827538 183.073062 
L 183.152655 183.073062 
L 183.152655 177.806202 
L 183.414166 177.806202 
L 183.414166 172.539341 
L 183.7075 172.539341 
L 183.7075 167.27248 
L 183.936299 167.27248 
L 183.936299 162.005619 
L 184.225952 162.005619 
L 184.225952 156.738758 
L 184.495198 156.738758 
L 184.495198 151.471897 
L 184.793584 151.471897 
L 184.793584 146.205037 
L 185.032355 146.205037 
L 185.032355 140.938176 
L 185.327803 140.938176 
L 185.327803 135.671315 
L 185.569061 135.671315 
L 185.569061 130.404454 
L 185.81346 130.404454 
L 185.81346 125.137593 
L 186.074324 125.137593 
L 186.074324 119.870733 
L 186.357651 119.870733 
L 186.357651 114.603872 
L 186.567501 114.603872 
L 186.567501 109.337011 
L 186.815557 109.337011 
L 186.815557 104.07015 
L 187.053365 104.07015 
L 187.053365 98.803289 
L 187.316727 98.803289 
L 187.316727 93.536429 
L 187.52175 93.536429 
L 187.52175 88.269568 
L 187.760938 88.269568 
L 187.760938 83.002707 
L 187.942284 83.002707 
L 187.942284 77.735846 
L 187.962812 77.735846 
L 187.962812 72.468985 
L 187.987265 72.468985 
L 187.987265 67.202125 
L 188.009466 67.202125 
L 188.009466 61.935264 
L 188.029669 61.935264 
L 188.029669 56.668403 
L 188.050341 56.668403 
L 188.050341 51.401542 
L 188.073935 51.401542 
L 188.073935 46.134681 
L 188.095781 46.134681 
L 188.095781 40.867821 
L 188.116864 40.867821 
L 188.116864 35.60096 
L 188.142081 35.60096 
L 188.142081 30.334099 
L 338.688 30.334099 
" style="fill:none;stroke:#f5deb3;stroke-linecap:square;stroke-width:4;"/>
   </g>
   <g id="line2d_2">
    <defs>
     <path d="M -0 7.778175 
L 7.778175 0 
L 0 -7.778175 
L -7.778175 -0 
z
" id="m285ff34dcb" style="stroke:#f5deb3;stroke-linejoin:miter;stroke-width:1.5;"/>
    </defs>
    <g>
     <use style="fill:#f5deb3;stroke:#f5deb3;stroke-linejoin:miter;stroke-width:1.5;" x="186.815557" xlink:href="#m285ff34dcb" y="109.337011"/>
     <use style="fill:#f5deb3;stroke:#f5deb3;stroke-linejoin:miter;stroke-width:1.5;" x="188.142081" xlink:href="#m285ff34dcb" y="30.334099"/>
     <use style="fill:#f5deb3;stroke:#f5deb3;stroke-linejoin:miter;stroke-width:1.5;" x="188.142081" xlink:href="#m285ff34dcb" y="30.334099"/>
     <use style="fill:#f5deb3;stroke:#f5deb3;stroke-linejoin:miter;stroke-width:1.5;" x="338.688" xlink:href="#m285ff34dcb" y="30.334099"/>
    </g>
   </g>
   <g id="line2d_3">
    <path style="fill:none;stroke:#f5deb3;stroke-linecap:square;stroke-width:4;"/>
    <g/>
   </g>
   <g id="line2d_4">
    <path d="M 338.688 30.334099 
L 369.60768 241.998701 
" style="fill:none;stroke:#f5deb3;stroke-linecap:square;stroke-width:4;"/>
    <g>
     <use style="fill:#f5deb3;stroke:#f5deb3;stroke-linejoin:miter;stroke-width:1.5;" x="338.688" xlink:href="#m285ff34dcb" y="30.334099"/>
     <use style="fill:#f5deb3;stroke:#f5deb3;stroke-linejoin:miter;stroke-width:1.5;" x="369.60768" xlink:href="#m285ff34dcb" y="241.998701"/>
    </g>
   </g>
   <g id="matplotlib.axis_1">
    <g id="xtick_1">
     <g id="line2d_5">
      <path clip-path="url(#p0bcf7850f4)" d="M 57.6 298.944 
L 57.6 27.648 
" style="fill:none;stroke:#b0b0b0;stroke-linecap:square;stroke-width:0.8;"/>
     </g>
     <g id="line2d_6">
      <defs>
       <path d="M 0 0 
L 0 3.5 
" id="mb81374c82c" style="stroke:#000000;stroke-width:0.8;"/>
      </defs>
      <g>
       <use style="stroke:#000000;stroke-width:0.8;" x="57.6" xlink:href="#mb81374c82c" y="298.944"/>
      </g>
     </g>
     <g id="text_1">
      <!-- 0 -->
      <defs>
       <path d="M 31.78125 66.40625 
Q 24.171875 66.40625 20.328125 58.90625 
Q 16.5 51.421875 16.5 36.375 
Q 16.5 21.390625 20.328125 13.890625 
Q 24.171875 6.390625 31.78125 6.390625 
Q 39.453125 6.390625 43.28125 13.890625 
Q 47.125 21.390625 47.125 36.375 
Q 47.125 51.421875 43.28125 58.90625 
Q 39.453125 66.40625 31.78125 66.40625 
z
M 31.78125 74.21875 
Q 44.046875 74.21875 50.515625 64.515625 
Q 56.984375 54.828125 56.984375 36.375 
Q 56.984375 17.96875 50.515625 8.265625 
Q 44.046875 -1.421875 31.78125 -1.421875 
Q 19.53125 -1.421875 13.0625 8.265625 
Q 6.59375 17.96875 6.59375 36.375 
Q 6.59375 54.828125 13.0625 64.515625 
Q 19.53125 74.21875 31.78125 74.21875 
z
" id="DejaVuSans-48"/>
      </defs>
      <g transform="translate(51.2375 321.140875)scale(0.2 -0.2)">
       <use xlink:href="#DejaVuSans-48"/>
      </g>
     </g>
    </g>
    <g id="xtick_2">
     <g id="line2d_7">
      <path clip-path="url(#p0bcf7850f4)" d="M 137.910857 298.944 
L 137.910857 27.648 
" style="fill:none;stroke:#b0b0b0;stroke-linecap:square;stroke-width:0.8;"/>
     </g>
     <g id="line2d_8">
      <g>
       <use style="stroke:#000000;stroke-width:0.8;" x="137.910857" xlink:href="#mb81374c82c" y="298.944"/>
      </g>
     </g>
     <g id="text_2">
      <!-- 2 -->
      <defs>
       <path d="M 19.1875 8.296875 
L 53.609375 8.296875 
L 53.609375 0 
L 7.328125 0 
L 7.328125 8.296875 
Q 12.9375 14.109375 22.625 23.890625 
Q 32.328125 33.6875 34.8125 36.53125 
Q 39.546875 41.84375 41.421875 45.53125 
Q 43.3125 49.21875 43.3125 52.78125 
Q 43.3125 58.59375 39.234375 62.25 
Q 35.15625 65.921875 28.609375 65.921875 
Q 23.96875 65.921875 18.8125 64.3125 
Q 13.671875 62.703125 7.8125 59.421875 
L 7.8125 69.390625 
Q 13.765625 71.78125 18.9375 73 
Q 24.125 74.21875 28.421875 74.21875 
Q 39.75 74.21875 46.484375 68.546875 
Q 53.21875 62.890625 53.21875 53.421875 
Q 53.21875 48.921875 51.53125 44.890625 
Q 49.859375 40.875 45.40625 35.40625 
Q 44.1875 33.984375 37.640625 27.21875 
Q 31.109375 20.453125 19.1875 8.296875 
z
" id="DejaVuSans-50"/>
      </defs>
      <g transform="translate(131.548357 321.140875)scale(0.2 -0.2)">
       <use xlink:href="#DejaVuSans-50"/>
      </g>
     </g>
    </g>
    <g id="xtick_3">
     <g id="line2d_9">
      <path clip-path="url(#p0bcf7850f4)" d="M 218.221714 298.944 
L 218.221714 27.648 
" style="fill:none;stroke:#b0b0b0;stroke-linecap:square;stroke-width:0.8;"/>
     </g>
     <g id="line2d_10">
      <g>
       <use style="stroke:#000000;stroke-width:0.8;" x="218.221714" xlink:href="#mb81374c82c" y="298.944"/>
      </g>
     </g>
     <g id="text_3">
      <!-- 4 -->
      <defs>
       <path d="M 37.796875 64.3125 
L 12.890625 25.390625 
L 37.796875 25.390625 
z
M 35.203125 72.90625 
L 47.609375 72.90625 
L 47.609375 25.390625 
L 58.015625 25.390625 
L 58.015625 17.1875 
L 47.609375 17.1875 
L 47.609375 0 
L 37.796875 0 
L 37.796875 17.1875 
L 4.890625 17.1875 
L 4.890625 26.703125 
z
" id="DejaVuSans-52"/>
      </defs>
      <g transform="translate(211.859214 321.140875)scale(0.2 -0.2)">
       <use xlink:href="#DejaVuSans-52"/>
      </g>
     </g>
    </g>
    <g id="xtick_4">
     <g id="line2d_11">
      <path clip-path="url(#p0bcf7850f4)" d="M 298.532571 298.944 
L 298.532571 27.648 
" style="fill:none;stroke:#b0b0b0;stroke-linecap:square;stroke-width:0.8;"/>
     </g>
     <g id="line2d_12">
      <g>
       <use style="stroke:#000000;stroke-width:0.8;" x="298.532571" xlink:href="#mb81374c82c" y="298.944"/>
      </g>
     </g>
     <g id="text_4">
      <!-- 6 -->
      <defs>
       <path d="M 33.015625 40.375 
Q 26.375 40.375 22.484375 35.828125 
Q 18.609375 31.296875 18.609375 23.390625 
Q 18.609375 15.53125 22.484375 10.953125 
Q 26.375 6.390625 33.015625 6.390625 
Q 39.65625 6.390625 43.53125 10.953125 
Q 47.40625 15.53125 47.40625 23.390625 
Q 47.40625 31.296875 43.53125 35.828125 
Q 39.65625 40.375 33.015625 40.375 
z
M 52.59375 71.296875 
L 52.59375 62.3125 
Q 48.875 64.0625 45.09375 64.984375 
Q 41.3125 65.921875 37.59375 65.921875 
Q 27.828125 65.921875 22.671875 59.328125 
Q 17.53125 52.734375 16.796875 39.40625 
Q 19.671875 43.65625 24.015625 45.921875 
Q 28.375 48.1875 33.59375 48.1875 
Q 44.578125 48.1875 50.953125 41.515625 
Q 57.328125 34.859375 57.328125 23.390625 
Q 57.328125 12.15625 50.6875 5.359375 
Q 44.046875 -1.421875 33.015625 -1.421875 
Q 20.359375 -1.421875 13.671875 8.265625 
Q 6.984375 17.96875 6.984375 36.375 
Q 6.984375 53.65625 15.1875 63.9375 
Q 23.390625 74.21875 37.203125 74.21875 
Q 40.921875 74.21875 44.703125 73.484375 
Q 48.484375 72.75 52.59375 71.296875 
z
" id="DejaVuSans-54"/>
      </defs>
      <g transform="translate(292.170071 321.140875)scale(0.2 -0.2)">
       <use xlink:href="#DejaVuSans-54"/>
      </g>
     </g>
    </g>
    <g id="xtick_5">
     <g id="line2d_13">
      <path clip-path="url(#p0bcf7850f4)" d="M 97.755429 298.944 
L 97.755429 27.648 
" style="fill:none;stroke:#b0b0b0;stroke-linecap:square;stroke-width:0.8;"/>
     </g>
     <g id="line2d_14">
      <defs>
       <path d="M 0 0 
L 0 2 
" id="mc713ca5a7e" style="stroke:#000000;stroke-width:0.6;"/>
      </defs>
      <g>
       <use style="stroke:#000000;stroke-width:0.6;" x="97.755429" xlink:href="#mc713ca5a7e" y="298.944"/>
      </g>
     </g>
    </g>
    <g id="xtick_6">
     <g id="line2d_15">
      <path clip-path="url(#p0bcf7850f4)" d="M 178.066286 298.944 
L 178.066286 27.648 
" style="fill:none;stroke:#b0b0b0;stroke-linecap:square;stroke-width:0.8;"/>
     </g>
     <g id="line2d_16">
      <g>
       <use style="stroke:#000000;stroke-width:0.6;" x="178.066286" xlink:href="#mc713ca5a7e" y="298.944"/>
      </g>
     </g>
    </g>
    <g id="xtick_7">
     <g id="line2d_17">
      <path clip-path="url(#p0bcf7850f4)" d="M 258.377143 298.944 
L 258.377143 27.648 
" style="fill:none;stroke:#b0b0b0;stroke-linecap:square;stroke-width:0.8;"/>
     </g>
     <g id="line2d_18">
      <g>
       <use style="stroke:#000000;stroke-width:0.6;" x="258.377143" xlink:href="#mc713ca5a7e" y="298.944"/>
      </g>
     </g>
    </g>
    <g id="xtick_8">
     <g id="line2d_19">
      <path clip-path="url(#p0bcf7850f4)" d="M 338.688 298.944 
L 338.688 27.648 
" style="fill:none;stroke:#b0b0b0;stroke-linecap:square;stroke-width:0.8;"/>
     </g>
     <g id="line2d_20">
      <g>
       <use style="stroke:#000000;stroke-width:0.6;" x="338.688" xlink:href="#mc713ca5a7e" y="298.944"/>
      </g>
     </g>
    </g>
    <g id="text_5">
     <!-- log10(# f-evals / dimension) -->
     <defs>
      <path d="M 9.421875 75.984375 
L 18.40625 75.984375 
L 18.40625 0 
L 9.421875 0 
z
" id="DejaVuSans-108"/>
      <path d="M 30.609375 48.390625 
Q 23.390625 48.390625 19.1875 42.75 
Q 14.984375 37.109375 14.984375 27.296875 
Q 14.984375 17.484375 19.15625 11.84375 
Q 23.34375 6.203125 30.609375 6.203125 
Q 37.796875 6.203125 41.984375 11.859375 
Q 46.1875 17.53125 46.1875 27.296875 
Q 46.1875 37.015625 41.984375 42.703125 
Q 37.796875 48.390625 30.609375 48.390625 
z
M 30.609375 56 
Q 42.328125 56 49.015625 48.375 
Q 55.71875 40.765625 55.71875 27.296875 
Q 55.71875 13.875 49.015625 6.21875 
Q 42.328125 -1.421875 30.609375 -1.421875 
Q 18.84375 -1.421875 12.171875 6.21875 
Q 5.515625 13.875 5.515625 27.296875 
Q 5.515625 40.765625 12.171875 48.375 
Q 18.84375 56 30.609375 56 
z
" id="DejaVuSans-111"/>
      <path d="M 45.40625 27.984375 
Q 45.40625 37.75 41.375 43.109375 
Q 37.359375 48.484375 30.078125 48.484375 
Q 22.859375 48.484375 18.828125 43.109375 
Q 14.796875 37.75 14.796875 27.984375 
Q 14.796875 18.265625 18.828125 12.890625 
Q 22.859375 7.515625 30.078125 7.515625 
Q 37.359375 7.515625 41.375 12.890625 
Q 45.40625 18.265625 45.40625 27.984375 
z
M 54.390625 6.78125 
Q 54.390625 -7.171875 48.1875 -13.984375 
Q 42 -20.796875 29.203125 -20.796875 
Q 24.46875 -20.796875 20.265625 -20.09375 
Q 16.0625 -19.390625 12.109375 -17.921875 
L 12.109375 -9.1875 
Q 16.0625 -11.328125 19.921875 -12.34375 
Q 23.78125 -13.375 27.78125 -13.375 
Q 36.625 -13.375 41.015625 -8.765625 
Q 45.40625 -4.15625 45.40625 5.171875 
L 45.40625 9.625 
Q 42.625 4.78125 38.28125 2.390625 
Q 33.9375 0 27.875 0 
Q 17.828125 0 11.671875 7.65625 
Q 5.515625 15.328125 5.515625 27.984375 
Q 5.515625 40.671875 11.671875 48.328125 
Q 17.828125 56 27.875 56 
Q 33.9375 56 38.28125 53.609375 
Q 42.625 51.21875 45.40625 46.390625 
L 45.40625 54.6875 
L 54.390625 54.6875 
z
" id="DejaVuSans-103"/>
      <path d="M 12.40625 8.296875 
L 28.515625 8.296875 
L 28.515625 63.921875 
L 10.984375 60.40625 
L 10.984375 69.390625 
L 28.421875 72.90625 
L 38.28125 72.90625 
L 38.28125 8.296875 
L 54.390625 8.296875 
L 54.390625 0 
L 12.40625 0 
z
" id="DejaVuSans-49"/>
      <path d="M 31 75.875 
Q 24.46875 64.65625 21.28125 53.65625 
Q 18.109375 42.671875 18.109375 31.390625 
Q 18.109375 20.125 21.3125 9.0625 
Q 24.515625 -2 31 -13.1875 
L 23.1875 -13.1875 
Q 15.875 -1.703125 12.234375 9.375 
Q 8.59375 20.453125 8.59375 31.390625 
Q 8.59375 42.28125 12.203125 53.3125 
Q 15.828125 64.359375 23.1875 75.875 
z
" id="DejaVuSans-40"/>
      <path d="M 51.125 44 
L 36.921875 44 
L 32.8125 27.6875 
L 47.125 27.6875 
z
M 43.796875 71.78125 
L 38.71875 51.515625 
L 52.984375 51.515625 
L 58.109375 71.78125 
L 65.921875 71.78125 
L 60.890625 51.515625 
L 76.125 51.515625 
L 76.125 44 
L 58.984375 44 
L 54.984375 27.6875 
L 70.515625 27.6875 
L 70.515625 20.21875 
L 53.078125 20.21875 
L 48 0 
L 40.1875 0 
L 45.21875 20.21875 
L 30.90625 20.21875 
L 25.875 0 
L 18.015625 0 
L 23.09375 20.21875 
L 7.71875 20.21875 
L 7.71875 27.6875 
L 24.90625 27.6875 
L 29 44 
L 13.28125 44 
L 13.28125 51.515625 
L 30.90625 51.515625 
L 35.890625 71.78125 
z
" id="DejaVuSans-35"/>
      <path id="DejaVuSans-32"/>
      <path d="M 37.109375 75.984375 
L 37.109375 68.5 
L 28.515625 68.5 
Q 23.6875 68.5 21.796875 66.546875 
Q 19.921875 64.59375 19.921875 59.515625 
L 19.921875 54.6875 
L 34.71875 54.6875 
L 34.71875 47.703125 
L 19.921875 47.703125 
L 19.921875 0 
L 10.890625 0 
L 10.890625 47.703125 
L 2.296875 47.703125 
L 2.296875 54.6875 
L 10.890625 54.6875 
L 10.890625 58.5 
Q 10.890625 67.625 15.140625 71.796875 
Q 19.390625 75.984375 28.609375 75.984375 
z
" id="DejaVuSans-102"/>
      <path d="M 4.890625 31.390625 
L 31.203125 31.390625 
L 31.203125 23.390625 
L 4.890625 23.390625 
z
" id="DejaVuSans-45"/>
      <path d="M 56.203125 29.59375 
L 56.203125 25.203125 
L 14.890625 25.203125 
Q 15.484375 15.921875 20.484375 11.0625 
Q 25.484375 6.203125 34.421875 6.203125 
Q 39.59375 6.203125 44.453125 7.46875 
Q 49.3125 8.734375 54.109375 11.28125 
L 54.109375 2.78125 
Q 49.265625 0.734375 44.1875 -0.34375 
Q 39.109375 -1.421875 33.890625 -1.421875 
Q 20.796875 -1.421875 13.15625 6.1875 
Q 5.515625 13.8125 5.515625 26.8125 
Q 5.515625 40.234375 12.765625 48.109375 
Q 20.015625 56 32.328125 56 
Q 43.359375 56 49.78125 48.890625 
Q 56.203125 41.796875 56.203125 29.59375 
z
M 47.21875 32.234375 
Q 47.125 39.59375 43.09375 43.984375 
Q 39.0625 48.390625 32.421875 48.390625 
Q 24.90625 48.390625 20.390625 44.140625 
Q 15.875 39.890625 15.1875 32.171875 
z
" id="DejaVuSans-101"/>
      <path d="M 2.984375 54.6875 
L 12.5 54.6875 
L 29.59375 8.796875 
L 46.6875 54.6875 
L 56.203125 54.6875 
L 35.6875 0 
L 23.484375 0 
z
" id="DejaVuSans-118"/>
      <path d="M 34.28125 27.484375 
Q 23.390625 27.484375 19.1875 25 
Q 14.984375 22.515625 14.984375 16.5 
Q 14.984375 11.71875 18.140625 8.90625 
Q 21.296875 6.109375 26.703125 6.109375 
Q 34.1875 6.109375 38.703125 11.40625 
Q 43.21875 16.703125 43.21875 25.484375 
L 43.21875 27.484375 
z
M 52.203125 31.203125 
L 52.203125 0 
L 43.21875 0 
L 43.21875 8.296875 
Q 40.140625 3.328125 35.546875 0.953125 
Q 30.953125 -1.421875 24.3125 -1.421875 
Q 15.921875 -1.421875 10.953125 3.296875 
Q 6 8.015625 6 15.921875 
Q 6 25.140625 12.171875 29.828125 
Q 18.359375 34.515625 30.609375 34.515625 
L 43.21875 34.515625 
L 43.21875 35.40625 
Q 43.21875 41.609375 39.140625 45 
Q 35.0625 48.390625 27.6875 48.390625 
Q 23 48.390625 18.546875 47.265625 
Q 14.109375 46.140625 10.015625 43.890625 
L 10.015625 52.203125 
Q 14.9375 54.109375 19.578125 55.046875 
Q 24.21875 56 28.609375 56 
Q 40.484375 56 46.34375 49.84375 
Q 52.203125 43.703125 52.203125 31.203125 
z
" id="DejaVuSans-97"/>
      <path d="M 44.28125 53.078125 
L 44.28125 44.578125 
Q 40.484375 46.53125 36.375 47.5 
Q 32.28125 48.484375 27.875 48.484375 
Q 21.1875 48.484375 17.84375 46.4375 
Q 14.5 44.390625 14.5 40.28125 
Q 14.5 37.15625 16.890625 35.375 
Q 19.28125 33.59375 26.515625 31.984375 
L 29.59375 31.296875 
Q 39.15625 29.25 43.1875 25.515625 
Q 47.21875 21.78125 47.21875 15.09375 
Q 47.21875 7.46875 41.1875 3.015625 
Q 35.15625 -1.421875 24.609375 -1.421875 
Q 20.21875 -1.421875 15.453125 -0.5625 
Q 10.6875 0.296875 5.421875 2 
L 5.421875 11.28125 
Q 10.40625 8.6875 15.234375 7.390625 
Q 20.0625 6.109375 24.8125 6.109375 
Q 31.15625 6.109375 34.5625 8.28125 
Q 37.984375 10.453125 37.984375 14.40625 
Q 37.984375 18.0625 35.515625 20.015625 
Q 33.0625 21.96875 24.703125 23.78125 
L 21.578125 24.515625 
Q 13.234375 26.265625 9.515625 29.90625 
Q 5.8125 33.546875 5.8125 39.890625 
Q 5.8125 47.609375 11.28125 51.796875 
Q 16.75 56 26.8125 56 
Q 31.78125 56 36.171875 55.265625 
Q 40.578125 54.546875 44.28125 53.078125 
z
" id="DejaVuSans-115"/>
      <path d="M 25.390625 72.90625 
L 33.6875 72.90625 
L 8.296875 -9.28125 
L 0 -9.28125 
z
" id="DejaVuSans-47"/>
      <path d="M 45.40625 46.390625 
L 45.40625 75.984375 
L 54.390625 75.984375 
L 54.390625 0 
L 45.40625 0 
L 45.40625 8.203125 
Q 42.578125 3.328125 38.25 0.953125 
Q 33.9375 -1.421875 27.875 -1.421875 
Q 17.96875 -1.421875 11.734375 6.484375 
Q 5.515625 14.40625 5.515625 27.296875 
Q 5.515625 40.1875 11.734375 48.09375 
Q 17.96875 56 27.875 56 
Q 33.9375 56 38.25 53.625 
Q 42.578125 51.265625 45.40625 46.390625 
z
M 14.796875 27.296875 
Q 14.796875 17.390625 18.875 11.75 
Q 22.953125 6.109375 30.078125 6.109375 
Q 37.203125 6.109375 41.296875 11.75 
Q 45.40625 17.390625 45.40625 27.296875 
Q 45.40625 37.203125 41.296875 42.84375 
Q 37.203125 48.484375 30.078125 48.484375 
Q 22.953125 48.484375 18.875 42.84375 
Q 14.796875 37.203125 14.796875 27.296875 
z
" id="DejaVuSans-100"/>
      <path d="M 9.421875 54.6875 
L 18.40625 54.6875 
L 18.40625 0 
L 9.421875 0 
z
M 9.421875 75.984375 
L 18.40625 75.984375 
L 18.40625 64.59375 
L 9.421875 64.59375 
z
" id="DejaVuSans-105"/>
      <path d="M 52 44.1875 
Q 55.375 50.25 60.0625 53.125 
Q 64.75 56 71.09375 56 
Q 79.640625 56 84.28125 50.015625 
Q 88.921875 44.046875 88.921875 33.015625 
L 88.921875 0 
L 79.890625 0 
L 79.890625 32.71875 
Q 79.890625 40.578125 77.09375 44.375 
Q 74.3125 48.1875 68.609375 48.1875 
Q 61.625 48.1875 57.5625 43.546875 
Q 53.515625 38.921875 53.515625 30.90625 
L 53.515625 0 
L 44.484375 0 
L 44.484375 32.71875 
Q 44.484375 40.625 41.703125 44.40625 
Q 38.921875 48.1875 33.109375 48.1875 
Q 26.21875 48.1875 22.15625 43.53125 
Q 18.109375 38.875 18.109375 30.90625 
L 18.109375 0 
L 9.078125 0 
L 9.078125 54.6875 
L 18.109375 54.6875 
L 18.109375 46.1875 
Q 21.1875 51.21875 25.484375 53.609375 
Q 29.78125 56 35.6875 56 
Q 41.65625 56 45.828125 52.96875 
Q 50 49.953125 52 44.1875 
z
" id="DejaVuSans-109"/>
      <path d="M 54.890625 33.015625 
L 54.890625 0 
L 45.90625 0 
L 45.90625 32.71875 
Q 45.90625 40.484375 42.875 44.328125 
Q 39.84375 48.1875 33.796875 48.1875 
Q 26.515625 48.1875 22.3125 43.546875 
Q 18.109375 38.921875 18.109375 30.90625 
L 18.109375 0 
L 9.078125 0 
L 9.078125 54.6875 
L 18.109375 54.6875 
L 18.109375 46.1875 
Q 21.34375 51.125 25.703125 53.5625 
Q 30.078125 56 35.796875 56 
Q 45.21875 56 50.046875 50.171875 
Q 54.890625 44.34375 54.890625 33.015625 
z
" id="DejaVuSans-110"/>
      <path d="M 8.015625 75.875 
L 15.828125 75.875 
Q 23.140625 64.359375 26.78125 53.3125 
Q 30.421875 42.28125 30.421875 31.390625 
Q 30.421875 20.453125 26.78125 9.375 
Q 23.140625 -1.703125 15.828125 -13.1875 
L 8.015625 -13.1875 
Q 14.5 -2 17.703125 9.0625 
Q 20.90625 20.125 20.90625 31.390625 
Q 20.90625 42.671875 17.703125 53.65625 
Q 14.5 64.65625 8.015625 75.875 
z
" id="DejaVuSans-41"/>
     </defs>
     <g transform="translate(77.303219 342.217594)scale(0.17 -0.17)">
      <use xlink:href="#DejaVuSans-108"/>
      <use x="27.783203" xlink:href="#DejaVuSans-111"/>
      <use x="88.964844" xlink:href="#DejaVuSans-103"/>
      <use x="152.441406" xlink:href="#DejaVuSans-49"/>
      <use x="216.064453" xlink:href="#DejaVuSans-48"/>
      <use x="279.6875" xlink:href="#DejaVuSans-40"/>
      <use x="318.701172" xlink:href="#DejaVuSans-35"/>
      <use x="402.490234" xlink:href="#DejaVuSans-32"/>
      <use x="434.277344" xlink:href="#DejaVuSans-102"/>
      <use x="469.404297" xlink:href="#DejaVuSans-45"/>
      <use x="505.488281" xlink:href="#DejaVuSans-101"/>
      <use x="567.011719" xlink:href="#DejaVuSans-118"/>
      <use x="626.191406" xlink:href="#DejaVuSans-97"/>
      <use x="687.470703" xlink:href="#DejaVuSans-108"/>
      <use x="715.253906" xlink:href="#DejaVuSans-115"/>
      <use x="767.353516" xlink:href="#DejaVuSans-32"/>
      <use x="799.140625" xlink:href="#DejaVuSans-47"/>
      <use x="832.832031" xlink:href="#DejaVuSans-32"/>
      <use x="864.619141" xlink:href="#DejaVuSans-100"/>
      <use x="928.095703" xlink:href="#DejaVuSans-105"/>
      <use x="955.878906" xlink:href="#DejaVuSans-109"/>
      <use x="1053.291016" xlink:href="#DejaVuSans-101"/>
      <use x="1114.814453" xlink:href="#DejaVuSans-110"/>
      <use x="1178.193359" xlink:href="#DejaVuSans-115"/>
      <use x="1230.292969" xlink:href="#DejaVuSans-105"/>
      <use x="1258.076172" xlink:href="#DejaVuSans-111"/>
      <use x="1319.257812" xlink:href="#DejaVuSans-110"/>
      <use x="1382.636719" xlink:href="#DejaVuSans-41"/>
     </g>
    </g>
   </g>
   <g id="matplotlib.axis_2">
    <g id="ytick_1">
     <g id="line2d_21">
      <path clip-path="url(#p0bcf7850f4)" d="M 57.6 298.944 
L 338.688 298.944 
" style="fill:none;stroke:#b0b0b0;stroke-linecap:square;stroke-width:0.8;"/>
     </g>
     <g id="line2d_22">
      <defs>
       <path d="M 0 0 
L -3.5 0 
" id="m14e7dd3421" style="stroke:#000000;stroke-width:0.8;"/>
      </defs>
      <g>
       <use style="stroke:#000000;stroke-width:0.8;" x="57.6" xlink:href="#m14e7dd3421" y="298.944"/>
      </g>
     </g>
     <g id="text_6">
      <!-- 0.0 -->
      <defs>
       <path d="M 10.6875 12.40625 
L 21 12.40625 
L 21 0 
L 10.6875 0 
z
" id="DejaVuSans-46"/>
      </defs>
      <g transform="translate(25.155 305.02275)scale(0.16 -0.16)">
       <use xlink:href="#DejaVuSans-48"/>
       <use x="63.623047" xlink:href="#DejaVuSans-46"/>
       <use x="95.410156" xlink:href="#DejaVuSans-48"/>
      </g>
     </g>
    </g>
    <g id="ytick_2">
     <g id="line2d_23">
      <path clip-path="url(#p0bcf7850f4)" d="M 57.6 245.22202 
L 338.688 245.22202 
" style="fill:none;stroke:#b0b0b0;stroke-linecap:square;stroke-width:0.8;"/>
     </g>
     <g id="line2d_24">
      <g>
       <use style="stroke:#000000;stroke-width:0.8;" x="57.6" xlink:href="#m14e7dd3421" y="245.22202"/>
      </g>
     </g>
     <g id="text_7">
      <!-- 0.2 -->
      <g transform="translate(25.155 251.30077)scale(0.16 -0.16)">
       <use xlink:href="#DejaVuSans-48"/>
       <use x="63.623047" xlink:href="#DejaVuSans-46"/>
       <use x="95.410156" xlink:href="#DejaVuSans-50"/>
      </g>
     </g>
    </g>
    <g id="ytick_3">
     <g id="line2d_25">
      <path clip-path="url(#p0bcf7850f4)" d="M 57.6 191.50004 
L 338.688 191.50004 
" style="fill:none;stroke:#b0b0b0;stroke-linecap:square;stroke-width:0.8;"/>
     </g>
     <g id="line2d_26">
      <g>
       <use style="stroke:#000000;stroke-width:0.8;" x="57.6" xlink:href="#m14e7dd3421" y="191.50004"/>
      </g>
     </g>
     <g id="text_8">
      <!-- 0.4 -->
      <g transform="translate(25.155 197.57879)scale(0.16 -0.16)">
       <use xlink:href="#DejaVuSans-48"/>
       <use x="63.623047" xlink:href="#DejaVuSans-46"/>
       <use x="95.410156" xlink:href="#DejaVuSans-52"/>
      </g>
     </g>
    </g>
    <g id="ytick_4">
     <g id="line2d_27">
      <path clip-path="url(#p0bcf7850f4)" d="M 57.6 137.778059 
L 338.688 137.778059 
" style="fill:none;stroke:#b0b0b0;stroke-linecap:square;stroke-width:0.8;"/>
     </g>
     <g id="line2d_28">
      <g>
       <use style="stroke:#000000;stroke-width:0.8;" x="57.6" xlink:href="#m14e7dd3421" y="137.778059"/>
      </g>
     </g>
     <g id="text_9">
      <!-- 0.6 -->
      <g transform="translate(25.155 143.856809)scale(0.16 -0.16)">
       <use xlink:href="#DejaVuSans-48"/>
       <use x="63.623047" xlink:href="#DejaVuSans-46"/>
       <use x="95.410156" xlink:href="#DejaVuSans-54"/>
      </g>
     </g>
    </g>
    <g id="ytick_5">
     <g id="line2d_29">
      <path clip-path="url(#p0bcf7850f4)" d="M 57.6 84.056079 
L 338.688 84.056079 
" style="fill:none;stroke:#b0b0b0;stroke-linecap:square;stroke-width:0.8;"/>
     </g>
     <g id="line2d_30">
      <g>
       <use style="stroke:#000000;stroke-width:0.8;" x="57.6" xlink:href="#m14e7dd3421" y="84.056079"/>
      </g>
     </g>
     <g id="text_10">
      <!-- 0.8 -->
      <defs>
       <path d="M 31.78125 34.625 
Q 24.75 34.625 20.71875 30.859375 
Q 16.703125 27.09375 16.703125 20.515625 
Q 16.703125 13.921875 20.71875 10.15625 
Q 24.75 6.390625 31.78125 6.390625 
Q 38.8125 6.390625 42.859375 10.171875 
Q 46.921875 13.96875 46.921875 20.515625 
Q 46.921875 27.09375 42.890625 30.859375 
Q 38.875 34.625 31.78125 34.625 
z
M 21.921875 38.8125 
Q 15.578125 40.375 12.03125 44.71875 
Q 8.5 49.078125 8.5 55.328125 
Q 8.5 64.0625 14.71875 69.140625 
Q 20.953125 74.21875 31.78125 74.21875 
Q 42.671875 74.21875 48.875 69.140625 
Q 55.078125 64.0625 55.078125 55.328125 
Q 55.078125 49.078125 51.53125 44.71875 
Q 48 40.375 41.703125 38.8125 
Q 48.828125 37.15625 52.796875 32.3125 
Q 56.78125 27.484375 56.78125 20.515625 
Q 56.78125 9.90625 50.3125 4.234375 
Q 43.84375 -1.421875 31.78125 -1.421875 
Q 19.734375 -1.421875 13.25 4.234375 
Q 6.78125 9.90625 6.78125 20.515625 
Q 6.78125 27.484375 10.78125 32.3125 
Q 14.796875 37.15625 21.921875 38.8125 
z
M 18.3125 54.390625 
Q 18.3125 48.734375 21.84375 45.5625 
Q 25.390625 42.390625 31.78125 42.390625 
Q 38.140625 42.390625 41.71875 45.5625 
Q 45.3125 48.734375 45.3125 54.390625 
Q 45.3125 60.0625 41.71875 63.234375 
Q 38.140625 66.40625 31.78125 66.40625 
Q 25.390625 66.40625 21.84375 63.234375 
Q 18.3125 60.0625 18.3125 54.390625 
z
" id="DejaVuSans-56"/>
      </defs>
      <g transform="translate(25.155 90.134829)scale(0.16 -0.16)">
       <use xlink:href="#DejaVuSans-48"/>
       <use x="63.623047" xlink:href="#DejaVuSans-46"/>
       <use x="95.410156" xlink:href="#DejaVuSans-56"/>
      </g>
     </g>
    </g>
    <g id="ytick_6">
     <g id="line2d_31">
      <path clip-path="url(#p0bcf7850f4)" d="M 57.6 30.334099 
L 338.688 30.334099 
" style="fill:none;stroke:#b0b0b0;stroke-linecap:square;stroke-width:0.8;"/>
     </g>
     <g id="line2d_32">
      <g>
       <use style="stroke:#000000;stroke-width:0.8;" x="57.6" xlink:href="#m14e7dd3421" y="30.334099"/>
      </g>
     </g>
     <g id="text_11">
      <!-- 1.0 -->
      <g transform="translate(25.155 36.412849)scale(0.16 -0.16)">
       <use xlink:href="#DejaVuSans-49"/>
       <use x="63.623047" xlink:href="#DejaVuSans-46"/>
       <use x="95.410156" xlink:href="#DejaVuSans-48"/>
      </g>
     </g>
    </g>
    <g id="text_12">
     <!-- Fraction of function,target pairs -->
     <defs>
      <path d="M 9.8125 72.90625 
L 51.703125 72.90625 
L 51.703125 64.59375 
L 19.671875 64.59375 
L 19.671875 43.109375 
L 48.578125 43.109375 
L 48.578125 34.8125 
L 19.671875 34.8125 
L 19.671875 0 
L 9.8125 0 
z
" id="DejaVuSans-70"/>
      <path d="M 41.109375 46.296875 
Q 39.59375 47.171875 37.8125 47.578125 
Q 36.03125 48 33.890625 48 
Q 26.265625 48 22.1875 43.046875 
Q 18.109375 38.09375 18.109375 28.8125 
L 18.109375 0 
L 9.078125 0 
L 9.078125 54.6875 
L 18.109375 54.6875 
L 18.109375 46.1875 
Q 20.953125 51.171875 25.484375 53.578125 
Q 30.03125 56 36.53125 56 
Q 37.453125 56 38.578125 55.875 
Q 39.703125 55.765625 41.0625 55.515625 
z
" id="DejaVuSans-114"/>
      <path d="M 48.78125 52.59375 
L 48.78125 44.1875 
Q 44.96875 46.296875 41.140625 47.34375 
Q 37.3125 48.390625 33.40625 48.390625 
Q 24.65625 48.390625 19.8125 42.84375 
Q 14.984375 37.3125 14.984375 27.296875 
Q 14.984375 17.28125 19.8125 11.734375 
Q 24.65625 6.203125 33.40625 6.203125 
Q 37.3125 6.203125 41.140625 7.25 
Q 44.96875 8.296875 48.78125 10.40625 
L 48.78125 2.09375 
Q 45.015625 0.34375 40.984375 -0.53125 
Q 36.96875 -1.421875 32.421875 -1.421875 
Q 20.0625 -1.421875 12.78125 6.34375 
Q 5.515625 14.109375 5.515625 27.296875 
Q 5.515625 40.671875 12.859375 48.328125 
Q 20.21875 56 33.015625 56 
Q 37.15625 56 41.109375 55.140625 
Q 45.0625 54.296875 48.78125 52.59375 
z
" id="DejaVuSans-99"/>
      <path d="M 18.3125 70.21875 
L 18.3125 54.6875 
L 36.8125 54.6875 
L 36.8125 47.703125 
L 18.3125 47.703125 
L 18.3125 18.015625 
Q 18.3125 11.328125 20.140625 9.421875 
Q 21.96875 7.515625 27.59375 7.515625 
L 36.8125 7.515625 
L 36.8125 0 
L 27.59375 0 
Q 17.1875 0 13.234375 3.875 
Q 9.28125 7.765625 9.28125 18.015625 
L 9.28125 47.703125 
L 2.6875 47.703125 
L 2.6875 54.6875 
L 9.28125 54.6875 
L 9.28125 70.21875 
z
" id="DejaVuSans-116"/>
      <path d="M 8.5 21.578125 
L 8.5 54.6875 
L 17.484375 54.6875 
L 17.484375 21.921875 
Q 17.484375 14.15625 20.5 10.265625 
Q 23.53125 6.390625 29.59375 6.390625 
Q 36.859375 6.390625 41.078125 11.03125 
Q 45.3125 15.671875 45.3125 23.6875 
L 45.3125 54.6875 
L 54.296875 54.6875 
L 54.296875 0 
L 45.3125 0 
L 45.3125 8.40625 
Q 42.046875 3.421875 37.71875 1 
Q 33.40625 -1.421875 27.6875 -1.421875 
Q 18.265625 -1.421875 13.375 4.4375 
Q 8.5 10.296875 8.5 21.578125 
z
M 31.109375 56 
z
" id="DejaVuSans-117"/>
      <path d="M 11.71875 12.40625 
L 22.015625 12.40625 
L 22.015625 4 
L 14.015625 -11.625 
L 7.71875 -11.625 
L 11.71875 4 
z
" id="DejaVuSans-44"/>
      <path d="M 18.109375 8.203125 
L 18.109375 -20.796875 
L 9.078125 -20.796875 
L 9.078125 54.6875 
L 18.109375 54.6875 
L 18.109375 46.390625 
Q 20.953125 51.265625 25.265625 53.625 
Q 29.59375 56 35.59375 56 
Q 45.5625 56 51.78125 48.09375 
Q 58.015625 40.1875 58.015625 27.296875 
Q 58.015625 14.40625 51.78125 6.484375 
Q 45.5625 -1.421875 35.59375 -1.421875 
Q 29.59375 -1.421875 25.265625 0.953125 
Q 20.953125 3.328125 18.109375 8.203125 
z
M 48.6875 27.296875 
Q 48.6875 37.203125 44.609375 42.84375 
Q 40.53125 48.484375 33.40625 48.484375 
Q 26.265625 48.484375 22.1875 42.84375 
Q 18.109375 37.203125 18.109375 27.296875 
Q 18.109375 17.390625 22.1875 11.75 
Q 26.265625 6.109375 33.40625 6.109375 
Q 40.53125 6.109375 44.609375 11.75 
Q 48.6875 17.390625 48.6875 27.296875 
z
" id="DejaVuSans-112"/>
     </defs>
     <g transform="translate(17.619531 298.435375)rotate(-90)scale(0.17 -0.17)">
      <use xlink:href="#DejaVuSans-70"/>
      <use x="57.410156" xlink:href="#DejaVuSans-114"/>
      <use x="98.523438" xlink:href="#DejaVuSans-97"/>
      <use x="159.802734" xlink:href="#DejaVuSans-99"/>
      <use x="214.783203" xlink:href="#DejaVuSans-116"/>
      <use x="253.992188" xlink:href="#DejaVuSans-105"/>
      <use x="281.775391" xlink:href="#DejaVuSans-111"/>
      <use x="342.957031" xlink:href="#DejaVuSans-110"/>
      <use x="406.335938" xlink:href="#DejaVuSans-32"/>
      <use x="438.123047" xlink:href="#DejaVuSans-111"/>
      <use x="499.304688" xlink:href="#DejaVuSans-102"/>
      <use x="534.509766" xlink:href="#DejaVuSans-32"/>
      <use x="566.296875" xlink:href="#DejaVuSans-102"/>
      <use x="601.501953" xlink:href="#DejaVuSans-117"/>
      <use x="664.880859" xlink:href="#DejaVuSans-110"/>
      <use x="728.259766" xlink:href="#DejaVuSans-99"/>
      <use x="783.240234" xlink:href="#DejaVuSans-116"/>
      <use x="822.449219" xlink:href="#DejaVuSans-105"/>
      <use x="850.232422" xlink:href="#DejaVuSans-111"/>
      <use x="911.414062" xlink:href="#DejaVuSans-110"/>
      <use x="974.792969" xlink:href="#DejaVuSans-44"/>
      <use x="1006.580078" xlink:href="#DejaVuSans-116"/>
      <use x="1045.789062" xlink:href="#DejaVuSans-97"/>
      <use x="1107.068359" xlink:href="#DejaVuSans-114"/>
      <use x="1148.166016" xlink:href="#DejaVuSans-103"/>
      <use x="1211.642578" xlink:href="#DejaVuSans-101"/>
      <use x="1273.166016" xlink:href="#DejaVuSans-116"/>
      <use x="1312.375" xlink:href="#DejaVuSans-32"/>
      <use x="1344.162109" xlink:href="#DejaVuSans-112"/>
      <use x="1407.638672" xlink:href="#DejaVuSans-97"/>
      <use x="1468.917969" xlink:href="#DejaVuSans-105"/>
      <use x="1496.701172" xlink:href="#DejaVuSans-114"/>
      <use x="1537.814453" xlink:href="#DejaVuSans-115"/>
     </g>
    </g>
   </g>
   <g id="line2d_33">
    <defs>
     <path d="M 0 1.5 
C 0.397805 1.5 0.77937 1.341951 1.06066 1.06066 
C 1.341951 0.77937 1.5 0.397805 1.5 0 
C 1.5 -0.397805 1.341951 -0.77937 1.06066 -1.06066 
C 0.77937 -1.341951 0.397805 -1.5 0 -1.5 
C -0.397805 -1.5 -0.77937 -1.341951 -1.06066 -1.06066 
C -1.341951 -0.77937 -1.5 -0.397805 -1.5 0 
C -1.5 0.397805 -1.341951 0.77937 -1.06066 1.06066 
C -0.77937 1.341951 -0.397805 1.5 0 1.5 
z
" id="m06ea81156f" style="stroke:#f5deb3;"/>
    </defs>
    <g>
     <use style="fill:#f5deb3;stroke:#f5deb3;" x="188.142081" xlink:href="#m06ea81156f" y="30.334099"/>
     <use style="fill:#f5deb3;stroke:#f5deb3;" x="188.142081" xlink:href="#m06ea81156f" y="30.334099"/>
    </g>
   </g>
   <g id="line2d_34">
    <defs>
     <path d="M 0 1.5 
C 0.397805 1.5 0.77937 1.341951 1.06066 1.06066 
C 1.341951 0.77937 1.5 0.397805 1.5 0 
C 1.5 -0.397805 1.341951 -0.77937 1.06066 -1.06066 
C 0.77937 -1.341951 0.397805 -1.5 0 -1.5 
C -0.397805 -1.5 -0.77937 -1.341951 -1.06066 -1.06066 
C -1.341951 -0.77937 -1.5 -0.397805 -1.5 0 
C -1.5 0.397805 -1.341951 0.77937 -1.06066 1.06066 
C -0.77937 1.341951 -0.397805 1.5 0 1.5 
z
" id="mc04a1da89c" style="stroke:#000080;"/>
    </defs>
    <g>
     <use style="fill:#000080;stroke:#000080;" x="182.831851" xlink:href="#mc04a1da89c" y="30.334099"/>
     <use style="fill:#000080;stroke:#000080;" x="182.831851" xlink:href="#mc04a1da89c" y="30.334099"/>
    </g>
   </g>
   <g id="line2d_35">
    <path d="M 165.41562 298.944 
L 165.41562 298.417314 
L 166.086087 298.417314 
L 166.086087 297.890628 
L 166.621147 297.890628 
L 166.621147 297.363942 
L 166.846593 297.363942 
L 166.846593 296.837256 
L 167.50276 296.837256 
L 167.611084 295.783884 
L 167.872729 295.783884 
L 167.872729 295.257197 
L 168.152074 295.257197 
L 168.152074 294.730511 
L 168.772135 294.730511 
L 168.772135 294.203825 
L 168.888381 294.203825 
L 168.888381 293.677139 
L 169.228196 293.677139 
L 169.301859 292.623767 
L 169.533804 292.623767 
L 169.533804 292.097081 
L 169.685327 292.097081 
L 169.793559 291.043709 
L 169.86069 291.043709 
L 169.881615 289.990337 
L 170.40758 289.990337 
L 170.40758 289.463651 
L 170.529578 289.463651 
L 170.566481 287.883592 
L 170.744526 287.883592 
L 170.786935 286.303534 
L 170.866174 286.303534 
L 170.866174 285.776848 
L 171.002022 285.776848 
L 171.048375 284.723476 
L 171.271871 284.723476 
L 171.378396 283.670104 
L 171.709195 283.670104 
L 171.807473 282.616732 
L 172.044307 282.616732 
L 172.147455 281.036673 
L 172.172535 281.036673 
L 172.230511 278.929929 
L 172.388202 278.929929 
L 172.470121 277.349871 
L 172.516333 277.349871 
L 172.53131 276.296499 
L 172.845839 276.296499 
L 172.933251 274.189754 
L 173.223419 274.189754 
L 173.223419 273.663068 
L 173.339292 273.663068 
L 173.339292 273.136382 
L 173.515065 273.136382 
L 173.60933 271.556324 
L 173.693567 271.556324 
L 173.797459 269.976266 
L 173.882457 269.976266 
L 173.905165 268.922893 
L 174.148098 268.922893 
L 174.16501 267.869521 
L 174.348889 267.869521 
L 174.401148 266.289463 
L 174.486473 266.289463 
L 174.579904 264.182719 
L 174.598531 264.182719 
L 174.697184 263.129347 
L 174.731 263.129347 
L 174.781603 261.022602 
L 174.859328 261.022602 
L 174.859852 259.96923 
L 175.021016 259.96923 
L 175.021016 259.442544 
L 175.231047 259.442544 
L 175.281755 256.809114 
L 175.366451 256.809114 
L 175.380188 255.755741 
L 175.489698 255.755741 
L 175.489698 255.229055 
L 175.630638 255.229055 
L 175.698686 253.122311 
L 175.78089 253.122311 
L 175.820607 251.015567 
L 175.9052 251.015567 
L 175.997732 248.908822 
L 176.017356 248.908822 
L 176.09417 247.328764 
L 176.18425 247.328764 
L 176.18425 246.802078 
L 176.341863 246.802078 
L 176.36543 244.168648 
L 176.482793 244.168648 
L 176.554735 242.061903 
L 176.796016 242.061903 
L 176.796016 241.535217 
L 176.946825 241.535217 
L 177.054808 240.481845 
L 177.095419 240.481845 
L 177.186447 238.375101 
L 177.279284 238.375101 
L 177.383874 236.268356 
L 177.400641 236.268356 
L 177.465292 234.688298 
L 177.646658 234.688298 
L 177.748631 231.528182 
L 177.801387 231.528182 
L 177.896739 228.894751 
L 178.077618 228.894751 
L 178.161072 227.314693 
L 178.247581 227.314693 
L 178.289814 224.681263 
L 178.363262 224.681263 
L 178.453468 221.521146 
L 178.476478 221.521146 
L 178.547874 218.887716 
L 178.620669 218.887716 
L 178.70199 216.254285 
L 178.763676 216.254285 
L 178.869335 214.674227 
L 178.89222 214.674227 
L 178.995038 210.987425 
L 179.017759 210.987425 
L 179.08122 209.407366 
L 179.165749 209.407366 
L 179.240091 207.300622 
L 179.301124 207.300622 
L 179.369229 203.613819 
L 179.420941 203.613819 
L 179.531123 199.400331 
L 179.554357 199.400331 
L 179.662111 196.240214 
L 179.691925 196.240214 
L 179.784222 192.553412 
L 179.804754 192.553412 
L 179.894103 189.393295 
L 179.929793 189.393295 
L 180.037206 185.179807 
L 180.062498 185.179807 
L 180.168326 183.073062 
L 180.193043 183.073062 
L 180.302687 176.226143 
L 180.329512 176.226143 
L 180.418504 170.432596 
L 180.463781 170.432596 
L 180.535829 166.745794 
L 180.59099 166.745794 
L 180.679412 160.952247 
L 180.707163 160.952247 
L 180.787915 157.265444 
L 180.818845 157.265444 
L 180.914271 154.105328 
L 180.939432 154.105328 
L 181.046701 148.838467 
L 181.085612 148.838467 
L 181.160983 144.624978 
L 181.213477 144.624978 
L 181.309308 138.304745 
L 181.328845 138.304745 
L 181.437346 131.984513 
L 181.447764 131.984513 
L 181.542319 125.66428 
L 181.561954 125.66428 
L 181.671501 113.023814 
L 181.694532 113.023814 
L 181.805363 98.803289 
L 181.80853 98.803289 
L 181.914096 87.216196 
L 181.925282 87.216196 
L 182.031882 76.155788 
L 182.037438 76.155788 
L 182.134038 66.148752 
L 182.155432 66.148752 
L 182.263039 55.088345 
L 182.268522 55.088345 
L 182.37237 48.768112 
L 182.396875 48.768112 
L 182.50064 41.394507 
L 182.517199 41.394507 
L 182.62831 34.547588 
L 182.630324 34.547588 
L 182.731045 31.914157 
L 182.767709 31.914157 
L 182.831851 30.334099 
L 338.688 30.334099 
L 338.688 30.334099 
" style="fill:none;stroke:#000080;stroke-linecap:square;stroke-width:1.5;"/>
   </g>
   <g id="line2d_36">
    <defs>
     <path d="M 0 6 
C 1.591219 6 3.117479 5.367802 4.242641 4.242641 
C 5.367802 3.117479 6 1.591219 6 0 
C 6 -1.591219 5.367802 -3.117479 4.242641 -4.242641 
C 3.117479 -5.367802 1.591219 -6 0 -6 
C -1.591219 -6 -3.117479 -5.367802 -4.242641 -4.242641 
C -5.367802 -3.117479 -6 -1.591219 -6 0 
C -6 1.591219 -5.367802 3.117479 -4.242641 4.242641 
C -3.117479 5.367802 -1.591219 6 0 6 
z
" id="md877adceba" style="stroke:#000080;stroke-width:1.5;"/>
    </defs>
    <g>
     <use style="fill-opacity:0;stroke:#000080;stroke-width:1.5;" x="182.831851" xlink:href="#md877adceba" y="30.860785"/>
     <use style="fill-opacity:0;stroke:#000080;stroke-width:1.5;" x="182.831851" xlink:href="#md877adceba" y="30.334099"/>
     <use style="fill-opacity:0;stroke:#000080;stroke-width:1.5;" x="182.831851" xlink:href="#md877adceba" y="30.334099"/>
     <use style="fill-opacity:0;stroke:#000080;stroke-width:1.5;" x="338.688" xlink:href="#md877adceba" y="30.334099"/>
    </g>
   </g>
   <g id="line2d_37">
    <path style="fill:none;stroke:#000080;stroke-linecap:square;stroke-width:1.5;"/>
    <g/>
   </g>
   <g id="line2d_38">
    <g>
     <use style="fill:#000080;stroke:#000080;" x="183.213128" xlink:href="#mc04a1da89c" y="30.334099"/>
     <use style="fill:#000080;stroke:#000080;" x="183.213128" xlink:href="#mc04a1da89c" y="30.334099"/>
    </g>
   </g>
   <g id="line2d_39">
    <path d="M 166.138005 298.944 
L 166.138005 298.417314 
L 166.881402 298.417314 
L 166.881402 297.890628 
L 168.264866 297.890628 
L 168.264866 297.363942 
L 168.501115 297.363942 
L 168.501115 296.837256 
L 168.900184 296.837256 
L 168.900184 296.31057 
L 169.175285 296.31057 
L 169.175285 295.783884 
L 169.442539 295.783884 
L 169.442539 295.257197 
L 169.562226 295.257197 
L 169.562226 294.730511 
L 169.894855 294.730511 
L 169.964373 292.097081 
L 170.02532 292.097081 
L 170.02532 291.570395 
L 170.464978 291.570395 
L 170.503363 290.517023 
L 170.733908 290.517023 
L 170.811405 288.936964 
L 170.857608 288.936964 
L 170.958168 287.356906 
L 171.023582 287.356906 
L 171.023582 286.83022 
L 171.180875 286.83022 
L 171.273158 285.250162 
L 171.314302 285.250162 
L 171.392465 283.670104 
L 171.607834 283.670104 
L 171.708567 282.090045 
L 171.724881 282.090045 
L 171.747445 281.036673 
L 172.239038 281.036673 
L 172.278575 279.983301 
L 172.420172 279.983301 
L 172.512736 278.929929 
L 172.570191 278.929929 
L 172.654236 277.349871 
L 172.681567 277.349871 
L 172.740836 275.243126 
L 172.799904 275.243126 
L 172.799904 274.71644 
L 172.97942 274.71644 
L 172.97942 274.189754 
L 173.091121 274.189754 
L 173.17443 272.609696 
L 173.225146 272.609696 
L 173.225146 272.08301 
L 173.355293 272.08301 
L 173.434509 270.502952 
L 173.591307 270.502952 
L 173.626773 268.922893 
L 173.743356 268.922893 
L 173.808037 267.869521 
L 173.855281 267.869521 
L 173.943312 266.816149 
L 173.995698 266.816149 
L 174.092336 265.236091 
L 174.113678 265.236091 
L 174.140455 264.182719 
L 174.253123 264.182719 
L 174.294307 263.129347 
L 174.405989 263.129347 
L 174.45486 262.075974 
L 174.536188 262.075974 
L 174.629884 261.022602 
L 174.690307 261.022602 
L 174.752102 259.96923 
L 174.848844 259.96923 
L 174.893355 258.389172 
L 175.037103 258.389172 
L 175.134344 256.809114 
L 175.212571 256.809114 
L 175.274081 255.755741 
L 175.449725 255.755741 
L 175.454284 254.175683 
L 175.630137 254.175683 
L 175.734106 253.122311 
L 175.743572 253.122311 
L 175.803242 251.015567 
L 175.960384 251.015567 
L 176.03304 249.435508 
L 176.078541 249.435508 
L 176.178421 247.328764 
L 176.219183 247.328764 
L 176.297045 245.22202 
L 176.368794 245.22202 
L 176.474197 243.115275 
L 176.600319 243.115275 
L 176.698206 241.008531 
L 176.739184 241.008531 
L 176.820383 239.955159 
L 176.852664 239.955159 
L 176.913787 238.901787 
L 176.989078 238.901787 
L 177.099567 237.321729 
L 177.152941 237.321729 
L 177.215769 234.688298 
L 177.305718 234.688298 
L 177.411508 231.528182 
L 177.48108 231.528182 
L 177.569225 229.948123 
L 177.666298 229.948123 
L 177.69527 227.841379 
L 177.781899 227.841379 
L 177.892777 224.681263 
L 177.917858 224.681263 
L 177.993324 223.101204 
L 178.030498 223.101204 
L 178.122437 220.99446 
L 178.14936 220.99446 
L 178.259658 217.834344 
L 178.266124 217.834344 
L 178.322925 215.727599 
L 178.385108 215.727599 
L 178.460289 212.040797 
L 178.62658 212.040797 
L 178.730553 208.353994 
L 178.885982 208.353994 
L 178.985942 205.720564 
L 179.0223 205.720564 
L 179.09972 202.033761 
L 179.14363 202.033761 
L 179.246204 196.7669 
L 179.276737 196.7669 
L 179.349393 193.606784 
L 179.40399 193.606784 
L 179.499828 190.446667 
L 179.542343 190.446667 
L 179.640613 186.759865 
L 179.668873 186.759865 
L 179.770389 183.599748 
L 179.786593 183.599748 
L 179.8835 182.546376 
L 179.937627 182.546376 
L 180.048495 180.439632 
L 180.079986 180.439632 
L 180.158661 178.859574 
L 180.222349 178.859574 
L 180.322618 176.752829 
L 180.335255 176.752829 
L 180.446293 173.066027 
L 180.45808 173.066027 
L 180.566076 167.799166 
L 180.571363 167.799166 
L 180.674157 162.532305 
L 180.718401 162.532305 
L 180.824429 156.212072 
L 180.834847 156.212072 
L 180.934995 152.52527 
L 180.948674 152.52527 
L 181.056254 147.258409 
L 181.060293 147.258409 
L 181.170838 143.04492 
L 181.186521 143.04492 
L 181.295546 137.251373 
L 181.300255 137.251373 
L 181.401374 133.037885 
L 181.419009 133.037885 
L 181.507637 126.717652 
L 181.543748 126.717652 
L 181.646664 120.397419 
L 181.670083 120.397419 
L 181.77825 114.603872 
L 181.807122 114.603872 
L 181.916893 106.703581 
L 181.925282 106.703581 
L 182.028062 96.169859 
L 182.045769 96.169859 
L 182.146463 88.269568 
L 182.157156 88.269568 
L 182.268179 79.315904 
L 182.271262 79.315904 
L 182.380542 68.782183 
L 182.382925 68.782183 
L 182.480343 58.775147 
L 182.494215 58.775147 
L 182.598413 49.821484 
L 182.610512 49.821484 
L 182.719363 44.027937 
L 182.722368 44.027937 
L 182.811271 39.814448 
L 182.840474 39.814448 
L 182.92251 36.127646 
L 182.956139 36.127646 
L 183.060896 32.967529 
L 183.088703 32.967529 
L 183.143208 30.860785 
L 183.213128 30.860785 
L 183.213128 30.334099 
L 338.688 30.334099 
L 338.688 30.334099 
" style="fill:none;stroke:#000080;stroke-linecap:square;stroke-width:1.5;"/>
   </g>
   <g id="line2d_40">
    <g>
     <use style="fill-opacity:0;stroke:#000080;stroke-width:1.5;" x="180.952" xlink:href="#md877adceba" y="151.998584"/>
     <use style="fill-opacity:0;stroke:#000080;stroke-width:1.5;" x="183.213128" xlink:href="#md877adceba" y="30.860785"/>
     <use style="fill-opacity:0;stroke:#000080;stroke-width:1.5;" x="183.213128" xlink:href="#md877adceba" y="30.334099"/>
     <use style="fill-opacity:0;stroke:#000080;stroke-width:1.5;" x="338.688" xlink:href="#md877adceba" y="30.334099"/>
    </g>
   </g>
   <g id="line2d_41">
    <path style="fill:none;stroke:#000080;stroke-linecap:square;stroke-width:1.5;"/>
    <g/>
   </g>
   <g id="line2d_42">
    <defs>
     <path d="M 0 1.5 
C 0.397805 1.5 0.77937 1.341951 1.06066 1.06066 
C 1.341951 0.77937 1.5 0.397805 1.5 0 
C 1.5 -0.397805 1.341951 -0.77937 1.06066 -1.06066 
C 0.77937 -1.341951 0.397805 -1.5 0 -1.5 
C -0.397805 -1.5 -0.77937 -1.341951 -1.06066 -1.06066 
C -1.341951 -0.77937 -1.5 -0.397805 -1.5 0 
C -1.5 0.397805 -1.341951 0.77937 -1.06066 1.06066 
C -0.77937 1.341951 -0.397805 1.5 0 1.5 
z
" id="m76e3a875b8" style="stroke:#ff00ff;"/>
    </defs>
    <g>
     <use style="fill:#ff00ff;stroke:#ff00ff;" x="188.485592" xlink:href="#m76e3a875b8" y="30.334099"/>
     <use style="fill:#ff00ff;stroke:#ff00ff;" x="188.485592" xlink:href="#m76e3a875b8" y="30.334099"/>
    </g>
   </g>
   <g id="line2d_43">
    <path d="M 175.869137 298.944 
L 175.869137 298.417314 
L 176.606483 298.417314 
L 176.606483 297.890628 
L 177.739305 297.890628 
L 177.739305 297.363942 
L 178.367548 297.363942 
L 178.367548 296.837256 
L 178.578807 296.837256 
L 178.60419 295.783884 
L 178.823058 295.783884 
L 178.831822 294.730511 
L 179.428604 294.730511 
L 179.446336 293.677139 
L 179.54755 293.677139 
L 179.637825 292.097081 
L 179.811067 292.097081 
L 179.88782 291.043709 
L 179.978699 291.043709 
L 180.004856 289.990337 
L 180.115298 289.990337 
L 180.115298 289.463651 
L 180.358207 289.463651 
L 180.466821 288.410278 
L 180.484667 288.410278 
L 180.484667 287.883592 
L 180.788661 287.883592 
L 180.792017 286.83022 
L 181.00623 286.83022 
L 181.0658 285.776848 
L 181.216025 285.776848 
L 181.216025 285.250162 
L 181.328483 285.250162 
L 181.328483 284.723476 
L 181.523735 284.723476 
L 181.533744 283.670104 
L 181.703736 283.670104 
L 181.777898 280.509987 
L 181.865776 280.509987 
L 181.972392 278.403243 
L 182.088402 278.403243 
L 182.102935 277.349871 
L 182.236972 277.349871 
L 182.306512 275.769812 
L 182.385648 275.769812 
L 182.483727 272.609696 
L 182.616895 272.609696 
L 182.674231 271.029638 
L 182.756384 271.029638 
L 182.756384 270.502952 
L 182.880879 270.502952 
L 182.987731 266.289463 
L 183.052381 266.289463 
L 183.150375 262.60266 
L 183.165027 262.60266 
L 183.258831 258.389172 
L 183.310871 258.389172 
L 183.416091 253.648997 
L 183.454545 253.648997 
L 183.54458 251.015567 
L 183.632568 251.015567 
L 183.684138 249.435508 
L 183.779283 249.435508 
L 183.806597 246.802078 
L 183.965855 246.802078 
L 184.028534 245.748706 
L 184.16398 245.748706 
L 184.232688 244.168648 
L 184.290756 244.168648 
L 184.349847 241.535217 
L 184.412376 241.535217 
L 184.522618 238.901787 
L 184.525328 238.901787 
L 184.633964 236.268356 
L 184.639946 236.268356 
L 184.736277 234.161612 
L 184.768071 234.161612 
L 184.856612 229.948123 
L 184.911759 229.948123 
L 185.017436 227.314693 
L 185.054856 227.314693 
L 185.116948 225.207949 
L 185.192443 225.207949 
L 185.286066 222.574518 
L 185.316012 222.574518 
L 185.415842 220.467774 
L 185.471532 220.467774 
L 185.543239 218.887716 
L 185.641216 218.887716 
L 185.748752 215.727599 
L 185.780716 215.727599 
L 185.888789 211.514111 
L 185.900756 211.514111 
L 186.003113 204.140506 
L 186.039307 204.140506 
L 186.142228 197.293586 
L 186.153474 197.293586 
L 186.235268 190.446667 
L 186.265808 190.446667 
L 186.366592 183.073062 
L 186.38392 183.073062 
L 186.486178 175.699457 
L 186.516282 175.699457 
L 186.625511 169.90591 
L 186.639649 169.90591 
L 186.716546 168.325852 
L 186.773268 168.325852 
L 186.870117 163.585677 
L 186.890895 163.585677 
L 187.001466 159.372189 
L 187.024436 159.372189 
L 187.125869 154.105328 
L 187.136758 154.105328 
L 187.234965 147.785095 
L 187.253768 147.785095 
L 187.350041 140.41149 
L 187.36693 140.41149 
L 187.465888 128.824396 
L 187.480125 128.824396 
L 187.590822 111.443755 
L 187.599405 111.443755 
L 187.7096 95.643173 
L 187.711356 95.643173 
L 187.816612 83.002707 
L 187.823839 83.002707 
L 187.928915 67.728811 
L 187.935601 67.728811 
L 188.043699 51.928228 
L 188.057717 51.928228 
L 188.167751 39.287762 
L 188.169949 39.287762 
L 188.267381 34.020902 
L 188.32558 34.020902 
L 188.402637 31.914157 
L 188.457263 31.914157 
L 188.485592 30.334099 
L 338.688 30.334099 
L 338.688 30.334099 
" style="fill:none;stroke:#ff00ff;stroke-linecap:square;stroke-width:1.5;"/>
   </g>
   <g id="line2d_44">
    <defs>
     <path d="M -0 8.485281 
L 5.091169 0 
L 0 -8.485281 
L -5.091169 -0 
z
" id="m16687ebdd3" style="stroke:#ff00ff;stroke-linejoin:miter;stroke-width:1.5;"/>
    </defs>
    <g>
     <use style="fill-opacity:0;stroke:#ff00ff;stroke-linejoin:miter;stroke-width:1.5;" x="187.57895" xlink:href="#m16687ebdd3" y="114.603872"/>
     <use style="fill-opacity:0;stroke:#ff00ff;stroke-linejoin:miter;stroke-width:1.5;" x="188.485592" xlink:href="#m16687ebdd3" y="30.334099"/>
     <use style="fill-opacity:0;stroke:#ff00ff;stroke-linejoin:miter;stroke-width:1.5;" x="188.485592" xlink:href="#m16687ebdd3" y="30.334099"/>
     <use style="fill-opacity:0;stroke:#ff00ff;stroke-linejoin:miter;stroke-width:1.5;" x="338.688" xlink:href="#m16687ebdd3" y="30.334099"/>
    </g>
   </g>
   <g id="line2d_45">
    <path style="fill:none;stroke:#ff00ff;stroke-linecap:square;stroke-width:1.5;"/>
    <g/>
   </g>
   <g id="line2d_46">
    <defs>
     <path d="M 0 1.5 
C 0.397805 1.5 0.77937 1.341951 1.06066 1.06066 
C 1.341951 0.77937 1.5 0.397805 1.5 0 
C 1.5 -0.397805 1.341951 -0.77937 1.06066 -1.06066 
C 0.77937 -1.341951 0.397805 -1.5 0 -1.5 
C -0.397805 -1.5 -0.77937 -1.341951 -1.06066 -1.06066 
C -1.341951 -0.77937 -1.5 -0.397805 -1.5 0 
C -1.5 0.397805 -1.341951 0.77937 -1.06066 1.06066 
C -0.77937 1.341951 -0.397805 1.5 0 1.5 
z
" id="m8daf52f6a7" style="stroke:#ff0000;"/>
    </defs>
    <g>
     <use style="fill:#ff0000;stroke:#ff0000;" x="184.260829" xlink:href="#m8daf52f6a7" y="30.334099"/>
     <use style="fill:#ff0000;stroke:#ff0000;" x="184.260829" xlink:href="#m8daf52f6a7" y="30.334099"/>
    </g>
   </g>
   <g id="line2d_47">
    <path d="M 169.958128 298.944 
L 169.958128 298.417314 
L 170.368983 298.417314 
L 170.368983 297.890628 
L 170.512106 297.890628 
L 170.512106 297.363942 
L 170.697358 297.363942 
L 170.773693 296.31057 
L 171.041201 296.31057 
L 171.041201 295.783884 
L 171.198983 295.783884 
L 171.291814 294.730511 
L 171.463914 294.730511 
L 171.501435 293.150453 
L 171.781236 293.150453 
L 171.883461 292.097081 
L 171.999296 292.097081 
L 171.999296 291.570395 
L 172.119886 291.570395 
L 172.15847 290.517023 
L 172.321054 290.517023 
L 172.420172 288.936964 
L 172.743203 288.936964 
L 172.799904 287.356906 
L 172.871698 287.356906 
L 172.950214 285.776848 
L 173.353579 285.776848 
L 173.408333 284.723476 
L 173.494678 284.723476 
L 173.494678 284.19679 
L 174.280229 284.19679 
L 174.280229 283.670104 
L 174.42319 283.670104 
L 174.473085 281.036673 
L 174.538323 281.036673 
L 174.643683 278.929929 
L 174.818933 278.929929 
L 174.909037 277.876557 
L 174.949224 277.876557 
L 174.949224 277.349871 
L 175.14208 277.349871 
L 175.14208 276.823185 
L 175.262821 276.823185 
L 175.327726 275.769812 
L 175.446686 275.769812 
L 175.526553 273.663068 
L 175.713162 273.663068 
L 175.713162 273.136382 
L 175.875565 273.136382 
L 175.875565 272.609696 
L 176.038428 272.609696 
L 176.119049 271.556324 
L 176.194931 271.556324 
L 176.273867 269.976266 
L 176.373599 269.976266 
L 176.467986 266.816149 
L 176.633009 266.816149 
L 176.689716 265.236091 
L 176.793672 265.236091 
L 176.866214 264.182719 
L 176.948684 264.182719 
L 176.948684 263.656033 
L 177.242757 263.656033 
L 177.327109 261.549288 
L 177.374351 261.549288 
L 177.374351 261.022602 
L 177.540042 261.022602 
L 177.636384 258.389172 
L 177.726862 258.389172 
L 177.820853 255.755741 
L 177.872068 255.755741 
L 177.979747 253.648997 
L 178.024818 253.648997 
L 178.10374 252.068939 
L 178.193563 252.068939 
L 178.296699 249.435508 
L 178.396235 249.435508 
L 178.485845 245.748706 
L 178.52071 245.748706 
L 178.617712 242.588589 
L 178.659059 242.588589 
L 178.688533 241.535217 
L 178.783353 241.535217 
L 178.843502 239.955159 
L 178.93707 239.955159 
L 179.023538 237.848415 
L 179.077517 237.848415 
L 179.155922 236.795043 
L 179.312088 236.795043 
L 179.421344 234.688298 
L 179.431426 234.688298 
L 179.535532 233.10824 
L 179.601931 233.10824 
L 179.662906 232.054868 
L 179.738333 232.054868 
L 179.839052 228.368065 
L 179.901168 228.368065 
L 179.98534 226.261321 
L 180.034869 226.261321 
L 180.141252 223.627891 
L 180.158275 223.627891 
L 180.265062 221.521146 
L 180.272363 221.521146 
L 180.340613 218.36103 
L 180.423456 218.36103 
L 180.489221 216.254285 
L 180.561542 216.254285 
L 180.655 213.094169 
L 180.672655 213.094169 
L 180.768135 209.934052 
L 180.808417 209.934052 
L 180.883138 206.24725 
L 180.945347 206.24725 
L 181.045599 202.033761 
L 181.080845 202.033761 
L 181.158793 199.400331 
L 181.194175 199.400331 
L 181.292648 195.186842 
L 181.33246 195.186842 
L 181.42836 190.446667 
L 181.45315 190.446667 
L 181.554459 185.179807 
L 181.57622 185.179807 
L 181.6676 179.912946 
L 181.699134 179.912946 
L 181.791284 176.226143 
L 181.815915 176.226143 
L 181.900454 170.959282 
L 181.939952 170.959282 
L 182.036744 166.745794 
L 182.061725 166.745794 
L 182.154397 162.532305 
L 182.180588 162.532305 
L 182.27366 159.372189 
L 182.310955 159.372189 
L 182.409115 156.738758 
L 182.43832 156.738758 
L 182.546898 152.52527 
L 182.562065 152.52527 
L 182.641059 148.311781 
L 182.674565 148.311781 
L 182.775032 143.04492 
L 182.80496 143.04492 
L 182.914258 136.198001 
L 182.91855 136.198001 
L 183.023532 127.244338 
L 183.033372 127.244338 
L 183.132451 120.924105 
L 183.149724 120.924105 
L 183.257213 107.756953 
L 183.261744 107.756953 
L 183.364686 91.429684 
L 183.374015 91.429684 
L 183.482052 77.20916 
L 183.487165 77.20916 
L 183.597045 61.935264 
L 183.606567 61.935264 
L 183.717593 54.034973 
L 183.722006 54.034973 
L 183.828542 46.661368 
L 183.834494 46.661368 
L 183.939724 38.23439 
L 183.964923 38.23439 
L 184.068444 34.020902 
L 184.097777 34.020902 
L 184.152297 31.387471 
L 184.243399 31.387471 
L 184.260829 30.334099 
L 338.688 30.334099 
L 338.688 30.334099 
" style="fill:none;stroke:#ff0000;stroke-linecap:square;stroke-width:1.5;"/>
   </g>
   <g id="line2d_48">
    <defs>
     <path d="M 0 -6 
L -5.196152 -3 
L -5.196152 3 
L -0 6 
L 5.196152 3 
L 5.196152 -3 
z
" id="m8782f7f2b8" style="stroke:#ff0000;stroke-linejoin:miter;stroke-width:1.5;"/>
    </defs>
    <g>
     <use style="fill-opacity:0;stroke:#ff0000;stroke-linejoin:miter;stroke-width:1.5;" x="183.243934" xlink:href="#m8782f7f2b8" y="109.337011"/>
     <use style="fill-opacity:0;stroke:#ff0000;stroke-linejoin:miter;stroke-width:1.5;" x="184.260829" xlink:href="#m8782f7f2b8" y="30.860785"/>
     <use style="fill-opacity:0;stroke:#ff0000;stroke-linejoin:miter;stroke-width:1.5;" x="184.260829" xlink:href="#m8782f7f2b8" y="30.334099"/>
     <use style="fill-opacity:0;stroke:#ff0000;stroke-linejoin:miter;stroke-width:1.5;" x="338.688" xlink:href="#m8782f7f2b8" y="30.334099"/>
    </g>
   </g>
   <g id="line2d_49">
    <path style="fill:none;stroke:#ff0000;stroke-linecap:square;stroke-width:1.5;"/>
    <g/>
   </g>
   <g id="line2d_50">
    <defs>
     <path d="M 0 1.5 
C 0.397805 1.5 0.77937 1.341951 1.06066 1.06066 
C 1.341951 0.77937 1.5 0.397805 1.5 0 
C 1.5 -0.397805 1.341951 -0.77937 1.06066 -1.06066 
C 0.77937 -1.341951 0.397805 -1.5 0 -1.5 
C -0.397805 -1.5 -0.77937 -1.341951 -1.06066 -1.06066 
C -1.341951 -0.77937 -1.5 -0.397805 -1.5 0 
C -1.5 0.397805 -1.341951 0.77937 -1.06066 1.06066 
C -0.77937 1.341951 -0.397805 1.5 0 1.5 
z
" id="m66d871651b" style="stroke:#ff7500;"/>
    </defs>
    <g>
     <use style="fill:#ff7500;stroke:#ff7500;" x="184.00932" xlink:href="#m66d871651b" y="30.334099"/>
     <use style="fill:#ff7500;stroke:#ff7500;" x="184.00932" xlink:href="#m66d871651b" y="30.334099"/>
    </g>
   </g>
   <g id="line2d_51">
    <path d="M 165.67307 298.944 
L 165.67307 298.417314 
L 168.002871 298.417314 
L 168.002871 297.890628 
L 168.60718 297.890628 
L 168.60718 297.363942 
L 168.878784 297.363942 
L 168.878784 296.837256 
L 169.683917 296.837256 
L 169.787953 295.783884 
L 170.300382 295.783884 
L 170.300382 295.257197 
L 170.433939 295.257197 
L 170.433939 294.730511 
L 170.722619 294.730511 
L 170.740545 293.677139 
L 171.036635 293.677139 
L 171.036635 293.150453 
L 171.18411 293.150453 
L 171.190578 292.097081 
L 171.30017 292.097081 
L 171.30017 291.570395 
L 171.487454 291.570395 
L 171.53951 290.517023 
L 171.662051 290.517023 
L 171.662051 289.990337 
L 171.843017 289.990337 
L 171.943643 287.356906 
L 172.202462 287.356906 
L 172.202462 286.83022 
L 172.314386 286.83022 
L 172.343465 285.776848 
L 172.702927 285.776848 
L 172.772758 283.670104 
L 172.942612 283.670104 
L 172.987589 282.616732 
L 173.147283 282.616732 
L 173.250449 281.036673 
L 173.446446 281.036673 
L 173.476535 279.456615 
L 173.574393 279.456615 
L 173.589616 278.403243 
L 173.730503 278.403243 
L 173.810263 276.296499 
L 173.963734 276.296499 
L 174.066582 275.243126 
L 174.116412 275.243126 
L 174.209122 274.189754 
L 174.254751 274.189754 
L 174.254751 273.663068 
L 174.485938 273.663068 
L 174.485938 273.136382 
L 174.602254 273.136382 
L 174.662242 270.502952 
L 174.856707 270.502952 
L 174.922095 268.922893 
L 174.972146 268.922893 
L 175.0454 266.816149 
L 175.169384 266.816149 
L 175.210516 265.762777 
L 175.361361 265.762777 
L 175.384257 264.182719 
L 175.479081 264.182719 
L 175.554772 262.60266 
L 175.619605 262.60266 
L 175.619605 262.075974 
L 175.738092 262.075974 
L 175.848355 261.022602 
L 175.977102 261.022602 
L 176.063876 258.389172 
L 176.156059 258.389172 
L 176.194446 257.3358 
L 176.311032 257.3358 
L 176.33753 256.282427 
L 176.475152 256.282427 
L 176.581815 252.595625 
L 176.609327 252.595625 
L 176.609327 251.542253 
L 176.801643 251.542253 
L 176.902139 250.488881 
L 176.916115 250.488881 
L 177.025214 248.382136 
L 177.056194 248.382136 
L 177.158913 246.275392 
L 177.195616 246.275392 
L 177.280652 243.641962 
L 177.307995 243.641962 
L 177.307995 243.115275 
L 177.424631 243.115275 
L 177.424631 242.588589 
L 177.570122 242.588589 
L 177.605075 241.535217 
L 177.686361 241.535217 
L 177.78057 238.375101 
L 177.840297 238.375101 
L 177.934998 237.321729 
L 177.968351 237.321729 
L 178.071517 235.214984 
L 178.12852 235.214984 
L 178.174075 232.581554 
L 178.240244 232.581554 
L 178.34997 229.421437 
L 178.354259 229.421437 
L 178.458157 227.314693 
L 178.473497 227.314693 
L 178.537268 224.154577 
L 178.602499 224.154577 
L 178.683905 222.047832 
L 178.732231 222.047832 
L 178.83224 219.414402 
L 178.85559 219.414402 
L 178.949508 217.834344 
L 178.976841 217.834344 
L 179.082454 215.200913 
L 179.149368 215.200913 
L 179.21276 214.147541 
L 179.284463 214.147541 
L 179.385406 213.094169 
L 179.46566 213.094169 
L 179.537936 211.514111 
L 179.622678 211.514111 
L 179.729219 207.300622 
L 179.746253 207.300622 
L 179.855586 203.613819 
L 179.87289 203.613819 
L 179.943501 200.980389 
L 179.992759 200.980389 
L 180.062498 198.346959 
L 180.128474 198.346959 
L 180.219652 194.660156 
L 180.256605 194.660156 
L 180.365851 190.973354 
L 180.388763 190.973354 
L 180.492636 187.813237 
L 180.507424 187.813237 
L 180.594007 185.706493 
L 180.627542 185.706493 
L 180.735618 182.01969 
L 180.765895 182.01969 
L 180.872006 178.859574 
L 180.877944 178.859574 
L 180.966404 175.172771 
L 180.996651 175.172771 
L 181.098807 173.066027 
L 181.167919 173.066027 
L 181.267265 167.799166 
L 181.298807 167.799166 
L 181.382639 163.585677 
L 181.412533 163.585677 
L 181.52302 156.738758 
L 181.524093 156.738758 
L 181.626414 152.52527 
L 181.661216 152.52527 
L 181.769085 146.205037 
L 181.777898 146.205037 
L 181.888902 139.358118 
L 181.895554 139.358118 
L 182.001641 131.457826 
L 182.011032 131.457826 
L 182.112963 122.504163 
L 182.126786 122.504163 
L 182.228045 112.497128 
L 182.238344 112.497128 
L 182.340325 101.43672 
L 182.360786 101.43672 
L 182.465782 92.483056 
L 182.47391 92.483056 
L 182.570486 85.636137 
L 182.586979 85.636137 
L 182.696644 75.629102 
L 182.699318 75.629102 
L 182.810275 66.675439 
L 182.812932 66.675439 
L 182.917889 58.775147 
L 182.92515 58.775147 
L 183.03206 50.874856 
L 183.041896 50.874856 
L 183.149724 45.081309 
L 183.164376 45.081309 
L 183.273715 40.867821 
L 183.27889 40.867821 
L 183.37305 39.287762 
L 183.406785 39.287762 
L 183.470862 36.654332 
L 183.537573 36.654332 
L 183.639221 35.074274 
L 183.685718 35.074274 
L 183.750039 33.494215 
L 183.837939 33.494215 
L 183.948439 31.387471 
L 183.976421 31.387471 
L 184.00932 30.334099 
L 338.688 30.334099 
L 338.688 30.334099 
" style="fill:none;stroke:#ff7500;stroke-linecap:square;stroke-width:1.5;"/>
   </g>
   <g id="line2d_52">
    <defs>
     <path d="M 0 -6 
L -1.347084 -1.854102 
L -5.706339 -1.854102 
L -2.179628 0.708204 
L -3.526712 4.854102 
L -0 2.291796 
L 3.526712 4.854102 
L 2.179628 0.708204 
L 5.706339 -1.854102 
L 1.347084 -1.854102 
z
" id="m8d02266c5c" style="stroke:#ff7500;stroke-linejoin:bevel;stroke-width:1.5;"/>
    </defs>
    <g>
     <use style="fill-opacity:0;stroke:#ff7500;stroke-linejoin:bevel;stroke-width:1.5;" x="182.882533" xlink:href="#m8d02266c5c" y="61.935264"/>
     <use style="fill-opacity:0;stroke:#ff7500;stroke-linejoin:bevel;stroke-width:1.5;" x="184.00932" xlink:href="#m8d02266c5c" y="30.334099"/>
     <use style="fill-opacity:0;stroke:#ff7500;stroke-linejoin:bevel;stroke-width:1.5;" x="184.00932" xlink:href="#m8d02266c5c" y="30.334099"/>
     <use style="fill-opacity:0;stroke:#ff7500;stroke-linejoin:bevel;stroke-width:1.5;" x="338.688" xlink:href="#m8d02266c5c" y="30.334099"/>
    </g>
   </g>
   <g id="line2d_53">
    <path style="fill:none;stroke:#ff7500;stroke-linecap:square;stroke-width:1.5;"/>
    <g/>
   </g>
   <g id="line2d_54">
    <path d="M 338.688 30.334099 
L 369.60768 293.571802 
" style="fill:none;stroke:#ff00ff;stroke-linecap:square;stroke-width:1.5;"/>
    <g>
     <use style="fill-opacity:0;stroke:#ff00ff;stroke-linejoin:miter;stroke-width:1.5;" x="338.688" xlink:href="#m16687ebdd3" y="30.334099"/>
     <use style="fill-opacity:0;stroke:#ff00ff;stroke-linejoin:miter;stroke-width:1.5;" x="369.60768" xlink:href="#m16687ebdd3" y="293.571802"/>
    </g>
   </g>
   <g id="line2d_55">
    <path d="M 338.688 30.334099 
L 369.60768 190.4256 
" style="fill:none;stroke:#ff0000;stroke-linecap:square;stroke-width:1.5;"/>
    <g>
     <use style="fill-opacity:0;stroke:#ff0000;stroke-linejoin:miter;stroke-width:1.5;" x="338.688" xlink:href="#m8782f7f2b8" y="30.334099"/>
     <use style="fill-opacity:0;stroke:#ff0000;stroke-linejoin:miter;stroke-width:1.5;" x="369.60768" xlink:href="#m8782f7f2b8" y="190.4256"/>
    </g>
   </g>
   <g id="line2d_56">
    <path d="M 338.688 30.334099 
L 369.60768 138.852499 
" style="fill:none;stroke:#ff7500;stroke-linecap:square;stroke-width:1.5;"/>
    <g>
     <use style="fill-opacity:0;stroke:#ff7500;stroke-linejoin:bevel;stroke-width:1.5;" x="338.688" xlink:href="#m8d02266c5c" y="30.334099"/>
     <use style="fill-opacity:0;stroke:#ff7500;stroke-linejoin:bevel;stroke-width:1.5;" x="369.60768" xlink:href="#m8d02266c5c" y="138.852499"/>
    </g>
   </g>
   <g id="line2d_57">
    <path d="M 338.688 30.334099 
L 369.60768 87.279398 
" style="fill:none;stroke:#000080;stroke-linecap:square;stroke-width:1.5;"/>
    <g>
     <use style="fill-opacity:0;stroke:#000080;stroke-width:1.5;" x="338.688" xlink:href="#md877adceba" y="30.334099"/>
     <use style="fill-opacity:0;stroke:#000080;stroke-width:1.5;" x="369.60768" xlink:href="#md877adceba" y="87.279398"/>
    </g>
   </g>
   <g id="line2d_58">
    <path d="M 338.688 30.334099 
L 369.60768 35.706297 
" style="fill:none;stroke:#000080;stroke-linecap:square;stroke-width:1.5;"/>
    <g>
     <use style="fill-opacity:0;stroke:#000080;stroke-width:1.5;" x="338.688" xlink:href="#md877adceba" y="30.334099"/>
     <use style="fill-opacity:0;stroke:#000080;stroke-width:1.5;" x="369.60768" xlink:href="#md877adceba" y="35.706297"/>
    </g>
   </g>
   <g id="line2d_59">
    <path d="M 338.688 298.944 
L 338.688 30.334099 
" style="fill:none;stroke:#000000;stroke-linecap:square;stroke-width:1.5;"/>
   </g>
   <g id="patch_3">
    <path d="M 57.6 298.944 
L 57.6 27.648 
" style="fill:none;stroke:#000000;stroke-linecap:square;stroke-linejoin:miter;stroke-width:0.8;"/>
   </g>
   <g id="patch_4">
    <path d="M 338.688 298.944 
L 338.688 27.648 
" style="fill:none;stroke:#000000;stroke-linecap:square;stroke-linejoin:miter;stroke-width:0.8;"/>
   </g>
   <g id="patch_5">
    <path d="M 57.6 298.944 
L 338.688 298.944 
" style="fill:none;stroke:#000000;stroke-linecap:square;stroke-linejoin:miter;stroke-width:0.8;"/>
   </g>
   <g id="patch_6">
    <path d="M 57.6 27.648 
L 338.688 27.648 
" style="fill:none;stroke:#000000;stroke-linecap:square;stroke-linejoin:miter;stroke-width:0.8;"/>
   </g>
   <g id="text_13">
    <!-- 400s-2e4 -->
    <g transform="translate(375.22944 298.262739)scale(0.17 -0.17)">
     <use xlink:href="#DejaVuSans-52"/>
     <use x="63.623047" xlink:href="#DejaVuSans-48"/>
     <use x="127.246094" xlink:href="#DejaVuSans-48"/>
     <use x="190.869141" xlink:href="#DejaVuSans-115"/>
     <use x="242.96875" xlink:href="#DejaVuSans-45"/>
     <use x="279.052734" xlink:href="#DejaVuSans-50"/>
     <use x="342.675781" xlink:href="#DejaVuSans-101"/>
     <use x="404.199219" xlink:href="#DejaVuSans-52"/>
    </g>
   </g>
   <g id="text_14">
    <!-- best 2009 -->
    <defs>
     <path d="M 48.6875 27.296875 
Q 48.6875 37.203125 44.609375 42.84375 
Q 40.53125 48.484375 33.40625 48.484375 
Q 26.265625 48.484375 22.1875 42.84375 
Q 18.109375 37.203125 18.109375 27.296875 
Q 18.109375 17.390625 22.1875 11.75 
Q 26.265625 6.109375 33.40625 6.109375 
Q 40.53125 6.109375 44.609375 11.75 
Q 48.6875 17.390625 48.6875 27.296875 
z
M 18.109375 46.390625 
Q 20.953125 51.265625 25.265625 53.625 
Q 29.59375 56 35.59375 56 
Q 45.5625 56 51.78125 48.09375 
Q 58.015625 40.1875 58.015625 27.296875 
Q 58.015625 14.40625 51.78125 6.484375 
Q 45.5625 -1.421875 35.59375 -1.421875 
Q 29.59375 -1.421875 25.265625 0.953125 
Q 20.953125 3.328125 18.109375 8.203125 
L 18.109375 0 
L 9.078125 0 
L 9.078125 75.984375 
L 18.109375 75.984375 
z
" id="DejaVuSans-98"/>
     <path d="M 10.984375 1.515625 
L 10.984375 10.5 
Q 14.703125 8.734375 18.5 7.8125 
Q 22.3125 6.890625 25.984375 6.890625 
Q 35.75 6.890625 40.890625 13.453125 
Q 46.046875 20.015625 46.78125 33.40625 
Q 43.953125 29.203125 39.59375 26.953125 
Q 35.25 24.703125 29.984375 24.703125 
Q 19.046875 24.703125 12.671875 31.3125 
Q 6.296875 37.9375 6.296875 49.421875 
Q 6.296875 60.640625 12.9375 67.421875 
Q 19.578125 74.21875 30.609375 74.21875 
Q 43.265625 74.21875 49.921875 64.515625 
Q 56.59375 54.828125 56.59375 36.375 
Q 56.59375 19.140625 48.40625 8.859375 
Q 40.234375 -1.421875 26.421875 -1.421875 
Q 22.703125 -1.421875 18.890625 -0.6875 
Q 15.09375 0.046875 10.984375 1.515625 
z
M 30.609375 32.421875 
Q 37.25 32.421875 41.125 36.953125 
Q 45.015625 41.5 45.015625 49.421875 
Q 45.015625 57.28125 41.125 61.84375 
Q 37.25 66.40625 30.609375 66.40625 
Q 23.96875 66.40625 20.09375 61.84375 
Q 16.21875 57.28125 16.21875 49.421875 
Q 16.21875 41.5 20.09375 36.953125 
Q 23.96875 32.421875 30.609375 32.421875 
z
" id="DejaVuSans-57"/>
    </defs>
    <g transform="translate(375.22944 246.689638)scale(0.17 -0.17)">
     <use xlink:href="#DejaVuSans-98"/>
     <use x="63.476562" xlink:href="#DejaVuSans-101"/>
     <use x="125" xlink:href="#DejaVuSans-115"/>
     <use x="177.099609" xlink:href="#DejaVuSans-116"/>
     <use x="216.308594" xlink:href="#DejaVuSans-32"/>
     <use x="248.095703" xlink:href="#DejaVuSans-50"/>
     <use x="311.71875" xlink:href="#DejaVuSans-48"/>
     <use x="375.341797" xlink:href="#DejaVuSans-48"/>
     <use x="438.964844" xlink:href="#DejaVuSans-57"/>
    </g>
   </g>
   <g id="text_15">
    <!-- 200s-2e4 -->
    <g transform="translate(375.22944 195.116537)scale(0.17 -0.17)">
     <use xlink:href="#DejaVuSans-50"/>
     <use x="63.623047" xlink:href="#DejaVuSans-48"/>
     <use x="127.246094" xlink:href="#DejaVuSans-48"/>
     <use x="190.869141" xlink:href="#DejaVuSans-115"/>
     <use x="242.96875" xlink:href="#DejaVuSans-45"/>
     <use x="279.052734" xlink:href="#DejaVuSans-50"/>
     <use x="342.675781" xlink:href="#DejaVuSans-101"/>
     <use x="404.199219" xlink:href="#DejaVuSans-52"/>
    </g>
   </g>
   <g id="text_16">
    <!-- 140s-2e4 -->
    <g transform="translate(375.22944 143.543437)scale(0.17 -0.17)">
     <use xlink:href="#DejaVuSans-49"/>
     <use x="63.623047" xlink:href="#DejaVuSans-52"/>
     <use x="127.246094" xlink:href="#DejaVuSans-48"/>
     <use x="190.869141" xlink:href="#DejaVuSans-115"/>
     <use x="242.96875" xlink:href="#DejaVuSans-45"/>
     <use x="279.052734" xlink:href="#DejaVuSans-50"/>
     <use x="342.675781" xlink:href="#DejaVuSans-101"/>
     <use x="404.199219" xlink:href="#DejaVuSans-52"/>
    </g>
   </g>
   <g id="text_17">
    <!-- 100-1e5 -->
    <defs>
     <path d="M 10.796875 72.90625 
L 49.515625 72.90625 
L 49.515625 64.59375 
L 19.828125 64.59375 
L 19.828125 46.734375 
Q 21.96875 47.46875 24.109375 47.828125 
Q 26.265625 48.1875 28.421875 48.1875 
Q 40.625 48.1875 47.75 41.5 
Q 54.890625 34.8125 54.890625 23.390625 
Q 54.890625 11.625 47.5625 5.09375 
Q 40.234375 -1.421875 26.90625 -1.421875 
Q 22.3125 -1.421875 17.546875 -0.640625 
Q 12.796875 0.140625 7.71875 1.703125 
L 7.71875 11.625 
Q 12.109375 9.234375 16.796875 8.0625 
Q 21.484375 6.890625 26.703125 6.890625 
Q 35.15625 6.890625 40.078125 11.328125 
Q 45.015625 15.765625 45.015625 23.390625 
Q 45.015625 31 40.078125 35.4375 
Q 35.15625 39.890625 26.703125 39.890625 
Q 22.75 39.890625 18.8125 39.015625 
Q 14.890625 38.140625 10.796875 36.28125 
z
" id="DejaVuSans-53"/>
    </defs>
    <g transform="translate(375.22944 91.970336)scale(0.17 -0.17)">
     <use xlink:href="#DejaVuSans-49"/>
     <use x="63.623047" xlink:href="#DejaVuSans-48"/>
     <use x="127.246094" xlink:href="#DejaVuSans-48"/>
     <use x="190.869141" xlink:href="#DejaVuSans-45"/>
     <use x="226.953125" xlink:href="#DejaVuSans-49"/>
     <use x="290.576172" xlink:href="#DejaVuSans-101"/>
     <use x="352.099609" xlink:href="#DejaVuSans-53"/>
    </g>
   </g>
   <g id="text_18">
    <!-- 100-2e4 -->
    <g transform="translate(375.22944 40.397235)scale(0.17 -0.17)">
     <use xlink:href="#DejaVuSans-49"/>
     <use x="63.623047" xlink:href="#DejaVuSans-48"/>
     <use x="127.246094" xlink:href="#DejaVuSans-48"/>
     <use x="190.869141" xlink:href="#DejaVuSans-45"/>
     <use x="226.953125" xlink:href="#DejaVuSans-50"/>
     <use x="290.576172" xlink:href="#DejaVuSans-101"/>
     <use x="352.099609" xlink:href="#DejaVuSans-52"/>
    </g>
   </g>
   <g id="text_19">
    <!-- bbob f10, 40-D -->
    <defs>
     <path d="M 19.671875 64.796875 
L 19.671875 8.109375 
L 31.59375 8.109375 
Q 46.6875 8.109375 53.6875 14.9375 
Q 60.6875 21.78125 60.6875 36.53125 
Q 60.6875 51.171875 53.6875 57.984375 
Q 46.6875 64.796875 31.59375 64.796875 
z
M 9.8125 72.90625 
L 30.078125 72.90625 
Q 51.265625 72.90625 61.171875 64.09375 
Q 71.09375 55.28125 71.09375 36.53125 
Q 71.09375 17.671875 61.125 8.828125 
Q 51.171875 0 30.078125 0 
L 9.8125 0 
z
" id="DejaVuSans-68"/>
    </defs>
    <g transform="translate(60.41088 38.111366)scale(0.102 -0.102)">
     <use xlink:href="#DejaVuSans-98"/>
     <use x="63.476562" xlink:href="#DejaVuSans-98"/>
     <use x="126.953125" xlink:href="#DejaVuSans-111"/>
     <use x="188.134766" xlink:href="#DejaVuSans-98"/>
     <use x="251.611328" xlink:href="#DejaVuSans-32"/>
     <use x="283.398438" xlink:href="#DejaVuSans-102"/>
     <use x="318.603516" xlink:href="#DejaVuSans-49"/>
     <use x="382.226562" xlink:href="#DejaVuSans-48"/>
     <use x="445.849609" xlink:href="#DejaVuSans-44"/>
     <use x="477.636719" xlink:href="#DejaVuSans-32"/>
     <use x="509.423828" xlink:href="#DejaVuSans-52"/>
     <use x="573.046875" xlink:href="#DejaVuSans-48"/>
     <use x="636.669922" xlink:href="#DejaVuSans-45"/>
     <use x="672.753906" xlink:href="#DejaVuSans-68"/>
    </g>
    <!-- 51 targets: 100..1e-08 -->
    <defs>
     <path d="M 11.71875 12.40625 
L 22.015625 12.40625 
L 22.015625 0 
L 11.71875 0 
z
M 11.71875 51.703125 
L 22.015625 51.703125 
L 22.015625 39.3125 
L 11.71875 39.3125 
z
" id="DejaVuSans-58"/>
    </defs>
    <g transform="translate(60.41088 49.533135)scale(0.102 -0.102)">
     <use xlink:href="#DejaVuSans-53"/>
     <use x="63.623047" xlink:href="#DejaVuSans-49"/>
     <use x="127.246094" xlink:href="#DejaVuSans-32"/>
     <use x="159.033203" xlink:href="#DejaVuSans-116"/>
     <use x="198.242188" xlink:href="#DejaVuSans-97"/>
     <use x="259.521484" xlink:href="#DejaVuSans-114"/>
     <use x="300.619141" xlink:href="#DejaVuSans-103"/>
     <use x="364.095703" xlink:href="#DejaVuSans-101"/>
     <use x="425.619141" xlink:href="#DejaVuSans-116"/>
     <use x="464.828125" xlink:href="#DejaVuSans-115"/>
     <use x="516.927734" xlink:href="#DejaVuSans-58"/>
     <use x="550.619141" xlink:href="#DejaVuSans-32"/>
     <use x="582.40625" xlink:href="#DejaVuSans-49"/>
     <use x="646.029297" xlink:href="#DejaVuSans-48"/>
     <use x="709.652344" xlink:href="#DejaVuSans-48"/>
     <use x="773.275391" xlink:href="#DejaVuSans-46"/>
     <use x="805.0625" xlink:href="#DejaVuSans-46"/>
     <use x="836.849609" xlink:href="#DejaVuSans-49"/>
     <use x="900.472656" xlink:href="#DejaVuSans-101"/>
     <use x="961.996094" xlink:href="#DejaVuSans-45"/>
     <use x="998.080078" xlink:href="#DejaVuSans-48"/>
     <use x="1061.703125" xlink:href="#DejaVuSans-56"/>
    </g>
    <!-- 15 instances -->
    <g transform="translate(60.41088 60.954904)scale(0.102 -0.102)">
     <use xlink:href="#DejaVuSans-49"/>
     <use x="63.623047" xlink:href="#DejaVuSans-53"/>
     <use x="127.246094" xlink:href="#DejaVuSans-32"/>
     <use x="159.033203" xlink:href="#DejaVuSans-105"/>
     <use x="186.816406" xlink:href="#DejaVuSans-110"/>
     <use x="250.195312" xlink:href="#DejaVuSans-115"/>
     <use x="302.294922" xlink:href="#DejaVuSans-116"/>
     <use x="341.503906" xlink:href="#DejaVuSans-97"/>
     <use x="402.783203" xlink:href="#DejaVuSans-110"/>
     <use x="466.162109" xlink:href="#DejaVuSans-99"/>
     <use x="521.142578" xlink:href="#DejaVuSans-101"/>
     <use x="582.666016" xlink:href="#DejaVuSans-115"/>
    </g>
   </g>
   <g id="text_20">
    <!-- v2.3.3.18.73 -->
    <defs>
     <path d="M 40.578125 39.3125 
Q 47.65625 37.796875 51.625 33 
Q 55.609375 28.21875 55.609375 21.1875 
Q 55.609375 10.40625 48.1875 4.484375 
Q 40.765625 -1.421875 27.09375 -1.421875 
Q 22.515625 -1.421875 17.65625 -0.515625 
Q 12.796875 0.390625 7.625 2.203125 
L 7.625 11.71875 
Q 11.71875 9.328125 16.59375 8.109375 
Q 21.484375 6.890625 26.8125 6.890625 
Q 36.078125 6.890625 40.9375 10.546875 
Q 45.796875 14.203125 45.796875 21.1875 
Q 45.796875 27.640625 41.28125 31.265625 
Q 36.765625 34.90625 28.71875 34.90625 
L 20.21875 34.90625 
L 20.21875 43.015625 
L 29.109375 43.015625 
Q 36.375 43.015625 40.234375 45.921875 
Q 44.09375 48.828125 44.09375 54.296875 
Q 44.09375 59.90625 40.109375 62.90625 
Q 36.140625 65.921875 28.71875 65.921875 
Q 24.65625 65.921875 20.015625 65.03125 
Q 15.375 64.15625 9.8125 62.3125 
L 9.8125 71.09375 
Q 15.4375 72.65625 20.34375 73.4375 
Q 25.25 74.21875 29.59375 74.21875 
Q 40.828125 74.21875 47.359375 69.109375 
Q 53.90625 64.015625 53.90625 55.328125 
Q 53.90625 49.265625 50.4375 45.09375 
Q 46.96875 40.921875 40.578125 39.3125 
z
" id="DejaVuSans-51"/>
     <path d="M 8.203125 72.90625 
L 55.078125 72.90625 
L 55.078125 68.703125 
L 28.609375 0 
L 18.3125 0 
L 43.21875 64.59375 
L 8.203125 64.59375 
z
" id="DejaVuSans-55"/>
    </defs>
    <g style="fill:#808080;" transform="translate(166.559625 294.151352)scale(0.1 -0.1)">
     <use xlink:href="#DejaVuSans-118"/>
     <use x="59.179688" xlink:href="#DejaVuSans-50"/>
     <use x="122.802734" xlink:href="#DejaVuSans-46"/>
     <use x="154.589844" xlink:href="#DejaVuSans-51"/>
     <use x="218.212891" xlink:href="#DejaVuSans-46"/>
     <use x="250" xlink:href="#DejaVuSans-51"/>
     <use x="313.623047" xlink:href="#DejaVuSans-46"/>
     <use x="345.410156" xlink:href="#DejaVuSans-49"/>
     <use x="409.033203" xlink:href="#DejaVuSans-56"/>
     <use x="472.65625" xlink:href="#DejaVuSans-46"/>
     <use x="504.443359" xlink:href="#DejaVuSans-55"/>
     <use x="568.066406" xlink:href="#DejaVuSans-51"/>
    </g>
   </g>
   <g id="text_21">
    <!-- 10 Ellipsoid -->
    <defs>
     <path d="M 9.8125 72.90625 
L 55.90625 72.90625 
L 55.90625 64.59375 
L 19.671875 64.59375 
L 19.671875 43.015625 
L 54.390625 43.015625 
L 54.390625 34.71875 
L 19.671875 34.71875 
L 19.671875 8.296875 
L 56.78125 8.296875 
L 56.78125 0 
L 9.8125 0 
z
" id="DejaVuSans-69"/>
    </defs>
    <g transform="translate(140.784625 21.648)scale(0.2 -0.2)">
     <use xlink:href="#DejaVuSans-49"/>
     <use x="63.623047" xlink:href="#DejaVuSans-48"/>
     <use x="127.246094" xlink:href="#DejaVuSans-32"/>
     <use x="159.033203" xlink:href="#DejaVuSans-69"/>
     <use x="222.216797" xlink:href="#DejaVuSans-108"/>
     <use x="250" xlink:href="#DejaVuSans-108"/>
     <use x="277.783203" xlink:href="#DejaVuSans-105"/>
     <use x="305.566406" xlink:href="#DejaVuSans-112"/>
     <use x="369.042969" xlink:href="#DejaVuSans-115"/>
     <use x="421.142578" xlink:href="#DejaVuSans-111"/>
     <use x="482.324219" xlink:href="#DejaVuSans-105"/>
     <use x="510.107422" xlink:href="#DejaVuSans-100"/>
    </g>
   </g>
  </g>
 </g>
 <defs>
  <clipPath id="p0bcf7850f4">
   <rect height="271.296" width="281.088" x="57.6" y="27.648"/>
  </clipPath>
 </defs>
</svg>
